  0
SECTION
  2
HEADER
  9
$ACADVER
  1
AC1009
  9
$INSBASE
 10
0.0
 20
0.0
 30
0.0
  9
$EXTMIN
 10
-1.05
 20
-8.2399999999999984
 30
-4.0199999999999987
  9
$EXTMAX
 10
1.05
 20
5.8200000000000003
 30
2.919999999999999
  9
$LIMMIN
 10
0.0
 20
0.0
  9
$LIMMAX
 10
420.0
 20
297.0
  9
$ORTHOMODE
 70
     1
  9
$REGENMODE
 70
     1
  9
$FILLMODE
 70
     1
  9
$QTEXTMODE
 70
     0
  9
$MIRRTEXT
 70
     1
  9
$DRAGMODE
 70
     2
  9
$LTSCALE
 40
1.0
  9
$OSMODE
 70
    35
  9
$ATTMODE
 70
     1
  9
$TEXTSIZE
 40
2.5
  9
$TRACEWID
 40
1.0
  9
$TEXTSTYLE
  7
STANDARD
  9
$CLAYER
  8
WHEELS
  9
$CELTYPE
  6
BYLAYER
  9
$CECOLOR
 62
   256
  9
$DIMSCALE
 40
1.0
  9
$DIMASZ
 40
2.5
  9
$DIMEXO
 40
0.625
  9
$DIMDLI
 40
3.75
  9
$DIMRND
 40
0.0
  9
$DIMDLE
 40
0.0
  9
$DIMEXE
 40
1.25
  9
$DIMTP
 40
0.0
  9
$DIMTM
 40
0.0
  9
$DIMTXT
 40
2.5
  9
$DIMCEN
 40
2.5
  9
$DIMTSZ
 40
0.0
  9
$DIMTOL
 70
     0
  9
$DIMLIM
 70
     0
  9
$DIMTIH
 70
     0
  9
$DIMTOH
 70
     0
  9
$DIMSE1
 70
     0
  9
$DIMSE2
 70
     0
  9
$DIMTAD
 70
     1
  9
$DIMZIN
 70
     8
  9
$DIMBLK
  1

  9
$DIMASO
 70
     1
  9
$DIMSHO
 70
     1
  9
$DIMPOST
  1

  9
$DIMAPOST
  1

  9
$DIMALT
 70
     0
  9
$DIMALTD
 70
     3
  9
$DIMALTF
 40
0.03937007874016
  9
$DIMLFAC
 40
1.0
  9
$DIMTOFL
 70
     1
  9
$DIMTVP
 40
0.0
  9
$DIMTIX
 70
     0
  9
$DIMSOXD
 70
     0
  9
$DIMSAH
 70
     0
  9
$DIMBLK1
  1

  9
$DIMBLK2
  1

  9
$DIMSTYLE
  2
ISO-25
  9
$DIMCLRD
 70
     0
  9
$DIMCLRE
 70
     0
  9
$DIMCLRT
 70
     0
  9
$DIMTFAC
 40
1.0
  9
$DIMGAP
 40
0.625
  9
$LUNITS
 70
     2
  9
$LUPREC
 70
     4
  9
$SKETCHINC
 40
1.0
  9
$FILLETRAD
 40
10.0
  9
$AUNITS
 70
     0
  9
$AUPREC
 70
     0
  9
$MENU
  1
.
  9
$ELEVATION
 40
0.0
  9
$PELEVATION
 40
0.0
  9
$THICKNESS
 40
0.0
  9
$LIMCHECK
 70
     0
  9
$BLIPMODE
 70
     0
  9
$CHAMFERA
 40
10.0
  9
$CHAMFERB
 40
10.0
  9
$SKPOLY
 70
     0
  9
$TDCREATE
 40
2457225.531703101
  9
$TDUPDATE
 40
2457230.8096507289
  9
$TDINDWG
 40
1.2626297685000001
  9
$TDUSRTIMER
 40
1.2626297685000001
  9
$USRTIMER
 70
     1
  9
$ANGBASE
 50
0.0
  9
$ANGDIR
 70
     0
  9
$PDMODE
 70
     0
  9
$PDSIZE
 40
0.0
  9
$PLINEWID
 40
0.0
  9
$COORDS
 70
     1
  9
$SPLFRAME
 70
     0
  9
$SPLINETYPE
 70
     6
  9
$SPLINESEGS
 70
     8
  9
$ATTDIA
 70
     1
  9
$ATTREQ
 70
     1
  9
$HANDLING
 70
-16383
  9
$HANDSEED
  5
122D
  9
$SURFTAB1
 70
     6
  9
$SURFTAB2
 70
     6
  9
$SURFTYPE
 70
     6
  9
$SURFU
 70
     6
  9
$SURFV
 70
     6
  9
$UCSNAME
  2

  9
$UCSORG
 10
0.0
 20
0.0
 30
0.0
  9
$UCSXDIR
 10
0.0
 20
-1.0
 30
0.0
  9
$UCSYDIR
 10
0.0
 20
0.0
 30
1.0
  9
$PUCSNAME
  2

  9
$PUCSORG
 10
0.0
 20
0.0
 30
0.0
  9
$PUCSXDIR
 10
1.0
 20
0.0
 30
0.0
  9
$PUCSYDIR
 10
0.0
 20
1.0
 30
0.0
  9
$USERI1
 70
     0
  9
$USERI2
 70
     0
  9
$USERI3
 70
     0
  9
$USERI4
 70
     0
  9
$USERI5
 70
     0
  9
$USERR1
 40
0.0
  9
$USERR2
 40
0.0
  9
$USERR3
 40
0.0
  9
$USERR4
 40
0.0
  9
$USERR5
 40
0.0
  9
$WORLDVIEW
 70
     1
  9
$SHADEDGE
 70
     3
  9
$SHADEDIF
 70
    70
  9
$TILEMODE
 70
     1
  9
$MAXACTVP
 70
    64
  9
$PLIMCHECK
 70
     0
  9
$PEXTMIN
 10
27.844751262664801
 20
20.161249995231621
 30
0.0
  9
$PEXTMAX
 10
250.60276136398309
 20
181.4512499570846
 30
0.0
  9
$PLIMMIN
 10
-3.757080078125
 20
-3.7570831775665279
  9
$PLIMMAX
 10
293.21124267578119
 20
206.21624445915219
  9
$UNITMODE
 70
     0
  9
$VISRETAIN
 70
     1
  9
$PLINEGEN
 70
     0
  9
$PSLTSCALE
 70
     1
  0
ENDSEC
  0
SECTION
  2
TABLES
  0
TABLE
  2
VPORT
 70
     7
  0
VPORT
  2
*ACTIVE
 70
     0
 10
0.0
 20
0.0
 11
1.0
 21
1.0
 12
0.1966181783908563
 22
0.1124832974225267
 13
0.0
 23
0.0
 14
0.01
 24
0.01
 15
1.0
 25
1.0
 16
-1.0
 26
0.0
 36
0.0
 17
0.0
 27
0.0
 37
0.0
 40
3.4842611416452658
 41
2.2487980769230771
 42
50.0
 43
0.0
 44
0.0
 50
0.0
 51
0.0
 71
     0
 72
   100
 73
     1
 74
     3
 75
     1
 76
     1
 77
     0
 78
     0
  0
ENDTAB
  0
TABLE
  2
LTYPE
 70
     1
  0
LTYPE
  2
CONTINUOUS
 70
     0
  3
Solid line
 72
    65
 73
     0
 40
0.0
  0
ENDTAB
  0
TABLE
  2
LAYER
 70
    10
  0
LAYER
  2
0
 70
     0
 62
     7
  6
CONTINUOUS
  0
LAYER
  2
REFERENCE
 70
     0
 62
     9
  6
CONTINUOUS
  0
LAYER
  2
TMP
 70
     0
 62
     4
  6
CONTINUOUS
  0
LAYER
  2
FENDERS
 70
     0
 62
     6
  6
CONTINUOUS
  0
LAYER
  2
INTERNALS
 70
     0
 62
     5
  6
CONTINUOUS
  0
LAYER
  2
F2
 70
     0
 62
     6
  6
CONTINUOUS
  0
LAYER
  2
WHEELS
 70
     0
 62
     2
  6
CONTINUOUS
  0
LAYER
  2
TRACKS
 70
     0
 62
     3
  6
CONTINUOUS
  0
LAYER
  2
TURRET
 70
     0
 62
     2
  6
CONTINUOUS
  0
LAYER
  2
GUN
 70
     0
 62
     1
  6
CONTINUOUS
  0
ENDTAB
  0
TABLE
  2
STYLE
 70
     1
  0
STYLE
  2
STANDARD
 70
     0
 40
0.0
 41
1.0
 50
0.0
 71
     0
 42
2.5
  3
txt
  4

  0
ENDTAB
  0
TABLE
  2
VIEW
 70
     0
  0
ENDTAB
  0
TABLE
  2
UCS
 70
     0
  0
ENDTAB
  0
TABLE
  2
APPID
 70
     1
  0
APPID
  2
ACAD
 70
     0
  0
ENDTAB
  0
TABLE
  2
DIMSTYLE
 70
     1
  0
DIMSTYLE
  2
ISO-25
 70
     0
  3

  4

  5

  6

  7

 40
1.0
 41
2.5
 42
0.625
 43
3.75
 44
1.25
 45
0.0
 46
0.0
 47
0.0
 48
0.0
140
2.5
141
2.5
142
0.0
143
0.03937007874016
144
1.0
145
0.0
146
1.0
147
0.625
 71
     0
 72
     0
 73
     0
 74
     0
 75
     0
 76
     0
 77
     1
 78
     8
170
     0
171
     3
172
     1
173
     0
174
     0
175
     0
176
     0
177
     0
178
     0
  0
ENDTAB
  0
ENDSEC
  0
SECTION
  2
BLOCKS
  0
BLOCK
  8
0
  2
$MODEL_SPACE
 70
     0
 10
0.0
 20
0.0
 30
0.0
  3
$MODEL_SPACE
  1

  0
ENDBLK
  5
21
  8
0
  0
BLOCK
 67
     1
  8
0
  2
$PAPER_SPACE
 70
     0
 10
0.0
 20
0.0
 30
0.0
  3
$PAPER_SPACE
  1

  0
ENDBLK
  5
1D
 67
     1
  8
0
  0
ENDSEC
  0
SECTION
  2
ENTITIES
  0
3DFACE
  5
50A
  8
WHEELS
 10
-0.94
 20
0.23
 30
0.0
 11
-0.94
 21
0.162634559672906
 31
0.1626345596729059
 12
-0.9700000000000001
 22
0.1979898987322333
 32
0.1979898987322333
 13
-0.9700000000000001
 23
0.2800000000000002
 33
0.0
  0
3DFACE
  5
50B
  8
WHEELS
 10
-0.94
 20
0.162634559672906
 30
0.1626345596729059
 11
-0.94
 21
0.0
 31
0.23
 12
-0.9700000000000001
 22
0.0
 32
0.28
 13
-0.9700000000000001
 23
0.1979898987322333
 33
0.1979898987322333
  0
3DFACE
  5
50C
  8
WHEELS
 10
-0.94
 20
0.0
 30
0.23
 11
-0.94
 21
-0.162634559672906
 31
0.1626345596729059
 12
-0.9700000000000001
 22
-0.1979898987322333
 32
0.1979898987322333
 13
-0.9700000000000001
 23
0.0
 33
0.28
  0
3DFACE
  5
50D
  8
WHEELS
 10
-0.94
 20
-0.162634559672906
 30
0.1626345596729059
 11
-0.94
 21
-0.23
 31
0.0000000000000001
 12
-0.9700000000000001
 22
-0.2800000000000002
 32
0.0000000000000001
 13
-0.9700000000000001
 23
-0.1979898987322333
 33
0.1979898987322333
  0
3DFACE
  5
50E
  8
WHEELS
 10
-0.94
 20
-0.23
 30
0.0000000000000001
 11
-0.94
 21
-0.162634559672906
 31
-0.1626345596729059
 12
-0.9700000000000001
 22
-0.1979898987322333
 32
-0.1979898987322333
 13
-0.9700000000000001
 23
-0.2800000000000002
 33
0.0000000000000001
  0
3DFACE
  5
50F
  8
WHEELS
 10
-0.94
 20
-0.162634559672906
 30
-0.1626345596729059
 11
-0.94
 21
0.0
 31
-0.23
 12
-0.9700000000000001
 22
0.0
 32
-0.28
 13
-0.9700000000000001
 23
-0.1979898987322333
 33
-0.1979898987322333
  0
3DFACE
  5
510
  8
WHEELS
 10
-0.94
 20
0.0
 30
-0.23
 11
-0.94
 21
0.162634559672906
 31
-0.162634559672906
 12
-0.9700000000000001
 22
0.1979898987322333
 32
-0.1979898987322334
 13
-0.9700000000000001
 23
0.0
 33
-0.28
  0
3DFACE
  5
511
  8
WHEELS
 10
-0.94
 20
0.162634559672906
 30
-0.162634559672906
 11
-0.94
 21
0.23
 31
0.0
 12
-0.9700000000000001
 22
0.2800000000000002
 32
0.0
 13
-0.9700000000000001
 23
0.1979898987322333
 33
-0.1979898987322334
  0
3DFACE
  5
512
  8
WHEELS
 10
-0.8100000000000001
 20
0.44
 30
0.0
 11
-0.8100000000000001
 21
0.381051177665153
 31
0.2199999999999999
 12
-0.7800000000000001
 22
0.3377499074759309
 32
0.195
 13
-0.7800000000000001
 23
0.3900000000000001
 33
0.0
  0
3DFACE
  5
513
  8
WHEELS
 10
-0.8100000000000001
 20
0.381051177665153
 30
0.2199999999999999
 11
-0.8100000000000001
 21
0.2200000000000002
 31
0.381051177665153
 12
-0.7800000000000001
 22
0.1949999999999998
 32
0.3377499074759311
 13
-0.7800000000000001
 23
0.3377499074759309
 33
0.195
  0
3DFACE
  5
514
  8
WHEELS
 10
-0.8100000000000001
 20
0.2200000000000002
 30
0.381051177665153
 11
-0.8100000000000001
 21
0.0
 31
0.4400000000000001
 12
-0.7800000000000001
 22
0.0
 32
0.3900000000000001
 13
-0.7800000000000001
 23
0.1949999999999998
 33
0.3377499074759311
  0
3DFACE
  5
515
  8
WHEELS
 10
-0.8100000000000001
 20
0.0
 30
0.4400000000000001
 11
-0.8100000000000001
 21
-0.2199999999999997
 31
0.381051177665153
 12
-0.7800000000000001
 22
-0.1949999999999998
 32
0.3377499074759311
 13
-0.7800000000000001
 23
0.0
 33
0.3900000000000001
  0
3DFACE
  5
516
  8
WHEELS
 10
-0.8100000000000001
 20
-0.2199999999999997
 30
0.381051177665153
 11
-0.8100000000000001
 21
-0.381051177665153
 31
0.2200000000000001
 12
-0.7800000000000001
 22
-0.3377499074759309
 32
0.1950000000000001
 13
-0.7800000000000001
 23
-0.1949999999999998
 33
0.3377499074759311
  0
3DFACE
  5
517
  8
WHEELS
 10
-0.8100000000000001
 20
-0.381051177665153
 30
0.2200000000000001
 11
-0.8100000000000001
 21
-0.44
 31
0.0000000000000002
 12
-0.7800000000000001
 22
-0.3900000000000001
 32
0.0000000000000002
 13
-0.7800000000000001
 23
-0.3377499074759309
 33
0.1950000000000001
  0
3DFACE
  5
518
  8
WHEELS
 10
-0.8100000000000001
 20
-0.44
 30
0.0000000000000002
 11
-0.8100000000000001
 21
-0.381051177665153
 31
-0.2199999999999997
 12
-0.7800000000000001
 22
-0.3377499074759314
 32
-0.1949999999999997
 13
-0.7800000000000001
 23
-0.3900000000000001
 33
0.0000000000000002
  0
3DFACE
  5
519
  8
WHEELS
 10
-0.8100000000000001
 20
-0.381051177665153
 30
-0.2199999999999997
 11
-0.8100000000000001
 21
-0.2200000000000002
 31
-0.3810511776651529
 12
-0.7800000000000001
 22
-0.1950000000000003
 32
-0.337749907475931
 13
-0.7800000000000001
 23
-0.3377499074759314
 33
-0.1949999999999997
  0
3DFACE
  5
51A
  8
WHEELS
 10
-0.8100000000000001
 20
-0.2200000000000002
 30
-0.3810511776651529
 11
-0.8100000000000001
 21
0.0
 31
-0.4400000000000001
 12
-0.7800000000000001
 22
0.0
 32
-0.39
 13
-0.7800000000000001
 23
-0.1950000000000003
 33
-0.337749907475931
  0
3DFACE
  5
51B
  8
WHEELS
 10
-0.8100000000000001
 20
0.0
 30
-0.4400000000000001
 11
-0.8100000000000001
 21
0.2200000000000002
 31
-0.381051177665153
 12
-0.7800000000000001
 22
0.1949999999999998
 32
-0.3377499074759311
 13
-0.7800000000000001
 23
0.0
 33
-0.39
  0
3DFACE
  5
51C
  8
WHEELS
 10
-0.8100000000000001
 20
0.2200000000000002
 30
-0.381051177665153
 11
-0.8100000000000001
 21
0.381051177665153
 31
-0.2199999999999998
 12
-0.7800000000000001
 22
0.3377499074759314
 32
-0.1949999999999999
 13
-0.7800000000000001
 23
0.1949999999999998
 33
-0.3377499074759311
  0
3DFACE
  5
51D
  8
WHEELS
 10
-0.8100000000000001
 20
0.381051177665153
 30
-0.2199999999999998
 11
-0.8100000000000001
 21
0.44
 31
0.0
 12
-0.7800000000000001
 22
0.3900000000000001
 32
0.0
 13
-0.7800000000000001
 23
0.3377499074759314
 33
-0.1949999999999999
  0
3DFACE
  5
51E
  8
WHEELS
 10
-0.94
 20
-0.44
 30
0.0
 11
-0.94
 21
-0.381051177665153
 31
0.2199999999999999
 12
-0.9700000000000001
 22
-0.3377499074759309
 32
0.195
 13
-0.9700000000000001
 23
-0.3900000000000001
 33
0.0
  0
3DFACE
  5
51F
  8
WHEELS
 10
-0.94
 20
-0.381051177665153
 30
0.2199999999999999
 11
-0.94
 21
-0.2200000000000002
 31
0.381051177665153
 12
-0.9700000000000001
 22
-0.1949999999999998
 32
0.3377499074759311
 13
-0.9700000000000001
 23
-0.3377499074759309
 33
0.195
  0
3DFACE
  5
520
  8
WHEELS
 10
-0.94
 20
-0.2200000000000002
 30
0.381051177665153
 11
-0.94
 21
0.0
 31
0.4400000000000001
 12
-0.9700000000000001
 22
0.0
 32
0.3900000000000001
 13
-0.9700000000000001
 23
-0.1949999999999998
 33
0.3377499074759311
  0
3DFACE
  5
521
  8
WHEELS
 10
-0.94
 20
0.0
 30
0.4400000000000001
 11
-0.94
 21
0.2199999999999997
 31
0.381051177665153
 12
-0.9700000000000001
 22
0.1949999999999998
 32
0.3377499074759311
 13
-0.9700000000000001
 23
0.0
 33
0.3900000000000001
  0
3DFACE
  5
522
  8
WHEELS
 10
-0.94
 20
0.2199999999999997
 30
0.381051177665153
 11
-0.94
 21
0.381051177665153
 31
0.2200000000000001
 12
-0.9700000000000001
 22
0.3377499074759309
 32
0.1950000000000001
 13
-0.9700000000000001
 23
0.1949999999999998
 33
0.3377499074759311
  0
3DFACE
  5
523
  8
WHEELS
 10
-0.94
 20
0.381051177665153
 30
0.2200000000000001
 11
-0.94
 21
0.44
 31
0.0000000000000002
 12
-0.9700000000000001
 22
0.3900000000000001
 32
0.0000000000000002
 13
-0.9700000000000001
 23
0.3377499074759309
 33
0.1950000000000001
  0
3DFACE
  5
524
  8
WHEELS
 10
-0.94
 20
0.44
 30
0.0000000000000002
 11
-0.94
 21
0.381051177665153
 31
-0.2199999999999997
 12
-0.9700000000000001
 22
0.3377499074759314
 32
-0.1949999999999997
 13
-0.9700000000000001
 23
0.3900000000000001
 33
0.0000000000000002
  0
3DFACE
  5
525
  8
WHEELS
 10
-0.94
 20
0.381051177665153
 30
-0.2199999999999997
 11
-0.94
 21
0.2200000000000002
 31
-0.3810511776651529
 12
-0.9700000000000001
 22
0.1950000000000003
 32
-0.337749907475931
 13
-0.9700000000000001
 23
0.3377499074759314
 33
-0.1949999999999997
  0
3DFACE
  5
526
  8
WHEELS
 10
-0.94
 20
0.2200000000000002
 30
-0.3810511776651529
 11
-0.94
 21
0.0
 31
-0.4400000000000001
 12
-0.9700000000000001
 22
0.0
 32
-0.39
 13
-0.9700000000000001
 23
0.1950000000000003
 33
-0.337749907475931
  0
3DFACE
  5
527
  8
WHEELS
 10
-0.94
 20
0.0
 30
-0.4400000000000001
 11
-0.94
 21
-0.2200000000000002
 31
-0.381051177665153
 12
-0.9700000000000001
 22
-0.1949999999999998
 32
-0.3377499074759311
 13
-0.9700000000000001
 23
0.0
 33
-0.39
  0
3DFACE
  5
528
  8
WHEELS
 10
-0.94
 20
-0.2200000000000002
 30
-0.381051177665153
 11
-0.94
 21
-0.381051177665153
 31
-0.2199999999999998
 12
-0.9700000000000001
 22
-0.3377499074759314
 32
-0.1949999999999999
 13
-0.9700000000000001
 23
-0.1949999999999998
 33
-0.3377499074759311
  0
3DFACE
  5
529
  8
WHEELS
 10
-0.94
 20
-0.381051177665153
 30
-0.2199999999999998
 11
-0.94
 21
-0.44
 31
0.0
 12
-0.9700000000000001
 22
-0.3900000000000001
 32
0.0
 13
-0.9700000000000001
 23
-0.3377499074759314
 33
-0.1949999999999999
  0
3DFACE
  5
52A
  8
WHEELS
 10
-0.8100000000000001
 20
-0.44
 30
0.0
 11
-0.8100000000000001
 21
-0.381051177665153
 31
0.2199999999999999
 12
-0.94
 22
-0.381051177665153
 32
0.2199999999999999
 13
-0.94
 23
-0.44
 33
0.0
  0
3DFACE
  5
52B
  8
WHEELS
 10
-0.8100000000000001
 20
-0.381051177665153
 30
0.2199999999999999
 11
-0.8100000000000001
 21
-0.2200000000000002
 31
0.381051177665153
 12
-0.94
 22
-0.2200000000000002
 32
0.381051177665153
 13
-0.94
 23
-0.381051177665153
 33
0.2199999999999999
  0
3DFACE
  5
52C
  8
WHEELS
 10
-0.8100000000000001
 20
-0.2200000000000002
 30
0.381051177665153
 11
-0.8100000000000001
 21
0.0
 31
0.4400000000000001
 12
-0.94
 22
0.0
 32
0.4400000000000001
 13
-0.94
 23
-0.2200000000000002
 33
0.381051177665153
  0
3DFACE
  5
52D
  8
WHEELS
 10
-0.8100000000000001
 20
0.0
 30
0.4400000000000001
 11
-0.8100000000000001
 21
0.2199999999999997
 31
0.381051177665153
 12
-0.94
 22
0.2199999999999997
 32
0.381051177665153
 13
-0.94
 23
0.0
 33
0.4400000000000001
  0
3DFACE
  5
52E
  8
WHEELS
 10
-0.8100000000000001
 20
0.2199999999999997
 30
0.381051177665153
 11
-0.8100000000000001
 21
0.381051177665153
 31
0.2200000000000001
 12
-0.94
 22
0.381051177665153
 32
0.2200000000000001
 13
-0.94
 23
0.2199999999999997
 33
0.381051177665153
  0
3DFACE
  5
52F
  8
WHEELS
 10
-0.8100000000000001
 20
0.381051177665153
 30
0.2200000000000001
 11
-0.8100000000000001
 21
0.44
 31
0.0000000000000002
 12
-0.94
 22
0.44
 32
0.0000000000000002
 13
-0.94
 23
0.381051177665153
 33
0.2200000000000001
  0
3DFACE
  5
530
  8
WHEELS
 10
-0.8100000000000001
 20
0.44
 30
0.0000000000000002
 11
-0.8100000000000001
 21
0.381051177665153
 31
-0.2199999999999997
 12
-0.94
 22
0.381051177665153
 32
-0.2199999999999997
 13
-0.94
 23
0.44
 33
0.0000000000000002
  0
3DFACE
  5
531
  8
WHEELS
 10
-0.8100000000000001
 20
0.381051177665153
 30
-0.2199999999999997
 11
-0.8100000000000001
 21
0.2200000000000002
 31
-0.3810511776651529
 12
-0.94
 22
0.2200000000000002
 32
-0.3810511776651529
 13
-0.94
 23
0.381051177665153
 33
-0.2199999999999997
  0
3DFACE
  5
532
  8
WHEELS
 10
-0.8100000000000001
 20
0.2200000000000002
 30
-0.3810511776651529
 11
-0.8100000000000001
 21
0.0
 31
-0.4400000000000001
 12
-0.94
 22
0.0
 32
-0.4400000000000001
 13
-0.94
 23
0.2200000000000002
 33
-0.3810511776651529
  0
3DFACE
  5
533
  8
WHEELS
 10
-0.8100000000000001
 20
0.0
 30
-0.4400000000000001
 11
-0.8100000000000001
 21
-0.2200000000000002
 31
-0.381051177665153
 12
-0.94
 22
-0.2200000000000002
 32
-0.381051177665153
 13
-0.94
 23
0.0
 33
-0.4400000000000001
  0
3DFACE
  5
534
  8
WHEELS
 10
-0.8100000000000001
 20
-0.2200000000000002
 30
-0.381051177665153
 11
-0.8100000000000001
 21
-0.381051177665153
 31
-0.2199999999999998
 12
-0.94
 22
-0.381051177665153
 32
-0.2199999999999998
 13
-0.94
 23
-0.2200000000000002
 33
-0.381051177665153
  0
3DFACE
  5
535
  8
WHEELS
 10
-0.8100000000000001
 20
-0.381051177665153
 30
-0.2199999999999998
 11
-0.8100000000000001
 21
-0.44
 31
0.0
 12
-0.94
 22
-0.44
 32
0.0
 13
-0.94
 23
-0.381051177665153
 33
-0.2199999999999998
  0
3DFACE
  5
536
  8
WHEELS
 10
-0.94
 20
-0.1200000000000001
 30
0.0
 11
-0.94
 21
-0.0848528137423856
 31
0.0848528137423857
 12
-1.0
 22
-0.042426406871193
 32
0.0424264068711929
 13
-1.0
 23
-0.0600000000000001
 33
0.0
  0
3DFACE
  5
537
  8
WHEELS
 10
-0.94
 20
-0.0848528137423856
 30
0.0848528137423857
 11
-0.94
 21
0.0
 31
0.1200000000000001
 12
-1.0
 22
0.0
 32
0.06
 13
-1.0
 23
-0.042426406871193
 33
0.0424264068711929
  0
3DFACE
  5
538
  8
WHEELS
 10
-0.94
 20
0.0
 30
0.1200000000000001
 11
-0.94
 21
0.0848528137423856
 31
0.0848528137423857
 12
-1.0
 22
0.042426406871193
 32
0.0424264068711929
 13
-1.0
 23
0.0
 33
0.06
  0
3DFACE
  5
539
  8
WHEELS
 10
-0.94
 20
0.0848528137423856
 30
0.0848528137423857
 11
-0.94
 21
0.1200000000000001
 31
0.0
 12
-1.0
 22
0.0600000000000001
 32
0.0
 13
-1.0
 23
0.042426406871193
 33
0.0424264068711929
  0
3DFACE
  5
53A
  8
WHEELS
 10
-0.94
 20
0.1200000000000001
 30
0.0
 11
-0.94
 21
0.0848528137423856
 31
-0.0848528137423857
 12
-1.0
 22
0.042426406871193
 32
-0.0424264068711929
 13
-1.0
 23
0.0600000000000001
 33
0.0
  0
3DFACE
  5
53B
  8
WHEELS
 10
-0.94
 20
0.0848528137423856
 30
-0.0848528137423857
 11
-0.94
 21
0.0
 31
-0.12
 12
-1.0
 22
0.0
 32
-0.06
 13
-1.0
 23
0.042426406871193
 33
-0.0424264068711929
  0
3DFACE
  5
53C
  8
WHEELS
 10
-0.94
 20
0.0
 30
-0.12
 11
-0.94
 21
-0.0848528137423856
 31
-0.0848528137423858
 12
-1.0
 22
-0.042426406871193
 32
-0.0424264068711929
 13
-1.0
 23
0.0
 33
-0.06
  0
3DFACE
  5
53D
  8
WHEELS
 10
-0.94
 20
-0.0848528137423856
 30
-0.0848528137423858
 11
-0.94
 21
-0.1200000000000001
 31
0.0
 12
-1.0
 22
-0.0600000000000001
 32
0.0
 13
-1.0
 23
-0.042426406871193
 33
-0.0424264068711929
  0
3DFACE
  5
53E
  8
WHEELS
 10
-0.94
 20
-0.0099999999999998
 30
0.1400000000000001
 11
-0.94
 21
0.0
 31
0.1500000000000001
 12
-0.95
 22
0.0
 32
0.1400000000000001
 13
-0.95
 23
0.0
 33
0.1400000000000001
  0
3DFACE
  5
53F
  8
WHEELS
 10
-0.94
 20
0.0
 30
0.1500000000000001
 11
-0.94
 21
0.0099999999999998
 31
0.1400000000000001
 12
-0.95
 22
0.0
 32
0.1400000000000001
 13
-0.95
 23
0.0
 33
0.1400000000000001
  0
3DFACE
  5
540
  8
WHEELS
 10
-0.94
 20
0.0099999999999998
 30
0.1400000000000001
 11
-0.94
 21
0.0
 31
0.1300000000000001
 12
-0.95
 22
0.0
 32
0.1400000000000001
 13
-0.95
 23
0.0
 33
0.1400000000000001
  0
3DFACE
  5
541
  8
WHEELS
 10
-0.94
 20
0.0
 30
0.1300000000000001
 11
-0.94
 21
-0.0099999999999998
 31
0.1400000000000001
 12
-0.95
 22
0.0
 32
0.1400000000000001
 13
-0.95
 23
0.0
 33
0.1400000000000001
  0
3DFACE
  5
542
  8
WHEELS
 10
-0.9700000000000001
 20
-0.1949999999999998
 30
0.3377499074759311
 11
-0.9700000000000001
 21
0.0
 31
0.3900000000000001
 12
-0.9700000000000001
 22
0.0
 32
0.28
 13
-0.9700000000000001
 23
-0.1979898987322333
 33
0.1979898987322333
  0
3DFACE
  5
543
  8
WHEELS
 10
-0.94
 20
0.0919238815542514
 30
0.0919238815542513
 11
-0.94
 21
0.0919238815542514
 31
0.1060660171779819
 12
-0.95
 22
0.0989949493661167
 32
0.0989949493661166
 13
-0.95
 23
0.0989949493661167
 33
0.0989949493661166
  0
3DFACE
  5
544
  8
WHEELS
 10
-0.94
 20
0.1060660171779819
 30
0.0919238815542513
 11
-0.94
 21
0.0919238815542514
 31
0.0919238815542513
 12
-0.95
 22
0.0989949493661167
 32
0.0989949493661166
 13
-0.95
 23
0.0989949493661167
 33
0.0989949493661166
  0
3DFACE
  5
545
  8
WHEELS
 10
-0.94
 20
0.1060660171779824
 30
0.1060660171779823
 11
-0.94
 21
0.1060660171779819
 31
0.0919238815542513
 12
-0.95
 22
0.0989949493661167
 32
0.0989949493661166
 13
-0.95
 23
0.0989949493661167
 33
0.0989949493661166
  0
3DFACE
  5
546
  8
WHEELS
 10
-0.94
 20
0.0919238815542514
 30
0.1060660171779819
 11
-0.94
 21
0.1060660171779824
 31
0.1060660171779823
 12
-0.95
 22
0.0989949493661167
 32
0.0989949493661166
 13
-0.95
 23
0.0989949493661167
 33
0.0989949493661166
  0
3DFACE
  5
547
  8
WHEELS
 10
-0.94
 20
0.1299999999999999
 30
-0.0000000000000001
 11
-0.94
 21
0.1400000000000001
 31
0.0099999999999997
 12
-0.95
 22
0.1400000000000001
 32
-0.0000000000000001
 13
-0.95
 23
0.1400000000000001
 33
-0.0000000000000001
  0
3DFACE
  5
548
  8
WHEELS
 10
-0.94
 20
0.1400000000000001
 30
-0.0099999999999998
 11
-0.94
 21
0.1299999999999999
 31
-0.0000000000000001
 12
-0.95
 22
0.1400000000000001
 32
-0.0000000000000001
 13
-0.95
 23
0.1400000000000001
 33
-0.0000000000000001
  0
3DFACE
  5
549
  8
WHEELS
 10
-0.94
 20
0.1500000000000003
 30
-0.0000000000000001
 11
-0.94
 21
0.1400000000000001
 31
-0.0099999999999998
 12
-0.95
 22
0.1400000000000001
 32
-0.0000000000000001
 13
-0.95
 23
0.1400000000000001
 33
-0.0000000000000001
  0
3DFACE
  5
54A
  8
WHEELS
 10
-0.94
 20
0.1400000000000001
 30
0.0099999999999997
 11
-0.94
 21
0.1500000000000003
 31
-0.0000000000000001
 12
-0.95
 22
0.1400000000000001
 32
-0.0000000000000001
 13
-0.95
 23
0.1400000000000001
 33
-0.0000000000000001
  0
3DFACE
  5
54B
  8
WHEELS
 10
-0.94
 20
0.0919238815542514
 30
-0.0919238815542514
 11
-0.94
 21
0.1060660171779819
 31
-0.0919238815542514
 12
-0.95
 22
0.0989949493661167
 32
-0.0989949493661167
 13
-0.95
 23
0.0989949493661167
 33
-0.0989949493661167
  0
3DFACE
  5
54C
  8
WHEELS
 10
-0.94
 20
0.0919238815542514
 30
-0.106066017177982
 11
-0.94
 21
0.0919238815542514
 31
-0.0919238815542514
 12
-0.95
 22
0.0989949493661167
 32
-0.0989949493661167
 13
-0.95
 23
0.0989949493661167
 33
-0.0989949493661167
  0
3DFACE
  5
54D
  8
WHEELS
 10
-0.94
 20
0.1060660171779819
 30
-0.1060660171779824
 11
-0.94
 21
0.0919238815542514
 31
-0.106066017177982
 12
-0.95
 22
0.0989949493661167
 32
-0.0989949493661167
 13
-0.95
 23
0.0989949493661167
 33
-0.0989949493661167
  0
3DFACE
  5
54E
  8
WHEELS
 10
-0.94
 20
0.1060660171779819
 30
-0.0919238815542514
 11
-0.94
 21
0.1060660171779819
 31
-0.1060660171779824
 12
-0.95
 22
0.0989949493661167
 32
-0.0989949493661167
 13
-0.95
 23
0.0989949493661167
 33
-0.0989949493661167
  0
3DFACE
  5
54F
  8
WHEELS
 10
-0.94
 20
0.0000000000000004
 30
-0.1300000000000001
 11
-0.94
 21
0.0100000000000002
 31
-0.1400000000000001
 12
-0.95
 22
0.0000000000000004
 32
-0.1400000000000001
 13
-0.95
 23
0.0000000000000004
 33
-0.1400000000000001
  0
3DFACE
  5
550
  8
WHEELS
 10
-0.94
 20
-0.0099999999999993
 30
-0.1400000000000001
 11
-0.94
 21
0.0000000000000004
 31
-0.1300000000000001
 12
-0.95
 22
0.0000000000000004
 32
-0.1400000000000001
 13
-0.95
 23
0.0000000000000004
 33
-0.1400000000000001
  0
3DFACE
  5
551
  8
WHEELS
 10
-0.94
 20
0.0000000000000004
 30
-0.1500000000000001
 11
-0.94
 21
-0.0099999999999993
 31
-0.1400000000000001
 12
-0.95
 22
0.0000000000000004
 32
-0.1400000000000001
 13
-0.95
 23
0.0000000000000004
 33
-0.1400000000000001
  0
3DFACE
  5
552
  8
WHEELS
 10
-0.94
 20
0.0100000000000002
 30
-0.1400000000000001
 11
-0.94
 21
0.0000000000000004
 31
-0.1500000000000001
 12
-0.95
 22
0.0000000000000004
 32
-0.1400000000000001
 13
-0.95
 23
0.0000000000000004
 33
-0.1400000000000001
  0
3DFACE
  5
553
  8
WHEELS
 10
-0.94
 20
-0.0919238815542514
 30
-0.0919238815542514
 11
-0.94
 21
-0.0919238815542514
 31
-0.106066017177982
 12
-0.95
 22
-0.0989949493661167
 32
-0.0989949493661167
 13
-0.95
 23
-0.0989949493661167
 33
-0.0989949493661167
  0
3DFACE
  5
554
  8
WHEELS
 10
-0.94
 20
-0.1060660171779819
 30
-0.0919238815542514
 11
-0.94
 21
-0.0919238815542514
 31
-0.0919238815542514
 12
-0.95
 22
-0.0989949493661167
 32
-0.0989949493661167
 13
-0.95
 23
-0.0989949493661167
 33
-0.0989949493661167
  0
3DFACE
  5
555
  8
WHEELS
 10
-0.94
 20
-0.1060660171779824
 30
-0.1060660171779822
 11
-0.94
 21
-0.1060660171779819
 31
-0.0919238815542514
 12
-0.95
 22
-0.0989949493661167
 32
-0.0989949493661167
 13
-0.95
 23
-0.0989949493661167
 33
-0.0989949493661167
  0
3DFACE
  5
556
  8
WHEELS
 10
-0.94
 20
-0.0919238815542514
 30
-0.106066017177982
 11
-0.94
 21
-0.1060660171779824
 31
-0.1060660171779822
 12
-0.95
 22
-0.0989949493661167
 32
-0.0989949493661167
 13
-0.95
 23
-0.0989949493661167
 33
-0.0989949493661167
  0
3DFACE
  5
557
  8
WHEELS
 10
-0.94
 20
-0.1299999999999999
 30
-0.0000000000000001
 11
-0.94
 21
-0.1400000000000001
 31
-0.0099999999999998
 12
-0.95
 22
-0.1400000000000001
 32
-0.0000000000000001
 13
-0.95
 23
-0.1400000000000001
 33
-0.0000000000000001
  0
3DFACE
  5
558
  8
WHEELS
 10
-0.94
 20
-0.1400000000000001
 30
0.0099999999999997
 11
-0.94
 21
-0.1299999999999999
 31
-0.0000000000000001
 12
-0.95
 22
-0.1400000000000001
 32
-0.0000000000000001
 13
-0.95
 23
-0.1400000000000001
 33
-0.0000000000000001
  0
3DFACE
  5
559
  8
WHEELS
 10
-0.94
 20
-0.1499999999999999
 30
-0.0000000000000001
 11
-0.94
 21
-0.1400000000000001
 31
0.0099999999999997
 12
-0.95
 22
-0.1400000000000001
 32
-0.0000000000000001
 13
-0.95
 23
-0.1400000000000001
 33
-0.0000000000000001
  0
3DFACE
  5
55A
  8
WHEELS
 10
-0.94
 20
-0.1400000000000001
 30
-0.0099999999999998
 11
-0.94
 21
-0.1499999999999999
 31
-0.0000000000000001
 12
-0.95
 22
-0.1400000000000001
 32
-0.0000000000000001
 13
-0.95
 23
-0.1400000000000001
 33
-0.0000000000000001
  0
3DFACE
  5
55B
  8
WHEELS
 10
-0.94
 20
-0.0919238815542514
 30
0.0919238815542511
 11
-0.94
 21
-0.1060660171779819
 31
0.0919238815542511
 12
-0.95
 22
-0.0989949493661167
 32
0.0989949493661164
 13
-0.95
 23
-0.0989949493661167
 33
0.0989949493661164
  0
3DFACE
  5
55C
  8
WHEELS
 10
-0.94
 20
-0.0919238815542514
 30
0.1060660171779816
 11
-0.94
 21
-0.0919238815542514
 31
0.0919238815542511
 12
-0.95
 22
-0.0989949493661167
 32
0.0989949493661164
 13
-0.95
 23
-0.0989949493661167
 33
0.0989949493661164
  0
3DFACE
  5
55D
  8
WHEELS
 10
-0.94
 20
-0.1060660171779819
 30
0.1060660171779821
 11
-0.94
 21
-0.0919238815542514
 31
0.1060660171779816
 12
-0.95
 22
-0.0989949493661167
 32
0.0989949493661164
 13
-0.95
 23
-0.0989949493661167
 33
0.0989949493661164
  0
3DFACE
  5
55E
  8
WHEELS
 10
-0.94
 20
-0.1060660171779819
 30
0.0919238815542511
 11
-0.94
 21
-0.1060660171779819
 31
0.1060660171779821
 12
-0.95
 22
-0.0989949493661167
 32
0.0989949493661164
 13
-0.95
 23
-0.0989949493661167
 33
0.0989949493661164
  0
3DFACE
  5
55F
  8
WHEELS
 10
-0.9700000000000001
 20
-0.3377499074759309
 30
0.195
 11
-0.9700000000000001
 21
-0.1949999999999998
 31
0.3377499074759311
 12
-0.9700000000000001
 22
-0.1979898987322333
 32
0.1979898987322333
 13
-0.9700000000000001
 23
-0.2800000000000002
 33
0.0000000000000001
  0
3DFACE
  5
560
  8
WHEELS
 10
-0.9700000000000001
 20
-0.3900000000000001
 30
-0.0000000000000007
 11
-0.9700000000000001
 21
-0.3377499074759309
 31
0.195
 12
-0.9700000000000001
 22
-0.2800000000000002
 32
0.0000000000000001
 13
-0.9700000000000001
 23
-0.2800000000000002
 33
0.0000000000000001
  0
3DFACE
  5
561
  8
WHEELS
 10
-0.9700000000000001
 20
0.3377499074759314
 30
0.1949999999999998
 11
-0.9700000000000001
 21
0.3900000000000001
 31
0.0000000000000004
 12
-0.9700000000000001
 22
0.2800000000000002
 32
-0.0000000000000001
 13
-0.9700000000000001
 23
0.1979898987322333
 33
0.1979898987322332
  0
3DFACE
  5
562
  8
WHEELS
 10
-0.9700000000000001
 20
0.1949999999999998
 30
0.3377499074759309
 11
-0.9700000000000001
 21
0.3377499074759314
 31
0.1949999999999998
 12
-0.9700000000000001
 22
0.1979898987322333
 32
0.1979898987322332
 13
-0.9700000000000001
 23
0.0
 33
0.2800000000000002
  0
3DFACE
  5
563
  8
WHEELS
 10
-0.9700000000000001
 20
-0.0000000000000009
 30
0.3900000000000001
 11
-0.9700000000000001
 21
0.1949999999999998
 31
0.3377499074759309
 12
-0.9700000000000001
 22
0.0
 32
0.2800000000000002
 13
-0.9700000000000001
 23
0.0
 33
0.2800000000000002
  0
3DFACE
  5
564
  8
WHEELS
 10
-0.9700000000000001
 20
0.1950000000000003
 30
-0.337749907475931
 11
-0.9700000000000001
 21
0.0000000000000004
 31
-0.3900000000000001
 12
-0.9700000000000001
 22
0.0000000000000004
 32
-0.28
 13
-0.9700000000000001
 23
0.1979898987322337
 33
-0.1979898987322332
  0
3DFACE
  5
565
  8
WHEELS
 10
-0.9700000000000001
 20
0.3377499074759314
 30
-0.1949999999999998
 11
-0.9700000000000001
 21
0.1950000000000003
 31
-0.337749907475931
 12
-0.9700000000000001
 22
0.1979898987322337
 32
-0.1979898987322332
 13
-0.9700000000000001
 23
0.2800000000000007
 33
0.0000000000000001
  0
3DFACE
  5
566
  8
WHEELS
 10
-0.9700000000000001
 20
0.3900000000000001
 30
0.0000000000000009
 11
-0.9700000000000001
 21
0.3377499074759314
 31
-0.1949999999999998
 12
-0.9700000000000001
 22
0.2800000000000007
 32
0.0000000000000001
 13
-0.9700000000000001
 23
0.2800000000000007
 33
0.0000000000000001
  0
3DFACE
  5
567
  8
WHEELS
 10
-0.9700000000000001
 20
-0.3377499074759309
 30
-0.1950000000000003
 11
-0.9700000000000001
 21
-0.3900000000000001
 31
-0.0000000000000005
 12
-0.9700000000000001
 22
-0.2799999999999998
 32
-0.0000000000000005
 13
-0.9700000000000001
 23
-0.1979898987322333
 33
-0.1979898987322333
  0
3DFACE
  5
568
  8
WHEELS
 10
-0.9700000000000001
 20
-0.1949999999999994
 30
-0.337749907475931
 11
-0.9700000000000001
 21
-0.3377499074759309
 31
-0.1950000000000003
 12
-0.9700000000000001
 22
-0.1979898987322333
 32
-0.1979898987322333
 13
-0.9700000000000001
 23
0.0000000000000004
 33
-0.2800000000000003
  0
3DFACE
  5
569
  8
WHEELS
 10
-0.9700000000000001
 20
0.0000000000000013
 30
-0.39
 11
-0.9700000000000001
 21
-0.1949999999999994
 31
-0.337749907475931
 12
-0.9700000000000001
 22
0.0000000000000004
 32
-0.2800000000000003
 13
-0.9700000000000001
 23
0.0000000000000004
 33
-0.2800000000000003
  0
3DFACE
  5
56A
  8
WHEELS
 10
-0.94
 20
-0.0919238815542514
 30
0.1060660171779816
 11
-0.94
 21
-0.1060660171779819
 31
0.1060660171779821
 12
-0.94
 22
0.0
 32
0.1500000000000001
 13
-0.94
 23
-0.0099999999999998
 33
0.1400000000000001
  0
3DFACE
  5
56B
  8
WHEELS
 10
-0.94
 20
-0.0919238815542514
 30
0.0919238815542511
 11
-0.94
 21
-0.0919238815542518
 31
0.1060660171779816
 12
-0.94
 22
-0.0099999999999998
 32
0.1400000000000001
 13
-0.94
 23
0.0
 33
0.1300000000000001
  0
3DFACE
  5
56C
  8
WHEELS
 10
-0.94
 20
-0.0848528137423856
 30
0.0848528137423857
 11
-0.94
 21
-0.0919238815542514
 31
0.0919238815542511
 12
-0.94
 22
0.0
 32
0.1300000000000001
 13
-0.94
 23
0.0
 33
0.1200000000000001
  0
3DFACE
  5
56D
  8
WHEELS
 10
-0.94
 20
-0.1060660171779819
 30
0.1060660171779821
 11
-0.94
 21
-0.162634559672906
 31
0.1626345596729059
 12
-0.94
 22
0.0
 32
0.23
 13
-0.94
 23
0.0
 33
0.1500000000000001
  0
3DFACE
  5
56E
  8
WHEELS
 10
-0.94
 20
0.0
 30
0.1499999999999996
 11
-0.94
 21
0.0
 31
0.2299999999999999
 12
-0.94
 22
0.162634559672906
 32
0.1626345596729059
 13
-0.94
 23
0.1060660171779824
 33
0.1060660171779823
  0
3DFACE
  5
56F
  8
WHEELS
 10
-0.94
 20
0.0
 30
0.1299999999999998
 11
-0.94
 21
0.0099999999999989
 31
0.1400000000000001
 12
-0.94
 22
0.0919238815542514
 32
0.1060660171779819
 13
-0.94
 23
0.0919238815542514
 33
0.0919238815542513
  0
3DFACE
  5
570
  8
WHEELS
 10
-0.94
 20
0.0099999999999998
 30
0.1399999999999996
 11
-0.94
 21
0.0
 31
0.1499999999999996
 12
-0.94
 22
0.1060660171779824
 32
0.1060660171779823
 13
-0.94
 23
0.0919238815542514
 33
0.1060660171779819
  0
3DFACE
  5
571
  8
WHEELS
 10
-0.94
 20
0.0
 30
0.1199999999999998
 11
-0.94
 21
0.0
 31
0.1299999999999998
 12
-0.94
 22
0.0919238815542514
 32
0.0919238815542513
 13
-0.94
 23
0.0848528137423856
 33
0.0848528137423858
  0
3DFACE
  5
572
  8
WHEELS
 10
-0.94
 20
0.1060660171779819
 30
0.1060660171779819
 11
-0.94
 21
0.162634559672906
 31
0.1626345596729059
 12
-0.94
 22
0.23
 32
-0.0000000000000001
 13
-0.94
 23
0.1500000000000003
 33
-0.0000000000000001
  0
3DFACE
  5
573
  8
WHEELS
 10
-0.94
 20
0.0919238815542514
 30
0.0919238815542513
 11
-0.94
 21
0.1060660171779819
 31
0.0919238815542518
 12
-0.94
 22
0.1400000000000001
 32
0.0099999999999997
 13
-0.94
 23
0.1299999999999999
 33
-0.0000000000000001
  0
3DFACE
  5
574
  8
WHEELS
 10
-0.94
 20
0.1060660171779819
 30
0.0919238815542513
 11
-0.94
 21
0.1060660171779819
 31
0.1060660171779819
 12
-0.94
 22
0.1500000000000003
 32
-0.0000000000000001
 13
-0.94
 23
0.1400000000000001
 33
0.0099999999999997
  0
3DFACE
  5
575
  8
WHEELS
 10
-0.94
 20
0.0848528137423856
 30
0.0848528137423856
 11
-0.94
 21
0.0919238815542514
 31
0.0919238815542513
 12
-0.94
 22
0.1299999999999999
 32
-0.0000000000000001
 13
-0.94
 23
0.1200000000000001
 33
-0.0000000000000001
  0
3DFACE
  5
576
  8
WHEELS
 10
-0.94
 20
0.1499999999999999
 30
-0.0000000000000001
 11
-0.94
 21
0.23
 31
-0.0000000000000001
 12
-0.94
 22
0.162634559672906
 32
-0.162634559672906
 13
-0.94
 23
0.1060660171779819
 33
-0.1060660171779824
  0
3DFACE
  5
577
  8
WHEELS
 10
-0.94
 20
0.1299999999999999
 30
0.0000000000000002
 11
-0.94
 21
0.1400000000000001
 31
-0.0099999999999994
 12
-0.94
 22
0.1060660171779819
 32
-0.0919238815542514
 13
-0.94
 23
0.0919238815542514
 33
-0.0919238815542514
  0
3DFACE
  5
578
  8
WHEELS
 10
-0.94
 20
0.1399999999999997
 30
-0.0099999999999996
 11
-0.94
 21
0.1499999999999999
 31
-0.0000000000000001
 12
-0.94
 22
0.1060660171779819
 32
-0.1060660171779824
 13
-0.94
 23
0.1060660171779819
 33
-0.0919238815542514
  0
3DFACE
  5
579
  8
WHEELS
 10
-0.94
 20
0.1200000000000001
 30
-0.0000000000000001
 11
-0.94
 21
0.1299999999999999
 31
0.0000000000000002
 12
-0.94
 22
0.0919238815542514
 32
-0.0919238815542514
 13
-0.94
 23
0.0848528137423861
 33
-0.0848528137423857
  0
3DFACE
  5
57A
  8
WHEELS
 10
-0.94
 20
0.1060660171779824
 30
-0.1060660171779821
 11
-0.94
 21
0.1626345596729064
 31
-0.1626345596729058
 12
-0.94
 22
0.0000000000000004
 32
-0.23
 13
-0.94
 23
0.0000000000000004
 33
-0.1500000000000001
  0
3DFACE
  5
57B
  8
WHEELS
 10
-0.94
 20
0.0919238815542518
 30
-0.0919238815542511
 11
-0.94
 21
0.0919238815542523
 31
-0.1060660171779816
 12
-0.94
 22
0.0100000000000002
 32
-0.1400000000000001
 13
-0.94
 23
0.0000000000000004
 33
-0.1300000000000001
  0
3DFACE
  5
57C
  8
WHEELS
 10
-0.94
 20
0.0919238815542518
 30
-0.1060660171779816
 11
-0.94
 21
0.1060660171779824
 31
-0.1060660171779821
 12
-0.94
 22
0.0000000000000004
 32
-0.1500000000000001
 13
-0.94
 23
0.0100000000000002
 33
-0.1400000000000001
  0
3DFACE
  5
57D
  8
WHEELS
 10
-0.94
 20
0.0848528137423861
 30
-0.0848528137423857
 11
-0.94
 21
0.0919238815542518
 31
-0.0919238815542511
 12
-0.94
 22
0.0000000000000004
 32
-0.1300000000000001
 13
-0.94
 23
0.0000000000000004
 33
-0.1200000000000001
  0
3DFACE
  5
57E
  8
WHEELS
 10
-0.94
 20
0.0
 30
-0.15
 11
-0.94
 21
0.0
 31
-0.23
 12
-0.94
 22
-0.162634559672906
 32
-0.162634559672906
 13
-0.94
 23
-0.1060660171779824
 33
-0.1060660171779822
  0
3DFACE
  5
57F
  8
WHEELS
 10
-0.94
 20
0.0
 30
-0.1300000000000002
 11
-0.94
 21
-0.0099999999999993
 31
-0.1400000000000002
 12
-0.94
 22
-0.0919238815542514
 32
-0.106066017177982
 13
-0.94
 23
-0.0919238815542514
 33
-0.0919238815542514
  0
3DFACE
  5
580
  8
WHEELS
 10
-0.94
 20
-0.0099999999999998
 30
-0.1399999999999999
 11
-0.94
 21
0.0
 31
-0.15
 12
-0.94
 22
-0.1060660171779824
 32
-0.1060660171779822
 13
-0.94
 23
-0.0919238815542514
 33
-0.106066017177982
  0
3DFACE
  5
581
  8
WHEELS
 10
-0.94
 20
0.0
 30
-0.1200000000000001
 11
-0.94
 21
0.0
 31
-0.1300000000000002
 12
-0.94
 22
-0.0919238815542514
 32
-0.0919238815542514
 13
-0.94
 23
-0.0848528137423856
 33
-0.0848528137423859
  0
3DFACE
  5
582
  8
WHEELS
 10
-0.94
 20
-0.1060660171779819
 30
-0.106066017177982
 11
-0.94
 21
-0.1626345596729055
 31
-0.162634559672906
 12
-0.94
 22
-0.23
 32
-0.0000000000000005
 13
-0.94
 23
-0.1499999999999999
 33
-0.0000000000000001
  0
3DFACE
  5
583
  8
WHEELS
 10
-0.94
 20
-0.0919238815542509
 30
-0.0919238815542514
 11
-0.94
 21
-0.1060660171779815
 31
-0.0919238815542519
 12
-0.94
 22
-0.1400000000000001
 32
-0.0099999999999998
 13
-0.94
 23
-0.1299999999999999
 33
-0.0000000000000001
  0
3DFACE
  5
584
  8
WHEELS
 10
-0.94
 20
-0.1060660171779815
 30
-0.0919238815542514
 11
-0.94
 21
-0.1060660171779819
 31
-0.106066017177982
 12
-0.94
 22
-0.1499999999999999
 32
-0.0000000000000001
 13
-0.94
 23
-0.1400000000000001
 33
-0.0099999999999998
  0
3DFACE
  5
585
  8
WHEELS
 10
-0.94
 20
-0.0848528137423856
 30
-0.0848528137423857
 11
-0.94
 21
-0.0919238815542509
 31
-0.0919238815542514
 12
-0.94
 22
-0.1299999999999999
 32
-0.0000000000000001
 13
-0.94
 23
-0.1200000000000001
 33
-0.0000000000000001
  0
3DFACE
  5
586
  8
WHEELS
 10
-0.94
 20
-0.1499999999999995
 30
-0.0000000000000003
 11
-0.94
 21
-0.2299999999999995
 31
-0.0000000000000005
 12
-0.94
 22
-0.162634559672906
 32
0.1626345596729057
 13
-0.94
 23
-0.1060660171779819
 33
0.1060660171779821
  0
3DFACE
  5
587
  8
WHEELS
 10
-0.94
 20
-0.1299999999999999
 30
-0.0000000000000003
 11
-0.94
 21
-0.1400000000000001
 31
0.0099999999999988
 12
-0.94
 22
-0.1060660171779819
 32
0.0919238815542511
 13
-0.94
 23
-0.0919238815542514
 33
0.0919238815542511
  0
3DFACE
  5
588
  8
WHEELS
 10
-0.94
 20
-0.1399999999999997
 30
0.0099999999999993
 11
-0.94
 21
-0.1499999999999995
 31
-0.0000000000000003
 12
-0.94
 22
-0.1060660171779819
 32
0.1060660171779821
 13
-0.94
 23
-0.1060660171779819
 33
0.0919238815542511
  0
3DFACE
  5
589
  8
WHEELS
 10
-0.94
 20
-0.1200000000000001
 30
-0.0000000000000003
 11
-0.94
 21
-0.1299999999999999
 31
-0.0000000000000003
 12
-0.94
 22
-0.0919238815542514
 32
0.0919238815542511
 13
-0.94
 23
-0.0848528137423861
 33
0.0848528137423858
  0
3DFACE
  5
58A
  8
WHEELS
 10
-1.0
 20
0.0000000000000004
 30
0.0600000000000001
 11
-1.0
 21
0.042426406871193
 31
0.0424264068711929
 12
-1.0
 22
0.0600000000000001
 32
0.0
 13
-1.0
 23
-0.042426406871193
 33
0.0424264068711929
  0
3DFACE
  5
58B
  8
WHEELS
 10
-1.0
 20
-0.042426406871193
 30
0.0424264068711929
 11
-1.0
 21
0.0600000000000001
 31
0.0
 12
-1.0
 22
0.042426406871193
 32
-0.0424264068711929
 13
-1.0
 23
-0.0600000000000001
 33
0.0
  0
3DFACE
  5
58C
  8
WHEELS
 10
-1.0
 20
-0.0600000000000001
 30
0.0
 11
-1.0
 21
0.042426406871193
 31
-0.0424264068711929
 12
-1.0
 22
0.0
 32
-0.06
 13
-1.0
 23
-0.042426406871193
 33
-0.0424264068711929
  0
3DFACE
  5
58D
  8
WHEELS
 10
-0.7800000000000001
 20
-0.1950000000000003
 30
-0.337749907475931
 11
-0.7800000000000001
 21
0.0
 31
-0.39
 12
-0.7800000000000001
 22
0.1949999999999998
 32
-0.3377499074759311
 13
-0.7800000000000001
 23
-0.3377499074759314
 33
-0.1949999999999997
  0
3DFACE
  5
58E
  8
WHEELS
 10
-0.7800000000000001
 20
-0.3377499074759314
 30
-0.1949999999999997
 11
-0.7800000000000001
 21
0.1949999999999998
 31
-0.3377499074759311
 12
-0.7800000000000001
 22
0.3377499074759314
 32
-0.1949999999999999
 13
-0.7800000000000001
 23
-0.3900000000000001
 33
0.0000000000000002
  0
3DFACE
  5
58F
  8
WHEELS
 10
-0.7800000000000001
 20
-0.3900000000000001
 30
0.0000000000000002
 11
-0.7800000000000001
 21
0.3377499074759314
 31
-0.1949999999999999
 12
-0.7800000000000001
 22
0.3900000000000001
 32
0.0
 13
-0.7800000000000001
 23
-0.3377499074759309
 33
0.1950000000000001
  0
3DFACE
  5
590
  8
WHEELS
 10
-0.7800000000000001
 20
-0.3377499074759309
 30
0.1950000000000002
 11
-0.7800000000000001
 21
0.3900000000000006
 31
0.0000000000000001
 12
-0.7800000000000001
 22
0.3377499074759309
 32
0.195
 13
-0.7800000000000001
 23
-0.1949999999999998
 33
0.3377499074759311
  0
3DFACE
  5
591
  8
WHEELS
 10
-0.7800000000000001
 20
-0.1949999999999998
 30
0.3377499074759312
 11
-0.7800000000000001
 21
0.3377499074759305
 31
0.1950000000000002
 12
-0.7800000000000001
 22
0.1949999999999998
 32
0.3377499074759311
 13
-0.7800000000000001
 23
0.0
 33
0.3900000000000001
  0
3DFACE
  5
594
  8
WHEELS
 10
0.8100000000000001
 20
-0.381051177665153
 30
-0.2199999999999998
 11
0.8100000000000001
 21
-0.44
 31
0.0
 12
0.7800000000000001
 22
-0.3900000000000001
 32
0.0
 13
0.7800000000000001
 23
-0.3377499074759314
 33
-0.1949999999999999
  0
3DFACE
  5
595
  8
WHEELS
 10
0.8100000000000001
 20
0.44
 30
0.0000000000000002
 11
0.8100000000000001
 21
0.381051177665153
 31
-0.2199999999999997
 12
0.7800000000000003
 22
0.3377499074759314
 32
-0.1949999999999997
 13
0.7800000000000003
 23
0.3900000000000001
 33
0.0000000000000002
  0
3DFACE
  5
596
  8
WHEELS
 10
0.7800000000000003
 20
0.3377499074759314
 30
-0.1949999999999997
 11
0.7800000000000001
 21
-0.1949999999999998
 31
-0.3377499074759311
 12
0.7800000000000001
 22
-0.3377499074759314
 32
-0.1949999999999999
 13
0.7800000000000003
 23
0.3900000000000001
 33
0.0000000000000002
  0
3DFACE
  5
597
  8
WHEELS
 10
0.7800000000000003
 20
0.3900000000000001
 30
0.0000000000000002
 11
0.7800000000000001
 21
-0.3377499074759314
 31
-0.1949999999999999
 12
0.7800000000000001
 22
-0.3900000000000001
 32
0.0
 13
0.7800000000000003
 23
0.3377499074759309
 33
0.1950000000000001
  0
3DFACE
  5
598
  8
WHEELS
 10
0.94
 20
0.1060660171779819
 30
-0.106066017177982
 11
0.9400000000000002
 21
0.1626345596729055
 31
-0.162634559672906
 12
0.9400000000000002
 22
0.23
 32
-0.0000000000000005
 13
0.9400000000000002
 23
0.1499999999999999
 33
-0.0000000000000001
  0
3DFACE
  5
599
  8
WHEELS
 10
0.94
 20
0.0099999999999998
 30
-0.1399999999999999
 11
0.94
 21
0.0
 31
-0.15
 12
0.94
 22
0.1060660171779824
 32
-0.1060660171779822
 13
0.94
 23
0.0919238815542514
 33
-0.106066017177982
  0
3DFACE
  5
59A
  8
WHEELS
 10
0.94
 20
0.0
 30
-0.15
 11
0.94
 21
0.0
 31
-0.23
 12
0.9400000000000002
 22
0.162634559672906
 32
-0.162634559672906
 13
0.94
 23
0.1060660171779824
 33
-0.1060660171779822
  0
3DFACE
  5
59B
  8
WHEELS
 10
0.94
 20
-0.0919238815542518
 30
-0.1060660171779816
 11
0.94
 21
-0.1060660171779824
 31
-0.1060660171779821
 12
0.94
 22
-0.0000000000000004
 32
-0.1500000000000001
 13
0.94
 23
-0.0100000000000002
 33
-0.1400000000000001
  0
3DFACE
  5
59C
  8
WHEELS
 10
0.94
 20
-0.1060660171779824
 30
-0.1060660171779821
 11
0.94
 21
-0.1626345596729064
 31
-0.1626345596729058
 12
0.94
 22
-0.0000000000000004
 32
-0.23
 13
0.94
 23
-0.0000000000000004
 33
-0.1500000000000001
  0
3DFACE
  5
59D
  8
WHEELS
 10
0.94
 20
-0.1499999999999999
 30
-0.0000000000000001
 11
0.94
 21
-0.23
 31
-0.0000000000000001
 12
0.94
 22
-0.162634559672906
 32
-0.162634559672906
 13
0.94
 23
-0.1060660171779819
 33
-0.1060660171779824
  0
3DFACE
  5
59E
  8
WHEELS
 10
0.9700000000000002
 20
0.3377499074759309
 30
-0.1950000000000003
 11
0.9700000000000002
 21
0.3900000000000001
 31
-0.0000000000000005
 12
0.9700000000000002
 22
0.2799999999999998
 32
-0.0000000000000005
 13
0.9700000000000002
 23
0.1979898987322333
 33
-0.1979898987322333
  0
3DFACE
  5
59F
  8
WHEELS
 10
0.9700000000000001
 20
-0.3900000000000001
 30
0.0000000000000009
 11
0.9700000000000001
 21
-0.3377499074759314
 31
-0.1949999999999998
 12
0.9700000000000001
 22
-0.2800000000000007
 32
0.0000000000000001
 13
0.9700000000000001
 23
-0.2800000000000007
 33
0.0000000000000001
  0
3DFACE
  5
5A0
  8
WHEELS
 10
0.9700000000000001
 20
-0.3377499074759314
 30
-0.1949999999999998
 11
0.9700000000000001
 21
-0.1950000000000003
 31
-0.337749907475931
 12
0.9700000000000001
 22
-0.1979898987322337
 32
-0.1979898987322332
 13
0.9700000000000001
 23
-0.2800000000000007
 33
0.0000000000000001
  0
3DFACE
  5
5A1
  8
WHEELS
 10
0.94
 20
-0.0100000000000002
 30
-0.1400000000000001
 11
0.94
 21
-0.0000000000000004
 31
-0.1500000000000001
 12
0.95
 22
-0.0000000000000004
 32
-0.1400000000000001
 13
0.95
 23
-0.0000000000000004
 33
-0.1400000000000001
  0
3DFACE
  5
5A2
  8
WHEELS
 10
0.94
 20
-0.0000000000000004
 30
-0.1500000000000001
 11
0.94
 21
0.0099999999999993
 31
-0.1400000000000001
 12
0.95
 22
-0.0000000000000004
 32
-0.1400000000000001
 13
0.95
 23
-0.0000000000000004
 33
-0.1400000000000001
  0
3DFACE
  5
5A3
  8
WHEELS
 10
0.8100000000000001
 20
0.381051177665153
 30
-0.2199999999999998
 11
0.8100000000000001
 21
0.44
 31
0.0
 12
0.9400000000000002
 22
0.44
 32
0.0
 13
0.9400000000000002
 23
0.381051177665153
 33
-0.2199999999999998
  0
3DFACE
  5
5A4
  8
WHEELS
 10
0.8100000000000001
 20
-0.44
 30
0.0000000000000002
 11
0.8100000000000001
 21
-0.381051177665153
 31
-0.2199999999999997
 12
0.94
 22
-0.381051177665153
 32
-0.2199999999999997
 13
0.94
 23
-0.44
 33
0.0000000000000002
  0
3DFACE
  5
5A5
  8
WHEELS
 10
0.9400000000000002
 20
0.381051177665153
 30
-0.2199999999999998
 11
0.9400000000000002
 21
0.44
 31
0.0
 12
0.9700000000000002
 22
0.3900000000000001
 32
0.0
 13
0.9700000000000002
 23
0.3377499074759314
 33
-0.1949999999999999
  0
3DFACE
  5
5A6
  8
WHEELS
 10
0.94
 20
-0.44
 30
0.0000000000000002
 11
0.94
 21
-0.381051177665153
 31
-0.2199999999999997
 12
0.9700000000000001
 22
-0.3377499074759314
 32
-0.1949999999999997
 13
0.9700000000000001
 23
-0.3900000000000001
 33
0.0000000000000002
  0
3DFACE
  5
5A7
  8
WHEELS
 10
0.94
 20
-0.162634559672906
 30
-0.162634559672906
 11
0.94
 21
-0.23
 31
0.0
 12
0.9700000000000001
 22
-0.2800000000000002
 32
0.0
 13
0.9700000000000001
 23
-0.1979898987322333
 33
-0.1979898987322334
  0
3DFACE
  5
5A8
  8
WHEELS
 10
0.9400000000000002
 20
0.23
 30
0.0000000000000001
 11
0.9400000000000002
 21
0.162634559672906
 31
-0.1626345596729059
 12
0.9700000000000002
 22
0.1979898987322333
 32
-0.1979898987322333
 13
0.9700000000000002
 23
0.2800000000000002
 33
0.0000000000000001
  0
3DFACE
  5
5A9
  8
WHEELS
 10
0.8100000000000001
 20
0.0
 30
-0.4400000000000001
 11
0.8100000000000001
 21
-0.2200000000000002
 31
-0.381051177665153
 12
0.7800000000000001
 22
-0.1949999999999998
 32
-0.3377499074759311
 13
0.7800000000000001
 23
0.0
 33
-0.39
  0
3DFACE
  5
5AA
  8
WHEELS
 10
0.8100000000000001
 20
0.2200000000000002
 30
-0.3810511776651529
 11
0.8100000000000001
 21
0.0
 31
-0.4400000000000001
 12
0.7800000000000001
 22
0.0
 32
-0.39
 13
0.7800000000000003
 23
0.1950000000000003
 33
-0.337749907475931
  0
3DFACE
  5
5AB
  8
WHEELS
 10
0.8100000000000001
 20
0.0
 30
-0.4400000000000001
 11
0.8100000000000001
 21
0.2200000000000002
 31
-0.381051177665153
 12
0.9400000000000002
 22
0.2200000000000002
 32
-0.381051177665153
 13
0.94
 23
0.0
 33
-0.4400000000000001
  0
3DFACE
  5
5AC
  8
WHEELS
 10
0.8100000000000001
 20
-0.2200000000000002
 30
-0.3810511776651529
 11
0.8100000000000001
 21
0.0
 31
-0.4400000000000001
 12
0.94
 22
0.0
 32
-0.4400000000000001
 13
0.94
 23
-0.2200000000000002
 33
-0.3810511776651529
  0
3DFACE
  5
5AD
  8
WHEELS
 10
0.94
 20
0.0
 30
-0.4400000000000001
 11
0.9400000000000002
 21
0.2200000000000002
 31
-0.381051177665153
 12
0.9700000000000002
 22
0.1949999999999998
 32
-0.3377499074759311
 13
0.9700000000000001
 23
0.0
 33
-0.39
  0
3DFACE
  5
5AE
  8
WHEELS
 10
0.94
 20
-0.2200000000000002
 30
-0.3810511776651529
 11
0.94
 21
0.0
 31
-0.4400000000000001
 12
0.9700000000000001
 22
0.0
 32
-0.39
 13
0.9700000000000001
 23
-0.1950000000000003
 33
-0.337749907475931
  0
3DFACE
  5
5AF
  8
WHEELS
 10
0.8100000000000001
 20
-0.2200000000000002
 30
-0.381051177665153
 11
0.8100000000000001
 21
-0.381051177665153
 31
-0.2199999999999998
 12
0.7800000000000001
 22
-0.3377499074759314
 32
-0.1949999999999999
 13
0.7800000000000001
 23
-0.1949999999999998
 33
-0.3377499074759311
  0
3DFACE
  5
5B0
  8
WHEELS
 10
0.8100000000000001
 20
0.381051177665153
 30
-0.2199999999999997
 11
0.8100000000000001
 21
0.2200000000000002
 31
-0.3810511776651529
 12
0.7800000000000003
 22
0.1950000000000003
 32
-0.337749907475931
 13
0.7800000000000003
 23
0.3377499074759314
 33
-0.1949999999999997
  0
3DFACE
  5
5B1
  8
WHEELS
 10
0.7800000000000003
 20
0.1950000000000003
 30
-0.337749907475931
 11
0.7800000000000001
 21
0.0
 31
-0.39
 12
0.7800000000000001
 22
-0.1949999999999998
 32
-0.3377499074759311
 13
0.7800000000000003
 23
0.3377499074759314
 33
-0.1949999999999997
  0
3DFACE
  5
5B2
  8
WHEELS
 10
0.9700000000000002
 20
0.1949999999999994
 30
-0.337749907475931
 11
0.9700000000000002
 21
0.3377499074759309
 31
-0.1950000000000003
 12
0.9700000000000002
 22
0.1979898987322333
 32
-0.1979898987322333
 13
0.9700000000000001
 23
-0.0000000000000004
 33
-0.2800000000000003
  0
3DFACE
  5
5B3
  8
WHEELS
 10
0.9700000000000001
 20
-0.1950000000000003
 30
-0.337749907475931
 11
0.9700000000000001
 21
-0.0000000000000004
 31
-0.3900000000000001
 12
0.9700000000000001
 22
-0.0000000000000004
 32
-0.28
 13
0.9700000000000001
 23
-0.1979898987322337
 33
-0.1979898987322332
  0
3DFACE
  5
5B4
  8
WHEELS
 10
0.8100000000000001
 20
0.2200000000000002
 30
-0.381051177665153
 11
0.8100000000000001
 21
0.381051177665153
 31
-0.2199999999999998
 12
0.9400000000000002
 22
0.381051177665153
 32
-0.2199999999999998
 13
0.9400000000000002
 23
0.2200000000000002
 33
-0.381051177665153
  0
3DFACE
  5
5B5
  8
WHEELS
 10
0.8100000000000001
 20
-0.381051177665153
 30
-0.2199999999999997
 11
0.8100000000000001
 21
-0.2200000000000002
 31
-0.3810511776651529
 12
0.94
 22
-0.2200000000000002
 32
-0.3810511776651529
 13
0.94
 23
-0.381051177665153
 33
-0.2199999999999997
  0
3DFACE
  5
5B6
  8
WHEELS
 10
0.9400000000000002
 20
0.2200000000000002
 30
-0.381051177665153
 11
0.9400000000000002
 21
0.381051177665153
 31
-0.2199999999999998
 12
0.9700000000000002
 22
0.3377499074759314
 32
-0.1949999999999999
 13
0.9700000000000002
 23
0.1949999999999998
 33
-0.3377499074759311
  0
3DFACE
  5
5B7
  8
WHEELS
 10
0.94
 20
-0.381051177665153
 30
-0.2199999999999997
 11
0.94
 21
-0.2200000000000002
 31
-0.3810511776651529
 12
0.9700000000000001
 22
-0.1950000000000003
 32
-0.337749907475931
 13
0.9700000000000001
 23
-0.3377499074759314
 33
-0.1949999999999997
  0
3DFACE
  5
5B8
  8
WHEELS
 10
0.94
 20
0.0
 30
-0.23
 11
0.94
 21
-0.162634559672906
 31
-0.162634559672906
 12
0.9700000000000001
 22
-0.1979898987322333
 32
-0.1979898987322334
 13
0.9700000000000001
 23
0.0
 33
-0.28
  0
3DFACE
  5
5B9
  8
WHEELS
 10
0.9400000000000002
 20
0.162634559672906
 30
-0.1626345596729059
 11
0.94
 21
0.0
 31
-0.23
 12
0.9700000000000001
 22
0.0
 32
-0.28
 13
0.9700000000000002
 23
0.1979898987322333
 33
-0.1979898987322333
  0
3DFACE
  5
5BA
  8
WHEELS
 10
0.9700000000000001
 20
-0.0000000000000013
 30
-0.39
 11
0.9700000000000002
 21
0.1949999999999994
 31
-0.337749907475931
 12
0.9700000000000001
 22
-0.0000000000000004
 32
-0.2800000000000003
 13
0.9700000000000001
 23
-0.0000000000000004
 33
-0.2800000000000003
  0
3DFACE
  5
5BB
  8
WHEELS
 10
0.8100000000000001
 20
0.2199999999999997
 30
0.381051177665153
 11
0.8100000000000001
 21
0.381051177665153
 31
0.2200000000000001
 12
0.7800000000000003
 22
0.3377499074759309
 32
0.1950000000000001
 13
0.7800000000000003
 23
0.1949999999999998
 33
0.3377499074759311
  0
3DFACE
  5
5BC
  8
WHEELS
 10
0.8100000000000001
 20
0.0
 30
0.4400000000000001
 11
0.8100000000000001
 21
0.2199999999999997
 31
0.381051177665153
 12
0.7800000000000003
 22
0.1949999999999998
 32
0.3377499074759311
 13
0.7800000000000001
 23
0.0
 33
0.3900000000000001
  0
3DFACE
  5
5BD
  8
WHEELS
 10
0.8100000000000001
 20
-0.2200000000000002
 30
0.381051177665153
 11
0.8100000000000001
 21
0.0
 31
0.4400000000000001
 12
0.7800000000000001
 22
0.0
 32
0.3900000000000001
 13
0.7800000000000001
 23
-0.1949999999999998
 33
0.3377499074759311
  0
3DFACE
  5
5BE
  8
WHEELS
 10
0.8100000000000001
 20
-0.381051177665153
 30
0.2199999999999999
 11
0.8100000000000001
 21
-0.2200000000000002
 31
0.381051177665153
 12
0.7800000000000001
 22
-0.1949999999999998
 32
0.3377499074759311
 13
0.7800000000000001
 23
-0.3377499074759309
 33
0.195
  0
3DFACE
  5
5BF
  8
WHEELS
 10
0.7800000000000003
 20
0.1949999999999998
 30
0.3377499074759312
 11
0.7800000000000001
 21
-0.3377499074759305
 31
0.1950000000000002
 12
0.7800000000000001
 22
-0.1949999999999998
 32
0.3377499074759311
 13
0.7800000000000001
 23
0.0
 33
0.3900000000000001
  0
3DFACE
  5
5C0
  8
WHEELS
 10
0.9700000000000001
 20
0.0000000000000009
 30
0.3900000000000001
 11
0.9700000000000001
 21
-0.1949999999999998
 31
0.3377499074759309
 12
0.9700000000000001
 22
0.0
 32
0.2800000000000002
 13
0.9700000000000001
 23
0.0
 33
0.2800000000000002
  0
3DFACE
  5
5C1
  8
WHEELS
 10
0.9700000000000002
 20
0.1949999999999998
 30
0.3377499074759311
 11
0.9700000000000001
 21
0.0
 31
0.3900000000000001
 12
0.9700000000000001
 22
0.0
 32
0.28
 13
0.9700000000000002
 23
0.1979898987322333
 33
0.1979898987322333
  0
3DFACE
  5
5C2
  8
WHEELS
 10
0.8100000000000001
 20
-0.2199999999999997
 30
0.381051177665153
 11
0.8100000000000001
 21
-0.381051177665153
 31
0.2200000000000001
 12
0.94
 22
-0.381051177665153
 32
0.2200000000000001
 13
0.94
 23
-0.2199999999999997
 33
0.381051177665153
  0
3DFACE
  5
5C3
  8
WHEELS
 10
0.8100000000000001
 20
0.381051177665153
 30
0.2199999999999999
 11
0.8100000000000001
 21
0.2200000000000002
 31
0.381051177665153
 12
0.9400000000000002
 22
0.2200000000000002
 32
0.381051177665153
 13
0.9400000000000002
 23
0.381051177665153
 33
0.2199999999999999
  0
3DFACE
  5
5C4
  8
WHEELS
 10
0.94
 20
-0.2199999999999997
 30
0.381051177665153
 11
0.94
 21
-0.381051177665153
 31
0.2200000000000001
 12
0.9700000000000001
 22
-0.3377499074759309
 32
0.1950000000000001
 13
0.9700000000000001
 23
-0.1949999999999998
 33
0.3377499074759311
  0
3DFACE
  5
5C5
  8
WHEELS
 10
0.94
 20
0.0
 30
0.4400000000000001
 11
0.94
 21
-0.2199999999999997
 31
0.381051177665153
 12
0.9700000000000001
 22
-0.1949999999999998
 32
0.3377499074759311
 13
0.9700000000000001
 23
0.0
 33
0.3900000000000001
  0
3DFACE
  5
5C6
  8
WHEELS
 10
0.9400000000000002
 20
0.2200000000000002
 30
0.381051177665153
 11
0.94
 21
0.0
 31
0.4400000000000001
 12
0.9700000000000001
 22
0.0
 32
0.3900000000000001
 13
0.9700000000000002
 23
0.1949999999999998
 33
0.3377499074759311
  0
3DFACE
  5
5C7
  8
WHEELS
 10
0.9400000000000002
 20
0.381051177665153
 30
0.2199999999999999
 11
0.9400000000000002
 21
0.2200000000000002
 31
0.381051177665153
 12
0.9700000000000002
 22
0.1949999999999998
 32
0.3377499074759311
 13
0.9700000000000002
 23
0.3377499074759309
 33
0.195
  0
3DFACE
  5
5C8
  8
WHEELS
 10
0.8100000000000001
 20
0.381051177665153
 30
0.2200000000000001
 11
0.8100000000000001
 21
0.44
 31
0.0000000000000002
 12
0.7800000000000003
 22
0.3900000000000001
 32
0.0000000000000002
 13
0.7800000000000003
 23
0.3377499074759309
 33
0.1950000000000001
  0
3DFACE
  5
5C9
  8
WHEELS
 10
0.8100000000000001
 20
-0.44
 30
0.0
 11
0.8100000000000001
 21
-0.381051177665153
 31
0.2199999999999999
 12
0.7800000000000001
 22
-0.3377499074759309
 32
0.195
 13
0.7800000000000001
 23
-0.3900000000000001
 33
0.0
  0
3DFACE
  5
5CA
  8
WHEELS
 10
0.7800000000000003
 20
0.3377499074759309
 30
0.1950000000000002
 11
0.7800000000000001
 21
-0.3900000000000006
 31
0.0000000000000001
 12
0.7800000000000001
 22
-0.3377499074759309
 32
0.195
 13
0.7800000000000003
 23
0.1949999999999998
 33
0.3377499074759311
  0
3DFACE
  5
5CB
  8
WHEELS
 10
0.9400000000000002
 20
0.1499999999999995
 30
-0.0000000000000003
 11
0.9400000000000002
 21
0.2299999999999995
 31
-0.0000000000000005
 12
0.9400000000000002
 22
0.162634559672906
 32
0.1626345596729057
 13
0.94
 23
0.1060660171779819
 33
0.1060660171779821
  0
3DFACE
  5
5CC
  8
WHEELS
 10
0.94
 20
-0.1060660171779819
 30
0.1060660171779819
 11
0.94
 21
-0.162634559672906
 31
0.1626345596729059
 12
0.94
 22
-0.23
 32
-0.0000000000000001
 13
0.94
 23
-0.1500000000000003
 33
-0.0000000000000001
  0
3DFACE
  5
5CD
  8
WHEELS
 10
0.94
 20
0.0
 30
0.1199999999999998
 11
0.94
 21
0.0
 31
0.1299999999999998
 12
0.94
 22
-0.0919238815542514
 32
0.0919238815542513
 13
0.94
 23
-0.0848528137423856
 33
0.0848528137423858
  0
3DFACE
  5
5CE
  8
WHEELS
 10
0.94
 20
-0.0099999999999998
 30
0.1399999999999996
 11
0.94
 21
0.0
 31
0.1499999999999996
 12
0.94
 22
-0.1060660171779824
 32
0.1060660171779823
 13
0.94
 23
-0.0919238815542514
 33
0.1060660171779819
  0
3DFACE
  5
5CF
  8
WHEELS
 10
0.94
 20
0.0
 30
0.1299999999999998
 11
0.94
 21
-0.0099999999999989
 31
0.1400000000000001
 12
0.94
 22
-0.0919238815542514
 32
0.1060660171779819
 13
0.94
 23
-0.0919238815542514
 33
0.0919238815542513
  0
3DFACE
  5
5D0
  8
WHEELS
 10
0.94
 20
0.0
 30
0.1499999999999996
 11
0.94
 21
0.0
 31
0.2299999999999999
 12
0.94
 22
-0.162634559672906
 32
0.1626345596729059
 13
0.94
 23
-0.1060660171779824
 33
0.1060660171779823
  0
3DFACE
  5
5D1
  8
WHEELS
 10
0.94
 20
0.1060660171779819
 30
0.1060660171779821
 11
0.9400000000000002
 21
0.162634559672906
 31
0.1626345596729059
 12
0.94
 22
0.0
 32
0.23
 13
0.94
 23
0.0
 33
0.1500000000000001
  0
3DFACE
  5
5D2
  8
WHEELS
 10
0.94
 20
0.0848528137423856
 30
0.0848528137423857
 11
0.94
 21
0.0919238815542514
 31
0.0919238815542511
 12
0.94
 22
0.0
 32
0.1300000000000001
 13
0.94
 23
0.0
 33
0.1200000000000001
  0
3DFACE
  5
5D3
  8
WHEELS
 10
0.94
 20
0.0919238815542514
 30
0.0919238815542511
 11
0.94
 21
0.0919238815542518
 31
0.1060660171779816
 12
0.94
 22
0.0099999999999998
 32
0.1400000000000001
 13
0.94
 23
0.0
 33
0.1300000000000001
  0
3DFACE
  5
5D4
  8
WHEELS
 10
0.94
 20
0.0919238815542514
 30
0.1060660171779816
 11
0.94
 21
0.1060660171779819
 31
0.1060660171779821
 12
0.94
 22
0.0
 32
0.1500000000000001
 13
0.94
 23
0.0099999999999998
 33
0.1400000000000001
  0
3DFACE
  5
5D5
  8
WHEELS
 10
0.9700000000000001
 20
-0.3377499074759314
 30
0.1949999999999998
 11
0.9700000000000001
 21
-0.3900000000000001
 31
0.0000000000000004
 12
0.9700000000000001
 22
-0.2800000000000002
 32
-0.0000000000000001
 13
0.9700000000000001
 23
-0.1979898987322333
 33
0.1979898987322332
  0
3DFACE
  5
5D6
  8
WHEELS
 10
0.9700000000000002
 20
0.3900000000000001
 30
-0.0000000000000007
 11
0.9700000000000002
 21
0.3377499074759309
 31
0.195
 12
0.9700000000000002
 22
0.2800000000000002
 32
0.0000000000000001
 13
0.9700000000000002
 23
0.2800000000000002
 33
0.0000000000000001
  0
3DFACE
  5
5D7
  8
WHEELS
 10
0.9700000000000002
 20
0.3377499074759309
 30
0.195
 11
0.9700000000000002
 21
0.1949999999999998
 31
0.3377499074759311
 12
0.9700000000000002
 22
0.1979898987322333
 32
0.1979898987322333
 13
0.9700000000000002
 23
0.2800000000000002
 33
0.0000000000000001
  0
3DFACE
  5
5D8
  8
WHEELS
 10
0.94
 20
0.0
 30
0.1200000000000001
 11
0.94
 21
-0.0848528137423856
 31
0.0848528137423857
 12
1.0
 22
-0.042426406871193
 32
0.0424264068711929
 13
1.0
 23
0.0
 33
0.06
  0
3DFACE
  5
5D9
  8
WHEELS
 10
0.94
 20
0.0848528137423856
 30
0.0848528137423857
 11
0.94
 21
0.0
 31
0.1200000000000001
 12
1.0
 22
0.0
 32
0.06
 13
1.0
 23
0.042426406871193
 33
0.0424264068711929
  0
3DFACE
  5
5DA
  8
WHEELS
 10
0.8100000000000001
 20
-0.381051177665153
 30
0.2200000000000001
 11
0.8100000000000001
 21
-0.44
 31
0.0000000000000002
 12
0.94
 22
-0.44
 32
0.0000000000000002
 13
0.94
 23
-0.381051177665153
 33
0.2200000000000001
  0
3DFACE
  5
5DB
  8
WHEELS
 10
0.8100000000000001
 20
0.44
 30
0.0
 11
0.8100000000000001
 21
0.381051177665153
 31
0.2199999999999999
 12
0.9400000000000002
 22
0.381051177665153
 32
0.2199999999999999
 13
0.9400000000000002
 23
0.44
 33
0.0
  0
3DFACE
  5
5DC
  8
WHEELS
 10
0.94
 20
-0.381051177665153
 30
0.2200000000000001
 11
0.94
 21
-0.44
 31
0.0000000000000002
 12
0.9700000000000001
 22
-0.3900000000000001
 32
0.0000000000000002
 13
0.9700000000000001
 23
-0.3377499074759309
 33
0.1950000000000001
  0
3DFACE
  5
5DD
  8
WHEELS
 10
0.9400000000000002
 20
0.44
 30
0.0
 11
0.9400000000000002
 21
0.381051177665153
 31
0.2199999999999999
 12
0.9700000000000002
 22
0.3377499074759309
 32
0.195
 13
0.9700000000000002
 23
0.3900000000000001
 33
0.0
  0
3DFACE
  5
5DE
  8
WHEELS
 10
0.9400000000000002
 20
0.162634559672906
 30
0.1626345596729059
 11
0.9400000000000002
 21
0.23
 31
0.0000000000000001
 12
0.9700000000000002
 22
0.2800000000000002
 32
0.0000000000000001
 13
0.9700000000000002
 23
0.1979898987322333
 33
0.1979898987322333
  0
3DFACE
  5
5DF
  8
WHEELS
 10
0.94
 20
-0.23
 30
0.0
 11
0.94
 21
-0.162634559672906
 31
0.1626345596729059
 12
0.9700000000000001
 22
-0.1979898987322333
 32
0.1979898987322333
 13
0.9700000000000001
 23
-0.2800000000000002
 33
0.0
  0
3DFACE
  5
5E0
  8
WHEELS
 10
1.0
 20
0.0600000000000001
 30
0.0
 11
1.0
 21
-0.042426406871193
 31
-0.0424264068711929
 12
1.0
 22
0.0
 32
-0.06
 13
1.0
 23
0.042426406871193
 33
-0.0424264068711929
  0
3DFACE
  5
5E1
  8
WHEELS
 10
1.0
 20
0.042426406871193
 30
0.0424264068711929
 11
1.0
 21
-0.0600000000000001
 31
0.0
 12
1.0
 22
-0.042426406871193
 32
-0.0424264068711929
 13
1.0
 23
0.0600000000000001
 33
0.0
  0
3DFACE
  5
5E2
  8
WHEELS
 10
0.94
 20
0.0848528137423856
 30
-0.0848528137423857
 11
0.94
 21
0.0919238815542509
 31
-0.0919238815542514
 12
0.9400000000000002
 22
0.1299999999999999
 32
-0.0000000000000001
 13
0.94
 23
0.1200000000000001
 33
-0.0000000000000001
  0
3DFACE
  5
5E3
  8
WHEELS
 10
0.94
 20
0.1060660171779815
 30
-0.0919238815542514
 11
0.94
 21
0.1060660171779819
 31
-0.106066017177982
 12
0.9400000000000002
 22
0.1499999999999999
 32
-0.0000000000000001
 13
0.9400000000000002
 23
0.1400000000000001
 33
-0.0099999999999998
  0
3DFACE
  5
5E4
  8
WHEELS
 10
0.94
 20
0.0919238815542509
 30
-0.0919238815542514
 11
0.94
 21
0.1060660171779815
 31
-0.0919238815542519
 12
0.9400000000000002
 22
0.1400000000000001
 32
-0.0099999999999998
 13
0.9400000000000002
 23
0.1299999999999999
 33
-0.0000000000000001
  0
3DFACE
  5
5E5
  8
WHEELS
 10
0.94
 20
-0.1200000000000001
 30
-0.0000000000000001
 11
0.94
 21
-0.1299999999999999
 31
0.0000000000000002
 12
0.94
 22
-0.0919238815542514
 32
-0.0919238815542514
 13
0.94
 23
-0.0848528137423861
 33
-0.0848528137423857
  0
3DFACE
  5
5E6
  8
WHEELS
 10
0.94
 20
-0.1399999999999997
 30
-0.0099999999999996
 11
0.94
 21
-0.1499999999999999
 31
-0.0000000000000001
 12
0.94
 22
-0.1060660171779819
 32
-0.1060660171779824
 13
0.94
 23
-0.1060660171779819
 33
-0.0919238815542514
  0
3DFACE
  5
5E7
  8
WHEELS
 10
0.94
 20
-0.1299999999999999
 30
0.0000000000000002
 11
0.94
 21
-0.1400000000000001
 31
-0.0099999999999994
 12
0.94
 22
-0.1060660171779819
 32
-0.0919238815542514
 13
0.94
 23
-0.0919238815542514
 33
-0.0919238815542514
  0
3DFACE
  5
5E8
  8
WHEELS
 10
0.94
 20
0.0848528137423856
 30
-0.0848528137423858
 11
0.94
 21
0.1200000000000001
 31
0.0
 12
1.0
 22
0.0600000000000001
 32
0.0
 13
1.0
 23
0.042426406871193
 33
-0.0424264068711929
  0
3DFACE
  5
5E9
  8
WHEELS
 10
0.94
 20
-0.1200000000000001
 30
0.0
 11
0.94
 21
-0.0848528137423856
 31
-0.0848528137423857
 12
1.0
 22
-0.042426406871193
 32
-0.0424264068711929
 13
1.0
 23
-0.0600000000000001
 33
0.0
  0
3DFACE
  5
5EA
  8
WHEELS
 10
0.94
 20
0.0
 30
-0.1200000000000001
 11
0.94
 21
0.0
 31
-0.1300000000000002
 12
0.94
 22
0.0919238815542514
 32
-0.0919238815542514
 13
0.94
 23
0.0848528137423856
 33
-0.0848528137423859
  0
3DFACE
  5
5EB
  8
WHEELS
 10
0.94
 20
0.0
 30
-0.1300000000000002
 11
0.94
 21
0.0099999999999993
 31
-0.1400000000000002
 12
0.94
 22
0.0919238815542514
 32
-0.106066017177982
 13
0.94
 23
0.0919238815542514
 33
-0.0919238815542514
  0
3DFACE
  5
5EC
  8
WHEELS
 10
0.94
 20
-0.0848528137423861
 30
-0.0848528137423857
 11
0.94
 21
-0.0919238815542518
 31
-0.0919238815542511
 12
0.94
 22
-0.0000000000000004
 32
-0.1300000000000001
 13
0.94
 23
-0.0000000000000004
 33
-0.1200000000000001
  0
3DFACE
  5
5ED
  8
WHEELS
 10
0.94
 20
-0.0919238815542518
 30
-0.0919238815542511
 11
0.94
 21
-0.0919238815542523
 31
-0.1060660171779816
 12
0.94
 22
-0.0100000000000002
 32
-0.1400000000000001
 13
0.94
 23
-0.0000000000000004
 33
-0.1300000000000001
  0
3DFACE
  5
5EE
  8
WHEELS
 10
0.94
 20
0.0919238815542514
 30
-0.106066017177982
 11
0.94
 21
0.1060660171779824
 31
-0.1060660171779822
 12
0.95
 22
0.0989949493661167
 32
-0.0989949493661167
 13
0.95
 23
0.0989949493661167
 33
-0.0989949493661167
  0
3DFACE
  5
5EF
  8
WHEELS
 10
0.94
 20
0.1060660171779824
 30
-0.1060660171779822
 11
0.94
 21
0.1060660171779819
 31
-0.0919238815542514
 12
0.95
 22
0.0989949493661167
 32
-0.0989949493661167
 13
0.95
 23
0.0989949493661167
 33
-0.0989949493661167
  0
3DFACE
  5
5F0
  8
WHEELS
 10
0.94
 20
0.1060660171779819
 30
-0.0919238815542514
 11
0.94
 21
0.0919238815542514
 31
-0.0919238815542514
 12
0.95
 22
0.0989949493661167
 32
-0.0989949493661167
 13
0.95
 23
0.0989949493661167
 33
-0.0989949493661167
  0
3DFACE
  5
5F1
  8
WHEELS
 10
0.94
 20
0.0919238815542514
 30
-0.0919238815542514
 11
0.94
 21
0.0919238815542514
 31
-0.106066017177982
 12
0.95
 22
0.0989949493661167
 32
-0.0989949493661167
 13
0.95
 23
0.0989949493661167
 33
-0.0989949493661167
  0
3DFACE
  5
5F2
  8
WHEELS
 10
0.94
 20
0.0099999999999993
 30
-0.1400000000000001
 11
0.94
 21
-0.0000000000000004
 31
-0.1300000000000001
 12
0.95
 22
-0.0000000000000004
 32
-0.1400000000000001
 13
0.95
 23
-0.0000000000000004
 33
-0.1400000000000001
  0
3DFACE
  5
5F3
  8
WHEELS
 10
0.94
 20
-0.0000000000000004
 30
-0.1300000000000001
 11
0.94
 21
-0.0100000000000002
 31
-0.1400000000000001
 12
0.95
 22
-0.0000000000000004
 32
-0.1400000000000001
 13
0.95
 23
-0.0000000000000004
 33
-0.1400000000000001
  0
3DFACE
  5
5F4
  8
WHEELS
 10
0.94
 20
-0.1060660171779819
 30
-0.0919238815542514
 11
0.94
 21
-0.1060660171779819
 31
-0.1060660171779824
 12
0.95
 22
-0.0989949493661167
 32
-0.0989949493661167
 13
0.95
 23
-0.0989949493661167
 33
-0.0989949493661167
  0
3DFACE
  5
5F5
  8
WHEELS
 10
0.94
 20
-0.1060660171779819
 30
-0.1060660171779824
 11
0.94
 21
-0.0919238815542514
 31
-0.106066017177982
 12
0.95
 22
-0.0989949493661167
 32
-0.0989949493661167
 13
0.95
 23
-0.0989949493661167
 33
-0.0989949493661167
  0
3DFACE
  5
5F6
  8
WHEELS
 10
0.94
 20
-0.0919238815542514
 30
-0.106066017177982
 11
0.94
 21
-0.0919238815542514
 31
-0.0919238815542514
 12
0.95
 22
-0.0989949493661167
 32
-0.0989949493661167
 13
0.95
 23
-0.0989949493661167
 33
-0.0989949493661167
  0
3DFACE
  5
5F7
  8
WHEELS
 10
0.94
 20
-0.0919238815542514
 30
-0.0919238815542514
 11
0.94
 21
-0.1060660171779819
 31
-0.0919238815542514
 12
0.95
 22
-0.0989949493661167
 32
-0.0989949493661167
 13
0.95
 23
-0.0989949493661167
 33
-0.0989949493661167
  0
3DFACE
  5
5F8
  8
WHEELS
 10
0.94
 20
0.0
 30
-0.12
 11
0.94
 21
0.0848528137423856
 31
-0.0848528137423858
 12
1.0
 22
0.042426406871193
 32
-0.0424264068711929
 13
1.0
 23
0.0
 33
-0.06
  0
3DFACE
  5
5F9
  8
WHEELS
 10
0.94
 20
-0.0848528137423856
 30
-0.0848528137423857
 11
0.94
 21
0.0
 31
-0.12
 12
1.0
 22
0.0
 32
-0.06
 13
1.0
 23
-0.042426406871193
 33
-0.0424264068711929
  0
3DFACE
  5
5FA
  8
WHEELS
 10
1.0
 20
-0.0000000000000004
 30
0.0600000000000001
 11
1.0
 21
-0.042426406871193
 31
0.0424264068711929
 12
1.0
 22
-0.0600000000000001
 32
0.0
 13
1.0
 23
0.042426406871193
 33
0.0424264068711929
  0
3DFACE
  5
5FB
  8
WHEELS
 10
0.94
 20
0.1200000000000001
 30
-0.0000000000000003
 11
0.9400000000000002
 21
0.1299999999999999
 31
-0.0000000000000003
 12
0.94
 22
0.0919238815542514
 32
0.0919238815542511
 13
0.94
 23
0.0848528137423861
 33
0.0848528137423858
  0
3DFACE
  5
5FC
  8
WHEELS
 10
0.9400000000000002
 20
0.1399999999999997
 30
0.0099999999999993
 11
0.9400000000000002
 21
0.1499999999999995
 31
-0.0000000000000003
 12
0.94
 22
0.1060660171779819
 32
0.1060660171779821
 13
0.94
 23
0.1060660171779819
 33
0.0919238815542511
  0
3DFACE
  5
5FD
  8
WHEELS
 10
0.9400000000000002
 20
0.1299999999999999
 30
-0.0000000000000003
 11
0.9400000000000002
 21
0.1400000000000001
 31
0.0099999999999988
 12
0.94
 22
0.1060660171779819
 32
0.0919238815542511
 13
0.94
 23
0.0919238815542514
 33
0.0919238815542511
  0
3DFACE
  5
5FE
  8
WHEELS
 10
0.94
 20
-0.0848528137423856
 30
0.0848528137423856
 11
0.94
 21
-0.0919238815542514
 31
0.0919238815542513
 12
0.94
 22
-0.1299999999999999
 32
-0.0000000000000001
 13
0.94
 23
-0.1200000000000001
 33
-0.0000000000000001
  0
3DFACE
  5
5FF
  8
WHEELS
 10
0.94
 20
-0.1060660171779819
 30
0.0919238815542513
 11
0.94
 21
-0.1060660171779819
 31
0.1060660171779819
 12
0.94
 22
-0.1500000000000003
 32
-0.0000000000000001
 13
0.94
 23
-0.1400000000000001
 33
0.0099999999999997
  0
3DFACE
  5
600
  8
WHEELS
 10
0.94
 20
-0.0919238815542514
 30
0.0919238815542513
 11
0.94
 21
-0.1060660171779819
 31
0.0919238815542518
 12
0.94
 22
-0.1400000000000001
 32
0.0099999999999997
 13
0.94
 23
-0.1299999999999999
 33
-0.0000000000000001
  0
3DFACE
  5
601
  8
WHEELS
 10
0.94
 20
0.1060660171779819
 30
0.0919238815542511
 11
0.94
 21
0.1060660171779819
 31
0.1060660171779821
 12
0.95
 22
0.0989949493661167
 32
0.0989949493661164
 13
0.95
 23
0.0989949493661167
 33
0.0989949493661164
  0
3DFACE
  5
602
  8
WHEELS
 10
0.94
 20
0.1060660171779819
 30
0.1060660171779821
 11
0.94
 21
0.0919238815542514
 31
0.1060660171779816
 12
0.95
 22
0.0989949493661167
 32
0.0989949493661164
 13
0.95
 23
0.0989949493661167
 33
0.0989949493661164
  0
3DFACE
  5
603
  8
WHEELS
 10
0.94
 20
0.0919238815542514
 30
0.1060660171779816
 11
0.94
 21
0.0919238815542514
 31
0.0919238815542511
 12
0.95
 22
0.0989949493661167
 32
0.0989949493661164
 13
0.95
 23
0.0989949493661167
 33
0.0989949493661164
  0
3DFACE
  5
604
  8
WHEELS
 10
0.94
 20
0.0919238815542514
 30
0.0919238815542511
 11
0.94
 21
0.1060660171779819
 31
0.0919238815542511
 12
0.95
 22
0.0989949493661167
 32
0.0989949493661164
 13
0.95
 23
0.0989949493661167
 33
0.0989949493661164
  0
3DFACE
  5
605
  8
WHEELS
 10
0.9400000000000002
 20
0.1400000000000001
 30
-0.0099999999999998
 11
0.9400000000000002
 21
0.1499999999999999
 31
-0.0000000000000001
 12
0.9500000000000001
 22
0.1400000000000001
 32
-0.0000000000000001
 13
0.9500000000000001
 23
0.1400000000000001
 33
-0.0000000000000001
  0
3DFACE
  5
606
  8
WHEELS
 10
0.9400000000000002
 20
0.1499999999999999
 30
-0.0000000000000001
 11
0.9400000000000002
 21
0.1400000000000001
 31
0.0099999999999997
 12
0.9500000000000001
 22
0.1400000000000001
 32
-0.0000000000000001
 13
0.9500000000000001
 23
0.1400000000000001
 33
-0.0000000000000001
  0
3DFACE
  5
607
  8
WHEELS
 10
0.9400000000000002
 20
0.1400000000000001
 30
0.0099999999999997
 11
0.9400000000000002
 21
0.1299999999999999
 31
-0.0000000000000001
 12
0.9500000000000001
 22
0.1400000000000001
 32
-0.0000000000000001
 13
0.9500000000000001
 23
0.1400000000000001
 33
-0.0000000000000001
  0
3DFACE
  5
608
  8
WHEELS
 10
0.9400000000000002
 20
0.1299999999999999
 30
-0.0000000000000001
 11
0.9400000000000002
 21
0.1400000000000001
 31
-0.0099999999999998
 12
0.9500000000000001
 22
0.1400000000000001
 32
-0.0000000000000001
 13
0.9500000000000001
 23
0.1400000000000001
 33
-0.0000000000000001
  0
3DFACE
  5
609
  8
WHEELS
 10
0.94
 20
-0.1400000000000001
 30
0.0099999999999997
 11
0.94
 21
-0.1500000000000003
 31
-0.0000000000000001
 12
0.95
 22
-0.1400000000000001
 32
-0.0000000000000001
 13
0.95
 23
-0.1400000000000001
 33
-0.0000000000000001
  0
3DFACE
  5
60A
  8
WHEELS
 10
0.94
 20
-0.1500000000000003
 30
-0.0000000000000001
 11
0.94
 21
-0.1400000000000001
 31
-0.0099999999999998
 12
0.95
 22
-0.1400000000000001
 32
-0.0000000000000001
 13
0.95
 23
-0.1400000000000001
 33
-0.0000000000000001
  0
3DFACE
  5
60B
  8
WHEELS
 10
0.94
 20
-0.1400000000000001
 30
-0.0099999999999998
 11
0.94
 21
-0.1299999999999999
 31
-0.0000000000000001
 12
0.95
 22
-0.1400000000000001
 32
-0.0000000000000001
 13
0.95
 23
-0.1400000000000001
 33
-0.0000000000000001
  0
3DFACE
  5
60C
  8
WHEELS
 10
0.94
 20
-0.1299999999999999
 30
-0.0000000000000001
 11
0.94
 21
-0.1400000000000001
 31
0.0099999999999997
 12
0.95
 22
-0.1400000000000001
 32
-0.0000000000000001
 13
0.95
 23
-0.1400000000000001
 33
-0.0000000000000001
  0
3DFACE
  5
60D
  8
WHEELS
 10
0.94
 20
-0.0919238815542514
 30
0.1060660171779819
 11
0.94
 21
-0.1060660171779824
 31
0.1060660171779823
 12
0.95
 22
-0.0989949493661167
 32
0.0989949493661166
 13
0.95
 23
-0.0989949493661167
 33
0.0989949493661166
  0
3DFACE
  5
60E
  8
WHEELS
 10
0.94
 20
-0.1060660171779824
 30
0.1060660171779823
 11
0.94
 21
-0.1060660171779819
 31
0.0919238815542513
 12
0.95
 22
-0.0989949493661167
 32
0.0989949493661166
 13
0.95
 23
-0.0989949493661167
 33
0.0989949493661166
  0
3DFACE
  5
60F
  8
WHEELS
 10
0.94
 20
-0.1060660171779819
 30
0.0919238815542513
 11
0.94
 21
-0.0919238815542514
 31
0.0919238815542513
 12
0.95
 22
-0.0989949493661167
 32
0.0989949493661166
 13
0.95
 23
-0.0989949493661167
 33
0.0989949493661166
  0
3DFACE
  5
610
  8
WHEELS
 10
0.94
 20
-0.0919238815542514
 30
0.0919238815542513
 11
0.94
 21
-0.0919238815542514
 31
0.1060660171779819
 12
0.95
 22
-0.0989949493661167
 32
0.0989949493661166
 13
0.95
 23
-0.0989949493661167
 33
0.0989949493661166
  0
3DFACE
  5
611
  8
WHEELS
 10
0.94
 20
-0.0848528137423856
 30
0.0848528137423857
 11
0.94
 21
-0.1200000000000001
 31
0.0
 12
1.0
 22
-0.0600000000000001
 32
0.0
 13
1.0
 23
-0.042426406871193
 33
0.0424264068711929
  0
3DFACE
  5
612
  8
WHEELS
 10
0.94
 20
0.1200000000000001
 30
0.0
 11
0.94
 21
0.0848528137423856
 31
0.0848528137423857
 12
1.0
 22
0.042426406871193
 32
0.0424264068711929
 13
1.0
 23
0.0600000000000001
 33
0.0
  0
3DFACE
  5
613
  8
WHEELS
 10
0.9700000000000001
 20
-0.1949999999999998
 30
0.3377499074759309
 11
0.9700000000000001
 21
-0.3377499074759314
 31
0.1949999999999998
 12
0.9700000000000001
 22
-0.1979898987322333
 32
0.1979898987322332
 13
0.9700000000000001
 23
0.0
 33
0.2800000000000002
  0
3DFACE
  5
614
  8
WHEELS
 10
0.94
 20
0.0
 30
0.23
 11
0.9400000000000002
 21
0.162634559672906
 31
0.1626345596729059
 12
0.9700000000000002
 22
0.1979898987322333
 32
0.1979898987322333
 13
0.9700000000000001
 23
0.0
 33
0.28
  0
3DFACE
  5
615
  8
WHEELS
 10
0.94
 20
-0.162634559672906
 30
0.1626345596729059
 11
0.94
 21
0.0
 31
0.23
 12
0.9700000000000001
 22
0.0
 32
0.28
 13
0.9700000000000001
 23
-0.1979898987322333
 33
0.1979898987322333
  0
3DFACE
  5
616
  8
WHEELS
 10
0.94
 20
0.0
 30
0.1300000000000001
 11
0.94
 21
0.0099999999999998
 31
0.1400000000000001
 12
0.95
 22
0.0
 32
0.1400000000000001
 13
0.95
 23
0.0
 33
0.1400000000000001
  0
3DFACE
  5
617
  8
WHEELS
 10
0.94
 20
-0.0099999999999998
 30
0.1400000000000001
 11
0.94
 21
0.0
 31
0.1300000000000001
 12
0.95
 22
0.0
 32
0.1400000000000001
 13
0.95
 23
0.0
 33
0.1400000000000001
  0
3DFACE
  5
618
  8
WHEELS
 10
0.94
 20
0.0
 30
0.1500000000000001
 11
0.94
 21
-0.0099999999999998
 31
0.1400000000000001
 12
0.95
 22
0.0
 32
0.1400000000000001
 13
0.95
 23
0.0
 33
0.1400000000000001
  0
3DFACE
  5
619
  8
WHEELS
 10
0.94
 20
0.0099999999999998
 30
0.1400000000000001
 11
0.94
 21
0.0
 31
0.1500000000000001
 12
0.95
 22
0.0
 32
0.1400000000000001
 13
0.95
 23
0.0
 33
0.1400000000000001
  0
3DFACE
  5
61A
  8
WHEELS
 10
0.8100000000000001
 20
0.0
 30
0.4400000000000001
 11
0.8100000000000001
 21
-0.2199999999999997
 31
0.381051177665153
 12
0.94
 22
-0.2199999999999997
 32
0.381051177665153
 13
0.94
 23
0.0
 33
0.4400000000000001
  0
3DFACE
  5
61B
  8
WHEELS
 10
0.8100000000000001
 20
0.2200000000000002
 30
0.381051177665153
 11
0.8100000000000001
 21
0.0
 31
0.4400000000000001
 12
0.94
 22
0.0
 32
0.4400000000000001
 13
0.9400000000000002
 23
0.2200000000000002
 33
0.381051177665153
  0
VIEWPORT
  5
2E
 67
     1
  8
0
 10
144.7270812988281
 20
101.2295806407928
 30
0.0
 40
391.13550988316581
 41
222.15178063964839
 68
     2
 69
     1
1001
ACAD
1000
MVIEW
1002
{
1070
    16
1010
0.0
1020
0.0
1030
0.0
1010
0.0
1020
0.0
1030
1.0
1040
0.0
1040
222.15178063964839
1040
144.7270812988281
1040
101.2295806407928
1040
50.0
1040
0.0
1040
0.0
1070
     0
1070
   100
1070
     1
1070
     1
1070
     0
1070
     0
1070
     0
1070
     0
1040
0.0
1040
0.0
1040
0.0
1040
10.0
1040
10.0
1040
10.0
1040
10.0
1070
     0
1002
{
1002
}
1002
}
  0
VIEWPORT
  5
30
 67
     1
  8
0
 10
139.22375631332389
 20
100.8062499761581
 30
0.0
 40
222.75801010131829
 41
161.289999961853
 68
     1
 69
     2
1001
ACAD
1000
MVIEW
1002
{
1070
    16
1010
0.0
1020
0.0
1030
0.0
1010
0.0
1020
0.0
1030
1.0
1040
0.0
1040
307.49010134148989
1040
210.0
1040
148.5
1040
50.0
1040
0.0
1040
0.0
1070
     0
1070
   100
1070
     1
1070
     3
1070
     0
1070
     1
1070
     0
1070
     0
1040
0.0
1040
0.0
1040
0.0
1040
10.0
1040
10.0
1040
10.0
1040
10.0
1070
     0
1002
{
1002
}
1002
}
  0
ENDSEC
  0
EOF
