  0
SECTION
  2
HEADER
  9
$ACADVER
  1
AC1012
  9
$DWGCODEPAGE
  3
ANSI_1251
  9
$INSBASE
 10
0.0
 20
0.0
 30
0.0
  9
$EXTMIN
 10
-0.84
 20
-11.66499999999999
 30
-4.139999999999999
  9
$EXTMAX
 10
3.0
 20
10.4
 30
4.395682499999999
  9
$LIMMIN
 10
0.0
 20
0.0
  9
$LIMMAX
 10
420.0
 20
297.0
  9
$ORTHOMODE
 70
     1
  9
$REGENMODE
 70
     1
  9
$FILLMODE
 70
     1
  9
$QTEXTMODE
 70
     0
  9
$MIRRTEXT
 70
     1
  9
$DRAGMODE
 70
     2
  9
$LTSCALE
 40
1.0
  9
$OSMODE
 70
   559
  9
$ATTMODE
 70
     1
  9
$TEXTSIZE
 40
2.5
  9
$TRACEWID
 40
1.0
  9
$TEXTSTYLE
  7
STANDARD
  9
$CLAYER
  8
WHEELS
  9
$CELTYPE
  6
BYLAYER
  9
$CECOLOR
 62
   256
  9
$CELTSCALE
 40
1.0
  9
$DELOBJ
 70
     1
  9
$DISPSILH
 70
     0
  9
$DIMSCALE
 40
1.0
  9
$DIMASZ
 40
2.5
  9
$DIMEXO
 40
0.625
  9
$DIMDLI
 40
3.75
  9
$DIMRND
 40
0.0
  9
$DIMDLE
 40
0.0
  9
$DIMEXE
 40
1.25
  9
$DIMTP
 40
0.0
  9
$DIMTM
 40
0.0
  9
$DIMTXT
 40
2.5
  9
$DIMCEN
 40
2.5
  9
$DIMTSZ
 40
0.0
  9
$DIMTOL
 70
     0
  9
$DIMLIM
 70
     0
  9
$DIMTIH
 70
     0
  9
$DIMTOH
 70
     0
  9
$DIMSE1
 70
     0
  9
$DIMSE2
 70
     0
  9
$DIMTAD
 70
     1
  9
$DIMZIN
 70
     8
  9
$DIMBLK
  1

  9
$DIMASO
 70
     1
  9
$DIMSHO
 70
     1
  9
$DIMPOST
  1

  9
$DIMAPOST
  1

  9
$DIMALT
 70
     0
  9
$DIMALTD
 70
     3
  9
$DIMALTF
 40
0.03937007874016
  9
$DIMLFAC
 40
1.0
  9
$DIMTOFL
 70
     1
  9
$DIMTVP
 40
0.0
  9
$DIMTIX
 70
     0
  9
$DIMSOXD
 70
     0
  9
$DIMSAH
 70
     0
  9
$DIMBLK1
  1

  9
$DIMBLK2
  1

  9
$DIMSTYLE
  2
ISO-25
  9
$DIMCLRD
 70
     0
  9
$DIMCLRE
 70
     0
  9
$DIMCLRT
 70
     0
  9
$DIMTFAC
 40
1.0
  9
$DIMGAP
 40
0.625
  9
$DIMJUST
 70
     0
  9
$DIMSD1
 70
     0
  9
$DIMSD2
 70
     0
  9
$DIMTOLJ
 70
     0
  9
$DIMTZIN
 70
     8
  9
$DIMALTZ
 70
     0
  9
$DIMALTTZ
 70
     0
  9
$DIMFIT
 70
     3
  9
$DIMUPT
 70
     0
  9
$DIMUNIT
 70
     2
  9
$DIMDEC
 70
     2
  9
$DIMTDEC
 70
     2
  9
$DIMALTU
 70
     2
  9
$DIMALTTD
 70
     3
  9
$DIMTXSTY
  7
STANDARD
  9
$DIMAUNIT
 70
     0
  9
$LUNITS
 70
     2
  9
$LUPREC
 70
     4
  9
$SKETCHINC
 40
1.0
  9
$FILLETRAD
 40
10.0
  9
$AUNITS
 70
     0
  9
$AUPREC
 70
     0
  9
$MENU
  1
.
  9
$ELEVATION
 40
0.0
  9
$PELEVATION
 40
0.0
  9
$THICKNESS
 40
0.0
  9
$LIMCHECK
 70
     0
  9
$BLIPMODE
 70
     0
  9
$CHAMFERA
 40
10.0
  9
$CHAMFERB
 40
10.0
  9
$CHAMFERC
 40
20.0
  9
$CHAMFERD
 40
0.0
  9
$SKPOLY
 70
     0
  9
$TDCREATE
 40
2455223.806988772
  9
$TDUPDATE
 40
2455224.950560439
  9
$TDINDWG
 40
0.2124616435
  9
$TDUSRTIMER
 40
0.2124616435
  9
$USRTIMER
 70
     1
  9
$ANGBASE
 50
0.0
  9
$ANGDIR
 70
     0
  9
$PDMODE
 70
     0
  9
$PDSIZE
 40
0.0
  9
$PLINEWID
 40
0.0
  9
$COORDS
 70
     1
  9
$SPLFRAME
 70
     0
  9
$SPLINETYPE
 70
     6
  9
$SPLINESEGS
 70
     8
  9
$ATTDIA
 70
     1
  9
$ATTREQ
 70
     1
  9
$HANDLING
 70
-16383
  9
$HANDSEED
  5
88E
  9
$SURFTAB1
 70
     6
  9
$SURFTAB2
 70
     6
  9
$SURFTYPE
 70
     6
  9
$SURFU
 70
     6
  9
$SURFV
 70
     6
  9
$UCSNAME
  2

  9
$UCSORG
 10
0.0
 20
0.0
 30
0.0
  9
$UCSXDIR
 10
0.0
 20
-1.0
 30
0.0
  9
$UCSYDIR
 10
0.0
 20
0.0
 30
1.0
  9
$PUCSNAME
  2

  9
$PUCSORG
 10
0.0
 20
0.0
 30
0.0
  9
$PUCSXDIR
 10
1.0
 20
0.0
 30
0.0
  9
$PUCSYDIR
 10
0.0
 20
1.0
 30
0.0
  9
$USERI1
 70
     0
  9
$USERI2
 70
     0
  9
$USERI3
 70
     0
  9
$USERI4
 70
     0
  9
$USERI5
 70
     0
  9
$USERR1
 40
0.0
  9
$USERR2
 40
0.0
  9
$USERR3
 40
0.0
  9
$USERR4
 40
0.0
  9
$USERR5
 40
0.0
  9
$WORLDVIEW
 70
     1
  9
$SHADEDGE
 70
     3
  9
$SHADEDIF
 70
    70
  9
$TILEMODE
 70
     1
  9
$MAXACTVP
 70
    64
  9
$PINSBASE
 10
0.0
 20
0.0
 30
0.0
  9
$PLIMCHECK
 70
     0
  9
$PEXTMIN
 10
27.8447512626648
 20
20.16124999523162
 30
0.0
  9
$PEXTMAX
 10
250.6027613639831
 20
181.4512499570846
 30
0.0
  9
$PLIMMIN
 10
-3.757080078125
 20
-3.757083177566528
  9
$PLIMMAX
 10
293.2112426757812
 20
206.2162444591522
  9
$UNITMODE
 70
     0
  9
$VISRETAIN
 70
     1
  9
$PLINEGEN
 70
     0
  9
$PSLTSCALE
 70
     1
  9
$TREEDEPTH
 70
  3020
  9
$PICKSTYLE
 70
     1
  9
$CMLSTYLE
  2
STANDARD
  9
$CMLJUST
 70
     0
  9
$CMLSCALE
 40
20.0
  9
$SAVEIMAGES
 70
     1
  0
ENDSEC
  0
SECTION
  2
CLASSES
  0
CLASS
  1
ACDBDICTIONARYWDFLT
  2
AcDbDictionaryWithDefault
  3
AutoCAD 2000
 90
    32768
280
     0
281
     0
  0
CLASS
  1
ACDBPLACEHOLDER
  2
AcDbPlaceHolder
  3
AutoCAD 2000
 90
    32768
280
     0
281
     0
  0
CLASS
  1
LAYOUT
  2
AcDbLayout
  3
AutoCAD 2000
 90
    32768
280
     0
281
     0
  0
CLASS
  1
RASTERVARIABLES
  2
AcDbRasterVariables
  3
ISM
 90
    32768
280
     0
281
     0
  0
CLASS
  1
IMAGEDEF
  2
AcDbRasterImageDef
  3
ISM
 90
    32768
280
     0
281
     0
  0
CLASS
  1
IMAGEDEF_REACTOR
  2
AcDbRasterImageDefReactor
  3
ISM
 90
    32769
280
     0
281
     0
  0
CLASS
  1
IMAGE
  2
AcDbRasterImage
  3
ISM
 90
    32895
280
     0
281
     1
  0
CLASS
  1
LONG_TRANSACTION
  2
AcDbLongTransaction
  3
AutoCAD 2000
 90
    32768
280
     0
281
     0
  0
CLASS
  1
LWPOLYLINE
  2
AcDbPolyline
  3
AutoCAD 2000
 90
    32768
280
     0
281
     1
  0
CLASS
  1
HATCH
  2
AcDbHatch
  3
AutoCAD 2000
 90
    32768
280
     0
281
     1
  0
CLASS
  1
XRECORD
  2
AcDbXrecord
  3
AutoCAD 2000
 90
    32768
280
     0
281
     0
  0
ENDSEC
  0
SECTION
  2
TABLES
  0
TABLE
  2
VPORT
  5
8
330
0
100
AcDbSymbolTable
 70
    21
  0
VPORT
  5
887
330
8
100
AcDbSymbolTableRecord
100
AcDbViewportTableRecord
  2
*ACTIVE
 70
     0
 10
0.0
 20
0.0
 11
1.0
 21
1.0
 12
2.937590177945811
 22
-1.573027103800205
 13
0.0
 23
0.0
 14
0.01
 24
0.01
 15
1.0
 25
1.0
 16
-1.0
 26
0.0
 36
0.0
 17
0.0
 27
0.0
 37
0.0
 40
7.66778428446955
 41
1.716094032549728
 42
50.0
 43
0.0
 44
0.0
 50
0.0
 51
0.0
 71
     0
 72
   100
 73
     1
 74
     3
 75
     1
 76
     1
 77
     0
 78
     0
  0
ENDTAB
  0
TABLE
  2
LTYPE
  5
5
330
0
100
AcDbSymbolTable
 70
     1
  0
LTYPE
  5
14
330
5
100
AcDbSymbolTableRecord
100
AcDbLinetypeTableRecord
  2
BYBLOCK
 70
     0
  3

 72
    65
 73
     0
 40
0.0
  0
LTYPE
  5
15
330
5
100
AcDbSymbolTableRecord
100
AcDbLinetypeTableRecord
  2
BYLAYER
 70
     0
  3

 72
    65
 73
     0
 40
0.0
  0
LTYPE
  5
16
330
5
100
AcDbSymbolTableRecord
100
AcDbLinetypeTableRecord
  2
CONTINUOUS
 70
     0
  3
Solid line
 72
    65
 73
     0
 40
0.0
  0
ENDTAB
  0
TABLE
  2
LAYER
  5
2
330
0
100
AcDbSymbolTable
 70
     6
  0
LAYER
  5
10
330
2
100
AcDbSymbolTableRecord
100
AcDbLayerTableRecord
  2
0
 70
     0
 62
     7
  6
CONTINUOUS
  0
LAYER
  5
7A
330
2
100
AcDbSymbolTableRecord
100
AcDbLayerTableRecord
  2
DRAWING
 70
     0
 62
     9
  6
CONTINUOUS
  0
LAYER
  5
E6
330
2
100
AcDbSymbolTableRecord
100
AcDbLayerTableRecord
  2
WHEELS
 70
     0
 62
     2
  6
CONTINUOUS
  0
LAYER
  5
2DF
330
2
100
AcDbSymbolTableRecord
100
AcDbLayerTableRecord
  2
MUDGUARDS
 70
     0
 62
     6
  6
CONTINUOUS
  0
LAYER
  5
3AC
330
2
100
AcDbSymbolTableRecord
100
AcDbLayerTableRecord
  2
TURRET
 70
     0
 62
     2
  6
CONTINUOUS
  0
LAYER
  5
43E
330
2
100
AcDbSymbolTableRecord
100
AcDbLayerTableRecord
  2
GUN
 70
     0
 62
     1
  6
CONTINUOUS
  0
ENDTAB
  0
TABLE
  2
STYLE
  5
3
330
0
100
AcDbSymbolTable
 70
     1
  0
STYLE
  5
11
330
3
100
AcDbSymbolTableRecord
100
AcDbTextStyleTableRecord
  2
STANDARD
 70
     0
 40
0.0
 41
1.0
 50
0.0
 71
     0
 42
2.5
  3
txt
  4

  0
ENDTAB
  0
TABLE
  2
VIEW
  5
6
330
0
100
AcDbSymbolTable
 70
     0
  0
ENDTAB
  0
TABLE
  2
UCS
  5
7
330
0
100
AcDbSymbolTable
 70
     0
  0
ENDTAB
  0
TABLE
  2
APPID
  5
9
330
0
100
AcDbSymbolTable
 70
     1
  0
APPID
  5
12
330
9
100
AcDbSymbolTableRecord
100
AcDbRegAppTableRecord
  2
ACAD
 70
     0
  0
ENDTAB
  0
TABLE
  2
DIMSTYLE
  5
A
330
0
100
AcDbSymbolTable
 70
     1
  0
DIMSTYLE
105
27
330
A
100
AcDbSymbolTableRecord
100
AcDbDimStyleTableRecord
  2
ISO-25
 70
     0
  3

  4

  5

  6

  7

 40
1.0
 41
2.5
 42
0.625
 43
3.75
 44
1.25
 45
0.0
 46
0.0
 47
0.0
 48
0.0
140
2.5
141
2.5
142
0.0
143
0.03937007874016
144
1.0
145
0.0
146
1.0
147
0.625
 71
     0
 72
     0
 73
     0
 74
     0
 75
     0
 76
     0
 77
     1
 78
     8
170
     0
171
     3
172
     1
173
     0
174
     0
175
     0
176
     0
177
     0
178
     0
270
     2
271
     2
272
     2
273
     2
274
     3
340
11
275
     0
280
     0
281
     0
282
     0
283
     0
284
     8
285
     0
286
     0
287
     3
288
     0
  0
ENDTAB
  0
TABLE
  2
BLOCK_RECORD
  5
1
330
0
100
AcDbSymbolTable
 70
     1
  0
BLOCK_RECORD
  5
1F
102
{ACAD_XDICTIONARY
360
88A
102
}
330
1
100
AcDbSymbolTableRecord
100
AcDbBlockTableRecord
  2
*MODEL_SPACE
  0
BLOCK_RECORD
  5
1B
102
{ACAD_XDICTIONARY
360
888
102
}
330
1
100
AcDbSymbolTableRecord
100
AcDbBlockTableRecord
  2
*PAPER_SPACE
  0
ENDTAB
  0
ENDSEC
  0
SECTION
  2
BLOCKS
  0
BLOCK
  5
20
330
1F
100
AcDbEntity
  8
0
100
AcDbBlockBegin
  2
*MODEL_SPACE
 70
     0
 10
0.0
 20
0.0
 30
0.0
  3
*MODEL_SPACE
  1

  0
ENDBLK
  5
21
330
1F
100
AcDbEntity
  8
0
100
AcDbBlockEnd
  0
BLOCK
  5
1C
330
1B
100
AcDbEntity
 67
     1
  8
0
100
AcDbBlockBegin
  2
*PAPER_SPACE
 70
     0
 10
0.0
 20
0.0
 30
0.0
  3
*PAPER_SPACE
  1

  0
ENDBLK
  5
1D
330
1B
100
AcDbEntity
 67
     1
  8
0
100
AcDbBlockEnd
  0
ENDSEC
  0
SECTION
  2
ENTITIES
  0
3DFACE
  5
6A0
330
1F
100
AcDbEntity
  8
WHEELS
100
AcDbFace
 10
-0.3550704155516196
 20
-2.038657351864043
 30
0.8566181505628202
 11
-0.2049999999999998
 21
-2.108625018574542
 31
0.7238565023396817
 12
-0.1749999999999996
 22
-2.11093875134145
 32
0.7838118744149451
 13
-0.3031088913245534
 23
-2.051210255369074
 33
0.8971449887517712
  0
3DFACE
  5
6A1
330
1F
100
AcDbEntity
  8
WHEELS
100
AcDbFace
 10
0.2050000000000003
 20
-2.108625018574542
 30
0.7238565023396817
 11
0.3550704155516204
 21
-2.038657351864043
 31
0.8566181505628202
 12
0.3031088913245539
 22
-2.051210255369074
 32
0.8971449887517712
 13
0.1750000000000005
 23
-2.11093875134145
 33
0.7838118744149451
  0
3DFACE
  5
6A2
330
1F
100
AcDbEntity
  8
WHEELS
100
AcDbFace
 10
-0.3550704155516196
 20
-1.932497868476082
 30
0.8006702811949779
 11
-0.2049999999999998
 21
-2.002465535186581
 31
0.6679086329718393
 12
-0.2049999999999998
 22
-2.108625018574542
 32
0.7238565023396817
 13
-0.3550704155516196
 23
-2.038657351864043
 33
0.8566181505628202
  0
3DFACE
  5
6A3
330
1F
100
AcDbEntity
  8
WHEELS
100
AcDbFace
 10
0.2050000000000003
 20
-2.002465535186581
 30
0.6679086329718393
 11
0.3550704155516204
 21
-1.932497868476082
 31
0.8006702811949779
 12
0.3550704155516204
 22
-2.038657351864043
 32
0.8566181505628202
 13
0.2050000000000003
 23
-2.108625018574542
 33
0.7238565023396817
  0
3DFACE
  5
6A4
330
1F
100
AcDbEntity
  8
WHEELS
100
AcDbFace
 10
-0.1749999999999996
 20
-2.11093875134145
 30
0.7838118744149451
 11
0.0000000000000002
 21
-2.132800898197177
 31
0.7423290754776606
 12
-0.1199999999999999
 22
-2.066524164861299
 32
0.8680872830926682
 13
-0.1199999999999999
 23
-2.066524164861299
 33
0.8680872830926682
  0
3DFACE
  5
6A5
330
1F
100
AcDbEntity
  8
WHEELS
100
AcDbFace
 10
0.0000000000000002
 20
-2.132800898197177
 30
0.7423290754776606
 11
0.1750000000000005
 21
-2.11093875134145
 31
0.7838118744149451
 12
0.1200000000000003
 22
-2.066524164861299
 32
0.8680872830926677
 13
-0.1199999999999999
 23
-2.066524164861299
 33
0.8680872830926682
  0
3DFACE
  5
6A6
330
1F
100
AcDbEntity
  8
WHEELS
100
AcDbFace
 10
0.175
 20
-2.110938751341451
 30
0.7838118744149451
 11
0.3031088913245539
 21
-2.051210255369074
 31
0.8971449887517708
 12
0.1200000000000003
 22
-2.066524164861299
 32
0.8680872830926677
 13
0.1200000000000003
 23
-2.066524164861299
 33
0.8680872830926677
  0
3DFACE
  5
6A7
330
1F
100
AcDbEntity
  8
WHEELS
100
AcDbFace
 10
-0.3031088913245534
 20
-2.051210255369074
 30
0.8971449887517712
 11
-0.1749999999999996
 21
-2.110938751341451
 31
0.7838118744149451
 12
-0.1199999999999999
 22
-2.066524164861299
 32
0.8680872830926677
 13
-0.2399999999999995
 23
-1.96961961254097
 33
1.051960902025881
  0
3DFACE
  5
6A8
330
1F
100
AcDbEntity
  8
WHEELS
100
AcDbFace
 10
0.3031088913245539
 20
-1.891971030287132
 30
0.8132231847000072
 11
0.1750000000000005
 21
-1.951699526259509
 31
0.6998900703631817
 12
0.1200000000000003
 22
-1.907284939779358
 32
0.7841654790409047
 13
0.2400000000000004
 23
-1.810380387459028
 33
0.9680390979741179
  0
3DFACE
  5
6A9
330
1F
100
AcDbEntity
  8
WHEELS
100
AcDbFace
 10
-0.1749999999999996
 20
-1.951699526259509
 30
0.6998900703631812
 11
-0.303108891324553
 21
-1.891971030287132
 31
0.8132231847000072
 12
-0.1199999999999994
 22
-1.907284939779358
 32
0.7841654790409044
 13
-0.1199999999999994
 23
-1.907284939779358
 33
0.7841654790409044
  0
3DFACE
  5
6AA
330
1F
100
AcDbEntity
  8
WHEELS
100
AcDbFace
 10
0.1750000000000005
 20
-1.951699526259508
 30
0.6998900703631817
 11
0.0000000000000002
 21
-1.973561673115235
 31
0.6584072714258971
 12
0.1200000000000003
 22
-1.907284939779358
 32
0.7841654790409044
 13
0.1200000000000003
 23
-1.907284939779358
 33
0.7841654790409044
  0
3DFACE
  5
6AB
330
1F
100
AcDbEntity
  8
WHEELS
100
AcDbFace
 10
0.0000000000000002
 20
-1.973561673115235
 30
0.6584072714258971
 11
-0.1749999999999996
 21
-1.951699526259509
 31
0.6998900703631817
 12
-0.1199999999999994
 22
-1.907284939779358
 32
0.7841654790409044
 13
0.1200000000000003
 23
-1.907284939779358
 33
0.7841654790409044
  0
3DFACE
  5
6AC
330
1F
100
AcDbEntity
  8
WHEELS
100
AcDbFace
 10
-0.2049999999999994
 20
-2.002465535186581
 30
0.667908632971839
 11
-0.3550704155516191
 21
-1.932497868476083
 31
0.8006702811949775
 12
-0.303108891324553
 22
-1.891971030287132
 32
0.8132231847000072
 13
-0.1749999999999996
 23
-1.951699526259509
 33
0.6998900703631817
  0
3DFACE
  5
6AD
330
1F
100
AcDbEntity
  8
WHEELS
100
AcDbFace
 10
0.3550704155516204
 20
-1.932497868476083
 30
0.8006702811949779
 11
0.2050000000000003
 21
-2.002465535186581
 31
0.6679086329718393
 12
0.1750000000000005
 22
-1.951699526259509
 32
0.6998900703631817
 13
0.3031088913245539
 23
-1.891971030287132
 33
0.8132231847000072
  0
3DFACE
  5
6AE
330
1F
100
AcDbEntity
  8
WHEELS
100
AcDbFace
 10
-0.2049999999999998
 20
-2.108625018574542
 30
0.7238565023396817
 11
0.0000000000000002
 21
-2.134234962034108
 31
0.6752623664417195
 12
0.0000000000000002
 22
-2.132800898197177
 32
0.7423290754776606
 13
-0.1749999999999996
 23
-2.11093875134145
 33
0.7838118744149451
  0
3DFACE
  5
6AF
330
1F
100
AcDbEntity
  8
WHEELS
100
AcDbFace
 10
0.0000000000000002
 20
-2.134234962034108
 30
0.6752623664417195
 11
0.2050000000000003
 21
-2.108625018574542
 31
0.7238565023396817
 12
0.1750000000000005
 22
-2.11093875134145
 32
0.7838118744149451
 13
0.0000000000000002
 23
-2.132800898197177
 33
0.7423290754776606
  0
3DFACE
  5
6B0
330
1F
100
AcDbEntity
  8
WHEELS
100
AcDbFace
 10
-0.2049999999999998
 20
-2.002465535186581
 30
0.6679086329718393
 11
0.0000000000000002
 21
-2.028075478646147
 31
0.6193144970738772
 12
0.0000000000000002
 22
-2.134234962034108
 32
0.6752623664417195
 13
-0.2049999999999998
 23
-2.108625018574542
 33
0.7238565023396817
  0
3DFACE
  5
6B1
330
1F
100
AcDbEntity
  8
WHEELS
100
AcDbFace
 10
0.0000000000000002
 20
-2.028075478646147
 30
0.6193144970738772
 11
0.2050000000000003
 21
-2.002465535186581
 31
0.6679086329718393
 12
0.2050000000000003
 22
-2.108625018574542
 32
0.7238565023396817
 13
0.0000000000000002
 23
-2.134234962034108
 33
0.6752623664417195
  0
3DFACE
  5
6B2
330
1F
100
AcDbEntity
  8
WHEELS
100
AcDbFace
 10
0.0000000000000002
 20
-2.028075478646147
 30
0.6193144970738772
 11
-0.2049999999999994
 21
-2.002465535186581
 31
0.667908632971839
 12
-0.1749999999999996
 22
-1.951699526259509
 32
0.6998900703631817
 13
0.0000000000000002
 23
-1.973561673115235
 33
0.6584072714258971
  0
3DFACE
  5
6B3
330
1F
100
AcDbEntity
  8
WHEELS
100
AcDbFace
 10
0.2050000000000003
 20
-2.002465535186581
 30
0.6679086329718393
 11
0.0000000000000002
 21
-2.028075478646147
 31
0.6193144970738772
 12
0.0000000000000002
 22
-1.973561673115235
 32
0.6584072714258971
 13
0.1750000000000005
 23
-1.951699526259509
 33
0.6998900703631817
  0
3DFACE
  5
6B4
330
1F
100
AcDbEntity
  8
WHEELS
100
AcDbFace
 10
0.2050000000000003
 20
-1.777534464813416
 30
1.352091367028159
 11
0.0000000000000002
 21
-1.751924521353851
 31
1.400685502926121
 12
0.0000000000000002
 22
-1.806438326884763
 32
1.361592728574101
 13
0.1750000000000005
 23
-1.828300473740489
 33
1.320109929636817
  0
3DFACE
  5
6B5
330
1F
100
AcDbEntity
  8
WHEELS
100
AcDbFace
 10
0.0000000000000002
 20
-1.751924521353851
 30
1.400685502926121
 11
-0.2049999999999994
 21
-1.777534464813416
 31
1.35209136702816
 12
-0.1749999999999996
 22
-1.828300473740489
 32
1.320109929636817
 13
0.0000000000000002
 23
-1.806438326884763
 33
1.361592728574101
  0
3DFACE
  5
6B6
330
1F
100
AcDbEntity
  8
WHEELS
100
AcDbFace
 10
0.2050000000000003
 20
-1.671374981425456
 30
1.296143497660317
 11
0.0000000000000002
 21
-1.64576503796589
 31
1.344737633558279
 12
0.0000000000000002
 22
-1.751924521353851
 32
1.400685502926121
 13
0.2050000000000003
 23
-1.777534464813416
 33
1.352091367028159
  0
3DFACE
  5
6B7
330
1F
100
AcDbEntity
  8
WHEELS
100
AcDbFace
 10
0.0000000000000002
 20
-1.64576503796589
 30
1.344737633558279
 11
-0.2049999999999994
 21
-1.671374981425455
 31
1.296143497660317
 12
-0.2049999999999994
 22
-1.777534464813416
 32
1.35209136702816
 13
0.0000000000000002
 23
-1.751924521353851
 33
1.400685502926121
  0
3DFACE
  5
6B8
330
1F
100
AcDbEntity
  8
WHEELS
100
AcDbFace
 10
0.0000000000000002
 20
-1.64576503796589
 30
1.344737633558279
 11
0.2050000000000003
 21
-1.671374981425456
 31
1.296143497660317
 12
0.1750000000000005
 22
-1.669061248658548
 32
1.236188125585053
 13
0.0000000000000002
 23
-1.647199101802821
 33
1.277670924522338
  0
3DFACE
  5
6B9
330
1F
100
AcDbEntity
  8
WHEELS
100
AcDbFace
 10
-0.2049999999999998
 20
-1.671374981425456
 30
1.296143497660317
 11
0.0000000000000002
 21
-1.64576503796589
 31
1.344737633558279
 12
0.0000000000000002
 22
-1.647199101802821
 32
1.277670924522338
 13
-0.1749999999999996
 23
-1.669061248658548
 33
1.236188125585053
  0
3DFACE
  5
6BA
330
1F
100
AcDbEntity
  8
WHEELS
100
AcDbFace
 10
0.4100000000000004
 20
-1.94307974169398
 30
1.03797393468392
 11
0.3550704155516204
 21
-1.847502131523915
 31
1.219329718805021
 12
0.3031088913245539
 22
-1.888028969712867
 32
1.206776815299991
 13
0.3500000000000003
 23
-1.96961961254097
 33
1.051960902025881
  0
3DFACE
  5
6BB
330
1F
100
AcDbEntity
  8
WHEELS
100
AcDbFace
 10
-0.3550704155516191
 20
-1.847502131523915
 30
1.219329718805021
 11
-0.4099999999999995
 21
-1.94307974169398
 31
1.03797393468392
 12
-0.3499999999999994
 22
-1.96961961254097
 32
1.051960902025881
 13
-0.303108891324553
 23
-1.888028969712867
 33
1.206776815299991
  0
3DFACE
  5
6BC
330
1F
100
AcDbEntity
  8
WHEELS
100
AcDbFace
 10
0.4100000000000004
 20
-1.836920258306018
 30
0.9820260653160783
 11
0.3550704155516204
 21
-1.741342648135954
 31
1.163381849437178
 12
0.3550704155516204
 22
-1.847502131523915
 32
1.219329718805021
 13
0.4100000000000004
 23
-1.94307974169398
 33
1.03797393468392
  0
3DFACE
  5
6BD
330
1F
100
AcDbEntity
  8
WHEELS
100
AcDbFace
 10
-0.3550704155516191
 20
-1.741342648135954
 30
1.163381849437179
 11
-0.4099999999999995
 21
-1.836920258306018
 31
0.9820260653160783
 12
-0.4099999999999995
 22
-1.94307974169398
 32
1.03797393468392
 13
-0.3550704155516191
 23
-1.847502131523915
 33
1.219329718805021
  0
3DFACE
  5
6BE
330
1F
100
AcDbEntity
  8
WHEELS
100
AcDbFace
 10
0.2400000000000004
 20
-1.96961961254097
 30
1.051960902025881
 11
0.1200000000000003
 21
-1.87271506022064
 31
1.235834520959094
 12
0.0900000000000006
 22
-1.870401327453732
 32
1.17587914888383
 13
0.1800000000000004
 23
-1.94307974169398
 33
1.03797393468392
  0
3DFACE
  5
6BF
330
1F
100
AcDbEntity
  8
WHEELS
100
AcDbFace
 10
-0.1199999999999994
 20
-1.87271506022064
 30
1.235834520959094
 11
-0.2399999999999995
 21
-1.96961961254097
 31
1.051960902025881
 12
-0.1799999999999995
 22
-1.94307974169398
 32
1.03797393468392
 13
-0.0899999999999997
 23
-1.870401327453732
 33
1.17587914888383
  0
3DFACE
  5
6C0
330
1F
100
AcDbEntity
  8
WHEELS
100
AcDbFace
 10
0.3031088913245539
 20
-1.888028969712867
 30
1.206776815299991
 11
0.1750000000000005
 21
-1.828300473740489
 31
1.320109929636817
 12
0.1200000000000003
 22
-1.87271506022064
 32
1.235834520959094
 13
0.2400000000000004
 23
-1.96961961254097
 33
1.051960902025881
  0
3DFACE
  5
6C1
330
1F
100
AcDbEntity
  8
WHEELS
100
AcDbFace
 10
0.3500000000000003
 20
-1.96961961254097
 30
1.051960902025881
 11
0.3031088913245539
 21
-1.888028969712867
 31
1.206776815299991
 12
0.2400000000000004
 22
-1.96961961254097
 32
1.051960902025881
 13
0.2400000000000004
 23
-1.96961961254097
 33
1.051960902025881
  0
3DFACE
  5
6C2
330
1F
100
AcDbEntity
  8
WHEELS
100
AcDbFace
 10
-0.303108891324553
 20
-1.888028969712867
 30
1.206776815299991
 11
-0.3499999999999994
 21
-1.96961961254097
 31
1.051960902025881
 12
-0.2399999999999995
 22
-1.96961961254097
 32
1.051960902025881
 13
-0.1199999999999994
 23
-1.87271506022064
 33
1.235834520959094
  0
3DFACE
  5
6C3
330
1F
100
AcDbEntity
  8
WHEELS
100
AcDbFace
 10
0.1800000000000008
 20
-1.94307974169398
 30
1.03797393468392
 11
0.090000000000001
 21
-1.870401327453732
 31
1.17587914888383
 12
-0.0899999999999997
 22
-1.870401327453732
 32
1.17587914888383
 13
0.0900000000000001
 23
-2.015758155934227
 33
0.9000687204840104
  0
3DFACE
  5
6C4
330
1F
100
AcDbEntity
  8
WHEELS
100
AcDbFace
 10
0.0900000000000006
 20
-2.015758155934226
 30
0.900068720484011
 11
-0.0899999999999997
 21
-1.870401327453732
 31
1.17587914888383
 12
-0.1799999999999995
 22
-1.94307974169398
 32
1.03797393468392
 13
-0.0899999999999997
 23
-2.015758155934226
 33
0.900068720484011
  0
3DFACE
  5
6C5
330
1F
100
AcDbEntity
  8
WHEELS
100
AcDbFace
 10
-0.3031088913245534
 20
-1.728789744630925
 30
1.122855011248227
 11
-0.1749999999999996
 21
-1.669061248658548
 31
1.236188125585053
 12
-0.1199999999999999
 22
-1.713475835138698
 32
1.151912716907331
 13
-0.2399999999999995
 23
-1.810380387459028
 33
0.968039097974117
  0
3DFACE
  5
6C6
330
1F
100
AcDbEntity
  8
WHEELS
100
AcDbFace
 10
0.0900000000000006
 20
-1.764241844065771
 30
1.119931279515987
 11
-0.0899999999999997
 21
-1.909598672546266
 31
0.8441208511161681
 12
-0.1799999999999995
 22
-1.836920258306018
 32
0.9820260653160783
 13
-0.0899999999999997
 23
-1.764241844065771
 33
1.119931279515988
  0
3DFACE
  5
6C7
330
1F
100
AcDbEntity
  8
WHEELS
100
AcDbFace
 10
0.1800000000000008
 20
-1.836920258306018
 30
0.9820260653160783
 11
0.090000000000001
 21
-1.909598672546266
 31
0.8441208511161681
 12
-0.0899999999999997
 22
-1.909598672546266
 32
0.8441208511161681
 13
0.0900000000000001
 23
-1.764241844065771
 33
1.119931279515988
  0
3DFACE
  5
6C8
330
1F
100
AcDbEntity
  8
WHEELS
100
AcDbFace
 10
-0.3499999999999994
 20
-1.810380387459028
 30
0.968039097974117
 11
-0.3031088913245534
 21
-1.728789744630925
 31
1.122855011248227
 12
-0.2399999999999995
 22
-1.810380387459028
 32
0.968039097974117
 13
-0.2399999999999995
 23
-1.810380387459028
 33
0.968039097974117
  0
3DFACE
  5
6C9
330
1F
100
AcDbEntity
  8
WHEELS
100
AcDbFace
 10
0.3031088913245539
 20
-1.728789744630925
 30
1.122855011248227
 11
0.3500000000000007
 21
-1.810380387459028
 31
0.9680390979741179
 12
0.2400000000000004
 22
-1.810380387459028
 32
0.9680390979741179
 13
0.1200000000000003
 23
-1.713475835138698
 33
1.151912716907331
  0
3DFACE
  5
6CA
330
1F
100
AcDbEntity
  8
WHEELS
100
AcDbFace
 10
0.1200000000000003
 20
-1.713475835138698
 30
1.15191271690733
 11
0.2400000000000004
 21
-1.810380387459028
 31
0.9680390979741176
 12
0.1800000000000004
 22
-1.836920258306018
 32
0.9820260653160783
 13
0.0900000000000001
 23
-1.764241844065771
 33
1.119931279515988
  0
3DFACE
  5
6CB
330
1F
100
AcDbEntity
  8
WHEELS
100
AcDbFace
 10
-0.2399999999999995
 20
-1.810380387459028
 30
0.9680390979741176
 11
-0.1199999999999999
 21
-1.713475835138698
 31
1.15191271690733
 12
-0.0899999999999997
 22
-1.764241844065771
 32
1.119931279515988
 13
-0.1799999999999995
 23
-1.836920258306018
 33
0.9820260653160783
  0
3DFACE
  5
6CC
330
1F
100
AcDbEntity
  8
WHEELS
100
AcDbFace
 10
0.3550704155516204
 20
-1.741342648135954
 30
1.163381849437178
 11
0.4100000000000004
 21
-1.836920258306018
 31
0.9820260653160783
 12
0.3500000000000003
 22
-1.810380387459028
 32
0.9680390979741176
 13
0.3031088913245539
 23
-1.728789744630925
 33
1.122855011248227
  0
3DFACE
  5
6CD
330
1F
100
AcDbEntity
  8
WHEELS
100
AcDbFace
 10
-0.4099999999999995
 20
-1.836920258306018
 30
0.9820260653160783
 11
-0.3550704155516196
 21
-1.741342648135954
 31
1.163381849437178
 12
-0.3031088913245534
 22
-1.728789744630925
 32
1.122855011248227
 13
-0.3499999999999994
 23
-1.810380387459028
 33
0.968039097974117
  0
3DFACE
  5
6CE
330
1F
100
AcDbEntity
  8
WHEELS
100
AcDbFace
 10
-0.4099999999999995
 20
-1.94307974169398
 30
1.03797393468392
 11
-0.3550704155516196
 21
-2.038657351864043
 31
0.8566181505628202
 12
-0.3031088913245534
 22
-2.051210255369074
 32
0.8971449887517712
 13
-0.3499999999999994
 23
-1.96961961254097
 33
1.051960902025881
  0
3DFACE
  5
6CF
330
1F
100
AcDbEntity
  8
WHEELS
100
AcDbFace
 10
0.3550704155516204
 20
-2.038657351864043
 30
0.8566181505628202
 11
0.4100000000000004
 21
-1.94307974169398
 31
1.03797393468392
 12
0.3500000000000003
 22
-1.96961961254097
 32
1.051960902025881
 13
0.3031088913245539
 23
-2.051210255369074
 33
0.8971449887517712
  0
3DFACE
  5
6D0
330
1F
100
AcDbEntity
  8
WHEELS
100
AcDbFace
 10
-0.4099999999999995
 20
-1.836920258306018
 30
0.9820260653160783
 11
-0.3550704155516196
 21
-1.932497868476082
 31
0.8006702811949779
 12
-0.3550704155516196
 22
-2.038657351864043
 32
0.8566181505628202
 13
-0.4099999999999995
 23
-1.94307974169398
 33
1.03797393468392
  0
3DFACE
  5
6D1
330
1F
100
AcDbEntity
  8
WHEELS
100
AcDbFace
 10
0.3550704155516204
 20
-1.932497868476082
 30
0.8006702811949779
 11
0.4100000000000004
 21
-1.836920258306018
 31
0.9820260653160783
 12
0.4100000000000004
 22
-1.94307974169398
 32
1.03797393468392
 13
0.3550704155516204
 23
-2.038657351864043
 33
0.8566181505628202
  0
3DFACE
  5
6D2
330
1F
100
AcDbEntity
  8
WHEELS
100
AcDbFace
 10
-0.2399999999999995
 20
-1.96961961254097
 30
1.051960902025881
 11
-0.1199999999999999
 21
-2.066524164861299
 31
0.8680872830926682
 12
-0.0899999999999997
 22
-2.015758155934227
 32
0.9000687204840104
 13
-0.1799999999999995
 23
-1.94307974169398
 33
1.03797393468392
  0
3DFACE
  5
6D3
330
1F
100
AcDbEntity
  8
WHEELS
100
AcDbFace
 10
0.1200000000000003
 20
-2.066524164861299
 30
0.8680872830926677
 11
0.2400000000000004
 21
-1.96961961254097
 31
1.051960902025881
 12
0.1800000000000004
 22
-1.94307974169398
 32
1.03797393468392
 13
0.0900000000000001
 23
-2.015758155934227
 33
0.9000687204840104
  0
3DFACE
  5
6D4
330
1F
100
AcDbEntity
  8
WHEELS
100
AcDbFace
 10
0.3031088913245539
 20
-2.051210255369074
 30
0.8971449887517708
 11
0.3500000000000007
 21
-1.96961961254097
 31
1.051960902025881
 12
0.2400000000000004
 22
-1.96961961254097
 32
1.051960902025881
 13
0.1200000000000003
 23
-2.066524164861299
 33
0.8680872830926677
  0
3DFACE
  5
6D5
330
1F
100
AcDbEntity
  8
WHEELS
100
AcDbFace
 10
-0.3499999999999994
 20
-1.96961961254097
 30
1.051960902025881
 11
-0.3031088913245534
 21
-2.051210255369074
 31
0.8971449887517712
 12
-0.2399999999999995
 22
-1.96961961254097
 32
1.051960902025881
 13
-0.2399999999999995
 23
-1.96961961254097
 33
1.051960902025881
  0
3DFACE
  5
6D6
330
1F
100
AcDbEntity
  8
WHEELS
100
AcDbFace
 10
-0.303108891324553
 20
-1.891971030287132
 30
0.8132231847000072
 11
-0.3499999999999994
 21
-1.810380387459028
 31
0.968039097974117
 12
-0.2399999999999995
 22
-1.810380387459028
 32
0.968039097974117
 13
-0.1199999999999994
 23
-1.907284939779358
 33
0.7841654790409044
  0
3DFACE
  5
6D7
330
1F
100
AcDbEntity
  8
WHEELS
100
AcDbFace
 10
0.3500000000000003
 20
-1.810380387459028
 30
0.9680390979741179
 11
0.3031088913245539
 21
-1.891971030287132
 31
0.8132231847000072
 12
0.2400000000000004
 22
-1.810380387459028
 32
0.9680390979741179
 13
0.2400000000000004
 23
-1.810380387459028
 33
0.9680390979741179
  0
3DFACE
  5
6D8
330
1F
100
AcDbEntity
  8
WHEELS
100
AcDbFace
 10
-0.1199999999999994
 20
-1.907284939779358
 30
0.7841654790409044
 11
-0.2399999999999995
 21
-1.810380387459028
 31
0.9680390979741176
 12
-0.1799999999999995
 22
-1.836920258306018
 32
0.9820260653160783
 13
-0.0899999999999997
 23
-1.909598672546266
 33
0.8441208511161681
  0
3DFACE
  5
6D9
330
1F
100
AcDbEntity
  8
WHEELS
100
AcDbFace
 10
0.2400000000000004
 20
-1.810380387459028
 30
0.9680390979741176
 11
0.1200000000000003
 21
-1.907284939779358
 31
0.7841654790409044
 12
0.0900000000000006
 22
-1.909598672546266
 32
0.8441208511161681
 13
0.1800000000000004
 23
-1.836920258306018
 33
0.9820260653160783
  0
3DFACE
  5
6DA
330
1F
100
AcDbEntity
  8
WHEELS
100
AcDbFace
 10
-0.3550704155516191
 20
-1.932497868476083
 30
0.8006702811949775
 11
-0.4099999999999995
 21
-1.836920258306018
 31
0.9820260653160783
 12
-0.3499999999999994
 22
-1.810380387459028
 32
0.968039097974117
 13
-0.303108891324553
 23
-1.891971030287132
 33
0.8132231847000072
  0
3DFACE
  5
6DB
330
1F
100
AcDbEntity
  8
WHEELS
100
AcDbFace
 10
0.4100000000000004
 20
-1.836920258306018
 30
0.9820260653160783
 11
0.3550704155516204
 21
-1.932497868476083
 31
0.8006702811949779
 12
0.3031088913245539
 22
-1.891971030287132
 32
0.8132231847000072
 13
0.3500000000000003
 23
-1.810380387459028
 33
0.9680390979741176
  0
3DFACE
  5
6DC
330
1F
100
AcDbEntity
  8
WHEELS
100
AcDbFace
 10
-0.1199999999999999
 20
-2.066524164861299
 30
0.8680872830926682
 11
0.1200000000000003
 21
-2.066524164861299
 31
0.8680872830926677
 12
0.0900000000000001
 22
-2.015758155934227
 32
0.9000687204840104
 13
-0.0899999999999997
 23
-2.015758155934227
 33
0.9000687204840104
  0
3DFACE
  5
6DD
330
1F
100
AcDbEntity
  8
WHEELS
100
AcDbFace
 10
0.1200000000000003
 20
-1.907284939779358
 30
0.7841654790409044
 11
-0.1199999999999994
 21
-1.907284939779358
 31
0.7841654790409044
 12
-0.0899999999999997
 22
-1.909598672546266
 32
0.8441208511161681
 13
0.0900000000000006
 23
-1.909598672546266
 33
0.8441208511161681
  0
3DFACE
  5
6DE
330
1F
100
AcDbEntity
  8
WHEELS
100
AcDbFace
 10
0.3550704155516204
 20
-1.847502131523915
 30
1.219329718805021
 11
0.2050000000000003
 21
-1.777534464813416
 31
1.352091367028159
 12
0.1750000000000005
 22
-1.828300473740489
 32
1.320109929636817
 13
0.3031088913245539
 23
-1.888028969712867
 33
1.206776815299991
  0
3DFACE
  5
6DF
330
1F
100
AcDbEntity
  8
WHEELS
100
AcDbFace
 10
-0.2049999999999994
 20
-1.777534464813416
 30
1.35209136702816
 11
-0.3550704155516191
 21
-1.847502131523915
 31
1.219329718805021
 12
-0.303108891324553
 22
-1.888028969712867
 32
1.206776815299991
 13
-0.1749999999999996
 23
-1.828300473740489
 33
1.320109929636817
  0
3DFACE
  5
6E0
330
1F
100
AcDbEntity
  8
WHEELS
100
AcDbFace
 10
0.3550704155516204
 20
-1.741342648135954
 30
1.163381849437178
 11
0.2050000000000003
 21
-1.671374981425456
 31
1.296143497660317
 12
0.2050000000000003
 22
-1.777534464813416
 32
1.352091367028159
 13
0.3550704155516204
 23
-1.847502131523915
 33
1.219329718805021
  0
3DFACE
  5
6E1
330
1F
100
AcDbEntity
  8
WHEELS
100
AcDbFace
 10
-0.2049999999999994
 20
-1.671374981425455
 30
1.296143497660317
 11
-0.3550704155516191
 21
-1.741342648135954
 31
1.163381849437179
 12
-0.3550704155516191
 22
-1.847502131523915
 32
1.219329718805021
 13
-0.2049999999999994
 23
-1.777534464813416
 33
1.35209136702816
  0
3DFACE
  5
6E2
330
1F
100
AcDbEntity
  8
WHEELS
100
AcDbFace
 10
0.0000000000000002
 20
-1.806438326884763
 30
1.361592728574101
 11
-0.1749999999999996
 21
-1.828300473740489
 31
1.320109929636817
 12
-0.1199999999999994
 22
-1.87271506022064
 32
1.235834520959094
 13
0.1200000000000003
 23
-1.87271506022064
 33
1.235834520959094
  0
3DFACE
  5
6E3
330
1F
100
AcDbEntity
  8
WHEELS
100
AcDbFace
 10
0.1750000000000005
 20
-1.828300473740489
 30
1.320109929636817
 11
0.0000000000000002
 21
-1.806438326884763
 31
1.361592728574101
 12
0.1200000000000003
 22
-1.87271506022064
 32
1.235834520959094
 13
0.1200000000000003
 23
-1.87271506022064
 33
1.235834520959094
  0
3DFACE
  5
6E4
330
1F
100
AcDbEntity
  8
WHEELS
100
AcDbFace
 10
-0.1749999999999996
 20
-1.828300473740489
 30
1.320109929636817
 11
-0.303108891324553
 21
-1.888028969712867
 31
1.206776815299991
 12
-0.1199999999999994
 22
-1.87271506022064
 32
1.235834520959094
 13
-0.1199999999999994
 23
-1.87271506022064
 33
1.235834520959094
  0
3DFACE
  5
6E5
330
1F
100
AcDbEntity
  8
WHEELS
100
AcDbFace
 10
0.175
 20
-1.669061248658548
 30
1.236188125585053
 11
0.3031088913245539
 21
-1.728789744630925
 31
1.122855011248227
 12
0.1200000000000003
 22
-1.713475835138698
 32
1.151912716907331
 13
0.1200000000000003
 23
-1.713475835138698
 33
1.151912716907331
  0
3DFACE
  5
6E6
330
1F
100
AcDbEntity
  8
WHEELS
100
AcDbFace
 10
0.0000000000000002
 20
-1.647199101802821
 30
1.277670924522338
 11
0.1750000000000005
 21
-1.669061248658548
 31
1.236188125585053
 12
0.1200000000000003
 22
-1.713475835138698
 32
1.15191271690733
 13
-0.1199999999999999
 23
-1.713475835138698
 33
1.15191271690733
  0
3DFACE
  5
6E7
330
1F
100
AcDbEntity
  8
WHEELS
100
AcDbFace
 10
-0.1749999999999996
 20
-1.669061248658548
 30
1.236188125585053
 11
0.0000000000000002
 21
-1.647199101802821
 31
1.277670924522338
 12
-0.1199999999999999
 22
-1.713475835138698
 32
1.15191271690733
 13
-0.1199999999999999
 23
-1.713475835138698
 33
1.15191271690733
  0
3DFACE
  5
6E8
330
1F
100
AcDbEntity
  8
WHEELS
100
AcDbFace
 10
0.2050000000000003
 20
-1.671374981425456
 30
1.296143497660317
 11
0.3550704155516204
 21
-1.741342648135954
 31
1.163381849437178
 12
0.3031088913245539
 22
-1.728789744630925
 32
1.122855011248227
 13
0.1750000000000005
 23
-1.669061248658548
 33
1.236188125585053
  0
3DFACE
  5
6E9
330
1F
100
AcDbEntity
  8
WHEELS
100
AcDbFace
 10
-0.3550704155516196
 20
-1.741342648135954
 30
1.163381849437178
 11
-0.2049999999999998
 21
-1.671374981425456
 31
1.296143497660317
 12
-0.1749999999999996
 22
-1.669061248658548
 32
1.236188125585053
 13
-0.3031088913245534
 23
-1.728789744630925
 33
1.122855011248227
  0
3DFACE
  5
6EA
330
1F
100
AcDbEntity
  8
WHEELS
100
AcDbFace
 10
0.1200000000000003
 20
-1.87271506022064
 30
1.235834520959094
 11
-0.1199999999999994
 21
-1.87271506022064
 31
1.235834520959094
 12
-0.0899999999999997
 22
-1.870401327453732
 32
1.17587914888383
 13
0.0900000000000006
 23
-1.870401327453732
 33
1.17587914888383
  0
3DFACE
  5
6EB
330
1F
100
AcDbEntity
  8
WHEELS
100
AcDbFace
 10
-0.1199999999999999
 20
-1.713475835138698
 30
1.15191271690733
 11
0.1200000000000003
 21
-1.713475835138698
 31
1.15191271690733
 12
0.0900000000000001
 22
-1.764241844065771
 32
1.119931279515988
 13
-0.0899999999999997
 23
-1.764241844065771
 33
1.119931279515988
  0
VIEWPORT
  5
2E
330
1B
100
AcDbEntity
 67
     1
  8
0
100
AcDbViewport
 10
144.7270812988281
 20
101.2295806407928
 30
0.0
 40
391.1355098831658
 41
222.1517806396484
 68
     2
 69
     1
1001
ACAD
1000
MVIEW
1002
{
1070
    16
1010
0.0
1020
0.0
1030
0.0
1010
0.0
1020
0.0
1030
1.0
1040
0.0
1040
222.1517806396484
1040
144.7270812988281
1040
101.2295806407928
1040
50.0
1040
0.0
1040
0.0
1070
     0
1070
   100
1070
     1
1070
     1
1070
     0
1070
     0
1070
     0
1070
     0
1040
0.0
1040
0.0
1040
0.0
1040
10.0
1040
10.0
1040
10.0
1040
10.0
1070
     0
1002
{
1002
}
1002
}
  0
VIEWPORT
  5
30
330
1B
100
AcDbEntity
 67
     1
  8
0
100
AcDbViewport
 10
139.2237563133239
 20
100.8062499761581
 30
0.0
 40
222.7580101013183
 41
161.289999961853
 68
     1
 69
     2
1001
ACAD
1000
MVIEW
1002
{
1070
    16
1010
0.0
1020
0.0
1030
0.0
1010
0.0
1020
0.0
1030
1.0
1040
0.0
1040
307.4901013414899
1040
210.0
1040
148.5
1040
50.0
1040
0.0
1040
0.0
1070
     0
1070
   100
1070
     1
1070
     3
1070
     0
1070
     1
1070
     0
1070
     0
1040
0.0
1040
0.0
1040
0.0
1040
10.0
1040
10.0
1040
10.0
1040
10.0
1070
     0
1002
{
1002
}
1002
}
  0
ENDSEC
  0
SECTION
  2
OBJECTS
  0
DICTIONARY
  5
C
330
0
100
AcDbDictionary
  3
ACAD_GROUP
350
D
  3
ACAD_IMAGE_DICT
350
7B
  3
ACAD_IMAGE_VARS
350
7C
  3
ACAD_LAYOUT
350
1A
  3
ACAD_MLINESTYLE
350
17
  3
ACAD_PLOTSETTINGS
350
19
1001
ACAD
1000
TREAT_AS_HARD
1070
     0
  0
DICTIONARY
  5
88A
330
1F
100
AcDbDictionary
  3
ACAD_LAYOUTSELFREF
350
88B
  0
DICTIONARY
  5
888
330
1B
100
AcDbDictionary
  3
ACAD_LAYOUTSELFREF
350
889
  0
DICTIONARY
  5
D
102
{ACAD_REACTORS
330
C
102
}
330
C
100
AcDbDictionary
  3
BASIC_BLOCK
350
68
1001
ACAD
1000
TREAT_AS_HARD
1070
     0
  0
DICTIONARY
  5
7B
102
{ACAD_REACTORS
330
C
102
}
330
C
100
AcDbDictionary
  3
BA-20RAD
350
7D
1001
ACAD
1000
TREAT_AS_HARD
1070
     0
  0
RASTERVARIABLES
  5
7C
102
{ACAD_REACTORS
330
C
102
}
330
C
100
AcDbRasterVariables
 90
        0
 70
     1
 71
     1
 72
     1
  0
DICTIONARY
  5
1A
102
{ACAD_REACTORS
330
C
102
}
330
C
100
AcDbDictionary
1001
ACAD
1000
TREAT_AS_HARD
1070
     0
  0
DICTIONARY
  5
17
102
{ACAD_REACTORS
330
C
102
}
330
C
100
AcDbDictionary
  3
STANDARD
350
18
1001
ACAD
1000
TREAT_AS_HARD
1070
     0
  0
DICTIONARY
  5
19
102
{ACAD_REACTORS
330
C
102
}
330
C
100
AcDbDictionary
1001
ACAD
1000
TREAT_AS_HARD
1070
     0
  0
XRECORD
  5
88B
102
{ACAD_REACTORS
330
88A
102
}
330
88A
100
AcDbXrecord
340
1F
  0
XRECORD
  5
889
102
{ACAD_REACTORS
330
888
102
}
330
888
100
AcDbXrecord
340
1B
  0
GROUP
  5
68
102
{ACAD_REACTORS
330
D
102
}
330
D
100
AcDbGroup
300

 70
     0
 71
     1
  0
IMAGEDEF
  5
7D
102
{ACAD_REACTORS
330
7B
330
7E
330
85
102
}
330
7B
100
AcDbRasterImageDef
 90
        0
  1
F:\pdf\references\BA-20rad.gif
 10
2000.0
 20
1939.0
 11
0.0005
 21
0.0005
280
     1
281
     0
  0
MLINESTYLE
  5
18
102
{ACAD_REACTORS
330
17
102
}
330
17
100
AcDbMlineStyle
  2
STANDARD
 70
     0
  3

 62
   256
 51
90.0
 52
90.0
 71
     2
 49
0.5
 62
   256
  6
BYLAYER
 49
-0.5
 62
   256
  6
BYLAYER
  0
ENDSEC
  0
EOF
