  0
SECTION
  2
HEADER
  9
$ACADVER
  1
AC1009
  9
$INSBASE
 10
0.0
 20
0.0
 30
0.0
  9
$EXTMIN
 10
-0.75
 20
-1.9099999999999999
 30
-0.2300000000000008
  9
$EXTMAX
 10
0.75
 20
0.2300000000000006
 30
0.5999999999999996
  9
$LIMMIN
 10
0.0
 20
0.0
  9
$LIMMAX
 10
420.0
 20
297.0
  9
$ORTHOMODE
 70
     1
  9
$REGENMODE
 70
     1
  9
$FILLMODE
 70
     1
  9
$QTEXTMODE
 70
     0
  9
$MIRRTEXT
 70
     1
  9
$DRAGMODE
 70
     2
  9
$LTSCALE
 40
1.0
  9
$OSMODE
 70
    35
  9
$ATTMODE
 70
     1
  9
$TEXTSIZE
 40
2.5
  9
$TRACEWID
 40
1.0
  9
$TEXTSTYLE
  7
STANDARD
  9
$CLAYER
  8
WHEELS
  9
$CELTYPE
  6
BYLAYER
  9
$CECOLOR
 62
   256
  9
$DIMSCALE
 40
1.0
  9
$DIMASZ
 40
2.5
  9
$DIMEXO
 40
0.625
  9
$DIMDLI
 40
3.75
  9
$DIMRND
 40
0.0
  9
$DIMDLE
 40
0.0
  9
$DIMEXE
 40
1.25
  9
$DIMTP
 40
0.0
  9
$DIMTM
 40
0.0
  9
$DIMTXT
 40
2.5
  9
$DIMCEN
 40
2.5
  9
$DIMTSZ
 40
0.0
  9
$DIMTOL
 70
     0
  9
$DIMLIM
 70
     0
  9
$DIMTIH
 70
     0
  9
$DIMTOH
 70
     0
  9
$DIMSE1
 70
     0
  9
$DIMSE2
 70
     0
  9
$DIMTAD
 70
     1
  9
$DIMZIN
 70
     8
  9
$DIMBLK
  1

  9
$DIMASO
 70
     1
  9
$DIMSHO
 70
     1
  9
$DIMPOST
  1

  9
$DIMAPOST
  1

  9
$DIMALT
 70
     0
  9
$DIMALTD
 70
     3
  9
$DIMALTF
 40
0.03937007874016
  9
$DIMLFAC
 40
1.0
  9
$DIMTOFL
 70
     1
  9
$DIMTVP
 40
0.0
  9
$DIMTIX
 70
     0
  9
$DIMSOXD
 70
     0
  9
$DIMSAH
 70
     0
  9
$DIMBLK1
  1

  9
$DIMBLK2
  1

  9
$DIMSTYLE
  2
ISO-25
  9
$DIMCLRD
 70
     0
  9
$DIMCLRE
 70
     0
  9
$DIMCLRT
 70
     0
  9
$DIMTFAC
 40
1.0
  9
$DIMGAP
 40
0.625
  9
$LUNITS
 70
     2
  9
$LUPREC
 70
     4
  9
$SKETCHINC
 40
1.0
  9
$FILLETRAD
 40
10.0
  9
$AUNITS
 70
     0
  9
$AUPREC
 70
     0
  9
$MENU
  1
.
  9
$ELEVATION
 40
0.0
  9
$PELEVATION
 40
0.0
  9
$THICKNESS
 40
0.0
  9
$LIMCHECK
 70
     0
  9
$BLIPMODE
 70
     0
  9
$CHAMFERA
 40
10.0
  9
$CHAMFERB
 40
10.0
  9
$SKPOLY
 70
     0
  9
$TDCREATE
 40
2457526.5407619332
  9
$TDUPDATE
 40
2457546.4699979741
  9
$TDINDWG
 40
1.08092375
  9
$TDUSRTIMER
 40
1.0809237383999999
  9
$USRTIMER
 70
     1
  9
$ANGBASE
 50
0.0
  9
$ANGDIR
 70
     0
  9
$PDMODE
 70
     0
  9
$PDSIZE
 40
0.0
  9
$PLINEWID
 40
0.0
  9
$COORDS
 70
     1
  9
$SPLFRAME
 70
     0
  9
$SPLINETYPE
 70
     6
  9
$SPLINESEGS
 70
     8
  9
$ATTDIA
 70
     1
  9
$ATTREQ
 70
     1
  9
$HANDLING
 70
-16383
  9
$HANDSEED
  5
2500
  9
$SURFTAB1
 70
     6
  9
$SURFTAB2
 70
     6
  9
$SURFTYPE
 70
     6
  9
$SURFU
 70
     6
  9
$SURFV
 70
     6
  9
$UCSNAME
  2

  9
$UCSORG
 10
0.0
 20
0.0
 30
0.0
  9
$UCSXDIR
 10
0.0
 20
-1.0
 30
0.0
  9
$UCSYDIR
 10
0.0
 20
0.0
 30
1.0
  9
$PUCSNAME
  2

  9
$PUCSORG
 10
0.0
 20
0.0
 30
0.0
  9
$PUCSXDIR
 10
1.0
 20
0.0
 30
0.0
  9
$PUCSYDIR
 10
0.0
 20
1.0
 30
0.0
  9
$USERI1
 70
     0
  9
$USERI2
 70
     0
  9
$USERI3
 70
     0
  9
$USERI4
 70
     0
  9
$USERI5
 70
     0
  9
$USERR1
 40
0.0
  9
$USERR2
 40
0.0
  9
$USERR3
 40
0.0
  9
$USERR4
 40
0.0
  9
$USERR5
 40
0.0
  9
$WORLDVIEW
 70
     1
  9
$SHADEDGE
 70
     3
  9
$SHADEDIF
 70
    70
  9
$TILEMODE
 70
     1
  9
$MAXACTVP
 70
    64
  9
$PLIMCHECK
 70
     0
  9
$PEXTMIN
 10
27.844751262664801
 20
20.161249995231621
 30
0.0
  9
$PEXTMAX
 10
250.60276136398309
 20
181.4512499570846
 30
0.0
  9
$PLIMMIN
 10
-3.757080078125
 20
-3.7570831775665279
  9
$PLIMMAX
 10
293.21124267578119
 20
206.21624445915219
  9
$UNITMODE
 70
     0
  9
$VISRETAIN
 70
     1
  9
$PLINEGEN
 70
     0
  9
$PSLTSCALE
 70
     1
  0
ENDSEC
  0
SECTION
  2
TABLES
  0
TABLE
  2
VPORT
 70
     2
  0
VPORT
  2
*ACTIVE
 70
     0
 10
0.0
 20
0.0
 11
1.0
 21
1.0
 12
0.9349318926181551
 22
0.119478055323611
 13
0.0
 23
0.0
 14
0.01
 24
0.01
 15
1.0
 25
1.0
 16
-1.0
 26
0.0
 36
0.0
 17
0.0
 27
0.0
 37
0.0
 40
2.161121337306585
 41
2.1655092592592591
 42
50.0
 43
0.0
 44
0.0
 50
0.0
 51
0.0
 71
     0
 72
   100
 73
     1
 74
     3
 75
     1
 76
     1
 77
     0
 78
     1
  0
ENDTAB
  0
TABLE
  2
LTYPE
 70
     1
  0
LTYPE
  2
CONTINUOUS
 70
     0
  3
Solid line
 72
    65
 73
     0
 40
0.0
  0
ENDTAB
  0
TABLE
  2
LAYER
 70
     9
  0
LAYER
  2
0
 70
     0
 62
     7
  6
CONTINUOUS
  0
LAYER
  2
REFERENCE
 70
     0
 62
     9
  6
CONTINUOUS
  0
LAYER
  2
TMP
 70
     0
 62
     4
  6
CONTINUOUS
  0
LAYER
  2
FRAME
 70
     0
 62
     5
  6
CONTINUOUS
  0
LAYER
  2
WHEELS
 70
     0
 62
     2
  6
CONTINUOUS
  0
LAYER
  2
TRACKS
 70
     0
 62
     3
  6
CONTINUOUS
  0
LAYER
  2
FENDERS
 70
     0
 62
     6
  6
CONTINUOUS
  0
LAYER
  2
CARGO_PLATFORM
 70
     0
 62
     3
  6
CONTINUOUS
  0
LAYER
  2
TENT
 70
     0
 62
     4
  6
CONTINUOUS
  0
ENDTAB
  0
TABLE
  2
STYLE
 70
     1
  0
STYLE
  2
STANDARD
 70
     0
 40
0.0
 41
1.0
 50
0.0
 71
     0
 42
2.5
  3
txt
  4

  0
ENDTAB
  0
TABLE
  2
VIEW
 70
     0
  0
ENDTAB
  0
TABLE
  2
UCS
 70
     0
  0
ENDTAB
  0
TABLE
  2
APPID
 70
     1
  0
APPID
  2
ACAD
 70
     0
  0
ENDTAB
  0
TABLE
  2
DIMSTYLE
 70
     1
  0
DIMSTYLE
  2
ISO-25
 70
     0
  3

  4

  5

  6

  7

 40
1.0
 41
2.5
 42
0.625
 43
3.75
 44
1.25
 45
0.0
 46
0.0
 47
0.0
 48
0.0
140
2.5
141
2.5
142
0.0
143
0.03937007874016
144
1.0
145
0.0
146
1.0
147
0.625
 71
     0
 72
     0
 73
     0
 74
     0
 75
     0
 76
     0
 77
     1
 78
     8
170
     0
171
     3
172
     1
173
     0
174
     0
175
     0
176
     0
177
     0
178
     0
  0
ENDTAB
  0
ENDSEC
  0
SECTION
  2
BLOCKS
  0
BLOCK
  8
0
  2
$MODEL_SPACE
 70
     0
 10
0.0
 20
0.0
 30
0.0
  3
$MODEL_SPACE
  1

  0
ENDBLK
  5
21
  8
0
  0
BLOCK
 67
     1
  8
0
  2
$PAPER_SPACE
 70
     0
 10
0.0
 20
0.0
 30
0.0
  3
$PAPER_SPACE
  1

  0
ENDBLK
  5
1D
 67
     1
  8
0
  0
ENDSEC
  0
SECTION
  2
ENTITIES
  0
3DFACE
  5
E3E
  8
WHEELS
 10
-0.63
 20
0.22
 30
-0.0000000000000004
 11
-0.63
 21
0.1905255888325767
 31
0.109999999999999
 12
-0.6600000000000001
 22
0.1905255888325767
 32
0.109999999999999
 13
-0.6600000000000001
 23
0.22
 33
-0.0000000000000004
  0
3DFACE
  5
E3F
  8
WHEELS
 10
-0.63
 20
0.1905255888325767
 30
0.109999999999999
 11
-0.63
 21
0.1100000000000001
 31
0.1905255888325761
 12
-0.6600000000000001
 22
0.1100000000000001
 32
0.1905255888325761
 13
-0.6600000000000001
 23
0.1905255888325767
 33
0.109999999999999
  0
3DFACE
  5
E40
  8
WHEELS
 10
-0.63
 20
0.1100000000000001
 30
0.1905255888325761
 11
-0.63
 21
0.0000000000000002
 31
0.2199999999999985
 12
-0.6600000000000001
 22
0.0000000000000002
 32
0.2199999999999985
 13
-0.6600000000000001
 23
0.1100000000000001
 33
0.1905255888325761
  0
3DFACE
  5
E41
  8
WHEELS
 10
-0.63
 20
0.0000000000000002
 30
0.2199999999999985
 11
-0.63
 21
-0.1100000000000001
 31
0.1905255888325761
 12
-0.6600000000000001
 22
-0.1100000000000001
 32
0.1905255888325761
 13
-0.6600000000000001
 23
0.0000000000000002
 33
0.2199999999999985
  0
3DFACE
  5
E42
  8
WHEELS
 10
-0.63
 20
-0.1100000000000001
 30
0.1905255888325761
 11
-0.63
 21
-0.1905255888325763
 31
0.109999999999999
 12
-0.6600000000000001
 22
-0.1905255888325763
 32
0.109999999999999
 13
-0.6600000000000001
 23
-0.1100000000000001
 33
0.1905255888325761
  0
3DFACE
  5
E43
  8
WHEELS
 10
-0.63
 20
-0.1905255888325763
 30
0.109999999999999
 11
-0.63
 21
-0.22
 31
-0.0000000000000004
 12
-0.6600000000000001
 22
-0.22
 32
-0.0000000000000004
 13
-0.6600000000000001
 23
-0.1905255888325763
 33
0.109999999999999
  0
3DFACE
  5
E44
  8
WHEELS
 10
-0.63
 20
-0.22
 30
-0.0000000000000004
 11
-0.63
 21
-0.1905255888325763
 31
-0.1099999999999998
 12
-0.6600000000000001
 22
-0.1905255888325763
 32
-0.1099999999999998
 13
-0.6600000000000001
 23
-0.22
 33
-0.0000000000000004
  0
3DFACE
  5
E45
  8
WHEELS
 10
-0.63
 20
-0.1905255888325763
 30
-0.1099999999999998
 11
-0.63
 21
-0.1100000000000001
 31
-0.1905255888325769
 12
-0.6600000000000001
 22
-0.1100000000000001
 32
-0.1905255888325769
 13
-0.6600000000000001
 23
-0.1905255888325763
 33
-0.1099999999999998
  0
3DFACE
  5
E46
  8
WHEELS
 10
-0.63
 20
-0.1100000000000001
 30
-0.1905255888325769
 11
-0.63
 21
0.0000000000000002
 31
-0.2200000000000001
 12
-0.6600000000000001
 22
0.0000000000000002
 32
-0.2200000000000001
 13
-0.6600000000000001
 23
-0.1100000000000001
 33
-0.1905255888325769
  0
3DFACE
  5
E47
  8
WHEELS
 10
-0.63
 20
0.0000000000000002
 30
-0.2200000000000001
 11
-0.63
 21
0.1100000000000001
 31
-0.1905255888325769
 12
-0.6600000000000001
 22
0.1100000000000001
 32
-0.1905255888325769
 13
-0.6600000000000001
 23
0.0000000000000002
 33
-0.2200000000000001
  0
3DFACE
  5
E48
  8
WHEELS
 10
-0.63
 20
0.1100000000000001
 30
-0.1905255888325769
 11
-0.63
 21
0.1905255888325767
 31
-0.1100000000000007
 12
-0.6600000000000001
 22
0.1905255888325767
 32
-0.1100000000000007
 13
-0.6600000000000001
 23
0.1100000000000001
 33
-0.1905255888325769
  0
3DFACE
  5
E49
  8
WHEELS
 10
-0.63
 20
0.1905255888325767
 30
-0.1100000000000007
 11
-0.63
 21
0.22
 31
-0.0000000000000004
 12
-0.6600000000000001
 22
0.22
 32
-0.0000000000000004
 13
-0.6600000000000001
 23
0.1905255888325767
 33
-0.1100000000000007
  0
3DFACE
  5
E4A
  8
WHEELS
 10
-0.6200000000000001
 20
-0.2300000000000002
 30
-0.0000000000000004
 11
-0.6200000000000001
 21
-0.1991858428704212
 31
0.1149999999999998
 12
-0.6600000000000001
 22
-0.1991858428704212
 32
0.1149999999999998
 13
-0.6600000000000001
 23
-0.2300000000000002
 33
-0.0000000000000004
  0
3DFACE
  5
E4B
  8
WHEELS
 10
-0.6200000000000001
 20
-0.1991858428704212
 30
0.1149999999999998
 11
-0.6200000000000001
 21
-0.115
 31
0.1991858428704201
 12
-0.6600000000000001
 22
-0.115
 32
0.1991858428704201
 13
-0.6600000000000001
 23
-0.1991858428704212
 33
0.1149999999999998
  0
3DFACE
  5
E4C
  8
WHEELS
 10
-0.6200000000000001
 20
-0.115
 30
0.1991858428704201
 11
-0.6200000000000001
 21
0.0000000000000002
 31
0.23
 12
-0.6600000000000001
 22
0.0000000000000002
 32
0.23
 13
-0.6600000000000001
 23
-0.115
 33
0.1991858428704201
  0
3DFACE
  5
E4D
  8
WHEELS
 10
-0.6200000000000001
 20
0.0000000000000002
 30
0.23
 11
-0.6200000000000001
 21
0.115
 31
0.1991858428704201
 12
-0.6600000000000001
 22
0.115
 32
0.1991858428704201
 13
-0.6600000000000001
 23
0.0000000000000002
 33
0.23
  0
3DFACE
  5
E4E
  8
WHEELS
 10
-0.6200000000000001
 20
0.115
 30
0.1991858428704201
 11
-0.6200000000000001
 21
0.1991858428704207
 31
0.1149999999999998
 12
-0.6600000000000001
 22
0.1991858428704207
 32
0.1149999999999998
 13
-0.6600000000000001
 23
0.115
 33
0.1991858428704201
  0
3DFACE
  5
E4F
  8
WHEELS
 10
-0.6200000000000001
 20
0.1991858428704207
 30
0.1149999999999998
 11
-0.6200000000000001
 21
0.2299999999999998
 31
-0.0000000000000004
 12
-0.6600000000000001
 22
0.2299999999999998
 32
-0.0000000000000004
 13
-0.6600000000000001
 23
0.1991858428704207
 33
0.1149999999999998
  0
3DFACE
  5
E50
  8
WHEELS
 10
-0.6200000000000001
 20
0.2299999999999998
 30
-0.0000000000000004
 11
-0.6200000000000001
 21
0.1991858428704207
 31
-0.1150000000000006
 12
-0.6600000000000001
 22
0.1991858428704207
 32
-0.1150000000000006
 13
-0.6600000000000001
 23
0.2299999999999998
 33
-0.0000000000000004
  0
3DFACE
  5
E51
  8
WHEELS
 10
-0.6200000000000001
 20
0.1991858428704207
 30
-0.1150000000000006
 11
-0.6200000000000001
 21
0.115
 31
-0.1991858428704209
 12
-0.6600000000000001
 22
0.115
 32
-0.1991858428704209
 13
-0.6600000000000001
 23
0.1991858428704207
 33
-0.1150000000000006
  0
3DFACE
  5
E52
  8
WHEELS
 10
-0.6200000000000001
 20
0.115
 30
-0.1991858428704209
 11
-0.6200000000000001
 21
0.0000000000000002
 31
-0.2300000000000008
 12
-0.6600000000000001
 22
0.0000000000000002
 32
-0.2300000000000008
 13
-0.6600000000000001
 23
0.115
 33
-0.1991858428704209
  0
3DFACE
  5
E53
  8
WHEELS
 10
-0.6200000000000001
 20
0.0000000000000002
 30
-0.2300000000000008
 11
-0.6200000000000001
 21
-0.115
 31
-0.1991858428704209
 12
-0.6600000000000001
 22
-0.115
 32
-0.1991858428704209
 13
-0.6600000000000001
 23
0.0000000000000002
 33
-0.2300000000000008
  0
3DFACE
  5
E54
  8
WHEELS
 10
-0.6200000000000001
 20
-0.115
 30
-0.1991858428704209
 11
-0.6200000000000001
 21
-0.1991858428704212
 31
-0.1150000000000006
 12
-0.6600000000000001
 22
-0.1991858428704212
 32
-0.1150000000000006
 13
-0.6600000000000001
 23
-0.115
 33
-0.1991858428704209
  0
3DFACE
  5
E55
  8
WHEELS
 10
-0.6200000000000001
 20
-0.1991858428704212
 30
-0.1150000000000006
 11
-0.6200000000000001
 21
-0.2300000000000002
 31
-0.0000000000000004
 12
-0.6600000000000001
 22
-0.2300000000000002
 32
-0.0000000000000004
 13
-0.6600000000000001
 23
-0.1991858428704212
 33
-0.1150000000000006
  0
3DFACE
  5
E56
  8
WHEELS
 10
-0.63
 20
-0.0500000000000001
 30
-0.0000000000000004
 11
-0.63
 21
-0.0353553390593271
 31
0.0353553390593269
 12
-0.65
 22
-0.0353553390593271
 32
0.0353553390593269
 13
-0.65
 23
-0.0500000000000001
 33
-0.0000000000000004
  0
3DFACE
  5
E57
  8
WHEELS
 10
-0.63
 20
-0.0353553390593271
 30
0.0353553390593269
 11
-0.63
 21
0.0000000000000002
 31
0.0500000000000003
 12
-0.65
 22
0.0000000000000002
 32
0.0500000000000003
 13
-0.65
 23
-0.0353553390593271
 33
0.0353553390593269
  0
3DFACE
  5
E58
  8
WHEELS
 10
-0.63
 20
0.0000000000000002
 30
0.0500000000000003
 11
-0.63
 21
0.0353553390593275
 31
0.0353553390593269
 12
-0.65
 22
0.0353553390593275
 32
0.0353553390593269
 13
-0.65
 23
0.0000000000000002
 33
0.0500000000000003
  0
3DFACE
  5
E59
  8
WHEELS
 10
-0.63
 20
0.0353553390593275
 30
0.0353553390593269
 11
-0.63
 21
0.0500000000000001
 31
-0.0000000000000004
 12
-0.65
 22
0.0500000000000001
 32
-0.0000000000000004
 13
-0.65
 23
0.0353553390593275
 33
0.0353553390593269
  0
3DFACE
  5
E5A
  8
WHEELS
 10
-0.63
 20
0.0500000000000001
 30
-0.0000000000000004
 11
-0.63
 21
0.0353553390593275
 31
-0.0353553390593277
 12
-0.65
 22
0.0353553390593275
 32
-0.0353553390593277
 13
-0.65
 23
0.0500000000000001
 33
-0.0000000000000004
  0
3DFACE
  5
E5B
  8
WHEELS
 10
-0.63
 20
0.0353553390593275
 30
-0.0353553390593277
 11
-0.63
 21
0.0000000000000002
 31
-0.0500000000000002
 12
-0.65
 22
0.0000000000000002
 32
-0.0500000000000002
 13
-0.65
 23
0.0353553390593275
 33
-0.0353553390593277
  0
3DFACE
  5
E5C
  8
WHEELS
 10
-0.63
 20
0.0000000000000002
 30
-0.0500000000000002
 11
-0.63
 21
-0.0353553390593271
 31
-0.0353553390593277
 12
-0.65
 22
-0.0353553390593271
 32
-0.0353553390593277
 13
-0.65
 23
0.0000000000000002
 33
-0.0500000000000002
  0
3DFACE
  5
E5D
  8
WHEELS
 10
-0.63
 20
-0.0353553390593271
 30
-0.0353553390593277
 11
-0.63
 21
-0.0500000000000001
 31
-0.0000000000000004
 12
-0.65
 22
-0.0500000000000001
 32
-0.0000000000000004
 13
-0.65
 23
-0.0353553390593271
 33
-0.0353553390593277
  0
3DFACE
  5
E5E
  8
WHEELS
 10
-0.65
 20
-0.0200000000000003
 30
-0.0000000000000004
 11
-0.65
 21
-0.0141421356237312
 31
0.0141421356237302
 12
-0.75
 22
-0.0141421356237312
 32
0.0141421356237302
 13
-0.75
 23
-0.0200000000000003
 33
-0.0000000000000004
  0
3DFACE
  5
E5F
  8
WHEELS
 10
-0.65
 20
-0.0141421356237312
 30
0.0141421356237302
 11
-0.65
 21
0.0000000000000002
 31
0.0199999999999992
 12
-0.75
 22
0.0000000000000002
 32
0.0199999999999992
 13
-0.75
 23
-0.0141421356237312
 33
0.0141421356237302
  0
3DFACE
  5
E60
  8
WHEELS
 10
-0.65
 20
0.0000000000000002
 30
0.0199999999999992
 11
-0.65
 21
0.0141421356237308
 31
0.0141421356237302
 12
-0.75
 22
0.0141421356237308
 32
0.0141421356237302
 13
-0.75
 23
0.0000000000000002
 33
0.0199999999999992
  0
3DFACE
  5
E61
  8
WHEELS
 10
-0.65
 20
0.0141421356237308
 30
0.0141421356237302
 11
-0.65
 21
0.0199999999999998
 31
-0.0000000000000004
 12
-0.75
 22
0.0199999999999998
 32
-0.0000000000000004
 13
-0.75
 23
0.0141421356237308
 33
0.0141421356237302
  0
3DFACE
  5
E62
  8
WHEELS
 10
-0.65
 20
0.0199999999999998
 30
-0.0000000000000004
 11
-0.65
 21
0.0141421356237308
 31
-0.014142135623731
 12
-0.75
 22
0.0141421356237308
 32
-0.014142135623731
 13
-0.75
 23
0.0199999999999998
 33
-0.0000000000000004
  0
3DFACE
  5
E63
  8
WHEELS
 10
-0.65
 20
0.0141421356237308
 30
-0.014142135623731
 11
-0.65
 21
0.0000000000000002
 31
-0.02
 12
-0.75
 22
0.0000000000000002
 32
-0.02
 13
-0.75
 23
0.0141421356237308
 33
-0.014142135623731
  0
3DFACE
  5
E64
  8
WHEELS
 10
-0.65
 20
0.0000000000000002
 30
-0.02
 11
-0.65
 21
-0.0141421356237312
 31
-0.014142135623731
 12
-0.75
 22
-0.0141421356237312
 32
-0.014142135623731
 13
-0.75
 23
0.0000000000000002
 33
-0.02
  0
3DFACE
  5
E65
  8
WHEELS
 10
-0.65
 20
-0.0141421356237312
 30
-0.014142135623731
 11
-0.65
 21
-0.0200000000000003
 31
-0.0000000000000004
 12
-0.75
 22
-0.0200000000000003
 32
-0.0000000000000004
 13
-0.75
 23
-0.0141421356237312
 33
-0.014142135623731
  0
3DFACE
  5
E67
  8
WHEELS
 10
-0.65
 20
-0.0353553390593271
 30
0.0353553390593269
 11
-0.65
 21
0.0000000000000002
 31
0.0500000000000003
 12
-0.65
 22
0.0000000000000002
 32
0.0199999999999992
 13
-0.65
 23
-0.0141421356237312
 33
0.0141421356237302
  0
3DFACE
  5
E68
  8
WHEELS
 10
-0.63
 20
-0.1100000000000001
 30
0.1905255888325761
 11
-0.63
 21
0.0000000000000002
 31
0.2199999999999985
 12
-0.63
 22
0.0000000000000002
 32
0.0500000000000003
 13
-0.63
 23
-0.0353553390593271
 33
0.0353553390593269
  0
3DFACE
  5
E69
  8
WHEELS
 10
-0.6600000000000001
 20
-0.115
 30
0.1991858428704201
 11
-0.6600000000000001
 21
0.0000000000000002
 31
0.23
 12
-0.6600000000000001
 22
0.0000000000000002
 32
0.2199999999999985
 13
-0.6600000000000001
 23
-0.1100000000000001
 33
0.1905255888325761
  0
3DFACE
  5
E6A
  8
WHEELS
 10
-0.63
 20
-0.1905255888325763
 30
0.109999999999999
 11
-0.63
 21
-0.1100000000000001
 31
0.1905255888325761
 12
-0.63
 22
-0.0353553390593271
 32
0.0353553390593269
 13
-0.63
 23
-0.0500000000000001
 33
-0.0000000000000004
  0
3DFACE
  5
E6B
  8
WHEELS
 10
-0.63
 20
-0.22
 30
-0.0000000000000004
 11
-0.63
 21
-0.1905255888325763
 31
0.109999999999999
 12
-0.63
 22
-0.0500000000000001
 32
-0.0000000000000004
 13
-0.63
 23
-0.0500000000000001
 33
-0.0000000000000004
  0
3DFACE
  5
E7A
  8
WHEELS
 10
-0.6600000000000001
 20
-0.0000000000000002
 30
0.23
 11
-0.6600000000000001
 21
0.1150000000000004
 31
0.1991858428704201
 12
-0.6600000000000001
 22
0.1099999999999996
 32
0.1905255888325743
 13
-0.6600000000000001
 23
0.0000000000000002
 33
0.2199999999999985
  0
3DFACE
  5
E7B
  8
WHEELS
 10
-0.6600000000000001
 20
0.1149999999999995
 30
0.1991858428704201
 11
-0.6600000000000001
 21
0.1991858428704207
 31
0.1149999999999998
 12
-0.6600000000000001
 22
0.190525588832575
 32
0.109999999999999
 13
-0.6600000000000001
 23
0.1099999999999988
 33
0.1905255888325761
  0
3DFACE
  5
E7C
  8
WHEELS
 10
-0.6600000000000001
 20
0.1991858428704207
 30
0.1149999999999998
 11
-0.6600000000000001
 21
0.2300000000000006
 31
-0.0000000000000004
 12
-0.6600000000000001
 22
0.2199999999999991
 32
-0.0000000000000004
 13
-0.6600000000000001
 23
0.1905255888325767
 33
0.109999999999999
  0
3DFACE
  5
E7D
  8
WHEELS
 10
-0.6600000000000001
 20
0.2299999999999989
 30
-0.0000000000000004
 11
-0.6600000000000001
 21
0.1991858428704198
 31
-0.1150000000000015
 12
-0.6600000000000001
 22
0.1905255888325741
 32
-0.1100000000000007
 13
-0.6600000000000001
 23
0.2199999999999991
 33
-0.0000000000000013
  0
3DFACE
  5
E7E
  8
WHEELS
 10
-0.66
 20
0.1991858428704207
 30
-0.1150000000000006
 11
-0.66
 21
0.1150000000000004
 31
-0.1991858428704218
 12
-0.66
 22
0.1099999999999996
 32
-0.190525588832576
 13
-0.66
 23
0.1905255888325759
 33
-0.1100000000000007
  0
3DFACE
  5
E7F
  8
WHEELS
 10
-0.6600000000000001
 20
0.1150000000000004
 30
-0.1991858428704191
 11
-0.6600000000000001
 21
0.0000000000000002
 31
-0.229999999999999
 12
-0.6600000000000001
 22
0.0000000000000002
 32
-0.2199999999999975
 13
-0.6600000000000001
 23
0.1100000000000001
 33
-0.1905255888325751
  0
3DFACE
  5
E80
  8
WHEELS
 10
-0.6600000000000001
 20
0.0000000000000011
 30
-0.2300000000000008
 11
-0.6600000000000001
 21
-0.1149999999999991
 31
-0.1991858428704218
 12
-0.6600000000000001
 22
-0.1099999999999983
 32
-0.190525588832576
 13
-0.6600000000000001
 23
0.0000000000000011
 33
-0.220000000000001
  0
3DFACE
  5
E81
  8
WHEELS
 10
-0.6600000000000001
 20
-0.1149999999999991
 30
-0.1991858428704209
 11
-0.6600000000000001
 21
-0.1991858428704203
 31
-0.1150000000000006
 12
-0.6600000000000001
 22
-0.1905255888325745
 32
-0.1099999999999998
 13
-0.6600000000000001
 23
-0.1099999999999992
 33
-0.190525588832576
  0
3DFACE
  5
E82
  8
WHEELS
 10
-0.6600000000000001
 20
-0.1991858428704203
 30
-0.1150000000000006
 11
-0.6600000000000001
 21
-0.2300000000000002
 31
-0.0000000000000004
 12
-0.6600000000000001
 22
-0.2199999999999986
 32
-0.0000000000000004
 13
-0.6600000000000001
 23
-0.1905255888325763
 33
-0.1099999999999998
  0
3DFACE
  5
E83
  8
WHEELS
 10
-0.6600000000000001
 20
-0.2299999999999993
 30
-0.0000000000000004
 11
-0.6600000000000001
 21
-0.1991858428704203
 31
0.1149999999999998
 12
-0.6600000000000001
 22
-0.1905255888325745
 32
0.109999999999999
 13
-0.6600000000000001
 23
-0.2199999999999995
 33
-0.0000000000000004
  0
3DFACE
  5
E84
  8
WHEELS
 10
-0.6600000000000001
 20
-0.1991858428704203
 30
0.1149999999999998
 11
-0.6600000000000001
 21
-0.115
 31
0.1991858428704201
 12
-0.6600000000000001
 22
-0.1099999999999992
 32
0.1905255888325743
 13
-0.6600000000000001
 23
-0.1905255888325754
 33
0.109999999999999
  0
3DFACE
  5
E85
  8
WHEELS
 10
-0.65
 20
-0.0000000000000007
 30
0.0500000000000003
 11
-0.65
 21
0.0353553390593284
 31
0.0353553390593287
 12
-0.65
 22
0.0141421356237308
 32
0.0141421356237302
 13
-0.65
 23
0.0000000000000002
 33
0.0199999999999992
  0
3DFACE
  5
E86
  8
WHEELS
 10
-0.65
 20
0.0353553390593275
 30
0.0353553390593269
 11
-0.65
 21
0.0500000000000009
 31
-0.0000000000000004
 12
-0.65
 22
0.0199999999999989
 32
-0.0000000000000004
 13
-0.65
 23
0.0141421356237299
 33
0.0141421356237302
  0
3DFACE
  5
E87
  8
WHEELS
 10
-0.65
 20
0.0499999999999992
 30
-0.0000000000000004
 11
-0.65
 21
0.0353553390593275
 31
-0.0353553390593286
 12
-0.65
 22
0.0141421356237308
 32
-0.014142135623731
 13
-0.65
 23
0.0199999999999998
 33
-0.0000000000000004
  0
3DFACE
  5
E88
  8
WHEELS
 10
-0.65
 20
0.0353553390593275
 30
-0.0353553390593259
 11
-0.65
 21
0.0000000000000002
 31
-0.0499999999999993
 12
-0.65
 22
0.0000000000000002
 32
-0.0199999999999991
 13
-0.65
 23
0.0141421356237308
 33
-0.0141421356237301
  0
3DFACE
  5
E89
  8
WHEELS
 10
-0.65
 20
0.0000000000000002
 30
-0.0499999999999993
 11
-0.65
 21
-0.035355339059328
 31
-0.0353553390593277
 12
-0.65
 22
-0.0141421356237304
 32
-0.014142135623731
 13
-0.65
 23
0.0000000000000002
 33
-0.02
  0
3DFACE
  5
E8A
  8
WHEELS
 10
-0.65
 20
-0.0353553390593271
 30
-0.0353553390593277
 11
-0.65
 21
-0.0500000000000005
 31
-0.0000000000000004
 12
-0.65
 22
-0.0199999999999994
 32
-0.0000000000000004
 13
-0.65
 23
-0.0141421356237304
 33
-0.014142135623731
  0
3DFACE
  5
E8B
  8
WHEELS
 10
-0.65
 20
-0.0499999999999987
 30
-0.0000000000000004
 11
-0.65
 21
-0.035355339059328
 31
0.0353553390593287
 12
-0.65
 22
-0.0141421356237304
 32
0.0141421356237302
 13
-0.65
 23
-0.0199999999999994
 33
-0.0000000000000004
  0
3DFACE
  5
E8C
  8
WHEELS
 10
-0.63
 20
0.1099999999999996
 30
0.1905255888325761
 11
-0.63
 21
0.1905255888325767
 31
0.109999999999999
 12
-0.63
 22
0.0353553390593275
 32
0.0353553390593269
 13
-0.63
 23
-0.0000000000000007
 33
0.0500000000000003
  0
3DFACE
  5
E8D
  8
WHEELS
 10
-0.63
 20
0.1905255888325767
 30
0.109999999999999
 11
-0.63
 21
0.2199999999999991
 31
-0.0000000000000004
 12
-0.63
 22
0.0500000000000009
 32
-0.0000000000000004
 13
-0.63
 23
0.0353553390593275
 33
0.0353553390593269
  0
3DFACE
  5
E8E
  8
WHEELS
 10
-0.63
 20
-0.0000000000000007
 30
0.2199999999999985
 11
-0.63
 21
0.1099999999999996
 31
0.1905255888325761
 12
-0.63
 22
-0.0000000000000007
 32
0.0500000000000003
 13
-0.63
 23
-0.0000000000000007
 33
0.0500000000000003
  0
3DFACE
  5
E8F
  8
WHEELS
 10
-0.63
 20
0.1905255888325767
 30
-0.109999999999998
 11
-0.63
 21
0.1100000000000001
 31
-0.1905255888325751
 12
-0.63
 22
0.0353553390593275
 32
-0.0353553390593259
 13
-0.63
 23
0.0500000000000001
 33
0.0000000000000005
  0
3DFACE
  5
E90
  8
WHEELS
 10
-0.63
 20
0.1100000000000001
 30
-0.1905255888325751
 11
-0.63
 21
0.0000000000000002
 31
-0.2199999999999975
 12
-0.63
 22
0.0000000000000002
 32
-0.0499999999999993
 13
-0.63
 23
0.0353553390593275
 33
-0.0353553390593259
  0
3DFACE
  5
E91
  8
WHEELS
 10
-0.63
 20
0.22
 30
0.0000000000000005
 11
-0.63
 21
0.1905255888325767
 31
-0.109999999999998
 12
-0.63
 22
0.0500000000000001
 32
0.0000000000000005
 13
-0.63
 23
0.0500000000000001
 33
0.0000000000000005
  0
3DFACE
  5
E92
  8
WHEELS
 10
-0.63
 20
-0.1099999999999992
 30
-0.1905255888325769
 11
-0.63
 21
-0.1905255888325763
 31
-0.1099999999999998
 12
-0.63
 22
-0.0353553390593271
 32
-0.0353553390593277
 13
-0.63
 23
0.0000000000000002
 33
-0.0500000000000002
  0
3DFACE
  5
E93
  8
WHEELS
 10
-0.63
 20
-0.1905255888325763
 30
-0.1099999999999998
 11
-0.63
 21
-0.2199999999999986
 31
-0.0000000000000004
 12
-0.63
 22
-0.0500000000000005
 32
-0.0000000000000004
 13
-0.63
 23
-0.0353553390593271
 33
-0.0353553390593277
  0
3DFACE
  5
E94
  8
WHEELS
 10
-0.63
 20
0.0000000000000002
 30
-0.2200000000000001
 11
-0.63
 21
-0.1099999999999992
 31
-0.1905255888325769
 12
-0.63
 22
0.0000000000000002
 32
-0.0500000000000002
 13
-0.63
 23
0.0000000000000002
 33
-0.0500000000000002
  0
3DFACE
  5
E95
  8
WHEELS
 10
-0.59
 20
0.22
 30
-0.0000000000000013
 11
-0.59
 21
0.1905255888325767
 31
0.1099999999999972
 12
-0.59
 22
0.0500000000000001
 32
-0.0000000000000013
 13
-0.59
 23
0.0500000000000001
 33
-0.0000000000000013
  0
3DFACE
  5
E96
  8
WHEELS
 10
-0.59
 20
0.1100000000000001
 30
0.1905255888325743
 11
-0.59
 21
0.0000000000000002
 31
0.2199999999999967
 12
-0.59
 22
0.0000000000000002
 32
0.0499999999999986
 13
-0.59
 23
0.0353553390593275
 33
0.0353553390593252
  0
3DFACE
  5
E97
  8
WHEELS
 10
-0.59
 20
0.1905255888325767
 30
0.1099999999999972
 11
-0.59
 21
0.1100000000000001
 31
0.1905255888325743
 12
-0.59
 22
0.0353553390593275
 32
0.0353553390593252
 13
-0.59
 23
0.0500000000000001
 33
-0.0000000000000013
  0
3DFACE
  5
E98
  8
WHEELS
 10
-0.59
 20
-0.0000000000000007
 30
-0.2199999999999993
 11
-0.59
 21
0.1099999999999996
 31
-0.1905255888325769
 12
-0.59
 22
-0.0000000000000007
 32
-0.0500000000000011
 13
-0.59
 23
-0.0000000000000007
 33
-0.0500000000000011
  0
3DFACE
  5
E99
  8
WHEELS
 10
-0.59
 20
0.1905255888325767
 30
-0.1099999999999998
 11
-0.59
 21
0.2199999999999991
 31
-0.0000000000000004
 12
-0.59
 22
0.0500000000000009
 32
-0.0000000000000004
 13
-0.59
 23
0.0353553390593275
 33
-0.0353553390593277
  0
3DFACE
  5
E9A
  8
WHEELS
 10
-0.59
 20
0.1099999999999996
 30
-0.1905255888325769
 11
-0.59
 21
0.1905255888325767
 31
-0.1099999999999998
 12
-0.59
 22
0.0353553390593275
 32
-0.0353553390593277
 13
-0.59
 23
-0.0000000000000007
 33
-0.0500000000000011
  0
3DFACE
  5
E9B
  8
WHEELS
 10
-0.5600000000000001
 20
0.1150000000000004
 30
0.1991858428704183
 11
-0.5600000000000001
 21
0.0000000000000002
 31
0.2299999999999982
 12
-0.5600000000000001
 22
0.0000000000000002
 32
0.2199999999999967
 13
-0.5600000000000001
 23
0.1100000000000001
 33
0.1905255888325743
  0
3DFACE
  5
E9C
  8
WHEELS
 10
-0.5600000000000001
 20
-0.0000000000000002
 30
-0.2300000000000008
 11
-0.5600000000000001
 21
0.1150000000000004
 31
-0.1991858428704209
 12
-0.5600000000000001
 22
0.1099999999999996
 32
-0.1905255888325751
 13
-0.5600000000000001
 23
0.0000000000000002
 33
-0.2199999999999993
  0
3DFACE
  5
E9D
  8
WHEELS
 10
-0.6
 20
0.115
 30
0.1991858428704201
 11
-0.6
 21
0.0000000000000002
 31
0.23
 12
-0.5600000000000001
 22
0.0000000000000002
 32
0.23
 13
-0.5600000000000001
 23
0.115
 33
0.1991858428704201
  0
3DFACE
  5
E9E
  8
WHEELS
 10
-0.6
 20
0.0000000000000002
 30
-0.2300000000000008
 11
-0.6
 21
0.115
 31
-0.1991858428704209
 12
-0.5600000000000001
 22
0.115
 32
-0.1991858428704209
 13
-0.5600000000000001
 23
0.0000000000000002
 33
-0.2300000000000008
  0
3DFACE
  5
E9F
  8
WHEELS
 10
-0.59
 20
0.0000000000000002
 30
0.2199999999999985
 11
-0.59
 21
0.1100000000000001
 31
0.1905255888325761
 12
-0.5600000000000001
 22
0.1100000000000001
 32
0.1905255888325761
 13
-0.5600000000000001
 23
0.0000000000000002
 33
0.2199999999999985
  0
3DFACE
  5
EA0
  8
WHEELS
 10
-0.59
 20
0.1100000000000001
 30
-0.1905255888325769
 11
-0.59
 21
0.0000000000000002
 31
-0.2199999999999993
 12
-0.5600000000000001
 22
0.0000000000000002
 32
-0.2199999999999993
 13
-0.5600000000000001
 23
0.1100000000000001
 33
-0.1905255888325769
  0
3DFACE
  5
EA1
  8
WHEELS
 10
-0.59
 20
-0.1905255888325763
 30
0.109999999999999
 11
-0.59
 21
-0.2199999999999986
 31
-0.0000000000000004
 12
-0.59
 22
-0.0500000000000005
 32
-0.0000000000000004
 13
-0.59
 23
-0.0353553390593271
 33
0.0353553390593269
  0
3DFACE
  5
EA2
  8
WHEELS
 10
-0.57
 20
-0.0353553390593271
 30
0.0353553390593269
 11
-0.57
 21
-0.0500000000000005
 31
-0.0000000000000004
 12
-0.57
 22
-0.0199999999999994
 32
-0.0000000000000004
 13
-0.57
 23
-0.0141421356237304
 33
0.0141421356237302
  0
3DFACE
  5
EA3
  8
WHEELS
 10
-0.5700000000000001
 20
0.0499999999999992
 30
-0.0000000000000004
 11
-0.5700000000000001
 21
0.0353553390593275
 31
0.0353553390593287
 12
-0.5700000000000001
 22
0.0141421356237308
 32
0.0141421356237302
 13
-0.5700000000000001
 23
0.0199999999999998
 33
-0.0000000000000004
  0
3DFACE
  5
EA4
  8
WHEELS
 10
-0.5600000000000001
 20
-0.1991858428704203
 30
0.1149999999999998
 11
-0.5600000000000001
 21
-0.2300000000000002
 31
-0.0000000000000004
 12
-0.5600000000000001
 22
-0.2199999999999986
 32
-0.0000000000000004
 13
-0.5600000000000001
 23
-0.1905255888325763
 33
0.109999999999999
  0
3DFACE
  5
EA5
  8
WHEELS
 10
-0.57
 20
-0.0141421356237312
 30
0.0141421356237302
 11
-0.57
 21
-0.0200000000000003
 31
-0.0000000000000004
 12
-0.47
 22
-0.0200000000000003
 32
-0.0000000000000004
 13
-0.47
 23
-0.0141421356237312
 33
0.0141421356237302
  0
3DFACE
  5
EA6
  8
WHEELS
 10
-0.57
 20
0.0199999999999998
 30
-0.0000000000000004
 11
-0.57
 21
0.0141421356237308
 31
0.0141421356237302
 12
-0.47
 22
0.0141421356237308
 32
0.0141421356237302
 13
-0.47
 23
0.0199999999999998
 33
-0.0000000000000004
  0
3DFACE
  5
EA7
  8
WHEELS
 10
-0.59
 20
-0.0353553390593271
 30
0.0353553390593269
 11
-0.59
 21
-0.0500000000000001
 31
-0.0000000000000004
 12
-0.57
 22
-0.0500000000000001
 32
-0.0000000000000004
 13
-0.57
 23
-0.0353553390593271
 33
0.0353553390593269
  0
3DFACE
  5
EA8
  8
WHEELS
 10
-0.59
 20
0.0500000000000001
 30
-0.0000000000000004
 11
-0.59
 21
0.0353553390593275
 31
0.0353553390593269
 12
-0.57
 22
0.0353553390593275
 32
0.0353553390593269
 13
-0.57
 23
0.0500000000000001
 33
-0.0000000000000004
  0
3DFACE
  5
EA9
  8
WHEELS
 10
-0.6
 20
-0.1991858428704212
 30
0.1149999999999998
 11
-0.6
 21
-0.2300000000000002
 31
-0.0000000000000004
 12
-0.5600000000000001
 22
-0.2300000000000002
 32
-0.0000000000000004
 13
-0.5600000000000001
 23
-0.1991858428704212
 33
0.1149999999999998
  0
3DFACE
  5
EAA
  8
WHEELS
 10
-0.59
 20
-0.22
 30
-0.0000000000000004
 11
-0.59
 21
-0.1905255888325763
 31
0.109999999999999
 12
-0.5600000000000001
 22
-0.1905255888325763
 32
0.109999999999999
 13
-0.5600000000000001
 23
-0.22
 33
-0.0000000000000004
  0
3DFACE
  5
EAB
  8
WHEELS
 10
-0.59
 20
0.0000000000000002
 30
0.2199999999999985
 11
-0.59
 21
-0.1099999999999992
 31
0.1905255888325761
 12
-0.59
 22
0.0000000000000002
 32
0.0500000000000003
 13
-0.59
 23
0.0000000000000002
 33
0.0500000000000003
  0
3DFACE
  5
EAC
  8
WHEELS
 10
-0.59
 20
-0.1099999999999992
 30
0.1905255888325761
 11
-0.59
 21
-0.1905255888325763
 31
0.109999999999999
 12
-0.59
 22
-0.0353553390593271
 32
0.0353553390593269
 13
-0.59
 23
0.0000000000000002
 33
0.0500000000000003
  0
3DFACE
  5
EAD
  8
WHEELS
 10
-0.57
 20
0.0000000000000002
 30
0.0499999999999986
 11
-0.57
 21
-0.035355339059328
 31
0.0353553390593269
 12
-0.57
 22
-0.0141421356237304
 32
0.0141421356237302
 13
-0.57
 23
0.0000000000000002
 33
0.0199999999999992
  0
3DFACE
  5
EAE
  8
WHEELS
 10
-0.57
 20
0.0353553390593275
 30
0.0353553390593252
 11
-0.57
 21
0.0000000000000002
 31
0.0499999999999986
 12
-0.57
 22
0.0000000000000002
 32
0.0199999999999983
 13
-0.57
 23
0.0141421356237308
 33
0.0141421356237293
  0
3DFACE
  5
EAF
  8
WHEELS
 10
-0.5600000000000001
 20
-0.1149999999999991
 30
0.1991858428704201
 11
-0.5600000000000001
 21
-0.1991858428704203
 31
0.1149999999999998
 12
-0.5600000000000001
 22
-0.1905255888325745
 32
0.109999999999999
 13
-0.5600000000000001
 23
-0.1099999999999992
 33
0.1905255888325743
  0
3DFACE
  5
EB0
  8
WHEELS
 10
-0.5600000000000001
 20
0.0000000000000011
 30
0.23
 11
-0.5600000000000001
 21
-0.1149999999999991
 31
0.1991858428704201
 12
-0.5600000000000001
 22
-0.1099999999999983
 32
0.1905255888325743
 13
-0.5600000000000001
 23
0.0000000000000011
 33
0.2200000000000002
  0
3DFACE
  5
EB1
  8
WHEELS
 10
-0.57
 20
0.0000000000000002
 30
0.0199999999999992
 11
-0.57
 21
-0.0141421356237312
 31
0.0141421356237302
 12
-0.47
 22
-0.0141421356237312
 32
0.0141421356237302
 13
-0.47
 23
0.0000000000000002
 33
0.0199999999999992
  0
3DFACE
  5
EB2
  8
WHEELS
 10
-0.57
 20
0.0141421356237308
 30
0.0141421356237302
 11
-0.57
 21
0.0000000000000002
 31
0.0199999999999992
 12
-0.47
 22
0.0000000000000002
 32
0.0199999999999992
 13
-0.47
 23
0.0141421356237308
 33
0.0141421356237302
  0
3DFACE
  5
EB3
  8
WHEELS
 10
-0.6
 20
-0.115
 30
0.1991858428704201
 11
-0.6
 21
-0.1991858428704212
 31
0.1149999999999998
 12
-0.5600000000000001
 22
-0.1991858428704212
 32
0.1149999999999998
 13
-0.5600000000000001
 23
-0.115
 33
0.1991858428704201
  0
3DFACE
  5
EB4
  8
WHEELS
 10
-0.6
 20
0.0000000000000002
 30
0.23
 11
-0.6
 21
-0.115
 31
0.1991858428704201
 12
-0.5600000000000001
 22
-0.115
 32
0.1991858428704201
 13
-0.5600000000000001
 23
0.0000000000000002
 33
0.23
  0
3DFACE
  5
EB5
  8
WHEELS
 10
-0.59
 20
-0.1100000000000001
 30
0.1905255888325761
 11
-0.59
 21
0.0000000000000002
 31
0.2199999999999985
 12
-0.5600000000000001
 22
0.0000000000000002
 32
0.2199999999999985
 13
-0.5600000000000001
 23
-0.1100000000000001
 33
0.1905255888325761
  0
3DFACE
  5
EB6
  8
WHEELS
 10
-0.59
 20
-0.1905255888325763
 30
0.109999999999999
 11
-0.59
 21
-0.1100000000000001
 31
0.1905255888325761
 12
-0.5600000000000001
 22
-0.1100000000000001
 32
0.1905255888325761
 13
-0.5600000000000001
 23
-0.1905255888325763
 33
0.109999999999999
  0
3DFACE
  5
EB7
  8
WHEELS
 10
-0.59
 20
0.0000000000000002
 30
0.0500000000000003
 11
-0.59
 21
-0.0353553390593271
 31
0.0353553390593269
 12
-0.57
 22
-0.0353553390593271
 32
0.0353553390593269
 13
-0.57
 23
0.0000000000000002
 33
0.0500000000000003
  0
3DFACE
  5
EB8
  8
WHEELS
 10
-0.59
 20
0.0353553390593275
 30
0.0353553390593269
 11
-0.59
 21
0.0000000000000002
 31
0.0500000000000003
 12
-0.57
 22
0.0000000000000002
 32
0.0500000000000003
 13
-0.57
 23
0.0353553390593275
 33
0.0353553390593269
  0
3DFACE
  5
EB9
  8
WHEELS
 10
-0.57
 20
-0.0499999999999987
 30
-0.0000000000000004
 11
-0.57
 21
-0.035355339059328
 31
-0.0353553390593295
 12
-0.57
 22
-0.0141421356237304
 32
-0.014142135623731
 13
-0.57
 23
-0.0199999999999994
 33
-0.0000000000000004
  0
3DFACE
  5
EBA
  8
WHEELS
 10
-0.57
 20
0.0353553390593275
 30
-0.0353553390593277
 11
-0.57
 21
0.0500000000000009
 31
-0.0000000000000004
 12
-0.57
 22
0.0199999999999989
 32
-0.0000000000000004
 13
-0.57
 23
0.0141421356237299
 33
-0.014142135623731
  0
3DFACE
  5
EBB
  8
WHEELS
 10
-0.57
 20
-0.0000000000000007
 30
-0.0500000000000011
 11
-0.57
 21
0.0353553390593284
 31
-0.0353553390593295
 12
-0.57
 22
0.0141421356237308
 32
-0.014142135623731
 13
-0.57
 23
0.0000000000000002
 33
-0.02
  0
3DFACE
  5
EBC
  8
WHEELS
 10
-0.5600000000000001
 20
-0.1991858428704203
 30
-0.1150000000000006
 11
-0.5600000000000001
 21
-0.115
 31
-0.1991858428704209
 12
-0.5600000000000001
 22
-0.1099999999999992
 32
-0.1905255888325751
 13
-0.5600000000000001
 23
-0.1905255888325754
 33
-0.1099999999999998
  0
3DFACE
  5
EBD
  8
WHEELS
 10
-0.5600000000000001
 20
-0.2299999999999993
 30
-0.0000000000000004
 11
-0.5600000000000001
 21
-0.1991858428704203
 31
-0.1150000000000006
 12
-0.5600000000000001
 22
-0.1905255888325745
 32
-0.1099999999999998
 13
-0.5600000000000001
 23
-0.2199999999999995
 33
-0.0000000000000004
  0
3DFACE
  5
EBE
  8
WHEELS
 10
-0.59
 20
-0.22
 30
-0.0000000000000004
 11
-0.59
 21
-0.1905255888325763
 31
-0.1099999999999998
 12
-0.59
 22
-0.0500000000000001
 32
-0.0000000000000004
 13
-0.59
 23
-0.0500000000000001
 33
-0.0000000000000004
  0
3DFACE
  5
EBF
  8
WHEELS
 10
-0.59
 20
-0.1905255888325763
 30
-0.1099999999999998
 11
-0.59
 21
-0.1100000000000001
 31
-0.1905255888325769
 12
-0.59
 22
-0.0353553390593271
 32
-0.0353553390593277
 13
-0.59
 23
-0.0500000000000001
 33
-0.0000000000000004
  0
3DFACE
  5
EC0
  8
WHEELS
 10
-0.5600000000000001
 20
-0.115
 30
-0.1991858428704209
 11
-0.5600000000000001
 21
0.0000000000000002
 31
-0.2300000000000008
 12
-0.5600000000000001
 22
0.0000000000000002
 32
-0.2199999999999993
 13
-0.5600000000000001
 23
-0.1100000000000001
 33
-0.1905255888325769
  0
3DFACE
  5
EC1
  8
WHEELS
 10
-0.59
 20
-0.1100000000000001
 30
-0.1905255888325769
 11
-0.59
 21
0.0000000000000002
 31
-0.2199999999999993
 12
-0.59
 22
0.0000000000000002
 32
-0.0500000000000011
 13
-0.59
 23
-0.0353553390593271
 33
-0.0353553390593277
  0
3DFACE
  5
EC2
  8
WHEELS
 10
-0.57
 20
-0.0353553390593271
 30
-0.0353553390593277
 11
-0.57
 21
0.0000000000000002
 31
-0.0500000000000011
 12
-0.57
 22
0.0000000000000002
 32
-0.02
 13
-0.57
 23
-0.0141421356237312
 33
-0.014142135623731
  0
3DFACE
  5
EC3
  8
WHEELS
 10
-0.57
 20
0.0141421356237308
 30
-0.014142135623731
 11
-0.57
 21
0.0199999999999998
 31
-0.0000000000000004
 12
-0.47
 22
0.0199999999999998
 32
-0.0000000000000004
 13
-0.47
 23
0.0141421356237308
 33
-0.014142135623731
  0
3DFACE
  5
EC4
  8
WHEELS
 10
-0.57
 20
0.0000000000000002
 30
-0.02
 11
-0.57
 21
0.0141421356237308
 31
-0.014142135623731
 12
-0.47
 22
0.0141421356237308
 32
-0.014142135623731
 13
-0.47
 23
0.0000000000000002
 33
-0.02
  0
3DFACE
  5
EC5
  8
WHEELS
 10
-0.57
 20
-0.0141421356237312
 30
-0.014142135623731
 11
-0.57
 21
0.0000000000000002
 31
-0.02
 12
-0.47
 22
0.0000000000000002
 32
-0.02
 13
-0.47
 23
-0.0141421356237312
 33
-0.014142135623731
  0
3DFACE
  5
EC6
  8
WHEELS
 10
-0.57
 20
-0.0200000000000003
 30
-0.0000000000000004
 11
-0.57
 21
-0.0141421356237312
 31
-0.014142135623731
 12
-0.47
 22
-0.0141421356237312
 32
-0.014142135623731
 13
-0.47
 23
-0.0200000000000003
 33
-0.0000000000000004
  0
3DFACE
  5
EC7
  8
WHEELS
 10
-0.59
 20
0.0353553390593275
 30
-0.0353553390593277
 11
-0.59
 21
0.0500000000000001
 31
-0.0000000000000004
 12
-0.57
 22
0.0500000000000001
 32
-0.0000000000000004
 13
-0.57
 23
0.0353553390593275
 33
-0.0353553390593277
  0
3DFACE
  5
EC8
  8
WHEELS
 10
-0.59
 20
0.0000000000000002
 30
-0.0500000000000011
 11
-0.59
 21
0.0353553390593275
 31
-0.0353553390593277
 12
-0.57
 22
0.0353553390593275
 32
-0.0353553390593277
 13
-0.57
 23
0.0000000000000002
 33
-0.0500000000000011
  0
3DFACE
  5
EC9
  8
WHEELS
 10
-0.59
 20
-0.0353553390593271
 30
-0.0353553390593277
 11
-0.59
 21
0.0000000000000002
 31
-0.0500000000000011
 12
-0.57
 22
0.0000000000000002
 32
-0.0500000000000011
 13
-0.57
 23
-0.0353553390593271
 33
-0.0353553390593277
  0
3DFACE
  5
ECA
  8
WHEELS
 10
-0.59
 20
-0.0500000000000001
 30
-0.0000000000000004
 11
-0.59
 21
-0.0353553390593271
 31
-0.0353553390593277
 12
-0.57
 22
-0.0353553390593271
 32
-0.0353553390593277
 13
-0.57
 23
-0.0500000000000001
 33
-0.0000000000000004
  0
3DFACE
  5
ECB
  8
WHEELS
 10
-0.6
 20
-0.115
 30
-0.1991858428704209
 11
-0.6
 21
0.0000000000000002
 31
-0.2300000000000008
 12
-0.5600000000000001
 22
0.0000000000000002
 32
-0.2300000000000008
 13
-0.5600000000000001
 23
-0.115
 33
-0.1991858428704209
  0
3DFACE
  5
ECC
  8
WHEELS
 10
-0.6
 20
-0.1991858428704212
 30
-0.1150000000000006
 11
-0.6
 21
-0.115
 31
-0.1991858428704209
 12
-0.5600000000000001
 22
-0.115
 32
-0.1991858428704209
 13
-0.5600000000000001
 23
-0.1991858428704212
 33
-0.1150000000000006
  0
3DFACE
  5
ECD
  8
WHEELS
 10
-0.6
 20
-0.2300000000000002
 30
-0.0000000000000004
 11
-0.6
 21
-0.1991858428704212
 31
-0.1150000000000006
 12
-0.5600000000000001
 22
-0.1991858428704212
 32
-0.1150000000000006
 13
-0.5600000000000001
 23
-0.2300000000000002
 33
-0.0000000000000004
  0
3DFACE
  5
ECE
  8
WHEELS
 10
-0.59
 20
-0.1905255888325763
 30
-0.1099999999999998
 11
-0.59
 21
-0.22
 31
-0.0000000000000004
 12
-0.5600000000000001
 22
-0.22
 32
-0.0000000000000004
 13
-0.5600000000000001
 23
-0.1905255888325763
 33
-0.1099999999999998
  0
3DFACE
  5
ECF
  8
WHEELS
 10
-0.59
 20
-0.1100000000000001
 30
-0.1905255888325769
 11
-0.59
 21
-0.1905255888325763
 31
-0.1099999999999998
 12
-0.5600000000000001
 22
-0.1905255888325763
 32
-0.1099999999999998
 13
-0.5600000000000001
 23
-0.1100000000000001
 33
-0.1905255888325769
  0
3DFACE
  5
ED0
  8
WHEELS
 10
-0.59
 20
0.0000000000000002
 30
-0.2199999999999993
 11
-0.59
 21
-0.1100000000000001
 31
-0.1905255888325769
 12
-0.5600000000000001
 22
-0.1100000000000001
 32
-0.1905255888325769
 13
-0.5600000000000001
 23
0.0000000000000002
 33
-0.2199999999999993
  0
3DFACE
  5
ED1
  8
WHEELS
 10
-0.5600000000000001
 20
0.2299999999999989
 30
-0.0000000000000004
 11
-0.5600000000000001
 21
0.1991858428704198
 31
0.1150000000000016
 12
-0.5600000000000001
 22
0.1905255888325741
 32
0.109999999999999
 13
-0.5600000000000001
 23
0.2199999999999991
 33
0.0000000000000005
  0
3DFACE
  5
ED2
  8
WHEELS
 10
-0.6
 20
0.2299999999999998
 30
-0.0000000000000004
 11
-0.6
 21
0.1991858428704207
 31
0.1149999999999998
 12
-0.5600000000000001
 22
0.1991858428704207
 32
0.1149999999999998
 13
-0.5600000000000001
 23
0.2299999999999998
 33
-0.0000000000000004
  0
3DFACE
  5
ED3
  8
WHEELS
 10
-0.59
 20
0.1905255888325767
 30
0.109999999999999
 11
-0.59
 21
0.22
 31
-0.0000000000000004
 12
-0.5600000000000001
 22
0.22
 32
-0.0000000000000004
 13
-0.5600000000000001
 23
0.1905255888325767
 33
0.109999999999999
  0
3DFACE
  5
ED4
  8
WHEELS
 10
-0.5600000000000001
 20
0.1991858428704207
 30
0.1149999999999998
 11
-0.5600000000000001
 21
0.1150000000000004
 31
0.1991858428704201
 12
-0.5600000000000001
 22
0.1099999999999996
 32
0.1905255888325743
 13
-0.5600000000000001
 23
0.1905255888325759
 33
0.109999999999999
  0
3DFACE
  5
ED5
  8
WHEELS
 10
-0.6
 20
0.1991858428704207
 30
0.1149999999999998
 11
-0.6
 21
0.115
 31
0.1991858428704201
 12
-0.5600000000000001
 22
0.115
 32
0.1991858428704201
 13
-0.5600000000000001
 23
0.1991858428704207
 33
0.1149999999999998
  0
3DFACE
  5
ED6
  8
WHEELS
 10
-0.59
 20
0.1100000000000001
 30
0.1905255888325761
 11
-0.59
 21
0.1905255888325767
 31
0.109999999999999
 12
-0.5600000000000001
 22
0.1905255888325767
 32
0.109999999999999
 13
-0.5600000000000001
 23
0.1100000000000001
 33
0.1905255888325761
  0
3DFACE
  5
ED7
  8
WHEELS
 10
-0.5600000000000001
 20
0.1991858428704207
 30
-0.1150000000000006
 11
-0.5600000000000001
 21
0.2300000000000006
 31
-0.0000000000000004
 12
-0.5600000000000001
 22
0.2199999999999991
 32
-0.0000000000000004
 13
-0.5600000000000001
 23
0.1905255888325767
 33
-0.1099999999999998
  0
3DFACE
  5
ED8
  8
WHEELS
 10
-0.5600000000000001
 20
0.1149999999999995
 30
-0.1991858428704209
 11
-0.5600000000000001
 21
0.1991858428704207
 31
-0.1150000000000006
 12
-0.5600000000000001
 22
0.190525588832575
 32
-0.1099999999999998
 13
-0.5600000000000001
 23
0.1099999999999988
 33
-0.1905255888325769
  0
3DFACE
  5
ED9
  8
WHEELS
 10
-0.6
 20
0.1991858428704207
 30
-0.1150000000000006
 11
-0.6
 21
0.2299999999999998
 31
-0.0000000000000004
 12
-0.5600000000000001
 22
0.2299999999999998
 32
-0.0000000000000004
 13
-0.5600000000000001
 23
0.1991858428704207
 33
-0.1150000000000006
  0
3DFACE
  5
EDA
  8
WHEELS
 10
-0.6
 20
0.115
 30
-0.1991858428704209
 11
-0.6
 21
0.1991858428704207
 31
-0.1150000000000006
 12
-0.5600000000000001
 22
0.1991858428704207
 32
-0.1150000000000006
 13
-0.5600000000000001
 23
0.115
 33
-0.1991858428704209
  0
3DFACE
  5
EDB
  8
WHEELS
 10
-0.59
 20
0.1905255888325767
 30
-0.1099999999999998
 11
-0.59
 21
0.1100000000000001
 31
-0.1905255888325769
 12
-0.5600000000000001
 22
0.1100000000000001
 32
-0.1905255888325769
 13
-0.5600000000000001
 23
0.1905255888325767
 33
-0.1099999999999998
  0
3DFACE
  5
EDC
  8
WHEELS
 10
-0.59
 20
0.22
 30
-0.0000000000000004
 11
-0.59
 21
0.1905255888325767
 31
-0.1099999999999998
 12
-0.5600000000000001
 22
0.1905255888325767
 32
-0.1099999999999998
 13
-0.5600000000000001
 23
0.22
 33
-0.0000000000000004
  0
3DFACE
  5
EDD
  8
WHEELS
 10
-0.6
 20
0.0000000000000002
 30
-0.02
 11
-0.6
 21
-0.0141421356237312
 31
-0.0141421356237292
 12
-0.6200000000000001
 22
-0.0141421356237312
 32
-0.0141421356237292
 13
-0.6200000000000001
 23
0.0000000000000002
 33
-0.02
  0
3DFACE
  5
EDE
  8
WHEELS
 10
-0.6
 20
-0.0141421356237312
 30
-0.0141421356237292
 11
-0.6
 21
-0.0200000000000003
 31
-0.0000000000000004
 12
-0.6200000000000001
 22
-0.0200000000000003
 32
-0.0000000000000004
 13
-0.6200000000000001
 23
-0.0141421356237312
 33
-0.0141421356237292
  0
3DFACE
  5
EDF
  8
WHEELS
 10
-0.6
 20
0.0199999999999998
 30
-0.0000000000000004
 11
-0.6
 21
0.0141421356237308
 31
-0.0141421356237292
 12
-0.6200000000000001
 22
0.0141421356237308
 32
-0.0141421356237292
 13
-0.6200000000000001
 23
0.0199999999999998
 33
-0.0000000000000004
  0
3DFACE
  5
EE0
  8
WHEELS
 10
-0.6
 20
0.0141421356237308
 30
-0.0141421356237292
 11
-0.6
 21
0.0000000000000002
 31
-0.02
 12
-0.6200000000000001
 22
0.0000000000000002
 32
-0.02
 13
-0.6200000000000001
 23
0.0141421356237308
 33
-0.0141421356237292
  0
3DFACE
  5
EE1
  8
WHEELS
 10
-0.6
 20
0.0141421356237308
 30
0.014142135623732
 11
-0.6
 21
0.0199999999999998
 31
-0.0000000000000004
 12
-0.6200000000000001
 22
0.0199999999999998
 32
-0.0000000000000004
 13
-0.6200000000000001
 23
0.0141421356237308
 33
0.014142135623732
  0
3DFACE
  5
EE2
  8
WHEELS
 10
-0.6
 20
0.0000000000000002
 30
0.0199999999999992
 11
-0.6
 21
0.0141421356237308
 31
0.014142135623732
 12
-0.6200000000000001
 22
0.0141421356237308
 32
0.014142135623732
 13
-0.6200000000000001
 23
0.0000000000000002
 33
0.0199999999999992
  0
3DFACE
  5
EE3
  8
WHEELS
 10
-0.6
 20
-0.0141421356237312
 30
0.014142135623732
 11
-0.6
 21
0.0000000000000002
 31
0.0199999999999992
 12
-0.6200000000000001
 22
0.0000000000000002
 32
0.0199999999999992
 13
-0.6200000000000001
 23
-0.0141421356237312
 33
0.014142135623732
  0
3DFACE
  5
EE4
  8
WHEELS
 10
-0.6
 20
-0.0200000000000003
 30
-0.0000000000000004
 11
-0.6
 21
-0.0141421356237312
 31
0.014142135623732
 12
-0.6200000000000001
 22
-0.0141421356237312
 32
0.014142135623732
 13
-0.6200000000000001
 23
-0.0200000000000003
 33
-0.0000000000000004
  0
3DFACE
  5
EE5
  8
WHEELS
 10
-0.6200000000000001
 20
-0.0141421356237312
 30
0.014142135623732
 11
-0.6200000000000001
 21
0.0000000000000002
 31
0.0199999999999992
 12
-0.6200000000000001
 22
0.0000000000000002
 32
0.23
 13
-0.6200000000000001
 23
-0.115
 33
0.1991858428704201
  0
3DFACE
  5
EE6
  8
WHEELS
 10
-0.6200000000000001
 20
0.0000000000000002
 30
0.0199999999999992
 11
-0.6200000000000001
 21
0.0141421356237308
 31
0.014142135623732
 12
-0.6200000000000001
 22
0.115
 32
0.1991858428704201
 13
-0.6200000000000001
 23
0.0000000000000002
 33
0.23
  0
3DFACE
  5
EE7
  8
WHEELS
 10
-0.6200000000000001
 20
-0.0141421356237312
 30
0.014142135623732
 11
-0.6200000000000001
 21
-0.0141421356237312
 31
0.014142135623732
 12
-0.6200000000000001
 22
-0.115
 32
0.1991858428704201
 13
-0.6200000000000001
 23
-0.1991858428704212
 33
0.1150000000000016
  0
3DFACE
  5
EE8
  8
WHEELS
 10
-0.6200000000000001
 20
0.0141421356237326
 30
0.0141421356237302
 11
-0.6200000000000001
 21
0.0141421356237326
 31
0.0141421356237302
 12
-0.6200000000000001
 22
0.1991858428704207
 32
0.114999999999998
 13
-0.6200000000000001
 23
0.1150000000000022
 33
0.1991858428704201
  0
3DFACE
  5
EE9
  8
WHEELS
 10
-0.6200000000000001
 20
0.0141421356237326
 30
0.0141421356237302
 11
-0.6200000000000001
 21
0.0199999999999998
 31
-0.0000000000000004
 12
-0.6200000000000001
 22
0.2300000000000006
 32
-0.0000000000000004
 13
-0.6200000000000001
 23
0.1991858428704207
 33
0.114999999999998
  0
3DFACE
  5
EEA
  8
WHEELS
 10
-0.6200000000000001
 20
0.0199999999999998
 30
-0.0000000000000004
 11
-0.6200000000000001
 21
0.0141421356237326
 31
-0.0141421356237327
 12
-0.6200000000000001
 22
0.1991858428704207
 32
-0.1150000000000006
 13
-0.6200000000000001
 23
0.2300000000000006
 33
-0.0000000000000004
  0
3DFACE
  5
EEB
  8
WHEELS
 10
-0.6200000000000001
 20
0.0141421356237308
 30
-0.014142135623731
 11
-0.6200000000000001
 21
0.0141421356237308
 31
-0.014142135623731
 12
-0.6200000000000001
 22
0.1149999999999995
 32
-0.1991858428704191
 13
-0.6200000000000001
 23
0.1991858428704207
 33
-0.1150000000000006
  0
3DFACE
  5
EEC
  8
WHEELS
 10
-0.6200000000000001
 20
0.0141421356237308
 30
-0.014142135623731
 11
-0.6200000000000001
 21
-0.0000000000000002
 31
-0.0199999999999982
 12
-0.6200000000000001
 22
-0.0000000000000007
 32
-0.229999999999999
 13
-0.6200000000000001
 23
0.1149999999999995
 33
-0.1991858428704191
  0
3DFACE
  5
EED
  8
WHEELS
 10
-0.6200000000000001
 20
-0.0000000000000002
 30
-0.0199999999999982
 11
-0.6200000000000001
 21
-0.0141421356237312
 31
-0.014142135623731
 12
-0.6200000000000001
 22
-0.115
 32
-0.1991858428704209
 13
-0.6200000000000001
 23
-0.0000000000000002
 33
-0.229999999999999
  0
3DFACE
  5
EEE
  8
WHEELS
 10
-0.6200000000000001
 20
-0.0141421356237321
 30
-0.014142135623731
 11
-0.6200000000000001
 21
-0.0141421356237321
 31
-0.014142135623731
 12
-0.6200000000000001
 22
-0.1991858428704203
 32
-0.1150000000000006
 13
-0.6200000000000001
 23
-0.1150000000000018
 33
-0.1991858428704209
  0
3DFACE
  5
EEF
  8
WHEELS
 10
-0.6200000000000001
 20
-0.0141421356237321
 30
-0.014142135623731
 11
-0.6200000000000001
 21
-0.0199999999999994
 31
-0.0000000000000004
 12
-0.6200000000000001
 22
-0.2300000000000002
 32
-0.0000000000000004
 13
-0.6200000000000001
 23
-0.1991858428704203
 33
-0.1150000000000006
  0
3DFACE
  5
EF0
  8
WHEELS
 10
-0.6200000000000001
 20
-0.0199999999999994
 30
-0.0000000000000004
 11
-0.6200000000000001
 21
-0.0141421356237321
 31
0.0141421356237302
 12
-0.6200000000000001
 22
-0.1991858428704203
 32
0.1149999999999998
 13
-0.6200000000000001
 23
-0.2300000000000002
 33
-0.0000000000000004
  0
3DFACE
  5
EF1
  8
WHEELS
 10
-0.6000000000000001
 20
0.0141421356237308
 30
0.0141421356237302
 11
-0.6000000000000001
 21
-0.0000000000000002
 31
0.0199999999999974
 12
-0.6000000000000001
 22
-0.0000000000000007
 32
0.2299999999999982
 13
-0.6000000000000001
 23
0.1149999999999995
 33
0.1991858428704183
  0
3DFACE
  5
EF2
  8
WHEELS
 10
-0.6000000000000001
 20
0.0141421356237308
 30
0.0141421356237302
 11
-0.6000000000000001
 21
0.0141421356237308
 31
0.0141421356237302
 12
-0.6000000000000001
 22
0.1149999999999995
 32
0.1991858428704183
 13
-0.6000000000000001
 23
0.1991858428704207
 33
0.1149999999999998
  0
3DFACE
  5
EF3
  8
WHEELS
 10
-0.6000000000000001
 20
0.0199999999999998
 30
-0.0000000000000004
 11
-0.6000000000000001
 21
0.0141421356237326
 31
0.014142135623732
 12
-0.6000000000000001
 22
0.1991858428704207
 32
0.1149999999999998
 13
-0.6000000000000001
 23
0.2300000000000006
 33
-0.0000000000000004
  0
3DFACE
  5
EF4
  8
WHEELS
 10
-0.6000000000000001
 20
0.0141421356237326
 30
-0.014142135623731
 11
-0.6000000000000001
 21
0.0199999999999998
 31
-0.0000000000000004
 12
-0.6000000000000001
 22
0.2300000000000006
 32
-0.0000000000000004
 13
-0.6000000000000001
 23
0.1991858428704207
 33
-0.1149999999999988
  0
3DFACE
  5
EF5
  8
WHEELS
 10
-0.6000000000000001
 20
0.0141421356237326
 30
-0.014142135623731
 11
-0.6000000000000001
 21
0.0141421356237326
 31
-0.014142135623731
 12
-0.6000000000000001
 22
0.1991858428704207
 32
-0.1149999999999988
 13
-0.6000000000000001
 23
0.1150000000000022
 33
-0.1991858428704209
  0
3DFACE
  5
EF6
  8
WHEELS
 10
-0.6000000000000001
 20
0.0000000000000002
 30
-0.02
 11
-0.6000000000000001
 21
0.0141421356237308
 31
-0.0141421356237327
 12
-0.6000000000000001
 22
0.115
 32
-0.1991858428704209
 13
-0.6000000000000001
 23
0.0000000000000002
 33
-0.2300000000000008
  0
3DFACE
  5
EF7
  8
WHEELS
 10
-0.6000000000000001
 20
-0.0141421356237321
 30
0.0141421356237302
 11
-0.6000000000000001
 21
-0.0199999999999994
 31
-0.0000000000000004
 12
-0.6000000000000001
 22
-0.2300000000000002
 32
-0.0000000000000004
 13
-0.6000000000000001
 23
-0.1991858428704203
 33
0.1149999999999998
  0
3DFACE
  5
EF8
  8
WHEELS
 10
-0.6000000000000001
 20
-0.0141421356237321
 30
0.0141421356237302
 11
-0.6000000000000001
 21
-0.0141421356237321
 31
0.0141421356237302
 12
-0.6000000000000001
 22
-0.1991858428704203
 32
0.1149999999999998
 13
-0.6000000000000001
 23
-0.1150000000000018
 33
0.1991858428704201
  0
3DFACE
  5
EF9
  8
WHEELS
 10
-0.6000000000000001
 20
-0.0000000000000002
 30
0.0199999999999974
 11
-0.6000000000000001
 21
-0.0141421356237312
 31
0.0141421356237302
 12
-0.6000000000000001
 22
-0.115
 32
0.1991858428704201
 13
-0.6000000000000001
 23
-0.0000000000000002
 33
0.2299999999999982
  0
3DFACE
  5
EFA
  8
WHEELS
 10
-0.6000000000000001
 20
-0.0199999999999994
 30
-0.0000000000000004
 11
-0.6000000000000001
 21
-0.0141421356237321
 31
-0.014142135623731
 12
-0.6000000000000001
 22
-0.1991858428704203
 32
-0.1150000000000006
 13
-0.6000000000000001
 23
-0.2300000000000002
 33
-0.0000000000000004
  0
3DFACE
  5
EFB
  8
WHEELS
 10
-0.6000000000000001
 20
-0.0141421356237312
 30
-0.0141421356237327
 11
-0.6000000000000001
 21
-0.0141421356237312
 31
-0.0141421356237327
 12
-0.6000000000000001
 22
-0.115
 32
-0.1991858428704209
 13
-0.6000000000000001
 23
-0.1991858428704212
 33
-0.1150000000000024
  0
3DFACE
  5
EFC
  8
WHEELS
 10
-0.6000000000000001
 20
-0.0141421356237312
 30
-0.0141421356237327
 11
-0.6000000000000001
 21
0.0000000000000002
 31
-0.02
 12
-0.6000000000000001
 22
0.0000000000000002
 32
-0.2300000000000008
 13
-0.6000000000000001
 23
-0.115
 33
-0.1991858428704209
  0
3DFACE
  5
EFD
  8
WHEELS
 10
-0.4699999999999999
 20
0.0199999999999998
 30
-0.0000000000000004
 11
-0.4699999999999999
 21
0.0141421356237308
 31
0.0141421356237302
 12
-0.47
 22
0.0000000000000002
 32
0.0199999999999992
 13
-0.47
 23
0.0141421356237308
 33
-0.014142135623731
  0
3DFACE
  5
EFE
  8
WHEELS
 10
-0.47
 20
0.0141421356237308
 30
-0.014142135623731
 11
-0.47
 21
0.0000000000000002
 31
0.0199999999999992
 12
-0.47
 22
-0.0141421356237312
 32
0.0141421356237302
 13
-0.47
 23
0.0000000000000002
 33
-0.02
  0
3DFACE
  5
EFF
  8
WHEELS
 10
-0.47
 20
0.0000000000000002
 30
-0.02
 11
-0.47
 21
-0.0141421356237312
 31
0.0141421356237302
 12
-0.47
 22
-0.0200000000000003
 32
-0.0000000000000004
 13
-0.47
 23
-0.0141421356237312
 33
-0.014142135623731
  0
3DFACE
  5
F00
  8
WHEELS
 10
-0.75
 20
0.0000000000000002
 30
0.0199999999999992
 11
-0.75
 21
-0.0141421356237312
 31
-0.014142135623731
 12
-0.75
 22
-0.0200000000000003
 32
-0.0000000000000004
 13
-0.75
 23
-0.0141421356237312
 33
0.0141421356237302
  0
3DFACE
  5
F01
  8
WHEELS
 10
-0.75
 20
0.0141421356237308
 30
0.0141421356237302
 11
-0.75
 21
0.0000000000000002
 31
-0.02
 12
-0.75
 22
-0.0141421356237312
 32
-0.014142135623731
 13
-0.75
 23
0.0000000000000002
 33
0.0199999999999992
  0
3DFACE
  5
F02
  8
WHEELS
 10
-0.75
 20
0.0199999999999998
 30
-0.0000000000000004
 11
-0.75
 21
0.0141421356237308
 31
-0.014142135623731
 12
-0.75
 22
0.0000000000000002
 32
-0.02
 13
-0.75
 23
0.0141421356237308
 33
0.0141421356237302
  0
3DFACE
  5
F04
  8
WHEELS
 10
0.59
 20
0.22
 30
0.0000000000000005
 11
0.59
 21
0.1905255888325767
 31
-0.109999999999998
 12
0.59
 22
0.0500000000000001
 32
0.0000000000000005
 13
0.59
 23
0.0500000000000001
 33
0.0000000000000005
  0
3DFACE
  5
F05
  8
WHEELS
 10
0.59
 20
0.1100000000000001
 30
-0.1905255888325751
 11
0.59
 21
0.0000000000000002
 31
-0.2199999999999975
 12
0.59
 22
0.0000000000000002
 32
-0.0499999999999993
 13
0.59
 23
0.0353553390593275
 33
-0.0353553390593259
  0
3DFACE
  5
F06
  8
WHEELS
 10
0.59
 20
0.1905255888325767
 30
-0.109999999999998
 11
0.59
 21
0.1100000000000001
 31
-0.1905255888325751
 12
0.59
 22
0.0353553390593275
 32
-0.0353553390593259
 13
0.59
 23
0.0500000000000001
 33
0.0000000000000005
  0
3DFACE
  5
F07
  8
WHEELS
 10
0.59
 20
-0.0000000000000007
 30
0.2199999999999985
 11
0.59
 21
0.1099999999999996
 31
0.1905255888325761
 12
0.59
 22
-0.0000000000000007
 32
0.0500000000000003
 13
0.59
 23
-0.0000000000000007
 33
0.0500000000000003
  0
3DFACE
  5
F08
  8
WHEELS
 10
0.59
 20
0.1905255888325767
 30
0.109999999999999
 11
0.59
 21
0.2199999999999991
 31
-0.0000000000000004
 12
0.59
 22
0.0500000000000009
 32
-0.0000000000000004
 13
0.59
 23
0.0353553390593275
 33
0.0353553390593269
  0
3DFACE
  5
F09
  8
WHEELS
 10
0.59
 20
0.1099999999999996
 30
0.1905255888325761
 11
0.59
 21
0.1905255888325767
 31
0.109999999999999
 12
0.59
 22
0.0353553390593275
 32
0.0353553390593269
 13
0.59
 23
-0.0000000000000007
 33
0.0500000000000003
  0
3DFACE
  5
F0A
  8
WHEELS
 10
0.5600000000000001
 20
0.1150000000000004
 30
-0.1991858428704191
 11
0.5600000000000001
 21
0.0000000000000002
 31
-0.229999999999999
 12
0.5600000000000001
 22
0.0000000000000002
 32
-0.2199999999999975
 13
0.5600000000000001
 23
0.1100000000000001
 33
-0.1905255888325751
  0
3DFACE
  5
F0B
  8
WHEELS
 10
0.5600000000000001
 20
-0.0000000000000002
 30
0.23
 11
0.5600000000000001
 21
0.1150000000000004
 31
0.1991858428704201
 12
0.5600000000000001
 22
0.1099999999999996
 32
0.1905255888325743
 13
0.5600000000000001
 23
0.0000000000000002
 33
0.2199999999999985
  0
3DFACE
  5
F0C
  8
WHEELS
 10
0.6
 20
0.115
 30
-0.1991858428704209
 11
0.6
 21
0.0000000000000002
 31
-0.2300000000000008
 12
0.5600000000000001
 22
0.0000000000000002
 32
-0.2300000000000008
 13
0.5600000000000001
 23
0.115
 33
-0.1991858428704209
  0
3DFACE
  5
F0D
  8
WHEELS
 10
0.6
 20
0.0000000000000002
 30
0.23
 11
0.6
 21
0.115
 31
0.1991858428704201
 12
0.5600000000000001
 22
0.115
 32
0.1991858428704201
 13
0.5600000000000001
 23
0.0000000000000002
 33
0.23
  0
3DFACE
  5
F0E
  8
WHEELS
 10
0.59
 20
0.0000000000000002
 30
-0.2199999999999993
 11
0.59
 21
0.1100000000000001
 31
-0.1905255888325769
 12
0.5600000000000001
 22
0.1100000000000001
 32
-0.1905255888325769
 13
0.5600000000000001
 23
0.0000000000000002
 33
-0.2199999999999993
  0
3DFACE
  5
F0F
  8
WHEELS
 10
0.59
 20
0.1100000000000001
 30
0.1905255888325761
 11
0.59
 21
0.0000000000000002
 31
0.2199999999999985
 12
0.5600000000000001
 22
0.0000000000000002
 32
0.2199999999999985
 13
0.5600000000000001
 23
0.1100000000000001
 33
0.1905255888325761
  0
3DFACE
  5
F10
  8
WHEELS
 10
0.6200000000000001
 20
0.0000000000000002
 30
-0.02
 11
0.6200000000000001
 21
0.0141421356237308
 31
-0.0141421356237327
 12
0.6200000000000001
 22
0.115
 32
-0.1991858428704209
 13
0.6200000000000001
 23
0.0000000000000002
 33
-0.2300000000000008
  0
3DFACE
  5
F11
  8
WHEELS
 10
0.6200000000000001
 20
0.0141421356237326
 30
-0.014142135623731
 11
0.6200000000000001
 21
0.0141421356237326
 31
-0.014142135623731
 12
0.6200000000000001
 22
0.1991858428704207
 32
-0.1149999999999988
 13
0.6200000000000001
 23
0.1150000000000022
 33
-0.1991858428704209
  0
3DFACE
  5
F12
  8
WHEELS
 10
0.6200000000000001
 20
0.0141421356237326
 30
-0.014142135623731
 11
0.6200000000000001
 21
0.0199999999999998
 31
-0.0000000000000004
 12
0.6200000000000001
 22
0.2300000000000006
 32
-0.0000000000000004
 13
0.6200000000000001
 23
0.1991858428704207
 33
-0.1149999999999988
  0
3DFACE
  5
F13
  8
WHEELS
 10
0.6200000000000001
 20
0.0199999999999998
 30
-0.0000000000000004
 11
0.6200000000000001
 21
0.0141421356237326
 31
0.014142135623732
 12
0.6200000000000001
 22
0.1991858428704207
 32
0.1149999999999998
 13
0.6200000000000001
 23
0.2300000000000006
 33
-0.0000000000000004
  0
3DFACE
  5
F14
  8
WHEELS
 10
0.6200000000000001
 20
0.0141421356237308
 30
0.0141421356237302
 11
0.6200000000000001
 21
0.0141421356237308
 31
0.0141421356237302
 12
0.6200000000000001
 22
0.1149999999999995
 32
0.1991858428704183
 13
0.6200000000000001
 23
0.1991858428704207
 33
0.1149999999999998
  0
3DFACE
  5
F15
  8
WHEELS
 10
0.6200000000000001
 20
0.0141421356237308
 30
0.0141421356237302
 11
0.6200000000000001
 21
-0.0000000000000002
 31
0.0199999999999974
 12
0.6200000000000001
 22
-0.0000000000000007
 32
0.2299999999999982
 13
0.6200000000000001
 23
0.1149999999999995
 33
0.1991858428704183
  0
3DFACE
  5
F16
  8
WHEELS
 10
0.6000000000000001
 20
0.0141421356237308
 30
-0.014142135623731
 11
0.6000000000000001
 21
-0.0000000000000002
 31
-0.0199999999999982
 12
0.6000000000000001
 22
-0.0000000000000007
 32
-0.229999999999999
 13
0.6000000000000001
 23
0.1149999999999995
 33
-0.1991858428704191
  0
3DFACE
  5
F17
  8
WHEELS
 10
0.6000000000000001
 20
0.0141421356237308
 30
-0.014142135623731
 11
0.6000000000000001
 21
0.0141421356237308
 31
-0.014142135623731
 12
0.6000000000000001
 22
0.1149999999999995
 32
-0.1991858428704191
 13
0.6000000000000001
 23
0.1991858428704207
 33
-0.1150000000000006
  0
3DFACE
  5
F18
  8
WHEELS
 10
0.6000000000000001
 20
0.0199999999999998
 30
-0.0000000000000004
 11
0.6000000000000001
 21
0.0141421356237326
 31
-0.0141421356237327
 12
0.6000000000000001
 22
0.1991858428704207
 32
-0.1150000000000006
 13
0.6000000000000001
 23
0.2300000000000006
 33
-0.0000000000000004
  0
3DFACE
  5
F19
  8
WHEELS
 10
0.6000000000000001
 20
0.0141421356237326
 30
0.0141421356237302
 11
0.6000000000000001
 21
0.0199999999999998
 31
-0.0000000000000004
 12
0.6000000000000001
 22
0.2300000000000006
 32
-0.0000000000000004
 13
0.6000000000000001
 23
0.1991858428704207
 33
0.114999999999998
  0
3DFACE
  5
F1A
  8
WHEELS
 10
0.6000000000000001
 20
0.0141421356237326
 30
0.0141421356237302
 11
0.6000000000000001
 21
0.0141421356237326
 31
0.0141421356237302
 12
0.6000000000000001
 22
0.1991858428704207
 32
0.114999999999998
 13
0.6000000000000001
 23
0.1150000000000022
 33
0.1991858428704201
  0
3DFACE
  5
F1B
  8
WHEELS
 10
0.6000000000000001
 20
0.0000000000000002
 30
0.0199999999999992
 11
0.6000000000000001
 21
0.0141421356237308
 31
0.014142135623732
 12
0.6000000000000001
 22
0.115
 32
0.1991858428704201
 13
0.6000000000000001
 23
0.0000000000000002
 33
0.23
  0
3DFACE
  5
F1C
  8
WHEELS
 10
0.63
 20
0.22
 30
-0.0000000000000013
 11
0.63
 21
0.1905255888325767
 31
0.1099999999999972
 12
0.63
 22
0.0500000000000001
 32
-0.0000000000000013
 13
0.63
 23
0.0500000000000001
 33
-0.0000000000000013
  0
3DFACE
  5
F1D
  8
WHEELS
 10
0.63
 20
0.1100000000000001
 30
0.1905255888325743
 11
0.63
 21
0.0000000000000002
 31
0.2199999999999967
 12
0.63
 22
0.0000000000000002
 32
0.0499999999999986
 13
0.63
 23
0.0353553390593275
 33
0.0353553390593252
  0
3DFACE
  5
F1E
  8
WHEELS
 10
0.63
 20
0.1905255888325767
 30
0.1099999999999972
 11
0.63
 21
0.1100000000000001
 31
0.1905255888325743
 12
0.63
 22
0.0353553390593275
 32
0.0353553390593252
 13
0.63
 23
0.0500000000000001
 33
-0.0000000000000013
  0
3DFACE
  5
F1F
  8
WHEELS
 10
0.63
 20
-0.0000000000000007
 30
-0.2199999999999993
 11
0.63
 21
0.1099999999999996
 31
-0.1905255888325769
 12
0.63
 22
-0.0000000000000007
 32
-0.0500000000000011
 13
0.63
 23
-0.0000000000000007
 33
-0.0500000000000011
  0
3DFACE
  5
F20
  8
WHEELS
 10
0.63
 20
0.1905255888325767
 30
-0.1099999999999998
 11
0.63
 21
0.2199999999999991
 31
-0.0000000000000004
 12
0.63
 22
0.0500000000000009
 32
-0.0000000000000004
 13
0.63
 23
0.0353553390593275
 33
-0.0353553390593277
  0
3DFACE
  5
F21
  8
WHEELS
 10
0.63
 20
0.1099999999999996
 30
-0.1905255888325769
 11
0.63
 21
0.1905255888325767
 31
-0.1099999999999998
 12
0.63
 22
0.0353553390593275
 32
-0.0353553390593277
 13
0.63
 23
-0.0000000000000007
 33
-0.0500000000000011
  0
3DFACE
  5
F22
  8
WHEELS
 10
0.6600000000000001
 20
0.1150000000000004
 30
0.1991858428704183
 11
0.6600000000000001
 21
0.0000000000000002
 31
0.2299999999999982
 12
0.6600000000000001
 22
0.0000000000000002
 32
0.2199999999999967
 13
0.6600000000000001
 23
0.1100000000000001
 33
0.1905255888325743
  0
3DFACE
  5
F23
  8
WHEELS
 10
0.6600000000000001
 20
-0.0000000000000002
 30
-0.2300000000000008
 11
0.6600000000000001
 21
0.1150000000000004
 31
-0.1991858428704209
 12
0.6600000000000001
 22
0.1099999999999996
 32
-0.1905255888325751
 13
0.6600000000000001
 23
0.0000000000000002
 33
-0.2199999999999993
  0
3DFACE
  5
F24
  8
WHEELS
 10
0.6200000000000001
 20
0.115
 30
0.1991858428704201
 11
0.6200000000000001
 21
0.0000000000000002
 31
0.23
 12
0.6600000000000001
 22
0.0000000000000002
 32
0.23
 13
0.6600000000000001
 23
0.115
 33
0.1991858428704201
  0
3DFACE
  5
F25
  8
WHEELS
 10
0.6200000000000001
 20
0.0000000000000002
 30
-0.2300000000000008
 11
0.6200000000000001
 21
0.115
 31
-0.1991858428704209
 12
0.6600000000000001
 22
0.115
 32
-0.1991858428704209
 13
0.6600000000000001
 23
0.0000000000000002
 33
-0.2300000000000008
  0
3DFACE
  5
F26
  8
WHEELS
 10
0.63
 20
0.0000000000000002
 30
0.2199999999999985
 11
0.63
 21
0.1100000000000001
 31
0.1905255888325761
 12
0.6600000000000001
 22
0.1100000000000001
 32
0.1905255888325761
 13
0.6600000000000001
 23
0.0000000000000002
 33
0.2199999999999985
  0
3DFACE
  5
F27
  8
WHEELS
 10
0.63
 20
0.1100000000000001
 30
-0.1905255888325769
 11
0.63
 21
0.0000000000000002
 31
-0.2199999999999993
 12
0.6600000000000001
 22
0.0000000000000002
 32
-0.2199999999999993
 13
0.6600000000000001
 23
0.1100000000000001
 33
-0.1905255888325769
  0
3DFACE
  5
F28
  8
WHEELS
 10
0.75
 20
0.0199999999999998
 30
-0.0000000000000004
 11
0.75
 21
0.0141421356237308
 31
0.0141421356237302
 12
0.75
 22
0.0000000000000002
 32
0.0199999999999992
 13
0.75
 23
0.0141421356237308
 33
-0.014142135623731
  0
3DFACE
  5
F29
  8
WHEELS
 10
0.75
 20
0.0141421356237308
 30
-0.014142135623731
 11
0.75
 21
0.0000000000000002
 31
0.0199999999999992
 12
0.75
 22
-0.0141421356237312
 32
0.0141421356237302
 13
0.75
 23
0.0000000000000002
 33
-0.02
  0
3DFACE
  5
F2A
  8
WHEELS
 10
0.75
 20
0.0000000000000002
 30
-0.02
 11
0.75
 21
-0.0141421356237312
 31
0.0141421356237302
 12
0.75
 22
-0.0200000000000003
 32
-0.0000000000000004
 13
0.75
 23
-0.0141421356237312
 33
-0.014142135623731
  0
3DFACE
  5
F2B
  8
WHEELS
 10
0.47
 20
0.0000000000000002
 30
0.0199999999999992
 11
0.47
 21
-0.0141421356237312
 31
-0.014142135623731
 12
0.47
 22
-0.0200000000000003
 32
-0.0000000000000004
 13
0.47
 23
-0.0141421356237312
 33
0.0141421356237302
  0
3DFACE
  5
F2C
  8
WHEELS
 10
0.47
 20
0.0141421356237308
 30
0.0141421356237302
 11
0.47
 21
0.0000000000000002
 31
-0.02
 12
0.47
 22
-0.0141421356237312
 32
-0.014142135623731
 13
0.47
 23
0.0000000000000002
 33
0.0199999999999992
  0
3DFACE
  5
F2D
  8
WHEELS
 10
0.4699999999999999
 20
0.0199999999999998
 30
-0.0000000000000004
 11
0.4699999999999999
 21
0.0141421356237308
 31
-0.014142135623731
 12
0.47
 22
0.0000000000000002
 32
-0.02
 13
0.47
 23
0.0141421356237308
 33
0.0141421356237302
  0
3DFACE
  5
F2E
  8
WHEELS
 10
0.59
 20
-0.0500000000000001
 30
-0.0000000000000004
 11
0.59
 21
-0.0353553390593271
 31
0.0353553390593269
 12
0.57
 22
-0.0353553390593271
 32
0.0353553390593269
 13
0.57
 23
-0.0500000000000001
 33
-0.0000000000000004
  0
3DFACE
  5
F2F
  8
WHEELS
 10
0.6
 20
-0.2300000000000002
 30
-0.0000000000000004
 11
0.6
 21
-0.1991858428704212
 31
0.1149999999999998
 12
0.5600000000000001
 22
-0.1991858428704212
 32
0.1149999999999998
 13
0.5600000000000001
 23
-0.2300000000000002
 33
-0.0000000000000004
  0
3DFACE
  5
F30
  8
WHEELS
 10
0.59
 20
-0.1905255888325763
 30
0.109999999999999
 11
0.59
 21
-0.22
 31
-0.0000000000000004
 12
0.5600000000000001
 22
-0.22
 32
-0.0000000000000004
 13
0.5600000000000001
 23
-0.1905255888325763
 33
0.109999999999999
  0
3DFACE
  5
F31
  8
WHEELS
 10
0.57
 20
-0.0499999999999987
 30
-0.0000000000000004
 11
0.57
 21
-0.035355339059328
 31
0.0353553390593287
 12
0.57
 22
-0.0141421356237304
 32
0.0141421356237302
 13
0.57
 23
-0.0199999999999994
 33
-0.0000000000000004
  0
3DFACE
  5
F32
  8
WHEELS
 10
0.57
 20
0.0353553390593275
 30
0.0353553390593269
 11
0.57
 21
0.0500000000000009
 31
-0.0000000000000004
 12
0.57
 22
0.0199999999999989
 32
-0.0000000000000004
 13
0.57
 23
0.0141421356237299
 33
0.0141421356237302
  0
3DFACE
  5
F33
  8
WHEELS
 10
0.5600000000000001
 20
-0.2299999999999993
 30
-0.0000000000000004
 11
0.5600000000000001
 21
-0.1991858428704203
 31
0.1149999999999998
 12
0.5600000000000001
 22
-0.1905255888325745
 32
0.109999999999999
 13
0.5600000000000001
 23
-0.2199999999999995
 33
-0.0000000000000004
  0
3DFACE
  5
F34
  8
WHEELS
 10
0.59
 20
-0.22
 30
-0.0000000000000004
 11
0.59
 21
-0.1905255888325763
 31
0.109999999999999
 12
0.59
 22
-0.0500000000000001
 32
-0.0000000000000004
 13
0.59
 23
-0.0500000000000001
 33
-0.0000000000000004
  0
3DFACE
  5
F35
  8
WHEELS
 10
0.59
 20
-0.1905255888325763
 30
0.109999999999999
 11
0.59
 21
-0.1100000000000001
 31
0.1905255888325761
 12
0.59
 22
-0.0353553390593271
 32
0.0353553390593269
 13
0.59
 23
-0.0500000000000001
 33
-0.0000000000000004
  0
3DFACE
  5
F36
  8
WHEELS
 10
0.57
 20
0.0141421356237308
 30
0.0141421356237302
 11
0.57
 21
0.0199999999999998
 31
-0.0000000000000004
 12
0.47
 22
0.0199999999999998
 32
-0.0000000000000004
 13
0.47
 23
0.0141421356237308
 33
0.0141421356237302
  0
3DFACE
  5
F37
  8
WHEELS
 10
0.57
 20
-0.0200000000000003
 30
-0.0000000000000004
 11
0.57
 21
-0.0141421356237312
 31
0.0141421356237302
 12
0.47
 22
-0.0141421356237312
 32
0.0141421356237302
 13
0.47
 23
-0.0200000000000003
 33
-0.0000000000000004
  0
3DFACE
  5
F38
  8
WHEELS
 10
0.59
 20
0.0353553390593275
 30
0.0353553390593269
 11
0.59
 21
0.0500000000000001
 31
-0.0000000000000004
 12
0.57
 22
0.0500000000000001
 32
-0.0000000000000004
 13
0.57
 23
0.0353553390593275
 33
0.0353553390593269
  0
3DFACE
  5
F39
  8
WHEELS
 10
0.6
 20
-0.0141421356237312
 30
0.0141421356237284
 11
0.6
 21
-0.0200000000000003
 31
-0.0000000000000004
 12
0.6200000000000001
 22
-0.0200000000000003
 32
-0.0000000000000004
 13
0.6200000000000001
 23
-0.0141421356237312
 33
0.0141421356237284
  0
3DFACE
  5
F3A
  8
WHEELS
 10
0.6
 20
0.0199999999999998
 30
-0.0000000000000004
 11
0.6
 21
0.0141421356237308
 31
0.0141421356237284
 12
0.6200000000000001
 22
0.0141421356237308
 32
0.0141421356237284
 13
0.6200000000000001
 23
0.0199999999999998
 33
-0.0000000000000004
  0
3DFACE
  5
F3B
  8
WHEELS
 10
0.6200000000000001
 20
-0.0141421356237321
 30
0.0141421356237302
 11
0.6200000000000001
 21
-0.0199999999999994
 31
-0.0000000000000004
 12
0.6200000000000001
 22
-0.2300000000000002
 32
-0.0000000000000004
 13
0.6200000000000001
 23
-0.1991858428704203
 33
0.1149999999999998
  0
3DFACE
  5
F3C
  8
WHEELS
 10
0.6000000000000001
 20
-0.0199999999999994
 30
-0.0000000000000004
 11
0.6000000000000001
 21
-0.0141421356237321
 31
0.0141421356237302
 12
0.6000000000000001
 22
-0.1991858428704203
 32
0.1149999999999998
 13
0.6000000000000001
 23
-0.2300000000000002
 33
-0.0000000000000004
  0
3DFACE
  5
F3D
  8
WHEELS
 10
0.63
 20
-0.1905255888325763
 30
0.109999999999999
 11
0.63
 21
-0.2199999999999986
 31
-0.0000000000000004
 12
0.63
 22
-0.0500000000000005
 32
-0.0000000000000004
 13
0.63
 23
-0.0353553390593271
 33
0.0353553390593269
  0
3DFACE
  5
F3E
  8
WHEELS
 10
0.65
 20
-0.0353553390593271
 30
0.0353553390593269
 11
0.65
 21
-0.0500000000000005
 31
-0.0000000000000004
 12
0.65
 22
-0.0199999999999994
 32
-0.0000000000000004
 13
0.65
 23
-0.0141421356237304
 33
0.0141421356237302
  0
3DFACE
  5
F3F
  8
WHEELS
 10
0.65
 20
0.0499999999999992
 30
-0.0000000000000004
 11
0.65
 21
0.0353553390593275
 31
0.0353553390593287
 12
0.65
 22
0.0141421356237308
 32
0.0141421356237302
 13
0.65
 23
0.0199999999999998
 33
-0.0000000000000004
  0
3DFACE
  5
F40
  8
WHEELS
 10
0.6600000000000001
 20
-0.1991858428704203
 30
0.1149999999999998
 11
0.6600000000000001
 21
-0.2300000000000002
 31
-0.0000000000000004
 12
0.6600000000000001
 22
-0.2199999999999986
 32
-0.0000000000000004
 13
0.6600000000000001
 23
-0.1905255888325763
 33
0.109999999999999
  0
3DFACE
  5
F41
  8
WHEELS
 10
0.65
 20
-0.0141421356237312
 30
0.0141421356237302
 11
0.65
 21
-0.0200000000000003
 31
-0.0000000000000004
 12
0.75
 22
-0.0200000000000003
 32
-0.0000000000000004
 13
0.75
 23
-0.0141421356237312
 33
0.0141421356237302
  0
3DFACE
  5
F42
  8
WHEELS
 10
0.65
 20
0.0199999999999998
 30
-0.0000000000000004
 11
0.65
 21
0.0141421356237308
 31
0.0141421356237302
 12
0.75
 22
0.0141421356237308
 32
0.0141421356237302
 13
0.75
 23
0.0199999999999998
 33
-0.0000000000000004
  0
3DFACE
  5
F43
  8
WHEELS
 10
0.63
 20
-0.0353553390593271
 30
0.0353553390593269
 11
0.63
 21
-0.0500000000000001
 31
-0.0000000000000004
 12
0.65
 22
-0.0500000000000001
 32
-0.0000000000000004
 13
0.65
 23
-0.0353553390593271
 33
0.0353553390593269
  0
3DFACE
  5
F44
  8
WHEELS
 10
0.63
 20
0.0500000000000001
 30
-0.0000000000000004
 11
0.63
 21
0.0353553390593275
 31
0.0353553390593269
 12
0.65
 22
0.0353553390593275
 32
0.0353553390593269
 13
0.65
 23
0.0500000000000001
 33
-0.0000000000000004
  0
3DFACE
  5
F45
  8
WHEELS
 10
0.6200000000000001
 20
-0.1991858428704212
 30
0.1149999999999998
 11
0.6200000000000001
 21
-0.2300000000000002
 31
-0.0000000000000004
 12
0.6600000000000001
 22
-0.2300000000000002
 32
-0.0000000000000004
 13
0.6600000000000001
 23
-0.1991858428704212
 33
0.1149999999999998
  0
3DFACE
  5
F46
  8
WHEELS
 10
0.63
 20
-0.22
 30
-0.0000000000000004
 11
0.63
 21
-0.1905255888325763
 31
0.109999999999999
 12
0.6600000000000001
 22
-0.1905255888325763
 32
0.109999999999999
 13
0.6600000000000001
 23
-0.22
 33
-0.0000000000000004
  0
3DFACE
  5
F47
  8
WHEELS
 10
0.59
 20
0.0000000000000002
 30
0.0500000000000003
 11
0.59
 21
0.0353553390593275
 31
0.0353553390593269
 12
0.57
 22
0.0353553390593275
 32
0.0353553390593269
 13
0.57
 23
0.0000000000000002
 33
0.0500000000000003
  0
3DFACE
  5
F48
  8
WHEELS
 10
0.59
 20
-0.0353553390593271
 30
0.0353553390593269
 11
0.59
 21
0.0000000000000002
 31
0.0500000000000003
 12
0.57
 22
0.0000000000000002
 32
0.0500000000000003
 13
0.57
 23
-0.0353553390593271
 33
0.0353553390593269
  0
3DFACE
  5
F49
  8
WHEELS
 10
0.6
 20
-0.115
 30
0.1991858428704201
 11
0.6
 21
0.0000000000000002
 31
0.23
 12
0.5600000000000001
 22
0.0000000000000002
 32
0.23
 13
0.5600000000000001
 23
-0.115
 33
0.1991858428704201
  0
3DFACE
  5
F4A
  8
WHEELS
 10
0.6
 20
-0.1991858428704212
 30
0.1149999999999998
 11
0.6
 21
-0.115
 31
0.1991858428704201
 12
0.5600000000000001
 22
-0.115
 32
0.1991858428704201
 13
0.5600000000000001
 23
-0.1991858428704212
 33
0.1149999999999998
  0
3DFACE
  5
F4B
  8
WHEELS
 10
0.59
 20
-0.1100000000000001
 30
0.1905255888325761
 11
0.59
 21
-0.1905255888325763
 31
0.109999999999999
 12
0.5600000000000001
 22
-0.1905255888325763
 32
0.109999999999999
 13
0.5600000000000001
 23
-0.1100000000000001
 33
0.1905255888325761
  0
3DFACE
  5
F4C
  8
WHEELS
 10
0.59
 20
0.0000000000000002
 30
0.2199999999999985
 11
0.59
 21
-0.1100000000000001
 31
0.1905255888325761
 12
0.5600000000000001
 22
-0.1100000000000001
 32
0.1905255888325761
 13
0.5600000000000001
 23
0.0000000000000002
 33
0.2199999999999985
  0
3DFACE
  5
F4D
  8
WHEELS
 10
0.57
 20
-0.0000000000000007
 30
0.0500000000000003
 11
0.57
 21
0.0353553390593284
 31
0.0353553390593287
 12
0.57
 22
0.0141421356237308
 32
0.0141421356237302
 13
0.57
 23
0.0000000000000002
 33
0.0199999999999992
  0
3DFACE
  5
F4E
  8
WHEELS
 10
0.5600000000000001
 20
-0.1991858428704203
 30
0.1149999999999998
 11
0.5600000000000001
 21
-0.115
 31
0.1991858428704201
 12
0.5600000000000001
 22
-0.1099999999999992
 32
0.1905255888325743
 13
0.5600000000000001
 23
-0.1905255888325754
 33
0.109999999999999
  0
3DFACE
  5
F4F
  8
WHEELS
 10
0.5600000000000001
 20
-0.115
 30
0.1991858428704201
 11
0.5600000000000001
 21
0.0000000000000002
 31
0.23
 12
0.5600000000000001
 22
0.0000000000000002
 32
0.2199999999999985
 13
0.5600000000000001
 23
-0.1100000000000001
 33
0.1905255888325761
  0
3DFACE
  5
F50
  8
WHEELS
 10
0.59
 20
-0.1100000000000001
 30
0.1905255888325761
 11
0.59
 21
0.0000000000000002
 31
0.2199999999999985
 12
0.59
 22
0.0000000000000002
 32
0.0500000000000003
 13
0.59
 23
-0.0353553390593271
 33
0.0353553390593269
  0
3DFACE
  5
F51
  8
WHEELS
 10
0.57
 20
-0.0353553390593271
 30
0.0353553390593269
 11
0.57
 21
0.0000000000000002
 31
0.0500000000000003
 12
0.57
 22
0.0000000000000002
 32
0.0199999999999992
 13
0.57
 23
-0.0141421356237312
 33
0.0141421356237302
  0
3DFACE
  5
F52
  8
WHEELS
 10
0.57
 20
0.0000000000000002
 30
0.0199999999999992
 11
0.57
 21
0.0141421356237308
 31
0.0141421356237302
 12
0.47
 22
0.0141421356237308
 32
0.0141421356237302
 13
0.47
 23
0.0000000000000002
 33
0.0199999999999992
  0
3DFACE
  5
F53
  8
WHEELS
 10
0.57
 20
-0.0141421356237312
 30
0.0141421356237302
 11
0.57
 21
0.0000000000000002
 31
0.0199999999999992
 12
0.47
 22
0.0000000000000002
 32
0.0199999999999992
 13
0.47
 23
-0.0141421356237312
 33
0.0141421356237302
  0
3DFACE
  5
F54
  8
WHEELS
 10
0.6
 20
0.0000000000000002
 30
0.0199999999999992
 11
0.6
 21
-0.0141421356237312
 31
0.0141421356237284
 12
0.6200000000000001
 22
-0.0141421356237312
 32
0.0141421356237284
 13
0.6200000000000001
 23
0.0000000000000002
 33
0.0199999999999992
  0
3DFACE
  5
F55
  8
WHEELS
 10
0.6
 20
0.0141421356237308
 30
0.0141421356237284
 11
0.6
 21
0.0000000000000002
 31
0.0199999999999992
 12
0.6200000000000001
 22
0.0000000000000002
 32
0.0199999999999992
 13
0.6200000000000001
 23
0.0141421356237308
 33
0.0141421356237284
  0
3DFACE
  5
F56
  8
WHEELS
 10
0.6200000000000001
 20
-0.0000000000000002
 30
0.0199999999999974
 11
0.6200000000000001
 21
-0.0141421356237312
 31
0.0141421356237302
 12
0.6200000000000001
 22
-0.115
 32
0.1991858428704201
 13
0.6200000000000001
 23
-0.0000000000000002
 33
0.2299999999999982
  0
3DFACE
  5
F57
  8
WHEELS
 10
0.6200000000000001
 20
-0.0141421356237321
 30
0.0141421356237302
 11
0.6200000000000001
 21
-0.0141421356237321
 31
0.0141421356237302
 12
0.6200000000000001
 22
-0.1991858428704203
 32
0.1149999999999998
 13
0.6200000000000001
 23
-0.1150000000000018
 33
0.1991858428704201
  0
3DFACE
  5
F58
  8
WHEELS
 10
0.6000000000000001
 20
-0.0141421356237312
 30
0.014142135623732
 11
0.6000000000000001
 21
-0.0141421356237312
 31
0.014142135623732
 12
0.6000000000000001
 22
-0.115
 32
0.1991858428704201
 13
0.6000000000000001
 23
-0.1991858428704212
 33
0.1150000000000016
  0
3DFACE
  5
F59
  8
WHEELS
 10
0.6000000000000001
 20
-0.0141421356237312
 30
0.014142135623732
 11
0.6000000000000001
 21
0.0000000000000002
 31
0.0199999999999992
 12
0.6000000000000001
 22
0.0000000000000002
 32
0.23
 13
0.6000000000000001
 23
-0.115
 33
0.1991858428704201
  0
3DFACE
  5
F5A
  8
WHEELS
 10
0.63
 20
0.0000000000000002
 30
0.2199999999999985
 11
0.63
 21
-0.1099999999999992
 31
0.1905255888325761
 12
0.63
 22
0.0000000000000002
 32
0.0500000000000003
 13
0.63
 23
0.0000000000000002
 33
0.0500000000000003
  0
3DFACE
  5
F5B
  8
WHEELS
 10
0.63
 20
-0.1099999999999992
 30
0.1905255888325761
 11
0.63
 21
-0.1905255888325763
 31
0.109999999999999
 12
0.63
 22
-0.0353553390593271
 32
0.0353553390593269
 13
0.63
 23
0.0000000000000002
 33
0.0500000000000003
  0
3DFACE
  5
F5C
  8
WHEELS
 10
0.65
 20
0.0000000000000002
 30
0.0499999999999986
 11
0.65
 21
-0.035355339059328
 31
0.0353553390593269
 12
0.65
 22
-0.0141421356237304
 32
0.0141421356237302
 13
0.65
 23
0.0000000000000002
 33
0.0199999999999992
  0
3DFACE
  5
F5D
  8
WHEELS
 10
0.65
 20
0.0353553390593275
 30
0.0353553390593252
 11
0.65
 21
0.0000000000000002
 31
0.0499999999999986
 12
0.65
 22
0.0000000000000002
 32
0.0199999999999983
 13
0.65
 23
0.0141421356237308
 33
0.0141421356237293
  0
3DFACE
  5
F5E
  8
WHEELS
 10
0.6600000000000001
 20
-0.1149999999999991
 30
0.1991858428704201
 11
0.6600000000000001
 21
-0.1991858428704203
 31
0.1149999999999998
 12
0.6600000000000001
 22
-0.1905255888325745
 32
0.109999999999999
 13
0.6600000000000001
 23
-0.1099999999999992
 33
0.1905255888325743
  0
3DFACE
  5
F5F
  8
WHEELS
 10
0.6600000000000001
 20
0.0000000000000011
 30
0.23
 11
0.6600000000000001
 21
-0.1149999999999991
 31
0.1991858428704201
 12
0.6600000000000001
 22
-0.1099999999999983
 32
0.1905255888325743
 13
0.6600000000000001
 23
0.0000000000000011
 33
0.2200000000000002
  0
3DFACE
  5
F60
  8
WHEELS
 10
0.65
 20
0.0000000000000002
 30
0.0199999999999992
 11
0.65
 21
-0.0141421356237312
 31
0.0141421356237302
 12
0.75
 22
-0.0141421356237312
 32
0.0141421356237302
 13
0.75
 23
0.0000000000000002
 33
0.0199999999999992
  0
3DFACE
  5
F61
  8
WHEELS
 10
0.65
 20
0.0141421356237308
 30
0.0141421356237302
 11
0.65
 21
0.0000000000000002
 31
0.0199999999999992
 12
0.75
 22
0.0000000000000002
 32
0.0199999999999992
 13
0.75
 23
0.0141421356237308
 33
0.0141421356237302
  0
3DFACE
  5
F62
  8
WHEELS
 10
0.6200000000000001
 20
-0.115
 30
0.1991858428704201
 11
0.6200000000000001
 21
-0.1991858428704212
 31
0.1149999999999998
 12
0.6600000000000001
 22
-0.1991858428704212
 32
0.1149999999999998
 13
0.6600000000000001
 23
-0.115
 33
0.1991858428704201
  0
3DFACE
  5
F63
  8
WHEELS
 10
0.6200000000000001
 20
0.0000000000000002
 30
0.23
 11
0.6200000000000001
 21
-0.115
 31
0.1991858428704201
 12
0.6600000000000001
 22
-0.115
 32
0.1991858428704201
 13
0.6600000000000001
 23
0.0000000000000002
 33
0.23
  0
3DFACE
  5
F64
  8
WHEELS
 10
0.63
 20
-0.1100000000000001
 30
0.1905255888325761
 11
0.63
 21
0.0000000000000002
 31
0.2199999999999985
 12
0.6600000000000001
 22
0.0000000000000002
 32
0.2199999999999985
 13
0.6600000000000001
 23
-0.1100000000000001
 33
0.1905255888325761
  0
3DFACE
  5
F65
  8
WHEELS
 10
0.63
 20
-0.1905255888325763
 30
0.109999999999999
 11
0.63
 21
-0.1100000000000001
 31
0.1905255888325761
 12
0.6600000000000001
 22
-0.1100000000000001
 32
0.1905255888325761
 13
0.6600000000000001
 23
-0.1905255888325763
 33
0.109999999999999
  0
3DFACE
  5
F66
  8
WHEELS
 10
0.63
 20
0.0000000000000002
 30
0.0500000000000003
 11
0.63
 21
-0.0353553390593271
 31
0.0353553390593269
 12
0.65
 22
-0.0353553390593271
 32
0.0353553390593269
 13
0.65
 23
0.0000000000000002
 33
0.0500000000000003
  0
3DFACE
  5
F67
  8
WHEELS
 10
0.63
 20
0.0353553390593275
 30
0.0353553390593269
 11
0.63
 21
0.0000000000000002
 31
0.0500000000000003
 12
0.65
 22
0.0000000000000002
 32
0.0500000000000003
 13
0.65
 23
0.0353553390593275
 33
0.0353553390593269
  0
3DFACE
  5
F68
  8
WHEELS
 10
0.5600000000000001
 20
-0.1149999999999991
 30
-0.1991858428704209
 11
0.5600000000000001
 21
-0.1991858428704203
 31
-0.1150000000000006
 12
0.5600000000000001
 22
-0.1905255888325745
 32
-0.1099999999999998
 13
0.5600000000000001
 23
-0.1099999999999992
 33
-0.1905255888325751
  0
3DFACE
  5
F69
  8
WHEELS
 10
0.5600000000000001
 20
0.0000000000000011
 30
-0.2300000000000008
 11
0.5600000000000001
 21
-0.1149999999999991
 31
-0.1991858428704209
 12
0.5600000000000001
 22
-0.1099999999999983
 32
-0.1905255888325751
 13
0.5600000000000001
 23
0.0000000000000011
 33
-0.220000000000001
  0
3DFACE
  5
F6A
  8
WHEELS
 10
0.6
 20
-0.115
 30
-0.1991858428704209
 11
0.6
 21
-0.1991858428704212
 31
-0.1150000000000006
 12
0.5600000000000001
 22
-0.1991858428704212
 32
-0.1150000000000006
 13
0.5600000000000001
 23
-0.115
 33
-0.1991858428704209
  0
3DFACE
  5
F6B
  8
WHEELS
 10
0.6
 20
0.0000000000000002
 30
-0.2300000000000008
 11
0.6
 21
-0.115
 31
-0.1991858428704209
 12
0.5600000000000001
 22
-0.115
 32
-0.1991858428704209
 13
0.5600000000000001
 23
0.0000000000000002
 33
-0.2300000000000008
  0
3DFACE
  5
F6C
  8
WHEELS
 10
0.59
 20
-0.1100000000000001
 30
-0.1905255888325769
 11
0.59
 21
0.0000000000000002
 31
-0.2199999999999993
 12
0.5600000000000001
 22
0.0000000000000002
 32
-0.2199999999999993
 13
0.5600000000000001
 23
-0.1100000000000001
 33
-0.1905255888325769
  0
3DFACE
  5
F6D
  8
WHEELS
 10
0.59
 20
-0.1905255888325763
 30
-0.1099999999999998
 11
0.59
 21
-0.1100000000000001
 31
-0.1905255888325769
 12
0.5600000000000001
 22
-0.1100000000000001
 32
-0.1905255888325769
 13
0.5600000000000001
 23
-0.1905255888325763
 33
-0.1099999999999998
  0
3DFACE
  5
F6E
  8
WHEELS
 10
0.6600000000000001
 20
-0.1991858428704203
 30
-0.1150000000000006
 11
0.6600000000000001
 21
-0.115
 31
-0.1991858428704209
 12
0.6600000000000001
 22
-0.1099999999999992
 32
-0.1905255888325751
 13
0.6600000000000001
 23
-0.1905255888325754
 33
-0.1099999999999998
  0
3DFACE
  5
F6F
  8
WHEELS
 10
0.6600000000000001
 20
-0.115
 30
-0.1991858428704209
 11
0.6600000000000001
 21
0.0000000000000002
 31
-0.2300000000000008
 12
0.6600000000000001
 22
0.0000000000000002
 32
-0.2199999999999993
 13
0.6600000000000001
 23
-0.1100000000000001
 33
-0.1905255888325769
  0
3DFACE
  5
F70
  8
WHEELS
 10
0.6200000000000001
 20
-0.115
 30
-0.1991858428704209
 11
0.6200000000000001
 21
0.0000000000000002
 31
-0.2300000000000008
 12
0.6600000000000001
 22
0.0000000000000002
 32
-0.2300000000000008
 13
0.6600000000000001
 23
-0.115
 33
-0.1991858428704209
  0
3DFACE
  5
F71
  8
WHEELS
 10
0.6200000000000001
 20
-0.1991858428704212
 30
-0.1150000000000006
 11
0.6200000000000001
 21
-0.115
 31
-0.1991858428704209
 12
0.6600000000000001
 22
-0.115
 32
-0.1991858428704209
 13
0.6600000000000001
 23
-0.1991858428704212
 33
-0.1150000000000006
  0
3DFACE
  5
F72
  8
WHEELS
 10
0.63
 20
-0.1100000000000001
 30
-0.1905255888325769
 11
0.63
 21
-0.1905255888325763
 31
-0.1099999999999998
 12
0.6600000000000001
 22
-0.1905255888325763
 32
-0.1099999999999998
 13
0.6600000000000001
 23
-0.1100000000000001
 33
-0.1905255888325769
  0
3DFACE
  5
F73
  8
WHEELS
 10
0.63
 20
0.0000000000000002
 30
-0.2199999999999993
 11
0.63
 21
-0.1100000000000001
 31
-0.1905255888325769
 12
0.6600000000000001
 22
-0.1100000000000001
 32
-0.1905255888325769
 13
0.6600000000000001
 23
0.0000000000000002
 33
-0.2199999999999993
  0
3DFACE
  5
F74
  8
WHEELS
 10
0.57
 20
-0.0353553390593271
 30
-0.0353553390593277
 11
0.57
 21
-0.0500000000000005
 31
-0.0000000000000004
 12
0.57
 22
-0.0199999999999994
 32
-0.0000000000000004
 13
0.57
 23
-0.0141421356237304
 33
-0.014142135623731
  0
3DFACE
  5
F75
  8
WHEELS
 10
0.5700000000000001
 20
0.0499999999999992
 30
-0.0000000000000004
 11
0.5700000000000001
 21
0.0353553390593275
 31
-0.0353553390593295
 12
0.5700000000000001
 22
0.0141421356237308
 32
-0.014142135623731
 13
0.5700000000000001
 23
0.0199999999999998
 33
-0.0000000000000004
  0
3DFACE
  5
F76
  8
WHEELS
 10
0.57
 20
-0.0141421356237312
 30
-0.014142135623731
 11
0.57
 21
-0.0200000000000003
 31
-0.0000000000000004
 12
0.47
 22
-0.0200000000000003
 32
-0.0000000000000004
 13
0.47
 23
-0.0141421356237312
 33
-0.014142135623731
  0
3DFACE
  5
F77
  8
WHEELS
 10
0.57
 20
0.0199999999999998
 30
-0.0000000000000004
 11
0.57
 21
0.0141421356237308
 31
-0.014142135623731
 12
0.47
 22
0.0141421356237308
 32
-0.014142135623731
 13
0.47
 23
0.0199999999999998
 33
-0.0000000000000004
  0
3DFACE
  5
F78
  8
WHEELS
 10
0.59
 20
-0.0353553390593271
 30
-0.0353553390593277
 11
0.59
 21
-0.0500000000000001
 31
-0.0000000000000004
 12
0.57
 22
-0.0500000000000001
 32
-0.0000000000000004
 13
0.57
 23
-0.0353553390593271
 33
-0.0353553390593277
  0
3DFACE
  5
F79
  8
WHEELS
 10
0.59
 20
0.0500000000000001
 30
-0.0000000000000004
 11
0.59
 21
0.0353553390593275
 31
-0.0353553390593277
 12
0.57
 22
0.0353553390593275
 32
-0.0353553390593277
 13
0.57
 23
0.0500000000000001
 33
-0.0000000000000004
  0
3DFACE
  5
F7A
  8
WHEELS
 10
0.57
 20
0.0000000000000002
 30
-0.0499999999999993
 11
0.57
 21
-0.035355339059328
 31
-0.0353553390593277
 12
0.57
 22
-0.0141421356237304
 32
-0.014142135623731
 13
0.57
 23
0.0000000000000002
 33
-0.02
  0
3DFACE
  5
F7B
  8
WHEELS
 10
0.57
 20
0.0353553390593275
 30
-0.0353553390593259
 11
0.57
 21
0.0000000000000002
 31
-0.0499999999999993
 12
0.57
 22
0.0000000000000002
 32
-0.0199999999999991
 13
0.57
 23
0.0141421356237308
 33
-0.0141421356237301
  0
3DFACE
  5
F7C
  8
WHEELS
 10
0.57
 20
0.0000000000000002
 30
-0.02
 11
0.57
 21
-0.0141421356237312
 31
-0.014142135623731
 12
0.47
 22
-0.0141421356237312
 32
-0.014142135623731
 13
0.47
 23
0.0000000000000002
 33
-0.02
  0
3DFACE
  5
F7D
  8
WHEELS
 10
0.57
 20
0.0141421356237308
 30
-0.014142135623731
 11
0.57
 21
0.0000000000000002
 31
-0.02
 12
0.47
 22
0.0000000000000002
 32
-0.02
 13
0.47
 23
0.0141421356237308
 33
-0.014142135623731
  0
3DFACE
  5
F7E
  8
WHEELS
 10
0.59
 20
0.0000000000000002
 30
-0.0500000000000011
 11
0.59
 21
-0.0353553390593271
 31
-0.0353553390593277
 12
0.57
 22
-0.0353553390593271
 32
-0.0353553390593277
 13
0.57
 23
0.0000000000000002
 33
-0.0500000000000011
  0
3DFACE
  5
F7F
  8
WHEELS
 10
0.59
 20
0.0353553390593275
 30
-0.0353553390593277
 11
0.59
 21
0.0000000000000002
 31
-0.0500000000000011
 12
0.57
 22
0.0000000000000002
 32
-0.0500000000000011
 13
0.57
 23
0.0353553390593275
 33
-0.0353553390593277
  0
3DFACE
  5
F80
  8
WHEELS
 10
0.6
 20
-0.0141421356237312
 30
-0.0141421356237327
 11
0.6
 21
0.0000000000000002
 31
-0.02
 12
0.6200000000000001
 22
0.0000000000000002
 32
-0.02
 13
0.6200000000000001
 23
-0.0141421356237312
 33
-0.0141421356237327
  0
3DFACE
  5
F81
  8
WHEELS
 10
0.6
 20
0.0000000000000002
 30
-0.02
 11
0.6
 21
0.0141421356237308
 31
-0.0141421356237327
 12
0.6200000000000001
 22
0.0141421356237308
 32
-0.0141421356237327
 13
0.6200000000000001
 23
0.0000000000000002
 33
-0.02
  0
3DFACE
  5
F82
  8
WHEELS
 10
0.6
 20
-0.0200000000000003
 30
-0.0000000000000004
 11
0.6
 21
-0.0141421356237312
 31
-0.0141421356237327
 12
0.6200000000000001
 22
-0.0141421356237312
 32
-0.0141421356237327
 13
0.6200000000000001
 23
-0.0200000000000003
 33
-0.0000000000000004
  0
3DFACE
  5
F83
  8
WHEELS
 10
0.6
 20
0.0141421356237308
 30
-0.0141421356237327
 11
0.6
 21
0.0199999999999998
 31
-0.0000000000000004
 12
0.6200000000000001
 22
0.0199999999999998
 32
-0.0000000000000004
 13
0.6200000000000001
 23
0.0141421356237308
 33
-0.0141421356237327
  0
3DFACE
  5
F84
  8
WHEELS
 10
0.65
 20
-0.0000000000000007
 30
-0.0500000000000011
 11
0.65
 21
0.0353553390593284
 31
-0.0353553390593295
 12
0.65
 22
0.0141421356237308
 32
-0.014142135623731
 13
0.65
 23
0.0000000000000002
 33
-0.02
  0
3DFACE
  5
F85
  8
WHEELS
 10
0.65
 20
-0.0353553390593271
 30
-0.0353553390593277
 11
0.65
 21
0.0000000000000002
 31
-0.0500000000000011
 12
0.65
 22
0.0000000000000002
 32
-0.02
 13
0.65
 23
-0.0141421356237312
 33
-0.014142135623731
  0
3DFACE
  5
F86
  8
WHEELS
 10
0.65
 20
0.0000000000000002
 30
-0.02
 11
0.65
 21
0.0141421356237308
 31
-0.014142135623731
 12
0.75
 22
0.0141421356237308
 32
-0.014142135623731
 13
0.75
 23
0.0000000000000002
 33
-0.02
  0
3DFACE
  5
F87
  8
WHEELS
 10
0.65
 20
-0.0141421356237312
 30
-0.014142135623731
 11
0.65
 21
0.0000000000000002
 31
-0.02
 12
0.75
 22
0.0000000000000002
 32
-0.02
 13
0.75
 23
-0.0141421356237312
 33
-0.014142135623731
  0
3DFACE
  5
F88
  8
WHEELS
 10
0.63
 20
0.0000000000000002
 30
-0.0500000000000011
 11
0.63
 21
0.0353553390593275
 31
-0.0353553390593277
 12
0.65
 22
0.0353553390593275
 32
-0.0353553390593277
 13
0.65
 23
0.0000000000000002
 33
-0.0500000000000011
  0
3DFACE
  5
F89
  8
WHEELS
 10
0.63
 20
-0.0353553390593271
 30
-0.0353553390593277
 11
0.63
 21
0.0000000000000002
 31
-0.0500000000000011
 12
0.65
 22
0.0000000000000002
 32
-0.0500000000000011
 13
0.65
 23
-0.0353553390593271
 33
-0.0353553390593277
  0
3DFACE
  5
F8A
  8
WHEELS
 10
0.65
 20
-0.0499999999999987
 30
-0.0000000000000004
 11
0.65
 21
-0.035355339059328
 31
-0.0353553390593295
 12
0.65
 22
-0.0141421356237304
 32
-0.014142135623731
 13
0.65
 23
-0.0199999999999994
 33
-0.0000000000000004
  0
3DFACE
  5
F8B
  8
WHEELS
 10
0.65
 20
0.0353553390593275
 30
-0.0353553390593277
 11
0.65
 21
0.0500000000000009
 31
-0.0000000000000004
 12
0.65
 22
0.0199999999999989
 32
-0.0000000000000004
 13
0.65
 23
0.0141421356237299
 33
-0.014142135623731
  0
3DFACE
  5
F8C
  8
WHEELS
 10
0.65
 20
0.0141421356237308
 30
-0.014142135623731
 11
0.65
 21
0.0199999999999998
 31
-0.0000000000000004
 12
0.75
 22
0.0199999999999998
 32
-0.0000000000000004
 13
0.75
 23
0.0141421356237308
 33
-0.014142135623731
  0
3DFACE
  5
F8D
  8
WHEELS
 10
0.65
 20
-0.0200000000000003
 30
-0.0000000000000004
 11
0.65
 21
-0.0141421356237312
 31
-0.014142135623731
 12
0.75
 22
-0.0141421356237312
 32
-0.014142135623731
 13
0.75
 23
-0.0200000000000003
 33
-0.0000000000000004
  0
3DFACE
  5
F8E
  8
WHEELS
 10
0.63
 20
0.0353553390593275
 30
-0.0353553390593277
 11
0.63
 21
0.0500000000000001
 31
-0.0000000000000004
 12
0.65
 22
0.0500000000000001
 32
-0.0000000000000004
 13
0.65
 23
0.0353553390593275
 33
-0.0353553390593277
  0
3DFACE
  5
F8F
  8
WHEELS
 10
0.63
 20
-0.0500000000000001
 30
-0.0000000000000004
 11
0.63
 21
-0.0353553390593271
 31
-0.0353553390593277
 12
0.65
 22
-0.0353553390593271
 32
-0.0353553390593277
 13
0.65
 23
-0.0500000000000001
 33
-0.0000000000000004
  0
3DFACE
  5
F90
  8
WHEELS
 10
0.59
 20
-0.1905255888325763
 30
-0.1099999999999998
 11
0.59
 21
-0.2199999999999986
 31
-0.0000000000000004
 12
0.59
 22
-0.0500000000000005
 32
-0.0000000000000004
 13
0.59
 23
-0.0353553390593271
 33
-0.0353553390593277
  0
3DFACE
  5
F91
  8
WHEELS
 10
0.5600000000000001
 20
-0.1991858428704203
 30
-0.1150000000000006
 11
0.5600000000000001
 21
-0.2300000000000002
 31
-0.0000000000000004
 12
0.5600000000000001
 22
-0.2199999999999986
 32
-0.0000000000000004
 13
0.5600000000000001
 23
-0.1905255888325763
 33
-0.1099999999999998
  0
3DFACE
  5
F92
  8
WHEELS
 10
0.6
 20
-0.1991858428704212
 30
-0.1150000000000006
 11
0.6
 21
-0.2300000000000002
 31
-0.0000000000000004
 12
0.5600000000000001
 22
-0.2300000000000002
 32
-0.0000000000000004
 13
0.5600000000000001
 23
-0.1991858428704212
 33
-0.1150000000000006
  0
3DFACE
  5
F93
  8
WHEELS
 10
0.59
 20
-0.22
 30
-0.0000000000000004
 11
0.59
 21
-0.1905255888325763
 31
-0.1099999999999998
 12
0.5600000000000001
 22
-0.1905255888325763
 32
-0.1099999999999998
 13
0.5600000000000001
 23
-0.22
 33
-0.0000000000000004
  0
3DFACE
  5
F94
  8
WHEELS
 10
0.59
 20
0.0000000000000002
 30
-0.2199999999999993
 11
0.59
 21
-0.1099999999999992
 31
-0.1905255888325769
 12
0.59
 22
0.0000000000000002
 32
-0.0500000000000011
 13
0.59
 23
0.0000000000000002
 33
-0.0500000000000011
  0
3DFACE
  5
F95
  8
WHEELS
 10
0.59
 20
-0.1099999999999992
 30
-0.1905255888325769
 11
0.59
 21
-0.1905255888325763
 31
-0.1099999999999998
 12
0.59
 22
-0.0353553390593271
 32
-0.0353553390593277
 13
0.59
 23
0.0000000000000002
 33
-0.0500000000000011
  0
3DFACE
  5
F96
  8
WHEELS
 10
0.6200000000000001
 20
-0.0141421356237312
 30
-0.0141421356237327
 11
0.6200000000000001
 21
0.0000000000000002
 31
-0.02
 12
0.6200000000000001
 22
0.0000000000000002
 32
-0.2300000000000008
 13
0.6200000000000001
 23
-0.115
 33
-0.1991858428704209
  0
3DFACE
  5
F97
  8
WHEELS
 10
0.6200000000000001
 20
-0.0141421356237312
 30
-0.0141421356237327
 11
0.6200000000000001
 21
-0.0141421356237312
 31
-0.0141421356237327
 12
0.6200000000000001
 22
-0.115
 32
-0.1991858428704209
 13
0.6200000000000001
 23
-0.1991858428704212
 33
-0.1150000000000024
  0
3DFACE
  5
F98
  8
WHEELS
 10
0.6200000000000001
 20
-0.0199999999999994
 30
-0.0000000000000004
 11
0.6200000000000001
 21
-0.0141421356237321
 31
-0.014142135623731
 12
0.6200000000000001
 22
-0.1991858428704203
 32
-0.1150000000000006
 13
0.6200000000000001
 23
-0.2300000000000002
 33
-0.0000000000000004
  0
3DFACE
  5
F99
  8
WHEELS
 10
0.6000000000000001
 20
-0.0141421356237321
 30
-0.014142135623731
 11
0.6000000000000001
 21
-0.0199999999999994
 31
-0.0000000000000004
 12
0.6000000000000001
 22
-0.2300000000000002
 32
-0.0000000000000004
 13
0.6000000000000001
 23
-0.1991858428704203
 33
-0.1150000000000006
  0
3DFACE
  5
F9A
  8
WHEELS
 10
0.6000000000000001
 20
-0.0141421356237321
 30
-0.014142135623731
 11
0.6000000000000001
 21
-0.0141421356237321
 31
-0.014142135623731
 12
0.6000000000000001
 22
-0.1991858428704203
 32
-0.1150000000000006
 13
0.6000000000000001
 23
-0.1150000000000018
 33
-0.1991858428704209
  0
3DFACE
  5
F9B
  8
WHEELS
 10
0.6000000000000001
 20
-0.0000000000000002
 30
-0.0199999999999982
 11
0.6000000000000001
 21
-0.0141421356237312
 31
-0.014142135623731
 12
0.6000000000000001
 22
-0.115
 32
-0.1991858428704209
 13
0.6000000000000001
 23
-0.0000000000000002
 33
-0.229999999999999
  0
3DFACE
  5
F9C
  8
WHEELS
 10
0.63
 20
-0.1100000000000001
 30
-0.1905255888325769
 11
0.63
 21
0.0000000000000002
 31
-0.2199999999999993
 12
0.63
 22
0.0000000000000002
 32
-0.0500000000000011
 13
0.63
 23
-0.0353553390593271
 33
-0.0353553390593277
  0
3DFACE
  5
F9D
  8
WHEELS
 10
0.6600000000000001
 20
-0.2299999999999993
 30
-0.0000000000000004
 11
0.6600000000000001
 21
-0.1991858428704203
 31
-0.1150000000000006
 12
0.6600000000000001
 22
-0.1905255888325745
 32
-0.1099999999999998
 13
0.6600000000000001
 23
-0.2199999999999995
 33
-0.0000000000000004
  0
3DFACE
  5
F9E
  8
WHEELS
 10
0.63
 20
-0.22
 30
-0.0000000000000004
 11
0.63
 21
-0.1905255888325763
 31
-0.1099999999999998
 12
0.63
 22
-0.0500000000000001
 32
-0.0000000000000004
 13
0.63
 23
-0.0500000000000001
 33
-0.0000000000000004
  0
3DFACE
  5
F9F
  8
WHEELS
 10
0.63
 20
-0.1905255888325763
 30
-0.1099999999999998
 11
0.63
 21
-0.1100000000000001
 31
-0.1905255888325769
 12
0.63
 22
-0.0353553390593271
 32
-0.0353553390593277
 13
0.63
 23
-0.0500000000000001
 33
-0.0000000000000004
  0
3DFACE
  5
FA0
  8
WHEELS
 10
0.6200000000000001
 20
-0.2300000000000002
 30
-0.0000000000000004
 11
0.6200000000000001
 21
-0.1991858428704212
 31
-0.1150000000000006
 12
0.6600000000000001
 22
-0.1991858428704212
 32
-0.1150000000000006
 13
0.6600000000000001
 23
-0.2300000000000002
 33
-0.0000000000000004
  0
3DFACE
  5
FA1
  8
WHEELS
 10
0.63
 20
-0.1905255888325763
 30
-0.1099999999999998
 11
0.63
 21
-0.22
 31
-0.0000000000000004
 12
0.6600000000000001
 22
-0.22
 32
-0.0000000000000004
 13
0.6600000000000001
 23
-0.1905255888325763
 33
-0.1099999999999998
  0
3DFACE
  5
FA2
  8
WHEELS
 10
0.5600000000000001
 20
0.1991858428704207
 30
0.1149999999999998
 11
0.5600000000000001
 21
0.2300000000000006
 31
-0.0000000000000004
 12
0.5600000000000001
 22
0.2199999999999991
 32
-0.0000000000000004
 13
0.5600000000000001
 23
0.1905255888325767
 33
0.109999999999999
  0
3DFACE
  5
FA3
  8
WHEELS
 10
0.6
 20
0.1991858428704207
 30
0.1149999999999998
 11
0.6
 21
0.2299999999999998
 31
-0.0000000000000004
 12
0.5600000000000001
 22
0.2299999999999998
 32
-0.0000000000000004
 13
0.5600000000000001
 23
0.1991858428704207
 33
0.1149999999999998
  0
3DFACE
  5
FA4
  8
WHEELS
 10
0.59
 20
0.22
 30
-0.0000000000000004
 11
0.59
 21
0.1905255888325767
 31
0.109999999999999
 12
0.5600000000000001
 22
0.1905255888325767
 32
0.109999999999999
 13
0.5600000000000001
 23
0.22
 33
-0.0000000000000004
  0
3DFACE
  5
FA5
  8
WHEELS
 10
0.6600000000000001
 20
0.2299999999999989
 30
-0.0000000000000004
 11
0.6600000000000001
 21
0.1991858428704198
 31
0.1150000000000016
 12
0.6600000000000001
 22
0.1905255888325741
 32
0.109999999999999
 13
0.6600000000000001
 23
0.2199999999999991
 33
0.0000000000000005
  0
3DFACE
  5
FA6
  8
WHEELS
 10
0.6200000000000001
 20
0.2299999999999998
 30
-0.0000000000000004
 11
0.6200000000000001
 21
0.1991858428704207
 31
0.1149999999999998
 12
0.6600000000000001
 22
0.1991858428704207
 32
0.1149999999999998
 13
0.6600000000000001
 23
0.2299999999999998
 33
-0.0000000000000004
  0
3DFACE
  5
FA7
  8
WHEELS
 10
0.63
 20
0.1905255888325767
 30
0.109999999999999
 11
0.63
 21
0.22
 31
-0.0000000000000004
 12
0.6600000000000001
 22
0.22
 32
-0.0000000000000004
 13
0.6600000000000001
 23
0.1905255888325767
 33
0.109999999999999
  0
3DFACE
  5
FA8
  8
WHEELS
 10
0.5600000000000001
 20
0.1149999999999995
 30
0.1991858428704201
 11
0.5600000000000001
 21
0.1991858428704207
 31
0.1149999999999998
 12
0.5600000000000001
 22
0.190525588832575
 32
0.109999999999999
 13
0.5600000000000001
 23
0.1099999999999988
 33
0.1905255888325761
  0
3DFACE
  5
FA9
  8
WHEELS
 10
0.6
 20
0.115
 30
0.1991858428704201
 11
0.6
 21
0.1991858428704207
 31
0.1149999999999998
 12
0.5600000000000001
 22
0.1991858428704207
 32
0.1149999999999998
 13
0.5600000000000001
 23
0.115
 33
0.1991858428704201
  0
3DFACE
  5
FAA
  8
WHEELS
 10
0.59
 20
0.1905255888325767
 30
0.109999999999999
 11
0.59
 21
0.1100000000000001
 31
0.1905255888325761
 12
0.5600000000000001
 22
0.1100000000000001
 32
0.1905255888325761
 13
0.5600000000000001
 23
0.1905255888325767
 33
0.109999999999999
  0
3DFACE
  5
FAB
  8
WHEELS
 10
0.66
 20
0.1991858428704207
 30
0.1149999999999998
 11
0.66
 21
0.1150000000000004
 31
0.1991858428704201
 12
0.66
 22
0.1099999999999996
 32
0.1905255888325743
 13
0.66
 23
0.1905255888325759
 33
0.109999999999999
  0
3DFACE
  5
FAC
  8
WHEELS
 10
0.6200000000000001
 20
0.1991858428704207
 30
0.1149999999999998
 11
0.6200000000000001
 21
0.115
 31
0.1991858428704201
 12
0.6600000000000001
 22
0.115
 32
0.1991858428704201
 13
0.6600000000000001
 23
0.1991858428704207
 33
0.1149999999999998
  0
3DFACE
  5
FAD
  8
WHEELS
 10
0.63
 20
0.1100000000000001
 30
0.1905255888325761
 11
0.63
 21
0.1905255888325767
 31
0.109999999999999
 12
0.6600000000000001
 22
0.1905255888325767
 32
0.109999999999999
 13
0.6600000000000001
 23
0.1100000000000001
 33
0.1905255888325761
  0
3DFACE
  5
FAE
  8
WHEELS
 10
0.5600000000000001
 20
0.1991858428704207
 30
-0.1150000000000006
 11
0.5600000000000001
 21
0.1150000000000004
 31
-0.1991858428704209
 12
0.5600000000000001
 22
0.1099999999999996
 32
-0.1905255888325751
 13
0.5600000000000001
 23
0.1905255888325759
 33
-0.1099999999999998
  0
3DFACE
  5
FAF
  8
WHEELS
 10
0.6
 20
0.1991858428704207
 30
-0.1150000000000006
 11
0.6
 21
0.115
 31
-0.1991858428704209
 12
0.5600000000000001
 22
0.115
 32
-0.1991858428704209
 13
0.5600000000000001
 23
0.1991858428704207
 33
-0.1150000000000006
  0
3DFACE
  5
FB0
  8
WHEELS
 10
0.59
 20
0.1100000000000001
 30
-0.1905255888325769
 11
0.59
 21
0.1905255888325767
 31
-0.1099999999999998
 12
0.5600000000000001
 22
0.1905255888325767
 32
-0.1099999999999998
 13
0.5600000000000001
 23
0.1100000000000001
 33
-0.1905255888325769
  0
3DFACE
  5
FB1
  8
WHEELS
 10
0.6600000000000001
 20
0.1149999999999995
 30
-0.1991858428704209
 11
0.6600000000000001
 21
0.1991858428704207
 31
-0.1150000000000006
 12
0.6600000000000001
 22
0.190525588832575
 32
-0.1099999999999998
 13
0.6600000000000001
 23
0.1099999999999988
 33
-0.1905255888325769
  0
3DFACE
  5
FB2
  8
WHEELS
 10
0.6200000000000001
 20
0.115
 30
-0.1991858428704209
 11
0.6200000000000001
 21
0.1991858428704207
 31
-0.1150000000000006
 12
0.6600000000000001
 22
0.1991858428704207
 32
-0.1150000000000006
 13
0.6600000000000001
 23
0.115
 33
-0.1991858428704209
  0
3DFACE
  5
FB3
  8
WHEELS
 10
0.63
 20
0.1905255888325767
 30
-0.1099999999999998
 11
0.63
 21
0.1100000000000001
 31
-0.1905255888325769
 12
0.6600000000000001
 22
0.1100000000000001
 32
-0.1905255888325769
 13
0.6600000000000001
 23
0.1905255888325767
 33
-0.1099999999999998
  0
3DFACE
  5
FB4
  8
WHEELS
 10
0.5600000000000001
 20
0.2299999999999989
 30
-0.0000000000000004
 11
0.5600000000000001
 21
0.1991858428704198
 31
-0.1150000000000024
 12
0.5600000000000001
 22
0.1905255888325741
 32
-0.1099999999999998
 13
0.5600000000000001
 23
0.2199999999999991
 33
-0.0000000000000013
  0
3DFACE
  5
FB5
  8
WHEELS
 10
0.6
 20
0.2299999999999998
 30
-0.0000000000000004
 11
0.6
 21
0.1991858428704207
 31
-0.1150000000000006
 12
0.5600000000000001
 22
0.1991858428704207
 32
-0.1150000000000006
 13
0.5600000000000001
 23
0.2299999999999998
 33
-0.0000000000000004
  0
3DFACE
  5
FB6
  8
WHEELS
 10
0.59
 20
0.1905255888325767
 30
-0.1099999999999998
 11
0.59
 21
0.22
 31
-0.0000000000000004
 12
0.5600000000000001
 22
0.22
 32
-0.0000000000000004
 13
0.5600000000000001
 23
0.1905255888325767
 33
-0.1099999999999998
  0
3DFACE
  5
FB7
  8
WHEELS
 10
0.6600000000000001
 20
0.1991858428704207
 30
-0.1150000000000006
 11
0.6600000000000001
 21
0.2300000000000006
 31
-0.0000000000000004
 12
0.6600000000000001
 22
0.2199999999999991
 32
-0.0000000000000004
 13
0.6600000000000001
 23
0.1905255888325767
 33
-0.1099999999999998
  0
3DFACE
  5
FB8
  8
WHEELS
 10
0.6200000000000001
 20
0.1991858428704207
 30
-0.1150000000000006
 11
0.6200000000000001
 21
0.2299999999999998
 31
-0.0000000000000004
 12
0.6600000000000001
 22
0.2299999999999998
 32
-0.0000000000000004
 13
0.6600000000000001
 23
0.1991858428704207
 33
-0.1150000000000006
  0
3DFACE
  5
FB9
  8
WHEELS
 10
0.63
 20
0.22
 30
-0.0000000000000004
 11
0.63
 21
0.1905255888325767
 31
-0.1099999999999998
 12
0.6600000000000001
 22
0.1905255888325767
 32
-0.1099999999999998
 13
0.6600000000000001
 23
0.22
 33
-0.0000000000000004
  0
VIEWPORT
  5
2E
 67
     1
  8
0
 10
144.7270812988281
 20
101.2295806407928
 30
0.0
 40
391.13550988316581
 41
222.15178063964839
 68
     2
 69
     1
1001
ACAD
1000
MVIEW
1002
{
1070
    16
1010
0.0
1020
0.0
1030
0.0
1010
0.0
1020
0.0
1030
1.0
1040
0.0
1040
222.15178063964839
1040
144.7270812988281
1040
101.2295806407928
1040
50.0
1040
0.0
1040
0.0
1070
     0
1070
   100
1070
     1
1070
     1
1070
     0
1070
     0
1070
     0
1070
     0
1040
0.0
1040
0.0
1040
0.0
1040
10.0
1040
10.0
1040
10.0
1040
10.0
1070
     0
1002
{
1002
}
1002
}
  0
VIEWPORT
  5
30
 67
     1
  8
0
 10
139.22375631332389
 20
100.8062499761581
 30
0.0
 40
222.75801010131829
 41
161.289999961853
 68
     1
 69
     2
1001
ACAD
1000
MVIEW
1002
{
1070
    16
1010
0.0
1020
0.0
1030
0.0
1010
0.0
1020
0.0
1030
1.0
1040
0.0
1040
307.49010134148989
1040
210.0
1040
148.5
1040
50.0
1040
0.0
1040
0.0
1070
     0
1070
   100
1070
     1
1070
     3
1070
     0
1070
     1
1070
     0
1070
     0
1040
0.0
1040
0.0
1040
0.0
1040
10.0
1040
10.0
1040
10.0
1040
10.0
1070
     0
1002
{
1002
}
1002
}
  0
ENDSEC
  0
EOF
