  0
SECTION
  2
HEADER
  9
$ACADVER
  1
AC1009
  9
$INSBASE
 10
0.0
 20
0.0
 30
0.0
  9
$EXTMIN
 10
-10.16
 20
-47.609999999999999
 30
-19.962
  9
$EXTMAX
 10
6.9900000000000002
 20
20.329999999999998
 30
21.48949026755853
  9
$LIMMIN
 10
0.0
 20
0.0
  9
$LIMMAX
 10
420.0
 20
297.0
  9
$ORTHOMODE
 70
     1
  9
$REGENMODE
 70
     1
  9
$FILLMODE
 70
     1
  9
$QTEXTMODE
 70
     0
  9
$MIRRTEXT
 70
     1
  9
$DRAGMODE
 70
     2
  9
$LTSCALE
 40
1.0
  9
$OSMODE
 70
    35
  9
$ATTMODE
 70
     1
  9
$TEXTSIZE
 40
2.5
  9
$TRACEWID
 40
1.0
  9
$TEXTSTYLE
  7
STANDARD
  9
$CLAYER
  8
WING
  9
$CELTYPE
  6
BYLAYER
  9
$CECOLOR
 62
   256
  9
$DIMSCALE
 40
1.0
  9
$DIMASZ
 40
2.5
  9
$DIMEXO
 40
0.625
  9
$DIMDLI
 40
3.75
  9
$DIMRND
 40
0.0
  9
$DIMDLE
 40
0.0
  9
$DIMEXE
 40
1.25
  9
$DIMTP
 40
0.0
  9
$DIMTM
 40
0.0
  9
$DIMTXT
 40
2.5
  9
$DIMCEN
 40
2.5
  9
$DIMTSZ
 40
0.0
  9
$DIMTOL
 70
     0
  9
$DIMLIM
 70
     0
  9
$DIMTIH
 70
     0
  9
$DIMTOH
 70
     0
  9
$DIMSE1
 70
     0
  9
$DIMSE2
 70
     0
  9
$DIMTAD
 70
     1
  9
$DIMZIN
 70
     8
  9
$DIMBLK
  1

  9
$DIMASO
 70
     1
  9
$DIMSHO
 70
     1
  9
$DIMPOST
  1

  9
$DIMAPOST
  1

  9
$DIMALT
 70
     0
  9
$DIMALTD
 70
     3
  9
$DIMALTF
 40
0.03937007874016
  9
$DIMLFAC
 40
1.0
  9
$DIMTOFL
 70
     1
  9
$DIMTVP
 40
0.0
  9
$DIMTIX
 70
     0
  9
$DIMSOXD
 70
     0
  9
$DIMSAH
 70
     0
  9
$DIMBLK1
  1

  9
$DIMBLK2
  1

  9
$DIMSTYLE
  2
ISO-25
  9
$DIMCLRD
 70
     0
  9
$DIMCLRE
 70
     0
  9
$DIMCLRT
 70
     0
  9
$DIMTFAC
 40
1.0
  9
$DIMGAP
 40
0.625
  9
$LUNITS
 70
     2
  9
$LUPREC
 70
     4
  9
$SKETCHINC
 40
1.0
  9
$FILLETRAD
 40
10.0
  9
$AUNITS
 70
     0
  9
$AUPREC
 70
     0
  9
$MENU
  1
.
  9
$ELEVATION
 40
0.0
  9
$PELEVATION
 40
0.0
  9
$THICKNESS
 40
0.0
  9
$LIMCHECK
 70
     0
  9
$BLIPMODE
 70
     0
  9
$CHAMFERA
 40
10.0
  9
$CHAMFERB
 40
10.0
  9
$SKPOLY
 70
     0
  9
$TDCREATE
 40
2458180.0608217702
  9
$TDUPDATE
 40
2458186.5173674421
  9
$TDINDWG
 40
1.6381736689999999
  9
$TDUSRTIMER
 40
1.6381736574000001
  9
$USRTIMER
 70
     1
  9
$ANGBASE
 50
0.0
  9
$ANGDIR
 70
     0
  9
$PDMODE
 70
     0
  9
$PDSIZE
 40
0.0
  9
$PLINEWID
 40
0.0
  9
$COORDS
 70
     1
  9
$SPLFRAME
 70
     0
  9
$SPLINETYPE
 70
     6
  9
$SPLINESEGS
 70
     8
  9
$ATTDIA
 70
     1
  9
$ATTREQ
 70
     1
  9
$HANDLING
 70
-16383
  9
$HANDSEED
  5
10C3
  9
$SURFTAB1
 70
     6
  9
$SURFTAB2
 70
     6
  9
$SURFTYPE
 70
     6
  9
$SURFU
 70
     6
  9
$SURFV
 70
     6
  9
$UCSNAME
  2

  9
$UCSORG
 10
0.0
 20
0.0
 30
0.0
  9
$UCSXDIR
 10
0.0
 20
-1.0
 30
0.0
  9
$UCSYDIR
 10
0.0
 20
0.0
 30
1.0
  9
$PUCSNAME
  2

  9
$PUCSORG
 10
0.0
 20
0.0
 30
0.0
  9
$PUCSXDIR
 10
1.0
 20
0.0
 30
0.0
  9
$PUCSYDIR
 10
0.0
 20
1.0
 30
0.0
  9
$USERI1
 70
     0
  9
$USERI2
 70
     0
  9
$USERI3
 70
     0
  9
$USERI4
 70
     0
  9
$USERI5
 70
     0
  9
$USERR1
 40
0.0
  9
$USERR2
 40
0.0
  9
$USERR3
 40
0.0
  9
$USERR4
 40
0.0
  9
$USERR5
 40
0.0
  9
$WORLDVIEW
 70
     1
  9
$SHADEDGE
 70
     3
  9
$SHADEDIF
 70
    70
  9
$TILEMODE
 70
     1
  9
$MAXACTVP
 70
    64
  9
$PLIMCHECK
 70
     0
  9
$PEXTMIN
 10
27.844751262664801
 20
20.161249995231621
 30
0.0
  9
$PEXTMAX
 10
250.60276136398309
 20
181.4512499570846
 30
0.0
  9
$PLIMMIN
 10
-3.757080078125
 20
-3.7570831775665279
  9
$PLIMMAX
 10
293.21124267578119
 20
206.21624445915219
  9
$UNITMODE
 70
     0
  9
$VISRETAIN
 70
     1
  9
$PLINEGEN
 70
     0
  9
$PSLTSCALE
 70
     1
  0
ENDSEC
  0
SECTION
  2
TABLES
  0
TABLE
  2
VPORT
 70
    10
  0
VPORT
  2
*ACTIVE
 70
     0
 10
0.0
 20
0.0
 11
1.0
 21
1.0
 12
18.877580831460719
 22
-11.03307761065202
 13
0.0
 23
0.0
 14
0.005
 24
0.005
 15
1.0
 25
1.0
 16
-1.0
 26
0.0
 36
0.0
 17
0.0
 27
0.0
 37
0.0
 40
75.930170252967685
 41
2.1655092592592591
 42
50.0
 43
0.0
 44
0.0
 50
0.0
 51
0.0
 71
     0
 72
   100
 73
     1
 74
     3
 75
     1
 76
     1
 77
     0
 78
     0
  0
ENDTAB
  0
TABLE
  2
LTYPE
 70
     1
  0
LTYPE
  2
CONTINUOUS
 70
     0
  3
Solid line
 72
    65
 73
     0
 40
0.0
  0
ENDTAB
  0
TABLE
  2
LAYER
 70
     8
  0
LAYER
  2
0
 70
     0
 62
     7
  6
CONTINUOUS
  0
LAYER
  2
_REF
 70
     0
 62
     8
  6
CONTINUOUS
  0
LAYER
  2
_TMP
 70
     0
 62
     4
  6
CONTINUOUS
  0
LAYER
  2
PROPELLER
 70
     0
 62
     1
  6
CONTINUOUS
  0
LAYER
  2
HULL_HALF
 70
     0
 62
     2
  6
CONTINUOUS
  0
LAYER
  2
WING
 70
     0
 62
     5
  6
CONTINUOUS
  0
LAYER
  2
GUN
 70
     0
 62
     1
  6
CONTINUOUS
  0
LAYER
  2
TURRET
 70
     0
 62
     2
  6
CONTINUOUS
  0
ENDTAB
  0
TABLE
  2
STYLE
 70
     1
  0
STYLE
  2
STANDARD
 70
     0
 40
0.0
 41
1.0
 50
0.0
 71
     0
 42
2.5
  3
txt
  4

  0
ENDTAB
  0
TABLE
  2
VIEW
 70
     0
  0
ENDTAB
  0
TABLE
  2
UCS
 70
     0
  0
ENDTAB
  0
TABLE
  2
APPID
 70
     1
  0
APPID
  2
ACAD
 70
     0
  0
ENDTAB
  0
TABLE
  2
DIMSTYLE
 70
     1
  0
DIMSTYLE
  2
ISO-25
 70
     0
  3

  4

  5

  6

  7

 40
1.0
 41
2.5
 42
0.625
 43
3.75
 44
1.25
 45
0.0
 46
0.0
 47
0.0
 48
0.0
140
2.5
141
2.5
142
0.0
143
0.03937007874016
144
1.0
145
0.0
146
1.0
147
0.625
 71
     0
 72
     0
 73
     0
 74
     0
 75
     0
 76
     0
 77
     1
 78
     8
170
     0
171
     3
172
     1
173
     0
174
     0
175
     0
176
     0
177
     0
178
     0
  0
ENDTAB
  0
ENDSEC
  0
SECTION
  2
BLOCKS
  0
BLOCK
  8
0
  2
$MODEL_SPACE
 70
     0
 10
0.0
 20
0.0
 30
0.0
  3
$MODEL_SPACE
  1

  0
ENDBLK
  5
21
  8
0
  0
BLOCK
 67
     1
  8
0
  2
$PAPER_SPACE
 70
     0
 10
0.0
 20
0.0
 30
0.0
  3
$PAPER_SPACE
  1

  0
ENDBLK
  5
1D
 67
     1
  8
0
  0
ENDSEC
  0
SECTION
  2
ENTITIES
  0
3DFACE
  5
5E1
  8
WING
 10
0.0
 20
2.9100000000000001
 30
0.3999999999999986
 11
0.1500000000000003
 21
2.9100000000000001
 31
0.3999999999999986
 12
0.1500000000000003
 22
4.3899999999999997
 32
0.3999999999999986
 13
0.0
 23
4.3899999999999997
 33
0.3999999999999986
  0
3DFACE
  5
5E2
  8
WING
 10
0.1500000000000003
 20
2.9100000000000001
 30
0.2400000000000002
 11
0.0
 21
2.9100000000000001
 31
0.2400000000000002
 12
0.0
 22
4.3899999999999997
 32
0.2400000000000002
 13
0.1500000000000003
 23
4.3899999999999997
 33
0.2400000000000002
  0
3DFACE
  5
5E5
  8
WING
 10
0.24
 20
2.9100000000000001
 30
0.2400000000000002
 11
0.15
 21
2.9100000000000001
 31
0.2400000000000002
 12
0.15
 22
4.3899999999999997
 32
0.2400000000000002
 13
0.24
 23
4.3600000000000003
 33
0.2400000000000002
  0
3DFACE
  5
5E6
  8
WING
 10
0.15
 20
2.9100000000000001
 30
0.3999999999999986
 11
0.24
 21
2.9100000000000001
 31
0.3999999999999986
 12
0.24
 22
4.3600000000000003
 32
0.3999999999999986
 13
0.15
 23
4.3899999999999997
 33
0.3999999999999986
  0
3DFACE
  5
5E7
  8
WING
 10
0.38
 20
2.9100000000000001
 30
0.2400000000000002
 11
0.24
 21
2.9100000000000001
 31
0.2400000000000002
 12
0.24
 22
4.3600000000000003
 32
0.2400000000000002
 13
0.38
 23
4.339999999999999
 33
0.2400000000000002
  0
3DFACE
  5
5E8
  8
WING
 10
0.24
 20
2.9100000000000001
 30
0.3999999999999986
 11
0.38
 21
2.9100000000000001
 31
0.3999999999999986
 12
0.38
 22
4.339999999999999
 32
0.3999999999999986
 13
0.24
 23
4.3600000000000003
 33
0.3999999999999986
  0
3DFACE
  5
5E9
  8
WING
 10
2.0600000000000001
 20
3.4900000000000002
 30
0.2599999999999998
 11
0.38
 21
2.9100000000000001
 31
0.2400000000000002
 12
0.38
 22
4.339999999999999
 32
0.2400000000000002
 13
2.0600000000000001
 23
4.169999999999999
 33
0.2599999999999998
  0
3DFACE
  5
5EA
  8
WING
 10
0.38
 20
2.9100000000000001
 30
0.3999999999999986
 11
2.0600000000000001
 21
3.4900000000000002
 31
0.3800000000000008
 12
2.0600000000000001
 22
4.169999999999999
 32
0.3800000000000008
 13
0.38
 23
4.339999999999999
 33
0.3999999999999986
  0
3DFACE
  5
5EB
  8
WING
 10
2.2099999999999991
 20
3.5800000000000001
 30
0.2599999999999998
 11
2.0600000000000001
 21
3.4900000000000002
 31
0.2599999999999998
 12
2.0600000000000001
 22
4.169999999999999
 32
0.2599999999999998
 13
2.2099999999999991
 23
3.8500000000000001
 33
0.2599999999999998
  0
3DFACE
  5
5EC
  8
WING
 10
2.0600000000000001
 20
3.4900000000000002
 30
0.3800000000000008
 11
2.2099999999999991
 21
3.5800000000000001
 31
0.3800000000000008
 12
2.2099999999999991
 22
3.8500000000000001
 32
0.3800000000000008
 13
2.0600000000000001
 23
4.169999999999999
 33
0.3800000000000008
  0
3DFACE
  5
5F1
  8
WING
 10
2.2099999999999991
 20
3.8500000000000001
 30
0.3800000000000008
 11
2.2799999999999998
 21
3.8500000000000001
 31
0.370000000000001
 12
2.2799999999999998
 22
4.0599999999999996
 32
0.370000000000001
 13
2.2099999999999991
 23
4.1100000000000003
 33
0.3800000000000008
  0
3DFACE
  5
5F2
  8
WING
 10
2.2799999999999998
 20
3.8500000000000001
 30
0.2599999999999998
 11
2.2099999999999991
 21
3.8500000000000001
 31
0.2599999999999998
 12
2.2099999999999991
 22
4.1100000000000003
 32
0.2599999999999998
 13
2.2799999999999998
 23
4.0599999999999996
 33
0.2599999999999998
  0
3DFACE
  5
5F3
  8
WING
 10
2.2099999999999991
 20
3.8500000000000001
 30
0.2599999999999998
 11
2.0600000000000001
 21
4.169999999999999
 31
0.2599999999999998
 12
2.0600000000000001
 22
4.169999999999999
 32
0.2599999999999998
 13
2.2099999999999991
 23
4.1100000000000003
 33
0.2599999999999998
  0
3DFACE
  5
5F4
  8
WING
 10
2.0600000000000001
 20
4.169999999999999
 30
0.3800000000000008
 11
2.2099999999999991
 21
3.8500000000000001
 31
0.3800000000000008
 12
2.2099999999999991
 22
4.1100000000000003
 32
0.3800000000000008
 13
2.0600000000000001
 23
4.169999999999999
 33
0.3800000000000008
  0
3DFACE
  5
5F5
  8
WING
 10
2.3300000000000001
 20
3.8900000000000001
 30
0.2800000000000011
 11
2.2799999999999998
 21
3.8500000000000001
 31
0.2599999999999998
 12
2.2799999999999998
 22
4.0599999999999996
 32
0.2599999999999998
 13
2.3300000000000001
 23
3.9900000000000002
 33
0.2800000000000011
  0
3DFACE
  5
5F6
  8
WING
 10
2.2799999999999998
 20
3.8500000000000001
 30
0.370000000000001
 11
2.3300000000000001
 21
3.8900000000000001
 31
0.3600000000000012
 12
2.3300000000000001
 22
3.9900000000000002
 32
0.3600000000000012
 13
2.2799999999999998
 23
4.0599999999999996
 33
0.370000000000001
  0
3DFACE
  5
5F9
  8
WING
 10
0.1500000000000003
 20
2.6600000000000001
 30
0.3199999999999985
 11
0.0
 21
2.6600000000000001
 31
0.3200000000000003
 12
0.0
 22
2.9100000000000001
 32
0.2400000000000002
 13
0.1500000000000003
 23
2.9100000000000001
 33
0.2400000000000002
  0
3DFACE
  5
5FA
  8
WING
 10
0.0
 20
2.6600000000000001
 30
0.3200000000000003
 11
0.1500000000000003
 21
2.6600000000000001
 31
0.3199999999999985
 12
0.1500000000000003
 22
2.9100000000000001
 32
0.3999999999999986
 13
0.0
 23
2.9100000000000001
 33
0.3999999999999986
  0
3DFACE
  5
5FB
  8
WING
 10
0.2400000000000002
 20
2.6600000000000001
 30
0.3199999999999985
 11
0.1500000000000003
 21
2.6600000000000001
 31
0.3200000000000003
 12
0.1500000000000003
 22
2.9100000000000001
 32
0.2400000000000002
 13
0.2400000000000002
 23
2.9100000000000001
 33
0.2400000000000002
  0
3DFACE
  5
5FC
  8
WING
 10
0.1500000000000003
 20
2.6600000000000001
 30
0.3200000000000003
 11
0.2400000000000002
 21
2.6600000000000001
 31
0.3199999999999985
 12
0.2400000000000002
 22
2.9100000000000001
 32
0.3999999999999986
 13
0.1500000000000003
 23
2.9100000000000001
 33
0.3999999999999986
  0
3DFACE
  5
5FD
  8
WING
 10
0.3800000000000008
 20
2.7799999999999998
 30
0.3199999999999985
 11
0.2400000000000002
 21
2.6600000000000001
 31
0.3200000000000003
 12
0.2400000000000002
 22
2.9100000000000001
 32
0.2400000000000002
 13
0.38
 23
2.9100000000000001
 33
0.2400000000000002
  0
3DFACE
  5
5FE
  8
WING
 10
0.2400000000000002
 20
2.6600000000000001
 30
0.3200000000000003
 11
0.3800000000000008
 21
2.7799999999999998
 31
0.3199999999999985
 12
0.38
 22
2.9100000000000001
 32
0.3999999999999986
 13
0.2400000000000002
 23
2.9100000000000001
 33
0.3999999999999986
  0
3DFACE
  5
5FF
  8
WING
 10
2.0600000000000001
 20
3.3599999999999999
 30
0.3199999999999985
 11
0.3800000000000008
 21
2.780000000000002
 31
0.3199999999999985
 12
0.3800000000000008
 22
2.9100000000000001
 32
0.2400000000000002
 13
2.0599999999999992
 23
3.4899999999999989
 33
0.2599999999999998
  0
3DFACE
  5
600
  8
WING
 10
0.3800000000000008
 20
2.780000000000002
 30
0.3199999999999985
 11
2.0600000000000001
 21
3.3599999999999999
 31
0.3199999999999985
 12
2.0600000000000001
 22
3.4900000000000002
 32
0.3800000000000008
 13
0.3800000000000008
 23
2.9100000000000001
 33
0.3999999999999986
  0
3DFACE
  5
601
  8
WING
 10
2.21
 20
3.4100000000000001
 30
0.3199999999999985
 11
2.0600000000000001
 21
3.3599999999999999
 31
0.3199999999999985
 12
2.0599999999999992
 22
3.4899999999999989
 32
0.2599999999999998
 13
2.21
 23
3.5800000000000001
 33
0.2599999999999998
  0
3DFACE
  5
602
  8
WING
 10
2.0600000000000001
 20
3.3599999999999999
 30
0.3199999999999985
 11
2.21
 21
3.4100000000000001
 31
0.3199999999999985
 12
2.21
 22
3.5800000000000001
 32
0.3800000000000008
 13
2.0600000000000001
 23
3.4899999999999989
 33
0.3800000000000008
  0
3DFACE
  5
603
  8
WING
 10
2.21
 20
3.4100000000000001
 30
0.3199999999999985
 11
2.2800000000000011
 21
3.4799999999999991
 31
0.3199999999999985
 12
2.21
 22
3.5800000000000001
 32
0.3800000000000008
 13
2.21
 23
3.5800000000000001
 33
0.3800000000000008
  0
3DFACE
  5
604
  8
WING
 10
2.2800000000000011
 20
3.4799999999999991
 30
0.3199999999999985
 11
2.21
 21
3.4100000000000001
 31
0.3199999999999985
 12
2.21
 22
3.5800000000000001
 32
0.2599999999999998
 13
2.21
 23
3.5800000000000001
 33
0.2599999999999998
  0
3DFACE
  5
605
  8
WING
 10
2.3300000000000001
 20
3.5800000000000001
 30
0.3199999999999985
 11
2.2800000000000011
 21
3.4799999999999991
 31
0.3199999999999985
 12
2.2099999999999991
 22
3.580000000000001
 32
0.2599999999999998
 13
2.2099999999999991
 23
3.580000000000001
 33
0.2599999999999998
  0
3DFACE
  5
606
  8
WING
 10
2.2800000000000011
 20
3.4799999999999991
 30
0.3199999999999985
 11
2.3300000000000001
 21
3.5800000000000001
 31
0.3199999999999985
 12
2.2099999999999991
 22
3.580000000000001
 32
0.3800000000000008
 13
2.2099999999999991
 23
3.580000000000001
 33
0.3800000000000008
  0
3DFACE
  5
607
  8
WING
 10
2.3300000000000001
 20
3.7999999999999998
 30
0.3199999999999985
 11
2.3300000000000001
 21
3.5800000000000001
 31
0.3199999999999985
 12
2.2099999999999991
 22
3.580000000000001
 32
0.2599999999999998
 13
2.21
 23
3.8500000000000001
 33
0.2599999999999998
  0
3DFACE
  5
608
  8
WING
 10
2.3300000000000001
 20
3.5800000000000001
 30
0.3199999999999985
 11
2.3300000000000001
 21
3.7999999999999998
 31
0.3199999999999985
 12
2.2099999999999991
 22
3.8500000000000001
 32
0.3800000000000008
 13
2.2100000000000031
 23
3.580000000000001
 33
0.379999999999999
  0
3DFACE
  5
609
  8
WING
 10
2.48
 20
3.8999999999999999
 30
0.3199999999999985
 11
2.48
 21
4.0199999999999987
 31
0.3199999999999985
 12
2.3300000000000001
 22
3.9900000000000002
 32
0.3600000000000012
 13
2.3300000000000001
 23
3.8900000000000001
 33
0.3600000000000012
  0
3DFACE
  5
60A
  8
WING
 10
2.48
 20
4.0199999999999987
 30
0.3199999999999985
 11
2.48
 21
3.8999999999999999
 31
0.3199999999999985
 12
2.3300000000000001
 22
3.8900000000000001
 32
0.2800000000000011
 13
2.3300000000000001
 23
3.9900000000000002
 33
0.2800000000000011
  0
3DFACE
  5
60B
  8
WING
 10
2.48
 20
3.8999999999999999
 30
0.3199999999999985
 11
2.46
 21
3.8500000000000001
 31
0.3199999999999985
 12
2.3300000000000001
 22
3.8900000000000001
 32
0.2800000000000011
 13
2.3300000000000001
 23
3.8900000000000001
 33
0.2800000000000011
  0
3DFACE
  5
60C
  8
WING
 10
2.46
 20
3.8500000000000001
 30
0.3199999999999985
 11
2.48
 21
3.8999999999999999
 31
0.3199999999999985
 12
2.3300000000000001
 22
3.8900000000000001
 32
0.3600000000000012
 13
2.3300000000000001
 23
3.8900000000000001
 33
0.3600000000000012
  0
3DFACE
  5
60F
  8
WING
 10
2.3300000000000001
 20
3.7999999999999998
 30
0.3199999999999985
 11
2.3900000000000001
 21
3.7999999999999998
 31
0.3199999999999985
 12
2.2800000000000011
 22
3.8500000000000001
 32
0.370000000000001
 13
2.2099999999999982
 23
3.850000000000001
 33
0.3800000000000008
  0
3DFACE
  5
610
  8
WING
 10
2.3900000000000001
 20
3.7999999999999998
 30
0.3199999999999985
 11
2.3300000000000001
 21
3.7999999999999998
 31
0.3199999999999985
 12
2.2099999999999982
 22
3.850000000000001
 32
0.2599999999999998
 13
2.2800000000000011
 23
3.8500000000000001
 33
0.2599999999999998
  0
3DFACE
  5
611
  8
WING
 10
2.4299999999999988
 20
3.8199999999999998
 30
0.3199999999999985
 11
2.3900000000000001
 21
3.7999999999999998
 31
0.3199999999999985
 12
2.2799999999999998
 22
3.850000000000001
 32
0.2599999999999998
 13
2.3300000000000001
 23
3.8900000000000001
 33
0.2800000000000011
  0
3DFACE
  5
612
  8
WING
 10
2.3900000000000001
 20
3.7999999999999998
 30
0.3199999999999985
 11
2.4299999999999988
 21
3.8199999999999998
 31
0.3199999999999985
 12
2.3300000000000001
 22
3.8900000000000001
 32
0.3600000000000012
 13
2.280000000000002
 23
3.8499999999999992
 33
0.370000000000001
  0
3DFACE
  5
613
  8
WING
 10
2.4299999999999988
 20
3.8199999999999998
 30
0.3199999999999985
 11
2.46
 21
3.8500000000000001
 31
0.3199999999999985
 12
2.3300000000000001
 22
3.8900000000000001
 32
0.3600000000000012
 13
2.3300000000000001
 23
3.8900000000000001
 33
0.3600000000000012
  0
3DFACE
  5
614
  8
WING
 10
2.46
 20
3.8500000000000001
 30
0.3199999999999985
 11
2.4299999999999988
 21
3.8199999999999998
 31
0.3199999999999985
 12
2.3300000000000001
 22
3.8900000000000001
 32
0.2800000000000011
 13
2.3300000000000001
 23
3.8900000000000001
 33
0.2800000000000011
  0
3DFACE
  5
615
  8
WING
 10
2.46
 20
4.1100000000000003
 30
0.3199999999999985
 11
2.48
 21
4.0199999999999987
 31
0.3199999999999985
 12
2.3300000000000001
 22
3.9900000000000002
 32
0.2800000000000011
 13
2.280000000000002
 23
4.0599999999999978
 33
0.2599999999999998
  0
3DFACE
  5
616
  8
WING
 10
2.48
 20
4.0199999999999987
 30
0.3199999999999985
 11
2.46
 21
4.1100000000000003
 31
0.3199999999999985
 12
2.280000000000002
 22
4.0599999999999978
 32
0.370000000000001
 13
2.3300000000000001
 23
3.9900000000000002
 33
0.3600000000000012
  0
3DFACE
  5
617
  8
WING
 10
2.4299999999999988
 20
4.169999999999999
 30
0.3199999999999985
 11
2.46
 21
4.1100000000000003
 31
0.3199999999999985
 12
2.2799999999999998
 22
4.0599999999999978
 32
0.2599999999999998
 13
2.2799999999999998
 23
4.0599999999999978
 33
0.2599999999999998
  0
3DFACE
  5
618
  8
WING
 10
2.46
 20
4.1100000000000003
 30
0.3199999999999985
 11
2.4299999999999988
 21
4.169999999999999
 31
0.3199999999999985
 12
2.2799999999999998
 22
4.0600000000000138
 32
0.370000000000001
 13
2.2799999999999998
 23
4.0600000000000138
 33
0.370000000000001
  0
3DFACE
  5
619
  8
WING
 10
2.3900000000000001
 20
4.2199999999999989
 30
0.3199999999999985
 11
2.4299999999999988
 21
4.169999999999999
 31
0.3199999999999985
 12
2.2800000000000011
 22
4.0599999999999978
 32
0.2599999999999998
 13
2.2800000000000011
 23
4.0599999999999978
 33
0.2599999999999998
  0
3DFACE
  5
61A
  8
WING
 10
2.4299999999999988
 20
4.169999999999999
 30
0.3199999999999985
 11
2.3900000000000001
 21
4.2199999999999989
 31
0.3199999999999985
 12
2.2799999999999998
 22
4.0600000000000138
 32
0.370000000000001
 13
2.2799999999999998
 23
4.0600000000000138
 33
0.370000000000001
  0
3DFACE
  5
61B
  8
WING
 10
2.3300000000000001
 20
4.2699999999999996
 30
0.3199999999999985
 11
2.3900000000000001
 21
4.2199999999999989
 31
0.3199999999999985
 12
2.2800000000000011
 22
4.0599999999999978
 32
0.2599999999999998
 13
2.2800000000000011
 23
4.0599999999999978
 33
0.2599999999999998
  0
3DFACE
  5
61C
  8
WING
 10
2.3900000000000001
 20
4.2199999999999989
 30
0.3199999999999985
 11
2.3300000000000001
 21
4.2699999999999996
 31
0.3199999999999985
 12
2.2799999999999998
 22
4.0599999999999996
 32
0.370000000000001
 13
2.2799999999999998
 23
4.0599999999999996
 33
0.370000000000001
  0
3DFACE
  5
61D
  8
WING
 10
2.2800000000000011
 20
4.29
 30
0.3199999999999985
 11
2.3300000000000001
 21
4.2699999999999996
 31
0.3199999999999985
 12
2.2800000000000011
 22
4.0599999999999978
 32
0.2599999999999998
 13
2.2099999999999982
 23
4.1100000000000012
 33
0.2599999999999998
  0
3DFACE
  5
61E
  8
WING
 10
2.3300000000000001
 20
4.2699999999999996
 30
0.3199999999999985
 11
2.2800000000000011
 21
4.29
 31
0.3199999999999985
 12
2.21
 22
4.1100000000000003
 32
0.3800000000000008
 13
2.2800000000000051
 23
4.0600000000000227
 33
0.3699999999999957
  0
3DFACE
  5
61F
  8
WING
 10
2.21
 20
4.3099999999999996
 30
0.3199999999999985
 11
2.0600000000000001
 21
4.3200000000000003
 31
0.3199999999999985
 12
2.0600000000000001
 22
4.169999999999999
 32
0.3800000000000008
 13
2.21
 23
4.1100000000000003
 33
0.3800000000000008
  0
3DFACE
  5
620
  8
WING
 10
2.0600000000000001
 20
4.3200000000000003
 30
0.3199999999999985
 11
2.21
 21
4.3099999999999996
 31
0.3199999999999985
 12
2.2099999999999991
 22
4.1100000000000003
 32
0.2599999999999998
 13
2.0600000000000001
 23
4.169999999999999
 33
0.2599999999999998
  0
3DFACE
  5
621
  8
WING
 10
2.21
 20
4.3099999999999996
 30
0.3199999999999985
 11
2.2800000000000011
 21
4.29
 31
0.3199999999999985
 12
2.2099999999999982
 22
4.1100000000000012
 32
0.2599999999999998
 13
2.2099999999999991
 23
4.1100000000000039
 33
0.2600000000000016
  0
3DFACE
  5
622
  8
WING
 10
2.2800000000000011
 20
4.29
 30
0.3199999999999985
 11
2.21
 21
4.3099999999999996
 31
0.3199999999999985
 12
2.2099999999999991
 22
4.1100000000000003
 32
0.3800000000000008
 13
2.2099999999999991
 23
4.1099999999999968
 33
0.3800000000000008
  0
3DFACE
  5
623
  8
WING
 10
2.0600000000000001
 20
4.3200000000000003
 30
0.3199999999999985
 11
0.3800000000000008
 21
4.419999999999999
 31
0.3199999999999985
 12
0.3800000000000008
 22
4.339999999999999
 32
0.3999999999999986
 13
2.0600000000000001
 23
4.169999999999999
 33
0.3800000000000008
  0
3DFACE
  5
624
  8
WING
 10
0.3800000000000008
 20
4.419999999999999
 30
0.3199999999999985
 11
2.0600000000000001
 21
4.3200000000000003
 31
0.3199999999999985
 12
2.0600000000000001
 22
4.169999999999999
 32
0.2599999999999998
 13
0.3800000000000008
 23
4.339999999999999
 33
0.2400000000000002
  0
3DFACE
  5
625
  8
WING
 10
0.2400000000000002
 20
4.4299999999999997
 30
0.3199999999999985
 11
0.3799999999999979
 21
4.419999999999999
 31
0.3199999999999985
 12
0.3800000000000027
 22
4.339999999999999
 32
0.2400000000000002
 13
0.2400000000000002
 23
4.3600000000000003
 33
0.2400000000000002
  0
3DFACE
  5
626
  8
WING
 10
0.3799999999999979
 20
4.419999999999999
 30
0.3199999999999985
 11
0.2400000000000002
 21
4.4299999999999997
 31
0.3199999999999985
 12
0.24
 22
4.3600000000000003
 32
0.3999999999999986
 13
0.38
 23
4.339999999999999
 33
0.3999999999999986
  0
3DFACE
  5
627
  8
WING
 10
0.2399999999999973
 20
4.4299999999999997
 30
0.3199999999999985
 11
0.1500000000000003
 21
4.4699999999999989
 31
0.3199999999999985
 12
0.1500000000000003
 22
4.3899999999999997
 32
0.3999999999999986
 13
0.24
 23
4.3600000000000003
 33
0.3999999999999986
  0
3DFACE
  5
628
  8
WING
 10
0.1500000000000003
 20
4.4699999999999989
 30
0.3199999999999985
 11
0.2399999999999973
 21
4.4299999999999997
 31
0.3199999999999985
 12
0.2400000000000002
 22
4.3600000000000003
 32
0.2400000000000002
 13
0.15
 23
4.3899999999999997
 33
0.2400000000000002
  0
3DFACE
  5
629
  8
WING
 10
0.0
 20
4.629999999999999
 30
0.3200000000000003
 11
0.1499999999999975
 21
4.4699999999999989
 31
0.3199999999999985
 12
0.15
 22
4.3899999999999997
 32
0.2400000000000002
 13
0.0
 23
4.3899999999999997
 33
0.2400000000000002
  0
3DFACE
  5
62A
  8
WING
 10
0.1499999999999975
 20
4.4699999999999989
 30
0.3199999999999985
 11
0.0
 21
4.629999999999999
 31
0.3200000000000003
 12
0.0
 22
4.3899999999999997
 32
0.3999999999999986
 13
0.1500000000000003
 23
4.3899999999999997
 33
0.3999999999999986
  0
3DFACE
  5
6A3
  8
WING
 10
6.71
 20
-2.379999999999999
 30
-0.1800000000000033
 11
6.71
 21
-2.375980762113532
 31
-0.1650000000000027
 12
6.6993933982822016
 22
-2.375980762113532
 32
-0.1693933982822049
 13
6.71
 23
-2.379999999999999
 33
-0.1800000000000033
  0
3DFACE
  5
6A4
  8
WING
 10
6.71
 20
-2.375980762113532
 30
-0.1650000000000027
 11
6.71
 21
-2.3649999999999989
 31
-0.1540192378864695
 12
6.6916288269291266
 22
-2.3649999999999989
 32
-0.1616288269291282
 13
6.6993933982822016
 23
-2.375980762113532
 33
-0.1693933982822049
  0
3DFACE
  5
6A5
  8
WING
 10
6.71
 20
-2.3649999999999989
 30
-0.1540192378864695
 11
6.71
 21
-2.3499999999999992
 31
-0.1500000000000021
 12
6.6887867965644041
 22
-2.3499999999999992
 32
-0.1587867965644065
 13
6.6916288269291266
 23
-2.3649999999999989
 33
-0.1616288269291282
  0
3DFACE
  5
6A6
  8
WING
 10
6.71
 20
-2.379999999999999
 30
-0.1800000000000033
 11
6.6993933982822016
 21
-2.375980762113532
 31
-0.1693933982822049
 12
6.6950000000000003
 22
-2.375980762113532
 32
-0.1800000000000033
 13
6.71
 23
-2.379999999999999
 33
-0.1800000000000033
  0
3DFACE
  5
6A7
  8
WING
 10
6.6993933982822016
 20
-2.375980762113532
 30
-0.1693933982822049
 11
6.6916288269291266
 21
-2.3649999999999989
 31
-0.1616288269291282
 12
6.6840192378864671
 22
-2.3649999999999989
 32
-0.1800000000000033
 13
6.6950000000000003
 23
-2.375980762113532
 33
-0.1800000000000033
  0
3DFACE
  5
6A8
  8
WING
 10
6.6916288269291266
 20
-2.3649999999999989
 30
-0.1616288269291282
 11
6.6887867965644041
 21
-2.3499999999999992
 31
-0.1587867965644065
 12
6.6799999999999988
 22
-2.3499999999999992
 32
-0.1800000000000033
 13
6.6840192378864671
 23
-2.3649999999999989
 33
-0.1800000000000033
  0
3DFACE
  5
6A9
  8
WING
 10
6.71
 20
-2.379999999999999
 30
-0.1800000000000033
 11
6.6950000000000003
 21
-2.375980762113532
 31
-0.1800000000000033
 12
6.6993933982822016
 22
-2.375980762113532
 32
-0.1906066017178016
 13
6.7100000000000017
 23
-2.379999999999999
 33
-0.1800000000000033
  0
3DFACE
  5
6AA
  8
WING
 10
6.6950000000000003
 20
-2.375980762113532
 30
-0.1800000000000033
 11
6.6840192378864671
 21
-2.3649999999999989
 31
-0.1800000000000033
 12
6.6916288269291266
 22
-2.3649999999999989
 32
-0.1983711730708766
 13
6.6993933982822016
 23
-2.375980762113532
 33
-0.1906066017178016
  0
3DFACE
  5
6AB
  8
WING
 10
6.6840192378864671
 20
-2.3649999999999989
 30
-0.1800000000000033
 11
6.6799999999999988
 21
-2.3499999999999992
 31
-0.1800000000000033
 12
6.688786796564405
 22
-2.3499999999999992
 32
-0.2012132034356
 13
6.6916288269291266
 23
-2.3649999999999989
 33
-0.1983711730708766
  0
3DFACE
  5
6AC
  8
WING
 10
6.7100000000000017
 20
-2.379999999999999
 30
-0.1800000000000033
 11
6.6993933982822016
 21
-2.375980762113532
 31
-0.1906066017178016
 12
6.71
 22
-2.375980762113532
 32
-0.195000000000002
 13
6.71
 23
-2.379999999999999
 33
-0.1800000000000033
  0
3DFACE
  5
6AD
  8
WING
 10
6.6993933982822016
 20
-2.375980762113532
 30
-0.1906066017178016
 11
6.6916288269291266
 21
-2.3649999999999989
 31
-0.1983711730708766
 12
6.71
 22
-2.3649999999999989
 32
-0.2059807621135352
 13
6.71
 23
-2.375980762113532
 33
-0.195000000000002
  0
3DFACE
  5
6AE
  8
WING
 10
6.6916288269291266
 20
-2.3649999999999989
 30
-0.1983711730708766
 11
6.688786796564405
 21
-2.3499999999999992
 31
-0.2012132034356
 12
6.71
 22
-2.3499999999999992
 32
-0.2100000000000026
 13
6.71
 23
-2.3649999999999989
 33
-0.2059807621135352
  0
3DFACE
  5
6AF
  8
WING
 10
6.71
 20
-2.379999999999999
 30
-0.1800000000000033
 11
6.71
 21
-2.375980762113532
 31
-0.195000000000002
 12
6.7206066017177992
 22
-2.375980762113532
 32
-0.1906066017178016
 13
6.7099999999999991
 23
-2.379999999999999
 33
-0.1800000000000033
  0
3DFACE
  5
6B0
  8
WING
 10
6.71
 20
-2.375980762113532
 30
-0.195000000000002
 11
6.71
 21
-2.3649999999999989
 31
-0.2059807621135352
 12
6.7283711730708742
 22
-2.3649999999999989
 32
-0.1983711730708766
 13
6.7206066017177992
 23
-2.375980762113532
 33
-0.1906066017178016
  0
3DFACE
  5
6B1
  8
WING
 10
6.71
 20
-2.3649999999999989
 30
-0.2059807621135352
 11
6.71
 21
-2.3499999999999992
 31
-0.2100000000000026
 12
6.7312132034355949
 22
-2.3499999999999992
 32
-0.2012132034356
 13
6.7283711730708742
 23
-2.3649999999999989
 33
-0.1983711730708766
  0
3DFACE
  5
6B2
  8
WING
 10
6.7099999999999991
 20
-2.379999999999999
 30
-0.1800000000000033
 11
6.7206066017177992
 21
-2.375980762113532
 31
-0.1906066017178016
 12
6.7250000000000014
 22
-2.375980762113532
 32
-0.1800000000000033
 13
6.71
 23
-2.379999999999999
 33
-0.1800000000000033
  0
3DFACE
  5
6B3
  8
WING
 10
6.7206066017177992
 20
-2.375980762113532
 30
-0.1906066017178016
 11
6.7283711730708742
 21
-2.3649999999999989
 31
-0.1983711730708766
 12
6.7359807621135337
 22
-2.3649999999999989
 32
-0.1800000000000033
 13
6.7250000000000014
 23
-2.375980762113532
 33
-0.1800000000000033
  0
3DFACE
  5
6B4
  8
WING
 10
6.7283711730708742
 20
-2.3649999999999989
 30
-0.1983711730708766
 11
6.7312132034355949
 21
-2.3499999999999992
 31
-0.2012132034356
 12
6.7400000000000002
 22
-2.3499999999999992
 32
-0.1800000000000033
 13
6.7359807621135337
 23
-2.3649999999999989
 33
-0.1800000000000033
  0
3DFACE
  5
6B5
  8
WING
 10
6.71
 20
-2.379999999999999
 30
-0.1800000000000033
 11
6.7250000000000014
 21
-2.375980762113532
 31
-0.1800000000000033
 12
6.7206066017177992
 22
-2.375980762113532
 32
-0.1693933982822049
 13
6.71
 23
-2.379999999999999
 33
-0.1800000000000033
  0
3DFACE
  5
6B6
  8
WING
 10
6.7250000000000014
 20
-2.375980762113532
 30
-0.1800000000000033
 11
6.7359807621135337
 21
-2.3649999999999989
 31
-0.1800000000000033
 12
6.7283711730708742
 22
-2.3649999999999989
 32
-0.1616288269291282
 13
6.7206066017177992
 23
-2.375980762113532
 33
-0.1693933982822049
  0
3DFACE
  5
6B7
  8
WING
 10
6.7359807621135337
 20
-2.3649999999999989
 30
-0.1800000000000033
 11
6.7400000000000002
 21
-2.3499999999999992
 31
-0.1800000000000033
 12
6.7312132034355967
 22
-2.3499999999999992
 32
-0.1587867965644065
 13
6.7283711730708742
 23
-2.3649999999999989
 33
-0.1616288269291282
  0
3DFACE
  5
6B8
  8
WING
 10
6.71
 20
-2.379999999999999
 30
-0.1800000000000033
 11
6.7206066017177992
 21
-2.375980762113532
 31
-0.1693933982822049
 12
6.71
 22
-2.375980762113532
 32
-0.1650000000000027
 13
6.71
 23
-2.379999999999999
 33
-0.1800000000000033
  0
3DFACE
  5
6B9
  8
WING
 10
6.7206066017177992
 20
-2.375980762113532
 30
-0.1693933982822049
 11
6.7283711730708742
 21
-2.3649999999999989
 31
-0.1616288269291282
 12
6.71
 22
-2.3649999999999989
 32
-0.1540192378864695
 13
6.71
 23
-2.375980762113532
 33
-0.1650000000000027
  0
3DFACE
  5
6BA
  8
WING
 10
6.7283711730708742
 20
-2.3649999999999989
 30
-0.1616288269291282
 11
6.7312132034355967
 21
-2.3499999999999992
 31
-0.1587867965644065
 12
6.71
 22
-2.3499999999999992
 32
-0.1500000000000021
 13
6.71
 23
-2.3649999999999989
 33
-0.1540192378864695
  0
3DFACE
  5
6BB
  8
WING
 10
6.71
 20
-2.2499999999999991
 30
-0.2100000000000026
 11
6.7312132034355967
 21
-2.2499999999999991
 31
-0.2012132034355982
 12
6.7312132034355967
 22
-2.3499999999999992
 32
-0.2012132034355982
 13
6.71
 23
-2.3499999999999992
 33
-0.2100000000000026
  0
3DFACE
  5
6BC
  8
WING
 10
6.7312132034355967
 20
-2.2499999999999991
 30
-0.2012132034355982
 11
6.7400000000000011
 21
-2.2499999999999991
 31
-0.1800000000000033
 12
6.7400000000000011
 22
-2.3499999999999992
 32
-0.1800000000000033
 13
6.7312132034355967
 23
-2.3499999999999992
 33
-0.2012132034355982
  0
3DFACE
  5
6BD
  8
WING
 10
6.7400000000000011
 20
-2.2499999999999991
 30
-0.1800000000000033
 11
6.7312132034355967
 21
-2.2499999999999991
 31
-0.1587867965644065
 12
6.7312132034355967
 22
-2.3499999999999992
 32
-0.1587867965644065
 13
6.7400000000000011
 23
-2.3499999999999992
 33
-0.1800000000000033
  0
3DFACE
  5
6BE
  8
WING
 10
6.7312132034355967
 20
-2.2499999999999991
 30
-0.1587867965644065
 11
6.71
 21
-2.2499999999999991
 31
-0.1500000000000021
 12
6.71
 22
-2.3499999999999992
 32
-0.1500000000000021
 13
6.7312132034355967
 23
-2.3499999999999992
 33
-0.1587867965644065
  0
3DFACE
  5
6BF
  8
WING
 10
6.71
 20
-2.2499999999999991
 30
-0.1500000000000021
 11
6.6887867965644041
 21
-2.2499999999999991
 31
-0.1587867965644065
 12
6.6887867965644041
 22
-2.3499999999999992
 32
-0.1587867965644065
 13
6.71
 23
-2.3499999999999992
 33
-0.1500000000000021
  0
3DFACE
  5
6C0
  8
WING
 10
6.6887867965644041
 20
-2.2499999999999991
 30
-0.1587867965644065
 11
6.6800000000000006
 21
-2.2499999999999991
 31
-0.1800000000000033
 12
6.6800000000000006
 22
-2.3499999999999992
 32
-0.1800000000000033
 13
6.6887867965644041
 23
-2.3499999999999992
 33
-0.1587867965644065
  0
3DFACE
  5
6C1
  8
WING
 10
6.6800000000000006
 20
-2.2499999999999991
 30
-0.1800000000000033
 11
6.6887867965644041
 21
-2.2499999999999991
 31
-0.2012132034355982
 12
6.6887867965644041
 22
-2.3499999999999992
 32
-0.2012132034355982
 13
6.6800000000000006
 23
-2.3499999999999992
 33
-0.1800000000000033
  0
3DFACE
  5
6C2
  8
WING
 10
6.6887867965644041
 20
-2.2499999999999991
 30
-0.2012132034355982
 11
6.71
 21
-2.2499999999999991
 31
-0.2100000000000026
 12
6.71
 22
-2.3499999999999992
 32
-0.2100000000000026
 13
6.6887867965644041
 23
-2.3499999999999992
 33
-0.2012132034355982
  0
3DFACE
  5
70C
  8
WING
 10
0.5099999999999998
 20
-2.1199999999999992
 30
-0.6000000000000015
 11
0.0
 21
-2.1199999999999992
 31
-0.6000000000000015
 12
0.0
 22
-0.69
 32
-0.6000000000000015
 13
0.5099999999999998
 23
-0.69
 33
-0.6000000000000015
  0
3DFACE
  5
70D
  8
WING
 10
0.0
 20
-2.1199999999999992
 30
0.0
 11
0.5099999999999998
 21
-2.1199999999999992
 31
0.0
 12
0.5099999999999998
 22
-0.69
 32
0.0
 13
0.0
 23
-0.69
 33
0.0
  0
3DFACE
  5
70E
  8
WING
 10
0.51
 20
-2.1199999999999992
 30
0.0
 11
0.57
 21
-2.1199999999999992
 31
-0.0500000000000007
 12
0.5700000000000001
 22
-0.6900000000000003
 32
-0.0500000000000007
 13
0.51
 23
-0.6900000000000003
 33
0.0
  0
3DFACE
  5
70F
  8
WING
 10
0.5700000000000001
 20
-2.1199999999999992
 30
-0.6000000000000015
 11
0.51
 21
-2.1199999999999992
 31
-0.6000000000000015
 12
0.51
 22
-0.69
 32
-0.6000000000000015
 13
0.5700000000000001
 23
-0.69
 33
-0.6000000000000015
  0
3DFACE
  5
710
  8
WING
 10
0.6200000000000001
 20
-2.1199999999999992
 30
-0.6000000000000015
 11
0.5700000000000001
 21
-2.1199999999999992
 31
-0.6000000000000015
 12
0.5700000000000001
 22
-0.69
 32
-0.6000000000000015
 13
0.6200000000000001
 23
-0.69
 33
-0.6000000000000015
  0
3DFACE
  5
711
  8
WING
 10
0.57
 20
-2.1199999999999992
 30
-0.0500000000000007
 11
0.6200000000000001
 21
-2.1199999999999992
 31
-0.1300000000000008
 12
0.6200000000000001
 22
-0.69
 32
-0.1300000000000008
 13
0.5700000000000001
 23
-0.6900000000000003
 33
-0.0500000000000007
  0
3DFACE
  5
712
  8
WING
 10
0.6200000000000001
 20
-2.1199999999999992
 30
-0.1300000000000008
 11
0.7099999999999999
 21
-2.1199999999999992
 31
-0.1699999999999999
 12
0.71
 22
-0.69
 32
-0.1699999999999999
 13
0.6200000000000001
 23
-0.69
 33
-0.1300000000000008
  0
3DFACE
  5
713
  8
WING
 10
0.71
 20
-2.1199999999999992
 30
-0.6000000000000015
 11
0.6200000000000001
 21
-2.1199999999999992
 31
-0.6000000000000015
 12
0.6200000000000001
 22
-0.69
 32
-0.6000000000000015
 13
0.71
 23
-0.69
 33
-0.6000000000000015
  0
3DFACE
  5
714
  8
WING
 10
0.8200000000000001
 20
-2.1199999999999992
 30
-0.6000000000000015
 11
0.71
 21
-2.1199999999999992
 31
-0.6000000000000015
 12
0.71
 22
-0.69
 32
-0.6000000000000015
 13
0.8200000000000001
 23
-0.69
 33
-0.6000000000000015
  0
3DFACE
  5
715
  8
WING
 10
0.7099999999999999
 20
-2.1199999999999992
 30
-0.1699999999999999
 11
0.82
 21
-2.1199999999999992
 31
-0.1699999999999999
 12
0.8200000000000001
 22
-0.69
 32
-0.1699999999999999
 13
0.71
 23
-0.69
 33
-0.1699999999999999
  0
3DFACE
  5
716
  8
WING
 10
0.98
 20
-2.1199999999999992
 30
-0.6000000000000015
 11
0.8200000000000001
 21
-2.1199999999999992
 31
-0.6000000000000015
 12
0.8200000000000001
 22
-0.69
 32
-0.6000000000000015
 13
0.98
 23
-0.69
 33
-0.6000000000000015
  0
3DFACE
  5
717
  8
WING
 10
0.82
 20
-2.1199999999999992
 30
-0.1699999999999999
 11
0.9799999999999997
 21
-2.1199999999999992
 31
-0.1799999999999997
 12
0.98
 22
-0.69
 32
-0.1799999999999997
 13
0.8200000000000001
 23
-0.69
 33
-0.1699999999999999
  0
3DFACE
  5
718
  8
WING
 10
1.2199999999999991
 20
-2.1199999999999992
 30
-0.6000000000000015
 11
0.98
 21
-2.1199999999999992
 31
-0.6000000000000015
 12
0.98
 22
-0.69
 32
-0.6000000000000015
 13
1.2199999999999991
 23
-0.69
 33
-0.6000000000000015
  0
3DFACE
  5
719
  8
WING
 10
0.9799999999999997
 20
-2.1199999999999992
 30
-0.1799999999999997
 11
1.2199999999999991
 21
-2.1199999999999992
 31
-0.1900000000000013
 12
1.2199999999999991
 22
-0.69
 32
-0.1900000000000013
 13
0.98
 23
-0.69
 33
-0.1799999999999997
  0
3DFACE
  5
71A
  8
WING
 10
1.75
 20
-2.1199999999999992
 30
-0.6000000000000015
 11
1.2199999999999991
 21
-2.1199999999999992
 31
-0.6000000000000015
 12
1.2199999999999991
 22
-0.69
 32
-0.6000000000000015
 13
1.75
 23
-0.69
 33
-0.6000000000000015
  0
3DFACE
  5
71B
  8
WING
 10
1.2199999999999991
 20
-2.1199999999999992
 30
-0.1900000000000013
 11
1.7499999999999989
 21
-2.1199999999999992
 31
-0.2100000000000008
 12
1.75
 22
-0.69
 32
-0.2100000000000008
 13
1.2199999999999991
 23
-0.69
 33
-0.1900000000000013
  0
3DFACE
  5
71C
  8
WING
 10
1.8
 20
-2.1199999999999992
 30
-0.6000000000000015
 11
1.75
 21
-2.1199999999999992
 31
-0.6000000000000015
 12
1.75
 22
-0.69
 32
-0.6000000000000015
 13
1.8
 23
-0.69
 33
-0.6000000000000015
  0
3DFACE
  5
71D
  8
WING
 10
1.7499999999999989
 20
-2.1199999999999992
 30
-0.2100000000000008
 11
1.7999999999999989
 21
-2.1199999999999992
 31
-0.2100000000000008
 12
1.8
 22
-0.69
 32
-0.2100000000000008
 13
1.75
 23
-0.69
 33
-0.2100000000000008
  0
3DFACE
  5
71E
  8
WING
 10
5.8499999999999996
 20
-2.0099999999999989
 30
-0.3100000000000005
 11
1.7999999999999989
 21
-2.1199999999999992
 31
-0.6000000000000015
 12
1.8
 22
-0.69
 32
-0.6000000000000015
 13
5.8499999999999988
 23
-1.399999999999999
 33
-0.3100000000000005
  0
3DFACE
  5
71F
  8
WING
 10
1.7999999999999989
 20
-2.1199999999999992
 30
-0.2100000000000008
 11
5.8499999999999996
 21
-2.0099999999999989
 31
-0.0899999999999999
 12
5.8499999999999996
 22
-1.399999999999999
 32
-0.0899999999999999
 13
1.8
 23
-0.69
 33
-0.2100000000000008
  0
3DFACE
  5
720
  8
WING
 10
6.0700000000000003
 20
-2.0099999999999989
 30
-0.2900000000000009
 11
5.8499999999999996
 21
-2.0099999999999989
 31
-0.3100000000000005
 12
5.8499999999999988
 22
-1.399999999999999
 32
-0.3100000000000005
 13
6.0700000000000003
 23
-1.429999999999999
 33
-0.2900000000000009
  0
3DFACE
  5
721
  8
WING
 10
5.8499999999999996
 20
-2.0099999999999989
 30
-0.0899999999999999
 11
6.0700000000000003
 21
-2.0099999999999989
 31
-0.0800000000000001
 12
6.0700000000000003
 22
-1.429999999999999
 32
-0.0800000000000001
 13
5.8499999999999996
 23
-1.399999999999999
 33
-0.0899999999999999
  0
3DFACE
  5
722
  8
WING
 10
6.2999999999999989
 20
-2.0099999999999989
 30
-0.2700000000000013
 11
6.0700000000000003
 21
-2.0099999999999989
 31
-0.2900000000000009
 12
6.0700000000000003
 22
-1.429999999999999
 32
-0.2900000000000009
 13
6.2999999999999989
 23
-1.4599999999999991
 33
-0.2700000000000013
  0
3DFACE
  5
723
  8
WING
 10
6.0700000000000003
 20
-2.0099999999999989
 30
-0.0800000000000001
 11
6.2999999999999989
 21
-2.0099999999999989
 31
-0.0800000000000001
 12
6.2999999999999989
 22
-1.4599999999999991
 32
-0.0800000000000001
 13
6.0700000000000003
 23
-1.429999999999999
 33
-0.0800000000000001
  0
3DFACE
  5
724
  8
WING
 10
6.4900000000000002
 20
-2.0
 30
-0.25
 11
6.2999999999999989
 21
-2.0099999999999989
 31
-0.2700000000000013
 12
6.2999999999999989
 22
-1.4599999999999991
 32
-0.2700000000000013
 13
6.4900000000000002
 23
-1.4999999999999989
 33
-0.25
  0
3DFACE
  5
725
  8
WING
 10
6.2999999999999989
 20
-2.0099999999999989
 30
-0.0800000000000001
 11
6.4900000000000002
 21
-2.0
 31
-0.0899999999999999
 12
6.4900000000000002
 22
-1.4999999999999989
 32
-0.0899999999999999
 13
6.2999999999999989
 23
-1.4599999999999991
 33
-0.0800000000000001
  0
3DFACE
  5
726
  8
WING
 10
6.4900000000000002
 20
-2.0
 30
-0.0899999999999999
 11
6.6500000000000004
 21
-2.0
 31
-0.1000000000000014
 12
6.6500000000000004
 22
-1.5499999999999989
 32
-0.1000000000000014
 13
6.4900000000000002
 23
-1.4999999999999989
 33
-0.0899999999999999
  0
3DFACE
  5
727
  8
WING
 10
6.6500000000000004
 20
-2.0
 30
-0.2300000000000004
 11
6.4900000000000002
 21
-2.0
 31
-0.25
 12
6.4900000000000002
 22
-1.4999999999999989
 32
-0.25
 13
6.6500000000000004
 23
-1.5499999999999989
 33
-0.2300000000000004
  0
3DFACE
  5
728
  8
WING
 10
6.7099999999999991
 20
-1.9899999999999991
 30
-0.2200000000000006
 11
6.6500000000000004
 21
-2.0
 31
-0.2300000000000004
 12
6.6500000000000004
 22
-1.5499999999999989
 32
-0.2300000000000004
 13
6.7099999999999991
 23
-1.579999999999999
 33
-0.2200000000000006
  0
3DFACE
  5
729
  8
WING
 10
6.6500000000000004
 20
-2.0
 30
-0.1000000000000014
 11
6.7099999999999991
 21
-1.9899999999999991
 31
-0.1000000000000014
 12
6.7099999999999991
 22
-1.579999999999999
 32
-0.1000000000000014
 13
6.6500000000000004
 23
-1.5499999999999989
 33
-0.1000000000000014
  0
3DFACE
  5
72A
  8
WING
 10
6.7099999999999991
 20
-1.9899999999999991
 30
-0.1000000000000014
 11
6.8499999999999996
 21
-1.849999999999999
 31
-0.120000000000001
 12
6.8499999999999996
 22
-1.7599999999999989
 32
-0.120000000000001
 13
6.7099999999999991
 23
-1.579999999999999
 33
-0.1000000000000014
  0
3DFACE
  5
72B
  8
WING
 10
6.8499999999999996
 20
-1.849999999999999
 30
-0.1900000000000013
 11
6.7099999999999991
 21
-1.9899999999999991
 31
-0.2200000000000006
 12
6.7099999999999991
 22
-1.579999999999999
 32
-0.2200000000000006
 13
6.8499999999999996
 23
-1.7599999999999989
 33
-0.1900000000000013
  0
3DFACE
  5
72C
  8
WING
 10
1.75
 20
-0.69
 30
-0.6000000000000015
 11
1.2199999999999991
 21
-0.69
 31
-0.6000000000000015
 12
1.2199999999999991
 22
0.1200000000000001
 32
-0.4800000000000005
 13
1.75
 23
0.0300000000000003
 33
-0.5
  0
3DFACE
  5
72D
  8
WING
 10
1.2199999999999991
 20
-0.69
 30
-0.1900000000000013
 11
1.75
 21
-0.69
 31
-0.2100000000000008
 12
1.75
 22
0.0300000000000003
 32
-0.5
 13
1.2199999999999991
 23
0.1200000000000001
 33
-0.4800000000000005
  0
3DFACE
  5
72E
  8
WING
 10
1.2199999999999991
 20
-0.69
 30
-0.6000000000000015
 11
0.98
 21
-0.69
 31
-0.6000000000000015
 12
0.98
 22
0.1900000000000004
 32
-0.4500000000000011
 13
1.2199999999999991
 23
0.1200000000000001
 33
-0.4800000000000005
  0
3DFACE
  5
72F
  8
WING
 10
0.98
 20
-0.69
 30
-0.1799999999999997
 11
1.2199999999999991
 21
-0.69
 31
-0.1900000000000013
 12
1.2199999999999991
 22
0.1200000000000001
 32
-0.4800000000000005
 13
0.98
 23
0.1900000000000004
 33
-0.4500000000000011
  0
3DFACE
  5
730
  8
WING
 10
0.8200000000000001
 20
-0.69
 30
-0.1699999999999999
 11
0.98
 21
-0.69
 31
-0.1799999999999997
 12
0.98
 22
0.1900000000000004
 32
-0.4500000000000011
 13
0.8200000000000001
 23
0.2800000000000002
 33
-0.4299999999999998
  0
3DFACE
  5
731
  8
WING
 10
0.98
 20
-0.69
 30
-0.6000000000000015
 11
0.8200000000000001
 21
-0.69
 31
-0.6000000000000015
 12
0.8200000000000001
 22
0.2800000000000002
 32
-0.4299999999999998
 13
0.98
 23
0.1900000000000004
 33
-0.4500000000000011
  0
3DFACE
  5
732
  8
WING
 10
0.8200000000000001
 20
-0.69
 30
-0.6000000000000015
 11
0.71
 21
-0.69
 31
-0.6000000000000015
 12
0.71
 22
0.3900000000000006
 32
-0.4000000000000004
 13
0.8200000000000001
 23
0.2800000000000002
 33
-0.4299999999999998
  0
3DFACE
  5
733
  8
WING
 10
0.71
 20
-0.69
 30
-0.1699999999999999
 11
0.8200000000000001
 21
-0.69
 31
-0.1699999999999999
 12
0.8200000000000001
 22
0.2800000000000002
 32
-0.4299999999999998
 13
0.71
 23
0.3900000000000006
 33
-0.4000000000000004
  0
3DFACE
  5
734
  8
WING
 10
0.6200000000000001
 20
-0.69
 30
-0.1300000000000008
 11
0.71
 21
-0.69
 31
-0.1699999999999999
 12
0.71
 22
0.3900000000000006
 32
-0.4000000000000004
 13
0.6200000000000001
 23
0.5100000000000003
 33
-0.3800000000000008
  0
3DFACE
  5
735
  8
WING
 10
0.71
 20
-0.69
 30
-0.6000000000000015
 11
0.6200000000000001
 21
-0.69
 31
-0.6000000000000015
 12
0.6200000000000001
 22
0.5100000000000003
 32
-0.3800000000000008
 13
0.71
 23
0.3900000000000006
 33
-0.4000000000000004
  0
3DFACE
  5
736
  8
WING
 10
0.6200000000000001
 20
-0.69
 30
-0.6000000000000015
 11
0.5700000000000001
 21
-0.6900000000000003
 31
-0.6000000000000015
 12
0.5700000000000001
 22
0.5899999999999999
 32
-0.3600000000000012
 13
0.6200000000000001
 23
0.5100000000000003
 33
-0.3800000000000008
  0
3DFACE
  5
737
  8
WING
 10
0.5700000000000001
 20
-0.6900000000000003
 30
-0.0500000000000007
 11
0.6200000000000001
 21
-0.69
 31
-0.1300000000000008
 12
0.6200000000000001
 22
0.5100000000000003
 32
-0.3800000000000008
 13
0.5700000000000001
 23
0.5899999999999999
 33
-0.3600000000000012
  0
3DFACE
  5
738
  8
WING
 10
0.51
 20
-0.6900000000000003
 30
0.0
 11
0.5700000000000001
 21
-0.6900000000000003
 31
-0.0500000000000007
 12
0.5700000000000001
 22
0.5899999999999999
 32
-0.3600000000000012
 13
0.51
 23
0.7200000000000002
 33
-0.3100000000000005
  0
3DFACE
  5
739
  8
WING
 10
0.5700000000000001
 20
-0.6900000000000003
 30
-0.6000000000000015
 11
0.51
 21
-0.6900000000000003
 31
-0.6000000000000015
 12
0.51
 22
0.7200000000000002
 32
-0.3100000000000005
 13
0.5700000000000001
 23
0.5899999999999999
 33
-0.3600000000000012
  0
3DFACE
  5
73A
  8
WING
 10
0.51
 20
-0.6900000000000003
 30
-0.6000000000000015
 11
0.0
 21
-0.69
 31
-0.6000000000000015
 12
0.35
 22
1.1100000000000001
 32
-0.2599999999999998
 13
0.51
 23
0.7200000000000002
 33
-0.3100000000000005
  0
3DFACE
  5
73B
  8
WING
 10
0.0
 20
-0.69
 30
0.0
 11
0.51
 21
-0.6900000000000003
 31
0.0
 12
0.51
 22
0.7200000000000002
 32
-0.3100000000000005
 13
0.35
 23
1.1100000000000001
 33
-0.2599999999999998
  0
3DFACE
  5
73C
  8
WING
 10
1.75
 20
-0.69
 30
-0.2100000000000008
 11
1.8
 21
-0.69
 31
-0.2100000000000008
 12
1.8
 22
0.0200000000000005
 32
-0.5
 13
1.75
 23
0.0300000000000003
 33
-0.5
  0
3DFACE
  5
73D
  8
WING
 10
1.8
 20
-0.69
 30
-0.6000000000000015
 11
1.75
 21
-0.69
 31
-0.6000000000000015
 12
1.75
 22
0.0300000000000003
 32
-0.5
 13
1.8
 23
0.0200000000000005
 33
-0.5
  0
3DFACE
  5
73E
  8
WING
 10
5.8499999999999988
 20
-1.399999999999999
 30
-0.3100000000000005
 11
1.8
 21
-0.69
 31
-0.6000000000000015
 12
1.8
 22
0.0200000000000005
 32
-0.5
 13
5.8499999999999988
 23
-0.7099999999999999
 33
-0.25
  0
3DFACE
  5
73F
  8
WING
 10
1.8
 20
-0.69
 30
-0.2100000000000008
 11
5.8499999999999996
 21
-1.399999999999999
 31
-0.0899999999999999
 12
5.8499999999999988
 22
-0.7099999999999999
 32
-0.25
 13
1.8
 23
0.0200000000000005
 33
-0.5
  0
3DFACE
  5
740
  8
WING
 10
5.8499999999999996
 20
-1.399999999999999
 30
-0.0899999999999999
 11
6.0700000000000003
 21
-1.429999999999999
 31
-0.0800000000000001
 12
6.0700000000000003
 22
-0.7699999999999998
 32
-0.2300000000000004
 13
5.8499999999999988
 23
-0.7099999999999999
 33
-0.25
  0
3DFACE
  5
741
  8
WING
 10
6.0700000000000003
 20
-1.429999999999999
 30
-0.2900000000000009
 11
5.8499999999999988
 21
-1.399999999999999
 31
-0.3100000000000005
 12
5.8499999999999988
 22
-0.7099999999999999
 32
-0.25
 13
6.0700000000000003
 23
-0.7699999999999998
 33
-0.2300000000000004
  0
3DFACE
  5
742
  8
WING
 10
6.0700000000000003
 20
-1.429999999999999
 30
-0.0800000000000001
 11
6.2999999999999989
 21
-1.4599999999999991
 31
-0.0800000000000001
 12
6.2999999999999989
 22
-0.8599999999999997
 32
-0.2100000000000008
 13
6.0700000000000003
 23
-0.7699999999999998
 33
-0.2300000000000004
  0
3DFACE
  5
743
  8
WING
 10
6.2999999999999989
 20
-1.4599999999999991
 30
-0.2700000000000013
 11
6.0700000000000003
 21
-1.429999999999999
 31
-0.2900000000000009
 12
6.0700000000000003
 22
-0.7699999999999998
 32
-0.2300000000000004
 13
6.2999999999999989
 23
-0.8599999999999997
 33
-0.2100000000000008
  0
3DFACE
  5
744
  8
WING
 10
6.4900000000000002
 20
-1.4999999999999989
 30
-0.25
 11
6.2999999999999989
 21
-1.4599999999999991
 31
-0.2700000000000013
 12
6.2999999999999989
 22
-0.8599999999999997
 32
-0.2100000000000008
 13
6.4900000000000002
 23
-0.9699999999999998
 33
-0.2000000000000011
  0
3DFACE
  5
745
  8
WING
 10
6.2999999999999989
 20
-1.4599999999999991
 30
-0.0800000000000001
 11
6.4900000000000002
 21
-1.4999999999999989
 31
-0.0899999999999999
 12
6.4900000000000002
 22
-0.9699999999999998
 32
-0.2000000000000011
 13
6.2999999999999989
 23
-0.8599999999999997
 33
-0.2100000000000008
  0
3DFACE
  5
746
  8
WING
 10
6.4900000000000002
 20
-1.4999999999999989
 30
-0.0899999999999999
 11
6.6500000000000004
 21
-1.5499999999999989
 31
-0.1000000000000014
 12
6.6500000000000004
 22
-1.099999999999999
 32
-0.1900000000000013
 13
6.4900000000000002
 23
-0.9699999999999998
 33
-0.2000000000000011
  0
3DFACE
  5
747
  8
WING
 10
6.6500000000000004
 20
-1.5499999999999989
 30
-0.2300000000000004
 11
6.4900000000000002
 21
-1.4999999999999989
 31
-0.25
 12
6.4900000000000002
 22
-0.9699999999999998
 32
-0.2000000000000011
 13
6.6500000000000004
 23
-1.099999999999999
 33
-0.1900000000000013
  0
3DFACE
  5
748
  8
WING
 10
6.7099999999999991
 20
-1.579999999999999
 30
-0.2200000000000006
 11
6.6500000000000004
 21
-1.5499999999999989
 31
-0.2300000000000004
 12
6.6500000000000004
 22
-1.099999999999999
 32
-0.1900000000000013
 13
6.7099999999999991
 23
-1.159999999999999
 33
-0.1799999999999997
  0
3DFACE
  5
749
  8
WING
 10
6.6500000000000004
 20
-1.5499999999999989
 30
-0.1000000000000014
 11
6.7099999999999991
 21
-1.579999999999999
 31
-0.1000000000000014
 12
6.7099999999999991
 22
-1.159999999999999
 32
-0.1799999999999997
 13
6.6500000000000004
 23
-1.099999999999999
 33
-0.1900000000000013
  0
3DFACE
  5
74A
  8
WING
 10
6.7099999999999991
 20
-1.579999999999999
 30
-0.1000000000000014
 11
6.8499999999999996
 21
-1.7599999999999989
 31
-0.120000000000001
 12
6.8499999999999996
 22
-1.339999999999999
 32
-0.1699999999999999
 13
6.7099999999999991
 23
-1.159999999999999
 33
-0.1799999999999997
  0
3DFACE
  5
74B
  8
WING
 10
6.8499999999999996
 20
-1.7599999999999989
 30
-0.1900000000000013
 11
6.7099999999999991
 21
-1.579999999999999
 31
-0.2200000000000006
 12
6.7099999999999991
 22
-1.159999999999999
 32
-0.1799999999999997
 13
6.8499999999999996
 23
-1.339999999999999
 33
-0.1699999999999999
  0
3DFACE
  5
74C
  8
WING
 10
6.8499999999999996
 20
-1.849999999999999
 30
-0.1900000000000013
 11
6.8499999999999996
 21
-1.7599999999999989
 31
-0.1900000000000013
 12
6.9900000000000002
 22
-1.7599999999999989
 32
-0.1500000000000003
 13
6.9900000000000002
 23
-1.819999999999999
 33
-0.1500000000000003
  0
3DFACE
  5
74D
  8
WING
 10
6.8499999999999996
 20
-1.7599999999999989
 30
-0.120000000000001
 11
6.8499999999999996
 21
-1.849999999999999
 31
-0.120000000000001
 12
6.9900000000000002
 22
-1.819999999999999
 32
-0.1500000000000003
 13
6.9900000000000002
 23
-1.7599999999999989
 33
-0.1500000000000003
  0
3DFACE
  5
74E
  8
WING
 10
6.8499999999999996
 20
-1.7599999999999989
 30
-0.120000000000001
 11
6.8499999999999996
 21
-1.7599999999999989
 31
-0.120000000000001
 12
6.9900000000000002
 22
-1.7599999999999989
 32
-0.1500000000000003
 13
6.9800000000000004
 23
-1.6999999999999991
 33
-0.1500000000000003
  0
3DFACE
  5
74F
  8
WING
 10
6.8499999999999996
 20
-1.7599999999999989
 30
-0.1900000000000013
 11
6.8499999999999996
 21
-1.7599999999999989
 31
-0.1900000000000013
 12
6.9800000000000004
 22
-1.6999999999999991
 32
-0.1500000000000003
 13
6.9900000000000002
 23
-1.7599999999999989
 33
-0.1500000000000003
  0
3DFACE
  5
750
  8
WING
 10
6.8499999999999996
 20
-1.7599999999999989
 30
-0.1900000000000013
 11
6.8499999999999996
 21
-1.7599999999999989
 31
-0.1900000000000013
 12
6.9400000000000004
 22
-1.5299999999999989
 32
-0.1500000000000003
 13
6.9800000000000004
 23
-1.6999999999999991
 33
-0.1500000000000003
  0
3DFACE
  5
751
  8
WING
 10
6.8499999999999996
 20
-1.7599999999999989
 30
-0.120000000000001
 11
6.8499999999999996
 21
-1.7599999999999989
 31
-0.120000000000001
 12
6.9800000000000004
 22
-1.6999999999999991
 32
-0.1500000000000003
 13
6.9400000000000004
 23
-1.5299999999999989
 33
-0.1500000000000003
  0
3DFACE
  5
752
  8
WING
 10
6.8499999999999996
 20
-1.7599999999999989
 30
-0.120000000000001
 11
6.8499999999999996
 21
-1.7599999999999989
 31
-0.120000000000001
 12
6.9400000000000004
 22
-1.5299999999999989
 32
-0.1500000000000003
 13
6.8499999999999996
 23
-1.339999999999999
 33
-0.1699999999999999
  0
3DFACE
  5
753
  8
WING
 10
6.8499999999999996
 20
-1.7599999999999989
 30
-0.1900000000000013
 11
6.8499999999999996
 21
-1.7599999999999989
 31
-0.1900000000000013
 12
6.8499999999999996
 22
-1.339999999999999
 32
-0.1699999999999999
 13
6.9400000000000004
 23
-1.5299999999999989
 33
-0.1500000000000003
  0
3DFACE
  5
754
  8
WING
 10
6.7099999999999991
 20
-1.9899999999999991
 30
-0.2200000000000006
 11
6.8499999999999996
 21
-1.849999999999999
 31
-0.1900000000000013
 12
6.8499999999999996
 22
-2.1699999999999999
 32
-0.1699999999999999
 13
6.7099999999999991
 23
-2.2999999999999989
 33
-0.1799999999999997
  0
3DFACE
  5
755
  8
WING
 10
6.8499999999999996
 20
-1.849999999999999
 30
-0.120000000000001
 11
6.7099999999999991
 21
-1.9899999999999991
 31
-0.1000000000000014
 12
6.7099999999999991
 22
-2.2999999999999989
 32
-0.1799999999999997
 13
6.8499999999999996
 23
-2.1699999999999999
 33
-0.1699999999999999
  0
3DFACE
  5
756
  8
WING
 10
6.8499999999999996
 20
-1.849999999999999
 30
-0.1900000000000013
 11
6.8499999999999996
 21
-1.849999999999999
 31
-0.1900000000000013
 12
6.9900000000000002
 22
-1.819999999999999
 32
-0.1500000000000003
 13
6.9800000000000004
 23
-1.869999999999999
 33
-0.1500000000000003
  0
3DFACE
  5
757
  8
WING
 10
6.8499999999999996
 20
-1.849999999999999
 30
-0.120000000000001
 11
6.8499999999999996
 21
-1.849999999999999
 31
-0.120000000000001
 12
6.9800000000000004
 22
-1.869999999999999
 32
-0.1500000000000003
 13
6.9900000000000002
 23
-1.819999999999999
 33
-0.1500000000000003
  0
3DFACE
  5
758
  8
WING
 10
6.8499999999999996
 20
-1.849999999999999
 30
-0.120000000000001
 11
6.8499999999999996
 21
-1.849999999999999
 31
-0.120000000000001
 12
6.9400000000000004
 22
-2.02
 32
-0.1500000000000003
 13
6.9800000000000004
 23
-1.869999999999999
 33
-0.1500000000000003
  0
3DFACE
  5
759
  8
WING
 10
6.8499999999999996
 20
-1.849999999999999
 30
-0.1900000000000013
 11
6.8499999999999996
 21
-1.849999999999999
 31
-0.1900000000000013
 12
6.9800000000000004
 22
-1.869999999999999
 32
-0.1500000000000003
 13
6.9400000000000004
 23
-2.02
 33
-0.1500000000000003
  0
3DFACE
  5
75A
  8
WING
 10
6.8499999999999996
 20
-1.849999999999999
 30
-0.1900000000000013
 11
6.8499999999999996
 21
-1.849999999999999
 31
-0.1900000000000013
 12
6.9400000000000004
 22
-2.02
 32
-0.1500000000000003
 13
6.8499999999999996
 23
-2.1699999999999999
 33
-0.1699999999999999
  0
3DFACE
  5
75B
  8
WING
 10
6.8499999999999996
 20
-1.849999999999999
 30
-0.120000000000001
 11
6.8499999999999996
 21
-1.849999999999999
 31
-0.120000000000001
 12
6.8499999999999996
 22
-2.1699999999999999
 32
-0.1699999999999999
 13
6.9400000000000004
 23
-2.02
 33
-0.1500000000000003
  0
3DFACE
  5
75C
  8
WING
 10
6.6500000000000004
 20
-2.0
 30
-0.2300000000000004
 11
6.7099999999999991
 21
-1.9899999999999991
 31
-0.2200000000000006
 12
6.7099999999999991
 22
-2.2999999999999989
 32
-0.1799999999999997
 13
6.6500000000000004
 23
-2.3299999999999992
 33
-0.1900000000000013
  0
3DFACE
  5
75D
  8
WING
 10
6.7099999999999991
 20
-1.9899999999999991
 30
-0.1000000000000014
 11
6.6500000000000004
 21
-2.0
 31
-0.1000000000000014
 12
6.6500000000000004
 22
-2.3299999999999992
 32
-0.1900000000000013
 13
6.7099999999999991
 23
-2.2999999999999989
 33
-0.1799999999999997
  0
3DFACE
  5
75E
  8
WING
 10
6.6500000000000004
 20
-2.0
 30
-0.1000000000000014
 11
6.4900000000000002
 21
-2.0
 31
-0.0899999999999999
 12
6.4900000000000002
 22
-2.3899999999999988
 32
-0.2000000000000011
 13
6.6500000000000004
 23
-2.3299999999999992
 33
-0.1900000000000013
  0
3DFACE
  5
75F
  8
WING
 10
6.4900000000000002
 20
-2.0
 30
-0.25
 11
6.6500000000000004
 21
-2.0
 31
-0.2300000000000004
 12
6.6500000000000004
 22
-2.3299999999999992
 32
-0.1900000000000013
 13
6.4900000000000002
 23
-2.3899999999999988
 33
-0.2000000000000011
  0
3DFACE
  5
760
  8
WING
 10
6.2999999999999989
 20
-2.0099999999999989
 30
-0.2700000000000013
 11
6.4900000000000002
 21
-2.0
 31
-0.25
 12
6.4900000000000002
 22
-2.3899999999999988
 32
-0.2000000000000011
 13
6.2999999999999989
 23
-2.4299999999999988
 33
-0.2100000000000008
  0
3DFACE
  5
761
  8
WING
 10
6.4900000000000002
 20
-2.0
 30
-0.0899999999999999
 11
6.2999999999999989
 21
-2.0099999999999989
 31
-0.0800000000000001
 12
6.2999999999999989
 22
-2.4299999999999988
 32
-0.2100000000000008
 13
6.4900000000000002
 23
-2.3899999999999988
 33
-0.2000000000000011
  0
3DFACE
  5
762
  8
WING
 10
6.2999999999999989
 20
-2.0099999999999989
 30
-0.0800000000000001
 11
6.0700000000000003
 21
-2.0099999999999989
 31
-0.0800000000000001
 12
6.0700000000000003
 22
-2.4399999999999991
 32
-0.2300000000000004
 13
6.2999999999999989
 23
-2.4299999999999988
 33
-0.2100000000000008
  0
3DFACE
  5
763
  8
WING
 10
6.0700000000000003
 20
-2.0099999999999989
 30
-0.2900000000000009
 11
6.2999999999999989
 21
-2.0099999999999989
 31
-0.2700000000000013
 12
6.2999999999999989
 22
-2.4299999999999988
 32
-0.2100000000000008
 13
6.0700000000000003
 23
-2.4399999999999991
 33
-0.2300000000000004
  0
3DFACE
  5
764
  8
WING
 10
5.8499999999999996
 20
-2.0099999999999989
 30
-0.3100000000000005
 11
6.0700000000000003
 21
-2.0099999999999989
 31
-0.2900000000000009
 12
6.0700000000000003
 22
-2.4399999999999991
 32
-0.2300000000000004
 13
5.8499999999999996
 23
-2.4399999999999991
 33
-0.25
  0
3DFACE
  5
765
  8
WING
 10
6.0700000000000003
 20
-2.0099999999999989
 30
-0.0800000000000001
 11
5.8499999999999996
 21
-2.0099999999999989
 31
-0.0899999999999999
 12
5.8499999999999996
 22
-2.4399999999999991
 32
-0.25
 13
6.0700000000000003
 23
-2.4399999999999991
 33
-0.2300000000000004
  0
3DFACE
  5
766
  8
WING
 10
1.7999999999999989
 20
-2.1199999999999992
 30
-0.6000000000000015
 11
5.8499999999999996
 21
-2.0099999999999989
 31
-0.3100000000000005
 12
5.8499999999999996
 22
-2.4399999999999991
 32
-0.25
 13
1.7999999999999989
 23
-2.4499999999999988
 33
-0.5
  0
3DFACE
  5
767
  8
WING
 10
5.8499999999999996
 20
-2.0099999999999989
 30
-0.0899999999999999
 11
1.7999999999999989
 21
-2.1199999999999992
 31
-0.2100000000000008
 12
1.7999999999999989
 22
-2.4499999999999988
 32
-0.5
 13
5.8499999999999996
 23
-2.4399999999999991
 33
-0.25
  0
3DFACE
  5
768
  8
WING
 10
1.7999999999999989
 20
-2.1199999999999992
 30
-0.2100000000000008
 11
1.7499999999999989
 21
-2.1199999999999992
 31
-0.2100000000000008
 12
1.7499999999999989
 22
-2.4499999999999988
 32
-0.5
 13
1.7999999999999989
 23
-2.4499999999999988
 33
-0.5
  0
3DFACE
  5
769
  8
WING
 10
1.75
 20
-2.1199999999999992
 30
-0.6000000000000015
 11
1.7999999999999989
 21
-2.1199999999999992
 31
-0.6000000000000015
 12
1.7999999999999989
 22
-2.4499999999999988
 32
-0.5
 13
1.7499999999999989
 23
-2.4499999999999988
 33
-0.5
  0
3DFACE
  5
76A
  8
WING
 10
1.7499999999999989
 20
-2.1199999999999992
 30
-0.2100000000000008
 11
1.2199999999999991
 21
-2.1199999999999992
 31
-0.1900000000000013
 12
1.2199999999999991
 22
-2.4899999999999989
 32
-0.4800000000000005
 13
1.7499999999999989
 23
-2.4499999999999988
 33
-0.5
  0
3DFACE
  5
76B
  8
WING
 10
1.2199999999999991
 20
-2.1199999999999992
 30
-0.6000000000000015
 11
1.75
 21
-2.1199999999999992
 31
-0.6000000000000015
 12
1.7499999999999989
 22
-2.4499999999999988
 32
-0.5
 13
1.2199999999999991
 23
-2.4899999999999989
 33
-0.4800000000000005
  0
3DFACE
  5
76C
  8
WING
 10
0.98
 20
-2.1199999999999992
 30
-0.6000000000000015
 11
1.2199999999999991
 21
-2.1199999999999992
 31
-0.6000000000000015
 12
1.2199999999999991
 22
-2.4899999999999989
 32
-0.4800000000000005
 13
0.9799999999999997
 23
-2.5
 33
-0.4500000000000011
  0
3DFACE
  5
76D
  8
WING
 10
1.2199999999999991
 20
-2.1199999999999992
 30
-0.1900000000000013
 11
0.9799999999999997
 21
-2.1199999999999992
 31
-0.1799999999999997
 12
0.9799999999999997
 22
-2.5
 32
-0.4500000000000011
 13
1.2199999999999991
 23
-2.4899999999999989
 33
-0.4800000000000005
  0
3DFACE
  5
76E
  8
WING
 10
0.9799999999999997
 20
-2.1199999999999992
 30
-0.1799999999999997
 11
0.82
 21
-2.1199999999999992
 31
-0.1699999999999999
 12
0.82
 22
-2.52
 32
-0.4299999999999998
 13
0.9799999999999997
 23
-2.5
 33
-0.4500000000000011
  0
3DFACE
  5
76F
  8
WING
 10
0.8200000000000001
 20
-2.1199999999999992
 30
-0.6000000000000015
 11
0.98
 21
-2.1199999999999992
 31
-0.6000000000000015
 12
0.9799999999999997
 22
-2.5
 32
-0.4500000000000011
 13
0.82
 23
-2.52
 33
-0.4299999999999998
  0
3DFACE
  5
770
  8
WING
 10
0.71
 20
-2.1199999999999992
 30
-0.6000000000000015
 11
0.8200000000000001
 21
-2.1199999999999992
 31
-0.6000000000000015
 12
0.82
 22
-2.52
 32
-0.4299999999999998
 13
0.7099999999999999
 23
-2.5299999999999989
 33
-0.4000000000000004
  0
3DFACE
  5
771
  8
WING
 10
0.82
 20
-2.1199999999999992
 30
-0.1699999999999999
 11
0.7099999999999999
 21
-2.1199999999999992
 31
-0.1699999999999999
 12
0.7099999999999999
 22
-2.5299999999999989
 32
-0.4000000000000004
 13
0.82
 23
-2.52
 33
-0.4299999999999998
  0
3DFACE
  5
772
  8
WING
 10
0.7099999999999999
 20
-2.1199999999999992
 30
-0.1699999999999999
 11
0.6200000000000001
 21
-2.1199999999999992
 31
-0.1300000000000008
 12
0.6200000000000001
 22
-2.5599999999999992
 32
-0.3800000000000008
 13
0.7099999999999999
 23
-2.5299999999999989
 33
-0.4000000000000004
  0
3DFACE
  5
773
  8
WING
 10
0.6200000000000001
 20
-2.1199999999999992
 30
-0.6000000000000015
 11
0.71
 21
-2.1199999999999992
 31
-0.6000000000000015
 12
0.7099999999999999
 22
-2.5299999999999989
 32
-0.4000000000000004
 13
0.6200000000000001
 23
-2.5599999999999992
 33
-0.3800000000000008
  0
3DFACE
  5
774
  8
WING
 10
0.6200000000000001
 20
-2.1199999999999992
 30
-0.1300000000000008
 11
0.57
 21
-2.1199999999999992
 31
-0.0500000000000007
 12
0.57
 22
-2.5999999999999992
 32
-0.3600000000000012
 13
0.6200000000000001
 23
-2.5599999999999992
 33
-0.3800000000000008
  0
3DFACE
  5
775
  8
WING
 10
0.5700000000000001
 20
-2.1199999999999992
 30
-0.6000000000000015
 11
0.6200000000000001
 21
-2.1199999999999992
 31
-0.6000000000000015
 12
0.6200000000000001
 22
-2.5599999999999992
 32
-0.3800000000000008
 13
0.57
 23
-2.5999999999999992
 33
-0.3600000000000012
  0
3DFACE
  5
776
  8
WING
 10
0.51
 20
-2.1199999999999992
 30
-0.6000000000000015
 11
0.5700000000000001
 21
-2.1199999999999992
 31
-0.6000000000000015
 12
0.57
 22
-2.5999999999999992
 32
-0.3600000000000012
 13
0.51
 23
-2.6999999999999988
 33
-0.3100000000000005
  0
3DFACE
  5
777
  8
WING
 10
0.57
 20
-2.1199999999999992
 30
-0.0500000000000007
 11
0.51
 21
-2.1199999999999992
 31
0.0
 12
0.51
 22
-2.6999999999999988
 32
-0.3100000000000005
 13
0.57
 23
-2.5999999999999992
 33
-0.3600000000000012
  0
3DFACE
  5
778
  8
WING
 10
0.51
 20
-2.1199999999999992
 30
0.0
 11
0.0
 21
-2.1199999999999992
 31
0.0
 12
0.4200000000000001
 22
-2.8699999999999992
 32
-0.2200000000000006
 13
0.51
 23
-2.6999999999999988
 33
-0.3100000000000005
  0
3DFACE
  5
779
  8
WING
 10
0.0
 20
-2.1199999999999992
 30
-0.6000000000000015
 11
0.51
 21
-2.1199999999999992
 31
-0.6000000000000015
 12
0.51
 22
-2.6999999999999988
 32
-0.3100000000000005
 13
0.4200000000000001
 23
-2.8699999999999992
 33
-0.2200000000000006
  0
3DFACE
  5
7AD
  8
WING
 10
1.6799999999999999
 20
-1.6399999999999999
 30
-1.23
 11
1.641923881554251
 21
-1.548076118445749
 31
-1.23
 12
1.641923881554251
 22
-1.3980761184457491
 32
-1.0300000000000009
 13
1.6799999999999999
 23
-1.49
 33
-1.0300000000000009
  0
3DFACE
  5
7AE
  8
WING
 10
1.641923881554251
 20
-1.548076118445749
 30
-1.23
 11
1.55
 21
-1.51
 31
-1.23
 12
1.55
 22
-1.3600000000000001
 32
-1.0300000000000009
 13
1.641923881554251
 23
-1.3980761184457491
 33
-1.0300000000000009
  0
3DFACE
  5
7AF
  8
WING
 10
1.55
 20
-1.51
 30
-1.23
 11
1.458076118445748
 21
-1.548076118445749
 31
-1.23
 12
1.458076118445748
 22
-1.3980761184457491
 32
-1.0300000000000009
 13
1.55
 23
-1.3600000000000001
 33
-1.0300000000000009
  0
3DFACE
  5
7B0
  8
WING
 10
1.458076118445748
 20
-1.548076118445749
 30
-1.23
 11
1.419999999999999
 21
-1.6399999999999999
 31
-1.23
 12
1.419999999999999
 22
-1.49
 32
-1.0300000000000009
 13
1.458076118445748
 23
-1.3980761184457491
 33
-1.0300000000000009
  0
3DFACE
  5
7B1
  8
WING
 10
1.419999999999999
 20
-2.2599999999999998
 30
-1.23
 11
1.458076118445748
 21
-2.3519238815542511
 31
-1.23
 12
1.458076118445748
 22
-2.3519238815542511
 32
-1.0300000000000009
 13
1.419999999999999
 23
-2.2599999999999998
 33
-1.0300000000000009
  0
3DFACE
  5
7B2
  8
WING
 10
1.458076118445748
 20
-2.3519238815542511
 30
-1.23
 11
1.55
 21
-2.3900000000000001
 31
-1.23
 12
1.55
 22
-2.3900000000000001
 32
-1.0300000000000009
 13
1.458076118445748
 23
-2.3519238815542511
 33
-1.0300000000000009
  0
3DFACE
  5
7B3
  8
WING
 10
1.55
 20
-2.3900000000000001
 30
-1.23
 11
1.641923881554251
 21
-2.3519238815542511
 31
-1.23
 12
1.641923881554251
 22
-2.3519238815542511
 32
-1.0300000000000009
 13
1.55
 23
-2.3900000000000001
 33
-1.0300000000000009
  0
3DFACE
  5
7B4
  8
WING
 10
1.641923881554251
 20
-2.3519238815542511
 30
-1.23
 11
1.6799999999999999
 21
-2.2599999999999998
 31
-1.23
 12
1.6799999999999999
 22
-2.2599999999999998
 32
-1.0300000000000009
 13
1.641923881554251
 23
-2.3519238815542511
 33
-1.0300000000000009
  0
3DFACE
  5
7B5
  8
WING
 10
1.7599999999999989
 20
-2.1800000000000002
 30
-0.48
 11
1.698492424049175
 21
-2.3284924240491751
 31
-0.48
 12
1.641923881554251
 22
-2.3519238815542511
 32
-1.03
 13
1.6799999999999999
 23
-2.2599999999999998
 33
-1.03
  0
3DFACE
  5
7B6
  8
WING
 10
1.698492424049175
 20
-2.3284924240491751
 30
-0.48
 11
1.55
 21
-2.3900000000000001
 31
-0.48
 12
1.55
 22
-2.3900000000000001
 32
-1.03
 13
1.641923881554251
 23
-2.3519238815542511
 33
-1.03
  0
3DFACE
  5
7B7
  8
WING
 10
1.55
 20
-2.3900000000000001
 30
-0.48
 11
1.4015075759508251
 21
-2.3284924240491751
 31
-0.48
 12
1.458076118445748
 22
-2.3519238815542511
 32
-1.03
 13
1.55
 23
-2.3900000000000001
 33
-1.03
  0
3DFACE
  5
7B8
  8
WING
 10
1.4015075759508251
 20
-2.3284924240491751
 30
-0.48
 11
1.3400000000000001
 21
-2.1800000000000002
 31
-0.48
 12
1.419999999999999
 22
-2.2599999999999998
 32
-1.03
 13
1.458076118445748
 23
-2.3519238815542511
 33
-1.03
  0
3DFACE
  5
7B9
  8
WING
 10
1.3400000000000001
 20
-1.1799999999999999
 30
-0.48
 11
1.4015075759508251
 21
-1.031507575950825
 31
-0.48
 12
1.458076118445748
 22
-1.3980761184457491
 32
-1.03
 13
1.419999999999999
 23
-1.49
 33
-1.03
  0
3DFACE
  5
7BA
  8
WING
 10
1.4015075759508251
 20
-1.031507575950825
 30
-0.48
 11
1.55
 21
-0.9700000000000002
 31
-0.48
 12
1.55
 22
-1.3600000000000001
 32
-1.03
 13
1.458076118445748
 23
-1.3980761184457491
 33
-1.03
  0
3DFACE
  5
7BB
  8
WING
 10
1.55
 20
-0.9700000000000002
 30
-0.48
 11
1.698492424049175
 21
-1.031507575950825
 31
-0.48
 12
1.641923881554251
 22
-1.3980761184457491
 32
-1.03
 13
1.55
 23
-1.3600000000000001
 33
-1.03
  0
3DFACE
  5
7BC
  8
WING
 10
1.698492424049175
 20
-1.031507575950825
 30
-0.48
 11
1.7599999999999989
 21
-1.1799999999999999
 31
-0.48
 12
1.6799999999999999
 22
-1.49
 32
-1.03
 13
1.641923881554251
 23
-1.3980761184457491
 33
-1.03
  0
3DFACE
  5
7BD
  8
WING
 10
1.419999999999999
 20
-1.6399999999999999
 30
-1.23
 11
1.419999999999999
 21
-2.2599999999999998
 31
-1.23
 12
1.419999999999999
 22
-2.2599999999999998
 32
-1.0300000000000009
 13
1.419999999999999
 23
-1.49
 33
-1.0300000000000009
  0
3DFACE
  5
7BE
  8
WING
 10
1.6799999999999999
 20
-2.2599999999999998
 30
-1.23
 11
1.6799999999999999
 21
-1.6399999999999999
 31
-1.23
 12
1.6799999999999999
 22
-1.49
 32
-1.0300000000000009
 13
1.6799999999999999
 23
-2.2599999999999998
 33
-1.0300000000000009
  0
3DFACE
  5
7BF
  8
WING
 10
1.7599999999999989
 20
-1.1799999999999999
 30
-0.48
 11
1.7599999999999989
 21
-2.1800000000000002
 31
-0.48
 12
1.6799999999999999
 22
-2.2599999999999998
 32
-1.03
 13
1.6799999999999999
 23
-1.49
 33
-1.03
  0
3DFACE
  5
7C0
  8
WING
 10
1.3400000000000001
 20
-2.1800000000000002
 30
-0.48
 11
1.3400000000000001
 21
-1.1799999999999999
 31
-0.48
 12
1.419999999999999
 22
-1.49
 32
-1.03
 13
1.419999999999999
 23
-2.2599999999999998
 33
-1.03
  0
3DFACE
  5
81F
  8
WING
 10
1.679999999999999
 20
-1.2099999999999991
 30
-1.589999999999999
 11
1.419999999999999
 21
-1.2099999999999991
 31
-1.589999999999999
 12
1.419999999999999
 22
-1.3
 32
-1.5
 13
1.679999999999999
 23
-1.3
 33
-1.5
  0
3DFACE
  5
820
  8
WING
 10
1.679999999999999
 20
-1.3
 30
-1.5
 11
1.419999999999999
 21
-1.3
 31
-1.5
 12
1.419999999999999
 22
-1.4599999999999991
 32
-1.379999999999999
 13
1.679999999999999
 23
-1.4599999999999991
 33
-1.379999999999999
  0
3DFACE
  5
821
  8
WING
 10
1.679999999999999
 20
-1.4599999999999991
 30
-1.379999999999999
 11
1.419999999999999
 21
-1.4599999999999991
 31
-1.379999999999999
 12
1.419999999999999
 22
-1.52
 32
-1.3200000000000001
 13
1.679999999999999
 23
-1.52
 33
-1.3200000000000001
  0
3DFACE
  5
822
  8
WING
 10
1.679999999999999
 20
-1.52
 30
-1.3200000000000001
 11
1.419999999999999
 21
-1.52
 31
-1.3200000000000001
 12
1.5500000000000009
 22
-1.52
 32
-1.3099999999999981
 13
1.55
 23
-1.52
 33
-1.3099999999999981
  0
3DFACE
  5
823
  8
WING
 10
1.75
 20
-1.3
 30
-1.589999999999999
 11
1.679999999999999
 21
-1.2099999999999991
 31
-1.589999999999999
 12
1.679999999999999
 22
-1.3
 32
-1.5
 13
1.75
 23
-1.3899999999999999
 33
-1.5
  0
3DFACE
  5
824
  8
WING
 10
1.419999999999999
 20
-1.2099999999999991
 30
-1.589999999999999
 11
1.3500000000000001
 21
-1.3
 31
-1.589999999999999
 12
1.3500000000000001
 22
-1.3899999999999999
 32
-1.5
 13
1.419999999999999
 23
-1.3
 33
-1.5
  0
3DFACE
  5
825
  8
WING
 10
1.75
 20
-1.2199999999999991
 30
-1.6200000000000001
 11
1.679999999999999
 21
-1.2099999999999991
 31
-1.589999999999999
 12
1.679999999999999
 22
-1.2099999999999991
 32
-1.589999999999999
 13
1.75
 23
-1.3
 33
-1.589999999999999
  0
3DFACE
  5
826
  8
WING
 10
1.419999999999999
 20
-1.2099999999999991
 30
-1.589999999999999
 11
1.3500000000000001
 21
-1.2199999999999991
 31
-1.6200000000000001
 12
1.3500000000000001
 22
-1.3
 32
-1.589999999999999
 13
1.419999999999999
 23
-1.2099999999999991
 33
-1.589999999999999
  0
3DFACE
  5
827
  8
WING
 10
1.75
 20
-1.3899999999999999
 30
-1.5
 11
1.679999999999999
 21
-1.3
 31
-1.5
 12
1.679999999999999
 22
-1.4599999999999991
 32
-1.379999999999999
 13
1.75
 23
-1.53
 33
-1.379999999999999
  0
3DFACE
  5
828
  8
WING
 10
1.419999999999999
 20
-1.3
 30
-1.5
 11
1.3500000000000001
 21
-1.3899999999999999
 31
-1.5
 12
1.3500000000000001
 22
-1.53
 32
-1.379999999999999
 13
1.419999999999999
 23
-1.4599999999999991
 33
-1.379999999999999
  0
3DFACE
  5
829
  8
WING
 10
1.75
 20
-1.53
 30
-1.379999999999999
 11
1.679999999999999
 21
-1.4599999999999991
 31
-1.379999999999999
 12
1.679999999999999
 22
-1.52
 32
-1.3200000000000001
 13
1.75
 23
-1.5600000000000001
 33
-1.350000000000001
  0
3DFACE
  5
82A
  8
WING
 10
1.419999999999999
 20
-1.4599999999999991
 30
-1.379999999999999
 11
1.3500000000000001
 21
-1.53
 31
-1.379999999999999
 12
1.3500000000000001
 22
-1.5600000000000001
 32
-1.350000000000001
 13
1.419999999999999
 23
-1.52
 33
-1.3200000000000001
  0
3DFACE
  5
82B
  8
WING
 10
1.75
 20
-1.5600000000000001
 30
-1.350000000000001
 11
1.679999999999999
 21
-1.52
 31
-1.3200000000000001
 12
1.679999999999999
 22
-1.52
 32
-1.3099999999999981
 13
1.75
 23
-1.5600000000000001
 33
-1.350000000000001
  0
3DFACE
  5
82C
  8
WING
 10
1.419999999999999
 20
-1.52
 30
-1.3200000000000001
 11
1.3500000000000001
 21
-1.5600000000000001
 31
-1.350000000000001
 12
1.3500000000000001
 22
-1.5600000000000001
 32
-1.350000000000001
 13
1.419999999999999
 23
-1.52
 33
-1.3099999999999981
  0
3DFACE
  5
82D
  8
WING
 10
1.75
 20
-2.2000000000000002
 30
-1.859999999999999
 11
1.75
 21
-2.0600000000000001
 31
-1.859999999999999
 12
1.75
 22
-1.5600000000000001
 32
-1.350000000000001
 13
1.75
 23
-2.4300000000000002
 33
-1.350000000000001
  0
3DFACE
  5
82E
  8
WING
 10
1.3500000000000001
 20
-2.0600000000000001
 30
-1.859999999999999
 11
1.3500000000000001
 21
-2.2000000000000002
 31
-1.859999999999999
 12
1.3500000000000001
 22
-2.4300000000000002
 32
-1.350000000000001
 13
1.3500000000000001
 23
-1.5600000000000001
 33
-1.350000000000001
  0
3DFACE
  5
82F
  8
WING
 10
1.3500000000000001
 20
-1.8500000000000001
 30
-1.8299999999999981
 11
1.3500000000000001
 21
-2.0600000000000001
 31
-1.859999999999999
 12
1.3500000000000001
 22
-1.5600000000000001
 32
-1.350000000000001
 13
1.3500000000000001
 23
-1.7
 33
-1.7800000000000009
  0
3DFACE
  5
830
  8
WING
 10
1.75
 20
-2.0600000000000001
 30
-1.859999999999999
 11
1.75
 21
-1.8500000000000001
 31
-1.8299999999999981
 12
1.75
 22
-1.7
 32
-1.7800000000000009
 13
1.75
 23
-1.5600000000000001
 33
-1.350000000000001
  0
3DFACE
  5
831
  8
WING
 10
1.75
 20
-1.669999999999999
 30
-1.7800000000000009
 11
1.75
 21
-1.6399999999999999
 31
-1.8
 12
1.75
 22
-1.6299999999999999
 32
-1.8
 13
1.75
 23
-1.5600000000000001
 33
-1.350000000000001
  0
3DFACE
  5
832
  8
WING
 10
1.3500000000000001
 20
-1.6399999999999999
 30
-1.8
 11
1.3500000000000001
 21
-1.669999999999999
 31
-1.7800000000000009
 12
1.3500000000000001
 22
-1.5600000000000001
 32
-1.350000000000001
 13
1.3500000000000001
 23
-1.6299999999999999
 33
-1.8
  0
3DFACE
  5
833
  8
WING
 10
1.3500000000000001
 20
-1.5099999999999989
 30
-1.7600000000000009
 11
1.3500000000000001
 21
-1.6299999999999999
 31
-1.8
 12
1.3500000000000001
 22
-1.5600000000000001
 32
-1.350000000000001
 13
1.3500000000000001
 23
-1.3400000000000001
 33
-1.6900000000000011
  0
3DFACE
  5
834
  8
WING
 10
1.75
 20
-1.6299999999999999
 30
-1.8
 11
1.75
 21
-1.5099999999999989
 31
-1.7600000000000009
 12
1.75
 22
-1.3400000000000001
 32
-1.6900000000000011
 13
1.75
 23
-1.5600000000000001
 33
-1.350000000000001
  0
3DFACE
  5
835
  8
WING
 10
1.75
 20
-1.7
 30
-1.7800000000000009
 11
1.75
 21
-1.6699999999999999
 31
-1.7800000000000009
 12
1.75
 22
-1.6699999999999999
 32
-1.7800000000000009
 13
1.75
 23
-1.5600000000000001
 33
-1.350000000000001
  0
3DFACE
  5
836
  8
WING
 10
1.3500000000000001
 20
-1.6699999999999999
 30
-1.7800000000000009
 11
1.3500000000000001
 21
-1.7
 31
-1.7800000000000009
 12
1.3500000000000001
 22
-1.5600000000000001
 32
-1.350000000000001
 13
1.3500000000000001
 23
-1.6699999999999999
 33
-1.7800000000000009
  0
3DFACE
  5
837
  8
WING
 10
1.75
 20
-1.3400000000000001
 30
-1.6900000000000011
 11
1.75
 21
-1.3
 31
-1.589999999999999
 12
1.75
 22
-1.3899999999999999
 32
-1.5
 13
1.75
 23
-1.5600000000000001
 33
-1.350000000000001
  0
3DFACE
  5
838
  8
WING
 10
1.3500000000000001
 20
-1.3
 30
-1.589999999999999
 11
1.3500000000000001
 21
-1.3400000000000001
 31
-1.6900000000000011
 12
1.3500000000000001
 22
-1.5600000000000001
 32
-1.350000000000001
 13
1.3500000000000001
 23
-1.3899999999999999
 33
-1.5
  0
3DFACE
  5
839
  8
WING
 10
1.3500000000000001
 20
-1.2199999999999991
 30
-1.6200000000000001
 11
1.3500000000000001
 21
-1.3400000000000001
 31
-1.6900000000000011
 12
1.3500000000000001
 22
-1.3
 32
-1.589999999999999
 13
1.3500000000000001
 23
-1.3
 33
-1.589999999999999
  0
3DFACE
  5
83A
  8
WING
 10
1.75
 20
-1.3400000000000001
 30
-1.6900000000000011
 11
1.75
 21
-1.2199999999999991
 31
-1.6200000000000001
 12
1.75
 22
-1.3
 32
-1.589999999999999
 13
1.75
 23
-1.3
 33
-1.589999999999999
  0
3DFACE
  5
83B
  8
WING
 10
1.3500000000000001
 20
-2.4500000000000002
 30
-1.850000000000001
 11
1.3500000000000001
 21
-2.4700000000000002
 31
-1.8200000000000001
 12
1.3500000000000001
 22
-2.5
 32
-1.75
 13
1.3500000000000001
 23
-2.419999999999999
 33
-1.8200000000000001
  0
3DFACE
  5
83C
  8
WING
 10
1.75
 20
-2.4700000000000002
 30
-1.8200000000000001
 11
1.75
 21
-2.4500000000000002
 31
-1.850000000000001
 12
1.75
 22
-2.419999999999999
 32
-1.8200000000000001
 13
1.75
 23
-2.5
 33
-1.75
  0
3DFACE
  5
83D
  8
WING
 10
1.75
 20
-2.5
 30
-1.75
 11
1.75
 21
-2.419999999999999
 31
-1.8200000000000001
 12
1.75
 22
-2.379999999999999
 32
-1.8200000000000001
 13
1.75
 23
-2.52
 33
-1.6399999999999999
  0
3DFACE
  5
83E
  8
WING
 10
1.3500000000000001
 20
-2.419999999999999
 30
-1.8200000000000001
 11
1.3500000000000001
 21
-2.5
 31
-1.75
 12
1.3500000000000001
 22
-2.52
 32
-1.6399999999999999
 13
1.3500000000000001
 23
-2.379999999999999
 33
-1.8200000000000001
  0
3DFACE
  5
83F
  8
WING
 10
1.3500000000000001
 20
-2.379999999999999
 30
-1.8200000000000001
 11
1.3500000000000001
 21
-2.52
 31
-1.6399999999999999
 12
1.3500000000000001
 22
-2.52
 32
-1.5300000000000009
 13
1.3500000000000001
 23
-2.2000000000000002
 33
-1.859999999999999
  0
3DFACE
  5
840
  8
WING
 10
1.75
 20
-2.52
 30
-1.6399999999999999
 11
1.75
 21
-2.379999999999999
 31
-1.8200000000000001
 12
1.75
 22
-2.2000000000000002
 32
-1.859999999999999
 13
1.75
 23
-2.52
 33
-1.5300000000000009
  0
3DFACE
  5
841
  8
WING
 10
1.75
 20
-2.52
 30
-1.5300000000000009
 11
1.75
 21
-2.2000000000000002
 31
-1.859999999999999
 12
1.75
 22
-2.4599999999999991
 32
-1.3700000000000001
 13
1.75
 23
-2.5
 33
-1.4499999999999991
  0
3DFACE
  5
842
  8
WING
 10
1.3500000000000001
 20
-2.2000000000000002
 30
-1.859999999999999
 11
1.3500000000000001
 21
-2.52
 31
-1.5300000000000009
 12
1.3500000000000001
 22
-2.5
 32
-1.4499999999999991
 13
1.3500000000000001
 23
-2.4599999999999991
 33
-1.3700000000000001
  0
3DFACE
  5
843
  8
WING
 10
1.75
 20
-2.4599999999999991
 30
-1.3700000000000001
 11
1.75
 21
-2.2000000000000002
 31
-1.859999999999999
 12
1.75
 22
-2.4300000000000002
 32
-1.350000000000001
 13
1.75
 23
-2.4599999999999991
 33
-1.3700000000000001
  0
3DFACE
  5
844
  8
WING
 10
1.3500000000000001
 20
-2.2000000000000002
 30
-1.859999999999999
 11
1.3500000000000001
 21
-2.4599999999999991
 31
-1.3700000000000001
 12
1.3500000000000001
 22
-2.4599999999999991
 32
-1.3700000000000001
 13
1.3500000000000001
 23
-2.4300000000000002
 33
-1.350000000000001
  0
3DFACE
  5
845
  8
WING
 10
1.458076118445748
 20
-2.3719238815542512
 30
-1.2699999999999989
 11
1.55
 21
-2.4100000000000001
 31
-1.2699999999999989
 12
1.55
 22
-2.3900000000000001
 32
-1.23
 13
1.458076118445748
 23
-2.3519238815542511
 33
-1.23
  0
3DFACE
  5
846
  8
WING
 10
1.419999999999999
 20
-2.2799999999999998
 30
-1.2699999999999989
 11
1.458076118445748
 21
-2.3719238815542512
 31
-1.2699999999999989
 12
1.458076118445748
 22
-2.3519238815542511
 32
-1.23
 13
1.419999999999999
 23
-2.2599999999999998
 33
-1.23
  0
3DFACE
  5
847
  8
WING
 10
1.55
 20
-2.4100000000000001
 30
-1.2699999999999989
 11
1.641923881554251
 21
-2.3719238815542512
 31
-1.2699999999999989
 12
1.641923881554251
 22
-2.3519238815542511
 32
-1.23
 13
1.55
 23
-2.3900000000000001
 33
-1.23
  0
3DFACE
  5
848
  8
WING
 10
1.641923881554251
 20
-2.3719238815542512
 30
-1.2699999999999989
 11
1.6799999999999999
 21
-2.2799999999999998
 31
-1.2699999999999989
 12
1.6799999999999999
 22
-2.2599999999999998
 32
-1.23
 13
1.641923881554251
 23
-2.3519238815542511
 33
-1.23
  0
3DFACE
  5
849
  8
WING
 10
1.55
 20
-2.4599999999999991
 30
-1.3099999999999981
 11
1.641923881554251
 21
-2.4219238815542501
 31
-1.3099999999999981
 12
1.641923881554251
 22
-2.3719238815542512
 32
-1.2699999999999989
 13
1.55
 23
-2.4100000000000001
 33
-1.2699999999999989
  0
3DFACE
  5
84A
  8
WING
 10
1.641923881554251
 20
-2.4219238815542501
 30
-1.3099999999999981
 11
1.6799999999999999
 21
-2.3300000000000001
 31
-1.3099999999999981
 12
1.6799999999999999
 22
-2.2799999999999998
 32
-1.2699999999999989
 13
1.641923881554251
 23
-2.3719238815542512
 33
-1.2699999999999989
  0
3DFACE
  5
84B
  8
WING
 10
1.458076118445748
 20
-2.4219238815542501
 30
-1.3099999999999981
 11
1.55
 21
-2.4599999999999991
 31
-1.3099999999999981
 12
1.55
 22
-2.4100000000000001
 32
-1.2699999999999989
 13
1.458076118445748
 23
-2.3719238815542512
 33
-1.2699999999999989
  0
3DFACE
  5
84C
  8
WING
 10
1.419999999999999
 20
-2.3300000000000001
 30
-1.3099999999999981
 11
1.458076118445748
 21
-2.4219238815542501
 31
-1.3099999999999981
 12
1.458076118445748
 22
-2.3719238815542512
 32
-1.2699999999999989
 13
1.419999999999999
 23
-2.2799999999999998
 33
-1.2699999999999989
  0
3DFACE
  5
84D
  8
WING
 10
1.55
 20
-1.52
 30
-1.2600000000000009
 11
1.458076118445748
 21
-1.558076118445749
 31
-1.2600000000000009
 12
1.458076118445748
 22
-1.548076118445749
 32
-1.23
 13
1.55
 23
-1.51
 33
-1.23
  0
3DFACE
  5
84E
  8
WING
 10
1.641923881554251
 20
-1.558076118445749
 30
-1.2600000000000009
 11
1.55
 21
-1.52
 31
-1.2600000000000009
 12
1.55
 22
-1.51
 32
-1.23
 13
1.641923881554251
 23
-1.548076118445749
 33
-1.23
  0
3DFACE
  5
84F
  8
WING
 10
1.458076118445748
 20
-1.558076118445749
 30
-1.2600000000000009
 11
1.419999999999999
 21
-1.6499999999999999
 31
-1.2600000000000009
 12
1.419999999999999
 22
-1.6399999999999999
 32
-1.23
 13
1.458076118445748
 23
-1.548076118445749
 33
-1.23
  0
3DFACE
  5
850
  8
WING
 10
1.6799999999999999
 20
-1.6499999999999999
 30
-1.2600000000000009
 11
1.641923881554251
 21
-1.558076118445749
 31
-1.2600000000000009
 12
1.641923881554251
 22
-1.548076118445749
 32
-1.23
 13
1.6799999999999999
 23
-1.6399999999999999
 33
-1.23
  0
3DFACE
  5
851
  8
WING
 10
1.55
 20
-1.52
 30
-1.3099999999999981
 11
1.458076118445748
 21
-1.558076118445749
 31
-1.3099999999999981
 12
1.458076118445748
 22
-1.558076118445749
 32
-1.2600000000000009
 13
1.55
 23
-1.52
 33
-1.2600000000000009
  0
3DFACE
  5
852
  8
WING
 10
1.458076118445748
 20
-1.558076118445749
 30
-1.3099999999999981
 11
1.419999999999999
 21
-1.6499999999999999
 31
-1.3099999999999981
 12
1.419999999999999
 22
-1.6499999999999999
 32
-1.2600000000000009
 13
1.458076118445748
 23
-1.558076118445749
 33
-1.2600000000000009
  0
3DFACE
  5
853
  8
WING
 10
1.641923881554251
 20
-1.558076118445749
 30
-1.3099999999999981
 11
1.55
 21
-1.52
 31
-1.3099999999999981
 12
1.55
 22
-1.52
 32
-1.2600000000000009
 13
1.641923881554251
 23
-1.558076118445749
 33
-1.2600000000000009
  0
3DFACE
  5
854
  8
WING
 10
1.6799999999999999
 20
-1.6499999999999999
 30
-1.3099999999999981
 11
1.641923881554251
 21
-1.558076118445749
 31
-1.3099999999999981
 12
1.641923881554251
 22
-1.558076118445749
 32
-1.2600000000000009
 13
1.6799999999999999
 23
-1.6499999999999999
 33
-1.2600000000000009
  0
3DFACE
  5
855
  8
WING
 10
1.419999999999999
 20
-1.6499999999999999
 30
-1.3099999999999981
 11
1.419999999999999
 21
-2.3300000000000001
 31
-1.3099999999999981
 12
1.419999999999999
 22
-2.2799999999999998
 32
-1.2699999999999989
 13
1.419999999999999
 23
-1.6499999999999999
 33
-1.2600000000000009
  0
3DFACE
  5
856
  8
WING
 10
1.419999999999999
 20
-1.6499999999999999
 30
-1.2600000000000009
 11
1.419999999999999
 21
-2.2799999999999998
 31
-1.2699999999999989
 12
1.419999999999999
 22
-2.2599999999999998
 32
-1.23
 13
1.419999999999999
 23
-1.6399999999999999
 33
-1.23
  0
3DFACE
  5
857
  8
WING
 10
1.6799999999999999
 20
-2.3300000000000001
 30
-1.3099999999999981
 11
1.6799999999999999
 21
-1.6499999999999999
 31
-1.3099999999999981
 12
1.6799999999999999
 22
-1.6499999999999999
 32
-1.2600000000000009
 13
1.6799999999999999
 23
-2.2799999999999998
 33
-1.2699999999999989
  0
3DFACE
  5
858
  8
WING
 10
1.6799999999999999
 20
-2.2799999999999998
 30
-1.2699999999999989
 11
1.6799999999999999
 21
-1.6499999999999999
 31
-1.2600000000000009
 12
1.6799999999999999
 22
-1.6399999999999999
 32
-1.23
 13
1.6799999999999999
 23
-2.2599999999999998
 33
-1.23
  0
3DFACE
  5
85A
  8
WING
 10
1.419999999999999
 20
-2.52
 30
-1.3700000000000001
 11
1.679999999999999
 21
-2.52
 31
-1.3700000000000001
 12
1.55
 22
-2.4599999999999991
 32
-1.3099999999999981
 13
1.5499999999999989
 23
-2.4599999999999991
 33
-1.3099999999999981
  0
3DFACE
  5
85B
  8
WING
 10
1.419999999999999
 20
-2.569999999999999
 30
-1.4499999999999991
 11
1.679999999999999
 21
-2.569999999999999
 31
-1.4499999999999991
 12
1.679999999999999
 22
-2.52
 32
-1.3700000000000001
 13
1.419999999999999
 23
-2.52
 33
-1.3700000000000001
  0
3DFACE
  5
85C
  8
WING
 10
1.419999999999999
 20
-2.589999999999999
 30
-1.5300000000000009
 11
1.679999999999999
 21
-2.589999999999999
 31
-1.5300000000000009
 12
1.679999999999999
 22
-2.569999999999999
 32
-1.4499999999999991
 13
1.419999999999999
 23
-2.569999999999999
 33
-1.4499999999999991
  0
3DFACE
  5
85D
  8
WING
 10
1.419999999999999
 20
-2.589999999999999
 30
-1.6399999999999999
 11
1.679999999999999
 21
-2.589999999999999
 31
-1.6399999999999999
 12
1.679999999999999
 22
-2.589999999999999
 32
-1.5300000000000009
 13
1.419999999999999
 23
-2.589999999999999
 33
-1.5300000000000009
  0
3DFACE
  5
85E
  8
WING
 10
1.419999999999999
 20
-2.5600000000000001
 30
-1.75
 11
1.679999999999999
 21
-2.5600000000000001
 31
-1.75
 12
1.679999999999999
 22
-2.589999999999999
 32
-1.6399999999999999
 13
1.419999999999999
 23
-2.589999999999999
 33
-1.6399999999999999
  0
3DFACE
  5
85F
  8
WING
 10
1.419999999999999
 20
-2.5
 30
-1.8299999999999981
 11
1.679999999999999
 21
-2.5
 31
-1.8299999999999981
 12
1.679999999999999
 22
-2.5600000000000001
 32
-1.75
 13
1.419999999999999
 23
-2.5600000000000001
 33
-1.75
  0
3DFACE
  5
860
  8
WING
 10
1.419999999999999
 20
-2.4500000000000002
 30
-1.879999999999999
 11
1.679999999999999
 21
-2.4500000000000002
 31
-1.879999999999999
 12
1.679999999999999
 22
-2.5
 32
-1.8299999999999981
 13
1.419999999999999
 23
-2.5
 33
-1.8299999999999981
  0
3DFACE
  5
861
  8
WING
 10
1.419999999999999
 20
-2.4599999999999991
 30
-1.3099999999999981
 11
1.419999999999999
 21
-2.4599999999999991
 31
-1.3099999999999981
 12
1.55
 22
-2.4599999999999991
 32
-1.3099999999999981
 13
1.458076118445748
 23
-2.4219238815542501
 33
-1.3099999999999981
  0
3DFACE
  5
862
  8
WING
 10
1.679999999999999
 20
-2.4599999999999991
 30
-1.3099999999999981
 11
1.679999999999999
 21
-2.4599999999999991
 31
-1.3099999999999981
 12
1.641923881554251
 22
-2.4219238815542501
 32
-1.3099999999999981
 13
1.55
 23
-2.4599999999999991
 33
-1.3099999999999981
  0
3DFACE
  5
863
  8
WING
 10
1.419999999999999
 20
-2.52
 30
-1.3700000000000001
 11
1.419999999999999
 21
-2.52
 31
-1.3700000000000001
 12
1.5499999999999989
 22
-2.4599999999999991
 32
-1.3099999999999981
 13
1.419999999999999
 23
-2.4599999999999991
 33
-1.3099999999999981
  0
3DFACE
  5
864
  8
WING
 10
1.679999999999999
 20
-2.52
 30
-1.3700000000000001
 11
1.679999999999999
 21
-2.52
 31
-1.3700000000000001
 12
1.679999999999999
 22
-2.4599999999999991
 32
-1.3099999999999981
 13
1.55
 23
-2.4599999999999991
 33
-1.3099999999999981
  0
3DFACE
  5
865
  8
WING
 10
1.679999999999999
 20
-2.4500000000000002
 30
-1.879999999999999
 11
1.75
 21
-2.4500000000000002
 31
-1.850000000000001
 12
1.75
 22
-2.4700000000000002
 32
-1.8200000000000001
 13
1.679999999999999
 23
-2.5
 33
-1.8299999999999981
  0
3DFACE
  5
866
  8
WING
 10
1.3500000000000001
 20
-2.4500000000000002
 30
-1.850000000000001
 11
1.419999999999999
 21
-2.4500000000000002
 31
-1.879999999999999
 12
1.419999999999999
 22
-2.5
 32
-1.8299999999999981
 13
1.3500000000000001
 23
-2.4700000000000002
 33
-1.8200000000000001
  0
3DFACE
  5
867
  8
WING
 10
1.679999999999999
 20
-2.5
 30
-1.8299999999999981
 11
1.75
 21
-2.4700000000000002
 31
-1.8200000000000001
 12
1.75
 22
-2.5
 32
-1.75
 13
1.679999999999999
 23
-2.5600000000000001
 33
-1.75
  0
3DFACE
  5
868
  8
WING
 10
1.3500000000000001
 20
-2.4700000000000002
 30
-1.8200000000000001
 11
1.419999999999999
 21
-2.5
 31
-1.8299999999999981
 12
1.419999999999999
 22
-2.5600000000000001
 32
-1.75
 13
1.3500000000000001
 23
-2.5
 33
-1.75
  0
3DFACE
  5
869
  8
WING
 10
1.3500000000000001
 20
-2.5
 30
-1.75
 11
1.419999999999999
 21
-2.5600000000000001
 31
-1.75
 12
1.419999999999999
 22
-2.589999999999999
 32
-1.6399999999999999
 13
1.3500000000000001
 23
-2.52
 33
-1.6399999999999999
  0
3DFACE
  5
86A
  8
WING
 10
1.679999999999999
 20
-2.5600000000000001
 30
-1.75
 11
1.75
 21
-2.5
 31
-1.75
 12
1.75
 22
-2.52
 32
-1.6399999999999999
 13
1.679999999999999
 23
-2.589999999999999
 33
-1.6399999999999999
  0
3DFACE
  5
86B
  8
WING
 10
1.3500000000000001
 20
-2.52
 30
-1.6399999999999999
 11
1.419999999999999
 21
-2.589999999999999
 31
-1.6399999999999999
 12
1.419999999999999
 22
-2.589999999999999
 32
-1.5300000000000009
 13
1.3500000000000001
 23
-2.52
 33
-1.5300000000000009
  0
3DFACE
  5
86C
  8
WING
 10
1.679999999999999
 20
-2.589999999999999
 30
-1.6399999999999999
 11
1.75
 21
-2.52
 31
-1.6399999999999999
 12
1.75
 22
-2.52
 32
-1.5300000000000009
 13
1.679999999999999
 23
-2.589999999999999
 33
-1.5300000000000009
  0
3DFACE
  5
86D
  8
WING
 10
1.679999999999999
 20
-2.589999999999999
 30
-1.5300000000000009
 11
1.75
 21
-2.52
 31
-1.5300000000000009
 12
1.75
 22
-2.5
 32
-1.4499999999999991
 13
1.679999999999999
 23
-2.569999999999999
 33
-1.4499999999999991
  0
3DFACE
  5
86E
  8
WING
 10
1.3500000000000001
 20
-2.52
 30
-1.5300000000000009
 11
1.419999999999999
 21
-2.589999999999999
 31
-1.5300000000000009
 12
1.419999999999999
 22
-2.569999999999999
 32
-1.4499999999999991
 13
1.3500000000000001
 23
-2.5
 33
-1.4499999999999991
  0
3DFACE
  5
86F
  8
WING
 10
1.3500000000000001
 20
-2.5
 30
-1.4499999999999991
 11
1.419999999999999
 21
-2.569999999999999
 31
-1.4499999999999991
 12
1.419999999999999
 22
-2.52
 32
-1.369999999999997
 13
1.3500000000000001
 23
-2.4599999999999991
 33
-1.369999999999997
  0
3DFACE
  5
870
  8
WING
 10
1.679999999999999
 20
-2.569999999999999
 30
-1.4499999999999991
 11
1.75
 21
-2.5
 31
-1.4499999999999991
 12
1.75
 22
-2.4599999999999991
 32
-1.369999999999997
 13
1.679999999999999
 23
-2.52
 33
-1.369999999999997
  0
3DFACE
  5
871
  8
WING
 10
1.3500000000000001
 20
-2.4599999999999991
 30
-1.3700000000000001
 11
1.419999999999999
 21
-2.52
 31
-1.3700000000000001
 12
1.419999999999999
 22
-2.4599999999999991
 32
-1.3099999999999981
 13
1.3500000000000001
 23
-2.4300000000000002
 33
-1.349999999999997
  0
3DFACE
  5
872
  8
WING
 10
1.679999999999999
 20
-2.52
 30
-1.3700000000000001
 11
1.75
 21
-2.4599999999999991
 31
-1.3700000000000001
 12
1.75
 22
-2.4300000000000002
 32
-1.349999999999997
 13
1.679999999999999
 23
-2.4599999999999991
 33
-1.3099999999999981
  0
3DFACE
  5
873
  8
WING
 10
1.419999999999999
 20
-2.4599999999999991
 30
-1.3099999999999981
 11
1.419999999999999
 21
-2.4599999999999991
 31
-1.3099999999999981
 12
1.458076118445748
 22
-2.4219238815542501
 32
-1.3099999999999981
 13
1.419999999999999
 23
-2.3300000000000001
 33
-1.3099999999999981
  0
3DFACE
  5
875
  8
WING
 10
1.679999999999999
 20
-2.4599999999999991
 30
-1.3099999999999981
 11
1.679999999999999
 21
-2.4599999999999991
 31
-1.3099999999999981
 12
1.6799999999999999
 22
-2.3300000000000001
 32
-1.3099999999999981
 13
1.641923881554251
 23
-2.4219238815542501
 33
-1.3099999999999981
  0
3DFACE
  5
876
  8
WING
 10
1.3500000000000001
 20
-1.5600000000000001
 30
-1.350000000000001
 11
1.3500000000000001
 21
-2.4300000000000002
 31
-1.349999999999997
 12
1.419999999999999
 22
-2.3300000000000001
 32
-1.3099999999999981
 13
1.419999999999999
 23
-1.6499999999999999
 33
-1.3099999999999981
  0
3DFACE
  5
877
  8
WING
 10
1.419999999999999
 20
-2.4599999999999991
 30
-1.3099999999999981
 11
1.419999999999999
 21
-2.4599999999999991
 31
-1.3099999999999981
 12
1.419999999999999
 22
-2.3300000000000001
 32
-1.3099999999999981
 13
1.3500000000000001
 23
-2.430000000000005
 33
-1.350000000000001
  0
3DFACE
  5
878
  8
WING
 10
1.75
 20
-2.4300000000000002
 30
-1.350000000000001
 11
1.75
 21
-1.5600000000000001
 31
-1.350000000000001
 12
1.6799999999999999
 22
-1.6499999999999999
 32
-1.3099999999999981
 13
1.6799999999999999
 23
-2.3300000000000001
 33
-1.3099999999999981
  0
3DFACE
  5
879
  8
WING
 10
1.679999999999999
 20
-2.4599999999999991
 30
-1.3099999999999981
 11
1.679999999999999
 21
-2.4599999999999991
 31
-1.3099999999999981
 12
1.75
 22
-2.430000000000001
 32
-1.349999999999997
 13
1.6799999999999999
 23
-2.3300000000000001
 33
-1.3099999999999981
  0
3DFACE
  5
87A
  8
WING
 10
1.679999999999999
 20
-1.52
 30
-1.3200000000000001
 11
1.5500000000000009
 21
-1.52
 31
-1.3099999999999981
 12
1.6800000000000019
 22
-1.52
 32
-1.3099999999999981
 13
1.6800000000000019
 23
-1.52
 33
-1.3099999999999981
  0
3DFACE
  5
87B
  8
WING
 10
1.419999999999999
 20
-1.52
 30
-1.3200000000000001
 11
1.4199999999999999
 21
-1.5199999999999989
 31
-1.3099999999999981
 12
1.550000000000002
 22
-1.5199999999999989
 32
-1.3099999999999981
 13
1.550000000000002
 23
-1.5199999999999989
 33
-1.3099999999999981
  0
3DFACE
  5
87C
  8
WING
 10
1.679999999999999
 20
-1.52
 30
-1.3099999999999981
 11
1.679999999999999
 21
-1.52
 31
-1.3099999999999981
 12
1.55
 22
-1.52
 32
-1.3099999999999981
 13
1.641923881554251
 23
-1.558076118445749
 33
-1.3099999999999981
  0
3DFACE
  5
87D
  8
WING
 10
1.419999999999999
 20
-1.5199999999999989
 30
-1.3099999999999981
 11
1.419999999999999
 21
-1.5199999999999989
 31
-1.3099999999999981
 12
1.458076118445748
 22
-1.558076118445749
 32
-1.3099999999999981
 13
1.55
 23
-1.52
 33
-1.3099999999999981
  0
3DFACE
  5
87E
  8
WING
 10
1.6800000000000019
 20
-1.52
 30
-1.3099999999999981
 11
1.6800000000000019
 21
-1.52
 31
-1.3099999999999981
 12
1.641923881554251
 22
-1.558076118445749
 32
-1.3099999999999981
 13
1.6799999999999999
 23
-1.6499999999999999
 33
-1.3099999999999981
  0
3DFACE
  5
87F
  8
WING
 10
1.75
 20
-1.5600000000000001
 30
-1.350000000000001
 11
1.75
 21
-1.5600000000000001
 31
-1.350000000000001
 12
1.679999999999999
 22
-1.52
 32
-1.3099999999999981
 13
1.6799999999999999
 23
-1.6499999999999999
 33
-1.3099999999999981
  0
3DFACE
  5
880
  8
WING
 10
1.419999999999999
 20
-1.52
 30
-1.3099999999999981
 11
1.419999999999999
 21
-1.52
 31
-1.3099999999999981
 12
1.419999999999999
 22
-1.6499999999999999
 32
-1.3099999999999981
 13
1.458076118445748
 23
-1.558076118445749
 33
-1.3099999999999981
  0
3DFACE
  5
881
  8
WING
 10
1.3500000000000001
 20
-1.5600000000000001
 30
-1.350000000000001
 11
1.3500000000000001
 21
-1.5600000000000001
 31
-1.350000000000001
 12
1.419999999999999
 22
-1.6499999999999999
 32
-1.3099999999999981
 13
1.419999999999999
 23
-1.52
 33
-1.3099999999999981
  0
3DFACE
  5
8C9
  8
WING
 10
1.429999999999999
 20
-2.319999999999999
 30
-1.71
 11
1.465147186257614
 21
-2.2351471862576129
 31
-1.71
 12
1.465147186257614
 22
-2.1809188309203669
 32
-1.8409188309203679
 13
1.429999999999999
 23
-2.2409188309203669
 33
-1.9009188309203671
  0
3DFACE
  5
8CA
  8
WING
 10
1.465147186257614
 20
-2.2351471862576129
 30
-1.71
 11
1.55
 21
-2.1999999999999988
 31
-1.71
 12
1.5499999999999989
 22
-2.1560660171779809
 32
-1.8160660171779821
 13
1.465147186257614
 23
-2.1809188309203669
 33
-1.8409188309203679
  0
3DFACE
  5
8CB
  8
WING
 10
1.55
 20
-2.1999999999999988
 30
-1.71
 11
1.634852813742385
 21
-2.2351471862576129
 31
-1.71
 12
1.634852813742385
 22
-2.1809188309203669
 32
-1.8409188309203679
 13
1.5499999999999989
 23
-2.1560660171779809
 33
-1.8160660171779821
  0
3DFACE
  5
8CC
  8
WING
 10
1.634852813742385
 20
-2.2351471862576129
 30
-1.71
 11
1.6699999999999999
 21
-2.319999999999999
 31
-1.71
 12
1.669999999999999
 22
-2.2409188309203669
 32
-1.9009188309203671
 13
1.634852813742385
 23
-2.1809188309203669
 33
-1.8409188309203679
  0
3DFACE
  5
8CD
  8
WING
 10
1.6699999999999999
 20
-2.319999999999999
 30
-1.71
 11
1.634852813742385
 21
-2.404852813742385
 31
-1.71
 12
1.634852813742385
 22
-2.300918830920367
 32
-1.9609188309203669
 13
1.669999999999999
 23
-2.2409188309203669
 33
-1.9009188309203671
  0
3DFACE
  5
8CE
  8
WING
 10
1.634852813742385
 20
-2.404852813742385
 30
-1.71
 11
1.55
 21
-2.4399999999999991
 31
-1.71
 12
1.5499999999999989
 22
-2.3257716446627521
 32
-1.9857716446627529
 13
1.634852813742385
 23
-2.300918830920367
 33
-1.9609188309203669
  0
3DFACE
  5
8CF
  8
WING
 10
1.55
 20
-2.4399999999999991
 30
-1.71
 11
1.465147186257614
 21
-2.404852813742385
 31
-1.71
 12
1.465147186257614
 22
-2.300918830920367
 32
-1.9609188309203669
 13
1.5499999999999989
 23
-2.3257716446627521
 33
-1.9857716446627529
  0
3DFACE
  5
8D0
  8
WING
 10
1.465147186257614
 20
-2.404852813742385
 30
-1.71
 11
1.429999999999999
 21
-2.319999999999999
 31
-1.71
 12
1.429999999999999
 22
-2.2409188309203669
 32
-1.9009188309203671
 13
1.465147186257614
 23
-2.300918830920367
 33
-1.9609188309203669
  0
3DFACE
  5
8D1
  8
WING
 10
1.429999999999999
 20
-2.2409188309203669
 30
-1.9009188309203671
 11
1.465147186257614
 21
-2.1809188309203669
 31
-1.8409188309203679
 12
1.465147186257614
 22
-2.0499999999999989
 32
-1.8951471862576139
 13
1.429999999999999
 23
-2.0499999999999989
 33
-1.9799999999999991
  0
3DFACE
  5
8D2
  8
WING
 10
1.465147186257614
 20
-2.1809188309203669
 30
-1.8409188309203679
 11
1.5499999999999989
 21
-2.1560660171779809
 31
-1.8160660171779821
 12
1.5499999999999989
 22
-2.0499999999999989
 32
-1.859999999999999
 13
1.465147186257614
 23
-2.0499999999999989
 33
-1.8951471862576139
  0
3DFACE
  5
8D3
  8
WING
 10
1.5499999999999989
 20
-2.1560660171779809
 30
-1.8160660171779821
 11
1.634852813742385
 21
-2.1809188309203669
 31
-1.8409188309203679
 12
1.634852813742385
 22
-2.0499999999999989
 32
-1.8951471862576139
 13
1.5499999999999989
 23
-2.0499999999999989
 33
-1.859999999999999
  0
3DFACE
  5
8D4
  8
WING
 10
1.634852813742385
 20
-2.1809188309203669
 30
-1.8409188309203679
 11
1.669999999999999
 21
-2.2409188309203669
 31
-1.9009188309203671
 12
1.669999999999999
 22
-2.0499999999999989
 32
-1.9799999999999991
 13
1.634852813742385
 23
-2.0499999999999989
 33
-1.8951471862576139
  0
3DFACE
  5
8D5
  8
WING
 10
1.669999999999999
 20
-2.2409188309203669
 30
-1.9009188309203671
 11
1.634852813742385
 21
-2.300918830920367
 31
-1.9609188309203669
 12
1.634852813742385
 22
-2.0499999999999989
 32
-2.0648528137423852
 13
1.669999999999999
 23
-2.0499999999999989
 33
-1.9799999999999991
  0
3DFACE
  5
8D6
  8
WING
 10
1.634852813742385
 20
-2.300918830920367
 30
-1.9609188309203669
 11
1.5499999999999989
 21
-2.3257716446627521
 31
-1.9857716446627529
 12
1.5499999999999989
 22
-2.0499999999999989
 32
-2.1000000000000001
 13
1.634852813742385
 23
-2.0499999999999989
 33
-2.0648528137423852
  0
3DFACE
  5
8D7
  8
WING
 10
1.5499999999999989
 20
-2.3257716446627521
 30
-1.9857716446627529
 11
1.465147186257614
 21
-2.300918830920367
 31
-1.9609188309203669
 12
1.465147186257614
 22
-2.0499999999999989
 32
-2.0648528137423852
 13
1.5499999999999989
 23
-2.0499999999999989
 33
-2.1000000000000001
  0
3DFACE
  5
8D8
  8
WING
 10
1.465147186257614
 20
-2.300918830920367
 30
-1.9609188309203669
 11
1.429999999999999
 21
-2.2409188309203669
 31
-1.9009188309203671
 12
1.429999999999999
 22
-2.0499999999999989
 32
-1.9799999999999991
 13
1.465147186257614
 23
-2.0499999999999989
 33
-2.0648528137423852
  0
3DFACE
  5
8D9
  8
WING
 10
1.429999999999999
 20
-2.0499999999999989
 30
-1.9799999999999991
 11
1.465147186257614
 21
-2.0499999999999989
 31
-1.8951471862576139
 12
1.465147186257614
 22
-1.919081169079631
 32
-1.840918830920367
 13
1.4299999999999999
 23
-1.8590811690796309
 33
-1.9009188309203671
  0
3DFACE
  5
8DA
  8
WING
 10
1.465147186257614
 20
-2.0499999999999989
 30
-1.8951471862576139
 11
1.5499999999999989
 21
-2.0499999999999989
 31
-1.859999999999999
 12
1.55
 22
-1.943933982822017
 32
-1.816066017177981
 13
1.465147186257614
 23
-1.919081169079631
 33
-1.840918830920367
  0
3DFACE
  5
8DB
  8
WING
 10
1.5499999999999989
 20
-2.0499999999999989
 30
-1.859999999999999
 11
1.634852813742385
 21
-2.0499999999999989
 31
-1.8951471862576139
 12
1.634852813742385
 22
-1.919081169079631
 32
-1.840918830920367
 13
1.55
 23
-1.943933982822017
 33
-1.816066017177981
  0
3DFACE
  5
8DC
  8
WING
 10
1.634852813742385
 20
-2.0499999999999989
 30
-1.8951471862576139
 11
1.669999999999999
 21
-2.0499999999999989
 31
-1.9799999999999991
 12
1.6699999999999999
 22
-1.8590811690796309
 32
-1.9009188309203671
 13
1.634852813742385
 23
-1.919081169079631
 33
-1.840918830920367
  0
3DFACE
  5
8DD
  8
WING
 10
1.669999999999999
 20
-2.0499999999999989
 30
-1.9799999999999991
 11
1.634852813742385
 21
-2.0499999999999989
 31
-2.0648528137423852
 12
1.634852813742385
 22
-1.7990811690796309
 32
-1.9609188309203669
 13
1.6699999999999999
 23
-1.8590811690796309
 33
-1.9009188309203671
  0
3DFACE
  5
8DE
  8
WING
 10
1.634852813742385
 20
-2.0499999999999989
 30
-2.0648528137423852
 11
1.5499999999999989
 21
-2.0499999999999989
 31
-2.1000000000000001
 12
1.55
 22
-1.7742283553372451
 32
-1.9857716446627529
 13
1.634852813742385
 23
-1.7990811690796309
 33
-1.9609188309203669
  0
3DFACE
  5
8DF
  8
WING
 10
1.5499999999999989
 20
-2.0499999999999989
 30
-2.1000000000000001
 11
1.465147186257614
 21
-2.0499999999999989
 31
-2.0648528137423852
 12
1.465147186257614
 22
-1.7990811690796309
 32
-1.9609188309203669
 13
1.55
 23
-1.7742283553372451
 33
-1.9857716446627529
  0
3DFACE
  5
8E0
  8
WING
 10
1.465147186257614
 20
-2.0499999999999989
 30
-2.0648528137423852
 11
1.429999999999999
 21
-2.0499999999999989
 31
-1.9799999999999991
 12
1.4299999999999999
 22
-1.8590811690796309
 32
-1.9009188309203671
 13
1.465147186257614
 23
-1.7990811690796309
 33
-1.9609188309203669
  0
3DFACE
  5
8E1
  8
WING
 10
1.4299999999999999
 20
-1.8590811690796309
 30
-1.9009188309203671
 11
1.465147186257614
 21
-1.919081169079631
 31
-1.840918830920367
 12
1.465147186257614
 22
-1.864852813742385
 32
-1.7099999999999991
 13
1.4299999999999999
 23
-1.78
 33
-1.7099999999999991
  0
3DFACE
  5
8E2
  8
WING
 10
1.465147186257614
 20
-1.919081169079631
 30
-1.840918830920367
 11
1.55
 21
-1.943933982822017
 31
-1.816066017177981
 12
1.55
 22
-1.8999999999999999
 32
-1.7099999999999991
 13
1.465147186257614
 23
-1.864852813742385
 33
-1.7099999999999991
  0
3DFACE
  5
8E3
  8
WING
 10
1.55
 20
-1.943933982822017
 30
-1.816066017177981
 11
1.634852813742385
 21
-1.919081169079631
 31
-1.840918830920367
 12
1.634852813742385
 22
-1.864852813742385
 32
-1.7099999999999991
 13
1.55
 23
-1.8999999999999999
 33
-1.7099999999999991
  0
3DFACE
  5
8E4
  8
WING
 10
1.634852813742385
 20
-1.919081169079631
 30
-1.840918830920367
 11
1.6699999999999999
 21
-1.8590811690796309
 31
-1.9009188309203671
 12
1.6699999999999999
 22
-1.78
 32
-1.71
 13
1.634852813742385
 23
-1.864852813742385
 33
-1.7099999999999991
  0
3DFACE
  5
8E5
  8
WING
 10
1.6699999999999999
 20
-1.8590811690796309
 30
-1.9009188309203671
 11
1.634852813742385
 21
-1.7990811690796309
 31
-1.9609188309203669
 12
1.634852813742385
 22
-1.695147186257614
 32
-1.7099999999999991
 13
1.6699999999999999
 23
-1.78
 33
-1.71
  0
3DFACE
  5
8E6
  8
WING
 10
1.634852813742385
 20
-1.7990811690796309
 30
-1.9609188309203669
 11
1.55
 21
-1.7742283553372451
 31
-1.9857716446627529
 12
1.55
 22
-1.6599999999999999
 32
-1.7099999999999991
 13
1.634852813742385
 23
-1.695147186257614
 33
-1.7099999999999991
  0
3DFACE
  5
8E7
  8
WING
 10
1.55
 20
-1.7742283553372451
 30
-1.9857716446627529
 11
1.465147186257614
 21
-1.7990811690796309
 31
-1.9609188309203669
 12
1.465147186257614
 22
-1.695147186257614
 32
-1.7099999999999991
 13
1.55
 23
-1.6599999999999999
 33
-1.7099999999999991
  0
3DFACE
  5
8E8
  8
WING
 10
1.465147186257614
 20
-1.7990811690796309
 30
-1.9609188309203669
 11
1.4299999999999999
 21
-1.8590811690796309
 31
-1.9009188309203671
 12
1.4299999999999999
 22
-1.78
 32
-1.7099999999999991
 13
1.465147186257614
 23
-1.695147186257614
 33
-1.7099999999999991
  0
3DFACE
  5
919
  8
WING
 10
5.3949999999999987
 20
-2.29
 30
-0.28
 11
5.379999999999999
 21
-2.29
 31
-0.265
 12
5.379999999999999
 22
-2.79
 32
-0.265
 13
5.3949999999999987
 23
-2.79
 33
-0.28
  0
3DFACE
  5
91A
  8
WING
 10
5.379999999999999
 20
-2.29
 30
-0.265
 11
5.3650000000000002
 21
-2.29
 31
-0.28
 12
5.3650000000000002
 22
-2.79
 32
-0.28
 13
5.379999999999999
 23
-2.79
 33
-0.265
  0
3DFACE
  5
91B
  8
WING
 10
5.3650000000000002
 20
-2.29
 30
-0.28
 11
5.379999999999999
 21
-2.29
 31
-0.295
 12
5.379999999999999
 22
-2.79
 32
-0.295
 13
5.3650000000000002
 23
-2.79
 33
-0.28
  0
3DFACE
  5
91C
  8
WING
 10
5.379999999999999
 20
-2.29
 30
-0.295
 11
5.3949999999999987
 21
-2.29
 31
-0.28
 12
5.3949999999999987
 22
-2.79
 32
-0.28
 13
5.379999999999999
 23
-2.79
 33
-0.295
  0
3DFACE
  5
91D
  8
WING
 10
5.379999999999999
 20
-2.79
 30
-0.265
 11
5.3650000000000002
 21
-2.79
 31
-0.28
 12
5.379999999999999
 22
-2.79
 32
-0.295
 13
5.3949999999999987
 23
-2.79
 33
-0.28
  0
3DFACE
  5
C89
  8
WING
 10
1.55
 20
-2.54
 30
-0.71
 11
1.4850000000000001
 21
-2.5225833024919768
 31
-0.71
 12
1.5040380592228739
 22
-2.5225833024919768
 32
-0.7559619407771253
 13
1.55
 23
-2.54
 33
-0.7099999999999999
  0
3DFACE
  5
C8A
  8
WING
 10
1.4850000000000001
 20
-2.5225833024919768
 30
-0.71
 11
1.437416697508022
 21
-2.4750000000000001
 31
-0.71
 12
1.470391583359546
 22
-2.4750000000000001
 32
-0.7896084166404531
 13
1.5040380592228739
 23
-2.5225833024919768
 33
-0.7559619407771253
  0
3DFACE
  5
C8B
  8
WING
 10
1.437416697508022
 20
-2.4750000000000001
 30
-0.71
 11
1.419999999999999
 21
-2.4100000000000001
 31
-0.71
 12
1.458076118445748
 22
-2.4100000000000001
 32
-0.8019238815542509
 13
1.470391583359546
 23
-2.4750000000000001
 33
-0.7896084166404531
  0
3DFACE
  5
C8C
  8
WING
 10
1.55
 20
-2.54
 30
-0.7099999999999999
 11
1.5040380592228739
 21
-2.5225833024919768
 31
-0.7559619407771253
 12
1.55
 22
-2.5225833024919768
 32
-0.7749999999999999
 13
1.55
 23
-2.54
 33
-0.7099999999999999
  0
3DFACE
  5
C8D
  8
WING
 10
1.5040380592228739
 20
-2.5225833024919768
 30
-0.7559619407771253
 11
1.470391583359546
 21
-2.4750000000000001
 31
-0.7896084166404531
 12
1.55
 22
-2.4750000000000001
 32
-0.8225833024919769
 13
1.55
 23
-2.5225833024919768
 33
-0.7749999999999999
  0
3DFACE
  5
C8E
  8
WING
 10
1.470391583359546
 20
-2.4750000000000001
 30
-0.7896084166404531
 11
1.458076118445748
 21
-2.4100000000000001
 31
-0.8019238815542509
 12
1.55
 22
-2.4100000000000001
 32
-0.84
 13
1.55
 23
-2.4750000000000001
 33
-0.8225833024919769
  0
3DFACE
  5
C8F
  8
WING
 10
1.55
 20
-2.54
 30
-0.7099999999999999
 11
1.55
 21
-2.5225833024919768
 31
-0.7749999999999999
 12
1.5959619407771251
 22
-2.5225833024919768
 32
-0.7559619407771258
 13
1.55
 23
-2.54
 33
-0.7100000000000001
  0
3DFACE
  5
C90
  8
WING
 10
1.55
 20
-2.5225833024919768
 30
-0.7749999999999999
 11
1.55
 21
-2.4750000000000001
 31
-0.8225833024919769
 12
1.629608416640453
 22
-2.4750000000000001
 32
-0.7896084166404537
 13
1.5959619407771251
 23
-2.5225833024919768
 33
-0.7559619407771258
  0
3DFACE
  5
C91
  8
WING
 10
1.55
 20
-2.4750000000000001
 30
-0.8225833024919769
 11
1.55
 21
-2.4100000000000001
 31
-0.84
 12
1.641923881554251
 22
-2.4100000000000001
 32
-0.8019238815542514
 13
1.629608416640453
 23
-2.4750000000000001
 33
-0.7896084166404537
  0
3DFACE
  5
C92
  8
WING
 10
1.55
 20
-2.54
 30
-0.7100000000000001
 11
1.5959619407771251
 21
-2.5225833024919768
 31
-0.7559619407771258
 12
1.615
 22
-2.5225833024919768
 32
-0.71
 13
1.55
 23
-2.54
 33
-0.71
  0
3DFACE
  5
C93
  8
WING
 10
1.5959619407771251
 20
-2.5225833024919768
 30
-0.7559619407771258
 11
1.629608416640453
 21
-2.4750000000000001
 31
-0.7896084166404537
 12
1.6625833024919769
 22
-2.4750000000000001
 32
-0.71
 13
1.615
 23
-2.5225833024919768
 33
-0.71
  0
3DFACE
  5
C94
  8
WING
 10
1.629608416640453
 20
-2.4750000000000001
 30
-0.7896084166404537
 11
1.641923881554251
 21
-2.4100000000000001
 31
-0.8019238815542514
 12
1.6799999999999999
 22
-2.4100000000000001
 32
-0.71
 13
1.6625833024919769
 23
-2.4750000000000001
 33
-0.71
  0
3DFACE
  5
C95
  8
WING
 10
1.55
 20
-2.54
 30
-0.71
 11
1.615
 21
-2.5225833024919768
 31
-0.71
 12
1.5959619407771251
 22
-2.5225833024919768
 32
-0.6640380592228745
 13
1.55
 23
-2.54
 33
-0.71
  0
3DFACE
  5
C96
  8
WING
 10
1.615
 20
-2.5225833024919768
 30
-0.71
 11
1.6625833024919769
 21
-2.4750000000000001
 31
-0.71
 12
1.629608416640453
 22
-2.4750000000000001
 32
-0.6303915833595469
 13
1.5959619407771251
 23
-2.5225833024919768
 33
-0.6640380592228745
  0
3DFACE
  5
C97
  8
WING
 10
1.6625833024919769
 20
-2.4750000000000001
 30
-0.71
 11
1.6799999999999999
 21
-2.4100000000000001
 31
-0.71
 12
1.641923881554251
 22
-2.4100000000000001
 32
-0.6180761184457488
 13
1.629608416640453
 23
-2.4750000000000001
 33
-0.6303915833595469
  0
3DFACE
  5
C98
  8
WING
 10
1.55
 20
-2.54
 30
-0.71
 11
1.5959619407771251
 21
-2.5225833024919768
 31
-0.6640380592228745
 12
1.55
 22
-2.5225833024919768
 32
-0.6450000000000001
 13
1.55
 23
-2.54
 33
-0.71
  0
3DFACE
  5
C99
  8
WING
 10
1.5959619407771251
 20
-2.5225833024919768
 30
-0.6640380592228745
 11
1.629608416640453
 21
-2.4750000000000001
 31
-0.6303915833595469
 12
1.55
 22
-2.4750000000000001
 32
-0.597416697508023
 13
1.55
 23
-2.5225833024919768
 33
-0.6450000000000001
  0
3DFACE
  5
C9A
  8
WING
 10
1.629608416640453
 20
-2.4750000000000001
 30
-0.6303915833595469
 11
1.641923881554251
 21
-2.4100000000000001
 31
-0.6180761184457488
 12
1.55
 22
-2.4100000000000001
 32
-0.5799999999999999
 13
1.55
 23
-2.4750000000000001
 33
-0.597416697508023
  0
3DFACE
  5
C9B
  8
WING
 10
1.55
 20
-2.54
 30
-0.71
 11
1.55
 21
-2.5225833024919768
 31
-0.6450000000000001
 12
1.5040380592228739
 22
-2.5225833024919768
 32
-0.6640380592228745
 13
1.55
 23
-2.54
 33
-0.71
  0
3DFACE
  5
C9C
  8
WING
 10
1.55
 20
-2.5225833024919768
 30
-0.6450000000000001
 11
1.55
 21
-2.4750000000000001
 31
-0.597416697508023
 12
1.470391583359546
 22
-2.4750000000000001
 32
-0.6303915833595467
 13
1.5040380592228739
 23
-2.5225833024919768
 33
-0.6640380592228745
  0
3DFACE
  5
C9D
  8
WING
 10
1.55
 20
-2.4750000000000001
 30
-0.597416697508023
 11
1.55
 21
-2.4100000000000001
 31
-0.5799999999999999
 12
1.458076118445748
 22
-2.4100000000000001
 32
-0.6180761184457487
 13
1.470391583359546
 23
-2.4750000000000001
 33
-0.6303915833595467
  0
3DFACE
  5
C9E
  8
WING
 10
1.55
 20
-2.54
 30
-0.71
 11
1.5040380592228739
 21
-2.5225833024919768
 31
-0.6640380592228745
 12
1.4850000000000001
 22
-2.5225833024919768
 32
-0.71
 13
1.55
 23
-2.54
 33
-0.71
  0
3DFACE
  5
C9F
  8
WING
 10
1.5040380592228739
 20
-2.5225833024919768
 30
-0.6640380592228745
 11
1.470391583359546
 21
-2.4750000000000001
 31
-0.6303915833595467
 12
1.437416697508022
 22
-2.4750000000000001
 32
-0.71
 13
1.4850000000000001
 23
-2.5225833024919768
 33
-0.71
  0
3DFACE
  5
CA0
  8
WING
 10
1.470391583359546
 20
-2.4750000000000001
 30
-0.6303915833595467
 11
1.458076118445748
 21
-2.4100000000000001
 31
-0.6180761184457487
 12
1.419999999999999
 22
-2.4100000000000001
 32
-0.71
 13
1.437416697508022
 23
-2.4750000000000001
 33
-0.71
  0
3DFACE
  5
CA1
  8
WING
 10
1.6799999999999999
 20
-2.3100000000000001
 30
-0.71
 11
1.641923881554251
 21
-2.3100000000000001
 31
-0.6180761184457488
 12
1.641923881554251
 22
-2.4100000000000001
 32
-0.6180761184457488
 13
1.6799999999999999
 23
-2.4100000000000001
 33
-0.71
  0
3DFACE
  5
CA2
  8
WING
 10
1.641923881554251
 20
-2.3100000000000001
 30
-0.6180761184457488
 11
1.55
 21
-2.3900000000000001
 31
-0.58
 12
1.55
 22
-2.4100000000000001
 32
-0.58
 13
1.641923881554251
 23
-2.4100000000000001
 33
-0.6180761184457488
  0
3DFACE
  5
CA3
  8
WING
 10
1.55
 20
-2.3900000000000001
 30
-0.58
 11
1.458076118445748
 21
-2.3100000000000001
 31
-0.6180761184457488
 12
1.458076118445748
 22
-2.4100000000000001
 32
-0.6180761184457488
 13
1.55
 23
-2.4100000000000001
 33
-0.58
  0
3DFACE
  5
CA4
  8
WING
 10
1.458076118445748
 20
-2.3100000000000001
 30
-0.6180761184457488
 11
1.419999999999999
 21
-2.3100000000000001
 31
-0.71
 12
1.419999999999999
 22
-2.4100000000000001
 32
-0.71
 13
1.458076118445748
 23
-2.4100000000000001
 33
-0.6180761184457488
  0
3DFACE
  5
CA5
  8
WING
 10
1.419999999999999
 20
-2.3100000000000001
 30
-0.71
 11
1.458076118445748
 21
-2.3100000000000001
 31
-0.8019238815542511
 12
1.458076118445748
 22
-2.4100000000000001
 32
-0.8019238815542511
 13
1.419999999999999
 23
-2.4100000000000001
 33
-0.71
  0
3DFACE
  5
CA6
  8
WING
 10
1.458076118445748
 20
-2.3100000000000001
 30
-0.8019238815542511
 11
1.55
 21
-2.3900000000000001
 31
-0.84
 12
1.55
 22
-2.4100000000000001
 32
-0.84
 13
1.458076118445748
 23
-2.4100000000000001
 33
-0.8019238815542511
  0
3DFACE
  5
CA7
  8
WING
 10
1.55
 20
-2.3900000000000001
 30
-0.84
 11
1.641923881554251
 21
-2.3100000000000001
 31
-0.8019238815542511
 12
1.641923881554251
 22
-2.4100000000000001
 32
-0.8019238815542511
 13
1.55
 23
-2.4100000000000001
 33
-0.84
  0
3DFACE
  5
CA8
  8
WING
 10
1.641923881554251
 20
-2.3100000000000001
 30
-0.8019238815542511
 11
1.6799999999999999
 21
-2.3100000000000001
 31
-0.71
 12
1.6799999999999999
 22
-2.4100000000000001
 32
-0.71
 13
1.641923881554251
 23
-2.4100000000000001
 33
-0.8019238815542511
  0
VIEWPORT
  5
2E
 67
     1
  8
0
 10
144.7270812988281
 20
101.2295806407928
 30
0.0
 40
391.13550988316581
 41
222.15178063964839
 68
     2
 69
     1
1001
ACAD
1000
MVIEW
1002
{
1070
    16
1010
0.0
1020
0.0
1030
0.0
1010
0.0
1020
0.0
1030
1.0
1040
0.0
1040
222.15178063964839
1040
144.7270812988281
1040
101.2295806407928
1040
50.0
1040
0.0
1040
0.0
1070
     0
1070
   100
1070
     1
1070
     1
1070
     0
1070
     0
1070
     0
1070
     0
1040
0.0
1040
0.0
1040
0.0
1040
10.0
1040
10.0
1040
10.0
1040
10.0
1070
     0
1002
{
1002
}
1002
}
  0
VIEWPORT
  5
30
 67
     1
  8
0
 10
139.22375631332389
 20
100.8062499761581
 30
0.0
 40
222.75801010131829
 41
161.289999961853
 68
     1
 69
     2
1001
ACAD
1000
MVIEW
1002
{
1070
    16
1010
0.0
1020
0.0
1030
0.0
1010
0.0
1020
0.0
1030
1.0
1040
0.0
1040
307.49010134148989
1040
210.0
1040
148.5
1040
50.0
1040
0.0
1040
0.0
1070
     0
1070
   100
1070
     1
1070
     3
1070
     0
1070
     1
1070
     0
1070
     0
1040
0.0
1040
0.0
1040
0.0
1040
10.0
1040
10.0
1040
10.0
1040
10.0
1070
     0
1002
{
1002
}
1002
}
  0
ENDSEC
  0
EOF
