  0
SECTION
  2
HEADER
  9
$ACADVER
  1
AC1009
  9
$INSBASE
 10
0.0
 20
0.0
 30
0.0
  9
$EXTMIN
 10
-1.8
 20
-19.699999999999999
 30
-7.5499999999999989
  9
$EXTMAX
 10
3.0
 20
13.57
 30
3.3999999999999968
  9
$LIMMIN
 10
0.0
 20
0.0
  9
$LIMMAX
 10
420.0
 20
297.0
  9
$ORTHOMODE
 70
     1
  9
$REGENMODE
 70
     1
  9
$FILLMODE
 70
     1
  9
$QTEXTMODE
 70
     0
  9
$MIRRTEXT
 70
     1
  9
$DRAGMODE
 70
     2
  9
$LTSCALE
 40
1.0
  9
$OSMODE
 70
   559
  9
$ATTMODE
 70
     1
  9
$TEXTSIZE
 40
2.5
  9
$TRACEWID
 40
1.0
  9
$TEXTSTYLE
  7
STANDARD
  9
$CLAYER
  8
SIDE
  9
$CELTYPE
  6
BYLAYER
  9
$CECOLOR
 62
   256
  9
$DIMSCALE
 40
1.0
  9
$DIMASZ
 40
2.5
  9
$DIMEXO
 40
0.625
  9
$DIMDLI
 40
3.75
  9
$DIMRND
 40
0.0
  9
$DIMDLE
 40
0.0
  9
$DIMEXE
 40
1.25
  9
$DIMTP
 40
0.0
  9
$DIMTM
 40
0.0
  9
$DIMTXT
 40
2.5
  9
$DIMCEN
 40
2.5
  9
$DIMTSZ
 40
0.0
  9
$DIMTOL
 70
     0
  9
$DIMLIM
 70
     0
  9
$DIMTIH
 70
     0
  9
$DIMTOH
 70
     0
  9
$DIMSE1
 70
     0
  9
$DIMSE2
 70
     0
  9
$DIMTAD
 70
     1
  9
$DIMZIN
 70
     8
  9
$DIMBLK
  1

  9
$DIMASO
 70
     1
  9
$DIMSHO
 70
     1
  9
$DIMPOST
  1

  9
$DIMAPOST
  1

  9
$DIMALT
 70
     0
  9
$DIMALTD
 70
     3
  9
$DIMALTF
 40
0.03937007874016
  9
$DIMLFAC
 40
1.0
  9
$DIMTOFL
 70
     1
  9
$DIMTVP
 40
0.0
  9
$DIMTIX
 70
     0
  9
$DIMSOXD
 70
     0
  9
$DIMSAH
 70
     0
  9
$DIMBLK1
  1

  9
$DIMBLK2
  1

  9
$DIMSTYLE
  2
ISO-25
  9
$DIMCLRD
 70
     0
  9
$DIMCLRE
 70
     0
  9
$DIMCLRT
 70
     0
  9
$DIMTFAC
 40
1.0
  9
$DIMGAP
 40
0.625
  9
$LUNITS
 70
     2
  9
$LUPREC
 70
     4
  9
$SKETCHINC
 40
1.0
  9
$FILLETRAD
 40
10.0
  9
$AUNITS
 70
     0
  9
$AUPREC
 70
     0
  9
$MENU
  1
.
  9
$ELEVATION
 40
0.0
  9
$PELEVATION
 40
0.0
  9
$THICKNESS
 40
0.0
  9
$LIMCHECK
 70
     0
  9
$BLIPMODE
 70
     0
  9
$CHAMFERA
 40
10.0
  9
$CHAMFERB
 40
10.0
  9
$SKPOLY
 70
     0
  9
$TDCREATE
 40
2454969.6469681938
  9
$TDUPDATE
 40
2454969.947302754
  9
$TDINDWG
 40
0.3003349306
  9
$TDUSRTIMER
 40
0.3003345602
  9
$USRTIMER
 70
     1
  9
$ANGBASE
 50
0.0
  9
$ANGDIR
 70
     0
  9
$PDMODE
 70
     0
  9
$PDSIZE
 40
0.0
  9
$PLINEWID
 40
0.0
  9
$COORDS
 70
     1
  9
$SPLFRAME
 70
     0
  9
$SPLINETYPE
 70
     6
  9
$SPLINESEGS
 70
     8
  9
$ATTDIA
 70
     1
  9
$ATTREQ
 70
     1
  9
$HANDLING
 70
-16383
  9
$HANDSEED
  5
4D9
  9
$SURFTAB1
 70
     6
  9
$SURFTAB2
 70
     6
  9
$SURFTYPE
 70
     6
  9
$SURFU
 70
     6
  9
$SURFV
 70
     6
  9
$UCSNAME
  2

  9
$UCSORG
 10
0.0
 20
0.0
 30
0.0
  9
$UCSXDIR
 10
0.0
 20
-1.0
 30
0.0
  9
$UCSYDIR
 10
0.0
 20
0.0
 30
1.0
  9
$PUCSNAME
  2

  9
$PUCSORG
 10
0.0
 20
0.0
 30
0.0
  9
$PUCSXDIR
 10
1.0
 20
0.0
 30
0.0
  9
$PUCSYDIR
 10
0.0
 20
1.0
 30
0.0
  9
$USERI1
 70
     0
  9
$USERI2
 70
     0
  9
$USERI3
 70
     0
  9
$USERI4
 70
     0
  9
$USERI5
 70
     0
  9
$USERR1
 40
0.0
  9
$USERR2
 40
0.0
  9
$USERR3
 40
0.0
  9
$USERR4
 40
0.0
  9
$USERR5
 40
0.0
  9
$WORLDVIEW
 70
     1
  9
$SHADEDGE
 70
     3
  9
$SHADEDIF
 70
    70
  9
$TILEMODE
 70
     1
  9
$MAXACTVP
 70
    64
  9
$PLIMCHECK
 70
     0
  9
$PEXTMIN
 10
27.844751262664801
 20
20.161249995231621
 30
0.0
  9
$PEXTMAX
 10
250.60276136398309
 20
181.4512499570846
 30
0.0
  9
$PLIMMIN
 10
-3.757080078125
 20
-3.7570831775665279
  9
$PLIMMAX
 10
293.21124267578119
 20
206.21624445915219
  9
$UNITMODE
 70
     0
  9
$VISRETAIN
 70
     1
  9
$PLINEGEN
 70
     0
  9
$PSLTSCALE
 70
     1
  0
ENDSEC
  0
SECTION
  2
TABLES
  0
TABLE
  2
VPORT
 70
    49
  0
VPORT
  2
*ACTIVE
 70
     0
 10
0.0
 20
0.0
 11
1.0
 21
1.0
 12
5.0849958530509118
 22
-4.416671810036461
 13
0.0
 23
0.0
 14
0.01
 24
0.01
 15
1.0
 25
1.0
 16
-1.0
 26
0.0
 36
0.0
 17
0.0
 27
0.0
 37
0.0
 40
34.430518932985748
 41
1.7606679035250461
 42
50.0
 43
0.0
 44
0.0
 50
0.0
 51
0.0
 71
     0
 72
   100
 73
     1
 74
     3
 75
     1
 76
     1
 77
     0
 78
     0
  0
ENDTAB
  0
TABLE
  2
LTYPE
 70
     1
  0
LTYPE
  2
CONTINUOUS
 70
     0
  3
Solid line
 72
    65
 73
     0
 40
0.0
  0
ENDTAB
  0
TABLE
  2
LAYER
 70
     8
  0
LAYER
  2
0
 70
     0
 62
     7
  6
CONTINUOUS
  0
LAYER
  2
DRAWING
 70
     0
 62
     9
  6
CONTINUOUS
  0
LAYER
  2
TRACKS
 70
     0
 62
     3
  6
CONTINUOUS
  0
LAYER
  2
SIDE
 70
     0
 62
     5
  6
CONTINUOUS
  0
LAYER
  2
SIDE2
 70
     0
 62
     5
  6
CONTINUOUS
  0
LAYER
  2
TRACKS2
 70
     0
 62
     3
  6
CONTINUOUS
  0
LAYER
  2
TURRET
 70
     0
 62
     2
  6
CONTINUOUS
  0
LAYER
  2
GUN
 70
     0
 62
     1
  6
CONTINUOUS
  0
ENDTAB
  0
TABLE
  2
STYLE
 70
     1
  0
STYLE
  2
STANDARD
 70
     0
 40
0.0
 41
1.0
 50
0.0
 71
     0
 42
2.5
  3
txt
  4

  0
ENDTAB
  0
TABLE
  2
VIEW
 70
     0
  0
ENDTAB
  0
TABLE
  2
UCS
 70
     0
  0
ENDTAB
  0
TABLE
  2
APPID
 70
     1
  0
APPID
  2
ACAD
 70
     0
  0
ENDTAB
  0
TABLE
  2
DIMSTYLE
 70
     1
  0
DIMSTYLE
  2
ISO-25
 70
     0
  3

  4

  5

  6

  7

 40
1.0
 41
2.5
 42
0.625
 43
3.75
 44
1.25
 45
0.0
 46
0.0
 47
0.0
 48
0.0
140
2.5
141
2.5
142
0.0
143
0.03937007874016
144
1.0
145
0.0
146
1.0
147
0.625
 71
     0
 72
     0
 73
     0
 74
     0
 75
     0
 76
     0
 77
     1
 78
     8
170
     0
171
     3
172
     1
173
     0
174
     0
175
     0
176
     0
177
     0
178
     0
  0
ENDTAB
  0
ENDSEC
  0
SECTION
  2
BLOCKS
  0
BLOCK
  8
0
  2
$MODEL_SPACE
 70
     0
 10
0.0
 20
0.0
 30
0.0
  3
$MODEL_SPACE
  1

  0
ENDBLK
  5
21
  8
0
  0
BLOCK
 67
     1
  8
0
  2
$PAPER_SPACE
 70
     0
 10
0.0
 20
0.0
 30
0.0
  3
$PAPER_SPACE
  1

  0
ENDBLK
  5
1D
 67
     1
  8
0
  0
ENDSEC
  0
SECTION
  2
ENTITIES
  0
3DFACE
  5
CB
  8
SIDE
 10
1.409999999999999
 20
4.1399999999999997
 30
1.75
 11
1.409999999999999
 21
2.4100000000000001
 31
0.47
 12
1.409999999999999
 22
4.0300000000000002
 32
1.3999999999999999
 13
1.409999999999999
 23
4.1500000000000004
 33
1.5800000000000001
  0
3DFACE
  5
D3
  8
SIDE
 10
1.409999999999999
 20
4.0099999999999989
 30
1.919999999999999
 11
1.409999999999999
 21
3.8300000000000001
 31
2.0099999999999998
 12
1.409999999999999
 22
2.4100000000000001
 32
0.47
 13
1.409999999999999
 23
4.1399999999999997
 33
1.75
  0
3DFACE
  5
D9
  8
SIDE
 10
1.409999999999999
 20
1.9299999999999999
 30
2.3100000000000001
 11
1.409999999999999
 21
-0.8099999999999996
 31
2.3100000000000001
 12
1.409999999999999
 22
2.4100000000000001
 32
0.47
 13
1.409999999999999
 23
3.8300000000000001
 33
2.0099999999999998
  0
3DFACE
  5
E0
  8
SIDE
 10
1.409999999999999
 20
-0.8099999999999996
 30
2.3100000000000001
 11
1.409999999999999
 21
0.83
 31
0.0500000000000001
 12
1.409999999999999
 22
1.6200000000000001
 32
0.22
 13
1.409999999999999
 23
2.4100000000000001
 33
0.47
  0
3DFACE
  5
E7
  8
SIDE
 10
1.409999999999999
 20
-0.8099999999999996
 30
2.3100000000000001
 11
1.409999999999999
 21
-1.49
 31
2.2000000000000002
 12
1.409999999999999
 22
-1.2199999999999991
 32
0.0500000000000001
 13
1.409999999999999
 23
0.83
 33
0.0500000000000001
  0
3DFACE
  5
EE
  8
SIDE
 10
1.409999999999999
 20
-1.49
 30
2.2000000000000002
 11
1.409999999999999
 21
-2.5199999999999991
 31
1.8500000000000001
 12
1.409999999999999
 22
-2.7199999999999989
 32
0.12
 13
1.409999999999999
 23
-1.2199999999999991
 33
0.0500000000000001
  0
3DFACE
  5
F6
  8
SIDE
 10
1.409999999999999
 20
-2.5199999999999991
 30
1.8500000000000001
 11
1.409999999999999
 21
-3.9900000000000002
 31
0.9099999999999999
 12
1.409999999999999
 22
-3.8999999999999999
 32
0.26
 13
1.409999999999999
 23
-2.7199999999999989
 33
0.12
  0
3DFACE
  5
FC
  8
SIDE
 10
1.409999999999999
 20
-3.9900000000000002
 30
0.9099999999999999
 11
1.409999999999999
 21
-4.0800000000000001
 31
0.8200000000000001
 12
1.409999999999999
 22
-4.0399999999999991
 32
0.3599999999999999
 13
1.409999999999999
 23
-3.8999999999999999
 33
0.26
  0
3DFACE
  5
104
  8
SIDE
 10
1.409999999999999
 20
-4.0800000000000001
 30
0.8200000000000001
 11
1.409999999999999
 21
-4.1399999999999997
 31
0.71
 12
1.409999999999999
 22
-4.1399999999999997
 32
0.5200000000000001
 13
1.409999999999999
 23
-4.0399999999999991
 33
0.3599999999999999
  0
3DFACE
  5
10F
  8
SIDE
 10
0.7400000000000001
 20
4.1399999999999997
 30
1.75
 11
0.7400000000000001
 21
3.4100000000000001
 31
1.26
 12
0.7400000000000001
 22
3.8300000000000001
 32
2.0099999999999998
 13
0.7400000000000001
 23
4.0099999999999989
 33
1.919999999999999
  0
3DFACE
  5
110
  8
SIDE
 10
0.7400000000000004
 20
4.0300000000000002
 30
1.3999999999999999
 11
0.7400000000000001
 21
3.4100000000000001
 31
1.26
 12
0.7400000000000001
 22
4.1399999999999997
 32
1.75
 13
0.7400000000000001
 23
4.1500000000000004
 33
1.5800000000000001
  0
3DFACE
  5
111
  8
SIDE
 10
0.7400000000000001
 20
2.140000000000001
 30
0.6400000000000004
 11
0.7400000000000001
 21
3.4100000000000001
 31
1.26
 12
0.7400000000000004
 22
4.0300000000000002
 32
1.3999999999999999
 13
0.7400000000000004
 23
2.4100000000000001
 33
0.47
  0
3DFACE
  5
112
  8
SIDE
 10
0.7400000000000001
 20
1.380000000000001
 30
0.39
 11
0.7400000000000001
 21
2.1400000000000001
 31
0.6399999999999998
 12
0.7400000000000004
 22
2.4100000000000001
 32
0.4700000000000001
 13
0.7400000000000001
 23
1.6200000000000001
 33
0.22
  0
3DFACE
  5
113
  8
SIDE
 10
0.7400000000000001
 20
1.380000000000003
 30
0.3900000000000007
 11
0.7400000000000001
 21
1.380000000000003
 31
0.3900000000000007
 12
0.7400000000000001
 22
1.6200000000000001
 32
0.22
 13
0.7400000000000001
 23
0.83
 33
0.0500000000000001
  0
3DFACE
  5
114
  8
SIDE
 10
0.7400000000000001
 20
-2.9700000000000002
 30
0.39
 11
0.7400000000000001
 21
1.3799999999999999
 31
0.3899999999999998
 12
0.7400000000000001
 22
0.83
 32
0.0500000000000001
 13
0.7400000000000001
 23
-1.2199999999999991
 33
0.0500000000000001
  0
3DFACE
  5
115
  8
SIDE
 10
0.7400000000000001
 20
-3.8999999999999999
 30
0.26
 11
0.7400000000000001
 21
-2.9700000000000002
 31
0.3899999999999999
 12
0.7400000000000001
 22
-1.2199999999999991
 32
0.0500000000000001
 13
0.7400000000000001
 23
-2.7199999999999989
 33
0.1200000000000001
  0
3DFACE
  5
116
  8
SIDE
 10
0.7400000000000001
 20
-4.1399999999999997
 30
0.5200000000000001
 11
0.7400000000000001
 21
-2.9700000000000011
 31
0.39
 12
0.7400000000000001
 22
-3.8999999999999999
 32
0.26
 13
0.7400000000000001
 23
-4.0399999999999991
 33
0.3599999999999999
  0
3DFACE
  5
117
  8
SIDE
 10
0.7400000000000001
 20
-4.1399999999999997
 30
0.71
 11
0.7400000000000001
 21
-2.9699999999999989
 31
1.3100000000000001
 12
0.7400000000000001
 22
-2.9700000000000011
 32
0.39
 13
0.7400000000000001
 23
-3.8999999999999999
 33
0.26
  0
3DFACE
  5
118
  8
SIDE
 10
0.7400000000000001
 20
-4.1399999999999997
 30
0.5200000000000001
 11
0.7400000000000001
 21
-4.1399999999999997
 31
0.71
 12
0.7400000000000001
 22
-3.8999999999999999
 32
0.26
 13
0.7400000000000001
 23
-4.0399999999999991
 33
0.3599999999999999
  0
3DFACE
  5
119
  8
SIDE
 10
0.7400000000000001
 20
-4.0800000000000001
 30
0.8200000000000001
 11
0.7400000000000001
 21
-3.9900000000000002
 31
0.9100000000000001
 12
0.7400000000000001
 22
-2.9699999999999989
 32
1.3100000000000001
 13
0.7400000000000001
 23
-4.1399999999999997
 33
0.71
  0
3DFACE
  5
11A
  8
SIDE
 10
0.7400000000000001
 20
-2.629999999999999
 30
1.7796598639455781
 11
0.7400000000000001
 21
-2.629999999999999
 31
1.7796598639455781
 12
0.7400000000000001
 22
-2.629999999999999
 32
1.3799999999999999
 13
0.7400000000000001
 23
-2.9699999999999989
 33
1.3100000000000001
  0
3DFACE
  5
11B
  8
SIDE
 10
0.7400000000000001
 20
-2.629999999999999
 30
1.7796598639455781
 11
0.7400000000000001
 21
-2.629999999999999
 31
1.7796598639455781
 12
0.7400000000000001
 22
-2.9699999999999989
 32
1.3100000000000001
 13
0.7400000000000001
 23
-3.9900000000000002
 33
0.9100000000000003
  0
3DFACE
  5
11C
  8
SIDE
 10
0.7400000000000001
 20
3.8300000000000001
 30
2.0099999999999998
 11
0.7400000000000001
 21
3.4100000000000001
 31
1.26
 12
0.7400000000000001
 22
2.879999999999999
 32
1.8400000000000001
 13
0.7400000000000001
 23
3.8300000000000001
 33
2.0099999999999998
  0
3DFACE
  5
11D
  8
SIDE
 10
0.7400000000000001
 20
3.8300000000000001
 30
2.0099999999999998
 11
0.7400000000000001
 21
2.879999999999999
 31
1.8400000000000001
 12
0.7400000000000001
 22
2.0214409221902012
 32
2.2955619596541781
 13
0.7400000000000001
 23
3.8300000000000001
 33
2.0099999999999998
  0
3DFACE
  5
217
  8
SIDE
 10
1.409999999999999
 20
-0.3999999999999995
 30
2.149999999999999
 11
1.409999999999999
 21
-0.3999999999999995
 31
1.919999999999999
 12
1.5800000000000001
 22
-0.3999999999999995
 32
1.919999999999999
 13
1.5800000000000001
 23
-0.3999999999999995
 33
2.149999999999999
  0
3DFACE
  5
219
  8
SIDE
 10
1.409999999999999
 20
1.599999999999999
 30
2.149999999999999
 11
1.409999999999999
 21
-0.3999999999999995
 31
2.149999999999999
 12
1.5800000000000001
 22
-0.3999999999999995
 32
2.149999999999999
 13
1.5800000000000001
 23
1.599999999999999
 33
2.149999999999999
  0
3DFACE
  5
21A
  8
SIDE
 10
1.5800000000000001
 20
1.599999999999999
 30
2.149999999999999
 11
1.5800000000000001
 21
1.599999999999999
 31
1.919999999999999
 12
1.409999999999999
 22
1.599999999999999
 32
1.919999999999999
 13
1.409999999999999
 23
1.599999999999999
 33
2.149999999999999
  0
3DFACE
  5
21B
  8
SIDE
 10
1.5800000000000001
 20
1.599999999999999
 30
1.919999999999999
 11
1.5800000000000001
 21
1.1899999999999991
 31
1.919999999999999
 12
1.409999999999999
 22
1.1899999999999991
 32
1.919999999999999
 13
1.409999999999999
 23
1.599999999999999
 33
1.919999999999999
  0
3DFACE
  5
21F
  8
SIDE
 10
1.5800000000000001
 20
1.599999999999999
 30
1.2399999999999991
 11
1.5800000000000001
 21
-0.3999999999999995
 31
1.2399999999999991
 12
1.409999999999999
 22
-0.3999999999999995
 32
1.2399999999999991
 13
1.409999999999999
 23
1.599999999999999
 33
1.2399999999999991
  0
3DFACE
  5
221
  8
SIDE
 10
1.409999999999999
 20
-0.3999999999999995
 30
1.3600000000000001
 11
1.409999999999999
 21
-0.3999999999999995
 31
1.2399999999999991
 12
1.5800000000000001
 22
-0.3999999999999995
 32
1.2399999999999991
 13
1.5800000000000001
 23
-0.3999999999999995
 33
1.3600000000000001
  0
3DFACE
  5
222
  8
SIDE
 10
1.5800000000000001
 20
1.599999999999999
 30
1.3600000000000001
 11
1.5800000000000001
 21
1.599999999999999
 31
1.2399999999999991
 12
1.409999999999999
 22
1.599999999999999
 32
1.2399999999999991
 13
1.409999999999999
 23
1.599999999999999
 33
1.3600000000000001
  0
3DFACE
  5
223
  8
SIDE
 10
1.409999999999999
 20
1.599999999999999
 30
1.3600000000000001
 11
1.409999999999999
 21
1.1899999999999991
 31
1.3600000000000001
 12
1.5800000000000001
 22
1.1899999999999991
 32
1.3600000000000001
 13
1.5800000000000001
 23
1.599999999999999
 33
1.3600000000000001
  0
3DFACE
  5
227
  8
SIDE
 10
1.8
 20
-0.2000000000000002
 30
1.3600000000000001
 11
1.8
 21
-0.2000000000000002
 31
1.2399999999999991
 12
1.8
 22
1.3899999999999999
 32
1.2399999999999991
 13
1.8
 23
1.3899999999999999
 33
1.3600000000000001
  0
3DFACE
  5
228
  8
SIDE
 10
1.8
 20
1.3899999999999999
 30
1.2399999999999991
 11
1.8
 21
-0.2000000000000002
 31
1.2399999999999991
 12
1.5800000000000001
 22
-0.3999999999999995
 32
1.2399999999999991
 13
1.5800000000000001
 23
1.599999999999999
 33
1.2399999999999991
  0
3DFACE
  5
229
  8
SIDE
 10
1.5800000000000001
 20
1.599999999999999
 30
1.3600000000000001
 11
1.5800000000000001
 21
1.1899999999999991
 31
1.3600000000000001
 12
1.8
 22
1.1899999999999991
 32
1.3600000000000001
 13
1.8
 23
1.3899999999999999
 33
1.3600000000000001
  0
3DFACE
  5
22A
  8
SIDE
 10
1.5800000000000001
 20
1.599999999999999
 30
2.149999999999999
 11
1.5800000000000001
 21
-0.3999999999999995
 31
2.149999999999999
 12
1.8
 22
-0.2000000000000002
 32
2.149999999999999
 13
1.8
 23
1.3899999999999999
 33
2.149999999999999
  0
3DFACE
  5
22B
  8
SIDE
 10
1.8
 20
1.3899999999999999
 30
1.919999999999999
 11
1.8
 21
1.1899999999999991
 31
1.919999999999999
 12
1.5800000000000001
 22
1.1899999999999991
 32
1.919999999999999
 13
1.5800000000000001
 23
1.599999999999999
 33
1.919999999999999
  0
3DFACE
  5
22C
  8
SIDE
 10
1.8
 20
-0.2000000000000002
 30
2.149999999999999
 11
1.8
 21
-0.2000000000000002
 31
1.919999999999999
 12
1.8
 22
1.3899999999999999
 32
1.919999999999999
 13
1.8
 23
1.3899999999999999
 33
2.149999999999999
  0
3DFACE
  5
22D
  8
SIDE
 10
1.5800000000000001
 20
-0.3999999999999995
 30
1.3600000000000001
 11
1.5800000000000001
 21
-0.3999999999999995
 31
1.2399999999999991
 12
1.8
 22
-0.2000000000000002
 32
1.2399999999999991
 13
1.8
 23
-0.2000000000000002
 33
1.3600000000000001
  0
3DFACE
  5
22E
  8
SIDE
 10
1.8
 20
1.3899999999999999
 30
1.3600000000000001
 11
1.8
 21
1.3899999999999999
 31
1.2399999999999991
 12
1.5800000000000001
 22
1.599999999999999
 32
1.2399999999999991
 13
1.5800000000000001
 23
1.599999999999999
 33
1.3600000000000001
  0
3DFACE
  5
230
  8
SIDE
 10
1.5800000000000001
 20
-0.3999999999999995
 30
2.149999999999999
 11
1.5800000000000001
 21
-0.3999999999999995
 31
1.919999999999999
 12
1.8
 22
-0.2000000000000002
 32
1.919999999999999
 13
1.8
 23
-0.2000000000000002
 33
2.149999999999999
  0
3DFACE
  5
231
  8
SIDE
 10
1.8
 20
1.3899999999999999
 30
2.149999999999999
 11
1.8
 21
1.3899999999999999
 31
1.919999999999999
 12
1.5800000000000001
 22
1.599999999999999
 32
1.919999999999999
 13
1.5800000000000001
 23
1.599999999999999
 33
2.149999999999999
  0
3DFACE
  5
235
  8
SIDE
 10
1.8
 20
0.0300000000000003
 30
1.919999999999999
 11
1.8
 21
0.0300000000000003
 31
1.3600000000000001
 12
1.8
 22
1.1899999999999991
 32
1.3600000000000001
 13
1.8
 23
1.1899999999999991
 33
1.919999999999999
  0
3DFACE
  5
236
  8
SIDE
 10
1.409999999999999
 20
0.0300000000000003
 30
1.919999999999999
 11
1.409999999999999
 21
0.0300000000000003
 31
1.3600000000000001
 12
1.8
 22
0.0300000000000003
 32
1.3600000000000001
 13
1.8
 23
0.0300000000000003
 33
1.919999999999999
  0
3DFACE
  5
237
  8
SIDE
 10
1.8
 20
1.1899999999999991
 30
1.919999999999999
 11
1.8
 21
1.1899999999999991
 31
1.3600000000000001
 12
1.409999999999999
 22
1.1899999999999991
 32
1.3600000000000001
 13
1.409999999999999
 23
1.1899999999999991
 33
1.919999999999999
  0
3DFACE
  5
23C
  8
SIDE
 10
1.5800000000000001
 20
0.0300000000000003
 30
1.3600000000000001
 11
1.5800000000000001
 21
-0.3999999999999995
 31
1.3600000000000001
 12
1.8
 22
-0.2000000000000002
 32
1.3600000000000001
 13
1.8
 23
0.0300000000000003
 33
1.3600000000000001
  0
3DFACE
  5
23D
  8
SIDE
 10
1.409999999999999
 20
0.0300000000000003
 30
1.3600000000000001
 11
1.409999999999999
 21
-0.3999999999999995
 31
1.3600000000000001
 12
1.5800000000000001
 22
-0.3999999999999995
 32
1.3600000000000001
 13
1.5800000000000001
 23
0.0300000000000003
 33
1.3600000000000001
  0
3DFACE
  5
23E
  8
SIDE
 10
1.5800000000000001
 20
0.0300000000000003
 30
1.919999999999999
 11
1.5800000000000001
 21
-0.3999999999999995
 31
1.919999999999999
 12
1.409999999999999
 22
-0.3999999999999995
 32
1.919999999999999
 13
1.409999999999999
 23
0.0300000000000003
 33
1.919999999999999
  0
3DFACE
  5
23F
  8
SIDE
 10
1.8
 20
0.0300000000000003
 30
1.919999999999999
 11
1.8
 21
-0.2000000000000002
 31
1.919999999999999
 12
1.5800000000000001
 22
-0.3999999999999995
 32
1.919999999999999
 13
1.5800000000000001
 23
0.0300000000000003
 33
1.919999999999999
  0
VIEWPORT
  5
2E
 67
     1
  8
0
 10
144.7270812988281
 20
101.2295806407928
 30
0.0
 40
391.13550988316581
 41
222.15178063964839
 68
     2
 69
     1
1001
ACAD
1000
MVIEW
1002
{
1070
    16
1010
0.0
1020
0.0
1030
0.0
1010
0.0
1020
0.0
1030
1.0
1040
0.0
1040
222.15178063964839
1040
144.7270812988281
1040
101.2295806407928
1040
50.0
1040
0.0
1040
0.0
1070
     0
1070
   100
1070
     1
1070
     1
1070
     0
1070
     0
1070
     0
1070
     0
1040
0.0
1040
0.0
1040
0.0
1040
10.0
1040
10.0
1040
10.0
1040
10.0
1070
     0
1002
{
1002
}
1002
}
  0
VIEWPORT
  5
30
 67
     1
  8
0
 10
139.22375631332389
 20
100.8062499761581
 30
0.0
 40
222.75801010131829
 41
161.289999961853
 68
     1
 69
     2
1001
ACAD
1000
MVIEW
1002
{
1070
    16
1010
0.0
1020
0.0
1030
0.0
1010
0.0
1020
0.0
1030
1.0
1040
0.0
1040
307.49010134148989
1040
210.0
1040
148.5
1040
50.0
1040
0.0
1040
0.0
1070
     0
1070
   100
1070
     1
1070
     3
1070
     0
1070
     1
1070
     0
1070
     0
1040
0.0
1040
0.0
1040
0.0
1040
10.0
1040
10.0
1040
10.0
1040
10.0
1070
     0
1002
{
1002
}
1002
}
  0
ENDSEC
  0
EOF
