  0
SECTION
  2
HEADER
  9
$ACADVER
  1
AC1009
  9
$INSBASE
 10
0.0
 20
0.0
 30
0.0
  9
$EXTMIN
 10
-6.4499999999999993
 20
-34.07855192232531
 30
-40.159999999999997
  9
$EXTMAX
 10
6.450000000000002
 20
12.890000000000001
 30
43.803454545454542
  9
$LIMMIN
 10
0.0
 20
0.0
  9
$LIMMAX
 10
420.0
 20
297.0
  9
$ORTHOMODE
 70
     1
  9
$REGENMODE
 70
     1
  9
$FILLMODE
 70
     1
  9
$QTEXTMODE
 70
     0
  9
$MIRRTEXT
 70
     1
  9
$DRAGMODE
 70
     2
  9
$LTSCALE
 40
1.0
  9
$OSMODE
 70
    35
  9
$ATTMODE
 70
     1
  9
$TEXTSIZE
 40
2.5
  9
$TRACEWID
 40
1.0
  9
$TEXTSTYLE
  7
STANDARD
  9
$CLAYER
  8
GOGGLES
  9
$CELTYPE
  6
BYLAYER
  9
$CECOLOR
 62
   256
  9
$DIMSCALE
 40
1.0
  9
$DIMASZ
 40
2.5
  9
$DIMEXO
 40
0.625
  9
$DIMDLI
 40
3.75
  9
$DIMRND
 40
0.0
  9
$DIMDLE
 40
0.0
  9
$DIMEXE
 40
1.25
  9
$DIMTP
 40
0.0
  9
$DIMTM
 40
0.0
  9
$DIMTXT
 40
2.5
  9
$DIMCEN
 40
2.5
  9
$DIMTSZ
 40
0.0
  9
$DIMTOL
 70
     0
  9
$DIMLIM
 70
     0
  9
$DIMTIH
 70
     0
  9
$DIMTOH
 70
     0
  9
$DIMSE1
 70
     0
  9
$DIMSE2
 70
     0
  9
$DIMTAD
 70
     1
  9
$DIMZIN
 70
     8
  9
$DIMBLK
  1

  9
$DIMASO
 70
     1
  9
$DIMSHO
 70
     1
  9
$DIMPOST
  1

  9
$DIMAPOST
  1

  9
$DIMALT
 70
     0
  9
$DIMALTD
 70
     3
  9
$DIMALTF
 40
0.03937007874016
  9
$DIMLFAC
 40
1.0
  9
$DIMTOFL
 70
     1
  9
$DIMTVP
 40
0.0
  9
$DIMTIX
 70
     0
  9
$DIMSOXD
 70
     0
  9
$DIMSAH
 70
     0
  9
$DIMBLK1
  1

  9
$DIMBLK2
  1

  9
$DIMSTYLE
  2
ISO-25
  9
$DIMCLRD
 70
     0
  9
$DIMCLRE
 70
     0
  9
$DIMCLRT
 70
     0
  9
$DIMTFAC
 40
1.0
  9
$DIMGAP
 40
0.625
  9
$LUNITS
 70
     2
  9
$LUPREC
 70
     4
  9
$SKETCHINC
 40
1.0
  9
$FILLETRAD
 40
10.0
  9
$AUNITS
 70
     0
  9
$AUPREC
 70
     0
  9
$MENU
  1
.
  9
$ELEVATION
 40
0.0
  9
$PELEVATION
 40
0.0
  9
$THICKNESS
 40
0.0
  9
$LIMCHECK
 70
     0
  9
$BLIPMODE
 70
     0
  9
$CHAMFERA
 40
10.0
  9
$CHAMFERB
 40
10.0
  9
$SKPOLY
 70
     0
  9
$TDCREATE
 40
2457342.7250678008
  9
$TDUPDATE
 40
2457348.057898541
  9
$TDINDWG
 40
0.614358831
  9
$TDUSRTIMER
 40
0.614358831
  9
$USRTIMER
 70
     1
  9
$ANGBASE
 50
0.0
  9
$ANGDIR
 70
     0
  9
$PDMODE
 70
     0
  9
$PDSIZE
 40
0.0
  9
$PLINEWID
 40
0.0
  9
$COORDS
 70
     1
  9
$SPLFRAME
 70
     0
  9
$SPLINETYPE
 70
     6
  9
$SPLINESEGS
 70
     8
  9
$ATTDIA
 70
     1
  9
$ATTREQ
 70
     1
  9
$HANDLING
 70
-16383
  9
$HANDSEED
  5
1223
  9
$SURFTAB1
 70
     6
  9
$SURFTAB2
 70
     6
  9
$SURFTYPE
 70
     6
  9
$SURFU
 70
     6
  9
$SURFV
 70
     6
  9
$UCSNAME
  2

  9
$UCSORG
 10
0.0
 20
0.0
 30
0.0
  9
$UCSXDIR
 10
0.0
 20
-1.0
 30
0.0
  9
$UCSYDIR
 10
0.0
 20
0.0
 30
1.0
  9
$PUCSNAME
  2

  9
$PUCSORG
 10
0.0
 20
0.0
 30
0.0
  9
$PUCSXDIR
 10
1.0
 20
0.0
 30
0.0
  9
$PUCSYDIR
 10
0.0
 20
1.0
 30
0.0
  9
$USERI1
 70
     0
  9
$USERI2
 70
     0
  9
$USERI3
 70
     0
  9
$USERI4
 70
     0
  9
$USERI5
 70
     0
  9
$USERR1
 40
0.0
  9
$USERR2
 40
0.0
  9
$USERR3
 40
0.0
  9
$USERR4
 40
0.0
  9
$USERR5
 40
0.0
  9
$WORLDVIEW
 70
     1
  9
$SHADEDGE
 70
     3
  9
$SHADEDIF
 70
    70
  9
$TILEMODE
 70
     1
  9
$MAXACTVP
 70
    64
  9
$PLIMCHECK
 70
     0
  9
$PEXTMIN
 10
27.844751262664801
 20
20.161249995231621
 30
0.0
  9
$PEXTMAX
 10
250.60276136398309
 20
181.4512499570846
 30
0.0
  9
$PLIMMIN
 10
-3.757080078125
 20
-3.7570831775665279
  9
$PLIMMAX
 10
293.21124267578119
 20
206.21624445915219
  9
$UNITMODE
 70
     0
  9
$VISRETAIN
 70
     1
  9
$PLINEGEN
 70
     0
  9
$PSLTSCALE
 70
     1
  0
ENDSEC
  0
SECTION
  2
TABLES
  0
TABLE
  2
VPORT
 70
     5
  0
VPORT
  2
*ACTIVE
 70
     0
 10
0.0
 20
0.0
 11
1.0
 21
1.0
 12
0.6773639344838216
 22
-0.0360957580078496
 13
0.0
 23
0.0
 14
0.01
 24
0.01
 15
1.0
 25
1.0
 16
-1.0
 26
0.0
 36
0.0
 17
0.0
 27
0.0
 37
0.0
 40
3.1605237264758661
 41
2.126136363636363
 42
50.0
 43
0.0
 44
0.0
 50
0.0
 51
0.0
 71
     0
 72
   100
 73
     1
 74
     3
 75
     1
 76
     1
 77
     0
 78
     0
  0
ENDTAB
  0
TABLE
  2
LTYPE
 70
     1
  0
LTYPE
  2
CONTINUOUS
 70
     0
  3
Solid line
 72
    65
 73
     0
 40
0.0
  0
ENDTAB
  0
TABLE
  2
LAYER
 70
    13
  0
LAYER
  2
0
 70
     0
 62
     7
  6
CONTINUOUS
  0
LAYER
  2
DRAWING
 70
     0
 62
     9
  6
CONTINUOUS
  0
LAYER
  2
TMP
 70
     0
 62
     4
  6
CONTINUOUS
  0
LAYER
  2
PROPELLER
 70
     0
 62
     1
  6
CONTINUOUS
  0
LAYER
  2
W1
 70
     0
 62
     5
  6
CONTINUOUS
  0
LAYER
  2
MG
 70
     0
 62
     1
  6
CONTINUOUS
  0
LAYER
  2
TURRET
 70
     0
 62
     2
  6
CONTINUOUS
  0
LAYER
  2
W2
 70
     0
 62
     5
  6
CONTINUOUS
  0
LAYER
  2
SUPPORTS
 70
     0
 62
     3
  6
CONTINUOUS
  0
LAYER
  2
HEAD
 70
     0
 62
     7
  6
CONTINUOUS
  0
LAYER
  2
GOGGLES
 70
     0
 62
     6
  6
CONTINUOUS
  0
LAYER
  2
G2
 70
     0
 62
     4
  6
CONTINUOUS
  0
ENDTAB
  0
TABLE
  2
STYLE
 70
     1
  0
STYLE
  2
STANDARD
 70
     0
 40
0.0
 41
1.0
 50
0.0
 71
     0
 42
2.5
  3
txt
  4

  0
ENDTAB
  0
TABLE
  2
VIEW
 70
     0
  0
ENDTAB
  0
TABLE
  2
UCS
 70
     0
  0
ENDTAB
  0
TABLE
  2
APPID
 70
     1
  0
APPID
  2
ACAD
 70
     0
  0
ENDTAB
  0
TABLE
  2
DIMSTYLE
 70
     1
  0
DIMSTYLE
  2
ISO-25
 70
     0
  3

  4

  5

  6

  7

 40
1.0
 41
2.5
 42
0.625
 43
3.75
 44
1.25
 45
0.0
 46
0.0
 47
0.0
 48
0.0
140
2.5
141
2.5
142
0.0
143
0.03937007874016
144
1.0
145
0.0
146
1.0
147
0.625
 71
     0
 72
     0
 73
     0
 74
     0
 75
     0
 76
     0
 77
     1
 78
     8
170
     0
171
     3
172
     1
173
     0
174
     0
175
     0
176
     0
177
     0
178
     0
  0
ENDTAB
  0
ENDSEC
  0
SECTION
  2
BLOCKS
  0
BLOCK
  8
0
  2
$MODEL_SPACE
 70
     0
 10
0.0
 20
0.0
 30
0.0
  3
$MODEL_SPACE
  1

  0
ENDBLK
  5
21
  8
0
  0
BLOCK
 67
     1
  8
0
  2
$PAPER_SPACE
 70
     0
 10
0.0
 20
0.0
 30
0.0
  3
$PAPER_SPACE
  1

  0
ENDBLK
  5
1D
 67
     1
  8
0
  0
BLOCK
  8
0
  2
A$C498E41F1
 70
     0
 10
0.0
 20
0.0
 30
0.0
  3
A$C498E41F1
  1

  0
3DFACE
  5
EF5
  8
HEAD
 10
0.4919049932268931
 20
0.6410609972395064
 30
0.2164989999999999
 11
0.5203259932268932
 21
0.4644259972395063
 31
0.255178
 12
0.5352739932268931
 22
0.6395219972395064
 32
0.050415
 13
0.5352739932268931
 23
0.6395219972395064
 33
0.050415
  0
3DFACE
  5
EF6
  8
HEAD
 10
0.5203259932268932
 20
0.4644259972395063
 30
0.255178
 11
0.5704039932268931
 21
0.4551019972395064
 31
0.051971
 12
0.5352739932268931
 22
0.6395219972395064
 32
0.050415
 13
0.5352739932268931
 23
0.6395219972395064
 33
0.050415
  0
3DFACE
  5
EF7
  8
HEAD
 10
0.2422119932268931
 20
0.6420379972395063
 30
0.319145
 11
0.231356993226893
 21
0.4724189972395063
 31
0.361967
 12
0.378362993226893
 22
0.6420379972395063
 32
0.319145
 13
0.378362993226893
 23
0.6420379972395063
 33
0.319145
  0
3DFACE
  5
EF8
  8
HEAD
 10
0.231356993226893
 20
0.4724189972395063
 30
0.361967
 11
0.389218993226893
 21
0.4724189972395063
 31
0.361967
 12
0.378362993226893
 22
0.6420379972395063
 32
0.319145
 13
0.378362993226893
 23
0.6420379972395063
 33
0.319145
  0
3DFACE
  5
EF9
  8
HEAD
 10
0.4274369932268931
 20
0.5845209972395064
 30
0.211603
 11
0.310287993226893
 21
0.5808209972395063
 31
0.264179
 12
0.4454689932268931
 22
0.4598379972395064
 32
0.284359
 13
0.4454689932268931
 23
0.4598379972395064
 33
0.284359
  0
3DFACE
  5
EFA
  8
HEAD
 10
0.310287993226893
 20
0.5808209972395063
 30
0.264179
 11
0.310287993226893
 21
0.4598379972395064
 31
0.323704
 12
0.4454689932268931
 22
0.4598379972395064
 32
0.284359
 13
0.4454689932268931
 23
0.4598379972395064
 33
0.284359
  0
3DFACE
  5
EFB
  8
HEAD
 10
0.5338179932268931
 20
0.4194019972395063
 30
0.252453
 11
0.4038149932268932
 21
0.4354749972395064
 31
0.365487
 12
0.310287993226893
 22
0.6792769972395063
 32
0.056762
 13
0.310287993226893
 23
0.6792769972395063
 33
0.056762
  0
3DFACE
  5
EFC
  8
HEAD
 10
0.378362993226893
 20
0.6420379972395063
 30
0.319145
 11
0.389218993226893
 21
0.4724189972395063
 31
0.361967
 12
0.4919049932268931
 22
0.6410609972395064
 32
0.2164989999999999
 13
0.4919049932268931
 23
0.6410609972395064
 33
0.2164989999999999
  0
3DFACE
  5
EFD
  8
HEAD
 10
0.389218993226893
 20
0.4724189972395063
 30
0.361967
 11
0.5203259932268932
 21
0.4644259972395063
 31
0.255178
 12
0.4919049932268931
 22
0.6410609972395064
 32
0.2164989999999999
 13
0.4919049932268931
 23
0.6410609972395064
 33
0.2164989999999999
  0
3DFACE
  5
EFE
  8
HEAD
 10
0.4979139932268931
 20
0.5936389972395064
 30
0.08103
 11
0.4274369932268931
 21
0.5845209972395064
 31
0.211603
 12
0.5225959932268931
 22
0.5000379972395064
 32
0.055555
 13
0.5225959932268931
 23
0.5000379972395064
 33
0.055555
  0
3DFACE
  5
EFF
  8
HEAD
 10
0.4274369932268931
 20
0.5845209972395064
 30
0.211603
 11
0.4454689932268931
 21
0.4598379972395064
 31
0.284359
 12
0.5225959932268931
 22
0.5000379972395064
 32
0.055555
 13
0.5225959932268931
 23
0.5000379972395064
 33
0.055555
  0
3DFACE
  5
F00
  8
HEAD
 10
0.0501709932268931
 20
0.4551019972395064
 30
0.051971
 11
0.100249993226893
 21
0.4644259972395063
 31
0.255178
 12
0.0853009932268931
 22
0.6395219972395064
 32
0.050415
 13
0.0853009932268931
 23
0.6395219972395064
 33
0.050415
  0
3DFACE
  5
F01
  8
HEAD
 10
0.0853009932268931
 20
0.6395219972395064
 30
0.050415
 11
0.100249993226893
 21
0.4644259972395063
 31
0.255178
 12
0.1286699932268931
 22
0.6410609972395064
 32
0.2164989999999999
 13
0.1286699932268931
 23
0.6410609972395064
 33
0.2164989999999999
  0
3DFACE
  5
F02
  8
HEAD
 10
0.122661993226893
 20
0.5936389972395064
 30
0.08103
 11
0.0979789932268931
 21
0.5000379972395064
 31
0.055555
 12
0.193137993226893
 22
0.5845209972395064
 32
0.211603
 13
0.193137993226893
 23
0.5845209972395064
 33
0.211603
  0
3DFACE
  5
F03
  8
HEAD
 10
0.0979789932268931
 20
0.5000379972395064
 30
0.055555
 11
0.175105993226893
 21
0.4598379972395064
 31
0.284359
 12
0.193137993226893
 22
0.5845209972395064
 32
0.211603
 13
0.193137993226893
 23
0.5845209972395064
 33
0.211603
  0
3DFACE
  5
F04
  8
HEAD
 10
0.310287993226893
 20
0.6792769972395063
 30
0.056762
 11
0.216759993226893
 21
0.4354749972395064
 31
0.365487
 12
0.0867579932268931
 22
0.4194019972395063
 32
0.252453
 13
0.0867579932268931
 23
0.4194019972395063
 33
0.252453
  0
3DFACE
  5
F05
  8
HEAD
 10
0.310287993226893
 20
0.6792769972395063
 30
0.056762
 11
0.4038149932268932
 21
0.4354749972395064
 31
0.365487
 12
0.216759993226893
 22
0.4354749972395064
 32
0.365487
 13
0.216759993226893
 23
0.4354749972395064
 33
0.365487
  0
3DFACE
  5
F06
  8
HEAD
 10
0.100249993226893
 20
0.4644259972395063
 30
0.255178
 11
0.231356993226893
 21
0.4724189972395063
 31
0.361967
 12
0.1286699932268931
 22
0.6410609972395064
 32
0.2164989999999999
 13
0.1286699932268931
 23
0.6410609972395064
 33
0.2164989999999999
  0
3DFACE
  5
F07
  8
HEAD
 10
0.1286699932268931
 20
0.6410609972395064
 30
0.2164989999999999
 11
0.231356993226893
 21
0.4724189972395063
 31
0.361967
 12
0.2422119932268931
 22
0.6420379972395063
 32
0.319145
 13
0.2422119932268931
 23
0.6420379972395063
 33
0.319145
  0
3DFACE
  5
F08
  8
HEAD
 10
0.310287993226893
 20
0.5808209972395063
 30
0.264179
 11
0.175105993226893
 21
0.4598379972395064
 31
0.284359
 12
0.310287993226893
 22
0.4598379972395064
 32
0.323704
 13
0.310287993226893
 23
0.4598379972395064
 33
0.323704
  0
3DFACE
  5
F09
  8
HEAD
 10
0.193137993226893
 20
0.5845209972395064
 30
0.211603
 11
0.175105993226893
 21
0.4598379972395064
 31
0.284359
 12
0.310287993226893
 22
0.5808209972395063
 32
0.264179
 13
0.310287993226893
 23
0.5808209972395063
 33
0.264179
  0
3DFACE
  5
F0A
  8
HEAD
 10
0.310287993226893
 20
0.6792769972395063
 30
0.056762
 11
0.0867579932268931
 21
0.4194019972395063
 31
0.252453
 12
-0.000000006773107
 22
0.3075949972395064
 32
0.016137
 13
-0.000000006773107
 23
0.3075949972395064
 33
0.016137
  0
3DFACE
  5
F0B
  8
HEAD
 10
0.6205759932268931
 20
0.3075949972395064
 30
0.016137
 11
0.5338179932268931
 21
0.4194019972395063
 31
0.252453
 12
0.310287993226893
 22
0.6792769972395063
 32
0.056762
 13
0.310287993226893
 23
0.6792769972395063
 33
0.056762
  0
3DFACE
  5
F0C
  8
HEAD
 10
0.4919049932268931
 20
0.6379529972395064
 30
-0.11567
 11
0.5203259932268932
 21
0.4578839972395064
 31
-0.139521
 12
0.310287993226893
 22
0.6370949972395064
 32
-0.20914
 13
0.310287993226893
 23
0.6370949972395064
 33
-0.20914
  0
3DFACE
  5
F0D
  8
HEAD
 10
0.5203259932268932
 20
0.4578839972395064
 30
-0.139521
 11
0.310287993226893
 21
0.4569369972395064
 31
-0.240093
 12
0.310287993226893
 22
0.6370949972395064
 32
-0.20914
 13
0.310287993226893
 23
0.6370949972395064
 33
-0.20914
  0
3DFACE
  5
F0E
  8
HEAD
 10
0.310287993226893
 20
0.6370949972395064
 30
-0.20914
 11
0.310287993226893
 21
0.4569369972395064
 31
-0.240093
 12
0.100249993226893
 22
0.4578839972395064
 32
-0.139521
 13
0.100249993226893
 23
0.4578839972395064
 33
-0.139521
  0
3DFACE
  5
F0F
  8
HEAD
 10
0.310287993226893
 20
0.6370949972395064
 30
-0.20914
 11
0.100249993226893
 21
0.4578839972395064
 31
-0.139521
 12
0.128670993226893
 22
0.6379529972395064
 32
-0.11567
 13
0.128670993226893
 23
0.6379529972395064
 33
-0.11567
  0
3DFACE
  5
F10
  8
HEAD
 10
-0.000000006773107
 20
0.3075949972395064
 30
0.016137
 11
0.0581529932268931
 21
0.3210339972395063
 31
-0.179066
 12
0.310287993226893
 22
0.6792769972395063
 32
0.056762
 13
0.310287993226893
 23
0.6792769972395063
 33
0.056762
  0
3DFACE
  5
F11
  8
HEAD
 10
0.310287993226893
 20
0.6792769972395063
 30
0.056762
 11
0.0581529932268931
 21
0.3210339972395063
 31
-0.179066
 12
0.310287993226893
 22
0.3200569972395063
 32
-0.286728
 13
0.310287993226893
 23
0.3200569972395063
 33
-0.286728
  0
3DFACE
  5
F12
  8
HEAD
 10
0.5624229932268932
 20
0.3210339972395063
 30
-0.179066
 11
0.310287993226893
 21
0.6792769972395063
 31
0.056762
 12
0.310287993226893
 22
0.3200569972395063
 32
-0.286728
 13
0.310287993226893
 23
0.3200569972395063
 33
-0.286728
  0
3DFACE
  5
F13
  8
HEAD
 10
0.6205759932268931
 20
0.3075949972395064
 30
0.016137
 11
0.310287993226893
 21
0.6792769972395063
 31
0.056762
 12
0.5624229932268932
 22
0.3210339972395063
 32
-0.179066
 13
0.5624229932268932
 23
0.3210339972395063
 33
-0.179066
  0
3DFACE
  5
F14
  8
HEAD
 10
0.5352739932268931
 20
0.6395219972395064
 30
0.050415
 11
0.5704039932268931
 21
0.4551019972395064
 31
0.051971
 12
0.4919049932268931
 22
0.6379529972395064
 32
-0.11567
 13
0.4919049932268931
 23
0.6379529972395064
 33
-0.11567
  0
3DFACE
  5
F15
  8
HEAD
 10
0.5704039932268931
 20
0.4551019972395064
 30
0.051971
 11
0.5203259932268932
 21
0.4578839972395064
 31
-0.139521
 12
0.4919049932268931
 22
0.6379529972395064
 32
-0.11567
 13
0.4919049932268931
 23
0.6379529972395064
 33
-0.11567
  0
3DFACE
  5
F16
  8
HEAD
 10
0.128670993226893
 20
0.6379529972395064
 30
-0.11567
 11
0.100249993226893
 21
0.4578839972395064
 31
-0.139521
 12
0.0501709932268931
 22
0.4551019972395064
 32
0.051971
 13
0.0501709932268931
 23
0.4551019972395064
 33
0.051971
  0
3DFACE
  5
F17
  8
HEAD
 10
0.128670993226893
 20
0.6379529972395064
 30
-0.11567
 11
0.0501709932268931
 21
0.4551019972395064
 31
0.051971
 12
0.0853009932268931
 22
0.6395219972395064
 32
0.050415
 13
0.0853009932268931
 23
0.6395219972395064
 33
0.050415
  0
3DFACE
  5
F18
  8
HEAD
 10
0.3426289932268931
 20
0.2894189972395064
 30
0.316522
 11
0.4061469932268932
 21
0.1451979972395063
 31
0.284359
 12
0.4402619932268931
 22
0.3822209972395063
 32
0.258498
 13
0.4402619932268931
 23
0.3822209972395063
 33
0.258498
  0
3DFACE
  5
F19
  8
HEAD
 10
0.310287993226893
 20
0.1190009972395063
 30
0.323704
 11
0.4061469932268932
 21
0.1451979972395063
 31
0.284359
 12
0.3426289932268931
 22
0.2894189972395064
 32
0.316522
 13
0.3426289932268931
 23
0.2894189972395064
 33
0.316522
  0
3DFACE
  5
F1A
  8
HEAD
 10
0.310287993226893
 20
0.2936819972395063
 30
0.336806
 11
0.310287993226893
 21
0.1190009972395063
 31
0.323704
 12
0.3426289932268931
 22
0.2894189972395064
 32
0.316522
 13
0.3426289932268931
 23
0.2894189972395064
 33
0.316522
  0
3DFACE
  5
F1B
  8
HEAD
 10
0.2779459932268931
 20
0.2894189972395064
 30
0.316522
 11
0.310287993226893
 21
0.1190009972395063
 31
0.323704
 12
0.310287993226893
 22
0.2936819972395063
 32
0.336806
 13
0.310287993226893
 23
0.2936819972395063
 33
0.336806
  0
3DFACE
  5
F1C
  8
HEAD
 10
0.4402619932268931
 20
0.3822209972395063
 30
0.258498
 11
0.4061469932268932
 21
0.1451979972395063
 31
0.284359
 12
0.5034219932268931
 22
0.2601429972395063
 32
0.055555
 13
0.5034219932268931
 23
0.2601429972395063
 33
0.055555
  0
3DFACE
  5
F1D
  8
HEAD
 10
0.5034219932268931
 20
0.2601429972395063
 30
0.055555
 11
0.4061469932268932
 21
0.1451979972395063
 31
0.284359
 12
0.4192509932268931
 22
0.1313439972395063
 32
0.055555
 13
0.4192509932268931
 23
0.1313439972395063
 33
0.055555
  0
3DFACE
  5
F1E
  8
HEAD
 10
0.117153993226893
 20
0.2601429972395063
 30
0.055555
 11
0.214427993226893
 21
0.1451979972395063
 31
0.284359
 12
0.180313993226893
 22
0.3822209972395063
 32
0.258498
 13
0.180313993226893
 23
0.3822209972395063
 33
0.258498
  0
3DFACE
  5
F1F
  8
HEAD
 10
0.2013249932268931
 20
0.1313439972395063
 30
0.055555
 11
0.214427993226893
 21
0.1451979972395063
 31
0.284359
 12
0.117153993226893
 22
0.2601429972395063
 32
0.055555
 13
0.117153993226893
 23
0.2601429972395063
 33
0.055555
  0
3DFACE
  5
F20
  8
HEAD
 10
0.180313993226893
 20
0.3822209972395063
 30
0.258498
 11
0.214427993226893
 21
0.1451979972395063
 31
0.284359
 12
0.2779459932268931
 22
0.2894189972395064
 32
0.316522
 13
0.2779459932268931
 23
0.2894189972395064
 33
0.316522
  0
3DFACE
  5
F21
  8
HEAD
 10
0.2779459932268931
 20
0.2894189972395064
 30
0.316522
 11
0.214427993226893
 21
0.1451979972395063
 31
0.284359
 12
0.310287993226893
 22
0.1190009972395063
 32
0.323704
 13
0.310287993226893
 23
0.1190009972395063
 33
0.323704
  0
3DFACE
  5
F22
  8
HEAD
 10
0.4245429932268931
 20
0.2107669972395063
 30
-0.091132
 11
0.4146849932268931
 21
0.0689139972395063
 31
-0.091926
 12
0.310287993226893
 22
0.2107669972395063
 32
-0.122041
 13
0.310287993226893
 23
0.2107669972395063
 33
-0.122041
  0
3DFACE
  5
F23
  8
HEAD
 10
0.310287993226893
 20
0.2107669972395063
 30
-0.122041
 11
0.4146849932268931
 21
0.0689139972395063
 31
-0.091926
 12
0.310287993226893
 22
0.0689139972395063
 32
-0.150575
 13
0.310287993226893
 23
0.0689139972395063
 33
-0.150575
  0
3DFACE
  5
F24
  8
HEAD
 10
0.196031993226893
 20
0.2107669972395063
 30
-0.091132
 11
0.310287993226893
 21
0.2107669972395063
 31
-0.122041
 12
0.2058909932268931
 22
0.0689139972395063
 32
-0.091926
 13
0.2058909932268931
 23
0.0689139972395063
 33
-0.091926
  0
3DFACE
  5
F25
  8
HEAD
 10
0.2058909932268931
 20
0.0689139972395063
 30
-0.091926
 11
0.310287993226893
 21
0.2107669972395063
 31
-0.122041
 12
0.310287993226893
 22
0.0689139972395063
 32
-0.150575
 13
0.310287993226893
 23
0.0689139972395063
 33
-0.150575
  0
3DFACE
  5
F26
  8
HEAD
 10
0.5034219932268931
 20
0.2601429972395063
 30
0.055555
 11
0.4192509932268931
 21
0.1313439972395063
 31
0.055555
 12
0.4245429932268931
 22
0.2107669972395063
 32
-0.091132
 13
0.4245429932268931
 23
0.2107669972395063
 33
-0.091132
  0
3DFACE
  5
F27
  8
HEAD
 10
0.196031993226893
 20
0.2107669972395063
 30
-0.091132
 11
0.2013249932268931
 21
0.1313439972395063
 31
0.055555
 12
0.117153993226893
 22
0.2601429972395063
 32
0.055555
 13
0.117153993226893
 23
0.2601429972395063
 33
0.055555
  0
3DFACE
  5
F28
  8
HEAD
 10
0.4245429932268931
 20
0.2107669972395063
 30
-0.091132
 11
0.4192509932268931
 21
0.1313439972395063
 31
0.055555
 12
0.394611993226893
 22
0.0114859972395063
 32
0.086122
 13
0.394611993226893
 23
0.0114859972395063
 33
0.086122
  0
3DFACE
  5
F29
  8
HEAD
 10
0.4245429932268931
 20
0.2107669972395063
 30
-0.091132
 11
0.394611993226893
 21
0.0114859972395063
 31
0.086122
 12
0.4146849932268931
 22
0.0689139972395063
 32
-0.091926
 13
0.4146849932268931
 23
0.0689139972395063
 33
-0.091926
  0
3DFACE
  5
F2A
  8
HEAD
 10
0.225963993226893
 20
0.0114859972395063
 30
0.086122
 11
0.2013249932268931
 21
0.1313439972395063
 31
0.055555
 12
0.196031993226893
 22
0.2107669972395063
 32
-0.091132
 13
0.196031993226893
 23
0.2107669972395063
 33
-0.091132
  0
3DFACE
  5
F2B
  8
HEAD
 10
0.2058909932268931
 20
0.0689139972395063
 30
-0.091926
 11
0.225963993226893
 21
0.0114859972395063
 31
0.086122
 12
0.196031993226893
 22
0.2107669972395063
 32
-0.091132
 13
0.196031993226893
 23
0.2107669972395063
 33
-0.091132
  0
3DFACE
  5
F2C
  8
HEAD
 10
0.394611993226893
 20
0.0114859972395063
 30
0.086122
 11
0.4192509932268931
 21
0.1313439972395063
 31
0.055555
 12
0.310287993226893
 22
0.0927729972395063
 32
0.140151
 13
0.310287993226893
 23
0.0927729972395063
 33
0.140151
  0
3DFACE
  5
F2D
  8
HEAD
 10
0.394611993226893
 20
0.0114859972395063
 30
0.086122
 11
0.310287993226893
 21
0.0927729972395063
 31
0.140151
 12
0.310287993226893
 22
-0.0000000027604937
 32
0.120585
 13
0.310287993226893
 23
-0.0000000027604937
 33
0.120585
  0
3DFACE
  5
F2E
  8
HEAD
 10
0.310287993226893
 20
-0.0000000027604937
 30
0.120585
 11
0.310287993226893
 21
0.0927729972395063
 31
0.140151
 12
0.225963993226893
 22
0.0114859972395063
 32
0.086122
 13
0.225963993226893
 23
0.0114859972395063
 33
0.086122
  0
3DFACE
  5
F2F
  8
HEAD
 10
0.225963993226893
 20
0.0114859972395063
 30
0.086122
 11
0.310287993226893
 21
0.0927729972395063
 31
0.140151
 12
0.2013249932268931
 22
0.1313439972395063
 32
0.055555
 13
0.2013249932268931
 23
0.1313439972395063
 33
0.055555
  0
3DFACE
  5
F30
  8
HEAD
 10
0.310287993226893
 20
0.0927729972395063
 30
0.140151
 11
0.4061469932268932
 21
0.1451979972395063
 31
0.284359
 12
0.310287993226893
 22
0.1190009972395063
 32
0.323704
 13
0.310287993226893
 23
0.1190009972395063
 33
0.323704
  0
3DFACE
  5
F31
  8
HEAD
 10
0.4192509932268931
 20
0.1313439972395063
 30
0.055555
 11
0.4061469932268932
 21
0.1451979972395063
 31
0.284359
 12
0.310287993226893
 22
0.0927729972395063
 32
0.140151
 13
0.310287993226893
 23
0.0927729972395063
 33
0.140151
  0
3DFACE
  5
F32
  8
HEAD
 10
0.214427993226893
 20
0.1451979972395063
 30
0.284359
 11
0.310287993226893
 21
0.0927729972395063
 31
0.140151
 12
0.310287993226893
 22
0.1190009972395063
 32
0.323704
 13
0.310287993226893
 23
0.1190009972395063
 33
0.323704
  0
3DFACE
  5
F33
  8
HEAD
 10
0.2013249932268931
 20
0.1313439972395063
 30
0.055555
 11
0.310287993226893
 21
0.0927729972395063
 31
0.140151
 12
0.214427993226893
 22
0.1451979972395063
 32
0.284359
 13
0.214427993226893
 23
0.1451979972395063
 33
0.284359
  0
3DFACE
  5
F34
  8
HEAD
 10
0.5034219932268931
 20
0.2601429972395063
 30
0.055555
 11
0.515916993226893
 21
0.3822209972395063
 31
0.055555
 12
0.4402619932268931
 22
0.3822209972395063
 32
0.258498
 13
0.4402619932268931
 23
0.3822209972395063
 33
0.258498
  0
3DFACE
  5
F35
  8
HEAD
 10
0.117153993226893
 20
0.2601429972395063
 30
0.055555
 11
0.180313993226893
 21
0.3822209972395063
 31
0.258498
 12
0.1046579932268931
 22
0.3822209972395063
 32
0.055555
 13
0.1046579932268931
 23
0.3822209972395063
 33
0.055555
  0
3DFACE
  5
F36
  8
HEAD
 10
0.5338179932268931
 20
0.4194019972395063
 30
0.252453
 11
0.6205759932268931
 21
0.3075949972395064
 31
0.016137
 12
0.5203259932268932
 22
0.4644259972395063
 32
0.255178
 13
0.5203259932268932
 23
0.4644259972395063
 33
0.255178
  0
3DFACE
  5
F37
  8
HEAD
 10
0.5203259932268932
 20
0.4644259972395063
 30
0.255178
 11
0.6205759932268931
 21
0.3075949972395064
 31
0.016137
 12
0.5704039932268931
 22
0.4551019972395064
 32
0.051971
 13
0.5704039932268931
 23
0.4551019972395064
 33
0.051971
  0
3DFACE
  5
F38
  8
HEAD
 10
-0.000000006773107
 20
0.3075949972395064
 30
0.016137
 11
0.100249993226893
 21
0.4644259972395063
 31
0.255178
 12
0.0501709932268931
 22
0.4551019972395064
 32
0.051971
 13
0.0501709932268931
 23
0.4551019972395064
 33
0.051971
  0
3DFACE
  5
F39
  8
HEAD
 10
-0.000000006773107
 20
0.3075949972395064
 30
0.016137
 11
0.0867579932268931
 21
0.4194019972395063
 31
0.252453
 12
0.100249993226893
 22
0.4644259972395063
 32
0.255178
 13
0.100249993226893
 23
0.4644259972395063
 33
0.255178
  0
3DFACE
  5
F3A
  8
HEAD
 10
0.310287993226893
 20
0.4205259972395064
 30
0.297479
 11
0.3426289932268931
 21
0.2894189972395064
 31
0.316522
 12
0.4402619932268931
 22
0.3822209972395063
 32
0.258498
 13
0.4402619932268931
 23
0.3822209972395063
 33
0.258498
  0
3DFACE
  5
F3B
  8
HEAD
 10
0.180313993226893
 20
0.3822209972395063
 30
0.258498
 11
0.2779459932268931
 21
0.2894189972395064
 31
0.316522
 12
0.310287993226893
 22
0.4205259972395064
 32
0.297479
 13
0.310287993226893
 23
0.4205259972395064
 33
0.297479
  0
3DFACE
  5
F3C
  8
HEAD
 10
0.2779459932268931
 20
0.2894189972395064
 30
0.316522
 11
0.2991059932268931
 21
0.3101399972395064
 31
0.37932
 12
0.310287993226893
 22
0.4205259972395064
 32
0.297479
 13
0.310287993226893
 23
0.4205259972395064
 33
0.297479
  0
3DFACE
  5
F3D
  8
HEAD
 10
0.310287993226893
 20
0.4205259972395064
 30
0.297479
 11
0.3215279932268931
 21
0.3101399972395064
 31
0.37932
 12
0.3426289932268931
 22
0.2894189972395064
 32
0.316522
 13
0.3426289932268931
 23
0.2894189972395064
 33
0.316522
  0
3DFACE
  5
F3E
  8
HEAD
 10
0.2991059932268931
 20
0.3101399972395064
 30
0.37932
 11
0.3215279932268931
 21
0.3101399972395064
 31
0.37932
 12
0.310287993226893
 22
0.4205259972395064
 32
0.297479
 13
0.310287993226893
 23
0.4205259972395064
 33
0.297479
  0
3DFACE
  5
F3F
  8
HEAD
 10
0.4245429932268931
 20
0.2107669972395063
 30
-0.091132
 11
0.310287993226893
 21
0.2107669972395063
 31
-0.122041
 12
0.4568869932268931
 22
0.3822209972395063
 32
-0.147025
 13
0.4568869932268931
 23
0.3822209972395063
 33
-0.147025
  0
3DFACE
  5
F40
  8
HEAD
 10
0.4568869932268931
 20
0.3822209972395063
 30
-0.147025
 11
0.310287993226893
 21
0.2107669972395063
 31
-0.122041
 12
0.310287993226893
 22
0.3822209972395063
 32
-0.196979
 13
0.310287993226893
 23
0.3822209972395063
 33
-0.196979
  0
3DFACE
  5
F41
  8
HEAD
 10
0.163688993226893
 20
0.3822209972395063
 30
-0.147025
 11
0.310287993226893
 21
0.2107669972395063
 31
-0.122041
 12
0.196031993226893
 22
0.2107669972395063
 32
-0.091132
 13
0.196031993226893
 23
0.2107669972395063
 33
-0.091132
  0
3DFACE
  5
F42
  8
HEAD
 10
0.310287993226893
 20
0.3822209972395063
 30
-0.196979
 11
0.310287993226893
 21
0.2107669972395063
 31
-0.122041
 12
0.163688993226893
 22
0.3822209972395063
 32
-0.147025
 13
0.163688993226893
 23
0.3822209972395063
 33
-0.147025
  0
3DFACE
  5
F43
  8
HEAD
 10
0.5624229932268932
 20
0.3210339972395063
 30
-0.179066
 11
0.310287993226893
 21
0.4569369972395064
 31
-0.240093
 12
0.5203259932268932
 22
0.4578839972395064
 32
-0.139521
 13
0.5203259932268932
 23
0.4578839972395064
 33
-0.139521
  0
3DFACE
  5
F44
  8
HEAD
 10
0.310287993226893
 20
0.3200569972395063
 30
-0.286728
 11
0.310287993226893
 21
0.4569369972395064
 31
-0.240093
 12
0.5624229932268932
 22
0.3210339972395063
 32
-0.179066
 13
0.5624229932268932
 23
0.3210339972395063
 33
-0.179066
  0
3DFACE
  5
F45
  8
HEAD
 10
0.0581529932268931
 20
0.3210339972395063
 30
-0.179066
 11
0.310287993226893
 21
0.4569369972395064
 31
-0.240093
 12
0.310287993226893
 22
0.3200569972395063
 32
-0.286728
 13
0.310287993226893
 23
0.3200569972395063
 33
-0.286728
  0
3DFACE
  5
F46
  8
HEAD
 10
0.100249993226893
 20
0.4578839972395064
 30
-0.139521
 11
0.310287993226893
 21
0.4569369972395064
 31
-0.240093
 12
0.0581529932268931
 22
0.3210339972395063
 32
-0.179066
 13
0.0581529932268931
 23
0.3210339972395063
 33
-0.179066
  0
3DFACE
  5
F47
  8
HEAD
 10
0.6205759932268931
 20
0.3075949972395064
 30
0.016137
 11
0.5203259932268932
 21
0.4578839972395064
 31
-0.139521
 12
0.5704039932268931
 22
0.4551019972395064
 32
0.051971
 13
0.5704039932268931
 23
0.4551019972395064
 33
0.051971
  0
3DFACE
  5
F48
  8
HEAD
 10
0.6205759932268931
 20
0.3075949972395064
 30
0.016137
 11
0.5624229932268932
 21
0.3210339972395063
 31
-0.179066
 12
0.5203259932268932
 22
0.4578839972395064
 32
-0.139521
 13
0.5203259932268932
 23
0.4578839972395064
 33
-0.139521
  0
3DFACE
  5
F49
  8
HEAD
 10
0.100249993226893
 20
0.4578839972395064
 30
-0.139521
 11
0.0581529932268931
 21
0.3210339972395063
 31
-0.179066
 12
-0.000000006773107
 22
0.3075949972395064
 32
0.016137
 13
-0.000000006773107
 23
0.3075949972395064
 33
0.016137
  0
3DFACE
  5
F4A
  8
HEAD
 10
0.0501709932268931
 20
0.4551019972395064
 30
0.051971
 11
0.100249993226893
 21
0.4578839972395064
 31
-0.139521
 12
-0.000000006773107
 22
0.3075949972395064
 32
0.016137
 13
-0.000000006773107
 23
0.3075949972395064
 33
0.016137
  0
3DFACE
  5
F4B
  8
HEAD
 10
0.5034219932268931
 20
0.2601429972395063
 30
0.055555
 11
0.4568869932268931
 21
0.3822209972395063
 31
-0.147025
 12
0.515916993226893
 22
0.3822209972395063
 32
0.055555
 13
0.515916993226893
 23
0.3822209972395063
 33
0.055555
  0
3DFACE
  5
F4C
  8
HEAD
 10
0.1046579932268931
 20
0.3822209972395063
 30
0.055555
 11
0.163688993226893
 21
0.3822209972395063
 31
-0.147025
 12
0.117153993226893
 22
0.2601429972395063
 32
0.055555
 13
0.117153993226893
 23
0.2601429972395063
 33
0.055555
  0
3DFACE
  5
F4D
  8
HEAD
 10
0.4245429932268931
 20
0.2107669972395063
 30
-0.091132
 11
0.4568869932268931
 21
0.3822209972395063
 31
-0.147025
 12
0.5034219932268931
 22
0.2601429972395063
 32
0.055555
 13
0.5034219932268931
 23
0.2601429972395063
 33
0.055555
  0
3DFACE
  5
F4E
  8
HEAD
 10
0.117153993226893
 20
0.2601429972395063
 30
0.055555
 11
0.163688993226893
 21
0.3822209972395063
 31
-0.147025
 12
0.196031993226893
 22
0.2107669972395063
 32
-0.091132
 13
0.196031993226893
 23
0.2107669972395063
 33
-0.091132
  0
3DFACE
  5
F4F
  8
HEAD
 10
0.310287993226893
 20
0.2936819972395063
 30
0.336806
 11
0.2991059932268931
 21
0.3101399972395064
 31
0.37932
 12
0.2779459932268931
 22
0.2894189972395064
 32
0.316522
 13
0.2779459932268931
 23
0.2894189972395064
 33
0.316522
  0
3DFACE
  5
F50
  8
HEAD
 10
0.3215279932268931
 20
0.3101399972395064
 30
0.37932
 11
0.310287993226893
 21
0.2936819972395063
 31
0.336806
 12
0.3426289932268931
 22
0.2894189972395064
 32
0.316522
 13
0.3426289932268931
 23
0.2894189972395064
 33
0.316522
  0
3DFACE
  5
F51
  8
HEAD
 10
0.2991059932268931
 20
0.3101399972395064
 30
0.37932
 11
0.310287993226893
 21
0.2936819972395063
 31
0.336806
 12
0.3215279932268931
 22
0.3101399972395064
 32
0.37932
 13
0.3215279932268931
 23
0.3101399972395064
 33
0.37932
  0
3DFACE
  5
F52
  8
HEAD
 10
0.4115159932268931
 20
0.4366599972395063
 30
0.408733
 11
0.5338179932268931
 21
0.4194019972395063
 31
0.252453
 12
0.389218993226893
 22
0.4724189972395063
 32
0.361967
 13
0.389218993226893
 23
0.4724189972395063
 33
0.361967
  0
3DFACE
  5
F53
  8
HEAD
 10
0.389218993226893
 20
0.4724189972395063
 30
0.361967
 11
0.5338179932268931
 21
0.4194019972395063
 31
0.252453
 12
0.5203259932268932
 22
0.4644259972395063
 32
0.255178
 13
0.5203259932268932
 23
0.4644259972395063
 33
0.255178
  0
3DFACE
  5
F54
  8
HEAD
 10
0.209058993226893
 20
0.4366599972395063
 30
0.408733
 11
0.389218993226893
 21
0.4724189972395063
 31
0.361967
 12
0.231356993226893
 22
0.4724189972395063
 32
0.361967
 13
0.231356993226893
 23
0.4724189972395063
 33
0.361967
  0
3DFACE
  5
F55
  8
HEAD
 10
0.209058993226893
 20
0.4366599972395063
 30
0.408733
 11
0.4115159932268931
 21
0.4366599972395063
 31
0.408733
 12
0.389218993226893
 22
0.4724189972395063
 32
0.361967
 13
0.389218993226893
 23
0.4724189972395063
 33
0.361967
  0
3DFACE
  5
F56
  8
HEAD
 10
0.0867579932268931
 20
0.4194019972395063
 30
0.252453
 11
0.231356993226893
 21
0.4724189972395063
 31
0.361967
 12
0.100249993226893
 22
0.4644259972395063
 32
0.255178
 13
0.100249993226893
 23
0.4644259972395063
 33
0.255178
  0
3DFACE
  5
F57
  8
HEAD
 10
0.209058993226893
 20
0.4366599972395063
 30
0.408733
 11
0.231356993226893
 21
0.4724189972395063
 31
0.361967
 12
0.0867579932268931
 22
0.4194019972395063
 32
0.252453
 13
0.0867579932268931
 23
0.4194019972395063
 33
0.252453
  0
3DFACE
  5
F58
  8
HEAD
 10
0.5225959932268931
 20
0.5000379972395064
 30
0.055555
 11
0.4454689932268931
 21
0.4598379972395064
 31
0.284359
 12
0.515916993226893
 22
0.3822209972395063
 32
0.055555
 13
0.515916993226893
 23
0.3822209972395063
 33
0.055555
  0
3DFACE
  5
F59
  8
HEAD
 10
0.1046579932268931
 20
0.3822209972395063
 30
0.055555
 11
0.175105993226893
 21
0.4598379972395064
 31
0.284359
 12
0.0979789932268931
 22
0.5000379972395064
 32
0.055555
 13
0.0979789932268931
 23
0.5000379972395064
 33
0.055555
  0
3DFACE
  5
F5A
  8
HEAD
 10
0.515916993226893
 20
0.3822209972395063
 30
0.055555
 11
0.4568869932268931
 21
0.3822209972395063
 31
-0.147025
 12
0.5225959932268931
 22
0.5000379972395064
 32
0.055555
 13
0.5225959932268931
 23
0.5000379972395064
 33
0.055555
  0
3DFACE
  5
F5B
  8
HEAD
 10
0.0979789932268931
 20
0.5000379972395064
 30
0.055555
 11
0.163688993226893
 21
0.3822209972395063
 31
-0.147025
 12
0.1046579932268931
 22
0.3822209972395063
 32
0.055555
 13
0.1046579932268931
 23
0.3822209972395063
 33
0.055555
  0
3DFACE
  5
F5C
  8
HEAD
 10
0.4454689932268931
 20
0.4598379972395064
 30
0.284359
 11
0.310287993226893
 21
0.4598379972395064
 31
0.323704
 12
0.310287993226893
 22
0.4205259972395064
 32
0.297479
 13
0.310287993226893
 23
0.4205259972395064
 33
0.297479
  0
3DFACE
  5
F5D
  8
HEAD
 10
0.4115159932268931
 20
0.4366599972395063
 30
0.408733
 11
0.4038149932268932
 21
0.4354749972395064
 31
0.365487
 12
0.5338179932268931
 22
0.4194019972395063
 32
0.252453
 13
0.5338179932268931
 23
0.4194019972395063
 33
0.252453
  0
3DFACE
  5
F5E
  8
HEAD
 10
0.216759993226893
 20
0.4354749972395064
 30
0.365487
 11
0.209058993226893
 21
0.4366599972395063
 31
0.408733
 12
0.0867579932268931
 22
0.4194019972395063
 32
0.252453
 13
0.0867579932268931
 23
0.4194019972395063
 33
0.252453
  0
3DFACE
  5
F5F
  8
HEAD
 10
0.310287993226893
 20
0.4598379972395064
 30
0.323704
 11
0.175105993226893
 21
0.4598379972395064
 31
0.284359
 12
0.310287993226893
 22
0.4205259972395064
 32
0.297479
 13
0.310287993226893
 23
0.4205259972395064
 33
0.297479
  0
3DFACE
  5
F60
  8
HEAD
 10
0.515916993226893
 20
0.3822209972395063
 30
0.055555
 11
0.4454689932268931
 21
0.4598379972395064
 31
0.284359
 12
0.4402619932268931
 22
0.3822209972395063
 32
0.258498
 13
0.4402619932268931
 23
0.3822209972395063
 33
0.258498
  0
3DFACE
  5
F61
  8
HEAD
 10
0.4454689932268931
 20
0.4598379972395064
 30
0.284359
 11
0.310287993226893
 21
0.4205259972395064
 31
0.297479
 12
0.4402619932268931
 22
0.3822209972395063
 32
0.258498
 13
0.4402619932268931
 23
0.3822209972395063
 33
0.258498
  0
3DFACE
  5
F62
  8
HEAD
 10
0.310287993226893
 20
0.4205259972395064
 30
0.297479
 11
0.175105993226893
 21
0.4598379972395064
 31
0.284359
 12
0.180313993226893
 22
0.3822209972395063
 32
0.258498
 13
0.180313993226893
 23
0.3822209972395063
 33
0.258498
  0
3DFACE
  5
F63
  8
HEAD
 10
0.180313993226893
 20
0.3822209972395063
 30
0.258498
 11
0.175105993226893
 21
0.4598379972395064
 31
0.284359
 12
0.1046579932268931
 22
0.3822209972395063
 32
0.055555
 13
0.1046579932268931
 23
0.3822209972395063
 33
0.055555
  0
3DFACE
  5
F64
  8
HEAD
 10
0.216759993226893
 20
0.4354749972395064
 30
0.365487
 11
0.4038149932268932
 21
0.4354749972395064
 31
0.365487
 12
0.4115159932268931
 22
0.4366599972395063
 32
0.408733
 13
0.4115159932268931
 23
0.4366599972395063
 33
0.408733
  0
3DFACE
  5
F65
  8
HEAD
 10
0.216759993226893
 20
0.4354749972395064
 30
0.365487
 11
0.4115159932268931
 21
0.4366599972395063
 31
0.408733
 12
0.209058993226893
 22
0.4366599972395063
 32
0.408733
 13
0.209058993226893
 23
0.4366599972395063
 33
0.408733
  0
3DFACE
  5
F66
  8
HEAD
 10
0.3487049932268931
 20
0.7150069972395065
 30
0.196868
 11
0.310287993226893
 21
0.7345149972395064
 31
0.049238
 12
0.271870993226893
 22
0.7150069972395065
 32
0.196868
 13
0.271870993226893
 23
0.7150069972395065
 33
0.196868
  0
3DFACE
  5
F67
  8
HEAD
 10
0.414257993226893
 20
0.7147109972395064
 30
0.140568
 11
0.310287993226893
 21
0.7345149972395064
 31
0.049238
 12
0.3487049932268931
 22
0.7150069972395065
 32
0.196868
 13
0.3487049932268931
 23
0.7150069972395065
 33
0.196868
  0
3DFACE
  5
F68
  8
HEAD
 10
0.4392969932268932
 20
0.7142079972395063
 30
0.049474
 11
0.310287993226893
 21
0.7345149972395064
 31
0.049238
 12
0.414257993226893
 22
0.7147109972395064
 32
0.140568
 13
0.414257993226893
 23
0.7147109972395064
 33
0.140568
  0
3DFACE
  5
F69
  8
HEAD
 10
0.2063179932268931
 20
0.7147109972395064
 30
0.140568
 11
0.310287993226893
 21
0.7345149972395064
 31
0.049238
 12
0.1812779932268931
 22
0.7142079972395063
 32
0.049474
 13
0.1812779932268931
 23
0.7142079972395063
 33
0.049474
  0
3DFACE
  5
F6A
  8
HEAD
 10
0.271870993226893
 20
0.7150069972395065
 30
0.196868
 11
0.310287993226893
 21
0.7345149972395064
 31
0.049238
 12
0.2063179932268931
 22
0.7147109972395064
 32
0.140568
 13
0.2063179932268931
 23
0.7147109972395064
 33
0.140568
  0
3DFACE
  5
F6B
  8
HEAD
 10
0.414257993226893
 20
0.7137339972395063
 30
-0.04162
 11
0.310287993226893
 21
0.7345149972395064
 31
0.049238
 12
0.4392969932268932
 22
0.7142079972395063
 32
0.049474
 13
0.4392969932268932
 23
0.7142079972395063
 33
0.049474
  0
3DFACE
  5
F6C
  8
HEAD
 10
0.310287993226893
 20
0.7134079972395063
 30
-0.09792
 11
0.310287993226893
 21
0.7345149972395064
 31
0.049238
 12
0.414257993226893
 22
0.7137339972395063
 32
-0.04162
 13
0.414257993226893
 23
0.7137339972395063
 33
-0.04162
  0
3DFACE
  5
F6D
  8
HEAD
 10
0.2063179932268931
 20
0.7137339972395063
 30
-0.04162
 11
0.310287993226893
 21
0.7345149972395064
 31
0.049238
 12
0.310287993226893
 22
0.7134079972395063
 32
-0.09792
 13
0.310287993226893
 23
0.7134079972395063
 33
-0.09792
  0
3DFACE
  5
F6E
  8
HEAD
 10
0.1812779932268931
 20
0.7142079972395063
 30
0.049474
 11
0.310287993226893
 21
0.7345149972395064
 31
0.049238
 12
0.2063179932268931
 22
0.7137339972395063
 32
-0.04162
 13
0.2063179932268931
 23
0.7137339972395063
 33
-0.04162
  0
3DFACE
  5
F6F
  8
HEAD
 10
0.3487049932268931
 20
0.7150069972395065
 30
0.196868
 11
0.378362993226893
 21
0.6420379972395063
 31
0.319145
 12
0.414257993226893
 22
0.7147109972395064
 32
0.140568
 13
0.414257993226893
 23
0.7147109972395064
 33
0.140568
  0
3DFACE
  5
F70
  8
HEAD
 10
0.271870993226893
 20
0.7150069972395065
 30
0.196868
 11
0.2422119932268931
 21
0.6420379972395063
 31
0.319145
 12
0.3487049932268931
 22
0.7150069972395065
 32
0.196868
 13
0.3487049932268931
 23
0.7150069972395065
 33
0.196868
  0
3DFACE
  5
F71
  8
HEAD
 10
0.2422119932268931
 20
0.6420379972395063
 30
0.319145
 11
0.378362993226893
 21
0.6420379972395063
 31
0.319145
 12
0.3487049932268931
 22
0.7150069972395065
 32
0.196868
 13
0.3487049932268931
 23
0.7150069972395065
 33
0.196868
  0
3DFACE
  5
F72
  8
HEAD
 10
0.378362993226893
 20
0.6420379972395063
 30
0.319145
 11
0.4919049932268931
 21
0.6410609972395064
 31
0.2164989999999999
 12
0.414257993226893
 22
0.7147109972395064
 32
0.140568
 13
0.414257993226893
 23
0.7147109972395064
 33
0.140568
  0
3DFACE
  5
F73
  8
HEAD
 10
0.414257993226893
 20
0.7147109972395064
 30
0.140568
 11
0.4919049932268931
 21
0.6410609972395064
 31
0.2164989999999999
 12
0.4392969932268932
 22
0.7142079972395063
 32
0.049474
 13
0.4392969932268932
 23
0.7142079972395063
 33
0.049474
  0
3DFACE
  5
F74
  8
HEAD
 10
0.4919049932268931
 20
0.6410609972395064
 30
0.2164989999999999
 11
0.5352739932268931
 21
0.6395219972395064
 31
0.050415
 12
0.4392969932268932
 22
0.7142079972395063
 32
0.049474
 13
0.4392969932268932
 23
0.7142079972395063
 33
0.049474
  0
3DFACE
  5
F75
  8
HEAD
 10
0.1812779932268931
 20
0.7142079972395063
 30
0.049474
 11
0.1286699932268931
 21
0.6410609972395064
 31
0.2164989999999999
 12
0.2063179932268931
 22
0.7147109972395064
 32
0.140568
 13
0.2063179932268931
 23
0.7147109972395064
 33
0.140568
  0
3DFACE
  5
F76
  8
HEAD
 10
0.0853009932268931
 20
0.6395219972395064
 30
0.050415
 11
0.1286699932268931
 21
0.6410609972395064
 31
0.2164989999999999
 12
0.1812779932268931
 22
0.7142079972395063
 32
0.049474
 13
0.1812779932268931
 23
0.7142079972395063
 33
0.049474
  0
3DFACE
  5
F77
  8
HEAD
 10
0.2063179932268931
 20
0.7147109972395064
 30
0.140568
 11
0.1286699932268931
 21
0.6410609972395064
 31
0.2164989999999999
 12
0.2422119932268931
 22
0.6420379972395063
 32
0.319145
 13
0.2422119932268931
 23
0.6420379972395063
 33
0.319145
  0
3DFACE
  5
F78
  8
HEAD
 10
0.2063179932268931
 20
0.7147109972395064
 30
0.140568
 11
0.2422119932268931
 21
0.6420379972395063
 31
0.319145
 12
0.271870993226893
 22
0.7150069972395065
 32
0.196868
 13
0.271870993226893
 23
0.7150069972395065
 33
0.196868
  0
3DFACE
  5
F79
  8
HEAD
 10
0.414257993226893
 20
0.7137339972395063
 30
-0.04162
 11
0.310287993226893
 21
0.6370949972395064
 31
-0.20914
 12
0.310287993226893
 22
0.7134079972395063
 32
-0.09792
 13
0.310287993226893
 23
0.7134079972395063
 33
-0.09792
  0
3DFACE
  5
F7A
  8
HEAD
 10
0.4919049932268931
 20
0.6379529972395064
 30
-0.11567
 11
0.310287993226893
 21
0.6370949972395064
 31
-0.20914
 12
0.414257993226893
 22
0.7137339972395063
 32
-0.04162
 13
0.414257993226893
 23
0.7137339972395063
 33
-0.04162
  0
3DFACE
  5
F7B
  8
HEAD
 10
0.310287993226893
 20
0.7134079972395063
 30
-0.09792
 11
0.310287993226893
 21
0.6370949972395064
 31
-0.20914
 12
0.2063179932268931
 22
0.7137339972395063
 32
-0.04162
 13
0.2063179932268931
 23
0.7137339972395063
 33
-0.04162
  0
3DFACE
  5
F7C
  8
HEAD
 10
0.2063179932268931
 20
0.7137339972395063
 30
-0.04162
 11
0.310287993226893
 21
0.6370949972395064
 31
-0.20914
 12
0.128670993226893
 22
0.6379529972395064
 32
-0.11567
 13
0.128670993226893
 23
0.6379529972395064
 33
-0.11567
  0
3DFACE
  5
F7D
  8
HEAD
 10
0.4392969932268932
 20
0.7142079972395063
 30
0.049474
 11
0.5352739932268931
 21
0.6395219972395064
 31
0.050415
 12
0.414257993226893
 22
0.7137339972395063
 32
-0.04162
 13
0.414257993226893
 23
0.7137339972395063
 33
-0.04162
  0
3DFACE
  5
F7E
  8
HEAD
 10
0.5352739932268931
 20
0.6395219972395064
 30
0.050415
 11
0.4919049932268931
 21
0.6379529972395064
 31
-0.11567
 12
0.414257993226893
 22
0.7137339972395063
 32
-0.04162
 13
0.414257993226893
 23
0.7137339972395063
 33
-0.04162
  0
3DFACE
  5
F7F
  8
HEAD
 10
0.2063179932268931
 20
0.7137339972395063
 30
-0.04162
 11
0.128670993226893
 21
0.6379529972395064
 31
-0.11567
 12
0.0853009932268931
 22
0.6395219972395064
 32
0.050415
 13
0.0853009932268931
 23
0.6395219972395064
 33
0.050415
  0
3DFACE
  5
F80
  8
HEAD
 10
0.2063179932268931
 20
0.7137339972395063
 30
-0.04162
 11
0.0853009932268931
 21
0.6395219972395064
 31
0.050415
 12
0.1812779932268931
 22
0.7142079972395063
 32
0.049474
 13
0.1812779932268931
 23
0.7142079972395063
 33
0.049474
  0
ENDBLK
  5
F82
  8
0
  0
ENDSEC
  0
SECTION
  2
ENTITIES
  0
3DFACE
  5
11C2
  8
GOGGLES
 10
-0.3178947368421054
 20
0.1699999999999999
 30
0.3599999999999999
 11
-0.3547368421052632
 21
0.03
 31
0.3599999999999999
 12
-0.3447368421052632
 22
0.03
 32
0.3599999999999999
 13
-0.3078947368421053
 23
0.1699999999999999
 33
0.3599999999999999
  0
3DFACE
  5
11DC
  8
GOGGLES
 10
-0.3547368421052632
 20
0.03
 30
0.3599999999999999
 11
-0.36
 21
0.01
 31
0.3500000000000001
 12
-0.35
 22
0.01
 32
0.3500000000000001
 13
-0.3447368421052632
 23
0.03
 33
0.3599999999999999
  0
3DFACE
  5
11DD
  8
GOGGLES
 10
-0.36
 20
0.01
 30
0.3500000000000001
 11
-0.36
 21
-0.01
 31
0.3500000000000001
 12
-0.35
 22
-0.01
 32
0.3500000000000001
 13
-0.35
 23
0.01
 33
0.3500000000000001
  0
3DFACE
  5
11DE
  8
GOGGLES
 10
-0.36
 20
0.01
 30
0.31
 11
-0.3547368421052632
 21
0.03
 31
0.2400000000000002
 12
-0.3447368421052632
 22
0.03
 32
0.2400000000000002
 13
-0.35
 23
0.01
 33
0.31
  0
3DFACE
  5
11DF
  8
GOGGLES
 10
-0.3547368421052632
 20
0.03
 30
0.2400000000000002
 11
-0.3152631578947369
 21
0.18
 31
0.2400000000000002
 12
-0.3052631578947369
 22
0.18
 32
0.2400000000000002
 13
-0.3447368421052632
 23
0.03
 33
0.2400000000000002
  0
3DFACE
  5
11E0
  8
GOGGLES
 10
-0.3152631578947369
 20
0.18
 30
0.2400000000000002
 11
-0.31
 21
0.2
 31
0.27
 12
-0.3
 22
0.2
 32
0.27
 13
-0.3052631578947369
 23
0.18
 33
0.2400000000000002
  0
3DFACE
  5
11E1
  8
GOGGLES
 10
-0.31
 20
0.2
 30
0.27
 11
-0.31
 21
0.2
 31
0.3399999999999999
 12
-0.3
 22
0.2
 32
0.3399999999999999
 13
-0.3
 23
0.2
 33
0.27
  0
3DFACE
  5
11E2
  8
GOGGLES
 10
-0.31
 20
0.2
 30
0.3399999999999999
 11
-0.3178947368421054
 21
0.1699999999999999
 31
0.3599999999999999
 12
-0.3078947368421053
 22
0.1699999999999999
 32
0.3599999999999999
 13
-0.3
 23
0.2
 33
0.3399999999999999
  0
3DFACE
  5
11E3
  8
GOGGLES
 10
-0.31
 20
0.2
 30
0.3399999999999999
 11
-0.36
 21
0.01
 31
0.3500000000000001
 12
-0.3547368421052632
 22
0.03
 32
0.3599999999999999
 13
-0.3178947368421054
 23
0.1699999999999999
 33
0.3599999999999999
  0
3DFACE
  5
11E4
  8
GOGGLES
 10
-0.31
 20
0.2
 30
0.27
 11
-0.36
 21
0.01
 31
0.31
 12
-0.36
 22
0.01
 32
0.3500000000000001
 13
-0.31
 23
0.2
 33
0.3399999999999999
  0
3DFACE
  5
11E5
  8
GOGGLES
 10
-0.3152631578947369
 20
0.18
 30
0.2400000000000002
 11
-0.3547368421052632
 21
0.03
 31
0.2400000000000002
 12
-0.36
 22
0.01
 32
0.31
 13
-0.31
 23
0.2
 33
0.27
  0
3DFACE
  5
1209
  8
GOGGLES
 10
-0.36
 20
0.01
 30
0.31
 11
-0.36
 21
-0.01
 31
0.31
 12
-0.36
 22
-0.01
 32
0.3500000000000001
 13
-0.36
 23
0.0100000000000001
 33
0.3500000000000001
  0
3DFACE
  5
120A
  8
GOGGLES
 10
-0.35
 20
0.01
 30
0.31
 11
-0.35
 21
-0.01
 31
0.31
 12
-0.36
 22
-0.0099999999999999
 32
0.31
 13
-0.36
 23
0.0100000000000001
 33
0.31
  0
3DFACE
  5
120C
  8
GOGGLES
 10
-0.31
 20
0.2
 30
0.27
 11
-0.31
 21
0.2
 31
0.3399999999999999
 12
-0.3
 22
0.21
 32
0.3399999999999999
 13
-0.3
 23
0.21
 33
0.27
  0
3DFACE
  5
120D
  8
GOGGLES
 10
-0.3
 20
0.21
 30
0.27
 11
-0.3
 21
0.21
 31
0.3399999999999999
 12
-0.0500000000000001
 22
0.24
 32
0.3399999999999999
 13
-0.0500000000000001
 23
0.24
 33
0.27
  0
3DFACE
  5
120E
  8
GOGGLES
 10
-0.0500000000000001
 20
0.24
 30
0.27
 11
-0.0500000000000001
 21
0.24
 31
0.3399999999999999
 12
0.12
 22
0.19
 32
0.3399999999999999
 13
0.12
 23
0.19
 33
0.27
  0
3DFACE
  5
120F
  8
GOGGLES
 10
0.1199999999999999
 20
0.19
 30
0.27
 11
0.1199999999999999
 21
0.19
 31
0.3399999999999999
 12
0.22
 22
0.0
 32
0.3399999999999999
 13
0.22
 23
0.0
 33
0.27
  0
VIEWPORT
  5
2E
 67
     1
  8
0
 10
144.7270812988281
 20
101.2295806407928
 30
0.0
 40
391.13550988316581
 41
222.15178063964839
 68
     2
 69
     1
1001
ACAD
1000
MVIEW
1002
{
1070
    16
1010
0.0
1020
0.0
1030
0.0
1010
0.0
1020
0.0
1030
1.0
1040
0.0
1040
222.15178063964839
1040
144.7270812988281
1040
101.2295806407928
1040
50.0
1040
0.0
1040
0.0
1070
     0
1070
   100
1070
     1
1070
     1
1070
     0
1070
     0
1070
     0
1070
     0
1040
0.0
1040
0.0
1040
0.0
1040
10.0
1040
10.0
1040
10.0
1040
10.0
1070
     0
1002
{
1002
}
1002
}
  0
VIEWPORT
  5
30
 67
     1
  8
0
 10
139.22375631332389
 20
100.8062499761581
 30
0.0
 40
222.75801010131829
 41
161.289999961853
 68
     1
 69
     2
1001
ACAD
1000
MVIEW
1002
{
1070
    16
1010
0.0
1020
0.0
1030
0.0
1010
0.0
1020
0.0
1030
1.0
1040
0.0
1040
307.49010134148989
1040
210.0
1040
148.5
1040
50.0
1040
0.0
1040
0.0
1070
     0
1070
   100
1070
     1
1070
     3
1070
     0
1070
     1
1070
     0
1070
     0
1040
0.0
1040
0.0
1040
0.0
1040
10.0
1040
10.0
1040
10.0
1040
10.0
1070
     0
1002
{
1002
}
1002
}
  0
ENDSEC
  0
EOF
