  0
SECTION
  2
HEADER
  9
$ACADVER
  1
AC1009
  9
$INSBASE
 10
0.0
 20
0.0
 30
0.0
  9
$EXTMIN
 10
-5.1799999999999979
 20
-40.359999999999999
 30
-26.800000000000001
  9
$EXTMAX
 10
5.1799999999999997
 20
44.865000058454882
 30
41.042999999999971
  9
$LIMMIN
 10
0.0
 20
0.0
  9
$LIMMAX
 10
420.0
 20
297.0
  9
$ORTHOMODE
 70
     1
  9
$REGENMODE
 70
     1
  9
$FILLMODE
 70
     1
  9
$QTEXTMODE
 70
     0
  9
$MIRRTEXT
 70
     1
  9
$DRAGMODE
 70
     2
  9
$LTSCALE
 40
1.0
  9
$OSMODE
 70
   551
  9
$ATTMODE
 70
     1
  9
$TEXTSIZE
 40
2.5
  9
$TRACEWID
 40
1.0
  9
$TEXTSTYLE
  7
STANDARD
  9
$CLAYER
  8
BOAT
  9
$CELTYPE
  6
BYLAYER
  9
$CECOLOR
 62
   256
  9
$DIMSCALE
 40
1.0
  9
$DIMASZ
 40
2.5
  9
$DIMEXO
 40
0.625
  9
$DIMDLI
 40
3.75
  9
$DIMRND
 40
0.0
  9
$DIMDLE
 40
0.0
  9
$DIMEXE
 40
1.25
  9
$DIMTP
 40
0.0
  9
$DIMTM
 40
0.0
  9
$DIMTXT
 40
2.5
  9
$DIMCEN
 40
2.5
  9
$DIMTSZ
 40
0.0
  9
$DIMTOL
 70
     0
  9
$DIMLIM
 70
     0
  9
$DIMTIH
 70
     0
  9
$DIMTOH
 70
     0
  9
$DIMSE1
 70
     0
  9
$DIMSE2
 70
     0
  9
$DIMTAD
 70
     1
  9
$DIMZIN
 70
     8
  9
$DIMBLK
  1

  9
$DIMASO
 70
     1
  9
$DIMSHO
 70
     1
  9
$DIMPOST
  1

  9
$DIMAPOST
  1

  9
$DIMALT
 70
     0
  9
$DIMALTD
 70
     3
  9
$DIMALTF
 40
0.03937007874016
  9
$DIMLFAC
 40
1.0
  9
$DIMTOFL
 70
     1
  9
$DIMTVP
 40
0.0
  9
$DIMTIX
 70
     0
  9
$DIMSOXD
 70
     0
  9
$DIMSAH
 70
     0
  9
$DIMBLK1
  1

  9
$DIMBLK2
  1

  9
$DIMSTYLE
  2
ISO-25
  9
$DIMCLRD
 70
     0
  9
$DIMCLRE
 70
     0
  9
$DIMCLRT
 70
     0
  9
$DIMTFAC
 40
1.0
  9
$DIMGAP
 40
0.625
  9
$LUNITS
 70
     2
  9
$LUPREC
 70
     4
  9
$SKETCHINC
 40
1.0
  9
$FILLETRAD
 40
10.0
  9
$AUNITS
 70
     0
  9
$AUPREC
 70
     0
  9
$MENU
  1
.
  9
$ELEVATION
 40
0.0
  9
$PELEVATION
 40
0.0
  9
$THICKNESS
 40
0.0
  9
$LIMCHECK
 70
     0
  9
$BLIPMODE
 70
     0
  9
$CHAMFERA
 40
10.0
  9
$CHAMFERB
 40
10.0
  9
$SKPOLY
 70
     0
  9
$TDCREATE
 40
2454672.8424120601
  9
$TDUPDATE
 40
2454674.6879627998
  9
$TDINDWG
 40
0.4045849537
  9
$TDUSRTIMER
 40
0.4045849537
  9
$USRTIMER
 70
     1
  9
$ANGBASE
 50
0.0
  9
$ANGDIR
 70
     0
  9
$PDMODE
 70
     0
  9
$PDSIZE
 40
0.0
  9
$PLINEWID
 40
0.0
  9
$COORDS
 70
     1
  9
$SPLFRAME
 70
     0
  9
$SPLINETYPE
 70
     6
  9
$SPLINESEGS
 70
     8
  9
$ATTDIA
 70
     1
  9
$ATTREQ
 70
     1
  9
$HANDLING
 70
-16383
  9
$HANDSEED
  5
1196
  9
$SURFTAB1
 70
     6
  9
$SURFTAB2
 70
     6
  9
$SURFTYPE
 70
     6
  9
$SURFU
 70
     6
  9
$SURFV
 70
     6
  9
$UCSNAME
  2

  9
$UCSORG
 10
0.0
 20
0.0
 30
0.0
  9
$UCSXDIR
 10
0.0
 20
-1.0
 30
0.0
  9
$UCSYDIR
 10
0.0
 20
0.0
 30
1.0
  9
$PUCSNAME
  2

  9
$PUCSORG
 10
0.0
 20
0.0
 30
0.0
  9
$PUCSXDIR
 10
1.0
 20
0.0
 30
0.0
  9
$PUCSYDIR
 10
0.0
 20
1.0
 30
0.0
  9
$USERI1
 70
     0
  9
$USERI2
 70
     0
  9
$USERI3
 70
     0
  9
$USERI4
 70
     0
  9
$USERI5
 70
     0
  9
$USERR1
 40
0.0
  9
$USERR2
 40
0.0
  9
$USERR3
 40
0.0
  9
$USERR4
 40
0.0
  9
$USERR5
 40
0.0
  9
$WORLDVIEW
 70
     1
  9
$SHADEDGE
 70
     3
  9
$SHADEDIF
 70
    70
  9
$TILEMODE
 70
     1
  9
$MAXACTVP
 70
    64
  9
$PLIMCHECK
 70
     0
  9
$PEXTMIN
 10
27.844751262664801
 20
20.161249995231621
 30
0.0
  9
$PEXTMAX
 10
250.60276136398309
 20
181.4512499570846
 30
0.0
  9
$PLIMMIN
 10
-3.757080078125
 20
-3.7570831775665279
  9
$PLIMMAX
 10
293.21124267578119
 20
206.21624445915219
  9
$UNITMODE
 70
     0
  9
$VISRETAIN
 70
     1
  9
$PLINEGEN
 70
     0
  9
$PSLTSCALE
 70
     1
  0
ENDSEC
  0
SECTION
  2
TABLES
  0
TABLE
  2
VPORT
 70
    96
  0
VPORT
  2
*ACTIVE
 70
     0
 10
0.0
 20
0.0
 11
1.0
 21
1.0
 12
21.265677700996669
 22
-6.5769834360082617
 13
0.0
 23
0.0
 14
0.01
 24
0.01
 15
1.0
 25
1.0
 16
-1.0
 26
0.0
 36
0.0
 17
0.0
 27
0.0
 37
0.0
 40
90.71717611186844
 41
1.7606679035250461
 42
50.0
 43
0.0
 44
0.0
 50
0.0
 51
0.0
 71
     0
 72
   100
 73
     1
 74
     3
 75
     1
 76
     1
 77
     0
 78
     0
  0
ENDTAB
  0
TABLE
  2
LTYPE
 70
     1
  0
LTYPE
  2
CONTINUOUS
 70
     0
  3
Solid line
 72
    65
 73
     0
 40
0.0
  0
ENDTAB
  0
TABLE
  2
LAYER
 70
    14
  0
LAYER
  2
0
 70
     0
 62
     7
  6
CONTINUOUS
  0
LAYER
  2
DRAWING1
 70
     0
 62
    -9
  6
CONTINUOUS
  0
LAYER
  2
DRAWING2
 70
     0
 62
    -9
  6
CONTINUOUS
  0
LAYER
  2
DRAWING3
 70
     0
 62
    -9
  6
CONTINUOUS
  0
LAYER
  2
H2
 70
     0
 62
     7
  6
CONTINUOUS
  0
LAYER
  2
BOATS
 70
     4
 62
     3
  6
CONTINUOUS
  0
LAYER
  2
BOAT
 70
     4
 62
     3
  6
CONTINUOUS
  0
LAYER
  2
RAILINGS
 70
     0
 62
     6
  6
CONTINUOUS
  0
LAYER
  2
R2
 70
     0
 62
     6
  6
CONTINUOUS
  0
LAYER
  2
TURRET
 70
     0
 62
     2
  6
CONTINUOUS
  0
LAYER
  2
GUN
 70
     0
 62
     1
  6
CONTINUOUS
  0
LAYER
  2
SLEEVE
 70
     0
 62
     5
  6
CONTINUOUS
  0
LAYER
  2
DR2
 70
     0
 62
    -9
  6
CONTINUOUS
  0
LAYER
  2
BARREL
 70
     0
 62
     1
  6
CONTINUOUS
  0
ENDTAB
  0
TABLE
  2
STYLE
 70
     1
  0
STYLE
  2
STANDARD
 70
     0
 40
0.0
 41
1.0
 50
0.0
 71
     0
 42
2.5
  3
txt
  4

  0
ENDTAB
  0
TABLE
  2
VIEW
 70
     0
  0
ENDTAB
  0
TABLE
  2
UCS
 70
     0
  0
ENDTAB
  0
TABLE
  2
APPID
 70
     1
  0
APPID
  2
ACAD
 70
     0
  0
ENDTAB
  0
TABLE
  2
DIMSTYLE
 70
     1
  0
DIMSTYLE
  2
ISO-25
 70
     0
  3

  4

  5

  6

  7

 40
1.0
 41
2.5
 42
0.625
 43
3.75
 44
1.25
 45
0.0
 46
0.0
 47
0.0
 48
0.0
140
2.5
141
2.5
142
0.0
143
0.03937007874016
144
1.0
145
0.0
146
1.0
147
0.625
 71
     0
 72
     0
 73
     0
 74
     0
 75
     0
 76
     0
 77
     1
 78
     8
170
     0
171
     3
172
     1
173
     0
174
     0
175
     0
176
     0
177
     0
178
     0
  0
ENDTAB
  0
ENDSEC
  0
SECTION
  2
BLOCKS
  0
BLOCK
  8
0
  2
$MODEL_SPACE
 70
     0
 10
0.0
 20
0.0
 30
0.0
  3
$MODEL_SPACE
  1

  0
ENDBLK
  5
21
  8
0
  0
BLOCK
 67
     1
  8
0
  2
$PAPER_SPACE
 70
     0
 10
0.0
 20
0.0
 30
0.0
  3
$PAPER_SPACE
  1

  0
ENDBLK
  5
1D
 67
     1
  8
0
  0
ENDSEC
  0
SECTION
  2
ENTITIES
  0
3DFACE
  5
819
  8
BOATS
 10
4.6461568877506911
 20
-3.5666822924961741
 30
3.9900000000000002
 11
4.5539470900380596
 21
-3.9478611917099138
 31
4.0300000000000002
 12
3.955886201385471
 22
-3.8976299916041861
 32
3.379999999999999
 13
3.9297921555241548
 23
-3.6389427271890491
 33
3.3500000000000001
  0
3DFACE
  5
81A
  8
BOATS
 10
3.9297921555241548
 20
-3.6389427271890491
 30
3.3500000000000001
 11
3.955886201385471
 21
-3.8976299916041861
 31
3.379999999999999
 12
4.5539470900380596
 22
-3.9478611917099138
 32
4.0300000000000002
 13
4.6461568877506911
 23
-3.5666822924961741
 33
3.9900000000000002
  0
3DFACE
  5
81B
  8
BOATS
 10
3.890651086732182
 20
-3.2509118305663409
 30
3.29
 11
3.9297921555241548
 21
-3.6389427271890491
 31
3.3500000000000001
 12
4.6461568877506911
 22
-3.5666822924961741
 32
3.9900000000000002
 13
4.6766623901474009
 23
-3.1716260758338821
 33
3.9599999999999991
  0
3DFACE
  5
81C
  8
BOATS
 10
4.6766623901474009
 20
-3.1716260758338821
 30
3.9599999999999991
 11
4.6461568877506911
 21
-3.5666822924961741
 31
3.9900000000000002
 12
3.9297921555241548
 22
-3.6389427271890491
 32
3.3500000000000001
 13
3.890651086732182
 23
-3.2509118305663409
 33
3.29
  0
3DFACE
  5
81D
  8
BOATS
 10
4.6759690996249308
 20
-2.3676363250607451
 30
3.9300000000000059
 11
4.6766623901474009
 21
-3.1716260758338821
 31
3.9599999999999991
 12
3.890651086732182
 22
-3.2509118305663409
 32
3.29
 13
3.8103617148512101
 23
-2.4549510169813011
 33
3.2099999999999991
  0
3DFACE
  5
81E
  8
BOATS
 10
3.8103617148512101
 20
-2.4549510169813011
 30
3.2099999999999991
 11
3.890651086732182
 21
-3.2509118305663409
 31
3.29
 12
4.6766623901474009
 22
-3.1716260758338821
 32
3.9599999999999991
 13
4.6759690996249308
 23
-2.3676363250607451
 33
3.9300000000000059
  0
3DFACE
  5
81F
  8
BOATS
 10
3.7762387318017971
 20
-2.1166676712076589
 30
3.169999999999999
 11
3.8103617148512101
 21
-2.4549510169813011
 31
3.2099999999999991
 12
4.6759690996249308
 22
-2.3676363250607451
 32
3.9300000000000059
 13
4.6816441572547767
 23
-2.0253385106930542
 33
3.9300000000000059
  0
3DFACE
  5
820
  8
BOATS
 10
4.6816441572547767
 20
-2.0253385106930542
 30
3.9300000000000059
 11
4.6759690996249308
 21
-2.3676363250607451
 31
3.9300000000000059
 12
3.8103617148512101
 22
-2.4549510169813011
 32
3.2099999999999991
 13
3.7762387318017971
 23
-2.1166676712076589
 33
3.169999999999999
  0
3DFACE
  5
821
  8
BOATS
 10
4.6083801054133904
 20
-1.299024268296705
 30
3.9300000000000059
 11
4.6816441572547767
 21
-2.0253385106930542
 31
3.9300000000000059
 12
3.7762387318017971
 22
-2.1166676712076589
 32
3.169999999999999
 13
3.70297467996041
 23
-1.39035342881131
 33
3.129999999999999
  0
3DFACE
  5
822
  8
BOATS
 10
3.70297467996041
 20
-1.39035342881131
 30
3.129999999999999
 11
3.7762387318017971
 21
-2.1166676712076589
 31
3.169999999999999
 12
4.6816441572547767
 22
-2.0253385106930542
 32
3.9300000000000059
 13
4.6083801054133904
 23
-1.299024268296705
 33
3.9300000000000059
  0
3DFACE
  5
823
  8
BOATS
 10
3.6297106281190228
 20
-0.6640391864149609
 30
3.129999999999999
 11
3.70297467996041
 21
-1.39035342881131
 31
3.129999999999999
 12
4.6083801054133904
 22
-1.299024268296705
 32
3.9300000000000059
 13
4.4455704620436816
 23
-0.5817425802369655
 33
3.9300000000000059
  0
3DFACE
  5
824
  8
BOATS
 10
4.4455704620436816
 20
-0.5817425802369655
 30
3.9300000000000059
 11
4.6083801054133904
 21
-1.299024268296705
 31
3.9300000000000059
 12
3.70297467996041
 22
-1.39035342881131
 32
3.129999999999999
 13
3.6297106281190228
 23
-0.6640391864149609
 33
3.129999999999999
  0
3DFACE
  5
825
  8
BOATS
 10
4.2769990997288412
 20
-0.106259987698274
 30
3.9700000000000002
 11
4.4455704620436816
 21
-0.5817425802369655
 31
3.9300000000000059
 12
3.6297106281190228
 22
-0.6640391864149609
 32
3.129999999999999
 13
3.5805333878419279
 23
-0.1765131880941244
 33
3.129999999999999
  0
3DFACE
  5
826
  8
BOATS
 10
3.5805333878419279
 20
-0.1765131880941244
 30
3.129999999999999
 11
3.6297106281190228
 21
-0.6640391864149609
 31
3.129999999999999
 12
4.4455704620436816
 22
-0.5817425802369655
 32
3.9300000000000059
 13
4.2769990997288412
 23
-0.106259987698274
 33
3.9700000000000002
  0
3DFACE
  5
827
  8
BOATS
 10
3.531356147564833
 20
0.3110128102267129
 30
3.129999999999999
 11
3.5805333878419279
 21
-0.1765131880941244
 31
3.129999999999999
 12
4.2769990997288412
 22
-0.106259987698274
 32
3.9700000000000002
 13
3.998983125546042
 23
0.3581828162067837
 33
4.0
  0
3DFACE
  5
828
  8
BOATS
 10
3.998983125546042
 20
0.3581828162067837
 30
4.0
 11
4.2769990997288412
 21
-0.106259987698274
 31
3.9700000000000002
 12
3.5805333878419279
 22
-0.1765131880941244
 32
3.129999999999999
 13
3.531356147564833
 23
0.3110128102267129
 33
3.129999999999999
  0
3DFACE
  5
829
  8
BOATS
 10
3.7688807905459032
 20
0.6465452885007444
 30
4.0300000000000002
 11
3.998983125546042
 21
0.3581828162067837
 31
4.0
 12
3.531356147564833
 22
0.3110128102267129
 32
3.129999999999999
 13
3.500244015960956
 23
0.6194476254909165
 33
3.2200000000000002
  0
3DFACE
  5
82A
  8
BOATS
 10
3.500244015960956
 20
0.6194476254909165
 30
3.2200000000000002
 11
3.531356147564833
 21
0.3110128102267129
 31
3.129999999999999
 12
3.998983125546042
 22
0.3581828162067837
 32
4.0
 13
3.7688807905459032
 23
0.6465452885007444
 33
4.0300000000000002
  0
3DFACE
  5
82B
  8
BOATS
 10
3.4801716729907128
 20
0.8184378288871766
 30
3.4399999999999991
 11
3.500244015960956
 21
0.6194476254909165
 31
3.2200000000000002
 12
3.7688807905459032
 22
0.6465452885007444
 32
4.0300000000000002
 13
3.5119407764818602
 23
0.9020483788397278
 33
4.0700000000000003
  0
3DFACE
  5
82C
  8
BOATS
 10
3.5119407764818602
 20
0.9020483788397278
 30
4.0700000000000003
 11
3.7688807905459032
 21
0.6465452885007444
 31
4.0300000000000002
 12
3.500244015960956
 22
0.6194476254909165
 32
3.2200000000000002
 13
3.4801716729907128
 23
0.8184378288871766
 33
3.4399999999999991
  0
3DFACE
  5
82F
  8
BOATS
 10
3.4801716729907208
 20
0.8184378288871773
 30
3.4399999999999991
 11
3.500244015960964
 21
0.6194476254909174
 31
3.2200000000000002
 12
3.2316072413760168
 22
0.5923499624810895
 32
4.0300000000000002
 13
3.4323446951233798
 23
0.8940194416516331
 33
4.0700000000000003
  0
3DFACE
  5
830
  8
BOATS
 10
3.4323446951233798
 20
0.8940194416516331
 30
4.0700000000000003
 11
3.2316072413760168
 21
0.5923499624810895
 31
4.0300000000000002
 12
3.500244015960964
 22
0.6194476254909174
 32
3.2200000000000002
 13
3.4801716729907208
 23
0.8184378288871773
 33
3.4399999999999991
  0
3DFACE
  5
831
  8
BOATS
 10
3.500244015960964
 20
0.6194476254909174
 30
3.2200000000000002
 11
3.531356147564841
 21
0.3110128102267136
 31
3.129999999999999
 12
3.0637291695836311
 22
0.2638428042466428
 32
4.0
 13
3.2316072413760168
 23
0.5923499624810895
 33
4.0300000000000002
  0
3DFACE
  5
832
  8
BOATS
 10
3.2316072413760168
 20
0.5923499624810895
 30
4.0300000000000002
 11
3.0637291695836311
 21
0.2638428042466428
 31
4.0
 12
3.531356147564841
 22
0.3110128102267136
 32
3.129999999999999
 13
3.500244015960964
 23
0.6194476254909174
 33
3.2200000000000002
  0
3DFACE
  5
833
  8
BOATS
 10
2.9447543300774961
 20
-2.5422657089018559
 30
3.9300000000000059
 11
3.104639783316971
 21
-3.3301975852988002
 31
3.9599999999999991
 12
3.8906510867321891
 22
-3.25091183056634
 32
3.29
 13
3.8103617148512181
 23
-2.4549510169812998
 33
3.2099999999999991
  0
3DFACE
  5
834
  8
BOATS
 10
3.8103617148512181
 20
-2.4549510169812998
 30
3.2099999999999991
 11
3.8906510867321891
 21
-3.25091183056634
 31
3.29
 12
3.104639783316971
 22
-3.3301975852988002
 32
3.9599999999999991
 13
2.9447543300774961
 23
-2.5422657089018559
 33
3.9300000000000059
  0
3DFACE
  5
835
  8
BOATS
 10
2.8708333063488252
 20
-2.207996831722264
 30
3.9300000000000059
 11
2.9447543300774961
 21
-2.5422657089018559
 31
3.9300000000000059
 12
3.8103617148512181
 22
-2.4549510169812998
 32
3.2099999999999991
 13
3.7762387318018051
 23
-2.116667671207658
 33
3.169999999999999
  0
3DFACE
  5
836
  8
BOATS
 10
3.7762387318018051
 20
-2.116667671207658
 30
3.169999999999999
 11
3.8103617148512181
 21
-2.4549510169812998
 31
3.2099999999999991
 12
2.9447543300774961
 22
-2.5422657089018559
 32
3.9300000000000059
 13
2.8708333063488252
 23
-2.207996831722264
 33
3.9300000000000059
  0
3DFACE
  5
837
  8
BOATS
 10
3.702974679960418
 20
-1.3903534288113091
 30
3.129999999999999
 11
3.7762387318018051
 21
-2.116667671207658
 31
3.169999999999999
 12
2.8708333063488252
 22
-2.207996831722264
 32
3.9300000000000059
 13
2.7975692545074389
 23
-1.481682589325914
 33
3.9300000000000059
  0
3DFACE
  5
838
  8
BOATS
 10
2.7975692545074389
 20
-1.481682589325914
 30
3.9300000000000059
 11
2.8708333063488252
 21
-2.207996831722264
 31
3.9300000000000059
 12
3.7762387318018051
 22
-2.116667671207658
 32
3.169999999999999
 13
3.702974679960418
 23
-1.3903534288113091
 33
3.129999999999999
  0
3DFACE
  5
839
  8
BOATS
 10
2.813850794194372
 20
-0.7463357925929555
 30
3.9300000000000059
 11
2.7975692545074389
 21
-1.481682589325914
 31
3.9300000000000059
 12
3.702974679960418
 22
-1.3903534288113091
 32
3.129999999999999
 13
3.6297106281190308
 23
-0.66403918641496
 33
3.129999999999999
  0
3DFACE
  5
83A
  8
BOATS
 10
3.6297106281190308
 20
-0.66403918641496
 30
3.129999999999999
 11
3.702974679960418
 21
-1.3903534288113091
 31
3.129999999999999
 12
2.7975692545074389
 22
-1.481682589325914
 32
3.9300000000000059
 13
2.813850794194372
 23
-0.7463357925929555
 33
3.9300000000000059
  0
3DFACE
  5
83B
  8
BOATS
 10
3.5805333878419359
 20
-0.1765131880941235
 30
3.129999999999999
 11
3.6297106281190308
 21
-0.66403918641496
 31
3.129999999999999
 12
2.813850794194372
 22
-0.7463357925929555
 32
3.9300000000000059
 13
2.884067675955023
 23
-0.2467663884899744
 33
3.9700000000000002
  0
3DFACE
  5
83C
  8
BOATS
 10
2.884067675955023
 20
-0.2467663884899744
 30
3.9700000000000002
 11
2.813850794194372
 21
-0.7463357925929555
 31
3.9300000000000059
 12
3.6297106281190308
 22
-0.66403918641496
 32
3.129999999999999
 13
3.5805333878419359
 23
-0.1765131880941235
 33
3.129999999999999
  0
3DFACE
  5
83D
  8
BOATS
 10
3.531356147564841
 20
0.3110128102267136
 30
3.129999999999999
 11
3.5805333878419359
 21
-0.1765131880941235
 31
3.129999999999999
 12
2.884067675955023
 22
-0.2467663884899744
 32
3.9700000000000002
 13
3.0637291695836311
 23
0.2638428042466428
 33
4.0
  0
3DFACE
  5
83E
  8
BOATS
 10
3.0637291695836311
 20
0.2638428042466428
 30
4.0
 11
2.884067675955023
 21
-0.2467663884899744
 31
3.9700000000000002
 12
3.5805333878419359
 22
-0.1765131880941235
 32
3.129999999999999
 13
3.531356147564841
 23
0.3110128102267136
 33
3.129999999999999
  0
3DFACE
  5
83F
  8
BOATS
 10
3.2134274232976292
 20
-3.7112031618819219
 30
3.9900000000000002
 11
3.3799048900001569
 21
-4.0662880152343446
 31
4.0300000000000002
 12
3.955886201385479
 22
-3.8976299916041861
 32
3.379999999999999
 13
3.9297921555241628
 23
-3.6389427271890482
 33
3.3500000000000001
  0
3DFACE
  5
840
  8
BOATS
 10
3.9297921555241628
 20
-3.6389427271890482
 30
3.3500000000000001
 11
3.955886201385479
 21
-3.8976299916041861
 31
3.379999999999999
 12
3.3799048900001569
 22
-4.0662880152343446
 32
4.0300000000000002
 13
3.2134274232976292
 23
-3.7112031618819219
 33
3.9900000000000002
  0
3DFACE
  5
841
  8
BOATS
 10
3.104639783316971
 20
-3.3301975852988002
 30
3.9599999999999991
 11
3.2134274232976292
 21
-3.7112031618819219
 31
3.9900000000000002
 12
3.9297921555241628
 22
-3.6389427271890482
 32
3.3500000000000001
 13
3.8906510867321891
 23
-3.25091183056634
 33
3.29
  0
3DFACE
  5
842
  8
BOATS
 10
3.8906510867321891
 20
-3.25091183056634
 30
3.29
 11
3.9297921555241628
 21
-3.6389427271890482
 31
3.3500000000000001
 12
3.2134274232976292
 22
-3.7112031618819219
 32
3.9900000000000002
 13
3.104639783316971
 23
-3.3301975852988002
 33
3.9599999999999991
  0
3DFACE
  5
843
  8
BOATS
 10
3.4801716729907159
 20
0.8184378288871849
 30
3.440000000000063
 11
3.4801716729907159
 21
0.8184378288871849
 31
3.440000000000063
 12
3.5119407764818602
 22
0.9020483788397278
 32
4.0700000000000003
 13
3.4323446951233798
 23
0.8940194416516331
 33
4.0700000000000003
  0
3DFACE
  5
844
  8
BOATS
 10
3.4323446951233798
 20
0.8940194416516331
 30
4.0700000000000003
 11
3.5119407764818602
 21
0.9020483788397278
 31
4.0700000000000003
 12
3.4801716729907159
 22
0.8184378288871849
 32
3.440000000000063
 13
3.4801716729907159
 23
0.8184378288871849
 33
3.440000000000063
  0
3DFACE
  5
849
  8
BOATS
 10
3.955886201385479
 20
-3.8976299916041861
 30
3.379999999999999
 11
3.9609042871280362
 21
-3.9473775424532511
 31
3.419999999999999
 12
3.980976630098279
 22
-4.1463677458495107
 32
4.0700000000000003
 13
3.3799048900001569
 23
-4.0662880152343446
 33
4.0300000000000002
  0
3DFACE
  5
84A
  8
BOATS
 10
3.3799048900001569
 20
-4.0662880152343446
 30
4.0300000000000002
 11
3.980976630098279
 21
-4.1463677458495107
 31
4.0700000000000003
 12
3.9609042871280362
 22
-3.9473775424532511
 32
3.419999999999999
 13
3.955886201385479
 23
-3.8976299916041861
 33
3.379999999999999
  0
3DFACE
  5
84B
  8
BOATS
 10
3.955886201385471
 20
-3.8976299916041861
 30
3.379999999999999
 11
3.9609042871280362
 21
-3.9473775424532511
 31
3.419999999999999
 12
3.980976630098279
 22
-4.1463677458495107
 32
4.0700000000000003
 13
4.5539470900380596
 23
-3.9478611917099138
 33
4.0300000000000002
  0
3DFACE
  5
84C
  8
BOATS
 10
4.5539470900380596
 20
-3.9478611917099138
 30
4.0300000000000002
 11
3.980976630098279
 21
-4.1463677458495107
 31
4.0700000000000003
 12
3.9609042871280362
 22
-3.9473775424532511
 32
3.419999999999999
 13
3.955886201385471
 23
-3.8976299916041861
 33
3.379999999999999
  0
3DFACE
  5
84F
  8
BOATS
 10
-4.5539470900380623
 20
-3.9478611917099129
 30
4.0300000000000002
 11
-3.9809766300982798
 21
-4.146367745849509
 31
4.0700000000000003
 12
-3.9609042871280371
 22
-3.9473775424532498
 32
3.419999999999999
 13
-3.9558862013854719
 23
-3.8976299916041852
 33
3.379999999999999
  0
3DFACE
  5
850
  8
BOATS
 10
-3.9558862013854719
 20
-3.8976299916041852
 30
3.379999999999999
 11
-3.9609042871280371
 21
-3.9473775424532498
 31
3.419999999999999
 12
-3.9809766300982798
 22
-4.146367745849509
 32
4.0700000000000003
 13
-4.5539470900380623
 23
-3.9478611917099129
 33
4.0300000000000002
  0
3DFACE
  5
851
  8
BOATS
 10
-3.5805333878419279
 20
-0.1765131880941235
 30
3.129999999999999
 11
-3.6297106281190228
 21
-0.66403918641496
 31
3.129999999999999
 12
-4.4455704620436816
 22
-0.5817425802369644
 32
3.9300000000000059
 13
-4.2769990997288412
 23
-0.106259987698273
 33
3.9700000000000002
  0
3DFACE
  5
852
  8
BOATS
 10
-4.2769990997288412
 20
-0.106259987698273
 30
3.9700000000000002
 11
-4.4455704620436816
 21
-0.5817425802369644
 31
3.9300000000000059
 12
-3.6297106281190228
 22
-0.66403918641496
 32
3.129999999999999
 13
-3.5805333878419279
 23
-0.1765131880941235
 33
3.129999999999999
  0
3DFACE
  5
853
  8
BOATS
 10
-3.70297467996041
 20
-1.3903534288113091
 30
3.129999999999999
 11
-3.776238731801798
 21
-2.116667671207658
 31
3.169999999999999
 12
-4.6816441572547767
 22
-2.0253385106930528
 32
3.9300000000000059
 13
-4.6083801054133904
 23
-1.2990242682967039
 33
3.9300000000000059
  0
3DFACE
  5
854
  8
BOATS
 10
-4.6083801054133904
 20
-1.2990242682967039
 30
3.9300000000000059
 11
-4.6816441572547767
 21
-2.0253385106930528
 31
3.9300000000000059
 12
-3.776238731801798
 22
-2.116667671207658
 32
3.169999999999999
 13
-3.70297467996041
 23
-1.3903534288113091
 33
3.129999999999999
  0
3DFACE
  5
855
  8
BOATS
 10
-4.4455704620436816
 20
-0.5817425802369644
 30
3.9300000000000059
 11
-4.6083801054133904
 21
-1.2990242682967039
 31
3.9300000000000059
 12
-3.70297467996041
 22
-1.3903534288113091
 32
3.129999999999999
 13
-3.6297106281190228
 23
-0.66403918641496
 33
3.129999999999999
  0
3DFACE
  5
856
  8
BOATS
 10
-3.6297106281190228
 20
-0.66403918641496
 30
3.129999999999999
 11
-3.70297467996041
 21
-1.3903534288113091
 31
3.129999999999999
 12
-4.6083801054133904
 22
-1.2990242682967039
 32
3.9300000000000059
 13
-4.4455704620436816
 23
-0.5817425802369644
 33
3.9300000000000059
  0
3DFACE
  5
857
  8
BOATS
 10
-4.6461568877506911
 20
-3.5666822924961732
 30
3.9900000000000002
 11
-4.5539470900380623
 21
-3.9478611917099129
 31
4.0300000000000002
 12
-3.9558862013854719
 22
-3.8976299916041852
 32
3.379999999999999
 13
-3.9297921555241562
 23
-3.6389427271890482
 33
3.3500000000000001
  0
3DFACE
  5
858
  8
BOATS
 10
-3.9297921555241562
 20
-3.6389427271890482
 30
3.3500000000000001
 11
-3.9558862013854719
 21
-3.8976299916041852
 31
3.379999999999999
 12
-4.5539470900380623
 22
-3.9478611917099129
 32
4.0300000000000002
 13
-4.6461568877506911
 23
-3.5666822924961732
 33
3.9900000000000002
  0
3DFACE
  5
859
  8
BOATS
 10
-4.6766623901474009
 20
-3.1716260758338808
 30
3.9599999999999991
 11
-4.6461568877506911
 21
-3.5666822924961732
 31
3.9900000000000002
 12
-3.9297921555241562
 22
-3.6389427271890482
 32
3.3500000000000001
 13
-3.890651086732182
 23
-3.25091183056634
 33
3.29
  0
3DFACE
  5
85A
  8
BOATS
 10
-3.890651086732182
 20
-3.25091183056634
 30
3.29
 11
-3.9297921555241562
 21
-3.6389427271890482
 31
3.3500000000000001
 12
-4.6461568877506911
 22
-3.5666822924961732
 32
3.9900000000000002
 13
-4.6766623901474009
 23
-3.1716260758338808
 33
3.9599999999999991
  0
3DFACE
  5
85B
  8
BOATS
 10
-4.6759690996249308
 20
-2.3676363250607451
 30
3.9300000000000059
 11
-4.6766623901474009
 21
-3.1716260758338808
 31
3.9599999999999991
 12
-3.890651086732182
 22
-3.25091183056634
 32
3.29
 13
-3.810361714851211
 23
-2.4549510169812998
 33
3.2099999999999991
  0
3DFACE
  5
85C
  8
BOATS
 10
-3.810361714851211
 20
-2.4549510169812998
 30
3.2099999999999991
 11
-3.890651086732182
 21
-3.25091183056634
 31
3.29
 12
-4.6766623901474009
 22
-3.1716260758338808
 32
3.9599999999999991
 13
-4.6759690996249308
 23
-2.3676363250607451
 33
3.9300000000000059
  0
3DFACE
  5
85D
  8
BOATS
 10
-4.6816441572547767
 20
-2.0253385106930528
 30
3.9300000000000059
 11
-4.6759690996249308
 21
-2.3676363250607451
 31
3.9300000000000059
 12
-3.810361714851211
 22
-2.4549510169812998
 32
3.2099999999999991
 13
-3.776238731801798
 23
-2.116667671207658
 33
3.169999999999999
  0
3DFACE
  5
85E
  8
BOATS
 10
-3.776238731801798
 20
-2.116667671207658
 30
3.169999999999999
 11
-3.810361714851211
 21
-2.4549510169812998
 31
3.2099999999999991
 12
-4.6759690996249308
 22
-2.3676363250607451
 32
3.9300000000000059
 13
-4.6816441572547767
 23
-2.0253385106930528
 33
3.9300000000000059
  0
3DFACE
  5
85F
  8
BOATS
 10
-2.884067675955023
 20
-0.2467663884899736
 30
3.9700000000000002
 11
-2.813850794194372
 21
-0.7463357925929549
 31
3.9300000000000059
 12
-3.6297106281190308
 22
-0.6640391864149591
 32
3.129999999999999
 13
-3.5805333878419359
 23
-0.1765131880941226
 33
3.129999999999999
  0
3DFACE
  5
860
  8
BOATS
 10
-3.5805333878419359
 20
-0.1765131880941226
 30
3.129999999999999
 11
-3.6297106281190308
 21
-0.6640391864149591
 31
3.129999999999999
 12
-2.813850794194372
 22
-0.7463357925929549
 32
3.9300000000000059
 13
-2.884067675955023
 23
-0.2467663884899736
 33
3.9700000000000002
  0
3DFACE
  5
861
  8
BOATS
 10
-3.0637291695836311
 20
0.2638428042466436
 30
4.0
 11
-2.884067675955023
 21
-0.2467663884899736
 31
3.9700000000000002
 12
-3.5805333878419359
 22
-0.1765131880941226
 32
3.129999999999999
 13
-3.531356147564841
 23
0.3110128102267144
 33
3.129999999999999
  0
3DFACE
  5
862
  8
BOATS
 10
-3.531356147564841
 20
0.3110128102267144
 30
3.129999999999999
 11
-3.5805333878419359
 21
-0.1765131880941226
 31
3.129999999999999
 12
-2.884067675955023
 22
-0.2467663884899736
 32
3.9700000000000002
 13
-3.0637291695836311
 23
0.2638428042466436
 33
4.0
  0
3DFACE
  5
863
  8
BOATS
 10
-3.2316072413760168
 20
0.5923499624810904
 30
4.0300000000000002
 11
-3.0637291695836311
 21
0.2638428042466436
 31
4.0
 12
-3.531356147564841
 22
0.3110128102267144
 32
3.129999999999999
 13
-3.500244015960964
 23
0.6194476254909183
 33
3.2200000000000002
  0
3DFACE
  5
864
  8
BOATS
 10
-3.500244015960964
 20
0.6194476254909183
 30
3.2200000000000002
 11
-3.531356147564841
 21
0.3110128102267144
 31
3.129999999999999
 12
-3.0637291695836311
 22
0.2638428042466436
 32
4.0
 13
-3.2316072413760168
 23
0.5923499624810904
 33
4.0300000000000002
  0
3DFACE
  5
865
  8
BOATS
 10
-3.500244015960956
 20
0.6194476254909174
 30
3.2200000000000002
 11
-3.531356147564833
 21
0.3110128102267138
 31
3.129999999999999
 12
-3.998983125546042
 22
0.3581828162067846
 32
4.0
 13
-3.7688807905459032
 23
0.6465452885007453
 33
4.0300000000000002
  0
3DFACE
  5
866
  8
BOATS
 10
-3.7688807905459032
 20
0.6465452885007453
 30
4.0300000000000002
 11
-3.998983125546042
 21
0.3581828162067846
 31
4.0
 12
-3.531356147564833
 22
0.3110128102267138
 32
3.129999999999999
 13
-3.500244015960956
 23
0.6194476254909174
 33
3.2200000000000002
  0
3DFACE
  5
867
  8
BOATS
 10
-3.531356147564833
 20
0.3110128102267138
 30
3.129999999999999
 11
-3.5805333878419279
 21
-0.1765131880941235
 31
3.129999999999999
 12
-4.2769990997288412
 22
-0.106259987698273
 32
3.9700000000000002
 13
-3.998983125546042
 23
0.3581828162067846
 33
4.0
  0
3DFACE
  5
868
  8
BOATS
 10
-3.998983125546042
 20
0.3581828162067846
 30
4.0
 11
-4.2769990997288412
 21
-0.106259987698273
 31
3.9700000000000002
 12
-3.5805333878419279
 22
-0.1765131880941235
 32
3.129999999999999
 13
-3.531356147564833
 23
0.3110128102267138
 33
3.129999999999999
  0
3DFACE
  5
869
  8
BOATS
 10
-3.4323446951233798
 20
0.8940194416516341
 30
4.0700000000000003
 11
-3.5119407764818602
 21
0.9020483788397286
 31
4.0700000000000003
 12
-3.4801716729907159
 22
0.8184378288871858
 32
3.440000000000063
 13
-3.4801716729907159
 23
0.8184378288871858
 33
3.440000000000063
  0
3DFACE
  5
86A
  8
BOATS
 10
-3.4801716729907159
 20
0.8184378288871858
 30
3.440000000000063
 11
-3.4801716729907159
 21
0.8184378288871858
 31
3.440000000000063
 12
-3.5119407764818602
 22
0.9020483788397286
 32
4.0700000000000003
 13
-3.4323446951233798
 23
0.8940194416516341
 33
4.0700000000000003
  0
3DFACE
  5
86B
  8
BOATS
 10
-3.4323446951233798
 20
0.8940194416516341
 30
4.0700000000000003
 11
-3.2316072413760168
 21
0.5923499624810904
 31
4.0300000000000002
 12
-3.500244015960964
 22
0.6194476254909183
 32
3.2200000000000002
 13
-3.4801716729907208
 23
0.8184378288871783
 33
3.4399999999999991
  0
3DFACE
  5
86C
  8
BOATS
 10
-3.4801716729907208
 20
0.8184378288871783
 30
3.4399999999999991
 11
-3.500244015960964
 21
0.6194476254909183
 31
3.2200000000000002
 12
-3.2316072413760168
 22
0.5923499624810904
 32
4.0300000000000002
 13
-3.4323446951233798
 23
0.8940194416516341
 33
4.0700000000000003
  0
3DFACE
  5
86D
  8
BOATS
 10
-3.4801716729907128
 20
0.8184378288871773
 30
3.4399999999999991
 11
-3.500244015960956
 21
0.6194476254909174
 31
3.2200000000000002
 12
-3.7688807905459032
 22
0.6465452885007453
 32
4.0300000000000002
 13
-3.5119407764818602
 23
0.9020483788397286
 33
4.0700000000000003
  0
3DFACE
  5
86E
  8
BOATS
 10
-3.5119407764818602
 20
0.9020483788397286
 30
4.0700000000000003
 11
-3.7688807905459032
 21
0.6465452885007453
 31
4.0300000000000002
 12
-3.500244015960956
 22
0.6194476254909174
 32
3.2200000000000002
 13
-3.4801716729907128
 23
0.8184378288871773
 33
3.4399999999999991
  0
3DFACE
  5
86F
  8
BOATS
 10
-3.6297106281190308
 20
-0.6640391864149591
 30
3.129999999999999
 11
-3.702974679960418
 21
-1.390353428811308
 31
3.129999999999999
 12
-2.7975692545074389
 22
-1.4816825893259129
 32
3.9300000000000059
 13
-2.813850794194372
 23
-0.7463357925929549
 33
3.9300000000000059
  0
3DFACE
  5
870
  8
BOATS
 10
-2.813850794194372
 20
-0.7463357925929549
 30
3.9300000000000059
 11
-2.7975692545074389
 21
-1.4816825893259129
 31
3.9300000000000059
 12
-3.702974679960418
 22
-1.390353428811308
 32
3.129999999999999
 13
-3.6297106281190308
 23
-0.6640391864149591
 33
3.129999999999999
  0
3DFACE
  5
871
  8
BOATS
 10
-2.7975692545074389
 20
-1.4816825893259129
 30
3.9300000000000059
 11
-2.8708333063488261
 21
-2.2079968317222631
 31
3.9300000000000059
 12
-3.776238731801806
 22
-2.1166676712076571
 32
3.169999999999999
 13
-3.702974679960418
 23
-1.390353428811308
 33
3.129999999999999
  0
3DFACE
  5
872
  8
BOATS
 10
-3.702974679960418
 20
-1.390353428811308
 30
3.129999999999999
 11
-3.776238731801806
 21
-2.1166676712076571
 31
3.169999999999999
 12
-2.8708333063488261
 22
-2.2079968317222631
 32
3.9300000000000059
 13
-2.7975692545074389
 23
-1.4816825893259129
 33
3.9300000000000059
  0
3DFACE
  5
873
  8
BOATS
 10
-3.9558862013854799
 20
-3.8976299916041852
 30
3.379999999999999
 11
-3.9609042871280371
 21
-3.9473775424532498
 31
3.419999999999999
 12
-3.9809766300982798
 22
-4.146367745849509
 32
4.0700000000000003
 13
-3.3799048900001578
 23
-4.0662880152343446
 33
4.0300000000000002
  0
3DFACE
  5
874
  8
BOATS
 10
-3.3799048900001578
 20
-4.0662880152343446
 30
4.0300000000000002
 11
-3.9809766300982798
 21
-4.146367745849509
 31
4.0700000000000003
 12
-3.9609042871280371
 22
-3.9473775424532498
 32
3.419999999999999
 13
-3.9558862013854799
 23
-3.8976299916041852
 33
3.379999999999999
  0
3DFACE
  5
875
  8
BOATS
 10
-3.89065108673219
 20
-3.25091183056634
 30
3.29
 11
-3.9297921555241642
 21
-3.6389427271890469
 31
3.3500000000000001
 12
-3.2134274232976301
 22
-3.711203161881921
 32
3.9900000000000002
 13
-3.1046397833169719
 23
-3.3301975852987988
 33
3.9599999999999991
  0
3DFACE
  5
876
  8
BOATS
 10
-3.1046397833169719
 20
-3.3301975852987988
 30
3.9599999999999991
 11
-3.2134274232976301
 21
-3.711203161881921
 31
3.9900000000000002
 12
-3.9297921555241642
 22
-3.6389427271890469
 32
3.3500000000000001
 13
-3.89065108673219
 23
-3.25091183056634
 33
3.29
  0
3DFACE
  5
877
  8
BOATS
 10
-3.9297921555241642
 20
-3.6389427271890469
 30
3.3500000000000001
 11
-3.9558862013854799
 21
-3.8976299916041852
 31
3.379999999999999
 12
-3.3799048900001578
 22
-4.0662880152343446
 32
4.0300000000000002
 13
-3.2134274232976301
 23
-3.711203161881921
 33
3.9900000000000002
  0
3DFACE
  5
878
  8
BOATS
 10
-3.2134274232976301
 20
-3.711203161881921
 30
3.9900000000000002
 11
-3.3799048900001578
 21
-4.0662880152343446
 31
4.0300000000000002
 12
-3.9558862013854799
 22
-3.8976299916041852
 32
3.379999999999999
 13
-3.9297921555241642
 23
-3.6389427271890469
 33
3.3500000000000001
  0
3DFACE
  5
879
  8
BOATS
 10
-3.776238731801806
 20
-2.1166676712076571
 30
3.169999999999999
 11
-3.8103617148512181
 21
-2.4549510169812989
 31
3.2099999999999991
 12
-2.944754330077497
 22
-2.542265708901855
 32
3.9300000000000059
 13
-2.8708333063488261
 23
-2.2079968317222631
 33
3.9300000000000059
  0
3DFACE
  5
87A
  8
BOATS
 10
-2.8708333063488261
 20
-2.2079968317222631
 30
3.9300000000000059
 11
-2.944754330077497
 21
-2.542265708901855
 31
3.9300000000000059
 12
-3.8103617148512181
 22
-2.4549510169812989
 32
3.2099999999999991
 13
-3.776238731801806
 23
-2.1166676712076571
 33
3.169999999999999
  0
3DFACE
  5
87B
  8
BOATS
 10
-3.8103617148512181
 20
-2.4549510169812989
 30
3.2099999999999991
 11
-3.89065108673219
 21
-3.25091183056634
 31
3.29
 12
-3.1046397833169719
 22
-3.3301975852987988
 32
3.9599999999999991
 13
-2.944754330077497
 23
-2.542265708901855
 33
3.9300000000000059
  0
3DFACE
  5
87C
  8
BOATS
 10
-2.944754330077497
 20
-2.542265708901855
 30
3.9300000000000059
 11
-3.1046397833169719
 21
-3.3301975852987988
 31
3.9599999999999991
 12
-3.89065108673219
 22
-3.25091183056634
 32
3.29
 13
-3.8103617148512181
 23
-2.4549510169812989
 33
3.2099999999999991
  0
3DFACE
  5
8C9
  8
BOAT
 10
-3.9905207288305689
 20
2.67042453939824
 30
3.5300000000000011
 11
-3.8499038105676622
 21
3.0099038105676641
 31
3.5300000000000011
 12
-4.8100961894323371
 22
3.0099038105676641
 32
3.5300000000000011
 13
-4.66947927116943
 23
2.6704245393982471
 33
3.5300000000000011
  0
3DFACE
  5
8CA
  8
BOAT
 10
-4.66947927116943
 20
2.6704245393982471
 30
3.5300000000000011
 11
-4.8100961894323371
 21
3.0099038105676641
 31
3.5300000000000011
 12
-3.8499038105676622
 22
3.0099038105676641
 32
3.5300000000000011
 13
-3.9905207288305689
 23
2.67042453939824
 33
3.5300000000000011
  0
3DFACE
  5
8CB
  8
BOAT
 10
-4.3300000000000001
 20
2.5298076211353329
 30
3.5300000000000011
 11
-3.9905207288305689
 21
2.67042453939824
 31
3.5300000000000011
 12
-4.66947927116943
 22
2.6704245393982471
 32
3.5300000000000011
 13
-4.3300000000000001
 23
2.5298076211353329
 33
3.5300000000000011
  0
3DFACE
  5
8CC
  8
BOAT
 10
-4.3300000000000001
 20
2.5298076211353329
 30
3.5300000000000011
 11
-4.66947927116943
 21
2.6704245393982471
 31
3.5300000000000011
 12
-3.9905207288305689
 22
2.67042453939824
 32
3.5300000000000011
 13
-4.3300000000000001
 23
2.5298076211353329
 33
3.5300000000000011
  0
3DFACE
  5
8CD
  8
BOAT
 10
-4.3299999999999992
 20
4.9299999999999997
 30
3.5299999999999989
 11
-3.990520728830576
 21
4.7893830817370926
 31
3.5299999999999989
 12
-4.6694792711694291
 22
4.7893830817370926
 32
3.5299999999999989
 13
-4.3299999999999992
 23
4.9299999999999997
 33
3.5299999999999989
  0
3DFACE
  5
8CE
  8
BOAT
 10
-4.3299999999999992
 20
4.9299999999999997
 30
3.5299999999999989
 11
-4.6694792711694291
 21
4.7893830817370926
 31
3.5299999999999989
 12
-3.990520728830576
 22
4.7893830817370926
 32
3.5299999999999989
 13
-4.3299999999999992
 23
4.9299999999999997
 33
3.5299999999999989
  0
3DFACE
  5
8CF
  8
BOAT
 10
-4.6694792711694291
 20
4.7893830817370926
 30
3.5299999999999989
 11
-4.8100961894323371
 21
4.4499038105676689
 31
3.5299999999999958
 12
-3.8499038105676608
 22
4.4499038105676689
 32
3.5299999999999989
 13
-3.990520728830576
 23
4.7893830817370926
 33
3.5299999999999989
  0
3DFACE
  5
8D0
  8
BOAT
 10
-3.990520728830576
 20
4.7893830817370926
 30
3.5299999999999989
 11
-3.8499038105676608
 21
4.4499038105676689
 31
3.5299999999999989
 12
-4.8100961894323371
 22
4.4499038105676689
 32
3.5299999999999958
 13
-4.6694792711694291
 23
4.7893830817370926
 33
3.5299999999999989
  0
3DFACE
  5
8D1
  8
BOAT
 10
-3.8499038105676608
 20
4.4499038105676689
 30
3.5299999999999989
 11
-3.8499038105676622
 21
3.0099038105676641
 31
3.5300000000000011
 12
-4.8100961894323371
 22
3.0099038105676641
 32
3.5300000000000011
 13
-4.8100961894323371
 23
4.4499038105676689
 33
3.5299999999999958
  0
3DFACE
  5
8D2
  8
BOAT
 10
-4.8100961894323371
 20
4.4499038105676689
 30
3.5299999999999958
 11
-4.8100961894323371
 21
3.0099038105676641
 31
3.5300000000000011
 12
-3.8499038105676622
 22
3.0099038105676641
 32
3.5300000000000011
 13
-3.8499038105676608
 23
4.4499038105676689
 33
3.5299999999999989
  0
3DFACE
  5
8D3
  8
BOAT
 10
-4.8531910018781659
 20
4.9730948124458303
 30
3.5299999999999989
 11
-4.7613351365237913
 21
4.881238947091461
 31
3.4549999999999979
 12
-4.9399999999999977
 22
4.4499038105676618
 32
3.4549999999999979
 13
-5.0699038105676602
 23
4.4499038105676618
 33
3.5299999999999989
  0
3DFACE
  5
8D4
  8
BOAT
 10
-4.7613351365237913
 20
4.881238947091461
 30
3.4549999999999979
 11
-4.6694792711694291
 21
4.7893830817370926
 31
3.5299999999999989
 12
-4.8100961894323371
 22
4.4499038105676618
 32
3.5299999999999989
 13
-4.9399999999999977
 23
4.4499038105676618
 33
3.4549999999999979
  0
3DFACE
  5
8D5
  8
BOAT
 10
-4.3299999999999992
 20
5.1898076211353299
 30
3.5299999999999989
 11
-4.3299999999999992
 21
5.0599038105676621
 31
3.4549999999999979
 12
-4.7613351365237913
 22
4.881238947091461
 32
3.4549999999999979
 13
-4.8531910018781659
 23
4.9730948124458303
 33
3.5299999999999989
  0
3DFACE
  5
8D6
  8
BOAT
 10
-4.3299999999999992
 20
5.0599038105676621
 30
3.4549999999999979
 11
-4.3299999999999992
 21
4.9299999999999997
 31
3.5299999999999989
 12
-4.6694792711694291
 22
4.7893830817370926
 32
3.5299999999999989
 13
-4.7613351365237913
 23
4.881238947091461
 33
3.4549999999999979
  0
3DFACE
  5
8D7
  8
BOAT
 10
-3.806808998121832
 20
4.9730948124458303
 30
3.5299999999999989
 11
-3.8986648634762071
 21
4.881238947091461
 31
3.4549999999999979
 12
-4.3299999999999992
 22
5.0599038105676621
 32
3.4549999999999979
 13
-4.3299999999999992
 23
5.1898076211353299
 33
3.5299999999999989
  0
3DFACE
  5
8D8
  8
BOAT
 10
-3.8986648634762071
 20
4.881238947091461
 30
3.4549999999999979
 11
-3.990520728830576
 21
4.7893830817370926
 31
3.5299999999999989
 12
-4.3299999999999992
 22
4.9299999999999997
 32
3.5299999999999989
 13
-4.3299999999999992
 23
5.0599038105676621
 33
3.4549999999999979
  0
3DFACE
  5
8D9
  8
BOAT
 10
-3.5900961894323382
 20
4.449903810567668
 30
3.5299999999999989
 11
-3.7200000000000002
 21
4.4499038105676689
 31
3.4549999999999979
 12
-3.8986648634762071
 22
4.881238947091461
 32
3.4549999999999979
 13
-3.806808998121832
 23
4.9730948124458303
 33
3.5299999999999989
  0
3DFACE
  5
8DA
  8
BOAT
 10
-3.7200000000000002
 20
4.4499038105676689
 30
3.4549999999999979
 11
-3.8499038105676608
 21
4.4499038105676689
 31
3.5299999999999989
 12
-3.990520728830576
 22
4.7893830817370926
 32
3.5299999999999989
 13
-3.8986648634762071
 23
4.881238947091461
 33
3.4549999999999979
  0
3DFACE
  5
8DB
  8
BOAT
 10
-4.8531910018781659
 20
4.9730948124458303
 30
3.6799999999999979
 11
-4.8531910018781659
 21
4.9730948124458303
 31
3.5299999999999989
 12
-5.0699038105676602
 22
4.4499038105676618
 32
3.5299999999999989
 13
-5.0699038105676602
 23
4.4499038105676618
 33
3.6799999999999979
  0
3DFACE
  5
8DC
  8
BOAT
 10
-4.7613351365237913
 20
4.881238947091461
 30
3.7549999999999981
 11
-4.8531910018781659
 21
4.9730948124458303
 31
3.6799999999999979
 12
-5.0699038105676602
 22
4.4499038105676618
 32
3.6799999999999979
 13
-4.9399999999999977
 23
4.4499038105676618
 33
3.7549999999999981
  0
3DFACE
  5
8DD
  8
BOAT
 10
-4.6694792711694291
 20
4.7893830817370926
 30
3.6799999999999979
 11
-4.7613351365237913
 21
4.881238947091461
 31
3.7549999999999981
 12
-4.9399999999999977
 22
4.4499038105676618
 32
3.7549999999999981
 13
-4.8100961894323371
 23
4.4499038105676618
 33
3.6799999999999979
  0
3DFACE
  5
8DE
  8
BOAT
 10
-4.6694792711694291
 20
4.7893830817370926
 30
3.5299999999999989
 11
-4.6694792711694291
 21
4.7893830817370926
 31
3.6799999999999979
 12
-4.8100961894323371
 22
4.4499038105676618
 32
3.6799999999999979
 13
-4.8100961894323371
 23
4.4499038105676618
 33
3.5299999999999989
  0
3DFACE
  5
8DF
  8
BOAT
 10
-4.3299999999999992
 20
5.1898076211353299
 30
3.6799999999999979
 11
-4.3299999999999992
 21
5.1898076211353299
 31
3.5299999999999989
 12
-4.8531910018781659
 22
4.9730948124458303
 32
3.5299999999999989
 13
-4.8531910018781659
 23
4.9730948124458303
 33
3.6799999999999979
  0
3DFACE
  5
8E0
  8
BOAT
 10
-4.3299999999999992
 20
5.0599038105676621
 30
3.7549999999999981
 11
-4.3299999999999992
 21
5.1898076211353299
 31
3.6799999999999979
 12
-4.8531910018781659
 22
4.9730948124458303
 32
3.6799999999999979
 13
-4.7613351365237913
 23
4.881238947091461
 33
3.7549999999999981
  0
3DFACE
  5
8E1
  8
BOAT
 10
-4.3299999999999992
 20
4.9299999999999997
 30
3.6799999999999979
 11
-4.3299999999999992
 21
5.0599038105676621
 31
3.7549999999999981
 12
-4.7613351365237913
 22
4.881238947091461
 32
3.7549999999999981
 13
-4.6694792711694291
 23
4.7893830817370926
 33
3.6799999999999979
  0
3DFACE
  5
8E2
  8
BOAT
 10
-4.3299999999999992
 20
4.9299999999999997
 30
3.5299999999999989
 11
-4.3299999999999992
 21
4.9299999999999997
 31
3.6799999999999979
 12
-4.6694792711694291
 22
4.7893830817370926
 32
3.6799999999999979
 13
-4.6694792711694291
 23
4.7893830817370926
 33
3.5299999999999989
  0
3DFACE
  5
8E3
  8
BOAT
 10
-3.806808998121832
 20
4.9730948124458303
 30
3.6799999999999979
 11
-3.806808998121832
 21
4.9730948124458303
 31
3.5299999999999989
 12
-4.3299999999999992
 22
5.1898076211353299
 32
3.5299999999999989
 13
-4.3299999999999992
 23
5.1898076211353299
 33
3.6799999999999979
  0
3DFACE
  5
8E4
  8
BOAT
 10
-3.8986648634762071
 20
4.881238947091461
 30
3.7549999999999981
 11
-3.806808998121832
 21
4.9730948124458303
 31
3.6799999999999979
 12
-4.3299999999999992
 22
5.1898076211353299
 32
3.6799999999999979
 13
-4.3299999999999992
 23
5.0599038105676621
 33
3.7549999999999981
  0
3DFACE
  5
8E5
  8
BOAT
 10
-3.990520728830576
 20
4.7893830817370926
 30
3.6799999999999979
 11
-3.8986648634762071
 21
4.881238947091461
 31
3.7549999999999981
 12
-4.3299999999999992
 22
5.0599038105676621
 32
3.7549999999999981
 13
-4.3299999999999992
 23
4.9299999999999997
 33
3.6799999999999979
  0
3DFACE
  5
8E6
  8
BOAT
 10
-3.990520728830576
 20
4.7893830817370926
 30
3.5299999999999989
 11
-3.990520728830576
 21
4.7893830817370926
 31
3.6799999999999979
 12
-4.3299999999999992
 22
4.9299999999999997
 32
3.6799999999999979
 13
-4.3299999999999992
 23
4.9299999999999997
 33
3.5299999999999989
  0
3DFACE
  5
8E7
  8
BOAT
 10
-3.5900961894323382
 20
4.449903810567668
 30
3.6799999999999979
 11
-3.5900961894323382
 21
4.449903810567668
 31
3.5299999999999989
 12
-3.806808998121832
 22
4.9730948124458303
 32
3.5299999999999989
 13
-3.806808998121832
 23
4.9730948124458303
 33
3.6799999999999979
  0
3DFACE
  5
8E8
  8
BOAT
 10
-3.7200000000000002
 20
4.4499038105676689
 30
3.7549999999999981
 11
-3.5900961894323382
 21
4.449903810567668
 31
3.6799999999999979
 12
-3.806808998121832
 22
4.9730948124458303
 32
3.6799999999999979
 13
-3.8986648634762071
 23
4.881238947091461
 33
3.7549999999999981
  0
3DFACE
  5
8E9
  8
BOAT
 10
-3.8499038105676608
 20
4.4499038105676689
 30
3.6799999999999979
 11
-3.7200000000000002
 21
4.4499038105676689
 31
3.7549999999999981
 12
-3.8986648634762071
 22
4.881238947091461
 32
3.7549999999999981
 13
-3.990520728830576
 23
4.7893830817370926
 33
3.6799999999999979
  0
3DFACE
  5
8EA
  8
BOAT
 10
-3.8499038105676608
 20
4.4499038105676689
 30
3.5299999999999989
 11
-3.8499038105676608
 21
4.4499038105676689
 31
3.6799999999999979
 12
-3.990520728830576
 22
4.7893830817370926
 32
3.6799999999999979
 13
-3.990520728830576
 23
4.7893830817370926
 33
3.5299999999999989
  0
3DFACE
  5
8EB
  8
BOAT
 10
-3.806808998121832
 20
2.4867128086895041
 30
3.6800000000000002
 11
-3.806808998121832
 21
2.4867128086895041
 31
3.5300000000000011
 12
-3.5900961894323391
 22
3.0099038105676641
 32
3.5300000000000011
 13
-3.5900961894323391
 23
3.0099038105676641
 33
3.6800000000000002
  0
3DFACE
  5
8EC
  8
BOAT
 10
-3.8986648634762071
 20
2.578568674043872
 30
3.7550000000000021
 11
-3.806808998121832
 21
2.4867128086895041
 31
3.6800000000000002
 12
-3.5900961894323391
 22
3.0099038105676641
 32
3.6800000000000002
 13
-3.7200000000000002
 23
3.0099038105676641
 33
3.7550000000000021
  0
3DFACE
  5
8ED
  8
BOAT
 10
-3.9905207288305689
 20
2.67042453939824
 30
3.6800000000000002
 11
-3.8986648634762071
 21
2.578568674043872
 31
3.7550000000000021
 12
-3.7200000000000002
 22
3.0099038105676641
 32
3.7550000000000021
 13
-3.8499038105676622
 23
3.0099038105676641
 33
3.6800000000000002
  0
3DFACE
  5
8EE
  8
BOAT
 10
-3.9905207288305689
 20
2.67042453939824
 30
3.5300000000000011
 11
-3.9905207288305689
 21
2.67042453939824
 31
3.6800000000000002
 12
-3.8499038105676622
 22
3.0099038105676641
 32
3.6800000000000002
 13
-3.8499038105676622
 23
3.0099038105676641
 33
3.5300000000000011
  0
3DFACE
  5
8EF
  8
BOAT
 10
-4.3300000000000001
 20
2.2700000000000031
 30
3.6800000000000002
 11
-4.3300000000000001
 21
2.2700000000000031
 31
3.5300000000000011
 12
-3.806808998121832
 22
2.4867128086895041
 32
3.5300000000000011
 13
-3.806808998121832
 23
2.4867128086895041
 33
3.6800000000000002
  0
3DFACE
  5
8F0
  8
BOAT
 10
-4.3300000000000001
 20
2.3999038105676722
 30
3.7550000000000021
 11
-4.3300000000000001
 21
2.2700000000000031
 31
3.6800000000000002
 12
-3.806808998121832
 22
2.4867128086895041
 32
3.6800000000000002
 13
-3.8986648634762071
 23
2.578568674043872
 33
3.7550000000000021
  0
3DFACE
  5
8F1
  8
BOAT
 10
-4.3300000000000001
 20
2.5298076211353329
 30
3.6800000000000002
 11
-4.3300000000000001
 21
2.3999038105676722
 31
3.7550000000000021
 12
-3.8986648634762071
 22
2.578568674043872
 32
3.7550000000000021
 13
-3.9905207288305689
 23
2.67042453939824
 33
3.6800000000000002
  0
3DFACE
  5
8F2
  8
BOAT
 10
-4.3300000000000001
 20
2.5298076211353329
 30
3.5300000000000011
 11
-4.3300000000000001
 21
2.5298076211353329
 31
3.6800000000000002
 12
-3.9905207288305689
 22
2.67042453939824
 32
3.6800000000000002
 13
-3.9905207288305689
 23
2.67042453939824
 33
3.5300000000000011
  0
3DFACE
  5
8F3
  8
BOAT
 10
-4.8531910018781668
 20
2.4867128086895112
 30
3.6800000000000002
 11
-4.8531910018781668
 21
2.4867128086895112
 31
3.5300000000000011
 12
-4.3300000000000001
 22
2.2700000000000031
 32
3.5300000000000011
 13
-4.3300000000000001
 23
2.2700000000000031
 33
3.6800000000000002
  0
3DFACE
  5
8F4
  8
BOAT
 10
-4.7613351365237921
 20
2.5785686740438791
 30
3.7550000000000021
 11
-4.8531910018781668
 21
2.4867128086895112
 31
3.6800000000000002
 12
-4.3300000000000001
 22
2.2700000000000031
 32
3.6800000000000002
 13
-4.3300000000000001
 23
2.3999038105676722
 33
3.7550000000000021
  0
3DFACE
  5
8F5
  8
BOAT
 10
-4.66947927116943
 20
2.6704245393982471
 30
3.6800000000000002
 11
-4.7613351365237921
 21
2.5785686740438791
 31
3.7550000000000021
 12
-4.3300000000000001
 22
2.3999038105676722
 32
3.7550000000000021
 13
-4.3300000000000001
 23
2.5298076211353329
 33
3.6800000000000002
  0
3DFACE
  5
8F6
  8
BOAT
 10
-4.66947927116943
 20
2.6704245393982471
 30
3.5300000000000011
 11
-4.66947927116943
 21
2.6704245393982471
 31
3.6800000000000002
 12
-4.3300000000000001
 22
2.5298076211353329
 32
3.6800000000000002
 13
-4.3300000000000001
 23
2.5298076211353329
 33
3.5300000000000011
  0
3DFACE
  5
8F7
  8
BOAT
 10
-5.069903810567661
 20
3.0099038105676641
 30
3.6800000000000002
 11
-5.069903810567661
 21
3.0099038105676641
 31
3.5300000000000011
 12
-4.8531910018781668
 22
2.4867128086895112
 32
3.5300000000000011
 13
-4.8531910018781668
 23
2.4867128086895112
 33
3.6800000000000002
  0
3DFACE
  5
8F8
  8
BOAT
 10
-4.9399999999999986
 20
3.0099038105676641
 30
3.7550000000000021
 11
-5.069903810567661
 21
3.0099038105676641
 31
3.6800000000000002
 12
-4.8531910018781668
 22
2.4867128086895112
 32
3.6800000000000002
 13
-4.7613351365237921
 23
2.5785686740438791
 33
3.7550000000000021
  0
3DFACE
  5
8F9
  8
BOAT
 10
-4.8100961894323371
 20
3.0099038105676641
 30
3.6800000000000002
 11
-4.9399999999999986
 21
3.0099038105676641
 31
3.7550000000000021
 12
-4.7613351365237921
 22
2.5785686740438791
 32
3.7550000000000021
 13
-4.66947927116943
 23
2.6704245393982471
 33
3.6800000000000002
  0
3DFACE
  5
8FA
  8
BOAT
 10
-4.8100961894323371
 20
3.0099038105676641
 30
3.5300000000000011
 11
-4.8100961894323371
 21
3.0099038105676641
 31
3.6800000000000002
 12
-4.66947927116943
 22
2.6704245393982471
 32
3.6800000000000002
 13
-4.66947927116943
 23
2.6704245393982471
 33
3.5300000000000011
  0
3DFACE
  5
8FB
  8
BOAT
 10
-3.806808998121832
 20
2.4867128086895041
 30
3.5300000000000011
 11
-3.8986648634762071
 21
2.578568674043872
 31
3.4550000000000001
 12
-3.7200000000000002
 22
3.0099038105676641
 32
3.4550000000000001
 13
-3.5900961894323391
 23
3.0099038105676641
 33
3.5300000000000011
  0
3DFACE
  5
8FC
  8
BOAT
 10
-3.8986648634762071
 20
2.578568674043872
 30
3.4550000000000001
 11
-3.9905207288305689
 21
2.67042453939824
 31
3.5300000000000011
 12
-3.8499038105676622
 22
3.0099038105676641
 32
3.5300000000000011
 13
-3.7200000000000002
 23
3.0099038105676641
 33
3.4550000000000001
  0
3DFACE
  5
8FD
  8
BOAT
 10
-4.3300000000000001
 20
2.2700000000000031
 30
3.5300000000000011
 11
-4.3300000000000001
 21
2.3999038105676722
 31
3.4550000000000001
 12
-3.8986648634762071
 22
2.578568674043872
 32
3.4550000000000001
 13
-3.806808998121832
 23
2.4867128086895041
 33
3.5300000000000011
  0
3DFACE
  5
8FE
  8
BOAT
 10
-4.3300000000000001
 20
2.3999038105676722
 30
3.4550000000000001
 11
-4.3300000000000001
 21
2.5298076211353329
 31
3.5300000000000011
 12
-3.9905207288305689
 22
2.67042453939824
 32
3.5300000000000011
 13
-3.8986648634762071
 23
2.578568674043872
 33
3.4550000000000001
  0
3DFACE
  5
8FF
  8
BOAT
 10
-4.8531910018781668
 20
2.4867128086895112
 30
3.5300000000000011
 11
-4.7613351365237921
 21
2.5785686740438791
 31
3.4550000000000001
 12
-4.3300000000000001
 22
2.3999038105676722
 32
3.4550000000000001
 13
-4.3300000000000001
 23
2.2700000000000031
 33
3.5300000000000011
  0
3DFACE
  5
900
  8
BOAT
 10
-4.7613351365237921
 20
2.5785686740438791
 30
3.4550000000000001
 11
-4.66947927116943
 21
2.6704245393982471
 31
3.5300000000000011
 12
-4.3300000000000001
 22
2.5298076211353329
 32
3.5300000000000011
 13
-4.3300000000000001
 23
2.3999038105676722
 33
3.4550000000000001
  0
3DFACE
  5
901
  8
BOAT
 10
-5.069903810567661
 20
3.0099038105676641
 30
3.5300000000000011
 11
-4.9399999999999986
 21
3.0099038105676641
 31
3.4550000000000001
 12
-4.7613351365237921
 22
2.5785686740438791
 32
3.4550000000000001
 13
-4.8531910018781668
 23
2.4867128086895112
 33
3.5300000000000011
  0
3DFACE
  5
902
  8
BOAT
 10
-4.9399999999999986
 20
3.0099038105676641
 30
3.4550000000000001
 11
-4.8100961894323371
 21
3.0099038105676641
 31
3.5300000000000011
 12
-4.66947927116943
 22
2.6704245393982471
 32
3.5300000000000011
 13
-4.7613351365237921
 23
2.5785686740438791
 33
3.4550000000000001
  0
3DFACE
  5
903
  8
BOAT
 10
-5.0699038105676602
 20
4.4499038105676689
 30
3.6799999999999939
 11
-5.0699038105676602
 21
4.4499038105676689
 31
3.5299999999999958
 12
-5.069903810567661
 22
3.0099038105676641
 32
3.529999999999998
 13
-5.069903810567661
 23
3.0099038105676641
 33
3.6799999999999962
  0
3DFACE
  5
904
  8
BOAT
 10
-5.0699038105676602
 20
4.4499038105676689
 30
3.5299999999999958
 11
-4.9399999999999977
 21
4.4499038105676689
 31
3.454999999999993
 12
-4.9399999999999986
 22
3.0099038105676641
 32
3.4549999999999952
 13
-5.069903810567661
 23
3.0099038105676641
 33
3.529999999999998
  0
3DFACE
  5
905
  8
BOAT
 10
-4.9399999999999977
 20
4.4499038105676689
 30
3.7549999999999981
 11
-5.0699038105676602
 21
4.4499038105676689
 31
3.6799999999999939
 12
-5.069903810567661
 22
3.0099038105676641
 32
3.6799999999999962
 13
-4.9399999999999986
 23
3.0099038105676641
 33
3.7549999999999981
  0
3DFACE
  5
906
  8
BOAT
 10
-4.9399999999999977
 20
4.4499038105676689
 30
3.454999999999993
 11
-4.8100961894323371
 21
4.4499038105676689
 31
3.5299999999999958
 12
-4.8100961894323371
 22
3.0099038105676641
 32
3.529999999999998
 13
-4.9399999999999986
 23
3.0099038105676641
 33
3.4549999999999952
  0
3DFACE
  5
907
  8
BOAT
 10
-4.8100961894323371
 20
4.4499038105676689
 30
3.5299999999999958
 11
-4.8100961894323371
 21
4.4499038105676689
 31
3.6799999999999939
 12
-4.8100961894323371
 22
3.0099038105676641
 32
3.6799999999999962
 13
-4.8100961894323371
 23
3.0099038105676641
 33
3.529999999999998
  0
3DFACE
  5
908
  8
BOAT
 10
-4.8100961894323371
 20
4.4499038105676689
 30
3.6799999999999939
 11
-4.9399999999999977
 21
4.4499038105676689
 31
3.7549999999999981
 12
-4.9399999999999986
 22
3.0099038105676641
 32
3.7549999999999981
 13
-4.8100961894323371
 23
3.0099038105676641
 33
3.6799999999999962
  0
3DFACE
  5
909
  8
BOAT
 10
-3.5900961894323311
 20
4.449903810567668
 30
3.6799999999999939
 11
-3.7199999999999931
 21
4.4499038105676689
 31
3.7549999999999981
 12
-3.7199999999999931
 22
3.0099038105676641
 32
3.7549999999999981
 13
-3.5900961894323311
 23
3.0099038105676641
 33
3.6799999999999962
  0
3DFACE
  5
90A
  8
BOAT
 10
-3.5900961894323311
 20
4.449903810567668
 30
3.5299999999999958
 11
-3.5900961894323311
 21
4.449903810567668
 31
3.6799999999999939
 12
-3.5900961894323311
 22
3.0099038105676641
 32
3.6799999999999962
 13
-3.5900961894323311
 23
3.0099038105676641
 33
3.529999999999998
  0
3DFACE
  5
90B
  8
BOAT
 10
-3.7199999999999931
 20
4.4499038105676689
 30
3.454999999999993
 11
-3.5900961894323311
 21
4.449903810567668
 31
3.5299999999999958
 12
-3.5900961894323311
 22
3.0099038105676641
 32
3.529999999999998
 13
-3.7199999999999931
 23
3.0099038105676641
 33
3.4549999999999952
  0
3DFACE
  5
90C
  8
BOAT
 10
-3.7199999999999931
 20
4.4499038105676689
 30
3.7549999999999981
 11
-3.8499038105676608
 21
4.4499038105676689
 31
3.6799999999999939
 12
-3.8499038105676622
 22
3.0099038105676641
 32
3.6799999999999962
 13
-3.7199999999999931
 23
3.0099038105676641
 33
3.7549999999999981
  0
3DFACE
  5
90D
  8
BOAT
 10
-3.8499038105676608
 20
4.4499038105676689
 30
3.5299999999999958
 11
-3.7199999999999931
 21
4.4499038105676689
 31
3.454999999999993
 12
-3.7199999999999931
 22
3.0099038105676641
 32
3.4549999999999952
 13
-3.8499038105676622
 23
3.0099038105676641
 33
3.529999999999998
  0
3DFACE
  5
90E
  8
BOAT
 10
-3.8499038105676608
 20
4.4499038105676689
 30
3.6799999999999939
 11
-3.8499038105676608
 21
4.4499038105676689
 31
3.5299999999999958
 12
-3.8499038105676622
 22
3.0099038105676641
 32
3.529999999999998
 13
-3.8499038105676622
 23
3.0099038105676641
 33
3.6799999999999962
  0
3DFACE
  5
90F
  8
BOAT
 10
4.3300000000000001
 20
2.3999038105676709
 30
3.4550000000000001
 11
4.3300000000000001
 21
2.529807621135332
 31
3.5300000000000011
 12
4.66947927116943
 22
2.6704245393982391
 32
3.5300000000000011
 13
4.7613351365237921
 23
2.5785686740438711
 33
3.4550000000000001
  0
3DFACE
  5
910
  8
BOAT
 10
4.3300000000000001
 20
2.2700000000000018
 30
3.5300000000000011
 11
4.3300000000000001
 21
2.3999038105676709
 31
3.4550000000000001
 12
4.7613351365237921
 22
2.5785686740438711
 32
3.4550000000000001
 13
4.8531910018781668
 23
2.4867128086895032
 33
3.5300000000000011
  0
3DFACE
  5
911
  8
BOAT
 10
4.3300000000000001
 20
2.529807621135332
 30
3.5300000000000011
 11
4.3300000000000001
 21
2.529807621135332
 31
3.6800000000000002
 12
4.66947927116943
 22
2.6704245393982391
 32
3.6800000000000002
 13
4.66947927116943
 23
2.6704245393982391
 33
3.5300000000000011
  0
3DFACE
  5
912
  8
BOAT
 10
4.3300000000000001
 20
2.529807621135332
 30
3.6800000000000002
 11
4.3300000000000001
 21
2.3999038105676709
 31
3.7550000000000021
 12
4.7613351365237921
 22
2.5785686740438711
 32
3.7550000000000021
 13
4.66947927116943
 23
2.6704245393982391
 33
3.6800000000000002
  0
3DFACE
  5
913
  8
BOAT
 10
4.3300000000000001
 20
2.3999038105676709
 30
3.7550000000000021
 11
4.3300000000000001
 21
2.2700000000000018
 31
3.6800000000000002
 12
4.8531910018781668
 22
2.4867128086895032
 32
3.6800000000000002
 13
4.7613351365237921
 23
2.5785686740438711
 33
3.7550000000000021
  0
3DFACE
  5
914
  8
BOAT
 10
4.3300000000000001
 20
2.2700000000000018
 30
3.6800000000000002
 11
4.3300000000000001
 21
2.2700000000000018
 31
3.5300000000000011
 12
4.8531910018781668
 22
2.4867128086895032
 32
3.5300000000000011
 13
4.8531910018781668
 23
2.4867128086895032
 33
3.6800000000000002
  0
3DFACE
  5
915
  8
BOAT
 10
4.6694792711694237
 20
4.7893830817370908
 30
3.5299999999999989
 11
4.6694792711694237
 21
4.7893830817370908
 31
3.6799999999999979
 12
4.3300000000000001
 22
4.9299999999999979
 32
3.6799999999999979
 13
4.3300000000000001
 23
4.9299999999999979
 33
3.5299999999999989
  0
3DFACE
  5
916
  8
BOAT
 10
4.6694792711694237
 20
4.7893830817370908
 30
3.6799999999999979
 11
4.761335136523793
 21
4.8812389470914601
 31
3.7549999999999981
 12
4.3300000000000001
 22
5.0599038105676604
 32
3.7549999999999981
 13
4.3300000000000001
 23
4.9299999999999979
 33
3.6799999999999979
  0
3DFACE
  5
917
  8
BOAT
 10
4.761335136523793
 20
4.8812389470914601
 30
3.7549999999999981
 11
4.8531910018781677
 21
4.9730948124458276
 31
3.6799999999999979
 12
4.3300000000000001
 22
5.189807621135329
 32
3.6799999999999979
 13
4.3300000000000001
 23
5.0599038105676604
 33
3.7549999999999981
  0
3DFACE
  5
918
  8
BOAT
 10
4.8531910018781677
 20
4.9730948124458276
 30
3.6799999999999979
 11
4.8531910018781677
 21
4.9730948124458276
 31
3.5299999999999989
 12
4.3300000000000001
 22
5.189807621135329
 32
3.5299999999999989
 13
4.3300000000000001
 23
5.189807621135329
 33
3.6799999999999979
  0
3DFACE
  5
919
  8
BOAT
 10
4.761335136523793
 20
4.8812389470914601
 30
3.4549999999999979
 11
4.6694792711694237
 21
4.7893830817370908
 31
3.5299999999999989
 12
4.3300000000000001
 22
4.9299999999999979
 32
3.5299999999999989
 13
4.3300000000000001
 23
5.0599038105676604
 33
3.4549999999999979
  0
3DFACE
  5
91A
  8
BOAT
 10
4.8531910018781677
 20
4.9730948124458276
 30
3.5299999999999989
 11
4.761335136523793
 21
4.8812389470914601
 31
3.4549999999999979
 12
4.3300000000000001
 22
5.0599038105676604
 32
3.4549999999999979
 13
4.3300000000000001
 23
5.189807621135329
 33
3.5299999999999989
  0
3DFACE
  5
91B
  8
BOAT
 10
3.8499038105676622
 20
4.449903810567668
 30
3.5299999999999958
 11
3.8499038105676622
 21
3.0099038105676632
 31
3.5300000000000011
 12
4.8100961894323371
 22
3.0099038105676632
 32
3.5300000000000011
 13
4.810096189432338
 23
4.449903810567668
 33
3.5299999999999989
  0
3DFACE
  5
91C
  8
BOAT
 10
4.810096189432338
 20
4.449903810567668
 30
3.5299999999999989
 11
4.8100961894323371
 21
3.0099038105676632
 31
3.5300000000000011
 12
3.8499038105676622
 22
3.0099038105676632
 32
3.5300000000000011
 13
3.8499038105676622
 23
4.449903810567668
 33
3.5299999999999958
  0
3DFACE
  5
91D
  8
BOAT
 10
4.6694792711694237
 20
4.7893830817370908
 30
3.5299999999999989
 11
4.810096189432338
 21
4.449903810567668
 31
3.5299999999999989
 12
3.8499038105676622
 22
4.449903810567668
 32
3.5299999999999958
 13
3.9905207288305689
 23
4.7893830817370908
 33
3.5299999999999989
  0
3DFACE
  5
91E
  8
BOAT
 10
3.9905207288305689
 20
4.7893830817370908
 30
3.5299999999999989
 11
3.8499038105676622
 21
4.449903810567668
 31
3.5299999999999958
 12
4.810096189432338
 22
4.449903810567668
 32
3.5299999999999989
 13
4.6694792711694237
 23
4.7893830817370908
 33
3.5299999999999989
  0
3DFACE
  5
91F
  8
BOAT
 10
4.3300000000000001
 20
4.9299999999999979
 30
3.5299999999999989
 11
3.9905207288305689
 21
4.7893830817370908
 31
3.5299999999999989
 12
4.6694792711694237
 22
4.7893830817370908
 32
3.5299999999999989
 13
4.3300000000000001
 23
4.9299999999999979
 33
3.5299999999999989
  0
3DFACE
  5
920
  8
BOAT
 10
4.3300000000000001
 20
4.9299999999999979
 30
3.5299999999999989
 11
4.6694792711694237
 21
4.7893830817370908
 31
3.5299999999999989
 12
3.9905207288305689
 22
4.7893830817370908
 32
3.5299999999999989
 13
4.3300000000000001
 23
4.9299999999999979
 33
3.5299999999999989
  0
3DFACE
  5
921
  8
BOAT
 10
4.3300000000000001
 20
2.529807621135332
 30
3.5300000000000011
 11
3.9905207288305689
 21
2.6704245393982471
 31
3.5300000000000011
 12
4.66947927116943
 22
2.6704245393982391
 32
3.5300000000000011
 13
4.3300000000000001
 23
2.529807621135332
 33
3.5300000000000011
  0
3DFACE
  5
922
  8
BOAT
 10
4.3300000000000001
 20
2.529807621135332
 30
3.5300000000000011
 11
4.66947927116943
 21
2.6704245393982391
 31
3.5300000000000011
 12
3.9905207288305689
 22
2.6704245393982471
 32
3.5300000000000011
 13
4.3300000000000001
 23
2.529807621135332
 33
3.5300000000000011
  0
3DFACE
  5
923
  8
BOAT
 10
3.9905207288305689
 20
2.6704245393982471
 30
3.5300000000000011
 11
3.8499038105676622
 21
3.0099038105676632
 31
3.5300000000000011
 12
4.8100961894323371
 22
3.0099038105676632
 32
3.5300000000000011
 13
4.66947927116943
 23
2.6704245393982391
 33
3.5300000000000011
  0
3DFACE
  5
924
  8
BOAT
 10
4.66947927116943
 20
2.6704245393982391
 30
3.5300000000000011
 11
4.8100961894323371
 21
3.0099038105676632
 31
3.5300000000000011
 12
3.8499038105676622
 22
3.0099038105676632
 32
3.5300000000000011
 13
3.9905207288305689
 23
2.6704245393982471
 33
3.5300000000000011
  0
3DFACE
  5
925
  8
BOAT
 10
4.810096189432338
 20
4.449903810567668
 30
3.6799999999999939
 11
4.810096189432338
 21
4.449903810567668
 31
3.5299999999999958
 12
4.8100961894323371
 22
3.0099038105676632
 32
3.529999999999998
 13
4.8100961894323371
 23
3.0099038105676632
 33
3.6799999999999962
  0
3DFACE
  5
926
  8
BOAT
 10
4.810096189432338
 20
4.449903810567668
 30
3.5299999999999958
 11
4.9400000000000066
 21
4.449903810567668
 31
3.454999999999993
 12
4.9400000000000057
 22
3.0099038105676632
 32
3.4549999999999952
 13
4.8100961894323371
 23
3.0099038105676632
 33
3.529999999999998
  0
3DFACE
  5
927
  8
BOAT
 10
4.9400000000000066
 20
4.449903810567668
 30
3.7549999999999981
 11
4.810096189432338
 21
4.449903810567668
 31
3.6799999999999939
 12
4.8100961894323371
 22
3.0099038105676632
 32
3.6799999999999962
 13
4.9400000000000057
 23
3.0099038105676632
 33
3.7549999999999981
  0
3DFACE
  5
928
  8
BOAT
 10
4.9400000000000066
 20
4.449903810567668
 30
3.454999999999993
 11
5.069903810567669
 21
4.449903810567668
 31
3.5299999999999958
 12
5.0699038105676681
 22
3.0099038105676632
 32
3.529999999999998
 13
4.9400000000000057
 23
3.0099038105676632
 33
3.4549999999999952
  0
3DFACE
  5
929
  8
BOAT
 10
5.069903810567669
 20
4.449903810567668
 30
3.5299999999999958
 11
5.069903810567669
 21
4.449903810567668
 31
3.6799999999999939
 12
5.0699038105676681
 22
3.0099038105676632
 32
3.6799999999999962
 13
5.0699038105676681
 23
3.0099038105676632
 33
3.529999999999998
  0
3DFACE
  5
92A
  8
BOAT
 10
5.069903810567669
 20
4.449903810567668
 30
3.6799999999999939
 11
4.9400000000000066
 21
4.449903810567668
 31
3.7549999999999981
 12
4.9400000000000057
 22
3.0099038105676632
 32
3.7549999999999981
 13
5.0699038105676681
 23
3.0099038105676632
 33
3.6799999999999962
  0
3DFACE
  5
92B
  8
BOAT
 10
4.7613351365237921
 20
2.5785686740438711
 30
3.4550000000000001
 11
4.66947927116943
 21
2.6704245393982391
 31
3.5300000000000011
 12
4.8100961894323371
 22
3.0099038105676632
 32
3.5300000000000011
 13
4.9399999999999986
 23
3.0099038105676632
 33
3.4550000000000001
  0
3DFACE
  5
92C
  8
BOAT
 10
4.8531910018781668
 20
2.4867128086895032
 30
3.5300000000000011
 11
4.7613351365237921
 21
2.5785686740438711
 31
3.4550000000000001
 12
4.9399999999999986
 22
3.0099038105676632
 32
3.4550000000000001
 13
5.069903810567661
 23
3.0099038105676632
 33
3.5300000000000011
  0
3DFACE
  5
92D
  8
BOAT
 10
4.66947927116943
 20
2.6704245393982391
 30
3.5300000000000011
 11
4.66947927116943
 21
2.6704245393982391
 31
3.6800000000000002
 12
4.8100961894323371
 22
3.0099038105676632
 32
3.6800000000000002
 13
4.8100961894323371
 23
3.0099038105676632
 33
3.5300000000000011
  0
3DFACE
  5
92E
  8
BOAT
 10
4.66947927116943
 20
2.6704245393982391
 30
3.6800000000000002
 11
4.7613351365237921
 21
2.5785686740438711
 31
3.7550000000000021
 12
4.9399999999999986
 22
3.0099038105676632
 32
3.7550000000000021
 13
4.8100961894323371
 23
3.0099038105676632
 33
3.6800000000000002
  0
3DFACE
  5
92F
  8
BOAT
 10
4.7613351365237921
 20
2.5785686740438711
 30
3.7550000000000021
 11
4.8531910018781668
 21
2.4867128086895032
 31
3.6800000000000002
 12
5.069903810567661
 22
3.0099038105676632
 32
3.6800000000000002
 13
4.9399999999999986
 23
3.0099038105676632
 33
3.7550000000000021
  0
3DFACE
  5
930
  8
BOAT
 10
4.8531910018781668
 20
2.4867128086895032
 30
3.6800000000000002
 11
4.8531910018781668
 21
2.4867128086895032
 31
3.5300000000000011
 12
5.069903810567661
 22
3.0099038105676632
 32
3.5300000000000011
 13
5.069903810567661
 23
3.0099038105676632
 33
3.6800000000000002
  0
3DFACE
  5
931
  8
BOAT
 10
4.810096189432338
 20
4.449903810567668
 30
3.5299999999999989
 11
4.810096189432338
 21
4.449903810567668
 31
3.6799999999999979
 12
4.6694792711694237
 22
4.7893830817370908
 32
3.6799999999999979
 13
4.6694792711694237
 23
4.7893830817370908
 33
3.5299999999999989
  0
3DFACE
  5
932
  8
BOAT
 10
4.810096189432338
 20
4.449903810567668
 30
3.6799999999999979
 11
4.9400000000000004
 21
4.449903810567668
 31
3.7549999999999981
 12
4.761335136523793
 22
4.8812389470914601
 32
3.7549999999999981
 13
4.6694792711694237
 23
4.7893830817370908
 33
3.6799999999999979
  0
3DFACE
  5
933
  8
BOAT
 10
4.9400000000000004
 20
4.449903810567668
 30
3.7549999999999981
 11
5.069903810567661
 21
4.449903810567668
 31
3.6799999999999979
 12
4.8531910018781677
 22
4.9730948124458276
 32
3.6799999999999979
 13
4.761335136523793
 23
4.8812389470914601
 33
3.7549999999999981
  0
3DFACE
  5
934
  8
BOAT
 10
5.069903810567661
 20
4.449903810567668
 30
3.6799999999999979
 11
5.069903810567661
 21
4.449903810567668
 31
3.5299999999999989
 12
4.8531910018781677
 22
4.9730948124458276
 32
3.5299999999999989
 13
4.8531910018781677
 23
4.9730948124458276
 33
3.6799999999999979
  0
3DFACE
  5
935
  8
BOAT
 10
4.9400000000000004
 20
4.449903810567668
 30
3.4549999999999979
 11
4.810096189432338
 21
4.449903810567668
 31
3.5299999999999989
 12
4.6694792711694237
 22
4.7893830817370908
 32
3.5299999999999989
 13
4.761335136523793
 23
4.8812389470914601
 33
3.4549999999999979
  0
3DFACE
  5
936
  8
BOAT
 10
5.069903810567661
 20
4.449903810567668
 30
3.5299999999999989
 11
4.9400000000000004
 21
4.449903810567668
 31
3.4549999999999979
 12
4.761335136523793
 22
4.8812389470914601
 32
3.4549999999999979
 13
4.8531910018781677
 23
4.9730948124458276
 33
3.5299999999999989
  0
3DFACE
  5
937
  8
BOAT
 10
3.8499038105676622
 20
4.449903810567668
 30
3.6799999999999939
 11
3.7200000000000011
 21
4.449903810567668
 31
3.7549999999999981
 12
3.7200000000000011
 22
3.0099038105676632
 32
3.7549999999999981
 13
3.8499038105676622
 23
3.0099038105676632
 33
3.6799999999999962
  0
3DFACE
  5
938
  8
BOAT
 10
3.8499038105676622
 20
4.449903810567668
 30
3.5299999999999958
 11
3.8499038105676622
 21
4.449903810567668
 31
3.6799999999999939
 12
3.8499038105676622
 22
3.0099038105676632
 32
3.6799999999999962
 13
3.8499038105676622
 23
3.0099038105676632
 33
3.529999999999998
  0
3DFACE
  5
939
  8
BOAT
 10
3.7200000000000011
 20
4.449903810567668
 30
3.454999999999993
 11
3.8499038105676622
 21
4.449903810567668
 31
3.5299999999999958
 12
3.8499038105676622
 22
3.0099038105676632
 32
3.529999999999998
 13
3.7200000000000011
 23
3.0099038105676632
 33
3.4549999999999952
  0
3DFACE
  5
93A
  8
BOAT
 10
3.7200000000000011
 20
4.449903810567668
 30
3.7549999999999981
 11
3.5900961894323391
 21
4.449903810567668
 31
3.6799999999999939
 12
3.5900961894323391
 22
3.0099038105676632
 32
3.6799999999999962
 13
3.7200000000000011
 23
3.0099038105676632
 33
3.7549999999999981
  0
3DFACE
  5
93B
  8
BOAT
 10
3.5900961894323391
 20
4.449903810567668
 30
3.5299999999999958
 11
3.7200000000000011
 21
4.449903810567668
 31
3.454999999999993
 12
3.7200000000000011
 22
3.0099038105676632
 32
3.4549999999999952
 13
3.5900961894323391
 23
3.0099038105676632
 33
3.529999999999998
  0
3DFACE
  5
93C
  8
BOAT
 10
3.5900961894323391
 20
4.449903810567668
 30
3.6799999999999939
 11
3.5900961894323391
 21
4.449903810567668
 31
3.5299999999999958
 12
3.5900961894323391
 22
3.0099038105676632
 32
3.529999999999998
 13
3.5900961894323391
 23
3.0099038105676632
 33
3.6799999999999962
  0
3DFACE
  5
93D
  8
BOAT
 10
3.7200000000000011
 20
3.0099038105676632
 30
3.4550000000000001
 11
3.8499038105676622
 21
3.0099038105676632
 31
3.5300000000000011
 12
3.9905207288305689
 22
2.6704245393982471
 32
3.5300000000000011
 13
3.898664863476208
 23
2.5785686740438778
 33
3.4550000000000001
  0
3DFACE
  5
93E
  8
BOAT
 10
3.5900961894323391
 20
3.0099038105676632
 30
3.5300000000000011
 11
3.7200000000000011
 21
3.0099038105676632
 31
3.4550000000000001
 12
3.898664863476208
 22
2.5785686740438778
 32
3.4550000000000001
 13
3.806808998121832
 23
2.4867128086895098
 33
3.5300000000000011
  0
3DFACE
  5
93F
  8
BOAT
 10
3.898664863476208
 20
2.5785686740438778
 30
3.4550000000000001
 11
3.9905207288305689
 21
2.6704245393982471
 31
3.5300000000000011
 12
4.3300000000000001
 22
2.529807621135332
 32
3.5300000000000011
 13
4.3300000000000001
 23
2.3999038105676709
 33
3.4550000000000001
  0
3DFACE
  5
940
  8
BOAT
 10
3.806808998121832
 20
2.4867128086895098
 30
3.5300000000000011
 11
3.898664863476208
 21
2.5785686740438778
 31
3.4550000000000001
 12
4.3300000000000001
 22
2.3999038105676709
 32
3.4550000000000001
 13
4.3300000000000001
 23
2.2700000000000018
 33
3.5300000000000011
  0
3DFACE
  5
941
  8
BOAT
 10
3.8499038105676622
 20
3.0099038105676632
 30
3.5300000000000011
 11
3.8499038105676622
 21
3.0099038105676632
 31
3.6800000000000002
 12
3.9905207288305689
 22
2.6704245393982471
 32
3.6800000000000002
 13
3.9905207288305689
 23
2.6704245393982471
 33
3.5300000000000011
  0
3DFACE
  5
942
  8
BOAT
 10
3.8499038105676622
 20
3.0099038105676632
 30
3.6800000000000002
 11
3.7200000000000011
 21
3.0099038105676632
 31
3.7550000000000021
 12
3.898664863476208
 22
2.5785686740438778
 32
3.7550000000000021
 13
3.9905207288305689
 23
2.6704245393982471
 33
3.6800000000000002
  0
3DFACE
  5
943
  8
BOAT
 10
3.7200000000000011
 20
3.0099038105676632
 30
3.7550000000000021
 11
3.5900961894323391
 21
3.0099038105676632
 31
3.6800000000000002
 12
3.806808998121832
 22
2.4867128086895098
 32
3.6800000000000002
 13
3.898664863476208
 23
2.5785686740438778
 33
3.7550000000000021
  0
3DFACE
  5
944
  8
BOAT
 10
3.5900961894323391
 20
3.0099038105676632
 30
3.6800000000000002
 11
3.5900961894323391
 21
3.0099038105676632
 31
3.5300000000000011
 12
3.806808998121832
 22
2.4867128086895098
 32
3.5300000000000011
 13
3.806808998121832
 23
2.4867128086895098
 33
3.6800000000000002
  0
3DFACE
  5
945
  8
BOAT
 10
3.9905207288305689
 20
2.6704245393982471
 30
3.5300000000000011
 11
3.9905207288305689
 21
2.6704245393982471
 31
3.6800000000000002
 12
4.3300000000000001
 22
2.529807621135332
 32
3.6800000000000002
 13
4.3300000000000001
 23
2.529807621135332
 33
3.5300000000000011
  0
3DFACE
  5
946
  8
BOAT
 10
3.9905207288305689
 20
2.6704245393982471
 30
3.6800000000000002
 11
3.898664863476208
 21
2.5785686740438778
 31
3.7550000000000021
 12
4.3300000000000001
 22
2.3999038105676709
 32
3.7550000000000021
 13
4.3300000000000001
 23
2.529807621135332
 33
3.6800000000000002
  0
3DFACE
  5
947
  8
BOAT
 10
3.898664863476208
 20
2.5785686740438778
 30
3.7550000000000021
 11
3.806808998121832
 21
2.4867128086895098
 31
3.6800000000000002
 12
4.3300000000000001
 22
2.2700000000000018
 32
3.6800000000000002
 13
4.3300000000000001
 23
2.3999038105676709
 33
3.7550000000000021
  0
3DFACE
  5
948
  8
BOAT
 10
3.806808998121832
 20
2.4867128086895098
 30
3.6800000000000002
 11
3.806808998121832
 21
2.4867128086895098
 31
3.5300000000000011
 12
4.3300000000000001
 22
2.2700000000000018
 32
3.5300000000000011
 13
4.3300000000000001
 23
2.2700000000000018
 33
3.6800000000000002
  0
3DFACE
  5
949
  8
BOAT
 10
4.3300000000000001
 20
4.9299999999999979
 30
3.5299999999999989
 11
4.3300000000000001
 21
4.9299999999999979
 31
3.6799999999999979
 12
3.9905207288305689
 22
4.7893830817370908
 32
3.6799999999999979
 13
3.9905207288305689
 23
4.7893830817370908
 33
3.5299999999999989
  0
3DFACE
  5
94A
  8
BOAT
 10
4.3300000000000001
 20
4.9299999999999979
 30
3.6799999999999979
 11
4.3300000000000001
 21
5.0599038105676604
 31
3.7549999999999981
 12
3.898664863476208
 22
4.8812389470914601
 32
3.7549999999999981
 13
3.9905207288305689
 23
4.7893830817370908
 33
3.6799999999999979
  0
3DFACE
  5
94B
  8
BOAT
 10
4.3300000000000001
 20
5.0599038105676604
 30
3.7549999999999981
 11
4.3300000000000001
 21
5.189807621135329
 31
3.6799999999999979
 12
3.806808998121832
 22
4.9730948124458276
 32
3.6799999999999979
 13
3.898664863476208
 23
4.8812389470914601
 33
3.7549999999999981
  0
3DFACE
  5
94C
  8
BOAT
 10
4.3300000000000001
 20
5.189807621135329
 30
3.6799999999999979
 11
4.3300000000000001
 21
5.189807621135329
 31
3.5299999999999989
 12
3.806808998121832
 22
4.9730948124458276
 32
3.5299999999999989
 13
3.806808998121832
 23
4.9730948124458276
 33
3.6799999999999979
  0
3DFACE
  5
94D
  8
BOAT
 10
3.9905207288305689
 20
4.7893830817370908
 30
3.5299999999999989
 11
3.9905207288305689
 21
4.7893830817370908
 31
3.6799999999999979
 12
3.8499038105676622
 22
4.44990381056766
 32
3.6799999999999979
 13
3.8499038105676622
 23
4.44990381056766
 33
3.5299999999999989
  0
3DFACE
  5
94E
  8
BOAT
 10
3.9905207288305689
 20
4.7893830817370908
 30
3.6799999999999979
 11
3.898664863476208
 21
4.8812389470914601
 31
3.7549999999999981
 12
3.7200000000000011
 22
4.44990381056766
 32
3.7549999999999981
 13
3.8499038105676622
 23
4.44990381056766
 33
3.6799999999999979
  0
3DFACE
  5
94F
  8
BOAT
 10
3.898664863476208
 20
4.8812389470914601
 30
3.7549999999999981
 11
3.806808998121832
 21
4.9730948124458276
 31
3.6799999999999979
 12
3.5900961894323391
 22
4.4499038105676609
 32
3.6799999999999979
 13
3.7200000000000011
 23
4.44990381056766
 33
3.7549999999999981
  0
3DFACE
  5
950
  8
BOAT
 10
3.806808998121832
 20
4.9730948124458276
 30
3.6799999999999979
 11
3.806808998121832
 21
4.9730948124458276
 31
3.5299999999999989
 12
3.5900961894323391
 22
4.4499038105676609
 32
3.5299999999999989
 13
3.5900961894323391
 23
4.4499038105676609
 33
3.6799999999999979
  0
3DFACE
  5
951
  8
BOAT
 10
4.3300000000000001
 20
5.0599038105676604
 30
3.4549999999999979
 11
4.3300000000000001
 21
4.9299999999999979
 31
3.5299999999999989
 12
3.9905207288305689
 22
4.7893830817370908
 32
3.5299999999999989
 13
3.898664863476208
 23
4.8812389470914601
 33
3.4549999999999979
  0
3DFACE
  5
952
  8
BOAT
 10
4.3300000000000001
 20
5.189807621135329
 30
3.5299999999999989
 11
4.3300000000000001
 21
5.0599038105676604
 31
3.4549999999999979
 12
3.898664863476208
 22
4.8812389470914601
 32
3.4549999999999979
 13
3.806808998121832
 23
4.9730948124458276
 33
3.5299999999999989
  0
3DFACE
  5
953
  8
BOAT
 10
3.898664863476208
 20
4.8812389470914601
 30
3.4549999999999979
 11
3.9905207288305689
 21
4.7893830817370908
 31
3.5299999999999989
 12
3.8499038105676622
 22
4.44990381056766
 32
3.5299999999999989
 13
3.7200000000000011
 23
4.44990381056766
 33
3.4549999999999979
  0
3DFACE
  5
954
  8
BOAT
 10
3.806808998121832
 20
4.9730948124458276
 30
3.5299999999999989
 11
3.898664863476208
 21
4.8812389470914601
 31
3.4549999999999979
 12
3.7200000000000011
 22
4.44990381056766
 32
3.4549999999999979
 13
3.5900961894323391
 23
4.4499038105676609
 33
3.5299999999999989
  0
VIEWPORT
  5
2E
 67
     1
  8
0
 10
144.7270812988281
 20
101.2295806407928
 30
0.0
 40
391.13550988316581
 41
222.15178063964839
 68
     2
 69
     1
1001
ACAD
1000
MVIEW
1002
{
1070
    16
1010
0.0
1020
0.0
1030
0.0
1010
0.0
1020
0.0
1030
1.0
1040
0.0
1040
222.15178063964839
1040
144.7270812988281
1040
101.2295806407928
1040
50.0
1040
0.0
1040
0.0
1070
     0
1070
   100
1070
     1
1070
     1
1070
     0
1070
     0
1070
     0
1070
     0
1040
0.0
1040
0.0
1040
0.0
1040
10.0
1040
10.0
1040
10.0
1040
10.0
1070
     0
1002
{
1002
}
1002
}
  0
VIEWPORT
  5
30
 67
     1
  8
0
 10
139.22375631332389
 20
100.8062499761581
 30
0.0
 40
222.75801010131829
 41
161.289999961853
 68
     1
 69
     2
1001
ACAD
1000
MVIEW
1002
{
1070
    16
1010
0.0
1020
0.0
1030
0.0
1010
0.0
1020
0.0
1030
1.0
1040
0.0
1040
307.49010134148989
1040
210.0
1040
148.5
1040
50.0
1040
0.0
1040
0.0
1070
     0
1070
   100
1070
     1
1070
     3
1070
     0
1070
     1
1070
     0
1070
     0
1040
0.0
1040
0.0
1040
0.0
1040
10.0
1040
10.0
1040
10.0
1040
10.0
1070
     0
1002
{
1002
}
1002
}
  0
ENDSEC
  0
EOF
