  0
SECTION
  2
HEADER
  9
$ACADVER
  1
AC1009
  9
$INSBASE
 10
0.0
 20
0.0
 30
0.0
  9
$EXTMIN
 10
-1.2199999999999991
 20
-7.6799999999999988
 30
-3.0
  9
$EXTMAX
 10
1.2199999999999991
 20
11.57
 30
5.173847898535695
  9
$LIMMIN
 10
0.0
 20
0.0
  9
$LIMMAX
 10
420.0
 20
297.0
  9
$ORTHOMODE
 70
     1
  9
$REGENMODE
 70
     1
  9
$FILLMODE
 70
     1
  9
$QTEXTMODE
 70
     0
  9
$MIRRTEXT
 70
     1
  9
$DRAGMODE
 70
     2
  9
$LTSCALE
 40
1.0
  9
$OSMODE
 70
    35
  9
$ATTMODE
 70
     1
  9
$TEXTSIZE
 40
2.5
  9
$TRACEWID
 40
1.0
  9
$TEXTSTYLE
  7
STANDARD
  9
$CLAYER
  8
0
  9
$CELTYPE
  6
BYLAYER
  9
$CECOLOR
 62
   256
  9
$DIMSCALE
 40
1.0
  9
$DIMASZ
 40
2.5
  9
$DIMEXO
 40
0.625
  9
$DIMDLI
 40
3.75
  9
$DIMRND
 40
0.0
  9
$DIMDLE
 40
0.0
  9
$DIMEXE
 40
1.25
  9
$DIMTP
 40
0.0
  9
$DIMTM
 40
0.0
  9
$DIMTXT
 40
2.5
  9
$DIMCEN
 40
2.5
  9
$DIMTSZ
 40
0.0
  9
$DIMTOL
 70
     0
  9
$DIMLIM
 70
     0
  9
$DIMTIH
 70
     0
  9
$DIMTOH
 70
     0
  9
$DIMSE1
 70
     0
  9
$DIMSE2
 70
     0
  9
$DIMTAD
 70
     1
  9
$DIMZIN
 70
     8
  9
$DIMBLK
  1

  9
$DIMASO
 70
     1
  9
$DIMSHO
 70
     1
  9
$DIMPOST
  1

  9
$DIMAPOST
  1

  9
$DIMALT
 70
     0
  9
$DIMALTD
 70
     3
  9
$DIMALTF
 40
0.03937007874016
  9
$DIMLFAC
 40
1.0
  9
$DIMTOFL
 70
     1
  9
$DIMTVP
 40
0.0
  9
$DIMTIX
 70
     0
  9
$DIMSOXD
 70
     0
  9
$DIMSAH
 70
     0
  9
$DIMBLK1
  1

  9
$DIMBLK2
  1

  9
$DIMSTYLE
  2
ISO-25
  9
$DIMCLRD
 70
     0
  9
$DIMCLRE
 70
     0
  9
$DIMCLRT
 70
     0
  9
$DIMTFAC
 40
1.0
  9
$DIMGAP
 40
0.625
  9
$LUNITS
 70
     2
  9
$LUPREC
 70
     4
  9
$SKETCHINC
 40
1.0
  9
$FILLETRAD
 40
10.0
  9
$AUNITS
 70
     0
  9
$AUPREC
 70
     0
  9
$MENU
  1
.
  9
$ELEVATION
 40
0.0
  9
$PELEVATION
 40
0.0
  9
$THICKNESS
 40
0.0
  9
$LIMCHECK
 70
     0
  9
$BLIPMODE
 70
     0
  9
$CHAMFERA
 40
10.0
  9
$CHAMFERB
 40
10.0
  9
$SKPOLY
 70
     0
  9
$TDCREATE
 40
2457189.031695242
  9
$TDUPDATE
 40
2457194.7105732979
  9
$TDINDWG
 40
0.2617568171
  9
$TDUSRTIMER
 40
0.2617568171
  9
$USRTIMER
 70
     1
  9
$ANGBASE
 50
0.0
  9
$ANGDIR
 70
     0
  9
$PDMODE
 70
     0
  9
$PDSIZE
 40
0.0
  9
$PLINEWID
 40
0.0
  9
$COORDS
 70
     1
  9
$SPLFRAME
 70
     0
  9
$SPLINETYPE
 70
     6
  9
$SPLINESEGS
 70
     8
  9
$ATTDIA
 70
     1
  9
$ATTREQ
 70
     1
  9
$HANDLING
 70
-16383
  9
$HANDSEED
  5
EA3
  9
$SURFTAB1
 70
     6
  9
$SURFTAB2
 70
     6
  9
$SURFTYPE
 70
     6
  9
$SURFU
 70
     6
  9
$SURFV
 70
     6
  9
$UCSNAME
  2

  9
$UCSORG
 10
0.0
 20
0.0
 30
0.0
  9
$UCSXDIR
 10
0.0
 20
-1.0
 30
0.0
  9
$UCSYDIR
 10
0.0
 20
0.0
 30
1.0
  9
$PUCSNAME
  2

  9
$PUCSORG
 10
0.0
 20
0.0
 30
0.0
  9
$PUCSXDIR
 10
1.0
 20
0.0
 30
0.0
  9
$PUCSYDIR
 10
0.0
 20
1.0
 30
0.0
  9
$USERI1
 70
     0
  9
$USERI2
 70
     0
  9
$USERI3
 70
     0
  9
$USERI4
 70
     0
  9
$USERI5
 70
     0
  9
$USERR1
 40
0.0
  9
$USERR2
 40
0.0
  9
$USERR3
 40
0.0
  9
$USERR4
 40
0.0
  9
$USERR5
 40
0.0
  9
$WORLDVIEW
 70
     1
  9
$SHADEDGE
 70
     3
  9
$SHADEDIF
 70
    70
  9
$TILEMODE
 70
     1
  9
$MAXACTVP
 70
    64
  9
$PLIMCHECK
 70
     0
  9
$PEXTMIN
 10
27.844751262664801
 20
20.161249995231621
 30
0.0
  9
$PEXTMAX
 10
250.60276136398309
 20
181.4512499570846
 30
0.0
  9
$PLIMMIN
 10
-3.757080078125
 20
-3.7570831775665279
  9
$PLIMMAX
 10
293.21124267578119
 20
206.21624445915219
  9
$UNITMODE
 70
     0
  9
$VISRETAIN
 70
     1
  9
$PLINEGEN
 70
     0
  9
$PSLTSCALE
 70
     1
  0
ENDSEC
  0
SECTION
  2
TABLES
  0
TABLE
  2
VPORT
 70
    23
  0
VPORT
  2
*ACTIVE
 70
     0
 10
0.0
 20
0.0
 11
1.0
 21
1.0
 12
4.906072074244455
 22
0.9109892438447655
 13
0.0
 23
0.0
 14
0.01
 24
0.01
 15
1.0
 25
1.0
 16
-1.0
 26
0.0
 36
0.0
 17
0.0
 27
0.0
 37
0.0
 40
19.044006122534931
 41
2.2487980769230771
 42
50.0
 43
0.0
 44
0.0
 50
0.0
 51
0.0
 71
     0
 72
   100
 73
     1
 74
     3
 75
     1
 76
     1
 77
     0
 78
     0
  0
ENDTAB
  0
TABLE
  2
LTYPE
 70
     1
  0
LTYPE
  2
CONTINUOUS
 70
     0
  3
Solid line
 72
    65
 73
     0
 40
0.0
  0
ENDTAB
  0
TABLE
  2
LAYER
 70
    15
  0
LAYER
  2
0
 70
     0
 62
     7
  6
CONTINUOUS
  0
LAYER
  2
REFERENCES
 70
     0
 62
     9
  6
CONTINUOUS
  0
LAYER
  2
WHEELS
 70
     0
 62
     2
  6
CONTINUOUS
  0
LAYER
  2
SUPPORT1
 70
     0
 62
     6
  6
CONTINUOUS
  0
LAYER
  2
SUPPORT2
 70
     0
 62
     3
  6
CONTINUOUS
  0
LAYER
  2
PAD
 70
     0
 62
     2
  6
CONTINUOUS
  0
LAYER
  2
TRAIL1
 70
     0
 62
     6
  6
CONTINUOUS
  0
LAYER
  2
SPADE
 70
     0
 62
     4
  6
CONTINUOUS
  0
LAYER
  2
TOWING_RING
 70
     0
 62
     1
  6
CONTINUOUS
  0
LAYER
  2
TURRET
 70
     0
 62
     2
  6
CONTINUOUS
  0
LAYER
  2
SLEEVE
 70
     0
 62
     5
  6
CONTINUOUS
  0
LAYER
  2
GUN
 70
     0
 62
     1
  6
CONTINUOUS
  0
LAYER
  2
CYLYNDER1
 70
     0
 62
     1
  6
CONTINUOUS
  0
LAYER
  2
CYLYNDER2
 70
     0
 62
     3
  6
CONTINUOUS
  0
ENDTAB
  0
TABLE
  2
STYLE
 70
     1
  0
STYLE
  2
STANDARD
 70
     0
 40
0.0
 41
1.0
 50
0.0
 71
     0
 42
2.5
  3
txt
  4

  0
ENDTAB
  0
TABLE
  2
VIEW
 70
     0
  0
ENDTAB
  0
TABLE
  2
UCS
 70
     0
  0
ENDTAB
  0
TABLE
  2
APPID
 70
     1
  0
APPID
  2
ACAD
 70
     0
  0
ENDTAB
  0
TABLE
  2
DIMSTYLE
 70
     1
  0
DIMSTYLE
  2
ISO-25
 70
     0
  3

  4

  5

  6

  7

 40
1.0
 41
2.5
 42
0.625
 43
3.75
 44
1.25
 45
0.0
 46
0.0
 47
0.0
 48
0.0
140
2.5
141
2.5
142
0.0
143
0.03937007874016
144
1.0
145
0.0
146
1.0
147
0.625
 71
     0
 72
     0
 73
     0
 74
     0
 75
     0
 76
     0
 77
     1
 78
     8
170
     0
171
     3
172
     1
173
     0
174
     0
175
     0
176
     0
177
     0
178
     0
  0
ENDTAB
  0
ENDSEC
  0
SECTION
  2
BLOCKS
  0
BLOCK
  8
0
  2
$MODEL_SPACE
 70
     0
 10
0.0
 20
0.0
 30
0.0
  3
$MODEL_SPACE
  1

  0
ENDBLK
  5
21
  8
0
  0
BLOCK
 67
     1
  8
0
  2
$PAPER_SPACE
 70
     0
 10
0.0
 20
0.0
 30
0.0
  3
$PAPER_SPACE
  1

  0
ENDBLK
  5
1D
 67
     1
  8
0
  0
ENDSEC
  0
SECTION
  2
ENTITIES
  0
3DFACE
  5
310
  8
0
 10
-0.4
 20
0.24
 30
0.38
 11
-0.4
 21
0.07
 31
0.38
 12
-0.4
 22
0.0700000000000001
 32
0.5600000000000002
 13
-0.4
 23
0.24
 33
0.5600000000000002
  0
3DFACE
  5
311
  8
0
 10
-0.4
 20
-0.19
 30
0.7900000000000002
 11
-0.4
 21
-0.19
 31
0.38
 12
0.4
 22
-0.19
 32
0.38
 13
0.4
 23
-0.19
 33
0.7900000000000002
  0
3DFACE
  5
312
  8
0
 10
0.4
 20
0.0700000000000001
 30
0.5600000000000001
 11
0.4
 21
0.07
 31
0.38
 12
0.4
 22
0.24
 32
0.38
 13
0.4
 23
0.24
 33
0.5600000000000001
  0
3DFACE
  5
313
  8
0
 10
0.14
 20
0.24
 30
0.4700000000000001
 11
0.4
 21
0.24
 31
0.38
 12
-0.4
 22
0.24
 32
0.38
 13
-0.14
 23
0.24
 33
0.4700000000000001
  0
3DFACE
  5
314
  8
0
 10
0.4
 20
0.24
 30
0.38
 11
0.4
 21
-0.19
 31
0.38
 12
-0.4
 22
-0.19
 32
0.38
 13
-0.4
 23
0.24
 33
0.38
  0
3DFACE
  5
315
  8
0
 10
-0.4
 20
0.24
 30
0.7900000000000002
 11
-0.4
 21
-0.19
 31
0.7900000000000002
 12
0.4
 22
-0.19
 32
0.7900000000000002
 13
0.4
 23
0.24
 33
0.7900000000000002
  0
3DFACE
  5
31F
  8
0
 10
0.6200000000000001
 20
0.07
 30
0.76
 11
0.6200000000000001
 21
0.07
 31
0.38
 12
0.4
 22
0.07
 32
0.38
 13
0.4
 23
0.07
 33
0.76
  0
3DFACE
  5
320
  8
0
 10
0.6200000000000001
 20
0.07
 30
0.38
 11
0.6200000000000001
 21
-0.19
 31
0.38
 12
0.4
 22
-0.19
 32
0.38
 13
0.4
 23
0.07
 33
0.38
  0
3DFACE
  5
321
  8
0
 10
0.4
 20
0.07
 30
0.76
 11
0.4
 21
-0.19
 31
0.76
 12
0.6200000000000001
 22
-0.19
 32
0.76
 13
0.6200000000000001
 23
0.07
 33
0.76
  0
3DFACE
  5
322
  8
0
 10
0.4
 20
-0.19
 30
0.76
 11
0.4
 21
-0.19
 31
0.38
 12
0.6200000000000001
 22
-0.19
 32
0.38
 13
0.6200000000000001
 23
-0.19
 33
0.76
  0
3DFACE
  5
32A
  8
0
 10
0.6200000000000001
 20
-0.19
 30
0.76
 11
0.6200000000000001
 21
-0.19
 31
0.38
 12
0.76
 22
-0.19
 32
0.45
 13
0.76
 23
-0.19
 33
0.6900000000000001
  0
3DFACE
  5
32B
  8
0
 10
0.76
 20
-0.19
 30
0.6900000000000001
 11
0.76
 21
-0.19
 31
0.45
 12
0.76
 22
0.07
 32
0.45
 13
0.76
 23
0.07
 33
0.6900000000000001
  0
3DFACE
  5
32C
  8
0
 10
0.76
 20
0.07
 30
0.6900000000000001
 11
0.76
 21
0.07
 31
0.45
 12
0.6200000000000001
 22
0.07
 32
0.38
 13
0.6200000000000001
 23
0.07
 33
0.76
  0
3DFACE
  5
32E
  8
0
 10
0.76
 20
0.07
 30
0.45
 11
0.76
 21
-0.19
 31
0.45
 12
0.6200000000000001
 22
-0.19
 32
0.38
 13
0.6200000000000001
 23
0.07
 33
0.38
  0
3DFACE
  5
32F
  8
0
 10
0.6200000000000001
 20
0.07
 30
0.76
 11
0.6200000000000001
 21
-0.19
 31
0.76
 12
0.76
 22
-0.19
 32
0.6900000000000001
 13
0.76
 23
0.07
 33
0.6900000000000001
  0
3DFACE
  5
331
  8
0
 10
0.6200000000000001
 20
0.24
 30
0.6
 11
0.6200000000000001
 21
0.24
 31
0.5600000000000001
 12
0.4
 22
0.24
 32
0.5600000000000001
 13
0.4
 23
0.24
 33
0.6
  0
3DFACE
  5
333
  8
0
 10
0.76
 20
0.0700000000000001
 30
0.6
 11
0.76
 21
0.0700000000000001
 31
0.5600000000000001
 12
0.6200000000000001
 22
0.24
 32
0.5600000000000001
 13
0.6200000000000001
 23
0.24
 33
0.6
  0
3DFACE
  5
335
  8
0
 10
0.6200000000000001
 20
0.24
 30
0.5600000000000001
 11
0.76
 21
0.0700000000000001
 31
0.5600000000000001
 12
0.4
 22
0.0700000000000001
 32
0.5600000000000001
 13
0.4
 23
0.24
 33
0.5600000000000001
  0
3DFACE
  5
336
  8
0
 10
0.4
 20
0.24
 30
0.6
 11
0.4
 21
0.0700000000000001
 31
0.6
 12
0.76
 22
0.0700000000000001
 32
0.6
 13
0.6200000000000001
 23
0.24
 33
0.6
  0
3DFACE
  5
341
  8
0
 10
-0.6200000000000001
 20
-0.19
 30
0.3800000000000002
 11
-0.62
 21
-0.19
 31
0.7600000000000003
 12
-0.7599999999999999
 22
-0.19
 32
0.6900000000000003
 13
-0.76
 23
-0.19
 33
0.4500000000000002
  0
3DFACE
  5
342
  8
0
 10
-0.76
 20
0.07
 30
0.4500000000000002
 11
-0.7599999999999999
 21
0.07
 31
0.6900000000000003
 12
-0.62
 22
0.07
 32
0.7600000000000003
 13
-0.6200000000000001
 23
0.07
 33
0.3800000000000002
  0
3DFACE
  5
344
  8
0
 10
-0.4000000000000001
 20
-0.19
 30
0.3800000000000001
 11
-0.4
 21
-0.19
 31
0.7600000000000003
 12
-0.62
 22
-0.19
 32
0.7600000000000003
 13
-0.6200000000000001
 23
-0.19
 33
0.3800000000000002
  0
3DFACE
  5
346
  8
0
 10
-0.6200000000000001
 20
0.07
 30
0.3800000000000002
 11
-0.62
 21
0.07
 31
0.7600000000000003
 12
-0.4
 22
0.07
 32
0.7600000000000003
 13
-0.4000000000000001
 23
0.07
 33
0.3800000000000001
  0
3DFACE
  5
347
  8
0
 10
-0.76
 20
0.0700000000000001
 30
0.5600000000000004
 11
-0.76
 21
0.0700000000000001
 31
0.6000000000000002
 12
-0.6200000000000001
 22
0.24
 32
0.6000000000000002
 13
-0.6200000000000001
 23
0.24
 33
0.5600000000000004
  0
3DFACE
  5
348
  8
0
 10
-0.4
 20
0.24
 30
0.5600000000000002
 11
-0.4
 21
0.0700000000000001
 31
0.5600000000000002
 12
-0.76
 22
0.0700000000000001
 32
0.5600000000000004
 13
-0.6200000000000001
 23
0.24
 33
0.5600000000000004
  0
3DFACE
  5
349
  8
0
 10
-0.6200000000000001
 20
0.24
 30
0.5600000000000004
 11
-0.6200000000000001
 21
0.24
 31
0.6000000000000002
 12
-0.4
 22
0.24
 32
0.6000000000000001
 13
-0.4
 23
0.24
 33
0.5600000000000002
  0
3DFACE
  5
34B
  8
0
 10
-0.6200000000000001
 20
0.24
 30
0.6000000000000002
 11
-0.76
 21
0.0700000000000001
 31
0.6000000000000002
 12
-0.4
 22
0.0700000000000001
 32
0.6000000000000001
 13
-0.4
 23
0.24
 33
0.6000000000000001
  0
3DFACE
  5
34C
  8
0
 10
-0.76
 20
-0.19
 30
0.4500000000000002
 11
-0.7599999999999999
 21
-0.19
 31
0.6900000000000003
 12
-0.7599999999999999
 22
0.07
 32
0.6900000000000003
 13
-0.76
 23
0.07
 33
0.4500000000000002
  0
3DFACE
  5
34D
  8
0
 10
-0.7599999999999999
 20
0.07
 30
0.6900000000000003
 11
-0.7599999999999999
 21
-0.19
 31
0.6900000000000003
 12
-0.62
 22
-0.19
 32
0.7600000000000003
 13
-0.62
 23
0.07
 33
0.7600000000000003
  0
3DFACE
  5
34E
  8
0
 10
-0.6200000000000001
 20
0.07
 30
0.3800000000000002
 11
-0.6200000000000001
 21
-0.19
 31
0.3800000000000002
 12
-0.76
 22
-0.19
 32
0.4500000000000002
 13
-0.76
 23
0.07
 33
0.4500000000000002
  0
3DFACE
  5
350
  8
0
 10
-0.62
 20
0.07
 30
0.7600000000000003
 11
-0.62
 21
-0.19
 31
0.7600000000000003
 12
-0.4
 22
-0.19
 32
0.7600000000000003
 13
-0.4
 23
0.07
 33
0.7600000000000003
  0
3DFACE
  5
351
  8
0
 10
-0.4000000000000001
 20
0.07
 30
0.3800000000000001
 11
-0.4000000000000001
 21
-0.19
 31
0.3800000000000001
 12
-0.6200000000000001
 22
-0.19
 32
0.3800000000000002
 13
-0.6200000000000001
 23
0.07
 33
0.3800000000000002
  0
3DFACE
  5
357
  8
0
 10
-0.14
 20
0.76
 30
0.4700000000000001
 11
-0.14
 21
0.24
 31
0.4700000000000001
 12
-0.14
 22
0.24
 32
0.6600000000000001
 13
-0.14
 23
0.8
 33
0.6600000000000001
  0
3DFACE
  5
359
  8
0
 10
-0.09
 20
0.24
 30
0.6600000000000001
 11
-0.09
 21
0.24
 31
0.4700000000000001
 12
-0.09
 22
0.76
 32
0.4700000000000001
 13
-0.09
 23
0.8
 33
0.6600000000000001
  0
3DFACE
  5
35B
  8
0
 10
-0.09
 20
0.76
 30
0.4700000000000001
 11
-0.09
 21
0.24
 31
0.4700000000000001
 12
-0.14
 22
0.24
 32
0.4700000000000001
 13
-0.14
 23
0.76
 33
0.4700000000000001
  0
3DFACE
  5
35C
  8
0
 10
-0.14
 20
0.8
 30
0.6600000000000001
 11
-0.14
 21
0.24
 31
0.6600000000000001
 12
-0.09
 22
0.24
 32
0.6600000000000001
 13
-0.09
 23
0.8
 33
0.6600000000000001
  0
3DFACE
  5
35E
  8
0
 10
-0.09
 20
0.8
 30
0.6600000000000001
 11
-0.09
 21
0.76
 31
0.4700000000000001
 12
-0.09
 22
0.9300000000000001
 32
0.5700000000000001
 13
-0.09
 23
0.8600000000000001
 33
0.7000000000000001
  0
3DFACE
  5
360
  8
0
 10
-0.14
 20
0.9300000000000001
 30
0.5700000000000001
 11
-0.14
 21
0.76
 31
0.4700000000000001
 12
-0.14
 22
0.8
 32
0.6600000000000001
 13
-0.14
 23
0.8600000000000001
 33
0.7000000000000001
  0
3DFACE
  5
362
  8
0
 10
-0.09
 20
0.9300000000000001
 30
0.5700000000000001
 11
-0.09
 21
0.76
 31
0.4700000000000001
 12
-0.14
 22
0.76
 32
0.4700000000000001
 13
-0.14
 23
0.9300000000000001
 33
0.5700000000000001
  0
3DFACE
  5
363
  8
0
 10
-0.14
 20
0.8600000000000001
 30
0.7000000000000001
 11
-0.14
 21
0.8
 31
0.6600000000000001
 12
-0.09
 22
0.8
 32
0.6600000000000001
 13
-0.09
 23
0.8600000000000001
 33
0.7000000000000001
  0
3DFACE
  5
365
  8
0
 10
-0.14
 20
0.99
 30
0.6400000000000001
 11
-0.14
 21
0.9300000000000001
 31
0.5700000000000001
 12
-0.14
 22
0.8600000000000001
 32
0.7000000000000001
 13
-0.14
 23
0.8600000000000001
 33
0.8100000000000001
  0
3DFACE
  5
367
  8
0
 10
-0.09
 20
0.8600000000000001
 30
0.7000000000000001
 11
-0.09
 21
0.9300000000000001
 31
0.5700000000000001
 12
-0.09
 22
0.99
 32
0.6400000000000001
 13
-0.09
 23
0.8600000000000001
 33
0.8100000000000001
  0
3DFACE
  5
369
  8
0
 10
-0.09
 20
0.99
 30
0.6400000000000001
 11
-0.09
 21
0.9300000000000001
 31
0.5700000000000001
 12
-0.14
 22
0.9300000000000001
 32
0.5700000000000001
 13
-0.14
 23
0.99
 33
0.6400000000000001
  0
3DFACE
  5
36A
  8
0
 10
-0.14
 20
0.8600000000000001
 30
0.8100000000000001
 11
-0.14
 21
0.8600000000000001
 31
0.7000000000000001
 12
-0.09
 22
0.8600000000000001
 32
0.7000000000000001
 13
-0.09
 23
0.8600000000000001
 33
0.8100000000000001
  0
3DFACE
  5
36C
  8
0
 10
-0.14
 20
0.99
 30
0.8100000000000001
 11
-0.14
 21
0.99
 31
0.6400000000000001
 12
-0.14
 22
0.8600000000000001
 32
0.8100000000000001
 13
-0.14
 23
0.88
 33
0.84
  0
3DFACE
  5
36E
  8
0
 10
-0.09
 20
0.8600000000000001
 30
0.8100000000000001
 11
-0.09
 21
0.99
 31
0.6400000000000001
 12
-0.09
 22
0.99
 32
0.8100000000000001
 13
-0.09
 23
0.88
 33
0.84
  0
3DFACE
  5
370
  8
0
 10
-0.09
 20
0.99
 30
0.8100000000000001
 11
-0.09
 21
0.99
 31
0.6400000000000001
 12
-0.14
 22
0.99
 32
0.6400000000000001
 13
-0.14
 23
0.99
 33
0.8100000000000001
  0
3DFACE
  5
371
  8
0
 10
-0.14
 20
0.88
 30
0.84
 11
-0.14
 21
0.8600000000000001
 31
0.8100000000000001
 12
-0.09
 22
0.8600000000000001
 32
0.8100000000000001
 13
-0.09
 23
0.88
 33
0.84
  0
3DFACE
  5
373
  8
0
 10
-0.09
 20
0.88
 30
0.84
 11
-0.09
 21
0.9500000000000001
 31
0.84
 12
-0.14
 22
0.9500000000000001
 32
0.84
 13
-0.14
 23
0.88
 33
0.84
  0
3DFACE
  5
375
  8
0
 10
-0.09
 20
0.88
 30
0.84
 11
-0.09
 21
0.99
 31
0.8100000000000001
 12
-0.09
 22
0.9500000000000001
 32
0.84
 13
-0.09
 23
0.88
 33
0.84
  0
3DFACE
  5
376
  8
0
 10
-0.14
 20
0.9500000000000001
 30
0.84
 11
-0.14
 21
0.99
 31
0.8100000000000001
 12
-0.14
 22
0.88
 32
0.84
 13
-0.14
 23
0.88
 33
0.84
  0
3DFACE
  5
377
  8
0
 10
-0.09
 20
0.9500000000000001
 30
0.84
 11
-0.09
 21
0.99
 31
0.8100000000000001
 12
-0.14
 22
0.99
 32
0.8100000000000001
 13
-0.14
 23
0.9500000000000001
 33
0.84
  0
3DFACE
  5
37B
  8
0
 10
0.14
 20
0.8600000000000001
 30
0.7000000000000001
 11
0.14
 21
0.9300000000000001
 31
0.5700000000000001
 12
0.14
 22
0.99
 32
0.6400000000000001
 13
0.14
 23
0.8600000000000001
 33
0.8100000000000001
  0
3DFACE
  5
37C
  8
0
 10
0.09
 20
0.8600000000000001
 30
0.8100000000000001
 11
0.09
 21
0.8600000000000001
 31
0.7000000000000001
 12
0.14
 22
0.8600000000000001
 32
0.7000000000000001
 13
0.14
 23
0.8600000000000001
 33
0.8100000000000001
  0
3DFACE
  5
37E
  8
0
 10
0.09
 20
0.99
 30
0.6400000000000001
 11
0.09
 21
0.9300000000000001
 31
0.5700000000000001
 12
0.09
 22
0.8600000000000001
 32
0.7000000000000001
 13
0.09
 23
0.8600000000000001
 33
0.8100000000000001
  0
3DFACE
  5
380
  8
0
 10
0.14
 20
0.99
 30
0.8100000000000001
 11
0.14
 21
0.99
 31
0.6400000000000001
 12
0.09
 22
0.99
 32
0.6400000000000001
 13
0.09
 23
0.99
 33
0.8100000000000001
  0
3DFACE
  5
381
  8
0
 10
0.14
 20
0.8600000000000001
 30
0.8100000000000001
 11
0.14
 21
0.99
 31
0.6400000000000001
 12
0.14
 22
0.99
 32
0.8100000000000001
 13
0.14
 23
0.88
 33
0.84
  0
3DFACE
  5
382
  8
0
 10
0.09
 20
0.99
 30
0.8100000000000001
 11
0.09
 21
0.99
 31
0.6400000000000001
 12
0.09
 22
0.8600000000000001
 32
0.8100000000000001
 13
0.09
 23
0.88
 33
0.84
  0
3DFACE
  5
383
  8
0
 10
0.14
 20
0.24
 30
0.6600000000000001
 11
0.14
 21
0.24
 31
0.4700000000000001
 12
0.14
 22
0.76
 32
0.4700000000000001
 13
0.14
 23
0.8
 33
0.6600000000000001
  0
3DFACE
  5
386
  8
0
 10
0.09
 20
0.76
 30
0.4700000000000001
 11
0.09
 21
0.24
 31
0.4700000000000001
 12
0.09
 22
0.24
 32
0.6600000000000001
 13
0.09
 23
0.8
 33
0.6600000000000001
  0
3DFACE
  5
387
  8
0
 10
0.14
 20
0.8
 30
0.6600000000000001
 11
0.14
 21
0.76
 31
0.4700000000000001
 12
0.14
 22
0.9300000000000001
 32
0.5700000000000001
 13
0.14
 23
0.8600000000000001
 33
0.7000000000000001
  0
3DFACE
  5
389
  8
0
 10
0.09
 20
0.9300000000000001
 30
0.5700000000000001
 11
0.09
 21
0.76
 31
0.4700000000000001
 12
0.09
 22
0.8
 32
0.6600000000000001
 13
0.09
 23
0.8600000000000001
 33
0.7000000000000001
  0
3DFACE
  5
38B
  8
0
 10
0.14
 20
0.99
 30
0.6400000000000001
 11
0.14
 21
0.9300000000000001
 31
0.5700000000000001
 12
0.09
 22
0.9300000000000001
 32
0.5700000000000001
 13
0.09
 23
0.99
 33
0.6400000000000001
  0
3DFACE
  5
38C
  8
0
 10
0.14
 20
0.76
 30
0.4700000000000001
 11
0.14
 21
0.24
 31
0.4700000000000001
 12
0.09
 22
0.24
 32
0.4700000000000001
 13
0.09
 23
0.76
 33
0.4700000000000001
  0
3DFACE
  5
38D
  8
0
 10
0.14
 20
0.9300000000000001
 30
0.5700000000000001
 11
0.14
 21
0.76
 31
0.4700000000000001
 12
0.09
 22
0.76
 32
0.4700000000000001
 13
0.09
 23
0.9300000000000001
 33
0.5700000000000001
  0
3DFACE
  5
38E
  8
0
 10
0.09
 20
0.8
 30
0.6600000000000001
 11
0.09
 21
0.24
 31
0.6600000000000001
 12
0.14
 22
0.24
 32
0.6600000000000001
 13
0.14
 23
0.8
 33
0.6600000000000001
  0
3DFACE
  5
38F
  8
0
 10
0.09
 20
0.8600000000000001
 30
0.7000000000000001
 11
0.09
 21
0.8
 31
0.6600000000000001
 12
0.14
 22
0.8
 32
0.6600000000000001
 13
0.14
 23
0.8600000000000001
 33
0.7000000000000001
  0
3DFACE
  5
390
  8
0
 10
0.14
 20
0.88
 30
0.84
 11
0.14
 21
0.99
 31
0.8100000000000001
 12
0.14
 22
0.9500000000000001
 32
0.84
 13
0.14
 23
0.88
 33
0.84
  0
3DFACE
  5
391
  8
0
 10
0.09
 20
0.9500000000000001
 30
0.84
 11
0.09
 21
0.99
 31
0.8100000000000001
 12
0.09
 22
0.88
 32
0.84
 13
0.09
 23
0.88
 33
0.84
  0
3DFACE
  5
392
  8
0
 10
0.09
 20
0.88
 30
0.84
 11
0.09
 21
0.8600000000000001
 31
0.8100000000000001
 12
0.14
 22
0.8600000000000001
 32
0.8100000000000001
 13
0.14
 23
0.88
 33
0.84
  0
3DFACE
  5
396
  8
0
 10
0.14
 20
0.9500000000000001
 30
0.84
 11
0.14
 21
0.99
 31
0.8100000000000001
 12
0.09
 22
0.99
 32
0.8100000000000001
 13
0.09
 23
0.9500000000000001
 33
0.84
  0
3DFACE
  5
397
  8
0
 10
0.14
 20
0.88
 30
0.84
 11
0.14
 21
0.9500000000000001
 31
0.84
 12
0.09
 22
0.9500000000000001
 32
0.84
 13
0.09
 23
0.88
 33
0.84
  0
3DFACE
  5
39E
  8
0
 10
-0.4
 20
0.24
 30
0.6000000000000001
 11
-0.4
 21
0.0700000000000001
 31
0.6000000000000001
 12
-0.4
 22
0.07
 32
0.7600000000000003
 13
-0.4
 23
0.24
 33
0.7900000000000002
  0
3DFACE
  5
39F
  8
0
 10
-0.4
 20
0.07
 30
0.7600000000000003
 11
-0.4
 21
-0.19
 31
0.7600000000000003
 12
-0.4
 22
-0.19
 32
0.7900000000000002
 13
-0.4
 23
0.24
 33
0.7900000000000002
  0
3DFACE
  5
3A0
  8
0
 10
0.4
 20
0.07
 30
0.76
 11
0.4
 21
0.07
 31
0.6
 12
0.4
 22
0.24
 32
0.6
 13
0.4
 23
0.24
 33
0.7900000000000002
  0
3DFACE
  5
3A1
  8
0
 10
0.4
 20
0.24
 30
0.7900000000000002
 11
0.4
 21
-0.19
 31
0.7900000000000002
 12
0.4
 22
-0.19
 32
0.76
 13
0.4
 23
0.07
 33
0.76
  0
3DFACE
  5
3A2
  8
0
 10
0.09
 20
0.24
 30
0.6600000000000001
 11
0.09
 21
0.24
 31
0.4700000000000001
 12
-0.09
 22
0.24
 32
0.47
 13
-0.09
 23
0.24
 33
0.66
  0
3DFACE
  5
3A3
  8
0
 10
0.4
 20
0.24
 30
0.7900000000000002
 11
0.14
 21
0.24
 31
0.6600000000000001
 12
-0.14
 22
0.24
 32
0.6600000000000001
 13
-0.4
 23
0.24
 33
0.7900000000000002
  0
3DFACE
  5
3A4
  8
0
 10
-0.14
 20
0.24
 30
0.47
 11
-0.4
 21
0.24
 31
0.38
 12
-0.4
 22
0.24
 32
0.7900000000000002
 13
-0.14
 23
0.24
 33
0.6600000000000001
  0
3DFACE
  5
3A5
  8
0
 10
0.4
 20
0.24
 30
0.7900000000000002
 11
0.4
 21
0.24
 31
0.38
 12
0.14
 22
0.24
 32
0.4700000000000001
 13
0.14
 23
0.24
 33
0.6600000000000001
  0
VIEWPORT
  5
2E
 67
     1
  8
0
 10
144.7270812988281
 20
101.2295806407928
 30
0.0
 40
391.13550988316581
 41
222.15178063964839
 68
     2
 69
     1
1001
ACAD
1000
MVIEW
1002
{
1070
    16
1010
0.0
1020
0.0
1030
0.0
1010
0.0
1020
0.0
1030
1.0
1040
0.0
1040
222.15178063964839
1040
144.7270812988281
1040
101.2295806407928
1040
50.0
1040
0.0
1040
0.0
1070
     0
1070
   100
1070
     1
1070
     1
1070
     0
1070
     0
1070
     0
1070
     0
1040
0.0
1040
0.0
1040
0.0
1040
10.0
1040
10.0
1040
10.0
1040
10.0
1070
     0
1002
{
1002
}
1002
}
  0
VIEWPORT
  5
30
 67
     1
  8
0
 10
139.22375631332389
 20
100.8062499761581
 30
0.0
 40
222.75801010131829
 41
161.289999961853
 68
     1
 69
     2
1001
ACAD
1000
MVIEW
1002
{
1070
    16
1010
0.0
1020
0.0
1030
0.0
1010
0.0
1020
0.0
1030
1.0
1040
0.0
1040
307.49010134148989
1040
210.0
1040
148.5
1040
50.0
1040
0.0
1040
0.0
1070
     0
1070
   100
1070
     1
1070
     3
1070
     0
1070
     1
1070
     0
1070
     0
1040
0.0
1040
0.0
1040
0.0
1040
10.0
1040
10.0
1040
10.0
1040
10.0
1070
     0
1002
{
1002
}
1002
}
  0
ENDSEC
  0
EOF
