  0
SECTION
  2
HEADER
  9
$ACADVER
  1
AC1009
  9
$INSBASE
 10
0.0
 20
0.0
 30
0.0
  9
$EXTMIN
 10
-1.5099999999999989
 20
-17.045124999999999
 30
-49.062142000000009
  9
$EXTMAX
 10
1.5099999999999989
 20
13.49573799999999
 30
21.1739475962539
  9
$LIMMIN
 10
0.0
 20
0.0
  9
$LIMMAX
 10
420.0
 20
297.0
  9
$ORTHOMODE
 70
     1
  9
$REGENMODE
 70
     1
  9
$FILLMODE
 70
     1
  9
$QTEXTMODE
 70
     0
  9
$MIRRTEXT
 70
     1
  9
$DRAGMODE
 70
     2
  9
$LTSCALE
 40
1.0
  9
$OSMODE
 70
    35
  9
$ATTMODE
 70
     1
  9
$TEXTSIZE
 40
2.5
  9
$TRACEWID
 40
1.0
  9
$TEXTSTYLE
  7
STANDARD
  9
$CLAYER
  8
CRANE
  9
$CELTYPE
  6
BYLAYER
  9
$CECOLOR
 62
   256
  9
$DIMSCALE
 40
1.0
  9
$DIMASZ
 40
2.5
  9
$DIMEXO
 40
0.625
  9
$DIMDLI
 40
3.75
  9
$DIMRND
 40
0.0
  9
$DIMDLE
 40
0.0
  9
$DIMEXE
 40
1.25
  9
$DIMTP
 40
0.0
  9
$DIMTM
 40
0.0
  9
$DIMTXT
 40
2.5
  9
$DIMCEN
 40
2.5
  9
$DIMTSZ
 40
0.0
  9
$DIMTOL
 70
     0
  9
$DIMLIM
 70
     0
  9
$DIMTIH
 70
     0
  9
$DIMTOH
 70
     0
  9
$DIMSE1
 70
     0
  9
$DIMSE2
 70
     0
  9
$DIMTAD
 70
     1
  9
$DIMZIN
 70
     8
  9
$DIMBLK
  1

  9
$DIMASO
 70
     1
  9
$DIMSHO
 70
     1
  9
$DIMPOST
  1

  9
$DIMAPOST
  1

  9
$DIMALT
 70
     0
  9
$DIMALTD
 70
     3
  9
$DIMALTF
 40
0.03937007874016
  9
$DIMLFAC
 40
1.0
  9
$DIMTOFL
 70
     1
  9
$DIMTVP
 40
0.0
  9
$DIMTIX
 70
     0
  9
$DIMSOXD
 70
     0
  9
$DIMSAH
 70
     0
  9
$DIMBLK1
  1

  9
$DIMBLK2
  1

  9
$DIMSTYLE
  2
ISO-25
  9
$DIMCLRD
 70
     0
  9
$DIMCLRE
 70
     0
  9
$DIMCLRT
 70
     0
  9
$DIMTFAC
 40
1.0
  9
$DIMGAP
 40
0.625
  9
$LUNITS
 70
     2
  9
$LUPREC
 70
     4
  9
$SKETCHINC
 40
1.0
  9
$FILLETRAD
 40
10.0
  9
$AUNITS
 70
     0
  9
$AUPREC
 70
     0
  9
$MENU
  1
.
  9
$ELEVATION
 40
0.0
  9
$PELEVATION
 40
0.0
  9
$THICKNESS
 40
0.0
  9
$LIMCHECK
 70
     0
  9
$BLIPMODE
 70
     0
  9
$CHAMFERA
 40
10.0
  9
$CHAMFERB
 40
10.0
  9
$SKPOLY
 70
     0
  9
$TDCREATE
 40
2458132.5492163659
  9
$TDUPDATE
 40
2458147.0077939699
  9
$TDINDWG
 40
4.078796713
  9
$TDUSRTIMER
 40
4.078796713
  9
$USRTIMER
 70
     1
  9
$ANGBASE
 50
0.0
  9
$ANGDIR
 70
     0
  9
$PDMODE
 70
     0
  9
$PDSIZE
 40
0.0
  9
$PLINEWID
 40
0.0
  9
$COORDS
 70
     1
  9
$SPLFRAME
 70
     0
  9
$SPLINETYPE
 70
     6
  9
$SPLINESEGS
 70
     8
  9
$ATTDIA
 70
     1
  9
$ATTREQ
 70
     1
  9
$HANDLING
 70
-16383
  9
$HANDSEED
  5
3576
  9
$SURFTAB1
 70
     6
  9
$SURFTAB2
 70
     6
  9
$SURFTYPE
 70
     6
  9
$SURFU
 70
     6
  9
$SURFV
 70
     6
  9
$UCSNAME
  2

  9
$UCSORG
 10
0.0
 20
0.0
 30
0.0
  9
$UCSXDIR
 10
0.0
 20
-1.0
 30
0.0
  9
$UCSYDIR
 10
0.0
 20
0.0
 30
1.0
  9
$PUCSNAME
  2

  9
$PUCSORG
 10
0.0
 20
0.0
 30
0.0
  9
$PUCSXDIR
 10
1.0
 20
0.0
 30
0.0
  9
$PUCSYDIR
 10
0.0
 20
1.0
 30
0.0
  9
$USERI1
 70
     0
  9
$USERI2
 70
     0
  9
$USERI3
 70
     0
  9
$USERI4
 70
     0
  9
$USERI5
 70
     0
  9
$USERR1
 40
0.0
  9
$USERR2
 40
0.0
  9
$USERR3
 40
0.0
  9
$USERR4
 40
0.0
  9
$USERR5
 40
0.0
  9
$WORLDVIEW
 70
     1
  9
$SHADEDGE
 70
     3
  9
$SHADEDIF
 70
    70
  9
$TILEMODE
 70
     1
  9
$MAXACTVP
 70
    64
  9
$PLIMCHECK
 70
     0
  9
$PEXTMIN
 10
27.844751262664801
 20
20.161249995231621
 30
0.0
  9
$PEXTMAX
 10
250.60276136398309
 20
181.4512499570846
 30
0.0
  9
$PLIMMIN
 10
-3.757080078125
 20
-3.7570831775665279
  9
$PLIMMAX
 10
293.21124267578119
 20
206.21624445915219
  9
$UNITMODE
 70
     0
  9
$VISRETAIN
 70
     1
  9
$PLINEGEN
 70
     0
  9
$PSLTSCALE
 70
     1
  0
ENDSEC
  0
SECTION
  2
TABLES
  0
TABLE
  2
VPORT
 70
    22
  0
VPORT
  2
*ACTIVE
 70
     0
 10
0.0
 20
0.0
 11
1.0
 21
1.0
 12
1.7746934999999551
 22
-13.94409720187309
 13
0.0
 23
0.0
 14
0.01
 24
0.01
 15
1.0
 25
1.0
 16
-1.0
 26
0.0
 36
0.0
 17
0.0
 27
0.0
 37
0.0
 40
353.61638155982808
 41
2.1655092592592591
 42
50.0
 43
0.0
 44
0.0
 50
0.0
 51
0.0
 71
     0
 72
   100
 73
     1
 74
     3
 75
     1
 76
     1
 77
     0
 78
     0
  0
ENDTAB
  0
TABLE
  2
LTYPE
 70
     1
  0
LTYPE
  2
CONTINUOUS
 70
     0
  3
Solid line
 72
    65
 73
     0
 40
0.0
  0
ENDTAB
  0
TABLE
  2
LAYER
 70
    21
  0
LAYER
  2
0
 70
     0
 62
     7
  6
CONTINUOUS
  0
LAYER
  2
_REF
 70
     0
 62
     9
  6
CONTINUOUS
  0
LAYER
  2
_TMP
 70
     0
 62
     4
  6
CONTINUOUS
  0
LAYER
  2
7TP_HULL
 70
     0
 62
     7
  6
CONTINUOUS
  0
LAYER
  2
7TP_BACK_DOOR_1
 70
     0
 62
     7
  6
CONTINUOUS
  0
LAYER
  2
7TP_BACK_DOOR_2
 70
     0
 62
     7
  6
CONTINUOUS
  0
LAYER
  2
SUSPENSION
 70
     0
 62
     5
  6
CONTINUOUS
  0
LAYER
  2
WHEELS
 70
     0
 62
     2
  6
CONTINUOUS
  0
LAYER
  2
TRACKS
 70
     0
 62
     3
  6
CONTINUOUS
  0
LAYER
  2
7TP_FENDERS
 70
     0
 62
     6
  6
CONTINUOUS
  0
LAYER
  2
TOOLS
 70
     0
 62
     3
  6
CONTINUOUS
  0
LAYER
  2
7TP_TURRET
 70
     0
 62
     2
  6
CONTINUOUS
  0
LAYER
  2
7TP_SLEEVE
 70
     0
 62
     5
  6
CONTINUOUS
  0
LAYER
  2
7TP_GUN
 70
     0
 62
     1
  6
CONTINUOUS
  0
LAYER
  2
C7P_HULL
 70
     0
 62
     7
  6
CONTINUOUS
  0
LAYER
  2
C7P_FENDERS
 70
     0
 62
     6
  6
CONTINUOUS
  0
LAYER
  2
C7P_INTERNALS
 70
     0
 62
     3
  6
CONTINUOUS
  0
LAYER
  2
C7P_SEATS
 70
     0
 62
     1
  6
CONTINUOUS
  0
LAYER
  2
C7P_TENT
 70
     0
 62
     3
  6
CONTINUOUS
  0
LAYER
  2
SNOW_PLOUGH
 70
     0
 62
     2
  6
CONTINUOUS
  0
LAYER
  2
CRANE
 70
     0
 62
     3
  6
CONTINUOUS
  0
ENDTAB
  0
TABLE
  2
STYLE
 70
     1
  0
STYLE
  2
STANDARD
 70
     0
 40
0.0
 41
1.0
 50
0.0
 71
     0
 42
2.5
  3
txt
  4

  0
ENDTAB
  0
TABLE
  2
VIEW
 70
     0
  0
ENDTAB
  0
TABLE
  2
UCS
 70
     0
  0
ENDTAB
  0
TABLE
  2
APPID
 70
     1
  0
APPID
  2
ACAD
 70
     0
  0
ENDTAB
  0
TABLE
  2
DIMSTYLE
 70
     1
  0
DIMSTYLE
  2
ISO-25
 70
     0
  3

  4

  5

  6

  7

 40
1.0
 41
2.5
 42
0.625
 43
3.75
 44
1.25
 45
0.0
 46
0.0
 47
0.0
 48
0.0
140
2.5
141
2.5
142
0.0
143
0.03937007874016
144
1.0
145
0.0
146
1.0
147
0.625
 71
     0
 72
     0
 73
     0
 74
     0
 75
     0
 76
     0
 77
     1
 78
     8
170
     0
171
     3
172
     1
173
     0
174
     0
175
     0
176
     0
177
     0
178
     0
  0
ENDTAB
  0
ENDSEC
  0
SECTION
  2
BLOCKS
  0
BLOCK
  8
0
  2
$MODEL_SPACE
 70
     0
 10
0.0
 20
0.0
 30
0.0
  3
$MODEL_SPACE
  1

  0
ENDBLK
  5
21
  8
0
  0
BLOCK
 67
     1
  8
0
  2
$PAPER_SPACE
 70
     0
 10
0.0
 20
0.0
 30
0.0
  3
$PAPER_SPACE
  1

  0
ENDBLK
  5
1D
 67
     1
  8
0
  0
ENDSEC
  0
SECTION
  2
ENTITIES
  0
3DFACE
  5
32BF
  8
CRANE
 10
-0.03
 20
2.9730072423845062
 30
2.4291184163023369
 11
-0.05
 21
2.8931038577222292
 31
2.3877004356717908
 12
0.0500000000000001
 22
2.8931038577222292
 32
2.3877004356717908
 13
0.03
 23
2.9730072423845062
 33
2.4291184163023369
  0
3DFACE
  5
32C0
  8
CRANE
 10
-0.05
 20
2.8931038577222292
 30
2.3877004356717908
 11
-0.03
 21
2.943725834048454
 31
2.2900407433067862
 12
0.03
 22
2.943725834048454
 32
2.2900407433067862
 13
0.0500000000000001
 23
2.8931038577222292
 33
2.3877004356717908
  0
3DFACE
  5
32C2
  8
CRANE
 10
0.03
 20
2.9730072423845062
 30
2.4291184163023369
 11
0.03
 21
3.0236292187107301
 31
2.3314587239373332
 12
-0.03
 22
3.0236292187107301
 32
2.3314587239373332
 13
-0.03
 23
2.9730072423845062
 33
2.4291184163023369
  0
3DFACE
  5
32C4
  8
CRANE
 10
0.03
 20
3.0236292187107301
 30
2.3314587239373332
 11
0.03
 21
2.943725834048454
 31
2.2900407433067862
 12
-0.03
 22
2.943725834048454
 32
2.2900407433067862
 13
-0.03
 23
3.0236292187107301
 33
2.3314587239373332
  0
3DFACE
  5
32C9
  8
CRANE
 10
-0.03
 20
2.9730072423845062
 30
2.4291184163023369
 11
-0.03
 21
3.0236292187107301
 31
2.3314587239373332
 12
-0.03
 22
3.1035326033730062
 32
2.3728767045678789
 13
-0.03
 23
3.052910627046781
 33
2.470536396932884
  0
3DFACE
  5
32CA
  8
CRANE
 10
-0.05
 20
3.1035326033730062
 30
2.3728767045678789
 11
-0.05
 21
3.0236292187107301
 31
2.3314587239373332
 12
-0.05
 22
2.8931038577222292
 32
2.3877004356717908
 13
-0.05
 23
3.052910627046781
 33
2.470536396932884
  0
3DFACE
  5
32CB
  8
CRANE
 10
-0.03
 20
3.1035326033730062
 30
2.3728767045678789
 11
-0.03
 21
3.0236292187107301
 31
2.3314587239373332
 12
-0.05
 22
3.0236292187107301
 32
2.3314587239373332
 13
-0.05
 23
3.1035326033730062
 33
2.3728767045678789
  0
3DFACE
  5
32CC
  8
CRANE
 10
-0.05
 20
3.052910627046781
 30
2.470536396932884
 11
-0.05
 21
2.8931038577222292
 31
2.3877004356717908
 12
-0.03
 22
2.9730072423845062
 32
2.4291184163023369
 13
-0.03
 23
3.052910627046781
 33
2.470536396932884
  0
3DFACE
  5
32E5
  8
CRANE
 10
-0.03
 20
3.052910627046781
 30
2.470536396932884
 11
-0.03
 21
3.1285378557055319
 31
2.4984742258642281
 12
-0.05
 22
3.1285378557055319
 32
2.4984742258642281
 13
-0.05
 23
3.052910627046781
 33
2.470536396932884
  0
3DFACE
  5
32E6
  8
CRANE
 10
-0.03
 20
3.1285378557055319
 30
2.4984742258642281
 11
-0.03
 21
3.1590406427269029
 31
2.5010892371704898
 12
-0.05
 22
3.1590406427269029
 32
2.5010892371704898
 13
-0.05
 23
3.1285378557055319
 33
2.4984742258642281
  0
3DFACE
  5
32E7
  8
CRANE
 10
-0.03
 20
3.1590406427269029
 30
2.5010892371704898
 11
-0.03
 21
3.1824584625023422
 31
2.4813696018501248
 12
-0.05
 22
3.1824584625023422
 32
2.4813696018501248
 13
-0.05
 23
3.1590406427269029
 33
2.5010892371704898
  0
3DFACE
  5
32E8
  8
CRANE
 10
-0.03
 20
3.1824584625023422
 30
2.4813696018501248
 11
-0.03
 21
3.1850734738086031
 31
2.4508668148287529
 12
-0.05
 22
3.1850734738086031
 32
2.4508668148287529
 13
-0.05
 23
3.1824584625023422
 33
2.4813696018501248
  0
3DFACE
  5
32E9
  8
CRANE
 10
-0.03
 20
3.1850734738086031
 30
2.4508668148287529
 11
-0.03
 21
3.165353838488242
 31
2.4274489950533149
 12
-0.05
 22
3.165353838488242
 32
2.4274489950533149
 13
-0.05
 23
3.1850734738086031
 33
2.4508668148287529
  0
3DFACE
  5
32EA
  8
CRANE
 10
-0.03
 20
3.165353838488242
 30
2.4274489950533149
 11
-0.03
 21
3.1035326033730062
 31
2.3728767045678789
 12
-0.05
 22
3.1035326033730062
 32
2.3728767045678789
 13
-0.05
 23
3.165353838488242
 33
2.4274489950533149
  0
3DFACE
  5
32EC
  8
CRANE
 10
-0.05
 20
3.052910627046781
 30
2.470536396932884
 11
-0.05
 21
3.1285378557055319
 31
2.4984742258642281
 12
-0.05
 22
3.165353838488242
 32
2.4274489950533149
 13
-0.05
 23
3.1035326033730062
 33
2.3728767045678789
  0
3DFACE
  5
32ED
  8
CRANE
 10
-0.0499999999999998
 20
3.1285378557055319
 30
2.4984742258642281
 11
-0.0499999999999998
 21
3.1590406427269029
 31
2.5010892371704898
 12
-0.0499999999999998
 22
3.1850734738086031
 32
2.4508668148287529
 13
-0.0499999999999998
 23
3.165353838488242
 33
2.4274489950533149
  0
3DFACE
  5
32EE
  8
CRANE
 10
-0.05
 20
3.1590406427269029
 30
2.5010892371704898
 11
-0.05
 21
3.1824584625023422
 31
2.4813696018501248
 12
-0.05
 22
3.1824584625023422
 32
2.4813696018501248
 13
-0.05
 23
3.1850734738086031
 33
2.4508668148287529
  0
3DFACE
  5
32F1
  8
CRANE
 10
-0.03
 20
3.1850734738086031
 30
2.4508668148287529
 11
-0.03
 21
3.1824584625023422
 31
2.4813696018501248
 12
-0.03
 22
3.1824584625023422
 32
2.4813696018501248
 13
-0.03
 23
3.1590406427269029
 33
2.5010892371704898
  0
3DFACE
  5
32F2
  8
CRANE
 10
-0.03
 20
3.165353838488242
 30
2.4274489950533149
 11
-0.03
 21
3.1850734738086031
 31
2.4508668148287529
 12
-0.03
 22
3.1590406427269029
 32
2.5010892371704898
 13
-0.03
 23
3.1285378557055319
 33
2.4984742258642281
  0
3DFACE
  5
32F3
  8
CRANE
 10
-0.0300000000000001
 20
3.1035326033730062
 30
2.372876704567878
 11
-0.03
 21
3.165353838488242
 31
2.4274489950533149
 12
-0.03
 22
3.1285378557055319
 32
2.4984742258642281
 13
-0.0300000000000001
 23
3.0529106270467832
 33
2.4705363969328831
  0
3DFACE
  5
32F8
  8
CRANE
 10
0.0499999999999999
 20
3.1035326033730062
 30
2.372876704567878
 11
0.05
 21
3.165353838488242
 31
2.4274489950533149
 12
0.05
 22
3.1285378557055319
 32
2.4984742258642281
 13
0.0499999999999999
 23
3.0529106270467832
 33
2.4705363969328831
  0
3DFACE
  5
32F9
  8
CRANE
 10
0.05
 20
3.165353838488242
 30
2.4274489950533149
 11
0.05
 21
3.1850734738086031
 31
2.4508668148287529
 12
0.05
 22
3.1590406427269029
 32
2.5010892371704898
 13
0.05
 23
3.1285378557055319
 33
2.4984742258642281
  0
3DFACE
  5
32FA
  8
CRANE
 10
0.05
 20
3.1850734738086031
 30
2.4508668148287529
 11
0.05
 21
3.1824584625023422
 31
2.4813696018501248
 12
0.05
 22
3.1824584625023422
 32
2.4813696018501248
 13
0.05
 23
3.1590406427269029
 33
2.5010892371704898
  0
3DFACE
  5
32FB
  8
CRANE
 10
0.03
 20
3.1590406427269029
 30
2.5010892371704898
 11
0.03
 21
3.1824584625023422
 31
2.4813696018501248
 12
0.03
 22
3.1824584625023422
 32
2.4813696018501248
 13
0.03
 23
3.1850734738086031
 33
2.4508668148287529
  0
3DFACE
  5
32FC
  8
CRANE
 10
0.0300000000000002
 20
3.1285378557055319
 30
2.4984742258642281
 11
0.0300000000000002
 21
3.1590406427269029
 31
2.5010892371704898
 12
0.0300000000000002
 22
3.1850734738086031
 32
2.4508668148287529
 13
0.0300000000000002
 23
3.165353838488242
 33
2.4274489950533149
  0
3DFACE
  5
32FD
  8
CRANE
 10
0.03
 20
3.052910627046781
 30
2.470536396932884
 11
0.03
 21
3.1285378557055319
 31
2.4984742258642281
 12
0.03
 22
3.165353838488242
 32
2.4274489950533149
 13
0.03
 23
3.1035326033730062
 33
2.3728767045678789
  0
3DFACE
  5
32FE
  8
CRANE
 10
0.05
 20
3.165353838488242
 30
2.4274489950533149
 11
0.05
 21
3.1035326033730062
 31
2.3728767045678789
 12
0.03
 22
3.1035326033730062
 32
2.3728767045678789
 13
0.03
 23
3.165353838488242
 33
2.4274489950533149
  0
3DFACE
  5
32FF
  8
CRANE
 10
0.05
 20
3.1850734738086031
 30
2.4508668148287529
 11
0.05
 21
3.165353838488242
 31
2.4274489950533149
 12
0.03
 22
3.165353838488242
 32
2.4274489950533149
 13
0.03
 23
3.1850734738086031
 33
2.4508668148287529
  0
3DFACE
  5
3300
  8
CRANE
 10
0.05
 20
3.1824584625023422
 30
2.4813696018501248
 11
0.05
 21
3.1850734738086031
 31
2.4508668148287529
 12
0.03
 22
3.1850734738086031
 32
2.4508668148287529
 13
0.03
 23
3.1824584625023422
 33
2.4813696018501248
  0
3DFACE
  5
3301
  8
CRANE
 10
0.05
 20
3.1590406427269029
 30
2.5010892371704898
 11
0.05
 21
3.1824584625023422
 31
2.4813696018501248
 12
0.03
 22
3.1824584625023422
 32
2.4813696018501248
 13
0.03
 23
3.1590406427269029
 33
2.5010892371704898
  0
3DFACE
  5
3302
  8
CRANE
 10
0.05
 20
3.1285378557055319
 30
2.4984742258642281
 11
0.05
 21
3.1590406427269029
 31
2.5010892371704898
 12
0.03
 22
3.1590406427269029
 32
2.5010892371704898
 13
0.03
 23
3.1285378557055319
 33
2.4984742258642281
  0
3DFACE
  5
3303
  8
CRANE
 10
0.05
 20
3.052910627046781
 30
2.470536396932884
 11
0.05
 21
3.1285378557055319
 31
2.4984742258642281
 12
0.03
 22
3.1285378557055319
 32
2.4984742258642281
 13
0.03
 23
3.052910627046781
 33
2.470536396932884
  0
3DFACE
  5
3304
  8
CRANE
 10
0.03
 20
3.052910627046781
 30
2.470536396932884
 11
0.03
 21
2.9730072423845062
 31
2.4291184163023369
 12
0.05
 22
2.8931038577222292
 32
2.3877004356717908
 13
0.05
 23
3.052910627046781
 33
2.470536396932884
  0
3DFACE
  5
3305
  8
CRANE
 10
0.05
 20
3.1035326033730062
 30
2.3728767045678789
 11
0.05
 21
3.0236292187107301
 31
2.3314587239373332
 12
0.03
 22
3.0236292187107301
 32
2.3314587239373332
 13
0.03
 23
3.1035326033730062
 33
2.3728767045678789
  0
3DFACE
  5
3306
  8
CRANE
 10
0.03
 20
3.1035326033730062
 30
2.3728767045678789
 11
0.03
 21
3.0236292187107301
 31
2.3314587239373332
 12
0.03
 22
2.9730072423845062
 32
2.4291184163023369
 13
0.03
 23
3.052910627046781
 33
2.470536396932884
  0
3DFACE
  5
3307
  8
CRANE
 10
0.05
 20
2.8931038577222292
 30
2.3877004356717908
 11
0.05
 21
3.0236292187107301
 31
2.3314587239373332
 12
0.05
 22
3.1035326033730062
 32
2.3728767045678789
 13
0.05
 23
3.052910627046781
 33
2.470536396932884
  0
3DFACE
  5
3316
  8
CRANE
 10
-0.05
 20
2.8931038577222292
 30
2.3877004356717899
 11
-0.05
 21
3.0236292187107301
 31
2.3314587239373319
 12
-0.05
 22
3.0374352122542461
 32
2.30482426238324
 13
-0.05
 23
2.9575318275919691
 33
2.263406281752693
  0
3DFACE
  5
3317
  8
CRANE
 10
-0.05
 20
2.9575318275919691
 30
2.263406281752693
 11
-0.05
 21
3.0374352122542461
 31
2.30482426238324
 12
-0.05
 22
3.0380868959428731
 32
2.260107651282107
 13
-0.05
 23
2.9936961266860509
 33
2.2370976620429142
  0
3DFACE
  5
3318
  8
CRANE
 10
-0.05
 20
3.0236292187107301
 30
2.3314587239373319
 11
-0.03
 21
3.0236292187107301
 31
2.3314587239373319
 12
-0.03
 22
3.0374352122542461
 32
2.30482426238324
 13
-0.05
 23
3.0374352122542461
 33
2.30482426238324
  0
3DFACE
  5
3319
  8
CRANE
 10
-0.03
 20
3.0236292187107301
 30
2.3314587239373319
 11
-0.03
 21
2.943725834048454
 31
2.2900407433067849
 12
-0.03
 22
2.9575318275919691
 32
2.263406281752693
 13
-0.03
 23
3.0374352122542461
 33
2.30482426238324
  0
3DFACE
  5
331A
  8
CRANE
 10
-0.03
 20
2.943725834048454
 30
2.2900407433067849
 11
-0.05
 21
2.8931038577222292
 31
2.3877004356717899
 12
-0.05
 22
2.9575318275919691
 32
2.263406281752693
 13
-0.03
 23
2.9575318275919691
 33
2.263406281752693
  0
3DFACE
  5
331B
  8
CRANE
 10
-0.03
 20
2.9575318275919691
 30
2.2634062817526939
 11
-0.05
 21
2.9575318275919691
 31
2.2634062817526939
 12
-0.05
 22
2.9936961266860509
 32
2.237097662042915
 13
-0.03
 23
2.9936961266860509
 33
2.237097662042915
  0
3DFACE
  5
331C
  8
CRANE
 10
-0.03
 20
2.9936961266860509
 30
2.2370976620429142
 11
-0.05
 21
2.9936961266860509
 31
2.2370976620429142
 12
-0.05
 22
3.0380868959428731
 32
2.260107651282107
 13
-0.03
 23
3.0380868959428731
 33
2.260107651282107
  0
3DFACE
  5
331D
  8
CRANE
 10
-0.03
 20
3.0380868959428731
 30
2.260107651282107
 11
-0.05
 21
3.0380868959428731
 31
2.260107651282107
 12
-0.05
 22
3.0374352122542461
 32
2.30482426238324
 13
-0.03
 23
3.0374352122542461
 33
2.30482426238324
  0
3DFACE
  5
331E
  8
CRANE
 10
-0.03
 20
3.0374352122542461
 30
2.30482426238324
 11
-0.03
 21
2.9575318275919691
 31
2.263406281752693
 12
-0.03
 22
2.9936961266860509
 32
2.2370976620429142
 13
-0.03
 23
3.0380868959428731
 33
2.260107651282107
  0
3DFACE
  5
331F
  8
CRANE
 10
0.05
 20
3.0374352122542461
 30
2.30482426238324
 11
0.05
 21
2.9575318275919691
 31
2.263406281752693
 12
0.05
 22
2.9936961266860509
 32
2.2370976620429142
 13
0.05
 23
3.0380868959428731
 33
2.260107651282107
  0
3DFACE
  5
3320
  8
CRANE
 10
0.05
 20
3.0380868959428731
 30
2.260107651282107
 11
0.03
 21
3.0380868959428731
 31
2.260107651282107
 12
0.03
 22
3.0374352122542461
 32
2.30482426238324
 13
0.05
 23
3.0374352122542461
 33
2.30482426238324
  0
3DFACE
  5
3321
  8
CRANE
 10
0.05
 20
2.9936961266860509
 30
2.2370976620429142
 11
0.03
 21
2.9936961266860509
 31
2.2370976620429142
 12
0.03
 22
3.0380868959428731
 32
2.260107651282107
 13
0.05
 23
3.0380868959428731
 33
2.260107651282107
  0
3DFACE
  5
3322
  8
CRANE
 10
0.05
 20
2.9575318275919691
 30
2.2634062817526939
 11
0.03
 21
2.9575318275919691
 31
2.2634062817526939
 12
0.03
 22
2.9936961266860509
 32
2.237097662042915
 13
0.05
 23
2.9936961266860509
 33
2.237097662042915
  0
3DFACE
  5
3323
  8
CRANE
 10
0.0500000000000001
 20
2.8931038577222292
 30
2.3877004356717899
 11
0.03
 21
2.943725834048454
 31
2.2900407433067849
 12
0.03
 22
2.9575318275919691
 32
2.263406281752693
 13
0.05
 23
2.9575318275919691
 33
2.263406281752693
  0
3DFACE
  5
3324
  8
CRANE
 10
0.05
 20
3.0236292187107301
 30
2.3314587239373319
 11
0.0500000000000001
 21
2.8931038577222292
 31
2.3877004356717899
 12
0.05
 22
2.9575318275919691
 32
2.263406281752693
 13
0.05
 23
3.0374352122542461
 33
2.30482426238324
  0
3DFACE
  5
3325
  8
CRANE
 10
0.03
 20
3.0236292187107301
 30
2.3314587239373319
 11
0.05
 21
3.0236292187107301
 31
2.3314587239373319
 12
0.05
 22
3.0374352122542461
 32
2.30482426238324
 13
0.03
 23
3.0374352122542461
 33
2.30482426238324
  0
3DFACE
  5
3326
  8
CRANE
 10
0.03
 20
2.9575318275919691
 30
2.263406281752693
 11
0.03
 21
3.0374352122542461
 31
2.30482426238324
 12
0.03
 22
3.0380868959428731
 32
2.260107651282107
 13
0.03
 23
2.9936961266860509
 33
2.2370976620429142
  0
3DFACE
  5
3327
  8
CRANE
 10
0.03
 20
2.943725834048454
 30
2.2900407433067849
 11
0.03
 21
3.0236292187107301
 31
2.3314587239373319
 12
0.03
 22
3.0374352122542461
 32
2.30482426238324
 13
0.03
 23
2.9575318275919691
 33
2.263406281752693
  0
3DFACE
  5
3349
  8
CRANE
 10
0.07
 20
2.9782831880108591
 30
2.2258347605570981
 11
0.0612132034355964
 21
2.964310274492477
 31
2.24179589108748
 12
0.8212132034355963
 22
1.5853981220814051
 32
1.064718965695215
 13
0.83
 23
1.599371035599787
 33
1.0487578351648339
  0
3DFACE
  5
334A
  8
CRANE
 10
0.0612132034355964
 20
2.964310274492477
 30
2.24179589108748
 11
0.04
 21
2.9585225042072989
 31
2.248407207823969
 12
0.8
 22
1.579610351796227
 32
1.071330282431705
 13
0.8212132034355963
 23
1.5853981220814051
 33
1.064718965695215
  0
3DFACE
  5
334B
  8
CRANE
 10
0.04
 20
2.9585225042072989
 30
2.248407207823969
 11
0.0187867965644036
 21
2.964310274492477
 31
2.24179589108748
 12
0.7787867965644036
 22
1.5853981220814051
 32
1.064718965695215
 13
0.8
 23
1.579610351796227
 33
1.071330282431705
  0
3DFACE
  5
334C
  8
CRANE
 10
0.0187867965644036
 20
2.964310274492477
 30
2.24179589108748
 11
0.01
 21
2.9782831880108591
 31
2.2258347605570981
 12
0.7700000000000001
 22
1.599371035599787
 32
1.0487578351648339
 13
0.7787867965644036
 23
1.5853981220814051
 33
1.064718965695215
  0
3DFACE
  5
334D
  8
CRANE
 10
0.01
 20
2.9782831880108591
 30
2.2258347605570981
 11
0.0187867965644036
 21
2.992256101529239
 31
2.209873630026717
 12
0.7787867965644036
 22
1.6133439491181669
 32
1.0327967046344531
 13
0.7700000000000001
 23
1.599371035599787
 33
1.0487578351648339
  0
3DFACE
  5
334E
  8
CRANE
 10
0.0187867965644036
 20
2.992256101529239
 30
2.209873630026717
 11
0.04
 21
2.9980438718144198
 31
2.2032623132902271
 12
0.8
 22
1.619131719403345
 32
1.0261853878979621
 13
0.7787867965644036
 23
1.6133439491181669
 33
1.0327967046344531
  0
3DFACE
  5
334F
  8
CRANE
 10
0.04
 20
2.9980438718144198
 30
2.2032623132902271
 11
0.0612132034355964
 21
2.992256101529239
 31
2.209873630026717
 12
0.8212132034355963
 22
1.6133439491181669
 32
1.0327967046344531
 13
0.8
 23
1.619131719403345
 33
1.0261853878979621
  0
3DFACE
  5
3350
  8
CRANE
 10
0.0612132034355964
 20
2.992256101529239
 30
2.209873630026717
 11
0.07
 21
2.9782831880108591
 31
2.2258347605570981
 12
0.83
 22
1.599371035599787
 32
1.0487578351648339
 13
0.8212132034355963
 23
1.6133439491181669
 33
1.0327967046344531
  0
3DFACE
  5
3351
  8
CRANE
 10
0.03
 20
2.9161138469614221
 30
2.3433096664149691
 11
0.0212132034355964
 21
2.9063515353057858
 31
2.3621430747931211
 12
0.0212132034355964
 22
1.574628457601184
 32
1.671843397617343
 13
0.03
 23
1.58439076925682
 33
1.653009989239191
  0
3DFACE
  5
3352
  8
CRANE
 10
0.0212132034355964
 20
2.9063515353057858
 30
2.3621430747931211
 11
0.0
 21
2.902307853417907
 31
2.3699441279690601
 12
0.0
 22
1.5705847757133049
 32
1.679644450793282
 13
0.0212132034355964
 23
1.574628457601184
 33
1.671843397617343
  0
3DFACE
  5
3353
  8
CRANE
 10
0.0
 20
2.902307853417907
 30
2.3699441279690601
 11
-0.0212132034355964
 21
2.9063515353057858
 31
2.3621430747931211
 12
-0.0212132034355964
 22
1.574628457601184
 32
1.671843397617343
 13
0.0
 23
1.5705847757133049
 33
1.679644450793282
  0
3DFACE
  5
3354
  8
CRANE
 10
-0.0212132034355964
 20
2.9063515353057858
 30
2.3621430747931211
 11
-0.03
 21
2.9161138469614221
 31
2.3433096664149691
 12
-0.03
 22
1.58439076925682
 32
1.653009989239191
 13
-0.0212132034355964
 23
1.574628457601184
 33
1.671843397617343
  0
3DFACE
  5
3355
  8
CRANE
 10
-0.03
 20
2.9161138469614221
 30
2.3433096664149691
 11
-0.0212132034355964
 21
2.9258761586170592
 31
2.3244762580368179
 12
-0.0212132034355964
 22
1.5941530809124571
 32
1.63417658086104
 13
-0.03
 23
1.58439076925682
 33
1.653009989239191
  0
3DFACE
  5
3356
  8
CRANE
 10
-0.0212132034355964
 20
2.9258761586170592
 30
2.3244762580368179
 11
0.0
 21
2.929919840504938
 31
2.3166752048608781
 12
0.0
 22
1.598196762800336
 32
1.6263755276850991
 13
-0.0212132034355964
 23
1.5941530809124571
 33
1.63417658086104
  0
3DFACE
  5
3357
  8
CRANE
 10
0.0
 20
2.929919840504938
 30
2.3166752048608781
 11
0.0212132034355964
 21
2.9258761586170592
 31
2.3244762580368179
 12
0.0212132034355964
 22
1.5941530809124571
 32
1.63417658086104
 13
0.0
 23
1.598196762800336
 33
1.6263755276850991
  0
3DFACE
  5
3358
  8
CRANE
 10
0.0212132034355964
 20
2.9258761586170592
 30
2.3244762580368179
 11
0.03
 21
2.9161138469614221
 31
2.3433096664149691
 12
0.03
 22
1.58439076925682
 32
1.653009989239191
 13
0.0212132034355964
 23
1.5941530809124571
 33
1.63417658086104
  0
3DFACE
  5
3365
  8
CRANE
 10
0.06
 20
3.0177784424311871
 30
2.2869913209433199
 11
0.06
 21
2.9651093988084871
 31
2.240883058735013
 12
0.06
 22
2.991456977213232
 32
2.2107864623791831
 13
0.06
 23
3.0441260208359342
 33
2.2568947245874922
  0
3DFACE
  5
3366
  8
CRANE
 10
0.06
 20
3.0441260208359342
 30
2.2568947245874922
 11
0.06
 21
2.991456977213232
 31
2.2107864623791831
 12
0.05
 22
2.991456977213232
 32
2.2107864623791831
 13
0.05
 23
3.0441260208359342
 33
2.2568947245874922
  0
3DFACE
  5
3367
  8
CRANE
 10
0.06
 20
3.0177784424311871
 30
2.2869913209433199
 11
0.06
 21
3.0441260208359342
 31
2.2568947245874922
 12
0.05
 22
3.0441260208359342
 32
2.2568947245874922
 13
0.05
 23
3.0177784424311871
 33
2.2869913209433199
  0
3DFACE
  5
3368
  8
CRANE
 10
0.06
 20
2.9651093988084871
 30
2.240883058735013
 11
0.06
 21
3.0177784424311871
 31
2.2869913209433199
 12
0.05
 22
3.0177784424311871
 32
2.2869913209433199
 13
0.05
 23
2.9651093988084871
 33
2.240883058735013
  0
3DFACE
  5
3369
  8
CRANE
 10
0.05
 20
2.9651093988084871
 30
2.240883058735013
 11
0.05
 21
3.0177784424311871
 31
2.2869913209433199
 12
0.05
 22
3.0441260208359342
 32
2.2568947245874922
 13
0.05
 23
2.991456977213232
 33
2.2107864623791831
  0
3DFACE
  5
336A
  8
CRANE
 10
0.0612132034355964
 20
2.964310274492477
 30
2.24179589108748
 11
0.07
 21
2.9782831880108591
 31
2.2258347605570981
 12
0.0187867965644036
 22
2.964310274492477
 32
2.24179589108748
 13
0.04
 23
2.9585225042072989
 33
2.248407207823969
  0
3DFACE
  5
336B
  8
CRANE
 10
0.07
 20
2.9782831880108591
 30
2.2258347605570981
 11
0.0612132034355964
 21
2.992256101529239
 31
2.209873630026717
 12
0.01
 22
2.9782831880108591
 32
2.2258347605570981
 13
0.0187867965644036
 23
2.964310274492477
 33
2.24179589108748
  0
3DFACE
  5
336C
  8
CRANE
 10
0.0612132034355964
 20
2.992256101529239
 30
2.209873630026717
 11
0.04
 21
2.9980438718144198
 31
2.2032623132902271
 12
0.0187867965644036
 22
2.992256101529239
 32
2.209873630026717
 13
0.01
 23
2.9782831880108591
 33
2.2258347605570981
  0
3DFACE
  5
336D
  8
CRANE
 10
0.03
 20
2.991456977213232
 30
2.210786462379184
 11
0.03
 21
3.0441260208359342
 31
2.2568947245874931
 12
0.03
 22
3.0177784424311862
 32
2.2869913209433208
 13
0.03
 23
2.965109398808484
 33
2.240883058735013
  0
3DFACE
  5
336E
  8
CRANE
 10
0.02
 20
3.0441260208359342
 30
2.2568947245874931
 11
0.02
 21
3.0177784424311862
 31
2.2869913209433208
 12
0.03
 22
3.0177784424311862
 32
2.2869913209433208
 13
0.03
 23
3.0441260208359342
 33
2.2568947245874931
  0
3DFACE
  5
3370
  8
CRANE
 10
0.02
 20
3.0441260208359342
 30
2.2568947245874931
 11
0.02
 21
2.991456977213232
 31
2.210786462379184
 12
0.02
 22
2.965109398808484
 32
2.240883058735013
 13
0.02
 23
3.0177784424311862
 33
2.2869913209433208
  0
3DFACE
  5
3372
  8
CRANE
 10
0.02
 20
3.0177784424311862
 30
2.2869913209433208
 11
0.02
 21
2.965109398808484
 31
2.240883058735013
 12
0.03
 22
2.965109398808484
 32
2.240883058735013
 13
0.03
 23
3.0177784424311862
 33
2.2869913209433208
  0
3DFACE
  5
3373
  8
CRANE
 10
0.02
 20
2.991456977213232
 30
2.210786462379184
 11
0.02
 21
3.0441260208359342
 31
2.2568947245874931
 12
0.03
 22
3.0441260208359342
 32
2.2568947245874931
 13
0.03
 23
2.991456977213232
 33
2.210786462379184
  0
3DFACE
  5
3376
  8
CRANE
 10
-0.02
 20
1.5314476879929491
 30
1.6030396966015921
 11
-0.02
 21
1.5935947649524971
 31
1.635253681536462
 12
-0.01
 22
1.5935947649524971
 32
1.635253681536462
 13
-0.01
 23
1.5314476879929491
 33
1.6030396966015921
  0
3DFACE
  5
3377
  8
CRANE
 10
-0.02
 20
1.513039696601596
 30
1.638552312007048
 11
-0.02
 21
1.575186773561144
 31
1.670766296941919
 12
-0.02
 22
1.5935947649524971
 32
1.635253681536462
 13
-0.02
 23
1.5314476879929491
 33
1.6030396966015921
  0
3DFACE
  5
3378
  8
CRANE
 10
-0.02
 20
1.513039696601596
 30
1.638552312007048
 11
-0.02
 21
1.5314476879929491
 31
1.6030396966015921
 12
-0.01
 22
1.5314476879929491
 32
1.6030396966015921
 13
-0.01
 23
1.513039696601596
 33
1.638552312007048
  0
3DFACE
  5
3379
  8
CRANE
 10
-0.01
 20
1.575186773561144
 30
1.670766296941919
 11
-0.01
 21
1.513039696601596
 31
1.638552312007048
 12
-0.01
 22
1.5314476879929491
 32
1.6030396966015921
 13
-0.01
 23
1.5935947649524971
 33
1.635253681536462
  0
3DFACE
  5
337A
  8
CRANE
 10
0.01
 20
1.5935947649524971
 30
1.6352536815364631
 11
0.01
 21
1.5314476879929491
 31
1.603039696601593
 12
0.01
 22
1.513039696601596
 32
1.6385523120070491
 13
0.01
 23
1.575186773561144
 33
1.670766296941919
  0
3DFACE
  5
337B
  8
CRANE
 10
0.02
 20
1.5935947649524971
 30
1.6352536815364631
 11
0.02
 21
1.5314476879929491
 31
1.603039696601593
 12
0.01
 22
1.5314476879929491
 32
1.603039696601593
 13
0.01
 23
1.5935947649524971
 33
1.6352536815364631
  0
3DFACE
  5
337C
  8
CRANE
 10
0.02
 20
1.5314476879929491
 30
1.603039696601593
 11
0.02
 21
1.513039696601596
 31
1.6385523120070491
 12
0.01
 22
1.513039696601596
 32
1.6385523120070491
 13
0.01
 23
1.5314476879929491
 33
1.603039696601593
  0
3DFACE
  5
337D
  8
CRANE
 10
0.02
 20
1.5314476879929491
 30
1.603039696601593
 11
0.02
 21
1.5935947649524971
 31
1.6352536815364631
 12
0.02
 22
1.575186773561144
 32
1.670766296941919
 13
0.02
 23
1.513039696601596
 33
1.6385523120070491
  0
3DFACE
  5
337E
  8
CRANE
 10
-0.02
 20
1.575186773561144
 30
1.670766296941919
 11
-0.02
 21
1.513039696601596
 31
1.638552312007048
 12
-0.01
 22
1.513039696601596
 32
1.638552312007048
 13
-0.01
 23
1.575186773561144
 33
1.670766296941919
  0
3DFACE
  5
337F
  8
CRANE
 10
0.02
 20
1.513039696601596
 30
1.6385523120070491
 11
0.02
 21
1.575186773561144
 31
1.670766296941919
 12
0.01
 22
1.575186773561144
 32
1.670766296941919
 13
0.01
 23
1.513039696601596
 33
1.6385523120070491
  0
3DFACE
  5
3380
  8
CRANE
 10
0.0212132034355964
 20
1.574628457601184
 30
1.671843397617343
 11
0.0
 21
1.5705847757133049
 31
1.679644450793282
 12
-0.0212132034355964
 22
1.574628457601184
 32
1.671843397617343
 13
-0.03
 23
1.58439076925682
 33
1.653009989239191
  0
3DFACE
  5
3381
  8
CRANE
 10
0.03
 20
1.58439076925682
 30
1.653009989239191
 11
0.0212132034355964
 21
1.574628457601184
 31
1.671843397617343
 12
-0.03
 22
1.58439076925682
 32
1.653009989239191
 13
-0.0212132034355964
 23
1.5941530809124571
 33
1.63417658086104
  0
3DFACE
  5
3382
  8
CRANE
 10
0.0212132034355964
 20
1.5941530809124571
 30
1.63417658086104
 11
0.03
 21
1.58439076925682
 31
1.653009989239191
 12
-0.0212132034355964
 22
1.5941530809124571
 32
1.63417658086104
 13
0.0
 23
1.598196762800336
 33
1.6263755276850991
  0
3DFACE
  5
3383
  8
CRANE
 10
0.8212132034355963
 20
1.5853981220814051
 30
1.064718965695215
 11
0.8
 21
1.579610351796227
 31
1.071330282431705
 12
0.7787867965644036
 22
1.5853981220814051
 32
1.064718965695215
 13
0.7700000000000001
 23
1.599371035599787
 33
1.0487578351648339
  0
3DFACE
  5
3384
  8
CRANE
 10
0.83
 20
1.599371035599787
 30
1.0487578351648339
 11
0.8212132034355963
 21
1.5853981220814051
 31
1.064718965695215
 12
0.7700000000000001
 22
1.599371035599787
 32
1.0487578351648339
 13
0.7787867965644038
 23
1.6133439491181669
 33
1.0327967046344531
  0
3DFACE
  5
3385
  8
CRANE
 10
0.8212132034355963
 20
1.6133439491181669
 30
1.0327967046344531
 11
0.83
 21
1.599371035599787
 31
1.0487578351648339
 12
0.7787867965644038
 22
1.6133439491181669
 32
1.0327967046344531
 13
0.8
 23
1.619131719403345
 33
1.0261853878979621
  0
3DFACE
  5
3386
  8
CRANE
 10
0.7800000000000001
 20
1.5598757811794579
 30
0.9876012747786118
 11
0.7800000000000001
 21
1.6125448248021601
 31
1.0337095369869189
 12
0.7900000000000002
 22
1.6125448248021601
 32
1.0337095369869189
 13
0.7900000000000002
 23
1.5598757811794579
 33
0.9876012747786118
  0
3DFACE
  5
3387
  8
CRANE
 10
0.7800000000000001
 20
1.5335282027747119
 30
1.0176978711344411
 11
0.7800000000000001
 21
1.5861972463974121
 31
1.063806133342748
 12
0.7800000000000001
 22
1.6125448248021601
 32
1.0337095369869189
 13
0.7800000000000001
 23
1.5598757811794579
 33
0.9876012747786118
  0
3DFACE
  5
3388
  8
CRANE
 10
0.7800000000000001
 20
1.5335282027747119
 30
1.0176978711344411
 11
0.7800000000000001
 21
1.5598757811794579
 31
0.9876012747786118
 12
0.7900000000000002
 22
1.5598757811794579
 32
0.9876012747786118
 13
0.7900000000000002
 23
1.5335282027747119
 33
1.0176978711344411
  0
3DFACE
  5
3389
  8
CRANE
 10
0.7900000000000002
 20
1.5861972463974121
 30
1.063806133342748
 11
0.7900000000000002
 21
1.5335282027747119
 31
1.0176978711344411
 12
0.7900000000000002
 22
1.5598757811794579
 32
0.9876012747786118
 13
0.7900000000000002
 23
1.6125448248021601
 33
1.0337095369869189
  0
3DFACE
  5
338A
  8
CRANE
 10
0.8100000000000001
 20
1.6125448248021601
 30
1.03370953698692
 11
0.8100000000000001
 21
1.5598757811794579
 31
0.9876012747786123
 12
0.8100000000000001
 22
1.5335282027747099
 32
1.0176978711344411
 13
0.8100000000000001
 23
1.5861972463974121
 33
1.0638061333427491
  0
3DFACE
  5
338B
  8
CRANE
 10
0.8200000000000001
 20
1.6125448248021601
 30
1.03370953698692
 11
0.8200000000000001
 21
1.5598757811794579
 31
0.9876012747786123
 12
0.8100000000000001
 22
1.5598757811794579
 32
0.9876012747786123
 13
0.8100000000000001
 23
1.6125448248021601
 33
1.03370953698692
  0
3DFACE
  5
338C
  8
CRANE
 10
0.8200000000000001
 20
1.5598757811794579
 30
0.9876012747786123
 11
0.8200000000000001
 21
1.5335282027747099
 31
1.0176978711344411
 12
0.8100000000000001
 22
1.5335282027747099
 32
1.0176978711344411
 13
0.8100000000000001
 23
1.5598757811794579
 33
0.9876012747786123
  0
3DFACE
  5
338D
  8
CRANE
 10
0.8200000000000001
 20
1.5598757811794579
 30
0.9876012747786123
 11
0.8200000000000001
 21
1.6125448248021601
 31
1.03370953698692
 12
0.8200000000000001
 22
1.5861972463974121
 32
1.0638061333427491
 13
0.8200000000000001
 23
1.5335282027747099
 33
1.0176978711344411
  0
3DFACE
  5
338E
  8
CRANE
 10
0.7800000000000001
 20
1.5861972463974121
 30
1.063806133342748
 11
0.7800000000000001
 21
1.5335282027747119
 31
1.0176978711344411
 12
0.7900000000000002
 22
1.5335282027747119
 32
1.0176978711344411
 13
0.7900000000000002
 23
1.5861972463974121
 33
1.063806133342748
  0
3DFACE
  5
338F
  8
CRANE
 10
0.8200000000000001
 20
1.5335282027747099
 30
1.0176978711344411
 11
0.8200000000000001
 21
1.5861972463974121
 31
1.0638061333427491
 12
0.8100000000000001
 22
1.5861972463974121
 32
1.0638061333427491
 13
0.8100000000000001
 23
1.5335282027747099
 33
1.0176978711344411
  0
3DFACE
  5
3390
  8
CRANE
 10
-0.7800000000000001
 20
1.5335282027747099
 30
1.0176978711344411
 11
-0.7800000000000001
 21
1.5861972463974121
 31
1.0638061333427491
 12
-0.7900000000000002
 22
1.5861972463974121
 32
1.0638061333427491
 13
-0.7900000000000002
 23
1.5335282027747099
 33
1.0176978711344411
  0
3DFACE
  5
3391
  8
CRANE
 10
-0.8200000000000001
 20
1.5861972463974121
 30
1.063806133342748
 11
-0.8200000000000001
 21
1.5335282027747119
 31
1.0176978711344411
 12
-0.8100000000000001
 22
1.5335282027747119
 32
1.0176978711344411
 13
-0.8100000000000001
 23
1.5861972463974121
 33
1.063806133342748
  0
3DFACE
  5
3392
  8
CRANE
 10
-0.7800000000000001
 20
1.5598757811794579
 30
0.9876012747786123
 11
-0.7800000000000001
 21
1.6125448248021601
 31
1.03370953698692
 12
-0.7800000000000001
 22
1.5861972463974121
 32
1.0638061333427491
 13
-0.7800000000000001
 23
1.5335282027747099
 33
1.0176978711344411
  0
3DFACE
  5
3393
  8
CRANE
 10
-0.7800000000000001
 20
1.5598757811794579
 30
0.9876012747786123
 11
-0.7800000000000001
 21
1.5335282027747099
 31
1.0176978711344411
 12
-0.7900000000000002
 22
1.5335282027747099
 32
1.0176978711344411
 13
-0.7900000000000002
 23
1.5598757811794579
 33
0.9876012747786123
  0
3DFACE
  5
3394
  8
CRANE
 10
-0.7800000000000001
 20
1.6125448248021601
 30
1.03370953698692
 11
-0.7800000000000001
 21
1.5598757811794579
 31
0.9876012747786123
 12
-0.7900000000000002
 22
1.5598757811794579
 32
0.9876012747786123
 13
-0.7900000000000002
 23
1.6125448248021601
 33
1.03370953698692
  0
3DFACE
  5
3395
  8
CRANE
 10
-0.7900000000000002
 20
1.6125448248021601
 30
1.03370953698692
 11
-0.7900000000000002
 21
1.5598757811794579
 31
0.9876012747786123
 12
-0.7900000000000002
 22
1.5335282027747099
 32
1.0176978711344411
 13
-0.7900000000000002
 23
1.5861972463974121
 33
1.0638061333427491
  0
3DFACE
  5
3396
  8
CRANE
 10
-0.8100000000000001
 20
1.5861972463974121
 30
1.063806133342748
 11
-0.8100000000000001
 21
1.5335282027747119
 31
1.0176978711344411
 12
-0.8100000000000001
 22
1.5598757811794579
 32
0.9876012747786118
 13
-0.8100000000000001
 23
1.6125448248021601
 33
1.0337095369869189
  0
3DFACE
  5
3397
  8
CRANE
 10
-0.8200000000000001
 20
1.5335282027747119
 30
1.0176978711344411
 11
-0.8200000000000001
 21
1.5598757811794579
 31
0.9876012747786118
 12
-0.8100000000000001
 22
1.5598757811794579
 32
0.9876012747786118
 13
-0.8100000000000001
 23
1.5335282027747119
 33
1.0176978711344411
  0
3DFACE
  5
3398
  8
CRANE
 10
-0.8200000000000001
 20
1.5335282027747119
 30
1.0176978711344411
 11
-0.8200000000000001
 21
1.5861972463974121
 31
1.063806133342748
 12
-0.8200000000000001
 22
1.6125448248021601
 32
1.0337095369869189
 13
-0.8200000000000001
 23
1.5598757811794579
 33
0.9876012747786118
  0
3DFACE
  5
3399
  8
CRANE
 10
-0.8200000000000001
 20
1.5598757811794579
 30
0.9876012747786118
 11
-0.8200000000000001
 21
1.6125448248021601
 31
1.0337095369869189
 12
-0.8100000000000001
 22
1.6125448248021601
 32
1.0337095369869189
 13
-0.8100000000000001
 23
1.5598757811794579
 33
0.9876012747786118
  0
3DFACE
  5
339A
  8
CRANE
 10
-0.7787867965644036
 20
1.6133439491181669
 30
1.0327967046344531
 11
-0.7700000000000001
 21
1.599371035599787
 31
1.0487578351648339
 12
-0.8212132034355963
 22
1.6133439491181669
 32
1.0327967046344531
 13
-0.8
 23
1.619131719403345
 33
1.0261853878979621
  0
3DFACE
  5
339B
  8
CRANE
 10
-0.7700000000000001
 20
1.599371035599787
 30
1.0487578351648339
 11
-0.7787867965644038
 21
1.5853981220814051
 31
1.064718965695215
 12
-0.83
 22
1.599371035599787
 32
1.0487578351648339
 13
-0.8212132034355963
 23
1.6133439491181669
 33
1.0327967046344531
  0
3DFACE
  5
339C
  8
CRANE
 10
-0.7787867965644038
 20
1.5853981220814051
 30
1.064718965695215
 11
-0.8
 21
1.579610351796227
 31
1.071330282431705
 12
-0.8212132034355963
 22
1.5853981220814051
 32
1.064718965695215
 13
-0.83
 23
1.599371035599787
 33
1.0487578351648339
  0
3DFACE
  5
339D
  8
CRANE
 10
-0.06
 20
2.991456977213232
 30
2.210786462379184
 11
-0.06
 21
3.0441260208359342
 31
2.2568947245874931
 12
-0.05
 22
3.0441260208359342
 32
2.2568947245874931
 13
-0.05
 23
2.991456977213232
 33
2.210786462379184
  0
3DFACE
  5
339E
  8
CRANE
 10
-0.06
 20
3.0177784424311862
 30
2.2869913209433208
 11
-0.06
 21
2.965109398808484
 31
2.240883058735013
 12
-0.05
 22
2.965109398808484
 32
2.240883058735013
 13
-0.05
 23
3.0177784424311862
 33
2.2869913209433208
  0
3DFACE
  5
339F
  8
CRANE
 10
-0.06
 20
3.0441260208359342
 30
2.2568947245874931
 11
-0.06
 21
2.991456977213232
 31
2.210786462379184
 12
-0.06
 22
2.965109398808484
 32
2.240883058735013
 13
-0.06
 23
3.0177784424311862
 33
2.2869913209433208
  0
3DFACE
  5
33A0
  8
CRANE
 10
-0.06
 20
3.0441260208359342
 30
2.2568947245874931
 11
-0.06
 21
3.0177784424311862
 31
2.2869913209433208
 12
-0.05
 22
3.0177784424311862
 32
2.2869913209433208
 13
-0.05
 23
3.0441260208359342
 33
2.2568947245874931
  0
3DFACE
  5
33A1
  8
CRANE
 10
-0.05
 20
2.991456977213232
 30
2.210786462379184
 11
-0.05
 21
3.0441260208359342
 31
2.2568947245874931
 12
-0.05
 22
3.0177784424311862
 32
2.2869913209433208
 13
-0.05
 23
2.965109398808484
 33
2.240883058735013
  0
3DFACE
  5
33A2
  8
CRANE
 10
-0.0187867965644036
 20
2.992256101529239
 30
2.209873630026717
 11
-0.04
 21
2.9980438718144198
 31
2.2032623132902271
 12
-0.0612132034355964
 22
2.992256101529239
 32
2.209873630026717
 13
-0.07
 23
2.9782831880108591
 33
2.2258347605570981
  0
3DFACE
  5
33A3
  8
CRANE
 10
-0.01
 20
2.9782831880108591
 30
2.2258347605570981
 11
-0.0187867965644036
 21
2.992256101529239
 31
2.209873630026717
 12
-0.07
 22
2.9782831880108591
 32
2.2258347605570981
 13
-0.0612132034355964
 23
2.964310274492477
 33
2.24179589108748
  0
3DFACE
  5
33A4
  8
CRANE
 10
-0.0187867965644036
 20
2.964310274492477
 30
2.24179589108748
 11
-0.01
 21
2.9782831880108591
 31
2.2258347605570981
 12
-0.0612132034355964
 22
2.964310274492477
 32
2.24179589108748
 13
-0.04
 23
2.9585225042072989
 33
2.248407207823969
  0
3DFACE
  5
33A5
  8
CRANE
 10
-0.03
 20
2.9651093988084871
 30
2.240883058735013
 11
-0.03
 21
3.0177784424311871
 31
2.2869913209433199
 12
-0.03
 22
3.0441260208359342
 32
2.2568947245874922
 13
-0.03
 23
2.991456977213232
 33
2.2107864623791831
  0
3DFACE
  5
33A6
  8
CRANE
 10
-0.02
 20
2.9651093988084871
 30
2.240883058735013
 11
-0.02
 21
3.0177784424311871
 31
2.2869913209433199
 12
-0.03
 22
3.0177784424311871
 32
2.2869913209433199
 13
-0.03
 23
2.9651093988084871
 33
2.240883058735013
  0
3DFACE
  5
33A7
  8
CRANE
 10
-0.02
 20
3.0177784424311871
 30
2.2869913209433199
 11
-0.02
 21
3.0441260208359342
 31
2.2568947245874922
 12
-0.03
 22
3.0441260208359342
 32
2.2568947245874922
 13
-0.03
 23
3.0177784424311871
 33
2.2869913209433199
  0
3DFACE
  5
33A8
  8
CRANE
 10
-0.02
 20
3.0441260208359342
 30
2.2568947245874922
 11
-0.02
 21
2.991456977213232
 31
2.2107864623791831
 12
-0.03
 22
2.991456977213232
 32
2.2107864623791831
 13
-0.03
 23
3.0441260208359342
 33
2.2568947245874922
  0
3DFACE
  5
33A9
  8
CRANE
 10
-0.02
 20
3.0177784424311871
 30
2.2869913209433199
 11
-0.02
 21
2.9651093988084871
 31
2.240883058735013
 12
-0.02
 22
2.991456977213232
 32
2.2107864623791831
 13
-0.02
 23
3.0441260208359342
 33
2.2568947245874922
  0
3DFACE
  5
33AA
  8
CRANE
 10
-0.07
 20
2.9782831880108591
 30
2.2258347605570981
 11
-0.0612132034355964
 21
2.992256101529239
 31
2.209873630026717
 12
-0.8212132034355963
 22
1.6133439491181669
 32
1.0327967046344531
 13
-0.83
 23
1.599371035599787
 33
1.0487578351648339
  0
3DFACE
  5
33AB
  8
CRANE
 10
-0.0612132034355964
 20
2.992256101529239
 30
2.209873630026717
 11
-0.04
 21
2.9980438718144198
 31
2.2032623132902271
 12
-0.8
 22
1.619131719403345
 32
1.0261853878979621
 13
-0.8212132034355963
 23
1.6133439491181669
 33
1.0327967046344531
  0
3DFACE
  5
33AC
  8
CRANE
 10
-0.04
 20
2.9585225042072989
 30
2.248407207823969
 11
-0.0612132034355964
 21
2.964310274492477
 31
2.24179589108748
 12
-0.8212132034355963
 22
1.5853981220814051
 32
1.064718965695215
 13
-0.8
 23
1.579610351796227
 33
1.071330282431705
  0
3DFACE
  5
33AD
  8
CRANE
 10
-0.0612132034355964
 20
2.964310274492477
 30
2.24179589108748
 11
-0.07
 21
2.9782831880108591
 31
2.2258347605570981
 12
-0.83
 22
1.599371035599787
 32
1.0487578351648339
 13
-0.8212132034355963
 23
1.5853981220814051
 33
1.064718965695215
  0
3DFACE
  5
33AE
  8
CRANE
 10
-0.01
 20
2.9782831880108591
 30
2.2258347605570981
 11
-0.0187867965644036
 21
2.964310274492477
 31
2.24179589108748
 12
-0.7787867965644036
 22
1.5853981220814051
 32
1.064718965695215
 13
-0.7700000000000001
 23
1.599371035599787
 33
1.0487578351648339
  0
3DFACE
  5
33AF
  8
CRANE
 10
-0.0187867965644036
 20
2.964310274492477
 30
2.24179589108748
 11
-0.04
 21
2.9585225042072989
 31
2.248407207823969
 12
-0.8
 22
1.579610351796227
 32
1.071330282431705
 13
-0.7787867965644036
 23
1.5853981220814051
 33
1.064718965695215
  0
3DFACE
  5
33B0
  8
CRANE
 10
-0.04
 20
2.9980438718144198
 30
2.2032623132902271
 11
-0.0187867965644036
 21
2.992256101529239
 31
2.209873630026717
 12
-0.7787867965644036
 22
1.6133439491181669
 32
1.0327967046344531
 13
-0.8
 23
1.619131719403345
 33
1.0261853878979621
  0
3DFACE
  5
33B1
  8
CRANE
 10
-0.0187867965644036
 20
2.992256101529239
 30
2.209873630026717
 11
-0.01
 21
2.9782831880108591
 31
2.2258347605570981
 12
-0.7700000000000001
 22
1.599371035599787
 32
1.0487578351648339
 13
-0.7787867965644036
 23
1.6133439491181669
 33
1.0327967046344531
  0
3DFACE
  5
33C7
  8
CRANE
 10
0.02
 20
3.0369458470968862
 30
2.4629616104587719
 11
0.02
 21
3.0691641011663631
 31
2.5407433563892901
 12
0.0
 22
3.083306236790095
 32
2.5266012207655608
 13
0.0
 23
3.0569458470968831
 33
2.462961610458771
  0
3DFACE
  5
33C8
  8
CRANE
 10
0.02
 20
3.0691641011663631
 30
2.5407433563892901
 11
0.02
 21
3.1469458470968852
 31
2.5729616104587709
 12
0.0
 22
3.1469458470968892
 32
2.5529616104587731
 13
0.0
 23
3.083306236790095
 33
2.5266012207655608
  0
3DFACE
  5
33C9
  8
CRANE
 10
0.02
 20
3.1469458470968852
 30
2.5729616104587709
 11
0.02
 21
3.2247275930274082
 31
2.5407433563892918
 12
0.0
 22
3.210585457403675
 32
2.5266012207655599
 13
0.0
 23
3.1469458470968892
 33
2.5529616104587731
  0
3DFACE
  5
33CA
  8
CRANE
 10
0.02
 20
3.2247275930274082
 30
2.5407433563892918
 11
0.02
 21
3.2569458470968851
 31
2.462961610458771
 12
0.0
 22
3.2369458470968868
 32
2.4629616104587719
 13
0.0
 23
3.210585457403675
 33
2.5266012207655599
  0
3DFACE
  5
33CB
  8
CRANE
 10
0.02
 20
3.2569458470968851
 30
2.462961610458771
 11
0.02
 21
3.224727593027406
 31
2.385179864528252
 12
0.0
 22
3.2105854574036772
 32
2.3993220001519808
 13
0.0
 23
3.2369458470968868
 33
2.4629616104587719
  0
3DFACE
  5
33CC
  8
CRANE
 10
0.02
 20
3.224727593027406
 30
2.385179864528252
 11
0.02
 21
3.146945847096887
 31
2.3529616104587721
 12
0.0
 22
3.1469458470968852
 32
2.3729616104587699
 13
0.0
 23
3.2105854574036772
 33
2.3993220001519808
  0
3DFACE
  5
33CD
  8
CRANE
 10
0.02
 20
3.146945847096887
 30
2.3529616104587721
 11
0.02
 21
3.0691641011663662
 31
2.3851798645282511
 12
0.0
 22
3.0833062367900972
 32
2.3993220001519822
 13
0.0
 23
3.1469458470968852
 33
2.3729616104587699
  0
3DFACE
  5
33CE
  8
CRANE
 10
0.02
 20
3.0691641011663662
 30
2.3851798645282511
 11
0.02
 21
3.0369458470968862
 31
2.4629616104587719
 12
0.0
 22
3.0569458470968831
 32
2.462961610458771
 13
0.0
 23
3.0833062367900972
 33
2.3993220001519822
  0
3DFACE
  5
33CF
  8
CRANE
 10
0.02
 20
3.0691641011663631
 30
2.5407433563892901
 11
0.02
 21
3.2569458470968851
 31
2.462961610458771
 12
0.02
 22
3.2247275930274082
 32
2.5407433563892918
 13
0.02
 23
3.1469458470968852
 33
2.5729616104587709
  0
3DFACE
  5
33D0
  8
CRANE
 10
0.02
 20
3.0369458470968862
 30
2.4629616104587719
 11
0.02
 21
3.224727593027406
 31
2.385179864528252
 12
0.02
 22
3.2569458470968851
 32
2.462961610458771
 13
0.02
 23
3.0691641011663631
 33
2.5407433563892901
  0
3DFACE
  5
33D1
  8
CRANE
 10
0.02
 20
3.0691641011663662
 30
2.3851798645282511
 11
0.02
 21
3.146945847096887
 31
2.3529616104587721
 12
0.02
 22
3.224727593027406
 32
2.385179864528252
 13
0.02
 23
3.0369458470968862
 33
2.4629616104587719
  0
3DFACE
  5
33D2
  8
CRANE
 10
-0.02
 20
3.2247275930274082
 30
2.5407433563892918
 11
-0.02
 21
3.0369458470968862
 31
2.4629616104587719
 12
-0.02
 22
3.0691641011663631
 32
2.5407433563892901
 13
-0.02
 23
3.1469458470968852
 33
2.5729616104587709
  0
3DFACE
  5
33D3
  8
CRANE
 10
-0.02
 20
3.1469458470968852
 30
2.5729616104587709
 11
-0.02
 21
3.0691641011663631
 31
2.5407433563892901
 12
0.0
 22
3.083306236790095
 32
2.5266012207655608
 13
0.0
 23
3.1469458470968892
 33
2.5529616104587731
  0
3DFACE
  5
33D4
  8
CRANE
 10
-0.02
 20
3.2247275930274082
 30
2.5407433563892918
 11
-0.02
 21
3.1469458470968852
 31
2.5729616104587709
 12
0.0
 22
3.1469458470968892
 32
2.5529616104587731
 13
0.0
 23
3.210585457403675
 33
2.5266012207655599
  0
3DFACE
  5
33D5
  8
CRANE
 10
-0.02
 20
3.224727593027406
 30
2.385179864528252
 11
-0.02
 21
3.146945847096887
 31
2.3529616104587721
 12
-0.02
 22
3.0691641011663662
 32
2.3851798645282511
 13
-0.02
 23
3.2569458470968851
 33
2.462961610458771
  0
3DFACE
  5
33D6
  8
CRANE
 10
-0.02
 20
3.2569458470968851
 30
2.462961610458771
 11
-0.02
 21
3.0691641011663662
 31
2.3851798645282511
 12
-0.02
 22
3.0369458470968862
 32
2.4629616104587719
 13
-0.02
 23
3.2247275930274082
 33
2.5407433563892918
  0
3DFACE
  5
33D7
  8
CRANE
 10
-0.02
 20
3.224727593027406
 30
2.385179864528252
 11
-0.02
 21
3.2569458470968851
 31
2.462961610458771
 12
0.0
 22
3.2369458470968868
 32
2.4629616104587719
 13
0.0
 23
3.2105854574036772
 33
2.3993220001519808
  0
3DFACE
  5
33D8
  8
CRANE
 10
-0.02
 20
3.146945847096887
 30
2.3529616104587721
 11
-0.02
 21
3.224727593027406
 31
2.385179864528252
 12
0.0
 22
3.2105854574036772
 32
2.3993220001519808
 13
0.0
 23
3.1469458470968852
 33
2.3729616104587699
  0
3DFACE
  5
33D9
  8
CRANE
 10
-0.02
 20
3.0691641011663662
 30
2.3851798645282511
 11
-0.02
 21
3.146945847096887
 31
2.3529616104587721
 12
0.0
 22
3.1469458470968852
 32
2.3729616104587699
 13
0.0
 23
3.0833062367900972
 33
2.3993220001519822
  0
3DFACE
  5
33DA
  8
CRANE
 10
-0.02
 20
3.0369458470968862
 30
2.4629616104587719
 11
-0.02
 21
3.0691641011663662
 31
2.3851798645282511
 12
0.0
 22
3.0833062367900972
 32
2.3993220001519822
 13
0.0
 23
3.0569458470968831
 33
2.462961610458771
  0
3DFACE
  5
33DB
  8
CRANE
 10
-0.02
 20
3.0691641011663631
 30
2.5407433563892901
 11
-0.02
 21
3.0369458470968862
 31
2.4629616104587719
 12
0.0
 22
3.0569458470968831
 32
2.462961610458771
 13
0.0
 23
3.083306236790095
 33
2.5266012207655608
  0
3DFACE
  5
33DC
  8
CRANE
 10
-0.02
 20
3.2569458470968851
 30
2.462961610458771
 11
-0.02
 21
3.2247275930274082
 31
2.5407433563892918
 12
0.0
 22
3.210585457403675
 32
2.5266012207655599
 13
0.0
 23
3.2369458470968868
 33
2.4629616104587719
  0
3DFACE
  5
33DE
  8
CRANE
 10
0.02
 20
3.0691641011663662
 30
1.95074335638929
 11
0.02
 21
3.146945847096887
 31
1.9829616104587731
 12
0.0
 22
3.146945847096887
 32
1.962961610458771
 13
0.0
 23
3.083306236790095
 33
1.936601220765563
  0
3DFACE
  5
33DF
  8
CRANE
 10
0.02
 20
3.146945847096887
 30
1.9829616104587731
 11
0.02
 21
3.224727593027406
 31
1.950743356389292
 12
0.0
 22
3.210585457403675
 32
1.936601220765561
 13
0.0
 23
3.146945847096887
 33
1.962961610458771
  0
3DFACE
  5
33E0
  8
CRANE
 10
0.02
 20
3.0691641011663662
 30
1.95074335638929
 11
0.02
 21
3.2569458470968859
 31
1.872961610458773
 12
0.02
 22
3.224727593027406
 32
1.950743356389292
 13
0.02
 23
3.146945847096887
 33
1.9829616104587731
  0
3DFACE
  5
33E1
  8
CRANE
 10
-0.02
 20
3.224727593027406
 30
1.950743356389292
 11
-0.02
 21
3.0369458470968862
 31
1.872961610458773
 12
-0.02
 22
3.0691641011663662
 32
1.95074335638929
 13
-0.02
 23
3.146945847096887
 33
1.9829616104587731
  0
3DFACE
  5
33E2
  8
CRANE
 10
-0.02
 20
3.146945847096887
 30
1.9829616104587731
 11
-0.02
 21
3.0691641011663662
 31
1.95074335638929
 12
0.0
 22
3.083306236790095
 32
1.936601220765563
 13
0.0
 23
3.146945847096887
 33
1.962961610458771
  0
3DFACE
  5
33E3
  8
CRANE
 10
-0.02
 20
3.224727593027406
 30
1.950743356389292
 11
-0.02
 21
3.146945847096887
 31
1.9829616104587731
 12
0.0
 22
3.146945847096887
 32
1.962961610458771
 13
0.0
 23
3.210585457403675
 33
1.936601220765561
  0
3DFACE
  5
33E4
  8
CRANE
 10
0.02
 20
3.0369458470968862
 30
1.872961610458773
 11
0.02
 21
3.0691641011663662
 31
1.95074335638929
 12
0.0
 22
3.083306236790095
 32
1.936601220765563
 13
0.0
 23
3.0569458470968831
 33
1.8729616104587701
  0
3DFACE
  5
33E5
  8
CRANE
 10
0.02
 20
3.224727593027406
 30
1.950743356389292
 11
0.02
 21
3.2569458470968859
 31
1.872961610458773
 12
0.0
 22
3.236945847096889
 32
1.872961610458773
 13
0.0
 23
3.210585457403675
 33
1.936601220765561
  0
3DFACE
  5
33E6
  8
CRANE
 10
0.02
 20
3.0369458470968862
 30
1.872961610458773
 11
0.02
 21
3.224727593027406
 31
1.795179864528252
 12
0.02
 22
3.2569458470968859
 32
1.872961610458773
 13
0.02
 23
3.0691641011663662
 33
1.95074335638929
  0
3DFACE
  5
33E7
  8
CRANE
 10
-0.02
 20
3.2569458470968859
 30
1.872961610458773
 11
-0.02
 21
3.0691641011663631
 31
1.7951798645282491
 12
-0.02
 22
3.0369458470968862
 32
1.872961610458773
 13
-0.02
 23
3.224727593027406
 33
1.950743356389292
  0
3DFACE
  5
33E8
  8
CRANE
 10
-0.02
 20
3.0691641011663662
 30
1.95074335638929
 11
-0.02
 21
3.0369458470968862
 31
1.872961610458773
 12
0.0
 22
3.0569458470968831
 32
1.8729616104587701
 13
0.0
 23
3.083306236790095
 33
1.936601220765563
  0
3DFACE
  5
33E9
  8
CRANE
 10
-0.02
 20
3.2569458470968859
 30
1.872961610458773
 11
-0.02
 21
3.224727593027406
 31
1.950743356389292
 12
0.0
 22
3.210585457403675
 32
1.936601220765561
 13
0.0
 23
3.236945847096889
 33
1.872961610458773
  0
3DFACE
  5
33EA
  8
CRANE
 10
0.02
 20
3.2569458470968859
 30
1.872961610458773
 11
0.02
 21
3.224727593027406
 31
1.795179864528252
 12
0.0
 22
3.210585457403675
 32
1.809322000151981
 13
0.0
 23
3.236945847096889
 33
1.872961610458773
  0
3DFACE
  5
33EB
  8
CRANE
 10
0.02
 20
3.224727593027406
 30
1.795179864528252
 11
0.02
 21
3.146945847096887
 31
1.7629616104587711
 12
0.0
 22
3.146945847096887
 32
1.7829616104587711
 13
0.0
 23
3.210585457403675
 33
1.809322000151981
  0
3DFACE
  5
33EC
  8
CRANE
 10
0.02
 20
3.146945847096887
 30
1.7629616104587711
 11
0.02
 21
3.0691641011663631
 31
1.7951798645282491
 12
0.0
 22
3.083306236790095
 32
1.8093220001519821
 13
0.0
 23
3.146945847096887
 33
1.7829616104587711
  0
3DFACE
  5
33ED
  8
CRANE
 10
0.02
 20
3.0691641011663631
 30
1.7951798645282491
 11
0.02
 21
3.0369458470968862
 31
1.872961610458773
 12
0.0
 22
3.0569458470968831
 32
1.8729616104587701
 13
0.0
 23
3.083306236790095
 33
1.8093220001519821
  0
3DFACE
  5
33EE
  8
CRANE
 10
0.02
 20
3.0691641011663631
 30
1.7951798645282491
 11
0.02
 21
3.146945847096887
 31
1.7629616104587711
 12
0.02
 22
3.224727593027406
 32
1.795179864528252
 13
0.02
 23
3.0369458470968862
 33
1.872961610458773
  0
3DFACE
  5
33EF
  8
CRANE
 10
-0.02
 20
3.224727593027406
 30
1.795179864528252
 11
-0.02
 21
3.146945847096887
 31
1.7629616104587711
 12
-0.02
 22
3.0691641011663631
 32
1.7951798645282491
 13
-0.02
 23
3.2569458470968859
 33
1.872961610458773
  0
3DFACE
  5
33F0
  8
CRANE
 10
-0.02
 20
3.224727593027406
 30
1.795179864528252
 11
-0.02
 21
3.2569458470968859
 31
1.872961610458773
 12
0.0
 22
3.236945847096889
 32
1.872961610458773
 13
0.0
 23
3.210585457403675
 33
1.809322000151981
  0
3DFACE
  5
33F1
  8
CRANE
 10
-0.02
 20
3.146945847096887
 30
1.7629616104587711
 11
-0.02
 21
3.224727593027406
 31
1.795179864528252
 12
0.0
 22
3.210585457403675
 32
1.809322000151981
 13
0.0
 23
3.146945847096887
 33
1.7829616104587711
  0
3DFACE
  5
33F2
  8
CRANE
 10
-0.02
 20
3.0691641011663631
 30
1.7951798645282491
 11
-0.02
 21
3.146945847096887
 31
1.7629616104587711
 12
0.0
 22
3.146945847096887
 32
1.7829616104587711
 13
0.0
 23
3.083306236790095
 33
1.8093220001519821
  0
3DFACE
  5
33F3
  8
CRANE
 10
-0.02
 20
3.0369458470968862
 30
1.872961610458773
 11
-0.02
 21
3.0691641011663631
 31
1.7951798645282491
 12
0.0
 22
3.083306236790095
 32
1.8093220001519821
 13
0.0
 23
3.0569458470968831
 33
1.8729616104587701
  0
3DFACE
  5
3440
  8
CRANE
 10
0.05
 20
3.0169458470968862
 30
1.8529616104587721
 11
0.05
 21
3.276945847096886
 31
1.8529616104587709
 12
0.05
 22
3.2769458470968882
 32
1.892961610458771
 13
0.05
 23
3.016945847096884
 33
1.892961610458771
  0
3DFACE
  5
3441
  8
CRANE
 10
0.05
 20
3.016945847096884
 30
1.892961610458771
 11
0.05
 21
3.2769458470968882
 31
1.892961610458771
 12
0.03
 22
3.2669458470968862
 32
1.8929616104587721
 13
0.03
 23
3.0269458470968882
 33
1.892961610458771
  0
3DFACE
  5
3442
  8
CRANE
 10
-0.05
 20
3.016945847096884
 30
1.892961610458771
 11
0.05
 21
3.016945847096884
 31
1.892961610458771
 12
0.03
 22
3.0269458470968882
 32
1.892961610458771
 13
-0.03
 23
3.0269458470968882
 33
1.892961610458771
  0
3DFACE
  5
3443
  8
CRANE
 10
-0.05
 20
3.0169458470968862
 30
1.8529616104587721
 11
0.05
 21
3.0169458470968862
 31
1.8529616104587721
 12
0.05
 22
3.016945847096884
 32
1.892961610458771
 13
-0.05
 23
3.016945847096884
 33
1.892961610458771
  0
3DFACE
  5
3444
  8
CRANE
 10
-0.05
 20
3.276945847096886
 30
1.8529616104587709
 11
-0.05
 21
3.0169458470968862
 31
1.8529616104587721
 12
-0.05
 22
3.016945847096884
 32
1.892961610458771
 13
-0.05
 23
3.2769458470968882
 33
1.892961610458771
  0
3DFACE
  5
3445
  8
CRANE
 10
-0.05
 20
3.2769458470968882
 30
1.892961610458771
 11
-0.05
 21
3.016945847096884
 31
1.892961610458771
 12
-0.03
 22
3.0269458470968882
 32
1.892961610458771
 13
-0.03
 23
3.2669458470968862
 33
1.8929616104587721
  0
3DFACE
  5
3446
  8
CRANE
 10
0.05
 20
3.2769458470968882
 30
1.892961610458771
 11
-0.05
 21
3.2769458470968882
 31
1.892961610458771
 12
-0.03
 22
3.2669458470968862
 32
1.8929616104587721
 13
0.03
 23
3.2669458470968862
 33
1.8929616104587721
  0
3DFACE
  5
3447
  8
CRANE
 10
0.05
 20
3.276945847096886
 30
1.8529616104587709
 11
-0.05
 21
3.276945847096886
 31
1.8529616104587709
 12
-0.05
 22
3.2769458470968882
 32
1.892961610458771
 13
0.05
 23
3.2769458470968882
 33
1.892961610458771
  0
3DFACE
  5
3448
  8
CRANE
 10
0.03
 20
3.0269458470968882
 30
1.8529616104587741
 11
-0.03
 21
3.0269458470968882
 31
1.8529616104587741
 12
-0.03
 22
3.0269458470968882
 32
1.892961610458771
 13
0.03
 23
3.0269458470968882
 33
1.892961610458771
  0
3DFACE
  5
3449
  8
CRANE
 10
-0.03
 20
3.0269458470968882
 30
1.8529616104587741
 11
-0.03
 21
3.266945847096888
 31
1.8529616104587729
 12
-0.03
 22
3.2669458470968862
 32
1.8929616104587721
 13
-0.03
 23
3.0269458470968882
 33
1.892961610458771
  0
3DFACE
  5
344A
  8
CRANE
 10
-0.03
 20
3.266945847096888
 30
1.8529616104587729
 11
0.03
 21
3.266945847096888
 31
1.8529616104587729
 12
0.03
 22
3.2669458470968862
 32
1.8929616104587721
 13
-0.03
 23
3.2669458470968862
 33
1.8929616104587721
  0
3DFACE
  5
344B
  8
CRANE
 10
0.03
 20
3.266945847096888
 30
1.8529616104587729
 11
0.03
 21
3.0269458470968882
 31
1.8529616104587741
 12
0.03
 22
3.0269458470968882
 32
1.892961610458771
 13
0.03
 23
3.2669458470968862
 33
1.8929616104587721
  0
3DFACE
  5
344E
  8
CRANE
 10
-0.03
 20
3.1669458470968879
 30
1.712961610458771
 11
-0.05
 21
3.1669458470968852
 31
1.6929616104587719
 12
-0.05
 22
3.1669458470968879
 32
1.8529616104587729
 13
-0.03
 23
3.1669458470968879
 33
1.8529616104587729
  0
3DFACE
  5
344F
  8
CRANE
 10
-0.05
 20
3.1669458470968852
 30
1.6929616104587719
 11
-0.05
 21
3.1269458470968869
 31
1.692961610458773
 12
-0.05
 22
3.1269458470968892
 32
1.8529616104587741
 13
-0.05
 23
3.1669458470968879
 33
1.8529616104587729
  0
3DFACE
  5
3450
  8
CRANE
 10
-0.05
 20
3.1269458470968869
 30
1.692961610458773
 11
-0.03
 21
3.1269458470968869
 31
1.712961610458771
 12
-0.03
 22
3.1269458470968892
 32
1.8529616104587741
 13
-0.05
 23
3.1269458470968892
 33
1.8529616104587741
  0
3DFACE
  5
3451
  8
CRANE
 10
-0.03
 20
3.1269458470968869
 30
1.712961610458771
 11
-0.03
 21
3.1669458470968879
 31
1.712961610458771
 12
-0.03
 22
3.1669458470968879
 32
1.8529616104587729
 13
-0.03
 23
3.1269458470968892
 33
1.8529616104587741
  0
3DFACE
  5
3452
  8
CRANE
 10
0.05
 20
3.1269458470968869
 30
1.692961610458773
 11
0.03
 21
3.1269458470968869
 31
1.712961610458771
 12
-0.03
 22
3.1269458470968869
 32
1.712961610458771
 13
-0.05
 23
3.1269458470968869
 33
1.692961610458773
  0
3DFACE
  5
3453
  8
CRANE
 10
0.03
 20
3.1669458470968879
 30
1.712961610458771
 11
0.05
 21
3.1669458470968852
 31
1.6929616104587719
 12
-0.05
 22
3.1669458470968852
 32
1.6929616104587719
 13
-0.03
 23
3.1669458470968879
 33
1.712961610458771
  0
3DFACE
  5
3454
  8
CRANE
 10
0.0300000000000003
 20
3.1669458470968879
 30
1.8529616104587729
 11
0.0499999999999998
 21
3.1669458470968879
 31
1.8529616104587729
 12
0.0499999999999998
 22
3.1669458470968852
 32
1.6929616104587719
 13
0.0300000000000003
 23
3.1669458470968879
 33
1.712961610458771
  0
3DFACE
  5
3455
  8
CRANE
 10
0.0499999999999998
 20
3.1269458470968892
 30
1.8529616104587741
 11
0.0300000000000003
 21
3.1269458470968892
 31
1.8529616104587741
 12
0.0300000000000003
 22
3.1269458470968869
 32
1.712961610458771
 13
0.0499999999999998
 23
3.1269458470968869
 33
1.692961610458773
  0
3DFACE
  5
3458
  8
CRANE
 10
0.03
 20
3.1269458470968869
 30
1.712961610458771
 11
0.03
 21
3.1669458470968879
 31
1.712961610458771
 12
-0.03
 22
3.1669458470968879
 32
1.712961610458771
 13
-0.03
 23
3.1269458470968869
 33
1.712961610458771
  0
3DFACE
  5
3459
  8
CRANE
 10
0.03
 20
3.1269458470968892
 30
1.8529616104587741
 11
0.03
 21
3.1669458470968879
 31
1.8529616104587729
 12
0.03
 22
3.1669458470968879
 32
1.712961610458771
 13
0.03
 23
3.1269458470968869
 33
1.712961610458771
  0
3DFACE
  5
345A
  8
CRANE
 10
0.01
 20
3.1669458470968852
 30
1.6929616104587719
 11
0.01
 21
3.1569458470968832
 31
1.6429616104587721
 12
-0.01
 22
3.1569458470968832
 32
1.6429616104587721
 13
-0.01
 23
3.1669458470968852
 33
1.6929616104587719
  0
3DFACE
  5
345E
  8
CRANE
 10
0.01
 20
3.1269458470968869
 30
1.692961610458773
 11
0.01
 21
3.1369458470968872
 31
1.6429616104587701
 12
0.01
 22
3.1569458470968832
 32
1.6429616104587721
 13
0.01
 23
3.1669458470968852
 33
1.6929616104587719
  0
3DFACE
  5
345F
  8
CRANE
 10
-0.01
 20
3.1669458470968852
 30
1.6929616104587719
 11
-0.01
 21
3.1569458470968832
 31
1.6429616104587721
 12
-0.01
 22
3.1369458470968872
 32
1.6429616104587701
 13
-0.01
 23
3.1269458470968869
 33
1.692961610458773
  0
3DFACE
  5
3460
  8
CRANE
 10
-0.01
 20
3.1269458470968869
 30
1.692961610458773
 11
-0.01
 21
3.1369458470968872
 31
1.6429616104587701
 12
0.01
 22
3.1369458470968872
 32
1.6429616104587701
 13
0.01
 23
3.1269458470968869
 33
1.692961610458773
  0
3DFACE
  5
3461
  8
CRANE
 10
-0.01
 20
3.1569458470968832
 30
1.6429616104587721
 11
-0.01
 21
3.1569458470968872
 31
1.6229616104587721
 12
-0.01
 22
3.1169458470968858
 32
1.6029616104587721
 13
-0.01
 23
3.1369458470968872
 33
1.6429616104587701
  0
3DFACE
  5
3462
  8
CRANE
 10
0.01
 20
3.1369458470968872
 30
1.6429616104587701
 11
0.01
 21
3.1169458470968858
 31
1.6029616104587721
 12
0.01
 22
3.1569458470968872
 32
1.6229616104587721
 13
0.01
 23
3.1569458470968832
 33
1.6429616104587721
  0
3DFACE
  5
3463
  8
CRANE
 10
0.01
 20
3.1169458470968858
 30
1.542961610458772
 11
0.01
 21
3.0869458470968851
 31
1.5329616104587711
 12
0.01
 22
3.1469458470968852
 32
1.4829616104587711
 13
0.01
 23
3.1469458470968852
 33
1.522961610458772
  0
3DFACE
  5
3464
  8
CRANE
 10
-0.01
 20
3.1469458470968852
 30
1.522961610458772
 11
-0.01
 21
3.1469458470968852
 31
1.4829616104587711
 12
-0.01
 22
3.0869458470968851
 32
1.5329616104587711
 13
-0.01
 23
3.1169458470968858
 33
1.542961610458772
  0
3DFACE
  5
3465
  8
CRANE
 10
-0.01
 20
3.1169458470968858
 30
1.542961610458772
 11
-0.01
 21
3.0869458470968851
 31
1.5329616104587711
 12
-0.01
 22
3.086945847096886
 32
1.6029616104587701
 13
-0.01
 23
3.1169458470968858
 33
1.6029616104587721
  0
3DFACE
  5
3466
  8
CRANE
 10
0.01
 20
3.1169458470968858
 30
1.6029616104587721
 11
0.01
 21
3.086945847096886
 31
1.6029616104587701
 12
0.01
 22
3.0869458470968851
 32
1.5329616104587711
 13
0.01
 23
3.1169458470968858
 33
1.542961610458772
  0
3DFACE
  5
3467
  8
CRANE
 10
0.01
 20
3.1369458470968872
 30
1.6429616104587701
 11
0.01
 21
3.1369458470968872
 31
1.6429616104587701
 12
0.01
 22
3.086945847096886
 32
1.6029616104587701
 13
0.01
 23
3.1169458470968858
 33
1.6029616104587721
  0
3DFACE
  5
3468
  8
CRANE
 10
-0.01
 20
3.1169458470968858
 30
1.6029616104587721
 11
-0.01
 21
3.086945847096886
 31
1.6029616104587701
 12
-0.01
 22
3.1369458470968872
 32
1.6429616104587701
 13
-0.01
 23
3.1369458470968872
 33
1.6429616104587701
  0
3DFACE
  5
3469
  8
CRANE
 10
-0.01
 20
3.1469458470968852
 30
1.4829616104587711
 11
-0.01
 21
3.1469458470968852
 31
1.522961610458772
 12
-0.01
 22
3.206945847096887
 32
1.5529616104587729
 13
-0.01
 23
3.206945847096887
 33
1.5529616104587729
  0
3DFACE
  5
346A
  8
CRANE
 10
0.01
 20
3.206945847096887
 30
1.5529616104587729
 11
0.01
 21
3.206945847096887
 31
1.5529616104587729
 12
0.01
 22
3.1469458470968852
 32
1.522961610458772
 13
0.01
 23
3.1469458470968852
 33
1.4829616104587711
  0
3DFACE
  5
346B
  8
CRANE
 10
0.01
 20
3.1569458470968832
 30
1.6429616104587721
 11
0.01
 21
3.1569458470968872
 31
1.6229616104587721
 12
-0.01
 22
3.1569458470968872
 32
1.6229616104587721
 13
-0.01
 23
3.1569458470968832
 33
1.6429616104587721
  0
3DFACE
  5
346C
  8
CRANE
 10
-0.01
 20
3.1369458470968872
 30
1.6429616104587701
 11
-0.01
 21
3.086945847096886
 31
1.6029616104587701
 12
0.01
 22
3.086945847096886
 32
1.6029616104587701
 13
0.01
 23
3.1369458470968872
 33
1.6429616104587701
  0
3DFACE
  5
346D
  8
CRANE
 10
0.01
 20
3.1569458470968872
 30
1.6229616104587721
 11
0.01
 21
3.1169458470968858
 31
1.6029616104587721
 12
-0.01
 22
3.1169458470968858
 32
1.6029616104587721
 13
-0.01
 23
3.1569458470968872
 33
1.6229616104587721
  0
3DFACE
  5
346E
  8
CRANE
 10
-0.01
 20
3.086945847096886
 30
1.6029616104587701
 11
-0.01
 21
3.0869458470968851
 31
1.5329616104587711
 12
0.01
 22
3.0869458470968851
 32
1.5329616104587711
 13
0.01
 23
3.086945847096886
 33
1.6029616104587701
  0
3DFACE
  5
346F
  8
CRANE
 10
0.01
 20
3.1169458470968858
 30
1.6029616104587721
 11
0.01
 21
3.1169458470968858
 31
1.542961610458772
 12
-0.01
 22
3.1169458470968858
 32
1.542961610458772
 13
-0.01
 23
3.1169458470968858
 33
1.6029616104587721
  0
3DFACE
  5
3470
  8
CRANE
 10
0.01
 20
3.1169458470968858
 30
1.542961610458772
 11
0.01
 21
3.1469458470968852
 31
1.522961610458772
 12
-0.01
 22
3.1469458470968852
 32
1.522961610458772
 13
-0.01
 23
3.1169458470968858
 33
1.542961610458772
  0
3DFACE
  5
3471
  8
CRANE
 10
0.01
 20
3.1469458470968852
 30
1.522961610458772
 11
0.01
 21
3.206945847096887
 31
1.5529616104587729
 12
-0.01
 22
3.206945847096887
 32
1.5529616104587729
 13
-0.01
 23
3.1469458470968852
 33
1.522961610458772
  0
3DFACE
  5
3472
  8
CRANE
 10
0.01
 20
3.206945847096887
 30
1.5529616104587729
 11
0.01
 21
3.1469458470968852
 31
1.4829616104587711
 12
-0.01
 22
3.1469458470968852
 32
1.4829616104587711
 13
-0.01
 23
3.206945847096887
 33
1.5529616104587729
  0
3DFACE
  5
3473
  8
CRANE
 10
-0.01
 20
3.0869458470968851
 30
1.5329616104587711
 11
-0.01
 21
3.1469458470968852
 31
1.4829616104587711
 12
0.01
 22
3.1469458470968852
 32
1.4829616104587711
 13
0.01
 23
3.0869458470968851
 33
1.5329616104587711
  0
3DFACE
  5
34A4
  8
CRANE
 10
-0.01
 20
3.0469458470968869
 30
1.872961610458773
 11
0.0
 21
3.0569458470968871
 31
1.872961610458771
 12
-0.0000000000000002
 22
3.083306236790095
 32
1.8093220001519821
 13
-0.0100000000000002
 23
3.0762351689782319
 33
1.802250932340115
  0
3DFACE
  5
34A5
  8
CRANE
 10
0.0
 20
3.0569458470968871
 30
1.872961610458771
 11
0.01
 21
3.0469458470968869
 31
1.872961610458773
 12
0.01
 22
3.0762351689782319
 32
1.802250932340115
 13
-0.0000000000000002
 23
3.083306236790095
 33
1.8093220001519821
  0
3DFACE
  5
34A6
  8
CRANE
 10
0.01
 20
3.0469458470968869
 30
1.872961610458773
 11
0.0
 21
3.0369458470968862
 31
1.872961610458773
 12
-0.0000000000000002
 22
3.0691641011663631
 32
1.7951798645282491
 13
0.01
 23
3.0762351689782319
 33
1.802250932340115
  0
3DFACE
  5
34A7
  8
CRANE
 10
0.0
 20
3.0369458470968862
 30
1.872961610458773
 11
-0.01
 21
3.0469458470968869
 31
1.872961610458773
 12
-0.0100000000000002
 22
3.0762351689782319
 32
1.802250932340115
 13
-0.0000000000000002
 23
3.0691641011663631
 33
1.7951798645282491
  0
3DFACE
  5
34A8
  8
CRANE
 10
-0.0100000000000002
 20
3.0762351689782319
 30
1.802250932340115
 11
-0.0000000000000002
 21
3.083306236790095
 31
1.8093220001519821
 12
-0.0000000000000002
 22
3.1469458470968852
 32
1.7829616104587731
 13
-0.0100000000000002
 23
3.1469458470968852
 33
1.772961610458772
  0
3DFACE
  5
34A9
  8
CRANE
 10
-0.0000000000000002
 20
3.083306236790095
 30
1.8093220001519821
 11
0.01
 21
3.0762351689782319
 31
1.802250932340115
 12
0.0099999999999996
 22
3.1469458470968852
 32
1.772961610458772
 13
-0.0000000000000002
 23
3.1469458470968852
 33
1.7829616104587731
  0
3DFACE
  5
34AA
  8
CRANE
 10
0.01
 20
3.0762351689782319
 30
1.802250932340115
 11
-0.0000000000000002
 21
3.0691641011663631
 31
1.7951798645282491
 12
-0.0000000000000002
 22
3.1469458470968892
 32
1.762961610458772
 13
0.0099999999999996
 23
3.1469458470968852
 33
1.772961610458772
  0
3DFACE
  5
34AB
  8
CRANE
 10
-0.0000000000000002
 20
3.0691641011663631
 30
1.7951798645282491
 11
-0.0100000000000002
 21
3.0762351689782319
 31
1.802250932340115
 12
-0.0100000000000002
 22
3.1469458470968852
 32
1.772961610458772
 13
-0.0000000000000002
 23
3.1469458470968892
 33
1.762961610458772
  0
3DFACE
  5
34AC
  8
CRANE
 10
-0.0100000000000002
 20
3.1469458470968852
 30
1.772961610458772
 11
-0.0000000000000002
 21
3.1469458470968852
 31
1.7829616104587731
 12
-0.0000000000000002
 22
3.210585457403675
 32
1.809322000151981
 13
-0.0100000000000002
 23
3.2176565252155429
 33
1.802250932340119
  0
3DFACE
  5
34AD
  8
CRANE
 10
-0.0000000000000002
 20
3.1469458470968852
 30
1.7829616104587731
 11
0.0099999999999996
 21
3.1469458470968852
 31
1.772961610458772
 12
0.01
 22
3.2176565252155429
 32
1.802250932340119
 13
-0.0000000000000002
 23
3.210585457403675
 33
1.809322000151981
  0
3DFACE
  5
34AE
  8
CRANE
 10
0.0099999999999996
 20
3.1469458470968852
 30
1.772961610458772
 11
-0.0000000000000002
 21
3.1469458470968892
 31
1.762961610458772
 12
-0.0000000000000002
 22
3.224727593027406
 32
1.7951798645282511
 13
0.01
 23
3.2176565252155429
 33
1.802250932340119
  0
3DFACE
  5
34AF
  8
CRANE
 10
-0.0000000000000002
 20
3.1469458470968892
 30
1.762961610458772
 11
-0.0100000000000002
 21
3.1469458470968852
 31
1.772961610458772
 12
-0.0100000000000002
 22
3.2176565252155429
 32
1.802250932340119
 13
-0.0000000000000002
 23
3.224727593027406
 33
1.7951798645282511
  0
3DFACE
  5
34B0
  8
CRANE
 10
-0.0100000000000002
 20
3.2176565252155429
 30
1.802250932340119
 11
-0.0000000000000002
 21
3.210585457403675
 31
1.809322000151981
 12
0.0
 22
3.236945847096885
 32
1.872961610458771
 13
-0.01
 23
3.2469458470968871
 33
1.872961610458771
  0
3DFACE
  5
34B1
  8
CRANE
 10
-0.0000000000000002
 20
3.210585457403675
 30
1.809322000151981
 11
0.01
 21
3.2176565252155429
 31
1.802250932340119
 12
0.01
 22
3.2469458470968871
 32
1.872961610458771
 13
0.0
 23
3.236945847096885
 33
1.872961610458771
  0
3DFACE
  5
34B2
  8
CRANE
 10
0.01
 20
3.2176565252155429
 30
1.802250932340119
 11
-0.0000000000000002
 21
3.224727593027406
 31
1.7951798645282511
 12
0.0
 22
3.2569458470968859
 32
1.872961610458773
 13
0.01
 23
3.2469458470968871
 33
1.872961610458771
  0
3DFACE
  5
34B3
  8
CRANE
 10
-0.0000000000000002
 20
3.224727593027406
 30
1.7951798645282511
 11
-0.0100000000000002
 21
3.2176565252155429
 31
1.802250932340119
 12
-0.01
 22
3.2469458470968871
 32
1.872961610458771
 13
0.0
 23
3.2569458470968859
 33
1.872961610458773
  0
3DFACE
  5
34B4
  8
CRANE
 10
-0.01
 20
3.2469458470968871
 30
2.462961610458771
 11
0.0
 21
3.236945847096885
 31
2.462961610458771
 12
0.0
 22
3.210585457403675
 32
2.5266012207655599
 13
-0.01
 23
3.217656525215542
 33
2.533672288577427
  0
3DFACE
  5
34B5
  8
CRANE
 10
0.0
 20
3.236945847096885
 30
2.462961610458771
 11
0.01
 21
3.2469458470968871
 31
2.462961610458771
 12
0.01
 22
3.217656525215542
 32
2.533672288577427
 13
0.0
 23
3.210585457403675
 33
2.5266012207655599
  0
3DFACE
  5
34B6
  8
CRANE
 10
0.01
 20
3.2469458470968871
 30
2.462961610458771
 11
0.0
 21
3.2569458470968851
 31
2.462961610458771
 12
0.0
 22
3.2247275930274082
 32
2.5407433563892918
 13
0.01
 23
3.217656525215542
 33
2.533672288577427
  0
3DFACE
  5
34B7
  8
CRANE
 10
0.0
 20
3.2569458470968851
 30
2.462961610458771
 11
-0.01
 21
3.2469458470968871
 31
2.462961610458771
 12
-0.01
 22
3.217656525215542
 32
2.533672288577427
 13
0.0
 23
3.2247275930274082
 33
2.5407433563892918
  0
3DFACE
  5
34B8
  8
CRANE
 10
-0.01
 20
3.217656525215542
 30
2.533672288577427
 11
0.0
 21
3.210585457403675
 31
2.5266012207655599
 12
0.0
 22
3.146945847096887
 32
2.55296161045877
 13
-0.01
 23
3.1469458470968852
 33
2.5629616104587698
  0
3DFACE
  5
34B9
  8
CRANE
 10
0.0
 20
3.210585457403675
 30
2.5266012207655599
 11
0.01
 21
3.217656525215542
 31
2.533672288577427
 12
0.01
 22
3.1469458470968852
 32
2.5629616104587698
 13
0.0
 23
3.146945847096887
 33
2.55296161045877
  0
3DFACE
  5
34BA
  8
CRANE
 10
0.01
 20
3.217656525215542
 30
2.533672288577427
 11
0.0
 21
3.2247275930274082
 31
2.5407433563892918
 12
0.0
 22
3.1469458470968852
 32
2.5729616104587709
 13
0.01
 23
3.1469458470968852
 33
2.5629616104587698
  0
3DFACE
  5
34BB
  8
CRANE
 10
0.0
 20
3.2247275930274082
 30
2.5407433563892918
 11
-0.01
 21
3.217656525215542
 31
2.533672288577427
 12
-0.01
 22
3.1469458470968852
 32
2.5629616104587698
 13
0.0
 23
3.1469458470968852
 33
2.5729616104587709
  0
3DFACE
  5
34BC
  8
CRANE
 10
-0.01
 20
3.1469458470968852
 30
2.5629616104587698
 11
0.0
 21
3.146945847096887
 31
2.55296161045877
 12
0.0
 22
3.0833062367900972
 32
2.526601220765563
 13
-0.01
 23
3.0762351689782341
 33
2.5336722885774279
  0
3DFACE
  5
34BD
  8
CRANE
 10
0.0
 20
3.146945847096887
 30
2.55296161045877
 11
0.01
 21
3.1469458470968852
 31
2.5629616104587698
 12
0.01
 22
3.0762351689782341
 32
2.5336722885774279
 13
0.0
 23
3.0833062367900972
 33
2.526601220765563
  0
3DFACE
  5
34BE
  8
CRANE
 10
0.01
 20
3.1469458470968852
 30
2.5629616104587698
 11
0.0
 21
3.1469458470968852
 31
2.5729616104587709
 12
0.0
 22
3.0691641011663631
 32
2.5407433563892918
 13
0.01
 23
3.0762351689782341
 33
2.5336722885774279
  0
3DFACE
  5
34BF
  8
CRANE
 10
0.0
 20
3.1469458470968852
 30
2.5729616104587709
 11
-0.01
 21
3.1469458470968852
 31
2.5629616104587698
 12
-0.01
 22
3.0762351689782341
 32
2.5336722885774279
 13
0.0
 23
3.0691641011663631
 33
2.5407433563892918
  0
3DFACE
  5
34C0
  8
CRANE
 10
-0.01
 20
3.0762351689782341
 30
2.5336722885774279
 11
0.0
 21
3.0833062367900972
 31
2.526601220765563
 12
0.0
 22
3.0569458470968849
 32
2.462961610458771
 13
-0.01
 23
3.0469458470968851
 33
2.4629616104587719
  0
3DFACE
  5
34C1
  8
CRANE
 10
0.0
 20
3.0833062367900972
 30
2.526601220765563
 11
0.01
 21
3.0762351689782341
 31
2.5336722885774279
 12
0.01
 22
3.0469458470968851
 32
2.4629616104587719
 13
0.0
 23
3.0569458470968849
 33
2.462961610458771
  0
3DFACE
  5
34C2
  8
CRANE
 10
0.01
 20
3.0762351689782341
 30
2.5336722885774279
 11
0.0
 21
3.0691641011663631
 31
2.5407433563892918
 12
0.0
 22
3.0369458470968862
 32
2.4629616104587719
 13
0.01
 23
3.0469458470968851
 33
2.4629616104587719
  0
3DFACE
  5
34C3
  8
CRANE
 10
0.0
 20
3.0691641011663631
 30
2.5407433563892918
 11
-0.01
 21
3.0762351689782341
 31
2.5336722885774279
 12
-0.01
 22
3.0469458470968851
 32
2.4629616104587719
 13
0.0
 23
3.0369458470968862
 33
2.4629616104587719
  0
3DFACE
  5
34CE
  8
CRANE
 10
0.01
 20
3.0469458470968869
 30
1.872961610458773
 11
0.0
 21
3.0569458470968871
 31
1.872961610458771
 12
0.0
 22
3.0569458470968849
 32
2.462961610458771
 13
0.01
 23
3.0469458470968851
 33
2.4629616104587719
  0
3DFACE
  5
34CF
  8
CRANE
 10
0.0
 20
3.0569458470968871
 30
1.872961610458771
 11
-0.01
 21
3.0469458470968869
 31
1.872961610458773
 12
-0.01
 22
3.0469458470968851
 32
2.4629616104587719
 13
0.0
 23
3.0569458470968849
 33
2.462961610458771
  0
3DFACE
  5
34D0
  8
CRANE
 10
-0.01
 20
3.0469458470968869
 30
1.872961610458773
 11
0.0
 21
3.0369458470968862
 31
1.872961610458773
 12
0.0
 22
3.0369458470968862
 32
2.4629616104587719
 13
-0.01
 23
3.0469458470968851
 33
2.4629616104587719
  0
3DFACE
  5
34D1
  8
CRANE
 10
0.0
 20
3.0369458470968862
 30
1.872961610458773
 11
0.01
 21
3.0469458470968869
 31
1.872961610458773
 12
0.01
 22
3.0469458470968851
 32
2.4629616104587719
 13
0.0
 23
3.0369458470968862
 33
2.4629616104587719
  0
3DFACE
  5
34D2
  8
CRANE
 10
0.01
 20
3.2469458470968871
 30
1.872961610458771
 11
0.0
 21
3.2569458470968859
 31
1.872961610458773
 12
0.0
 22
3.2569458470968851
 32
2.462961610458771
 13
0.01
 23
3.2469458470968871
 33
2.462961610458771
  0
3DFACE
  5
34D3
  8
CRANE
 10
0.0
 20
3.2569458470968859
 30
1.872961610458773
 11
-0.01
 21
3.2469458470968871
 31
1.872961610458771
 12
-0.01
 22
3.2469458470968871
 32
2.462961610458771
 13
0.0
 23
3.2569458470968851
 33
2.462961610458771
  0
3DFACE
  5
34D4
  8
CRANE
 10
-0.01
 20
3.2469458470968871
 30
1.872961610458771
 11
0.0
 21
3.236945847096885
 31
1.872961610458771
 12
0.0
 22
3.236945847096885
 32
2.462961610458771
 13
-0.01
 23
3.2469458470968871
 33
2.462961610458771
  0
3DFACE
  5
34D5
  8
CRANE
 10
0.0
 20
3.236945847096885
 30
1.872961610458771
 11
0.01
 21
3.2469458470968871
 31
1.872961610458771
 12
0.01
 22
3.2469458470968871
 32
2.462961610458771
 13
0.0
 23
3.236945847096885
 33
2.462961610458771
  0
VIEWPORT
  5
2E
 67
     1
  8
0
 10
144.7270812988281
 20
101.2295806407928
 30
0.0
 40
391.13550988316581
 41
222.15178063964839
 68
     2
 69
     1
1001
ACAD
1000
MVIEW
1002
{
1070
    16
1010
0.0
1020
0.0
1030
0.0
1010
0.0
1020
0.0
1030
1.0
1040
0.0
1040
222.15178063964839
1040
144.7270812988281
1040
101.2295806407928
1040
50.0
1040
0.0
1040
0.0
1070
     0
1070
   100
1070
     1
1070
     1
1070
     0
1070
     0
1070
     0
1070
     0
1040
0.0
1040
0.0
1040
0.0
1040
10.0
1040
10.0
1040
10.0
1040
10.0
1070
     0
1002
{
1002
}
1002
}
  0
VIEWPORT
  5
30
 67
     1
  8
0
 10
139.22375631332389
 20
100.8062499761581
 30
0.0
 40
222.75801010131829
 41
161.289999961853
 68
     1
 69
     2
1001
ACAD
1000
MVIEW
1002
{
1070
    16
1010
0.0
1020
0.0
1030
0.0
1010
0.0
1020
0.0
1030
1.0
1040
0.0
1040
307.49010134148989
1040
210.0
1040
148.5
1040
50.0
1040
0.0
1040
0.0
1070
     0
1070
   100
1070
     1
1070
     3
1070
     0
1070
     1
1070
     0
1070
     0
1040
0.0
1040
0.0
1040
0.0
1040
10.0
1040
10.0
1040
10.0
1040
10.0
1070
     0
1002
{
1002
}
1002
}
  0
ENDSEC
  0
EOF
