  0
SECTION
  2
HEADER
  9
$ACADVER
  1
AC1009
  9
$INSBASE
 10
0.0
 20
0.0
 30
0.0
  9
$EXTMIN
 10
-1.25
 20
-7.6677143261509073
 30
-10.967629999999991
  9
$EXTMAX
 10
1.25
 20
13.49573799999999
 30
26.047798455214501
  9
$LIMMIN
 10
0.0
 20
0.0
  9
$LIMMAX
 10
420.0
 20
297.0
  9
$ORTHOMODE
 70
     1
  9
$REGENMODE
 70
     1
  9
$FILLMODE
 70
     1
  9
$QTEXTMODE
 70
     0
  9
$MIRRTEXT
 70
     1
  9
$DRAGMODE
 70
     2
  9
$LTSCALE
 40
1.0
  9
$OSMODE
 70
    35
  9
$ATTMODE
 70
     1
  9
$TEXTSIZE
 40
2.5
  9
$TRACEWID
 40
1.0
  9
$TEXTSTYLE
  7
STANDARD
  9
$CLAYER
  8
TOOLS
  9
$CELTYPE
  6
BYLAYER
  9
$CECOLOR
 62
   256
  9
$DIMSCALE
 40
1.0
  9
$DIMASZ
 40
2.5
  9
$DIMEXO
 40
0.625
  9
$DIMDLI
 40
3.75
  9
$DIMRND
 40
0.0
  9
$DIMDLE
 40
0.0
  9
$DIMEXE
 40
1.25
  9
$DIMTP
 40
0.0
  9
$DIMTM
 40
0.0
  9
$DIMTXT
 40
2.5
  9
$DIMCEN
 40
2.5
  9
$DIMTSZ
 40
0.0
  9
$DIMTOL
 70
     0
  9
$DIMLIM
 70
     0
  9
$DIMTIH
 70
     0
  9
$DIMTOH
 70
     0
  9
$DIMSE1
 70
     0
  9
$DIMSE2
 70
     0
  9
$DIMTAD
 70
     1
  9
$DIMZIN
 70
     8
  9
$DIMBLK
  1

  9
$DIMASO
 70
     1
  9
$DIMSHO
 70
     1
  9
$DIMPOST
  1

  9
$DIMAPOST
  1

  9
$DIMALT
 70
     0
  9
$DIMALTD
 70
     3
  9
$DIMALTF
 40
0.03937007874016
  9
$DIMLFAC
 40
1.0
  9
$DIMTOFL
 70
     1
  9
$DIMTVP
 40
0.0
  9
$DIMTIX
 70
     0
  9
$DIMSOXD
 70
     0
  9
$DIMSAH
 70
     0
  9
$DIMBLK1
  1

  9
$DIMBLK2
  1

  9
$DIMSTYLE
  2
ISO-25
  9
$DIMCLRD
 70
     0
  9
$DIMCLRE
 70
     0
  9
$DIMCLRT
 70
     0
  9
$DIMTFAC
 40
1.0
  9
$DIMGAP
 40
0.625
  9
$LUNITS
 70
     2
  9
$LUPREC
 70
     4
  9
$SKETCHINC
 40
1.0
  9
$FILLETRAD
 40
10.0
  9
$AUNITS
 70
     0
  9
$AUPREC
 70
     0
  9
$MENU
  1
.
  9
$ELEVATION
 40
0.0
  9
$PELEVATION
 40
0.0
  9
$THICKNESS
 40
0.0
  9
$LIMCHECK
 70
     0
  9
$BLIPMODE
 70
     0
  9
$CHAMFERA
 40
10.0
  9
$CHAMFERB
 40
10.0
  9
$SKPOLY
 70
     0
  9
$TDCREATE
 40
2458132.5492163659
  9
$TDUPDATE
 40
2458135.0700165508
  9
$TDINDWG
 40
1.5789146875
  9
$TDUSRTIMER
 40
1.5789146875
  9
$USRTIMER
 70
     1
  9
$ANGBASE
 50
0.0
  9
$ANGDIR
 70
     0
  9
$PDMODE
 70
     0
  9
$PDSIZE
 40
0.0
  9
$PLINEWID
 40
0.0
  9
$COORDS
 70
     1
  9
$SPLFRAME
 70
     0
  9
$SPLINETYPE
 70
     6
  9
$SPLINESEGS
 70
     8
  9
$ATTDIA
 70
     1
  9
$ATTREQ
 70
     1
  9
$HANDLING
 70
-16383
  9
$HANDSEED
  5
27E2
  9
$SURFTAB1
 70
     6
  9
$SURFTAB2
 70
     6
  9
$SURFTYPE
 70
     6
  9
$SURFU
 70
     6
  9
$SURFV
 70
     6
  9
$UCSNAME
  2

  9
$UCSORG
 10
0.0
 20
0.0
 30
0.0
  9
$UCSXDIR
 10
0.0
 20
-1.0
 30
0.0
  9
$UCSYDIR
 10
0.0
 20
0.0
 30
1.0
  9
$PUCSNAME
  2

  9
$PUCSORG
 10
0.0
 20
0.0
 30
0.0
  9
$PUCSXDIR
 10
1.0
 20
0.0
 30
0.0
  9
$PUCSYDIR
 10
0.0
 20
1.0
 30
0.0
  9
$USERI1
 70
     0
  9
$USERI2
 70
     0
  9
$USERI3
 70
     0
  9
$USERI4
 70
     0
  9
$USERI5
 70
     0
  9
$USERR1
 40
0.0
  9
$USERR2
 40
0.0
  9
$USERR3
 40
0.0
  9
$USERR4
 40
0.0
  9
$USERR5
 40
0.0
  9
$WORLDVIEW
 70
     1
  9
$SHADEDGE
 70
     3
  9
$SHADEDIF
 70
    70
  9
$TILEMODE
 70
     1
  9
$MAXACTVP
 70
    64
  9
$PLIMCHECK
 70
     0
  9
$PEXTMIN
 10
27.844751262664801
 20
20.161249995231621
 30
0.0
  9
$PEXTMAX
 10
250.60276136398309
 20
181.4512499570846
 30
0.0
  9
$PLIMMIN
 10
-3.757080078125
 20
-3.7570831775665279
  9
$PLIMMAX
 10
293.21124267578119
 20
206.21624445915219
  9
$UNITMODE
 70
     0
  9
$VISRETAIN
 70
     1
  9
$PLINEGEN
 70
     0
  9
$PSLTSCALE
 70
     1
  0
ENDSEC
  0
SECTION
  2
TABLES
  0
TABLE
  2
VPORT
 70
     9
  0
VPORT
  2
*ACTIVE
 70
     0
 10
0.0
 20
0.0
 11
1.0
 21
1.0
 12
-15.293669739668029
 22
-13.197935327556779
 13
0.0
 23
0.0
 14
0.01
 24
0.01
 15
1.0
 25
1.0
 16
-1.0
 26
0.0
 36
0.0
 17
0.0
 27
0.0
 37
0.0
 40
107.838469473633
 41
2.1655092592592591
 42
50.0
 43
0.0
 44
0.0
 50
0.0
 51
0.0
 71
     0
 72
   100
 73
     1
 74
     3
 75
     1
 76
     1
 77
     0
 78
     0
  0
ENDTAB
  0
TABLE
  2
LTYPE
 70
     1
  0
LTYPE
  2
CONTINUOUS
 70
     0
  3
Solid line
 72
    65
 73
     0
 40
0.0
  0
ENDTAB
  0
TABLE
  2
LAYER
 70
    15
  0
LAYER
  2
0
 70
     0
 62
     7
  6
CONTINUOUS
  0
LAYER
  2
_REF
 70
     0
 62
     9
  6
CONTINUOUS
  0
LAYER
  2
_TMP
 70
     0
 62
     4
  6
CONTINUOUS
  0
LAYER
  2
HULL_7TP
 70
     0
 62
     7
  6
CONTINUOUS
  0
LAYER
  2
BACK_DOOR_1
 70
     0
 62
     7
  6
CONTINUOUS
  0
LAYER
  2
BACK_DOOR_2
 70
     0
 62
     7
  6
CONTINUOUS
  0
LAYER
  2
SUSPENSION
 70
     0
 62
     5
  6
CONTINUOUS
  0
LAYER
  2
WHEELS
 70
     0
 62
     2
  6
CONTINUOUS
  0
LAYER
  2
TRACKS
 70
     0
 62
     3
  6
CONTINUOUS
  0
LAYER
  2
FENDERS
 70
     0
 62
     6
  6
CONTINUOUS
  0
LAYER
  2
TOOLS
 70
     0
 62
     3
  6
CONTINUOUS
  0
LAYER
  2
TURRET
 70
     0
 62
     2
  6
CONTINUOUS
  0
LAYER
  2
SLEEVE
 70
     0
 62
     5
  6
CONTINUOUS
  0
LAYER
  2
GUN
 70
     0
 62
     1
  6
CONTINUOUS
  0
ENDTAB
  0
TABLE
  2
STYLE
 70
     1
  0
STYLE
  2
STANDARD
 70
     0
 40
0.0
 41
1.0
 50
0.0
 71
     0
 42
2.5
  3
txt
  4

  0
ENDTAB
  0
TABLE
  2
VIEW
 70
     0
  0
ENDTAB
  0
TABLE
  2
UCS
 70
     0
  0
ENDTAB
  0
TABLE
  2
APPID
 70
     1
  0
APPID
  2
ACAD
 70
     0
  0
ENDTAB
  0
TABLE
  2
DIMSTYLE
 70
     1
  0
DIMSTYLE
  2
ISO-25
 70
     0
  3

  4

  5

  6

  7

 40
1.0
 41
2.5
 42
0.625
 43
3.75
 44
1.25
 45
0.0
 46
0.0
 47
0.0
 48
0.0
140
2.5
141
2.5
142
0.0
143
0.03937007874016
144
1.0
145
0.0
146
1.0
147
0.625
 71
     0
 72
     0
 73
     0
 74
     0
 75
     0
 76
     0
 77
     1
 78
     8
170
     0
171
     3
172
     1
173
     0
174
     0
175
     0
176
     0
177
     0
178
     0
  0
ENDTAB
  0
ENDSEC
  0
SECTION
  2
BLOCKS
  0
BLOCK
  8
0
  2
$MODEL_SPACE
 70
     0
 10
0.0
 20
0.0
 30
0.0
  3
$MODEL_SPACE
  1

  0
ENDBLK
  5
21
  8
0
  0
BLOCK
 67
     1
  8
0
  2
$PAPER_SPACE
 70
     0
 10
0.0
 20
0.0
 30
0.0
  3
$PAPER_SPACE
  1

  0
ENDBLK
  5
1D
 67
     1
  8
0
  0
ENDSEC
  0
SECTION
  2
ENTITIES
  0
3DFACE
  5
23F5
  8
TOOLS
 10
1.0700000000000001
 20
-0.7772309118994523
 30
1.1506329837823679
 11
1.0700000000000001
 21
-0.7697555395704664
 31
1.1289229261498499
 12
1.0849999999999991
 22
-0.7693762325748903
 32
1.1351245407085919
 13
1.0700000000000001
 23
-0.7772309118994523
 33
1.1506329837823679
  0
3DFACE
  5
23F6
  8
TOOLS
 10
1.0700000000000001
 20
-0.7697555395704664
 30
1.1289229261498499
 11
1.0700000000000001
 21
-0.7491183241328421
 31
1.118857483643664
 12
1.0912132034355959
 22
-0.7485819030353954
 32
1.1276278910612501
 13
1.0849999999999991
 23
-0.7693762325748903
 33
1.1351245407085919
  0
3DFACE
  5
23F7
  8
TOOLS
 10
1.0700000000000001
 20
-0.7491183241328421
 30
1.118857483643664
 11
1.0700000000000001
 21
-0.7274082665003244
 31
1.1263328559726511
 12
1.0849999999999991
 22
-0.7270289595047482
 32
1.1325344705313929
 13
1.0912132034355959
 23
-0.7485819030353954
 33
1.1276278910612501
  0
3DFACE
  5
23F8
  8
TOOLS
 10
1.0700000000000001
 20
-0.7274082665003244
 30
1.1263328559726511
 11
1.0700000000000001
 21
-0.7173428239941404
 31
1.1469700714102751
 12
1.0700000000000001
 22
-0.7173428239941404
 32
1.1469700714102751
 13
1.0849999999999991
 23
-0.7270289595047482
 33
1.1325344705313929
  0
3DFACE
  5
23F9
  8
TOOLS
 10
1.0700000000000001
 20
-0.7772309118994523
 30
1.1506329837823679
 11
1.0849999999999991
 21
-0.7693762325748903
 31
1.1351245407085919
 12
1.0912132034355959
 22
-0.7684605044818673
 32
1.1500965626849211
 13
1.0700000000000001
 23
-0.7772309118994523
 33
1.1506329837823679
  0
3DFACE
  5
23FA
  8
TOOLS
 10
1.0849999999999991
 20
-0.7693762325748903
 30
1.1351245407085919
 11
1.0912132034355959
 21
-0.7485819030353954
 31
1.1276278910612501
 12
1.1000000000000001
 22
-0.7472868679467963
 32
1.148801527596321
 13
1.0912132034355959
 23
-0.7684605044818673
 33
1.1500965626849211
  0
3DFACE
  5
23FB
  8
TOOLS
 10
1.0912132034355959
 20
-0.7485819030353954
 30
1.1276278910612501
 11
1.0849999999999991
 21
-0.7270289595047482
 31
1.1325344705313929
 12
1.0912132034355959
 22
-0.7261132314117254
 32
1.1475064925077221
 13
1.1000000000000001
 23
-0.7472868679467963
 33
1.148801527596321
  0
3DFACE
  5
23FC
  8
TOOLS
 10
1.0849999999999991
 20
-0.7270289595047482
 30
1.1325344705313929
 11
1.0700000000000001
 21
-0.7173428239941404
 31
1.1469700714102751
 12
1.0700000000000001
 22
-0.7173428239941404
 32
1.1469700714102751
 13
1.0912132034355959
 23
-0.7261132314117254
 33
1.1475064925077221
  0
3DFACE
  5
23FD
  8
TOOLS
 10
1.0700000000000001
 20
-0.7772309118994523
 30
1.1506329837823679
 11
1.0912132034355959
 21
-0.7684605044818673
 31
1.1500965626849211
 12
1.085
 22
-0.7675447763888446
 32
1.1650685846612481
 13
1.0700000000000001
 23
-0.7772309118994523
 33
1.1506329837823679
  0
3DFACE
  5
23FE
  8
TOOLS
 10
1.0912132034355959
 20
-0.7684605044818673
 30
1.1500965626849211
 11
1.1000000000000001
 21
-0.7472868679467963
 31
1.148801527596321
 12
1.0912132034355959
 22
-0.7459918328581975
 32
1.169975164131392
 13
1.085
 23
-0.7675447763888446
 33
1.1650685846612481
  0
3DFACE
  5
23FF
  8
TOOLS
 10
1.1000000000000001
 20
-0.7472868679467963
 30
1.148801527596321
 11
1.0912132034355959
 21
-0.7261132314117254
 31
1.1475064925077221
 12
1.085
 22
-0.7251975033187027
 32
1.162478514484049
 13
1.0912132034355959
 23
-0.7459918328581975
 33
1.169975164131392
  0
3DFACE
  5
2400
  8
TOOLS
 10
1.0912132034355959
 20
-0.7261132314117254
 30
1.1475064925077221
 11
1.0700000000000001
 21
-0.7173428239941404
 31
1.1469700714102751
 12
1.0700000000000001
 22
-0.7173428239941404
 32
1.1469700714102751
 13
1.085
 23
-0.7251975033187027
 33
1.162478514484049
  0
3DFACE
  5
2401
  8
TOOLS
 10
1.0700000000000001
 20
-0.7772309118994523
 30
1.1506329837823679
 11
1.085
 21
-0.7675447763888446
 31
1.1650685846612481
 12
1.0700000000000001
 22
-0.7671654693932684
 32
1.1712701992199921
 13
1.0700000000000001
 23
-0.7772309118994523
 33
1.1506329837823679
  0
3DFACE
  5
2402
  8
TOOLS
 10
1.085
 20
-0.7675447763888446
 30
1.1650685846612481
 11
1.0912132034355959
 21
-0.7459918328581975
 31
1.169975164131392
 12
1.0700000000000001
 22
-0.7454554117607508
 32
1.178745571548977
 13
1.0700000000000001
 23
-0.7671654693932684
 33
1.1712701992199921
  0
3DFACE
  5
2403
  8
TOOLS
 10
1.0912132034355959
 20
-0.7459918328581975
 30
1.169975164131392
 11
1.085
 21
-0.7251975033187027
 31
1.162478514484049
 12
1.0700000000000001
 22
-0.7248181963231265
 32
1.1686801290427931
 13
1.0700000000000001
 23
-0.7454554117607508
 33
1.178745571548977
  0
3DFACE
  5
2404
  8
TOOLS
 10
1.085
 20
-0.7251975033187027
 30
1.162478514484049
 11
1.0700000000000001
 21
-0.7173428239941404
 31
1.1469700714102751
 12
1.0700000000000001
 22
-0.7173428239941404
 32
1.1469700714102751
 13
1.0700000000000001
 23
-0.7248181963231265
 33
1.1686801290427931
  0
3DFACE
  5
2405
  8
TOOLS
 10
1.0700000000000001
 20
-0.7772309118994523
 30
1.1506329837823679
 11
1.0700000000000001
 21
-0.7671654693932684
 31
1.1712701992199921
 12
1.054999999999999
 22
-0.7675447763888446
 32
1.1650685846612481
 13
1.0700000000000001
 23
-0.7772309118994523
 33
1.1506329837823679
  0
3DFACE
  5
2406
  8
TOOLS
 10
1.0700000000000001
 20
-0.7671654693932684
 30
1.1712701992199921
 11
1.0700000000000001
 21
-0.7454554117607508
 31
1.178745571548977
 12
1.0487867965644031
 22
-0.7459918328581975
 32
1.169975164131392
 13
1.054999999999999
 23
-0.7675447763888446
 33
1.1650685846612481
  0
3DFACE
  5
2407
  8
TOOLS
 10
1.0700000000000001
 20
-0.7454554117607508
 30
1.178745571548977
 11
1.0700000000000001
 21
-0.7248181963231265
 31
1.1686801290427931
 12
1.054999999999999
 22
-0.7251975033187027
 32
1.162478514484049
 13
1.0487867965644031
 23
-0.7459918328581975
 33
1.169975164131392
  0
3DFACE
  5
2408
  8
TOOLS
 10
1.0700000000000001
 20
-0.7248181963231265
 30
1.1686801290427931
 11
1.0700000000000001
 21
-0.7173428239941404
 31
1.1469700714102751
 12
1.0700000000000001
 22
-0.7173428239941404
 32
1.1469700714102751
 13
1.054999999999999
 23
-0.7251975033187027
 33
1.162478514484049
  0
3DFACE
  5
2409
  8
TOOLS
 10
1.0700000000000001
 20
-0.7772309118994523
 30
1.1506329837823679
 11
1.054999999999999
 21
-0.7675447763888446
 31
1.1650685846612481
 12
1.0487867965644031
 22
-0.7684605044818673
 32
1.1500965626849211
 13
1.0700000000000001
 23
-0.7772309118994523
 33
1.1506329837823679
  0
3DFACE
  5
240A
  8
TOOLS
 10
1.054999999999999
 20
-0.7675447763888446
 30
1.1650685846612481
 11
1.0487867965644031
 21
-0.7459918328581975
 31
1.169975164131392
 12
1.04
 22
-0.7472868679467963
 32
1.148801527596321
 13
1.0487867965644031
 23
-0.7684605044818673
 33
1.1500965626849211
  0
3DFACE
  5
240B
  8
TOOLS
 10
1.0487867965644031
 20
-0.7459918328581975
 30
1.169975164131392
 11
1.054999999999999
 21
-0.7251975033187027
 31
1.162478514484049
 12
1.0487867965644031
 22
-0.7261132314117254
 32
1.1475064925077221
 13
1.04
 23
-0.7472868679467963
 33
1.148801527596321
  0
3DFACE
  5
240C
  8
TOOLS
 10
1.054999999999999
 20
-0.7251975033187027
 30
1.162478514484049
 11
1.0700000000000001
 21
-0.7173428239941404
 31
1.1469700714102751
 12
1.0700000000000001
 22
-0.7173428239941404
 32
1.1469700714102751
 13
1.0487867965644031
 23
-0.7261132314117254
 33
1.1475064925077221
  0
3DFACE
  5
240D
  8
TOOLS
 10
1.0700000000000001
 20
-0.7772309118994523
 30
1.1506329837823679
 11
1.0487867965644031
 21
-0.7684605044818673
 31
1.1500965626849211
 12
1.0549999999999999
 22
-0.7693762325748903
 32
1.1351245407085919
 13
1.0700000000000001
 23
-0.7772309118994523
 33
1.1506329837823679
  0
3DFACE
  5
240E
  8
TOOLS
 10
1.0487867965644031
 20
-0.7684605044818673
 30
1.1500965626849211
 11
1.04
 21
-0.7472868679467963
 31
1.148801527596321
 12
1.0487867965644031
 22
-0.7485819030353954
 32
1.1276278910612501
 13
1.0549999999999999
 23
-0.7693762325748903
 33
1.1351245407085919
  0
3DFACE
  5
240F
  8
TOOLS
 10
1.04
 20
-0.7472868679467963
 30
1.148801527596321
 11
1.0487867965644031
 21
-0.7261132314117254
 31
1.1475064925077221
 12
1.0549999999999999
 22
-0.7270289595047482
 32
1.1325344705313929
 13
1.0487867965644031
 23
-0.7485819030353954
 33
1.1276278910612501
  0
3DFACE
  5
2410
  8
TOOLS
 10
1.0487867965644031
 20
-0.7261132314117254
 30
1.1475064925077221
 11
1.0700000000000001
 21
-0.7173428239941404
 31
1.1469700714102751
 12
1.0700000000000001
 22
-0.7173428239941404
 32
1.1469700714102751
 13
1.0549999999999999
 23
-0.7270289595047482
 33
1.1325344705313929
  0
3DFACE
  5
2411
  8
TOOLS
 10
1.0700000000000001
 20
-0.7772309118994523
 30
1.1506329837823679
 11
1.0549999999999999
 21
-0.7693762325748903
 31
1.1351245407085919
 12
1.0700000000000001
 22
-0.7697555395704664
 32
1.1289229261498499
 13
1.0700000000000001
 23
-0.7772309118994523
 33
1.1506329837823679
  0
3DFACE
  5
2412
  8
TOOLS
 10
1.0549999999999999
 20
-0.7693762325748903
 30
1.1351245407085919
 11
1.0487867965644031
 21
-0.7485819030353954
 31
1.1276278910612501
 12
1.0700000000000001
 22
-0.7491183241328421
 32
1.118857483643664
 13
1.0700000000000001
 23
-0.7697555395704664
 33
1.1289229261498499
  0
3DFACE
  5
2413
  8
TOOLS
 10
1.0487867965644031
 20
-0.7485819030353954
 30
1.1276278910612501
 11
1.0549999999999999
 21
-0.7270289595047482
 31
1.1325344705313929
 12
1.0700000000000001
 22
-0.7274082665003244
 32
1.1263328559726511
 13
1.0700000000000001
 23
-0.7491183241328421
 33
1.118857483643664
  0
3DFACE
  5
2414
  8
TOOLS
 10
1.0549999999999999
 20
-0.7270289595047482
 30
1.1325344705313929
 11
1.0700000000000001
 21
-0.7173428239941404
 31
1.1469700714102751
 12
1.0700000000000001
 22
-0.7173428239941404
 32
1.1469700714102751
 13
1.0700000000000001
 23
-0.7274082665003244
 33
1.1263328559726511
  0
3DFACE
  5
2415
  8
TOOLS
 10
1.0700000000000001
 20
-0.1471850181029791
 30
1.132135099843844
 11
1.0558578643762691
 21
-0.1475426321679436
 31
1.126288161565455
 12
1.0593703970571129
 22
-0.7229089654917268
 32
1.1579599775527161
 13
1.0700000000000001
 23
-0.7226401733079646
 33
1.1623546909103339
  0
3DFACE
  5
2416
  8
TOOLS
 10
1.0558578643762691
 20
-0.1475426321679436
 30
1.126288161565455
 11
1.05
 21
-0.1484059888936762
 31
1.1121724038754071
 12
1.0549674713555279
 22
-0.7235578872272255
 32
1.1473502009620129
 13
1.0593703970571129
 23
-0.7229089654917268
 33
1.1579599775527161
  0
3DFACE
  5
2417
  8
TOOLS
 10
1.05
 20
-0.1484059888936762
 30
1.1121724038754071
 11
1.0558578643762691
 21
-0.1492693456194089
 31
1.09805664618536
 12
1.0593703970571129
 22
-0.7242068089627241
 32
1.1367404243713111
 13
1.0549674713555279
 23
-0.7235578872272255
 33
1.1473502009620129
  0
3DFACE
  5
2418
  8
TOOLS
 10
1.0558578643762691
 20
-0.1492693456194089
 30
1.09805664618536
 11
1.0700000000000001
 21
-0.1496269596843733
 31
1.092209707906971
 12
1.0700000000000001
 22
-0.7244756011464864
 32
1.1323457110136921
 13
1.0593703970571129
 23
-0.7242068089627241
 33
1.1367404243713111
  0
3DFACE
  5
2419
  8
TOOLS
 10
1.0700000000000001
 20
-0.1496269596843733
 30
1.092209707906971
 11
1.08414213562373
 21
-0.1492693456194089
 31
1.09805664618536
 12
1.0806296029428859
 22
-0.7242068089627241
 32
1.1367404243713111
 13
1.0700000000000001
 23
-0.7244756011464864
 33
1.1323457110136921
  0
3DFACE
  5
241A
  8
TOOLS
 10
1.08414213562373
 20
-0.1492693456194089
 30
1.09805664618536
 11
1.0900000000000001
 21
-0.1484059888936762
 31
1.1121724038754071
 12
1.0850325286444711
 22
-0.7235578872272255
 32
1.1473502009620129
 13
1.0806296029428859
 23
-0.7242068089627241
 33
1.1367404243713111
  0
3DFACE
  5
241B
  8
TOOLS
 10
1.0900000000000001
 20
-0.1484059888936762
 30
1.1121724038754071
 11
1.08414213562373
 21
-0.1475426321679436
 31
1.126288161565455
 12
1.0806296029428859
 22
-0.7229089654917268
 32
1.1579599775527161
 13
1.0850325286444711
 23
-0.7235578872272255
 33
1.1473502009620129
  0
3DFACE
  5
241C
  8
TOOLS
 10
1.08414213562373
 20
-0.1475426321679436
 30
1.126288161565455
 11
1.0700000000000001
 21
-0.1471850181029791
 31
1.132135099843844
 12
1.0700000000000001
 22
-0.7226401733079646
 32
1.1623546909103339
 13
1.0806296029428859
 23
-0.7229089654917268
 33
1.1579599775527161
  0
3DFACE
  5
241D
  8
TOOLS
 10
1.0700000000000001
 20
-0.0074461463239177
 30
1.1235883043089641
 11
1.0558578643762691
 21
-0.0078037603888821
 31
1.1177413660305759
 12
1.0558578643762691
 22
-0.1475426321679436
 32
1.126288161565455
 13
1.0700000000000001
 23
-0.1471850181029791
 33
1.132135099843844
  0
3DFACE
  5
241E
  8
TOOLS
 10
1.0558578643762691
 20
-0.0078037603888821
 30
1.1177413660305759
 11
1.05
 21
-0.0086671171146148
 31
1.103625608340528
 12
1.05
 22
-0.1484059888936762
 32
1.1121724038754071
 13
1.0558578643762691
 23
-0.1475426321679436
 33
1.126288161565455
  0
3DFACE
  5
241F
  8
TOOLS
 10
1.05
 20
-0.0086671171146148
 30
1.103625608340528
 11
1.0558578643762691
 21
-0.0095304738403476
 31
1.0895098506504799
 12
1.0558578643762691
 22
-0.1492693456194089
 32
1.09805664618536
 13
1.05
 23
-0.1484059888936762
 33
1.1121724038754071
  0
3DFACE
  5
2420
  8
TOOLS
 10
1.0558578643762691
 20
-0.0095304738403476
 30
1.0895098506504799
 11
1.0700000000000001
 21
-0.0098880879053119
 31
1.083662912372092
 12
1.0700000000000001
 22
-0.1496269596843733
 32
1.092209707906971
 13
1.0558578643762691
 23
-0.1492693456194089
 33
1.09805664618536
  0
3DFACE
  5
2421
  8
TOOLS
 10
1.0700000000000001
 20
-0.0098880879053119
 30
1.083662912372092
 11
1.08414213562373
 21
-0.0095304738403476
 31
1.0895098506504799
 12
1.08414213562373
 22
-0.1492693456194089
 32
1.09805664618536
 13
1.0700000000000001
 23
-0.1496269596843733
 33
1.092209707906971
  0
3DFACE
  5
2422
  8
TOOLS
 10
1.08414213562373
 20
-0.0095304738403476
 30
1.0895098506504799
 11
1.0900000000000001
 21
-0.0086671171146148
 31
1.103625608340528
 12
1.0900000000000001
 22
-0.1484059888936762
 32
1.1121724038754071
 13
1.08414213562373
 23
-0.1492693456194089
 33
1.09805664618536
  0
3DFACE
  5
2423
  8
TOOLS
 10
1.0900000000000001
 20
-0.0086671171146148
 30
1.103625608340528
 11
1.08414213562373
 21
-0.0078037603888821
 31
1.1177413660305759
 12
1.08414213562373
 22
-0.1475426321679436
 32
1.126288161565455
 13
1.0900000000000001
 23
-0.1484059888936762
 33
1.1121724038754071
  0
3DFACE
  5
2424
  8
TOOLS
 10
1.08414213562373
 20
-0.0078037603888821
 30
1.1177413660305759
 11
1.0700000000000001
 21
-0.0074461463239177
 31
1.1235883043089641
 12
1.0700000000000001
 22
-0.1471850181029791
 32
1.132135099843844
 13
1.08414213562373
 23
-0.1475426321679436
 33
1.126288161565455
  0
3DFACE
  5
2425
  8
TOOLS
 10
1.0700000000000001
 20
0.0524419415813943
 30
1.119925391936873
 11
1.0558578643762691
 21
0.05208432751643
 31
1.1140784536584849
 12
1.0558578643762691
 22
-0.0078037603888821
 32
1.1177413660305759
 13
1.0700000000000001
 23
-0.0074461463239177
 33
1.1235883043089641
  0
3DFACE
  5
2426
  8
TOOLS
 10
1.0558578643762691
 20
0.05208432751643
 30
1.1140784536584849
 11
1.05
 21
0.0512209707906972
 31
1.099962695968437
 12
1.05
 22
-0.0086671171146148
 32
1.103625608340528
 13
1.0558578643762691
 23
-0.0078037603888821
 33
1.1177413660305759
  0
3DFACE
  5
2427
  8
TOOLS
 10
1.05
 20
0.0512209707906972
 30
1.099962695968437
 11
1.0558578643762691
 21
0.0503576140649645
 31
1.0858469382783891
 12
1.0558578643762691
 22
-0.0095304738403476
 32
1.0895098506504799
 13
1.05
 23
-0.0086671171146148
 33
1.103625608340528
  0
3DFACE
  5
2428
  8
TOOLS
 10
1.0558578643762691
 20
0.0503576140649645
 30
1.0858469382783891
 11
1.0700000000000001
 21
0.0500000000000001
 31
1.0800000000000001
 12
1.0700000000000001
 22
-0.0098880879053119
 32
1.083662912372092
 13
1.0558578643762691
 23
-0.0095304738403476
 33
1.0895098506504799
  0
3DFACE
  5
2429
  8
TOOLS
 10
1.0700000000000001
 20
0.0500000000000001
 30
1.0800000000000001
 11
1.08414213562373
 21
0.0503576140649645
 31
1.0858469382783891
 12
1.08414213562373
 22
-0.0095304738403476
 32
1.0895098506504799
 13
1.0700000000000001
 23
-0.0098880879053119
 33
1.083662912372092
  0
3DFACE
  5
242A
  8
TOOLS
 10
1.08414213562373
 20
0.0503576140649645
 30
1.0858469382783891
 11
1.0900000000000001
 21
0.0512209707906972
 31
1.099962695968437
 12
1.0900000000000001
 22
-0.0086671171146148
 32
1.103625608340528
 13
1.08414213562373
 23
-0.0095304738403476
 33
1.0895098506504799
  0
3DFACE
  5
242B
  8
TOOLS
 10
1.0900000000000001
 20
0.0512209707906972
 30
1.099962695968437
 11
1.08414213562373
 21
0.05208432751643
 31
1.1140784536584849
 12
1.08414213562373
 22
-0.0078037603888821
 32
1.1177413660305759
 13
1.0900000000000001
 23
-0.0086671171146148
 33
1.103625608340528
  0
3DFACE
  5
242C
  8
TOOLS
 10
1.08414213562373
 20
0.05208432751643
 30
1.1140784536584849
 11
1.0700000000000001
 21
0.0524419415813943
 31
1.119925391936873
 12
1.0700000000000001
 22
-0.0074461463239177
 32
1.1235883043089641
 13
1.08414213562373
 23
-0.0078037603888821
 33
1.1177413660305759
  0
3DFACE
  5
243C
  8
TOOLS
 10
0.9699999999999999
 20
0.0808597720456789
 30
1.0931405657902811
 11
1.1699999999999999
 21
0.0808597720456789
 31
1.0931405657902811
 12
1.0900000000000001
 22
0.0509157280930229
 32
1.094972021976327
 13
1.05
 23
0.0509157280930229
 33
1.094972021976327
  0
3DFACE
  5
243D
  8
TOOLS
 10
0.9699999999999999
 20
0.2305799918089589
 30
1.0839832848600519
 11
1.1699999999999999
 21
0.2305799918089589
 31
1.0839832848600519
 12
1.1699999999999999
 22
0.0808597720456789
 32
1.0931405657902811
 13
0.9699999999999999
 23
0.0808597720456789
 33
1.0931405657902811
  0
3DFACE
  5
243E
  8
TOOLS
 10
0.99
 20
0.2804867317300523
 30
1.0809308578833099
 11
1.1499999999999999
 21
0.2804867317300523
 31
1.0809308578833099
 12
1.1699999999999999
 22
0.2305799918089589
 32
1.0839832848600519
 13
0.9699999999999999
 23
0.2305799918089589
 33
1.0839832848600519
  0
3DFACE
  5
243F
  8
TOOLS
 10
1.04
 20
0.320412123666927
 30
1.0784889163019149
 11
1.1000000000000001
 21
0.320412123666927
 31
1.0784889163019149
 12
1.1499999999999999
 22
0.2804867317300523
 32
1.0809308578833099
 13
0.99
 23
0.2804867317300523
 33
1.0809308578833099
  0
3DFACE
  5
2440
  8
TOOLS
 10
1.1000000000000001
 20
0.3210226090622755
 30
1.0884702642861319
 11
1.04
 21
0.3210226090622755
 31
1.0884702642861319
 12
0.99
 22
0.2810972171254009
 32
1.0909122058675269
 13
1.1499999999999999
 23
0.2810972171254009
 33
1.0909122058675269
  0
3DFACE
  5
2441
  8
TOOLS
 10
1.1499999999999999
 20
0.2810972171254009
 30
1.0909122058675269
 11
0.99
 21
0.2810972171254009
 31
1.0909122058675269
 12
0.9699999999999999
 22
0.2311904772043074
 32
1.09396463284427
 13
1.1699999999999999
 23
0.2311904772043074
 33
1.09396463284427
  0
3DFACE
  5
2442
  8
TOOLS
 10
1.1699999999999999
 20
0.2311904772043074
 30
1.09396463284427
 11
0.9699999999999999
 21
0.2311904772043074
 31
1.09396463284427
 12
0.9699999999999999
 22
0.0814702574410274
 32
1.1031219137744981
 13
1.1699999999999999
 23
0.0814702574410274
 33
1.1031219137744981
  0
3DFACE
  5
2443
  8
TOOLS
 10
1.1699999999999999
 20
0.0814702574410274
 30
1.1031219137744981
 11
0.9699999999999999
 21
0.0814702574410274
 31
1.1031219137744981
 12
1.05
 22
0.0515262134883713
 32
1.1049533699605441
 13
1.0900000000000001
 23
0.0515262134883713
 33
1.1049533699605441
  0
3DFACE
  5
2444
  8
TOOLS
 10
1.05
 20
0.0512209707906972
 30
1.099962695968437
 11
1.08414213562373
 21
0.0503576140649645
 31
1.0858469382783891
 12
1.0700000000000001
 22
0.0500000000000001
 32
1.0800000000000001
 13
1.0558578643762691
 23
0.0503576140649645
 33
1.0858469382783891
  0
3DFACE
  5
2445
  8
TOOLS
 10
1.0558578643762691
 20
0.05208432751643
 30
1.1140784536584849
 11
1.0900000000000001
 21
0.0512209707906972
 31
1.099962695968437
 12
1.08414213562373
 22
0.0503576140649645
 32
1.0858469382783891
 13
1.05
 23
0.0512209707906972
 33
1.099962695968437
  0
3DFACE
  5
2446
  8
TOOLS
 10
1.0700000000000001
 20
0.0524419415813943
 30
1.119925391936873
 11
1.08414213562373
 21
0.05208432751643
 31
1.1140784536584849
 12
1.0900000000000001
 22
0.0512209707906972
 32
1.099962695968437
 13
1.0558578643762691
 23
0.05208432751643
 33
1.1140784536584849
  0
3DFACE
  5
245E
  8
TOOLS
 10
0.9399999999999998
 20
-1.1957720883671881
 30
1.160476068445411
 11
0.9699999999999999
 21
-1.185917149785906
 31
1.189929375192043
 12
1.1459807621135321
 22
-1.4901562432652691
 32
1.208537435301448
 13
1.119999999999999
 23
-1.506959721427642
 33
1.1795091194418159
  0
3DFACE
  5
245F
  8
TOOLS
 10
0.9699999999999999
 20
-1.185917149785906
 30
1.189929375192043
 11
0.9399999999999998
 21
-1.192109175995097
 31
1.220364156350723
 12
1.119999999999999
 22
-1.503296809055551
 32
1.2393972073471291
 13
1.1459807621135321
 23
-1.4901562432652691
 33
1.208537435301448
  0
3DFACE
  5
2460
  8
TOOLS
 10
0.9399999999999998
 20
-1.192109175995097
 30
1.220364156350723
 11
0.9099999999999999
 21
-1.201964114576378
 31
1.190910849604091
 12
1.0940192378864659
 22
-1.520100287217925
 32
1.210368891487495
 13
1.119999999999999
 23
-1.503296809055551
 33
1.2393972073471291
  0
3DFACE
  5
2461
  8
TOOLS
 10
0.9099999999999999
 20
-1.201964114576378
 30
1.190910849604091
 11
0.9399999999999998
 21
-1.1957720883671881
 31
1.160476068445411
 12
1.119999999999999
 22
-1.506959721427642
 32
1.1795091194418159
 13
1.0940192378864659
 23
-1.520100287217925
 33
1.210368891487495
  0
3DFACE
  5
2462
  8
TOOLS
 10
0.9399999999999998
 20
0.12
 30
1.079999999999999
 11
0.9699999999999999
 21
0.1218314561860456
 31
1.109944043952656
 12
0.9699999999999999
 22
-1.185917149785906
 32
1.189929375192043
 13
0.9399999999999998
 23
-1.1957720883671881
 33
1.160476068445411
  0
3DFACE
  5
2463
  8
TOOLS
 10
0.9699999999999999
 20
0.1218314561860456
 30
1.109944043952656
 11
0.9399999999999998
 21
0.1236629123720915
 31
1.139888087905313
 12
0.9399999999999998
 22
-1.192109175995097
 32
1.220364156350723
 13
0.9699999999999999
 23
-1.185917149785906
 33
1.189929375192043
  0
3DFACE
  5
2464
  8
TOOLS
 10
0.9399999999999998
 20
0.1236629123720915
 30
1.139888087905313
 11
0.9099999999999999
 21
0.1218314561860456
 31
1.109944043952656
 12
0.9099999999999999
 22
-1.201964114576378
 32
1.190910849604091
 13
0.9399999999999998
 23
-1.192109175995097
 33
1.220364156350723
  0
3DFACE
  5
2465
  8
TOOLS
 10
0.9099999999999999
 20
0.1218314561860456
 30
1.109944043952656
 11
0.9399999999999998
 21
0.12
 31
1.079999999999999
 12
0.9399999999999998
 22
-1.1957720883671881
 32
1.160476068445411
 13
0.9099999999999999
 23
-1.201964114576378
 33
1.190910849604091
  0
3DFACE
  5
2466
  8
TOOLS
 10
0.9399999999999998
 20
0.12
 30
1.079999999999999
 11
0.9099999999999999
 21
0.1218314561860456
 31
1.109944043952656
 12
0.9399999999999998
 22
0.1236629123720915
 32
1.139888087905313
 13
0.9699999999999999
 23
0.1218314561860456
 33
1.109944043952656
  0
3DFACE
  5
2467
  8
TOOLS
 10
1.119999999999999
 20
-1.506959721427642
 30
1.1795091194418159
 11
1.1459807621135321
 21
-1.4901562432652691
 31
1.208537435301448
 12
1.119999999999999
 22
-1.503296809055551
 32
1.2393972073471291
 13
1.0940192378864659
 23
-1.520100287217925
 33
1.210368891487495
  0
VIEWPORT
  5
2E
 67
     1
  8
0
 10
144.7270812988281
 20
101.2295806407928
 30
0.0
 40
391.13550988316581
 41
222.15178063964839
 68
     2
 69
     1
1001
ACAD
1000
MVIEW
1002
{
1070
    16
1010
0.0
1020
0.0
1030
0.0
1010
0.0
1020
0.0
1030
1.0
1040
0.0
1040
222.15178063964839
1040
144.7270812988281
1040
101.2295806407928
1040
50.0
1040
0.0
1040
0.0
1070
     0
1070
   100
1070
     1
1070
     1
1070
     0
1070
     0
1070
     0
1070
     0
1040
0.0
1040
0.0
1040
0.0
1040
10.0
1040
10.0
1040
10.0
1040
10.0
1070
     0
1002
{
1002
}
1002
}
  0
VIEWPORT
  5
30
 67
     1
  8
0
 10
139.22375631332389
 20
100.8062499761581
 30
0.0
 40
222.75801010131829
 41
161.289999961853
 68
     1
 69
     2
1001
ACAD
1000
MVIEW
1002
{
1070
    16
1010
0.0
1020
0.0
1030
0.0
1010
0.0
1020
0.0
1030
1.0
1040
0.0
1040
307.49010134148989
1040
210.0
1040
148.5
1040
50.0
1040
0.0
1040
0.0
1070
     0
1070
   100
1070
     1
1070
     3
1070
     0
1070
     1
1070
     0
1070
     0
1040
0.0
1040
0.0
1040
0.0
1040
10.0
1040
10.0
1040
10.0
1040
10.0
1070
     0
1002
{
1002
}
1002
}
  0
ENDSEC
  0
EOF
