  0
SECTION
  2
HEADER
  9
$ACADVER
  1
AC1009
  9
$INSBASE
 10
0.0
 20
0.0
 30
0.0
  9
$EXTMIN
 10
-2.6600000000000001
 20
-6.3280000000000021
 30
-9.2400000000000002
  9
$EXTMAX
 10
3.0
 20
16.02
 30
5.2147307692307692
  9
$LIMMIN
 10
0.0
 20
0.0
  9
$LIMMAX
 10
420.0
 20
297.0
  9
$ORTHOMODE
 70
     1
  9
$REGENMODE
 70
     1
  9
$FILLMODE
 70
     1
  9
$QTEXTMODE
 70
     0
  9
$MIRRTEXT
 70
     1
  9
$DRAGMODE
 70
     2
  9
$LTSCALE
 40
1.0
  9
$OSMODE
 70
   559
  9
$ATTMODE
 70
     1
  9
$TEXTSIZE
 40
2.5
  9
$TRACEWID
 40
1.0
  9
$TEXTSTYLE
  7
STANDARD
  9
$CLAYER
  8
0
  9
$CELTYPE
  6
BYLAYER
  9
$CECOLOR
 62
   256
  9
$DIMSCALE
 40
1.0
  9
$DIMASZ
 40
2.5
  9
$DIMEXO
 40
0.625
  9
$DIMDLI
 40
3.75
  9
$DIMRND
 40
0.0
  9
$DIMDLE
 40
0.0
  9
$DIMEXE
 40
1.25
  9
$DIMTP
 40
0.0
  9
$DIMTM
 40
0.0
  9
$DIMTXT
 40
2.5
  9
$DIMCEN
 40
2.5
  9
$DIMTSZ
 40
0.0
  9
$DIMTOL
 70
     0
  9
$DIMLIM
 70
     0
  9
$DIMTIH
 70
     0
  9
$DIMTOH
 70
     0
  9
$DIMSE1
 70
     0
  9
$DIMSE2
 70
     0
  9
$DIMTAD
 70
     1
  9
$DIMZIN
 70
     8
  9
$DIMBLK
  1

  9
$DIMASO
 70
     1
  9
$DIMSHO
 70
     1
  9
$DIMPOST
  1

  9
$DIMAPOST
  1

  9
$DIMALT
 70
     0
  9
$DIMALTD
 70
     3
  9
$DIMALTF
 40
0.03937007874016
  9
$DIMLFAC
 40
1.0
  9
$DIMTOFL
 70
     1
  9
$DIMTVP
 40
0.0
  9
$DIMTIX
 70
     0
  9
$DIMSOXD
 70
     0
  9
$DIMSAH
 70
     0
  9
$DIMBLK1
  1

  9
$DIMBLK2
  1

  9
$DIMSTYLE
  2
ISO-25
  9
$DIMCLRD
 70
     0
  9
$DIMCLRE
 70
     0
  9
$DIMCLRT
 70
     0
  9
$DIMTFAC
 40
1.0
  9
$DIMGAP
 40
0.625
  9
$LUNITS
 70
     2
  9
$LUPREC
 70
     4
  9
$SKETCHINC
 40
1.0
  9
$FILLETRAD
 40
10.0
  9
$AUNITS
 70
     0
  9
$AUPREC
 70
     0
  9
$MENU
  1
.
  9
$ELEVATION
 40
0.0
  9
$PELEVATION
 40
0.0
  9
$THICKNESS
 40
0.0
  9
$LIMCHECK
 70
     0
  9
$BLIPMODE
 70
     0
  9
$CHAMFERA
 40
10.0
  9
$CHAMFERB
 40
10.0
  9
$SKPOLY
 70
     0
  9
$TDCREATE
 40
2455017.899429224
  9
$TDUPDATE
 40
2455017.9392990158
  9
$TDINDWG
 40
0.0398703356
  9
$TDUSRTIMER
 40
0.0398703356
  9
$USRTIMER
 70
     1
  9
$ANGBASE
 50
0.0
  9
$ANGDIR
 70
     0
  9
$PDMODE
 70
     0
  9
$PDSIZE
 40
0.0
  9
$PLINEWID
 40
0.0
  9
$COORDS
 70
     1
  9
$SPLFRAME
 70
     0
  9
$SPLINETYPE
 70
     6
  9
$SPLINESEGS
 70
     8
  9
$ATTDIA
 70
     1
  9
$ATTREQ
 70
     1
  9
$HANDLING
 70
-16383
  9
$HANDSEED
  5
358
  9
$SURFTAB1
 70
     6
  9
$SURFTAB2
 70
     6
  9
$SURFTYPE
 70
     6
  9
$SURFU
 70
     6
  9
$SURFV
 70
     6
  9
$UCSNAME
  2

  9
$UCSORG
 10
0.0
 20
0.0
 30
0.0
  9
$UCSXDIR
 10
0.0
 20
-1.0
 30
0.0
  9
$UCSYDIR
 10
0.0
 20
0.0
 30
1.0
  9
$PUCSNAME
  2

  9
$PUCSORG
 10
0.0
 20
0.0
 30
0.0
  9
$PUCSXDIR
 10
1.0
 20
0.0
 30
0.0
  9
$PUCSYDIR
 10
0.0
 20
1.0
 30
0.0
  9
$USERI1
 70
     0
  9
$USERI2
 70
     0
  9
$USERI3
 70
     0
  9
$USERI4
 70
     0
  9
$USERI5
 70
     0
  9
$USERR1
 40
0.0
  9
$USERR2
 40
0.0
  9
$USERR3
 40
0.0
  9
$USERR4
 40
0.0
  9
$USERR5
 40
0.0
  9
$WORLDVIEW
 70
     1
  9
$SHADEDGE
 70
     3
  9
$SHADEDIF
 70
    70
  9
$TILEMODE
 70
     1
  9
$MAXACTVP
 70
    64
  9
$PLIMCHECK
 70
     0
  9
$PEXTMIN
 10
27.844751262664801
 20
20.161249995231621
 30
0.0
  9
$PEXTMAX
 10
250.60276136398309
 20
181.4512499570846
 30
0.0
  9
$PLIMMIN
 10
-3.757080078125
 20
-3.7570831775665279
  9
$PLIMMAX
 10
293.21124267578119
 20
206.21624445915219
  9
$UNITMODE
 70
     0
  9
$VISRETAIN
 70
     1
  9
$PLINEGEN
 70
     0
  9
$PSLTSCALE
 70
     1
  0
ENDSEC
  0
SECTION
  2
TABLES
  0
TABLE
  2
VPORT
 70
    17
  0
VPORT
  2
*ACTIVE
 70
     0
 10
0.0
 20
0.0
 11
1.0
 21
1.0
 12
-7.2203001943035536
 22
-6.6076856888214897
 13
0.0
 23
0.0
 14
0.01
 24
0.01
 15
1.0
 25
1.0
 16
-1.0
 26
0.0
 36
0.0
 17
0.0
 27
0.0
 37
0.0
 40
39.959773714981758
 41
1.7606679035250461
 42
50.0
 43
0.0
 44
0.0
 50
0.0
 51
0.0
 71
     0
 72
   100
 73
     1
 74
     3
 75
     1
 76
     1
 77
     0
 78
     0
  0
ENDTAB
  0
TABLE
  2
LTYPE
 70
     1
  0
LTYPE
  2
CONTINUOUS
 70
     0
  3
Solid line
 72
    65
 73
     0
 40
0.0
  0
ENDTAB
  0
TABLE
  2
LAYER
 70
     2
  0
LAYER
  2
0
 70
     0
 62
     7
  6
CONTINUOUS
  0
LAYER
  2
DRAWING
 70
     0
 62
     9
  6
CONTINUOUS
  0
ENDTAB
  0
TABLE
  2
STYLE
 70
     1
  0
STYLE
  2
STANDARD
 70
     0
 40
0.0
 41
1.0
 50
0.0
 71
     0
 42
2.5
  3
txt
  4

  0
ENDTAB
  0
TABLE
  2
VIEW
 70
     0
  0
ENDTAB
  0
TABLE
  2
UCS
 70
     0
  0
ENDTAB
  0
TABLE
  2
APPID
 70
     1
  0
APPID
  2
ACAD
 70
     0
  0
ENDTAB
  0
TABLE
  2
DIMSTYLE
 70
     1
  0
DIMSTYLE
  2
ISO-25
 70
     0
  3

  4

  5

  6

  7

 40
1.0
 41
2.5
 42
0.625
 43
3.75
 44
1.25
 45
0.0
 46
0.0
 47
0.0
 48
0.0
140
2.5
141
2.5
142
0.0
143
0.03937007874016
144
1.0
145
0.0
146
1.0
147
0.625
 71
     0
 72
     0
 73
     0
 74
     0
 75
     0
 76
     0
 77
     1
 78
     8
170
     0
171
     3
172
     1
173
     0
174
     0
175
     0
176
     0
177
     0
178
     0
  0
ENDTAB
  0
ENDSEC
  0
SECTION
  2
BLOCKS
  0
BLOCK
  8
0
  2
$MODEL_SPACE
 70
     0
 10
0.0
 20
0.0
 30
0.0
  3
$MODEL_SPACE
  1

  0
ENDBLK
  5
21
  8
0
  0
BLOCK
 67
     1
  8
0
  2
$PAPER_SPACE
 70
     0
 10
0.0
 20
0.0
 30
0.0
  3
$PAPER_SPACE
  1

  0
ENDBLK
  5
1D
 67
     1
  8
0
  0
ENDSEC
  0
SECTION
  2
ENTITIES
  0
3DFACE
  5
20A
  8
0
 10
0.0
 20
-0.1300000000000008
 30
0.3300000000000001
 11
0.0
 21
-0.3900000000000006
 31
0.3233592155403526
 12
0.0
 22
-0.3100000000000005
 32
0.5199999999999996
 13
0.0
 23
-0.2200000000000015
 33
0.5499999999999999
  0
3DFACE
  5
20B
  8
0
 10
0.0
 20
-0.2200000000000015
 30
0.5499999999999999
 11
0.0
 21
-0.3100000000000005
 31
0.5199999999999996
 12
0.0
 22
-0.3900000000000006
 32
0.3233592155403526
 13
0.0
 23
-0.1300000000000008
 33
0.3300000000000001
  0
3DFACE
  5
20C
  8
0
 10
0.0
 20
-0.3100000000000005
 30
0.5199999999999996
 11
0.0
 21
-0.4000000000000022
 31
0.5
 12
0.0
 22
-0.3900000000000006
 32
0.3233592155403526
 13
0.0
 23
-0.3900000000000006
 33
0.3233592155403526
  0
3DFACE
  5
20D
  8
0
 10
0.0
 20
-0.3900000000000006
 30
0.3233592155403526
 11
0.0
 21
-0.3900000000000006
 31
0.3233592155403526
 12
0.0
 22
-0.4000000000000022
 32
0.5
 13
0.0
 23
-0.3100000000000005
 33
0.5199999999999996
  0
3DFACE
  5
20E
  8
0
 10
0.0
 20
-0.3900000000000006
 30
0.3233592155403526
 11
0.0
 21
-0.7300000000000014
 31
0.29
 12
0.0
 22
-0.790000000000001
 32
0.5
 13
0.0
 23
-0.4000000000000022
 33
0.5
  0
3DFACE
  5
20F
  8
0
 10
0.0
 20
-0.4000000000000022
 30
0.5
 11
0.0
 21
-0.790000000000001
 31
0.5
 12
0.0
 22
-0.7300000000000014
 32
0.29
 13
0.0
 23
-0.3900000000000006
 33
0.3233592155403526
  0
3DFACE
  5
210
  8
0
 10
0.0
 20
-2.2300000000000009
 30
0.0999999999999997
 11
0.0
 21
-2.8700000000000001
 31
0.0
 12
0.0
 22
-3.29
 32
0.5800000000000001
 13
0.0
 23
-2.2300000000000031
 33
0.5800000000000001
  0
3DFACE
  5
211
  8
0
 10
0.0
 20
-2.2300000000000031
 30
0.5800000000000001
 11
0.0
 21
-3.29
 31
0.5800000000000001
 12
0.0
 22
-2.8700000000000001
 32
0.0
 13
0.0
 23
-2.2300000000000009
 33
0.0999999999999997
  0
3DFACE
  5
212
  8
0
 10
0.0
 20
-2.8700000000000001
 30
0.0
 11
0.0
 21
-3.29
 31
0.0
 12
0.0
 22
-3.29
 32
0.5800000000000001
 13
0.0
 23
-3.29
 33
0.5800000000000001
  0
3DFACE
  5
213
  8
0
 10
0.0
 20
-3.29
 30
0.5800000000000001
 11
0.0
 21
-3.29
 31
0.5800000000000001
 12
0.0
 22
-3.29
 32
0.0
 13
0.0
 23
-2.8700000000000001
 33
0.0
  0
3DFACE
  5
215
  8
0
 10
0.21
 20
3.419999999999999
 30
0.0
 11
0.169893568818739
 21
3.419999999999999
 31
0.123434902981419
 12
0.2507952682562337
 22
2.8899999999999988
 32
0.1822134282106669
 13
0.31
 23
2.8899999999999988
 33
0.0
  0
3DFACE
  5
216
  8
0
 10
0.169893568818739
 20
3.419999999999999
 30
0.123434902981419
 11
0.064893568818739
 21
3.419999999999999
 31
0.1997218684219826
 12
0.0957952682562337
 22
2.8899999999999988
 32
0.2948275200514976
 13
0.2507952682562337
 23
2.8899999999999988
 33
0.1822134282106669
  0
3DFACE
  5
217
  8
0
 10
0.064893568818739
 20
3.419999999999999
 30
0.1997218684219826
 11
-0.064893568818739
 21
3.419999999999999
 31
0.1997218684219826
 12
-0.0957952682562337
 22
2.8899999999999988
 32
0.2948275200514976
 13
0.0957952682562337
 23
2.8899999999999988
 33
0.2948275200514976
  0
3DFACE
  5
218
  8
0
 10
-0.064893568818739
 20
3.419999999999999
 30
0.1997218684219826
 11
-0.1698935688187389
 21
3.419999999999999
 31
0.123434902981419
 12
-0.2507952682562337
 22
2.8899999999999988
 32
0.1822134282106669
 13
-0.0957952682562337
 23
2.8899999999999988
 33
0.2948275200514976
  0
3DFACE
  5
219
  8
0
 10
-0.1698935688187389
 20
3.419999999999999
 30
0.123434902981419
 11
-0.21
 21
3.419999999999999
 31
0.0
 12
-0.31
 22
2.8899999999999988
 32
0.0
 13
-0.2507952682562337
 23
2.8899999999999988
 33
0.1822134282106669
  0
3DFACE
  5
21A
  8
0
 10
-0.21
 20
3.419999999999999
 30
0.0
 11
-0.169893568818739
 21
3.419999999999999
 31
-0.123434902981419
 12
-0.2507952682562337
 22
2.8899999999999988
 32
-0.1822134282106669
 13
-0.31
 23
2.8899999999999988
 33
0.0
  0
3DFACE
  5
21B
  8
0
 10
-0.169893568818739
 20
3.419999999999999
 30
-0.123434902981419
 11
-0.064893568818739
 21
3.419999999999999
 31
-0.1997218684219826
 12
-0.0957952682562338
 22
2.8899999999999988
 32
-0.2948275200514976
 13
-0.2507952682562337
 23
2.8899999999999988
 33
-0.1822134282106669
  0
3DFACE
  5
21C
  8
0
 10
-0.064893568818739
 20
3.419999999999999
 30
-0.1997218684219826
 11
0.0648935688187389
 21
3.419999999999999
 31
-0.1997218684219826
 12
0.0957952682562337
 22
2.8899999999999988
 32
-0.2948275200514976
 13
-0.0957952682562338
 23
2.8899999999999988
 33
-0.2948275200514976
  0
3DFACE
  5
21D
  8
0
 10
0.0648935688187389
 20
3.419999999999999
 30
-0.1997218684219826
 11
0.1698935688187389
 21
3.419999999999999
 31
-0.123434902981419
 12
0.2507952682562337
 22
2.8899999999999988
 32
-0.1822134282106669
 13
0.0957952682562337
 23
2.8899999999999988
 33
-0.2948275200514976
  0
3DFACE
  5
21E
  8
0
 10
0.1698935688187389
 20
3.419999999999999
 30
-0.123434902981419
 11
0.21
 21
3.419999999999999
 31
0.0
 12
0.31
 22
2.8899999999999988
 32
0.0
 13
0.2507952682562337
 23
2.8899999999999988
 33
-0.1822134282106669
  0
3DFACE
  5
21F
  8
0
 10
0.29
 20
-0.950000000000001
 30
0.0
 11
0.2346149283687347
 21
-0.950000000000001
 31
0.1704577231648168
 12
0.1618033988749895
 22
-1.72
 32
0.1175570504584948
 13
0.2
 23
-1.72
 33
0.0
  0
3DFACE
  5
220
  8
0
 10
0.2346149283687347
 20
-0.950000000000001
 30
0.1704577231648168
 11
0.0896149283687348
 21
-0.950000000000001
 31
0.2758063897255942
 12
0.0618033988749895
 22
-1.72
 32
0.1902113032590309
 13
0.1618033988749895
 23
-1.72
 33
0.1175570504584948
  0
3DFACE
  5
221
  8
0
 10
0.0896149283687348
 20
-0.950000000000001
 30
0.2758063897255942
 11
-0.0896149283687347
 21
-0.950000000000001
 31
0.2758063897255942
 12
-0.0618033988749895
 22
-1.72
 32
0.1902113032590309
 13
0.0618033988749895
 23
-1.72
 33
0.1902113032590309
  0
3DFACE
  5
222
  8
0
 10
-0.0896149283687347
 20
-0.950000000000001
 30
0.2758063897255942
 11
-0.2346149283687347
 21
-0.950000000000001
 31
0.1704577231648177
 12
-0.1618033988749895
 22
-1.72
 32
0.1175570504584948
 13
-0.0618033988749895
 23
-1.72
 33
0.1902113032590309
  0
3DFACE
  5
223
  8
0
 10
-0.2346149283687347
 20
-0.950000000000001
 30
0.1704577231648177
 11
-0.29
 21
-0.950000000000001
 31
0.0
 12
-0.2
 22
-1.72
 32
0.0
 13
-0.1618033988749895
 23
-1.72
 33
0.1175570504584948
  0
3DFACE
  5
224
  8
0
 10
-0.29
 20
-0.950000000000001
 30
0.0
 11
-0.2346149283687348
 21
-0.950000000000001
 31
-0.1704577231648168
 12
-0.1618033988749895
 22
-1.72
 32
-0.1175570504584948
 13
-0.2
 23
-1.72
 33
0.0
  0
3DFACE
  5
225
  8
0
 10
-0.2346149283687348
 20
-0.950000000000001
 30
-0.1704577231648168
 11
-0.0896149283687348
 21
-0.950000000000001
 31
-0.2758063897255942
 12
-0.0618033988749895
 22
-1.72
 32
-0.1902113032590309
 13
-0.1618033988749895
 23
-1.72
 33
-0.1175570504584948
  0
3DFACE
  5
226
  8
0
 10
-0.0896149283687348
 20
-0.950000000000001
 30
-0.2758063897255942
 11
0.0896149283687347
 21
-0.950000000000001
 31
-0.2758063897255942
 12
0.0618033988749895
 22
-1.72
 32
-0.1902113032590309
 13
-0.0618033988749895
 23
-1.72
 33
-0.1902113032590309
  0
3DFACE
  5
227
  8
0
 10
0.0896149283687347
 20
-0.950000000000001
 30
-0.2758063897255942
 11
0.2346149283687347
 21
-0.950000000000001
 31
-0.1704577231648177
 12
0.1618033988749894
 22
-1.72
 32
-0.1175570504584948
 13
0.0618033988749895
 23
-1.72
 33
-0.1902113032590309
  0
3DFACE
  5
228
  8
0
 10
0.2346149283687347
 20
-0.950000000000001
 30
-0.1704577231648177
 11
0.29
 21
-0.950000000000001
 31
0.0
 12
0.2
 22
-1.72
 32
0.0
 13
0.1618033988749894
 23
-1.72
 33
-0.1175570504584948
  0
3DFACE
  5
229
  8
0
 10
0.31
 20
2.8899999999999988
 30
0.0
 11
0.2507952682562337
 21
2.8899999999999988
 31
0.1822134282106669
 12
0.2912461179749811
 22
2.3699999999999992
 32
0.2116026908252904
 13
0.36
 23
2.3699999999999992
 33
0.0
  0
3DFACE
  5
22A
  8
0
 10
0.2507952682562337
 20
2.8899999999999988
 30
0.1822134282106669
 11
0.0957952682562337
 21
2.8899999999999988
 31
0.2948275200514976
 12
0.1112461179749811
 22
2.3699999999999992
 32
0.3423803458662551
 13
0.2912461179749811
 23
2.3699999999999992
 33
0.2116026908252904
  0
3DFACE
  5
22B
  8
0
 10
0.0957952682562337
 20
2.8899999999999988
 30
0.2948275200514976
 11
-0.0957952682562337
 21
2.8899999999999988
 31
0.2948275200514976
 12
-0.111246117974981
 22
2.3699999999999992
 32
0.3423803458662551
 13
0.1112461179749811
 23
2.3699999999999992
 33
0.3423803458662551
  0
3DFACE
  5
22C
  8
0
 10
-0.0957952682562337
 20
2.8899999999999988
 30
0.2948275200514976
 11
-0.2507952682562337
 21
2.8899999999999988
 31
0.1822134282106669
 12
-0.2912461179749811
 22
2.3699999999999992
 32
0.2116026908252904
 13
-0.111246117974981
 23
2.3699999999999992
 33
0.3423803458662551
  0
3DFACE
  5
22D
  8
0
 10
-0.2507952682562337
 20
2.8899999999999988
 30
0.1822134282106669
 11
-0.31
 21
2.8899999999999988
 31
0.0
 12
-0.36
 22
2.3699999999999992
 32
0.0
 13
-0.2912461179749811
 23
2.3699999999999992
 33
0.2116026908252904
  0
3DFACE
  5
22E
  8
0
 10
-0.31
 20
2.8899999999999988
 30
0.0
 11
-0.2507952682562337
 21
2.8899999999999988
 31
-0.1822134282106669
 12
-0.2912461179749811
 22
2.3699999999999992
 32
-0.2116026908252904
 13
-0.36
 23
2.3699999999999992
 33
0.0
  0
3DFACE
  5
22F
  8
0
 10
-0.2507952682562337
 20
2.8899999999999988
 30
-0.1822134282106669
 11
-0.0957952682562338
 21
2.8899999999999988
 31
-0.2948275200514976
 12
-0.1112461179749811
 22
2.3699999999999992
 32
-0.3423803458662551
 13
-0.2912461179749811
 23
2.3699999999999992
 33
-0.2116026908252904
  0
3DFACE
  5
230
  8
0
 10
-0.0957952682562338
 20
2.8899999999999988
 30
-0.2948275200514976
 11
0.0957952682562337
 21
2.8899999999999988
 31
-0.2948275200514976
 12
0.111246117974981
 22
2.3699999999999992
 32
-0.3423803458662551
 13
-0.1112461179749811
 23
2.3699999999999992
 33
-0.3423803458662551
  0
3DFACE
  5
231
  8
0
 10
0.0957952682562337
 20
2.8899999999999988
 30
-0.2948275200514976
 11
0.2507952682562337
 21
2.8899999999999988
 31
-0.1822134282106669
 12
0.291246117974981
 22
2.3699999999999992
 32
-0.2116026908252904
 13
0.111246117974981
 23
2.3699999999999992
 33
-0.3423803458662551
  0
3DFACE
  5
232
  8
0
 10
0.2507952682562337
 20
2.8899999999999988
 30
-0.1822134282106669
 11
0.31
 21
2.8899999999999988
 31
0.0
 12
0.36
 22
2.3699999999999992
 32
0.0
 13
0.291246117974981
 23
2.3699999999999992
 33
-0.2116026908252904
  0
3DFACE
  5
233
  8
0
 10
0.36
 20
2.3699999999999992
 30
0.0
 11
0.2912461179749811
 21
2.3699999999999992
 31
0.2116026908252904
 12
0.323606797749979
 22
1.869999999999999
 32
0.2351141009169897
 13
0.4
 23
1.869999999999999
 33
0.0
  0
3DFACE
  5
234
  8
0
 10
0.2912461179749811
 20
2.3699999999999992
 30
0.2116026908252904
 11
0.1112461179749811
 21
2.3699999999999992
 31
0.3423803458662551
 12
0.123606797749979
 22
1.869999999999999
 32
0.3804226065180618
 13
0.323606797749979
 23
1.869999999999999
 33
0.2351141009169897
  0
3DFACE
  5
235
  8
0
 10
0.1112461179749811
 20
2.3699999999999992
 30
0.3423803458662551
 11
-0.111246117974981
 21
2.3699999999999992
 31
0.3423803458662551
 12
-0.1236067977499789
 22
1.869999999999999
 32
0.3804226065180618
 13
0.123606797749979
 23
1.869999999999999
 33
0.3804226065180618
  0
3DFACE
  5
236
  8
0
 10
-0.111246117974981
 20
2.3699999999999992
 30
0.3423803458662551
 11
-0.2912461179749811
 21
2.3699999999999992
 31
0.2116026908252904
 12
-0.323606797749979
 22
1.869999999999999
 32
0.2351141009169897
 13
-0.1236067977499789
 23
1.869999999999999
 33
0.3804226065180618
  0
3DFACE
  5
237
  8
0
 10
-0.2912461179749811
 20
2.3699999999999992
 30
0.2116026908252904
 11
-0.36
 21
2.3699999999999992
 31
0.0
 12
-0.4
 22
1.869999999999999
 32
0.0
 13
-0.323606797749979
 23
1.869999999999999
 33
0.2351141009169897
  0
3DFACE
  5
238
  8
0
 10
-0.36
 20
2.3699999999999992
 30
0.0
 11
-0.2912461179749811
 21
2.3699999999999992
 31
-0.2116026908252904
 12
-0.323606797749979
 22
1.869999999999999
 32
-0.2351141009169888
 13
-0.4
 23
1.869999999999999
 33
0.0
  0
3DFACE
  5
239
  8
0
 10
-0.2912461179749811
 20
2.3699999999999992
 30
-0.2116026908252904
 11
-0.1112461179749811
 21
2.3699999999999992
 31
-0.3423803458662551
 12
-0.123606797749979
 22
1.869999999999999
 32
-0.3804226065180618
 13
-0.323606797749979
 23
1.869999999999999
 33
-0.2351141009169888
  0
3DFACE
  5
23A
  8
0
 10
-0.1112461179749811
 20
2.3699999999999992
 30
-0.3423803458662551
 11
0.111246117974981
 21
2.3699999999999992
 31
-0.3423803458662551
 12
0.1236067977499789
 22
1.869999999999999
 32
-0.3804226065180618
 13
-0.123606797749979
 23
1.869999999999999
 33
-0.3804226065180618
  0
3DFACE
  5
23B
  8
0
 10
0.111246117974981
 20
2.3699999999999992
 30
-0.3423803458662551
 11
0.291246117974981
 21
2.3699999999999992
 31
-0.2116026908252904
 12
0.3236067977499789
 22
1.869999999999999
 32
-0.2351141009169897
 13
0.1236067977499789
 23
1.869999999999999
 33
-0.3804226065180618
  0
3DFACE
  5
23C
  8
0
 10
0.291246117974981
 20
2.3699999999999992
 30
-0.2116026908252904
 11
0.36
 21
2.3699999999999992
 31
0.0
 12
0.4
 22
1.869999999999999
 32
0.0
 13
0.3236067977499789
 23
1.869999999999999
 33
-0.2351141009169897
  0
3DFACE
  5
23D
  8
0
 10
0.4
 20
1.869999999999999
 30
0.0
 11
0.323606797749979
 21
1.869999999999999
 31
0.2351141009169897
 12
0.323606797749979
 22
0.7599999999999989
 32
0.2351141009169897
 13
0.4
 23
0.7599999999999989
 33
0.0
  0
3DFACE
  5
23E
  8
0
 10
0.323606797749979
 20
1.869999999999999
 30
0.2351141009169897
 11
0.123606797749979
 21
1.869999999999999
 31
0.3804226065180618
 12
0.123606797749979
 22
0.7599999999999989
 32
0.3804226065180618
 13
0.323606797749979
 23
0.7599999999999989
 33
0.2351141009169897
  0
3DFACE
  5
23F
  8
0
 10
0.123606797749979
 20
1.869999999999999
 30
0.3804226065180618
 11
-0.1236067977499789
 21
1.869999999999999
 31
0.3804226065180618
 12
-0.1236067977499789
 22
0.7599999999999989
 32
0.3804226065180618
 13
0.123606797749979
 23
0.7599999999999989
 33
0.3804226065180618
  0
3DFACE
  5
240
  8
0
 10
-0.1236067977499789
 20
1.869999999999999
 30
0.3804226065180618
 11
-0.323606797749979
 21
1.869999999999999
 31
0.2351141009169897
 12
-0.323606797749979
 22
0.7599999999999989
 32
0.2351141009169897
 13
-0.1236067977499789
 23
0.7599999999999989
 33
0.3804226065180618
  0
3DFACE
  5
241
  8
0
 10
-0.323606797749979
 20
1.869999999999999
 30
0.2351141009169897
 11
-0.4
 21
1.869999999999999
 31
0.0
 12
-0.4
 22
0.7599999999999989
 32
0.0
 13
-0.323606797749979
 23
0.7599999999999989
 33
0.2351141009169897
  0
3DFACE
  5
242
  8
0
 10
-0.4
 20
1.869999999999999
 30
0.0
 11
-0.323606797749979
 21
1.869999999999999
 31
-0.2351141009169897
 12
-0.323606797749979
 22
0.7599999999999989
 32
-0.2351141009169897
 13
-0.4
 23
0.7599999999999989
 33
0.0
  0
3DFACE
  5
243
  8
0
 10
-0.323606797749979
 20
1.869999999999999
 30
-0.2351141009169897
 11
-0.123606797749979
 21
1.869999999999999
 31
-0.3804226065180618
 12
-0.123606797749979
 22
0.7599999999999989
 32
-0.3804226065180618
 13
-0.323606797749979
 23
0.7599999999999989
 33
-0.2351141009169897
  0
3DFACE
  5
244
  8
0
 10
-0.123606797749979
 20
1.869999999999999
 30
-0.3804226065180618
 11
0.1236067977499789
 21
1.869999999999999
 31
-0.3804226065180618
 12
0.1236067977499789
 22
0.7599999999999989
 32
-0.3804226065180618
 13
-0.123606797749979
 23
0.7599999999999989
 33
-0.3804226065180618
  0
3DFACE
  5
245
  8
0
 10
0.1236067977499789
 20
1.869999999999999
 30
-0.3804226065180618
 11
0.3236067977499789
 21
1.869999999999999
 31
-0.2351141009169897
 12
0.3236067977499789
 22
0.7599999999999989
 32
-0.2351141009169897
 13
0.1236067977499789
 23
0.7599999999999989
 33
-0.3804226065180618
  0
3DFACE
  5
246
  8
0
 10
0.3236067977499789
 20
1.869999999999999
 30
-0.2351141009169897
 11
0.4
 21
1.869999999999999
 31
0.0
 12
0.4
 22
0.7599999999999989
 32
0.0
 13
0.3236067977499789
 23
0.7599999999999989
 33
-0.2351141009169897
  0
3DFACE
  5
247
  8
0
 10
0.4
 20
0.7599999999999989
 30
0.0
 11
0.323606797749979
 21
0.7599999999999989
 31
0.2351141009169897
 12
0.2750657780874822
 22
-0.3900000000000006
 32
0.1998469857794411
 13
0.34
 23
-0.3900000000000006
 33
0.0
  0
3DFACE
  5
248
  8
0
 10
0.323606797749979
 20
0.7599999999999989
 30
0.2351141009169897
 11
0.123606797749979
 21
0.7599999999999989
 31
0.3804226065180618
 12
0.1050657780874821
 22
-0.3900000000000006
 32
0.3233592155403526
 13
0.2750657780874822
 23
-0.3900000000000006
 33
0.1998469857794411
  0
3DFACE
  5
249
  8
0
 10
0.123606797749979
 20
0.7599999999999989
 30
0.3804226065180618
 11
-0.1236067977499789
 21
0.7599999999999989
 31
0.3804226065180618
 12
-0.1050657780874821
 22
-0.3900000000000006
 32
0.3233592155403526
 13
0.1050657780874821
 23
-0.3900000000000006
 33
0.3233592155403526
  0
3DFACE
  5
24A
  8
0
 10
-0.1236067977499789
 20
0.7599999999999989
 30
0.3804226065180618
 11
-0.323606797749979
 21
0.7599999999999989
 31
0.2351141009169897
 12
-0.2750657780874821
 22
-0.3900000000000006
 32
0.1998469857794411
 13
-0.1050657780874821
 23
-0.3900000000000006
 33
0.3233592155403526
  0
3DFACE
  5
24B
  8
0
 10
-0.323606797749979
 20
0.7599999999999989
 30
0.2351141009169897
 11
-0.4
 21
0.7599999999999989
 31
0.0
 12
-0.34
 22
-0.3900000000000006
 32
0.0
 13
-0.2750657780874821
 23
-0.3900000000000006
 33
0.1998469857794411
  0
3DFACE
  5
24C
  8
0
 10
-0.4
 20
0.7599999999999989
 30
0.0
 11
-0.323606797749979
 21
0.7599999999999989
 31
-0.2351141009169897
 12
-0.2750657780874822
 22
-0.3900000000000006
 32
-0.1998469857794411
 13
-0.34
 23
-0.3900000000000006
 33
0.0
  0
3DFACE
  5
24D
  8
0
 10
-0.323606797749979
 20
0.7599999999999989
 30
-0.2351141009169897
 11
-0.123606797749979
 21
0.7599999999999989
 31
-0.3804226065180618
 12
-0.1050657780874822
 22
-0.3900000000000006
 32
-0.3233592155403517
 13
-0.2750657780874822
 23
-0.3900000000000006
 33
-0.1998469857794411
  0
3DFACE
  5
24E
  8
0
 10
-0.123606797749979
 20
0.7599999999999989
 30
-0.3804226065180618
 11
0.1236067977499789
 21
0.7599999999999989
 31
-0.3804226065180618
 12
0.105065778087482
 22
-0.3900000000000006
 32
-0.3233592155403517
 13
-0.1050657780874822
 23
-0.3900000000000006
 33
-0.3233592155403517
  0
3DFACE
  5
24F
  8
0
 10
0.1236067977499789
 20
0.7599999999999989
 30
-0.3804226065180618
 11
0.3236067977499789
 21
0.7599999999999989
 31
-0.2351141009169897
 12
0.2750657780874821
 22
-0.3900000000000006
 32
-0.1998469857794411
 13
0.105065778087482
 23
-0.3900000000000006
 33
-0.3233592155403517
  0
3DFACE
  5
250
  8
0
 10
0.3236067977499789
 20
0.7599999999999989
 30
-0.2351141009169897
 11
0.4
 21
0.7599999999999989
 31
0.0
 12
0.34
 22
-0.3900000000000006
 32
0.0
 13
0.2750657780874821
 23
-0.3900000000000006
 33
-0.1998469857794411
  0
3DFACE
  5
251
  8
0
 10
0.34
 20
-0.3900000000000006
 30
0.0
 11
0.2750657780874822
 21
-0.3900000000000006
 31
0.1998469857794411
 12
0.2346149283687347
 22
-0.950000000000001
 32
0.1704577231648168
 13
0.29
 23
-0.950000000000001
 33
0.0
  0
3DFACE
  5
252
  8
0
 10
0.2750657780874822
 20
-0.3900000000000006
 30
0.1998469857794411
 11
0.1050657780874821
 21
-0.3900000000000006
 31
0.3233592155403526
 12
0.0896149283687348
 22
-0.950000000000001
 32
0.2758063897255942
 13
0.2346149283687347
 23
-0.950000000000001
 33
0.1704577231648168
  0
3DFACE
  5
253
  8
0
 10
0.1050657780874821
 20
-0.3900000000000006
 30
0.3233592155403526
 11
-0.1050657780874821
 21
-0.3900000000000006
 31
0.3233592155403526
 12
-0.0896149283687347
 22
-0.950000000000001
 32
0.2758063897255942
 13
0.0896149283687348
 23
-0.950000000000001
 33
0.2758063897255942
  0
3DFACE
  5
254
  8
0
 10
-0.1050657780874821
 20
-0.3900000000000006
 30
0.3233592155403526
 11
-0.2750657780874821
 21
-0.3900000000000006
 31
0.1998469857794411
 12
-0.2346149283687347
 22
-0.950000000000001
 32
0.1704577231648177
 13
-0.0896149283687347
 23
-0.950000000000001
 33
0.2758063897255942
  0
3DFACE
  5
255
  8
0
 10
-0.2750657780874821
 20
-0.3900000000000006
 30
0.1998469857794411
 11
-0.34
 21
-0.3900000000000006
 31
0.0
 12
-0.29
 22
-0.950000000000001
 32
0.0
 13
-0.2346149283687347
 23
-0.950000000000001
 33
0.1704577231648177
  0
3DFACE
  5
256
  8
0
 10
-0.34
 20
-0.3900000000000006
 30
0.0
 11
-0.2750657780874822
 21
-0.3900000000000006
 31
-0.1998469857794411
 12
-0.2346149283687348
 22
-0.950000000000001
 32
-0.1704577231648168
 13
-0.29
 23
-0.950000000000001
 33
0.0
  0
3DFACE
  5
257
  8
0
 10
-0.2750657780874822
 20
-0.3900000000000006
 30
-0.1998469857794411
 11
-0.1050657780874822
 21
-0.3900000000000006
 31
-0.3233592155403517
 12
-0.0896149283687348
 22
-0.950000000000001
 32
-0.2758063897255942
 13
-0.2346149283687348
 23
-0.950000000000001
 33
-0.1704577231648168
  0
3DFACE
  5
258
  8
0
 10
-0.1050657780874822
 20
-0.3900000000000006
 30
-0.3233592155403517
 11
0.105065778087482
 21
-0.3900000000000006
 31
-0.3233592155403517
 12
0.0896149283687347
 22
-0.950000000000001
 32
-0.2758063897255942
 13
-0.0896149283687348
 23
-0.950000000000001
 33
-0.2758063897255942
  0
3DFACE
  5
259
  8
0
 10
0.105065778087482
 20
-0.3900000000000006
 30
-0.3233592155403517
 11
0.2750657780874821
 21
-0.3900000000000006
 31
-0.1998469857794411
 12
0.2346149283687347
 22
-0.950000000000001
 32
-0.1704577231648177
 13
0.0896149283687347
 23
-0.950000000000001
 33
-0.2758063897255942
  0
3DFACE
  5
25A
  8
0
 10
0.2750657780874821
 20
-0.3900000000000006
 30
-0.1998469857794411
 11
0.34
 21
-0.3900000000000006
 31
0.0
 12
0.29
 22
-0.950000000000001
 32
0.0
 13
0.2346149283687347
 23
-0.950000000000001
 33
-0.1704577231648177
  0
3DFACE
  5
25B
  8
0
 10
0.2
 20
-1.72
 30
0.0
 11
0.1618033988749895
 21
-1.72
 31
0.1175570504584948
 12
0.0
 22
-2.8700000000000001
 32
0.0
 13
0.0
 23
-2.8700000000000001
 33
0.0
  0
3DFACE
  5
25C
  8
0
 10
0.1618033988749895
 20
-1.72
 30
0.1175570504584948
 11
0.0618033988749895
 21
-1.72
 31
0.1902113032590309
 12
0.0
 22
-2.8700000000000001
 32
0.0
 13
0.0
 23
-2.8700000000000001
 33
0.0
  0
3DFACE
  5
25D
  8
0
 10
0.0618033988749895
 20
-1.72
 30
0.1902113032590309
 11
-0.0618033988749895
 21
-1.72
 31
0.1902113032590309
 12
0.0
 22
-2.8700000000000001
 32
0.0
 13
0.0
 23
-2.8700000000000001
 33
0.0
  0
3DFACE
  5
25E
  8
0
 10
-0.0618033988749895
 20
-1.72
 30
0.1902113032590309
 11
-0.1618033988749895
 21
-1.72
 31
0.1175570504584948
 12
0.0
 22
-2.8700000000000001
 32
0.0
 13
0.0
 23
-2.8700000000000001
 33
0.0
  0
3DFACE
  5
25F
  8
0
 10
-0.1618033988749895
 20
-1.72
 30
0.1175570504584948
 11
-0.2
 21
-1.72
 31
0.0
 12
0.0
 22
-2.8700000000000001
 32
0.0
 13
0.0
 23
-2.8700000000000001
 33
0.0
  0
3DFACE
  5
260
  8
0
 10
-0.2
 20
-1.72
 30
0.0
 11
-0.1618033988749895
 21
-1.72
 31
-0.1175570504584948
 12
0.0
 22
-2.8700000000000001
 32
0.0
 13
0.0
 23
-2.8700000000000001
 33
0.0
  0
3DFACE
  5
261
  8
0
 10
-0.1618033988749895
 20
-1.72
 30
-0.1175570504584948
 11
-0.0618033988749895
 21
-1.72
 31
-0.1902113032590309
 12
0.0
 22
-2.8700000000000001
 32
0.0
 13
0.0
 23
-2.8700000000000001
 33
0.0
  0
3DFACE
  5
262
  8
0
 10
-0.0618033988749895
 20
-1.72
 30
-0.1902113032590309
 11
0.0618033988749895
 21
-1.72
 31
-0.1902113032590309
 12
0.0
 22
-2.8700000000000001
 32
0.0
 13
0.0
 23
-2.8700000000000001
 33
0.0
  0
3DFACE
  5
263
  8
0
 10
0.0618033988749895
 20
-1.72
 30
-0.1902113032590309
 11
0.1618033988749894
 21
-1.72
 31
-0.1175570504584948
 12
0.0
 22
-2.8700000000000001
 32
0.0
 13
0.0
 23
-2.8700000000000001
 33
0.0
  0
3DFACE
  5
264
  8
0
 10
0.1618033988749894
 20
-1.72
 30
-0.1175570504584948
 11
0.2
 21
-1.72
 31
0.0
 12
0.0
 22
-2.8700000000000001
 32
0.0
 13
0.0
 23
-2.8700000000000001
 33
0.0
  0
3DFACE
  5
265
  8
0
 10
0.17
 20
-2.1200000000000001
 30
0.75
 11
0.1202081528017131
 21
-2.1200000000000001
 31
0.8702081528017133
 12
0.1202081528017131
 22
-3.9500000000000002
 32
0.8702081528017133
 13
0.17
 23
-3.9500000000000002
 33
0.75
  0
3DFACE
  5
266
  8
0
 10
0.1202081528017131
 20
-2.1200000000000001
 30
0.8702081528017133
 11
0.0
 21
-2.1200000000000001
 31
0.9199999999999999
 12
0.0
 22
-3.9500000000000002
 32
0.9199999999999999
 13
0.1202081528017131
 23
-3.9500000000000002
 33
0.8702081528017133
  0
3DFACE
  5
267
  8
0
 10
0.0
 20
-2.1200000000000001
 30
0.9199999999999999
 11
-0.1202081528017131
 21
-2.1200000000000001
 31
0.8702081528017133
 12
-0.1202081528017131
 22
-3.9500000000000002
 32
0.8702081528017133
 13
0.0
 23
-3.9500000000000002
 33
0.9199999999999999
  0
3DFACE
  5
268
  8
0
 10
-0.1202081528017131
 20
-2.1200000000000001
 30
0.8702081528017133
 11
-0.17
 21
-2.1200000000000001
 31
0.75
 12
-0.17
 22
-3.9500000000000002
 32
0.75
 13
-0.1202081528017131
 23
-3.9500000000000002
 33
0.8702081528017133
  0
3DFACE
  5
269
  8
0
 10
-0.17
 20
-2.1200000000000001
 30
0.75
 11
-0.1202081528017131
 21
-2.1200000000000001
 31
0.6297918471982867
 12
-0.1202081528017131
 22
-3.9500000000000002
 32
0.6297918471982867
 13
-0.17
 23
-3.9500000000000002
 33
0.75
  0
3DFACE
  5
26A
  8
0
 10
-0.1202081528017131
 20
-2.1200000000000001
 30
0.6297918471982867
 11
0.0
 21
-2.1200000000000001
 31
0.5800000000000001
 12
0.0
 22
-3.9500000000000002
 32
0.5800000000000001
 13
-0.1202081528017131
 23
-3.9500000000000002
 33
0.6297918471982867
  0
3DFACE
  5
26B
  8
0
 10
0.0
 20
-2.1200000000000001
 30
0.5800000000000001
 11
0.1202081528017131
 21
-2.1200000000000001
 31
0.6297918471982867
 12
0.1202081528017131
 22
-3.9500000000000002
 32
0.6297918471982867
 13
0.0
 23
-3.9500000000000002
 33
0.5800000000000001
  0
3DFACE
  5
26C
  8
0
 10
0.1202081528017131
 20
-2.1200000000000001
 30
0.6297918471982867
 11
0.17
 21
-2.1200000000000001
 31
0.75
 12
0.17
 22
-3.9500000000000002
 32
0.75
 13
0.1202081528017131
 23
-3.9500000000000002
 33
0.6297918471982867
  0
3DFACE
  5
26D
  8
0
 10
0.25
 20
-1.25
 30
0.75
 11
0.1767766952966369
 21
-1.25
 31
0.9267766952966365
 12
0.1202081528017131
 22
-2.1200000000000001
 32
0.8702081528017133
 13
0.17
 23
-2.1200000000000001
 33
0.75
  0
3DFACE
  5
26E
  8
0
 10
0.1767766952966369
 20
-1.25
 30
0.9267766952966365
 11
0.0
 21
-1.25
 31
1.0
 12
0.0
 22
-2.1200000000000001
 32
0.9199999999999999
 13
0.1202081528017131
 23
-2.1200000000000001
 33
0.8702081528017133
  0
3DFACE
  5
26F
  8
0
 10
0.0
 20
-1.25
 30
1.0
 11
-0.1767766952966369
 21
-1.25
 31
0.9267766952966365
 12
-0.1202081528017131
 22
-2.1200000000000001
 32
0.8702081528017133
 13
0.0
 23
-2.1200000000000001
 33
0.9199999999999999
  0
3DFACE
  5
270
  8
0
 10
-0.1767766952966369
 20
-1.25
 30
0.9267766952966365
 11
-0.25
 21
-1.25
 31
0.75
 12
-0.17
 22
-2.1200000000000001
 32
0.75
 13
-0.1202081528017131
 23
-2.1200000000000001
 33
0.8702081528017133
  0
3DFACE
  5
271
  8
0
 10
-0.25
 20
-1.25
 30
0.75
 11
-0.1767766952966369
 21
-1.25
 31
0.5732233047033635
 12
-0.1202081528017131
 22
-2.1200000000000001
 32
0.6297918471982867
 13
-0.17
 23
-2.1200000000000001
 33
0.75
  0
3DFACE
  5
272
  8
0
 10
-0.1767766952966369
 20
-1.25
 30
0.5732233047033635
 11
0.0
 21
-1.25
 31
0.5
 12
0.0
 22
-2.1200000000000001
 32
0.5800000000000001
 13
-0.1202081528017131
 23
-2.1200000000000001
 33
0.6297918471982867
  0
3DFACE
  5
273
  8
0
 10
0.0
 20
-1.25
 30
0.5
 11
0.1767766952966368
 21
-1.25
 31
0.5732233047033635
 12
0.1202081528017131
 22
-2.1200000000000001
 32
0.6297918471982867
 13
0.0
 23
-2.1200000000000001
 33
0.5800000000000001
  0
3DFACE
  5
274
  8
0
 10
0.1767766952966368
 20
-1.25
 30
0.5732233047033635
 11
0.25
 21
-1.25
 31
0.75
 12
0.17
 22
-2.1200000000000001
 32
0.75
 13
0.1202081528017131
 23
-2.1200000000000001
 33
0.6297918471982867
  0
3DFACE
  5
275
  8
0
 10
0.25
 20
-0.4000000000000013
 30
0.75
 11
0.1767766952966369
 21
-0.4000000000000013
 31
0.9267766952966365
 12
0.1767766952966369
 22
-1.25
 32
0.9267766952966365
 13
0.25
 23
-1.25
 33
0.75
  0
3DFACE
  5
276
  8
0
 10
0.1767766952966369
 20
-0.4000000000000013
 30
0.9267766952966365
 11
0.0
 21
-0.4000000000000013
 31
1.0
 12
0.0
 22
-1.25
 32
1.0
 13
0.1767766952966369
 23
-1.25
 33
0.9267766952966365
  0
3DFACE
  5
277
  8
0
 10
0.0
 20
-0.4000000000000013
 30
1.0
 11
-0.1767766952966369
 21
-0.4000000000000013
 31
0.9267766952966365
 12
-0.1767766952966369
 22
-1.25
 32
0.9267766952966365
 13
0.0
 23
-1.25
 33
1.0
  0
3DFACE
  5
278
  8
0
 10
-0.1767766952966369
 20
-0.4000000000000013
 30
0.9267766952966365
 11
-0.25
 21
-0.4000000000000013
 31
0.75
 12
-0.25
 22
-1.25
 32
0.75
 13
-0.1767766952966369
 23
-1.25
 33
0.9267766952966365
  0
3DFACE
  5
279
  8
0
 10
-0.25
 20
-0.4000000000000013
 30
0.75
 11
-0.1767766952966369
 21
-0.4000000000000013
 31
0.5732233047033635
 12
-0.1767766952966369
 22
-1.25
 32
0.5732233047033635
 13
-0.25
 23
-1.25
 33
0.75
  0
3DFACE
  5
27A
  8
0
 10
-0.1767766952966369
 20
-0.4000000000000013
 30
0.5732233047033635
 11
0.0
 21
-0.4000000000000013
 31
0.5
 12
0.0
 22
-1.25
 32
0.5
 13
-0.1767766952966369
 23
-1.25
 33
0.5732233047033635
  0
3DFACE
  5
27B
  8
0
 10
0.0
 20
-0.4000000000000013
 30
0.5
 11
0.1767766952966368
 21
-0.4000000000000013
 31
0.5732233047033635
 12
0.1767766952966368
 22
-1.25
 32
0.5732233047033635
 13
0.0
 23
-1.25
 33
0.5
  0
3DFACE
  5
27C
  8
0
 10
0.1767766952966368
 20
-0.4000000000000013
 30
0.5732233047033635
 11
0.25
 21
-0.4000000000000013
 31
0.75
 12
0.25
 22
-1.25
 32
0.75
 13
0.1767766952966368
 23
-1.25
 33
0.5732233047033635
  0
3DFACE
  5
27D
  8
0
 10
0.2
 20
-0.2200000000000006
 30
0.75
 11
0.1414213562373095
 21
-0.2200000000000006
 31
0.8914213562373092
 12
0.1626345596729059
 22
-0.3100000000000005
 32
0.9126345596729059
 13
0.23
 23
-0.3100000000000005
 33
0.75
  0
3DFACE
  5
27E
  8
0
 10
0.1414213562373095
 20
-0.2200000000000006
 30
0.8914213562373092
 11
0.0
 21
-0.2200000000000006
 31
0.9500000000000001
 12
0.0
 22
-0.3100000000000005
 32
0.9800000000000004
 13
0.1626345596729059
 23
-0.3100000000000005
 33
0.9126345596729059
  0
3DFACE
  5
27F
  8
0
 10
0.0
 20
-0.2200000000000006
 30
0.9500000000000001
 11
-0.1414213562373095
 21
-0.2200000000000006
 31
0.8914213562373092
 12
-0.1626345596729059
 22
-0.3100000000000005
 32
0.9126345596729059
 13
0.0
 23
-0.3100000000000005
 33
0.9800000000000004
  0
3DFACE
  5
280
  8
0
 10
-0.1414213562373095
 20
-0.2200000000000006
 30
0.8914213562373092
 11
-0.2
 21
-0.2200000000000006
 31
0.75
 12
-0.23
 22
-0.3100000000000005
 32
0.75
 13
-0.1626345596729059
 23
-0.3100000000000005
 33
0.9126345596729059
  0
3DFACE
  5
281
  8
0
 10
-0.2
 20
-0.2200000000000006
 30
0.75
 11
-0.1414213562373095
 21
-0.2200000000000006
 31
0.6085786437626908
 12
-0.162634559672906
 22
-0.3100000000000005
 32
0.5873654403270942
 13
-0.23
 23
-0.3100000000000005
 33
0.75
  0
3DFACE
  5
282
  8
0
 10
-0.1414213562373095
 20
-0.2200000000000006
 30
0.6085786437626908
 11
0.0
 21
-0.2200000000000006
 31
0.5499999999999999
 12
0.0
 22
-0.3100000000000005
 32
0.5199999999999996
 13
-0.162634559672906
 23
-0.3100000000000005
 33
0.5873654403270942
  0
3DFACE
  5
283
  8
0
 10
0.0
 20
-0.2200000000000006
 30
0.5499999999999999
 11
0.1414213562373095
 21
-0.2200000000000006
 31
0.6085786437626908
 12
0.1626345596729059
 22
-0.3100000000000005
 32
0.5873654403270942
 13
0.0
 23
-0.3100000000000005
 33
0.5199999999999996
  0
3DFACE
  5
284
  8
0
 10
0.1414213562373095
 20
-0.2200000000000006
 30
0.6085786437626908
 11
0.2
 21
-0.2200000000000006
 31
0.75
 12
0.23
 22
-0.3100000000000005
 32
0.75
 13
0.1626345596729059
 23
-0.3100000000000005
 33
0.5873654403270942
  0
3DFACE
  5
285
  8
0
 10
0.23
 20
-0.3100000000000005
 30
0.75
 11
0.1626345596729059
 21
-0.3100000000000005
 31
0.9126345596729059
 12
0.1767766952966369
 22
-0.4000000000000004
 32
0.9267766952966365
 13
0.25
 23
-0.4000000000000004
 33
0.75
  0
3DFACE
  5
286
  8
0
 10
0.1626345596729059
 20
-0.3100000000000005
 30
0.9126345596729059
 11
0.0
 21
-0.3100000000000005
 31
0.9800000000000004
 12
0.0
 22
-0.4000000000000004
 32
1.0
 13
0.1767766952966369
 23
-0.4000000000000004
 33
0.9267766952966365
  0
3DFACE
  5
287
  8
0
 10
0.0
 20
-0.3100000000000005
 30
0.9800000000000004
 11
-0.1626345596729059
 21
-0.3100000000000005
 31
0.9126345596729059
 12
-0.1767766952966369
 22
-0.4000000000000004
 32
0.9267766952966365
 13
0.0
 23
-0.4000000000000004
 33
1.0
  0
3DFACE
  5
288
  8
0
 10
-0.1626345596729059
 20
-0.3100000000000005
 30
0.9126345596729059
 11
-0.23
 21
-0.3100000000000005
 31
0.75
 12
-0.25
 22
-0.4000000000000004
 32
0.75
 13
-0.1767766952966369
 23
-0.4000000000000004
 33
0.9267766952966365
  0
3DFACE
  5
289
  8
0
 10
-0.23
 20
-0.3100000000000005
 30
0.75
 11
-0.162634559672906
 21
-0.3100000000000005
 31
0.5873654403270942
 12
-0.1767766952966369
 22
-0.4000000000000004
 32
0.5732233047033635
 13
-0.25
 23
-0.4000000000000004
 33
0.75
  0
3DFACE
  5
28A
  8
0
 10
-0.162634559672906
 20
-0.3100000000000005
 30
0.5873654403270942
 11
0.0
 21
-0.3100000000000005
 31
0.5199999999999996
 12
0.0
 22
-0.4000000000000004
 32
0.5
 13
-0.1767766952966369
 23
-0.4000000000000004
 33
0.5732233047033635
  0
3DFACE
  5
28B
  8
0
 10
0.0
 20
-0.3100000000000005
 30
0.5199999999999996
 11
0.1626345596729059
 21
-0.3100000000000005
 31
0.5873654403270942
 12
0.1767766952966368
 22
-0.4000000000000004
 32
0.5732233047033635
 13
0.0
 23
-0.4000000000000004
 33
0.5
  0
3DFACE
  5
28C
  8
0
 10
0.1626345596729059
 20
-0.3100000000000005
 30
0.5873654403270942
 11
0.23
 21
-0.3100000000000005
 31
0.75
 12
0.25
 22
-0.4000000000000004
 32
0.75
 13
0.1767766952966368
 23
-0.4000000000000004
 33
0.5732233047033635
  0
3DFACE
  5
28D
  8
0
 10
0.21
 20
3.419999999999999
 30
0.0
 11
0.169893568818739
 21
3.419999999999999
 31
-0.123434902981419
 12
0.0
 22
3.919999999999999
 32
0.0
 13
0.0
 23
3.919999999999999
 33
0.0
  0
3DFACE
  5
28E
  8
0
 10
0.169893568818739
 20
3.419999999999999
 30
-0.123434902981419
 11
0.064893568818739
 21
3.419999999999999
 31
-0.1997218684219826
 12
0.0
 22
3.919999999999999
 32
0.0
 13
0.0
 23
3.919999999999999
 33
0.0
  0
3DFACE
  5
28F
  8
0
 10
0.064893568818739
 20
3.419999999999999
 30
-0.1997218684219826
 11
-0.064893568818739
 21
3.419999999999999
 31
-0.1997218684219826
 12
0.0
 22
3.919999999999999
 32
0.0
 13
0.0
 23
3.919999999999999
 33
0.0
  0
3DFACE
  5
290
  8
0
 10
-0.064893568818739
 20
3.419999999999999
 30
-0.1997218684219826
 11
-0.1698935688187389
 21
3.419999999999999
 31
-0.123434902981419
 12
0.0
 22
3.919999999999999
 32
0.0
 13
0.0
 23
3.919999999999999
 33
0.0
  0
3DFACE
  5
291
  8
0
 10
-0.1698935688187389
 20
3.419999999999999
 30
-0.123434902981419
 11
-0.21
 21
3.419999999999999
 31
0.0
 12
0.0
 22
3.919999999999999
 32
0.0
 13
0.0
 23
3.919999999999999
 33
0.0
  0
3DFACE
  5
292
  8
0
 10
-0.21
 20
3.419999999999999
 30
0.0
 11
-0.169893568818739
 21
3.419999999999999
 31
0.123434902981419
 12
0.0
 22
3.919999999999999
 32
0.0
 13
0.0
 23
3.919999999999999
 33
0.0
  0
3DFACE
  5
293
  8
0
 10
-0.169893568818739
 20
3.419999999999999
 30
0.123434902981419
 11
-0.064893568818739
 21
3.419999999999999
 31
0.1997218684219826
 12
0.0
 22
3.919999999999999
 32
0.0
 13
0.0
 23
3.919999999999999
 33
0.0
  0
3DFACE
  5
294
  8
0
 10
-0.064893568818739
 20
3.419999999999999
 30
0.1997218684219826
 11
0.0648935688187389
 21
3.419999999999999
 31
0.1997218684219826
 12
0.0
 22
3.919999999999999
 32
0.0
 13
0.0
 23
3.919999999999999
 33
0.0
  0
3DFACE
  5
295
  8
0
 10
0.0648935688187389
 20
3.419999999999999
 30
0.1997218684219826
 11
0.1698935688187389
 21
3.419999999999999
 31
0.123434902981419
 12
0.0
 22
3.919999999999999
 32
0.0
 13
0.0
 23
3.919999999999999
 33
0.0
  0
3DFACE
  5
296
  8
0
 10
0.1698935688187389
 20
3.419999999999999
 30
0.123434902981419
 11
0.21
 21
3.419999999999999
 31
0.0
 12
0.0
 22
3.919999999999999
 32
0.0
 13
0.0
 23
3.919999999999999
 33
0.0
  0
3DFACE
  5
2AC
  8
0
 10
-0.18
 20
-0.2200000000000006
 30
0.75
 11
-0.1272792206135785
 21
-0.2200000000000006
 31
0.8772792206135786
 12
-0.1272792206135785
 22
-1.22
 32
0.8772792206135786
 13
-0.18
 23
-1.22
 33
0.75
  0
3DFACE
  5
2AD
  8
0
 10
-0.1272792206135785
 20
-0.2200000000000006
 30
0.8772792206135786
 11
0.0
 21
-0.2200000000000006
 31
0.9299999999999997
 12
0.0
 22
-1.22
 32
0.9299999999999997
 13
-0.1272792206135785
 23
-1.22
 33
0.8772792206135786
  0
3DFACE
  5
2AE
  8
0
 10
0.0
 20
-0.2200000000000006
 30
0.9299999999999997
 11
0.1272792206135785
 21
-0.2200000000000006
 31
0.8772792206135786
 12
0.1272792206135785
 22
-1.22
 32
0.8772792206135786
 13
0.0
 23
-1.22
 33
0.9299999999999997
  0
3DFACE
  5
2AF
  8
0
 10
0.1272792206135785
 20
-0.2200000000000006
 30
0.8772792206135786
 11
0.18
 21
-0.2200000000000006
 31
0.75
 12
0.18
 22
-1.22
 32
0.75
 13
0.1272792206135785
 23
-1.22
 33
0.8772792206135786
  0
3DFACE
  5
2B0
  8
0
 10
0.18
 20
-0.2200000000000006
 30
0.75
 11
0.1272792206135786
 21
-0.2200000000000006
 31
0.6227207793864215
 12
0.1272792206135786
 22
-1.22
 32
0.6227207793864215
 13
0.18
 23
-1.22
 33
0.75
  0
3DFACE
  5
2B1
  8
0
 10
0.1272792206135786
 20
-0.2200000000000006
 30
0.6227207793864215
 11
0.0
 21
-0.2200000000000006
 31
0.5700000000000003
 12
0.0
 22
-1.22
 32
0.5700000000000003
 13
0.1272792206135786
 23
-1.22
 33
0.6227207793864215
  0
3DFACE
  5
2B2
  8
0
 10
0.0
 20
-0.2200000000000006
 30
0.5700000000000003
 11
-0.1272792206135785
 21
-0.2200000000000006
 31
0.6227207793864215
 12
-0.1272792206135785
 22
-1.22
 32
0.6227207793864215
 13
0.0
 23
-1.22
 33
0.5700000000000003
  0
3DFACE
  5
2B3
  8
0
 10
-0.1272792206135785
 20
-0.2200000000000006
 30
0.6227207793864215
 11
-0.18
 21
-0.2200000000000006
 31
0.75
 12
-0.18
 22
-1.22
 32
0.75
 13
-0.1272792206135785
 23
-1.22
 33
0.6227207793864215
  0
3DFACE
  5
2B4
  8
0
 10
0.0
 20
-0.2200000000000006
 30
0.5700000000000003
 11
0.1272792206135786
 21
-0.2200000000000006
 31
0.6227207793864215
 12
0.1414213562373095
 22
-0.2200000000000006
 32
0.6085786437626908
 13
0.0
 23
-0.2200000000000015
 33
0.5499999999999999
  0
3DFACE
  5
2B5
  8
0
 10
0.1272792206135778
 20
-0.2200000000000006
 30
0.6227207793864223
 11
0.1799999999999997
 21
-0.2200000000000006
 31
0.75
 12
0.1999999999999993
 22
-0.2200000000000006
 32
0.75
 13
0.1414213562373092
 23
-0.2200000000000015
 33
0.6085786437626908
  0
3DFACE
  5
2B6
  8
0
 10
0.1799999999999997
 20
-0.2200000000000006
 30
0.75
 11
0.1272792206135778
 21
-0.2200000000000006
 31
0.6227207793864223
 12
0.1272792206135778
 22
-1.22
 32
0.6227207793864223
 13
0.1799999999999997
 23
-1.22
 33
0.75
  0
3DFACE
  5
2B7
  8
0
 10
0.1799999999999997
 20
-0.2200000000000006
 30
0.75
 11
0.1272792206135787
 21
-0.2200000000000006
 31
0.8772792206135786
 12
0.1414213562373092
 22
-0.2200000000000006
 32
0.8914213562373092
 13
0.2000000000000002
 23
-0.2200000000000015
 33
0.75
  0
3DFACE
  5
2B8
  8
0
 10
0.1272792206135787
 20
-0.2200000000000006
 30
0.8772792206135786
 11
0.1799999999999997
 21
-0.2200000000000006
 31
0.75
 12
0.1799999999999997
 22
-1.22
 32
0.75
 13
0.1272792206135787
 23
-1.22
 33
0.8772792206135786
  0
3DFACE
  5
2B9
  8
0
 10
0.1272792206135787
 20
-0.2199999999999997
 30
0.8772792206135786
 11
0.0
 21
-0.2199999999999997
 31
0.9299999999999997
 12
0.0
 22
-0.2199999999999997
 32
0.9499999999999992
 13
0.1414213562373101
 23
-0.2200000000000006
 33
0.8914213562373101
  0
3DFACE
  5
2BA
  8
0
 10
0.0
 20
-0.2199999999999997
 30
0.9299999999999997
 11
0.1272792206135787
 21
-0.2199999999999997
 31
0.8772792206135786
 12
0.1272792206135787
 22
-1.2199999999999991
 32
0.8772792206135786
 13
0.0
 23
-1.2199999999999991
 33
0.9299999999999997
  0
3DFACE
  5
2BB
  8
0
 10
0.0000000000000001
 20
-0.2200000000000006
 30
0.9299999999999997
 11
-0.1272792206135785
 21
-0.2200000000000006
 31
0.8772792206135786
 12
-0.1414213562373094
 22
-0.2200000000000006
 32
0.8914213562373092
 13
0.0000000000000001
 23
-0.2200000000000015
 33
0.9500000000000001
  0
3DFACE
  5
2BC
  8
0
 10
-0.1272792206135785
 20
-0.2200000000000006
 30
0.8772792206135786
 11
0.0000000000000001
 21
-0.2200000000000006
 31
0.9299999999999997
 12
0.0000000000000001
 22
-1.22
 32
0.9299999999999997
 13
-0.1272792206135785
 23
-1.22
 33
0.8772792206135786
  0
3DFACE
  5
2BD
  8
0
 10
-0.1272792206135787
 20
-0.2200000000000006
 30
0.8772792206135786
 11
-0.1799999999999997
 21
-0.2200000000000006
 31
0.75
 12
-0.1999999999999993
 22
-0.2200000000000006
 32
0.75
 13
-0.1414213562373101
 23
-0.2200000000000015
 33
0.8914213562373101
  0
3DFACE
  5
2BE
  8
0
 10
-0.1799999999999997
 20
-0.2200000000000006
 30
0.75
 11
-0.1272792206135787
 21
-0.2200000000000006
 31
0.8772792206135786
 12
-0.1272792206135787
 22
-1.22
 32
0.8772792206135786
 13
-0.1799999999999997
 23
-1.22
 33
0.75
  0
3DFACE
  5
2BF
  8
0
 10
-0.1799999999999997
 20
-0.2200000000000006
 30
0.75
 11
-0.1272792206135787
 21
-0.2200000000000006
 31
0.6227207793864215
 12
-0.1414213562373092
 22
-0.2200000000000006
 32
0.6085786437626899
 13
-0.2000000000000002
 23
-0.2200000000000015
 33
0.75
  0
3DFACE
  5
2C0
  8
0
 10
-0.1272792206135787
 20
-0.2200000000000006
 30
0.6227207793864215
 11
-0.1799999999999997
 21
-0.2200000000000006
 31
0.75
 12
-0.1799999999999997
 22
-1.22
 32
0.75
 13
-0.1272792206135787
 23
-1.22
 33
0.6227207793864215
  0
3DFACE
  5
2C1
  8
0
 10
-0.1272792206135778
 20
-0.2200000000000006
 30
0.6227207793864223
 11
0.0
 21
-0.2200000000000006
 31
0.5700000000000003
 12
0.0
 22
-0.2200000000000006
 32
0.5499999999999999
 13
-0.1414213562373092
 23
-0.2200000000000015
 33
0.6085786437626908
  0
3DFACE
  5
2C2
  8
0
 10
0.0
 20
-0.2200000000000006
 30
0.5700000000000003
 11
-0.1272792206135778
 21
-0.2200000000000006
 31
0.6227207793864223
 12
-0.1272792206135778
 22
-1.22
 32
0.6227207793864223
 13
0.0
 23
-1.22
 33
0.5700000000000003
  0
3DFACE
  5
2C3
  8
0
 10
-0.1272792206135785
 20
-1.2200000000000011
 30
0.8772792206135786
 11
0.0000000000000001
 21
-1.2200000000000011
 31
0.9299999999999997
 12
0.1272792206135787
 22
-1.22
 32
0.8772792206135786
 13
-0.18
 23
-1.22
 33
0.75
  0
3DFACE
  5
2C4
  8
0
 10
-0.1799999999999997
 20
-1.22
 30
0.75
 11
0.1272792206135785
 21
-1.22
 31
0.8772792206135786
 12
0.18
 22
-1.22
 32
0.75
 13
-0.1272792206135793
 23
-1.22
 33
0.6227207793864232
  0
3DFACE
  5
2C5
  8
0
 10
-0.1272792206135782
 20
-1.22
 30
0.6227207793864232
 11
0.18
 21
-1.22
 31
0.7500000000000018
 12
0.1272792206135778
 22
-1.22
 32
0.6227207793864223
 13
0.0
 23
-1.22
 33
0.5700000000000003
  0
3DFACE
  5
2C9
  8
0
 10
-0.38
 20
0.7199999999999998
 30
-0.0499999999999998
 11
-0.3874782608695653
 21
0.5199999999999987
 31
0.0
 12
-2.52
 22
0.5199999999999987
 32
0.0
 13
-2.52
 23
0.7199999999999998
 33
-0.0499999999999998
  0
3DFACE
  5
2CA
  8
0
 10
-0.3837540151883547
 20
1.5399999999999989
 30
-0.0499999999999998
 11
-0.38
 21
0.7199999999999998
 31
-0.0499999999999998
 12
-2.52
 22
0.7199999999999998
 32
-0.0499999999999998
 13
-2.52
 23
1.5399999999999989
 33
-0.0499999999999998
  0
3DFACE
  5
2CB
  8
0
 10
-2.52
 20
1.5399999999999989
 30
-0.0499999999999998
 11
-2.52
 21
1.569999999999999
 31
0.0
 12
-0.4
 22
1.569999999999999
 32
0.0
 13
-0.3837540151883547
 23
1.5399999999999989
 33
-0.0499999999999998
  0
3DFACE
  5
2CE
  8
0
 10
-2.52
 20
1.5399999999999989
 30
-0.0499999999999998
 11
-2.52
 21
0.7199999999999998
 31
-0.0499999999999998
 12
-2.5800000000000001
 22
0.8199999999999993
 32
-0.0499999999999998
 13
-2.5800000000000001
 23
1.509999999999998
 33
-0.0499999999999998
  0
3DFACE
  5
2D0
  8
0
 10
-2.5800000000000001
 20
1.509999999999998
 30
-0.0499999999999998
 11
-2.5800000000000001
 21
1.549999999999998
 31
0.0
 12
-2.52
 22
1.569999999999999
 32
0.0
 13
-2.52
 23
1.5399999999999989
 33
-0.0499999999999998
  0
3DFACE
  5
2D1
  8
0
 10
-2.52
 20
0.7199999999999998
 30
-0.0499999999999998
 11
-2.52
 21
0.5199999999999987
 31
0.0
 12
-2.5800000000000001
 22
0.7399999999999994
 32
0.0
 13
-2.5800000000000001
 23
0.8199999999999993
 33
-0.0499999999999998
  0
3DFACE
  5
2D5
  8
0
 10
-2.649999999999999
 20
1.329999999999999
 30
-0.0499999999999998
 11
-2.6600000000000001
 21
1.329999999999999
 31
0.0
 12
-2.5800000000000001
 22
1.549999999999998
 32
0.0
 13
-2.5800000000000001
 23
1.509999999999998
 33
-0.0499999999999998
  0
3DFACE
  5
2D7
  8
0
 10
-2.5800000000000001
 20
1.509999999999998
 30
-0.0499999999999998
 11
-2.5800000000000001
 21
0.8199999999999993
 31
-0.0499999999999998
 12
-2.649999999999999
 22
1.149999999999999
 32
-0.0499999999999998
 13
-2.649999999999999
 23
1.329999999999999
 33
-0.0499999999999998
  0
3DFACE
  5
2D8
  8
0
 10
-2.5800000000000001
 20
0.8199999999999993
 30
-0.0499999999999998
 11
-2.5800000000000001
 21
0.7399999999999994
 31
0.0
 12
-2.6600000000000001
 22
1.149999999999999
 32
0.0
 13
-2.649999999999999
 23
1.149999999999999
 33
-0.0499999999999998
  0
3DFACE
  5
2D9
  8
0
 10
-2.649999999999999
 20
1.149999999999999
 30
-0.0499999999999998
 11
-2.6600000000000001
 21
1.149999999999999
 31
0.0
 12
-2.6600000000000001
 22
1.329999999999999
 32
0.0
 13
-2.649999999999999
 23
1.329999999999999
 33
-0.0499999999999998
  0
3DFACE
  5
2DD
  8
0
 10
-0.3874782608695653
 20
0.5199999999999987
 30
0.0
 11
-0.38
 21
0.7199999999999998
 31
0.0499999999999998
 12
-2.52
 22
0.7199999999999998
 32
0.0499999999999998
 13
-2.52
 23
0.5199999999999987
 33
0.0
  0
3DFACE
  5
2DE
  8
0
 10
-2.52
 20
1.569999999999999
 30
0.0
 11
-2.52
 21
1.5399999999999989
 31
0.0499999999999998
 12
-0.3837540151883547
 22
1.5399999999999989
 32
0.0499999999999998
 13
-0.4
 23
1.569999999999999
 33
0.0
  0
3DFACE
  5
2E0
  8
0
 10
-2.5800000000000001
 20
1.549999999999998
 30
0.0
 11
-2.5800000000000001
 21
1.509999999999998
 31
0.0499999999999998
 12
-2.52
 22
1.5399999999999989
 32
0.0499999999999998
 13
-2.52
 23
1.569999999999999
 33
0.0
  0
3DFACE
  5
2E1
  8
0
 10
-2.52
 20
0.5199999999999987
 30
0.0
 11
-2.52
 21
0.7199999999999998
 31
0.0499999999999998
 12
-2.5800000000000001
 22
0.8199999999999993
 32
0.0499999999999998
 13
-2.5800000000000001
 23
0.7399999999999994
 33
0.0
  0
3DFACE
  5
2E5
  8
0
 10
-2.6600000000000001
 20
1.149999999999999
 30
0.0
 11
-2.649999999999999
 21
1.149999999999999
 31
0.0499999999999998
 12
-2.649999999999999
 22
1.329999999999999
 32
0.0499999999999998
 13
-2.6600000000000001
 23
1.329999999999999
 33
0.0
  0
3DFACE
  5
2E6
  8
0
 10
-2.6600000000000001
 20
1.329999999999999
 30
0.0
 11
-2.649999999999999
 21
1.329999999999999
 31
0.0499999999999998
 12
-2.5800000000000001
 22
1.509999999999998
 32
0.0499999999999998
 13
-2.5800000000000001
 23
1.549999999999998
 33
0.0
  0
3DFACE
  5
2E7
  8
0
 10
-2.5800000000000001
 20
0.7399999999999994
 30
0.0
 11
-2.5800000000000001
 21
0.8199999999999993
 31
0.0499999999999998
 12
-2.649999999999999
 22
1.149999999999999
 32
0.0499999999999998
 13
-2.6600000000000001
 23
1.149999999999999
 33
0.0
  0
3DFACE
  5
2EB
  8
0
 10
-2.52
 20
1.5399999999999989
 30
0.0499999999999998
 11
-2.52
 21
0.7199999999999998
 31
0.0499999999999998
 12
-0.38
 22
0.7199999999999998
 32
0.0499999999999998
 13
-0.3837540151883547
 23
1.5399999999999989
 33
0.0499999999999998
  0
3DFACE
  5
2EC
  8
0
 10
-2.5800000000000001
 20
1.509999999999998
 30
0.0499999999999998
 11
-2.5800000000000001
 21
0.8199999999999993
 31
0.0499999999999998
 12
-2.52
 22
0.7199999999999998
 32
0.0499999999999998
 13
-2.52
 23
1.5399999999999989
 33
0.0499999999999998
  0
3DFACE
  5
2ED
  8
0
 10
-2.649999999999999
 20
1.329999999999999
 30
0.0499999999999998
 11
-2.649999999999999
 21
1.149999999999999
 31
0.0499999999999998
 12
-2.5800000000000001
 22
0.8199999999999993
 32
0.0499999999999998
 13
-2.5800000000000001
 23
1.509999999999998
 33
0.0499999999999998
  0
3DFACE
  5
309
  8
0
 10
0.38
 20
0.7199999999999998
 30
0.0499999999999998
 11
0.3874782608695653
 21
0.5199999999999987
 31
0.0
 12
2.52
 22
0.5199999999999987
 32
0.0
 13
2.52
 23
0.7199999999999998
 33
0.0499999999999998
  0
3DFACE
  5
30A
  8
0
 10
2.52
 20
1.5399999999999989
 30
0.0499999999999998
 11
2.52
 21
1.569999999999999
 31
0.0
 12
0.4
 22
1.569999999999999
 32
0.0
 13
0.3837540151883547
 23
1.5399999999999989
 33
0.0499999999999998
  0
3DFACE
  5
30B
  8
0
 10
2.52
 20
0.7199999999999998
 30
0.0499999999999998
 11
2.52
 21
0.5199999999999987
 31
0.0
 12
2.5800000000000001
 22
0.7399999999999994
 32
0.0
 13
2.5800000000000001
 23
0.8199999999999993
 33
0.0499999999999998
  0
3DFACE
  5
30C
  8
0
 10
2.5800000000000001
 20
1.509999999999998
 30
0.0499999999999998
 11
2.5800000000000001
 21
1.549999999999998
 31
0.0
 12
2.52
 22
1.569999999999999
 32
0.0
 13
2.52
 23
1.5399999999999989
 33
0.0499999999999998
  0
3DFACE
  5
30D
  8
0
 10
2.5800000000000001
 20
0.8199999999999993
 30
0.0499999999999998
 11
2.5800000000000001
 21
0.7399999999999994
 31
0.0
 12
2.6600000000000001
 22
1.149999999999999
 32
0.0
 13
2.649999999999999
 23
1.149999999999999
 33
0.0499999999999998
  0
3DFACE
  5
30E
  8
0
 10
2.649999999999999
 20
1.329999999999999
 30
0.0499999999999998
 11
2.6600000000000001
 21
1.329999999999999
 31
0.0
 12
2.5800000000000001
 22
1.549999999999998
 32
0.0
 13
2.5800000000000001
 23
1.509999999999998
 33
0.0499999999999998
  0
3DFACE
  5
30F
  8
0
 10
2.649999999999999
 20
1.149999999999999
 30
0.0499999999999998
 11
2.6600000000000001
 21
1.149999999999999
 31
0.0
 12
2.6600000000000001
 22
1.329999999999999
 32
0.0
 13
2.649999999999999
 23
1.329999999999999
 33
0.0499999999999998
  0
3DFACE
  5
310
  8
0
 10
0.3837540151883547
 20
1.5399999999999989
 30
0.0499999999999998
 11
0.38
 21
0.7199999999999998
 31
0.0499999999999998
 12
2.52
 22
0.7199999999999998
 32
0.0499999999999998
 13
2.52
 23
1.5399999999999989
 33
0.0499999999999998
  0
3DFACE
  5
311
  8
0
 10
2.52
 20
1.5399999999999989
 30
0.0499999999999998
 11
2.52
 21
0.7199999999999998
 31
0.0499999999999998
 12
2.5800000000000001
 22
0.8199999999999993
 32
0.0499999999999998
 13
2.5800000000000001
 23
1.509999999999998
 33
0.0499999999999998
  0
3DFACE
  5
312
  8
0
 10
2.5800000000000001
 20
1.509999999999998
 30
0.0499999999999998
 11
2.5800000000000001
 21
0.8199999999999993
 31
0.0499999999999998
 12
2.649999999999999
 22
1.149999999999999
 32
0.0499999999999998
 13
2.649999999999999
 23
1.329999999999999
 33
0.0499999999999998
  0
3DFACE
  5
313
  8
0
 10
0.3874782608695653
 20
0.5199999999999987
 30
0.0
 11
0.38
 21
0.7199999999999998
 31
-0.0499999999999998
 12
2.52
 22
0.7199999999999998
 32
-0.0499999999999998
 13
2.52
 23
0.5199999999999987
 33
0.0
  0
3DFACE
  5
314
  8
0
 10
2.52
 20
1.569999999999999
 30
0.0
 11
2.52
 21
1.5399999999999989
 31
-0.0499999999999998
 12
0.3837540151883547
 22
1.5399999999999989
 32
-0.0499999999999998
 13
0.4
 23
1.569999999999999
 33
0.0
  0
3DFACE
  5
315
  8
0
 10
2.52
 20
1.5399999999999989
 30
-0.0499999999999998
 11
2.52
 21
0.7199999999999998
 31
-0.0499999999999998
 12
0.38
 22
0.7199999999999998
 32
-0.0499999999999998
 13
0.3837540151883547
 23
1.5399999999999989
 33
-0.0499999999999998
  0
3DFACE
  5
316
  8
0
 10
2.52
 20
0.5199999999999987
 30
0.0
 11
2.52
 21
0.7199999999999998
 31
-0.0499999999999998
 12
2.5800000000000001
 22
0.8199999999999993
 32
-0.0499999999999998
 13
2.5800000000000001
 23
0.7399999999999994
 33
0.0
  0
3DFACE
  5
317
  8
0
 10
2.5800000000000001
 20
1.509999999999998
 30
-0.0499999999999998
 11
2.5800000000000001
 21
0.8199999999999993
 31
-0.0499999999999998
 12
2.52
 22
0.7199999999999998
 32
-0.0499999999999998
 13
2.52
 23
1.5399999999999989
 33
-0.0499999999999998
  0
3DFACE
  5
318
  8
0
 10
2.5800000000000001
 20
1.549999999999998
 30
0.0
 11
2.5800000000000001
 21
1.509999999999998
 31
-0.0499999999999998
 12
2.52
 22
1.5399999999999989
 32
-0.0499999999999998
 13
2.52
 23
1.569999999999999
 33
0.0
  0
3DFACE
  5
319
  8
0
 10
2.5800000000000001
 20
0.7399999999999994
 30
0.0
 11
2.5800000000000001
 21
0.8199999999999993
 31
-0.0499999999999998
 12
2.649999999999999
 22
1.149999999999999
 32
-0.0499999999999998
 13
2.6600000000000001
 23
1.149999999999999
 33
0.0
  0
3DFACE
  5
31A
  8
0
 10
2.649999999999999
 20
1.329999999999999
 30
-0.0499999999999998
 11
2.649999999999999
 21
1.149999999999999
 31
-0.0499999999999998
 12
2.5800000000000001
 22
0.8199999999999993
 32
-0.0499999999999998
 13
2.5800000000000001
 23
1.509999999999998
 33
-0.0499999999999998
  0
3DFACE
  5
31B
  8
0
 10
2.6600000000000001
 20
1.329999999999999
 30
0.0
 11
2.649999999999999
 21
1.329999999999999
 31
-0.0499999999999998
 12
2.5800000000000001
 22
1.509999999999998
 32
-0.0499999999999998
 13
2.5800000000000001
 23
1.549999999999998
 33
0.0
  0
3DFACE
  5
31C
  8
0
 10
2.6600000000000001
 20
1.149999999999999
 30
0.0
 11
2.649999999999999
 21
1.149999999999999
 31
-0.0499999999999998
 12
2.649999999999999
 22
1.329999999999999
 32
-0.0499999999999998
 13
2.6600000000000001
 23
1.329999999999999
 33
0.0
  0
3DFACE
  5
31F
  8
0
 10
-1.03
 20
-2.4199999999999999
 30
0.04
 11
-0.06
 21
-2.4199999999999999
 31
0.04
 12
-0.01
 22
-2.2400000000000011
 32
0.0899999999999999
 13
-1.03
 23
-2.2400000000000011
 33
0.0899999999999999
  0
3DFACE
  5
320
  8
0
 10
-1.03
 20
-2.2400000000000011
 30
0.0899999999999999
 11
-0.01
 21
-2.2400000000000011
 31
0.0899999999999999
 12
-0.12
 22
-1.9199999999999999
 32
0.0899999999999999
 13
-1.03
 23
-1.9199999999999999
 33
0.0899999999999999
  0
3DFACE
  5
322
  8
0
 10
-1.03
 20
-1.9199999999999999
 30
0.0899999999999999
 11
-0.12
 21
-1.9199999999999999
 31
0.0899999999999999
 12
-0.13
 22
-1.8799999999999999
 32
0.04
 13
-1.03
 23
-1.8799999999999999
 33
0.04
  0
3DFACE
  5
325
  8
0
 10
-1.0800000000000001
 20
-2.1200000000000001
 30
0.0899999999999999
 11
-1.03
 21
-2.2400000000000011
 31
0.0899999999999999
 12
-1.03
 22
-1.9199999999999999
 32
0.0899999999999999
 13
-1.0800000000000001
 23
-1.9500000000000011
 33
0.0899999999999999
  0
3DFACE
  5
327
  8
0
 10
-1.0900000000000001
 20
-1.9500000000000011
 30
0.04
 11
-1.0900000000000001
 21
-2.1200000000000001
 31
0.04
 12
-1.0800000000000001
 22
-2.1200000000000001
 32
0.0899999999999999
 13
-1.0800000000000001
 23
-1.9500000000000011
 33
0.0899999999999999
  0
3DFACE
  5
328
  8
0
 10
-1.0900000000000001
 20
-2.1200000000000001
 30
0.04
 11
-1.03
 21
-2.4199999999999999
 31
0.04
 12
-1.03
 22
-2.2400000000000011
 32
0.0899999999999999
 13
-1.0800000000000001
 23
-2.1200000000000001
 33
0.0899999999999999
  0
3DFACE
  5
329
  8
0
 10
-1.0800000000000001
 20
-1.9500000000000011
 30
0.0899999999999999
 11
-1.03
 21
-1.9199999999999999
 31
0.0899999999999999
 12
-1.03
 22
-1.8799999999999999
 32
0.04
 13
-1.0900000000000001
 23
-1.9500000000000011
 33
0.04
  0
3DFACE
  5
32D
  8
0
 10
-1.03
 20
-2.2400000000000011
 30
-0.0099999999999998
 11
-0.08
 21
-2.2400000000000011
 31
-0.0099999999999998
 12
-0.06
 22
-2.4199999999999999
 32
0.04
 13
-1.03
 23
-2.4199999999999999
 33
0.04
  0
3DFACE
  5
32E
  8
0
 10
-1.03
 20
-1.8799999999999999
 30
0.04
 11
-0.13
 21
-1.8799999999999999
 31
0.04
 12
-0.12
 22
-1.9199999999999999
 32
-0.0099999999999998
 13
-1.03
 23
-1.9199999999999999
 33
-0.0099999999999998
  0
3DFACE
  5
333
  8
0
 10
-1.0800000000000001
 20
-2.1200000000000001
 30
-0.0099999999999998
 11
-1.03
 21
-2.2400000000000011
 31
-0.0099999999999998
 12
-1.03
 22
-2.4199999999999999
 32
0.04
 13
-1.0900000000000001
 23
-2.1200000000000001
 33
0.04
  0
3DFACE
  5
334
  8
0
 10
-1.0800000000000001
 20
-1.9500000000000011
 30
-0.0099999999999998
 11
-1.0800000000000001
 21
-2.1200000000000001
 31
-0.0099999999999998
 12
-1.0900000000000001
 22
-2.1200000000000001
 32
0.04
 13
-1.0900000000000001
 23
-1.9500000000000011
 33
0.04
  0
3DFACE
  5
335
  8
0
 10
-1.0900000000000001
 20
-1.9500000000000011
 30
0.04
 11
-1.03
 21
-1.8799999999999999
 31
0.04
 12
-1.03
 22
-1.9199999999999999
 32
-0.0099999999999998
 13
-1.0800000000000001
 23
-1.9500000000000011
 33
-0.0099999999999998
  0
3DFACE
  5
336
  8
0
 10
-0.12
 20
-1.9199999999999999
 30
-0.0099999999999998
 11
-0.08
 21
-2.2400000000000011
 31
-0.0099999999999998
 12
-1.03
 22
-2.2400000000000011
 32
-0.0099999999999998
 13
-1.03
 23
-1.9199999999999999
 33
-0.0099999999999998
  0
3DFACE
  5
337
  8
0
 10
-1.03
 20
-1.9199999999999999
 30
-0.0099999999999998
 11
-1.03
 21
-2.2400000000000011
 31
-0.0099999999999998
 12
-1.0800000000000001
 22
-2.1200000000000001
 32
-0.0099999999999998
 13
-1.0800000000000001
 23
-1.9500000000000011
 33
-0.0099999999999998
  0
3DFACE
  5
33A
  8
0
 10
1.0800000000000001
 20
-1.9500000000000011
 30
0.0899999999999999
 11
1.0800000000000001
 21
-2.1200000000000001
 31
0.0899999999999999
 12
1.0900000000000001
 22
-2.1200000000000001
 32
0.04
 13
1.0900000000000001
 23
-1.9500000000000011
 33
0.04
  0
3DFACE
  5
33B
  8
0
 10
1.0900000000000001
 20
-1.9500000000000011
 30
0.04
 11
1.03
 21
-1.8799999999999999
 31
0.04
 12
1.03
 22
-1.9199999999999999
 32
0.0899999999999999
 13
1.0800000000000001
 23
-1.9500000000000011
 33
0.0899999999999999
  0
3DFACE
  5
33C
  8
0
 10
1.0800000000000001
 20
-2.1200000000000001
 30
0.0899999999999999
 11
1.03
 21
-2.2400000000000011
 31
0.0899999999999999
 12
1.03
 22
-2.4199999999999999
 32
0.04
 13
1.0900000000000001
 23
-2.1200000000000001
 33
0.04
  0
3DFACE
  5
33D
  8
0
 10
1.03
 20
-1.9199999999999999
 30
0.0899999999999999
 11
1.03
 21
-2.2400000000000011
 31
0.0899999999999999
 12
1.0800000000000001
 22
-2.1200000000000001
 32
0.0899999999999999
 13
1.0800000000000001
 23
-1.9500000000000011
 33
0.0899999999999999
  0
3DFACE
  5
33E
  8
0
 10
1.0900000000000001
 20
-1.9500000000000011
 30
0.04
 11
1.0900000000000001
 21
-2.1200000000000001
 31
0.04
 12
1.0800000000000001
 22
-2.1200000000000001
 32
-0.0099999999999998
 13
1.0800000000000001
 23
-1.9500000000000011
 33
-0.0099999999999998
  0
3DFACE
  5
33F
  8
0
 10
1.0800000000000001
 20
-1.9500000000000011
 30
-0.0099999999999998
 11
1.03
 21
-1.9199999999999999
 31
-0.0099999999999998
 12
1.03
 22
-1.8799999999999999
 32
0.04
 13
1.0900000000000001
 23
-1.9500000000000011
 33
0.04
  0
3DFACE
  5
340
  8
0
 10
1.0800000000000001
 20
-2.1200000000000001
 30
-0.0099999999999998
 11
1.03
 21
-2.2400000000000011
 31
-0.0099999999999998
 12
1.03
 22
-1.9199999999999999
 32
-0.0099999999999998
 13
1.0800000000000001
 23
-1.9500000000000011
 33
-0.0099999999999998
  0
3DFACE
  5
341
  8
0
 10
1.0900000000000001
 20
-2.1200000000000001
 30
0.04
 11
1.03
 21
-2.4199999999999999
 31
0.04
 12
1.03
 22
-2.2400000000000011
 32
-0.0099999999999998
 13
1.0800000000000001
 23
-2.1200000000000001
 33
-0.0099999999999998
  0
3DFACE
  5
342
  8
0
 10
1.03
 20
-2.2400000000000011
 30
-0.0099999999999998
 11
0.08
 21
-2.2400000000000011
 31
-0.0099999999999998
 12
0.12
 22
-1.9199999999999999
 32
-0.0099999999999998
 13
1.03
 23
-1.9199999999999999
 33
-0.0099999999999998
  0
3DFACE
  5
343
  8
0
 10
1.03
 20
-2.4199999999999999
 30
0.04
 11
0.06
 21
-2.4199999999999999
 31
0.04
 12
0.08
 22
-2.2400000000000011
 32
-0.0099999999999998
 13
1.03
 23
-2.2400000000000011
 33
-0.0099999999999998
  0
3DFACE
  5
344
  8
0
 10
1.03
 20
-1.9199999999999999
 30
-0.0099999999999998
 11
0.12
 21
-1.9199999999999999
 31
-0.0099999999999998
 12
0.13
 22
-1.8799999999999999
 32
0.04
 13
1.03
 23
-1.8799999999999999
 33
0.04
  0
3DFACE
  5
345
  8
0
 10
1.03
 20
-1.8799999999999999
 30
0.04
 11
0.13
 21
-1.8799999999999999
 31
0.04
 12
0.12
 22
-1.9199999999999999
 32
0.0899999999999999
 13
1.03
 23
-1.9199999999999999
 33
0.0899999999999999
  0
3DFACE
  5
346
  8
0
 10
1.03
 20
-2.2400000000000011
 30
0.0899999999999999
 11
0.01
 21
-2.2400000000000011
 31
0.0899999999999999
 12
0.06
 22
-2.4199999999999999
 32
0.04
 13
1.03
 23
-2.4199999999999999
 33
0.04
  0
3DFACE
  5
347
  8
0
 10
0.12
 20
-1.9199999999999999
 30
0.0899999999999999
 11
0.01
 21
-2.2400000000000011
 31
0.0899999999999999
 12
1.03
 22
-2.2400000000000011
 32
0.0899999999999999
 13
1.03
 23
-1.9199999999999999
 33
0.0899999999999999
  0
3DFACE
  5
348
  8
0
 10
0.0
 20
-3.9500000000000002
 30
0.9199999999999999
 11
-0.1202081528017131
 21
-3.9500000000000002
 31
0.8702081528017133
 12
-0.17
 22
-3.9500000000000002
 32
0.75
 13
0.1202081528017131
 23
-3.9500000000000002
 33
0.8702081528017133
  0
3DFACE
  5
349
  8
0
 10
0.1202081528017131
 20
-3.9500000000000002
 30
0.8702081528017133
 11
-0.17
 21
-3.9500000000000002
 31
0.75
 12
-0.1202081528017131
 22
-3.9500000000000002
 32
0.6297918471982867
 13
0.17
 23
-3.9500000000000002
 33
0.75
  0
3DFACE
  5
34A
  8
0
 10
0.17
 20
-3.9500000000000002
 30
0.75
 11
-0.1202081528017131
 21
-3.9500000000000002
 31
0.6297918471982867
 12
0.0
 22
-3.9500000000000002
 32
0.5800000000000001
 13
0.1202081528017131
 23
-3.9500000000000002
 33
0.6297918471982867
  0
VIEWPORT
  5
2E
 67
     1
  8
0
 10
144.7270812988281
 20
101.2295806407928
 30
0.0
 40
391.13550988316581
 41
222.15178063964839
 68
     2
 69
     1
1001
ACAD
1000
MVIEW
1002
{
1070
    16
1010
0.0
1020
0.0
1030
0.0
1010
0.0
1020
0.0
1030
1.0
1040
0.0
1040
222.15178063964839
1040
144.7270812988281
1040
101.2295806407928
1040
50.0
1040
0.0
1040
0.0
1070
     0
1070
   100
1070
     1
1070
     1
1070
     0
1070
     0
1070
     0
1070
     0
1040
0.0
1040
0.0
1040
0.0
1040
10.0
1040
10.0
1040
10.0
1040
10.0
1070
     0
1002
{
1002
}
1002
}
  0
VIEWPORT
  5
30
 67
     1
  8
0
 10
139.22375631332389
 20
100.8062499761581
 30
0.0
 40
222.75801010131829
 41
161.289999961853
 68
     1
 69
     2
1001
ACAD
1000
MVIEW
1002
{
1070
    16
1010
0.0
1020
0.0
1030
0.0
1010
0.0
1020
0.0
1030
1.0
1040
0.0
1040
307.49010134148989
1040
210.0
1040
148.5
1040
50.0
1040
0.0
1040
0.0
1070
     0
1070
   100
1070
     1
1070
     3
1070
     0
1070
     1
1070
     0
1070
     0
1040
0.0
1040
0.0
1040
0.0
1040
10.0
1040
10.0
1040
10.0
1040
10.0
1070
     0
1002
{
1002
}
1002
}
  0
ENDSEC
  0
EOF
