  0
SECTION
  2
HEADER
  9
$ACADVER
  1
AC1009
  9
$INSBASE
 10
0.0
 20
0.0
 30
0.0
  9
$EXTMIN
 10
-6.0300000000000011
 20
-5.2300000000000004
 30
-13.93
  9
$EXTMAX
 10
5.5600000000000014
 20
13.720000000000001
 30
10.60189499999999
  9
$LIMMIN
 10
0.0
 20
0.0
  9
$LIMMAX
 10
420.0
 20
297.0
  9
$ORTHOMODE
 70
     1
  9
$REGENMODE
 70
     1
  9
$FILLMODE
 70
     1
  9
$QTEXTMODE
 70
     0
  9
$MIRRTEXT
 70
     1
  9
$DRAGMODE
 70
     2
  9
$LTSCALE
 40
1.0
  9
$OSMODE
 70
   559
  9
$ATTMODE
 70
     1
  9
$TEXTSIZE
 40
2.5
  9
$TRACEWID
 40
1.0
  9
$TEXTSTYLE
  7
STANDARD
  9
$CLAYER
  8
WING2
  9
$CELTYPE
  6
BYLAYER
  9
$CECOLOR
 62
   256
  9
$DIMSCALE
 40
1.0
  9
$DIMASZ
 40
2.5
  9
$DIMEXO
 40
0.625
  9
$DIMDLI
 40
3.75
  9
$DIMRND
 40
0.0
  9
$DIMDLE
 40
0.0
  9
$DIMEXE
 40
1.25
  9
$DIMTP
 40
0.0
  9
$DIMTM
 40
0.0
  9
$DIMTXT
 40
2.5
  9
$DIMCEN
 40
2.5
  9
$DIMTSZ
 40
0.0
  9
$DIMTOL
 70
     0
  9
$DIMLIM
 70
     0
  9
$DIMTIH
 70
     0
  9
$DIMTOH
 70
     0
  9
$DIMSE1
 70
     0
  9
$DIMSE2
 70
     0
  9
$DIMTAD
 70
     1
  9
$DIMZIN
 70
     8
  9
$DIMBLK
  1

  9
$DIMASO
 70
     1
  9
$DIMSHO
 70
     1
  9
$DIMPOST
  1

  9
$DIMAPOST
  1

  9
$DIMALT
 70
     0
  9
$DIMALTD
 70
     3
  9
$DIMALTF
 40
0.03937007874016
  9
$DIMLFAC
 40
1.0
  9
$DIMTOFL
 70
     1
  9
$DIMTVP
 40
0.0
  9
$DIMTIX
 70
     0
  9
$DIMSOXD
 70
     0
  9
$DIMSAH
 70
     0
  9
$DIMBLK1
  1

  9
$DIMBLK2
  1

  9
$DIMSTYLE
  2
ISO-25
  9
$DIMCLRD
 70
     0
  9
$DIMCLRE
 70
     0
  9
$DIMCLRT
 70
     0
  9
$DIMTFAC
 40
1.0
  9
$DIMGAP
 40
0.625
  9
$LUNITS
 70
     2
  9
$LUPREC
 70
     4
  9
$SKETCHINC
 40
1.0
  9
$FILLETRAD
 40
10.0
  9
$AUNITS
 70
     0
  9
$AUPREC
 70
     0
  9
$MENU
  1
.
  9
$ELEVATION
 40
0.0
  9
$PELEVATION
 40
0.0
  9
$THICKNESS
 40
0.0
  9
$LIMCHECK
 70
     0
  9
$BLIPMODE
 70
     0
  9
$CHAMFERA
 40
10.0
  9
$CHAMFERB
 40
10.0
  9
$SKPOLY
 70
     0
  9
$TDCREATE
 40
2455059.8823250812
  9
$TDUPDATE
 40
2455060.9099583561
  9
$TDINDWG
 40
0.1875043403
  9
$TDUSRTIMER
 40
0.1875043403
  9
$USRTIMER
 70
     1
  9
$ANGBASE
 50
0.0
  9
$ANGDIR
 70
     0
  9
$PDMODE
 70
     0
  9
$PDSIZE
 40
0.0
  9
$PLINEWID
 40
0.0
  9
$COORDS
 70
     1
  9
$SPLFRAME
 70
     0
  9
$SPLINETYPE
 70
     6
  9
$SPLINESEGS
 70
     8
  9
$ATTDIA
 70
     1
  9
$ATTREQ
 70
     1
  9
$HANDLING
 70
-16383
  9
$HANDSEED
  5
A5A
  9
$SURFTAB1
 70
     6
  9
$SURFTAB2
 70
     6
  9
$SURFTYPE
 70
     6
  9
$SURFU
 70
     6
  9
$SURFV
 70
     6
  9
$UCSNAME
  2

  9
$UCSORG
 10
0.0
 20
0.0
 30
0.0
  9
$UCSXDIR
 10
0.0
 20
-1.0
 30
0.0
  9
$UCSYDIR
 10
0.0
 20
0.0
 30
1.0
  9
$PUCSNAME
  2

  9
$PUCSORG
 10
0.0
 20
0.0
 30
0.0
  9
$PUCSXDIR
 10
1.0
 20
0.0
 30
0.0
  9
$PUCSYDIR
 10
0.0
 20
1.0
 30
0.0
  9
$USERI1
 70
     0
  9
$USERI2
 70
     0
  9
$USERI3
 70
     0
  9
$USERI4
 70
     0
  9
$USERI5
 70
     0
  9
$USERR1
 40
0.0
  9
$USERR2
 40
0.0
  9
$USERR3
 40
0.0
  9
$USERR4
 40
0.0
  9
$USERR5
 40
0.0
  9
$WORLDVIEW
 70
     1
  9
$SHADEDGE
 70
     3
  9
$SHADEDIF
 70
    70
  9
$TILEMODE
 70
     1
  9
$MAXACTVP
 70
    64
  9
$PLIMCHECK
 70
     0
  9
$PEXTMIN
 10
27.844751262664801
 20
20.161249995231621
 30
0.0
  9
$PEXTMAX
 10
250.60276136398309
 20
181.4512499570846
 30
0.0
  9
$PLIMMIN
 10
-3.757080078125
 20
-3.7570831775665279
  9
$PLIMMAX
 10
293.21124267578119
 20
206.21624445915219
  9
$UNITMODE
 70
     0
  9
$VISRETAIN
 70
     1
  9
$PLINEGEN
 70
     0
  9
$PSLTSCALE
 70
     1
  0
ENDSEC
  0
SECTION
  2
TABLES
  0
TABLE
  2
VPORT
 70
    26
  0
VPORT
  2
*ACTIVE
 70
     0
 10
0.0
 20
0.0
 11
1.0
 21
1.0
 12
-0.6292970669543223
 22
-5.9984727219957783
 13
0.0
 23
0.0
 14
0.01
 24
0.01
 15
1.0
 25
1.0
 16
-1.0
 26
0.0
 36
0.0
 17
0.0
 27
0.0
 37
0.0
 40
40.713929449734607
 41
1.767225325884543
 42
50.0
 43
0.0
 44
0.0
 50
0.0
 51
0.0
 71
     0
 72
   100
 73
     1
 74
     3
 75
     1
 76
     1
 77
     0
 78
     0
  0
ENDTAB
  0
TABLE
  2
LTYPE
 70
     1
  0
LTYPE
  2
CONTINUOUS
 70
     0
  3
Solid line
 72
    65
 73
     0
 40
0.0
  0
ENDTAB
  0
TABLE
  2
LAYER
 70
     5
  0
LAYER
  2
0
 70
     0
 62
     7
  6
CONTINUOUS
  0
LAYER
  2
DRAWING
 70
     0
 62
     9
  6
CONTINUOUS
  0
LAYER
  2
WING1
 70
     0
 62
     5
  6
CONTINUOUS
  0
LAYER
  2
WING2
 70
     0
 62
     5
  6
CONTINUOUS
  0
LAYER
  2
PROPELLER
 70
     0
 62
     1
  6
CONTINUOUS
  0
ENDTAB
  0
TABLE
  2
STYLE
 70
     1
  0
STYLE
  2
STANDARD
 70
     0
 40
0.0
 41
1.0
 50
0.0
 71
     0
 42
2.5
  3
txt
  4

  0
ENDTAB
  0
TABLE
  2
VIEW
 70
     0
  0
ENDTAB
  0
TABLE
  2
UCS
 70
     0
  0
ENDTAB
  0
TABLE
  2
APPID
 70
     1
  0
APPID
  2
ACAD
 70
     0
  0
ENDTAB
  0
TABLE
  2
DIMSTYLE
 70
     1
  0
DIMSTYLE
  2
ISO-25
 70
     0
  3

  4

  5

  6

  7

 40
1.0
 41
2.5
 42
0.625
 43
3.75
 44
1.25
 45
0.0
 46
0.0
 47
0.0
 48
0.0
140
2.5
141
2.5
142
0.0
143
0.03937007874016
144
1.0
145
0.0
146
1.0
147
0.625
 71
     0
 72
     0
 73
     0
 74
     0
 75
     0
 76
     0
 77
     1
 78
     8
170
     0
171
     3
172
     1
173
     0
174
     0
175
     0
176
     0
177
     0
178
     0
  0
ENDTAB
  0
ENDSEC
  0
SECTION
  2
BLOCKS
  0
BLOCK
  8
0
  2
$MODEL_SPACE
 70
     0
 10
0.0
 20
0.0
 30
0.0
  3
$MODEL_SPACE
  1

  0
ENDBLK
  5
21
  8
0
  0
BLOCK
 67
     1
  8
0
  2
$PAPER_SPACE
 70
     0
 10
0.0
 20
0.0
 30
0.0
  3
$PAPER_SPACE
  1

  0
ENDBLK
  5
1D
 67
     1
  8
0
  0
ENDSEC
  0
SECTION
  2
ENTITIES
  0
3DFACE
  5
841
  8
WING2
 10
1.080000000000001
 20
2.68796585859825
 30
-1.6079658585982499
 11
1.080000000000001
 21
2.3720341414017492
 31
-1.6079658585982499
 12
1.080000000000001
 22
2.5299999999999998
 32
-1.6733974596215559
 13
1.080000000000001
 23
2.5299999999999998
 33
-1.6733974596215559
  0
3DFACE
  5
842
  8
WING2
 10
1.179999999999999
 20
2.3720341414017492
 30
-1.6079658585982499
 11
1.179999999999999
 21
2.68796585859825
 31
-1.6079658585982499
 12
1.179999999999999
 22
2.5299999999999998
 32
-1.6733974596215559
 13
1.179999999999999
 23
2.5299999999999998
 33
-1.6733974596215559
  0
3DFACE
  5
843
  8
WING2
 10
1.179999999999999
 20
2.8104403457374092
 30
-1.7304403457374089
 11
1.23
 21
2.7492031021678289
 31
-1.6692031021678291
 12
1.23
 22
2.8399999999999999
 32
-1.45
 13
1.179999999999999
 23
2.9266025403784441
 33
-1.45
  0
3DFACE
  5
844
  8
WING2
 10
1.080000000000001
 20
2.8104403457374092
 30
-1.7304403457374089
 11
1.179999999999999
 21
2.8104403457374092
 31
-1.7304403457374089
 12
1.179999999999999
 22
2.9266025403784441
 32
-1.45
 13
1.080000000000001
 23
2.9266025403784441
 33
-1.45
  0
3DFACE
  5
845
  8
WING2
 10
1.0300000000000009
 20
2.7492031021678289
 30
-1.6692031021678291
 11
1.080000000000001
 21
2.8104403457374092
 31
-1.7304403457374089
 12
1.080000000000001
 22
2.9266025403784441
 32
-1.45
 13
1.0300000000000009
 23
2.8399999999999999
 33
-1.45
  0
3DFACE
  5
846
  8
WING2
 10
1.080000000000001
 20
2.68796585859825
 30
-1.6079658585982499
 11
1.0300000000000009
 21
2.7492031021678289
 31
-1.6692031021678291
 12
1.0300000000000009
 22
2.8399999999999999
 32
-1.45
 13
1.080000000000001
 23
2.753397459621556
 33
-1.45
  0
3DFACE
  5
847
  8
WING2
 10
1.23
 20
2.7492031021678289
 30
-1.6692031021678291
 11
1.179999999999999
 21
2.68796585859825
 31
-1.6079658585982499
 12
1.179999999999999
 22
2.753397459621556
 32
-1.45
 13
1.23
 23
2.8399999999999999
 33
-1.45
  0
3DFACE
  5
848
  8
WING2
 10
1.080000000000001
 20
2.5299999999999998
 30
-1.6733974596215559
 11
1.0300000000000009
 21
2.5299999999999998
 31
-1.76
 12
1.0300000000000009
 22
2.7492031021678289
 32
-1.6692031021678291
 13
1.080000000000001
 23
2.68796585859825
 33
-1.6079658585982499
  0
3DFACE
  5
849
  8
WING2
 10
1.23
 20
2.5299999999999998
 30
-1.76
 11
1.179999999999999
 21
2.5299999999999998
 31
-1.6733974596215559
 12
1.179999999999999
 22
2.68796585859825
 32
-1.6079658585982499
 13
1.23
 23
2.7492031021678289
 33
-1.6692031021678291
  0
3DFACE
  5
84A
  8
WING2
 10
1.080000000000001
 20
2.3720341414017492
 30
-1.6079658585982499
 11
1.0300000000000009
 21
2.3107968978321698
 31
-1.6692031021678291
 12
1.0300000000000009
 22
2.5299999999999998
 32
-1.76
 13
1.080000000000001
 23
2.5299999999999998
 33
-1.6733974596215559
  0
3DFACE
  5
84B
  8
WING2
 10
1.23
 20
2.3107968978321698
 30
-1.6692031021678291
 11
1.179999999999999
 21
2.3720341414017492
 31
-1.6079658585982499
 12
1.179999999999999
 22
2.5299999999999998
 32
-1.6733974596215559
 13
1.23
 23
2.5299999999999998
 33
-1.76
  0
3DFACE
  5
84C
  8
WING2
 10
1.179999999999999
 20
2.1333974596215559
 30
-1.45
 11
1.23
 21
2.2200000000000002
 31
-1.45
 12
1.23
 22
2.3107968978321698
 32
-1.6692031021678291
 13
1.179999999999999
 23
2.24955965426259
 33
-1.7304403457374089
  0
3DFACE
  5
84D
  8
WING2
 10
1.080000000000001
 20
2.1333974596215559
 30
-1.45
 11
1.179999999999999
 21
2.1333974596215559
 31
-1.45
 12
1.179999999999999
 22
2.24955965426259
 32
-1.7304403457374089
 13
1.080000000000001
 23
2.24955965426259
 33
-1.7304403457374089
  0
3DFACE
  5
84E
  8
WING2
 10
1.0300000000000009
 20
2.2200000000000002
 30
-1.45
 11
1.080000000000001
 21
2.1333974596215559
 31
-1.45
 12
1.080000000000001
 22
2.24955965426259
 32
-1.7304403457374089
 13
1.0300000000000009
 23
2.3107968978321698
 33
-1.6692031021678291
  0
3DFACE
  5
84F
  8
WING2
 10
1.080000000000001
 20
2.306602540378444
 30
-1.45
 11
1.0300000000000009
 21
2.2200000000000002
 31
-1.45
 12
1.0300000000000009
 22
2.3107968978321698
 32
-1.6692031021678291
 13
1.080000000000001
 23
2.3720341414017492
 33
-1.6079658585982499
  0
3DFACE
  5
850
  8
WING2
 10
1.23
 20
2.2200000000000002
 30
-1.45
 11
1.179999999999999
 21
2.306602540378444
 31
-1.45
 12
1.179999999999999
 22
2.3720341414017492
 32
-1.6079658585982499
 13
1.23
 23
2.3107968978321698
 33
-1.6692031021678291
  0
3DFACE
  5
851
  8
WING2
 10
1.0300000000000009
 20
2.5299999999999998
 30
-1.76
 11
1.080000000000001
 21
2.5299999999999998
 31
-1.8466025403784441
 12
1.080000000000001
 22
2.8104403457374092
 32
-1.7304403457374089
 13
1.0300000000000009
 23
2.7492031021678289
 33
-1.6692031021678291
  0
3DFACE
  5
852
  8
WING2
 10
1.0300000000000009
 20
2.3107968978321698
 30
-1.6692031021678291
 11
1.080000000000001
 21
2.24955965426259
 31
-1.7304403457374089
 12
1.080000000000001
 22
2.5299999999999998
 32
-1.8466025403784441
 13
1.0300000000000009
 23
2.5299999999999998
 33
-1.76
  0
3DFACE
  5
853
  8
WING2
 10
1.179999999999999
 20
2.5299999999999998
 30
-1.8466025403784441
 11
1.23
 21
2.5299999999999998
 31
-1.76
 12
1.23
 22
2.7492031021678289
 32
-1.6692031021678291
 13
1.179999999999999
 23
2.8104403457374092
 33
-1.7304403457374089
  0
3DFACE
  5
854
  8
WING2
 10
1.080000000000001
 20
2.5299999999999998
 30
-1.8466025403784441
 11
1.179999999999999
 21
2.5299999999999998
 31
-1.8466025403784441
 12
1.179999999999999
 22
2.8104403457374092
 32
-1.7304403457374089
 13
1.080000000000001
 23
2.8104403457374092
 33
-1.7304403457374089
  0
3DFACE
  5
855
  8
WING2
 10
1.179999999999999
 20
2.24955965426259
 30
-1.7304403457374089
 11
1.23
 21
2.3107968978321698
 31
-1.6692031021678291
 12
1.23
 22
2.5299999999999998
 32
-1.76
 13
1.179999999999999
 23
2.5299999999999998
 33
-1.8466025403784441
  0
3DFACE
  5
856
  8
WING2
 10
1.080000000000001
 20
2.24955965426259
 30
-1.7304403457374089
 11
1.179999999999999
 21
2.24955965426259
 31
-1.7304403457374089
 12
1.179999999999999
 22
2.5299999999999998
 32
-1.8466025403784441
 13
1.080000000000001
 23
2.5299999999999998
 33
-1.8466025403784441
  0
3DFACE
  5
857
  8
WING2
 10
0.9800000000000004
 20
1.54
 30
1.1000000000000001
 11
0.9800000000000004
 21
1.4699999999999991
 31
1.1000000000000001
 12
3.0499999999999998
 22
1.9099999999999999
 32
-0.4700000000000001
 13
3.0499999999999998
 23
1.95
 33
-0.4700000000000001
  0
3DFACE
  5
858
  8
WING2
 10
3.0499999999999998
 20
0.9900000000000012
 30
-0.47
 11
3.0499999999999998
 21
0.9699999999999999
 31
-0.47
 12
0.9800000000000004
 22
2.339999999999999
 32
1.1000000000000001
 13
0.9800000000000004
 23
2.359999999999999
 33
1.1000000000000001
  0
3DFACE
  5
859
  8
WING2
 10
0.9800000000000004
 20
2.359999999999999
 30
1.1000000000000001
 11
0.9800000000000004
 21
2.339999999999999
 31
1.1000000000000001
 12
3.0499999999999998
 22
0.9699999999999999
 32
-0.47
 13
3.0499999999999998
 23
0.9900000000000012
 33
-0.47
  0
3DFACE
  5
85A
  8
WING2
 10
3.0499999999999998
 20
1.95
 30
-0.4700000000000001
 11
3.0499999999999998
 21
1.9099999999999999
 31
-0.4700000000000001
 12
0.9800000000000004
 22
1.4699999999999991
 32
1.1000000000000001
 13
0.9800000000000004
 23
1.54
 33
1.1000000000000001
  0
3DFACE
  5
85B
  8
WING2
 10
3.5499999999999998
 20
2.419999999999999
 30
1.1999999999999991
 11
3.5499999999999998
 21
2.399999999999999
 31
1.1999999999999991
 12
0.6499999999999986
 22
0.9699999999999999
 32
-0.47
 13
0.6499999999999986
 23
0.99
 33
-0.47
  0
3DFACE
  5
85C
  8
WING2
 10
0.6499999999999986
 20
0.99
 30
-0.47
 11
0.6499999999999986
 21
0.9699999999999999
 31
-0.47
 12
3.5499999999999998
 22
2.399999999999999
 32
1.1999999999999991
 13
3.5499999999999998
 23
2.419999999999999
 33
1.1999999999999991
  0
3DFACE
  5
85D
  8
WING2
 10
0.6499999999999986
 20
0.9900000000000012
 30
-0.47
 11
0.6499999999999986
 21
0.9699999999999999
 31
-0.47
 12
3.5499999999999998
 22
1.4699999999999991
 32
1.1999999999999991
 13
3.5499999999999998
 23
1.49
 33
1.1999999999999991
  0
3DFACE
  5
85E
  8
WING2
 10
3.5499999999999998
 20
1.49
 30
1.1999999999999991
 11
3.5499999999999998
 21
1.4699999999999991
 31
1.1999999999999991
 12
0.6499999999999986
 22
0.9699999999999999
 32
-0.47
 13
0.6499999999999986
 23
0.9900000000000012
 33
-0.47
  0
3DFACE
  5
85F
  8
WING2
 10
3.5499999999999998
 20
1.49
 30
1.1999999999999991
 11
3.5499999999999998
 21
1.3899999999999999
 31
1.1999999999999991
 12
3.0499999999999998
 22
0.9100000000000001
 32
-0.47
 13
3.0499999999999998
 23
0.9900000000000012
 33
-0.47
  0
3DFACE
  5
860
  8
WING2
 10
3.0499999999999998
 20
0.9900000000000012
 30
-0.47
 11
3.0499999999999998
 21
0.9100000000000001
 31
-0.47
 12
3.5499999999999998
 22
1.3899999999999999
 32
1.1999999999999991
 13
3.5499999999999998
 23
1.49
 33
1.1999999999999991
  0
3DFACE
  5
861
  8
WING2
 10
3.0499999999999998
 20
2.0200000000000009
 30
-0.4700000000000001
 11
3.0499999999999998
 21
1.929999999999999
 31
-0.4700000000000001
 12
3.5499999999999998
 22
2.399999999999999
 32
1.1999999999999991
 13
3.5499999999999998
 23
2.52
 33
1.1999999999999991
  0
3DFACE
  5
862
  8
WING2
 10
3.5499999999999998
 20
2.52
 30
1.1999999999999991
 11
3.5499999999999998
 21
2.399999999999999
 31
1.1999999999999991
 12
3.0499999999999998
 22
1.929999999999999
 32
-0.4700000000000001
 13
3.0499999999999998
 23
2.0200000000000009
 33
-0.4700000000000001
  0
3DFACE
  5
863
  8
WING2
 10
-0.75
 20
-3.4399999999999991
 30
0.3999999999999999
 11
-0.75
 21
-3.5
 31
0.3999999999999999
 12
-0.120000000000001
 22
-3.5
 32
0.02
 13
-0.129999999999999
 23
-3.4399999999999991
 33
0.02
  0
3DFACE
  5
864
  8
WING2
 10
-0.129999999999999
 20
-3.4399999999999991
 30
0.02
 11
-0.120000000000001
 21
-3.5
 31
0.02
 12
-0.75
 22
-3.5
 32
0.3999999999999999
 13
-0.75
 23
-3.4399999999999991
 33
0.3999999999999999
  0
3DFACE
  5
865
  8
WING2
 10
0.9290105148039309
 20
2.4700000000000002
 30
-1.3600000000000001
 11
0.8867056875564642
 21
2.5099999999999998
 31
-1.3600000000000001
 12
-0.0399999999999992
 22
2.6899999999999991
 32
-0.6799999999999999
 13
0.0
 23
2.649999999999999
 33
-0.6799999999999999
  0
3DFACE
  5
866
  8
WING2
 10
0.9713153420513975
 20
2.5099999999999998
 30
-1.3600000000000001
 11
0.9290105148039309
 21
2.4700000000000002
 31
-1.3600000000000001
 12
0.0
 22
2.649999999999999
 32
-0.6799999999999999
 13
0.0399999999999992
 23
2.6899999999999991
 33
-0.6799999999999999
  0
3DFACE
  5
867
  8
WING2
 10
0.9290105148039309
 20
2.5499999999999998
 30
-1.3600000000000001
 11
0.9713153420513975
 21
2.5099999999999998
 31
-1.3600000000000001
 12
0.0399999999999992
 22
2.6899999999999991
 32
-0.6799999999999999
 13
0.0
 23
2.7299999999999991
 33
-0.6799999999999999
  0
3DFACE
  5
868
  8
WING2
 10
0.8867056875564642
 20
2.5099999999999998
 30
-1.3600000000000001
 11
0.9290105148039309
 21
2.5499999999999998
 31
-1.3600000000000001
 12
0.0
 22
2.7299999999999991
 32
-0.6799999999999999
 13
-0.0399999999999992
 23
2.6899999999999991
 33
-0.6799999999999999
  0
3DFACE
  5
869
  8
WING2
 10
0.9290105148039309
 20
2.4700000000000002
 30
-1.3600000000000001
 11
0.8867056875564642
 21
2.5099999999999998
 31
-1.3600000000000001
 12
0.3900000000000006
 22
2.2200000000000002
 32
-0.6799999999999999
 13
0.4299999999999998
 23
2.1800000000000002
 33
-0.6799999999999999
  0
3DFACE
  5
86A
  8
WING2
 10
0.9713153420513975
 20
2.5099999999999998
 30
-1.3600000000000001
 11
0.9290105148039309
 21
2.4700000000000002
 31
-1.3600000000000001
 12
0.4299999999999998
 22
2.1800000000000002
 32
-0.6799999999999999
 13
0.4699999999999989
 23
2.2200000000000002
 33
-0.6799999999999999
  0
3DFACE
  5
86B
  8
WING2
 10
0.9290105148039309
 20
2.5499999999999998
 30
-1.3600000000000001
 11
0.9713153420513975
 21
2.5099999999999998
 31
-1.3600000000000001
 12
0.4699999999999989
 22
2.2200000000000002
 32
-0.6799999999999999
 13
0.4299999999999998
 23
2.2599999999999998
 33
-0.6799999999999999
  0
3DFACE
  5
86C
  8
WING2
 10
0.8867056875564642
 20
2.5099999999999998
 30
-1.3600000000000001
 11
0.9290105148039309
 21
2.5499999999999998
 31
-1.3600000000000001
 12
0.4299999999999998
 22
2.2599999999999998
 32
-0.6799999999999999
 13
0.3900000000000006
 23
2.2200000000000002
 33
-0.6799999999999999
  0
3DFACE
  5
86D
  8
WING2
 10
0.6913377261891683
 20
2.5099999999999998
 30
-0.8233257763153222
 11
0.7386136549691323
 21
2.5600000000000001
 31
-0.8070473685924644
 12
0.4130455005119771
 22
2.5600000000000001
 32
0.1384712070068523
 13
0.3657695717320095
 23
2.5099999999999998
 33
0.1221927992839944
  0
3DFACE
  5
86E
  8
WING2
 10
0.7386136549691323
 20
2.5600000000000001
 30
-0.8070473685924644
 11
0.7858895837490998
 21
2.5099999999999998
 31
-0.7907689608696068
 12
0.4603214292919411
 22
2.5099999999999998
 32
0.1547496147297103
 13
0.4130455005119771
 23
2.5600000000000001
 33
0.1384712070068523
  0
3DFACE
  5
86F
  8
WING2
 10
0.7858895837490998
 20
2.5099999999999998
 30
-0.7907689608696068
 11
0.7386136549691323
 21
2.46
 31
-0.8070473685924644
 12
0.4130455005119771
 22
2.46
 32
0.1384712070068523
 13
0.4603214292919411
 23
2.5099999999999998
 33
0.1547496147297103
  0
3DFACE
  5
870
  8
WING2
 10
0.7386136549691323
 20
2.46
 30
-0.8070473685924644
 11
0.6913377261891683
 21
2.5099999999999998
 31
-0.8233257763153222
 12
0.3657695717320095
 22
2.5099999999999998
 32
0.1221927992839944
 13
0.4130455005119771
 23
2.46
 33
0.1384712070068523
  0
3DFACE
  5
871
  8
WING2
 10
1.0700000000000001
 20
1.7
 30
-1.3200000000000001
 11
1.0100000000000009
 21
1.7399999999999991
 31
-1.3700000000000001
 12
1.0100000000000009
 22
1.7399999999999991
 32
-1.3700000000000001
 13
1.0100000000000009
 23
1.8200000000000001
 33
-1.3200000000000001
  0
3DFACE
  5
872
  8
WING2
 10
1.0700000000000001
 20
1.9099999999999999
 30
-1.1200000000000001
 11
1.0700000000000001
 21
1.7
 31
-1.3200000000000001
 12
1.0100000000000009
 22
1.8200000000000001
 32
-1.3200000000000001
 13
1.0100000000000009
 23
2.0
 33
-1.129999999999999
  0
3DFACE
  5
873
  8
WING2
 10
1.0700000000000001
 20
2.1899999999999991
 30
-0.9599999999999999
 11
1.0700000000000001
 21
1.9099999999999999
 31
-1.1200000000000001
 12
1.0100000000000009
 22
2.0
 32
-1.129999999999999
 13
1.0100000000000009
 23
2.2400000000000002
 33
-1.0
  0
3DFACE
  5
874
  8
WING2
 10
1.0700000000000001
 20
2.4100000000000001
 30
-0.9
 11
1.0700000000000001
 21
2.1899999999999991
 31
-0.9599999999999999
 12
1.0100000000000009
 22
2.2400000000000002
 32
-1.0
 13
1.0100000000000009
 23
2.4300000000000002
 33
-0.9399999999999998
  0
3DFACE
  5
875
  8
WING2
 10
1.0700000000000001
 20
2.7200000000000002
 30
-0.9
 11
1.0700000000000001
 21
2.4100000000000001
 31
-0.9
 12
1.0100000000000009
 22
2.4300000000000002
 32
-0.9399999999999998
 13
1.0100000000000009
 23
2.7000000000000002
 33
-0.9399999999999998
  0
3DFACE
  5
876
  8
WING2
 10
1.0700000000000001
 20
2.9500000000000002
 30
-0.98
 11
1.0700000000000001
 21
2.7200000000000002
 31
-0.9
 12
1.0100000000000009
 22
2.7000000000000002
 32
-0.9399999999999998
 13
1.0100000000000009
 23
2.9100000000000001
 33
-1.02
  0
3DFACE
  5
877
  8
WING2
 10
1.0100000000000009
 20
2.9100000000000001
 30
-1.02
 11
1.0100000000000009
 21
3.0099999999999998
 31
-1.1200000000000001
 12
1.0700000000000001
 22
3.1000000000000001
 32
-1.1100000000000001
 13
1.0700000000000001
 23
2.9500000000000002
 33
-0.98
  0
3DFACE
  5
878
  8
WING2
 10
1.0100000000000009
 20
3.0099999999999998
 30
-1.1200000000000001
 11
1.0100000000000009
 21
3.0800000000000001
 31
-1.25
 12
1.0700000000000001
 22
3.169999999999999
 32
-1.2299999999999991
 13
1.0700000000000001
 23
3.1000000000000001
 33
-1.1100000000000001
  0
3DFACE
  5
879
  8
WING2
 10
1.0100000000000009
 20
3.0800000000000001
 30
-1.25
 11
1.0100000000000009
 21
3.0800000000000001
 31
-1.379999999999999
 12
1.0700000000000001
 22
3.169999999999999
 32
-1.3999999999999999
 13
1.0700000000000001
 23
3.169999999999999
 33
-1.2299999999999991
  0
3DFACE
  5
87A
  8
WING2
 10
1.0100000000000009
 20
3.0800000000000001
 30
-1.379999999999999
 11
1.0100000000000009
 21
3.0499999999999998
 31
-1.4299999999999999
 12
1.0700000000000001
 22
3.1400000000000001
 32
-1.4399999999999991
 13
1.0700000000000001
 23
3.169999999999999
 33
-1.3999999999999999
  0
3DFACE
  5
87B
  8
WING2
 10
1.0100000000000009
 20
3.0499999999999998
 30
-1.4299999999999999
 11
1.0100000000000009
 21
3.0099999999999998
 31
-1.5700000000000001
 12
1.0100000000000009
 22
3.0099999999999998
 32
-1.5700000000000001
 13
1.0700000000000001
 23
3.1400000000000001
 33
-1.4399999999999991
  0
3DFACE
  5
87C
  8
WING2
 10
1.0700000000000001
 20
3.1400000000000001
 30
-1.4399999999999991
 11
1.0100000000000009
 21
3.0099999999999998
 31
-1.5700000000000001
 12
1.25
 22
3.0099999999999998
 32
-1.5700000000000001
 13
1.1900000000000011
 23
3.1400000000000001
 33
-1.4399999999999991
  0
3DFACE
  5
87D
  8
WING2
 10
1.1900000000000011
 20
1.7
 30
-1.3200000000000001
 11
1.25
 21
1.74
 31
-1.3700000000000001
 12
1.0100000000000009
 22
1.74
 32
-1.3700000000000001
 13
1.0700000000000001
 23
1.7
 33
-1.3200000000000001
  0
3DFACE
  5
87E
  8
WING2
 10
1.0100000000000009
 20
2.9299999999999988
 30
-1.6100000000000001
 11
1.0100000000000009
 21
2.1200000000000001
 31
-1.52
 12
1.25
 22
2.1200000000000001
 32
-1.52
 13
1.25
 23
2.9299999999999988
 33
-1.6100000000000001
  0
3DFACE
  5
87F
  8
WING2
 10
1.0100000000000009
 20
3.0099999999999998
 30
-1.5700000000000001
 11
1.0100000000000009
 21
2.9299999999999988
 31
-1.6100000000000001
 12
1.25
 22
2.9299999999999988
 32
-1.6100000000000001
 13
1.25
 23
3.0099999999999998
 33
-1.5700000000000001
  0
3DFACE
  5
880
  8
WING2
 10
1.25
 20
1.74
 30
-1.3700000000000001
 11
1.25
 21
2.1200000000000001
 31
-1.52
 12
1.0100000000000009
 22
2.1200000000000001
 32
-1.52
 13
1.0100000000000009
 23
1.74
 33
-1.3700000000000001
  0
3DFACE
  5
881
  8
WING2
 10
1.25
 20
3.0800000000000001
 30
-1.25
 11
1.25
 21
3.0099999999999998
 31
-1.1200000000000001
 12
1.1900000000000011
 22
3.1000000000000001
 32
-1.1100000000000001
 13
1.1900000000000011
 23
3.169999999999999
 33
-1.2299999999999991
  0
3DFACE
  5
882
  8
WING2
 10
1.25
 20
2.0
 30
-1.129999999999999
 11
1.25
 21
1.8200000000000001
 31
-1.3200000000000001
 12
1.1900000000000011
 22
1.7
 32
-1.3200000000000001
 13
1.1900000000000011
 23
1.9099999999999999
 33
-1.1200000000000001
  0
3DFACE
  5
883
  8
WING2
 10
1.0700000000000001
 20
3.1000000000000001
 30
-1.1100000000000001
 11
1.0700000000000001
 21
3.169999999999999
 31
-1.2299999999999991
 12
1.1900000000000011
 22
3.169999999999999
 32
-1.2299999999999991
 13
1.1900000000000011
 23
3.1000000000000001
 33
-1.1100000000000001
  0
3DFACE
  5
884
  8
WING2
 10
1.25
 20
3.0800000000000001
 30
-1.25
 11
1.25
 21
2.2400000000000002
 31
-1.0
 12
1.25
 22
2.4300000000000002
 32
-0.9399999999999998
 13
1.25
 23
3.0099999999999998
 33
-1.1200000000000001
  0
3DFACE
  5
885
  8
WING2
 10
1.25
 20
3.0800000000000001
 30
-1.379999999999999
 11
1.25
 21
2.0
 31
-1.129999999999999
 12
1.25
 22
2.2400000000000002
 32
-1.0
 13
1.25
 23
3.0800000000000001
 33
-1.25
  0
3DFACE
  5
886
  8
WING2
 10
1.1900000000000011
 20
1.9099999999999999
 30
-1.1200000000000001
 11
1.1900000000000011
 21
1.7
 31
-1.3200000000000001
 12
1.0700000000000001
 22
1.7
 32
-1.3200000000000001
 13
1.0700000000000001
 23
1.9099999999999999
 33
-1.1200000000000001
  0
3DFACE
  5
887
  8
WING2
 10
1.25
 20
3.0499999999999998
 30
-1.4299999999999999
 11
1.25
 21
1.8200000000000001
 31
-1.3200000000000001
 12
1.25
 22
2.0
 32
-1.129999999999999
 13
1.25
 23
3.0800000000000001
 33
-1.379999999999999
  0
3DFACE
  5
888
  8
WING2
 10
1.080000000000001
 20
2.753397459621556
 30
-1.45
 11
1.080000000000001
 21
2.306602540378444
 31
-1.45
 12
1.080000000000001
 22
2.3720341414017492
 32
-1.6079658585982499
 13
1.080000000000001
 23
2.68796585859825
 33
-1.6079658585982499
  0
3DFACE
  5
889
  8
WING2
 10
1.179999999999999
 20
2.306602540378444
 30
-1.45
 11
1.179999999999999
 21
2.753397459621556
 31
-1.45
 12
1.179999999999999
 22
2.68796585859825
 32
-1.6079658585982499
 13
1.179999999999999
 23
2.3720341414017492
 33
-1.6079658585982499
  0
3DFACE
  5
88A
  8
WING2
 10
1.1900000000000011
 20
3.1400000000000001
 30
-1.4399999999999991
 11
1.25
 21
3.0099999999999998
 31
-1.5700000000000001
 12
1.25
 22
3.0099999999999998
 32
-1.5700000000000001
 13
1.25
 23
3.0499999999999998
 33
-1.4299999999999999
  0
3DFACE
  5
88B
  8
WING2
 10
1.1900000000000011
 20
3.169999999999999
 30
-1.3999999999999999
 11
1.1900000000000011
 21
3.1400000000000001
 31
-1.4399999999999991
 12
1.25
 22
3.0499999999999998
 32
-1.4299999999999999
 13
1.25
 23
3.0800000000000001
 33
-1.379999999999999
  0
3DFACE
  5
88C
  8
WING2
 10
1.25
 20
3.0800000000000001
 30
-1.379999999999999
 11
1.25
 21
3.0800000000000001
 31
-1.25
 12
1.1900000000000011
 22
3.169999999999999
 32
-1.2299999999999991
 13
1.1900000000000011
 23
3.169999999999999
 33
-1.3999999999999999
  0
3DFACE
  5
88D
  8
WING2
 10
1.25
 20
1.8200000000000001
 30
-1.3200000000000001
 11
1.25
 21
1.74
 31
-1.3700000000000001
 12
1.25
 22
1.74
 32
-1.3700000000000001
 13
1.1900000000000011
 23
1.7
 33
-1.3200000000000001
  0
3DFACE
  5
88E
  8
WING2
 10
1.0700000000000001
 20
3.169999999999999
 30
-1.2299999999999991
 11
1.0700000000000001
 21
3.169999999999999
 31
-1.3999999999999999
 12
1.1900000000000011
 22
3.169999999999999
 32
-1.3999999999999999
 13
1.1900000000000011
 23
3.169999999999999
 33
-1.2299999999999991
  0
3DFACE
  5
88F
  8
WING2
 10
1.0700000000000001
 20
3.169999999999999
 30
-1.3999999999999999
 11
1.0700000000000001
 21
3.1400000000000001
 31
-1.4399999999999991
 12
1.1900000000000011
 22
3.1400000000000001
 32
-1.4399999999999991
 13
1.1900000000000011
 23
3.169999999999999
 33
-1.3999999999999999
  0
3DFACE
  5
890
  8
WING2
 10
1.25
 20
3.0099999999999998
 30
-1.5700000000000001
 11
1.25
 21
1.74
 31
-1.3700000000000001
 12
1.25
 22
1.8200000000000001
 32
-1.3200000000000001
 13
1.25
 23
3.0499999999999998
 33
-1.4299999999999999
  0
3DFACE
  5
891
  8
WING2
 10
1.25
 20
2.9299999999999988
 30
-1.6100000000000001
 11
1.25
 21
2.1200000000000001
 31
-1.52
 12
1.25
 22
1.74
 32
-1.3700000000000001
 13
1.25
 23
3.0099999999999998
 33
-1.5700000000000001
  0
3DFACE
  5
892
  8
WING2
 10
1.25
 20
3.0099999999999998
 30
-1.1200000000000001
 11
1.25
 21
2.9100000000000001
 31
-1.02
 12
1.1900000000000011
 22
2.9500000000000002
 32
-0.98
 13
1.1900000000000011
 23
3.1000000000000001
 33
-1.1100000000000001
  0
3DFACE
  5
893
  8
WING2
 10
1.25
 20
2.2400000000000002
 30
-1.0
 11
1.25
 21
2.0
 31
-1.129999999999999
 12
1.1900000000000011
 22
1.9099999999999999
 32
-1.1200000000000001
 13
1.1900000000000011
 23
2.1899999999999991
 33
-0.9599999999999999
  0
3DFACE
  5
894
  8
WING2
 10
1.25
 20
2.4300000000000002
 30
-0.9399999999999998
 11
1.25
 21
2.2400000000000002
 31
-1.0
 12
1.1900000000000011
 22
2.1899999999999991
 32
-0.9599999999999999
 13
1.1900000000000011
 23
2.4100000000000001
 33
-0.9
  0
3DFACE
  5
895
  8
WING2
 10
1.25
 20
2.7000000000000002
 30
-0.9399999999999998
 11
1.25
 21
2.4300000000000002
 31
-0.9399999999999998
 12
1.1900000000000011
 22
2.4100000000000001
 32
-0.9
 13
1.1900000000000011
 23
2.7200000000000002
 33
-0.9
  0
3DFACE
  5
896
  8
WING2
 10
1.25
 20
2.9100000000000001
 30
-1.02
 11
1.25
 21
2.7000000000000002
 31
-0.9399999999999998
 12
1.1900000000000011
 22
2.7200000000000002
 32
-0.9
 13
1.1900000000000011
 23
2.9500000000000002
 33
-0.98
  0
3DFACE
  5
897
  8
WING2
 10
1.1900000000000011
 20
2.9500000000000002
 30
-0.98
 11
1.1900000000000011
 21
2.7200000000000002
 31
-0.9
 12
1.0700000000000001
 22
2.7200000000000002
 32
-0.9
 13
1.0700000000000001
 23
2.9500000000000002
 33
-0.98
  0
3DFACE
  5
898
  8
WING2
 10
1.1900000000000011
 20
2.7200000000000002
 30
-0.9
 11
1.1900000000000011
 21
2.4100000000000001
 31
-0.9
 12
1.0700000000000001
 22
2.4100000000000001
 32
-0.9
 13
1.0700000000000001
 23
2.7200000000000002
 33
-0.9
  0
3DFACE
  5
899
  8
WING2
 10
1.25
 20
3.0099999999999998
 30
-1.1200000000000001
 11
1.25
 21
2.4300000000000002
 31
-0.9399999999999998
 12
1.25
 22
2.7000000000000002
 32
-0.9399999999999998
 13
1.25
 23
2.9100000000000001
 33
-1.02
  0
3DFACE
  5
89A
  8
WING2
 10
1.0700000000000001
 20
2.9500000000000002
 30
-0.98
 11
1.0700000000000001
 21
3.1000000000000001
 31
-1.1100000000000001
 12
1.1900000000000011
 22
3.1000000000000001
 32
-1.1100000000000001
 13
1.1900000000000011
 23
2.9500000000000002
 33
-0.98
  0
3DFACE
  5
89B
  8
WING2
 10
1.1900000000000011
 20
2.4100000000000001
 30
-0.9
 11
1.1900000000000011
 21
2.1899999999999991
 31
-0.9599999999999999
 12
1.0700000000000001
 22
2.1899999999999991
 32
-0.9599999999999999
 13
1.0700000000000001
 23
2.4100000000000001
 33
-0.9
  0
3DFACE
  5
89C
  8
WING2
 10
1.1900000000000011
 20
2.1899999999999991
 30
-0.9599999999999999
 11
1.1900000000000011
 21
1.9099999999999999
 31
-1.1200000000000001
 12
1.0700000000000001
 22
1.9099999999999999
 32
-1.1200000000000001
 13
1.0700000000000001
 23
2.1899999999999991
 33
-0.9599999999999999
  0
3DFACE
  5
89D
  8
WING2
 10
0.922179256976026
 20
2.5099999999999998
 30
-1.463022726178286
 11
0.9600000000000009
 21
2.5499999999999998
 31
-1.45
 12
0.7386136549691323
 22
2.5499999999999998
 32
-0.8070473685924643
 13
0.7007929119451611
 23
2.5099999999999998
 33
-0.8200700947707506
  0
3DFACE
  5
89E
  8
WING2
 10
0.9600000000000009
 20
2.5499999999999998
 30
-1.45
 11
0.997820743023972
 21
2.5099999999999998
 31
-1.436977273821713
 12
0.776434397993107
 22
2.5099999999999998
 32
-0.7940246424141783
 13
0.7386136549691323
 23
2.5499999999999998
 33
-0.8070473685924643
  0
3DFACE
  5
89F
  8
WING2
 10
0.997820743023972
 20
2.5099999999999998
 30
-1.436977273821713
 11
0.9600000000000009
 21
2.4700000000000002
 31
-1.45
 12
0.7386136549691323
 22
2.4700000000000002
 32
-0.8070473685924643
 13
0.776434397993107
 23
2.5099999999999998
 33
-0.7940246424141783
  0
3DFACE
  5
8A0
  8
WING2
 10
0.9600000000000009
 20
2.4700000000000002
 30
-1.45
 11
0.922179256976026
 21
2.5099999999999998
 31
-1.463022726178286
 12
0.7007929119451611
 22
2.5099999999999998
 32
-0.8200700947707506
 13
0.7386136549691323
 23
2.4700000000000002
 33
-0.8070473685924643
  0
3DFACE
  5
8A1
  8
WING2
 10
1.0100000000000009
 20
2.4300000000000002
 30
-0.9399999999999998
 11
1.0100000000000009
 21
2.2400000000000002
 31
-1.0
 12
1.0100000000000009
 22
3.0800000000000001
 32
-1.25
 13
1.0100000000000009
 23
3.0099999999999998
 33
-1.1200000000000001
  0
3DFACE
  5
8A2
  8
WING2
 10
1.0100000000000009
 20
2.2400000000000002
 30
-1.0
 11
1.0100000000000009
 21
2.0
 31
-1.129999999999999
 12
1.0100000000000009
 22
3.0800000000000001
 32
-1.379999999999999
 13
1.0100000000000009
 23
3.0800000000000001
 33
-1.25
  0
3DFACE
  5
8A3
  8
WING2
 10
1.0100000000000009
 20
2.0
 30
-1.129999999999999
 11
1.0100000000000009
 21
1.8200000000000001
 31
-1.3200000000000001
 12
1.0100000000000009
 22
3.0499999999999998
 32
-1.4299999999999999
 13
1.0100000000000009
 23
3.0800000000000001
 33
-1.379999999999999
  0
3DFACE
  5
8A4
  8
WING2
 10
1.0100000000000009
 20
1.8200000000000001
 30
-1.3200000000000001
 11
1.0100000000000009
 21
1.74
 31
-1.3700000000000001
 12
1.0100000000000009
 22
3.0099999999999998
 32
-1.5700000000000001
 13
1.0100000000000009
 23
3.0499999999999998
 33
-1.4299999999999999
  0
3DFACE
  5
8A5
  8
WING2
 10
1.0100000000000009
 20
1.74
 30
-1.3700000000000001
 11
1.0100000000000009
 21
2.1200000000000001
 31
-1.52
 12
1.0100000000000009
 22
2.9299999999999988
 32
-1.6100000000000001
 13
1.0100000000000009
 23
3.0099999999999998
 33
-1.5700000000000001
  0
3DFACE
  5
8A6
  8
WING2
 10
0.7386136549691323
 20
2.5499999999999998
 30
-0.8070473685924644
 11
0.776434397993107
 21
2.5099999999999998
 31
-0.7940246424141783
 12
0.7858895837490998
 22
2.5099999999999998
 32
-0.7907689608696068
 13
0.7386136549691323
 23
2.5600000000000001
 33
-0.8070473685924644
  0
3DFACE
  5
8A7
  8
WING2
 10
0.776434397993107
 20
2.5099999999999998
 30
-0.7940246424141783
 11
0.7386136549691323
 21
2.4700000000000002
 31
-0.8070473685924643
 12
0.7386136549691323
 22
2.46
 32
-0.8070473685924644
 13
0.7858895837490998
 23
2.5099999999999998
 33
-0.7907689608696068
  0
3DFACE
  5
8A8
  8
WING2
 10
0.7386136549691323
 20
2.4700000000000002
 30
-0.8070473685924644
 11
0.7007929119451611
 21
2.5099999999999998
 31
-0.8200700947707506
 12
0.6913377261891683
 22
2.5099999999999998
 32
-0.8233257763153222
 13
0.7386136549691323
 23
2.46
 33
-0.8070473685924644
  0
3DFACE
  5
8A9
  8
WING2
 10
0.7007929119451611
 20
2.5099999999999998
 30
-0.8200700947707508
 11
0.7386136549691323
 21
2.5499999999999998
 31
-0.8070473685924643
 12
0.7386136549691323
 22
2.5600000000000001
 32
-0.8070473685924644
 13
0.6913377261891683
 23
2.5099999999999998
 33
-0.8233257763153222
  0
3DFACE
  5
8AA
  8
WING2
 10
1.0100000000000009
 20
2.7000000000000002
 30
-0.9399999999999998
 11
1.0100000000000009
 21
2.4300000000000002
 31
-0.9399999999999998
 12
1.0100000000000009
 22
3.0099999999999998
 32
-1.1200000000000001
 13
1.0100000000000009
 23
2.9100000000000001
 33
-1.02
  0
3DFACE
  5
8AB
  8
WING2
 10
2.609999999999995
 20
2.5099999999999998
 30
-0.5799999999999966
 11
0.6499999999999951
 21
2.669999999999999
 31
-0.5599999999999988
 12
0.6499999999999951
 22
2.589999999999999
 32
-0.6599999999999984
 13
2.609999999999995
 23
2.4300000000000002
 33
-0.6999999999999993
  0
3DFACE
  5
8AC
  8
WING2
 10
0.6499999999999951
 20
2.589999999999999
 30
-0.6599999999999984
 11
0.6499999999999951
 21
0.9599999999999999
 31
-0.6599999999999984
 12
2.609999999999999
 22
0.9599999999999999
 32
-0.6999999999999993
 13
2.609999999999995
 23
2.4300000000000002
 33
-0.6999999999999993
  0
3DFACE
  5
8AD
  8
WING2
 10
2.609999999999999
 20
0.9599999999999999
 30
-0.6999999999999993
 11
0.6499999999999951
 21
0.9599999999999999
 31
-0.6599999999999984
 12
0.6499999999999951
 22
0.6600000000000003
 32
-0.5599999999999988
 13
2.609999999999999
 23
0.6600000000000003
 33
-0.5799999999999966
  0
3DFACE
  5
8AE
  8
WING2
 10
2.609999999999999
 20
0.6600000000000003
 30
-0.5799999999999966
 11
0.6499999999999951
 21
0.6600000000000003
 31
-0.5599999999999988
 12
0.6499999999999951
 22
0.9599999999999999
 32
-0.4599999999999991
 13
2.609999999999999
 23
0.9599999999999999
 33
-0.4699999999999989
  0
3DFACE
  5
8AF
  8
WING2
 10
2.609999999999995
 20
2.4300000000000002
 30
-0.4699999999999989
 11
0.6499999999999951
 21
2.589999999999999
 31
-0.4599999999999991
 12
0.6499999999999951
 22
2.669999999999999
 32
-0.5599999999999988
 13
2.609999999999995
 23
2.5099999999999998
 33
-0.5799999999999966
  0
3DFACE
  5
8B0
  8
WING2
 10
2.609999999999999
 20
0.9599999999999999
 30
-0.4699999999999989
 11
0.6499999999999951
 21
0.9599999999999999
 31
-0.4599999999999991
 12
0.6499999999999951
 22
2.589999999999999
 32
-0.4599999999999991
 13
2.609999999999995
 23
2.4300000000000002
 33
-0.4699999999999989
  0
3DFACE
  5
8B1
  8
WING2
 10
3.249999999999996
 20
2.4100000000000001
 30
-0.6999999999999993
 11
3.25
 21
0.9599999999999999
 31
-0.6999999999999993
 12
3.719999999999998
 22
0.98
 32
-0.6999999999999993
 13
3.7199999999999949
 23
2.3700000000000001
 33
-0.6999999999999993
  0
3DFACE
  5
8B2
  8
WING2
 10
4.3699999999999974
 20
2.2400000000000002
 30
-0.6899999999999978
 11
4.3699999999999974
 21
1.0700000000000001
 31
-0.6899999999999978
 12
4.599999999999997
 22
1.2199999999999991
 32
-0.6599999999999984
 13
4.599999999999997
 23
2.1400000000000001
 33
-0.6599999999999984
  0
3DFACE
  5
8B3
  8
WING2
 10
4.0299999999999967
 20
2.3500000000000001
 30
-0.6999999999999993
 11
4.0299999999999967
 21
1.02
 31
-0.6999999999999993
 12
4.3699999999999974
 22
1.0700000000000001
 32
-0.6899999999999978
 13
4.3699999999999974
 23
2.2400000000000002
 33
-0.6899999999999978
  0
3DFACE
  5
8B4
  8
WING2
 10
3.7199999999999949
 20
2.3700000000000001
 30
-0.6999999999999993
 11
3.719999999999998
 21
0.98
 31
-0.6999999999999993
 12
4.0299999999999967
 22
1.02
 32
-0.6999999999999993
 13
4.0299999999999967
 23
2.3500000000000001
 33
-0.6999999999999993
  0
3DFACE
  5
8B5
  8
WING2
 10
4.7899999999999947
 20
1.99
 30
-0.629999999999999
 11
4.7899999999999947
 21
1.4399999999999991
 31
-0.629999999999999
 12
4.8700000000000001
 22
1.589999999999999
 32
-0.5999999999999996
 13
4.8700000000000001
 23
1.849999999999999
 33
-0.5999999999999996
  0
3DFACE
  5
8B6
  8
WING2
 10
4.599999999999997
 20
2.1400000000000001
 30
-0.6599999999999984
 11
4.599999999999997
 21
1.2199999999999991
 31
-0.6599999999999984
 12
4.7899999999999947
 22
1.4399999999999991
 32
-0.629999999999999
 13
4.7899999999999947
 23
1.99
 33
-0.629999999999999
  0
3DFACE
  5
8B7
  8
WING2
 10
4.8700000000000001
 20
1.849999999999999
 30
-0.5999999999999996
 11
4.8700000000000001
 21
1.589999999999999
 31
-0.5999999999999996
 12
4.879999999999999
 22
1.589999999999999
 32
-0.5799999999999983
 13
4.879999999999999
 23
1.849999999999999
 33
-0.5799999999999983
  0
3DFACE
  5
8B8
  8
WING2
 10
4.879999999999999
 20
1.849999999999999
 30
-0.5799999999999983
 11
4.7899999999999947
 21
2.0499999999999989
 31
-0.5799999999999983
 12
4.7899999999999947
 22
1.99
 32
-0.629999999999999
 13
4.8700000000000001
 23
1.849999999999999
 33
-0.5999999999999996
  0
3DFACE
  5
8B9
  8
WING2
 10
4.8700000000000001
 20
1.589999999999999
 30
-0.5999999999999996
 11
4.7899999999999947
 21
1.4399999999999991
 31
-0.629999999999999
 12
4.7899999999999947
 22
1.3500000000000001
 32
-0.5799999999999983
 13
4.879999999999999
 23
1.589999999999999
 33
-0.5799999999999983
  0
3DFACE
  5
8BA
  8
WING2
 10
4.7899999999999947
 20
2.0499999999999989
 30
-0.5799999999999983
 11
4.599999999999997
 21
2.2400000000000002
 31
-0.5799999999999983
 12
4.599999999999997
 22
2.1400000000000001
 32
-0.6599999999999984
 13
4.7899999999999947
 23
1.99
 33
-0.629999999999999
  0
3DFACE
  5
8BB
  8
WING2
 10
4.7899999999999947
 20
1.4399999999999991
 30
-0.629999999999999
 11
4.599999999999997
 21
1.2199999999999991
 31
-0.6599999999999984
 12
4.599999999999997
 22
1.1000000000000001
 32
-0.5799999999999983
 13
4.7899999999999947
 23
1.3500000000000001
 33
-0.5799999999999983
  0
3DFACE
  5
8BC
  8
WING2
 10
4.599999999999997
 20
2.2400000000000002
 30
-0.5799999999999983
 11
4.3700000000000001
 21
2.359999999999999
 31
-0.5799999999999983
 12
4.3699999999999974
 22
2.2400000000000002
 32
-0.6899999999999978
 13
4.599999999999997
 23
2.1400000000000001
 33
-0.6599999999999984
  0
3DFACE
  5
8BD
  8
WING2
 10
4.599999999999997
 20
1.2199999999999991
 30
-0.6599999999999984
 11
4.3699999999999974
 21
1.0700000000000001
 31
-0.6899999999999978
 12
4.3700000000000001
 22
0.8900000000000002
 32
-0.5799999999999983
 13
4.599999999999997
 23
1.1000000000000001
 33
-0.5799999999999983
  0
3DFACE
  5
8BE
  8
WING2
 10
4.3700000000000001
 20
2.359999999999999
 30
-0.5799999999999983
 11
4.0299999999999967
 21
2.4399999999999991
 31
-0.5799999999999983
 12
4.0299999999999967
 22
2.3500000000000001
 32
-0.6999999999999993
 13
4.3699999999999974
 23
2.2400000000000002
 33
-0.6899999999999978
  0
3DFACE
  5
8BF
  8
WING2
 10
4.3699999999999974
 20
1.0700000000000001
 30
-0.6899999999999978
 11
4.0299999999999967
 21
1.02
 31
-0.6999999999999993
 12
4.0299999999999967
 22
0.75
 32
-0.5799999999999983
 13
4.3700000000000001
 23
0.8900000000000002
 33
-0.5799999999999983
  0
3DFACE
  5
8C0
  8
WING2
 10
4.0299999999999967
 20
2.4399999999999991
 30
-0.5799999999999983
 11
3.7199999999999949
 21
2.4599999999999991
 31
-0.5799999999999983
 12
3.7199999999999949
 22
2.3700000000000001
 32
-0.6999999999999993
 13
4.0299999999999967
 23
2.3500000000000001
 33
-0.6999999999999993
  0
3DFACE
  5
8C1
  8
WING2
 10
4.0299999999999967
 20
1.02
 30
-0.6999999999999993
 11
3.719999999999998
 21
0.98
 31
-0.6999999999999993
 12
3.719999999999998
 22
0.6800000000000002
 32
-0.5799999999999983
 13
4.0299999999999967
 23
0.75
 33
-0.5799999999999983
  0
3DFACE
  5
8C2
  8
WING2
 10
3.7199999999999949
 20
2.4599999999999991
 30
-0.5799999999999983
 11
3.249999999999996
 21
2.4799999999999991
 31
-0.5799999999999983
 12
3.249999999999996
 22
2.4100000000000001
 32
-0.6999999999999993
 13
3.7199999999999949
 23
2.3700000000000001
 33
-0.6999999999999993
  0
3DFACE
  5
8C3
  8
WING2
 10
3.719999999999998
 20
0.98
 30
-0.6999999999999993
 11
3.25
 21
0.9599999999999999
 31
-0.6999999999999993
 12
3.25
 22
0.6600000000000003
 32
-0.5799999999999983
 13
3.719999999999998
 23
0.6800000000000002
 33
-0.5799999999999983
  0
3DFACE
  5
8C4
  8
WING2
 10
2.609999999999995
 20
2.4300000000000002
 30
-0.6999999999999993
 11
2.609999999999999
 21
0.9599999999999999
 31
-0.6999999999999993
 12
3.25
 22
0.9599999999999999
 32
-0.6999999999999993
 13
3.249999999999996
 23
2.4100000000000001
 33
-0.6999999999999993
  0
3DFACE
  5
8C5
  8
WING2
 10
3.249999999999996
 20
2.4799999999999991
 30
-0.5799999999999983
 11
2.609999999999995
 21
2.5099999999999998
 31
-0.5799999999999966
 12
2.609999999999995
 22
2.4300000000000002
 32
-0.6999999999999993
 13
3.249999999999996
 23
2.4100000000000001
 33
-0.6999999999999993
  0
3DFACE
  5
8C6
  8
WING2
 10
3.25
 20
0.9599999999999999
 30
-0.6999999999999993
 11
2.609999999999999
 21
0.9599999999999999
 31
-0.6999999999999993
 12
2.609999999999999
 22
0.6600000000000003
 32
-0.5799999999999966
 13
3.25
 23
0.6600000000000003
 33
-0.5799999999999983
  0
3DFACE
  5
8C7
  8
WING2
 10
4.879999999999999
 20
1.849999999999999
 30
-0.5799999999999983
 11
4.879999999999999
 21
1.589999999999999
 31
-0.5799999999999983
 12
4.8700000000000001
 22
1.589999999999999
 32
-0.5399999999999992
 13
4.8700000000000001
 23
1.849999999999999
 33
-0.5399999999999992
  0
3DFACE
  5
8C8
  8
WING2
 10
4.599999999999997
 20
2.1400000000000001
 30
-0.4899999999999985
 11
4.3700000000000001
 21
2.2400000000000002
 31
-0.4699999999999989
 12
4.3700000000000001
 22
2.359999999999999
 32
-0.5799999999999983
 13
4.599999999999997
 23
2.2400000000000002
 33
-0.5799999999999983
  0
3DFACE
  5
8C9
  8
WING2
 10
4.599999999999997
 20
1.1000000000000001
 30
-0.5799999999999983
 11
4.3700000000000001
 21
0.8900000000000002
 31
-0.5799999999999983
 12
4.3700000000000001
 22
1.0700000000000001
 32
-0.4699999999999989
 13
4.599999999999997
 23
1.2199999999999991
 33
-0.4899999999999985
  0
3DFACE
  5
8CA
  8
WING2
 10
4.599999999999997
 20
1.2199999999999991
 30
-0.4899999999999985
 11
4.3700000000000001
 21
1.0700000000000001
 31
-0.4699999999999989
 12
4.3700000000000001
 22
2.2400000000000002
 32
-0.4699999999999989
 13
4.599999999999997
 23
2.1400000000000001
 33
-0.4899999999999985
  0
3DFACE
  5
8CB
  8
WING2
 10
4.7899999999999947
 20
1.3500000000000001
 30
-0.5799999999999983
 11
4.599999999999997
 21
1.1000000000000001
 31
-0.5799999999999983
 12
4.599999999999997
 22
1.2199999999999991
 32
-0.4899999999999985
 13
4.7899999999999947
 23
1.4399999999999991
 33
-0.5199999999999996
  0
3DFACE
  5
8CC
  8
WING2
 10
4.7899999999999947
 20
1.99
 30
-0.5199999999999996
 11
4.599999999999997
 21
2.1400000000000001
 31
-0.4899999999999985
 12
4.599999999999997
 22
2.2400000000000002
 32
-0.5799999999999983
 13
4.7899999999999947
 23
2.0499999999999989
 33
-0.5799999999999983
  0
3DFACE
  5
8CD
  8
WING2
 10
4.7899999999999947
 20
1.4399999999999991
 30
-0.5199999999999996
 11
4.599999999999997
 21
1.2199999999999991
 31
-0.4899999999999985
 12
4.599999999999997
 22
2.1400000000000001
 32
-0.4899999999999985
 13
4.7899999999999947
 23
1.99
 33
-0.5199999999999996
  0
3DFACE
  5
8CE
  8
WING2
 10
4.3700000000000001
 20
2.2400000000000002
 30
-0.4699999999999989
 11
4.0299999999999967
 21
2.3500000000000001
 31
-0.4699999999999989
 12
4.0299999999999967
 22
2.4399999999999991
 32
-0.5799999999999983
 13
4.3700000000000001
 23
2.359999999999999
 33
-0.5799999999999983
  0
3DFACE
  5
8CF
  8
WING2
 10
4.3700000000000001
 20
0.8900000000000002
 30
-0.5799999999999983
 11
4.0299999999999967
 21
0.75
 31
-0.5799999999999983
 12
4.0299999999999967
 22
1.02
 32
-0.4699999999999989
 13
4.3700000000000001
 23
1.0700000000000001
 33
-0.4699999999999989
  0
3DFACE
  5
8D0
  8
WING2
 10
4.3700000000000001
 20
1.0700000000000001
 30
-0.4699999999999989
 11
4.0299999999999967
 21
1.02
 31
-0.4699999999999989
 12
4.0299999999999967
 22
2.3500000000000001
 32
-0.4699999999999989
 13
4.3700000000000001
 23
2.2400000000000002
 33
-0.4699999999999989
  0
3DFACE
  5
8D1
  8
WING2
 10
3.719999999999998
 20
0.6800000000000002
 30
-0.5799999999999983
 11
3.25
 21
0.6600000000000003
 31
-0.5799999999999983
 12
3.25
 22
0.9599999999999999
 32
-0.4699999999999989
 13
3.719999999999998
 23
0.98
 33
-0.4699999999999989
  0
3DFACE
  5
8D2
  8
WING2
 10
3.7199999999999949
 20
2.3700000000000001
 30
-0.4699999999999989
 11
3.249999999999996
 21
2.4100000000000001
 31
-0.4699999999999989
 12
3.249999999999996
 22
2.4799999999999991
 32
-0.5799999999999983
 13
3.7199999999999949
 23
2.4599999999999991
 33
-0.5799999999999983
  0
3DFACE
  5
8D3
  8
WING2
 10
3.719999999999998
 20
0.98
 30
-0.4699999999999989
 11
3.25
 21
0.9599999999999999
 31
-0.4699999999999989
 12
3.249999999999996
 22
2.4100000000000001
 32
-0.4699999999999989
 13
3.7199999999999949
 23
2.3700000000000001
 33
-0.4699999999999989
  0
3DFACE
  5
8D4
  8
WING2
 10
4.0299999999999967
 20
2.3500000000000001
 30
-0.4699999999999989
 11
3.7199999999999949
 21
2.3700000000000001
 31
-0.4699999999999989
 12
3.7199999999999949
 22
2.4599999999999991
 32
-0.5799999999999983
 13
4.0299999999999967
 23
2.4399999999999991
 33
-0.5799999999999983
  0
3DFACE
  5
8D5
  8
WING2
 10
4.0299999999999967
 20
0.75
 30
-0.5799999999999983
 11
3.719999999999998
 21
0.6800000000000002
 31
-0.5799999999999983
 12
3.719999999999998
 22
0.98
 32
-0.4699999999999989
 13
4.0299999999999967
 23
1.02
 33
-0.4699999999999989
  0
3DFACE
  5
8D6
  8
WING2
 10
4.0299999999999967
 20
1.02
 30
-0.4699999999999989
 11
3.719999999999998
 21
0.98
 31
-0.4699999999999989
 12
3.7199999999999949
 22
2.3700000000000001
 32
-0.4699999999999989
 13
4.0299999999999967
 23
2.3500000000000001
 33
-0.4699999999999989
  0
3DFACE
  5
8D7
  8
WING2
 10
3.25
 20
0.6600000000000003
 30
-0.5799999999999983
 11
2.609999999999999
 21
0.6600000000000003
 31
-0.5799999999999966
 12
2.609999999999999
 22
0.9599999999999999
 32
-0.4699999999999989
 13
3.25
 23
0.9599999999999999
 33
-0.4699999999999989
  0
3DFACE
  5
8D8
  8
WING2
 10
3.249999999999996
 20
2.4100000000000001
 30
-0.4699999999999989
 11
2.609999999999995
 21
2.4300000000000002
 31
-0.4699999999999989
 12
2.609999999999995
 22
2.5099999999999998
 32
-0.5799999999999966
 13
3.249999999999996
 23
2.4799999999999991
 33
-0.5799999999999983
  0
3DFACE
  5
8D9
  8
WING2
 10
3.25
 20
0.9599999999999999
 30
-0.4699999999999989
 11
2.609999999999999
 21
0.9599999999999999
 31
-0.4699999999999989
 12
2.609999999999995
 22
2.4300000000000002
 32
-0.4699999999999989
 13
3.249999999999996
 23
2.4100000000000001
 33
-0.4699999999999989
  0
3DFACE
  5
8DA
  8
WING2
 10
4.879999999999999
 20
1.589999999999999
 30
-0.5799999999999983
 11
4.7899999999999947
 21
1.3500000000000001
 31
-0.5799999999999983
 12
4.7899999999999947
 22
1.4399999999999991
 32
-0.5199999999999996
 13
4.8700000000000001
 23
1.589999999999999
 33
-0.5399999999999992
  0
3DFACE
  5
8DB
  8
WING2
 10
4.8700000000000001
 20
1.849999999999999
 30
-0.5399999999999992
 11
4.7899999999999947
 21
1.99
 31
-0.5199999999999996
 12
4.7899999999999947
 22
2.0499999999999989
 32
-0.5799999999999983
 13
4.879999999999999
 23
1.849999999999999
 33
-0.5799999999999983
  0
3DFACE
  5
8DC
  8
WING2
 10
4.8700000000000001
 20
1.589999999999999
 30
-0.5399999999999992
 11
4.7899999999999947
 21
1.4399999999999991
 31
-0.5199999999999996
 12
4.7899999999999947
 22
1.99
 32
-0.5199999999999996
 13
4.8700000000000001
 23
1.849999999999999
 33
-0.5399999999999992
  0
3DFACE
  5
8DD
  8
WING2
 10
0.5199999999999961
 20
0.5400000000000002
 30
-0.4699999999999989
 11
0.4599999999999973
 21
0.3799999999999999
 31
-0.3899999999999988
 12
0.4599999999999973
 22
0.9599999999999999
 32
-0.0299999999999994
 13
0.5199999999999961
 23
0.9599999999999999
 33
-0.3499999999999996
  0
3DFACE
  5
8DE
  8
WING2
 10
0.5199999999999961
 20
2.589999999999999
 30
-0.3499999999999996
 11
0.4599999999999973
 21
2.589999999999999
 31
-0.0299999999999994
 12
0.4599999999999973
 22
2.669999999999999
 32
-0.3899999999999988
 13
0.5199999999999961
 23
2.669999999999999
 33
-0.4699999999999989
  0
3DFACE
  5
8DF
  8
WING2
 10
0.5199999999999961
 20
0.9599999999999999
 30
-0.3499999999999996
 11
0.4599999999999973
 21
0.9599999999999999
 31
-0.0299999999999994
 12
0.4599999999999973
 22
2.589999999999999
 32
-0.0299999999999994
 13
0.5199999999999961
 23
2.589999999999999
 33
-0.3499999999999996
  0
3DFACE
  5
8E0
  8
WING2
 10
0.6499999999999951
 20
2.669999999999999
 30
-0.5599999999999988
 11
0.5199999999999961
 21
2.669999999999999
 31
-0.4699999999999989
 12
0.5199999999999961
 22
2.589999999999999
 32
-0.5999999999999996
 13
0.6499999999999951
 23
2.589999999999999
 33
-0.6599999999999984
  0
3DFACE
  5
8E1
  8
WING2
 10
0.5199999999999961
 20
2.589999999999999
 30
-0.5999999999999996
 11
0.5199999999999961
 21
0.9599999999999999
 31
-0.5999999999999996
 12
0.6499999999999951
 22
0.9599999999999999
 32
-0.6599999999999984
 13
0.6499999999999951
 23
2.589999999999999
 33
-0.6599999999999984
  0
3DFACE
  5
8E2
  8
WING2
 10
0.6499999999999951
 20
0.9599999999999999
 30
-0.6599999999999984
 11
0.5199999999999961
 21
0.9599999999999999
 31
-0.5999999999999996
 12
0.5199999999999961
 22
0.5400000000000002
 32
-0.4699999999999989
 13
0.6499999999999951
 23
0.6600000000000003
 33
-0.5599999999999988
  0
3DFACE
  5
8E3
  8
WING2
 10
0.4599999999999973
 20
2.589999999999999
 30
-0.5199999999999996
 11
0.4599999999999973
 21
0.9599999999999999
 31
-0.5199999999999996
 12
0.5199999999999961
 22
0.9599999999999999
 32
-0.5999999999999996
 13
0.5199999999999961
 23
2.589999999999999
 33
-0.5999999999999996
  0
3DFACE
  5
8E4
  8
WING2
 10
0.5199999999999961
 20
2.669999999999999
 30
-0.4699999999999989
 11
0.4599999999999973
 21
2.669999999999999
 31
-0.3899999999999988
 12
0.4599999999999973
 22
2.589999999999999
 32
-0.5199999999999996
 13
0.5199999999999961
 23
2.589999999999999
 33
-0.5999999999999996
  0
3DFACE
  5
8E5
  8
WING2
 10
0.5199999999999961
 20
0.9599999999999999
 30
-0.5999999999999996
 11
0.4599999999999973
 21
0.9599999999999999
 31
-0.5199999999999996
 12
0.4599999999999973
 22
0.3799999999999999
 32
-0.3899999999999988
 13
0.5199999999999961
 23
0.5400000000000002
 33
-0.4699999999999989
  0
3DFACE
  5
8E6
  8
WING2
 10
0.6499999999999951
 20
2.589999999999999
 30
-0.4599999999999991
 11
0.5199999999999961
 21
2.589999999999999
 31
-0.3499999999999996
 12
0.5199999999999961
 22
2.669999999999999
 32
-0.4699999999999989
 13
0.6499999999999951
 23
2.669999999999999
 33
-0.5599999999999988
  0
3DFACE
  5
8E7
  8
WING2
 10
0.6499999999999951
 20
0.6600000000000003
 30
-0.5599999999999988
 11
0.5199999999999961
 21
0.5400000000000002
 31
-0.4699999999999989
 12
0.5199999999999961
 22
0.9599999999999999
 32
-0.3499999999999996
 13
0.6499999999999951
 23
0.9599999999999999
 33
-0.4599999999999991
  0
3DFACE
  5
8E8
  8
WING2
 10
0.6499999999999951
 20
0.9599999999999999
 30
-0.4599999999999991
 11
0.5199999999999961
 21
0.9599999999999999
 31
-0.3499999999999996
 12
0.5199999999999961
 22
2.589999999999999
 32
-0.3499999999999996
 13
0.6499999999999951
 23
2.589999999999999
 33
-0.4599999999999991
  0
3DFACE
  5
8E9
  8
WING2
 10
1.042218254069478
 20
2.9399999999999991
 30
1.1372182540694791
 11
1.0100000000000009
 21
2.9399999999999991
 31
1.214999999999999
 12
1.0100000000000009
 22
2.7200000000000002
 32
1.214999999999999
 13
1.042218254069478
 23
2.7200000000000002
 33
1.1372182540694791
  0
3DFACE
  5
8EA
  8
WING2
 10
1.23
 20
2.9399999999999991
 30
1.214999999999999
 11
1.19778174593052
 21
2.9399999999999991
 31
1.1372182540694791
 12
1.19778174593052
 22
2.7200000000000002
 32
1.1372182540694791
 13
1.23
 23
2.7200000000000002
 33
1.214999999999999
  0
3DFACE
  5
8EB
  8
WING2
 10
1.1873609679265369
 20
2.9950000000000001
 30
1.147639032073462
 11
1.19778174593052
 21
2.9399999999999991
 31
1.1372182540694791
 12
1.23
 22
2.9399999999999991
 32
1.214999999999999
 13
1.2152627944162859
 23
2.9950000000000001
 33
1.214999999999999
  0
3DFACE
  5
8EC
  8
WING2
 10
1.1588908729652581
 20
3.0352627944162882
 30
1.176109127034739
 11
1.1873609679265369
 21
2.9950000000000001
 31
1.147639032073462
 12
1.2152627944162859
 22
2.9950000000000001
 32
1.214999999999999
 13
1.175
 23
3.0352627944162882
 33
1.214999999999999
  0
3DFACE
  5
8ED
  8
WING2
 10
1.1200000000000001
 20
3.0499999999999989
 30
1.214999999999999
 11
1.1588908729652581
 21
3.0352627944162882
 31
1.176109127034739
 12
1.175
 22
3.0352627944162882
 32
1.214999999999999
 13
1.1200000000000001
 23
3.0499999999999989
 33
1.214999999999999
  0
3DFACE
  5
8EE
  8
WING2
 10
1.1200000000000001
 20
3.0499999999999989
 30
1.214999999999999
 11
1.1200000000000001
 21
3.0352627944162882
 31
1.159999999999999
 12
1.1588908729652581
 22
3.0352627944162882
 32
1.176109127034739
 13
1.1200000000000001
 23
3.0499999999999989
 33
1.214999999999999
  0
3DFACE
  5
8EF
  8
WING2
 10
1.1200000000000001
 20
3.0499999999999989
 30
1.214999999999999
 11
1.081109127034739
 21
3.0352627944162882
 31
1.176109127034739
 12
1.1200000000000001
 22
3.0352627944162882
 32
1.159999999999999
 13
1.1200000000000001
 23
3.0499999999999989
 33
1.214999999999999
  0
3DFACE
  5
8F0
  8
WING2
 10
1.024737205583711
 20
2.9950000000000001
 30
1.214999999999999
 11
1.0100000000000009
 21
2.9399999999999991
 31
1.214999999999999
 12
1.042218254069478
 22
2.9399999999999991
 32
1.1372182540694791
 13
1.0526390320734611
 23
2.9950000000000001
 33
1.147639032073462
  0
3DFACE
  5
8F1
  8
WING2
 10
1.0650000000000011
 20
3.0352627944162882
 30
1.214999999999999
 11
1.024737205583711
 21
2.9950000000000001
 31
1.214999999999999
 12
1.0526390320734611
 22
2.9950000000000001
 32
1.147639032073462
 13
1.081109127034739
 23
3.0352627944162882
 33
1.176109127034739
  0
3DFACE
  5
8F2
  8
WING2
 10
1.1200000000000001
 20
3.0499999999999989
 30
1.214999999999999
 11
1.0650000000000011
 21
3.0352627944162882
 31
1.214999999999999
 12
1.081109127034739
 22
3.0352627944162882
 32
1.176109127034739
 13
1.1200000000000001
 23
3.0499999999999989
 33
1.214999999999999
  0
3DFACE
  5
8F3
  8
WING2
 10
3.8999999999999981
 20
2.5299999999999998
 30
1.21
 11
3.8999999999999981
 21
1.0800000000000001
 31
1.21
 12
4.3699999999999974
 22
1.1200000000000001
 32
1.230000000000002
 13
4.3699999999999974
 23
2.5
 33
1.230000000000002
  0
3DFACE
  5
8F4
  8
WING2
 10
4.3699999999999974
 20
1.1200000000000001
 30
1.230000000000002
 11
3.8999999999999981
 21
1.0800000000000001
 31
1.21
 12
3.8999999999999981
 22
0.9
 32
1.3200000000000001
 13
4.3699999999999974
 23
0.9599999999999999
 33
1.340000000000001
  0
3DFACE
  5
8F5
  8
WING2
 10
4.3699999999999974
 20
2.7000000000000002
 30
1.340000000000001
 11
3.8999999999999981
 21
2.7200000000000002
 31
1.3200000000000001
 12
3.8999999999999981
 22
2.5299999999999998
 32
1.21
 13
4.3699999999999974
 23
2.5
 33
1.230000000000002
  0
3DFACE
  5
8F6
  8
WING2
 10
3.8999999999999981
 20
1.0800000000000001
 30
1.21
 11
3.2600000000000011
 21
1.05
 31
1.180000000000001
 12
3.2600000000000011
 22
0.9
 32
1.3
 13
3.8999999999999981
 23
0.9
 33
1.3200000000000001
  0
3DFACE
  5
8F7
  8
WING2
 10
3.8999999999999981
 20
2.7200000000000002
 30
1.3200000000000001
 11
3.2600000000000011
 21
2.75
 31
1.3
 12
3.2600000000000011
 22
2.5600000000000001
 32
1.180000000000001
 13
3.8999999999999981
 23
2.5299999999999998
 33
1.21
  0
3DFACE
  5
8F8
  8
WING2
 10
3.2600000000000011
 20
1.05
 30
1.180000000000001
 11
0.9800000000000004
 21
1.0900000000000001
 31
1.100000000000001
 12
0.9800000000000004
 22
0.99
 32
1.21
 13
3.2600000000000011
 23
0.9
 33
1.3
  0
3DFACE
  5
8F9
  8
WING2
 10
3.2600000000000011
 20
2.75
 30
1.3
 11
0.9800000000000004
 21
2.9100000000000001
 31
1.21
 12
0.9800000000000004
 22
2.7200000000000002
 32
1.100000000000001
 13
3.2600000000000011
 23
2.5600000000000001
 33
1.180000000000001
  0
3DFACE
  5
8FA
  8
WING2
 10
3.2600000000000011
 20
2.5600000000000001
 30
1.420000000000001
 11
0.9800000000000004
 21
2.7200000000000002
 31
1.3200000000000001
 12
0.9800000000000004
 22
2.9100000000000001
 32
1.21
 13
3.2600000000000011
 23
2.75
 33
1.3
  0
3DFACE
  5
8FB
  8
WING2
 10
3.2600000000000011
 20
0.9
 30
1.3
 11
0.9800000000000004
 21
0.99
 31
1.21
 12
0.9800000000000004
 22
1.0900000000000001
 32
1.3200000000000001
 13
3.2600000000000011
 23
1.05
 33
1.420000000000001
  0
3DFACE
  5
8FC
  8
WING2
 10
0.9800000000000004
 20
2.7200000000000002
 30
1.3200000000000001
 11
0.8299999999999982
 21
2.7200000000000002
 31
1.3200000000000001
 12
0.8299999999999982
 22
2.9100000000000001
 32
1.21
 13
0.9800000000000004
 23
2.9100000000000001
 33
1.21
  0
3DFACE
  5
8FD
  8
WING2
 10
0.9800000000000004
 20
0.99
 30
1.21
 11
0.8299999999999982
 21
1.01
 31
1.21
 12
0.8299999999999982
 22
1.1299999999999999
 32
1.3200000000000001
 13
0.9800000000000004
 23
1.0900000000000001
 33
1.3200000000000001
  0
3DFACE
  5
8FE
  8
WING2
 10
0.8299999999999982
 20
2.7200000000000002
 30
1.3200000000000001
 11
0.7699999999999996
 21
2.7200000000000002
 31
1.3200000000000001
 12
0.7699999999999996
 22
2.9100000000000001
 32
1.21
 13
0.8299999999999982
 23
2.9100000000000001
 33
1.21
  0
3DFACE
  5
8FF
  8
WING2
 10
0.8299999999999982
 20
1.01
 30
1.21
 11
0.7699999999999996
 21
1.05
 31
1.21
 12
0.7699999999999996
 22
1.1899999999999991
 32
1.3200000000000001
 13
0.8299999999999982
 23
1.1299999999999999
 33
1.3200000000000001
  0
3DFACE
  5
900
  8
WING2
 10
0.7699999999999996
 20
2.7200000000000002
 30
1.3200000000000001
 11
0.5799999999999983
 21
2.7200000000000002
 31
1.3200000000000001
 12
0.5799999999999983
 22
2.9100000000000001
 32
1.21
 13
0.7699999999999996
 23
2.9100000000000001
 33
1.21
  0
3DFACE
  5
901
  8
WING2
 10
0.7699999999999996
 20
1.05
 30
1.21
 11
0.5799999999999983
 21
1.25
 31
1.21
 12
0.5799999999999983
 22
1.3400000000000001
 32
1.3200000000000001
 13
0.7699999999999996
 23
1.1899999999999991
 33
1.3200000000000001
  0
3DFACE
  5
902
  8
WING2
 10
0.5799999999999983
 20
2.7200000000000002
 30
1.3200000000000001
 11
0.2999999999999971
 21
2.7200000000000002
 31
1.3200000000000001
 12
0.2999999999999971
 22
2.9100000000000001
 32
1.21
 13
0.5799999999999983
 23
2.9100000000000001
 33
1.21
  0
3DFACE
  5
903
  8
WING2
 10
0.5799999999999983
 20
1.25
 30
1.21
 11
0.2999999999999971
 21
1.3899999999999999
 31
1.21
 12
0.2999999999999971
 22
1.4699999999999991
 32
1.3200000000000001
 13
0.5799999999999983
 23
1.3400000000000001
 33
1.3200000000000001
  0
3DFACE
  5
904
  8
WING2
 10
0.2999999999999971
 20
2.7200000000000002
 30
1.3200000000000001
 11
0.1499999999999986
 21
2.7200000000000002
 31
1.3200000000000001
 12
0.1499999999999986
 22
2.9100000000000001
 32
1.21
 13
0.2999999999999971
 23
2.9100000000000001
 33
1.21
  0
3DFACE
  5
905
  8
WING2
 10
0.2999999999999971
 20
1.3899999999999999
 30
1.21
 11
0.1499999999999986
 21
1.429999999999999
 31
1.21
 12
0.1499999999999986
 22
1.5099999999999989
 32
1.3200000000000001
 13
0.2999999999999971
 23
1.4699999999999991
 33
1.3200000000000001
  0
3DFACE
  5
906
  8
WING2
 10
0.1499999999999986
 20
2.7200000000000002
 30
1.3200000000000001
 11
0.0
 21
2.7200000000000002
 31
1.3200000000000001
 12
0.0
 22
2.9100000000000001
 32
1.21
 13
0.1499999999999986
 23
2.9100000000000001
 33
1.21
  0
3DFACE
  5
907
  8
WING2
 10
0.1499999999999986
 20
1.429999999999999
 30
1.21
 11
0.0
 21
1.429999999999999
 31
1.21
 12
0.0
 22
1.5099999999999989
 32
1.3200000000000001
 13
0.1499999999999986
 23
1.5099999999999989
 33
1.3200000000000001
  0
3DFACE
  5
908
  8
WING2
 10
0.9800000000000004
 20
2.7200000000000002
 30
1.100000000000001
 11
0.9800000000000004
 21
1.0900000000000001
 31
1.100000000000001
 12
3.2600000000000011
 22
1.05
 32
1.180000000000001
 13
3.2600000000000011
 23
2.5600000000000001
 33
1.180000000000001
  0
3DFACE
  5
909
  8
WING2
 10
1.1200000000000001
 20
2.9399999999999991
 30
1.1049999999999991
 11
1.042218254069478
 21
2.9399999999999991
 31
1.1372182540694791
 12
1.042218254069478
 22
2.7200000000000002
 32
1.1372182540694791
 13
1.1200000000000001
 23
2.7200000000000002
 33
1.1049999999999991
  0
3DFACE
  5
90A
  8
WING2
 10
1.19778174593052
 20
2.9399999999999991
 30
1.1372182540694791
 11
1.1200000000000001
 21
2.9399999999999991
 31
1.1049999999999991
 12
1.1200000000000001
 22
2.7200000000000002
 32
1.1049999999999991
 13
1.19778174593052
 23
2.7200000000000002
 33
1.1372182540694791
  0
3DFACE
  5
90B
  8
WING2
 10
1.1200000000000001
 20
2.9950000000000001
 30
1.1197372055837109
 11
1.1200000000000001
 21
2.9399999999999991
 31
1.1049999999999991
 12
1.19778174593052
 22
2.9399999999999991
 32
1.1372182540694791
 13
1.1873609679265369
 23
2.9950000000000001
 33
1.147639032073462
  0
3DFACE
  5
90C
  8
WING2
 10
1.1200000000000001
 20
3.0352627944162882
 30
1.159999999999999
 11
1.1200000000000001
 21
2.9950000000000001
 31
1.1197372055837109
 12
1.1873609679265369
 22
2.9950000000000001
 32
1.147639032073462
 13
1.1588908729652581
 23
3.0352627944162882
 33
1.176109127034739
  0
3DFACE
  5
90D
  8
WING2
 10
1.0526390320734611
 20
2.9950000000000001
 30
1.147639032073462
 11
1.042218254069478
 21
2.9399999999999991
 31
1.1372182540694791
 12
1.1200000000000001
 22
2.9399999999999991
 32
1.1049999999999991
 13
1.1200000000000001
 23
2.9950000000000001
 33
1.1197372055837109
  0
3DFACE
  5
90E
  8
WING2
 10
1.081109127034739
 20
3.0352627944162882
 30
1.176109127034739
 11
1.0526390320734611
 21
2.9950000000000001
 31
1.147639032073462
 12
1.1200000000000001
 22
2.9950000000000001
 32
1.1197372055837109
 13
1.1200000000000001
 23
3.0352627944162882
 33
1.159999999999999
  0
3DFACE
  5
90F
  8
WING2
 10
3.2600000000000011
 20
2.5600000000000001
 30
1.180000000000001
 11
3.2600000000000011
 21
1.05
 31
1.180000000000001
 12
3.8999999999999981
 22
1.0800000000000001
 32
1.21
 13
3.8999999999999981
 23
2.5299999999999998
 33
1.21
  0
3DFACE
  5
910
  8
WING2
 10
-0.0599999999999987
 20
-3.4900000000000002
 30
0.95
 11
-0.0599999999999987
 21
-3.52
 31
0.95
 12
-0.75
 22
-3.52
 32
0.5200000000000001
 13
-0.75
 23
-3.4900000000000002
 33
0.5200000000000001
  0
3DFACE
  5
911
  8
WING2
 10
-0.75
 20
-3.4900000000000002
 30
0.5200000000000001
 11
-0.75
 21
-3.52
 31
0.5200000000000001
 12
-0.0599999999999987
 22
-3.52
 32
0.95
 13
-0.0599999999999987
 23
-3.4900000000000002
 33
0.95
  0
3DFACE
  5
912
  8
WING2
 10
-1.5700000000000001
 20
-3.5800000000000001
 30
0.42
 11
-1.4599999999999971
 21
-3.6199999999999992
 31
0.4100000000000002
 12
-1.46
 22
-3.3399999999999999
 32
0.4100000000000002
 13
-1.5700000000000001
 23
-3.4499999999999988
 33
0.42
  0
3DFACE
  5
913
  8
WING2
 10
-1.4599999999999971
 20
-3.6199999999999992
 30
0.4100000000000002
 11
-1.2699999999999989
 21
-3.6199999999999992
 31
0.4000000000000004
 12
-1.2699999999999989
 22
-3.1999999999999988
 32
0.4000000000000004
 13
-1.46
 23
-3.3399999999999999
 33
0.4100000000000002
  0
3DFACE
  5
914
  8
WING2
 10
-0.9699999999999988
 20
-3.6199999999999992
 30
0.4000000000000004
 11
-0.75
 21
-3.6199999999999992
 31
0.4000000000000004
 12
-0.75
 22
-2.859999999999999
 32
0.4000000000000004
 13
-0.9699999999999988
 23
-3.0
 33
0.4000000000000004
  0
3DFACE
  5
915
  8
WING2
 10
-1.2699999999999989
 20
-3.6199999999999992
 30
0.4000000000000004
 11
-0.9699999999999988
 21
-3.6199999999999992
 31
0.4000000000000004
 12
-0.9699999999999988
 22
-3.0
 32
0.4000000000000004
 13
-1.2699999999999989
 23
-3.1999999999999988
 33
0.4000000000000004
  0
3DFACE
  5
916
  8
WING2
 10
-0.4199999999999982
 20
-3.6199999999999992
 30
0.3800000000000008
 11
-0.3399999999999999
 21
-3.6199999999999992
 31
0.3800000000000008
 12
-0.3399999999999999
 22
-2.569999999999999
 32
0.3800000000000008
 13
-0.4199999999999982
 23
-2.629999999999999
 33
0.3800000000000008
  0
3DFACE
  5
917
  8
WING2
 10
-0.1699999999999981
 20
-3.6199999999999992
 30
0.3800000000000008
 11
0.0
 21
-3.379999999999999
 31
0.3800000000000008
 12
0.0
 22
-2.4599999999999991
 32
0.3800000000000008
 13
-0.1699999999999981
 23
-2.4700000000000002
 33
0.3800000000000008
  0
3DFACE
  5
918
  8
WING2
 10
-0.3399999999999999
 20
-3.6199999999999992
 30
0.3800000000000008
 11
-0.1699999999999981
 21
-3.6199999999999992
 31
0.3800000000000008
 12
-0.1699999999999981
 22
-2.4700000000000002
 32
0.3800000000000008
 13
-0.3399999999999999
 23
-2.569999999999999
 33
0.3800000000000008
  0
3DFACE
  5
919
  8
WING2
 10
-0.75
 20
-3.6199999999999992
 30
0.4000000000000004
 11
-0.4199999999999982
 21
-3.6199999999999992
 31
0.3800000000000008
 12
-0.4199999999999982
 22
-2.629999999999999
 32
0.3800000000000008
 13
-0.75
 23
-2.859999999999999
 33
0.4000000000000004
  0
3DFACE
  5
91A
  8
WING2
 10
-1.6200000000000001
 20
-3.4499999999999988
 30
0.4700000000000007
 11
-1.6200000000000001
 21
-3.5800000000000001
 31
0.4700000000000007
 12
-1.5700000000000001
 22
-3.5800000000000001
 32
0.42
 13
-1.5700000000000001
 23
-3.4499999999999988
 33
0.42
  0
3DFACE
  5
91B
  8
WING2
 10
-1.5700000000000001
 20
-3.4499999999999988
 30
0.42
 11
-1.46
 21
-3.3399999999999999
 31
0.4100000000000002
 12
-1.46
 22
-3.2899999999999991
 32
0.4700000000000007
 13
-1.6200000000000001
 23
-3.4499999999999988
 33
0.4700000000000007
  0
3DFACE
  5
91C
  8
WING2
 10
-1.6200000000000001
 20
-3.5800000000000001
 30
0.4700000000000007
 11
-1.4599999999999971
 21
-3.7400000000000002
 31
0.4700000000000007
 12
-1.4599999999999971
 22
-3.6199999999999992
 32
0.4100000000000002
 13
-1.5700000000000001
 23
-3.5800000000000001
 33
0.42
  0
3DFACE
  5
91D
  8
WING2
 10
-1.46
 20
-3.3399999999999999
 30
0.4100000000000002
 11
-1.2699999999999989
 21
-3.1999999999999988
 31
0.4000000000000004
 12
-1.2699999999999989
 22
-3.149999999999999
 32
0.4700000000000007
 13
-1.46
 23
-3.2899999999999991
 33
0.4700000000000007
  0
3DFACE
  5
91E
  8
WING2
 10
-1.4599999999999971
 20
-3.7400000000000002
 30
0.4700000000000007
 11
-1.2699999999999989
 21
-3.8300000000000001
 31
0.4700000000000007
 12
-1.2699999999999989
 22
-3.6199999999999992
 32
0.4000000000000004
 13
-1.4599999999999971
 23
-3.6199999999999992
 33
0.4100000000000002
  0
3DFACE
  5
91F
  8
WING2
 10
-0.9699999999999988
 20
-3.0
 30
0.4000000000000004
 11
-0.75
 21
-2.859999999999999
 31
0.4000000000000004
 12
-0.75
 22
-2.7599999999999998
 32
0.4700000000000007
 13
-0.9699999999999988
 23
-2.9300000000000002
 33
0.4700000000000007
  0
3DFACE
  5
920
  8
WING2
 10
-0.9699999999999988
 20
-3.9199999999999999
 30
0.4700000000000007
 11
-0.75
 21
-3.9700000000000002
 31
0.4700000000000007
 12
-0.75
 22
-3.6199999999999992
 32
0.4000000000000004
 13
-0.9699999999999988
 23
-3.6199999999999992
 33
0.4000000000000004
  0
3DFACE
  5
921
  8
WING2
 10
-1.2699999999999989
 20
-3.1999999999999988
 30
0.4000000000000004
 11
-0.9699999999999988
 21
-3.0
 31
0.4000000000000004
 12
-0.9699999999999988
 22
-2.9300000000000002
 32
0.4700000000000007
 13
-1.2699999999999989
 23
-3.149999999999999
 33
0.4700000000000007
  0
3DFACE
  5
922
  8
WING2
 10
-1.2699999999999989
 20
-3.8300000000000001
 30
0.4700000000000007
 11
-0.9699999999999988
 21
-3.9199999999999999
 31
0.4700000000000007
 12
-0.9699999999999988
 22
-3.6199999999999992
 32
0.4000000000000004
 13
-1.2699999999999989
 23
-3.6199999999999992
 33
0.4000000000000004
  0
3DFACE
  5
923
  8
WING2
 10
-0.4199999999999982
 20
-2.629999999999999
 30
0.3800000000000008
 11
-0.3399999999999999
 21
-2.569999999999999
 31
0.3800000000000008
 12
-0.3399999999999999
 22
-2.4599999999999991
 32
0.4700000000000007
 13
-0.4199999999999982
 23
-2.52
 33
0.4700000000000007
  0
3DFACE
  5
924
  8
WING2
 10
-0.4199999999999982
 20
-3.9700000000000002
 30
0.4700000000000007
 11
-0.3399999999999999
 21
-3.9300000000000002
 31
0.4700000000000007
 12
-0.3399999999999999
 22
-3.6199999999999992
 32
0.3800000000000008
 13
-0.4199999999999982
 23
-3.6199999999999992
 33
0.3800000000000008
  0
3DFACE
  5
925
  8
WING2
 10
-0.1699999999999981
 20
-2.4700000000000002
 30
0.3800000000000008
 11
0.0
 21
-2.4599999999999991
 31
0.3800000000000008
 12
0.0
 22
-2.3500000000000001
 32
0.4700000000000007
 13
-0.1699999999999981
 23
-2.3500000000000001
 33
0.4700000000000007
  0
3DFACE
  5
926
  8
WING2
 10
-0.1699999999999981
 20
-3.7299999999999991
 30
0.4700000000000007
 11
0.0
 21
-3.3900000000000001
 31
0.4700000000000007
 12
0.0
 22
-3.379999999999999
 32
0.3800000000000008
 13
-0.1699999999999981
 23
-3.6199999999999992
 33
0.3800000000000008
  0
3DFACE
  5
927
  8
WING2
 10
-0.3399999999999999
 20
-2.569999999999999
 30
0.3800000000000008
 11
-0.1699999999999981
 21
-2.4700000000000002
 31
0.3800000000000008
 12
-0.1699999999999981
 22
-2.3500000000000001
 32
0.4700000000000007
 13
-0.3399999999999999
 23
-2.4599999999999991
 33
0.4700000000000007
  0
3DFACE
  5
928
  8
WING2
 10
-0.3399999999999999
 20
-3.9300000000000002
 30
0.4700000000000007
 11
-0.1699999999999981
 21
-3.7299999999999991
 31
0.4700000000000007
 12
-0.1699999999999981
 22
-3.6199999999999992
 32
0.3800000000000008
 13
-0.3399999999999999
 23
-3.6199999999999992
 33
0.3800000000000008
  0
3DFACE
  5
929
  8
WING2
 10
-0.75
 20
-2.859999999999999
 30
0.4000000000000004
 11
-0.4199999999999982
 21
-2.629999999999999
 31
0.3800000000000008
 12
-0.4199999999999982
 22
-2.52
 32
0.4700000000000007
 13
-0.75
 23
-2.7599999999999998
 33
0.4700000000000007
  0
3DFACE
  5
92A
  8
WING2
 10
-0.75
 20
-3.9700000000000002
 30
0.4700000000000007
 11
-0.4199999999999982
 21
-3.9700000000000002
 31
0.4700000000000007
 12
-0.4199999999999982
 22
-3.6199999999999992
 32
0.3800000000000008
 13
-0.75
 23
-3.6199999999999992
 33
0.4000000000000004
  0
3DFACE
  5
92B
  8
WING2
 10
-1.5700000000000001
 20
-3.4499999999999988
 30
0.5199999999999996
 11
-1.5700000000000001
 21
-3.5800000000000001
 31
0.5199999999999996
 12
-1.6200000000000001
 22
-3.5800000000000001
 32
0.4699999999999989
 13
-1.6200000000000001
 23
-3.4499999999999988
 33
0.4699999999999989
  0
3DFACE
  5
92C
  8
WING2
 10
-1.6200000000000001
 20
-3.4499999999999988
 30
0.4700000000000007
 11
-1.46
 21
-3.2899999999999991
 31
0.4700000000000007
 12
-1.46
 22
-3.3399999999999999
 32
0.5199999999999996
 13
-1.5700000000000001
 23
-3.4499999999999988
 33
0.5199999999999996
  0
3DFACE
  5
92D
  8
WING2
 10
-1.46
 20
-3.3399999999999999
 30
0.5199999999999996
 11
-1.4599999999999971
 21
-3.6199999999999992
 31
0.5199999999999996
 12
-1.5700000000000001
 22
-3.5800000000000001
 32
0.5199999999999996
 13
-1.5700000000000001
 23
-3.4499999999999988
 33
0.5199999999999996
  0
3DFACE
  5
92E
  8
WING2
 10
-1.5700000000000001
 20
-3.5800000000000001
 30
0.5199999999999996
 11
-1.4599999999999971
 21
-3.6199999999999992
 31
0.5199999999999996
 12
-1.4599999999999971
 22
-3.7400000000000002
 32
0.4700000000000007
 13
-1.6200000000000001
 23
-3.5800000000000001
 33
0.4700000000000007
  0
3DFACE
  5
92F
  8
WING2
 10
-1.46
 20
-3.2899999999999991
 30
0.4700000000000007
 11
-1.2699999999999989
 21
-3.149999999999999
 31
0.4700000000000007
 12
-1.2699999999999989
 22
-3.1999999999999988
 32
0.5199999999999996
 13
-1.46
 23
-3.3399999999999999
 33
0.5199999999999996
  0
3DFACE
  5
930
  8
WING2
 10
-1.4599999999999971
 20
-3.6199999999999992
 30
0.5199999999999996
 11
-1.2699999999999989
 21
-3.6199999999999992
 31
0.5199999999999996
 12
-1.2699999999999989
 22
-3.8300000000000001
 32
0.4700000000000007
 13
-1.4599999999999971
 23
-3.7400000000000002
 33
0.4700000000000007
  0
3DFACE
  5
931
  8
WING2
 10
-1.2699999999999989
 20
-3.1999999999999988
 30
0.5199999999999996
 11
-1.2699999999999989
 21
-3.6199999999999992
 31
0.5199999999999996
 12
-1.4599999999999971
 22
-3.6199999999999992
 32
0.5199999999999996
 13
-1.46
 23
-3.3399999999999999
 33
0.5199999999999996
  0
3DFACE
  5
932
  8
WING2
 10
-1.2699999999999989
 20
-3.149999999999999
 30
0.4700000000000007
 11
-0.9699999999999988
 21
-2.9300000000000002
 31
0.4700000000000007
 12
-0.9699999999999988
 22
-3.0
 32
0.5199999999999996
 13
-1.2699999999999989
 23
-3.1999999999999988
 33
0.5199999999999996
  0
3DFACE
  5
933
  8
WING2
 10
-1.2699999999999989
 20
-3.6199999999999992
 30
0.5199999999999996
 11
-0.9699999999999988
 21
-3.6199999999999992
 31
0.5199999999999996
 12
-0.9699999999999988
 22
-3.9199999999999999
 32
0.4700000000000007
 13
-1.2699999999999989
 23
-3.8300000000000001
 33
0.4700000000000007
  0
3DFACE
  5
934
  8
WING2
 10
-0.9699999999999988
 20
-3.0
 30
0.5199999999999996
 11
-0.9699999999999988
 21
-3.6199999999999992
 31
0.5199999999999996
 12
-1.2699999999999989
 22
-3.6199999999999992
 32
0.5199999999999996
 13
-1.2699999999999989
 23
-3.1999999999999988
 33
0.5199999999999996
  0
3DFACE
  5
935
  8
WING2
 10
-0.9699999999999988
 20
-2.9300000000000002
 30
0.4700000000000007
 11
-0.75
 21
-2.7599999999999998
 31
0.4700000000000007
 12
-0.75
 22
-2.859999999999999
 32
0.5199999999999996
 13
-0.9699999999999988
 23
-3.0
 33
0.5199999999999996
  0
3DFACE
  5
936
  8
WING2
 10
-0.9699999999999988
 20
-3.6199999999999992
 30
0.5199999999999996
 11
-0.75
 21
-3.6199999999999992
 31
0.5199999999999996
 12
-0.75
 22
-3.9700000000000002
 32
0.4700000000000007
 13
-0.9699999999999988
 23
-3.9199999999999999
 33
0.4700000000000007
  0
3DFACE
  5
937
  8
WING2
 10
-0.75
 20
-2.859999999999999
 30
0.5199999999999996
 11
-0.75
 21
-3.6199999999999992
 31
0.5199999999999996
 12
-0.9699999999999988
 22
-3.6199999999999992
 32
0.5199999999999996
 13
-0.9699999999999988
 23
-3.0
 33
0.5199999999999996
  0
3DFACE
  5
938
  8
WING2
 10
-0.75
 20
-2.7599999999999998
 30
0.4700000000000007
 11
-0.4199999999999982
 21
-2.52
 31
0.4700000000000007
 12
-0.4199999999999982
 22
-2.629999999999999
 32
0.5199999999999996
 13
-0.75
 23
-2.859999999999999
 33
0.5199999999999996
  0
3DFACE
  5
939
  8
WING2
 10
-0.75
 20
-3.6199999999999992
 30
0.5199999999999996
 11
-0.4199999999999982
 21
-3.6199999999999992
 31
0.5199999999999996
 12
-0.4199999999999982
 22
-3.9700000000000002
 32
0.4700000000000007
 13
-0.75
 23
-3.9700000000000002
 33
0.4700000000000007
  0
3DFACE
  5
93A
  8
WING2
 10
-0.4199999999999982
 20
-2.629999999999999
 30
0.5199999999999996
 11
-0.4199999999999982
 21
-3.6199999999999992
 31
0.5199999999999996
 12
-0.75
 22
-3.6199999999999992
 32
0.5199999999999996
 13
-0.75
 23
-2.859999999999999
 33
0.5199999999999996
  0
3DFACE
  5
93B
  8
WING2
 10
-0.4199999999999982
 20
-2.52
 30
0.4700000000000007
 11
-0.3399999999999999
 21
-2.4599999999999991
 31
0.4700000000000007
 12
-0.3399999999999999
 22
-2.569999999999999
 32
0.5199999999999996
 13
-0.4199999999999982
 23
-2.629999999999999
 33
0.5199999999999996
  0
3DFACE
  5
93C
  8
WING2
 10
-0.4199999999999982
 20
-3.6199999999999992
 30
0.5199999999999996
 11
-0.3399999999999999
 21
-3.6199999999999992
 31
0.5199999999999996
 12
-0.3399999999999999
 22
-3.9300000000000002
 32
0.4700000000000007
 13
-0.4199999999999982
 23
-3.9700000000000002
 33
0.4700000000000007
  0
3DFACE
  5
93D
  8
WING2
 10
-0.3399999999999999
 20
-2.569999999999999
 30
0.5199999999999996
 11
-0.3399999999999999
 21
-3.6199999999999992
 31
0.5199999999999996
 12
-0.4199999999999982
 22
-3.6199999999999992
 32
0.5199999999999996
 13
-0.4199999999999982
 23
-2.629999999999999
 33
0.5199999999999996
  0
3DFACE
  5
93E
  8
WING2
 10
-0.3399999999999999
 20
-2.4599999999999991
 30
0.4700000000000007
 11
-0.1699999999999981
 21
-2.3500000000000001
 31
0.4700000000000007
 12
-0.1699999999999981
 22
-2.4700000000000002
 32
0.5199999999999996
 13
-0.3399999999999999
 23
-2.569999999999999
 33
0.5199999999999996
  0
3DFACE
  5
93F
  8
WING2
 10
-0.3399999999999999
 20
-3.6199999999999992
 30
0.5199999999999996
 11
-0.1699999999999981
 21
-3.6199999999999992
 31
0.5199999999999996
 12
-0.1699999999999981
 22
-3.7299999999999991
 32
0.4700000000000007
 13
-0.3399999999999999
 23
-3.9300000000000002
 33
0.4700000000000007
  0
3DFACE
  5
940
  8
WING2
 10
-0.1699999999999981
 20
-2.4700000000000002
 30
0.5199999999999996
 11
-0.1699999999999981
 21
-3.6199999999999992
 31
0.5199999999999996
 12
-0.3399999999999999
 22
-3.6199999999999992
 32
0.5199999999999996
 13
-0.3399999999999999
 23
-2.569999999999999
 33
0.5199999999999996
  0
3DFACE
  5
941
  8
WING2
 10
-0.1699999999999981
 20
-2.3500000000000001
 30
0.4700000000000007
 11
0.0
 21
-2.3500000000000001
 31
0.4700000000000007
 12
0.0
 22
-2.4599999999999991
 32
0.5199999999999996
 13
-0.1699999999999981
 23
-2.4700000000000002
 33
0.5199999999999996
  0
3DFACE
  5
942
  8
WING2
 10
-0.1699999999999981
 20
-3.6199999999999992
 30
0.5199999999999996
 11
0.0
 21
-3.379999999999999
 31
0.5199999999999996
 12
0.0
 22
-3.3900000000000001
 32
0.4700000000000007
 13
-0.1699999999999981
 23
-3.7299999999999991
 33
0.4700000000000007
  0
3DFACE
  5
943
  8
WING2
 10
0.0
 20
-2.4599999999999991
 30
0.5199999999999996
 11
0.0
 21
-3.379999999999999
 31
0.5199999999999996
 12
-0.1699999999999981
 22
-3.6199999999999992
 32
0.5199999999999996
 13
-0.1699999999999981
 23
-2.4700000000000002
 33
0.5199999999999996
  0
3DFACE
  5
944
  8
WING2
 10
0.5300000000000013
 20
2.4500000000000002
 30
0.45
 11
0.5300000000000013
 21
2.319999999999999
 31
0.45
 12
0.7899999999999992
 22
1.5
 32
1.1000000000000001
 13
0.7899999999999992
 23
1.6599999999999999
 33
1.1000000000000001
  0
3DFACE
  5
945
  8
WING2
 10
0.7899999999999992
 20
1.6599999999999999
 30
1.1000000000000001
 11
0.7899999999999992
 21
1.5
 31
1.1000000000000001
 12
0.5300000000000013
 22
2.319999999999999
 32
0.45
 13
0.5300000000000013
 23
2.4500000000000002
 33
0.45
  0
3DFACE
  5
946
  8
WING2
 10
0.5399999999999992
 20
1.3799999999999999
 30
0.5
 11
0.5399999999999992
 21
1.3
 31
0.5
 12
0.7899999999999992
 22
1.4699999999999991
 32
1.1000000000000001
 13
0.7899999999999992
 23
1.5700000000000001
 33
1.1000000000000001
  0
3DFACE
  5
947
  8
WING2
 10
0.7899999999999992
 20
1.5700000000000001
 30
1.1000000000000001
 11
0.7899999999999992
 21
1.4699999999999991
 31
1.1000000000000001
 12
0.5399999999999992
 22
1.3
 32
0.5
 13
0.5399999999999992
 23
1.3799999999999999
 33
0.5
  0
3DFACE
  5
948
  8
WING2
 10
0.7899999999999992
 20
2.6400000000000001
 30
1.1000000000000001
 11
0.7899999999999992
 21
2.5499999999999998
 31
1.1000000000000001
 12
0.5300000000000013
 22
2.4500000000000002
 32
0.45
 13
0.5300000000000013
 23
2.5299999999999998
 33
0.45
  0
3DFACE
  5
949
  8
WING2
 10
0.5300000000000013
 20
2.5299999999999998
 30
0.45
 11
0.5300000000000013
 21
2.4500000000000002
 31
0.45
 12
0.7899999999999992
 22
2.5499999999999998
 32
1.1000000000000001
 13
0.7899999999999992
 23
2.6400000000000001
 33
1.1000000000000001
  0
3DFACE
  5
94A
  8
WING2
 10
0.2999999999999971
 20
2.7200000000000002
 30
1.100000000000001
 11
0.2999999999999971
 21
1.4699999999999991
 31
1.100000000000001
 12
0.5799999999999983
 22
1.3400000000000001
 32
1.100000000000001
 13
0.5799999999999983
 23
2.7200000000000002
 33
1.100000000000001
  0
3DFACE
  5
94B
  8
WING2
 10
0.0
 20
2.7200000000000002
 30
1.100000000000001
 11
0.0
 21
1.5099999999999989
 31
1.100000000000001
 12
0.1499999999999986
 22
1.5099999999999989
 32
1.100000000000001
 13
0.1499999999999986
 23
2.7200000000000002
 33
1.100000000000001
  0
3DFACE
  5
94C
  8
WING2
 10
0.1499999999999986
 20
2.7200000000000002
 30
1.100000000000001
 11
0.1499999999999986
 21
1.5099999999999989
 31
1.100000000000001
 12
0.2999999999999971
 22
1.4699999999999991
 32
1.100000000000001
 13
0.2999999999999971
 23
2.7200000000000002
 33
1.100000000000001
  0
3DFACE
  5
94D
  8
WING2
 10
0.5799999999999983
 20
2.7200000000000002
 30
1.100000000000001
 11
0.5799999999999983
 21
1.3400000000000001
 31
1.100000000000001
 12
0.7699999999999996
 22
1.1899999999999991
 32
1.100000000000001
 13
0.7699999999999996
 23
2.7200000000000002
 33
1.100000000000001
  0
3DFACE
  5
94E
  8
WING2
 10
0.7699999999999996
 20
2.7200000000000002
 30
1.100000000000001
 11
0.7699999999999996
 21
1.1899999999999991
 31
1.100000000000001
 12
0.8299999999999982
 22
1.1299999999999999
 32
1.100000000000001
 13
0.8299999999999982
 23
2.7200000000000002
 33
1.100000000000001
  0
3DFACE
  5
94F
  8
WING2
 10
0.8299999999999982
 20
2.7200000000000002
 30
1.100000000000001
 11
0.8299999999999982
 21
1.1299999999999999
 31
1.100000000000001
 12
0.9800000000000004
 22
1.0900000000000001
 32
1.100000000000001
 13
0.9800000000000004
 23
2.7200000000000002
 33
1.100000000000001
  0
3DFACE
  5
950
  8
WING2
 10
0.7699999999999996
 20
1.1899999999999991
 30
1.100000000000001
 11
0.5799999999999983
 21
1.3400000000000001
 31
1.100000000000001
 12
0.5799999999999983
 22
1.25
 32
1.21
 13
0.7699999999999996
 23
1.05
 33
1.21
  0
3DFACE
  5
951
  8
WING2
 10
0.7699999999999996
 20
2.9100000000000001
 30
1.21
 11
0.5799999999999983
 21
2.9100000000000001
 31
1.21
 12
0.5799999999999983
 22
2.7200000000000002
 32
1.100000000000001
 13
0.7699999999999996
 23
2.7200000000000002
 33
1.100000000000001
  0
3DFACE
  5
952
  8
WING2
 10
0.5799999999999983
 20
1.3400000000000001
 30
1.100000000000001
 11
0.2999999999999971
 21
1.4699999999999991
 31
1.100000000000001
 12
0.2999999999999971
 22
1.3899999999999999
 32
1.21
 13
0.5799999999999983
 23
1.25
 33
1.21
  0
3DFACE
  5
953
  8
WING2
 10
0.5799999999999983
 20
2.9100000000000001
 30
1.21
 11
0.2999999999999971
 21
2.9100000000000001
 31
1.21
 12
0.2999999999999971
 22
2.7200000000000002
 32
1.100000000000001
 13
0.5799999999999983
 23
2.7200000000000002
 33
1.100000000000001
  0
3DFACE
  5
954
  8
WING2
 10
0.1499999999999986
 20
1.5099999999999989
 30
1.100000000000001
 11
0.0
 21
1.5099999999999989
 31
1.100000000000001
 12
0.0
 22
1.429999999999999
 32
1.21
 13
0.1499999999999986
 23
1.429999999999999
 33
1.21
  0
3DFACE
  5
955
  8
WING2
 10
0.1499999999999986
 20
2.9100000000000001
 30
1.21
 11
0.0
 21
2.9100000000000001
 31
1.21
 12
0.0
 22
2.7200000000000002
 32
1.100000000000001
 13
0.1499999999999986
 23
2.7200000000000002
 33
1.100000000000001
  0
3DFACE
  5
956
  8
WING2
 10
0.2999999999999971
 20
2.9100000000000001
 30
1.21
 11
0.1499999999999986
 21
2.9100000000000001
 31
1.21
 12
0.1499999999999986
 22
2.7200000000000002
 32
1.100000000000001
 13
0.2999999999999971
 23
2.7200000000000002
 33
1.100000000000001
  0
3DFACE
  5
957
  8
WING2
 10
0.2999999999999971
 20
1.4699999999999991
 30
1.100000000000001
 11
0.1499999999999986
 21
1.5099999999999989
 31
1.100000000000001
 12
0.1499999999999986
 22
1.429999999999999
 32
1.21
 13
0.2999999999999971
 23
1.3899999999999999
 33
1.21
  0
3DFACE
  5
958
  8
WING2
 10
0.8299999999999982
 20
1.1299999999999999
 30
1.100000000000001
 11
0.7699999999999996
 21
1.1899999999999991
 31
1.100000000000001
 12
0.7699999999999996
 22
1.05
 32
1.21
 13
0.8299999999999982
 23
1.01
 33
1.21
  0
3DFACE
  5
959
  8
WING2
 10
0.8299999999999982
 20
2.9100000000000001
 30
1.21
 11
0.7699999999999996
 21
2.9100000000000001
 31
1.21
 12
0.7699999999999996
 22
2.7200000000000002
 32
1.100000000000001
 13
0.8299999999999982
 23
2.7200000000000002
 33
1.100000000000001
  0
3DFACE
  5
95A
  8
WING2
 10
0.9800000000000004
 20
2.9100000000000001
 30
1.21
 11
0.8299999999999982
 21
2.9100000000000001
 31
1.21
 12
0.8299999999999982
 22
2.7200000000000002
 32
1.100000000000001
 13
0.9800000000000004
 23
2.7200000000000002
 33
1.100000000000001
  0
3DFACE
  5
95B
  8
WING2
 10
0.9800000000000004
 20
1.0900000000000001
 30
1.100000000000001
 11
0.8299999999999982
 21
1.1299999999999999
 31
1.100000000000001
 12
0.8299999999999982
 22
1.01
 32
1.21
 13
0.9800000000000004
 23
0.99
 33
1.21
  0
3DFACE
  5
95C
  8
WING2
 10
1.0100000000000009
 20
2.9399999999999991
 30
1.214999999999999
 11
1.042218254069478
 21
2.9399999999999991
 31
1.29278174593052
 12
1.042218254069478
 22
2.7200000000000002
 32
1.29278174593052
 13
1.0100000000000009
 23
2.7200000000000002
 33
1.214999999999999
  0
3DFACE
  5
95D
  8
WING2
 10
1.0526390320734611
 20
2.9950000000000001
 30
1.2823609679265371
 11
1.042218254069478
 21
2.9399999999999991
 31
1.2927817459305191
 12
1.0100000000000009
 22
2.9399999999999991
 32
1.214999999999999
 13
1.024737205583711
 23
2.9950000000000001
 33
1.214999999999999
  0
3DFACE
  5
95E
  8
WING2
 10
1.081109127034739
 20
3.0352627944162882
 30
1.2538908729652589
 11
1.0526390320734611
 21
2.9950000000000001
 31
1.2823609679265371
 12
1.024737205583711
 22
2.9950000000000001
 32
1.214999999999999
 13
1.0650000000000011
 23
3.0352627944162882
 33
1.214999999999999
  0
3DFACE
  5
95F
  8
WING2
 10
3.2600000000000011
 20
1.05
 30
1.420000000000001
 11
0.9800000000000004
 21
1.0900000000000001
 31
1.3200000000000001
 12
0.9800000000000004
 22
2.7200000000000002
 32
1.3200000000000001
 13
3.2600000000000011
 23
2.5600000000000001
 33
1.420000000000001
  0
3DFACE
  5
960
  8
WING2
 10
5.0199999999999987
 20
2.3900000000000001
 30
1.2600000000000009
 11
5.0199999999999987
 21
1.3700000000000001
 31
1.2600000000000009
 12
5.2499999999999956
 22
1.5
 32
1.29
 13
5.2499999999999956
 23
2.3100000000000001
 33
1.29
  0
3DFACE
  5
961
  8
WING2
 10
5.2499999999999956
 20
2.4799999999999991
 30
1.3800000000000019
 11
5.0199999999999987
 21
2.6000000000000001
 31
1.3800000000000019
 12
5.0199999999999987
 22
2.3900000000000001
 32
1.2600000000000009
 13
5.2499999999999956
 23
2.3100000000000001
 33
1.29
  0
3DFACE
  5
962
  8
WING2
 10
5.2499999999999956
 20
1.5
 30
1.29
 11
5.0199999999999987
 21
1.3700000000000001
 31
1.2600000000000009
 12
5.0199999999999987
 22
1.2199999999999991
 32
1.3800000000000019
 13
5.2499999999999956
 23
1.3799999999999999
 33
1.3800000000000019
  0
3DFACE
  5
963
  8
WING2
 10
5.2499999999999956
 20
2.3100000000000001
 30
1.4900000000000011
 11
5.0199999999999987
 21
2.3900000000000001
 31
1.4900000000000011
 12
5.0199999999999987
 22
2.6000000000000001
 32
1.3800000000000019
 13
5.2499999999999956
 23
2.4799999999999991
 33
1.3800000000000019
  0
3DFACE
  5
964
  8
WING2
 10
5.2499999999999956
 20
1.5
 30
1.4900000000000011
 11
5.0199999999999987
 21
1.3700000000000001
 31
1.4900000000000011
 12
5.0199999999999987
 22
2.3900000000000001
 32
1.4900000000000011
 13
5.2499999999999956
 23
2.3100000000000001
 33
1.4900000000000011
  0
3DFACE
  5
965
  8
WING2
 10
5.2499999999999956
 20
1.3799999999999999
 30
1.3800000000000019
 11
5.0199999999999987
 21
1.2199999999999991
 31
1.3800000000000019
 12
5.0199999999999987
 22
1.3700000000000001
 32
1.4900000000000011
 13
5.2499999999999956
 23
1.5
 33
1.4900000000000011
  0
3DFACE
  5
966
  8
WING2
 10
5.5100000000000007
 20
2.089999999999999
 30
1.350000000000001
 11
5.5100000000000007
 21
1.8300000000000001
 31
1.350000000000001
 12
5.5299999999999967
 22
1.8300000000000001
 32
1.3999999999999999
 13
5.5299999999999967
 23
2.089999999999999
 33
1.3999999999999999
  0
3DFACE
  5
967
  8
WING2
 10
5.4400000000000013
 20
2.1800000000000002
 30
1.3200000000000001
 11
5.4400000000000013
 21
1.679999999999999
 31
1.3200000000000001
 12
5.5100000000000007
 22
1.8300000000000001
 32
1.350000000000001
 13
5.5100000000000007
 23
2.089999999999999
 33
1.350000000000001
  0
3DFACE
  5
968
  8
WING2
 10
5.5100000000000007
 20
1.8300000000000001
 30
1.350000000000001
 11
5.4400000000000013
 21
1.679999999999999
 31
1.3200000000000001
 12
5.4400000000000013
 22
1.5900000000000001
 32
1.3899999999999999
 13
5.5299999999999967
 23
1.8300000000000001
 33
1.3999999999999999
  0
3DFACE
  5
969
  8
WING2
 10
5.5299999999999967
 20
2.089999999999999
 30
1.3999999999999999
 11
5.4400000000000013
 21
2.29
 31
1.3899999999999999
 12
5.4400000000000013
 22
2.1800000000000002
 32
1.3200000000000001
 13
5.5100000000000007
 23
2.089999999999999
 33
1.350000000000001
  0
3DFACE
  5
96A
  8
WING2
 10
5.2499999999999956
 20
2.3100000000000001
 30
1.29
 11
5.2499999999999956
 21
1.5
 31
1.29
 12
5.4400000000000013
 22
1.679999999999999
 32
1.3200000000000001
 13
5.4400000000000013
 23
2.1800000000000002
 33
1.3200000000000001
  0
3DFACE
  5
96B
  8
WING2
 10
5.4400000000000013
 20
1.679999999999999
 30
1.3200000000000001
 11
5.2499999999999956
 21
1.5
 31
1.29
 12
5.2499999999999956
 22
1.3799999999999999
 32
1.3800000000000019
 13
5.4400000000000013
 23
1.5900000000000001
 33
1.3899999999999999
  0
3DFACE
  5
96C
  8
WING2
 10
5.4400000000000013
 20
2.29
 30
1.3899999999999999
 11
5.2499999999999956
 21
2.4799999999999991
 31
1.3800000000000019
 12
5.2499999999999956
 22
2.3100000000000001
 32
1.29
 13
5.4400000000000013
 23
2.1800000000000002
 33
1.3200000000000001
  0
3DFACE
  5
96D
  8
WING2
 10
5.5299999999999967
 20
2.089999999999999
 30
1.3999999999999999
 11
5.5299999999999967
 21
1.8300000000000001
 31
1.3999999999999999
 12
5.5100000000000007
 22
1.8300000000000001
 32
1.46
 13
5.5100000000000007
 23
2.089999999999999
 33
1.46
  0
3DFACE
  5
96E
  8
WING2
 10
5.5299999999999967
 20
1.8300000000000001
 30
1.3999999999999999
 11
5.4400000000000013
 21
1.5900000000000001
 31
1.3899999999999999
 12
5.4400000000000013
 22
1.679999999999999
 32
1.47
 13
5.5100000000000007
 23
1.8300000000000001
 33
1.46
  0
3DFACE
  5
96F
  8
WING2
 10
5.5100000000000007
 20
2.089999999999999
 30
1.46
 11
5.4400000000000013
 21
2.1800000000000002
 31
1.47
 12
5.4400000000000013
 22
2.29
 32
1.3899999999999999
 13
5.5299999999999967
 23
2.089999999999999
 33
1.3999999999999999
  0
3DFACE
  5
970
  8
WING2
 10
5.5100000000000007
 20
1.8300000000000001
 30
1.46
 11
5.4400000000000013
 21
1.679999999999999
 31
1.47
 12
5.4400000000000013
 22
2.1800000000000002
 32
1.47
 13
5.5100000000000007
 23
2.089999999999999
 33
1.46
  0
3DFACE
  5
971
  8
WING2
 10
5.4400000000000013
 20
1.5900000000000001
 30
1.3899999999999999
 11
5.2499999999999956
 21
1.3799999999999999
 31
1.3800000000000019
 12
5.2499999999999956
 22
1.5
 32
1.4900000000000011
 13
5.4400000000000013
 23
1.679999999999999
 33
1.47
  0
3DFACE
  5
972
  8
WING2
 10
5.4400000000000013
 20
1.679999999999999
 30
1.47
 11
5.2499999999999956
 21
1.5
 31
1.4900000000000011
 12
5.2499999999999956
 22
2.3100000000000001
 32
1.4900000000000011
 13
5.4400000000000013
 23
2.1800000000000002
 33
1.47
  0
3DFACE
  5
973
  8
WING2
 10
5.4400000000000013
 20
2.1800000000000002
 30
1.47
 11
5.2499999999999956
 21
2.3100000000000001
 31
1.4900000000000011
 12
5.2499999999999956
 22
2.4799999999999991
 32
1.3800000000000019
 13
5.4400000000000013
 23
2.29
 33
1.3899999999999999
  0
3DFACE
  5
974
  8
WING2
 10
1.19778174593052
 20
2.9399999999999991
 30
1.29278174593052
 11
1.23
 21
2.9399999999999991
 31
1.214999999999999
 12
1.23
 22
2.7200000000000002
 32
1.214999999999999
 13
1.19778174593052
 23
2.7200000000000002
 33
1.29278174593052
  0
3DFACE
  5
975
  8
WING2
 10
1.1200000000000001
 20
2.9399999999999991
 30
1.3249999999999991
 11
1.19778174593052
 21
2.9399999999999991
 31
1.29278174593052
 12
1.19778174593052
 22
2.7200000000000002
 32
1.29278174593052
 13
1.1200000000000001
 23
2.7200000000000002
 33
1.3249999999999991
  0
3DFACE
  5
976
  8
WING2
 10
1.042218254069478
 20
2.9399999999999991
 30
1.29278174593052
 11
1.1200000000000001
 21
2.9399999999999991
 31
1.3249999999999991
 12
1.1200000000000001
 22
2.7200000000000002
 32
1.3249999999999991
 13
1.042218254069478
 23
2.7200000000000002
 33
1.29278174593052
  0
3DFACE
  5
977
  8
WING2
 10
1.1200000000000001
 20
3.0499999999999989
 30
1.214999999999999
 11
1.081109127034739
 21
3.0352627944162882
 31
1.2538908729652589
 12
1.0650000000000011
 22
3.0352627944162882
 32
1.214999999999999
 13
1.1200000000000001
 23
3.0499999999999989
 33
1.214999999999999
  0
3DFACE
  5
978
  8
WING2
 10
1.1200000000000001
 20
2.9950000000000001
 30
1.3102627944162879
 11
1.1200000000000001
 21
2.9399999999999991
 31
1.3249999999999991
 12
1.042218254069478
 22
2.9399999999999991
 32
1.2927817459305191
 13
1.0526390320734611
 23
2.9950000000000001
 33
1.2823609679265371
  0
3DFACE
  5
979
  8
WING2
 10
1.1200000000000001
 20
3.0352627944162882
 30
1.27
 11
1.1200000000000001
 21
2.9950000000000001
 31
1.3102627944162879
 12
1.0526390320734611
 22
2.9950000000000001
 32
1.2823609679265371
 13
1.081109127034739
 23
3.0352627944162882
 33
1.2538908729652589
  0
3DFACE
  5
97A
  8
WING2
 10
1.1200000000000001
 20
3.0499999999999989
 30
1.214999999999999
 11
1.1200000000000001
 21
3.0352627944162882
 31
1.27
 12
1.081109127034739
 22
3.0352627944162882
 32
1.2538908729652589
 13
1.1200000000000001
 23
3.0499999999999989
 33
1.214999999999999
  0
3DFACE
  5
97B
  8
WING2
 10
1.1873609679265369
 20
2.9950000000000001
 30
1.2823609679265371
 11
1.19778174593052
 21
2.9399999999999991
 31
1.2927817459305191
 12
1.1200000000000001
 22
2.9399999999999991
 32
1.3249999999999991
 13
1.1200000000000001
 23
2.9950000000000001
 33
1.3102627944162879
  0
3DFACE
  5
97C
  8
WING2
 10
1.1588908729652581
 20
3.0352627944162882
 30
1.2538908729652589
 11
1.1873609679265369
 21
2.9950000000000001
 31
1.2823609679265371
 12
1.1200000000000001
 22
2.9950000000000001
 32
1.3102627944162879
 13
1.1200000000000001
 23
3.0352627944162882
 33
1.27
  0
3DFACE
  5
97D
  8
WING2
 10
1.1200000000000001
 20
3.0499999999999989
 30
1.214999999999999
 11
1.1588908729652581
 21
3.0352627944162882
 31
1.2538908729652589
 12
1.1200000000000001
 22
3.0352627944162882
 32
1.27
 13
1.1200000000000001
 23
3.0499999999999989
 33
1.214999999999999
  0
3DFACE
  5
97E
  8
WING2
 10
1.2152627944162859
 20
2.9950000000000001
 30
1.214999999999999
 11
1.23
 21
2.9399999999999991
 31
1.214999999999999
 12
1.19778174593052
 22
2.9399999999999991
 32
1.2927817459305191
 13
1.1873609679265369
 23
2.9950000000000001
 33
1.2823609679265371
  0
3DFACE
  5
97F
  8
WING2
 10
1.175
 20
3.0352627944162882
 30
1.214999999999999
 11
1.2152627944162859
 21
2.9950000000000001
 31
1.214999999999999
 12
1.1873609679265369
 22
2.9950000000000001
 32
1.2823609679265371
 13
1.1588908729652581
 23
3.0352627944162882
 33
1.2538908729652589
  0
3DFACE
  5
980
  8
WING2
 10
1.1200000000000001
 20
3.0499999999999989
 30
1.214999999999999
 11
1.175
 21
3.0352627944162882
 31
1.214999999999999
 12
1.1588908729652581
 22
3.0352627944162882
 32
1.2538908729652589
 13
1.1200000000000001
 23
3.0499999999999989
 33
1.214999999999999
  0
3DFACE
  5
981
  8
WING2
 10
4.6799999999999962
 20
2.4599999999999991
 30
1.2500000000000011
 11
4.6799999999999962
 21
1.2299999999999991
 31
1.2500000000000011
 12
5.0199999999999987
 22
1.3700000000000001
 32
1.2600000000000009
 13
5.0199999999999987
 23
2.3900000000000001
 33
1.2600000000000009
  0
3DFACE
  5
982
  8
WING2
 10
5.0199999999999987
 20
2.6000000000000001
 30
1.3800000000000019
 11
4.6799999999999962
 21
2.6800000000000002
 31
1.350000000000001
 12
4.6799999999999962
 22
2.4599999999999991
 32
1.2500000000000011
 13
5.0199999999999987
 23
2.3900000000000001
 33
1.2600000000000009
  0
3DFACE
  5
983
  8
WING2
 10
5.0199999999999987
 20
1.3700000000000001
 30
1.2600000000000009
 11
4.6799999999999962
 21
1.2299999999999991
 31
1.2500000000000011
 12
4.6799999999999962
 22
1.05
 32
1.350000000000001
 13
5.0199999999999987
 23
1.2199999999999991
 33
1.3800000000000019
  0
3DFACE
  5
984
  8
WING2
 10
4.3699999999999974
 20
2.5
 30
1.230000000000002
 11
4.3699999999999974
 21
1.1200000000000001
 31
1.230000000000002
 12
4.6799999999999962
 22
1.2299999999999991
 32
1.2500000000000011
 13
4.6799999999999962
 23
2.4599999999999991
 33
1.2500000000000011
  0
3DFACE
  5
985
  8
WING2
 10
4.6799999999999962
 20
2.6800000000000002
 30
1.350000000000001
 11
4.3699999999999974
 21
2.7000000000000002
 31
1.340000000000001
 12
4.3699999999999974
 22
2.5
 32
1.230000000000002
 13
4.6799999999999962
 23
2.4599999999999991
 33
1.2500000000000011
  0
3DFACE
  5
986
  8
WING2
 10
4.6799999999999962
 20
1.2299999999999991
 30
1.2500000000000011
 11
4.3699999999999974
 21
1.1200000000000001
 31
1.230000000000002
 12
4.3699999999999974
 22
0.9599999999999999
 32
1.340000000000001
 13
4.6799999999999962
 23
1.05
 33
1.350000000000001
  0
3DFACE
  5
987
  8
WING2
 10
5.0199999999999987
 20
1.2199999999999991
 30
1.3800000000000019
 11
4.6799999999999962
 21
1.05
 31
1.350000000000001
 12
4.6799999999999962
 22
1.2299999999999991
 32
1.47
 13
5.0199999999999987
 23
1.3700000000000001
 33
1.4900000000000011
  0
3DFACE
  5
988
  8
WING2
 10
5.0199999999999987
 20
2.3900000000000001
 30
1.4900000000000011
 11
4.6799999999999962
 21
2.4599999999999991
 31
1.47
 12
4.6799999999999962
 22
2.6800000000000002
 32
1.350000000000001
 13
5.0199999999999987
 23
2.6000000000000001
 33
1.3800000000000019
  0
3DFACE
  5
989
  8
WING2
 10
5.0199999999999987
 20
1.3700000000000001
 30
1.4900000000000011
 11
4.6799999999999962
 21
1.2299999999999991
 31
1.47
 12
4.6799999999999962
 22
2.4599999999999991
 32
1.47
 13
5.0199999999999987
 23
2.3900000000000001
 33
1.4900000000000011
  0
3DFACE
  5
98A
  8
WING2
 10
4.6799999999999962
 20
1.05
 30
1.350000000000001
 11
4.3699999999999974
 21
0.9599999999999999
 31
1.340000000000001
 12
4.3699999999999974
 22
1.1200000000000001
 32
1.46
 13
4.6799999999999962
 23
1.2299999999999991
 33
1.47
  0
3DFACE
  5
98B
  8
WING2
 10
4.6799999999999962
 20
1.2299999999999991
 30
1.47
 11
4.3699999999999974
 21
1.1200000000000001
 31
1.46
 12
4.3699999999999974
 22
2.5
 32
1.46
 13
4.6799999999999962
 23
2.4599999999999991
 33
1.47
  0
3DFACE
  5
98C
  8
WING2
 10
4.6799999999999962
 20
2.4599999999999991
 30
1.47
 11
4.3699999999999974
 21
2.5
 31
1.46
 12
4.3699999999999974
 22
2.7000000000000002
 32
1.340000000000001
 13
4.6799999999999962
 23
2.6800000000000002
 33
1.350000000000001
  0
3DFACE
  5
98D
  8
WING2
 10
4.3699999999999974
 20
2.5
 30
1.46
 11
3.8999999999999981
 21
2.5299999999999998
 31
1.4400000000000011
 12
3.8999999999999981
 22
2.7200000000000002
 32
1.3200000000000001
 13
4.3699999999999974
 23
2.7000000000000002
 33
1.340000000000001
  0
3DFACE
  5
98E
  8
WING2
 10
4.3699999999999974
 20
0.9599999999999999
 30
1.340000000000001
 11
3.8999999999999981
 21
0.9
 31
1.3200000000000001
 12
3.8999999999999981
 22
1.0800000000000001
 32
1.4400000000000011
 13
4.3699999999999974
 23
1.1200000000000001
 33
1.46
  0
3DFACE
  5
98F
  8
WING2
 10
4.3699999999999974
 20
1.1200000000000001
 30
1.46
 11
3.8999999999999981
 21
1.0800000000000001
 31
1.4400000000000011
 12
3.8999999999999981
 22
2.5299999999999998
 32
1.4400000000000011
 13
4.3699999999999974
 23
2.5
 33
1.46
  0
3DFACE
  5
990
  8
WING2
 10
3.8999999999999981
 20
2.5299999999999998
 30
1.4400000000000011
 11
3.2600000000000011
 21
2.5600000000000001
 31
1.420000000000001
 12
3.2600000000000011
 22
2.75
 32
1.3
 13
3.8999999999999981
 23
2.7200000000000002
 33
1.3200000000000001
  0
3DFACE
  5
991
  8
WING2
 10
3.8999999999999981
 20
1.0800000000000001
 30
1.4400000000000011
 11
3.2600000000000011
 21
1.05
 31
1.420000000000001
 12
3.2600000000000011
 22
2.5600000000000001
 32
1.420000000000001
 13
3.8999999999999981
 23
2.5299999999999998
 33
1.4400000000000011
  0
3DFACE
  5
992
  8
WING2
 10
3.8999999999999981
 20
0.9
 30
1.3200000000000001
 11
3.2600000000000011
 21
0.9
 31
1.3
 12
3.2600000000000011
 22
1.05
 32
1.420000000000001
 13
3.8999999999999981
 23
1.0800000000000001
 33
1.4400000000000011
  0
3DFACE
  5
993
  8
WING2
 10
0.9800000000000004
 20
1.0900000000000001
 30
1.3200000000000001
 11
0.8299999999999982
 21
1.1299999999999999
 31
1.3200000000000001
 12
0.8299999999999982
 22
2.7200000000000002
 32
1.3200000000000001
 13
0.9800000000000004
 23
2.7200000000000002
 33
1.3200000000000001
  0
3DFACE
  5
994
  8
WING2
 10
0.8299999999999982
 20
1.1299999999999999
 30
1.3200000000000001
 11
0.7699999999999996
 21
1.1899999999999991
 31
1.3200000000000001
 12
0.7699999999999996
 22
2.7200000000000002
 32
1.3200000000000001
 13
0.8299999999999982
 23
2.7200000000000002
 33
1.3200000000000001
  0
3DFACE
  5
995
  8
WING2
 10
0.7699999999999996
 20
1.1899999999999991
 30
1.3200000000000001
 11
0.5799999999999983
 21
1.3400000000000001
 31
1.3200000000000001
 12
0.5799999999999983
 22
2.7200000000000002
 32
1.3200000000000001
 13
0.7699999999999996
 23
2.7200000000000002
 33
1.3200000000000001
  0
3DFACE
  5
996
  8
WING2
 10
0.5799999999999983
 20
1.3400000000000001
 30
1.3200000000000001
 11
0.2999999999999971
 21
1.4699999999999991
 31
1.3200000000000001
 12
0.2999999999999971
 22
2.7200000000000002
 32
1.3200000000000001
 13
0.5799999999999983
 23
2.7200000000000002
 33
1.3200000000000001
  0
3DFACE
  5
997
  8
WING2
 10
0.2999999999999971
 20
1.4699999999999991
 30
1.3200000000000001
 11
0.1499999999999986
 21
1.5099999999999989
 31
1.3200000000000001
 12
0.1499999999999986
 22
2.7200000000000002
 32
1.3200000000000001
 13
0.2999999999999971
 23
2.7200000000000002
 33
1.3200000000000001
  0
3DFACE
  5
998
  8
WING2
 10
0.1499999999999986
 20
1.5099999999999989
 30
1.3200000000000001
 11
0.0
 21
1.5099999999999989
 31
1.3200000000000001
 12
0.0
 22
2.7200000000000002
 32
1.3200000000000001
 13
0.1499999999999986
 23
2.7200000000000002
 33
1.3200000000000001
  0
VIEWPORT
  5
2E
 67
     1
  8
0
 10
144.7270812988281
 20
101.2295806407928
 30
0.0
 40
391.13550988316581
 41
222.15178063964839
 68
     2
 69
     1
1001
ACAD
1000
MVIEW
1002
{
1070
    16
1010
0.0
1020
0.0
1030
0.0
1010
0.0
1020
0.0
1030
1.0
1040
0.0
1040
222.15178063964839
1040
144.7270812988281
1040
101.2295806407928
1040
50.0
1040
0.0
1040
0.0
1070
     0
1070
   100
1070
     1
1070
     1
1070
     0
1070
     0
1070
     0
1070
     0
1040
0.0
1040
0.0
1040
0.0
1040
10.0
1040
10.0
1040
10.0
1040
10.0
1070
     0
1002
{
1002
}
1002
}
  0
VIEWPORT
  5
30
 67
     1
  8
0
 10
139.22375631332389
 20
100.8062499761581
 30
0.0
 40
222.75801010131829
 41
161.289999961853
 68
     1
 69
     2
1001
ACAD
1000
MVIEW
1002
{
1070
    16
1010
0.0
1020
0.0
1030
0.0
1010
0.0
1020
0.0
1030
1.0
1040
0.0
1040
307.49010134148989
1040
210.0
1040
148.5
1040
50.0
1040
0.0
1040
0.0
1070
     0
1070
   100
1070
     1
1070
     3
1070
     0
1070
     1
1070
     0
1070
     0
1040
0.0
1040
0.0
1040
0.0
1040
10.0
1040
10.0
1040
10.0
1040
10.0
1070
     0
1002
{
1002
}
1002
}
  0
ENDSEC
  0
EOF
