  0
SECTION
  2
HEADER
  9
$ACADVER
  1
AC1009
  9
$INSBASE
 10
0.0
 20
0.0
 30
0.0
  9
$EXTMIN
 10
-0.915
 20
-9.8661193024688174
 30
-3.4599999999999991
  9
$EXTMAX
 10
1.0
 20
3.5
 30
6.3643653747940014
  9
$LIMMIN
 10
0.0
 20
0.0
  9
$LIMMAX
 10
420.0
 20
297.0
  9
$ORTHOMODE
 70
     1
  9
$REGENMODE
 70
     1
  9
$FILLMODE
 70
     1
  9
$QTEXTMODE
 70
     0
  9
$MIRRTEXT
 70
     1
  9
$DRAGMODE
 70
     2
  9
$LTSCALE
 40
1.0
  9
$OSMODE
 70
    35
  9
$ATTMODE
 70
     1
  9
$TEXTSIZE
 40
2.5
  9
$TRACEWID
 40
1.0
  9
$TEXTSTYLE
  7
STANDARD
  9
$CLAYER
  8
INTERNALS
  9
$CELTYPE
  6
BYLAYER
  9
$CECOLOR
 62
   256
  9
$DIMSCALE
 40
1.0
  9
$DIMASZ
 40
2.5
  9
$DIMEXO
 40
0.625
  9
$DIMDLI
 40
3.75
  9
$DIMRND
 40
0.0
  9
$DIMDLE
 40
0.0
  9
$DIMEXE
 40
1.25
  9
$DIMTP
 40
0.0
  9
$DIMTM
 40
0.0
  9
$DIMTXT
 40
2.5
  9
$DIMCEN
 40
2.5
  9
$DIMTSZ
 40
0.0
  9
$DIMTOL
 70
     0
  9
$DIMLIM
 70
     0
  9
$DIMTIH
 70
     0
  9
$DIMTOH
 70
     0
  9
$DIMSE1
 70
     0
  9
$DIMSE2
 70
     0
  9
$DIMTAD
 70
     1
  9
$DIMZIN
 70
     8
  9
$DIMBLK
  1

  9
$DIMASO
 70
     1
  9
$DIMSHO
 70
     1
  9
$DIMPOST
  1

  9
$DIMAPOST
  1

  9
$DIMALT
 70
     0
  9
$DIMALTD
 70
     3
  9
$DIMALTF
 40
0.03937007874016
  9
$DIMLFAC
 40
1.0
  9
$DIMTOFL
 70
     1
  9
$DIMTVP
 40
0.0
  9
$DIMTIX
 70
     0
  9
$DIMSOXD
 70
     0
  9
$DIMSAH
 70
     0
  9
$DIMBLK1
  1

  9
$DIMBLK2
  1

  9
$DIMSTYLE
  2
ISO-25
  9
$DIMCLRD
 70
     0
  9
$DIMCLRE
 70
     0
  9
$DIMCLRT
 70
     0
  9
$DIMTFAC
 40
1.0
  9
$DIMGAP
 40
0.625
  9
$LUNITS
 70
     2
  9
$LUPREC
 70
     4
  9
$SKETCHINC
 40
1.0
  9
$FILLETRAD
 40
10.0
  9
$AUNITS
 70
     0
  9
$AUPREC
 70
     0
  9
$MENU
  1
.
  9
$ELEVATION
 40
0.0
  9
$PELEVATION
 40
0.0
  9
$THICKNESS
 40
0.0
  9
$LIMCHECK
 70
     0
  9
$BLIPMODE
 70
     0
  9
$CHAMFERA
 40
10.0
  9
$CHAMFERB
 40
10.0
  9
$SKPOLY
 70
     0
  9
$TDCREATE
 40
2458436.4984401041
  9
$TDUPDATE
 40
2458464.50885941
  9
$TDINDWG
 40
1.5042616551000001
  9
$TDUSRTIMER
 40
1.5042616435
  9
$USRTIMER
 70
     1
  9
$ANGBASE
 50
0.0
  9
$ANGDIR
 70
     0
  9
$PDMODE
 70
     0
  9
$PDSIZE
 40
0.0
  9
$PLINEWID
 40
0.0
  9
$COORDS
 70
     1
  9
$SPLFRAME
 70
     0
  9
$SPLINETYPE
 70
     6
  9
$SPLINESEGS
 70
     8
  9
$ATTDIA
 70
     1
  9
$ATTREQ
 70
     1
  9
$HANDLING
 70
-16383
  9
$HANDSEED
  5
B42
  9
$SURFTAB1
 70
     6
  9
$SURFTAB2
 70
     6
  9
$SURFTYPE
 70
     6
  9
$SURFU
 70
     6
  9
$SURFV
 70
     6
  9
$UCSNAME
  2

  9
$UCSORG
 10
0.0
 20
0.0
 30
0.0
  9
$UCSXDIR
 10
0.0
 20
-1.0
 30
0.0
  9
$UCSYDIR
 10
0.0
 20
0.0
 30
1.0
  9
$PUCSNAME
  2

  9
$PUCSORG
 10
0.0
 20
0.0
 30
0.0
  9
$PUCSXDIR
 10
1.0
 20
0.0
 30
0.0
  9
$PUCSYDIR
 10
0.0
 20
1.0
 30
0.0
  9
$USERI1
 70
     0
  9
$USERI2
 70
     0
  9
$USERI3
 70
     0
  9
$USERI4
 70
     0
  9
$USERI5
 70
     0
  9
$USERR1
 40
0.0
  9
$USERR2
 40
0.0
  9
$USERR3
 40
0.0
  9
$USERR4
 40
0.0
  9
$USERR5
 40
0.0
  9
$WORLDVIEW
 70
     1
  9
$SHADEDGE
 70
     3
  9
$SHADEDIF
 70
    70
  9
$TILEMODE
 70
     1
  9
$MAXACTVP
 70
    64
  9
$PLIMCHECK
 70
     0
  9
$PEXTMIN
 10
27.844751262664801
 20
20.161249995231621
 30
0.0
  9
$PEXTMAX
 10
250.60276136398309
 20
181.4512499570846
 30
0.0
  9
$PLIMMIN
 10
-3.757080078125
 20
-3.7570831775665279
  9
$PLIMMAX
 10
293.21124267578119
 20
206.21624445915219
  9
$UNITMODE
 70
     0
  9
$VISRETAIN
 70
     1
  9
$PLINEGEN
 70
     0
  9
$PSLTSCALE
 70
     1
  0
ENDSEC
  0
SECTION
  2
TABLES
  0
TABLE
  2
VPORT
 70
    12
  0
VPORT
  2
*ACTIVE
 70
     0
 10
0.0
 20
0.0
 11
1.0
 21
1.0
 12
-0.107547334718074
 22
1.5059264616092769
 13
0.0
 23
0.0
 14
0.01
 24
0.01
 15
1.0
 25
1.0
 16
-1.0
 26
0.0
 36
0.0
 17
0.0
 27
0.0
 37
0.0
 40
19.38340072703625
 41
2.1655092592592591
 42
50.0
 43
0.0
 44
0.0
 50
0.0
 51
0.0
 71
     0
 72
   100
 73
     1
 74
     3
 75
     1
 76
     1
 77
     0
 78
     0
  0
ENDTAB
  0
TABLE
  2
LTYPE
 70
     1
  0
LTYPE
  2
CONTINUOUS
 70
     0
  3
Solid line
 72
    65
 73
     0
 40
0.0
  0
ENDTAB
  0
TABLE
  2
LAYER
 70
     7
  0
LAYER
  2
0
 70
     0
 62
     7
  6
CONTINUOUS
  0
LAYER
  2
_REF
 70
     0
 62
     9
  6
CONTINUOUS
  0
LAYER
  2
WHEELS
 70
     0
 62
     2
  6
CONTINUOUS
  0
LAYER
  2
TMP
 70
     0
 62
     4
  6
CONTINUOUS
  0
LAYER
  2
HULL
 70
     0
 62
     3
  6
CONTINUOUS
  0
LAYER
  2
INTERNALS
 70
     0
 62
     1
  6
CONTINUOUS
  0
LAYER
  2
TENT
 70
     0
 62
     3
  6
CONTINUOUS
  0
ENDTAB
  0
TABLE
  2
STYLE
 70
     1
  0
STYLE
  2
STANDARD
 70
     0
 40
0.0
 41
1.0
 50
0.0
 71
     0
 42
2.5
  3
txt
  4

  0
ENDTAB
  0
TABLE
  2
VIEW
 70
     0
  0
ENDTAB
  0
TABLE
  2
UCS
 70
     0
  0
ENDTAB
  0
TABLE
  2
APPID
 70
     1
  0
APPID
  2
ACAD
 70
     0
  0
ENDTAB
  0
TABLE
  2
DIMSTYLE
 70
     1
  0
DIMSTYLE
  2
ISO-25
 70
     0
  3

  4

  5

  6

  7

 40
1.0
 41
2.5
 42
0.625
 43
3.75
 44
1.25
 45
0.0
 46
0.0
 47
0.0
 48
0.0
140
2.5
141
2.5
142
0.0
143
0.03937007874016
144
1.0
145
0.0
146
1.0
147
0.625
 71
     0
 72
     0
 73
     0
 74
     0
 75
     0
 76
     0
 77
     1
 78
     8
170
     0
171
     3
172
     1
173
     0
174
     0
175
     0
176
     0
177
     0
178
     0
  0
ENDTAB
  0
ENDSEC
  0
SECTION
  2
BLOCKS
  0
BLOCK
  8
0
  2
$MODEL_SPACE
 70
     0
 10
0.0
 20
0.0
 30
0.0
  3
$MODEL_SPACE
  1

  0
ENDBLK
  5
21
  8
0
  0
BLOCK
 67
     1
  8
0
  2
$PAPER_SPACE
 70
     0
 10
0.0
 20
0.0
 30
0.0
  3
$PAPER_SPACE
  1

  0
ENDBLK
  5
1D
 67
     1
  8
0
  0
ENDSEC
  0
SECTION
  2
ENTITIES
  0
3DFACE
  5
9A
  8
INTERNALS
 10
-0.5600000000000001
 20
-0.39
 30
0.4800000000000003
 11
-0.6
 21
-0.9300000000000001
 31
0.48
 12
0.6
 22
-0.9300000000000001
 32
0.48
 13
0.5600000000000001
 23
-0.39
 33
0.4800000000000003
  0
3DFACE
  5
7BE
  8
INTERNALS
 10
0.5600000000000001
 20
0.7700000000000001
 30
0.7700000000000004
 11
0.5600000000000001
 21
1.109999999999999
 31
1.1699999999999999
 12
-0.5600000000000001
 22
1.109999999999999
 32
1.1699999999999999
 13
-0.5600000000000001
 23
0.7700000000000001
 33
0.7700000000000004
  0
3DFACE
  5
7BF
  8
INTERNALS
 10
0.5600000000000001
 20
1.109999999999999
 30
1.1699999999999999
 11
0.5600000000000001
 21
1.1399999999999999
 31
1.1699999999999999
 12
-0.5600000000000001
 22
1.1399999999999999
 32
1.1699999999999999
 13
-0.5600000000000001
 23
1.109999999999999
 33
1.1699999999999999
  0
3DFACE
  5
7C1
  8
INTERNALS
 10
0.5600000000000001
 20
0.4900000000000002
 30
0.7700000000000004
 11
0.5600000000000001
 21
0.7700000000000001
 31
0.7700000000000004
 12
-0.5600000000000001
 22
0.7700000000000001
 32
0.7700000000000004
 13
-0.5600000000000001
 23
0.4900000000000002
 33
0.7700000000000004
  0
3DFACE
  5
7C2
  8
INTERNALS
 10
0.5600000000000001
 20
0.4900000000000002
 30
0.4800000000000003
 11
0.5600000000000001
 21
0.4900000000000002
 31
0.7700000000000004
 12
-0.5600000000000001
 22
0.4900000000000002
 32
0.7700000000000004
 13
-0.5600000000000001
 23
0.4900000000000002
 33
0.4800000000000003
  0
3DFACE
  5
7C3
  8
INTERNALS
 10
0.5600000000000001
 20
1.1399999999999999
 30
1.1699999999999999
 11
0.5600000000000001
 21
0.9699999999999999
 31
0.4800000000000003
 12
-0.5600000000000001
 22
0.9699999999999999
 32
0.4800000000000003
 13
-0.5600000000000001
 23
1.1399999999999999
 33
1.1699999999999999
  0
3DFACE
  5
7C4
  8
INTERNALS
 10
0.5600000000000001
 20
1.109999999999999
 30
1.1699999999999999
 11
0.5600000000000001
 21
0.7700000000000001
 31
0.7700000000000004
 12
0.5600000000000001
 22
0.9699999999999999
 32
0.4800000000000003
 13
0.5600000000000001
 23
1.1399999999999999
 33
1.1699999999999999
  0
3DFACE
  5
7C5
  8
INTERNALS
 10
-0.5600000000000001
 20
1.1399999999999999
 30
1.1699999999999999
 11
-0.5600000000000001
 21
0.9699999999999998
 31
0.4800000000000003
 12
-0.5600000000000001
 22
0.7700000000000001
 32
0.7700000000000004
 13
-0.5600000000000001
 23
1.109999999999999
 33
1.1699999999999999
  0
3DFACE
  5
7C6
  8
INTERNALS
 10
0.5600000000000001
 20
0.9699999999999999
 30
0.4800000000000003
 11
0.5600000000000001
 21
0.7700000000000001
 31
0.7700000000000004
 12
0.5600000000000001
 22
0.4900000000000002
 32
0.7700000000000004
 13
0.5600000000000001
 23
0.4900000000000002
 33
0.4800000000000003
  0
3DFACE
  5
7C7
  8
INTERNALS
 10
-0.5600000000000001
 20
0.4900000000000002
 30
0.4800000000000003
 11
-0.5600000000000001
 21
0.4900000000000002
 31
0.7700000000000004
 12
-0.5600000000000001
 22
0.7700000000000001
 32
0.7700000000000004
 13
-0.5600000000000001
 23
0.9699999999999999
 33
0.4800000000000003
  0
3DFACE
  5
7C8
  8
INTERNALS
 10
0.5600000000000001
 20
-0.3899999999999999
 30
0.4800000000000003
 11
0.5600000000000001
 21
-0.3899999999999999
 31
0.7700000000000004
 12
-0.5600000000000001
 22
-0.3899999999999999
 32
0.7700000000000004
 13
-0.5600000000000001
 23
-0.3899999999999999
 33
0.4800000000000003
  0
3DFACE
  5
7C9
  8
INTERNALS
 10
0.5600000000000001
 20
-0.3899999999999999
 30
0.7700000000000004
 11
0.5600000000000001
 21
-0.1099999999999999
 31
0.7700000000000004
 12
-0.5600000000000001
 22
-0.1099999999999999
 32
0.7700000000000004
 13
-0.5600000000000001
 23
-0.3899999999999999
 33
0.7700000000000004
  0
3DFACE
  5
7CA
  8
INTERNALS
 10
0.5600000000000001
 20
0.2600000000000001
 30
1.1699999999999999
 11
0.5600000000000001
 21
0.0899999999999999
 31
0.4800000000000003
 12
-0.5600000000000001
 22
0.0899999999999999
 32
0.4800000000000003
 13
-0.5600000000000001
 23
0.2600000000000001
 33
1.1699999999999999
  0
3DFACE
  5
7CB
  8
INTERNALS
 10
0.5600000000000001
 20
-0.1099999999999999
 30
0.7700000000000004
 11
0.5600000000000001
 21
0.2299999999999999
 31
1.1699999999999999
 12
-0.5600000000000001
 22
0.2299999999999999
 32
1.1699999999999999
 13
-0.5600000000000001
 23
-0.1099999999999999
 33
0.7700000000000004
  0
3DFACE
  5
7CC
  8
INTERNALS
 10
0.5600000000000001
 20
0.2299999999999999
 30
1.1699999999999999
 11
0.5600000000000001
 21
0.2600000000000001
 31
1.1699999999999999
 12
-0.5600000000000001
 22
0.2600000000000001
 32
1.1699999999999999
 13
-0.5600000000000001
 23
0.2299999999999999
 33
1.1699999999999999
  0
3DFACE
  5
7CD
  8
INTERNALS
 10
0.5600000000000001
 20
0.0899999999999999
 30
0.4800000000000003
 11
0.5600000000000001
 21
-0.1099999999999999
 31
0.7700000000000004
 12
0.5600000000000001
 22
-0.3899999999999999
 32
0.7700000000000004
 13
0.5600000000000001
 23
-0.3899999999999999
 33
0.4800000000000003
  0
3DFACE
  5
7CE
  8
INTERNALS
 10
0.5600000000000001
 20
0.2299999999999999
 30
1.1699999999999999
 11
0.5600000000000001
 21
-0.1099999999999999
 31
0.7700000000000004
 12
0.5600000000000001
 22
0.0899999999999999
 32
0.4800000000000003
 13
0.5600000000000001
 23
0.2600000000000001
 33
1.1699999999999999
  0
3DFACE
  5
7CF
  8
INTERNALS
 10
-0.5600000000000001
 20
-0.3899999999999999
 30
0.4800000000000003
 11
-0.5600000000000001
 21
-0.3899999999999999
 31
0.7700000000000004
 12
-0.5600000000000001
 22
-0.1099999999999999
 32
0.7700000000000004
 13
-0.5600000000000001
 23
0.0899999999999999
 33
0.4800000000000003
  0
3DFACE
  5
7D0
  8
INTERNALS
 10
-0.5600000000000001
 20
0.2600000000000001
 30
1.1699999999999999
 11
-0.5600000000000001
 21
0.0899999999999998
 31
0.4800000000000003
 12
-0.5600000000000001
 22
-0.1099999999999999
 32
0.7700000000000004
 13
-0.5600000000000001
 23
0.2299999999999999
 33
1.1699999999999999
  0
3DFACE
  5
7F8
  8
INTERNALS
 10
0.5600000000000001
 20
0.0899999999999999
 30
0.4800000000000002
 11
0.5600000000000001
 21
0.4900000000000002
 31
0.4800000000000003
 12
-0.5600000000000001
 22
0.4900000000000002
 32
0.4800000000000003
 13
-0.5600000000000001
 23
0.0899999999999999
 33
0.4800000000000003
  0
3DFACE
  5
7F9
  8
INTERNALS
 10
-0.5600000000000001
 20
0.0899999999999999
 30
0.4800000000000002
 11
-0.5600000000000001
 21
0.4900000000000002
 31
0.4800000000000003
 12
-0.6000000000000001
 22
0.98
 32
0.48
 13
-0.6000000000000001
 23
-0.9300000000000001
 33
0.48
  0
3DFACE
  5
7FA
  8
INTERNALS
 10
-0.6
 20
-0.9300000000000001
 30
0.48
 11
-0.5600000000000001
 21
-0.39
 31
0.4800000000000003
 12
-0.5600000000000001
 22
0.0899999999999999
 32
0.4800000000000002
 13
-0.6
 23
-0.9300000000000001
 33
0.48
  0
3DFACE
  5
7FB
  8
INTERNALS
 10
-0.6
 20
0.98
 30
0.48
 11
-0.5600000000000001
 21
0.4900000000000002
 31
0.4800000000000003
 12
-0.5600000000000001
 22
0.9699999999999998
 32
0.4800000000000003
 13
-0.6
 23
0.98
 33
0.48
  0
3DFACE
  5
7FC
  8
INTERNALS
 10
0.5600000000000001
 20
0.9699999999999998
 30
0.4800000000000003
 11
0.6
 21
0.98
 31
0.48
 12
-0.6
 22
0.98
 32
0.48
 13
-0.5600000000000001
 23
0.9699999999999998
 33
0.4800000000000003
  0
3DFACE
  5
7FD
  8
INTERNALS
 10
0.5600000000000001
 20
-0.39
 30
0.4800000000000003
 11
0.6
 21
-0.9300000000000001
 31
0.48
 12
0.6000000000000001
 22
-0.9300000000000001
 32
0.48
 13
0.5600000000000001
 23
0.0899999999999999
 33
0.4800000000000003
  0
3DFACE
  5
7FE
  8
INTERNALS
 10
0.6000000000000001
 20
-0.9300000000000001
 30
0.48
 11
0.6000000000000001
 21
0.98
 31
0.48
 12
0.5600000000000001
 22
0.4900000000000002
 32
0.4800000000000003
 13
0.5600000000000001
 23
0.0899999999999999
 33
0.4800000000000003
  0
3DFACE
  5
7FF
  8
INTERNALS
 10
0.6
 20
0.98
 30
0.48
 11
0.5600000000000001
 21
0.9699999999999999
 31
0.4800000000000002
 12
0.5600000000000001
 22
0.4900000000000002
 32
0.4800000000000003
 13
0.6
 23
0.98
 33
0.48
  0
3DFACE
  5
801
  8
INTERNALS
 10
-0.6
 20
-0.9300000000000001
 30
0.48
 11
-0.6000000000000001
 21
-0.8999999999999996
 31
1.1100000000000001
 12
0.6000000000000001
 22
-0.8999999999999996
 32
1.1100000000000001
 13
0.6
 23
-0.9300000000000001
 33
0.48
  0
3DFACE
  5
802
  8
INTERNALS
 10
0.6000000000000002
 20
-0.9300000000000001
 30
0.48
 11
0.6000000000000001
 21
-0.8999999999999996
 31
1.1100000000000001
 12
0.6000000000000001
 22
-0.6799999999999999
 32
1.1100000000000001
 13
0.6000000000000001
 23
-0.6799999999999999
 33
0.7400000000000001
  0
3DFACE
  5
803
  8
INTERNALS
 10
0.6000000000000002
 20
-0.9300000000000032
 30
0.48
 11
0.6
 21
-0.6799999999999999
 31
0.7400000000000001
 12
0.6
 22
-0.6399999999999999
 32
0.7000000000000001
 13
0.6000000000000002
 23
-0.9300000000000032
 33
0.48
  0
3DFACE
  5
804
  8
INTERNALS
 10
-0.6000000000000001
 20
-0.6799999999999999
 30
0.7400000000000001
 11
-0.6
 21
-0.6799999999999999
 31
1.1100000000000001
 12
-0.6000000000000001
 22
-0.8999999999999996
 32
1.1100000000000001
 13
-0.6000000000000002
 23
-0.9300000000000001
 33
0.48
  0
3DFACE
  5
805
  8
INTERNALS
 10
-0.6000000000000002
 20
-0.9300000000000034
 30
0.48
 11
-0.6
 21
-0.6399999999999999
 31
0.7000000000000001
 12
-0.6
 22
-0.6799999999999999
 32
0.7400000000000001
 13
-0.6000000000000002
 23
-0.9300000000000034
 33
0.48
  0
3DFACE
  5
806
  8
INTERNALS
 10
0.6000000000000002
 20
-0.9299999999999917
 30
0.4800000000000088
 11
0.6
 21
-0.6399999999999999
 31
0.7000000000000001
 12
0.6
 22
-0.3300000000000001
 32
0.7000000000000001
 13
0.6000000000000002
 23
-0.9299999999999618
 33
0.48
  0
3DFACE
  5
807
  8
INTERNALS
 10
-0.6000000000000002
 20
-0.9300000000000034
 30
0.48
 11
-0.6
 21
-0.3300000000000001
 31
0.7000000000000001
 12
-0.6
 22
-0.6399999999999999
 32
0.7000000000000001
 13
-0.6000000000000002
 23
-0.9300000000000034
 33
0.48
  0
3DFACE
  5
808
  8
INTERNALS
 10
0.6000000000000001
 20
0.98
 30
0.48
 11
0.6
 21
1.1200000000000001
 31
1.0800000000000001
 12
-0.6
 22
1.1200000000000001
 32
1.0800000000000001
 13
-0.6
 23
0.98
 33
0.4800000000000001
  0
3DFACE
  5
809
  8
INTERNALS
 10
0.6000000000000001
 20
0.88
 30
0.7400000000000001
 11
0.6000000000000001
 21
0.88
 31
1.0800000000000001
 12
0.6
 22
1.1200000000000001
 32
1.0800000000000001
 13
0.6
 23
0.98
 33
0.48
  0
3DFACE
  5
80A
  8
INTERNALS
 10
-0.5999999999999999
 20
0.98
 30
0.48
 11
-0.6
 21
1.1200000000000001
 31
1.0800000000000001
 12
-0.6000000000000001
 22
0.88
 32
1.0800000000000001
 13
-0.6000000000000001
 23
0.88
 33
0.7400000000000001
  0
3DFACE
  5
80C
  8
INTERNALS
 10
-0.5999999999999999
 20
0.98
 30
0.48
 11
-0.6
 21
0.88
 31
0.7400000000000001
 12
-0.6000000000000001
 22
0.84
 32
0.7000000000000001
 13
-0.6000000000000001
 23
0.98
 33
0.48
  0
3DFACE
  5
80D
  8
INTERNALS
 10
0.6000000000000001
 20
0.98
 30
0.48
 11
0.6000000000000001
 21
0.84
 31
0.7000000000000001
 12
0.6
 22
0.88
 32
0.7400000000000001
 13
0.6
 23
0.98
 33
0.48
  0
3DFACE
  5
80E
  8
INTERNALS
 10
0.6000000000000001
 20
0.98
 30
0.48
 11
0.6000000000000001
 21
0.4700000000000001
 31
0.7000000000000001
 12
0.6
 22
0.84
 32
0.7000000000000001
 13
0.6000000000000001
 23
0.98
 33
0.48
  0
3DFACE
  5
80F
  8
INTERNALS
 10
-0.5999999999999999
 20
0.98
 30
0.48
 11
-0.6
 21
0.84
 31
0.7000000000000001
 12
-0.6000000000000001
 22
0.4700000000000001
 32
0.7000000000000001
 13
-0.5999999999999999
 23
0.98
 33
0.48
  0
3DFACE
  5
810
  8
INTERNALS
 10
-0.6000000000000001
 20
0.98
 30
0.48
 11
-0.6
 21
0.4700000000000002
 31
0.7000000000000001
 12
-0.6000000000000001
 22
-0.3300000000000001
 32
0.7000000000000001
 13
-0.6000000000000002
 23
-0.9299999999999998
 33
0.48
  0
3DFACE
  5
811
  8
INTERNALS
 10
0.6000000000000002
 20
-0.9299999999999998
 30
0.48
 11
0.6000000000000001
 21
-0.3300000000000001
 31
0.7000000000000001
 12
0.6000000000000001
 22
0.4700000000000002
 32
0.7000000000000001
 13
0.6000000000000001
 23
0.98
 33
0.48
  0
3DFACE
  5
812
  8
INTERNALS
 10
0.6000000000000002
 20
-0.33
 30
0.7000000000000001
 11
0.6000000000000001
 21
-0.3
 31
0.8100000000000001
 12
0.6000000000000001
 22
0.45
 32
0.76
 13
0.6000000000000001
 23
0.47
 33
0.7000000000000001
  0
3DFACE
  5
813
  8
INTERNALS
 10
-0.6000000000000001
 20
0.47
 30
0.7000000000000001
 11
-0.6
 21
0.45
 31
0.76
 12
-0.6000000000000001
 22
-0.3
 32
0.8100000000000001
 13
-0.6000000000000002
 23
-0.33
 33
0.7000000000000001
  0
3DFACE
  5
814
  8
INTERNALS
 10
-0.6000000000000001
 20
0.45
 30
0.76
 11
-0.6
 21
0.4100000000000001
 31
0.85
 12
-0.6000000000000001
 22
-0.23
 32
0.9099999999999999
 13
-0.6000000000000002
 23
-0.3
 33
0.8100000000000001
  0
3DFACE
  5
815
  8
INTERNALS
 10
0.6000000000000002
 20
-0.3
 30
0.8100000000000001
 11
0.6000000000000001
 21
-0.23
 31
0.9099999999999999
 12
0.6000000000000001
 22
0.4100000000000001
 32
0.85
 13
0.6000000000000001
 23
0.45
 33
0.76
  0
3DFACE
  5
816
  8
INTERNALS
 10
0.6000000000000002
 20
-0.23
 30
0.9099999999999999
 11
0.6000000000000001
 21
-0.13
 31
0.98
 12
0.6000000000000001
 22
0.34
 32
0.9300000000000001
 13
0.6000000000000001
 23
0.4100000000000001
 33
0.85
  0
3DFACE
  5
817
  8
INTERNALS
 10
-0.6000000000000001
 20
0.4100000000000001
 30
0.85
 11
-0.6
 21
0.34
 31
0.9300000000000001
 12
-0.6000000000000001
 22
-0.13
 32
0.98
 13
-0.6000000000000002
 23
-0.23
 33
0.9099999999999999
  0
3DFACE
  5
818
  8
INTERNALS
 10
-0.6000000000000001
 20
0.34
 30
0.9300000000000001
 11
-0.6
 21
0.34
 31
1.0800000000000001
 12
-0.6000000000000001
 22
-0.13
 32
1.0800000000000001
 13
-0.6000000000000002
 23
-0.13
 33
0.98
  0
3DFACE
  5
819
  8
INTERNALS
 10
0.6000000000000002
 20
-0.13
 30
0.98
 11
0.6000000000000001
 21
-0.13
 31
1.0800000000000001
 12
0.6000000000000001
 22
0.34
 32
1.0800000000000001
 13
0.6000000000000001
 23
0.34
 33
0.9300000000000001
  0
3DFACE
  5
81B
  8
INTERNALS
 10
0.6000000000000001
 20
-0.13
 30
1.0800000000000001
 11
0.6200000000000003
 21
-0.13
 31
1.0800000000000001
 12
0.6200000000000001
 22
0.34
 32
1.0800000000000001
 13
0.6000000000000001
 23
0.34
 33
1.0800000000000001
  0
3DFACE
  5
81C
  8
INTERNALS
 10
0.6000000000000001
 20
-0.13
 30
0.98
 11
0.6200000000000003
 21
-0.13
 31
0.98
 12
0.6200000000000001
 22
-0.13
 32
1.0800000000000001
 13
0.6000000000000001
 23
-0.13
 33
1.0800000000000001
  0
3DFACE
  5
81D
  8
INTERNALS
 10
0.6000000000000001
 20
-0.23
 30
0.9099999999999999
 11
0.6200000000000003
 21
-0.2300000000000016
 31
0.9100000000000003
 12
0.6200000000000001
 22
-0.13
 32
0.98
 13
0.6000000000000001
 23
-0.13
 33
0.98
  0
3DFACE
  5
81E
  8
INTERNALS
 10
0.6000000000000001
 20
-0.3
 30
0.8100000000000001
 11
0.6200000000000003
 21
-0.3000000000000026
 31
0.8099999999999962
 12
0.6200000000000001
 22
-0.23
 32
0.9099999999999999
 13
0.6000000000000001
 23
-0.23
 33
0.9099999999999999
  0
3DFACE
  5
81F
  8
INTERNALS
 10
0.6
 20
-0.3300000000000001
 30
0.7000000000000001
 11
0.62
 21
-0.33
 31
0.7000000000000001
 12
0.6200000000000001
 22
-0.3
 32
0.8100000000000001
 13
0.6000000000000001
 23
-0.3
 33
0.8100000000000001
  0
3DFACE
  5
820
  8
INTERNALS
 10
0.6
 20
-0.6399999999999999
 30
0.7000000000000001
 11
0.6200000000000001
 21
-0.6400000000000001
 31
0.7000000000000001
 12
0.62
 22
-0.3300000000000001
 32
0.7000000000000001
 13
0.6
 23
-0.3300000000000001
 33
0.7000000000000001
  0
3DFACE
  5
821
  8
INTERNALS
 10
0.6000000000000001
 20
-0.6799999999999999
 30
0.7400000000000001
 11
0.6200000000000001
 21
-0.6800000000000001
 31
0.7399999999999998
 12
0.6199999999999997
 22
-0.6399999999999998
 32
0.7000000000000001
 13
0.5999999999999998
 23
-0.6399999999999998
 33
0.7000000000000001
  0
3DFACE
  5
822
  8
INTERNALS
 10
0.6000000000000001
 20
-0.6799999999999999
 30
1.1100000000000001
 11
0.6200000000000001
 21
-0.6800000000000001
 31
1.109999999999999
 12
0.6200000000000001
 22
-0.6799999999999998
 32
0.7399999999999996
 13
0.6000000000000001
 23
-0.6799999999999998
 33
0.7399999999999996
  0
3DFACE
  5
823
  8
INTERNALS
 10
0.6000000000000001
 20
-0.8999999999999996
 30
1.1100000000000001
 11
0.6200000000000001
 21
-0.9000000000000001
 31
1.1100000000000001
 12
0.6200000000000001
 22
-0.6799999999999994
 32
1.1100000000000001
 13
0.6000000000000001
 23
-0.6799999999999994
 33
1.1100000000000001
  0
3DFACE
  5
824
  8
INTERNALS
 10
0.5999999999999998
 20
0.34
 30
1.0800000000000001
 11
0.6200000000000001
 21
0.34
 31
1.0800000000000001
 12
0.62
 22
0.3400000000000014
 32
0.9299999999999986
 13
0.6000000000000001
 23
0.34
 33
0.9300000000000001
  0
3DFACE
  5
825
  8
INTERNALS
 10
0.5999999999999998
 20
0.34
 30
0.9300000000000001
 11
0.6200000000000001
 21
0.34
 31
0.9300000000000001
 12
0.62
 22
0.4100000000000016
 32
0.8499999999999968
 13
0.6000000000000001
 23
0.4100000000000001
 33
0.85
  0
3DFACE
  5
826
  8
INTERNALS
 10
0.5999999999999998
 20
0.4100000000000003
 30
0.8499999999999982
 11
0.6200000000000001
 21
0.4100000000000003
 31
0.8499999999999982
 12
0.62
 22
0.4499999999999999
 32
0.7600000000000006
 13
0.6000000000000001
 23
0.45
 33
0.76
  0
3DFACE
  5
827
  8
INTERNALS
 10
0.5999999999999996
 20
0.4499999999999987
 30
0.7600000000000018
 11
0.62
 21
0.4499999999999987
 31
0.7600000000000018
 12
0.62
 22
0.47
 32
0.7000000000000001
 13
0.6000000000000001
 23
0.4700000000000002
 33
0.7000000000000001
  0
3DFACE
  5
828
  8
INTERNALS
 10
0.6000000000000001
 20
0.4700000000000017
 30
0.6999999999999952
 11
0.6200000000000003
 21
0.4700000000000017
 31
0.6999999999999952
 12
0.6200000000000003
 22
0.84
 32
0.7000000000000001
 13
0.6
 23
0.84
 33
0.7000000000000001
  0
3DFACE
  5
829
  8
INTERNALS
 10
0.6000000000000006
 20
0.84
 30
0.7000000000000001
 11
0.6200000000000009
 21
0.84
 31
0.7000000000000001
 12
0.6200000000000003
 22
0.88
 32
0.7400000000000001
 13
0.6000000000000001
 23
0.88
 33
0.7400000000000001
  0
3DFACE
  5
82A
  8
INTERNALS
 10
0.6000000000000006
 20
0.88
 30
0.7400000000000001
 11
0.6200000000000009
 21
0.88
 31
0.7400000000000001
 12
0.6200000000000003
 22
0.88
 32
1.0800000000000001
 13
0.6000000000000001
 23
0.88
 33
1.0800000000000001
  0
3DFACE
  5
82B
  8
INTERNALS
 10
0.6000000000000006
 20
0.88
 30
1.0800000000000001
 11
0.6200000000000009
 21
0.88
 31
1.0800000000000001
 12
0.6200000000000001
 22
1.1200000000000001
 32
1.0800000000000001
 13
0.6
 23
1.1200000000000001
 33
1.0800000000000001
  0
3DFACE
  5
82E
  8
INTERNALS
 10
-0.62
 20
-0.3
 30
0.8100000000000001
 11
-0.5999999999999996
 21
-0.3000000000000027
 31
0.8099999999999962
 12
-0.6
 22
-0.23
 32
0.9099999999999999
 13
-0.62
 23
-0.23
 33
0.9099999999999999
  0
3DFACE
  5
82F
  8
INTERNALS
 10
-0.62
 20
-0.6799999999999999
 30
1.1100000000000001
 11
-0.6
 21
-0.6799999999999999
 31
1.109999999999999
 12
-0.6
 22
-0.6799999999999999
 32
0.7399999999999996
 13
-0.62
 23
-0.6799999999999999
 33
0.7399999999999996
  0
3DFACE
  5
830
  8
INTERNALS
 10
-0.62
 20
-0.6799999999999999
 30
0.7400000000000001
 11
-0.6
 21
-0.6799999999999999
 31
0.7399999999999998
 12
-0.6000000000000004
 22
-0.6399999999999999
 32
0.7000000000000001
 13
-0.6200000000000002
 23
-0.6399999999999999
 33
0.7000000000000001
  0
3DFACE
  5
831
  8
INTERNALS
 10
-0.6200000000000001
 20
-0.6399999999999999
 30
0.7000000000000001
 11
-0.6
 21
-0.6399999999999999
 31
0.7000000000000001
 12
-0.6000000000000001
 22
-0.3300000000000001
 32
0.7000000000000001
 13
-0.6200000000000001
 23
-0.3300000000000001
 33
0.7000000000000001
  0
3DFACE
  5
832
  8
INTERNALS
 10
-0.6200000000000001
 20
-0.3300000000000001
 30
0.7000000000000001
 11
-0.6000000000000001
 21
-0.3300000000000001
 31
0.7000000000000001
 12
-0.6
 22
-0.3
 32
0.8100000000000001
 13
-0.62
 23
-0.3
 33
0.8100000000000001
  0
3DFACE
  5
833
  8
INTERNALS
 10
-0.62
 20
-0.8999999999999996
 30
1.1100000000000001
 11
-0.6
 21
-0.9000000000000001
 31
1.1100000000000001
 12
-0.6
 22
-0.6799999999999996
 32
1.1100000000000001
 13
-0.62
 23
-0.6799999999999996
 33
1.1100000000000001
  0
3DFACE
  5
834
  8
INTERNALS
 10
-0.6199999999999994
 20
0.88
 30
0.7400000000000001
 11
-0.5999999999999992
 21
0.88
 31
0.7400000000000001
 12
-0.5999999999999996
 22
0.88
 32
1.0800000000000001
 13
-0.62
 23
0.88
 33
1.0800000000000001
  0
3DFACE
  5
835
  8
INTERNALS
 10
-0.6200000000000002
 20
0.3400000000000001
 30
1.0800000000000001
 11
-0.6
 21
0.3400000000000001
 31
1.0800000000000001
 12
-0.6000000000000001
 22
0.3400000000000014
 32
0.9299999999999986
 13
-0.62
 23
0.3400000000000001
 33
0.9300000000000001
  0
3DFACE
  5
836
  8
INTERNALS
 10
-0.62
 20
-0.1300000000000001
 30
0.98
 11
-0.5999999999999996
 21
-0.1300000000000001
 31
0.98
 12
-0.6
 22
-0.1300000000000001
 32
1.0800000000000001
 13
-0.62
 23
-0.1300000000000001
 33
1.0800000000000001
  0
3DFACE
  5
837
  8
INTERNALS
 10
-0.6200000000000002
 20
0.3400000000000001
 30
0.9300000000000001
 11
-0.6
 21
0.3400000000000001
 31
0.9300000000000001
 12
-0.6000000000000001
 22
0.4100000000000015
 32
0.8499999999999968
 13
-0.62
 23
0.4100000000000001
 33
0.85
  0
3DFACE
  5
838
  8
INTERNALS
 10
-0.6199999999999994
 20
0.84
 30
0.7000000000000001
 11
-0.5999999999999992
 21
0.84
 31
0.7000000000000001
 12
-0.5999999999999996
 22
0.88
 32
0.7400000000000001
 13
-0.62
 23
0.88
 33
0.7400000000000001
  0
3DFACE
  5
839
  8
INTERNALS
 10
-0.62
 20
0.4700000000000016
 30
0.6999999999999952
 11
-0.5999999999999996
 21
0.4700000000000016
 31
0.6999999999999952
 12
-0.5999999999999996
 22
0.84
 32
0.7000000000000001
 13
-0.6200000000000001
 23
0.84
 33
0.7000000000000001
  0
3DFACE
  5
83A
  8
INTERNALS
 10
-0.6200000000000003
 20
0.4499999999999986
 30
0.7600000000000018
 11
-0.6000000000000001
 21
0.4499999999999986
 31
0.7600000000000018
 12
-0.6000000000000001
 22
0.47
 32
0.7000000000000001
 13
-0.62
 23
0.4700000000000002
 33
0.7000000000000001
  0
3DFACE
  5
83B
  8
INTERNALS
 10
-0.6200000000000002
 20
0.4100000000000002
 30
0.8499999999999982
 11
-0.6
 21
0.4100000000000002
 31
0.8499999999999982
 12
-0.6000000000000001
 22
0.4499999999999998
 32
0.7600000000000006
 13
-0.62
 23
0.45
 33
0.76
  0
3DFACE
  5
83C
  8
INTERNALS
 10
-0.62
 20
-0.23
 30
0.9099999999999999
 11
-0.5999999999999996
 21
-0.2300000000000015
 31
0.9100000000000003
 12
-0.6
 22
-0.1300000000000001
 32
0.98
 13
-0.62
 23
-0.1300000000000001
 33
0.98
  0
3DFACE
  5
83D
  8
INTERNALS
 10
-0.6199999999999994
 20
0.88
 30
1.0800000000000001
 11
-0.5999999999999992
 21
0.88
 31
1.0800000000000001
 12
-0.6
 22
1.1200000000000001
 32
1.0800000000000001
 13
-0.6200000000000001
 23
1.1200000000000001
 33
1.0800000000000001
  0
3DFACE
  5
83E
  8
INTERNALS
 10
-0.62
 20
-0.1300000000000001
 30
1.0800000000000001
 11
-0.5999999999999996
 21
-0.1300000000000001
 31
1.0800000000000001
 12
-0.6
 22
0.3400000000000001
 32
1.0800000000000001
 13
-0.62
 23
0.3400000000000001
 33
1.0800000000000001
  0
3DFACE
  5
8C0
  8
INTERNALS
 10
-0.28
 20
-0.4527200655974998
 30
0.9992541480647667
 11
-0.2893582222752409
 21
-0.4715242695054675
 31
1.016789351891755
 12
-0.2893582222752409
 22
-0.4988042039079679
 32
0.9875352038269885
 13
-0.28
 23
-0.48
 33
0.9699999999999998
  0
3DFACE
  5
8C1
  8
INTERNALS
 10
-0.2893582222752409
 20
-0.4715242695054675
 30
1.016789351891755
 11
-0.3130540728933227
 21
-0.4815297774194495
 31
1.0261196389660121
 12
-0.3130540728933227
 22
-0.5088097118219497
 32
0.996865490901246
 13
-0.2893582222752409
 23
-0.4988042039079679
 33
0.9875352038269885
  0
3DFACE
  5
8C2
  8
INTERNALS
 10
-0.3130540728933227
 20
-0.4815297774194495
 30
1.0261196389660121
 11
-0.34
 21
-0.4780549009876597
 31
1.022879264270905
 12
-0.34
 22
-0.5053348353901597
 32
0.9936251162061381
 13
-0.3130540728933227
 23
-0.5088097118219497
 33
0.996865490901246
  0
3DFACE
  5
8C3
  8
INTERNALS
 10
-0.34
 20
-0.4780549009876597
 30
1.022879264270905
 11
-0.3575877048314364
 21
-0.4627255735114817
 31
1.008584435139025
 12
-0.3575877048314364
 22
-0.490005507913982
 32
0.9793302870742582
 13
-0.34
 23
-0.5053348353901597
 33
0.9936251162061381
  0
3DFACE
  5
8C4
  8
INTERNALS
 10
-0.3575877048314364
 20
-0.4627255735114817
 30
1.008584435139025
 11
-0.3575877048314364
 21
-0.4427145576835179
 31
0.9899238609905086
 12
-0.3575877048314364
 22
-0.4699944920860182
 32
0.9606697129257423
 13
-0.3575877048314364
 23
-0.490005507913982
 33
0.9793302870742582
  0
3DFACE
  5
8C5
  8
INTERNALS
 10
-0.3575877048314364
 20
-0.4427145576835179
 30
0.9899238609905086
 11
-0.34
 21
-0.4273852302073401
 31
0.9756290318586287
 12
-0.34
 22
-0.4546651646098403
 32
0.9463748837938616
 13
-0.3575877048314364
 23
-0.4699944920860182
 33
0.9606697129257423
  0
3DFACE
  5
8C6
  8
INTERNALS
 10
-0.34
 20
-0.4273852302073401
 30
0.9756290318586287
 11
-0.3130540728933228
 21
-0.4239103537755503
 31
0.9723886571635201
 12
-0.3130540728933228
 22
-0.4511902881780504
 32
0.943134509098753
 13
-0.34
 23
-0.4546651646098403
 33
0.9463748837938616
  0
3DFACE
  5
8C7
  8
INTERNALS
 10
-0.3130540728933228
 20
-0.4239103537755503
 30
0.9723886571635201
 11
-0.2893582222752409
 21
-0.4339158616895321
 31
0.9817189442377781
 12
-0.2893582222752409
 22
-0.4611957960920324
 32
0.9524647961730111
 13
-0.3130540728933228
 23
-0.4511902881780504
 33
0.943134509098753
  0
3DFACE
  5
8C8
  8
INTERNALS
 10
-0.2893582222752409
 20
-0.4339158616895321
 30
0.9817189442377781
 11
-0.28
 21
-0.4527200655974998
 31
0.9992541480647667
 12
-0.28
 22
-0.48
 32
0.9699999999999998
 13
-0.2893582222752409
 23
-0.4611957960920324
 33
0.9524647961730111
  0
3DFACE
  5
8C9
  8
INTERNALS
 10
-0.1099999999999996
 20
-0.4459000819968751
 30
1.006567685080958
 11
-0.1299999999999996
 21
-0.4322601147956249
 31
1.021194759113341
 12
-0.1744515558073938
 22
-0.3429401462327788
 32
0.9379025409351453
 13
-0.1591306669450141
 23
-0.3471780114800458
 33
0.9145078649892678
  0
3DFACE
  5
8CA
  8
INTERNALS
 10
-0.1299999999999996
 20
-0.4322601147956249
 30
1.021194759113341
 11
-0.1099999999999996
 21
-0.4186201475943752
 31
1.035821833145725
 12
-0.1591306669450141
 22
-0.3198980770775457
 32
0.9437620130540352
 13
-0.1744515558073938
 23
-0.3429401462327788
 33
0.9379025409351453
  0
3DFACE
  5
8CB
  8
INTERNALS
 10
-0.1099999999999996
 20
-0.4186201475943752
 30
1.035821833145725
 11
-0.0899999999999996
 21
-0.4322601147956249
 31
1.021194759113341
 12
-0.1438097780826344
 22
-0.3241359423248113
 32
0.9203673371081571
 13
-0.1591306669450141
 23
-0.3198980770775457
 33
0.9437620130540352
  0
3DFACE
  5
8CC
  8
INTERNALS
 10
-0.0899999999999996
 20
-0.4322601147956249
 30
1.021194759113341
 11
-0.1099999999999996
 21
-0.4459000819968751
 31
1.006567685080958
 12
-0.1591306669450141
 22
-0.3471780114800458
 32
0.9145078649892678
 13
-0.1438097780826344
 23
-0.3241359423248113
 33
0.9203673371081571
  0
3DFACE
  5
8CD
  8
INTERNALS
 10
-0.1591306669450141
 20
-0.3471780114800458
 30
0.9145078649892678
 11
-0.1744515558073938
 21
-0.3429401462327788
 31
0.9379025409351453
 12
-0.2870068462432829
 22
-0.2954139836413648
 32
0.8935836773324208
 13
-0.2835338826899441
 23
-0.29464909493164
 33
0.8655238578494138
  0
3DFACE
  5
8CE
  8
INTERNALS
 10
-0.1744515558073938
 20
-0.3429401462327788
 30
0.9379025409351453
 11
-0.1591306669450141
 21
-0.3198980770775457
 31
0.9437620130540352
 12
-0.2835338826899441
 22
-0.2673691605291402
 32
0.8947780059141807
 13
-0.2870068462432829
 23
-0.2954139836413648
 33
0.8935836773324208
  0
3DFACE
  5
8CF
  8
INTERNALS
 10
-0.1591306669450141
 20
-0.3198980770775457
 30
0.9437620130540352
 11
-0.1438097780826344
 21
-0.3241359423248113
 31
0.9203673371081571
 12
-0.2800609191366053
 22
-0.266604271819416
 32
0.8667181864311746
 13
-0.2835338826899441
 23
-0.2673691605291402
 33
0.8947780059141807
  0
3DFACE
  5
8D0
  8
INTERNALS
 10
-0.1438097780826344
 20
-0.3241359423248113
 30
0.9203673371081571
 11
-0.1591306669450141
 21
-0.3471780114800458
 31
0.9145078649892678
 12
-0.2835338826899441
 22
-0.29464909493164
 32
0.8655238578494138
 13
-0.2800609191366053
 23
-0.266604271819416
 33
0.8667181864311746
  0
3DFACE
  5
8D1
  8
INTERNALS
 10
-0.2835338826899441
 20
-0.29464909493164
 30
0.8655238578494138
 11
-0.2870068462432829
 21
-0.2954139836413648
 31
0.8935836773324208
 12
-0.4149999999999997
 22
-0.3119196466923676
 32
0.9089754571341854
 13
-0.4249999999999995
 23
-0.3128921961985376
 33
0.8825358249987335
  0
3DFACE
  5
8D2
  8
INTERNALS
 10
-0.2870068462432829
 20
-0.2954139836413648
 30
0.8935836773324208
 11
-0.2835338826899441
 21
-0.2673691605291402
 31
0.8947780059141807
 12
-0.4249999999999995
 22
-0.2856122617960378
 32
0.9117899730635002
 13
-0.4149999999999997
 23
-0.3119196466923676
 33
0.9089754571341854
  0
3DFACE
  5
8D3
  8
INTERNALS
 10
-0.2835338826899441
 20
-0.2673691605291402
 30
0.8947780059141807
 11
-0.2800609191366053
 21
-0.266604271819416
 31
0.8667181864311746
 12
-0.4349999999999993
 22
-0.2865848113022082
 32
0.8853503409280477
 13
-0.4249999999999995
 23
-0.2856122617960378
 33
0.9117899730635002
  0
3DFACE
  5
8D4
  8
INTERNALS
 10
-0.2800609191366053
 20
-0.266604271819416
 30
0.8667181864311746
 11
-0.2835338826899441
 21
-0.29464909493164
 31
0.8655238578494138
 12
-0.4249999999999995
 22
-0.3128921961985376
 32
0.8825358249987335
 13
-0.4349999999999993
 23
-0.2865848113022082
 33
0.8853503409280477
  0
3DFACE
  5
8D5
  8
INTERNALS
 10
-0.4249999999999995
 20
-0.3128921961985376
 30
0.8825358249987335
 11
-0.4149999999999997
 21
-0.3119196466923676
 31
0.9089754571341854
 12
-0.498541597949323
 22
-0.3847339522042113
 32
0.9768758955106168
 13
-0.5173354503650413
 23
-0.3933711654484708
 33
0.9575836779411046
  0
3DFACE
  5
8D6
  8
INTERNALS
 10
-0.4149999999999997
 20
-0.3119196466923676
 30
0.9089754571341854
 11
-0.4249999999999995
 21
-0.2856122617960378
 31
0.9117899730635002
 12
-0.5173354503650413
 22
-0.3660912310459702
 32
0.9868378260058712
 13
-0.498541597949323
 23
-0.3847339522042113
 33
0.9768758955106168
  0
3DFACE
  5
8D7
  8
INTERNALS
 10
-0.4249999999999995
 20
-0.2856122617960378
 30
0.9117899730635002
 11
-0.4349999999999993
 21
-0.2865848113022082
 31
0.8853503409280477
 12
-0.5361293027807593
 22
-0.374728444290229
 32
0.9675456084363593
 13
-0.5173354503650413
 23
-0.3660912310459702
 33
0.9868378260058712
  0
3DFACE
  5
8D8
  8
INTERNALS
 10
-0.4349999999999993
 20
-0.2865848113022082
 30
0.8853503409280477
 11
-0.4249999999999995
 21
-0.3128921961985376
 31
0.8825358249987335
 12
-0.5173354503650413
 22
-0.3933711654484708
 32
0.9575836779411046
 13
-0.5361293027807593
 23
-0.374728444290229
 33
0.9675456084363593
  0
3DFACE
  5
8D9
  8
INTERNALS
 10
-0.5173354503650413
 20
-0.3933711654484708
 30
0.9575836779411046
 11
-0.498541597949323
 21
-0.3847339522042113
 31
0.9768758955106168
 12
-0.4985415979493225
 22
-0.4797862773870384
 32
1.0655136227160651
 13
-0.517335450365041
 23
-0.4984289985452792
 33
1.055551692220811
  0
3DFACE
  5
8DA
  8
INTERNALS
 10
-0.498541597949323
 20
-0.3847339522042113
 30
0.9768758955106168
 11
-0.5173354503650413
 21
-0.3660912310459702
 31
0.9868378260058712
 12
-0.517335450365041
 22
-0.4711490641427796
 32
1.084805840285578
 13
-0.4985415979493225
 23
-0.4797862773870384
 33
1.0655136227160651
  0
3DFACE
  5
8DB
  8
INTERNALS
 10
-0.5173354503650413
 20
-0.3660912310459702
 30
0.9868378260058712
 11
-0.5361293027807593
 21
-0.374728444290229
 31
0.9675456084363593
 12
-0.536129302780759
 22
-0.4897917853010203
 32
1.0748439097903231
 13
-0.517335450365041
 23
-0.4711490641427796
 33
1.084805840285578
  0
3DFACE
  5
8DC
  8
INTERNALS
 10
-0.5361293027807593
 20
-0.374728444290229
 30
0.9675456084363593
 11
-0.5173354503650413
 21
-0.3933711654484708
 31
0.9575836779411046
 12
-0.517335450365041
 22
-0.4984289985452792
 32
1.055551692220811
 13
-0.536129302780759
 23
-0.4897917853010203
 33
1.0748439097903231
  0
3DFACE
  5
8DD
  8
INTERNALS
 10
-0.517335450365041
 20
-0.4984289985452792
 30
1.055551692220811
 11
-0.4985415979493225
 21
-0.4797862773870384
 31
1.0655136227160651
 12
-0.4149999999999997
 22
-0.552600582898883
 32
1.133414061092497
 13
-0.4249999999999995
 23
-0.5789079677952124
 33
1.1305995451631821
  0
3DFACE
  5
8DE
  8
INTERNALS
 10
-0.4985415979493225
 20
-0.4797862773870384
 30
1.0655136227160651
 11
-0.517335450365041
 21
-0.4711490641427796
 31
1.084805840285578
 12
-0.4249999999999995
 22
-0.5516280333927126
 32
1.1598536932279491
 13
-0.4149999999999997
 23
-0.552600582898883
 33
1.133414061092497
  0
3DFACE
  5
8DF
  8
INTERNALS
 10
-0.517335450365041
 20
-0.4711490641427796
 30
1.084805840285578
 11
-0.536129302780759
 21
-0.4897917853010203
 31
1.0748439097903231
 12
-0.4350000000000002
 22
-0.5779354182890419
 32
1.157039177298635
 13
-0.4249999999999995
 23
-0.5516280333927126
 33
1.1598536932279491
  0
3DFACE
  5
8E0
  8
INTERNALS
 10
-0.536129302780759
 20
-0.4897917853010203
 30
1.0748439097903231
 11
-0.517335450365041
 21
-0.4984289985452792
 31
1.055551692220811
 12
-0.4249999999999995
 22
-0.5789079677952124
 32
1.1305995451631821
 13
-0.4350000000000002
 23
-0.5779354182890419
 33
1.157039177298635
  0
3DFACE
  5
8E1
  8
INTERNALS
 10
-0.4249999999999995
 20
-0.5789079677952124
 30
1.1305995451631821
 11
-0.4149999999999997
 21
-0.552600582898883
 31
1.133414061092497
 12
-0.2870068462432838
 22
-0.5691062459498859
 32
1.1488058408942621
 13
-0.283533882689945
 23
-0.5971510690621102
 33
1.1476115123125019
  0
3DFACE
  5
8E2
  8
INTERNALS
 10
-0.4149999999999997
 20
-0.552600582898883
 30
1.133414061092497
 11
-0.4249999999999995
 21
-0.5516280333927126
 31
1.1598536932279491
 12
-0.283533882689945
 22
-0.5698711346596105
 32
1.1768656603772689
 13
-0.2870068462432838
 23
-0.5691062459498859
 33
1.1488058408942621
  0
3DFACE
  5
8E3
  8
INTERNALS
 10
-0.4249999999999995
 20
-0.5516280333927126
 30
1.1598536932279491
 11
-0.4350000000000002
 21
-0.5779354182890419
 31
1.157039177298635
 12
-0.2800609191366071
 22
-0.5979159577718347
 32
1.1756713317955081
 13
-0.283533882689945
 23
-0.5698711346596105
 33
1.1768656603772689
  0
3DFACE
  5
8E4
  8
INTERNALS
 10
-0.4350000000000002
 20
-0.5779354182890419
 30
1.157039177298635
 11
-0.4249999999999995
 21
-0.5789079677952124
 31
1.1305995451631821
 12
-0.283533882689945
 22
-0.5971510690621102
 32
1.1476115123125019
 13
-0.2800609191366071
 23
-0.5979159577718347
 33
1.1756713317955081
  0
3DFACE
  5
8E5
  8
INTERNALS
 10
-0.283533882689945
 20
-0.5971510690621102
 30
1.1476115123125019
 11
-0.2870068462432838
 21
-0.5691062459498859
 31
1.1488058408942621
 12
-0.1744515558073938
 22
-0.5215800833584714
 32
1.1044869772915371
 13
-0.1591306669450141
 23
-0.5446221525137051
 33
1.098627505172648
  0
3DFACE
  5
8E6
  8
INTERNALS
 10
-0.2870068462432838
 20
-0.5691062459498859
 30
1.1488058408942621
 11
-0.283533882689945
 21
-0.5698711346596105
 31
1.1768656603772689
 12
-0.1591306669450141
 22
-0.5173422181112053
 32
1.127881653237415
 13
-0.1744515558073938
 23
-0.5215800833584714
 33
1.1044869772915371
  0
3DFACE
  5
8E7
  8
INTERNALS
 10
-0.283533882689945
 20
-0.5698711346596105
 30
1.1768656603772689
 11
-0.2800609191366071
 21
-0.5979159577718347
 31
1.1756713317955081
 12
-0.1438097780826349
 22
-0.5403842872664388
 32
1.122022181118526
 13
-0.1591306669450141
 23
-0.5173422181112053
 33
1.127881653237415
  0
3DFACE
  5
8E8
  8
INTERNALS
 10
-0.2800609191366071
 20
-0.5979159577718347
 30
1.1756713317955081
 11
-0.283533882689945
 21
-0.5971510690621102
 31
1.1476115123125019
 12
-0.1591306669450141
 22
-0.5446221525137051
 32
1.098627505172648
 13
-0.1438097780826349
 23
-0.5403842872664388
 33
1.122022181118526
  0
3DFACE
  5
8E9
  8
INTERNALS
 10
-0.1591306669450141
 20
-0.5446221525137051
 30
1.098627505172648
 11
-0.1744515558073938
 21
-0.5215800833584714
 31
1.1044869772915371
 12
-0.1299999999999996
 22
-0.4322601147956249
 32
1.021194759113341
 13
-0.1099999999999996
 23
-0.4459000819968751
 33
1.006567685080958
  0
3DFACE
  5
8EA
  8
INTERNALS
 10
-0.1744515558073938
 20
-0.5215800833584714
 30
1.1044869772915371
 11
-0.1591306669450141
 21
-0.5173422181112053
 31
1.127881653237415
 12
-0.1099999999999996
 22
-0.4186201475943752
 32
1.035821833145725
 13
-0.1299999999999996
 23
-0.4322601147956249
 33
1.021194759113341
  0
3DFACE
  5
8EB
  8
INTERNALS
 10
-0.1591306669450141
 20
-0.5173422181112053
 30
1.127881653237415
 11
-0.1438097780826349
 21
-0.5403842872664388
 31
1.122022181118526
 12
-0.0899999999999996
 22
-0.4322601147956249
 32
1.021194759113341
 13
-0.1099999999999996
 23
-0.4186201475943752
 33
1.035821833145725
  0
3DFACE
  5
8EC
  8
INTERNALS
 10
-0.1438097780826349
 20
-0.5403842872664388
 30
1.122022181118526
 11
-0.1591306669450141
 21
-0.5446221525137051
 31
1.098627505172648
 12
-0.1099999999999996
 22
-0.4459000819968751
 32
1.006567685080958
 13
-0.0899999999999996
 23
-0.4322601147956249
 33
1.021194759113341
  0
3DFACE
  5
8ED
  8
INTERNALS
 10
-0.3
 20
-0.48
 30
0.9699999999999998
 11
-0.32
 21
-0.4946270740323832
 31
0.9836399672012494
 12
-0.3200000000000001
 22
-0.9166135788885315
 32
0.5311148433408368
 13
-0.3
 23
-0.9180851829786545
 33
0.5002111574482524
  0
3DFACE
  5
8EE
  8
INTERNALS
 10
-0.32
 20
-0.4946270740323832
 30
0.9836399672012494
 11
-0.34
 21
-0.48
 31
0.9699999999999998
 12
-0.34
 22
-0.9180851829786545
 32
0.5002111574482524
 13
-0.3200000000000001
 23
-0.9166135788885315
 33
0.5311148433408368
  0
3DFACE
  5
8EF
  8
INTERNALS
 10
-0.34
 20
-0.48
 30
0.9699999999999998
 11
-0.32
 21
-0.4653729259676169
 31
0.9563600327987502
 12
-0.3200000000000001
 22
-0.9195567870687778
 32
0.4693074715556685
 13
-0.34
 23
-0.9180851829786545
 33
0.5002111574482524
  0
3DFACE
  5
8F0
  8
INTERNALS
 10
-0.32
 20
-0.4653729259676169
 30
0.9563600327987502
 11
-0.3
 21
-0.48
 31
0.9699999999999998
 12
-0.3
 22
-0.9180851829786545
 32
0.5002111574482524
 13
-0.3200000000000001
 23
-0.9195567870687778
 33
0.4693074715556685
  0
3DFACE
  5
8F1
  8
INTERNALS
 10
-0.3399999999999999
 20
-0.4342052138079655
 30
0.9683154948424368
 11
-0.3295198947908249
 21
-0.4396737103935069
 31
0.9597416757959607
 12
-0.4045198947908256
 22
-0.3105681596772838
 32
0.9077151751039011
 13
-0.4150000000000002
 23
-0.3050996630917423
 33
0.9162889941503773
  0
3DFACE
  5
8F2
  8
INTERNALS
 10
-0.3295198947908249
 20
-0.4396737103935069
 30
0.9597416757959607
 11
-0.3399999999999999
 21
-0.447845181009215
 31
0.9536884208100535
 12
-0.4150000000000002
 22
-0.3187396302929923
 32
0.9016619201179945
 13
-0.4045198947908256
 23
-0.3105681596772838
 33
0.9077151751039011
  0
3DFACE
  5
8F3
  8
INTERNALS
 10
-0.3399999999999999
 20
-0.447845181009215
 30
0.9536884208100535
 11
-0.3468404028665129
 21
-0.4469872474096985
 31
0.9665616593965855
 12
-0.4218404028665136
 22
-0.3178816966934753
 32
0.9145351587045267
 13
-0.4150000000000002
 23
-0.3187396302929923
 33
0.9016619201179945
  0
3DFACE
  5
8F4
  8
INTERNALS
 10
-0.3468404028665129
 20
-0.4469872474096985
 30
0.9665616593965855
 11
-0.3399999999999999
 21
-0.4342052138079655
 31
0.9683154948424368
 12
-0.4150000000000002
 22
-0.3050996630917423
 32
0.9162889941503773
 13
-0.4218404028665136
 23
-0.3178816966934753
 33
0.9145351587045267
  0
3DFACE
  5
8F5
  8
INTERNALS
 10
-0.28
 20
-0.4595400491981251
 30
0.9919406110485748
 11
-0.283639702342662
 21
-0.4736735698149415
 31
0.9914470576330086
 12
-0.1336397023426615
 22
-0.4395736518118165
 32
1.0280147427139661
 13
-0.1300000000000001
 23
-0.425440131195
 33
1.0285082961295331
  0
3DFACE
  5
8F6
  8
INTERNALS
 10
-0.283639702342662
 20
-0.4736735698149415
 30
0.9914470576330086
 11
-0.28
 21
-0.4731800163993747
 31
0.977313537016192
 12
-0.1300000000000001
 22
-0.4390800983962502
 32
1.01388122209715
 13
-0.1336397023426615
 23
-0.4395736518118165
 33
1.0280147427139661
  0
3DFACE
  5
8F7
  8
INTERNALS
 10
-0.28
 20
-0.4731800163993747
 30
0.977313537016192
 11
-0.283639702342662
 21
-0.4590464957825584
 31
0.9778070904317587
 12
-0.1336397023426615
 22
-0.4249465777794334
 32
1.0143747755127159
 13
-0.1300000000000001
 23
-0.4390800983962502
 33
1.01388122209715
  0
3DFACE
  5
8F8
  8
INTERNALS
 10
-0.283639702342662
 20
-0.4590464957825584
 30
0.9778070904317587
 11
-0.28
 21
-0.4595400491981251
 31
0.9919406110485748
 12
-0.1300000000000001
 22
-0.425440131195
 32
1.0285082961295331
 13
-0.1336397023426615
 23
-0.4249465777794334
 33
1.0143747755127159
  0
3DFACE
  5
8F9
  8
INTERNALS
 10
-0.28
 20
-0.4527200655974998
 30
0.9992541480647667
 11
-0.34
 21
-0.4780549009876597
 31
1.022879264270905
 12
-0.3130540728933227
 22
-0.4815297774194495
 32
1.0261196389660121
 13
-0.2893582222752409
 23
-0.4715242695054675
 33
1.016789351891755
  0
3DFACE
  5
8FA
  8
INTERNALS
 10
-0.2893582222752409
 20
-0.4339158616895321
 30
0.9817189442377781
 11
-0.3575877048314364
 21
-0.4627255735114817
 31
1.008584435139025
 12
-0.34
 22
-0.4780549009876597
 32
1.022879264270905
 13
-0.28
 23
-0.4527200655974998
 33
0.9992541480647667
  0
3DFACE
  5
8FB
  8
INTERNALS
 10
-0.3130540728933228
 20
-0.4239103537755503
 30
0.9723886571635201
 11
-0.3575877048314364
 21
-0.4427145576835179
 31
0.9899238609905086
 12
-0.3575877048314364
 22
-0.4627255735114817
 32
1.008584435139025
 13
-0.2893582222752409
 23
-0.4339158616895321
 33
0.9817189442377781
  0
3DFACE
  5
8FC
  8
INTERNALS
 10
-0.34
 20
-0.4273852302073401
 30
0.9756290318586287
 11
-0.34
 21
-0.4273852302073401
 31
0.9756290318586287
 12
-0.3575877048314364
 22
-0.4427145576835179
 32
0.9899238609905086
 13
-0.3130540728933228
 23
-0.4239103537755503
 33
0.9723886571635201
  0
3DFACE
  5
8FF
  8
INTERNALS
 10
-0.3400000000000003
 20
-0.4848748845882849
 30
1.0155657272547121
 11
-0.3468404028665133
 21
-0.4857328181878006
 31
1.0026924886681789
 12
-0.4218404028665136
 22
-0.5466385328977738
 32
1.127854359522156
 13
-0.4150000000000006
 23
-0.5457805992982574
 33
1.1407275981086891
  0
3DFACE
  5
900
  8
INTERNALS
 10
-0.3468404028665133
 20
-0.4857328181878006
 30
1.0026924886681789
 11
-0.3400000000000003
 21
-0.4985148517895345
 31
1.0009386532223301
 12
-0.4150000000000006
 22
-0.5594205664995076
 32
1.1261005240763049
 13
-0.4218404028665136
 23
-0.5466385328977738
 33
1.127854359522156
  0
3DFACE
  5
901
  8
INTERNALS
 10
-0.3400000000000003
 20
-0.4985148517895345
 30
1.0009386532223301
 11
-0.3295198947908245
 21
-0.4930463552039921
 31
1.009512472268804
 12
-0.4045198947908247
 22
-0.5539520699139653
 32
1.134674343122781
 13
-0.4150000000000006
 23
-0.5594205664995076
 33
1.1261005240763049
  0
3DFACE
  5
902
  8
INTERNALS
 10
-0.3295198947908245
 20
-0.4930463552039921
 30
1.009512472268804
 11
-0.3400000000000003
 21
-0.4848748845882849
 31
1.0155657272547121
 12
-0.4150000000000006
 22
-0.5457805992982574
 32
1.1407275981086891
 13
-0.4045198947908247
 23
-0.5539520699139653
 33
1.134674343122781
  0
3DFACE
  5
914
  8
INTERNALS
 10
0.02
 20
-0.59
 30
0.48
 11
0.0
 21
-0.57
 31
0.48
 12
0.0
 22
-0.57
 32
0.98
 13
0.02
 23
-0.59
 33
0.98
  0
3DFACE
  5
915
  8
INTERNALS
 10
0.0
 20
-0.57
 30
0.48
 11
-0.02
 21
-0.59
 31
0.48
 12
-0.02
 22
-0.59
 32
0.98
 13
0.0
 23
-0.57
 33
0.98
  0
3DFACE
  5
916
  8
INTERNALS
 10
-0.02
 20
-0.59
 30
0.48
 11
0.0
 21
-0.61
 31
0.48
 12
0.0
 22
-0.61
 32
0.98
 13
-0.02
 23
-0.59
 33
0.98
  0
3DFACE
  5
917
  8
INTERNALS
 10
0.0
 20
-0.61
 30
0.48
 11
0.02
 21
-0.59
 31
0.48
 12
0.02
 22
-0.59
 32
0.98
 13
0.0
 23
-0.61
 33
0.98
  0
3DFACE
  5
918
  8
INTERNALS
 10
0.0
 20
-0.57
 30
0.98
 11
-0.02
 21
-0.59
 31
0.98
 12
0.0
 22
-0.61
 32
0.98
 13
0.02
 23
-0.59
 33
0.98
  0
3DFACE
  5
91B
  8
INTERNALS
 10
-0.6199999999999998
 20
-0.6800000000000002
 30
1.1099999999999961
 11
-0.6024264068711929
 21
-0.6799999999999999
 31
1.152426406871192
 12
0.6024264068711929
 22
-0.6800000000000001
 32
1.152426406871192
 13
0.62
 23
-0.6800000000000002
 33
1.1100000000000001
  0
3DFACE
  5
91C
  8
INTERNALS
 10
-0.6024264068711928
 20
-0.6800000000000002
 30
1.1524264068711889
 11
-0.5600000000000001
 21
-0.6799999999999999
 31
1.1699999999999999
 12
0.5600000000000001
 22
-0.6800000000000001
 32
1.1699999999999999
 13
0.6024264068711929
 23
-0.6800000000000002
 33
1.152426406871192
  0
3DFACE
  5
944
  8
INTERNALS
 10
-0.5600000000000086
 20
-0.59
 30
1.4299999999999959
 11
-0.5600000000000001
 21
-0.63
 31
1.4699999999999991
 12
0.5600000000000001
 22
-0.63
 32
1.4699999999999991
 13
0.5600000000000001
 23
-0.59
 33
1.429999999999999
  0
3DFACE
  5
945
  8
INTERNALS
 10
-0.5600000000000086
 20
-0.63
 30
1.469999999999996
 11
-0.5600000000000001
 21
-0.6400000000000001
 31
1.4599999999999991
 12
0.5600000000000001
 22
-0.6400000000000001
 32
1.4599999999999991
 13
0.5600000000000001
 23
-0.63
 33
1.4699999999999991
  0
3DFACE
  5
946
  8
INTERNALS
 10
-0.5600000000000001
 20
-0.6400000000000001
 30
1.4599999999999991
 11
-0.5600000000000001
 21
-0.63
 31
1.429999999999999
 12
0.5600000000000001
 22
-0.63
 32
1.429999999999999
 13
0.5600000000000085
 23
-0.6400000000000001
 33
1.4600000000000031
  0
3DFACE
  5
947
  8
INTERNALS
 10
-0.5600000000000001
 20
-0.63
 30
1.429999999999999
 11
-0.6200000000000001
 21
-0.75
 31
1.1499999999999999
 12
-0.6000000000000001
 22
-0.75
 32
1.1499999999999999
 13
-0.5400000000000002
 23
-0.63
 33
1.429999999999999
  0
3DFACE
  5
948
  8
INTERNALS
 10
-0.5600000000000086
 20
-0.59
 30
1.4299999999999959
 11
-0.6200000000000001
 21
-0.71
 31
1.1499999999999999
 12
-0.6200000000000001
 22
-0.75
 32
1.1499999999999999
 13
-0.5600000000000001
 23
-0.63
 33
1.429999999999999
  0
3DFACE
  5
949
  8
INTERNALS
 10
-0.5400000000000002
 20
-0.59
 30
1.429999999999999
 11
-0.6
 21
-0.71
 31
1.1499999999999999
 12
-0.6200000000000001
 22
-0.7099999999999965
 32
1.1499999999999959
 13
-0.5600000000000001
 23
-0.5899999999999964
 33
1.4299999999999959
  0
3DFACE
  5
94A
  8
INTERNALS
 10
-0.5400000000000002
 20
-0.63
 30
1.429999999999999
 11
-0.6000000000000001
 21
-0.75
 31
1.1499999999999999
 12
-0.6000000000000008
 22
-0.7100000000000016
 32
1.1499999999999959
 13
-0.5400000000000008
 23
-0.5900000000000016
 33
1.4299999999999959
  0
3DFACE
  5
94B
  8
INTERNALS
 10
0.5600000000000001
 20
-0.63
 30
1.429999999999999
 11
0.62
 21
-0.75
 31
1.1499999999999999
 12
0.6200000000000001
 22
-0.71
 32
1.1499999999999999
 13
0.5600000000000001
 23
-0.59
 33
1.429999999999999
  0
3DFACE
  5
94C
  8
INTERNALS
 10
0.5600000000000001
 20
-0.59
 30
1.429999999999999
 11
0.6200000000000001
 21
-0.71
 31
1.1499999999999999
 12
0.6
 22
-0.71
 32
1.1499999999999999
 13
0.5400000000000002
 23
-0.59
 33
1.429999999999999
  0
3DFACE
  5
94D
  8
INTERNALS
 10
0.5400000000000002
 20
-0.59
 30
1.429999999999999
 11
0.6
 21
-0.71
 31
1.1499999999999999
 12
0.6
 22
-0.75
 32
1.1499999999999999
 13
0.5400000000000002
 23
-0.63
 33
1.429999999999999
  0
3DFACE
  5
94E
  8
INTERNALS
 10
0.5400000000000002
 20
-0.63
 30
1.429999999999999
 11
0.6
 21
-0.75
 31
1.1499999999999999
 12
0.62
 22
-0.75
 32
1.1499999999999999
 13
0.5600000000000001
 23
-0.63
 33
1.429999999999999
  0
3DFACE
  5
94F
  8
INTERNALS
 10
-0.01
 20
-0.63
 30
1.429999999999999
 11
-0.01
 21
-0.7414285714285716
 31
1.1699999999999999
 12
0.0099999999999999
 22
-0.7414285714285716
 32
1.1699999999999999
 13
0.01
 23
-0.63
 33
1.429999999999999
  0
3DFACE
  5
950
  8
INTERNALS
 10
0.01
 20
-0.63
 30
1.429999999999999
 11
0.0099999999999999
 21
-0.7414285714285716
 31
1.1699999999999999
 12
0.01
 22
-0.7014285714285713
 32
1.1699999999999999
 13
0.01
 23
-0.59
 33
1.4299999999999979
  0
3DFACE
  5
951
  8
INTERNALS
 10
0.01
 20
-0.59
 30
1.4299999999999979
 11
0.01
 21
-0.7014285714285713
 31
1.1699999999999999
 12
-0.01
 22
-0.7014285714285713
 32
1.1699999999999999
 13
-0.01
 23
-0.59
 33
1.4299999999999979
  0
3DFACE
  5
952
  8
INTERNALS
 10
-0.01
 20
-0.59
 30
1.4299999999999979
 11
-0.01
 21
-0.7014285714285713
 31
1.1699999999999999
 12
-0.01
 22
-0.7414285714285716
 32
1.1699999999999999
 13
-0.01
 23
-0.63
 33
1.429999999999999
  0
3DFACE
  5
95F
  8
INTERNALS
 10
-0.6200000000000087
 20
-0.71
 30
1.1499999999999959
 11
-0.6200000000000001
 21
-0.71
 31
1.1100000000000001
 12
-0.6200000000000001
 22
-0.75
 32
1.1100000000000001
 13
-0.6200000000000001
 23
-0.75
 33
1.1499999999999999
  0
3DFACE
  5
960
  8
INTERNALS
 10
-0.6000000000000008
 20
-0.71
 30
1.1499999999999959
 11
-0.6200000000000001
 21
-0.71
 31
1.1100000000000001
 12
-0.6200000000000087
 22
-0.71
 32
1.1099999999999961
 13
-0.6200000000000087
 23
-0.71
 33
1.1499999999999959
  0
3DFACE
  5
961
  8
INTERNALS
 10
-0.6200000000000087
 20
-0.75
 30
1.1499999999999959
 11
-0.6200000000000001
 21
-0.75
 31
1.1100000000000001
 12
-0.6200000000000001
 22
-0.75
 32
1.1100000000000001
 13
-0.6000000000000001
 23
-0.75
 33
1.1499999999999999
  0
3DFACE
  5
962
  8
INTERNALS
 10
0.62
 20
-0.75
 30
1.1499999999999999
 11
0.6199999999999998
 21
-0.75
 31
1.1100000000000001
 12
0.62
 22
-0.71
 32
1.1100000000000001
 13
0.6199999999999998
 23
-0.71
 33
1.1499999999999999
  0
3DFACE
  5
963
  8
INTERNALS
 10
0.6200000000000001
 20
-0.71
 30
1.1499999999999999
 11
0.62
 21
-0.71
 31
1.1100000000000001
 12
0.62
 22
-0.71
 32
1.1100000000000001
 13
0.6
 23
-0.71
 33
1.1499999999999999
  0
3DFACE
  5
964
  8
INTERNALS
 10
0.6
 20
-0.75
 30
1.1499999999999999
 11
0.6199999999999998
 21
-0.75
 31
1.1100000000000001
 12
0.6199999999999998
 22
-0.75
 32
1.1100000000000001
 13
0.6199999999999997
 23
-0.75
 33
1.1499999999999999
  0
VIEWPORT
  5
2E
 67
     1
  8
0
 10
144.7270812988281
 20
101.2295806407928
 30
0.0
 40
391.13550988316581
 41
222.15178063964839
 68
     2
 69
     1
1001
ACAD
1000
MVIEW
1002
{
1070
    16
1010
0.0
1020
0.0
1030
0.0
1010
0.0
1020
0.0
1030
1.0
1040
0.0
1040
222.15178063964839
1040
144.7270812988281
1040
101.2295806407928
1040
50.0
1040
0.0
1040
0.0
1070
     0
1070
   100
1070
     1
1070
     1
1070
     0
1070
     0
1070
     0
1070
     0
1040
0.0
1040
0.0
1040
0.0
1040
10.0
1040
10.0
1040
10.0
1040
10.0
1070
     0
1002
{
1002
}
1002
}
  0
VIEWPORT
  5
30
 67
     1
  8
0
 10
139.22375631332389
 20
100.8062499761581
 30
0.0
 40
222.75801010131829
 41
161.289999961853
 68
     1
 69
     2
1001
ACAD
1000
MVIEW
1002
{
1070
    16
1010
0.0
1020
0.0
1030
0.0
1010
0.0
1020
0.0
1030
1.0
1040
0.0
1040
307.49010134148989
1040
210.0
1040
148.5
1040
50.0
1040
0.0
1040
0.0
1070
     0
1070
   100
1070
     1
1070
     3
1070
     0
1070
     1
1070
     0
1070
     0
1040
0.0
1040
0.0
1040
0.0
1040
10.0
1040
10.0
1040
10.0
1040
10.0
1070
     0
1002
{
1002
}
1002
}
  0
ENDSEC
  0
EOF
