  0
SECTION
  2
HEADER
  9
$ACADVER
  1
AC1009
  9
$INSBASE
 10
0.0
 20
0.0
 30
0.0
  9
$EXTMIN
 10
-0.9299999999999995
 20
-2.5099999999999998
 30
-0.45
  9
$EXTMAX
 10
0.9300000000000004
 20
2.0899999999999999
 30
1.1299999999999999
  9
$LIMMIN
 10
0.0
 20
0.0
  9
$LIMMAX
 10
420.0
 20
297.0
  9
$ORTHOMODE
 70
     1
  9
$REGENMODE
 70
     1
  9
$FILLMODE
 70
     1
  9
$QTEXTMODE
 70
     0
  9
$MIRRTEXT
 70
     1
  9
$DRAGMODE
 70
     2
  9
$LTSCALE
 40
1.0
  9
$OSMODE
 70
    39
  9
$ATTMODE
 70
     1
  9
$TEXTSIZE
 40
2.5
  9
$TRACEWID
 40
1.0
  9
$TEXTSTYLE
  7
STANDARD
  9
$CLAYER
  8
WHEELS
  9
$CELTYPE
  6
BYLAYER
  9
$CECOLOR
 62
   256
  9
$DIMSCALE
 40
1.0
  9
$DIMASZ
 40
2.5
  9
$DIMEXO
 40
0.625
  9
$DIMDLI
 40
3.75
  9
$DIMRND
 40
0.0
  9
$DIMDLE
 40
0.0
  9
$DIMEXE
 40
1.25
  9
$DIMTP
 40
0.0
  9
$DIMTM
 40
0.0
  9
$DIMTXT
 40
2.5
  9
$DIMCEN
 40
2.5
  9
$DIMTSZ
 40
0.0
  9
$DIMTOL
 70
     0
  9
$DIMLIM
 70
     0
  9
$DIMTIH
 70
     0
  9
$DIMTOH
 70
     0
  9
$DIMSE1
 70
     0
  9
$DIMSE2
 70
     0
  9
$DIMTAD
 70
     1
  9
$DIMZIN
 70
     8
  9
$DIMBLK
  1

  9
$DIMASO
 70
     1
  9
$DIMSHO
 70
     1
  9
$DIMPOST
  1

  9
$DIMAPOST
  1

  9
$DIMALT
 70
     0
  9
$DIMALTD
 70
     3
  9
$DIMALTF
 40
0.03937007874016
  9
$DIMLFAC
 40
1.0
  9
$DIMTOFL
 70
     1
  9
$DIMTVP
 40
0.0
  9
$DIMTIX
 70
     0
  9
$DIMSOXD
 70
     0
  9
$DIMSAH
 70
     0
  9
$DIMBLK1
  1

  9
$DIMBLK2
  1

  9
$DIMSTYLE
  2
ISO-25
  9
$DIMCLRD
 70
     0
  9
$DIMCLRE
 70
     0
  9
$DIMCLRT
 70
     0
  9
$DIMTFAC
 40
1.0
  9
$DIMGAP
 40
0.625
  9
$LUNITS
 70
     2
  9
$LUPREC
 70
     4
  9
$SKETCHINC
 40
1.0
  9
$FILLETRAD
 40
10.0
  9
$AUNITS
 70
     0
  9
$AUPREC
 70
     0
  9
$MENU
  1
.
  9
$ELEVATION
 40
0.0
  9
$PELEVATION
 40
0.0
  9
$THICKNESS
 40
0.0
  9
$LIMCHECK
 70
     0
  9
$BLIPMODE
 70
     0
  9
$CHAMFERA
 40
10.0
  9
$CHAMFERB
 40
10.0
  9
$SKPOLY
 70
     0
  9
$TDCREATE
 40
2456848.5688161338
  9
$TDUPDATE
 40
2456848.845510602
  9
$TDINDWG
 40
0.2766945486
  9
$TDUSRTIMER
 40
0.276694537
  9
$USRTIMER
 70
     1
  9
$ANGBASE
 50
0.0
  9
$ANGDIR
 70
     0
  9
$PDMODE
 70
     0
  9
$PDSIZE
 40
0.0
  9
$PLINEWID
 40
0.0
  9
$COORDS
 70
     1
  9
$SPLFRAME
 70
     0
  9
$SPLINETYPE
 70
     6
  9
$SPLINESEGS
 70
     8
  9
$ATTDIA
 70
     1
  9
$ATTREQ
 70
     1
  9
$HANDLING
 70
-16383
  9
$HANDSEED
  5
AF3
  9
$SURFTAB1
 70
     6
  9
$SURFTAB2
 70
     6
  9
$SURFTYPE
 70
     6
  9
$SURFU
 70
     6
  9
$SURFV
 70
     6
  9
$UCSNAME
  2

  9
$UCSORG
 10
0.0
 20
0.0
 30
0.0
  9
$UCSXDIR
 10
0.0
 20
-1.0
 30
0.0
  9
$UCSYDIR
 10
0.0
 20
0.0
 30
1.0
  9
$PUCSNAME
  2

  9
$PUCSORG
 10
0.0
 20
0.0
 30
0.0
  9
$PUCSXDIR
 10
1.0
 20
0.0
 30
0.0
  9
$PUCSYDIR
 10
0.0
 20
1.0
 30
0.0
  9
$USERI1
 70
     0
  9
$USERI2
 70
     0
  9
$USERI3
 70
     0
  9
$USERI4
 70
     0
  9
$USERI5
 70
     0
  9
$USERR1
 40
0.0
  9
$USERR2
 40
0.0
  9
$USERR3
 40
0.0
  9
$USERR4
 40
0.0
  9
$USERR5
 40
0.0
  9
$WORLDVIEW
 70
     1
  9
$SHADEDGE
 70
     3
  9
$SHADEDIF
 70
    70
  9
$TILEMODE
 70
     1
  9
$MAXACTVP
 70
    64
  9
$PLIMCHECK
 70
     0
  9
$PEXTMIN
 10
27.844751262664801
 20
20.161249995231621
 30
0.0
  9
$PEXTMAX
 10
250.60276136398309
 20
181.4512499570846
 30
0.0
  9
$PLIMMIN
 10
-3.757080078125
 20
-3.7570831775665279
  9
$PLIMMAX
 10
293.21124267578119
 20
206.21624445915219
  9
$UNITMODE
 70
     0
  9
$VISRETAIN
 70
     1
  9
$PLINEGEN
 70
     0
  9
$PSLTSCALE
 70
     1
  0
ENDSEC
  0
SECTION
  2
TABLES
  0
TABLE
  2
VPORT
 70
    45
  0
VPORT
  2
*ACTIVE
 70
     0
 10
0.0
 20
0.0
 11
1.0
 21
1.0
 12
1.8814712329555039
 22
0.9495448958321656
 13
0.0
 23
0.0
 14
0.01
 24
0.01
 15
1.0
 25
1.0
 16
-1.0
 26
0.0
 36
0.0
 17
0.0
 27
0.0
 37
0.0
 40
4.1598426000769919
 41
1.8171021377672201
 42
50.0
 43
0.0
 44
0.0
 50
0.0
 51
0.0
 71
     0
 72
   100
 73
     1
 74
     3
 75
     1
 76
     1
 77
     0
 78
     0
  0
ENDTAB
  0
TABLE
  2
LTYPE
 70
     1
  0
LTYPE
  2
CONTINUOUS
 70
     0
  3
Solid line
 72
    65
 73
     0
 40
0.0
  0
ENDTAB
  0
TABLE
  2
LAYER
 70
     5
  0
LAYER
  2
0
 70
     0
 62
     7
  6
CONTINUOUS
  0
LAYER
  2
DRAWING
 70
     0
 62
     9
  6
CONTINUOUS
  0
LAYER
  2
WHEELS
 70
     0
 62
     2
  6
CONTINUOUS
  0
LAYER
  2
FENDERS
 70
     0
 62
     1
  6
CONTINUOUS
  0
ENDTAB
  0
TABLE
  2
STYLE
 70
     1
  0
STYLE
  2
STANDARD
 70
     0
 40
0.0
 41
1.0
 50
0.0
 71
     0
 42
2.5
  3
txt
  4

  0
ENDTAB
  0
TABLE
  2
VIEW
 70
     0
  0
ENDTAB
  0
TABLE
  2
UCS
 70
     0
  0
ENDTAB
  0
TABLE
  2
APPID
 70
     1
  0
APPID
  2
ACAD
 70
     0
  0
ENDTAB
  0
TABLE
  2
DIMSTYLE
 70
     1
  0
DIMSTYLE
  2
ISO-25
 70
     0
  3

  4

  5

  6

  7

 40
1.0
 41
2.5
 42
0.625
 43
3.75
 44
1.25
 45
0.0
 46
0.0
 47
0.0
 48
0.0
140
2.5
141
2.5
142
0.0
143
0.03937007874016
144
1.0
145
0.0
146
1.0
147
0.625
 71
     0
 72
     0
 73
     0
 74
     0
 75
     0
 76
     0
 77
     1
 78
     8
170
     0
171
     3
172
     1
173
     0
174
     0
175
     0
176
     0
177
     0
178
     0
  0
ENDTAB
  0
ENDSEC
  0
SECTION
  2
BLOCKS
  0
BLOCK
  8
0
  2
$MODEL_SPACE
 70
     0
 10
0.0
 20
0.0
 30
0.0
  3
$MODEL_SPACE
  1

  0
ENDBLK
  5
21
  8
0
  0
BLOCK
 67
     1
  8
0
  2
$PAPER_SPACE
 70
     0
 10
0.0
 20
0.0
 30
0.0
  3
$PAPER_SPACE
  1

  0
ENDBLK
  5
1D
 67
     1
  8
0
  0
ENDSEC
  0
SECTION
  2
ENTITIES
  0
3DFACE
  5
2C8
  8
WHEELS
 10
-0.8099999999999997
 20
0.1697056274847712
 30
-0.1697056274847714
 11
-0.8099999999999997
 21
0.0
 31
-0.24
 12
-0.8599999999999997
 22
0.0
 32
-0.18
 13
-0.8599999999999997
 23
0.1272792206135787
 33
-0.1272792206135785
  0
3DFACE
  5
2C9
  8
WHEELS
 10
-0.8099999999999997
 20
0.0
 30
-0.24
 11
-0.8099999999999999
 21
-0.1697056274847712
 31
-0.1697056274847714
 12
-0.8599999999999997
 22
-0.1272792206135787
 32
-0.1272792206135786
 13
-0.8599999999999997
 23
0.0
 33
-0.18
  0
3DFACE
  5
2CA
  8
WHEELS
 10
-0.8399999999999996
 20
0.3600000000000003
 30
0.0
 11
-0.8399999999999996
 21
0.2545584412271573
 31
-0.254558441227157
 12
-0.8099999999999997
 22
0.2262741699796953
 32
-0.2262741699796952
 13
-0.8099999999999997
 23
0.3200000000000003
 33
0.0
  0
3DFACE
  5
2CB
  8
WHEELS
 10
-0.84
 20
-0.2545584412271569
 30
-0.254558441227157
 11
-0.84
 21
-0.3599999999999999
 31
-0.0000000000000001
 12
-0.8099999999999999
 22
-0.3199999999999998
 32
-0.0000000000000001
 13
-0.8099999999999999
 23
-0.2262741699796953
 33
-0.2262741699796952
  0
3DFACE
  5
2CC
  8
WHEELS
 10
-0.8099999999999997
 20
0.4500000000000002
 30
0.0000000000000001
 11
-0.8099999999999997
 21
0.3181980515339466
 31
-0.3181980515339464
 12
-0.8399999999999996
 22
0.2899137802864846
 32
-0.2899137802864844
 13
-0.8399999999999996
 23
0.4100000000000002
 33
0.0000000000000001
  0
3DFACE
  5
2CD
  8
WHEELS
 10
-0.8099999999999999
 20
-0.3181980515339462
 30
-0.3181980515339465
 11
-0.8099999999999999
 21
-0.4500000000000002
 31
0.0
 12
-0.84
 22
-0.4100000000000002
 32
0.0
 13
-0.84
 23
-0.2899137802864842
 33
-0.2899137802864844
  0
3DFACE
  5
2CE
  8
WHEELS
 10
-0.6899999999999997
 20
0.4500000000000002
 30
0.0000000000000001
 11
-0.6899999999999997
 21
0.3181980515339466
 31
-0.3181980515339464
 12
-0.8099999999999997
 22
0.3181980515339466
 32
-0.3181980515339464
 13
-0.8099999999999997
 23
0.4500000000000002
 33
0.0000000000000001
  0
3DFACE
  5
2CF
  8
WHEELS
 10
-0.69
 20
-0.3181980515339462
 30
-0.3181980515339465
 11
-0.69
 21
-0.4500000000000002
 31
0.0
 12
-0.8099999999999999
 22
-0.4500000000000002
 32
0.0
 13
-0.8099999999999999
 23
-0.3181980515339462
 33
-0.3181980515339465
  0
3DFACE
  5
2D0
  8
WHEELS
 10
-0.8099999999999997
 20
0.3200000000000003
 30
0.0000000000000002
 11
-0.8099999999999997
 21
0.2262741699796953
 31
-0.226274169979695
 12
-0.8099999999999997
 22
0.1697056274847712
 32
-0.1697056274847712
 13
-0.8099999999999997
 23
0.2400000000000002
 33
0.0000000000000002
  0
3DFACE
  5
2D1
  8
WHEELS
 10
-0.8399999999999996
 20
0.4099999999999997
 30
0.0000000000000002
 11
-0.8399999999999996
 21
0.2899137802864846
 31
-0.2899137802864842
 12
-0.8399999999999996
 22
0.2545584412271573
 32
-0.2545584412271569
 13
-0.8399999999999996
 23
0.3599999999999999
 33
0.0000000000000003
  0
3DFACE
  5
2D2
  8
WHEELS
 10
-0.8099999999999997
 20
0.2262741699796953
 30
-0.2262741699796951
 11
-0.8099999999999997
 21
0.0
 31
-0.3200000000000001
 12
-0.8099999999999997
 22
0.0
 32
-0.24
 13
-0.8099999999999997
 23
0.1697056274847712
 33
-0.1697056274847714
  0
3DFACE
  5
2D3
  8
WHEELS
 10
-0.8099999999999997
 20
0.0000000000000004
 30
-0.32
 11
-0.8099999999999999
 21
-0.2262741699796948
 31
-0.2262741699796952
 12
-0.8099999999999999
 22
-0.1697056274847712
 32
-0.1697056274847714
 13
-0.8099999999999997
 23
0.0
 33
-0.24
  0
3DFACE
  5
2D4
  8
WHEELS
 10
-0.8099999999999999
 20
-0.2262741699796948
 30
-0.2262741699796955
 11
-0.8099999999999999
 21
-0.3199999999999998
 31
-0.0000000000000003
 12
-0.8099999999999999
 22
-0.2399999999999998
 32
-0.0000000000000002
 13
-0.8099999999999999
 23
-0.1697056274847712
 33
-0.1697056274847715
  0
3DFACE
  5
2D5
  8
WHEELS
 10
-0.84
 20
-0.2899137802864842
 30
-0.2899137802864847
 11
-0.84
 21
-0.4100000000000002
 31
-0.0000000000000004
 12
-0.8399999999999998
 22
-0.3599999999999999
 32
-0.0000000000000004
 13
-0.8399999999999998
 23
-0.2545584412271569
 33
-0.2545584412271574
  0
3DFACE
  5
2D6
  8
WHEELS
 10
-0.6600000000000003
 20
-0.2899137802864846
 30
-0.2899137802864844
 11
-0.6600000000000001
 21
0.0
 31
-0.4100000000000001
 12
-0.66
 22
0.2899137802864846
 32
-0.2899137802864844
 13
-0.6600000000000003
 23
-0.4100000000000002
 33
0.0000000000000001
  0
3DFACE
  5
2D7
  8
WHEELS
 10
-0.6600000000000003
 20
-0.2899137802864842
 30
0.2899137802864846
 11
-0.6600000000000003
 21
-0.4100000000000002
 31
0.0000000000000001
 12
-0.66
 22
0.2899137802864846
 32
-0.2899137802864844
 13
-0.66
 23
0.4100000000000002
 33
0.0
  0
3DFACE
  5
2D8
  8
WHEELS
 10
-0.6899999999999997
 20
0.3181980515339466
 30
-0.3181980515339465
 11
-0.6899999999999997
 21
0.4500000000000002
 31
0.0
 12
-0.66
 22
0.4100000000000002
 32
0.0
 13
-0.66
 23
0.2899137802864846
 33
-0.2899137802864844
  0
3DFACE
  5
2D9
  8
WHEELS
 10
-0.69
 20
-0.4500000000000002
 30
0.0000000000000001
 11
-0.69
 21
-0.3181980515339466
 31
-0.3181980515339464
 12
-0.6600000000000003
 22
-0.2899137802864846
 32
-0.2899137802864844
 13
-0.6600000000000003
 23
-0.4100000000000002
 33
0.0000000000000001
  0
3DFACE
  5
2DA
  8
WHEELS
 10
0.8099999999999999
 20
-0.1697056274847712
 30
-0.1697056274847714
 11
0.8100000000000001
 21
0.0
 31
-0.24
 12
0.8599999999999999
 22
0.0
 32
-0.18
 13
0.8599999999999997
 23
-0.1272792206135787
 33
-0.1272792206135785
  0
3DFACE
  5
2DB
  8
WHEELS
 10
0.8100000000000001
 20
0.0
 30
-0.24
 11
0.8100000000000001
 21
0.1697056274847712
 31
-0.1697056274847714
 12
0.8599999999999999
 22
0.1272792206135787
 32
-0.1272792206135786
 13
0.8599999999999999
 23
0.0
 33
-0.18
  0
3DFACE
  5
2DC
  8
WHEELS
 10
0.84
 20
-0.3599999999999999
 30
0.0
 11
0.84
 21
-0.2545584412271569
 31
-0.254558441227157
 12
0.8099999999999999
 22
-0.2262741699796953
 32
-0.2262741699796952
 13
0.8099999999999999
 23
-0.3199999999999998
 33
0.0
  0
3DFACE
  5
2DD
  8
WHEELS
 10
0.84
 20
0.2545584412271573
 30
-0.254558441227157
 11
0.84
 21
0.3600000000000003
 31
-0.0000000000000001
 12
0.8100000000000001
 22
0.3200000000000003
 32
-0.0000000000000001
 13
0.8100000000000001
 23
0.2262741699796953
 33
-0.2262741699796952
  0
3DFACE
  5
2DE
  8
WHEELS
 10
0.8099999999999999
 20
-0.4500000000000002
 30
0.0000000000000001
 11
0.8099999999999999
 21
-0.3181980515339462
 31
-0.3181980515339464
 12
0.84
 22
-0.2899137802864846
 32
-0.2899137802864844
 13
0.84
 23
-0.4100000000000002
 33
0.0000000000000001
  0
3DFACE
  5
2DF
  8
WHEELS
 10
0.8100000000000001
 20
0.3181980515339466
 30
-0.3181980515339465
 11
0.8100000000000001
 21
0.4500000000000002
 31
0.0
 12
0.84
 22
0.4100000000000002
 32
0.0
 13
0.84
 23
0.2899137802864846
 33
-0.2899137802864844
  0
3DFACE
  5
2E0
  8
WHEELS
 10
0.69
 20
-0.4500000000000002
 30
0.0000000000000001
 11
0.69
 21
-0.3181980515339462
 31
-0.3181980515339464
 12
0.8099999999999999
 22
-0.3181980515339462
 32
-0.3181980515339464
 13
0.8099999999999999
 23
-0.4500000000000002
 33
0.0000000000000001
  0
3DFACE
  5
2E1
  8
WHEELS
 10
0.6900000000000001
 20
0.3181980515339466
 30
-0.3181980515339465
 11
0.6900000000000001
 21
0.4500000000000002
 31
0.0
 12
0.8100000000000001
 22
0.4500000000000002
 32
0.0
 13
0.8100000000000001
 23
0.3181980515339466
 33
-0.3181980515339465
  0
3DFACE
  5
2E2
  8
WHEELS
 10
0.8099999999999999
 20
-0.3199999999999998
 30
0.0000000000000002
 11
0.8099999999999999
 21
-0.2262741699796953
 31
-0.226274169979695
 12
0.8099999999999999
 22
-0.1697056274847712
 32
-0.1697056274847712
 13
0.8099999999999999
 23
-0.2400000000000002
 33
0.0000000000000002
  0
3DFACE
  5
2E3
  8
WHEELS
 10
0.8399999999999998
 20
-0.4099999999999997
 30
0.0000000000000002
 11
0.8399999999999998
 21
-0.2899137802864846
 31
-0.2899137802864842
 12
0.8399999999999998
 22
-0.2545584412271573
 32
-0.2545584412271569
 13
0.8399999999999998
 23
-0.3599999999999999
 33
0.0000000000000003
  0
3DFACE
  5
2E4
  8
WHEELS
 10
0.8099999999999999
 20
-0.2262741699796953
 30
-0.2262741699796951
 11
0.8100000000000001
 21
0.0
 31
-0.3200000000000001
 12
0.8100000000000001
 22
0.0
 32
-0.24
 13
0.8099999999999999
 23
-0.1697056274847712
 33
-0.1697056274847714
  0
3DFACE
  5
2E5
  8
WHEELS
 10
0.8100000000000001
 20
0.0
 30
-0.32
 11
0.8100000000000001
 21
0.2262741699796953
 31
-0.2262741699796952
 12
0.8100000000000001
 22
0.1697056274847712
 32
-0.1697056274847714
 13
0.8100000000000001
 23
0.0
 33
-0.24
  0
3DFACE
  5
2E6
  8
WHEELS
 10
0.8100000000000001
 20
0.2262741699796953
 30
-0.2262741699796955
 11
0.8100000000000001
 21
0.3200000000000003
 31
-0.0000000000000003
 12
0.8100000000000001
 22
0.2400000000000002
 32
-0.0000000000000002
 13
0.8100000000000001
 23
0.1697056274847712
 33
-0.1697056274847715
  0
3DFACE
  5
2E7
  8
WHEELS
 10
0.84
 20
0.2899137802864842
 30
-0.2899137802864847
 11
0.84
 21
0.4100000000000002
 31
-0.0000000000000004
 12
0.84
 22
0.3600000000000003
 32
-0.0000000000000004
 13
0.84
 23
0.2545584412271569
 33
-0.2545584412271574
  0
3DFACE
  5
2E8
  8
WHEELS
 10
0.6600000000000003
 20
0.2899137802864846
 30
-0.2899137802864844
 11
0.6600000000000003
 21
0.0
 31
-0.4100000000000001
 12
0.6600000000000003
 22
-0.2899137802864842
 32
-0.2899137802864844
 13
0.6600000000000003
 23
0.4100000000000002
 33
0.0000000000000001
  0
3DFACE
  5
2E9
  8
WHEELS
 10
0.6600000000000003
 20
0.2899137802864846
 30
0.2899137802864846
 11
0.6600000000000003
 21
0.4100000000000002
 31
0.0000000000000001
 12
0.6600000000000003
 22
-0.2899137802864842
 32
-0.2899137802864844
 13
0.6600000000000003
 23
-0.4100000000000002
 33
0.0
  0
3DFACE
  5
2EA
  8
WHEELS
 10
0.69
 20
-0.3181980515339462
 30
-0.3181980515339465
 11
0.69
 21
-0.4500000000000002
 31
0.0
 12
0.6600000000000003
 22
-0.4100000000000002
 32
0.0
 13
0.6600000000000003
 23
-0.2899137802864842
 33
-0.2899137802864844
  0
3DFACE
  5
2EB
  8
WHEELS
 10
0.6900000000000001
 20
0.4500000000000002
 30
0.0000000000000001
 11
0.6900000000000001
 21
0.3181980515339466
 31
-0.3181980515339464
 12
0.6600000000000003
 22
0.2899137802864846
 32
-0.2899137802864844
 13
0.6600000000000003
 23
0.4100000000000002
 33
0.0000000000000001
  0
3DFACE
  5
2EC
  8
WHEELS
 10
-0.8099999999999997
 20
0.3181980515339466
 30
-0.3181980515339464
 11
-0.8099999999999997
 21
0.0
 31
-0.45
 12
-0.8399999999999998
 22
0.0
 32
-0.41
 13
-0.8399999999999996
 23
0.2899137802864846
 33
-0.2899137802864844
  0
3DFACE
  5
2ED
  8
WHEELS
 10
-0.8099999999999997
 20
0.0
 30
-0.45
 11
-0.8099999999999999
 21
-0.3181980515339462
 31
-0.3181980515339465
 12
-0.84
 22
-0.2899137802864842
 32
-0.2899137802864844
 13
-0.8399999999999998
 23
0.0
 33
-0.41
  0
3DFACE
  5
2EE
  8
WHEELS
 10
-0.6899999999999997
 20
0.3181980515339466
 30
-0.3181980515339464
 11
-0.69
 21
0.0
 31
-0.45
 12
-0.8099999999999997
 22
0.0
 32
-0.45
 13
-0.8099999999999997
 23
0.3181980515339466
 33
-0.3181980515339464
  0
3DFACE
  5
2EF
  8
WHEELS
 10
-0.69
 20
0.0
 30
-0.45
 11
-0.69
 21
-0.3181980515339462
 31
-0.3181980515339465
 12
-0.8099999999999999
 22
-0.3181980515339462
 32
-0.3181980515339465
 13
-0.8099999999999997
 23
0.0
 33
-0.45
  0
3DFACE
  5
2F0
  8
WHEELS
 10
-0.8399999999999996
 20
0.2899137802864846
 30
-0.2899137802864844
 11
-0.8399999999999998
 21
0.0
 31
-0.4100000000000001
 12
-0.8399999999999996
 22
0.0
 32
-0.3600000000000001
 13
-0.8399999999999996
 23
0.2545584412271573
 33
-0.2545584412271569
  0
3DFACE
  5
2F1
  8
WHEELS
 10
-0.8399999999999998
 20
0.0000000000000004
 30
-0.4099999999999998
 11
-0.84
 21
-0.2899137802864842
 31
-0.2899137802864846
 12
-0.8399999999999998
 22
-0.2545584412271569
 32
-0.2545584412271573
 13
-0.8399999999999996
 23
0.0000000000000004
 33
-0.3599999999999999
  0
3DFACE
  5
2F2
  8
WHEELS
 10
-0.69
 20
0.0
 30
-0.45
 11
-0.6899999999999997
 21
0.3181980515339466
 31
-0.3181980515339465
 12
-0.66
 22
0.2899137802864846
 32
-0.2899137802864844
 13
-0.6600000000000001
 23
0.0
 33
-0.41
  0
3DFACE
  5
2F3
  8
WHEELS
 10
-0.69
 20
-0.3181980515339466
 30
-0.3181980515339464
 11
-0.69
 21
0.0
 31
-0.45
 12
-0.6600000000000001
 22
0.0
 32
-0.41
 13
-0.6600000000000003
 23
-0.2899137802864846
 33
-0.2899137802864844
  0
3DFACE
  5
2F4
  8
WHEELS
 10
0.8099999999999999
 20
-0.3181980515339462
 30
-0.3181980515339464
 11
0.8100000000000001
 21
0.0
 31
-0.45
 12
0.84
 22
0.0
 32
-0.41
 13
0.84
 23
-0.2899137802864846
 33
-0.2899137802864844
  0
3DFACE
  5
2F5
  8
WHEELS
 10
0.8100000000000001
 20
0.0
 30
-0.45
 11
0.8100000000000001
 21
0.3181980515339466
 31
-0.3181980515339465
 12
0.84
 22
0.2899137802864846
 32
-0.2899137802864844
 13
0.84
 23
0.0
 33
-0.41
  0
3DFACE
  5
2F6
  8
WHEELS
 10
0.69
 20
-0.3181980515339462
 30
-0.3181980515339464
 11
0.6900000000000001
 21
0.0
 31
-0.45
 12
0.8100000000000001
 22
0.0
 32
-0.45
 13
0.8099999999999999
 23
-0.3181980515339462
 33
-0.3181980515339464
  0
3DFACE
  5
2F7
  8
WHEELS
 10
0.6900000000000001
 20
0.0
 30
-0.45
 11
0.6900000000000001
 21
0.3181980515339466
 31
-0.3181980515339465
 12
0.8100000000000001
 22
0.3181980515339466
 32
-0.3181980515339465
 13
0.8100000000000001
 23
0.0
 33
-0.45
  0
3DFACE
  5
2F8
  8
WHEELS
 10
0.84
 20
-0.2899137802864846
 30
-0.2899137802864844
 11
0.84
 21
0.0
 31
-0.4100000000000001
 12
0.84
 22
0.0
 32
-0.3600000000000001
 13
0.8399999999999998
 23
-0.2545584412271573
 33
-0.2545584412271569
  0
3DFACE
  5
2F9
  8
WHEELS
 10
0.84
 20
0.0
 30
-0.4099999999999998
 11
0.84
 21
0.2899137802864846
 31
-0.2899137802864846
 12
0.84
 22
0.2545584412271569
 32
-0.2545584412271573
 13
0.84
 23
-0.0000000000000004
 33
-0.3599999999999999
  0
3DFACE
  5
2FA
  8
WHEELS
 10
0.6900000000000001
 20
0.0
 30
-0.45
 11
0.69
 21
-0.3181980515339462
 31
-0.3181980515339465
 12
0.6600000000000003
 22
-0.2899137802864842
 32
-0.2899137802864844
 13
0.6600000000000003
 23
0.0
 33
-0.41
  0
3DFACE
  5
2FB
  8
WHEELS
 10
0.6900000000000001
 20
0.3181980515339466
 30
-0.3181980515339464
 11
0.6900000000000001
 21
0.0
 31
-0.45
 12
0.6600000000000003
 22
0.0
 32
-0.41
 13
0.6600000000000003
 23
0.2899137802864846
 33
-0.2899137802864844
  0
3DFACE
  5
2FC
  8
WHEELS
 10
0.84
 20
-0.2545584412271569
 30
-0.254558441227157
 11
0.84
 21
0.0
 31
-0.36
 12
0.8100000000000001
 22
0.0
 32
-0.32
 13
0.8099999999999999
 23
-0.2262741699796953
 33
-0.2262741699796952
  0
3DFACE
  5
2FD
  8
WHEELS
 10
0.84
 20
0.0
 30
-0.36
 11
0.84
 21
0.2545584412271573
 31
-0.254558441227157
 12
0.8100000000000001
 22
0.2262741699796953
 32
-0.2262741699796952
 13
0.8100000000000001
 23
0.0
 33
-0.32
  0
3DFACE
  5
2FE
  8
WHEELS
 10
-0.8399999999999996
 20
0.2545584412271573
 30
-0.254558441227157
 11
-0.8399999999999998
 21
0.0
 31
-0.36
 12
-0.8099999999999997
 22
0.0
 32
-0.32
 13
-0.8099999999999997
 23
0.2262741699796953
 33
-0.2262741699796952
  0
3DFACE
  5
2FF
  8
WHEELS
 10
-0.8399999999999998
 20
0.0
 30
-0.36
 11
-0.84
 21
-0.2545584412271569
 31
-0.254558441227157
 12
-0.8099999999999999
 22
-0.2262741699796953
 32
-0.2262741699796952
 13
-0.8099999999999997
 23
0.0
 33
-0.32
  0
3DFACE
  5
300
  8
WHEELS
 10
-0.8099999999999999
 20
-0.1697056274847712
 30
0.1697056274847714
 11
-0.8099999999999997
 21
0.0
 31
0.2399999999999999
 12
-0.8599999999999997
 22
0.0
 32
0.18
 13
-0.8599999999999997
 23
-0.1272792206135787
 33
0.1272792206135786
  0
3DFACE
  5
301
  8
WHEELS
 10
-0.8099999999999997
 20
0.0
 30
0.2399999999999999
 11
-0.8099999999999997
 21
0.1697056274847712
 31
0.1697056274847714
 12
-0.8599999999999997
 22
0.1272792206135787
 32
0.1272792206135786
 13
-0.8599999999999997
 23
0.0
 33
0.18
  0
3DFACE
  5
302
  8
WHEELS
 10
-0.84
 20
-0.3599999999999999
 30
-0.0000000000000001
 11
-0.8399999999999998
 21
-0.2545584412271573
 31
0.254558441227157
 12
-0.8099999999999999
 22
-0.2262741699796953
 32
0.2262741699796952
 13
-0.8099999999999999
 23
-0.3199999999999998
 33
-0.0000000000000001
  0
3DFACE
  5
303
  8
WHEELS
 10
-0.8399999999999996
 20
0.2545584412271573
 30
0.2545584412271571
 11
-0.8399999999999996
 21
0.3600000000000003
 31
0.0
 12
-0.8099999999999997
 22
0.3200000000000003
 32
0.0
 13
-0.8099999999999997
 23
0.2262741699796953
 33
0.2262741699796952
  0
3DFACE
  5
304
  8
WHEELS
 10
-0.8099999999999999
 20
-0.4500000000000002
 30
0.0
 11
-0.8099999999999999
 21
-0.3181980515339462
 31
0.3181980515339464
 12
-0.84
 22
-0.2899137802864846
 32
0.2899137802864844
 13
-0.84
 23
-0.4100000000000002
 33
0.0
  0
3DFACE
  5
305
  8
WHEELS
 10
-0.8099999999999997
 20
0.3181980515339466
 30
0.3181980515339464
 11
-0.8099999999999997
 21
0.4500000000000002
 31
0.0000000000000001
 12
-0.8399999999999996
 22
0.4100000000000002
 32
0.0000000000000001
 13
-0.8399999999999996
 23
0.2899137802864846
 33
0.2899137802864846
  0
3DFACE
  5
306
  8
WHEELS
 10
-0.69
 20
-0.4500000000000002
 30
0.0
 11
-0.69
 21
-0.3181980515339462
 31
0.3181980515339464
 12
-0.8099999999999999
 22
-0.3181980515339462
 32
0.3181980515339464
 13
-0.8099999999999999
 23
-0.4500000000000002
 33
0.0
  0
3DFACE
  5
307
  8
WHEELS
 10
-0.6899999999999997
 20
0.3181980515339466
 30
0.3181980515339464
 11
-0.6899999999999997
 21
0.4500000000000002
 31
0.0000000000000001
 12
-0.8099999999999997
 22
0.4500000000000002
 32
0.0000000000000001
 13
-0.8099999999999997
 23
0.3181980515339466
 33
0.3181980515339464
  0
3DFACE
  5
308
  8
WHEELS
 10
-0.8099999999999999
 20
-0.2262741699796953
 30
0.2262741699796952
 11
-0.8099999999999997
 21
0.0
 31
0.32
 12
-0.8099999999999997
 22
0.0
 32
0.2399999999999999
 13
-0.8099999999999999
 23
-0.1697056274847712
 33
0.1697056274847714
  0
3DFACE
  5
309
  8
WHEELS
 10
-0.8099999999999997
 20
0.0
 30
0.32
 11
-0.8099999999999997
 21
0.2262741699796953
 31
0.2262741699796952
 12
-0.8099999999999997
 22
0.1697056274847712
 32
0.1697056274847714
 13
-0.8099999999999997
 23
0.0
 33
0.2400000000000002
  0
3DFACE
  5
30A
  8
WHEELS
 10
-0.8099999999999997
 20
0.2262741699796953
 30
0.2262741699796953
 11
-0.8099999999999997
 21
0.3200000000000003
 31
0.0000000000000002
 12
-0.8099999999999997
 22
0.2400000000000002
 32
0.0000000000000001
 13
-0.8099999999999997
 23
0.1697056274847712
 33
0.1697056274847715
  0
3DFACE
  5
30B
  8
WHEELS
 10
-0.8399999999999996
 20
0.2899137802864846
 30
0.2899137802864846
 11
-0.8399999999999996
 21
0.4100000000000002
 31
0.0000000000000001
 12
-0.8399999999999996
 22
0.3600000000000003
 32
0.0000000000000002
 13
-0.8399999999999996
 23
0.2545584412271569
 33
0.2545584412271573
  0
3DFACE
  5
30C
  8
WHEELS
 10
-0.8099999999999999
 20
-0.3199999999999998
 30
-0.0000000000000003
 11
-0.8099999999999999
 21
-0.2262741699796953
 31
0.226274169979695
 12
-0.8099999999999999
 22
-0.1697056274847712
 32
0.1697056274847712
 13
-0.8099999999999999
 23
-0.2399999999999998
 33
-0.0000000000000003
  0
3DFACE
  5
30D
  8
WHEELS
 10
-0.84
 20
-0.4099999999999997
 30
-0.0000000000000004
 11
-0.84
 21
-0.2899137802864846
 31
0.2899137802864841
 12
-0.8399999999999998
 22
-0.2545584412271573
 32
0.2545584412271568
 13
-0.8399999999999998
 23
-0.3599999999999999
 33
-0.0000000000000005
  0
3DFACE
  5
30E
  8
WHEELS
 10
-0.66
 20
0.2899137802864846
 30
0.2899137802864844
 11
-0.6600000000000001
 21
0.0
 31
0.41
 12
-0.6600000000000003
 22
-0.2899137802864842
 32
0.2899137802864846
 13
-0.66
 23
0.4100000000000002
 33
0.0
  0
3DFACE
  5
30F
  8
WHEELS
 10
-0.69
 20
-0.3181980515339462
 30
0.3181980515339464
 11
-0.69
 21
-0.4500000000000002
 31
0.0000000000000001
 12
-0.6600000000000003
 22
-0.4100000000000002
 32
0.0000000000000001
 13
-0.6600000000000003
 23
-0.2899137802864846
 33
0.2899137802864846
  0
3DFACE
  5
310
  8
WHEELS
 10
-0.6899999999999997
 20
0.4500000000000002
 30
0.0
 11
-0.6899999999999997
 21
0.3181980515339466
 31
0.3181980515339464
 12
-0.66
 22
0.2899137802864846
 32
0.2899137802864844
 13
-0.66
 23
0.4100000000000002
 33
0.0
  0
3DFACE
  5
311
  8
WHEELS
 10
0.8100000000000001
 20
0.1697056274847712
 30
0.1697056274847714
 11
0.8100000000000001
 21
0.0
 31
0.2399999999999999
 12
0.8599999999999999
 22
0.0
 32
0.18
 13
0.8599999999999999
 23
0.1272792206135787
 33
0.1272792206135786
  0
3DFACE
  5
312
  8
WHEELS
 10
0.8100000000000001
 20
0.0
 30
0.2399999999999999
 11
0.8099999999999999
 21
-0.1697056274847712
 31
0.1697056274847714
 12
0.8599999999999997
 22
-0.1272792206135787
 32
0.1272792206135786
 13
0.8599999999999999
 23
0.0
 33
0.18
  0
3DFACE
  5
313
  8
WHEELS
 10
0.84
 20
0.3600000000000003
 30
-0.0000000000000001
 11
0.84
 21
0.2545584412271573
 31
0.254558441227157
 12
0.8100000000000001
 22
0.2262741699796953
 32
0.2262741699796952
 13
0.8100000000000001
 23
0.3200000000000003
 33
-0.0000000000000001
  0
3DFACE
  5
314
  8
WHEELS
 10
0.8399999999999998
 20
-0.2545584412271569
 30
0.2545584412271571
 11
0.84
 21
-0.3599999999999999
 31
0.0
 12
0.8099999999999999
 22
-0.3199999999999998
 32
0.0
 13
0.8099999999999999
 23
-0.2262741699796953
 33
0.2262741699796952
  0
3DFACE
  5
315
  8
WHEELS
 10
0.8100000000000001
 20
0.4500000000000002
 30
0.0
 11
0.8100000000000001
 21
0.3181980515339466
 31
0.3181980515339464
 12
0.84
 22
0.2899137802864846
 32
0.2899137802864844
 13
0.84
 23
0.4100000000000002
 33
0.0
  0
3DFACE
  5
316
  8
WHEELS
 10
0.8099999999999999
 20
-0.3181980515339462
 30
0.3181980515339464
 11
0.8099999999999999
 21
-0.4500000000000002
 31
0.0000000000000001
 12
0.84
 22
-0.4100000000000002
 32
0.0000000000000001
 13
0.84
 23
-0.2899137802864846
 33
0.2899137802864846
  0
3DFACE
  5
317
  8
WHEELS
 10
0.6900000000000001
 20
0.4500000000000002
 30
0.0
 11
0.6900000000000001
 21
0.3181980515339466
 31
0.3181980515339464
 12
0.8100000000000001
 22
0.3181980515339466
 32
0.3181980515339464
 13
0.8100000000000001
 23
0.4500000000000002
 33
0.0
  0
3DFACE
  5
318
  8
WHEELS
 10
0.69
 20
-0.3181980515339462
 30
0.3181980515339464
 11
0.69
 21
-0.4500000000000002
 31
0.0000000000000001
 12
0.8099999999999999
 22
-0.4500000000000002
 32
0.0000000000000001
 13
0.8099999999999999
 23
-0.3181980515339462
 33
0.3181980515339464
  0
3DFACE
  5
319
  8
WHEELS
 10
0.8100000000000001
 20
0.2262741699796953
 30
0.2262741699796952
 11
0.8100000000000001
 21
0.0
 31
0.32
 12
0.8100000000000001
 22
0.0
 32
0.2399999999999999
 13
0.8100000000000001
 23
0.1697056274847712
 33
0.1697056274847714
  0
3DFACE
  5
31A
  8
WHEELS
 10
0.8100000000000001
 20
0.0
 30
0.32
 11
0.8099999999999999
 21
-0.2262741699796953
 31
0.2262741699796952
 12
0.8099999999999999
 22
-0.1697056274847712
 32
0.1697056274847714
 13
0.8100000000000001
 23
0.0
 33
0.2400000000000002
  0
3DFACE
  5
31B
  8
WHEELS
 10
0.8099999999999999
 20
-0.2262741699796953
 30
0.2262741699796953
 11
0.8099999999999999
 21
-0.3199999999999998
 31
0.0000000000000002
 12
0.8099999999999999
 22
-0.2399999999999998
 32
0.0000000000000001
 13
0.8099999999999999
 23
-0.1697056274847712
 33
0.1697056274847715
  0
3DFACE
  5
31C
  8
WHEELS
 10
0.84
 20
-0.2899137802864842
 30
0.2899137802864846
 11
0.84
 21
-0.4100000000000002
 31
0.0000000000000001
 12
0.8399999999999998
 22
-0.3599999999999999
 32
0.0000000000000002
 13
0.8399999999999998
 23
-0.2545584412271569
 33
0.2545584412271573
  0
3DFACE
  5
31D
  8
WHEELS
 10
0.8100000000000001
 20
0.3200000000000003
 30
-0.0000000000000003
 11
0.8100000000000001
 21
0.2262741699796953
 31
0.226274169979695
 12
0.8100000000000001
 22
0.1697056274847712
 32
0.1697056274847712
 13
0.8100000000000001
 23
0.2400000000000002
 33
-0.0000000000000003
  0
3DFACE
  5
31E
  8
WHEELS
 10
0.84
 20
0.4100000000000002
 30
-0.0000000000000004
 11
0.84
 21
0.2899137802864846
 31
0.2899137802864841
 12
0.84
 22
0.2545584412271573
 32
0.2545584412271568
 13
0.84
 23
0.3599999999999999
 33
-0.0000000000000005
  0
3DFACE
  5
31F
  8
WHEELS
 10
0.6600000000000003
 20
-0.2899137802864846
 30
0.2899137802864844
 11
0.6600000000000003
 21
0.0
 31
0.41
 12
0.6600000000000003
 22
0.2899137802864846
 32
0.2899137802864846
 13
0.6600000000000003
 23
-0.4100000000000002
 33
0.0
  0
3DFACE
  5
320
  8
WHEELS
 10
0.6900000000000001
 20
0.3181980515339466
 30
0.3181980515339464
 11
0.6900000000000001
 21
0.4500000000000002
 31
0.0000000000000001
 12
0.6600000000000003
 22
0.4100000000000002
 32
0.0000000000000001
 13
0.6600000000000003
 23
0.2899137802864846
 33
0.2899137802864846
  0
3DFACE
  5
321
  8
WHEELS
 10
0.69
 20
-0.4500000000000002
 30
0.0
 11
0.69
 21
-0.3181980515339462
 31
0.3181980515339464
 12
0.6600000000000003
 22
-0.2899137802864846
 32
0.2899137802864844
 13
0.6600000000000003
 23
-0.4100000000000002
 33
0.0
  0
3DFACE
  5
322
  8
WHEELS
 10
-0.66
 20
0.0249999999999999
 30
-0.043301270189222
 11
-0.66
 21
0.0499999999999998
 31
0.0
 12
0.6600000000000003
 22
0.0499999999999998
 32
0.0
 13
0.6600000000000003
 23
0.0249999999999999
 33
-0.043301270189222
  0
3DFACE
  5
323
  8
WHEELS
 10
-0.6600000000000001
 20
-0.0499999999999998
 30
0.0
 11
-0.6600000000000001
 21
-0.0249999999999999
 31
-0.0433012701892219
 12
0.6600000000000001
 22
-0.0249999999999999
 32
-0.0433012701892219
 13
0.6600000000000001
 23
-0.0499999999999998
 33
0.0
  0
3DFACE
  5
324
  8
WHEELS
 10
-0.8099999999999997
 20
0.2400000000000002
 30
0.0000000000000001
 11
-0.8099999999999997
 21
0.1697056274847712
 31
-0.1697056274847714
 12
-0.8599999999999997
 22
0.1272792206135787
 32
-0.1272792206135785
 13
-0.8599999999999997
 23
0.1800000000000002
 33
0.0
  0
3DFACE
  5
325
  8
WHEELS
 10
-0.8099999999999999
 20
-0.1697056274847712
 30
-0.1697056274847714
 11
-0.8099999999999999
 21
-0.2399999999999998
 31
0.0
 12
-0.8599999999999997
 22
-0.1799999999999997
 32
0.0
 13
-0.8599999999999997
 23
-0.1272792206135787
 33
-0.1272792206135786
  0
3DFACE
  5
326
  8
WHEELS
 10
-0.8599999999999997
 20
0.04
 30
0.0
 11
-0.8599999999999997
 21
0.02
 31
-0.0346410161513776
 12
-0.8799999999999997
 22
0.02
 32
-0.0346410161513776
 13
-0.8799999999999997
 23
0.04
 33
0.0
  0
3DFACE
  5
327
  8
WHEELS
 10
-0.8599999999999999
 20
-0.02
 30
-0.0346410161513776
 11
-0.8599999999999999
 21
-0.04
 31
0.0
 12
-0.8799999999999998
 22
-0.04
 32
0.0
 13
-0.8799999999999998
 23
-0.02
 33
-0.0346410161513776
  0
3DFACE
  5
328
  8
WHEELS
 10
-0.8599999999999997
 20
-0.1799999999999997
 30
0.0
 11
-0.8599999999999997
 21
0.1272792206135787
 31
0.1272792206135786
 12
-0.8599999999999997
 22
0.1800000000000002
 32
0.0
 13
-0.8599999999999997
 23
-0.1272792206135787
 33
-0.1272792206135786
  0
3DFACE
  5
329
  8
WHEELS
 10
-0.8599999999999997
 20
-0.1272792206135787
 30
-0.1272792206135786
 11
-0.8599999999999997
 21
0.1800000000000002
 31
0.0
 12
-0.8599999999999997
 22
0.1272792206135787
 32
-0.1272792206135785
 13
-0.8599999999999997
 23
0.0
 33
-0.18
  0
3DFACE
  5
32A
  8
WHEELS
 10
-0.8799999999999998
 20
-0.04
 30
0.0
 11
-0.8799999999999997
 21
0.04
 31
0.0
 12
-0.8799999999999997
 22
0.02
 32
-0.0346410161513776
 13
-0.8799999999999998
 23
-0.02
 33
-0.0346410161513776
  0
3DFACE
  5
32B
  8
WHEELS
 10
0.8099999999999999
 20
-0.2399999999999998
 30
0.0000000000000001
 11
0.8099999999999999
 21
-0.1697056274847712
 31
-0.1697056274847714
 12
0.8599999999999997
 22
-0.1272792206135787
 32
-0.1272792206135785
 13
0.8599999999999997
 23
-0.1799999999999997
 33
0.0
  0
3DFACE
  5
32C
  8
WHEELS
 10
0.8100000000000001
 20
0.1697056274847712
 30
-0.1697056274847714
 11
0.8100000000000001
 21
0.2400000000000002
 31
0.0
 12
0.8599999999999999
 22
0.1800000000000002
 32
0.0
 13
0.8599999999999999
 23
0.1272792206135787
 33
-0.1272792206135786
  0
3DFACE
  5
32D
  8
WHEELS
 10
0.8599999999999999
 20
-0.04
 30
0.0
 11
0.8599999999999999
 21
-0.02
 31
-0.0346410161513776
 12
0.8799999999999998
 22
-0.02
 32
-0.0346410161513776
 13
0.8799999999999998
 23
-0.04
 33
0.0
  0
3DFACE
  5
32E
  8
WHEELS
 10
0.8600000000000001
 20
0.02
 30
-0.0346410161513776
 11
0.8600000000000001
 21
0.04
 31
0.0
 12
0.88
 22
0.04
 32
0.0
 13
0.88
 23
0.02
 33
-0.0346410161513776
  0
3DFACE
  5
32F
  8
WHEELS
 10
0.8599999999999999
 20
0.1800000000000002
 30
0.0
 11
0.8599999999999997
 21
-0.1272792206135787
 31
0.1272792206135786
 12
0.8599999999999997
 22
-0.1799999999999997
 32
0.0
 13
0.8599999999999999
 23
0.1272792206135787
 33
-0.1272792206135786
  0
3DFACE
  5
330
  8
WHEELS
 10
0.8599999999999999
 20
0.1272792206135787
 30
-0.1272792206135786
 11
0.8599999999999997
 21
-0.1799999999999997
 31
0.0
 12
0.8599999999999997
 22
-0.1272792206135787
 32
-0.1272792206135785
 13
0.8599999999999999
 23
0.0
 33
-0.18
  0
3DFACE
  5
331
  8
WHEELS
 10
0.88
 20
0.04
 30
0.0
 11
0.8799999999999998
 21
-0.04
 31
0.0
 12
0.8799999999999998
 22
-0.02
 32
-0.0346410161513776
 13
0.88
 23
0.02
 33
-0.0346410161513776
  0
3DFACE
  5
332
  8
WHEELS
 10
-0.6600000000000001
 20
-0.0249999999999999
 30
-0.0433012701892219
 11
-0.66
 21
0.0249999999999999
 31
-0.043301270189222
 12
0.6600000000000003
 22
0.0249999999999999
 32
-0.043301270189222
 13
0.6600000000000001
 23
-0.0249999999999999
 33
-0.0433012701892219
  0
3DFACE
  5
333
  8
WHEELS
 10
0.8599999999999999
 20
-0.02
 30
-0.0346410161513776
 11
0.8600000000000001
 21
0.02
 31
-0.0346410161513776
 12
0.88
 22
0.02
 32
-0.0346410161513776
 13
0.8799999999999998
 23
-0.02
 33
-0.0346410161513776
  0
3DFACE
  5
334
  8
WHEELS
 10
-0.8599999999999997
 20
0.02
 30
-0.0346410161513776
 11
-0.8599999999999999
 21
-0.02
 31
-0.0346410161513776
 12
-0.8799999999999998
 22
-0.02
 32
-0.0346410161513776
 13
-0.8799999999999997
 23
0.02
 33
-0.0346410161513776
  0
3DFACE
  5
335
  8
WHEELS
 10
-0.6600000000000001
 20
-0.0249999999999999
 30
0.043301270189222
 11
-0.6600000000000001
 21
-0.0499999999999998
 31
0.0
 12
0.6600000000000001
 22
-0.0499999999999998
 32
0.0
 13
0.6600000000000001
 23
-0.0249999999999999
 33
0.043301270189222
  0
3DFACE
  5
336
  8
WHEELS
 10
-0.66
 20
0.0249999999999999
 30
0.043301270189222
 11
-0.6600000000000001
 21
-0.0249999999999999
 31
0.043301270189222
 12
0.6600000000000001
 22
-0.0249999999999999
 32
0.043301270189222
 13
0.6600000000000003
 23
0.0249999999999999
 33
0.043301270189222
  0
3DFACE
  5
337
  8
WHEELS
 10
-0.66
 20
0.0499999999999998
 30
0.0
 11
-0.66
 21
0.0249999999999999
 31
0.043301270189222
 12
0.6600000000000003
 22
0.0249999999999999
 32
0.043301270189222
 13
0.6600000000000003
 23
0.0499999999999998
 33
0.0
  0
3DFACE
  5
338
  8
WHEELS
 10
0.8100000000000001
 20
0.2400000000000002
 30
0.0
 11
0.8100000000000001
 21
0.1697056274847712
 31
0.1697056274847714
 12
0.8599999999999999
 22
0.1272792206135787
 32
0.1272792206135786
 13
0.8599999999999999
 23
0.1800000000000002
 33
0.0
  0
3DFACE
  5
339
  8
WHEELS
 10
0.8099999999999999
 20
-0.1697056274847712
 30
0.1697056274847714
 11
0.8099999999999999
 21
-0.2399999999999998
 31
0.0000000000000001
 12
0.8599999999999997
 22
-0.1799999999999997
 32
0.0
 13
0.8599999999999997
 23
-0.1272792206135787
 33
0.1272792206135786
  0
3DFACE
  5
33A
  8
WHEELS
 10
0.8600000000000001
 20
0.04
 30
0.0
 11
0.8600000000000001
 21
0.02
 31
0.0346410161513776
 12
0.88
 22
0.02
 32
0.0346410161513776
 13
0.88
 23
0.04
 33
0.0
  0
3DFACE
  5
33B
  8
WHEELS
 10
0.8600000000000001
 20
0.02
 30
0.0346410161513776
 11
0.8599999999999999
 21
-0.02
 31
0.0346410161513776
 12
0.8799999999999998
 22
-0.02
 32
0.0346410161513776
 13
0.88
 23
0.02
 33
0.0346410161513776
  0
3DFACE
  5
33C
  8
WHEELS
 10
0.8599999999999999
 20
-0.02
 30
0.0346410161513776
 11
0.8599999999999999
 21
-0.04
 31
0.0
 12
0.8799999999999998
 22
-0.04
 32
0.0
 13
0.8799999999999998
 23
-0.02
 33
0.0346410161513776
  0
3DFACE
  5
33D
  8
WHEELS
 10
0.8599999999999999
 20
0.1272792206135787
 30
0.1272792206135786
 11
0.8599999999999999
 21
0.0
 31
0.18
 12
0.8599999999999997
 22
-0.1272792206135787
 32
0.1272792206135786
 13
0.8599999999999999
 23
0.1800000000000002
 33
0.0
  0
3DFACE
  5
33E
  8
WHEELS
 10
0.88
 20
0.02
 30
0.0346410161513776
 11
0.8799999999999998
 21
-0.02
 31
0.0346410161513776
 12
0.8799999999999998
 22
-0.04
 32
0.0
 13
0.88
 23
0.04
 33
0.0
  0
3DFACE
  5
33F
  8
WHEELS
 10
-0.8799999999999998
 20
-0.02
 30
0.0346410161513776
 11
-0.8799999999999997
 21
0.02
 31
0.0346410161513776
 12
-0.8799999999999997
 22
0.04
 32
0.0
 13
-0.8799999999999998
 23
-0.04
 33
0.0
  0
3DFACE
  5
340
  8
WHEELS
 10
-0.8099999999999999
 20
-0.2399999999999998
 30
0.0
 11
-0.8099999999999999
 21
-0.1697056274847712
 31
0.1697056274847714
 12
-0.8599999999999997
 22
-0.1272792206135787
 32
0.1272792206135786
 13
-0.8599999999999997
 23
-0.1799999999999997
 33
0.0
  0
3DFACE
  5
341
  8
WHEELS
 10
-0.8099999999999997
 20
0.1697056274847712
 30
0.1697056274847714
 11
-0.8099999999999997
 21
0.2400000000000002
 31
0.0000000000000001
 12
-0.8599999999999997
 22
0.1800000000000002
 32
0.0
 13
-0.8599999999999997
 23
0.1272792206135787
 33
0.1272792206135786
  0
3DFACE
  5
342
  8
WHEELS
 10
-0.8599999999999997
 20
-0.1272792206135787
 30
0.1272792206135786
 11
-0.8599999999999997
 21
0.0
 31
0.18
 12
-0.8599999999999997
 22
0.1272792206135787
 32
0.1272792206135786
 13
-0.8599999999999997
 23
-0.1799999999999997
 33
0.0
  0
3DFACE
  5
343
  8
WHEELS
 10
-0.8599999999999999
 20
-0.04
 30
0.0
 11
-0.8599999999999999
 21
-0.02
 31
0.0346410161513776
 12
-0.8799999999999998
 22
-0.02
 32
0.0346410161513776
 13
-0.8799999999999998
 23
-0.04
 33
0.0
  0
3DFACE
  5
344
  8
WHEELS
 10
-0.8599999999999999
 20
-0.02
 30
0.0346410161513776
 11
-0.8599999999999997
 21
0.02
 31
0.0346410161513776
 12
-0.8799999999999997
 22
0.02
 32
0.0346410161513776
 13
-0.8799999999999998
 23
-0.02
 33
0.0346410161513776
  0
3DFACE
  5
345
  8
WHEELS
 10
-0.8599999999999997
 20
0.02
 30
0.0346410161513776
 11
-0.8599999999999997
 21
0.04
 31
0.0
 12
-0.8799999999999997
 22
0.04
 32
0.0
 13
-0.8799999999999997
 23
0.02
 33
0.0346410161513776
  0
3DFACE
  5
346
  8
WHEELS
 10
-0.8099999999999999
 20
-0.3181980515339462
 30
0.3181980515339464
 11
-0.8099999999999997
 21
0.0
 31
0.45
 12
-0.8399999999999998
 22
0.0
 32
0.41
 13
-0.84
 23
-0.2899137802864846
 33
0.2899137802864844
  0
3DFACE
  5
347
  8
WHEELS
 10
-0.8099999999999997
 20
0.0
 30
0.45
 11
-0.8099999999999997
 21
0.3181980515339466
 31
0.3181980515339464
 12
-0.8399999999999996
 22
0.2899137802864846
 32
0.2899137802864846
 13
-0.8399999999999998
 23
0.0
 33
0.41
  0
3DFACE
  5
348
  8
WHEELS
 10
-0.69
 20
-0.3181980515339462
 30
0.3181980515339464
 11
-0.69
 21
0.0
 31
0.45
 12
-0.8099999999999997
 22
0.0
 32
0.45
 13
-0.8099999999999999
 23
-0.3181980515339462
 33
0.3181980515339464
  0
3DFACE
  5
349
  8
WHEELS
 10
-0.69
 20
0.0
 30
0.45
 11
-0.6899999999999997
 21
0.3181980515339466
 31
0.3181980515339464
 12
-0.8099999999999997
 22
0.3181980515339466
 32
0.3181980515339464
 13
-0.8099999999999997
 23
0.0
 33
0.45
  0
3DFACE
  5
34A
  8
WHEELS
 10
-0.84
 20
-0.2899137802864846
 30
0.2899137802864844
 11
-0.8399999999999998
 21
0.0
 31
0.41
 12
-0.8399999999999996
 22
0.0
 32
0.36
 13
-0.8399999999999998
 23
-0.2545584412271573
 33
0.254558441227157
  0
3DFACE
  5
34B
  8
WHEELS
 10
-0.8399999999999998
 20
0.0
 30
0.4099999999999999
 11
-0.8399999999999996
 21
0.2899137802864846
 31
0.2899137802864846
 12
-0.8399999999999996
 22
0.2545584412271573
 32
0.2545584412271573
 13
-0.8399999999999996
 23
0.0
 33
0.36
  0
3DFACE
  5
34C
  8
WHEELS
 10
-0.69
 20
0.0
 30
0.45
 11
-0.69
 21
-0.3181980515339462
 31
0.3181980515339464
 12
-0.6600000000000003
 22
-0.2899137802864846
 32
0.2899137802864846
 13
-0.6600000000000001
 23
0.0
 33
0.41
  0
3DFACE
  5
34D
  8
WHEELS
 10
-0.6899999999999997
 20
0.3181980515339466
 30
0.3181980515339464
 11
-0.69
 21
0.0
 31
0.45
 12
-0.6600000000000001
 22
0.0
 32
0.41
 13
-0.66
 23
0.2899137802864846
 33
0.2899137802864844
  0
3DFACE
  5
34E
  8
WHEELS
 10
0.8100000000000001
 20
0.3181980515339466
 30
0.3181980515339464
 11
0.8100000000000001
 21
0.0
 31
0.45
 12
0.84
 22
0.0
 32
0.41
 13
0.84
 23
0.2899137802864846
 33
0.2899137802864844
  0
3DFACE
  5
34F
  8
WHEELS
 10
0.8100000000000001
 20
0.0
 30
0.45
 11
0.8099999999999999
 21
-0.3181980515339462
 31
0.3181980515339464
 12
0.84
 22
-0.2899137802864846
 32
0.2899137802864846
 13
0.84
 23
0.0
 33
0.41
  0
3DFACE
  5
350
  8
WHEELS
 10
0.6900000000000001
 20
0.3181980515339466
 30
0.3181980515339464
 11
0.6900000000000001
 21
0.0
 31
0.45
 12
0.8100000000000001
 22
0.0
 32
0.45
 13
0.8100000000000001
 23
0.3181980515339466
 33
0.3181980515339464
  0
3DFACE
  5
351
  8
WHEELS
 10
0.6900000000000001
 20
0.0
 30
0.45
 11
0.69
 21
-0.3181980515339462
 31
0.3181980515339464
 12
0.8099999999999999
 22
-0.3181980515339462
 32
0.3181980515339464
 13
0.8100000000000001
 23
0.0
 33
0.45
  0
3DFACE
  5
352
  8
WHEELS
 10
0.84
 20
0.2899137802864846
 30
0.2899137802864844
 11
0.84
 21
0.0
 31
0.41
 12
0.84
 22
0.0
 32
0.36
 13
0.84
 23
0.2545584412271573
 33
0.254558441227157
  0
3DFACE
  5
353
  8
WHEELS
 10
0.84
 20
0.0
 30
0.4099999999999999
 11
0.84
 21
-0.2899137802864846
 31
0.2899137802864846
 12
0.8399999999999998
 22
-0.2545584412271569
 32
0.2545584412271573
 13
0.84
 23
0.0
 33
0.36
  0
3DFACE
  5
354
  8
WHEELS
 10
0.6900000000000001
 20
0.0
 30
0.45
 11
0.6900000000000001
 21
0.3181980515339466
 31
0.3181980515339464
 12
0.6600000000000003
 22
0.2899137802864846
 32
0.2899137802864846
 13
0.6600000000000003
 23
0.0
 33
0.41
  0
3DFACE
  5
355
  8
WHEELS
 10
0.69
 20
-0.3181980515339462
 30
0.3181980515339464
 11
0.6900000000000001
 21
0.0
 31
0.45
 12
0.6600000000000003
 22
0.0
 32
0.41
 13
0.6600000000000003
 23
-0.2899137802864846
 33
0.2899137802864844
  0
3DFACE
  5
356
  8
WHEELS
 10
0.84
 20
0.2545584412271573
 30
0.254558441227157
 11
0.84
 21
0.0
 31
0.36
 12
0.8100000000000001
 22
0.0
 32
0.32
 13
0.8100000000000001
 23
0.2262741699796953
 33
0.2262741699796952
  0
3DFACE
  5
357
  8
WHEELS
 10
0.84
 20
0.0
 30
0.36
 11
0.8399999999999998
 21
-0.2545584412271569
 31
0.2545584412271571
 12
0.8099999999999999
 22
-0.2262741699796953
 32
0.2262741699796952
 13
0.8100000000000001
 23
0.0
 33
0.32
  0
3DFACE
  5
358
  8
WHEELS
 10
-0.8399999999999998
 20
-0.2545584412271573
 30
0.254558441227157
 11
-0.8399999999999996
 21
0.0
 31
0.36
 12
-0.8099999999999997
 22
0.0
 32
0.32
 13
-0.8099999999999999
 23
-0.2262741699796953
 33
0.2262741699796952
  0
3DFACE
  5
359
  8
WHEELS
 10
-0.8399999999999996
 20
0.0
 30
0.36
 11
-0.8399999999999996
 21
0.2545584412271573
 31
0.2545584412271571
 12
-0.8099999999999997
 22
0.2262741699796953
 32
0.2262741699796952
 13
-0.8099999999999997
 23
0.0
 33
0.32
  0
VIEWPORT
  5
2E
 67
     1
  8
0
 10
144.7270812988281
 20
101.2295806407928
 30
0.0
 40
391.13550988316581
 41
222.15178063964839
 68
     2
 69
     1
1001
ACAD
1000
MVIEW
1002
{
1070
    16
1010
0.0
1020
0.0
1030
0.0
1010
0.0
1020
0.0
1030
1.0
1040
0.0
1040
222.15178063964839
1040
144.7270812988281
1040
101.2295806407928
1040
50.0
1040
0.0
1040
0.0
1070
     0
1070
   100
1070
     1
1070
     1
1070
     0
1070
     0
1070
     0
1070
     0
1040
0.0
1040
0.0
1040
0.0
1040
10.0
1040
10.0
1040
10.0
1040
10.0
1070
     0
1002
{
1002
}
1002
}
  0
VIEWPORT
  5
30
 67
     1
  8
0
 10
139.22375631332389
 20
100.8062499761581
 30
0.0
 40
222.75801010131829
 41
161.289999961853
 68
     1
 69
     2
1001
ACAD
1000
MVIEW
1002
{
1070
    16
1010
0.0
1020
0.0
1030
0.0
1010
0.0
1020
0.0
1030
1.0
1040
0.0
1040
307.49010134148989
1040
210.0
1040
148.5
1040
50.0
1040
0.0
1040
0.0
1070
     0
1070
   100
1070
     1
1070
     3
1070
     0
1070
     1
1070
     0
1070
     0
1040
0.0
1040
0.0
1040
0.0
1040
10.0
1040
10.0
1040
10.0
1040
10.0
1070
     0
1002
{
1002
}
1002
}
  0
ENDSEC
  0
EOF
