  0
SECTION
  2
HEADER
  9
$ACADVER
  1
AC1009
  9
$INSBASE
 10
0.0
 20
0.0
 30
0.0
  9
$EXTMIN
 10
-1.5378649646984559
 20
-1.992
 30
-0.51
  9
$EXTMAX
 10
3.0
 20
3.0
 30
1.693409999999999
  9
$LIMMIN
 10
0.0
 20
0.0
  9
$LIMMAX
 10
420.0
 20
297.0
  9
$ORTHOMODE
 70
     1
  9
$REGENMODE
 70
     1
  9
$FILLMODE
 70
     1
  9
$QTEXTMODE
 70
     0
  9
$MIRRTEXT
 70
     1
  9
$DRAGMODE
 70
     2
  9
$LTSCALE
 40
1.0
  9
$OSMODE
 70
   559
  9
$ATTMODE
 70
     1
  9
$TEXTSIZE
 40
0.83
  9
$TRACEWID
 40
1.0
  9
$TEXTSTYLE
  7
STANDARD
  9
$CLAYER
  8
LEGS
  9
$CELTYPE
  6
BYLAYER
  9
$CECOLOR
 62
   256
  9
$DIMSCALE
 40
1.0
  9
$DIMASZ
 40
2.5
  9
$DIMEXO
 40
0.625
  9
$DIMDLI
 40
3.75
  9
$DIMRND
 40
0.0
  9
$DIMDLE
 40
0.0
  9
$DIMEXE
 40
1.25
  9
$DIMTP
 40
0.0
  9
$DIMTM
 40
0.0
  9
$DIMTXT
 40
2.5
  9
$DIMCEN
 40
2.5
  9
$DIMTSZ
 40
0.0
  9
$DIMTOL
 70
     0
  9
$DIMLIM
 70
     0
  9
$DIMTIH
 70
     0
  9
$DIMTOH
 70
     0
  9
$DIMSE1
 70
     0
  9
$DIMSE2
 70
     0
  9
$DIMTAD
 70
     1
  9
$DIMZIN
 70
     8
  9
$DIMBLK
  1

  9
$DIMASO
 70
     1
  9
$DIMSHO
 70
     1
  9
$DIMPOST
  1

  9
$DIMAPOST
  1

  9
$DIMALT
 70
     0
  9
$DIMALTD
 70
     3
  9
$DIMALTF
 40
0.03937007874016
  9
$DIMLFAC
 40
1.0
  9
$DIMTOFL
 70
     1
  9
$DIMTVP
 40
0.0
  9
$DIMTIX
 70
     0
  9
$DIMSOXD
 70
     0
  9
$DIMSAH
 70
     0
  9
$DIMBLK1
  1

  9
$DIMBLK2
  1

  9
$DIMSTYLE
  2
ISO-25
  9
$DIMCLRD
 70
     0
  9
$DIMCLRE
 70
     0
  9
$DIMCLRT
 70
     0
  9
$DIMTFAC
 40
1.0
  9
$DIMGAP
 40
0.625
  9
$LUNITS
 70
     2
  9
$LUPREC
 70
     4
  9
$SKETCHINC
 40
1.0
  9
$FILLETRAD
 40
10.0
  9
$AUNITS
 70
     0
  9
$AUPREC
 70
     0
  9
$MENU
  1
.
  9
$ELEVATION
 40
0.0
  9
$PELEVATION
 40
0.0
  9
$THICKNESS
 40
0.0
  9
$LIMCHECK
 70
     0
  9
$BLIPMODE
 70
     0
  9
$CHAMFERA
 40
10.0
  9
$CHAMFERB
 40
10.0
  9
$SKPOLY
 70
     0
  9
$TDCREATE
 40
2455142.952910752
  9
$TDUPDATE
 40
2455144.8536082632
  9
$TDINDWG
 40
0.0865675694
  9
$TDUSRTIMER
 40
0.0865675694
  9
$USRTIMER
 70
     1
  9
$ANGBASE
 50
0.0
  9
$ANGDIR
 70
     0
  9
$PDMODE
 70
     0
  9
$PDSIZE
 40
0.0
  9
$PLINEWID
 40
0.0
  9
$COORDS
 70
     1
  9
$SPLFRAME
 70
     0
  9
$SPLINETYPE
 70
     6
  9
$SPLINESEGS
 70
     8
  9
$ATTDIA
 70
     1
  9
$ATTREQ
 70
     1
  9
$HANDLING
 70
-16383
  9
$HANDSEED
  5
780
  9
$SURFTAB1
 70
     6
  9
$SURFTAB2
 70
     6
  9
$SURFTYPE
 70
     6
  9
$SURFU
 70
     6
  9
$SURFV
 70
     6
  9
$UCSNAME
  2

  9
$UCSORG
 10
0.0
 20
0.0
 30
0.0
  9
$UCSXDIR
 10
0.0
 20
-1.0
 30
0.0
  9
$UCSYDIR
 10
0.0
 20
0.0
 30
1.0
  9
$PUCSNAME
  2

  9
$PUCSORG
 10
0.0
 20
0.0
 30
0.0
  9
$PUCSXDIR
 10
1.0
 20
0.0
 30
0.0
  9
$PUCSYDIR
 10
0.0
 20
1.0
 30
0.0
  9
$USERI1
 70
     0
  9
$USERI2
 70
     0
  9
$USERI3
 70
     0
  9
$USERI4
 70
     0
  9
$USERI5
 70
     0
  9
$USERR1
 40
0.0
  9
$USERR2
 40
0.0
  9
$USERR3
 40
0.0
  9
$USERR4
 40
0.0
  9
$USERR5
 40
0.0
  9
$WORLDVIEW
 70
     1
  9
$SHADEDGE
 70
     3
  9
$SHADEDIF
 70
    70
  9
$TILEMODE
 70
     1
  9
$MAXACTVP
 70
    64
  9
$PLIMCHECK
 70
     0
  9
$PEXTMIN
 10
27.844751262664801
 20
20.161249995231621
 30
0.0
  9
$PEXTMAX
 10
250.60276136398309
 20
181.4512499570846
 30
0.0
  9
$PLIMMIN
 10
-3.757080078125
 20
-3.7570831775665279
  9
$PLIMMAX
 10
293.21124267578119
 20
206.21624445915219
  9
$UNITMODE
 70
     0
  9
$VISRETAIN
 70
     1
  9
$PLINEGEN
 70
     0
  9
$PSLTSCALE
 70
     1
  0
ENDSEC
  0
SECTION
  2
TABLES
  0
TABLE
  2
VPORT
 70
    13
  0
VPORT
  2
*ACTIVE
 70
     0
 10
0.0
 20
0.0
 11
1.0
 21
1.0
 12
1.747258480637778
 22
-0.438163199941164
 13
0.0
 23
0.0
 14
0.01
 24
0.01
 15
1.0
 25
1.0
 16
-1.0
 26
0.0
 36
0.0
 17
0.0
 27
0.0
 37
0.0
 40
6.2404638657826812
 41
1.767225325884543
 42
50.0
 43
0.0
 44
0.0
 50
0.0
 51
0.0
 71
     0
 72
   100
 73
     1
 74
     3
 75
     1
 76
     1
 77
     0
 78
     0
  0
ENDTAB
  0
TABLE
  2
LTYPE
 70
     1
  0
LTYPE
  2
CONTINUOUS
 70
     0
  3
Solid line
 72
    65
 73
     0
 40
0.0
  0
ENDTAB
  0
TABLE
  2
LAYER
 70
     8
  0
LAYER
  2
0
 70
     0
 62
     7
  6
CONTINUOUS
  0
LAYER
  2
TURRET
 70
     0
 62
     2
  6
CONTINUOUS
  0
LAYER
  2
GUN
 70
     0
 62
     1
  6
CONTINUOUS
  0
LAYER
  2
SLEEVE
 70
     0
 62
     5
  6
CONTINUOUS
  0
LAYER
  2
DRAWING
 70
     0
 62
     9
  6
CONTINUOUS
  0
LAYER
  2
BASE-TRANSPORT
 70
     0
 62
     7
  6
CONTINUOUS
  0
LAYER
  2
LEGS
 70
     0
 62
     4
  6
CONTINUOUS
  0
LAYER
  2
WHEELS
 70
     0
 62
     2
  6
CONTINUOUS
  0
ENDTAB
  0
TABLE
  2
STYLE
 70
     1
  0
STYLE
  2
STANDARD
 70
     0
 40
0.0
 41
1.0
 50
0.0
 71
     0
 42
0.83
  3
txt
  4

  0
ENDTAB
  0
TABLE
  2
VIEW
 70
     0
  0
ENDTAB
  0
TABLE
  2
UCS
 70
     0
  0
ENDTAB
  0
TABLE
  2
APPID
 70
     1
  0
APPID
  2
ACAD
 70
     0
  0
ENDTAB
  0
TABLE
  2
DIMSTYLE
 70
     1
  0
DIMSTYLE
  2
ISO-25
 70
     0
  3

  4

  5

  6

  7

 40
1.0
 41
2.5
 42
0.625
 43
3.75
 44
1.25
 45
0.0
 46
0.0
 47
0.0
 48
0.0
140
2.5
141
2.5
142
0.0
143
0.03937007874016
144
1.0
145
0.0
146
1.0
147
0.625
 71
     0
 72
     0
 73
     0
 74
     0
 75
     0
 76
     0
 77
     1
 78
     8
170
     0
171
     3
172
     1
173
     0
174
     0
175
     0
176
     0
177
     0
178
     0
  0
ENDTAB
  0
ENDSEC
  0
SECTION
  2
BLOCKS
  0
BLOCK
  8
0
  2
$MODEL_SPACE
 70
     0
 10
0.0
 20
0.0
 30
0.0
  3
$MODEL_SPACE
  1

  0
ENDBLK
  5
21
  8
0
  0
BLOCK
 67
     1
  8
0
  2
$PAPER_SPACE
 70
     0
 10
0.0
 20
0.0
 30
0.0
  3
$PAPER_SPACE
  1

  0
ENDBLK
  5
1D
 67
     1
  8
0
  0
ENDSEC
  0
SECTION
  2
ENTITIES
  0
3DFACE
  5
5BC
  8
LEGS
 10
-0.3225983054836893
 20
0.1153982445495037
 30
0.1300000000000003
 11
-0.1462040282498699
 21
-0.8849834130112666
 31
0.0000000000000004
 12
-0.0993190202797987
 22
-1.150881506324563
 32
0.0100000000000007
 13
-0.3225983054836894
 23
0.1153982445495037
 33
0.1800000000000006
  0
3DFACE
  5
5BD
  8
LEGS
 10
-0.3225983054836894
 20
0.1153982445495037
 30
0.1800000000000006
 11
-0.0993190202797987
 21
-1.150881506324563
 31
0.0100000000000007
 12
-0.0402305550990663
 22
-1.140462615664547
 32
0.0100000000000007
 13
-0.2635098403029568
 23
0.1258171352095195
 33
0.1800000000000006
  0
3DFACE
  5
5BE
  8
LEGS
 10
-0.0402305550990663
 20
-1.140462615664547
 30
0.0100000000000007
 11
-0.0871155630691372
 21
-0.8745645223512513
 31
0.0000000000000004
 12
-0.2635098403029568
 22
0.1258171352095195
 32
0.1300000000000003
 13
-0.2635098403029568
 23
0.1258171352095195
 33
0.1800000000000006
  0
3DFACE
  5
5C7
  8
BASE-TRANSPORT
 10
-0.03
 20
-0.4100000000000001
 30
0.2900000000000005
 11
-0.03
 21
-1.589999999999999
 31
0.0100000000000007
 12
0.03
 22
-1.589999999999999
 32
0.0100000000000007
 13
0.03
 23
-0.4100000000000001
 33
0.2900000000000005
  0
3DFACE
  5
5C8
  8
BASE-TRANSPORT
 10
0.03
 20
-1.589999999999999
 30
0.0100000000000007
 11
0.03
 21
-1.319999999999999
 31
0.0000000000000004
 12
0.03
 22
-0.4100000000000001
 32
0.1900000000000008
 13
0.03
 23
-0.4100000000000001
 33
0.2900000000000005
  0
3DFACE
  5
5C9
  8
BASE-TRANSPORT
 10
-0.03
 20
-0.4100000000000001
 30
0.1900000000000008
 11
-0.03
 21
-1.319999999999999
 31
0.0000000000000004
 12
-0.03
 22
-1.589999999999999
 32
0.0100000000000007
 13
-0.03
 23
-0.4100000000000001
 33
0.2900000000000005
  0
3DFACE
  5
5CA
  8
BASE-TRANSPORT
 10
-0.03
 20
-0.3400000000000001
 30
0.2600000000000007
 11
-0.03
 21
-0.4100000000000001
 31
0.1900000000000008
 12
-0.03
 22
-0.4100000000000001
 32
0.2900000000000005
 13
-0.03
 23
-0.36
 33
0.2900000000000005
  0
3DFACE
  5
5CB
  8
BASE-TRANSPORT
 10
0.03
 20
-0.4100000000000001
 30
0.2900000000000005
 11
0.03
 21
-0.4100000000000001
 31
0.1900000000000008
 12
0.03
 22
-0.3400000000000001
 32
0.2600000000000007
 13
0.03
 23
-0.36
 33
0.2900000000000005
  0
3DFACE
  5
5CC
  8
BASE-TRANSPORT
 10
0.03
 20
-0.3399999999999999
 30
0.2600000000000007
 11
0.03
 21
-0.31
 31
0.1800000000000006
 12
-0.03
 22
-0.31
 32
0.1800000000000006
 13
-0.03
 23
-0.3399999999999999
 33
0.2600000000000007
  0
3DFACE
  5
5CD
  8
BASE-TRANSPORT
 10
-0.03
 20
-0.31
 30
0.1800000000000006
 11
-0.03
 21
-0.3399999999999999
 31
0.0300000000000007
 12
-0.03
 22
-0.4100000000000001
 32
0.1900000000000008
 13
-0.03
 23
-0.3399999999999999
 33
0.2600000000000007
  0
3DFACE
  5
5CE
  8
BASE-TRANSPORT
 10
0.03
 20
-0.4100000000000001
 30
0.1900000000000008
 11
0.03
 21
-0.3399999999999999
 31
0.0300000000000007
 12
0.03
 22
-0.31
 32
0.1800000000000006
 13
0.03
 23
-0.3399999999999999
 33
0.2600000000000007
  0
3DFACE
  5
5CF
  8
LEGS
 10
-0.2808746580696497
 20
0.2242979105107404
 30
0.1000000000000005
 11
-0.2711826313960827
 21
0.1693316958416893
 31
0.0300000000000007
 12
-0.3302710965768152
 22
0.1589128051816735
 32
0.0300000000000007
 13
-0.3399631232503823
 23
0.2138790198507245
 33
0.1000000000000005
  0
3DFACE
  5
5D0
  8
LEGS
 10
-0.3399631232503823
 20
0.2138790198507245
 30
0.1000000000000005
 11
-0.3302710965768152
 21
0.1589128051816735
 31
0.0300000000000007
 12
-0.3225983054836893
 22
0.1153982445495037
 32
0.0300000000000007
 13
-0.3225983054836893
 23
0.1153982445495037
 33
0.1800000000000006
  0
3DFACE
  5
5D1
  8
LEGS
 10
-0.2635098403029568
 20
0.1258171352095195
 30
0.0300000000000007
 11
-0.2711826313960827
 21
0.1693316958416893
 31
0.0300000000000007
 12
-0.2808746580696497
 22
0.2242979105107404
 32
0.1000000000000005
 13
-0.2635098403029567
 23
0.1258171352095195
 33
0.1800000000000006
  0
3DFACE
  5
5D3
  8
LEGS
 10
-0.2635098403029568
 20
0.1258171352095195
 30
0.1300000000000003
 11
-0.0871155630691372
 21
-0.8745645223512513
 31
0.0000000000000004
 12
-0.1462040282498699
 22
-0.8849834130112666
 32
0.0000000000000004
 13
-0.3225983054836893
 23
0.1153982445495037
 33
0.1300000000000003
  0
3DFACE
  5
5D4
  8
LEGS
 10
-0.308553053174955
 20
0.1221252177261891
 30
0.0800000000000005
 11
-0.2935539203412518
 21
0.1234424656235317
 31
0.0650570795286245
 12
-0.2114394293898662
 22
-0.3422519540362262
 32
0.0700000000000003
 13
-0.2401033998984037
 23
-0.2660720564602534
 33
0.0800000000000005
  0
3DFACE
  5
5D5
  8
LEGS
 10
-0.2935539203412518
 20
0.1234424656235317
 30
0.0650570795286245
 11
-0.2790088205845886
 21
0.1273346630561969
 31
0.0800000000000005
 12
-0.2105591673080374
 22
-0.2608626111302455
 32
0.0800000000000005
 13
-0.2114394293898662
 23
-0.3422519540362262
 33
0.0700000000000003
  0
3DFACE
  5
5DD
  8
BASE-TRANSPORT
 10
0.0
 20
-0.3513073361412148
 30
0.0650570795286245
 11
0.015
 21
-0.35
 31
0.0800000000000005
 12
0.015
 22
-0.7783637201794506
 32
0.1174769693814937
 13
0.0
 23
-0.8195188442443354
 33
0.1060202786200239
  0
3DFACE
  5
5DE
  8
BASE-TRANSPORT
 10
-0.015
 20
-0.35
 30
0.0800000000000005
 11
0.0
 21
-0.3513073361412148
 31
0.0650570795286245
 12
0.0
 22
-0.8195188442443354
 32
0.1060202786200239
 13
-0.015
 23
-0.7783637201794506
 33
0.1174769693814937
  0
3DFACE
  5
5DF
  8
BASE-TRANSPORT
 10
0.03
 20
-0.4100000000000001
 30
0.1900000000000008
 11
0.03
 21
-1.319999999999999
 31
0.0000000000000004
 12
-0.03
 22
-1.319999999999999
 32
0.0000000000000004
 13
-0.03
 23
-0.4100000000000001
 33
0.1900000000000008
  0
3DFACE
  5
5E0
  8
BASE-TRANSPORT
 10
-0.03
 20
-0.4100000000000001
 30
0.1900000000000008
 11
-0.03
 21
-0.3399999999999999
 31
0.0300000000000007
 12
0.03
 22
-0.3399999999999999
 32
0.0300000000000007
 13
0.03
 23
-0.4100000000000001
 33
0.1900000000000008
  0
3DFACE
  5
5E1
  8
BASE-TRANSPORT
 10
0.03
 20
-0.15
 30
0.1000000000000005
 11
0.03
 21
-0.26
 31
0.0300000000000007
 12
-0.03
 22
-0.26
 32
0.0300000000000007
 13
-0.03
 23
-0.15
 33
0.1000000000000005
  0
3DFACE
  5
5E2
  8
BASE-TRANSPORT
 10
-0.03
 20
-0.15
 30
0.1000000000000005
 11
-0.03
 21
-0.26
 31
0.0300000000000007
 12
-0.03
 22
-0.3399999999999999
 32
0.0300000000000007
 13
-0.03
 23
-0.31
 33
0.1800000000000006
  0
3DFACE
  5
5E3
  8
BASE-TRANSPORT
 10
0.03
 20
-0.3399999999999999
 30
0.0300000000000007
 11
0.03
 21
-0.26
 31
0.0300000000000007
 12
0.03
 22
-0.15
 32
0.1000000000000005
 13
0.03
 23
-0.31
 33
0.1800000000000006
  0
3DFACE
  5
5E4
  8
LEGS
 10
-0.0547172648293026
 20
-1.1734798118082519
 30
0.0000000000000004
 11
-0.0645653423594247
 21
-1.1752162935849211
 31
0.0100000000000007
 12
-0.054146451699409
 22
-1.2343047587656539
 32
0.0600000000000005
 13
-0.0442983741692869
 23
-1.2325682769889841
 33
0.0500000000000007
  0
3DFACE
  5
5E5
  8
LEGS
 10
-0.0645653423594247
 20
-1.1752162935849211
 30
0.0100000000000007
 11
-0.0744134198895468
 21
-1.17695277536159
 31
0.0000000000000004
 12
-0.063994529229531
 22
-1.2360412405423229
 32
0.0500000000000007
 13
-0.054146451699409
 23
-1.2343047587656539
 33
0.0600000000000005
  0
3DFACE
  5
5E6
  8
LEGS
 10
-0.0744134198895468
 20
-1.17695277536159
 30
0.0000000000000004
 11
-0.0645653423594247
 21
-1.1752162935849211
 31
-0.0099999999999993
 12
-0.054146451699409
 22
-1.2343047587656539
 32
0.0400000000000005
 13
-0.063994529229531
 23
-1.2360412405423229
 33
0.0500000000000007
  0
3DFACE
  5
5E7
  8
LEGS
 10
-0.0645653423594247
 20
-1.1752162935849211
 30
-0.0099999999999993
 11
-0.0547172648293026
 21
-1.1734798118082519
 31
0.0000000000000004
 12
-0.0442983741692869
 22
-1.2325682769889841
 32
0.0500000000000007
 13
-0.054146451699409
 23
-1.2343047587656539
 33
0.0400000000000005
  0
3DFACE
  5
5EC
  8
BASE-TRANSPORT
 10
0.0
 20
-1.6200000000000001
 30
-0.0099999999999993
 11
0.01
 21
-1.6200000000000001
 31
0.0000000000000004
 12
0.01
 22
-1.679999999999999
 32
0.0500000000000007
 13
0.0
 23
-1.679999999999999
 33
0.0400000000000005
  0
3DFACE
  5
5ED
  8
BASE-TRANSPORT
 10
-0.01
 20
-1.6200000000000001
 30
0.0000000000000004
 11
0.0
 21
-1.6200000000000001
 31
-0.0099999999999993
 12
0.0
 22
-1.679999999999999
 32
0.0400000000000005
 13
-0.01
 23
-1.679999999999999
 33
0.0500000000000007
  0
3DFACE
  5
5EE
  8
BASE-TRANSPORT
 10
0.0
 20
-1.6200000000000001
 30
0.0100000000000007
 11
-0.01
 21
-1.6200000000000001
 31
0.0000000000000004
 12
-0.01
 22
-1.679999999999999
 32
0.0500000000000007
 13
0.0
 23
-1.679999999999999
 33
0.0600000000000005
  0
3DFACE
  5
5EF
  8
BASE-TRANSPORT
 10
0.01
 20
-1.6200000000000001
 30
0.0000000000000004
 11
0.0
 21
-1.6200000000000001
 31
0.0100000000000007
 12
0.0
 22
-1.679999999999999
 32
0.0600000000000005
 13
0.01
 23
-1.679999999999999
 33
0.0500000000000007
  0
3DFACE
  5
5F0
  8
LEGS
 10
-0.0993190202797987
 20
-1.150881506324563
 30
0.0100000000000007
 11
-0.1462040282498699
 21
-0.8849834130112666
 31
0.0000000000000004
 12
-0.0871155630691372
 22
-0.8745645223512513
 32
0.0000000000000004
 13
-0.0402305550990663
 23
-1.140462615664547
 33
0.0100000000000007
  0
3DFACE
  5
5F1
  8
LEGS
 10
-0.0842374550326806
 20
-1.0060624937961771
 30
0.0000000000000004
 11
-0.0906125690094643
 21
-1.0274951306330899
 31
0.0100000000000007
 12
-0.0645653423594247
 22
-1.1752162935849211
 32
0.0100000000000007
 13
-0.0547172648293026
 23
-1.1734798118082519
 33
0.0000000000000004
  0
3DFACE
  5
5F2
  8
LEGS
 10
-0.0906125690094643
 20
-1.0274951306330899
 30
0.0100000000000007
 11
-0.1039336100929249
 21
-1.009535457349515
 31
0.0000000000000004
 12
-0.0744134198895468
 22
-1.17695277536159
 32
0.0000000000000004
 13
-0.0645653423594247
 23
-1.1752162935849211
 33
0.0100000000000007
  0
3DFACE
  5
5F3
  8
LEGS
 10
-0.1039336100929249
 20
-1.009535457349515
 30
0.0000000000000004
 11
-0.0906125690094643
 21
-1.0274951306330899
 31
-0.0099999999999993
 12
-0.0645653423594247
 22
-1.1752162935849211
 32
-0.0099999999999993
 13
-0.0744134198895468
 23
-1.17695277536159
 33
0.0000000000000004
  0
3DFACE
  5
5F4
  8
LEGS
 10
-0.0906125690094643
 20
-1.0274951306330899
 30
-0.0099999999999993
 11
-0.0842374550326806
 21
-1.0060624937961771
 31
0.0000000000000004
 12
-0.0547172648293026
 22
-1.1734798118082519
 32
0.0000000000000004
 13
-0.0645653423594247
 23
-1.1752162935849211
 33
-0.0099999999999993
  0
3DFACE
  5
5F5
  8
LEGS
 10
-0.3225983054836893
 20
0.1153982445495037
 30
0.0300000000000007
 11
-0.3302710965768152
 21
0.1589128051816735
 31
0.0300000000000007
 12
-0.2711826313960827
 22
0.1693316958416893
 32
0.0300000000000007
 13
-0.2635098403029568
 23
0.1258171352095195
 33
0.0300000000000007
  0
3DFACE
  5
5FC
  8
BASE-TRANSPORT
 10
0.0
 20
-1.4699999999999991
 30
-0.0099999999999993
 11
0.01
 21
-1.4499999999999991
 31
0.0000000000000004
 12
0.01
 22
-1.6200000000000001
 32
0.0000000000000004
 13
0.0
 23
-1.6200000000000001
 33
-0.0099999999999993
  0
3DFACE
  5
5FD
  8
BASE-TRANSPORT
 10
-0.01
 20
-1.4499999999999991
 30
0.0000000000000004
 11
0.0
 21
-1.4699999999999991
 31
-0.0099999999999993
 12
0.0
 22
-1.6200000000000001
 32
-0.0099999999999993
 13
-0.01
 23
-1.6200000000000001
 33
0.0000000000000004
  0
3DFACE
  5
5FE
  8
BASE-TRANSPORT
 10
0.0
 20
-1.4699999999999991
 30
0.0100000000000007
 11
-0.01
 21
-1.4499999999999991
 31
0.0000000000000004
 12
-0.01
 22
-1.6200000000000001
 32
0.0000000000000004
 13
0.0
 23
-1.6200000000000001
 33
0.0100000000000007
  0
3DFACE
  5
5FF
  8
BASE-TRANSPORT
 10
0.01
 20
-1.4499999999999991
 30
0.0000000000000004
 11
0.0
 21
-1.4699999999999991
 31
0.0100000000000007
 12
0.0
 22
-1.6200000000000001
 32
0.0100000000000007
 13
0.01
 23
-1.6200000000000001
 33
0.0000000000000004
  0
3DFACE
  5
600
  8
BASE-TRANSPORT
 10
-0.03
 20
-1.589999999999999
 30
0.0100000000000007
 11
-0.03
 21
-1.319999999999999
 31
0.0000000000000004
 12
0.03
 22
-1.319999999999999
 32
0.0000000000000004
 13
0.03
 23
-1.589999999999999
 33
0.0100000000000007
  0
3DFACE
  5
601
  8
BASE-TRANSPORT
 10
-0.03
 20
-0.3399999999999999
 30
0.0300000000000007
 11
-0.03
 21
-0.26
 31
0.0300000000000007
 12
0.03
 22
-0.26
 32
0.0300000000000007
 13
0.03
 23
-0.3399999999999999
 33
0.0300000000000007
  0
3DFACE
  5
602
  8
LEGS
 10
-0.0442983741692869
 20
-1.2325682769889841
 30
0.0500000000000007
 11
-0.054146451699409
 21
-1.2343047587656539
 31
0.0600000000000005
 12
-0.038518115709385
 22
-1.3229374565367531
 32
0.0600000000000005
 13
-0.028670038179263
 23
-1.321200974760083
 33
0.0500000000000007
  0
3DFACE
  5
603
  8
LEGS
 10
-0.054146451699409
 20
-1.2343047587656539
 30
0.0600000000000005
 11
-0.063994529229531
 21
-1.2360412405423229
 31
0.0500000000000007
 12
-0.0483661932395073
 22
-1.3246739383134221
 32
0.0500000000000007
 13
-0.038518115709385
 23
-1.3229374565367531
 33
0.0600000000000005
  0
3DFACE
  5
604
  8
LEGS
 10
-0.063994529229531
 20
-1.2360412405423229
 30
0.0500000000000007
 11
-0.054146451699409
 21
-1.2343047587656539
 31
0.0400000000000005
 12
-0.038518115709385
 22
-1.3229374565367531
 32
0.0400000000000005
 13
-0.0483661932395073
 23
-1.3246739383134221
 33
0.0500000000000007
  0
3DFACE
  5
605
  8
LEGS
 10
-0.054146451699409
 20
-1.2343047587656539
 30
0.0400000000000005
 11
-0.0442983741692869
 21
-1.2325682769889841
 31
0.0500000000000007
 12
-0.028670038179263
 22
-1.321200974760083
 32
0.0500000000000007
 13
-0.038518115709385
 23
-1.3229374565367531
 33
0.0400000000000005
  0
3DFACE
  5
606
  8
LEGS
 10
-0.038518115709385
 20
-1.3229374565367531
 30
0.0600000000000005
 11
-0.0483661932395073
 21
-1.3246739383134221
 31
0.0500000000000007
 12
-0.038518115709385
 22
-1.3229374565367531
 32
0.0400000000000005
 13
-0.028670038179263
 23
-1.321200974760083
 33
0.0500000000000007
  0
3DFACE
  5
60D
  8
BASE-TRANSPORT
 10
0.0
 20
-1.679999999999999
 30
0.0400000000000005
 11
0.01
 21
-1.679999999999999
 31
0.0500000000000007
 12
0.01
 22
-1.7557735026918959
 32
0.0500000000000007
 13
0.0
 23
-1.76
 33
0.0400000000000005
  0
3DFACE
  5
60E
  8
BASE-TRANSPORT
 10
-0.01
 20
-1.679999999999999
 30
0.0500000000000007
 11
0.0
 21
-1.679999999999999
 31
0.0400000000000005
 12
0.0
 22
-1.76
 32
0.0400000000000005
 13
-0.01
 23
-1.7557735026918959
 33
0.0500000000000003
  0
3DFACE
  5
60F
  8
BASE-TRANSPORT
 10
0.0
 20
-1.679999999999999
 30
0.0600000000000005
 11
-0.01
 21
-1.679999999999999
 31
0.0500000000000007
 12
-0.01
 22
-1.7557735026918959
 32
0.0500000000000003
 13
0.0
 23
-1.76
 33
0.0600000000000001
  0
3DFACE
  5
610
  8
BASE-TRANSPORT
 10
0.01
 20
-1.679999999999999
 30
0.0500000000000007
 11
0.0
 21
-1.679999999999999
 31
0.0600000000000005
 12
0.0
 22
-1.76
 32
0.0600000000000001
 13
0.01
 23
-1.7557735026918959
 33
0.0500000000000007
  0
3DFACE
  5
611
  8
LEGS
 10
-0.3486455321337286
 20
0.263119407501335
 30
0.1000000000000005
 11
-0.3399631232503823
 21
0.2138790198507245
 31
0.1000000000000005
 12
-0.3225983054836893
 22
0.1153982445495037
 32
0.1800000000000006
 13
-0.3486455321337286
 23
0.263119407501335
 33
0.1800000000000006
  0
3DFACE
  5
612
  8
LEGS
 10
-0.2635098403029567
 20
0.1258171352095195
 30
0.1800000000000006
 11
-0.2808746580696497
 21
0.2242979105107404
 31
0.1000000000000005
 12
-0.2895570669529961
 22
0.2735382981613508
 32
0.1000000000000005
 13
-0.2895570669529961
 23
0.2735382981613508
 33
0.1800000000000006
  0
3DFACE
  5
615
  8
BASE-TRANSPORT
 10
0.04
 20
-0.0692820323027551
 30
0.0900000000000008
 11
0.08
 21
0.0
 31
0.0900000000000008
 12
0.08
 22
0.0
 32
0.1800000000000006
 13
0.04
 23
-0.0692820323027551
 33
0.1800000000000006
  0
3DFACE
  5
616
  8
BASE-TRANSPORT
 10
-0.04
 20
-0.0692820323027551
 30
0.0900000000000008
 11
0.04
 21
-0.0692820323027551
 31
0.0900000000000008
 12
0.04
 22
-0.0692820323027551
 32
0.1800000000000006
 13
-0.04
 23
-0.0692820323027551
 33
0.1800000000000006
  0
3DFACE
  5
617
  8
BASE-TRANSPORT
 10
-0.08
 20
0.0
 30
0.0900000000000008
 11
-0.04
 21
-0.0692820323027551
 31
0.0900000000000008
 12
-0.04
 22
-0.0692820323027551
 32
0.1800000000000006
 13
-0.08
 23
0.0
 33
0.1800000000000006
  0
3DFACE
  5
618
  8
BASE-TRANSPORT
 10
-0.04
 20
0.0692820323027551
 30
0.0900000000000008
 11
-0.08
 21
0.0
 31
0.0900000000000008
 12
-0.08
 22
0.0
 32
0.1800000000000006
 13
-0.04
 23
0.0692820323027551
 33
0.1800000000000006
  0
3DFACE
  5
619
  8
BASE-TRANSPORT
 10
0.04
 20
0.0692820323027551
 30
0.0900000000000008
 11
-0.04
 21
0.0692820323027551
 31
0.0900000000000008
 12
-0.04
 22
0.0692820323027551
 32
0.1800000000000006
 13
0.04
 23
0.0692820323027551
 33
0.1800000000000006
  0
3DFACE
  5
61A
  8
BASE-TRANSPORT
 10
0.08
 20
0.0
 30
0.0900000000000008
 11
0.04
 21
0.0692820323027551
 31
0.0900000000000008
 12
0.04
 22
0.0692820323027551
 32
0.1800000000000006
 13
0.08
 23
0.0
 33
0.1800000000000006
  0
3DFACE
  5
61B
  8
BASE-TRANSPORT
 10
-0.03
 20
-0.0600000000000001
 30
0.1000000000000005
 11
-0.03
 21
-0.15
 31
0.1000000000000005
 12
-0.03
 22
-0.31
 32
0.1800000000000006
 13
-0.03
 23
-0.0600000000000001
 33
0.1800000000000006
  0
3DFACE
  5
61C
  8
BASE-TRANSPORT
 10
0.03
 20
-0.31
 30
0.1800000000000006
 11
0.03
 21
-0.15
 31
0.1000000000000005
 12
0.03
 22
-0.0600000000000001
 32
0.1000000000000005
 13
0.03
 23
-0.0600000000000001
 33
0.1800000000000006
  0
3DFACE
  5
61D
  8
LEGS
 10
-0.2790088205845886
 20
0.1273346630561969
 30
0.0800000000000005
 11
-0.294007953418292
 21
0.1260174151588545
 31
0.094942920471377
 12
-0.239223137816575
 22
-0.1846827135542729
 32
0.1000000000000005
 13
-0.2105591673080374
 23
-0.2608626111302455
 33
0.0800000000000005
  0
3DFACE
  5
61E
  8
LEGS
 10
-0.294007953418292
 20
0.1260174151588545
 30
0.094942920471377
 11
-0.308553053174955
 21
0.1221252177261891
 31
0.0800000000000005
 12
-0.2401033998984037
 22
-0.2660720564602534
 32
0.0800000000000005
 13
-0.239223137816575
 23
-0.1846827135542729
 33
0.1000000000000005
  0
3DFACE
  5
621
  8
BASE-TRANSPORT
 10
0.0
 20
-0.3486926638587851
 30
0.094942920471377
 11
-0.015
 21
-0.35
 31
0.0800000000000005
 12
-0.015
 22
-0.7783637201794506
 32
0.1174769693814937
 13
0.0
 23
-0.7471705430954835
 33
0.1298052175704401
  0
3DFACE
  5
622
  8
BASE-TRANSPORT
 10
0.015
 20
-0.35
 30
0.0800000000000005
 11
0.0
 21
-0.3486926638587851
 31
0.094942920471377
 12
0.0
 22
-0.7471705430954835
 32
0.1298052175704401
 13
0.015
 23
-0.7783637201794506
 33
0.1174769693814937
  0
3DFACE
  5
624
  8
LEGS
 10
-0.2895570669529961
 20
0.2735382981613508
 30
0.1000000000000005
 11
-0.2808746580696497
 21
0.2242979105107404
 31
0.1000000000000005
 12
-0.3399631232503823
 22
0.2138790198507245
 32
0.1000000000000005
 13
-0.3486455321337286
 23
0.263119407501335
 33
0.1000000000000005
  0
3DFACE
  5
628
  8
BASE-TRANSPORT
 10
0.03
 20
-0.0600000000000001
 30
0.1000000000000005
 11
0.03
 21
-0.15
 31
0.1000000000000005
 12
-0.03
 22
-0.15
 32
0.1000000000000005
 13
-0.03
 23
-0.0600000000000001
 33
0.1000000000000005
  0
3DFACE
  5
629
  8
BASE-TRANSPORT
 10
0.2192031021678296
 20
-0.2192031021678298
 30
0.1800000000000006
 11
0.31
 21
0.0
 31
0.1800000000000006
 12
0.31
 22
0.0
 32
0.2200000000000006
 13
0.2192031021678296
 23
-0.2192031021678298
 33
0.2200000000000006
  0
3DFACE
  5
62A
  8
BASE-TRANSPORT
 10
-0.0000000000000001
 20
-0.31
 30
0.1800000000000006
 11
0.2192031021678296
 21
-0.2192031021678298
 31
0.1800000000000006
 12
0.2192031021678296
 22
-0.2192031021678298
 32
0.2200000000000006
 13
-0.0000000000000001
 23
-0.31
 33
0.2200000000000006
  0
3DFACE
  5
62B
  8
BASE-TRANSPORT
 10
-0.2192031021678297
 20
-0.2192031021678296
 30
0.1800000000000006
 11
-0.0000000000000001
 21
-0.31
 31
0.1800000000000006
 12
-0.0000000000000001
 22
-0.31
 32
0.2200000000000006
 13
-0.2192031021678297
 23
-0.2192031021678296
 33
0.2200000000000006
  0
3DFACE
  5
62C
  8
BASE-TRANSPORT
 10
-0.31
 20
0.0000000000000001
 30
0.1800000000000006
 11
-0.2192031021678297
 21
-0.2192031021678296
 31
0.1800000000000006
 12
-0.2192031021678297
 22
-0.2192031021678296
 32
0.2200000000000006
 13
-0.31
 23
0.0000000000000001
 33
0.2200000000000006
  0
3DFACE
  5
62D
  8
BASE-TRANSPORT
 10
-0.2836396103067893
 20
0.0636396103067893
 30
0.1800000000000006
 11
-0.31
 21
0.0000000000000001
 31
0.1800000000000006
 12
-0.31
 22
0.0000000000000001
 32
0.2200000000000006
 13
-0.2836396103067893
 23
0.0636396103067893
 33
0.2200000000000006
  0
3DFACE
  5
62E
  8
BASE-TRANSPORT
 10
0.0
 20
0.31
 30
0.1800000000000006
 11
-0.2192031021678297
 21
0.2192031021678297
 31
0.1800000000000006
 12
-0.2192031021678297
 22
0.2192031021678297
 32
0.2200000000000006
 13
0.0
 23
0.31
 33
0.2200000000000006
  0
3DFACE
  5
62F
  8
BASE-TRANSPORT
 10
0.2192031021678297
 20
0.2192031021678297
 30
0.1800000000000006
 11
0.0
 21
0.31
 31
0.1800000000000006
 12
0.0
 22
0.31
 32
0.2200000000000006
 13
0.2192031021678297
 23
0.2192031021678297
 33
0.2200000000000006
  0
3DFACE
  5
630
  8
BASE-TRANSPORT
 10
0.31
 20
0.0
 30
0.1800000000000006
 11
0.2836396103067893
 21
0.0636396103067893
 31
0.1799999999999997
 12
0.2836396103067893
 22
0.0636396103067893
 32
0.2199999999999997
 13
0.31
 23
0.0
 33
0.2200000000000006
  0
3DFACE
  5
631
  8
BASE-TRANSPORT
 10
0.31
 20
0.0
 30
0.2200000000000006
 11
-0.2192031021678297
 21
-0.2192031021678296
 31
0.2200000000000006
 12
-0.0000000000000001
 22
-0.31
 32
0.2200000000000006
 13
0.2192031021678296
 23
-0.2192031021678298
 33
0.2200000000000006
  0
3DFACE
  5
632
  8
BASE-TRANSPORT
 10
0.2192031021678298
 20
0.2192031021678297
 30
0.2200000000000006
 11
-0.31
 21
0.0000000000000001
 31
0.2200000000000006
 12
-0.2192031021678297
 22
-0.2192031021678296
 32
0.2200000000000006
 13
0.31
 23
0.0
 33
0.2200000000000006
  0
3DFACE
  5
633
  8
BASE-TRANSPORT
 10
0.0
 20
0.31
 30
0.2200000000000006
 11
-0.2192031021678297
 21
0.2192031021678297
 31
0.2200000000000006
 12
-0.31
 22
0.0000000000000001
 32
0.2200000000000006
 13
0.2192031021678297
 23
0.2192031021678297
 33
0.2200000000000006
  0
3DFACE
  5
638
  8
BASE-TRANSPORT
 10
0.03
 20
-0.36
 30
0.2900000000000005
 11
0.03
 21
-0.3400000000000001
 31
0.2600000000000007
 12
-0.03
 22
-0.3400000000000001
 32
0.2600000000000007
 13
-0.03
 23
-0.36
 33
0.2900000000000005
  0
3DFACE
  5
639
  8
BASE-TRANSPORT
 10
-0.03
 20
-0.36
 30
0.2900000000000005
 11
-0.03
 21
-0.4100000000000001
 31
0.2900000000000005
 12
0.03
 22
-0.4100000000000001
 32
0.2900000000000005
 13
0.03
 23
-0.36
 33
0.2900000000000005
  0
3DFACE
  5
63D
  8
BASE-TRANSPORT
 10
-0.2192031021678296
 20
0.2192031021678297
 30
0.1800000000000006
 11
-0.3199999999999999
 21
0.22
 31
0.1800000000000006
 12
-0.3199999999999999
 22
0.22
 32
0.2200000000000006
 13
-0.2192031021678296
 23
0.2192031021678297
 33
0.2200000000000006
  0
3DFACE
  5
63E
  8
BASE-TRANSPORT
 10
-0.3199999999999999
 20
0.22
 30
0.1800000000000006
 11
-0.36
 21
0.14
 31
0.1800000000000006
 12
-0.36
 22
0.14
 32
0.2200000000000006
 13
-0.3199999999999999
 23
0.22
 33
0.2200000000000006
  0
3DFACE
  5
63F
  8
BASE-TRANSPORT
 10
-0.36
 20
0.14
 30
0.1800000000000006
 11
-0.2836396103067893
 21
0.0636396103067893
 31
0.1800000000000006
 12
-0.2836396103067893
 22
0.0636396103067893
 32
0.2200000000000006
 13
-0.36
 23
0.14
 33
0.2200000000000006
  0
3DFACE
  5
640
  8
BASE-TRANSPORT
 10
-0.3199999999999999
 20
0.22
 30
0.2200000000000006
 11
-0.36
 21
0.14
 31
0.2200000000000006
 12
-0.2836396103067893
 22
0.0636396103067893
 32
0.2200000000000006
 13
-0.2192031021678296
 23
0.2192031021678297
 33
0.2200000000000006
  0
3DFACE
  5
642
  8
BASE-TRANSPORT
 10
0.2192031021678296
 20
0.2192031021678297
 30
0.2199999999999997
 11
0.3199999999999999
 21
0.22
 31
0.2199999999999997
 12
0.3199999999999999
 22
0.22
 32
0.1799999999999997
 13
0.2192031021678296
 23
0.2192031021678297
 33
0.1799999999999997
  0
3DFACE
  5
643
  8
BASE-TRANSPORT
 10
0.3199999999999999
 20
0.22
 30
0.2199999999999997
 11
0.36
 21
0.14
 31
0.2199999999999997
 12
0.36
 22
0.14
 32
0.1799999999999997
 13
0.3199999999999999
 23
0.22
 33
0.1799999999999997
  0
3DFACE
  5
644
  8
BASE-TRANSPORT
 10
0.36
 20
0.14
 30
0.2199999999999997
 11
0.2836396103067893
 21
0.0636396103067893
 31
0.2199999999999997
 12
0.2836396103067893
 22
0.0636396103067893
 32
0.1799999999999997
 13
0.36
 23
0.14
 33
0.1799999999999997
  0
3DFACE
  5
645
  8
BASE-TRANSPORT
 10
0.2836396103067893
 20
0.0636396103067893
 30
0.2199999999999997
 11
0.36
 21
0.14
 31
0.2199999999999997
 12
0.3199999999999999
 22
0.22
 32
0.2199999999999997
 13
0.2192031021678296
 23
0.2192031021678297
 33
0.2199999999999997
  0
TEXT
  5
64C
  8
BASE-TRANSPORT
 10
-0.33
 20
0.45
 30
0.0
 40
0.1
  1
-0.3; 0.16
  0
3DFACE
  5
64E
  8
LEGS
 10
-0.3225983054836893
 20
0.1153982445495037
 30
0.1300000000000003
 11
-0.3225983054836892
 21
0.1153982445495037
 31
0.0300000000000007
 12
-0.2635098403029568
 22
0.1258171352095195
 32
0.0300000000000007
 13
-0.2635098403029568
 23
0.1258171352095195
 33
0.1300000000000003
  0
3DFACE
  5
651
  8
LEGS
 10
-0.2895570669529961
 20
0.2735382981613508
 30
0.1800000000000006
 11
-0.2895570669529961
 21
0.2735382981613508
 31
0.1000000000000005
 12
-0.3486455321337286
 22
0.263119407501335
 32
0.1000000000000005
 13
-0.3486455321337286
 23
0.263119407501335
 33
0.1800000000000006
  0
3DFACE
  5
652
  8
LEGS
 10
-0.2635098403029569
 20
0.1258171352095196
 30
0.1800000000000006
 11
-0.2895570669529961
 21
0.2735382981613508
 31
0.1800000000000006
 12
-0.3486455321337286
 22
0.263119407501335
 32
0.1800000000000006
 13
-0.3225983054836894
 23
0.1153982445495037
 33
0.1800000000000006
  0
3DFACE
  5
65F
  8
BASE-TRANSPORT
 10
-0.29
 20
0.16
 30
0.2200000000000002
 11
-0.3
 21
0.17
 31
0.2200000000000002
 12
-0.3
 22
0.17
 32
0.2400000000000002
 13
-0.29
 23
0.16
 33
0.2400000000000002
  0
3DFACE
  5
660
  8
BASE-TRANSPORT
 10
-0.3
 20
0.17
 30
0.2200000000000002
 11
-0.31
 21
0.16
 31
0.2200000000000002
 12
-0.31
 22
0.16
 32
0.2400000000000002
 13
-0.3
 23
0.17
 33
0.2400000000000002
  0
3DFACE
  5
661
  8
BASE-TRANSPORT
 10
-0.31
 20
0.16
 30
0.2200000000000002
 11
-0.3
 21
0.15
 31
0.2200000000000002
 12
-0.3
 22
0.15
 32
0.2400000000000002
 13
-0.31
 23
0.16
 33
0.2400000000000002
  0
3DFACE
  5
662
  8
BASE-TRANSPORT
 10
-0.3
 20
0.15
 30
0.2200000000000002
 11
-0.29
 21
0.16
 31
0.2200000000000002
 12
-0.29
 22
0.16
 32
0.2400000000000002
 13
-0.3
 23
0.15
 33
0.2400000000000002
  0
3DFACE
  5
663
  8
BASE-TRANSPORT
 10
-0.29
 20
0.16
 30
0.2400000000000002
 11
-0.3
 21
0.17
 31
0.2400000000000002
 12
-0.31
 22
0.16
 32
0.2400000000000002
 13
-0.3
 23
0.15
 33
0.2400000000000002
  0
3DFACE
  5
664
  8
BASE-TRANSPORT
 10
0.3
 20
0.15
 30
0.2200000000000002
 11
0.31
 21
0.16
 31
0.2200000000000002
 12
0.31
 22
0.16
 32
0.2400000000000002
 13
0.3
 23
0.15
 33
0.2400000000000002
  0
3DFACE
  5
665
  8
BASE-TRANSPORT
 10
0.29
 20
0.16
 30
0.2200000000000002
 11
0.3
 21
0.15
 31
0.2200000000000002
 12
0.3
 22
0.15
 32
0.2400000000000002
 13
0.29
 23
0.16
 33
0.2400000000000002
  0
3DFACE
  5
666
  8
BASE-TRANSPORT
 10
0.3
 20
0.17
 30
0.2200000000000002
 11
0.29
 21
0.16
 31
0.2200000000000002
 12
0.29
 22
0.16
 32
0.2400000000000002
 13
0.3
 23
0.17
 33
0.2400000000000002
  0
3DFACE
  5
667
  8
BASE-TRANSPORT
 10
0.31
 20
0.16
 30
0.2200000000000002
 11
0.3
 21
0.17
 31
0.2200000000000002
 12
0.3
 22
0.17
 32
0.2400000000000002
 13
0.31
 23
0.16
 33
0.2400000000000002
  0
3DFACE
  5
668
  8
BASE-TRANSPORT
 10
0.31
 20
0.16
 30
0.2400000000000002
 11
0.3
 21
0.17
 31
0.2400000000000002
 12
0.29
 22
0.16
 32
0.2400000000000002
 13
0.3
 23
0.15
 33
0.2400000000000002
  0
3DFACE
  5
66A
  8
LEGS
 10
0.3486455321337287
 20
0.263119407501335
 30
0.1800000000000006
 11
0.3486455321337287
 21
0.263119407501335
 31
0.1000000000000005
 12
0.2895570669529961
 22
0.2735382981613508
 32
0.1000000000000005
 13
0.2895570669529961
 23
0.2735382981613508
 33
0.1800000000000006
  0
3DFACE
  5
66B
  8
LEGS
 10
0.2635098403029561
 20
0.1258171352095196
 30
0.1800000000000006
 11
0.040230555099064
 21
-1.140462615664547
 31
0.0100000000000007
 12
0.0993190202797964
 22
-1.150881506324563
 32
0.0100000000000007
 13
0.3225983054836888
 23
0.1153982445495038
 33
0.1800000000000006
  0
3DFACE
  5
66C
  8
LEGS
 10
0.0993190202797964
 20
-1.150881506324563
 30
0.0100000000000007
 11
0.1462040282498679
 21
-0.8849834130112668
 31
0.0000000000000004
 12
0.3225983054836888
 22
0.1153982445495038
 32
0.1300000000000003
 13
0.3225983054836888
 23
0.1153982445495038
 33
0.1800000000000006
  0
3DFACE
  5
66D
  8
LEGS
 10
0.2635098403029563
 20
0.1258171352095196
 30
0.1300000000000003
 11
0.0871155630691354
 21
-0.8745645223512504
 31
0.0000000000000004
 12
0.040230555099064
 22
-1.140462615664547
 32
0.0100000000000007
 13
0.2635098403029561
 23
0.1258171352095196
 33
0.1800000000000006
  0
3DFACE
  5
66E
  8
LEGS
 10
0.3225983054836888
 20
0.1153982445495038
 30
0.0300000000000007
 11
0.3302710965768147
 21
0.1589128051816735
 31
0.0300000000000007
 12
0.339963123250382
 22
0.2138790198507246
 32
0.1000000000000005
 13
0.3225983054836889
 23
0.1153982445495038
 33
0.1800000000000006
  0
3DFACE
  5
66F
  8
LEGS
 10
0.2808746580696494
 20
0.2242979105107405
 30
0.1000000000000005
 11
0.2711826313960822
 21
0.1693316958416895
 31
0.0300000000000007
 12
0.2635098403029563
 22
0.1258171352095196
 32
0.0300000000000007
 13
0.2635098403029562
 23
0.1258171352095196
 33
0.1800000000000006
  0
3DFACE
  5
670
  8
LEGS
 10
0.3225983054836889
 20
0.1153982445495038
 30
0.1800000000000006
 11
0.339963123250382
 21
0.2138790198507246
 31
0.1000000000000005
 12
0.3486455321337287
 22
0.263119407501335
 32
0.1000000000000005
 13
0.3486455321337287
 23
0.263119407501335
 33
0.1800000000000006
  0
3DFACE
  5
671
  8
LEGS
 10
0.2895570669529961
 20
0.2735382981613508
 30
0.1000000000000005
 11
0.2808746580696494
 21
0.2242979105107405
 31
0.1000000000000005
 12
0.2635098403029562
 22
0.1258171352095196
 32
0.1800000000000006
 13
0.2895570669529961
 23
0.2735382981613508
 33
0.1800000000000006
  0
3DFACE
  5
672
  8
LEGS
 10
0.0547172648293001
 20
-1.1734798118082519
 30
0.0000000000000004
 11
0.0645653423594222
 21
-1.1752162935849211
 31
-0.0099999999999993
 12
0.0541464516994063
 22
-1.234304758765653
 32
0.0400000000000005
 13
0.0442983741692841
 23
-1.2325682769889841
 33
0.0500000000000007
  0
3DFACE
  5
673
  8
LEGS
 10
0.0645653423594222
 20
-1.1752162935849211
 30
-0.0099999999999993
 11
0.0744134198895443
 21
-1.17695277536159
 31
0.0000000000000004
 12
0.0639945292295283
 22
-1.2360412405423229
 32
0.0500000000000007
 13
0.0541464516994063
 23
-1.234304758765653
 33
0.0400000000000005
  0
3DFACE
  5
674
  8
LEGS
 10
0.3225983054836888
 20
0.1153982445495038
 30
0.1300000000000003
 11
0.1462040282498679
 21
-0.8849834130112668
 31
0.0000000000000004
 12
0.0871155630691354
 22
-0.8745645223512504
 32
0.0000000000000004
 13
0.2635098403029563
 23
0.1258171352095196
 33
0.1300000000000003
  0
3DFACE
  5
675
  8
LEGS
 10
0.2635098403029563
 20
0.1258171352095196
 30
0.1300000000000003
 11
0.2635098403029563
 21
0.1258171352095196
 31
0.0300000000000007
 12
0.3225983054836888
 22
0.1153982445495038
 32
0.0300000000000007
 13
0.3225983054836888
 23
0.1153982445495038
 33
0.1300000000000003
  0
3DFACE
  5
676
  8
LEGS
 10
0.339963123250382
 20
0.2138790198507246
 30
0.1000000000000005
 11
0.3302710965768147
 21
0.1589128051816735
 31
0.0300000000000007
 12
0.2711826313960822
 22
0.1693316958416895
 32
0.0300000000000007
 13
0.2808746580696494
 23
0.2242979105107405
 33
0.1000000000000005
  0
3DFACE
  5
677
  8
LEGS
 10
0.0744134198895443
 20
-1.17695277536159
 30
0.0000000000000004
 11
0.0645653423594222
 21
-1.1752162935849211
 31
0.0100000000000007
 12
0.0541464516994063
 22
-1.234304758765653
 32
0.0600000000000005
 13
0.0639945292295283
 23
-1.2360412405423229
 33
0.0500000000000007
  0
3DFACE
  5
678
  8
LEGS
 10
0.0645653423594222
 20
-1.1752162935849211
 30
0.0100000000000007
 11
0.0547172648293001
 21
-1.1734798118082519
 31
0.0000000000000004
 12
0.0442983741692841
 22
-1.2325682769889841
 32
0.0500000000000007
 13
0.0541464516994063
 23
-1.234304758765653
 33
0.0600000000000005
  0
3DFACE
  5
679
  8
LEGS
 10
0.0442983741692841
 20
-1.2325682769889841
 30
0.0500000000000007
 11
0.0541464516994063
 21
-1.234304758765653
 31
0.0400000000000005
 12
0.0385181157093828
 22
-1.322937456536752
 32
0.0400000000000005
 13
0.0286700381792605
 23
-1.321200974760083
 33
0.0500000000000007
  0
3DFACE
  5
67A
  8
LEGS
 10
0.0541464516994063
 20
-1.234304758765653
 30
0.0400000000000005
 11
0.0639945292295283
 21
-1.2360412405423229
 31
0.0500000000000007
 12
0.0483661932395047
 22
-1.3246739383134221
 32
0.0500000000000007
 13
0.0385181157093828
 23
-1.322937456536752
 33
0.0400000000000005
  0
3DFACE
  5
67B
  8
LEGS
 10
0.0385181157093828
 20
-1.322937456536752
 30
0.0600000000000005
 11
0.0286700381792605
 21
-1.321200974760083
 31
0.0500000000000007
 12
0.0385181157093828
 22
-1.322937456536752
 32
0.0400000000000005
 13
0.0483661932395047
 23
-1.3246739383134221
 33
0.0500000000000007
  0
3DFACE
  5
67C
  8
LEGS
 10
0.0842374550326783
 20
-1.006062493796176
 30
0.0000000000000004
 11
0.0906125690094618
 21
-1.0274951306330891
 31
-0.0099999999999993
 12
0.0645653423594222
 22
-1.1752162935849211
 32
-0.0099999999999993
 13
0.0547172648293001
 23
-1.1734798118082519
 33
0.0000000000000004
  0
3DFACE
  5
67D
  8
LEGS
 10
0.0906125690094618
 20
-1.0274951306330891
 30
-0.0099999999999993
 11
0.1039336100929225
 21
-1.009535457349515
 31
0.0000000000000004
 12
0.0744134198895443
 22
-1.17695277536159
 32
0.0000000000000004
 13
0.0645653423594222
 23
-1.1752162935849211
 33
-0.0099999999999993
  0
3DFACE
  5
67E
  8
LEGS
 10
0.040230555099064
 20
-1.140462615664547
 30
0.0100000000000007
 11
0.0871155630691354
 21
-0.8745645223512504
 31
0.0000000000000004
 12
0.1462040282498679
 22
-0.8849834130112668
 32
0.0000000000000004
 13
0.0993190202797964
 23
-1.150881506324563
 33
0.0100000000000007
  0
3DFACE
  5
67F
  8
LEGS
 10
0.1039336100929225
 20
-1.009535457349515
 30
0.0000000000000004
 11
0.0906125690094618
 21
-1.0274951306330891
 31
0.0100000000000007
 12
0.0645653423594222
 22
-1.1752162935849211
 32
0.0100000000000007
 13
0.0744134198895443
 23
-1.17695277536159
 33
0.0000000000000004
  0
3DFACE
  5
680
  8
LEGS
 10
0.0906125690094618
 20
-1.0274951306330891
 30
0.0100000000000007
 11
0.0842374550326783
 21
-1.006062493796176
 31
0.0000000000000004
 12
0.0547172648293001
 22
-1.1734798118082519
 32
0.0000000000000004
 13
0.0645653423594222
 23
-1.1752162935849211
 33
0.0100000000000007
  0
3DFACE
  5
681
  8
LEGS
 10
0.2635098403029563
 20
0.1258171352095196
 30
0.0300000000000007
 11
0.2711826313960822
 21
0.1693316958416895
 31
0.0300000000000007
 12
0.3302710965768147
 22
0.1589128051816735
 32
0.0300000000000007
 13
0.3225983054836888
 23
0.1153982445495038
 33
0.0300000000000007
  0
3DFACE
  5
682
  8
LEGS
 10
0.2940079534182912
 20
0.1260174151588546
 30
0.094942920471377
 11
0.279008820584588
 21
0.1273346630561971
 31
0.0800000000000005
 12
0.2105591673080362
 22
-0.2608626111302454
 32
0.0800000000000005
 13
0.2392231378165738
 23
-0.1846827135542727
 33
0.1000000000000005
  0
3DFACE
  5
683
  8
LEGS
 10
0.3085530531749543
 20
0.1221252177261891
 30
0.0800000000000005
 11
0.2940079534182912
 21
0.1260174151588546
 31
0.094942920471377
 12
0.2392231378165738
 22
-0.1846827135542727
 32
0.1000000000000005
 13
0.2401033998984024
 23
-0.2660720564602532
 33
0.0800000000000005
  0
3DFACE
  5
684
  8
LEGS
 10
0.0639945292295283
 20
-1.2360412405423229
 30
0.0500000000000007
 11
0.0541464516994063
 21
-1.234304758765653
 31
0.0600000000000005
 12
0.0385181157093828
 22
-1.322937456536752
 32
0.0600000000000005
 13
0.0483661932395047
 23
-1.3246739383134221
 33
0.0500000000000007
  0
3DFACE
  5
685
  8
LEGS
 10
0.0541464516994063
 20
-1.234304758765653
 30
0.0600000000000005
 11
0.0442983741692841
 21
-1.2325682769889841
 31
0.0500000000000007
 12
0.0286700381792605
 22
-1.321200974760083
 32
0.0500000000000007
 13
0.0385181157093828
 23
-1.322937456536752
 33
0.0600000000000005
  0
3DFACE
  5
686
  8
LEGS
 10
0.2935539203412511
 20
0.1234424656235318
 30
0.0650570795286245
 11
0.3085530531749543
 21
0.1221252177261891
 31
0.0800000000000005
 12
0.2401033998984024
 22
-0.2660720564602532
 32
0.0800000000000005
 13
0.2114394293898648
 23
-0.342251954036226
 33
0.0700000000000003
  0
3DFACE
  5
687
  8
LEGS
 10
0.279008820584588
 20
0.1273346630561971
 30
0.0800000000000005
 11
0.2935539203412511
 21
0.1234424656235318
 31
0.0650570795286245
 12
0.2114394293898648
 22
-0.342251954036226
 32
0.0700000000000003
 13
0.2105591673080362
 23
-0.2608626111302454
 33
0.0800000000000005
  0
3DFACE
  5
688
  8
LEGS
 10
0.3486455321337287
 20
0.263119407501335
 30
0.1000000000000005
 11
0.339963123250382
 21
0.2138790198507246
 31
0.1000000000000005
 12
0.2808746580696494
 22
0.2242979105107405
 32
0.1000000000000005
 13
0.2895570669529961
 23
0.2735382981613508
 33
0.1000000000000005
  0
3DFACE
  5
689
  8
LEGS
 10
0.3225983054836888
 20
0.1153982445495039
 30
0.1800000000000006
 11
0.3486455321337287
 21
0.263119407501335
 31
0.1800000000000006
 12
0.2895570669529961
 22
0.2735382981613508
 32
0.1800000000000006
 13
0.2635098403029561
 23
0.1258171352095196
 33
0.1800000000000006
  0
3DFACE
  5
6A6
  8
BASE-TRANSPORT
 10
0.0
 20
-1.75
 30
0.0500000000000003
 11
0.0
 21
-1.76
 31
0.0600000000000001
 12
0.0259807621135331
 22
-1.7749999999999999
 32
0.0600000000000001
 13
0.0346410161513775
 23
-1.77
 33
0.0500000000000003
  0
3DFACE
  5
6A7
  8
BASE-TRANSPORT
 10
0.0
 20
-1.76
 30
0.0600000000000001
 11
0.0
 21
-1.77
 31
0.0500000000000003
 12
0.0173205080756886
 22
-1.78
 32
0.0500000000000003
 13
0.0259807621135331
 23
-1.7749999999999999
 33
0.0600000000000001
  0
3DFACE
  5
6A8
  8
BASE-TRANSPORT
 10
0.0
 20
-1.77
 30
0.0500000000000003
 11
0.0
 21
-1.76
 31
0.0400000000000005
 12
0.0259807621135331
 22
-1.7749999999999999
 32
0.0400000000000005
 13
0.0173205080756886
 23
-1.78
 33
0.0500000000000003
  0
3DFACE
  5
6A9
  8
BASE-TRANSPORT
 10
0.0
 20
-1.76
 30
0.0400000000000005
 11
0.0
 21
-1.75
 31
0.0500000000000003
 12
0.0346410161513775
 22
-1.77
 32
0.0500000000000003
 13
0.0259807621135331
 23
-1.7749999999999999
 33
0.0400000000000005
  0
3DFACE
  5
6AA
  8
BASE-TRANSPORT
 10
0.0346410161513775
 20
-1.77
 30
0.0500000000000003
 11
0.0259807621135331
 21
-1.7749999999999999
 31
0.0600000000000001
 12
0.0259807621135333
 22
-1.804999999999999
 32
0.0600000000000001
 13
0.0346410161513777
 23
-1.8100000000000001
 33
0.0500000000000003
  0
3DFACE
  5
6AB
  8
BASE-TRANSPORT
 10
0.0259807621135331
 20
-1.7749999999999999
 30
0.0600000000000001
 11
0.0173205080756886
 21
-1.78
 31
0.0500000000000003
 12
0.0173205080756889
 22
-1.8
 32
0.0500000000000003
 13
0.0259807621135333
 23
-1.804999999999999
 33
0.0600000000000001
  0
3DFACE
  5
6AC
  8
BASE-TRANSPORT
 10
0.0173205080756886
 20
-1.78
 30
0.0500000000000003
 11
0.0259807621135331
 21
-1.7749999999999999
 31
0.0400000000000005
 12
0.0259807621135333
 22
-1.804999999999999
 32
0.0400000000000005
 13
0.0173205080756889
 23
-1.8
 33
0.0500000000000003
  0
3DFACE
  5
6AD
  8
BASE-TRANSPORT
 10
0.0259807621135331
 20
-1.7749999999999999
 30
0.0400000000000005
 11
0.0346410161513775
 21
-1.77
 31
0.0500000000000003
 12
0.0346410161513777
 22
-1.8100000000000001
 32
0.0500000000000003
 13
0.0259807621135333
 23
-1.804999999999999
 33
0.0400000000000005
  0
3DFACE
  5
6AE
  8
BASE-TRANSPORT
 10
0.0346410161513777
 20
-1.8100000000000001
 30
0.0500000000000003
 11
0.0259807621135333
 21
-1.804999999999999
 31
0.0600000000000001
 12
0.0
 22
-1.8200000000000001
 32
0.0600000000000001
 13
0.0
 23
-1.8300000000000001
 33
0.0500000000000003
  0
3DFACE
  5
6AF
  8
BASE-TRANSPORT
 10
0.0259807621135333
 20
-1.804999999999999
 30
0.0600000000000001
 11
0.0173205080756889
 21
-1.8
 31
0.0500000000000003
 12
0.0
 22
-1.8100000000000001
 32
0.0500000000000003
 13
0.0
 23
-1.8200000000000001
 33
0.0600000000000001
  0
3DFACE
  5
6B0
  8
BASE-TRANSPORT
 10
0.0173205080756889
 20
-1.8
 30
0.0500000000000003
 11
0.0259807621135333
 21
-1.804999999999999
 31
0.0400000000000005
 12
0.0
 22
-1.8200000000000001
 32
0.0400000000000005
 13
0.0
 23
-1.8100000000000001
 33
0.0500000000000003
  0
3DFACE
  5
6B1
  8
BASE-TRANSPORT
 10
0.0259807621135333
 20
-1.804999999999999
 30
0.0400000000000005
 11
0.0346410161513777
 21
-1.8100000000000001
 31
0.0500000000000003
 12
0.0
 22
-1.8300000000000001
 32
0.0500000000000003
 13
0.0
 23
-1.8200000000000001
 33
0.0400000000000005
  0
3DFACE
  5
6B2
  8
BASE-TRANSPORT
 10
0.0
 20
-1.8300000000000001
 30
0.0500000000000003
 11
0.0
 21
-1.8200000000000001
 31
0.0600000000000001
 12
-0.0259807621135331
 22
-1.8049999999999999
 32
0.0600000000000001
 13
-0.0346410161513773
 23
-1.8100000000000001
 33
0.0500000000000003
  0
3DFACE
  5
6B3
  8
BASE-TRANSPORT
 10
0.0
 20
-1.8200000000000001
 30
0.0600000000000001
 11
0.0
 21
-1.8100000000000001
 31
0.0500000000000003
 12
-0.0173205080756886
 22
-1.8
 32
0.0500000000000003
 13
-0.0259807621135331
 23
-1.8049999999999999
 33
0.0600000000000001
  0
3DFACE
  5
6B4
  8
BASE-TRANSPORT
 10
0.0
 20
-1.8100000000000001
 30
0.0500000000000003
 11
0.0
 21
-1.8200000000000001
 31
0.0400000000000005
 12
-0.0259807621135331
 22
-1.804999999999999
 32
0.0400000000000005
 13
-0.0173205080756886
 23
-1.8
 33
0.0500000000000003
  0
3DFACE
  5
6B5
  8
BASE-TRANSPORT
 10
0.0
 20
-1.8200000000000001
 30
0.0400000000000005
 11
0.0
 21
-1.8300000000000001
 31
0.0500000000000003
 12
-0.0346410161513773
 22
-1.8100000000000001
 32
0.0500000000000003
 13
-0.0259807621135331
 23
-1.804999999999999
 33
0.0400000000000005
  0
3DFACE
  5
6B6
  8
BASE-TRANSPORT
 10
-0.0346410161513773
 20
-1.8100000000000001
 30
0.0500000000000003
 11
-0.0259807621135331
 21
-1.8049999999999999
 31
0.0600000000000001
 12
-0.0259807621135331
 22
-1.7749999999999999
 32
0.0600000000000001
 13
-0.0346410161513775
 23
-1.77
 33
0.0500000000000003
  0
3DFACE
  5
6B7
  8
BASE-TRANSPORT
 10
-0.0259807621135331
 20
-1.8049999999999999
 30
0.0600000000000001
 11
-0.0173205080756886
 21
-1.8
 31
0.0500000000000003
 12
-0.0173205080756886
 22
-1.78
 32
0.0500000000000003
 13
-0.0259807621135331
 23
-1.7749999999999999
 33
0.0600000000000001
  0
3DFACE
  5
6B8
  8
BASE-TRANSPORT
 10
-0.0173205080756886
 20
-1.8
 30
0.0500000000000003
 11
-0.0259807621135331
 21
-1.804999999999999
 31
0.0400000000000005
 12
-0.0259807621135331
 22
-1.7749999999999999
 32
0.0400000000000005
 13
-0.0173205080756886
 23
-1.78
 33
0.0500000000000003
  0
3DFACE
  5
6B9
  8
BASE-TRANSPORT
 10
-0.0259807621135331
 20
-1.804999999999999
 30
0.0400000000000005
 11
-0.0346410161513773
 21
-1.8100000000000001
 31
0.0500000000000003
 12
-0.0346410161513775
 22
-1.77
 32
0.0500000000000003
 13
-0.0259807621135331
 23
-1.7749999999999999
 33
0.0400000000000005
  0
3DFACE
  5
6BA
  8
BASE-TRANSPORT
 10
-0.0346410161513775
 20
-1.77
 30
0.0500000000000003
 11
-0.0259807621135331
 21
-1.7749999999999999
 31
0.0600000000000001
 12
0.0
 22
-1.76
 32
0.0600000000000001
 13
0.0
 23
-1.75
 33
0.0500000000000003
  0
3DFACE
  5
6BB
  8
BASE-TRANSPORT
 10
-0.0259807621135331
 20
-1.7749999999999999
 30
0.0600000000000001
 11
-0.0173205080756886
 21
-1.78
 31
0.0500000000000003
 12
0.0
 22
-1.77
 32
0.0500000000000003
 13
0.0
 23
-1.76
 33
0.0600000000000001
  0
3DFACE
  5
6BC
  8
BASE-TRANSPORT
 10
-0.0173205080756886
 20
-1.78
 30
0.0500000000000003
 11
-0.0259807621135331
 21
-1.7749999999999999
 31
0.0400000000000005
 12
0.0
 22
-1.76
 32
0.0400000000000005
 13
0.0
 23
-1.77
 33
0.0500000000000003
  0
3DFACE
  5
6BD
  8
BASE-TRANSPORT
 10
-0.0259807621135331
 20
-1.7749999999999999
 30
0.0400000000000005
 11
-0.0346410161513775
 21
-1.77
 31
0.0500000000000003
 12
0.0
 22
-1.75
 32
0.0500000000000003
 13
0.0
 23
-1.76
 33
0.0400000000000005
  0
3DFACE
  5
753
  8
BASE-TRANSPORT
 10
0.3399999999999999
 20
0.03
 30
-0.03
 11
0.3399999999999999
 21
-0.03
 31
-0.03
 12
0.3399999999999999
 22
-0.03
 32
0.0600000000000001
 13
0.3399999999999999
 23
0.03
 33
0.0600000000000001
  0
3DFACE
  5
754
  8
BASE-TRANSPORT
 10
0.38
 20
-0.03
 30
0.0600000000000001
 11
0.38
 21
-0.03
 31
-0.03
 12
0.38
 22
0.03
 32
-0.03
 13
0.38
 23
0.03
 33
0.06
  0
3DFACE
  5
755
  8
BASE-TRANSPORT
 10
0.3399999999999999
 20
-0.03
 30
0.0600000000000001
 11
0.3399999999999999
 21
-0.03
 31
-0.03
 12
0.38
 22
-0.03
 32
-0.03
 13
0.38
 23
-0.03
 33
0.0600000000000001
  0
3DFACE
  5
756
  8
BASE-TRANSPORT
 10
0.3399999999999999
 20
0.03
 30
0.0600000000000001
 11
0.3399999999999999
 21
-0.03
 31
0.0600000000000001
 12
0.38
 22
-0.03
 32
0.0600000000000001
 13
0.38
 23
0.03
 33
0.06
  0
3DFACE
  5
757
  8
BASE-TRANSPORT
 10
0.38
 20
0.03
 30
0.06
 11
0.38
 21
0.03
 31
-0.03
 12
0.3399999999999999
 22
0.03
 32
-0.03
 13
0.3399999999999999
 23
0.03
 33
0.0600000000000001
  0
3DFACE
  5
758
  8
BASE-TRANSPORT
 10
0.38
 20
0.03
 30
-0.03
 11
0.38
 21
-0.03
 31
-0.03
 12
0.3399999999999999
 22
-0.03
 32
-0.03
 13
0.3399999999999999
 23
0.03
 33
-0.03
  0
3DFACE
  5
766
  8
BASE-TRANSPORT
 10
-0.3399999999999999
 20
0.03
 30
0.06
 11
-0.3399999999999999
 21
0.03
 31
-0.03
 12
-0.38
 22
0.03
 32
-0.03
 13
-0.38
 23
0.03
 33
0.0600000000000001
  0
3DFACE
  5
767
  8
BASE-TRANSPORT
 10
-0.38
 20
-0.03
 30
0.0600000000000001
 11
-0.38
 21
-0.03
 31
-0.03
 12
-0.3399999999999999
 22
-0.03
 32
-0.03
 13
-0.3399999999999999
 23
-0.03
 33
0.0600000000000001
  0
3DFACE
  5
768
  8
BASE-TRANSPORT
 10
-0.3399999999999999
 20
0.03
 30
-0.03
 11
-0.3399999999999999
 21
-0.03
 31
-0.03
 12
-0.38
 22
-0.03
 32
-0.03
 13
-0.38
 23
0.03
 33
-0.03
  0
3DFACE
  5
769
  8
BASE-TRANSPORT
 10
-0.3399999999999999
 20
-0.03
 30
0.0600000000000001
 11
-0.3399999999999999
 21
-0.03
 31
-0.03
 12
-0.3399999999999999
 22
0.03
 32
-0.03
 13
-0.3399999999999999
 23
0.03
 33
0.06
  0
3DFACE
  5
76A
  8
BASE-TRANSPORT
 10
-0.38
 20
0.03
 30
-0.03
 11
-0.38
 21
-0.03
 31
-0.03
 12
-0.38
 22
-0.03
 32
0.0600000000000001
 13
-0.38
 23
0.03
 33
0.0600000000000001
  0
3DFACE
  5
76B
  8
BASE-TRANSPORT
 10
-0.38
 20
0.03
 30
0.0600000000000001
 11
-0.38
 21
-0.03
 31
0.0600000000000001
 12
-0.3399999999999999
 22
-0.03
 32
0.0600000000000001
 13
-0.3399999999999999
 23
0.03
 33
0.06
  0
3DFACE
  5
76D
  8
BASE-TRANSPORT
 10
0.34
 20
-0.02
 30
0.03
 11
0.34
 21
0.0
 31
0.05
 12
-0.34
 22
0.0
 32
0.05
 13
-0.34
 23
-0.02
 33
0.03
  0
3DFACE
  5
76E
  8
BASE-TRANSPORT
 10
0.34
 20
0.0
 30
0.05
 11
0.34
 21
0.02
 31
0.03
 12
-0.34
 22
0.02
 32
0.03
 13
-0.34
 23
0.0
 33
0.05
  0
3DFACE
  5
76F
  8
BASE-TRANSPORT
 10
0.34
 20
0.02
 30
0.03
 11
0.34
 21
0.0
 31
0.01
 12
-0.34
 22
0.0
 32
0.01
 13
-0.34
 23
0.02
 33
0.03
  0
3DFACE
  5
770
  8
BASE-TRANSPORT
 10
0.34
 20
0.0
 30
0.01
 11
0.34
 21
-0.02
 31
0.03
 12
-0.34
 22
-0.02
 32
0.03
 13
-0.34
 23
0.0
 33
0.01
  0
VIEWPORT
  5
2E
 67
     1
  8
0
 10
144.7270812988281
 20
101.2295806407928
 30
0.0
 40
391.13550988316581
 41
222.15178063964839
 68
     2
 69
     1
1001
ACAD
1000
MVIEW
1002
{
1070
    16
1010
0.0
1020
0.0
1030
0.0
1010
0.0
1020
0.0
1030
1.0
1040
0.0
1040
222.15178063964839
1040
144.7270812988281
1040
101.2295806407928
1040
50.0
1040
0.0
1040
0.0
1070
     0
1070
   100
1070
     1
1070
     1
1070
     0
1070
     0
1070
     0
1070
     0
1040
0.0
1040
0.0
1040
0.0
1040
10.0
1040
10.0
1040
10.0
1040
10.0
1070
     0
1002
{
1002
}
1002
}
  0
VIEWPORT
  5
30
 67
     1
  8
0
 10
139.22375631332389
 20
100.8062499761581
 30
0.0
 40
222.75801010131829
 41
161.289999961853
 68
     1
 69
     2
1001
ACAD
1000
MVIEW
1002
{
1070
    16
1010
0.0
1020
0.0
1030
0.0
1010
0.0
1020
0.0
1030
1.0
1040
0.0
1040
307.49010134148989
1040
210.0
1040
148.5
1040
50.0
1040
0.0
1040
0.0
1070
     0
1070
   100
1070
     1
1070
     3
1070
     0
1070
     1
1070
     0
1070
     0
1040
0.0
1040
0.0
1040
0.0
1040
10.0
1040
10.0
1040
10.0
1040
10.0
1070
     0
1002
{
1002
}
1002
}
  0
ENDSEC
  0
EOF
