mtllib barrel.mtl
g g0
o barrel
v 0.298615 0.298615 -11.0636
v 0.388153 0.388153 0
v 0 0.422272 -11.0636
v 0 0.548981 0
v -0.298615 0.298615 -11.0636
v -0.388153 0.388153 0
v -0.422272 0 -11.0636
v -0.548981 0 0
v -0.298615 -0.298615 -11.0636
v -0.388153 -0.388153 0
v 0 -0.422272 -11.0636
v 0 -0.548981 0
v 0.422272 0 -11.0636
v 0.298615 -0.298615 -11.0636
v 0.388153 -0.388153 0
v 0.548981 0 0
v 0.358307 -0.358307 -11.0636
v 0.358307 -0.358307 -12.1615
v 0 -0.506714 -11.0636
v 0 -0.506714 -12.1615
v -0.358307 -0.358307 -11.0636
v -0.358307 -0.358307 -12.1615
v -0.506714 0 -11.0636
v -0.506714 0 -12.1615
v -0.358307 0.358307 -11.0636
v -0.358307 0.358307 -12.1615
v 0 0.506714 -11.0636
v 0 0.506714 -12.1615
v 0.506714 0 -11.0636
v 0.358307 0.358307 -11.0636
v 0.358307 0.358307 -12.1615
v 0.506714 0 -12.1615
vn 0.990604 0.136766 0
vn 0.923887 0.382664 0
vn 0.923887 0.382664 0
vn 0.923887 0.382664 0
vn 0.990604 0.136766 0
vn 0.990604 -0.136766 0
vn 0.382664 0.923887 0
vn 0.136766 0.990604 0
vn 0.382664 0.923887 0
vn 0.136766 0.990604 0
vn 0.382664 0.923887 0
vn -0.136766 0.990604 0
vn -0.136766 0.990604 0
vn -0.382664 0.923887 0
vn 0.136766 0.990604 0
vn -0.382664 0.923887 0
vn -0.136766 0.990604 0
vn -0.382664 0.923887 0
vn -0.990604 0.136766 0
vn -0.923887 0.382664 0
vn -0.923887 0.382664 0
vn -0.923887 0.382664 0
vn -0.990604 0.136766 0
vn -0.990604 -0.136766 0
vn -0.923887 -0.382664 0
vn -0.990604 -0.136766 0
vn -0.990604 0.136766 0
vn -0.990604 -0.136766 0
vn -0.923887 -0.382664 0
vn -0.923887 -0.382664 0
vn -0.382664 -0.923887 0
vn -0.136766 -0.990604 0
vn -0.382664 -0.923887 0
vn -0.136766 -0.990604 0
vn -0.382664 -0.923887 0
vn 0.136766 -0.990604 0
vn 0.136766 -0.990604 0
vn 0.382664 -0.923887 0
vn -0.136766 -0.990604 0
vn 0.382664 -0.923887 0
vn 0.136766 -0.990604 0
vn 0.382664 -0.923887 0
vn 0.923887 -0.382664 0
vn 0.990604 -0.136766 0
vn 0.990604 0.136766 0
vn 0.990604 -0.136766 0
vn 0.923887 -0.382664 0
vn 0.923887 -0.382664 0
vn 0.999934 -8.0644e-09 -0.0114488
vn 0.923825 -0.382669 -0.0105774
vn 0.999934 0 -0.011452
vn 0.797103 -0.603737 -0.0113398
vn 0.990534 -0.136799 -0.0113422
vn 0.603686 -0.797141 -0.0113391
vn 0.136799 -0.990534 -0.0113416
vn 0.603686 -0.797141 -0.0113391
vn 0.000102515 -0.999934 -0.011452
vn 0.603686 -0.797141 -0.0113391
vn 0.136799 -0.990534 -0.0113416
vn 0.706988 -0.707133 -0.0114445
vn -0.70706 -0.70706 -0.0114487
vn -0.382669 -0.923825 -0.0105774
vn -0.70706 -0.70706 -0.0114445
vn -0.136736 -0.990543 -0.0113423
vn -0.603686 -0.797141 -0.0113397
vn 0.136799 -0.990534 -0.0113416
vn -0.797141 -0.603686 -0.0113397
vn -0.990543 -0.136736 -0.0113423
vn -0.990534 0.136799 -0.0113416
vn -0.923825 -0.382669 -0.0105774
vn -0.70706 -0.70706 -0.0114487
vn -0.70706 -0.70706 -0.0114445
vn -0.990534 0.136799 -0.0113416
vn -0.797141 0.603686 -0.0113412
vn -0.923864 0.382574 -0.010573
vn -0.70706 0.70706 -0.0114478
vn -0.990534 0.136799 -0.0113416
vn -0.999934 0.000102498 -0.011452
vn -0.136799 0.990534 -0.0113416
vn -0.70706 0.70706 -0.0114478
vn -0.000102515 0.999934 -0.011452
vn -0.603686 0.797141 -0.0113412
vn -0.136799 0.990534 -0.0113416
vn -0.382574 0.923864 -0.010573
vn 0.70706 0.70706 -0.0114487
vn 0.382669 0.923825 -0.0105774
vn 0.70706 0.70706 -0.0114445
vn 0.136736 0.990543 -0.0113423
vn 0.603686 0.797141 -0.0113397
vn -0.136799 0.990534 -0.0113416
vn 0.990534 0.136799 -0.0113422
vn 0.70706 0.70706 -0.0114487
vn 0.70706 0.70706 -0.0114445
vn 0.797141 0.603686 -0.0113397
vn 0.999934 -8.0644e-09 -0.0114488
vn 0.999934 0 -0.011452
vn 0 0 1
vn 0 0 1
vn 0 0 1
vn 0 0 1
vn 0 0 1
vn 0 0 1
vn 0 0 1
vn 0 0 1
vn 0 0 1
vn 0 0 1
vn 0 0 1
vn 0 0 1
vn 0 0 1
vn 0 0 1
vn 0 0 1
vn 0 0 1
vn 0 0 1
vn 0 0 1
vn 0 0 1
vn 0 0 1
vn 0 0 1
vn 0 0 1
vn 0 0 1
vn 0 0 1
vn 0 0 1
vn 0 0 1
vn 0 0 1
vn 0 0 1
vn 0 0 1
vn 0 0 1
vn 0 0 1
vn 0 0 1
vn 0 0 1
vn 0 0 1
vn 0 0 1
vn 0 0 1
vn 0 0 1
vn 0 0 1
vn 0 0 1
vn 0 0 1
vn 0 0 1
vn 0 0 1
vn 0 0 1
vn 0 0 1
vn 0 0 1
vn 0 0 1
vn 0 0 1
vn 0 0 1
vn 0 0 -1
vn 0 0 -1
vn 0 0 -1
vn 0 0 -1
vn 0 0 -1
vn 0 0 -1
vn 0 0 -1
vn 0 0 -1
vn 0 0 -1
vn 0 0 -1
vn 0 0 -1
vn 0 0 -1
vn 0 0 -1
vn 0 0 -1
vn 0 0 -1
vn 0 0 -1
vn 0 0 -1
vn 0 0 -1
vt 0.609859 0.4635
vt 0.572249 0.475774
vt 0.609859 0.475774
vt 0.572249 0.475774
vt 0.609859 0.4635
vt 0.572249 0.4635
vt 0.572249 0.475774
vt 0.609859 0.480858
vt 0.609859 0.475774
vt 0.609859 0.480858
vt 0.572249 0.475774
vt 0.572249 0.480858
vt 0.572249 0.480858
vt 0.609859 0.475774
vt 0.609859 0.480858
vt 0.609859 0.475774
vt 0.572249 0.480858
vt 0.572249 0.475774
vt 0.572249 0.4635
vt 0.609859 0.475774
vt 0.572249 0.475774
vt 0.609859 0.475774
vt 0.572249 0.4635
vt 0.609859 0.4635
vt 0.572249 0.451226
vt 0.609859 0.4635
vt 0.572249 0.4635
vt 0.609859 0.4635
vt 0.572249 0.451226
vt 0.609859 0.451226
vt 0.572249 0.451226
vt 0.609859 0.446142
vt 0.609859 0.451226
vt 0.609859 0.446142
vt 0.572249 0.451226
vt 0.572249 0.446142
vt 0.572249 0.446142
vt 0.609859 0.451226
vt 0.609859 0.446142
vt 0.609859 0.451226
vt 0.572249 0.446142
vt 0.572249 0.451226
vt 0.609859 0.451226
vt 0.572249 0.4635
vt 0.609859 0.4635
vt 0.572249 0.4635
vt 0.609859 0.451226
vt 0.572249 0.451226
vt 0.988852 0.4635
vt 0.609859 0.453271
vt 0.609859 0.4635
vt 0.609859 0.453271
vt 0.988852 0.4635
vt 0.988852 0.450204
vt 0.609859 0.449035
vt 0.988852 0.450204
vt 0.988852 0.444694
vt 0.988852 0.450204
vt 0.609859 0.449035
vt 0.609859 0.453271
vt 0.609859 0.453271
vt 0.988852 0.444694
vt 0.988852 0.450204
vt 0.988852 0.444694
vt 0.609859 0.453271
vt 0.609859 0.449035
vt 0.609859 0.453271
vt 0.988852 0.4635
vt 0.609859 0.4635
vt 0.988852 0.4635
vt 0.609859 0.453271
vt 0.988852 0.450204
vt 0.609859 0.4635
vt 0.988852 0.476797
vt 0.609859 0.473729
vt 0.988852 0.476797
vt 0.609859 0.4635
vt 0.988852 0.4635
vt 0.609859 0.477965
vt 0.988852 0.476797
vt 0.988852 0.482306
vt 0.988852 0.476797
vt 0.609859 0.477965
vt 0.609859 0.473729
vt 0.609859 0.473729
vt 0.988852 0.482306
vt 0.988852 0.476797
vt 0.988852 0.482306
vt 0.609859 0.473729
vt 0.609859 0.477965
vt 0.988852 0.4635
vt 0.609859 0.473729
vt 0.988852 0.476797
vt 0.609859 0.473729
vt 0.988852 0.4635
vt 0.609859 0.4635
vt 0.605469 0.481019
vt 0.602756 0.473861
vt 0.605469 0.478115
vt 0.602756 0.473861
vt 0.605469 0.481019
vt 0.602214 0.475914
vt 0.602214 0.475914
vt 0.601633 0.463591
vt 0.602756 0.473861
vt 0.601633 0.463591
vt 0.602214 0.475914
vt 0.600866 0.463591
vt 0.601633 0.463591
vt 0.602214 0.451268
vt 0.602756 0.453321
vt 0.602214 0.451268
vt 0.601633 0.463591
vt 0.600866 0.463591
vt 0.602756 0.453321
vt 0.605469 0.446164
vt 0.605469 0.449068
vt 0.605469 0.446164
vt 0.602756 0.453321
vt 0.602214 0.451268
vt 0.605469 0.449068
vt 0.608724 0.451268
vt 0.608181 0.453321
vt 0.608724 0.451268
vt 0.605469 0.449068
vt 0.605469 0.446164
vt 0.609305 0.463591
vt 0.608724 0.451268
vt 0.610071 0.463591
vt 0.608724 0.451268
vt 0.609305 0.463591
vt 0.608181 0.453321
vt 0.608724 0.475914
vt 0.609305 0.463591
vt 0.610071 0.463591
vt 0.609305 0.463591
vt 0.608724 0.475914
vt 0.608181 0.473861
vt 0.605469 0.481019
vt 0.608181 0.473861
vt 0.608724 0.475914
vt 0.608181 0.473861
vt 0.605469 0.481019
vt 0.605469 0.478115
vt 0.541546 0.471812
vt 0.521071 0.471812
vt 0.531309 0.476052
vt 0.521071 0.471812
vt 0.541546 0.471812
vt 0.516831 0.461574
vt 0.521071 0.451336
vt 0.541546 0.471812
vt 0.545786 0.461574
vt 0.541546 0.471812
vt 0.521071 0.451336
vt 0.516831 0.461574
vt 0.531309 0.447096
vt 0.545786 0.461574
vt 0.541546 0.451336
vt 0.545786 0.461574
vt 0.531309 0.447096
vt 0.521071 0.451336
usemtl acmat_0
f 29/1/1 31/2/2 30/3/3
f 31/4/4 29/5/5 32/6/6
f 31/7/7 27/8/8 30/9/9
f 27/10/10 31/11/11 28/12/12
f 28/13/13 25/14/14 27/15/15
f 25/16/16 28/17/17 26/18/18
f 24/19/19 25/20/20 26/21/21
f 25/22/22 24/23/23 23/24/24
f 22/25/25 23/26/26 24/27/27
f 23/28/28 22/29/29 21/30/30
f 22/31/31 19/32/32 21/33/33
f 19/34/34 22/35/35 20/36/36
f 20/37/37 17/38/38 19/39/39
f 17/40/40 20/41/41 18/42/42
f 17/43/43 32/44/44 29/45/45
f 32/46/46 17/47/47 18/48/48
f 16/49/49 14/50/50 13/51/51
f 14/52/52 16/53/53 15/54/54
f 11/55/55 15/56/56 12/57/57
f 15/58/58 11/59/59 14/60/60
f 9/61/61 12/62/62 10/63/63
f 12/64/64 9/65/65 11/66/66
f 9/67/67 8/68/68 7/69/69
f 8/70/70 9/71/71 10/72/72
f 7/73/73 6/74/74 5/75/75
f 6/76/76 7/77/77 8/78/78
f 3/79/79 6/80/80 4/81/81
f 6/82/82 3/83/83 5/84/84
f 1/85/85 4/86/86 2/87/87
f 4/88/88 1/89/89 3/90/90
f 16/91/91 1/92/92 2/93/93
f 1/94/94 16/95/95 13/96/96
f 27/97/97 5/98/98 3/99/99
f 5/100/100 27/101/101 25/102/102
f 25/103/103 7/104/104 5/105/105
f 7/106/106 25/107/107 23/108/108
f 7/109/109 21/110/110 9/111/111
f 21/112/112 7/113/113 23/114/114
f 9/115/115 19/116/116 11/117/117
f 19/118/118 9/119/119 21/120/120
f 11/121/121 17/122/122 14/123/123
f 17/124/124 11/125/125 19/126/126
f 13/127/127 17/128/128 29/129/129
f 17/130/130 13/131/131 14/132/132
f 30/133/133 13/134/134 29/135/135
f 13/136/136 30/137/137 1/138/138
f 27/139/139 1/140/140 30/141/141
f 1/142/142 27/143/143 3/144/144
f 31/145/145 26/146/146 28/147/147
f 26/148/148 31/149/149 24/150/150
f 22/151/151 31/152/152 32/153/153
f 31/154/154 22/155/155 24/156/156
f 20/157/157 32/158/158 18/159/159
f 32/160/160 20/161/161 22/162/162
