mtllib coax_mg.mtl
g g0
o coax_mg
v 0 -0.168915 0
v 0 -0.168915 -1.26683
v -0.168915 0 0
v -0.168915 0 -1.26683
v 0.168915 0 0
v 0 0.168915 0
v 0 0.168915 -1.26683
v 0.168915 0 -1.26683
v 0 -0.084427 -1.26683
v 0 -0.084427 -1.60466
v -0.084427 0 -1.26683
v -0.084427 0 -1.60466
v 0.084427 0 -1.26683
v 0 0.084427 -1.26683
v 0 0.084427 -1.60466
v 0.084427 0 -1.60466
vn 0.707107 0.707107 0
vn 0.707107 0.707107 0
vn 0.707107 0.707107 0
vn 0.707107 0.707107 0
vn 0.707107 0.707107 0
vn 0.707107 0.707107 0
vn -0.707107 0.707107 0
vn -0.707107 0.707107 0
vn -0.707107 0.707107 0
vn -0.707107 0.707107 0
vn -0.707107 0.707107 0
vn -0.707107 0.707107 0
vn -0.707107 -0.707107 0
vn -0.707107 -0.707107 0
vn -0.707107 -0.707107 0
vn -0.707107 -0.707107 0
vn -0.707107 -0.707107 0
vn -0.707107 -0.707107 0
vn 0.707107 -0.707107 0
vn 0.707107 -0.707107 0
vn 0.707107 -0.707107 0
vn 0.707107 -0.707107 0
vn 0.707107 -0.707107 0
vn 0.707107 -0.707107 0
vn 0.707107 0.707107 0
vn 0.707107 0.707107 0
vn 0.707107 0.707107 0
vn 0.707107 0.707107 0
vn 0.707107 0.707107 0
vn 0.707107 0.707107 0
vn -0.707107 0.707107 0
vn -0.707107 0.707107 0
vn -0.707107 0.707107 0
vn -0.707107 0.707107 0
vn -0.707107 0.707107 0
vn -0.707107 0.707107 0
vn -0.707107 -0.707107 0
vn -0.707107 -0.707107 0
vn -0.707107 -0.707107 0
vn -0.707107 -0.707107 0
vn -0.707107 -0.707107 0
vn -0.707107 -0.707107 0
vn 0.707107 -0.707107 0
vn 0.707107 -0.707107 0
vn 0.707107 -0.707107 0
vn 0.707107 -0.707107 0
vn 0.707107 -0.707107 0
vn 0.707107 -0.707107 0
vn 0 0 -1
vn 0 0 -1
vn 0 0 -1
vn 0 0 -1
vn 0 0 -1
vn 0 0 -1
vn 0 0 -1
vn 0 0 -1
vn 0 0 -1
vn 0 0 -1
vn 0 0 -1
vn 0 0 -1
vn 0 0 -1
vn 0 0 -1
vn 0 0 -1
vn 0 0 -1
vn 0 0 -1
vn 0 0 -1
vn 0 0 -1
vn 0 0 -1
vn 0 0 -1
vn 0 0 -1
vn 0 0 -1
vn 0 0 -1
vn 0 0 -1
vn 0 0 -1
vn 0 0 -1
vn 0 0 -1
vn 0 0 -1
vn 0 0 -1
vt 0.44045 0.637852
vt 0.445955 0.659872
vt 0.445955 0.637852
vt 0.445955 0.659872
vt 0.44045 0.637852
vt 0.44045 0.659872
vt 0.44045 0.659872
vt 0.445955 0.637852
vt 0.445955 0.659872
vt 0.445955 0.637852
vt 0.44045 0.659872
vt 0.44045 0.637852
vt 0.434944 0.659872
vt 0.44045 0.637852
vt 0.44045 0.659872
vt 0.44045 0.637852
vt 0.434944 0.659872
vt 0.434944 0.637852
vt 0.434944 0.637852
vt 0.44045 0.659872
vt 0.44045 0.637852
vt 0.44045 0.659872
vt 0.434944 0.637852
vt 0.434944 0.659872
vt 0.440417 0.533241
vt 0.451483 0.637868
vt 0.451483 0.533241
vt 0.451483 0.637868
vt 0.440417 0.533241
vt 0.440417 0.637868
vt 0.440417 0.637868
vt 0.451483 0.533241
vt 0.451483 0.637868
vt 0.451483 0.533241
vt 0.440417 0.637868
vt 0.440417 0.533241
vt 0.429351 0.637868
vt 0.440417 0.533241
vt 0.440417 0.637868
vt 0.440417 0.533241
vt 0.429351 0.637868
vt 0.429351 0.533241
vt 0.429351 0.533241
vt 0.440417 0.637868
vt 0.440417 0.533241
vt 0.440417 0.637868
vt 0.429351 0.533241
vt 0.429351 0.637868
vt 0.531729 0.445938
vt 0.531729 0.477166
vt 0.547341 0.461552
vt 0.531729 0.477166
vt 0.531729 0.445938
vt 0.516114 0.461552
vt 0.44044 0.641657
vt 0.45153 0.640406
vt 0.445983 0.640406
vt 0.45153 0.640406
vt 0.44044 0.641657
vt 0.44044 0.642913
vt 0.42935 0.640406
vt 0.44044 0.641657
vt 0.434897 0.640406
vt 0.44044 0.641657
vt 0.42935 0.640406
vt 0.44044 0.642913
vt 0.42935 0.640406
vt 0.44044 0.639153
vt 0.44044 0.6379
vt 0.44044 0.639153
vt 0.42935 0.640406
vt 0.434897 0.640406
vt 0.445983 0.640406
vt 0.44044 0.6379
vt 0.44044 0.639153
vt 0.44044 0.6379
vt 0.445983 0.640406
vt 0.45153 0.640406
usemtl acmat_0
f 13/1/1 15/2/2 14/3/3
f 15/4/4 13/5/5 16/6/6
f 12/7/7 14/8/8 15/9/9
f 14/10/10 12/11/11 11/12/12
f 10/13/13 11/14/14 12/15/15
f 11/16/16 10/17/17 9/18/18
f 9/19/19 16/20/20 13/21/21
f 16/22/22 9/23/23 10/24/24
f 5/25/25 7/26/26 6/27/27
f 7/28/28 5/29/29 8/30/30
f 4/31/31 6/32/32 7/33/33
f 6/34/34 4/35/35 3/36/36
f 2/37/37 3/38/38 4/39/39
f 3/40/40 2/41/41 1/42/42
f 1/43/43 8/44/44 5/45/45
f 8/46/46 1/47/47 2/48/48
f 10/49/49 15/50/50 16/51/51
f 15/52/52 10/53/53 12/54/54
f 11/55/55 7/56/56 14/57/57
f 7/58/58 11/59/59 4/60/60
f 2/61/61 11/62/62 9/63/63
f 11/64/64 2/65/65 4/66/66
f 2/67/67 13/68/68 8/69/69
f 13/70/70 2/71/71 9/72/72
f 14/73/73 8/74/74 13/75/75
f 8/76/76 14/77/77 7/78/78
