  0
SECTION
  2
HEADER
  9
$ACADVER
  1
AC1009
  9
$INSBASE
 10
0.0
 20
0.0
 30
0.0
  9
$EXTMIN
 10
-1.2
 20
-3.331
 30
-2.669999999999999
  9
$EXTMAX
 10
3.0
 20
5.0
 30
4.7400000000000011
  9
$LIMMIN
 10
0.0
 20
0.0
  9
$LIMMAX
 10
420.0
 20
297.0
  9
$ORTHOMODE
 70
     1
  9
$REGENMODE
 70
     1
  9
$FILLMODE
 70
     1
  9
$QTEXTMODE
 70
     0
  9
$MIRRTEXT
 70
     1
  9
$DRAGMODE
 70
     2
  9
$LTSCALE
 40
1.0
  9
$OSMODE
 70
    39
  9
$ATTMODE
 70
     1
  9
$TEXTSIZE
 40
2.5
  9
$TRACEWID
 40
1.0
  9
$TEXTSTYLE
  7
STANDARD
  9
$CLAYER
  8
WHEELS
  9
$CELTYPE
  6
BYLAYER
  9
$CECOLOR
 62
   256
  9
$DIMSCALE
 40
1.0
  9
$DIMASZ
 40
2.5
  9
$DIMEXO
 40
0.625
  9
$DIMDLI
 40
3.75
  9
$DIMRND
 40
0.0
  9
$DIMDLE
 40
0.0
  9
$DIMEXE
 40
1.25
  9
$DIMTP
 40
0.0
  9
$DIMTM
 40
0.0
  9
$DIMTXT
 40
2.5
  9
$DIMCEN
 40
2.5
  9
$DIMTSZ
 40
0.0
  9
$DIMTOL
 70
     0
  9
$DIMLIM
 70
     0
  9
$DIMTIH
 70
     0
  9
$DIMTOH
 70
     0
  9
$DIMSE1
 70
     0
  9
$DIMSE2
 70
     0
  9
$DIMTAD
 70
     1
  9
$DIMZIN
 70
     8
  9
$DIMBLK
  1

  9
$DIMASO
 70
     1
  9
$DIMSHO
 70
     1
  9
$DIMPOST
  1

  9
$DIMAPOST
  1

  9
$DIMALT
 70
     0
  9
$DIMALTD
 70
     3
  9
$DIMALTF
 40
0.03937007874016
  9
$DIMLFAC
 40
1.0
  9
$DIMTOFL
 70
     1
  9
$DIMTVP
 40
0.0
  9
$DIMTIX
 70
     0
  9
$DIMSOXD
 70
     0
  9
$DIMSAH
 70
     0
  9
$DIMBLK1
  1

  9
$DIMBLK2
  1

  9
$DIMSTYLE
  2
ISO-25
  9
$DIMCLRD
 70
     0
  9
$DIMCLRE
 70
     0
  9
$DIMCLRT
 70
     0
  9
$DIMTFAC
 40
1.0
  9
$DIMGAP
 40
0.625
  9
$LUNITS
 70
     2
  9
$LUPREC
 70
     4
  9
$SKETCHINC
 40
1.0
  9
$FILLETRAD
 40
10.0
  9
$AUNITS
 70
     0
  9
$AUPREC
 70
     0
  9
$MENU
  1
.
  9
$ELEVATION
 40
0.0
  9
$PELEVATION
 40
0.0
  9
$THICKNESS
 40
0.0
  9
$LIMCHECK
 70
     0
  9
$BLIPMODE
 70
     0
  9
$CHAMFERA
 40
10.0
  9
$CHAMFERB
 40
10.0
  9
$SKPOLY
 70
     0
  9
$TDCREATE
 40
2455753.751575856
  9
$TDUPDATE
 40
2455753.934560521
  9
$TDINDWG
 40
0.1829846644
  9
$TDUSRTIMER
 40
0.1829846644
  9
$USRTIMER
 70
     1
  9
$ANGBASE
 50
0.0
  9
$ANGDIR
 70
     0
  9
$PDMODE
 70
     0
  9
$PDSIZE
 40
0.0
  9
$PLINEWID
 40
0.0
  9
$COORDS
 70
     1
  9
$SPLFRAME
 70
     0
  9
$SPLINETYPE
 70
     6
  9
$SPLINESEGS
 70
     8
  9
$ATTDIA
 70
     1
  9
$ATTREQ
 70
     1
  9
$HANDLING
 70
-16383
  9
$HANDSEED
  5
EF8
  9
$SURFTAB1
 70
     6
  9
$SURFTAB2
 70
     6
  9
$SURFTYPE
 70
     6
  9
$SURFU
 70
     6
  9
$SURFV
 70
     6
  9
$UCSNAME
  2

  9
$UCSORG
 10
0.0
 20
0.0
 30
0.0
  9
$UCSXDIR
 10
0.0
 20
-1.0
 30
0.0
  9
$UCSYDIR
 10
0.0
 20
0.0
 30
1.0
  9
$PUCSNAME
  2

  9
$PUCSORG
 10
0.0
 20
0.0
 30
0.0
  9
$PUCSXDIR
 10
1.0
 20
0.0
 30
0.0
  9
$PUCSYDIR
 10
0.0
 20
1.0
 30
0.0
  9
$USERI1
 70
     0
  9
$USERI2
 70
     0
  9
$USERI3
 70
     0
  9
$USERI4
 70
     0
  9
$USERI5
 70
     0
  9
$USERR1
 40
0.0
  9
$USERR2
 40
0.0
  9
$USERR3
 40
0.0
  9
$USERR4
 40
0.0
  9
$USERR5
 40
0.0
  9
$WORLDVIEW
 70
     1
  9
$SHADEDGE
 70
     3
  9
$SHADEDIF
 70
    70
  9
$TILEMODE
 70
     1
  9
$MAXACTVP
 70
    64
  9
$PLIMCHECK
 70
     0
  9
$PEXTMIN
 10
27.844751262664801
 20
20.161249995231621
 30
0.0
  9
$PEXTMAX
 10
250.60276136398309
 20
181.4512499570846
 30
0.0
  9
$PLIMMIN
 10
-3.757080078125
 20
-3.7570831775665279
  9
$PLIMMAX
 10
293.21124267578119
 20
206.21624445915219
  9
$UNITMODE
 70
     0
  9
$VISRETAIN
 70
     1
  9
$PLINEGEN
 70
     0
  9
$PSLTSCALE
 70
     1
  0
ENDSEC
  0
SECTION
  2
TABLES
  0
TABLE
  2
VPORT
 70
    59
  0
VPORT
  2
*ACTIVE
 70
     0
 10
0.0
 20
0.0
 11
1.0
 21
1.0
 12
0.5405307191344475
 22
-0.1464364864055119
 13
0.0
 23
0.0
 14
0.01
 24
0.01
 15
1.0
 25
1.0
 16
-1.0
 26
0.0
 36
0.0
 17
0.0
 27
0.0
 37
0.0
 40
6.5600504896126539
 41
2.1731448763250878
 42
50.0
 43
0.0
 44
0.0
 50
0.0
 51
0.0
 71
     0
 72
   100
 73
     1
 74
     3
 75
     1
 76
     1
 77
     0
 78
     0
  0
ENDTAB
  0
TABLE
  2
LTYPE
 70
     1
  0
LTYPE
  2
CONTINUOUS
 70
     0
  3
Solid line
 72
    65
 73
     0
 40
0.0
  0
ENDTAB
  0
TABLE
  2
LAYER
 70
     6
  0
LAYER
  2
0
 70
     0
 62
     7
  6
CONTINUOUS
  0
LAYER
  2
DRAWING
 70
     0
 62
     9
  6
CONTINUOUS
  0
LAYER
  2
MUDGUARDS
 70
     0
 62
     6
  6
CONTINUOUS
  0
LAYER
  2
WHEELS
 70
     0
 62
     2
  6
CONTINUOUS
  0
LAYER
  2
CRANE
 70
     0
 62
     1
  6
CONTINUOUS
  0
LAYER
  2
SPARE
 70
     0
 62
     5
  6
CONTINUOUS
  0
ENDTAB
  0
TABLE
  2
STYLE
 70
     1
  0
STYLE
  2
STANDARD
 70
     0
 40
0.0
 41
1.0
 50
0.0
 71
     0
 42
2.5
  3
txt
  4

  0
ENDTAB
  0
TABLE
  2
VIEW
 70
     0
  0
ENDTAB
  0
TABLE
  2
UCS
 70
     0
  0
ENDTAB
  0
TABLE
  2
APPID
 70
     1
  0
APPID
  2
ACAD
 70
     0
  0
ENDTAB
  0
TABLE
  2
DIMSTYLE
 70
     1
  0
DIMSTYLE
  2
ISO-25
 70
     0
  3

  4

  5

  6

  7

 40
1.0
 41
2.5
 42
0.625
 43
3.75
 44
1.25
 45
0.0
 46
0.0
 47
0.0
 48
0.0
140
2.5
141
2.5
142
0.0
143
0.03937007874016
144
1.0
145
0.0
146
1.0
147
0.625
 71
     0
 72
     0
 73
     0
 74
     0
 75
     0
 76
     0
 77
     1
 78
     8
170
     0
171
     3
172
     1
173
     0
174
     0
175
     0
176
     0
177
     0
178
     0
  0
ENDTAB
  0
ENDSEC
  0
SECTION
  2
BLOCKS
  0
BLOCK
  8
0
  2
$MODEL_SPACE
 70
     0
 10
0.0
 20
0.0
 30
0.0
  3
$MODEL_SPACE
  1

  0
ENDBLK
  5
21
  8
0
  0
BLOCK
 67
     1
  8
0
  2
$PAPER_SPACE
 70
     0
 10
0.0
 20
0.0
 30
0.0
  3
$PAPER_SPACE
  1

  0
ENDBLK
  5
1D
 67
     1
  8
0
  0
ENDSEC
  0
SECTION
  2
ENTITIES
  0
3DFACE
  5
618
  8
WHEELS
 10
1.1000000000000001
 20
-0.6800000000000002
 30
0.0
 11
1.1000000000000001
 21
-0.5888972745734185
 31
-0.3399999999999999
 12
1.1499999999999999
 22
-0.5455960043841963
 32
-0.3149999999999999
 13
1.1499999999999999
 23
-0.6299999999999999
 33
0.0
  0
3DFACE
  5
619
  8
WHEELS
 10
1.1000000000000001
 20
-0.5888972745734185
 30
-0.3399999999999999
 11
1.1000000000000001
 21
-0.3400000000000001
 31
-0.5888972745734181
 12
1.1499999999999999
 22
-0.3149999999999999
 32
-0.5455960043841964
 13
1.1499999999999999
 23
-0.5455960043841963
 33
-0.3149999999999999
  0
3DFACE
  5
61A
  8
WHEELS
 10
1.1000000000000001
 20
-0.3400000000000001
 30
-0.5888972745734181
 11
1.1000000000000001
 21
0.0
 31
-0.6800000000000001
 12
1.1499999999999999
 22
0.0
 32
-0.63
 13
1.1499999999999999
 23
-0.3149999999999999
 33
-0.5455960043841964
  0
3DFACE
  5
61B
  8
WHEELS
 10
1.1000000000000001
 20
0.0
 30
-0.6800000000000001
 11
1.1000000000000001
 21
0.3399999999999999
 31
-0.5888972745734186
 12
1.1499999999999999
 22
0.3149999999999999
 32
-0.5455960043841964
 13
1.1499999999999999
 23
0.0
 33
-0.63
  0
3DFACE
  5
61C
  8
WHEELS
 10
1.1000000000000001
 20
0.3399999999999999
 30
-0.5888972745734186
 11
1.1000000000000001
 21
0.588897274573418
 31
-0.3400000000000002
 12
1.1499999999999999
 22
0.5455960043841963
 32
-0.3150000000000003
 13
1.1499999999999999
 23
0.3149999999999999
 33
-0.5455960043841964
  0
3DFACE
  5
61D
  8
WHEELS
 10
1.1000000000000001
 20
0.588897274573418
 30
-0.3400000000000002
 11
1.1000000000000001
 21
0.6800000000000001
 31
-0.0000000000000003
 12
1.1499999999999999
 22
0.6300000000000003
 32
-0.0000000000000003
 13
1.1499999999999999
 23
0.5455960043841963
 33
-0.3150000000000003
  0
3DFACE
  5
61E
  8
WHEELS
 10
1.1000000000000001
 20
0.6800000000000001
 30
-0.0000000000000003
 11
1.1000000000000001
 21
0.5888972745734185
 31
0.3399999999999995
 12
1.1499999999999999
 22
0.5455960043841963
 32
0.3149999999999996
 13
1.1499999999999999
 23
0.6300000000000003
 33
-0.0000000000000003
  0
3DFACE
  5
61F
  8
WHEELS
 10
1.1000000000000001
 20
0.5888972745734185
 30
0.3399999999999995
 11
1.1000000000000001
 21
0.3400000000000003
 31
0.5888972745734181
 12
1.1499999999999999
 22
0.3150000000000004
 32
0.5455960043841963
 13
1.1499999999999999
 23
0.5455960043841963
 33
0.3149999999999996
  0
3DFACE
  5
620
  8
WHEELS
 10
1.1000000000000001
 20
0.3400000000000003
 30
0.5888972745734181
 11
1.1000000000000001
 21
0.0
 31
0.6800000000000001
 12
1.1499999999999999
 22
0.0
 32
0.63
 13
1.1499999999999999
 23
0.3150000000000004
 33
0.5455960043841963
  0
3DFACE
  5
621
  8
WHEELS
 10
1.1000000000000001
 20
0.0
 30
0.6800000000000001
 11
1.1000000000000001
 21
-0.3400000000000001
 31
0.5888972745734185
 12
1.1499999999999999
 22
-0.3149999999999999
 32
0.5455960043841964
 13
1.1499999999999999
 23
0.0
 33
0.63
  0
3DFACE
  5
622
  8
WHEELS
 10
1.1000000000000001
 20
-0.3400000000000001
 30
0.5888972745734185
 11
1.1000000000000001
 21
-0.5888972745734185
 31
0.3399999999999998
 12
1.1499999999999999
 22
-0.5455960043841963
 32
0.3149999999999999
 13
1.1499999999999999
 23
-0.3149999999999999
 33
0.5455960043841964
  0
3DFACE
  5
623
  8
WHEELS
 10
1.1000000000000001
 20
-0.5888972745734185
 30
0.3399999999999998
 11
1.1000000000000001
 21
-0.6800000000000002
 31
0.0
 12
1.1499999999999999
 22
-0.6299999999999999
 32
0.0
 13
1.1499999999999999
 23
-0.5455960043841963
 33
0.3149999999999999
  0
3DFACE
  5
624
  8
WHEELS
 10
1.1000000000000001
 20
-0.6800000000000001
 30
0.0
 11
1.1000000000000001
 21
-0.5888972745734185
 31
0.3399999999999999
 12
0.9500000000000003
 22
-0.5888972745734185
 32
0.3399999999999999
 13
0.9500000000000003
 23
-0.6800000000000001
 33
0.0
  0
3DFACE
  5
625
  8
WHEELS
 10
1.1000000000000001
 20
-0.5888972745734185
 30
0.3399999999999999
 11
1.1000000000000001
 21
-0.3400000000000001
 31
0.5888972745734181
 12
0.9500000000000003
 22
-0.3400000000000001
 32
0.5888972745734181
 13
0.9500000000000003
 23
-0.5888972745734185
 33
0.3399999999999999
  0
3DFACE
  5
626
  8
WHEELS
 10
1.1000000000000001
 20
-0.3400000000000001
 30
0.5888972745734181
 11
1.1000000000000001
 21
0.0
 31
0.6800000000000001
 12
0.9500000000000003
 22
0.0
 32
0.6800000000000001
 13
0.9500000000000003
 23
-0.3400000000000001
 33
0.5888972745734181
  0
3DFACE
  5
627
  8
WHEELS
 10
1.1000000000000001
 20
0.0
 30
0.6800000000000001
 11
1.1000000000000001
 21
0.3399999999999999
 31
0.5888972745734186
 12
0.9500000000000003
 22
0.3399999999999999
 32
0.5888972745734186
 13
0.9500000000000003
 23
0.0
 33
0.6800000000000001
  0
3DFACE
  5
628
  8
WHEELS
 10
1.1000000000000001
 20
0.3399999999999999
 30
0.5888972745734186
 11
1.1000000000000001
 21
0.5888972745734183
 31
0.3400000000000002
 12
0.9500000000000003
 22
0.5888972745734183
 32
0.3400000000000002
 13
0.9500000000000003
 23
0.3399999999999999
 33
0.5888972745734186
  0
3DFACE
  5
629
  8
WHEELS
 10
1.1000000000000001
 20
0.5888972745734183
 30
0.3400000000000002
 11
1.1000000000000001
 21
0.6800000000000001
 31
0.0000000000000003
 12
0.9500000000000003
 22
0.6800000000000001
 32
0.0000000000000003
 13
0.9500000000000003
 23
0.5888972745734183
 33
0.3400000000000002
  0
3DFACE
  5
62A
  8
WHEELS
 10
1.1000000000000001
 20
0.6800000000000001
 30
0.0000000000000003
 11
1.1000000000000001
 21
0.5888972745734187
 31
-0.3399999999999995
 12
0.9500000000000003
 22
0.5888972745734187
 32
-0.3399999999999995
 13
0.9500000000000003
 23
0.6800000000000001
 33
0.0000000000000003
  0
3DFACE
  5
62B
  8
WHEELS
 10
1.1000000000000001
 20
0.5888972745734187
 30
-0.3399999999999995
 11
1.1000000000000001
 21
0.3400000000000003
 31
-0.5888972745734181
 12
0.9500000000000003
 22
0.3400000000000003
 32
-0.5888972745734181
 13
0.9500000000000003
 23
0.5888972745734187
 33
-0.3399999999999995
  0
3DFACE
  5
62C
  8
WHEELS
 10
1.1000000000000001
 20
0.3400000000000003
 30
-0.5888972745734181
 11
1.1000000000000001
 21
0.0000000000000002
 31
-0.6800000000000001
 12
0.9500000000000003
 22
0.0000000000000002
 32
-0.6800000000000001
 13
0.9500000000000003
 23
0.3400000000000003
 33
-0.5888972745734181
  0
3DFACE
  5
62D
  8
WHEELS
 10
1.1000000000000001
 20
0.0000000000000002
 30
-0.6800000000000001
 11
1.1000000000000001
 21
-0.3400000000000001
 31
-0.5888972745734185
 12
0.9500000000000003
 22
-0.3400000000000001
 32
-0.5888972745734185
 13
0.9500000000000003
 23
0.0000000000000002
 33
-0.6800000000000001
  0
3DFACE
  5
62E
  8
WHEELS
 10
1.1000000000000001
 20
-0.3400000000000001
 30
-0.5888972745734185
 11
1.1000000000000001
 21
-0.5888972745734185
 31
-0.3399999999999998
 12
0.9500000000000003
 22
-0.5888972745734185
 32
-0.3399999999999998
 13
0.9500000000000003
 23
-0.3400000000000001
 33
-0.5888972745734185
  0
3DFACE
  5
62F
  8
WHEELS
 10
1.1000000000000001
 20
-0.5888972745734185
 30
-0.3399999999999998
 11
1.1000000000000001
 21
-0.6800000000000001
 31
0.0
 12
0.9500000000000003
 22
-0.6800000000000001
 32
0.0
 13
0.9500000000000003
 23
-0.5888972745734185
 33
-0.3399999999999998
  0
3DFACE
  5
630
  8
WHEELS
 10
0.9500000000000003
 20
-0.6800000000000002
 30
0.0
 11
0.9500000000000003
 21
-0.5888972745734185
 31
0.3399999999999999
 12
0.9000000000000004
 22
-0.5455960043841963
 32
0.3149999999999999
 13
0.9000000000000004
 23
-0.6299999999999999
 33
0.0
  0
3DFACE
  5
631
  8
WHEELS
 10
0.9500000000000003
 20
-0.5888972745734185
 30
0.3399999999999999
 11
0.9500000000000003
 21
-0.3400000000000001
 31
0.5888972745734181
 12
0.9000000000000004
 22
-0.3149999999999999
 32
0.5455960043841964
 13
0.9000000000000004
 23
-0.5455960043841963
 33
0.3149999999999999
  0
3DFACE
  5
632
  8
WHEELS
 10
0.9500000000000003
 20
-0.3400000000000001
 30
0.5888972745734181
 11
0.9500000000000003
 21
0.0
 31
0.6800000000000001
 12
0.9000000000000004
 22
0.0
 32
0.63
 13
0.9000000000000004
 23
-0.3149999999999999
 33
0.5455960043841964
  0
3DFACE
  5
633
  8
WHEELS
 10
0.9500000000000003
 20
0.0
 30
0.6800000000000001
 11
0.9500000000000003
 21
0.3399999999999999
 31
0.5888972745734186
 12
0.9000000000000004
 22
0.3149999999999999
 32
0.5455960043841964
 13
0.9000000000000004
 23
0.0
 33
0.63
  0
3DFACE
  5
634
  8
WHEELS
 10
0.9500000000000003
 20
0.3399999999999999
 30
0.5888972745734186
 11
0.9500000000000003
 21
0.588897274573418
 31
0.3400000000000002
 12
0.9000000000000004
 22
0.5455960043841963
 32
0.3150000000000003
 13
0.9000000000000004
 23
0.3149999999999999
 33
0.5455960043841964
  0
3DFACE
  5
635
  8
WHEELS
 10
0.9500000000000003
 20
0.588897274573418
 30
0.3400000000000002
 11
0.9500000000000003
 21
0.6800000000000001
 31
0.0000000000000003
 12
0.9000000000000004
 22
0.6300000000000003
 32
0.0000000000000003
 13
0.9000000000000004
 23
0.5455960043841963
 33
0.3150000000000003
  0
3DFACE
  5
636
  8
WHEELS
 10
0.9500000000000003
 20
0.6800000000000001
 30
0.0000000000000003
 11
0.9500000000000003
 21
0.5888972745734185
 31
-0.3399999999999995
 12
0.9000000000000004
 22
0.5455960043841963
 32
-0.3149999999999996
 13
0.9000000000000004
 23
0.6300000000000003
 33
0.0000000000000003
  0
3DFACE
  5
637
  8
WHEELS
 10
0.9500000000000003
 20
0.5888972745734185
 30
-0.3399999999999995
 11
0.9500000000000003
 21
0.3400000000000003
 31
-0.5888972745734181
 12
0.9000000000000004
 22
0.3150000000000004
 32
-0.5455960043841963
 13
0.9000000000000004
 23
0.5455960043841963
 33
-0.3149999999999996
  0
3DFACE
  5
638
  8
WHEELS
 10
0.9500000000000003
 20
0.3400000000000003
 30
-0.5888972745734181
 11
0.9500000000000003
 21
0.0
 31
-0.6800000000000001
 12
0.9000000000000004
 22
0.0
 32
-0.63
 13
0.9000000000000004
 23
0.3150000000000004
 33
-0.5455960043841963
  0
3DFACE
  5
639
  8
WHEELS
 10
0.9500000000000003
 20
0.0
 30
-0.6800000000000001
 11
0.9500000000000003
 21
-0.3400000000000001
 31
-0.5888972745734185
 12
0.9000000000000004
 22
-0.3149999999999999
 32
-0.5455960043841964
 13
0.9000000000000004
 23
0.0
 33
-0.63
  0
3DFACE
  5
63A
  8
WHEELS
 10
0.9500000000000003
 20
-0.3400000000000001
 30
-0.5888972745734185
 11
0.9500000000000003
 21
-0.5888972745734185
 31
-0.3399999999999998
 12
0.9000000000000004
 22
-0.5455960043841963
 32
-0.3149999999999999
 13
0.9000000000000004
 23
-0.3149999999999999
 33
-0.5455960043841964
  0
3DFACE
  5
63B
  8
WHEELS
 10
0.9500000000000003
 20
-0.5888972745734185
 30
-0.3399999999999998
 11
0.9500000000000003
 21
-0.6800000000000002
 31
0.0
 12
0.9000000000000004
 22
-0.6299999999999999
 32
0.0
 13
0.9000000000000004
 23
-0.5455960043841963
 33
-0.3149999999999999
  0
3DFACE
  5
63C
  8
WHEELS
 10
1.1499999999999999
 20
0.45
 30
0.0
 11
1.1499999999999999
 21
0.3897114317029975
 31
0.225
 12
1.1000000000000001
 22
0.3290896534380867
 32
0.19
 13
1.1000000000000001
 23
0.3800000000000001
 33
0.0
  0
3DFACE
  5
63D
  8
WHEELS
 10
1.1499999999999999
 20
0.3897114317029975
 30
0.225
 11
1.1499999999999999
 21
0.2250000000000001
 31
0.3897114317029974
 12
1.1000000000000001
 22
0.19
 32
0.3290896534380866
 13
1.1000000000000001
 23
0.3290896534380867
 33
0.19
  0
3DFACE
  5
63E
  8
WHEELS
 10
1.1499999999999999
 20
0.2250000000000001
 30
0.3897114317029974
 11
1.1499999999999999
 21
0.0
 31
0.4500000000000001
 12
1.1000000000000001
 22
0.0
 32
0.38
 13
1.1000000000000001
 23
0.19
 33
0.3290896534380866
  0
3DFACE
  5
63F
  8
WHEELS
 10
1.1499999999999999
 20
0.0
 30
0.4500000000000001
 11
1.1499999999999999
 21
-0.2249999999999999
 31
0.3897114317029974
 12
1.1000000000000001
 22
-0.19
 32
0.3290896534380867
 13
1.1000000000000001
 23
0.0
 33
0.38
  0
3DFACE
  5
640
  8
WHEELS
 10
1.1499999999999999
 20
-0.2249999999999999
 30
0.3897114317029974
 11
1.1499999999999999
 21
-0.3897114317029973
 31
0.2250000000000002
 12
1.1000000000000001
 22
-0.3290896534380867
 32
0.1900000000000002
 13
1.1000000000000001
 23
-0.19
 33
0.3290896534380867
  0
3DFACE
  5
641
  8
WHEELS
 10
1.1499999999999999
 20
-0.3897114317029973
 30
0.2250000000000002
 11
1.1499999999999999
 21
-0.45
 31
0.0000000000000002
 12
1.1000000000000001
 22
-0.3800000000000001
 32
0.0000000000000002
 13
1.1000000000000001
 23
-0.3290896534380867
 33
0.1900000000000002
  0
3DFACE
  5
642
  8
WHEELS
 10
1.1499999999999999
 20
-0.45
 30
0.0000000000000002
 11
1.1499999999999999
 21
-0.3897114317029975
 31
-0.2249999999999997
 12
1.1000000000000001
 22
-0.3290896534380867
 32
-0.1899999999999997
 13
1.1000000000000001
 23
-0.3800000000000001
 33
0.0000000000000002
  0
3DFACE
  5
643
  8
WHEELS
 10
1.1499999999999999
 20
-0.3897114317029975
 30
-0.2249999999999997
 11
1.1499999999999999
 21
-0.2250000000000001
 31
-0.3897114317029974
 12
1.1000000000000001
 22
-0.1900000000000002
 32
-0.3290896534380866
 13
1.1000000000000001
 23
-0.3290896534380867
 33
-0.1899999999999997
  0
3DFACE
  5
644
  8
WHEELS
 10
1.1499999999999999
 20
-0.2250000000000001
 30
-0.3897114317029974
 11
1.1499999999999999
 21
0.0
 31
-0.45
 12
1.1000000000000001
 22
0.0
 32
-0.38
 13
1.1000000000000001
 23
-0.1900000000000002
 33
-0.3290896534380866
  0
3DFACE
  5
645
  8
WHEELS
 10
1.1499999999999999
 20
0.0
 30
-0.45
 11
1.1499999999999999
 21
0.2250000000000001
 31
-0.3897114317029974
 12
1.1000000000000001
 22
0.19
 32
-0.3290896534380867
 13
1.1000000000000001
 23
0.0
 33
-0.38
  0
3DFACE
  5
646
  8
WHEELS
 10
1.1499999999999999
 20
0.2250000000000001
 30
-0.3897114317029974
 11
1.1499999999999999
 21
0.3897114317029975
 31
-0.2249999999999999
 12
1.1000000000000001
 22
0.3290896534380867
 32
-0.19
 13
1.1000000000000001
 23
0.19
 33
-0.3290896534380867
  0
3DFACE
  5
647
  8
WHEELS
 10
1.1499999999999999
 20
0.3897114317029975
 30
-0.2249999999999999
 11
1.1499999999999999
 21
0.45
 31
0.0
 12
1.1000000000000001
 22
0.3800000000000001
 32
0.0
 13
1.1000000000000001
 23
0.3290896534380867
 33
-0.19
  0
3DFACE
  5
648
  8
WHEELS
 10
1.1499999999999999
 20
0.0
 30
0.63
 11
1.1499999999999999
 21
-0.3149999999999999
 31
0.5455960043841964
 12
1.1499999999999999
 22
-0.2249999999999999
 32
0.3897114317029974
 13
1.1499999999999999
 23
0.0
 33
0.4500000000000001
  0
3DFACE
  5
64B
  8
WHEELS
 10
1.1499999999999999
 20
0.3149999999999999
 30
0.5455960043841964
 11
1.1499999999999999
 21
0.0
 31
0.63
 12
1.1499999999999999
 22
0.0
 32
0.4499999999999999
 13
1.1499999999999999
 23
0.2250000000000001
 33
0.3897114317029976
  0
3DFACE
  5
64C
  8
WHEELS
 10
1.1499999999999999
 20
0.5455960043841963
 30
0.3150000000000002
 11
1.1499999999999999
 21
0.3149999999999999
 31
0.5455960043841964
 12
1.1499999999999999
 22
0.2250000000000001
 32
0.3897114317029974
 13
1.1499999999999999
 23
0.3897114317029975
 33
0.2250000000000002
  0
3DFACE
  5
64D
  8
WHEELS
 10
1.1499999999999999
 20
0.6300000000000003
 30
-0.0000000000000001
 11
1.1499999999999999
 21
0.5455960043841963
 31
0.3149999999999999
 12
1.1499999999999999
 22
0.3897114317029973
 32
0.2249999999999997
 13
1.1499999999999999
 23
0.45
 33
-0.0000000000000001
  0
3DFACE
  5
64E
  8
WHEELS
 10
1.1499999999999999
 20
0.5455960043841966
 30
-0.3149999999999999
 11
1.1499999999999999
 21
0.6300000000000003
 31
0.0000000000000001
 12
1.1499999999999999
 22
0.45
 32
0.0000000000000001
 13
1.1499999999999999
 23
0.3897114317029975
 33
-0.225
  0
3DFACE
  5
64F
  8
WHEELS
 10
1.1499999999999999
 20
0.3149999999999999
 30
-0.5455960043841963
 11
1.1499999999999999
 21
0.5455960043841961
 31
-0.3149999999999996
 12
1.1499999999999999
 22
0.389711431702997
 32
-0.2249999999999997
 13
1.1499999999999999
 23
0.2249999999999999
 33
-0.3897114317029971
  0
3DFACE
  5
650
  8
WHEELS
 10
1.1499999999999999
 20
0.0000000000000002
 30
-0.6300000000000003
 11
1.1499999999999999
 21
0.3150000000000002
 31
-0.5455960043841964
 12
1.1499999999999999
 22
0.2250000000000001
 32
-0.3897114317029974
 13
1.1499999999999999
 23
0.0000000000000002
 33
-0.4500000000000003
  0
3DFACE
  5
651
  8
WHEELS
 10
1.1499999999999999
 20
-0.3149999999999997
 30
-0.5455960043841966
 11
1.1499999999999999
 21
0.0000000000000004
 31
-0.6300000000000001
 12
1.1499999999999999
 22
0.0000000000000002
 32
-0.45
 13
1.1499999999999999
 23
-0.2249999999999999
 33
-0.3897114317029977
  0
3DFACE
  5
652
  8
WHEELS
 10
1.1499999999999999
 20
-0.5455960043841966
 30
-0.3150000000000003
 11
1.1499999999999999
 21
-0.3149999999999997
 31
-0.5455960043841964
 12
1.1499999999999999
 22
-0.2249999999999999
 32
-0.3897114317029971
 13
1.1499999999999999
 23
-0.3897114317029975
 33
-0.2250000000000002
  0
3DFACE
  5
653
  8
WHEELS
 10
1.1499999999999999
 20
-0.6299999999999999
 30
0.0
 11
1.1499999999999999
 21
-0.5455960043841963
 31
-0.3149999999999999
 12
1.1499999999999999
 22
-0.3897114317029973
 32
-0.2249999999999999
 13
1.1499999999999999
 23
-0.45
 33
0.0
  0
3DFACE
  5
654
  8
WHEELS
 10
1.1499999999999999
 20
-0.5455960043841963
 30
0.3149999999999999
 11
1.1499999999999999
 21
-0.6299999999999999
 31
0.0
 12
1.1499999999999999
 22
-0.4499999999999999
 32
0.0000000000000002
 13
1.1499999999999999
 23
-0.3897114317029973
 33
0.2250000000000001
  0
3DFACE
  5
655
  8
WHEELS
 10
1.1499999999999999
 20
-0.3149999999999997
 30
0.5455960043841964
 11
1.1499999999999999
 21
-0.5455960043841961
 31
0.3150000000000004
 12
1.1499999999999999
 22
-0.389711431702997
 32
0.2250000000000001
 13
1.1499999999999999
 23
-0.2249999999999999
 33
0.3897114317029976
  0
3DFACE
  5
656
  8
WHEELS
 10
1.1000000000000001
 20
0.0
 30
0.38
 11
1.1000000000000001
 21
-0.1899999999999997
 31
0.3290896534380867
 12
1.1000000000000001
 22
-0.3290896534380867
 32
0.1900000000000002
 13
1.1000000000000001
 23
0.19
 33
0.3290896534380866
  0
3DFACE
  5
657
  8
WHEELS
 10
1.1000000000000001
 20
0.1900000000000002
 30
0.3290896534380866
 11
1.1000000000000001
 21
-0.3290896534380867
 31
0.1900000000000002
 12
1.1000000000000001
 22
-0.3800000000000001
 32
0.0000000000000002
 13
1.1000000000000001
 23
0.3290896534380867
 33
0.19
  0
3DFACE
  5
658
  8
WHEELS
 10
1.1000000000000001
 20
0.3290896534380869
 30
0.1900000000000001
 11
1.1000000000000001
 21
-0.3800000000000001
 31
0.0000000000000002
 12
1.1000000000000001
 22
-0.3290896534380867
 32
-0.1899999999999997
 13
1.1000000000000001
 23
0.3800000000000001
 33
0.0
  0
3DFACE
  5
659
  8
WHEELS
 10
1.1000000000000001
 20
0.3800000000000001
 30
0.0000000000000001
 11
1.1000000000000001
 21
-0.3290896534380869
 31
-0.1899999999999997
 12
1.1000000000000001
 22
-0.1900000000000002
 32
-0.3290896534380866
 13
1.1000000000000001
 23
0.3290896534380867
 33
-0.1899999999999998
  0
3DFACE
  5
65A
  8
WHEELS
 10
1.1000000000000001
 20
0.3290896534380869
 30
-0.19
 11
1.1000000000000001
 21
-0.1900000000000008
 31
-0.3290896534380867
 12
1.1000000000000001
 22
0.0
 32
-0.38
 13
1.1000000000000001
 23
0.19
 33
-0.3290896534380867
  0
3DFACE
  5
65B
  8
WHEELS
 10
0.9000000000000004
 20
-0.3149999999999999
 30
0.5455960043841964
 11
0.9000000000000004
 21
0.0
 31
0.63
 12
0.9000000000000004
 22
0.3149999999999999
 32
0.5455960043841964
 13
0.9000000000000004
 23
-0.5455960043841963
 33
0.3149999999999999
  0
3DFACE
  5
65C
  8
WHEELS
 10
0.9000000000000004
 20
-0.5455960043841963
 30
0.3149999999999999
 11
0.9000000000000004
 21
0.3149999999999999
 31
0.5455960043841964
 12
0.9000000000000004
 22
0.5455960043841963
 32
0.3150000000000003
 13
0.9000000000000004
 23
-0.6299999999999999
 33
0.0
  0
3DFACE
  5
65D
  8
WHEELS
 10
0.9000000000000004
 20
-0.6299999999999999
 30
0.0
 11
0.9000000000000004
 21
0.5455960043841963
 31
0.3150000000000003
 12
0.9000000000000004
 22
0.6300000000000003
 32
0.0000000000000003
 13
0.9000000000000004
 23
-0.5455960043841963
 33
-0.3149999999999999
  0
3DFACE
  5
65E
  8
WHEELS
 10
0.9000000000000004
 20
-0.5455960043841963
 30
-0.3149999999999999
 11
0.9000000000000004
 21
0.6300000000000003
 31
0.0000000000000004
 12
0.9000000000000004
 22
0.5455960043841963
 32
-0.3149999999999996
 13
0.9000000000000004
 23
-0.3149999999999999
 33
-0.5455960043841964
  0
3DFACE
  5
65F
  8
WHEELS
 10
0.9000000000000004
 20
-0.3150000000000006
 30
-0.5455960043841963
 11
0.9000000000000004
 21
0.5455960043841963
 31
-0.3149999999999996
 12
0.9000000000000004
 22
0.3150000000000004
 32
-0.5455960043841963
 13
0.9000000000000004
 23
0.0
 33
-0.63
  0
3DFACE
  5
660
  8
WHEELS
 10
-1.1000000000000001
 20
-0.5888972745734185
 30
0.3399999999999998
 11
-1.1000000000000001
 21
-0.3400000000000001
 31
0.5888972745734181
 12
-1.1499999999999999
 22
-0.3149999999999999
 32
0.5455960043841964
 13
-1.1499999999999999
 23
-0.5455960043841963
 33
0.3149999999999999
  0
3DFACE
  5
661
  8
WHEELS
 10
-1.1000000000000001
 20
0.3399999999999999
 30
0.5888972745734186
 11
-1.1000000000000001
 21
0.588897274573418
 31
0.3399999999999999
 12
-1.1499999999999999
 22
0.5455960043841963
 32
0.3150000000000003
 13
-1.1499999999999999
 23
0.3149999999999999
 33
0.5455960043841964
  0
3DFACE
  5
662
  8
WHEELS
 10
-1.1000000000000001
 20
0.5888972745734187
 30
0.3399999999999993
 11
-1.1000000000000001
 21
0.3400000000000003
 31
0.5888972745734181
 12
-0.9500000000000003
 22
0.3400000000000003
 32
0.5888972745734181
 13
-0.9500000000000003
 23
0.5888972745734187
 33
0.3399999999999993
  0
3DFACE
  5
663
  8
WHEELS
 10
-1.1000000000000001
 20
-0.3400000000000001
 30
0.5888972745734185
 11
-1.1000000000000001
 21
-0.5888972745734185
 31
0.3399999999999995
 12
-0.9500000000000003
 22
-0.5888972745734185
 32
0.3399999999999995
 13
-0.9500000000000003
 23
-0.3400000000000001
 33
0.5888972745734185
  0
3DFACE
  5
664
  8
WHEELS
 10
-0.9500000000000003
 20
0.5888972745734185
 30
0.3399999999999993
 11
-0.9500000000000003
 21
0.3400000000000003
 31
0.5888972745734181
 12
-0.9000000000000004
 22
0.3150000000000004
 32
0.545596004384196
 13
-0.9000000000000004
 23
0.5455960043841963
 33
0.3149999999999995
  0
3DFACE
  5
665
  8
WHEELS
 10
-0.9500000000000003
 20
-0.3400000000000001
 30
0.5888972745734185
 11
-0.9500000000000003
 21
-0.5888972745734185
 31
0.3399999999999995
 12
-0.9000000000000004
 22
-0.5455960043841963
 32
0.3149999999999997
 13
-0.9000000000000004
 23
-0.3149999999999999
 33
0.5455960043841964
  0
3DFACE
  5
666
  8
WHEELS
 10
-1.1499999999999999
 20
0.3149999999999999
 30
0.5455960043841963
 11
-1.1499999999999999
 21
0.5455960043841961
 31
0.3149999999999996
 12
-1.1499999999999999
 22
0.389711431702997
 32
0.2249999999999997
 13
-1.1499999999999999
 23
0.2249999999999999
 33
0.3897114317029971
  0
3DFACE
  5
667
  8
WHEELS
 10
-1.1499999999999999
 20
0.0000000000000002
 30
0.6300000000000003
 11
-1.1499999999999999
 21
0.3150000000000002
 31
0.5455960043841964
 12
-1.1499999999999999
 22
0.2250000000000001
 32
0.3897114317029974
 13
-1.1499999999999999
 23
0.0000000000000002
 33
0.4500000000000003
  0
3DFACE
  5
668
  8
WHEELS
 10
-1.1499999999999999
 20
-0.3149999999999997
 30
0.5455960043841964
 11
-1.1499999999999999
 21
0.0000000000000004
 31
0.63
 12
-1.1499999999999999
 22
0.0000000000000002
 32
0.4499999999999999
 13
-1.1499999999999999
 23
-0.2249999999999999
 33
0.3897114317029976
  0
3DFACE
  5
669
  8
WHEELS
 10
-1.1499999999999999
 20
-0.5455960043841966
 30
0.3150000000000003
 11
-1.1499999999999999
 21
-0.3149999999999997
 31
0.5455960043841964
 12
-1.1499999999999999
 22
-0.2249999999999999
 32
0.3897114317029971
 13
-1.1499999999999999
 23
-0.3897114317029975
 33
0.2250000000000002
  0
3DFACE
  5
66A
  8
WHEELS
 10
-0.9000000000000004
 20
-0.5455960043841963
 30
0.3149999999999997
 11
-0.9000000000000005
 21
0.6300000000000003
 31
-0.0000000000000006
 12
-0.9000000000000004
 22
0.5455960043841963
 32
0.3149999999999995
 13
-0.9000000000000004
 23
-0.3149999999999999
 33
0.5455960043841964
  0
3DFACE
  5
66B
  8
WHEELS
 10
-0.9000000000000004
 20
-0.3150000000000006
 30
0.5455960043841963
 11
-0.9000000000000004
 21
0.5455960043841963
 31
0.3149999999999995
 12
-0.9000000000000004
 22
0.3150000000000004
 32
0.545596004384196
 13
-0.9000000000000004
 23
0.0
 33
0.63
  0
3DFACE
  5
66C
  8
WHEELS
 10
-1.1000000000000001
 20
-0.3400000000000001
 30
0.5888972745734181
 11
-1.1000000000000001
 21
0.0
 31
0.6800000000000001
 12
-1.1499999999999999
 22
0.0
 32
0.63
 13
-1.1499999999999999
 23
-0.3149999999999999
 33
0.5455960043841964
  0
3DFACE
  5
66D
  8
WHEELS
 10
-1.1000000000000001
 20
0.0
 30
0.6800000000000001
 11
-1.1000000000000001
 21
0.3399999999999999
 31
0.5888972745734186
 12
-1.1499999999999999
 22
0.3149999999999999
 32
0.5455960043841964
 13
-1.1499999999999999
 23
0.0
 33
0.63
  0
3DFACE
  5
66E
  8
WHEELS
 10
-0.9500000000000003
 20
0.3400000000000003
 30
0.5888972745734181
 11
-0.9500000000000003
 21
0.0
 31
0.6800000000000001
 12
-0.9000000000000004
 22
0.0
 32
0.63
 13
-0.9000000000000004
 23
0.3150000000000004
 33
0.545596004384196
  0
3DFACE
  5
66F
  8
WHEELS
 10
-0.9500000000000003
 20
0.0
 30
0.6800000000000001
 11
-0.9500000000000003
 21
-0.3400000000000001
 31
0.5888972745734185
 12
-0.9000000000000004
 22
-0.3149999999999999
 32
0.5455960043841964
 13
-0.9000000000000004
 23
0.0
 33
0.63
  0
3DFACE
  5
670
  8
WHEELS
 10
-1.1000000000000001
 20
0.3400000000000003
 30
0.5888972745734181
 11
-1.1000000000000001
 21
0.0000000000000002
 31
0.6800000000000001
 12
-0.9500000000000003
 22
0.0000000000000002
 32
0.6800000000000001
 13
-0.9500000000000003
 23
0.3400000000000003
 33
0.5888972745734181
  0
3DFACE
  5
671
  8
WHEELS
 10
-1.1000000000000001
 20
0.0000000000000002
 30
0.6800000000000001
 11
-1.1000000000000001
 21
-0.3400000000000001
 31
0.5888972745734185
 12
-0.9500000000000003
 22
-0.3400000000000001
 32
0.5888972745734185
 13
-0.9500000000000003
 23
0.0000000000000002
 33
0.6800000000000001
  0
3DFACE
  5
672
  8
WHEELS
 10
-1.1000000000000001
 20
0.5888972745734185
 30
-0.3399999999999996
 11
-1.1000000000000001
 21
0.3400000000000003
 31
-0.5888972745734181
 12
-1.1499999999999999
 22
0.3150000000000004
 32
-0.5455960043841963
 13
-1.1499999999999999
 23
0.5455960043841963
 33
-0.3149999999999997
  0
3DFACE
  5
673
  8
WHEELS
 10
-1.1000000000000001
 20
-0.3400000000000001
 30
-0.5888972745734185
 11
-1.1000000000000001
 21
-0.5888972745734185
 31
-0.3399999999999999
 12
-1.1499999999999999
 22
-0.5455960043841963
 32
-0.3149999999999999
 13
-1.1499999999999999
 23
-0.3149999999999999
 33
-0.5455960043841964
  0
3DFACE
  5
674
  8
WHEELS
 10
-1.1000000000000001
 20
-0.5888972745734185
 30
-0.3400000000000001
 11
-1.1000000000000001
 21
-0.3400000000000001
 31
-0.5888972745734181
 12
-0.9500000000000005
 22
-0.3400000000000001
 32
-0.5888972745734181
 13
-0.9500000000000005
 23
-0.5888972745734185
 33
-0.3400000000000001
  0
3DFACE
  5
675
  8
WHEELS
 10
-1.1000000000000001
 20
0.3399999999999999
 30
-0.5888972745734186
 11
-1.1000000000000001
 21
0.5888972745734183
 31
-0.3400000000000003
 12
-0.9500000000000005
 22
0.5888972745734183
 32
-0.3400000000000003
 13
-0.9500000000000005
 23
0.3399999999999999
 33
-0.5888972745734186
  0
3DFACE
  5
676
  8
WHEELS
 10
-0.9500000000000005
 20
-0.5888972745734185
 30
-0.3400000000000001
 11
-0.9500000000000005
 21
-0.3400000000000001
 31
-0.5888972745734181
 12
-0.9000000000000005
 22
-0.3149999999999999
 32
-0.5455960043841968
 13
-0.9000000000000005
 23
-0.5455960043841963
 33
-0.3149999999999999
  0
3DFACE
  5
677
  8
WHEELS
 10
-0.9500000000000005
 20
0.3399999999999999
 30
-0.5888972745734186
 11
-0.9500000000000005
 21
0.588897274573418
 31
-0.3400000000000003
 12
-0.9000000000000005
 22
0.5455960043841963
 32
-0.3150000000000004
 13
-0.9000000000000005
 23
0.3149999999999999
 33
-0.5455960043841968
  0
3DFACE
  5
678
  8
WHEELS
 10
-1.1499999999999999
 20
0.2250000000000001
 30
-0.3897114317029974
 11
-1.1499999999999999
 21
0.0
 31
-0.4500000000000001
 12
-1.1000000000000001
 22
0.0
 32
-0.38
 13
-1.1000000000000001
 23
0.19
 33
-0.3290896534380867
  0
3DFACE
  5
679
  8
WHEELS
 10
-1.1499999999999999
 20
0.0
 30
-0.4500000000000001
 11
-1.1499999999999999
 21
-0.2249999999999999
 31
-0.3897114317029974
 12
-1.1000000000000001
 22
-0.19
 32
-0.3290896534380868
 13
-1.1000000000000001
 23
0.0
 33
-0.38
  0
3DFACE
  5
67A
  8
WHEELS
 10
-1.1499999999999999
 20
0.0
 30
-0.63
 11
-1.1499999999999999
 21
-0.3149999999999999
 31
-0.5455960043841964
 12
-1.1499999999999999
 22
-0.2249999999999999
 32
-0.3897114317029974
 13
-1.1499999999999999
 23
0.0
 33
-0.4500000000000001
  0
3DFACE
  5
67B
  8
WHEELS
 10
-1.1499999999999999
 20
0.3149999999999999
 30
-0.5455960043841964
 11
-1.1499999999999999
 21
0.0
 31
-0.63
 12
-1.1499999999999999
 22
0.0
 32
-0.4499999999999999
 13
-1.1499999999999999
 23
0.2250000000000001
 33
-0.3897114317029976
  0
3DFACE
  5
67C
  8
WHEELS
 10
-1.1499999999999999
 20
0.5455960043841963
 30
-0.3150000000000003
 11
-1.1499999999999999
 21
0.3149999999999999
 31
-0.5455960043841964
 12
-1.1499999999999999
 22
0.2250000000000001
 32
-0.3897114317029974
 13
-1.1499999999999999
 23
0.3897114317029975
 33
-0.2250000000000003
  0
3DFACE
  5
67D
  8
WHEELS
 10
-1.1499999999999999
 20
-0.3149999999999997
 30
-0.5455960043841964
 11
-1.1499999999999999
 21
-0.5455960043841961
 31
-0.3150000000000005
 12
-1.1499999999999999
 22
-0.389711431702997
 32
-0.2250000000000002
 13
-1.1499999999999999
 23
-0.2249999999999999
 33
-0.3897114317029976
  0
3DFACE
  5
67E
  8
WHEELS
 10
-0.9000000000000005
 20
-0.3149999999999999
 30
-0.5455960043841968
 11
-0.9000000000000005
 21
0.0
 31
-0.6300000000000003
 12
-0.9000000000000005
 22
0.3149999999999999
 32
-0.5455960043841968
 13
-0.9000000000000005
 23
-0.5455960043841963
 33
-0.3149999999999999
  0
3DFACE
  5
67F
  8
WHEELS
 10
-0.9000000000000005
 20
-0.5455960043841963
 30
-0.3149999999999999
 11
-0.9000000000000005
 21
0.3149999999999999
 31
-0.5455960043841968
 12
-0.9000000000000005
 22
0.5455960043841963
 32
-0.3150000000000004
 13
-0.9000000000000005
 23
-0.6299999999999999
 33
-0.0000000000000001
  0
3DFACE
  5
680
  8
WHEELS
 10
-1.1000000000000001
 20
-0.6800000000000002
 30
-0.0000000000000001
 11
-1.1000000000000001
 21
-0.5888972745734185
 31
0.3399999999999998
 12
-1.1499999999999999
 22
-0.5455960043841963
 32
0.3149999999999999
 13
-1.1499999999999999
 23
-0.6299999999999999
 33
-0.0000000000000001
  0
3DFACE
  5
681
  8
WHEELS
 10
-1.1000000000000001
 20
0.588897274573418
 30
0.3399999999999999
 11
-1.1000000000000001
 21
0.6800000000000001
 31
0.0000000000000002
 12
-1.1499999999999999
 22
0.6300000000000003
 32
0.0000000000000002
 13
-1.1499999999999999
 23
0.5455960043841963
 33
0.3150000000000003
  0
3DFACE
  5
682
  8
WHEELS
 10
-1.1000000000000001
 20
0.6800000000000001
 30
-0.0000000000000004
 11
-1.1000000000000001
 21
0.5888972745734187
 31
0.3399999999999993
 12
-0.9500000000000003
 22
0.5888972745734187
 32
0.3399999999999993
 13
-0.9500000000000005
 23
0.6800000000000001
 33
-0.0000000000000004
  0
3DFACE
  5
683
  8
WHEELS
 10
-1.1000000000000001
 20
-0.5888972745734185
 30
0.3399999999999995
 11
-1.1000000000000001
 21
-0.6800000000000001
 31
-0.0000000000000001
 12
-0.9500000000000005
 22
-0.6800000000000001
 32
-0.0000000000000001
 13
-0.9500000000000003
 23
-0.5888972745734185
 33
0.3399999999999995
  0
3DFACE
  5
684
  8
WHEELS
 10
-0.9500000000000005
 20
0.6800000000000001
 30
-0.0000000000000004
 11
-0.9500000000000003
 21
0.5888972745734185
 31
0.3399999999999993
 12
-0.9000000000000004
 22
0.5455960043841963
 32
0.3149999999999995
 13
-0.9000000000000005
 23
0.6300000000000003
 33
-0.0000000000000004
  0
3DFACE
  5
685
  8
WHEELS
 10
-0.9500000000000003
 20
-0.5888972745734185
 30
0.3399999999999995
 11
-0.9500000000000005
 21
-0.6800000000000002
 31
-0.0000000000000001
 12
-0.9000000000000005
 22
-0.6299999999999999
 32
-0.0000000000000001
 13
-0.9000000000000004
 23
-0.5455960043841963
 33
0.3149999999999997
  0
3DFACE
  5
686
  8
WHEELS
 10
-1.1499999999999999
 20
-0.45
 30
-0.0000000000000003
 11
-1.1499999999999999
 21
-0.3897114317029975
 31
0.2249999999999997
 12
-1.1000000000000001
 22
-0.3290896534380867
 32
0.1899999999999996
 13
-1.1000000000000001
 23
-0.3800000000000001
 33
-0.0000000000000003
  0
3DFACE
  5
687
  8
WHEELS
 10
-1.1499999999999999
 20
0.3897114317029975
 30
0.2249999999999997
 11
-1.1499999999999999
 21
0.45
 31
-0.0000000000000001
 12
-1.1000000000000001
 22
0.3800000000000001
 32
-0.0000000000000001
 13
-1.1000000000000001
 23
0.3290896534380867
 33
0.1899999999999998
  0
3DFACE
  5
688
  8
WHEELS
 10
-1.1499999999999999
 20
0.5455960043841966
 30
0.3149999999999999
 11
-1.1499999999999999
 21
0.6300000000000003
 31
-0.0000000000000002
 12
-1.1499999999999999
 22
0.45
 32
-0.0000000000000002
 13
-1.1499999999999999
 23
0.3897114317029975
 33
0.225
  0
3DFACE
  5
689
  8
WHEELS
 10
-1.1499999999999999
 20
-0.6299999999999999
 30
-0.0000000000000001
 11
-1.1499999999999999
 21
-0.5455960043841963
 31
0.3149999999999999
 12
-1.1499999999999999
 22
-0.3897114317029973
 32
0.2249999999999997
 13
-1.1499999999999999
 23
-0.45
 33
-0.0000000000000001
  0
3DFACE
  5
68A
  8
WHEELS
 10
-1.1000000000000001
 20
0.3290896534380869
 30
-0.1900000000000002
 11
-1.1000000000000001
 21
-0.3800000000000001
 31
-0.0000000000000003
 12
-1.1000000000000001
 22
-0.3290896534380867
 32
0.1899999999999996
 13
-1.1000000000000001
 23
0.3800000000000001
 33
-0.0000000000000001
  0
3DFACE
  5
68B
  8
WHEELS
 10
-1.1000000000000001
 20
0.3800000000000001
 30
-0.0000000000000002
 11
-1.1000000000000001
 21
-0.3290896534380869
 31
0.1899999999999996
 12
-1.1000000000000001
 22
-0.1900000000000002
 32
0.3290896534380865
 13
-1.1000000000000001
 23
0.3290896534380867
 33
0.1899999999999997
  0
3DFACE
  5
68C
  8
WHEELS
 10
-0.9000000000000005
 20
-0.6299999999999999
 30
-0.0000000000000001
 11
-0.9000000000000005
 21
0.5455960043841963
 31
-0.3150000000000004
 12
-0.9000000000000005
 22
0.6300000000000003
 32
-0.0000000000000004
 13
-0.9000000000000004
 23
-0.5455960043841963
 33
0.3149999999999997
  0
3DFACE
  5
68D
  8
WHEELS
 10
-1.1499999999999999
 20
-0.3897114317029975
 30
0.2249999999999997
 11
-1.1499999999999999
 21
-0.2250000000000001
 31
0.3897114317029971
 12
-1.1000000000000001
 22
-0.1900000000000002
 32
0.3290896534380865
 13
-1.1000000000000001
 23
-0.3290896534380867
 33
0.1899999999999996
  0
3DFACE
  5
68E
  8
WHEELS
 10
-1.1499999999999999
 20
0.2250000000000001
 30
0.3897114317029974
 11
-1.1499999999999999
 21
0.3897114317029975
 31
0.2249999999999997
 12
-1.1000000000000001
 22
0.3290896534380867
 32
0.1899999999999998
 13
-1.1000000000000001
 23
0.19
 33
0.3290896534380866
  0
3DFACE
  5
68F
  8
WHEELS
 10
-1.1000000000000001
 20
0.3290896534380869
 30
0.1899999999999998
 11
-1.1000000000000001
 21
-0.1900000000000008
 31
0.3290896534380866
 12
-1.1000000000000001
 22
0.0
 32
0.38
 13
-1.1000000000000001
 23
0.19
 33
0.3290896534380866
  0
3DFACE
  5
690
  8
WHEELS
 10
-1.1499999999999999
 20
-0.2250000000000001
 30
0.3897114317029971
 11
-1.1499999999999999
 21
0.0
 31
0.4499999999999999
 12
-1.1000000000000001
 22
0.0
 32
0.38
 13
-1.1000000000000001
 23
-0.1900000000000002
 33
0.3290896534380865
  0
3DFACE
  5
691
  8
WHEELS
 10
-1.1499999999999999
 20
0.0
 30
0.4499999999999999
 11
-1.1499999999999999
 21
0.2250000000000001
 31
0.3897114317029974
 12
-1.1000000000000001
 22
0.19
 32
0.3290896534380866
 13
-1.1000000000000001
 23
0.0
 33
0.38
  0
3DFACE
  5
692
  8
WHEELS
 10
-1.1000000000000001
 20
0.6800000000000001
 30
0.0000000000000002
 11
-1.1000000000000001
 21
0.5888972745734185
 31
-0.3399999999999996
 12
-1.1499999999999999
 22
0.5455960043841963
 32
-0.3149999999999997
 13
-1.1499999999999999
 23
0.6300000000000003
 33
0.0000000000000002
  0
3DFACE
  5
693
  8
WHEELS
 10
-1.1000000000000001
 20
-0.5888972745734185
 30
-0.3399999999999999
 11
-1.1000000000000001
 21
-0.6800000000000002
 31
-0.0000000000000001
 12
-1.1499999999999999
 22
-0.6299999999999999
 32
-0.0000000000000001
 13
-1.1499999999999999
 23
-0.5455960043841963
 33
-0.3149999999999999
  0
3DFACE
  5
694
  8
WHEELS
 10
-1.1000000000000001
 20
-0.6800000000000001
 30
-0.0000000000000001
 11
-1.1000000000000001
 21
-0.5888972745734185
 31
-0.3400000000000001
 12
-0.9500000000000005
 22
-0.5888972745734185
 32
-0.3400000000000001
 13
-0.9500000000000005
 23
-0.6800000000000001
 33
-0.0000000000000001
  0
3DFACE
  5
695
  8
WHEELS
 10
-1.1000000000000001
 20
0.5888972745734183
 30
-0.3400000000000003
 11
-1.1000000000000001
 21
0.6800000000000001
 31
-0.0000000000000004
 12
-0.9500000000000005
 22
0.6800000000000001
 32
-0.0000000000000004
 13
-0.9500000000000005
 23
0.5888972745734183
 33
-0.3400000000000003
  0
3DFACE
  5
696
  8
WHEELS
 10
-0.9500000000000005
 20
-0.6800000000000002
 30
-0.0000000000000001
 11
-0.9500000000000005
 21
-0.5888972745734185
 31
-0.3400000000000001
 12
-0.9000000000000005
 22
-0.5455960043841963
 32
-0.3149999999999999
 13
-0.9000000000000005
 23
-0.6299999999999999
 33
-0.0000000000000001
  0
3DFACE
  5
697
  8
WHEELS
 10
-0.9500000000000005
 20
0.588897274573418
 30
-0.3400000000000003
 11
-0.9500000000000005
 21
0.6800000000000001
 31
-0.0000000000000004
 12
-0.9000000000000005
 22
0.6300000000000003
 32
-0.0000000000000004
 13
-0.9000000000000005
 23
0.5455960043841963
 33
-0.3150000000000004
  0
3DFACE
  5
698
  8
WHEELS
 10
-1.1499999999999999
 20
0.45
 30
-0.0000000000000001
 11
-1.1499999999999999
 21
0.3897114317029975
 31
-0.2250000000000001
 12
-1.1000000000000001
 22
0.3290896534380867
 32
-0.1900000000000001
 13
-1.1000000000000001
 23
0.3800000000000001
 33
-0.0000000000000001
  0
3DFACE
  5
699
  8
WHEELS
 10
-1.1499999999999999
 20
0.3897114317029975
 30
-0.2250000000000001
 11
-1.1499999999999999
 21
0.2250000000000001
 31
-0.3897114317029974
 12
-1.1000000000000001
 22
0.19
 32
-0.3290896534380867
 13
-1.1000000000000001
 23
0.3290896534380867
 33
-0.1900000000000001
  0
3DFACE
  5
69A
  8
WHEELS
 10
-1.1499999999999999
 20
-0.2249999999999999
 30
-0.3897114317029974
 11
-1.1499999999999999
 21
-0.3897114317029973
 31
-0.2250000000000003
 12
-1.1000000000000001
 22
-0.3290896534380867
 32
-0.1900000000000003
 13
-1.1000000000000001
 23
-0.19
 33
-0.3290896534380868
  0
3DFACE
  5
69B
  8
WHEELS
 10
-1.1499999999999999
 20
-0.3897114317029973
 30
-0.2250000000000003
 11
-1.1499999999999999
 21
-0.45
 31
-0.0000000000000003
 12
-1.1000000000000001
 22
-0.3800000000000001
 32
-0.0000000000000003
 13
-1.1000000000000001
 23
-0.3290896534380867
 33
-0.1900000000000003
  0
3DFACE
  5
69C
  8
WHEELS
 10
-1.1499999999999999
 20
0.6300000000000003
 30
0.0
 11
-1.1499999999999999
 21
0.5455960043841963
 31
-0.3149999999999999
 12
-1.1499999999999999
 22
0.3897114317029973
 32
-0.2249999999999999
 13
-1.1499999999999999
 23
0.45
 33
0.0
  0
3DFACE
  5
69D
  8
WHEELS
 10
-1.1499999999999999
 20
-0.5455960043841963
 30
-0.315
 11
-1.1499999999999999
 21
-0.6299999999999999
 31
-0.0000000000000001
 12
-1.1499999999999999
 22
-0.4499999999999999
 32
-0.0000000000000003
 13
-1.1499999999999999
 23
-0.3897114317029973
 33
-0.2250000000000002
  0
3DFACE
  5
69E
  8
WHEELS
 10
-1.1000000000000001
 20
0.0
 30
-0.38
 11
-1.1000000000000001
 21
-0.1899999999999997
 31
-0.3290896534380868
 12
-1.1000000000000001
 22
-0.3290896534380867
 32
-0.1900000000000003
 13
-1.1000000000000001
 23
0.19
 33
-0.3290896534380867
  0
3DFACE
  5
69F
  8
WHEELS
 10
-1.1000000000000001
 20
0.1900000000000002
 30
-0.3290896534380867
 11
-1.1000000000000001
 21
-0.3290896534380867
 31
-0.1900000000000003
 12
-1.1000000000000001
 22
-0.3800000000000001
 32
-0.0000000000000003
 13
-1.1000000000000001
 23
0.3290896534380867
 33
-0.1900000000000001
  0
3DFACE
  5
6A0
  8
WHEELS
 10
-1.1000000000000001
 20
0.3400000000000003
 30
-0.5888972745734181
 11
-1.1000000000000001
 21
0.0
 31
-0.6800000000000001
 12
-1.1499999999999999
 22
0.0
 32
-0.63
 13
-1.1499999999999999
 23
0.3150000000000004
 33
-0.5455960043841963
  0
3DFACE
  5
6A1
  8
WHEELS
 10
-1.1000000000000001
 20
0.0
 30
-0.6800000000000001
 11
-1.1000000000000001
 21
-0.3400000000000001
 31
-0.5888972745734185
 12
-1.1499999999999999
 22
-0.3149999999999999
 32
-0.5455960043841964
 13
-1.1499999999999999
 23
0.0
 33
-0.63
  0
3DFACE
  5
6A2
  8
WHEELS
 10
-1.1000000000000001
 20
-0.3400000000000001
 30
-0.5888972745734181
 11
-1.1000000000000001
 21
0.0
 31
-0.6800000000000001
 12
-0.9500000000000005
 22
0.0
 32
-0.6800000000000001
 13
-0.9500000000000005
 23
-0.3400000000000001
 33
-0.5888972745734181
  0
3DFACE
  5
6A3
  8
WHEELS
 10
-1.1000000000000001
 20
0.0
 30
-0.6800000000000001
 11
-1.1000000000000001
 21
0.3399999999999999
 31
-0.5888972745734186
 12
-0.9500000000000005
 22
0.3399999999999999
 32
-0.5888972745734186
 13
-0.9500000000000005
 23
0.0
 33
-0.6800000000000001
  0
3DFACE
  5
6A4
  8
WHEELS
 10
-0.9500000000000005
 20
-0.3400000000000001
 30
-0.5888972745734181
 11
-0.9500000000000005
 21
0.0
 31
-0.6800000000000001
 12
-0.9000000000000005
 22
0.0
 32
-0.6300000000000003
 13
-0.9000000000000005
 23
-0.3149999999999999
 33
-0.5455960043841968
  0
3DFACE
  5
6A5
  8
WHEELS
 10
-0.9500000000000005
 20
0.0
 30
-0.6800000000000001
 11
-0.9500000000000005
 21
0.3399999999999999
 31
-0.5888972745734186
 12
-0.9000000000000005
 22
0.3149999999999999
 32
-0.5455960043841968
 13
-0.9000000000000005
 23
0.0
 33
-0.6300000000000003
  0
VIEWPORT
  5
2E
 67
     1
  8
0
 10
144.7270812988281
 20
101.2295806407928
 30
0.0
 40
391.13550988316581
 41
222.15178063964839
 68
     2
 69
     1
1001
ACAD
1000
MVIEW
1002
{
1070
    16
1010
0.0
1020
0.0
1030
0.0
1010
0.0
1020
0.0
1030
1.0
1040
0.0
1040
222.15178063964839
1040
144.7270812988281
1040
101.2295806407928
1040
50.0
1040
0.0
1040
0.0
1070
     0
1070
   100
1070
     1
1070
     1
1070
     0
1070
     0
1070
     0
1070
     0
1040
0.0
1040
0.0
1040
0.0
1040
10.0
1040
10.0
1040
10.0
1040
10.0
1070
     0
1002
{
1002
}
1002
}
  0
VIEWPORT
  5
30
 67
     1
  8
0
 10
139.22375631332389
 20
100.8062499761581
 30
0.0
 40
222.75801010131829
 41
161.289999961853
 68
     1
 69
     2
1001
ACAD
1000
MVIEW
1002
{
1070
    16
1010
0.0
1020
0.0
1030
0.0
1010
0.0
1020
0.0
1030
1.0
1040
0.0
1040
307.49010134148989
1040
210.0
1040
148.5
1040
50.0
1040
0.0
1040
0.0
1070
     0
1070
   100
1070
     1
1070
     3
1070
     0
1070
     1
1070
     0
1070
     0
1040
0.0
1040
0.0
1040
0.0
1040
10.0
1040
10.0
1040
10.0
1040
10.0
1070
     0
1002
{
1002
}
1002
}
  0
ENDSEC
  0
EOF
