  0
SECTION
  2
HEADER
  9
$ACADVER
  1
AC1009
  9
$INSBASE
 10
0.0
 20
0.0
 30
0.0
  9
$EXTMIN
 10
-4.0299999999999718
 20
-70.238
 30
-37.936889999999998
  9
$EXTMAX
 10
4.0299999999999718
 20
54.329999999999991
 30
32.610257142857137
  9
$LIMMIN
 10
0.0
 20
0.0
  9
$LIMMAX
 10
420.0
 20
297.0
  9
$ORTHOMODE
 70
     1
  9
$REGENMODE
 70
     1
  9
$FILLMODE
 70
     1
  9
$QTEXTMODE
 70
     0
  9
$MIRRTEXT
 70
     1
  9
$DRAGMODE
 70
     2
  9
$LTSCALE
 40
1.0
  9
$OSMODE
 70
    35
  9
$ATTMODE
 70
     1
  9
$TEXTSIZE
 40
2.5
  9
$TRACEWID
 40
1.0
  9
$TEXTSTYLE
  7
STANDARD
  9
$CLAYER
  8
R2
  9
$CELTYPE
  6
BYLAYER
  9
$CECOLOR
 62
   256
  9
$DIMSCALE
 40
1.0
  9
$DIMASZ
 40
2.5
  9
$DIMEXO
 40
0.625
  9
$DIMDLI
 40
3.75
  9
$DIMRND
 40
0.0
  9
$DIMDLE
 40
0.0
  9
$DIMEXE
 40
1.25
  9
$DIMTP
 40
0.0
  9
$DIMTM
 40
0.0
  9
$DIMTXT
 40
2.5
  9
$DIMCEN
 40
2.5
  9
$DIMTSZ
 40
0.0
  9
$DIMTOL
 70
     0
  9
$DIMLIM
 70
     0
  9
$DIMTIH
 70
     0
  9
$DIMTOH
 70
     0
  9
$DIMSE1
 70
     0
  9
$DIMSE2
 70
     0
  9
$DIMTAD
 70
     1
  9
$DIMZIN
 70
     8
  9
$DIMBLK
  1

  9
$DIMASO
 70
     1
  9
$DIMSHO
 70
     1
  9
$DIMPOST
  1

  9
$DIMAPOST
  1

  9
$DIMALT
 70
     0
  9
$DIMALTD
 70
     3
  9
$DIMALTF
 40
0.03937007874016
  9
$DIMLFAC
 40
1.0
  9
$DIMTOFL
 70
     1
  9
$DIMTVP
 40
0.0
  9
$DIMTIX
 70
     0
  9
$DIMSOXD
 70
     0
  9
$DIMSAH
 70
     0
  9
$DIMBLK1
  1

  9
$DIMBLK2
  1

  9
$DIMSTYLE
  2
ISO-25
  9
$DIMCLRD
 70
     0
  9
$DIMCLRE
 70
     0
  9
$DIMCLRT
 70
     0
  9
$DIMTFAC
 40
1.0
  9
$DIMGAP
 40
0.625
  9
$LUNITS
 70
     2
  9
$LUPREC
 70
     4
  9
$SKETCHINC
 40
1.0
  9
$FILLETRAD
 40
10.0
  9
$AUNITS
 70
     0
  9
$AUPREC
 70
     0
  9
$MENU
  1
.
  9
$ELEVATION
 40
0.0
  9
$PELEVATION
 40
0.0
  9
$THICKNESS
 40
0.0
  9
$LIMCHECK
 70
     0
  9
$BLIPMODE
 70
     0
  9
$CHAMFERA
 40
10.0
  9
$CHAMFERB
 40
10.0
  9
$SKPOLY
 70
     0
  9
$TDCREATE
 40
2458092.4978516661
  9
$TDUPDATE
 40
2458102.4857265851
  9
$TDINDWG
 40
3.5490901389
  9
$TDUSRTIMER
 40
3.5490901389
  9
$USRTIMER
 70
     1
  9
$ANGBASE
 50
0.0
  9
$ANGDIR
 70
     0
  9
$PDMODE
 70
     0
  9
$PDSIZE
 40
0.0
  9
$PLINEWID
 40
0.0
  9
$COORDS
 70
     1
  9
$SPLFRAME
 70
     0
  9
$SPLINETYPE
 70
     6
  9
$SPLINESEGS
 70
     8
  9
$ATTDIA
 70
     1
  9
$ATTREQ
 70
     1
  9
$HANDLING
 70
-16383
  9
$HANDSEED
  5
302B
  9
$SURFTAB1
 70
     6
  9
$SURFTAB2
 70
     6
  9
$SURFTYPE
 70
     6
  9
$SURFU
 70
     6
  9
$SURFV
 70
     6
  9
$UCSNAME
  2

  9
$UCSORG
 10
0.0
 20
0.0
 30
0.0
  9
$UCSXDIR
 10
1.0
 20
0.0
 30
0.0
  9
$UCSYDIR
 10
0.0
 20
1.0
 30
0.0
  9
$PUCSNAME
  2

  9
$PUCSORG
 10
0.0
 20
0.0
 30
0.0
  9
$PUCSXDIR
 10
1.0
 20
0.0
 30
0.0
  9
$PUCSYDIR
 10
0.0
 20
1.0
 30
0.0
  9
$USERI1
 70
     0
  9
$USERI2
 70
     0
  9
$USERI3
 70
     0
  9
$USERI4
 70
     0
  9
$USERI5
 70
     0
  9
$USERR1
 40
0.0
  9
$USERR2
 40
0.0
  9
$USERR3
 40
0.0
  9
$USERR4
 40
0.0
  9
$USERR5
 40
0.0
  9
$WORLDVIEW
 70
     1
  9
$SHADEDGE
 70
     3
  9
$SHADEDIF
 70
    70
  9
$TILEMODE
 70
     1
  9
$MAXACTVP
 70
    64
  9
$PLIMCHECK
 70
     0
  9
$PEXTMIN
 10
27.844751262664801
 20
20.161249995231621
 30
0.0
  9
$PEXTMAX
 10
250.60276136398309
 20
181.4512499570846
 30
0.0
  9
$PLIMMIN
 10
-3.757080078125
 20
-3.7570831775665279
  9
$PLIMMAX
 10
293.21124267578119
 20
206.21624445915219
  9
$UNITMODE
 70
     0
  9
$VISRETAIN
 70
     1
  9
$PLINEGEN
 70
     0
  9
$PSLTSCALE
 70
     1
  0
ENDSEC
  0
SECTION
  2
TABLES
  0
TABLE
  2
VPORT
 70
    14
  0
VPORT
  2
*ACTIVE
 70
     0
 10
0.0
 20
0.0
 11
1.0
 21
1.0
 12
44.765947918450557
 22
-32.26834067964311
 13
0.0
 23
0.0
 14
0.01
 24
0.01
 15
1.0
 25
1.0
 16
-1.0
 26
0.0
 36
0.0
 17
0.0
 27
0.0
 37
0.0
 40
194.8348472044284
 41
2.1655092592592591
 42
50.0
 43
0.0
 44
0.0
 50
0.0
 51
0.0
 71
     0
 72
   100
 73
     1
 74
     3
 75
     1
 76
     1
 77
     0
 78
     0
  0
ENDTAB
  0
TABLE
  2
LTYPE
 70
     1
  0
LTYPE
  2
CONTINUOUS
 70
     0
  3
Solid line
 72
    65
 73
     0
 40
0.0
  0
ENDTAB
  0
TABLE
  2
LAYER
 70
    12
  0
LAYER
  2
0
 70
     0
 62
     7
  6
CONTINUOUS
  0
LAYER
  2
_REF1
 70
     0
 62
     9
  6
CONTINUOUS
  0
LAYER
  2
_TMP
 70
     0
 62
     4
  6
CONTINUOUS
  0
LAYER
  2
_REF2
 70
     0
 62
     8
  6
CONTINUOUS
  0
LAYER
  2
PROPELLER
 70
     0
 62
     1
  6
CONTINUOUS
  0
LAYER
  2
SUPERSTRUCTURE
 70
     0
 62
     3
  6
CONTINUOUS
  0
LAYER
  2
TURRET
 70
     0
 62
     2
  6
CONTINUOUS
  0
LAYER
  2
SLEEVE
 70
     0
 62
     5
  6
CONTINUOUS
  0
LAYER
  2
GUN
 70
     0
 62
     1
  6
CONTINUOUS
  0
LAYER
  2
RAILING
 70
     0
 62
     6
  6
CONTINUOUS
  0
LAYER
  2
R2
 70
     0
 62
     5
  6
CONTINUOUS
  0
LAYER
  2
LIFEBUOYS
 70
     0
 62
     1
  6
CONTINUOUS
  0
ENDTAB
  0
TABLE
  2
STYLE
 70
     1
  0
STYLE
  2
STANDARD
 70
     0
 40
0.0
 41
1.0
 50
0.0
 71
     0
 42
2.5
  3
txt
  4

  0
ENDTAB
  0
TABLE
  2
VIEW
 70
     0
  0
ENDTAB
  0
TABLE
  2
UCS
 70
     0
  0
ENDTAB
  0
TABLE
  2
APPID
 70
     1
  0
APPID
  2
ACAD
 70
     0
  0
ENDTAB
  0
TABLE
  2
DIMSTYLE
 70
     1
  0
DIMSTYLE
  2
ISO-25
 70
     0
  3

  4

  5

  6

  7

 40
1.0
 41
2.5
 42
0.625
 43
3.75
 44
1.25
 45
0.0
 46
0.0
 47
0.0
 48
0.0
140
2.5
141
2.5
142
0.0
143
0.03937007874016
144
1.0
145
0.0
146
1.0
147
0.625
 71
     0
 72
     0
 73
     0
 74
     0
 75
     0
 76
     0
 77
     1
 78
     8
170
     0
171
     3
172
     1
173
     0
174
     0
175
     0
176
     0
177
     0
178
     0
  0
ENDTAB
  0
ENDSEC
  0
SECTION
  2
BLOCKS
  0
BLOCK
  8
0
  2
$MODEL_SPACE
 70
     0
 10
0.0
 20
0.0
 30
0.0
  3
$MODEL_SPACE
  1

  0
ENDBLK
  5
21
  8
0
  0
BLOCK
 67
     1
  8
0
  2
$PAPER_SPACE
 70
     0
 10
0.0
 20
0.0
 30
0.0
  3
$PAPER_SPACE
  1

  0
ENDBLK
  5
1D
 67
     1
  8
0
  0
ENDSEC
  0
SECTION
  2
ENTITIES
  0
3DFACE
  5
1D54
  8
R2
 10
3.6300000000000021
 20
19.499999999999989
 30
2.2099999999999991
 11
3.580000000000001
 21
20.999999999999989
 31
2.2099999999999991
 12
3.600000000000001
 22
20.999999999999989
 32
2.2099999999999991
 13
3.6500000000000021
 23
19.499999999999989
 33
2.2099999999999991
  0
3DFACE
  5
1D55
  8
R2
 10
3.6300000000000021
 20
19.499999999999989
 30
2.7099999999999991
 11
3.580000000000001
 21
20.999999999999989
 31
2.7099999999999991
 12
3.600000000000001
 22
20.999999999999989
 32
2.7099999999999991
 13
3.6500000000000021
 23
19.499999999999989
 33
2.7099999999999991
  0
3DFACE
  5
1D56
  8
R2
 10
3.7100000000000022
 20
-9.0100000000000016
 30
1.7099999999999991
 11
3.700000000000002
 21
-9.0
 31
1.7099999999999991
 12
3.700000000000002
 22
-9.0
 32
2.7099999999999991
 13
3.7100000000000022
 23
-9.0100000000000016
 33
2.7099999999999991
  0
3DFACE
  5
1D57
  8
R2
 10
3.720000000000002
 20
-9.0
 30
1.7099999999999991
 11
3.7100000000000022
 21
-9.0100000000000016
 31
1.7099999999999991
 12
3.7100000000000022
 22
-9.0100000000000016
 32
2.7099999999999991
 13
3.720000000000002
 23
-9.0
 33
2.7099999999999991
  0
3DFACE
  5
1D58
  8
R2
 10
3.7100000000000022
 20
-8.9899999999999984
 30
1.7099999999999991
 11
3.720000000000002
 21
-9.0
 31
1.7099999999999991
 12
3.720000000000002
 22
-9.0
 32
2.7099999999999991
 13
3.7100000000000022
 23
-8.9899999999999984
 33
2.7099999999999991
  0
3DFACE
  5
1D59
  8
R2
 10
3.700000000000002
 20
-9.0
 30
1.7099999999999991
 11
3.7100000000000022
 21
-8.9899999999999984
 31
1.7099999999999991
 12
3.7100000000000022
 22
-8.9899999999999984
 32
2.7099999999999991
 13
3.700000000000002
 23
-9.0
 33
2.7099999999999991
  0
3DFACE
  5
1D5A
  8
R2
 10
3.7700000000000031
 20
-7.5100000000000007
 30
1.7099999999999991
 11
3.7600000000000011
 21
-7.5
 31
1.7099999999999991
 12
3.7600000000000011
 22
-7.5
 32
2.7099999999999991
 13
3.7700000000000031
 23
-7.5100000000000007
 33
2.7099999999999991
  0
3DFACE
  5
1D5B
  8
R2
 10
3.780000000000002
 20
-7.5
 30
1.7099999999999991
 11
3.7700000000000031
 21
-7.5100000000000007
 31
1.7099999999999991
 12
3.7700000000000031
 22
-7.5100000000000007
 32
2.7099999999999991
 13
3.780000000000002
 23
-7.5
 33
2.7099999999999991
  0
3DFACE
  5
1D5C
  8
R2
 10
3.7700000000000031
 20
-7.4899999999999984
 30
1.7099999999999991
 11
3.780000000000002
 21
-7.5
 31
1.7099999999999991
 12
3.780000000000002
 22
-7.5
 32
2.7099999999999991
 13
3.7700000000000031
 23
-7.4899999999999984
 33
2.7099999999999991
  0
3DFACE
  5
1D5D
  8
R2
 10
3.7600000000000011
 20
-7.5
 30
1.7099999999999991
 11
3.7700000000000031
 21
-7.4899999999999984
 31
1.7099999999999991
 12
3.7700000000000031
 22
-7.4899999999999984
 32
2.7099999999999991
 13
3.7600000000000011
 23
-7.5
 33
2.7099999999999991
  0
3DFACE
  5
1D5E
  8
R2
 10
3.830000000000001
 20
-6.0100000000000007
 30
1.7099999999999991
 11
3.8200000000000021
 21
-6.0
 31
1.7099999999999991
 12
3.8200000000000021
 22
-6.0
 32
2.7099999999999991
 13
3.830000000000001
 23
-6.0100000000000007
 33
2.7099999999999991
  0
3DFACE
  5
1D5F
  8
R2
 10
3.840000000000003
 20
-6.0
 30
1.7099999999999991
 11
3.830000000000001
 21
-6.0100000000000007
 31
1.7099999999999991
 12
3.830000000000001
 22
-6.0100000000000007
 32
2.7099999999999991
 13
3.840000000000003
 23
-6.0
 33
2.7099999999999991
  0
3DFACE
  5
1D60
  8
R2
 10
3.830000000000001
 20
-5.9899999999999984
 30
1.7099999999999991
 11
3.840000000000003
 21
-6.0
 31
1.7099999999999991
 12
3.840000000000003
 22
-6.0
 32
2.7099999999999991
 13
3.830000000000001
 23
-5.9899999999999984
 33
2.7099999999999991
  0
3DFACE
  5
1D61
  8
R2
 10
3.8200000000000021
 20
-6.0
 30
1.7099999999999991
 11
3.830000000000001
 21
-5.9899999999999984
 31
1.7099999999999991
 12
3.830000000000001
 22
-5.9899999999999984
 32
2.7099999999999991
 13
3.8200000000000021
 23
-6.0
 33
2.7099999999999991
  0
3DFACE
  5
1D62
  8
R2
 10
3.8700000000000001
 20
-4.5100000000000007
 30
1.7099999999999991
 11
3.8600000000000012
 21
-4.5
 31
1.7099999999999991
 12
3.8600000000000012
 22
-4.5
 32
2.7099999999999991
 13
3.8700000000000001
 23
-4.5100000000000007
 33
2.7099999999999991
  0
3DFACE
  5
1D63
  8
R2
 10
3.8800000000000021
 20
-4.5
 30
1.7099999999999991
 11
3.8700000000000001
 21
-4.5100000000000007
 31
1.7099999999999991
 12
3.8700000000000001
 22
-4.5100000000000007
 32
2.7099999999999991
 13
3.8800000000000021
 23
-4.5
 33
2.7099999999999991
  0
3DFACE
  5
1D64
  8
R2
 10
3.8700000000000001
 20
-4.4899999999999984
 30
1.7099999999999991
 11
3.8800000000000021
 21
-4.5
 31
1.7099999999999991
 12
3.8800000000000021
 22
-4.5
 32
2.7099999999999991
 13
3.8700000000000001
 23
-4.4899999999999984
 33
2.7099999999999991
  0
3DFACE
  5
1D65
  8
R2
 10
3.8600000000000012
 20
-4.5
 30
1.7099999999999991
 11
3.8700000000000001
 21
-4.4899999999999984
 31
1.7099999999999991
 12
3.8700000000000001
 22
-4.4899999999999984
 32
2.7099999999999991
 13
3.8600000000000012
 23
-4.5
 33
2.7099999999999991
  0
3DFACE
  5
1D66
  8
R2
 10
3.9000000000000021
 20
-3.0100000000000011
 30
1.7099999999999991
 11
3.8900000000000019
 21
-3.0
 31
1.7099999999999991
 12
3.8900000000000019
 22
-3.0
 32
2.7099999999999991
 13
3.9000000000000021
 23
-3.0100000000000011
 33
2.7099999999999991
  0
3DFACE
  5
1D67
  8
R2
 10
3.910000000000001
 20
-3.0
 30
1.7099999999999991
 11
3.9000000000000021
 21
-3.0100000000000011
 31
1.7099999999999991
 12
3.9000000000000021
 22
-3.0100000000000011
 32
2.7099999999999991
 13
3.910000000000001
 23
-3.0
 33
2.7099999999999991
  0
3DFACE
  5
1D68
  8
R2
 10
3.9000000000000021
 20
-2.989999999999998
 30
1.7099999999999991
 11
3.910000000000001
 21
-3.0
 31
1.7099999999999991
 12
3.910000000000001
 22
-3.0
 32
2.7099999999999991
 13
3.9000000000000021
 23
-2.989999999999998
 33
2.7099999999999991
  0
3DFACE
  5
1D69
  8
R2
 10
3.8900000000000019
 20
-3.0
 30
1.7099999999999991
 11
3.9000000000000021
 21
-2.989999999999998
 31
1.7099999999999991
 12
3.9000000000000021
 22
-2.989999999999998
 32
2.7099999999999991
 13
3.8900000000000019
 23
-3.0
 33
2.7099999999999991
  0
3DFACE
  5
1D6A
  8
R2
 10
3.930000000000001
 20
-1.5100000000000009
 30
1.7099999999999991
 11
3.9200000000000008
 21
-1.5
 31
1.7099999999999991
 12
3.9200000000000008
 22
-1.5
 32
2.7099999999999991
 13
3.930000000000001
 23
-1.5100000000000009
 33
2.7099999999999991
  0
3DFACE
  5
1D6B
  8
R2
 10
3.9400000000000008
 20
-1.5
 30
1.7099999999999991
 11
3.930000000000001
 21
-1.5100000000000009
 31
1.7099999999999991
 12
3.930000000000001
 22
-1.5100000000000009
 32
2.7099999999999991
 13
3.9400000000000008
 23
-1.5
 33
2.7099999999999991
  0
3DFACE
  5
1D6C
  8
R2
 10
3.930000000000001
 20
-1.489999999999998
 30
1.7099999999999991
 11
3.9400000000000008
 21
-1.5
 31
1.7099999999999991
 12
3.9400000000000008
 22
-1.5
 32
2.7099999999999991
 13
3.930000000000001
 23
-1.489999999999998
 33
2.7099999999999991
  0
3DFACE
  5
1D6D
  8
R2
 10
3.9200000000000008
 20
-1.5
 30
1.7099999999999991
 11
3.930000000000001
 21
-1.489999999999998
 31
1.7099999999999991
 12
3.930000000000001
 22
-1.489999999999998
 32
2.7099999999999991
 13
3.9200000000000008
 23
-1.5
 33
2.7099999999999991
  0
3DFACE
  5
1D6E
  8
R2
 10
3.9600000000000022
 20
-0.0100000000000016
 30
1.7099999999999991
 11
3.950000000000002
 21
0.0
 31
1.7099999999999991
 12
3.950000000000002
 22
0.0
 32
2.7099999999999991
 13
3.9600000000000022
 23
-0.0100000000000016
 33
2.7099999999999991
  0
3DFACE
  5
1D6F
  8
R2
 10
3.970000000000002
 20
0.0
 30
1.7099999999999991
 11
3.9600000000000022
 21
-0.0100000000000016
 31
1.7099999999999991
 12
3.9600000000000022
 22
-0.0100000000000016
 32
2.7099999999999991
 13
3.970000000000002
 23
0.0
 33
2.7099999999999991
  0
3DFACE
  5
1D70
  8
R2
 10
3.9600000000000022
 20
0.0100000000000016
 30
1.7099999999999991
 11
3.970000000000002
 21
0.0
 31
1.7099999999999991
 12
3.970000000000002
 22
0.0
 32
2.7099999999999991
 13
3.9600000000000022
 23
0.0100000000000016
 33
2.7099999999999991
  0
3DFACE
  5
1D71
  8
R2
 10
3.950000000000002
 20
0.0
 30
1.7099999999999991
 11
3.9600000000000022
 21
0.0100000000000016
 31
1.7099999999999991
 12
3.9600000000000022
 22
0.0100000000000016
 32
2.7099999999999991
 13
3.950000000000002
 23
0.0
 33
2.7099999999999991
  0
3DFACE
  5
1D72
  8
R2
 10
3.9600000000000022
 20
1.489999999999998
 30
1.7099999999999991
 11
3.950000000000002
 21
1.5
 31
1.7099999999999991
 12
3.950000000000002
 22
1.5
 32
2.7099999999999991
 13
3.9600000000000022
 23
1.489999999999998
 33
2.7099999999999991
  0
3DFACE
  5
1D73
  8
R2
 10
3.970000000000002
 20
1.5
 30
1.7099999999999991
 11
3.9600000000000022
 21
1.489999999999998
 31
1.7099999999999991
 12
3.9600000000000022
 22
1.489999999999998
 32
2.7099999999999991
 13
3.970000000000002
 23
1.5
 33
2.7099999999999991
  0
3DFACE
  5
1D74
  8
R2
 10
3.9600000000000022
 20
1.5100000000000009
 30
1.7099999999999991
 11
3.970000000000002
 21
1.5
 31
1.7099999999999991
 12
3.970000000000002
 22
1.5
 32
2.7099999999999991
 13
3.9600000000000022
 23
1.5100000000000009
 33
2.7099999999999991
  0
3DFACE
  5
1D75
  8
R2
 10
3.950000000000002
 20
1.5
 30
1.7099999999999991
 11
3.9600000000000022
 21
1.5100000000000009
 31
1.7099999999999991
 12
3.9600000000000022
 22
1.5100000000000009
 32
2.7099999999999991
 13
3.950000000000002
 23
1.5
 33
2.7099999999999991
  0
3DFACE
  5
1D76
  8
R2
 10
3.9400000000000008
 20
2.989999999999998
 30
1.7099999999999991
 11
3.930000000000001
 21
3.0
 31
1.7099999999999991
 12
3.930000000000001
 22
3.0
 32
2.7099999999999991
 13
3.9400000000000008
 23
2.989999999999998
 33
2.7099999999999991
  0
3DFACE
  5
1D77
  8
R2
 10
3.950000000000002
 20
3.0
 30
1.7099999999999991
 11
3.9400000000000008
 21
2.989999999999998
 31
1.7099999999999991
 12
3.9400000000000008
 22
2.989999999999998
 32
2.7099999999999991
 13
3.950000000000002
 23
3.0
 33
2.7099999999999991
  0
3DFACE
  5
1D78
  8
R2
 10
3.9400000000000008
 20
3.0100000000000011
 30
1.7099999999999991
 11
3.950000000000002
 21
3.0
 31
1.7099999999999991
 12
3.950000000000002
 22
3.0
 32
2.7099999999999991
 13
3.9400000000000008
 23
3.0100000000000011
 33
2.7099999999999991
  0
3DFACE
  5
1D79
  8
R2
 10
3.930000000000001
 20
3.0
 30
1.7099999999999991
 11
3.9400000000000008
 21
3.0100000000000011
 31
1.7099999999999991
 12
3.9400000000000008
 22
3.0100000000000011
 32
2.7099999999999991
 13
3.930000000000001
 23
3.0
 33
2.7099999999999991
  0
3DFACE
  5
1D7A
  8
R2
 10
3.9200000000000008
 20
4.4899999999999984
 30
1.7099999999999991
 11
3.910000000000001
 21
4.4999999999999956
 31
1.7099999999999991
 12
3.910000000000001
 22
4.4999999999999956
 32
2.7099999999999991
 13
3.9200000000000008
 23
4.4899999999999984
 33
2.7099999999999991
  0
3DFACE
  5
1D7B
  8
R2
 10
3.9300000000000028
 20
4.4999999999999956
 30
1.7099999999999991
 11
3.9200000000000008
 21
4.4899999999999984
 31
1.7099999999999991
 12
3.9200000000000008
 22
4.4899999999999984
 32
2.7099999999999991
 13
3.9300000000000028
 23
4.4999999999999956
 33
2.7099999999999991
  0
3DFACE
  5
1D7C
  8
R2
 10
3.9200000000000008
 20
4.5100000000000007
 30
1.7099999999999991
 11
3.9300000000000028
 21
4.4999999999999956
 31
1.7099999999999991
 12
3.9300000000000028
 22
4.4999999999999956
 32
2.7099999999999991
 13
3.9200000000000008
 23
4.5100000000000007
 33
2.7099999999999991
  0
3DFACE
  5
1D7D
  8
R2
 10
3.910000000000001
 20
4.4999999999999956
 30
1.7099999999999991
 11
3.9200000000000008
 21
4.5100000000000007
 31
1.7099999999999991
 12
3.9200000000000008
 22
4.5100000000000007
 32
2.7099999999999991
 13
3.910000000000001
 23
4.4999999999999956
 33
2.7099999999999991
  0
3DFACE
  5
1D7E
  8
R2
 10
3.9000000000000021
 20
5.9899999999999984
 30
1.7099999999999991
 11
3.8900000000000019
 21
5.9999999999999956
 31
1.7099999999999991
 12
3.8900000000000019
 22
5.9999999999999956
 32
2.7099999999999991
 13
3.9000000000000021
 23
5.9899999999999984
 33
2.7099999999999991
  0
3DFACE
  5
1D7F
  8
R2
 10
3.910000000000001
 20
5.9999999999999956
 30
1.7099999999999991
 11
3.9000000000000021
 21
5.9899999999999984
 31
1.7099999999999991
 12
3.9000000000000021
 22
5.9899999999999984
 32
2.7099999999999991
 13
3.910000000000001
 23
5.9999999999999956
 33
2.7099999999999991
  0
3DFACE
  5
1D80
  8
R2
 10
3.9000000000000021
 20
6.0100000000000007
 30
1.7099999999999991
 11
3.910000000000001
 21
5.9999999999999956
 31
1.7099999999999991
 12
3.910000000000001
 22
5.9999999999999956
 32
2.7099999999999991
 13
3.9000000000000021
 23
6.0100000000000007
 33
2.7099999999999991
  0
3DFACE
  5
1D81
  8
R2
 10
3.8900000000000019
 20
5.9999999999999956
 30
1.7099999999999991
 11
3.9000000000000021
 21
6.0100000000000007
 31
1.7099999999999991
 12
3.9000000000000021
 22
6.0100000000000007
 32
2.7099999999999991
 13
3.8900000000000019
 23
5.9999999999999956
 33
2.7099999999999991
  0
3DFACE
  5
1D82
  8
R2
 10
3.8800000000000021
 20
7.4899999999999984
 30
1.7099999999999991
 11
3.8700000000000001
 21
7.4999999999999956
 31
1.7099999999999991
 12
3.8700000000000001
 22
7.4999999999999956
 32
2.7099999999999991
 13
3.8800000000000021
 23
7.4899999999999984
 33
2.7099999999999991
  0
3DFACE
  5
1D83
  8
R2
 10
3.8900000000000019
 20
7.4999999999999956
 30
1.7099999999999991
 11
3.8800000000000021
 21
7.4899999999999984
 31
1.7099999999999991
 12
3.8800000000000021
 22
7.4899999999999984
 32
2.7099999999999991
 13
3.8900000000000019
 23
7.4999999999999956
 33
2.7099999999999991
  0
3DFACE
  5
1D84
  8
R2
 10
3.8800000000000021
 20
7.5100000000000007
 30
1.7099999999999991
 11
3.8900000000000019
 21
7.4999999999999956
 31
1.7099999999999991
 12
3.8900000000000019
 22
7.4999999999999956
 32
2.7099999999999991
 13
3.8800000000000021
 23
7.5100000000000007
 33
2.7099999999999991
  0
3DFACE
  5
1D85
  8
R2
 10
3.8700000000000001
 20
7.4999999999999956
 30
1.7099999999999991
 11
3.8800000000000021
 21
7.5100000000000007
 31
1.7099999999999991
 12
3.8800000000000021
 22
7.5100000000000007
 32
2.7099999999999991
 13
3.8700000000000001
 23
7.4999999999999956
 33
2.7099999999999991
  0
3DFACE
  5
1D86
  8
R2
 10
3.8700000000000001
 20
8.9899999999999984
 30
1.7099999999999991
 11
3.8600000000000012
 21
8.9999999999999964
 31
1.7099999999999991
 12
3.8600000000000012
 22
8.9999999999999964
 32
2.7099999999999991
 13
3.8700000000000001
 23
8.9899999999999984
 33
2.7099999999999991
  0
3DFACE
  5
1D87
  8
R2
 10
3.8800000000000021
 20
8.9999999999999964
 30
1.7099999999999991
 11
3.8700000000000001
 21
8.9899999999999984
 31
1.7099999999999991
 12
3.8700000000000001
 22
8.9899999999999984
 32
2.7099999999999991
 13
3.8800000000000021
 23
8.9999999999999964
 33
2.7099999999999991
  0
3DFACE
  5
1D88
  8
R2
 10
3.8700000000000001
 20
9.0100000000000016
 30
1.7099999999999991
 11
3.8800000000000021
 21
8.9999999999999964
 31
1.7099999999999991
 12
3.8800000000000021
 22
8.9999999999999964
 32
2.7099999999999991
 13
3.8700000000000001
 23
9.0100000000000016
 33
2.7099999999999991
  0
3DFACE
  5
1D89
  8
R2
 10
3.8600000000000012
 20
8.9999999999999964
 30
1.7099999999999991
 11
3.8700000000000001
 21
9.0100000000000016
 31
1.7099999999999991
 12
3.8700000000000001
 22
9.0100000000000016
 32
2.7099999999999991
 13
3.8600000000000012
 23
8.9999999999999964
 33
2.7099999999999991
  0
3DFACE
  5
1D8A
  8
R2
 10
3.850000000000001
 20
10.48999999999999
 30
1.7099999999999991
 11
3.8400000000000012
 21
10.499999999999989
 31
1.7099999999999991
 12
3.8400000000000012
 22
10.499999999999989
 32
2.7099999999999991
 13
3.850000000000001
 23
10.48999999999999
 33
2.7099999999999991
  0
3DFACE
  5
1D8B
  8
R2
 10
3.8600000000000021
 20
10.499999999999989
 30
1.7099999999999991
 11
3.850000000000001
 21
10.48999999999999
 31
1.7099999999999991
 12
3.850000000000001
 22
10.48999999999999
 32
2.7099999999999991
 13
3.8600000000000021
 23
10.499999999999989
 33
2.7099999999999991
  0
3DFACE
  5
1D8C
  8
R2
 10
3.850000000000001
 20
10.51
 30
1.7099999999999991
 11
3.8600000000000021
 21
10.499999999999989
 31
1.7099999999999991
 12
3.8600000000000021
 22
10.499999999999989
 32
2.7099999999999991
 13
3.850000000000001
 23
10.51
 33
2.7099999999999991
  0
3DFACE
  5
1D8D
  8
R2
 10
3.8400000000000012
 20
10.499999999999989
 30
1.7099999999999991
 11
3.850000000000001
 21
10.51
 31
1.7099999999999991
 12
3.850000000000001
 22
10.51
 32
2.7099999999999991
 13
3.8400000000000012
 23
10.499999999999989
 33
2.7099999999999991
  0
3DFACE
  5
1D8E
  8
R2
 10
3.8200000000000021
 20
11.98999999999999
 30
1.7099999999999991
 11
3.8100000000000018
 21
11.999999999999989
 31
1.7099999999999991
 12
3.8100000000000018
 22
11.999999999999989
 32
2.7099999999999991
 13
3.8200000000000021
 23
11.98999999999999
 33
2.7099999999999991
  0
3DFACE
  5
1D8F
  8
R2
 10
3.830000000000001
 20
11.999999999999989
 30
1.7099999999999991
 11
3.8200000000000021
 21
11.98999999999999
 31
1.7099999999999991
 12
3.8200000000000021
 22
11.98999999999999
 32
2.7099999999999991
 13
3.830000000000001
 23
11.999999999999989
 33
2.7099999999999991
  0
3DFACE
  5
1D90
  8
R2
 10
3.8200000000000021
 20
12.01
 30
1.7099999999999991
 11
3.830000000000001
 21
11.999999999999989
 31
1.7099999999999991
 12
3.830000000000001
 22
11.999999999999989
 32
2.7099999999999991
 13
3.8200000000000021
 23
12.01
 33
2.7099999999999991
  0
3DFACE
  5
1D91
  8
R2
 10
3.8100000000000018
 20
11.999999999999989
 30
1.7099999999999991
 11
3.8200000000000021
 21
12.01
 31
1.7099999999999991
 12
3.8200000000000021
 22
12.01
 32
2.7099999999999991
 13
3.8100000000000018
 23
11.999999999999989
 33
2.7099999999999991
  0
3DFACE
  5
1D92
  8
R2
 10
3.7900000000000018
 20
13.48999999999999
 30
1.7099999999999991
 11
3.7800000000000011
 21
13.499999999999989
 31
1.7099999999999991
 12
3.7800000000000011
 22
13.499999999999989
 32
2.7099999999999991
 13
3.7900000000000018
 23
13.48999999999999
 33
2.7099999999999991
  0
3DFACE
  5
1D93
  8
R2
 10
3.800000000000002
 20
13.499999999999989
 30
1.7099999999999991
 11
3.7900000000000018
 21
13.48999999999999
 31
1.7099999999999991
 12
3.7900000000000018
 22
13.48999999999999
 32
2.7099999999999991
 13
3.800000000000002
 23
13.499999999999989
 33
2.7099999999999991
  0
3DFACE
  5
1D94
  8
R2
 10
3.7900000000000018
 20
13.51
 30
1.7099999999999991
 11
3.800000000000002
 21
13.499999999999989
 31
1.7099999999999991
 12
3.800000000000002
 22
13.499999999999989
 32
2.7099999999999991
 13
3.7900000000000018
 23
13.51
 33
2.7099999999999991
  0
3DFACE
  5
1D95
  8
R2
 10
3.7800000000000011
 20
13.499999999999989
 30
1.7099999999999991
 11
3.7900000000000018
 21
13.51
 31
1.7099999999999991
 12
3.7900000000000018
 22
13.51
 32
2.7099999999999991
 13
3.7800000000000011
 23
13.499999999999989
 33
2.7099999999999991
  0
3DFACE
  5
1D96
  8
R2
 10
3.680000000000001
 20
17.989999999999991
 30
1.7099999999999991
 11
3.6700000000000008
 21
17.999999999999989
 31
1.7099999999999991
 12
3.6700000000000008
 22
17.999999999999989
 32
2.7099999999999991
 13
3.680000000000001
 23
17.989999999999991
 33
2.7099999999999991
  0
3DFACE
  5
1D97
  8
R2
 10
3.6900000000000008
 20
17.999999999999989
 30
1.7099999999999991
 11
3.680000000000001
 21
17.989999999999991
 31
1.7099999999999991
 12
3.680000000000001
 22
17.989999999999991
 32
2.7099999999999991
 13
3.6900000000000008
 23
17.999999999999989
 33
2.7099999999999991
  0
3DFACE
  5
1D98
  8
R2
 10
3.680000000000001
 20
18.010000000000002
 30
1.7099999999999991
 11
3.6900000000000008
 21
17.999999999999989
 31
1.7099999999999991
 12
3.6900000000000008
 22
17.999999999999989
 32
2.7099999999999991
 13
3.680000000000001
 23
18.010000000000002
 33
2.7099999999999991
  0
3DFACE
  5
1D99
  8
R2
 10
3.6700000000000008
 20
17.999999999999989
 30
1.7099999999999991
 11
3.680000000000001
 21
18.010000000000002
 31
1.7099999999999991
 12
3.680000000000001
 22
18.010000000000002
 32
2.7099999999999991
 13
3.6700000000000008
 23
17.999999999999989
 33
2.7099999999999991
  0
3DFACE
  5
1D9A
  8
R2
 10
3.6400000000000019
 20
19.489999999999991
 30
1.7099999999999991
 11
3.6300000000000021
 21
19.499999999999989
 31
1.7099999999999991
 12
3.6300000000000021
 22
19.499999999999989
 32
2.7099999999999991
 13
3.6400000000000019
 23
19.489999999999991
 33
2.7099999999999991
  0
3DFACE
  5
1D9B
  8
R2
 10
3.6500000000000021
 20
19.499999999999989
 30
1.7099999999999991
 11
3.6400000000000019
 21
19.489999999999991
 31
1.7099999999999991
 12
3.6400000000000019
 22
19.489999999999991
 32
2.7099999999999991
 13
3.6500000000000021
 23
19.499999999999989
 33
2.7099999999999991
  0
3DFACE
  5
1D9C
  8
R2
 10
3.6400000000000019
 20
19.510000000000002
 30
1.7099999999999991
 11
3.6500000000000021
 21
19.499999999999989
 31
1.7099999999999991
 12
3.6500000000000021
 22
19.499999999999989
 32
2.7099999999999991
 13
3.6400000000000019
 23
19.510000000000002
 33
2.7099999999999991
  0
3DFACE
  5
1D9D
  8
R2
 10
3.6300000000000021
 20
19.499999999999989
 30
1.7099999999999991
 11
3.6400000000000019
 21
19.510000000000002
 31
1.7099999999999991
 12
3.6400000000000019
 22
19.510000000000002
 32
2.7099999999999991
 13
3.6300000000000021
 23
19.499999999999989
 33
2.7099999999999991
  0
3DFACE
  5
1D9E
  8
R2
 10
3.8200000000000021
 20
-6.0
 30
2.2099999999999991
 11
3.8599999999570089
 21
-4.4999999999466018
 31
2.2099999999999991
 12
3.8799999999570112
 22
-4.4999999999466018
 32
2.2099999999999991
 13
3.8400000000397969
 23
-5.9999999999602061
 33
2.2099999999999991
  0
3DFACE
  5
1D9F
  8
R2
 10
3.7600000000000011
 20
-7.5
 30
2.2099999999999991
 11
3.819999999793704
 21
-6.0000000062040391
 31
2.2099999999999991
 12
3.839999999793704
 22
-6.0000000062040391
 32
2.2099999999999991
 13
3.780000000000002
 23
-7.5
 33
2.2099999999999991
  0
3DFACE
  5
1DA0
  8
R2
 10
3.699999993795962
 20
-8.9999999937959601
 30
2.2099999999999991
 11
3.759999993589664
 21
-7.5
 31
2.2099999999999991
 12
3.7799999935896649
 22
-7.5
 32
2.2099999999999991
 13
3.719999993795962
 23
-8.9999999937959601
 33
2.2099999999999991
  0
3DFACE
  5
1DA1
  8
R2
 10
3.8899999999999721
 20
6.0000000000000311
 30
2.2099999999999991
 11
3.8700000000000432
 21
7.4999999999999529
 31
2.2099999999999991
 12
3.8900000000000441
 22
7.4999999999999529
 32
2.2099999999999991
 13
3.910000000000001
 23
5.9999999999999956
 33
2.2099999999999991
  0
3DFACE
  5
1DA2
  8
R2
 10
3.950000000000002
 20
0.0
 30
2.2099999999999991
 11
3.9499999999996258
 21
1.4999999999997899
 31
2.2099999999999991
 12
3.9699999999996249
 22
1.4999999999997899
 32
2.2099999999999991
 13
3.9699999999997919
 23
-0.0000000000000817
 33
2.2099999999999991
  0
3DFACE
  5
1DA3
  8
R2
 10
3.9200000000000008
 20
-1.5
 30
2.2099999999999991
 11
3.950000000000002
 21
-0.0000000000104059
 31
2.2099999999999991
 12
3.970000000000002
 22
-0.0000000000104059
 32
2.2099999999999991
 13
3.9400000000041149
 23
-1.500000000004114
 33
2.2099999999999991
  0
3DFACE
  5
1DA4
  8
R2
 10
3.8900000000104078
 20
-2.9999999999895941
 30
2.2099999999999991
 11
3.9200000000104072
 21
-1.5
 31
2.2099999999999991
 12
3.9400000000104081
 22
-1.5
 32
2.2099999999999991
 13
3.9100000000145201
 23
-2.9999999999937041
 33
2.2099999999999991
  0
3DFACE
  5
1DA5
  8
R2
 10
3.859999999993911
 20
-4.4999999999730953
 30
2.2099999999999991
 11
3.8899999999939112
 21
-2.9999999999835039
 31
2.2099999999999991
 12
3.9099999999939121
 22
-2.9999999999835039
 32
2.2099999999999991
 13
3.8799999999980228
 23
-4.4999999999772093
 33
2.2099999999999991
  0
3DFACE
  5
1DA6
  8
R2
 10
3.9099999999999291
 20
4.5000000000000737
 30
2.2099999999999991
 11
3.8900000000000019
 21
5.9999999999999956
 31
2.2099999999999991
 12
3.910000000000001
 22
5.9999999999999956
 32
2.2099999999999991
 13
3.9299999999999602
 23
4.5000000000000391
 33
2.2099999999999991
  0
3DFACE
  5
1DA7
  8
R2
 10
3.9299999999998869
 20
3.0000000000000311
 30
2.2099999999999991
 11
3.9099999999999611
 21
4.49999999999996
 31
2.2099999999999991
 12
3.9299999999999602
 22
4.49999999999996
 32
2.2099999999999991
 13
3.9499999999999171
 23
3.0
 33
2.2099999999999991
  0
3DFACE
  5
1DA8
  8
R2
 10
3.9499999999997608
 20
1.5000000000000739
 30
2.2099999999999991
 11
3.9299999999998319
 21
3.0
 31
2.2099999999999991
 12
3.9499999999998319
 22
3.0
 32
2.2099999999999991
 13
3.969999999999791
 23
1.500000000000042
 33
2.2099999999999991
  0
3DFACE
  5
1DA9
  8
R2
 10
3.8400000000000669
 20
10.499999999999989
 30
2.2099999999999991
 11
3.8100000000000018
 21
11.999999999999989
 31
2.2099999999999991
 12
3.830000000000001
 22
11.999999999999989
 32
2.2099999999999991
 13
3.860000000000066
 23
10.499999999999989
 33
2.2099999999999991
  0
3DFACE
  5
1DAA
  8
R2
 10
3.8600000000000012
 20
8.9999999999999964
 30
2.2099999999999991
 11
3.8400000000000691
 21
10.499999999999931
 31
2.2099999999999991
 12
3.8600000000000678
 22
10.499999999999931
 32
2.2099999999999991
 13
3.8800000000000461
 23
8.9999999999999538
 33
2.2099999999999991
  0
3DFACE
  5
1DAB
  8
R2
 10
3.8700000000000001
 20
7.4999999999999956
 30
2.2099999999999991
 11
3.8600000000000469
 21
8.9999999999999112
 31
2.2099999999999991
 12
3.8800000000000479
 22
8.9999999999999112
 32
2.2099999999999991
 13
3.8899999999999588
 23
7.4999999999999529
 33
2.2099999999999991
  0
3DFACE
  5
1DAC
  8
R2
 10
3.8100000000000018
 20
11.999999999999989
 30
2.2099999999999991
 11
3.7799999999999372
 21
13.51
 31
2.2099999999999991
 12
3.7999999999999359
 22
13.51
 32
2.2099999999999991
 13
3.830000000000001
 23
11.999999999999989
 33
2.2099999999999991
  0
3DFACE
  5
1DAD
  8
R2
 10
3.6700000000000008
 20
17.989999999999998
 30
2.2099999999999991
 11
3.6300000000000021
 21
19.499999999999989
 31
2.2099999999999991
 12
3.6500000000000021
 22
19.499999999999989
 32
2.2099999999999991
 13
3.6900000000000008
 23
17.989999999999998
 33
2.2099999999999991
  0
3DFACE
  5
1DAE
  8
R2
 10
3.8200000000000021
 20
-6.0
 30
2.7099999999999991
 11
3.8599999999570089
 21
-4.4999999999466018
 31
2.7099999999999991
 12
3.8799999999570112
 22
-4.4999999999466018
 32
2.7099999999999991
 13
3.8400000000397969
 23
-5.9999999999602061
 33
2.7099999999999991
  0
3DFACE
  5
1DAF
  8
R2
 10
2.1700000006893378
 20
-26.80000000068933
 30
3.9599999999999991
 11
2.3900000000000001
 21
-25.30000000137867
 31
3.9599999999999991
 12
2.4100000006893381
 22
-25.30000000068933
 32
3.9599999999999991
 13
2.190000000689337
 23
-26.80000000068933
 33
3.9599999999999991
  0
3DFACE
  5
1DB0
  8
R2
 10
2.1700000006893378
 20
-26.80000000068933
 30
4.4599999999999991
 11
2.3900000000000001
 21
-25.30000000137867
 31
4.4599999999999991
 12
2.4100000006893381
 22
-25.30000000068933
 32
4.4599999999999991
 13
2.190000000689337
 23
-26.80000000068933
 33
4.4599999999999991
  0
3DFACE
  5
1DB1
  8
R2
 10
1.96
 20
-28.309999999999999
 30
3.4599999999999991
 11
1.9500000000000011
 21
-28.300000000000001
 31
3.4599999999999991
 12
1.9500000000000011
 22
-28.300000000000001
 32
4.4599999999999991
 13
1.96
 23
-28.309999999999999
 33
4.4599999999999991
  0
3DFACE
  5
1DB2
  8
R2
 10
1.970000000000002
 20
-28.300000000000001
 30
3.4599999999999991
 11
1.96
 21
-28.309999999999999
 31
3.4599999999999991
 12
1.96
 22
-28.309999999999999
 32
4.4599999999999991
 13
1.970000000000002
 23
-28.300000000000001
 33
4.4599999999999991
  0
3DFACE
  5
1DB3
  8
R2
 10
1.96
 20
-28.289999999999999
 30
3.4599999999999991
 11
1.970000000000002
 21
-28.300000000000001
 31
3.4599999999999991
 12
1.970000000000002
 22
-28.300000000000001
 32
4.4599999999999991
 13
1.96
 23
-28.289999999999999
 33
4.4599999999999991
  0
3DFACE
  5
1DB4
  8
R2
 10
1.9500000000000011
 20
-28.300000000000001
 30
3.4599999999999991
 11
1.96
 21
-28.289999999999999
 31
3.4599999999999991
 12
1.96
 22
-28.289999999999999
 32
4.4599999999999991
 13
1.9500000000000011
 23
-28.300000000000001
 33
4.4599999999999991
  0
3DFACE
  5
1DB5
  8
R2
 10
2.180000000000001
 20
-26.809999999999999
 30
3.4599999999999991
 11
2.1700000000000008
 21
-26.800000000000001
 31
3.4599999999999991
 12
2.1700000000000008
 22
-26.800000000000001
 32
4.4599999999999991
 13
2.180000000000001
 23
-26.809999999999999
 33
4.4599999999999991
  0
3DFACE
  5
1DB6
  8
R2
 10
2.1900000000000008
 20
-26.800000000000001
 30
3.4599999999999991
 11
2.180000000000001
 21
-26.809999999999999
 31
3.4599999999999991
 12
2.180000000000001
 22
-26.809999999999999
 32
4.4599999999999991
 13
2.1900000000000008
 23
-26.800000000000001
 33
4.4599999999999991
  0
3DFACE
  5
1DB7
  8
R2
 10
2.180000000000001
 20
-26.789999999999999
 30
3.4599999999999991
 11
2.1900000000000008
 21
-26.800000000000001
 31
3.4599999999999991
 12
2.1900000000000008
 22
-26.800000000000001
 32
4.4599999999999991
 13
2.180000000000001
 23
-26.789999999999999
 33
4.4599999999999991
  0
3DFACE
  5
1DB8
  8
R2
 10
2.1700000000000008
 20
-26.800000000000001
 30
3.4599999999999991
 11
2.180000000000001
 21
-26.789999999999999
 31
3.4599999999999991
 12
2.180000000000001
 22
-26.789999999999999
 32
4.4599999999999991
 13
2.1700000000000008
 23
-26.800000000000001
 33
4.4599999999999991
  0
3DFACE
  5
1DB9
  8
R2
 10
1.9500000000000011
 20
-28.309999999999999
 30
3.9599999999999991
 11
2.1699999993106629
 21
-26.80000000068933
 31
3.9599999999999991
 12
2.1900000000000008
 22
-26.79999999999999
 32
3.9599999999999991
 13
1.970000000000002
 23
-28.309999999999999
 33
3.9599999999999991
  0
3DFACE
  5
1DBA
  8
R2
 10
1.9500000000000011
 20
-28.309999999999999
 30
4.4599999999999991
 11
2.1699999993106629
 21
-26.80000000068933
 31
4.4599999999999991
 12
2.1900000000000008
 22
-26.800000000000001
 32
4.4599999999999991
 13
1.970000000000002
 23
-28.309999999999999
 33
4.4599999999999991
  0
3DFACE
  5
1DBB
  8
R2
 10
2.4000000000000021
 20
-25.309999999999999
 30
3.4599999999999991
 11
2.3900000000000001
 21
-25.300000000000001
 31
3.4599999999999991
 12
2.3900000000000001
 22
-25.300000000000001
 32
4.4599999999999991
 13
2.4000000000000021
 23
-25.309999999999999
 33
4.4599999999999991
  0
3DFACE
  5
1DBC
  8
R2
 10
2.410000000000001
 20
-25.300000000000001
 30
3.4599999999999991
 11
2.4000000000000021
 21
-25.309999999999999
 31
3.4599999999999991
 12
2.4000000000000021
 22
-25.309999999999999
 32
4.4599999999999991
 13
2.410000000000001
 23
-25.300000000000001
 33
4.4599999999999991
  0
3DFACE
  5
1DBD
  8
R2
 10
2.4000000000000021
 20
-25.289999999999988
 30
3.4599999999999991
 11
2.410000000000001
 21
-25.300000000000001
 31
3.4599999999999991
 12
2.410000000000001
 22
-25.300000000000001
 32
4.4599999999999991
 13
2.4000000000000021
 23
-25.289999999999988
 33
4.4599999999999991
  0
3DFACE
  5
1DBE
  8
R2
 10
2.3900000000000001
 20
-25.300000000000001
 30
3.4599999999999991
 11
2.4000000000000021
 21
-25.289999999999988
 31
3.4599999999999991
 12
2.4000000000000021
 22
-25.289999999999988
 32
4.4599999999999991
 13
2.3900000000000001
 23
-25.300000000000001
 33
4.4599999999999991
  0
3DFACE
  5
1DBF
  8
R2
 10
2.6100000000000012
 20
-23.809999999999999
 30
3.4599999999999991
 11
2.600000000000001
 21
-23.800000000000001
 31
3.4599999999999991
 12
2.600000000000001
 22
-23.800000000000001
 32
4.4599999999999991
 13
2.6100000000000012
 23
-23.809999999999999
 33
4.4599999999999991
  0
3DFACE
  5
1DC0
  8
R2
 10
2.6200000000000001
 20
-23.800000000000001
 30
3.4599999999999991
 11
2.6100000000000012
 21
-23.809999999999999
 31
3.4599999999999991
 12
2.6100000000000012
 22
-23.809999999999999
 32
4.4599999999999991
 13
2.6200000000000001
 23
-23.800000000000001
 33
4.4599999999999991
  0
3DFACE
  5
1DC1
  8
R2
 10
2.6100000000000012
 20
-23.789999999999999
 30
3.4599999999999991
 11
2.6200000000000001
 21
-23.800000000000001
 31
3.4599999999999991
 12
2.6200000000000001
 22
-23.800000000000001
 32
4.4599999999999991
 13
2.6100000000000012
 23
-23.789999999999999
 33
4.4599999999999991
  0
3DFACE
  5
1DC2
  8
R2
 10
2.600000000000001
 20
-23.800000000000001
 30
3.4599999999999991
 11
2.6100000000000012
 21
-23.789999999999999
 31
3.4599999999999991
 12
2.6100000000000012
 22
-23.789999999999999
 32
4.4599999999999991
 13
2.600000000000001
 23
-23.800000000000001
 33
4.4599999999999991
  0
3DFACE
  5
1DC3
  8
R2
 10
2.7700000000000009
 20
-22.309999999999999
 30
3.4599999999999991
 11
2.7600000000000011
 21
-22.29999999999999
 31
3.4599999999999991
 12
2.7600000000000011
 22
-22.29999999999999
 32
4.4599999999999991
 13
2.7700000000000009
 23
-22.309999999999999
 33
4.4599999999999991
  0
3DFACE
  5
1DC4
  8
R2
 10
2.7800000000000011
 20
-22.29999999999999
 30
3.4599999999999991
 11
2.7700000000000009
 21
-22.309999999999999
 31
3.4599999999999991
 12
2.7700000000000009
 22
-22.309999999999999
 32
4.4599999999999991
 13
2.7800000000000011
 23
-22.29999999999999
 33
4.4599999999999991
  0
3DFACE
  5
1DC5
  8
R2
 10
2.7700000000000009
 20
-22.289999999999999
 30
3.4599999999999991
 11
2.7800000000000011
 21
-22.29999999999999
 31
3.4599999999999991
 12
2.7800000000000011
 22
-22.29999999999999
 32
4.4599999999999991
 13
2.7700000000000009
 23
-22.289999999999999
 33
4.4599999999999991
  0
3DFACE
  5
1DC6
  8
R2
 10
2.7600000000000011
 20
-22.29999999999999
 30
3.4599999999999991
 11
2.7700000000000009
 21
-22.289999999999999
 31
3.4599999999999991
 12
2.7700000000000009
 22
-22.289999999999999
 32
4.4599999999999991
 13
2.7600000000000011
 23
-22.29999999999999
 33
4.4599999999999991
  0
3DFACE
  5
1DC7
  8
R2
 10
2.8900000000000019
 20
-20.809999999999999
 30
3.4599999999999991
 11
2.8800000000000021
 21
-20.800000000000001
 31
3.4599999999999991
 12
2.8800000000000021
 22
-20.800000000000001
 32
4.4599999999999991
 13
2.8900000000000019
 23
-20.809999999999999
 33
4.4599999999999991
  0
3DFACE
  5
1DC8
  8
R2
 10
2.9000000000000021
 20
-20.800000000000001
 30
3.4599999999999991
 11
2.8900000000000019
 21
-20.809999999999999
 31
3.4599999999999991
 12
2.8900000000000019
 22
-20.809999999999999
 32
4.4599999999999991
 13
2.9000000000000021
 23
-20.800000000000001
 33
4.4599999999999991
  0
3DFACE
  5
1DC9
  8
R2
 10
2.8900000000000019
 20
-20.789999999999999
 30
3.4599999999999991
 11
2.9000000000000021
 21
-20.800000000000001
 31
3.4599999999999991
 12
2.9000000000000021
 22
-20.800000000000001
 32
4.4599999999999991
 13
2.8900000000000019
 23
-20.789999999999999
 33
4.4599999999999991
  0
3DFACE
  5
1DCA
  8
R2
 10
2.8800000000000021
 20
-20.800000000000001
 30
3.4599999999999991
 11
2.8900000000000019
 21
-20.789999999999999
 31
3.4599999999999991
 12
2.8900000000000019
 22
-20.789999999999999
 32
4.4599999999999991
 13
2.8800000000000021
 23
-20.800000000000001
 33
4.4599999999999991
  0
3DFACE
  5
1DCB
  8
R2
 10
2.3900000000000001
 20
-25.30000000137867
 30
3.9599999999999991
 11
2.600000000000001
 21
-23.79999999999999
 31
3.9599999999999991
 12
2.620000000919116
 22
-23.800000000919109
 32
3.9599999999999991
 13
2.4100000000000001
 23
-25.30000000137867
 33
3.9599999999999991
  0
3DFACE
  5
1DCC
  8
R2
 10
2.5999999997630421
 20
-23.800000001615629
 30
3.9599999999999991
 11
2.7600000000000011
 21
-22.29999999999999
 31
3.9599999999999991
 12
2.7799999996696938
 22
-22.3000000003303
 32
3.9599999999999991
 13
2.6199999997630421
 23
-23.800000001615629
 33
3.9599999999999991
  0
3DFACE
  5
1DCD
  8
R2
 10
2.7599999981474101
 20
-22.29999999999999
 30
3.9599999999999991
 11
2.8800000000000021
 21
-20.79999999999999
 31
3.9599999999999991
 12
2.89999999957156
 22
-20.799999999571551
 32
3.9599999999999991
 13
2.7799999981474102
 23
-22.29999999999999
 33
3.9599999999999991
  0
3DFACE
  5
1DCE
  8
R2
 10
2.880000005557775
 20
-20.799999930527811
 30
3.9599999999999991
 11
2.96
 21
-19.829999999999991
 31
3.9599999999999991
 12
2.9800000000000022
 22
-19.829999999999991
 32
3.9599999999999991
 13
2.9000000055577759
 23
-20.799999930527811
 33
3.9599999999999991
  0
3DFACE
  5
1DCF
  8
R2
 10
2.880000005557775
 20
-20.799999930527822
 30
4.4599999999999991
 11
2.96
 21
-19.829999999999998
 31
4.4599999999999991
 12
2.9800000000000022
 22
-19.829999999999998
 32
4.4599999999999991
 13
2.9000000055577759
 23
-20.799999930527822
 33
4.4599999999999991
  0
3DFACE
  5
1DD0
  8
R2
 10
2.7599999981474101
 20
-22.29999999999999
 30
4.4599999999999991
 11
2.8800000000000021
 21
-20.800000000000001
 31
4.4599999999999991
 12
2.89999999957156
 22
-20.799999999571551
 32
4.4599999999999991
 13
2.7799999981474102
 23
-22.29999999999999
 33
4.4599999999999991
  0
3DFACE
  5
1DD1
  8
R2
 10
2.5999999997630421
 20
-23.800000001615629
 30
4.4599999999999991
 11
2.7600000000000011
 21
-22.29999999999999
 31
4.4599999999999991
 12
2.7799999996696938
 22
-22.3000000003303
 32
4.4599999999999991
 13
2.6199999997630421
 23
-23.800000001615629
 33
4.4599999999999991
  0
3DFACE
  5
1DD2
  8
R2
 10
2.3900000000000001
 20
-25.30000000137867
 30
4.4599999999999991
 11
2.600000000000001
 21
-23.800000000000001
 31
4.4599999999999991
 12
2.620000000919116
 22
-23.800000000919109
 32
4.4599999999999991
 13
2.4100000000000001
 23
-25.30000000137867
 33
4.4599999999999991
  0
3DFACE
  5
1DD3
  8
R2
 10
2.1100000000000012
 20
-10.0
 30
3.4500000000000002
 11
2.100000000000001
 21
-9.9899999999999984
 31
3.4500000000000002
 12
2.100000000000001
 22
-9.9899999999999984
 32
4.4500000000000002
 13
2.1100000000000012
 23
-10.0
 33
4.4500000000000002
  0
3DFACE
  5
1DD4
  8
R2
 10
2.1200000000000001
 20
-9.9899999999999984
 30
3.4500000000000002
 11
2.1100000000000012
 21
-10.0
 31
3.4500000000000002
 12
2.1100000000000012
 22
-10.0
 32
4.4500000000000002
 13
2.1200000000000001
 23
-9.9899999999999984
 33
4.4500000000000002
  0
3DFACE
  5
1DD5
  8
R2
 10
2.1100000000000012
 20
-9.9800000000000004
 30
3.4500000000000002
 11
2.1200000000000001
 21
-9.9899999999999984
 31
3.4500000000000002
 12
2.1200000000000001
 22
-9.9899999999999984
 32
4.4500000000000002
 13
2.1100000000000012
 23
-9.9800000000000004
 33
4.4500000000000002
  0
3DFACE
  5
1DD6
  8
R2
 10
2.100000000000001
 20
-9.9899999999999984
 30
3.4500000000000002
 11
2.1100000000000012
 21
-9.9800000000000004
 31
3.4500000000000002
 12
2.1100000000000012
 22
-9.9800000000000004
 32
4.4500000000000002
 13
2.100000000000001
 23
-9.9899999999999984
 33
4.4500000000000002
  0
3DFACE
  5
1DD7
  8
R2
 10
2.7900000000000018
 20
-10.0
 30
3.4500000000000002
 11
2.7800000000000011
 21
-9.9899999999999984
 31
3.4500000000000002
 12
2.7800000000000011
 22
-9.9899999999999984
 32
4.4500000000000002
 13
2.7900000000000018
 23
-10.0
 33
4.4500000000000002
  0
3DFACE
  5
1DD8
  8
R2
 10
2.800000000000002
 20
-9.9899999999999984
 30
3.4500000000000002
 11
2.7900000000000018
 21
-10.0
 31
3.4500000000000002
 12
2.7900000000000018
 22
-10.0
 32
4.4500000000000002
 13
2.800000000000002
 23
-9.9899999999999984
 33
4.4500000000000002
  0
3DFACE
  5
1DD9
  8
R2
 10
2.7900000000000018
 20
-9.9800000000000004
 30
3.4500000000000002
 11
2.800000000000002
 21
-9.9899999999999984
 31
3.4500000000000002
 12
2.800000000000002
 22
-9.9899999999999984
 32
4.4500000000000002
 13
2.7900000000000018
 23
-9.9800000000000004
 33
4.4500000000000002
  0
3DFACE
  5
1DDA
  8
R2
 10
2.7800000000000011
 20
-9.9899999999999984
 30
3.4500000000000002
 11
2.7900000000000018
 21
-9.9800000000000004
 31
3.4500000000000002
 12
2.7900000000000018
 22
-9.9800000000000004
 32
4.4500000000000002
 13
2.7800000000000011
 23
-9.9899999999999984
 33
4.4500000000000002
  0
3DFACE
  5
1DDB
  8
R2
 10
1.21
 20
-10.0
 30
3.4500000000000002
 11
1.2000000000000011
 21
-9.9899999999999984
 31
3.4500000000000002
 12
1.2000000000000011
 22
-9.9899999999999984
 32
4.4500000000000002
 13
1.21
 23
-10.0
 33
4.4500000000000002
  0
3DFACE
  5
1DDC
  8
R2
 10
1.220000000000002
 20
-9.9899999999999984
 30
3.4500000000000002
 11
1.21
 21
-10.0
 31
3.4500000000000002
 12
1.21
 22
-10.0
 32
4.4500000000000002
 13
1.220000000000002
 23
-9.9899999999999984
 33
4.4500000000000002
  0
3DFACE
  5
1DDD
  8
R2
 10
1.21
 20
-9.9800000000000004
 30
3.4500000000000002
 11
1.220000000000002
 21
-9.9899999999999984
 31
3.4500000000000002
 12
1.220000000000002
 22
-9.9899999999999984
 32
4.4500000000000002
 13
1.21
 23
-9.9800000000000004
 33
4.4500000000000002
  0
3DFACE
  5
1DDE
  8
R2
 10
1.2000000000000011
 20
-9.9899999999999984
 30
3.4500000000000002
 11
1.21
 21
-9.9800000000000004
 31
3.4500000000000002
 12
1.21
 22
-9.9800000000000004
 32
4.4500000000000002
 13
1.2000000000000011
 23
-9.9899999999999984
 33
4.4500000000000002
  0
3DFACE
  5
1DDF
  8
R2
 10
3.5600000000000018
 20
-10.0
 30
3.4500000000000002
 11
3.550000000000002
 21
-9.9899999999999984
 31
3.4500000000000002
 12
3.550000000000002
 22
-9.9899999999999984
 32
4.4500000000000002
 13
3.5600000000000018
 23
-10.0
 33
4.4500000000000002
  0
3DFACE
  5
1DE0
  8
R2
 10
3.5700000000000021
 20
-9.9899999999999984
 30
3.4500000000000002
 11
3.5600000000000018
 21
-10.0
 31
3.4500000000000002
 12
3.5600000000000018
 22
-10.0
 32
4.4500000000000002
 13
3.5700000000000021
 23
-9.9899999999999984
 33
4.4500000000000002
  0
3DFACE
  5
1DE1
  8
R2
 10
3.5600000000000018
 20
-9.9800000000000004
 30
3.4500000000000002
 11
3.5700000000000021
 21
-9.9899999999999984
 31
3.4500000000000002
 12
3.5700000000000021
 22
-9.9899999999999984
 32
4.4500000000000002
 13
3.5600000000000018
 23
-9.9800000000000004
 33
4.4500000000000002
  0
3DFACE
  5
1DE2
  8
R2
 10
3.550000000000002
 20
-9.9899999999999984
 30
3.4500000000000002
 11
3.5600000000000018
 21
-9.9800000000000004
 31
3.4500000000000002
 12
3.5600000000000018
 22
-9.9800000000000004
 32
4.4500000000000002
 13
3.550000000000002
 23
-9.9899999999999984
 33
4.4500000000000002
  0
3DFACE
  5
1DE3
  8
R2
 10
3.699999993795962
 20
-8.9999999937959601
 30
2.7099999999999991
 11
3.759999993589664
 21
-7.5
 31
2.7099999999999991
 12
3.7799999935896649
 22
-7.5
 32
2.7099999999999991
 13
3.719999993795962
 23
-8.9999999937959601
 33
2.7099999999999991
  0
3DFACE
  5
1DE4
  8
R2
 10
3.7600000000000011
 20
-7.5
 30
2.7099999999999991
 11
3.819999999793704
 21
-6.0000000062040391
 31
2.7099999999999991
 12
3.839999999793704
 22
-6.0000000062040391
 32
2.7099999999999991
 13
3.780000000000002
 23
-7.5
 33
2.7099999999999991
  0
3DFACE
  5
1DE5
  8
R2
 10
2.7800000062040411
 20
-9.9799999937959605
 30
3.9500000000000002
 11
3.5700000000000021
 21
-9.9800000000000004
 31
3.9500000000000002
 12
3.550000000000002
 22
-10.0
 32
3.9500000000000002
 13
2.7800000062040411
 23
-9.9999999937959601
 33
3.9500000000000002
  0
3DFACE
  5
1DE6
  8
R2
 10
2.7800000062040411
 20
-9.9799999937959605
 30
4.4500000000000002
 11
3.5700000000000021
 21
-9.9800000000000004
 31
4.4500000000000002
 12
3.550000000000002
 22
-10.0
 32
4.4500000000000002
 13
2.7800000062040411
 23
-9.9999999937959601
 33
4.4500000000000002
  0
3DFACE
  5
1DE7
  8
R2
 10
3.570000006204042
 20
-9.9800000000000004
 30
3.9500000000000002
 11
3.5700000000000021
 21
-10.18
 31
3.9500000000000002
 12
3.550000000000002
 22
-10.18
 32
3.9500000000000002
 13
3.550000006204042
 23
-10.0
 33
3.9500000000000002
  0
3DFACE
  5
1DE8
  8
R2
 10
3.570000006204042
 20
-9.9800000000000004
 30
4.4500000000000002
 11
3.5700000000000021
 21
-10.18
 31
4.4500000000000002
 12
3.550000000000002
 22
-10.18
 32
4.4500000000000002
 13
3.550000006204042
 23
-10.0
 33
4.4500000000000002
  0
3DFACE
  5
1DE9
  8
R2
 10
1.200000006204041
 20
-9.9799999937959605
 30
3.9500000000000002
 11
2.1200000000000001
 21
-9.9800000000000004
 31
3.9500000000000002
 12
2.1200000000000001
 22
-10.0
 32
3.9500000000000002
 13
1.200000006204041
 23
-9.9999999937959601
 33
3.9500000000000002
  0
3DFACE
  5
1DEA
  8
R2
 10
1.200000006204041
 20
-9.9799999937959605
 30
4.4500000000000002
 11
2.1200000000000001
 21
-9.9800000000000004
 31
4.4500000000000002
 12
2.1200000000000001
 22
-10.0
 32
4.4500000000000002
 13
1.200000006204041
 23
-9.9999999937959601
 33
4.4500000000000002
  0
3DFACE
  5
1DEB
  8
R2
 10
3.8899999999999721
 20
6.0000000000000311
 30
2.7099999999999991
 11
3.8700000000000432
 21
7.4999999999999529
 31
2.7099999999999991
 12
3.8900000000000441
 22
7.4999999999999529
 32
2.7099999999999991
 13
3.910000000000001
 23
5.9999999999999956
 33
2.7099999999999991
  0
3DFACE
  5
1DEC
  8
R2
 10
3.950000000000002
 20
0.0
 30
2.7099999999999991
 11
3.9499999999996258
 21
1.4999999999997899
 31
2.7099999999999991
 12
3.9699999999996249
 22
1.4999999999997899
 32
2.7099999999999991
 13
3.9699999999997919
 23
-0.0000000000000817
 33
2.7099999999999991
  0
3DFACE
  5
1DED
  8
R2
 10
3.859999999993911
 20
-4.4999999999730953
 30
2.7099999999999991
 11
3.8899999999939112
 21
-2.9999999999835039
 31
2.7099999999999991
 12
3.9099999999939121
 22
-2.9999999999835039
 32
2.7099999999999991
 13
3.8799999999980228
 23
-4.4999999999772093
 33
2.7099999999999991
  0
3DFACE
  5
1DEE
  8
R2
 10
3.8900000000104078
 20
-2.9999999999895941
 30
2.7099999999999991
 11
3.9200000000104072
 21
-1.5
 31
2.7099999999999991
 12
3.9400000000104081
 22
-1.5
 32
2.7099999999999991
 13
3.9100000000145201
 23
-2.9999999999937041
 33
2.7099999999999991
  0
3DFACE
  5
1DEF
  8
R2
 10
3.9200000000000008
 20
-1.5
 30
2.7099999999999991
 11
3.950000000000002
 21
-0.0000000000104059
 31
2.7099999999999991
 12
3.970000000000002
 22
-0.0000000000104059
 32
2.7099999999999991
 13
3.9400000000041149
 23
-1.500000000004114
 33
2.7099999999999991
  0
3DFACE
  5
1DF0
  8
R2
 10
3.9499999999997608
 20
1.5000000000000739
 30
2.7099999999999991
 11
3.9299999999998319
 21
3.0
 31
2.7099999999999991
 12
3.9499999999998319
 22
3.0
 32
2.7099999999999991
 13
3.969999999999791
 23
1.500000000000042
 33
2.7099999999999991
  0
3DFACE
  5
1DF1
  8
R2
 10
3.9299999999998869
 20
3.0000000000000311
 30
2.7099999999999991
 11
3.9099999999999611
 21
4.49999999999996
 31
2.7099999999999991
 12
3.9299999999999602
 22
4.49999999999996
 32
2.7099999999999991
 13
3.9499999999999171
 23
3.0
 33
2.7099999999999991
  0
3DFACE
  5
1DF2
  8
R2
 10
3.9099999999999291
 20
4.5000000000000737
 30
2.7099999999999991
 11
3.8900000000000019
 21
5.9999999999999956
 31
2.7099999999999991
 12
3.910000000000001
 22
5.9999999999999956
 32
2.7099999999999991
 13
3.9299999999999602
 23
4.5000000000000391
 33
2.7099999999999991
  0
3DFACE
  5
1DF3
  8
R2
 10
3.8100000000000018
 20
11.999999999999989
 30
2.7099999999999991
 11
3.7799999999999372
 21
13.51
 31
2.7099999999999991
 12
3.7999999999999359
 22
13.51
 32
2.7099999999999991
 13
3.830000000000001
 23
11.999999999999989
 33
2.7099999999999991
  0
3DFACE
  5
1DF4
  8
R2
 10
3.8700000000000001
 20
7.4999999999999956
 30
2.7099999999999991
 11
3.8600000000000469
 21
8.9999999999999112
 31
2.7099999999999991
 12
3.8800000000000479
 22
8.9999999999999112
 32
2.7099999999999991
 13
3.8899999999999588
 23
7.4999999999999529
 33
2.7099999999999991
  0
3DFACE
  5
1DF5
  8
R2
 10
3.8600000000000012
 20
8.9999999999999964
 30
2.7099999999999991
 11
3.8400000000000691
 21
10.499999999999931
 31
2.7099999999999991
 12
3.8600000000000678
 22
10.499999999999931
 32
2.7099999999999991
 13
3.8800000000000461
 23
8.9999999999999538
 33
2.7099999999999991
  0
3DFACE
  5
1DF6
  8
R2
 10
3.8400000000000669
 20
10.499999999999989
 30
2.7099999999999991
 11
3.8100000000000018
 21
11.999999999999989
 31
2.7099999999999991
 12
3.830000000000001
 22
11.999999999999989
 32
2.7099999999999991
 13
3.860000000000066
 23
10.499999999999989
 33
2.7099999999999991
  0
3DFACE
  5
1DF7
  8
R2
 10
3.6700000000000008
 20
17.989999999999998
 30
2.7099999999999991
 11
3.6300000000000021
 21
19.499999999999989
 31
2.7099999999999991
 12
3.6500000000000021
 22
19.499999999999989
 32
2.7099999999999991
 13
3.6900000000000008
 23
17.989999999999998
 33
2.7099999999999991
  0
3DFACE
  5
1DF8
  8
R2
 10
3.5900000000000012
 20
20.989999999999991
 30
1.7099999999999991
 11
3.580000000000001
 21
20.999999999999989
 31
1.7099999999999991
 12
3.580000000000001
 22
20.999999999999989
 32
2.7099999999999991
 13
3.5900000000000012
 23
20.989999999999991
 33
2.7099999999999991
  0
3DFACE
  5
1DF9
  8
R2
 10
3.600000000000001
 20
20.999999999999989
 30
1.7099999999999991
 11
3.5900000000000012
 21
20.989999999999991
 31
1.7099999999999991
 12
3.5900000000000012
 22
20.989999999999991
 32
2.7099999999999991
 13
3.600000000000001
 23
20.999999999999989
 33
2.7099999999999991
  0
3DFACE
  5
1DFA
  8
R2
 10
3.5900000000000012
 20
21.010000000000002
 30
1.7099999999999991
 11
3.600000000000001
 21
20.999999999999989
 31
1.7099999999999991
 12
3.600000000000001
 22
20.999999999999989
 32
2.7099999999999991
 13
3.5900000000000012
 23
21.010000000000002
 33
2.7099999999999991
  0
3DFACE
  5
1DFB
  8
R2
 10
3.580000000000001
 20
20.999999999999989
 30
1.7099999999999991
 11
3.5900000000000012
 21
21.010000000000002
 31
1.7099999999999991
 12
3.5900000000000012
 22
21.010000000000002
 32
2.7099999999999991
 13
3.580000000000001
 23
20.999999999999989
 33
2.7099999999999991
  0
3DFACE
  5
1DFC
  8
R2
 10
3.5400000000000018
 20
22.489999999999998
 30
1.7099999999999991
 11
3.5300000000000011
 21
22.499999999999989
 31
1.7099999999999991
 12
3.5300000000000011
 22
22.499999999999989
 32
2.7099999999999991
 13
3.5400000000000018
 23
22.489999999999998
 33
2.7099999999999991
  0
3DFACE
  5
1DFD
  8
R2
 10
3.550000000000002
 20
22.499999999999989
 30
1.7099999999999991
 11
3.5400000000000018
 21
22.489999999999998
 31
1.7099999999999991
 12
3.5400000000000018
 22
22.489999999999998
 32
2.7099999999999991
 13
3.550000000000002
 23
22.499999999999989
 33
2.7099999999999991
  0
3DFACE
  5
1DFE
  8
R2
 10
3.5400000000000018
 20
22.510000000000002
 30
1.7099999999999991
 11
3.550000000000002
 21
22.499999999999989
 31
1.7099999999999991
 12
3.550000000000002
 22
22.499999999999989
 32
2.7099999999999991
 13
3.5400000000000018
 23
22.510000000000002
 33
2.7099999999999991
  0
3DFACE
  5
1DFF
  8
R2
 10
3.5300000000000011
 20
22.499999999999989
 30
1.7099999999999991
 11
3.5400000000000018
 21
22.510000000000002
 31
1.7099999999999991
 12
3.5400000000000018
 22
22.510000000000002
 32
2.7099999999999991
 13
3.5300000000000011
 23
22.499999999999989
 33
2.7099999999999991
  0
3DFACE
  5
1E00
  8
R2
 10
3.4900000000000011
 20
23.989999999999998
 30
1.7099999999999991
 11
3.4800000000000022
 21
23.999999999999989
 31
1.7099999999999991
 12
3.4800000000000022
 22
23.999999999999989
 32
2.7099999999999991
 13
3.4900000000000011
 23
23.989999999999998
 33
2.7099999999999991
  0
3DFACE
  5
1E01
  8
R2
 10
3.5000000000000009
 20
23.999999999999989
 30
1.7099999999999991
 11
3.4900000000000011
 21
23.989999999999998
 31
1.7099999999999991
 12
3.4900000000000011
 22
23.989999999999998
 32
2.7099999999999991
 13
3.5000000000000009
 23
23.999999999999989
 33
2.7099999999999991
  0
3DFACE
  5
1E02
  8
R2
 10
3.4900000000000011
 20
24.010000000000002
 30
1.7099999999999991
 11
3.5000000000000009
 21
23.999999999999989
 31
1.7099999999999991
 12
3.5000000000000009
 22
23.999999999999989
 32
2.7099999999999991
 13
3.4900000000000011
 23
24.010000000000002
 33
2.7099999999999991
  0
3DFACE
  5
1E03
  8
R2
 10
3.4800000000000022
 20
23.999999999999989
 30
1.7099999999999991
 11
3.4900000000000011
 21
24.010000000000002
 31
1.7099999999999991
 12
3.4900000000000011
 22
24.010000000000002
 32
2.7099999999999991
 13
3.4800000000000022
 23
23.999999999999989
 33
2.7099999999999991
  0
3DFACE
  5
1E04
  8
R2
 10
3.3700000000000001
 20
25.489999999999991
 30
1.7099999999999991
 11
3.3600000000000012
 21
25.499999999999989
 31
1.7099999999999991
 12
3.3600000000000012
 22
25.499999999999989
 32
2.7099999999999991
 13
3.3700000000000001
 23
25.489999999999991
 33
2.7099999999999991
  0
3DFACE
  5
1E05
  8
R2
 10
3.3800000000000021
 20
25.499999999999989
 30
1.7099999999999991
 11
3.3700000000000001
 21
25.489999999999991
 31
1.7099999999999991
 12
3.3700000000000001
 22
25.489999999999991
 32
2.7099999999999991
 13
3.3800000000000021
 23
25.499999999999989
 33
2.7099999999999991
  0
3DFACE
  5
1E06
  8
R2
 10
3.3700000000000001
 20
25.510000000000002
 30
1.7099999999999991
 11
3.3800000000000021
 21
25.499999999999989
 31
1.7099999999999991
 12
3.3800000000000021
 22
25.499999999999989
 32
2.7099999999999991
 13
3.3700000000000001
 23
25.510000000000002
 33
2.7099999999999991
  0
3DFACE
  5
1E07
  8
R2
 10
3.3600000000000012
 20
25.499999999999989
 30
1.7099999999999991
 11
3.3700000000000001
 21
25.510000000000002
 31
1.7099999999999991
 12
3.3700000000000001
 22
25.510000000000002
 32
2.7099999999999991
 13
3.3600000000000012
 23
25.499999999999989
 33
2.7099999999999991
  0
3DFACE
  5
1E08
  8
R2
 10
3.2400000000000011
 20
26.989999999999991
 30
1.7099999999999991
 11
3.2300000000000022
 21
26.999999999999989
 31
1.7099999999999991
 12
3.2300000000000022
 22
26.999999999999989
 32
2.7099999999999991
 13
3.2400000000000011
 23
26.989999999999991
 33
2.7099999999999991
  0
3DFACE
  5
1E09
  8
R2
 10
3.2500000000000009
 20
26.999999999999989
 30
1.7099999999999991
 11
3.2400000000000011
 21
26.989999999999991
 31
1.7099999999999991
 12
3.2400000000000011
 22
26.989999999999991
 32
2.7099999999999991
 13
3.2500000000000009
 23
26.999999999999989
 33
2.7099999999999991
  0
3DFACE
  5
1E0A
  8
R2
 10
3.2400000000000011
 20
27.010000000000002
 30
1.7099999999999991
 11
3.2500000000000009
 21
26.999999999999989
 31
1.7099999999999991
 12
3.2500000000000009
 22
26.999999999999989
 32
2.7099999999999991
 13
3.2400000000000011
 23
27.010000000000002
 33
2.7099999999999991
  0
3DFACE
  5
1E0B
  8
R2
 10
3.2300000000000022
 20
26.999999999999989
 30
1.7099999999999991
 11
3.2400000000000011
 21
27.010000000000002
 31
1.7099999999999991
 12
3.2400000000000011
 22
27.010000000000002
 32
2.7099999999999991
 13
3.2300000000000022
 23
26.999999999999989
 33
2.7099999999999991
  0
3DFACE
  5
1E0C
  8
R2
 10
3.4800000000000022
 20
23.999999999999989
 30
2.2099999999999991
 11
3.3600000000000012
 21
25.499999999999989
 31
2.2099999999999991
 12
3.3800000000000021
 22
25.499999999999989
 32
2.2099999999999991
 13
3.5000000000000009
 23
23.999999999999989
 33
2.2099999999999991
  0
3DFACE
  5
1E0D
  8
R2
 10
3.5300000000000011
 20
22.499999999999989
 30
2.2099999999999991
 11
3.4800000000000022
 21
23.999999999999989
 31
2.2099999999999991
 12
3.5000000000000009
 22
23.999999999999989
 32
2.2099999999999991
 13
3.550000000000002
 23
22.499999999999989
 33
2.2099999999999991
  0
3DFACE
  5
1E0E
  8
R2
 10
3.580000000000001
 20
20.999999999999989
 30
2.2099999999999991
 11
3.5300000000000011
 21
22.499999999999989
 31
2.2099999999999991
 12
3.550000000000002
 22
22.499999999999989
 32
2.2099999999999991
 13
3.6000000000000032
 23
20.999999999999989
 33
2.2099999999999991
  0
3DFACE
  5
1E0F
  8
R2
 10
3.3600000000000012
 20
25.499999999999989
 30
2.2099999999999991
 11
3.2300000000000022
 21
27.010000000000002
 31
2.2099999999999991
 12
3.2500000000000009
 22
27.010000000000002
 32
2.2099999999999991
 13
3.3800000000000021
 23
25.499999999999989
 33
2.2099999999999991
  0
3DFACE
  5
1E10
  8
R2
 10
3.3600000000000012
 20
25.499999999999989
 30
2.7099999999999991
 11
3.2300000000000022
 21
27.010000000000002
 31
2.7099999999999991
 12
3.2500000000000009
 22
27.010000000000002
 32
2.7099999999999991
 13
3.3800000000000021
 23
25.499999999999989
 33
2.7099999999999991
  0
3DFACE
  5
1E11
  8
R2
 10
3.580000000000001
 20
20.999999999999989
 30
2.7099999999999991
 11
3.5300000000000011
 21
22.499999999999989
 31
2.7099999999999991
 12
3.550000000000002
 22
22.499999999999989
 32
2.7099999999999991
 13
3.6000000000000032
 23
20.999999999999989
 33
2.7099999999999991
  0
3DFACE
  5
1E12
  8
R2
 10
3.5300000000000011
 20
22.499999999999989
 30
2.7099999999999991
 11
3.4800000000000022
 21
23.999999999999989
 31
2.7099999999999991
 12
3.5000000000000009
 22
23.999999999999989
 32
2.7099999999999991
 13
3.550000000000002
 23
22.499999999999989
 33
2.7099999999999991
  0
3DFACE
  5
1E13
  8
R2
 10
3.4800000000000022
 20
23.999999999999989
 30
2.7099999999999991
 11
3.3600000000000012
 21
25.499999999999989
 31
2.7099999999999991
 12
3.3800000000000021
 22
25.499999999999989
 32
2.7099999999999991
 13
3.5000000000000009
 23
23.999999999999989
 33
2.7099999999999991
  0
VIEWPORT
  5
2E
 67
     1
  8
0
 10
144.7270812988281
 20
101.2295806407928
 30
0.0
 40
391.13550988316581
 41
222.15178063964839
 68
     2
 69
     1
1001
ACAD
1000
MVIEW
1002
{
1070
    16
1010
0.0
1020
0.0
1030
0.0
1010
0.0
1020
0.0
1030
1.0
1040
0.0
1040
222.15178063964839
1040
144.7270812988281
1040
101.2295806407928
1040
50.0
1040
0.0
1040
0.0
1070
     0
1070
   100
1070
     1
1070
     1
1070
     0
1070
     0
1070
     0
1070
     0
1040
0.0
1040
0.0
1040
0.0
1040
10.0
1040
10.0
1040
10.0
1040
10.0
1070
     0
1002
{
1002
}
1002
}
  0
VIEWPORT
  5
30
 67
     1
  8
0
 10
139.22375631332389
 20
100.8062499761581
 30
0.0
 40
222.75801010131829
 41
161.289999961853
 68
     1
 69
     2
1001
ACAD
1000
MVIEW
1002
{
1070
    16
1010
0.0
1020
0.0
1030
0.0
1010
0.0
1020
0.0
1030
1.0
1040
0.0
1040
307.49010134148989
1040
210.0
1040
148.5
1040
50.0
1040
0.0
1040
0.0
1070
     0
1070
   100
1070
     1
1070
     3
1070
     0
1070
     1
1070
     0
1070
     0
1040
0.0
1040
0.0
1040
0.0
1040
10.0
1040
10.0
1040
10.0
1040
10.0
1070
     0
1002
{
1002
}
1002
}
  0
ENDSEC
  0
EOF
