  0
SECTION
  2
HEADER
  9
$ACADVER
  1
AC1009
  9
$INSBASE
 10
0.0
 20
0.0
 30
0.0
  9
$EXTMIN
 10
-0.7900000000000009
 20
-0.4700000000000033
 30
-0.0000000000000018
  9
$EXTMAX
 10
0.8399999999999998
 20
0.4699999999999945
 30
1.229999999999996
  9
$LIMMIN
 10
0.0
 20
0.0
  9
$LIMMAX
 10
420.0
 20
297.0
  9
$ORTHOMODE
 70
     1
  9
$REGENMODE
 70
     1
  9
$FILLMODE
 70
     1
  9
$QTEXTMODE
 70
     0
  9
$MIRRTEXT
 70
     1
  9
$DRAGMODE
 70
     2
  9
$LTSCALE
 40
1.0
  9
$OSMODE
 70
    39
  9
$ATTMODE
 70
     1
  9
$TEXTSIZE
 40
2.5
  9
$TRACEWID
 40
1.0
  9
$TEXTSTYLE
  7
STANDARD
  9
$CLAYER
  8
TURRET
  9
$CELTYPE
  6
BYLAYER
  9
$CECOLOR
 62
   256
  9
$DIMSCALE
 40
1.0
  9
$DIMASZ
 40
2.5
  9
$DIMEXO
 40
0.625
  9
$DIMDLI
 40
3.75
  9
$DIMRND
 40
0.0
  9
$DIMDLE
 40
0.0
  9
$DIMEXE
 40
1.25
  9
$DIMTP
 40
0.0
  9
$DIMTM
 40
0.0
  9
$DIMTXT
 40
2.5
  9
$DIMCEN
 40
2.5
  9
$DIMTSZ
 40
0.0
  9
$DIMTOL
 70
     0
  9
$DIMLIM
 70
     0
  9
$DIMTIH
 70
     0
  9
$DIMTOH
 70
     0
  9
$DIMSE1
 70
     0
  9
$DIMSE2
 70
     0
  9
$DIMTAD
 70
     1
  9
$DIMZIN
 70
     8
  9
$DIMBLK
  1

  9
$DIMASO
 70
     1
  9
$DIMSHO
 70
     1
  9
$DIMPOST
  1

  9
$DIMAPOST
  1

  9
$DIMALT
 70
     0
  9
$DIMALTD
 70
     3
  9
$DIMALTF
 40
0.03937007874016
  9
$DIMLFAC
 40
1.0
  9
$DIMTOFL
 70
     1
  9
$DIMTVP
 40
0.0
  9
$DIMTIX
 70
     0
  9
$DIMSOXD
 70
     0
  9
$DIMSAH
 70
     0
  9
$DIMBLK1
  1

  9
$DIMBLK2
  1

  9
$DIMSTYLE
  2
ISO-25
  9
$DIMCLRD
 70
     0
  9
$DIMCLRE
 70
     0
  9
$DIMCLRT
 70
     0
  9
$DIMTFAC
 40
1.0
  9
$DIMGAP
 40
0.625
  9
$LUNITS
 70
     2
  9
$LUPREC
 70
     4
  9
$SKETCHINC
 40
1.0
  9
$FILLETRAD
 40
10.0
  9
$AUNITS
 70
     0
  9
$AUPREC
 70
     0
  9
$MENU
  1
.
  9
$ELEVATION
 40
0.0
  9
$PELEVATION
 40
0.0
  9
$THICKNESS
 40
0.0
  9
$LIMCHECK
 70
     0
  9
$BLIPMODE
 70
     0
  9
$CHAMFERA
 40
10.0
  9
$CHAMFERB
 40
10.0
  9
$SKPOLY
 70
     0
  9
$TDCREATE
 40
2456832.8884901619
  9
$TDUPDATE
 40
2456835.7505535069
  9
$TDINDWG
 40
1.0988740625
  9
$TDUSRTIMER
 40
1.0988740508999999
  9
$USRTIMER
 70
     1
  9
$ANGBASE
 50
0.0
  9
$ANGDIR
 70
     0
  9
$PDMODE
 70
     0
  9
$PDSIZE
 40
0.0
  9
$PLINEWID
 40
0.0
  9
$COORDS
 70
     1
  9
$SPLFRAME
 70
     0
  9
$SPLINETYPE
 70
     6
  9
$SPLINESEGS
 70
     8
  9
$ATTDIA
 70
     1
  9
$ATTREQ
 70
     1
  9
$HANDLING
 70
-16383
  9
$HANDSEED
  5
20BD
  9
$SURFTAB1
 70
     6
  9
$SURFTAB2
 70
     6
  9
$SURFTYPE
 70
     6
  9
$SURFU
 70
     6
  9
$SURFV
 70
     6
  9
$UCSNAME
  2

  9
$UCSORG
 10
0.0
 20
0.0
 30
0.0
  9
$UCSXDIR
 10
0.0
 20
-1.0
 30
0.0
  9
$UCSYDIR
 10
0.0
 20
0.0
 30
1.0
  9
$PUCSNAME
  2

  9
$PUCSORG
 10
0.0
 20
0.0
 30
0.0
  9
$PUCSXDIR
 10
1.0
 20
0.0
 30
0.0
  9
$PUCSYDIR
 10
0.0
 20
1.0
 30
0.0
  9
$USERI1
 70
     0
  9
$USERI2
 70
     0
  9
$USERI3
 70
     0
  9
$USERI4
 70
     0
  9
$USERI5
 70
     0
  9
$USERR1
 40
0.0
  9
$USERR2
 40
0.0
  9
$USERR3
 40
0.0
  9
$USERR4
 40
0.0
  9
$USERR5
 40
0.0
  9
$WORLDVIEW
 70
     1
  9
$SHADEDGE
 70
     3
  9
$SHADEDIF
 70
    70
  9
$TILEMODE
 70
     1
  9
$MAXACTVP
 70
    64
  9
$PLIMCHECK
 70
     0
  9
$PEXTMIN
 10
27.844751262664801
 20
20.161249995231621
 30
0.0
  9
$PEXTMAX
 10
250.60276136398309
 20
181.4512499570846
 30
0.0
  9
$PLIMMIN
 10
-3.757080078125
 20
-3.7570831775665279
  9
$PLIMMAX
 10
293.21124267578119
 20
206.21624445915219
  9
$UNITMODE
 70
     0
  9
$VISRETAIN
 70
     1
  9
$PLINEGEN
 70
     0
  9
$PSLTSCALE
 70
     1
  0
ENDSEC
  0
SECTION
  2
TABLES
  0
TABLE
  2
VPORT
 70
     2
  0
VPORT
  2
*ACTIVE
 70
     0
 10
0.0
 20
0.0
 11
1.0
 21
1.0
 12
2.248937743132255
 22
1.024784358654246
 13
0.0
 23
0.0
 14
0.01
 24
0.01
 15
1.0
 25
1.0
 16
-1.0
 26
0.0
 36
0.0
 17
0.0
 27
0.0
 37
0.0
 40
13.28186483553727
 41
1.8171021377672201
 42
50.0
 43
0.0
 44
0.0
 50
0.0
 51
0.0
 71
     0
 72
   100
 73
     1
 74
     3
 75
     1
 76
     1
 77
     0
 78
     0
  0
ENDTAB
  0
TABLE
  2
LTYPE
 70
     1
  0
LTYPE
  2
CONTINUOUS
 70
     0
  3
Solid line
 72
    65
 73
     0
 40
0.0
  0
ENDTAB
  0
TABLE
  2
LAYER
 70
    11
  0
LAYER
  2
0
 70
     0
 62
     7
  6
CONTINUOUS
  0
LAYER
  2
DRAWING
 70
     0
 62
     9
  6
CONTINUOUS
  0
LAYER
  2
SUPERSTRUCTURE
 70
     0
 62
     3
  6
CONTINUOUS
  0
LAYER
  2
COVER
 70
     0
 62
     6
  6
CONTINUOUS
  0
LAYER
  2
RAMP
 70
     0
 62
     1
  6
CONTINUOUS
  0
LAYER
  2
PROP
 70
     0
 62
     1
  6
CONTINUOUS
  0
LAYER
  2
TURRET
 70
     0
 62
     2
  6
CONTINUOUS
  0
LAYER
  2
SLEEVE
 70
     0
 62
     5
  6
CONTINUOUS
  0
LAYER
  2
BARREL
 70
     0
 62
     1
  6
CONTINUOUS
  0
LAYER
  2
RAILINGS
 70
     0
 62
     6
  6
CONTINUOUS
  0
LAYER
  2
BOATS
 70
     0
 62
     1
  6
CONTINUOUS
  0
ENDTAB
  0
TABLE
  2
STYLE
 70
     1
  0
STYLE
  2
STANDARD
 70
     0
 40
0.0
 41
1.0
 50
0.0
 71
     0
 42
2.5
  3
txt
  4

  0
ENDTAB
  0
TABLE
  2
VIEW
 70
     0
  0
ENDTAB
  0
TABLE
  2
UCS
 70
     0
  0
ENDTAB
  0
TABLE
  2
APPID
 70
     1
  0
APPID
  2
ACAD
 70
     0
  0
ENDTAB
  0
TABLE
  2
DIMSTYLE
 70
     1
  0
DIMSTYLE
  2
ISO-25
 70
     0
  3

  4

  5

  6

  7

 40
1.0
 41
2.5
 42
0.625
 43
3.75
 44
1.25
 45
0.0
 46
0.0
 47
0.0
 48
0.0
140
2.5
141
2.5
142
0.0
143
0.03937007874016
144
1.0
145
0.0
146
1.0
147
0.625
 71
     0
 72
     0
 73
     0
 74
     0
 75
     0
 76
     0
 77
     1
 78
     8
170
     0
171
     3
172
     1
173
     0
174
     0
175
     0
176
     0
177
     0
178
     0
  0
ENDTAB
  0
ENDSEC
  0
SECTION
  2
BLOCKS
  0
BLOCK
  8
0
  2
$MODEL_SPACE
 70
     0
 10
0.0
 20
0.0
 30
0.0
  3
$MODEL_SPACE
  1

  0
ENDBLK
  5
21
  8
0
  0
BLOCK
 67
     1
  8
0
  2
$PAPER_SPACE
 70
     0
 10
0.0
 20
0.0
 30
0.0
  3
$PAPER_SPACE
  1

  0
ENDBLK
  5
1D
 67
     1
  8
0
  0
ENDSEC
  0
SECTION
  2
ENTITIES
  0
3DFACE
  5
1922
  8
TURRET
 10
-0.2800000000000001
 20
-0.4000000000000102
 30
0.1199999999999974
 11
-0.28
 21
0.4599999999999965
 31
0.1199999999999974
 12
-0.28
 22
0.4599999999999965
 32
0.1399999999999988
 13
-0.2800000000000001
 23
-0.4000000000000102
 33
0.259999999999998
  0
3DFACE
  5
1923
  8
TURRET
 10
-0.3799999999999999
 20
0.4599999999999965
 30
0.1399999999999988
 11
-0.3799999999999999
 21
0.4599999999999965
 31
0.1199999999999974
 12
-0.3800000000000001
 22
-0.4000000000000102
 32
0.1199999999999974
 13
-0.3800000000000001
 23
-0.4000000000000102
 33
0.259999999999998
  0
3DFACE
  5
1924
  8
TURRET
 10
-0.28
 20
0.4599999999999965
 30
0.1399999999999988
 11
-0.28
 21
0.4599999999999965
 31
0.1199999999999974
 12
-0.3799999999999999
 22
0.4599999999999965
 32
0.1199999999999974
 13
-0.3799999999999999
 23
0.4599999999999965
 33
0.1399999999999988
  0
3DFACE
  5
1925
  8
TURRET
 10
-0.3800000000000001
 20
-0.4000000000000102
 30
0.259999999999998
 11
-0.3800000000000001
 21
-0.4000000000000102
 31
0.1199999999999974
 12
-0.2800000000000001
 22
-0.4000000000000102
 32
0.1199999999999974
 13
-0.2800000000000001
 23
-0.4000000000000102
 33
0.259999999999998
  0
3DFACE
  5
192A
  8
TURRET
 10
-0.3799999999999999
 20
0.3799999999999946
 30
0.2499999999999982
 11
-0.3799999999999999
 21
0.4599999999999965
 31
0.1399999999999988
 12
-0.3800000000000001
 22
-0.4000000000000102
 32
0.259999999999998
 13
-0.38
 23
-0.390000000000005
 33
0.3899999999999988
  0
3DFACE
  5
192B
  8
TURRET
 10
-0.38
 20
-0.390000000000005
 30
0.3899999999999988
 11
-0.3800000000000001
 21
-0.4000000000000102
 31
0.259999999999998
 12
-0.2800000000000001
 22
-0.4000000000000102
 32
0.259999999999998
 13
-0.28
 23
-0.390000000000005
 33
0.3899999999999988
  0
3DFACE
  5
192C
  8
TURRET
 10
-0.2800000000000001
 20
-0.4000000000000102
 30
0.259999999999998
 11
-0.28
 21
0.4599999999999965
 31
0.1399999999999988
 12
-0.28
 22
0.3799999999999946
 32
0.2499999999999982
 13
-0.28
 23
-0.390000000000005
 33
0.3899999999999988
  0
3DFACE
  5
192D
  8
TURRET
 10
-0.28
 20
0.3799999999999946
 30
0.2499999999999982
 11
-0.28
 21
0.4599999999999965
 31
0.1399999999999988
 12
-0.3799999999999999
 22
0.4599999999999965
 32
0.1399999999999988
 13
-0.3799999999999999
 23
0.3799999999999946
 33
0.2499999999999982
  0
3DFACE
  5
1932
  8
TURRET
 10
-0.28
 20
0.2799999999999949
 30
0.4699999999999989
 11
-0.28
 21
0.3799999999999946
 31
0.2499999999999982
 12
-0.3799999999999999
 22
0.3799999999999946
 32
0.2499999999999982
 13
-0.3799999999999999
 23
0.2799999999999949
 33
0.4699999999999989
  0
3DFACE
  5
1933
  8
TURRET
 10
-0.28
 20
-0.390000000000005
 30
0.3899999999999988
 11
-0.28
 21
0.3799999999999946
 31
0.2499999999999982
 12
-0.28
 22
0.2799999999999949
 32
0.4699999999999989
 13
-0.28
 23
-0.3800000000000052
 33
0.4699999999999989
  0
3DFACE
  5
1934
  8
TURRET
 10
-0.3799999999999999
 20
0.2799999999999949
 30
0.4699999999999989
 11
-0.3799999999999999
 21
0.3799999999999946
 31
0.2499999999999982
 12
-0.38
 22
-0.390000000000005
 32
0.3899999999999988
 13
-0.38
 23
-0.3800000000000052
 33
0.4699999999999989
  0
3DFACE
  5
1935
  8
TURRET
 10
-0.38
 20
-0.3800000000000052
 30
0.4699999999999989
 11
-0.38
 21
-0.390000000000005
 31
0.3899999999999988
 12
-0.28
 22
-0.390000000000005
 32
0.3899999999999988
 13
-0.28
 23
-0.3800000000000052
 33
0.4699999999999989
  0
3DFACE
  5
1938
  8
TURRET
 10
-0.3799999999999999
 20
0.2399999999999958
 30
0.6599999999999984
 11
-0.3799999999999999
 21
0.2799999999999949
 31
0.4699999999999989
 12
-0.38
 22
-0.3800000000000052
 32
0.4699999999999989
 13
-0.38
 23
-0.3500000000000041
 33
0.6599999999999984
  0
3DFACE
  5
1939
  8
TURRET
 10
-0.28
 20
-0.3800000000000052
 30
0.4699999999999989
 11
-0.28
 21
0.2799999999999949
 31
0.4699999999999989
 12
-0.28
 22
0.2399999999999958
 32
0.6599999999999984
 13
-0.28
 23
-0.3500000000000041
 33
0.6599999999999984
  0
3DFACE
  5
193A
  8
TURRET
 10
-0.28
 20
0.2399999999999958
 30
0.6599999999999984
 11
-0.28
 21
0.2799999999999949
 31
0.4699999999999989
 12
-0.3799999999999999
 22
0.2799999999999949
 32
0.4699999999999989
 13
-0.3799999999999999
 23
0.2399999999999958
 33
0.6599999999999984
  0
3DFACE
  5
193B
  8
TURRET
 10
-0.38
 20
-0.3500000000000041
 30
0.6599999999999984
 11
-0.38
 21
-0.3800000000000052
 31
0.4699999999999989
 12
-0.28
 22
-0.3800000000000052
 32
0.4699999999999989
 13
-0.28
 23
-0.3500000000000041
 33
0.6599999999999984
  0
3DFACE
  5
193F
  8
TURRET
 10
-0.38
 20
-0.2800000000000056
 30
0.8499999999999978
 11
-0.38
 21
-0.3500000000000041
 31
0.6599999999999984
 12
-0.28
 22
-0.3500000000000041
 32
0.6599999999999984
 13
-0.28
 23
-0.2800000000000056
 33
0.8499999999999978
  0
3DFACE
  5
1940
  8
TURRET
 10
-0.28
 20
-0.3500000000000041
 30
0.6599999999999984
 11
-0.28
 21
0.2399999999999958
 31
0.6599999999999984
 12
-0.28
 22
0.2099999999999964
 32
0.8499999999999978
 13
-0.28
 23
-0.2800000000000056
 33
0.8499999999999978
  0
3DFACE
  5
1941
  8
TURRET
 10
-0.3799999999999999
 20
0.2099999999999964
 30
0.8499999999999978
 11
-0.3799999999999999
 21
0.2399999999999958
 31
0.6599999999999984
 12
-0.38
 22
-0.3500000000000041
 32
0.6599999999999984
 13
-0.38
 23
-0.2800000000000056
 33
0.8499999999999978
  0
3DFACE
  5
1942
  8
TURRET
 10
-0.28
 20
0.2099999999999964
 30
0.8499999999999978
 11
-0.28
 21
0.2399999999999958
 31
0.6599999999999984
 12
-0.3799999999999999
 22
0.2399999999999958
 32
0.6599999999999984
 13
-0.3799999999999999
 23
0.2099999999999964
 33
0.8499999999999978
  0
3DFACE
  5
1947
  8
TURRET
 10
-0.3799999999999999
 20
0.1999999999999948
 30
1.0399999999999969
 11
-0.3799999999999999
 21
0.2099999999999964
 31
0.8499999999999978
 12
-0.38
 22
-0.2800000000000056
 32
0.8499999999999978
 13
-0.38
 23
-0.1600000000000046
 33
1.0399999999999969
  0
3DFACE
  5
1948
  8
TURRET
 10
-0.28
 20
-0.2800000000000056
 30
0.8499999999999978
 11
-0.28
 21
0.2099999999999964
 31
0.8499999999999978
 12
-0.28
 22
0.1999999999999948
 32
1.0399999999999969
 13
-0.28
 23
-0.1600000000000046
 33
1.0399999999999969
  0
3DFACE
  5
1949
  8
TURRET
 10
-0.28
 20
0.1999999999999948
 30
1.0399999999999969
 11
-0.28
 21
0.2099999999999964
 31
0.8499999999999978
 12
-0.3799999999999999
 22
0.2099999999999964
 32
0.8499999999999978
 13
-0.3799999999999999
 23
0.1999999999999948
 33
1.0399999999999969
  0
3DFACE
  5
194A
  8
TURRET
 10
-0.38
 20
-0.1600000000000046
 30
1.0399999999999969
 11
-0.38
 21
-0.2800000000000056
 31
0.8499999999999978
 12
-0.28
 22
-0.2800000000000056
 32
0.8499999999999978
 13
-0.28
 23
-0.1600000000000046
 33
1.0399999999999969
  0
3DFACE
  5
194D
  8
TURRET
 10
-0.28
 20
-0.1600000000000046
 30
1.0399999999999969
 11
-0.28
 21
0.1999999999999948
 31
1.0399999999999969
 12
-0.28
 22
0.189999999999995
 32
1.229999999999996
 13
-0.28
 23
-0.020000000000004
 33
1.229999999999996
  0
3DFACE
  5
194E
  8
TURRET
 10
-0.3799999999999999
 20
0.189999999999995
 30
1.229999999999996
 11
-0.3799999999999999
 21
0.1999999999999948
 31
1.0399999999999969
 12
-0.38
 22
-0.1600000000000046
 32
1.0399999999999969
 13
-0.38
 23
-0.020000000000004
 33
1.229999999999996
  0
3DFACE
  5
194F
  8
TURRET
 10
-0.28
 20
-0.020000000000004
 30
1.229999999999996
 11
-0.28
 21
0.189999999999995
 31
1.229999999999996
 12
-0.3799999999999999
 22
0.189999999999995
 32
1.229999999999996
 13
-0.38
 23
-0.020000000000004
 33
1.229999999999996
  0
3DFACE
  5
1950
  8
TURRET
 10
-0.28
 20
0.189999999999995
 30
1.229999999999996
 11
-0.28
 21
0.1999999999999948
 31
1.0399999999999969
 12
-0.3799999999999999
 22
0.1999999999999948
 32
1.0399999999999969
 13
-0.3799999999999999
 23
0.189999999999995
 33
1.229999999999996
  0
3DFACE
  5
1951
  8
TURRET
 10
-0.38
 20
-0.020000000000004
 30
1.229999999999996
 11
-0.38
 21
-0.1600000000000046
 31
1.0399999999999969
 12
-0.28
 22
-0.1600000000000046
 32
1.0399999999999969
 13
-0.28
 23
-0.020000000000004
 33
1.229999999999996
  0
3DFACE
  5
195B
  8
TURRET
 10
0.2800000000000001
 20
0.189999999999995
 30
1.229999999999996
 11
0.2800000000000001
 21
0.1999999999999948
 31
1.0399999999999969
 12
0.28
 22
-0.1600000000000046
 32
1.0399999999999969
 13
0.28
 23
-0.020000000000004
 33
1.229999999999996
  0
3DFACE
  5
195C
  8
TURRET
 10
0.3800000000000001
 20
0.189999999999995
 30
1.229999999999996
 11
0.3800000000000001
 21
0.1999999999999948
 31
1.0399999999999969
 12
0.2800000000000001
 22
0.1999999999999948
 32
1.0399999999999969
 13
0.2800000000000001
 23
0.189999999999995
 33
1.229999999999996
  0
3DFACE
  5
195D
  8
TURRET
 10
0.38
 20
-0.1600000000000046
 30
1.0399999999999969
 11
0.3800000000000001
 21
0.1999999999999948
 31
1.0399999999999969
 12
0.3800000000000001
 22
0.189999999999995
 32
1.229999999999996
 13
0.38
 23
-0.020000000000004
 33
1.229999999999996
  0
3DFACE
  5
195E
  8
TURRET
 10
0.28
 20
-0.020000000000004
 30
1.229999999999996
 11
0.28
 21
-0.1600000000000046
 31
1.0399999999999969
 12
0.38
 22
-0.1600000000000046
 32
1.0399999999999969
 13
0.38
 23
-0.020000000000004
 33
1.229999999999996
  0
3DFACE
  5
1960
  8
TURRET
 10
0.2800000000000001
 20
0.1999999999999948
 30
1.0399999999999969
 11
0.2800000000000001
 21
0.2099999999999964
 31
0.8499999999999978
 12
0.28
 22
-0.2800000000000056
 32
0.8499999999999978
 13
0.28
 23
-0.1600000000000046
 33
1.0399999999999969
  0
3DFACE
  5
1962
  8
TURRET
 10
0.3800000000000001
 20
0.1999999999999948
 30
1.0399999999999969
 11
0.3800000000000001
 21
0.2099999999999964
 31
0.8499999999999978
 12
0.2800000000000001
 22
0.2099999999999964
 32
0.8499999999999978
 13
0.2800000000000001
 23
0.1999999999999948
 33
1.0399999999999969
  0
3DFACE
  5
1963
  8
TURRET
 10
0.38
 20
-0.2800000000000056
 30
0.8499999999999978
 11
0.3800000000000001
 21
0.2099999999999964
 31
0.8499999999999978
 12
0.3800000000000001
 22
0.1999999999999948
 32
1.0399999999999969
 13
0.38
 23
-0.1600000000000046
 33
1.0399999999999969
  0
3DFACE
  5
1964
  8
TURRET
 10
0.28
 20
-0.1600000000000046
 30
1.0399999999999969
 11
0.28
 21
-0.2800000000000056
 31
0.8499999999999978
 12
0.38
 22
-0.2800000000000056
 32
0.8499999999999978
 13
0.38
 23
-0.1600000000000046
 33
1.0399999999999969
  0
3DFACE
  5
1966
  8
TURRET
 10
0.2800000000000001
 20
0.2099999999999964
 30
0.8499999999999978
 11
0.2800000000000001
 21
0.2399999999999958
 31
0.6599999999999984
 12
0.28
 22
-0.3500000000000041
 32
0.6599999999999984
 13
0.28
 23
-0.2800000000000056
 33
0.8499999999999978
  0
3DFACE
  5
1968
  8
TURRET
 10
0.28
 20
-0.2800000000000056
 30
0.8499999999999978
 11
0.28
 21
-0.3500000000000041
 31
0.6599999999999984
 12
0.38
 22
-0.3500000000000041
 32
0.6599999999999984
 13
0.38
 23
-0.2800000000000056
 33
0.8499999999999978
  0
3DFACE
  5
1969
  8
TURRET
 10
0.38
 20
-0.3500000000000041
 30
0.6599999999999984
 11
0.3800000000000001
 21
0.2399999999999958
 31
0.6599999999999984
 12
0.3800000000000001
 22
0.2099999999999964
 32
0.8499999999999978
 13
0.38
 23
-0.2800000000000056
 33
0.8499999999999978
  0
3DFACE
  5
196A
  8
TURRET
 10
0.3800000000000001
 20
0.2099999999999964
 30
0.8499999999999978
 11
0.3800000000000001
 21
0.2399999999999958
 31
0.6599999999999984
 12
0.2800000000000001
 22
0.2399999999999958
 32
0.6599999999999984
 13
0.2800000000000001
 23
0.2099999999999964
 33
0.8499999999999978
  0
3DFACE
  5
196C
  8
TURRET
 10
0.2800000000000001
 20
0.2399999999999958
 30
0.6599999999999984
 11
0.2800000000000001
 21
0.2799999999999949
 31
0.4699999999999989
 12
0.28
 22
-0.3800000000000052
 32
0.4699999999999989
 13
0.28
 23
-0.3500000000000041
 33
0.6599999999999984
  0
3DFACE
  5
196D
  8
TURRET
 10
0.3800000000000001
 20
0.2399999999999958
 30
0.6599999999999984
 11
0.3800000000000001
 21
0.2799999999999949
 31
0.4699999999999989
 12
0.2800000000000001
 22
0.2799999999999949
 32
0.4699999999999989
 13
0.2800000000000001
 23
0.2399999999999958
 33
0.6599999999999984
  0
3DFACE
  5
196F
  8
TURRET
 10
0.38
 20
-0.3800000000000052
 30
0.4699999999999989
 11
0.3800000000000001
 21
0.2799999999999949
 31
0.4699999999999989
 12
0.3800000000000001
 22
0.2399999999999958
 32
0.6599999999999984
 13
0.38
 23
-0.3500000000000041
 33
0.6599999999999984
  0
3DFACE
  5
1970
  8
TURRET
 10
0.28
 20
-0.3500000000000041
 30
0.6599999999999984
 11
0.28
 21
-0.3800000000000052
 31
0.4699999999999989
 12
0.38
 22
-0.3800000000000052
 32
0.4699999999999989
 13
0.38
 23
-0.3500000000000041
 33
0.6599999999999984
  0
3DFACE
  5
1972
  8
TURRET
 10
0.2800000000000001
 20
0.2799999999999949
 30
0.4699999999999989
 11
0.2800000000000001
 21
0.3799999999999946
 31
0.2499999999999982
 12
0.28
 22
-0.390000000000005
 32
0.3899999999999988
 13
0.28
 23
-0.3800000000000052
 33
0.4699999999999989
  0
3DFACE
  5
1973
  8
TURRET
 10
0.28
 20
-0.3800000000000052
 30
0.4699999999999989
 11
0.28
 21
-0.390000000000005
 31
0.3899999999999988
 12
0.38
 22
-0.390000000000005
 32
0.3899999999999988
 13
0.38
 23
-0.3800000000000052
 33
0.4699999999999989
  0
3DFACE
  5
1975
  8
TURRET
 10
0.38
 20
-0.390000000000005
 30
0.3899999999999988
 11
0.3800000000000001
 21
0.3799999999999946
 31
0.2499999999999982
 12
0.3800000000000001
 22
0.2799999999999949
 32
0.4699999999999989
 13
0.38
 23
-0.3800000000000052
 33
0.4699999999999989
  0
3DFACE
  5
1976
  8
TURRET
 10
0.3800000000000001
 20
0.2799999999999949
 30
0.4699999999999989
 11
0.3800000000000001
 21
0.3799999999999946
 31
0.2499999999999982
 12
0.2800000000000001
 22
0.3799999999999946
 32
0.2499999999999982
 13
0.2800000000000001
 23
0.2799999999999949
 33
0.4699999999999989
  0
3DFACE
  5
1978
  8
TURRET
 10
0.2800000000000001
 20
0.3799999999999946
 30
0.2499999999999982
 11
0.2800000000000001
 21
0.4599999999999965
 31
0.1399999999999988
 12
0.28
 22
-0.4000000000000102
 32
0.259999999999998
 13
0.28
 23
-0.390000000000005
 33
0.3899999999999988
  0
3DFACE
  5
197A
  8
TURRET
 10
0.28
 20
-0.390000000000005
 30
0.3899999999999988
 11
0.28
 21
-0.4000000000000102
 31
0.259999999999998
 12
0.3799999999999999
 22
-0.4000000000000102
 32
0.259999999999998
 13
0.38
 23
-0.390000000000005
 33
0.3899999999999988
  0
3DFACE
  5
197B
  8
TURRET
 10
0.3799999999999999
 20
-0.4000000000000102
 30
0.259999999999998
 11
0.3800000000000001
 21
0.4599999999999965
 31
0.1399999999999988
 12
0.3800000000000001
 22
0.3799999999999946
 32
0.2499999999999982
 13
0.38
 23
-0.390000000000005
 33
0.3899999999999988
  0
3DFACE
  5
197C
  8
TURRET
 10
0.3800000000000001
 20
0.3799999999999946
 30
0.2499999999999982
 11
0.3800000000000001
 21
0.4599999999999965
 31
0.1399999999999988
 12
0.2800000000000001
 22
0.4599999999999965
 32
0.1399999999999988
 13
0.2800000000000001
 23
0.3799999999999946
 33
0.2499999999999982
  0
3DFACE
  5
197E
  8
TURRET
 10
0.2800000000000001
 20
0.4599999999999965
 30
0.1399999999999988
 11
0.2800000000000001
 21
0.4599999999999965
 31
0.1199999999999974
 12
0.28
 22
-0.4000000000000102
 32
0.1199999999999974
 13
0.28
 23
-0.4000000000000102
 33
0.259999999999998
  0
3DFACE
  5
1980
  8
TURRET
 10
0.28
 20
-0.4000000000000102
 30
0.259999999999998
 11
0.28
 21
-0.4000000000000102
 31
0.1199999999999974
 12
0.3799999999999999
 22
-0.4000000000000102
 32
0.1199999999999974
 13
0.3799999999999999
 23
-0.4000000000000102
 33
0.259999999999998
  0
3DFACE
  5
1981
  8
TURRET
 10
0.3799999999999999
 20
-0.4000000000000102
 30
0.1199999999999974
 11
0.3800000000000001
 21
0.4599999999999965
 31
0.1199999999999974
 12
0.3800000000000001
 22
0.4599999999999965
 32
0.1399999999999988
 13
0.3799999999999999
 23
-0.4000000000000102
 33
0.259999999999998
  0
3DFACE
  5
1982
  8
TURRET
 10
0.38
 20
-0.020000000000004
 30
1.229999999999996
 11
0.3800000000000001
 21
0.189999999999995
 31
1.229999999999996
 12
0.2800000000000001
 22
0.189999999999995
 32
1.229999999999996
 13
0.28
 23
-0.020000000000004
 33
1.229999999999996
  0
3DFACE
  5
1983
  8
TURRET
 10
0.3800000000000001
 20
0.4599999999999965
 30
0.1399999999999988
 11
0.3800000000000001
 21
0.4599999999999965
 31
0.1199999999999974
 12
0.2800000000000001
 22
0.4599999999999965
 32
0.1199999999999974
 13
0.2800000000000001
 23
0.4599999999999965
 33
0.1399999999999988
  0
3DFACE
  5
19E1
  8
TURRET
 10
-0.5700000000000002
 20
-0.3500000000000041
 30
0.5699999999999985
 11
-0.5700000000000001
 21
-0.1000000000000041
 31
0.5699999999999985
 12
-0.5700000000000001
 22
-0.1000000000000041
 32
0.6199999999999976
 13
-0.5700000000000002
 23
-0.3500000000000041
 33
0.6199999999999976
  0
3DFACE
  5
19E2
  8
TURRET
 10
-0.5700000000000001
 20
-0.1000000000000041
 30
0.6199999999999976
 11
-0.5700000000000001
 21
-0.1000000000000041
 31
0.5699999999999985
 12
-0.71
 22
-0.1000000000000041
 32
0.5699999999999985
 13
-0.71
 23
-0.1000000000000041
 33
0.6199999999999976
  0
3DFACE
  5
19E3
  8
TURRET
 10
-0.71
 20
-0.1000000000000041
 30
0.6199999999999976
 11
-0.71
 21
-0.1000000000000041
 31
0.5699999999999985
 12
-0.7100000000000001
 22
-0.3500000000000041
 32
0.5699999999999985
 13
-0.7100000000000001
 23
-0.3500000000000041
 33
0.6199999999999976
  0
3DFACE
  5
19E4
  8
TURRET
 10
-0.7100000000000001
 20
-0.3500000000000041
 30
0.6199999999999976
 11
-0.7100000000000001
 21
-0.3500000000000041
 31
0.5699999999999985
 12
-0.5700000000000002
 22
-0.3500000000000041
 32
0.5699999999999985
 13
-0.5700000000000002
 23
-0.3500000000000041
 33
0.6199999999999976
  0
3DFACE
  5
19E6
  8
TURRET
 10
-0.5700000000000002
 20
-0.3500000000000041
 30
0.6199999999999976
 11
-0.5700000000000001
 21
-0.1000000000000041
 31
0.6199999999999976
 12
-0.71
 22
-0.1000000000000041
 32
0.6199999999999976
 13
-0.7100000000000001
 23
-0.3500000000000041
 33
0.6199999999999976
  0
3DFACE
  5
19FA
  8
TURRET
 10
-0.6400000000000004
 20
-0.1100000000000039
 30
0.6499999999999968
 11
-0.5339339828220185
 21
-0.1539339828220223
 31
0.6499999999999968
 12
-0.5339339828220185
 22
-0.1539339828220223
 32
0.6299999999999973
 13
-0.6400000000000004
 23
-0.1100000000000039
 33
0.6299999999999973
  0
3DFACE
  5
19FB
  8
TURRET
 10
-0.5339339828220185
 20
-0.1539339828220223
 30
0.6499999999999968
 11
-0.4900000000000001
 21
-0.2600000000000042
 31
0.6499999999999986
 12
-0.4900000000000001
 22
-0.2600000000000042
 32
0.6299999999999973
 13
-0.5339339828220185
 23
-0.1539339828220223
 33
0.6299999999999973
  0
3DFACE
  5
19FC
  8
TURRET
 10
-0.4900000000000001
 20
-0.2600000000000042
 30
0.6499999999999986
 11
-0.5339339828220187
 21
-0.3660660171779861
 31
0.6499999999999968
 12
-0.5339339828220187
 22
-0.3660660171779861
 32
0.6299999999999973
 13
-0.4900000000000001
 23
-0.2600000000000042
 33
0.6299999999999973
  0
3DFACE
  5
19FD
  8
TURRET
 10
-0.5339339828220187
 20
-0.3660660171779861
 30
0.6499999999999968
 11
-0.6400000000000005
 21
-0.4100000000000046
 31
0.6499999999999968
 12
-0.6400000000000005
 22
-0.4100000000000046
 32
0.6299999999999973
 13
-0.5339339828220187
 23
-0.3660660171779861
 33
0.6299999999999973
  0
3DFACE
  5
19FE
  8
TURRET
 10
-0.6400000000000005
 20
-0.4100000000000046
 30
0.6499999999999968
 11
-0.7460660171779824
 21
-0.3660660171779861
 31
0.6499999999999968
 12
-0.7460660171779824
 22
-0.3660660171779861
 32
0.6299999999999973
 13
-0.6400000000000005
 23
-0.4100000000000046
 33
0.6299999999999973
  0
3DFACE
  5
19FF
  8
TURRET
 10
-0.7460660171779824
 20
-0.3660660171779861
 30
0.6499999999999968
 11
-0.7900000000000009
 21
-0.2600000000000042
 31
0.6499999999999968
 12
-0.7900000000000009
 22
-0.2600000000000042
 32
0.6299999999999973
 13
-0.7460660171779824
 23
-0.3660660171779861
 33
0.6299999999999973
  0
3DFACE
  5
1A00
  8
TURRET
 10
-0.7900000000000009
 20
-0.2600000000000042
 30
0.6499999999999968
 11
-0.7460660171779823
 21
-0.1539339828220223
 31
0.6499999999999968
 12
-0.7460660171779823
 22
-0.1539339828220223
 32
0.6299999999999973
 13
-0.7900000000000009
 23
-0.2600000000000042
 33
0.6299999999999973
  0
3DFACE
  5
1A01
  8
TURRET
 10
-0.7460660171779823
 20
-0.1539339828220223
 30
0.6499999999999968
 11
-0.6400000000000004
 21
-0.1100000000000039
 31
0.6499999999999968
 12
-0.6400000000000004
 22
-0.1100000000000039
 32
0.6299999999999973
 13
-0.7460660171779823
 23
-0.1539339828220223
 33
0.6299999999999973
  0
3DFACE
  5
1A02
  8
TURRET
 10
-0.4100000000000001
 20
-0.0900000000000043
 30
0.7399999999999986
 11
-0.4100000000000001
 21
-0.1339339828220227
 31
0.8460660171779803
 12
-0.39
 22
-0.1339339828220227
 32
0.8460660171779803
 13
-0.39
 23
-0.0900000000000043
 33
0.7399999999999986
  0
3DFACE
  5
1A03
  8
TURRET
 10
-0.4100000000000001
 20
-0.1339339828220227
 30
0.8460660171779803
 11
-0.4100000000000001
 21
-0.2400000000000046
 31
0.8899999999999987
 12
-0.39
 22
-0.2400000000000046
 32
0.8899999999999987
 13
-0.39
 23
-0.1339339828220227
 33
0.8460660171779803
  0
3DFACE
  5
1A04
  8
TURRET
 10
-0.4100000000000001
 20
-0.2400000000000046
 30
0.8899999999999987
 11
-0.4100000000000001
 21
-0.3460660171779866
 31
0.8460660171779803
 12
-0.39
 22
-0.3460660171779866
 32
0.8460660171779803
 13
-0.39
 23
-0.2400000000000046
 33
0.8899999999999987
  0
3DFACE
  5
1A05
  8
TURRET
 10
-0.4100000000000001
 20
-0.3460660171779866
 30
0.8460660171779803
 11
-0.4100000000000001
 21
-0.390000000000005
 31
0.7399999999999986
 12
-0.39
 22
-0.390000000000005
 32
0.7399999999999986
 13
-0.39
 23
-0.3460660171779866
 33
0.8460660171779803
  0
3DFACE
  5
1A06
  8
TURRET
 10
-0.4100000000000001
 20
-0.390000000000005
 30
0.7399999999999986
 11
-0.4100000000000001
 21
-0.3460660171779866
 31
0.6339339828220166
 12
-0.39
 22
-0.3460660171779866
 32
0.6339339828220166
 13
-0.39
 23
-0.390000000000005
 33
0.7399999999999986
  0
3DFACE
  5
1A07
  8
TURRET
 10
-0.4100000000000001
 20
-0.3460660171779866
 30
0.6339339828220166
 11
-0.4100000000000001
 21
-0.2400000000000046
 31
0.5899999999999981
 12
-0.39
 22
-0.2400000000000046
 32
0.5899999999999981
 13
-0.39
 23
-0.3460660171779866
 33
0.6339339828220166
  0
3DFACE
  5
1A08
  8
TURRET
 10
-0.4100000000000001
 20
-0.2400000000000046
 30
0.5899999999999981
 11
-0.4100000000000001
 21
-0.1339339828220227
 31
0.6339339828220166
 12
-0.39
 22
-0.1339339828220227
 32
0.6339339828220166
 13
-0.39
 23
-0.2400000000000046
 33
0.5899999999999981
  0
3DFACE
  5
1A09
  8
TURRET
 10
-0.4100000000000001
 20
-0.1339339828220227
 30
0.6339339828220166
 11
-0.4100000000000001
 21
-0.0900000000000043
 31
0.7399999999999986
 12
-0.39
 22
-0.0900000000000043
 32
0.7399999999999986
 13
-0.39
 23
-0.1339339828220227
 33
0.6339339828220166
  0
3DFACE
  5
1A16
  8
TURRET
 10
-0.47
 20
-0.0000000000000044
 30
-0.0000000000000018
 11
-0.4070319397786862
 21
-0.2350000000000039
 31
-0.0000000000000018
 12
-0.4070319397786862
 22
-0.2350000000000039
 32
0.1199999999999974
 13
-0.47
 23
-0.0000000000000044
 33
0.1199999999999974
  0
3DFACE
  5
1A17
  8
TURRET
 10
-0.4070319397786862
 20
-0.2350000000000039
 30
-0.0000000000000018
 11
-0.2350000000000001
 21
-0.4070319397786913
 31
-0.0000000000000018
 12
-0.2350000000000001
 22
-0.4070319397786913
 32
0.1199999999999974
 13
-0.4070319397786862
 23
-0.2350000000000039
 33
0.1199999999999974
  0
3DFACE
  5
1A18
  8
TURRET
 10
-0.2350000000000001
 20
-0.4070319397786913
 30
-0.0000000000000018
 11
-0.0000000000000001
 21
-0.4700000000000033
 31
-0.0000000000000018
 12
-0.0000000000000001
 22
-0.4700000000000033
 32
0.1199999999999974
 13
-0.2350000000000001
 23
-0.4070319397786913
 33
0.1199999999999974
  0
3DFACE
  5
1A19
  8
TURRET
 10
-0.0000000000000001
 20
-0.4700000000000033
 30
-0.0000000000000018
 11
0.2349999999999998
 21
-0.4070319397786913
 31
-0.0000000000000018
 12
0.2349999999999998
 22
-0.4070319397786913
 32
0.1199999999999974
 13
-0.0000000000000001
 23
-0.4700000000000033
 33
0.1199999999999974
  0
3DFACE
  5
1A1A
  8
TURRET
 10
0.2349999999999998
 20
-0.4070319397786913
 30
-0.0000000000000018
 11
0.4070319397786861
 21
-0.2350000000000039
 31
-0.0000000000000018
 12
0.4070319397786861
 22
-0.2350000000000039
 32
0.1199999999999974
 13
0.2349999999999998
 23
-0.4070319397786913
 33
0.1199999999999974
  0
3DFACE
  5
1A1B
  8
TURRET
 10
0.4070319397786861
 20
-0.2350000000000039
 30
-0.0000000000000018
 11
0.47
 21
-0.0000000000000044
 31
-0.0000000000000018
 12
0.47
 22
-0.0000000000000044
 32
0.1199999999999974
 13
0.4070319397786861
 23
-0.2350000000000039
 33
0.1199999999999974
  0
3DFACE
  5
1A1C
  8
TURRET
 10
0.47
 20
-0.0000000000000044
 30
-0.0000000000000018
 11
0.4070319397786864
 21
0.234999999999995
 31
-0.0000000000000018
 12
0.4070319397786864
 22
0.234999999999995
 32
0.1199999999999974
 13
0.47
 23
-0.0000000000000044
 33
0.1199999999999974
  0
3DFACE
  5
1A1D
  8
TURRET
 10
0.4070319397786864
 20
0.234999999999995
 30
-0.0000000000000018
 11
0.2350000000000002
 21
0.4070319397786824
 31
-0.0000000000000018
 12
0.2350000000000002
 22
0.4070319397786824
 32
0.1199999999999974
 13
0.4070319397786864
 23
0.234999999999995
 33
0.1199999999999974
  0
3DFACE
  5
1A1E
  8
TURRET
 10
0.2350000000000002
 20
0.4070319397786824
 30
-0.0000000000000018
 11
0.0000000000000001
 21
0.4699999999999945
 31
-0.0000000000000018
 12
0.0000000000000001
 22
0.4699999999999945
 32
0.1199999999999974
 13
0.2350000000000002
 23
0.4070319397786824
 33
0.1199999999999974
  0
3DFACE
  5
1A1F
  8
TURRET
 10
0.0000000000000001
 20
0.4699999999999945
 30
-0.0000000000000018
 11
-0.235
 21
0.4070319397786824
 31
-0.0000000000000018
 12
-0.235
 22
0.4070319397786824
 32
0.1199999999999974
 13
0.0000000000000001
 23
0.4699999999999945
 33
0.1199999999999974
  0
3DFACE
  5
1A20
  8
TURRET
 10
-0.235
 20
0.4070319397786824
 30
-0.0000000000000018
 11
-0.4070319397786862
 21
0.234999999999995
 31
-0.0000000000000018
 12
-0.4070319397786862
 22
0.234999999999995
 32
0.1199999999999974
 13
-0.235
 23
0.4070319397786824
 33
0.1199999999999974
  0
3DFACE
  5
1A21
  8
TURRET
 10
-0.4070319397786862
 20
0.234999999999995
 30
-0.0000000000000018
 11
-0.47
 21
-0.0000000000000044
 31
-0.0000000000000018
 12
-0.47
 22
-0.0000000000000044
 32
0.1199999999999974
 13
-0.4070319397786862
 23
0.234999999999995
 33
0.1199999999999974
  0
3DFACE
  5
1A22
  8
TURRET
 10
-0.72
 20
-0.1700000000000044
 30
-0.0000000000000018
 11
-0.696568542494924
 21
-0.2265685424949284
 31
-0.0000000000000018
 12
-0.696568542494924
 22
-0.2265685424949284
 32
0.1299999999999972
 13
-0.72
 23
-0.1700000000000044
 33
0.1299999999999972
  0
3DFACE
  5
1A23
  8
TURRET
 10
-0.696568542494924
 20
-0.2265685424949284
 30
-0.0000000000000018
 11
-0.6400000000000002
 21
-0.2500000000000044
 31
-0.0000000000000018
 12
-0.6400000000000002
 22
-0.2500000000000044
 32
0.1299999999999972
 13
-0.696568542494924
 23
-0.2265685424949284
 33
0.1299999999999972
  0
3DFACE
  5
1A24
  8
TURRET
 10
-0.6400000000000002
 20
-0.2500000000000044
 30
-0.0000000000000018
 11
-0.5834314575050764
 21
-0.2265685424949284
 31
-0.0000000000000018
 12
-0.5834314575050764
 22
-0.2265685424949284
 32
0.1299999999999972
 13
-0.6400000000000002
 23
-0.2500000000000044
 33
0.1299999999999972
  0
3DFACE
  5
1A25
  8
TURRET
 10
-0.5834314575050764
 20
-0.2265685424949284
 30
-0.0000000000000018
 11
-0.5600000000000001
 21
-0.1700000000000044
 31
-0.0000000000000018
 12
-0.5600000000000001
 22
-0.1700000000000044
 32
0.1299999999999972
 13
-0.5834314575050764
 23
-0.2265685424949284
 33
0.1299999999999972
  0
3DFACE
  5
1A26
  8
TURRET
 10
-0.5600000000000001
 20
-0.1700000000000044
 30
-0.0000000000000018
 11
-0.5834314575050762
 21
-0.1134314575050803
 31
-0.0000000000000018
 12
-0.5834314575050762
 22
-0.1134314575050803
 32
0.1299999999999972
 13
-0.5600000000000001
 23
-0.1700000000000044
 33
0.1299999999999972
  0
3DFACE
  5
1A27
  8
TURRET
 10
-0.5834314575050762
 20
-0.1134314575050803
 30
-0.0000000000000018
 11
-0.6400000000000001
 21
-0.0900000000000043
 31
-0.0000000000000018
 12
-0.6400000000000001
 22
-0.0900000000000043
 32
0.1299999999999972
 13
-0.5834314575050762
 23
-0.1134314575050803
 33
0.1299999999999972
  0
3DFACE
  5
1A28
  8
TURRET
 10
-0.6400000000000001
 20
-0.0900000000000043
 30
-0.0000000000000018
 11
-0.696568542494924
 21
-0.1134314575050803
 31
-0.0000000000000018
 12
-0.696568542494924
 22
-0.1134314575050803
 32
0.1299999999999972
 13
-0.6400000000000001
 23
-0.0900000000000043
 33
0.1299999999999972
  0
3DFACE
  5
1A29
  8
TURRET
 10
-0.696568542494924
 20
-0.1134314575050803
 30
-0.0000000000000018
 11
-0.72
 21
-0.1700000000000044
 31
-0.0000000000000018
 12
-0.72
 22
-0.1700000000000044
 32
0.1299999999999972
 13
-0.696568542494924
 23
-0.1134314575050803
 33
0.1299999999999972
  0
3DFACE
  5
1A2A
  8
TURRET
 10
-0.7
 20
-0.1700000000000044
 30
0.1599999999999984
 11
-0.6824264068711931
 21
-0.2124264068711978
 31
0.1599999999999984
 12
-0.6753553390593277
 22
-0.2053553390593317
 32
0.5699999999999985
 13
-0.6900000000000001
 23
-0.1700000000000044
 33
0.5699999999999985
  0
3DFACE
  5
1A2B
  8
TURRET
 10
-0.6824264068711931
 20
-0.2124264068711978
 30
0.1599999999999984
 11
-0.6400000000000002
 21
-0.2300000000000049
 31
0.1599999999999984
 12
-0.6400000000000002
 22
-0.2200000000000051
 32
0.5699999999999985
 13
-0.6753553390593277
 23
-0.2053553390593317
 33
0.5699999999999985
  0
3DFACE
  5
1A2C
  8
TURRET
 10
-0.6400000000000002
 20
-0.2300000000000049
 30
0.1599999999999984
 11
-0.5975735931288073
 21
-0.2124264068711978
 31
0.1599999999999984
 12
-0.6046446609406728
 22
-0.2053553390593317
 32
0.5699999999999985
 13
-0.6400000000000002
 23
-0.2200000000000051
 33
0.5699999999999985
  0
3DFACE
  5
1A2D
  8
TURRET
 10
-0.5975735931288073
 20
-0.2124264068711978
 30
0.1599999999999984
 11
-0.5800000000000001
 21
-0.1700000000000044
 31
0.1599999999999984
 12
-0.59
 22
-0.1700000000000044
 32
0.5699999999999985
 13
-0.6046446609406728
 23
-0.2053553390593317
 33
0.5699999999999985
  0
3DFACE
  5
1A2E
  8
TURRET
 10
-0.5800000000000001
 20
-0.1700000000000044
 30
0.1599999999999984
 11
-0.5975735931288072
 21
-0.1275735931288127
 31
0.1599999999999984
 12
-0.6046446609406726
 22
-0.1346446609406771
 32
0.5699999999999985
 13
-0.59
 23
-0.1700000000000044
 33
0.5699999999999985
  0
3DFACE
  5
1A2F
  8
TURRET
 10
-0.5975735931288072
 20
-0.1275735931288127
 30
0.1599999999999984
 11
-0.6400000000000001
 21
-0.1100000000000039
 31
0.1599999999999984
 12
-0.6400000000000001
 22
-0.1200000000000054
 32
0.5699999999999985
 13
-0.6046446609406726
 23
-0.1346446609406771
 33
0.5699999999999985
  0
3DFACE
  5
1A30
  8
TURRET
 10
-0.6400000000000001
 20
-0.1100000000000039
 30
0.1599999999999984
 11
-0.6824264068711928
 21
-0.1275735931288127
 31
0.1599999999999984
 12
-0.6753553390593275
 22
-0.1346446609406771
 32
0.5699999999999985
 13
-0.6400000000000001
 23
-0.1200000000000054
 33
0.5699999999999985
  0
3DFACE
  5
1A31
  8
TURRET
 10
-0.6824264068711928
 20
-0.1275735931288127
 30
0.1599999999999984
 11
-0.7
 21
-0.1700000000000044
 31
0.1599999999999984
 12
-0.6900000000000001
 22
-0.1700000000000044
 32
0.5699999999999985
 13
-0.6753553390593275
 23
-0.1346446609406771
 33
0.5699999999999985
  0
3DFACE
  5
1A32
  8
TURRET
 10
-0.72
 20
-0.1700000000000044
 30
0.1299999999999972
 11
-0.696568542494924
 21
-0.2265685424949284
 31
0.1299999999999972
 12
-0.6824264068711931
 22
-0.2124264068711978
 32
0.1599999999999984
 13
-0.7
 23
-0.1700000000000044
 33
0.1599999999999984
  0
3DFACE
  5
1A33
  8
TURRET
 10
-0.696568542494924
 20
-0.2265685424949284
 30
0.1299999999999972
 11
-0.6400000000000002
 21
-0.2500000000000044
 31
0.1299999999999972
 12
-0.6400000000000002
 22
-0.2300000000000049
 32
0.1599999999999984
 13
-0.6824264068711931
 23
-0.2124264068711978
 33
0.1599999999999984
  0
3DFACE
  5
1A34
  8
TURRET
 10
-0.6400000000000002
 20
-0.2500000000000044
 30
0.1299999999999972
 11
-0.5834314575050764
 21
-0.2265685424949284
 31
0.1299999999999972
 12
-0.5975735931288073
 22
-0.2124264068711978
 32
0.1599999999999984
 13
-0.6400000000000002
 23
-0.2300000000000049
 33
0.1599999999999984
  0
3DFACE
  5
1A35
  8
TURRET
 10
-0.5834314575050764
 20
-0.2265685424949284
 30
0.1299999999999972
 11
-0.5600000000000001
 21
-0.1700000000000044
 31
0.1299999999999972
 12
-0.5800000000000001
 22
-0.1700000000000044
 32
0.1599999999999984
 13
-0.5975735931288073
 23
-0.2124264068711978
 33
0.1599999999999984
  0
3DFACE
  5
1A36
  8
TURRET
 10
-0.5600000000000001
 20
-0.1700000000000044
 30
0.1299999999999972
 11
-0.5834314575050762
 21
-0.1134314575050803
 31
0.1299999999999972
 12
-0.5975735931288072
 22
-0.1275735931288127
 32
0.1599999999999984
 13
-0.5800000000000001
 23
-0.1700000000000044
 33
0.1599999999999984
  0
3DFACE
  5
1A37
  8
TURRET
 10
-0.5834314575050762
 20
-0.1134314575050803
 30
0.1299999999999972
 11
-0.6400000000000001
 21
-0.0900000000000043
 31
0.1299999999999972
 12
-0.6400000000000001
 22
-0.1100000000000039
 32
0.1599999999999984
 13
-0.5975735931288072
 23
-0.1275735931288127
 33
0.1599999999999984
  0
3DFACE
  5
1A38
  8
TURRET
 10
-0.6400000000000001
 20
-0.0900000000000043
 30
0.1299999999999972
 11
-0.696568542494924
 21
-0.1134314575050803
 31
0.1299999999999972
 12
-0.6824264068711928
 22
-0.1275735931288127
 32
0.1599999999999984
 13
-0.6400000000000001
 23
-0.1100000000000039
 33
0.1599999999999984
  0
3DFACE
  5
1A39
  8
TURRET
 10
-0.696568542494924
 20
-0.1134314575050803
 30
0.1299999999999972
 11
-0.72
 21
-0.1700000000000044
 31
0.1299999999999972
 12
-0.7
 22
-0.1700000000000044
 32
0.1599999999999984
 13
-0.6824264068711928
 23
-0.1275735931288127
 33
0.1599999999999984
  0
3DFACE
  5
1A3A
  8
TURRET
 10
-0.4900000000000001
 20
-0.2600000000000042
 30
0.6499999999999986
 11
-0.7460660171779824
 21
-0.3660660171779861
 31
0.6499999999999968
 12
-0.6400000000000005
 22
-0.4100000000000046
 32
0.6499999999999968
 13
-0.5339339828220187
 23
-0.3660660171779861
 33
0.6499999999999968
  0
3DFACE
  5
1A3B
  8
TURRET
 10
-0.5339339828220185
 20
-0.1539339828220223
 30
0.6499999999999968
 11
-0.7900000000000009
 21
-0.2600000000000042
 31
0.6499999999999968
 12
-0.7460660171779824
 22
-0.3660660171779861
 32
0.6499999999999968
 13
-0.4900000000000001
 23
-0.2600000000000042
 33
0.6499999999999986
  0
3DFACE
  5
1A3C
  8
TURRET
 10
-0.6400000000000004
 20
-0.1100000000000039
 30
0.6499999999999968
 11
-0.7460660171779823
 21
-0.1539339828220223
 31
0.6499999999999968
 12
-0.7900000000000009
 22
-0.2600000000000042
 32
0.6499999999999968
 13
-0.5339339828220185
 23
-0.1539339828220223
 33
0.6499999999999986
  0
3DFACE
  5
1A3D
  8
TURRET
 10
-0.0000000000000001
 20
-0.4700000000000033
 30
0.1199999999999974
 11
0.2349999999999998
 21
-0.4070319397786913
 31
0.1199999999999974
 12
0.4070319397786861
 22
-0.2350000000000039
 32
0.1199999999999974
 13
-0.2350000000000001
 23
-0.4070319397786913
 33
0.1199999999999974
  0
3DFACE
  5
1A3E
  8
TURRET
 10
-0.2350000000000001
 20
-0.4070319397786913
 30
0.1199999999999974
 11
0.4070319397786861
 21
-0.2350000000000039
 31
0.1199999999999974
 12
0.47
 22
-0.0000000000000044
 32
0.1199999999999974
 13
-0.4070319397786862
 23
-0.2350000000000039
 33
0.1199999999999974
  0
3DFACE
  5
1A3F
  8
TURRET
 10
-0.4070319397786861
 20
-0.2350000000000039
 30
0.1199999999999974
 11
0.47
 21
-0.0000000000000044
 31
0.1199999999999974
 12
0.4070319397786864
 22
0.234999999999995
 32
0.1199999999999974
 13
-0.47
 23
-0.0000000000000044
 33
0.1199999999999974
  0
3DFACE
  5
1A40
  8
TURRET
 10
-0.47
 20
-0.0000000000000044
 30
0.1199999999999974
 11
0.4070319397786862
 21
0.234999999999995
 31
0.1199999999999974
 12
0.2350000000000002
 22
0.4070319397786824
 32
0.1199999999999974
 13
-0.4070319397786862
 23
0.234999999999995
 33
0.1199999999999974
  0
3DFACE
  5
1A41
  8
TURRET
 10
-0.4070319397786863
 20
0.234999999999995
 30
0.1199999999999974
 11
0.235
 21
0.4070319397786806
 31
0.1199999999999974
 12
0.0000000000000001
 22
0.4699999999999945
 32
0.1199999999999974
 13
-0.2349999999999999
 23
0.4070319397786824
 33
0.1199999999999974
  0
3DFACE
  5
1A42
  8
TURRET
 10
-0.4100000000000001
 20
-0.1339339828220227
 30
0.8460660171779803
 11
-0.4100000000000001
 21
-0.390000000000005
 31
0.7399999999999986
 12
-0.4100000000000001
 22
-0.3460660171779866
 32
0.8460660171779803
 13
-0.4100000000000001
 23
-0.2400000000000046
 33
0.8899999999999987
  0
3DFACE
  5
1A43
  8
TURRET
 10
-0.4100000000000001
 20
-0.0900000000000043
 30
0.7399999999999986
 11
-0.4100000000000001
 21
-0.3460660171779866
 31
0.6339339828220166
 12
-0.4100000000000001
 22
-0.390000000000005
 32
0.7399999999999986
 13
-0.4100000000000001
 23
-0.1339339828220227
 33
0.8460660171779803
  0
3DFACE
  5
1A44
  8
TURRET
 10
-0.4100000000000001
 20
-0.1339339828220227
 30
0.6339339828220166
 11
-0.4100000000000001
 21
-0.2400000000000046
 31
0.5899999999999981
 12
-0.4100000000000001
 22
-0.3460660171779866
 32
0.6339339828220166
 13
-0.4100000000000001
 23
-0.0900000000000043
 33
0.7399999999999986
  0
3DFACE
  5
1A45
  8
TURRET
 10
-0.39
 20
-0.1339339828220227
 30
0.8460660171779803
 11
-0.3900000000000001
 21
-0.2400000000000046
 31
0.8899999999999987
 12
-0.39
 22
-0.3460660171779866
 32
0.8460660171779803
 13
-0.39
 23
-0.0900000000000043
 33
0.7399999999999986
  0
3DFACE
  5
1A46
  8
TURRET
 10
-0.39
 20
-0.0900000000000043
 30
0.7399999999999986
 11
-0.39
 21
-0.3460660171779866
 31
0.8460660171779803
 12
-0.39
 22
-0.390000000000005
 32
0.7399999999999986
 13
-0.39
 23
-0.1339339828220227
 33
0.6339339828220166
  0
3DFACE
  5
1A47
  8
TURRET
 10
-0.39
 20
-0.1339339828220227
 30
0.6339339828220166
 11
-0.39
 21
-0.390000000000005
 31
0.7399999999999986
 12
-0.39
 22
-0.3460660171779866
 32
0.6339339828220166
 13
-0.39
 23
-0.2400000000000046
 33
0.5899999999999981
  0
3DFACE
  5
1A54
  8
TURRET
 10
-0.6600000000000003
 20
-0.390000000000005
 30
0.6499999999999986
 11
-0.6400000000000002
 21
-0.4100000000000046
 31
0.6499999999999986
 12
-0.6400000000000002
 22
-0.4100000000000046
 32
0.7299999999999987
 13
-0.6600000000000003
 23
-0.390000000000005
 33
0.7299999999999987
  0
3DFACE
  5
1A55
  8
TURRET
 10
-0.6400000000000002
 20
-0.4100000000000046
 30
0.6499999999999986
 11
-0.6200000000000001
 21
-0.390000000000005
 31
0.6499999999999986
 12
-0.6200000000000001
 22
-0.390000000000005
 32
0.7299999999999987
 13
-0.6400000000000002
 23
-0.4100000000000046
 33
0.7299999999999987
  0
3DFACE
  5
1A56
  8
TURRET
 10
-0.6200000000000001
 20
-0.390000000000005
 30
0.6499999999999986
 11
-0.6400000000000002
 21
-0.3700000000000054
 31
0.6499999999999986
 12
-0.6400000000000002
 22
-0.3700000000000054
 32
0.7299999999999987
 13
-0.6200000000000001
 23
-0.390000000000005
 33
0.7299999999999987
  0
3DFACE
  5
1A57
  8
TURRET
 10
-0.6400000000000002
 20
-0.3700000000000054
 30
0.6499999999999986
 11
-0.6600000000000003
 21
-0.390000000000005
 31
0.6499999999999986
 12
-0.6600000000000003
 22
-0.390000000000005
 32
0.7299999999999987
 13
-0.6400000000000002
 23
-0.3700000000000054
 33
0.7299999999999987
  0
3DFACE
  5
1A58
  8
TURRET
 10
-0.6400000000000002
 20
-0.4100000000000046
 30
0.7299999999999987
 11
-0.6200000000000001
 21
-0.390000000000005
 31
0.7299999999999987
 12
-0.6400000000000002
 22
-0.3700000000000054
 32
0.7299999999999987
 13
-0.6600000000000003
 23
-0.390000000000005
 33
0.7299999999999987
  0
3DFACE
  5
1A59
  8
TURRET
 10
-0.4899999999999989
 20
-0.3700000000000054
 30
0.7199999999999989
 11
-0.4899999999999989
 21
-0.390000000000005
 31
0.7399999999999986
 12
-0.4899999999999989
 22
-0.3700000000000054
 32
0.759999999999998
 13
-0.4899999999999989
 23
-0.3500000000000041
 33
0.7399999999999986
  0
3DFACE
  5
1A5A
  8
TURRET
 10
-0.4099999999999988
 20
-0.3700000000000054
 30
0.759999999999998
 11
-0.4099999999999988
 21
-0.3500000000000041
 31
0.7399999999999986
 12
-0.4899999999999989
 22
-0.3500000000000041
 32
0.7399999999999986
 13
-0.4899999999999989
 23
-0.3700000000000054
 33
0.759999999999998
  0
3DFACE
  5
1A5B
  8
TURRET
 10
-0.4099999999999988
 20
-0.390000000000005
 30
0.7399999999999986
 11
-0.4099999999999988
 21
-0.3700000000000054
 31
0.759999999999998
 12
-0.4899999999999989
 22
-0.3700000000000054
 32
0.759999999999998
 13
-0.4899999999999989
 23
-0.390000000000005
 33
0.7399999999999986
  0
3DFACE
  5
1A5C
  8
TURRET
 10
-0.4099999999999988
 20
-0.3700000000000054
 30
0.7199999999999989
 11
-0.4099999999999988
 21
-0.390000000000005
 31
0.7399999999999986
 12
-0.4899999999999989
 22
-0.390000000000005
 32
0.7399999999999986
 13
-0.4899999999999989
 23
-0.3700000000000054
 33
0.7199999999999989
  0
3DFACE
  5
1A5D
  8
TURRET
 10
-0.4099999999999988
 20
-0.3500000000000041
 30
0.7399999999999986
 11
-0.4099999999999988
 21
-0.3700000000000054
 31
0.7199999999999989
 12
-0.4899999999999989
 22
-0.3700000000000054
 32
0.7199999999999989
 13
-0.4899999999999989
 23
-0.3500000000000041
 33
0.7399999999999986
  0
3DFACE
  5
1A82
  8
TURRET
 10
-0.6700000000000002
 20
0.1499999999999959
 30
0.3999999999999968
 11
-0.6700000000000002
 21
0.1499999999999959
 31
0.3499999999999979
 12
-0.6700000000000002
 22
0.0699999999999959
 32
0.3499999999999979
 13
-0.6700000000000002
 23
0.0699999999999959
 33
0.3999999999999968
  0
3DFACE
  5
1A83
  8
TURRET
 10
-0.61
 20
0.1499999999999959
 30
0.3999999999999968
 11
-0.61
 21
0.1499999999999959
 31
0.3499999999999979
 12
-0.6700000000000002
 22
0.1499999999999959
 32
0.3499999999999979
 13
-0.6700000000000002
 23
0.1499999999999959
 33
0.3999999999999968
  0
3DFACE
  5
1A85
  8
TURRET
 10
-0.61
 20
0.0699999999999959
 30
0.3499999999999979
 11
-0.61
 21
0.1499999999999959
 31
0.3499999999999979
 12
-0.61
 22
0.1499999999999959
 32
0.3999999999999968
 13
-0.61
 23
0.0699999999999959
 33
0.3999999999999968
  0
3DFACE
  5
1A86
  8
TURRET
 10
-0.6700000000000002
 20
0.0699999999999959
 30
0.3499999999999979
 11
-0.6700000000000002
 21
0.1499999999999959
 31
0.3499999999999979
 12
-0.61
 22
0.1499999999999959
 32
0.3499999999999979
 13
-0.61
 23
0.0699999999999959
 33
0.3499999999999979
  0
3DFACE
  5
1A87
  8
TURRET
 10
-0.61
 20
0.0699999999999959
 30
0.3999999999999968
 11
-0.61
 21
0.1499999999999959
 31
0.3999999999999968
 12
-0.6700000000000002
 22
0.1499999999999959
 32
0.3999999999999968
 13
-0.6700000000000002
 23
0.0699999999999959
 33
0.3999999999999968
  0
3DFACE
  5
1A89
  8
TURRET
 10
-0.6700000000000002
 20
0.0699999999999959
 30
0.4199999999999982
 11
-0.6700000000000002
 21
0.0699999999999959
 31
0.3399999999999981
 12
-0.6700000000000002
 22
-0.1300000000000052
 32
0.2099999999999973
 13
-0.6700000000000002
 23
-0.1300000000000052
 33
0.4199999999999982
  0
3DFACE
  5
1A8A
  8
TURRET
 10
-0.61
 20
0.0699999999999959
 30
0.4199999999999982
 11
-0.61
 21
0.0699999999999959
 31
0.3399999999999981
 12
-0.6700000000000002
 22
0.0699999999999959
 32
0.3399999999999981
 13
-0.6700000000000002
 23
0.0699999999999959
 33
0.4199999999999982
  0
3DFACE
  5
1A8C
  8
TURRET
 10
-0.61
 20
-0.1300000000000052
 30
0.2099999999999973
 11
-0.61
 21
0.0699999999999959
 31
0.3399999999999981
 12
-0.61
 22
0.0699999999999959
 32
0.4199999999999982
 13
-0.61
 23
-0.1300000000000052
 33
0.4199999999999982
  0
3DFACE
  5
1A8D
  8
TURRET
 10
-0.6700000000000002
 20
-0.1300000000000052
 30
0.2099999999999973
 11
-0.6700000000000002
 21
0.0699999999999959
 31
0.3399999999999981
 12
-0.61
 22
0.0699999999999959
 32
0.3399999999999981
 13
-0.61
 23
-0.1300000000000052
 33
0.2099999999999973
  0
3DFACE
  5
1A8E
  8
TURRET
 10
-0.61
 20
-0.1300000000000052
 30
0.4199999999999982
 11
-0.61
 21
0.0699999999999959
 31
0.4199999999999982
 12
-0.6700000000000002
 22
0.0699999999999959
 32
0.4199999999999982
 13
-0.6700000000000002
 23
-0.1300000000000052
 33
0.4199999999999982
  0
3DFACE
  5
1A90
  8
TURRET
 10
-0.7900000000000002
 20
0.1199999999999948
 30
0.4599999999999973
 11
-0.7460660171779822
 21
0.0139339828220129
 31
0.4599999999999973
 12
-0.7460660171779822
 22
0.0139339828220129
 32
0.4899999999999985
 13
-0.7900000000000002
 23
0.1199999999999948
 33
0.4899999999999985
  0
3DFACE
  5
1A91
  8
TURRET
 10
-0.7460660171779822
 20
0.0139339828220129
 30
0.4599999999999973
 11
-0.6400000000000001
 21
-0.0300000000000056
 31
0.4599999999999973
 12
-0.6400000000000001
 22
-0.0300000000000056
 32
0.4899999999999985
 13
-0.7460660171779822
 23
0.0139339828220129
 33
0.4899999999999985
  0
3DFACE
  5
1A92
  8
TURRET
 10
-0.6400000000000001
 20
-0.0300000000000056
 30
0.4599999999999973
 11
-0.5339339828220179
 21
0.0139339828220129
 31
0.4599999999999973
 12
-0.5339339828220179
 22
0.0139339828220129
 32
0.4899999999999985
 13
-0.6400000000000001
 23
-0.0300000000000056
 33
0.4899999999999985
  0
3DFACE
  5
1A93
  8
TURRET
 10
-0.5339339828220179
 20
0.0139339828220129
 30
0.4599999999999973
 11
-0.49
 21
0.1199999999999948
 31
0.4599999999999973
 12
-0.49
 22
0.1199999999999948
 32
0.4899999999999985
 13
-0.5339339828220179
 23
0.0139339828220129
 33
0.4899999999999985
  0
3DFACE
  5
1A94
  8
TURRET
 10
-0.49
 20
0.1199999999999948
 30
0.4599999999999973
 11
-0.5339339828220179
 21
0.2260660171779767
 31
0.4599999999999973
 12
-0.5339339828220179
 22
0.2260660171779767
 32
0.4899999999999985
 13
-0.49
 23
0.1199999999999948
 33
0.4899999999999985
  0
3DFACE
  5
1A95
  8
TURRET
 10
-0.5339339828220179
 20
0.2260660171779767
 30
0.4599999999999973
 11
-0.6400000000000001
 21
0.2699999999999951
 31
0.4599999999999973
 12
-0.6400000000000001
 22
0.2699999999999951
 32
0.4899999999999985
 13
-0.5339339828220179
 23
0.2260660171779767
 33
0.4899999999999985
  0
3DFACE
  5
1A96
  8
TURRET
 10
-0.6400000000000001
 20
0.2699999999999951
 30
0.4599999999999973
 11
-0.7460660171779822
 21
0.2260660171779767
 31
0.4599999999999973
 12
-0.7460660171779822
 22
0.2260660171779767
 32
0.4899999999999985
 13
-0.6400000000000001
 23
0.2699999999999951
 33
0.4899999999999985
  0
3DFACE
  5
1A97
  8
TURRET
 10
-0.7460660171779822
 20
0.2260660171779767
 30
0.4599999999999973
 11
-0.7900000000000002
 21
0.1199999999999948
 31
0.4599999999999973
 12
-0.7900000000000002
 22
0.1199999999999948
 32
0.4899999999999985
 13
-0.7460660171779822
 23
0.2260660171779767
 33
0.4899999999999985
  0
3DFACE
  5
1A98
  8
TURRET
 10
-0.6600000000000001
 20
0.1199999999999948
 30
0.2499999999999982
 11
-0.6400000000000001
 21
0.0999999999999952
 31
0.2499999999999982
 12
-0.6400000000000001
 22
0.0999999999999952
 32
0.4599999999999973
 13
-0.6600000000000001
 23
0.1199999999999948
 33
0.4599999999999973
  0
3DFACE
  5
1A99
  8
TURRET
 10
-0.6400000000000001
 20
0.0999999999999952
 30
0.2499999999999982
 11
-0.6200000000000001
 21
0.1199999999999948
 31
0.2499999999999982
 12
-0.6200000000000001
 22
0.1199999999999948
 32
0.4599999999999973
 13
-0.6400000000000001
 23
0.0999999999999952
 33
0.4599999999999973
  0
3DFACE
  5
1A9A
  8
TURRET
 10
-0.6200000000000001
 20
0.1199999999999948
 30
0.2499999999999982
 11
-0.6400000000000001
 21
0.1399999999999961
 31
0.2499999999999982
 12
-0.6400000000000001
 22
0.1399999999999961
 32
0.4599999999999973
 13
-0.6200000000000001
 23
0.1199999999999948
 33
0.4599999999999973
  0
3DFACE
  5
1A9B
  8
TURRET
 10
-0.6400000000000001
 20
0.1399999999999961
 30
0.2499999999999982
 11
-0.6600000000000001
 21
0.1199999999999948
 31
0.2499999999999982
 12
-0.6600000000000001
 22
0.1199999999999948
 32
0.4599999999999973
 13
-0.6400000000000001
 23
0.1399999999999961
 33
0.4599999999999973
  0
3DFACE
  5
1A9C
  8
TURRET
 10
-0.7900000000000002
 20
0.1199999999999948
 30
0.4899999999999985
 11
-0.7460660171779822
 21
0.0139339828220129
 31
0.4899999999999985
 12
-0.6400000000000001
 22
-0.0300000000000056
 32
0.4899999999999985
 13
-0.7460660171779822
 23
0.2260660171779767
 33
0.4899999999999985
  0
3DFACE
  5
1A9D
  8
TURRET
 10
-0.7460660171779822
 20
0.2260660171779767
 30
0.4899999999999985
 11
-0.6400000000000001
 21
-0.0300000000000056
 31
0.4899999999999985
 12
-0.5339339828220179
 22
0.0139339828220129
 32
0.4899999999999985
 13
-0.6400000000000001
 23
0.2699999999999951
 33
0.4899999999999985
  0
3DFACE
  5
1A9E
  8
TURRET
 10
-0.6400000000000001
 20
0.2699999999999951
 30
0.4899999999999985
 11
-0.5339339828220179
 21
0.0139339828220129
 31
0.4899999999999985
 12
-0.49
 22
0.1199999999999948
 32
0.4899999999999985
 13
-0.5339339828220179
 23
0.2260660171779767
 33
0.4899999999999985
  0
3DFACE
  5
1AA1
  8
TURRET
 10
0.8399999999999998
 20
0.1199999999999948
 30
0.4899999999999985
 11
0.5839339828220176
 21
0.0139339828220129
 31
0.4899999999999985
 12
0.6899999999999995
 22
-0.0300000000000056
 32
0.4899999999999985
 13
0.7960660171779815
 23
0.0139339828220129
 33
0.4899999999999985
  0
3DFACE
  5
1AA2
  8
TURRET
 10
0.7960660171779819
 20
0.2260660171779767
 30
0.4899999999999985
 11
0.5400000000000002
 21
0.1199999999999948
 31
0.4899999999999985
 12
0.5839339828220176
 22
0.0139339828220129
 32
0.4899999999999985
 13
0.8399999999999998
 23
0.1199999999999948
 33
0.4899999999999985
  0
3DFACE
  5
1AA3
  8
TURRET
 10
0.69
 20
0.2699999999999951
 30
0.4899999999999985
 11
0.5839339828220181
 21
0.2260660171779767
 31
0.4899999999999985
 12
0.5400000000000002
 22
0.1199999999999948
 32
0.4899999999999985
 13
0.7960660171779819
 23
0.2260660171779767
 33
0.4899999999999985
  0
3DFACE
  5
1AA4
  8
TURRET
 10
0.71
 20
0.1199999999999948
 30
0.2499999999999982
 11
0.69
 21
0.1399999999999961
 31
0.2499999999999982
 12
0.69
 22
0.1399999999999961
 32
0.4599999999999973
 13
0.71
 23
0.1199999999999948
 33
0.4599999999999973
  0
3DFACE
  5
1AA5
  8
TURRET
 10
0.69
 20
0.0999999999999952
 30
0.2499999999999982
 11
0.71
 21
0.1199999999999948
 31
0.2499999999999982
 12
0.71
 22
0.1199999999999948
 32
0.4599999999999973
 13
0.69
 23
0.0999999999999952
 33
0.4599999999999973
  0
3DFACE
  5
1AA6
  8
TURRET
 10
0.67
 20
0.1199999999999948
 30
0.2499999999999982
 11
0.69
 21
0.0999999999999952
 31
0.2499999999999982
 12
0.69
 22
0.0999999999999952
 32
0.4599999999999973
 13
0.67
 23
0.1199999999999948
 33
0.4599999999999973
  0
3DFACE
  5
1AA7
  8
TURRET
 10
0.69
 20
0.1399999999999961
 30
0.2499999999999982
 11
0.67
 21
0.1199999999999948
 31
0.2499999999999982
 12
0.67
 22
0.1199999999999948
 32
0.4599999999999973
 13
0.69
 23
0.1399999999999961
 33
0.4599999999999973
  0
3DFACE
  5
1AA8
  8
TURRET
 10
0.7960660171779819
 20
0.2260660171779767
 30
0.4599999999999973
 11
0.69
 21
0.2699999999999951
 31
0.4599999999999973
 12
0.69
 22
0.2699999999999951
 32
0.4899999999999985
 13
0.7960660171779819
 23
0.2260660171779767
 33
0.4899999999999985
  0
3DFACE
  5
1AA9
  8
TURRET
 10
0.8399999999999998
 20
0.1199999999999948
 30
0.4599999999999973
 11
0.7960660171779819
 21
0.2260660171779767
 31
0.4599999999999973
 12
0.7960660171779819
 22
0.2260660171779767
 32
0.4899999999999985
 13
0.8399999999999998
 23
0.1199999999999948
 33
0.4899999999999985
  0
3DFACE
  5
1AAA
  8
TURRET
 10
0.7960660171779815
 20
0.0139339828220129
 30
0.4599999999999973
 11
0.8399999999999998
 21
0.1199999999999948
 31
0.4599999999999973
 12
0.8399999999999998
 22
0.1199999999999948
 32
0.4899999999999985
 13
0.7960660171779815
 23
0.0139339828220129
 33
0.4899999999999985
  0
3DFACE
  5
1AAB
  8
TURRET
 10
0.6899999999999995
 20
-0.0300000000000056
 30
0.4599999999999973
 11
0.7960660171779815
 21
0.0139339828220129
 31
0.4599999999999973
 12
0.7960660171779815
 22
0.0139339828220129
 32
0.4899999999999985
 13
0.6899999999999995
 23
-0.0300000000000056
 33
0.4899999999999985
  0
3DFACE
  5
1AAC
  8
TURRET
 10
0.5839339828220176
 20
0.0139339828220129
 30
0.4599999999999973
 11
0.6899999999999995
 21
-0.0300000000000056
 31
0.4599999999999973
 12
0.6899999999999995
 22
-0.0300000000000056
 32
0.4899999999999985
 13
0.5839339828220176
 23
0.0139339828220129
 33
0.4899999999999985
  0
3DFACE
  5
1AAD
  8
TURRET
 10
0.5400000000000002
 20
0.1199999999999948
 30
0.4599999999999973
 11
0.5839339828220176
 21
0.0139339828220129
 31
0.4599999999999973
 12
0.5839339828220176
 22
0.0139339828220129
 32
0.4899999999999985
 13
0.5400000000000002
 23
0.1199999999999948
 33
0.4899999999999985
  0
3DFACE
  5
1AAE
  8
TURRET
 10
0.5839339828220181
 20
0.2260660171779767
 30
0.4599999999999973
 11
0.5400000000000002
 21
0.1199999999999948
 31
0.4599999999999973
 12
0.5400000000000002
 22
0.1199999999999948
 32
0.4899999999999985
 13
0.5839339828220181
 23
0.2260660171779767
 33
0.4899999999999985
  0
3DFACE
  5
1AAF
  8
TURRET
 10
0.69
 20
0.2699999999999951
 30
0.4599999999999973
 11
0.5839339828220181
 21
0.2260660171779767
 31
0.4599999999999973
 12
0.5839339828220181
 22
0.2260660171779767
 32
0.4899999999999985
 13
0.69
 23
0.2699999999999951
 33
0.4899999999999985
  0
3DFACE
  5
1AB0
  8
TURRET
 10
0.6400000000000002
 20
0.1499999999999941
 30
0.4199999999999982
 11
0.6400000000000002
 21
0.1499999999999941
 31
0.3399999999999981
 12
0.3800000000000001
 22
0.1499999999999959
 32
0.2099999999999973
 13
0.3800000000000001
 23
0.1499999999999959
 33
0.4199999999999982
  0
3DFACE
  5
1AB1
  8
TURRET
 10
0.3800000000000001
 20
0.0899999999999954
 30
0.4199999999999982
 11
0.6400000000000002
 21
0.0899999999999954
 31
0.4199999999999982
 12
0.6400000000000002
 22
0.1499999999999941
 32
0.4199999999999982
 13
0.3800000000000001
 23
0.1499999999999959
 33
0.4199999999999982
  0
3DFACE
  5
1AB2
  8
TURRET
 10
0.3800000000000001
 20
0.0899999999999954
 30
0.2099999999999973
 11
0.6400000000000002
 21
0.0899999999999954
 31
0.3399999999999981
 12
0.6400000000000002
 22
0.0899999999999954
 32
0.4199999999999982
 13
0.3800000000000001
 23
0.0899999999999954
 33
0.4199999999999982
  0
3DFACE
  5
1AB3
  8
TURRET
 10
0.3800000000000001
 20
0.1499999999999959
 30
0.2099999999999973
 11
0.6400000000000002
 21
0.1499999999999941
 31
0.3399999999999981
 12
0.6400000000000002
 22
0.0899999999999954
 32
0.3399999999999981
 13
0.3800000000000001
 23
0.0899999999999954
 33
0.2099999999999973
  0
3DFACE
  5
1AB4
  8
TURRET
 10
0.6400000000000002
 20
0.0899999999999954
 30
0.4199999999999982
 11
0.6400000000000002
 21
0.0899999999999954
 31
0.3399999999999981
 12
0.6400000000000002
 22
0.1499999999999941
 32
0.3399999999999981
 13
0.6400000000000002
 23
0.1499999999999941
 33
0.4199999999999982
  0
3DFACE
  5
1AB5
  8
TURRET
 10
0.6400000000000002
 20
0.0899999999999954
 30
0.3999999999999968
 11
0.7200000000000002
 21
0.0899999999999954
 31
0.3999999999999968
 12
0.7200000000000002
 22
0.1499999999999941
 32
0.3999999999999968
 13
0.6400000000000002
 23
0.1499999999999941
 33
0.3999999999999968
  0
3DFACE
  5
1AB6
  8
TURRET
 10
0.7200000000000002
 20
0.1499999999999941
 30
0.3999999999999968
 11
0.7200000000000002
 21
0.1499999999999941
 31
0.3499999999999979
 12
0.6400000000000002
 22
0.1499999999999941
 32
0.3499999999999979
 13
0.6400000000000002
 23
0.1499999999999941
 33
0.3999999999999968
  0
3DFACE
  5
1AB7
  8
TURRET
 10
0.6400000000000002
 20
0.1499999999999941
 30
0.3999999999999968
 11
0.6400000000000002
 21
0.1499999999999941
 31
0.3499999999999979
 12
0.6400000000000002
 22
0.0899999999999954
 32
0.3499999999999979
 13
0.6400000000000002
 23
0.0899999999999954
 33
0.3999999999999968
  0
3DFACE
  5
1AB8
  8
TURRET
 10
0.6400000000000002
 20
0.1499999999999941
 30
0.3499999999999979
 11
0.7200000000000002
 21
0.1499999999999941
 31
0.3499999999999979
 12
0.7200000000000002
 22
0.0899999999999954
 32
0.3499999999999979
 13
0.6400000000000002
 23
0.0899999999999954
 33
0.3499999999999979
  0
3DFACE
  5
1AB9
  8
TURRET
 10
0.7200000000000002
 20
0.0899999999999954
 30
0.3999999999999968
 11
0.7200000000000002
 21
0.0899999999999954
 31
0.3499999999999979
 12
0.7200000000000002
 22
0.1499999999999941
 32
0.3499999999999979
 13
0.7200000000000002
 23
0.1499999999999941
 33
0.3999999999999968
  0
3DFACE
  5
1ABA
  8
TURRET
 10
0.6400000000000002
 20
0.0899999999999954
 30
0.3499999999999979
 11
0.7200000000000002
 21
0.0899999999999954
 31
0.3499999999999979
 12
0.7200000000000002
 22
0.0899999999999954
 32
0.3999999999999968
 13
0.6400000000000002
 23
0.0899999999999954
 33
0.3999999999999968
  0
3DFACE
  5
1ABB
  8
TURRET
 10
0.3800000000000001
 20
0.1499999999999959
 30
0.4199999999999982
 11
0.3800000000000001
 21
0.1499999999999959
 31
0.2099999999999973
 12
0.3800000000000001
 22
0.0899999999999954
 32
0.2099999999999973
 13
0.3800000000000001
 23
0.0899999999999954
 33
0.4199999999999982
  0
3DFACE
  5
1DE4
  8
TURRET
 10
-0.28
 20
-0.1700000000000044
 30
0.7399999999999986
 11
-0.28
 21
-0.1905025253169468
 31
0.7894974746830563
 12
0.28
 22
-0.1905025253169468
 32
0.7894974746830563
 13
0.28
 23
-0.1700000000000044
 33
0.7399999999999986
  0
3DFACE
  5
1DE5
  8
TURRET
 10
-0.28
 20
-0.1905025253169468
 30
0.7894974746830563
 11
-0.28
 21
-0.2400000000000046
 31
0.8099999999999987
 12
0.28
 22
-0.2400000000000046
 32
0.8099999999999987
 13
0.28
 23
-0.1905025253169468
 33
0.7894974746830563
  0
3DFACE
  5
1DE6
  8
TURRET
 10
-0.28
 20
-0.2400000000000046
 30
0.8099999999999987
 11
-0.28
 21
-0.2894974746830625
 31
0.7894974746830563
 12
0.28
 22
-0.2894974746830625
 32
0.7894974746830563
 13
0.28
 23
-0.2400000000000046
 33
0.8099999999999987
  0
3DFACE
  5
1DE7
  8
TURRET
 10
-0.28
 20
-0.2894974746830625
 30
0.7894974746830563
 11
-0.28
 21
-0.3100000000000049
 31
0.7399999999999986
 12
0.28
 22
-0.3100000000000049
 32
0.7399999999999986
 13
0.28
 23
-0.2894974746830625
 33
0.7894974746830563
  0
3DFACE
  5
1DE8
  8
TURRET
 10
-0.28
 20
-0.3100000000000049
 30
0.7399999999999986
 11
-0.28
 21
-0.2894974746830625
 31
0.6905025253169406
 12
0.28
 22
-0.2894974746830625
 32
0.6905025253169406
 13
0.28
 23
-0.3100000000000049
 33
0.7399999999999986
  0
3DFACE
  5
1DE9
  8
TURRET
 10
-0.28
 20
-0.2894974746830625
 30
0.6905025253169406
 11
-0.28
 21
-0.2400000000000046
 31
0.6699999999999982
 12
0.28
 22
-0.2400000000000046
 32
0.6699999999999982
 13
0.28
 23
-0.2894974746830625
 33
0.6905025253169406
  0
3DFACE
  5
1DEA
  8
TURRET
 10
-0.28
 20
-0.2400000000000046
 30
0.6699999999999982
 11
-0.28
 21
-0.1905025253169468
 31
0.6905025253169406
 12
0.28
 22
-0.1905025253169468
 32
0.6905025253169406
 13
0.28
 23
-0.2400000000000046
 33
0.6699999999999982
  0
3DFACE
  5
1DEB
  8
TURRET
 10
-0.28
 20
-0.1905025253169468
 30
0.6905025253169406
 11
-0.28
 21
-0.1700000000000044
 31
0.7399999999999986
 12
0.28
 22
-0.1700000000000044
 32
0.7399999999999986
 13
0.28
 23
-0.1905025253169468
 33
0.6905025253169406
  0
VIEWPORT
  5
2E
 67
     1
  8
0
 10
144.7270812988281
 20
101.2295806407928
 30
0.0
 40
391.13550988316581
 41
222.15178063964839
 68
     2
 69
     1
1001
ACAD
1000
MVIEW
1002
{
1070
    16
1010
0.0
1020
0.0
1030
0.0
1010
0.0
1020
0.0
1030
1.0
1040
0.0
1040
222.15178063964839
1040
144.7270812988281
1040
101.2295806407928
1040
50.0
1040
0.0
1040
0.0
1070
     0
1070
   100
1070
     1
1070
     1
1070
     0
1070
     0
1070
     0
1070
     0
1040
0.0
1040
0.0
1040
0.0
1040
10.0
1040
10.0
1040
10.0
1040
10.0
1070
     0
1002
{
1002
}
1002
}
  0
VIEWPORT
  5
30
 67
     1
  8
0
 10
139.22375631332389
 20
100.8062499761581
 30
0.0
 40
222.75801010131829
 41
161.289999961853
 68
     1
 69
     2
1001
ACAD
1000
MVIEW
1002
{
1070
    16
1010
0.0
1020
0.0
1030
0.0
1010
0.0
1020
0.0
1030
1.0
1040
0.0
1040
307.49010134148989
1040
210.0
1040
148.5
1040
50.0
1040
0.0
1040
0.0
1070
     0
1070
   100
1070
     1
1070
     3
1070
     0
1070
     1
1070
     0
1070
     0
1040
0.0
1040
0.0
1040
0.0
1040
10.0
1040
10.0
1040
10.0
1040
10.0
1070
     0
1002
{
1002
}
1002
}
  0
ENDSEC
  0
EOF
