  0
SECTION
  2
HEADER
  9
$ACADVER
  1
AC1009
  9
$INSBASE
 10
0.0
 20
0.0
 30
0.0
  9
$EXTMIN
 10
-0.4300000000000001
 20
-0.201126983722081
 30
-0.4465069943049662
  9
$EXTMAX
 10
0.6799999999999999
 20
0.6099999999999995
 30
0.3999999999999999
  9
$LIMMIN
 10
0.0
 20
0.0
  9
$LIMMAX
 10
420.0
 20
297.0
  9
$ORTHOMODE
 70
     1
  9
$REGENMODE
 70
     1
  9
$FILLMODE
 70
     1
  9
$QTEXTMODE
 70
     0
  9
$MIRRTEXT
 70
     1
  9
$DRAGMODE
 70
     0
  9
$LTSCALE
 40
1.0
  9
$OSMODE
 70
   547
  9
$ATTMODE
 70
     1
  9
$TEXTSIZE
 40
2.5
  9
$TRACEWID
 40
1.0
  9
$TEXTSTYLE
  7
STANDARD
  9
$CLAYER
  8
SLEEVE
  9
$CELTYPE
  6
BYLAYER
  9
$CECOLOR
 62
   256
  9
$DIMSCALE
 40
1.0
  9
$DIMASZ
 40
2.5
  9
$DIMEXO
 40
0.625
  9
$DIMDLI
 40
3.75
  9
$DIMRND
 40
0.0
  9
$DIMDLE
 40
0.0
  9
$DIMEXE
 40
1.25
  9
$DIMTP
 40
0.0
  9
$DIMTM
 40
0.0
  9
$DIMTXT
 40
2.5
  9
$DIMCEN
 40
2.5
  9
$DIMTSZ
 40
0.0
  9
$DIMTOL
 70
     0
  9
$DIMLIM
 70
     0
  9
$DIMTIH
 70
     0
  9
$DIMTOH
 70
     0
  9
$DIMSE1
 70
     0
  9
$DIMSE2
 70
     0
  9
$DIMTAD
 70
     1
  9
$DIMZIN
 70
     8
  9
$DIMBLK
  1

  9
$DIMASO
 70
     1
  9
$DIMSHO
 70
     1
  9
$DIMPOST
  1

  9
$DIMAPOST
  1

  9
$DIMALT
 70
     0
  9
$DIMALTD
 70
     3
  9
$DIMALTF
 40
0.03937007874016
  9
$DIMLFAC
 40
1.0
  9
$DIMTOFL
 70
     1
  9
$DIMTVP
 40
0.0
  9
$DIMTIX
 70
     0
  9
$DIMSOXD
 70
     0
  9
$DIMSAH
 70
     0
  9
$DIMBLK1
  1

  9
$DIMBLK2
  1

  9
$DIMSTYLE
  2
ISO-25
  9
$DIMCLRD
 70
     0
  9
$DIMCLRE
 70
     0
  9
$DIMCLRT
 70
     0
  9
$DIMTFAC
 40
1.0
  9
$DIMGAP
 40
0.625
  9
$LUNITS
 70
     2
  9
$LUPREC
 70
     4
  9
$SKETCHINC
 40
1.0
  9
$FILLETRAD
 40
10.0
  9
$AUNITS
 70
     0
  9
$AUPREC
 70
     0
  9
$MENU
  1
.
  9
$ELEVATION
 40
0.0
  9
$PELEVATION
 40
0.0
  9
$THICKNESS
 40
0.0
  9
$LIMCHECK
 70
     0
  9
$BLIPMODE
 70
     0
  9
$CHAMFERA
 40
10.0
  9
$CHAMFERB
 40
10.0
  9
$SKPOLY
 70
     0
  9
$TDCREATE
 40
2454442.4704855089
  9
$TDUPDATE
 40
2454446.895815602
  9
$TDINDWG
 40
0.2796497222
  9
$TDUSRTIMER
 40
0.2796496065
  9
$USRTIMER
 70
     1
  9
$ANGBASE
 50
0.0
  9
$ANGDIR
 70
     0
  9
$PDMODE
 70
     0
  9
$PDSIZE
 40
0.0
  9
$PLINEWID
 40
0.0
  9
$COORDS
 70
     1
  9
$SPLFRAME
 70
     0
  9
$SPLINETYPE
 70
     6
  9
$SPLINESEGS
 70
     8
  9
$ATTDIA
 70
     1
  9
$ATTREQ
 70
     1
  9
$HANDLING
 70
-16383
  9
$HANDSEED
  5
A00
  9
$SURFTAB1
 70
     6
  9
$SURFTAB2
 70
     6
  9
$SURFTYPE
 70
     6
  9
$SURFU
 70
     6
  9
$SURFV
 70
     6
  9
$UCSNAME
  2

  9
$UCSORG
 10
0.0
 20
0.0
 30
0.0
  9
$UCSXDIR
 10
1.0
 20
0.0
 30
0.0
  9
$UCSYDIR
 10
0.0
 20
1.0
 30
0.0
  9
$PUCSNAME
  2

  9
$PUCSORG
 10
0.0
 20
0.0
 30
0.0
  9
$PUCSXDIR
 10
1.0
 20
0.0
 30
0.0
  9
$PUCSYDIR
 10
0.0
 20
1.0
 30
0.0
  9
$USERI1
 70
     0
  9
$USERI2
 70
     0
  9
$USERI3
 70
     0
  9
$USERI4
 70
     0
  9
$USERI5
 70
     0
  9
$USERR1
 40
0.0
  9
$USERR2
 40
0.0
  9
$USERR3
 40
0.0
  9
$USERR4
 40
0.0
  9
$USERR5
 40
0.0
  9
$WORLDVIEW
 70
     1
  9
$SHADEDGE
 70
     3
  9
$SHADEDIF
 70
    70
  9
$TILEMODE
 70
     1
  9
$MAXACTVP
 70
    64
  9
$PLIMCHECK
 70
     0
  9
$PEXTMIN
 10
0.0
 20
0.0
 30
0.0
  9
$PEXTMAX
 10
0.0
 20
0.0
 30
0.0
  9
$PLIMMIN
 10
0.0
 20
0.0
  9
$PLIMMAX
 10
12.0
 20
9.0
  9
$UNITMODE
 70
     0
  9
$VISRETAIN
 70
     1
  9
$PLINEGEN
 70
     0
  9
$PSLTSCALE
 70
     1
  0
ENDSEC
  0
SECTION
  2
TABLES
  0
TABLE
  2
VPORT
 70
     4
  0
VPORT
  2
*ACTIVE
 70
     0
 10
0.0
 20
0.0
 11
1.0
 21
1.0
 12
2.6441134771300669
 22
-0.8701775676909129
 13
0.0
 23
0.0
 14
0.01
 24
0.01
 15
1.0
 25
1.0
 16
0.0
 26
0.0
 36
1.0
 17
0.0
 27
0.0
 37
0.0
 40
4.5473868569251223
 41
1.6612612612612609
 42
50.0
 43
0.0
 44
0.0
 50
0.0
 51
0.0
 71
     0
 72
   100
 73
     1
 74
     3
 75
     1
 76
     1
 77
     0
 78
     0
  0
ENDTAB
  0
TABLE
  2
LTYPE
 70
     1
  0
LTYPE
  2
CONTINUOUS
 70
     0
  3
Solid line
 72
    65
 73
     0
 40
0.0
  0
ENDTAB
  0
TABLE
  2
LAYER
 70
     8
  0
LAYER
  2
0
 70
     0
 62
     7
  6
CONTINUOUS
  0
LAYER
  2
DRAWING
 70
     0
 62
     9
  6
CONTINUOUS
  0
LAYER
  2
WHEELS
 70
     0
 62
     2
  6
CONTINUOUS
  0
LAYER
  2
TRACKS
 70
     0
 62
     6
  6
CONTINUOUS
  0
LAYER
  2
TORSION
 70
     0
 62
     5
  6
CONTINUOUS
  0
LAYER
  2
MUDGUARDS
 70
     0
 62
     4
  6
CONTINUOUS
  0
LAYER
  2
GUN
 70
     0
 62
     1
  6
CONTINUOUS
  0
LAYER
  2
SLEEVE
 70
     0
 62
     5
  6
CONTINUOUS
  0
ENDTAB
  0
TABLE
  2
STYLE
 70
     1
  0
STYLE
  2
STANDARD
 70
     0
 40
0.0
 41
1.0
 50
0.0
 71
     0
 42
2.5
  3
txt
  4

  0
ENDTAB
  0
TABLE
  2
VIEW
 70
     0
  0
ENDTAB
  0
TABLE
  2
UCS
 70
     0
  0
ENDTAB
  0
TABLE
  2
APPID
 70
     1
  0
APPID
  2
ACAD
 70
     0
  0
ENDTAB
  0
TABLE
  2
DIMSTYLE
 70
     1
  0
DIMSTYLE
  2
ISO-25
 70
     0
  3

  4

  5

  6

  7

 40
1.0
 41
2.5
 42
0.625
 43
3.75
 44
1.25
 45
0.0
 46
0.0
 47
0.0
 48
0.0
140
2.5
141
2.5
142
0.0
143
0.03937007874016
144
1.0
145
0.0
146
1.0
147
0.625
 71
     0
 72
     0
 73
     0
 74
     0
 75
     0
 76
     0
 77
     1
 78
     8
170
     0
171
     3
172
     1
173
     0
174
     0
175
     0
176
     0
177
     0
178
     0
  0
ENDTAB
  0
ENDSEC
  0
SECTION
  2
BLOCKS
  0
BLOCK
  8
0
  2
$MODEL_SPACE
 70
     0
 10
0.0
 20
0.0
 30
0.0
  3
$MODEL_SPACE
  1

  0
ENDBLK
  5
21
  8
0
  0
BLOCK
 67
     1
  8
0
  2
$PAPER_SPACE
 70
     0
 10
0.0
 20
0.0
 30
0.0
  3
$PAPER_SPACE
  1

  0
ENDBLK
  5
53
 67
     1
  8
0
  0
ENDSEC
  0
SECTION
  2
ENTITIES
  0
3DFACE
  5
742
  8
SLEEVE
 10
0.3250000000000001
 20
0.3049999999999993
 30
0.0
 11
0.165
 21
0.3599999999999994
 31
-0.2771281292110199
 12
0.0750000000000001
 22
0.6099999999999995
 32
-0.1212435565298211
 13
0.145
 23
0.6099999999999995
 33
0.0
  0
3DFACE
  5
743
  8
SLEEVE
 10
0.165
 20
0.3599999999999994
 30
-0.2771281292110199
 11
-0.1549999999999999
 21
0.3599999999999994
 31
-0.2771281292110199
 12
-0.065
 22
0.6099999999999995
 32
-0.1212435565298211
 13
0.0750000000000001
 23
0.6099999999999995
 33
-0.1212435565298211
  0
3DFACE
  5
744
  8
SLEEVE
 10
-0.1549999999999999
 20
0.3599999999999994
 30
-0.2771281292110199
 11
-0.315
 21
0.3049999999999993
 31
0.0
 12
-0.135
 22
0.6099999999999995
 32
0.0
 13
-0.065
 23
0.6099999999999995
 33
-0.1212435565298211
  0
3DFACE
  5
745
  8
SLEEVE
 10
-0.315
 20
0.3049999999999993
 30
0.0
 11
-0.1550000000000001
 21
0.3599999999999994
 31
0.2771281292110199
 12
-0.0650000000000001
 22
0.6099999999999995
 32
0.1212435565298211
 13
-0.135
 23
0.6099999999999995
 33
0.0
  0
3DFACE
  5
746
  8
SLEEVE
 10
-0.1550000000000001
 20
0.3599999999999994
 30
0.2771281292110199
 11
0.1649999999999998
 21
0.3599999999999994
 31
0.2771281292110199
 12
0.0749999999999999
 22
0.6099999999999995
 32
0.1212435565298211
 13
-0.0650000000000001
 23
0.6099999999999995
 33
0.1212435565298211
  0
3DFACE
  5
747
  8
SLEEVE
 10
0.1649999999999998
 20
0.3599999999999994
 30
0.2771281292110199
 11
0.3250000000000001
 21
0.3049999999999993
 31
0.0
 12
0.145
 22
0.6099999999999995
 32
0.0
 13
0.0749999999999999
 23
0.6099999999999995
 33
0.1212435565298211
  0
3DFACE
  5
8C2
  8
SLEEVE
 10
0.4
 20
0.2783807102406395
 30
0.3665069943049657
 11
0.4
 21
0.4211269837220808
 31
0.2711269837220813
 12
-0.38
 22
0.4211269837220808
 32
0.2711269837220813
 13
-0.38
 23
0.2783807102406395
 33
0.3665069943049657
  0
3DFACE
  5
8C3
  8
SLEEVE
 10
0.4
 20
0.4211269837220808
 30
0.2711269837220813
 11
0.4
 21
0.5165069943049661
 31
0.1283807102406387
 12
-0.38
 22
0.5165069943049661
 32
0.1283807102406387
 13
-0.38
 23
0.4211269837220808
 33
0.2711269837220813
  0
3DFACE
  5
8C4
  8
SLEEVE
 10
0.4
 20
0.5165069943049661
 30
0.1283807102406387
 11
0.4
 21
0.5499999999999999
 31
-0.04
 12
-0.38
 22
0.5499999999999999
 32
-0.04
 13
-0.38
 23
0.5165069943049661
 33
0.1283807102406387
  0
3DFACE
  5
8C5
  8
SLEEVE
 10
0.4
 20
0.5499999999999999
 30
-0.04
 11
0.4
 21
0.5165069943049661
 31
-0.2083807102406388
 12
-0.38
 22
0.5165069943049661
 32
-0.2083807102406388
 13
-0.38
 23
0.5499999999999999
 33
-0.04
  0
3DFACE
  5
8C6
  8
SLEEVE
 10
0.4
 20
0.5165069943049661
 30
-0.2083807102406388
 11
0.4
 21
0.4211269837220808
 31
-0.3511269837220814
 12
-0.38
 22
0.4211269837220808
 32
-0.3511269837220814
 13
-0.38
 23
0.5165069943049661
 33
-0.2083807102406388
  0
3DFACE
  5
8C7
  8
SLEEVE
 10
0.4
 20
0.4211269837220808
 30
-0.3511269837220814
 11
0.4
 21
0.2783807102406395
 31
-0.4465069943049658
 12
-0.38
 22
0.2783807102406395
 32
-0.4465069943049658
 13
-0.38
 23
0.4211269837220808
 33
-0.3511269837220814
  0
3DFACE
  5
9CF
  8
SLEEVE
 10
0.4
 20
0.5499999999999999
 30
-0.04
 11
0.4
 21
0.5165069943049661
 31
0.1283807102406396
 12
0.45
 22
0.30401470182737
 32
0.0403635207966688
 13
0.45
 23
0.3199999999999998
 33
-0.04
  0
3DFACE
  5
9D0
  8
SLEEVE
 10
0.4
 20
0.5165069943049661
 30
0.1283807102406396
 11
0.4
 21
0.4211269837220808
 31
0.2711269837220809
 12
0.45
 22
0.2584924240491748
 32
0.1084924240491749
 13
0.45
 23
0.30401470182737
 33
0.0403635207966688
  0
3DFACE
  5
9D1
  8
SLEEVE
 10
0.4
 20
0.4211269837220808
 30
0.2711269837220809
 11
0.4
 21
0.2783807102406395
 31
0.3665069943049661
 12
0.45
 22
0.190363520796669
 32
0.1540147018273701
 13
0.45
 23
0.2584924240491748
 33
0.1084924240491749
  0
3DFACE
  5
9D2
  8
SLEEVE
 10
0.4
 20
0.2783807102406395
 30
0.3665069943049661
 11
0.4
 21
0.1099999999999999
 31
0.3999999999999999
 12
0.45
 22
0.1099999999999999
 32
0.1699999999999999
 13
0.45
 23
0.190363520796669
 33
0.1540147018273701
  0
3DFACE
  5
9D3
  8
SLEEVE
 10
0.4
 20
0.1099999999999999
 30
0.3999999999999999
 11
0.4
 21
-0.0583807102406397
 31
0.3665069943049661
 12
0.45
 22
0.0296364792033312
 32
0.1540147018273701
 13
0.45
 23
0.1099999999999999
 33
0.1699999999999999
  0
3DFACE
  5
9D4
  8
SLEEVE
 10
0.4
 20
-0.0583807102406397
 30
0.3665069943049661
 11
0.3999999999999999
 21
-0.201126983722081
 31
0.2711269837220809
 12
0.45
 22
-0.0384924240491751
 32
0.1084924240491749
 13
0.45
 23
0.0296364792033312
 33
0.1540147018273701
  0
3DFACE
  5
9DC
  8
SLEEVE
 10
0.4
 20
0.2783807102406395
 30
-0.4465069943049662
 11
0.4
 21
0.4211269837220813
 31
-0.3511269837220807
 12
0.45
 22
0.2584924240491748
 32
-0.188492424049175
 13
0.45
 23
0.190363520796669
 33
-0.2340147018273702
  0
3DFACE
  5
9DD
  8
SLEEVE
 10
0.4
 20
0.4211269837220813
 30
-0.3511269837220807
 11
0.4
 21
0.5165069943049665
 31
-0.2083807102406392
 12
0.45
 22
0.3040147018273704
 32
-0.1203635207966687
 13
0.45
 23
0.2584924240491748
 33
-0.188492424049175
  0
3DFACE
  5
9DE
  8
SLEEVE
 10
0.4
 20
0.5165069943049665
 30
-0.2083807102406392
 11
0.4
 21
0.5499999999999999
 31
-0.04
 12
0.45
 22
0.3199999999999998
 32
-0.04
 13
0.45
 23
0.3040147018273704
 33
-0.1203635207966687
  0
3DFACE
  5
9E1
  8
SLEEVE
 10
-0.38
 20
-0.201126983722081
 30
0.2711269837220809
 11
-0.38
 21
-0.0583807102406397
 31
0.3665069943049661
 12
-0.4300000000000001
 22
0.029636479203331
 32
0.1540147018273701
 13
-0.4300000000000001
 23
-0.0384924240491751
 33
0.1084924240491749
  0
3DFACE
  5
9E2
  8
SLEEVE
 10
-0.38
 20
-0.0583807102406397
 30
0.3665069943049661
 11
-0.38
 21
0.1099999999999999
 31
0.3999999999999999
 12
-0.4300000000000001
 22
0.1099999999999999
 32
0.1699999999999999
 13
-0.4300000000000001
 23
0.029636479203331
 33
0.1540147018273701
  0
3DFACE
  5
9E3
  8
SLEEVE
 10
-0.38
 20
0.1099999999999999
 30
0.3999999999999999
 11
-0.38
 21
0.2783807102406395
 31
0.3665069943049661
 12
-0.4300000000000001
 22
0.1903635207966685
 32
0.1540147018273701
 13
-0.4300000000000001
 23
0.1099999999999999
 33
0.1699999999999999
  0
3DFACE
  5
9E4
  8
SLEEVE
 10
-0.38
 20
0.2783807102406395
 30
0.3665069943049661
 11
-0.38
 21
0.4211269837220808
 31
0.2711269837220809
 12
-0.4300000000000001
 22
0.2584924240491748
 32
0.1084924240491749
 13
-0.4300000000000001
 23
0.1903635207966685
 33
0.1540147018273701
  0
3DFACE
  5
9E5
  8
SLEEVE
 10
-0.38
 20
0.4211269837220808
 30
0.2711269837220809
 11
-0.38
 21
0.5165069943049661
 31
0.1283807102406396
 12
-0.4300000000000001
 22
0.30401470182737
 32
0.0403635207966688
 13
-0.4300000000000001
 23
0.2584924240491748
 33
0.1084924240491749
  0
3DFACE
  5
9E6
  8
SLEEVE
 10
-0.38
 20
0.5165069943049661
 30
0.1283807102406396
 11
-0.38
 21
0.5499999999999999
 31
-0.04
 12
-0.4300000000000001
 22
0.3199999999999998
 32
-0.04
 13
-0.4300000000000001
 23
0.30401470182737
 33
0.0403635207966688
  0
3DFACE
  5
9E7
  8
SLEEVE
 10
-0.38
 20
0.5499999999999999
 30
-0.04
 11
-0.38
 21
0.5165069943049661
 31
-0.2083807102406394
 12
-0.4300000000000001
 22
0.30401470182737
 32
-0.1203635207966689
 13
-0.4300000000000001
 23
0.3199999999999998
 33
-0.04
  0
3DFACE
  5
9E8
  8
SLEEVE
 10
-0.38
 20
0.5165069943049661
 30
-0.2083807102406394
 11
-0.38
 21
0.4211269837220808
 31
-0.3511269837220809
 12
-0.4300000000000001
 22
0.2584924240491748
 32
-0.188492424049175
 13
-0.4300000000000001
 23
0.30401470182737
 33
-0.1203635207966689
  0
3DFACE
  5
9E9
  8
SLEEVE
 10
-0.38
 20
0.4211269837220808
 30
-0.3511269837220809
 11
-0.38
 21
0.2783807102406395
 31
-0.4465069943049662
 12
-0.4300000000000001
 22
0.190363520796669
 32
-0.2340147018273702
 13
-0.4300000000000001
 23
0.2584924240491748
 33
-0.188492424049175
  0
3DFACE
  5
9EF
  8
SLEEVE
 10
-0.4300000000000001
 20
-0.0417366575373897
 30
0.1063246965359275
 11
-0.4300000000000001
 21
0.029636479203331
 31
0.1540147018273701
 12
-0.4300000000000001
 22
0.2584924240491748
 32
-0.188492424049175
 13
-0.4300000000000001
 23
0.190363520796669
 33
-0.2340147018273702
  0
3DFACE
  5
9F0
  8
SLEEVE
 10
-0.4300000000000001
 20
0.029636479203331
 30
0.1540147018273701
 11
-0.4300000000000001
 21
0.1099999999999999
 31
0.1699999999999999
 12
-0.4300000000000001
 22
0.30401470182737
 32
-0.1203635207966689
 13
-0.4300000000000001
 23
0.2584924240491753
 33
-0.188492424049175
  0
3DFACE
  5
9F1
  8
SLEEVE
 10
-0.4300000000000001
 20
0.1099999999999999
 30
0.1699999999999999
 11
-0.4300000000000001
 21
0.1903635207966685
 31
0.1540147018273701
 12
-0.4300000000000001
 22
0.3199999999999998
 32
-0.04
 13
-0.4300000000000001
 23
0.30401470182737
 33
-0.1203635207966689
  0
3DFACE
  5
9F2
  8
SLEEVE
 10
-0.4300000000000001
 20
0.1903635207966685
 30
0.1540147018273701
 11
-0.4300000000000001
 21
0.2584924240491748
 31
0.1084924240491749
 12
-0.4300000000000001
 22
0.30401470182737
 32
0.0403635207966688
 13
-0.4300000000000001
 23
0.3199999999999998
 33
-0.04
  0
3DFACE
  5
9F3
  8
SLEEVE
 10
0.45
 20
0.0296364792033312
 30
0.1540147018273701
 11
0.45
 21
-0.0384924240491751
 31
0.1084924240491749
 12
0.45
 22
0.190363520796669
 32
-0.2340147018273702
 13
0.45
 23
0.2584924240491748
 33
-0.188492424049175
  0
3DFACE
  5
9F4
  8
SLEEVE
 10
0.45
 20
0.1099999999999999
 30
0.1699999999999999
 11
0.45
 21
0.0296364792033312
 31
0.1540147018273701
 12
0.45
 22
0.2584924240491753
 32
-0.188492424049175
 13
0.45
 23
0.3040147018273704
 33
-0.1203635207966687
  0
3DFACE
  5
9F5
  8
SLEEVE
 10
0.45
 20
0.190363520796669
 30
0.1540147018273701
 11
0.45
 21
0.1099999999999999
 31
0.1699999999999999
 12
0.45
 22
0.3040147018273704
 32
-0.1203635207966691
 13
0.45
 23
0.3199999999999998
 33
-0.04
  0
3DFACE
  5
9F6
  8
SLEEVE
 10
0.45
 20
0.2584924240491748
 30
0.1084924240491749
 11
0.45
 21
0.1903635207966676
 31
0.154014701827371
 12
0.45
 22
0.3199999999999998
 32
-0.0400000000000005
 13
0.45
 23
0.30401470182737
 33
0.0403635207966688
  0
ENDSEC
  0
EOF
