  0
SECTION
  2
HEADER
  9
$ACADVER
  1
AC1009
  9
$INSBASE
 10
0.0
 20
0.0
 30
0.0
  9
$EXTMIN
 10
-1.8337905660377269
 20
-11.141799999999989
 30
-44.178491999999999
  9
$EXTMAX
 10
8.1759500000000074
 20
9.0
 30
9.9137905660377292
  9
$LIMMIN
 10
0.0
 20
0.0
  9
$LIMMAX
 10
420.0
 20
297.0
  9
$ORTHOMODE
 70
     1
  9
$REGENMODE
 70
     1
  9
$FILLMODE
 70
     1
  9
$QTEXTMODE
 70
     0
  9
$MIRRTEXT
 70
     1
  9
$DRAGMODE
 70
     2
  9
$LTSCALE
 40
1.0
  9
$OSMODE
 70
   559
  9
$ATTMODE
 70
     1
  9
$TEXTSIZE
 40
2.5
  9
$TRACEWID
 40
1.0
  9
$TEXTSTYLE
  7
STANDARD
  9
$CLAYER
  8
MUDGUARDS
  9
$CELTYPE
  6
BYLAYER
  9
$CECOLOR
 62
   256
  9
$DIMSCALE
 40
1.0
  9
$DIMASZ
 40
2.5
  9
$DIMEXO
 40
0.625
  9
$DIMDLI
 40
3.75
  9
$DIMRND
 40
0.0
  9
$DIMDLE
 40
0.0
  9
$DIMEXE
 40
1.25
  9
$DIMTP
 40
0.0
  9
$DIMTM
 40
0.0
  9
$DIMTXT
 40
2.5
  9
$DIMCEN
 40
2.5
  9
$DIMTSZ
 40
0.0
  9
$DIMTOL
 70
     0
  9
$DIMLIM
 70
     0
  9
$DIMTIH
 70
     0
  9
$DIMTOH
 70
     0
  9
$DIMSE1
 70
     0
  9
$DIMSE2
 70
     0
  9
$DIMTAD
 70
     1
  9
$DIMZIN
 70
     8
  9
$DIMBLK
  1

  9
$DIMASO
 70
     1
  9
$DIMSHO
 70
     1
  9
$DIMPOST
  1

  9
$DIMAPOST
  1

  9
$DIMALT
 70
     0
  9
$DIMALTD
 70
     3
  9
$DIMALTF
 40
0.03937007874016
  9
$DIMLFAC
 40
1.0
  9
$DIMTOFL
 70
     1
  9
$DIMTVP
 40
0.0
  9
$DIMTIX
 70
     0
  9
$DIMSOXD
 70
     0
  9
$DIMSAH
 70
     0
  9
$DIMBLK1
  1

  9
$DIMBLK2
  1

  9
$DIMSTYLE
  2
ISO-25
  9
$DIMCLRD
 70
     0
  9
$DIMCLRE
 70
     0
  9
$DIMCLRT
 70
     0
  9
$DIMTFAC
 40
1.0
  9
$DIMGAP
 40
0.625
  9
$LUNITS
 70
     2
  9
$LUPREC
 70
     4
  9
$SKETCHINC
 40
1.0
  9
$FILLETRAD
 40
10.0
  9
$AUNITS
 70
     0
  9
$AUPREC
 70
     0
  9
$MENU
  1
.
  9
$ELEVATION
 40
0.0
  9
$PELEVATION
 40
0.0
  9
$THICKNESS
 40
0.0
  9
$LIMCHECK
 70
     0
  9
$BLIPMODE
 70
     0
  9
$CHAMFERA
 40
10.0
  9
$CHAMFERB
 40
10.0
  9
$SKPOLY
 70
     0
  9
$TDCREATE
 40
2455293.9036538191
  9
$TDUPDATE
 40
2455301.948622881
  9
$TDINDWG
 40
0.4738641667
  9
$TDUSRTIMER
 40
0.4738641667
  9
$USRTIMER
 70
     1
  9
$ANGBASE
 50
0.0
  9
$ANGDIR
 70
     0
  9
$PDMODE
 70
     0
  9
$PDSIZE
 40
0.0
  9
$PLINEWID
 40
0.0
  9
$COORDS
 70
     1
  9
$SPLFRAME
 70
     0
  9
$SPLINETYPE
 70
     6
  9
$SPLINESEGS
 70
     8
  9
$ATTDIA
 70
     1
  9
$ATTREQ
 70
     1
  9
$HANDLING
 70
-16383
  9
$HANDSEED
  5
1886
  9
$SURFTAB1
 70
     6
  9
$SURFTAB2
 70
     6
  9
$SURFTYPE
 70
     6
  9
$SURFU
 70
     6
  9
$SURFV
 70
     6
  9
$UCSNAME
  2

  9
$UCSORG
 10
0.0
 20
0.0
 30
0.0
  9
$UCSXDIR
 10
0.0
 20
-1.0
 30
0.0
  9
$UCSYDIR
 10
0.0
 20
0.0
 30
1.0
  9
$PUCSNAME
  2

  9
$PUCSORG
 10
0.0
 20
0.0
 30
0.0
  9
$PUCSXDIR
 10
1.0
 20
0.0
 30
0.0
  9
$PUCSYDIR
 10
0.0
 20
1.0
 30
0.0
  9
$USERI1
 70
     0
  9
$USERI2
 70
     0
  9
$USERI3
 70
     0
  9
$USERI4
 70
     0
  9
$USERI5
 70
     0
  9
$USERR1
 40
0.0
  9
$USERR2
 40
0.0
  9
$USERR3
 40
0.0
  9
$USERR4
 40
0.0
  9
$USERR5
 40
0.0
  9
$WORLDVIEW
 70
     1
  9
$SHADEDGE
 70
     3
  9
$SHADEDIF
 70
    70
  9
$TILEMODE
 70
     1
  9
$MAXACTVP
 70
    64
  9
$PLIMCHECK
 70
     0
  9
$PEXTMIN
 10
27.844751262664801
 20
20.161249995231621
 30
0.0
  9
$PEXTMAX
 10
250.60276136398309
 20
181.4512499570846
 30
0.0
  9
$PLIMMIN
 10
-3.757080078125
 20
-3.7570831775665279
  9
$PLIMMAX
 10
293.21124267578119
 20
206.21624445915219
  9
$UNITMODE
 70
     0
  9
$VISRETAIN
 70
     1
  9
$PLINEGEN
 70
     0
  9
$PSLTSCALE
 70
     1
  0
ENDSEC
  0
SECTION
  2
TABLES
  0
TABLE
  2
VPORT
 70
     2
  0
VPORT
  2
*ACTIVE
 70
     0
 10
0.0
 20
0.0
 11
1.0
 21
1.0
 12
2.4206089530323989
 22
-9.6616765182857378
 13
0.0
 23
0.0
 14
0.01
 24
0.01
 15
1.0
 25
1.0
 16
-1.0
 26
0.0
 36
0.0
 17
0.0
 27
0.0
 37
0.0
 40
31.875485636761582
 41
1.716094032549728
 42
50.0
 43
0.0
 44
0.0
 50
0.0
 51
0.0
 71
     0
 72
   100
 73
     1
 74
     3
 75
     1
 76
     1
 77
     0
 78
     0
  0
ENDTAB
  0
TABLE
  2
LTYPE
 70
     1
  0
LTYPE
  2
CONTINUOUS
 70
     0
  3
Solid line
 72
    65
 73
     0
 40
0.0
  0
ENDTAB
  0
TABLE
  2
LAYER
 70
     9
  0
LAYER
  2
0
 70
     0
 62
     7
  6
CONTINUOUS
  0
LAYER
  2
DRAWING
 70
     0
 62
     9
  6
CONTINUOUS
  0
LAYER
  2
WHEELS
 70
     0
 62
     2
  6
CONTINUOUS
  0
LAYER
  2
MUDGUARDS
 70
     0
 62
     6
  6
CONTINUOUS
  0
LAYER
  2
SCREENS
 70
     0
 62
     4
  6
CONTINUOUS
  0
LAYER
  2
TRACKS
 70
     0
 62
     3
  6
CONTINUOUS
  0
LAYER
  2
TURRET
 70
     0
 62
     2
  6
CONTINUOUS
  0
LAYER
  2
MANTLET
 70
     0
 62
     5
  6
CONTINUOUS
  0
LAYER
  2
BARREL
 70
     0
 62
     1
  6
CONTINUOUS
  0
ENDTAB
  0
TABLE
  2
STYLE
 70
     1
  0
STYLE
  2
STANDARD
 70
     0
 40
0.0
 41
1.0
 50
0.0
 71
     0
 42
2.5
  3
txt
  4

  0
ENDTAB
  0
TABLE
  2
VIEW
 70
     0
  0
ENDTAB
  0
TABLE
  2
UCS
 70
     0
  0
ENDTAB
  0
TABLE
  2
APPID
 70
     1
  0
APPID
  2
ACAD
 70
     0
  0
ENDTAB
  0
TABLE
  2
DIMSTYLE
 70
     1
  0
DIMSTYLE
  2
ISO-25
 70
     0
  3

  4

  5

  6

  7

 40
1.0
 41
2.5
 42
0.625
 43
3.75
 44
1.25
 45
0.0
 46
0.0
 47
0.0
 48
0.0
140
2.5
141
2.5
142
0.0
143
0.03937007874016
144
1.0
145
0.0
146
1.0
147
0.625
 71
     0
 72
     0
 73
     0
 74
     0
 75
     0
 76
     0
 77
     1
 78
     8
170
     0
171
     3
172
     1
173
     0
174
     0
175
     0
176
     0
177
     0
178
     0
  0
ENDTAB
  0
ENDSEC
  0
SECTION
  2
BLOCKS
  0
BLOCK
  8
0
  2
$MODEL_SPACE
 70
     0
 10
0.0
 20
0.0
 30
0.0
  3
$MODEL_SPACE
  1

  0
ENDBLK
  5
21
  8
0
  0
BLOCK
 67
     1
  8
0
  2
$PAPER_SPACE
 70
     0
 10
0.0
 20
0.0
 30
0.0
  3
$PAPER_SPACE
  1

  0
ENDBLK
  5
1D
 67
     1
  8
0
  0
ENDSEC
  0
SECTION
  2
ENTITIES
  0
3DFACE
  5
96
  8
0
 10
-0.9099999999999999
 20
2.2200000000000002
 30
0.4200000000000017
 11
-0.9099999999999999
 21
-1.9699999999999991
 31
0.4200000000000017
 12
-0.9099999999999999
 22
-2.1000000000000001
 32
0.9600000000000044
 13
-0.9099999999999999
 23
2.7199999999999989
 33
0.9600000000000044
  0
3DFACE
  5
97
  8
0
 10
0.9099999999999999
 20
-2.1000000000000001
 30
0.9600000000000044
 11
0.9099999999999999
 21
-1.9699999999999991
 31
0.4200000000000017
 12
0.9099999999999999
 22
2.2200000000000002
 32
0.4200000000000017
 13
0.9099999999999999
 23
2.7199999999999989
 33
0.9600000000000044
  0
3DFACE
  5
98
  8
0
 10
0.6600000000000001
 20
-2.1000000000000001
 30
0.9600000000000044
 11
0.6600000000000001
 21
-1.97
 31
0.4200000000000017
 12
0.9099999999999999
 22
-1.9699999999999991
 32
0.4200000000000017
 13
0.9099999999999999
 23
-2.1000000000000001
 33
0.9600000000000044
  0
3DFACE
  5
9A
  8
0
 10
0.9099999999999999
 20
2.7199999999999989
 30
0.9600000000000044
 11
0.9099999999999999
 21
2.2200000000000002
 31
0.4200000000000017
 12
-0.9099999999999999
 22
2.2200000000000002
 32
0.4200000000000017
 13
-0.9099999999999999
 23
2.7199999999999989
 33
0.9600000000000044
  0
3DFACE
  5
9B
  8
0
 10
0.9099999999999999
 20
2.2200000000000002
 30
0.4200000000000017
 11
0.9099999999999999
 21
-1.9699999999999991
 31
0.4200000000000017
 12
-0.9099999999999999
 22
-1.9699999999999991
 32
0.4200000000000017
 13
-0.9099999999999999
 23
2.2200000000000002
 33
0.4200000000000017
  0
3DFACE
  5
A5
  8
0
 10
0.9099999999999999
 20
-2.4300000000000002
 30
1.210000000000004
 11
0.9099999999999999
 21
-2.4300000000000002
 31
0.9600000000000044
 12
0.9099999999999999
 22
2.7199999999999989
 32
0.9600000000000044
 13
0.9099999999999999
 23
2.649999999999999
 33
1.210000000000004
  0
3DFACE
  5
A6
  8
0
 10
-0.9099999999999999
 20
2.7199999999999989
 30
0.9600000000000044
 11
-0.9099999999999999
 21
-2.4300000000000002
 31
0.9600000000000044
 12
-0.9099999999999999
 22
-2.4300000000000002
 32
1.210000000000004
 13
-0.9099999999999999
 23
2.649999999999999
 33
1.210000000000004
  0
3DFACE
  5
A7
  8
0
 62
     2
 10
-0.9099999999999999
 20
-2.4300000000000002
 30
1.2600000000000009
 11
-0.9099999999999999
 21
-2.4300000000000002
 31
0.9600000000000044
 12
0.9099999999999999
 22
-2.4300000000000002
 32
0.9600000000000044
 13
0.9099999999999999
 23
-2.4300000000000002
 33
1.2600000000000009
  0
3DFACE
  5
A8
  8
0
 10
0.9099999999999999
 20
2.649999999999999
 30
1.210000000000004
 11
0.9099999999999999
 21
2.7199999999999989
 31
0.9600000000000044
 12
-0.9099999999999999
 22
2.7199999999999989
 32
0.9600000000000044
 13
-0.9099999999999999
 23
2.649999999999999
 33
1.210000000000004
  0
3DFACE
  5
A9
  8
0
 10
0.9099999999999999
 20
-2.1000000000000001
 30
0.9600000000000044
 11
0.9099999999999999
 21
-2.4300000000000002
 31
0.9600000000000044
 12
-0.9099999999999999
 22
-2.4300000000000002
 32
0.9600000000000044
 13
-0.9099999999999999
 23
-2.1000000000000001
 33
0.9600000000000044
  0
3DFACE
  5
D0
  8
0
 10
-0.9099999999999999
 20
2.649999999999999
 30
1.210000000000004
 11
-0.9099999999999999
 21
-0.99
 31
1.210000000000004
 12
-0.9099999999999999
 22
-0.99
 32
1.300000000000004
 13
-0.9099999999999999
 23
1.669999999999999
 33
1.300000000000004
  0
3DFACE
  5
D2
  8
0
 10
0.9099999999999999
 20
-0.99
 30
1.300000000000004
 11
0.9099999999999999
 21
-0.99
 31
1.210000000000004
 12
0.9099999999999999
 22
2.649999999999999
 32
1.210000000000004
 13
0.9099999999999999
 23
1.669999999999999
 33
1.300000000000004
  0
3DFACE
  5
D3
  8
0
 10
0.8300000000000002
 20
2.5599999999999992
 30
1.21826530612245
 11
0.9099999999999999
 21
2.649999999999999
 31
1.210000000000004
 12
-0.9099999999999999
 22
2.649999999999999
 32
1.210000000000004
 13
-0.8299999999999997
 23
2.5599999999999992
 33
1.21826530612245
  0
3DFACE
  5
103
  8
0
 10
-0.9099999999999999
 20
-0.9899999999999998
 30
1.210000000000004
 11
-0.9099999999999999
 21
-2.4300000000000002
 31
1.210000000000004
 12
-0.9099999999999999
 22
-2.4300000000000002
 32
1.2600000000000009
 13
-0.9099999999999999
 23
-0.99
 33
1.2600000000000009
  0
3DFACE
  5
104
  8
0
 10
0.9099999999999999
 20
-2.4300000000000002
 30
1.2600000000000009
 11
0.9099999999999999
 21
-2.4300000000000002
 31
1.210000000000004
 12
0.9099999999999999
 22
-0.9899999999999998
 32
1.210000000000004
 13
0.9099999999999999
 23
-0.99
 33
1.2600000000000009
  0
3DFACE
  5
199
  8
0
 10
0.9099999999999999
 20
2.319999999999999
 30
1.0600000000000021
 11
0.9099999999999999
 21
2.0599999999999992
 31
1.1100000000000021
 12
1.0700000000000001
 22
2.0599999999999992
 32
1.0700000000000029
 13
1.0700000000000001
 23
2.319999999999999
 33
1.0200000000000029
  0
3DFACE
  5
19A
  8
0
 10
0.9099999999999999
 20
2.0599999999999992
 30
1.1100000000000021
 11
0.9099999999999999
 21
1.909999999999999
 31
1.069807621135336
 12
1.0700000000000001
 22
1.929999999999999
 32
1.0351666049839561
 13
1.0700000000000001
 23
2.0599999999999992
 33
1.0700000000000029
  0
3DFACE
  5
19B
  8
0
 10
0.9099999999999999
 20
1.909999999999999
 30
1.069807621135336
 11
0.9099999999999999
 21
1.800192378864667
 31
0.9600000000000044
 12
1.0700000000000001
 22
1.8348333950160449
 32
0.9400000000000012
 13
1.0700000000000001
 23
1.929999999999999
 33
1.0351666049839561
  0
3DFACE
  5
19C
  8
0
 10
0.9099999999999999
 20
1.800192378864667
 30
0.9600000000000044
 11
0.9099999999999999
 21
1.7599999999999989
 31
0.8100000000000022
 12
1.0700000000000001
 22
1.7999999999999989
 32
0.8100000000000022
 13
1.0700000000000001
 23
1.8348333950160449
 33
0.9400000000000012
  0
3DFACE
  5
19D
  8
0
 10
0.9099999999999999
 20
1.7599999999999989
 30
0.8100000000000022
 11
0.9099999999999999
 21
1.800192378864667
 31
0.6600000000000037
 12
1.0700000000000001
 22
1.8348333950160449
 32
0.6800000000000033
 13
1.0700000000000001
 23
1.7999999999999989
 33
0.8100000000000022
  0
3DFACE
  5
19E
  8
0
 10
0.9099999999999999
 20
1.800192378864667
 30
0.6600000000000037
 11
0.9099999999999999
 21
1.909999999999999
 31
0.5501923788646721
 12
1.0700000000000001
 22
1.9299999999999979
 32
0.5848333950160481
 13
1.0700000000000001
 23
1.8348333950160449
 33
0.6800000000000033
  0
3DFACE
  5
19F
  8
0
 10
0.9099999999999999
 20
1.909999999999999
 30
0.5501923788646721
 11
0.9099999999999999
 21
2.0599999999999992
 31
0.5100000000000016
 12
1.0700000000000001
 22
2.0599999999999992
 32
0.5500000000000043
 13
1.0700000000000001
 23
1.9299999999999979
 33
0.5848333950160481
  0
3DFACE
  5
1A0
  8
0
 10
0.9099999999999999
 20
2.0599999999999992
 30
0.5100000000000016
 11
0.9099999999999999
 21
2.319999999999999
 31
0.4600000000000044
 12
1.0700000000000001
 22
2.319999999999999
 32
0.5000000000000036
 13
1.069999999999999
 23
2.0599999999999992
 33
0.5500000000000007
  0
3DFACE
  5
1A3
  8
0
 10
0.9100000000000001
 20
2.6200000000000001
 30
0.7600000000000016
 11
0.9099999999999999
 21
2.5798076211353309
 31
0.9100000000000036
 12
1.0700000000000001
 22
2.5451666049839532
 32
0.8900000000000041
 13
1.0700000000000001
 23
2.5800000000000001
 33
0.7600000000000016
  0
3DFACE
  5
1A4
  8
0
 10
0.9099999999999999
 20
2.5798076211353309
 30
0.9100000000000036
 11
0.9099999999999999
 21
2.4699999999999989
 31
1.0198076211353351
 12
1.0700000000000001
 22
2.4500000000000002
 32
0.9851666049839558
 13
1.0700000000000001
 23
2.5451666049839532
 33
0.8900000000000041
  0
3DFACE
  5
1A5
  8
0
 10
0.9099999999999999
 20
2.4699999999999989
 30
1.0198076211353351
 11
0.9099999999999999
 21
2.319999999999999
 31
1.0600000000000021
 12
1.0700000000000001
 22
2.319999999999999
 32
1.0200000000000029
 13
1.0700000000000001
 23
2.4500000000000002
 33
0.9851666049839558
  0
3DFACE
  5
1AC
  8
0
 10
0.9099999999999999
 20
2.319999999999999
 30
0.4600000000000044
 11
0.9099999999999999
 21
2.4699999999999989
 31
0.5001923788646714
 12
1.0700000000000001
 22
2.4500000000000002
 32
0.5348333950160474
 13
1.0700000000000001
 23
2.319999999999999
 33
0.5000000000000036
  0
3DFACE
  5
1AD
  8
0
 10
0.9099999999999999
 20
2.4699999999999989
 30
0.5001923788646714
 11
0.9099999999999999
 21
2.5798076211353309
 31
0.610000000000003
 12
1.0700000000000001
 22
2.5451666049839532
 32
0.6300000000000026
 13
1.0700000000000001
 23
2.4500000000000002
 33
0.5348333950160474
  0
3DFACE
  5
1AE
  8
0
 10
0.9099999999999999
 20
2.5798076211353309
 30
0.610000000000003
 11
0.9100000000000001
 21
2.6200000000000001
 31
0.7600000000000016
 12
1.0700000000000001
 22
2.5800000000000001
 32
0.7600000000000016
 13
1.0700000000000001
 23
2.5451666049839532
 33
0.6300000000000026
  0
3DFACE
  5
1B2
  8
0
 10
-0.9099999999999999
 20
2.3199999999999998
 30
1.0600000000000021
 11
-0.9099999999999999
 21
2.4699999999999989
 31
1.0198076211353351
 12
-1.0700000000000001
 22
2.4500000000000002
 32
0.9851666049839558
 13
-1.0700000000000001
 23
2.3199999999999998
 33
1.0200000000000029
  0
3DFACE
  5
1B3
  8
0
 10
-0.9099999999999999
 20
2.4699999999999989
 30
1.0198076211353351
 11
-0.9099999999999999
 21
2.5798076211353309
 31
0.9100000000000036
 12
-1.0700000000000001
 22
2.5451666049839532
 32
0.8900000000000041
 13
-1.0700000000000001
 23
2.4500000000000002
 33
0.9851666049839558
  0
3DFACE
  5
1B4
  8
0
 10
-0.9099999999999999
 20
2.5798076211353309
 30
0.9100000000000036
 11
-0.9099999999999999
 21
2.6200000000000001
 31
0.7600000000000016
 12
-1.0700000000000001
 22
2.5800000000000001
 32
0.7600000000000016
 13
-1.0700000000000001
 23
2.5451666049839532
 33
0.8900000000000041
  0
3DFACE
  5
1B5
  8
0
 10
-0.9099999999999999
 20
2.6200000000000001
 30
0.7600000000000016
 11
-0.9099999999999999
 21
2.5798076211353309
 31
0.610000000000003
 12
-1.0700000000000001
 22
2.5451666049839541
 32
0.6300000000000026
 13
-1.0700000000000001
 23
2.5800000000000001
 33
0.7600000000000016
  0
3DFACE
  5
1B6
  8
0
 10
-0.9099999999999999
 20
2.5798076211353309
 30
0.610000000000003
 11
-0.9099999999999999
 21
2.4699999999999989
 31
0.5001923788646714
 12
-1.0700000000000001
 22
2.4500000000000002
 32
0.5348333950160474
 13
-1.0700000000000001
 23
2.5451666049839541
 33
0.6300000000000026
  0
3DFACE
  5
1B7
  8
0
 10
-0.9099999999999999
 20
2.4699999999999989
 30
0.5001923788646714
 11
-0.9099999999999999
 21
2.3199999999999998
 31
0.4600000000000044
 12
-1.0700000000000001
 22
2.3199999999999998
 32
0.5000000000000036
 13
-1.0700000000000001
 23
2.4500000000000002
 33
0.5348333950160474
  0
3DFACE
  5
1BB
  8
0
 10
-0.9099999999999999
 20
1.7599999999999989
 30
0.8100000000000022
 11
-0.9099999999999999
 21
1.8001923788646681
 31
0.9600000000000044
 12
-1.0700000000000001
 22
1.834833395016046
 32
0.9400000000000012
 13
-1.0700000000000001
 23
1.7999999999999989
 33
0.8100000000000022
  0
3DFACE
  5
1BC
  8
0
 10
-0.9099999999999999
 20
1.8001923788646681
 30
0.9600000000000044
 11
-0.9099999999999999
 21
1.9099999999999999
 31
1.069807621135336
 12
-1.0700000000000001
 22
1.929999999999999
 32
1.0351666049839561
 13
-1.0700000000000001
 23
1.834833395016046
 33
0.9400000000000012
  0
3DFACE
  5
1BD
  8
0
 10
-0.9099999999999999
 20
1.9099999999999999
 30
1.069807621135336
 11
-0.9099999999999999
 21
2.0599999999999992
 31
1.1100000000000021
 12
-1.0700000000000001
 22
2.0599999999999992
 32
1.0700000000000029
 13
-1.0700000000000001
 23
1.929999999999999
 33
1.0351666049839561
  0
3DFACE
  5
1BE
  8
0
 10
-0.9099999999999999
 20
2.0599999999999992
 30
1.1100000000000021
 11
-0.9099999999999999
 21
2.3199999999999998
 31
1.0600000000000021
 12
-1.0700000000000001
 22
2.3199999999999998
 32
1.0200000000000029
 13
-1.0700000000000001
 23
2.0599999999999992
 33
1.0700000000000029
  0
3DFACE
  5
1C3
  8
0
 10
-0.9099999999999999
 20
2.3199999999999998
 30
0.4600000000000044
 11
-0.9099999999999999
 21
2.0599999999999992
 31
0.5100000000000016
 12
-1.0700000000000001
 22
2.0599999999999992
 32
0.5500000000000043
 13
-1.0700000000000001
 23
2.3199999999999998
 33
0.5000000000000036
  0
3DFACE
  5
1C4
  8
0
 10
-0.9099999999999999
 20
2.0599999999999992
 30
0.5100000000000016
 11
-0.9099999999999999
 21
1.9099999999999999
 31
0.5501923788646721
 12
-1.0700000000000001
 22
1.929999999999999
 32
0.5848333950160481
 13
-1.0700000000000001
 23
2.0599999999999992
 33
0.5500000000000043
  0
3DFACE
  5
1C5
  8
0
 10
-0.9099999999999999
 20
1.9099999999999999
 30
0.5501923788646721
 11
-0.9099999999999999
 21
1.8001923788646681
 31
0.6600000000000037
 12
-1.0700000000000001
 22
1.834833395016046
 32
0.6800000000000033
 13
-1.0700000000000001
 23
1.929999999999999
 33
0.5848333950160481
  0
3DFACE
  5
1C6
  8
0
 10
-0.9099999999999999
 20
1.8001923788646681
 30
0.6600000000000037
 11
-0.9099999999999999
 21
1.7599999999999989
 31
0.8100000000000022
 12
-1.0700000000000001
 22
1.7999999999999989
 32
0.8100000000000022
 13
-1.0700000000000001
 23
1.834833395016046
 33
0.6800000000000033
  0
3DFACE
  5
1C7
  8
0
 10
-1.0700000000000001
 20
2.0599999999999992
 30
1.0700000000000029
 11
-1.0700000000000001
 21
2.3199999999999998
 31
1.0200000000000029
 12
-1.0700000000000001
 22
2.4500000000000002
 32
0.9851666049839558
 13
-1.0700000000000001
 23
1.929999999999999
 33
1.0351666049839561
  0
3DFACE
  5
1C8
  8
0
 10
-1.0700000000000001
 20
1.929999999999999
 30
1.0351666049839561
 11
-1.0700000000000001
 21
2.4500000000000002
 31
0.9851666049839558
 12
-1.0700000000000001
 22
2.5451666049839532
 32
0.8900000000000041
 13
-1.0700000000000001
 23
1.834833395016046
 33
0.9400000000000012
  0
3DFACE
  5
1C9
  8
0
 10
-1.0700000000000001
 20
1.834833395016046
 30
0.9400000000000012
 11
-1.0700000000000001
 21
2.5451666049839532
 31
0.8900000000000041
 12
-1.0700000000000001
 22
2.5800000000000001
 32
0.7600000000000016
 13
-1.0700000000000001
 23
1.7999999999999989
 33
0.8100000000000022
  0
3DFACE
  5
1CA
  8
0
 10
-1.0700000000000001
 20
1.7999999999999989
 30
0.8100000000000022
 11
-1.0700000000000001
 21
2.5800000000000001
 31
0.7600000000000016
 12
-1.0700000000000001
 22
2.5451666049839541
 32
0.6300000000000026
 13
-1.0700000000000001
 23
1.834833395016046
 33
0.6800000000000033
  0
3DFACE
  5
1CB
  8
0
 10
-1.0700000000000001
 20
1.834833395016046
 30
0.6800000000000033
 11
-1.0700000000000001
 21
2.5451666049839541
 31
0.6300000000000026
 12
-1.0700000000000001
 22
2.4500000000000002
 32
0.5348333950160474
 13
-1.0700000000000001
 23
1.929999999999999
 33
0.5848333950160481
  0
3DFACE
  5
1CC
  8
0
 10
-1.0700000000000001
 20
1.929999999999999
 30
0.5848333950160481
 11
-1.0700000000000001
 21
2.4500000000000002
 31
0.5348333950160474
 12
-1.0700000000000001
 22
2.3199999999999998
 32
0.5000000000000036
 13
-1.0700000000000001
 23
2.0599999999999992
 33
0.5500000000000043
  0
3DFACE
  5
1CD
  8
0
 10
1.0700000000000001
 20
1.7999999999999989
 30
0.8100000000000022
 11
1.0700000000000001
 21
2.5800000000000001
 31
0.7600000000000016
 12
1.0700000000000001
 22
2.5451666049839532
 32
0.8900000000000041
 13
1.0700000000000001
 23
1.834833395016046
 33
0.9400000000000012
  0
3DFACE
  5
1CE
  8
0
 10
1.0700000000000001
 20
1.929999999999999
 30
1.0351666049839561
 11
1.0700000000000001
 21
2.4500000000000002
 31
0.9851666049839558
 12
1.0700000000000001
 22
2.319999999999999
 32
1.0200000000000029
 13
1.0700000000000001
 23
2.0599999999999992
 33
1.0700000000000029
  0
3DFACE
  5
1CF
  8
0
 10
1.0700000000000001
 20
1.834833395016046
 30
0.9400000000000012
 11
1.0700000000000001
 21
2.5451666049839532
 31
0.8900000000000041
 12
1.0700000000000001
 22
2.4500000000000002
 32
0.9851666049839558
 13
1.0700000000000001
 23
1.929999999999999
 33
1.0351666049839561
  0
3DFACE
  5
1D0
  8
0
 10
1.0700000000000001
 20
1.834833395016046
 30
0.6800000000000033
 11
1.0700000000000001
 21
2.5451666049839532
 31
0.6300000000000026
 12
1.0700000000000001
 22
2.5800000000000001
 32
0.7600000000000016
 13
1.0700000000000001
 23
1.7999999999999989
 33
0.8100000000000022
  0
3DFACE
  5
1D1
  8
0
 10
1.069999999999999
 20
1.929999999999999
 30
0.5848333950160481
 11
1.0700000000000001
 21
2.4500000000000002
 31
0.5348333950160474
 12
1.0700000000000001
 22
2.5451666049839532
 32
0.6300000000000026
 13
1.0700000000000001
 23
1.834833395016046
 33
0.6800000000000033
  0
3DFACE
  5
1D2
  8
0
 10
1.069999999999999
 20
2.0599999999999992
 30
0.5500000000000007
 11
1.0700000000000001
 21
2.319999999999999
 31
0.5000000000000036
 12
1.0700000000000001
 22
2.4500000000000002
 32
0.5348333950160474
 13
1.069999999999999
 23
1.929999999999999
 33
0.5848333950160481
  0
3DFACE
  5
1D3
  8
0
 10
-0.9099999999999999
 20
2.6008813323717832
 30
0.8313518389615275
 11
-0.9099999999999999
 21
2.4699999999999989
 31
0.5001923788646714
 12
-0.9099999999999999
 22
2.5798076211353309
 32
0.610000000000003
 13
-0.9099999999999999
 23
2.6200000000000001
 33
0.7600000000000016
  0
3DFACE
  5
1D4
  8
0
 10
-0.9099999999999999
 20
2.2665538089480051
 30
0.4702781136638486
 11
-0.9099999999999999
 21
2.3199999999999998
 31
0.4600000000000044
 12
-0.9099999999999999
 22
2.4699999999999989
 32
0.5001923788646714
 13
-0.9099999999999999
 23
2.6008813323717832
 33
0.8313518389615275
  0
3DFACE
  5
1D5
  8
0
 10
0.9099999999999999
 20
2.4699999999999989
 30
0.5001923788646714
 11
0.9099999999999999
 21
2.6008813323717832
 31
0.8313518389615275
 12
0.9100000000000001
 22
2.6200000000000001
 32
0.7600000000000016
 13
0.9099999999999999
 23
2.5798076211353309
 33
0.610000000000003
  0
3DFACE
  5
1D6
  8
0
 10
0.9099999999999999
 20
2.319999999999999
 30
0.4600000000000044
 11
0.9099999999999999
 21
2.2665538089480051
 31
0.4702781136638486
 12
0.9099999999999999
 22
2.6008813323717832
 32
0.8313518389615275
 13
0.9099999999999999
 23
2.4699999999999989
 33
0.5001923788646714
  0
3DFACE
  5
25E
  8
0
 10
-1.0900000000000001
 20
1.849999999999999
 30
0.2800000000000011
 11
-1.0900000000000001
 21
1.3100000000000001
 31
0.2800000000000011
 12
-1.0900000000000001
 22
1.49
 32
0.5500000000000043
 13
-1.0900000000000001
 23
1.6100000000000001
 33
0.5500000000000043
  0
3DFACE
  5
25F
  8
0
 10
-0.9099999999999999
 20
1.4033333333333331
 30
0.4200000000000017
 11
-0.9100000000000001
 21
1.3100000000000001
 31
0.2800000000000011
 12
-0.9100000000000001
 22
1.849999999999999
 32
0.2800000000000011
 13
-0.9099999999999999
 23
1.725555555555556
 33
0.4200000000000017
  0
3DFACE
  5
260
  8
0
 10
-1.0900000000000001
 20
1.49
 30
0.5500000000000043
 11
-1.0900000000000001
 21
1.3100000000000001
 31
0.2800000000000011
 12
-0.9100000000000001
 22
1.3100000000000001
 32
0.2800000000000011
 13
-0.9100000000000001
 23
1.49
 33
0.5500000000000043
  0
3DFACE
  5
261
  8
0
 10
-1.0900000000000001
 20
1.6100000000000001
 30
0.5500000000000043
 11
-1.0900000000000001
 21
1.49
 31
0.5500000000000043
 12
-0.9100000000000001
 22
1.49
 32
0.5500000000000043
 13
-0.9100000000000001
 23
1.6100000000000001
 33
0.5500000000000043
  0
3DFACE
  5
262
  8
0
 10
-0.9100000000000001
 20
1.6100000000000001
 30
0.5500000000000043
 11
-0.9100000000000001
 21
1.849999999999999
 31
0.2800000000000011
 12
-1.0900000000000001
 22
1.849999999999999
 32
0.2800000000000011
 13
-1.0900000000000001
 23
1.6100000000000001
 33
0.5500000000000043
  0
3DFACE
  5
265
  8
0
 10
-1.0900000000000001
 20
1.3100000000000001
 30
0.2800000000000011
 11
-1.0900000000000001
 21
1.8500000000000001
 31
0.2800000000000011
 12
-1.0900000000000001
 22
1.8500000000000001
 32
0.2100000000000044
 13
-1.0900000000000001
 23
1.3100000000000001
 33
0.2100000000000044
  0
3DFACE
  5
266
  8
0
 10
-0.9100000000000001
 20
1.8500000000000001
 30
0.2100000000000044
 11
-0.9100000000000001
 21
1.8500000000000001
 31
0.2800000000000011
 12
-0.9100000000000001
 22
1.3100000000000001
 32
0.2800000000000011
 13
-0.9100000000000001
 23
1.3100000000000001
 33
0.2100000000000044
  0
3DFACE
  5
267
  8
0
 10
-1.0900000000000001
 20
1.3100000000000001
 30
0.2100000000000044
 11
-1.0900000000000001
 21
1.8500000000000001
 31
0.2100000000000044
 12
-0.9100000000000001
 22
1.8500000000000001
 32
0.2100000000000044
 13
-0.9100000000000001
 23
1.3100000000000001
 33
0.2100000000000044
  0
3DFACE
  5
268
  8
0
 10
-1.0900000000000001
 20
1.8500000000000001
 30
0.2100000000000044
 11
-1.0900000000000001
 21
1.8500000000000001
 31
0.2800000000000011
 12
-0.9100000000000001
 22
1.8500000000000001
 32
0.2800000000000011
 13
-0.9100000000000001
 23
1.8500000000000001
 33
0.2100000000000044
  0
3DFACE
  5
269
  8
0
 10
-0.9100000000000001
 20
1.3100000000000001
 30
0.2100000000000044
 11
-0.9100000000000001
 21
1.3100000000000001
 31
0.2800000000000011
 12
-1.0900000000000001
 22
1.3100000000000001
 32
0.2800000000000011
 13
-1.0900000000000001
 23
1.3100000000000001
 33
0.2100000000000044
  0
3DFACE
  5
26C
  8
0
 10
0.9099999999999999
 20
1.49
 30
0.5500000000000043
 11
0.9099999999999999
 21
1.3100000000000001
 31
0.2800000000000011
 12
1.089999999999999
 22
1.3100000000000001
 32
0.2800000000000011
 13
1.089999999999999
 23
1.49
 33
0.5500000000000043
  0
3DFACE
  5
26D
  8
0
 10
0.9099999999999999
 20
1.6100000000000001
 30
0.5500000000000043
 11
0.9099999999999999
 21
1.49
 31
0.5500000000000043
 12
1.089999999999999
 22
1.49
 32
0.5500000000000043
 13
1.089999999999999
 23
1.6100000000000001
 33
0.5500000000000043
  0
3DFACE
  5
26E
  8
0
 10
1.089999999999999
 20
1.49
 30
0.5500000000000043
 11
1.089999999999999
 21
1.3100000000000001
 31
0.2800000000000011
 12
1.089999999999999
 22
1.849999999999999
 32
0.2800000000000011
 13
1.089999999999999
 23
1.6100000000000001
 33
0.5500000000000043
  0
3DFACE
  5
26F
  8
0
 10
1.089999999999999
 20
1.6100000000000001
 30
0.5500000000000043
 11
1.089999999999999
 21
1.849999999999999
 31
0.2800000000000011
 12
0.9099999999999999
 22
1.849999999999999
 32
0.2800000000000011
 13
0.9099999999999999
 23
1.6100000000000001
 33
0.5500000000000043
  0
3DFACE
  5
270
  8
0
 10
0.9099999999999999
 20
1.849999999999999
 30
0.2800000000000011
 11
0.9099999999999999
 21
1.3100000000000001
 31
0.2800000000000011
 12
0.9099999999999999
 22
1.4033333333333331
 32
0.4200000000000017
 13
0.9099999999999999
 23
1.725555555555556
 33
0.4200000000000017
  0
3DFACE
  5
272
  8
0
 10
0.9099999999999999
 20
1.3100000000000001
 30
0.2800000000000011
 11
0.9099999999999999
 21
1.8500000000000001
 31
0.2800000000000011
 12
0.9099999999999999
 22
1.8500000000000001
 32
0.2100000000000044
 13
0.9099999999999999
 23
1.3100000000000001
 33
0.2100000000000044
  0
3DFACE
  5
273
  8
0
 10
0.9099999999999999
 20
1.3100000000000001
 30
0.2100000000000044
 11
0.9099999999999999
 21
1.8500000000000001
 31
0.2100000000000044
 12
1.089999999999999
 22
1.8500000000000001
 32
0.2100000000000044
 13
1.089999999999999
 23
1.3100000000000001
 33
0.2100000000000044
  0
3DFACE
  5
275
  8
0
 10
0.9099999999999999
 20
1.8500000000000001
 30
0.2100000000000044
 11
0.9099999999999999
 21
1.8500000000000001
 31
0.2800000000000011
 12
1.089999999999999
 22
1.8500000000000001
 32
0.2800000000000011
 13
1.089999999999999
 23
1.8500000000000001
 33
0.2100000000000044
  0
3DFACE
  5
276
  8
0
 10
1.089999999999999
 20
1.8500000000000001
 30
0.2100000000000044
 11
1.089999999999999
 21
1.8500000000000001
 31
0.2800000000000011
 12
1.089999999999999
 22
1.3100000000000001
 32
0.2800000000000011
 13
1.089999999999999
 23
1.3100000000000001
 33
0.2100000000000044
  0
3DFACE
  5
277
  8
0
 10
1.089999999999999
 20
1.3100000000000001
 30
0.2100000000000044
 11
1.089999999999999
 21
1.3100000000000001
 31
0.2800000000000011
 12
0.9099999999999999
 22
1.3100000000000001
 32
0.2800000000000011
 13
0.9099999999999999
 23
1.3100000000000001
 33
0.2100000000000044
  0
3DFACE
  5
2F2
  8
0
 10
0.9099999999999999
 20
0.5099999999999998
 30
0.5500000000000043
 11
0.9099999999999999
 21
0.3300000000000001
 31
0.2800000000000011
 12
1.089999999999999
 22
0.3300000000000001
 32
0.2800000000000011
 13
1.089999999999999
 23
0.5099999999999998
 33
0.5500000000000043
  0
3DFACE
  5
2F3
  8
0
 10
-1.0900000000000001
 20
0.5099999999999998
 30
0.5500000000000043
 11
-1.0900000000000001
 21
0.3300000000000001
 31
0.2800000000000011
 12
-0.9100000000000001
 22
0.3300000000000001
 32
0.2800000000000011
 13
-0.9100000000000001
 23
0.5099999999999998
 33
0.5500000000000043
  0
3DFACE
  5
314
  8
0
 10
-0.9100000000000001
 20
0.3300000000000001
 30
0.2100000000000044
 11
-0.9100000000000001
 21
0.3300000000000005
 31
0.2800000000000011
 12
-1.0900000000000001
 22
0.3300000000000005
 32
0.2800000000000011
 13
-1.0900000000000001
 23
0.3300000000000001
 33
0.2100000000000044
  0
3DFACE
  5
329
  8
0
 10
1.089999999999999
 20
0.3300000000000001
 30
0.2100000000000044
 11
1.089999999999999
 21
0.3300000000000005
 31
0.2800000000000011
 12
0.9099999999999999
 22
0.3300000000000005
 32
0.2800000000000011
 13
0.9099999999999999
 23
0.3300000000000001
 33
0.2100000000000044
  0
3DFACE
  5
336
  8
0
 10
-1.0900000000000001
 20
0.6299999999999999
 30
0.5500000000000043
 11
-1.0900000000000001
 21
0.5099999999999998
 31
0.5500000000000043
 12
-0.9100000000000001
 22
0.5099999999999998
 32
0.5500000000000043
 13
-0.9100000000000001
 23
0.6299999999999999
 33
0.5500000000000043
  0
3DFACE
  5
33F
  8
0
 10
0.9099999999999999
 20
0.6299999999999999
 30
0.5500000000000043
 11
0.9099999999999999
 21
0.5099999999999998
 31
0.5500000000000043
 12
1.089999999999999
 22
0.5099999999999998
 32
0.5500000000000043
 13
1.089999999999999
 23
0.6299999999999999
 33
0.5500000000000043
  0
3DFACE
  5
340
  8
0
 10
1.089999999999999
 20
0.6299999999999999
 30
0.5500000000000043
 11
1.089999999999999
 21
0.8699999999999996
 31
0.2800000000000011
 12
0.9099999999999999
 22
0.8699999999999996
 32
0.2800000000000011
 13
0.9099999999999999
 23
0.6299999999999999
 33
0.5500000000000043
  0
3DFACE
  5
341
  8
0
 10
-0.9100000000000001
 20
0.6299999999999999
 30
0.5500000000000043
 11
-0.9100000000000001
 21
0.8699999999999996
 31
0.2800000000000011
 12
-1.0900000000000001
 22
0.8699999999999996
 32
0.2800000000000011
 13
-1.0900000000000001
 23
0.6299999999999999
 33
0.5500000000000043
  0
3DFACE
  5
346
  8
0
 10
-1.0900000000000001
 20
0.8700000000000001
 30
0.2100000000000044
 11
-1.0900000000000001
 21
0.8700000000000001
 31
0.2800000000000011
 12
-0.9100000000000001
 22
0.8700000000000001
 32
0.2800000000000011
 13
-0.9100000000000001
 23
0.8700000000000001
 33
0.2100000000000044
  0
3DFACE
  5
347
  8
0
 10
0.9099999999999999
 20
0.8700000000000001
 30
0.2100000000000044
 11
0.9099999999999999
 21
0.8700000000000001
 31
0.2800000000000011
 12
1.089999999999999
 22
0.8700000000000001
 32
0.2800000000000011
 13
1.089999999999999
 23
0.8700000000000001
 33
0.2100000000000044
  0
3DFACE
  5
389
  8
0
 10
1.089999999999999
 20
0.5099999999999998
 30
0.5500000000000043
 11
1.089999999999999
 21
0.3300000000000001
 31
0.2800000000000011
 12
1.089999999999999
 22
0.8699999999999996
 32
0.2800000000000011
 13
1.089999999999999
 23
0.6299999999999999
 33
0.5500000000000043
  0
3DFACE
  5
38A
  8
0
 10
-1.0900000000000001
 20
0.8699999999999996
 30
0.2800000000000011
 11
-1.0900000000000001
 21
0.3300000000000001
 31
0.2800000000000011
 12
-1.0900000000000001
 22
0.5099999999999998
 32
0.5500000000000043
 13
-1.0900000000000001
 23
0.6299999999999999
 33
0.5500000000000043
  0
3DFACE
  5
38E
  8
0
 10
-0.9099999999999999
 20
0.4233333333333338
 30
0.4200000000000017
 11
-0.9100000000000001
 21
0.3300000000000001
 31
0.2800000000000011
 12
-0.9100000000000001
 22
0.8699999999999996
 32
0.2800000000000011
 13
-0.9099999999999999
 23
0.7455555555555562
 33
0.4200000000000017
  0
3DFACE
  5
38F
  8
0
 10
0.9099999999999999
 20
0.8699999999999996
 30
0.2800000000000011
 11
0.9099999999999999
 21
0.3300000000000001
 31
0.2800000000000011
 12
0.9099999999999999
 22
0.4233333333333334
 32
0.4200000000000017
 13
0.9099999999999999
 23
0.7455555555555562
 33
0.4200000000000017
  0
3DFACE
  5
390
  8
0
 10
-0.9100000000000001
 20
0.8700000000000001
 30
0.2100000000000044
 11
-0.9100000000000001
 21
0.8700000000000001
 31
0.2800000000000011
 12
-0.9100000000000001
 22
0.3300000000000005
 32
0.2800000000000011
 13
-0.9100000000000001
 23
0.3300000000000001
 33
0.2100000000000044
  0
3DFACE
  5
391
  8
0
 10
-1.0900000000000001
 20
0.3300000000000005
 30
0.2800000000000011
 11
-1.0900000000000001
 21
0.8700000000000001
 31
0.2800000000000011
 12
-1.0900000000000001
 22
0.8700000000000001
 32
0.2100000000000044
 13
-1.0900000000000001
 23
0.3300000000000001
 33
0.2100000000000044
  0
3DFACE
  5
392
  8
0
 10
-1.0900000000000001
 20
0.3300000000000001
 30
0.2100000000000044
 11
-1.0900000000000001
 21
0.8700000000000001
 31
0.2100000000000044
 12
-0.9100000000000001
 22
0.8700000000000001
 32
0.2100000000000044
 13
-0.9100000000000001
 23
0.3300000000000001
 33
0.2100000000000044
  0
3DFACE
  5
393
  8
0
 10
1.089999999999999
 20
0.8700000000000001
 30
0.2100000000000044
 11
1.089999999999999
 21
0.8700000000000001
 31
0.2800000000000011
 12
1.089999999999999
 22
0.3300000000000005
 32
0.2800000000000011
 13
1.089999999999999
 23
0.3300000000000001
 33
0.2100000000000044
  0
3DFACE
  5
394
  8
0
 10
0.9099999999999999
 20
0.3300000000000001
 30
0.2100000000000044
 11
0.9099999999999999
 21
0.8700000000000001
 31
0.2100000000000044
 12
1.089999999999999
 22
0.8700000000000001
 32
0.2100000000000044
 13
1.089999999999999
 23
0.3300000000000001
 33
0.2100000000000044
  0
3DFACE
  5
395
  8
0
 10
0.9099999999999999
 20
0.3300000000000005
 30
0.2800000000000011
 11
0.9099999999999999
 21
0.8700000000000001
 31
0.2800000000000011
 12
0.9099999999999999
 22
0.8700000000000001
 32
0.2100000000000044
 13
0.9099999999999999
 23
0.3300000000000001
 33
0.2100000000000044
  0
3DFACE
  5
396
  8
0
 10
0.9099999999999999
 20
-0.1400000000000006
 30
0.2800000000000011
 11
0.9099999999999999
 21
-0.6800000000000002
 31
0.2800000000000011
 12
0.9099999999999999
 22
-0.5866666666666669
 32
0.4200000000000017
 13
0.9099999999999999
 23
-0.264444444444444
 33
0.4200000000000017
  0
3DFACE
  5
397
  8
0
 10
-0.9099999999999999
 20
-0.5866666666666665
 30
0.4200000000000017
 11
-0.9100000000000001
 21
-0.6800000000000002
 31
0.2800000000000011
 12
-0.9100000000000001
 22
-0.1400000000000006
 32
0.2800000000000011
 13
-0.9099999999999999
 23
-0.264444444444444
 33
0.4200000000000017
  0
3DFACE
  5
39B
  8
0
 10
-1.0900000000000001
 20
-0.1400000000000006
 30
0.2800000000000011
 11
-1.0900000000000001
 21
-0.6800000000000002
 31
0.2800000000000011
 12
-1.0900000000000001
 22
-0.5
 32
0.5500000000000043
 13
-1.0900000000000001
 23
-0.3799999999999999
 33
0.5500000000000043
  0
3DFACE
  5
39C
  8
0
 10
1.089999999999999
 20
-0.5
 30
0.5500000000000043
 11
1.089999999999999
 21
-0.6800000000000002
 31
0.2800000000000011
 12
1.089999999999999
 22
-0.1400000000000006
 32
0.2800000000000011
 13
1.089999999999999
 23
-0.3799999999999999
 33
0.5500000000000043
  0
3DFACE
  5
3B2
  8
0
 10
-0.9100000000000001
 20
-0.3799999999999999
 30
0.5500000000000043
 11
-0.9100000000000001
 21
-0.1400000000000006
 31
0.2800000000000011
 12
-1.0900000000000001
 22
-0.1400000000000006
 32
0.2800000000000011
 13
-1.0900000000000001
 23
-0.3799999999999999
 33
0.5500000000000043
  0
3DFACE
  5
3B3
  8
0
 10
1.089999999999999
 20
-0.3799999999999999
 30
0.5500000000000043
 11
1.089999999999999
 21
-0.1400000000000006
 31
0.2800000000000011
 12
0.9099999999999999
 22
-0.1400000000000006
 32
0.2800000000000011
 13
0.9099999999999999
 23
-0.3799999999999999
 33
0.5500000000000043
  0
3DFACE
  5
3BC
  8
0
 10
-1.0900000000000001
 20
-0.5
 30
0.5500000000000043
 11
-1.0900000000000001
 21
-0.6800000000000002
 31
0.2800000000000011
 12
-0.9100000000000001
 22
-0.6800000000000002
 32
0.2800000000000011
 13
-0.9100000000000001
 23
-0.5
 33
0.5500000000000043
  0
3DFACE
  5
3BD
  8
0
 10
0.9099999999999999
 20
-0.5
 30
0.5500000000000043
 11
0.9099999999999999
 21
-0.6800000000000002
 31
0.2800000000000011
 12
1.089999999999999
 22
-0.6800000000000002
 32
0.2800000000000011
 13
1.089999999999999
 23
-0.5
 33
0.5500000000000043
  0
3DFACE
  5
3DE
  8
0
 10
-1.0900000000000001
 20
-0.6800000000000002
 30
0.2100000000000044
 11
-1.0900000000000001
 21
-0.1400000000000001
 31
0.2100000000000044
 12
-0.9100000000000001
 22
-0.1400000000000001
 32
0.2100000000000044
 13
-0.9100000000000001
 23
-0.6800000000000002
 33
0.2100000000000044
  0
3DFACE
  5
3DF
  8
0
 10
-1.0900000000000001
 20
-0.6799999999999998
 30
0.2800000000000011
 11
-1.0900000000000001
 21
-0.1400000000000001
 31
0.2800000000000011
 12
-1.0900000000000001
 22
-0.1400000000000001
 32
0.2100000000000044
 13
-1.0900000000000001
 23
-0.6800000000000002
 33
0.2100000000000044
  0
3DFACE
  5
3E0
  8
0
 10
-0.9100000000000001
 20
-0.1400000000000001
 30
0.2100000000000044
 11
-0.9100000000000001
 21
-0.1400000000000001
 31
0.2800000000000011
 12
-0.9100000000000001
 22
-0.6799999999999998
 32
0.2800000000000011
 13
-0.9100000000000001
 23
-0.6800000000000002
 33
0.2100000000000044
  0
3DFACE
  5
3ED
  8
0
 10
-1.0900000000000001
 20
-0.1400000000000001
 30
0.2100000000000044
 11
-1.0900000000000001
 21
-0.1400000000000001
 31
0.2800000000000011
 12
-0.9100000000000001
 22
-0.1400000000000001
 32
0.2800000000000011
 13
-0.9100000000000001
 23
-0.1400000000000001
 33
0.2100000000000044
  0
3DFACE
  5
3F2
  8
0
 10
-0.9100000000000001
 20
-0.6800000000000002
 30
0.2100000000000044
 11
-0.9100000000000001
 21
-0.6799999999999998
 31
0.2800000000000011
 12
-1.0900000000000001
 22
-0.6799999999999998
 32
0.2800000000000011
 13
-1.0900000000000001
 23
-0.6800000000000002
 33
0.2100000000000044
  0
3DFACE
  5
40B
  8
0
 10
0.9099999999999999
 20
-0.6799999999999998
 30
0.2800000000000011
 11
0.9099999999999999
 21
-0.1400000000000001
 31
0.2800000000000011
 12
0.9099999999999999
 22
-0.1400000000000001
 32
0.2100000000000044
 13
0.9099999999999999
 23
-0.6800000000000002
 33
0.2100000000000044
  0
3DFACE
  5
40C
  8
0
 10
0.9099999999999999
 20
-0.6800000000000002
 30
0.2100000000000044
 11
0.9099999999999999
 21
-0.1400000000000001
 31
0.2100000000000044
 12
1.089999999999999
 22
-0.1400000000000001
 32
0.2100000000000044
 13
1.089999999999999
 23
-0.6800000000000002
 33
0.2100000000000044
  0
3DFACE
  5
40D
  8
0
 10
1.089999999999999
 20
-0.1400000000000001
 30
0.2100000000000044
 11
1.089999999999999
 21
-0.1400000000000001
 31
0.2800000000000011
 12
1.089999999999999
 22
-0.6799999999999998
 32
0.2800000000000011
 13
1.089999999999999
 23
-0.6800000000000002
 33
0.2100000000000044
  0
3DFACE
  5
41E
  8
0
 10
0.9099999999999999
 20
-0.1400000000000001
 30
0.2100000000000044
 11
0.9099999999999999
 21
-0.1400000000000001
 31
0.2800000000000011
 12
1.089999999999999
 22
-0.1400000000000001
 32
0.2800000000000011
 13
1.089999999999999
 23
-0.1400000000000001
 33
0.2100000000000044
  0
3DFACE
  5
423
  8
0
 10
1.089999999999999
 20
-0.6800000000000002
 30
0.2100000000000044
 11
1.089999999999999
 21
-0.6799999999999998
 31
0.2800000000000011
 12
0.9099999999999999
 22
-0.6799999999999998
 32
0.2800000000000011
 13
0.9099999999999999
 23
-0.6800000000000002
 33
0.2100000000000044
  0
3DFACE
  5
440
  8
0
 10
-1.0900000000000001
 20
-0.3799999999999999
 30
0.5500000000000043
 11
-1.0900000000000001
 21
-0.5
 31
0.5500000000000043
 12
-0.9100000000000001
 22
-0.5
 32
0.5500000000000043
 13
-0.9100000000000001
 23
-0.3799999999999999
 33
0.5500000000000043
  0
3DFACE
  5
451
  8
0
 10
0.9099999999999999
 20
-0.3799999999999999
 30
0.5500000000000043
 11
0.9099999999999999
 21
-0.5
 31
0.5500000000000043
 12
1.089999999999999
 22
-0.5
 32
0.5500000000000043
 13
1.089999999999999
 23
-0.3799999999999999
 33
0.5500000000000043
  0
3DFACE
  5
49A
  8
0
 10
0.9099999999999999
 20
-1.51
 30
0.5500000000000043
 11
0.9099999999999999
 21
-1.6899999999999991
 31
0.2800000000000011
 12
1.089999999999999
 22
-1.6899999999999991
 32
0.2800000000000011
 13
1.089999999999999
 23
-1.51
 33
0.5500000000000043
  0
3DFACE
  5
49B
  8
0
 10
-1.0900000000000001
 20
-1.51
 30
0.5500000000000043
 11
-1.0900000000000001
 21
-1.6899999999999991
 31
0.2800000000000011
 12
-0.9100000000000001
 22
-1.6899999999999991
 32
0.2800000000000011
 13
-0.9100000000000001
 23
-1.51
 33
0.5500000000000043
  0
3DFACE
  5
4A4
  8
0
 10
1.089999999999999
 20
-1.3899999999999999
 30
0.5500000000000043
 11
1.089999999999999
 21
-1.1499999999999999
 31
0.2800000000000011
 12
0.9099999999999999
 22
-1.1499999999999999
 32
0.2800000000000011
 13
0.9099999999999999
 23
-1.3899999999999999
 33
0.5500000000000043
  0
3DFACE
  5
4A5
  8
0
 10
-0.9100000000000001
 20
-1.3899999999999999
 30
0.5500000000000043
 11
-0.9100000000000001
 21
-1.1499999999999999
 31
0.2800000000000011
 12
-1.0900000000000001
 22
-1.1499999999999999
 32
0.2800000000000011
 13
-1.0900000000000001
 23
-1.3899999999999999
 33
0.5500000000000043
  0
3DFACE
  5
4BB
  8
0
 10
1.089999999999999
 20
-1.51
 30
0.5500000000000043
 11
1.089999999999999
 21
-1.6899999999999991
 31
0.2800000000000011
 12
1.089999999999999
 22
-1.1499999999999999
 32
0.2800000000000011
 13
1.089999999999999
 23
-1.3899999999999999
 33
0.5500000000000043
  0
3DFACE
  5
4BC
  8
0
 10
-1.0900000000000001
 20
-1.1499999999999999
 30
0.2800000000000011
 11
-1.0900000000000001
 21
-1.6899999999999991
 31
0.2800000000000011
 12
-1.0900000000000001
 22
-1.51
 32
0.5500000000000043
 13
-1.0900000000000001
 23
-1.3899999999999999
 33
0.5500000000000043
  0
3DFACE
  5
4C0
  8
0
 10
-0.9099999999999999
 20
-1.596666666666666
 30
0.4200000000000017
 11
-0.9100000000000001
 21
-1.6899999999999991
 31
0.2800000000000011
 12
-0.9100000000000001
 22
-1.1499999999999999
 32
0.2800000000000011
 13
-0.9099999999999999
 23
-1.2744444444444429
 33
0.4200000000000017
  0
3DFACE
  5
4C1
  8
0
 10
0.9099999999999999
 20
-1.1499999999999999
 30
0.2800000000000011
 11
0.9099999999999999
 21
-1.6899999999999991
 31
0.2800000000000011
 12
0.9099999999999999
 22
-1.596666666666666
 32
0.4200000000000017
 13
0.9099999999999999
 23
-1.2744444444444429
 33
0.4200000000000017
  0
3DFACE
  5
4CE
  8
0
 10
-0.9100000000000001
 20
-1.6899999999999991
 30
0.2100000000000044
 11
-0.9100000000000001
 21
-1.6899999999999991
 31
0.2800000000000011
 12
-1.0900000000000001
 22
-1.6899999999999991
 32
0.2800000000000011
 13
-1.0900000000000001
 23
-1.6899999999999991
 33
0.2100000000000044
  0
3DFACE
  5
4D3
  8
0
 10
-1.0900000000000001
 20
-1.149999999999999
 30
0.2100000000000044
 11
-1.0900000000000001
 21
-1.149999999999999
 31
0.2800000000000011
 12
-0.9100000000000001
 22
-1.149999999999999
 32
0.2800000000000011
 13
-0.9100000000000001
 23
-1.149999999999999
 33
0.2100000000000044
  0
3DFACE
  5
4E0
  8
0
 10
-0.9100000000000001
 20
-1.149999999999999
 30
0.2100000000000044
 11
-0.9100000000000001
 21
-1.149999999999999
 31
0.2800000000000011
 12
-0.9100000000000001
 22
-1.6899999999999991
 32
0.2800000000000011
 13
-0.9100000000000001
 23
-1.6899999999999991
 33
0.2100000000000044
  0
3DFACE
  5
4E1
  8
0
 10
-1.0900000000000001
 20
-1.6899999999999991
 30
0.2800000000000011
 11
-1.0900000000000001
 21
-1.149999999999999
 31
0.2800000000000011
 12
-1.0900000000000001
 22
-1.149999999999999
 32
0.2100000000000044
 13
-1.0900000000000001
 23
-1.6899999999999991
 33
0.2100000000000044
  0
3DFACE
  5
4E2
  8
0
 10
-1.0900000000000001
 20
-1.6899999999999991
 30
0.2100000000000044
 11
-1.0900000000000001
 21
-1.149999999999999
 31
0.2100000000000044
 12
-0.9100000000000001
 22
-1.149999999999999
 32
0.2100000000000044
 13
-0.9100000000000001
 23
-1.6899999999999991
 33
0.2100000000000044
  0
3DFACE
  5
4EB
  8
0
 10
1.089999999999999
 20
-1.6899999999999991
 30
0.2100000000000044
 11
1.089999999999999
 21
-1.6899999999999991
 31
0.2800000000000011
 12
0.9099999999999999
 22
-1.6899999999999991
 32
0.2800000000000011
 13
0.9099999999999999
 23
-1.6899999999999991
 33
0.2100000000000044
  0
3DFACE
  5
4F0
  8
0
 10
0.9099999999999999
 20
-1.149999999999999
 30
0.2100000000000044
 11
0.9099999999999999
 21
-1.149999999999999
 31
0.2800000000000011
 12
1.089999999999999
 22
-1.149999999999999
 32
0.2800000000000011
 13
1.089999999999999
 23
-1.149999999999999
 33
0.2100000000000044
  0
3DFACE
  5
501
  8
0
 10
1.089999999999999
 20
-1.149999999999999
 30
0.2100000000000044
 11
1.089999999999999
 21
-1.149999999999999
 31
0.2800000000000011
 12
1.089999999999999
 22
-1.6899999999999991
 32
0.2800000000000011
 13
1.089999999999999
 23
-1.6899999999999991
 33
0.2100000000000044
  0
3DFACE
  5
502
  8
0
 10
0.9099999999999999
 20
-1.6899999999999991
 30
0.2100000000000044
 11
0.9099999999999999
 21
-1.149999999999999
 31
0.2100000000000044
 12
1.089999999999999
 22
-1.149999999999999
 32
0.2100000000000044
 13
1.089999999999999
 23
-1.6899999999999991
 33
0.2100000000000044
  0
3DFACE
  5
503
  8
0
 10
0.9099999999999999
 20
-1.6899999999999991
 30
0.2800000000000011
 11
0.9099999999999999
 21
-1.149999999999999
 31
0.2800000000000011
 12
0.9099999999999999
 22
-1.149999999999999
 32
0.2100000000000044
 13
0.9099999999999999
 23
-1.6899999999999991
 33
0.2100000000000044
  0
3DFACE
  5
508
  8
0
 10
-1.0900000000000001
 20
-1.3899999999999999
 30
0.5500000000000043
 11
-1.0900000000000001
 21
-1.51
 31
0.5500000000000043
 12
-0.9100000000000001
 22
-1.51
 32
0.5500000000000043
 13
-0.9100000000000001
 23
-1.3899999999999999
 33
0.5500000000000043
  0
3DFACE
  5
515
  8
0
 10
0.9099999999999999
 20
-1.3899999999999999
 30
0.5500000000000043
 11
0.9099999999999999
 21
-1.51
 31
0.5500000000000043
 12
1.089999999999999
 22
-1.51
 32
0.5500000000000043
 13
1.089999999999999
 23
-1.3899999999999999
 33
0.5500000000000043
  0
3DFACE
  5
88E
  8
0
 10
0.36
 20
-1.97
 30
0.4200000000000017
 11
0.36
 21
-2.29
 31
0.5200000000000032
 12
0.36
 22
-2.359999999999999
 32
0.9600000000000044
 13
0.36
 23
-2.1000000000000001
 33
0.9600000000000044
  0
3DFACE
  5
88F
  8
0
 10
0.6600000000000001
 20
-2.359999999999999
 30
0.9600000000000044
 11
0.6600000000000001
 21
-2.29
 31
0.5200000000000032
 12
0.6600000000000001
 22
-1.97
 32
0.4200000000000017
 13
0.6600000000000001
 23
-2.1000000000000001
 33
0.9600000000000044
  0
3DFACE
  5
890
  8
0
 10
0.36
 20
-2.359999999999999
 30
0.9600000000000044
 11
0.36
 21
-2.29
 31
0.5200000000000032
 12
0.6600000000000001
 22
-2.29
 32
0.5200000000000032
 13
0.6600000000000001
 23
-2.359999999999999
 33
0.9600000000000044
  0
3DFACE
  5
891
  8
0
 10
0.36
 20
-2.1000000000000001
 30
0.9600000000000044
 11
0.36
 21
-2.359999999999999
 31
0.9600000000000044
 12
0.6600000000000001
 22
-2.359999999999999
 32
0.9600000000000044
 13
0.6600000000000001
 23
-2.1000000000000001
 33
0.9600000000000044
  0
3DFACE
  5
893
  8
0
 10
0.6600000000000001
 20
-1.97
 30
0.4200000000000017
 11
0.6600000000000001
 21
-2.29
 31
0.5200000000000032
 12
0.36
 22
-2.29
 32
0.5200000000000032
 13
0.36
 23
-1.97
 33
0.4200000000000017
  0
3DFACE
  5
897
  8
0
 10
-0.6600000000000001
 20
-1.97
 30
0.4200000000000017
 11
-0.6600000000000001
 21
-2.29
 31
0.5200000000000032
 12
-0.6600000000000001
 22
-2.359999999999999
 32
0.9600000000000044
 13
-0.6600000000000001
 23
-2.1000000000000001
 33
0.9600000000000044
  0
3DFACE
  5
898
  8
0
 10
-0.36
 20
-1.97
 30
0.4200000000000017
 11
-0.36
 21
-2.29
 31
0.5200000000000032
 12
-0.6600000000000001
 22
-2.29
 32
0.5200000000000032
 13
-0.6600000000000001
 23
-1.97
 33
0.4200000000000017
  0
3DFACE
  5
899
  8
0
 10
-0.6600000000000001
 20
-2.1000000000000001
 30
0.9600000000000044
 11
-0.6600000000000001
 21
-2.359999999999999
 31
0.9600000000000044
 12
-0.36
 22
-2.359999999999999
 32
0.9600000000000044
 13
-0.36
 23
-2.1000000000000001
 33
0.9600000000000044
  0
3DFACE
  5
89A
  8
0
 10
-0.6600000000000001
 20
-2.359999999999999
 30
0.9600000000000044
 11
-0.6600000000000001
 21
-2.29
 31
0.5200000000000032
 12
-0.36
 22
-2.29
 32
0.5200000000000032
 13
-0.36
 23
-2.359999999999999
 33
0.9600000000000044
  0
3DFACE
  5
89B
  8
0
 10
-0.36
 20
-2.359999999999999
 30
0.9600000000000044
 11
-0.36
 21
-2.29
 31
0.5200000000000032
 12
-0.36
 22
-1.97
 32
0.4200000000000017
 13
-0.36
 23
-2.1000000000000001
 33
0.9600000000000044
  0
3DFACE
  5
8B4
  8
0
 10
-0.61
 20
-2.4500000000000002
 30
0.5900000000000034
 11
-0.61
 21
-2.4265685424949228
 31
0.6465685424949257
 12
-1.1200000000000001
 22
-2.4265685424949228
 32
0.6465685424949257
 13
-1.1200000000000001
 23
-2.4500000000000002
 33
0.5900000000000034
  0
3DFACE
  5
8B5
  8
0
 10
-0.61
 20
-2.4265685424949228
 30
0.6465685424949257
 11
-0.61
 21
-2.3700000000000001
 31
0.6700000000000017
 12
-1.1200000000000001
 22
-2.3700000000000001
 32
0.6700000000000017
 13
-1.1200000000000001
 23
-2.4265685424949228
 33
0.6465685424949257
  0
3DFACE
  5
8B6
  8
0
 10
-0.61
 20
-2.3700000000000001
 30
0.6700000000000017
 11
-0.61
 21
-2.3134314575050761
 31
0.6465685424949257
 12
-1.1200000000000001
 22
-2.3134314575050761
 32
0.6465685424949257
 13
-1.1200000000000001
 23
-2.3700000000000001
 33
0.6700000000000017
  0
3DFACE
  5
8B7
  8
0
 10
-0.61
 20
-2.3134314575050761
 30
0.6465685424949257
 11
-0.61
 21
-2.29
 31
0.5900000000000034
 12
-1.1200000000000001
 22
-2.29
 32
0.5900000000000034
 13
-1.1200000000000001
 23
-2.3134314575050761
 33
0.6465685424949257
  0
3DFACE
  5
8B8
  8
0
 10
-0.61
 20
-2.29
 30
0.5900000000000034
 11
-0.61
 21
-2.3134314575050761
 31
0.5334314575050776
 12
-1.1200000000000001
 22
-2.3134314575050761
 32
0.5334314575050776
 13
-1.1200000000000001
 23
-2.29
 33
0.5900000000000034
  0
3DFACE
  5
8B9
  8
0
 10
-0.61
 20
-2.3134314575050761
 30
0.5334314575050776
 11
-0.61
 21
-2.3700000000000001
 31
0.5100000000000016
 12
-1.1200000000000001
 22
-2.3700000000000001
 32
0.5100000000000016
 13
-1.1200000000000001
 23
-2.3134314575050761
 33
0.5334314575050776
  0
3DFACE
  5
8BA
  8
0
 10
-0.61
 20
-2.3700000000000001
 30
0.5100000000000016
 11
-0.61
 21
-2.4265685424949228
 31
0.5334314575050776
 12
-1.1200000000000001
 22
-2.4265685424949228
 32
0.5334314575050776
 13
-1.1200000000000001
 23
-2.3700000000000001
 33
0.5100000000000016
  0
3DFACE
  5
8BB
  8
0
 10
-0.61
 20
-2.4265685424949228
 30
0.5334314575050776
 11
-0.61
 21
-2.4500000000000002
 31
0.5900000000000034
 12
-1.1200000000000001
 22
-2.4500000000000002
 32
0.5900000000000034
 13
-1.1200000000000001
 23
-2.4265685424949228
 33
0.5334314575050776
  0
3DFACE
  5
8BC
  8
0
 10
-0.61
 20
-2.4265685424949228
 30
0.6465685424949257
 11
-0.61
 21
-2.29
 31
0.5900000000000034
 12
-0.61
 22
-2.3134314575050761
 32
0.6465685424949257
 13
-0.61
 23
-2.3700000000000001
 33
0.6700000000000017
  0
3DFACE
  5
8BD
  8
0
 10
-0.61
 20
-2.4500000000000002
 30
0.5900000000000034
 11
-0.61
 21
-2.3134314575050761
 31
0.5334314575050776
 12
-0.61
 22
-2.29
 32
0.5900000000000034
 13
-0.61
 23
-2.4265685424949228
 33
0.6465685424949257
  0
3DFACE
  5
8BE
  8
0
 10
-0.61
 20
-2.4265685424949228
 30
0.5334314575050776
 11
-0.61
 21
-2.3700000000000001
 31
0.5100000000000016
 12
-0.61
 22
-2.3134314575050761
 32
0.5334314575050776
 13
-0.61
 23
-2.4500000000000002
 33
0.5900000000000034
  0
3DFACE
  5
8C0
  8
0
 10
0.61
 20
-2.3134314575050761
 30
0.5334314575050776
 11
0.61
 21
-2.29
 31
0.5900000000000034
 12
1.1200000000000001
 22
-2.29
 32
0.5900000000000034
 13
1.1200000000000001
 23
-2.3134314575050761
 33
0.5334314575050776
  0
3DFACE
  5
8C1
  8
0
 10
0.61
 20
-2.3700000000000001
 30
0.5100000000000016
 11
0.61
 21
-2.3134314575050761
 31
0.5334314575050776
 12
1.1200000000000001
 22
-2.3134314575050761
 32
0.5334314575050776
 13
1.1200000000000001
 23
-2.3700000000000001
 33
0.5100000000000016
  0
3DFACE
  5
8C2
  8
0
 10
0.61
 20
-2.4265685424949228
 30
0.5334314575050776
 11
0.61
 21
-2.3700000000000001
 31
0.5100000000000016
 12
1.1200000000000001
 22
-2.3700000000000001
 32
0.5100000000000016
 13
1.1200000000000001
 23
-2.4265685424949228
 33
0.5334314575050776
  0
3DFACE
  5
8C3
  8
0
 10
0.61
 20
-2.4500000000000002
 30
0.5900000000000034
 11
0.61
 21
-2.4265685424949228
 31
0.5334314575050776
 12
1.1200000000000001
 22
-2.4265685424949228
 32
0.5334314575050776
 13
1.1200000000000001
 23
-2.4500000000000002
 33
0.5900000000000034
  0
3DFACE
  5
8C4
  8
0
 10
0.61
 20
-2.4265685424949228
 30
0.6465685424949257
 11
0.61
 21
-2.4500000000000002
 31
0.5900000000000034
 12
1.1200000000000001
 22
-2.4500000000000002
 32
0.5900000000000034
 13
1.1200000000000001
 23
-2.4265685424949228
 33
0.6465685424949257
  0
3DFACE
  5
8C5
  8
0
 10
0.61
 20
-2.3700000000000001
 30
0.6700000000000017
 11
0.61
 21
-2.4265685424949228
 31
0.6465685424949257
 12
1.1200000000000001
 22
-2.4265685424949228
 32
0.6465685424949257
 13
1.1200000000000001
 23
-2.3700000000000001
 33
0.6700000000000017
  0
3DFACE
  5
8C6
  8
0
 10
0.61
 20
-2.3134314575050761
 30
0.6465685424949257
 11
0.61
 21
-2.3700000000000001
 31
0.6700000000000017
 12
1.1200000000000001
 22
-2.3700000000000001
 32
0.6700000000000017
 13
1.1200000000000001
 23
-2.3134314575050761
 33
0.6465685424949257
  0
3DFACE
  5
8C7
  8
0
 10
0.61
 20
-2.29
 30
0.5900000000000034
 11
0.61
 21
-2.3134314575050761
 31
0.6465685424949257
 12
1.1200000000000001
 22
-2.3134314575050761
 32
0.6465685424949257
 13
1.1200000000000001
 23
-2.29
 33
0.5900000000000034
  0
3DFACE
  5
8C8
  8
0
 10
0.61
 20
-2.4265685424949228
 30
0.6465685424949257
 11
0.61
 21
-2.3700000000000001
 31
0.6700000000000017
 12
0.61
 22
-2.3134314575050761
 32
0.6465685424949257
 13
0.61
 23
-2.4500000000000002
 33
0.5900000000000034
  0
3DFACE
  5
8C9
  8
0
 10
0.61
 20
-2.4500000000000002
 30
0.5900000000000034
 11
0.61
 21
-2.3134314575050761
 31
0.6465685424949257
 12
0.61
 22
-2.29
 32
0.5900000000000034
 13
0.61
 23
-2.4265685424949228
 33
0.5334314575050776
  0
3DFACE
  5
8CA
  8
0
 10
0.61
 20
-2.4265685424949228
 30
0.5334314575050776
 11
0.61
 21
-2.29
 31
0.5900000000000034
 12
0.61
 22
-2.3134314575050761
 32
0.5334314575050776
 13
0.61
 23
-2.3700000000000001
 33
0.5100000000000016
  0
3DFACE
  5
8CC
  8
0
 10
-0.9099999999999999
 20
-2.0999999999999992
 30
0.9600000000000044
 11
-0.9099999999999999
 21
-1.9699999999999991
 31
0.4200000000000017
 12
-0.6600000000000001
 22
-1.969999999999998
 32
0.4200000000000017
 13
-0.6600000000000001
 23
-2.0999999999999992
 33
0.9600000000000044
  0
3DFACE
  5
8CD
  8
0
 10
-0.36
 20
-2.0999999999999992
 30
0.9600000000000044
 11
-0.36
 21
-1.9699999999999991
 31
0.4200000000000017
 12
0.36
 22
-1.97
 32
0.4200000000000017
 13
0.36
 23
-2.1000000000000001
 33
0.9600000000000044
  0
3DFACE
  5
912
  8
MUDGUARDS
 10
1.4399999999999991
 20
-0.99
 30
1.300000000000004
 11
1.4399999999999991
 21
-0.99
 31
1.2500000000000031
 12
1.4399999999999991
 22
0.5899999999999999
 32
1.2500000000000031
 13
1.4399999999999991
 23
0.5899999999999999
 33
1.300000000000004
  0
3DFACE
  5
914
  8
MUDGUARDS
 10
1.1899999999999991
 20
0.5899999999999999
 30
1.300000000000004
 11
1.1899999999999991
 21
-0.99
 31
1.300000000000004
 12
1.4399999999999991
 22
-0.99
 32
1.300000000000004
 13
1.4399999999999991
 23
0.5899999999999999
 33
1.300000000000004
  0
3DFACE
  5
916
  8
MUDGUARDS
 10
1.4399999999999991
 20
0.5899999999999999
 30
1.2500000000000031
 11
1.4399999999999991
 21
-0.99
 31
1.2500000000000031
 12
1.1899999999999991
 22
-0.99
 32
1.2500000000000031
 13
1.1899999999999991
 23
0.5899999999999999
 33
1.2500000000000031
  0
3DFACE
  5
91A
  8
MUDGUARDS
 10
1.4399999999999991
 20
1.6000000000000001
 30
1.2500000000000031
 11
1.4399999999999991
 21
0.5899999999999999
 31
1.2500000000000031
 12
1.1899999999999991
 22
0.5899999999999999
 32
1.2500000000000031
 13
0.9099999999999999
 23
1.6000000000000001
 33
1.2500000000000031
  0
3DFACE
  5
91C
  8
MUDGUARDS
 10
1.4399999999999991
 20
0.5899999999999999
 30
1.300000000000004
 11
1.4399999999999991
 21
0.5899999999999999
 31
1.2500000000000031
 12
1.4399999999999991
 22
1.6000000000000001
 32
1.2500000000000031
 13
1.4399999999999991
 23
1.6000000000000001
 33
1.300000000000004
  0
3DFACE
  5
91F
  8
MUDGUARDS
 10
0.9099999999999999
 20
1.6000000000000001
 30
1.300000000000004
 11
1.1899999999999991
 21
0.5899999999999999
 31
1.300000000000004
 12
1.4399999999999991
 22
0.5899999999999999
 32
1.300000000000004
 13
1.4399999999999991
 23
1.6000000000000001
 33
1.300000000000004
  0
3DFACE
  5
921
  8
MUDGUARDS
 10
0.9099999999999999
 20
1.9599999999999991
 30
1.2500000000000031
 11
0.9099999999999999
 21
1.6000000000000001
 31
1.2500000000000031
 12
0.9099999999999999
 22
1.6000000000000001
 32
1.300000000000004
 13
0.9099999999999999
 23
1.9599999999999991
 33
1.300000000000004
  0
3DFACE
  5
923
  8
MUDGUARDS
 10
1.4399999999999991
 20
1.6000000000000001
 30
1.300000000000004
 11
1.4399999999999991
 21
1.6000000000000001
 31
1.2500000000000031
 12
1.4399999999999991
 22
1.9599999999999991
 32
1.2500000000000031
 13
1.4399999999999991
 23
1.9599999999999991
 33
1.300000000000004
  0
3DFACE
  5
925
  8
MUDGUARDS
 10
1.4399999999999991
 20
1.9599999999999991
 30
1.2500000000000031
 11
1.4399999999999991
 21
1.6000000000000001
 31
1.2500000000000031
 12
0.9099999999999999
 22
1.6000000000000001
 32
1.2500000000000031
 13
0.9099999999999999
 23
1.9599999999999991
 33
1.2500000000000031
  0
3DFACE
  5
926
  8
MUDGUARDS
 10
0.9099999999999999
 20
1.9599999999999991
 30
1.300000000000004
 11
0.9099999999999999
 21
1.6000000000000001
 31
1.300000000000004
 12
1.4399999999999991
 22
1.6000000000000001
 32
1.300000000000004
 13
1.4399999999999991
 23
1.9599999999999991
 33
1.300000000000004
  0
3DFACE
  5
928
  8
MUDGUARDS
 10
0.9099999999999999
 20
2.5800000000000001
 30
1.2800000000000009
 11
0.9099999999999999
 21
1.9599999999999991
 31
1.300000000000004
 12
1.4399999999999991
 22
1.9599999999999991
 32
1.300000000000004
 13
1.4399999999999991
 23
2.5800000000000001
 33
1.2800000000000009
  0
3DFACE
  5
929
  8
MUDGUARDS
 10
1.4399999999999991
 20
1.9599999999999991
 30
1.300000000000004
 11
1.4399999999999991
 21
1.9599999999999991
 31
1.2500000000000031
 12
1.4399999999999991
 22
2.54
 32
1.220000000000002
 13
1.4399999999999991
 23
2.5800000000000001
 33
1.2800000000000009
  0
3DFACE
  5
92A
  8
MUDGUARDS
 10
0.9099999999999999
 20
2.54
 30
1.220000000000002
 11
0.9099999999999999
 21
1.9599999999999991
 31
1.2500000000000031
 12
0.9099999999999999
 22
1.9599999999999991
 32
1.300000000000004
 13
0.9099999999999999
 23
2.5800000000000001
 33
1.2800000000000009
  0
3DFACE
  5
92D
  8
MUDGUARDS
 10
1.4399999999999991
 20
2.54
 30
1.220000000000002
 11
1.4399999999999991
 21
1.9599999999999991
 31
1.2500000000000031
 12
0.9099999999999999
 22
1.9599999999999991
 32
1.2500000000000031
 13
0.9099999999999999
 23
2.54
 33
1.220000000000002
  0
3DFACE
  5
92F
  8
MUDGUARDS
 10
0.9099999999999999
 20
2.9100000000000001
 30
0.9400000000000012
 11
0.9099999999999999
 21
2.7199999999999989
 31
1.200000000000002
 12
1.4399999999999991
 22
2.7199999999999989
 32
1.200000000000002
 13
1.4399999999999991
 23
2.9100000000000001
 33
0.9400000000000012
  0
3DFACE
  5
930
  8
MUDGUARDS
 10
1.4399999999999991
 20
2.7199999999999989
 30
1.200000000000002
 11
1.4399999999999991
 21
2.669999999999999
 31
1.180000000000003
 12
1.4399999999999991
 22
2.8500000000000001
 32
0.9300000000000032
 13
1.4399999999999991
 23
2.9100000000000001
 33
0.9400000000000012
  0
3DFACE
  5
931
  8
MUDGUARDS
 10
0.9099999999999999
 20
2.8500000000000001
 30
0.9300000000000032
 11
0.9099999999999999
 21
2.669999999999999
 31
1.180000000000003
 12
0.9099999999999999
 22
2.7199999999999989
 32
1.200000000000002
 13
0.9099999999999999
 23
2.9100000000000001
 33
0.9400000000000012
  0
3DFACE
  5
933
  8
MUDGUARDS
 10
1.4399999999999991
 20
2.9100000000000001
 30
0.9400000000000012
 11
1.4399999999999991
 21
2.8500000000000001
 31
0.9300000000000032
 12
0.9099999999999999
 22
2.8500000000000001
 32
0.9300000000000032
 13
0.9099999999999999
 23
2.9100000000000001
 33
0.9400000000000012
  0
3DFACE
  5
934
  8
MUDGUARDS
 10
1.4399999999999991
 20
2.8500000000000001
 30
0.9300000000000032
 11
1.4399999999999991
 21
2.669999999999999
 31
1.180000000000003
 12
0.9099999999999999
 22
2.669999999999999
 32
1.180000000000003
 13
0.9099999999999999
 23
2.8500000000000001
 33
0.9300000000000032
  0
3DFACE
  5
936
  8
MUDGUARDS
 10
1.4399999999999991
 20
2.5800000000000001
 30
1.2800000000000009
 11
1.4399999999999991
 21
2.54
 31
1.220000000000002
 12
1.4399999999999991
 22
2.669999999999999
 32
1.180000000000003
 13
1.4399999999999991
 23
2.7199999999999989
 33
1.200000000000002
  0
3DFACE
  5
937
  8
MUDGUARDS
 10
0.9099999999999999
 20
2.669999999999999
 30
1.180000000000003
 11
0.9099999999999999
 21
2.54
 31
1.220000000000002
 12
0.9099999999999999
 22
2.5800000000000001
 32
1.2800000000000009
 13
0.9099999999999999
 23
2.7199999999999989
 33
1.200000000000002
  0
3DFACE
  5
938
  8
MUDGUARDS
 10
0.9099999999999999
 20
2.7199999999999989
 30
1.200000000000002
 11
0.9099999999999999
 21
2.5800000000000001
 31
1.2800000000000009
 12
1.4399999999999991
 22
2.5800000000000001
 32
1.2800000000000009
 13
1.4399999999999991
 23
2.7199999999999989
 33
1.200000000000002
  0
3DFACE
  5
93B
  8
MUDGUARDS
 10
1.4399999999999991
 20
2.669999999999999
 30
1.180000000000003
 11
1.4399999999999991
 21
2.54
 31
1.220000000000002
 12
0.9099999999999999
 22
2.54
 32
1.220000000000002
 13
0.9099999999999999
 23
2.669999999999999
 33
1.180000000000003
  0
3DFACE
  5
93D
  8
MUDGUARDS
 10
1.4399999999999991
 20
-2.9700000000000002
 30
1.0000000000000031
 11
1.4399999999999991
 21
-2.9300000000000002
 31
0.9600000000000044
 12
1.4399999999999991
 22
-2.4100000000000001
 32
1.2500000000000031
 13
1.4399999999999991
 23
-2.4300000000000002
 33
1.300000000000004
  0
3DFACE
  5
93E
  8
MUDGUARDS
 10
0.9099999999999999
 20
-2.9700000000000002
 30
1.0000000000000031
 11
0.9099999999999999
 21
-2.9300000000000002
 31
0.9600000000000044
 12
1.4399999999999991
 22
-2.9300000000000002
 32
0.9600000000000044
 13
1.4399999999999991
 23
-2.9700000000000002
 33
1.0000000000000031
  0
3DFACE
  5
940
  8
MUDGUARDS
 10
0.9099999999999999
 20
-2.4100000000000001
 30
1.2500000000000031
 11
0.9099999999999999
 21
-2.9300000000000002
 31
0.9600000000000044
 12
0.9099999999999999
 22
-2.9700000000000002
 32
1.0000000000000031
 13
0.9099999999999999
 23
-2.4300000000000002
 33
1.300000000000004
  0
3DFACE
  5
941
  8
MUDGUARDS
 10
1.4399999999999991
 20
-2.4100000000000001
 30
1.2500000000000031
 11
1.4399999999999991
 21
-2.9300000000000002
 31
0.9600000000000044
 12
0.9099999999999999
 22
-2.9300000000000002
 32
0.9600000000000044
 13
0.9099999999999999
 23
-2.4100000000000001
 33
1.2500000000000031
  0
3DFACE
  5
942
  8
MUDGUARDS
 10
0.9099999999999999
 20
-2.4300000000000002
 30
1.300000000000004
 11
0.9099999999999999
 21
-2.9700000000000002
 31
1.0000000000000031
 12
1.4399999999999991
 22
-2.9700000000000002
 32
1.0000000000000031
 13
1.4399999999999991
 23
-2.4300000000000002
 33
1.300000000000004
  0
3DFACE
  5
947
  8
MUDGUARDS
 10
-0.9100000000000001
 20
-2.9700000000000002
 30
1.0000000000000031
 11
-0.9100000000000001
 21
-2.9300000000000002
 31
0.9600000000000044
 12
-0.9100000000000001
 22
-2.4100000000000001
 32
1.2500000000000031
 13
-0.9100000000000001
 23
-2.4300000000000002
 33
1.300000000000004
  0
3DFACE
  5
948
  8
MUDGUARDS
 10
-1.4399999999999991
 20
-2.4300000000000002
 30
1.300000000000004
 11
-1.4399999999999991
 21
-2.9700000000000002
 31
1.0000000000000031
 12
-0.9100000000000001
 22
-2.9700000000000002
 32
1.0000000000000031
 13
-0.9100000000000001
 23
-2.4300000000000002
 33
1.300000000000004
  0
3DFACE
  5
949
  8
MUDGUARDS
 10
-0.9100000000000001
 20
-2.4100000000000001
 30
1.2500000000000031
 11
-0.9100000000000001
 21
-2.9300000000000002
 31
0.9600000000000044
 12
-1.4399999999999991
 22
-2.9300000000000002
 32
0.9600000000000044
 13
-1.4399999999999991
 23
-2.4100000000000001
 33
1.2500000000000031
  0
3DFACE
  5
94A
  8
MUDGUARDS
 10
-1.4399999999999991
 20
-2.9700000000000002
 30
1.0000000000000031
 11
-1.4399999999999991
 21
-2.9300000000000002
 31
0.9600000000000044
 12
-0.9100000000000001
 22
-2.9300000000000002
 32
0.9600000000000044
 13
-0.9100000000000001
 23
-2.9700000000000002
 33
1.0000000000000031
  0
3DFACE
  5
94D
  8
MUDGUARDS
 10
-0.9100000000000001
 20
2.5800000000000001
 30
1.2800000000000009
 11
-0.9100000000000001
 21
2.54
 31
1.220000000000002
 12
-0.9100000000000001
 22
2.669999999999999
 32
1.180000000000003
 13
-0.9100000000000001
 23
2.7199999999999989
 33
1.200000000000002
  0
3DFACE
  5
94E
  8
MUDGUARDS
 10
-0.9100000000000001
 20
2.669999999999999
 30
1.180000000000003
 11
-0.9100000000000001
 21
2.54
 31
1.220000000000002
 12
-1.4399999999999991
 22
2.54
 32
1.220000000000002
 13
-1.4399999999999991
 23
2.669999999999999
 33
1.180000000000003
  0
3DFACE
  5
94F
  8
MUDGUARDS
 10
-0.9100000000000001
 20
2.7199999999999989
 30
1.200000000000002
 11
-0.9100000000000001
 21
2.669999999999999
 31
1.180000000000003
 12
-0.9100000000000001
 22
2.8500000000000001
 32
0.9300000000000032
 13
-0.9100000000000001
 23
2.9100000000000001
 33
0.9400000000000012
  0
3DFACE
  5
951
  8
MUDGUARDS
 10
-1.4399999999999991
 20
2.9100000000000001
 30
0.9400000000000012
 11
-1.4399999999999991
 21
2.7199999999999989
 31
1.200000000000002
 12
-0.9100000000000001
 22
2.7199999999999989
 32
1.200000000000002
 13
-0.9100000000000001
 23
2.9100000000000001
 33
0.9400000000000012
  0
3DFACE
  5
953
  8
MUDGUARDS
 10
-0.9100000000000001
 20
2.9100000000000001
 30
0.9400000000000012
 11
-0.9100000000000001
 21
2.8500000000000001
 31
0.9300000000000032
 12
-1.4399999999999991
 22
2.8500000000000001
 32
0.9300000000000032
 13
-1.4399999999999991
 23
2.9100000000000001
 33
0.9400000000000012
  0
3DFACE
  5
954
  8
MUDGUARDS
 10
-0.9100000000000001
 20
2.8500000000000001
 30
0.9300000000000032
 11
-0.9100000000000001
 21
2.669999999999999
 31
1.180000000000003
 12
-1.4399999999999991
 22
2.669999999999999
 32
1.180000000000003
 13
-1.4399999999999991
 23
2.8500000000000001
 33
0.9300000000000032
  0
3DFACE
  5
955
  8
MUDGUARDS
 10
-0.9100000000000001
 20
1.9599999999999991
 30
1.300000000000004
 11
-0.9100000000000001
 21
1.9599999999999991
 31
1.2500000000000031
 12
-0.9100000000000001
 22
2.54
 32
1.220000000000002
 13
-0.9100000000000001
 23
2.5800000000000001
 33
1.2800000000000009
  0
3DFACE
  5
958
  8
MUDGUARDS
 10
-0.9100000000000001
 20
2.54
 30
1.220000000000002
 11
-0.9100000000000001
 21
1.9599999999999991
 31
1.2500000000000031
 12
-1.4399999999999991
 22
1.9599999999999991
 32
1.2500000000000031
 13
-1.4399999999999991
 23
2.54
 33
1.220000000000002
  0
3DFACE
  5
959
  8
MUDGUARDS
 10
-1.4399999999999991
 20
2.5800000000000001
 30
1.2800000000000009
 11
-1.4399999999999991
 21
1.9599999999999991
 31
1.300000000000004
 12
-0.9100000000000001
 22
1.9599999999999991
 32
1.300000000000004
 13
-0.9100000000000001
 23
2.5800000000000001
 33
1.2800000000000009
  0
3DFACE
  5
95A
  8
MUDGUARDS
 10
-1.4399999999999991
 20
2.7199999999999989
 30
1.200000000000002
 11
-1.4399999999999991
 21
2.5800000000000001
 31
1.2800000000000009
 12
-0.9100000000000001
 22
2.5800000000000001
 32
1.2800000000000009
 13
-0.9100000000000001
 23
2.7199999999999989
 33
1.200000000000002
  0
3DFACE
  5
95E
  8
MUDGUARDS
 10
-0.9100000000000001
 20
1.9599999999999991
 30
1.2500000000000031
 11
-0.9100000000000001
 21
1.6000000000000001
 31
1.2500000000000031
 12
-1.4399999999999991
 22
1.6000000000000001
 32
1.2500000000000031
 13
-1.4399999999999991
 23
1.9599999999999991
 33
1.2500000000000031
  0
3DFACE
  5
95F
  8
MUDGUARDS
 10
-1.4399999999999991
 20
1.9599999999999991
 30
1.300000000000004
 11
-1.4399999999999991
 21
1.6000000000000001
 31
1.300000000000004
 12
-0.9100000000000001
 22
1.6000000000000001
 32
1.300000000000004
 13
-0.9100000000000001
 23
1.9599999999999991
 33
1.300000000000004
  0
3DFACE
  5
963
  8
MUDGUARDS
 10
-0.9100000000000001
 20
1.6000000000000001
 30
1.2500000000000031
 11
-1.1899999999999991
 21
0.5899999999999999
 31
1.2500000000000031
 12
-1.4399999999999991
 22
0.5899999999999999
 32
1.2500000000000031
 13
-1.4399999999999991
 23
1.6000000000000001
 33
1.2500000000000031
  0
3DFACE
  5
964
  8
MUDGUARDS
 10
-1.4399999999999991
 20
1.6000000000000001
 30
1.300000000000004
 11
-1.4399999999999991
 21
0.5899999999999999
 31
1.300000000000004
 12
-1.1899999999999991
 22
0.5899999999999999
 32
1.300000000000004
 13
-0.9100000000000001
 23
1.6000000000000001
 33
1.300000000000004
  0
3DFACE
  5
968
  8
MUDGUARDS
 10
-1.4399999999999991
 20
-2.4100000000000001
 30
1.2500000000000031
 11
-1.4399999999999991
 21
-2.9300000000000002
 31
0.9600000000000044
 12
-1.4399999999999991
 22
-2.9700000000000002
 32
1.0000000000000031
 13
-1.4399999999999991
 23
-2.4300000000000002
 33
1.300000000000004
  0
3DFACE
  5
969
  8
MUDGUARDS
 10
-1.4399999999999991
 20
2.669999999999999
 30
1.180000000000003
 11
-1.4399999999999991
 21
2.54
 31
1.220000000000002
 12
-1.4399999999999991
 22
2.5800000000000001
 32
1.2800000000000009
 13
-1.4399999999999991
 23
2.7199999999999989
 33
1.200000000000002
  0
3DFACE
  5
96A
  8
MUDGUARDS
 10
-1.4399999999999991
 20
2.8500000000000001
 30
0.9300000000000032
 11
-1.4399999999999991
 21
2.669999999999999
 31
1.180000000000003
 12
-1.4399999999999991
 22
2.7199999999999989
 32
1.200000000000002
 13
-1.4399999999999991
 23
2.9100000000000001
 33
0.9400000000000012
  0
3DFACE
  5
96B
  8
MUDGUARDS
 10
-1.4399999999999991
 20
2.54
 30
1.220000000000002
 11
-1.4399999999999991
 21
1.9599999999999991
 31
1.2500000000000031
 12
-1.4399999999999991
 22
1.9599999999999991
 32
1.300000000000004
 13
-1.4399999999999991
 23
2.5800000000000001
 33
1.2800000000000009
  0
3DFACE
  5
96D
  8
MUDGUARDS
 10
-1.4399999999999991
 20
1.6000000000000001
 30
1.2500000000000031
 11
-1.4399999999999991
 21
0.5899999999999999
 31
1.2500000000000031
 12
-1.4399999999999991
 22
0.5899999999999999
 32
1.300000000000004
 13
-1.4399999999999991
 23
1.6000000000000001
 33
1.300000000000004
  0
3DFACE
  5
97C
  8
MUDGUARDS
 10
1.03
 20
-0.9900000000000002
 30
1.300000000000004
 11
1.03
 21
-2.4300000000000002
 31
1.300000000000004
 12
1.4399999999999991
 22
-2.4300000000000002
 32
1.300000000000004
 13
1.4399999999999991
 23
-0.9900000000000002
 33
1.300000000000004
  0
3DFACE
  5
97E
  8
MUDGUARDS
 10
1.4399999999999991
 20
-2.4300000000000002
 30
1.300000000000004
 11
1.4399999999999991
 21
-2.4100000000000001
 31
1.2500000000000031
 12
1.4399999999999991
 22
-0.9900000000000002
 32
1.2500000000000031
 13
1.4399999999999991
 23
-0.9900000000000002
 33
1.300000000000004
  0
3DFACE
  5
981
  8
MUDGUARDS
 10
1.4399999999999991
 20
-0.9900000000000002
 30
1.2500000000000031
 11
1.4399999999999991
 21
-2.4100000000000001
 31
1.2500000000000031
 12
1.03
 22
-2.4100000000000001
 32
1.2500000000000031
 13
1.03
 23
-0.9900000000000002
 33
1.2500000000000031
  0
3DFACE
  5
983
  8
MUDGUARDS
 10
-1.4399999999999991
 20
-0.9900000000000002
 30
1.300000000000004
 11
-1.4399999999999991
 21
-2.4300000000000002
 31
1.300000000000004
 12
-1.0299999999999989
 22
-2.4300000000000002
 32
1.300000000000004
 13
-1.0299999999999989
 23
-0.9900000000000002
 33
1.300000000000004
  0
3DFACE
  5
984
  8
MUDGUARDS
 10
-1.0299999999999989
 20
-0.9900000000000002
 30
1.2500000000000031
 11
-1.0299999999999989
 21
-2.4100000000000001
 31
1.2500000000000031
 12
-1.4399999999999991
 22
-2.4100000000000001
 32
1.2500000000000031
 13
-1.4399999999999991
 23
-0.9900000000000002
 33
1.2500000000000031
  0
3DFACE
  5
988
  8
MUDGUARDS
 10
-1.4399999999999991
 20
-0.9900000000000002
 30
1.2500000000000031
 11
-1.4399999999999991
 21
-2.4100000000000001
 31
1.2500000000000031
 12
-1.4399999999999991
 22
-2.4300000000000002
 32
1.300000000000004
 13
-1.4399999999999991
 23
-0.9900000000000002
 33
1.300000000000004
  0
3DFACE
  5
98A
  8
MUDGUARDS
 10
-1.4399999999999991
 20
0.5899999999999999
 30
1.300000000000004
 11
-1.4399999999999991
 21
-0.99
 31
1.300000000000004
 12
-1.1899999999999991
 22
-0.99
 32
1.300000000000004
 13
-1.1899999999999991
 23
0.5899999999999999
 33
1.300000000000004
  0
3DFACE
  5
98C
  8
MUDGUARDS
 10
-1.1899999999999991
 20
0.5899999999999999
 30
1.2500000000000031
 11
-1.1899999999999991
 21
-0.99
 31
1.2500000000000031
 12
-1.4399999999999991
 22
-0.99
 32
1.2500000000000031
 13
-1.4399999999999991
 23
0.5899999999999999
 33
1.2500000000000031
  0
3DFACE
  5
98D
  8
MUDGUARDS
 10
-1.4399999999999991
 20
0.5899999999999999
 30
1.2500000000000031
 11
-1.4399999999999991
 21
-0.99
 31
1.2500000000000031
 12
-1.4399999999999991
 22
-0.99
 32
1.300000000000004
 13
-1.4399999999999991
 23
0.5899999999999999
 33
1.300000000000004
  0
3DFACE
  5
B02
  8
0
 10
0.3
 20
-2.4300000000000002
 30
1.1500000000000019
 11
0.3
 21
-2.4739339828220182
 31
1.2560660171779849
 12
0.3500000000000001
 22
-2.5800000000000001
 32
1.1500000000000019
 13
0.3500000000000001
 23
-2.5800000000000001
 33
1.1500000000000019
  0
3DFACE
  5
B03
  8
0
 10
0.3
 20
-2.4739339828220182
 30
1.2560660171779849
 11
0.3
 21
-2.5800000000000001
 31
1.300000000000004
 12
0.3500000000000001
 22
-2.5800000000000001
 32
1.1500000000000019
 13
0.3500000000000001
 23
-2.5800000000000001
 33
1.1500000000000019
  0
3DFACE
  5
B04
  8
0
 10
0.3
 20
-2.5800000000000001
 30
1.300000000000004
 11
0.3
 21
-2.6860660171779811
 31
1.2560660171779849
 12
0.3500000000000001
 22
-2.5800000000000001
 32
1.1500000000000019
 13
0.3500000000000001
 23
-2.5800000000000001
 33
1.1500000000000019
  0
3DFACE
  5
B05
  8
0
 10
0.3
 20
-2.6860660171779811
 30
1.2560660171779849
 11
0.3
 21
-2.7299999999999991
 31
1.1500000000000019
 12
0.3500000000000001
 22
-2.5800000000000001
 32
1.1500000000000019
 13
0.3500000000000001
 23
-2.5800000000000001
 33
1.1500000000000019
  0
3DFACE
  5
B06
  8
0
 10
0.3
 20
-2.7299999999999991
 30
1.1500000000000019
 11
0.3
 21
-2.6860660171779811
 31
1.0439339828220211
 12
0.3500000000000001
 22
-2.5800000000000001
 32
1.1500000000000019
 13
0.3500000000000001
 23
-2.5800000000000001
 33
1.1500000000000019
  0
3DFACE
  5
B07
  8
0
 10
0.3
 20
-2.6860660171779811
 30
1.0439339828220211
 11
0.3
 21
-2.5800000000000001
 31
1.0000000000000031
 12
0.3500000000000001
 22
-2.5800000000000001
 32
1.1500000000000019
 13
0.3500000000000001
 23
-2.5800000000000001
 33
1.1500000000000019
  0
3DFACE
  5
B08
  8
0
 10
0.3
 20
-2.5800000000000001
 30
1.0000000000000031
 11
0.3
 21
-2.4739339828220182
 31
1.0439339828220211
 12
0.3500000000000001
 22
-2.5800000000000001
 32
1.1500000000000019
 13
0.3500000000000001
 23
-2.5800000000000001
 33
1.1500000000000019
  0
3DFACE
  5
B09
  8
0
 10
0.3
 20
-2.4739339828220182
 30
1.0439339828220211
 11
0.3
 21
-2.4300000000000002
 31
1.1500000000000019
 12
0.3500000000000001
 22
-2.5800000000000001
 32
1.1500000000000019
 13
0.3500000000000001
 23
-2.5800000000000001
 33
1.1500000000000019
  0
3DFACE
  5
B0A
  8
0
 10
0.3
 20
-2.7299999999999991
 30
1.1500000000000019
 11
0.3
 21
-2.6860660171779811
 31
1.2560660171779849
 12
-0.8100000000000001
 22
-2.6860660171779811
 32
1.2560660171779849
 13
-0.8100000000000001
 23
-2.7299999999999991
 33
1.1500000000000019
  0
3DFACE
  5
B0B
  8
0
 10
0.3
 20
-2.6860660171779811
 30
1.2560660171779849
 11
0.3
 21
-2.5800000000000001
 31
1.300000000000004
 12
-0.8100000000000001
 22
-2.5800000000000001
 32
1.300000000000004
 13
-0.8100000000000001
 23
-2.6860660171779811
 33
1.2560660171779849
  0
3DFACE
  5
B0C
  8
0
 10
0.3
 20
-2.5800000000000001
 30
1.300000000000004
 11
0.3
 21
-2.4739339828220182
 31
1.2560660171779849
 12
-0.8100000000000001
 22
-2.4739339828220182
 32
1.2560660171779849
 13
-0.8100000000000001
 23
-2.5800000000000001
 33
1.300000000000004
  0
3DFACE
  5
B0D
  8
0
 10
0.3
 20
-2.4739339828220182
 30
1.2560660171779849
 11
0.3
 21
-2.4300000000000002
 31
1.1500000000000019
 12
-0.8100000000000001
 22
-2.4300000000000002
 32
1.1500000000000019
 13
-0.8100000000000001
 23
-2.4739339828220182
 33
1.2560660171779849
  0
3DFACE
  5
B0E
  8
0
 10
0.3
 20
-2.4300000000000002
 30
1.1500000000000019
 11
0.3
 21
-2.4739339828220182
 31
1.0439339828220211
 12
-0.8100000000000001
 22
-2.4739339828220182
 32
1.0439339828220211
 13
-0.8100000000000001
 23
-2.4300000000000002
 33
1.1500000000000019
  0
3DFACE
  5
B0F
  8
0
 10
0.3
 20
-2.4739339828220182
 30
1.0439339828220211
 11
0.3
 21
-2.5800000000000001
 31
1.0000000000000031
 12
-0.8100000000000001
 22
-2.5800000000000001
 32
1.0000000000000031
 13
-0.8100000000000001
 23
-2.4739339828220182
 33
1.0439339828220211
  0
3DFACE
  5
B10
  8
0
 10
0.3
 20
-2.5800000000000001
 30
1.0000000000000031
 11
0.3
 21
-2.6860660171779811
 31
1.0439339828220211
 12
-0.8100000000000001
 22
-2.6860660171779811
 32
1.0439339828220211
 13
-0.8100000000000001
 23
-2.5800000000000001
 33
1.0000000000000031
  0
3DFACE
  5
B11
  8
0
 10
0.3
 20
-2.6860660171779811
 30
1.0439339828220211
 11
0.3
 21
-2.7299999999999991
 31
1.1500000000000019
 12
-0.8100000000000001
 22
-2.7299999999999991
 32
1.1500000000000019
 13
-0.8100000000000001
 23
-2.6860660171779811
 33
1.0439339828220211
  0
3DFACE
  5
B12
  8
0
 10
-0.8100000000000001
 20
-2.7299999999999991
 30
1.1500000000000019
 11
-0.8100000000000001
 21
-2.6860660171779811
 31
1.2560660171779849
 12
-0.8600000000000001
 22
-2.5800000000000001
 32
1.1500000000000019
 13
-0.8600000000000001
 23
-2.5800000000000001
 33
1.1500000000000019
  0
3DFACE
  5
B13
  8
0
 10
-0.8100000000000001
 20
-2.6860660171779811
 30
1.2560660171779849
 11
-0.8100000000000001
 21
-2.5800000000000001
 31
1.300000000000004
 12
-0.8600000000000001
 22
-2.5800000000000001
 32
1.1500000000000019
 13
-0.8600000000000001
 23
-2.5800000000000001
 33
1.1500000000000019
  0
3DFACE
  5
B14
  8
0
 10
-0.8100000000000001
 20
-2.5800000000000001
 30
1.300000000000004
 11
-0.8100000000000001
 21
-2.4739339828220182
 31
1.2560660171779849
 12
-0.8600000000000001
 22
-2.5800000000000001
 32
1.1500000000000019
 13
-0.8600000000000001
 23
-2.5800000000000001
 33
1.1500000000000019
  0
3DFACE
  5
B15
  8
0
 10
-0.8100000000000001
 20
-2.4739339828220182
 30
1.2560660171779849
 11
-0.8100000000000001
 21
-2.4300000000000002
 31
1.1500000000000019
 12
-0.8600000000000001
 22
-2.5800000000000001
 32
1.1500000000000019
 13
-0.8600000000000001
 23
-2.5800000000000001
 33
1.1500000000000019
  0
3DFACE
  5
B16
  8
0
 10
-0.8100000000000001
 20
-2.4300000000000002
 30
1.1500000000000019
 11
-0.8100000000000001
 21
-2.4739339828220182
 31
1.0439339828220211
 12
-0.8600000000000001
 22
-2.5800000000000001
 32
1.1500000000000019
 13
-0.8600000000000001
 23
-2.5800000000000001
 33
1.1500000000000019
  0
3DFACE
  5
B17
  8
0
 10
-0.8100000000000001
 20
-2.4739339828220182
 30
1.0439339828220211
 11
-0.8100000000000001
 21
-2.5800000000000001
 31
1.0000000000000031
 12
-0.8600000000000001
 22
-2.5800000000000001
 32
1.1500000000000019
 13
-0.8600000000000001
 23
-2.5800000000000001
 33
1.1500000000000019
  0
3DFACE
  5
B18
  8
0
 10
-0.8100000000000001
 20
-2.5800000000000001
 30
1.0000000000000031
 11
-0.8100000000000001
 21
-2.6860660171779811
 31
1.0439339828220211
 12
-0.8600000000000001
 22
-2.5800000000000001
 32
1.1500000000000019
 13
-0.8600000000000001
 23
-2.5800000000000001
 33
1.1500000000000019
  0
3DFACE
  5
B19
  8
0
 10
-0.8100000000000001
 20
-2.6860660171779811
 30
1.0439339828220211
 11
-0.8100000000000001
 21
-2.7299999999999991
 31
1.1500000000000019
 12
-0.8600000000000001
 22
-2.5800000000000001
 32
1.1500000000000019
 13
-0.8600000000000001
 23
-2.5800000000000001
 33
1.1500000000000019
  0
3DFACE
  5
B55
  8
0
 10
-0.11
 20
-2.6400000000000001
 30
1.260717967697246
 11
-0.1246446609406726
 21
-2.6093813782152102
 31
1.2783956372269101
 12
-0.0746446609406727
 22
-2.65938137821521
 32
1.3649981776053539
 13
-0.06
 23
-2.6899999999999999
 33
1.3473205080756929
  0
3DFACE
  5
B56
  8
0
 10
-0.1246446609406726
 20
-2.6093813782152102
 30
1.2783956372269101
 11
-0.16
 21
-2.5966987298107771
 31
1.2857179676972481
 12
-0.11
 22
-2.6466987298107778
 32
1.3723205080756911
 13
-0.0746446609406727
 23
-2.65938137821521
 33
1.3649981776053539
  0
3DFACE
  5
B57
  8
0
 10
-0.16
 20
-2.5966987298107771
 30
1.2857179676972481
 11
-0.1953553390593274
 21
-2.6093813782152102
 31
1.2783956372269101
 12
-0.1453553390593274
 22
-2.65938137821521
 32
1.3649981776053539
 13
-0.11
 23
-2.6466987298107778
 33
1.3723205080756911
  0
3DFACE
  5
B58
  8
0
 10
-0.1953553390593274
 20
-2.6093813782152102
 30
1.2783956372269101
 11
-0.21
 21
-2.6400000000000001
 31
1.260717967697246
 12
-0.16
 22
-2.6899999999999999
 32
1.3473205080756929
 13
-0.1453553390593274
 23
-2.65938137821521
 33
1.3649981776053539
  0
3DFACE
  5
B59
  8
0
 10
-0.21
 20
-2.6400000000000001
 30
1.260717967697246
 11
-0.1953553390593274
 21
-2.6706186217847891
 31
1.243040298167585
 12
-0.1453553390593274
 22
-2.720618621784789
 32
1.3296428385460279
 13
-0.16
 23
-2.6899999999999999
 33
1.3473205080756929
  0
3DFACE
  5
B5A
  8
0
 10
-0.1953553390593274
 20
-2.6706186217847891
 30
1.243040298167585
 11
-0.16
 21
-2.6833012701892209
 31
1.235717967697247
 12
-0.11
 22
-2.7333012701892221
 32
1.322320508075691
 13
-0.1453553390593274
 23
-2.720618621784789
 33
1.3296428385460279
  0
3DFACE
  5
B5B
  8
0
 10
-0.16
 20
-2.6833012701892209
 30
1.235717967697247
 11
-0.1246446609406726
 21
-2.6706186217847891
 31
1.243040298167585
 12
-0.0746446609406727
 22
-2.720618621784789
 32
1.3296428385460279
 13
-0.11
 23
-2.7333012701892221
 33
1.322320508075691
  0
3DFACE
  5
B5C
  8
0
 10
-0.1246446609406726
 20
-2.6706186217847891
 30
1.243040298167585
 11
-0.11
 21
-2.6400000000000001
 31
1.260717967697246
 12
-0.06
 22
-2.6899999999999999
 32
1.3473205080756929
 13
-0.0746446609406727
 23
-2.720618621784789
 33
1.3296428385460279
  0
3DFACE
  5
B5D
  8
0
 10
-0.16
 20
-2.6899999999999999
 30
1.3473205080756929
 11
-0.1453553390593274
 21
-2.720618621784789
 31
1.3296428385460279
 12
-0.11
 22
-2.7333012701892221
 32
1.322320508075691
 13
-0.1453553390593274
 23
-2.65938137821521
 33
1.3649981776053539
  0
3DFACE
  5
B5E
  8
0
 10
-0.1453553390593274
 20
-2.65938137821521
 30
1.3649981776053539
 11
-0.11
 21
-2.7333012701892221
 31
1.322320508075691
 12
-0.0746446609406727
 22
-2.720618621784789
 32
1.3296428385460279
 13
-0.11
 23
-2.6466987298107778
 33
1.3723205080756911
  0
3DFACE
  5
B5F
  8
0
 10
-0.11
 20
-2.6466987298107778
 30
1.3723205080756911
 11
-0.0746446609406727
 21
-2.720618621784789
 31
1.3296428385460279
 12
-0.06
 22
-2.6899999999999999
 32
1.3473205080756929
 13
-0.0746446609406727
 23
-2.65938137821521
 33
1.3649981776053539
  0
3DFACE
  5
BC8
  8
0
 10
0.5000000000000004
 20
2.5599999999999992
 30
1.21826530612245
 11
0.5
 21
2.0099999999999998
 31
1.268775510204083
 12
0.5
 22
2.0099999999999989
 32
1.290000000000002
 13
0.5
 23
2.5599999999999992
 33
1.2500000000000031
  0
3DFACE
  5
BC9
  8
0
 10
0.83
 20
2.0099999999999989
 30
1.290000000000002
 11
0.83
 21
2.0099999999999998
 31
1.268775510204083
 12
0.8300000000000002
 22
2.5599999999999992
 32
1.21826530612245
 13
0.83
 23
2.5599999999999992
 33
1.2500000000000031
  0
3DFACE
  5
BCA
  8
0
 10
0.5
 20
2.0099999999999989
 30
1.290000000000002
 11
0.5
 21
2.0099999999999998
 31
1.268775510204083
 12
0.83
 22
2.0099999999999998
 32
1.268775510204083
 13
0.83
 23
2.0099999999999989
 33
1.290000000000002
  0
3DFACE
  5
BCB
  8
0
 10
0.83
 20
2.5599999999999992
 30
1.2500000000000031
 11
0.8300000000000002
 21
2.5599999999999992
 31
1.21826530612245
 12
0.5000000000000004
 22
2.5599999999999992
 32
1.21826530612245
 13
0.5
 23
2.5599999999999992
 33
1.2500000000000031
  0
3DFACE
  5
BCD
  8
0
 10
0.5
 20
2.5599999999999992
 30
1.2500000000000031
 11
0.6900000000000001
 21
2.2799999999999998
 31
1.2703636363636399
 12
0.6900000000000001
 22
2.2799999999999998
 32
1.2703636363636399
 13
0.83
 23
2.5599999999999992
 33
1.2500000000000031
  0
3DFACE
  5
BF6
  8
0
 10
0.6900000000000001
 20
2.2799999999999998
 30
1.2703636363636399
 11
0.6405132002392797
 21
2.27
 31
1.271090909090911
 12
0.6680132002392797
 22
2.27
 32
1.3100620522612121
 13
0.6900000000000001
 23
2.2799999999999998
 33
1.2703636363636399
  0
3DFACE
  5
BF7
  8
0
 10
0.6405132002392797
 20
2.27
 30
1.271090909090911
 11
0.61
 21
2.169999999999999
 31
1.278363636363639
 12
0.6510288568297004
 22
2.169999999999999
 32
1.345863636363638
 13
0.6680132002392797
 23
2.27
 33
1.3100620522612121
  0
3DFACE
  5
BF8
  8
0
 10
0.61
 20
2.169999999999999
 30
1.278363636363639
 11
0.5999999999999999
 21
2.069999999999999
 31
1.285636363636367
 12
0.6450000000000001
 22
2.069999999999999
 32
1.3635786499769651
 13
0.6510288568297004
 23
2.169999999999999
 33
1.345863636363638
  0
3DFACE
  5
BF9
  8
0
 10
0.6900000000000001
 20
2.2799999999999998
 30
1.2703636363636399
 11
0.6680132002392797
 21
2.27
 31
1.3100620522612121
 12
0.7130132002392796
 22
2.27
 32
1.3100620522612121
 13
0.6900000000000001
 23
2.2799999999999998
 33
1.2703636363636399
  0
3DFACE
  5
BFA
  8
0
 10
0.6680132002392797
 20
2.27
 30
1.3100620522612121
 11
0.6510288568297004
 21
2.169999999999999
 31
1.345863636363638
 12
0.7289711431702998
 22
2.169999999999999
 32
1.345863636363638
 13
0.7130132002392796
 23
2.27
 33
1.3100620522612121
  0
3DFACE
  5
BFB
  8
0
 10
0.6510288568297004
 20
2.169999999999999
 30
1.345863636363638
 11
0.6450000000000001
 21
2.069999999999999
 31
1.3635786499769651
 12
0.7349999999999999
 22
2.069999999999999
 32
1.3635786499769651
 13
0.7289711431702998
 23
2.169999999999999
 33
1.345863636363638
  0
3DFACE
  5
BFC
  8
0
 10
0.6900000000000001
 20
2.2799999999999998
 30
1.2703636363636399
 11
0.7130132002392796
 21
2.27
 31
1.3100620522612121
 12
0.7405132002392796
 22
2.27
 32
1.271090909090911
 13
0.6900000000000001
 23
2.2799999999999998
 33
1.2703636363636399
  0
3DFACE
  5
BFD
  8
0
 10
0.7130132002392796
 20
2.27
 30
1.3100620522612121
 11
0.7289711431702998
 21
2.169999999999999
 31
1.345863636363638
 12
0.7700000000000001
 22
2.169999999999999
 32
1.278363636363639
 13
0.7405132002392796
 23
2.27
 33
1.271090909090911
  0
3DFACE
  5
BFE
  8
0
 10
0.7289711431702998
 20
2.169999999999999
 30
1.345863636363638
 11
0.7349999999999999
 21
2.069999999999999
 31
1.3635786499769651
 12
0.7799999999999998
 22
2.069999999999999
 32
1.285636363636367
 13
0.7700000000000001
 23
2.169999999999999
 33
1.278363636363639
  0
3DFACE
  5
C26
  8
0
 10
0.5999999999999999
 20
2.069999999999999
 30
1.285636363636367
 11
0.5
 21
2.0099999999999989
 31
1.290000000000002
 12
0.83
 22
2.0099999999999989
 32
1.290000000000002
 13
0.7799999999999998
 23
2.069999999999999
 33
1.285636363636367
  0
3DFACE
  5
C27
  8
0
 10
0.7799999999999998
 20
2.069999999999999
 30
1.285636363636367
 11
0.83
 21
2.0099999999999989
 31
1.290000000000002
 12
0.83
 22
2.5599999999999992
 32
1.2500000000000031
 13
0.7700000000000001
 23
2.169999999999999
 33
1.278363636363639
  0
3DFACE
  5
C28
  8
0
 10
0.7405132002392796
 20
2.27
 30
1.271090909090911
 11
0.7700000000000001
 21
2.169999999999999
 31
1.278363636363639
 12
0.83
 22
2.5599999999999992
 32
1.2500000000000031
 13
0.83
 23
2.5599999999999992
 33
1.2500000000000031
  0
3DFACE
  5
C29
  8
0
 10
0.6900000000000001
 20
2.2799999999999998
 30
1.2703636363636399
 11
0.7405132002392796
 21
2.27
 31
1.271090909090911
 12
0.83
 22
2.5599999999999992
 32
1.2500000000000031
 13
0.83
 23
2.5599999999999992
 33
1.2500000000000031
  0
3DFACE
  5
C2A
  8
0
 10
0.5
 20
2.5599999999999992
 30
1.2500000000000031
 11
0.5
 21
2.0099999999999989
 31
1.290000000000002
 12
0.5999999999999999
 22
2.069999999999999
 32
1.285636363636367
 13
0.61
 23
2.169999999999999
 33
1.278363636363639
  0
3DFACE
  5
C2B
  8
0
 10
0.5
 20
2.5599999999999992
 30
1.2500000000000031
 11
0.6405132002392797
 21
2.27
 31
1.271090909090911
 12
0.6405132002392797
 22
2.27
 32
1.271090909090911
 13
0.6900000000000001
 23
2.2799999999999998
 33
1.2703636363636399
  0
3DFACE
  5
C2C
  8
0
 10
0.5
 20
2.5599999999999992
 30
1.2500000000000031
 11
0.61
 21
2.169999999999999
 31
1.278363636363639
 12
0.61
 22
2.169999999999999
 32
1.278363636363639
 13
0.6405132002392797
 23
2.27
 33
1.271090909090911
  0
3DFACE
  5
C2D
  8
0
 10
0.6450000000000001
 20
2.069999999999999
 30
1.3635786499769651
 11
0.5999999999999999
 21
2.069999999999999
 31
1.285636363636367
 12
0.7799999999999998
 22
2.069999999999999
 32
1.285636363636367
 13
0.7349999999999999
 23
2.069999999999999
 33
1.3635786499769651
  0
3DFACE
  5
C2E
  8
0
 10
-0.7350000000000002
 20
2.069999999999999
 30
1.3635786499769651
 11
-0.7800000000000003
 21
2.069999999999999
 31
1.285636363636367
 12
-0.6000000000000004
 22
2.069999999999999
 32
1.285636363636367
 13
-0.6450000000000004
 23
2.069999999999999
 33
1.3635786499769651
  0
3DFACE
  5
C2F
  8
0
 10
-0.83
 20
2.5599999999999992
 30
1.2500000000000031
 11
-0.7700000000000001
 21
2.169999999999999
 31
1.278363636363639
 12
-0.7700000000000001
 22
2.169999999999999
 32
1.278363636363639
 13
-0.7394867997607206
 23
2.27
 33
1.271090909090911
  0
3DFACE
  5
C30
  8
0
 10
-0.83
 20
2.5599999999999992
 30
1.2500000000000031
 11
-0.7394867997607206
 21
2.27
 31
1.271090909090911
 12
-0.7394867997607206
 22
2.27
 32
1.271090909090911
 13
-0.6900000000000001
 23
2.2799999999999998
 33
1.2703636363636399
  0
3DFACE
  5
C31
  8
0
 10
-0.83
 20
2.5599999999999992
 30
1.2500000000000031
 11
-0.83
 21
2.0099999999999989
 31
1.290000000000002
 12
-0.7800000000000003
 22
2.069999999999999
 32
1.285636363636367
 13
-0.7700000000000001
 23
2.169999999999999
 33
1.278363636363639
  0
3DFACE
  5
C32
  8
0
 10
-0.6900000000000001
 20
2.2799999999999998
 30
1.2703636363636399
 11
-0.6394867997607207
 21
2.27
 31
1.271090909090911
 12
-0.5
 22
2.5599999999999992
 32
1.2500000000000031
 13
-0.5
 23
2.5599999999999992
 33
1.2500000000000031
  0
3DFACE
  5
C33
  8
0
 10
-0.6394867997607207
 20
2.27
 30
1.271090909090911
 11
-0.6100000000000002
 21
2.169999999999999
 31
1.278363636363639
 12
-0.5
 22
2.5599999999999992
 32
1.2500000000000031
 13
-0.5
 23
2.5599999999999992
 33
1.2500000000000031
  0
3DFACE
  5
C34
  8
0
 10
-0.6000000000000004
 20
2.069999999999999
 30
1.285636363636367
 11
-0.5
 21
2.0099999999999989
 31
1.290000000000002
 12
-0.5
 22
2.5599999999999992
 32
1.2500000000000031
 13
-0.6100000000000002
 23
2.169999999999999
 33
1.278363636363639
  0
3DFACE
  5
C35
  8
0
 10
-0.7800000000000003
 20
2.069999999999999
 30
1.285636363636367
 11
-0.83
 21
2.0099999999999989
 31
1.290000000000002
 12
-0.5
 22
2.0099999999999989
 32
1.290000000000002
 13
-0.6000000000000004
 23
2.069999999999999
 33
1.285636363636367
  0
3DFACE
  5
C36
  8
0
 10
-0.83
 20
2.5599999999999992
 30
1.2500000000000031
 11
-0.6900000000000001
 21
2.2799999999999998
 31
1.2703636363636399
 12
-0.6900000000000001
 22
2.2799999999999998
 32
1.2703636363636399
 13
-0.5
 23
2.5599999999999992
 33
1.2500000000000031
  0
3DFACE
  5
C37
  8
0
 10
-0.83
 20
2.0099999999999989
 30
1.290000000000002
 11
-0.83
 21
2.0099999999999998
 31
1.268775510204083
 12
-0.5
 22
2.0099999999999998
 32
1.268775510204083
 13
-0.5
 23
2.0099999999999989
 33
1.290000000000002
  0
3DFACE
  5
C38
  8
0
 10
-0.5
 20
2.0099999999999989
 30
1.290000000000002
 11
-0.5
 21
2.0099999999999998
 31
1.268775510204083
 12
-0.5
 22
2.5599999999999992
 32
1.21826530612245
 13
-0.5
 23
2.5599999999999992
 33
1.2500000000000031
  0
3DFACE
  5
C39
  8
0
 10
-0.5
 20
2.5599999999999992
 30
1.2500000000000031
 11
-0.5
 21
2.5599999999999992
 31
1.21826530612245
 12
-0.8299999999999997
 22
2.5599999999999992
 32
1.21826530612245
 13
-0.83
 23
2.5599999999999992
 33
1.2500000000000031
  0
3DFACE
  5
C3A
  8
0
 10
-0.8299999999999997
 20
2.5599999999999992
 30
1.21826530612245
 11
-0.83
 21
2.0099999999999998
 31
1.268775510204083
 12
-0.83
 22
2.0099999999999989
 32
1.290000000000002
 13
-0.83
 23
2.5599999999999992
 33
1.2500000000000031
  0
3DFACE
  5
C3B
  8
0
 10
-0.6510288568297004
 20
2.169999999999999
 30
1.345863636363638
 11
-0.6450000000000004
 21
2.069999999999999
 31
1.3635786499769651
 12
-0.6000000000000004
 22
2.069999999999999
 32
1.285636363636367
 13
-0.6100000000000002
 23
2.169999999999999
 33
1.278363636363639
  0
3DFACE
  5
C3C
  8
0
 10
-0.7289711431702998
 20
2.169999999999999
 30
1.345863636363638
 11
-0.7350000000000002
 21
2.069999999999999
 31
1.3635786499769651
 12
-0.6450000000000004
 22
2.069999999999999
 32
1.3635786499769651
 13
-0.6510288568297004
 23
2.169999999999999
 33
1.345863636363638
  0
3DFACE
  5
C3D
  8
0
 10
-0.7700000000000001
 20
2.169999999999999
 30
1.278363636363639
 11
-0.7800000000000003
 21
2.069999999999999
 31
1.285636363636367
 12
-0.7350000000000002
 22
2.069999999999999
 32
1.3635786499769651
 13
-0.7289711431702998
 23
2.169999999999999
 33
1.345863636363638
  0
3DFACE
  5
C3E
  8
0
 10
-0.6669867997607205
 20
2.27
 30
1.3100620522612121
 11
-0.6510288568297004
 21
2.169999999999999
 31
1.345863636363638
 12
-0.6100000000000002
 22
2.169999999999999
 32
1.278363636363639
 13
-0.6394867997607207
 23
2.27
 33
1.271090909090911
  0
3DFACE
  5
C3F
  8
0
 10
-0.7119867997607206
 20
2.27
 30
1.3100620522612121
 11
-0.7289711431702998
 21
2.169999999999999
 31
1.345863636363638
 12
-0.6510288568297004
 22
2.169999999999999
 32
1.345863636363638
 13
-0.6669867997607205
 23
2.27
 33
1.3100620522612121
  0
3DFACE
  5
C40
  8
0
 10
-0.7394867997607206
 20
2.27
 30
1.271090909090911
 11
-0.7700000000000001
 21
2.169999999999999
 31
1.278363636363639
 12
-0.7289711431702998
 22
2.169999999999999
 32
1.345863636363638
 13
-0.7119867997607206
 23
2.27
 33
1.3100620522612121
  0
3DFACE
  5
C41
  8
0
 10
-0.6900000000000001
 20
2.2799999999999998
 30
1.2703636363636399
 11
-0.6669867997607205
 21
2.27
 31
1.3100620522612121
 12
-0.6394867997607207
 22
2.27
 32
1.271090909090911
 13
-0.6900000000000001
 23
2.2799999999999998
 33
1.2703636363636399
  0
3DFACE
  5
C42
  8
0
 10
-0.6900000000000001
 20
2.2799999999999998
 30
1.2703636363636399
 11
-0.7119867997607206
 21
2.27
 31
1.3100620522612121
 12
-0.6669867997607205
 22
2.27
 32
1.3100620522612121
 13
-0.6900000000000001
 23
2.2799999999999998
 33
1.2703636363636399
  0
3DFACE
  5
C43
  8
0
 10
-0.6900000000000001
 20
2.2799999999999998
 30
1.2703636363636399
 11
-0.7394867997607206
 21
2.27
 31
1.271090909090911
 12
-0.7119867997607206
 22
2.27
 32
1.3100620522612121
 13
-0.6900000000000001
 23
2.2799999999999998
 33
1.2703636363636399
  0
3DFACE
  5
C44
  8
0
 10
-0.4999999999999999
 20
2.5599999999999992
 30
1.21826530612245
 11
-0.5000000000000001
 21
2.0099999999999998
 31
1.268775510204083
 12
0.5
 22
2.0099999999999998
 32
1.268775510204083
 13
0.5000000000000004
 23
2.5599999999999992
 33
1.21826530612245
  0
3DFACE
  5
C45
  8
0
 10
-0.9099999999999999
 20
2.649999999999999
 30
1.210000000000004
 11
-0.9099999999999999
 21
1.669999999999999
 31
1.300000000000004
 12
-0.83
 22
2.0099999999999998
 32
1.268775510204083
 13
-0.8299999999999997
 23
2.5599999999999992
 33
1.21826530612245
  0
3DFACE
  5
C46
  8
0
 10
-0.83
 20
2.0099999999999998
 30
1.268775510204083
 11
-0.9099999999999999
 21
1.669999999999999
 31
1.300000000000004
 12
0.9100000000000001
 22
1.669999999999999
 32
1.300000000000004
 13
0.83
 23
2.0099999999999998
 33
1.268775510204083
  0
3DFACE
  5
C47
  8
0
 10
0.83
 20
2.0099999999999998
 30
1.268775510204083
 11
0.9099999999999999
 21
1.6699999999999999
 31
1.300000000000004
 12
0.9099999999999999
 22
2.649999999999999
 32
1.210000000000004
 13
0.8300000000000002
 23
2.5599999999999992
 33
1.21826530612245
  0
3DFACE
  5
C59
  8
0
 10
0.7200000000000001
 20
2.8700000000000001
 30
0.9400000000000012
 11
0.7200000000000001
 21
2.8300000000000001
 31
0.8500000000000014
 12
0.7200000000000001
 22
2.8700000000000001
 32
0.8700000000000009
 13
0.7200000000000001
 23
2.8899999999999988
 33
0.9200000000000017
  0
3DFACE
  5
C5A
  8
0
 10
0.7200000000000001
 20
2.8899999999999988
 30
0.9200000000000017
 11
0.7200000000000001
 21
2.8700000000000001
 31
0.8700000000000009
 12
0.6800000000000001
 22
2.8700000000000001
 32
0.8700000000000009
 13
0.6800000000000001
 23
2.8899999999999988
 33
0.9200000000000017
  0
3DFACE
  5
C5B
  8
0
 10
0.6800000000000001
 20
2.8899999999999988
 30
0.9200000000000017
 11
0.6800000000000001
 21
2.8700000000000001
 31
0.9400000000000012
 12
0.7200000000000001
 22
2.8700000000000001
 32
0.9400000000000012
 13
0.7200000000000001
 23
2.8899999999999988
 33
0.9200000000000017
  0
3DFACE
  5
C5C
  8
0
 10
0.6800000000000001
 20
2.8700000000000001
 30
0.8700000000000009
 11
0.6800000000000001
 21
2.8300000000000001
 31
0.8500000000000014
 12
0.6800000000000001
 22
2.8700000000000001
 32
0.9400000000000012
 13
0.6800000000000001
 23
2.8899999999999988
 33
0.9200000000000017
  0
3DFACE
  5
C5D
  8
0
 10
0.7200000000000001
 20
2.8700000000000001
 30
0.8700000000000009
 11
0.7200000000000001
 21
2.8300000000000001
 31
0.8500000000000014
 12
0.6800000000000001
 22
2.8300000000000001
 32
0.8500000000000014
 13
0.6800000000000001
 23
2.8700000000000001
 33
0.8700000000000009
  0
3DFACE
  5
C5F
  8
0
 10
0.7200000000000001
 20
2.7200000000000002
 30
0.9600000000000044
 11
0.7200000000000001
 21
2.6181481481481481
 31
0.8500000000000014
 12
0.7200000000000001
 22
2.8300000000000001
 32
0.8500000000000014
 13
0.7200000000000001
 23
2.8700000000000001
 33
0.9400000000000012
  0
3DFACE
  5
C61
  8
0
 10
0.7200000000000001
 20
2.8300000000000001
 30
0.8500000000000014
 11
0.7200000000000001
 21
2.6181481481481481
 31
0.8500000000000014
 12
0.6800000000000001
 22
2.6181481481481481
 32
0.8500000000000014
 13
0.6800000000000001
 23
2.8300000000000001
 33
0.8500000000000014
  0
3DFACE
  5
C62
  8
0
 10
0.6800000000000001
 20
2.8300000000000001
 30
0.8500000000000014
 11
0.6800000000000001
 21
2.6181481481481481
 31
0.8500000000000014
 12
0.6800000000000001
 22
2.7200000000000002
 32
0.9600000000000044
 13
0.6800000000000001
 23
2.8700000000000001
 33
0.9400000000000012
  0
3DFACE
  5
C63
  8
0
 10
0.6800000000000001
 20
2.8700000000000001
 30
0.9400000000000012
 11
0.6800000000000001
 21
2.7200000000000002
 31
0.9600000000000044
 12
0.7200000000000001
 22
2.7200000000000002
 32
0.9600000000000044
 13
0.7200000000000001
 23
2.8700000000000001
 33
0.9400000000000012
  0
3DFACE
  5
C69
  8
0
 10
0.83
 20
2.7200000000000002
 30
0.9600000000000044
 11
0.83
 21
2.6181481481481481
 31
0.8500000000000014
 12
0.83
 22
2.8300000000000001
 32
0.8500000000000014
 13
0.83
 23
2.8700000000000001
 33
0.9400000000000012
  0
3DFACE
  5
C6A
  8
0
 10
0.83
 20
2.8300000000000001
 30
0.8500000000000014
 11
0.83
 21
2.6181481481481481
 31
0.8500000000000014
 12
0.7900000000000002
 22
2.6181481481481481
 32
0.8500000000000014
 13
0.7900000000000002
 23
2.8300000000000001
 33
0.8500000000000014
  0
3DFACE
  5
C6B
  8
0
 10
0.7900000000000002
 20
2.8300000000000001
 30
0.8500000000000014
 11
0.7900000000000002
 21
2.6181481481481481
 31
0.8500000000000014
 12
0.7900000000000002
 22
2.7200000000000002
 32
0.9600000000000044
 13
0.7900000000000002
 23
2.8700000000000001
 33
0.9400000000000012
  0
3DFACE
  5
C6C
  8
0
 10
0.7900000000000002
 20
2.8700000000000001
 30
0.9400000000000012
 11
0.7900000000000002
 21
2.7200000000000002
 31
0.9600000000000044
 12
0.83
 22
2.7200000000000002
 32
0.9600000000000044
 13
0.83
 23
2.8700000000000001
 33
0.9400000000000012
  0
3DFACE
  5
C6D
  8
0
 10
0.83
 20
2.8700000000000001
 30
0.8700000000000009
 11
0.83
 21
2.8300000000000001
 31
0.8500000000000014
 12
0.7900000000000002
 22
2.8300000000000001
 32
0.8500000000000014
 13
0.7900000000000002
 23
2.8700000000000001
 33
0.8700000000000009
  0
3DFACE
  5
C6E
  8
0
 10
0.7900000000000002
 20
2.8700000000000001
 30
0.8700000000000009
 11
0.7900000000000002
 21
2.8300000000000001
 31
0.8500000000000014
 12
0.7900000000000002
 22
2.8700000000000001
 32
0.9400000000000012
 13
0.7900000000000002
 23
2.8899999999999988
 33
0.9200000000000017
  0
3DFACE
  5
C6F
  8
0
 10
0.7900000000000002
 20
2.8899999999999988
 30
0.9200000000000017
 11
0.7900000000000002
 21
2.8700000000000001
 31
0.9400000000000012
 12
0.83
 22
2.8700000000000001
 32
0.9400000000000012
 13
0.83
 23
2.8899999999999988
 33
0.9200000000000017
  0
3DFACE
  5
C70
  8
0
 10
0.83
 20
2.8899999999999988
 30
0.9200000000000017
 11
0.83
 21
2.8700000000000001
 31
0.8700000000000009
 12
0.7900000000000002
 22
2.8700000000000001
 32
0.8700000000000009
 13
0.7900000000000002
 23
2.8899999999999988
 33
0.9200000000000017
  0
3DFACE
  5
C71
  8
0
 10
0.83
 20
2.8700000000000001
 30
0.9400000000000012
 11
0.83
 21
2.8300000000000001
 31
0.8500000000000014
 12
0.83
 22
2.8700000000000001
 32
0.8700000000000009
 13
0.83
 23
2.8899999999999988
 33
0.9200000000000017
  0
3DFACE
  5
C73
  8
0
 10
-0.7900000000000002
 20
2.8700000000000001
 30
0.9400000000000012
 11
-0.7900000000000002
 21
2.8300000000000001
 31
0.8500000000000014
 12
-0.7900000000000002
 22
2.8700000000000001
 32
0.8700000000000009
 13
-0.7900000000000002
 23
2.8899999999999988
 33
0.9200000000000017
  0
3DFACE
  5
C74
  8
0
 10
-0.7900000000000002
 20
2.8899999999999988
 30
0.9200000000000017
 11
-0.7900000000000002
 21
2.8700000000000001
 31
0.8700000000000009
 12
-0.8300000000000002
 22
2.8700000000000001
 32
0.8700000000000009
 13
-0.8300000000000002
 23
2.8899999999999988
 33
0.9200000000000017
  0
3DFACE
  5
C75
  8
0
 10
-0.8300000000000002
 20
2.8899999999999988
 30
0.9200000000000017
 11
-0.8300000000000002
 21
2.8700000000000001
 31
0.9400000000000012
 12
-0.7900000000000002
 22
2.8700000000000001
 32
0.9400000000000012
 13
-0.7900000000000002
 23
2.8899999999999988
 33
0.9200000000000017
  0
3DFACE
  5
C76
  8
0
 10
-0.8300000000000002
 20
2.8700000000000001
 30
0.8700000000000009
 11
-0.8300000000000002
 21
2.8300000000000001
 31
0.8500000000000014
 12
-0.8300000000000002
 22
2.8700000000000001
 32
0.9400000000000012
 13
-0.8300000000000002
 23
2.8899999999999988
 33
0.9200000000000017
  0
3DFACE
  5
C77
  8
0
 10
-0.7900000000000002
 20
2.8700000000000001
 30
0.8700000000000009
 11
-0.7900000000000002
 21
2.8300000000000001
 31
0.8500000000000014
 12
-0.8300000000000002
 22
2.8300000000000001
 32
0.8500000000000014
 13
-0.8300000000000002
 23
2.8700000000000001
 33
0.8700000000000009
  0
3DFACE
  5
C78
  8
0
 10
-0.8300000000000002
 20
2.8700000000000001
 30
0.9400000000000012
 11
-0.8300000000000002
 21
2.7200000000000002
 31
0.9600000000000044
 12
-0.7900000000000002
 22
2.7200000000000002
 32
0.9600000000000044
 13
-0.7900000000000002
 23
2.8700000000000001
 33
0.9400000000000012
  0
3DFACE
  5
C79
  8
0
 10
-0.8300000000000002
 20
2.8300000000000001
 30
0.8500000000000014
 11
-0.8300000000000002
 21
2.6181481481481481
 31
0.8500000000000014
 12
-0.8300000000000002
 22
2.7200000000000002
 32
0.9600000000000044
 13
-0.8300000000000002
 23
2.8700000000000001
 33
0.9400000000000012
  0
3DFACE
  5
C7A
  8
0
 10
-0.7900000000000002
 20
2.8300000000000001
 30
0.8500000000000014
 11
-0.7900000000000002
 21
2.6181481481481481
 31
0.8500000000000014
 12
-0.8300000000000002
 22
2.6181481481481481
 32
0.8500000000000014
 13
-0.8300000000000002
 23
2.8300000000000001
 33
0.8500000000000014
  0
3DFACE
  5
C7B
  8
0
 10
-0.7900000000000002
 20
2.7200000000000002
 30
0.9600000000000044
 11
-0.7900000000000002
 21
2.6181481481481481
 31
0.8500000000000014
 12
-0.7900000000000002
 22
2.8300000000000001
 32
0.8500000000000014
 13
-0.7900000000000002
 23
2.8700000000000001
 33
0.9400000000000012
  0
3DFACE
  5
C7C
  8
0
 10
-0.6800000000000002
 20
2.7200000000000002
 30
0.9600000000000044
 11
-0.6800000000000002
 21
2.6181481481481481
 31
0.8500000000000014
 12
-0.6800000000000002
 22
2.8300000000000001
 32
0.8500000000000014
 13
-0.6800000000000002
 23
2.8700000000000001
 33
0.9400000000000012
  0
3DFACE
  5
C7D
  8
0
 10
-0.6800000000000002
 20
2.8300000000000001
 30
0.8500000000000014
 11
-0.6800000000000002
 21
2.6181481481481481
 31
0.8500000000000014
 12
-0.7200000000000002
 22
2.6181481481481481
 32
0.8500000000000014
 13
-0.7200000000000002
 23
2.8300000000000001
 33
0.8500000000000014
  0
3DFACE
  5
C7E
  8
0
 10
-0.7200000000000002
 20
2.8300000000000001
 30
0.8500000000000014
 11
-0.7200000000000002
 21
2.6181481481481481
 31
0.8500000000000014
 12
-0.7200000000000002
 22
2.7200000000000002
 32
0.9600000000000044
 13
-0.7200000000000002
 23
2.8700000000000001
 33
0.9400000000000012
  0
3DFACE
  5
C7F
  8
0
 10
-0.7200000000000002
 20
2.8700000000000001
 30
0.9400000000000012
 11
-0.7200000000000002
 21
2.7200000000000002
 31
0.9600000000000044
 12
-0.6800000000000002
 22
2.7200000000000002
 32
0.9600000000000044
 13
-0.6800000000000002
 23
2.8700000000000001
 33
0.9400000000000012
  0
3DFACE
  5
C80
  8
0
 10
-0.6800000000000002
 20
2.8700000000000001
 30
0.8700000000000009
 11
-0.6800000000000002
 21
2.8300000000000001
 31
0.8500000000000014
 12
-0.7200000000000002
 22
2.8300000000000001
 32
0.8500000000000014
 13
-0.7200000000000002
 23
2.8700000000000001
 33
0.8700000000000009
  0
3DFACE
  5
C81
  8
0
 10
-0.7200000000000002
 20
2.8700000000000001
 30
0.8700000000000009
 11
-0.7200000000000002
 21
2.8300000000000001
 31
0.8500000000000014
 12
-0.7200000000000002
 22
2.8700000000000001
 32
0.9400000000000012
 13
-0.7200000000000002
 23
2.8899999999999988
 33
0.9200000000000017
  0
3DFACE
  5
C82
  8
0
 10
-0.7200000000000002
 20
2.8899999999999988
 30
0.9200000000000017
 11
-0.7200000000000002
 21
2.8700000000000001
 31
0.9400000000000012
 12
-0.6800000000000002
 22
2.8700000000000001
 32
0.9400000000000012
 13
-0.6800000000000002
 23
2.8899999999999988
 33
0.9200000000000017
  0
3DFACE
  5
C83
  8
0
 10
-0.6800000000000002
 20
2.8899999999999988
 30
0.9200000000000017
 11
-0.6800000000000002
 21
2.8700000000000001
 31
0.8700000000000009
 12
-0.7200000000000002
 22
2.8700000000000001
 32
0.8700000000000009
 13
-0.7200000000000002
 23
2.8899999999999988
 33
0.9200000000000017
  0
3DFACE
  5
C84
  8
0
 10
-0.6800000000000002
 20
2.8700000000000001
 30
0.9400000000000012
 11
-0.6800000000000002
 21
2.8300000000000001
 31
0.8500000000000014
 12
-0.6800000000000002
 22
2.8700000000000001
 32
0.8700000000000009
 13
-0.6800000000000002
 23
2.8899999999999988
 33
0.9200000000000017
  0
3DFACE
  5
C9C
  8
0
 10
-0.95
 20
-2.2000000000000002
 30
1.050000000000004
 11
-0.95
 21
-2.3700000000000001
 31
1.0300000000000009
 12
-0.95
 22
-2.3900000000000001
 32
1.180000000000003
 13
-0.95
 23
-2.2299999999999991
 33
1.200000000000002
  0
3DFACE
  5
C9F
  8
0
 10
-0.95
 20
-2.2299999999999991
 30
1.200000000000002
 11
-0.95
 21
-2.3900000000000001
 31
1.180000000000003
 12
-0.9099999999999999
 22
-2.3900000000000001
 32
1.180000000000003
 13
-0.9099999999999999
 23
-2.2299999999999991
 33
1.200000000000002
  0
3DFACE
  5
CA0
  8
0
 10
-0.9099999999999999
 20
-2.2299999999999991
 30
1.200000000000002
 11
-0.9099999999999999
 21
-2.2000000000000002
 31
1.050000000000004
 12
-0.95
 22
-2.2000000000000002
 32
1.050000000000004
 13
-0.95
 23
-2.2299999999999991
 33
1.200000000000002
  0
3DFACE
  5
CA1
  8
0
 10
-0.9099999999999999
 20
-2.2000000000000002
 30
1.050000000000004
 11
-0.9099999999999999
 21
-2.3700000000000001
 31
1.0300000000000009
 12
-0.95
 22
-2.3700000000000001
 32
1.0300000000000009
 13
-0.95
 23
-2.2000000000000002
 33
1.050000000000004
  0
3DFACE
  5
CA5
  8
0
 10
-0.9099999999999999
 20
-2.4700000000000002
 30
1.160000000000003
 11
-0.9099999999999999
 21
-2.4300000000000002
 31
1.1066666666666689
 12
-0.9099999999999999
 22
-2.4300000000000002
 32
1.1066666666666689
 13
-0.9099999999999999
 23
-2.4300000000000002
 33
1.170000000000001
  0
3DFACE
  5
CA6
  8
0
 10
-0.95
 20
-2.3700000000000001
 30
1.0300000000000009
 11
-0.95
 21
-2.4100000000000001
 31
1.080000000000001
 12
-0.95
 22
-2.4700000000000002
 32
1.160000000000003
 13
-0.95
 23
-2.3899999999999988
 33
1.180000000000003
  0
3DFACE
  5
CA8
  8
0
 10
-0.9099999999999999
 20
-2.3700000000000001
 30
1.0300000000000009
 11
-0.9099999999999999
 21
-2.4100000000000001
 31
1.080000000000001
 12
-0.95
 22
-2.4100000000000001
 32
1.080000000000001
 13
-0.95
 23
-2.3700000000000001
 33
1.0300000000000009
  0
3DFACE
  5
CA9
  8
0
 10
-0.95
 20
-2.3899999999999988
 30
1.180000000000003
 11
-0.95
 21
-2.4700000000000002
 31
1.160000000000003
 12
-0.9099999999999999
 22
-2.4700000000000002
 32
1.160000000000003
 13
-0.9099999999999999
 23
-2.3899999999999988
 33
1.180000000000003
  0
3DFACE
  5
CAB
  8
0
 10
-0.95
 20
-2.4700000000000002
 30
1.160000000000003
 11
-0.95
 21
-2.5199999999999991
 31
1.1400000000000039
 12
-0.9099999999999999
 22
-2.5199999999999991
 32
1.1400000000000039
 13
-0.9099999999999999
 23
-2.4700000000000002
 33
1.160000000000003
  0
3DFACE
  5
CAC
  8
0
 10
-0.95
 20
-2.4100000000000001
 30
1.080000000000001
 11
-0.95
 21
-2.4599999999999991
 31
1.080000000000001
 12
-0.95
 22
-2.5199999999999991
 32
1.1400000000000039
 13
-0.95
 23
-2.4700000000000002
 33
1.160000000000003
  0
3DFACE
  5
CAD
  8
0
 10
-0.9099999999999999
 20
-2.5199999999999991
 30
1.1400000000000039
 11
-0.9099999999999999
 21
-2.4599999999999991
 31
1.080000000000001
 12
-0.9099999999999999
 22
-2.4100000000000001
 32
1.080000000000001
 13
-0.9099999999999999
 23
-2.4700000000000002
 33
1.160000000000003
  0
3DFACE
  5
CB0
  8
0
 10
-0.9099999999999999
 20
-2.4100000000000001
 30
1.080000000000001
 11
-0.9099999999999999
 21
-2.4599999999999991
 31
1.080000000000001
 12
-0.95
 22
-2.4599999999999991
 32
1.080000000000001
 13
-0.95
 23
-2.4100000000000001
 33
1.080000000000001
  0
3DFACE
  5
CB2
  8
0
 10
-0.9099999999999999
 20
-2.5499999999999998
 30
1.100000000000001
 11
-0.9099999999999999
 21
-2.4900000000000002
 31
1.050000000000004
 12
-0.9099999999999999
 22
-2.4599999999999991
 32
1.080000000000001
 13
-0.9099999999999999
 23
-2.5199999999999991
 33
1.1400000000000039
  0
3DFACE
  5
CB4
  8
0
 10
-0.95
 20
-2.4599999999999991
 30
1.080000000000001
 11
-0.95
 21
-2.4900000000000002
 31
1.050000000000004
 12
-0.95
 22
-2.5499999999999998
 32
1.100000000000001
 13
-0.95
 23
-2.5199999999999991
 33
1.1400000000000039
  0
3DFACE
  5
CB6
  8
0
 10
-0.9099999999999999
 20
-2.4599999999999991
 30
1.080000000000001
 11
-0.9099999999999999
 21
-2.4900000000000002
 31
1.050000000000004
 12
-0.95
 22
-2.4900000000000002
 32
1.050000000000004
 13
-0.95
 23
-2.4599999999999991
 33
1.080000000000001
  0
3DFACE
  5
CB7
  8
0
 10
-0.95
 20
-2.5199999999999991
 30
1.1400000000000039
 11
-0.95
 21
-2.5499999999999998
 31
1.100000000000001
 12
-0.9099999999999999
 22
-2.5499999999999998
 32
1.100000000000001
 13
-0.9099999999999999
 23
-2.5199999999999991
 33
1.1400000000000039
  0
3DFACE
  5
CB9
  8
0
 10
-0.95
 20
-2.5499999999999998
 30
1.100000000000001
 11
-0.95
 21
-2.5499999999999998
 31
1.0300000000000009
 12
-0.9099999999999999
 22
-2.5499999999999998
 32
1.0300000000000009
 13
-0.9099999999999999
 23
-2.5499999999999998
 33
1.100000000000001
  0
3DFACE
  5
CBB
  8
0
 10
-0.95
 20
-2.4900000000000002
 30
1.050000000000004
 11
-0.95
 21
-2.4900000000000002
 31
1.0200000000000029
 12
-0.95
 22
-2.5499999999999998
 32
1.0300000000000009
 13
-0.95
 23
-2.5499999999999998
 33
1.100000000000001
  0
3DFACE
  5
CBC
  8
0
 10
-0.9099999999999999
 20
-2.5499999999999998
 30
1.0300000000000009
 11
-0.9099999999999999
 21
-2.4900000000000002
 31
1.0200000000000029
 12
-0.9099999999999999
 22
-2.4900000000000002
 32
1.050000000000004
 13
-0.9099999999999999
 23
-2.5499999999999998
 33
1.100000000000001
  0
3DFACE
  5
CBE
  8
0
 10
-0.9099999999999999
 20
-2.4900000000000002
 30
1.050000000000004
 11
-0.9099999999999999
 21
-2.4900000000000002
 31
1.0200000000000029
 12
-0.95
 22
-2.4900000000000002
 32
1.0200000000000029
 13
-0.95
 23
-2.4900000000000002
 33
1.050000000000004
  0
3DFACE
  5
CC0
  8
0
 10
-0.95
 20
-2.4900000000000002
 30
1.0200000000000029
 11
-0.95
 21
-2.4599999999999991
 31
0.9800000000000039
 12
-0.95
 22
-2.5199999999999991
 32
0.9800000000000039
 13
-0.95
 23
-2.5499999999999998
 33
1.0300000000000009
  0
3DFACE
  5
CC1
  8
0
 10
-0.9099999999999999
 20
-2.5199999999999991
 30
0.9800000000000039
 11
-0.9099999999999999
 21
-2.4599999999999991
 31
0.9800000000000039
 12
-0.9099999999999999
 22
-2.4900000000000002
 32
1.0200000000000029
 13
-0.9099999999999999
 23
-2.5499999999999998
 33
1.0300000000000009
  0
3DFACE
  5
CC4
  8
0
 10
-0.9099999999999999
 20
-2.4900000000000002
 30
1.0200000000000029
 11
-0.9099999999999999
 21
-2.4599999999999991
 31
0.9800000000000039
 12
-0.95
 22
-2.4599999999999991
 32
0.9800000000000039
 13
-0.95
 23
-2.4900000000000002
 33
1.0200000000000029
  0
3DFACE
  5
CC5
  8
0
 10
-0.95
 20
-2.5499999999999998
 30
1.0300000000000009
 11
-0.95
 21
-2.5199999999999991
 31
0.9800000000000039
 12
-0.9099999999999999
 22
-2.5199999999999991
 32
0.9800000000000039
 13
-0.9099999999999999
 23
-2.5499999999999998
 33
1.0300000000000009
  0
3DFACE
  5
CC7
  8
0
 10
-0.9099999999999999
 20
-2.48
 30
0.9600000000000044
 11
-0.9099999999999999
 21
-2.4399999999999991
 31
0.9600000000000044
 12
-0.9099999999999999
 22
-2.4599999999999991
 32
0.9800000000000039
 13
-0.9099999999999999
 23
-2.5199999999999991
 33
0.9800000000000039
  0
3DFACE
  5
CC8
  8
0
 10
-0.95
 20
-2.48
 30
0.9600000000000044
 11
-0.95
 21
-2.4399999999999991
 31
0.9600000000000044
 12
-0.9099999999999999
 22
-2.4399999999999991
 32
0.9600000000000044
 13
-0.9099999999999999
 23
-2.48
 33
0.9600000000000044
  0
3DFACE
  5
CC9
  8
0
 10
-0.95
 20
-2.5199999999999991
 30
0.9800000000000039
 11
-0.95
 21
-2.48
 31
0.9600000000000044
 12
-0.9099999999999999
 22
-2.48
 32
0.9600000000000044
 13
-0.9099999999999999
 23
-2.5199999999999991
 33
0.9800000000000039
  0
3DFACE
  5
CCA
  8
0
 10
-0.95
 20
-2.4599999999999991
 30
0.9800000000000039
 11
-0.95
 21
-2.4399999999999991
 31
0.9600000000000044
 12
-0.95
 22
-2.48
 32
0.9600000000000044
 13
-0.95
 23
-2.5199999999999991
 33
0.9800000000000039
  0
3DFACE
  5
CCC
  8
0
 10
-0.9099999999999999
 20
-2.4599999999999991
 30
0.9800000000000039
 11
-0.9099999999999999
 21
-2.4399999999999991
 31
0.9600000000000044
 12
-0.95
 22
-2.4399999999999991
 32
0.9600000000000044
 13
-0.95
 23
-2.4599999999999991
 33
0.9800000000000039
  0
3DFACE
  5
CCF
  8
0
 10
0.95
 20
-2.3900000000000001
 30
1.180000000000003
 11
0.95
 21
-2.3700000000000001
 31
1.0300000000000009
 12
0.95
 22
-2.2000000000000002
 32
1.050000000000004
 13
0.95
 23
-2.2299999999999991
 33
1.200000000000002
  0
3DFACE
  5
CD0
  8
0
 10
0.95
 20
-2.2299999999999991
 30
1.200000000000002
 11
0.95
 21
-2.2000000000000002
 31
1.050000000000004
 12
0.9099999999999999
 22
-2.2000000000000002
 32
1.050000000000004
 13
0.9099999999999999
 23
-2.2299999999999991
 33
1.200000000000002
  0
3DFACE
  5
CD1
  8
0
 10
0.9099999999999999
 20
-2.2299999999999991
 30
1.200000000000002
 11
0.9099999999999999
 21
-2.3900000000000001
 31
1.180000000000003
 12
0.95
 22
-2.3900000000000001
 32
1.180000000000003
 13
0.95
 23
-2.2299999999999991
 33
1.200000000000002
  0
3DFACE
  5
CD2
  8
0
 10
0.95
 20
-2.4599999999999991
 30
0.9800000000000039
 11
0.95
 21
-2.4399999999999991
 31
0.9600000000000044
 12
0.9099999999999999
 22
-2.4399999999999991
 32
0.9600000000000044
 13
0.9099999999999999
 23
-2.4599999999999991
 33
0.9800000000000039
  0
3DFACE
  5
CD3
  8
0
 10
0.9099999999999999
 20
-2.4599999999999991
 30
0.9800000000000039
 11
0.9099999999999999
 21
-2.4399999999999991
 31
0.9600000000000044
 12
0.9099999999999999
 22
-2.48
 32
0.9600000000000044
 13
0.9099999999999999
 23
-2.5199999999999991
 33
0.9800000000000039
  0
3DFACE
  5
CD4
  8
0
 10
0.95
 20
-2.48
 30
0.9600000000000044
 11
0.95
 21
-2.4399999999999991
 31
0.9600000000000044
 12
0.95
 22
-2.4599999999999991
 32
0.9800000000000039
 13
0.95
 23
-2.5199999999999991
 33
0.9800000000000039
  0
3DFACE
  5
CD5
  8
0
 10
0.9099999999999999
 20
-2.48
 30
0.9600000000000044
 11
0.9099999999999999
 21
-2.4399999999999991
 31
0.9600000000000044
 12
0.95
 22
-2.4399999999999991
 32
0.9600000000000044
 13
0.95
 23
-2.48
 33
0.9600000000000044
  0
3DFACE
  5
CD6
  8
0
 10
0.9099999999999999
 20
-2.5199999999999991
 30
0.9800000000000039
 11
0.9099999999999999
 21
-2.48
 31
0.9600000000000044
 12
0.95
 22
-2.48
 32
0.9600000000000044
 13
0.95
 23
-2.5199999999999991
 33
0.9800000000000039
  0
3DFACE
  5
CD7
  8
0
 10
0.95
 20
-2.5199999999999991
 30
0.9800000000000039
 11
0.95
 21
-2.4599999999999991
 31
0.9800000000000039
 12
0.95
 22
-2.4900000000000002
 32
1.0200000000000029
 13
0.95
 23
-2.5499999999999998
 33
1.0300000000000009
  0
3DFACE
  5
CD8
  8
0
 10
0.9099999999999999
 20
-2.5499999999999998
 30
1.0300000000000009
 11
0.9099999999999999
 21
-2.5199999999999991
 31
0.9800000000000039
 12
0.95
 22
-2.5199999999999991
 32
0.9800000000000039
 13
0.95
 23
-2.5499999999999998
 33
1.0300000000000009
  0
3DFACE
  5
CD9
  8
0
 10
0.9099999999999999
 20
-2.4900000000000002
 30
1.0200000000000029
 11
0.9099999999999999
 21
-2.4599999999999991
 31
0.9800000000000039
 12
0.9099999999999999
 22
-2.5199999999999991
 32
0.9800000000000039
 13
0.9099999999999999
 23
-2.5499999999999998
 33
1.0300000000000009
  0
3DFACE
  5
CDA
  8
0
 10
0.95
 20
-2.4900000000000002
 30
1.0200000000000029
 11
0.95
 21
-2.4599999999999991
 31
0.9800000000000039
 12
0.9099999999999999
 22
-2.4599999999999991
 32
0.9800000000000039
 13
0.9099999999999999
 23
-2.4900000000000002
 33
1.0200000000000029
  0
3DFACE
  5
CDB
  8
0
 10
0.95
 20
-2.5499999999999998
 30
1.0300000000000009
 11
0.95
 21
-2.4900000000000002
 31
1.0200000000000029
 12
0.95
 22
-2.4900000000000002
 32
1.050000000000004
 13
0.95
 23
-2.5499999999999998
 33
1.100000000000001
  0
3DFACE
  5
CDC
  8
0
 10
0.9099999999999999
 20
-2.5499999999999998
 30
1.100000000000001
 11
0.9099999999999999
 21
-2.5499999999999998
 31
1.0300000000000009
 12
0.95
 22
-2.5499999999999998
 32
1.0300000000000009
 13
0.95
 23
-2.5499999999999998
 33
1.100000000000001
  0
3DFACE
  5
CDD
  8
0
 10
0.9099999999999999
 20
-2.4900000000000002
 30
1.050000000000004
 11
0.9099999999999999
 21
-2.4900000000000002
 31
1.0200000000000029
 12
0.9099999999999999
 22
-2.5499999999999998
 32
1.0300000000000009
 13
0.9099999999999999
 23
-2.5499999999999998
 33
1.100000000000001
  0
3DFACE
  5
CDE
  8
0
 10
0.95
 20
-2.4900000000000002
 30
1.050000000000004
 11
0.95
 21
-2.4900000000000002
 31
1.0200000000000029
 12
0.9099999999999999
 22
-2.4900000000000002
 32
1.0200000000000029
 13
0.9099999999999999
 23
-2.4900000000000002
 33
1.050000000000004
  0
3DFACE
  5
CDF
  8
0
 10
0.95
 20
-2.5499999999999998
 30
1.100000000000001
 11
0.95
 21
-2.4900000000000002
 31
1.050000000000004
 12
0.95
 22
-2.4599999999999991
 32
1.080000000000001
 13
0.95
 23
-2.5199999999999991
 33
1.1400000000000039
  0
3DFACE
  5
CE0
  8
0
 10
0.9099999999999999
 20
-2.4599999999999991
 30
1.080000000000001
 11
0.9099999999999999
 21
-2.4900000000000002
 31
1.050000000000004
 12
0.9099999999999999
 22
-2.5499999999999998
 32
1.100000000000001
 13
0.9099999999999999
 23
-2.5199999999999991
 33
1.1400000000000039
  0
3DFACE
  5
CE1
  8
0
 10
0.95
 20
-2.4599999999999991
 30
1.080000000000001
 11
0.95
 21
-2.4900000000000002
 31
1.050000000000004
 12
0.9099999999999999
 22
-2.4900000000000002
 32
1.050000000000004
 13
0.9099999999999999
 23
-2.4599999999999991
 33
1.080000000000001
  0
3DFACE
  5
CE2
  8
0
 10
0.9099999999999999
 20
-2.5199999999999991
 30
1.1400000000000039
 11
0.9099999999999999
 21
-2.5499999999999998
 31
1.100000000000001
 12
0.95
 22
-2.5499999999999998
 32
1.100000000000001
 13
0.95
 23
-2.5199999999999991
 33
1.1400000000000039
  0
3DFACE
  5
CE3
  8
0
 10
0.95
 20
-2.5199999999999991
 30
1.1400000000000039
 11
0.95
 21
-2.4599999999999991
 31
1.080000000000001
 12
0.95
 22
-2.4100000000000001
 32
1.080000000000001
 13
0.95
 23
-2.4700000000000002
 33
1.160000000000003
  0
3DFACE
  5
CE4
  8
0
 10
0.9099999999999999
 20
-2.4100000000000001
 30
1.080000000000001
 11
0.9099999999999999
 21
-2.4599999999999991
 31
1.080000000000001
 12
0.9099999999999999
 22
-2.5199999999999991
 32
1.1400000000000039
 13
0.9099999999999999
 23
-2.4700000000000002
 33
1.160000000000003
  0
3DFACE
  5
CE5
  8
0
 10
0.95
 20
-2.4100000000000001
 30
1.080000000000001
 11
0.95
 21
-2.4599999999999991
 31
1.080000000000001
 12
0.9099999999999999
 22
-2.4599999999999991
 32
1.080000000000001
 13
0.9099999999999999
 23
-2.4100000000000001
 33
1.080000000000001
  0
3DFACE
  5
CE6
  8
0
 10
0.95
 20
-2.4700000000000002
 30
1.160000000000003
 11
0.95
 21
-2.4100000000000001
 31
1.080000000000001
 12
0.95
 22
-2.3700000000000001
 32
1.0300000000000009
 13
0.95
 23
-2.3899999999999988
 33
1.180000000000003
  0
3DFACE
  5
CE7
  8
0
 10
0.9099999999999999
 20
-2.4300000000000002
 30
1.1066666666666689
 11
0.9099999999999999
 21
-2.4300000000000002
 31
1.1066666666666689
 12
0.9099999999999999
 22
-2.4700000000000002
 32
1.160000000000003
 13
0.9099999999999999
 23
-2.4300000000000002
 33
1.170000000000001
  0
3DFACE
  5
CE8
  8
0
 10
0.95
 20
-2.3700000000000001
 30
1.0300000000000009
 11
0.95
 21
-2.4100000000000001
 31
1.080000000000001
 12
0.9099999999999999
 22
-2.4100000000000001
 32
1.080000000000001
 13
0.9099999999999999
 23
-2.3700000000000001
 33
1.0300000000000009
  0
3DFACE
  5
CE9
  8
0
 10
0.95
 20
-2.2000000000000002
 30
1.050000000000004
 11
0.95
 21
-2.3700000000000001
 31
1.0300000000000009
 12
0.9099999999999999
 22
-2.3700000000000001
 32
1.0300000000000009
 13
0.9099999999999999
 23
-2.2000000000000002
 33
1.050000000000004
  0
3DFACE
  5
CEA
  8
0
 10
0.9099999999999999
 20
-2.3899999999999988
 30
1.180000000000003
 11
0.9099999999999999
 21
-2.4700000000000002
 31
1.160000000000003
 12
0.95
 22
-2.4700000000000002
 32
1.160000000000003
 13
0.95
 23
-2.3899999999999988
 33
1.180000000000003
  0
3DFACE
  5
CEB
  8
0
 10
0.9099999999999999
 20
-2.4700000000000002
 30
1.160000000000003
 11
0.9099999999999999
 21
-2.5199999999999991
 31
1.1400000000000039
 12
0.95
 22
-2.5199999999999991
 32
1.1400000000000039
 13
0.95
 23
-2.4700000000000002
 33
1.160000000000003
  0
3DFACE
  5
D9F
  8
0
 10
1.03
 20
2.1399999999999988
 30
1.3700000000000001
 11
1.004999999999999
 21
2.0966987298107771
 31
1.3700000000000001
 12
1.0149999999999999
 22
2.07937822173509
 32
1.290000000000002
 13
1.05
 23
2.1399999999999988
 33
1.290000000000002
  0
3DFACE
  5
DA0
  8
0
 10
1.004999999999999
 20
2.0966987298107771
 30
1.3700000000000001
 11
0.9549999999999999
 21
2.0966987298107771
 31
1.3700000000000001
 12
0.945
 22
2.07937822173509
 32
1.290000000000002
 13
1.0149999999999999
 23
2.07937822173509
 33
1.290000000000002
  0
3DFACE
  5
DA1
  8
0
 10
0.9549999999999999
 20
2.0966987298107771
 30
1.3700000000000001
 11
0.9299999999999998
 21
2.1399999999999988
 31
1.3700000000000001
 12
0.9099999999999999
 22
2.1399999999999988
 32
1.290000000000002
 13
0.945
 23
2.07937822173509
 33
1.290000000000002
  0
3DFACE
  5
DA2
  8
0
 10
0.9299999999999998
 20
2.1399999999999988
 30
1.3700000000000001
 11
0.9549999999999999
 21
2.1833012701892218
 31
1.3700000000000001
 12
0.945
 22
2.2006217782649111
 32
1.290000000000002
 13
0.9099999999999999
 23
2.1399999999999988
 33
1.290000000000002
  0
3DFACE
  5
DA3
  8
0
 10
0.9549999999999999
 20
2.1833012701892218
 30
1.3700000000000001
 11
1.004999999999999
 21
2.1833012701892218
 31
1.3700000000000001
 12
1.014999999999999
 22
2.2006217782649111
 32
1.290000000000002
 13
0.945
 23
2.2006217782649111
 33
1.290000000000002
  0
3DFACE
  5
DA4
  8
0
 10
1.004999999999999
 20
2.1833012701892218
 30
1.3700000000000001
 11
1.03
 21
2.1399999999999988
 31
1.3700000000000001
 12
1.05
 22
2.1399999999999988
 32
1.290000000000002
 13
1.014999999999999
 23
2.2006217782649111
 33
1.290000000000002
  0
3DFACE
  5
DA5
  8
0
 10
1.0
 20
2.1399999999999988
 30
1.3700000000000001
 11
0.98
 21
2.1600000000000001
 31
1.3700000000000001
 12
0.98
 22
2.1600000000000001
 32
1.450000000000002
 13
1.0
 23
2.1399999999999988
 33
1.450000000000002
  0
3DFACE
  5
DA6
  8
0
 10
0.98
 20
2.1600000000000001
 30
1.3700000000000001
 11
0.9599999999999999
 21
2.1399999999999988
 31
1.3700000000000001
 12
0.9599999999999999
 22
2.1399999999999988
 32
1.450000000000002
 13
0.98
 23
2.1600000000000001
 33
1.450000000000002
  0
3DFACE
  5
DA7
  8
0
 10
0.9599999999999999
 20
2.1399999999999988
 30
1.3700000000000001
 11
0.98
 21
2.1200000000000001
 31
1.3700000000000001
 12
0.98
 22
2.1200000000000001
 32
1.450000000000002
 13
0.9599999999999999
 23
2.1399999999999988
 33
1.450000000000002
  0
3DFACE
  5
DA8
  8
0
 10
0.98
 20
2.1200000000000001
 30
1.3700000000000001
 11
1.0
 21
2.1399999999999988
 31
1.3700000000000001
 12
1.0
 22
2.1399999999999988
 32
1.450000000000002
 13
0.98
 23
2.1200000000000001
 33
1.450000000000002
  0
3DFACE
  5
DA9
  8
0
 10
0.98
 20
2.0599999999999992
 30
1.5100000000000009
 11
0.94
 21
2.0707179676972451
 31
1.5100000000000009
 12
0.9600000000000001
 22
2.0707179676972451
 32
1.475358983848625
 13
0.98
 23
2.0599999999999992
 33
1.5100000000000009
  0
3DFACE
  5
DAA
  8
0
 10
0.94
 20
2.0707179676972451
 30
1.5100000000000009
 11
0.9107179676972451
 21
2.1000000000000001
 31
1.5100000000000009
 12
0.9453589838486228
 22
2.1000000000000001
 32
1.450000000000002
 13
0.9600000000000001
 23
2.0707179676972451
 33
1.475358983848625
  0
3DFACE
  5
DAB
  8
0
 10
0.9107179676972451
 20
2.1000000000000001
 30
1.5100000000000009
 11
0.9
 21
2.1399999999999988
 31
1.5100000000000009
 12
0.94
 22
2.1399999999999988
 32
1.4407179676972459
 13
0.9453589838486228
 23
2.1000000000000001
 33
1.450000000000002
  0
3DFACE
  5
DAC
  8
0
 10
0.9
 20
2.1399999999999988
 30
1.5100000000000009
 11
0.9107179676972451
 21
2.1800000000000002
 31
1.5100000000000009
 12
0.9453589838486228
 22
2.1800000000000002
 32
1.450000000000002
 13
0.94
 23
2.1399999999999988
 33
1.4407179676972459
  0
3DFACE
  5
DAD
  8
0
 10
0.9107179676972451
 20
2.1800000000000002
 30
1.5100000000000009
 11
0.94
 21
2.2092820323027551
 31
1.5100000000000009
 12
0.9600000000000001
 22
2.2092820323027551
 32
1.475358983848625
 13
0.9453589838486228
 23
2.1800000000000002
 33
1.450000000000002
  0
3DFACE
  5
DAE
  8
0
 10
0.94
 20
2.2092820323027551
 30
1.5100000000000009
 11
0.98
 21
2.2199999999999989
 31
1.5100000000000009
 12
0.98
 22
2.2199999999999989
 32
1.5100000000000009
 13
0.9600000000000001
 23
2.2092820323027551
 33
1.475358983848625
  0
3DFACE
  5
DAF
  8
0
 10
0.98
 20
2.0599999999999992
 30
1.5100000000000009
 11
0.9600000000000001
 21
2.0707179676972451
 31
1.475358983848625
 12
1.0
 22
2.0707179676972451
 32
1.475358983848625
 13
0.98
 23
2.0599999999999992
 33
1.5100000000000009
  0
3DFACE
  5
DB0
  8
0
 10
0.9600000000000001
 20
2.0707179676972451
 30
1.475358983848625
 11
0.9453589838486228
 21
2.1000000000000001
 31
1.450000000000002
 12
1.014641016151377
 22
2.1000000000000001
 32
1.450000000000002
 13
1.0
 23
2.0707179676972451
 33
1.475358983848625
  0
3DFACE
  5
DB1
  8
0
 10
0.9453589838486228
 20
2.1000000000000001
 30
1.450000000000002
 11
0.94
 21
2.1399999999999988
 31
1.4407179676972459
 12
1.02
 22
2.1399999999999988
 32
1.4407179676972459
 13
1.014641016151377
 23
2.1000000000000001
 33
1.450000000000002
  0
3DFACE
  5
DB2
  8
0
 10
0.94
 20
2.1399999999999988
 30
1.4407179676972459
 11
0.9453589838486228
 21
2.1800000000000002
 31
1.450000000000002
 12
1.014641016151377
 22
2.1800000000000002
 32
1.450000000000002
 13
1.02
 23
2.1399999999999988
 33
1.4407179676972459
  0
3DFACE
  5
DB3
  8
0
 10
0.9453589838486228
 20
2.1800000000000002
 30
1.450000000000002
 11
0.9600000000000001
 21
2.2092820323027551
 31
1.475358983848625
 12
1.0
 22
2.2092820323027551
 32
1.475358983848625
 13
1.014641016151377
 23
2.1800000000000002
 33
1.450000000000002
  0
3DFACE
  5
DB4
  8
0
 10
0.9600000000000001
 20
2.2092820323027551
 30
1.475358983848625
 11
0.98
 21
2.2199999999999989
 31
1.5100000000000009
 12
0.98
 22
2.2199999999999989
 32
1.5100000000000009
 13
1.0
 23
2.2092820323027551
 33
1.475358983848625
  0
3DFACE
  5
DB5
  8
0
 10
0.98
 20
2.0599999999999992
 30
1.5100000000000009
 11
1.0
 21
2.0707179676972451
 31
1.475358983848625
 12
1.02
 22
2.0707179676972451
 32
1.5100000000000009
 13
0.98
 23
2.0599999999999992
 33
1.5100000000000009
  0
3DFACE
  5
DB6
  8
0
 10
1.0
 20
2.0707179676972451
 30
1.475358983848625
 11
1.014641016151377
 21
2.1000000000000001
 31
1.450000000000002
 12
1.0492820323027541
 22
2.1000000000000001
 32
1.5100000000000009
 13
1.02
 23
2.0707179676972451
 33
1.5100000000000009
  0
3DFACE
  5
DB7
  8
0
 10
1.014641016151377
 20
2.1000000000000001
 30
1.450000000000002
 11
1.02
 21
2.1399999999999988
 31
1.4407179676972459
 12
1.0600000000000001
 22
2.1399999999999988
 32
1.5100000000000009
 13
1.0492820323027541
 23
2.1000000000000001
 33
1.5100000000000009
  0
3DFACE
  5
DB8
  8
0
 10
1.02
 20
2.1399999999999988
 30
1.4407179676972459
 11
1.014641016151377
 21
2.1800000000000002
 31
1.450000000000002
 12
1.0492820323027541
 22
2.1800000000000002
 32
1.5100000000000009
 13
1.0600000000000001
 23
2.1399999999999988
 33
1.5100000000000009
  0
3DFACE
  5
DB9
  8
0
 10
1.014641016151377
 20
2.1800000000000002
 30
1.450000000000002
 11
1.0
 21
2.2092820323027551
 31
1.475358983848625
 12
1.02
 22
2.2092820323027551
 32
1.5100000000000009
 13
1.0492820323027541
 23
2.1800000000000002
 33
1.5100000000000009
  0
3DFACE
  5
DBA
  8
0
 10
1.0
 20
2.2092820323027551
 30
1.475358983848625
 11
0.98
 21
2.2199999999999989
 31
1.5100000000000009
 12
0.98
 22
2.2199999999999989
 32
1.5100000000000009
 13
1.02
 23
2.2092820323027551
 33
1.5100000000000009
  0
3DFACE
  5
DBB
  8
0
 10
0.98
 20
2.0599999999999992
 30
1.5100000000000009
 11
1.02
 21
2.0707179676972451
 31
1.5100000000000009
 12
1.0
 22
2.0707179676972451
 32
1.5446410161513811
 13
0.9800000000000007
 23
2.0599999999999992
 33
1.5100000000000009
  0
3DFACE
  5
DBC
  8
0
 10
1.02
 20
2.0707179676972451
 30
1.5100000000000009
 11
1.0492820323027541
 21
2.1000000000000001
 31
1.5100000000000009
 12
1.014641016151377
 22
2.1000000000000001
 32
1.5700000000000029
 13
1.0
 23
2.0707179676972451
 33
1.5446410161513811
  0
3DFACE
  5
DBD
  8
0
 10
1.0492820323027541
 20
2.1000000000000001
 30
1.5100000000000009
 11
1.0600000000000001
 21
2.1399999999999988
 31
1.5100000000000009
 12
1.02
 22
2.1399999999999988
 32
1.5792820323027561
 13
1.014641016151377
 23
2.1000000000000001
 33
1.5700000000000029
  0
3DFACE
  5
DBE
  8
0
 10
1.0600000000000001
 20
2.1399999999999988
 30
1.5100000000000009
 11
1.0492820323027541
 21
2.1800000000000002
 31
1.5100000000000009
 12
1.014641016151377
 22
2.1800000000000002
 32
1.5700000000000029
 13
1.02
 23
2.1399999999999988
 33
1.5792820323027561
  0
3DFACE
  5
DBF
  8
0
 10
1.0492820323027541
 20
2.1800000000000002
 30
1.5100000000000009
 11
1.02
 21
2.2092820323027551
 31
1.5100000000000009
 12
1.0
 22
2.2092820323027551
 32
1.5446410161513811
 13
1.014641016151377
 23
2.1800000000000002
 33
1.5700000000000029
  0
3DFACE
  5
DC0
  8
0
 10
1.02
 20
2.2092820323027551
 30
1.5100000000000009
 11
0.98
 21
2.2199999999999989
 31
1.5100000000000009
 12
0.9800000000000007
 22
2.2199999999999989
 32
1.5100000000000009
 13
1.0
 23
2.2092820323027551
 33
1.5446410161513811
  0
3DFACE
  5
DC1
  8
0
 10
0.9800000000000007
 20
2.0599999999999992
 30
1.5100000000000009
 11
1.0
 21
2.0707179676972451
 31
1.5446410161513811
 12
0.9600000000000001
 22
2.0707179676972451
 32
1.5446410161513811
 13
0.98
 23
2.0599999999999992
 33
1.5100000000000009
  0
3DFACE
  5
DC2
  8
0
 10
1.0
 20
2.0707179676972451
 30
1.5446410161513811
 11
1.014641016151377
 21
2.1000000000000001
 31
1.5700000000000029
 12
0.9453589838486228
 22
2.1000000000000001
 32
1.5700000000000029
 13
0.9600000000000001
 23
2.0707179676972451
 33
1.5446410161513811
  0
3DFACE
  5
DC3
  8
0
 10
1.014641016151377
 20
2.1000000000000001
 30
1.5700000000000029
 11
1.02
 21
2.1399999999999988
 31
1.5792820323027561
 12
0.9400000000000005
 22
2.1399999999999988
 32
1.5792820323027561
 13
0.9453589838486228
 23
2.1000000000000001
 33
1.5700000000000029
  0
3DFACE
  5
DC4
  8
0
 10
1.02
 20
2.1399999999999988
 30
1.5792820323027561
 11
1.014641016151377
 21
2.1800000000000002
 31
1.5700000000000029
 12
0.9453589838486228
 22
2.1800000000000002
 32
1.5700000000000029
 13
0.9400000000000005
 23
2.1399999999999988
 33
1.5792820323027561
  0
3DFACE
  5
DC5
  8
0
 10
1.014641016151377
 20
2.1800000000000002
 30
1.5700000000000029
 11
1.0
 21
2.2092820323027551
 31
1.5446410161513811
 12
0.9600000000000001
 22
2.2092820323027551
 32
1.5446410161513811
 13
0.9453589838486228
 23
2.1800000000000002
 33
1.5700000000000029
  0
3DFACE
  5
DC6
  8
0
 10
1.0
 20
2.2092820323027551
 30
1.5446410161513811
 11
0.9800000000000007
 21
2.2199999999999989
 31
1.5100000000000009
 12
0.98
 22
2.2199999999999989
 32
1.5100000000000009
 13
0.9600000000000001
 23
2.2092820323027551
 33
1.5446410161513811
  0
3DFACE
  5
DC7
  8
0
 10
0.98
 20
2.0599999999999992
 30
1.5100000000000009
 11
0.9600000000000001
 21
2.0707179676972451
 31
1.5446410161513811
 12
0.94
 22
2.0707179676972451
 32
1.5100000000000009
 13
0.98
 23
2.0599999999999992
 33
1.5100000000000009
  0
3DFACE
  5
DC8
  8
0
 10
0.9600000000000001
 20
2.0707179676972451
 30
1.5446410161513811
 11
0.9453589838486228
 21
2.1000000000000001
 31
1.5700000000000029
 12
0.9107179676972451
 22
2.1000000000000001
 32
1.5100000000000009
 13
0.94
 23
2.0707179676972451
 33
1.5100000000000009
  0
3DFACE
  5
DC9
  8
0
 10
0.9453589838486228
 20
2.1000000000000001
 30
1.5700000000000029
 11
0.9400000000000005
 21
2.1399999999999988
 31
1.5792820323027561
 12
0.9
 22
2.1399999999999988
 32
1.5100000000000009
 13
0.9107179676972451
 23
2.1000000000000001
 33
1.5100000000000009
  0
3DFACE
  5
DCA
  8
0
 10
0.9400000000000005
 20
2.1399999999999988
 30
1.5792820323027561
 11
0.9453589838486228
 21
2.1800000000000002
 31
1.5700000000000029
 12
0.9107179676972451
 22
2.1800000000000002
 32
1.5100000000000009
 13
0.9
 23
2.1399999999999988
 33
1.5100000000000009
  0
3DFACE
  5
DCB
  8
0
 10
0.9453589838486228
 20
2.1800000000000002
 30
1.5700000000000029
 11
0.9600000000000001
 21
2.2092820323027551
 31
1.5446410161513811
 12
0.94
 22
2.2092820323027551
 32
1.5100000000000009
 13
0.9107179676972451
 23
2.1800000000000002
 33
1.5100000000000009
  0
3DFACE
  5
DCC
  8
0
 10
0.9600000000000001
 20
2.2092820323027551
 30
1.5446410161513811
 11
0.98
 21
2.2199999999999989
 31
1.5100000000000009
 12
0.98
 22
2.2199999999999989
 32
1.5100000000000009
 13
0.94
 23
2.2092820323027551
 33
1.5100000000000009
  0
3DFACE
  5
DCD
  8
0
 10
0.9549999999999999
 20
2.0966987298107771
 30
1.3700000000000001
 11
1.004999999999999
 21
2.1833012701892218
 31
1.3700000000000001
 12
0.9549999999999999
 22
2.1833012701892218
 32
1.3700000000000001
 13
0.9299999999999998
 23
2.1399999999999988
 33
1.3700000000000001
  0
3DFACE
  5
DCE
  8
0
 10
1.004999999999999
 20
2.0966987298107771
 30
1.3700000000000001
 11
1.03
 21
2.1399999999999988
 31
1.3700000000000001
 12
1.004999999999999
 22
2.1833012701892218
 32
1.3700000000000001
 13
0.9549999999999999
 23
2.0966987298107771
 33
1.3700000000000001
  0
3DFACE
  5
14D1
  8
0
 62
     1
 10
-1.03
 20
-2.4700000000000002
 30
1.2600000000000009
 11
-0.9099999999999999
 21
-2.4300000000000002
 31
1.2600000000000009
 12
0.9099999999999999
 22
-2.4300000000000002
 32
1.2600000000000009
 13
1.03
 23
-2.4700000000000002
 33
1.2600000000000009
  0
VIEWPORT
  5
2E
 67
     1
  8
0
 10
144.7270812988281
 20
101.2295806407928
 30
0.0
 40
391.13550988316581
 41
222.15178063964839
 68
     2
 69
     1
1001
ACAD
1000
MVIEW
1002
{
1070
    16
1010
0.0
1020
0.0
1030
0.0
1010
0.0
1020
0.0
1030
1.0
1040
0.0
1040
222.15178063964839
1040
144.7270812988281
1040
101.2295806407928
1040
50.0
1040
0.0
1040
0.0
1070
     0
1070
   100
1070
     1
1070
     1
1070
     0
1070
     0
1070
     0
1070
     0
1040
0.0
1040
0.0
1040
0.0
1040
10.0
1040
10.0
1040
10.0
1040
10.0
1070
     0
1002
{
1002
}
1002
}
  0
VIEWPORT
  5
30
 67
     1
  8
0
 10
139.22375631332389
 20
100.8062499761581
 30
0.0
 40
222.75801010131829
 41
161.289999961853
 68
     1
 69
     2
1001
ACAD
1000
MVIEW
1002
{
1070
    16
1010
0.0
1020
0.0
1030
0.0
1010
0.0
1020
0.0
1030
1.0
1040
0.0
1040
307.49010134148989
1040
210.0
1040
148.5
1040
50.0
1040
0.0
1040
0.0
1070
     0
1070
   100
1070
     1
1070
     3
1070
     0
1070
     1
1070
     0
1070
     0
1040
0.0
1040
0.0
1040
0.0
1040
10.0
1040
10.0
1040
10.0
1040
10.0
1070
     0
1002
{
1002
}
1002
}
  0
ENDSEC
  0
EOF
