  0
SECTION
  2
HEADER
  9
$ACADVER
  1
AC1009
  9
$INSBASE
 10
0.0
 20
0.0
 30
0.0
  9
$EXTMIN
 10
-19.0
 20
-3.4499879675999989
 30
-7.9687912344023291
  9
$EXTMAX
 10
0.84
 20
5.9699999999999998
 30
1.8183028152727261
  9
$LIMMIN
 10
0.0
 20
0.0
  9
$LIMMAX
 10
420.0
 20
297.0
  9
$ORTHOMODE
 70
     1
  9
$REGENMODE
 70
     1
  9
$FILLMODE
 70
     1
  9
$QTEXTMODE
 70
     0
  9
$MIRRTEXT
 70
     1
  9
$DRAGMODE
 70
     2
  9
$LTSCALE
 40
1.0
  9
$OSMODE
 70
    35
  9
$ATTMODE
 70
     1
  9
$TEXTSIZE
 40
2.5
  9
$TRACEWID
 40
1.0
  9
$TEXTSTYLE
  7
STANDARD
  9
$CLAYER
  8
0
  9
$CELTYPE
  6
BYLAYER
  9
$CECOLOR
 62
   256
  9
$DIMSCALE
 40
1.0
  9
$DIMASZ
 40
2.5
  9
$DIMEXO
 40
0.625
  9
$DIMDLI
 40
3.75
  9
$DIMRND
 40
0.0
  9
$DIMDLE
 40
0.0
  9
$DIMEXE
 40
1.25
  9
$DIMTP
 40
0.0
  9
$DIMTM
 40
0.0
  9
$DIMTXT
 40
2.5
  9
$DIMCEN
 40
2.5
  9
$DIMTSZ
 40
0.0
  9
$DIMTOL
 70
     0
  9
$DIMLIM
 70
     0
  9
$DIMTIH
 70
     0
  9
$DIMTOH
 70
     0
  9
$DIMSE1
 70
     0
  9
$DIMSE2
 70
     0
  9
$DIMTAD
 70
     1
  9
$DIMZIN
 70
     8
  9
$DIMBLK
  1

  9
$DIMASO
 70
     1
  9
$DIMSHO
 70
     1
  9
$DIMPOST
  1

  9
$DIMAPOST
  1

  9
$DIMALT
 70
     0
  9
$DIMALTD
 70
     3
  9
$DIMALTF
 40
0.03937007874016
  9
$DIMLFAC
 40
1.0
  9
$DIMTOFL
 70
     1
  9
$DIMTVP
 40
0.0
  9
$DIMTIX
 70
     0
  9
$DIMSOXD
 70
     0
  9
$DIMSAH
 70
     0
  9
$DIMBLK1
  1

  9
$DIMBLK2
  1

  9
$DIMSTYLE
  2
ISO-25
  9
$DIMCLRD
 70
     0
  9
$DIMCLRE
 70
     0
  9
$DIMCLRT
 70
     0
  9
$DIMTFAC
 40
1.0
  9
$DIMGAP
 40
0.625
  9
$LUNITS
 70
     2
  9
$LUPREC
 70
     4
  9
$SKETCHINC
 40
1.0
  9
$FILLETRAD
 40
10.0
  9
$AUNITS
 70
     0
  9
$AUPREC
 70
     0
  9
$MENU
  1
.
  9
$ELEVATION
 40
0.0
  9
$PELEVATION
 40
0.0
  9
$THICKNESS
 40
0.0
  9
$LIMCHECK
 70
     0
  9
$BLIPMODE
 70
     0
  9
$CHAMFERA
 40
10.0
  9
$CHAMFERB
 40
10.0
  9
$SKPOLY
 70
     0
  9
$TDCREATE
 40
2455946.8935190039
  9
$TDUPDATE
 40
2455947.9273848492
  9
$TDINDWG
 40
0.1665878009
  9
$TDUSRTIMER
 40
0.1665878009
  9
$USRTIMER
 70
     1
  9
$ANGBASE
 50
0.0
  9
$ANGDIR
 70
     0
  9
$PDMODE
 70
     0
  9
$PDSIZE
 40
0.0
  9
$PLINEWID
 40
0.0
  9
$COORDS
 70
     1
  9
$SPLFRAME
 70
     0
  9
$SPLINETYPE
 70
     6
  9
$SPLINESEGS
 70
     8
  9
$ATTDIA
 70
     1
  9
$ATTREQ
 70
     1
  9
$HANDLING
 70
-16383
  9
$HANDSEED
  5
651
  9
$SURFTAB1
 70
     6
  9
$SURFTAB2
 70
     6
  9
$SURFTYPE
 70
     6
  9
$SURFU
 70
     6
  9
$SURFV
 70
     6
  9
$UCSNAME
  2

  9
$UCSORG
 10
0.0
 20
0.0
 30
0.0
  9
$UCSXDIR
 10
0.0
 20
-1.0
 30
0.0
  9
$UCSYDIR
 10
0.0
 20
0.0
 30
1.0
  9
$PUCSNAME
  2

  9
$PUCSORG
 10
0.0
 20
0.0
 30
0.0
  9
$PUCSXDIR
 10
1.0
 20
0.0
 30
0.0
  9
$PUCSYDIR
 10
0.0
 20
1.0
 30
0.0
  9
$USERI1
 70
     0
  9
$USERI2
 70
     0
  9
$USERI3
 70
     0
  9
$USERI4
 70
     0
  9
$USERI5
 70
     0
  9
$USERR1
 40
0.0
  9
$USERR2
 40
0.0
  9
$USERR3
 40
0.0
  9
$USERR4
 40
0.0
  9
$USERR5
 40
0.0
  9
$WORLDVIEW
 70
     1
  9
$SHADEDGE
 70
     3
  9
$SHADEDIF
 70
    70
  9
$TILEMODE
 70
     1
  9
$MAXACTVP
 70
    64
  9
$PLIMCHECK
 70
     0
  9
$PEXTMIN
 10
27.844751262664801
 20
20.161249995231621
 30
0.0
  9
$PEXTMAX
 10
250.60276136398309
 20
181.4512499570846
 30
0.0
  9
$PLIMMIN
 10
-3.757080078125
 20
-3.7570831775665279
  9
$PLIMMAX
 10
293.21124267578119
 20
206.21624445915219
  9
$UNITMODE
 70
     0
  9
$VISRETAIN
 70
     1
  9
$PLINEGEN
 70
     0
  9
$PSLTSCALE
 70
     1
  0
ENDSEC
  0
SECTION
  2
TABLES
  0
TABLE
  2
VPORT
 70
     5
  0
VPORT
  2
*ACTIVE
 70
     0
 10
0.0
 20
0.0
 11
1.0
 21
1.0
 12
3.0887596604536252
 22
-4.453789896214241
 13
0.0
 23
0.0
 14
0.01
 24
0.01
 15
1.0
 25
1.0
 16
-1.0
 26
0.0
 36
0.0
 17
0.0
 27
0.0
 37
0.0
 40
17.400893551325542
 41
2.1731448763250878
 42
50.0
 43
0.0
 44
0.0
 50
0.0
 51
0.0
 71
     0
 72
   100
 73
     1
 74
     3
 75
     1
 76
     1
 77
     0
 78
     0
  0
ENDTAB
  0
TABLE
  2
LTYPE
 70
     1
  0
LTYPE
  2
CONTINUOUS
 70
     0
  3
Solid line
 72
    65
 73
     0
 40
0.0
  0
ENDTAB
  0
TABLE
  2
LAYER
 70
     8
  0
LAYER
  2
0
 70
     0
 62
     7
  6
CONTINUOUS
  0
LAYER
  2
REFERENCE
 70
     0
 62
     9
  6
CONTINUOUS
  0
LAYER
  2
WHEELS
 70
     0
 62
     2
  6
CONTINUOUS
  0
LAYER
  2
TRAIL
 70
     0
 62
     6
  6
CONTINUOUS
  0
LAYER
  2
TURRET
 70
     0
 62
     2
  6
CONTINUOUS
  0
LAYER
  2
SLEEVE
 70
     0
 62
     5
  6
CONTINUOUS
  0
LAYER
  2
GUN
 70
     0
 62
     1
  6
CONTINUOUS
  0
LAYER
  2
TRAIL2
 70
     0
 62
     4
  6
CONTINUOUS
  0
ENDTAB
  0
TABLE
  2
STYLE
 70
     1
  0
STYLE
  2
STANDARD
 70
     0
 40
0.0
 41
1.0
 50
0.0
 71
     0
 42
2.5
  3
txt
  4

  0
ENDTAB
  0
TABLE
  2
VIEW
 70
     0
  0
ENDTAB
  0
TABLE
  2
UCS
 70
     0
  0
ENDTAB
  0
TABLE
  2
APPID
 70
     1
  0
APPID
  2
ACAD
 70
     0
  0
ENDTAB
  0
TABLE
  2
DIMSTYLE
 70
     1
  0
DIMSTYLE
  2
ISO-25
 70
     0
  3

  4

  5

  6

  7

 40
1.0
 41
2.5
 42
0.625
 43
3.75
 44
1.25
 45
0.0
 46
0.0
 47
0.0
 48
0.0
140
2.5
141
2.5
142
0.0
143
0.03937007874016
144
1.0
145
0.0
146
1.0
147
0.625
 71
     0
 72
     0
 73
     0
 74
     0
 75
     0
 76
     0
 77
     1
 78
     8
170
     0
171
     3
172
     1
173
     0
174
     0
175
     0
176
     0
177
     0
178
     0
  0
ENDTAB
  0
ENDSEC
  0
SECTION
  2
BLOCKS
  0
BLOCK
  8
0
  2
$MODEL_SPACE
 70
     0
 10
0.0
 20
0.0
 30
0.0
  3
$MODEL_SPACE
  1

  0
ENDBLK
  5
21
  8
0
  0
BLOCK
 67
     1
  8
0
  2
$PAPER_SPACE
 70
     0
 10
0.0
 20
0.0
 30
0.0
  3
$PAPER_SPACE
  1

  0
ENDBLK
  5
1D
 67
     1
  8
0
  0
ENDSEC
  0
SECTION
  2
ENTITIES
  0
3DFACE
  5
173
  8
0
 10
-0.59
 20
0.06
 30
0.58
 11
-0.59
 21
-0.05
 31
0.48
 12
-0.5300000000000013
 22
-0.05
 32
0.48
 13
-0.5300000000000013
 23
0.06
 33
0.58
  0
3DFACE
  5
174
  8
0
 10
-0.5300000000000013
 20
0.06
 30
0.58
 11
-0.5300000000000013
 21
-0.05
 31
0.48
 12
-0.5300000000000013
 22
0.05
 32
0.4200000000000001
 13
-0.5300000000000013
 23
0.18
 33
0.5200000000000001
  0
3DFACE
  5
175
  8
0
 10
-0.59
 20
0.05
 30
0.4200000000000001
 11
-0.59
 21
-0.05
 31
0.48
 12
-0.59
 22
0.06
 32
0.58
 13
-0.59
 23
0.18
 33
0.5200000000000001
  0
3DFACE
  5
176
  8
0
 10
-0.5300000000000013
 20
0.18
 30
0.5200000000000001
 11
-0.5300000000000013
 21
0.05
 31
0.4200000000000001
 12
-0.59
 22
0.05
 32
0.4200000000000001
 13
-0.59
 23
0.18
 33
0.5200000000000001
  0
3DFACE
  5
17A
  8
0
 10
-0.59
 20
-0.01
 30
0.38
 11
-0.59
 21
-0.06
 31
0.43
 12
-0.59
 22
-0.05
 32
0.48
 13
-0.59
 23
0.05
 33
0.4200000000000001
  0
3DFACE
  5
17B
  8
0
 10
-0.5300000000000013
 20
0.05
 30
0.4200000000000001
 11
-0.5300000000000013
 21
-0.01
 31
0.38
 12
-0.59
 22
-0.01
 32
0.38
 13
-0.59
 23
0.05
 33
0.4200000000000001
  0
3DFACE
  5
17C
  8
0
 10
-0.5300000000000013
 20
-0.05
 30
0.48
 11
-0.5300000000000013
 21
-0.06
 31
0.43
 12
-0.5300000000000013
 22
-0.01
 32
0.38
 13
-0.5300000000000013
 23
0.05
 33
0.4200000000000001
  0
3DFACE
  5
17D
  8
0
 10
-0.59
 20
-0.05
 30
0.48
 11
-0.59
 21
-0.06
 31
0.43
 12
-0.5300000000000013
 22
-0.06
 32
0.43
 13
-0.5300000000000013
 23
-0.05
 33
0.48
  0
3DFACE
  5
17E
  8
0
 10
-0.5300000000000013
 20
-0.01
 30
0.38
 11
-0.5300000000000013
 21
-0.06
 31
0.43
 12
-0.59
 22
-0.06
 32
0.43
 13
-0.59
 23
-0.01
 33
0.38
  0
3DFACE
  5
181
  8
0
 10
-0.59
 20
0.18
 30
0.5200000000000001
 11
-0.59
 21
0.06
 31
0.58
 12
-0.59
 22
0.1
 32
0.61
 13
-0.59
 23
0.18
 33
0.6
  0
3DFACE
  5
182
  8
0
 10
-0.5300000000000013
 20
0.1
 30
0.61
 11
-0.5300000000000013
 21
0.06
 31
0.58
 12
-0.5300000000000013
 22
0.18
 32
0.5200000000000001
 13
-0.5300000000000013
 23
0.18
 33
0.6
  0
3DFACE
  5
183
  8
0
 10
-0.59
 20
0.18
 30
0.6
 11
-0.59
 21
0.1
 31
0.61
 12
-0.5300000000000013
 22
0.1
 32
0.61
 13
-0.5300000000000013
 23
0.18
 33
0.6
  0
3DFACE
  5
184
  8
0
 10
-0.59
 20
0.1
 30
0.61
 11
-0.59
 21
0.06
 31
0.58
 12
-0.5300000000000013
 22
0.06
 32
0.58
 13
-0.5300000000000013
 23
0.1
 33
0.61
  0
3DFACE
  5
185
  8
0
 10
-0.5300000000000013
 20
0.18
 30
0.6
 11
-0.5300000000000013
 21
0.18
 31
0.5200000000000001
 12
-0.59
 22
0.18
 32
0.5200000000000001
 13
-0.59
 23
0.18
 33
0.6
  0
3DFACE
  5
188
  8
0
 10
0.5300000000000003
 20
-0.01
 30
0.38
 11
0.5300000000000003
 21
-0.06
 31
0.43
 12
0.5300000000000003
 22
-0.05
 32
0.48
 13
0.5300000000000003
 23
0.05
 33
0.4200000000000001
  0
3DFACE
  5
189
  8
0
 10
0.589999999999999
 20
-0.05
 30
0.48
 11
0.589999999999999
 21
-0.06
 31
0.43
 12
0.589999999999999
 22
-0.01
 32
0.38
 13
0.589999999999999
 23
0.05
 33
0.4200000000000001
  0
3DFACE
  5
18A
  8
0
 10
0.5300000000000003
 20
-0.05
 30
0.48
 11
0.5300000000000003
 21
-0.06
 31
0.43
 12
0.589999999999999
 22
-0.06
 32
0.43
 13
0.589999999999999
 23
-0.05
 33
0.48
  0
3DFACE
  5
18B
  8
0
 10
0.5300000000000003
 20
0.05
 30
0.4200000000000001
 11
0.5300000000000003
 21
-0.05
 31
0.48
 12
0.5300000000000003
 22
0.06
 32
0.58
 13
0.5300000000000003
 23
0.18
 33
0.5200000000000001
  0
3DFACE
  5
18C
  8
0
 10
0.589999999999999
 20
0.18
 30
0.5200000000000001
 11
0.589999999999999
 21
0.05
 31
0.4200000000000001
 12
0.5300000000000003
 22
0.05
 32
0.4200000000000001
 13
0.5300000000000003
 23
0.18
 33
0.5200000000000001
  0
3DFACE
  5
18D
  8
0
 10
0.589999999999999
 20
0.06
 30
0.58
 11
0.589999999999999
 21
-0.05
 31
0.48
 12
0.589999999999999
 22
0.05
 32
0.4200000000000001
 13
0.589999999999999
 23
0.18
 33
0.5200000000000001
  0
3DFACE
  5
18E
  8
0
 10
0.589999999999999
 20
-0.01
 30
0.38
 11
0.589999999999999
 21
-0.06
 31
0.43
 12
0.5300000000000003
 22
-0.06
 32
0.43
 13
0.5300000000000003
 23
-0.01
 33
0.38
  0
3DFACE
  5
18F
  8
0
 10
0.589999999999999
 20
0.05
 30
0.4200000000000001
 11
0.589999999999999
 21
-0.01
 31
0.38
 12
0.5300000000000003
 22
-0.01
 32
0.38
 13
0.5300000000000003
 23
0.05
 33
0.4200000000000001
  0
3DFACE
  5
190
  8
0
 10
0.5300000000000003
 20
0.18
 30
0.5200000000000001
 11
0.5300000000000003
 21
0.06
 31
0.58
 12
0.5300000000000003
 22
0.1
 32
0.61
 13
0.5300000000000003
 23
0.18
 33
0.6
  0
3DFACE
  5
191
  8
0
 10
0.589999999999999
 20
0.1
 30
0.61
 11
0.589999999999999
 21
0.06
 31
0.58
 12
0.589999999999999
 22
0.18
 32
0.5200000000000001
 13
0.589999999999999
 23
0.18
 33
0.6
  0
3DFACE
  5
192
  8
0
 10
0.5300000000000003
 20
0.1
 30
0.61
 11
0.5300000000000003
 21
0.06
 31
0.58
 12
0.589999999999999
 22
0.06
 32
0.58
 13
0.589999999999999
 23
0.1
 33
0.61
  0
3DFACE
  5
193
  8
0
 10
0.5300000000000003
 20
0.06
 30
0.58
 11
0.5300000000000003
 21
-0.05
 31
0.48
 12
0.589999999999999
 22
-0.05
 32
0.48
 13
0.589999999999999
 23
0.06
 33
0.58
  0
3DFACE
  5
194
  8
0
 10
0.589999999999999
 20
0.18
 30
0.6
 11
0.589999999999999
 21
0.18
 31
0.5200000000000001
 12
0.5300000000000003
 22
0.18
 32
0.5200000000000001
 13
0.5300000000000003
 23
0.18
 33
0.6
  0
3DFACE
  5
195
  8
0
 10
0.5300000000000003
 20
0.18
 30
0.6
 11
0.5300000000000003
 21
0.1
 31
0.61
 12
0.589999999999999
 22
0.1
 32
0.61
 13
0.589999999999999
 23
0.18
 33
0.6
  0
3DFACE
  5
196
  8
0
 10
0.65
 20
-0.05
 30
0.45
 11
0.65
 21
-0.025
 31
0.493301270189222
 12
0.59
 22
-0.025
 32
0.493301270189222
 13
0.59
 23
-0.05
 33
0.45
  0
3DFACE
  5
197
  8
0
 10
0.65
 20
-0.025
 30
0.493301270189222
 11
0.65
 21
0.025
 31
0.493301270189222
 12
0.59
 22
0.025
 32
0.493301270189222
 13
0.59
 23
-0.025
 33
0.493301270189222
  0
3DFACE
  5
198
  8
0
 10
0.65
 20
0.025
 30
0.493301270189222
 11
0.65
 21
0.05
 31
0.45
 12
0.59
 22
0.05
 32
0.45
 13
0.59
 23
0.025
 33
0.493301270189222
  0
3DFACE
  5
199
  8
0
 10
0.65
 20
0.05
 30
0.45
 11
0.65
 21
0.025
 31
0.4066987298107782
 12
0.59
 22
0.025
 32
0.4066987298107782
 13
0.59
 23
0.05
 33
0.45
  0
3DFACE
  5
19A
  8
0
 10
0.65
 20
0.025
 30
0.4066987298107782
 11
0.65
 21
-0.025
 31
0.4066987298107782
 12
0.59
 22
-0.025
 32
0.4066987298107782
 13
0.59
 23
0.025
 33
0.4066987298107782
  0
3DFACE
  5
19B
  8
0
 10
0.65
 20
-0.025
 30
0.4066987298107782
 11
0.65
 21
-0.05
 31
0.45
 12
0.59
 22
-0.05
 32
0.45
 13
0.59
 23
-0.025
 33
0.4066987298107782
  0
3DFACE
  5
19C
  8
0
 10
0.5300000000000001
 20
0.07
 30
0.55
 11
0.5300000000000001
 21
0.095
 31
0.593301270189222
 12
-0.5300000000000001
 22
0.095
 32
0.593301270189222
 13
-0.5300000000000001
 23
0.07
 33
0.55
  0
3DFACE
  5
19D
  8
0
 10
0.5300000000000001
 20
0.095
 30
0.593301270189222
 11
0.5300000000000001
 21
0.145
 31
0.593301270189222
 12
-0.5300000000000001
 22
0.145
 32
0.593301270189222
 13
-0.5300000000000001
 23
0.095
 33
0.593301270189222
  0
3DFACE
  5
19E
  8
0
 10
0.5300000000000001
 20
0.145
 30
0.593301270189222
 11
0.5300000000000001
 21
0.17
 31
0.55
 12
-0.5300000000000001
 22
0.17
 32
0.55
 13
-0.5300000000000001
 23
0.145
 33
0.593301270189222
  0
3DFACE
  5
19F
  8
0
 10
0.5300000000000001
 20
0.17
 30
0.55
 11
0.5300000000000001
 21
0.145
 31
0.5066987298107782
 12
-0.5300000000000001
 22
0.145
 32
0.5066987298107782
 13
-0.5300000000000001
 23
0.17
 33
0.55
  0
3DFACE
  5
1A0
  8
0
 10
0.5300000000000001
 20
0.145
 30
0.5066987298107782
 11
0.5300000000000001
 21
0.0950000000000001
 31
0.5066987298107782
 12
-0.5300000000000001
 22
0.0950000000000001
 32
0.5066987298107782
 13
-0.5300000000000001
 23
0.145
 33
0.5066987298107782
  0
3DFACE
  5
1A1
  8
0
 10
0.5300000000000001
 20
0.0950000000000001
 30
0.5066987298107782
 11
0.5300000000000001
 21
0.07
 31
0.55
 12
-0.5300000000000001
 22
0.07
 32
0.55
 13
-0.5300000000000001
 23
0.0950000000000001
 33
0.5066987298107782
  0
3DFACE
  5
1A2
  8
0
 10
-0.59
 20
-0.05
 30
0.45
 11
-0.59
 21
-0.025
 31
0.493301270189222
 12
-0.65
 22
-0.025
 32
0.493301270189222
 13
-0.65
 23
-0.05
 33
0.45
  0
3DFACE
  5
1A3
  8
0
 10
-0.59
 20
-0.025
 30
0.493301270189222
 11
-0.59
 21
0.025
 31
0.493301270189222
 12
-0.65
 22
0.025
 32
0.493301270189222
 13
-0.65
 23
-0.025
 33
0.493301270189222
  0
3DFACE
  5
1A4
  8
0
 10
-0.59
 20
0.025
 30
0.493301270189222
 11
-0.59
 21
0.05
 31
0.45
 12
-0.65
 22
0.05
 32
0.45
 13
-0.65
 23
0.025
 33
0.493301270189222
  0
3DFACE
  5
1A5
  8
0
 10
-0.59
 20
0.05
 30
0.45
 11
-0.59
 21
0.025
 31
0.4066987298107782
 12
-0.65
 22
0.025
 32
0.4066987298107782
 13
-0.65
 23
0.05
 33
0.45
  0
3DFACE
  5
1A6
  8
0
 10
-0.59
 20
0.025
 30
0.4066987298107782
 11
-0.59
 21
-0.025
 31
0.4066987298107782
 12
-0.65
 22
-0.025
 32
0.4066987298107782
 13
-0.65
 23
0.025
 33
0.4066987298107782
  0
3DFACE
  5
1A7
  8
0
 10
-0.59
 20
-0.025
 30
0.4066987298107782
 11
-0.59
 21
-0.05
 31
0.45
 12
-0.65
 22
-0.05
 32
0.45
 13
-0.65
 23
-0.025
 33
0.4066987298107782
  0
3DFACE
  5
203
  8
0
 10
0.4200000000000017
 20
-0.0899999999999995
 30
0.7800000000000001
 11
0.4200000000000017
 21
-0.0899999999999995
 31
0.7000000000000001
 12
0.4200000000000017
 22
0.04
 32
0.7000000000000001
 13
0.4200000000000017
 23
0.04
 33
0.7800000000000001
  0
3DFACE
  5
204
  8
0
 10
-0.4200000000000001
 20
0.04
 30
0.7000000000000001
 11
-0.4200000000000001
 21
-0.0899999999999995
 31
0.7000000000000001
 12
-0.4200000000000001
 22
-0.0899999999999995
 32
0.7800000000000001
 13
-0.4200000000000001
 23
0.04
 33
0.7800000000000001
  0
3DFACE
  5
205
  8
0
 10
-0.4200000000000001
 20
-0.0899999999999995
 30
0.7800000000000001
 11
-0.4200000000000001
 21
-0.0899999999999995
 31
0.7000000000000001
 12
0.4200000000000017
 22
-0.0899999999999995
 32
0.7000000000000001
 13
0.4200000000000017
 23
-0.0899999999999995
 33
0.7800000000000001
  0
3DFACE
  5
206
  8
0
 10
0.4200000000000017
 20
0.04
 30
0.7800000000000001
 11
0.4200000000000017
 21
0.04
 31
0.7000000000000001
 12
-0.4200000000000001
 22
0.04
 32
0.7000000000000001
 13
-0.4200000000000001
 23
0.04
 33
0.7800000000000001
  0
3DFACE
  5
207
  8
0
 10
0.4200000000000017
 20
0.04
 30
0.7000000000000001
 11
0.4200000000000017
 21
-0.0899999999999995
 31
0.7000000000000001
 12
-0.4200000000000001
 22
-0.0899999999999995
 32
0.7000000000000001
 13
-0.4200000000000001
 23
0.04
 33
0.7000000000000001
  0
3DFACE
  5
208
  8
0
 10
-0.4200000000000001
 20
0.04
 30
0.7800000000000001
 11
-0.4200000000000001
 21
-0.0899999999999995
 31
0.7800000000000001
 12
0.4200000000000017
 22
-0.0899999999999995
 32
0.7800000000000001
 13
0.4200000000000017
 23
0.04
 33
0.7800000000000001
  0
3DFACE
  5
25D
  8
0
 10
0.2800000000000001
 20
0.0572208313247063
 30
0.3051523407680674
 11
0.2594974746830584
 21
0.1000869018234119
 31
0.3299010781095966
 12
0.2594974746830584
 22
-0.149913098176588
 32
0.7629137800018161
 13
0.2800000000000001
 23
-0.1927791686752937
 33
0.7381650426602869
  0
3DFACE
  5
25E
  8
0
 10
0.2594974746830584
 20
0.1000869018234119
 30
0.3299010781095966
 11
0.21
 21
0.117842609589617
 31
0.3401523407680673
 12
0.21
 22
-0.132157390410383
 32
0.7731650426602869
 13
0.2594974746830584
 23
-0.149913098176588
 33
0.7629137800018161
  0
3DFACE
  5
25F
  8
0
 10
0.21
 20
0.117842609589617
 30
0.3401523407680673
 11
0.1605025253169418
 21
0.1000869018234119
 31
0.3299010781095967
 12
0.1605025253169418
 22
-0.149913098176588
 32
0.7629137800018161
 13
0.21
 23
-0.132157390410383
 33
0.7731650426602869
  0
3DFACE
  5
260
  8
0
 10
0.1605025253169418
 20
0.1000869018234119
 30
0.3299010781095967
 11
0.1400000000000001
 21
0.0572208313247063
 31
0.3051523407680674
 12
0.1400000000000001
 22
-0.1927791686752937
 32
0.7381650426602869
 13
0.1605025253169418
 23
-0.149913098176588
 33
0.7629137800018161
  0
3DFACE
  5
261
  8
0
 10
0.1400000000000001
 20
0.0572208313247063
 30
0.3051523407680674
 11
0.1605025253169418
 21
0.0143547608260007
 31
0.2804036034265382
 12
0.1605025253169418
 22
-0.2356452391739993
 32
0.7134163053187577
 13
0.1400000000000001
 23
-0.1927791686752937
 33
0.7381650426602869
  0
3DFACE
  5
262
  8
0
 10
0.1605025253169418
 20
0.0143547608260007
 30
0.2804036034265382
 11
0.21
 21
-0.0034009469402044
 31
0.2701523407680674
 12
0.21
 22
-0.2534009469402044
 32
0.703165042660287
 13
0.1605025253169418
 23
-0.2356452391739993
 33
0.7134163053187577
  0
3DFACE
  5
263
  8
0
 10
0.21
 20
-0.0034009469402044
 30
0.2701523407680674
 11
0.2594974746830584
 21
0.0143547608260007
 31
0.2804036034265382
 12
0.2594974746830584
 22
-0.2356452391739993
 32
0.7134163053187577
 13
0.21
 23
-0.2534009469402044
 33
0.703165042660287
  0
3DFACE
  5
264
  8
0
 10
0.2594974746830584
 20
0.0143547608260007
 30
0.2804036034265382
 11
0.2800000000000001
 21
0.0572208313247063
 31
0.3051523407680674
 12
0.2800000000000001
 22
-0.1927791686752937
 32
0.7381650426602869
 13
0.2594974746830584
 23
-0.2356452391739993
 33
0.7134163053187577
  0
3DFACE
  5
265
  8
0
 10
0.1400000000000001
 20
-0.1927791686752937
 30
0.7381650426602869
 11
0.1605025253169418
 21
-0.2356452391739992
 31
0.7134163053187578
 12
0.21
 22
-0.2534009469402044
 32
0.703165042660287
 13
0.1605025253169418
 23
-0.149913098176588
 33
0.7629137800018161
  0
3DFACE
  5
266
  8
0
 10
0.1605025253169418
 20
-0.149913098176588
 30
0.7629137800018161
 11
0.21
 21
-0.2534009469402044
 31
0.703165042660287
 12
0.2594974746830584
 22
-0.2356452391739993
 32
0.7134163053187577
 13
0.21
 23
-0.132157390410383
 33
0.7731650426602869
  0
3DFACE
  5
267
  8
0
 10
0.2100000000000001
 20
-0.1321573904103829
 30
0.7731650426602869
 11
0.2594974746830584
 21
-0.2356452391739994
 31
0.7134163053187578
 12
0.2800000000000001
 22
-0.1927791686752937
 32
0.7381650426602869
 13
0.2594974746830584
 23
-0.149913098176588
 33
0.7629137800018161
  0
3DFACE
  5
268
  8
0
 10
0.1605025253169418
 20
0.1000869018234119
 30
0.3299010781095967
 11
0.21
 21
-0.0034009469402044
 31
0.2701523407680674
 12
0.1605025253169418
 22
0.0143547608260007
 32
0.2804036034265381
 13
0.1400000000000001
 23
0.0572208313247063
 33
0.3051523407680674
  0
3DFACE
  5
269
  8
0
 10
0.21
 20
0.117842609589617
 30
0.3401523407680673
 11
0.2594974746830584
 21
0.0143547608260007
 31
0.2804036034265382
 12
0.2100000000000001
 22
-0.0034009469402045
 32
0.2701523407680674
 13
0.1605025253169418
 23
0.1000869018234119
 33
0.3299010781095967
  0
3DFACE
  5
26A
  8
0
 10
0.2594974746830584
 20
0.1000869018234119
 30
0.3299010781095966
 11
0.2800000000000001
 21
0.0572208313247063
 31
0.3051523407680674
 12
0.2594974746830584
 22
0.0143547608260006
 32
0.280403603426538
 13
0.21
 23
0.117842609589617
 33
0.3401523407680673
  0
3DFACE
  5
26B
  8
0
 10
-0.2099999999999999
 20
-0.1321573904103829
 30
0.7731650426602869
 11
-0.1605025253169416
 21
-0.2356452391739994
 31
0.7134163053187578
 12
-0.1399999999999999
 22
-0.1927791686752937
 32
0.7381650426602869
 13
-0.1605025253169416
 23
-0.149913098176588
 33
0.7629137800018161
  0
3DFACE
  5
26C
  8
0
 10
-0.2594974746830582
 20
-0.149913098176588
 30
0.7629137800018161
 11
-0.2099999999999999
 21
-0.2534009469402044
 31
0.703165042660287
 12
-0.1605025253169416
 22
-0.2356452391739992
 32
0.7134163053187577
 13
-0.2099999999999999
 23
-0.132157390410383
 33
0.7731650426602869
  0
3DFACE
  5
26D
  8
0
 10
-0.2799999999999999
 20
-0.1927791686752937
 30
0.7381650426602869
 11
-0.2594974746830582
 21
-0.2356452391739992
 31
0.7134163053187578
 12
-0.2099999999999999
 22
-0.2534009469402044
 32
0.703165042660287
 13
-0.2594974746830582
 23
-0.149913098176588
 33
0.7629137800018161
  0
3DFACE
  5
26E
  8
0
 10
-0.2594974746830582
 20
0.1000869018234119
 30
0.3299010781095967
 11
-0.2799999999999999
 21
0.0572208313247063
 31
0.3051523407680674
 12
-0.2799999999999999
 22
-0.1927791686752937
 32
0.7381650426602869
 13
-0.2594974746830582
 23
-0.149913098176588
 33
0.7629137800018161
  0
3DFACE
  5
26F
  8
0
 10
-0.2099999999999999
 20
0.117842609589617
 30
0.3401523407680673
 11
-0.2594974746830582
 21
0.1000869018234119
 31
0.3299010781095967
 12
-0.2594974746830582
 22
-0.149913098176588
 32
0.7629137800018161
 13
-0.2099999999999999
 23
-0.132157390410383
 33
0.7731650426602869
  0
3DFACE
  5
270
  8
0
 10
-0.1605025253169416
 20
0.1000869018234119
 30
0.3299010781095966
 11
-0.2099999999999999
 21
0.117842609589617
 31
0.3401523407680673
 12
-0.2099999999999999
 22
-0.132157390410383
 32
0.7731650426602869
 13
-0.1605025253169416
 23
-0.149913098176588
 33
0.7629137800018161
  0
3DFACE
  5
271
  8
0
 10
-0.1399999999999999
 20
0.0572208313247063
 30
0.3051523407680674
 11
-0.1605025253169416
 21
0.1000869018234119
 31
0.3299010781095966
 12
-0.1605025253169416
 22
-0.149913098176588
 32
0.7629137800018161
 13
-0.1399999999999999
 23
-0.1927791686752937
 33
0.7381650426602869
  0
3DFACE
  5
272
  8
0
 10
-0.1605025253169416
 20
0.0143547608260007
 30
0.2804036034265382
 11
-0.1399999999999999
 21
0.0572208313247063
 31
0.3051523407680674
 12
-0.1399999999999999
 22
-0.1927791686752937
 32
0.7381650426602869
 13
-0.1605025253169416
 23
-0.2356452391739992
 33
0.7134163053187577
  0
3DFACE
  5
273
  8
0
 10
-0.2099999999999999
 20
-0.0034009469402044
 30
0.2701523407680674
 11
-0.1605025253169416
 21
0.0143547608260007
 31
0.2804036034265382
 12
-0.1605025253169416
 22
-0.2356452391739992
 32
0.7134163053187577
 13
-0.2099999999999999
 23
-0.2534009469402044
 33
0.703165042660287
  0
3DFACE
  5
274
  8
0
 10
-0.2594974746830582
 20
0.0143547608260007
 30
0.2804036034265382
 11
-0.2099999999999999
 21
-0.0034009469402044
 31
0.2701523407680674
 12
-0.2099999999999999
 22
-0.2534009469402044
 32
0.703165042660287
 13
-0.2594974746830582
 23
-0.2356452391739992
 33
0.7134163053187577
  0
3DFACE
  5
275
  8
0
 10
-0.2799999999999999
 20
0.0572208313247063
 30
0.3051523407680674
 11
-0.2594974746830582
 21
0.0143547608260007
 31
0.2804036034265382
 12
-0.2594974746830582
 22
-0.2356452391739992
 32
0.7134163053187577
 13
-0.2799999999999999
 23
-0.1927791686752937
 33
0.7381650426602869
  0
3DFACE
  5
276
  8
0
 10
-0.1605025253169416
 20
0.1000869018234119
 30
0.3299010781095966
 11
-0.1399999999999999
 21
0.0572208313247063
 31
0.3051523407680674
 12
-0.1605025253169416
 22
0.0143547608260006
 32
0.280403603426538
 13
-0.2099999999999999
 23
0.117842609589617
 33
0.3401523407680673
  0
3DFACE
  5
277
  8
0
 10
-0.2099999999999999
 20
0.117842609589617
 30
0.3401523407680673
 11
-0.1605025253169416
 21
0.0143547608260007
 31
0.2804036034265382
 12
-0.2099999999999999
 22
-0.0034009469402045
 32
0.2701523407680674
 13
-0.2594974746830582
 23
0.1000869018234119
 33
0.3299010781095967
  0
3DFACE
  5
278
  8
0
 10
-0.2594974746830582
 20
0.1000869018234119
 30
0.3299010781095967
 11
-0.2099999999999999
 21
-0.0034009469402044
 31
0.2701523407680674
 12
-0.2594974746830582
 22
0.0143547608260007
 32
0.2804036034265381
 13
-0.2799999999999999
 23
0.0572208313247063
 33
0.3051523407680674
  0
3DFACE
  5
479
  8
0
 10
0.14
 20
-0.3300000000000001
 30
0.7700000000000001
 11
0.14
 21
-0.4999999999999992
 31
0.7700000000000001
 12
0.14
 22
-0.4999999999999992
 32
1.0
 13
0.14
 23
-0.3300000000000001
 33
1.0
  0
3DFACE
  5
47A
  8
0
 10
0.370000000000001
 20
-0.4999999999999992
 30
1.0
 11
0.370000000000001
 21
-0.4999999999999992
 31
0.7700000000000001
 12
0.370000000000001
 22
-0.3300000000000001
 32
0.7700000000000001
 13
0.370000000000001
 23
-0.3300000000000001
 33
1.0
  0
3DFACE
  5
47B
  8
0
 10
0.14
 20
-0.4999999999999992
 30
1.0
 11
0.14
 21
-0.4999999999999992
 31
0.7700000000000001
 12
0.370000000000001
 22
-0.4999999999999992
 32
0.7700000000000001
 13
0.370000000000001
 23
-0.4999999999999992
 33
1.0
  0
3DFACE
  5
47C
  8
0
 10
0.370000000000001
 20
-0.3300000000000001
 30
1.0
 11
0.370000000000001
 21
-0.3300000000000001
 31
0.7700000000000001
 12
0.14
 22
-0.3300000000000001
 32
0.7700000000000001
 13
0.14
 23
-0.3300000000000001
 33
1.0
  0
3DFACE
  5
47D
  8
0
 10
0.370000000000001
 20
-0.3300000000000001
 30
0.7700000000000001
 11
0.370000000000001
 21
-0.4999999999999992
 31
0.7700000000000001
 12
0.14
 22
-0.4999999999999992
 32
0.7700000000000001
 13
0.14
 23
-0.3300000000000001
 33
0.7700000000000001
  0
3DFACE
  5
47E
  8
0
 10
0.14
 20
-0.3300000000000001
 30
1.0
 11
0.14
 21
-0.4999999999999992
 31
1.0
 12
0.370000000000001
 22
-0.4999999999999992
 32
1.0
 13
0.370000000000001
 23
-0.3300000000000001
 33
1.0
  0
3DFACE
  5
4B1
  8
0
 10
0.4400000000000001
 20
-0.55
 30
0.9300000000000001
 11
0.4400000000000001
 21
-0.5300000000000001
 31
0.95
 12
0.28
 22
-0.5300000000000001
 32
0.95
 13
0.3
 23
-0.55
 33
0.9300000000000001
  0
3DFACE
  5
4B2
  8
0
 10
0.4400000000000001
 20
-0.5300000000000001
 30
0.95
 11
0.4400000000000001
 21
-0.51
 31
0.9300000000000001
 12
0.3
 22
-0.51
 32
0.9300000000000001
 13
0.28
 23
-0.5300000000000001
 33
0.95
  0
3DFACE
  5
4B3
  8
0
 10
0.4400000000000001
 20
-0.51
 30
0.9300000000000001
 11
0.4400000000000001
 21
-0.5300000000000001
 31
0.9099999999999999
 12
0.28
 22
-0.5300000000000001
 32
0.9099999999999999
 13
0.3
 23
-0.51
 33
0.9300000000000001
  0
3DFACE
  5
4B4
  8
0
 10
0.4400000000000001
 20
-0.5300000000000001
 30
0.9099999999999999
 11
0.4400000000000001
 21
-0.55
 31
0.9300000000000001
 12
0.3
 22
-0.55
 32
0.9300000000000001
 13
0.28
 23
-0.5300000000000001
 33
0.9099999999999999
  0
3DFACE
  5
4B5
  8
0
 10
0.4600000000000001
 20
-0.6400000000000001
 30
0.9300000000000001
 11
0.4600000000000001
 21
-0.6077817459305203
 31
1.0077817459305201
 12
0.4400000000000001
 22
-0.6077817459305203
 32
1.0077817459305201
 13
0.4400000000000001
 23
-0.6400000000000001
 33
0.9300000000000001
  0
3DFACE
  5
4B6
  8
0
 10
0.4600000000000001
 20
-0.6077817459305203
 30
1.0077817459305201
 11
0.4600000000000001
 21
-0.5300000000000001
 31
1.04
 12
0.4400000000000001
 22
-0.5300000000000001
 32
1.04
 13
0.4400000000000001
 23
-0.6077817459305203
 33
1.0077817459305201
  0
3DFACE
  5
4B7
  8
0
 10
0.4600000000000001
 20
-0.5300000000000001
 30
1.04
 11
0.4600000000000001
 21
-0.4522182540694799
 31
1.0077817459305201
 12
0.4400000000000001
 22
-0.4522182540694799
 32
1.0077817459305201
 13
0.4400000000000001
 23
-0.5300000000000001
 33
1.04
  0
3DFACE
  5
4B8
  8
0
 10
0.4600000000000001
 20
-0.4522182540694799
 30
1.0077817459305201
 11
0.4600000000000001
 21
-0.4200000000000001
 31
0.9300000000000001
 12
0.4400000000000001
 22
-0.4200000000000001
 32
0.9300000000000001
 13
0.4400000000000001
 23
-0.4522182540694799
 33
1.0077817459305201
  0
3DFACE
  5
4B9
  8
0
 10
0.4600000000000001
 20
-0.4200000000000001
 30
0.9300000000000001
 11
0.4600000000000001
 21
-0.4522182540694799
 31
0.8522182540694798
 12
0.4400000000000001
 22
-0.4522182540694799
 32
0.8522182540694798
 13
0.4400000000000001
 23
-0.4200000000000001
 33
0.9300000000000001
  0
3DFACE
  5
4BA
  8
0
 10
0.4600000000000001
 20
-0.4522182540694799
 30
0.8522182540694798
 11
0.4600000000000001
 21
-0.5300000000000001
 31
0.8200000000000001
 12
0.4400000000000001
 22
-0.5300000000000001
 32
0.8200000000000001
 13
0.4400000000000001
 23
-0.4522182540694799
 33
0.8522182540694798
  0
3DFACE
  5
4BB
  8
0
 10
0.4600000000000001
 20
-0.5300000000000001
 30
0.8200000000000001
 11
0.4600000000000001
 21
-0.6077817459305203
 31
0.8522182540694798
 12
0.4400000000000001
 22
-0.6077817459305203
 32
0.8522182540694798
 13
0.4400000000000001
 23
-0.5300000000000001
 33
0.8200000000000001
  0
3DFACE
  5
4BC
  8
0
 10
0.4600000000000001
 20
-0.6077817459305203
 30
0.8522182540694798
 11
0.4600000000000001
 21
-0.6400000000000001
 31
0.9300000000000001
 12
0.4400000000000001
 22
-0.6400000000000001
 32
0.9300000000000001
 13
0.4400000000000001
 23
-0.6077817459305203
 33
0.8522182540694798
  0
3DFACE
  5
4BD
  8
0
 10
0.3
 20
-0.5
 30
0.9399999999999998
 11
0.275
 21
-0.5
 31
0.9833012701892219
 12
0.275
 22
-0.6
 32
0.9833012701892219
 13
0.3
 23
-0.6
 33
0.9399999999999998
  0
3DFACE
  5
4BE
  8
0
 10
0.275
 20
-0.5
 30
0.9833012701892219
 11
0.225
 21
-0.5
 31
0.9833012701892219
 12
0.225
 22
-0.6
 32
0.9833012701892219
 13
0.275
 23
-0.6
 33
0.9833012701892219
  0
3DFACE
  5
4BF
  8
0
 10
0.225
 20
-0.5
 30
0.9833012701892219
 11
0.2
 21
-0.5
 31
0.9399999999999998
 12
0.2
 22
-0.6
 32
0.9399999999999998
 13
0.225
 23
-0.6
 33
0.9833012701892219
  0
3DFACE
  5
4C0
  8
0
 10
0.2
 20
-0.5
 30
0.9399999999999998
 11
0.225
 21
-0.5
 31
0.8966987298107779
 12
0.225
 22
-0.6
 32
0.8966987298107779
 13
0.2
 23
-0.6
 33
0.9399999999999998
  0
3DFACE
  5
4C1
  8
0
 10
0.225
 20
-0.5
 30
0.8966987298107779
 11
0.275
 21
-0.5
 31
0.8966987298107779
 12
0.275
 22
-0.6
 32
0.8966987298107779
 13
0.225
 23
-0.6
 33
0.8966987298107779
  0
3DFACE
  5
4C2
  8
0
 10
0.275
 20
-0.5
 30
0.8966987298107779
 11
0.3
 21
-0.5
 31
0.9399999999999998
 12
0.3
 22
-0.6
 32
0.9399999999999998
 13
0.275
 23
-0.6
 33
0.8966987298107779
  0
3DFACE
  5
4C3
  8
0
 10
0.275
 20
-0.6
 30
0.9833012701892219
 11
0.225
 21
-0.6
 31
0.9833012701892219
 12
0.2
 22
-0.6
 32
0.9399999999999998
 13
0.3
 23
-0.6
 33
0.9399999999999998
  0
3DFACE
  5
4C4
  8
0
 10
0.3
 20
-0.6
 30
0.9399999999999998
 11
0.2
 21
-0.6
 31
0.9399999999999998
 12
0.225
 22
-0.6
 32
0.8966987298107779
 13
0.275
 23
-0.6
 33
0.8966987298107779
  0
3DFACE
  5
4C5
  8
0
 10
0.4400000000000001
 20
-0.6077817459305203
 30
1.0077817459305201
 11
0.4400000000000001
 21
-0.5300000000000001
 31
1.04
 12
0.4400000000000001
 22
-0.4522182540694799
 32
1.0077817459305201
 13
0.4400000000000001
 23
-0.6400000000000001
 33
0.9300000000000001
  0
3DFACE
  5
4C6
  8
0
 10
0.4400000000000001
 20
-0.6400000000000001
 30
0.9300000000000001
 11
0.4400000000000001
 21
-0.4522182540694799
 31
1.0077817459305201
 12
0.4400000000000001
 22
-0.4200000000000001
 32
0.9300000000000001
 13
0.4400000000000001
 23
-0.6077817459305203
 33
0.8522182540694798
  0
3DFACE
  5
4C7
  8
0
 10
0.4400000000000001
 20
-0.6077817459305203
 30
0.8522182540694798
 11
0.4400000000000001
 21
-0.4200000000000001
 31
0.9300000000000001
 12
0.4400000000000001
 22
-0.4522182540694799
 32
0.8522182540694798
 13
0.4400000000000001
 23
-0.5300000000000001
 33
0.8200000000000001
  0
3DFACE
  5
4C8
  8
0
 10
0.46
 20
-0.4200000000000001
 30
0.9300000000000001
 11
0.46
 21
-0.6077817459305202
 31
1.0077817459305201
 12
0.46
 22
-0.6399999999999999
 32
0.9300000000000001
 13
0.46
 23
-0.4522182540694799
 33
0.8522182540694798
  0
3DFACE
  5
4C9
  8
0
 10
0.46
 20
-0.4522182540694799
 30
1.0077817459305201
 11
0.46
 21
-0.5300000000000001
 31
1.04
 12
0.46
 22
-0.6077817459305202
 32
1.0077817459305201
 13
0.46
 23
-0.4200000000000001
 33
0.9300000000000001
  0
3DFACE
  5
4CA
  8
0
 10
0.46
 20
-0.4522182540694799
 30
0.8522182540694798
 11
0.46
 21
-0.6399999999999999
 31
0.9300000000000001
 12
0.46
 22
-0.6077817459305202
 32
0.8522182540694798
 13
0.46
 23
-0.5300000000000001
 33
0.8200000000000001
  0
3DFACE
  5
4CB
  8
0
 10
0.3577817459305202
 20
-0.7094499137339259
 30
0.9499550163060938
 11
0.28
 21
-0.717788611487059
 31
0.9810754599897471
 12
0.2022182540694799
 22
-0.7094499137339259
 32
0.9499550163060938
 13
0.39
 23
-0.6893185165257817
 33
0.8748236190979495
  0
3DFACE
  5
4CC
  8
0
 10
0.39
 20
-0.6893185165257817
 30
0.8748236190979495
 11
0.2022182540694799
 21
-0.7094499137339259
 31
0.9499550163060938
 12
0.1700000000000001
 22
-0.6893185165257817
 32
0.8748236190979495
 13
0.3577817459305202
 23
-0.6691871193176376
 33
0.7996922218898055
  0
3DFACE
  5
4CD
  8
0
 10
0.17
 20
-0.6700000000000003
 30
0.88
 11
0.3577817459305202
 21
-0.6901313972081443
 31
0.9551313972081441
 12
0.39
 22
-0.6700000000000003
 32
0.88
 13
0.2022182540694798
 23
-0.6498686027918561
 33
0.8048686027918559
  0
3DFACE
  5
4CE
  8
0
 10
0.2022182540694798
 20
-0.6901313972081443
 30
0.9551313972081441
 11
0.28
 21
-0.6984700949612777
 31
0.9862518408917974
 12
0.3577817459305202
 22
-0.6901313972081443
 32
0.9551313972081441
 13
0.17
 23
-0.6700000000000003
 33
0.88
  0
3DFACE
  5
4CF
  8
0
 10
0.3577817459305202
 20
-0.7094499137339259
 30
0.9499550163060938
 11
0.39
 21
-0.6893185165257817
 31
0.8748236190979495
 12
0.39
 22
-0.6700000000000003
 32
0.88
 13
0.3577817459305202
 23
-0.6901313972081443
 33
0.9551313972081441
  0
3DFACE
  5
4D0
  8
0
 10
0.17
 20
-0.6893185165257817
 30
0.8748236190979495
 11
0.2022182540694797
 21
-0.7094499137339259
 31
0.9499550163060938
 12
0.2022182540694798
 22
-0.6901313972081443
 32
0.9551313972081441
 13
0.17
 23
-0.6700000000000003
 33
0.88
  0
3DFACE
  5
4D1
  8
0
 10
0.28
 20
-0.6751763809020507
 30
0.8993185165257814
 11
0.3
 21
-0.6700000000000003
 31
0.88
 12
0.3
 22
-0.5347703843195308
 32
0.9162346663143528
 13
0.28
 23
-0.5399467652215809
 33
0.9355531828401343
  0
3DFACE
  5
4D2
  8
0
 10
0.26
 20
-0.6700000000000003
 30
0.88
 11
0.28
 21
-0.6751763809020507
 31
0.8993185165257814
 12
0.28
 22
-0.5399467652215809
 32
0.9355531828401343
 13
0.26
 23
-0.5347703843195308
 33
0.9162346663143528
  0
3DFACE
  5
4D3
  8
0
 10
0.3577817459305202
 20
-0.6691871193176376
 30
0.7996922218898055
 11
0.1700000000000001
 21
-0.6893185165257817
 31
0.8748236190979495
 12
0.2022182540694799
 22
-0.6691871193176376
 32
0.7996922218898055
 13
0.28
 23
-0.6608484215645044
 33
0.7685717782061522
  0
3DFACE
  5
4D4
  8
0
 10
0.2022182540694798
 20
-0.6498686027918561
 30
0.8048686027918559
 11
0.39
 21
-0.6700000000000003
 31
0.88
 12
0.3577817459305202
 22
-0.6498686027918561
 32
0.8048686027918559
 13
0.28
 23
-0.641529905038723
 33
0.7737481591082026
  0
3DFACE
  5
4D5
  8
0
 10
0.2022182540694797
 20
-0.6691871193176376
 30
0.7996922218898055
 11
0.17
 21
-0.6893185165257817
 31
0.8748236190979495
 12
0.17
 22
-0.6700000000000003
 32
0.88
 13
0.2022182540694798
 23
-0.6498686027918561
 33
0.8048686027918559
  0
3DFACE
  5
4D6
  8
0
 10
0.28
 20
-0.6608484215645044
 30
0.7685717782061522
 11
0.2022182540694797
 21
-0.6691871193176376
 31
0.7996922218898055
 12
0.2022182540694798
 22
-0.6498686027918561
 32
0.8048686027918559
 13
0.28
 23
-0.641529905038723
 33
0.7737481591082026
  0
3DFACE
  5
4D7
  8
0
 10
0.3577817459305202
 20
-0.6691871193176376
 30
0.7996922218898055
 11
0.28
 21
-0.6608484215645044
 31
0.7685717782061522
 12
0.28
 22
-0.641529905038723
 32
0.7737481591082026
 13
0.3577817459305202
 23
-0.6498686027918561
 33
0.8048686027918559
  0
3DFACE
  5
4D8
  8
0
 10
0.39
 20
-0.6893185165257817
 30
0.8748236190979495
 11
0.3577817459305202
 21
-0.6691871193176376
 31
0.7996922218898055
 12
0.3577817459305202
 22
-0.6498686027918561
 32
0.8048686027918559
 13
0.39
 23
-0.6700000000000003
 33
0.88
  0
3DFACE
  5
4D9
  8
0
 10
0.28
 20
-0.6648236190979499
 30
0.8606814834742186
 11
0.26
 21
-0.6700000000000003
 31
0.88
 12
0.26
 22
-0.5347703843195308
 32
0.9162346663143528
 13
0.28
 23
-0.5295940034174801
 33
0.8969161497885716
  0
3DFACE
  5
4DA
  8
0
 10
0.3
 20
-0.6700000000000003
 30
0.88
 11
0.28
 21
-0.6648236190979499
 31
0.8606814834742186
 12
0.28
 22
-0.5295940034174801
 32
0.8969161497885716
 13
0.3
 23
-0.5347703843195308
 33
0.9162346663143528
  0
3DFACE
  5
4DB
  8
0
 10
0.28
 20
-0.717788611487059
 30
0.9810754599897471
 11
0.3577817459305202
 21
-0.7094499137339259
 31
0.9499550163060938
 12
0.3577817459305202
 22
-0.6901313972081443
 32
0.9551313972081441
 13
0.28
 23
-0.6984700949612777
 33
0.9862518408917974
  0
3DFACE
  5
4DC
  8
0
 10
0.2022182540694797
 20
-0.7094499137339259
 30
0.9499550163060938
 11
0.28
 21
-0.717788611487059
 31
0.9810754599897471
 12
0.28
 22
-0.6984700949612777
 32
0.9862518408917974
 13
0.2022182540694798
 23
-0.6901313972081443
 33
0.9551313972081441
  0
3DFACE
  5
4DD
  8
0
 10
0.3
 20
-0.3300000000000001
 30
0.9399999999999998
 11
0.275
 21
-0.3300000000000001
 31
0.8966987298107779
 12
0.275
 22
-0.2300000000000001
 32
0.8966987298107779
 13
0.3
 23
-0.2300000000000001
 33
0.9399999999999998
  0
3DFACE
  5
4DE
  8
0
 10
0.275
 20
-0.3300000000000001
 30
0.8966987298107779
 11
0.225
 21
-0.3300000000000001
 31
0.8966987298107779
 12
0.225
 22
-0.2300000000000001
 32
0.8966987298107779
 13
0.275
 23
-0.2300000000000001
 33
0.8966987298107779
  0
3DFACE
  5
4DF
  8
0
 10
0.275
 20
-0.3300000000000001
 30
0.9833012701892219
 11
0.3
 21
-0.3300000000000001
 31
0.9399999999999998
 12
0.3
 22
-0.2300000000000001
 32
0.9399999999999998
 13
0.275
 23
-0.2300000000000001
 33
0.9833012701892219
  0
3DFACE
  5
4E0
  8
0
 10
0.225
 20
-0.3300000000000001
 30
0.9833012701892219
 11
0.275
 21
-0.3300000000000001
 31
0.9833012701892219
 12
0.275
 22
-0.2300000000000001
 32
0.9833012701892219
 13
0.225
 23
-0.2300000000000001
 33
0.9833012701892219
  0
3DFACE
  5
4E1
  8
0
 10
0.2
 20
-0.2300000000000001
 30
0.9399999999999998
 11
0.3
 21
-0.2300000000000001
 31
0.9399999999999998
 12
0.275
 22
-0.2300000000000001
 32
0.8966987298107779
 13
0.225
 23
-0.2300000000000001
 33
0.8966987298107779
  0
3DFACE
  5
4E2
  8
0
 10
0.225
 20
-0.2300000000000001
 30
0.9833012701892219
 11
0.275
 21
-0.2300000000000001
 31
0.9833012701892219
 12
0.3
 22
-0.2300000000000001
 32
0.9399999999999998
 13
0.2
 23
-0.2300000000000001
 33
0.9399999999999998
  0
3DFACE
  5
4E3
  8
0
 10
0.225
 20
-0.3300000000000001
 30
0.8966987298107779
 11
0.2
 21
-0.3300000000000001
 31
0.9399999999999998
 12
0.2
 22
-0.2300000000000001
 32
0.9399999999999998
 13
0.225
 23
-0.2300000000000001
 33
0.8966987298107779
  0
3DFACE
  5
4E4
  8
0
 10
0.2
 20
-0.3300000000000001
 30
0.9399999999999998
 11
0.225
 21
-0.3300000000000001
 31
0.9833012701892219
 12
0.225
 22
-0.2300000000000001
 32
0.9833012701892219
 13
0.2
 23
-0.2300000000000001
 33
0.9399999999999998
  0
3DFACE
  5
4F1
  8
0
 10
0.27
 20
-0.26
 30
0.98
 11
0.25
 21
-0.24
 31
0.98
 12
0.25
 22
-0.24
 32
1.4699999999999991
 13
0.27
 23
-0.26
 33
1.4699999999999991
  0
3DFACE
  5
4F2
  8
0
 10
0.25
 20
-0.24
 30
0.98
 11
0.23
 21
-0.26
 31
0.98
 12
0.23
 22
-0.26
 32
1.4699999999999991
 13
0.25
 23
-0.24
 33
1.4699999999999991
  0
3DFACE
  5
4F3
  8
0
 10
0.23
 20
-0.26
 30
0.98
 11
0.25
 21
-0.28
 31
0.98
 12
0.25
 22
-0.28
 32
1.4699999999999991
 13
0.23
 23
-0.26
 33
1.4699999999999991
  0
3DFACE
  5
4F4
  8
0
 10
0.25
 20
-0.28
 30
0.98
 11
0.27
 21
-0.26
 31
0.98
 12
0.27
 22
-0.26
 32
1.4699999999999991
 13
0.25
 23
-0.28
 33
1.4699999999999991
  0
3DFACE
  5
4F5
  8
0
 10
0.25
 20
-0.24
 30
1.4699999999999991
 11
0.23
 21
-0.26
 31
1.4699999999999991
 12
0.25
 22
-0.28
 32
1.4699999999999991
 13
0.27
 23
-0.26
 33
1.4699999999999991
  0
3DFACE
  5
4F7
  8
0
 10
-0.6
 20
-0.26
 30
1.5599999999999989
 11
-0.6
 21
0.3
 31
0.2899999999999996
 12
-0.12
 22
0.0618897637795275
 32
0.8299999999999997
 13
-0.12
 23
-0.1982677165354332
 33
1.419999999999999
  0
3DFACE
  5
4F8
  8
0
 10
-0.6
 20
0.3300000000000013
 30
0.2899999999999996
 11
-0.6
 21
0.3
 31
0.2899999999999996
 12
-0.6000000000000001
 22
-0.0042519685039373
 32
0.98
 13
-0.6000000000000002
 23
0.0257480314960636
 33
0.98
  0
3DFACE
  5
4FA
  8
0
 10
-0.12
 20
-0.168267716535433
 30
1.419999999999999
 11
-0.12
 21
0.0339944903581274
 31
0.9612982093663912
 12
-0.59
 22
0.0339944903581271
 32
0.9612982093663917
 13
-0.59
 23
-0.2208213440174835
 33
1.539184119468221
  0
3DFACE
  5
501
  8
0
 10
0.75
 20
-0.27
 30
1.6299999999999999
 11
0.75
 21
-0.2299999999999987
 31
1.5600000000000001
 12
-0.75
 22
-0.2299999999999987
 32
1.5600000000000001
 13
-0.75
 23
-0.27
 33
1.6299999999999999
  0
3DFACE
  5
502
  8
0
 10
-0.75
 20
-0.2299999999999987
 30
1.5600000000000001
 11
-0.75
 21
-0.26
 31
1.5600000000000001
 12
-0.75
 22
-0.29
 32
1.6100000000000001
 13
-0.75
 23
-0.27
 33
1.6299999999999999
  0
3DFACE
  5
503
  8
0
 10
-0.75
 20
-0.29
 30
1.6100000000000001
 11
-0.75
 21
-0.26
 31
1.5600000000000001
 12
0.75
 22
-0.26
 32
1.5600000000000001
 13
0.75
 23
-0.29
 33
1.6100000000000001
  0
3DFACE
  5
504
  8
0
 10
0.75
 20
-0.29
 30
1.6100000000000001
 11
0.75
 21
-0.26
 31
1.5600000000000001
 12
0.75
 22
-0.2299999999999987
 32
1.5600000000000001
 13
0.75
 23
-0.27
 33
1.6299999999999999
  0
3DFACE
  5
508
  8
0
 10
0.75
 20
-0.36
 30
1.6299999999999999
 11
0.75
 21
-0.29
 31
1.6100000000000001
 12
0.75
 22
-0.27
 32
1.6299999999999999
 13
0.75
 23
-0.36
 33
1.6599999999999999
  0
3DFACE
  5
509
  8
0
 10
-0.75
 20
-0.36
 30
1.6599999999999999
 11
-0.75
 21
-0.36
 31
1.6299999999999999
 12
0.75
 22
-0.36
 32
1.6299999999999999
 13
0.75
 23
-0.36
 33
1.6599999999999999
  0
3DFACE
  5
50A
  8
0
 10
-0.75
 20
-0.36
 30
1.6299999999999999
 11
-0.75
 21
-0.29
 31
1.6100000000000001
 12
0.75
 22
-0.29
 32
1.6100000000000001
 13
0.75
 23
-0.36
 33
1.6299999999999999
  0
3DFACE
  5
50B
  8
0
 10
-0.75
 20
-0.27
 30
1.6299999999999999
 11
-0.75
 21
-0.29
 31
1.6100000000000001
 12
-0.75
 22
-0.36
 32
1.6299999999999999
 13
-0.75
 23
-0.36
 33
1.6599999999999999
  0
3DFACE
  5
50C
  8
0
 10
0.75
 20
-0.36
 30
1.6599999999999999
 11
0.75
 21
-0.27
 31
1.6299999999999999
 12
-0.75
 22
-0.27
 32
1.6299999999999999
 13
-0.75
 23
-0.36
 33
1.6599999999999999
  0
3DFACE
  5
50F
  8
0
 10
0.32
 20
-0.171811023622048
 30
1.359999999999999
 11
0.32
 21
-0.1188976377952752
 31
1.2399999999999991
 12
0.6
 22
0.3
 32
0.2899999999999996
 13
0.6
 23
-0.26
 33
1.5599999999999989
  0
3DFACE
  5
510
  8
0
 10
0.59
 20
-0.2208213440174833
 30
1.539184119468221
 11
0.5899999999999998
 21
0.0339944903581272
 31
0.9612982093663917
 12
0.32
 22
-0.0888976377952752
 32
1.2399999999999991
 13
0.32
 23
-0.1418110236220468
 33
1.359999999999999
  0
3DFACE
  5
512
  8
0
 10
0.5999999999999998
 20
-0.0042519685039373
 30
0.98
 11
0.6
 21
0.3
 31
0.2899999999999996
 12
0.6
 22
0.3300000000000013
 32
0.2899999999999996
 13
0.6
 23
0.025748031496064
 33
0.98
  0
3DFACE
  5
513
  8
0
 10
0.6
 20
0.3300000000000013
 30
0.2899999999999996
 11
0.6
 21
0.3
 31
0.2899999999999996
 12
-0.6
 22
0.3
 32
0.2899999999999996
 13
-0.6
 23
0.3300000000000013
 33
0.2899999999999996
  0
3DFACE
  5
51B
  8
0
 10
-0.12
 20
0.0618897637795276
 30
0.8299999999999997
 11
-0.6
 21
0.3
 31
0.2899999999999996
 12
0.6
 22
0.3
 32
0.2899999999999996
 13
0.12
 23
0.0618897637795276
 33
0.8299999999999997
  0
3DFACE
  5
51D
  8
0
 10
0.12
 20
0.0918897637795276
 30
0.8299999999999997
 11
0.6
 21
0.3300000000000013
 31
0.2899999999999996
 12
-0.6
 22
0.3300000000000013
 32
0.2899999999999996
 13
-0.12
 23
0.0918897637795283
 33
0.8299999999999997
  0
3DFACE
  5
51F
  8
0
 10
-0.12
 20
0.0918897637795283
 30
0.8299999999999997
 11
-0.12
 21
0.0618897637795276
 31
0.8299999999999997
 12
0.12
 22
0.0618897637795276
 32
0.8299999999999997
 13
0.12
 23
0.0918897637795276
 33
0.8299999999999997
  0
3DFACE
  5
521
  8
0
 10
0.6
 20
-0.2299999999999999
 30
1.5599999999999989
 11
0.12
 21
-0.1682677165354318
 31
1.419999999999999
 12
-0.12
 22
-0.1682677165354318
 32
1.419999999999999
 13
-0.6
 23
-0.2299999999999987
 33
1.5599999999999989
  0
3DFACE
  5
522
  8
0
 10
-0.6
 20
-0.26
 30
1.5599999999999989
 11
-0.12
 21
-0.198267716535433
 31
1.419999999999999
 12
0.12
 22
-0.198267716535433
 32
1.419999999999999
 13
0.6
 23
-0.26
 33
1.5599999999999989
  0
3DFACE
  5
525
  8
0
 10
0.12
 20
-0.1682677165354318
 30
1.419999999999999
 11
0.12
 21
-0.198267716535433
 31
1.419999999999999
 12
-0.12
 22
-0.198267716535433
 32
1.419999999999999
 13
-0.12
 23
-0.1682677165354318
 33
1.419999999999999
  0
3DFACE
  5
528
  8
0
 10
0.12
 20
0.0918897637795276
 30
0.8299999999999997
 11
0.12
 21
0.0618897637795269
 31
0.8299999999999997
 12
0.12
 22
-0.1982677165354331
 32
1.419999999999999
 13
0.12
 23
-0.1682677165354318
 33
1.419999999999999
  0
3DFACE
  5
529
  8
0
 10
-0.12
 20
-0.1682677165354318
 30
1.419999999999999
 11
-0.12
 21
-0.198267716535433
 31
1.419999999999999
 12
-0.12
 22
0.0618897637795275
 32
0.8299999999999997
 13
-0.12
 23
0.0918897637795283
 33
0.8299999999999997
  0
3DFACE
  5
538
  8
0
 10
0.32
 20
-0.1418110236220468
 30
1.359999999999999
 11
0.32
 21
-0.171811023622048
 31
1.359999999999999
 12
0.19
 22
-0.1718110236220475
 32
1.359999999999999
 13
0.19
 23
-0.1418110236220468
 33
1.359999999999999
  0
3DFACE
  5
539
  8
0
 10
0.19
 20
-0.088897637795275
 30
1.2399999999999991
 11
0.19
 21
-0.1188976377952758
 31
1.2399999999999991
 12
0.32
 22
-0.1188976377952752
 32
1.2399999999999991
 13
0.32
 23
-0.0888976377952752
 33
1.2399999999999991
  0
3DFACE
  5
53A
  8
0
 10
0.32
 20
-0.0888976377952752
 30
1.2399999999999991
 11
0.32
 21
-0.1188976377952752
 31
1.2399999999999991
 12
0.32
 22
-0.1718110236220475
 32
1.359999999999999
 13
0.32
 23
-0.1418110236220468
 33
1.359999999999999
  0
3DFACE
  5
53B
  8
0
 10
0.19
 20
-0.1418110236220468
 30
1.359999999999999
 11
0.19
 21
-0.171811023622048
 31
1.359999999999999
 12
0.19
 22
-0.1188976377952758
 32
1.2399999999999991
 13
0.19
 23
-0.088897637795275
 33
1.2399999999999991
  0
3DFACE
  5
53C
  8
0
 10
0.19
 20
-0.118897637795275
 30
1.2399999999999991
 11
0.12
 21
0.0618897637795269
 31
0.8299999999999997
 12
0.6
 22
0.3
 32
0.2899999999999996
 13
0.32
 23
-0.1188976377952752
 33
1.2399999999999991
  0
3DFACE
  5
53D
  8
0
 10
0.12
 20
0.0918897637795276
 30
0.8299999999999997
 11
0.12
 21
0.0495381062355659
 31
0.9260475090729132
 12
0.6
 22
0.0495381062355662
 32
0.9260475090729132
 13
0.6
 23
0.3300000000000013
 33
0.2899999999999996
  0
3DFACE
  5
53E
  8
0
 10
0.19
 20
-0.1718110236220475
 30
1.359999999999999
 11
0.12
 21
-0.1982677165354331
 31
1.419999999999999
 12
0.12
 22
0.0618897637795269
 32
0.8299999999999997
 13
0.19
 23
-0.1188976377952757
 33
1.2399999999999991
  0
3DFACE
  5
53F
  8
0
 10
0.12
 20
-0.1682677165354318
 30
1.419999999999999
 11
0.19
 21
-0.1418110236220468
 31
1.359999999999999
 12
0.19
 22
-0.0888976377952746
 32
1.2399999999999991
 13
0.12
 23
0.0339944903581271
 33
0.961298209366391
  0
3DFACE
  5
540
  8
0
 10
0.32
 20
-0.1718110236220475
 30
1.359999999999999
 11
0.6
 21
-0.26
 31
1.5599999999999989
 12
0.12
 22
-0.1982677165354331
 32
1.419999999999999
 13
0.19
 23
-0.1718110236220475
 33
1.359999999999999
  0
3DFACE
  5
541
  8
0
 10
0.5999999999999998
 20
-0.2299999999999999
 30
1.5599999999999989
 11
0.32
 21
-0.1418110236220468
 31
1.359999999999999
 12
0.19
 22
-0.1418110236220462
 32
1.359999999999999
 13
0.12
 23
-0.1682677165354318
 33
1.419999999999999
  0
3DFACE
  5
543
  8
0
 10
-0.75
 20
-0.26
 30
1.5600000000000001
 11
-0.7500000000000001
 21
-0.0042519685039373
 31
0.98
 12
-0.6000000000000001
 22
-0.0042519685039373
 32
0.98
 13
-0.6000000000000032
 23
-0.2600000000000004
 33
1.5600000000000001
  0
3DFACE
  5
544
  8
0
 10
-0.6000000000000001
 20
-0.2299999999999991
 30
1.5600000000000001
 11
-0.6000000000000001
 21
0.025748031496064
 31
0.98
 12
-0.7500000000000001
 22
0.025748031496064
 32
0.98
 13
-0.75
 23
-0.2299999999999987
 33
1.5600000000000001
  0
3DFACE
  5
547
  8
0
 10
0.7499999999999999
 20
-0.2299999999999991
 30
1.5600000000000001
 11
0.7499999999999999
 21
0.025748031496064
 31
0.98
 12
0.5999999999999998
 22
0.025748031496064
 32
0.98
 13
0.5999999999999999
 23
-0.2299999999999987
 33
1.5600000000000001
  0
3DFACE
  5
548
  8
0
 10
0.5999999999999999
 20
-0.26
 30
1.5600000000000001
 11
0.5999999999999998
 21
-0.0042519685039373
 31
0.98
 12
0.7499999999999999
 22
-0.0042519685039373
 32
0.98
 13
0.7499999999999967
 23
-0.2600000000000004
 33
1.5600000000000001
  0
3DFACE
  5
549
  8
0
 10
-0.7500000000000001
 20
0.025748031496064
 30
0.98
 11
-0.7500000000000001
 21
-0.0042519685039373
 31
0.98
 12
-0.75
 22
-0.26
 32
1.5600000000000001
 13
-0.75
 23
-0.2299999999999987
 33
1.5600000000000001
  0
3DFACE
  5
54C
  8
0
 10
0.75
 20
-0.2299999999999991
 30
1.5600000000000001
 11
0.75
 21
-0.26
 31
1.5600000000000001
 12
0.7499999999999994
 22
-0.0042519685039376
 32
0.98
 13
0.7499999999999994
 23
0.0257480314960636
 33
0.98
  0
3DFACE
  5
551
  8
0
 10
0.6000000000000001
 20
0.12
 30
0.98
 11
0.6000000000000001
 21
-0.07
 31
0.98
 12
0.8000000000000002
 22
-0.07
 32
0.98
 13
0.8000000000000002
 23
0.12
 33
0.98
  0
3DFACE
  5
552
  8
0
 10
0.8000000000000002
 20
0.12
 30
0.98
 11
0.8000000000000002
 21
-0.07
 31
0.98
 12
0.8200000000000001
 22
-0.07
 32
0.9599999999999999
 13
0.8200000000000001
 23
0.12
 33
0.9599999999999999
  0
3DFACE
  5
553
  8
0
 10
0.8200000000000001
 20
0.12
 30
0.9599999999999999
 11
0.8200000000000001
 21
-0.07
 31
0.9599999999999999
 12
0.8200000000000001
 22
-0.07
 32
0.9200000000000002
 13
0.8200000000000001
 23
0.12
 33
0.9200000000000002
  0
3DFACE
  5
554
  8
0
 10
0.8200000000000001
 20
0.32
 30
0.84
 11
0.8200000000000001
 21
0.12
 31
0.9599999999999999
 12
0.8200000000000001
 22
0.12
 32
0.9200000000000002
 13
0.8200000000000001
 23
0.3
 33
0.8100000000000001
  0
3DFACE
  5
555
  8
0
 10
0.8
 20
0.34
 30
0.8599999999999999
 11
0.8
 21
0.12
 31
0.98
 12
0.8200000000000001
 22
0.12
 32
0.9599999999999999
 13
0.8200000000000001
 23
0.32
 33
0.84
  0
3DFACE
  5
556
  8
0
 10
0.6000000000000001
 20
0.34
 30
0.8599999999999999
 11
0.6000000000000001
 21
0.12
 31
0.98
 12
0.8
 22
0.12
 32
0.98
 13
0.8
 23
0.34
 33
0.8599999999999999
  0
3DFACE
  5
557
  8
0
 10
0.8200000000000001
 20
0.45
 30
0.6600000000000001
 11
0.8200000000000001
 21
0.32
 31
0.84
 12
0.8200000000000001
 22
0.3
 32
0.8100000000000001
 13
0.8200000000000001
 23
0.4200000000000001
 33
0.65
  0
3DFACE
  5
558
  8
0
 10
0.6000000000000001
 20
0.4900000000000001
 30
0.6700000000000002
 11
0.6000000000000001
 21
0.34
 31
0.8599999999999999
 12
0.8
 22
0.34
 32
0.8599999999999999
 13
0.8
 23
0.4900000000000001
 33
0.6700000000000002
  0
3DFACE
  5
559
  8
0
 10
0.8
 20
0.4900000000000001
 30
0.6700000000000002
 11
0.8
 21
0.34
 31
0.8599999999999999
 12
0.8200000000000001
 22
0.32
 32
0.84
 13
0.8200000000000001
 23
0.45
 33
0.6600000000000001
  0
3DFACE
  5
55A
  8
0
 10
0.8200000000000001
 20
0.48
 30
0.4700000000000001
 11
0.8200000000000001
 21
0.45
 31
0.6600000000000001
 12
0.8200000000000001
 22
0.4200000000000001
 32
0.65
 13
0.8200000000000001
 23
0.4400000000000001
 33
0.4600000000000001
  0
3DFACE
  5
55B
  8
0
 10
0.6000000000000001
 20
0.51
 30
0.4800000000000001
 11
0.6000000000000001
 21
0.4900000000000001
 31
0.6700000000000002
 12
0.8
 22
0.4900000000000001
 32
0.6700000000000002
 13
0.8
 23
0.51
 33
0.4800000000000001
  0
3DFACE
  5
55C
  8
0
 10
0.8
 20
0.51
 30
0.4800000000000001
 11
0.8
 21
0.4900000000000001
 31
0.6700000000000002
 12
0.8200000000000001
 22
0.45
 32
0.6600000000000001
 13
0.8200000000000001
 23
0.48
 33
0.4700000000000001
  0
3DFACE
  5
55D
  8
0
 10
0.8
 20
-0.4700000000000001
 30
0.72
 11
0.8000000000000002
 21
-0.27
 31
0.9099999999999999
 12
0.6000000000000001
 22
-0.27
 32
0.9099999999999999
 13
0.6
 23
-0.4700000000000001
 33
0.72
  0
3DFACE
  5
55E
  8
0
 10
0.8
 20
-0.51
 30
0.63
 11
0.8
 21
-0.4700000000000001
 31
0.72
 12
0.6
 22
-0.4700000000000001
 32
0.72
 13
0.6
 23
-0.51
 33
0.63
  0
3DFACE
  5
55F
  8
0
 10
0.8
 20
-0.2700000000000001
 30
0.9099999999999999
 11
0.8000000000000002
 21
-0.07
 31
0.98
 12
0.6000000000000001
 22
-0.07
 32
0.98
 13
0.6000000000000001
 23
-0.27
 33
0.9099999999999999
  0
3DFACE
  5
560
  8
0
 10
0.8200000000000001
 20
-0.07
 30
0.9599999999999999
 11
0.8200000000000001
 21
-0.26
 31
0.89
 12
0.8200000000000001
 22
-0.25
 32
0.8699999999999999
 13
0.8200000000000001
 23
-0.07
 33
0.9200000000000002
  0
3DFACE
  5
561
  8
0
 10
0.8000000000000002
 20
-0.07
 30
0.98
 11
0.8
 21
-0.2700000000000001
 31
0.9099999999999999
 12
0.8200000000000001
 22
-0.26
 32
0.89
 13
0.8200000000000001
 23
-0.07
 33
0.9599999999999999
  0
3DFACE
  5
562
  8
0
 10
0.8200000000000001
 20
-0.26
 30
0.89
 11
0.8200000000000001
 21
-0.4400000000000001
 31
0.72
 12
0.8200000000000001
 22
-0.4200000000000001
 32
0.7000000000000001
 13
0.8200000000000001
 23
-0.25
 33
0.8699999999999999
  0
3DFACE
  5
563
  8
0
 10
0.8000000000000002
 20
-0.27
 30
0.9099999999999999
 11
0.8
 21
-0.4700000000000001
 31
0.72
 12
0.8200000000000001
 22
-0.4400000000000001
 32
0.72
 13
0.8200000000000001
 23
-0.26
 33
0.89
  0
3DFACE
  5
564
  8
0
 10
0.8000000000000002
 20
-0.4700000000000001
 30
0.72
 11
0.8
 21
-0.51
 31
0.63
 12
0.8200000000000001
 22
-0.5
 32
0.6200000000000001
 13
0.8200000000000001
 23
-0.4400000000000001
 33
0.72
  0
3DFACE
  5
565
  8
0
 10
0.8200000000000001
 20
-0.4400000000000001
 30
0.72
 11
0.8200000000000001
 21
-0.5
 31
0.6200000000000001
 12
0.8200000000000001
 22
-0.48
 32
0.61
 13
0.8200000000000001
 23
-0.4200000000000001
 33
0.7000000000000001
  0
3DFACE
  5
566
  8
0
 10
-0.7999999999999999
 20
0.4900000000000001
 30
0.6700000000000002
 11
-0.7999999999999999
 21
0.3400000000000001
 31
0.8599999999999999
 12
-0.5999999999999999
 22
0.3400000000000001
 32
0.8599999999999999
 13
-0.5999999999999999
 23
0.4900000000000001
 33
0.6700000000000002
  0
3DFACE
  5
567
  8
0
 10
-0.7999999999999999
 20
0.51
 30
0.4800000000000001
 11
-0.7999999999999999
 21
0.4900000000000001
 31
0.6700000000000002
 12
-0.5999999999999999
 22
0.4900000000000001
 32
0.6700000000000002
 13
-0.5999999999999999
 23
0.51
 33
0.4800000000000001
  0
3DFACE
  5
568
  8
0
 10
-0.7999999999999999
 20
0.3400000000000001
 30
0.8599999999999999
 11
-0.7999999999999999
 21
0.12
 31
0.98
 12
-0.5999999999999999
 22
0.12
 32
0.98
 13
-0.5999999999999999
 23
0.3400000000000001
 33
0.8599999999999999
  0
3DFACE
  5
569
  8
0
 10
-0.7999999999999999
 20
0.12
 30
0.98
 11
-0.7999999999999999
 21
-0.07
 31
0.98
 12
-0.5999999999999998
 22
-0.07
 32
0.98
 13
-0.5999999999999998
 23
0.12
 33
0.98
  0
3DFACE
  5
56A
  8
0
 10
-0.6
 20
-0.47
 30
0.72
 11
-0.5999999999999998
 21
-0.27
 31
0.9099999999999999
 12
-0.7999999999999999
 22
-0.27
 32
0.9099999999999999
 13
-0.8
 23
-0.47
 33
0.72
  0
3DFACE
  5
56B
  8
0
 10
-0.6
 20
-0.51
 30
0.63
 11
-0.6
 21
-0.47
 31
0.72
 12
-0.8
 22
-0.47
 32
0.72
 13
-0.8
 23
-0.51
 33
0.63
  0
3DFACE
  5
56C
  8
0
 10
-0.5999999999999999
 20
-0.2700000000000001
 30
0.9099999999999999
 11
-0.5999999999999998
 21
-0.07
 31
0.98
 12
-0.7999999999999999
 22
-0.07
 32
0.98
 13
-0.7999999999999999
 23
-0.27
 33
0.9099999999999999
  0
3DFACE
  5
56D
  8
0
 10
-0.82
 20
0.12
 30
0.9599999999999999
 11
-0.82
 21
-0.07
 31
0.9599999999999999
 12
-0.8
 22
-0.07
 32
0.98
 13
-0.8
 23
0.12
 33
0.98
  0
3DFACE
  5
56E
  8
0
 10
-0.82
 20
0.12
 30
0.9200000000000002
 11
-0.82
 21
-0.07
 31
0.9200000000000002
 12
-0.8200000000000001
 22
-0.07
 32
0.9599999999999999
 13
-0.8200000000000001
 23
0.12
 33
0.9599999999999999
  0
3DFACE
  5
56F
  8
0
 10
-0.82
 20
0.3
 30
0.8100000000000001
 11
-0.82
 21
0.12
 31
0.9200000000000002
 12
-0.8200000000000001
 22
0.12
 32
0.9599999999999999
 13
-0.8200000000000001
 23
0.32
 33
0.84
  0
3DFACE
  5
570
  8
0
 10
-0.8200000000000001
 20
0.32
 30
0.84
 11
-0.8200000000000001
 21
0.12
 31
0.9599999999999999
 12
-0.8
 22
0.12
 32
0.98
 13
-0.8
 23
0.34
 33
0.8599999999999999
  0
3DFACE
  5
571
  8
0
 10
-0.82
 20
-0.07
 30
0.9200000000000002
 11
-0.82
 21
-0.25
 31
0.8699999999999999
 12
-0.8200000000000001
 22
-0.26
 32
0.89
 13
-0.8200000000000001
 23
-0.07
 33
0.9599999999999999
  0
3DFACE
  5
572
  8
0
 10
-0.8200000000000001
 20
-0.07
 30
0.9599999999999999
 11
-0.8200000000000001
 21
-0.26
 31
0.89
 12
-0.8
 22
-0.27
 32
0.9099999999999999
 13
-0.8
 23
-0.07
 33
0.98
  0
3DFACE
  5
573
  8
0
 10
-0.82
 20
0.4200000000000001
 30
0.65
 11
-0.82
 21
0.3
 31
0.8100000000000001
 12
-0.8200000000000001
 22
0.32
 32
0.84
 13
-0.8200000000000001
 23
0.45
 33
0.6600000000000001
  0
3DFACE
  5
574
  8
0
 10
-0.8200000000000001
 20
0.45
 30
0.6600000000000001
 11
-0.8200000000000001
 21
0.32
 31
0.84
 12
-0.8
 22
0.34
 32
0.8599999999999999
 13
-0.8
 23
0.4900000000000001
 33
0.6700000000000002
  0
3DFACE
  5
575
  8
0
 10
-0.82
 20
0.4400000000000001
 30
0.4600000000000001
 11
-0.82
 21
0.4200000000000001
 31
0.65
 12
-0.8200000000000001
 22
0.45
 32
0.6600000000000001
 13
-0.8200000000000001
 23
0.48
 33
0.4700000000000001
  0
3DFACE
  5
576
  8
0
 10
-0.8200000000000001
 20
0.48
 30
0.4700000000000001
 11
-0.8200000000000001
 21
0.45
 31
0.6600000000000001
 12
-0.8
 22
0.4900000000000001
 32
0.6700000000000002
 13
-0.8
 23
0.51
 33
0.4800000000000001
  0
3DFACE
  5
577
  8
0
 10
-0.82
 20
-0.25
 30
0.8699999999999999
 11
-0.82
 21
-0.4200000000000001
 31
0.7000000000000001
 12
-0.8200000000000001
 22
-0.4400000000000001
 32
0.72
 13
-0.8200000000000001
 23
-0.26
 33
0.89
  0
3DFACE
  5
578
  8
0
 10
-0.8200000000000001
 20
-0.26
 30
0.89
 11
-0.8200000000000001
 21
-0.4400000000000001
 31
0.72
 12
-0.8
 22
-0.4700000000000001
 32
0.72
 13
-0.8
 23
-0.27
 33
0.9099999999999999
  0
3DFACE
  5
579
  8
0
 10
-0.82
 20
-0.4200000000000001
 30
0.7000000000000001
 11
-0.82
 21
-0.48
 31
0.61
 12
-0.8200000000000001
 22
-0.5
 32
0.6200000000000001
 13
-0.8200000000000001
 23
-0.4400000000000001
 33
0.72
  0
3DFACE
  5
57A
  8
0
 10
-0.8200000000000001
 20
-0.4400000000000001
 30
0.72
 11
-0.8200000000000001
 21
-0.5
 31
0.6200000000000001
 12
-0.8
 22
-0.51
 32
0.63
 13
-0.8
 23
-0.4700000000000001
 33
0.72
  0
3DFACE
  5
57F
  8
0
 10
0.6
 20
0.2462204724409458
 30
0.48
 11
0.6
 21
0.2462204724409458
 31
0.48
 12
0.6000000000000001
 22
0.4900000000000001
 32
0.6700000000000002
 13
0.6000000000000001
 23
0.51
 33
0.4800000000000001
  0
3DFACE
  5
580
  8
0
 10
0.6
 20
0.2462204724409459
 30
0.4800000000000001
 11
0.6
 21
0.2462204724409459
 31
0.4800000000000001
 12
0.6
 22
0.0495381062355663
 32
0.9260475090729132
 13
0.6000000000000001
 23
0.1575949367088607
 33
0.9594936708860758
  0
3DFACE
  5
581
  8
0
 10
0.6
 20
0.2462204724409459
 30
0.4800000000000001
 11
0.6
 21
0.2462204724409459
 31
0.4800000000000001
 12
0.6000000000000001
 22
0.3400000000000001
 32
0.8599999999999997
 13
0.6000000000000001
 23
0.4900000000000001
 33
0.67
  0
3DFACE
  5
582
  8
0
 10
0.6
 20
0.2462204724409459
 30
0.4800000000000001
 11
0.6
 21
0.2462204724409459
 31
0.4800000000000001
 12
0.6000000000000001
 22
0.1575949367088607
 32
0.9594936708860758
 13
0.6000000000000001
 23
0.3400000000000001
 33
0.8599999999999997
  0
3DFACE
  5
583
  8
0
 10
0.6
 20
0.1500787401574801
 30
0.63
 11
0.6
 21
0.1500787401574801
 31
0.63
 12
0.6000000000000001
 22
-0.07
 32
0.98
 13
0.6000000000000001
 23
-0.0042519685039373
 33
0.98
  0
3DFACE
  5
584
  8
0
 10
0.6
 20
-0.2700000000000001
 30
0.9099999999999999
 11
0.6000000000000001
 21
-0.07
 31
0.98
 12
0.6
 22
0.1500787401574801
 32
0.63
 13
0.6
 23
0.1500787401574801
 33
0.63
  0
3DFACE
  5
585
  8
0
 10
0.5999999999999999
 20
-0.4700000000000001
 30
0.72
 11
0.6
 21
-0.2700000000000001
 31
0.9099999999999999
 12
0.6
 22
0.1500787401574801
 32
0.63
 13
0.6
 23
0.1500787401574801
 33
0.63
  0
3DFACE
  5
586
  8
0
 10
0.5999999999999999
 20
-0.51
 30
0.63
 11
0.5999999999999999
 21
-0.4700000000000001
 31
0.72
 12
0.6
 22
0.1500787401574801
 32
0.63
 13
0.6
 23
0.1500787401574801
 33
0.63
  0
3DFACE
  5
587
  8
0
 10
-0.5999999999999996
 20
0.4900000000000001
 30
0.6700000000000002
 11
-0.5999999999999996
 21
0.3400000000000001
 31
0.8599999999999999
 12
-0.6
 22
0.2462204724409458
 32
0.48
 13
-0.6
 23
0.2462204724409458
 33
0.48
  0
3DFACE
  5
588
  8
0
 10
-0.5999999999999996
 20
0.51
 30
0.4800000000000001
 11
-0.5999999999999996
 21
0.4900000000000001
 31
0.6700000000000002
 12
-0.6
 22
0.2462204724409458
 32
0.48
 13
-0.6
 23
0.2462204724409458
 33
0.48
  0
3DFACE
  5
589
  8
0
 10
-0.5999999999999996
 20
0.3400000000000001
 30
0.8599999999999999
 11
-0.5999999999999996
 21
0.1575949367088607
 31
0.9594936708860758
 12
-0.6
 22
0.2462204724409458
 32
0.48
 13
-0.6
 23
0.2462204724409458
 33
0.48
  0
3DFACE
  5
58A
  8
0
 10
-0.5999999999999996
 20
0.1575949367088607
 30
0.9594936708860758
 11
-0.6
 21
0.0495381062355667
 31
0.9260475090729133
 12
-0.6
 22
0.2462204724409458
 32
0.48
 13
-0.6
 23
0.2462204724409458
 33
0.48
  0
3DFACE
  5
58B
  8
0
 10
-0.6
 20
0.1500787401574801
 30
0.63
 11
-0.6
 21
0.1500787401574801
 31
0.63
 12
-0.5999999999999996
 22
-0.27
 32
0.9099999999999999
 13
-0.5999999999999996
 23
-0.47
 33
0.72
  0
3DFACE
  5
58C
  8
0
 10
-0.6
 20
0.1500787401574801
 30
0.63
 11
-0.6
 21
0.1500787401574801
 31
0.63
 12
-0.5999999999999996
 22
-0.47
 32
0.72
 13
-0.5999999999999996
 23
-0.51
 33
0.63
  0
3DFACE
  5
58D
  8
0
 10
-0.6
 20
0.1500787401574801
 30
0.63
 11
-0.6
 21
0.1500787401574801
 31
0.63
 12
-0.5999999999999996
 22
-0.07
 32
0.98
 13
-0.5999999999999996
 23
-0.27
 33
0.9099999999999999
  0
3DFACE
  5
58E
  8
0
 10
-0.6000000000000001
 20
-0.0042519685039373
 30
0.98
 11
-0.5999999999999996
 21
-0.07
 31
0.98
 12
-0.6
 22
0.1500787401574801
 32
0.63
 13
-0.6
 23
0.1500787401574801
 33
0.63
  0
3DFACE
  5
590
  8
0
 10
0.12
 20
0.45
 30
1.05
 11
0.12
 21
0.049538106235566
 31
0.9260475090729132
 12
0.12
 22
0.0339944903581271
 32
0.961298209366391
 13
0.12
 23
0.4299999999999999
 33
1.0900000000000001
  0
3DFACE
  5
591
  8
0
 10
0.6
 20
0.0339944903581272
 30
0.961298209366391
 11
0.6
 21
0.0495381062355663
 31
0.9260475090729132
 12
0.6
 22
0.45
 32
1.05
 13
0.6
 23
0.4299999999999999
 33
1.0900000000000001
  0
3DFACE
  5
593
  8
0
 10
0.6
 20
0.4299999999999999
 30
1.0900000000000001
 11
0.6
 21
0.45
 31
1.05
 12
0.12
 22
0.45
 32
1.05
 13
0.12
 23
0.4299999999999999
 33
1.0900000000000001
  0
3DFACE
  5
594
  8
0
 10
0.6
 20
0.45
 30
1.05
 11
0.6
 21
0.0495381062355663
 31
0.9260475090729132
 12
0.12
 22
0.049538106235566
 32
0.9260475090729132
 13
0.12
 23
0.45
 33
1.05
  0
3DFACE
  5
595
  8
0
 10
0.12
 20
0.4299999999999999
 30
1.0900000000000001
 11
0.12
 21
0.0339944903581271
 31
0.961298209366391
 12
0.5899999999999998
 22
0.0339944903581272
 32
0.9612982093663917
 13
0.59
 23
0.4299999999999999
 33
1.0900000000000001
  0
3DFACE
  5
597
  8
0
 10
0.59
 20
0.4300000000000001
 30
1.0900000000000001
 11
0.5899999999999998
 21
0.0339944903581272
 31
0.9612982093663917
 12
0.59
 22
-0.2208213440174833
 32
1.539184119468221
 13
0.59
 23
0.2199999999999999
 33
1.5
  0
3DFACE
  5
599
  8
0
 10
0.59
 20
-0.2208213440174833
 30
1.539184119468221
 11
0.6
 21
-0.2208213440174835
 31
1.539184119468221
 12
0.6
 22
0.2199999999999999
 32
1.5
 13
0.59
 23
0.2199999999999999
 33
1.5
  0
3DFACE
  5
59A
  8
0
 10
0.59
 20
0.2199999999999999
 30
1.5
 11
0.6
 21
0.2199999999999999
 31
1.5
 12
0.6
 22
0.4300000000000001
 32
1.0900000000000001
 13
0.59
 23
0.4300000000000001
 33
1.0900000000000001
  0
3DFACE
  5
59C
  8
0
 10
0.6
 20
0.2199999999999999
 30
1.5
 11
0.6
 21
-0.2208213440174835
 31
1.539184119468221
 12
0.6
 22
0.0339944903581272
 32
0.9612982093663917
 13
0.6
 23
0.4300000000000001
 33
1.0900000000000001
  0
3DFACE
  5
5A5
  8
0
 10
-0.12
 20
0.45
 30
1.05
 11
-0.12
 21
0.0495381062355663
 31
0.9260475090729132
 12
-0.6
 22
0.049538106235566
 32
0.9260475090729132
 13
-0.6
 23
0.45
 33
1.05
  0
3DFACE
  5
5A6
  8
0
 10
-0.59
 20
0.4299999999999999
 30
1.0900000000000001
 11
-0.59
 21
0.0339944903581271
 31
0.9612982093663917
 12
-0.12
 22
0.0339944903581272
 32
0.961298209366391
 13
-0.12
 23
0.4299999999999999
 33
1.0900000000000001
  0
3DFACE
  5
5A7
  8
0
 10
-0.12
 20
0.4299999999999999
 30
1.0900000000000001
 11
-0.12
 21
0.45
 31
1.05
 12
-0.6
 22
0.45
 32
1.05
 13
-0.6
 23
0.4299999999999999
 33
1.0900000000000001
  0
3DFACE
  5
5A9
  8
0
 10
-0.12
 20
0.0339944903581272
 30
0.961298209366391
 11
-0.12
 21
0.0495381062355663
 31
0.9260475090729132
 12
-0.12
 22
0.45
 32
1.05
 13
-0.12
 23
0.4299999999999999
 33
1.0900000000000001
  0
3DFACE
  5
5AA
  8
0
 10
-0.6
 20
0.45
 30
1.05
 11
-0.6
 21
0.049538106235566
 31
0.9260475090729132
 12
-0.6
 22
0.0339944903581271
 32
0.961298209366391
 13
-0.6
 23
0.4299999999999999
 33
1.0900000000000001
  0
3DFACE
  5
5AB
  8
0
 10
-0.6
 20
0.4300000000000001
 30
1.0900000000000001
 11
-0.6000000000000004
 21
0.0339944903581272
 31
0.9612982093663917
 12
-0.6
 22
-0.2208213440174834
 32
1.539184119468221
 13
-0.6
 23
0.2199999999999999
 33
1.5
  0
3DFACE
  5
5AD
  8
0
 10
-0.6
 20
-0.2208213440174834
 30
1.539184119468221
 11
-0.59
 21
-0.2208213440174834
 31
1.539184119468221
 12
-0.59
 22
0.2199999999999999
 32
1.5
 13
-0.6
 23
0.2199999999999999
 33
1.5
  0
3DFACE
  5
5AE
  8
0
 10
-0.6
 20
0.2199999999999999
 30
1.5
 11
-0.59
 21
0.2199999999999999
 31
1.5
 12
-0.59
 22
0.4300000000000001
 32
1.0900000000000001
 13
-0.6
 23
0.4300000000000001
 33
1.0900000000000001
  0
3DFACE
  5
5B0
  8
0
 10
-0.59
 20
0.2199999999999999
 30
1.5
 11
-0.59
 21
-0.2208213440174834
 31
1.539184119468221
 12
-0.59
 22
0.0339944903581272
 32
0.9612982093663917
 13
-0.59
 23
0.4300000000000001
 33
1.0900000000000001
  0
3DFACE
  5
5B3
  8
0
 10
0.5999999999999996
 20
-0.2299999999999999
 30
1.5599999999999989
 11
0.5999999999999999
 21
-0.2299999999999987
 31
1.5600000000000001
 12
0.6
 22
-0.2208213440174834
 32
1.539184119468221
 13
0.59
 23
-0.2208213440174834
 33
1.539184119468221
  0
3DFACE
  5
5B4
  8
0
 10
0.6000000000000001
 20
-0.2300000000000002
 30
1.5600000000000001
 11
0.6000000000000001
 21
-0.2300000000000002
 31
1.5600000000000001
 12
0.59
 22
-0.2208213440174834
 32
1.539184119468221
 13
0.32
 23
-0.1418110236220468
 33
1.359999999999999
  0
3DFACE
  5
5B5
  8
0
 10
0.12
 20
0.0339944903581271
 30
0.961298209366391
 11
0.19
 21
-0.0888976377952758
 31
1.2399999999999991
 12
0.32
 22
-0.0888976377952752
 32
1.2399999999999991
 13
0.5899999999999998
 23
0.0339944903581272
 33
0.9612982093663917
  0
3DFACE
  5
5B6
  8
0
 10
-0.6
 20
-0.2299999999999987
 30
1.5599999999999989
 11
-0.6
 21
-0.2299999999999987
 31
1.5599999999999989
 12
-0.59
 22
-0.2208213440174835
 32
1.539184119468221
 13
-0.6
 23
-0.2208213440174835
 33
1.539184119468221
  0
3DFACE
  5
5B7
  8
0
 10
-0.6
 20
-0.2299999999999991
 30
1.5600000000000001
 11
-0.6
 21
-0.2299999999999991
 31
1.5600000000000001
 12
-0.12
 22
-0.168267716535433
 32
1.419999999999999
 13
-0.59
 23
-0.2208213440174835
 33
1.539184119468221
  0
3DFACE
  5
5B8
  8
0
 10
-0.12
 20
0.0918897637795283
 30
0.8299999999999997
 11
-0.6
 21
0.3300000000000013
 31
0.2899999999999996
 12
-0.6000000000000002
 22
0.0495381062355667
 32
0.9260475090729133
 13
-0.12
 23
0.0495381062355663
 33
0.9260475090729132
  0
3DFACE
  5
5BA
  8
0
 10
0.12
 20
0.7900000000000002
 30
0.8200000000000001
 11
0.12
 21
0.7300000000000012
 31
0.8200000000000001
 12
0.6000000000000015
 22
0.7300000000000012
 32
0.8200000000000001
 13
0.6000000000000015
 23
0.7900000000000002
 33
0.8200000000000001
  0
3DFACE
  5
5BB
  8
0
 10
0.6000000000000015
 20
0.7900000000000002
 30
0.8200000000000001
 11
0.6000000000000015
 21
0.7300000000000012
 31
0.8200000000000001
 12
0.12
 22
0.7300000000000012
 32
0.8200000000000001
 13
0.12
 23
0.7900000000000002
 33
0.8200000000000001
  0
3DFACE
  5
5BC
  8
0
 10
0.6
 20
0.5200000000000001
 30
1.159999999999999
 11
0.6
 21
0.4900000000000001
 31
1.1100000000000001
 12
0.6
 22
0.7300000000000012
 32
0.8200000000000001
 13
0.6
 23
0.7900000000000002
 33
0.8200000000000001
  0
3DFACE
  5
5BD
  8
0
 10
0.6
 20
0.7900000000000002
 30
0.8200000000000001
 11
0.6
 21
0.7300000000000012
 31
0.8200000000000001
 12
0.6
 22
0.4900000000000001
 32
1.1100000000000001
 13
0.6
 23
0.5200000000000001
 33
1.159999999999999
  0
3DFACE
  5
5BE
  8
0
 10
0.6
 20
0.3941463414634149
 30
1.159999999999999
 11
0.6
 21
0.4197560975609758
 31
1.1100000000000001
 12
0.6
 22
0.4900000000000001
 32
1.1100000000000001
 13
0.6
 23
0.5200000000000001
 33
1.159999999999999
  0
3DFACE
  5
5BF
  8
0
 10
0.6
 20
0.5200000000000001
 30
1.159999999999999
 11
0.6
 21
0.4900000000000001
 31
1.1100000000000001
 12
0.6
 22
0.4197560975609758
 32
1.1100000000000001
 13
0.6
 23
0.3941463414634149
 33
1.159999999999999
  0
3DFACE
  5
5C0
  8
0
 10
0.12
 20
-0.0536220472440939
 30
1.159999999999999
 11
0.12
 21
-0.0315748031496059
 31
1.1100000000000001
 12
0.12
 22
0.4900000000000001
 32
1.1100000000000001
 13
0.12
 23
0.5199999999999998
 33
1.159999999999999
  0
3DFACE
  5
5C1
  8
0
 10
0.12
 20
0.5199999999999998
 30
1.159999999999999
 11
0.12
 21
0.4900000000000001
 31
1.1100000000000001
 12
0.12
 22
-0.0315748031496059
 32
1.1100000000000001
 13
0.12
 23
-0.0536220472440939
 33
1.159999999999999
  0
3DFACE
  5
5C2
  8
0
 10
0.12
 20
0.7900000000000002
 30
0.8200000000000001
 11
0.12
 21
0.7300000000000012
 31
0.8200000000000001
 12
0.12
 22
0.4900000000000001
 32
1.1100000000000001
 13
0.12
 23
0.5200000000000001
 33
1.159999999999999
  0
3DFACE
  5
5C3
  8
0
 10
0.12
 20
0.5200000000000001
 30
1.159999999999999
 11
0.12
 21
0.4900000000000001
 31
1.1100000000000001
 12
0.12
 22
0.7300000000000012
 32
0.8200000000000001
 13
0.12
 23
0.7900000000000002
 33
0.8200000000000001
  0
3DFACE
  5
5C4
  8
0
 10
-0.6
 20
0.5200000000000001
 30
1.159999999999999
 11
-0.6
 21
0.4900000000000001
 31
1.1100000000000001
 12
-0.6
 22
0.7300000000000012
 32
0.8200000000000001
 13
-0.6
 23
0.7900000000000002
 33
0.8200000000000001
  0
3DFACE
  5
5C5
  8
0
 10
-0.6
 20
0.7900000000000002
 30
0.8200000000000001
 11
-0.6
 21
0.7300000000000012
 31
0.8200000000000001
 12
-0.6
 22
0.4900000000000001
 32
1.1100000000000001
 13
-0.6
 23
0.5200000000000001
 33
1.159999999999999
  0
3DFACE
  5
5C6
  8
0
 10
-0.12
 20
0.7900000000000002
 30
0.8200000000000001
 11
-0.12
 21
0.7300000000000012
 31
0.8200000000000001
 12
-0.12
 22
0.4900000000000001
 32
1.1100000000000001
 13
-0.12
 23
0.5200000000000001
 33
1.159999999999999
  0
3DFACE
  5
5C7
  8
0
 10
-0.12
 20
0.5200000000000001
 30
1.159999999999999
 11
-0.12
 21
0.4900000000000001
 31
1.1100000000000001
 12
-0.12
 22
0.7300000000000012
 32
0.8200000000000001
 13
-0.12
 23
0.7900000000000002
 33
0.8200000000000001
  0
3DFACE
  5
5C8
  8
0
 10
-0.1199999999999985
 20
0.7900000000000002
 30
0.8200000000000001
 11
-0.1199999999999985
 21
0.7300000000000012
 31
0.8200000000000001
 12
-0.6
 22
0.7300000000000012
 32
0.8200000000000001
 13
-0.6
 23
0.7900000000000002
 33
0.8200000000000001
  0
3DFACE
  5
5C9
  8
0
 10
-0.6
 20
0.7900000000000002
 30
0.8200000000000001
 11
-0.6
 21
0.7300000000000012
 31
0.8200000000000001
 12
-0.1199999999999985
 22
0.7300000000000012
 32
0.8200000000000001
 13
-0.1199999999999985
 23
0.7900000000000002
 33
0.8200000000000001
  0
3DFACE
  5
5CA
  8
0
 10
-0.6
 20
0.5200000000000001
 30
1.159999999999999
 11
-0.6
 21
0.4900000000000001
 31
1.1100000000000001
 12
-0.6
 22
0.4197560975609758
 32
1.1100000000000001
 13
-0.6
 23
0.394146341463415
 33
1.159999999999999
  0
3DFACE
  5
5CB
  8
0
 10
-0.6
 20
0.394146341463415
 30
1.159999999999999
 11
-0.6
 21
0.4197560975609758
 31
1.1100000000000001
 12
-0.6
 22
0.4900000000000001
 32
1.1100000000000001
 13
-0.6
 23
0.5200000000000001
 33
1.159999999999999
  0
3DFACE
  5
5CC
  8
0
 10
-0.12
 20
-0.0536220472440942
 30
1.159999999999999
 11
-0.12
 21
-0.031574803149606
 31
1.1100000000000001
 12
-0.12
 22
0.4900000000000001
 32
1.1100000000000001
 13
-0.12
 23
0.5199999999999998
 33
1.159999999999999
  0
3DFACE
  5
5CD
  8
0
 10
-0.12
 20
0.5199999999999998
 30
1.159999999999999
 11
-0.12
 21
0.4900000000000001
 31
1.1100000000000001
 12
-0.12
 22
-0.031574803149606
 32
1.1100000000000001
 13
-0.12
 23
-0.0536220472440942
 33
1.159999999999999
  0
VIEWPORT
  5
2E
 67
     1
  8
0
 10
144.7270812988281
 20
101.2295806407928
 30
0.0
 40
391.13550988316581
 41
222.15178063964839
 68
     2
 69
     1
1001
ACAD
1000
MVIEW
1002
{
1070
    16
1010
0.0
1020
0.0
1030
0.0
1010
0.0
1020
0.0
1030
1.0
1040
0.0
1040
222.15178063964839
1040
144.7270812988281
1040
101.2295806407928
1040
50.0
1040
0.0
1040
0.0
1070
     0
1070
   100
1070
     1
1070
     1
1070
     0
1070
     0
1070
     0
1070
     0
1040
0.0
1040
0.0
1040
0.0
1040
10.0
1040
10.0
1040
10.0
1040
10.0
1070
     0
1002
{
1002
}
1002
}
  0
VIEWPORT
  5
30
 67
     1
  8
0
 10
139.22375631332389
 20
100.8062499761581
 30
0.0
 40
222.75801010131829
 41
161.289999961853
 68
     1
 69
     2
1001
ACAD
1000
MVIEW
1002
{
1070
    16
1010
0.0
1020
0.0
1030
0.0
1010
0.0
1020
0.0
1030
1.0
1040
0.0
1040
307.49010134148989
1040
210.0
1040
148.5
1040
50.0
1040
0.0
1040
0.0
1070
     0
1070
   100
1070
     1
1070
     3
1070
     0
1070
     1
1070
     0
1070
     0
1040
0.0
1040
0.0
1040
0.0
1040
10.0
1040
10.0
1040
10.0
1040
10.0
1070
     0
1002
{
1002
}
1002
}
  0
ENDSEC
  0
EOF
