  0
SECTION
  2
HEADER
  9
$ACADVER
  1
AC1009
  9
$INSBASE
 10
0.0
 20
0.0
 30
0.0
  9
$EXTMIN
 10
-14.76
 20
-44.109428600000008
 30
-14.289999999999999
  9
$EXTMAX
 10
14.76
 20
40.04999999999999
 30
34.70942860000001
  9
$LIMMIN
 10
0.0
 20
0.0
  9
$LIMMAX
 10
420.0
 20
297.0
  9
$ORTHOMODE
 70
     1
  9
$REGENMODE
 70
     1
  9
$FILLMODE
 70
     1
  9
$QTEXTMODE
 70
     0
  9
$MIRRTEXT
 70
     1
  9
$DRAGMODE
 70
     2
  9
$LTSCALE
 40
1.0
  9
$OSMODE
 70
   559
  9
$ATTMODE
 70
     1
  9
$TEXTSIZE
 40
2.5
  9
$TRACEWID
 40
1.0
  9
$TEXTSTYLE
  7
STANDARD
  9
$CLAYER
  8
WHEELS
  9
$CELTYPE
  6
BYLAYER
  9
$CECOLOR
 62
   256
  9
$DIMSCALE
 40
1.0
  9
$DIMASZ
 40
2.5
  9
$DIMEXO
 40
0.625
  9
$DIMDLI
 40
3.75
  9
$DIMRND
 40
0.0
  9
$DIMDLE
 40
0.0
  9
$DIMEXE
 40
1.25
  9
$DIMTP
 40
0.0
  9
$DIMTM
 40
0.0
  9
$DIMTXT
 40
2.5
  9
$DIMCEN
 40
2.5
  9
$DIMTSZ
 40
0.0
  9
$DIMTOL
 70
     0
  9
$DIMLIM
 70
     0
  9
$DIMTIH
 70
     0
  9
$DIMTOH
 70
     0
  9
$DIMSE1
 70
     0
  9
$DIMSE2
 70
     0
  9
$DIMTAD
 70
     1
  9
$DIMZIN
 70
     8
  9
$DIMBLK
  1

  9
$DIMASO
 70
     1
  9
$DIMSHO
 70
     1
  9
$DIMPOST
  1

  9
$DIMAPOST
  1

  9
$DIMALT
 70
     0
  9
$DIMALTD
 70
     3
  9
$DIMALTF
 40
0.03937007874016
  9
$DIMLFAC
 40
1.0
  9
$DIMTOFL
 70
     1
  9
$DIMTVP
 40
0.0
  9
$DIMTIX
 70
     0
  9
$DIMSOXD
 70
     0
  9
$DIMSAH
 70
     0
  9
$DIMBLK1
  1

  9
$DIMBLK2
  1

  9
$DIMSTYLE
  2
ISO-25
  9
$DIMCLRD
 70
     0
  9
$DIMCLRE
 70
     0
  9
$DIMCLRT
 70
     0
  9
$DIMTFAC
 40
1.0
  9
$DIMGAP
 40
0.625
  9
$LUNITS
 70
     2
  9
$LUPREC
 70
     4
  9
$SKETCHINC
 40
1.0
  9
$FILLETRAD
 40
10.0
  9
$AUNITS
 70
     0
  9
$AUPREC
 70
     0
  9
$MENU
  1
.
  9
$ELEVATION
 40
0.0
  9
$PELEVATION
 40
0.0
  9
$THICKNESS
 40
0.0
  9
$LIMCHECK
 70
     0
  9
$BLIPMODE
 70
     0
  9
$CHAMFERA
 40
10.0
  9
$CHAMFERB
 40
10.0
  9
$SKPOLY
 70
     0
  9
$TDCREATE
 40
2455008.772809166
  9
$TDUPDATE
 40
2455014.9339352199
  9
$TDINDWG
 40
0.334695463
  9
$TDUSRTIMER
 40
0.334695463
  9
$USRTIMER
 70
     1
  9
$ANGBASE
 50
0.0
  9
$ANGDIR
 70
     0
  9
$PDMODE
 70
     0
  9
$PDSIZE
 40
0.0
  9
$PLINEWID
 40
0.0
  9
$COORDS
 70
     1
  9
$SPLFRAME
 70
     0
  9
$SPLINETYPE
 70
     6
  9
$SPLINESEGS
 70
     8
  9
$ATTDIA
 70
     1
  9
$ATTREQ
 70
     1
  9
$HANDLING
 70
-16383
  9
$HANDSEED
  5
7CC
  9
$SURFTAB1
 70
     6
  9
$SURFTAB2
 70
     6
  9
$SURFTYPE
 70
     6
  9
$SURFU
 70
     6
  9
$SURFV
 70
     6
  9
$UCSNAME
  2

  9
$UCSORG
 10
0.0
 20
0.0
 30
0.0
  9
$UCSXDIR
 10
0.0
 20
-1.0
 30
0.0
  9
$UCSYDIR
 10
0.0
 20
0.0
 30
1.0
  9
$PUCSNAME
  2

  9
$PUCSORG
 10
0.0
 20
0.0
 30
0.0
  9
$PUCSXDIR
 10
1.0
 20
0.0
 30
0.0
  9
$PUCSYDIR
 10
0.0
 20
1.0
 30
0.0
  9
$USERI1
 70
     0
  9
$USERI2
 70
     0
  9
$USERI3
 70
     0
  9
$USERI4
 70
     0
  9
$USERI5
 70
     0
  9
$USERR1
 40
0.0
  9
$USERR2
 40
0.0
  9
$USERR3
 40
0.0
  9
$USERR4
 40
0.0
  9
$USERR5
 40
0.0
  9
$WORLDVIEW
 70
     1
  9
$SHADEDGE
 70
     3
  9
$SHADEDIF
 70
    70
  9
$TILEMODE
 70
     1
  9
$MAXACTVP
 70
    64
  9
$PLIMCHECK
 70
     0
  9
$PEXTMIN
 10
27.844751262664801
 20
20.161249995231621
 30
0.0
  9
$PEXTMAX
 10
250.60276136398309
 20
181.4512499570846
 30
0.0
  9
$PLIMMIN
 10
-3.757080078125
 20
-3.7570831775665279
  9
$PLIMMAX
 10
293.21124267578119
 20
206.21624445915219
  9
$UNITMODE
 70
     0
  9
$VISRETAIN
 70
     1
  9
$PLINEGEN
 70
     0
  9
$PSLTSCALE
 70
     1
  0
ENDSEC
  0
SECTION
  2
TABLES
  0
TABLE
  2
VPORT
 70
    34
  0
VPORT
  2
*ACTIVE
 70
     0
 10
0.0
 20
0.0
 11
1.0
 21
1.0
 12
-51.192797513484678
 22
38.930951635175397
 13
0.0
 23
0.0
 14
0.01
 24
0.01
 15
1.0
 25
1.0
 16
-1.0
 26
0.0
 36
0.0
 17
0.0
 27
0.0
 37
0.0
 40
87.418286982293168
 41
1.7606679035250461
 42
50.0
 43
0.0
 44
0.0
 50
0.0
 51
0.0
 71
     0
 72
   100
 73
     1
 74
     3
 75
     1
 76
     1
 77
     0
 78
     0
  0
ENDTAB
  0
TABLE
  2
LTYPE
 70
     1
  0
LTYPE
  2
CONTINUOUS
 70
     0
  3
Solid line
 72
    65
 73
     0
 40
0.0
  0
ENDTAB
  0
TABLE
  2
LAYER
 70
     6
  0
LAYER
  2
0
 70
     0
 62
     7
  6
CONTINUOUS
  0
LAYER
  2
DRAWING
 70
     0
 62
     9
  6
CONTINUOUS
  0
LAYER
  2
WING1
 70
     0
 62
     5
  6
CONTINUOUS
  0
LAYER
  2
PROPELLER
 70
     0
 62
     1
  6
CONTINUOUS
  0
LAYER
  2
WHEELS
 70
     0
 62
     2
  6
CONTINUOUS
  0
LAYER
  2
WING2
 70
     0
 62
     1
  6
CONTINUOUS
  0
ENDTAB
  0
TABLE
  2
STYLE
 70
     1
  0
STYLE
  2
STANDARD
 70
     0
 40
0.0
 41
1.0
 50
0.0
 71
     0
 42
2.5
  3
txt
  4

  0
ENDTAB
  0
TABLE
  2
VIEW
 70
     0
  0
ENDTAB
  0
TABLE
  2
UCS
 70
     0
  0
ENDTAB
  0
TABLE
  2
APPID
 70
     1
  0
APPID
  2
ACAD
 70
     0
  0
ENDTAB
  0
TABLE
  2
DIMSTYLE
 70
     1
  0
DIMSTYLE
  2
ISO-25
 70
     0
  3

  4

  5

  6

  7

 40
1.0
 41
2.5
 42
0.625
 43
3.75
 44
1.25
 45
0.0
 46
0.0
 47
0.0
 48
0.0
140
2.5
141
2.5
142
0.0
143
0.03937007874016
144
1.0
145
0.0
146
1.0
147
0.625
 71
     0
 72
     0
 73
     0
 74
     0
 75
     0
 76
     0
 77
     1
 78
     8
170
     0
171
     3
172
     1
173
     0
174
     0
175
     0
176
     0
177
     0
178
     0
  0
ENDTAB
  0
ENDSEC
  0
SECTION
  2
BLOCKS
  0
BLOCK
  8
0
  2
$MODEL_SPACE
 70
     0
 10
0.0
 20
0.0
 30
0.0
  3
$MODEL_SPACE
  1

  0
ENDBLK
  5
21
  8
0
  0
BLOCK
 67
     1
  8
0
  2
$PAPER_SPACE
 70
     0
 10
0.0
 20
0.0
 30
0.0
  3
$PAPER_SPACE
  1

  0
ENDBLK
  5
1D
 67
     1
  8
0
  0
ENDSEC
  0
SECTION
  2
ENTITIES
  0
3DFACE
  5
8E
  8
0
 10
0.0431750000000012
 20
9.7500000000000018
 30
0.0580249999999989
 11
-0.0431750000000012
 21
9.7500000000000018
 31
0.0580249999999989
 12
-0.110000000000003
 22
9.3000000000000025
 32
0.3699999999999992
 13
0.110000000000003
 23
9.3000000000000025
 33
0.3699999999999992
  0
3DFACE
  5
8F
  8
0
 10
0.110000000000003
 20
9.3000000000000025
 30
0.3699999999999992
 11
0.2100000000000008
 21
9.2999999999999972
 31
0.3499999999999961
 12
0.0824250000000003
 22
9.75
 32
0.0501749999999977
 13
0.0431750000000012
 23
9.7500000000000018
 33
0.0580249999999989
  0
3DFACE
  5
90
  8
0
 10
0.2100000000000008
 20
9.2999999999999972
 30
0.3499999999999961
 11
0.2900000000000027
 21
9.2999999999999972
 31
0.3299999999999965
 12
0.1138250000000011
 22
9.75
 32
0.0423249999999982
 13
0.0824250000000003
 23
9.75
 33
0.0501749999999977
  0
3DFACE
  5
92
  8
0
 10
0.2900000000000027
 20
9.2999999999999972
 30
0.3299999999999965
 11
0.360000000000003
 21
9.2999999999999972
 31
0.2899999999999974
 12
0.1413000000000012
 22
9.75
 32
0.0266249999999992
 13
0.1138250000000011
 23
9.75
 33
0.0423249999999982
  0
3DFACE
  5
93
  8
0
 10
0.360000000000003
 20
9.2999999999999972
 30
0.2899999999999974
 11
0.5199999999999996
 21
9.2999999999999972
 31
0.1299999999999972
 12
0.2040999999999999
 22
9.75
 32
-0.0361750000000019
 13
0.1413000000000012
 23
9.75
 33
0.0266249999999992
  0
3DFACE
  5
94
  8
0
 10
0.5199999999999996
 20
9.2999999999999972
 30
0.1299999999999972
 11
0.5600000000000023
 21
9.2999999999999972
 31
0.0399999999999974
 12
0.2198000000000009
 22
9.75
 32
-0.0715000000000021
 13
0.2040999999999999
 23
9.75
 33
-0.0361750000000019
  0
3DFACE
  5
95
  8
0
 10
0.5600000000000023
 20
9.2999999999999972
 30
0.0399999999999974
 11
0.5800000000000019
 21
9.2999999999999972
 31
-0.0500000000000025
 12
0.2276500000000007
 22
9.75
 32
-0.1068250000000006
 13
0.2198000000000009
 23
9.75
 33
-0.0715000000000021
  0
3DFACE
  5
96
  8
0
 10
0.5800000000000019
 20
9.2999999999999972
 30
-0.0500000000000025
 11
0.5800000000000019
 21
9.2999999999999972
 31
-0.1600000000000019
 12
0.2276500000000007
 22
9.75
 32
-0.1500000000000003
 13
0.2276500000000007
 23
9.75
 33
-0.1068250000000006
  0
3DFACE
  5
97
  8
0
 10
0.5800000000000019
 20
9.2999999999999972
 30
-0.1600000000000019
 11
0.5399999999999992
 21
9.2999999999999972
 31
-0.3100000000000005
 12
0.2119499999999996
 22
9.75
 32
-0.2088750000000008
 13
0.2276500000000007
 23
9.75
 33
-0.1500000000000003
  0
3DFACE
  5
98
  8
0
 10
0.5399999999999992
 20
9.2999999999999972
 30
-0.3100000000000005
 11
0.4700000000000025
 21
9.2999999999999972
 31
-0.4400000000000031
 12
0.1844750000000009
 22
9.75
 32
-0.2599000000000018
 13
0.2119499999999996
 23
9.75
 33
-0.2088750000000008
  0
3DFACE
  5
99
  8
0
 10
0.4700000000000025
 20
9.2999999999999972
 30
-0.4400000000000031
 11
0.4000000000000022
 21
9.2999999999999972
 31
-0.530000000000003
 12
0.1570000000000008
 22
9.75
 32
-0.2952250000000021
 13
0.1844750000000009
 23
9.75
 33
-0.2599000000000018
  0
3DFACE
  5
9A
  8
0
 10
0.4000000000000022
 20
9.2999999999999972
 30
-0.530000000000003
 11
0.2600000000000016
 21
9.2999999999999972
 31
-0.6300000000000007
 12
0.1020500000000006
 22
9.75
 32
-0.3344750000000012
 13
0.1570000000000008
 23
9.75
 33
-0.2952250000000021
  0
3DFACE
  5
9B
  8
0
 10
0.2600000000000016
 20
9.2999999999999972
 30
-0.6300000000000007
 11
0.110000000000003
 21
9.3000000000000025
 31
-0.700000000000001
 12
0.0431750000000012
 22
9.7500000000000018
 32
-0.3619500000000002
 13
0.1020500000000006
 23
9.75
 33
-0.3344750000000012
  0
3DFACE
  5
9C
  8
0
 10
0.110000000000003
 20
9.3000000000000025
 30
-0.700000000000001
 11
-0.110000000000003
 21
9.3000000000000025
 31
-0.700000000000001
 12
-0.0431750000000012
 22
9.7500000000000018
 32
-0.3619500000000002
 13
0.0431750000000012
 23
9.7500000000000018
 33
-0.3619500000000002
  0
3DFACE
  5
9D
  8
0
 10
1.1599999999999959
 20
4.8500000000000023
 30
-0.490000000000002
 11
1.0499999999999969
 21
4.8500000000000023
 31
-0.7400000000000019
 12
0.8499999999999978
 22
7.669999999999999
 32
-0.6000000000000015
 13
0.9199999999999982
 23
7.669999999999999
 33
-0.3500000000000014
  0
3DFACE
  5
9E
  8
0
 10
1.219999999999998
 20
4.8500000000000023
 30
-0.0500000000000025
 11
1.1599999999999959
 21
4.8500000000000023
 31
-0.490000000000002
 12
0.9199999999999982
 22
7.669999999999999
 32
-0.3500000000000014
 13
0.9699999999999953
 23
7.669999999999999
 33
-0.0900000000000017
  0
3DFACE
  5
9F
  8
0
 10
1.219999999999998
 20
4.8500000000000023
 30
0.389999999999997
 11
1.219999999999998
 21
4.8500000000000023
 31
-0.0500000000000025
 12
0.9699999999999953
 22
7.669999999999999
 32
-0.0900000000000017
 13
0.9699999999999953
 23
7.669999999999999
 33
0.1999999999999975
  0
3DFACE
  5
A0
  8
0
 10
1.1999999999999951
 20
4.8500000000000023
 30
0.5499999999999972
 11
1.219999999999998
 21
4.8500000000000023
 31
0.389999999999997
 12
0.9699999999999953
 22
7.669999999999999
 32
0.1999999999999975
 13
0.8599999999999958
 23
7.669999999999999
 33
0.6899999999999978
  0
3DFACE
  5
A1
  8
0
 10
1.129999999999995
 20
4.8500000000000023
 30
0.7899999999999974
 11
1.1999999999999951
 21
4.8500000000000023
 31
0.5499999999999972
 12
0.8599999999999958
 22
7.669999999999999
 32
0.6899999999999978
 13
0.7499999999999965
 23
7.6700000000000017
 33
0.9299999999999979
  0
3DFACE
  5
A2
  8
0
 10
0.9899999999999984
 20
4.8500000000000023
 30
1.0299999999999969
 11
1.129999999999995
 21
4.8500000000000023
 31
0.7899999999999974
 12
0.7499999999999965
 22
7.6700000000000017
 32
0.9299999999999979
 13
0.629999999999999
 23
7.6700000000000017
 33
1.0499999999999969
  0
3DFACE
  5
A3
  8
0
 10
0.7999999999999972
 20
4.8500000000000023
 30
1.229999999999996
 11
0.9899999999999984
 21
4.8500000000000023
 31
1.0299999999999969
 12
0.629999999999999
 22
7.6700000000000017
 32
1.0499999999999969
 13
0.4999999999999965
 23
7.6700000000000017
 33
1.139999999999997
  0
3DFACE
  5
A4
  8
0
 10
0.4599999999999973
 20
4.8500000000000023
 30
1.4099999999999959
 11
0.7999999999999972
 21
4.8500000000000023
 31
1.229999999999996
 12
0.4999999999999965
 22
7.6700000000000017
 32
1.139999999999997
 13
0.3299999999999947
 23
7.6700000000000017
 33
1.2099999999999971
  0
3DFACE
  5
A5
  8
0
 10
0.1699999999999981
 20
4.8500000000000023
 30
1.479999999999996
 11
0.4599999999999973
 21
4.8500000000000023
 31
1.4099999999999959
 12
0.3299999999999947
 22
7.6700000000000017
 32
1.2099999999999971
 13
0.1699999999999981
 23
7.6700000000000017
 33
1.229999999999996
  0
3DFACE
  5
A6
  8
0
 10
0.1699999999999981
 20
7.6700000000000017
 30
1.229999999999996
 11
-0.0000000000000036
 21
7.6700000000000017
 31
1.229999999999996
 12
-0.0000000000000036
 22
4.8500000000000023
 32
1.479999999999996
 13
0.1699999999999981
 23
4.8500000000000023
 33
1.479999999999996
  0
3DFACE
  5
A7
  8
0
 10
1.0499999999999969
 20
4.8500000000000023
 30
-0.7400000000000019
 11
0.8199999999999967
 21
4.8500000000000023
 31
-0.9900000000000018
 12
0.6899999999999942
 22
7.6700000000000017
 32
-0.8500000000000012
 13
0.8499999999999978
 23
7.669999999999999
 33
-0.6000000000000015
  0
3DFACE
  5
A8
  8
0
 10
0.8199999999999967
 20
4.8500000000000023
 30
-0.9900000000000018
 11
0.4799999999999969
 21
4.8500000000000023
 31
-1.170000000000001
 12
0.4899999999999985
 22
7.6700000000000017
 32
-1.0000000000000011
 13
0.6899999999999942
 23
7.6700000000000017
 33
-0.8500000000000012
  0
3DFACE
  5
A9
  8
0
 10
0.4799999999999969
 20
4.8500000000000023
 30
-1.170000000000001
 11
0.2299999999999969
 21
4.8500000000000023
 31
-1.2500000000000031
 12
0.149999999999995
 22
7.6700000000000017
 32
-1.1200000000000001
 13
0.4899999999999985
 23
7.6700000000000017
 33
-1.0000000000000011
  0
3DFACE
  5
AA
  8
0
 10
0.2299999999999969
 20
4.8500000000000023
 30
-1.2500000000000031
 11
-0.0000000000000036
 21
4.8500000000000023
 31
-1.2500000000000031
 12
-0.0000000000000036
 22
7.6700000000000017
 32
-1.1300000000000019
 13
0.149999999999995
 23
7.6700000000000017
 33
-1.1200000000000001
  0
3DFACE
  5
AB
  8
0
 10
0.9199999999999982
 20
7.669999999999999
 30
-0.3500000000000014
 11
0.8499999999999978
 21
7.669999999999999
 31
-0.6000000000000015
 12
0.6299999999999955
 22
8.8000000000000025
 32
-0.5300000000000013
 13
0.7099999999999973
 23
8.8000000000000025
 33
-0.3500000000000014
  0
3DFACE
  5
AC
  8
0
 10
0.9699999999999953
 20
7.669999999999999
 30
-0.0900000000000017
 11
0.9199999999999982
 21
7.669999999999999
 31
-0.3500000000000014
 12
0.7099999999999973
 22
8.8000000000000025
 32
-0.3500000000000014
 13
0.7699999999999961
 23
8.7999999999999972
 33
-0.1000000000000014
  0
3DFACE
  5
B0
  8
0
 10
0.9699999999999953
 20
7.669999999999999
 30
0.1999999999999975
 11
0.9699999999999953
 21
7.669999999999999
 31
-0.0900000000000017
 12
0.7699999999999961
 22
8.7999999999999972
 32
-0.1000000000000014
 13
0.7699999999999961
 23
8.7999999999999972
 33
0.0299999999999976
  0
3DFACE
  5
B5
  8
0
 10
0.4899999999999985
 20
7.6700000000000017
 30
-1.0000000000000011
 11
0.149999999999995
 21
7.6700000000000017
 31
-1.1200000000000001
 12
0.1899999999999977
 22
8.8000000000000025
 32
-0.8900000000000004
 13
0.259999999999998
 23
8.8000000000000025
 33
-0.8599999999999992
  0
3DFACE
  5
B6
  8
0
 10
0.149999999999995
 20
7.6700000000000017
 30
-1.1200000000000001
 11
-0.0000000000000036
 21
7.6700000000000017
 31
-1.1300000000000019
 12
-0.0000000000000001
 22
8.8000000000000025
 32
-0.9000000000000019
 13
0.1899999999999977
 23
8.8000000000000025
 33
-0.8900000000000004
  0
3DFACE
  5
B7
  8
0
 10
0.8499999999999978
 20
7.669999999999999
 30
-0.6000000000000015
 11
0.6899999999999942
 21
7.6700000000000017
 31
-0.8500000000000012
 12
0.4699999999999989
 22
8.8000000000000025
 32
-0.7200000000000024
 13
0.6299999999999955
 23
8.8000000000000025
 33
-0.5300000000000013
  0
3DFACE
  5
B8
  8
0
 10
0.6899999999999942
 20
7.6700000000000017
 30
-0.8500000000000012
 11
0.4899999999999985
 21
7.6700000000000017
 31
-1.0000000000000011
 12
0.259999999999998
 22
8.8000000000000025
 32
-0.8599999999999992
 13
0.4699999999999989
 23
8.8000000000000025
 33
-0.7200000000000024
  0
3DFACE
  5
C8
  8
0
 10
0.1699999999999981
 20
4.8500000000000023
 30
1.479999999999996
 11
-0.0000000000000036
 21
4.8500000000000023
 31
1.479999999999996
 12
-0.0000000000000036
 22
3.8400000000000021
 32
1.4799999999999951
 13
0.1699999999999981
 23
3.8400000000000021
 33
1.4599999999999951
  0
3DFACE
  5
C9
  8
0
 10
0.1699999999999981
 20
3.8400000000000021
 30
1.4599999999999951
 11
0.4599999999999973
 21
3.8400000000000021
 31
1.379999999999997
 12
0.4599999999999973
 22
4.8500000000000023
 32
1.4099999999999959
 13
0.1699999999999981
 23
4.8500000000000023
 33
1.479999999999996
  0
3DFACE
  5
CA
  8
0
 10
0.4599999999999973
 20
3.8400000000000021
 30
1.379999999999997
 11
0.7299999999999969
 21
3.8400000000000021
 31
1.249999999999998
 12
0.7999999999999972
 22
4.8500000000000023
 32
1.229999999999996
 13
0.4599999999999973
 23
4.8500000000000023
 33
1.4099999999999959
  0
3DFACE
  5
CB
  8
0
 10
0.7299999999999969
 20
3.8400000000000021
 30
1.249999999999998
 11
0.9899999999999984
 21
3.8400000000000021
 31
0.9899999999999966
 12
0.9899999999999984
 22
4.8500000000000023
 32
1.0299999999999969
 13
0.7999999999999972
 23
4.8500000000000023
 33
1.229999999999996
  0
3DFACE
  5
CC
  8
0
 10
0.9899999999999984
 20
3.8400000000000021
 30
0.9899999999999966
 11
1.109999999999995
 21
3.8400000000000021
 31
0.7899999999999939
 12
1.129999999999995
 22
4.8500000000000023
 32
0.7899999999999974
 13
0.9899999999999984
 23
4.8500000000000023
 33
1.0299999999999969
  0
3DFACE
  5
CD
  8
0
 10
1.109999999999995
 20
3.8400000000000021
 30
0.7899999999999939
 11
1.1999999999999991
 21
3.8400000000000021
 31
0.5199999999999978
 12
1.1999999999999951
 22
4.8500000000000023
 32
0.5499999999999972
 13
1.129999999999995
 23
4.8500000000000023
 33
0.7899999999999974
  0
3DFACE
  5
CE
  8
0
 10
1.1999999999999991
 20
3.8400000000000021
 30
0.5199999999999978
 11
1.239999999999994
 21
3.8400000000000021
 31
0.2899999999999974
 12
1.219999999999998
 22
4.8500000000000023
 32
0.389999999999997
 13
1.1999999999999951
 23
4.8500000000000023
 33
0.5499999999999972
  0
3DFACE
  5
CF
  8
0
 10
1.239999999999994
 20
3.8400000000000021
 30
0.2899999999999974
 11
1.239999999999994
 21
3.8400000000000021
 31
-0.0500000000000025
 12
1.219999999999998
 22
4.8500000000000023
 32
-0.0500000000000025
 13
1.219999999999998
 23
4.8500000000000023
 33
0.389999999999997
  0
3DFACE
  5
D0
  8
0
 10
1.239999999999994
 20
3.8400000000000021
 30
-0.0500000000000025
 11
1.1599999999999959
 21
3.8400000000000021
 31
-0.4900000000000038
 12
1.1599999999999959
 22
4.8500000000000023
 32
-0.490000000000002
 13
1.219999999999998
 23
4.8500000000000023
 33
-0.0500000000000025
  0
3DFACE
  5
D1
  8
0
 10
1.1599999999999959
 20
3.8400000000000021
 30
-0.4900000000000038
 11
1.0499999999999969
 21
3.8400000000000021
 31
-0.7400000000000037
 12
1.0499999999999969
 22
4.8500000000000023
 32
-0.7400000000000019
 13
1.1599999999999959
 23
4.8500000000000023
 33
-0.490000000000002
  0
3DFACE
  5
D2
  8
0
 10
1.0499999999999969
 20
3.8400000000000021
 30
-0.7400000000000037
 11
0.8199999999999967
 21
3.8400000000000021
 31
-0.9900000000000035
 12
0.8199999999999967
 22
4.8500000000000023
 32
-0.9900000000000018
 13
1.0499999999999969
 23
4.8500000000000023
 33
-0.7400000000000019
  0
3DFACE
  5
D3
  8
0
 10
0.8199999999999967
 20
3.8400000000000021
 30
-0.9900000000000035
 11
0.4799999999999969
 21
3.8400000000000021
 31
-1.170000000000003
 12
0.4799999999999969
 22
4.8500000000000023
 32
-1.170000000000001
 13
0.8199999999999967
 23
4.8500000000000023
 33
-0.9900000000000018
  0
3DFACE
  5
D4
  8
0
 10
0.4799999999999969
 20
3.8400000000000021
 30
-1.170000000000003
 11
0.2299999999999969
 21
3.8400000000000021
 31
-1.2500000000000051
 12
0.2299999999999969
 22
4.8500000000000023
 32
-1.2500000000000031
 13
0.4799999999999969
 23
4.8500000000000023
 33
-1.170000000000001
  0
3DFACE
  5
D5
  8
0
 10
0.2299999999999969
 20
3.8400000000000021
 30
-1.2500000000000051
 11
-0.0000000000000036
 21
3.8400000000000021
 31
-1.2500000000000051
 12
-0.0000000000000036
 22
4.8500000000000023
 32
-1.2500000000000031
 13
0.2299999999999969
 23
4.8500000000000023
 33
-1.2500000000000031
  0
3DFACE
  5
D6
  8
0
 10
0.2600000000000016
 20
-1.6799999999999959
 30
1.499999999999998
 11
-0.0000000000000036
 21
-1.6799999999999959
 31
1.5199999999999969
 12
-0.0000000000000036
 22
-4.5999999999999961
 32
1.3799999999999999
 13
0.2600000000000016
 23
-4.5999999999999961
 33
1.3100000000000001
  0
3DFACE
  5
D7
  8
0
 10
0.2600000000000016
 20
-4.5999999999999961
 30
1.3100000000000001
 11
0.389999999999997
 21
-4.5999999999999961
 31
1.2799999999999989
 12
0.4899999999999985
 22
-1.6799999999999959
 32
1.4299999999999971
 13
0.2600000000000016
 23
-1.6799999999999959
 33
1.499999999999998
  0
3DFACE
  5
D8
  8
0
 10
0.389999999999997
 20
-4.5999999999999961
 30
1.2799999999999989
 11
0.4899999999999914
 21
-4.5999999999999961
 31
1.24
 12
0.6999999999999922
 22
-1.6799999999999959
 32
1.3299999999999981
 13
0.4899999999999985
 23
-1.6799999999999959
 33
1.4299999999999971
  0
3DFACE
  5
D9
  8
0
 10
0.4899999999999914
 20
-4.5999999999999961
 30
1.24
 11
0.6199999999999939
 21
-4.5999999999999961
 31
1.1299999999999999
 12
0.9599999999999901
 22
-1.6799999999999959
 32
1.0599999999999981
 13
0.6999999999999922
 23
-1.6799999999999959
 33
1.3299999999999981
  0
3DFACE
  5
DA
  8
0
 10
0.6199999999999939
 20
-4.5999999999999961
 30
1.1299999999999999
 11
0.7199999999999953
 21
-4.5999999999999961
 31
0.9700000000000006
 12
1.0899999999999921
 22
-1.6799999999999959
 32
0.7899999999999939
 13
0.9599999999999901
 23
-1.6799999999999959
 33
1.0599999999999981
  0
3DFACE
  5
DB
  8
0
 10
0.7199999999999953
 20
-4.5999999999999961
 30
0.9700000000000006
 11
0.8099999999999916
 21
-4.5999999999999961
 31
0.6799999999999998
 12
1.169999999999991
 22
-1.6799999999999959
 32
0.5199999999999978
 13
1.0899999999999921
 23
-1.6799999999999959
 33
0.7899999999999939
  0
3DFACE
  5
DC
  8
0
 10
0.8099999999999916
 20
-4.5999999999999961
 30
0.6799999999999998
 11
0.889999999999997
 21
-4.5999999999999961
 31
0.1899999999999995
 12
1.2199999999999951
 22
-1.6799999999999959
 32
0.2299999999999986
 13
1.169999999999991
 23
-1.6799999999999959
 33
0.5199999999999978
  0
3DFACE
  5
DD
  8
0
 10
0.889999999999997
 20
-4.5999999999999961
 30
-0.0600000000000005
 11
0.8399999999999928
 21
-4.5999999999999961
 31
-0.1999999999999993
 12
1.149999999999995
 22
-1.6799999999999959
 32
-0.4600000000000009
 13
1.2199999999999951
 23
-1.6799999999999959
 33
-0.0600000000000023
  0
3DFACE
  5
DE
  8
0
 10
0.889999999999997
 20
-4.5999999999999961
 30
0.1899999999999995
 11
0.889999999999997
 21
-4.5999999999999961
 31
-0.0600000000000005
 12
1.2199999999999951
 22
-1.6799999999999959
 32
-0.0600000000000023
 13
1.2199999999999951
 23
-1.6799999999999959
 33
0.2299999999999986
  0
3DFACE
  5
DF
  8
0
 10
0.5899999999999928
 20
-4.5999999999999961
 30
-0.5299999999999994
 11
0.3499999999999979
 21
-4.5999999999999961
 31
-0.629999999999999
 12
0.4799999999999934
 22
-1.6799999999999959
 32
-0.9700000000000022
 13
0.8399999999999928
 23
-1.6799999999999959
 33
-0.8300000000000016
  0
3DFACE
  5
E0
  8
0
 10
0.3499999999999979
 20
-4.5999999999999961
 30
-0.629999999999999
 11
0.1799999999999962
 21
-4.5999999999999961
 31
-0.6600000000000001
 12
0.1799999999999962
 22
-1.6799999999999959
 32
-1.0300000000000009
 13
0.4799999999999934
 23
-1.6799999999999959
 33
-0.9700000000000022
  0
3DFACE
  5
E1
  8
0
 10
0.1799999999999962
 20
-4.5999999999999961
 30
-0.6600000000000001
 11
-0.0000000000000036
 21
-4.5999999999999961
 31
-0.6600000000000001
 12
-0.0000000000000036
 22
-1.6799999999999959
 32
-1.0300000000000009
 13
0.1799999999999962
 23
-1.6799999999999959
 33
-1.0300000000000009
  0
3DFACE
  5
E2
  8
0
 10
0.7699999999999925
 20
-4.5999999999999961
 30
-0.3499999999999996
 11
0.5899999999999928
 21
-4.5999999999999961
 31
-0.5299999999999994
 12
0.8399999999999928
 22
-1.6799999999999959
 32
-0.8300000000000016
 13
1.0699999999999961
 23
-1.6799999999999959
 33
-0.6000000000000015
  0
3DFACE
  5
E3
  8
0
 10
0.8399999999999928
 20
-4.5999999999999961
 30
-0.1999999999999993
 11
0.7699999999999925
 21
-4.5999999999999961
 31
-0.3499999999999996
 12
1.0699999999999961
 22
-1.6799999999999959
 32
-0.6000000000000015
 13
1.149999999999995
 23
-1.6799999999999959
 33
-0.4600000000000009
  0
3DFACE
  5
E4
  8
0
 10
1.2899999999999989
 20
0.9000000000000039
 30
0.2999999999999989
 11
1.2899999999999989
 21
0.9000000000000039
 31
-0.8500000000000012
 12
1.239999999999994
 22
3.8400000000000021
 32
-0.0500000000000025
 13
1.239999999999994
 23
3.8400000000000021
 33
0.2899999999999974
  0
3DFACE
  5
E5
  8
0
 10
1.249999999999996
 20
0.9000000000000039
 30
0.5299999999999994
 11
1.2899999999999989
 21
0.9000000000000039
 31
0.2999999999999989
 12
1.239999999999994
 22
3.8400000000000021
 32
0.2899999999999974
 13
1.1999999999999991
 23
3.8400000000000021
 33
0.5199999999999978
  0
3DFACE
  5
E6
  8
0
 10
1.1699999999999979
 20
0.9000000000000039
 30
0.7999999999999954
 11
1.249999999999996
 21
0.9000000000000039
 31
0.5299999999999994
 12
1.1999999999999991
 22
3.8400000000000021
 32
0.5199999999999978
 13
1.109999999999995
 23
3.8400000000000021
 33
0.7899999999999939
  0
3DFACE
  5
E7
  8
0
 10
1.0499999999999969
 20
0.9000000000000039
 30
0.9999999999999982
 11
1.1699999999999979
 21
0.9000000000000039
 31
0.7999999999999954
 12
1.109999999999995
 22
3.8400000000000021
 32
0.7899999999999939
 13
0.9899999999999984
 23
3.8400000000000021
 33
0.9899999999999966
  0
3DFACE
  5
E8
  8
0
 10
0.759999999999998
 20
0.9000000000000039
 30
1.2599999999999989
 11
1.0499999999999969
 21
0.9000000000000039
 31
0.9999999999999982
 12
0.9899999999999984
 22
3.8400000000000021
 32
0.9899999999999966
 13
0.7299999999999969
 23
3.8400000000000021
 33
1.249999999999998
  0
3DFACE
  5
E9
  8
0
 10
0.4899999999999985
 20
0.9000000000000039
 30
1.3899999999999979
 11
0.759999999999998
 21
0.9000000000000039
 31
1.2599999999999989
 12
0.7299999999999969
 22
3.8400000000000021
 32
1.249999999999998
 13
0.4599999999999973
 23
3.8400000000000021
 33
1.379999999999997
  0
3DFACE
  5
EA
  8
0
 10
0.259999999999998
 20
0.9000000000000039
 30
1.4699999999999971
 11
0.4899999999999985
 21
0.9000000000000039
 31
1.3899999999999979
 12
0.4599999999999973
 22
3.8400000000000021
 32
1.379999999999997
 13
0.1699999999999981
 23
3.8400000000000021
 33
1.4599999999999951
  0
3DFACE
  5
EB
  8
0
 10
0.1699999999999981
 20
3.8400000000000021
 30
1.4599999999999951
 11
-0.0000000000000036
 21
3.8400000000000021
 31
1.4799999999999951
 12
-0.0000000000000072
 22
0.9000000000000039
 32
1.489999999999996
 13
0.259999999999998
 23
0.9000000000000039
 33
1.4699999999999971
  0
3DFACE
  5
EC
  8
0
 10
1.159999999999993
 20
0.9000000000000039
 30
-1.04
 11
1.0499999999999929
 21
0.9000000000000039
 31
-1.1200000000000001
 12
1.0499999999999969
 22
3.8400000000000021
 32
-0.7400000000000037
 13
1.1599999999999959
 23
3.8400000000000021
 33
-0.4900000000000038
  0
3DFACE
  5
ED
  8
0
 10
0.4799999999999934
 20
0.9000000000000039
 30
-1.21
 11
0.2299999999999933
 21
0.9000000000000039
 31
-1.2400000000000031
 12
0.2299999999999969
 22
3.8400000000000021
 32
-1.2500000000000051
 13
0.4799999999999969
 23
3.8400000000000021
 33
-1.170000000000003
  0
3DFACE
  5
EE
  8
0
 10
0.2299999999999933
 20
0.9000000000000039
 30
-1.2400000000000031
 11
-0.0000000000000072
 21
0.9000000000000039
 31
-1.2400000000000031
 12
-0.0000000000000036
 22
3.8400000000000021
 32
-1.2500000000000051
 13
0.2299999999999969
 23
3.8400000000000021
 33
-1.2500000000000051
  0
3DFACE
  5
EF
  8
0
 10
1.0499999999999929
 20
0.9000000000000039
 30
-1.1200000000000001
 11
0.8199999999999931
 21
0.9000000000000039
 31
-1.1599999999999999
 12
0.8199999999999967
 22
3.8400000000000021
 32
-0.9900000000000035
 13
1.0499999999999969
 23
3.8400000000000021
 33
-0.7400000000000037
  0
3DFACE
  5
F0
  8
0
 10
0.8199999999999931
 20
0.9000000000000039
 30
-1.1599999999999999
 11
0.4799999999999934
 21
0.9000000000000039
 31
-1.21
 12
0.4799999999999969
 22
3.8400000000000021
 32
-1.170000000000003
 13
0.8199999999999967
 23
3.8400000000000021
 33
-0.9900000000000035
  0
3DFACE
  5
F1
  8
0
 10
1.2899999999999989
 20
0.9000000000000039
 30
-0.8500000000000012
 11
1.159999999999993
 21
0.9000000000000039
 31
-1.04
 12
1.1599999999999959
 22
3.8400000000000021
 32
-0.4900000000000038
 13
1.239999999999994
 23
3.8400000000000021
 33
-0.0500000000000025
  0
3DFACE
  5
F6
  8
0
 10
1.0699999999999961
 20
-1.6799999999999959
 30
-0.6000000000000015
 11
0.8399999999999928
 21
-1.6799999999999959
 31
-0.8300000000000016
 12
0.8199999999999931
 22
0.9000000000000039
 32
-1.1599999999999999
 13
1.0499999999999929
 23
0.9000000000000039
 33
-1.1200000000000001
  0
3DFACE
  5
F7
  8
0
 10
0.8399999999999928
 20
-1.6799999999999959
 30
-0.8300000000000016
 11
0.4799999999999934
 21
-1.6799999999999959
 31
-0.9700000000000022
 12
0.4799999999999934
 22
0.9000000000000039
 32
-1.21
 13
0.8199999999999931
 23
0.9000000000000039
 33
-1.1599999999999999
  0
3DFACE
  5
F8
  8
0
 10
0.4799999999999934
 20
-1.6799999999999959
 30
-0.9700000000000022
 11
0.1799999999999962
 21
-1.6799999999999959
 31
-1.0300000000000009
 12
0.2299999999999933
 22
0.9000000000000039
 32
-1.2400000000000031
 13
0.4799999999999934
 23
0.9000000000000039
 33
-1.21
  0
3DFACE
  5
F9
  8
0
 10
0.1799999999999962
 20
-1.6799999999999959
 30
-1.0300000000000009
 11
-0.0000000000000036
 21
-1.6799999999999959
 31
-1.0300000000000009
 12
-0.0000000000000072
 22
0.9000000000000039
 32
-1.2400000000000031
 13
0.2299999999999933
 23
0.9000000000000039
 33
-1.2400000000000031
  0
3DFACE
  5
FA
  8
0
 10
1.0899999999999921
 20
-1.6799999999999959
 30
0.7899999999999939
 11
1.169999999999991
 21
-1.6799999999999959
 31
0.5199999999999978
 12
1.249999999999996
 22
0.9000000000000039
 32
0.5299999999999994
 13
1.1699999999999979
 23
0.9000000000000039
 33
0.7999999999999954
  0
3DFACE
  5
FB
  8
0
 10
1.169999999999991
 20
-1.6799999999999959
 30
0.5199999999999978
 11
1.2199999999999951
 21
-1.6799999999999959
 31
0.2299999999999986
 12
1.2899999999999989
 22
0.9000000000000039
 32
0.2999999999999989
 13
1.249999999999996
 23
0.9000000000000039
 33
0.5299999999999994
  0
3DFACE
  5
FC
  8
0
 10
1.149999999999995
 20
-1.6799999999999959
 30
-0.4600000000000009
 11
1.0699999999999961
 21
-1.6799999999999959
 31
-0.6000000000000015
 12
1.0499999999999929
 22
0.9000000000000039
 32
-1.1200000000000001
 13
1.159999999999993
 23
0.9000000000000039
 33
-1.04
  0
3DFACE
  5
FD
  8
0
 10
1.2199999999999951
 20
-1.6799999999999959
 30
-0.0600000000000023
 11
1.149999999999995
 21
-1.6799999999999959
 31
-0.4600000000000009
 12
1.159999999999993
 22
0.9000000000000039
 32
-1.04
 13
1.2899999999999989
 23
0.9000000000000039
 33
-0.8500000000000012
  0
3DFACE
  5
FE
  8
0
 10
1.2199999999999951
 20
-1.6799999999999959
 30
0.2299999999999986
 11
1.2199999999999951
 21
-1.6799999999999959
 31
-0.0600000000000023
 12
1.2899999999999989
 22
0.9000000000000039
 32
-0.8500000000000012
 13
1.2899999999999989
 23
0.9000000000000039
 33
0.2999999999999989
  0
3DFACE
  5
FF
  8
0
 10
0.9599999999999901
 20
-1.6799999999999959
 30
1.0599999999999981
 11
1.0899999999999921
 21
-1.6799999999999959
 31
0.7899999999999939
 12
1.1699999999999979
 22
0.9000000000000039
 32
0.7999999999999954
 13
1.0499999999999969
 23
0.9000000000000039
 33
0.9999999999999982
  0
3DFACE
  5
100
  8
0
 10
0.6999999999999922
 20
-1.6799999999999959
 30
1.3299999999999981
 11
0.9599999999999901
 21
-1.6799999999999959
 31
1.0599999999999981
 12
1.0499999999999969
 22
0.9000000000000039
 32
0.9999999999999982
 13
0.759999999999998
 23
0.9000000000000039
 33
1.2599999999999989
  0
3DFACE
  5
101
  8
0
 10
0.4899999999999985
 20
-1.6799999999999959
 30
1.4299999999999971
 11
0.6999999999999922
 21
-1.6799999999999959
 31
1.3299999999999981
 12
0.759999999999998
 22
0.9000000000000039
 32
1.2599999999999989
 13
0.4899999999999985
 23
0.9000000000000039
 33
1.3899999999999979
  0
3DFACE
  5
102
  8
0
 10
0.2600000000000016
 20
-1.6799999999999959
 30
1.499999999999998
 11
0.4899999999999985
 21
-1.6799999999999959
 31
1.4299999999999971
 12
0.4899999999999985
 22
0.9000000000000039
 32
1.3899999999999979
 13
0.259999999999998
 23
0.9000000000000039
 33
1.4699999999999971
  0
3DFACE
  5
103
  8
0
 10
0.259999999999998
 20
0.9000000000000039
 30
1.4699999999999971
 11
-0.0000000000000072
 21
0.9000000000000039
 31
1.489999999999996
 12
-0.0000000000000036
 22
-1.6799999999999959
 32
1.5199999999999969
 13
0.2600000000000016
 23
-1.6799999999999959
 33
1.499999999999998
  0
3DFACE
  5
105
  8
0
 10
0.0
 20
-9.4500000000000011
 30
0.4499999999999993
 11
0.0
 21
-9.4500000000000011
 31
0.4299999999999998
 12
0.5899999999999928
 22
-4.5999999999999961
 32
-0.5299999999999994
 13
0.7699999999999925
 23
-4.5999999999999961
 33
-0.3499999999999996
  0
3DFACE
  5
106
  8
0
 10
0.0
 20
-9.4500000000000011
 30
0.4299999999999998
 11
0.0
 21
-9.4500000000000011
 31
0.3999999999999986
 12
0.3499999999999979
 22
-4.5999999999999961
 32
-0.629999999999999
 13
0.5899999999999928
 23
-4.5999999999999961
 33
-0.5299999999999994
  0
3DFACE
  5
107
  8
0
 10
-0.0000000000000036
 20
-9.4500000000000011
 30
0.3899999999999988
 11
-0.0000000000000036
 21
-9.4500000000000011
 31
0.3899999999999988
 12
-0.0000000000000035
 22
-4.5999999999999961
 32
-0.6600000000000001
 13
0.1799999999999962
 23
-4.5999999999999961
 33
-0.6600000000000001
  0
3DFACE
  5
108
  8
0
 10
0.0
 20
-9.4500000000000011
 30
0.3999999999999986
 11
-0.0000000000000036
 21
-9.4500000000000011
 31
0.3899999999999988
 12
0.1799999999999962
 22
-4.5999999999999961
 32
-0.6600000000000001
 13
0.3499999999999979
 23
-4.5999999999999961
 33
-0.629999999999999
  0
3DFACE
  5
109
  8
0
 10
-0.0000000000000037
 20
-9.4500000000000011
 30
0.5800000000000001
 11
-0.0000000000000037
 21
-9.4500000000000011
 31
0.5699999999999985
 12
0.8099999999999916
 22
-4.5999999999999961
 32
0.6799999999999998
 13
0.7199999999999953
 23
-4.5999999999999961
 33
0.9700000000000006
  0
3DFACE
  5
10A
  8
0
 10
-0.0000000000000037
 20
-9.4500000000000011
 30
0.5699999999999985
 11
0.0
 21
-9.4500000000000011
 31
0.5299999999999994
 12
0.889999999999997
 22
-4.5999999999999961
 32
0.1899999999999995
 13
0.8099999999999916
 23
-4.5999999999999961
 33
0.6799999999999998
  0
3DFACE
  5
10B
  8
0
 10
0.0
 20
-9.4500000000000011
 30
0.4799999999999987
 11
0.0
 21
-9.4500000000000011
 31
0.4499999999999993
 12
0.7699999999999925
 22
-4.5999999999999961
 32
-0.3499999999999996
 13
0.8399999999999928
 23
-4.5999999999999961
 33
-0.1999999999999993
  0
3DFACE
  5
10C
  8
0
 10
0.0
 20
-9.4500000000000011
 30
0.5299999999999994
 11
0.0
 21
-9.4500000000000011
 31
0.5099999999999998
 12
0.889999999999997
 22
-4.5999999999999961
 32
-0.0600000000000005
 13
0.889999999999997
 23
-4.5999999999999961
 33
0.1899999999999995
  0
3DFACE
  5
10D
  8
0
 10
0.0
 20
-9.4500000000000011
 30
0.5099999999999998
 11
0.0
 21
-9.4500000000000011
 31
0.4799999999999987
 12
0.8399999999999928
 22
-4.5999999999999961
 32
-0.1999999999999993
 13
0.889999999999997
 23
-4.5999999999999961
 33
-0.0600000000000005
  0
3DFACE
  5
10E
  8
0
 10
-0.0000000000000036
 20
-9.4500000000000011
 30
0.6399999999999988
 11
0.0
 21
-9.4500000000000011
 31
0.629999999999999
 12
0.389999999999997
 22
-4.5999999999999961
 32
1.2799999999999989
 13
0.2600000000000016
 23
-4.5999999999999961
 33
1.3100000000000001
  0
3DFACE
  5
10F
  8
0
 10
-0.0000000000000036
 20
-9.4500000000000011
 30
0.6199999999999993
 11
-0.0000000000000037
 21
-9.4500000000000011
 31
0.5999999999999996
 12
0.6199999999999939
 22
-4.5999999999999961
 32
1.1299999999999999
 13
0.4899999999999914
 23
-4.5999999999999961
 33
1.24
  0
3DFACE
  5
110
  8
0
 10
0.0
 20
-9.4500000000000011
 30
0.629999999999999
 11
-0.0000000000000036
 21
-9.4500000000000011
 31
0.6199999999999993
 12
0.4899999999999914
 22
-4.5999999999999961
 32
1.24
 13
0.389999999999997
 23
-4.5999999999999961
 33
1.2799999999999989
  0
3DFACE
  5
111
  8
0
 10
-0.0000000000000037
 20
-9.4500000000000011
 30
0.5999999999999996
 11
-0.0000000000000037
 21
-9.4500000000000011
 31
0.5800000000000001
 12
0.7199999999999953
 22
-4.5999999999999961
 32
0.9700000000000006
 13
0.6199999999999939
 23
-4.5999999999999961
 33
1.1299999999999999
  0
3DFACE
  5
112
  8
0
 10
0.2600000000000016
 20
-4.5999999999999961
 30
1.3100000000000001
 11
-0.0000000000000035
 21
-4.5999999999999961
 31
1.3799999999999999
 12
-0.0000000000000036
 22
-9.4500000000000011
 32
0.6499999999999986
 13
-0.0000000000000036
 23
-9.4500000000000011
 33
0.6399999999999988
  0
3DFACE
  5
115
  8
0
 10
-0.7699999999999996
 20
-4.5999999999999961
 30
-0.3499999999999996
 11
-0.5899999999999999
 21
-4.5999999999999961
 31
-0.5299999999999994
 12
0.0
 22
-9.4500000000000011
 32
0.4299999999999998
 13
0.0
 23
-9.4500000000000011
 33
0.4499999999999993
  0
3DFACE
  5
116
  8
0
 10
-0.3500000000000049
 20
-4.5999999999999961
 30
-0.629999999999999
 11
-0.1800000000000032
 21
-4.5999999999999961
 31
-0.6600000000000001
 12
-0.0000000000000036
 22
-9.4500000000000011
 32
0.3899999999999988
 13
0.0
 23
-9.4500000000000011
 33
0.3999999999999986
  0
3DFACE
  5
117
  8
0
 10
-0.1800000000000032
 20
-4.5999999999999961
 30
-0.6600000000000001
 11
-0.0000000000000035
 21
-4.5999999999999961
 31
-0.6600000000000001
 12
-0.0000000000000036
 22
-9.4500000000000011
 32
0.3899999999999988
 13
-0.0000000000000036
 23
-9.4500000000000011
 33
0.3899999999999988
  0
3DFACE
  5
118
  8
0
 10
-0.5899999999999999
 20
-4.5999999999999961
 30
-0.5299999999999994
 11
-0.3500000000000049
 21
-4.5999999999999961
 31
-0.629999999999999
 12
0.0
 22
-9.4500000000000011
 32
0.3999999999999986
 13
0.0
 23
-9.4500000000000011
 33
0.4299999999999998
  0
3DFACE
  5
119
  8
0
 10
-0.7200000000000025
 20
-4.5999999999999961
 30
0.9700000000000006
 11
-0.8099999999999987
 21
-4.5999999999999961
 31
0.6799999999999998
 12
-0.0000000000000037
 22
-9.4500000000000011
 32
0.5699999999999985
 13
-0.0000000000000037
 23
-9.4500000000000011
 33
0.5800000000000001
  0
3DFACE
  5
11A
  8
0
 10
-0.8099999999999987
 20
-4.5999999999999961
 30
0.6799999999999998
 11
-0.8900000000000041
 21
-4.5999999999999961
 31
0.1899999999999995
 12
0.0
 22
-9.4500000000000011
 32
0.5299999999999994
 13
-0.0000000000000037
 23
-9.4500000000000011
 33
0.5699999999999985
  0
3DFACE
  5
11B
  8
0
 10
-0.8399999999999998
 20
-4.5999999999999961
 30
-0.1999999999999993
 11
-0.7699999999999996
 21
-4.5999999999999961
 31
-0.3499999999999996
 12
0.0
 22
-9.4500000000000011
 32
0.4499999999999993
 13
0.0
 23
-9.4500000000000011
 33
0.4799999999999987
  0
3DFACE
  5
11C
  8
0
 10
-0.8900000000000041
 20
-4.5999999999999961
 30
-0.0600000000000005
 11
-0.8399999999999998
 21
-4.5999999999999961
 31
-0.1999999999999993
 12
0.0
 22
-9.4500000000000011
 32
0.4799999999999987
 13
0.0
 23
-9.4500000000000011
 33
0.5099999999999998
  0
3DFACE
  5
11D
  8
0
 10
-0.8900000000000041
 20
-4.5999999999999961
 30
0.1899999999999995
 11
-0.8900000000000041
 21
-4.5999999999999961
 31
-0.0600000000000005
 12
0.0
 22
-9.4500000000000011
 32
0.5099999999999998
 13
0.0
 23
-9.4500000000000011
 33
0.5299999999999994
  0
3DFACE
  5
11E
  8
0
 10
-0.2600000000000086
 20
-4.5999999999999961
 30
1.3100000000000001
 11
-0.3900000000000041
 21
-4.5999999999999961
 31
1.2799999999999989
 12
0.0
 22
-9.4500000000000011
 32
0.629999999999999
 13
-0.0000000000000036
 23
-9.4500000000000011
 33
0.6399999999999988
  0
3DFACE
  5
11F
  8
0
 10
-0.620000000000001
 20
-4.5999999999999961
 30
1.1299999999999999
 11
-0.7200000000000025
 21
-4.5999999999999961
 31
0.9700000000000006
 12
-0.0000000000000037
 22
-9.4500000000000011
 32
0.5800000000000001
 13
-0.0000000000000037
 23
-9.4500000000000011
 33
0.5999999999999996
  0
3DFACE
  5
120
  8
0
 10
-0.3900000000000041
 20
-4.5999999999999961
 30
1.2799999999999989
 11
-0.4899999999999984
 21
-4.5999999999999961
 31
1.24
 12
-0.0000000000000036
 22
-9.4500000000000011
 32
0.6199999999999993
 13
0.0
 23
-9.4500000000000011
 33
0.629999999999999
  0
3DFACE
  5
121
  8
0
 10
-0.4899999999999984
 20
-4.5999999999999961
 30
1.24
 11
-0.620000000000001
 21
-4.5999999999999961
 31
1.1299999999999999
 12
-0.0000000000000037
 22
-9.4500000000000011
 32
0.5999999999999996
 13
-0.0000000000000036
 23
-9.4500000000000011
 33
0.6199999999999993
  0
3DFACE
  5
122
  8
0
 10
-0.0000000000000036
 20
-9.4500000000000011
 30
0.6399999999999988
 11
-0.0000000000000036
 21
-9.4500000000000011
 31
0.6499999999999986
 12
-0.0000000000000035
 22
-4.5999999999999961
 32
1.3799999999999999
 13
-0.2600000000000086
 23
-4.5999999999999961
 33
1.3100000000000001
  0
3DFACE
  5
123
  8
0
 10
-1.0700000000000029
 20
-1.6799999999999959
 30
-0.6000000000000015
 11
-0.84
 21
-1.6799999999999959
 31
-0.8300000000000016
 12
-0.59
 22
-4.5999999999999961
 32
-0.5299999999999994
 13
-0.7699999999999997
 23
-4.5999999999999961
 33
-0.3499999999999996
  0
3DFACE
  5
124
  8
0
 10
-0.84
 20
-1.6799999999999959
 30
-0.8300000000000016
 11
-0.4800000000000006
 21
-1.6799999999999959
 31
-0.9700000000000022
 12
-0.3500000000000051
 22
-4.5999999999999961
 32
-0.629999999999999
 13
-0.59
 23
-4.5999999999999961
 33
-0.5299999999999994
  0
3DFACE
  5
125
  8
0
 10
-0.1800000000000033
 20
-1.6799999999999959
 30
-1.0300000000000009
 11
-0.0000000000000036
 21
-1.6799999999999959
 31
-1.0300000000000009
 12
-0.0000000000000036
 22
-4.5999999999999961
 32
-0.6600000000000001
 13
-0.1800000000000033
 23
-4.5999999999999961
 33
-0.6600000000000001
  0
3DFACE
  5
126
  8
0
 10
-0.4800000000000006
 20
-1.6799999999999959
 30
-0.9700000000000022
 11
-0.1800000000000033
 21
-1.6799999999999959
 31
-1.0300000000000009
 12
-0.1800000000000033
 22
-4.5999999999999961
 32
-0.6600000000000001
 13
-0.3500000000000051
 23
-4.5999999999999961
 33
-0.629999999999999
  0
3DFACE
  5
127
  8
0
 10
-1.089999999999999
 20
-1.6799999999999959
 30
0.7899999999999939
 11
-1.1699999999999979
 21
-1.6799999999999959
 31
0.5199999999999978
 12
-0.8099999999999988
 22
-4.5999999999999961
 32
0.6799999999999998
 13
-0.7200000000000025
 23
-4.5999999999999961
 33
0.9700000000000006
  0
3DFACE
  5
128
  8
0
 10
-1.1699999999999979
 20
-1.6799999999999959
 30
0.5199999999999978
 11
-1.220000000000002
 21
-1.6799999999999959
 31
0.2299999999999986
 12
-0.8900000000000042
 22
-4.5999999999999961
 32
0.1899999999999995
 13
-0.8099999999999988
 23
-4.5999999999999961
 33
0.6799999999999998
  0
3DFACE
  5
129
  8
0
 10
-1.1500000000000019
 20
-1.6799999999999959
 30
-0.4600000000000009
 11
-1.0700000000000029
 21
-1.6799999999999959
 31
-0.6000000000000015
 12
-0.7699999999999997
 22
-4.5999999999999961
 32
-0.3499999999999996
 13
-0.84
 23
-4.5999999999999961
 33
-0.1999999999999993
  0
3DFACE
  5
12A
  8
0
 10
-1.220000000000002
 20
-1.6799999999999959
 30
0.2299999999999986
 11
-1.220000000000002
 21
-1.6799999999999959
 31
-0.0600000000000023
 12
-0.8900000000000042
 22
-4.5999999999999961
 32
-0.0600000000000005
 13
-0.8900000000000042
 23
-4.5999999999999961
 33
0.1899999999999995
  0
3DFACE
  5
12B
  8
0
 10
-1.220000000000002
 20
-1.6799999999999959
 30
-0.0600000000000023
 11
-1.1500000000000019
 21
-1.6799999999999959
 31
-0.4600000000000009
 12
-0.84
 22
-4.5999999999999961
 32
-0.1999999999999993
 13
-0.8900000000000042
 23
-4.5999999999999961
 33
-0.0600000000000005
  0
3DFACE
  5
12C
  8
0
 10
-0.2600000000000087
 20
-1.6799999999999959
 30
1.499999999999998
 11
-0.4900000000000057
 21
-1.6799999999999959
 31
1.4299999999999971
 12
-0.3900000000000042
 22
-4.5999999999999961
 32
1.2799999999999989
 13
-0.2600000000000088
 23
-4.5999999999999961
 33
1.3100000000000001
  0
3DFACE
  5
12D
  8
0
 10
-0.6999999999999994
 20
-1.6799999999999959
 30
1.3299999999999981
 11
-0.9599999999999974
 21
-1.6799999999999959
 31
1.0599999999999981
 12
-0.6200000000000011
 22
-4.5999999999999961
 32
1.1299999999999999
 13
-0.4899999999999986
 23
-4.5999999999999961
 33
1.24
  0
3DFACE
  5
12E
  8
0
 10
-0.4900000000000057
 20
-1.6799999999999959
 30
1.4299999999999971
 11
-0.6999999999999994
 21
-1.6799999999999959
 31
1.3299999999999981
 12
-0.4899999999999986
 22
-4.5999999999999961
 32
1.24
 13
-0.3900000000000042
 23
-4.5999999999999961
 33
1.2799999999999989
  0
3DFACE
  5
12F
  8
0
 10
-0.9599999999999974
 20
-1.6799999999999959
 30
1.0599999999999981
 11
-1.089999999999999
 21
-1.6799999999999959
 31
0.7899999999999939
 12
-0.7200000000000025
 22
-4.5999999999999961
 32
0.9700000000000006
 13
-0.6200000000000011
 23
-4.5999999999999961
 33
1.1299999999999999
  0
3DFACE
  5
130
  8
0
 10
-0.2600000000000088
 20
-4.5999999999999961
 30
1.3100000000000001
 11
-0.0000000000000036
 21
-4.5999999999999961
 31
1.3799999999999999
 12
-0.0000000000000036
 22
-1.6799999999999959
 32
1.5199999999999969
 13
-0.2600000000000087
 23
-1.6799999999999959
 33
1.499999999999998
  0
3DFACE
  5
131
  8
0
 10
-1.2900000000000129
 20
0.9000000000000039
 30
-0.8500000000000012
 11
-1.160000000000007
 21
0.9000000000000039
 31
-1.04
 12
-1.1500000000000019
 22
-1.6799999999999959
 32
-0.4600000000000009
 13
-1.220000000000002
 23
-1.6799999999999959
 33
-0.0600000000000023
  0
3DFACE
  5
132
  8
0
 10
-0.8200000000000075
 20
0.9000000000000039
 30
-1.1599999999999999
 11
-0.4800000000000077
 21
0.9000000000000039
 31
-1.21
 12
-0.4800000000000006
 22
-1.6799999999999959
 32
-0.9700000000000022
 13
-0.84
 23
-1.6799999999999959
 33
-0.8300000000000016
  0
3DFACE
  5
133
  8
0
 10
-0.2300000000000076
 20
0.9000000000000039
 30
-1.2400000000000031
 11
-0.0000000000000072
 21
0.9000000000000039
 31
-1.2400000000000031
 12
-0.0000000000000036
 22
-1.6799999999999959
 32
-1.0300000000000009
 13
-0.1800000000000033
 23
-1.6799999999999959
 33
-1.0300000000000009
  0
3DFACE
  5
134
  8
0
 10
-0.4800000000000077
 20
0.9000000000000039
 30
-1.21
 11
-0.2300000000000076
 21
0.9000000000000039
 31
-1.2400000000000031
 12
-0.1800000000000033
 22
-1.6799999999999959
 32
-1.0300000000000009
 13
-0.4800000000000006
 23
-1.6799999999999959
 33
-0.9700000000000022
  0
3DFACE
  5
135
  8
0
 10
-1.160000000000007
 20
0.9000000000000039
 30
-1.04
 11
-1.0500000000000069
 21
0.9000000000000039
 31
-1.1200000000000001
 12
-1.0700000000000029
 22
-1.6799999999999959
 32
-0.6000000000000015
 13
-1.1500000000000019
 23
-1.6799999999999959
 33
-0.4600000000000009
  0
3DFACE
  5
136
  8
0
 10
-1.0500000000000069
 20
0.9000000000000039
 30
-1.1200000000000001
 11
-0.8200000000000075
 21
0.9000000000000039
 31
-1.1599999999999999
 12
-0.84
 22
-1.6799999999999959
 32
-0.8300000000000016
 13
-1.0700000000000029
 23
-1.6799999999999959
 33
-0.6000000000000015
  0
3DFACE
  5
137
  8
0
 10
-1.1700000000000119
 20
0.9000000000000039
 30
0.7999999999999954
 11
-1.25000000000001
 21
0.9000000000000039
 31
0.5299999999999994
 12
-1.1699999999999979
 22
-1.6799999999999959
 32
0.5199999999999978
 13
-1.089999999999999
 23
-1.6799999999999959
 33
0.7899999999999939
  0
3DFACE
  5
138
  8
0
 10
-1.2900000000000129
 20
0.9000000000000039
 30
0.2999999999999989
 11
-1.2900000000000129
 21
0.9000000000000039
 31
-0.8500000000000012
 12
-1.220000000000002
 22
-1.6799999999999959
 32
-0.0600000000000023
 13
-1.220000000000002
 23
-1.6799999999999959
 33
0.2299999999999986
  0
3DFACE
  5
139
  8
0
 10
-1.25000000000001
 20
0.9000000000000039
 30
0.5299999999999994
 11
-1.2900000000000129
 21
0.9000000000000039
 31
0.2999999999999989
 12
-1.220000000000002
 22
-1.6799999999999959
 32
0.2299999999999986
 13
-1.1699999999999979
 23
-1.6799999999999959
 33
0.5199999999999978
  0
3DFACE
  5
13A
  8
0
 10
-0.7600000000000123
 20
0.9000000000000039
 30
1.2599999999999989
 11
-1.0500000000000109
 21
0.9000000000000039
 31
0.9999999999999982
 12
-0.9599999999999974
 22
-1.6799999999999959
 32
1.0599999999999981
 13
-0.6999999999999994
 23
-1.6799999999999959
 33
1.3299999999999981
  0
3DFACE
  5
13B
  8
0
 10
-1.0500000000000109
 20
0.9000000000000039
 30
0.9999999999999982
 11
-1.1700000000000119
 21
0.9000000000000039
 31
0.7999999999999954
 12
-1.089999999999999
 22
-1.6799999999999959
 32
0.7899999999999939
 13
-0.9599999999999974
 23
-1.6799999999999959
 33
1.0599999999999981
  0
3DFACE
  5
13C
  8
0
 10
-0.2600000000000087
 20
-1.6799999999999959
 30
1.499999999999998
 11
-0.0000000000000036
 21
-1.6799999999999959
 31
1.5199999999999969
 12
-0.0000000000000072
 22
0.9000000000000039
 32
1.489999999999996
 13
-0.2600000000000123
 23
0.9000000000000039
 33
1.4699999999999971
  0
3DFACE
  5
13D
  8
0
 10
-0.2600000000000123
 20
0.9000000000000039
 30
1.4699999999999971
 11
-0.4900000000000128
 21
0.9000000000000039
 31
1.3899999999999979
 12
-0.4900000000000057
 22
-1.6799999999999959
 32
1.4299999999999971
 13
-0.2600000000000087
 23
-1.6799999999999959
 33
1.499999999999998
  0
3DFACE
  5
13E
  8
0
 10
-0.4900000000000128
 20
0.9000000000000039
 30
1.3899999999999979
 11
-0.7600000000000123
 21
0.9000000000000039
 31
1.2599999999999989
 12
-0.6999999999999994
 22
-1.6799999999999959
 32
1.3299999999999981
 13
-0.4900000000000057
 23
-1.6799999999999959
 33
1.4299999999999971
  0
3DFACE
  5
13F
  8
0
 10
-1.240000000000002
 20
3.8400000000000021
 30
0.2899999999999974
 11
-1.240000000000002
 21
3.8400000000000021
 31
-0.0500000000000025
 12
-1.2900000000000129
 22
0.9000000000000039
 32
-0.8500000000000012
 13
-1.2900000000000129
 23
0.9000000000000039
 33
0.2999999999999989
  0
3DFACE
  5
140
  8
0
 10
-1.160000000000003
 20
3.8400000000000021
 30
-0.4900000000000038
 11
-1.050000000000004
 21
3.8400000000000021
 31
-0.7400000000000037
 12
-1.0500000000000069
 22
0.9000000000000039
 32
-1.1200000000000001
 13
-1.160000000000007
 23
0.9000000000000039
 33
-1.04
  0
3DFACE
  5
141
  8
0
 10
-1.050000000000004
 20
3.8400000000000021
 30
-0.7400000000000037
 11
-0.8200000000000038
 21
3.8400000000000021
 31
-0.9900000000000035
 12
-0.8200000000000075
 22
0.9000000000000039
 32
-1.1599999999999999
 13
-1.0500000000000069
 23
0.9000000000000039
 33
-1.1200000000000001
  0
3DFACE
  5
142
  8
0
 10
-0.4800000000000041
 20
3.8400000000000021
 30
-1.170000000000003
 11
-0.230000000000004
 21
3.8400000000000021
 31
-1.2500000000000051
 12
-0.2300000000000076
 22
0.9000000000000039
 32
-1.2400000000000031
 13
-0.4800000000000077
 23
0.9000000000000039
 33
-1.21
  0
3DFACE
  5
143
  8
0
 10
-0.230000000000004
 20
3.8400000000000021
 30
-1.2500000000000051
 11
-0.0000000000000036
 21
3.8400000000000021
 31
-1.2500000000000051
 12
-0.0000000000000072
 22
0.9000000000000039
 32
-1.2400000000000031
 13
-0.2300000000000076
 23
0.9000000000000039
 33
-1.2400000000000031
  0
3DFACE
  5
144
  8
0
 10
-0.8200000000000038
 20
3.8400000000000021
 30
-0.9900000000000035
 11
-0.4800000000000041
 21
3.8400000000000021
 31
-1.170000000000003
 12
-0.4800000000000077
 22
0.9000000000000039
 32
-1.21
 13
-0.8200000000000075
 23
0.9000000000000039
 33
-1.1599999999999999
  0
3DFACE
  5
145
  8
0
 10
-1.240000000000002
 20
3.8400000000000021
 30
-0.0500000000000025
 11
-1.160000000000003
 21
3.8400000000000021
 31
-0.4900000000000038
 12
-1.160000000000007
 22
0.9000000000000039
 32
-1.04
 13
-1.2900000000000129
 23
0.9000000000000039
 33
-0.8500000000000012
  0
3DFACE
  5
146
  8
0
 10
-1.110000000000003
 20
3.8400000000000021
 30
0.7899999999999939
 11
-1.200000000000006
 21
3.8400000000000021
 31
0.5199999999999978
 12
-1.25000000000001
 22
0.9000000000000039
 32
0.5299999999999994
 13
-1.1700000000000119
 23
0.9000000000000039
 33
0.7999999999999954
  0
3DFACE
  5
147
  8
0
 10
-1.200000000000006
 20
3.8400000000000021
 30
0.5199999999999978
 11
-1.240000000000002
 21
3.8400000000000021
 31
0.2899999999999974
 12
-1.2900000000000129
 22
0.9000000000000039
 32
0.2999999999999989
 13
-1.25000000000001
 23
0.9000000000000039
 33
0.5299999999999994
  0
3DFACE
  5
148
  8
0
 10
-0.730000000000004
 20
3.8400000000000021
 30
1.249999999999998
 11
-0.9900000000000055
 21
3.8400000000000021
 31
0.9899999999999966
 12
-1.0500000000000109
 22
0.9000000000000039
 32
0.9999999999999982
 13
-0.7600000000000123
 23
0.9000000000000039
 33
1.2599999999999989
  0
3DFACE
  5
149
  8
0
 10
-0.9900000000000055
 20
3.8400000000000021
 30
0.9899999999999966
 11
-1.110000000000003
 21
3.8400000000000021
 31
0.7899999999999939
 12
-1.1700000000000119
 22
0.9000000000000039
 32
0.7999999999999954
 13
-1.0500000000000109
 23
0.9000000000000039
 33
0.9999999999999982
  0
3DFACE
  5
14A
  8
0
 10
-0.4600000000000045
 20
3.8400000000000021
 30
1.379999999999997
 11
-0.730000000000004
 21
3.8400000000000021
 31
1.249999999999998
 12
-0.7600000000000123
 22
0.9000000000000039
 32
1.2599999999999989
 13
-0.4900000000000128
 23
0.9000000000000039
 33
1.3899999999999979
  0
3DFACE
  5
14B
  8
0
 10
-0.1700000000000053
 20
3.8400000000000021
 30
1.4599999999999951
 11
-0.4600000000000045
 21
3.8400000000000021
 31
1.379999999999997
 12
-0.4900000000000128
 22
0.9000000000000039
 32
1.3899999999999979
 13
-0.2600000000000123
 23
0.9000000000000039
 33
1.4699999999999971
  0
3DFACE
  5
14C
  8
0
 10
-0.2600000000000123
 20
0.9000000000000039
 30
1.4699999999999971
 11
-0.0000000000000072
 21
0.9000000000000039
 31
1.489999999999996
 12
-0.0000000000000036
 22
3.8400000000000021
 32
1.4799999999999951
 13
-0.1700000000000053
 23
3.8400000000000021
 33
1.4599999999999951
  0
3DFACE
  5
14D
  8
0
 10
-1.2200000000000051
 20
4.850000000000005
 30
-0.0500000000000025
 11
-1.160000000000003
 21
4.850000000000005
 31
-0.490000000000002
 12
-1.160000000000003
 22
3.8400000000000021
 32
-0.4900000000000038
 13
-1.240000000000002
 23
3.8400000000000021
 33
-0.0500000000000025
  0
3DFACE
  5
14E
  8
0
 10
-1.050000000000004
 20
4.850000000000005
 30
-0.7400000000000019
 11
-0.8200000000000038
 21
4.850000000000005
 31
-0.9900000000000018
 12
-0.8200000000000038
 22
3.8400000000000021
 32
-0.9900000000000035
 13
-1.050000000000004
 23
3.8400000000000021
 33
-0.7400000000000037
  0
3DFACE
  5
14F
  8
0
 10
-0.480000000000004
 20
4.8500000000000023
 30
-1.170000000000001
 11
-0.2300000000000041
 21
4.8500000000000023
 31
-1.2500000000000031
 12
-0.230000000000004
 22
3.8400000000000021
 32
-1.2500000000000051
 13
-0.4800000000000041
 23
3.8400000000000021
 33
-1.170000000000003
  0
3DFACE
  5
150
  8
0
 10
-0.2300000000000041
 20
4.8500000000000023
 30
-1.2500000000000031
 11
-0.0000000000000036
 21
4.8500000000000023
 31
-1.2500000000000031
 12
-0.0000000000000036
 22
3.8400000000000021
 32
-1.2500000000000051
 13
-0.230000000000004
 23
3.8400000000000021
 33
-1.2500000000000051
  0
3DFACE
  5
151
  8
0
 10
-0.8200000000000038
 20
4.850000000000005
 30
-0.9900000000000018
 11
-0.480000000000004
 21
4.8500000000000023
 31
-1.170000000000001
 12
-0.4800000000000041
 22
3.8400000000000021
 32
-1.170000000000003
 13
-0.8200000000000038
 23
3.8400000000000021
 33
-0.9900000000000035
  0
3DFACE
  5
152
  8
0
 10
-1.160000000000003
 20
4.850000000000005
 30
-0.490000000000002
 11
-1.050000000000004
 21
4.850000000000005
 31
-0.7400000000000019
 12
-1.050000000000004
 22
3.8400000000000021
 32
-0.7400000000000037
 13
-1.160000000000003
 23
3.8400000000000021
 33
-0.4900000000000038
  0
3DFACE
  5
153
  8
0
 10
-1.1300000000000019
 20
4.850000000000005
 30
0.7899999999999974
 11
-1.200000000000002
 21
4.850000000000005
 31
0.5499999999999972
 12
-1.200000000000006
 22
3.8400000000000021
 32
0.5199999999999978
 13
-1.110000000000003
 23
3.8400000000000021
 33
0.7899999999999939
  0
3DFACE
  5
154
  8
0
 10
-1.2200000000000051
 20
4.850000000000005
 30
0.389999999999997
 11
-1.2200000000000051
 21
4.850000000000005
 31
-0.0500000000000025
 12
-1.240000000000002
 22
3.8400000000000021
 32
-0.0500000000000025
 13
-1.240000000000002
 23
3.8400000000000021
 33
0.2899999999999974
  0
3DFACE
  5
155
  8
0
 10
-1.200000000000002
 20
4.850000000000005
 30
0.5499999999999972
 11
-1.2200000000000051
 21
4.850000000000005
 31
0.389999999999997
 12
-1.240000000000002
 22
3.8400000000000021
 32
0.2899999999999974
 13
-1.200000000000006
 23
3.8400000000000021
 33
0.5199999999999978
  0
3DFACE
  5
156
  8
0
 10
-0.4600000000000045
 20
4.8500000000000023
 30
1.4099999999999959
 11
-0.8000000000000042
 21
4.850000000000005
 31
1.229999999999996
 12
-0.730000000000004
 22
3.8400000000000021
 32
1.249999999999998
 13
-0.4600000000000045
 23
3.8400000000000021
 33
1.379999999999997
  0
3DFACE
  5
157
  8
0
 10
-0.8000000000000042
 20
4.850000000000005
 30
1.229999999999996
 11
-0.9900000000000055
 21
4.850000000000005
 31
1.0299999999999969
 12
-0.9900000000000055
 22
3.8400000000000021
 32
0.9899999999999966
 13
-0.730000000000004
 23
3.8400000000000021
 33
1.249999999999998
  0
3DFACE
  5
158
  8
0
 10
-0.9900000000000055
 20
4.850000000000005
 30
1.0299999999999969
 11
-1.1300000000000019
 21
4.850000000000005
 31
0.7899999999999974
 12
-1.110000000000003
 22
3.8400000000000021
 32
0.7899999999999939
 13
-0.9900000000000055
 23
3.8400000000000021
 33
0.9899999999999966
  0
3DFACE
  5
159
  8
0
 10
-0.1700000000000053
 20
3.8400000000000021
 30
1.4599999999999951
 11
-0.0000000000000036
 21
3.8400000000000021
 31
1.4799999999999951
 12
-0.0000000000000036
 22
4.8500000000000023
 32
1.479999999999996
 13
-0.1700000000000053
 23
4.8500000000000023
 33
1.479999999999996
  0
3DFACE
  5
15A
  8
0
 10
-0.1700000000000053
 20
4.8500000000000023
 30
1.479999999999996
 11
-0.4600000000000045
 21
4.8500000000000023
 31
1.4099999999999959
 12
-0.4600000000000045
 22
3.8400000000000021
 32
1.379999999999997
 13
-0.1700000000000053
 23
3.8400000000000021
 33
1.4599999999999951
  0
3DFACE
  5
15B
  8
0
 10
-0.9700000000000024
 20
7.6700000000000061
 30
-0.0900000000000017
 11
-0.9200000000000052
 21
7.6700000000000061
 31
-0.3500000000000014
 12
-1.160000000000003
 22
4.850000000000005
 32
-0.490000000000002
 13
-1.2200000000000051
 23
4.850000000000005
 33
-0.0500000000000025
  0
3DFACE
  5
15C
  8
0
 10
-0.8500000000000049
 20
7.6700000000000061
 30
-0.6000000000000015
 11
-0.6900000000000013
 21
7.6700000000000017
 31
-0.8500000000000012
 12
-0.8200000000000038
 22
4.850000000000005
 32
-0.9900000000000018
 13
-1.050000000000004
 23
4.850000000000005
 33
-0.7400000000000019
  0
3DFACE
  5
15D
  8
0
 10
-0.4900000000000057
 20
7.6700000000000017
 30
-1.0000000000000011
 11
-0.1500000000000022
 21
7.6700000000000017
 31
-1.1200000000000001
 12
-0.2300000000000041
 22
4.8500000000000023
 32
-1.2500000000000031
 13
-0.4800000000000041
 23
4.8500000000000023
 33
-1.170000000000001
  0
3DFACE
  5
15E
  8
0
 10
-0.1500000000000022
 20
7.6700000000000017
 30
-1.1200000000000001
 11
-0.0000000000000036
 21
7.6700000000000017
 31
-1.1300000000000019
 12
-0.0000000000000036
 22
4.8500000000000023
 32
-1.2500000000000031
 13
-0.2300000000000041
 23
4.8500000000000023
 33
-1.2500000000000031
  0
3DFACE
  5
15F
  8
0
 10
-0.6900000000000013
 20
7.6700000000000017
 30
-0.8500000000000012
 11
-0.4900000000000057
 21
7.6700000000000017
 31
-1.0000000000000011
 12
-0.4800000000000041
 22
4.8500000000000023
 32
-1.170000000000001
 13
-0.8200000000000038
 23
4.850000000000005
 33
-0.9900000000000018
  0
3DFACE
  5
160
  8
0
 10
-0.9200000000000052
 20
7.6700000000000061
 30
-0.3500000000000014
 11
-0.8500000000000049
 21
7.6700000000000061
 31
-0.6000000000000015
 12
-1.050000000000004
 22
4.850000000000005
 32
-0.7400000000000019
 13
-1.160000000000003
 23
4.850000000000005
 33
-0.490000000000002
  0
3DFACE
  5
161
  8
0
 10
-0.7500000000000036
 20
7.6700000000000017
 30
0.9299999999999979
 11
-0.8600000000000029
 21
7.6700000000000061
 31
0.6899999999999978
 12
-1.200000000000002
 22
4.850000000000005
 32
0.5499999999999972
 13
-1.1300000000000019
 23
4.850000000000005
 33
0.7899999999999974
  0
3DFACE
  5
162
  8
0
 10
-0.9700000000000024
 20
7.6700000000000061
 30
0.1999999999999975
 11
-0.9700000000000024
 21
7.6700000000000061
 31
-0.0900000000000017
 12
-1.2200000000000051
 22
4.850000000000005
 32
-0.0500000000000025
 13
-1.2200000000000051
 23
4.850000000000005
 33
0.389999999999997
  0
3DFACE
  5
163
  8
0
 10
-0.8600000000000029
 20
7.6700000000000061
 30
0.6899999999999978
 11
-0.9700000000000024
 21
7.6700000000000061
 31
0.1999999999999975
 12
-1.2200000000000051
 22
4.850000000000005
 32
0.389999999999997
 13
-1.200000000000002
 23
4.850000000000005
 33
0.5499999999999972
  0
3DFACE
  5
164
  8
0
 10
-0.3300000000000019
 20
7.6700000000000017
 30
1.2099999999999971
 11
-0.5000000000000037
 21
7.6700000000000017
 31
1.139999999999997
 12
-0.8000000000000042
 22
4.850000000000005
 32
1.229999999999996
 13
-0.4600000000000045
 23
4.8500000000000023
 33
1.4099999999999959
  0
3DFACE
  5
165
  8
0
 10
-0.5000000000000037
 20
7.6700000000000017
 30
1.139999999999997
 11
-0.6300000000000061
 21
7.6700000000000017
 31
1.0499999999999969
 12
-0.9900000000000055
 22
4.850000000000005
 32
1.0299999999999969
 13
-0.8000000000000042
 23
4.850000000000005
 33
1.229999999999996
  0
3DFACE
  5
166
  8
0
 10
-0.6300000000000061
 20
7.6700000000000017
 30
1.0499999999999969
 11
-0.7500000000000036
 21
7.6700000000000017
 31
0.9299999999999979
 12
-1.1300000000000019
 22
4.850000000000005
 32
0.7899999999999974
 13
-0.9900000000000055
 23
4.850000000000005
 33
1.0299999999999969
  0
3DFACE
  5
167
  8
0
 10
-0.1700000000000053
 20
7.6700000000000017
 30
1.229999999999996
 11
-0.3300000000000019
 21
7.6700000000000017
 31
1.2099999999999971
 12
-0.4600000000000045
 22
4.8500000000000023
 32
1.4099999999999959
 13
-0.1700000000000053
 23
4.8500000000000023
 33
1.479999999999996
  0
3DFACE
  5
168
  8
0
 10
-0.1700000000000053
 20
4.8500000000000023
 30
1.479999999999996
 11
-0.0000000000000036
 21
4.8500000000000023
 31
1.479999999999996
 12
-0.0000000000000036
 22
7.6700000000000017
 32
1.229999999999996
 13
-0.1700000000000053
 23
7.6700000000000017
 33
1.229999999999996
  0
3DFACE
  5
169
  8
0
 10
-0.7099999999999974
 20
8.800000000000006
 30
-0.3500000000000014
 11
-0.6299999999999956
 21
8.800000000000006
 31
-0.5300000000000013
 12
-0.8500000000000049
 22
7.6700000000000061
 32
-0.6000000000000015
 13
-0.9200000000000052
 23
7.6700000000000061
 33
-0.3500000000000014
  0
3DFACE
  5
16A
  8
0
 10
-0.469999999999999
 20
8.800000000000006
 30
-0.7200000000000024
 11
-0.259999999999998
 21
8.800000000000006
 31
-0.8599999999999992
 12
-0.4900000000000057
 22
7.6700000000000017
 32
-1.0000000000000011
 13
-0.6900000000000013
 23
7.6700000000000017
 33
-0.8500000000000012
  0
3DFACE
  5
16B
  8
0
 10
-0.1899999999999978
 20
8.800000000000006
 30
-0.8900000000000004
 11
-0.0000000000000001
 21
8.8000000000000025
 31
-0.9000000000000019
 12
-0.0000000000000036
 22
7.6700000000000017
 32
-1.1300000000000019
 13
-0.1500000000000022
 23
7.6700000000000017
 33
-1.1200000000000001
  0
3DFACE
  5
16C
  8
0
 10
-0.259999999999998
 20
8.800000000000006
 30
-0.8599999999999992
 11
-0.1899999999999978
 21
8.800000000000006
 31
-0.8900000000000004
 12
-0.1500000000000022
 22
7.6700000000000017
 32
-1.1200000000000001
 13
-0.4900000000000057
 23
7.6700000000000017
 33
-1.0000000000000011
  0
3DFACE
  5
16D
  8
0
 10
-0.6299999999999956
 20
8.800000000000006
 30
-0.5300000000000013
 11
-0.469999999999999
 21
8.800000000000006
 31
-0.7200000000000024
 12
-0.6900000000000013
 22
7.6700000000000017
 32
-0.8500000000000012
 13
-0.8500000000000049
 23
7.6700000000000061
 33
-0.6000000000000015
  0
3DFACE
  5
16F
  8
0
 10
-0.7699999999999961
 20
8.800000000000006
 30
0.0299999999999976
 11
-0.7699999999999961
 21
8.800000000000006
 31
-0.1000000000000014
 12
-0.9700000000000024
 22
7.6700000000000061
 32
-0.0900000000000017
 13
-0.9700000000000024
 23
7.6700000000000061
 33
0.1999999999999975
  0
3DFACE
  5
170
  8
0
 10
-0.7699999999999961
 20
8.800000000000006
 30
-0.1000000000000014
 11
-0.7099999999999974
 21
8.800000000000006
 31
-0.3500000000000014
 12
-0.9200000000000052
 22
7.6700000000000061
 32
-0.3500000000000014
 13
-0.9700000000000024
 23
7.6700000000000061
 33
-0.0900000000000017
  0
3DFACE
  5
185
  8
0
 10
-0.2119499999999996
 20
9.7500000000000018
 30
-0.2088750000000008
 11
-0.1844750000000009
 21
9.7500000000000018
 31
-0.2599000000000018
 12
-0.4700000000000025
 22
9.3000000000000025
 32
-0.4400000000000031
 13
-0.5399999999999992
 23
9.3000000000000025
 33
-0.3100000000000005
  0
3DFACE
  5
186
  8
0
 10
-0.1844750000000009
 20
9.7500000000000018
 30
-0.2599000000000018
 11
-0.1570000000000008
 21
9.7500000000000018
 31
-0.2952250000000021
 12
-0.4000000000000022
 22
9.3000000000000025
 32
-0.530000000000003
 13
-0.4700000000000025
 23
9.3000000000000025
 33
-0.4400000000000031
  0
3DFACE
  5
187
  8
0
 10
-0.1570000000000008
 20
9.7500000000000018
 30
-0.2952250000000021
 11
-0.1020500000000006
 21
9.7500000000000018
 31
-0.3344750000000012
 12
-0.2600000000000016
 22
9.3000000000000025
 32
-0.6300000000000007
 13
-0.4000000000000022
 23
9.3000000000000025
 33
-0.530000000000003
  0
3DFACE
  5
188
  8
0
 10
-0.1020500000000006
 20
9.7500000000000018
 30
-0.3344750000000012
 11
-0.0431750000000012
 21
9.7500000000000018
 31
-0.3619500000000002
 12
-0.110000000000003
 22
9.3000000000000025
 32
-0.700000000000001
 13
-0.2600000000000016
 23
9.3000000000000025
 33
-0.6300000000000007
  0
3DFACE
  5
18A
  8
0
 10
-0.1413000000000012
 20
9.7500000000000018
 30
0.0266249999999992
 11
-0.2040999999999999
 21
9.7500000000000018
 31
-0.0361750000000019
 12
-0.5199999999999996
 22
9.3000000000000025
 32
0.1299999999999972
 13
-0.360000000000003
 23
9.3000000000000025
 33
0.2899999999999974
  0
3DFACE
  5
18B
  8
0
 10
-0.2276500000000007
 20
9.7500000000000018
 30
-0.1068250000000006
 11
-0.2276500000000007
 21
9.7500000000000018
 31
-0.1500000000000003
 12
-0.5800000000000019
 22
9.3000000000000025
 32
-0.1600000000000019
 13
-0.5800000000000019
 23
9.3000000000000025
 33
-0.0500000000000025
  0
3DFACE
  5
18C
  8
0
 10
-0.2276500000000007
 20
9.7500000000000018
 30
-0.1500000000000003
 11
-0.2119499999999996
 21
9.7500000000000018
 31
-0.2088750000000008
 12
-0.5399999999999992
 22
9.3000000000000025
 32
-0.3100000000000005
 13
-0.5800000000000019
 23
9.3000000000000025
 33
-0.1600000000000019
  0
3DFACE
  5
18D
  8
0
 10
-0.2040999999999999
 20
9.7500000000000018
 30
-0.0361750000000019
 11
-0.2198000000000009
 21
9.7500000000000018
 31
-0.0715000000000021
 12
-0.5600000000000023
 22
9.3000000000000025
 32
0.0399999999999974
 13
-0.5199999999999996
 23
9.3000000000000025
 33
0.1299999999999972
  0
3DFACE
  5
18E
  8
0
 10
-0.2198000000000009
 20
9.7500000000000018
 30
-0.0715000000000021
 11
-0.2276500000000007
 21
9.7500000000000018
 31
-0.1068250000000006
 12
-0.5800000000000019
 22
9.3000000000000025
 32
-0.0500000000000025
 13
-0.5600000000000023
 23
9.3000000000000025
 33
0.0399999999999974
  0
3DFACE
  5
190
  8
0
 10
-0.0431750000000012
 20
9.7500000000000018
 30
0.0580249999999989
 11
-0.0824250000000003
 21
9.7500000000000018
 31
0.0501749999999977
 12
-0.2100000000000009
 22
9.3000000000000025
 32
0.3499999999999961
 13
-0.110000000000003
 23
9.3000000000000025
 33
0.3699999999999992
  0
3DFACE
  5
191
  8
0
 10
-0.0824250000000003
 20
9.7500000000000018
 30
0.0501749999999977
 11
-0.1138250000000011
 21
9.7500000000000018
 31
0.0423249999999982
 12
-0.2900000000000027
 22
9.3000000000000025
 32
0.3299999999999965
 13
-0.2100000000000009
 23
9.3000000000000025
 33
0.3499999999999961
  0
3DFACE
  5
192
  8
0
 10
-0.1138250000000011
 20
9.7500000000000018
 30
0.0423249999999982
 11
-0.1413000000000012
 21
9.7500000000000018
 31
0.0266249999999992
 12
-0.360000000000003
 22
9.3000000000000025
 32
0.2899999999999974
 13
-0.2900000000000027
 23
9.3000000000000025
 33
0.3299999999999965
  0
3DFACE
  5
195
  8
0
 10
0.0
 20
9.8300000000000018
 30
-0.2088750000000008
 11
0.0
 21
9.8100000000000005
 31
-0.2599000000000018
 12
-0.1844750000000009
 22
9.7500000000000018
 32
-0.2599000000000018
 13
-0.2119499999999997
 23
9.7500000000000018
 33
-0.2088750000000008
  0
3DFACE
  5
196
  8
0
 10
0.2119499999999997
 20
9.75
 30
-0.2088750000000008
 11
0.1844750000000009
 21
9.75
 31
-0.2599000000000018
 12
0.0
 22
9.8100000000000005
 32
-0.2599000000000018
 13
0.0
 23
9.8300000000000018
 33
-0.2088750000000008
  0
3DFACE
  5
197
  8
0
 10
0.0
 20
9.8100000000000005
 30
-0.2599000000000018
 11
0.0
 21
9.7899999999999991
 31
-0.2952250000000021
 12
-0.1570000000000008
 22
9.7500000000000018
 32
-0.2952250000000021
 13
-0.1844750000000009
 23
9.7500000000000018
 33
-0.2599000000000018
  0
3DFACE
  5
198
  8
0
 10
0.0
 20
9.7899999999999991
 30
-0.2952250000000021
 11
0.0
 21
9.7800000000000011
 31
-0.3344750000000012
 12
-0.1020500000000006
 22
9.7500000000000018
 32
-0.3344750000000012
 13
-0.1570000000000008
 23
9.7500000000000018
 33
-0.2952250000000021
  0
3DFACE
  5
199
  8
0
 10
0.0
 20
9.7800000000000011
 30
-0.3344750000000012
 11
0.0000000000000014
 21
9.7500000000000018
 31
-0.3619500000000002
 12
-0.0431750000000012
 22
9.7500000000000018
 32
-0.3619500000000002
 13
-0.1020500000000006
 23
9.7500000000000018
 33
-0.3344750000000012
  0
3DFACE
  5
19A
  8
0
 10
0.0000000000000014
 20
9.7500000000000018
 30
-0.3619500000000002
 11
0.0000000000000014
 21
9.7500000000000018
 31
-0.3619500000000002
 12
0.0000000000000014
 22
9.7500000000000018
 32
-0.3619500000000002
 13
-0.0431750000000012
 23
9.7500000000000018
 33
-0.3619500000000002
  0
3DFACE
  5
19B
  8
0
 10
0.1844750000000009
 20
9.75
 30
-0.2599000000000018
 11
0.1570000000000008
 21
9.75
 31
-0.2952250000000021
 12
0.0
 22
9.7899999999999991
 32
-0.2952250000000021
 13
0.0
 23
9.8100000000000005
 33
-0.2599000000000018
  0
3DFACE
  5
19C
  8
0
 10
0.1570000000000008
 20
9.75
 30
-0.2952250000000021
 11
0.1020500000000006
 21
9.75
 31
-0.3344750000000012
 12
0.0
 22
9.7800000000000011
 32
-0.3344750000000012
 13
0.0
 23
9.7899999999999991
 33
-0.2952250000000021
  0
3DFACE
  5
19D
  8
0
 10
0.1020500000000006
 20
9.75
 30
-0.3344750000000012
 11
0.0431750000000012
 21
9.7500000000000018
 31
-0.3619500000000002
 12
0.0000000000000014
 22
9.7500000000000018
 32
-0.3619500000000002
 13
0.0
 23
9.7800000000000011
 33
-0.3344750000000012
  0
3DFACE
  5
19E
  8
0
 10
0.0431750000000012
 20
9.7500000000000018
 30
-0.3619500000000002
 11
0.0000000000000014
 21
9.7500000000000018
 31
-0.3619500000000002
 12
0.0000000000000014
 22
9.7500000000000018
 32
-0.3619500000000002
 13
0.0000000000000014
 23
9.7500000000000018
 33
-0.3619500000000002
  0
3DFACE
  5
19F
  8
0
 10
0.0
 20
9.7800000000000011
 30
0.0266249999999992
 11
0.0
 21
9.8100000000000005
 31
-0.0361750000000019
 12
-0.2040999999999999
 22
9.7500000000000018
 32
-0.0361750000000019
 13
-0.1413000000000012
 23
9.7500000000000018
 33
0.0266249999999992
  0
3DFACE
  5
1A0
  8
0
 10
0.1413000000000012
 20
9.75
 30
0.0266249999999992
 11
0.2040999999999999
 21
9.75
 31
-0.0361750000000019
 12
0.0
 22
9.8100000000000005
 32
-0.0361750000000019
 13
0.0
 23
9.7800000000000011
 33
0.0266249999999992
  0
3DFACE
  5
1A1
  8
0
 10
0.0
 20
9.8300000000000018
 30
-0.1068250000000006
 11
0.0
 21
9.8300000000000018
 31
-0.1500000000000003
 12
-0.2276500000000007
 22
9.7500000000000018
 32
-0.1500000000000003
 13
-0.2276500000000007
 23
9.7500000000000018
 33
-0.1068250000000006
  0
3DFACE
  5
1A2
  8
0
 10
0.0
 20
9.8300000000000018
 30
-0.1500000000000003
 11
0.0
 21
9.8300000000000018
 31
-0.2088750000000008
 12
-0.2119499999999997
 22
9.7500000000000018
 32
-0.2088750000000008
 13
-0.2276500000000007
 23
9.7500000000000018
 33
-0.1500000000000003
  0
3DFACE
  5
1A3
  8
0
 10
0.0
 20
9.8100000000000005
 30
-0.0361750000000019
 11
0.0
 21
9.8300000000000018
 31
-0.0715000000000021
 12
-0.2198000000000009
 22
9.7500000000000018
 32
-0.0715000000000021
 13
-0.2040999999999999
 23
9.7500000000000018
 33
-0.0361750000000019
  0
3DFACE
  5
1A4
  8
0
 10
0.0
 20
9.8300000000000018
 30
-0.0715000000000021
 11
0.0
 21
9.8300000000000018
 31
-0.1068250000000006
 12
-0.2276500000000007
 22
9.7500000000000018
 32
-0.1068250000000006
 13
-0.2198000000000009
 23
9.7500000000000018
 33
-0.0715000000000021
  0
3DFACE
  5
1A5
  8
0
 10
0.2276500000000007
 20
9.75
 30
-0.1068250000000006
 11
0.2276500000000007
 21
9.75
 31
-0.1500000000000003
 12
0.0
 22
9.8300000000000018
 32
-0.1500000000000003
 13
0.0
 23
9.8300000000000018
 33
-0.1068250000000006
  0
3DFACE
  5
1A6
  8
0
 10
0.2276500000000007
 20
9.75
 30
-0.1500000000000003
 11
0.2119499999999997
 21
9.75
 31
-0.2088750000000008
 12
0.0
 22
9.8300000000000018
 32
-0.2088750000000008
 13
0.0
 23
9.8300000000000018
 33
-0.1500000000000003
  0
3DFACE
  5
1A7
  8
0
 10
0.2040999999999999
 20
9.75
 30
-0.0361750000000019
 11
0.2198000000000009
 21
9.75
 31
-0.0715000000000021
 12
0.0
 22
9.8300000000000018
 32
-0.0715000000000021
 13
0.0
 23
9.8100000000000005
 33
-0.0361750000000019
  0
3DFACE
  5
1A8
  8
0
 10
0.2198000000000009
 20
9.75
 30
-0.0715000000000021
 11
0.2276500000000007
 21
9.75
 31
-0.1068250000000006
 12
0.0
 22
9.8300000000000018
 32
-0.1068250000000006
 13
0.0
 23
9.8300000000000018
 33
-0.0715000000000021
  0
3DFACE
  5
1A9
  8
0
 10
-0.0431750000000012
 20
9.7500000000000018
 30
0.0580249999999989
 11
0.0
 21
9.7500000000000018
 31
0.0580249999999989
 12
0.0
 22
9.75
 32
0.0580249999999989
 13
0.0
 23
9.75
 33
0.0580249999999989
  0
3DFACE
  5
1AA
  8
0
 10
0.0
 20
9.75
 30
0.0580249999999989
 11
0.0
 21
9.7600000000000016
 31
0.0501749999999977
 12
-0.0824250000000004
 22
9.7500000000000018
 32
0.0501749999999977
 13
-0.0431750000000012
 23
9.7500000000000018
 33
0.0580249999999989
  0
3DFACE
  5
1AB
  8
0
 10
0.0
 20
9.7600000000000016
 30
0.0501749999999977
 11
0.0
 21
9.7699999999999996
 31
0.0423249999999982
 12
-0.1138250000000011
 22
9.7500000000000018
 32
0.0423249999999982
 13
-0.0824250000000004
 23
9.7500000000000018
 33
0.0501749999999977
  0
3DFACE
  5
1AC
  8
0
 10
0.0
 20
9.7699999999999996
 30
0.0423249999999982
 11
0.0
 21
9.7800000000000011
 31
0.0266249999999992
 12
-0.1413000000000012
 22
9.7500000000000018
 32
0.0266249999999992
 13
-0.1138250000000011
 23
9.7500000000000018
 33
0.0423249999999982
  0
3DFACE
  5
1AD
  8
0
 10
0.0
 20
9.75
 30
0.0580249999999989
 11
0.0
 21
9.75
 31
0.0580249999999989
 12
0.0
 22
9.7500000000000018
 32
0.0580249999999989
 13
0.0431750000000012
 23
9.7500000000000018
 33
0.0580249999999989
  0
3DFACE
  5
1AE
  8
0
 10
0.0431750000000012
 20
9.7500000000000018
 30
0.0580249999999989
 11
0.0824250000000003
 21
9.75
 31
0.0501749999999977
 12
0.0
 22
9.7600000000000016
 32
0.0501749999999977
 13
0.0
 23
9.75
 33
0.0580249999999989
  0
3DFACE
  5
1AF
  8
0
 10
0.0824250000000003
 20
9.75
 30
0.0501749999999977
 11
0.1138250000000011
 21
9.75
 31
0.0423249999999982
 12
0.0
 22
9.7699999999999996
 32
0.0423249999999982
 13
0.0
 23
9.7600000000000016
 33
0.0501749999999977
  0
3DFACE
  5
1B0
  8
0
 10
0.1138250000000011
 20
9.75
 30
0.0423249999999982
 11
0.1413000000000012
 21
9.75
 31
0.0266249999999992
 12
0.0
 22
9.7800000000000011
 32
0.0266249999999992
 13
0.0
 23
9.7699999999999996
 33
0.0423249999999982
  0
3DFACE
  5
1C0
  8
0
 10
0.1899999999999977
 20
8.8000000000000025
 30
-0.8900000000000004
 11
-0.0000000000000001
 21
8.8000000000000025
 31
-0.9000000000000019
 12
-0.0000000000000036
 22
9.3000000000000025
 32
-0.700000000000001
 13
0.110000000000003
 23
9.3000000000000025
 33
-0.700000000000001
  0
3DFACE
  5
1C1
  8
0
 10
-0.0000000000000001
 20
8.8000000000000025
 30
-0.9000000000000019
 11
-0.1899999999999978
 21
8.800000000000006
 31
-0.8900000000000004
 12
-0.1100000000000101
 22
9.3000000000000025
 32
-0.700000000000001
 13
-0.0000000000000036
 23
9.3000000000000025
 33
-0.700000000000001
  0
3DFACE
  5
1C2
  8
0
 10
0.259999999999998
 20
8.8000000000000025
 30
-0.8599999999999992
 11
0.1899999999999977
 21
8.8000000000000025
 31
-0.8900000000000004
 12
0.1099999999999994
 22
9.3000000000000025
 32
-0.700000000000001
 13
0.2600000000000016
 23
9.2999999999999972
 33
-0.6300000000000007
  0
3DFACE
  5
1C3
  8
0
 10
0.4699999999999989
 20
8.8000000000000025
 30
-0.7200000000000024
 11
0.259999999999998
 21
8.8000000000000025
 31
-0.8599999999999992
 12
0.2600000000000016
 22
9.2999999999999972
 32
-0.6300000000000007
 13
0.4000000000000022
 23
9.2999999999999972
 33
-0.530000000000003
  0
3DFACE
  5
1C4
  8
0
 10
0.6299999999999955
 20
8.8000000000000025
 30
-0.5300000000000013
 11
0.4699999999999988
 21
8.8000000000000025
 31
-0.7200000000000024
 12
0.4000000000000022
 22
9.2999999999999972
 32
-0.530000000000003
 13
0.4700000000000025
 23
9.2999999999999972
 33
-0.4400000000000031
  0
3DFACE
  5
1C5
  8
0
 10
0.7099999999999973
 20
8.8000000000000025
 30
-0.3500000000000014
 11
0.6299999999999955
 21
8.8000000000000025
 31
-0.5300000000000013
 12
0.4700000000000025
 22
9.2999999999999972
 32
-0.4400000000000031
 13
0.5399999999999992
 23
9.2999999999999972
 33
-0.3100000000000005
  0
3DFACE
  5
1C6
  8
0
 10
0.7699999999999961
 20
8.7999999999999972
 30
-0.1000000000000014
 11
0.7099999999999973
 21
8.8000000000000025
 31
-0.3500000000000014
 12
0.5399999999999992
 22
9.2999999999999972
 32
-0.3100000000000005
 13
0.5800000000000019
 23
9.2999999999999972
 33
-0.1600000000000019
  0
3DFACE
  5
1C7
  8
0
 10
0.7699999999999961
 20
8.7999999999999972
 30
0.0299999999999976
 11
0.7699999999999961
 21
8.7999999999999972
 31
-0.1000000000000014
 12
0.5800000000000019
 22
9.2999999999999972
 32
-0.1600000000000019
 13
0.5800000000000019
 23
9.2999999999999972
 33
-0.0500000000000025
  0
3DFACE
  5
1C8
  8
0
 10
0.7299999999999969
 20
8.8000000000000025
 30
0.2199999999999989
 11
0.7699999999999961
 21
8.7999999999999972
 31
0.0299999999999976
 12
0.5800000000000019
 22
9.2999999999999972
 32
-0.0500000000000025
 13
0.5600000000000023
 23
9.2999999999999972
 33
0.0399999999999974
  0
3DFACE
  5
1C9
  8
0
 10
0.6699999999999982
 20
8.8000000000000025
 30
0.3499999999999979
 11
0.7299999999999971
 21
8.8000000000000007
 31
0.2199999999999989
 12
0.5600000000000023
 22
9.2999999999999972
 32
0.0399999999999974
 13
0.5199999999999996
 23
9.2999999999999972
 33
0.1299999999999972
  0
3DFACE
  5
1CA
  8
0
 10
0.509999999999998
 20
8.8000000000000025
 30
0.4800000000000005
 11
0.6699999999999982
 21
8.8000000000000025
 31
0.3499999999999979
 12
0.5199999999999996
 22
9.2999999999999972
 32
0.1299999999999972
 13
0.360000000000003
 23
9.2999999999999972
 33
0.2899999999999974
  0
3DFACE
  5
1CB
  8
0
 10
0.4199999999999982
 20
8.8000000000000025
 30
0.5199999999999996
 11
0.509999999999998
 21
8.8000000000000025
 31
0.4800000000000005
 12
0.360000000000003
 22
9.2999999999999972
 32
0.2899999999999974
 13
0.2900000000000027
 23
9.2999999999999972
 33
0.3299999999999965
  0
3DFACE
  5
1CC
  8
0
 10
0.3299999999999983
 20
8.8000000000000025
 30
0.5399999999999992
 11
0.4199999999999982
 21
8.8000000000000025
 31
0.5199999999999996
 12
0.2900000000000027
 22
9.2999999999999972
 32
0.3299999999999965
 13
0.2100000000000008
 23
9.2999999999999972
 33
0.3499999999999961
  0
3DFACE
  5
1CD
  8
0
 10
0.1699999999999981
 20
8.8000000000000025
 30
0.5500000000000007
 11
0.3299999999999983
 21
8.8000000000000025
 31
0.5399999999999992
 12
0.2100000000000008
 22
9.2999999999999972
 32
0.3499999999999961
 13
0.110000000000003
 23
9.3000000000000025
 33
0.3699999999999992
  0
3DFACE
  5
1CE
  8
0
 10
0.0000000000000035
 20
8.8000000000000025
 30
0.5599999999999988
 11
0.1699999999999981
 21
8.8000000000000025
 31
0.5500000000000007
 12
0.110000000000003
 22
9.3000000000000025
 32
0.3699999999999992
 13
0.0
 23
9.3000000000000025
 33
0.3699999999999992
  0
3DFACE
  5
1CF
  8
0
 10
-0.1699999999999982
 20
8.800000000000006
 30
0.5500000000000007
 11
0.0000000000000035
 21
8.8000000000000025
 31
0.5599999999999988
 12
0.0
 22
9.3000000000000025
 32
0.3699999999999992
 13
-0.110000000000003
 23
9.3000000000000025
 33
0.3699999999999992
  0
3DFACE
  5
1D0
  8
0
 10
-0.3299999999999983
 20
8.800000000000006
 30
0.5399999999999992
 11
-0.1699999999999982
 21
8.800000000000006
 31
0.5500000000000007
 12
-0.110000000000003
 22
9.3000000000000025
 32
0.3699999999999992
 13
-0.2100000000000009
 23
9.3000000000000025
 33
0.3499999999999961
  0
3DFACE
  5
1D1
  8
0
 10
-0.4199999999999983
 20
8.800000000000006
 30
0.5199999999999996
 11
-0.3299999999999983
 21
8.800000000000006
 31
0.5399999999999992
 12
-0.2100000000000008
 22
9.3000000000000025
 32
0.3499999999999961
 13
-0.2900000000000027
 23
9.3000000000000025
 33
0.3299999999999965
  0
3DFACE
  5
1D2
  8
0
 10
-0.5099999999999981
 20
8.800000000000006
 30
0.4800000000000005
 11
-0.4199999999999983
 21
8.800000000000006
 31
0.5199999999999996
 12
-0.2900000000000027
 22
9.3000000000000025
 32
0.3299999999999965
 13
-0.360000000000003
 23
9.3000000000000025
 33
0.2899999999999974
  0
3DFACE
  5
1D3
  8
0
 10
-0.6699999999999983
 20
8.800000000000006
 30
0.3499999999999979
 11
-0.5099999999999982
 21
8.800000000000006
 31
0.4800000000000005
 12
-0.360000000000003
 22
9.3000000000000025
 32
0.2899999999999974
 13
-0.5199999999999996
 23
9.3000000000000025
 33
0.1299999999999972
  0
3DFACE
  5
1D4
  8
0
 10
-0.729999999999997
 20
8.800000000000006
 30
0.2199999999999989
 11
-0.6699999999999983
 21
8.800000000000006
 31
0.3499999999999979
 12
-0.5199999999999996
 22
9.3000000000000025
 32
0.1299999999999972
 13
-0.5600000000000023
 23
9.3000000000000025
 33
0.0399999999999974
  0
3DFACE
  5
1D5
  8
0
 10
-0.7699999999999961
 20
8.800000000000006
 30
0.0299999999999976
 11
-0.729999999999997
 21
8.800000000000006
 31
0.2199999999999989
 12
-0.5600000000000023
 22
9.3000000000000025
 32
0.0399999999999974
 13
-0.5800000000000019
 23
9.3000000000000025
 33
-0.0500000000000025
  0
3DFACE
  5
1D6
  8
0
 10
-0.7699999999999961
 20
8.800000000000006
 30
-0.1000000000000014
 11
-0.7699999999999961
 21
8.800000000000006
 31
0.0299999999999976
 12
-0.5800000000000019
 22
9.3000000000000025
 32
-0.0500000000000025
 13
-0.5800000000000019
 23
9.3000000000000025
 33
-0.1600000000000019
  0
3DFACE
  5
1D7
  8
0
 10
-0.7099999999999974
 20
8.800000000000006
 30
-0.3500000000000014
 11
-0.7699999999999961
 21
8.800000000000006
 31
-0.1000000000000014
 12
-0.5800000000000019
 22
9.3000000000000025
 32
-0.1600000000000019
 13
-0.5399999999999992
 23
9.3000000000000025
 33
-0.3100000000000005
  0
3DFACE
  5
1D8
  8
0
 10
-0.6299999999999956
 20
8.800000000000006
 30
-0.5300000000000013
 11
-0.7099999999999974
 21
8.800000000000006
 31
-0.3500000000000014
 12
-0.5399999999999992
 22
9.3000000000000025
 32
-0.3100000000000005
 13
-0.4700000000000025
 23
9.3000000000000025
 33
-0.4400000000000031
  0
3DFACE
  5
1D9
  8
0
 10
-0.469999999999999
 20
8.800000000000006
 30
-0.7200000000000024
 11
-0.6299999999999956
 21
8.800000000000006
 31
-0.5300000000000013
 12
-0.4700000000000025
 22
9.3000000000000025
 32
-0.4400000000000031
 13
-0.4000000000000022
 23
9.3000000000000025
 33
-0.530000000000003
  0
3DFACE
  5
1DA
  8
0
 10
-0.259999999999998
 20
8.800000000000006
 30
-0.8599999999999992
 11
-0.469999999999999
 21
8.800000000000006
 31
-0.7200000000000024
 12
-0.4000000000000022
 22
9.3000000000000025
 32
-0.530000000000003
 13
-0.2600000000000016
 23
9.3000000000000025
 33
-0.6300000000000007
  0
3DFACE
  5
1DB
  8
0
 10
-0.1899999999999978
 20
8.800000000000006
 30
-0.8900000000000004
 11
-0.259999999999998
 21
8.800000000000006
 31
-0.8599999999999992
 12
-0.2600000000000016
 22
9.3000000000000025
 32
-0.6300000000000007
 13
-0.110000000000003
 23
9.3000000000000025
 33
-0.700000000000001
  0
3DFACE
  5
1DF
  8
0
 10
-0.729999999999997
 20
8.800000000000006
 30
0.2199999999999989
 11
-0.7699999999999961
 21
8.800000000000006
 31
0.0299999999999976
 12
-0.9700000000000024
 22
7.670000000000007
 32
0.1999999999999975
 13
-0.9295918367346969
 23
7.6700000000000008
 33
0.3799999999999972
  0
3DFACE
  5
1E0
  8
0
 10
-0.6699999999999983
 20
8.800000000000006
 30
0.3499999999999996
 11
-0.7299999999999971
 21
8.800000000000006
 31
0.2199999999999989
 12
-0.9295918367346969
 22
7.6700000000000008
 32
0.3799999999999972
 13
-0.9295918367346969
 23
7.6700000000000008
 33
0.3799999999999972
  0
3DFACE
  5
1E1
  8
0
 10
0.9295918367346898
 20
7.6700000000000008
 30
0.3799999999999972
 11
0.9699999999999953
 21
7.669999999999999
 31
0.1999999999999975
 12
0.7699999999999961
 22
8.7999999999999972
 32
0.0299999999999976
 13
0.7299999999999967
 23
8.8000000000000007
 33
0.2200000000000006
  0
3DFACE
  5
1E2
  8
0
 10
0.9295918367346892
 20
7.669999999999999
 30
0.3799999999999972
 11
0.9295918367346892
 21
7.669999999999999
 31
0.3799999999999972
 12
0.7299999999999967
 22
8.8000000000000007
 32
0.2200000000000006
 13
0.6699999999999982
 23
8.8000000000000025
 33
0.3499999999999996
  0
3DFACE
  5
1ED
  8
0
 10
-0.1700000000000053
 20
7.6700000000000017
 30
1.229999999999996
 11
-0.0000000000000036
 21
7.6700000000000017
 31
1.229999999999996
 12
-0.0000000000000036
 22
8.1700000000000017
 32
1.139999999999997
 13
-0.1700000000000053
 23
8.1700000000000017
 33
1.139999999999997
  0
3DFACE
  5
1EE
  8
0
 10
-0.1700000000000053
 20
8.1700000000000017
 30
1.139999999999997
 11
-0.3300000000000019
 21
8.1700000000000017
 31
1.119999999999997
 12
-0.3300000000000019
 22
7.6700000000000017
 32
1.2099999999999971
 13
-0.1700000000000053
 23
7.6700000000000017
 33
1.229999999999996
  0
3DFACE
  5
1EF
  8
0
 10
-0.6300000000000061
 20
8.1700000000000017
 30
0.9599999999999972
 11
-0.7500000000000036
 21
8.1700000000000017
 31
0.8499999999999996
 12
-0.7500000000000036
 22
7.6700000000000017
 32
0.9299999999999979
 13
-0.6300000000000061
 23
7.6700000000000017
 33
1.0499999999999969
  0
3DFACE
  5
1F0
  8
0
 10
-0.5000000000000037
 20
8.1700000000000017
 30
1.0499999999999969
 11
-0.6300000000000061
 21
8.1700000000000017
 31
0.9599999999999972
 12
-0.6300000000000061
 22
7.6700000000000017
 32
1.0499999999999969
 13
-0.5000000000000037
 23
7.6700000000000017
 33
1.139999999999997
  0
3DFACE
  5
1F1
  8
0
 10
-0.3300000000000019
 20
8.1700000000000017
 30
1.119999999999997
 11
-0.5000000000000037
 21
8.1700000000000017
 31
1.0499999999999969
 12
-0.5000000000000037
 22
7.6700000000000017
 32
1.139999999999997
 13
-0.3300000000000019
 23
7.6700000000000017
 33
1.2099999999999971
  0
3DFACE
  5
1F2
  8
0
 10
0.1699999999999981
 20
8.1700000000000017
 30
1.139999999999997
 11
-0.0000000000000036
 21
8.1700000000000017
 31
1.139999999999997
 12
-0.0000000000000036
 22
7.6700000000000017
 32
1.229999999999996
 13
0.1699999999999981
 23
7.6700000000000017
 33
1.229999999999996
  0
3DFACE
  5
1F3
  8
0
 10
0.1699999999999981
 20
7.6700000000000017
 30
1.229999999999996
 11
0.3299999999999947
 21
7.6700000000000017
 31
1.2099999999999971
 12
0.3299999999999947
 22
8.1700000000000017
 32
1.119999999999997
 13
0.1699999999999981
 23
8.1700000000000017
 33
1.139999999999997
  0
3DFACE
  5
1F4
  8
0
 10
0.3299999999999947
 20
7.6700000000000017
 30
1.2099999999999971
 11
0.4999999999999965
 21
7.6700000000000017
 31
1.139999999999997
 12
0.4999999999999965
 22
8.1700000000000017
 32
1.0499999999999969
 13
0.3299999999999947
 23
8.1700000000000017
 33
1.119999999999997
  0
3DFACE
  5
1F5
  8
0
 10
0.4999999999999965
 20
7.6700000000000017
 30
1.139999999999997
 11
0.629999999999999
 21
7.6700000000000017
 31
1.0499999999999969
 12
0.629999999999999
 22
8.1700000000000017
 32
0.9599999999999972
 13
0.4999999999999965
 23
8.1700000000000017
 33
1.0499999999999969
  0
3DFACE
  5
1F6
  8
0
 10
0.629999999999999
 20
7.6700000000000017
 30
1.0499999999999969
 11
0.7499999999999965
 21
7.6700000000000017
 31
0.9299999999999979
 12
0.7499999999999965
 22
8.1700000000000017
 32
0.8499999999999996
 13
0.629999999999999
 23
8.1700000000000017
 33
0.9599999999999972
  0
3DFACE
  5
1F7
  8
0
 10
-0.7500000000000036
 20
8.1700000000000017
 30
0.8499999999999996
 11
-0.8147281921618221
 21
8.1700000000000017
 31
0.3667256637168119
 12
-0.9295918367346969
 22
7.6700000000000008
 32
0.3799999999999972
 13
-0.8600000000000029
 23
7.6700000000000061
 33
0.6899999999999978
  0
3DFACE
  5
1F8
  8
0
 10
0.8599999999999958
 20
7.669999999999999
 30
0.6899999999999978
 11
0.9295918367346892
 21
7.669999999999999
 31
0.3799999999999972
 12
0.8147281921618159
 22
8.1700000000000017
 32
0.3667256637168119
 13
0.7499999999999965
 23
8.1700000000000017
 33
0.8499999999999996
  0
3DFACE
  5
1F9
  8
0
 10
-0.7500000000000036
 20
8.1700000000000017
 30
0.8499999999999996
 11
-0.7500000000000036
 21
8.1700000000000017
 31
0.8499999999999996
 12
-0.8600000000000029
 22
7.6700000000000061
 32
0.6899999999999978
 13
-0.7500000000000036
 23
7.6700000000000017
 33
0.9299999999999979
  0
3DFACE
  5
1FB
  8
0
 10
0.7499999999999965
 20
7.6700000000000017
 30
0.9299999999999979
 11
0.8599999999999958
 21
7.669999999999999
 31
0.6899999999999978
 12
0.7499999999999965
 22
8.1700000000000017
 32
0.8499999999999996
 13
0.7499999999999965
 23
8.1700000000000017
 33
0.8499999999999996
  0
3DFACE
  5
202
  8
0
 10
0.0
 20
8.6799999999999997
 30
0.8499999999999996
 11
0.0
 21
8.6799999999999997
 31
0.8499999999999996
 12
-0.7500000000000036
 22
8.1700000000000017
 32
0.8499999999999996
 13
-0.6300000000000061
 23
8.1700000000000017
 33
0.9599999999999972
  0
3DFACE
  5
203
  8
0
 10
-0.1700000000000017
 20
8.1700000000000017
 30
1.1399999999999979
 11
0.0
 21
8.1700000000000017
 31
1.1399999999999979
 12
0.0
 22
8.5
 32
1.0199999999999989
 13
0.0
 23
8.5
 33
1.0199999999999989
  0
3DFACE
  5
204
  8
0
 10
0.0
 20
8.5
 30
1.0199999999999989
 11
0.0
 21
8.5
 31
1.0199999999999989
 12
-0.3300000000000019
 22
8.1699999999999946
 32
1.1200000000000001
 13
-0.1700000000000053
 23
8.1699999999999946
 33
1.1399999999999999
  0
3DFACE
  5
205
  8
0
 10
0.0
 20
8.5
 30
1.0199999999999989
 11
0.0
 21
8.6799999999999997
 31
0.8499999999999996
 12
-0.6300000000000061
 22
8.1700000000000017
 32
0.9599999999999972
 13
-0.5000000000000037
 23
8.1700000000000017
 33
1.0499999999999969
  0
3DFACE
  5
206
  8
0
 10
-0.0000000000000001
 20
8.5
 30
1.0199999999999989
 11
-0.0000000000000001
 21
8.5
 31
1.0199999999999989
 12
-0.5000000000000037
 22
8.1700000000000017
 32
1.0499999999999969
 13
-0.3300000000000019
 23
8.1699999999999946
 33
1.1200000000000001
  0
3DFACE
  5
207
  8
0
 10
-0.0000000000000002
 20
8.5
 30
1.0199999999999989
 11
-0.0000000000000002
 21
8.5
 31
1.0199999999999989
 12
0.0
 22
8.1700000000000017
 32
1.1399999999999979
 13
0.1700000000000017
 23
8.1700000000000017
 33
1.1399999999999979
  0
3DFACE
  5
208
  8
0
 10
-0.0000000000000002
 20
8.5
 30
1.0199999999999989
 11
-0.0000000000000002
 21
8.5
 31
1.0199999999999989
 12
0.1699999999999839
 22
8.1700000000000017
 32
1.1399999999999979
 13
0.3299999999999947
 23
8.1700000000000017
 33
1.119999999999997
  0
3DFACE
  5
209
  8
0
 10
-0.0000000000000002
 20
8.5
 30
1.0199999999999989
 11
-0.0000000000000002
 21
8.5
 31
1.0199999999999989
 12
0.3299999999999779
 22
8.1700000000000017
 32
1.119999999999997
 13
0.4999999999999965
 23
8.1700000000000017
 33
1.0499999999999969
  0
3DFACE
  5
20A
  8
0
 10
0.4999999999999965
 20
8.1700000000000017
 30
1.0499999999999969
 11
0.629999999999999
 21
8.1700000000000017
 31
0.9599999999999972
 12
0.0
 22
8.6799999999999997
 32
0.8499999999999996
 13
-0.0000000000000005
 23
8.5
 33
1.0199999999999989
  0
3DFACE
  5
20B
  8
0
 10
0.629999999999999
 20
8.1700000000000017
 30
0.9599999999999972
 11
0.7499999999999965
 21
8.1700000000000017
 31
0.8499999999999996
 12
0.0
 22
8.6799999999999997
 32
0.8499999999999996
 13
0.0
 23
8.6799999999999997
 33
0.8499999999999996
  0
3DFACE
  5
20C
  8
0
 10
0.0
 20
8.6799999999999997
 30
0.8499999999999996
 11
-0.3299999999999983
 21
8.800000000000006
 31
0.5399999999999992
 12
-0.8147281921618221
 22
8.1700000000000017
 32
0.3667256637168119
 13
-0.7500000000000036
 23
8.1700000000000017
 33
0.8499999999999996
  0
3DFACE
  5
20D
  8
0
 10
-0.3299999999999983
 20
8.800000000000006
 30
0.5399999999999992
 11
-0.4199999999999983
 21
8.800000000000006
 31
0.5199999999999996
 12
-0.8147281921618221
 22
8.1700000000000017
 32
0.3667256637168119
 13
-0.8147281921618221
 23
8.1700000000000017
 33
0.3667256637168119
  0
3DFACE
  5
20E
  8
0
 10
-0.4199999999999984
 20
8.800000000000006
 30
0.5199999999999996
 11
-0.5099999999999982
 21
8.800000000000006
 31
0.4800000000000005
 12
-0.8147281921618221
 22
8.1700000000000017
 32
0.3667256637168119
 13
-0.8147281921618221
 23
8.1700000000000017
 33
0.3667256637168119
  0
3DFACE
  5
20F
  8
0
 10
-0.5099999999999982
 20
8.800000000000006
 30
0.4800000000000005
 11
-0.6699999999999983
 21
8.800000000000006
 31
0.3499999999999996
 12
-0.8147281921618221
 22
8.1700000000000017
 32
0.3667256637168119
 13
-0.8147281921618221
 23
8.1700000000000017
 33
0.3667256637168119
  0
3DFACE
  5
210
  8
0
 10
0.7499999999999965
 20
8.1700000000000035
 30
0.8499999999999996
 11
0.8147281921618159
 21
8.1700000000000017
 31
0.3667256637168119
 12
0.3299999999999983
 22
8.8000000000000025
 32
0.5399999999999992
 13
0.0
 23
8.6799999999999997
 33
0.8499999999999996
  0
3DFACE
  5
211
  8
0
 10
0.8147281921618175
 20
8.1699999999999982
 30
0.3667256637168119
 11
0.8147281921618175
 21
8.1699999999999982
 31
0.3667256637168119
 12
0.4199999999999982
 22
8.8000000000000025
 32
0.5199999999999996
 13
0.3299999999999983
 23
8.8000000000000025
 33
0.5399999999999992
  0
3DFACE
  5
212
  8
0
 10
0.8147281921618175
 20
8.1699999999999982
 30
0.3667256637168119
 11
0.8147281921618175
 21
8.1699999999999982
 31
0.3667256637168119
 12
0.509999999999998
 22
8.8000000000000025
 32
0.4800000000000005
 13
0.4199999999999982
 23
8.8000000000000025
 33
0.5199999999999996
  0
3DFACE
  5
213
  8
0
 10
0.8147281921618175
 20
8.1699999999999982
 30
0.3667256637168119
 11
0.8147281921618175
 21
8.1699999999999982
 31
0.3667256637168119
 12
0.6699999999999982
 22
8.8000000000000025
 32
0.3499999999999996
 13
0.509999999999998
 23
8.8000000000000025
 33
0.4800000000000005
  0
3DFACE
  5
214
  8
0
 10
-0.0000000000000001
 20
8.6800000000000015
 30
0.8499999999999996
 11
0.3299999999999983
 21
8.8000000000000025
 31
0.5399999999999992
 12
0.1699999999999981
 22
8.8000000000000025
 32
0.5500000000000007
 13
-0.0000000000000029
 23
8.6800000000000033
 33
0.8499999999999996
  0
3DFACE
  5
215
  8
0
 10
-0.0000000000000061
 20
8.6799999999999997
 30
0.8500000000000049
 11
0.1699999999999981
 21
8.8000000000000025
 31
0.5500000000000007
 12
0.0000000000000035
 22
8.8000000000000025
 32
0.5599999999999988
 13
-0.0000000000000061
 23
8.6799999999999997
 33
0.8500000000000049
  0
3DFACE
  5
216
  8
0
 10
-0.0000000000000065
 20
8.6799999999999962
 30
0.8500000000000049
 11
0.0000000000000035
 21
8.8000000000000025
 31
0.5599999999999988
 12
-0.1699999999999982
 22
8.800000000000006
 32
0.5500000000000007
 13
-0.0000000000000065
 23
8.6799999999999962
 33
0.8500000000000049
  0
3DFACE
  5
217
  8
0
 10
-0.0000000000000205
 20
8.6800000000000086
 30
0.8499999999999801
 11
-0.1699999999999981
 21
8.800000000000006
 31
0.5500000000000007
 12
-0.3299999999999984
 22
8.800000000000006
 32
0.5399999999999992
 13
-0.0000000000000205
 23
8.6800000000000086
 33
0.8499999999999801
  0
3DFACE
  5
219
  8
0
 10
-0.2000000000000028
 20
-8.2599999999999998
 30
0.9600000000000026
 11
-0.2000000000000064
 21
-8.4599999999999991
 31
0.9600000000000026
 12
-0.2000000000000064
 22
-8.4599999999999991
 32
1.5200000000000009
 13
-0.2000000000000028
 23
-8.2099999999999991
 33
1.5200000000000009
  0
3DFACE
  5
21B
  8
0
 10
-0.2000000000000064
 20
-8.4599999999999991
 30
1.5200000000000009
 11
-0.2000000000000064
 21
-8.4599999999999991
 31
0.9600000000000026
 12
-0.0000000000000036
 22
-9.8399999999999981
 32
0.9600000000000026
 13
-0.0000000000000036
 23
-9.8399999999999981
 33
1.5200000000000009
  0
3DFACE
  5
21D
  8
0
 10
0.0
 20
-1.679999999999999
 30
1.5200000000000009
 11
0.0
 21
-1.679999999999999
 31
0.9600000000000026
 12
-0.2000000000000028
 22
-8.2599999999999998
 32
0.9600000000000026
 13
-0.2000000000000028
 23
-8.2099999999999991
 33
1.5200000000000009
  0
3DFACE
  5
220
  8
0
 10
-0.1300000000000026
 20
-8.2499999999999982
 30
0.6500000000000039
 11
-0.1300000000000061
 21
-8.4599999999999991
 31
0.6500000000000039
 12
-0.2000000000000064
 22
-8.4599999999999991
 32
0.9600000000000026
 13
-0.2000000000000028
 23
-8.2599999999999998
 33
0.9600000000000026
  0
3DFACE
  5
221
  8
0
 10
-0.2000000000000064
 20
-8.4599999999999991
 30
0.9600000000000026
 11
-0.1300000000000061
 21
-8.4599999999999991
 31
0.6500000000000039
 12
-0.0000000000000036
 22
-9.4500000000000011
 32
0.6500000000000039
 13
-0.0000000000000036
 23
-9.8399999999999981
 33
0.9600000000000026
  0
3DFACE
  5
223
  8
0
 10
0.0
 20
-1.679999999999999
 30
0.9600000000000026
 11
0.0
 21
-1.679999999999999
 31
0.6500000000000039
 12
-0.1300000000000026
 22
-8.2499999999999982
 32
0.6500000000000039
 13
-0.2000000000000028
 23
-8.2599999999999998
 33
0.9600000000000026
  0
3DFACE
  5
224
  8
0
 10
0.0
 20
-1.679999999999999
 30
0.6500000000000039
 11
-0.0000000000000036
 21
-9.4500000000000011
 31
0.6500000000000039
 12
-0.1300000000000061
 22
-8.4599999999999991
 32
0.6500000000000039
 13
-0.1300000000000026
 23
-8.2499999999999982
 33
0.6500000000000039
  0
3DFACE
  5
229
  8
0
 10
-0.2000000000000028
 20
-8.2099999999999991
 30
1.5200000000000009
 11
-0.2000000000000064
 21
-8.4599999999999991
 31
1.5200000000000009
 12
-0.1900000000000048
 22
-8.4599999999999991
 32
1.600000000000003
 13
-0.1900000000000013
 23
-8.1899999999999995
 33
1.600000000000003
  0
3DFACE
  5
22A
  8
0
 10
-0.1900000000000048
 20
-8.4599999999999991
 30
1.600000000000003
 11
-0.2000000000000064
 21
-8.4599999999999991
 31
1.5200000000000009
 12
-0.0000000000000036
 22
-9.8399999999999981
 32
1.5200000000000009
 13
-0.0000000000000036
 23
-9.8399999999999981
 33
1.600000000000003
  0
3DFACE
  5
22B
  8
0
 10
0.0
 20
-4.339999999999999
 30
1.600000000000003
 11
0.0
 21
-1.679999999999999
 31
1.5200000000000009
 12
-0.2000000000000028
 22
-8.2099999999999991
 32
1.5200000000000009
 13
-0.1900000000000013
 23
-8.1899999999999995
 33
1.600000000000003
  0
3DFACE
  5
230
  8
0
 10
-0.1900000000000048
 20
-8.4599999999999991
 30
1.680000000000005
 11
-0.1900000000000048
 21
-8.4599999999999991
 31
1.600000000000003
 12
-0.0000000000000036
 22
-9.8399999999999981
 32
1.600000000000003
 13
-0.0000000000000036
 23
-9.8199999999999985
 33
1.680000000000005
  0
3DFACE
  5
231
  8
0
 10
0.0
 20
-5.299999999999998
 30
1.680000000000005
 11
0.0
 21
-4.339999999999999
 31
1.600000000000003
 12
-0.1900000000000013
 22
-8.1899999999999995
 32
1.600000000000003
 13
-0.1900000000000013
 23
-8.1599999999999984
 33
1.680000000000005
  0
3DFACE
  5
232
  8
0
 10
-0.1900000000000013
 20
-8.1899999999999995
 30
1.600000000000003
 11
-0.1900000000000048
 21
-8.4599999999999991
 31
1.600000000000003
 12
-0.1900000000000048
 22
-8.4599999999999991
 32
1.680000000000005
 13
-0.1900000000000013
 23
-8.1599999999999984
 33
1.680000000000005
  0
3DFACE
  5
236
  8
0
 10
-0.1900000000000013
 20
-8.1599999999999984
 30
1.680000000000005
 11
-0.1900000000000048
 21
-8.4599999999999991
 31
1.680000000000005
 12
-0.1900000000000048
 22
-8.4599999999999991
 32
1.780000000000002
 13
-0.1900000000000013
 23
-8.1300000000000008
 33
1.780000000000002
  0
3DFACE
  5
237
  8
0
 10
-0.1900000000000048
 20
-8.4599999999999991
 30
1.780000000000002
 11
-0.1900000000000048
 21
-8.4599999999999991
 31
1.680000000000005
 12
-0.0000000000000036
 22
-9.8199999999999985
 32
1.680000000000005
 13
-0.0000000000000036
 23
-9.8100000000000005
 33
1.780000000000002
  0
3DFACE
  5
239
  8
0
 10
0.0
 20
-5.9000000000000004
 30
1.780000000000002
 11
0.0
 21
-5.299999999999998
 31
1.680000000000005
 12
-0.1900000000000013
 22
-8.1599999999999984
 32
1.680000000000005
 13
-0.1900000000000013
 23
-8.1300000000000008
 33
1.780000000000002
  0
3DFACE
  5
23E
  8
0
 10
-0.1900000000000013
 20
-8.1300000000000008
 30
1.780000000000002
 11
-0.1900000000000048
 21
-8.4599999999999991
 31
1.780000000000002
 12
-0.1800000000000068
 22
-8.4599999999999991
 32
1.8800000000000039
 13
-0.1800000000000033
 23
-8.1100000000000012
 33
1.8800000000000039
  0
3DFACE
  5
23F
  8
0
 10
0.0
 20
-6.0800000000000001
 30
1.8800000000000039
 11
0.0
 21
-5.9000000000000004
 31
1.780000000000002
 12
-0.1900000000000013
 22
-8.1300000000000008
 32
1.780000000000002
 13
-0.1800000000000033
 23
-8.1100000000000012
 33
1.8800000000000039
  0
3DFACE
  5
240
  8
0
 10
-0.1800000000000068
 20
-8.4599999999999991
 30
1.8800000000000039
 11
-0.1900000000000048
 21
-8.4599999999999991
 31
1.780000000000002
 12
-0.0000000000000036
 22
-9.8100000000000005
 32
1.780000000000002
 13
-0.0000000000000036
 23
-9.7799999999999994
 33
1.8800000000000039
  0
3DFACE
  5
244
  8
0
 10
-0.1800000000000033
 20
-8.1100000000000012
 30
1.8800000000000039
 11
-0.1800000000000068
 21
-8.4599999999999991
 31
1.8800000000000039
 12
-0.1700000000000053
 22
-8.4599999999999991
 32
2.040000000000004
 13
-0.1700000000000053
 23
-8.0499999999999972
 33
2.040000000000004
  0
3DFACE
  5
247
  8
0
 10
-0.1700000000000053
 20
-8.4599999999999991
 30
2.040000000000004
 11
-0.1800000000000068
 21
-8.4599999999999991
 31
1.8800000000000039
 12
-0.0000000000000036
 22
-9.7799999999999994
 32
1.8800000000000039
 13
-0.0000000000000036
 23
-9.7599999999999998
 33
2.040000000000004
  0
3DFACE
  5
248
  8
0
 10
-0.0000000000000036
 20
-6.2299999999999978
 30
2.040000000000004
 11
0.0
 21
-6.0800000000000001
 31
1.8800000000000039
 12
-0.1800000000000033
 22
-8.1100000000000012
 32
1.8800000000000039
 13
-0.1700000000000053
 23
-8.0499999999999972
 33
2.040000000000004
  0
3DFACE
  5
24B
  8
0
 10
0.0
 20
-7.2499999999999982
 30
3.5200000000000009
 11
-0.0000000000000036
 21
-6.2299999999999978
 31
2.040000000000004
 12
-0.1700000000000053
 22
-8.0499999999999972
 32
2.040000000000004
 13
-0.0800000000000054
 23
-7.9799999999999978
 33
3.5200000000000009
  0
3DFACE
  5
24E
  8
0
 10
-0.1700000000000053
 20
-8.0499999999999972
 30
2.040000000000004
 11
-0.1700000000000053
 21
-8.4599999999999991
 31
2.040000000000004
 12
-0.0800000000000054
 22
-8.4500000000000011
 32
3.5200000000000009
 13
-0.0800000000000054
 23
-7.9799999999999978
 33
3.5200000000000009
  0
3DFACE
  5
24F
  8
0
 10
-0.0800000000000054
 20
-8.4500000000000011
 30
3.5200000000000009
 11
-0.1700000000000053
 21
-8.4599999999999991
 31
2.040000000000004
 12
-0.0000000000000036
 22
-9.7599999999999998
 32
2.040000000000004
 13
-0.0000000000000036
 23
-9.5399999999999991
 33
3.5200000000000009
  0
3DFACE
  5
252
  8
0
 10
-0.0800000000000054
 20
-7.9799999999999978
 30
3.5200000000000009
 11
-0.0800000000000054
 21
-8.4500000000000011
 31
3.5200000000000009
 12
-0.0600000000000058
 22
-8.4399999999999995
 32
3.8900000000000019
 13
-0.0600000000000058
 23
-8.1399999999999988
 33
3.8900000000000019
  0
3DFACE
  5
254
  8
0
 10
0.0
 20
-7.6299999999999999
 30
3.8900000000000019
 11
0.0
 21
-7.2499999999999982
 31
3.5200000000000009
 12
-0.0800000000000054
 22
-7.9799999999999978
 32
3.5200000000000009
 13
-0.0600000000000058
 23
-8.1399999999999988
 33
3.8900000000000019
  0
3DFACE
  5
255
  8
0
 10
-0.0600000000000058
 20
-8.4399999999999995
 30
3.8900000000000019
 11
-0.0800000000000054
 21
-8.4500000000000011
 31
3.5200000000000009
 12
-0.0000000000000036
 22
-9.5399999999999991
 32
3.5200000000000009
 13
-0.0000000000000036
 23
-9.4799999999999986
 33
3.8900000000000019
  0
3DFACE
  5
259
  8
0
 10
-0.0000000000000036
 20
-8.0600000000000005
 30
4.0800000000000027
 11
0.0
 21
-7.6299999999999999
 31
3.8900000000000019
 12
-0.0600000000000058
 22
-8.1399999999999988
 32
3.8900000000000019
 13
-0.0400000000000063
 23
-8.3899999999999988
 33
4.0800000000000027
  0
3DFACE
  5
25B
  8
0
 10
-0.0600000000000058
 20
-8.1399999999999988
 30
3.8900000000000019
 11
-0.0600000000000058
 21
-8.4399999999999995
 31
3.8900000000000019
 12
-0.0400000000000063
 22
-8.4999999999999982
 32
4.0800000000000027
 13
-0.0400000000000063
 23
-8.3899999999999988
 33
4.0800000000000027
  0
3DFACE
  5
25C
  8
0
 10
-0.0400000000000063
 20
-8.4999999999999982
 30
4.0800000000000027
 11
-0.0600000000000058
 21
-8.4399999999999995
 31
3.8900000000000019
 12
-0.0000000000000036
 22
-9.4799999999999986
 32
3.8900000000000019
 13
-0.0000000000000036
 23
-9.0600000000000005
 33
4.0800000000000027
  0
3DFACE
  5
260
  8
0
 10
-0.0400000000000063
 20
-8.3899999999999988
 30
4.0800000000000027
 11
-0.0400000000000063
 21
-8.4999999999999982
 31
4.0800000000000027
 12
-0.0100000000000051
 22
-8.7899999999999974
 32
4.1399999999999979
 13
-0.0100000000000051
 23
-8.4699999999999971
 33
4.1399999999999979
  0
3DFACE
  5
262
  8
0
 10
-0.0000000000000036
 20
-8.4699999999999971
 30
4.150000000000003
 11
-0.0000000000000036
 21
-8.0600000000000005
 31
4.0800000000000027
 12
-0.0400000000000063
 22
-8.3899999999999988
 32
4.0800000000000027
 13
-0.0100000000000051
 23
-8.4699999999999971
 33
4.1399999999999979
  0
3DFACE
  5
263
  8
0
 10
-0.0100000000000051
 20
-8.7899999999999974
 30
4.1399999999999979
 11
-0.0400000000000063
 21
-8.4999999999999982
 31
4.0800000000000027
 12
-0.0000000000000036
 22
-9.0600000000000005
 32
4.0800000000000027
 13
-0.0000000000000036
 23
-8.7899999999999974
 33
4.150000000000003
  0
3DFACE
  5
265
  8
0
 10
-0.0100000000000051
 20
-8.4699999999999971
 30
4.1399999999999979
 11
-0.0100000000000051
 21
-8.7899999999999974
 31
4.1399999999999979
 12
-0.0000000000000036
 22
-8.7899999999999974
 32
4.150000000000003
 13
-0.0000000000000036
 23
-8.4699999999999971
 33
4.150000000000003
  0
3DFACE
  5
26C
  8
0
 10
0.0099999999999945
 20
-8.4699999999999971
 30
4.1399999999999979
 11
0.0399999999999992
 21
-8.3899999999999988
 31
4.0800000000000027
 12
-0.0000000000000036
 22
-8.0600000000000005
 32
4.0800000000000027
 13
-0.0000000000000036
 23
-8.4699999999999971
 33
4.150000000000003
  0
3DFACE
  5
26D
  8
0
 10
0.0099999999999945
 20
-8.7899999999999974
 30
4.1399999999999979
 11
0.0399999999999956
 21
-8.4999999999999982
 31
4.0800000000000027
 12
0.0399999999999992
 22
-8.3899999999999988
 32
4.0800000000000027
 13
0.0099999999999945
 23
-8.4699999999999971
 33
4.1399999999999979
  0
3DFACE
  5
270
  8
0
 10
0.0399999999999956
 20
-8.4999999999999982
 30
4.0800000000000027
 11
0.0600000000000023
 21
-8.4399999999999995
 31
3.8900000000000019
 12
0.0600000000000023
 22
-8.1399999999999988
 32
3.8900000000000019
 13
0.0399999999999992
 23
-8.3899999999999988
 33
4.0800000000000027
  0
3DFACE
  5
273
  8
0
 10
0.0600000000000023
 20
-8.4399999999999995
 30
3.8900000000000019
 11
0.0800000000000019
 21
-8.4500000000000011
 31
3.5200000000000009
 12
0.0800000000000019
 22
-7.9799999999999978
 32
3.5200000000000009
 13
0.0600000000000023
 23
-8.1399999999999988
 33
3.8900000000000019
  0
3DFACE
  5
278
  8
0
 10
0.0800000000000019
 20
-8.4500000000000011
 30
3.5200000000000009
 11
0.1699999999999946
 21
-8.4599999999999991
 31
2.040000000000004
 12
0.1699999999999946
 22
-8.0499999999999972
 32
2.040000000000004
 13
0.0800000000000019
 23
-7.9799999999999978
 33
3.5200000000000009
  0
3DFACE
  5
27D
  8
0
 10
0.1699999999999946
 20
-8.4599999999999991
 30
2.040000000000004
 11
0.1799999999999962
 21
-8.4599999999999991
 31
1.8800000000000039
 12
0.1799999999999997
 22
-8.1100000000000012
 32
1.8800000000000039
 13
0.1699999999999946
 23
-8.0499999999999972
 33
2.040000000000004
  0
3DFACE
  5
280
  8
0
 10
0.1799999999999962
 20
-8.4599999999999991
 30
1.8800000000000039
 11
0.1899999999999942
 21
-8.4599999999999991
 31
1.780000000000002
 12
0.1899999999999977
 22
-8.1300000000000008
 32
1.780000000000002
 13
0.1799999999999997
 23
-8.1100000000000012
 33
1.8800000000000039
  0
3DFACE
  5
285
  8
0
 10
0.1899999999999942
 20
-8.4599999999999991
 30
1.780000000000002
 11
0.1899999999999942
 21
-8.4599999999999991
 31
1.680000000000005
 12
0.1899999999999977
 22
-8.1599999999999984
 32
1.680000000000005
 13
0.1899999999999977
 23
-8.1300000000000008
 33
1.780000000000002
  0
3DFACE
  5
288
  8
0
 10
0.1899999999999942
 20
-8.4599999999999991
 30
1.680000000000005
 11
0.1899999999999942
 21
-8.4599999999999991
 31
1.600000000000003
 12
0.1899999999999977
 22
-8.1899999999999995
 32
1.600000000000003
 13
0.1899999999999977
 23
-8.1599999999999984
 33
1.680000000000005
  0
3DFACE
  5
289
  8
0
 10
0.1899999999999942
 20
-8.4599999999999991
 30
1.600000000000003
 11
0.1999999999999993
 21
-8.4599999999999991
 31
1.5200000000000009
 12
0.2000000000000028
 22
-8.2099999999999991
 32
1.5200000000000009
 13
0.1899999999999977
 23
-8.1899999999999995
 33
1.600000000000003
  0
3DFACE
  5
28F
  8
0
 10
0.1999999999999993
 20
-8.4599999999999991
 30
1.5200000000000009
 11
0.1999999999999993
 21
-8.4599999999999991
 31
0.9600000000000026
 12
0.2000000000000028
 22
-8.2599999999999998
 32
0.9600000000000026
 13
0.2000000000000028
 23
-8.2099999999999991
 33
1.5200000000000009
  0
3DFACE
  5
293
  8
0
 10
0.1999999999999993
 20
-8.4599999999999991
 30
0.9600000000000026
 11
0.1299999999999954
 21
-8.4599999999999991
 31
0.6500000000000039
 12
0.129999999999999
 22
-8.2499999999999982
 32
0.6500000000000039
 13
0.2000000000000028
 23
-8.2599999999999998
 33
0.9600000000000026
  0
3DFACE
  5
295
  8
0
 10
0.129999999999999
 20
-8.2499999999999982
 30
0.6500000000000039
 11
0.1299999999999954
 21
-8.4599999999999991
 31
0.6500000000000039
 12
-0.0000000000000036
 22
-9.4500000000000011
 32
0.6500000000000039
 13
0.0
 23
-1.679999999999999
 33
0.6500000000000039
  0
3DFACE
  5
297
  8
0
 10
0.2000000000000028
 20
-8.2099999999999991
 30
1.5200000000000009
 11
0.2000000000000028
 21
-8.2599999999999998
 31
0.9600000000000026
 12
0.0
 22
-1.679999999999999
 32
0.9600000000000026
 13
0.0
 23
-1.679999999999999
 33
1.5200000000000009
  0
3DFACE
  5
298
  8
0
 10
0.2000000000000028
 20
-8.2599999999999998
 30
0.9600000000000026
 11
0.129999999999999
 21
-8.2499999999999982
 31
0.6500000000000039
 12
0.0
 22
-1.679999999999999
 32
0.6500000000000039
 13
0.0
 23
-1.679999999999999
 33
0.9600000000000026
  0
3DFACE
  5
299
  8
0
 10
0.0800000000000019
 20
-7.9799999999999978
 30
3.5200000000000009
 11
0.1699999999999946
 21
-8.0499999999999972
 31
2.040000000000004
 12
-0.0000000000000036
 22
-6.2299999999999978
 32
2.040000000000004
 13
0.0
 23
-7.2499999999999982
 33
3.5200000000000009
  0
3DFACE
  5
29A
  8
0
 10
0.1899999999999977
 20
-8.1899999999999995
 30
1.600000000000003
 11
0.2000000000000028
 21
-8.2099999999999991
 31
1.5200000000000009
 12
0.0
 22
-1.679999999999999
 32
1.5200000000000009
 13
0.0
 23
-4.339999999999999
 33
1.600000000000003
  0
3DFACE
  5
29B
  8
0
 10
0.1899999999999977
 20
-8.1599999999999984
 30
1.680000000000005
 11
0.1899999999999977
 21
-8.1899999999999995
 31
1.600000000000003
 12
0.0
 22
-4.339999999999999
 32
1.600000000000003
 13
0.0
 23
-5.299999999999998
 33
1.680000000000005
  0
3DFACE
  5
29C
  8
0
 10
0.1699999999999946
 20
-8.0499999999999972
 30
2.040000000000004
 11
0.1799999999999997
 21
-8.1100000000000012
 31
1.8800000000000039
 12
0.0
 22
-6.0800000000000001
 32
1.8800000000000039
 13
-0.0000000000000036
 23
-6.2299999999999978
 33
2.040000000000004
  0
3DFACE
  5
29D
  8
0
 10
0.1799999999999997
 20
-8.1100000000000012
 30
1.8800000000000039
 11
0.1899999999999977
 21
-8.1300000000000008
 31
1.780000000000002
 12
0.0
 22
-5.9000000000000004
 32
1.780000000000002
 13
0.0
 23
-6.0800000000000001
 33
1.8800000000000039
  0
3DFACE
  5
29E
  8
0
 10
0.1899999999999977
 20
-8.1300000000000008
 30
1.780000000000002
 11
0.1899999999999977
 21
-8.1599999999999984
 31
1.680000000000005
 12
0.0
 22
-5.299999999999998
 32
1.680000000000005
 13
0.0
 23
-5.9000000000000004
 33
1.780000000000002
  0
3DFACE
  5
29F
  8
0
 10
0.0399999999999992
 20
-8.3899999999999988
 30
4.0800000000000027
 11
0.0600000000000023
 21
-8.1399999999999988
 31
3.8900000000000019
 12
0.0
 22
-7.6299999999999999
 32
3.8900000000000019
 13
-0.0000000000000036
 23
-8.0600000000000005
 33
4.0800000000000027
  0
3DFACE
  5
2A0
  8
0
 10
0.0600000000000023
 20
-8.1399999999999988
 30
3.8900000000000019
 11
0.0800000000000019
 21
-7.9799999999999978
 31
3.5200000000000009
 12
0.0
 22
-7.2499999999999982
 32
3.5200000000000009
 13
0.0
 23
-7.6299999999999999
 33
3.8900000000000019
  0
3DFACE
  5
2A1
  8
0
 10
-0.0000000000000036
 20
-9.8399999999999981
 30
1.5200000000000009
 11
-0.0000000000000036
 21
-9.8399999999999981
 31
0.9600000000000026
 12
0.1999999999999993
 22
-8.4599999999999991
 32
0.9600000000000026
 13
0.1999999999999993
 23
-8.4599999999999991
 33
1.5200000000000009
  0
3DFACE
  5
2A2
  8
0
 10
-0.0000000000000036
 20
-9.8399999999999981
 30
0.9600000000000026
 11
-0.0000000000000036
 21
-9.4500000000000011
 31
0.6500000000000039
 12
0.1299999999999954
 22
-8.4599999999999991
 32
0.6500000000000039
 13
0.1999999999999993
 23
-8.4599999999999991
 33
0.9600000000000026
  0
3DFACE
  5
2A3
  8
0
 10
-0.0000000000000036
 20
-9.5399999999999991
 30
3.5200000000000009
 11
-0.0000000000000036
 21
-9.7599999999999998
 31
2.040000000000004
 12
0.1699999999999946
 22
-8.4599999999999991
 32
2.040000000000004
 13
0.0800000000000019
 23
-8.4500000000000011
 33
3.5200000000000009
  0
3DFACE
  5
2A4
  8
0
 10
-0.0000000000000036
 20
-9.7599999999999998
 30
2.040000000000004
 11
-0.0000000000000036
 21
-9.7799999999999994
 31
1.8800000000000039
 12
0.1799999999999962
 22
-8.4599999999999991
 32
1.8800000000000039
 13
0.1699999999999946
 23
-8.4599999999999991
 33
2.040000000000004
  0
3DFACE
  5
2A5
  8
0
 10
-0.0000000000000036
 20
-9.7799999999999994
 30
1.8800000000000039
 11
-0.0000000000000036
 21
-9.8100000000000005
 31
1.780000000000002
 12
0.1899999999999942
 22
-8.4599999999999991
 32
1.780000000000002
 13
0.1799999999999962
 23
-8.4599999999999991
 33
1.8800000000000039
  0
3DFACE
  5
2A6
  8
0
 10
-0.0000000000000036
 20
-9.8100000000000005
 30
1.780000000000002
 11
-0.0000000000000036
 21
-9.8199999999999985
 31
1.680000000000005
 12
0.1899999999999942
 22
-8.4599999999999991
 32
1.680000000000005
 13
0.1899999999999942
 23
-8.4599999999999991
 33
1.780000000000002
  0
3DFACE
  5
2A7
  8
0
 10
-0.0000000000000036
 20
-9.8199999999999985
 30
1.680000000000005
 11
-0.0000000000000036
 21
-9.8399999999999981
 31
1.600000000000003
 12
0.1899999999999942
 22
-8.4599999999999991
 32
1.600000000000003
 13
0.1899999999999942
 23
-8.4599999999999991
 33
1.680000000000005
  0
3DFACE
  5
2A8
  8
0
 10
-0.0000000000000036
 20
-9.8399999999999981
 30
1.600000000000003
 11
-0.0000000000000036
 21
-9.8399999999999981
 31
1.5200000000000009
 12
0.1999999999999993
 22
-8.4599999999999991
 32
1.5200000000000009
 13
0.1899999999999942
 23
-8.4599999999999991
 33
1.600000000000003
  0
3DFACE
  5
2A9
  8
0
 10
-0.0000000000000036
 20
-9.0600000000000005
 30
4.0800000000000027
 11
-0.0000000000000036
 21
-9.4799999999999986
 31
3.8900000000000019
 12
0.0600000000000023
 22
-8.4399999999999995
 32
3.8900000000000019
 13
0.0399999999999956
 23
-8.4999999999999982
 33
4.0800000000000027
  0
3DFACE
  5
2AA
  8
0
 10
-0.0000000000000036
 20
-9.4799999999999986
 30
3.8900000000000019
 11
-0.0000000000000036
 21
-9.5399999999999991
 31
3.5200000000000009
 12
0.0800000000000019
 22
-8.4500000000000011
 32
3.5200000000000009
 13
0.0600000000000023
 23
-8.4399999999999995
 33
3.8900000000000019
  0
3DFACE
  5
2AB
  8
0
 10
-0.0000000000000036
 20
-8.4699999999999971
 30
4.150000000000003
 11
-0.0000000000000036
 21
-8.7899999999999974
 31
4.150000000000003
 12
0.0099999999999945
 22
-8.7899999999999974
 32
4.1399999999999979
 13
0.0099999999999945
 23
-8.4699999999999971
 33
4.1399999999999979
  0
3DFACE
  5
2AC
  8
0
 10
-0.0000000000000036
 20
-8.7899999999999974
 30
4.150000000000003
 11
-0.0000000000000036
 21
-9.0600000000000005
 31
4.0800000000000027
 12
0.0399999999999956
 22
-8.4999999999999982
 32
4.0800000000000027
 13
0.0099999999999945
 23
-8.7899999999999974
 33
4.1399999999999979
  0
3DFACE
  5
440
  8
WHEELS
 10
-0.1000000000000001
 20
-7.4200000000000026
 30
-0.7200000000000006
 11
0.0
 21
-7.3200000000000021
 31
-0.7200000000000006
 12
0.0
 22
-7.2699999999999969
 32
-0.8066025403784456
 13
-0.1000000000000001
 23
-7.3200000000000021
 33
-0.893205080756889
  0
3DFACE
  5
441
  8
WHEELS
 10
0.0
 20
-7.3200000000000021
 30
-0.7200000000000006
 11
0.1000000000000001
 21
-7.4200000000000026
 31
-0.7200000000000006
 12
0.1000000000000001
 22
-7.3200000000000021
 32
-0.893205080756889
 13
0.0
 23
-7.2699999999999969
 33
-0.8066025403784456
  0
3DFACE
  5
442
  8
WHEELS
 10
0.1000000000000001
 20
-7.4200000000000026
 30
-0.7200000000000006
 11
0.0
 21
-7.520000000000004
 31
-0.7200000000000006
 12
0.0
 22
-7.3699999999999992
 32
-0.9798076211353359
 13
0.1000000000000001
 23
-7.3200000000000021
 33
-0.893205080756889
  0
3DFACE
  5
443
  8
WHEELS
 10
0.0
 20
-7.520000000000004
 30
-0.7200000000000006
 11
-0.1000000000000001
 21
-7.4200000000000026
 31
-0.7200000000000006
 12
-0.1000000000000001
 22
-7.3200000000000021
 32
-0.893205080756889
 13
0.0
 23
-7.3699999999999992
 33
-0.9798076211353359
  0
3DFACE
  5
444
  8
WHEELS
 10
-0.1000000000000001
 20
-7.3200000000000021
 30
-0.893205080756889
 11
0.0
 21
-7.2699999999999969
 31
-0.8066025403784456
 12
0.0
 22
-7.169999999999999
 32
-0.8066025403784474
 13
-0.1000000000000001
 23
-7.1199999999999992
 33
-0.8932050807568943
  0
3DFACE
  5
445
  8
WHEELS
 10
0.0
 20
-7.2699999999999969
 30
-0.8066025403784456
 11
0.1000000000000001
 21
-7.3200000000000021
 31
-0.893205080756889
 12
0.1000000000000001
 22
-7.1199999999999992
 32
-0.8932050807568943
 13
0.0
 23
-7.169999999999999
 33
-0.8066025403784474
  0
3DFACE
  5
446
  8
WHEELS
 10
0.1000000000000001
 20
-7.3200000000000021
 30
-0.893205080756889
 11
0.0
 21
-7.3699999999999992
 31
-0.9798076211353359
 12
0.0
 22
-7.0699999999999976
 32
-0.9798076211353377
 13
0.1000000000000001
 23
-7.1199999999999992
 33
-0.8932050807568943
  0
3DFACE
  5
447
  8
WHEELS
 10
0.0
 20
-7.3699999999999992
 30
-0.9798076211353359
 11
-0.1000000000000001
 21
-7.3200000000000021
 31
-0.893205080756889
 12
-0.1000000000000001
 22
-7.1199999999999992
 32
-0.8932050807568943
 13
0.0
 23
-7.0699999999999976
 33
-0.9798076211353377
  0
3DFACE
  5
448
  8
WHEELS
 10
-0.1000000000000001
 20
-7.1199999999999992
 30
-0.8932050807568943
 11
0.0
 21
-7.169999999999999
 31
-0.8066025403784474
 12
0.0
 22
-7.1199999999999992
 32
-0.7200000000000024
 13
-0.1000000000000001
 23
-7.0199999999999969
 33
-0.7200000000000024
  0
3DFACE
  5
449
  8
WHEELS
 10
0.0
 20
-7.169999999999999
 30
-0.8066025403784474
 11
0.1000000000000001
 21
-7.1199999999999992
 31
-0.8932050807568943
 12
0.1000000000000001
 22
-7.0199999999999969
 32
-0.7200000000000024
 13
0.0
 23
-7.1199999999999992
 33
-0.7200000000000024
  0
3DFACE
  5
44A
  8
WHEELS
 10
0.1000000000000001
 20
-7.1199999999999992
 30
-0.8932050807568943
 11
0.0
 21
-7.0699999999999976
 31
-0.9798076211353377
 12
0.0
 22
-6.9199999999999964
 32
-0.7200000000000024
 13
0.1000000000000001
 23
-7.0199999999999969
 33
-0.7200000000000024
  0
3DFACE
  5
44B
  8
WHEELS
 10
0.0
 20
-7.0699999999999976
 30
-0.9798076211353377
 11
-0.1000000000000001
 21
-7.1199999999999992
 31
-0.8932050807568943
 12
-0.1000000000000001
 22
-7.0199999999999969
 32
-0.7200000000000024
 13
0.0
 23
-6.9199999999999964
 33
-0.7200000000000024
  0
3DFACE
  5
44C
  8
WHEELS
 10
-0.1000000000000001
 20
-7.0199999999999969
 30
-0.7200000000000024
 11
0.0
 21
-7.1199999999999992
 31
-0.7200000000000024
 12
0.0
 22
-7.1699999999999964
 32
-0.6333974596215573
 13
-0.1000000000000001
 23
-7.1199999999999992
 33
-0.5467949192431139
  0
3DFACE
  5
44D
  8
WHEELS
 10
0.0
 20
-7.1199999999999992
 30
-0.7200000000000024
 11
0.1000000000000001
 21
-7.0199999999999969
 31
-0.7200000000000024
 12
0.1000000000000001
 22
-7.1199999999999992
 32
-0.5467949192431139
 13
0.0
 23
-7.1699999999999964
 33
-0.6333974596215573
  0
3DFACE
  5
44E
  8
WHEELS
 10
0.1000000000000001
 20
-7.0199999999999969
 30
-0.7200000000000024
 11
0.0
 21
-6.9199999999999964
 31
-0.7200000000000024
 12
0.0
 22
-7.0699999999999941
 32
-0.4601923788646669
 13
0.1000000000000001
 23
-7.1199999999999992
 33
-0.5467949192431139
  0
3DFACE
  5
44F
  8
WHEELS
 10
0.0
 20
-6.9199999999999964
 30
-0.7200000000000024
 11
-0.1000000000000001
 21
-7.0199999999999969
 31
-0.7200000000000024
 12
-0.1000000000000001
 22
-7.1199999999999992
 32
-0.5467949192431139
 13
0.0
 23
-7.0699999999999941
 33
-0.4601923788646669
  0
3DFACE
  5
450
  8
WHEELS
 10
-0.1000000000000001
 20
-7.1199999999999992
 30
-0.5467949192431139
 11
0.0
 21
-7.1699999999999964
 31
-0.6333974596215573
 12
0.0
 22
-7.2699999999999969
 32
-0.6333974596215573
 13
-0.1000000000000001
 23
-7.3200000000000021
 33
-0.5467949192431068
  0
3DFACE
  5
451
  8
WHEELS
 10
0.0
 20
-7.1699999999999964
 30
-0.6333974596215573
 11
0.1000000000000001
 21
-7.1199999999999992
 31
-0.5467949192431139
 12
0.1000000000000001
 22
-7.3200000000000021
 32
-0.5467949192431068
 13
0.0
 23
-7.2699999999999969
 33
-0.6333974596215573
  0
3DFACE
  5
452
  8
WHEELS
 10
0.1000000000000001
 20
-7.1199999999999992
 30
-0.5467949192431139
 11
0.0
 21
-7.0699999999999941
 31
-0.4601923788646669
 12
0.0
 22
-7.3699999999999992
 32
-0.4601923788646634
 13
0.1000000000000001
 23
-7.3200000000000021
 33
-0.5467949192431068
  0
3DFACE
  5
453
  8
WHEELS
 10
0.0
 20
-7.0699999999999941
 30
-0.4601923788646669
 11
-0.1000000000000001
 21
-7.1199999999999992
 31
-0.5467949192431139
 12
-0.1000000000000001
 22
-7.3200000000000021
 32
-0.5467949192431068
 13
0.0
 23
-7.3699999999999992
 33
-0.4601923788646634
  0
3DFACE
  5
454
  8
WHEELS
 10
-0.1000000000000001
 20
-7.3200000000000021
 30
-0.5467949192431068
 11
0.0
 21
-7.2699999999999969
 31
-0.6333974596215573
 12
0.0
 22
-7.3200000000000021
 32
-0.7200000000000006
 13
-0.1000000000000001
 23
-7.4200000000000026
 33
-0.7200000000000006
  0
3DFACE
  5
455
  8
WHEELS
 10
0.0
 20
-7.2699999999999969
 30
-0.6333974596215573
 11
0.1000000000000001
 21
-7.3200000000000021
 31
-0.5467949192431068
 12
0.1000000000000001
 22
-7.4200000000000026
 32
-0.7200000000000006
 13
0.0
 23
-7.3200000000000021
 33
-0.7200000000000006
  0
3DFACE
  5
456
  8
WHEELS
 10
0.1000000000000001
 20
-7.3200000000000021
 30
-0.5467949192431068
 11
0.0
 21
-7.3699999999999992
 31
-0.4601923788646634
 12
0.0
 22
-7.520000000000004
 32
-0.7200000000000006
 13
0.1000000000000001
 23
-7.4200000000000026
 33
-0.7200000000000006
  0
3DFACE
  5
457
  8
WHEELS
 10
0.0
 20
-7.3699999999999992
 30
-0.4601923788646634
 11
-0.1000000000000001
 21
-7.3200000000000021
 31
-0.5467949192431068
 12
-0.1000000000000001
 22
-7.4200000000000026
 32
-0.7200000000000006
 13
0.0
 23
-7.520000000000004
 33
-0.7200000000000006
  0
3DFACE
  5
458
  8
0
 10
0.1099999999999999
 20
-6.3199999999999976
 30
-0.1900000000000013
 11
0.1099999999999999
 21
-7.1599999999999984
 31
-0.75
 12
0.1099999999999999
 22
-7.2400000000000002
 32
-0.6699999999999999
 13
0.1099999999999999
 23
-6.7000000000000011
 33
-0.1100000000000012
  0
3DFACE
  5
459
  8
0
 10
0.1099999999999999
 20
-6.7000000000000011
 30
-0.1100000000000012
 11
0.1099999999999999
 21
-7.2400000000000002
 31
-0.6699999999999999
 12
0.1099999999999999
 22
-7.1599999999999984
 32
-0.75
 13
0.1099999999999999
 23
-6.3199999999999976
 33
-0.1900000000000013
  0
3DFACE
  5
45A
  8
0
 10
-0.1100000000000001
 20
-6.3199999999999976
 30
-0.1900000000000013
 11
-0.1100000000000001
 21
-7.1599999999999984
 31
-0.75
 12
-0.1100000000000001
 22
-7.2400000000000002
 32
-0.6699999999999999
 13
-0.1100000000000001
 23
-6.7000000000000011
 33
-0.1100000000000012
  0
3DFACE
  5
45B
  8
0
 10
-0.1100000000000001
 20
-6.7000000000000011
 30
-0.1100000000000012
 11
-0.1100000000000001
 21
-7.2400000000000002
 31
-0.6699999999999999
 12
-0.1100000000000001
 22
-7.1599999999999984
 32
-0.75
 13
-0.1100000000000001
 23
-6.3199999999999976
 33
-0.1900000000000013
  0
3DFACE
  5
5C8
  8
WHEELS
 10
2.609999999999999
 20
4.4500000000000011
 30
-1.5599999999999981
 11
2.734999999999999
 21
4.6665063509461104
 31
-1.5599999999999981
 12
2.734999999999999
 22
4.6938900067561189
 32
-1.6261099932438789
 13
2.609999999999999
 23
4.5407968978321698
 33
-1.7792031021678261
  0
3DFACE
  5
5C9
  8
WHEELS
 10
2.734999999999999
 20
4.6665063509461104
 30
-1.5599999999999981
 11
2.984999999999999
 21
4.6665063509461104
 31
-1.5599999999999981
 12
2.984999999999999
 22
4.6938900067561189
 32
-1.6261099932438789
 13
2.734999999999999
 23
4.6938900067561189
 33
-1.6261099932438789
  0
3DFACE
  5
5CA
  8
WHEELS
 10
2.984999999999999
 20
4.6665063509461104
 30
-1.5599999999999981
 11
3.1099999999999999
 21
4.4500000000000011
 31
-1.5599999999999981
 12
3.1099999999999999
 22
4.5407968978321698
 32
-1.7792031021678261
 13
2.984999999999999
 23
4.6938900067561189
 33
-1.6261099932438789
  0
3DFACE
  5
5CB
  8
WHEELS
 10
3.1099999999999999
 20
4.4500000000000011
 30
-1.5599999999999981
 11
2.9849999999999999
 21
4.2334936490538908
 31
-1.5599999999999981
 12
2.9849999999999999
 22
4.3877037889082207
 32
-1.932296211091777
 13
3.1099999999999999
 23
4.5407968978321698
 33
-1.7792031021678261
  0
3DFACE
  5
5CC
  8
WHEELS
 10
2.9849999999999999
 20
4.2334936490538908
 30
-1.5599999999999981
 11
2.7349999999999999
 21
4.2334936490538908
 31
-1.5599999999999981
 12
2.7349999999999999
 22
4.3877037889082207
 32
-1.932296211091777
 13
2.9849999999999999
 23
4.3877037889082207
 33
-1.932296211091777
  0
3DFACE
  5
5CD
  8
WHEELS
 10
2.7349999999999999
 20
4.2334936490538908
 30
-1.5599999999999981
 11
2.609999999999999
 21
4.4500000000000011
 31
-1.5599999999999981
 12
2.609999999999999
 22
4.5407968978321698
 32
-1.7792031021678261
 13
2.7349999999999999
 23
4.3877037889082207
 33
-1.932296211091777
  0
3DFACE
  5
5CE
  8
WHEELS
 10
2.609999999999999
 20
4.5407968978321698
 30
-1.7792031021678261
 11
2.734999999999999
 21
4.6938900067561189
 31
-1.6261099932438789
 12
2.734999999999999
 22
4.7599999999999998
 32
-1.6534936490538901
 13
2.609999999999999
 23
4.7599999999999998
 33
-1.8700000000000001
  0
3DFACE
  5
5CF
  8
WHEELS
 10
2.734999999999999
 20
4.6938900067561189
 30
-1.6261099932438789
 11
2.984999999999999
 21
4.6938900067561189
 31
-1.6261099932438789
 12
2.984999999999999
 22
4.7599999999999998
 32
-1.6534936490538901
 13
2.734999999999999
 23
4.7599999999999998
 33
-1.6534936490538901
  0
3DFACE
  5
5D0
  8
WHEELS
 10
2.984999999999999
 20
4.6938900067561189
 30
-1.6261099932438789
 11
3.1099999999999999
 21
4.5407968978321698
 31
-1.7792031021678261
 12
3.1099999999999999
 22
4.7599999999999998
 32
-1.8700000000000001
 13
2.984999999999999
 23
4.7599999999999998
 33
-1.6534936490538901
  0
3DFACE
  5
5D1
  8
WHEELS
 10
3.1099999999999999
 20
4.5407968978321698
 30
-1.7792031021678261
 11
2.9849999999999999
 21
4.3877037889082207
 31
-1.932296211091777
 12
2.9849999999999999
 22
4.7599999999999998
 32
-2.086506350946109
 13
3.1099999999999999
 23
4.7599999999999998
 33
-1.8700000000000001
  0
3DFACE
  5
5D2
  8
WHEELS
 10
2.9849999999999999
 20
4.3877037889082207
 30
-1.932296211091777
 11
2.7349999999999999
 21
4.3877037889082207
 31
-1.932296211091777
 12
2.7349999999999999
 22
4.7599999999999998
 32
-2.086506350946109
 13
2.9849999999999999
 23
4.7599999999999998
 33
-2.086506350946109
  0
3DFACE
  5
5D3
  8
WHEELS
 10
2.7349999999999999
 20
4.3877037889082207
 30
-1.932296211091777
 11
2.609999999999999
 21
4.5407968978321698
 31
-1.7792031021678261
 12
2.609999999999999
 22
4.7599999999999998
 32
-1.8700000000000001
 13
2.7349999999999999
 23
4.7599999999999998
 33
-2.086506350946109
  0
3DFACE
  5
5D4
  8
WHEELS
 10
2.609999999999999
 20
4.7599999999999998
 30
-1.8700000000000001
 11
2.734999999999999
 21
4.7599999999999998
 31
-1.6534936490538901
 12
2.734999999999999
 22
4.8261099932438807
 32
-1.6261099932438789
 13
2.609999999999999
 23
4.9792031021678289
 33
-1.7792031021678281
  0
3DFACE
  5
5D5
  8
WHEELS
 10
2.734999999999999
 20
4.7599999999999998
 30
-1.6534936490538901
 11
2.984999999999999
 21
4.7599999999999998
 31
-1.6534936490538901
 12
2.984999999999999
 22
4.8261099932438807
 32
-1.6261099932438789
 13
2.734999999999999
 23
4.8261099932438807
 33
-1.6261099932438789
  0
3DFACE
  5
5D6
  8
WHEELS
 10
2.984999999999999
 20
4.7599999999999998
 30
-1.6534936490538901
 11
3.1099999999999999
 21
4.7599999999999998
 31
-1.8700000000000001
 12
3.1099999999999999
 22
4.9792031021678289
 32
-1.7792031021678281
 13
2.984999999999999
 23
4.8261099932438807
 33
-1.6261099932438789
  0
3DFACE
  5
5D7
  8
WHEELS
 10
3.1099999999999999
 20
4.7599999999999998
 30
-1.8700000000000001
 11
2.9849999999999999
 21
4.7599999999999998
 31
-2.086506350946109
 12
2.9849999999999999
 22
5.132296211091778
 32
-1.932296211091777
 13
3.1099999999999999
 23
4.9792031021678289
 33
-1.7792031021678281
  0
3DFACE
  5
5D8
  8
WHEELS
 10
2.9849999999999999
 20
4.7599999999999998
 30
-2.086506350946109
 11
2.7349999999999999
 21
4.7599999999999998
 31
-2.086506350946109
 12
2.7349999999999999
 22
5.132296211091778
 32
-1.932296211091777
 13
2.9849999999999999
 23
5.132296211091778
 33
-1.932296211091777
  0
3DFACE
  5
5D9
  8
WHEELS
 10
2.7349999999999999
 20
4.7599999999999998
 30
-2.086506350946109
 11
2.609999999999999
 21
4.7599999999999998
 31
-1.8700000000000001
 12
2.609999999999999
 22
4.9792031021678289
 32
-1.7792031021678281
 13
2.7349999999999999
 23
5.132296211091778
 33
-1.932296211091777
  0
3DFACE
  5
5DA
  8
WHEELS
 10
2.609999999999999
 20
4.9792031021678289
 30
-1.7792031021678281
 11
2.734999999999999
 21
4.8261099932438807
 31
-1.6261099932438789
 12
2.734999999999999
 22
4.85349364905389
 32
-1.5599999999999981
 13
2.609999999999999
 23
5.0700000000000003
 33
-1.5599999999999981
  0
3DFACE
  5
5DB
  8
WHEELS
 10
2.734999999999999
 20
4.8261099932438807
 30
-1.6261099932438789
 11
2.984999999999999
 21
4.8261099932438807
 31
-1.6261099932438789
 12
2.984999999999999
 22
4.85349364905389
 32
-1.5599999999999981
 13
2.734999999999999
 23
4.85349364905389
 33
-1.5599999999999981
  0
3DFACE
  5
5DC
  8
WHEELS
 10
2.984999999999999
 20
4.8261099932438807
 30
-1.6261099932438789
 11
3.1099999999999999
 21
4.9792031021678289
 31
-1.7792031021678281
 12
3.1099999999999999
 22
5.0700000000000003
 32
-1.5599999999999981
 13
2.984999999999999
 23
4.85349364905389
 33
-1.5599999999999981
  0
3DFACE
  5
5DD
  8
WHEELS
 10
3.1099999999999999
 20
4.9792031021678289
 30
-1.7792031021678281
 11
2.9849999999999999
 21
5.132296211091778
 31
-1.932296211091777
 12
2.9849999999999999
 22
5.2865063509461088
 32
-1.5599999999999981
 13
3.1099999999999999
 23
5.0700000000000003
 33
-1.5599999999999981
  0
3DFACE
  5
5DE
  8
WHEELS
 10
2.9849999999999999
 20
5.132296211091778
 30
-1.932296211091777
 11
2.7349999999999999
 21
5.132296211091778
 31
-1.932296211091777
 12
2.7349999999999999
 22
5.2865063509461088
 32
-1.5599999999999981
 13
2.9849999999999999
 23
5.2865063509461088
 33
-1.5599999999999981
  0
3DFACE
  5
5DF
  8
WHEELS
 10
2.7349999999999999
 20
5.132296211091778
 30
-1.932296211091777
 11
2.609999999999999
 21
4.9792031021678289
 31
-1.7792031021678281
 12
2.609999999999999
 22
5.0700000000000003
 32
-1.5599999999999981
 13
2.7349999999999999
 23
5.2865063509461088
 33
-1.5599999999999981
  0
3DFACE
  5
5E1
  8
WHEELS
 10
2.734999999999999
 20
4.85349364905389
 30
-1.5599999999999981
 11
2.984999999999999
 21
4.85349364905389
 31
-1.5599999999999981
 12
2.984999999999999
 22
4.8261099932438816
 32
-1.4938900067561161
 13
2.734999999999999
 23
4.8261099932438816
 33
-1.4938900067561161
  0
3DFACE
  5
5E7
  8
WHEELS
 10
2.734999999999999
 20
4.8261099932438816
 30
-1.4938900067561161
 11
2.984999999999999
 21
4.8261099932438816
 31
-1.4938900067561161
 12
2.984999999999999
 22
4.7600000000000007
 32
-1.466506350946108
 13
2.734999999999999
 23
4.7600000000000007
 33
-1.466506350946108
  0
3DFACE
  5
5ED
  8
WHEELS
 10
2.734999999999999
 20
4.7600000000000007
 30
-1.466506350946108
 11
2.984999999999999
 21
4.7600000000000007
 31
-1.466506350946108
 12
2.984999999999999
 22
4.6938900067561189
 32
-1.4938900067561169
 13
2.734999999999999
 23
4.6938900067561189
 33
-1.4938900067561169
  0
3DFACE
  5
5F2
  8
WHEELS
 10
2.609999999999999
 20
4.5407968978321698
 30
-1.34079689783217
 11
2.734999999999999
 21
4.6938900067561189
 31
-1.4938900067561169
 12
2.734999999999999
 22
4.6665063509461104
 32
-1.5599999999999981
 13
2.609999999999999
 23
4.4500000000000011
 33
-1.5599999999999981
  0
3DFACE
  5
5F3
  8
WHEELS
 10
2.734999999999999
 20
4.6938900067561189
 30
-1.4938900067561169
 11
2.984999999999999
 21
4.6938900067561189
 31
-1.4938900067561169
 12
2.984999999999999
 22
4.6665063509461104
 32
-1.5599999999999981
 13
2.734999999999999
 23
4.6665063509461104
 33
-1.5599999999999981
  0
3DFACE
  5
5F4
  8
WHEELS
 10
2.984999999999999
 20
4.6938900067561189
 30
-1.4938900067561169
 11
3.1099999999999999
 21
4.5407968978321698
 31
-1.34079689783217
 12
3.1099999999999999
 22
4.4500000000000011
 32
-1.5599999999999981
 13
2.984999999999999
 23
4.6665063509461104
 33
-1.5599999999999981
  0
3DFACE
  5
5F5
  8
WHEELS
 10
3.1099999999999999
 20
4.5407968978321698
 30
-1.34079689783217
 11
2.9849999999999999
 21
4.3877037889082224
 31
-1.1877037889082209
 12
2.9849999999999999
 22
4.2334936490538908
 32
-1.5599999999999981
 13
3.1099999999999999
 23
4.4500000000000011
 33
-1.5599999999999981
  0
3DFACE
  5
5F6
  8
WHEELS
 10
2.9849999999999999
 20
4.3877037889082224
 30
-1.1877037889082209
 11
2.7349999999999999
 21
4.3877037889082224
 31
-1.1877037889082209
 12
2.7349999999999999
 22
4.2334936490538908
 32
-1.5599999999999981
 13
2.9849999999999999
 23
4.2334936490538908
 33
-1.5599999999999981
  0
3DFACE
  5
5F7
  8
WHEELS
 10
2.7349999999999999
 20
4.3877037889082224
 30
-1.1877037889082209
 11
2.609999999999999
 21
4.5407968978321698
 31
-1.34079689783217
 12
2.609999999999999
 22
4.4500000000000011
 32
-1.5599999999999981
 13
2.7349999999999999
 23
4.2334936490538908
 33
-1.5599999999999981
  0
3DFACE
  5
64B
  8
0
 10
0.0
 20
6.46
 30
1.609999999999999
 11
-0.1399999999999999
 21
6.46
 31
1.5724871130596421
 12
-0.0989949493661167
 22
6.3610050506338842
 32
1.5724871130596421
 13
0.0
 23
6.46
 33
1.609999999999999
  0
3DFACE
  5
64C
  8
0
 10
-0.1399999999999999
 20
6.46
 30
1.5724871130596421
 11
-0.2424871130596428
 21
6.46
 31
1.47
 12
-0.1714642819948224
 22
6.2885357180051784
 32
1.47
 13
-0.0989949493661167
 23
6.3610050506338842
 33
1.5724871130596421
  0
3DFACE
  5
64D
  8
0
 10
-0.2424871130596428
 20
6.46
 30
1.47
 11
-0.28
 21
6.46
 31
1.3300000000000001
 12
-0.1979898987322333
 22
6.2620101012677667
 32
1.349999999999999
 13
-0.1714642819948224
 23
6.2885357180051784
 33
1.47
  0
3DFACE
  5
64E
  8
0
 10
0.0
 20
6.46
 30
1.609999999999999
 11
-0.0989949493661167
 21
6.3610050506338842
 31
1.5724871130596421
 12
0.0
 22
6.3200000000000012
 32
1.5724871130596421
 13
0.0
 23
6.46
 33
1.609999999999999
  0
3DFACE
  5
64F
  8
0
 10
-0.0989949493661167
 20
6.3610050506338842
 30
1.5724871130596421
 11
-0.1714642819948224
 21
6.2885357180051784
 31
1.47
 12
0.0
 22
6.2175128869403578
 32
1.47
 13
0.0
 23
6.3200000000000012
 33
1.5724871130596421
  0
3DFACE
  5
650
  8
0
 10
-0.1714642819948224
 20
6.2885357180051784
 30
1.47
 11
-0.1979898987322333
 21
6.2620101012677667
 31
1.349999999999999
 12
0.0
 22
6.1800000000000006
 32
1.359999999999999
 13
0.0
 23
6.2175128869403578
 33
1.47
  0
3DFACE
  5
651
  8
0
 10
0.0
 20
6.46
 30
1.609999999999999
 11
0.0
 21
6.3200000000000012
 31
1.5724871130596421
 12
0.0989949493661167
 22
6.3610050506338833
 32
1.5724871130596421
 13
0.0
 23
6.46
 33
1.609999999999999
  0
3DFACE
  5
652
  8
0
 10
0.0
 20
6.3200000000000012
 30
1.5724871130596421
 11
0.0
 21
6.2175128869403578
 31
1.47
 12
0.1714642819948224
 22
6.2885357180051784
 32
1.47
 13
0.0989949493661167
 23
6.3610050506338833
 33
1.5724871130596421
  0
3DFACE
  5
653
  8
0
 10
0.0
 20
6.2175128869403578
 30
1.47
 11
0.0
 21
6.1800000000000006
 31
1.359999999999999
 12
0.1979898987322333
 22
6.2620101012677667
 32
1.349999999999999
 13
0.1714642819948224
 23
6.2885357180051784
 33
1.47
  0
3DFACE
  5
654
  8
0
 10
0.0
 20
6.46
 30
1.609999999999999
 11
0.0989949493661167
 21
6.3610050506338833
 31
1.5724871130596421
 12
0.1399999999999999
 22
6.46
 32
1.5724871130596421
 13
0.0
 23
6.46
 33
1.609999999999999
  0
3DFACE
  5
655
  8
0
 10
0.0989949493661167
 20
6.3610050506338833
 30
1.5724871130596421
 11
0.1714642819948224
 21
6.2885357180051784
 31
1.47
 12
0.2424871130596428
 22
6.46
 32
1.47
 13
0.1399999999999999
 23
6.46
 33
1.5724871130596421
  0
3DFACE
  5
656
  8
0
 10
0.1714642819948224
 20
6.2885357180051784
 30
1.47
 11
0.1979898987322333
 21
6.2620101012677667
 31
1.349999999999999
 12
0.28
 22
6.46
 32
1.3300000000000001
 13
0.2424871130596428
 23
6.46
 33
1.47
  0
3DFACE
  5
657
  8
0
 10
0.0
 20
6.46
 30
1.609999999999999
 11
0.1399999999999999
 21
6.46
 31
1.5724871130596421
 12
0.0989949493661167
 22
6.5589949493661184
 32
1.5724871130596421
 13
0.0
 23
6.46
 33
1.609999999999999
  0
3DFACE
  5
658
  8
0
 10
0.1399999999999999
 20
6.46
 30
1.5724871130596421
 11
0.2424871130596428
 21
6.46
 31
1.47
 12
0.1714642819948224
 22
6.6314642819948233
 32
1.47
 13
0.0989949493661167
 23
6.5589949493661184
 33
1.5724871130596421
  0
3DFACE
  5
659
  8
0
 10
0.2424871130596428
 20
6.46
 30
1.47
 11
0.28
 21
6.46
 31
1.3300000000000001
 12
0.1979898987322333
 22
6.6579898987322341
 32
1.3099999999999981
 13
0.1714642819948224
 23
6.6314642819948233
 33
1.47
  0
3DFACE
  5
65A
  8
0
 10
0.0
 20
6.46
 30
1.609999999999999
 11
0.0989949493661167
 21
6.5589949493661184
 31
1.5724871130596421
 12
0.0
 22
6.5999999999999996
 32
1.5724871130596421
 13
0.0
 23
6.46
 33
1.609999999999999
  0
3DFACE
  5
65B
  8
0
 10
0.0989949493661167
 20
6.5589949493661184
 30
1.5724871130596421
 11
0.1714642819948224
 21
6.6314642819948233
 31
1.47
 12
0.0
 22
6.7024871130596431
 32
1.47
 13
0.0
 23
6.5999999999999996
 33
1.5724871130596421
  0
3DFACE
  5
65C
  8
0
 10
0.1714642819948224
 20
6.6314642819948233
 30
1.47
 11
0.1979898987322333
 21
6.6579898987322341
 31
1.3099999999999981
 12
0.0
 22
6.7400000000000002
 32
1.3099999999999981
 13
0.0
 23
6.7024871130596431
 33
1.47
  0
3DFACE
  5
65D
  8
0
 10
0.0
 20
6.46
 30
1.609999999999999
 11
0.0
 21
6.5999999999999996
 31
1.5724871130596421
 12
-0.0989949493661167
 22
6.5589949493661166
 32
1.5724871130596421
 13
0.0
 23
6.46
 33
1.609999999999999
  0
3DFACE
  5
65E
  8
0
 10
0.0
 20
6.5999999999999996
 30
1.5724871130596421
 11
0.0
 21
6.7024871130596431
 31
1.47
 12
-0.1714642819948224
 22
6.6314642819948233
 32
1.47
 13
-0.0989949493661167
 23
6.5589949493661166
 33
1.5724871130596421
  0
3DFACE
  5
65F
  8
0
 10
0.0
 20
6.7024871130596431
 30
1.47
 11
0.0
 21
6.7400000000000002
 31
1.3099999999999981
 12
-0.1979898987322333
 22
6.6579898987322341
 32
1.3099999999999981
 13
-0.1714642819948224
 23
6.6314642819948233
 33
1.47
  0
3DFACE
  5
660
  8
0
 10
0.0
 20
6.46
 30
1.609999999999999
 11
-0.0989949493661167
 21
6.5589949493661166
 31
1.5724871130596421
 12
-0.1399999999999999
 22
6.46
 32
1.5724871130596421
 13
0.0
 23
6.46
 33
1.609999999999999
  0
3DFACE
  5
661
  8
0
 10
-0.0989949493661167
 20
6.5589949493661166
 30
1.5724871130596421
 11
-0.1714642819948224
 21
6.6314642819948233
 31
1.47
 12
-0.2424871130596428
 22
6.46
 32
1.47
 13
-0.1399999999999999
 23
6.46
 33
1.5724871130596421
  0
3DFACE
  5
662
  8
0
 10
-0.1714642819948224
 20
6.6314642819948233
 30
1.47
 11
-0.1979898987322333
 21
6.6579898987322341
 31
1.3099999999999981
 12
-0.28
 22
6.46
 32
1.3300000000000001
 13
-0.2424871130596428
 23
6.46
 33
1.47
  0
3DFACE
  5
67F
  8
0
 10
-0.37
 20
5.3399999999999999
 30
1.429999999999999
 11
-0.385
 21
5.3486602540378447
 31
1.429999999999999
 12
-0.43
 22
4.7699999999999996
 32
2.6799999999999971
 13
-0.43
 23
4.7699999999999996
 33
2.6799999999999971
  0
3DFACE
  5
680
  8
0
 10
-0.385
 20
5.3486602540378447
 30
1.429999999999999
 11
-0.385
 21
5.331339745962155
 31
1.429999999999999
 12
-0.43
 22
4.7699999999999996
 32
2.6799999999999971
 13
-0.43
 23
4.7699999999999996
 33
2.6799999999999971
  0
3DFACE
  5
681
  8
0
 10
-0.385
 20
5.331339745962155
 30
1.429999999999999
 11
-0.37
 21
5.3399999999999999
 31
1.429999999999999
 12
-0.43
 22
4.7699999999999996
 32
2.6799999999999971
 13
-0.43
 23
4.7699999999999996
 33
2.6799999999999971
  0
3DFACE
  5
682
  8
0
 10
0.39
 20
6.2400000000000011
 30
1.349999999999999
 11
0.375
 21
6.2486602540378451
 31
1.349999999999999
 12
0.43
 22
5.9199999999999999
 32
2.0699999999999981
 13
0.43
 23
5.9199999999999999
 33
2.0699999999999981
  0
3DFACE
  5
683
  8
0
 10
0.375
 20
6.2486602540378451
 30
1.349999999999999
 11
0.375
 21
6.2313397459621562
 31
1.349999999999999
 12
0.43
 22
5.9199999999999999
 32
2.0699999999999981
 13
0.43
 23
5.9199999999999999
 33
2.0699999999999981
  0
3DFACE
  5
684
  8
0
 10
0.375
 20
6.2313397459621562
 30
1.349999999999999
 11
0.39
 21
6.2400000000000011
 31
1.349999999999999
 12
0.43
 22
5.9199999999999999
 32
2.0699999999999981
 13
0.43
 23
5.9199999999999999
 33
2.0699999999999981
  0
3DFACE
  5
685
  8
0
 10
-0.37
 20
7.3099999999999996
 30
1.2599999999999989
 11
-0.385
 21
7.3186602540378436
 31
1.2599999999999989
 12
-0.43
 22
6.8600000000000003
 32
2.2799999999999989
 13
-0.43
 23
6.8600000000000003
 33
2.2799999999999989
  0
3DFACE
  5
686
  8
0
 10
-0.385
 20
7.3186602540378436
 30
1.2599999999999989
 11
-0.385
 21
7.3013397459621556
 31
1.2599999999999989
 12
-0.43
 22
6.8600000000000003
 32
2.2799999999999989
 13
-0.43
 23
6.8600000000000003
 33
2.2799999999999989
  0
3DFACE
  5
687
  8
0
 10
-0.385
 20
7.3013397459621556
 30
1.2599999999999989
 11
-0.37
 21
7.3099999999999996
 31
1.2599999999999989
 12
-0.43
 22
6.8600000000000003
 32
2.2799999999999989
 13
-0.43
 23
6.8600000000000003
 33
2.2799999999999989
  0
3DFACE
  5
689
  8
0
 10
0.0
 20
5.9699999999999998
 30
1.379999999999999
 11
0.0
 21
5.8899999999999908
 31
1.379999999999999
 12
0.0
 22
5.8899999999999908
 32
1.629999999999999
 13
0.0
 23
5.9699999999999998
 33
1.629999999999999
  0
3DFACE
  5
68A
  8
0
 10
0.0
 20
5.9699999999999998
 30
1.629999999999999
 11
0.0
 21
5.8899999999999908
 31
1.629999999999999
 12
0.0
 22
5.8899999999999908
 32
1.379999999999999
 13
0.0
 23
5.9699999999999998
 33
1.379999999999999
  0
3DFACE
  5
68B
  8
0
 10
0.0
 20
5.8899999999999997
 30
1.599999999999999
 11
0.0
 21
-7.1714704170708021
 31
3.4060551149654801
 12
0.0
 22
-7.1943239573229842
 32
3.4392151537627651
 13
0.0
 23
5.8899999999999997
 33
1.629999999999999
  0
3DFACE
  5
68C
  8
0
 10
0.0
 20
5.8899999999999997
 30
1.629999999999999
 11
0.0
 21
-7.1943239573229842
 31
3.4392151537627651
 12
0.0
 22
-7.1714704170708021
 32
3.4060551149654801
 13
0.0
 23
5.8899999999999997
 33
1.599999999999999
  0
3DFACE
  5
68E
  8
0
 10
0.0
 20
-7.3499999999999988
 30
3.9299999999999971
 11
0.0
 21
-7.4000000000000004
 31
3.9700000000000002
 12
0.0
 22
-7.5064440446504381
 32
3.7696955171596409
 13
0.0
 23
-7.4399999999999986
 33
3.7050000000000032
  0
3DFACE
  5
68F
  8
0
 10
0.0
 20
-7.4399999999999986
 30
3.7050000000000032
 11
0.0
 21
-7.5064440446504381
 31
3.7696955171596409
 12
0.0
 22
-7.4000000000000004
 32
3.9700000000000002
 13
0.0
 23
-7.3499999999999988
 33
3.9299999999999971
  0
3DFACE
  5
691
  8
0
 10
-0.9600000000000001
 20
5.0300000000000002
 30
1.369999999999999
 11
0.0
 21
-7.3499999999999988
 31
3.9299999999999971
 12
0.0
 22
-7.4000000000000004
 32
3.9700000000000002
 13
-0.9600000000000001
 23
5.0499999999999998
 33
1.3899999999999979
  0
3DFACE
  5
692
  8
0
 10
-0.9600000000000001
 20
5.0499999999999998
 30
1.3899999999999979
 11
0.0
 21
-7.4000000000000004
 31
3.9700000000000002
 12
0.0
 22
-7.3499999999999988
 32
3.9299999999999971
 13
-0.9600000000000001
 23
5.0300000000000002
 33
1.369999999999999
  0
3DFACE
  5
693
  8
0
 10
-0.9599999999999999
 20
5.0499999999999998
 30
1.3899999999999979
 11
-0.9599999999999999
 21
5.0299999999999914
 31
1.369999999999999
 12
-0.7800000000000001
 22
5.0299999999999914
 32
1.119999999999999
 13
-0.7800000000000001
 23
5.0599999999999996
 33
1.119999999999999
  0
3DFACE
  5
694
  8
0
 10
-0.7800000000000001
 20
5.0599999999999996
 30
1.119999999999999
 11
-0.7800000000000001
 21
5.0299999999999914
 31
1.119999999999999
 12
-0.9599999999999999
 22
5.0299999999999914
 32
1.369999999999999
 13
-0.9599999999999999
 23
5.0499999999999998
 33
1.3899999999999979
  0
3DFACE
  5
7A1
  8
WHEELS
 10
-2.984999999999999
 20
4.3877037889082224
 30
-1.1877037889082209
 11
-3.109999999999999
 21
4.5407968978321698
 31
-1.34079689783217
 12
-3.109999999999999
 22
4.4500000000000011
 32
-1.5599999999999981
 13
-2.984999999999999
 23
4.2334936490538908
 33
-1.5599999999999981
  0
3DFACE
  5
7A2
  8
WHEELS
 10
-2.734999999999999
 20
4.3877037889082224
 30
-1.1877037889082209
 11
-2.984999999999999
 21
4.3877037889082224
 31
-1.1877037889082209
 12
-2.984999999999999
 22
4.2334936490538908
 32
-1.5599999999999981
 13
-2.734999999999999
 23
4.2334936490538908
 33
-1.5599999999999981
  0
3DFACE
  5
7A3
  8
WHEELS
 10
-2.609999999999999
 20
4.5407968978321698
 30
-1.34079689783217
 11
-2.734999999999999
 21
4.3877037889082224
 31
-1.1877037889082209
 12
-2.734999999999999
 22
4.2334936490538908
 32
-1.5599999999999981
 13
-2.609999999999999
 23
4.4500000000000011
 33
-1.5599999999999981
  0
3DFACE
  5
7A4
  8
WHEELS
 10
-2.7349999999999999
 20
4.6938900067561189
 30
-1.4938900067561169
 11
-2.609999999999999
 21
4.5407968978321698
 31
-1.34079689783217
 12
-2.609999999999999
 22
4.4500000000000011
 32
-1.5599999999999981
 13
-2.7349999999999999
 23
4.6665063509461104
 33
-1.5599999999999981
  0
3DFACE
  5
7A5
  8
WHEELS
 10
-2.984999999999999
 20
4.6938900067561189
 30
-1.4938900067561169
 11
-2.7349999999999999
 21
4.6938900067561189
 31
-1.4938900067561169
 12
-2.7349999999999999
 22
4.6665063509461104
 32
-1.5599999999999981
 13
-2.984999999999999
 23
4.6665063509461104
 33
-1.5599999999999981
  0
3DFACE
  5
7A6
  8
WHEELS
 10
-3.109999999999999
 20
4.5407968978321698
 30
-1.34079689783217
 11
-2.984999999999999
 21
4.6938900067561189
 31
-1.4938900067561169
 12
-2.984999999999999
 22
4.6665063509461104
 32
-1.5599999999999981
 13
-3.109999999999999
 23
4.4500000000000011
 33
-1.5599999999999981
  0
3DFACE
  5
7A7
  8
WHEELS
 10
-2.984999999999999
 20
4.7600000000000007
 30
-1.466506350946108
 11
-2.7349999999999999
 21
4.7600000000000007
 31
-1.466506350946108
 12
-2.7349999999999999
 22
4.6938900067561189
 32
-1.4938900067561169
 13
-2.984999999999999
 23
4.6938900067561189
 33
-1.4938900067561169
  0
3DFACE
  5
7A8
  8
WHEELS
 10
-2.984999999999999
 20
4.8261099932438816
 30
-1.4938900067561161
 11
-2.7349999999999999
 21
4.8261099932438816
 31
-1.4938900067561161
 12
-2.7349999999999999
 22
4.7600000000000007
 32
-1.466506350946108
 13
-2.984999999999999
 23
4.7600000000000007
 33
-1.466506350946108
  0
3DFACE
  5
7A9
  8
WHEELS
 10
-2.984999999999999
 20
4.85349364905389
 30
-1.5599999999999981
 11
-2.7349999999999999
 21
4.85349364905389
 31
-1.5599999999999981
 12
-2.7349999999999999
 22
4.8261099932438816
 32
-1.4938900067561161
 13
-2.984999999999999
 23
4.8261099932438816
 33
-1.4938900067561161
  0
3DFACE
  5
7AA
  8
WHEELS
 10
-2.984999999999999
 20
5.132296211091778
 30
-1.932296211091777
 11
-3.109999999999999
 21
4.9792031021678289
 31
-1.7792031021678281
 12
-3.109999999999999
 22
5.0700000000000003
 32
-1.5599999999999981
 13
-2.984999999999999
 23
5.2865063509461088
 33
-1.5599999999999981
  0
3DFACE
  5
7AB
  8
WHEELS
 10
-2.734999999999999
 20
5.132296211091778
 30
-1.932296211091777
 11
-2.984999999999999
 21
5.132296211091778
 31
-1.932296211091777
 12
-2.984999999999999
 22
5.2865063509461088
 32
-1.5599999999999981
 13
-2.734999999999999
 23
5.2865063509461088
 33
-1.5599999999999981
  0
3DFACE
  5
7AC
  8
WHEELS
 10
-2.609999999999999
 20
4.9792031021678289
 30
-1.7792031021678281
 11
-2.734999999999999
 21
5.132296211091778
 31
-1.932296211091777
 12
-2.734999999999999
 22
5.2865063509461088
 32
-1.5599999999999981
 13
-2.609999999999999
 23
5.0700000000000003
 33
-1.5599999999999981
  0
3DFACE
  5
7AD
  8
WHEELS
 10
-2.7349999999999999
 20
4.8261099932438807
 30
-1.6261099932438789
 11
-2.609999999999999
 21
4.9792031021678289
 31
-1.7792031021678281
 12
-2.609999999999999
 22
5.0700000000000003
 32
-1.5599999999999981
 13
-2.7349999999999999
 23
4.85349364905389
 33
-1.5599999999999981
  0
3DFACE
  5
7AE
  8
WHEELS
 10
-2.984999999999999
 20
4.8261099932438807
 30
-1.6261099932438789
 11
-2.7349999999999999
 21
4.8261099932438807
 31
-1.6261099932438789
 12
-2.7349999999999999
 22
4.85349364905389
 32
-1.5599999999999981
 13
-2.984999999999999
 23
4.85349364905389
 33
-1.5599999999999981
  0
3DFACE
  5
7AF
  8
WHEELS
 10
-3.109999999999999
 20
4.9792031021678289
 30
-1.7792031021678281
 11
-2.984999999999999
 21
4.8261099932438807
 31
-1.6261099932438789
 12
-2.984999999999999
 22
4.85349364905389
 32
-1.5599999999999981
 13
-3.109999999999999
 23
5.0700000000000003
 33
-1.5599999999999981
  0
3DFACE
  5
7B0
  8
WHEELS
 10
-2.984999999999999
 20
4.7599999999999998
 30
-2.086506350946109
 11
-3.109999999999999
 21
4.7599999999999998
 31
-1.8700000000000001
 12
-3.109999999999999
 22
4.9792031021678289
 32
-1.7792031021678281
 13
-2.984999999999999
 23
5.132296211091778
 33
-1.932296211091777
  0
3DFACE
  5
7B1
  8
WHEELS
 10
-2.734999999999999
 20
4.7599999999999998
 30
-2.086506350946109
 11
-2.984999999999999
 21
4.7599999999999998
 31
-2.086506350946109
 12
-2.984999999999999
 22
5.132296211091778
 32
-1.932296211091777
 13
-2.734999999999999
 23
5.132296211091778
 33
-1.932296211091777
  0
3DFACE
  5
7B2
  8
WHEELS
 10
-2.609999999999999
 20
4.7599999999999998
 30
-1.8700000000000001
 11
-2.734999999999999
 21
4.7599999999999998
 31
-2.086506350946109
 12
-2.734999999999999
 22
5.132296211091778
 32
-1.932296211091777
 13
-2.609999999999999
 23
4.9792031021678289
 33
-1.7792031021678281
  0
3DFACE
  5
7B3
  8
WHEELS
 10
-2.7349999999999999
 20
4.7599999999999998
 30
-1.6534936490538901
 11
-2.609999999999999
 21
4.7599999999999998
 31
-1.8700000000000001
 12
-2.609999999999999
 22
4.9792031021678289
 32
-1.7792031021678281
 13
-2.7349999999999999
 23
4.8261099932438807
 33
-1.6261099932438789
  0
3DFACE
  5
7B4
  8
WHEELS
 10
-2.984999999999999
 20
4.7599999999999998
 30
-1.6534936490538901
 11
-2.7349999999999999
 21
4.7599999999999998
 31
-1.6534936490538901
 12
-2.7349999999999999
 22
4.8261099932438807
 32
-1.6261099932438789
 13
-2.984999999999999
 23
4.8261099932438807
 33
-1.6261099932438789
  0
3DFACE
  5
7B5
  8
WHEELS
 10
-3.109999999999999
 20
4.7599999999999998
 30
-1.8700000000000001
 11
-2.984999999999999
 21
4.7599999999999998
 31
-1.6534936490538901
 12
-2.984999999999999
 22
4.8261099932438807
 32
-1.6261099932438789
 13
-3.109999999999999
 23
4.9792031021678289
 33
-1.7792031021678281
  0
3DFACE
  5
7B6
  8
WHEELS
 10
-2.984999999999999
 20
4.3877037889082207
 30
-1.932296211091777
 11
-3.109999999999999
 21
4.5407968978321698
 31
-1.7792031021678261
 12
-3.109999999999999
 22
4.7599999999999998
 32
-1.8700000000000001
 13
-2.984999999999999
 23
4.7599999999999998
 33
-2.086506350946109
  0
3DFACE
  5
7B7
  8
WHEELS
 10
-2.734999999999999
 20
4.3877037889082207
 30
-1.932296211091777
 11
-2.984999999999999
 21
4.3877037889082207
 31
-1.932296211091777
 12
-2.984999999999999
 22
4.7599999999999998
 32
-2.086506350946109
 13
-2.734999999999999
 23
4.7599999999999998
 33
-2.086506350946109
  0
3DFACE
  5
7B8
  8
WHEELS
 10
-2.609999999999999
 20
4.5407968978321698
 30
-1.7792031021678261
 11
-2.734999999999999
 21
4.3877037889082207
 31
-1.932296211091777
 12
-2.734999999999999
 22
4.7599999999999998
 32
-2.086506350946109
 13
-2.609999999999999
 23
4.7599999999999998
 33
-1.8700000000000001
  0
3DFACE
  5
7B9
  8
WHEELS
 10
-2.7349999999999999
 20
4.6938900067561189
 30
-1.6261099932438789
 11
-2.609999999999999
 21
4.5407968978321698
 31
-1.7792031021678261
 12
-2.609999999999999
 22
4.7599999999999998
 32
-1.8700000000000001
 13
-2.7349999999999999
 23
4.7599999999999998
 33
-1.6534936490538901
  0
3DFACE
  5
7BA
  8
WHEELS
 10
-2.984999999999999
 20
4.6938900067561189
 30
-1.6261099932438789
 11
-2.7349999999999999
 21
4.6938900067561189
 31
-1.6261099932438789
 12
-2.7349999999999999
 22
4.7599999999999998
 32
-1.6534936490538901
 13
-2.984999999999999
 23
4.7599999999999998
 33
-1.6534936490538901
  0
3DFACE
  5
7BB
  8
WHEELS
 10
-3.109999999999999
 20
4.5407968978321698
 30
-1.7792031021678261
 11
-2.984999999999999
 21
4.6938900067561189
 31
-1.6261099932438789
 12
-2.984999999999999
 22
4.7599999999999998
 32
-1.6534936490538901
 13
-3.109999999999999
 23
4.7599999999999998
 33
-1.8700000000000001
  0
3DFACE
  5
7BC
  8
WHEELS
 10
-2.984999999999999
 20
4.2334936490538908
 30
-1.5599999999999981
 11
-3.109999999999999
 21
4.4500000000000011
 31
-1.5599999999999981
 12
-3.109999999999999
 22
4.5407968978321698
 32
-1.7792031021678261
 13
-2.984999999999999
 23
4.3877037889082207
 33
-1.932296211091777
  0
3DFACE
  5
7BD
  8
WHEELS
 10
-2.734999999999999
 20
4.2334936490538908
 30
-1.5599999999999981
 11
-2.984999999999999
 21
4.2334936490538908
 31
-1.5599999999999981
 12
-2.984999999999999
 22
4.3877037889082207
 32
-1.932296211091777
 13
-2.734999999999999
 23
4.3877037889082207
 33
-1.932296211091777
  0
3DFACE
  5
7BE
  8
WHEELS
 10
-2.609999999999999
 20
4.4500000000000011
 30
-1.5599999999999981
 11
-2.734999999999999
 21
4.2334936490538908
 31
-1.5599999999999981
 12
-2.734999999999999
 22
4.3877037889082207
 32
-1.932296211091777
 13
-2.609999999999999
 23
4.5407968978321698
 33
-1.7792031021678261
  0
3DFACE
  5
7BF
  8
WHEELS
 10
-2.7349999999999999
 20
4.6665063509461104
 30
-1.5599999999999981
 11
-2.609999999999999
 21
4.4500000000000011
 31
-1.5599999999999981
 12
-2.609999999999999
 22
4.5407968978321698
 32
-1.7792031021678261
 13
-2.7349999999999999
 23
4.6938900067561189
 33
-1.6261099932438789
  0
3DFACE
  5
7C0
  8
WHEELS
 10
-2.984999999999999
 20
4.6665063509461104
 30
-1.5599999999999981
 11
-2.7349999999999999
 21
4.6665063509461104
 31
-1.5599999999999981
 12
-2.7349999999999999
 22
4.6938900067561189
 32
-1.6261099932438789
 13
-2.984999999999999
 23
4.6938900067561189
 33
-1.6261099932438789
  0
3DFACE
  5
7C1
  8
WHEELS
 10
-3.109999999999999
 20
4.4500000000000011
 30
-1.5599999999999981
 11
-2.984999999999999
 21
4.6665063509461104
 31
-1.5599999999999981
 12
-2.984999999999999
 22
4.6938900067561189
 32
-1.6261099932438789
 13
-3.109999999999999
 23
4.5407968978321698
 33
-1.7792031021678261
  0
VIEWPORT
  5
2E
 67
     1
  8
0
 10
144.7270812988281
 20
101.2295806407928
 30
0.0
 40
391.13550988316581
 41
222.15178063964839
 68
     2
 69
     1
1001
ACAD
1000
MVIEW
1002
{
1070
    16
1010
0.0
1020
0.0
1030
0.0
1010
0.0
1020
0.0
1030
1.0
1040
0.0
1040
222.15178063964839
1040
144.7270812988281
1040
101.2295806407928
1040
50.0
1040
0.0
1040
0.0
1070
     0
1070
   100
1070
     1
1070
     1
1070
     0
1070
     0
1070
     0
1070
     0
1040
0.0
1040
0.0
1040
0.0
1040
10.0
1040
10.0
1040
10.0
1040
10.0
1070
     0
1002
{
1002
}
1002
}
  0
VIEWPORT
  5
30
 67
     1
  8
0
 10
139.22375631332389
 20
100.8062499761581
 30
0.0
 40
222.75801010131829
 41
161.289999961853
 68
     1
 69
     2
1001
ACAD
1000
MVIEW
1002
{
1070
    16
1010
0.0
1020
0.0
1030
0.0
1010
0.0
1020
0.0
1030
1.0
1040
0.0
1040
307.49010134148989
1040
210.0
1040
148.5
1040
50.0
1040
0.0
1040
0.0
1070
     0
1070
   100
1070
     1
1070
     3
1070
     0
1070
     1
1070
     0
1070
     0
1040
0.0
1040
0.0
1040
0.0
1040
10.0
1040
10.0
1040
10.0
1040
10.0
1070
     0
1002
{
1002
}
1002
}
  0
ENDSEC
  0
EOF
