  0
SECTION
  2
HEADER
  9
$ACADVER
  1
AC1009
  9
$INSBASE
 10
0.0
 20
0.0
 30
0.0
  9
$EXTMIN
 10
-0.9
 20
-7.3200874008000003
 30
-20.140000000000001
  9
$EXTMAX
 10
0.9
 20
2.4399999999999999
 30
1.9900000000000011
  9
$LIMMIN
 10
0.0
 20
0.0
  9
$LIMMAX
 10
420.0
 20
297.0
  9
$ORTHOMODE
 70
     1
  9
$REGENMODE
 70
     1
  9
$FILLMODE
 70
     1
  9
$QTEXTMODE
 70
     0
  9
$MIRRTEXT
 70
     1
  9
$DRAGMODE
 70
     2
  9
$LTSCALE
 40
1.0
  9
$OSMODE
 70
    35
  9
$ATTMODE
 70
     1
  9
$TEXTSIZE
 40
2.5
  9
$TRACEWID
 40
1.0
  9
$TEXTSTYLE
  7
STANDARD
  9
$CLAYER
  8
FRAME
  9
$CELTYPE
  6
BYLAYER
  9
$CECOLOR
 62
   256
  9
$DIMSCALE
 40
1.0
  9
$DIMASZ
 40
2.5
  9
$DIMEXO
 40
0.625
  9
$DIMDLI
 40
3.75
  9
$DIMRND
 40
0.0
  9
$DIMDLE
 40
0.0
  9
$DIMEXE
 40
1.25
  9
$DIMTP
 40
0.0
  9
$DIMTM
 40
0.0
  9
$DIMTXT
 40
2.5
  9
$DIMCEN
 40
2.5
  9
$DIMTSZ
 40
0.0
  9
$DIMTOL
 70
     0
  9
$DIMLIM
 70
     0
  9
$DIMTIH
 70
     0
  9
$DIMTOH
 70
     0
  9
$DIMSE1
 70
     0
  9
$DIMSE2
 70
     0
  9
$DIMTAD
 70
     1
  9
$DIMZIN
 70
     8
  9
$DIMBLK
  1

  9
$DIMASO
 70
     1
  9
$DIMSHO
 70
     1
  9
$DIMPOST
  1

  9
$DIMAPOST
  1

  9
$DIMALT
 70
     0
  9
$DIMALTD
 70
     3
  9
$DIMALTF
 40
0.03937007874016
  9
$DIMLFAC
 40
1.0
  9
$DIMTOFL
 70
     1
  9
$DIMTVP
 40
0.0
  9
$DIMTIX
 70
     0
  9
$DIMSOXD
 70
     0
  9
$DIMSAH
 70
     0
  9
$DIMBLK1
  1

  9
$DIMBLK2
  1

  9
$DIMSTYLE
  2
ISO-25
  9
$DIMCLRD
 70
     0
  9
$DIMCLRE
 70
     0
  9
$DIMCLRT
 70
     0
  9
$DIMTFAC
 40
1.0
  9
$DIMGAP
 40
0.625
  9
$LUNITS
 70
     2
  9
$LUPREC
 70
     4
  9
$SKETCHINC
 40
1.0
  9
$FILLETRAD
 40
10.0
  9
$AUNITS
 70
     0
  9
$AUPREC
 70
     0
  9
$MENU
  1
.
  9
$ELEVATION
 40
0.0
  9
$PELEVATION
 40
0.0
  9
$THICKNESS
 40
0.0
  9
$LIMCHECK
 70
     0
  9
$BLIPMODE
 70
     0
  9
$CHAMFERA
 40
10.0
  9
$CHAMFERB
 40
10.0
  9
$SKPOLY
 70
     0
  9
$TDCREATE
 40
2457522.447146412
  9
$TDUPDATE
 40
2457522.4482641658
  9
$TDINDWG
 40
0.0011178241
  9
$TDUSRTIMER
 40
0.0011178125
  9
$USRTIMER
 70
     1
  9
$ANGBASE
 50
0.0
  9
$ANGDIR
 70
     0
  9
$PDMODE
 70
     0
  9
$PDSIZE
 40
0.0
  9
$PLINEWID
 40
0.0
  9
$COORDS
 70
     1
  9
$SPLFRAME
 70
     0
  9
$SPLINETYPE
 70
     6
  9
$SPLINESEGS
 70
     8
  9
$ATTDIA
 70
     1
  9
$ATTREQ
 70
     1
  9
$HANDLING
 70
-16383
  9
$HANDSEED
  5
FAE
  9
$SURFTAB1
 70
     6
  9
$SURFTAB2
 70
     6
  9
$SURFTYPE
 70
     6
  9
$SURFU
 70
     6
  9
$SURFV
 70
     6
  9
$UCSNAME
  2

  9
$UCSORG
 10
0.0
 20
0.0
 30
0.0
  9
$UCSXDIR
 10
0.0
 20
-1.0
 30
0.0
  9
$UCSYDIR
 10
0.0
 20
0.0
 30
1.0
  9
$PUCSNAME
  2

  9
$PUCSORG
 10
0.0
 20
0.0
 30
0.0
  9
$PUCSXDIR
 10
1.0
 20
0.0
 30
0.0
  9
$PUCSYDIR
 10
0.0
 20
1.0
 30
0.0
  9
$USERI1
 70
     0
  9
$USERI2
 70
     0
  9
$USERI3
 70
     0
  9
$USERI4
 70
     0
  9
$USERI5
 70
     0
  9
$USERR1
 40
0.0
  9
$USERR2
 40
0.0
  9
$USERR3
 40
0.0
  9
$USERR4
 40
0.0
  9
$USERR5
 40
0.0
  9
$WORLDVIEW
 70
     1
  9
$SHADEDGE
 70
     3
  9
$SHADEDIF
 70
    70
  9
$TILEMODE
 70
     1
  9
$MAXACTVP
 70
    64
  9
$PLIMCHECK
 70
     0
  9
$PEXTMIN
 10
27.844751262664801
 20
20.161249995231621
 30
0.0
  9
$PEXTMAX
 10
250.60276136398309
 20
181.4512499570846
 30
0.0
  9
$PLIMMIN
 10
-3.757080078125
 20
-3.7570831775665279
  9
$PLIMMAX
 10
293.21124267578119
 20
206.21624445915219
  9
$UNITMODE
 70
     0
  9
$VISRETAIN
 70
     1
  9
$PLINEGEN
 70
     0
  9
$PSLTSCALE
 70
     1
  0
ENDSEC
  0
SECTION
  2
TABLES
  0
TABLE
  2
VPORT
 70
     3
  0
VPORT
  2
*ACTIVE
 70
     0
 10
0.0
 20
0.0
 11
1.0
 21
1.0
 12
7.6566828966447353
 22
-0.1365776688779725
 13
0.0
 23
0.0
 14
0.01
 24
0.01
 15
1.0
 25
1.0
 16
-1.0
 26
0.0
 36
0.0
 17
0.0
 27
0.0
 37
0.0
 40
24.25173249215208
 41
2.1655092592592591
 42
50.0
 43
0.0
 44
0.0
 50
0.0
 51
0.0
 71
     0
 72
   100
 73
     1
 74
     3
 75
     1
 76
     1
 77
     0
 78
     0
  0
ENDTAB
  0
TABLE
  2
LTYPE
 70
     1
  0
LTYPE
  2
CONTINUOUS
 70
     0
  3
Solid line
 72
    65
 73
     0
 40
0.0
  0
ENDTAB
  0
TABLE
  2
LAYER
 70
     8
  0
LAYER
  2
0
 70
     0
 62
     7
  6
CONTINUOUS
  0
LAYER
  2
REFERENCE
 70
     0
 62
     9
  6
CONTINUOUS
  0
LAYER
  2
WHEELS
 70
     0
 62
     2
  6
CONTINUOUS
  0
LAYER
  2
TMP
 70
     0
 62
     4
  6
CONTINUOUS
  0
LAYER
  2
FRAME
 70
     0
 62
     5
  6
CONTINUOUS
  0
LAYER
  2
INTERNALS
 70
     0
 62
     3
  6
CONTINUOUS
  0
LAYER
  2
FENDERS
 70
     0
 62
     6
  6
CONTINUOUS
  0
LAYER
  2
TENT
 70
     0
 62
     4
  6
CONTINUOUS
  0
ENDTAB
  0
TABLE
  2
STYLE
 70
     1
  0
STYLE
  2
STANDARD
 70
     0
 40
0.0
 41
1.0
 50
0.0
 71
     0
 42
2.5
  3
txt
  4

  0
ENDTAB
  0
TABLE
  2
VIEW
 70
     0
  0
ENDTAB
  0
TABLE
  2
UCS
 70
     0
  0
ENDTAB
  0
TABLE
  2
APPID
 70
     1
  0
APPID
  2
ACAD
 70
     0
  0
ENDTAB
  0
TABLE
  2
DIMSTYLE
 70
     1
  0
DIMSTYLE
  2
ISO-25
 70
     0
  3

  4

  5

  6

  7

 40
1.0
 41
2.5
 42
0.625
 43
3.75
 44
1.25
 45
0.0
 46
0.0
 47
0.0
 48
0.0
140
2.5
141
2.5
142
0.0
143
0.03937007874016
144
1.0
145
0.0
146
1.0
147
0.625
 71
     0
 72
     0
 73
     0
 74
     0
 75
     0
 76
     0
 77
     1
 78
     8
170
     0
171
     3
172
     1
173
     0
174
     0
175
     0
176
     0
177
     0
178
     0
  0
ENDTAB
  0
ENDSEC
  0
SECTION
  2
BLOCKS
  0
BLOCK
  8
0
  2
$MODEL_SPACE
 70
     0
 10
0.0
 20
0.0
 30
0.0
  3
$MODEL_SPACE
  1

  0
ENDBLK
  5
21
  8
0
  0
BLOCK
 67
     1
  8
0
  2
$PAPER_SPACE
 70
     0
 10
0.0
 20
0.0
 30
0.0
  3
$PAPER_SPACE
  1

  0
ENDBLK
  5
1D
 67
     1
  8
0
  0
ENDSEC
  0
SECTION
  2
ENTITIES
  0
3DFACE
  5
893
  8
FRAME
 10
0.0282842712474619
 20
-1.099999999999999
 30
0.3717157287525392
 11
0.04
 21
-1.119999999999999
 31
0.4000000000000004
 12
0.04
 22
-1.569999999999999
 32
0.4000000000000004
 13
0.0282842712474619
 23
-1.569999999999999
 33
0.3717157287525392
  0
3DFACE
  5
894
  8
FRAME
 10
0.0
 20
-1.089999999999999
 30
0.3600000000000012
 11
0.0282842712474619
 21
-1.099999999999999
 31
0.3717157287525392
 12
0.0282842712474619
 22
-1.569999999999999
 32
0.3717157287525392
 13
0.0
 23
-1.569999999999999
 33
0.3600000000000012
  0
3DFACE
  5
895
  8
FRAME
 10
-0.0282842712474619
 20
-1.099999999999999
 30
0.3717157287525392
 11
0.0
 21
-1.089999999999999
 31
0.3600000000000012
 12
0.0
 22
-1.569999999999999
 32
0.3600000000000012
 13
-0.0282842712474619
 23
-1.569999999999999
 33
0.3717157287525392
  0
3DFACE
  5
896
  8
FRAME
 10
-0.04
 20
-1.119999999999999
 30
0.4000000000000004
 11
-0.0282842712474619
 21
-1.099999999999999
 31
0.3717157287525392
 12
-0.0282842712474619
 22
-1.569999999999999
 32
0.3717157287525392
 13
-0.04
 23
-1.569999999999999
 33
0.4000000000000004
  0
3DFACE
  5
897
  8
FRAME
 10
-0.0282842712474619
 20
-1.099999999999999
 30
0.4282842712474615
 11
-0.04
 21
-1.119999999999999
 31
0.4000000000000004
 12
-0.04
 22
-1.569999999999999
 32
0.4000000000000004
 13
-0.0282842712474619
 23
-1.569999999999999
 33
0.4282842712474615
  0
3DFACE
  5
898
  8
FRAME
 10
0.0
 20
-1.089999999999999
 30
0.4399999999999995
 11
-0.0282842712474619
 21
-1.099999999999999
 31
0.4282842712474615
 12
-0.0282842712474619
 22
-1.569999999999999
 32
0.4282842712474615
 13
0.0
 23
-1.569999999999999
 33
0.4399999999999995
  0
3DFACE
  5
899
  8
FRAME
 10
0.0282842712474619
 20
-1.099999999999999
 30
0.4282842712474615
 11
0.0
 21
-1.089999999999999
 31
0.4399999999999995
 12
0.0
 22
-1.569999999999999
 32
0.4399999999999995
 13
0.0282842712474619
 23
-1.569999999999999
 33
0.4282842712474615
  0
3DFACE
  5
89A
  8
FRAME
 10
0.04
 20
-1.119999999999999
 30
0.4000000000000004
 11
0.0282842712474619
 21
-1.099999999999999
 31
0.4282842712474615
 12
0.0282842712474619
 22
-1.569999999999999
 32
0.4282842712474615
 13
0.04
 23
-1.569999999999999
 33
0.4000000000000004
  0
3DFACE
  5
89B
  8
FRAME
 10
-0.4900000000000001
 20
-1.0399999999999989
 30
0.5199999999999996
 11
-0.4900000000000001
 21
-1.4399999999999979
 31
0.5199999999999996
 12
-0.5700000000000001
 22
-1.4399999999999979
 32
0.5199999999999996
 13
-0.5700000000000001
 23
-1.0399999999999989
 33
0.5199999999999996
  0
3DFACE
  5
89C
  8
FRAME
 10
-0.5700000000000001
 20
-1.0399999999999989
 30
0.5199999999999996
 11
-0.5700000000000001
 21
-1.4399999999999979
 31
0.5199999999999996
 12
-0.5700000000000001
 22
-1.4399999999999979
 32
0.6500000000000004
 13
-0.5700000000000001
 23
-1.0399999999999989
 33
0.6500000000000004
  0
3DFACE
  5
89D
  8
FRAME
 10
-0.5700000000000001
 20
-1.0399999999999989
 30
0.6500000000000004
 11
-0.5700000000000001
 21
-1.4399999999999979
 31
0.6500000000000004
 12
-0.4900000000000001
 22
-1.4399999999999979
 32
0.6500000000000004
 13
-0.4900000000000001
 23
-1.0399999999999989
 33
0.6500000000000004
  0
3DFACE
  5
89E
  8
FRAME
 10
-0.4900000000000001
 20
-1.4399999999999979
 30
0.6500000000000004
 11
-0.4900000000000001
 21
-1.4399999999999979
 31
0.5199999999999996
 12
-0.4900000000000001
 22
-1.0399999999999989
 32
0.5199999999999996
 13
-0.4900000000000001
 23
-1.0399999999999989
 33
0.6500000000000004
  0
3DFACE
  5
89F
  8
FRAME
 10
0.5700000000000001
 20
-1.0399999999999989
 30
0.5199999999999996
 11
0.5700000000000001
 21
-1.4399999999999979
 31
0.5199999999999996
 12
0.4900000000000001
 22
-1.4399999999999979
 32
0.5199999999999996
 13
0.4900000000000001
 23
-1.0399999999999989
 33
0.5199999999999996
  0
3DFACE
  5
8A0
  8
FRAME
 10
0.4900000000000001
 20
-1.0399999999999989
 30
0.5199999999999996
 11
0.4900000000000001
 21
-1.4399999999999979
 31
0.5199999999999996
 12
0.4900000000000001
 22
-1.4399999999999979
 32
0.6500000000000004
 13
0.4900000000000001
 23
-1.0399999999999989
 33
0.6500000000000004
  0
3DFACE
  5
8A1
  8
FRAME
 10
0.5700000000000001
 20
-1.4399999999999979
 30
0.6500000000000004
 11
0.5700000000000001
 21
-1.4399999999999979
 31
0.5199999999999996
 12
0.5700000000000001
 22
-1.0399999999999989
 32
0.5199999999999996
 13
0.5700000000000001
 23
-1.0399999999999989
 33
0.6500000000000004
  0
3DFACE
  5
8A2
  8
FRAME
 10
0.4900000000000001
 20
-1.0399999999999989
 30
0.6500000000000004
 11
0.4900000000000001
 21
-1.4399999999999979
 31
0.6500000000000004
 12
0.5700000000000001
 22
-1.4399999999999979
 32
0.6500000000000004
 13
0.5700000000000001
 23
-1.0399999999999989
 33
0.6500000000000004
  0
3DFACE
  5
8CD
  8
FRAME
 10
-0.3499999999999996
 20
-1.0
 30
0.75
 11
-0.3499999999999996
 21
-1.6999999999999991
 31
0.75
 12
-0.3499999999999996
 22
-1.6999999999999991
 32
0.6899999999999995
 13
-0.3499999999999996
 23
-1.4799999999999991
 33
0.6899999999999995
  0
3DFACE
  5
8CE
  8
FRAME
 10
-0.3499999999999996
 20
-0.8899999999999996
 30
0.7200000000000008
 11
-0.3499999999999996
 21
-1.0
 31
0.75
 12
-0.3499999999999996
 22
-1.4799999999999991
 32
0.6899999999999995
 13
-0.3499999999999996
 23
-1.4399999999999991
 33
0.6600000000000003
  0
3DFACE
  5
8CF
  8
FRAME
 10
-0.4100000000000001
 20
-1.4799999999999991
 30
0.6899999999999995
 11
-0.4100000000000001
 21
-1.6999999999999991
 31
0.6899999999999995
 12
-0.4100000000000001
 22
-1.6999999999999991
 32
0.75
 13
-0.4100000000000001
 23
-1.0
 33
0.75
  0
3DFACE
  5
8D0
  8
FRAME
 10
-0.4100000000000001
 20
-1.4399999999999991
 30
0.6600000000000003
 11
-0.4100000000000001
 21
-1.4799999999999991
 31
0.6899999999999995
 12
-0.4100000000000001
 22
-1.0
 32
0.75
 13
-0.4100000000000001
 23
-0.8899999999999996
 33
0.7200000000000008
  0
3DFACE
  5
8D1
  8
FRAME
 10
-0.3499999999999996
 20
-1.0199999999999989
 30
0.6099999999999995
 11
-0.3499999999999996
 21
-0.8899999999999996
 31
0.7200000000000008
 12
-0.3499999999999996
 22
-1.4399999999999991
 32
0.6600000000000003
 13
-0.3499999999999996
 23
-1.429999999999999
 33
0.6099999999999995
  0
3DFACE
  5
8D2
  8
FRAME
 10
-0.4100000000000001
 20
-1.429999999999999
 30
0.6099999999999995
 11
-0.4100000000000001
 21
-1.4399999999999991
 31
0.6600000000000003
 12
-0.4100000000000001
 22
-0.8899999999999996
 32
0.7200000000000008
 13
-0.4100000000000001
 23
-1.0199999999999989
 33
0.6099999999999995
  0
3DFACE
  5
8D3
  8
FRAME
 10
-0.4100000000000001
 20
-1.0199999999999989
 30
0.6099999999999995
 11
-0.3499999999999996
 21
-1.0199999999999989
 31
0.6099999999999995
 12
-0.3499999999999996
 22
-1.429999999999999
 32
0.6099999999999995
 13
-0.4100000000000001
 23
-1.429999999999999
 33
0.6099999999999995
  0
3DFACE
  5
8D4
  8
FRAME
 10
0.4100000000000005
 20
-1.0199999999999989
 30
0.6099999999999995
 11
0.4100000000000005
 21
-0.8899999999999996
 31
0.7200000000000008
 12
0.4100000000000005
 22
-1.4399999999999991
 32
0.6600000000000003
 13
0.4100000000000005
 23
-1.429999999999999
 33
0.6099999999999995
  0
3DFACE
  5
8D5
  8
FRAME
 10
0.35
 20
-1.0199999999999989
 30
0.6099999999999995
 11
0.4100000000000005
 21
-1.0199999999999989
 31
0.6099999999999995
 12
0.4100000000000005
 22
-1.429999999999999
 32
0.6099999999999995
 13
0.35
 23
-1.429999999999999
 33
0.6099999999999995
  0
3DFACE
  5
8D6
  8
FRAME
 10
0.35
 20
-1.429999999999999
 30
0.6099999999999995
 11
0.35
 21
-1.4399999999999991
 31
0.6600000000000003
 12
0.35
 22
-0.8899999999999996
 32
0.7200000000000008
 13
0.35
 23
-1.0199999999999989
 33
0.6099999999999995
  0
3DFACE
  5
8D7
  8
FRAME
 10
0.35
 20
-1.4399999999999991
 30
0.6600000000000003
 11
0.35
 21
-1.4799999999999991
 31
0.6899999999999995
 12
0.35
 22
-1.0
 32
0.75
 13
0.35
 23
-0.8899999999999996
 33
0.7200000000000008
  0
3DFACE
  5
8D8
  8
FRAME
 10
0.4100000000000005
 20
-0.8899999999999996
 30
0.7200000000000008
 11
0.4100000000000005
 21
-1.0
 31
0.75
 12
0.4100000000000005
 22
-1.4799999999999991
 32
0.6899999999999995
 13
0.4100000000000005
 23
-1.4399999999999991
 33
0.6600000000000003
  0
3DFACE
  5
8D9
  8
FRAME
 10
0.35
 20
-1.4799999999999991
 30
0.6899999999999995
 11
0.35
 21
-1.6999999999999991
 31
0.6899999999999995
 12
0.35
 22
-1.6999999999999991
 32
0.75
 13
0.35
 23
-1.0
 33
0.75
  0
3DFACE
  5
8DA
  8
FRAME
 10
0.4100000000000005
 20
-1.0
 30
0.75
 11
0.4100000000000005
 21
-1.6999999999999991
 31
0.75
 12
0.4100000000000005
 22
-1.6999999999999991
 32
0.6899999999999995
 13
0.4100000000000005
 23
-1.4799999999999991
 33
0.6899999999999995
  0
3DFACE
  5
8DB
  8
FRAME
 10
0.4600000000000001
 20
-1.4799999999999991
 30
0.6500000000000004
 11
0.4600000000000001
 21
-1.4799999999999991
 31
0.5199999999999996
 12
-0.4599999999999996
 22
-1.4799999999999991
 32
0.5199999999999996
 13
-0.4599999999999996
 23
-1.4799999999999991
 33
0.6500000000000004
  0
3DFACE
  5
8DC
  8
FRAME
 10
-0.4599999999999996
 20
-1.5599999999999989
 30
0.6500000000000004
 11
0.4600000000000001
 21
-1.5599999999999989
 31
0.6500000000000004
 12
0.4600000000000001
 22
-1.4799999999999991
 32
0.6500000000000004
 13
-0.4599999999999996
 23
-1.4799999999999991
 33
0.6500000000000004
  0
3DFACE
  5
8DD
  8
FRAME
 10
-0.4599999999999996
 20
-1.5599999999999989
 30
0.5199999999999996
 11
0.4600000000000001
 21
-1.5599999999999989
 31
0.5199999999999996
 12
0.4600000000000001
 22
-1.5599999999999989
 32
0.6500000000000004
 13
-0.4599999999999996
 23
-1.5599999999999989
 33
0.6500000000000004
  0
3DFACE
  5
8DE
  8
FRAME
 10
-0.4599999999999996
 20
-1.4799999999999991
 30
0.5199999999999996
 11
0.4600000000000001
 21
-1.4799999999999991
 31
0.5199999999999996
 12
0.4600000000000001
 22
-1.5599999999999989
 32
0.5199999999999996
 13
-0.4599999999999996
 23
-1.5599999999999989
 33
0.5199999999999996
  0
3DFACE
  5
8DF
  8
FRAME
 10
-0.4600000000000001
 20
-1.609999999999999
 30
0.6500000000000004
 11
-0.4600000000000001
 21
-1.609999999999999
 31
0.5199999999999996
 12
-0.4600000000000001
 22
-1.5599999999999989
 32
0.5199999999999996
 13
-0.4600000000000001
 23
-1.5599999999999989
 33
0.6500000000000004
  0
3DFACE
  5
8E0
  8
FRAME
 10
-0.6000000000000001
 20
-1.6099999999999981
 30
0.6500000000000004
 11
-0.6000000000000001
 21
-1.6099999999999981
 31
0.5199999999999996
 12
-0.4600000000000001
 22
-1.6099999999999981
 32
0.5199999999999996
 13
-0.4600000000000001
 23
-1.6099999999999981
 33
0.6500000000000004
  0
3DFACE
  5
8E1
  8
FRAME
 10
-0.4600000000000001
 20
-1.4799999999999991
 30
0.6500000000000004
 11
-0.4600000000000001
 21
-1.4799999999999991
 31
0.5199999999999996
 12
-0.4600000000000001
 22
-1.4399999999999991
 32
0.5199999999999996
 13
-0.4600000000000001
 23
-1.4399999999999991
 33
0.6500000000000004
  0
3DFACE
  5
8E2
  8
FRAME
 10
-0.6000000000000001
 20
-1.4399999999999991
 30
0.6500000000000004
 11
-0.6000000000000001
 21
-1.6099999999999981
 31
0.6500000000000004
 12
-0.4600000000000001
 22
-1.6099999999999981
 32
0.6500000000000004
 13
-0.4600000000000001
 23
-1.4399999999999991
 33
0.6500000000000004
  0
3DFACE
  5
8E3
  8
FRAME
 10
-0.6000000000000001
 20
-1.4399999999999991
 30
0.5199999999999996
 11
-0.6000000000000001
 21
-1.6099999999999981
 31
0.5199999999999996
 12
-0.6000000000000001
 22
-1.6099999999999981
 32
0.6500000000000004
 13
-0.6000000000000001
 23
-1.4399999999999991
 33
0.6500000000000004
  0
3DFACE
  5
8E4
  8
FRAME
 10
-0.4600000000000001
 20
-1.4399999999999991
 30
0.5199999999999996
 11
-0.4600000000000001
 21
-1.6099999999999981
 31
0.5199999999999996
 12
-0.6000000000000001
 22
-1.6099999999999981
 32
0.5199999999999996
 13
-0.6000000000000001
 23
-1.4399999999999991
 33
0.5199999999999996
  0
3DFACE
  5
8E5
  8
FRAME
 10
-0.5700000000000001
 20
-1.4399999999999991
 30
0.6500000000000004
 11
-0.5700000000000001
 21
-1.4399999999999991
 31
0.5199999999999996
 12
-0.6000000000000001
 22
-1.4399999999999991
 32
0.5199999999999996
 13
-0.6000000000000001
 23
-1.4399999999999991
 33
0.6500000000000004
  0
3DFACE
  5
8E6
  8
FRAME
 10
-0.4600000000000001
 20
-1.4399999999999991
 30
0.6500000000000004
 11
-0.4600000000000001
 21
-1.4399999999999991
 31
0.5199999999999996
 12
-0.4900000000000001
 22
-1.4399999999999991
 32
0.5199999999999996
 13
-0.4900000000000001
 23
-1.4399999999999991
 33
0.6500000000000004
  0
3DFACE
  5
8F3
  8
FRAME
 10
-0.3499999999999996
 20
-1.4399999999999991
 30
0.6600000000000003
 11
-0.3499999999999996
 21
-1.4799999999999991
 31
0.6899999999999995
 12
-0.4100000000000001
 22
-1.4799999999999991
 32
0.6899999999999995
 13
-0.4100000000000001
 23
-1.4399999999999991
 33
0.6600000000000003
  0
3DFACE
  5
8F4
  8
FRAME
 10
-0.3499999999999996
 20
-1.4799999999999991
 30
0.6899999999999995
 11
-0.3499999999999996
 21
-1.6999999999999991
 31
0.6899999999999995
 12
-0.4100000000000001
 22
-1.6999999999999991
 32
0.6899999999999995
 13
-0.4100000000000001
 23
-1.4799999999999991
 33
0.6899999999999995
  0
3DFACE
  5
8F5
  8
FRAME
 10
-0.3499999999999996
 20
-1.429999999999999
 30
0.6099999999999995
 11
-0.3499999999999996
 21
-1.4399999999999991
 31
0.6600000000000003
 12
-0.4100000000000001
 22
-1.4399999999999991
 32
0.6600000000000003
 13
-0.4100000000000001
 23
-1.429999999999999
 33
0.6099999999999995
  0
3DFACE
  5
8F6
  8
FRAME
 10
-0.4100000000000001
 20
-1.6999999999999991
 30
0.6899999999999995
 11
-0.3499999999999996
 21
-1.6999999999999991
 31
0.6899999999999995
 12
-0.3499999999999996
 22
-1.6999999999999991
 32
0.75
 13
-0.4100000000000001
 23
-1.6999999999999991
 33
0.75
  0
3DFACE
  5
8F8
  8
FRAME
 10
0.4600000000000001
 20
-1.5599999999999989
 30
0.5199999999999996
 11
0.4600000000000001
 21
-1.609999999999999
 31
0.5199999999999996
 12
0.4600000000000001
 22
-1.609999999999999
 32
0.6500000000000004
 13
0.4600000000000001
 23
-1.5599999999999989
 33
0.6500000000000004
  0
3DFACE
  5
8F9
  8
FRAME
 10
0.0282842712474619
 20
-1.569999999999999
 30
0.4282842712474615
 11
0.0
 21
-1.569999999999999
 31
0.3600000000000012
 12
0.0282842712474619
 22
-1.569999999999999
 32
0.3717157287525392
 13
0.04
 23
-1.569999999999999
 33
0.4000000000000004
  0
3DFACE
  5
8FA
  8
FRAME
 10
0.0
 20
-1.569999999999999
 30
0.4399999999999995
 11
-0.0282842712474619
 21
-1.569999999999999
 31
0.3717157287525392
 12
0.0
 22
-1.569999999999999
 32
0.3600000000000012
 13
0.0282842712474619
 23
-1.569999999999999
 33
0.4282842712474615
  0
3DFACE
  5
8FB
  8
FRAME
 10
-0.0282842712474619
 20
-1.569999999999999
 30
0.4282842712474615
 11
-0.04
 21
-1.569999999999999
 31
0.4000000000000004
 12
-0.0282842712474619
 22
-1.569999999999999
 32
0.3717157287525392
 13
0.0
 23
-1.569999999999999
 33
0.4399999999999995
  0
3DFACE
  5
8FC
  8
FRAME
 10
0.0
 20
-1.6624264068711929
 30
0.4424264068711939
 11
-0.01
 21
-1.655355339059329
 31
0.4353553390593295
 12
-0.01
 22
-1.6699999999999999
 32
0.4000000000000004
 13
0.0
 23
-1.6799999999999999
 33
0.4000000000000004
  0
3DFACE
  5
8FD
  8
FRAME
 10
0.0099999999999998
 20
-1.655355339059329
 30
0.4353553390593295
 11
0.0
 21
-1.6624264068711929
 31
0.4424264068711939
 12
0.0
 22
-1.6799999999999999
 32
0.4000000000000004
 13
0.0099999999999998
 23
-1.6699999999999999
 33
0.4000000000000004
  0
3DFACE
  5
8FE
  8
FRAME
 10
0.0
 20
-1.6482842712474639
 30
0.4282842712474633
 11
0.0099999999999998
 21
-1.655355339059329
 31
0.4353553390593295
 12
0.0099999999999998
 22
-1.6699999999999999
 32
0.4000000000000004
 13
0.0
 23
-1.660000000000001
 33
0.4000000000000004
  0
3DFACE
  5
8FF
  8
FRAME
 10
-0.01
 20
-1.655355339059329
 30
0.4353553390593295
 11
0.0
 21
-1.6482842712474639
 31
0.4282842712474633
 12
0.0
 22
-1.660000000000001
 32
0.4000000000000004
 13
-0.01
 23
-1.6699999999999999
 33
0.4000000000000004
  0
3DFACE
  5
900
  8
FRAME
 10
0.0
 20
-1.6200000000000001
 30
0.460000000000001
 11
-0.01
 21
-1.6200000000000001
 31
0.4499999999999993
 12
-0.01
 22
-1.655355339059329
 32
0.4353553390593295
 13
0.0
 23
-1.6624264068711929
 33
0.4424264068711939
  0
3DFACE
  5
901
  8
FRAME
 10
0.0099999999999998
 20
-1.6200000000000001
 30
0.4499999999999993
 11
0.0
 21
-1.6200000000000001
 31
0.460000000000001
 12
0.0
 22
-1.6624264068711929
 32
0.4424264068711939
 13
0.0099999999999998
 23
-1.655355339059329
 33
0.4353553390593295
  0
3DFACE
  5
902
  8
FRAME
 10
0.0
 20
-1.6200000000000001
 30
0.4400000000000013
 11
0.0099999999999998
 21
-1.6200000000000001
 31
0.4499999999999993
 12
0.0099999999999998
 22
-1.655355339059329
 32
0.4353553390593295
 13
0.0
 23
-1.6482842712474639
 33
0.4282842712474633
  0
3DFACE
  5
903
  8
FRAME
 10
-0.01
 20
-1.6200000000000001
 30
0.4499999999999993
 11
0.0
 21
-1.6200000000000001
 31
0.4400000000000013
 12
0.0
 22
-1.6482842712474639
 32
0.4282842712474633
 13
-0.01
 23
-1.655355339059329
 33
0.4353553390593295
  0
3DFACE
  5
904
  8
FRAME
 10
0.0
 20
-1.577573593128806
 30
0.4424264068711939
 11
-0.01
 21
-1.584644660940671
 31
0.4353553390593277
 12
-0.01
 22
-1.6200000000000001
 32
0.4499999999999993
 13
0.0
 23
-1.6200000000000001
 33
0.460000000000001
  0
3DFACE
  5
905
  8
FRAME
 10
0.0099999999999998
 20
-1.584644660940671
 30
0.4353553390593277
 11
0.0
 21
-1.577573593128806
 31
0.4424264068711939
 12
0.0
 22
-1.6200000000000001
 32
0.460000000000001
 13
0.0099999999999998
 23
-1.6200000000000001
 33
0.4499999999999993
  0
3DFACE
  5
906
  8
FRAME
 10
0.0
 20
-1.591715728752537
 30
0.4282842712474633
 11
0.0099999999999998
 21
-1.584644660940671
 31
0.4353553390593277
 12
0.0099999999999998
 22
-1.6200000000000001
 32
0.4499999999999993
 13
0.0
 23
-1.6200000000000001
 33
0.4400000000000013
  0
3DFACE
  5
907
  8
FRAME
 10
-0.01
 20
-1.584644660940671
 30
0.4353553390593277
 11
0.0
 21
-1.591715728752537
 31
0.4282842712474633
 12
0.0
 22
-1.6200000000000001
 32
0.4400000000000013
 13
-0.01
 23
-1.6200000000000001
 33
0.4499999999999993
  0
3DFACE
  5
908
  8
FRAME
 10
0.0
 20
-1.5599999999999989
 30
0.4000000000000004
 11
-0.01
 21
-1.569999999999999
 31
0.4000000000000004
 12
-0.01
 22
-1.584644660940671
 32
0.4353553390593277
 13
0.0
 23
-1.577573593128806
 33
0.4424264068711939
  0
3DFACE
  5
909
  8
FRAME
 10
0.0099999999999998
 20
-1.569999999999999
 30
0.4000000000000004
 11
0.0
 21
-1.5599999999999989
 31
0.4000000000000004
 12
0.0
 22
-1.577573593128806
 32
0.4424264068711939
 13
0.0099999999999998
 23
-1.584644660940671
 33
0.4353553390593277
  0
3DFACE
  5
90A
  8
FRAME
 10
0.0
 20
-1.579999999999999
 30
0.4000000000000004
 11
0.0099999999999998
 21
-1.569999999999999
 31
0.4000000000000004
 12
0.0099999999999998
 22
-1.584644660940671
 32
0.4353553390593277
 13
0.0
 23
-1.591715728752537
 33
0.4282842712474633
  0
3DFACE
  5
90B
  8
FRAME
 10
-0.01
 20
-1.569999999999999
 30
0.4000000000000004
 11
0.0
 21
-1.579999999999999
 31
0.4000000000000004
 12
0.0
 22
-1.591715728752537
 32
0.4282842712474633
 13
-0.01
 23
-1.584644660940671
 33
0.4353553390593277
  0
3DFACE
  5
90C
  8
FRAME
 10
0.0
 20
-1.577573593128806
 30
0.3575735931288069
 11
-0.01
 21
-1.5846446609406719
 31
0.364644660940673
 12
-0.01
 22
-1.569999999999999
 32
0.4000000000000004
 13
0.0
 23
-1.5599999999999989
 33
0.4000000000000004
  0
3DFACE
  5
90D
  8
FRAME
 10
0.0099999999999998
 20
-1.5846446609406719
 30
0.364644660940673
 11
0.0
 21
-1.577573593128806
 31
0.3575735931288069
 12
0.0
 22
-1.5599999999999989
 32
0.4000000000000004
 13
0.0099999999999998
 23
-1.569999999999999
 33
0.4000000000000004
  0
3DFACE
  5
90E
  8
FRAME
 10
0.0
 20
-1.591715728752537
 30
0.3717157287525374
 11
0.0099999999999998
 21
-1.5846446609406719
 31
0.364644660940673
 12
0.0099999999999998
 22
-1.569999999999999
 32
0.4000000000000004
 13
0.0
 23
-1.579999999999999
 33
0.4000000000000004
  0
3DFACE
  5
90F
  8
FRAME
 10
-0.01
 20
-1.5846446609406719
 30
0.364644660940673
 11
0.0
 21
-1.591715728752537
 31
0.3717157287525374
 12
0.0
 22
-1.579999999999999
 32
0.4000000000000004
 13
-0.01
 23
-1.569999999999999
 33
0.4000000000000004
  0
3DFACE
  5
910
  8
FRAME
 10
0.0
 20
-1.6200000000000001
 30
0.3399999999999999
 11
-0.01
 21
-1.6200000000000001
 31
0.3499999999999979
 12
-0.01
 22
-1.5846446609406719
 32
0.364644660940673
 13
0.0
 23
-1.577573593128806
 33
0.3575735931288069
  0
3DFACE
  5
911
  8
FRAME
 10
0.0099999999999998
 20
-1.6200000000000001
 30
0.3499999999999979
 11
0.0
 21
-1.6200000000000001
 31
0.3399999999999999
 12
0.0
 22
-1.577573593128806
 32
0.3575735931288069
 13
0.0099999999999998
 23
-1.5846446609406719
 33
0.364644660940673
  0
3DFACE
  5
912
  8
FRAME
 10
0.0
 20
-1.6200000000000001
 30
0.3599999999999994
 11
0.0099999999999998
 21
-1.6200000000000001
 31
0.3499999999999979
 12
0.0099999999999998
 22
-1.5846446609406719
 32
0.364644660940673
 13
0.0
 23
-1.591715728752537
 33
0.3717157287525374
  0
3DFACE
  5
913
  8
FRAME
 10
-0.01
 20
-1.6200000000000001
 30
0.3499999999999979
 11
0.0
 21
-1.6200000000000001
 31
0.3599999999999994
 12
0.0
 22
-1.591715728752537
 32
0.3717157287525374
 13
-0.01
 23
-1.5846446609406719
 33
0.364644660940673
  0
3DFACE
  5
914
  8
FRAME
 10
0.0
 20
-1.6624264068711929
 30
0.3575735931288069
 11
-0.01
 21
-1.6553553390593281
 31
0.364644660940673
 12
-0.01
 22
-1.6200000000000001
 32
0.3499999999999979
 13
0.0
 23
-1.6200000000000001
 33
0.3399999999999999
  0
3DFACE
  5
915
  8
FRAME
 10
0.0099999999999998
 20
-1.6553553390593281
 30
0.364644660940673
 11
0.0
 21
-1.6624264068711929
 31
0.3575735931288069
 12
0.0
 22
-1.6200000000000001
 32
0.3399999999999999
 13
0.0099999999999998
 23
-1.6200000000000001
 33
0.3499999999999979
  0
3DFACE
  5
916
  8
FRAME
 10
0.0
 20
-1.648284271247463
 30
0.3717157287525374
 11
0.0099999999999998
 21
-1.6553553390593281
 31
0.364644660940673
 12
0.0099999999999998
 22
-1.6200000000000001
 32
0.3499999999999979
 13
0.0
 23
-1.6200000000000001
 33
0.3599999999999994
  0
3DFACE
  5
917
  8
FRAME
 10
-0.01
 20
-1.6553553390593281
 30
0.364644660940673
 11
0.0
 21
-1.648284271247463
 31
0.3717157287525374
 12
0.0
 22
-1.6200000000000001
 32
0.3599999999999994
 13
-0.01
 23
-1.6200000000000001
 33
0.3499999999999979
  0
3DFACE
  5
918
  8
FRAME
 10
0.0
 20
-1.6799999999999999
 30
0.4000000000000004
 11
-0.01
 21
-1.6699999999999999
 31
0.4000000000000004
 12
-0.01
 22
-1.6553553390593281
 32
0.364644660940673
 13
0.0
 23
-1.6624264068711929
 33
0.3575735931288069
  0
3DFACE
  5
919
  8
FRAME
 10
0.0099999999999998
 20
-1.6699999999999999
 30
0.4000000000000004
 11
0.0
 21
-1.6799999999999999
 31
0.4000000000000004
 12
0.0
 22
-1.6624264068711929
 32
0.3575735931288069
 13
0.0099999999999998
 23
-1.6553553390593281
 33
0.364644660940673
  0
3DFACE
  5
91A
  8
FRAME
 10
0.0
 20
-1.660000000000001
 30
0.4000000000000004
 11
0.0099999999999998
 21
-1.6699999999999999
 31
0.4000000000000004
 12
0.0099999999999998
 22
-1.6553553390593281
 32
0.364644660940673
 13
0.0
 23
-1.648284271247463
 33
0.3717157287525374
  0
3DFACE
  5
91B
  8
FRAME
 10
-0.01
 20
-1.6699999999999999
 30
0.4000000000000004
 11
0.0
 21
-1.660000000000001
 31
0.4000000000000004
 12
0.0
 22
-1.648284271247463
 32
0.3717157287525374
 13
-0.01
 23
-1.6553553390593281
 33
0.364644660940673
  0
3DFACE
  5
91C
  8
FRAME
 10
0.6
 20
-1.4399999999999991
 30
0.6500000000000004
 11
0.6
 21
-1.4399999999999991
 31
0.5199999999999996
 12
0.5700000000000001
 22
-1.4399999999999991
 32
0.5199999999999996
 13
0.5700000000000001
 23
-1.4399999999999991
 33
0.6500000000000004
  0
3DFACE
  5
91D
  8
FRAME
 10
0.4600000000000001
 20
-1.4399999999999991
 30
0.6500000000000004
 11
0.4600000000000001
 21
-1.6099999999999981
 31
0.6500000000000004
 12
0.6
 22
-1.6099999999999981
 32
0.6500000000000004
 13
0.6
 23
-1.4399999999999991
 33
0.6500000000000004
  0
3DFACE
  5
91E
  8
FRAME
 10
0.6
 20
-1.4399999999999991
 30
0.5199999999999996
 11
0.6
 21
-1.6099999999999981
 31
0.5199999999999996
 12
0.4600000000000001
 22
-1.6099999999999981
 32
0.5199999999999996
 13
0.4600000000000001
 23
-1.4399999999999991
 33
0.5199999999999996
  0
3DFACE
  5
91F
  8
FRAME
 10
0.4900000000000001
 20
-1.4399999999999991
 30
0.6500000000000004
 11
0.4900000000000001
 21
-1.4399999999999991
 31
0.5199999999999996
 12
0.4600000000000001
 22
-1.4399999999999991
 32
0.5199999999999996
 13
0.4600000000000001
 23
-1.4399999999999991
 33
0.6500000000000004
  0
3DFACE
  5
920
  8
FRAME
 10
0.4600000000000001
 20
-1.6099999999999981
 30
0.6500000000000004
 11
0.4600000000000001
 21
-1.6099999999999981
 31
0.5199999999999996
 12
0.6
 22
-1.6099999999999981
 32
0.5199999999999996
 13
0.6
 23
-1.6099999999999981
 33
0.6500000000000004
  0
3DFACE
  5
921
  8
FRAME
 10
0.6
 20
-1.6099999999999981
 30
0.6500000000000004
 11
0.6
 21
-1.6099999999999981
 31
0.5199999999999996
 12
0.6
 22
-1.4399999999999991
 32
0.5199999999999996
 13
0.6
 23
-1.4399999999999991
 33
0.6500000000000004
  0
3DFACE
  5
922
  8
FRAME
 10
0.4600000000000001
 20
-1.4399999999999991
 30
0.5199999999999996
 11
0.4600000000000001
 21
-1.4799999999999991
 31
0.5199999999999996
 12
0.4600000000000001
 22
-1.4799999999999991
 32
0.6500000000000004
 13
0.4600000000000001
 23
-1.4399999999999991
 33
0.6500000000000004
  0
3DFACE
  5
92F
  8
FRAME
 10
0.4100000000000005
 20
-1.429999999999999
 30
0.6099999999999995
 11
0.4100000000000005
 21
-1.4399999999999991
 31
0.6600000000000003
 12
0.35
 22
-1.4399999999999991
 32
0.6600000000000003
 13
0.35
 23
-1.429999999999999
 33
0.6099999999999995
  0
3DFACE
  5
930
  8
FRAME
 10
0.4100000000000005
 20
-1.4399999999999991
 30
0.6600000000000003
 11
0.4100000000000005
 21
-1.4799999999999991
 31
0.6899999999999995
 12
0.35
 22
-1.4799999999999991
 32
0.6899999999999995
 13
0.35
 23
-1.4399999999999991
 33
0.6600000000000003
  0
3DFACE
  5
931
  8
FRAME
 10
0.35
 20
-1.6999999999999991
 30
0.6899999999999995
 11
0.4100000000000005
 21
-1.6999999999999991
 31
0.6899999999999995
 12
0.4100000000000005
 22
-1.6999999999999991
 32
0.75
 13
0.35
 23
-1.6999999999999991
 33
0.75
  0
3DFACE
  5
932
  8
FRAME
 10
0.4100000000000005
 20
-1.4799999999999991
 30
0.6899999999999995
 11
0.4100000000000005
 21
-1.6999999999999991
 31
0.6899999999999995
 12
0.35
 22
-1.6999999999999991
 32
0.6899999999999995
 13
0.35
 23
-1.4799999999999991
 33
0.6899999999999995
  0
3DFACE
  5
938
  8
FRAME
 10
0.6900000000000001
 20
1.0346446609406721
 30
0.364644660940673
 11
0.6900000000000001
 21
1.02
 31
0.4000000000000004
 12
-0.6900000000000001
 22
1.02
 32
0.4000000000000004
 13
-0.6900000000000001
 23
1.0346446609406721
 33
0.364644660940673
  0
3DFACE
  5
939
  8
FRAME
 10
0.6900000000000001
 20
1.0700000000000001
 30
0.3499999999999996
 11
0.6900000000000001
 21
1.0346446609406721
 31
0.364644660940673
 12
-0.6900000000000001
 22
1.0346446609406721
 32
0.364644660940673
 13
-0.6900000000000001
 23
1.0700000000000001
 33
0.3499999999999996
  0
3DFACE
  5
93A
  8
FRAME
 10
0.6900000000000001
 20
1.1053553390593269
 30
0.364644660940673
 11
0.6900000000000001
 21
1.0700000000000001
 31
0.3499999999999996
 12
-0.6900000000000001
 22
1.0700000000000001
 32
0.3499999999999996
 13
-0.6900000000000001
 23
1.1053553390593269
 33
0.364644660940673
  0
3DFACE
  5
93B
  8
FRAME
 10
0.6900000000000001
 20
1.1200000000000001
 30
0.4000000000000004
 11
0.6900000000000001
 21
1.1053553390593269
 31
0.364644660940673
 12
-0.6900000000000001
 22
1.1053553390593269
 32
0.364644660940673
 13
-0.6900000000000001
 23
1.1200000000000001
 33
0.4000000000000004
  0
3DFACE
  5
93C
  8
FRAME
 10
0.6900000000000001
 20
1.1053553390593269
 30
0.4353553390593277
 11
0.6900000000000001
 21
1.1200000000000001
 31
0.4000000000000004
 12
-0.6900000000000001
 22
1.1200000000000001
 32
0.4000000000000004
 13
-0.6900000000000001
 23
1.1053553390593269
 33
0.4353553390593277
  0
3DFACE
  5
93D
  8
FRAME
 10
0.6900000000000001
 20
1.0700000000000001
 30
0.4500000000000012
 11
0.6900000000000001
 21
1.1053553390593269
 31
0.4353553390593277
 12
-0.6900000000000001
 22
1.1053553390593269
 32
0.4353553390593277
 13
-0.6900000000000001
 23
1.0700000000000001
 33
0.4500000000000012
  0
3DFACE
  5
93E
  8
FRAME
 10
0.6900000000000001
 20
1.0346446609406721
 30
0.4353553390593277
 11
0.6900000000000001
 21
1.0700000000000001
 31
0.4500000000000012
 12
-0.6900000000000001
 22
1.0700000000000001
 32
0.4500000000000012
 13
-0.6900000000000001
 23
1.0346446609406721
 33
0.4353553390593277
  0
3DFACE
  5
93F
  8
FRAME
 10
0.6900000000000001
 20
1.02
 30
0.4000000000000004
 11
0.6900000000000001
 21
1.0346446609406721
 31
0.4353553390593277
 12
-0.6900000000000001
 22
1.0346446609406721
 32
0.4353553390593277
 13
-0.6900000000000001
 23
1.02
 33
0.4000000000000004
  0
3DFACE
  5
940
  8
FRAME
 10
0.6900000000000003
 20
-1.1053553390593269
 30
0.364644660940673
 11
0.6900000000000003
 21
-1.1200000000000001
 31
0.4000000000000004
 12
-0.6900000000000001
 22
-1.1200000000000001
 32
0.4000000000000004
 13
-0.6900000000000001
 23
-1.1053553390593269
 33
0.364644660940673
  0
3DFACE
  5
941
  8
FRAME
 10
0.6900000000000003
 20
-1.069999999999999
 30
0.3499999999999996
 11
0.6900000000000003
 21
-1.1053553390593269
 31
0.364644660940673
 12
-0.6900000000000001
 22
-1.1053553390593269
 32
0.364644660940673
 13
-0.6900000000000001
 23
-1.069999999999999
 33
0.3499999999999996
  0
3DFACE
  5
942
  8
FRAME
 10
0.6900000000000003
 20
-1.0346446609406721
 30
0.364644660940673
 11
0.6900000000000003
 21
-1.069999999999999
 31
0.3499999999999996
 12
-0.6900000000000001
 22
-1.069999999999999
 32
0.3499999999999996
 13
-0.6900000000000001
 23
-1.0346446609406721
 33
0.364644660940673
  0
3DFACE
  5
943
  8
FRAME
 10
0.6900000000000003
 20
-1.0199999999999989
 30
0.4000000000000004
 11
0.6900000000000003
 21
-1.0346446609406721
 31
0.364644660940673
 12
-0.6900000000000001
 22
-1.0346446609406721
 32
0.364644660940673
 13
-0.6900000000000001
 23
-1.0199999999999989
 33
0.4000000000000004
  0
3DFACE
  5
944
  8
FRAME
 10
0.6900000000000003
 20
-1.0346446609406721
 30
0.4353553390593277
 11
0.6900000000000003
 21
-1.0199999999999989
 31
0.4000000000000004
 12
-0.6900000000000001
 22
-1.0199999999999989
 32
0.4000000000000004
 13
-0.6900000000000001
 23
-1.0346446609406721
 33
0.4353553390593277
  0
3DFACE
  5
945
  8
FRAME
 10
0.6900000000000003
 20
-1.069999999999999
 30
0.4500000000000012
 11
0.6900000000000003
 21
-1.0346446609406721
 31
0.4353553390593277
 12
-0.6900000000000001
 22
-1.0346446609406721
 32
0.4353553390593277
 13
-0.6900000000000001
 23
-1.069999999999999
 33
0.4500000000000012
  0
3DFACE
  5
946
  8
FRAME
 10
0.6900000000000003
 20
-1.1053553390593269
 30
0.4353553390593277
 11
0.6900000000000003
 21
-1.069999999999999
 31
0.4500000000000012
 12
-0.6900000000000001
 22
-1.069999999999999
 32
0.4500000000000012
 13
-0.6900000000000001
 23
-1.1053553390593269
 33
0.4353553390593277
  0
3DFACE
  5
947
  8
FRAME
 10
0.6900000000000003
 20
-1.1200000000000001
 30
0.4000000000000004
 11
0.6900000000000003
 21
-1.1053553390593269
 31
0.4353553390593277
 12
-0.6900000000000001
 22
-1.1053553390593269
 32
0.4353553390593277
 13
-0.6900000000000001
 23
-1.1200000000000001
 33
0.4000000000000004
  0
3DFACE
  5
94B
  8
FRAME
 10
0.0799999999999996
 20
1.9399999999999991
 30
0.3400000000000034
 11
0.0799999999999996
 21
1.55
 31
0.3399999999999999
 12
-0.0799999999999996
 22
1.55
 32
0.3399999999999999
 13
-0.0799999999999996
 23
1.9399999999999999
 33
0.3399999999999999
  0
3DFACE
  5
94C
  8
FRAME
 10
-0.27
 20
1.9399999999999999
 30
0.5
 11
0.27
 21
1.9399999999999999
 31
0.5
 12
0.0799999999999996
 22
1.9399999999999999
 32
0.3399999999999999
 13
-0.0799999999999996
 23
1.9399999999999999
 33
0.3399999999999999
  0
3DFACE
  5
94D
  8
FRAME
 10
-0.0799999999999996
 20
1.55
 30
0.3399999999999999
 11
0.0799999999999996
 21
1.55
 31
0.3399999999999999
 12
0.27
 22
1.55
 32
0.5
 13
-0.2699999999999996
 23
1.55
 33
0.5
  0
3DFACE
  5
954
  8
FRAME
 10
0.39
 20
2.0958578643762689
 30
0.7258578643762697
 11
0.39
 21
2.0899999999999999
 31
0.7400000000000003
 12
-0.39
 22
2.0899999999999999
 32
0.7400000000000003
 13
-0.39
 23
2.0958578643762689
 33
0.7258578643762697
  0
3DFACE
  5
955
  8
FRAME
 10
0.39
 20
2.1099999999999999
 30
0.7200000000000008
 11
0.39
 21
2.0958578643762689
 31
0.7258578643762697
 12
-0.39
 22
2.0958578643762689
 32
0.7258578643762697
 13
-0.39
 23
2.1099999999999999
 33
0.7200000000000008
  0
3DFACE
  5
956
  8
FRAME
 10
0.39
 20
2.1241421356237309
 30
0.7258578643762697
 11
0.39
 21
2.1099999999999999
 31
0.7200000000000008
 12
-0.39
 22
2.1099999999999999
 32
0.7200000000000008
 13
-0.39
 23
2.1241421356237309
 33
0.7258578643762697
  0
3DFACE
  5
957
  8
FRAME
 10
0.39
 20
2.1299999999999999
 30
0.7400000000000003
 11
0.39
 21
2.1241421356237309
 31
0.7258578643762697
 12
-0.39
 22
2.1241421356237309
 32
0.7258578643762697
 13
-0.39
 23
2.1299999999999999
 33
0.7400000000000003
  0
3DFACE
  5
958
  8
FRAME
 10
0.39
 20
2.1241421356237309
 30
0.7541421356237308
 11
0.39
 21
2.1299999999999999
 31
0.7400000000000003
 12
-0.39
 22
2.1299999999999999
 32
0.7400000000000003
 13
-0.39
 23
2.1241421356237309
 33
0.7541421356237308
  0
3DFACE
  5
959
  8
FRAME
 10
0.39
 20
2.1099999999999999
 30
0.7599999999999998
 11
0.39
 21
2.1241421356237309
 31
0.7541421356237308
 12
-0.39
 22
2.1241421356237309
 32
0.7541421356237308
 13
-0.39
 23
2.1099999999999999
 33
0.7599999999999998
  0
3DFACE
  5
95A
  8
FRAME
 10
0.39
 20
2.0958578643762689
 30
0.7541421356237308
 11
0.39
 21
2.1099999999999999
 31
0.7599999999999998
 12
-0.39
 22
2.1099999999999999
 32
0.7599999999999998
 13
-0.39
 23
2.0958578643762689
 33
0.7541421356237308
  0
3DFACE
  5
95B
  8
FRAME
 10
0.39
 20
2.0899999999999999
 30
0.7400000000000003
 11
0.39
 21
2.0958578643762689
 31
0.7541421356237308
 12
-0.39
 22
2.0958578643762689
 32
0.7541421356237308
 13
-0.39
 23
2.0899999999999999
 33
0.7400000000000003
  0
3DFACE
  5
95C
  8
FRAME
 10
-0.466966991411009
 20
1.961213203435596
 30
0.5087867965644027
 11
-0.466966991411009
 21
1.97
 31
0.5299999999999994
 12
0.4669669914110092
 22
1.9699999999999991
 32
0.5300000000000013
 13
0.4669669914110092
 23
1.9612132034355909
 33
0.508786796564408
  0
3DFACE
  5
95D
  8
FRAME
 10
-0.466966991411009
 20
1.9399999999999999
 30
0.5
 11
-0.466966991411009
 21
1.961213203435596
 31
0.5087867965644027
 12
0.4669669914110092
 22
1.9612132034355909
 32
0.508786796564408
 13
0.4669669914110092
 23
1.9399999999999991
 33
0.5000000000000036
  0
3DFACE
  5
95E
  8
FRAME
 10
-0.466966991411009
 20
1.918786796564403
 30
0.5087867965644027
 11
-0.466966991411009
 21
1.9399999999999999
 31
0.5
 12
0.4669669914110092
 22
1.9399999999999991
 32
0.5000000000000036
 13
0.4669669914110092
 23
1.9187867965644041
 33
0.5087867965644062
  0
3DFACE
  5
95F
  8
FRAME
 10
-0.466966991411009
 20
1.9099999999999999
 30
0.5299999999999994
 11
-0.466966991411009
 21
1.918786796564403
 31
0.5087867965644027
 12
0.4669669914110092
 22
1.9187867965644041
 32
0.5087867965644062
 13
0.4669669914110092
 23
1.9100000000000019
 33
0.5299999999999994
  0
3DFACE
  5
960
  8
FRAME
 10
-0.466966991411009
 20
1.9399999999999999
 30
0.5599999999999988
 11
-0.466966991411009
 21
1.918786796564403
 31
0.5512132034355961
 12
0.4669669914110092
 22
1.9187867965644041
 32
0.5512132034355961
 13
0.4669669914110092
 23
1.9399999999999999
 33
0.5599999999999988
  0
3DFACE
  5
961
  8
FRAME
 10
-0.466966991411009
 20
1.918786796564403
 30
0.5512132034355961
 11
-0.466966991411009
 21
1.9099999999999999
 31
0.5299999999999994
 12
0.4669669914110092
 22
1.9100000000000019
 32
0.5299999999999994
 13
0.4669669914110092
 23
1.9187867965644041
 33
0.5512132034355961
  0
3DFACE
  5
962
  8
FRAME
 10
-0.466966991411009
 20
1.97
 30
0.5299999999999994
 11
-0.466966991411009
 21
1.961213203435596
 31
0.5512132034355961
 12
0.4669669914110092
 22
1.9612132034355949
 32
0.5512132034355944
 13
0.4669669914110092
 23
1.9699999999999991
 33
0.5300000000000013
  0
3DFACE
  5
963
  8
FRAME
 10
-0.466966991411009
 20
1.961213203435596
 30
0.5512132034355961
 11
-0.466966991411009
 21
1.9399999999999999
 31
0.5599999999999988
 12
0.4669669914110092
 22
1.9399999999999999
 32
0.5599999999999988
 13
0.4669669914110092
 23
1.9612132034355949
 33
0.5512132034355944
  0
3DFACE
  5
965
  8
FRAME
 10
-0.4900000000000001
 20
-1.0399999999999989
 30
0.6500000000000004
 11
-0.4900000000000001
 21
-1.0399999999999989
 31
0.5199999999999996
 12
-0.5700000000000001
 22
-1.0399999999999989
 32
0.5199999999999996
 13
-0.5700000000000001
 23
-1.0399999999999989
 33
0.6500000000000004
  0
3DFACE
  5
983
  8
FRAME
 10
-0.0799999999999996
 20
1.9399999999999991
 30
0.3400000000000034
 11
-0.0799999999999996
 21
1.55
 31
0.3399999999999999
 12
-0.2699999999999996
 22
1.55
 32
0.5
 13
-0.2699999999999996
 23
1.9399999999999999
 33
0.5
  0
3DFACE
  5
B11
  8
FRAME
 10
-0.5369669914110089
 20
0.1500000000000003
 30
0.5299999999999994
 11
-0.5369669914110089
 21
0.1287867965644036
 31
0.5212132034355969
 12
-0.3608051073483309
 22
0.1287867965644045
 32
0.5212132034355969
 13
-0.3590909090909092
 23
0.1500000000000003
 33
0.5299999999999994
  0
3DFACE
  5
B12
  8
FRAME
 10
-0.5369669914110089
 20
0.1287867965644036
 30
0.5212132034355969
 11
-0.5369669914110089
 21
0.1200000000000001
 31
0.5
 12
-0.3615151515151514
 22
0.1200000000000023
 32
0.5
 13
-0.3608051073483309
 23
0.1287867965644045
 33
0.5212132034355969
  0
3DFACE
  5
B13
  8
FRAME
 10
-0.5369669914110089
 20
0.1712132034355966
 30
0.5212132034355969
 11
-0.5369669914110089
 21
0.1500000000000003
 31
0.5299999999999994
 12
-0.3590909090909092
 22
0.1500000000000003
 32
0.5299999999999994
 13
-0.3573767108334872
 23
0.1712132034355958
 33
0.5212132034355932
  0
3DFACE
  5
B14
  8
FRAME
 10
-0.5369669914110089
 20
0.1800000000000002
 30
0.5
 11
-0.5369669914110089
 21
0.1712132034355966
 31
0.5212132034355969
 12
-0.3573767108334872
 22
0.1712132034355958
 32
0.5212132034355932
 13
-0.3566666666666668
 23
0.1799999999999997
 33
0.5000000000000018
  0
3DFACE
  5
B15
  8
FRAME
 10
-0.5369669914110089
 20
0.1712132034355966
 30
0.4787867965644034
 11
-0.5369669914110089
 21
0.1800000000000002
 31
0.5
 12
-0.3566666666666668
 22
0.1799999999999997
 32
0.5000000000000018
 13
-0.3573767108334874
 23
0.1712132034355918
 33
0.4787867965644069
  0
3DFACE
  5
B16
  8
FRAME
 10
-0.5369669914110089
 20
0.1500000000000003
 30
0.4700000000000008
 11
-0.5369669914110089
 21
0.1712132034355966
 31
0.4787867965644034
 12
-0.3573767108334874
 22
0.1712132034355918
 32
0.4787867965644069
 13
-0.3590909090909093
 23
0.1499999999999995
 33
0.4700000000000008
  0
3DFACE
  5
B17
  8
FRAME
 10
-0.5369669914110089
 20
0.1287867965644036
 30
0.4787867965644034
 11
-0.5369669914110089
 21
0.1500000000000003
 31
0.4700000000000008
 12
-0.3590909090909093
 22
0.1499999999999995
 32
0.4700000000000008
 13
-0.3608051073483308
 23
0.1287867965644045
 33
0.4787867965644069
  0
3DFACE
  5
B18
  8
FRAME
 10
-0.5369669914110089
 20
0.1200000000000001
 30
0.5
 11
-0.5369669914110089
 21
0.1287867965644036
 31
0.4787867965644034
 12
-0.3608051073483308
 22
0.1287867965644045
 32
0.4787867965644069
 13
-0.3615151515151514
 23
0.1200000000000023
 33
0.5
  0
3DFACE
  5
B64
  8
FRAME
 10
-0.4000000000000001
 20
1.8999999999999999
 30
0.5299999999999994
 11
-0.4000000000000001
 21
2.1000000000000001
 31
0.7699999999999996
 12
-0.4000000000000001
 22
2.1400000000000001
 32
0.7100000000000009
 13
-0.4000000000000001
 23
2.02
 33
0.5299999999999994
  0
3DFACE
  5
B65
  8
FRAME
 10
-0.39
 20
2.1000000000000001
 30
0.7699999999999996
 11
-0.39
 21
1.8999999999999999
 31
0.5299999999999994
 12
-0.39
 22
2.02
 32
0.5299999999999994
 13
-0.39
 23
2.1400000000000001
 33
0.7100000000000009
  0
3DFACE
  5
B66
  8
FRAME
 10
-0.39
 20
2.1200000000000001
 30
0.7800000000000013
 11
-0.39
 21
2.1000000000000001
 31
0.7699999999999996
 12
-0.39
 22
2.1400000000000001
 32
0.7100000000000009
 13
-0.39
 23
2.1400000000000001
 33
0.7599999999999998
  0
3DFACE
  5
B67
  8
FRAME
 10
-0.4000000000000001
 20
2.1000000000000001
 30
0.7699999999999996
 11
-0.4000000000000001
 21
2.1200000000000001
 31
0.7800000000000013
 12
-0.4000000000000001
 22
2.1400000000000001
 32
0.7599999999999998
 13
-0.4000000000000001
 23
2.1400000000000001
 33
0.7100000000000009
  0
3DFACE
  5
B68
  8
FRAME
 10
-0.4000000000000001
 20
1.9099999999999999
 30
0.5299999999999994
 11
-0.39
 21
1.9099999999999999
 31
0.5299999999999994
 12
-0.39
 22
1.8999999999999999
 32
0.5299999999999994
 13
-0.4000000000000001
 23
1.8999999999999999
 33
0.5299999999999994
  0
3DFACE
  5
B69
  8
FRAME
 10
-0.4000000000000001
 20
2.02
 30
0.5299999999999994
 11
-0.39
 21
2.02
 31
0.5299999999999994
 12
-0.39
 22
1.97
 32
0.5299999999999994
 13
-0.4000000000000001
 23
1.97
 33
0.5299999999999994
  0
3DFACE
  5
B6A
  8
FRAME
 10
-0.4000000000000001
 20
2.1400000000000001
 30
0.7100000000000009
 11
-0.39
 21
2.1400000000000001
 31
0.7100000000000009
 12
-0.39
 22
2.02
 32
0.5299999999999994
 13
-0.4000000000000001
 23
2.02
 33
0.5299999999999994
  0
3DFACE
  5
B6B
  8
FRAME
 10
-0.4000000000000001
 20
2.1400000000000001
 30
0.7599999999999998
 11
-0.39
 21
2.1400000000000001
 31
0.7599999999999998
 12
-0.39
 22
2.1400000000000001
 32
0.7100000000000009
 13
-0.4000000000000001
 23
2.1400000000000001
 33
0.7100000000000009
  0
3DFACE
  5
B6C
  8
FRAME
 10
-0.4000000000000001
 20
2.1200000000000001
 30
0.7800000000000013
 11
-0.39
 21
2.1200000000000001
 31
0.7800000000000013
 12
-0.39
 22
2.1400000000000001
 32
0.7599999999999998
 13
-0.4000000000000001
 23
2.1400000000000001
 33
0.7599999999999998
  0
3DFACE
  5
B6D
  8
FRAME
 10
-0.4000000000000001
 20
1.8999999999999999
 30
0.5299999999999994
 11
-0.39
 21
1.8999999999999999
 31
0.5299999999999994
 12
-0.39
 22
2.1000000000000001
 32
0.7699999999999996
 13
-0.4000000000000001
 23
2.1000000000000001
 33
0.7699999999999996
  0
3DFACE
  5
B6E
  8
FRAME
 10
-0.4000000000000001
 20
2.1000000000000001
 30
0.7699999999999996
 11
-0.39
 21
2.1000000000000001
 31
0.7699999999999996
 12
-0.39
 22
2.1200000000000001
 32
0.7800000000000013
 13
-0.4000000000000001
 23
2.1200000000000001
 33
0.7800000000000013
  0
3DFACE
  5
BBA
  8
FRAME
 10
-0.2699999999999996
 20
2.0
 30
0.5
 11
-0.2699999999999996
 21
1.51
 31
0.6300000000000008
 12
-0.2699999999999996
 22
0.5100000000000005
 32
0.6300000000000008
 13
-0.2699999999999996
 23
0.8800000000000005
 33
0.5
  0
3DFACE
  5
BBB
  8
FRAME
 10
-0.2699999999999996
 20
0.8800000000000005
 30
0.5
 11
-0.2699999999999996
 21
0.5100000000000005
 31
0.6300000000000008
 12
-0.2699999999999996
 22
0.5100000000000005
 32
0.6300000000000008
 13
-0.2699999999999996
 23
0.5100000000000005
 33
0.4500000000000012
  0
3DFACE
  5
BBC
  8
FRAME
 10
-0.2699999999999996
 20
1.8
 30
0.5899999999999999
 11
-0.2699999999999996
 21
1.71
 31
0.620000000000001
 12
-0.2699999999999996
 22
1.51
 32
0.6300000000000008
 13
-0.2699999999999996
 23
2.0
 33
0.5
  0
3DFACE
  5
BBD
  8
FRAME
 10
-0.2699999999999996
 20
2.0
 30
0.5
 11
-0.2699999999999996
 21
2.0
 31
0.5899999999999999
 12
-0.2699999999999996
 22
1.8
 32
0.5899999999999999
 13
-0.2699999999999996
 23
2.0
 33
0.5
  0
3DFACE
  5
BBE
  8
FRAME
 10
-0.2699999999999996
 20
0.5100000000000005
 30
0.4500000000000012
 11
-0.2699999999999996
 21
0.5100000000000005
 31
0.6300000000000008
 12
-0.35
 22
-0.4799999999999996
 32
0.6300000000000008
 13
-0.35
 23
-0.4799999999999996
 33
0.4500000000000012
  0
3DFACE
  5
BBF
  8
FRAME
 10
-0.3499999999999996
 20
-0.4799999999999996
 30
0.4500000000000012
 11
-0.3499999999999996
 21
-0.4799999999999996
 31
0.6300000000000008
 12
-0.3499999999999996
 22
-0.7000000000000002
 32
0.6300000000000008
 13
-0.3499999999999996
 23
-0.75
 33
0.4500000000000012
  0
3DFACE
  5
BC0
  8
FRAME
 10
-0.3499999999999996
 20
-0.75
 30
0.4500000000000012
 11
-0.3499999999999996
 21
-0.7000000000000002
 31
0.6300000000000008
 12
-0.3499999999999996
 22
-0.75
 32
0.6400000000000006
 13
-0.3499999999999996
 23
-0.8600000000000003
 33
0.4900000000000003
  0
3DFACE
  5
BC1
  8
FRAME
 10
-0.3499999999999996
 20
-0.8600000000000003
 30
0.4900000000000003
 11
-0.3499999999999996
 21
-0.75
 31
0.6400000000000006
 12
-0.3499999999999996
 22
-0.8899999999999996
 32
0.7200000000000008
 13
-0.3499999999999996
 23
-1.0199999999999989
 33
0.6099999999999995
  0
3DFACE
  5
BC2
  8
FRAME
 10
-0.3300000000000001
 20
0.8800000000000005
 30
0.5
 11
-0.3300000000000001
 21
0.5100000000000005
 31
0.6300000000000008
 12
-0.3300000000000001
 22
1.51
 32
0.6300000000000008
 13
-0.3300000000000001
 23
2.0
 33
0.5
  0
3DFACE
  5
BC3
  8
FRAME
 10
-0.3300000000000001
 20
0.5100000000000005
 30
0.4500000000000012
 11
-0.3300000000000001
 21
0.5100000000000005
 31
0.6300000000000008
 12
-0.3300000000000001
 22
0.5100000000000005
 32
0.6300000000000008
 13
-0.3300000000000001
 23
0.8800000000000005
 33
0.5
  0
3DFACE
  5
BC4
  8
FRAME
 10
-0.3300000000000001
 20
2.0
 30
0.5
 11
-0.3300000000000001
 21
1.51
 31
0.6300000000000008
 12
-0.3300000000000001
 22
1.71
 32
0.620000000000001
 13
-0.3300000000000001
 23
1.8
 33
0.5899999999999999
  0
3DFACE
  5
BC5
  8
FRAME
 10
-0.3300000000000001
 20
2.0
 30
0.5
 11
-0.3300000000000001
 21
1.8
 31
0.5899999999999999
 12
-0.3300000000000001
 22
2.0
 32
0.5899999999999999
 13
-0.3300000000000001
 23
2.0
 33
0.5
  0
3DFACE
  5
BC6
  8
FRAME
 10
-0.4100000000000001
 20
-0.4799999999999996
 30
0.4500000000000012
 11
-0.4100000000000001
 21
-0.4799999999999996
 31
0.6300000000000008
 12
-0.3300000000000001
 22
0.5100000000000005
 32
0.6300000000000008
 13
-0.3300000000000001
 23
0.5100000000000005
 33
0.4500000000000012
  0
3DFACE
  5
BC7
  8
FRAME
 10
-0.4100000000000001
 20
-0.75
 30
0.4500000000000012
 11
-0.4100000000000001
 21
-0.7000000000000002
 31
0.6300000000000008
 12
-0.4100000000000001
 22
-0.4799999999999996
 32
0.6300000000000008
 13
-0.4100000000000001
 23
-0.4799999999999996
 33
0.4500000000000012
  0
3DFACE
  5
BC8
  8
FRAME
 10
-0.4100000000000001
 20
-0.8600000000000003
 30
0.4900000000000003
 11
-0.4100000000000001
 21
-0.75
 31
0.6400000000000006
 12
-0.4100000000000001
 22
-0.7000000000000002
 32
0.6300000000000008
 13
-0.4100000000000001
 23
-0.75
 33
0.4500000000000012
  0
3DFACE
  5
BC9
  8
FRAME
 10
-0.4100000000000001
 20
-1.0199999999999989
 30
0.6099999999999995
 11
-0.4100000000000001
 21
-0.8899999999999996
 31
0.7200000000000008
 12
-0.4100000000000001
 22
-0.75
 32
0.6400000000000006
 13
-0.4100000000000001
 23
-0.8600000000000003
 33
0.4900000000000003
  0
3DFACE
  5
BCA
  8
FRAME
 10
-0.3300000000000001
 20
2.0
 30
0.5
 11
-0.2699999999999996
 21
2.0
 31
0.5
 12
-0.2699999999999996
 22
0.8800000000000005
 32
0.5
 13
-0.3300000000000001
 23
0.8800000000000005
 33
0.5
  0
3DFACE
  5
BCB
  8
FRAME
 10
-0.3300000000000001
 20
1.71
 30
0.620000000000001
 11
-0.2699999999999996
 21
1.71
 31
0.620000000000001
 12
-0.2699999999999996
 22
1.8
 32
0.5899999999999999
 13
-0.3300000000000001
 23
1.8
 33
0.5899999999999999
  0
3DFACE
  5
BCC
  8
FRAME
 10
-0.3300000000000001
 20
1.8
 30
0.5899999999999999
 11
-0.2699999999999996
 21
1.8
 31
0.5899999999999999
 12
-0.2699999999999996
 22
2.0
 32
0.5899999999999999
 13
-0.3300000000000001
 23
2.0
 33
0.5899999999999999
  0
3DFACE
  5
BCD
  8
FRAME
 10
-0.3300000000000001
 20
2.0
 30
0.5899999999999999
 11
-0.2699999999999996
 21
2.0
 31
0.5899999999999999
 12
-0.2699999999999996
 22
2.0
 32
0.5
 13
-0.3300000000000001
 23
2.0
 33
0.5
  0
3DFACE
  5
BCE
  8
FRAME
 10
-0.3300000000000001
 20
0.8800000000000005
 30
0.5
 11
-0.2699999999999996
 21
0.8800000000000005
 31
0.5
 12
-0.2699999999999996
 22
0.5100000000000005
 32
0.4500000000000012
 13
-0.3300000000000001
 23
0.5100000000000005
 33
0.4500000000000012
  0
3DFACE
  5
BCF
  8
FRAME
 10
-0.3300000000000001
 20
0.5100000000000005
 30
0.4500000000000012
 11
-0.2699999999999996
 21
0.5100000000000005
 31
0.4500000000000012
 12
-0.35
 22
-0.4799999999999996
 32
0.4500000000000012
 13
-0.4100000000000001
 23
-0.4799999999999996
 33
0.4500000000000012
  0
3DFACE
  5
BD0
  8
FRAME
 10
-0.4100000000000001
 20
-0.4799999999999996
 30
0.4500000000000012
 11
-0.3499999999999996
 21
-0.4799999999999996
 31
0.4500000000000012
 12
-0.3499999999999996
 22
-0.75
 32
0.4500000000000012
 13
-0.4100000000000001
 23
-0.75
 33
0.4500000000000012
  0
3DFACE
  5
BD1
  8
FRAME
 10
-0.4100000000000001
 20
-0.75
 30
0.4500000000000012
 11
-0.3499999999999996
 21
-0.75
 31
0.4500000000000012
 12
-0.3499999999999996
 22
-0.8600000000000003
 32
0.4900000000000003
 13
-0.4100000000000001
 23
-0.8600000000000003
 33
0.4900000000000003
  0
3DFACE
  5
BD2
  8
FRAME
 10
-0.4100000000000001
 20
-0.8600000000000003
 30
0.4900000000000003
 11
-0.3499999999999996
 21
-0.8600000000000003
 31
0.4900000000000003
 12
-0.3499999999999996
 22
-1.0199999999999989
 32
0.6099999999999995
 13
-0.4100000000000001
 23
-1.0199999999999989
 33
0.6099999999999995
  0
3DFACE
  5
BD4
  8
FRAME
 10
0.5700000000000001
 20
-1.0399999999999989
 30
0.6500000000000004
 11
0.5700000000000001
 21
-1.0399999999999989
 31
0.5199999999999996
 12
0.4900000000000001
 22
-1.0399999999999989
 32
0.5199999999999996
 13
0.4900000000000001
 23
-1.0399999999999989
 33
0.6500000000000004
  0
3DFACE
  5
BF3
  8
FRAME
 10
0.27
 20
1.9399999999999991
 30
0.5000000000000036
 11
0.27
 21
1.55
 31
0.5
 12
0.0799999999999996
 22
1.55
 32
0.3399999999999999
 13
0.0799999999999996
 23
1.9399999999999999
 33
0.3399999999999999
  0
3DFACE
  5
D85
  8
FRAME
 10
0.5369669914110089
 20
0.1712132034355966
 30
0.4787867965644034
 11
0.5369669914110089
 21
0.1500000000000003
 31
0.4700000000000008
 12
0.3590909090909092
 22
0.1500000000000003
 32
0.4700000000000008
 13
0.3573767108334872
 23
0.1712132034355958
 33
0.4787867965644069
  0
3DFACE
  5
D86
  8
FRAME
 10
0.5369669914110089
 20
0.1800000000000002
 30
0.5
 11
0.5369669914110089
 21
0.1712132034355966
 31
0.4787867965644034
 12
0.3573767108334872
 22
0.1712132034355958
 32
0.4787867965644069
 13
0.3566666666666668
 23
0.1799999999999997
 33
0.4999999999999984
  0
3DFACE
  5
D87
  8
FRAME
 10
0.5369669914110089
 20
0.1712132034355966
 30
0.5212132034355969
 11
0.5369669914110089
 21
0.1800000000000002
 31
0.5
 12
0.3566666666666668
 22
0.1799999999999997
 32
0.4999999999999984
 13
0.3573767108334874
 23
0.1712132034355918
 33
0.5212132034355932
  0
3DFACE
  5
D88
  8
FRAME
 10
0.5369669914110089
 20
0.1500000000000003
 30
0.5299999999999994
 11
0.5369669914110089
 21
0.1712132034355966
 31
0.5212132034355969
 12
0.3573767108334874
 22
0.1712132034355918
 32
0.5212132034355932
 13
0.3590909090909093
 23
0.1499999999999995
 33
0.5299999999999994
  0
3DFACE
  5
D89
  8
FRAME
 10
0.5369669914110089
 20
0.1287867965644036
 30
0.5212132034355969
 11
0.5369669914110089
 21
0.1500000000000003
 31
0.5299999999999994
 12
0.3590909090909093
 22
0.1499999999999995
 32
0.5299999999999994
 13
0.3608051073483308
 23
0.1287867965644045
 33
0.5212132034355932
  0
3DFACE
  5
D8A
  8
FRAME
 10
0.5369669914110089
 20
0.1200000000000001
 30
0.5
 11
0.5369669914110089
 21
0.1287867965644036
 31
0.5212132034355969
 12
0.3608051073483308
 22
0.1287867965644045
 32
0.5212132034355932
 13
0.3615151515151514
 23
0.1200000000000023
 33
0.5
  0
3DFACE
  5
D8B
  8
FRAME
 10
0.5369669914110089
 20
0.1287867965644036
 30
0.4787867965644034
 11
0.5369669914110089
 21
0.1200000000000001
 31
0.5
 12
0.3615151515151514
 22
0.1200000000000023
 32
0.5
 13
0.3608051073483309
 23
0.1287867965644045
 33
0.4787867965644034
  0
3DFACE
  5
D8C
  8
FRAME
 10
0.5369669914110089
 20
0.1500000000000003
 30
0.4700000000000008
 11
0.5369669914110089
 21
0.1287867965644036
 31
0.4787867965644034
 12
0.3608051073483309
 22
0.1287867965644045
 32
0.4787867965644034
 13
0.3590909090909092
 23
0.1500000000000003
 33
0.4700000000000008
  0
3DFACE
  5
DD8
  8
FRAME
 10
0.39
 20
2.1000000000000001
 30
0.7699999999999996
 11
0.4
 21
2.1000000000000001
 31
0.7699999999999996
 12
0.4
 22
2.1200000000000001
 32
0.7800000000000013
 13
0.39
 23
2.1200000000000001
 33
0.7800000000000013
  0
3DFACE
  5
DD9
  8
FRAME
 10
0.39
 20
2.1200000000000001
 30
0.7800000000000013
 11
0.4
 21
2.1200000000000001
 31
0.7800000000000013
 12
0.4
 22
2.1400000000000001
 32
0.7599999999999998
 13
0.39
 23
2.1400000000000001
 33
0.7599999999999998
  0
3DFACE
  5
DDA
  8
FRAME
 10
0.39
 20
2.1400000000000001
 30
0.7599999999999998
 11
0.4
 21
2.1400000000000001
 31
0.7599999999999998
 12
0.4
 22
2.1400000000000001
 32
0.7100000000000009
 13
0.39
 23
2.1400000000000001
 33
0.7100000000000009
  0
3DFACE
  5
DDB
  8
FRAME
 10
0.39
 20
2.1400000000000001
 30
0.7100000000000009
 11
0.4
 21
2.1400000000000001
 31
0.7100000000000009
 12
0.4
 22
2.02
 32
0.5299999999999994
 13
0.39
 23
2.02
 33
0.5299999999999994
  0
3DFACE
  5
DDC
  8
FRAME
 10
0.39
 20
2.02
 30
0.5299999999999994
 11
0.4
 21
2.02
 31
0.5299999999999994
 12
0.4
 22
1.97
 32
0.5299999999999994
 13
0.39
 23
1.97
 33
0.5299999999999994
  0
3DFACE
  5
DDD
  8
FRAME
 10
0.39
 20
1.9099999999999999
 30
0.5299999999999994
 11
0.4
 21
1.9099999999999999
 31
0.5299999999999994
 12
0.4
 22
1.8999999999999999
 32
0.5299999999999994
 13
0.39
 23
1.8999999999999999
 33
0.5299999999999994
  0
3DFACE
  5
DDE
  8
FRAME
 10
0.39
 20
1.8999999999999999
 30
0.5299999999999994
 11
0.4
 21
1.8999999999999999
 31
0.5299999999999994
 12
0.4
 22
2.1000000000000001
 32
0.7699999999999996
 13
0.39
 23
2.1000000000000001
 33
0.7699999999999996
  0
3DFACE
  5
DDF
  8
FRAME
 10
0.39
 20
2.1000000000000001
 30
0.7699999999999996
 11
0.39
 21
2.1200000000000001
 31
0.7800000000000013
 12
0.39
 22
2.1400000000000001
 32
0.7599999999999998
 13
0.39
 23
2.1400000000000001
 33
0.7100000000000009
  0
3DFACE
  5
DE0
  8
FRAME
 10
0.4
 20
2.1200000000000001
 30
0.7800000000000013
 11
0.4
 21
2.1000000000000001
 31
0.7699999999999996
 12
0.4
 22
2.1400000000000001
 32
0.7100000000000009
 13
0.4
 23
2.1400000000000001
 33
0.7599999999999998
  0
3DFACE
  5
DE1
  8
FRAME
 10
0.4
 20
2.1000000000000001
 30
0.7699999999999996
 11
0.4
 21
1.8999999999999999
 31
0.5299999999999994
 12
0.4
 22
2.02
 32
0.5299999999999994
 13
0.4
 23
2.1400000000000001
 33
0.7100000000000009
  0
3DFACE
  5
DE2
  8
FRAME
 10
0.39
 20
1.8999999999999999
 30
0.5299999999999994
 11
0.39
 21
2.1000000000000001
 31
0.7699999999999996
 12
0.39
 22
2.1400000000000001
 32
0.7100000000000009
 13
0.39
 23
2.02
 33
0.5299999999999994
  0
3DFACE
  5
E2E
  8
FRAME
 10
0.27
 20
1.71
 30
0.620000000000001
 11
0.3300000000000005
 21
1.71
 31
0.620000000000001
 12
0.3300000000000005
 22
1.8
 32
0.5899999999999999
 13
0.27
 23
1.8
 33
0.5899999999999999
  0
3DFACE
  5
E2F
  8
FRAME
 10
0.27
 20
2.0
 30
0.5
 11
0.27
 21
1.51
 31
0.6300000000000008
 12
0.27
 22
1.71
 32
0.620000000000001
 13
0.27
 23
1.8
 33
0.5899999999999999
  0
3DFACE
  5
E30
  8
FRAME
 10
0.3300000000000005
 20
1.8
 30
0.5899999999999999
 11
0.3300000000000005
 21
1.71
 31
0.620000000000001
 12
0.3300000000000005
 22
1.51
 32
0.6300000000000008
 13
0.3300000000000005
 23
2.0
 33
0.5
  0
3DFACE
  5
E31
  8
FRAME
 10
0.27
 20
2.0
 30
0.5
 11
0.27
 21
1.8
 31
0.5899999999999999
 12
0.27
 22
2.0
 32
0.5899999999999999
 13
0.27
 23
2.0
 33
0.5
  0
3DFACE
  5
E32
  8
FRAME
 10
0.27
 20
2.0
 30
0.5899999999999999
 11
0.3300000000000005
 21
2.0
 31
0.5899999999999999
 12
0.3300000000000005
 22
2.0
 32
0.5
 13
0.27
 23
2.0
 33
0.5
  0
3DFACE
  5
E33
  8
FRAME
 10
0.27
 20
1.8
 30
0.5899999999999999
 11
0.3300000000000005
 21
1.8
 31
0.5899999999999999
 12
0.3300000000000005
 22
2.0
 32
0.5899999999999999
 13
0.27
 23
2.0
 33
0.5899999999999999
  0
3DFACE
  5
E34
  8
FRAME
 10
0.3300000000000005
 20
2.0
 30
0.5
 11
0.3300000000000005
 21
2.0
 31
0.5899999999999999
 12
0.3300000000000005
 22
1.8
 32
0.5899999999999999
 13
0.3300000000000005
 23
2.0
 33
0.5
  0
3DFACE
  5
E35
  8
FRAME
 10
0.27
 20
2.0
 30
0.5
 11
0.3300000000000005
 21
2.0
 31
0.5
 12
0.3300000000000005
 22
0.8800000000000005
 32
0.5
 13
0.27
 23
0.8800000000000005
 33
0.5
  0
3DFACE
  5
E36
  8
FRAME
 10
0.3300000000000005
 20
2.0
 30
0.5
 11
0.3300000000000005
 21
1.51
 31
0.6300000000000008
 12
0.3300000000000005
 22
0.5100000000000005
 32
0.6300000000000008
 13
0.3300000000000005
 23
0.8800000000000005
 33
0.5
  0
3DFACE
  5
E37
  8
FRAME
 10
0.27
 20
0.8800000000000005
 30
0.5
 11
0.27
 21
0.5100000000000005
 31
0.6300000000000008
 12
0.27
 22
1.51
 32
0.6300000000000008
 13
0.27
 23
2.0
 33
0.5
  0
3DFACE
  5
E38
  8
FRAME
 10
0.27
 20
0.8800000000000005
 30
0.5
 11
0.3300000000000005
 21
0.8800000000000005
 31
0.5
 12
0.3300000000000005
 22
0.5100000000000005
 32
0.4500000000000012
 13
0.27
 23
0.5100000000000005
 33
0.4500000000000012
  0
3DFACE
  5
E39
  8
FRAME
 10
0.27
 20
0.5100000000000005
 30
0.4500000000000012
 11
0.27
 21
0.5100000000000005
 31
0.6300000000000008
 12
0.27
 22
0.5100000000000005
 32
0.6300000000000008
 13
0.27
 23
0.8800000000000005
 33
0.5
  0
3DFACE
  5
E3A
  8
FRAME
 10
0.3300000000000005
 20
0.8800000000000005
 30
0.5
 11
0.3300000000000005
 21
0.5100000000000005
 31
0.6300000000000008
 12
0.3300000000000005
 22
0.5100000000000005
 32
0.6300000000000008
 13
0.3300000000000005
 23
0.5100000000000005
 33
0.4500000000000012
  0
3DFACE
  5
E3B
  8
FRAME
 10
0.27
 20
0.5100000000000005
 30
0.4500000000000012
 11
0.3300000000000005
 21
0.5100000000000005
 31
0.4500000000000012
 12
0.4100000000000001
 22
-0.4799999999999996
 32
0.4500000000000012
 13
0.35
 23
-0.4799999999999996
 33
0.4500000000000012
  0
3DFACE
  5
E3C
  8
FRAME
 10
0.35
 20
-0.4799999999999996
 30
0.4500000000000012
 11
0.35
 21
-0.4799999999999996
 31
0.6300000000000008
 12
0.27
 22
0.5100000000000005
 32
0.6300000000000008
 13
0.27
 23
0.5100000000000005
 33
0.4500000000000012
  0
3DFACE
  5
E3D
  8
FRAME
 10
0.3300000000000005
 20
0.5100000000000005
 30
0.4500000000000012
 11
0.3300000000000005
 21
0.5100000000000005
 31
0.6300000000000008
 12
0.4100000000000001
 22
-0.4799999999999996
 32
0.6300000000000008
 13
0.4100000000000001
 23
-0.4799999999999996
 33
0.4500000000000012
  0
3DFACE
  5
E3E
  8
FRAME
 10
0.35
 20
-0.4799999999999996
 30
0.4500000000000012
 11
0.4100000000000005
 21
-0.4799999999999996
 31
0.4500000000000012
 12
0.4100000000000005
 22
-0.75
 32
0.4500000000000012
 13
0.35
 23
-0.75
 33
0.4500000000000012
  0
3DFACE
  5
E3F
  8
FRAME
 10
0.4100000000000005
 20
-0.4799999999999996
 30
0.4500000000000012
 11
0.4100000000000005
 21
-0.4799999999999996
 31
0.6300000000000008
 12
0.4100000000000005
 22
-0.7000000000000002
 32
0.6300000000000008
 13
0.4100000000000005
 23
-0.75
 33
0.4500000000000012
  0
3DFACE
  5
E40
  8
FRAME
 10
0.35
 20
-0.75
 30
0.4500000000000012
 11
0.35
 21
-0.7000000000000002
 31
0.6300000000000008
 12
0.35
 22
-0.4799999999999996
 32
0.6300000000000008
 13
0.35
 23
-0.4799999999999996
 33
0.4500000000000012
  0
3DFACE
  5
E41
  8
FRAME
 10
0.35
 20
-0.8600000000000003
 30
0.4900000000000003
 11
0.35
 21
-0.75
 31
0.6400000000000006
 12
0.35
 22
-0.7000000000000002
 32
0.6300000000000008
 13
0.35
 23
-0.75
 33
0.4500000000000012
  0
3DFACE
  5
E42
  8
FRAME
 10
0.4100000000000005
 20
-0.75
 30
0.4500000000000012
 11
0.4100000000000005
 21
-0.7000000000000002
 31
0.6300000000000008
 12
0.4100000000000005
 22
-0.75
 32
0.6400000000000006
 13
0.4100000000000005
 23
-0.8600000000000003
 33
0.4900000000000003
  0
3DFACE
  5
E43
  8
FRAME
 10
0.35
 20
-0.75
 30
0.4500000000000012
 11
0.4100000000000005
 21
-0.75
 31
0.4500000000000012
 12
0.4100000000000005
 22
-0.8600000000000003
 32
0.4900000000000003
 13
0.35
 23
-0.8600000000000003
 33
0.4900000000000003
  0
3DFACE
  5
E44
  8
FRAME
 10
0.35
 20
-0.8600000000000003
 30
0.4900000000000003
 11
0.4100000000000005
 21
-0.8600000000000003
 31
0.4900000000000003
 12
0.4100000000000005
 22
-1.0199999999999989
 32
0.6099999999999995
 13
0.35
 23
-1.0199999999999989
 33
0.6099999999999995
  0
3DFACE
  5
E45
  8
FRAME
 10
0.35
 20
-1.0199999999999989
 30
0.6099999999999995
 11
0.35
 21
-0.8899999999999996
 31
0.7200000000000008
 12
0.35
 22
-0.75
 32
0.6400000000000006
 13
0.35
 23
-0.8600000000000003
 33
0.4900000000000003
  0
3DFACE
  5
E46
  8
FRAME
 10
0.4100000000000005
 20
-0.8600000000000003
 30
0.4900000000000003
 11
0.4100000000000005
 21
-0.75
 31
0.6400000000000006
 12
0.4100000000000005
 22
-0.8899999999999996
 32
0.7200000000000008
 13
0.4100000000000005
 23
-1.0199999999999989
 33
0.6099999999999995
  0
VIEWPORT
  5
2E
 67
     1
  8
0
 10
144.7270812988281
 20
101.2295806407928
 30
0.0
 40
391.13550988316581
 41
222.15178063964839
 68
     2
 69
     1
1001
ACAD
1000
MVIEW
1002
{
1070
    16
1010
0.0
1020
0.0
1030
0.0
1010
0.0
1020
0.0
1030
1.0
1040
0.0
1040
222.15178063964839
1040
144.7270812988281
1040
101.2295806407928
1040
50.0
1040
0.0
1040
0.0
1070
     0
1070
   100
1070
     1
1070
     1
1070
     0
1070
     0
1070
     0
1070
     0
1040
0.0
1040
0.0
1040
0.0
1040
10.0
1040
10.0
1040
10.0
1040
10.0
1070
     0
1002
{
1002
}
1002
}
  0
VIEWPORT
  5
30
 67
     1
  8
0
 10
139.22375631332389
 20
100.8062499761581
 30
0.0
 40
222.75801010131829
 41
161.289999961853
 68
     1
 69
     2
1001
ACAD
1000
MVIEW
1002
{
1070
    16
1010
0.0
1020
0.0
1030
0.0
1010
0.0
1020
0.0
1030
1.0
1040
0.0
1040
307.49010134148989
1040
210.0
1040
148.5
1040
50.0
1040
0.0
1040
0.0
1070
     0
1070
   100
1070
     1
1070
     3
1070
     0
1070
     1
1070
     0
1070
     0
1040
0.0
1040
0.0
1040
0.0
1040
10.0
1040
10.0
1040
10.0
1040
10.0
1070
     0
1002
{
1002
}
1002
}
  0
ENDSEC
  0
EOF
