  0
SECTION
  2
HEADER
  9
$ACADVER
  1
AC1009
  9
$INSBASE
 10
0.0
 20
0.0
 30
0.0
  9
$EXTMIN
 10
-0.9
 20
-7.3200874008000003
 30
-20.140000000000001
  9
$EXTMAX
 10
1.0
 20
14.16
 30
24.783186662743169
  9
$LIMMIN
 10
0.0
 20
0.0
  9
$LIMMAX
 10
420.0
 20
297.0
  9
$ORTHOMODE
 70
     1
  9
$REGENMODE
 70
     1
  9
$FILLMODE
 70
     1
  9
$QTEXTMODE
 70
     0
  9
$MIRRTEXT
 70
     1
  9
$DRAGMODE
 70
     2
  9
$LTSCALE
 40
1.0
  9
$OSMODE
 70
    35
  9
$ATTMODE
 70
     1
  9
$TEXTSIZE
 40
2.5
  9
$TRACEWID
 40
1.0
  9
$TEXTSTYLE
  7
STANDARD
  9
$CLAYER
  8
GUN
  9
$CELTYPE
  6
BYLAYER
  9
$CECOLOR
 62
   256
  9
$DIMSCALE
 40
1.0
  9
$DIMASZ
 40
2.5
  9
$DIMEXO
 40
0.625
  9
$DIMDLI
 40
3.75
  9
$DIMRND
 40
0.0
  9
$DIMDLE
 40
0.0
  9
$DIMEXE
 40
1.25
  9
$DIMTP
 40
0.0
  9
$DIMTM
 40
0.0
  9
$DIMTXT
 40
2.5
  9
$DIMCEN
 40
2.5
  9
$DIMTSZ
 40
0.0
  9
$DIMTOL
 70
     0
  9
$DIMLIM
 70
     0
  9
$DIMTIH
 70
     0
  9
$DIMTOH
 70
     0
  9
$DIMSE1
 70
     0
  9
$DIMSE2
 70
     0
  9
$DIMTAD
 70
     1
  9
$DIMZIN
 70
     8
  9
$DIMBLK
  1

  9
$DIMASO
 70
     1
  9
$DIMSHO
 70
     1
  9
$DIMPOST
  1

  9
$DIMAPOST
  1

  9
$DIMALT
 70
     0
  9
$DIMALTD
 70
     3
  9
$DIMALTF
 40
0.03937007874016
  9
$DIMLFAC
 40
1.0
  9
$DIMTOFL
 70
     1
  9
$DIMTVP
 40
0.0
  9
$DIMTIX
 70
     0
  9
$DIMSOXD
 70
     0
  9
$DIMSAH
 70
     0
  9
$DIMBLK1
  1

  9
$DIMBLK2
  1

  9
$DIMSTYLE
  2
ISO-25
  9
$DIMCLRD
 70
     0
  9
$DIMCLRE
 70
     0
  9
$DIMCLRT
 70
     0
  9
$DIMTFAC
 40
1.0
  9
$DIMGAP
 40
0.625
  9
$LUNITS
 70
     2
  9
$LUPREC
 70
     4
  9
$SKETCHINC
 40
1.0
  9
$FILLETRAD
 40
10.0
  9
$AUNITS
 70
     0
  9
$AUPREC
 70
     0
  9
$MENU
  1
.
  9
$ELEVATION
 40
0.0
  9
$PELEVATION
 40
0.0
  9
$THICKNESS
 40
0.0
  9
$LIMCHECK
 70
     0
  9
$BLIPMODE
 70
     0
  9
$CHAMFERA
 40
10.0
  9
$CHAMFERB
 40
10.0
  9
$SKPOLY
 70
     0
  9
$TDCREATE
 40
2457516.8682764238
  9
$TDUPDATE
 40
2457522.4526874651
  9
$TDINDWG
 40
1.3635426042000001
  9
$TDUSRTIMER
 40
1.3635425926
  9
$USRTIMER
 70
     1
  9
$ANGBASE
 50
0.0
  9
$ANGDIR
 70
     0
  9
$PDMODE
 70
     0
  9
$PDSIZE
 40
0.0
  9
$PLINEWID
 40
0.0
  9
$COORDS
 70
     1
  9
$SPLFRAME
 70
     0
  9
$SPLINETYPE
 70
     6
  9
$SPLINESEGS
 70
     8
  9
$ATTDIA
 70
     1
  9
$ATTREQ
 70
     1
  9
$HANDLING
 70
-16383
  9
$HANDSEED
  5
164B
  9
$SURFTAB1
 70
     6
  9
$SURFTAB2
 70
     6
  9
$SURFTYPE
 70
     6
  9
$SURFU
 70
     6
  9
$SURFV
 70
     6
  9
$UCSNAME
  2

  9
$UCSORG
 10
0.0
 20
0.0
 30
0.0
  9
$UCSXDIR
 10
0.0
 20
-1.0
 30
0.0
  9
$UCSYDIR
 10
0.0
 20
0.0
 30
1.0
  9
$PUCSNAME
  2

  9
$PUCSORG
 10
0.0
 20
0.0
 30
0.0
  9
$PUCSXDIR
 10
1.0
 20
0.0
 30
0.0
  9
$PUCSYDIR
 10
0.0
 20
1.0
 30
0.0
  9
$USERI1
 70
     0
  9
$USERI2
 70
     0
  9
$USERI3
 70
     0
  9
$USERI4
 70
     0
  9
$USERI5
 70
     0
  9
$USERR1
 40
0.0
  9
$USERR2
 40
0.0
  9
$USERR3
 40
0.0
  9
$USERR4
 40
0.0
  9
$USERR5
 40
0.0
  9
$WORLDVIEW
 70
     1
  9
$SHADEDGE
 70
     3
  9
$SHADEDIF
 70
    70
  9
$TILEMODE
 70
     1
  9
$MAXACTVP
 70
    64
  9
$PLIMCHECK
 70
     0
  9
$PEXTMIN
 10
27.844751262664801
 20
20.161249995231621
 30
0.0
  9
$PEXTMAX
 10
250.60276136398309
 20
181.4512499570846
 30
0.0
  9
$PLIMMIN
 10
-3.757080078125
 20
-3.7570831775665279
  9
$PLIMMAX
 10
293.21124267578119
 20
206.21624445915219
  9
$UNITMODE
 70
     0
  9
$VISRETAIN
 70
     1
  9
$PLINEGEN
 70
     0
  9
$PSLTSCALE
 70
     1
  0
ENDSEC
  0
SECTION
  2
TABLES
  0
TABLE
  2
VPORT
 70
     3
  0
VPORT
  2
*ACTIVE
 70
     0
 10
0.0
 20
0.0
 11
1.0
 21
1.0
 12
0.9057269639690019
 22
0.0477980337694785
 13
0.0
 23
0.0
 14
0.01
 24
0.01
 15
1.0
 25
1.0
 16
-1.0
 26
0.0
 36
0.0
 17
0.0
 27
0.0
 37
0.0
 40
1.9024583196565961
 41
2.1655092592592591
 42
50.0
 43
0.0
 44
0.0
 50
0.0
 51
0.0
 71
     0
 72
   100
 73
     1
 74
     3
 75
     1
 76
     1
 77
     0
 78
     0
  0
ENDTAB
  0
TABLE
  2
LTYPE
 70
     1
  0
LTYPE
  2
CONTINUOUS
 70
     0
  3
Solid line
 72
    65
 73
     0
 40
0.0
  0
ENDTAB
  0
TABLE
  2
LAYER
 70
    13
  0
LAYER
  2
0
 70
     0
 62
     7
  6
CONTINUOUS
  0
LAYER
  2
REFERENCE
 70
     0
 62
     9
  6
CONTINUOUS
  0
LAYER
  2
WHEELS
 70
     0
 62
     2
  6
CONTINUOUS
  0
LAYER
  2
TRAIL
 70
     0
 62
     6
  6
CONTINUOUS
  0
LAYER
  2
TMP
 70
     0
 62
     4
  6
CONTINUOUS
  0
LAYER
  2
TRAIL2
 70
     0
 62
     6
  6
CONTINUOUS
  0
LAYER
  2
TURRET
 70
     0
 62
     2
  6
CONTINUOUS
  0
LAYER
  2
GUN
 70
     0
 62
     1
  6
CONTINUOUS
  0
LAYER
  2
SLEEVE
 70
     0
 62
     5
  6
CONTINUOUS
  0
LAYER
  2
FRAME
 70
     0
 62
     5
  6
CONTINUOUS
  0
LAYER
  2
INTERNALS
 70
     0
 62
     3
  6
CONTINUOUS
  0
LAYER
  2
FENDERS
 70
     0
 62
     6
  6
CONTINUOUS
  0
LAYER
  2
TENT
 70
     0
 62
     4
  6
CONTINUOUS
  0
ENDTAB
  0
TABLE
  2
STYLE
 70
     1
  0
STYLE
  2
STANDARD
 70
     0
 40
0.0
 41
1.0
 50
0.0
 71
     0
 42
2.5
  3
txt
  4

  0
ENDTAB
  0
TABLE
  2
VIEW
 70
     0
  0
ENDTAB
  0
TABLE
  2
UCS
 70
     0
  0
ENDTAB
  0
TABLE
  2
APPID
 70
     1
  0
APPID
  2
ACAD
 70
     0
  0
ENDTAB
  0
TABLE
  2
DIMSTYLE
 70
     1
  0
DIMSTYLE
  2
ISO-25
 70
     0
  3

  4

  5

  6

  7

 40
1.0
 41
2.5
 42
0.625
 43
3.75
 44
1.25
 45
0.0
 46
0.0
 47
0.0
 48
0.0
140
2.5
141
2.5
142
0.0
143
0.03937007874016
144
1.0
145
0.0
146
1.0
147
0.625
 71
     0
 72
     0
 73
     0
 74
     0
 75
     0
 76
     0
 77
     1
 78
     8
170
     0
171
     3
172
     1
173
     0
174
     0
175
     0
176
     0
177
     0
178
     0
  0
ENDTAB
  0
ENDSEC
  0
SECTION
  2
BLOCKS
  0
BLOCK
  8
0
  2
$MODEL_SPACE
 70
     0
 10
0.0
 20
0.0
 30
0.0
  3
$MODEL_SPACE
  1

  0
ENDBLK
  5
21
  8
0
  0
BLOCK
 67
     1
  8
0
  2
$PAPER_SPACE
 70
     0
 10
0.0
 20
0.0
 30
0.0
  3
$PAPER_SPACE
  1

  0
ENDBLK
  5
1D
 67
     1
  8
0
  0
ENDSEC
  0
SECTION
  2
ENTITIES
  0
3DFACE
  5
710
  8
GUN
 10
0.03
 20
0.4200000000000001
 30
0.01
 11
0.0500000000000001
 21
0.4200000000000001
 31
-0.01
 12
-0.05
 22
0.4200000000000001
 32
-0.01
 13
-0.03
 23
0.4200000000000001
 33
0.01
  0
3DFACE
  5
711
  8
GUN
 10
0.0500000000000001
 20
0.4200000000000001
 30
-0.01
 11
0.0500000000000001
 21
0.3099999999999996
 31
-0.01
 12
-0.05
 22
0.3099999999999996
 32
-0.01
 13
-0.05
 23
0.4200000000000001
 33
-0.01
  0
3DFACE
  5
716
  8
GUN
 10
-0.03
 20
0.3399999999999999
 30
0.09
 11
-0.05
 21
0.3099999999999996
 31
0.09
 12
0.0500000000000001
 22
0.3099999999999996
 32
0.09
 13
0.03
 23
0.3399999999999999
 33
0.09
  0
3DFACE
  5
717
  8
GUN
 10
-0.05
 20
0.3099999999999996
 30
0.09
 11
-0.05
 21
0.3099999999999996
 31
-0.01
 12
0.0500000000000001
 22
0.3099999999999996
 32
-0.01
 13
0.0500000000000001
 23
0.3099999999999996
 33
0.09
  0
3DFACE
  5
71B
  8
GUN
 10
-0.03
 20
0.3399999999999995
 30
0.09
 11
-0.03
 21
0.3399999999999995
 31
0.01
 12
-0.03
 22
0.4200000000000001
 32
0.01
 13
-0.03
 23
0.4
 33
0.09
  0
3DFACE
  5
71E
  8
GUN
 10
-0.05
 20
0.4200000000000001
 30
-0.01
 11
-0.05
 21
0.3099999999999996
 31
-0.01
 12
-0.05
 22
0.3099999999999996
 32
0.09
 13
-0.05
 23
0.4
 33
0.09
  0
3DFACE
  5
720
  8
GUN
 10
-0.05
 20
0.4
 30
0.09
 11
-0.05
 21
0.3099999999999996
 31
0.09
 12
-0.03
 22
0.3399999999999995
 32
0.09
 13
-0.03
 23
0.4
 33
0.09
  0
3DFACE
  5
724
  8
GUN
 10
0.0500000000000001
 20
0.3099999999999996
 30
0.09
 11
0.0500000000000001
 21
0.3099999999999996
 31
-0.01
 12
0.0500000000000001
 22
0.4200000000000001
 32
-0.01
 13
0.05
 23
0.4
 33
0.09
  0
3DFACE
  5
726
  8
GUN
 10
0.03
 20
0.4200000000000001
 30
0.01
 11
0.03
 21
0.3399999999999995
 31
0.01
 12
0.03
 22
0.3399999999999995
 32
0.09
 13
0.03
 23
0.4
 33
0.09
  0
3DFACE
  5
727
  8
GUN
 10
0.03
 20
0.4
 30
0.09
 11
0.03
 21
0.3399999999999995
 31
0.09
 12
0.0500000000000001
 22
0.3099999999999996
 32
0.09
 13
0.05
 23
0.4
 33
0.09
  0
3DFACE
  5
729
  8
GUN
 10
-0.05
 20
0.4200000000000001
 30
0.07
 11
-0.05
 21
0.3999999999999996
 31
0.09
 12
-0.03
 22
0.3999999999999996
 32
0.09
 13
-0.03
 23
0.4200000000000001
 33
0.07
  0
3DFACE
  5
72A
  8
GUN
 10
0.03
 20
0.4200000000000001
 30
0.07
 11
0.03
 21
0.3999999999999996
 31
0.09
 12
0.05
 22
0.3999999999999996
 32
0.09
 13
0.05
 23
0.4200000000000001
 33
0.07
  0
3DFACE
  5
72B
  8
GUN
 10
-0.05
 20
0.4200000000000001
 30
-0.01
 11
-0.05
 21
0.4200000000000001
 31
-0.01
 12
-0.05
 22
0.4
 32
0.09
 13
-0.05
 23
0.4200000000000001
 33
0.07
  0
3DFACE
  5
72C
  8
GUN
 10
-0.03
 20
0.4200000000000001
 30
0.07
 11
-0.03
 21
0.4200000000000001
 31
0.01
 12
-0.05
 22
0.4200000000000001
 32
-0.01
 13
-0.05
 23
0.4200000000000001
 33
0.07
  0
3DFACE
  5
72D
  8
GUN
 10
-0.03
 20
0.3999999999999996
 30
0.09
 11
-0.03
 21
0.4200000000000001
 31
0.01
 12
-0.03
 22
0.4200000000000001
 32
0.01
 13
-0.03
 23
0.4200000000000001
 33
0.07
  0
3DFACE
  5
72E
  8
GUN
 10
0.05
 20
0.4
 30
0.09
 11
0.0500000000000001
 21
0.4200000000000001
 31
-0.01
 12
0.0500000000000001
 22
0.4200000000000001
 32
-0.01
 13
0.05
 23
0.4200000000000001
 33
0.07
  0
3DFACE
  5
72F
  8
GUN
 10
0.05
 20
0.4200000000000001
 30
0.07
 11
0.0500000000000001
 21
0.4200000000000001
 31
-0.01
 12
0.03
 22
0.4200000000000001
 32
0.01
 13
0.03
 23
0.4200000000000001
 33
0.07
  0
3DFACE
  5
730
  8
GUN
 10
0.03
 20
0.4200000000000001
 30
0.01
 11
0.03
 21
0.4200000000000001
 31
0.01
 12
0.03
 22
0.3999999999999996
 32
0.09
 13
0.03
 23
0.4200000000000001
 33
0.07
  0
3DFACE
  5
738
  8
GUN
 10
0.03
 20
0.3399999999999995
 30
0.01
 11
0.03
 21
0.4200000000000001
 31
0.01
 12
-0.03
 22
0.4200000000000001
 32
0.01
 13
-0.03
 23
0.3399999999999995
 33
0.01
  0
3DFACE
  5
739
  8
GUN
 10
0.03
 20
0.3399999999999999
 30
0.09
 11
0.03
 21
0.3399999999999995
 31
0.01
 12
-0.03
 22
0.3399999999999995
 32
0.01
 13
-0.03
 23
0.3399999999999999
 33
0.09
  0
3DFACE
  5
15F4
  8
GUN
 10
0.035
 20
0.31
 30
0.0499999999999999
 11
0.0247487373415292
 21
0.31
 31
0.0747487373415291
 12
0.0247487373415292
 22
-0.3200000000000001
 32
0.0747487373415291
 13
0.035
 23
-0.3200000000000001
 33
0.0499999999999999
  0
3DFACE
  5
15F5
  8
GUN
 10
0.0247487373415292
 20
0.31
 30
0.0747487373415291
 11
0.0
 21
0.31
 31
0.085
 12
0.0
 22
-0.3200000000000001
 32
0.085
 13
0.0247487373415292
 23
-0.3200000000000001
 33
0.0747487373415291
  0
3DFACE
  5
15F6
  8
GUN
 10
0.0
 20
0.31
 30
0.085
 11
-0.0247487373415292
 21
0.31
 31
0.0747487373415291
 12
-0.0247487373415292
 22
-0.3200000000000001
 32
0.0747487373415291
 13
0.0
 23
-0.3200000000000001
 33
0.085
  0
3DFACE
  5
15F7
  8
GUN
 10
-0.0247487373415292
 20
0.31
 30
0.0747487373415291
 11
-0.035
 21
0.31
 31
0.0499999999999999
 12
-0.035
 22
-0.3200000000000001
 32
0.0499999999999999
 13
-0.0247487373415292
 23
-0.3200000000000001
 33
0.0747487373415291
  0
3DFACE
  5
15F8
  8
GUN
 10
-0.035
 20
0.31
 30
0.0499999999999999
 11
-0.0247487373415292
 21
0.31
 31
0.0252512626584708
 12
-0.0247487373415292
 22
-0.3200000000000001
 32
0.0252512626584708
 13
-0.035
 23
-0.3200000000000001
 33
0.0499999999999999
  0
3DFACE
  5
15F9
  8
GUN
 10
-0.0247487373415292
 20
0.31
 30
0.0252512626584708
 11
0.0
 21
0.31
 31
0.0149999999999999
 12
0.0
 22
-0.3200000000000001
 32
0.0149999999999999
 13
-0.0247487373415292
 23
-0.3200000000000001
 33
0.0252512626584708
  0
3DFACE
  5
15FA
  8
GUN
 10
0.0
 20
0.31
 30
0.0149999999999999
 11
0.0247487373415292
 21
0.31
 31
0.0252512626584708
 12
0.0247487373415292
 22
-0.3200000000000001
 32
0.0252512626584708
 13
0.0
 23
-0.3200000000000001
 33
0.0149999999999999
  0
3DFACE
  5
15FB
  8
GUN
 10
0.0247487373415292
 20
0.31
 30
0.0252512626584708
 11
0.035
 21
0.31
 31
0.0499999999999999
 12
0.035
 22
-0.3200000000000001
 32
0.0499999999999999
 13
0.0247487373415292
 23
-0.3200000000000001
 33
0.0252512626584708
  0
3DFACE
  5
15FC
  8
GUN
 10
0.04
 20
-0.33
 30
0.0499999999999999
 11
0.0282842712474619
 21
-0.33
 31
0.021715728752538
 12
0.0247487373415292
 22
-0.32
 32
0.0252512626584708
 13
0.035
 23
-0.32
 33
0.0499999999999999
  0
3DFACE
  5
15FD
  8
GUN
 10
0.0282842712474619
 20
-0.33
 30
0.021715728752538
 11
0.0
 21
-0.33
 31
0.0099999999999999
 12
0.0
 22
-0.32
 32
0.0149999999999999
 13
0.0247487373415292
 23
-0.32
 33
0.0252512626584708
  0
3DFACE
  5
15FE
  8
GUN
 10
0.0
 20
-0.33
 30
0.0099999999999999
 11
-0.0282842712474619
 21
-0.33
 31
0.021715728752538
 12
-0.0247487373415292
 22
-0.32
 32
0.0252512626584708
 13
0.0
 23
-0.32
 33
0.0149999999999999
  0
3DFACE
  5
15FF
  8
GUN
 10
-0.0282842712474619
 20
-0.33
 30
0.021715728752538
 11
-0.04
 21
-0.33
 31
0.0499999999999999
 12
-0.035
 22
-0.32
 32
0.0499999999999999
 13
-0.0247487373415292
 23
-0.32
 33
0.0252512626584708
  0
3DFACE
  5
1600
  8
GUN
 10
-0.04
 20
-0.33
 30
0.0499999999999999
 11
-0.0282842712474619
 21
-0.33
 31
0.0782842712474619
 12
-0.0247487373415292
 22
-0.32
 32
0.0747487373415291
 13
-0.035
 23
-0.32
 33
0.0499999999999999
  0
3DFACE
  5
1601
  8
GUN
 10
-0.0282842712474619
 20
-0.33
 30
0.0782842712474619
 11
0.0
 21
-0.33
 31
0.09
 12
0.0
 22
-0.32
 32
0.085
 13
-0.0247487373415292
 23
-0.32
 33
0.0747487373415291
  0
3DFACE
  5
1602
  8
GUN
 10
0.0
 20
-0.33
 30
0.09
 11
0.0282842712474619
 21
-0.33
 31
0.0782842712474619
 12
0.0247487373415292
 22
-0.32
 32
0.0747487373415291
 13
0.0
 23
-0.32
 33
0.085
  0
3DFACE
  5
1603
  8
GUN
 10
0.0282842712474619
 20
-0.33
 30
0.0782842712474619
 11
0.04
 21
-0.33
 31
0.0499999999999999
 12
0.035
 22
-0.32
 32
0.0499999999999999
 13
0.0247487373415292
 23
-0.32
 33
0.0747487373415291
  0
3DFACE
  5
1604
  8
GUN
 10
0.04
 20
-0.33
 30
0.0499999999999999
 11
0.0282842712474619
 21
-0.33
 31
0.0782842712474619
 12
0.0282842712474619
 22
-0.4100000000000001
 32
0.0782842712474619
 13
0.04
 23
-0.4100000000000001
 33
0.0499999999999999
  0
3DFACE
  5
1605
  8
GUN
 10
0.0282842712474619
 20
-0.33
 30
0.0782842712474619
 11
0.0
 21
-0.33
 31
0.09
 12
0.0
 22
-0.4100000000000001
 32
0.09
 13
0.0282842712474619
 23
-0.4100000000000001
 33
0.0782842712474619
  0
3DFACE
  5
1606
  8
GUN
 10
0.0
 20
-0.33
 30
0.09
 11
-0.0282842712474619
 21
-0.33
 31
0.0782842712474619
 12
-0.0282842712474619
 22
-0.4100000000000001
 32
0.0782842712474619
 13
0.0
 23
-0.4100000000000001
 33
0.09
  0
3DFACE
  5
1607
  8
GUN
 10
-0.0282842712474619
 20
-0.33
 30
0.0782842712474619
 11
-0.04
 21
-0.33
 31
0.0499999999999999
 12
-0.04
 22
-0.4100000000000001
 32
0.0499999999999999
 13
-0.0282842712474619
 23
-0.4100000000000001
 33
0.0782842712474619
  0
3DFACE
  5
1608
  8
GUN
 10
-0.04
 20
-0.33
 30
0.0499999999999999
 11
-0.0282842712474619
 21
-0.33
 31
0.021715728752538
 12
-0.0282842712474619
 22
-0.4100000000000001
 32
0.021715728752538
 13
-0.04
 23
-0.4100000000000001
 33
0.0499999999999999
  0
3DFACE
  5
1609
  8
GUN
 10
-0.0282842712474619
 20
-0.33
 30
0.021715728752538
 11
0.0
 21
-0.33
 31
0.0099999999999999
 12
0.0
 22
-0.4100000000000001
 32
0.0099999999999999
 13
-0.0282842712474619
 23
-0.4100000000000001
 33
0.021715728752538
  0
3DFACE
  5
160A
  8
GUN
 10
0.0
 20
-0.33
 30
0.0099999999999999
 11
0.0282842712474619
 21
-0.33
 31
0.021715728752538
 12
0.0282842712474619
 22
-0.4100000000000001
 32
0.021715728752538
 13
0.0
 23
-0.4100000000000001
 33
0.0099999999999999
  0
3DFACE
  5
160B
  8
GUN
 10
0.0282842712474619
 20
-0.33
 30
0.021715728752538
 11
0.04
 21
-0.33
 31
0.0499999999999999
 12
0.04
 22
-0.4100000000000001
 32
0.0499999999999999
 13
0.0282842712474619
 23
-0.4100000000000001
 33
0.021715728752538
  0
3DFACE
  5
160C
  8
GUN
 10
0.03
 20
-0.4200000000000001
 30
0.0499999999999999
 11
0.0212132034355964
 21
-0.4200000000000001
 31
0.0287867965644035
 12
0.0282842712474619
 22
-0.4100000000000001
 32
0.021715728752538
 13
0.04
 23
-0.4100000000000001
 33
0.0499999999999999
  0
3DFACE
  5
160D
  8
GUN
 10
0.0212132034355964
 20
-0.4200000000000001
 30
0.0287867965644035
 11
0.0
 21
-0.4200000000000001
 31
0.0199999999999999
 12
0.0
 22
-0.4100000000000001
 32
0.0099999999999999
 13
0.0282842712474619
 23
-0.4100000000000001
 33
0.021715728752538
  0
3DFACE
  5
160E
  8
GUN
 10
0.0
 20
-0.4200000000000001
 30
0.0199999999999999
 11
-0.0212132034355964
 21
-0.4200000000000001
 31
0.0287867965644035
 12
-0.0282842712474619
 22
-0.4100000000000001
 32
0.021715728752538
 13
0.0
 23
-0.4100000000000001
 33
0.0099999999999999
  0
3DFACE
  5
160F
  8
GUN
 10
-0.0212132034355964
 20
-0.4200000000000001
 30
0.0287867965644035
 11
-0.03
 21
-0.4200000000000001
 31
0.0499999999999999
 12
-0.04
 22
-0.4100000000000001
 32
0.0499999999999999
 13
-0.0282842712474619
 23
-0.4100000000000001
 33
0.021715728752538
  0
3DFACE
  5
1610
  8
GUN
 10
-0.03
 20
-0.4200000000000001
 30
0.0499999999999999
 11
-0.0212132034355964
 21
-0.4200000000000001
 31
0.0712132034355964
 12
-0.0282842712474619
 22
-0.4100000000000001
 32
0.0782842712474619
 13
-0.04
 23
-0.4100000000000001
 33
0.0499999999999999
  0
3DFACE
  5
1611
  8
GUN
 10
-0.0212132034355964
 20
-0.4200000000000001
 30
0.0712132034355964
 11
0.0
 21
-0.4200000000000001
 31
0.08
 12
0.0
 22
-0.4100000000000001
 32
0.09
 13
-0.0282842712474619
 23
-0.4100000000000001
 33
0.0782842712474619
  0
3DFACE
  5
1612
  8
GUN
 10
0.0
 20
-0.4200000000000001
 30
0.08
 11
0.0212132034355964
 21
-0.4200000000000001
 31
0.0712132034355964
 12
0.0282842712474619
 22
-0.4100000000000001
 32
0.0782842712474619
 13
0.0
 23
-0.4100000000000001
 33
0.09
  0
3DFACE
  5
1613
  8
GUN
 10
0.0212132034355964
 20
-0.4200000000000001
 30
0.0712132034355964
 11
0.03
 21
-0.4200000000000001
 31
0.0499999999999999
 12
0.04
 22
-0.4100000000000001
 32
0.0499999999999999
 13
0.0282842712474619
 23
-0.4100000000000001
 33
0.0782842712474619
  0
3DFACE
  5
1614
  8
GUN
 10
0.03
 20
-0.4200000000000001
 30
0.0499999999999999
 11
0.0212132034355964
 21
-0.4200000000000001
 31
0.0712132034355964
 12
0.0212132034355964
 22
-1.2099999999999991
 32
0.0712132034355964
 13
0.03
 23
-1.2099999999999991
 33
0.0499999999999999
  0
3DFACE
  5
1615
  8
GUN
 10
0.0212132034355964
 20
-0.4200000000000001
 30
0.0712132034355964
 11
0.0
 21
-0.4200000000000001
 31
0.08
 12
0.0
 22
-1.2099999999999991
 32
0.08
 13
0.0212132034355964
 23
-1.2099999999999991
 33
0.0712132034355964
  0
3DFACE
  5
1616
  8
GUN
 10
0.0
 20
-0.4200000000000001
 30
0.08
 11
-0.0212132034355964
 21
-0.4200000000000001
 31
0.0712132034355964
 12
-0.0212132034355964
 22
-1.2099999999999991
 32
0.0712132034355964
 13
0.0
 23
-1.2099999999999991
 33
0.08
  0
3DFACE
  5
1617
  8
GUN
 10
-0.0212132034355964
 20
-0.4200000000000001
 30
0.0712132034355964
 11
-0.03
 21
-0.4200000000000001
 31
0.0499999999999999
 12
-0.03
 22
-1.2099999999999991
 32
0.0499999999999999
 13
-0.0212132034355964
 23
-1.2099999999999991
 33
0.0712132034355964
  0
3DFACE
  5
1618
  8
GUN
 10
-0.03
 20
-0.4200000000000001
 30
0.0499999999999999
 11
-0.0212132034355964
 21
-0.4200000000000001
 31
0.0287867965644035
 12
-0.0212132034355964
 22
-1.2099999999999991
 32
0.0287867965644035
 13
-0.03
 23
-1.2099999999999991
 33
0.0499999999999999
  0
3DFACE
  5
1619
  8
GUN
 10
-0.0212132034355964
 20
-0.4200000000000001
 30
0.0287867965644035
 11
0.0
 21
-0.4200000000000001
 31
0.0199999999999999
 12
0.0
 22
-1.2099999999999991
 32
0.0199999999999999
 13
-0.0212132034355964
 23
-1.2099999999999991
 33
0.0287867965644035
  0
3DFACE
  5
161A
  8
GUN
 10
0.0
 20
-0.4200000000000001
 30
0.0199999999999999
 11
0.0212132034355964
 21
-0.4200000000000001
 31
0.0287867965644035
 12
0.0212132034355964
 22
-1.2099999999999991
 32
0.0287867965644035
 13
0.0
 23
-1.2099999999999991
 33
0.0199999999999999
  0
3DFACE
  5
161B
  8
GUN
 10
0.0212132034355964
 20
-0.4200000000000001
 30
0.0287867965644035
 11
0.03
 21
-0.4200000000000001
 31
0.0499999999999999
 12
0.03
 22
-1.2099999999999991
 32
0.0499999999999999
 13
0.0212132034355964
 23
-1.2099999999999991
 33
0.0287867965644035
  0
3DFACE
  5
161C
  8
GUN
 10
0.03
 20
-1.2099999999999991
 30
0.0499999999999998
 11
0.0212132034355964
 21
-1.2099999999999991
 31
0.0712132034355962
 12
0.0247487373415292
 22
-1.2199999999999991
 32
0.074748737341529
 13
0.035
 23
-1.2199999999999991
 33
0.0499999999999998
  0
3DFACE
  5
161D
  8
GUN
 10
0.0212132034355964
 20
-1.2099999999999991
 30
0.0712132034355962
 11
0.0
 21
-1.2099999999999991
 31
0.0799999999999999
 12
0.0
 22
-1.2199999999999991
 32
0.0849999999999999
 13
0.0247487373415292
 23
-1.2199999999999991
 33
0.074748737341529
  0
3DFACE
  5
161E
  8
GUN
 10
0.0
 20
-1.2099999999999991
 30
0.0799999999999999
 11
-0.0212132034355964
 21
-1.2099999999999991
 31
0.0712132034355962
 12
-0.0247487373415292
 22
-1.2199999999999991
 32
0.074748737341529
 13
0.0
 23
-1.2199999999999991
 33
0.0849999999999999
  0
3DFACE
  5
161F
  8
GUN
 10
-0.0212132034355964
 20
-1.2099999999999991
 30
0.0712132034355962
 11
-0.03
 21
-1.2099999999999991
 31
0.0499999999999998
 12
-0.035
 22
-1.2199999999999991
 32
0.0499999999999998
 13
-0.0247487373415292
 23
-1.2199999999999991
 33
0.074748737341529
  0
3DFACE
  5
1620
  8
GUN
 10
-0.03
 20
-1.2099999999999991
 30
0.0499999999999998
 11
-0.0212132034355964
 21
-1.2099999999999991
 31
0.0287867965644034
 12
-0.0247487373415292
 22
-1.2199999999999991
 32
0.0252512626584707
 13
-0.035
 23
-1.2199999999999991
 33
0.0499999999999998
  0
3DFACE
  5
1621
  8
GUN
 10
-0.0212132034355964
 20
-1.2099999999999991
 30
0.0287867965644034
 11
0.0
 21
-1.2099999999999991
 31
0.0199999999999998
 12
0.0
 22
-1.2199999999999991
 32
0.0149999999999998
 13
-0.0247487373415292
 23
-1.2199999999999991
 33
0.0252512626584707
  0
3DFACE
  5
1622
  8
GUN
 10
0.0
 20
-1.2099999999999991
 30
0.0199999999999998
 11
0.0212132034355964
 21
-1.2099999999999991
 31
0.0287867965644034
 12
0.0247487373415292
 22
-1.2199999999999991
 32
0.0252512626584707
 13
0.0
 23
-1.2199999999999991
 33
0.0149999999999998
  0
3DFACE
  5
1623
  8
GUN
 10
0.0212132034355964
 20
-1.2099999999999991
 30
0.0287867965644034
 11
0.03
 21
-1.2099999999999991
 31
0.0499999999999998
 12
0.035
 22
-1.2199999999999991
 32
0.0499999999999998
 13
0.0247487373415292
 23
-1.2199999999999991
 33
0.0252512626584707
  0
3DFACE
  5
1624
  8
GUN
 10
0.035
 20
-1.2199999999999991
 30
0.0499999999999999
 11
0.0247487373415292
 21
-1.2199999999999991
 31
0.0747487373415291
 12
0.0247487373415292
 22
-1.27
 32
0.0747487373415291
 13
0.035
 23
-1.27
 33
0.0499999999999999
  0
3DFACE
  5
1625
  8
GUN
 10
0.0247487373415292
 20
-1.2199999999999991
 30
0.0747487373415291
 11
0.0
 21
-1.2199999999999991
 31
0.085
 12
0.0
 22
-1.27
 32
0.085
 13
0.0247487373415292
 23
-1.27
 33
0.0747487373415291
  0
3DFACE
  5
1626
  8
GUN
 10
0.0
 20
-1.2199999999999991
 30
0.085
 11
-0.0247487373415292
 21
-1.2199999999999991
 31
0.0747487373415291
 12
-0.0247487373415292
 22
-1.27
 32
0.0747487373415291
 13
0.0
 23
-1.27
 33
0.085
  0
3DFACE
  5
1627
  8
GUN
 10
-0.0247487373415292
 20
-1.2199999999999991
 30
0.0747487373415291
 11
-0.035
 21
-1.2199999999999991
 31
0.0499999999999999
 12
-0.035
 22
-1.27
 32
0.0499999999999999
 13
-0.0247487373415292
 23
-1.27
 33
0.0747487373415291
  0
3DFACE
  5
1628
  8
GUN
 10
-0.035
 20
-1.2199999999999991
 30
0.0499999999999999
 11
-0.0247487373415292
 21
-1.2199999999999991
 31
0.0252512626584708
 12
-0.0247487373415292
 22
-1.27
 32
0.0252512626584708
 13
-0.035
 23
-1.27
 33
0.0499999999999999
  0
3DFACE
  5
1629
  8
GUN
 10
-0.0247487373415292
 20
-1.2199999999999991
 30
0.0252512626584708
 11
0.0
 21
-1.2199999999999991
 31
0.0149999999999999
 12
0.0
 22
-1.27
 32
0.0149999999999999
 13
-0.0247487373415292
 23
-1.27
 33
0.0252512626584708
  0
3DFACE
  5
162A
  8
GUN
 10
0.0
 20
-1.2199999999999991
 30
0.0149999999999999
 11
0.0247487373415292
 21
-1.2199999999999991
 31
0.0252512626584708
 12
0.0247487373415292
 22
-1.27
 32
0.0252512626584708
 13
0.0
 23
-1.27
 33
0.0149999999999999
  0
3DFACE
  5
162B
  8
GUN
 10
0.0247487373415292
 20
-1.2199999999999991
 30
0.0252512626584708
 11
0.035
 21
-1.2199999999999991
 31
0.0499999999999999
 12
0.035
 22
-1.27
 32
0.0499999999999999
 13
0.0247487373415292
 23
-1.27
 33
0.0252512626584708
  0
3DFACE
  5
162C
  8
GUN
 10
0.03
 20
-1.28
 30
0.0499999999999999
 11
0.0212132034355964
 21
-1.28
 31
0.0287867965644035
 12
0.0247487373415292
 22
-1.27
 32
0.0252512626584708
 13
0.035
 23
-1.27
 33
0.0499999999999999
  0
3DFACE
  5
162D
  8
GUN
 10
0.0212132034355964
 20
-1.28
 30
0.0287867965644035
 11
0.0
 21
-1.28
 31
0.0199999999999999
 12
0.0
 22
-1.27
 32
0.0149999999999999
 13
0.0247487373415292
 23
-1.27
 33
0.0252512626584708
  0
3DFACE
  5
162E
  8
GUN
 10
0.0
 20
-1.28
 30
0.0199999999999999
 11
-0.0212132034355964
 21
-1.28
 31
0.0287867965644035
 12
-0.0247487373415292
 22
-1.27
 32
0.0252512626584708
 13
0.0
 23
-1.27
 33
0.0149999999999999
  0
3DFACE
  5
162F
  8
GUN
 10
-0.0212132034355964
 20
-1.28
 30
0.0287867965644035
 11
-0.03
 21
-1.28
 31
0.0499999999999999
 12
-0.035
 22
-1.27
 32
0.0499999999999999
 13
-0.0247487373415292
 23
-1.27
 33
0.0252512626584708
  0
3DFACE
  5
1630
  8
GUN
 10
-0.03
 20
-1.28
 30
0.0499999999999999
 11
-0.0212132034355964
 21
-1.28
 31
0.0712132034355964
 12
-0.0247487373415292
 22
-1.27
 32
0.0747487373415291
 13
-0.035
 23
-1.27
 33
0.0499999999999999
  0
3DFACE
  5
1631
  8
GUN
 10
-0.0212132034355964
 20
-1.28
 30
0.0712132034355964
 11
0.0
 21
-1.28
 31
0.08
 12
0.0
 22
-1.27
 32
0.085
 13
-0.0247487373415292
 23
-1.27
 33
0.0747487373415291
  0
3DFACE
  5
1632
  8
GUN
 10
0.0
 20
-1.28
 30
0.08
 11
0.0212132034355964
 21
-1.28
 31
0.0712132034355964
 12
0.0247487373415292
 22
-1.27
 32
0.0747487373415291
 13
0.0
 23
-1.27
 33
0.085
  0
3DFACE
  5
1633
  8
GUN
 10
0.0212132034355964
 20
-1.28
 30
0.0712132034355964
 11
0.03
 21
-1.28
 31
0.0499999999999999
 12
0.035
 22
-1.27
 32
0.0499999999999999
 13
0.0247487373415292
 23
-1.27
 33
0.0747487373415291
  0
3DFACE
  5
1634
  8
GUN
 10
0.04
 20
-1.53
 30
0.0499999999999999
 11
0.0282842712474619
 21
-1.53
 31
0.021715728752538
 12
0.0212132034355964
 22
-1.28
 32
0.0287867965644035
 13
0.03
 23
-1.28
 33
0.0499999999999999
  0
3DFACE
  5
1635
  8
GUN
 10
0.0282842712474619
 20
-1.53
 30
0.021715728752538
 11
0.0
 21
-1.53
 31
0.0099999999999999
 12
0.0
 22
-1.28
 32
0.0199999999999999
 13
0.0212132034355964
 23
-1.28
 33
0.0287867965644035
  0
3DFACE
  5
1636
  8
GUN
 10
0.0
 20
-1.53
 30
0.0099999999999999
 11
-0.0282842712474619
 21
-1.53
 31
0.021715728752538
 12
-0.0212132034355964
 22
-1.28
 32
0.0287867965644035
 13
0.0
 23
-1.28
 33
0.0199999999999999
  0
3DFACE
  5
1637
  8
GUN
 10
-0.0282842712474619
 20
-1.53
 30
0.021715728752538
 11
-0.04
 21
-1.53
 31
0.0499999999999999
 12
-0.03
 22
-1.28
 32
0.0499999999999999
 13
-0.0212132034355964
 23
-1.28
 33
0.0287867965644035
  0
3DFACE
  5
1638
  8
GUN
 10
-0.04
 20
-1.53
 30
0.0499999999999999
 11
-0.0282842712474619
 21
-1.53
 31
0.0782842712474619
 12
-0.0212132034355964
 22
-1.28
 32
0.0712132034355964
 13
-0.03
 23
-1.28
 33
0.0499999999999999
  0
3DFACE
  5
1639
  8
GUN
 10
-0.0282842712474619
 20
-1.53
 30
0.0782842712474619
 11
0.0
 21
-1.53
 31
0.09
 12
0.0
 22
-1.28
 32
0.08
 13
-0.0212132034355964
 23
-1.28
 33
0.0712132034355964
  0
3DFACE
  5
163A
  8
GUN
 10
0.0
 20
-1.53
 30
0.09
 11
0.0282842712474619
 21
-1.53
 31
0.0782842712474619
 12
0.0212132034355964
 22
-1.28
 32
0.0712132034355964
 13
0.0
 23
-1.28
 33
0.08
  0
3DFACE
  5
163B
  8
GUN
 10
0.0282842712474619
 20
-1.53
 30
0.0782842712474619
 11
0.04
 21
-1.53
 31
0.0499999999999999
 12
0.03
 22
-1.28
 32
0.0499999999999999
 13
0.0212132034355964
 23
-1.28
 33
0.0712132034355964
  0
3DFACE
  5
1640
  8
GUN
 10
-0.04
 20
-1.53
 30
0.0499999999999999
 11
0.0282842712474619
 21
-1.53
 31
0.0782842712474619
 12
0.0
 22
-1.53
 32
0.09
 13
-0.0282842712474619
 23
-1.53
 33
0.0782842712474619
  0
3DFACE
  5
1641
  8
GUN
 10
-0.0282842712474619
 20
-1.53
 30
0.021715728752538
 11
0.04
 21
-1.53
 31
0.0499999999999999
 12
0.0282842712474619
 22
-1.53
 32
0.0782842712474619
 13
-0.04
 23
-1.53
 33
0.0499999999999999
  0
3DFACE
  5
1642
  8
GUN
 10
0.0
 20
-1.53
 30
0.0099999999999999
 11
0.0282842712474619
 21
-1.53
 31
0.021715728752538
 12
0.04
 22
-1.53
 32
0.0499999999999999
 13
-0.0282842712474619
 23
-1.53
 33
0.021715728752538
  0
VIEWPORT
  5
2E
 67
     1
  8
0
 10
144.7270812988281
 20
101.2295806407928
 30
0.0
 40
391.13550988316581
 41
222.15178063964839
 68
     2
 69
     1
1001
ACAD
1000
MVIEW
1002
{
1070
    16
1010
0.0
1020
0.0
1030
0.0
1010
0.0
1020
0.0
1030
1.0
1040
0.0
1040
222.15178063964839
1040
144.7270812988281
1040
101.2295806407928
1040
50.0
1040
0.0
1040
0.0
1070
     0
1070
   100
1070
     1
1070
     1
1070
     0
1070
     0
1070
     0
1070
     0
1040
0.0
1040
0.0
1040
0.0
1040
10.0
1040
10.0
1040
10.0
1040
10.0
1070
     0
1002
{
1002
}
1002
}
  0
VIEWPORT
  5
30
 67
     1
  8
0
 10
139.22375631332389
 20
100.8062499761581
 30
0.0
 40
222.75801010131829
 41
161.289999961853
 68
     1
 69
     2
1001
ACAD
1000
MVIEW
1002
{
1070
    16
1010
0.0
1020
0.0
1030
0.0
1010
0.0
1020
0.0
1030
1.0
1040
0.0
1040
307.49010134148989
1040
210.0
1040
148.5
1040
50.0
1040
0.0
1040
0.0
1070
     0
1070
   100
1070
     1
1070
     3
1070
     0
1070
     1
1070
     0
1070
     0
1040
0.0
1040
0.0
1040
0.0
1040
10.0
1040
10.0
1040
10.0
1040
10.0
1070
     0
1002
{
1002
}
1002
}
  0
ENDSEC
  0
EOF
