  0
SECTION
  2
HEADER
  9
$ACADVER
  1
AC1009
  9
$INSBASE
 10
0.0
 20
0.0
 30
0.0
  9
$EXTMIN
 10
-0.23
 20
-0.060000000000001
 30
-0.0300000000000011
  9
$EXTMAX
 10
0.23
 20
1.7299999999999991
 30
0.3500000000000001
  9
$LIMMIN
 10
0.0
 20
0.0
  9
$LIMMAX
 10
420.0
 20
297.0
  9
$ORTHOMODE
 70
     1
  9
$REGENMODE
 70
     1
  9
$FILLMODE
 70
     1
  9
$QTEXTMODE
 70
     0
  9
$MIRRTEXT
 70
     1
  9
$DRAGMODE
 70
     2
  9
$LTSCALE
 40
1.0
  9
$OSMODE
 70
    35
  9
$ATTMODE
 70
     1
  9
$TEXTSIZE
 40
2.5
  9
$TRACEWID
 40
1.0
  9
$TEXTSTYLE
  7
STANDARD
  9
$CLAYER
  8
TRAIL
  9
$CELTYPE
  6
BYLAYER
  9
$CECOLOR
 62
   256
  9
$DIMSCALE
 40
1.0
  9
$DIMASZ
 40
2.5
  9
$DIMEXO
 40
0.625
  9
$DIMDLI
 40
3.75
  9
$DIMRND
 40
0.0
  9
$DIMDLE
 40
0.0
  9
$DIMEXE
 40
1.25
  9
$DIMTP
 40
0.0
  9
$DIMTM
 40
0.0
  9
$DIMTXT
 40
2.5
  9
$DIMCEN
 40
2.5
  9
$DIMTSZ
 40
0.0
  9
$DIMTOL
 70
     0
  9
$DIMLIM
 70
     0
  9
$DIMTIH
 70
     0
  9
$DIMTOH
 70
     0
  9
$DIMSE1
 70
     0
  9
$DIMSE2
 70
     0
  9
$DIMTAD
 70
     1
  9
$DIMZIN
 70
     8
  9
$DIMBLK
  1

  9
$DIMASO
 70
     1
  9
$DIMSHO
 70
     1
  9
$DIMPOST
  1

  9
$DIMAPOST
  1

  9
$DIMALT
 70
     0
  9
$DIMALTD
 70
     3
  9
$DIMALTF
 40
0.03937007874016
  9
$DIMLFAC
 40
1.0
  9
$DIMTOFL
 70
     1
  9
$DIMTVP
 40
0.0
  9
$DIMTIX
 70
     0
  9
$DIMSOXD
 70
     0
  9
$DIMSAH
 70
     0
  9
$DIMBLK1
  1

  9
$DIMBLK2
  1

  9
$DIMSTYLE
  2
ISO-25
  9
$DIMCLRD
 70
     0
  9
$DIMCLRE
 70
     0
  9
$DIMCLRT
 70
     0
  9
$DIMTFAC
 40
1.0
  9
$DIMGAP
 40
0.625
  9
$LUNITS
 70
     2
  9
$LUPREC
 70
     4
  9
$SKETCHINC
 40
1.0
  9
$FILLETRAD
 40
10.0
  9
$AUNITS
 70
     0
  9
$AUPREC
 70
     0
  9
$MENU
  1
.
  9
$ELEVATION
 40
0.0
  9
$PELEVATION
 40
0.0
  9
$THICKNESS
 40
0.0
  9
$LIMCHECK
 70
     0
  9
$BLIPMODE
 70
     0
  9
$CHAMFERA
 40
10.0
  9
$CHAMFERB
 40
10.0
  9
$SKPOLY
 70
     0
  9
$TDCREATE
 40
2457516.8682764238
  9
$TDUPDATE
 40
2457522.446402627
  9
$TDINDWG
 40
1.360979838
  9
$TDUSRTIMER
 40
1.3609798263999999
  9
$USRTIMER
 70
     1
  9
$ANGBASE
 50
0.0
  9
$ANGDIR
 70
     0
  9
$PDMODE
 70
     0
  9
$PDSIZE
 40
0.0
  9
$PLINEWID
 40
0.0
  9
$COORDS
 70
     1
  9
$SPLFRAME
 70
     0
  9
$SPLINETYPE
 70
     6
  9
$SPLINESEGS
 70
     8
  9
$ATTDIA
 70
     1
  9
$ATTREQ
 70
     1
  9
$HANDLING
 70
-16383
  9
$HANDSEED
  5
161D
  9
$SURFTAB1
 70
     6
  9
$SURFTAB2
 70
     6
  9
$SURFTYPE
 70
     6
  9
$SURFU
 70
     6
  9
$SURFV
 70
     6
  9
$UCSNAME
  2

  9
$UCSORG
 10
0.0
 20
0.0
 30
0.0
  9
$UCSXDIR
 10
1.0
 20
0.0
 30
0.0
  9
$UCSYDIR
 10
0.0
 20
1.0
 30
0.0
  9
$PUCSNAME
  2

  9
$PUCSORG
 10
0.0
 20
0.0
 30
0.0
  9
$PUCSXDIR
 10
1.0
 20
0.0
 30
0.0
  9
$PUCSYDIR
 10
0.0
 20
1.0
 30
0.0
  9
$USERI1
 70
     0
  9
$USERI2
 70
     0
  9
$USERI3
 70
     0
  9
$USERI4
 70
     0
  9
$USERI5
 70
     0
  9
$USERR1
 40
0.0
  9
$USERR2
 40
0.0
  9
$USERR3
 40
0.0
  9
$USERR4
 40
0.0
  9
$USERR5
 40
0.0
  9
$WORLDVIEW
 70
     1
  9
$SHADEDGE
 70
     3
  9
$SHADEDIF
 70
    70
  9
$TILEMODE
 70
     1
  9
$MAXACTVP
 70
    64
  9
$PLIMCHECK
 70
     0
  9
$PEXTMIN
 10
27.844751262664801
 20
20.161249995231621
 30
0.0
  9
$PEXTMAX
 10
250.60276136398309
 20
181.4512499570846
 30
0.0
  9
$PLIMMIN
 10
-3.757080078125
 20
-3.7570831775665279
  9
$PLIMMAX
 10
293.21124267578119
 20
206.21624445915219
  9
$UNITMODE
 70
     0
  9
$VISRETAIN
 70
     1
  9
$PLINEGEN
 70
     0
  9
$PSLTSCALE
 70
     1
  0
ENDSEC
  0
SECTION
  2
TABLES
  0
TABLE
  2
VPORT
 70
     2
  0
VPORT
  2
*ACTIVE
 70
     0
 10
0.0
 20
0.0
 11
1.0
 21
1.0
 12
0.4313938355528118
 22
0.8532087116219383
 13
0.0
 23
0.0
 14
0.01
 24
0.01
 15
1.0
 25
1.0
 16
0.0
 26
0.0
 36
1.0
 17
0.0
 27
0.0
 37
0.0
 40
5.2849996519635916
 41
2.1655092592592591
 42
50.0
 43
0.0
 44
0.0
 50
0.0
 51
0.0
 71
     0
 72
   100
 73
     1
 74
     3
 75
     1
 76
     1
 77
     0
 78
     0
  0
ENDTAB
  0
TABLE
  2
LTYPE
 70
     1
  0
LTYPE
  2
CONTINUOUS
 70
     0
  3
Solid line
 72
    65
 73
     0
 40
0.0
  0
ENDTAB
  0
TABLE
  2
LAYER
 70
    13
  0
LAYER
  2
0
 70
     0
 62
     7
  6
CONTINUOUS
  0
LAYER
  2
REFERENCE
 70
     0
 62
     9
  6
CONTINUOUS
  0
LAYER
  2
WHEELS
 70
     0
 62
     2
  6
CONTINUOUS
  0
LAYER
  2
TRAIL
 70
     0
 62
     6
  6
CONTINUOUS
  0
LAYER
  2
TMP
 70
     0
 62
     4
  6
CONTINUOUS
  0
LAYER
  2
TRAIL2
 70
     0
 62
     6
  6
CONTINUOUS
  0
LAYER
  2
TURRET
 70
     0
 62
     2
  6
CONTINUOUS
  0
LAYER
  2
GUN
 70
     0
 62
     1
  6
CONTINUOUS
  0
LAYER
  2
SLEEVE
 70
     0
 62
     5
  6
CONTINUOUS
  0
LAYER
  2
FRAME
 70
     0
 62
     5
  6
CONTINUOUS
  0
LAYER
  2
INTERNALS
 70
     0
 62
     3
  6
CONTINUOUS
  0
LAYER
  2
FENDERS
 70
     0
 62
     6
  6
CONTINUOUS
  0
LAYER
  2
TENT
 70
     0
 62
     4
  6
CONTINUOUS
  0
ENDTAB
  0
TABLE
  2
STYLE
 70
     1
  0
STYLE
  2
STANDARD
 70
     0
 40
0.0
 41
1.0
 50
0.0
 71
     0
 42
2.5
  3
txt
  4

  0
ENDTAB
  0
TABLE
  2
VIEW
 70
     0
  0
ENDTAB
  0
TABLE
  2
UCS
 70
     0
  0
ENDTAB
  0
TABLE
  2
APPID
 70
     1
  0
APPID
  2
ACAD
 70
     0
  0
ENDTAB
  0
TABLE
  2
DIMSTYLE
 70
     1
  0
DIMSTYLE
  2
ISO-25
 70
     0
  3

  4

  5

  6

  7

 40
1.0
 41
2.5
 42
0.625
 43
3.75
 44
1.25
 45
0.0
 46
0.0
 47
0.0
 48
0.0
140
2.5
141
2.5
142
0.0
143
0.03937007874016
144
1.0
145
0.0
146
1.0
147
0.625
 71
     0
 72
     0
 73
     0
 74
     0
 75
     0
 76
     0
 77
     1
 78
     8
170
     0
171
     3
172
     1
173
     0
174
     0
175
     0
176
     0
177
     0
178
     0
  0
ENDTAB
  0
ENDSEC
  0
SECTION
  2
BLOCKS
  0
BLOCK
  8
0
  2
$MODEL_SPACE
 70
     0
 10
0.0
 20
0.0
 30
0.0
  3
$MODEL_SPACE
  1

  0
ENDBLK
  5
21
  8
0
  0
BLOCK
 67
     1
  8
0
  2
$PAPER_SPACE
 70
     0
 10
0.0
 20
0.0
 30
0.0
  3
$PAPER_SPACE
  1

  0
ENDBLK
  5
1D
 67
     1
  8
0
  0
ENDSEC
  0
SECTION
  2
ENTITIES
  0
3DFACE
  5
3C4
  8
TRAIL
 10
-0.18
 20
1.7
 30
-0.0300000000000011
 11
0.0300000000000009
 21
1.7
 31
-0.0300000000000011
 12
0.0300000000000009
 22
1.47
 32
-0.0300000000000011
 13
-0.18
 23
1.47
 33
-0.0300000000000011
  0
3DFACE
  5
3C5
  8
TRAIL
 10
-0.1225999999999998
 20
1.429999999999999
 30
-0.0100000000000016
 11
-0.1099999999999997
 21
1.7
 31
-0.0100000000000002
 12
-0.18
 22
1.7
 32
-0.0100000000000016
 13
-0.18
 23
1.47
 33
-0.0100000000000016
  0
3DFACE
  5
3C6
  8
TRAIL
 10
0.0300000000000009
 20
1.47
 30
-0.0300000000000011
 11
0.0300000000000009
 21
1.7
 31
-0.0300000000000011
 12
0.0300000000000009
 22
1.7
 32
-0.0100000000000016
 13
0.0300000000000009
 23
1.47
 33
-0.0100000000000016
  0
3DFACE
  5
3C7
  8
TRAIL
 10
-0.18
 20
1.47
 30
-0.0100000000000016
 11
-0.18
 21
1.7
 31
-0.0100000000000016
 12
-0.18
 22
1.7
 32
-0.0300000000000011
 13
-0.18
 23
1.47
 33
-0.0300000000000011
  0
3DFACE
  5
3CC
  8
TRAIL
 10
-0.1099999999999997
 20
1.7
 30
-0.0100000000000002
 11
-0.1400000000000008
 21
1.7299999999999991
 31
-0.0100000000000016
 12
-0.1400000000000008
 22
1.7299999999999991
 32
-0.0100000000000016
 13
-0.18
 23
1.7
 33
-0.0100000000000016
  0
3DFACE
  5
3CD
  8
TRAIL
 10
0.0300000000000009
 20
1.7
 30
-0.0300000000000011
 11
-0.0099999999999983
 21
1.7299999999999991
 31
-0.0300000000000011
 12
-0.0099999999999983
 22
1.7299999999999991
 32
-0.0100000000000016
 13
0.0300000000000009
 23
1.7
 33
-0.0100000000000016
  0
3DFACE
  5
3CE
  8
TRAIL
 10
-0.18
 20
1.7
 30
-0.0100000000000016
 11
-0.1400000000000008
 21
1.7299999999999991
 31
-0.0100000000000016
 12
-0.1400000000000008
 22
1.7299999999999991
 32
-0.0300000000000011
 13
-0.18
 23
1.7
 33
-0.0300000000000011
  0
3DFACE
  5
3CF
  8
TRAIL
 10
-0.1400000000000008
 20
1.7299999999999991
 30
-0.0300000000000011
 11
-0.0099999999999983
 21
1.7299999999999991
 31
-0.0300000000000011
 12
0.0300000000000009
 22
1.7
 32
-0.0300000000000011
 13
-0.18
 23
1.7
 33
-0.0300000000000011
  0
3DFACE
  5
3D0
  8
TRAIL
 10
-0.1400000000000008
 20
1.7299999999999991
 30
-0.0100000000000016
 11
-0.0099999999999983
 21
1.7299999999999991
 31
-0.0100000000000016
 12
-0.0099999999999983
 22
1.7299999999999991
 32
-0.0300000000000011
 13
-0.1400000000000008
 23
1.7299999999999991
 33
-0.0300000000000011
  0
3DFACE
  5
3D3
  8
TRAIL
 10
-0.0099999999999983
 20
1.429999999999999
 30
-0.0300000000000011
 11
-0.1400000000000008
 21
1.429999999999999
 31
-0.0300000000000011
 12
-0.18
 22
1.469999999999998
 32
-0.0300000000000011
 13
0.0300000000000009
 23
1.469999999999998
 33
-0.0300000000000011
  0
3DFACE
  5
3D4
  8
TRAIL
 10
0.0300000000000009
 20
1.469999999999998
 30
-0.0100000000000016
 11
-0.0099999999999983
 21
1.429999999999999
 31
-0.0100000000000016
 12
-0.0099999999999983
 22
1.429999999999999
 32
-0.0300000000000011
 13
0.0300000000000009
 23
1.469999999999998
 33
-0.0300000000000011
  0
3DFACE
  5
3D5
  8
TRAIL
 10
-0.18
 20
1.469999999999998
 30
-0.0100000000000016
 11
-0.1400000000000008
 21
1.429999999999999
 31
-0.0100000000000016
 12
-0.1225999999999998
 22
1.429999999999999
 32
-0.0100000000000016
 13
-0.18
 23
1.469999999999998
 33
-0.0100000000000016
  0
3DFACE
  5
3D6
  8
TRAIL
 10
-0.18
 20
1.469999999999998
 30
-0.0300000000000011
 11
-0.1400000000000008
 21
1.429999999999999
 31
-0.0300000000000011
 12
-0.1400000000000008
 22
1.429999999999999
 32
-0.0100000000000016
 13
-0.18
 23
1.469999999999998
 33
-0.0100000000000016
  0
3DFACE
  5
3D7
  8
TRAIL
 10
-0.0099999999999983
 20
1.429999999999999
 30
-0.0100000000000016
 11
-0.1400000000000008
 21
1.429999999999999
 31
-0.0100000000000016
 12
-0.1400000000000008
 22
1.429999999999999
 32
-0.0300000000000011
 13
-0.0099999999999983
 23
1.429999999999999
 33
-0.0300000000000011
  0
3DFACE
  5
40A
  8
TRAIL
 10
-0.1099999999999997
 20
1.7
 30
-0.0100000000000002
 11
-0.0499999999999975
 21
1.7
 31
-0.01
 12
-0.0099999999999983
 22
1.7299999999999991
 32
-0.0100000000000016
 13
-0.1400000000000008
 23
1.7299999999999991
 33
-0.0100000000000016
  0
3DFACE
  5
40B
  8
TRAIL
 10
0.0300000000000009
 20
1.7
 30
-0.0100000000000016
 11
-0.0099999999999983
 21
1.7299999999999991
 31
-0.0100000000000016
 12
-0.0499999999999975
 22
1.7
 32
-0.01
 13
-0.0499999999999975
 23
1.7
 33
-0.01
  0
3DFACE
  5
40C
  8
TRAIL
 10
0.0300000000000009
 20
1.47
 30
-0.0100000000000016
 11
0.0300000000000009
 21
1.7
 31
-0.0100000000000016
 12
-0.0499999999999975
 22
1.7
 32
-0.01
 13
-0.0499999999999974
 23
1.429999999999999
 33
-0.0100000000000016
  0
3DFACE
  5
40D
  8
TRAIL
 10
-0.0499999999999974
 20
1.429999999999999
 30
-0.0100000000000016
 11
-0.0499999999999974
 21
1.429999999999999
 31
-0.0100000000000016
 12
-0.0099999999999983
 22
1.430000000000001
 32
-0.0100000000000016
 13
0.0300000000000009
 23
1.47
 33
-0.0100000000000016
  0
3DFACE
  5
40E
  8
TRAIL
 10
-0.1720666666666666
 20
0.3699999999999999
 30
0.21
 11
-0.1225999999999998
 21
1.429999999999999
 31
0.07
 12
-0.1099999999999997
 22
1.7
 32
-0.0100000000000002
 13
-0.1225999999999998
 23
1.429999999999999
 33
-0.0100000000000016
  0
3DFACE
  5
40F
  8
TRAIL
 10
-0.0499999999999974
 20
1.429999999999999
 30
-0.0100000000000016
 11
-0.0499999999999975
 21
1.7
 31
-0.01
 12
-0.0499999999999974
 22
1.429999999999999
 32
0.07
 13
-0.0499999999999974
 23
0.3699999999999999
 33
0.21
  0
3DFACE
  5
410
  8
TRAIL
 10
-0.1225999999999998
 20
1.429999999999999
 30
0.07
 11
-0.0499999999999974
 21
1.429999999999999
 31
0.07
 12
-0.0499999999999975
 22
1.7
 32
-0.01
 13
-0.109999999999999
 23
1.7
 33
-0.01
  0
3DFACE
  5
411
  8
TRAIL
 10
-0.1720666666666666
 20
0.3699999999999999
 30
0.33
 11
-0.0499999999999974
 21
0.3699999999999999
 31
0.33
 12
-0.0499999999999974
 22
1.4299999999999999
 32
0.0699999999999998
 13
-0.1225999999999997
 23
1.4299999999999999
 33
0.0699999999999998
  0
3DFACE
  5
412
  8
TRAIL
 10
-0.0499999999999974
 20
0.3700000000000005
 30
0.2099999999999999
 11
-0.1720666666666666
 21
0.3699999999999999
 31
0.21
 12
-0.1225999999999998
 22
1.429999999999999
 32
-0.0100000000000016
 13
-0.0499999999999974
 23
1.429999999999999
 33
-0.0100000000000016
  0
3DFACE
  5
413
  8
TRAIL
 10
-0.0499999999999974
 20
0.2
 30
0.24
 11
-0.18
 21
0.2000000000000006
 31
0.24
 12
-0.1720666666666666
 22
0.3699999999999999
 32
0.21
 13
-0.0499999999999974
 23
0.3699999999999999
 33
0.21
  0
3DFACE
  5
414
  8
TRAIL
 10
-0.0499999999999974
 20
0.1999999999999993
 30
0.2400000000000001
 11
-0.1299999999999993
 21
0.1300000000000003
 31
0.24
 12
-0.18
 22
0.2000000000000006
 32
0.24
 13
-0.0499999999999974
 23
0.1999999999999993
 33
0.2400000000000001
  0
3DFACE
  5
415
  8
TRAIL
 10
-0.0499999999999974
 20
-0.0100000000000001
 30
0.24
 11
-0.1299999999999993
 21
-0.0100000000000001
 31
0.24
 12
-0.1299999999999993
 22
0.1300000000000003
 32
0.24
 13
-0.0499999999999974
 23
0.1999999999999993
 33
0.2400000000000001
  0
3DFACE
  5
416
  8
TRAIL
 10
-0.0499999999999974
 20
-0.0100000000000001
 30
0.35
 11
-0.1299999999999993
 21
-0.0100000000000001
 31
0.35
 12
-0.1299999999999993
 22
-0.0100000000000001
 32
0.24
 13
-0.0499999999999974
 23
-0.0100000000000001
 33
0.24
  0
3DFACE
  5
417
  8
TRAIL
 10
-0.0499999999999974
 20
0.1999999999999999
 30
0.35
 11
-0.1299999999999993
 21
0.1300000000000003
 31
0.35
 12
-0.1299999999999993
 22
-0.0100000000000001
 32
0.35
 13
-0.0499999999999974
 23
-0.0100000000000001
 33
0.35
  0
3DFACE
  5
418
  8
TRAIL
 10
-0.0499999999999974
 20
0.1999999999999999
 30
0.35
 11
-0.18
 21
0.1999999999999999
 31
0.35
 12
-0.1299999999999993
 22
0.1300000000000003
 32
0.35
 13
-0.0499999999999974
 23
0.1999999999999999
 33
0.35
  0
3DFACE
  5
419
  8
TRAIL
 10
-0.0499999999999974
 20
0.3699999999999999
 30
0.33
 11
-0.1720666666666666
 21
0.3699999999999999
 31
0.33
 12
-0.18
 22
0.1999999999999999
 32
0.35
 13
-0.0499999999999974
 23
0.1999999999999999
 33
0.35
  0
3DFACE
  5
41A
  8
TRAIL
 10
-0.0499999999999974
 20
0.1999999999999999
 30
0.35
 11
-0.0499999999999974
 21
-0.0100000000000001
 31
0.35
 12
-0.0499999999999974
 22
-0.0100000000000001
 32
0.24
 13
-0.0499999999999974
 23
0.1999999999999993
 33
0.2400000000000001
  0
3DFACE
  5
41B
  8
TRAIL
 10
-0.1299999999999993
 20
-0.0100000000000001
 30
0.35
 11
-0.1299999999999993
 21
0.1300000000000003
 31
0.35
 12
-0.1299999999999993
 22
0.1300000000000003
 32
0.24
 13
-0.1299999999999993
 23
-0.0100000000000001
 33
0.24
  0
3DFACE
  5
41C
  8
TRAIL
 10
-0.1299999999999993
 20
0.1300000000000003
 30
0.35
 11
-0.18
 21
0.1999999999999999
 31
0.35
 12
-0.18
 22
0.2000000000000006
 32
0.24
 13
-0.1299999999999993
 23
0.1300000000000004
 33
0.24
  0
3DFACE
  5
41D
  8
TRAIL
 10
-0.18
 20
0.1999999999999999
 30
0.35
 11
-0.1720666666666666
 21
0.3699999999999999
 31
0.33
 12
-0.1720666666666666
 22
0.3699999999999999
 32
0.21
 13
-0.18
 23
0.1999999999999999
 33
0.24
  0
3DFACE
  5
41E
  8
TRAIL
 10
-0.0499999999999974
 20
0.3699999999999999
 30
0.33
 11
-0.0499999999999974
 21
0.2
 31
0.3500000000000001
 12
-0.0499999999999974
 22
0.2
 32
0.2400000000000001
 13
-0.0499999999999974
 23
0.3699999999999999
 33
0.21
  0
3DFACE
  5
41F
  8
TRAIL
 10
-0.0499999999999974
 20
1.4299999999999959
 30
0.0700000000000008
 11
-0.0499999999999974
 21
0.3699999999999999
 31
0.33
 12
-0.0499999999999974
 22
0.369999999999999
 32
0.2100000000000001
 13
-0.0499999999999974
 23
1.4299999999999959
 33
0.0700000000000008
  0
3DFACE
  5
420
  8
TRAIL
 10
-0.1720666666666666
 20
0.3699999999999999
 30
0.33
 11
-0.1225999999999998
 21
1.429999999999999
 31
0.07
 12
-0.1225999999999998
 22
1.429999999999999
 32
0.07
 13
-0.1720666666666666
 23
0.3699999999999999
 33
0.21
  0
3DFACE
  5
421
  8
TRAIL
 10
-0.0099999999999983
 20
0.0799999999999996
 30
0.2499999999999989
 11
0.0500000000000005
 21
0.0299999999999989
 31
0.2499999999999989
 12
0.0500000000000005
 22
-0.0200000000000018
 32
0.2499999999999989
 13
0.0100000000000013
 23
-0.060000000000001
 33
0.2499999999999989
  0
3DFACE
  5
423
  8
TRAIL
 10
-0.0099999999999983
 20
0.0799999999999996
 30
0.2699999999999985
 11
0.0500000000000005
 21
0.0299999999999989
 31
0.2699999999999985
 12
0.0500000000000005
 22
0.0299999999999989
 32
0.2499999999999989
 13
-0.0099999999999983
 23
0.0799999999999996
 33
0.2499999999999989
  0
3DFACE
  5
424
  8
TRAIL
 10
0.0500000000000005
 20
-0.0200000000000018
 30
0.2699999999999985
 11
0.0500000000000005
 21
0.0299999999999989
 31
0.2699999999999985
 12
-0.0099999999999983
 22
0.0799999999999996
 32
0.2699999999999985
 13
0.0100000000000013
 23
-0.060000000000001
 33
0.2699999999999985
  0
3DFACE
  5
425
  8
TRAIL
 10
0.0100000000000013
 20
-0.060000000000001
 30
0.2499999999999989
 11
0.0500000000000005
 21
-0.0200000000000018
 31
0.2499999999999989
 12
0.0500000000000005
 22
-0.0200000000000018
 32
0.2699999999999985
 13
0.0100000000000013
 23
-0.060000000000001
 33
0.2699999999999985
  0
3DFACE
  5
426
  8
TRAIL
 10
-0.0499999999999974
 20
0.0799999999999996
 30
0.2499999999999989
 11
-0.0099999999999983
 21
0.0799999999999996
 31
0.2499999999999989
 12
0.0100000000000013
 22
-0.060000000000001
 32
0.2499999999999989
 13
-0.0499999999999974
 23
-0.060000000000001
 33
0.2499999999999989
  0
3DFACE
  5
427
  8
TRAIL
 10
-0.0499999999999974
 20
-0.060000000000001
 30
0.2499999999999989
 11
0.0100000000000013
 21
-0.060000000000001
 31
0.2499999999999989
 12
0.0100000000000013
 22
-0.060000000000001
 32
0.2699999999999985
 13
-0.0499999999999974
 23
-0.060000000000001
 33
0.2699999999999985
  0
3DFACE
  5
428
  8
TRAIL
 10
0.0100000000000013
 20
-0.060000000000001
 30
0.2699999999999985
 11
-0.0099999999999983
 21
0.0799999999999996
 31
0.2699999999999985
 12
-0.0499999999999974
 22
0.0799999999999996
 32
0.2699999999999985
 13
-0.0499999999999974
 23
-0.060000000000001
 33
0.2699999999999985
  0
3DFACE
  5
429
  8
TRAIL
 10
-0.0499999999999974
 20
0.0799999999999996
 30
0.2699999999999985
 11
-0.0099999999999983
 21
0.0799999999999996
 31
0.2699999999999985
 12
-0.0099999999999983
 22
0.0799999999999996
 32
0.2499999999999989
 13
-0.0499999999999974
 23
0.0799999999999996
 33
0.2499999999999989
  0
3DFACE
  5
42B
  8
TRAIL
 10
-0.0499999999999974
 20
-0.0100000000000001
 30
0.2499999999999989
 11
-0.0499999999999974
 21
-0.060000000000001
 31
0.2499999999999989
 12
-0.0499999999999974
 22
-0.060000000000001
 32
0.2699999999999985
 13
-0.0499999999999974
 23
-0.0100000000000001
 33
0.2699999999999985
  0
3DFACE
  5
49B
  8
TRAIL
 10
-0.07
 20
1.520162310096961
 30
0.0432852414527521
 11
-0.08
 21
1.529753597057931
 31
0.0404433786495018
 12
-0.08
 22
1.5422474487139151
 32
0.0870710678118658
 13
-0.07
 23
1.53
 33
0.0800000000000001
  0
3DFACE
  5
49C
  8
TRAIL
 10
-0.08
 20
1.529753597057931
 30
0.0404433786495018
 11
-0.09
 21
1.520162310096961
 31
0.0432852414527521
 12
-0.09
 22
1.53
 32
0.0800000000000001
 13
-0.08
 23
1.5422474487139151
 33
0.0870710678118658
  0
3DFACE
  5
49D
  8
TRAIL
 10
-0.09
 20
1.520162310096961
 30
0.0432852414527521
 11
-0.0799999999999996
 21
1.510571023135991
 31
0.0461271042560024
 12
-0.08
 22
1.5177525512860841
 32
0.0729289321881346
 13
-0.09
 23
1.53
 33
0.0800000000000001
  0
3DFACE
  5
49E
  8
TRAIL
 10
-0.0799999999999996
 20
1.510571023135991
 30
0.0461271042560024
 11
-0.07
 21
1.520162310096961
 31
0.0432852414527521
 12
-0.07
 22
1.53
 32
0.0800000000000001
 13
-0.08
 23
1.5177525512860841
 33
0.0729289321881346
  0
3DFACE
  5
49F
  8
TRAIL
 10
-0.07
 20
1.53
 30
0.0800000000000001
 11
-0.08
 21
1.5422474487139151
 31
0.0870710678118658
 12
-0.08
 22
1.3683807999818829
 32
0.1336584959303194
 13
-0.07
 23
1.3754518677937491
 33
0.1214110472164033
  0
3DFACE
  5
4A0
  8
TRAIL
 10
-0.08
 20
1.5422474487139151
 30
0.0870710678118658
 11
-0.09
 21
1.53
 31
0.0800000000000001
 12
-0.09
 22
1.3754518677937491
 32
0.1214110472164033
 13
-0.08
 23
1.3683807999818829
 33
0.1336584959303194
  0
3DFACE
  5
4A1
  8
TRAIL
 10
-0.09
 20
1.53
 30
0.0800000000000001
 11
-0.08
 21
1.5177525512860841
 31
0.0729289321881346
 12
-0.08
 22
1.3825229356056139
 32
0.1091635985024874
 13
-0.09
 23
1.3754518677937491
 33
0.1214110472164033
  0
3DFACE
  5
4A2
  8
TRAIL
 10
-0.08
 20
1.5177525512860841
 30
0.0729289321881346
 11
-0.07
 21
1.53
 31
0.0800000000000001
 12
-0.07
 22
1.3754518677937491
 32
0.1214110472164033
 13
-0.08
 23
1.3825229356056139
 33
0.1091635985024874
  0
3DFACE
  5
4A3
  8
TRAIL
 10
-0.0699999999999974
 20
1.365889855064905
 30
0.0857251298897401
 11
-0.0799999999999974
 21
1.375604159857414
 31
0.0833423758840304
 12
-0.08
 22
1.3825229356056139
 32
0.1091635985024874
 13
-0.07
 23
1.3754518677937491
 33
0.1214110472164033
  0
3DFACE
  5
4A4
  8
TRAIL
 10
-0.0799999999999974
 20
1.375604159857414
 30
0.0833423758840304
 11
-0.0899999999999974
 21
1.365889855064905
 31
0.0857251298897401
 12
-0.09
 22
1.3754518677937491
 32
0.1214110472164033
 13
-0.08
 23
1.3825229356056139
 33
0.1091635985024874
  0
3DFACE
  5
4A5
  8
TRAIL
 10
-0.0899999999999974
 20
1.365889855064905
 30
0.0857251298897401
 11
-0.0799999999999974
 21
1.356175550272396
 31
0.0881078838954498
 12
-0.08
 22
1.3683807999818829
 32
0.1336584959303194
 13
-0.09
 23
1.3754518677937491
 33
0.1214110472164033
  0
3DFACE
  5
4A6
  8
TRAIL
 10
-0.0799999999999974
 20
1.356175550272396
 30
0.0881078838954498
 11
-0.0699999999999974
 21
1.365889855064905
 31
0.0857251298897401
 12
-0.07
 22
1.3754518677937491
 32
0.1214110472164033
 13
-0.08
 23
1.3683807999818829
 33
0.1336584959303194
  0
VIEWPORT
  5
2E
 67
     1
  8
0
 10
144.7270812988281
 20
101.2295806407928
 30
0.0
 40
391.13550988316581
 41
222.15178063964839
 68
     2
 69
     1
1001
ACAD
1000
MVIEW
1002
{
1070
    16
1010
0.0
1020
0.0
1030
0.0
1010
0.0
1020
0.0
1030
1.0
1040
0.0
1040
222.15178063964839
1040
144.7270812988281
1040
101.2295806407928
1040
50.0
1040
0.0
1040
0.0
1070
     0
1070
   100
1070
     1
1070
     1
1070
     0
1070
     0
1070
     0
1070
     0
1040
0.0
1040
0.0
1040
0.0
1040
10.0
1040
10.0
1040
10.0
1040
10.0
1070
     0
1002
{
1002
}
1002
}
  0
VIEWPORT
  5
30
 67
     1
  8
0
 10
139.22375631332389
 20
100.8062499761581
 30
0.0
 40
222.75801010131829
 41
161.289999961853
 68
     1
 69
     2
1001
ACAD
1000
MVIEW
1002
{
1070
    16
1010
0.0
1020
0.0
1030
0.0
1010
0.0
1020
0.0
1030
1.0
1040
0.0
1040
307.49010134148989
1040
210.0
1040
148.5
1040
50.0
1040
0.0
1040
0.0
1070
     0
1070
   100
1070
     1
1070
     3
1070
     0
1070
     1
1070
     0
1070
     0
1040
0.0
1040
0.0
1040
0.0
1040
10.0
1040
10.0
1040
10.0
1040
10.0
1070
     0
1002
{
1002
}
1002
}
  0
ENDSEC
  0
EOF
