  0
SECTION
  2
HEADER
  9
$ACADVER
  1
AC1009
  9
$INSBASE
 10
0.0
 20
0.0
 30
0.0
  9
$EXTMIN
 10
-1.9900000000000011
 20
-40.25
 30
-11.880000000000001
  9
$EXTMAX
 10
3.0
 20
42.389999999999993
 30
13.82014512785072
  9
$LIMMIN
 10
0.0
 20
0.0
  9
$LIMMAX
 10
420.0
 20
297.0
  9
$ORTHOMODE
 70
     1
  9
$REGENMODE
 70
     1
  9
$FILLMODE
 70
     1
  9
$QTEXTMODE
 70
     0
  9
$MIRRTEXT
 70
     1
  9
$DRAGMODE
 70
     0
  9
$LTSCALE
 40
1.0
  9
$OSMODE
 70
   551
  9
$ATTMODE
 70
     1
  9
$TEXTSIZE
 40
2.5
  9
$TRACEWID
 40
1.0
  9
$TEXTSTYLE
  7
STANDARD
  9
$CLAYER
  8
RAILINGS
  9
$CELTYPE
  6
BYLAYER
  9
$CECOLOR
 62
   256
  9
$DIMSCALE
 40
1.0
  9
$DIMASZ
 40
2.5
  9
$DIMEXO
 40
0.625
  9
$DIMDLI
 40
3.75
  9
$DIMRND
 40
0.0
  9
$DIMDLE
 40
0.0
  9
$DIMEXE
 40
1.25
  9
$DIMTP
 40
0.0
  9
$DIMTM
 40
0.0
  9
$DIMTXT
 40
2.5
  9
$DIMCEN
 40
2.5
  9
$DIMTSZ
 40
0.0
  9
$DIMTOL
 70
     0
  9
$DIMLIM
 70
     0
  9
$DIMTIH
 70
     0
  9
$DIMTOH
 70
     0
  9
$DIMSE1
 70
     0
  9
$DIMSE2
 70
     0
  9
$DIMTAD
 70
     1
  9
$DIMZIN
 70
     8
  9
$DIMBLK
  1

  9
$DIMASO
 70
     1
  9
$DIMSHO
 70
     1
  9
$DIMPOST
  1

  9
$DIMAPOST
  1

  9
$DIMALT
 70
     0
  9
$DIMALTD
 70
     3
  9
$DIMALTF
 40
0.03937007874016
  9
$DIMLFAC
 40
1.0
  9
$DIMTOFL
 70
     1
  9
$DIMTVP
 40
0.0
  9
$DIMTIX
 70
     0
  9
$DIMSOXD
 70
     0
  9
$DIMSAH
 70
     0
  9
$DIMBLK1
  1

  9
$DIMBLK2
  1

  9
$DIMSTYLE
  2
ISO-25
  9
$DIMCLRD
 70
     0
  9
$DIMCLRE
 70
     0
  9
$DIMCLRT
 70
     0
  9
$DIMTFAC
 40
1.0
  9
$DIMGAP
 40
0.625
  9
$LUNITS
 70
     2
  9
$LUPREC
 70
     4
  9
$SKETCHINC
 40
1.0
  9
$FILLETRAD
 40
10.0
  9
$AUNITS
 70
     0
  9
$AUPREC
 70
     0
  9
$MENU
  1
.
  9
$ELEVATION
 40
0.0
  9
$PELEVATION
 40
0.0
  9
$THICKNESS
 40
0.0
  9
$LIMCHECK
 70
     0
  9
$BLIPMODE
 70
     0
  9
$CHAMFERA
 40
10.0
  9
$CHAMFERB
 40
10.0
  9
$SKPOLY
 70
     0
  9
$TDCREATE
 40
2454548.5817007981
  9
$TDUPDATE
 40
2454551.8167508328
  9
$TDINDWG
 40
0.4551197222
  9
$TDUSRTIMER
 40
0.4551197222
  9
$USRTIMER
 70
     1
  9
$ANGBASE
 50
0.0
  9
$ANGDIR
 70
     0
  9
$PDMODE
 70
     0
  9
$PDSIZE
 40
0.0
  9
$PLINEWID
 40
0.0
  9
$COORDS
 70
     1
  9
$SPLFRAME
 70
     0
  9
$SPLINETYPE
 70
     6
  9
$SPLINESEGS
 70
     8
  9
$ATTDIA
 70
     1
  9
$ATTREQ
 70
     1
  9
$HANDLING
 70
-16383
  9
$HANDSEED
  5
E20
  9
$SURFTAB1
 70
     6
  9
$SURFTAB2
 70
     6
  9
$SURFTYPE
 70
     6
  9
$SURFU
 70
     6
  9
$SURFV
 70
     6
  9
$UCSNAME
  2

  9
$UCSORG
 10
0.0
 20
0.0
 30
0.0
  9
$UCSXDIR
 10
1.0
 20
0.0
 30
0.0
  9
$UCSYDIR
 10
0.0
 20
1.0
 30
0.0
  9
$PUCSNAME
  2

  9
$PUCSORG
 10
0.0
 20
0.0
 30
0.0
  9
$PUCSXDIR
 10
1.0
 20
0.0
 30
0.0
  9
$PUCSYDIR
 10
0.0
 20
1.0
 30
0.0
  9
$USERI1
 70
     0
  9
$USERI2
 70
     0
  9
$USERI3
 70
     0
  9
$USERI4
 70
     0
  9
$USERI5
 70
     0
  9
$USERR1
 40
0.0
  9
$USERR2
 40
0.0
  9
$USERR3
 40
0.0
  9
$USERR4
 40
0.0
  9
$USERR5
 40
0.0
  9
$WORLDVIEW
 70
     1
  9
$SHADEDGE
 70
     3
  9
$SHADEDIF
 70
    70
  9
$TILEMODE
 70
     1
  9
$MAXACTVP
 70
    64
  9
$PLIMCHECK
 70
     0
  9
$PEXTMIN
 10
27.844751262664801
 20
20.161249995231621
 30
0.0
  9
$PEXTMAX
 10
250.60276136398309
 20
181.4512499570846
 30
0.0
  9
$PLIMMIN
 10
-3.757080078125
 20
-3.7570831775665279
  9
$PLIMMAX
 10
293.21124267578119
 20
206.21624445915219
  9
$UNITMODE
 70
     0
  9
$VISRETAIN
 70
     1
  9
$PLINEGEN
 70
     0
  9
$PSLTSCALE
 70
     1
  0
ENDSEC
  0
SECTION
  2
TABLES
  0
TABLE
  2
VPORT
 70
    10
  0
VPORT
  2
*ACTIVE
 70
     0
 10
0.0
 20
0.0
 11
1.0
 21
1.0
 12
66.921627696587166
 22
-52.668373630030302
 13
0.0
 23
0.0
 14
0.01
 24
0.01
 15
1.0
 25
1.0
 16
0.0
 26
0.0
 36
1.0
 17
0.0
 27
0.0
 37
0.0
 40
208.42757936403271
 41
1.6612612612612609
 42
50.0
 43
0.0
 44
0.0
 50
0.0
 51
0.0
 71
     0
 72
   100
 73
     1
 74
     3
 75
     1
 76
     1
 77
     0
 78
     0
  0
ENDTAB
  0
TABLE
  2
LTYPE
 70
     1
  0
LTYPE
  2
CONTINUOUS
 70
     0
  3
Solid line
 72
    65
 73
     0
 40
0.0
  0
ENDTAB
  0
TABLE
  2
LAYER
 70
     8
  0
LAYER
  2
0
 70
     0
 62
     7
  6
CONTINUOUS
  0
LAYER
  2
DRAWING
 70
     0
 62
     9
  6
CONTINUOUS
  0
LAYER
  2
HULL_ADDONS
 70
     0
 62
     6
  6
CONTINUOUS
  0
LAYER
  2
TURRET
 70
     0
 62
     2
  6
CONTINUOUS
  0
LAYER
  2
GUN
 70
     0
 62
     1
  6
CONTINUOUS
  0
LAYER
  2
MOUNT
 70
     0
 62
     2
  6
CONTINUOUS
  0
LAYER
  2
SLEEVE
 70
     0
 62
     5
  6
CONTINUOUS
  0
LAYER
  2
RAILINGS
 70
     4
 62
     3
  6
CONTINUOUS
  0
ENDTAB
  0
TABLE
  2
STYLE
 70
     1
  0
STYLE
  2
STANDARD
 70
     0
 40
0.0
 41
1.0
 50
0.0
 71
     0
 42
2.5
  3
txt
  4

  0
ENDTAB
  0
TABLE
  2
VIEW
 70
     0
  0
ENDTAB
  0
TABLE
  2
UCS
 70
     0
  0
ENDTAB
  0
TABLE
  2
APPID
 70
     1
  0
APPID
  2
ACAD
 70
     0
  0
ENDTAB
  0
TABLE
  2
DIMSTYLE
 70
     1
  0
DIMSTYLE
  2
ISO-25
 70
     0
  3

  4

  5

  6

  7

 40
1.0
 41
2.5
 42
0.625
 43
3.75
 44
1.25
 45
0.0
 46
0.0
 47
0.0
 48
0.0
140
2.5
141
2.5
142
0.0
143
0.03937007874016
144
1.0
145
0.0
146
1.0
147
0.625
 71
     0
 72
     0
 73
     0
 74
     0
 75
     0
 76
     0
 77
     1
 78
     8
170
     0
171
     3
172
     1
173
     0
174
     0
175
     0
176
     0
177
     0
178
     0
  0
ENDTAB
  0
ENDSEC
  0
SECTION
  2
BLOCKS
  0
BLOCK
  8
0
  2
$MODEL_SPACE
 70
     0
 10
0.0
 20
0.0
 30
0.0
  3
$MODEL_SPACE
  1

  0
ENDBLK
  5
21
  8
0
  0
BLOCK
 67
     1
  8
0
  2
$PAPER_SPACE
 70
     0
 10
0.0
 20
0.0
 30
0.0
  3
$PAPER_SPACE
  1

  0
ENDBLK
  5
1D
 67
     1
  8
0
  0
ENDSEC
  0
SECTION
  2
ENTITIES
  0
3DFACE
  5
DB0
  8
RAILINGS
 10
-1.830000000000001
 20
-10.36999999999999
 30
1.0800000000000001
 11
-1.830000000000001
 21
-10.300000000000001
 31
1.0800000000000001
 12
-1.830000000000001
 22
-10.300000000000001
 32
2.0299999999999989
 13
-1.830000000000001
 23
-10.36999999999999
 33
2.0299999999999989
  0
3DFACE
  5
DB1
  8
RAILINGS
 10
-1.830000000000001
 20
-10.36999999999999
 30
2.0299999999999989
 11
-1.830000000000001
 21
-10.300000000000001
 31
2.0299999999999989
 12
-1.830000000000001
 22
-10.300000000000001
 32
1.0800000000000001
 13
-1.830000000000001
 23
-10.36999999999999
 33
1.0800000000000001
  0
3DFACE
  5
DB3
  8
RAILINGS
 10
-1.7500000000000011
 20
-12.19
 30
1.0800000000000001
 11
-1.7500000000000011
 21
-12.11999999999999
 31
1.0800000000000001
 12
-1.7500000000000011
 22
-12.11999999999999
 32
2.0299999999999989
 13
-1.7500000000000011
 23
-12.19
 33
2.0299999999999989
  0
3DFACE
  5
DB4
  8
RAILINGS
 10
-1.7500000000000011
 20
-12.19
 30
2.0299999999999989
 11
-1.7500000000000011
 21
-12.11999999999999
 31
2.0299999999999989
 12
-1.7500000000000011
 22
-12.11999999999999
 32
1.0800000000000001
 13
-1.7500000000000011
 23
-12.19
 33
1.0800000000000001
  0
3DFACE
  5
DB5
  8
RAILINGS
 10
-1.890000000000001
 20
-8.5099999999999998
 30
1.0800000000000001
 11
-1.890000000000001
 21
-8.4399999999999995
 31
1.0800000000000001
 12
-1.890000000000001
 22
-8.4399999999999995
 32
2.0299999999999989
 13
-1.890000000000001
 23
-8.5099999999999998
 33
2.0299999999999989
  0
3DFACE
  5
DB6
  8
RAILINGS
 10
-1.890000000000001
 20
-8.5099999999999998
 30
2.0299999999999989
 11
-1.890000000000001
 21
-8.4399999999999995
 31
2.0299999999999989
 12
-1.890000000000001
 22
-8.4399999999999995
 32
1.0800000000000001
 13
-1.890000000000001
 23
-8.5099999999999998
 33
1.0800000000000001
  0
3DFACE
  5
DB7
  8
RAILINGS
 10
-1.9400000000000011
 20
-6.7099999999999991
 30
2.0299999999999989
 11
-1.9400000000000011
 21
-6.6399999999999979
 31
2.0299999999999989
 12
-1.9400000000000011
 22
-6.6399999999999979
 32
1.0800000000000001
 13
-1.9400000000000011
 23
-6.7099999999999991
 33
1.0800000000000001
  0
3DFACE
  5
DB8
  8
RAILINGS
 10
-1.9400000000000011
 20
-6.7099999999999991
 30
1.0800000000000001
 11
-1.9400000000000011
 21
-6.6399999999999979
 31
1.0800000000000001
 12
-1.9400000000000011
 22
-6.6399999999999979
 32
2.0299999999999989
 13
-1.9400000000000011
 23
-6.7099999999999991
 33
2.0299999999999989
  0
3DFACE
  5
DB9
  8
RAILINGS
 10
-1.96
 20
-4.8899999999999979
 30
1.0800000000000001
 11
-1.96
 21
-4.8199999999999976
 31
1.0800000000000001
 12
-1.96
 22
-4.8199999999999976
 32
2.0299999999999989
 13
-1.96
 23
-4.8899999999999979
 33
2.0299999999999989
  0
3DFACE
  5
DBA
  8
RAILINGS
 10
-1.96
 20
-4.8899999999999979
 30
2.0299999999999989
 11
-1.96
 21
-4.8199999999999976
 31
2.0299999999999989
 12
-1.96
 22
-4.8199999999999976
 32
1.0800000000000001
 13
-1.96
 23
-4.8899999999999979
 33
1.0800000000000001
  0
3DFACE
  5
DBB
  8
RAILINGS
 10
-1.96
 20
-3.0699999999999981
 30
2.0299999999999989
 11
-1.96
 21
-2.9999999999999969
 31
2.0299999999999989
 12
-1.96
 22
-2.9999999999999969
 32
1.0800000000000001
 13
-1.96
 23
-3.0699999999999981
 33
1.0800000000000001
  0
3DFACE
  5
DBC
  8
RAILINGS
 10
-1.96
 20
-3.0699999999999981
 30
1.0800000000000001
 11
-1.96
 21
-2.9999999999999969
 31
1.0800000000000001
 12
-1.96
 22
-2.9999999999999969
 32
2.0299999999999989
 13
-1.96
 23
-3.0699999999999981
 33
2.0299999999999989
  0
3DFACE
  5
DBD
  8
RAILINGS
 10
-1.96
 20
-1.2499999999999989
 30
1.0800000000000001
 11
-1.96
 21
-1.179999999999999
 31
1.0800000000000001
 12
-1.96
 22
-1.179999999999999
 32
2.0199999999999991
 13
-1.96
 23
-1.2499999999999989
 33
2.0199999999999991
  0
3DFACE
  5
DBE
  8
RAILINGS
 10
-1.96
 20
-1.2499999999999989
 30
2.0199999999999991
 11
-1.96
 21
-1.179999999999999
 31
2.0199999999999991
 12
-1.96
 22
-1.179999999999999
 32
1.0800000000000001
 13
-1.96
 23
-1.2499999999999989
 33
1.0800000000000001
  0
3DFACE
  5
DBF
  8
RAILINGS
 10
-1.96
 20
0.5600000000000011
 30
2.0199999999999991
 11
-1.96
 21
0.6300000000000013
 31
2.0199999999999991
 12
-1.96
 22
0.6300000000000013
 32
1.0800000000000001
 13
-1.96
 23
0.5600000000000011
 33
1.0800000000000001
  0
3DFACE
  5
DC0
  8
RAILINGS
 10
-1.96
 20
0.5600000000000011
 30
1.0800000000000001
 11
-1.96
 21
0.6300000000000013
 31
1.0800000000000001
 12
-1.96
 22
0.6300000000000013
 32
2.0199999999999991
 13
-1.96
 23
0.5600000000000011
 33
2.0199999999999991
  0
3DFACE
  5
DC1
  8
RAILINGS
 10
-1.9599999999999991
 20
2.3600000000000012
 30
1.0800000000000001
 11
-1.9599999999999991
 21
2.430000000000001
 31
1.0800000000000001
 12
-1.9599999999999991
 22
2.430000000000001
 32
2.0
 13
-1.9599999999999991
 23
2.3600000000000012
 33
2.0
  0
3DFACE
  5
DC2
  8
RAILINGS
 10
-1.9599999999999991
 20
2.3600000000000012
 30
2.0
 11
-1.9599999999999991
 21
2.430000000000001
 31
2.0
 12
-1.9599999999999991
 22
2.430000000000001
 32
1.0800000000000001
 13
-1.9599999999999991
 23
2.3600000000000012
 33
1.0800000000000001
  0
3DFACE
  5
DC3
  8
RAILINGS
 10
-1.9599999999999991
 20
4.2000000000000011
 30
1.979999999999998
 11
-1.9599999999999991
 21
4.2700000000000014
 31
1.979999999999998
 12
-1.9599999999999991
 22
4.2700000000000014
 32
1.0800000000000001
 13
-1.9599999999999991
 23
4.2000000000000011
 33
1.0800000000000001
  0
3DFACE
  5
DC4
  8
RAILINGS
 10
-1.9599999999999991
 20
4.2000000000000011
 30
1.0800000000000001
 11
-1.9599999999999991
 21
4.2700000000000014
 31
1.0800000000000001
 12
-1.9599999999999991
 22
4.2700000000000014
 32
1.979999999999998
 13
-1.9599999999999991
 23
4.2000000000000011
 33
1.979999999999998
  0
3DFACE
  5
DC5
  8
RAILINGS
 10
-1.879999999999999
 20
6.0999999999999988
 30
1.0800000000000001
 11
-1.879999999999999
 21
6.169999999999999
 31
1.0800000000000001
 12
-1.879999999999999
 22
6.169999999999999
 32
1.99
 13
-1.879999999999999
 23
6.0999999999999988
 33
1.99
  0
3DFACE
  5
DC6
  8
RAILINGS
 10
-1.879999999999999
 20
6.0999999999999988
 30
1.99
 11
-1.879999999999999
 21
6.169999999999999
 31
1.99
 12
-1.879999999999999
 22
6.169999999999999
 32
1.0800000000000001
 13
-1.879999999999999
 23
6.0999999999999988
 33
1.0800000000000001
  0
3DFACE
  5
DC7
  8
RAILINGS
 10
-1.96
 20
-4.8199999999999976
 30
1.9599999999999991
 11
-1.96
 21
-4.8199999999999976
 31
1.99
 12
-1.9599999999999991
 22
4.2000000000000011
 32
1.9399999999999991
 13
-1.9599999999999991
 23
4.2000000000000011
 33
1.919999999999999
  0
3DFACE
  5
DC8
  8
RAILINGS
 10
-1.9599999999999991
 20
4.2000000000000011
 30
1.919999999999999
 11
-1.9599999999999991
 21
4.2000000000000011
 31
1.9399999999999991
 12
-1.96
 22
-4.8199999999999976
 32
1.99
 13
-1.96
 23
-4.8199999999999976
 33
1.9599999999999991
  0
3DFACE
  5
DC9
  8
RAILINGS
 10
-1.96
 20
-4.8899999999999979
 30
1.9599999999999991
 11
-1.96
 21
-4.8899999999999979
 31
1.99
 12
-1.9399999999999999
 22
-6.6399999999999979
 32
1.99
 13
-1.9399999999999999
 23
-6.6399999999999979
 33
1.9599999999999991
  0
3DFACE
  5
DCA
  8
RAILINGS
 10
-1.9399999999999999
 20
-6.6399999999999979
 30
1.9599999999999991
 11
-1.9399999999999999
 21
-6.6399999999999979
 31
1.99
 12
-1.96
 22
-4.8899999999999979
 32
1.99
 13
-1.96
 23
-4.8899999999999979
 33
1.9599999999999991
  0
3DFACE
  5
DCB
  8
RAILINGS
 10
-1.8899999999999999
 20
-8.4399999999999995
 30
1.9599999999999991
 11
-1.8899999999999999
 21
-8.4399999999999995
 31
1.99
 12
-1.9400000000000011
 22
-6.7099999999999991
 32
1.99
 13
-1.9400000000000011
 23
-6.7099999999999991
 33
1.9599999999999991
  0
3DFACE
  5
DCC
  8
RAILINGS
 10
-1.9400000000000011
 20
-6.7099999999999991
 30
1.9599999999999991
 11
-1.9400000000000011
 21
-6.7099999999999991
 31
1.99
 12
-1.8899999999999999
 22
-8.4399999999999995
 32
1.99
 13
-1.8899999999999999
 23
-8.4399999999999995
 33
1.9599999999999991
  0
3DFACE
  5
DCD
  8
RAILINGS
 10
-1.890000000000001
 20
-8.5099999999999998
 30
1.9599999999999991
 11
-1.890000000000001
 21
-8.5099999999999998
 31
1.99
 12
-1.8300000000000001
 22
-10.300000000000001
 32
1.99
 13
-1.8300000000000001
 23
-10.300000000000001
 33
1.9599999999999991
  0
3DFACE
  5
DCE
  8
RAILINGS
 10
-1.8300000000000001
 20
-10.300000000000001
 30
1.9599999999999991
 11
-1.8300000000000001
 21
-10.300000000000001
 31
1.99
 12
-1.890000000000001
 22
-8.5099999999999998
 32
1.99
 13
-1.890000000000001
 23
-8.5099999999999998
 33
1.9599999999999991
  0
3DFACE
  5
DCF
  8
RAILINGS
 10
-1.830000000000001
 20
-10.36999999999999
 30
1.9599999999999991
 11
-1.830000000000001
 21
-10.36999999999999
 31
1.99
 12
-1.75
 22
-12.11999999999999
 32
1.99
 13
-1.75
 23
-12.11999999999999
 33
1.9599999999999991
  0
3DFACE
  5
DD0
  8
RAILINGS
 10
-1.75
 20
-12.11999999999999
 30
1.9599999999999991
 11
-1.75
 21
-12.11999999999999
 31
1.99
 12
-1.830000000000001
 22
-10.36999999999999
 32
1.99
 13
-1.830000000000001
 23
-10.36999999999999
 33
1.9599999999999991
  0
3DFACE
  5
DD1
  8
RAILINGS
 10
-1.959999999999998
 20
4.2700000000000014
 30
1.929999999999999
 11
-1.959999999999998
 21
4.2700000000000014
 31
1.9599999999999991
 12
-1.8799999999999979
 22
6.0999999999999988
 32
1.9399999999999991
 13
-1.8799999999999979
 23
6.0999999999999988
 33
1.9099999999999999
  0
3DFACE
  5
DD2
  8
RAILINGS
 10
-1.8799999999999979
 20
6.0999999999999988
 30
1.9099999999999999
 11
-1.8799999999999979
 21
6.0999999999999988
 31
1.9399999999999991
 12
-1.959999999999998
 22
4.2700000000000014
 32
1.9599999999999991
 13
-1.959999999999998
 23
4.2700000000000014
 33
1.929999999999999
  0
3DFACE
  5
DD3
  8
RAILINGS
 10
-1.769999999999998
 20
8.7200000000000006
 30
1.4099999999999999
 11
-1.769999999999998
 21
8.7300000000000058
 31
1.4499999999999991
 12
-1.8799999999999979
 22
6.169999999999999
 32
1.9399999999999991
 13
-1.8799999999999979
 23
6.169999999999999
 33
1.9099999999999999
  0
3DFACE
  5
DD4
  8
RAILINGS
 10
-1.8799999999999979
 20
6.169999999999999
 30
1.9099999999999999
 11
-1.8799999999999979
 21
6.169999999999999
 31
1.9399999999999991
 12
-1.769999999999998
 22
8.7300000000000058
 32
1.4499999999999991
 13
-1.769999999999998
 23
8.7200000000000006
 33
1.4099999999999999
  0
3DFACE
  5
DD6
  8
RAILINGS
 10
1.829999999999999
 20
-10.300000000000001
 30
1.9599999999999991
 11
1.829999999999999
 21
-10.300000000000001
 31
1.99
 12
1.8899999999999999
 22
-8.5099999999999998
 32
1.99
 13
1.8899999999999999
 23
-8.5099999999999998
 33
1.9599999999999991
  0
3DFACE
  5
DD7
  8
RAILINGS
 10
1.8899999999999999
 20
-8.5099999999999998
 30
1.9599999999999991
 11
1.8899999999999999
 21
-8.5099999999999998
 31
1.99
 12
1.829999999999999
 22
-10.300000000000001
 32
1.99
 13
1.829999999999999
 23
-10.300000000000001
 33
1.9599999999999991
  0
3DFACE
  5
DD8
  8
RAILINGS
 10
1.9600000000000011
 20
4.2000000000000011
 30
1.919999999999999
 11
1.9600000000000011
 21
4.2000000000000011
 31
1.9399999999999991
 12
1.96
 22
-4.8199999999999976
 32
1.99
 13
1.96
 23
-4.8199999999999976
 33
1.9599999999999991
  0
3DFACE
  5
DD9
  8
RAILINGS
 10
1.96
 20
-4.8199999999999976
 30
1.9599999999999991
 11
1.96
 21
-4.8199999999999976
 31
1.99
 12
1.9600000000000011
 22
4.2000000000000011
 32
1.9399999999999991
 13
1.9600000000000011
 23
4.2000000000000011
 33
1.919999999999999
  0
3DFACE
  5
DDA
  8
RAILINGS
 10
1.880000000000001
 20
6.169999999999999
 30
1.9099999999999999
 11
1.880000000000001
 21
6.169999999999999
 31
1.9399999999999991
 12
1.7700000000000009
 22
8.7300000000000058
 32
1.4499999999999991
 13
1.7700000000000009
 23
8.7200000000000006
 33
1.4099999999999999
  0
3DFACE
  5
DDB
  8
RAILINGS
 10
1.7700000000000009
 20
8.7200000000000006
 30
1.4099999999999999
 11
1.7700000000000009
 21
8.7300000000000058
 31
1.4499999999999991
 12
1.880000000000001
 22
6.169999999999999
 32
1.9399999999999991
 13
1.880000000000001
 23
6.169999999999999
 33
1.9099999999999999
  0
3DFACE
  5
DDC
  8
RAILINGS
 10
1.8800000000000019
 20
6.0999999999999988
 30
1.99
 11
1.8800000000000019
 21
6.169999999999999
 31
1.99
 12
1.8800000000000019
 22
6.169999999999999
 32
1.0800000000000001
 13
1.8800000000000019
 23
6.0999999999999988
 33
1.0800000000000001
  0
3DFACE
  5
DDD
  8
RAILINGS
 10
1.8800000000000019
 20
6.0999999999999988
 30
1.0800000000000001
 11
1.8800000000000019
 21
6.169999999999999
 31
1.0800000000000001
 12
1.8800000000000019
 22
6.169999999999999
 32
1.99
 13
1.8800000000000019
 23
6.0999999999999988
 33
1.99
  0
3DFACE
  5
DDE
  8
RAILINGS
 10
1.9600000000000011
 20
4.2000000000000011
 30
1.0800000000000001
 11
1.960000000000002
 21
4.2700000000000014
 31
1.0800000000000001
 12
1.960000000000002
 22
4.2700000000000014
 32
1.979999999999998
 13
1.9600000000000011
 23
4.2000000000000011
 33
1.979999999999998
  0
3DFACE
  5
DDF
  8
RAILINGS
 10
1.9600000000000011
 20
4.2000000000000011
 30
1.979999999999998
 11
1.960000000000002
 21
4.2700000000000014
 31
1.979999999999998
 12
1.960000000000002
 22
4.2700000000000014
 32
1.0800000000000001
 13
1.9600000000000011
 23
4.2000000000000011
 33
1.0800000000000001
  0
3DFACE
  5
DE0
  8
RAILINGS
 10
1.880000000000001
 20
6.0999999999999988
 30
1.9099999999999999
 11
1.880000000000001
 21
6.0999999999999988
 31
1.9399999999999991
 12
1.9600000000000011
 22
4.2700000000000014
 32
1.9599999999999991
 13
1.9600000000000011
 23
4.2700000000000014
 33
1.929999999999999
  0
3DFACE
  5
DE1
  8
RAILINGS
 10
1.9600000000000011
 20
4.2700000000000014
 30
1.929999999999999
 11
1.9600000000000011
 21
4.2700000000000014
 31
1.9599999999999991
 12
1.880000000000001
 22
6.0999999999999988
 32
1.9399999999999991
 13
1.880000000000001
 23
6.0999999999999988
 33
1.9099999999999999
  0
3DFACE
  5
DE2
  8
RAILINGS
 10
1.8899999999999999
 20
-8.5099999999999998
 30
1.0800000000000001
 11
1.8899999999999999
 21
-8.4399999999999995
 31
1.0800000000000001
 12
1.8899999999999999
 22
-8.4399999999999995
 32
2.0299999999999989
 13
1.8899999999999999
 23
-8.5099999999999998
 33
2.0299999999999989
  0
3DFACE
  5
DE3
  8
RAILINGS
 10
1.8899999999999999
 20
-8.5099999999999998
 30
2.0299999999999989
 11
1.8899999999999999
 21
-8.4399999999999995
 31
2.0299999999999989
 12
1.8899999999999999
 22
-8.4399999999999995
 32
1.0800000000000001
 13
1.8899999999999999
 23
-8.5099999999999998
 33
1.0800000000000001
  0
3DFACE
  5
DE4
  8
RAILINGS
 10
1.9399999999999999
 20
-6.7099999999999991
 30
2.0299999999999989
 11
1.9399999999999999
 21
-6.6399999999999979
 31
2.0299999999999989
 12
1.9399999999999999
 22
-6.6399999999999979
 32
1.0800000000000001
 13
1.9399999999999999
 23
-6.7099999999999991
 33
1.0800000000000001
  0
3DFACE
  5
DE5
  8
RAILINGS
 10
1.9399999999999999
 20
-6.7099999999999991
 30
1.0800000000000001
 11
1.9399999999999999
 21
-6.6399999999999979
 31
1.0800000000000001
 12
1.9399999999999999
 22
-6.6399999999999979
 32
2.0299999999999989
 13
1.9399999999999999
 23
-6.7099999999999991
 33
2.0299999999999989
  0
3DFACE
  5
DE6
  8
RAILINGS
 10
1.9600000000000011
 20
-1.2499999999999989
 30
1.0800000000000001
 11
1.9600000000000011
 21
-1.179999999999999
 31
1.0800000000000001
 12
1.9600000000000011
 22
-1.179999999999999
 32
2.0199999999999991
 13
1.9600000000000011
 23
-1.2499999999999989
 33
2.0199999999999991
  0
3DFACE
  5
DE7
  8
RAILINGS
 10
1.9600000000000011
 20
-1.2499999999999989
 30
2.0199999999999991
 11
1.9600000000000011
 21
-1.179999999999999
 31
2.0199999999999991
 12
1.9600000000000011
 22
-1.179999999999999
 32
1.0800000000000001
 13
1.9600000000000011
 23
-1.2499999999999989
 33
1.0800000000000001
  0
3DFACE
  5
DE8
  8
RAILINGS
 10
1.9600000000000011
 20
0.5600000000000011
 30
2.0199999999999991
 11
1.9600000000000011
 21
0.6300000000000013
 31
2.0199999999999991
 12
1.9600000000000011
 22
0.6300000000000013
 32
1.0800000000000001
 13
1.9600000000000011
 23
0.5600000000000011
 33
1.0800000000000001
  0
3DFACE
  5
DE9
  8
RAILINGS
 10
1.9600000000000011
 20
0.5600000000000011
 30
1.0800000000000001
 11
1.9600000000000011
 21
0.6300000000000013
 31
1.0800000000000001
 12
1.9600000000000011
 22
0.6300000000000013
 32
2.0199999999999991
 13
1.9600000000000011
 23
0.5600000000000011
 33
2.0199999999999991
  0
3DFACE
  5
DEA
  8
RAILINGS
 10
1.9600000000000011
 20
2.3600000000000012
 30
1.0800000000000001
 11
1.9600000000000011
 21
2.430000000000001
 31
1.0800000000000001
 12
1.9600000000000011
 22
2.430000000000001
 32
2.0
 13
1.9600000000000011
 23
2.3600000000000012
 33
2.0
  0
3DFACE
  5
DEB
  8
RAILINGS
 10
1.9600000000000011
 20
2.3600000000000012
 30
2.0
 11
1.9600000000000011
 21
2.430000000000001
 31
2.0
 12
1.9600000000000011
 22
2.430000000000001
 32
1.0800000000000001
 13
1.9600000000000011
 23
2.3600000000000012
 33
1.0800000000000001
  0
3DFACE
  5
DEC
  8
RAILINGS
 10
1.9600000000000011
 20
-3.0699999999999981
 30
1.0800000000000001
 11
1.9600000000000011
 21
-2.9999999999999969
 31
1.0800000000000001
 12
1.9600000000000011
 22
-2.9999999999999969
 32
2.0299999999999989
 13
1.9600000000000011
 23
-3.0699999999999981
 33
2.0299999999999989
  0
3DFACE
  5
DED
  8
RAILINGS
 10
1.9600000000000011
 20
-3.0699999999999981
 30
2.0299999999999989
 11
1.9600000000000011
 21
-2.9999999999999969
 31
2.0299999999999989
 12
1.9600000000000011
 22
-2.9999999999999969
 32
1.0800000000000001
 13
1.9600000000000011
 23
-3.0699999999999981
 33
1.0800000000000001
  0
3DFACE
  5
DEE
  8
RAILINGS
 10
1.96
 20
-4.8899999999999979
 30
2.0299999999999989
 11
1.96
 21
-4.8199999999999976
 31
2.0299999999999989
 12
1.96
 22
-4.8199999999999976
 32
1.0800000000000001
 13
1.96
 23
-4.8899999999999979
 33
1.0800000000000001
  0
3DFACE
  5
DEF
  8
RAILINGS
 10
1.96
 20
-4.8899999999999979
 30
1.0800000000000001
 11
1.96
 21
-4.8199999999999976
 31
1.0800000000000001
 12
1.96
 22
-4.8199999999999976
 32
2.0299999999999989
 13
1.96
 23
-4.8899999999999979
 33
2.0299999999999989
  0
3DFACE
  5
DF0
  8
RAILINGS
 10
1.889999999999999
 20
-8.4399999999999995
 30
1.9599999999999991
 11
1.889999999999999
 21
-8.4399999999999995
 31
1.99
 12
1.9399999999999999
 22
-6.7099999999999991
 32
1.99
 13
1.9399999999999999
 23
-6.7099999999999991
 33
1.9599999999999991
  0
3DFACE
  5
DF1
  8
RAILINGS
 10
1.9399999999999999
 20
-6.7099999999999991
 30
1.9599999999999991
 11
1.9399999999999999
 21
-6.7099999999999991
 31
1.99
 12
1.889999999999999
 22
-8.4399999999999995
 32
1.99
 13
1.889999999999999
 23
-8.4399999999999995
 33
1.9599999999999991
  0
3DFACE
  5
DF2
  8
RAILINGS
 10
1.96
 20
-4.8899999999999979
 30
1.9599999999999991
 11
1.96
 21
-4.8899999999999979
 31
1.99
 12
1.9399999999999991
 22
-6.6399999999999979
 32
1.99
 13
1.9399999999999991
 23
-6.6399999999999979
 33
1.9599999999999991
  0
3DFACE
  5
DF3
  8
RAILINGS
 10
1.9399999999999991
 20
-6.6399999999999979
 30
1.9599999999999991
 11
1.9399999999999991
 21
-6.6399999999999979
 31
1.99
 12
1.96
 22
-4.8899999999999979
 32
1.99
 13
1.96
 23
-4.8899999999999979
 33
1.9599999999999991
  0
3DFACE
  5
DF4
  8
RAILINGS
 10
1.75
 20
-12.19
 30
1.0800000000000001
 11
1.75
 21
-12.11999999999999
 31
1.0800000000000001
 12
1.75
 22
-12.11999999999999
 32
2.0299999999999989
 13
1.75
 23
-12.19
 33
2.0299999999999989
  0
3DFACE
  5
DF5
  8
RAILINGS
 10
1.75
 20
-12.19
 30
2.0299999999999989
 11
1.75
 21
-12.11999999999999
 31
2.0299999999999989
 12
1.75
 22
-12.11999999999999
 32
1.0800000000000001
 13
1.75
 23
-12.19
 33
1.0800000000000001
  0
3DFACE
  5
DF6
  8
RAILINGS
 10
1.8300000000000001
 20
-10.36999999999999
 30
2.0299999999999989
 11
1.8300000000000001
 21
-10.300000000000001
 31
2.0299999999999989
 12
1.8300000000000001
 22
-10.300000000000001
 32
1.0800000000000001
 13
1.8300000000000001
 23
-10.36999999999999
 33
1.0800000000000001
  0
3DFACE
  5
DF7
  8
RAILINGS
 10
1.8300000000000001
 20
-10.36999999999999
 30
1.0800000000000001
 11
1.8300000000000001
 21
-10.300000000000001
 31
1.0800000000000001
 12
1.8300000000000001
 22
-10.300000000000001
 32
2.0299999999999989
 13
1.8300000000000001
 23
-10.36999999999999
 33
2.0299999999999989
  0
3DFACE
  5
DF8
  8
RAILINGS
 10
1.8300000000000001
 20
-10.36999999999999
 30
1.9599999999999991
 11
1.8300000000000001
 21
-10.36999999999999
 31
1.99
 12
1.7499999999999989
 22
-12.11999999999999
 32
1.99
 13
1.7499999999999989
 23
-12.11999999999999
 33
1.9599999999999991
  0
3DFACE
  5
DF9
  8
RAILINGS
 10
1.7499999999999989
 20
-12.11999999999999
 30
1.9599999999999991
 11
1.7499999999999989
 21
-12.11999999999999
 31
1.99
 12
1.8300000000000001
 22
-10.36999999999999
 32
1.99
 13
1.8300000000000001
 23
-10.36999999999999
 33
1.9599999999999991
  0
VIEWPORT
  5
2E
 67
     1
  8
0
 10
144.7270812988281
 20
101.2295806407928
 30
0.0
 40
391.13550988316581
 41
222.15178063964839
 68
     2
 69
     1
1001
ACAD
1000
MVIEW
1002
{
1070
    16
1010
0.0
1020
0.0
1030
0.0
1010
0.0
1020
0.0
1030
1.0
1040
0.0
1040
222.15178063964839
1040
144.7270812988281
1040
101.2295806407928
1040
50.0
1040
0.0
1040
0.0
1070
     0
1070
   100
1070
     1
1070
     1
1070
     0
1070
     0
1070
     0
1070
     0
1040
0.0
1040
0.0
1040
0.0
1040
10.0
1040
10.0
1040
10.0
1040
10.0
1070
     0
1002
{
1002
}
1002
}
  0
VIEWPORT
  5
30
 67
     1
  8
0
 10
139.22375631332389
 20
100.8062499761581
 30
0.0
 40
222.75801010131829
 41
161.289999961853
 68
     1
 69
     2
1001
ACAD
1000
MVIEW
1002
{
1070
    16
1010
0.0
1020
0.0
1030
0.0
1010
0.0
1020
0.0
1030
1.0
1040
0.0
1040
307.49010134148989
1040
210.0
1040
148.5
1040
50.0
1040
0.0
1040
0.0
1070
     0
1070
   100
1070
     1
1070
     3
1070
     0
1070
     1
1070
     0
1070
     0
1040
0.0
1040
0.0
1040
0.0
1040
10.0
1040
10.0
1040
10.0
1040
10.0
1070
     0
1002
{
1002
}
1002
}
  0
ENDSEC
  0
EOF
