mtllib barrel.mtl
g g0
v 0.211136 0 1.94246
v 0 0.211136 1.94246
v 0 0.211136 2.28029
v 0.211136 0 2.28029
v -0.211136 0 1.94246
v -0.211136 0 2.28029
v -0.211136 -0.337845 1.94246
v 0 -0.548981 1.94246
v 0 -0.548981 2.28029
v -0.211136 -0.337845 2.28029
v 0.211136 -0.337845 1.94246
v 0.211136 -0.337845 2.28029
v 0.168915 0 5.23622
v 0.119431 0.119431 5.23622
v 0.179184 0.179184 5.99628
v 0.253357 0 5.99628
v 0 0.168915 5.23622
v 0 0.253357 5.99628
v -0.119431 0.119431 5.23622
v -0.179184 0.179184 5.99628
v -0.168915 0 5.23622
v -0.253357 0 5.99628
v -0.119431 -0.119431 5.23622
v -0.179184 -0.179184 5.99628
v 0 -0.168915 5.23622
v 0 -0.253357 5.99628
v 0.119431 -0.119431 5.23622
v 0.179184 -0.179184 5.99628
v 0.253357 0 4.89838
v 0.179184 0.179184 4.89838
v 0.179184 0.179184 5.23622
v 0.253357 0 5.23622
v 0 0.253357 4.89838
v 0 0.253357 5.23622
v -0.179184 0.179184 4.89838
v -0.179184 0.179184 5.23622
v -0.253357 0 4.89838
v -0.253357 0 5.23622
v -0.179184 -0.179184 4.89838
v -0.179184 -0.179184 5.23622
v 0 -0.253357 4.89838
v 0 -0.253357 5.23622
v 0.179184 -0.179184 4.89838
v 0.179184 -0.179184 5.23622
v 0.168915 0 2.28029
v 0 0.168915 2.28029
v 0 0.168915 4.89838
v 0.168915 0 4.89838
v -0.168915 0 2.28029
v -0.168915 0 4.89838
v 0 -0.168915 2.28029
v 0 -0.168915 4.89838
v 0.168915 -0.337845 2.28029
v 0 -0.168915 3.71603
v 0.168915 -0.337845 3.71603
v -0.168915 -0.337845 2.28029
v -0.168915 -0.337845 3.71603
v 0 -0.506714 2.28029
v 0 -0.506714 3.71603
v 0.168915 0 0
v 0 0.168915 0
v 0 0.168915 1.94246
v 0.168915 0 1.94246
v -0.168915 0 0
v -0.168915 0 1.94246
v 0 -0.168915 0
v 0 -0.168915 1.94246
v 0.168915 -0.337845 0
v 0.168915 -0.337845 1.94246
v -0.168915 -0.337845 0
v -0.168915 -0.337845 1.94246
v 0 -0.506714 0
v 0 -0.506714 1.94246
vn 0 0 -1
vn 0 0 -1
vn 0 0 -1
vn 0 0 -1
vn 0 0 -1
vn 0 0 -1
vn 0 0 -1
vn 0 0 -1
vn 0 0 -1
vn 0 0 -1
vn 0 0 -1
vn 0 0 -1
vn 0.707107 0.707107 0
vn 0.707107 0.707107 0
vn 0.707107 0.707107 0
vn 0.707107 0.707107 0
vn 0.707107 0.707107 0
vn 0.707107 0.707107 0
vn -0.707107 0.707107 0
vn -0.707107 0.707107 0
vn -0.707107 0.707107 0
vn -0.707107 0.707107 0
vn -0.707107 0.707107 0
vn -0.707107 0.707107 0
vn -0.707107 -0.707107 0
vn -0.707107 -0.707107 0
vn -0.707107 -0.707107 0
vn -0.707107 -0.707107 0
vn -0.707107 -0.707107 0
vn -0.707107 -0.707107 0
vn 0.707107 -0.707107 0
vn 0.707107 -0.707107 0
vn 0.707107 -0.707107 0
vn 0.707107 -0.707107 0
vn 0.707107 -0.707107 0
vn 0.707107 -0.707107 0
vn 0.993882 0 -0.110449
vn 0.70278 0.70278 -0.110455
vn 0.702777 0.702777 -0.110499
vn 0.70278 0.70278 -0.110455
vn 0.993882 0 -0.110449
vn 0.993885 0 -0.11042
vn 0.70278 0.70278 -0.110455
vn 0.135978 0.984652 -0.109414
vn 0.702777 0.702777 -0.110499
vn 0.135978 0.984652 -0.109414
vn 0.70278 0.70278 -0.110455
vn -0.135878 0.984664 -0.109425
vn -0.135878 0.984664 -0.109425
vn -0.702779 0.702779 -0.11047
vn 0.135978 0.984652 -0.109414
vn -0.702779 0.702779 -0.11047
vn -0.135878 0.984664 -0.109425
vn -0.702777 0.702777 -0.110499
vn -0.984664 0.135878 -0.109425
vn -0.702779 0.702779 -0.11047
vn -0.702777 0.702777 -0.110499
vn -0.702779 0.702779 -0.11047
vn -0.984664 0.135878 -0.109425
vn -0.984652 -0.135978 -0.109414
vn -0.70278 -0.70278 -0.110455
vn -0.984652 -0.135978 -0.109414
vn -0.984664 0.135878 -0.109425
vn -0.984652 -0.135978 -0.109414
vn -0.70278 -0.70278 -0.110455
vn -0.702777 -0.702777 -0.110499
vn -0.70278 -0.70278 -0.110455
vn -0.135978 -0.984652 -0.109414
vn -0.702777 -0.702777 -0.110499
vn -0.135978 -0.984652 -0.109414
vn -0.70278 -0.70278 -0.110455
vn 0.135878 -0.984664 -0.109425
vn 0.135878 -0.984664 -0.109425
vn 0.600141 -0.79237 -0.109454
vn -0.135978 -0.984652 -0.109414
vn 0.600141 -0.79237 -0.109454
vn 0.135878 -0.984664 -0.109425
vn 0.792432 -0.600062 -0.109443
vn 0.993882 0 -0.110449
vn 0.792432 -0.600062 -0.109443
vn 0.993885 0 -0.11042
vn 0.792432 -0.600062 -0.109443
vn 0.993882 0 -0.110449
vn 0.600141 -0.79237 -0.109454
vn 0.990614 0.136688 0
vn 0.923966 0.382475 0
vn 0.923966 0.382475 0
vn 0.923966 0.382475 0
vn 0.990614 0.136688 0
vn 0.990614 -0.136688 0
vn 0.382475 0.923966 0
vn 0.136688 0.990614 0
vn 0.382475 0.923966 0
vn 0.136688 0.990614 0
vn 0.382475 0.923966 0
vn -0.136688 0.990614 0
vn -0.136688 0.990614 0
vn -0.382475 0.923966 0
vn 0.136688 0.990614 0
vn -0.382475 0.923966 0
vn -0.136688 0.990614 0
vn -0.382475 0.923966 0
vn -0.990614 0.136688 0
vn -0.923966 0.382475 0
vn -0.923966 0.382475 0
vn -0.923966 0.382475 0
vn -0.990614 0.136688 0
vn -0.990614 -0.136688 0
vn -0.923966 -0.382475 0
vn -0.990614 -0.136688 0
vn -0.990614 0.136688 0
vn -0.990614 -0.136688 0
vn -0.923966 -0.382475 0
vn -0.923966 -0.382475 0
vn -0.382475 -0.923966 0
vn -0.136688 -0.990614 0
vn -0.382475 -0.923966 0
vn -0.136688 -0.990614 0
vn -0.382475 -0.923966 0
vn 0.136688 -0.990614 0
vn 0.136688 -0.990614 0
vn 0.382475 -0.923966 0
vn -0.136688 -0.990614 0
vn 0.382475 -0.923966 0
vn 0.136688 -0.990614 0
vn 0.382475 -0.923966 0
vn 0.923966 -0.382475 0
vn 0.990614 -0.136688 0
vn 0.990614 0.136688 0
vn 0.990614 -0.136688 0
vn 0.923966 -0.382475 0
vn 0.923966 -0.382475 0
vn 0.707107 0.707107 0
vn 0.707107 0.707107 0
vn 0.707107 0.707107 0
vn 0.707107 0.707107 0
vn 0.707107 0.707107 0
vn 0.707107 0.707107 0
vn -0.707107 0.707107 0
vn -0.707107 0.707107 0
vn -0.707107 0.707107 0
vn -0.707107 0.707107 0
vn -0.707107 0.707107 0
vn -0.707107 0.707107 0
vn -0.707107 -0.707107 0
vn -0.707107 -0.707107 0
vn -0.707107 -0.707107 0
vn -0.707107 -0.707107 0
vn -0.707107 -0.707107 0
vn -0.707107 -0.707107 0
vn 0.707107 -0.707107 0
vn 0.707107 -0.707107 0
vn 0.707107 -0.707107 0
vn 0.707107 -0.707107 0
vn 0.707107 -0.707107 0
vn 0.707107 -0.707107 0
vn 0.707138 0.707075 0
vn 0.707138 0.707075 0
vn 0.707138 0.707075 0
vn 0.707138 0.707075 0
vn 0.707138 0.707075 0
vn 0.707138 0.707075 0
vn -0.707138 0.707075 0
vn -0.707138 0.707075 0
vn -0.707138 0.707075 0
vn -0.707138 0.707075 0
vn -0.707138 0.707075 0
vn -0.707138 0.707075 0
vn -0.70701 -0.707203 0
vn -0.70701 -0.707203 0
vn -0.70701 -0.707203 0
vn -0.70701 -0.707203 0
vn -0.70701 -0.707203 0
vn -0.70701 -0.707203 0
vn 0.70701 -0.707203 0
vn 0.70701 -0.707203 0
vn 0.70701 -0.707203 0
vn 0.70701 -0.707203 0
vn 0.70701 -0.707203 0
vn 0.70701 -0.707203 0
vn 0.707107 0.707107 0
vn 0.707107 0.707107 0
vn 0.707107 0.707107 0
vn 0.707107 0.707107 0
vn 0.707107 0.707107 0
vn 0.707107 0.707107 0
vn -0.707107 0.707107 0
vn -0.707107 0.707107 0
vn -0.707107 0.707107 0
vn -0.707107 0.707107 0
vn -0.707107 0.707107 0
vn -0.707107 0.707107 0
vn -0.707107 -0.707107 0
vn -0.707107 -0.707107 0
vn -0.707107 -0.707107 0
vn -0.707107 -0.707107 0
vn -0.707107 -0.707107 0
vn -0.707107 -0.707107 0
vn 0.707107 -0.707107 0
vn 0.707107 -0.707107 0
vn 0.707107 -0.707107 0
vn 0.707107 -0.707107 0
vn 0.707107 -0.707107 0
vn 0.707107 -0.707107 0
vn 0.707138 0.707075 0
vn 0.707138 0.707075 0
vn 0.707138 0.707075 0
vn 0.707138 0.707075 0
vn 0.707138 0.707075 0
vn 0.707138 0.707075 0
vn -0.707138 0.707075 0
vn -0.707138 0.707075 0
vn -0.707138 0.707075 0
vn -0.707138 0.707075 0
vn -0.707138 0.707075 0
vn -0.707138 0.707075 0
vn -0.70701 -0.707203 0
vn -0.70701 -0.707203 0
vn -0.70701 -0.707203 0
vn -0.70701 -0.707203 0
vn -0.70701 -0.707203 0
vn -0.70701 -0.707203 0
vn 0.70701 -0.707203 0
vn 0.70701 -0.707203 0
vn 0.70701 -0.707203 0
vn 0.70701 -0.707203 0
vn 0.70701 -0.707203 0
vn 0.70701 -0.707203 0
vn 0 0 1
vn 0 0 1
vn 0 0 1
vn 0 0 1
vn 0 0 1
vn 0 0 1
vn 0 0 1
vn 0 0 1
vn 0 0 1
vn 0 0 1
vn 0 0 1
vn 0 0 1
vn 0 0 1
vn 0 0 1
vn 0 0 1
vn 0 0 1
vn 0 0 1
vn 0 0 1
vn 0 0 1
vn 0 0 1
vn 0 0 1
vn 0 0 1
vn 0 0 1
vn 0 0 1
vn 0 0 1
vn 0 0 1
vn 0 0 1
vn 0 0 1
vn 0 0 1
vn 0 0 1
vn 0 0 1
vn 0 0 1
vn 0 0 1
vn 0 0 1
vn 0 0 1
vn 0 0 1
vn 0 0 1
vn 0 0 1
vn 0 0 1
vn 0 0 1
vn 0 0 1
vn 0 0 1
vn 0 0 1
vn 0 0 1
vn 0 0 1
vn 0 0 1
vn 0 0 1
vn 0 0 1
vn 0 0 1
vn 0 0 1
vn 0 0 1
vn 0 0 1
vn 0 0 1
vn 0 0 1
vn 0 0 1
vn 0 0 1
vn 0 0 1
vn 0 0 1
vn 0 0 1
vn 0 0 1
vn 0 0 1
vn 0 0 1
vn 0 0 1
vn 0 0 1
vn 0 0 1
vn 0 0 1
vn 0 0 -1
vn 0 0 -1
vn 0 0 -1
vn 0 0 -1
vn 0 0 -1
vn 0 0 -1
vn 0 0 -1
vn 0 0 -1
vn 0 0 -1
vn 0 0 -1
vn 0 0 -1
vn 0 0 -1
vn 0 0 -1
vn 0 0 -1
vn 0 0 -1
vn 0 0 -1
vn 0 0 -1
vn 0 0 -1
vn 0 0 -1
vn 0 0 -1
vn 0 0 -1
vn 0 0 -1
vn 0 0 -1
vn 0 0 -1
vn 0 0 1
vn 0 0 1
vn 0 0 1
vn 0 0 1
vn 0 0 1
vn 0 0 1
vn -1 0 0
vn -1 0 0
vn -1 0 0
vn -1 0 0
vn -1 0 0
vn -1 0 0
vn 1 0 0
vn 1 0 0
vn 1 0 0
vn 1 0 0
vn 1 0 0
vn 1 0 0
vn 0 0 1
vn 0 0 1
vn 0 0 1
vn 0 0 1
vn 0 0 1
vn 0 0 1
vn 0 0 1
vn 0 0 1
vn 0 0 1
vn 0 0 1
vn 0 0 1
vn 0 0 1
vn 0 0 1
vn 0 0 1
vn 0 0 1
vn 0 0 1
vn 0 0 1
vn 0 0 1
vn 0 0 1
vn 0 0 1
vn 0 0 1
vn 0 0 1
vn 0 0 1
vn 0 0 1
vn 0 0 1
vn 0 0 1
vn 0 0 1
vn 0 0 1
vn 0 0 1
vn 0 0 1
vn 0 0 1
vn 0 0 1
vn 0 0 1
vn 0 0 1
vn 0 0 1
vn 0 0 1
vn 0 0 1
vn 0 0 1
vn 0 0 1
vn 0 0 1
vn 0 0 1
vn 0 0 1
vn 0 0 -1
vn 0 0 -1
vn 0 0 -1
vn 0 0 -1
vn 0 0 -1
vn 0 0 -1
vn 0 0 -1
vn 0 0 -1
vn 0 0 -1
vn 0 0 -1
vn 0 0 -1
vn 0 0 -1
vn 0 0 -1
vn 0 0 -1
vn 0 0 -1
vn 0 0 -1
vn 0 0 -1
vn 0 0 -1
vn 0 0 -1
vn 0 0 -1
vn 0 0 -1
vn 0 0 -1
vn 0 0 -1
vn 0 0 -1
vn 0 0 -1
vn 0 0 -1
vn 0 0 -1
vn 0 0 -1
vn 0 0 -1
vn 0 0 -1
vn 0 0 -1
vn 0 0 -1
vn 0 0 -1
vn 0 0 -1
vn 0 0 -1
vn 0 0 -1
vn 0 0 -1
vn 0 0 -1
vn 0 0 -1
vn 0 0 -1
vn 0 0 -1
vn 0 0 -1
vt 0.214444 0.960929
vt 0.214444 0.964117
vt 0.221208 0.961317
vt 0.208067 0.954552
vt 0.204879 0.954552
vt 0.207679 0.961317
vt 0.214444 0.948176
vt 0.214444 0.944988
vt 0.207679 0.947788
vt 0.22082 0.954552
vt 0.224008 0.954552
vt 0.221208 0.947788
vt 0.0935577 0.979762
vt 0.0816955 0.987176
vt 0.0935577 0.987176
vt 0.0816955 0.987176
vt 0.0935577 0.979762
vt 0.0816955 0.979762
vt 0.0816955 0.979762
vt 0.0935577 0.987176
vt 0.0816955 0.987176
vt 0.0935577 0.987176
vt 0.0816955 0.979762
vt 0.0935577 0.979762
vt 0.0816955 0.960486
vt 0.0935577 0.9679
vt 0.0816955 0.9679
vt 0.0935577 0.9679
vt 0.0816955 0.960486
vt 0.0935577 0.960486
vt 0.0935577 0.960486
vt 0.0816955 0.9679
vt 0.0935577 0.9679
vt 0.0816955 0.9679
vt 0.0935577 0.960486
vt 0.0816955 0.960486
vt 0.224035 0.979762
vt 0.197347 0.983956
vt 0.224035 0.986054
vt 0.197347 0.983956
vt 0.224035 0.979762
vt 0.197347 0.979762
vt 0.197347 0.983956
vt 0.224035 0.988658
vt 0.224035 0.986054
vt 0.224035 0.988658
vt 0.197347 0.983956
vt 0.197347 0.985694
vt 0.197347 0.985694
vt 0.224035 0.986054
vt 0.224035 0.988658
vt 0.224035 0.986054
vt 0.197347 0.985694
vt 0.197347 0.983956
vt 0.197347 0.979762
vt 0.224035 0.986054
vt 0.197347 0.983956
vt 0.224035 0.986054
vt 0.197347 0.979762
vt 0.224035 0.979762
vt 0.197347 0.975569
vt 0.224035 0.979762
vt 0.197347 0.979762
vt 0.224035 0.979762
vt 0.197347 0.975569
vt 0.224035 0.973471
vt 0.197347 0.975569
vt 0.224035 0.970867
vt 0.224035 0.973471
vt 0.224035 0.970867
vt 0.197347 0.975569
vt 0.197347 0.973832
vt 0.197347 0.973832
vt 0.224035 0.973471
vt 0.224035 0.970867
vt 0.224035 0.973471
vt 0.197347 0.973832
vt 0.197347 0.975569
vt 0.224035 0.979762
vt 0.197347 0.975569
vt 0.197347 0.979762
vt 0.197347 0.975569
vt 0.224035 0.979762
vt 0.224035 0.973471
vt 0.197347 0.979762
vt 0.185485 0.986054
vt 0.197347 0.986054
vt 0.185485 0.986054
vt 0.197347 0.979762
vt 0.185485 0.979762
vt 0.185485 0.986054
vt 0.197347 0.988658
vt 0.197347 0.986054
vt 0.197347 0.988658
vt 0.185485 0.986054
vt 0.185485 0.988658
vt 0.185485 0.988658
vt 0.197347 0.986054
vt 0.197347 0.988658
vt 0.197347 0.986054
vt 0.185485 0.988658
vt 0.185485 0.986054
vt 0.185485 0.979762
vt 0.197347 0.986054
vt 0.185485 0.986054
vt 0.197347 0.986054
vt 0.185485 0.979762
vt 0.197347 0.979762
vt 0.185485 0.973471
vt 0.197347 0.979762
vt 0.185485 0.979762
vt 0.197347 0.979762
vt 0.185485 0.973471
vt 0.197347 0.973471
vt 0.185485 0.973471
vt 0.197347 0.970867
vt 0.197347 0.973471
vt 0.197347 0.970867
vt 0.185485 0.973471
vt 0.185485 0.970867
vt 0.185485 0.970867
vt 0.197347 0.973471
vt 0.197347 0.970867
vt 0.197347 0.973471
vt 0.185485 0.970867
vt 0.185485 0.973471
vt 0.197347 0.973471
vt 0.185485 0.979762
vt 0.197347 0.979762
vt 0.185485 0.979762
vt 0.197347 0.973471
vt 0.185485 0.973471
vt 0.185485 0.979762
vt 0.0935577 0.985694
vt 0.185485 0.985694
vt 0.0935577 0.985694
vt 0.185485 0.979762
vt 0.0935577 0.979762
vt 0.0935577 0.979762
vt 0.185485 0.985694
vt 0.0935577 0.985694
vt 0.185485 0.985694
vt 0.0935577 0.979762
vt 0.185485 0.979762
vt 0.0935577 0.973832
vt 0.185485 0.979762
vt 0.0935577 0.979762
vt 0.185485 0.979762
vt 0.0935577 0.973832
vt 0.185485 0.973832
vt 0.185485 0.973832
vt 0.0935577 0.979762
vt 0.185485 0.979762
vt 0.0935577 0.979762
vt 0.185485 0.973832
vt 0.0935577 0.973832
vt 0.14397 0.9679
vt 0.0935577 0.973832
vt 0.14397 0.973832
vt 0.0935577 0.973832
vt 0.14397 0.9679
vt 0.0935577 0.9679
vt 0.0935577 0.9679
vt 0.14397 0.973832
vt 0.0935577 0.973832
vt 0.14397 0.973832
vt 0.0935577 0.9679
vt 0.14397 0.9679
vt 0.0935577 0.9679
vt 0.14397 0.961971
vt 0.14397 0.9679
vt 0.14397 0.961971
vt 0.0935577 0.9679
vt 0.0935577 0.961971
vt 0.0935577 0.961971
vt 0.14397 0.9679
vt 0.14397 0.961971
vt 0.14397 0.9679
vt 0.0935577 0.961971
vt 0.0935577 0.9679
vt 0.0816955 0.979762
vt 0.0134913 0.985694
vt 0.0816955 0.985694
vt 0.0134913 0.985694
vt 0.0816955 0.979762
vt 0.0134913 0.979762
vt 0.0134913 0.979762
vt 0.0816955 0.985694
vt 0.0134913 0.985694
vt 0.0816955 0.985694
vt 0.0134913 0.979762
vt 0.0816955 0.979762
vt 0.0134913 0.973832
vt 0.0816955 0.979762
vt 0.0134913 0.979762
vt 0.0816955 0.979762
vt 0.0134913 0.973832
vt 0.0816955 0.973832
vt 0.0816955 0.973832
vt 0.0134913 0.979762
vt 0.0816955 0.979762
vt 0.0134913 0.979762
vt 0.0816955 0.973832
vt 0.0134913 0.973832
vt 0.0816955 0.9679
vt 0.0134913 0.973832
vt 0.0816955 0.973832
vt 0.0134913 0.973832
vt 0.0816955 0.9679
vt 0.0134913 0.9679
vt 0.0134913 0.9679
vt 0.0816955 0.973832
vt 0.0134913 0.973832
vt 0.0816955 0.973832
vt 0.0134913 0.9679
vt 0.0816955 0.9679
vt 0.0134913 0.9679
vt 0.0816955 0.961971
vt 0.0816955 0.9679
vt 0.0816955 0.961971
vt 0.0134913 0.9679
vt 0.0134913 0.961971
vt 0.0134913 0.961971
vt 0.0816955 0.9679
vt 0.0816955 0.961971
vt 0.0816955 0.9679
vt 0.0134913 0.961971
vt 0.0134913 0.9679
vt 0.242997 0.986067
vt 0.255503 0.986067
vt 0.24925 0.988655
vt 0.255503 0.986067
vt 0.242997 0.986067
vt 0.240409 0.979814
vt 0.255503 0.986067
vt 0.242997 0.973561
vt 0.258091 0.979814
vt 0.242997 0.973561
vt 0.255503 0.986067
vt 0.240409 0.979814
vt 0.258091 0.979814
vt 0.24925 0.970973
vt 0.255503 0.973561
vt 0.24925 0.970973
vt 0.258091 0.979814
vt 0.242997 0.973561
vt 0.214444 0.964117
vt 0.209935 0.959061
vt 0.214444 0.960929
vt 0.209935 0.959061
vt 0.214444 0.964117
vt 0.207679 0.961317
vt 0.207679 0.961317
vt 0.208067 0.954552
vt 0.209935 0.959061
vt 0.208067 0.954552
vt 0.207679 0.961317
vt 0.204879 0.954552
vt 0.208067 0.954552
vt 0.207679 0.947788
vt 0.209935 0.950044
vt 0.207679 0.947788
vt 0.208067 0.954552
vt 0.204879 0.954552
vt 0.209935 0.950044
vt 0.214444 0.944988
vt 0.214444 0.948176
vt 0.214444 0.944988
vt 0.209935 0.950044
vt 0.207679 0.947788
vt 0.214444 0.948176
vt 0.221208 0.947788
vt 0.218952 0.950044
vt 0.221208 0.947788
vt 0.214444 0.948176
vt 0.214444 0.944988
vt 0.22082 0.954552
vt 0.221208 0.947788
vt 0.224008 0.954552
vt 0.221208 0.947788
vt 0.22082 0.954552
vt 0.218952 0.950044
vt 0.221208 0.961317
vt 0.22082 0.954552
vt 0.224008 0.954552
vt 0.22082 0.954552
vt 0.221208 0.961317
vt 0.218952 0.959061
vt 0.214444 0.964117
vt 0.218952 0.959061
vt 0.221208 0.961317
vt 0.218952 0.959061
vt 0.214444 0.964117
vt 0.214444 0.960929
vt 0.22082 0.954552
vt 0.221208 0.961317
vt 0.224008 0.954552
vt 0.221208 0.961317
vt 0.22082 0.954552
vt 0.214444 0.960929
vt 0.208067 0.954552
vt 0.214444 0.964117
vt 0.214444 0.960929
vt 0.214444 0.964117
vt 0.208067 0.954552
vt 0.207679 0.961317
vt 0.207679 0.947788
vt 0.208067 0.954552
vt 0.214444 0.948176
vt 0.208067 0.954552
vt 0.207679 0.947788
vt 0.204879 0.954552
vt 0.214444 0.944988
vt 0.22082 0.954552
vt 0.221208 0.947788
vt 0.22082 0.954552
vt 0.214444 0.944988
vt 0.214444 0.948176
vt 0.214444 0.948176
vt 0.214444 0.935423
vt 0.22082 0.941798
vt 0.214444 0.935423
vt 0.214444 0.948176
vt 0.208067 0.941798
vt 0.0816955 0.9679
vt 0.0935577 0.979762
vt 0.0816955 0.979762
vt 0.0935577 0.979762
vt 0.0816955 0.9679
vt 0.0935577 0.9679
vt 0.0935577 0.9679
vt 0.0816955 0.979762
vt 0.0935577 0.979762
vt 0.0816955 0.979762
vt 0.0935577 0.9679
vt 0.0816955 0.9679
vt 0.214444 0.962523
vt 0.208067 0.954552
vt 0.214444 0.960929
vt 0.208067 0.954552
vt 0.214444 0.962523
vt 0.206473 0.954552
vt 0.214444 0.962523
vt 0.22082 0.954552
vt 0.222414 0.954552
vt 0.22082 0.954552
vt 0.214444 0.962523
vt 0.214444 0.960929
vt 0.22082 0.954552
vt 0.222414 0.941798
vt 0.222414 0.954552
vt 0.222414 0.941798
vt 0.22082 0.954552
vt 0.214444 0.948176
vt 0.206473 0.954552
vt 0.214444 0.948176
vt 0.208067 0.954552
vt 0.214444 0.948176
vt 0.206473 0.954552
vt 0.206473 0.941798
vt 0.208067 0.941798
vt 0.214444 0.933828
vt 0.214444 0.935423
vt 0.214444 0.933828
vt 0.208067 0.941798
vt 0.206473 0.941798
vt 0.214444 0.935423
vt 0.222414 0.941798
vt 0.22082 0.941798
vt 0.222414 0.941798
vt 0.214444 0.935423
vt 0.214444 0.933828
vt 0.214444 0.948176
vt 0.206473 0.941798
vt 0.208067 0.941798
vt 0.222414 0.941798
vt 0.214444 0.948176
vt 0.22082 0.941798
vt 0.214444 0.948176
vt 0.208067 0.941798
vt 0.206473 0.941798
vt 0.222414 0.941798
vt 0.22082 0.941798
vt 0.214444 0.948176
vt 0.214444 0.933828
vt 0.22082 0.941798
vt 0.222414 0.941798
vt 0.22082 0.941798
vt 0.214444 0.933828
vt 0.214444 0.935423
vt 0.214444 0.933828
vt 0.208067 0.941798
vt 0.214444 0.935423
vt 0.208067 0.941798
vt 0.214444 0.933828
vt 0.206473 0.941798
vt 0.206473 0.941798
vt 0.208067 0.954552
vt 0.214444 0.948176
vt 0.208067 0.954552
vt 0.206473 0.941798
vt 0.206473 0.954552
vt 0.222414 0.941798
vt 0.22082 0.954552
vt 0.222414 0.954552
vt 0.22082 0.954552
vt 0.222414 0.941798
vt 0.214444 0.948176
vt 0.208067 0.954552
vt 0.214444 0.962523
vt 0.214444 0.960929
vt 0.214444 0.962523
vt 0.208067 0.954552
vt 0.206473 0.954552
vt 0.214444 0.960929
vt 0.222414 0.954552
vt 0.22082 0.954552
vt 0.222414 0.954552
vt 0.214444 0.960929
vt 0.214444 0.962523
usemtl acmat_0
f 47/1/1 33/2/2 30/3/3
f 50/4/4 37/5/5 35/6/6
f 52/7/7 41/8/8 39/9/9
f 48/10/10 29/11/11 43/12/12
f 4/13/13 2/14/14 3/15/15
f 2/16/16 4/17/17 1/18/18
f 5/19/19 3/20/20 2/21/21
f 3/22/22 5/23/23 6/24/24
f 8/25/25 10/26/26 7/27/27
f 10/28/28 8/29/29 9/30/30
f 9/31/31 11/32/32 12/33/33
f 11/34/34 9/35/35 8/36/36
f 16/37/37 14/38/38 15/39/39
f 14/40/40 16/41/41 13/42/42
f 14/43/43 18/44/44 15/45/45
f 18/46/46 14/47/47 17/48/48
f 17/49/49 20/50/50 18/51/51
f 20/52/52 17/53/53 19/54/54
f 21/55/55 20/56/56 19/57/57
f 20/58/58 21/59/59 22/60/60
f 23/61/61 22/62/62 21/63/63
f 22/64/64 23/65/65 24/66/66
f 23/67/67 26/68/68 24/69/69
f 26/70/70 23/71/71 25/72/72
f 25/73/73 28/74/74 26/75/75
f 28/76/76 25/77/77 27/78/78
f 16/79/79 27/80/80 13/81/81
f 27/82/82 16/83/83 28/84/84
f 32/85/85 30/86/86 31/87/87
f 30/88/88 32/89/89 29/90/90
f 30/91/91 34/92/92 31/93/93
f 34/94/94 30/95/95 33/96/96
f 33/97/97 36/98/98 34/99/99
f 36/100/100 33/101/101 35/102/102
f 37/103/103 36/104/104 35/105/105
f 36/106/106 37/107/107 38/108/108
f 39/109/109 38/110/110 37/111/111
f 38/112/112 39/113/113 40/114/114
f 39/115/115 42/116/116 40/117/117
f 42/118/118 39/119/119 41/120/120
f 41/121/121 44/122/122 42/123/123
f 44/124/124 41/125/125 43/126/126
f 44/127/127 29/128/128 32/129/129
f 29/130/130 44/131/131 43/132/132
f 48/133/133 46/134/134 47/135/135
f 46/136/136 48/137/137 45/138/138
f 49/139/139 47/140/140 46/141/141
f 47/142/142 49/143/143 50/144/144
f 51/145/145 50/146/146 49/147/147
f 50/148/148 51/149/149 52/150/150
f 52/151/151 45/152/152 48/153/153
f 45/154/154 52/155/155 51/156/156
f 55/157/157 51/158/158 54/159/159
f 51/160/160 55/161/161 53/162/162
f 56/163/163 54/164/164 51/165/165
f 54/166/166 56/167/167 57/168/168
f 56/169/169 59/170/170 57/171/171
f 59/172/172 56/173/173 58/174/174
f 58/175/175 55/176/176 59/177/177
f 55/178/178 58/179/179 53/180/180
f 63/181/181 61/182/182 62/183/183
f 61/184/184 63/185/185 60/186/186
f 64/187/187 62/188/188 61/189/189
f 62/190/190 64/191/191 65/192/192
f 66/193/193 65/194/194 64/195/195
f 65/196/196 66/197/197 67/198/198
f 67/199/199 60/200/200 63/201/201
f 60/202/202 67/203/203 66/204/204
f 69/205/205 66/206/206 67/207/207
f 66/208/208 69/209/209 68/210/210
f 70/211/211 67/212/212 66/213/213
f 67/214/214 70/215/215 71/216/216
f 70/217/217 73/218/218 71/219/219
f 73/220/220 70/221/221 72/222/222
f 72/223/223 69/224/224 73/225/225
f 69/226/226 72/227/227 68/228/228
f 20/229/229 15/230/230 18/231/231
f 15/232/232 20/233/233 22/234/234
f 15/235/235 24/236/236 16/237/237
f 24/238/238 15/239/239 22/240/240
f 16/241/241 26/242/242 28/243/243
f 26/244/244 16/245/245 24/246/246
f 34/247/247 19/248/248 17/249/249
f 19/250/250 34/251/251 36/252/252
f 36/253/253 21/254/254 19/255/255
f 21/256/256 36/257/257 38/258/258
f 21/259/259 40/260/260 23/261/261
f 40/262/262 21/263/263 38/264/264
f 23/265/265 42/266/266 25/267/267
f 42/268/268 23/269/269 40/270/270
f 25/271/271 44/272/272 27/273/273
f 44/274/274 25/275/275 42/276/276
f 13/277/277 44/278/278 32/279/279
f 44/280/280 13/281/281 27/282/282
f 31/283/283 13/284/284 32/285/285
f 13/286/286 31/287/287 14/288/288
f 34/289/289 14/290/290 31/291/291
f 14/292/292 34/293/293 17/294/294
f 48/295/295 30/296/296 29/297/297
f 30/298/298 48/299/299 47/300/300
f 50/301/301 33/302/302 47/303/303
f 33/304/304 50/305/305 35/306/306
f 39/307/307 50/308/308 52/309/309
f 50/310/310 39/311/311 37/312/312
f 41/313/313 48/314/314 43/315/315
f 48/316/316 41/317/317 52/318/318
f 54/319/319 59/320/320 55/321/321
f 59/322/322 54/323/323 57/324/324
f 7/325/325 6/326/326 5/327/327
f 6/328/328 7/329/329 10/330/330
f 12/331/331 1/332/332 4/333/333
f 1/334/334 12/335/335 11/336/336
f 3/337/337 49/338/338 46/339/339
f 49/340/340 3/341/341 6/342/342
f 3/343/343 45/344/344 4/345/345
f 45/346/346 3/347/347 46/348/348
f 45/349/349 12/350/350 4/351/351
f 12/352/352 45/353/353 51/354/354
f 6/355/355 51/356/356 49/357/357
f 51/358/358 6/359/359 10/360/360
f 56/361/361 9/362/362 58/363/363
f 9/364/364 56/365/365 10/366/366
f 58/367/367 12/368/368 53/369/369
f 12/370/370 58/371/371 9/372/372
f 51/373/373 10/374/374 56/375/375
f 12/376/376 51/377/377 53/378/378
f 67/379/379 71/380/380 7/381/381
f 11/382/382 69/383/383 67/384/384
f 8/385/385 69/386/386 11/387/387
f 69/388/388 8/389/389 73/390/390
f 8/391/391 71/392/392 73/393/393
f 71/394/394 8/395/395 7/396/396
f 7/397/397 65/398/398 67/399/399
f 65/400/400 7/401/401 5/402/402
f 11/403/403 63/404/404 1/405/405
f 63/406/406 11/407/407 67/408/408
f 65/409/409 2/410/410 62/411/411
f 2/412/412 65/413/413 5/414/414
f 62/415/415 1/416/416 63/417/417
f 1/418/418 62/419/419 2/420/420
