mtllib turret.mtl
g g0
v -1.73183 5.15173 -0.041702
v -1.77353 5.15173 5.06731
v 1.77353 5.15173 5.06731
v 0 5.15173 0.675629
v -2.44922 5.15173 -1.77353
v -3.54712 5.15173 3.12485
v -3.8849 5.15173 -3.3782
v -4.39168 5.15173 1.77353
v -2.11137 5.15173 -4.72946
v -4.56059 5.15173 1.0979
v -4.81395 5.15173 -1.60466
v -4.89838 5.15173 1.0979
v -5.06731 5.15173 -0.506714
v -5.06731 5.15173 0.591202
v -5.06731 0 -0.506714
v -5.06731 0 0.591202
v -4.89838 0 1.0979
v -4.56059 0 1.0979
v -4.39168 0 1.77353
v -3.54712 0 3.12485
v -1.77353 0 5.06731
v -4.81395 0 -1.60466
v -3.8849 0 -3.3782
v -2.11137 0 -4.72946
v -0.675629 0 -5.06731
v -0.675629 5.15173 -5.06731
v 0.675629 0 -5.06731
v 0.675629 5.15173 -5.06731
v 3.8849 5.15173 -3.3782
v 4.81395 5.15173 -1.60466
v 4.81395 0 -1.60466
v 3.8849 0 -3.3782
v 5.06731 5.15173 -0.506714
v 5.06731 0 -0.506714
v -0.355515 3.30748 5.06731
v 0.355515 3.30748 5.06731
v 3.54712 5.15173 3.12485
v 1.77353 0 5.06731
v 3.54712 0 3.12485
v 4.39168 5.15173 1.77353
v 4.39168 0 1.77353
v 4.56059 5.15173 1.0979
v 4.56059 0 1.0979
v 4.89838 5.15173 1.0979
v 4.89838 0 1.0979
v 5.06731 5.15173 0.591202
v 5.06731 0 0.591202
v 2.11137 5.15173 -4.72946
v 2.11137 0 -4.72946
v 1.73183 5.15173 -0.041702
v -0.858307 2.80469 4.89838
v -0.355515 3.30748 4.89838
v -0.858307 2.80469 5.06731
v 0.355515 3.30748 4.89838
v 0.858307 2.80469 4.89838
v 0.858307 2.80469 5.06731
v 0.858307 2.09369 4.89838
v 0.858307 2.09369 5.06731
v 0.355515 1.5909 4.89838
v 0.355515 1.5909 5.06731
v -0.355515 1.5909 4.89838
v -0.355515 1.5909 5.06731
v -0.858307 2.09369 4.89838
v -0.858307 2.09369 5.06731
v 2.44922 5.15173 -1.77353
v 1.73183 5.15173 -3.50542
v 1.49297 5.32065 -3.26649
v 2.11137 5.32065 -1.77353
v 0 5.15173 -4.22275
v 0 5.32065 -3.8849
v -1.73183 5.15173 -3.50542
v -1.49297 5.32065 -3.26649
v -2.11137 5.32065 -1.77353
v -1.49297 5.32065 -0.280579
v 0 5.32065 0.337845
v 1.49297 5.32065 -0.280579
vn 0 0 1
vn 0 0 1
vn 0 0 1
vn 0 0 1
vn 0 0 1
vn 0 0 1
vn 0 0 1
vn 0 0 1
vn 0 0 1
vn 0 0 1
vn 0 0 1
vn 0 0 1
vn 0 1 0
vn -0.2277 0.973224 -0.0314385
vn -0.118749 0.980467 -0.156791
vn 0 1 0
vn 0.260546 0.965462 2.22711e-006
vn 0.166623 0.961162 0.220009
vn 0 1 0
vn 0 1 0
vn 0.260546 0.965462 2.22711e-006
vn 0 1 0
vn 0.166607 0.961172 -0.21998
vn 0.260546 0.965462 2.22711e-006
vn 0 1 0
vn -0.118749 0.980467 -0.156791
vn 0 1 0
vn 0 0.988536 0.150984
vn 0 1 0
vn 0 1 0
vn 0 1 0
vn 0 0.988536 0.150984
vn -0.184241 0.965458 0.184247
vn -0.184241 0.965458 0.184247
vn 0 1 0
vn 0 1 0
vn 0 1 0
vn -0.184241 0.965458 0.184247
vn -0.2277 0.973224 -0.0314385
vn 0 1 0
vn 0 1 0
vn 0 1 0
vn 0 1 0
vn 0 1 0
vn 0 1 0
vn 0 1 0
vn 0 1 0
vn 0 1 0
vn 0 1 0
vn 0 1 0
vn 0 1 0
vn 0 1 0
vn 0 1 0
vn 0 1 0
vn 0 1 0
vn 0 1 0
vn 0 1 0
vn 0 1 0
vn 0 1 0
vn 0 1 0
vn -0.997155 0 -0.0753799
vn -0.994297 0 0.10665
vn -0.988571 0 -0.15076
vn -0.994297 0 0.10665
vn -0.997155 0 -0.0753799
vn -0.976987 0 0.2133
vn -0.976987 0 0.2133
vn -0.948666 0 0.31628
vn -0.994297 0 0.10665
vn -0.948666 0 0.31628
vn -0.976987 0 0.2133
vn -0.948666 0 0.31628
vn 0 0 1
vn 0 0 1
vn 0 0 1
vn 0 0 1
vn 0 0 1
vn 0 0 1
vn -0.970142 0 0.242539
vn -0.939669 0 0.342085
vn -0.970142 0 0.242539
vn -0.939669 0 0.342085
vn -0.970142 0 0.242539
vn -0.898508 0 0.438958
vn -0.898508 0 0.438958
vn -0.814469 0 0.580207
vn -0.939669 0 0.342085
vn -0.814469 0 0.580207
vn -0.898508 0 0.438958
vn -0.777827 0 0.628478
vn -0.777827 0 0.628478
vn -0.738478 0 0.674278
vn -0.814469 0 0.580207
vn -0.738478 0 0.674278
vn -0.777827 0 0.628478
vn -0.738478 0 0.674278
vn -0.951774 0 -0.306801
vn -0.988571 0 -0.15076
vn -0.922034 0 -0.38711
vn -0.988571 0 -0.15076
vn -0.951774 0 -0.306801
vn -0.997155 0 -0.0753799
vn -0.764115 0 -0.64508
vn -0.922034 0 -0.38711
vn -0.764115 0 -0.64508
vn -0.922034 0 -0.38711
vn -0.764115 0 -0.64508
vn -0.951774 0 -0.306801
vn -0.764115 0 -0.64508
vn -0.489935 0 -0.871759
vn -0.361774 0 -0.932266
vn -0.489935 0 -0.871759
vn -0.764115 0 -0.64508
vn -0.764115 0 -0.64508
vn -0.361774 0 -0.932266
vn -0.153615 0 -0.988131
vn -0.0768077 0 -0.997046
vn -0.153615 0 -0.988131
vn -0.361774 0 -0.932266
vn -0.489935 0 -0.871759
vn -0.0768077 0 -0.997046
vn 0.0768077 0 -0.997046
vn 0.153615 0 -0.988131
vn 0.0768077 0 -0.997046
vn -0.0768077 0 -0.997046
vn -0.153615 0 -0.988131
vn 0.922034 0 -0.38711
vn 0.764115 0 -0.64508
vn 0.951774 0 -0.306801
vn 0.764115 0 -0.64508
vn 0.922034 0 -0.38711
vn 0.764115 0 -0.64508
vn 0.988571 0 -0.15076
vn 0.951774 0 -0.306801
vn 0.997155 0 -0.0753799
vn 0.951774 0 -0.306801
vn 0.988571 0 -0.15076
vn 0.922034 0 -0.38711
vn 0 0 1
vn 0 0 1
vn 0 0 1
vn 0 0 1
vn 0 0 1
vn 0 0 1
vn 0.738478 0 0.674278
vn 0.777827 0 0.628478
vn 0.738478 0 0.674278
vn 0.777827 0 0.628478
vn 0.738478 0 0.674278
vn 0.814469 0 0.580207
vn 0.814469 0 0.580207
vn 0.898508 0 0.438958
vn 0.777827 0 0.628478
vn 0.898508 0 0.438958
vn 0.814469 0 0.580207
vn 0.939669 0 0.342085
vn 0.939669 0 0.342085
vn 0.970142 0 0.242539
vn 0.898508 0 0.438958
vn 0.970142 0 0.242539
vn 0.939669 0 0.342085
vn 0.970142 0 0.242539
vn 0 0 1
vn 0 0 1
vn 0 0 1
vn 0 0 1
vn 0 0 1
vn 0 0 1
vn 0.948666 0 0.31628
vn 0.976987 0 0.2133
vn 0.948666 0 0.31628
vn 0.976987 0 0.2133
vn 0.948666 0 0.31628
vn 0.994297 0 0.10665
vn 0.994297 0 0.10665
vn 0.997155 0 -0.0753799
vn 0.976987 0 0.2133
vn 0.997155 0 -0.0753799
vn 0.994297 0 0.10665
vn 0.988571 0 -0.15076
vn 0.153615 0 -0.988131
vn 0.361774 0 -0.932266
vn 0.489935 0 -0.871759
vn 0.361774 0 -0.932266
vn 0.153615 0 -0.988131
vn 0.0768077 0 -0.997046
vn 0.489935 0 -0.871759
vn 0.764115 0 -0.64508
vn 0.764115 0 -0.64508
vn 0.764115 0 -0.64508
vn 0.489935 0 -0.871759
vn 0.361774 0 -0.932266
vn 0 1 0
vn 0 0.988536 0.150984
vn 0 1 0
vn 0 0.988536 0.150984
vn 0 1 0
vn 0.166623 0.961162 0.220009
vn 0 1 0
vn 0 1 0
vn 0 1 0
vn 0 1 0
vn 0 1 0
vn 0 1 0
vn 0 1 0
vn 0 1 0
vn 0 1 0
vn 0 1 0
vn 0 1 0
vn 0 1 0
vn 0 1 0
vn 0 1 0
vn 0 1 0
vn 0 1 0
vn 0 1 0
vn 0 1 0
vn 0 1 0
vn 0 1 0
vn 0 1 0
vn 0.707106 -0.707108 0
vn 0.505448 -0.862857 0
vn 0.707106 -0.707108 0
vn 0.505448 -0.862857 0
vn 0.707106 -0.707108 0
vn 0.252724 -0.967538 0
vn 0.252724 -0.967538 0
vn -0.252724 -0.967538 0
vn 0.505448 -0.862857 0
vn -0.252724 -0.967538 0
vn 0.252724 -0.967538 0
vn -0.505448 -0.862857 0
vn -0.505448 -0.862857 0
vn -0.707106 -0.707108 0
vn -0.252724 -0.967538 0
vn -0.707106 -0.707108 0
vn -0.505448 -0.862857 0
vn -0.707106 -0.707108 0
vn -1 0 0
vn -1 0 0
vn -1 0 0
vn -1 0 0
vn -1 0 0
vn -1 0 0
vn -0.707105 0.707108 0
vn -0.505448 0.862857 0
vn -0.707105 0.707108 0
vn -0.505448 0.862857 0
vn -0.707105 0.707108 0
vn -0.252724 0.967538 0
vn -0.252724 0.967538 0
vn 0.252724 0.967538 0
vn -0.505448 0.862857 0
vn 0.252724 0.967538 0
vn -0.252724 0.967538 0
vn 0.505448 0.862857 0
vn 0.505448 0.862857 0
vn 0.707105 0.707108 0
vn 0.252724 0.967538 0
vn 0.707105 0.707108 0
vn 0.505448 0.862857 0
vn 0.707105 0.707108 0
vn 1 0 0
vn 1 0 0
vn 1 0 0
vn 1 0 0
vn 1 0 0
vn 1 0 0
vn 0 0 1
vn 0 0 1
vn 0 0 1
vn 0 0 1
vn 0 0 1
vn 0 0 1
vn 0 0 1
vn 0 0 1
vn 0 0 1
vn 0 0 1
vn 0 0 1
vn 0 0 1
vn 0 0 1
vn 0 0 1
vn 0 0 1
vn 0 0 1
vn 0 0 1
vn 0 0 1
vn 0 0 1
vn 0 0 1
vn 0 0 1
vn 0 0 1
vn 0 0 1
vn 0 0 1
vn 0 0 1
vn 0 0 1
vn 0 0 1
vn 0 0 1
vn 0 0 1
vn 0 0 1
vn 0 0 1
vn 0 0 1
vn 0 0 1
vn 0 0 1
vn 0 0 1
vn 0 0 1
vn 0.260546 0.965462 2.22711e-006
vn 0.219984 0.961171 -0.166603
vn 0.303706 0.952766 3.65361e-007
vn 0.219984 0.961171 -0.166603
vn 0.260546 0.965462 2.22711e-006
vn 0.166607 0.961172 -0.21998
vn 0.166607 0.961172 -0.21998
vn 2.57296e-009 0.952768 -0.303698
vn 0.219984 0.961171 -0.166603
vn 2.57296e-009 0.952768 -0.303698
vn 0.166607 0.961172 -0.21998
vn 0 0.98335 -0.181722
vn 0 0.952768 -0.303698
vn -0.118749 0.980467 -0.156791
vn -0.183238 0.973224 -0.138774
vn -0.118749 0.980467 -0.156791
vn 0 0.952768 -0.303698
vn 0 0.98335 -0.181722
vn -0.183238 0.973224 -0.138774
vn -0.2277 0.973224 -0.0314385
vn -0.273368 0.961169 0.0377492
vn -0.2277 0.973224 -0.0314385
vn -0.183238 0.973224 -0.138774
vn -0.118749 0.980467 -0.156791
vn -0.273368 0.961169 0.0377492
vn -0.184241 0.965458 0.184247
vn -0.214775 0.952757 0.214771
vn -0.184241 0.965458 0.184247
vn -0.273368 0.961169 0.0377492
vn -0.2277 0.973224 -0.0314385
vn 2.20726e-009 0.965456 0.260568
vn -0.184241 0.965458 0.184247
vn 0 0.988536 0.150984
vn -0.184241 0.965458 0.184247
vn 2.20726e-009 0.965456 0.260568
vn -0.214775 0.952757 0.214771
vn 0.166623 0.961162 0.220009
vn 0 0.965456 0.260568
vn 0 0.988536 0.150984
vn 0 0.965456 0.260568
vn 0.166623 0.961162 0.220009
vn 0.1568 0.980464 0.118757
vn 0.260546 0.965462 2.22711e-006
vn 0.1568 0.980464 0.118757
vn 0.166623 0.961162 0.220009
vn 0.1568 0.980464 0.118757
vn 0.260546 0.965462 2.22711e-006
vn 0.303706 0.952766 3.65361e-007
vn 0 1 0
vn -0.2277 0.973224 -0.0314385
vn 0 1 0
vn 0 1 0
vn 0 0.98335 -0.181722
vn 0.166607 0.961172 -0.21998
vn 0 0.98335 -0.181722
vn 0 1 0
vn 0 1 0
vn 0 1 0
vn -0.118749 0.980467 -0.156791
vn 0 0.98335 -0.181722
vn -0.118749 0.980467 -0.156791
vn 0 1 0
vn 0 1 0
vn 2.20726e-009 0.965456 0.260568
vn -0.273368 0.961169 0.0377492
vn -0.214775 0.952757 0.214771
vn -0.273368 0.961169 0.0377492
vn 2.20726e-009 0.965456 0.260568
vn -0.183238 0.973224 -0.138774
vn 0.1568 0.980464 0.118757
vn -0.183238 0.973224 -0.138774
vn 2.20726e-009 0.965456 0.260568
vn -0.183238 0.973224 -0.138774
vn 0.1568 0.980464 0.118757
vn 2.57296e-009 0.952768 -0.303698
vn 0.219984 0.961171 -0.166603
vn 0.1568 0.980464 0.118757
vn 0.303706 0.952766 3.65361e-007
vn 0.1568 0.980464 0.118757
vn 0.219984 0.961171 -0.166603
vn 2.57296e-009 0.952768 -0.303698
vt 0.604448 0.708982
vt 0.593248 0.72023
vt 0.624837 0.761486
vt 0.593248 0.681829
vt 0.604448 0.693077
vt 0.624837 0.64624
vt 0.566208 0.693077
vt 0.577408 0.681829
vt 0.54582 0.64624
vt 0.577408 0.72023
vt 0.566208 0.708982
vt 0.54582 0.761486
vt 0.327763 0.829183
vt 0.393454 0.821825
vt 0.354966 0.837449
vt 0.502314 0.952424
vt 0.393454 0.928512
vt 0.431942 0.912887
vt 0.502314 0.952424
vt 0.327763 0.921153
vt 0.393454 0.928512
vt 0.327763 0.921153
vt 0.354966 0.912887
vt 0.393454 0.928512
vt 0.327763 0.829183
vt 0.354966 0.837449
vt 0.320255 0.860453
vt 0.447884 0.875168
vt 0.545482 0.836541
vt 0.545482 0.913795
vt 0.545482 0.836541
vt 0.447884 0.875168
vt 0.431942 0.837449
vt 0.431942 0.837449
vt 0.502314 0.797913
vt 0.545482 0.836541
vt 0.502314 0.797913
vt 0.431942 0.837449
vt 0.393454 0.821825
vt 0.502314 0.797913
vt 0.357793 0.790556
vt 0.472283 0.779518
vt 0.357793 0.790556
vt 0.502314 0.797913
vt 0.327763 0.829183
vt 0.472283 0.779518
vt 0.357793 0.790556
vt 0.457268 0.77584
vt 0.457268 0.77584
vt 0.397207 0.770321
vt 0.457268 0.768482
vt 0.397207 0.770321
vt 0.457268 0.77584
vt 0.357793 0.790556
vt 0.457268 0.768482
vt 0.421608 0.764803
vt 0.446007 0.764803
vt 0.421608 0.764803
vt 0.457268 0.768482
vt 0.397207 0.770321
vt 0.421206 0.64631
vt 0.445752 0.761485
vt 0.421206 0.761485
vt 0.445752 0.761485
vt 0.421206 0.64631
vt 0.445752 0.64631
vt 0.445752 0.64631
vt 0.45708 0.761485
vt 0.445752 0.761485
vt 0.45708 0.761485
vt 0.445752 0.64631
vt 0.45708 0.64631
vt 0.639758 0.761486
vt 0.632234 0.64624
vt 0.632234 0.761486
vt 0.632234 0.64624
vt 0.639758 0.761486
vt 0.639758 0.64624
vt 0.45708 0.64631
vt 0.472185 0.761485
vt 0.45708 0.761485
vt 0.472185 0.761485
vt 0.45708 0.64631
vt 0.472185 0.64631
vt 0.472185 0.64631
vt 0.502396 0.761485
vt 0.472185 0.761485
vt 0.502396 0.761485
vt 0.472185 0.64631
vt 0.502396 0.64631
vt 0.502396 0.64631
vt 0.545823 0.761485
vt 0.502396 0.761485
vt 0.545823 0.761485
vt 0.502396 0.64631
vt 0.545823 0.64631
vt 0.39666 0.64631
vt 0.421206 0.761485
vt 0.39666 0.761485
vt 0.421206 0.761485
vt 0.39666 0.64631
vt 0.421206 0.64631
vt 0.35701 0.64631
vt 0.39666 0.761485
vt 0.35701 0.761485
vt 0.39666 0.761485
vt 0.35701 0.64631
vt 0.39666 0.64631
vt 0.35701 0.64631
vt 0.3268 0.761485
vt 0.3268 0.64631
vt 0.3268 0.761485
vt 0.35701 0.64631
vt 0.35701 0.761485
vt 0.232566 0.64631
vt 0.264606 0.76146
vt 0.264606 0.64631
vt 0.264606 0.76146
vt 0.232566 0.64631
vt 0.232566 0.76146
vt 0.264606 0.64631
vt 0.29476 0.76146
vt 0.29476 0.64631
vt 0.29476 0.76146
vt 0.264606 0.64631
vt 0.264606 0.76146
vt 0.39666 0.64631
vt 0.35701 0.761485
vt 0.39666 0.761485
vt 0.35701 0.761485
vt 0.39666 0.64631
vt 0.35701 0.64631
vt 0.421206 0.64631
vt 0.39666 0.761485
vt 0.421206 0.761485
vt 0.39666 0.761485
vt 0.421206 0.64631
vt 0.39666 0.64631
vt 0.54582 0.761486
vt 0.593248 0.72023
vt 0.577408 0.72023
vt 0.593248 0.72023
vt 0.54582 0.761486
vt 0.624837 0.761486
vt 0.545823 0.64631
vt 0.502396 0.761485
vt 0.545823 0.761485
vt 0.502396 0.761485
vt 0.545823 0.64631
vt 0.502396 0.64631
vt 0.502396 0.64631
vt 0.472185 0.761485
vt 0.502396 0.761485
vt 0.472185 0.761485
vt 0.502396 0.64631
vt 0.472185 0.64631
vt 0.472185 0.64631
vt 0.45708 0.761485
vt 0.472185 0.761485
vt 0.45708 0.761485
vt 0.472185 0.64631
vt 0.45708 0.64631
vt 0.632234 0.761486
vt 0.639758 0.64624
vt 0.639758 0.761486
vt 0.639758 0.64624
vt 0.632234 0.761486
vt 0.632234 0.64624
vt 0.45708 0.64631
vt 0.445752 0.761485
vt 0.45708 0.761485
vt 0.445752 0.761485
vt 0.45708 0.64631
vt 0.445752 0.64631
vt 0.445752 0.64631
vt 0.421206 0.761485
vt 0.445752 0.761485
vt 0.421206 0.761485
vt 0.445752 0.64631
vt 0.421206 0.64631
vt 0.29476 0.64631
vt 0.3268 0.76146
vt 0.3268 0.64631
vt 0.3268 0.76146
vt 0.29476 0.64631
vt 0.29476 0.76146
vt 0.3268 0.64631
vt 0.35701 0.761485
vt 0.35701 0.64631
vt 0.35701 0.761485
vt 0.3268 0.64631
vt 0.3268 0.761485
vt 0.502314 0.952424
vt 0.447884 0.875168
vt 0.545482 0.913795
vt 0.447884 0.875168
vt 0.502314 0.952424
vt 0.431942 0.912887
vt 0.357793 0.95978
vt 0.502314 0.952424
vt 0.472283 0.970818
vt 0.502314 0.952424
vt 0.357793 0.95978
vt 0.327763 0.921153
vt 0.472283 0.970818
vt 0.457268 0.974497
vt 0.357793 0.95978
vt 0.397207 0.980015
vt 0.457268 0.974497
vt 0.457268 0.981854
vt 0.457268 0.974497
vt 0.397207 0.980015
vt 0.357793 0.95978
vt 0.421608 0.985533
vt 0.457268 0.981854
vt 0.446007 0.985533
vt 0.457268 0.981854
vt 0.421608 0.985533
vt 0.397207 0.980015
vt 0.646669 0.709838
vt 0.650446 0.721078
vt 0.650446 0.709838
vt 0.650446 0.721078
vt 0.646669 0.709838
vt 0.646669 0.721078
vt 0.646669 0.721078
vt 0.650446 0.721078
vt 0.650446 0.721078
vt 0.650446 0.721078
vt 0.646669 0.721078
vt 0.646669 0.721078
vt 0.646669 0.721078
vt 0.650446 0.709838
vt 0.650446 0.721078
vt 0.650446 0.709838
vt 0.646669 0.721078
vt 0.646669 0.709838
vt 0.646669 0.693942
vt 0.650446 0.709838
vt 0.646669 0.709838
vt 0.650446 0.709838
vt 0.646669 0.693942
vt 0.650446 0.693942
vt 0.646669 0.693942
vt 0.650446 0.682701
vt 0.650446 0.693942
vt 0.650446 0.682701
vt 0.646669 0.693942
vt 0.646669 0.682701
vt 0.646669 0.682701
vt 0.650446 0.682701
vt 0.650446 0.682701
vt 0.650446 0.682701
vt 0.646669 0.682701
vt 0.646669 0.682701
vt 0.646669 0.682701
vt 0.650446 0.693942
vt 0.650446 0.682701
vt 0.650446 0.693942
vt 0.646669 0.682701
vt 0.646669 0.693942
vt 0.650446 0.693942
vt 0.646669 0.709838
vt 0.650446 0.709838
vt 0.646669 0.709838
vt 0.650446 0.693942
vt 0.646669 0.693942
vt 0.593248 0.72023
vt 0.566208 0.708982
vt 0.577408 0.72023
vt 0.566208 0.708982
vt 0.593248 0.72023
vt 0.604448 0.708982
vt 0.604448 0.708982
vt 0.566208 0.693077
vt 0.566208 0.708982
vt 0.566208 0.693077
vt 0.604448 0.708982
vt 0.604448 0.693077
vt 0.566208 0.693077
vt 0.593248 0.681829
vt 0.577408 0.681829
vt 0.593248 0.681829
vt 0.566208 0.693077
vt 0.604448 0.693077
vt 0.624837 0.761486
vt 0.604448 0.693077
vt 0.604448 0.708982
vt 0.604448 0.693077
vt 0.624837 0.761486
vt 0.624837 0.64624
vt 0.593248 0.681829
vt 0.54582 0.64624
vt 0.577408 0.681829
vt 0.54582 0.64624
vt 0.593248 0.681829
vt 0.624837 0.64624
vt 0.566208 0.708982
vt 0.54582 0.64624
vt 0.54582 0.761486
vt 0.54582 0.64624
vt 0.566208 0.708982
vt 0.566208 0.693077
vt 0.393454 0.928512
vt 0.360276 0.907685
vt 0.393455 0.921153
vt 0.360276 0.907685
vt 0.393454 0.928512
vt 0.354966 0.912887
vt 0.354966 0.912887
vt 0.346532 0.875168
vt 0.360276 0.907685
vt 0.346532 0.875168
vt 0.354966 0.912887
vt 0.339024 0.875168
vt 0.346532 0.875168
vt 0.354966 0.837449
vt 0.360276 0.842652
vt 0.354966 0.837449
vt 0.346532 0.875168
vt 0.339024 0.875168
vt 0.360276 0.842652
vt 0.393454 0.821825
vt 0.393455 0.829183
vt 0.393454 0.821825
vt 0.360276 0.842652
vt 0.354966 0.837449
vt 0.393455 0.829183
vt 0.431942 0.837449
vt 0.426633 0.842652
vt 0.431942 0.837449
vt 0.393455 0.829183
vt 0.393454 0.821825
vt 0.440377 0.875168
vt 0.431942 0.837449
vt 0.447884 0.875168
vt 0.431942 0.837449
vt 0.440377 0.875168
vt 0.426633 0.842652
vt 0.431942 0.912887
vt 0.440377 0.875168
vt 0.447884 0.875168
vt 0.440377 0.875168
vt 0.431942 0.912887
vt 0.426633 0.907685
vt 0.393454 0.928512
vt 0.426633 0.907685
vt 0.431942 0.912887
vt 0.426633 0.907685
vt 0.393454 0.928512
vt 0.393455 0.921153
vt 0.502314 0.797913
vt 0.393454 0.821825
vt 0.327763 0.829183
vt 0.327763 0.921153
vt 0.339024 0.875168
vt 0.354966 0.912887
vt 0.339024 0.875168
vt 0.327763 0.921153
vt 0.320255 0.889883
vt 0.320255 0.889883
vt 0.354966 0.837449
vt 0.339024 0.875168
vt 0.354966 0.837449
vt 0.320255 0.889883
vt 0.320255 0.860453
vt 0.440377 0.875168
vt 0.393455 0.829183
vt 0.426633 0.842652
vt 0.393455 0.829183
vt 0.440377 0.875168
vt 0.360276 0.842652
vt 0.426633 0.907685
vt 0.360276 0.842652
vt 0.440377 0.875168
vt 0.360276 0.842652
vt 0.426633 0.907685
vt 0.346532 0.875168
vt 0.360276 0.907685
vt 0.426633 0.907685
vt 0.393455 0.921153
vt 0.426633 0.907685
vt 0.360276 0.907685
vt 0.346532 0.875168
usemtl acmat_0
f 53/1/1 35/2/2 2/3/3
f 62/4/4 64/5/5 21/6/6
f 58/7/7 60/8/8 38/9/9
f 36/10/10 56/11/11 3/12/12
f 9/13/13 5/14/14 71/15/15
f 37/16/16 65/17/17 50/18/18
f 37/19/19 48/20/20 65/21/21
f 48/22/22 66/23/23 65/24/24
f 9/25/25 71/26/26 26/27/27
f 4/28/28 2/29/29 3/30/30
f 2/31/31 4/32/32 1/33/33
f 1/34/34 6/35/35 2/36/36
f 6/37/37 1/38/38 5/39/39
f 6/40/40 7/41/41 8/42/42
f 7/43/43 6/44/44 9/45/45
f 8/46/46 7/47/47 10/48/48
f 10/49/49 11/50/50 12/51/51
f 11/52/52 10/53/53 7/54/54
f 12/55/55 13/56/56 14/57/57
f 13/58/58 12/59/59 11/60/60
f 15/61/61 14/62/62 13/63/63
f 14/64/64 15/65/65 16/66/66
f 16/67/67 12/68/68 14/69/69
f 12/70/70 16/71/71 17/72/72
f 12/73/73 18/74/74 10/75/75
f 18/76/76 12/77/77 17/78/78
f 18/79/79 8/80/80 10/81/81
f 8/82/82 18/83/83 19/84/84
f 19/85/85 6/86/86 8/87/87
f 6/88/88 19/89/89 20/90/90
f 20/91/91 2/92/92 6/93/93
f 2/94/94 20/95/95 21/96/96
f 22/97/97 13/98/98 11/99/99
f 13/100/100 22/101/101 15/102/102
f 23/103/103 11/104/104 7/105/105
f 11/106/106 23/107/107 22/108/108
f 23/109/109 9/110/110 24/111/111
f 9/112/112 23/113/113 7/114/114
f 24/115/115 26/116/116 25/117/117
f 26/118/118 24/119/119 9/120/120
f 25/121/121 28/122/122 27/123/123
f 28/124/124 25/125/125 26/126/126
f 31/127/127 29/128/128 30/129/129
f 29/130/130 31/131/131 32/132/132
f 34/133/133 30/134/134 33/135/135
f 30/136/136 34/137/137 31/138/138
f 3/139/139 35/140/140 36/141/141
f 35/142/142 3/143/143 2/144/144
f 38/145/145 37/146/146 3/147/147
f 37/148/148 38/149/149 39/150/150
f 39/151/151 40/152/152 37/153/153
f 40/154/154 39/155/155 41/156/156
f 41/157/157 42/158/158 40/159/159
f 42/160/160 41/161/161 43/162/162
f 42/163/163 45/164/164 44/165/165
f 45/166/166 42/167/167 43/168/168
f 45/169/169 46/170/170 44/171/171
f 46/172/172 45/173/173 47/174/174
f 47/175/175 33/176/176 46/177/177
f 33/178/178 47/179/179 34/180/180
f 27/181/181 48/182/182 49/183/183
f 48/184/184 27/185/185 28/186/186
f 49/187/187 29/188/188 32/189/189
f 29/190/190 49/191/191 48/192/192
f 37/193/193 4/194/194 3/195/195
f 4/196/196 37/197/197 50/198/198
f 29/199/199 37/200/200 40/201/201
f 37/202/202 29/203/203 48/204/204
f 40/205/205 42/206/206 29/207/207
f 30/208/208 42/209/209 44/210/210
f 42/211/211 30/212/212 29/213/213
f 33/214/214 44/215/215 46/216/216
f 44/217/217 33/218/218 30/219/219
f 51/220/220 35/221/221 53/222/222
f 35/223/223 51/224/224 52/225/225
f 52/226/226 36/227/227 35/228/228
f 36/229/229 52/230/230 54/231/231
f 54/232/232 56/233/233 36/234/234
f 56/235/235 54/236/236 55/237/237
f 57/238/238 56/239/239 55/240/240
f 56/241/241 57/242/242 58/243/243
f 57/244/244 60/245/245 58/246/246
f 60/247/247 57/248/248 59/249/249
f 59/250/250 62/251/251 60/252/252
f 62/253/253 59/254/254 61/255/255
f 61/256/256 64/257/257 62/258/258
f 64/259/259 61/260/260 63/261/261
f 64/262/262 51/263/263 53/264/264
f 51/265/265 64/266/266 63/267/267
f 52/268/268 55/269/269 54/270/270
f 55/271/271 52/272/272 51/273/273
f 51/274/274 57/275/275 55/276/276
f 57/277/277 51/278/278 63/279/279
f 57/280/280 61/281/281 59/282/282
f 61/283/283 57/284/284 63/285/285
f 2/286/286 64/287/287 53/288/288
f 64/289/289 2/290/290 21/291/291
f 62/292/292 38/293/293 60/294/294
f 38/295/295 62/296/296 21/297/297
f 56/298/298 38/299/299 3/300/300
f 38/301/301 56/302/302 58/303/303
f 65/304/304 67/305/305 68/306/306
f 67/307/307 65/308/308 66/309/309
f 66/310/310 70/311/311 67/312/312
f 70/313/313 66/314/314 69/315/315
f 70/316/316 71/317/317 72/318/318
f 71/319/319 70/320/320 69/321/321
f 72/322/322 5/323/323 73/324/324
f 5/325/325 72/326/326 71/327/327
f 73/328/328 1/329/329 74/330/330
f 1/331/331 73/332/332 5/333/333
f 75/334/334 1/335/335 4/336/336
f 1/337/337 75/338/338 74/339/339
f 50/340/340 75/341/341 4/342/342
f 75/343/343 50/344/344 76/345/345
f 65/346/346 76/347/347 50/348/348
f 76/349/349 65/350/350 68/351/351
f 6/352/352 5/353/353 9/354/354
f 48/355/355 69/356/356 66/357/357
f 69/358/358 48/359/359 28/360/360
f 28/361/361 71/362/362 69/363/363
f 71/364/364 28/365/365 26/366/366
f 75/367/367 73/368/368 74/369/369
f 73/370/370 75/371/371 72/372/372
f 76/373/373 72/374/374 75/375/375
f 72/376/376 76/377/377 70/378/378
f 67/379/379 76/380/380 68/381/381
f 76/382/382 67/383/383 70/384/384
