  0
SECTION
  2
HEADER
  9
$ACADVER
  1
AC1009
  9
$INSBASE
 10
0.0
 20
0.0
 30
0.0
  9
$EXTMIN
 10
-1.0000000000000011
 20
-11.949999999999999
 30
-0.6800000000000002
  9
$EXTMAX
 10
0.8000000000000002
 20
11.34
 30
10.89282178217821
  9
$LIMMIN
 10
0.0
 20
0.0
  9
$LIMMAX
 10
420.0
 20
297.0
  9
$ORTHOMODE
 70
     1
  9
$REGENMODE
 70
     1
  9
$FILLMODE
 70
     1
  9
$QTEXTMODE
 70
     0
  9
$MIRRTEXT
 70
     1
  9
$DRAGMODE
 70
     2
  9
$LTSCALE
 40
1.0
  9
$OSMODE
 70
    35
  9
$ATTMODE
 70
     1
  9
$TEXTSIZE
 40
2.5
  9
$TRACEWID
 40
1.0
  9
$TEXTSTYLE
  7
STANDARD
  9
$CLAYER
  8
TURRET
  9
$CELTYPE
  6
BYLAYER
  9
$CECOLOR
 62
   256
  9
$DIMSCALE
 40
1.0
  9
$DIMASZ
 40
2.5
  9
$DIMEXO
 40
0.625
  9
$DIMDLI
 40
3.75
  9
$DIMRND
 40
0.0
  9
$DIMDLE
 40
0.0
  9
$DIMEXE
 40
1.25
  9
$DIMTP
 40
0.0
  9
$DIMTM
 40
0.0
  9
$DIMTXT
 40
2.5
  9
$DIMCEN
 40
2.5
  9
$DIMTSZ
 40
0.0
  9
$DIMTOL
 70
     0
  9
$DIMLIM
 70
     0
  9
$DIMTIH
 70
     0
  9
$DIMTOH
 70
     0
  9
$DIMSE1
 70
     0
  9
$DIMSE2
 70
     0
  9
$DIMTAD
 70
     1
  9
$DIMZIN
 70
     8
  9
$DIMBLK
  1

  9
$DIMASO
 70
     1
  9
$DIMSHO
 70
     1
  9
$DIMPOST
  1

  9
$DIMAPOST
  1

  9
$DIMALT
 70
     0
  9
$DIMALTD
 70
     3
  9
$DIMALTF
 40
0.03937007874016
  9
$DIMLFAC
 40
1.0
  9
$DIMTOFL
 70
     1
  9
$DIMTVP
 40
0.0
  9
$DIMTIX
 70
     0
  9
$DIMSOXD
 70
     0
  9
$DIMSAH
 70
     0
  9
$DIMBLK1
  1

  9
$DIMBLK2
  1

  9
$DIMSTYLE
  2
ISO-25
  9
$DIMCLRD
 70
     0
  9
$DIMCLRE
 70
     0
  9
$DIMCLRT
 70
     0
  9
$DIMTFAC
 40
1.0
  9
$DIMGAP
 40
0.625
  9
$LUNITS
 70
     2
  9
$LUPREC
 70
     4
  9
$SKETCHINC
 40
1.0
  9
$FILLETRAD
 40
10.0
  9
$AUNITS
 70
     0
  9
$AUPREC
 70
     0
  9
$MENU
  1
.
  9
$ELEVATION
 40
0.0
  9
$PELEVATION
 40
0.0
  9
$THICKNESS
 40
0.0
  9
$LIMCHECK
 70
     0
  9
$BLIPMODE
 70
     0
  9
$CHAMFERA
 40
10.0
  9
$CHAMFERB
 40
10.0
  9
$SKPOLY
 70
     0
  9
$TDCREATE
 40
2457028.9060147912
  9
$TDUPDATE
 40
2457030.033592673
  9
$TDINDWG
 40
0.2270574537
  9
$TDUSRTIMER
 40
0.2270574421
  9
$USRTIMER
 70
     1
  9
$ANGBASE
 50
0.0
  9
$ANGDIR
 70
     0
  9
$PDMODE
 70
     0
  9
$PDSIZE
 40
0.0
  9
$PLINEWID
 40
0.0
  9
$COORDS
 70
     1
  9
$SPLFRAME
 70
     0
  9
$SPLINETYPE
 70
     6
  9
$SPLINESEGS
 70
     8
  9
$ATTDIA
 70
     1
  9
$ATTREQ
 70
     1
  9
$HANDLING
 70
-16383
  9
$HANDSEED
  5
B04
  9
$SURFTAB1
 70
     6
  9
$SURFTAB2
 70
     6
  9
$SURFTYPE
 70
     6
  9
$SURFU
 70
     6
  9
$SURFV
 70
     6
  9
$UCSNAME
  2

  9
$UCSORG
 10
0.0
 20
0.0
 30
0.0
  9
$UCSXDIR
 10
0.0
 20
-1.0
 30
0.0
  9
$UCSYDIR
 10
0.0
 20
0.0
 30
1.0
  9
$PUCSNAME
  2

  9
$PUCSORG
 10
0.0
 20
0.0
 30
0.0
  9
$PUCSXDIR
 10
1.0
 20
0.0
 30
0.0
  9
$PUCSYDIR
 10
0.0
 20
1.0
 30
0.0
  9
$USERI1
 70
     0
  9
$USERI2
 70
     0
  9
$USERI3
 70
     0
  9
$USERI4
 70
     0
  9
$USERI5
 70
     0
  9
$USERR1
 40
0.0
  9
$USERR2
 40
0.0
  9
$USERR3
 40
0.0
  9
$USERR4
 40
0.0
  9
$USERR5
 40
0.0
  9
$WORLDVIEW
 70
     1
  9
$SHADEDGE
 70
     3
  9
$SHADEDIF
 70
    70
  9
$TILEMODE
 70
     1
  9
$MAXACTVP
 70
    64
  9
$PLIMCHECK
 70
     0
  9
$PEXTMIN
 10
27.844751262664801
 20
20.161249995231621
 30
0.0
  9
$PEXTMAX
 10
250.60276136398309
 20
181.4512499570846
 30
0.0
  9
$PLIMMIN
 10
-3.757080078125
 20
-3.7570831775665279
  9
$PLIMMAX
 10
293.21124267578119
 20
206.21624445915219
  9
$UNITMODE
 70
     0
  9
$VISRETAIN
 70
     1
  9
$PLINEGEN
 70
     0
  9
$PSLTSCALE
 70
     1
  0
ENDSEC
  0
SECTION
  2
TABLES
  0
TABLE
  2
VPORT
 70
    18
  0
VPORT
  2
*ACTIVE
 70
     0
 10
0.0
 20
0.0
 11
1.0
 21
1.0
 12
0.6636655786065866
 22
0.1985733570995689
 13
0.0
 23
0.0
 14
0.01
 24
0.01
 15
1.0
 25
1.0
 16
-1.0
 26
0.0
 36
0.0
 17
0.0
 27
0.0
 37
0.0
 40
2.9357209247275109
 41
2.2487980769230771
 42
50.0
 43
0.0
 44
0.0
 50
0.0
 51
0.0
 71
     0
 72
   100
 73
     1
 74
     3
 75
     1
 76
     1
 77
     0
 78
     0
  0
ENDTAB
  0
TABLE
  2
LTYPE
 70
     1
  0
LTYPE
  2
CONTINUOUS
 70
     0
  3
Solid line
 72
    65
 73
     0
 40
0.0
  0
ENDTAB
  0
TABLE
  2
LAYER
 70
     9
  0
LAYER
  2
0
 70
     0
 62
     7
  6
CONTINUOUS
  0
LAYER
  2
DRAWING
 70
     0
 62
     9
  6
CONTINUOUS
  0
LAYER
  2
SLEEVE
 70
     0
 62
     5
  6
CONTINUOUS
  0
LAYER
  2
GUN
 70
     0
 62
     1
  6
CONTINUOUS
  0
LAYER
  2
TURRET
 70
     0
 62
     2
  6
CONTINUOUS
  0
LAYER
  2
TMP
 70
     0
 62
     4
  6
CONTINUOUS
  0
LAYER
  2
TRAIL
 70
     0
 62
     6
  6
CONTINUOUS
  0
LAYER
  2
WHEELS
 70
     0
 62
     2
  6
CONTINUOUS
  0
LAYER
  2
W1
 70
     0
 62
     3
  6
CONTINUOUS
  0
ENDTAB
  0
TABLE
  2
STYLE
 70
     1
  0
STYLE
  2
STANDARD
 70
     0
 40
0.0
 41
1.0
 50
0.0
 71
     0
 42
2.5
  3
txt
  4

  0
ENDTAB
  0
TABLE
  2
VIEW
 70
     0
  0
ENDTAB
  0
TABLE
  2
UCS
 70
     0
  0
ENDTAB
  0
TABLE
  2
APPID
 70
     1
  0
APPID
  2
ACAD
 70
     0
  0
ENDTAB
  0
TABLE
  2
DIMSTYLE
 70
     1
  0
DIMSTYLE
  2
ISO-25
 70
     0
  3

  4

  5

  6

  7

 40
1.0
 41
2.5
 42
0.625
 43
3.75
 44
1.25
 45
0.0
 46
0.0
 47
0.0
 48
0.0
140
2.5
141
2.5
142
0.0
143
0.03937007874016
144
1.0
145
0.0
146
1.0
147
0.625
 71
     0
 72
     0
 73
     0
 74
     0
 75
     0
 76
     0
 77
     1
 78
     8
170
     0
171
     3
172
     1
173
     0
174
     0
175
     0
176
     0
177
     0
178
     0
  0
ENDTAB
  0
ENDSEC
  0
SECTION
  2
BLOCKS
  0
BLOCK
  8
0
  2
$MODEL_SPACE
 70
     0
 10
0.0
 20
0.0
 30
0.0
  3
$MODEL_SPACE
  1

  0
ENDBLK
  5
21
  8
0
  0
BLOCK
 67
     1
  8
0
  2
$PAPER_SPACE
 70
     0
 10
0.0
 20
0.0
 30
0.0
  3
$PAPER_SPACE
  1

  0
ENDBLK
  5
1D
 67
     1
  8
0
  0
ENDSEC
  0
SECTION
  2
ENTITIES
  0
3DFACE
  5
2FA
  8
TURRET
 10
-0.09
 20
0.01
 30
0.1399999999999999
 11
-0.09
 21
0.0599999999999999
 31
0.03
 12
-0.14
 22
0.0599999999999999
 32
0.03
 13
-0.14
 23
0.0100000000000001
 33
0.1399999999999999
  0
3DFACE
  5
2FB
  8
TURRET
 10
-0.14
 20
0.0100000000000001
 30
0.1399999999999999
 11
-0.14
 21
0.0599999999999999
 31
0.03
 12
-0.14
 22
-0.05
 32
0.0
 13
-0.14
 23
-0.05
 33
0.1399999999999999
  0
3DFACE
  5
2FC
  8
TURRET
 10
-0.09
 20
-0.05
 30
0.03
 11
-0.09
 21
0.0599999999999999
 31
0.03
 12
-0.09
 22
0.01
 32
0.1399999999999999
 13
-0.09
 23
-0.05
 33
0.1399999999999999
  0
3DFACE
  5
2FD
  8
TURRET
 10
-0.14
 20
-0.05
 30
0.1399999999999999
 11
-0.14
 21
-0.05
 31
0.0
 12
-0.09
 22
-0.05
 32
0.03
 13
-0.09
 23
-0.05
 33
0.1399999999999999
  0
3DFACE
  5
31C
  8
TURRET
 10
-0.14
 20
0.0100000000000001
 30
0.1399999999999999
 11
-0.14
 21
0.0012132034355965
 31
0.1612132034355964
 12
-0.09
 22
0.0012132034355965
 32
0.1612132034355964
 13
-0.09
 23
0.01
 33
0.1399999999999999
  0
3DFACE
  5
31D
  8
TURRET
 10
-0.14
 20
0.0012132034355965
 30
0.1612132034355964
 11
-0.14
 21
-0.02
 31
0.1699999999999999
 12
-0.09
 22
-0.02
 32
0.1699999999999999
 13
-0.09
 23
0.0012132034355965
 33
0.1612132034355964
  0
3DFACE
  5
31E
  8
TURRET
 10
-0.14
 20
-0.02
 30
0.1699999999999999
 11
-0.14
 21
-0.0412132034355965
 31
0.1612132034355964
 12
-0.09
 22
-0.0412132034355965
 32
0.1612132034355964
 13
-0.09
 23
-0.02
 33
0.1699999999999999
  0
3DFACE
  5
31F
  8
TURRET
 10
-0.14
 20
-0.0412132034355965
 30
0.1612132034355964
 11
-0.14
 21
-0.05
 31
0.1399999999999999
 12
-0.09
 22
-0.05
 32
0.1399999999999999
 13
-0.09
 23
-0.0412132034355965
 33
0.1612132034355964
  0
3DFACE
  5
324
  8
TURRET
 10
-0.14
 20
0.0599999999999999
 30
0.03
 11
-0.14
 21
0.0599999999999999
 31
0.0
 12
-0.14
 22
-0.05
 32
0.0
 13
-0.14
 23
-0.05
 33
0.0
  0
3DFACE
  5
325
  8
TURRET
 10
0.14
 20
0.0599999999999998
 30
0.03
 11
0.14
 21
0.0599999999999998
 31
0.0
 12
-0.14
 22
0.0599999999999999
 32
0.0
 13
-0.14
 23
0.0599999999999999
 33
0.03
  0
3DFACE
  5
326
  8
TURRET
 10
-0.09
 20
-0.05
 30
0.03
 11
-0.14
 21
-0.05
 31
0.0
 12
0.14
 22
-0.0500000000000001
 32
0.0
 13
0.09
 23
-0.0500000000000001
 33
0.03
  0
3DFACE
  5
327
  8
TURRET
 10
0.14
 20
-0.0500000000000001
 30
0.0
 11
0.14
 21
0.0599999999999998
 31
0.0
 12
0.14
 22
0.0599999999999998
 32
0.03
 13
0.14
 23
-0.0500000000000001
 33
0.0
  0
3DFACE
  5
328
  8
TURRET
 10
-0.14
 20
-0.05
 30
0.0
 11
-0.14
 21
0.0599999999999999
 31
0.0
 12
0.14
 22
0.0599999999999998
 32
0.0
 13
0.14
 23
-0.0500000000000001
 33
0.0
  0
3DFACE
  5
329
  8
TURRET
 10
0.09
 20
-0.0500000000000001
 30
0.03
 11
0.09
 21
0.0599999999999998
 31
0.03
 12
-0.09
 22
0.0599999999999999
 32
0.03
 13
-0.09
 23
-0.05
 33
0.03
  0
3DFACE
  5
32B
  8
TURRET
 10
0.09
 20
0.01
 30
0.1399999999999999
 11
0.09
 21
0.0599999999999998
 31
0.03
 12
0.09
 22
-0.0500000000000001
 32
0.03
 13
0.09
 23
-0.0500000000000001
 33
0.1399999999999999
  0
3DFACE
  5
32C
  8
TURRET
 10
0.14
 20
0.01
 30
0.1399999999999999
 11
0.14
 21
0.0599999999999998
 31
0.03
 12
0.09
 22
0.0599999999999998
 32
0.03
 13
0.09
 23
0.01
 33
0.1399999999999999
  0
3DFACE
  5
32D
  8
TURRET
 10
0.09
 20
-0.0500000000000001
 30
0.1399999999999999
 11
0.09
 21
-0.0500000000000001
 31
0.03
 12
0.14
 22
-0.0500000000000001
 32
0.0
 13
0.14
 23
-0.0500000000000001
 33
0.1399999999999999
  0
3DFACE
  5
32E
  8
TURRET
 10
0.14
 20
-0.0500000000000001
 30
0.0
 11
0.14
 21
0.0599999999999998
 31
0.03
 12
0.14
 22
0.01
 32
0.1399999999999999
 13
0.14
 23
-0.0500000000000001
 33
0.1399999999999999
  0
3DFACE
  5
336
  8
TURRET
 10
0.09
 20
-0.0412132034355965
 30
0.1612132034355964
 11
0.09
 21
-0.0500000000000001
 31
0.1399999999999999
 12
0.14
 22
-0.0500000000000001
 32
0.1399999999999999
 13
0.14
 23
-0.0412132034355965
 33
0.1612132034355964
  0
3DFACE
  5
337
  8
TURRET
 10
0.09
 20
-0.02
 30
0.1699999999999999
 11
0.09
 21
-0.0412132034355965
 31
0.1612132034355964
 12
0.14
 22
-0.0412132034355965
 32
0.1612132034355964
 13
0.14
 23
-0.02
 33
0.1699999999999999
  0
3DFACE
  5
338
  8
TURRET
 10
0.09
 20
0.0012132034355965
 30
0.1612132034355964
 11
0.09
 21
-0.02
 31
0.1699999999999999
 12
0.14
 22
-0.02
 32
0.1699999999999999
 13
0.14
 23
0.0012132034355965
 33
0.1612132034355964
  0
3DFACE
  5
339
  8
TURRET
 10
0.09
 20
0.01
 30
0.1399999999999999
 11
0.09
 21
0.0012132034355965
 31
0.1612132034355964
 12
0.14
 22
0.0012132034355965
 32
0.1612132034355964
 13
0.14
 23
0.01
 33
0.1399999999999999
  0
3DFACE
  5
33D
  8
TURRET
 10
0.14
 20
-0.0500000000000001
 30
0.1399999999999999
 11
0.14
 21
0.01
 31
0.1399999999999999
 12
0.14
 22
0.0012132034355965
 32
0.1612132034355964
 13
0.14
 23
-0.0412132034355965
 33
0.1612132034355964
  0
3DFACE
  5
33E
  8
TURRET
 10
0.14
 20
-0.0412132034355965
 30
0.1612132034355964
 11
0.14
 21
0.0012132034355965
 31
0.1612132034355964
 12
0.14
 22
-0.02
 32
0.1699999999999999
 13
0.14
 23
-0.02
 33
0.1699999999999999
  0
3DFACE
  5
33F
  8
TURRET
 10
-0.14
 20
0.0012132034355965
 30
0.1612132034355964
 11
-0.14
 21
0.0100000000000001
 31
0.1399999999999999
 12
-0.14
 22
-0.05
 32
0.1399999999999999
 13
-0.14
 23
-0.0412132034355965
 33
0.1612132034355964
  0
3DFACE
  5
340
  8
TURRET
 10
-0.14
 20
-0.02
 30
0.1699999999999999
 11
-0.14
 21
0.0012132034355965
 31
0.1612132034355964
 12
-0.14
 22
-0.0412132034355965
 32
0.1612132034355964
 13
-0.14
 23
-0.02
 33
0.1699999999999999
  0
3DFACE
  5
343
  8
TURRET
 10
0.11
 20
-0.1098837209302323
 30
0.0700000000000001
 11
0.6600000000000001
 21
-0.1500000000000002
 31
-0.1599999999999999
 12
-0.6600000000000001
 22
-0.15
 32
-0.1599999999999999
 13
-0.11
 23
-0.1098837209302323
 33
0.0700000000000001
  0
3DFACE
  5
344
  8
TURRET
 10
-0.6600000000000001
 20
0.0000000000000001
 30
0.7000000000000001
 11
-0.6600000000000001
 21
-0.15
 31
-0.1599999999999999
 12
-0.6600000000000001
 22
-0.17
 32
-0.1599999999999999
 13
-0.6600000000000001
 23
-0.0199999999999999
 33
0.7000000000000001
  0
3DFACE
  5
345
  8
TURRET
 10
0.6600000000000001
 20
-0.1700000000000002
 30
-0.1599999999999999
 11
0.6600000000000001
 21
-0.1500000000000002
 31
-0.1599999999999999
 12
0.6600000000000001
 22
-0.0000000000000001
 32
0.7000000000000001
 13
0.6600000000000001
 23
-0.0200000000000001
 33
0.7000000000000001
  0
3DFACE
  5
346
  8
TURRET
 10
-0.11
 20
-0.1298837209302323
 30
0.0700000000000001
 11
-0.6600000000000001
 21
-0.17
 31
-0.1599999999999999
 12
0.6600000000000001
 22
-0.1700000000000002
 32
-0.1599999999999999
 13
0.11
 23
-0.1298837209302324
 33
0.0700000000000001
  0
3DFACE
  5
347
  8
TURRET
 10
-0.6600000000000001
 20
-0.17
 30
-0.1599999999999999
 11
-0.6600000000000001
 21
-0.15
 31
-0.1599999999999999
 12
0.6600000000000001
 22
-0.1500000000000002
 32
-0.1599999999999999
 13
0.6600000000000001
 23
-0.1700000000000002
 33
-0.1599999999999999
  0
3DFACE
  5
34B
  8
TURRET
 10
0.6600000000000001
 20
-0.0200000000000001
 30
0.7000000000000001
 11
0.6600000000000001
 21
-0.0000000000000001
 31
0.7000000000000001
 12
0.6600000000000001
 22
0.0599999999999998
 32
0.8199999999999997
 13
0.6600000000000001
 23
0.0399999999999998
 33
0.8199999999999997
  0
3DFACE
  5
34C
  8
TURRET
 10
0.6600000000000001
 20
0.0599999999999998
 30
0.8199999999999997
 11
0.6600000000000001
 21
-0.0000000000000001
 31
0.7000000000000001
 12
-0.6600000000000001
 22
0.0000000000000001
 32
0.7000000000000001
 13
-0.6600000000000001
 23
0.0599999999999999
 33
0.8199999999999997
  0
3DFACE
  5
34D
  8
TURRET
 10
-0.6600000000000001
 20
0.0599999999999999
 30
0.8199999999999997
 11
-0.6600000000000001
 21
0.0000000000000001
 31
0.7000000000000001
 12
-0.6600000000000001
 22
-0.0199999999999999
 32
0.7000000000000001
 13
-0.6600000000000001
 23
0.0399999999999999
 33
0.8199999999999997
  0
3DFACE
  5
34E
  8
TURRET
 10
-0.6600000000000001
 20
0.0399999999999999
 30
0.8199999999999997
 11
-0.6600000000000001
 21
-0.0199999999999999
 31
0.7000000000000001
 12
0.6600000000000001
 22
-0.0200000000000001
 32
0.7000000000000001
 13
0.6600000000000001
 23
0.0399999999999998
 33
0.8199999999999997
  0
3DFACE
  5
352
  8
TURRET
 10
-0.6600000000000001
 20
0.07
 30
0.8599999999999997
 11
-0.6600000000000001
 21
0.0399999999999999
 31
0.8199999999999997
 12
-0.55
 22
0.0399999999999999
 32
0.8199999999999997
 13
-0.55
 23
0.0699999999999999
 33
0.8599999999999997
  0
3DFACE
  5
353
  8
TURRET
 10
0.6600000000000001
 20
0.0399999999999998
 30
0.8199999999999997
 11
0.6600000000000001
 21
0.0599999999999998
 31
0.8199999999999997
 12
0.6600000000000001
 22
0.0899999999999998
 32
0.8599999999999997
 13
0.6600000000000001
 23
0.0699999999999998
 33
0.8599999999999997
  0
3DFACE
  5
354
  8
TURRET
 10
-0.55
 20
0.09
 30
0.8599999999999997
 11
-0.55
 21
0.0599999999999999
 31
0.8199999999999997
 12
-0.6600000000000001
 22
0.0599999999999999
 32
0.8199999999999997
 13
-0.6600000000000001
 23
0.09
 33
0.8599999999999997
  0
3DFACE
  5
355
  8
TURRET
 10
-0.6600000000000001
 20
0.09
 30
0.8599999999999997
 11
-0.6600000000000001
 21
0.0599999999999999
 31
0.8199999999999997
 12
-0.6600000000000001
 22
0.0399999999999999
 32
0.8199999999999997
 13
-0.6600000000000001
 23
0.07
 33
0.8599999999999997
  0
3DFACE
  5
359
  8
TURRET
 10
-0.6600000000000001
 20
0.11
 30
0.8999999999999998
 11
-0.6600000000000001
 21
0.07
 31
0.8599999999999997
 12
-0.55
 22
0.0699999999999999
 32
0.8599999999999997
 13
-0.55
 23
0.1099999999999999
 33
0.8999999999999998
  0
3DFACE
  5
35A
  8
TURRET
 10
-0.55
 20
0.13
 30
0.8999999999999998
 11
-0.55
 21
0.09
 31
0.8599999999999997
 12
-0.6600000000000001
 22
0.09
 32
0.8599999999999997
 13
-0.6600000000000001
 23
0.13
 33
0.8999999999999998
  0
3DFACE
  5
35B
  8
TURRET
 10
0.6600000000000001
 20
0.0699999999999998
 30
0.8599999999999997
 11
0.6600000000000001
 21
0.0899999999999998
 31
0.8599999999999997
 12
0.6600000000000001
 22
0.1299999999999998
 32
0.8999999999999998
 13
0.6600000000000001
 23
0.1099999999999998
 33
0.8999999999999998
  0
3DFACE
  5
35C
  8
TURRET
 10
-0.6600000000000001
 20
0.13
 30
0.8999999999999998
 11
-0.6600000000000001
 21
0.09
 31
0.8599999999999997
 12
-0.6600000000000001
 22
0.07
 32
0.8599999999999997
 13
-0.6600000000000001
 23
0.11
 33
0.8999999999999998
  0
3DFACE
  5
360
  8
TURRET
 10
-0.55
 20
0.21
 30
0.95
 11
-0.55
 21
0.13
 31
0.8999999999999998
 12
-0.6600000000000001
 22
0.13
 32
0.8999999999999998
 13
-0.6600000000000001
 23
0.21
 33
0.95
  0
3DFACE
  5
361
  8
TURRET
 10
0.6600000000000001
 20
0.1099999999999998
 30
0.8999999999999998
 11
0.6600000000000001
 21
0.1299999999999998
 31
0.8999999999999998
 12
0.6600000000000001
 22
0.2099999999999999
 32
0.95
 13
0.6600000000000001
 23
0.2099999999999999
 33
0.9700000000000001
  0
3DFACE
  5
362
  8
TURRET
 10
-0.6600000000000001
 20
0.21
 30
0.95
 11
-0.6600000000000001
 21
0.13
 31
0.8999999999999998
 12
-0.6600000000000001
 22
0.11
 32
0.8999999999999998
 13
-0.6600000000000001
 23
0.21
 33
0.9700000000000001
  0
3DFACE
  5
363
  8
TURRET
 10
-0.6600000000000001
 20
0.21
 30
0.9700000000000001
 11
-0.6600000000000001
 21
0.11
 31
0.8999999999999998
 12
-0.55
 22
0.1099999999999999
 32
0.8999999999999998
 13
-0.55
 23
0.21
 33
0.9700000000000001
  0
3DFACE
  5
365
  8
TURRET
 10
-0.55
 20
0.21
 30
0.9700000000000001
 11
-0.55
 21
0.21
 31
0.95
 12
-0.6600000000000001
 22
0.21
 32
0.95
 13
-0.6600000000000001
 23
0.21
 33
0.9700000000000001
  0
3DFACE
  5
388
  8
TURRET
 10
-0.11
 20
-0.1298837209302323
 30
0.0700000000000001
 11
-0.11
 21
-0.1098837209302323
 31
0.0700000000000001
 12
-0.11
 22
-0.0331395348837209
 32
0.5100000000000002
 13
-0.11
 23
-0.0531395348837209
 33
0.5100000000000002
  0
3DFACE
  5
389
  8
TURRET
 10
0.11
 20
-0.1298837209302324
 30
0.0700000000000001
 11
0.11
 21
-0.1098837209302323
 31
0.0700000000000001
 12
-0.11
 22
-0.1098837209302323
 32
0.0700000000000001
 13
-0.11
 23
-0.1298837209302323
 33
0.0700000000000001
  0
3DFACE
  5
38A
  8
TURRET
 10
0.11
 20
-0.0531395348837209
 30
0.5100000000000002
 11
0.11
 21
-0.0331395348837209
 31
0.5100000000000002
 12
0.11
 22
-0.1098837209302323
 32
0.0700000000000001
 13
0.11
 23
-0.1298837209302324
 33
0.0700000000000001
  0
3DFACE
  5
38B
  8
TURRET
 10
0.04
 20
-0.0426744186046513
 30
0.5700000000000002
 11
0.04
 21
-0.0226744186046513
 31
0.5700000000000002
 12
0.11
 22
-0.0331395348837209
 32
0.5100000000000002
 13
0.11
 23
-0.0531395348837209
 33
0.5100000000000002
  0
3DFACE
  5
38C
  8
TURRET
 10
-0.04
 20
-0.0426744186046513
 30
0.5700000000000002
 11
-0.04
 21
-0.0226744186046512
 31
0.5700000000000002
 12
0.04
 22
-0.0226744186046513
 32
0.5700000000000002
 13
0.04
 23
-0.0426744186046513
 33
0.5700000000000002
  0
3DFACE
  5
38D
  8
TURRET
 10
-0.11
 20
-0.0531395348837209
 30
0.5100000000000002
 11
-0.11
 21
-0.0331395348837209
 31
0.5100000000000002
 12
-0.04
 22
-0.0226744186046512
 32
0.5700000000000002
 13
-0.04
 23
-0.0426744186046513
 33
0.5700000000000002
  0
3DFACE
  5
38E
  8
TURRET
 10
0.11
 20
-0.1298837209302324
 30
0.0700000000000001
 11
0.6600000000000001
 21
-0.1700000000000002
 31
-0.1599999999999999
 12
0.6600000000000001
 22
-0.0200000000000001
 32
0.7000000000000001
 13
0.11
 23
-0.0531395348837209
 33
0.5100000000000002
  0
3DFACE
  5
38F
  8
TURRET
 10
0.6600000000000001
 20
-0.1500000000000002
 30
-0.1599999999999999
 11
0.11
 21
-0.1098837209302323
 31
0.0700000000000001
 12
0.11
 22
-0.0331395348837209
 32
0.5100000000000002
 13
0.6600000000000001
 23
-0.0000000000000001
 33
0.7000000000000001
  0
3DFACE
  5
390
  8
TURRET
 10
-0.6600000000000001
 20
-0.0199999999999999
 30
0.7000000000000001
 11
-0.6600000000000001
 21
-0.17
 31
-0.1599999999999999
 12
-0.11
 22
-0.1298837209302323
 32
0.0700000000000001
 13
-0.11
 23
-0.0531395348837209
 33
0.5100000000000002
  0
3DFACE
  5
391
  8
TURRET
 10
-0.11
 20
-0.0331395348837209
 30
0.5100000000000002
 11
-0.11
 21
-0.1098837209302323
 31
0.0700000000000001
 12
-0.6600000000000001
 22
-0.15
 32
-0.1599999999999999
 13
-0.6600000000000001
 23
0.0000000000000001
 33
0.7000000000000001
  0
3DFACE
  5
392
  8
TURRET
 10
-0.6600000000000001
 20
-0.0199999999999999
 30
0.7000000000000001
 11
-0.04
 21
-0.0426744186046513
 31
0.5700000000000002
 12
0.04
 22
-0.0426744186046513
 32
0.5700000000000002
 13
0.6600000000000001
 23
-0.0200000000000001
 33
0.7000000000000001
  0
3DFACE
  5
393
  8
TURRET
 10
0.04
 20
-0.0426744186046513
 30
0.5700000000000002
 11
0.04
 21
-0.0426744186046513
 31
0.5700000000000002
 12
0.11
 22
-0.0531395348837209
 32
0.5100000000000002
 13
0.6600000000000001
 23
-0.0200000000000001
 33
0.7000000000000001
  0
3DFACE
  5
394
  8
TURRET
 10
-0.6600000000000001
 20
-0.0199999999999999
 30
0.7000000000000001
 11
-0.6600000000000001
 21
-0.0199999999999999
 31
0.7000000000000001
 12
-0.11
 22
-0.0531395348837209
 32
0.5100000000000002
 13
-0.04
 23
-0.0426744186046513
 33
0.5700000000000002
  0
3DFACE
  5
395
  8
TURRET
 10
0.6600000000000001
 20
-0.0000000000000001
 30
0.7000000000000001
 11
0.04
 21
-0.0226744186046513
 31
0.5700000000000002
 12
-0.04
 22
-0.0226744186046512
 32
0.5700000000000002
 13
-0.6600000000000001
 23
0.0000000000000001
 33
0.7000000000000001
  0
3DFACE
  5
396
  8
TURRET
 10
0.6600000000000001
 20
-0.0000000000000001
 30
0.7000000000000001
 11
0.11
 21
-0.0331395348837209
 31
0.5100000000000002
 12
0.11
 22
-0.0331395348837209
 32
0.5100000000000002
 13
0.04
 23
-0.0226744186046513
 33
0.5700000000000002
  0
3DFACE
  5
397
  8
TURRET
 10
-0.04
 20
-0.0226744186046512
 30
0.5700000000000002
 11
-0.11
 21
-0.0331395348837209
 31
0.5100000000000002
 12
-0.11
 22
-0.0331395348837209
 32
0.5100000000000002
 13
-0.6600000000000001
 23
0.0000000000000001
 33
0.7000000000000001
  0
3DFACE
  5
3A5
  8
TURRET
 10
0.6600000000000001
 20
0.2099999999999999
 30
0.9700000000000001
 11
0.6600000000000001
 21
0.2099999999999999
 31
0.95
 12
-0.11
 22
0.21
 32
0.95
 13
-0.11
 23
0.21
 33
0.9700000000000001
  0
3DFACE
  5
3A6
  8
TURRET
 10
-0.11
 20
0.21
 30
0.9700000000000001
 11
-0.11
 21
0.1099999999999999
 31
0.8999999999999998
 12
0.6600000000000001
 22
0.1099999999999998
 32
0.8999999999999998
 13
0.6600000000000001
 23
0.2099999999999999
 33
0.9700000000000001
  0
3DFACE
  5
3A7
  8
TURRET
 10
-0.11
 20
0.1099999999999999
 30
0.8999999999999998
 11
-0.11
 21
0.0699999999999999
 31
0.8599999999999997
 12
0.6600000000000001
 22
0.0699999999999998
 32
0.8599999999999997
 13
0.6600000000000001
 23
0.1099999999999998
 33
0.8999999999999998
  0
3DFACE
  5
3A8
  8
TURRET
 10
-0.11
 20
0.0699999999999999
 30
0.8599999999999997
 11
-0.11
 21
0.0399999999999999
 31
0.8199999999999997
 12
0.6600000000000001
 22
0.0399999999999998
 32
0.8199999999999997
 13
0.6600000000000001
 23
0.0699999999999998
 33
0.8599999999999997
  0
3DFACE
  5
3A9
  8
TURRET
 10
0.6600000000000001
 20
0.2099999999999999
 30
0.95
 11
0.6600000000000001
 21
0.1299999999999998
 31
0.8999999999999998
 12
-0.11
 22
0.1299999999999999
 32
0.8999999999999998
 13
-0.11
 23
0.21
 33
0.95
  0
3DFACE
  5
3AA
  8
TURRET
 10
0.6600000000000001
 20
0.1299999999999998
 30
0.8999999999999998
 11
0.6600000000000001
 21
0.0899999999999998
 31
0.8599999999999997
 12
-0.11
 22
0.0899999999999999
 32
0.8599999999999997
 13
-0.11
 23
0.1299999999999999
 33
0.8999999999999998
  0
3DFACE
  5
3AB
  8
TURRET
 10
0.6600000000000001
 20
0.0899999999999998
 30
0.8599999999999997
 11
0.6600000000000001
 21
0.0599999999999998
 31
0.8199999999999997
 12
-0.11
 22
0.0599999999999999
 32
0.8199999999999997
 13
-0.11
 23
0.0899999999999999
 33
0.8599999999999997
  0
3DFACE
  5
3AC
  8
TURRET
 10
-0.55
 20
0.1099999999999999
 30
0.8999999999999998
 11
-0.55
 21
0.13
 31
0.8999999999999998
 12
-0.55
 22
0.21
 32
0.95
 13
-0.55
 23
0.21
 33
0.9700000000000001
  0
3DFACE
  5
3AD
  8
TURRET
 10
-0.55
 20
0.0699999999999999
 30
0.8599999999999997
 11
-0.55
 21
0.09
 31
0.8599999999999997
 12
-0.55
 22
0.13
 32
0.8999999999999998
 13
-0.55
 23
0.1099999999999999
 33
0.8999999999999998
  0
3DFACE
  5
3AE
  8
TURRET
 10
-0.55
 20
0.0399999999999999
 30
0.8199999999999997
 11
-0.55
 21
0.0599999999999999
 31
0.8199999999999997
 12
-0.55
 22
0.09
 32
0.8599999999999997
 13
-0.55
 23
0.0699999999999999
 33
0.8599999999999997
  0
3DFACE
  5
3AF
  8
TURRET
 10
-0.11
 20
0.21
 30
0.9700000000000001
 11
-0.11
 21
0.21
 31
0.95
 12
-0.11
 22
0.1299999999999999
 32
0.8999999999999998
 13
-0.11
 23
0.1099999999999999
 33
0.8999999999999998
  0
3DFACE
  5
3B0
  8
TURRET
 10
-0.11
 20
0.1099999999999999
 30
0.8999999999999998
 11
-0.11
 21
0.1299999999999999
 31
0.8999999999999998
 12
-0.11
 22
0.0899999999999999
 32
0.8599999999999997
 13
-0.11
 23
0.0699999999999999
 33
0.8599999999999997
  0
3DFACE
  5
3B1
  8
TURRET
 10
-0.11
 20
0.0699999999999999
 30
0.8599999999999997
 11
-0.11
 21
0.0899999999999999
 31
0.8599999999999997
 12
-0.11
 22
0.0599999999999999
 32
0.8199999999999997
 13
-0.11
 23
0.0399999999999999
 33
0.8199999999999997
  0
3DFACE
  5
3B2
  8
TURRET
 10
-0.11
 20
0.0399999999999999
 30
0.8199999999999997
 11
-0.11
 21
0.0599999999999999
 31
0.8199999999999997
 12
-0.55
 22
0.0599999999999999
 32
0.8199999999999997
 13
-0.55
 23
0.0399999999999999
 33
0.8199999999999997
  0
3DFACE
  5
3DD
  8
TURRET
 10
-0.24
 20
-0.0093983519301663
 30
0.1295711156023085
 11
-0.2253553390593274
 21
-0.0442165639461671
 31
0.1357105058007573
 12
-0.2253553390593274
 22
0.0651817879839992
 32
0.7561393901984487
 13
-0.24
 23
0.0999999999999999
 33
0.75
  0
3DFACE
  5
3DE
  8
TURRET
 10
-0.2253553390593274
 20
-0.0442165639461671
 30
0.1357105058007573
 11
-0.1900000000000001
 21
-0.0586387395807768
 31
0.1382535244856551
 12
-0.1900000000000001
 22
0.0507596123493895
 32
0.7586824088833465
 13
-0.2253553390593274
 23
0.0651817879839992
 33
0.7561393901984487
  0
3DFACE
  5
3DF
  8
TURRET
 10
-0.1900000000000001
 20
-0.0586387395807768
 30
0.1382535244856551
 11
-0.1546446609406727
 21
-0.0442165639461671
 31
0.1357105058007573
 12
-0.1546446609406727
 22
0.0651817879839991
 32
0.7561393901984487
 13
-0.1900000000000001
 23
0.0507596123493895
 33
0.7586824088833465
  0
3DFACE
  5
3E0
  8
TURRET
 10
-0.1546446609406727
 20
-0.0442165639461671
 30
0.1357105058007573
 11
-0.1400000000000001
 21
-0.0093983519301663
 31
0.1295711156023085
 12
-0.14
 22
0.0999999999999999
 32
0.75
 13
-0.1546446609406727
 23
0.0651817879839991
 33
0.7561393901984487
  0
3DFACE
  5
3E1
  8
TURRET
 10
-0.1400000000000001
 20
-0.0093983519301663
 30
0.1295711156023085
 11
-0.1546446609406727
 21
0.0254198600858347
 31
0.1234317254038599
 12
-0.1546446609406727
 22
0.1348182120160009
 32
0.7438606098015512
 13
-0.14
 23
0.0999999999999999
 33
0.75
  0
3DFACE
  5
3E2
  8
TURRET
 10
-0.1546446609406727
 20
0.0254198600858347
 30
0.1234317254038599
 11
-0.1900000000000001
 21
0.0398420357204441
 31
0.1208887067189621
 12
-0.19
 22
0.1492403876506104
 32
0.7413175911166539
 13
-0.1546446609406727
 23
0.1348182120160009
 33
0.7438606098015512
  0
3DFACE
  5
3E3
  8
TURRET
 10
-0.1900000000000001
 20
0.0398420357204441
 30
0.1208887067189621
 11
-0.2253553390593274
 21
0.0254198600858347
 31
0.1234317254038599
 12
-0.2253553390593274
 22
0.1348182120160009
 32
0.7438606098015512
 13
-0.19
 23
0.1492403876506104
 33
0.7413175911166539
  0
3DFACE
  5
3E4
  8
TURRET
 10
-0.2253553390593274
 20
0.0254198600858347
 30
0.1234317254038599
 11
-0.24
 21
-0.0093983519301663
 31
0.1295711156023085
 12
-0.24
 22
0.0999999999999999
 32
0.75
 13
-0.2253553390593274
 23
0.1348182120160009
 33
0.7438606098015512
  0
3DFACE
  5
3E5
  8
TURRET
 10
0.14
 20
-0.0093983519301664
 30
0.1295711156023085
 11
0.1546446609406726
 21
-0.0442165639461671
 31
0.1357105058007573
 12
0.1546446609406726
 22
0.0651817879839991
 32
0.7561393901984487
 13
0.14
 23
0.0999999999999999
 33
0.75
  0
3DFACE
  5
3E6
  8
TURRET
 10
0.1546446609406726
 20
-0.0442165639461671
 30
0.1357105058007573
 11
0.19
 21
-0.0586387395807768
 31
0.1382535244856551
 12
0.19
 22
0.0507596123493894
 32
0.7586824088833465
 13
0.1546446609406726
 23
0.0651817879839991
 33
0.7561393901984487
  0
3DFACE
  5
3E7
  8
TURRET
 10
0.19
 20
-0.0586387395807768
 30
0.1382535244856551
 11
0.2253553390593273
 21
-0.0442165639461672
 31
0.1357105058007573
 12
0.2253553390593273
 22
0.0651817879839991
 32
0.7561393901984487
 13
0.19
 23
0.0507596123493894
 33
0.7586824088833465
  0
3DFACE
  5
3E8
  8
TURRET
 10
0.2253553390593273
 20
-0.0442165639461672
 30
0.1357105058007573
 11
0.24
 21
-0.0093983519301664
 31
0.1295711156023085
 12
0.24
 22
0.0999999999999999
 32
0.75
 13
0.2253553390593273
 23
0.0651817879839991
 33
0.7561393901984487
  0
3DFACE
  5
3E9
  8
TURRET
 10
0.24
 20
-0.0093983519301664
 30
0.1295711156023085
 11
0.2253553390593273
 21
0.0254198600858346
 31
0.1234317254038599
 12
0.2253553390593274
 22
0.1348182120160009
 32
0.7438606098015512
 13
0.24
 23
0.0999999999999999
 33
0.75
  0
3DFACE
  5
3EA
  8
TURRET
 10
0.2253553390593273
 20
0.0254198600858346
 30
0.1234317254038599
 11
0.19
 21
0.0398420357204441
 31
0.1208887067189621
 12
0.19
 22
0.1492403876506103
 32
0.7413175911166539
 13
0.2253553390593274
 23
0.1348182120160009
 33
0.7438606098015512
  0
3DFACE
  5
3EB
  8
TURRET
 10
0.19
 20
0.0398420357204441
 30
0.1208887067189621
 11
0.1546446609406726
 21
0.0254198600858346
 31
0.1234317254038599
 12
0.1546446609406727
 22
0.1348182120160009
 32
0.7438606098015512
 13
0.19
 23
0.1492403876506103
 33
0.7413175911166539
  0
3DFACE
  5
3EC
  8
TURRET
 10
0.1546446609406726
 20
0.0254198600858346
 30
0.1234317254038599
 11
0.14
 21
-0.0093983519301664
 31
0.1295711156023085
 12
0.14
 22
0.0999999999999999
 32
0.75
 13
0.1546446609406727
 23
0.1348182120160009
 33
0.7438606098015512
  0
3DFACE
  5
3ED
  8
TURRET
 10
0.24
 20
0.0999999999999999
 30
0.75
 11
0.2253553390593274
 21
0.1348182120160009
 31
0.7438606098015512
 12
0.19
 22
0.1492403876506103
 32
0.7413175911166539
 13
0.2253553390593273
 23
0.0651817879839991
 33
0.7561393901984487
  0
3DFACE
  5
3EE
  8
TURRET
 10
0.2253553390593273
 20
0.0651817879839991
 30
0.7561393901984487
 11
0.19
 21
0.1492403876506103
 31
0.7413175911166539
 12
0.1546446609406727
 22
0.1348182120160009
 32
0.7438606098015512
 13
0.19
 23
0.0507596123493894
 33
0.7586824088833465
  0
3DFACE
  5
3EF
  8
TURRET
 10
0.19
 20
0.0507596123493894
 30
0.7586824088833465
 11
0.1546446609406727
 21
0.1348182120160006
 31
0.7438606098015516
 12
0.14
 22
0.0999999999999999
 32
0.75
 13
0.1546446609406726
 23
0.0651817879839991
 33
0.7561393901984487
  0
3DFACE
  5
3F0
  8
TURRET
 10
-0.1900000000000001
 20
0.0507596123493895
 30
0.7586824088833465
 11
-0.2253553390593274
 21
0.1348182120160007
 31
0.7438606098015516
 12
-0.24
 22
0.0999999999999999
 32
0.75
 13
-0.2253553390593274
 23
0.0651817879839992
 33
0.7561393901984487
  0
3DFACE
  5
3F1
  8
TURRET
 10
-0.1546446609406727
 20
0.0651817879839991
 30
0.7561393901984487
 11
-0.19
 21
0.1492403876506104
 31
0.7413175911166539
 12
-0.2253553390593274
 22
0.1348182120160009
 32
0.7438606098015512
 13
-0.1900000000000001
 23
0.0507596123493895
 33
0.7586824088833465
  0
3DFACE
  5
3F2
  8
TURRET
 10
-0.14
 20
0.0999999999999999
 30
0.75
 11
-0.1546446609406727
 21
0.1348182120160009
 31
0.7438606098015512
 12
-0.19
 22
0.1492403876506104
 32
0.7413175911166539
 13
-0.1546446609406727
 23
0.0651817879839991
 33
0.7561393901984487
  0
3DFACE
  5
449
  8
TURRET
 10
0.5300000000000001
 20
0.3027272727272725
 30
0.0600000000000001
 11
0.55
 21
0.2754545454545452
 31
0.0800000000000001
 12
0.55
 22
0.0645454545454544
 32
0.6600000000000001
 13
0.5300000000000001
 23
0.0772727272727271
 33
0.6800000000000001
  0
3DFACE
  5
44A
  8
TURRET
 10
0.55
 20
0.2754545454545452
 30
0.0800000000000001
 11
0.5700000000000001
 21
0.3027272727272723
 31
0.0600000000000001
 12
0.5700000000000001
 22
0.0772727272727271
 32
0.6800000000000001
 13
0.55
 23
0.0645454545454544
 33
0.6600000000000001
  0
3DFACE
  5
44B
  8
TURRET
 10
0.5700000000000001
 20
0.3027272727272723
 30
0.0600000000000001
 11
0.55
 21
0.3299999999999996
 31
0.0400000000000003
 12
0.55
 22
0.0899999999999998
 32
0.7000000000000001
 13
0.5700000000000001
 23
0.0772727272727271
 33
0.6800000000000001
  0
3DFACE
  5
44C
  8
TURRET
 10
0.55
 20
0.3299999999999996
 30
0.0400000000000003
 11
0.5300000000000001
 21
0.3027272727272725
 31
0.0600000000000001
 12
0.5300000000000001
 22
0.0772727272727271
 32
0.6800000000000001
 13
0.55
 23
0.0899999999999998
 33
0.7000000000000001
  0
3DFACE
  5
44D
  8
TURRET
 10
-0.5700000000000001
 20
0.3027272727272726
 30
0.0600000000000001
 11
-0.55
 21
0.2754545454545453
 31
0.0800000000000001
 12
-0.55
 22
0.0645454545454546
 32
0.6600000000000001
 13
-0.5700000000000001
 23
0.0772727272727273
 33
0.6800000000000001
  0
3DFACE
  5
44E
  8
TURRET
 10
-0.55
 20
0.2754545454545453
 30
0.0800000000000001
 11
-0.5300000000000001
 21
0.3027272727272724
 31
0.0600000000000001
 12
-0.5300000000000001
 22
0.0772727272727273
 32
0.6800000000000001
 13
-0.55
 23
0.0645454545454546
 33
0.6600000000000001
  0
3DFACE
  5
44F
  8
TURRET
 10
-0.5300000000000001
 20
0.3027272727272724
 30
0.0600000000000001
 11
-0.55
 21
0.3299999999999997
 31
0.0400000000000003
 12
-0.55
 22
0.09
 32
0.7000000000000001
 13
-0.5300000000000001
 23
0.0772727272727273
 33
0.6800000000000001
  0
3DFACE
  5
450
  8
TURRET
 10
-0.55
 20
0.3299999999999997
 30
0.0400000000000003
 11
-0.5700000000000001
 21
0.3027272727272726
 31
0.0600000000000001
 12
-0.5700000000000001
 22
0.0772727272727273
 32
0.6800000000000001
 13
-0.55
 23
0.09
 33
0.7000000000000001
  0
3DFACE
  5
451
  8
TURRET
 10
0.5300000000000001
 20
0.0299999999999998
 30
0.0600000000000001
 11
0.55
 21
0.01
 31
0.0800000000000001
 12
0.55
 22
0.2754545454545449
 32
0.0800000000000001
 13
0.5300000000000001
 23
0.3027272727272725
 33
0.0600000000000001
  0
3DFACE
  5
452
  8
TURRET
 10
0.55
 20
0.01
 30
0.0800000000000001
 11
0.5700000000000001
 21
-0.0100000000000001
 31
0.0600000000000001
 12
0.5700000000000001
 22
0.3027272727272725
 32
0.0600000000000001
 13
0.55
 23
0.2754545454545449
 33
0.0800000000000001
  0
3DFACE
  5
453
  8
TURRET
 10
0.5700000000000001
 20
-0.0100000000000001
 30
0.0600000000000001
 11
0.55
 21
0.01
 31
0.04
 12
0.55
 22
0.3299999999999998
 32
0.04
 13
0.5700000000000001
 23
0.3027272727272725
 33
0.0600000000000001
  0
3DFACE
  5
454
  8
TURRET
 10
0.55
 20
0.01
 30
0.04
 11
0.5300000000000001
 21
0.0299999999999998
 31
0.0600000000000001
 12
0.5300000000000001
 22
0.3027272727272725
 32
0.0600000000000001
 13
0.55
 23
0.3299999999999998
 33
0.04
  0
3DFACE
  5
455
  8
TURRET
 10
-0.5700000000000001
 20
-0.0099999999999999
 30
0.0600000000000001
 11
-0.55
 21
0.0100000000000001
 31
0.0800000000000001
 12
-0.55
 22
0.275454545454545
 32
0.0800000000000001
 13
-0.5700000000000001
 23
0.3027272727272726
 33
0.0600000000000001
  0
3DFACE
  5
456
  8
TURRET
 10
-0.55
 20
0.0100000000000001
 30
0.0800000000000001
 11
-0.5300000000000001
 21
0.0300000000000001
 31
0.0600000000000001
 12
-0.5300000000000001
 22
0.3027272727272726
 32
0.0600000000000001
 13
-0.55
 23
0.275454545454545
 33
0.0800000000000001
  0
3DFACE
  5
457
  8
TURRET
 10
-0.5300000000000001
 20
0.0300000000000001
 30
0.0600000000000001
 11
-0.55
 21
0.0100000000000001
 31
0.04
 12
-0.55
 22
0.33
 32
0.04
 13
-0.5300000000000001
 23
0.3027272727272726
 33
0.0600000000000001
  0
3DFACE
  5
458
  8
TURRET
 10
-0.55
 20
0.0100000000000001
 30
0.04
 11
-0.5700000000000001
 21
-0.0099999999999999
 31
0.0600000000000001
 12
-0.5700000000000001
 22
0.3027272727272726
 32
0.0600000000000001
 13
-0.55
 23
0.33
 33
0.04
  0
3DFACE
  5
459
  8
TURRET
 10
-0.14
 20
-0.01
 30
0.0600000000000001
 11
-0.14
 21
0.0100000000000001
 31
0.0800000000000001
 12
-0.55
 22
0.0100000000000001
 32
0.0800000000000001
 13
-0.5699999999999998
 23
-0.0099999999999999
 33
0.0600000000000001
  0
3DFACE
  5
45A
  8
TURRET
 10
-0.14
 20
0.0100000000000001
 30
0.0800000000000001
 11
-0.14
 21
0.0300000000000001
 31
0.0600000000000001
 12
-0.5300000000000001
 22
0.0300000000000001
 32
0.0600000000000001
 13
-0.55
 23
0.0100000000000001
 33
0.0800000000000001
  0
3DFACE
  5
45B
  8
TURRET
 10
-0.14
 20
0.0300000000000001
 30
0.0600000000000001
 11
-0.14
 21
0.0100000000000001
 31
0.04
 12
-0.55
 22
0.0100000000000001
 32
0.04
 13
-0.5300000000000001
 23
0.0300000000000001
 33
0.0600000000000001
  0
3DFACE
  5
45C
  8
TURRET
 10
-0.14
 20
0.0100000000000001
 30
0.04
 11
-0.14
 21
-0.01
 31
0.0600000000000001
 12
-0.5699999999999998
 22
-0.0099999999999999
 32
0.0600000000000001
 13
-0.55
 23
0.0100000000000001
 33
0.04
  0
3DFACE
  5
45D
  8
TURRET
 10
0.14
 20
-0.01
 30
0.0600000000000001
 11
0.14
 21
0.01
 31
0.04
 12
0.5500000000000002
 22
0.01
 32
0.04
 13
0.5699999999999998
 23
-0.0100000000000001
 33
0.0600000000000001
  0
3DFACE
  5
45E
  8
TURRET
 10
0.14
 20
0.01
 30
0.04
 11
0.14
 21
0.03
 31
0.0600000000000001
 12
0.5300000000000001
 22
0.03
 32
0.0600000000000001
 13
0.5500000000000002
 23
0.01
 33
0.04
  0
3DFACE
  5
45F
  8
TURRET
 10
0.14
 20
0.03
 30
0.0600000000000001
 11
0.14
 21
0.01
 31
0.0800000000000001
 12
0.55
 22
0.01
 32
0.0800000000000001
 13
0.5300000000000001
 23
0.03
 33
0.0600000000000001
  0
3DFACE
  5
460
  8
TURRET
 10
0.14
 20
0.01
 30
0.0800000000000001
 11
0.14
 21
-0.01
 31
0.0600000000000001
 12
0.5699999999999998
 22
-0.0100000000000001
 32
0.0600000000000001
 13
0.55
 23
0.01
 33
0.0800000000000001
  0
3DFACE
  5
461
  8
TURRET
 10
0.5300000000000001
 20
-0.0100000000000001
 30
0.6800000000000001
 11
0.55
 21
0.0
 31
0.7000000000000001
 12
0.55
 22
0.0899999999999998
 32
0.7000000000000001
 13
0.5300000000000001
 23
0.0772727272727271
 33
0.6800000000000001
  0
3DFACE
  5
462
  8
TURRET
 10
0.55
 20
0.0
 30
0.7000000000000001
 11
0.5700000000000001
 21
-0.0100000000000001
 31
0.6800000000000001
 12
0.5700000000000001
 22
0.0772727272727271
 32
0.6800000000000001
 13
0.55
 23
0.0899999999999998
 33
0.7000000000000001
  0
3DFACE
  5
463
  8
TURRET
 10
0.5700000000000001
 20
-0.0100000000000001
 30
0.6800000000000001
 11
0.55
 21
-0.0100000000000001
 31
0.6600000000000001
 12
0.55
 22
0.0645454545454544
 32
0.6600000000000001
 13
0.5700000000000001
 23
0.0772727272727271
 33
0.6800000000000001
  0
3DFACE
  5
464
  8
TURRET
 10
0.55
 20
-0.0100000000000001
 30
0.6600000000000001
 11
0.5300000000000001
 21
-0.0100000000000001
 31
0.6800000000000001
 12
0.5300000000000001
 22
0.0772727272727271
 32
0.6800000000000001
 13
0.55
 23
0.0645454545454544
 33
0.6600000000000001
  0
3DFACE
  5
465
  8
TURRET
 10
-0.5700000000000001
 20
-0.0099999999999999
 30
0.6800000000000001
 11
-0.55
 21
0.0000000000000001
 31
0.7000000000000001
 12
-0.55
 22
0.09
 32
0.7000000000000001
 13
-0.5700000000000001
 23
0.0772727272727273
 33
0.6800000000000001
  0
3DFACE
  5
466
  8
TURRET
 10
-0.55
 20
0.0000000000000001
 30
0.7000000000000001
 11
-0.5300000000000001
 21
-0.0099999999999999
 31
0.6800000000000001
 12
-0.5300000000000001
 22
0.0772727272727273
 32
0.6800000000000001
 13
-0.55
 23
0.09
 33
0.7000000000000001
  0
3DFACE
  5
467
  8
TURRET
 10
-0.5300000000000001
 20
-0.0099999999999999
 30
0.6800000000000001
 11
-0.55
 21
-0.0099999999999999
 31
0.6600000000000001
 12
-0.55
 22
0.0645454545454546
 32
0.6600000000000001
 13
-0.5300000000000001
 23
0.0772727272727273
 33
0.6800000000000001
  0
3DFACE
  5
468
  8
TURRET
 10
-0.55
 20
-0.0099999999999999
 30
0.6600000000000001
 11
-0.5700000000000001
 21
-0.0099999999999999
 31
0.6800000000000001
 12
-0.5700000000000001
 22
0.0772727272727273
 32
0.6800000000000001
 13
-0.55
 23
0.0645454545454546
 33
0.6600000000000001
  0
3DFACE
  5
A66
  8
TURRET
 10
-0.3799999999999999
 20
0.3199999999999999
 30
0.0600000000000001
 11
-0.3507106781186546
 21
0.3199999999999999
 31
0.1307106781186548
 12
-0.3507106781186546
 22
0.3399999999999999
 32
0.1307106781186548
 13
-0.3799999999999999
 23
0.3399999999999999
 33
0.0600000000000001
  0
3DFACE
  5
A67
  8
TURRET
 10
-0.3507106781186546
 20
0.3199999999999999
 30
0.1307106781186548
 11
-0.2799999999999999
 21
0.3199999999999999
 31
0.16
 12
-0.2799999999999999
 22
0.3399999999999999
 32
0.16
 13
-0.3507106781186546
 23
0.3399999999999999
 33
0.1307106781186548
  0
3DFACE
  5
A68
  8
TURRET
 10
-0.2799999999999999
 20
0.3199999999999999
 30
0.16
 11
-0.2092893218813452
 21
0.3199999999999998
 31
0.1307106781186548
 12
-0.2092893218813452
 22
0.3399999999999999
 32
0.1307106781186548
 13
-0.2799999999999999
 23
0.3399999999999999
 33
0.16
  0
3DFACE
  5
A69
  8
TURRET
 10
-0.2092893218813452
 20
0.3199999999999998
 30
0.1307106781186548
 11
-0.1799999999999999
 21
0.3199999999999998
 31
0.0600000000000001
 12
-0.1799999999999999
 22
0.3399999999999999
 32
0.0600000000000001
 13
-0.2092893218813452
 23
0.3399999999999999
 33
0.1307106781186548
  0
3DFACE
  5
A6A
  8
TURRET
 10
-0.1799999999999999
 20
0.3199999999999998
 30
0.0600000000000001
 11
-0.2092893218813451
 21
0.3199999999999998
 31
-0.0107106781186547
 12
-0.2092893218813451
 22
0.3399999999999999
 32
-0.0107106781186547
 13
-0.1799999999999999
 23
0.3399999999999999
 33
0.0600000000000001
  0
3DFACE
  5
A6B
  8
TURRET
 10
-0.2092893218813451
 20
0.3199999999999998
 30
-0.0107106781186547
 11
-0.2799999999999999
 21
0.3199999999999999
 31
-0.0399999999999999
 12
-0.2799999999999999
 22
0.3399999999999999
 32
-0.0399999999999999
 13
-0.2092893218813451
 23
0.3399999999999999
 33
-0.0107106781186547
  0
3DFACE
  5
A6C
  8
TURRET
 10
-0.2799999999999999
 20
0.3199999999999999
 30
-0.0399999999999999
 11
-0.3507106781186546
 21
0.3199999999999999
 31
-0.0107106781186547
 12
-0.3507106781186546
 22
0.3399999999999999
 32
-0.0107106781186547
 13
-0.2799999999999999
 23
0.3399999999999999
 33
-0.0399999999999999
  0
3DFACE
  5
A6D
  8
TURRET
 10
-0.3507106781186546
 20
0.3199999999999999
 30
-0.0107106781186547
 11
-0.3799999999999999
 21
0.3199999999999999
 31
0.0600000000000001
 12
-0.3799999999999999
 22
0.3399999999999999
 32
0.0600000000000001
 13
-0.3507106781186546
 23
0.3399999999999999
 33
-0.0107106781186547
  0
3DFACE
  5
A6E
  8
TURRET
 10
-0.2799999999999999
 20
0.3399999999999999
 30
0.16
 11
-0.2092893218813452
 21
0.3399999999999999
 31
0.1307106781186548
 12
-0.1799999999999999
 22
0.3399999999999999
 32
0.0600000000000001
 13
-0.3507106781186546
 23
0.3399999999999999
 33
0.1307106781186548
  0
3DFACE
  5
A6F
  8
TURRET
 10
-0.3507106781186546
 20
0.3399999999999999
 30
0.1307106781186548
 11
-0.1799999999999999
 21
0.3399999999999999
 31
0.0600000000000001
 12
-0.2092893218813451
 22
0.3399999999999999
 32
-0.0107106781186547
 13
-0.3799999999999999
 23
0.3399999999999999
 33
0.0600000000000001
  0
3DFACE
  5
A70
  8
TURRET
 10
-0.3799999999999998
 20
0.3399999999999999
 30
0.0600000000000001
 11
-0.2092893218813451
 21
0.3399999999999999
 31
-0.0107106781186547
 12
-0.2799999999999999
 22
0.3399999999999999
 32
-0.0399999999999999
 13
-0.3507106781186546
 23
0.3399999999999999
 33
-0.0107106781186547
  0
3DFACE
  5
A87
  8
TURRET
 10
-0.3
 20
0.0299999999999999
 30
0.0600000000000001
 11
-0.28
 21
0.0100000000000001
 31
0.0800000000000001
 12
-0.28
 22
0.3399999999999999
 32
0.0800000000000001
 13
-0.3
 23
0.3399999999999999
 33
0.0600000000000001
  0
3DFACE
  5
A88
  8
TURRET
 10
-0.28
 20
0.0100000000000001
 30
0.0800000000000001
 11
-0.26
 21
0.0299999999999999
 31
0.0600000000000001
 12
-0.26
 22
0.3399999999999999
 32
0.0600000000000001
 13
-0.28
 23
0.3399999999999999
 33
0.0800000000000001
  0
3DFACE
  5
A89
  8
TURRET
 10
-0.26
 20
0.0299999999999999
 30
0.0600000000000001
 11
-0.28
 21
0.0100000000000001
 31
0.04
 12
-0.28
 22
0.3399999999999999
 32
0.04
 13
-0.26
 23
0.3399999999999999
 33
0.0600000000000001
  0
3DFACE
  5
A8A
  8
TURRET
 10
-0.28
 20
0.0100000000000001
 30
0.04
 11
-0.3
 21
0.0299999999999999
 31
0.0600000000000001
 12
-0.3
 22
0.3399999999999999
 32
0.0600000000000001
 13
-0.28
 23
0.3399999999999999
 33
0.04
  0
3DFACE
  5
A8B
  8
TURRET
 10
-0.3
 20
0.3399999999999999
 30
0.13
 11
-0.28
 21
0.3399999999999999
 31
0.15
 12
-0.28
 22
0.4400000000000001
 32
0.15
 13
-0.3
 23
0.4400000000000001
 33
0.13
  0
3DFACE
  5
A8C
  8
TURRET
 10
-0.28
 20
0.3399999999999999
 30
0.15
 11
-0.26
 21
0.3399999999999999
 31
0.13
 12
-0.26
 22
0.4400000000000001
 32
0.13
 13
-0.28
 23
0.4400000000000001
 33
0.15
  0
3DFACE
  5
A8D
  8
TURRET
 10
-0.26
 20
0.3399999999999999
 30
0.13
 11
-0.28
 21
0.3399999999999999
 31
0.11
 12
-0.28
 22
0.4400000000000001
 32
0.11
 13
-0.26
 23
0.4400000000000001
 33
0.13
  0
3DFACE
  5
A8E
  8
TURRET
 10
-0.28
 20
0.3399999999999999
 30
0.11
 11
-0.3
 21
0.3399999999999999
 31
0.13
 12
-0.3
 22
0.4400000000000001
 32
0.13
 13
-0.28
 23
0.4400000000000001
 33
0.11
  0
3DFACE
  5
A8F
  8
TURRET
 10
-0.28
 20
0.4400000000000001
 30
0.11
 11
-0.3
 21
0.4400000000000001
 31
0.13
 12
-0.28
 22
0.4400000000000001
 32
0.15
 13
-0.26
 23
0.4400000000000001
 33
0.13
  0
3DFACE
  5
AC4
  8
TURRET
 10
-0.38
 20
0.16
 30
0.4600000000000001
 11
-0.3682842712474619
 21
0.1317157287525382
 31
0.4600000000000001
 12
-0.3682842712474619
 22
0.1317157287525382
 32
0.9600000000000001
 13
-0.38
 23
0.16
 33
0.9600000000000001
  0
3DFACE
  5
AC5
  8
TURRET
 10
-0.3682842712474619
 20
0.1317157287525382
 30
0.4600000000000001
 11
-0.34
 21
0.1199999999999999
 31
0.4600000000000001
 12
-0.34
 22
0.1199999999999999
 32
0.9600000000000001
 13
-0.3682842712474619
 23
0.1317157287525382
 33
0.9600000000000001
  0
3DFACE
  5
AC6
  8
TURRET
 10
-0.34
 20
0.1199999999999999
 30
0.4600000000000001
 11
-0.3117157287525381
 21
0.1317157287525382
 31
0.4600000000000001
 12
-0.3117157287525381
 22
0.1317157287525382
 32
0.9600000000000001
 13
-0.34
 23
0.1199999999999999
 33
0.9600000000000001
  0
3DFACE
  5
AC7
  8
TURRET
 10
-0.3117157287525381
 20
0.1317157287525382
 30
0.4600000000000001
 11
-0.3
 21
0.16
 31
0.4600000000000001
 12
-0.3
 22
0.16
 32
0.9600000000000001
 13
-0.3117157287525381
 23
0.1317157287525382
 33
0.9600000000000001
  0
3DFACE
  5
AC8
  8
TURRET
 10
-0.3
 20
0.16
 30
0.4600000000000001
 11
-0.3117157287525381
 21
0.1882842712474618
 31
0.4600000000000001
 12
-0.3117157287525381
 22
0.1882842712474618
 32
0.9600000000000001
 13
-0.3
 23
0.16
 33
0.9600000000000001
  0
3DFACE
  5
AC9
  8
TURRET
 10
-0.3117157287525381
 20
0.1882842712474618
 30
0.4600000000000001
 11
-0.34
 21
0.2
 31
0.4600000000000001
 12
-0.34
 22
0.2
 32
0.9600000000000001
 13
-0.3117157287525381
 23
0.1882842712474618
 33
0.9600000000000001
  0
3DFACE
  5
ACA
  8
TURRET
 10
-0.34
 20
0.2
 30
0.4600000000000001
 11
-0.3682842712474619
 21
0.1882842712474618
 31
0.4600000000000001
 12
-0.3682842712474619
 22
0.1882842712474618
 32
0.9600000000000001
 13
-0.34
 23
0.2
 33
0.9600000000000001
  0
3DFACE
  5
ACB
  8
TURRET
 10
-0.3682842712474619
 20
0.1882842712474618
 30
0.4600000000000001
 11
-0.38
 21
0.16
 31
0.4600000000000001
 12
-0.38
 22
0.16
 32
0.9600000000000001
 13
-0.3682842712474619
 23
0.1882842712474618
 33
0.9600000000000001
  0
3DFACE
  5
ACC
  8
TURRET
 10
-0.38
 20
0.16
 30
0.9
 11
-0.3682842712474619
 21
0.1317157287525382
 31
0.8717157287525381
 12
-0.3682842712474619
 22
0.1
 32
0.8717157287525381
 13
-0.38
 23
0.1
 33
0.9
  0
3DFACE
  5
ACD
  8
TURRET
 10
-0.3682842712474619
 20
0.1317157287525382
 30
0.8717157287525381
 11
-0.34
 21
0.1199999999999999
 31
0.8599999999999999
 12
-0.34
 22
0.1
 32
0.8599999999999999
 13
-0.3682842712474619
 23
0.1
 33
0.8717157287525381
  0
3DFACE
  5
ACE
  8
TURRET
 10
-0.34
 20
0.1199999999999999
 30
0.8599999999999999
 11
-0.3117157287525381
 21
0.1317157287525382
 31
0.8717157287525381
 12
-0.3117157287525381
 22
0.1
 32
0.8717157287525381
 13
-0.34
 23
0.1
 33
0.8599999999999999
  0
3DFACE
  5
ACF
  8
TURRET
 10
-0.3117157287525381
 20
0.1317157287525382
 30
0.8717157287525381
 11
-0.3
 21
0.16
 31
0.9
 12
-0.3
 22
0.1
 32
0.9
 13
-0.3117157287525381
 23
0.1
 33
0.8717157287525381
  0
3DFACE
  5
AD0
  8
TURRET
 10
-0.3
 20
0.16
 30
0.9
 11
-0.3117157287525381
 21
0.1317157287525382
 31
0.9282842712474618
 12
-0.3117157287525381
 22
0.1
 32
0.9282842712474618
 13
-0.3
 23
0.1
 33
0.9
  0
3DFACE
  5
AD1
  8
TURRET
 10
-0.3117157287525381
 20
0.1317157287525382
 30
0.9282842712474618
 11
-0.34
 21
0.1199999999999999
 31
0.94
 12
-0.34
 22
0.1
 32
0.94
 13
-0.3117157287525381
 23
0.1
 33
0.9282842712474618
  0
3DFACE
  5
AD2
  8
TURRET
 10
-0.34
 20
0.1199999999999999
 30
0.94
 11
-0.3682842712474619
 21
0.1317157287525382
 31
0.9282842712474618
 12
-0.3682842712474619
 22
0.1
 32
0.9282842712474618
 13
-0.34
 23
0.1
 33
0.94
  0
3DFACE
  5
AD3
  8
TURRET
 10
-0.3682842712474619
 20
0.1317157287525382
 30
0.9282842712474618
 11
-0.38
 21
0.16
 31
0.9
 12
-0.38
 22
0.1
 32
0.9
 13
-0.3682842712474619
 23
0.1
 33
0.9282842712474618
  0
3DFACE
  5
AD4
  8
TURRET
 10
-0.3117157287525381
 20
0.1
 30
0.9282842712474618
 11
-0.34
 21
0.1
 31
0.94
 12
-0.3682842712474619
 22
0.1
 32
0.9282842712474618
 13
-0.3
 23
0.1
 33
0.9
  0
3DFACE
  5
AD5
  8
TURRET
 10
-0.3
 20
0.1
 30
0.9
 11
-0.3682842712474619
 21
0.1
 31
0.9282842712474618
 12
-0.38
 22
0.1
 32
0.9
 13
-0.3117157287525381
 23
0.1
 33
0.8717157287525381
  0
3DFACE
  5
AD6
  8
TURRET
 10
-0.3117157287525381
 20
0.1
 30
0.8717157287525381
 11
-0.38
 21
0.1
 31
0.9
 12
-0.3682842712474619
 22
0.1
 32
0.8717157287525381
 13
-0.34
 23
0.1
 33
0.8599999999999999
  0
3DFACE
  5
AD7
  8
TURRET
 10
-0.3
 20
0.16
 30
0.9600000000000001
 11
-0.3117157287525381
 21
0.1882842712474618
 31
0.9600000000000001
 12
-0.34
 22
0.1199999999999999
 32
0.9600000000000001
 13
-0.3117157287525381
 23
0.1317157287525382
 33
0.9600000000000001
  0
3DFACE
  5
AD8
  8
TURRET
 10
-0.3117157287525381
 20
0.1882842712474618
 30
0.9600000000000001
 11
-0.34
 21
0.2
 31
0.9600000000000001
 12
-0.3682842712474619
 22
0.1317157287525382
 32
0.9600000000000001
 13
-0.34
 23
0.1199999999999999
 33
0.9600000000000001
  0
3DFACE
  5
AD9
  8
TURRET
 10
-0.34
 20
0.2
 30
0.9600000000000001
 11
-0.3682842712474619
 21
0.1882842712474618
 31
0.9600000000000001
 12
-0.38
 22
0.16
 32
0.9600000000000001
 13
-0.3682842712474619
 23
0.1317157287525382
 33
0.9600000000000001
  0
3DFACE
  5
AE8
  8
TURRET
 10
-0.36
 20
-0.04
 30
0.5200000000000001
 11
-0.34
 21
-0.03
 31
0.5400000000000002
 12
-0.34
 22
0.1199999999999999
 32
0.5400000000000002
 13
-0.36
 23
0.13
 33
0.5200000000000001
  0
3DFACE
  5
AE9
  8
TURRET
 10
-0.34
 20
-0.03
 30
0.5400000000000002
 11
-0.32
 21
-0.04
 31
0.5200000000000001
 12
-0.32
 22
0.1299999999999999
 32
0.5200000000000001
 13
-0.34
 23
0.1199999999999999
 33
0.5400000000000002
  0
3DFACE
  5
AEA
  8
TURRET
 10
-0.32
 20
-0.04
 30
0.5200000000000001
 11
-0.34
 21
-0.04
 31
0.5000000000000001
 12
-0.34
 22
0.1199999999999999
 32
0.5000000000000001
 13
-0.32
 23
0.1299999999999999
 33
0.5200000000000001
  0
3DFACE
  5
AEB
  8
TURRET
 10
-0.34
 20
-0.04
 30
0.5000000000000001
 11
-0.36
 21
-0.04
 31
0.5200000000000001
 12
-0.36
 22
0.13
 32
0.5200000000000001
 13
-0.34
 23
0.1199999999999999
 33
0.5000000000000001
  0
VIEWPORT
  5
2E
 67
     1
  8
0
 10
144.7270812988281
 20
101.2295806407928
 30
0.0
 40
391.13550988316581
 41
222.15178063964839
 68
     2
 69
     1
1001
ACAD
1000
MVIEW
1002
{
1070
    16
1010
0.0
1020
0.0
1030
0.0
1010
0.0
1020
0.0
1030
1.0
1040
0.0
1040
222.15178063964839
1040
144.7270812988281
1040
101.2295806407928
1040
50.0
1040
0.0
1040
0.0
1070
     0
1070
   100
1070
     1
1070
     1
1070
     0
1070
     0
1070
     0
1070
     0
1040
0.0
1040
0.0
1040
0.0
1040
10.0
1040
10.0
1040
10.0
1040
10.0
1070
     0
1002
{
1002
}
1002
}
  0
VIEWPORT
  5
30
 67
     1
  8
0
 10
139.22375631332389
 20
100.8062499761581
 30
0.0
 40
222.75801010131829
 41
161.289999961853
 68
     1
 69
     2
1001
ACAD
1000
MVIEW
1002
{
1070
    16
1010
0.0
1020
0.0
1030
0.0
1010
0.0
1020
0.0
1030
1.0
1040
0.0
1040
307.49010134148989
1040
210.0
1040
148.5
1040
50.0
1040
0.0
1040
0.0
1070
     0
1070
   100
1070
     1
1070
     3
1070
     0
1070
     1
1070
     0
1070
     0
1040
0.0
1040
0.0
1040
0.0
1040
10.0
1040
10.0
1040
10.0
1040
10.0
1070
     0
1002
{
1002
}
1002
}
  0
ENDSEC
  0
EOF
