  0
SECTION
  2
HEADER
  9
$ACADVER
  1
AC1009
  9
$INSBASE
 10
0.0
 20
0.0
 30
0.0
  9
$EXTMIN
 10
-1.1999999999999991
 20
-6.5100000000000007
 30
-0.1100000000000003
  9
$EXTMAX
 10
1.1999999999999991
 20
8.9000000000000004
 30
6.96
  9
$LIMMIN
 10
0.0
 20
0.0
  9
$LIMMAX
 10
420.0
 20
297.0
  9
$ORTHOMODE
 70
     1
  9
$REGENMODE
 70
     1
  9
$FILLMODE
 70
     1
  9
$QTEXTMODE
 70
     0
  9
$MIRRTEXT
 70
     1
  9
$DRAGMODE
 70
     2
  9
$LTSCALE
 40
1.0
  9
$OSMODE
 70
    35
  9
$ATTMODE
 70
     1
  9
$TEXTSIZE
 40
2.5
  9
$TRACEWID
 40
1.0
  9
$TEXTSTYLE
  7
STANDARD
  9
$CLAYER
  8
LIMBER
  9
$CELTYPE
  6
BYLAYER
  9
$CECOLOR
 62
   256
  9
$DIMSCALE
 40
1.0
  9
$DIMASZ
 40
2.5
  9
$DIMEXO
 40
0.625
  9
$DIMDLI
 40
3.75
  9
$DIMRND
 40
0.0
  9
$DIMDLE
 40
0.0
  9
$DIMEXE
 40
1.25
  9
$DIMTP
 40
0.0
  9
$DIMTM
 40
0.0
  9
$DIMTXT
 40
2.5
  9
$DIMCEN
 40
2.5
  9
$DIMTSZ
 40
0.0
  9
$DIMTOL
 70
     0
  9
$DIMLIM
 70
     0
  9
$DIMTIH
 70
     0
  9
$DIMTOH
 70
     0
  9
$DIMSE1
 70
     0
  9
$DIMSE2
 70
     0
  9
$DIMTAD
 70
     1
  9
$DIMZIN
 70
     8
  9
$DIMBLK
  1

  9
$DIMASO
 70
     1
  9
$DIMSHO
 70
     1
  9
$DIMPOST
  1

  9
$DIMAPOST
  1

  9
$DIMALT
 70
     0
  9
$DIMALTD
 70
     3
  9
$DIMALTF
 40
0.03937007874016
  9
$DIMLFAC
 40
1.0
  9
$DIMTOFL
 70
     1
  9
$DIMTVP
 40
0.0
  9
$DIMTIX
 70
     0
  9
$DIMSOXD
 70
     0
  9
$DIMSAH
 70
     0
  9
$DIMBLK1
  1

  9
$DIMBLK2
  1

  9
$DIMSTYLE
  2
ISO-25
  9
$DIMCLRD
 70
     0
  9
$DIMCLRE
 70
     0
  9
$DIMCLRT
 70
     0
  9
$DIMTFAC
 40
1.0
  9
$DIMGAP
 40
0.625
  9
$LUNITS
 70
     2
  9
$LUPREC
 70
     4
  9
$SKETCHINC
 40
1.0
  9
$FILLETRAD
 40
10.0
  9
$AUNITS
 70
     0
  9
$AUPREC
 70
     0
  9
$MENU
  1
.
  9
$ELEVATION
 40
0.0
  9
$PELEVATION
 40
0.0
  9
$THICKNESS
 40
0.0
  9
$LIMCHECK
 70
     0
  9
$BLIPMODE
 70
     0
  9
$CHAMFERA
 40
10.0
  9
$CHAMFERB
 40
10.0
  9
$SKPOLY
 70
     0
  9
$TDCREATE
 40
2457187.0212017009
  9
$TDUPDATE
 40
2457188.029797893
  9
$TDINDWG
 40
0.5731958796
  9
$TDUSRTIMER
 40
0.5731958681
  9
$USRTIMER
 70
     1
  9
$ANGBASE
 50
0.0
  9
$ANGDIR
 70
     0
  9
$PDMODE
 70
     0
  9
$PDSIZE
 40
0.0
  9
$PLINEWID
 40
0.0
  9
$COORDS
 70
     1
  9
$SPLFRAME
 70
     0
  9
$SPLINETYPE
 70
     6
  9
$SPLINESEGS
 70
     8
  9
$ATTDIA
 70
     1
  9
$ATTREQ
 70
     1
  9
$HANDLING
 70
-16383
  9
$HANDSEED
  5
F2B
  9
$SURFTAB1
 70
     6
  9
$SURFTAB2
 70
     6
  9
$SURFTYPE
 70
     6
  9
$SURFU
 70
     6
  9
$SURFV
 70
     6
  9
$UCSNAME
  2

  9
$UCSORG
 10
0.0
 20
0.0
 30
0.0
  9
$UCSXDIR
 10
0.0
 20
-1.0
 30
0.0
  9
$UCSYDIR
 10
0.0
 20
0.0
 30
1.0
  9
$PUCSNAME
  2

  9
$PUCSORG
 10
0.0
 20
0.0
 30
0.0
  9
$PUCSXDIR
 10
1.0
 20
0.0
 30
0.0
  9
$PUCSYDIR
 10
0.0
 20
1.0
 30
0.0
  9
$USERI1
 70
     0
  9
$USERI2
 70
     0
  9
$USERI3
 70
     0
  9
$USERI4
 70
     0
  9
$USERI5
 70
     0
  9
$USERR1
 40
0.0
  9
$USERR2
 40
0.0
  9
$USERR3
 40
0.0
  9
$USERR4
 40
0.0
  9
$USERR5
 40
0.0
  9
$WORLDVIEW
 70
     1
  9
$SHADEDGE
 70
     3
  9
$SHADEDIF
 70
    70
  9
$TILEMODE
 70
     1
  9
$MAXACTVP
 70
    64
  9
$PLIMCHECK
 70
     0
  9
$PEXTMIN
 10
27.844751262664801
 20
20.161249995231621
 30
0.0
  9
$PEXTMAX
 10
250.60276136398309
 20
181.4512499570846
 30
0.0
  9
$PLIMMIN
 10
-3.757080078125
 20
-3.7570831775665279
  9
$PLIMMAX
 10
293.21124267578119
 20
206.21624445915219
  9
$UNITMODE
 70
     0
  9
$VISRETAIN
 70
     1
  9
$PLINEGEN
 70
     0
  9
$PSLTSCALE
 70
     1
  0
ENDSEC
  0
SECTION
  2
TABLES
  0
TABLE
  2
VPORT
 70
    57
  0
VPORT
  2
*ACTIVE
 70
     0
 10
0.0
 20
0.0
 11
1.0
 21
1.0
 12
-2.246748368521764
 22
2.3463027218934651
 13
0.0
 23
0.0
 14
0.01
 24
0.01
 15
1.0
 25
1.0
 16
-1.0
 26
0.0
 36
0.0
 17
0.0
 27
0.0
 37
0.0
 40
22.814354394999981
 41
2.2487980769230771
 42
50.0
 43
0.0
 44
0.0
 50
0.0
 51
0.0
 71
     0
 72
   100
 73
     1
 74
     3
 75
     1
 76
     1
 77
     0
 78
     0
  0
ENDTAB
  0
TABLE
  2
LTYPE
 70
     1
  0
LTYPE
  2
CONTINUOUS
 70
     0
  3
Solid line
 72
    65
 73
     0
 40
0.0
  0
ENDTAB
  0
TABLE
  2
LAYER
 70
    11
  0
LAYER
  2
0
 70
     0
 62
     7
  6
CONTINUOUS
  0
LAYER
  2
REFERENCE
 70
     0
 62
     9
  6
CONTINUOUS
  0
LAYER
  2
WHEELS
 70
     0
 62
     2
  6
CONTINUOUS
  0
LAYER
  2
TMP
 70
     0
 62
     4
  6
CONTINUOUS
  0
LAYER
  2
REF2
 70
     0
 62
     9
  6
CONTINUOUS
  0
LAYER
  2
TRAIL
 70
     0
 62
     6
  6
CONTINUOUS
  0
LAYER
  2
TURRET
 70
     0
 62
     2
  6
CONTINUOUS
  0
LAYER
  2
SLEEVE
 70
     0
 62
     5
  6
CONTINUOUS
  0
LAYER
  2
BARREL
 70
     0
 62
     1
  6
CONTINUOUS
  0
LAYER
  2
LIMBER
 70
     0
 62
     6
  6
CONTINUOUS
  0
LAYER
  2
LIMBER_WHEELS
 70
     0
 62
     2
  6
CONTINUOUS
  0
ENDTAB
  0
TABLE
  2
STYLE
 70
     1
  0
STYLE
  2
STANDARD
 70
     0
 40
0.0
 41
1.0
 50
0.0
 71
     0
 42
2.5
  3
txt
  4

  0
ENDTAB
  0
TABLE
  2
VIEW
 70
     0
  0
ENDTAB
  0
TABLE
  2
UCS
 70
     0
  0
ENDTAB
  0
TABLE
  2
APPID
 70
     1
  0
APPID
  2
ACAD
 70
     0
  0
ENDTAB
  0
TABLE
  2
DIMSTYLE
 70
     1
  0
DIMSTYLE
  2
ISO-25
 70
     0
  3

  4

  5

  6

  7

 40
1.0
 41
2.5
 42
0.625
 43
3.75
 44
1.25
 45
0.0
 46
0.0
 47
0.0
 48
0.0
140
2.5
141
2.5
142
0.0
143
0.03937007874016
144
1.0
145
0.0
146
1.0
147
0.625
 71
     0
 72
     0
 73
     0
 74
     0
 75
     0
 76
     0
 77
     1
 78
     8
170
     0
171
     3
172
     1
173
     0
174
     0
175
     0
176
     0
177
     0
178
     0
  0
ENDTAB
  0
ENDSEC
  0
SECTION
  2
BLOCKS
  0
BLOCK
  8
0
  2
$MODEL_SPACE
 70
     0
 10
0.0
 20
0.0
 30
0.0
  3
$MODEL_SPACE
  1

  0
ENDBLK
  5
21
  8
0
  0
BLOCK
 67
     1
  8
0
  2
$PAPER_SPACE
 70
     0
 10
0.0
 20
0.0
 30
0.0
  3
$PAPER_SPACE
  1

  0
ENDBLK
  5
1D
 67
     1
  8
0
  0
ENDSEC
  0
SECTION
  2
ENTITIES
  0
3DFACE
  5
D8A
  8
LIMBER
 10
0.55
 20
-0.4099999999999993
 30
0.85
 11
0.55
 21
-0.3300000000000001
 31
0.76
 12
0.55
 22
0.2199999999999997
 32
0.85
 13
0.55
 23
0.2799999999999998
 33
0.94
  0
3DFACE
  5
D8B
  8
LIMBER
 10
-0.55
 20
0.2199999999999997
 30
0.85
 11
-0.55
 21
-0.3300000000000001
 31
0.76
 12
-0.55
 22
-0.4099999999999993
 32
0.85
 13
-0.55
 23
0.2799999999999998
 33
0.94
  0
3DFACE
  5
D8C
  8
LIMBER
 10
-0.55
 20
-0.4099999999999993
 30
0.85
 11
-0.55
 21
-0.3300000000000001
 31
0.76
 12
0.55
 22
-0.3300000000000001
 32
0.76
 13
0.55
 23
-0.4099999999999993
 33
0.85
  0
3DFACE
  5
D8D
  8
LIMBER
 10
0.55
 20
0.2799999999999998
 30
0.94
 11
0.55
 21
0.2199999999999997
 31
0.85
 12
-0.55
 22
0.2199999999999997
 32
0.85
 13
-0.55
 23
0.2799999999999998
 33
0.94
  0
3DFACE
  5
D8F
  8
LIMBER
 10
-0.55
 20
0.2799999999999998
 30
0.94
 11
-0.55
 21
-0.4099999999999993
 31
0.85
 12
0.55
 22
-0.4099999999999993
 32
0.85
 13
0.55
 23
0.2799999999999998
 33
0.94
  0
3DFACE
  5
D92
  8
LIMBER
 10
0.55
 20
-0.3300000000000001
 30
0.7600000000000002
 11
0.55
 21
-0.0600000000000001
 31
0.4100000000000001
 12
0.55
 22
0.0600000000000001
 32
0.4100000000000001
 13
0.55
 23
0.2199999999999997
 33
0.85
  0
3DFACE
  5
D93
  8
LIMBER
 10
-0.55
 20
-0.3300000000000001
 30
0.7600000000000002
 11
-0.55
 21
-0.0600000000000001
 31
0.4100000000000001
 12
0.55
 22
-0.0600000000000001
 32
0.4100000000000001
 13
0.55
 23
-0.3300000000000001
 33
0.7600000000000002
  0
3DFACE
  5
D94
  8
LIMBER
 10
0.55
 20
0.2199999999999997
 30
0.85
 11
0.55
 21
0.0600000000000001
 31
0.4100000000000001
 12
-0.55
 22
0.0600000000000001
 32
0.4100000000000001
 13
-0.55
 23
0.2199999999999997
 33
0.85
  0
3DFACE
  5
D95
  8
LIMBER
 10
-0.55
 20
0.0600000000000001
 30
0.4100000000000001
 11
-0.55
 21
-0.0600000000000001
 31
0.4100000000000001
 12
-0.55
 22
-0.3300000000000001
 32
0.7600000000000002
 13
-0.55
 23
0.2199999999999997
 33
0.85
  0
3DFACE
  5
DAD
  8
LIMBER
 10
-0.55
 20
-0.0600000000000001
 30
0.4100000000000001
 11
-0.55
 21
-0.042426406871193
 31
0.4524264068711929
 12
-0.7400000000000001
 22
-0.042426406871193
 32
0.4524264068711929
 13
-0.7400000000000001
 23
-0.0600000000000001
 33
0.4100000000000001
  0
3DFACE
  5
DAE
  8
LIMBER
 10
-0.55
 20
-0.042426406871193
 30
0.4524264068711929
 11
-0.55
 21
0.0
 31
0.47
 12
-0.7400000000000001
 22
0.0
 32
0.47
 13
-0.7400000000000001
 23
-0.042426406871193
 33
0.4524264068711929
  0
3DFACE
  5
DAF
  8
LIMBER
 10
-0.55
 20
0.0
 30
0.47
 11
-0.55
 21
0.042426406871193
 31
0.4524264068711929
 12
-0.7400000000000001
 22
0.042426406871193
 32
0.4524264068711929
 13
-0.7400000000000001
 23
0.0
 33
0.47
  0
3DFACE
  5
DB0
  8
LIMBER
 10
-0.55
 20
0.042426406871193
 30
0.4524264068711929
 11
-0.55
 21
0.0600000000000001
 31
0.4100000000000001
 12
-0.7400000000000001
 22
0.0600000000000001
 32
0.4100000000000001
 13
-0.7400000000000001
 23
0.042426406871193
 33
0.4524264068711929
  0
3DFACE
  5
DB1
  8
LIMBER
 10
0.7400000000000001
 20
0.0600000000000001
 30
0.4100000000000001
 11
0.7400000000000001
 21
0.042426406871193
 31
0.3675735931288072
 12
-0.7400000000000001
 22
0.042426406871193
 32
0.3675735931288072
 13
-0.7400000000000001
 23
0.0600000000000001
 33
0.4100000000000001
  0
3DFACE
  5
DB2
  8
LIMBER
 10
0.7400000000000001
 20
0.042426406871193
 30
0.3675735931288072
 11
0.7400000000000001
 21
0.0
 31
0.35
 12
-0.7400000000000001
 22
0.0
 32
0.35
 13
-0.7400000000000001
 23
0.042426406871193
 33
0.3675735931288072
  0
3DFACE
  5
DB3
  8
LIMBER
 10
0.7400000000000001
 20
0.0
 30
0.35
 11
0.7400000000000001
 21
-0.042426406871193
 31
0.3675735931288071
 12
-0.7400000000000001
 22
-0.042426406871193
 32
0.3675735931288071
 13
-0.7400000000000001
 23
0.0
 33
0.35
  0
3DFACE
  5
DB4
  8
LIMBER
 10
0.7400000000000001
 20
-0.042426406871193
 30
0.3675735931288071
 11
0.7400000000000001
 21
-0.0600000000000001
 31
0.4100000000000001
 12
-0.7400000000000001
 22
-0.0600000000000001
 32
0.4100000000000001
 13
-0.7400000000000001
 23
-0.042426406871193
 33
0.3675735931288071
  0
3DFACE
  5
DB5
  8
LIMBER
 10
0.7400000000000001
 20
0.0
 30
0.47
 11
0.7400000000000001
 21
0.042426406871193
 31
0.4524264068711929
 12
0.55
 22
0.042426406871193
 32
0.4524264068711929
 13
0.55
 23
0.0
 33
0.47
  0
3DFACE
  5
DB6
  8
LIMBER
 10
0.7400000000000001
 20
-0.042426406871193
 30
0.4524264068711929
 11
0.7400000000000001
 21
0.0
 31
0.47
 12
0.55
 22
0.0
 32
0.47
 13
0.55
 23
-0.042426406871193
 33
0.4524264068711929
  0
3DFACE
  5
DB7
  8
LIMBER
 10
0.7400000000000001
 20
0.042426406871193
 30
0.4524264068711929
 11
0.7400000000000001
 21
0.0600000000000001
 31
0.4100000000000001
 12
0.55
 22
0.0600000000000001
 32
0.4100000000000001
 13
0.55
 23
0.042426406871193
 33
0.4524264068711929
  0
3DFACE
  5
DB8
  8
LIMBER
 10
0.7400000000000001
 20
-0.0600000000000001
 30
0.4100000000000001
 11
0.7400000000000001
 21
-0.042426406871193
 31
0.4524264068711929
 12
0.55
 22
-0.042426406871193
 32
0.4524264068711929
 13
0.55
 23
-0.0600000000000001
 33
0.4100000000000001
  0
3DFACE
  5
E38
  8
LIMBER
 10
0.09
 20
1.455888699675276
 30
0.7418009963920954
 11
0.07
 21
1.4531052376560749
 31
0.7616063577669272
 12
0.0494974746830584
 22
1.4040894689940979
 32
0.7547176407255936
 13
0.0636396103067894
 23
1.392868425681306
 33
0.7329440744818094
  0
3DFACE
  5
E39
  8
LIMBER
 10
0.07
 20
1.4531052376560749
 30
0.7616063577669272
 11
0.05
 21
1.455888699675276
 31
0.7418009963920954
 12
0.0353553390593275
 22
1.420877436345293
 32
0.7368804842197143
 13
0.0494974746830584
 23
1.4040894689940979
 33
0.7547176407255936
  0
3DFACE
  5
E3A
  8
LIMBER
 10
0.05
 20
1.455888699675276
 30
0.7418009963920954
 11
0.07
 21
1.458672161694478
 31
0.7219956350172634
 12
0.0494974746830584
 22
1.4096563930324999
 32
0.71510691797593
 13
0.0353553390593275
 23
1.420877436345293
 33
0.7368804842197143
  0
3DFACE
  5
E3B
  8
LIMBER
 10
0.07
 20
1.458672161694478
 30
0.7219956350172634
 11
0.09
 21
1.455888699675276
 31
0.7418009963920954
 12
0.0636396103067894
 22
1.392868425681306
 32
0.7329440744818094
 13
0.0494974746830584
 23
1.4096563930324999
 33
0.71510691797593
  0
3DFACE
  5
E3C
  8
LIMBER
 10
0.0636396103067894
 20
1.392868425681306
 30
0.7329440744818094
 11
0.0494974746830584
 21
1.4040894689940979
 31
0.7547176407255936
 12
0.0
 22
1.3837864728441649
 32
0.7518642406997227
 13
0.0199999999999999
 23
1.37496822277769
 33
0.730428365024393
  0
3DFACE
  5
E3D
  8
LIMBER
 10
0.0494974746830584
 20
1.4040894689940979
 30
0.7547176407255936
 11
0.0353553390593275
 21
1.420877436345293
 31
0.7368804842197143
 12
0.0
 22
1.4063752962381979
 32
0.7348423413440921
 13
0.0
 23
1.3837864728441649
 33
0.7518642406997227
  0
3DFACE
  5
E3E
  8
LIMBER
 10
0.0353553390593275
 20
1.420877436345293
 30
0.7368804842197143
 11
0.0494974746830584
 21
1.4096563930324999
 31
0.71510691797593
 12
0.0
 22
1.389353396882568
 32
0.7122535179500589
 13
0.0
 23
1.4063752962381979
 33
0.7348423413440921
  0
3DFACE
  5
E3F
  8
LIMBER
 10
0.0494974746830584
 20
1.4096563930324999
 30
0.71510691797593
 11
0.0636396103067894
 21
1.392868425681306
 31
0.7329440744818094
 12
0.0199999999999999
 22
1.37496822277769
 32
0.730428365024393
 13
0.0
 23
1.389353396882568
 33
0.7122535179500589
  0
3DFACE
  5
E40
  8
LIMBER
 10
-0.0199999999999999
 20
1.37496822277769
 30
0.730428365024393
 11
0.0
 21
1.3837864728441649
 31
0.7518642406997227
 12
-0.0494974746830582
 22
1.4040894689940979
 32
0.7547176407255936
 13
-0.0636396103067891
 23
1.392868425681306
 33
0.7329440744818092
  0
3DFACE
  5
E41
  8
LIMBER
 10
0.0
 20
1.3837864728441649
 30
0.7518642406997227
 11
0.0
 21
1.4063752962381979
 31
0.7348423413440921
 12
-0.0353553390593273
 22
1.420877436345293
 32
0.7368804842197143
 13
-0.0494974746830582
 23
1.4040894689940979
 33
0.7547176407255936
  0
3DFACE
  5
E42
  8
LIMBER
 10
0.0
 20
1.4063752962381979
 30
0.7348423413440921
 11
0.0
 21
1.389353396882568
 31
0.7122535179500589
 12
-0.0494974746830582
 22
1.4096563930324999
 32
0.71510691797593
 13
-0.0353553390593273
 23
1.420877436345293
 33
0.7368804842197143
  0
3DFACE
  5
E43
  8
LIMBER
 10
0.0
 20
1.389353396882568
 30
0.7122535179500589
 11
-0.0199999999999999
 21
1.37496822277769
 31
0.730428365024393
 12
-0.0636396103067891
 22
1.392868425681306
 32
0.7329440744818092
 13
-0.0494974746830582
 23
1.4096563930324999
 33
0.71510691797593
  0
3DFACE
  5
E44
  8
LIMBER
 10
-0.0636396103067891
 20
1.392868425681306
 30
0.7329440744818092
 11
-0.0494974746830582
 21
1.4040894689940979
 31
0.7547176407255936
 12
-0.07
 22
1.4531052376560749
 32
0.7616063577669272
 13
-0.09
 23
1.455888699675276
 33
0.7418009963920954
  0
3DFACE
  5
E45
  8
LIMBER
 10
-0.0494974746830582
 20
1.4040894689940979
 30
0.7547176407255936
 11
-0.0353553390593273
 21
1.420877436345293
 31
0.7368804842197143
 12
-0.05
 22
1.455888699675276
 32
0.7418009963920954
 13
-0.07
 23
1.4531052376560749
 33
0.7616063577669272
  0
3DFACE
  5
E46
  8
LIMBER
 10
-0.0353553390593273
 20
1.420877436345293
 30
0.7368804842197143
 11
-0.0494974746830582
 21
1.4096563930324999
 31
0.71510691797593
 12
-0.07
 22
1.458672161694478
 32
0.7219956350172634
 13
-0.05
 23
1.455888699675276
 33
0.7418009963920954
  0
3DFACE
  5
E47
  8
LIMBER
 10
-0.0494974746830582
 20
1.4096563930324999
 30
0.71510691797593
 11
-0.0636396103067891
 21
1.392868425681306
 31
0.7329440744818092
 12
-0.09
 22
1.455888699675276
 32
0.7418009963920954
 13
-0.07
 23
1.458672161694478
 33
0.7219956350172634
  0
3DFACE
  5
E48
  8
LIMBER
 10
-0.09
 20
1.455888699675276
 30
0.7418009963920954
 11
-0.07
 21
1.4531052376560749
 31
0.7616063577669272
 12
-0.0494974746830584
 22
1.502121006318051
 32
0.7684950748082609
 13
-0.0636396103067894
 23
1.518908973669246
 33
0.7506579183023814
  0
3DFACE
  5
E49
  8
LIMBER
 10
-0.07
 20
1.4531052376560749
 30
0.7616063577669272
 11
-0.05
 21
1.455888699675276
 31
0.7418009963920954
 12
-0.0353553390593275
 22
1.4908999630052591
 32
0.7467215085644766
 13
-0.0494974746830584
 23
1.502121006318051
 33
0.7684950748082609
  0
3DFACE
  5
E4A
  8
LIMBER
 10
-0.05
 20
1.455888699675276
 30
0.7418009963920954
 11
-0.07
 21
1.458672161694478
 31
0.7219956350172634
 12
-0.0494974746830584
 22
1.5076879303564541
 32
0.7288843520585971
 13
-0.0353553390593275
 23
1.4908999630052591
 33
0.7467215085644766
  0
3DFACE
  5
E4B
  8
LIMBER
 10
-0.07
 20
1.458672161694478
 30
0.7219956350172634
 11
-0.09
 21
1.455888699675276
 31
0.7418009963920954
 12
-0.0636396103067894
 22
1.518908973669246
 32
0.7506579183023814
 13
-0.0494974746830584
 23
1.5076879303564541
 33
0.7288843520585971
  0
3DFACE
  5
E4C
  8
LIMBER
 10
-0.0636396103067894
 20
1.518908973669246
 30
0.7506579183023814
 11
-0.0494974746830584
 21
1.502121006318051
 31
0.7684950748082609
 12
0.0
 22
1.5224240024679849
 32
0.7713484748341319
 13
0.0
 23
1.5450128258620179
 33
0.7543265754785014
  0
3DFACE
  5
E4D
  8
LIMBER
 10
-0.0494974746830584
 20
1.502121006318051
 30
0.7684950748082609
 11
-0.0353553390593275
 21
1.4908999630052591
 31
0.7467215085644766
 12
0.0
 22
1.505402103112355
 32
0.7487596514400988
 13
0.0
 23
1.5224240024679849
 33
0.7713484748341319
  0
3DFACE
  5
E4E
  8
LIMBER
 10
-0.0353553390593275
 20
1.4908999630052591
 30
0.7467215085644766
 11
-0.0494974746830584
 21
1.5076879303564541
 31
0.7288843520585971
 12
0.0
 22
1.527990926506388
 32
0.7317377520844682
 13
0.0
 23
1.505402103112355
 33
0.7487596514400988
  0
3DFACE
  5
E4F
  8
LIMBER
 10
-0.0494974746830584
 20
1.5076879303564541
 30
0.7288843520585971
 11
-0.0636396103067894
 21
1.518908973669246
 31
0.7506579183023814
 12
0.0
 22
1.5450128258620179
 32
0.7543265754785014
 13
0.0
 23
1.527990926506388
 33
0.7317377520844682
  0
3DFACE
  5
E50
  8
LIMBER
 10
0.0
 20
1.5450128258620179
 30
0.7543265754785014
 11
0.0
 21
1.5224240024679849
 31
0.7713484748341319
 12
0.0494974746830582
 22
1.5021210063180519
 32
0.7684950748082609
 13
0.0636396103067891
 23
1.5189089736692469
 33
0.7506579183023814
  0
3DFACE
  5
E51
  8
LIMBER
 10
0.0
 20
1.5224240024679849
 30
0.7713484748341319
 11
0.0
 21
1.505402103112355
 31
0.7487596514400988
 12
0.0353553390593272
 22
1.49089996300526
 32
0.7467215085644766
 13
0.0494974746830582
 23
1.5021210063180519
 33
0.7684950748082609
  0
3DFACE
  5
E52
  8
LIMBER
 10
0.0
 20
1.505402103112355
 30
0.7487596514400988
 11
0.0
 21
1.527990926506388
 31
0.7317377520844682
 12
0.0494974746830582
 22
1.507687930356455
 32
0.7288843520585971
 13
0.0353553390593272
 23
1.49089996300526
 33
0.7467215085644766
  0
3DFACE
  5
E53
  8
LIMBER
 10
0.0
 20
1.527990926506388
 30
0.7317377520844682
 11
0.0
 21
1.5450128258620179
 31
0.7543265754785014
 12
0.0636396103067891
 22
1.5189089736692469
 32
0.7506579183023814
 13
0.0494974746830582
 23
1.507687930356455
 33
0.7288843520585971
  0
3DFACE
  5
E54
  8
LIMBER
 10
0.0636396103067891
 20
1.5189089736692469
 30
0.7506579183023814
 11
0.0494974746830582
 21
1.5021210063180519
 31
0.7684950748082609
 12
0.07
 22
1.4531052376560749
 32
0.7616063577669272
 13
0.09
 23
1.455888699675276
 33
0.7418009963920954
  0
3DFACE
  5
E55
  8
LIMBER
 10
0.0494974746830582
 20
1.5021210063180519
 30
0.7684950748082609
 11
0.0353553390593272
 21
1.49089996300526
 31
0.7467215085644766
 12
0.05
 22
1.455888699675276
 32
0.7418009963920954
 13
0.07
 23
1.4531052376560749
 33
0.7616063577669272
  0
3DFACE
  5
E56
  8
LIMBER
 10
0.0353553390593272
 20
1.49089996300526
 30
0.7467215085644766
 11
0.0494974746830582
 21
1.507687930356455
 31
0.7288843520585971
 12
0.07
 22
1.458672161694478
 32
0.7219956350172634
 13
0.05
 23
1.455888699675276
 33
0.7418009963920954
  0
3DFACE
  5
E57
  8
LIMBER
 10
0.0494974746830582
 20
1.507687930356455
 30
0.7288843520585971
 11
0.0636396103067891
 21
1.5189089736692469
 31
0.7506579183023814
 12
0.09
 22
1.455888699675276
 32
0.7418009963920954
 13
0.07
 23
1.458672161694478
 33
0.7219956350172634
  0
3DFACE
  5
E58
  8
LIMBER
 10
0.02
 20
1.37496822277769
 30
0.730428365024393
 11
0.0
 21
1.3837864728441649
 31
0.7518642406997218
 12
0.0
 22
0.8688470770985487
 32
0.6794942282004876
 13
0.02
 23
0.8716305391177501
 33
0.6596888668256565
  0
3DFACE
  5
E59
  8
LIMBER
 10
0.0
 20
1.3837864728441649
 30
0.7518642406997218
 11
-0.02
 21
1.37496822277769
 31
0.730428365024393
 12
-0.02
 22
0.8716305391177501
 32
0.6596888668256565
 13
0.0
 23
0.8688470770985487
 33
0.6794942282004876
  0
3DFACE
  5
E5A
  8
LIMBER
 10
-0.02
 20
1.37496822277769
 30
0.730428365024393
 11
0.0
 21
1.3893533968825671
 31
0.7122535179500598
 12
0.0
 22
0.8744140011369515
 32
0.6398835054508254
 13
-0.02
 23
0.8716305391177501
 33
0.6596888668256565
  0
3DFACE
  5
E5B
  8
LIMBER
 10
0.0
 20
1.3893533968825671
 30
0.7122535179500598
 11
0.02
 21
1.37496822277769
 31
0.730428365024393
 12
0.02
 22
0.8716305391177501
 32
0.6596888668256565
 13
0.0
 23
0.8744140011369515
 33
0.6398835054508254
  0
3DFACE
  5
E5C
  8
LIMBER
 10
-0.07
 20
0.9211439425548285
 30
0.6666475218736596
 11
-0.0758578643762691
 21
0.9133748816430379
 31
0.6798367700554048
 12
0.0758578643762691
 22
0.9133748816430379
 32
0.6798367700554048
 13
0.07
 23
0.9211439425548285
 33
0.6666475218736596
  0
3DFACE
  5
E5D
  8
LIMBER
 10
-0.0758578643762691
 20
0.9133748816430379
 30
0.6798367700554048
 11
-0.09
 21
0.8985551191607958
 31
0.6836694212292905
 12
0.09
 22
0.8985551191607957
 32
0.6836694212292903
 13
0.0758578643762691
 23
0.9133748816430379
 33
0.6798367700554048
  0
3DFACE
  5
E5E
  8
LIMBER
 10
-0.09
 20
0.8985551191607958
 30
0.6836694212292905
 11
-0.0758578643762691
 21
0.8853658709790511
 31
0.6759003603174999
 12
0.0758578643762691
 22
0.885365870979051
 32
0.6759003603174998
 13
0.09
 23
0.8985551191607957
 33
0.6836694212292903
  0
3DFACE
  5
E5F
  8
LIMBER
 10
-0.0758578643762691
 20
0.8853658709790511
 30
0.6759003603174999
 11
-0.07
 21
0.8815332198051656
 31
0.6610805978352572
 12
0.07
 22
0.8815332198051654
 32
0.6610805978352571
 13
0.0758578643762691
 23
0.885365870979051
 33
0.6759003603174998
  0
3DFACE
  5
E60
  8
LIMBER
 10
-0.07
 20
0.8815332198051656
 30
0.6610805978352572
 11
-0.0758578643762691
 21
0.8893022807169561
 31
0.647891349653513
 12
0.0758578643762691
 22
0.8893022807169559
 32
0.647891349653513
 13
0.07
 23
0.8815332198051654
 33
0.6610805978352571
  0
3DFACE
  5
E61
  8
LIMBER
 10
-0.0758578643762691
 20
0.8893022807169561
 30
0.647891349653513
 11
-0.09
 21
0.9041220431991984
 31
0.6440586984796275
 12
0.09
 22
0.9041220431991982
 32
0.6440586984796275
 13
0.0758578643762691
 23
0.8893022807169559
 33
0.647891349653513
  0
3DFACE
  5
E62
  8
LIMBER
 10
-0.09
 20
0.9041220431991984
 30
0.6440586984796275
 11
-0.0758578643762691
 21
0.9173112913809429
 31
0.651827759391418
 12
0.0758578643762691
 22
0.9173112913809429
 32
0.651827759391418
 13
0.09
 23
0.9041220431991982
 33
0.6440586984796275
  0
3DFACE
  5
E63
  8
LIMBER
 10
-0.0758578643762691
 20
0.9173112913809429
 30
0.651827759391418
 11
-0.07
 21
0.9211439425548285
 31
0.6666475218736596
 12
0.07
 22
0.9211439425548285
 32
0.6666475218736596
 13
0.0758578643762691
 23
0.9173112913809429
 33
0.651827759391418
  0
3DFACE
  5
E64
  8
LIMBER
 10
-0.11
 20
1.3667645734885341
 30
0.7292754173056895
 11
-0.104142135623731
 21
1.3589955125767439
 31
0.7424646654874345
 12
0.104142135623731
 22
1.3589955125767439
 32
0.7424646654874345
 13
0.1099999999999999
 23
1.3667645734885341
 33
0.7292754173056895
  0
3DFACE
  5
E65
  8
LIMBER
 10
-0.104142135623731
 20
1.3589955125767439
 30
0.7424646654874345
 11
-0.09
 21
1.344175750094502
 31
0.7462973166613202
 12
0.09
 22
1.344175750094502
 32
0.74629731666132
 13
0.104142135623731
 23
1.3589955125767439
 33
0.7424646654874345
  0
3DFACE
  5
E66
  8
LIMBER
 10
-0.09
 20
1.344175750094502
 30
0.7462973166613202
 11
-0.0758578643762691
 21
1.330986501912758
 31
0.7385282557495296
 12
0.0758578643762691
 22
1.3309865019127569
 32
0.7385282557495295
 13
0.09
 23
1.344175750094502
 33
0.74629731666132
  0
3DFACE
  5
E67
  8
LIMBER
 10
-0.0758578643762691
 20
1.330986501912758
 30
0.7385282557495296
 11
-0.07
 21
1.327153850738872
 31
0.7237084932672869
 12
0.07
 22
1.327153850738872
 32
0.7237084932672868
 13
0.0758578643762691
 23
1.3309865019127569
 33
0.7385282557495295
  0
3DFACE
  5
E68
  8
LIMBER
 10
-0.07
 20
1.327153850738872
 30
0.7237084932672869
 11
-0.0758578643762691
 21
1.334922911650662
 31
0.7105192450855427
 12
0.0758578643762691
 22
1.334922911650662
 32
0.7105192450855427
 13
0.07
 23
1.327153850738872
 33
0.7237084932672868
  0
3DFACE
  5
E69
  8
LIMBER
 10
-0.0758578643762691
 20
1.334922911650662
 30
0.7105192450855427
 11
-0.09
 21
1.3497426741329051
 31
0.7066865939116572
 12
0.09
 22
1.3497426741329039
 32
0.7066865939116572
 13
0.0758578643762691
 23
1.334922911650662
 33
0.7105192450855427
  0
3DFACE
  5
E6A
  8
LIMBER
 10
-0.09
 20
1.3497426741329051
 30
0.7066865939116572
 11
-0.104142135623731
 21
1.362931922314649
 31
0.7144556548234476
 12
0.1041421356237309
 22
1.362931922314649
 32
0.7144556548234476
 13
0.09
 23
1.3497426741329039
 33
0.7066865939116572
  0
3DFACE
  5
E6B
  8
LIMBER
 10
-0.104142135623731
 20
1.362931922314649
 30
0.7144556548234476
 11
-0.11
 21
1.3667645734885341
 31
0.7292754173056895
 12
0.1099999999999999
 22
1.3667645734885341
 32
0.7292754173056895
 13
0.1041421356237309
 23
1.362931922314649
 33
0.7144556548234476
  0
3DFACE
  5
E6C
  8
LIMBER
 10
0.11
 20
1.366764573488535
 30
0.7292754173056895
 11
0.104142135623731
 21
1.3589955125767439
 31
0.7424646654874345
 12
0.104142135623731
 22
0.7409274853123938
 32
0.6556008690328419
 13
0.11
 23
0.7428956901813462
 33
0.6415963637008481
  0
3DFACE
  5
E6D
  8
LIMBER
 10
0.104142135623731
 20
1.3589955125767439
 30
0.7424646654874345
 11
0.09
 21
1.344175750094502
 31
0.7462973166613202
 12
0.09
 22
0.740112228162145
 32
0.6614017250756799
 13
0.104142135623731
 23
0.7409274853123938
 33
0.6556008690328419
  0
3DFACE
  5
E6E
  8
LIMBER
 10
0.09
 20
1.344175750094502
 30
0.7462973166613202
 11
0.0758578643762691
 21
1.3309865019127569
 31
0.7385282557495295
 12
0.0758578643762691
 22
0.7409274853123938
 32
0.6556008690328419
 13
0.09
 23
0.740112228162145
 33
0.6614017250756799
  0
3DFACE
  5
E6F
  8
LIMBER
 10
0.0758578643762691
 20
1.3309865019127569
 30
0.7385282557495295
 11
0.07
 21
1.327153850738872
 31
0.7237084932672868
 12
0.07
 22
0.7428956901813462
 32
0.6415963637008481
 13
0.0758578643762691
 23
0.7409274853123938
 33
0.6556008690328419
  0
3DFACE
  5
E70
  8
LIMBER
 10
0.07
 20
1.327153850738872
 30
0.7237084932672868
 11
0.0758578643762691
 21
1.334922911650662
 31
0.7105192450855427
 12
0.0758578643762691
 22
0.7448638950502986
 32
0.6275918583688549
 13
0.07
 23
0.7428956901813462
 33
0.6415963637008481
  0
3DFACE
  5
E71
  8
LIMBER
 10
0.0758578643762691
 20
1.334922911650662
 30
0.7105192450855427
 11
0.09
 21
1.3497426741329051
 31
0.7066865939116572
 12
0.09
 22
0.7456791522005475
 32
0.6217910023260169
 13
0.0758578643762691
 23
0.7448638950502986
 33
0.6275918583688549
  0
3DFACE
  5
E72
  8
LIMBER
 10
0.09
 20
1.3497426741329051
 30
0.7066865939116572
 11
0.1041421356237309
 21
1.362931922314649
 31
0.7144556548234476
 12
0.1041421356237309
 22
0.7448638950502986
 32
0.6275918583688549
 13
0.09
 23
0.7456791522005475
 33
0.6217910023260169
  0
3DFACE
  5
E73
  8
LIMBER
 10
0.1041421356237309
 20
1.362931922314649
 30
0.7144556548234476
 11
0.11
 21
1.366764573488535
 31
0.7292754173056895
 12
0.11
 22
0.7428956901813462
 32
0.6415963637008481
 13
0.1041421356237309
 23
0.7448638950502986
 33
0.6275918583688549
  0
3DFACE
  5
E74
  8
LIMBER
 10
-0.07
 20
1.327153850738872
 30
0.7237084932672869
 11
-0.0758578643762691
 21
1.330986501912758
 31
0.7385282557495296
 12
-0.0758578643762691
 22
0.7409274853123938
 32
0.6556008690328419
 13
-0.07
 23
0.7428956901813462
 33
0.6415963637008481
  0
3DFACE
  5
E75
  8
LIMBER
 10
-0.0758578643762691
 20
1.330986501912758
 30
0.7385282557495296
 11
-0.09
 21
1.344175750094502
 31
0.7462973166613202
 12
-0.09
 22
0.740112228162145
 32
0.6614017250756799
 13
-0.0758578643762691
 23
0.7409274853123938
 33
0.6556008690328419
  0
3DFACE
  5
E76
  8
LIMBER
 10
-0.09
 20
1.344175750094502
 30
0.7462973166613202
 11
-0.104142135623731
 21
1.3589955125767439
 31
0.7424646654874345
 12
-0.104142135623731
 22
0.7409274853123938
 32
0.6556008690328419
 13
-0.09
 23
0.740112228162145
 33
0.6614017250756799
  0
3DFACE
  5
E77
  8
LIMBER
 10
-0.104142135623731
 20
1.3589955125767439
 30
0.7424646654874345
 11
-0.11
 21
1.366764573488535
 31
0.7292754173056895
 12
-0.11
 22
0.7428956901813462
 32
0.6415963637008481
 13
-0.104142135623731
 23
0.7409274853123938
 33
0.6556008690328419
  0
3DFACE
  5
E78
  8
LIMBER
 10
-0.11
 20
1.366764573488535
 30
0.7292754173056895
 11
-0.104142135623731
 21
1.362931922314649
 31
0.7144556548234476
 12
-0.104142135623731
 22
0.7448638950502986
 32
0.6275918583688549
 13
-0.11
 23
0.7428956901813462
 33
0.6415963637008481
  0
3DFACE
  5
E79
  8
LIMBER
 10
-0.104142135623731
 20
1.362931922314649
 30
0.7144556548234476
 11
-0.09
 21
1.3497426741329051
 31
0.7066865939116572
 12
-0.09
 22
0.7456791522005475
 32
0.6217910023260169
 13
-0.104142135623731
 23
0.7448638950502986
 33
0.6275918583688549
  0
3DFACE
  5
E7A
  8
LIMBER
 10
-0.09
 20
1.3497426741329051
 30
0.7066865939116572
 11
-0.0758578643762691
 21
1.334922911650662
 31
0.7105192450855427
 12
-0.0758578643762691
 22
0.7448638950502986
 32
0.6275918583688549
 13
-0.09
 23
0.7456791522005475
 33
0.6217910023260169
  0
3DFACE
  5
E7B
  8
LIMBER
 10
-0.0758578643762691
 20
1.334922911650662
 30
0.7105192450855427
 11
-0.07
 21
1.327153850738872
 31
0.7237084932672869
 12
-0.07
 22
0.7428956901813462
 32
0.6415963637008481
 13
-0.0758578643762691
 23
0.7448638950502986
 33
0.6275918583688549
  0
3DFACE
  5
E7D
  8
LIMBER
 10
0.18
 20
0.6099856482161397
 30
0.6532119026382868
 11
0.18
 21
0.618336034273744
 31
0.593795818513792
 12
0.11
 22
0.7470708832101493
 32
0.6118883216386009
 13
0.11
 23
0.738720497152545
 33
0.6713044057630955
  0
3DFACE
  5
E7E
  8
LIMBER
 10
-0.11
 20
0.7470708832101493
 30
0.6118883216386009
 11
-0.18
 21
0.618336034273744
 31
0.593795818513792
 12
-0.18
 22
0.6099856482161397
 32
0.6532119026382868
 13
-0.11
 23
0.738720497152545
 33
0.6713044057630955
  0
3DFACE
  5
E80
  8
LIMBER
 10
0.11
 20
0.738720497152545
 30
0.6713044057630955
 11
0.11
 21
0.7470708832101493
 31
0.6118883216386009
 12
-0.11
 22
0.7470708832101493
 32
0.6118883216386009
 13
-0.11
 23
0.738720497152545
 33
0.6713044057630955
  0
3DFACE
  5
E81
  8
LIMBER
 10
0.11
 20
0.7470708832101493
 30
0.6118883216386009
 11
0.18
 21
0.618336034273744
 31
0.593795818513792
 12
-0.18
 22
0.618336034273744
 32
0.593795818513792
 13
-0.11
 23
0.7470708832101493
 33
0.6118883216386009
  0
3DFACE
  5
E82
  8
LIMBER
 10
-0.11
 20
0.738720497152545
 30
0.6713044057630955
 11
-0.18
 21
0.6099856482161397
 31
0.6532119026382868
 12
0.18
 22
0.6099856482161397
 32
0.6532119026382868
 13
0.11
 23
0.738720497152545
 33
0.6713044057630955
  0
3DFACE
  5
E86
  8
LIMBER
 10
-0.18
 20
0.6099856482161397
 30
0.6532119026382868
 11
-0.18
 21
0.618336034273744
 31
0.593795818513792
 12
-0.18
 22
0.1003634621354665
 32
0.5209995208725337
 13
-0.18
 23
0.1235827004959979
 33
0.5848524263639942
  0
3DFACE
  5
E88
  8
LIMBER
 10
0.18
 20
0.1003634621354665
 30
0.5209995208725337
 11
0.18
 21
0.618336034273744
 31
0.593795818513792
 12
0.18
 22
0.6099856482161397
 32
0.6532119026382868
 13
0.18
 23
0.1235827004959979
 33
0.5848524263639942
  0
3DFACE
  5
E89
  8
LIMBER
 10
-0.18
 20
0.1003634621354665
 30
0.5209995208725337
 11
-0.18
 21
0.618336034273744
 31
0.593795818513792
 12
0.18
 22
0.618336034273744
 32
0.593795818513792
 13
0.18
 23
0.1003634621354665
 33
0.5209995208725337
  0
3DFACE
  5
E8A
  8
LIMBER
 10
0.18
 20
0.1235827004959979
 30
0.5848524263639942
 11
0.18
 21
0.6099856482161397
 31
0.6532119026382868
 12
-0.18
 22
0.6099856482161397
 32
0.6532119026382868
 13
-0.18
 23
0.1235827004959979
 33
0.5848524263639942
  0
3DFACE
  5
EDA
  8
LIMBER
 10
0.03
 20
-1.5499999999999989
 30
1.4799999999999991
 11
0.0212132034355964
 21
-1.5499999999999989
 31
1.458786796564403
 12
0.0212132034355964
 22
0.1600000000000001
 32
1.198786796564403
 13
0.03
 23
0.1600000000000001
 33
1.2199999999999991
  0
3DFACE
  5
EDB
  8
LIMBER
 10
0.0212132034355964
 20
-1.5499999999999989
 30
1.458786796564403
 11
0.0
 21
-1.5499999999999989
 31
1.45
 12
0.0
 22
0.1600000000000001
 32
1.1899999999999999
 13
0.0212132034355964
 23
0.1600000000000001
 33
1.198786796564403
  0
3DFACE
  5
EDC
  8
LIMBER
 10
0.0
 20
-1.5499999999999989
 30
1.45
 11
-0.0212132034355964
 21
-1.5499999999999989
 31
1.458786796564403
 12
-0.0212132034355964
 22
0.1600000000000001
 32
1.198786796564403
 13
0.0
 23
0.1600000000000001
 33
1.1899999999999999
  0
3DFACE
  5
EDD
  8
LIMBER
 10
-0.0212132034355964
 20
-1.5499999999999989
 30
1.458786796564403
 11
-0.03
 21
-1.5499999999999989
 31
1.4799999999999991
 12
-0.03
 22
0.1600000000000001
 32
1.2199999999999991
 13
-0.0212132034355964
 23
0.1600000000000001
 33
1.198786796564403
  0
3DFACE
  5
EDE
  8
LIMBER
 10
-0.03
 20
-1.5499999999999989
 30
1.4799999999999991
 11
-0.0212132034355964
 21
-1.5499999999999989
 31
1.5012132034355961
 12
-0.0212132034355964
 22
0.1600000000000001
 32
1.241213203435596
 13
-0.03
 23
0.1600000000000001
 33
1.2199999999999991
  0
3DFACE
  5
EDF
  8
LIMBER
 10
-0.0212132034355964
 20
-1.5499999999999989
 30
1.5012132034355961
 11
0.0
 21
-1.5499999999999989
 31
1.5099999999999989
 12
0.0
 22
0.1600000000000001
 32
1.2499999999999989
 13
-0.0212132034355964
 23
0.1600000000000001
 33
1.241213203435596
  0
3DFACE
  5
EE0
  8
LIMBER
 10
0.0
 20
-1.5499999999999989
 30
1.5099999999999989
 11
0.0212132034355964
 21
-1.5499999999999989
 31
1.5012132034355961
 12
0.0212132034355964
 22
0.1600000000000001
 32
1.241213203435596
 13
0.0
 23
0.1600000000000001
 33
1.2499999999999989
  0
3DFACE
  5
EE1
  8
LIMBER
 10
0.0212132034355964
 20
-1.5499999999999989
 30
1.5012132034355961
 11
0.03
 21
-1.5499999999999989
 31
1.4799999999999991
 12
0.03
 22
0.1600000000000001
 32
1.2199999999999991
 13
0.0212132034355964
 23
0.1600000000000001
 33
1.241213203435596
  0
3DFACE
  5
EE2
  8
LIMBER
 10
0.03
 20
0.1599999999999997
 30
1.2199999999999991
 11
0.0212132034355964
 21
0.1599999999999997
 31
1.198786796564403
 12
0.0212132034355964
 22
0.1687867965644036
 32
1.198786796564403
 13
0.03
 23
0.19
 33
1.2199999999999991
  0
3DFACE
  5
EE3
  8
LIMBER
 10
0.0212132034355964
 20
0.1599999999999997
 30
1.198786796564403
 11
0.0
 21
0.1599999999999997
 31
1.1899999999999999
 12
0.0
 22
0.1599999999999997
 32
1.1899999999999999
 13
0.0212132034355964
 23
0.1687867965644036
 33
1.198786796564403
  0
3DFACE
  5
EE4
  8
LIMBER
 10
0.0
 20
0.1599999999999997
 30
1.1899999999999999
 11
-0.0212132034355964
 21
0.1599999999999997
 31
1.198786796564403
 12
-0.0212132034355964
 22
0.1687867965644036
 32
1.198786796564403
 13
0.0
 23
0.1599999999999997
 33
1.1899999999999999
  0
3DFACE
  5
EE5
  8
LIMBER
 10
-0.0212132034355964
 20
0.1599999999999997
 30
1.198786796564403
 11
-0.03
 21
0.1599999999999997
 31
1.2199999999999991
 12
-0.03
 22
0.19
 32
1.2199999999999991
 13
-0.0212132034355964
 23
0.1687867965644036
 33
1.198786796564403
  0
3DFACE
  5
EE6
  8
LIMBER
 10
-0.03
 20
0.1599999999999997
 30
1.2199999999999991
 11
-0.0212132034355964
 21
0.1599999999999997
 31
1.241213203435596
 12
-0.0212132034355964
 22
0.2112132034355962
 32
1.241213203435596
 13
-0.03
 23
0.19
 33
1.2199999999999991
  0
3DFACE
  5
EE7
  8
LIMBER
 10
-0.0212132034355964
 20
0.1599999999999997
 30
1.241213203435596
 11
0.0
 21
0.1599999999999997
 31
1.2499999999999989
 12
0.0
 22
0.2200000000000002
 32
1.2499999999999989
 13
-0.0212132034355964
 23
0.2112132034355962
 33
1.241213203435596
  0
3DFACE
  5
EE8
  8
LIMBER
 10
0.0
 20
0.1599999999999997
 30
1.2499999999999989
 11
0.0212132034355964
 21
0.1599999999999997
 31
1.241213203435596
 12
0.0212132034355964
 22
0.2112132034355962
 32
1.241213203435596
 13
0.0
 23
0.2200000000000002
 33
1.2499999999999989
  0
3DFACE
  5
EE9
  8
LIMBER
 10
0.0212132034355964
 20
0.1599999999999997
 30
1.241213203435596
 11
0.03
 21
0.1599999999999997
 31
1.2199999999999991
 12
0.03
 22
0.19
 32
1.2199999999999991
 13
0.0212132034355964
 23
0.2112132034355962
 33
1.241213203435596
  0
3DFACE
  5
EEA
  8
LIMBER
 10
0.03
 20
0.19
 30
0.9200000000000002
 11
0.0212132034355964
 21
0.2112132034355962
 31
0.9200000000000002
 12
0.0212132034355964
 22
0.2112132034355962
 32
1.241213203435596
 13
0.03
 23
0.19
 33
1.2199999999999991
  0
3DFACE
  5
EEB
  8
LIMBER
 10
0.0212132034355964
 20
0.2112132034355962
 30
0.9200000000000002
 11
0.0
 21
0.2199999999999997
 31
0.9300000000000001
 12
0.0
 22
0.2199999999999997
 32
1.25
 13
0.0212132034355964
 23
0.2112132034355962
 33
1.241213203435596
  0
3DFACE
  5
EEC
  8
LIMBER
 10
0.0
 20
0.2199999999999997
 30
0.9300000000000001
 11
-0.0212132034355964
 21
0.2112132034355962
 31
0.9200000000000002
 12
-0.0212132034355964
 22
0.2112132034355962
 32
1.241213203435596
 13
0.0
 23
0.2199999999999997
 33
1.25
  0
3DFACE
  5
EED
  8
LIMBER
 10
-0.0212132034355964
 20
0.2112132034355962
 30
0.9200000000000002
 11
-0.03
 21
0.19
 31
0.9200000000000002
 12
-0.03
 22
0.19
 32
1.2199999999999991
 13
-0.0212132034355964
 23
0.2112132034355962
 33
1.241213203435596
  0
3DFACE
  5
EEE
  8
LIMBER
 10
-0.03
 20
0.19
 30
0.9200000000000002
 11
-0.0212132034355964
 21
0.1687867965644036
 31
0.9200000000000002
 12
-0.0212132034355964
 22
0.1687867965644036
 32
1.198786796564403
 13
-0.03
 23
0.19
 33
1.2199999999999991
  0
3DFACE
  5
EEF
  8
LIMBER
 10
-0.0212132034355964
 20
0.1687867965644036
 30
0.9200000000000002
 11
0.0
 21
0.1600000000000001
 31
0.9200000000000002
 12
0.0
 22
0.1600000000000001
 32
1.1899999999999991
 13
-0.0212132034355964
 23
0.1687867965644036
 33
1.198786796564403
  0
3DFACE
  5
EF0
  8
LIMBER
 10
0.0
 20
0.1600000000000001
 30
0.9200000000000002
 11
0.0212132034355964
 21
0.1687867965644036
 31
0.9200000000000002
 12
0.0212132034355964
 22
0.1687867965644036
 32
1.198786796564403
 13
0.0
 23
0.1600000000000001
 33
1.1899999999999991
  0
3DFACE
  5
EF1
  8
LIMBER
 10
0.0212132034355964
 20
0.1687867965644036
 30
0.9200000000000002
 11
0.03
 21
0.19
 31
0.9200000000000002
 12
0.03
 22
0.19
 32
1.2199999999999991
 13
0.0212132034355964
 23
0.1687867965644036
 33
1.198786796564403
  0
3DFACE
  5
EF2
  8
LIMBER
 10
-0.03
 20
-1.5499999999999989
 30
1.4799999999999991
 11
-0.0212132034355964
 21
-1.5499999999999989
 31
1.458786796564403
 12
0.0
 22
-1.5499999999999989
 32
1.5099999999999989
 13
-0.0212132034355964
 23
-1.5499999999999989
 33
1.5012132034355961
  0
3DFACE
  5
EF3
  8
LIMBER
 10
-0.0212132034355964
 20
-1.5499999999999989
 30
1.458786796564403
 11
0.0
 21
-1.5499999999999989
 31
1.45
 12
0.0212132034355964
 22
-1.5499999999999989
 32
1.5012132034355961
 13
0.0
 23
-1.5499999999999989
 33
1.5099999999999989
  0
3DFACE
  5
EF4
  8
LIMBER
 10
0.0
 20
-1.5499999999999989
 30
1.45
 11
0.0212132034355964
 21
-1.5499999999999989
 31
1.458786796564403
 12
0.03
 22
-1.5499999999999989
 32
1.4799999999999991
 13
0.0212132034355964
 23
-1.5499999999999989
 33
1.5012132034355961
  0
VIEWPORT
  5
2E
 67
     1
  8
0
 10
144.7270812988281
 20
101.2295806407928
 30
0.0
 40
391.13550988316581
 41
222.15178063964839
 68
     2
 69
     1
1001
ACAD
1000
MVIEW
1002
{
1070
    16
1010
0.0
1020
0.0
1030
0.0
1010
0.0
1020
0.0
1030
1.0
1040
0.0
1040
222.15178063964839
1040
144.7270812988281
1040
101.2295806407928
1040
50.0
1040
0.0
1040
0.0
1070
     0
1070
   100
1070
     1
1070
     1
1070
     0
1070
     0
1070
     0
1070
     0
1040
0.0
1040
0.0
1040
0.0
1040
10.0
1040
10.0
1040
10.0
1040
10.0
1070
     0
1002
{
1002
}
1002
}
  0
VIEWPORT
  5
30
 67
     1
  8
0
 10
139.22375631332389
 20
100.8062499761581
 30
0.0
 40
222.75801010131829
 41
161.289999961853
 68
     1
 69
     2
1001
ACAD
1000
MVIEW
1002
{
1070
    16
1010
0.0
1020
0.0
1030
0.0
1010
0.0
1020
0.0
1030
1.0
1040
0.0
1040
307.49010134148989
1040
210.0
1040
148.5
1040
50.0
1040
0.0
1040
0.0
1070
     0
1070
   100
1070
     1
1070
     3
1070
     0
1070
     1
1070
     0
1070
     0
1040
0.0
1040
0.0
1040
0.0
1040
10.0
1040
10.0
1040
10.0
1040
10.0
1070
     0
1002
{
1002
}
1002
}
  0
ENDSEC
  0
EOF
