  0
SECTION
  2
HEADER
  9
$ACADVER
  1
AC1009
  9
$INSBASE
 10
0.0
 20
0.0
 30
0.0
  9
$EXTMIN
 10
-0.7800000000000001
 20
-4.5600930000000002
 30
-1.8795150000000009
  9
$EXTMAX
 10
3.0
 20
12.0
 30
15.27858644754571
  9
$LIMMIN
 10
0.0
 20
0.0
  9
$LIMMAX
 10
420.0
 20
297.0
  9
$ORTHOMODE
 70
     1
  9
$REGENMODE
 70
     1
  9
$FILLMODE
 70
     1
  9
$QTEXTMODE
 70
     0
  9
$MIRRTEXT
 70
     1
  9
$DRAGMODE
 70
     2
  9
$LTSCALE
 40
1.0
  9
$OSMODE
 70
    35
  9
$ATTMODE
 70
     1
  9
$TEXTSIZE
 40
2.5
  9
$TRACEWID
 40
1.0
  9
$TEXTSTYLE
  7
STANDARD
  9
$CLAYER
  8
0
  9
$CELTYPE
  6
BYLAYER
  9
$CECOLOR
 62
   256
  9
$DIMSCALE
 40
1.0
  9
$DIMASZ
 40
2.5
  9
$DIMEXO
 40
0.625
  9
$DIMDLI
 40
3.75
  9
$DIMRND
 40
0.0
  9
$DIMDLE
 40
0.0
  9
$DIMEXE
 40
1.25
  9
$DIMTP
 40
0.0
  9
$DIMTM
 40
0.0
  9
$DIMTXT
 40
2.5
  9
$DIMCEN
 40
2.5
  9
$DIMTSZ
 40
0.0
  9
$DIMTOL
 70
     0
  9
$DIMLIM
 70
     0
  9
$DIMTIH
 70
     0
  9
$DIMTOH
 70
     0
  9
$DIMSE1
 70
     0
  9
$DIMSE2
 70
     0
  9
$DIMTAD
 70
     1
  9
$DIMZIN
 70
     8
  9
$DIMBLK
  1

  9
$DIMASO
 70
     1
  9
$DIMSHO
 70
     1
  9
$DIMPOST
  1

  9
$DIMAPOST
  1

  9
$DIMALT
 70
     0
  9
$DIMALTD
 70
     3
  9
$DIMALTF
 40
0.03937007874016
  9
$DIMLFAC
 40
1.0
  9
$DIMTOFL
 70
     1
  9
$DIMTVP
 40
0.0
  9
$DIMTIX
 70
     0
  9
$DIMSOXD
 70
     0
  9
$DIMSAH
 70
     0
  9
$DIMBLK1
  1

  9
$DIMBLK2
  1

  9
$DIMSTYLE
  2
ISO-25
  9
$DIMCLRD
 70
     0
  9
$DIMCLRE
 70
     0
  9
$DIMCLRT
 70
     0
  9
$DIMTFAC
 40
1.0
  9
$DIMGAP
 40
0.625
  9
$LUNITS
 70
     2
  9
$LUPREC
 70
     4
  9
$SKETCHINC
 40
1.0
  9
$FILLETRAD
 40
10.0
  9
$AUNITS
 70
     0
  9
$AUPREC
 70
     0
  9
$MENU
  1
.
  9
$ELEVATION
 40
0.0
  9
$PELEVATION
 40
0.0
  9
$THICKNESS
 40
0.0
  9
$LIMCHECK
 70
     0
  9
$BLIPMODE
 70
     0
  9
$CHAMFERA
 40
10.0
  9
$CHAMFERB
 40
10.0
  9
$SKPOLY
 70
     0
  9
$TDCREATE
 40
2456869.418187337
  9
$TDUPDATE
 40
2456869.6526498962
  9
$TDINDWG
 40
0.2340690625
  9
$TDUSRTIMER
 40
0.2340690625
  9
$USRTIMER
 70
     1
  9
$ANGBASE
 50
0.0
  9
$ANGDIR
 70
     0
  9
$PDMODE
 70
     0
  9
$PDSIZE
 40
0.0
  9
$PLINEWID
 40
0.0
  9
$COORDS
 70
     1
  9
$SPLFRAME
 70
     0
  9
$SPLINETYPE
 70
     6
  9
$SPLINESEGS
 70
     8
  9
$ATTDIA
 70
     1
  9
$ATTREQ
 70
     1
  9
$HANDLING
 70
-16383
  9
$HANDSEED
  5
8B1
  9
$SURFTAB1
 70
     6
  9
$SURFTAB2
 70
     6
  9
$SURFTYPE
 70
     6
  9
$SURFU
 70
     6
  9
$SURFV
 70
     6
  9
$UCSNAME
  2

  9
$UCSORG
 10
0.0
 20
0.0
 30
0.0
  9
$UCSXDIR
 10
0.0
 20
-1.0
 30
0.0
  9
$UCSYDIR
 10
0.0
 20
0.0
 30
1.0
  9
$PUCSNAME
  2

  9
$PUCSORG
 10
0.0
 20
0.0
 30
0.0
  9
$PUCSXDIR
 10
1.0
 20
0.0
 30
0.0
  9
$PUCSYDIR
 10
0.0
 20
1.0
 30
0.0
  9
$USERI1
 70
     0
  9
$USERI2
 70
     0
  9
$USERI3
 70
     0
  9
$USERI4
 70
     0
  9
$USERI5
 70
     0
  9
$USERR1
 40
0.0
  9
$USERR2
 40
0.0
  9
$USERR3
 40
0.0
  9
$USERR4
 40
0.0
  9
$USERR5
 40
0.0
  9
$WORLDVIEW
 70
     1
  9
$SHADEDGE
 70
     3
  9
$SHADEDIF
 70
    70
  9
$TILEMODE
 70
     1
  9
$MAXACTVP
 70
    64
  9
$PLIMCHECK
 70
     0
  9
$PEXTMIN
 10
27.844751262664801
 20
20.161249995231621
 30
0.0
  9
$PEXTMAX
 10
250.60276136398309
 20
181.4512499570846
 30
0.0
  9
$PLIMMIN
 10
-3.757080078125
 20
-3.7570831775665279
  9
$PLIMMAX
 10
293.21124267578119
 20
206.21624445915219
  9
$UNITMODE
 70
     0
  9
$VISRETAIN
 70
     1
  9
$PLINEGEN
 70
     0
  9
$PSLTSCALE
 70
     1
  0
ENDSEC
  0
SECTION
  2
TABLES
  0
TABLE
  2
VPORT
 70
    19
  0
VPORT
  2
*ACTIVE
 70
     0
 10
0.0
 20
0.0
 11
1.0
 21
1.0
 12
2.7447380445643361
 22
0.9531432078600481
 13
0.0
 23
0.0
 14
0.01
 24
0.01
 15
1.0
 25
1.0
 16
-1.0
 26
0.0
 36
0.0
 17
0.0
 27
0.0
 37
0.0
 40
17.280223157986921
 41
2.2220902612826601
 42
50.0
 43
0.0
 44
0.0
 50
0.0
 51
0.0
 71
     0
 72
   100
 73
     1
 74
     3
 75
     1
 76
     1
 77
     0
 78
     0
  0
ENDTAB
  0
TABLE
  2
LTYPE
 70
     1
  0
LTYPE
  2
CONTINUOUS
 70
     0
  3
Solid line
 72
    65
 73
     0
 40
0.0
  0
ENDTAB
  0
TABLE
  2
LAYER
 70
     6
  0
LAYER
  2
0
 70
     0
 62
     7
  6
CONTINUOUS
  0
LAYER
  2
DRAWING
 70
     0
 62
     9
  6
CONTINUOUS
  0
LAYER
  2
SEATS
 70
     0
 62
     3
  6
CONTINUOUS
  0
LAYER
  2
FENDERS
 70
     0
 62
     1
  6
CONTINUOUS
  0
LAYER
  2
WHEELS
 70
     0
 62
     2
  6
CONTINUOUS
  0
LAYER
  2
TENT
 70
     0
 62
     5
  6
CONTINUOUS
  0
ENDTAB
  0
TABLE
  2
STYLE
 70
     1
  0
STYLE
  2
STANDARD
 70
     0
 40
0.0
 41
1.0
 50
0.0
 71
     0
 42
2.5
  3
txt
  4

  0
ENDTAB
  0
TABLE
  2
VIEW
 70
     0
  0
ENDTAB
  0
TABLE
  2
UCS
 70
     0
  0
ENDTAB
  0
TABLE
  2
APPID
 70
     1
  0
APPID
  2
ACAD
 70
     0
  0
ENDTAB
  0
TABLE
  2
DIMSTYLE
 70
     1
  0
DIMSTYLE
  2
ISO-25
 70
     0
  3

  4

  5

  6

  7

 40
1.0
 41
2.5
 42
0.625
 43
3.75
 44
1.25
 45
0.0
 46
0.0
 47
0.0
 48
0.0
140
2.5
141
2.5
142
0.0
143
0.03937007874016
144
1.0
145
0.0
146
1.0
147
0.625
 71
     0
 72
     0
 73
     0
 74
     0
 75
     0
 76
     0
 77
     1
 78
     8
170
     0
171
     3
172
     1
173
     0
174
     0
175
     0
176
     0
177
     0
178
     0
  0
ENDTAB
  0
ENDSEC
  0
SECTION
  2
BLOCKS
  0
BLOCK
  8
0
  2
$MODEL_SPACE
 70
     0
 10
0.0
 20
0.0
 30
0.0
  3
$MODEL_SPACE
  1

  0
ENDBLK
  5
21
  8
0
  0
BLOCK
 67
     1
  8
0
  2
$PAPER_SPACE
 70
     0
 10
0.0
 20
0.0
 30
0.0
  3
$PAPER_SPACE
  1

  0
ENDBLK
  5
1D
 67
     1
  8
0
  0
ENDSEC
  0
SECTION
  2
ENTITIES
  0
3DFACE
  5
9B
  8
0
 10
0.6400000000000001
 20
-0.7300000000000005
 30
0.4900000000000001
 11
0.6400000000000001
 21
-0.7300000000000005
 31
0.33
 12
0.6400000000000001
 22
-0.37
 32
0.33
 13
0.6400000000000001
 23
-0.37
 33
0.4900000000000001
  0
3DFACE
  5
9C
  8
0
 10
-0.6400000000000001
 20
-0.37
 30
0.33
 11
-0.6400000000000001
 21
-0.7300000000000005
 31
0.33
 12
-0.6400000000000001
 22
-0.7300000000000005
 32
0.4900000000000001
 13
-0.6400000000000001
 23
-0.37
 33
0.4900000000000001
  0
3DFACE
  5
A2
  8
0
 10
-0.5300000000000001
 20
0.3700000000000001
 30
0.33
 11
-0.6400000000000001
 21
-0.3700000000000005
 31
0.33
 12
-0.6400000000000001
 22
-0.3700000000000005
 32
0.4900000000000001
 13
-0.5300000000000001
 23
0.35
 33
0.4900000000000001
  0
3DFACE
  5
A3
  8
0
 10
0.6400000000000001
 20
-0.3700000000000005
 30
0.4900000000000001
 11
0.6400000000000001
 21
-0.3700000000000005
 31
0.33
 12
0.5300000000000001
 22
0.3699999999999999
 32
0.33
 13
0.5300000000000001
 23
0.35
 33
0.4900000000000001
  0
3DFACE
  5
AF
  8
0
 10
-0.43
 20
0.7900000000000002
 30
1.0600000000000001
 11
-0.43
 21
0.7900000000000002
 31
0.33
 12
-0.5300000000000001
 22
0.3700000000000001
 32
0.33
 13
-0.5300000000000001
 23
0.35
 33
0.4900000000000001
  0
3DFACE
  5
B0
  8
0
 10
0.5300000000000001
 20
0.3699999999999999
 30
0.33
 11
0.43
 21
0.7900000000000002
 31
0.33
 12
0.43
 22
0.7900000000000002
 32
1.0600000000000001
 13
0.5300000000000001
 23
0.35
 33
0.4900000000000001
  0
3DFACE
  5
B8
  8
0
 10
0.43
 20
0.7900000000000002
 30
1.0600000000000001
 11
0.43
 21
0.7900000000000002
 31
0.45
 12
0.22
 22
1.6000000000000001
 32
0.45
 13
0.22
 23
1.4699999999999991
 33
0.99
  0
3DFACE
  5
BA
  8
0
 10
-0.22
 20
1.6000000000000001
 30
0.45
 11
-0.43
 21
0.7900000000000002
 31
0.45
 12
-0.43
 22
0.7900000000000002
 32
1.0600000000000001
 13
-0.22
 23
1.4699999999999991
 33
0.99
  0
3DFACE
  5
C1
  8
0
 10
0.5300000000000001
 20
0.35
 30
0.4900000000000001
 11
0.43
 21
0.7900000000000002
 31
1.0600000000000001
 12
0.43
 22
0.7900000000000002
 32
1.0600000000000001
 13
0.5300000000000001
 23
0.35
 33
1.1100000000000001
  0
3DFACE
  5
C3
  8
0
 10
-0.43
 20
0.7900000000000002
 30
1.0600000000000001
 11
-0.43
 21
0.7900000000000002
 31
1.0600000000000001
 12
-0.5300000000000001
 22
0.35
 32
0.4900000000000001
 13
-0.5300000000000001
 23
0.35
 33
1.1100000000000001
  0
3DFACE
  5
C9
  8
0
 10
0.01
 20
1.54
 30
0.99
 11
0.01
 21
1.669999999999999
 31
0.45
 12
-0.01
 22
1.669999999999999
 32
0.45
 13
-0.01
 23
1.54
 33
0.99
  0
3DFACE
  5
CA
  8
0
 10
-0.01
 20
1.54
 30
0.99
 11
-0.01
 21
1.669999999999999
 31
0.45
 12
-0.22
 22
1.6000000000000001
 32
0.45
 13
-0.2199999999999999
 23
1.4699999999999991
 33
0.99
  0
3DFACE
  5
CB
  8
0
 10
0.22
 20
1.6000000000000001
 30
0.45
 11
0.01
 21
1.669999999999999
 31
0.45
 12
0.01
 22
1.54
 32
0.99
 13
0.22
 23
1.4699999999999991
 33
0.99
  0
3DFACE
  5
CD
  8
0
 10
0.01
 20
1.4699999999999991
 30
1.0600000000000001
 11
0.01
 21
1.54
 31
0.99
 12
-0.01
 22
1.54
 32
0.99
 13
-0.01
 23
1.4699999999999991
 33
1.0600000000000001
  0
3DFACE
  5
D1
  8
0
 10
0.01
 20
0.51
 30
1.179999999999999
 11
0.0100000000000002
 21
0.5099999999999998
 31
1.169999999999999
 12
0.0100000000000001
 22
1.3899999999999999
 32
1.0600000000000001
 13
0.01
 23
1.3899999999999999
 33
1.0700000000000001
  0
3DFACE
  5
D2
  8
0
 10
-0.01
 20
1.3899999999999999
 30
1.0600000000000001
 11
-0.01
 21
0.51
 31
1.169999999999999
 12
-0.01
 22
0.51
 32
1.179999999999999
 13
-0.01
 23
1.3899999999999999
 33
1.0700000000000001
  0
3DFACE
  5
E9
  8
0
 10
-0.01
 20
1.4699999999999991
 30
1.0600000000000001
 11
-0.01
 21
1.54
 31
0.99
 12
-0.2199999999999999
 22
1.4699999999999991
 32
0.99
 13
-0.2199999999999999
 23
1.4699999999999991
 33
0.99
  0
3DFACE
  5
EA
  8
0
 10
0.22
 20
1.4699999999999991
 30
0.99
 11
0.22
 21
1.4699999999999991
 31
0.99
 12
0.01
 22
1.54
 32
0.99
 13
0.01
 23
1.4699999999999991
 33
1.0600000000000001
  0
3DFACE
  5
EB
  8
0
 10
-0.01
 20
1.3899999999999999
 30
1.0600000000000001
 11
-0.01
 21
1.4699999999999991
 31
1.0600000000000001
 12
-0.2199999999999999
 22
1.4699999999999991
 32
0.99
 13
-0.2199999999999999
 23
1.4699999999999991
 33
0.99
  0
3DFACE
  5
EC
  8
0
 10
0.22
 20
1.4699999999999991
 30
0.99
 11
0.22
 21
1.4699999999999991
 31
0.99
 12
0.01
 22
1.4699999999999991
 32
1.0600000000000001
 13
0.01
 23
1.3899999999999999
 33
1.0600000000000001
  0
3DFACE
  5
ED
  8
0
 10
-0.22
 20
1.4699999999999991
 30
0.99
 11
-0.43
 21
0.7900000000000002
 31
1.0600000000000001
 12
-0.0100000000000004
 22
1.3899999999999999
 32
1.0600000000000001
 13
-0.01
 23
1.3899999999999999
 33
1.0600000000000001
  0
3DFACE
  5
EF
  8
0
 10
-0.5300000000000001
 20
0.35
 30
1.1100000000000001
 11
-0.5300000000000001
 21
0.35
 31
1.1100000000000001
 12
-0.01
 22
0.35
 32
1.1899999999999991
 13
-0.01
 23
0.51
 33
1.169999999999999
  0
3DFACE
  5
F0
  8
0
 10
-0.4299999999999999
 20
0.7900000000000002
 30
1.0600000000000001
 11
-0.4299999999999999
 21
0.7900000000000002
 31
1.0600000000000001
 12
-0.01
 22
0.51
 32
1.169999999999999
 13
-0.01
 23
1.3899999999999999
 33
1.0600000000000001
  0
3DFACE
  5
F1
  8
0
 10
0.4300000000000001
 20
0.7900000000000002
 30
1.0600000000000001
 11
0.4300000000000001
 21
0.7900000000000002
 31
1.0600000000000001
 12
0.22
 22
1.4699999999999991
 32
0.99
 13
0.01
 23
1.3899999999999999
 33
1.0600000000000001
  0
3DFACE
  5
F2
  8
0
 10
0.01
 20
0.51
 30
1.169999999999999
 11
0.01
 21
0.51
 31
1.169999999999999
 12
0.4299999999999999
 22
0.7900000000000008
 32
1.0600000000000001
 13
0.0100000000000003
 23
1.3899999999999999
 33
1.0600000000000001
  0
3DFACE
  5
F3
  8
0
 10
0.01
 20
0.51
 30
1.169999999999999
 11
0.01
 21
0.51
 31
1.169999999999999
 12
0.5300000000000003
 22
0.3499999999999998
 32
1.1100000000000001
 13
0.4299999999999999
 23
0.7900000000000008
 33
1.0600000000000001
  0
3DFACE
  5
F4
  8
0
 10
0.01
 20
0.35
 30
1.1899999999999991
 11
0.01
 21
0.35
 31
1.1899999999999991
 12
0.5300000000000003
 22
0.3499999999999998
 32
1.1100000000000001
 13
0.0100000000000002
 23
0.5099999999999998
 33
1.169999999999999
  0
3DFACE
  5
F5
  8
0
 10
0.0100000000000003
 20
1.3899999999999999
 30
1.0600000000000001
 11
0.01
 21
1.4699999999999991
 31
1.0600000000000001
 12
-0.01
 22
1.4699999999999991
 32
1.0600000000000001
 13
-0.01
 23
1.3899999999999999
 33
1.0600000000000001
  0
3DFACE
  5
F6
  8
0
 10
0.01
 20
1.3899999999999999
 30
1.0700000000000001
 11
0.0100000000000001
 21
1.3899999999999999
 31
1.0600000000000001
 12
-0.01
 22
1.3899999999999999
 32
1.0600000000000001
 13
-0.01
 23
1.3899999999999999
 33
1.0700000000000001
  0
3DFACE
  5
F7
  8
0
 10
-0.01
 20
0.51
 30
1.179999999999999
 11
-0.01
 21
0.51
 31
1.169999999999999
 12
0.0100000000000002
 22
0.5099999999999998
 32
1.169999999999999
 13
0.01
 23
0.51
 33
1.179999999999999
  0
3DFACE
  5
F8
  8
0
 10
-0.01
 20
0.51
 30
1.169999999999999
 11
-0.01
 21
0.35
 31
1.1899999999999991
 12
0.01
 22
0.35
 32
1.1899999999999991
 13
0.01
 23
0.51
 33
1.169999999999999
  0
3DFACE
  5
FD
  8
0
 10
0.6400000000000001
 20
-0.3700000000000003
 30
1.0800000000000001
 11
0.6400000000000001
 21
-0.3700000000000003
 31
0.4900000000000001
 12
0.5300000000000001
 22
0.3499999999999996
 32
0.4900000000000001
 13
0.5300000000000001
 23
0.3499999999999996
 33
1.0800000000000001
  0
3DFACE
  5
FE
  8
0
 10
0.5000000000000004
 20
0.3499999999999972
 30
0.4100000000000002
 11
0.6100000000000002
 21
-0.37
 31
0.4100000000000002
 12
0.61
 22
-0.3700000000000003
 32
1.0800000000000001
 13
0.5
 23
0.3499999999999996
 33
1.0800000000000001
  0
3DFACE
  5
103
  8
0
 10
0.6100000000000002
 20
-0.37
 30
0.4100000000000002
 11
0.61
 21
-0.7300000000000004
 31
0.4900000000000001
 12
0.61
 22
-0.3700000000000003
 32
1.0800000000000001
 13
0.61
 23
-0.3700000000000003
 33
1.0800000000000001
  0
3DFACE
  5
107
  8
0
 10
0.6400000000000001
 20
-0.3700000000000003
 30
1.0800000000000001
 11
0.6400000000000001
 21
-0.7300000000000004
 31
0.4900000000000001
 12
0.6400000000000001
 22
-0.3700000000000003
 32
0.4900000000000001
 13
0.6400000000000001
 23
-0.3700000000000003
 33
1.0800000000000001
  0
3DFACE
  5
10A
  8
0
 10
0.6400000000000001
 20
-0.3700000000000003
 30
1.0800000000000001
 11
0.6400000000000001
 21
-0.8500000000000003
 31
0.7000000000000001
 12
0.6400000000000001
 22
-0.7300000000000004
 32
0.4900000000000001
 13
0.6400000000000001
 23
-0.3700000000000003
 33
1.0800000000000001
  0
3DFACE
  5
10C
  8
0
 10
0.61
 20
-0.7300000000000004
 30
0.4900000000000001
 11
0.61
 21
-0.8500000000000003
 31
0.7000000000000001
 12
0.61
 22
-0.3700000000000003
 32
1.0800000000000001
 13
0.61
 23
-0.3700000000000003
 33
1.0800000000000001
  0
3DFACE
  5
111
  8
0
 10
0.61
 20
-0.8500000000000003
 30
0.7000000000000001
 11
0.61
 21
-0.9700000000000002
 31
0.7900000000000002
 12
0.61
 22
-0.3700000000000003
 32
1.0800000000000001
 13
0.61
 23
-0.3700000000000003
 33
1.0800000000000001
  0
3DFACE
  5
113
  8
0
 10
0.6400000000000001
 20
-0.3700000000000003
 30
1.0800000000000001
 11
0.6400000000000001
 21
-0.9700000000000002
 31
0.7900000000000002
 12
0.6400000000000001
 22
-0.8500000000000003
 32
0.7000000000000001
 13
0.6400000000000001
 23
-0.3700000000000003
 33
1.0800000000000001
  0
3DFACE
  5
118
  8
0
 10
0.6400000000000001
 20
-0.3700000000000003
 30
1.0800000000000001
 11
0.6400000000000001
 21
-1.089999999999999
 31
0.83
 12
0.6400000000000001
 22
-0.9700000000000002
 32
0.7900000000000002
 13
0.6400000000000001
 23
-0.3700000000000003
 33
1.0800000000000001
  0
3DFACE
  5
119
  8
0
 10
0.61
 20
-0.9700000000000002
 30
0.7900000000000002
 11
0.61
 21
-1.089999999999999
 31
0.83
 12
0.61
 22
-0.3700000000000003
 32
1.0800000000000001
 13
0.61
 23
-0.3700000000000003
 33
1.0800000000000001
  0
3DFACE
  5
11F
  8
0
 10
0.6400000000000001
 20
-1.669999999999999
 30
1.0800000000000001
 11
0.6400000000000001
 21
-1.29
 31
0.83
 12
0.6400000000000001
 22
-1.089999999999999
 32
0.83
 13
0.6400000000000001
 23
-0.3700000000000003
 33
1.0800000000000001
  0
3DFACE
  5
120
  8
0
 10
0.61
 20
-1.089999999999999
 30
0.83
 11
0.61
 21
-1.29
 31
0.83
 12
0.61
 22
-1.3700000000000001
 32
1.0800000000000001
 13
0.61
 23
-0.3700000000000003
 33
1.0800000000000001
  0
3DFACE
  5
127
  8
0
 10
0.6400000000000001
 20
-1.669999999999999
 30
1.0800000000000001
 11
0.6400000000000001
 21
-1.3700000000000001
 31
0.8100000000000001
 12
0.6400000000000001
 22
-1.29
 32
0.83
 13
0.6400000000000001
 23
-1.669999999999999
 33
1.0800000000000001
  0
3DFACE
  5
129
  8
0
 10
0.61
 20
-1.29
 30
0.83
 11
0.61
 21
-1.3700000000000001
 31
0.8100000000000001
 12
0.61
 22
-1.3700000000000001
 32
1.0800000000000001
 13
0.61
 23
-1.3700000000000001
 33
1.0800000000000001
  0
3DFACE
  5
12E
  8
0
 62
     2
 10
0.61
 20
-1.3700000000000001
 30
0.8100000000000001
 11
0.5700000000000001
 21
-1.409999999999999
 31
0.7900000000000002
 12
0.5700000000000001
 22
-1.409999999999999
 32
1.0800000000000001
 13
0.61
 23
-1.3700000000000001
 33
1.0800000000000001
  0
3DFACE
  5
130
  8
0
 62
     2
 10
0.6400000000000001
 20
-1.669999999999999
 30
1.0800000000000001
 11
0.6400000000000001
 21
-1.409999999999999
 31
0.7900000000000002
 12
0.6400000000000001
 22
-1.3700000000000001
 32
0.8100000000000001
 13
0.6400000000000001
 23
-1.669999999999999
 33
1.0800000000000001
  0
3DFACE
  5
135
  8
0
 10
0.6400000000000001
 20
-1.669999999999999
 30
1.0800000000000001
 11
0.6400000000000001
 21
-1.54
 31
0.7000000000000001
 12
0.6400000000000001
 22
-1.409999999999999
 32
0.7900000000000002
 13
0.6400000000000001
 23
-1.669999999999999
 33
1.0800000000000001
  0
3DFACE
  5
137
  8
0
 10
-0.6399999999999999
 20
-1.409999999999999
 30
0.7900000000000002
 11
-0.6400000000000001
 21
-1.54
 31
0.7000000000000001
 12
-0.6400000000000001
 22
-1.669999999999999
 32
1.0800000000000001
 13
-0.6400000000000001
 23
-1.669999999999999
 33
1.0800000000000001
  0
3DFACE
  5
13C
  8
0
 10
-0.6400000000000001
 20
-1.54
 30
0.7000000000000001
 11
-0.6400000000000001
 21
-1.6299999999999999
 31
0.58
 12
-0.6400000000000001
 22
-1.669999999999999
 32
1.0800000000000001
 13
-0.6400000000000001
 23
-1.669999999999999
 33
1.0800000000000001
  0
3DFACE
  5
13E
  8
0
 10
0.6400000000000001
 20
-1.669999999999999
 30
1.0800000000000001
 11
0.6400000000000001
 21
-1.6299999999999999
 31
0.58
 12
0.6400000000000001
 22
-1.54
 32
0.7000000000000001
 13
0.6400000000000001
 23
-1.669999999999999
 33
1.0800000000000001
  0
3DFACE
  5
143
  8
0
 10
0.6400000000000001
 20
-1.669999999999999
 30
1.0800000000000001
 11
0.6400000000000001
 21
-1.669999999999999
 31
0.48
 12
0.6400000000000001
 22
-1.6299999999999999
 32
0.58
 13
0.6400000000000001
 23
-1.669999999999999
 33
1.0800000000000001
  0
3DFACE
  5
144
  8
0
 10
-0.6400000000000001
 20
-1.6299999999999999
 30
0.58
 11
-0.6400000000000001
 21
-1.669999999999999
 31
0.48
 12
-0.6400000000000001
 22
-1.669999999999999
 32
1.0800000000000001
 13
-0.6400000000000001
 23
-1.669999999999999
 33
1.0800000000000001
  0
3DFACE
  5
14A
  8
0
 10
0.6400000000000001
 20
-1.7199999999999991
 30
1.0800000000000001
 11
0.6400000000000001
 21
-1.75
 31
0.48
 12
0.6400000000000001
 22
-1.6699999999999999
 32
0.48
 13
0.6400000000000001
 23
-1.6699999999999999
 33
1.0800000000000001
  0
3DFACE
  5
14B
  8
0
 10
-0.6400000000000001
 20
-1.7199999999999991
 30
1.0800000000000001
 11
-0.6400000000000001
 21
-1.75
 31
0.48
 12
0.6400000000000001
 22
-1.75
 32
0.48
 13
0.6400000000000001
 23
-1.7199999999999991
 33
1.0800000000000001
  0
3DFACE
  5
14D
  8
0
 10
-0.6400000000000001
 20
-1.669999999999999
 30
0.48
 11
-0.6400000000000001
 21
-1.75
 31
0.48
 12
-0.6400000000000001
 22
-1.7199999999999991
 32
1.0800000000000001
 13
-0.6400000000000001
 23
-1.669999999999999
 33
1.0800000000000001
  0
3DFACE
  5
14F
  8
0
 10
-0.6400000000000001
 20
-1.669999999999999
 30
1.0800000000000001
 11
-0.6400000000000001
 21
-1.7199999999999991
 31
1.0800000000000001
 12
0.6400000000000001
 22
-1.7199999999999991
 32
1.0800000000000001
 13
0.6400000000000001
 23
-1.669999999999999
 33
1.0800000000000001
  0
3DFACE
  5
152
  8
0
 10
-0.6400000000000001
 20
-0.3700000000000003
 30
0.4900000000000001
 11
-0.6400000000000001
 21
-0.7300000000000004
 31
0.4900000000000001
 12
-0.6400000000000001
 22
-0.37
 32
1.0800000000000001
 13
-0.6400000000000001
 23
-0.3700000000000003
 33
1.0800000000000001
  0
3DFACE
  5
155
  8
0
 10
-0.6400000000000001
 20
-0.7300000000000004
 30
0.4900000000000001
 11
-0.6400000000000001
 21
-0.8500000000000003
 31
0.7000000000000001
 12
-0.6400000000000001
 22
-0.37
 32
1.0800000000000001
 13
-0.6400000000000001
 23
-0.37
 33
1.0800000000000001
  0
3DFACE
  5
159
  8
0
 10
-0.6400000000000001
 20
-0.9700000000000002
 30
0.7900000000000002
 11
-0.6400000000000001
 21
-1.089999999999999
 31
0.83
 12
-0.6400000000000001
 22
-0.37
 32
1.0800000000000001
 13
-0.6400000000000001
 23
-0.37
 33
1.0800000000000001
  0
3DFACE
  5
15B
  8
0
 10
-0.6400000000000001
 20
-1.29
 30
0.83
 11
-0.6400000000000001
 21
-1.3700000000000001
 31
0.8100000000000001
 12
-0.6400000000000001
 22
-1.669999999999999
 32
1.0800000000000001
 13
-0.6400000000000001
 23
-1.669999999999999
 33
1.0800000000000001
  0
3DFACE
  5
15E
  8
0
 10
-0.6400000000000001
 20
-1.089999999999999
 30
0.83
 11
-0.6400000000000001
 21
-1.29
 31
0.83
 12
-0.6400000000000001
 22
-1.669999999999999
 32
1.0800000000000001
 13
-0.6400000000000001
 23
-0.37
 33
1.0800000000000001
  0
3DFACE
  5
167
  8
0
 10
-0.6400000000000001
 20
-0.8500000000000003
 30
0.7000000000000001
 11
-0.6400000000000001
 21
-0.9700000000000002
 31
0.7900000000000002
 12
-0.6400000000000001
 22
-0.37
 32
1.0800000000000001
 13
-0.6400000000000001
 23
-0.37
 33
1.0800000000000001
  0
3DFACE
  5
16E
  8
0
 10
-0.61
 20
-0.3700000000000003
 30
1.0800000000000001
 11
-0.61
 21
-0.7300000000000004
 31
0.4900000000000001
 12
-0.6100000000000002
 22
-0.37
 32
0.4100000000000003
 13
-0.61
 23
-0.3700000000000003
 33
1.0800000000000001
  0
3DFACE
  5
170
  8
0
 10
-0.61
 20
-0.37
 30
1.0800000000000001
 11
-0.61
 21
-0.8500000000000003
 31
0.7000000000000001
 12
-0.61
 22
-0.7300000000000004
 32
0.4900000000000001
 13
-0.61
 23
-0.37
 33
1.0800000000000001
  0
3DFACE
  5
171
  8
0
 10
-0.61
 20
-0.37
 30
1.0800000000000001
 11
-0.61
 21
-1.089999999999999
 31
0.83
 12
-0.61
 22
-0.9700000000000002
 32
0.7900000000000002
 13
-0.61
 23
-0.37
 33
1.0800000000000001
  0
3DFACE
  5
173
  8
0
 10
-0.61
 20
-1.3700000000000001
 30
1.0800000000000001
 11
-0.61
 21
-1.3700000000000001
 31
0.8100000000000001
 12
-0.61
 22
-1.29
 32
0.83
 13
-0.61
 23
-1.3700000000000001
 33
1.0800000000000001
  0
3DFACE
  5
174
  8
0
 10
-0.61
 20
-1.3700000000000001
 30
1.0800000000000001
 11
-0.61
 21
-1.29
 31
0.83
 12
-0.61
 22
-1.089999999999999
 32
0.83
 13
-0.61
 23
-0.37
 33
1.0800000000000001
  0
3DFACE
  5
175
  8
0
 10
-0.61
 20
-0.37
 30
1.0800000000000001
 11
-0.61
 21
-0.9700000000000002
 31
0.7900000000000002
 12
-0.61
 22
-0.8500000000000003
 32
0.7000000000000001
 13
-0.61
 23
-0.37
 33
1.0800000000000001
  0
3DFACE
  5
17C
  8
0
 10
-0.5300000000000001
 20
0.3499999999999996
 30
0.4900000000000001
 11
-0.6400000000000001
 21
-0.3700000000000003
 31
0.4900000000000001
 12
-0.6400000000000001
 22
-0.3700000000000003
 32
1.0800000000000001
 13
-0.5300000000000001
 23
0.3499999999999996
 33
1.0800000000000001
  0
3DFACE
  5
180
  8
0
 10
-0.61
 20
-0.3700000000000003
 30
1.0800000000000001
 11
-0.6100000000000002
 21
-0.37
 31
0.4100000000000003
 12
-0.5
 22
0.35
 32
0.4100000000000002
 13
-0.5
 23
0.3499999999999996
 33
1.0800000000000001
  0
3DFACE
  5
183
  8
0
 62
     2
 10
-0.6400000000000001
 20
-1.3700000000000001
 30
0.8100000000000001
 11
-0.6399999999999999
 21
-1.409999999999999
 31
0.7900000000000002
 12
-0.6400000000000001
 22
-1.669999999999999
 32
1.0800000000000001
 13
-0.6400000000000001
 23
-1.669999999999999
 33
1.0800000000000001
  0
3DFACE
  5
187
  8
0
 62
     2
 10
-0.57
 20
-1.409999999999999
 30
1.0800000000000001
 11
-0.57
 21
-1.409999999999999
 31
0.7900000000000002
 12
-0.61
 22
-1.3700000000000001
 32
0.8100000000000001
 13
-0.61
 23
-1.3700000000000001
 33
1.0800000000000001
  0
3DFACE
  5
18A
  8
0
 10
-0.6600000000000001
 20
-1.75
 30
0.33
 11
-0.6400000000000001
 21
-1.79
 31
0.33
 12
-0.6400000000000001
 22
-1.79
 32
0.48
 13
-0.6600000000000001
 23
-1.75
 33
0.48
  0
3DFACE
  5
18B
  8
0
 10
-0.6400000000000001
 20
-1.79
 30
0.48
 11
-0.6400000000000001
 21
-1.79
 31
0.33
 12
0.6400000000000001
 22
-1.79
 32
0.33
 13
0.6400000000000001
 23
-1.79
 33
0.48
  0
3DFACE
  5
18C
  8
0
 10
0.6400000000000001
 20
-1.79
 30
0.48
 11
0.6400000000000001
 21
-1.79
 31
0.33
 12
0.6600000000000001
 22
-1.75
 32
0.33
 13
0.6600000000000001
 23
-1.75
 33
0.48
  0
3DFACE
  5
18E
  8
0
 10
0.6600000000000001
 20
-1.75
 30
0.33
 11
0.6400000000000001
 21
-1.79
 31
0.33
 12
-0.6400000000000001
 22
-1.79
 32
0.33
 13
-0.6600000000000001
 23
-1.75
 33
0.33
  0
3DFACE
  5
191
  8
0
 10
0.6600000000000001
 20
-1.75
 30
0.33
 11
0.6600000000000001
 21
-1.669999999999999
 31
0.33
 12
0.6600000000000001
 22
-1.669999999999999
 32
0.48
 13
0.6600000000000001
 23
-1.75
 33
0.48
  0
3DFACE
  5
192
  8
0
 10
-0.6600000000000001
 20
-1.75
 30
0.33
 11
-0.6600000000000001
 21
-1.669999999999999
 31
0.33
 12
0.6600000000000001
 22
-1.669999999999999
 32
0.33
 13
0.6600000000000001
 23
-1.75
 33
0.33
  0
3DFACE
  5
195
  8
0
 10
-0.6600000000000001
 20
-1.669999999999999
 30
0.48
 11
-0.6600000000000001
 21
-1.669999999999999
 31
0.33
 12
-0.6600000000000001
 22
-1.75
 32
0.33
 13
-0.6600000000000001
 23
-1.75
 33
0.48
  0
3DFACE
  5
199
  8
0
 62
     2
 10
0.5700000000000001
 20
-1.409999999999999
 30
0.7900000000000002
 11
-0.57
 21
-1.409999999999999
 31
0.7900000000000002
 12
-0.57
 22
-1.409999999999999
 32
1.0800000000000001
 13
0.5700000000000001
 23
-1.409999999999999
 33
1.079999999999999
  0
3DFACE
  5
19A
  8
0
 10
-0.6399999999999999
 20
-0.3699999999999999
 30
1.0800000000000001
 11
-0.61
 21
-0.3700000000000003
 31
1.0800000000000001
 12
-0.5061111111111112
 22
0.31
 32
1.0800000000000001
 13
-0.536111111111111
 23
0.31
 33
1.0800000000000001
  0
3DFACE
  5
19B
  8
0
 10
-0.6400000000000001
 20
-1.3700000000000001
 30
1.0800000000000001
 11
-0.61
 21
-1.3700000000000001
 31
1.0800000000000001
 12
-0.61
 22
-0.3700000000000003
 32
1.0800000000000001
 13
-0.6399999999999999
 23
-0.3699999999999999
 33
1.0800000000000001
  0
3DFACE
  5
19C
  8
0
 10
0.61
 20
-1.3700000000000001
 30
1.0800000000000001
 11
0.6400000000000001
 21
-1.3700000000000001
 31
1.0800000000000001
 12
0.6400000000000001
 22
-0.3700000000000003
 32
1.0800000000000001
 13
0.6100000000000002
 23
-0.3699999999999999
 33
1.0800000000000001
  0
3DFACE
  5
19D
  8
0
 10
0.5061111111111111
 20
0.31
 30
1.0800000000000001
 11
0.6100000000000002
 21
-0.3699999999999999
 31
1.0800000000000001
 12
0.6400000000000001
 22
-0.3700000000000003
 32
1.0800000000000001
 13
0.5361111111111113
 23
0.31
 33
1.0800000000000001
  0
3DFACE
  5
19E
  8
0
 10
-0.6400000000000001
 20
-1.75
 30
0.48
 11
-0.6400000000000001
 21
-1.79
 31
0.48
 12
0.6400000000000001
 22
-1.79
 32
0.48
 13
0.6400000000000001
 23
-1.75
 33
0.48
  0
3DFACE
  5
19F
  8
0
 10
-0.6400000000000001
 20
-1.669999999999999
 30
0.48
 11
-0.6600000000000001
 21
-1.669999999999999
 31
0.48
 12
-0.6600000000000001
 22
-1.75
 32
0.48
 13
-0.6400000000000001
 23
-1.75
 33
0.48
  0
3DFACE
  5
1A0
  8
0
 10
0.6600000000000001
 20
-1.669999999999999
 30
0.48
 11
0.6400000000000001
 21
-1.669999999999999
 31
0.48
 12
0.6400000000000001
 22
-1.75
 32
0.48
 13
0.6600000000000001
 23
-1.75
 33
0.48
  0
3DFACE
  5
1A1
  8
0
 10
-0.6600000000000001
 20
-1.75
 30
0.48
 11
-0.6400000000000001
 21
-1.79
 31
0.48
 12
-0.6400000000000001
 22
-1.75
 32
0.48
 13
-0.6400000000000001
 23
-1.75
 33
0.48
  0
3DFACE
  5
1A2
  8
0
 10
0.6400000000000001
 20
-1.75
 30
0.48
 11
0.6400000000000001
 21
-1.79
 31
0.48
 12
0.6600000000000001
 22
-1.75
 32
0.48
 13
0.6400000000000001
 23
-1.75
 33
0.48
  0
3DFACE
  5
1A8
  8
0
 10
-0.58
 20
-1.669999999999999
 30
1.1299999999999999
 11
-0.6400000000000001
 21
-1.669999999999999
 31
1.0800000000000001
 12
0.6400000000000001
 22
-1.669999999999999
 32
1.0800000000000001
 13
0.58
 23
-1.669999999999999
 33
1.1299999999999999
  0
3DFACE
  5
1A9
  8
0
 10
0.58
 20
-1.669999999999999
 30
1.1299999999999999
 11
0.6400000000000001
 21
-1.669999999999999
 31
1.0800000000000001
 12
0.6400000000000001
 22
-1.3700000000000001
 32
1.0800000000000001
 13
0.58
 23
-1.4099999999999999
 33
1.1299999999999999
  0
3DFACE
  5
1AA
  8
0
 10
-0.6400000000000001
 20
-1.3700000000000001
 30
1.0800000000000001
 11
-0.6400000000000001
 21
-1.669999999999999
 31
1.0800000000000001
 12
-0.58
 22
-1.669999999999999
 32
1.1299999999999999
 13
-0.58
 23
-1.4099999999999999
 33
1.1299999999999999
  0
3DFACE
  5
1AF
  8
0
 10
-0.58
 20
-1.4099999999999999
 30
1.1299999999999999
 11
-0.31
 21
-1.4099999999999999
 31
1.1399999999999999
 12
0.31
 22
-1.4099999999999999
 32
1.1399999999999999
 13
0.58
 23
-1.4099999999999999
 33
1.1299999999999999
  0
3DFACE
  5
1B0
  8
0
 10
0.58
 20
-1.669999999999999
 30
1.1299999999999999
 11
0.31
 21
-1.669999999999999
 31
1.1399999999999999
 12
-0.31
 22
-1.669999999999999
 32
1.1399999999999999
 13
-0.58
 23
-1.669999999999999
 33
1.1299999999999999
  0
3DFACE
  5
1B1
  8
0
 10
-0.58
 20
-1.669999999999999
 30
1.1299999999999999
 11
-0.31
 21
-1.669999999999999
 31
1.1399999999999999
 12
-0.31
 22
-1.4099999999999999
 32
1.1399999999999999
 13
-0.58
 23
-1.4099999999999999
 33
1.1299999999999999
  0
3DFACE
  5
1B2
  8
0
 10
0.31
 20
-1.4099999999999999
 30
1.1399999999999999
 11
0.31
 21
-1.669999999999999
 31
1.1399999999999999
 12
0.58
 22
-1.669999999999999
 32
1.1299999999999999
 13
0.58
 23
-1.4099999999999999
 33
1.1299999999999999
  0
3DFACE
  5
1B3
  8
0
 10
-0.31
 20
-1.4099999999999999
 30
1.1399999999999999
 11
-0.31
 21
-1.669999999999999
 31
1.1399999999999999
 12
0.31
 22
-1.669999999999999
 32
1.1399999999999999
 13
0.31
 23
-1.4099999999999999
 33
1.1399999999999999
  0
3DFACE
  5
1B9
  8
0
 10
-0.61
 20
-1.3700000000000001
 30
1.0800000000000001
 11
-0.6400000000000001
 21
-1.3700000000000001
 31
1.0800000000000001
 12
-0.58
 22
-1.4099999999999999
 32
1.1299999999999999
 13
-0.61
 23
-1.3700000000000001
 33
1.0800000000000001
  0
3DFACE
  5
1BB
  8
0
 10
0.58
 20
-1.4099999999999999
 30
1.1299999999999999
 11
0.6400000000000001
 21
-1.3700000000000001
 31
1.0800000000000001
 12
0.61
 22
-1.3700000000000001
 32
1.0800000000000001
 13
0.58
 23
-1.4099999999999999
 33
1.1299999999999999
  0
3DFACE
  5
1BC
  8
0
 62
     2
 10
0.61
 20
-1.3700000000000001
 30
1.0800000000000001
 11
0.5700000000000001
 21
-1.409999999999999
 31
1.0800000000000001
 12
0.58
 22
-1.4099999999999999
 32
1.1299999999999999
 13
0.58
 23
-1.4099999999999999
 33
1.1299999999999999
  0
3DFACE
  5
1BD
  8
0
 62
     2
 10
0.5700000000000001
 20
-1.409999999999999
 30
1.0800000000000001
 11
-0.5700000000000001
 21
-1.409999999999999
 31
1.0800000000000001
 12
-0.58
 22
-1.4099999999999999
 32
1.1299999999999999
 13
0.58
 23
-1.4099999999999999
 33
1.1299999999999999
  0
3DFACE
  5
1BE
  8
0
 62
     2
 10
-0.58
 20
-1.4099999999999999
 30
1.1299999999999999
 11
-0.57
 21
-1.409999999999999
 31
1.0800000000000001
 12
-0.61
 22
-1.3700000000000001
 32
1.0800000000000001
 13
-0.58
 23
-1.4099999999999999
 33
1.1299999999999999
  0
3DFACE
  5
1C0
  8
0
 10
0.5200000000000001
 20
0.4900000000000001
 30
0.61
 11
0.5200000000000001
 21
0.4900000000000001
 31
0.33
 12
0.7400000000000001
 22
0.4900000000000001
 32
0.33
 13
0.7400000000000001
 23
0.4900000000000001
 33
0.61
  0
3DFACE
  5
1C1
  8
0
 10
0.7400000000000001
 20
0.4900000000000001
 30
0.61
 11
0.7400000000000001
 21
0.4900000000000001
 31
0.33
 12
0.7400000000000001
 22
0.7899999999999992
 32
0.33
 13
0.7400000000000001
 23
0.7899999999999992
 33
0.4900000000000001
  0
3DFACE
  5
1C2
  8
0
 10
0.5200000000000001
 20
0.7899999999999992
 30
0.33
 11
0.5200000000000001
 21
0.4900000000000001
 31
0.33
 12
0.5200000000000001
 22
0.4900000000000001
 32
0.61
 13
0.5200000000000001
 23
0.7899999999999992
 33
0.4900000000000001
  0
3DFACE
  5
1C9
  8
0
 10
-0.7400000000000001
 20
0.4900000000000001
 30
0.61
 11
-0.7400000000000001
 21
0.4900000000000001
 31
0.33
 12
-0.5200000000000001
 22
0.4900000000000001
 32
0.33
 13
-0.5200000000000001
 23
0.4900000000000001
 33
0.61
  0
3DFACE
  5
1CA
  8
0
 10
-0.5299999999999999
 20
0.7000000000000001
 30
0.33
 11
-0.5200000000000001
 21
0.4900000000000001
 31
0.33
 12
-0.7400000000000001
 22
0.4900000000000001
 32
0.33
 13
-0.7000000000000001
 23
0.7000000000000001
 33
0.33
  0
3DFACE
  5
1CC
  8
0
 10
-0.5200000000000001
 20
0.4900000000000001
 30
0.61
 11
-0.5200000000000001
 21
0.4900000000000001
 31
0.33
 12
-0.5200000000000001
 22
0.7899999999999992
 32
0.33
 13
-0.5200000000000001
 23
0.7899999999999992
 33
0.4900000000000001
  0
3DFACE
  5
1CD
  8
0
 10
-0.7000000000000001
 20
0.7000000000000001
 30
0.45
 11
-0.7000000000000001
 21
0.7000000000000001
 31
0.33
 12
-0.7400000000000001
 22
0.7899999999999992
 32
0.33
 13
-0.7400000000000001
 23
0.7899999999999992
 33
0.4900000000000001
  0
3DFACE
  5
1CE
  8
0
 10
-0.7400000000000001
 20
0.7899999999999992
 30
0.33
 11
-0.7400000000000001
 21
0.4900000000000001
 31
0.33
 12
-0.7400000000000001
 22
0.4900000000000001
 32
0.61
 13
-0.7400000000000001
 23
0.7899999999999992
 33
0.4900000000000001
  0
3DFACE
  5
1D5
  8
0
 10
0.6400000000000001
 20
-0.73
 30
0.38
 11
0.6400000000000001
 21
-0.73
 31
0.35
 12
0.73
 22
-0.73
 32
0.35
 13
0.73
 23
-0.73
 33
0.38
  0
3DFACE
  5
1DA
  8
0
 10
0.73
 20
-0.4300000000000008
 30
0.38
 11
0.73
 21
-0.4300000000000008
 31
0.35
 12
0.6400000000000001
 22
-0.4300000000000008
 32
0.35
 13
0.6400000000000001
 23
-0.4300000000000008
 33
0.38
  0
3DFACE
  5
1DB
  8
0
 10
0.73
 20
-0.4300000000000008
 30
0.35
 11
0.73
 21
-0.73
 31
0.35
 12
0.6400000000000001
 22
-0.73
 32
0.35
 13
0.6400000000000001
 23
-0.4300000000000008
 33
0.35
  0
3DFACE
  5
1DC
  8
0
 10
0.6400000000000001
 20
-0.4300000000000008
 30
0.38
 11
0.6400000000000001
 21
-0.73
 31
0.38
 12
0.73
 22
-0.73
 32
0.38
 13
0.73
 23
-0.4300000000000008
 33
0.38
  0
3DFACE
  5
1E0
  8
0
 10
0.73
 20
-0.4300000000000008
 30
0.38
 11
0.73
 21
-0.73
 31
0.38
 12
0.75
 22
-0.71
 32
0.38
 13
0.75
 23
-0.45
 33
0.38
  0
3DFACE
  5
1E1
  8
0
 10
0.75
 20
-0.45
 30
0.35
 11
0.75
 21
-0.71
 31
0.35
 12
0.73
 22
-0.73
 32
0.35
 13
0.73
 23
-0.4300000000000008
 33
0.35
  0
3DFACE
  5
1E2
  8
0
 10
0.75
 20
-0.71
 30
0.38
 11
0.75
 21
-0.71
 31
0.35
 12
0.75
 22
-0.45
 32
0.35
 13
0.75
 23
-0.45
 33
0.38
  0
3DFACE
  5
1E3
  8
0
 10
0.73
 20
-0.73
 30
0.38
 11
0.73
 21
-0.73
 31
0.35
 12
0.75
 22
-0.71
 32
0.35
 13
0.75
 23
-0.71
 33
0.38
  0
3DFACE
  5
1E4
  8
0
 10
0.75
 20
-0.45
 30
0.38
 11
0.75
 21
-0.45
 31
0.35
 12
0.73
 22
-0.4300000000000008
 32
0.35
 13
0.73
 23
-0.4300000000000008
 33
0.38
  0
3DFACE
  5
1E7
  8
0
 10
-0.7300000000000001
 20
-0.7299999999999991
 30
0.38
 11
-0.73
 21
-0.4299999999999999
 31
0.38
 12
-0.75
 22
-0.45
 32
0.38
 13
-0.7500000000000001
 23
-0.7099999999999999
 33
0.38
  0
3DFACE
  5
1E8
  8
0
 10
-0.75
 20
-0.45
 30
0.38
 11
-0.75
 21
-0.45
 31
0.35
 12
-0.7500000000000001
 22
-0.7099999999999999
 32
0.35
 13
-0.7500000000000001
 23
-0.7099999999999999
 33
0.38
  0
3DFACE
  5
1E9
  8
0
 10
-0.7500000000000001
 20
-0.7099999999999999
 30
0.35
 11
-0.75
 21
-0.45
 31
0.35
 12
-0.73
 22
-0.4299999999999999
 32
0.35
 13
-0.7300000000000001
 23
-0.7299999999999991
 33
0.35
  0
3DFACE
  5
1EB
  8
0
 10
-0.6400000000000002
 20
-0.7299999999999991
 30
0.38
 11
-0.6400000000000001
 21
-0.4299999999999999
 31
0.38
 12
-0.73
 22
-0.4299999999999999
 32
0.38
 13
-0.7300000000000001
 23
-0.7299999999999991
 33
0.38
  0
3DFACE
  5
1ED
  8
0
 10
-0.7300000000000001
 20
-0.7299999999999991
 30
0.35
 11
-0.73
 21
-0.4299999999999999
 31
0.35
 12
-0.6400000000000001
 22
-0.4299999999999999
 32
0.35
 13
-0.6400000000000002
 23
-0.7299999999999991
 33
0.35
  0
3DFACE
  5
1EE
  8
0
 10
-0.73
 20
-0.4299999999999999
 30
0.38
 11
-0.73
 21
-0.4299999999999999
 31
0.35
 12
-0.75
 22
-0.45
 32
0.35
 13
-0.75
 23
-0.45
 33
0.38
  0
3DFACE
  5
1EF
  8
0
 10
-0.7500000000000001
 20
-0.7099999999999999
 30
0.38
 11
-0.7500000000000001
 21
-0.7099999999999999
 31
0.35
 12
-0.7300000000000001
 22
-0.7299999999999991
 32
0.35
 13
-0.7300000000000001
 23
-0.7299999999999991
 33
0.38
  0
3DFACE
  5
1F0
  8
0
 10
-0.6400000000000001
 20
-0.4299999999999999
 30
0.38
 11
-0.6400000000000001
 21
-0.4299999999999999
 31
0.35
 12
-0.73
 22
-0.4299999999999999
 32
0.35
 13
-0.73
 23
-0.4299999999999999
 33
0.38
  0
3DFACE
  5
1F1
  8
0
 10
-0.7300000000000001
 20
-0.7299999999999991
 30
0.38
 11
-0.7300000000000001
 21
-0.7299999999999991
 31
0.35
 12
-0.6400000000000002
 22
-0.7299999999999991
 32
0.35
 13
-0.6400000000000002
 23
-0.7299999999999991
 33
0.38
  0
3DFACE
  5
1F5
  8
0
 10
-0.6119616111414931
 20
0.3803856040321623
 30
0.38
 11
-0.6119616111414931
 21
0.3803856040321623
 31
0.35
 12
-0.6348440672542005
 22
0.3637605265210641
 32
0.35
 13
-0.6348440672542005
 23
0.3637605265210641
 33
0.38
  0
3DFACE
  5
1F7
  8
0
 10
-0.5230696604879307
 20
0.3663065021785414
 30
0.38
 11
-0.5230696604879307
 21
0.3663065021785414
 31
0.35
 12
-0.6119616111414931
 22
0.3803856040321623
 32
0.35
 13
-0.6119616111414931
 23
0.3803856040321623
 33
0.38
  0
3DFACE
  5
1F8
  8
0
 10
-0.6588919506535623
 20
0.0840791018536218
 30
0.38
 11
-0.6119616111414931
 21
0.3803856040321623
 31
0.38
 12
-0.6348440672542005
 22
0.3637605265210641
 32
0.38
 13
-0.6755170281646608
 23
0.1069615579663285
 33
0.38
  0
3DFACE
  5
1F9
  8
0
 10
-0.6348440672542005
 20
0.3637605265210641
 30
0.38
 11
-0.6348440672542005
 21
0.3637605265210641
 31
0.35
 12
-0.6755170281646608
 22
0.1069615579663285
 32
0.35
 13
-0.6755170281646608
 23
0.1069615579663285
 33
0.38
  0
3DFACE
  5
1FB
  8
0
 10
-0.57
 20
0.070000000000001
 30
0.38
 11
-0.5230696604879307
 21
0.3663065021785414
 31
0.38
 12
-0.6119616111414931
 22
0.3803856040321623
 32
0.38
 13
-0.6588919506535623
 23
0.0840791018536218
 33
0.38
  0
3DFACE
  5
1FD
  8
0
 10
0.6119616111414933
 20
0.3803856040321613
 30
0.38
 11
0.6588919506535625
 21
0.0840791018536208
 31
0.38
 12
0.6755170281646606
 22
0.1069615579663282
 32
0.38
 13
0.6348440672542006
 23
0.363760526521064
 33
0.38
  0
3DFACE
  5
1FE
  8
0
 10
0.6755170281646606
 20
0.1069615579663282
 30
0.38
 11
0.6755170281646606
 21
0.1069615579663282
 31
0.35
 12
0.6348440672542006
 22
0.363760526521064
 32
0.35
 13
0.6348440672542006
 23
0.363760526521064
 33
0.38
  0
3DFACE
  5
1FF
  8
0
 10
0.6348440672542006
 20
0.363760526521064
 30
0.38
 11
0.6348440672542006
 21
0.363760526521064
 31
0.35
 12
0.6119616111414933
 22
0.3803856040321613
 32
0.35
 13
0.6119616111414933
 23
0.3803856040321613
 33
0.38
  0
3DFACE
  5
201
  8
0
 10
0.523069660487931
 20
0.3663065021785405
 30
0.38
 11
0.5700000000000001
 21
0.0700000000000001
 31
0.38
 12
0.6588919506535625
 22
0.0840791018536208
 32
0.38
 13
0.6119616111414933
 23
0.3803856040321613
 33
0.38
  0
3DFACE
  5
203
  8
0
 10
0.6119616111414933
 20
0.3803856040321613
 30
0.38
 11
0.6119616111414933
 21
0.3803856040321613
 31
0.35
 12
0.523069660487931
 22
0.3663065021785405
 32
0.35
 13
0.523069660487931
 23
0.3663065021785405
 33
0.38
  0
3DFACE
  5
205
  8
0
 10
-0.6755170281646608
 20
0.1069615579663285
 30
0.38
 11
-0.6755170281646608
 21
0.1069615579663285
 31
0.35
 12
-0.6588919506535623
 22
0.0840791018536218
 32
0.35
 13
-0.6588919506535623
 23
0.0840791018536218
 33
0.38
  0
3DFACE
  5
206
  8
0
 10
-0.6755170281646608
 20
0.1069615579663285
 30
0.35
 11
-0.6348440672542005
 21
0.3637605265210641
 31
0.35
 12
-0.6119616111414931
 22
0.3803856040321623
 32
0.35
 13
-0.6588919506535623
 23
0.0840791018536218
 33
0.35
  0
3DFACE
  5
207
  8
0
 10
-0.6588919506535623
 20
0.0840791018536218
 30
0.38
 11
-0.6588919506535623
 21
0.0840791018536218
 31
0.35
 12
-0.57
 22
0.070000000000001
 32
0.35
 13
-0.57
 23
0.070000000000001
 33
0.38
  0
3DFACE
  5
208
  8
0
 10
-0.6588919506535623
 20
0.0840791018536218
 30
0.35
 11
-0.6119616111414931
 21
0.3803856040321623
 31
0.35
 12
-0.5230696604879307
 22
0.3663065021785414
 32
0.35
 13
-0.57
 23
0.070000000000001
 33
0.35
  0
3DFACE
  5
209
  8
0
 10
0.6588919506535625
 20
0.0840791018536208
 30
0.38
 11
0.6588919506535625
 21
0.0840791018536208
 31
0.35
 12
0.6755170281646606
 22
0.1069615579663282
 32
0.35
 13
0.6755170281646606
 23
0.1069615579663282
 33
0.38
  0
3DFACE
  5
20A
  8
0
 10
0.6348440672542006
 20
0.363760526521064
 30
0.35
 11
0.6755170281646606
 21
0.1069615579663282
 31
0.35
 12
0.6588919506535625
 22
0.0840791018536208
 32
0.35
 13
0.6119616111414933
 23
0.3803856040321613
 33
0.35
  0
3DFACE
  5
20B
  8
0
 10
0.5700000000000001
 20
0.0700000000000001
 30
0.38
 11
0.5700000000000001
 21
0.0700000000000001
 31
0.35
 12
0.6588919506535625
 22
0.0840791018536208
 32
0.35
 13
0.6588919506535625
 23
0.0840791018536208
 33
0.38
  0
3DFACE
  5
20C
  8
0
 10
0.6119616111414933
 20
0.3803856040321613
 30
0.35
 11
0.6588919506535625
 21
0.0840791018536208
 31
0.35
 12
0.5700000000000001
 22
0.0700000000000001
 32
0.35
 13
0.523069660487931
 23
0.3663065021785405
 33
0.35
  0
3DFACE
  5
24D
  8
0
 10
-0.5300000000000001
 20
0.35
 30
1.1100000000000001
 11
-0.5300000000000001
 21
0.35
 31
1.1100000000000001
 12
-0.01
 22
0.51
 32
1.169999999999999
 13
-0.4300000000000001
 23
0.79
 33
1.0600000000000001
  0
3DFACE
  5
27A
  8
0
 10
-0.7400000000000001
 20
0.7899999999999992
 30
0.49
 11
-0.7400000000000001
 21
0.4900000000000001
 31
0.61
 12
-0.7400000000000001
 22
0.4900000000000001
 32
0.61
 13
-0.7400000000000001
 23
0.84
 33
0.61
  0
3DFACE
  5
27B
  8
0
 10
0.7400000000000001
 20
0.4900000000000001
 30
0.61
 11
0.7400000000000001
 21
0.4900000000000001
 31
0.61
 12
0.7400000000000001
 22
0.7899999999999992
 32
0.49
 13
0.7400000000000001
 23
0.84
 33
0.61
  0
3DFACE
  5
27C
  8
0
 10
-0.5200000000000001
 20
0.4900000000000001
 30
0.61
 11
-0.5200000000000001
 21
0.4900000000000001
 31
0.61
 12
-0.5200000000000001
 22
0.7899999999999992
 32
0.49
 13
-0.5200000000000001
 23
0.84
 33
0.61
  0
3DFACE
  5
27D
  8
0
 10
0.5200000000000001
 20
0.7899999999999992
 30
0.49
 11
0.5200000000000001
 21
0.4900000000000001
 31
0.61
 12
0.5200000000000001
 22
0.4900000000000001
 32
0.61
 13
0.5200000000000001
 23
0.84
 33
0.61
  0
3DFACE
  5
27E
  8
0
 10
-0.7000000000000001
 20
0.7700000000000001
 30
0.61
 11
-0.7400000000000001
 21
0.4900000000000001
 31
0.61
 12
-0.5200000000000001
 22
0.4900000000000001
 32
0.61
 13
-0.5299999999999999
 23
0.7700000000000001
 33
0.61
  0
3DFACE
  5
284
  8
0
 10
-0.7000000000000001
 20
0.7000000000000001
 30
0.33
 11
-0.7000000000000001
 21
0.7000000000000001
 31
0.33
 12
-0.7400000000000001
 22
0.4900000000000001
 32
0.33
 13
-0.7400000000000001
 23
0.7899999999999992
 33
0.33
  0
3DFACE
  5
285
  8
0
 10
-0.5200000000000001
 20
0.7899999999999992
 30
0.33
 11
-0.5200000000000001
 21
0.7899999999999992
 31
0.33
 12
-0.5200000000000001
 22
0.4900000000000001
 32
0.33
 13
-0.5299999999999999
 23
0.7000000000000001
 33
0.33
  0
3DFACE
  5
286
  8
0
 10
-0.5200000000000001
 20
0.7899999999999992
 30
0.4900000000000001
 11
-0.5200000000000001
 21
0.7899999999999992
 31
0.33
 12
-0.5299999999999999
 22
0.7000000000000001
 32
0.33
 13
-0.5299999999999999
 23
0.7000000000000001
 33
0.45
  0
3DFACE
  5
287
  8
0
 10
-0.5299999999999999
 20
0.7000000000000001
 30
0.45
 11
-0.5299999999999999
 21
0.7000000000000001
 31
0.33
 12
-0.7000000000000001
 22
0.7000000000000001
 32
0.33
 13
-0.7000000000000001
 23
0.7000000000000001
 33
0.45
  0
3DFACE
  5
288
  8
0
 10
-0.5299999999999999
 20
0.7700000000000001
 30
0.61
 11
-0.5299999999999999
 21
0.7000000000000001
 31
0.45
 12
-0.7000000000000001
 22
0.7000000000000001
 32
0.45
 13
-0.7000000000000001
 23
0.7700000000000001
 33
0.61
  0
3DFACE
  5
289
  8
0
 10
-0.7000000000000001
 20
0.7700000000000001
 30
0.61
 11
-0.7000000000000001
 21
0.7000000000000001
 31
0.45
 12
-0.7400000000000001
 22
0.7899999999999992
 32
0.49
 13
-0.7400000000000001
 23
0.84
 33
0.61
  0
3DFACE
  5
28A
  8
0
 10
-0.7400000000000001
 20
0.84
 30
0.61
 11
-0.7400000000000001
 21
0.4900000000000001
 31
0.61
 12
-0.7400000000000001
 22
0.4900000000000001
 32
0.61
 13
-0.7000000000000001
 23
0.7700000000000001
 33
0.61
  0
3DFACE
  5
28B
  8
0
 10
-0.5200000000000001
 20
0.4900000000000001
 30
0.61
 11
-0.5200000000000001
 21
0.4900000000000001
 31
0.61
 12
-0.5200000000000001
 22
0.84
 32
0.61
 13
-0.5299999999999999
 23
0.7700000000000001
 33
0.61
  0
3DFACE
  5
28C
  8
0
 10
-0.5200000000000001
 20
0.84
 30
0.61
 11
-0.5200000000000001
 21
0.7899999999999992
 31
0.49
 12
-0.5299999999999999
 22
0.7000000000000001
 32
0.45
 13
-0.5299999999999999
 23
0.7700000000000001
 33
0.61
  0
3DFACE
  5
28D
  8
0
 10
0.7000000000000001
 20
0.7000000000000001
 30
0.45
 11
0.7000000000000001
 21
0.7000000000000001
 31
0.33
 12
0.5299999999999999
 22
0.7000000000000001
 32
0.33
 13
0.5299999999999999
 23
0.7000000000000001
 33
0.45
  0
3DFACE
  5
28E
  8
0
 10
0.7000000000000001
 20
0.7000000000000001
 30
0.33
 11
0.7400000000000001
 21
0.4900000000000001
 31
0.33
 12
0.5200000000000001
 22
0.4900000000000001
 32
0.33
 13
0.5299999999999999
 23
0.7000000000000001
 33
0.33
  0
3DFACE
  5
28F
  8
0
 10
0.7000000000000001
 20
0.7700000000000001
 30
0.61
 11
0.7000000000000001
 21
0.7000000000000001
 31
0.45
 12
0.5299999999999999
 22
0.7000000000000001
 32
0.45
 13
0.5299999999999999
 23
0.7700000000000001
 33
0.61
  0
3DFACE
  5
290
  8
0
 10
0.7400000000000001
 20
0.4900000000000001
 30
0.33
 11
0.7000000000000001
 21
0.7000000000000001
 31
0.33
 12
0.7000000000000001
 22
0.7000000000000001
 32
0.33
 13
0.7400000000000001
 23
0.7899999999999992
 33
0.33
  0
3DFACE
  5
291
  8
0
 10
0.5299999999999999
 20
0.7000000000000001
 30
0.33
 11
0.5299999999999999
 21
0.7000000000000001
 31
0.33
 12
0.5200000000000001
 22
0.4900000000000001
 32
0.33
 13
0.5200000000000001
 23
0.7899999999999992
 33
0.33
  0
3DFACE
  5
292
  8
0
 10
0.5299999999999999
 20
0.7000000000000001
 30
0.45
 11
0.5299999999999999
 21
0.7000000000000001
 31
0.33
 12
0.5200000000000001
 22
0.7899999999999992
 32
0.33
 13
0.5200000000000001
 23
0.7899999999999992
 33
0.49
  0
3DFACE
  5
293
  8
0
 10
0.7400000000000001
 20
0.7899999999999992
 30
0.49
 11
0.7400000000000001
 21
0.7899999999999992
 31
0.33
 12
0.7000000000000001
 22
0.7000000000000001
 32
0.33
 13
0.7000000000000001
 23
0.7000000000000001
 33
0.45
  0
3DFACE
  5
294
  8
0
 10
0.5299999999999999
 20
0.7700000000000001
 30
0.61
 11
0.5299999999999999
 21
0.7000000000000001
 31
0.45
 12
0.5200000000000001
 22
0.7899999999999992
 32
0.49
 13
0.5200000000000001
 23
0.84
 33
0.61
  0
3DFACE
  5
295
  8
0
 10
0.7400000000000001
 20
0.84
 30
0.61
 11
0.7400000000000001
 21
0.7899999999999992
 31
0.49
 12
0.7000000000000001
 22
0.7000000000000001
 32
0.45
 13
0.7000000000000001
 23
0.7700000000000001
 33
0.61
  0
3DFACE
  5
296
  8
0
 10
0.5300000000000003
 20
0.7700000000000001
 30
0.61
 11
0.5200000000000001
 21
0.4900000000000001
 31
0.61
 12
0.7400000000000001
 22
0.4900000000000001
 32
0.61
 13
0.7
 23
0.7700000000000001
 33
0.61
  0
3DFACE
  5
297
  8
0
 10
0.7400000000000001
 20
0.4900000000000001
 30
0.61
 11
0.7400000000000001
 21
0.4900000000000001
 31
0.61
 12
0.7400000000000001
 22
0.84
 32
0.61
 13
0.7
 23
0.7700000000000001
 33
0.61
  0
3DFACE
  5
298
  8
0
 10
0.5200000000000001
 20
0.84
 30
0.61
 11
0.5200000000000001
 21
0.4900000000000001
 31
0.61
 12
0.5200000000000001
 22
0.4900000000000001
 32
0.61
 13
0.5299999999999998
 23
0.7700000000000009
 33
0.61
  0
3DFACE
  5
29C
  8
0
 10
-0.6900000000000001
 20
1.71
 30
0.45
 11
-0.6900000000000001
 21
1.71
 31
0.37
 12
0.6900000000000001
 22
1.71
 32
0.37
 13
0.6900000000000001
 23
1.71
 33
0.45
  0
3DFACE
  5
29F
  8
0
 10
0.6900000000000001
 20
1.74
 30
0.45
 11
0.6900000000000001
 21
1.74
 31
0.37
 12
-0.6900000000000001
 22
1.74
 32
0.37
 13
-0.6900000000000001
 23
1.74
 33
0.45
  0
3DFACE
  5
2A0
  8
0
 10
0.6900000000000001
 20
1.74
 30
0.37
 11
0.6900000000000001
 21
1.71
 31
0.37
 12
-0.6900000000000001
 22
1.71
 32
0.37
 13
-0.6900000000000001
 23
1.74
 33
0.37
  0
3DFACE
  5
2A1
  8
0
 10
-0.6900000000000001
 20
1.74
 30
0.45
 11
-0.6900000000000001
 21
1.71
 31
0.45
 12
0.6900000000000001
 22
1.71
 32
0.45
 13
0.6900000000000001
 23
1.74
 33
0.45
  0
3DFACE
  5
2A5
  8
0
 10
-0.7800000000000001
 20
1.6599999999999999
 30
0.45
 11
-0.7800000000000001
 21
1.6299999999999999
 31
0.45
 12
-0.6900000000000001
 22
1.71
 32
0.45
 13
-0.6900000000000001
 23
1.74
 33
0.45
  0
3DFACE
  5
2A6
  8
0
 10
-0.7800000000000001
 20
1.6299999999999999
 30
0.45
 11
-0.7800000000000001
 21
1.6299999999999999
 31
0.37
 12
-0.6900000000000001
 22
1.71
 32
0.37
 13
-0.6900000000000001
 23
1.71
 33
0.45
  0
3DFACE
  5
2A8
  8
0
 10
-0.6900000000000001
 20
1.74
 30
0.45
 11
-0.6900000000000001
 21
1.74
 31
0.37
 12
-0.7800000000000001
 22
1.6599999999999999
 32
0.37
 13
-0.7800000000000001
 23
1.6599999999999999
 33
0.45
  0
3DFACE
  5
2A9
  8
0
 10
-0.7800000000000001
 20
1.6599999999999999
 30
0.37
 11
-0.7800000000000001
 21
1.6299999999999999
 31
0.37
 12
-0.7800000000000001
 22
1.6299999999999999
 32
0.45
 13
-0.7800000000000001
 23
1.6599999999999999
 33
0.45
  0
3DFACE
  5
2AA
  8
0
 10
-0.6900000000000001
 20
1.74
 30
0.37
 11
-0.6900000000000001
 21
1.71
 31
0.37
 12
-0.7800000000000001
 22
1.6299999999999999
 32
0.37
 13
-0.7800000000000001
 23
1.6599999999999999
 33
0.37
  0
3DFACE
  5
2AD
  8
0
 10
0.7800000000000001
 20
1.6599999999999999
 30
0.45
 11
0.7800000000000001
 21
1.6299999999999999
 31
0.45
 12
0.7800000000000001
 22
1.6299999999999999
 32
0.37
 13
0.7800000000000001
 23
1.6599999999999999
 33
0.37
  0
3DFACE
  5
2AE
  8
0
 10
0.7800000000000001
 20
1.6299999999999999
 30
0.37
 11
0.7800000000000001
 21
1.6299999999999999
 31
0.45
 12
0.6900000000000001
 22
1.71
 32
0.45
 13
0.6900000000000001
 23
1.71
 33
0.37
  0
3DFACE
  5
2B0
  8
0
 10
0.6900000000000001
 20
1.74
 30
0.37
 11
0.6900000000000001
 21
1.74
 31
0.45
 12
0.7800000000000001
 22
1.6599999999999999
 32
0.45
 13
0.7800000000000001
 23
1.6599999999999999
 33
0.37
  0
3DFACE
  5
2B1
  8
0
 10
0.6900000000000001
 20
1.74
 30
0.45
 11
0.6900000000000001
 21
1.71
 31
0.45
 12
0.7800000000000001
 22
1.6299999999999999
 32
0.45
 13
0.7800000000000001
 23
1.6599999999999999
 33
0.45
  0
3DFACE
  5
2B2
  8
0
 10
0.7800000000000001
 20
1.6599999999999999
 30
0.37
 11
0.7800000000000001
 21
1.6299999999999999
 31
0.37
 12
0.6900000000000001
 22
1.71
 32
0.37
 13
0.6900000000000001
 23
1.74
 33
0.37
  0
3DFACE
  5
2B8
  8
0
 10
0.22
 20
1.3899999999999999
 30
0.45
 11
0.22
 21
1.3899999999999999
 31
0.37
 12
0.22
 22
1.71
 32
0.37
 13
0.22
 23
1.71
 33
0.45
  0
3DFACE
  5
2B9
  8
0
 10
0.18
 20
1.71
 30
0.37
 11
0.18
 21
1.3899999999999999
 31
0.37
 12
0.18
 22
1.3899999999999999
 32
0.45
 13
0.18
 23
1.71
 33
0.45
  0
3DFACE
  5
2BB
  8
0
 10
0.22
 20
1.71
 30
0.37
 11
0.22
 21
1.3899999999999999
 31
0.37
 12
0.18
 22
1.3899999999999999
 32
0.37
 13
0.18
 23
1.71
 33
0.37
  0
3DFACE
  5
2BC
  8
0
 10
0.18
 20
1.71
 30
0.45
 11
0.18
 21
1.3899999999999999
 31
0.45
 12
0.22
 22
1.3899999999999999
 32
0.45
 13
0.22
 23
1.71
 33
0.45
  0
3DFACE
  5
2BE
  8
0
 10
0.21
 20
1.7299999999999991
 30
0.4600000000000001
 11
0.21
 21
1.7099999999999991
 31
0.45
 12
0.21
 22
1.74
 32
0.45
 13
0.21
 23
1.7599999999999989
 33
0.4600000000000001
  0
3DFACE
  5
2BF
  8
0
 10
0.19
 20
1.7299999999999991
 30
0.4600000000000001
 11
0.19
 21
1.7099999999999991
 31
0.45
 12
0.21
 22
1.7099999999999991
 32
0.45
 13
0.21
 23
1.7299999999999991
 33
0.4600000000000001
  0
3DFACE
  5
2C0
  8
0
 10
0.21
 20
1.7599999999999989
 30
0.4600000000000001
 11
0.21
 21
1.74
 31
0.45
 12
0.19
 22
1.74
 32
0.45
 13
0.19
 23
1.7599999999999989
 33
0.4600000000000001
  0
3DFACE
  5
2C1
  8
0
 10
0.19
 20
1.74
 30
0.45
 11
0.19
 21
1.7099999999999991
 31
0.45
 12
0.19
 22
1.7299999999999991
 32
0.4600000000000001
 13
0.19
 23
1.7599999999999989
 33
0.4600000000000001
  0
3DFACE
  5
2C5
  8
0
 10
0.19
 20
1.7599999999999989
 30
0.4600000000000001
 11
0.19
 21
1.7299999999999991
 31
0.4600000000000001
 12
0.19
 22
1.7299999999999991
 32
0.4700000000000001
 13
0.19
 23
1.7599999999999989
 33
0.4700000000000001
  0
3DFACE
  5
2C6
  8
0
 10
0.21
 20
1.7299999999999991
 30
0.4700000000000001
 11
0.21
 21
1.7299999999999991
 31
0.4600000000000001
 12
0.21
 22
1.7599999999999989
 32
0.4600000000000001
 13
0.21
 23
1.7599999999999989
 33
0.4700000000000001
  0
3DFACE
  5
2C7
  8
0
 10
0.21
 20
1.7599999999999989
 30
0.4700000000000001
 11
0.21
 21
1.7599999999999989
 31
0.4600000000000001
 12
0.19
 22
1.7599999999999989
 32
0.4600000000000001
 13
0.19
 23
1.7599999999999989
 33
0.4700000000000001
  0
3DFACE
  5
2C8
  8
0
 10
0.19
 20
1.7299999999999991
 30
0.4700000000000001
 11
0.19
 21
1.7299999999999991
 31
0.4600000000000001
 12
0.21
 22
1.7299999999999991
 32
0.4600000000000001
 13
0.21
 23
1.7299999999999991
 33
0.4700000000000001
  0
3DFACE
  5
2CD
  8
0
 10
0.19
 20
1.7
 30
0.4900000000000001
 11
0.19
 21
1.7299999999999991
 31
0.4700000000000001
 12
0.21
 22
1.7299999999999991
 32
0.4700000000000001
 13
0.21
 23
1.7
 33
0.4900000000000001
  0
3DFACE
  5
2CE
  8
0
 10
0.21
 20
1.7
 30
0.4900000000000001
 11
0.21
 21
1.7299999999999991
 31
0.4700000000000001
 12
0.21
 22
1.7599999999999989
 32
0.4700000000000001
 13
0.21
 23
1.7099999999999991
 33
0.5
  0
3DFACE
  5
2CF
  8
0
 10
0.21
 20
1.7099999999999991
 30
0.5
 11
0.21
 21
1.7599999999999989
 31
0.4700000000000001
 12
0.19
 22
1.7599999999999989
 32
0.4700000000000001
 13
0.19
 23
1.7099999999999991
 33
0.5
  0
3DFACE
  5
2D0
  8
0
 10
0.19
 20
1.7599999999999989
 30
0.4700000000000001
 11
0.19
 21
1.7299999999999991
 31
0.4700000000000001
 12
0.19
 22
1.7
 32
0.4900000000000001
 13
0.19
 23
1.7099999999999991
 33
0.5
  0
3DFACE
  5
2D3
  8
0
 10
0.19
 20
1.7099999999999991
 30
0.5
 11
0.19
 21
1.7
 31
0.4900000000000001
 12
0.19
 22
1.679999999999999
 32
0.4900000000000001
 13
0.19
 23
1.6899999999999991
 33
0.5
  0
3DFACE
  5
2D4
  8
0
 10
0.19
 20
1.679999999999999
 30
0.4900000000000001
 11
0.19
 21
1.7
 31
0.4900000000000001
 12
0.21
 22
1.7
 32
0.4900000000000001
 13
0.21
 23
1.679999999999999
 33
0.4900000000000001
  0
3DFACE
  5
2D5
  8
0
 10
0.21
 20
1.679999999999999
 30
0.4900000000000001
 11
0.21
 21
1.7
 31
0.4900000000000001
 12
0.21
 22
1.7099999999999991
 32
0.5
 13
0.21
 23
1.6899999999999991
 33
0.5
  0
3DFACE
  5
2D6
  8
0
 10
0.21
 20
1.6899999999999991
 30
0.5
 11
0.21
 21
1.7099999999999991
 31
0.5
 12
0.19
 22
1.7099999999999991
 32
0.5
 13
0.19
 23
1.6899999999999991
 33
0.5
  0
3DFACE
  5
2D8
  8
0
 10
0.19
 20
1.6899999999999991
 30
0.5
 11
0.19
 21
1.679999999999999
 31
0.4900000000000001
 12
0.21
 22
1.679999999999999
 32
0.4900000000000001
 13
0.21
 23
1.6899999999999991
 33
0.5
  0
3DFACE
  5
2DA
  8
0
 10
-0.19
 20
1.679999999999999
 30
0.4900000000000001
 11
-0.19
 21
1.7
 31
0.4900000000000001
 12
-0.19
 22
1.7099999999999991
 32
0.5
 13
-0.19
 23
1.6899999999999991
 33
0.5
  0
3DFACE
  5
2DB
  8
0
 10
-0.19
 20
1.6899999999999991
 30
0.5
 11
-0.19
 21
1.7099999999999991
 31
0.5
 12
-0.21
 22
1.7099999999999991
 32
0.5
 13
-0.21
 23
1.6899999999999991
 33
0.5
  0
3DFACE
  5
2DC
  8
0
 10
-0.21
 20
1.6899999999999991
 30
0.5
 11
-0.21
 21
1.679999999999999
 31
0.4900000000000001
 12
-0.19
 22
1.679999999999999
 32
0.4900000000000001
 13
-0.19
 23
1.6899999999999991
 33
0.5
  0
3DFACE
  5
2DD
  8
0
 10
-0.21
 20
1.7099999999999991
 30
0.5
 11
-0.21
 21
1.7
 31
0.4900000000000001
 12
-0.21
 22
1.679999999999999
 32
0.4900000000000001
 13
-0.21
 23
1.6899999999999991
 33
0.5
  0
3DFACE
  5
2DE
  8
0
 10
-0.19
 20
1.7
 30
0.4900000000000001
 11
-0.19
 21
1.7299999999999991
 31
0.4700000000000001
 12
-0.19
 22
1.7599999999999989
 32
0.4700000000000001
 13
-0.19
 23
1.7099999999999991
 33
0.5
  0
3DFACE
  5
2DF
  8
0
 10
-0.19
 20
1.7099999999999991
 30
0.5
 11
-0.19
 21
1.7599999999999989
 31
0.4700000000000001
 12
-0.21
 22
1.7599999999999989
 32
0.4700000000000001
 13
-0.21
 23
1.7099999999999991
 33
0.5
  0
3DFACE
  5
2E0
  8
0
 10
-0.21
 20
1.7599999999999989
 30
0.4700000000000001
 11
-0.21
 21
1.7299999999999991
 31
0.4700000000000001
 12
-0.21
 22
1.7
 32
0.4900000000000001
 13
-0.21
 23
1.7099999999999991
 33
0.5
  0
3DFACE
  5
2E1
  8
0
 10
-0.21
 20
1.679999999999999
 30
0.4900000000000001
 11
-0.21
 21
1.7
 31
0.4900000000000001
 12
-0.19
 22
1.7
 32
0.4900000000000001
 13
-0.19
 23
1.679999999999999
 33
0.4900000000000001
  0
3DFACE
  5
2E2
  8
0
 10
-0.21
 20
1.7
 30
0.4900000000000001
 11
-0.21
 21
1.7299999999999991
 31
0.4700000000000001
 12
-0.19
 22
1.7299999999999991
 32
0.4700000000000001
 13
-0.19
 23
1.7
 33
0.4900000000000001
  0
3DFACE
  5
2E3
  8
0
 10
-0.19
 20
1.7299999999999991
 30
0.4700000000000001
 11
-0.19
 21
1.7299999999999991
 31
0.4600000000000001
 12
-0.19
 22
1.7599999999999989
 32
0.4600000000000001
 13
-0.19
 23
1.7599999999999989
 33
0.4700000000000001
  0
3DFACE
  5
2E4
  8
0
 10
-0.21
 20
1.7299999999999991
 30
0.4700000000000001
 11
-0.21
 21
1.7299999999999991
 31
0.4600000000000001
 12
-0.19
 22
1.7299999999999991
 32
0.4600000000000001
 13
-0.19
 23
1.7299999999999991
 33
0.4700000000000001
  0
3DFACE
  5
2E5
  8
0
 10
-0.21
 20
1.7599999999999989
 30
0.4600000000000001
 11
-0.21
 21
1.7299999999999991
 31
0.4600000000000001
 12
-0.21
 22
1.7299999999999991
 32
0.4700000000000001
 13
-0.21
 23
1.7599999999999989
 33
0.4700000000000001
  0
3DFACE
  5
2E6
  8
0
 10
-0.19
 20
1.7599999999999989
 30
0.4700000000000001
 11
-0.19
 21
1.7599999999999989
 31
0.4600000000000001
 12
-0.21
 22
1.7599999999999989
 32
0.4600000000000001
 13
-0.21
 23
1.7599999999999989
 33
0.4700000000000001
  0
3DFACE
  5
2E7
  8
0
 10
-0.19
 20
1.7299999999999991
 30
0.4600000000000001
 11
-0.19
 21
1.7099999999999991
 31
0.45
 12
-0.19
 22
1.74
 32
0.45
 13
-0.19
 23
1.7599999999999989
 33
0.4600000000000001
  0
3DFACE
  5
2E8
  8
0
 10
-0.19
 20
1.7599999999999989
 30
0.4600000000000001
 11
-0.19
 21
1.74
 31
0.45
 12
-0.21
 22
1.74
 32
0.45
 13
-0.21
 23
1.7599999999999989
 33
0.4600000000000001
  0
3DFACE
  5
2E9
  8
0
 10
-0.21
 20
1.74
 30
0.45
 11
-0.21
 21
1.7099999999999991
 31
0.45
 12
-0.21
 22
1.7299999999999991
 32
0.4600000000000001
 13
-0.21
 23
1.7599999999999989
 33
0.4600000000000001
  0
3DFACE
  5
2EA
  8
0
 10
-0.21
 20
1.7299999999999991
 30
0.4600000000000001
 11
-0.21
 21
1.7099999999999991
 31
0.45
 12
-0.19
 22
1.7099999999999991
 32
0.45
 13
-0.19
 23
1.7299999999999991
 33
0.4600000000000001
  0
3DFACE
  5
2EB
  8
0
 10
-0.22
 20
1.71
 30
0.45
 11
-0.22
 21
1.3899999999999999
 31
0.45
 12
-0.18
 22
1.3899999999999999
 32
0.45
 13
-0.18
 23
1.71
 33
0.45
  0
3DFACE
  5
2EC
  8
0
 10
-0.18
 20
1.3899999999999999
 30
0.45
 11
-0.18
 21
1.3899999999999999
 31
0.37
 12
-0.18
 22
1.71
 32
0.37
 13
-0.18
 23
1.71
 33
0.45
  0
3DFACE
  5
2ED
  8
0
 10
-0.18
 20
1.71
 30
0.37
 11
-0.18
 21
1.3899999999999999
 31
0.37
 12
-0.22
 22
1.3899999999999999
 32
0.37
 13
-0.22
 23
1.71
 33
0.37
  0
3DFACE
  5
2EE
  8
0
 10
-0.22
 20
1.71
 30
0.37
 11
-0.22
 21
1.3899999999999999
 31
0.37
 12
-0.22
 22
1.3899999999999999
 32
0.45
 13
-0.22
 23
1.71
 33
0.45
  0
3DFACE
  5
5A3
  8
0
 10
0.39
 20
1.29
 30
0.94
 11
0.34
 21
1.3200000000000001
 31
0.94
 12
0.3546446609406726
 22
1.3200000000000001
 32
0.9046446609406725
 13
0.39
 23
1.29
 33
0.94
  0
3DFACE
  5
5A4
  8
0
 10
0.34
 20
1.3200000000000001
 30
0.94
 11
0.3033974596215561
 21
1.429999999999999
 31
0.94
 12
0.3287627564304205
 22
1.429999999999999
 32
0.8787627564304203
 13
0.3546446609406726
 23
1.3200000000000001
 33
0.9046446609406725
  0
3DFACE
  5
5A5
  8
0
 10
0.3033974596215561
 20
1.429999999999999
 30
0.94
 11
0.29
 21
1.4799999999999991
 31
0.94
 12
0.3192893218813453
 22
1.4799999999999991
 32
0.8692893218813452
 13
0.3287627564304205
 23
1.429999999999999
 33
0.8787627564304203
  0
3DFACE
  5
5A6
  8
0
 10
0.39
 20
1.29
 30
0.94
 11
0.3546446609406726
 21
1.3200000000000001
 31
0.9046446609406725
 12
0.39
 22
1.3200000000000001
 32
0.8900000000000002
 13
0.39
 23
1.29
 33
0.94
  0
3DFACE
  5
5A7
  8
0
 10
0.3546446609406726
 20
1.3200000000000001
 30
0.9046446609406725
 11
0.3287627564304205
 21
1.429999999999999
 31
0.8787627564304203
 12
0.39
 22
1.429999999999999
 32
0.8533974596215562
 13
0.39
 23
1.3200000000000001
 33
0.8900000000000002
  0
3DFACE
  5
5A8
  8
0
 10
0.3287627564304205
 20
1.429999999999999
 30
0.8787627564304203
 11
0.3192893218813453
 21
1.4799999999999991
 31
0.8692893218813452
 12
0.39
 22
1.4799999999999991
 32
0.8400000000000002
 13
0.39
 23
1.429999999999999
 33
0.8533974596215562
  0
3DFACE
  5
5A9
  8
0
 10
0.39
 20
1.29
 30
0.94
 11
0.39
 21
1.3200000000000001
 31
0.8900000000000002
 12
0.4253553390593275
 22
1.3200000000000001
 32
0.9046446609406725
 13
0.39
 23
1.29
 33
0.94
  0
3DFACE
  5
5AA
  8
0
 10
0.39
 20
1.3200000000000001
 30
0.8900000000000002
 11
0.39
 21
1.429999999999999
 31
0.8533974596215562
 12
0.4512372435695795
 22
1.429999999999999
 32
0.8787627564304203
 13
0.4253553390593275
 23
1.3200000000000001
 33
0.9046446609406725
  0
3DFACE
  5
5AB
  8
0
 10
0.39
 20
1.429999999999999
 30
0.8533974596215562
 11
0.39
 21
1.4799999999999991
 31
0.8400000000000002
 12
0.4607106781186548
 22
1.4799999999999991
 32
0.8692893218813452
 13
0.4512372435695795
 23
1.429999999999999
 33
0.8787627564304203
  0
3DFACE
  5
5AC
  8
0
 10
0.39
 20
1.29
 30
0.94
 11
0.4253553390593275
 21
1.3200000000000001
 31
0.9046446609406725
 12
0.4400000000000001
 22
1.3200000000000001
 32
0.94
 13
0.39
 23
1.29
 33
0.94
  0
3DFACE
  5
5AD
  8
0
 10
0.4253553390593275
 20
1.3200000000000001
 30
0.9046446609406725
 11
0.4512372435695795
 21
1.429999999999999
 31
0.8787627564304203
 12
0.4766025403784439
 22
1.429999999999999
 32
0.94
 13
0.4400000000000001
 23
1.3200000000000001
 33
0.94
  0
3DFACE
  5
5AE
  8
0
 10
0.4512372435695795
 20
1.429999999999999
 30
0.8787627564304203
 11
0.4607106781186548
 21
1.4799999999999991
 31
0.8692893218813452
 12
0.4900000000000001
 22
1.4799999999999991
 32
0.94
 13
0.4766025403784439
 23
1.429999999999999
 33
0.94
  0
3DFACE
  5
5AF
  8
0
 10
0.39
 20
1.29
 30
0.94
 11
0.4400000000000001
 21
1.3200000000000001
 31
0.94
 12
0.4253553390593275
 22
1.3200000000000001
 32
0.9753553390593275
 13
0.39
 23
1.29
 33
0.94
  0
3DFACE
  5
5B0
  8
0
 10
0.4400000000000001
 20
1.3200000000000001
 30
0.94
 11
0.4766025403784439
 21
1.429999999999999
 31
0.94
 12
0.4512372435695795
 22
1.429999999999999
 32
1.0012372435695791
 13
0.4253553390593275
 23
1.3200000000000001
 33
0.9753553390593275
  0
3DFACE
  5
5B1
  8
0
 10
0.4766025403784439
 20
1.429999999999999
 30
0.94
 11
0.4900000000000001
 21
1.4799999999999991
 31
0.94
 12
0.4607106781186548
 22
1.4799999999999991
 32
1.010710678118655
 13
0.4512372435695795
 23
1.429999999999999
 33
1.0012372435695791
  0
3DFACE
  5
5B2
  8
0
 10
0.39
 20
1.29
 30
0.94
 11
0.4253553390593275
 21
1.3200000000000001
 31
0.9753553390593275
 12
0.39
 22
1.3200000000000001
 32
0.99
 13
0.39
 23
1.29
 33
0.94
  0
3DFACE
  5
5B3
  8
0
 10
0.4253553390593275
 20
1.3200000000000001
 30
0.9753553390593275
 11
0.4512372435695795
 21
1.429999999999999
 31
1.0012372435695791
 12
0.39
 22
1.429999999999999
 32
1.0266025403784429
 13
0.39
 23
1.3200000000000001
 33
0.99
  0
3DFACE
  5
5B4
  8
0
 10
0.4512372435695795
 20
1.429999999999999
 30
1.0012372435695791
 11
0.4607106781186548
 21
1.4799999999999991
 31
1.010710678118655
 12
0.39
 22
1.4799999999999991
 32
1.04
 13
0.39
 23
1.429999999999999
 33
1.0266025403784429
  0
3DFACE
  5
5B5
  8
0
 10
0.39
 20
1.29
 30
0.94
 11
0.39
 21
1.3200000000000001
 31
0.99
 12
0.3546446609406726
 22
1.3200000000000001
 32
0.9753553390593275
 13
0.39
 23
1.29
 33
0.94
  0
3DFACE
  5
5B6
  8
0
 10
0.39
 20
1.3200000000000001
 30
0.99
 11
0.39
 21
1.429999999999999
 31
1.0266025403784429
 12
0.3287627564304205
 22
1.429999999999999
 32
1.0012372435695791
 13
0.3546446609406726
 23
1.3200000000000001
 33
0.9753553390593275
  0
3DFACE
  5
5B7
  8
0
 10
0.39
 20
1.429999999999999
 30
1.0266025403784429
 11
0.39
 21
1.4799999999999991
 31
1.04
 12
0.3192893218813453
 22
1.4799999999999991
 32
1.010710678118655
 13
0.3287627564304205
 23
1.429999999999999
 33
1.0012372435695791
  0
3DFACE
  5
5B8
  8
0
 10
0.39
 20
1.29
 30
0.94
 11
0.3546446609406726
 21
1.3200000000000001
 31
0.9753553390593275
 12
0.34
 22
1.3200000000000001
 32
0.94
 13
0.39
 23
1.29
 33
0.94
  0
3DFACE
  5
5B9
  8
0
 10
0.3546446609406726
 20
1.3200000000000001
 30
0.9753553390593275
 11
0.3287627564304205
 21
1.429999999999999
 31
1.0012372435695791
 12
0.3033974596215561
 22
1.429999999999999
 32
0.94
 13
0.34
 23
1.3200000000000001
 33
0.94
  0
3DFACE
  5
5BA
  8
0
 10
0.3287627564304205
 20
1.429999999999999
 30
1.0012372435695791
 11
0.3192893218813453
 21
1.4799999999999991
 31
1.010710678118655
 12
0.29
 22
1.4799999999999991
 32
0.94
 13
0.3033974596215561
 23
1.429999999999999
 33
0.94
  0
3DFACE
  5
5BB
  8
0
 10
-0.39
 20
1.29
 30
0.94
 11
-0.4400000000000001
 21
1.3200000000000001
 31
0.94
 12
-0.4253553390593275
 22
1.3200000000000001
 32
0.9046446609406725
 13
-0.39
 23
1.29
 33
0.94
  0
3DFACE
  5
5BC
  8
0
 10
-0.4400000000000001
 20
1.3200000000000001
 30
0.94
 11
-0.4766025403784439
 21
1.429999999999999
 31
0.94
 12
-0.4512372435695795
 22
1.429999999999999
 32
0.8787627564304203
 13
-0.4253553390593275
 23
1.3200000000000001
 33
0.9046446609406725
  0
3DFACE
  5
5BD
  8
0
 10
-0.4766025403784439
 20
1.429999999999999
 30
0.94
 11
-0.4900000000000001
 21
1.4799999999999991
 31
0.94
 12
-0.4607106781186548
 22
1.4799999999999991
 32
0.8692893218813452
 13
-0.4512372435695795
 23
1.429999999999999
 33
0.8787627564304203
  0
3DFACE
  5
5BE
  8
0
 10
-0.39
 20
1.29
 30
0.94
 11
-0.4253553390593275
 21
1.3200000000000001
 31
0.9046446609406725
 12
-0.39
 22
1.3200000000000001
 32
0.8900000000000002
 13
-0.39
 23
1.29
 33
0.94
  0
3DFACE
  5
5BF
  8
0
 10
-0.4253553390593275
 20
1.3200000000000001
 30
0.9046446609406725
 11
-0.4512372435695795
 21
1.429999999999999
 31
0.8787627564304203
 12
-0.39
 22
1.429999999999999
 32
0.8533974596215562
 13
-0.39
 23
1.3200000000000001
 33
0.8900000000000002
  0
3DFACE
  5
5C0
  8
0
 10
-0.4512372435695795
 20
1.429999999999999
 30
0.8787627564304203
 11
-0.4607106781186548
 21
1.4799999999999991
 31
0.8692893218813452
 12
-0.39
 22
1.4799999999999991
 32
0.8400000000000002
 13
-0.39
 23
1.429999999999999
 33
0.8533974596215562
  0
3DFACE
  5
5C1
  8
0
 10
-0.39
 20
1.29
 30
0.94
 11
-0.39
 21
1.3200000000000001
 31
0.8900000000000002
 12
-0.3546446609406726
 22
1.3200000000000001
 32
0.9046446609406725
 13
-0.39
 23
1.29
 33
0.94
  0
3DFACE
  5
5C2
  8
0
 10
-0.39
 20
1.3200000000000001
 30
0.8900000000000002
 11
-0.39
 21
1.429999999999999
 31
0.8533974596215562
 12
-0.3287627564304205
 22
1.429999999999999
 32
0.8787627564304203
 13
-0.3546446609406726
 23
1.3200000000000001
 33
0.9046446609406725
  0
3DFACE
  5
5C3
  8
0
 10
-0.39
 20
1.429999999999999
 30
0.8533974596215562
 11
-0.39
 21
1.4799999999999991
 31
0.8400000000000002
 12
-0.3192893218813453
 22
1.4799999999999991
 32
0.8692893218813452
 13
-0.3287627564304205
 23
1.429999999999999
 33
0.8787627564304203
  0
3DFACE
  5
5C4
  8
0
 10
-0.39
 20
1.29
 30
0.94
 11
-0.3546446609406726
 21
1.3200000000000001
 31
0.9046446609406725
 12
-0.34
 22
1.3200000000000001
 32
0.94
 13
-0.39
 23
1.29
 33
0.94
  0
3DFACE
  5
5C5
  8
0
 10
-0.3546446609406726
 20
1.3200000000000001
 30
0.9046446609406725
 11
-0.3287627564304205
 21
1.429999999999999
 31
0.8787627564304203
 12
-0.3033974596215561
 22
1.429999999999999
 32
0.94
 13
-0.34
 23
1.3200000000000001
 33
0.94
  0
3DFACE
  5
5C6
  8
0
 10
-0.3287627564304205
 20
1.429999999999999
 30
0.8787627564304203
 11
-0.3192893218813453
 21
1.4799999999999991
 31
0.8692893218813452
 12
-0.29
 22
1.4799999999999991
 32
0.94
 13
-0.3033974596215561
 23
1.429999999999999
 33
0.94
  0
3DFACE
  5
5C7
  8
0
 10
-0.39
 20
1.29
 30
0.94
 11
-0.34
 21
1.3200000000000001
 31
0.94
 12
-0.3546446609406726
 22
1.3200000000000001
 32
0.9753553390593275
 13
-0.39
 23
1.29
 33
0.94
  0
3DFACE
  5
5C8
  8
0
 10
-0.34
 20
1.3200000000000001
 30
0.94
 11
-0.3033974596215561
 21
1.429999999999999
 31
0.94
 12
-0.3287627564304205
 22
1.429999999999999
 32
1.0012372435695791
 13
-0.3546446609406726
 23
1.3200000000000001
 33
0.9753553390593275
  0
3DFACE
  5
5C9
  8
0
 10
-0.3033974596215561
 20
1.429999999999999
 30
0.94
 11
-0.29
 21
1.4799999999999991
 31
0.94
 12
-0.3192893218813453
 22
1.4799999999999991
 32
1.010710678118655
 13
-0.3287627564304205
 23
1.429999999999999
 33
1.0012372435695791
  0
3DFACE
  5
5CA
  8
0
 10
-0.39
 20
1.29
 30
0.94
 11
-0.3546446609406726
 21
1.3200000000000001
 31
0.9753553390593275
 12
-0.39
 22
1.3200000000000001
 32
0.99
 13
-0.39
 23
1.29
 33
0.94
  0
3DFACE
  5
5CB
  8
0
 10
-0.3546446609406726
 20
1.3200000000000001
 30
0.9753553390593275
 11
-0.3287627564304205
 21
1.429999999999999
 31
1.0012372435695791
 12
-0.39
 22
1.429999999999999
 32
1.0266025403784429
 13
-0.39
 23
1.3200000000000001
 33
0.99
  0
3DFACE
  5
5CC
  8
0
 10
-0.3287627564304205
 20
1.429999999999999
 30
1.0012372435695791
 11
-0.3192893218813453
 21
1.4799999999999991
 31
1.010710678118655
 12
-0.39
 22
1.4799999999999991
 32
1.04
 13
-0.39
 23
1.429999999999999
 33
1.0266025403784429
  0
3DFACE
  5
5CD
  8
0
 10
-0.39
 20
1.29
 30
0.94
 11
-0.39
 21
1.3200000000000001
 31
0.99
 12
-0.4253553390593275
 22
1.3200000000000001
 32
0.9753553390593275
 13
-0.39
 23
1.29
 33
0.94
  0
3DFACE
  5
5CE
  8
0
 10
-0.39
 20
1.3200000000000001
 30
0.99
 11
-0.39
 21
1.429999999999999
 31
1.0266025403784429
 12
-0.4512372435695795
 22
1.429999999999999
 32
1.0012372435695791
 13
-0.4253553390593275
 23
1.3200000000000001
 33
0.9753553390593275
  0
3DFACE
  5
5CF
  8
0
 10
-0.39
 20
1.429999999999999
 30
1.0266025403784429
 11
-0.39
 21
1.4799999999999991
 31
1.04
 12
-0.4607106781186548
 22
1.4799999999999991
 32
1.010710678118655
 13
-0.4512372435695795
 23
1.429999999999999
 33
1.0012372435695791
  0
3DFACE
  5
5D0
  8
0
 10
-0.39
 20
1.29
 30
0.94
 11
-0.4253553390593275
 21
1.3200000000000001
 31
0.9753553390593275
 12
-0.4400000000000001
 22
1.3200000000000001
 32
0.94
 13
-0.39
 23
1.29
 33
0.94
  0
3DFACE
  5
5D1
  8
0
 10
-0.4253553390593275
 20
1.3200000000000001
 30
0.9753553390593275
 11
-0.4512372435695795
 21
1.429999999999999
 31
1.0012372435695791
 12
-0.4766025403784439
 22
1.429999999999999
 32
0.94
 13
-0.4400000000000001
 23
1.3200000000000001
 33
0.94
  0
3DFACE
  5
5D2
  8
0
 10
-0.4512372435695795
 20
1.429999999999999
 30
1.0012372435695791
 11
-0.4607106781186548
 21
1.4799999999999991
 31
1.010710678118655
 12
-0.4900000000000001
 22
1.4799999999999991
 32
0.94
 13
-0.4766025403784439
 23
1.429999999999999
 33
0.94
  0
3DFACE
  5
5D3
  8
0
 10
0.39
 20
1.54
 30
0.94
 11
0.3192893218813453
 21
1.52
 31
0.94
 12
0.3399999999999999
 22
1.52
 32
0.99
 13
0.39
 23
1.54
 33
0.94
  0
3DFACE
  5
5D4
  8
0
 10
0.3192893218813453
 20
1.52
 30
0.94
 11
0.29
 21
1.4799999999999991
 31
0.94
 12
0.3192893218813453
 22
1.4799999999999991
 32
1.010710678118655
 13
0.3399999999999999
 23
1.52
 33
0.99
  0
3DFACE
  5
5D5
  8
0
 10
0.39
 20
1.54
 30
0.94
 11
0.3399999999999999
 21
1.52
 31
0.99
 12
0.39
 22
1.52
 32
1.0107106781186539
 13
0.39
 23
1.54
 33
0.94
  0
3DFACE
  5
5D6
  8
0
 10
0.3399999999999999
 20
1.52
 30
0.99
 11
0.3192893218813453
 21
1.4799999999999991
 31
1.010710678118655
 12
0.39
 22
1.4799999999999991
 32
1.04
 13
0.39
 23
1.52
 33
1.0107106781186539
  0
3DFACE
  5
5D7
  8
0
 10
0.39
 20
1.54
 30
0.94
 11
0.39
 21
1.52
 31
1.0107106781186539
 12
0.44
 22
1.52
 32
0.99
 13
0.39
 23
1.54
 33
0.94
  0
3DFACE
  5
5D8
  8
0
 10
0.39
 20
1.52
 30
1.0107106781186539
 11
0.39
 21
1.4799999999999991
 31
1.04
 12
0.4607106781186548
 22
1.4799999999999991
 32
1.010710678118655
 13
0.44
 23
1.52
 33
0.99
  0
3DFACE
  5
5D9
  8
0
 10
0.39
 20
1.54
 30
0.94
 11
0.44
 21
1.52
 31
0.99
 12
0.4607106781186548
 22
1.52
 32
0.94
 13
0.39
 23
1.54
 33
0.94
  0
3DFACE
  5
5DA
  8
0
 10
0.44
 20
1.52
 30
0.99
 11
0.4607106781186548
 21
1.4799999999999991
 31
1.010710678118655
 12
0.4900000000000001
 22
1.4799999999999991
 32
0.94
 13
0.4607106781186548
 23
1.52
 33
0.94
  0
3DFACE
  5
5DB
  8
0
 10
0.39
 20
1.54
 30
0.94
 11
0.4607106781186548
 21
1.52
 31
0.94
 12
0.4400000000000001
 22
1.52
 32
0.89
 13
0.39
 23
1.54
 33
0.94
  0
3DFACE
  5
5DC
  8
0
 10
0.4607106781186548
 20
1.52
 30
0.94
 11
0.4900000000000001
 21
1.4799999999999991
 31
0.94
 12
0.4607106781186548
 22
1.4799999999999991
 32
0.8692893218813452
 13
0.4400000000000001
 23
1.52
 33
0.89
  0
3DFACE
  5
5DD
  8
0
 10
0.39
 20
1.54
 30
0.94
 11
0.4400000000000001
 21
1.52
 31
0.89
 12
0.39
 22
1.52
 32
0.8692893218813452
 13
0.39
 23
1.54
 33
0.94
  0
3DFACE
  5
5DE
  8
0
 10
0.4400000000000001
 20
1.52
 30
0.89
 11
0.4607106781186548
 21
1.4799999999999991
 31
0.8692893218813452
 12
0.39
 22
1.4799999999999991
 32
0.84
 13
0.39
 23
1.52
 33
0.8692893218813452
  0
3DFACE
  5
5DF
  8
0
 10
0.39
 20
1.54
 30
0.94
 11
0.39
 21
1.52
 31
0.8692893218813452
 12
0.3400000000000001
 22
1.52
 32
0.89
 13
0.39
 23
1.54
 33
0.94
  0
3DFACE
  5
5E0
  8
0
 10
0.39
 20
1.52
 30
0.8692893218813452
 11
0.39
 21
1.4799999999999991
 31
0.84
 12
0.3192893218813453
 22
1.4799999999999991
 32
0.8692893218813452
 13
0.3400000000000001
 23
1.52
 33
0.89
  0
3DFACE
  5
5E1
  8
0
 10
0.39
 20
1.54
 30
0.94
 11
0.3400000000000001
 21
1.52
 31
0.89
 12
0.3192893218813453
 22
1.52
 32
0.94
 13
0.39
 23
1.54
 33
0.94
  0
3DFACE
  5
5E2
  8
0
 10
0.3400000000000001
 20
1.52
 30
0.89
 11
0.3192893218813453
 21
1.4799999999999991
 31
0.8692893218813452
 12
0.29
 22
1.4799999999999991
 32
0.94
 13
0.3192893218813453
 23
1.52
 33
0.94
  0
3DFACE
  5
5E3
  8
0
 10
-0.39
 20
1.54
 30
0.94
 11
-0.4607106781186548
 21
1.52
 31
0.94
 12
-0.4400000000000001
 22
1.52
 32
0.99
 13
-0.39
 23
1.54
 33
0.94
  0
3DFACE
  5
5E4
  8
0
 10
-0.4607106781186548
 20
1.52
 30
0.94
 11
-0.4900000000000001
 21
1.4799999999999991
 31
0.94
 12
-0.4607106781186548
 22
1.4799999999999991
 32
1.010710678118655
 13
-0.4400000000000001
 23
1.52
 33
0.99
  0
3DFACE
  5
5E5
  8
0
 10
-0.39
 20
1.54
 30
0.94
 11
-0.4400000000000001
 21
1.52
 31
0.99
 12
-0.39
 22
1.52
 32
1.0107106781186539
 13
-0.39
 23
1.54
 33
0.94
  0
3DFACE
  5
5E6
  8
0
 10
-0.4400000000000001
 20
1.52
 30
0.99
 11
-0.4607106781186548
 21
1.4799999999999991
 31
1.010710678118655
 12
-0.39
 22
1.4799999999999991
 32
1.04
 13
-0.39
 23
1.52
 33
1.0107106781186539
  0
3DFACE
  5
5E7
  8
0
 10
-0.39
 20
1.54
 30
0.94
 11
-0.39
 21
1.52
 31
1.0107106781186539
 12
-0.3400000000000001
 22
1.52
 32
0.99
 13
-0.39
 23
1.54
 33
0.94
  0
3DFACE
  5
5E8
  8
0
 10
-0.39
 20
1.52
 30
1.0107106781186539
 11
-0.39
 21
1.4799999999999991
 31
1.04
 12
-0.3192893218813453
 22
1.4799999999999991
 32
1.010710678118655
 13
-0.3400000000000001
 23
1.52
 33
0.99
  0
3DFACE
  5
5E9
  8
0
 10
-0.39
 20
1.54
 30
0.94
 11
-0.3400000000000001
 21
1.52
 31
0.99
 12
-0.3192893218813453
 22
1.52
 32
0.94
 13
-0.39
 23
1.54
 33
0.94
  0
3DFACE
  5
5EA
  8
0
 10
-0.3400000000000001
 20
1.52
 30
0.99
 11
-0.3192893218813453
 21
1.4799999999999991
 31
1.010710678118655
 12
-0.29
 22
1.4799999999999991
 32
0.94
 13
-0.3192893218813453
 23
1.52
 33
0.94
  0
3DFACE
  5
5EB
  8
0
 10
-0.39
 20
1.54
 30
0.94
 11
-0.3192893218813453
 21
1.52
 31
0.94
 12
-0.3399999999999999
 22
1.52
 32
0.89
 13
-0.39
 23
1.54
 33
0.94
  0
3DFACE
  5
5EC
  8
0
 10
-0.3192893218813453
 20
1.52
 30
0.94
 11
-0.29
 21
1.4799999999999991
 31
0.94
 12
-0.3192893218813453
 22
1.4799999999999991
 32
0.8692893218813452
 13
-0.3399999999999999
 23
1.52
 33
0.89
  0
3DFACE
  5
5ED
  8
0
 10
-0.39
 20
1.54
 30
0.94
 11
-0.3399999999999999
 21
1.52
 31
0.89
 12
-0.39
 22
1.52
 32
0.8692893218813452
 13
-0.39
 23
1.54
 33
0.94
  0
3DFACE
  5
5EE
  8
0
 10
-0.3399999999999999
 20
1.52
 30
0.89
 11
-0.3192893218813453
 21
1.4799999999999991
 31
0.8692893218813452
 12
-0.39
 22
1.4799999999999991
 32
0.84
 13
-0.39
 23
1.52
 33
0.8692893218813452
  0
3DFACE
  5
5EF
  8
0
 10
-0.39
 20
1.54
 30
0.94
 11
-0.39
 21
1.52
 31
0.8692893218813452
 12
-0.44
 22
1.52
 32
0.89
 13
-0.39
 23
1.54
 33
0.94
  0
3DFACE
  5
5F0
  8
0
 10
-0.39
 20
1.52
 30
0.8692893218813452
 11
-0.39
 21
1.4799999999999991
 31
0.84
 12
-0.4607106781186548
 22
1.4799999999999991
 32
0.8692893218813452
 13
-0.44
 23
1.52
 33
0.89
  0
3DFACE
  5
5F1
  8
0
 10
-0.39
 20
1.54
 30
0.94
 11
-0.44
 21
1.52
 31
0.89
 12
-0.4607106781186548
 22
1.52
 32
0.94
 13
-0.39
 23
1.54
 33
0.94
  0
3DFACE
  5
5F2
  8
0
 10
-0.44
 20
1.52
 30
0.89
 11
-0.4607106781186548
 21
1.4799999999999991
 31
0.8692893218813452
 12
-0.4900000000000001
 22
1.4799999999999991
 32
0.94
 13
-0.4607106781186548
 23
1.52
 33
0.94
  0
3DFACE
  5
60A
  8
0
 10
0.3400000000000001
 20
1.409999999999999
 30
0.89
 11
0.3400000000000001
 21
1.429999999999999
 31
0.9099999999999999
 12
0.24
 22
1.429999999999999
 32
0.9099999999999999
 13
0.24
 23
1.409999999999999
 33
0.89
  0
3DFACE
  5
60B
  8
0
 10
0.3400000000000001
 20
1.429999999999999
 30
0.9099999999999999
 11
0.3400000000000001
 21
1.45
 31
0.89
 12
0.24
 22
1.45
 32
0.89
 13
0.24
 23
1.429999999999999
 33
0.9099999999999999
  0
3DFACE
  5
60C
  8
0
 10
0.3400000000000001
 20
1.45
 30
0.89
 11
0.3400000000000001
 21
1.429999999999999
 31
0.8699999999999999
 12
0.24
 22
1.429999999999999
 32
0.8699999999999999
 13
0.24
 23
1.45
 33
0.89
  0
3DFACE
  5
60D
  8
0
 10
0.3400000000000001
 20
1.429999999999999
 30
0.8699999999999999
 11
0.3400000000000001
 21
1.409999999999999
 31
0.89
 12
0.24
 22
1.409999999999999
 32
0.89
 13
0.24
 23
1.429999999999999
 33
0.8699999999999999
  0
3DFACE
  5
60E
  8
0
 10
-0.24
 20
1.409999999999999
 30
0.89
 11
-0.24
 21
1.429999999999999
 31
0.9099999999999999
 12
-0.34
 22
1.429999999999999
 32
0.9099999999999999
 13
-0.34
 23
1.409999999999999
 33
0.89
  0
3DFACE
  5
60F
  8
0
 10
-0.24
 20
1.429999999999999
 30
0.9099999999999999
 11
-0.24
 21
1.45
 31
0.89
 12
-0.34
 22
1.45
 32
0.89
 13
-0.34
 23
1.429999999999999
 33
0.9099999999999999
  0
3DFACE
  5
610
  8
0
 10
-0.24
 20
1.45
 30
0.89
 11
-0.24
 21
1.429999999999999
 31
0.8699999999999999
 12
-0.34
 22
1.429999999999999
 32
0.8699999999999999
 13
-0.34
 23
1.45
 33
0.89
  0
3DFACE
  5
611
  8
0
 10
-0.24
 20
1.429999999999999
 30
0.8699999999999999
 11
-0.24
 21
1.409999999999999
 31
0.89
 12
-0.34
 22
1.409999999999999
 32
0.89
 13
-0.34
 23
1.429999999999999
 33
0.8699999999999999
  0
3DFACE
  5
639
  8
0
 10
0.01
 20
1.3899999999999999
 30
1.0700000000000001
 11
0.0070710678118655
 21
1.3899999999999999
 31
1.0770710678118649
 12
0.0070710678118655
 22
0.51
 32
1.187071067811865
 13
0.01
 23
0.51
 33
1.179999999999999
  0
3DFACE
  5
63A
  8
0
 10
0.0070710678118655
 20
1.3899999999999999
 30
1.0770710678118649
 11
0.0
 21
1.3899999999999999
 31
1.0800000000000001
 12
0.0
 22
0.51
 32
1.1899999999999991
 13
0.0070710678118655
 23
0.51
 33
1.187071067811865
  0
3DFACE
  5
63B
  8
0
 10
0.0
 20
1.3899999999999999
 30
1.0800000000000001
 11
-0.0070710678118655
 21
1.3899999999999999
 31
1.0770710678118649
 12
-0.0070710678118655
 22
0.51
 32
1.187071067811865
 13
0.0
 23
0.51
 33
1.1899999999999991
  0
3DFACE
  5
63C
  8
0
 10
-0.0070710678118655
 20
1.3899999999999999
 30
1.0770710678118649
 11
-0.01
 21
1.3899999999999999
 31
1.0700000000000001
 12
-0.01
 22
0.51
 32
1.179999999999999
 13
-0.0070710678118655
 23
0.51
 33
1.187071067811865
  0
3DFACE
  5
641
  8
0
 10
0.0070710678118655
 20
1.3899999999999999
 30
1.0770710678118649
 11
0.0100000000000001
 21
1.3900000000000039
 31
1.069999999999999
 12
-0.01
 22
1.3900000000000039
 32
1.069999999999999
 13
-0.0070710678118655
 23
1.3899999999999999
 33
1.0770710678118649
  0
3DFACE
  5
642
  8
0
 10
0.0
 20
1.3899999999999999
 30
1.0800000000000001
 11
0.0070710678118655
 21
1.3900000000000039
 31
1.0770710678118649
 12
-0.0070710678118655
 22
1.3899999999999999
 32
1.0770710678118649
 13
0.0
 23
1.3899999999999999
 33
1.0800000000000001
  0
3DFACE
  5
643
  8
0
 10
-0.0070710678118655
 20
0.51
 30
1.187071067811865
 11
-0.0099999999999996
 21
0.5100000000000003
 31
1.179999999999999
 12
0.0100000000000006
 22
0.51
 32
1.179999999999999
 13
0.0070710678118655
 23
0.51
 33
1.187071067811865
  0
3DFACE
  5
644
  8
0
 10
0.0
 20
0.51
 30
1.1899999999999991
 11
-0.0070710678118655
 21
0.51
 31
1.187071067811865
 12
0.0070710678118655
 22
0.51
 32
1.187071067811865
 13
0.0
 23
0.51
 33
1.1899999999999991
  0
3DFACE
  5
6C0
  8
0
 62
     4
 10
-0.61
 20
-0.6600000000000001
 30
0.4100000000000002
 11
0.61
 21
-0.6600000000000001
 31
0.4100000000000002
 12
0.5300000000000001
 22
-0.28
 32
0.4100000000000002
 13
-0.5300000000000003
 23
-0.28
 33
0.4100000000000003
  0
3DFACE
  5
6C1
  8
0
 62
     4
 10
-0.0500000000000001
 20
-0.28
 30
0.4100000000000002
 11
0.0500000000000001
 21
-0.28
 31
0.4100000000000002
 12
0.0500000000000001
 22
0.0800000000000001
 32
0.4100000000000002
 13
-0.05
 23
0.0800000000000001
 33
0.4100000000000002
  0
3DFACE
  5
6C2
  8
0
 62
     4
 10
-0.61
 20
-0.6600000000000001
 30
0.4100000000000002
 11
-0.5299999999999999
 21
-0.28
 31
0.4100000000000002
 12
-0.5300000000000001
 22
0.0800000000000001
 32
0.4100000000000002
 13
-0.6100000000000002
 23
-0.37
 33
0.4100000000000003
  0
3DFACE
  5
6C3
  8
0
 62
     4
 10
0.5300000000000003
 20
-0.28
 30
0.4100000000000002
 11
0.6100000000000003
 21
-0.6600000000000001
 31
0.4100000000000002
 12
0.6100000000000002
 22
-0.37
 32
0.4100000000000002
 13
0.5300000000000001
 23
0.0800000000000001
 33
0.4100000000000003
  0
3DFACE
  5
6C4
  8
0
 62
     4
 10
-0.5
 20
0.35
 30
0.4100000000000002
 11
0.5
 21
0.35
 31
0.4100000000000002
 12
0.4700000000000001
 22
0.4700000000000001
 32
0.4100000000000002
 13
-0.4700000000000001
 23
0.4700000000000001
 33
0.4100000000000003
  0
3DFACE
  5
6C5
  8
0
 62
     4
 10
-0.5300000000000001
 20
0.0800000000000001
 30
0.4100000000000002
 11
0.5300000000000001
 21
0.0800000000000001
 31
0.4100000000000002
 12
0.5
 22
0.35
 32
0.4100000000000002
 13
-0.5
 23
0.35
 33
0.4100000000000002
  0
3DFACE
  5
6C6
  8
0
 62
     4
 10
-0.6100000000000002
 20
-0.37
 30
0.4100000000000003
 11
-0.5299999999999999
 21
0.0799999999999995
 31
0.4100000000000002
 12
-0.5
 22
0.35
 32
0.4100000000000002
 13
-0.6100000000000002
 23
-0.37
 33
0.4100000000000003
  0
3DFACE
  5
6C7
  8
0
 62
     4
 10
0.5300000000000001
 20
0.0800000000000001
 30
0.4100000000000003
 11
0.6100000000000002
 21
-0.37
 31
0.4100000000000002
 12
0.5
 22
0.35
 32
0.4100000000000002
 13
0.5300000000000001
 23
0.0800000000000001
 33
0.4100000000000003
  0
3DFACE
  5
6C8
  8
0
 10
-0.6100000000000003
 20
-0.3700000000000004
 30
0.4100000000000002
 11
-0.61
 21
-0.7300000000000004
 31
0.4900000000000001
 12
-0.6099999999999999
 22
-0.6599999999999997
 32
0.4100000000000002
 13
-0.6100000000000003
 23
-0.3700000000000004
 33
0.4100000000000002
  0
3DFACE
  5
6C9
  8
0
 10
0.6100000000000003
 20
-0.6600000000000013
 30
0.4100000000000002
 11
0.61
 21
-0.7300000000000004
 31
0.4900000000000001
 12
0.6100000000000002
 22
-0.3699999999999998
 32
0.4100000000000002
 13
0.6100000000000002
 23
-0.3699999999999998
 33
0.4100000000000002
  0
3DFACE
  5
6CA
  8
0
 10
-0.4999999999999995
 20
0.3500000000000018
 30
1.0800000000000001
 11
-0.4999999999999996
 21
0.3500000000000021
 31
0.4100000000000003
 12
-0.4700000000000001
 22
0.4700000000000001
 32
0.4100000000000003
 13
-0.5
 23
0.3499999999999996
 33
1.0800000000000001
  0
3DFACE
  5
6CB
  8
0
 10
0.4700000000000001
 20
0.47
 30
0.4100000000000002
 11
0.5000000000000004
 21
0.3499999999999973
 31
0.4100000000000001
 12
0.5000000000000002
 22
0.349999999999997
 32
1.0800000000000001
 13
0.5000000000000002
 23
0.349999999999997
 33
1.0800000000000001
  0
3DFACE
  5
6CC
  8
0
 10
-0.4999999999999995
 20
0.3500000000000018
 30
1.0800000000000001
 11
-0.47
 21
0.4700000000000008
 31
0.4100000000000003
 12
0.4700000000000001
 22
0.47
 32
0.4100000000000002
 13
0.4999999999999997
 23
0.3499999999999996
 33
1.079999999999985
  0
3DFACE
  5
6ED
  8
0
 62
     4
 10
-0.61
 20
-0.73
 30
0.4100000000000002
 11
-0.5300000000000001
 21
-0.8599999999999999
 31
0.4100000000000002
 12
-0.5300000000000001
 22
-0.6600000000000001
 32
0.4100000000000002
 13
-0.61
 23
-0.66
 33
0.4100000000000003
  0
3DFACE
  5
6EE
  8
0
 62
     4
 10
0.5300000000000003
 20
-0.8599999999999999
 30
0.4100000000000002
 11
0.6100000000000002
 21
-0.73
 31
0.4100000000000002
 12
0.6100000000000002
 22
-0.6600000000000001
 32
0.4100000000000002
 13
0.5300000000000003
 23
-0.66
 33
0.4100000000000003
  0
3DFACE
  5
771
  8
0
 10
-0.13
 20
0.1200000000000001
 30
1.1200000000000001
 11
-0.115
 21
0.1335946168055502
 31
1.1136607260738891
 12
-0.158281778022989
 22
0.0833386670848255
 32
1.005886494101015
 13
-0.1697724446697737
 23
0.0738188570133889
 33
1.02096421926817
  0
3DFACE
  5
772
  8
0
 10
-0.115
 20
0.1335946168055502
 30
1.1136607260738891
 11
-0.1
 21
0.1200000000000001
 31
1.1200000000000001
 12
-0.1467911113762043
 22
0.0656692435451634
 32
1.0034873167860829
 13
-0.158281778022989
 23
0.0833386670848255
 33
1.005886494101015
  0
3DFACE
  5
773
  8
0
 10
-0.1
 20
0.1200000000000001
 30
1.1200000000000001
 11
-0.115
 21
0.1064053831944505
 31
1.1263392739261091
 12
-0.158281778022989
 22
0.0561494334737263
 32
1.0185650419532359
 13
-0.1467911113762043
 23
0.0656692435451634
 33
1.0034873167860829
  0
3DFACE
  5
774
  8
0
 10
-0.115
 20
0.1064053831944505
 30
1.1263392739261091
 11
-0.13
 21
0.1200000000000001
 31
1.1200000000000001
 12
-0.1697724446697737
 22
0.0738188570133889
 32
1.02096421926817
 13
-0.158281778022989
 23
0.0561494334737263
 33
1.0185650419532359
  0
3DFACE
  5
775
  8
0
 10
-0.1697724446697737
 20
0.0738188570133889
 30
1.02096421926817
 11
-0.158281778022989
 21
0.0833386670848255
 31
1.005886494101015
 12
-0.267875087131618
 22
0.0565980347710951
 32
0.9485410230454185
 13
-0.2704798097966218
 23
0.0492463840764468
 33
0.9682683810008638
  0
3DFACE
  5
776
  8
0
 10
-0.158281778022989
 20
0.0833386670848255
 30
1.005886494101015
 11
-0.1467911113762043
 21
0.0656692435451634
 31
1.0034873167860829
 12
-0.2652703644666138
 22
0.0367604518546432
 32
0.9414922129421938
 13
-0.267875087131618
 23
0.0565980347710951
 33
0.9485410230454185
  0
3DFACE
  5
777
  8
0
 10
-0.1467911113762043
 20
0.0656692435451634
 30
1.0034873167860829
 11
-0.158281778022989
 21
0.0561494334737263
 31
1.0185650419532359
 12
-0.267875087131618
 22
0.0294088011599953
 32
0.9612195708976392
 13
-0.2652703644666138
 23
0.0367604518546432
 33
0.9414922129421938
  0
3DFACE
  5
778
  8
0
 10
-0.158281778022989
 20
0.0561494334737263
 30
1.0185650419532359
 11
-0.1697724446697737
 21
0.0738188570133889
 31
1.02096421926817
 12
-0.2704798097966218
 22
0.0492463840764468
 32
0.9682683810008638
 13
-0.267875087131618
 23
0.0294088011599953
 33
0.9612195708976392
  0
3DFACE
  5
779
  8
0
 10
-0.2704798097966218
 20
0.0492463840764468
 30
0.9682683810008638
 11
-0.267875087131618
 21
0.0565980347710951
 31
0.9485410230454185
 12
-0.3925
 22
0.0658849589129766
 32
0.9684568961379307
 13
-0.385
 23
0.0577803143689866
 33
0.9865694535723621
  0
3DFACE
  5
77A
  8
0
 10
-0.267875087131618
 20
0.0565980347710951
 30
0.9485410230454185
 11
-0.2652703644666138
 21
0.0367604518546432
 31
0.9414922129421938
 12
-0.3999999999999999
 22
0.0468003698458666
 32
0.9630228865557208
 13
-0.3925
 23
0.0658849589129766
 33
0.9684568961379307
  0
3DFACE
  5
77B
  8
0
 10
-0.2652703644666138
 20
0.0367604518546432
 30
0.9414922129421938
 11
-0.267875087131618
 21
0.0294088011599953
 31
0.9612195708976392
 12
-0.3925
 22
0.0386957253018769
 32
0.9811354439901514
 13
-0.3999999999999999
 23
0.0468003698458666
 33
0.9630228865557208
  0
3DFACE
  5
77C
  8
0
 10
-0.267875087131618
 20
0.0294088011599953
 30
0.9612195708976392
 11
-0.2704798097966218
 21
0.0492463840764468
 31
0.9682683810008638
 12
-0.385
 22
0.0577803143689866
 32
0.9865694535723621
 13
-0.3925
 23
0.0386957253018769
 33
0.9811354439901514
  0
3DFACE
  5
77D
  8
0
 10
-0.385
 20
0.0577803143689866
 30
0.9865694535723621
 11
-0.3925
 21
0.0658849589129766
 31
0.9684568961379307
 12
-0.473843134845393
 22
0.1068539844918184
 32
1.0563152550182899
 13
-0.4597477455336044
 23
0.095427527063058
 33
1.067304161732693
  0
3DFACE
  5
77E
  8
0
 10
-0.3925
 20
0.0658849589129766
 30
0.9684568961379307
 11
-0.3999999999999999
 21
0.0468003698458666
 31
0.9630228865557208
 12
-0.4879385241571817
 22
0.0910912083094799
 32
1.0580048961561099
 13
-0.473843134845393
 23
0.1068539844918184
 33
1.0563152550182899
  0
3DFACE
  5
77F
  8
0
 10
-0.3999999999999999
 20
0.0468003698458666
 30
0.9630228865557208
 11
-0.3925
 21
0.0386957253018769
 31
0.9811354439901514
 12
-0.473843134845393
 22
0.0796647508807191
 32
1.068993802870511
 13
-0.4879385241571817
 23
0.0910912083094799
 33
1.0580048961561099
  0
3DFACE
  5
780
  8
0
 10
-0.3925
 20
0.0386957253018769
 30
0.9811354439901514
 11
-0.385
 21
0.0577803143689866
 31
0.9865694535723621
 12
-0.4597477455336044
 22
0.095427527063058
 32
1.067304161732693
 13
-0.473843134845393
 23
0.0796647508807191
 33
1.068993802870511
  0
3DFACE
  5
781
  8
0
 10
-0.4597477455336044
 20
0.095427527063058
 30
1.067304161732693
 11
-0.473843134845393
 21
0.1068539844918184
 31
1.0563152550182899
 12
-0.473843134845393
 22
0.1603352491192802
 32
1.1710061971294861
 13
-0.4597477455336045
 23
0.1445724729369413
 33
1.1726958382673041
  0
3DFACE
  5
782
  8
0
 10
-0.473843134845393
 20
0.1068539844918184
 30
1.0563152550182899
 11
-0.4879385241571817
 21
0.0910912083094799
 31
1.0580048961561099
 12
-0.4879385241571818
 22
0.1489087916905198
 32
1.1819951038438881
 13
-0.473843134845393
 23
0.1603352491192802
 33
1.1710061971294861
  0
3DFACE
  5
783
  8
0
 10
-0.4879385241571817
 20
0.0910912083094799
 30
1.0580048961561099
 11
-0.473843134845393
 21
0.0796647508807191
 31
1.068993802870511
 12
-0.473843134845393
 22
0.1331460155081809
 32
1.1836847449817061
 13
-0.4879385241571818
 23
0.1489087916905198
 33
1.1819951038438881
  0
3DFACE
  5
784
  8
0
 10
-0.473843134845393
 20
0.0796647508807191
 30
1.068993802870511
 11
-0.4597477455336044
 21
0.095427527063058
 31
1.067304161732693
 12
-0.4597477455336045
 22
0.1445724729369413
 32
1.1726958382673041
 13
-0.473843134845393
 23
0.1331460155081809
 33
1.1836847449817061
  0
3DFACE
  5
785
  8
0
 10
-0.4597477455336045
 20
0.1445724729369413
 30
1.1726958382673041
 11
-0.473843134845393
 21
0.1603352491192802
 31
1.1710061971294861
 12
-0.3925
 22
0.2013042746981233
 32
1.258864556009847
 13
-0.385
 23
0.1822196856310132
 33
1.2534305464276361
  0
3DFACE
  5
786
  8
0
 10
-0.473843134845393
 20
0.1603352491192802
 30
1.1710061971294861
 11
-0.4879385241571818
 21
0.1489087916905198
 31
1.1819951038438881
 12
-0.4000000000000001
 22
0.1931996301541332
 32
1.276977113444278
 13
-0.3925
 23
0.2013042746981233
 33
1.258864556009847
  0
3DFACE
  5
787
  8
0
 10
-0.4879385241571818
 20
0.1489087916905198
 30
1.1819951038438881
 11
-0.473843134845393
 21
0.1331460155081809
 31
1.1836847449817061
 12
-0.3925
 22
0.1741150410870236
 32
1.271543103862067
 13
-0.4000000000000001
 23
0.1931996301541332
 33
1.276977113444278
  0
3DFACE
  5
788
  8
0
 10
-0.473843134845393
 20
0.1331460155081809
 30
1.1836847449817061
 11
-0.4597477455336045
 21
0.1445724729369413
 31
1.1726958382673041
 12
-0.385
 22
0.1822196856310132
 32
1.2534305464276361
 13
-0.3925
 23
0.1741150410870236
 33
1.271543103862067
  0
3DFACE
  5
789
  8
0
 10
-0.385
 20
0.1822196856310132
 30
1.2534305464276361
 11
-0.3925
 21
0.2013042746981233
 31
1.258864556009847
 12
-0.267875087131618
 22
0.2105911988400053
 32
1.2787804291023599
 13
-0.2704798097966218
 23
0.190753615923553
 33
1.2717316189991339
  0
3DFACE
  5
78A
  8
0
 10
-0.3925
 20
0.2013042746981233
 30
1.258864556009847
 11
-0.4000000000000001
 21
0.1931996301541332
 31
1.276977113444278
 12
-0.2652703644666141
 22
0.2032395481453566
 32
1.2985077870578039
 13
-0.267875087131618
 23
0.2105911988400053
 33
1.2787804291023599
  0
3DFACE
  5
78B
  8
0
 10
-0.4000000000000001
 20
0.1931996301541332
 30
1.276977113444278
 11
-0.3925
 21
0.1741150410870236
 31
1.271543103862067
 12
-0.267875087131618
 22
0.1834019652289061
 32
1.2914589769545799
 13
-0.2652703644666141
 23
0.2032395481453566
 33
1.2985077870578039
  0
3DFACE
  5
78C
  8
0
 10
-0.3925
 20
0.1741150410870236
 30
1.271543103862067
 11
-0.385
 21
0.1822196856310132
 31
1.2534305464276361
 12
-0.2704798097966218
 22
0.190753615923553
 32
1.2717316189991339
 13
-0.267875087131618
 23
0.1834019652289061
 33
1.2914589769545799
  0
3DFACE
  5
78D
  8
0
 10
-0.2704798097966218
 20
0.190753615923553
 30
1.2717316189991339
 11
-0.267875087131618
 21
0.2105911988400053
 31
1.2787804291023599
 12
-0.1582817780229891
 22
0.1838505665262744
 32
1.2214349580467621
 13
-0.1697724446697737
 23
0.1661811429866113
 33
1.2190357807318279
  0
3DFACE
  5
78E
  8
0
 10
-0.267875087131618
 20
0.2105911988400053
 30
1.2787804291023599
 11
-0.2652703644666141
 21
0.2032395481453566
 31
1.2985077870578039
 12
-0.1467911113762044
 22
0.1743307564548369
 32
1.2365126832139151
 13
-0.1582817780229891
 23
0.1838505665262744
 33
1.2214349580467621
  0
3DFACE
  5
78F
  8
0
 10
-0.2652703644666141
 20
0.2032395481453566
 30
1.2985077870578039
 11
-0.267875087131618
 21
0.1834019652289061
 31
1.2914589769545799
 12
-0.1582817780229891
 22
0.1566613329151747
 32
1.2341135058989821
 13
-0.1467911113762044
 23
0.1743307564548369
 33
1.2365126832139151
  0
3DFACE
  5
790
  8
0
 10
-0.267875087131618
 20
0.1834019652289061
 30
1.2914589769545799
 11
-0.2704798097966218
 21
0.190753615923553
 31
1.2717316189991339
 12
-0.1697724446697737
 22
0.1661811429866113
 32
1.2190357807318279
 13
-0.1582817780229891
 23
0.1566613329151747
 33
1.2341135058989821
  0
3DFACE
  5
791
  8
0
 10
-0.1697724446697737
 20
0.1661811429866113
 30
1.2190357807318279
 11
-0.1582817780229891
 21
0.1838505665262744
 31
1.2214349580467621
 12
-0.115
 22
0.1335946168055502
 32
1.1136607260738891
 13
-0.13
 23
0.1200000000000001
 33
1.1200000000000001
  0
3DFACE
  5
792
  8
0
 10
-0.1582817780229891
 20
0.1838505665262744
 30
1.2214349580467621
 11
-0.1467911113762044
 21
0.1743307564548369
 31
1.2365126832139151
 12
-0.1
 22
0.1200000000000001
 32
1.1200000000000001
 13
-0.115
 23
0.1335946168055502
 33
1.1136607260738891
  0
3DFACE
  5
793
  8
0
 10
-0.1467911113762044
 20
0.1743307564548369
 30
1.2365126832139151
 11
-0.1582817780229891
 21
0.1566613329151747
 31
1.2341135058989821
 12
-0.115
 22
0.1064053831944505
 32
1.1263392739261091
 13
-0.1
 23
0.1200000000000001
 33
1.1200000000000001
  0
3DFACE
  5
794
  8
0
 10
-0.1582817780229891
 20
0.1566613329151747
 30
1.2341135058989821
 11
-0.1697724446697737
 21
0.1661811429866113
 31
1.2190357807318279
 12
-0.13
 22
0.1200000000000001
 32
1.1200000000000001
 13
-0.115
 23
0.1064053831944505
 33
1.1263392739261091
  0
3DFACE
  5
795
  8
0
 10
-0.28
 20
0.1210453092252766
 30
1.157734696614964
 11
-0.2720096189432337
 21
0.1278103075600643
 31
1.1367492586138661
 12
-0.2071357461764313
 22
0.175297742492027
 32
1.2385863914627071
 13
-0.2130784325773034
 23
0.1700316490720399
 33
1.262786241426781
  0
3DFACE
  5
796
  8
0
 10
-0.2720096189432337
 20
0.1278103075600643
 30
1.1367492586138661
 11
-0.28
 21
0.1482345428363758
 31
1.1450561487627431
 12
-0.2130784325773034
 22
0.1972208826831392
 32
1.250107693574561
 13
-0.2071357461764313
 23
0.175297742492027
 33
1.2385863914627071
  0
3DFACE
  5
797
  8
0
 10
-0.28
 20
0.1482345428363758
 30
1.1450561487627431
 11
-0.2979903810567665
 21
0.1341495814861751
 31
1.150343875419416
 12
-0.2331165082899642
 22
0.1816370164181373
 32
1.2521810082682561
 13
-0.2130784325773034
 23
0.1972208826831392
 33
1.250107693574561
  0
3DFACE
  5
798
  8
0
 10
-0.2979903810567665
 20
0.1341495814861751
 30
1.150343875419416
 11
-0.28
 21
0.1210453092252766
 31
1.157734696614964
 12
-0.2130784325773034
 22
0.1700316490720399
 32
1.262786241426781
 13
-0.2331165082899642
 23
0.1816370164181373
 33
1.2521810082682561
  0
3DFACE
  5
799
  8
0
 10
-0.28
 20
0.0917654571636235
 30
1.0949438512372529
 11
-0.2979903810567667
 21
0.1058504185138247
 31
1.089656124580582
 12
-0.2331165082899644
 22
0.058362983581862
 32
0.9878189917317419
 13
-0.2130784325773036
 23
0.0427791173168606
 33
0.9898923064254372
  0
3DFACE
  5
79A
  8
0
 10
-0.2979903810567667
 20
0.1058504185138247
 30
1.089656124580582
 11
-0.28
 21
0.1189546907747228
 31
1.0822653033850329
 12
-0.2130784325773036
 22
0.0699683509279598
 32
0.9772137585732165
 13
-0.2331165082899644
 23
0.058362983581862
 33
0.9878189917317419
  0
3DFACE
  5
79B
  8
0
 10
-0.28
 20
0.1189546907747228
 30
1.0822653033850329
 11
-0.2720096189432337
 21
0.112189692439935
 31
1.1032507413861321
 12
-0.2071357461764313
 22
0.0647022575079728
 32
1.0014136085372909
 13
-0.2130784325773036
 23
0.0699683509279598
 33
0.9772137585732165
  0
3DFACE
  5
79C
  8
0
 10
-0.2720096189432337
 20
0.112189692439935
 30
1.1032507413861321
 11
-0.28
 21
0.0917654571636235
 31
1.0949438512372529
 12
-0.2130784325773036
 22
0.0427791173168606
 32
0.9898923064254372
 13
-0.2071357461764313
 23
0.0647022575079728
 33
1.0014136085372909
  0
3DFACE
  5
79D
  8
0
 10
-0.3399999999999999
 20
0.1064053831944505
 30
1.1263392739261091
 11
-0.33
 21
0.1263392739261104
 31
1.1335946168055491
 12
-0.4597477455336044
 22
0.1263392739261104
 32
1.1335946168055491
 13
-0.473843134845393
 23
0.1064053831944505
 33
1.1263392739261091
  0
3DFACE
  5
79E
  8
0
 10
-0.33
 20
0.1263392739261104
 30
1.1335946168055491
 11
-0.3399999999999999
 21
0.1335946168055497
 31
1.1136607260738891
 12
-0.473843134845393
 22
0.1335946168055497
 32
1.1136607260738891
 13
-0.4597477455336044
 23
0.1263392739261104
 33
1.1335946168055491
  0
3DFACE
  5
79F
  8
0
 10
-0.3399999999999999
 20
0.1335946168055497
 30
1.1136607260738891
 11
-0.33
 21
0.1136607260738898
 31
1.10640538319445
 12
-0.4597477455336044
 22
0.1136607260738898
 32
1.10640538319445
 13
-0.473843134845393
 23
0.1335946168055497
 33
1.1136607260738891
  0
3DFACE
  5
7A0
  8
0
 10
-0.33
 20
0.1136607260738898
 30
1.10640538319445
 11
-0.3399999999999999
 21
0.1064053831944505
 31
1.1263392739261091
 12
-0.473843134845393
 22
0.1064053831944505
 32
1.1263392739261091
 13
-0.4597477455336044
 23
0.1136607260738898
 33
1.10640538319445
  0
3DFACE
  5
7A1
  8
0
 10
-0.26
 20
0.1471892336110998
 30
1.1073214521477781
 11
-0.28
 21
0.1618291596419259
 31
1.1387168748366321
 12
-0.28
 22
0.1165137702900933
 32
1.1598477879236671
 13
-0.26
 23
0.1018738442592673
 33
1.1284523652348131
  0
3DFACE
  5
7A2
  8
0
 10
-0.28
 20
0.1618291596419259
 30
1.1387168748366321
 11
-0.32
 21
0.1618291596419259
 31
1.1387168748366321
 12
-0.32
 22
0.1165137702900933
 32
1.1598477879236671
 13
-0.28
 23
0.1165137702900933
 33
1.1598477879236671
  0
3DFACE
  5
7A3
  8
0
 10
-0.32
 20
0.1618291596419259
 30
1.1387168748366321
 11
-0.3399999999999999
 21
0.1471892336110998
 31
1.1073214521477781
 12
-0.3399999999999999
 22
0.1018738442592673
 32
1.1284523652348131
 13
-0.32
 23
0.1165137702900933
 33
1.1598477879236671
  0
3DFACE
  5
7A4
  8
0
 10
-0.3399999999999999
 20
0.1471892336110998
 30
1.1073214521477781
 11
-0.32
 21
0.1325493075802728
 31
1.0759260294589219
 12
-0.32
 22
0.0872339182284403
 32
1.0970569425459571
 13
-0.3399999999999999
 23
0.1018738442592673
 33
1.1284523652348131
  0
3DFACE
  5
7A5
  8
0
 10
-0.32
 20
0.1325493075802728
 30
1.0759260294589219
 11
-0.28
 21
0.1325493075802728
 31
1.0759260294589219
 12
-0.28
 22
0.0872339182284403
 32
1.0970569425459571
 13
-0.32
 23
0.0872339182284403
 33
1.0970569425459571
  0
3DFACE
  5
7A6
  8
0
 10
-0.28
 20
0.1325493075802728
 30
1.0759260294589219
 11
-0.26
 21
0.1471892336110998
 31
1.1073214521477781
 12
-0.26
 22
0.1018738442592673
 32
1.1284523652348131
 13
-0.28
 23
0.0872339182284403
 33
1.0970569425459571
  0
3DFACE
  5
7A7
  8
0
 10
-0.28
 20
0.1165137702900933
 30
1.1598477879236671
 11
-0.32
 21
0.1165137702900933
 31
1.1598477879236671
 12
-0.3399999999999999
 22
0.1018738442592673
 32
1.1284523652348131
 13
-0.26
 23
0.1018738442592673
 33
1.1284523652348131
  0
3DFACE
  5
7A8
  8
0
 10
-0.26
 20
0.1018738442592673
 30
1.1284523652348131
 11
-0.3399999999999999
 21
0.1018738442592673
 31
1.1284523652348131
 12
-0.32
 22
0.0872339182284403
 32
1.0970569425459571
 13
-0.28
 23
0.0872339182284403
 33
1.0970569425459571
  0
3DFACE
  5
7B7
  8
0
 10
-0.28
 20
0.8359831517589536
 30
0.7861315732248473
 11
-0.3
 21
0.8444355169937672
 31
0.8042577289655792
 12
-0.3
 22
0.1556415988459134
 32
1.1254476078885101
 13
-0.28
 23
0.1471892336110998
 33
1.1073214521477781
  0
3DFACE
  5
7B8
  8
0
 10
-0.3
 20
0.8444355169937672
 30
0.8042577289655792
 11
-0.32
 21
0.8359831517589536
 31
0.7861315732248473
 12
-0.32
 22
0.1471892336110998
 32
1.1073214521477781
 13
-0.3
 23
0.1556415988459134
 33
1.1254476078885101
  0
3DFACE
  5
7B9
  8
0
 10
-0.32
 20
0.8359831517589536
 30
0.7861315732248473
 11
-0.3
 21
0.8275307865241391
 31
0.7680054174841136
 12
-0.3
 22
0.1387368683762853
 32
1.0891952964070439
 13
-0.32
 23
0.1471892336110998
 33
1.1073214521477781
  0
3DFACE
  5
7BA
  8
0
 10
-0.3
 20
0.8275307865241391
 30
0.7680054174841136
 11
-0.28
 21
0.8359831517589536
 31
0.7861315732248473
 12
-0.28
 22
0.1471892336110998
 32
1.1073214521477781
 13
-0.3
 23
0.1387368683762853
 33
1.0891952964070439
  0
3DFACE
  5
7BE
  8
0
 10
0.3900000000000003
 20
1.7299999999999991
 30
0.45
 11
0.6700000000000002
 21
1.7299999999999991
 31
0.45
 12
0.6700000000000002
 22
1.7299999999999991
 32
0.5200000000000001
 13
0.3900000000000003
 23
1.7299999999999991
 33
0.5200000000000001
  0
3DFACE
  5
7BF
  8
0
 10
0.6700000000000002
 20
1.74
 30
0.5200000000000001
 11
0.6700000000000002
 21
1.74
 31
0.45
 12
0.3900000000000003
 22
1.74
 32
0.45
 13
0.3900000000000003
 23
1.74
 33
0.5200000000000001
  0
3DFACE
  5
7C0
  8
0
 10
0.6700000000000002
 20
1.7299999999999991
 30
0.5200000000000001
 11
0.6700000000000002
 21
1.7299999999999991
 31
0.45
 12
0.6700000000000002
 22
1.74
 32
0.45
 13
0.6700000000000002
 23
1.74
 33
0.5200000000000001
  0
3DFACE
  5
7C1
  8
0
 10
0.3900000000000003
 20
1.74
 30
0.5200000000000001
 11
0.3900000000000003
 21
1.74
 31
0.45
 12
0.3900000000000003
 22
1.7299999999999991
 32
0.45
 13
0.3900000000000003
 23
1.7299999999999991
 33
0.5200000000000001
  0
3DFACE
  5
7C3
  8
0
 10
0.3900000000000003
 20
1.7299999999999991
 30
0.5200000000000001
 11
0.6700000000000002
 21
1.7299999999999991
 31
0.5200000000000001
 12
0.6700000000000002
 22
1.74
 32
0.5200000000000001
 13
0.3900000000000003
 23
1.74
 33
0.5200000000000001
  0
3DFACE
  5
7C9
  8
0
 10
-0.5300000000000001
 20
0.3499999999999996
 30
1.0800000000000001
 11
-0.5361111111111113
 21
0.31
 31
1.0800000000000001
 12
-0.5361111111111113
 22
0.31
 32
1.2299999999999991
 13
-0.5300000000000001
 23
0.3499999999999996
 33
1.2299999999999991
  0
3DFACE
  5
7CA
  8
0
 10
0.5361111111111113
 20
0.31
 30
1.2299999999999991
 11
0.5361111111111113
 21
0.31
 31
1.0800000000000001
 12
0.5300000000000001
 22
0.35
 32
1.0800000000000001
 13
0.5300000000000001
 23
0.35
 33
1.2299999999999991
  0
3DFACE
  5
7CB
  8
0
 10
-0.5361111111111113
 20
0.31
 30
1.2299999999999991
 11
-0.5361111111111113
 21
0.31
 31
1.0800000000000001
 12
0.5361111111111113
 22
0.31
 32
1.0800000000000001
 13
0.5361111111111113
 23
0.31
 33
1.2299999999999991
  0
3DFACE
  5
7CC
  8
0
 10
0.5300000000000001
 20
0.35
 30
1.2299999999999991
 11
0.01
 21
0.35
 31
1.1899999999999991
 12
-0.01
 22
0.35
 32
1.1899999999999991
 13
-0.5300000000000001
 23
0.3499999999999996
 33
1.2299999999999991
  0
3DFACE
  5
7CE
  8
0
 10
-0.5
 20
0.3499999999999996
 30
1.2299999999999991
 11
-0.5
 21
0.31
 31
1.2299999999999991
 12
0.5
 22
0.31
 32
1.2299999999999991
 13
0.5
 23
0.35
 33
1.2299999999999991
  0
3DFACE
  5
7D3
  8
0
 10
-0.01
 20
0.35
 30
1.1899999999999991
 11
-0.5300000000000001
 21
0.35
 31
1.1100000000000001
 12
-0.5300000000000001
 22
0.3499999999999996
 32
1.2299999999999991
 13
-0.01
 23
0.35
 33
1.1899999999999991
  0
3DFACE
  5
7D4
  8
0
 10
0.5300000000000001
 20
0.35
 30
1.2299999999999991
 11
0.5300000000000001
 21
0.35
 31
1.1100000000000001
 12
0.01
 22
0.35
 32
1.1899999999999991
 13
0.01
 23
0.35
 33
1.1899999999999991
  0
3DFACE
  5
7D7
  8
0
 10
0.5
 20
0.3499999999999996
 30
1.2299999999999991
 11
0.5
 21
0.31
 31
1.2299999999999991
 12
0.5
 22
0.25
 32
1.4599999999999991
 13
0.5
 23
0.29
 33
1.4599999999999991
  0
3DFACE
  5
7D8
  8
0
 10
0.5300000000000001
 20
0.25
 30
1.4599999999999991
 11
0.5361111111111113
 21
0.31
 31
1.2299999999999991
 12
0.5300000000000001
 22
0.3499999999999996
 32
1.2299999999999991
 13
0.5300000000000001
 23
0.29
 33
1.4599999999999991
  0
3DFACE
  5
7D9
  8
0
 10
0.5
 20
0.25
 30
1.4599999999999991
 11
0.5
 21
0.31
 31
1.2299999999999991
 12
0.5361111111111113
 22
0.31
 32
1.2299999999999991
 13
0.5300000000000001
 23
0.25
 33
1.4599999999999991
  0
3DFACE
  5
7DA
  8
0
 10
0.5300000000000001
 20
0.29
 30
1.4599999999999991
 11
0.5300000000000001
 21
0.3499999999999996
 31
1.2299999999999991
 12
0.5
 22
0.3499999999999996
 32
1.2299999999999991
 13
0.5
 23
0.29
 33
1.4599999999999991
  0
3DFACE
  5
7DF
  8
0
 10
-0.5300000000000001
 20
0.25
 30
1.4599999999999991
 11
0.5300000000000001
 21
0.25
 31
1.4599999999999991
 12
0.5300000000000001
 22
0.25
 32
1.5
 13
-0.5300000000000001
 23
0.25
 33
1.5
  0
3DFACE
  5
7E0
  8
0
 10
-0.5300000000000001
 20
0.29
 30
1.5
 11
0.5300000000000001
 21
0.29
 31
1.5
 12
0.5300000000000001
 22
0.29
 32
1.4599999999999991
 13
-0.5300000000000001
 23
0.29
 33
1.4599999999999991
  0
3DFACE
  5
7E1
  8
0
 10
-0.5300000000000001
 20
0.25
 30
1.5
 11
0.5300000000000001
 21
0.25
 31
1.5
 12
0.5300000000000001
 22
0.29
 32
1.5
 13
-0.5300000000000001
 23
0.29
 33
1.5
  0
3DFACE
  5
7E2
  8
0
 10
0.5
 20
0.29
 30
1.4599999999999991
 11
0.5
 21
0.25
 31
1.4599999999999991
 12
-0.5
 22
0.25
 32
1.4599999999999991
 13
-0.5
 23
0.29
 33
1.4599999999999991
  0
3DFACE
  5
7E3
  8
0
 10
0.5300000000000001
 20
0.29
 30
1.5
 11
0.5300000000000001
 21
0.25
 31
1.5
 12
0.5300000000000001
 22
0.25
 32
1.4599999999999991
 13
0.5300000000000001
 23
0.29
 33
1.4599999999999991
  0
3DFACE
  5
7E4
  8
0
 10
-0.5300000000000001
 20
0.29
 30
1.4599999999999991
 11
-0.5300000000000001
 21
0.25
 31
1.4599999999999991
 12
-0.5300000000000001
 22
0.25
 32
1.5
 13
-0.5300000000000001
 23
0.29
 33
1.5
  0
3DFACE
  5
7E6
  8
0
 10
-0.5
 20
0.29
 30
1.4599999999999991
 11
-0.5
 21
0.3499999999999996
 31
1.2299999999999991
 12
-0.5300000000000001
 22
0.3499999999999996
 32
1.2299999999999991
 13
-0.5300000000000001
 23
0.29
 33
1.4599999999999991
  0
3DFACE
  5
7E7
  8
0
 10
-0.5300000000000001
 20
0.25
 30
1.4599999999999991
 11
-0.5361111111111113
 21
0.31
 31
1.2299999999999991
 12
-0.5
 22
0.31
 32
1.2299999999999991
 13
-0.5
 23
0.25
 33
1.4599999999999991
  0
3DFACE
  5
7E8
  8
0
 10
-0.5
 20
0.25
 30
1.4599999999999991
 11
-0.5
 21
0.31
 31
1.2299999999999991
 12
-0.5
 22
0.3499999999999996
 32
1.2299999999999991
 13
-0.5
 23
0.29
 33
1.4599999999999991
  0
3DFACE
  5
7E9
  8
0
 10
-0.5300000000000001
 20
0.3499999999999996
 30
1.2299999999999991
 11
-0.5361111111111113
 21
0.31
 31
1.2299999999999991
 12
-0.5300000000000001
 22
0.25
 32
1.4599999999999991
 13
-0.5300000000000001
 23
0.29
 33
1.4599999999999991
  0
3DFACE
  5
843
  8
0
 10
0.5
 20
-1.3384523652348139
 30
1.538126155740732
 11
0.5
 21
-1.311873844259267
 31
1.5284523652348141
 12
-0.5
 22
-1.311873844259267
 32
1.5284523652348141
 13
-0.5
 23
-1.3384523652348139
 33
1.538126155740732
  0
3DFACE
  5
844
  8
0
 10
0.5
 20
-1.311873844259267
 30
1.5284523652348141
 11
0.5
 21
-1.321547634765186
 31
1.5018738442592661
 12
-0.5
 22
-1.321547634765186
 32
1.5018738442592661
 13
-0.5
 23
-1.311873844259267
 33
1.5284523652348141
  0
3DFACE
  5
845
  8
0
 10
0.5
 20
-1.321547634765186
 30
1.5018738442592661
 11
0.5
 21
-1.3481261557407329
 31
1.5115476347651851
 12
-0.5
 22
-1.3481261557407329
 32
1.5115476347651851
 13
-0.5
 23
-1.321547634765186
 33
1.5018738442592661
  0
3DFACE
  5
846
  8
0
 10
0.5
 20
-1.3481261557407329
 30
1.5115476347651851
 11
0.5
 21
-1.3384523652348139
 31
1.538126155740732
 12
-0.5
 22
-1.3384523652348139
 32
1.538126155740732
 13
-0.5
 23
-1.3481261557407329
 33
1.5115476347651851
  0
3DFACE
  5
847
  8
0
 10
-0.5
 20
-1.3384523652348139
 30
1.538126155740732
 11
-0.5
 21
-1.311873844259267
 31
1.5284523652348141
 12
-0.6600000000000001
 22
-1.2822905659374171
 32
1.465010820142248
 13
-0.6800000000000001
 23
-1.3088690869129651
 33
1.474684610648167
  0
3DFACE
  5
848
  8
0
 10
-0.5
 20
-1.311873844259267
 30
1.5284523652348141
 11
-0.5
 21
-1.321547634765186
 31
1.5018738442592661
 12
-0.6400000000000001
 22
-1.296190539060744
 32
1.4474953770370671
 13
-0.6600000000000001
 23
-1.2822905659374171
 33
1.465010820142248
  0
3DFACE
  5
849
  8
0
 10
-0.5
 20
-1.321547634765186
 30
1.5018738442592661
 11
-0.5
 21
-1.3481261557407329
 31
1.5115476347651851
 12
-0.6600000000000001
 22
-1.3185428774188841
 32
1.4481060896726199
 13
-0.6400000000000001
 23
-1.296190539060744
 33
1.4474953770370671
  0
3DFACE
  5
84A
  8
0
 10
-0.5
 20
-1.3481261557407329
 30
1.5115476347651851
 11
-0.5
 21
-1.3384523652348139
 31
1.538126155740732
 12
-0.6800000000000001
 22
-1.3088690869129651
 32
1.474684610648167
 13
-0.6600000000000001
 23
-1.3185428774188841
 33
1.4481060896726199
  0
3DFACE
  5
84B
  8
0
 10
0.5
 20
-1.3384523652348139
 30
1.538126155740732
 11
0.5
 21
-1.3481261557407329
 31
1.5115476347651851
 12
0.6600000000000001
 22
-1.3185428774188841
 32
1.4481060896726199
 13
0.6800000000000001
 23
-1.3088690869129651
 33
1.474684610648167
  0
3DFACE
  5
84C
  8
0
 10
0.5
 20
-1.3481261557407329
 30
1.5115476347651851
 11
0.5
 21
-1.321547634765186
 31
1.5018738442592661
 12
0.6400000000000001
 22
-1.296190539060744
 32
1.4474953770370671
 13
0.6600000000000001
 23
-1.3185428774188841
 33
1.4481060896726199
  0
3DFACE
  5
84D
  8
0
 10
0.5
 20
-1.321547634765186
 30
1.5018738442592661
 11
0.5
 21
-1.311873844259267
 31
1.5284523652348141
 12
0.6600000000000001
 22
-1.2822905659374171
 32
1.465010820142248
 13
0.6400000000000001
 23
-1.296190539060744
 33
1.4474953770370671
  0
3DFACE
  5
84E
  8
0
 10
0.5
 20
-1.311873844259267
 30
1.5284523652348141
 11
0.5
 21
-1.3384523652348139
 31
1.538126155740732
 12
0.6800000000000001
 22
-1.3088690869129651
 32
1.474684610648167
 13
0.6600000000000001
 23
-1.2822905659374171
 33
1.465010820142248
  0
3DFACE
  5
84F
  8
0
 10
-0.6400000000000001
 20
-1.1000000000000001
 30
1.0800000000000001
 11
-0.6600000000000001
 21
-1.0800000000000001
 31
1.0800000000000001
 12
-0.6800000000000001
 22
-1.3088690869129651
 32
1.474684610648167
 13
-0.6600000000000001
 23
-1.3185428774188841
 33
1.4481060896726199
  0
3DFACE
  5
850
  8
0
 10
-0.6600000000000001
 20
-1.0800000000000001
 30
1.0800000000000001
 11
-0.6800000000000001
 21
-1.1000000000000001
 31
1.0800000000000001
 12
-0.6600000000000001
 22
-1.2822905659374171
 32
1.465010820142248
 13
-0.6800000000000001
 23
-1.3088690869129651
 33
1.474684610648167
  0
3DFACE
  5
851
  8
0
 10
-0.6800000000000001
 20
-1.1000000000000001
 30
1.0800000000000001
 11
-0.6600000000000001
 21
-1.1200000000000001
 31
1.0800000000000001
 12
-0.6400000000000001
 22
-1.296190539060744
 32
1.4474953770370671
 13
-0.6600000000000001
 23
-1.2822905659374171
 33
1.465010820142248
  0
3DFACE
  5
852
  8
0
 10
-0.6600000000000001
 20
-1.1200000000000001
 30
1.0800000000000001
 11
-0.6400000000000001
 21
-1.1000000000000001
 31
1.0800000000000001
 12
-0.6600000000000001
 22
-1.3185428774188841
 32
1.4481060896726199
 13
-0.6400000000000001
 23
-1.296190539060744
 33
1.4474953770370671
  0
3DFACE
  5
853
  8
0
 10
0.6800000000000001
 20
-1.1000000000000001
 30
1.0800000000000001
 11
0.6600000000000001
 21
-1.0800000000000001
 31
1.0800000000000001
 12
0.6800000000000001
 22
-1.3088690869129651
 32
1.474684610648167
 13
0.6600000000000001
 23
-1.2822905659374171
 33
1.465010820142248
  0
3DFACE
  5
854
  8
0
 10
0.6600000000000001
 20
-1.0800000000000001
 30
1.0800000000000001
 11
0.6400000000000001
 21
-1.1000000000000001
 31
1.0800000000000001
 12
0.6600000000000001
 22
-1.3185428774188841
 32
1.4481060896726199
 13
0.6800000000000001
 23
-1.3088690869129651
 33
1.474684610648167
  0
3DFACE
  5
855
  8
0
 10
0.6400000000000001
 20
-1.1000000000000001
 30
1.0800000000000001
 11
0.6600000000000001
 21
-1.1200000000000001
 31
1.0800000000000001
 12
0.6400000000000001
 22
-1.296190539060744
 32
1.4474953770370671
 13
0.6600000000000001
 23
-1.3185428774188841
 33
1.4481060896726199
  0
3DFACE
  5
856
  8
0
 10
0.6600000000000001
 20
-1.1200000000000001
 30
1.0800000000000001
 11
0.6800000000000001
 21
-1.1000000000000001
 31
1.0800000000000001
 12
0.6600000000000001
 22
-1.2822905659374171
 32
1.465010820142248
 13
0.6400000000000001
 23
-1.296190539060744
 33
1.4474953770370671
  0
3DFACE
  5
857
  8
0
 10
-0.6400000000000001
 20
-1.1000000000000001
 30
1.01
 11
-0.6600000000000001
 21
-1.0800000000000001
 31
1.01
 12
-0.6600000000000001
 22
-1.0800000000000001
 32
1.0800000000000001
 13
-0.6400000000000001
 23
-1.1000000000000001
 33
1.0800000000000001
  0
3DFACE
  5
858
  8
0
 10
-0.6600000000000001
 20
-1.0800000000000001
 30
1.01
 11
-0.6800000000000001
 21
-1.1000000000000001
 31
1.01
 12
-0.6800000000000001
 22
-1.1000000000000001
 32
1.0800000000000001
 13
-0.6600000000000001
 23
-1.0800000000000001
 33
1.0800000000000001
  0
3DFACE
  5
859
  8
0
 10
-0.6800000000000001
 20
-1.1000000000000001
 30
1.01
 11
-0.6600000000000001
 21
-1.1200000000000001
 31
1.01
 12
-0.6600000000000001
 22
-1.1200000000000001
 32
1.0800000000000001
 13
-0.6800000000000001
 23
-1.1000000000000001
 33
1.0800000000000001
  0
3DFACE
  5
85A
  8
0
 10
-0.6600000000000001
 20
-1.1200000000000001
 30
1.01
 11
-0.6400000000000001
 21
-1.1000000000000001
 31
1.01
 12
-0.6400000000000001
 22
-1.1000000000000001
 32
1.0800000000000001
 13
-0.6600000000000001
 23
-1.1200000000000001
 33
1.0800000000000001
  0
3DFACE
  5
85B
  8
0
 10
0.6800000000000001
 20
-1.1000000000000001
 30
1.01
 11
0.6600000000000001
 21
-1.0800000000000001
 31
1.01
 12
0.6600000000000001
 22
-1.0800000000000001
 32
1.0800000000000001
 13
0.6800000000000001
 23
-1.1000000000000001
 33
1.0800000000000001
  0
3DFACE
  5
85C
  8
0
 10
0.6600000000000001
 20
-1.0800000000000001
 30
1.01
 11
0.6400000000000001
 21
-1.1000000000000001
 31
1.01
 12
0.6400000000000001
 22
-1.1000000000000001
 32
1.0800000000000001
 13
0.6600000000000001
 23
-1.0800000000000001
 33
1.0800000000000001
  0
3DFACE
  5
85D
  8
0
 10
0.6400000000000001
 20
-1.1000000000000001
 30
1.01
 11
0.6600000000000001
 21
-1.1200000000000001
 31
1.01
 12
0.6600000000000001
 22
-1.1200000000000001
 32
1.0800000000000001
 13
0.6400000000000001
 23
-1.1000000000000001
 33
1.0800000000000001
  0
3DFACE
  5
85E
  8
0
 10
0.6600000000000001
 20
-1.1200000000000001
 30
1.01
 11
0.6800000000000001
 21
-1.1000000000000001
 31
1.01
 12
0.6800000000000001
 22
-1.1000000000000001
 32
1.0800000000000001
 13
0.6600000000000001
 23
-1.1200000000000001
 33
1.0800000000000001
  0
VIEWPORT
  5
2E
 67
     1
  8
0
 10
144.7270812988281
 20
101.2295806407928
 30
0.0
 40
391.13550988316581
 41
222.15178063964839
 68
     2
 69
     1
1001
ACAD
1000
MVIEW
1002
{
1070
    16
1010
0.0
1020
0.0
1030
0.0
1010
0.0
1020
0.0
1030
1.0
1040
0.0
1040
222.15178063964839
1040
144.7270812988281
1040
101.2295806407928
1040
50.0
1040
0.0
1040
0.0
1070
     0
1070
   100
1070
     1
1070
     1
1070
     0
1070
     0
1070
     0
1070
     0
1040
0.0
1040
0.0
1040
0.0
1040
10.0
1040
10.0
1040
10.0
1040
10.0
1070
     0
1002
{
1002
}
1002
}
  0
VIEWPORT
  5
30
 67
     1
  8
0
 10
139.22375631332389
 20
100.8062499761581
 30
0.0
 40
222.75801010131829
 41
161.289999961853
 68
     1
 69
     2
1001
ACAD
1000
MVIEW
1002
{
1070
    16
1010
0.0
1020
0.0
1030
0.0
1010
0.0
1020
0.0
1030
1.0
1040
0.0
1040
307.49010134148989
1040
210.0
1040
148.5
1040
50.0
1040
0.0
1040
0.0
1070
     0
1070
   100
1070
     1
1070
     3
1070
     0
1070
     1
1070
     0
1070
     0
1040
0.0
1040
0.0
1040
0.0
1040
10.0
1040
10.0
1040
10.0
1040
10.0
1070
     0
1002
{
1002
}
1002
}
  0
ENDSEC
  0
EOF
