  0
SECTION
  2
HEADER
  9
$ACADVER
  1
AC1009
  9
$INSBASE
 10
0.0
 20
0.0
 30
0.0
  9
$EXTMIN
 10
-1.222522024977698
 20
-18.0
 30
-0.0299999999999998
  9
$EXTMAX
 10
1.2199999999999991
 20
2.2199999999999989
 30
6.098193330519206
  9
$LIMMIN
 10
0.0
 20
0.0
  9
$LIMMAX
 10
420.0
 20
297.0
  9
$ORTHOMODE
 70
     1
  9
$REGENMODE
 70
     1
  9
$FILLMODE
 70
     1
  9
$QTEXTMODE
 70
     0
  9
$MIRRTEXT
 70
     1
  9
$DRAGMODE
 70
     2
  9
$LTSCALE
 40
1.0
  9
$OSMODE
 70
   559
  9
$ATTMODE
 70
     1
  9
$TEXTSIZE
 40
2.5
  9
$TRACEWID
 40
1.0
  9
$TEXTSTYLE
  7
STANDARD
  9
$CLAYER
  8
MUDGUARD
  9
$CELTYPE
  6
BYLAYER
  9
$CECOLOR
 62
   256
  9
$DIMSCALE
 40
1.0
  9
$DIMASZ
 40
2.5
  9
$DIMEXO
 40
0.625
  9
$DIMDLI
 40
3.75
  9
$DIMRND
 40
0.0
  9
$DIMDLE
 40
0.0
  9
$DIMEXE
 40
1.25
  9
$DIMTP
 40
0.0
  9
$DIMTM
 40
0.0
  9
$DIMTXT
 40
2.5
  9
$DIMCEN
 40
2.5
  9
$DIMTSZ
 40
0.0
  9
$DIMTOL
 70
     0
  9
$DIMLIM
 70
     0
  9
$DIMTIH
 70
     0
  9
$DIMTOH
 70
     0
  9
$DIMSE1
 70
     0
  9
$DIMSE2
 70
     0
  9
$DIMTAD
 70
     1
  9
$DIMZIN
 70
     8
  9
$DIMBLK
  1

  9
$DIMASO
 70
     1
  9
$DIMSHO
 70
     1
  9
$DIMPOST
  1

  9
$DIMAPOST
  1

  9
$DIMALT
 70
     0
  9
$DIMALTD
 70
     3
  9
$DIMALTF
 40
0.03937007874016
  9
$DIMLFAC
 40
1.0
  9
$DIMTOFL
 70
     1
  9
$DIMTVP
 40
0.0
  9
$DIMTIX
 70
     0
  9
$DIMSOXD
 70
     0
  9
$DIMSAH
 70
     0
  9
$DIMBLK1
  1

  9
$DIMBLK2
  1

  9
$DIMSTYLE
  2
ISO-25
  9
$DIMCLRD
 70
     0
  9
$DIMCLRE
 70
     0
  9
$DIMCLRT
 70
     0
  9
$DIMTFAC
 40
1.0
  9
$DIMGAP
 40
0.625
  9
$LUNITS
 70
     2
  9
$LUPREC
 70
     4
  9
$SKETCHINC
 40
1.0
  9
$FILLETRAD
 40
10.0
  9
$AUNITS
 70
     0
  9
$AUPREC
 70
     0
  9
$MENU
  1
.
  9
$ELEVATION
 40
0.0
  9
$PELEVATION
 40
0.0
  9
$THICKNESS
 40
0.0
  9
$LIMCHECK
 70
     0
  9
$BLIPMODE
 70
     0
  9
$CHAMFERA
 40
10.0
  9
$CHAMFERB
 40
10.0
  9
$SKPOLY
 70
     0
  9
$TDCREATE
 40
2454401.6017654859
  9
$TDUPDATE
 40
2455254.950947789
  9
$TDINDWG
 40
0.1438592245
  9
$TDUSRTIMER
 40
0.1438592245
  9
$USRTIMER
 70
     1
  9
$ANGBASE
 50
0.0
  9
$ANGDIR
 70
     0
  9
$PDMODE
 70
     0
  9
$PDSIZE
 40
0.0
  9
$PLINEWID
 40
0.0
  9
$COORDS
 70
     1
  9
$SPLFRAME
 70
     0
  9
$SPLINETYPE
 70
     6
  9
$SPLINESEGS
 70
     8
  9
$ATTDIA
 70
     1
  9
$ATTREQ
 70
     1
  9
$HANDLING
 70
-16383
  9
$HANDSEED
  5
6D5
  9
$SURFTAB1
 70
     6
  9
$SURFTAB2
 70
     6
  9
$SURFTYPE
 70
     6
  9
$SURFU
 70
     6
  9
$SURFV
 70
     6
  9
$UCSNAME
  2

  9
$UCSORG
 10
0.0
 20
0.0
 30
0.0
  9
$UCSXDIR
 10
0.0
 20
-1.0
 30
0.0
  9
$UCSYDIR
 10
0.0
 20
0.0
 30
1.0
  9
$PUCSNAME
  2

  9
$PUCSORG
 10
0.0
 20
0.0
 30
0.0
  9
$PUCSXDIR
 10
1.0
 20
0.0
 30
0.0
  9
$PUCSYDIR
 10
0.0
 20
1.0
 30
0.0
  9
$USERI1
 70
     0
  9
$USERI2
 70
     0
  9
$USERI3
 70
     0
  9
$USERI4
 70
     0
  9
$USERI5
 70
     0
  9
$USERR1
 40
0.0
  9
$USERR2
 40
0.0
  9
$USERR3
 40
0.0
  9
$USERR4
 40
0.0
  9
$USERR5
 40
0.0
  9
$WORLDVIEW
 70
     1
  9
$SHADEDGE
 70
     3
  9
$SHADEDIF
 70
    70
  9
$TILEMODE
 70
     1
  9
$MAXACTVP
 70
    64
  9
$PLIMCHECK
 70
     0
  9
$PEXTMIN
 10
27.844751262664801
 20
20.161249995231621
 30
0.0
  9
$PEXTMAX
 10
250.60276136398309
 20
181.4512499570846
 30
0.0
  9
$PLIMMIN
 10
-3.757080078125
 20
-3.7570831775665279
  9
$PLIMMAX
 10
293.21124267578119
 20
206.21624445915219
  9
$UNITMODE
 70
     0
  9
$VISRETAIN
 70
     1
  9
$PLINEGEN
 70
     0
  9
$PSLTSCALE
 70
     1
  0
ENDSEC
  0
SECTION
  2
TABLES
  0
TABLE
  2
VPORT
 70
     2
  0
VPORT
  2
*ACTIVE
 70
     0
 10
0.0
 20
0.0
 11
1.0
 21
1.0
 12
4.7037686717409883
 22
2.5735370287993851
 13
0.0
 23
0.0
 14
0.01
 24
0.01
 15
1.0
 25
1.0
 16
-1.0
 26
0.0
 36
0.0
 17
0.0
 27
0.0
 37
0.0
 40
21.017939125817939
 41
1.716094032549728
 42
50.0
 43
0.0
 44
0.0
 50
0.0
 51
0.0
 71
     0
 72
   100
 73
     1
 74
     3
 75
     1
 76
     1
 77
     0
 78
     0
  0
ENDTAB
  0
TABLE
  2
LTYPE
 70
     1
  0
LTYPE
  2
CONTINUOUS
 70
     0
  3
Solid line
 72
    65
 73
     0
 40
0.0
  0
ENDTAB
  0
TABLE
  2
LAYER
 70
    10
  0
LAYER
  2
0
 70
     0
 62
     7
  6
CONTINUOUS
  0
LAYER
  2
DRAWING1
 70
     0
 62
     9
  6
CONTINUOUS
  0
LAYER
  2
DRAWING2
 70
     0
 62
     3
  6
CONTINUOUS
  0
LAYER
  2
MUDGUARD
 70
     0
 62
     5
  6
CONTINUOUS
  0
LAYER
  2
WHEELS
 70
     0
 62
     2
  6
CONTINUOUS
  0
LAYER
  2
TRACKS
 70
     0
 62
     8
  6
CONTINUOUS
  0
LAYER
  2
BALANCES
 70
     0
 62
     4
  6
CONTINUOUS
  0
LAYER
  2
TURRET
 70
     0
 62
     2
  6
CONTINUOUS
  0
LAYER
  2
BARREL
 70
     0
 62
     1
  6
CONTINUOUS
  0
LAYER
  2
LIGHT
 70
     0
 62
     2
  6
CONTINUOUS
  0
ENDTAB
  0
TABLE
  2
STYLE
 70
     1
  0
STYLE
  2
STANDARD
 70
     0
 40
0.0
 41
1.0
 50
0.0
 71
     0
 42
2.5
  3
txt
  4

  0
ENDTAB
  0
TABLE
  2
VIEW
 70
     0
  0
ENDTAB
  0
TABLE
  2
UCS
 70
     0
  0
ENDTAB
  0
TABLE
  2
APPID
 70
     1
  0
APPID
  2
ACAD
 70
     0
  0
ENDTAB
  0
TABLE
  2
DIMSTYLE
 70
     1
  0
DIMSTYLE
  2
ISO-25
 70
     0
  3

  4

  5

  6

  7

 40
1.0
 41
2.5
 42
0.625
 43
3.75
 44
1.25
 45
0.0
 46
0.0
 47
0.0
 48
0.0
140
2.5
141
2.5
142
0.0
143
0.03937007874016
144
1.0
145
0.0
146
1.0
147
0.625
 71
     0
 72
     0
 73
     0
 74
     0
 75
     0
 76
     0
 77
     1
 78
     8
170
     0
171
     3
172
     1
173
     0
174
     0
175
     0
176
     0
177
     0
178
     0
  0
ENDTAB
  0
ENDSEC
  0
SECTION
  2
BLOCKS
  0
BLOCK
  8
0
  2
$MODEL_SPACE
 70
     0
 10
0.0
 20
0.0
 30
0.0
  3
$MODEL_SPACE
  1

  0
ENDBLK
  5
21
  8
0
  0
BLOCK
 67
     1
  8
0
  2
$PAPER_SPACE
 70
     0
 10
0.0
 20
0.0
 30
0.0
  3
$PAPER_SPACE
  1

  0
ENDBLK
  5
1D
 67
     1
  8
0
  0
ENDSEC
  0
SECTION
  2
ENTITIES
  0
3DFACE
  5
73
  8
0
 10
0.83
 20
-2.1200000000000001
 30
0.7600000000000003
 11
0.83
 21
-1.99
 31
0.3799999999999999
 12
0.83
 22
1.6799999999999999
 32
0.3799999999999999
 13
0.83
 23
2.0699999999999998
 33
0.7600000000000003
  0
3DFACE
  5
74
  8
0
 10
-0.83
 20
-2.1200000000000001
 30
0.7600000000000003
 11
-0.83
 21
-1.99
 31
0.3799999999999999
 12
0.83
 22
-1.99
 32
0.3799999999999999
 13
0.83
 23
-2.1200000000000001
 33
0.7600000000000003
  0
3DFACE
  5
75
  8
0
 10
0.83
 20
2.0699999999999998
 30
0.7600000000000003
 11
0.83
 21
1.6799999999999999
 31
0.3799999999999999
 12
-0.83
 22
1.6799999999999999
 32
0.3799999999999999
 13
-0.83
 23
2.0699999999999998
 33
0.7600000000000003
  0
3DFACE
  5
76
  8
0
 10
-0.83
 20
1.6799999999999999
 30
0.3799999999999999
 11
-0.83
 21
-1.99
 31
0.3799999999999999
 12
-0.83
 22
-2.1200000000000001
 32
0.7600000000000003
 13
-0.83
 23
2.0699999999999998
 33
0.7600000000000003
  0
3DFACE
  5
77
  8
0
 10
0.83
 20
1.6799999999999999
 30
0.3799999999999999
 11
0.83
 21
-1.99
 31
0.3799999999999999
 12
-0.83
 22
-1.99
 32
0.3799999999999999
 13
-0.83
 23
1.6799999999999999
 33
0.3799999999999999
  0
3DFACE
  5
7A
  8
0
 10
-0.83
 20
2.0699999999999998
 30
0.7600000000000003
 11
-0.83
 21
0.84
 31
0.7600000000000003
 12
-0.83
 22
0.84
 32
1.139999999999999
 13
-0.83
 23
2.1099999999999999
 33
0.8799999999999998
  0
3DFACE
  5
7C
  8
0
 10
0.83
 20
0.84
 30
1.139999999999999
 11
0.83
 21
0.84
 31
0.7600000000000003
 12
0.83
 22
2.0699999999999998
 32
0.7600000000000003
 13
0.83
 23
2.1099999999999999
 33
0.8799999999999998
  0
3DFACE
  5
7D
  8
0
 10
0.83
 20
2.1099999999999999
 30
0.8799999999999998
 11
0.83
 21
2.0699999999999998
 31
0.7600000000000003
 12
-0.83
 22
2.0699999999999998
 32
0.7600000000000003
 13
-0.83
 23
2.1099999999999999
 33
0.8799999999999998
  0
3DFACE
  5
7F
  8
0
 10
-0.83
 20
2.1099999999999999
 30
0.8799999999999998
 11
0.1699999999999999
 21
1.02
 31
1.1031496062992101
 12
0.7799999999999999
 22
1.02
 32
1.1031496062992101
 13
0.83
 23
2.1099999999999999
 33
0.8799999999999998
  0
3DFACE
  5
8A
  8
0
 10
-0.83
 20
0.84
 30
0.7600000000000003
 11
-0.83
 21
-0.73
 31
0.7600000000000003
 12
-0.83
 22
-0.73
 32
1.139999999999999
 13
-0.83
 23
0.84
 33
1.139999999999999
  0
3DFACE
  5
8C
  8
0
 10
0.83
 20
-0.73
 30
1.139999999999999
 11
0.83
 21
-0.73
 31
0.7600000000000003
 12
0.83
 22
0.84
 32
0.7600000000000003
 13
0.83
 23
0.84
 33
1.139999999999999
  0
3DFACE
  5
8F
  8
0
 10
-0.83
 20
0.84
 30
1.139999999999999
 11
-0.7900000000000003
 21
0.8100000000000001
 31
1.139999999999999
 12
0.1700000000000004
 22
0.8100000000000001
 32
1.1399999999999979
 13
0.1700000000000004
 23
0.84
 33
1.139999999999999
  0
3DFACE
  5
91
  8
0
 10
-0.83
 20
-0.73
 30
0.7600000000000003
 11
-0.83
 21
-2.1200000000000001
 31
0.7600000000000003
 12
-0.83
 22
-2.1200000000000001
 32
0.8900000000000002
 13
-0.83
 23
-0.73
 33
1.139999999999999
  0
3DFACE
  5
92
  8
0
 10
-0.83
 20
-2.1200000000000001
 30
0.8900000000000002
 11
-0.83
 21
-2.1200000000000001
 31
0.7600000000000003
 12
0.83
 22
-2.1200000000000001
 32
0.7600000000000003
 13
0.83
 23
-2.1200000000000001
 33
0.8900000000000002
  0
3DFACE
  5
93
  8
0
 10
0.83
 20
-2.1200000000000001
 30
0.8900000000000002
 11
0.83
 21
-2.1200000000000001
 31
0.7600000000000003
 12
0.83
 22
-0.73
 32
0.7600000000000003
 13
0.83
 23
-0.73
 33
1.139999999999999
  0
3DFACE
  5
96
  8
0
 10
-0.5400000000000002
 20
-1.419999999999999
 30
1.0158992805755389
 11
0.23
 21
-1.7599999999999989
 31
0.9547482014388489
 12
0.83
 22
-1.7599999999999989
 32
0.9547482014388489
 13
0.4
 23
-1.419999999999999
 33
1.0158992805755389
  0
3DFACE
  5
98
  8
0
 10
0.7799999999999998
 20
0.5900000000000001
 30
1.4899999999999991
 11
0.7799999999999998
 21
0.5900000000000001
 31
1.4899999999999991
 12
0.9300000000000001
 22
0.6600000000000003
 32
1.1399999999999979
 13
0.79
 23
0.8100000000000001
 33
1.1399999999999979
  0
3DFACE
  5
9A
  8
0
 10
-0.9300000000000004
 20
0.6600000000000003
 30
1.139999999999999
 11
-0.7900000000000003
 21
0.5900000000000001
 31
1.4899999999999991
 12
-0.7
 22
0.69
 32
1.4899999999999991
 13
-0.7900000000000003
 23
0.8100000000000001
 33
1.139999999999999
  0
3DFACE
  5
9B
  8
0
 10
-0.7900000000000003
 20
0.8100000000000001
 30
1.139999999999999
 11
-0.7
 21
0.69
 31
1.4899999999999991
 12
0.1700000000000004
 22
0.69
 32
1.49
 13
0.1700000000000004
 23
0.8100000000000003
 33
1.1399999999999979
  0
3DFACE
  5
9C
  8
0
 10
-0.7
 20
0.69
 30
1.4899999999999991
 11
-0.7900000000000003
 21
0.5900000000000001
 31
1.4899999999999991
 12
0.1700000000000004
 22
0.5900000000000001
 32
1.49
 13
0.1700000000000004
 23
0.69
 33
1.49
  0
3DFACE
  5
9F
  8
0
 10
-0.9300000000000004
 20
-0.44
 30
1.139999999999999
 11
-0.7900000000000003
 21
-0.44
 31
1.4899999999999991
 12
-0.7900000000000003
 22
0.5900000000000001
 32
1.4899999999999991
 13
-0.9300000000000004
 23
0.6600000000000003
 33
1.139999999999999
  0
3DFACE
  5
A0
  8
0
 10
0.7799999999999998
 20
0.5900000000000001
 30
1.4899999999999991
 11
0.7799999999999998
 21
-0.44
 31
1.4899999999999991
 12
0.9300000000000001
 22
-0.44
 32
1.1399999999999979
 13
0.9300000000000001
 23
0.6600000000000003
 33
1.1399999999999979
  0
3DFACE
  5
A1
  8
0
 10
-0.83
 20
0.7671428571428574
 30
1.139999999999999
 11
-0.83
 21
-0.6185714285714288
 31
1.139999999999999
 12
-0.9300000000000001
 22
-0.44
 32
1.139999999999999
 13
-0.9300000000000001
 23
0.6600000000000003
 33
1.139999999999999
  0
3DFACE
  5
A4
  8
0
 10
-0.7900000000000003
 20
0.5900000000000001
 30
1.4899999999999991
 11
-0.7900000000000003
 21
-0.44
 31
1.4899999999999991
 12
0.7799999999999998
 22
-0.44
 32
1.4899999999999991
 13
0.7799999999999998
 23
0.5900000000000001
 33
1.4899999999999991
  0
3DFACE
  5
A7
  8
0
 10
0.7799999999999998
 20
-0.44
 30
1.4899999999999991
 11
0.6099999999999998
 21
-0.69
 31
1.4899999999999991
 12
0.8099999999999999
 22
-0.69
 32
1.1399999999999979
 13
0.9300000000000001
 23
-0.44
 33
1.1399999999999979
  0
3DFACE
  5
A8
  8
0
 10
-0.7900000000000003
 20
-0.69
 30
1.139999999999999
 11
-0.6200000000000001
 21
-0.69
 31
1.4899999999999991
 12
-0.7900000000000003
 22
-0.44
 32
1.4899999999999991
 13
-0.9300000000000004
 23
-0.44
 33
1.139999999999999
  0
3DFACE
  5
AA
  8
0
 10
0.4
 20
-0.690000000000001
 30
1.339999999999999
 11
0.6099999999999998
 21
-0.69
 31
1.4899999999999991
 12
-0.6200000000000001
 22
-0.69
 32
1.4899999999999991
 13
-0.5400000000000002
 23
-0.690000000000001
 33
1.339999999999999
  0
3DFACE
  5
AB
  8
0
 10
-0.7900000000000003
 20
-0.44
 30
1.4899999999999991
 11
-0.6200000000000001
 21
-0.69
 31
1.4899999999999991
 12
0.6099999999999998
 22
-0.69
 32
1.4899999999999991
 13
0.7799999999999998
 23
-0.44
 33
1.4899999999999991
  0
3DFACE
  5
AD
  8
0
 10
0.1700000000000004
 20
0.8100000000000001
 30
1.49
 11
0.1700000000000004
 21
0.84
 31
1.1399999999999979
 12
0.1700000000000004
 22
0.8100000000000001
 32
1.139999999999999
 13
0.1700000000000004
 23
0.69
 33
1.49
  0
3DFACE
  5
AE
  8
0
 10
0.779999999999999
 20
0.5900000000000001
 30
1.49
 11
0.79
 21
0.8100000000000001
 31
1.1399999999999979
 12
0.779999999999999
 22
0.84
 32
1.1399999999999979
 13
0.779999999999999
 23
0.8100000000000001
 33
1.49
  0
3DFACE
  5
AF
  8
0
 10
0.779999999999999
 20
0.8100000000000001
 30
1.49
 11
0.779999999999999
 21
0.84
 31
1.1399999999999979
 12
0.1700000000000004
 22
0.84
 32
1.1399999999999979
 13
0.1700000000000004
 23
0.8100000000000001
 33
1.49
  0
3DFACE
  5
B2
  8
0
 10
0.1700000000000004
 20
0.5900000000000001
 30
1.49
 11
0.779999999999999
 21
0.5900000000000001
 31
1.49
 12
0.779999999999999
 22
0.8100000000000001
 32
1.49
 13
0.1700000000000004
 23
0.8100000000000001
 33
1.49
  0
3DFACE
  5
B4
  8
0
 10
0.1700000000000004
 20
0.9100000000000001
 30
1.1399999999999979
 11
0.17
 21
1.02
 31
1.1031496062992101
 12
0.1700000000000004
 22
0.84
 32
1.139999999999999
 13
0.1700000000000004
 23
0.84
 33
1.139999999999999
  0
3DFACE
  5
B5
  8
0
 10
0.779999999999999
 20
0.84
 30
1.1399999999999979
 11
0.779999999999999
 21
0.84
 31
1.1399999999999979
 12
0.7799999999999999
 22
1.02
 32
1.1031496062992101
 13
0.779999999999999
 23
0.9100000000000001
 33
1.1399999999999979
  0
3DFACE
  5
B6
  8
0
 10
0.779999999999999
 20
0.9100000000000001
 30
1.1399999999999979
 11
0.7799999999999999
 21
1.02
 31
1.1031496062992101
 12
0.17
 22
1.02
 32
1.1031496062992101
 13
0.1700000000000004
 23
0.9100000000000001
 33
1.1399999999999979
  0
3DFACE
  5
B9
  8
0
 10
0.1700000000000004
 20
0.84
 30
1.1399999999999979
 11
0.779999999999999
 21
0.84
 31
1.1399999999999979
 12
0.779999999999999
 22
0.9100000000000001
 32
1.1399999999999979
 13
0.1700000000000004
 23
0.9100000000000001
 33
1.1399999999999979
  0
3DFACE
  5
BB
  8
0
 10
0.9300000000000001
 20
0.6600000000000003
 30
1.1399999999999979
 11
0.9300000000000001
 21
-0.44
 31
1.1399999999999979
 12
0.83
 22
-0.648333333333333
 32
1.139999999999999
 13
0.83
 23
0.7671428571428571
 33
1.139999999999999
  0
3DFACE
  5
BC
  8
MUDGUARD
 10
-1.1699999999999999
 20
1.8700000000000001
 30
1.2099999999999991
 11
-1.1699999999999999
 21
-2.1600000000000001
 31
0.9
 12
-0.83
 22
-2.1600000000000001
 32
0.9
 13
-0.83
 23
1.8700000000000001
 33
1.2099999999999991
  0
3DFACE
  5
BD
  8
MUDGUARD
 10
-0.83
 20
1.8700000000000001
 30
1.2099999999999991
 11
-0.83
 21
-2.1600000000000001
 31
0.9
 12
-1.1699999999999999
 22
-2.1600000000000001
 32
0.9
 13
-1.1699999999999999
 23
1.8700000000000001
 33
1.2099999999999991
  0
3DFACE
  5
BF
  8
MUDGUARD
 10
-0.83
 20
2.0099999999999989
 30
1.2
 11
-0.83
 21
1.8700000000000001
 31
1.2099999999999991
 12
-1.1699999999999999
 22
1.8700000000000001
 32
1.2099999999999991
 13
-1.1699999999999999
 23
2.0099999999999989
 33
1.2
  0
3DFACE
  5
C0
  8
MUDGUARD
 10
-1.1699999999999999
 20
2.0099999999999989
 30
1.2
 11
-1.1699999999999999
 21
1.8700000000000001
 31
1.2099999999999991
 12
-0.83
 22
1.8700000000000001
 32
1.2099999999999991
 13
-0.83
 23
2.0099999999999989
 33
1.2
  0
3DFACE
  5
C1
  8
MUDGUARD
 10
-0.83
 20
2.2199999999999989
 30
1.04
 11
-0.83
 21
2.0099999999999998
 31
1.2
 12
-1.1699999999999999
 22
2.0099999999999998
 32
1.2
 13
-1.1699999999999999
 23
2.2199999999999989
 33
1.04
  0
3DFACE
  5
C2
  8
MUDGUARD
 10
-1.1699999999999999
 20
2.2199999999999989
 30
1.04
 11
-1.1699999999999999
 21
2.0099999999999998
 31
1.2
 12
-0.83
 22
2.0099999999999998
 32
1.2
 13
-0.83
 23
2.2199999999999989
 33
1.04
  0
3DFACE
  5
C3
  8
MUDGUARD
 10
-1.1699999999999999
 20
-2.1600000000000001
 30
0.9
 11
-1.1699999999999999
 21
-2.2999999999999989
 31
0.8700000000000001
 12
-0.83
 22
-2.2999999999999989
 32
0.8700000000000001
 13
-0.83
 23
-2.1600000000000001
 33
0.9
  0
3DFACE
  5
C4
  8
MUDGUARD
 10
-0.83
 20
-2.1600000000000001
 30
0.9
 11
-0.83
 21
-2.2999999999999989
 31
0.8700000000000001
 12
-1.1699999999999999
 22
-2.2999999999999989
 32
0.8700000000000001
 13
-1.1699999999999999
 23
-2.1600000000000001
 33
0.9
  0
3DFACE
  5
C5
  8
MUDGUARD
 10
-1.1699999999999999
 20
-2.2999999999999989
 30
0.8700000000000001
 11
-1.1699999999999999
 21
-2.4100000000000001
 31
0.7800000000000003
 12
-0.83
 22
-2.4100000000000001
 32
0.7800000000000003
 13
-0.83
 23
-2.2999999999999989
 33
0.8700000000000001
  0
3DFACE
  5
C6
  8
MUDGUARD
 10
-0.83
 20
-2.2999999999999989
 30
0.8700000000000001
 11
-0.83
 21
-2.4100000000000001
 31
0.7800000000000003
 12
-1.1699999999999999
 22
-2.4100000000000001
 32
0.7800000000000003
 13
-1.1699999999999999
 23
-2.2999999999999989
 33
0.8700000000000001
  0
3DFACE
  5
C7
  8
MUDGUARD
 10
1.1699999999999999
 20
1.8700000000000001
 30
1.2099999999999991
 11
1.1699999999999999
 21
-2.1600000000000001
 31
0.9
 12
0.8299999999999999
 22
-2.1600000000000001
 32
0.9
 13
0.8299999999999999
 23
1.8700000000000001
 33
1.2099999999999991
  0
3DFACE
  5
C8
  8
MUDGUARD
 10
0.8299999999999999
 20
1.8700000000000001
 30
1.2099999999999991
 11
0.8299999999999999
 21
-2.1600000000000001
 31
0.9
 12
1.1699999999999999
 22
-2.1600000000000001
 32
0.9
 13
1.1699999999999999
 23
1.8700000000000001
 33
1.2099999999999991
  0
3DFACE
  5
C9
  8
MUDGUARD
 10
1.1699999999999999
 20
-2.1600000000000001
 30
0.9
 11
1.1699999999999999
 21
-2.2999999999999989
 31
0.8700000000000001
 12
0.8299999999999999
 22
-2.2999999999999989
 32
0.8700000000000001
 13
0.8299999999999999
 23
-2.1600000000000001
 33
0.9
  0
3DFACE
  5
CA
  8
MUDGUARD
 10
0.8299999999999999
 20
-2.1600000000000001
 30
0.9
 11
0.8299999999999999
 21
-2.2999999999999989
 31
0.8700000000000001
 12
1.1699999999999999
 22
-2.2999999999999989
 32
0.8700000000000001
 13
1.1699999999999999
 23
-2.1600000000000001
 33
0.9
  0
3DFACE
  5
CB
  8
MUDGUARD
 10
1.1699999999999999
 20
-2.2999999999999989
 30
0.8700000000000001
 11
1.1699999999999999
 21
-2.4100000000000001
 31
0.7800000000000003
 12
0.8299999999999999
 22
-2.4100000000000001
 32
0.7800000000000003
 13
0.8299999999999999
 23
-2.2999999999999989
 33
0.8700000000000001
  0
3DFACE
  5
CC
  8
MUDGUARD
 10
0.8299999999999999
 20
-2.2999999999999989
 30
0.8700000000000001
 11
0.8299999999999999
 21
-2.4100000000000001
 31
0.7800000000000003
 12
1.1699999999999999
 22
-2.4100000000000001
 32
0.7800000000000003
 13
1.1699999999999999
 23
-2.2999999999999989
 33
0.8700000000000001
  0
3DFACE
  5
CD
  8
MUDGUARD
 10
0.8299999999999999
 20
2.2199999999999989
 30
1.04
 11
0.8299999999999999
 21
2.0099999999999998
 31
1.2
 12
1.1699999999999999
 22
2.0099999999999998
 32
1.2
 13
1.1699999999999999
 23
2.2199999999999989
 33
1.04
  0
3DFACE
  5
CE
  8
MUDGUARD
 10
1.1699999999999999
 20
2.2199999999999989
 30
1.04
 11
1.1699999999999999
 21
2.0099999999999998
 31
1.2
 12
0.8299999999999999
 22
2.0099999999999998
 32
1.2
 13
0.8299999999999999
 23
2.2199999999999989
 33
1.04
  0
3DFACE
  5
CF
  8
MUDGUARD
 10
0.8299999999999999
 20
2.0099999999999989
 30
1.2
 11
0.8299999999999999
 21
1.8700000000000001
 31
1.2099999999999991
 12
1.1699999999999999
 22
1.8700000000000001
 32
1.2099999999999991
 13
1.1699999999999999
 23
2.0099999999999989
 33
1.2
  0
3DFACE
  5
D0
  8
MUDGUARD
 10
1.1699999999999999
 20
2.0099999999999989
 30
1.2
 11
1.1699999999999999
 21
1.8700000000000001
 31
1.2099999999999991
 12
0.8299999999999999
 22
1.8700000000000001
 32
1.2099999999999991
 13
0.8299999999999999
 23
2.0099999999999989
 33
1.2
  0
3DFACE
  5
563
  8
LIGHT
 10
0.0000000000000001
 20
0.8703424771717431
 30
1.20215598315271
 11
-0.0449999999999999
 21
0.8823543075903462
 31
1.2032068821425339
 12
-0.0318198051533951
 22
0.885127586342576
 32
1.1715081609544109
 13
0.0000000000000001
 23
0.8703424771717431
 33
1.20215598315271
  0
3DFACE
  5
564
  8
LIGHT
 10
-0.0449999999999999
 20
0.8823543075903462
 30
1.2032068821425339
 11
-0.0779422863405994
 21
0.9151712385858717
 31
1.2060779915763551
 12
-0.0551135192126217
 22
0.9199746982882849
 32
1.151174195943564
 13
-0.0318198051533951
 23
0.885127586342576
 33
1.1715081609544109
  0
3DFACE
  5
565
  8
LIGHT
 10
-0.0779422863405994
 20
0.9151712385858717
 30
1.2060779915763551
 11
-0.0899999999999998
 21
0.9599999999999999
 31
1.2099999999999991
 12
-0.0636396103067902
 22
0.9655465575044598
 32
1.146602557623752
 13
-0.0551135192126217
 23
0.9199746982882849
 33
1.151174195943564
  0
3DFACE
  5
566
  8
LIGHT
 10
0.0000000000000001
 20
0.8703424771717431
 30
1.20215598315271
 11
-0.0318198051533951
 21
0.885127586342576
 31
1.1715081609544109
 12
0.0000000000000001
 22
0.8862763160139907
 32
1.158378120728407
 13
0.0000000000000001
 23
0.8703424771717431
 33
1.2021559831527111
  0
3DFACE
  5
567
  8
LIGHT
 10
-0.0318198051533951
 20
0.885127586342576
 30
1.1715081609544109
 11
-0.0551135192126217
 21
0.9199746982882849
 31
1.151174195943564
 12
0.0000000000000001
 22
0.9219643564433372
 32
1.1284322991667031
 13
0.0000000000000001
 23
0.8862763160139907
 33
1.158378120728407
  0
3DFACE
  5
568
  8
LIGHT
 10
-0.0551135192126217
 20
0.9199746982882849
 30
1.151174195943564
 11
-0.0636396103067902
 21
0.9655465575044598
 31
1.146602557623752
 12
0.0000000000000001
 22
0.9678440168472891
 32
1.1203424771717441
 13
0.0000000000000001
 23
0.9219643564433372
 33
1.1284322991667031
  0
3DFACE
  5
569
  8
LIGHT
 10
0.0000000000000001
 20
0.8703424771717431
 30
1.2021559831527111
 11
0.0000000000000001
 21
0.8862763160139907
 31
1.158378120728407
 12
0.0318198051533943
 22
0.8851275863425762
 32
1.17150816095441
 13
0.0000000000000001
 23
0.8703424771717431
 33
1.2021559831527091
  0
3DFACE
  5
56A
  8
LIGHT
 10
0.0000000000000001
 20
0.8862763160139907
 30
1.158378120728407
 11
0.0000000000000001
 21
0.9219643564433372
 31
1.1284322991667031
 12
0.0551135192126218
 22
0.9199746982882849
 32
1.1511741959435631
 13
0.0318198051533943
 23
0.8851275863425762
 33
1.17150816095441
  0
3DFACE
  5
56B
  8
LIGHT
 10
0.0000000000000001
 20
0.9219643564433372
 30
1.1284322991667031
 11
0.0000000000000001
 21
0.9678440168472891
 31
1.1203424771717441
 12
0.0636396103067894
 22
0.96554655750446
 32
1.14660255762375
 13
0.0551135192126218
 23
0.9199746982882849
 33
1.1511741959435631
  0
3DFACE
  5
56C
  8
LIGHT
 10
0.0000000000000001
 20
0.8703424771717431
 30
1.2021559831527091
 11
0.0318198051533943
 21
0.8851275863425762
 31
1.17150816095441
 12
0.0449999999999991
 22
0.8823543075903462
 32
1.203206882142535
 13
-0.0000000000000008
 23
0.8703424771717431
 33
1.2021559831527111
  0
3DFACE
  5
56D
  8
LIGHT
 10
0.0318198051533943
 20
0.8851275863425762
 30
1.17150816095441
 11
0.0551135192126218
 21
0.9199746982882849
 31
1.1511741959435631
 12
0.0779422863405986
 22
0.9151712385858717
 32
1.206077991576356
 13
0.0449999999999991
 23
0.8823543075903462
 33
1.203206882142535
  0
3DFACE
  5
56E
  8
LIGHT
 10
0.0551135192126218
 20
0.9199746982882849
 30
1.1511741959435631
 11
0.0636396103067894
 21
0.96554655750446
 31
1.14660255762375
 12
0.0899999999999991
 22
0.9599999999999999
 32
1.21
 13
0.0779422863405986
 23
0.9151712385858717
 33
1.206077991576356
  0
3DFACE
  5
56F
  8
LIGHT
 10
-0.0000000000000008
 20
0.8703424771717431
 30
1.2021559831527111
 11
0.0449999999999991
 21
0.8823543075903462
 31
1.203206882142535
 12
0.0318198051533934
 22
0.8795810288381161
 32
1.234905603330658
 13
0.0000000000000001
 23
0.8703424771717431
 33
1.20215598315271
  0
3DFACE
  5
570
  8
LIGHT
 10
0.0449999999999991
 20
0.8823543075903462
 30
1.203206882142535
 11
0.0779422863405986
 21
0.9151712385858717
 31
1.206077991576356
 12
0.0551135192126201
 22
0.9103677788834582
 32
1.2609817872091471
 13
0.0318198051533934
 23
0.8795810288381161
 33
1.234905603330658
  0
3DFACE
  5
571
  8
LIGHT
 10
0.0779422863405986
 20
0.9151712385858717
 30
1.206077991576356
 11
0.0899999999999991
 21
0.9599999999999999
 31
1.21
 12
0.0636396103067885
 22
0.9544534424955401
 32
1.273397442376248
 13
0.0551135192126201
 23
0.9103677788834582
 33
1.2609817872091471
  0
3DFACE
  5
572
  8
LIGHT
 10
0.0000000000000001
 20
0.8703424771717431
 30
1.20215598315271
 11
0.0318198051533934
 21
0.8795810288381161
 31
1.234905603330658
 12
0.0000000000000001
 22
0.8784322991667014
 32
1.2480356435566631
 13
0.0000000000000001
 23
0.8703424771717431
 33
1.20215598315271
  0
3DFACE
  5
573
  8
LIGHT
 10
0.0318198051533934
 20
0.8795810288381161
 30
1.234905603330658
 11
0.0551135192126201
 21
0.9103677788834582
 31
1.2609817872091471
 12
0.0000000000000001
 22
0.908378120728406
 32
1.28372368398601
 13
0.0000000000000001
 23
0.8784322991667014
 33
1.2480356435566631
  0
3DFACE
  5
574
  8
LIGHT
 10
0.0551135192126201
 20
0.9103677788834582
 30
1.2609817872091471
 11
0.0636396103067885
 21
0.9544534424955401
 31
1.273397442376248
 12
0.0000000000000001
 22
0.9521559831527106
 32
1.2996575228282561
 13
0.0000000000000001
 23
0.908378120728406
 33
1.28372368398601
  0
3DFACE
  5
575
  8
LIGHT
 10
0.0000000000000001
 20
0.8703424771717431
 30
1.20215598315271
 11
0.0000000000000001
 21
0.8784322991667014
 31
1.2480356435566631
 12
-0.0318198051533951
 22
0.8795810288381161
 32
1.234905603330658
 13
0.0000000000000001
 23
0.8703424771717431
 33
1.20215598315271
  0
3DFACE
  5
576
  8
LIGHT
 10
0.0000000000000001
 20
0.8784322991667014
 30
1.2480356435566631
 11
0.0000000000000001
 21
0.908378120728406
 31
1.28372368398601
 12
-0.0551135192126217
 22
0.9103677788834582
 32
1.260981787209146
 13
-0.0318198051533951
 23
0.8795810288381161
 33
1.234905603330658
  0
3DFACE
  5
577
  8
LIGHT
 10
0.0000000000000001
 20
0.908378120728406
 30
1.28372368398601
 11
0.0000000000000001
 21
0.9521559831527106
 31
1.2996575228282561
 12
-0.0636396103067902
 22
0.9544534424955401
 32
1.2733974423762471
 13
-0.0551135192126217
 23
0.9103677788834582
 33
1.260981787209146
  0
3DFACE
  5
578
  8
LIGHT
 10
0.0000000000000001
 20
0.8703424771717431
 30
1.20215598315271
 11
-0.0318198051533951
 21
0.8795810288381161
 31
1.234905603330658
 12
-0.0449999999999999
 22
0.8823543075903462
 32
1.2032068821425339
 13
0.0000000000000001
 23
0.8703424771717431
 33
1.20215598315271
  0
3DFACE
  5
579
  8
LIGHT
 10
-0.0318198051533951
 20
0.8795810288381161
 30
1.234905603330658
 11
-0.0551135192126217
 21
0.9103677788834582
 31
1.260981787209146
 12
-0.0779422863405994
 22
0.9151712385858717
 32
1.2060779915763551
 13
-0.0449999999999999
 23
0.8823543075903462
 33
1.2032068821425339
  0
3DFACE
  5
57A
  8
LIGHT
 10
-0.0551135192126217
 20
0.9103677788834582
 30
1.260981787209146
 11
-0.0636396103067902
 21
0.9544534424955401
 31
1.2733974423762471
 12
-0.0899999999999998
 22
0.9599999999999999
 32
1.2099999999999991
 13
-0.0779422863405994
 23
0.9151712385858717
 33
1.2060779915763551
  0
3DFACE
  5
57B
  8
LIGHT
 10
0.0000000000000001
 20
0.9678440168472891
 30
1.1203424771717441
 11
-0.0636396103067902
 21
0.9655465575044598
 31
1.146602557623752
 12
0.0899999999999991
 22
0.9599999999999999
 32
1.21
 13
0.0636396103067894
 23
0.96554655750446
 33
1.14660255762375
  0
3DFACE
  5
57C
  8
LIGHT
 10
-0.0636396103067902
 20
0.9655465575044598
 30
1.146602557623752
 11
-0.0899999999999998
 21
0.9599999999999999
 31
1.2099999999999991
 12
0.0636396103067885
 22
0.9544534424955401
 32
1.273397442376248
 13
0.0899999999999991
 23
0.9599999999999999
 33
1.21
  0
3DFACE
  5
57D
  8
LIGHT
 10
-0.0899999999999998
 20
0.9599999999999999
 30
1.2099999999999991
 11
-0.0636396103067902
 21
0.9544534424955401
 31
1.2733974423762471
 12
0.0000000000000001
 22
0.9521559831527106
 32
1.2996575228282561
 13
0.0636396103067885
 23
0.9544534424955401
 33
1.273397442376248
  0
3DFACE
  5
5AB
  8
0
 10
0.6
 20
-2.3599999999999999
 30
0.8900000000000002
 11
0.6
 21
-2.2999999999999989
 31
0.9939230484541328
 12
-0.2000000000000001
 22
-2.2999999999999989
 32
0.9939230484541328
 13
-0.2000000000000001
 23
-2.3599999999999999
 33
0.8900000000000002
  0
3DFACE
  5
5AC
  8
0
 10
0.6
 20
-2.2999999999999989
 30
0.9939230484541328
 11
0.6
 21
-2.1800000000000002
 31
0.9939230484541328
 12
-0.2000000000000001
 22
-2.1800000000000002
 32
0.9939230484541328
 13
-0.2000000000000001
 23
-2.2999999999999989
 33
0.9939230484541328
  0
3DFACE
  5
5AD
  8
0
 10
0.6
 20
-2.1800000000000002
 30
0.9939230484541328
 11
0.6
 21
-2.1200000000000001
 31
0.8900000000000002
 12
-0.2000000000000001
 22
-2.1200000000000001
 32
0.8900000000000002
 13
-0.2000000000000001
 23
-2.1800000000000002
 33
0.9939230484541328
  0
3DFACE
  5
5AE
  8
0
 10
0.6
 20
-2.1200000000000001
 30
0.8900000000000002
 11
0.6
 21
-2.1800000000000002
 31
0.7860769515458675
 12
-0.2000000000000001
 22
-2.1800000000000002
 32
0.7860769515458675
 13
-0.2000000000000001
 23
-2.1200000000000001
 33
0.8900000000000002
  0
3DFACE
  5
5AF
  8
0
 10
0.6
 20
-2.1800000000000002
 30
0.7860769515458675
 11
0.6
 21
-2.2999999999999989
 31
0.7860769515458675
 12
-0.2000000000000001
 22
-2.2999999999999989
 32
0.7860769515458675
 13
-0.2000000000000001
 23
-2.1800000000000002
 33
0.7860769515458675
  0
3DFACE
  5
5B0
  8
0
 10
0.6
 20
-2.2999999999999989
 30
0.7860769515458675
 11
0.6
 21
-2.3599999999999999
 31
0.8900000000000002
 12
-0.2000000000000001
 22
-2.3599999999999999
 32
0.8900000000000002
 13
-0.2000000000000001
 23
-2.2999999999999989
 33
0.7860769515458675
  0
3DFACE
  5
5B1
  8
0
 10
-0.2000000000000001
 20
-2.2999999999999989
 30
0.9939230484541328
 11
-0.2000000000000001
 21
-2.1800000000000002
 31
0.9939230484541328
 12
-0.2000000000000001
 22
-2.1200000000000001
 32
0.8900000000000002
 13
-0.2000000000000001
 23
-2.3599999999999999
 33
0.8900000000000002
  0
3DFACE
  5
5B2
  8
0
 10
-0.2000000000000001
 20
-2.3599999999999999
 30
0.8900000000000002
 11
-0.2000000000000001
 21
-2.1200000000000001
 31
0.8900000000000002
 12
-0.2000000000000001
 22
-2.1800000000000002
 32
0.7860769515458675
 13
-0.2000000000000001
 23
-2.2999999999999989
 33
0.7860769515458675
  0
3DFACE
  5
5B3
  8
0
 10
0.6
 20
-2.3599999999999999
 30
0.8900000000000002
 11
0.6
 21
-2.1200000000000001
 31
0.8900000000000002
 12
0.6
 22
-2.1800000000000002
 32
0.9939230484541328
 13
0.6
 23
-2.2999999999999989
 33
0.9939230484541328
  0
3DFACE
  5
5B4
  8
0
 10
0.6
 20
-2.2999999999999989
 30
0.7860769515458675
 11
0.6
 21
-2.1800000000000002
 31
0.7860769515458675
 12
0.6
 22
-2.1200000000000001
 32
0.8900000000000002
 13
0.6
 23
-2.3599999999999999
 33
0.8900000000000002
  0
3DFACE
  5
5B5
  8
0
 10
0.83
 20
-1.849999999999999
 30
1.139999999999999
 11
0.83
 21
-1.7599999999999989
 31
0.9547482014388489
 12
0.23
 22
-1.7599999999999989
 32
0.9547482014388489
 13
0.2300000000000004
 23
-1.849999999999999
 33
1.139999999999999
  0
3DFACE
  5
5B6
  8
0
 10
0.23
 20
-2.169999999999999
 30
1.1899999999999999
 11
0.23
 21
-2.1200000000000001
 31
0.8900000000000002
 12
0.83
 22
-2.1200000000000001
 32
0.8900000000000002
 13
0.83
 23
-2.169999999999999
 33
1.1899999999999999
  0
3DFACE
  5
5B7
  8
0
 10
0.83
 20
-2.169999999999999
 30
1.1899999999999999
 11
0.83
 21
-2.1200000000000001
 31
0.8900000000000002
 12
0.83
 22
-1.7599999999999989
 32
0.9547482014388489
 13
0.83
 23
-1.849999999999999
 33
1.139999999999999
  0
3DFACE
  5
5B8
  8
0
 10
0.23
 20
-1.7599999999999989
 30
0.9547482014388489
 11
0.23
 21
-2.1200000000000001
 31
0.8900000000000002
 12
0.23
 22
-2.169999999999999
 32
1.1899999999999999
 13
0.2300000000000004
 23
-1.849999999999999
 33
1.139999999999999
  0
3DFACE
  5
5BA
  8
0
 10
0.23
 20
-1.849999999999999
 30
1.139999999999999
 11
0.23
 21
-2.169999999999999
 31
1.1899999999999999
 12
0.83
 22
-2.169999999999999
 32
1.1899999999999999
 13
0.83
 23
-1.849999999999999
 33
1.139999999999999
  0
3DFACE
  5
5D2
  8
0
 10
0.7399999999999998
 20
-2.1200000000000001
 30
0.8900000000000002
 11
0.69
 21
-2.1200000000000001
 31
0.9399999999999998
 12
0.6800000000000001
 22
-2.23
 32
0.9399999999999998
 13
0.72
 23
-2.27
 33
0.8900000000000002
  0
3DFACE
  5
5D3
  8
0
 10
0.69
 20
-2.1200000000000001
 30
0.9399999999999998
 11
0.6400000000000002
 21
-2.1200000000000001
 31
0.8900000000000002
 12
0.63
 22
-2.1799999999999988
 32
0.8900000000000002
 13
0.6800000000000001
 23
-2.23
 33
0.9399999999999998
  0
3DFACE
  5
5D4
  8
0
 10
0.6400000000000002
 20
-2.1200000000000001
 30
0.8900000000000002
 11
0.69
 21
-2.1200000000000001
 31
0.8400000000000002
 12
0.6800000000000001
 22
-2.23
 32
0.8400000000000002
 13
0.63
 23
-2.1799999999999988
 33
0.8900000000000002
  0
3DFACE
  5
5D5
  8
0
 10
0.69
 20
-2.1200000000000001
 30
0.8400000000000002
 11
0.7399999999999998
 21
-2.1200000000000001
 31
0.8900000000000002
 12
0.72
 22
-2.27
 32
0.8900000000000002
 13
0.6800000000000001
 23
-2.23
 33
0.8400000000000002
  0
3DFACE
  5
5D6
  8
0
 10
0.72
 20
-2.27
 30
0.8900000000000002
 11
0.6800000000000001
 21
-2.23
 31
0.9399999999999998
 12
0.6
 22
-2.2400000000000002
 32
0.9399999999999998
 13
0.6
 23
-2.29
 33
0.8900000000000002
  0
3DFACE
  5
5D7
  8
0
 10
0.6800000000000001
 20
-2.23
 30
0.9399999999999998
 11
0.63
 21
-2.1799999999999988
 31
0.8900000000000002
 12
0.6
 22
-2.1899999999999999
 32
0.8900000000000002
 13
0.6
 23
-2.2400000000000002
 33
0.9399999999999998
  0
3DFACE
  5
5D8
  8
0
 10
0.63
 20
-2.1799999999999988
 30
0.8900000000000002
 11
0.6800000000000001
 21
-2.23
 31
0.8400000000000002
 12
0.6
 22
-2.2400000000000002
 32
0.8400000000000002
 13
0.6
 23
-2.1899999999999999
 33
0.8900000000000002
  0
3DFACE
  5
5D9
  8
0
 10
0.6800000000000001
 20
-2.23
 30
0.8400000000000002
 11
0.72
 21
-2.27
 31
0.8900000000000002
 12
0.6
 22
-2.29
 32
0.8900000000000002
 13
0.6
 23
-2.2400000000000002
 33
0.8400000000000002
  0
3DFACE
  5
5F0
  8
0
 10
-0.4200000000000001
 20
-2.2753153893518321
 30
0.9111309130870349
 11
-0.45
 21
-2.2088690869129648
 31
0.9353153893518332
 12
-0.55
 22
-2.2723106320055302
 32
0.9648986676736812
 13
-0.48
 23
-2.3115677008332991
 33
0.9280356435566631
  0
3DFACE
  5
5F1
  8
0
 10
-0.45
 20
-2.2088690869129648
 30
0.9353153893518332
 11
-0.48
 21
-2.1846846106481679
 31
0.8688690869129654
 12
-0.6200000000000001
 22
-2.2753153893518321
 32
0.9111309130870349
 13
-0.55
 23
-2.2723106320055302
 33
0.9648986676736812
  0
3DFACE
  5
5F2
  8
0
 10
-0.48
 20
-2.1846846106481679
 30
0.8688690869129654
 11
-0.45
 21
-2.2511309130870352
 31
0.8446846106481679
 12
-0.55
 22
-2.3145724581796001
 32
0.874267888970017
 13
-0.6200000000000001
 23
-2.2753153893518321
 33
0.9111309130870349
  0
3DFACE
  5
5F3
  8
0
 10
-0.45
 20
-2.2511309130870352
 30
0.8446846106481679
 11
-0.4200000000000001
 21
-2.2753153893518321
 31
0.9111309130870349
 12
-0.48
 22
-2.3115677008332991
 32
0.9280356435566631
 13
-0.55
 23
-2.3145724581796001
 33
0.874267888970017
  0
3DFACE
  5
5F4
  8
0
 10
-0.2
 20
-2.2753153893518321
 30
0.9111309130870349
 11
-0.2
 21
-2.2088690869129648
 31
0.9353153893518332
 12
-0.45
 22
-2.2088690869129648
 32
0.9353153893518332
 13
-0.4200000000000001
 23
-2.2753153893518321
 33
0.9111309130870349
  0
3DFACE
  5
5F5
  8
0
 10
-0.2
 20
-2.2088690869129648
 30
0.9353153893518332
 11
-0.2
 21
-2.1846846106481679
 31
0.8688690869129654
 12
-0.48
 22
-2.1846846106481679
 32
0.8688690869129654
 13
-0.45
 23
-2.2088690869129648
 33
0.9353153893518332
  0
3DFACE
  5
5F6
  8
0
 10
-0.2
 20
-2.1846846106481679
 30
0.8688690869129654
 11
-0.2
 21
-2.2511309130870352
 31
0.8446846106481679
 12
-0.45
 22
-2.2511309130870352
 32
0.8446846106481679
 13
-0.48
 23
-2.1846846106481679
 33
0.8688690869129654
  0
3DFACE
  5
5F7
  8
0
 10
-0.2
 20
-2.2511309130870352
 30
0.8446846106481679
 11
-0.2
 21
-2.2753153893518321
 31
0.9111309130870349
 12
-0.4200000000000001
 22
-2.2753153893518321
 32
0.9111309130870349
 13
-0.45
 23
-2.2511309130870352
 33
0.8446846106481679
  0
3DFACE
  5
5F8
  8
0
 10
-0.55
 20
-2.2723106320055302
 30
0.9648986676736812
 11
-0.48
 21
-2.3115677008332991
 31
0.9280356435566631
 12
-0.55
 22
-2.3145724581796001
 32
0.874267888970017
 13
-0.6200000000000001
 23
-2.2753153893518321
 33
0.9111309130870349
  0
3DFACE
  5
5FA
  8
0
 10
-0.5400000000000002
 20
-1.419999999999999
 30
1.2199999999999991
 11
-0.5400000000000002
 21
-1.419999999999999
 31
1.0158992805755389
 12
0.4
 22
-1.419999999999999
 32
1.0158992805755389
 13
0.4
 23
-1.419999999999999
 33
1.2199999999999991
  0
3DFACE
  5
5FB
  8
0
 10
0.4
 20
-1.419999999999999
 30
1.2199999999999991
 11
0.4
 21
-1.419999999999999
 31
1.0158992805755389
 12
0.4
 22
-0.73
 32
1.139999999999999
 13
0.4
 23
-0.690000000000001
 33
1.339999999999999
  0
3DFACE
  5
5FC
  8
0
 10
-0.5400000000000002
 20
-0.73
 30
1.139999999999999
 11
-0.5400000000000002
 21
-1.419999999999999
 31
1.0158992805755389
 12
-0.5400000000000002
 22
-1.419999999999999
 32
1.2199999999999991
 13
-0.5400000000000002
 23
-0.690000000000001
 33
1.339999999999999
  0
3DFACE
  5
5FE
  8
0
 10
-0.5400000000000002
 20
-0.690000000000001
 30
1.339999999999999
 11
-0.5400000000000002
 21
-1.419999999999999
 31
1.2199999999999991
 12
0.4
 22
-1.419999999999999
 32
1.2199999999999991
 13
0.4
 23
-0.690000000000001
 33
1.339999999999999
  0
3DFACE
  5
698
  8
0
 10
-0.83
 20
0.84
 30
1.139999999999999
 11
0.1700000000000004
 21
0.8400000000000044
 31
1.1399999999999979
 12
0.17
 22
1.02
 32
1.1031496062992101
 13
-0.83
 23
2.1099999999999999
 33
0.8799999999999998
  0
3DFACE
  5
699
  8
0
 10
0.779999999999999
 20
0.84
 30
1.1399999999999979
 11
0.83
 21
0.8400000000000044
 31
1.139999999999999
 12
0.83
 22
2.1099999999999999
 32
0.8799999999999998
 13
0.7799999999999999
 23
1.02
 33
1.1031496062992101
  0
3DFACE
  5
69A
  8
0
 10
-0.83
 20
0.7671428571428575
 30
1.139999999999999
 11
-0.83
 21
0.7671428571428575
 31
1.139999999999999
 12
-0.7900000000000003
 22
0.8100000000000001
 32
1.139999999999999
 13
-0.83
 23
0.8399999999999998
 33
1.139999999999999
  0
3DFACE
  5
69B
  8
0
 10
-0.83
 20
-0.7299999999999999
 30
1.139999999999999
 11
-0.83
 21
-0.7299999999999999
 31
1.139999999999999
 12
-0.7900000000000003
 22
-0.69
 32
1.139999999999999
 13
-0.83
 23
-0.6185714285714289
 33
1.139999999999999
  0
3DFACE
  5
69C
  8
0
 10
-0.7900000000000003
 20
-0.69
 30
1.139999999999999
 11
-0.83
 21
-0.73
 31
1.139999999999999
 12
-0.5400000000000002
 22
-0.73
 32
1.139999999999999
 13
-0.5400000000000002
 23
-0.690000000000001
 33
1.139999999999999
  0
3DFACE
  5
6A1
  8
0
 10
0.4
 20
-0.69
 30
1.139999999999999
 11
0.4
 21
-0.73
 31
1.139999999999999
 12
0.83
 22
-0.73
 32
1.139999999999999
 13
0.8099999999999994
 23
-0.6900000000000008
 33
1.1399999999999979
  0
3DFACE
  5
6A2
  8
0
 10
-0.5400000000000002
 20
-0.690000000000001
 30
1.139999999999999
 11
-0.5400000000000002
 21
-0.73
 31
1.139999999999999
 12
-0.5400000000000002
 22
-0.690000000000001
 32
1.339999999999999
 13
-0.5400000000000002
 23
-0.6900000000000001
 33
1.339999999999999
  0
3DFACE
  5
6A3
  8
0
 10
0.4
 20
-0.690000000000001
 30
1.339999999999999
 11
0.4
 21
-0.690000000000001
 31
1.339999999999999
 12
0.4
 22
-0.73
 32
1.139999999999999
 13
0.4
 23
-0.69
 33
1.139999999999999
  0
3DFACE
  5
6A4
  8
0
 10
0.4
 20
-0.69
 30
1.139999999999999
 11
0.8099999999999996
 21
-0.6900000000000008
 31
1.1399999999999979
 12
0.6099999999999993
 22
-0.6900000000000008
 32
1.4899999999999951
 13
0.4
 23
-0.6900000000000017
 33
1.339999999999995
  0
3DFACE
  5
6A5
  8
0
 10
-0.5400000000000002
 20
-0.690000000000001
 30
1.139999999999999
 11
-0.5400000000000002
 21
-0.690000000000001
 31
1.339999999999999
 12
-0.6200000000000009
 22
-0.6900000000000008
 32
1.4899999999999951
 13
-0.7900000000000003
 23
-0.69
 33
1.139999999999999
  0
3DFACE
  5
6A6
  8
0
 10
0.4
 20
-0.73
 30
1.139999999999999
 11
0.3999999999999999
 21
-1.419999999999999
 31
1.0158992805755389
 12
0.83
 22
-1.7599999999999989
 32
0.9547482014388489
 13
0.83
 23
-0.73
 33
1.139999999999999
  0
3DFACE
  5
6A7
  8
0
 10
-0.83
 20
-0.7299999999999999
 30
1.139999999999999
 11
-0.83
 21
-2.1200000000000001
 31
0.8900000000000002
 12
-0.5400000000000002
 22
-1.419999999999999
 32
1.0158992805755389
 13
-0.5400000000000002
 23
-0.73
 33
1.139999999999999
  0
3DFACE
  5
6AC
  8
0
 10
-0.83
 20
-2.1200000000000001
 30
0.8900000000000002
 11
0.23
 21
-2.1200000000000001
 31
0.8900000000000002
 12
0.23
 22
-1.7599999999999989
 32
0.9547482014388489
 13
-0.5400000000000002
 23
-1.419999999999999
 33
1.0158992805755389
  0
3DFACE
  5
6AE
  8
MUDGUARD
 10
0.8299999999999999
 20
2.2199999999999989
 30
1.04
 11
0.8299999999999999
 21
2.0099999999999998
 31
1.2
 12
0.8299999999999999
 22
0.8727741935483887
 32
1.1332903225806441
 13
0.83
 23
2.1099999999999999
 33
0.8799999999999998
  0
3DFACE
  5
6AF
  8
MUDGUARD
 10
0.83
 20
2.1099999999999999
 30
0.8799999999999998
 11
0.8299999999999999
 21
0.8727741935483887
 31
1.1332903225806441
 12
0.8299999999999999
 22
2.0099999999999998
 32
1.2
 13
0.8299999999999999
 23
2.2199999999999989
 33
1.04
  0
3DFACE
  5
6B0
  8
MUDGUARD
 10
0.8299999999999999
 20
2.0099999999999998
 30
1.2
 11
0.8299999999999999
 21
0.8727741935483887
 31
1.1332903225806441
 12
0.8299999999999999
 22
1.8700000000000001
 32
1.2099999999999991
 13
0.8299999999999999
 23
2.0099999999999998
 33
1.2
  0
3DFACE
  5
6B1
  8
MUDGUARD
 10
0.8299999999999999
 20
2.0099999999999998
 30
1.2
 11
0.8299999999999999
 21
1.8700000000000001
 31
1.2099999999999991
 12
0.8299999999999999
 22
0.8727741935483887
 32
1.1332903225806441
 13
0.8299999999999999
 23
2.0099999999999998
 33
1.2
  0
3DFACE
  5
6B2
  8
MUDGUARD
 10
-0.83
 20
2.2199999999999989
 30
1.04
 11
-0.83
 21
2.0099999999999998
 31
1.2
 12
-0.83
 22
0.872774193548388
 32
1.1332903225806441
 13
-0.8299999999999999
 23
2.1099999999999999
 33
0.8799999999999998
  0
3DFACE
  5
6B3
  8
MUDGUARD
 10
-0.8299999999999999
 20
2.1099999999999999
 30
0.8799999999999998
 11
-0.83
 21
0.872774193548388
 31
1.1332903225806441
 12
-0.83
 22
2.0099999999999998
 32
1.2
 13
-0.83
 23
2.2199999999999989
 33
1.04
  0
3DFACE
  5
6B4
  8
MUDGUARD
 10
-0.83
 20
2.0099999999999998
 30
1.2
 11
-0.83
 21
0.8727741935483914
 31
1.1332903225806441
 12
-0.83
 22
1.870000000000007
 32
1.2099999999999991
 13
-0.83
 23
2.0099999999999998
 33
1.2
  0
3DFACE
  5
6B5
  8
MUDGUARD
 10
-0.83
 20
2.0099999999999998
 30
1.2
 11
-0.83
 21
1.870000000000007
 31
1.2099999999999991
 12
-0.83
 22
0.8727741935483914
 32
1.1332903225806441
 13
-0.83
 23
2.0099999999999998
 33
1.2
  0
3DFACE
  5
6B6
  8
MUDGUARD
 10
0.83
 20
-2.1200000000000001
 30
0.8900000000000002
 11
0.83
 21
-2.1200000000000001
 31
0.7600000000000003
 12
0.8299999999999999
 22
-2.4100000000000001
 32
0.7800000000000003
 13
0.8299999999999999
 23
-2.2999999999999989
 33
0.8700000000000001
  0
3DFACE
  5
6B7
  8
MUDGUARD
 10
0.8299999999999999
 20
-2.2999999999999989
 30
0.8700000000000001
 11
0.8299999999999999
 21
-2.4100000000000001
 31
0.7800000000000003
 12
0.83
 22
-2.1200000000000001
 32
0.7600000000000003
 13
0.83
 23
-2.1200000000000001
 33
0.8900000000000002
  0
3DFACE
  5
6BA
  8
MUDGUARD
 10
0.8299999999999999
 20
-2.1600000000000001
 30
0.9
 11
0.8299999999999999
 21
-2.2999999999999989
 31
0.8700000000000001
 12
0.83
 22
-2.1200000000000001
 32
0.8900000000000002
 13
0.83
 23
-2.122151898734177
 33
0.9029113924050632
  0
3DFACE
  5
6BB
  8
MUDGUARD
 10
0.83
 20
-2.122151898734177
 30
0.9029113924050632
 11
0.83
 21
-2.1200000000000001
 31
0.8900000000000002
 12
0.8299999999999999
 22
-2.2999999999999989
 32
0.8700000000000001
 13
0.8299999999999999
 23
-2.1600000000000001
 33
0.9
  0
3DFACE
  5
6BC
  8
MUDGUARD
 10
-0.83
 20
-2.1200000000000001
 30
0.8900000000000002
 11
-0.83
 21
-2.1200000000000001
 31
0.7600000000000003
 12
-0.83
 22
-2.4100000000000001
 32
0.7800000000000003
 13
-0.83
 23
-2.2999999999999989
 33
0.8700000000000001
  0
3DFACE
  5
6BD
  8
MUDGUARD
 10
-0.83
 20
-2.2999999999999989
 30
0.8700000000000001
 11
-0.83
 21
-2.4100000000000001
 31
0.7800000000000003
 12
-0.83
 22
-2.1200000000000001
 32
0.7600000000000003
 13
-0.83
 23
-2.1200000000000001
 33
0.8900000000000002
  0
3DFACE
  5
6C0
  8
MUDGUARD
 10
-0.83
 20
-1.992956989247314
 30
0.912849462365591
 11
-0.83
 21
-2.1200000000000001
 31
0.8900000000000002
 12
-0.83
 22
-2.2999999999999989
 32
0.8700000000000001
 13
-0.83
 23
-2.1600000000000001
 33
0.9
  0
3DFACE
  5
6C1
  8
MUDGUARD
 10
-0.83
 20
-2.1600000000000001
 30
0.9
 11
-0.83
 21
-2.2999999999999989
 31
0.8700000000000001
 12
-0.83
 22
-2.1200000000000001
 32
0.8900000000000002
 13
-0.83
 23
-1.992956989247314
 33
0.912849462365591
  0
3DFACE
  5
6C8
  8
0
 10
0.79
 20
0.8099999999999996
 30
1.139999999999999
 11
0.83
 21
0.7671428571428571
 31
1.139999999999999
 12
0.83
 22
0.8400000000000044
 32
1.139999999999999
 13
0.779999999999999
 23
0.84
 33
1.1399999999999979
  0
VIEWPORT
  5
2E
 67
     1
  8
0
 10
144.7270812988281
 20
101.2295806407928
 30
0.0
 40
391.13550988316581
 41
222.15178063964839
 68
     2
 69
     1
1001
ACAD
1000
MVIEW
1002
{
1070
    16
1010
0.0
1020
0.0
1030
0.0
1010
0.0
1020
0.0
1030
1.0
1040
0.0
1040
222.15178063964839
1040
144.7270812988281
1040
101.2295806407928
1040
50.0
1040
0.0
1040
0.0
1070
     0
1070
   100
1070
     1
1070
     1
1070
     0
1070
     0
1070
     0
1070
     0
1040
0.0
1040
0.0
1040
0.0
1040
10.0
1040
10.0
1040
10.0
1040
10.0
1070
     0
1002
{
1002
}
1002
}
  0
VIEWPORT
  5
30
 67
     1
  8
0
 10
139.22375631332389
 20
100.8062499761581
 30
0.0
 40
222.75801010131829
 41
161.289999961853
 68
     1
 69
     2
1001
ACAD
1000
MVIEW
1002
{
1070
    16
1010
0.0
1020
0.0
1030
0.0
1010
0.0
1020
0.0
1030
1.0
1040
0.0
1040
307.49010134148989
1040
210.0
1040
148.5
1040
50.0
1040
0.0
1040
0.0
1070
     0
1070
   100
1070
     1
1070
     3
1070
     0
1070
     1
1070
     0
1070
     0
1040
0.0
1040
0.0
1040
0.0
1040
10.0
1040
10.0
1040
10.0
1040
10.0
1070
     0
1002
{
1002
}
1002
}
  0
ENDSEC
  0
EOF
