  0
SECTION
  2
HEADER
  9
$ACADVER
  1
AC1009
  9
$INSBASE
 10
0.0
 20
0.0
 30
0.0
  9
$EXTMIN
 10
-0.9399999999999998
 20
-2.4944593573693199
 30
-2.75
  9
$EXTMAX
 10
1.1799999999999999
 20
12.960000000000001
 30
17.364097197651681
  9
$LIMMIN
 10
0.0
 20
0.0
  9
$LIMMAX
 10
420.0
 20
297.0
  9
$ORTHOMODE
 70
     1
  9
$REGENMODE
 70
     1
  9
$FILLMODE
 70
     1
  9
$QTEXTMODE
 70
     0
  9
$MIRRTEXT
 70
     1
  9
$DRAGMODE
 70
     2
  9
$LTSCALE
 40
1.0
  9
$OSMODE
 70
    35
  9
$ATTMODE
 70
     1
  9
$TEXTSIZE
 40
2.5
  9
$TRACEWID
 40
1.0
  9
$TEXTSTYLE
  7
STANDARD
  9
$CLAYER
  8
SLEEVE_39
  9
$CELTYPE
  6
BYLAYER
  9
$CECOLOR
 62
   256
  9
$DIMSCALE
 40
1.0
  9
$DIMASZ
 40
2.5
  9
$DIMEXO
 40
0.625
  9
$DIMDLI
 40
3.75
  9
$DIMRND
 40
0.0
  9
$DIMDLE
 40
0.0
  9
$DIMEXE
 40
1.25
  9
$DIMTP
 40
0.0
  9
$DIMTM
 40
0.0
  9
$DIMTXT
 40
2.5
  9
$DIMCEN
 40
2.5
  9
$DIMTSZ
 40
0.0
  9
$DIMTOL
 70
     0
  9
$DIMLIM
 70
     0
  9
$DIMTIH
 70
     0
  9
$DIMTOH
 70
     0
  9
$DIMSE1
 70
     0
  9
$DIMSE2
 70
     0
  9
$DIMTAD
 70
     1
  9
$DIMZIN
 70
     8
  9
$DIMBLK
  1

  9
$DIMASO
 70
     1
  9
$DIMSHO
 70
     1
  9
$DIMPOST
  1

  9
$DIMAPOST
  1

  9
$DIMALT
 70
     0
  9
$DIMALTD
 70
     3
  9
$DIMALTF
 40
0.03937007874016
  9
$DIMLFAC
 40
1.0
  9
$DIMTOFL
 70
     1
  9
$DIMTVP
 40
0.0
  9
$DIMTIX
 70
     0
  9
$DIMSOXD
 70
     0
  9
$DIMSAH
 70
     0
  9
$DIMBLK1
  1

  9
$DIMBLK2
  1

  9
$DIMSTYLE
  2
ISO-25
  9
$DIMCLRD
 70
     0
  9
$DIMCLRE
 70
     0
  9
$DIMCLRT
 70
     0
  9
$DIMTFAC
 40
1.0
  9
$DIMGAP
 40
0.625
  9
$LUNITS
 70
     2
  9
$LUPREC
 70
     4
  9
$SKETCHINC
 40
1.0
  9
$FILLETRAD
 40
10.0
  9
$AUNITS
 70
     0
  9
$AUPREC
 70
     0
  9
$MENU
  1
.
  9
$ELEVATION
 40
0.0
  9
$PELEVATION
 40
0.0
  9
$THICKNESS
 40
0.0
  9
$LIMCHECK
 70
     0
  9
$BLIPMODE
 70
     0
  9
$CHAMFERA
 40
10.0
  9
$CHAMFERB
 40
10.0
  9
$SKPOLY
 70
     0
  9
$TDCREATE
 40
2457646.558887349
  9
$TDUPDATE
 40
2457659.4602433331
  9
$TDINDWG
 40
1.7921996065000001
  9
$TDUSRTIMER
 40
1.7921995949
  9
$USRTIMER
 70
     1
  9
$ANGBASE
 50
0.0
  9
$ANGDIR
 70
     0
  9
$PDMODE
 70
     0
  9
$PDSIZE
 40
0.0
  9
$PLINEWID
 40
0.0
  9
$COORDS
 70
     1
  9
$SPLFRAME
 70
     0
  9
$SPLINETYPE
 70
     6
  9
$SPLINESEGS
 70
     8
  9
$ATTDIA
 70
     1
  9
$ATTREQ
 70
     1
  9
$HANDLING
 70
-16383
  9
$HANDSEED
  5
31D6
  9
$SURFTAB1
 70
     6
  9
$SURFTAB2
 70
     6
  9
$SURFTYPE
 70
     6
  9
$SURFU
 70
     6
  9
$SURFV
 70
     6
  9
$UCSNAME
  2

  9
$UCSORG
 10
0.0
 20
0.0
 30
0.0
  9
$UCSXDIR
 10
0.0
 20
-1.0
 30
0.0
  9
$UCSYDIR
 10
0.0
 20
0.0
 30
1.0
  9
$PUCSNAME
  2

  9
$PUCSORG
 10
0.0
 20
0.0
 30
0.0
  9
$PUCSXDIR
 10
1.0
 20
0.0
 30
0.0
  9
$PUCSYDIR
 10
0.0
 20
1.0
 30
0.0
  9
$USERI1
 70
     0
  9
$USERI2
 70
     0
  9
$USERI3
 70
     0
  9
$USERI4
 70
     0
  9
$USERI5
 70
     0
  9
$USERR1
 40
0.0
  9
$USERR2
 40
0.0
  9
$USERR3
 40
0.0
  9
$USERR4
 40
0.0
  9
$USERR5
 40
0.0
  9
$WORLDVIEW
 70
     1
  9
$SHADEDGE
 70
     3
  9
$SHADEDIF
 70
    70
  9
$TILEMODE
 70
     1
  9
$MAXACTVP
 70
    64
  9
$PLIMCHECK
 70
     0
  9
$PEXTMIN
 10
27.844751262664801
 20
20.161249995231621
 30
0.0
  9
$PEXTMAX
 10
250.60276136398309
 20
181.4512499570846
 30
0.0
  9
$PLIMMIN
 10
-3.757080078125
 20
-3.7570831775665279
  9
$PLIMMAX
 10
293.21124267578119
 20
206.21624445915219
  9
$UNITMODE
 70
     0
  9
$VISRETAIN
 70
     1
  9
$PLINEGEN
 70
     0
  9
$PSLTSCALE
 70
     1
  0
ENDSEC
  0
SECTION
  2
TABLES
  0
TABLE
  2
VPORT
 70
     3
  0
VPORT
  2
*ACTIVE
 70
     0
 10
0.0
 20
0.0
 11
1.0
 21
1.0
 12
1.17474952333643
 22
-0.0615403833652832
 13
0.0
 23
0.0
 14
0.01
 24
0.01
 15
1.0
 25
1.0
 16
-1.0
 26
0.0
 36
0.0
 17
0.0
 27
0.0
 37
0.0
 40
2.1403169636569861
 41
2.1655092592592591
 42
50.0
 43
0.0
 44
0.0
 50
0.0
 51
0.0
 71
     0
 72
   100
 73
     1
 74
     3
 75
     1
 76
     1
 77
     0
 78
     0
  0
ENDTAB
  0
TABLE
  2
LTYPE
 70
     1
  0
LTYPE
  2
CONTINUOUS
 70
     0
  3
Solid line
 72
    65
 73
     0
 40
0.0
  0
ENDTAB
  0
TABLE
  2
LAYER
 70
    17
  0
LAYER
  2
0
 70
     0
 62
     7
  6
CONTINUOUS
  0
LAYER
  2
DRAWING
 70
     0
 62
     9
  6
CONTINUOUS
  0
LAYER
  2
TMP
 70
     0
 62
     4
  6
CONTINUOUS
  0
LAYER
  2
SUSPENSION
 70
     0
 62
     5
  6
CONTINUOUS
  0
LAYER
  2
WHEELS
 70
     0
 62
     2
  6
CONTINUOUS
  0
LAYER
  2
TRACKS
 70
     0
 62
     3
  6
CONTINUOUS
  0
LAYER
  2
FENDERS
 70
     0
 62
     6
  6
CONTINUOUS
  0
LAYER
  2
BACK_35
 70
     0
 62
     2
  6
CONTINUOUS
  0
LAYER
  2
TURRET
 70
     0
 62
     2
  6
CONTINUOUS
  0
LAYER
  2
SLEEVE
 70
     0
 62
     5
  6
CONTINUOUS
  0
LAYER
  2
GUN
 70
     0
 62
     1
  6
CONTINUOUS
  0
LAYER
  2
BACK_H39
 70
     0
 62
     2
  6
CONTINUOUS
  0
LAYER
  2
TAIL
 70
     0
 62
     6
  6
CONTINUOUS
  0
LAYER
  2
TENT
 70
     0
 62
     3
  6
CONTINUOUS
  0
LAYER
  2
TOOLS
 70
     0
 62
     3
  6
CONTINUOUS
  0
LAYER
  2
REAR_WHEEL_39
 70
     0
 62
     2
  6
CONTINUOUS
  0
LAYER
  2
SLEEVE_39
 70
     0
 62
     5
  6
CONTINUOUS
  0
ENDTAB
  0
TABLE
  2
STYLE
 70
     1
  0
STYLE
  2
STANDARD
 70
     0
 40
0.0
 41
1.0
 50
0.0
 71
     0
 42
2.5
  3
txt
  4

  0
ENDTAB
  0
TABLE
  2
VIEW
 70
     0
  0
ENDTAB
  0
TABLE
  2
UCS
 70
     0
  0
ENDTAB
  0
TABLE
  2
APPID
 70
     1
  0
APPID
  2
ACAD
 70
     0
  0
ENDTAB
  0
TABLE
  2
DIMSTYLE
 70
     1
  0
DIMSTYLE
  2
ISO-25
 70
     0
  3

  4

  5

  6

  7

 40
1.0
 41
2.5
 42
0.625
 43
3.75
 44
1.25
 45
0.0
 46
0.0
 47
0.0
 48
0.0
140
2.5
141
2.5
142
0.0
143
0.03937007874016
144
1.0
145
0.0
146
1.0
147
0.625
 71
     0
 72
     0
 73
     0
 74
     0
 75
     0
 76
     0
 77
     1
 78
     8
170
     0
171
     3
172
     1
173
     0
174
     0
175
     0
176
     0
177
     0
178
     0
  0
ENDTAB
  0
ENDSEC
  0
SECTION
  2
BLOCKS
  0
BLOCK
  8
0
  2
$MODEL_SPACE
 70
     0
 10
0.0
 20
0.0
 30
0.0
  3
$MODEL_SPACE
  1

  0
ENDBLK
  5
21
  8
0
  0
BLOCK
 67
     1
  8
0
  2
$PAPER_SPACE
 70
     0
 10
0.0
 20
0.0
 30
0.0
  3
$PAPER_SPACE
  1

  0
ENDBLK
  5
1D
 67
     1
  8
0
  0
ENDSEC
  0
SECTION
  2
ENTITIES
  0
3DFACE
  5
30CB
  8
SLEEVE_39
 10
0.23
 20
-0.3200000000000001
 30
-0.0700000000000003
 11
0.1958578643762691
 21
-0.3200000000000001
 31
-0.0841421356237309
 12
0.21
 22
-0.3200000000000001
 32
-0.0899999999999999
 13
0.224142135623731
 23
-0.3200000000000001
 33
-0.0841421356237309
  0
3DFACE
  5
30CC
  8
SLEEVE_39
 10
0.224142135623731
 20
-0.3200000000000001
 30
-0.055857864376268
 11
0.1900000000000001
 21
-0.3200000000000001
 31
-0.0700000000000003
 12
0.1958578643762691
 22
-0.3200000000000001
 32
-0.0841421356237309
 13
0.23
 23
-0.3200000000000001
 33
-0.0700000000000003
  0
3DFACE
  5
30CD
  8
SLEEVE_39
 10
0.21
 20
-0.3200000000000001
 30
-0.0499999999999989
 11
0.1958578643762691
 21
-0.3200000000000001
 31
-0.055857864376268
 12
0.1900000000000001
 22
-0.3200000000000001
 32
-0.0700000000000003
 13
0.224142135623731
 23
-0.3200000000000001
 33
-0.055857864376268
  0
3DFACE
  5
30CE
  8
SLEEVE_39
 10
0.224142135623731
 20
-0.26
 30
-0.0841421356237309
 11
0.23
 21
-0.26
 31
-0.0700000000000003
 12
0.23
 22
-0.3200000000000001
 32
-0.0700000000000003
 13
0.224142135623731
 23
-0.3200000000000001
 33
-0.0841421356237309
  0
3DFACE
  5
30CF
  8
SLEEVE_39
 10
0.21
 20
-0.26
 30
-0.0899999999999999
 11
0.224142135623731
 21
-0.26
 31
-0.0841421356237309
 12
0.224142135623731
 22
-0.3200000000000001
 32
-0.0841421356237309
 13
0.21
 23
-0.3200000000000001
 33
-0.0899999999999999
  0
3DFACE
  5
30D0
  8
SLEEVE_39
 10
0.1958578643762691
 20
-0.26
 30
-0.0841421356237309
 11
0.21
 21
-0.26
 31
-0.0899999999999999
 12
0.21
 22
-0.3200000000000001
 32
-0.0899999999999999
 13
0.1958578643762691
 23
-0.3200000000000001
 33
-0.0841421356237309
  0
3DFACE
  5
30D1
  8
SLEEVE_39
 10
0.1900000000000001
 20
-0.26
 30
-0.0700000000000003
 11
0.1958578643762691
 21
-0.26
 31
-0.0841421356237309
 12
0.1958578643762691
 22
-0.3200000000000001
 32
-0.0841421356237309
 13
0.1900000000000001
 23
-0.3200000000000001
 33
-0.0700000000000003
  0
3DFACE
  5
30D2
  8
SLEEVE_39
 10
0.1958578643762691
 20
-0.26
 30
-0.055857864376268
 11
0.1900000000000001
 21
-0.26
 31
-0.0700000000000003
 12
0.1900000000000001
 22
-0.3200000000000001
 32
-0.0700000000000003
 13
0.1958578643762691
 23
-0.3200000000000001
 33
-0.055857864376268
  0
3DFACE
  5
30D3
  8
SLEEVE_39
 10
0.21
 20
-0.26
 30
-0.0499999999999989
 11
0.1958578643762691
 21
-0.26
 31
-0.055857864376268
 12
0.1958578643762691
 22
-0.3200000000000001
 32
-0.055857864376268
 13
0.21
 23
-0.3200000000000001
 33
-0.0499999999999989
  0
3DFACE
  5
30D4
  8
SLEEVE_39
 10
0.224142135623731
 20
-0.26
 30
-0.055857864376268
 11
0.21
 21
-0.26
 31
-0.0499999999999989
 12
0.21
 22
-0.3200000000000001
 32
-0.0499999999999989
 13
0.224142135623731
 23
-0.3200000000000001
 33
-0.055857864376268
  0
3DFACE
  5
30D5
  8
SLEEVE_39
 10
0.23
 20
-0.26
 30
-0.0700000000000003
 11
0.224142135623731
 21
-0.26
 31
-0.055857864376268
 12
0.224142135623731
 22
-0.3200000000000001
 32
-0.055857864376268
 13
0.23
 23
-0.3200000000000001
 33
-0.0700000000000003
  0
3DFACE
  5
30D6
  8
SLEEVE_39
 10
0.17
 20
-0.26
 30
-0.129999999999999
 11
0.165
 21
-0.26
 31
-0.121339745962155
 12
0.165
 22
-0.27
 32
-0.121339745962155
 13
0.17
 23
-0.27
 33
-0.129999999999999
  0
3DFACE
  5
30D7
  8
SLEEVE_39
 10
0.165
 20
-0.26
 30
-0.121339745962155
 11
0.155
 21
-0.26
 31
-0.121339745962155
 12
0.155
 22
-0.27
 32
-0.121339745962155
 13
0.165
 23
-0.27
 33
-0.121339745962155
  0
3DFACE
  5
30D8
  8
SLEEVE_39
 10
0.155
 20
-0.26
 30
-0.121339745962155
 11
0.15
 21
-0.26
 31
-0.129999999999999
 12
0.15
 22
-0.27
 32
-0.129999999999999
 13
0.155
 23
-0.27
 33
-0.121339745962155
  0
3DFACE
  5
30D9
  8
SLEEVE_39
 10
0.15
 20
-0.26
 30
-0.129999999999999
 11
0.155
 21
-0.26
 31
-0.1386602540378448
 12
0.155
 22
-0.27
 32
-0.1386602540378448
 13
0.15
 23
-0.27
 33
-0.129999999999999
  0
3DFACE
  5
30DA
  8
SLEEVE_39
 10
0.155
 20
-0.26
 30
-0.1386602540378448
 11
0.165
 21
-0.26
 31
-0.1386602540378448
 12
0.165
 22
-0.27
 32
-0.1386602540378448
 13
0.155
 23
-0.27
 33
-0.1386602540378448
  0
3DFACE
  5
30DB
  8
SLEEVE_39
 10
0.165
 20
-0.26
 30
-0.1386602540378448
 11
0.17
 21
-0.26
 31
-0.129999999999999
 12
0.17
 22
-0.27
 32
-0.129999999999999
 13
0.165
 23
-0.27
 33
-0.1386602540378448
  0
3DFACE
  5
30DC
  8
SLEEVE_39
 10
0.165
 20
-0.27
 30
-0.121339745962155
 11
0.155
 21
-0.27
 31
-0.121339745962155
 12
0.15
 22
-0.27
 32
-0.129999999999999
 13
0.17
 23
-0.27
 33
-0.129999999999999
  0
3DFACE
  5
30DD
  8
SLEEVE_39
 10
0.17
 20
-0.27
 30
-0.129999999999999
 11
0.15
 21
-0.27
 31
-0.129999999999999
 12
0.155
 22
-0.27
 32
-0.1386602540378448
 13
0.165
 23
-0.27
 33
-0.1386602540378448
  0
3DFACE
  5
30DE
  8
SLEEVE_39
 10
0.27
 20
-0.27
 30
-0.129999999999999
 11
0.25
 21
-0.27
 31
-0.129999999999999
 12
0.2550000000000001
 22
-0.27
 32
-0.1386602540378448
 13
0.2650000000000001
 23
-0.27
 33
-0.1386602540378448
  0
3DFACE
  5
30DF
  8
SLEEVE_39
 10
0.2650000000000001
 20
-0.27
 30
-0.121339745962155
 11
0.2550000000000001
 21
-0.27
 31
-0.121339745962155
 12
0.25
 22
-0.27
 32
-0.129999999999999
 13
0.27
 23
-0.27
 33
-0.129999999999999
  0
3DFACE
  5
30E0
  8
SLEEVE_39
 10
0.2650000000000001
 20
-0.26
 30
-0.1386602540378448
 11
0.27
 21
-0.26
 31
-0.129999999999999
 12
0.27
 22
-0.27
 32
-0.129999999999999
 13
0.2650000000000001
 23
-0.27
 33
-0.1386602540378448
  0
3DFACE
  5
30E1
  8
SLEEVE_39
 10
0.2550000000000001
 20
-0.26
 30
-0.1386602540378448
 11
0.2650000000000001
 21
-0.26
 31
-0.1386602540378448
 12
0.2650000000000001
 22
-0.27
 32
-0.1386602540378448
 13
0.2550000000000001
 23
-0.27
 33
-0.1386602540378448
  0
3DFACE
  5
30E2
  8
SLEEVE_39
 10
0.25
 20
-0.26
 30
-0.129999999999999
 11
0.2550000000000001
 21
-0.26
 31
-0.1386602540378448
 12
0.2550000000000001
 22
-0.27
 32
-0.1386602540378448
 13
0.25
 23
-0.27
 33
-0.129999999999999
  0
3DFACE
  5
30E3
  8
SLEEVE_39
 10
0.2550000000000001
 20
-0.26
 30
-0.121339745962155
 11
0.25
 21
-0.26
 31
-0.129999999999999
 12
0.25
 22
-0.27
 32
-0.129999999999999
 13
0.2550000000000001
 23
-0.27
 33
-0.121339745962155
  0
3DFACE
  5
30E4
  8
SLEEVE_39
 10
0.2650000000000001
 20
-0.26
 30
-0.121339745962155
 11
0.2550000000000001
 21
-0.26
 31
-0.121339745962155
 12
0.2550000000000001
 22
-0.27
 32
-0.121339745962155
 13
0.2650000000000001
 23
-0.27
 33
-0.121339745962155
  0
3DFACE
  5
30E5
  8
SLEEVE_39
 10
0.27
 20
-0.26
 30
-0.129999999999999
 11
0.2650000000000001
 21
-0.26
 31
-0.121339745962155
 12
0.2650000000000001
 22
-0.27
 32
-0.121339745962155
 13
0.27
 23
-0.27
 33
-0.129999999999999
  0
3DFACE
  5
30E6
  8
SLEEVE_39
 10
0.27
 20
-0.26
 30
-0.0199999999999996
 11
0.2650000000000001
 21
-0.26
 31
-0.0113397459621556
 12
0.2650000000000001
 22
-0.27
 32
-0.0113397459621556
 13
0.27
 23
-0.27
 33
-0.0199999999999996
  0
3DFACE
  5
30E7
  8
SLEEVE_39
 10
0.2650000000000001
 20
-0.26
 30
-0.0113397459621556
 11
0.2550000000000001
 21
-0.26
 31
-0.0113397459621556
 12
0.2550000000000001
 22
-0.27
 32
-0.0113397459621556
 13
0.2650000000000001
 23
-0.27
 33
-0.0113397459621556
  0
3DFACE
  5
30E8
  8
SLEEVE_39
 10
0.2550000000000001
 20
-0.26
 30
-0.0113397459621556
 11
0.25
 21
-0.26
 31
-0.0199999999999996
 12
0.25
 22
-0.27
 32
-0.0199999999999996
 13
0.2550000000000001
 23
-0.27
 33
-0.0113397459621556
  0
3DFACE
  5
30E9
  8
SLEEVE_39
 10
0.25
 20
-0.26
 30
-0.0199999999999996
 11
0.2550000000000001
 21
-0.26
 31
-0.0286602540378436
 12
0.2550000000000001
 22
-0.27
 32
-0.0286602540378436
 13
0.25
 23
-0.27
 33
-0.0199999999999996
  0
3DFACE
  5
30EA
  8
SLEEVE_39
 10
0.2550000000000001
 20
-0.26
 30
-0.0286602540378436
 11
0.2650000000000001
 21
-0.26
 31
-0.0286602540378436
 12
0.2650000000000001
 22
-0.27
 32
-0.0286602540378436
 13
0.2550000000000001
 23
-0.27
 33
-0.0286602540378436
  0
3DFACE
  5
30EB
  8
SLEEVE_39
 10
0.2650000000000001
 20
-0.26
 30
-0.0286602540378436
 11
0.27
 21
-0.26
 31
-0.0199999999999996
 12
0.27
 22
-0.27
 32
-0.0199999999999996
 13
0.2650000000000001
 23
-0.27
 33
-0.0286602540378436
  0
3DFACE
  5
30EC
  8
SLEEVE_39
 10
0.2650000000000001
 20
-0.27
 30
-0.0113397459621556
 11
0.2550000000000001
 21
-0.27
 31
-0.0113397459621556
 12
0.25
 22
-0.27
 32
-0.0199999999999996
 13
0.27
 23
-0.27
 33
-0.0199999999999996
  0
3DFACE
  5
30ED
  8
SLEEVE_39
 10
0.27
 20
-0.27
 30
-0.0199999999999996
 11
0.25
 21
-0.27
 31
-0.0199999999999996
 12
0.2550000000000001
 22
-0.27
 32
-0.0286602540378436
 13
0.2650000000000001
 23
-0.27
 33
-0.0286602540378436
  0
3DFACE
  5
30EE
  8
SLEEVE_39
 10
0.17
 20
-0.27
 30
-0.0199999999999996
 11
0.15
 21
-0.27
 31
-0.0199999999999996
 12
0.155
 22
-0.27
 32
-0.0286602540378436
 13
0.165
 23
-0.27
 33
-0.0286602540378436
  0
3DFACE
  5
30EF
  8
SLEEVE_39
 10
0.165
 20
-0.27
 30
-0.0113397459621556
 11
0.155
 21
-0.27
 31
-0.0113397459621556
 12
0.15
 22
-0.27
 32
-0.0199999999999996
 13
0.17
 23
-0.27
 33
-0.0199999999999996
  0
3DFACE
  5
30F0
  8
SLEEVE_39
 10
0.165
 20
-0.26
 30
-0.0286602540378436
 11
0.17
 21
-0.26
 31
-0.0199999999999996
 12
0.17
 22
-0.27
 32
-0.0199999999999996
 13
0.165
 23
-0.27
 33
-0.0286602540378436
  0
3DFACE
  5
30F1
  8
SLEEVE_39
 10
0.155
 20
-0.26
 30
-0.0286602540378436
 11
0.165
 21
-0.26
 31
-0.0286602540378436
 12
0.165
 22
-0.27
 32
-0.0286602540378436
 13
0.155
 23
-0.27
 33
-0.0286602540378436
  0
3DFACE
  5
30F2
  8
SLEEVE_39
 10
0.15
 20
-0.26
 30
-0.0199999999999996
 11
0.155
 21
-0.26
 31
-0.0286602540378436
 12
0.155
 22
-0.27
 32
-0.0286602540378436
 13
0.15
 23
-0.27
 33
-0.0199999999999996
  0
3DFACE
  5
30F3
  8
SLEEVE_39
 10
0.155
 20
-0.26
 30
-0.0113397459621556
 11
0.15
 21
-0.26
 31
-0.0199999999999996
 12
0.15
 22
-0.27
 32
-0.0199999999999996
 13
0.155
 23
-0.27
 33
-0.0113397459621556
  0
3DFACE
  5
30F4
  8
SLEEVE_39
 10
0.165
 20
-0.26
 30
-0.0113397459621556
 11
0.155
 21
-0.26
 31
-0.0113397459621556
 12
0.155
 22
-0.27
 32
-0.0113397459621556
 13
0.165
 23
-0.27
 33
-0.0113397459621556
  0
3DFACE
  5
30F5
  8
SLEEVE_39
 10
0.17
 20
-0.26
 30
-0.0199999999999996
 11
0.165
 21
-0.26
 31
-0.0113397459621556
 12
0.165
 22
-0.27
 32
-0.0113397459621556
 13
0.17
 23
-0.27
 33
-0.0199999999999996
  0
3DFACE
  5
30F6
  8
SLEEVE_39
 10
0.15
 20
-0.26
 30
0.0
 11
0.15
 21
-0.2699999999999999
 31
0.0099999999999998
 12
0.15
 22
-0.27
 32
-0.0660000000000007
 13
0.15
 23
-0.26
 33
-0.0800000000000001
  0
3DFACE
  5
30F7
  8
SLEEVE_39
 10
0.1294974746830584
 20
-0.26
 30
-0.1294974746830579
 11
0.0800000000000001
 21
-0.2599999999999999
 31
-0.1499999999999986
 12
0.27
 22
-0.26
 32
-0.1500000000000003
 13
0.27
 23
-0.26
 33
-0.1500000000000003
  0
3DFACE
  5
30F8
  8
SLEEVE_39
 10
0.1500000000000001
 20
-0.26
 30
-0.0800000000000001
 11
0.1294974746830584
 21
-0.26
 31
-0.1294974746830579
 12
0.27
 22
-0.26
 32
-0.1500000000000003
 13
0.27
 23
-0.26
 33
-0.1500000000000003
  0
3DFACE
  5
30F9
  8
SLEEVE_39
 10
0.25
 20
-0.16
 30
-0.1500000000000003
 11
0.27
 21
-0.18
 31
-0.1500000000000003
 12
0.0800000000000001
 22
-0.26
 32
-0.1500000000000003
 13
0.0800000000000001
 23
-0.2599999999999999
 33
-0.1499999999999986
  0
3DFACE
  5
30FA
  8
SLEEVE_39
 10
0.27
 20
-0.18
 30
0.0
 11
0.27
 21
-0.18
 31
-0.1500000000000003
 12
0.25
 22
-0.16
 32
-0.1500000000000003
 13
0.25
 23
-0.16
 33
0.0
  0
3DFACE
  5
30FB
  8
SLEEVE_39
 10
0.1500000000000001
 20
-0.26
 30
0.0
 11
0.1500000000000001
 21
-0.26
 31
0.0
 12
0.27
 22
-0.18
 32
0.0
 13
0.25
 23
-0.16
 33
0.0
  0
3DFACE
  5
30FC
  8
SLEEVE_39
 10
0.1500000000000001
 20
-0.26
 30
0.0
 11
0.1500000000000001
 21
-0.26
 31
0.0
 12
0.27
 22
-0.26
 32
0.0
 13
0.27
 23
-0.18
 33
0.0
  0
3DFACE
  5
30FD
  8
SLEEVE_39
 10
0.27
 20
-0.18
 30
-0.1500000000000003
 11
0.27
 21
-0.26
 31
-0.1500000000000003
 12
0.0800000000000001
 22
-0.26
 32
-0.1500000000000003
 13
0.0800000000000001
 23
-0.2599999999999999
 33
-0.1499999999999986
  0
3DFACE
  5
30FE
  8
SLEEVE_39
 10
0.27
 20
-0.26
 30
0.0
 11
0.27
 21
-0.26
 31
-0.1500000000000003
 12
0.27
 22
-0.18
 32
-0.1500000000000003
 13
0.27
 23
-0.18
 33
0.0
  0
3DFACE
  5
30FF
  8
SLEEVE_39
 10
0.1500000000000001
 20
-0.26
 30
0.0
 11
0.1500000000000001
 21
-0.26
 31
-0.0800000000000001
 12
0.27
 22
-0.26
 32
-0.1500000000000003
 13
0.27
 23
-0.26
 33
0.0
  0
3DFACE
  5
3100
  8
SLEEVE_39
 10
0.25
 20
0.0000000000000001
 30
-0.1500000000000003
 11
0.25
 21
-0.16
 31
-0.1500000000000003
 12
0.0800000000000001
 22
-0.2599999999999999
 32
-0.1499999999999986
 13
0.0800000000000001
 23
0.0000000000000001
 33
-0.1500000000000003
  0
3DFACE
  5
3101
  8
SLEEVE_39
 10
0.25
 20
0.0000000000000001
 30
0.0
 11
0.25
 21
0.0000000000000001
 31
-0.1500000000000003
 12
0.0800000000000001
 22
0.0000000000000001
 32
-0.1500000000000003
 13
0.1500000000000001
 23
0.0000000000000001
 33
0.0
  0
3DFACE
  5
3102
  8
SLEEVE_39
 10
0.1500000000000001
 20
0.0000000000000001
 30
0.0
 11
0.1500000000000001
 21
-0.26
 31
0.0
 12
0.25
 22
-0.16
 32
0.0
 13
0.25
 23
0.0000000000000001
 33
0.0
  0
3DFACE
  5
3103
  8
SLEEVE_39
 10
0.25
 20
-0.16
 30
0.0
 11
0.25
 21
-0.16
 31
-0.1500000000000003
 12
0.25
 22
0.0000000000000001
 32
-0.1500000000000003
 13
0.25
 23
0.0000000000000001
 33
0.0
  0
3DFACE
  5
3130
  8
SLEEVE_39
 10
0.15
 20
0.0000000000000001
 30
0.0
 11
0.15
 21
0.0
 31
0.0099999999999998
 12
0.15
 22
-0.2699999999999999
 32
0.0099999999999998
 13
0.15
 23
-0.26
 33
0.0
  0
3DFACE
  5
3132
  8
SLEEVE_39
 10
0.15
 20
0.0
 30
0.0099999999999998
 11
0.1294974746830583
 21
0.0
 31
0.0594974746830577
 12
0.1294974746830583
 22
-0.61
 32
0.0594974746830577
 13
0.15
 23
-0.61
 33
0.0099999999999998
  0
3DFACE
  5
3133
  8
SLEEVE_39
 10
0.1294974746830583
 20
0.0
 30
0.0594974746830577
 11
0.08
 21
0.0
 31
0.0800000000000001
 12
0.08
 22
-0.61
 32
0.0800000000000001
 13
0.1294974746830583
 23
-0.61
 33
0.0594974746830577
  0
3DFACE
  5
3134
  8
SLEEVE_39
 10
0.08
 20
0.0
 30
0.0800000000000001
 11
0.0305025253169417
 21
0.0
 31
0.0594974746830577
 12
0.0305025253169417
 22
-0.61
 32
0.0594974746830577
 13
0.08
 23
-0.61
 33
0.0800000000000001
  0
3DFACE
  5
3135
  8
SLEEVE_39
 10
0.0305025253169417
 20
0.0
 30
0.0594974746830577
 11
0.01
 21
0.0
 31
0.0099999999999998
 12
0.01
 22
-0.61
 32
0.0099999999999998
 13
0.0305025253169417
 23
-0.61
 33
0.0594974746830577
  0
3DFACE
  5
313F
  8
SLEEVE_39
 10
0.15
 20
-0.6100000000000004
 30
-0.0100000000000016
 11
0.1294974746830583
 21
-0.6100000000000004
 31
-0.0594974746830594
 12
0.1294974746830583
 22
-0.3100000000000003
 32
-0.0594974746830594
 13
0.15
 23
-0.3100000000000003
 33
-0.0100000000000016
  0
3DFACE
  5
3140
  8
SLEEVE_39
 10
0.0305025253169417
 20
-0.6100000000000004
 30
-0.0594974746830594
 11
0.01
 21
-0.6100000000000004
 31
-0.0100000000000016
 12
0.01
 22
-0.3100000000000003
 32
-0.0100000000000016
 13
0.0305025253169417
 23
-0.3100000000000003
 33
-0.0594974746830594
  0
3DFACE
  5
3141
  8
SLEEVE_39
 10
0.1294974746830583
 20
-0.6100000000000004
 30
-0.0594974746830594
 11
0.08
 21
-0.6100000000000004
 31
-0.0800000000000019
 12
0.08
 22
-0.3100000000000003
 32
-0.0800000000000019
 13
0.1294974746830583
 23
-0.3100000000000003
 33
-0.0594974746830594
  0
3DFACE
  5
3142
  8
SLEEVE_39
 10
0.08
 20
-0.6100000000000004
 30
-0.0800000000000019
 11
0.0305025253169417
 21
-0.6100000000000004
 31
-0.0594974746830594
 12
0.0305025253169417
 22
-0.3100000000000003
 32
-0.0594974746830594
 13
0.08
 23
-0.3100000000000003
 33
-0.0800000000000019
  0
3DFACE
  5
3158
  8
SLEEVE_39
 10
0.15
 20
-0.61
 30
0.0099999999999998
 11
0.1294974746830583
 21
-0.61
 31
0.0594974746830577
 12
0.1188908729652601
 22
-0.63
 32
0.0488908729652593
 13
0.135
 23
-0.63
 33
0.0099999999999998
  0
3DFACE
  5
3159
  8
SLEEVE_39
 10
0.1294974746830583
 20
-0.61
 30
0.0594974746830577
 11
0.08
 21
-0.61
 31
0.0800000000000001
 12
0.08
 22
-0.63
 32
0.0649999999999995
 13
0.1188908729652601
 23
-0.63
 33
0.0488908729652593
  0
3DFACE
  5
315A
  8
SLEEVE_39
 10
0.08
 20
-0.61
 30
0.0800000000000001
 11
0.0305025253169417
 21
-0.61
 31
0.0594974746830577
 12
0.0411091270347399
 22
-0.63
 32
0.0488908729652593
 13
0.08
 23
-0.63
 33
0.0649999999999995
  0
3DFACE
  5
315B
  8
SLEEVE_39
 10
0.0305025253169417
 20
-0.61
 30
0.0594974746830577
 11
0.01
 21
-0.61
 31
0.0099999999999998
 12
0.025
 22
-0.63
 32
0.0099999999999998
 13
0.0411091270347399
 23
-0.63
 33
0.0488908729652593
  0
3DFACE
  5
315C
  8
SLEEVE_39
 10
0.01
 20
-0.61
 30
-0.0099999999999998
 11
0.0305025253169417
 21
-0.61
 31
-0.0594974746830577
 12
0.0411091270347399
 22
-0.63
 32
-0.0488908729652593
 13
0.025
 23
-0.63
 33
-0.0099999999999998
  0
3DFACE
  5
315D
  8
SLEEVE_39
 10
0.0305025253169417
 20
-0.61
 30
-0.0594974746830577
 11
0.08
 21
-0.61
 31
-0.0800000000000001
 12
0.08
 22
-0.63
 32
-0.0649999999999995
 13
0.0411091270347399
 23
-0.63
 33
-0.0488908729652593
  0
3DFACE
  5
315E
  8
SLEEVE_39
 10
0.08
 20
-0.61
 30
-0.0800000000000001
 11
0.1294974746830583
 21
-0.61
 31
-0.0594974746830577
 12
0.1188908729652601
 22
-0.63
 32
-0.0488908729652593
 13
0.08
 23
-0.63
 33
-0.0649999999999995
  0
3DFACE
  5
315F
  8
SLEEVE_39
 10
0.1294974746830583
 20
-0.61
 30
-0.0594974746830577
 11
0.15
 21
-0.61
 31
-0.0099999999999998
 12
0.135
 22
-0.63
 32
-0.0099999999999998
 13
0.1188908729652601
 23
-0.63
 33
-0.0488908729652593
  0
3DFACE
  5
3184
  8
SLEEVE_39
 10
0.0411091270347399
 20
-0.63
 30
0.0488908729652593
 11
0.025
 21
-0.63
 31
0.0099999999999998
 12
0.04
 22
-0.63
 32
0.0
 13
0.0517157287525381
 23
-0.63
 33
0.0282842712474611
  0
3DFACE
  5
3185
  8
SLEEVE_39
 10
0.08
 20
-0.63
 30
0.0649999999999995
 11
0.0411091270347398
 21
-0.63
 31
0.0488908729652593
 12
0.0517157287525381
 22
-0.63
 32
0.0282842712474611
 13
0.08
 23
-0.63
 33
0.0399999999999992
  0
3DFACE
  5
3186
  8
SLEEVE_39
 10
0.1188908729652601
 20
-0.63
 30
0.0488908729652593
 11
0.08
 21
-0.63
 31
0.0649999999999995
 12
0.08
 22
-0.63
 32
0.0399999999999992
 13
0.1082842712474619
 23
-0.63
 33
0.0282842712474611
  0
3DFACE
  5
3187
  8
SLEEVE_39
 10
0.135
 20
-0.63
 30
0.0099999999999998
 11
0.1188908729652601
 21
-0.63
 31
0.0488908729652593
 12
0.1082842712474619
 22
-0.63
 32
0.0282842712474611
 13
0.12
 23
-0.63
 33
0.0
  0
3DFACE
  5
3188
  8
SLEEVE_39
 10
0.08
 20
-0.63
 30
-0.0649999999999995
 11
0.1188908729652602
 21
-0.63
 31
-0.0488908729652593
 12
0.1082842712474619
 22
-0.63
 32
-0.0282842712474611
 13
0.08
 23
-0.63
 33
-0.0399999999999992
  0
3DFACE
  5
3189
  8
SLEEVE_39
 10
0.1188908729652601
 20
-0.63
 30
-0.0488908729652593
 11
0.135
 21
-0.63
 31
-0.0099999999999998
 12
0.12
 22
-0.63
 32
0.0
 13
0.1082842712474619
 23
-0.63
 33
-0.0282842712474611
  0
3DFACE
  5
318A
  8
SLEEVE_39
 10
0.0411091270347399
 20
-0.63
 30
-0.0488908729652593
 11
0.08
 21
-0.63
 31
-0.0649999999999995
 12
0.08
 22
-0.63
 32
-0.0399999999999992
 13
0.0517157287525381
 23
-0.63
 33
-0.0282842712474611
  0
3DFACE
  5
318B
  8
SLEEVE_39
 10
0.025
 20
-0.63
 30
-0.0099999999999998
 11
0.0411091270347399
 21
-0.63
 31
-0.0488908729652593
 12
0.0517157287525381
 22
-0.63
 32
-0.0282842712474611
 13
0.04
 23
-0.63
 33
0.0
  0
3DFACE
  5
318C
  8
SLEEVE_39
 10
0.025
 20
-0.63
 30
0.0099999999999998
 11
0.025
 21
-0.63
 31
-0.0099999999999998
 12
0.04
 22
-0.63
 32
0.0
 13
0.04
 23
-0.63
 33
0.0
  0
3DFACE
  5
318D
  8
SLEEVE_39
 10
0.135
 20
-0.63
 30
-0.0099999999999998
 11
0.135
 21
-0.63
 31
0.0099999999999998
 12
0.12
 22
-0.63
 32
0.0
 13
0.12
 23
-0.63
 33
0.0
  0
3DFACE
  5
318E
  8
SLEEVE_39
 10
0.01
 20
-0.61
 30
0.0099999999999998
 11
0.0100000000000003
 21
-0.6100000000000004
 31
-0.0099999999999998
 12
0.025
 22
-0.63
 32
-0.0099999999999998
 13
0.025
 23
-0.63
 33
0.0099999999999998
  0
3DFACE
  5
3190
  8
SLEEVE_39
 10
0.1499999999999997
 20
-0.6100000000000004
 30
-0.0099999999999998
 11
0.15
 21
-0.61
 31
0.0099999999999998
 12
0.135
 22
-0.63
 32
0.0099999999999998
 13
0.1349999999999997
 23
-0.6300000000000005
 33
-0.0099999999999998
  0
3DFACE
  5
3192
  8
SLEEVE_39
 10
0.08
 20
-0.3100000000000003
 30
-0.0800000000000019
 11
0.0305025253169417
 21
-0.3100000000000003
 31
-0.0594974746830594
 12
0.0305025253169417
 22
-0.26
 32
-0.1294974746830579
 13
0.08
 23
-0.26
 33
-0.1500000000000003
  0
3DFACE
  5
3193
  8
SLEEVE_39
 10
0.1294974746830583
 20
-0.3100000000000003
 30
-0.0594974746830594
 11
0.08
 21
-0.3100000000000003
 31
-0.0800000000000019
 12
0.08
 22
-0.26
 32
-0.1500000000000003
 13
0.1294974746830583
 23
-0.26
 33
-0.1294974746830579
  0
3DFACE
  5
3194
  8
SLEEVE_39
 10
0.0305025253169417
 20
-0.3100000000000003
 30
-0.0594974746830594
 11
0.01
 21
-0.3100000000000003
 31
-0.0100000000000016
 12
0.01
 22
-0.26
 32
-0.0800000000000001
 13
0.0305025253169417
 23
-0.26
 33
-0.1294974746830579
  0
3DFACE
  5
3195
  8
SLEEVE_39
 10
0.15
 20
-0.3100000000000003
 30
-0.0100000000000016
 11
0.1294974746830583
 21
-0.3100000000000003
 31
-0.0594974746830594
 12
0.1294974746830583
 22
-0.26
 32
-0.1294974746830579
 13
0.15
 23
-0.26
 33
-0.0800000000000001
  0
3DFACE
  5
3196
  8
SLEEVE_39
 10
0.08
 20
-0.26
 30
-0.1500000000000003
 11
0.0305025253169417
 21
-0.26
 31
-0.1294974746830579
 12
0.0305025253169417
 22
0.0
 32
-0.1294974746830579
 13
0.08
 23
0.0
 33
-0.1500000000000003
  0
3DFACE
  5
3197
  8
SLEEVE_39
 10
0.1294974746830583
 20
-0.26
 30
-0.1294974746830579
 11
0.08
 21
-0.26
 31
-0.1500000000000003
 12
0.08
 22
0.0
 32
-0.1500000000000003
 13
0.1294974746830583
 23
0.0
 33
-0.1294974746830579
  0
3DFACE
  5
3198
  8
SLEEVE_39
 10
0.0305025253169417
 20
-0.26
 30
-0.1294974746830579
 11
0.01
 21
-0.26
 31
-0.0800000000000001
 12
0.01
 22
0.0
 32
-0.0800000000000001
 13
0.0305025253169417
 23
0.0
 33
-0.1294974746830579
  0
3DFACE
  5
3199
  8
SLEEVE_39
 10
0.15
 20
-0.26
 30
-0.0800000000000001
 11
0.1294974746830583
 21
-0.26
 31
-0.1294974746830579
 12
0.1294974746830583
 22
0.0
 32
-0.1294974746830579
 13
0.15
 23
0.0
 33
-0.0800000000000001
  0
3DFACE
  5
319A
  8
SLEEVE_39
 10
0.01
 20
0.0
 30
0.0099999999999998
 11
0.01
 21
0.0
 31
-0.0800000000000001
 12
0.01
 22
-0.26
 32
-0.0800000000000001
 13
0.01
 23
-0.26
 33
0.0099999999999998
  0
3DFACE
  5
319B
  8
SLEEVE_39
 10
0.1500000000000001
 20
-0.3100000000000003
 30
-0.0100000000000016
 11
0.15
 21
-0.2699999999999999
 31
0.0099999999999998
 12
0.15
 22
-0.61
 32
0.0099999999999998
 13
0.1499999999999997
 23
-0.6100000000000004
 33
-0.0099999999999998
  0
3DFACE
  5
319C
  8
SLEEVE_39
 10
0.01
 20
-0.26
 30
0.0099999999999998
 11
0.01
 21
-0.3100000000000003
 31
-0.0100000000000016
 12
0.01
 22
-0.61
 32
-0.0099999999999998
 13
0.01
 23
-0.61
 33
0.0099999999999998
  0
3DFACE
  5
319D
  8
SLEEVE_39
 10
0.01
 20
-0.3100000000000003
 30
-0.0100000000000016
 11
0.01
 21
-0.26
 31
0.0099999999999998
 12
0.01
 22
-0.26
 32
0.0099999999999998
 13
0.01
 23
-0.26
 33
-0.0800000000000001
  0
3DFACE
  5
319E
  8
SLEEVE_39
 10
0.15
 20
-0.3100000000000003
 30
-0.0100000000000016
 11
0.15
 21
-0.3100000000000003
 31
-0.0100000000000016
 12
0.15
 22
-0.27
 32
-0.0660000000000007
 13
0.15
 23
-0.2699999999999999
 33
0.0099999999999998
  0
VIEWPORT
  5
2E
 67
     1
  8
0
 10
144.7270812988281
 20
101.2295806407928
 30
0.0
 40
391.13550988316581
 41
222.15178063964839
 68
     2
 69
     1
1001
ACAD
1000
MVIEW
1002
{
1070
    16
1010
0.0
1020
0.0
1030
0.0
1010
0.0
1020
0.0
1030
1.0
1040
0.0
1040
222.15178063964839
1040
144.7270812988281
1040
101.2295806407928
1040
50.0
1040
0.0
1040
0.0
1070
     0
1070
   100
1070
     1
1070
     1
1070
     0
1070
     0
1070
     0
1070
     0
1040
0.0
1040
0.0
1040
0.0
1040
10.0
1040
10.0
1040
10.0
1040
10.0
1070
     0
1002
{
1002
}
1002
}
  0
VIEWPORT
  5
30
 67
     1
  8
0
 10
139.22375631332389
 20
100.8062499761581
 30
0.0
 40
222.75801010131829
 41
161.289999961853
 68
     1
 69
     2
1001
ACAD
1000
MVIEW
1002
{
1070
    16
1010
0.0
1020
0.0
1030
0.0
1010
0.0
1020
0.0
1030
1.0
1040
0.0
1040
307.49010134148989
1040
210.0
1040
148.5
1040
50.0
1040
0.0
1040
0.0
1070
     0
1070
   100
1070
     1
1070
     3
1070
     0
1070
     1
1070
     0
1070
     0
1040
0.0
1040
0.0
1040
0.0
1040
10.0
1040
10.0
1040
10.0
1040
10.0
1070
     0
1002
{
1002
}
1002
}
  0
ENDSEC
  0
EOF
