  0
SECTION
  2
HEADER
  9
$ACADVER
  1
AC1009
  9
$INSBASE
 10
0.0
 20
0.0
 30
0.0
  9
$EXTMIN
 10
-0.9399999999999998
 20
-2.4944593573693199
 30
-2.75
  9
$EXTMAX
 10
1.1799999999999999
 20
12.960000000000001
 30
17.364097197651681
  9
$LIMMIN
 10
0.0
 20
0.0
  9
$LIMMAX
 10
420.0
 20
297.0
  9
$ORTHOMODE
 70
     1
  9
$REGENMODE
 70
     1
  9
$FILLMODE
 70
     1
  9
$QTEXTMODE
 70
     0
  9
$MIRRTEXT
 70
     1
  9
$DRAGMODE
 70
     2
  9
$LTSCALE
 40
1.0
  9
$OSMODE
 70
    35
  9
$ATTMODE
 70
     1
  9
$TEXTSIZE
 40
2.5
  9
$TRACEWID
 40
1.0
  9
$TEXTSTYLE
  7
STANDARD
  9
$CLAYER
  8
TAIL
  9
$CELTYPE
  6
BYLAYER
  9
$CECOLOR
 62
   256
  9
$DIMSCALE
 40
1.0
  9
$DIMASZ
 40
2.5
  9
$DIMEXO
 40
0.625
  9
$DIMDLI
 40
3.75
  9
$DIMRND
 40
0.0
  9
$DIMDLE
 40
0.0
  9
$DIMEXE
 40
1.25
  9
$DIMTP
 40
0.0
  9
$DIMTM
 40
0.0
  9
$DIMTXT
 40
2.5
  9
$DIMCEN
 40
2.5
  9
$DIMTSZ
 40
0.0
  9
$DIMTOL
 70
     0
  9
$DIMLIM
 70
     0
  9
$DIMTIH
 70
     0
  9
$DIMTOH
 70
     0
  9
$DIMSE1
 70
     0
  9
$DIMSE2
 70
     0
  9
$DIMTAD
 70
     1
  9
$DIMZIN
 70
     8
  9
$DIMBLK
  1

  9
$DIMASO
 70
     1
  9
$DIMSHO
 70
     1
  9
$DIMPOST
  1

  9
$DIMAPOST
  1

  9
$DIMALT
 70
     0
  9
$DIMALTD
 70
     3
  9
$DIMALTF
 40
0.03937007874016
  9
$DIMLFAC
 40
1.0
  9
$DIMTOFL
 70
     1
  9
$DIMTVP
 40
0.0
  9
$DIMTIX
 70
     0
  9
$DIMSOXD
 70
     0
  9
$DIMSAH
 70
     0
  9
$DIMBLK1
  1

  9
$DIMBLK2
  1

  9
$DIMSTYLE
  2
ISO-25
  9
$DIMCLRD
 70
     0
  9
$DIMCLRE
 70
     0
  9
$DIMCLRT
 70
     0
  9
$DIMTFAC
 40
1.0
  9
$DIMGAP
 40
0.625
  9
$LUNITS
 70
     2
  9
$LUPREC
 70
     4
  9
$SKETCHINC
 40
1.0
  9
$FILLETRAD
 40
10.0
  9
$AUNITS
 70
     0
  9
$AUPREC
 70
     0
  9
$MENU
  1
.
  9
$ELEVATION
 40
0.0
  9
$PELEVATION
 40
0.0
  9
$THICKNESS
 40
0.0
  9
$LIMCHECK
 70
     0
  9
$BLIPMODE
 70
     0
  9
$CHAMFERA
 40
10.0
  9
$CHAMFERB
 40
10.0
  9
$SKPOLY
 70
     0
  9
$TDCREATE
 40
2457646.558887349
  9
$TDUPDATE
 40
2457659.4610940968
  9
$TDINDWG
 40
1.7930503704
  9
$TDUSRTIMER
 40
1.7930503588
  9
$USRTIMER
 70
     1
  9
$ANGBASE
 50
0.0
  9
$ANGDIR
 70
     0
  9
$PDMODE
 70
     0
  9
$PDSIZE
 40
0.0
  9
$PLINEWID
 40
0.0
  9
$COORDS
 70
     1
  9
$SPLFRAME
 70
     0
  9
$SPLINETYPE
 70
     6
  9
$SPLINESEGS
 70
     8
  9
$ATTDIA
 70
     1
  9
$ATTREQ
 70
     1
  9
$HANDLING
 70
-16383
  9
$HANDSEED
  5
31EB
  9
$SURFTAB1
 70
     6
  9
$SURFTAB2
 70
     6
  9
$SURFTYPE
 70
     6
  9
$SURFU
 70
     6
  9
$SURFV
 70
     6
  9
$UCSNAME
  2

  9
$UCSORG
 10
0.0
 20
0.0
 30
0.0
  9
$UCSXDIR
 10
0.0
 20
-1.0
 30
0.0
  9
$UCSYDIR
 10
0.0
 20
0.0
 30
1.0
  9
$PUCSNAME
  2

  9
$PUCSORG
 10
0.0
 20
0.0
 30
0.0
  9
$PUCSXDIR
 10
1.0
 20
0.0
 30
0.0
  9
$PUCSYDIR
 10
0.0
 20
1.0
 30
0.0
  9
$USERI1
 70
     0
  9
$USERI2
 70
     0
  9
$USERI3
 70
     0
  9
$USERI4
 70
     0
  9
$USERI5
 70
     0
  9
$USERR1
 40
0.0
  9
$USERR2
 40
0.0
  9
$USERR3
 40
0.0
  9
$USERR4
 40
0.0
  9
$USERR5
 40
0.0
  9
$WORLDVIEW
 70
     1
  9
$SHADEDGE
 70
     3
  9
$SHADEDIF
 70
    70
  9
$TILEMODE
 70
     1
  9
$MAXACTVP
 70
    64
  9
$PLIMCHECK
 70
     0
  9
$PEXTMIN
 10
27.844751262664801
 20
20.161249995231621
 30
0.0
  9
$PEXTMAX
 10
250.60276136398309
 20
181.4512499570846
 30
0.0
  9
$PLIMMIN
 10
-3.757080078125
 20
-3.7570831775665279
  9
$PLIMMAX
 10
293.21124267578119
 20
206.21624445915219
  9
$UNITMODE
 70
     0
  9
$VISRETAIN
 70
     1
  9
$PLINEGEN
 70
     0
  9
$PSLTSCALE
 70
     1
  0
ENDSEC
  0
SECTION
  2
TABLES
  0
TABLE
  2
VPORT
 70
     3
  0
VPORT
  2
*ACTIVE
 70
     0
 10
0.0
 20
0.0
 11
1.0
 21
1.0
 12
7.9572105164221787
 22
1.924151015062967
 13
0.0
 23
0.0
 14
0.01
 24
0.01
 15
1.0
 25
1.0
 16
-1.0
 26
0.0
 36
0.0
 17
0.0
 27
0.0
 37
0.0
 40
71.712979920644059
 41
2.1655092592592591
 42
50.0
 43
0.0
 44
0.0
 50
0.0
 51
0.0
 71
     0
 72
   100
 73
     1
 74
     3
 75
     1
 76
     1
 77
     0
 78
     0
  0
ENDTAB
  0
TABLE
  2
LTYPE
 70
     1
  0
LTYPE
  2
CONTINUOUS
 70
     0
  3
Solid line
 72
    65
 73
     0
 40
0.0
  0
ENDTAB
  0
TABLE
  2
LAYER
 70
    17
  0
LAYER
  2
0
 70
     0
 62
     7
  6
CONTINUOUS
  0
LAYER
  2
DRAWING
 70
     0
 62
     9
  6
CONTINUOUS
  0
LAYER
  2
TMP
 70
     0
 62
     4
  6
CONTINUOUS
  0
LAYER
  2
SUSPENSION
 70
     0
 62
     5
  6
CONTINUOUS
  0
LAYER
  2
WHEELS
 70
     0
 62
     2
  6
CONTINUOUS
  0
LAYER
  2
TRACKS
 70
     0
 62
     3
  6
CONTINUOUS
  0
LAYER
  2
FENDERS
 70
     0
 62
     6
  6
CONTINUOUS
  0
LAYER
  2
BACK_35
 70
     0
 62
     2
  6
CONTINUOUS
  0
LAYER
  2
TURRET
 70
     0
 62
     2
  6
CONTINUOUS
  0
LAYER
  2
SLEEVE
 70
     0
 62
     5
  6
CONTINUOUS
  0
LAYER
  2
GUN
 70
     0
 62
     1
  6
CONTINUOUS
  0
LAYER
  2
BACK_H39
 70
     0
 62
     2
  6
CONTINUOUS
  0
LAYER
  2
TAIL
 70
     0
 62
     6
  6
CONTINUOUS
  0
LAYER
  2
TENT
 70
     0
 62
     3
  6
CONTINUOUS
  0
LAYER
  2
TOOLS
 70
     0
 62
     3
  6
CONTINUOUS
  0
LAYER
  2
REAR_WHEEL_39
 70
     0
 62
     2
  6
CONTINUOUS
  0
LAYER
  2
SLEEVE_39
 70
     0
 62
     5
  6
CONTINUOUS
  0
ENDTAB
  0
TABLE
  2
STYLE
 70
     1
  0
STYLE
  2
STANDARD
 70
     0
 40
0.0
 41
1.0
 50
0.0
 71
     0
 42
2.5
  3
txt
  4

  0
ENDTAB
  0
TABLE
  2
VIEW
 70
     0
  0
ENDTAB
  0
TABLE
  2
UCS
 70
     0
  0
ENDTAB
  0
TABLE
  2
APPID
 70
     1
  0
APPID
  2
ACAD
 70
     0
  0
ENDTAB
  0
TABLE
  2
DIMSTYLE
 70
     1
  0
DIMSTYLE
  2
ISO-25
 70
     0
  3

  4

  5

  6

  7

 40
1.0
 41
2.5
 42
0.625
 43
3.75
 44
1.25
 45
0.0
 46
0.0
 47
0.0
 48
0.0
140
2.5
141
2.5
142
0.0
143
0.03937007874016
144
1.0
145
0.0
146
1.0
147
0.625
 71
     0
 72
     0
 73
     0
 74
     0
 75
     0
 76
     0
 77
     1
 78
     8
170
     0
171
     3
172
     1
173
     0
174
     0
175
     0
176
     0
177
     0
178
     0
  0
ENDTAB
  0
ENDSEC
  0
SECTION
  2
BLOCKS
  0
BLOCK
  8
0
  2
$MODEL_SPACE
 70
     0
 10
0.0
 20
0.0
 30
0.0
  3
$MODEL_SPACE
  1

  0
ENDBLK
  5
21
  8
0
  0
BLOCK
 67
     1
  8
0
  2
$PAPER_SPACE
 70
     0
 10
0.0
 20
0.0
 30
0.0
  3
$PAPER_SPACE
  1

  0
ENDBLK
  5
1D
 67
     1
  8
0
  0
ENDSEC
  0
SECTION
  2
ENTITIES
  0
3DFACE
  5
2544
  8
TAIL
 10
-0.23
 20
2.7999999999999998
 30
1.0300000000000009
 11
-0.23
 21
2.7799999999999998
 31
1.0199999999999989
 12
-0.23
 22
2.7400000000000002
 32
1.110000000000001
 13
-0.23
 23
2.7599999999999998
 33
1.1200000000000001
  0
3DFACE
  5
2545
  8
TAIL
 10
0.23
 20
2.7400000000000002
 30
1.110000000000001
 11
0.23
 21
2.7799999999999998
 31
1.0199999999999989
 12
0.23
 22
2.7999999999999998
 32
1.0300000000000009
 13
0.23
 23
2.7599999999999998
 33
1.1200000000000001
  0
3DFACE
  5
2546
  8
TAIL
 10
-0.23
 20
2.7599999999999998
 30
1.1200000000000001
 11
-0.23
 21
2.7400000000000002
 31
1.110000000000001
 12
0.23
 22
2.7400000000000002
 32
1.110000000000001
 13
0.23
 23
2.7599999999999998
 33
1.1200000000000001
  0
3DFACE
  5
2547
  8
TAIL
 10
-0.2
 20
2.7399999999999989
 30
1.109999999999999
 11
-0.2
 21
2.7799999999999958
 31
1.0199999999999969
 12
0.2
 22
2.7800000000000029
 32
1.0200000000000009
 13
0.2
 23
2.7400000000000002
 33
1.110000000000001
  0
3DFACE
  5
2548
  8
TAIL
 10
0.23
 20
2.7599999999999998
 30
1.1200000000000001
 11
0.23
 21
2.7999999999999998
 31
1.0300000000000009
 12
-0.23
 22
2.7999999999999998
 32
1.0300000000000009
 13
-0.23
 23
2.7599999999999998
 33
1.1200000000000001
  0
3DFACE
  5
254C
  8
TAIL
 10
0.23
 20
2.7799999999999998
 30
1.0200000000000009
 11
0.23
 21
2.7799999999999998
 31
0.8700000000000009
 12
0.23
 22
2.7999999999999998
 32
0.8599999999999994
 13
0.23
 23
2.7999999999999998
 33
1.0300000000000009
  0
3DFACE
  5
254D
  8
TAIL
 10
0.23
 20
2.7999999999999998
 30
1.0300000000000009
 11
0.23
 21
2.7999999999999998
 31
0.8599999999999994
 12
-0.23
 22
2.7999999999999998
 32
0.8599999999999994
 13
-0.23
 23
2.7999999999999998
 33
1.0300000000000009
  0
3DFACE
  5
254E
  8
TAIL
 10
-0.23
 20
2.7999999999999998
 30
0.8599999999999994
 11
-0.23
 21
2.7799999999999998
 31
0.8700000000000009
 12
-0.23
 22
2.7799999999999998
 32
1.0200000000000009
 13
-0.23
 23
2.7999999999999998
 33
1.0300000000000009
  0
3DFACE
  5
254F
  8
TAIL
 10
-0.2
 20
2.7799999999999958
 30
1.0199999999999969
 11
-0.2
 21
2.7799999999999998
 31
0.8700000000000027
 12
0.2
 22
2.7799999999999998
 32
0.8700000000000009
 13
0.2
 23
2.7800000000000029
 33
1.0200000000000009
  0
3DFACE
  5
2553
  8
TAIL
 10
-0.23
 20
2.75
 30
0.7599999999999998
 11
-0.23
 21
2.7400000000000002
 31
0.7800000000000013
 12
-0.23
 22
2.7799999999999998
 32
0.8700000000000027
 13
-0.23
 23
2.7999999999999998
 33
0.8599999999999994
  0
3DFACE
  5
2554
  8
TAIL
 10
-0.2
 20
2.7799999999999998
 30
0.8700000000000027
 11
-0.2
 21
2.7400000000000002
 31
0.7800000000000013
 12
0.2
 22
2.7400000000000002
 32
0.7799999999999994
 13
0.2
 23
2.7799999999999998
 33
0.8700000000000009
  0
3DFACE
  5
2555
  8
TAIL
 10
0.23
 20
2.7799999999999998
 30
0.8700000000000027
 11
0.23
 21
2.7400000000000002
 31
0.7800000000000013
 12
0.23
 22
2.75
 32
0.7599999999999998
 13
0.23
 23
2.7999999999999998
 33
0.8599999999999994
  0
3DFACE
  5
2556
  8
TAIL
 10
0.23
 20
2.7999999999999998
 30
0.8599999999999994
 11
0.23
 21
2.75
 31
0.7599999999999998
 12
-0.23
 22
2.75
 32
0.7599999999999998
 13
-0.23
 23
2.7999999999999998
 33
0.8599999999999994
  0
3DFACE
  5
255A
  8
TAIL
 10
-0.2
 20
2.7400000000000002
 30
0.7800000000000013
 11
-0.2
 21
2.649999999999999
 31
0.67
 12
0.2
 22
2.649999999999999
 32
0.67
 13
0.2
 23
2.7400000000000002
 33
0.7799999999999994
  0
3DFACE
  5
255B
  8
TAIL
 10
0.23
 20
2.7400000000000002
 30
0.780000000000003
 11
0.23
 21
2.649999999999999
 31
0.67
 12
0.23
 22
2.6800000000000002
 32
0.6699999999999982
 13
0.23
 23
2.75
 33
0.7599999999999998
  0
3DFACE
  5
255C
  8
TAIL
 10
0.23
 20
2.75
 30
0.7599999999999998
 11
0.23
 21
2.6800000000000002
 31
0.67
 12
-0.23
 22
2.6800000000000002
 32
0.67
 13
-0.23
 23
2.75
 33
0.7599999999999998
  0
3DFACE
  5
255D
  8
TAIL
 10
-0.23
 20
2.6800000000000002
 30
0.6699999999999982
 11
-0.23
 21
2.649999999999999
 31
0.67
 12
-0.23
 22
2.7400000000000002
 32
0.780000000000003
 13
-0.23
 23
2.75
 33
0.7599999999999998
  0
3DFACE
  5
2561
  8
TAIL
 10
0.23
 20
2.6800000000000002
 30
0.6699999999999982
 11
0.23
 21
2.52
 31
0.5600000000000005
 12
-0.23
 22
2.52
 32
0.5600000000000005
 13
-0.23
 23
2.6800000000000002
 33
0.6699999999999982
  0
3DFACE
  5
2562
  8
TAIL
 10
-0.2
 20
2.649999999999999
 30
0.67
 11
-0.2
 21
2.4900000000000002
 31
0.5700000000000003
 12
0.2
 22
2.4900000000000002
 32
0.5700000000000003
 13
0.2
 23
2.649999999999999
 33
0.67
  0
3DFACE
  5
2563
  8
TAIL
 10
-0.23
 20
2.52
 30
0.5600000000000005
 11
-0.23
 21
2.4900000000000002
 31
0.5700000000000003
 12
-0.23
 22
2.649999999999999
 32
0.67
 13
-0.23
 23
2.6800000000000002
 33
0.6699999999999982
  0
3DFACE
  5
2564
  8
TAIL
 10
0.23
 20
2.649999999999999
 30
0.67
 11
0.23
 21
2.4900000000000002
 31
0.5700000000000003
 12
0.23
 22
2.52
 32
0.5600000000000005
 13
0.23
 23
2.6800000000000002
 33
0.6699999999999982
  0
3DFACE
  5
2568
  8
TAIL
 10
0.23
 20
2.4900000000000002
 30
0.5700000000000003
 11
0.23
 21
2.27
 31
0.4900000000000003
 12
0.23
 22
2.2799999999999998
 32
0.4700000000000007
 13
0.23
 23
2.52
 33
0.5600000000000005
  0
3DFACE
  5
2569
  8
TAIL
 10
-0.23
 20
2.2799999999999998
 30
0.4700000000000007
 11
-0.23
 21
2.27
 31
0.4900000000000003
 12
-0.23
 22
2.4900000000000002
 32
0.5700000000000003
 13
-0.23
 23
2.52
 33
0.5600000000000005
  0
3DFACE
  5
256A
  8
TAIL
 10
0.23
 20
2.52
 30
0.5600000000000005
 11
0.23
 21
2.2799999999999998
 31
0.4700000000000007
 12
-0.23
 22
2.2799999999999998
 32
0.4700000000000007
 13
-0.23
 23
2.52
 33
0.5600000000000005
  0
3DFACE
  5
256B
  8
TAIL
 10
-0.2
 20
2.4900000000000002
 30
0.5700000000000003
 11
-0.2
 21
2.27
 31
0.4900000000000003
 12
0.2
 22
2.27
 32
0.4900000000000003
 13
0.2
 23
2.4900000000000002
 33
0.5700000000000003
  0
3DFACE
  5
256F
  8
TAIL
 10
-0.2
 20
2.27
 30
0.4900000000000003
 11
-0.2
 21
2.0600000000000001
 31
0.4399999999999995
 12
0.2
 22
2.0600000000000001
 32
0.4399999999999995
 13
0.2
 23
2.27
 33
0.4900000000000003
  0
3DFACE
  5
2570
  8
TAIL
 10
0.23
 20
2.2799999999999998
 30
0.4700000000000007
 11
0.23
 21
2.0800000000000001
 31
0.42
 12
-0.23
 22
2.0800000000000001
 32
0.42
 13
-0.23
 23
2.2799999999999998
 33
0.4700000000000007
  0
3DFACE
  5
2571
  8
TAIL
 10
0.23
 20
2.0800000000000001
 30
0.42
 11
0.23
 21
2.0600000000000001
 31
0.4399999999999995
 12
-0.23
 22
2.0600000000000001
 32
0.4399999999999995
 13
-0.23
 23
2.0800000000000001
 33
0.42
  0
3DFACE
  5
2572
  8
TAIL
 10
-0.23
 20
2.0800000000000001
 30
0.42
 11
-0.23
 21
2.0600000000000001
 31
0.4399999999999995
 12
-0.23
 22
2.27
 32
0.4900000000000003
 13
-0.23
 23
2.2799999999999998
 33
0.4700000000000007
  0
3DFACE
  5
2573
  8
TAIL
 10
0.23
 20
2.27
 30
0.4900000000000003
 11
0.23
 21
2.0600000000000001
 31
0.4399999999999995
 12
0.23
 22
2.0800000000000001
 32
0.42
 13
0.23
 23
2.2799999999999998
 33
0.4700000000000007
  0
3DFACE
  5
25A4
  8
TAIL
 10
0.2
 20
2.7400000000000002
 30
1.109999999999999
 11
0.2
 21
2.5600000000000001
 31
1.04
 12
0.23
 22
2.5600000000000001
 32
1.04
 13
0.23
 23
2.7400000000000002
 33
1.109999999999999
  0
3DFACE
  5
25A5
  8
TAIL
 10
0.2
 20
2.5600000000000001
 30
1.04
 11
0.2
 21
2.5299999999999998
 31
1.04
 12
0.23
 22
2.5299999999999998
 32
1.04
 13
0.23
 23
2.5600000000000001
 33
1.04
  0
3DFACE
  5
25A6
  8
TAIL
 10
0.2
 20
2.5299999999999998
 30
1.04
 11
0.2
 21
1.6299999999999999
 31
1.1899999999999991
 12
0.23
 22
1.6299999999999999
 32
1.1899999999999991
 13
0.23
 23
2.5299999999999998
 33
1.04
  0
3DFACE
  5
25B5
  8
TAIL
 10
0.2
 20
2.7799999999999998
 30
1.0200000000000009
 11
0.2
 21
2.7000000000000002
 31
1.0199999999999989
 12
0.2
 22
2.5600000000000001
 32
1.040000000000002
 13
0.2
 23
2.7400000000000002
 33
1.110000000000001
  0
3DFACE
  5
25B6
  8
TAIL
 10
0.23
 20
2.7400000000000002
 30
1.109999999999997
 11
0.23
 21
2.5600000000000001
 31
1.0399999999999989
 12
0.23
 22
2.7000000000000002
 32
1.0199999999999989
 13
0.23
 23
2.7799999999999998
 33
1.0200000000000009
  0
3DFACE
  5
25B7
  8
TAIL
 10
0.23
 20
2.7799999999999998
 30
1.0199999999999969
 11
0.23
 21
2.7000000000000002
 31
1.0199999999999989
 12
0.23
 22
2.7200000000000002
 32
0.9900000000000002
 13
0.23
 23
2.7799999999999998
 33
1.0199999999999989
  0
3DFACE
  5
25B8
  8
TAIL
 10
0.2
 20
2.7799999999999998
 30
1.0199999999999989
 11
0.2
 21
2.7200000000000002
 31
0.9900000000000002
 12
0.2
 22
2.7000000000000002
 32
1.0199999999999989
 13
0.2
 23
2.7799999999999998
 33
1.0200000000000009
  0
3DFACE
  5
25B9
  8
TAIL
 10
0.23
 20
2.7799999999999998
 30
1.0199999999999969
 11
0.23
 21
2.7200000000000002
 31
0.9900000000000002
 12
0.23
 22
2.7200000000000002
 32
0.950000000000001
 13
0.23
 23
2.7799999999999998
 33
0.8700000000000009
  0
3DFACE
  5
25BA
  8
TAIL
 10
0.2
 20
2.7799999999999998
 30
0.8700000000000009
 11
0.2
 21
2.7200000000000002
 31
0.950000000000001
 12
0.2
 22
2.7200000000000002
 32
0.9900000000000002
 13
0.2
 23
2.7799999999999998
 33
1.0200000000000009
  0
3DFACE
  5
25BB
  8
TAIL
 10
0.2
 20
2.7400000000000002
 30
0.7800000000000013
 11
0.2
 21
2.7000000000000002
 31
0.8599999999999994
 12
0.2
 22
2.7200000000000002
 32
0.950000000000001
 13
0.2
 23
2.7799999999999998
 33
0.8700000000000009
  0
3DFACE
  5
25BC
  8
TAIL
 10
0.23
 20
2.7799999999999998
 30
0.8700000000000009
 11
0.23
 21
2.7200000000000002
 31
0.950000000000001
 12
0.23
 22
2.7000000000000002
 32
0.8599999999999994
 13
0.23
 23
2.7400000000000002
 33
0.7800000000000013
  0
3DFACE
  5
25BD
  8
TAIL
 10
0.23
 20
2.7400000000000002
 30
0.7799999999999994
 11
0.23
 21
2.7000000000000002
 31
0.8599999999999994
 12
0.23
 22
2.629999999999999
 32
0.7699999999999978
 13
0.23
 23
2.649999999999999
 33
0.67
  0
3DFACE
  5
25BE
  8
TAIL
 10
0.2
 20
2.649999999999999
 30
0.67
 11
0.2
 21
2.629999999999999
 31
0.7699999999999978
 12
0.2
 22
2.7000000000000002
 32
0.8599999999999994
 13
0.2
 23
2.7400000000000002
 33
0.7799999999999994
  0
3DFACE
  5
25BF
  8
TAIL
 10
0.2
 20
2.4900000000000002
 30
0.5700000000000003
 11
0.2
 21
2.6000000000000001
 31
0.7699999999999996
 12
0.2
 22
2.629999999999999
 32
0.7699999999999996
 13
0.2
 23
2.649999999999999
 33
0.67
  0
3DFACE
  5
25C0
  8
TAIL
 10
0.23
 20
2.649999999999999
 30
0.67
 11
0.23
 21
2.629999999999999
 31
0.7699999999999996
 12
0.23
 22
2.6000000000000001
 32
0.7699999999999996
 13
0.23
 23
2.4900000000000002
 33
0.5700000000000003
  0
3DFACE
  5
25C1
  8
TAIL
 10
0.23
 20
2.4900000000000002
 30
0.5700000000000003
 11
0.23
 21
2.6000000000000001
 31
0.7699999999999996
 12
0.23
 22
2.589999999999999
 32
0.7800000000000013
 13
0.23
 23
2.5099999999999998
 33
0.6799999999999998
  0
3DFACE
  5
25C2
  8
TAIL
 10
0.2
 20
2.5099999999999998
 30
0.6799999999999998
 11
0.2
 21
2.589999999999999
 31
0.7800000000000013
 12
0.2
 22
2.6000000000000001
 32
0.7699999999999996
 13
0.2
 23
2.4900000000000002
 33
0.5700000000000003
  0
3DFACE
  5
25C3
  8
TAIL
 10
0.23
 20
2.589999999999999
 30
0.7800000000000013
 11
0.23
 21
2.589999999999999
 31
0.9600000000000009
 12
0.23
 22
2.52
 32
0.950000000000001
 13
0.23
 23
2.52
 33
0.790000000000001
  0
3DFACE
  5
25C4
  8
TAIL
 10
0.2
 20
2.52
 30
0.790000000000001
 11
0.2
 21
2.52
 31
0.950000000000001
 12
0.2
 22
2.589999999999999
 32
0.9600000000000009
 13
0.2
 23
2.589999999999999
 33
0.7800000000000013
  0
3DFACE
  5
25C5
  8
TAIL
 10
0.2
 20
2.5
 30
0.7699999999999996
 11
0.2
 21
2.52
 31
0.790000000000001
 12
0.2
 22
2.589999999999999
 32
0.7800000000000013
 13
0.2
 23
2.5099999999999998
 33
0.6799999999999998
  0
3DFACE
  5
25C6
  8
TAIL
 10
0.23
 20
2.5099999999999998
 30
0.6799999999999998
 11
0.23
 21
2.589999999999999
 31
0.7800000000000013
 12
0.23
 22
2.52
 32
0.790000000000001
 13
0.23
 23
2.5
 33
0.7699999999999996
  0
3DFACE
  5
25C7
  8
TAIL
 10
0.23
 20
2.5
 30
0.6899999999999995
 11
0.23
 21
2.5099999999999998
 31
0.6799999999999998
 12
0.23
 22
2.5
 32
0.7699999999999996
 13
0.23
 23
2.5
 33
0.7699999999999996
  0
3DFACE
  5
25C8
  8
TAIL
 10
0.2
 20
2.5
 30
0.7699999999999996
 11
0.2
 21
2.5
 31
0.7699999999999996
 12
0.2
 22
2.5099999999999998
 32
0.6799999999999998
 13
0.2
 23
2.5
 33
0.6899999999999995
  0
3DFACE
  5
25C9
  8
TAIL
 10
0.23
 20
2.5
 30
0.67
 11
0.23
 21
2.4900000000000002
 31
0.5700000000000003
 12
0.23
 22
2.5099999999999998
 32
0.6799999999999998
 13
0.23
 23
2.5099999999999998
 33
0.6799999999999998
  0
3DFACE
  5
25CA
  8
TAIL
 10
0.2
 20
2.5099999999999998
 30
0.6799999999999998
 11
0.2
 21
2.5099999999999998
 31
0.6799999999999998
 12
0.2
 22
2.4900000000000002
 32
0.5700000000000003
 13
0.2
 23
2.5
 33
0.67
  0
3DFACE
  5
25CB
  8
TAIL
 10
0.23
 20
2.589999999999999
 30
0.9600000000000009
 11
0.23
 21
2.6000000000000001
 31
0.9700000000000006
 12
0.23
 22
2.5
 32
0.9700000000000006
 13
0.23
 23
2.52
 33
0.950000000000001
  0
3DFACE
  5
25CC
  8
TAIL
 10
0.2
 20
2.52
 30
0.950000000000001
 11
0.2
 21
2.5
 31
0.9700000000000006
 12
0.2
 22
2.6000000000000001
 32
0.9700000000000006
 13
0.2
 23
2.589999999999999
 33
0.9600000000000009
  0
3DFACE
  5
25CD
  8
TAIL
 10
0.2
 20
2.5
 30
0.9700000000000006
 11
0.2
 21
2.5299999999999998
 31
1.04
 12
0.2
 22
2.6899999999999991
 32
1.0199999999999989
 13
0.2
 23
2.6000000000000001
 33
0.9700000000000006
  0
3DFACE
  5
25CE
  8
TAIL
 10
0.23
 20
2.6000000000000001
 30
0.9700000000000006
 11
0.23
 21
2.6899999999999991
 31
1.0199999999999989
 12
0.23
 22
2.5299999999999998
 32
1.04
 13
0.23
 23
2.5
 33
0.9700000000000006
  0
3DFACE
  5
25CF
  8
TAIL
 10
0.23
 20
2.6899999999999991
 30
1.0199999999999989
 11
0.23
 21
2.7000000000000002
 31
1.0199999999999989
 12
0.23
 22
2.5600000000000001
 32
1.04
 13
0.23
 23
2.5299999999999989
 33
1.04
  0
3DFACE
  5
25D0
  8
TAIL
 10
0.2
 20
2.5299999999999989
 30
1.04
 11
0.2
 21
2.5600000000000001
 31
1.04
 12
0.2
 22
2.7000000000000002
 32
1.0199999999999989
 13
0.2
 23
2.6899999999999991
 33
1.0199999999999989
  0
3DFACE
  5
25D1
  8
TAIL
 10
0.23
 20
2.5
 30
0.9700000000000006
 11
0.23
 21
2.5299999999999998
 31
1.04
 12
0.23
 22
2.2099999999999991
 32
0.9900000000000002
 13
0.23
 23
2.3100000000000001
 33
0.9700000000000006
  0
3DFACE
  5
25D2
  8
TAIL
 10
0.2
 20
2.3100000000000001
 30
0.9700000000000006
 11
0.2
 21
2.2099999999999991
 31
0.9900000000000002
 12
0.2
 22
2.5299999999999998
 32
1.04
 13
0.2
 23
2.5
 33
0.9700000000000006
  0
3DFACE
  5
25D3
  8
TAIL
 10
0.23
 20
2.5299999999999998
 30
1.04
 11
0.23
 21
2.5299999999999998
 31
1.04
 12
0.23
 22
2.1899999999999991
 32
1.0099999999999989
 13
0.23
 23
2.2099999999999991
 33
0.9900000000000002
  0
3DFACE
  5
25D4
  8
TAIL
 10
0.2
 20
2.2099999999999991
 30
0.9900000000000002
 11
0.2
 21
2.1899999999999991
 31
1.0099999999999989
 12
0.2
 22
2.5299999999999998
 32
1.04
 13
0.2
 23
2.5299999999999998
 33
1.04
  0
3DFACE
  5
25D5
  8
TAIL
 10
0.23
 20
2.1899999999999991
 30
1.0099999999999989
 11
0.23
 21
2.5299999999999998
 31
1.04
 12
0.23
 22
1.6299999999999999
 32
1.1899999999999991
 13
0.23
 23
1.8600000000000001
 33
1.0800000000000001
  0
3DFACE
  5
25D6
  8
TAIL
 10
0.2
 20
1.8600000000000001
 30
1.0800000000000001
 11
0.2
 21
1.6299999999999999
 31
1.1899999999999991
 12
0.2
 22
2.5299999999999998
 32
1.04
 13
0.2
 23
2.1899999999999991
 33
1.0099999999999989
  0
3DFACE
  5
25D7
  8
TAIL
 10
0.23
 20
2.29
 30
0.790000000000001
 11
0.23
 21
2.29
 31
0.950000000000001
 12
0.23
 22
2.2099999999999991
 32
0.9900000000000002
 13
0.23
 23
2.2099999999999991
 33
0.790000000000001
  0
3DFACE
  5
25D8
  8
TAIL
 10
0.2
 20
2.2099999999999991
 30
0.790000000000001
 11
0.2
 21
2.2099999999999991
 31
0.9900000000000002
 12
0.2
 22
2.29
 32
0.950000000000001
 13
0.2
 23
2.29
 33
0.790000000000001
  0
3DFACE
  5
25D9
  8
TAIL
 10
0.2
 20
2.2099999999999991
 30
0.9900000000000002
 11
0.2
 21
2.2099999999999991
 31
0.9900000000000002
 12
0.2
 22
2.3100000000000001
 32
0.9700000000000006
 13
0.2
 23
2.29
 33
0.950000000000001
  0
3DFACE
  5
25DA
  8
TAIL
 10
0.23
 20
2.29
 30
0.950000000000001
 11
0.23
 21
2.3100000000000001
 31
0.9700000000000006
 12
0.23
 22
2.2099999999999991
 32
0.9900000000000002
 13
0.23
 23
2.2099999999999991
 33
0.9900000000000002
  0
3DFACE
  5
25DB
  8
TAIL
 10
0.23
 20
2.3100000000000001
 30
0.7699999999999996
 11
0.23
 21
2.29
 31
0.790000000000001
 12
0.23
 22
2.2099999999999991
 32
0.790000000000001
 13
0.23
 23
2.1899999999999991
 33
0.7699999999999996
  0
3DFACE
  5
25DC
  8
TAIL
 10
0.2
 20
2.1899999999999991
 30
0.7699999999999996
 11
0.2
 21
2.2099999999999991
 31
0.790000000000001
 12
0.2
 22
2.29
 32
0.790000000000001
 13
0.2
 23
2.3100000000000001
 33
0.7699999999999996
  0
3DFACE
  5
25DD
  8
TAIL
 10
0.2
 20
2.3100000000000001
 30
0.6899999999999995
 11
0.2
 21
2.3100000000000001
 31
0.7699999999999996
 12
0.2
 22
2.5
 32
0.7699999999999996
 13
0.2
 23
2.5
 33
0.6899999999999995
  0
3DFACE
  5
25DE
  8
TAIL
 10
0.23
 20
2.5
 30
0.6899999999999995
 11
0.23
 21
2.5
 31
0.7699999999999996
 12
0.23
 22
2.3100000000000001
 32
0.7699999999999996
 13
0.23
 23
2.3100000000000001
 33
0.6899999999999995
  0
3DFACE
  5
25DF
  8
TAIL
 10
0.23
 20
2.3100000000000001
 30
0.6899999999999995
 11
0.23
 21
2.3100000000000001
 31
0.7699999999999996
 12
0.23
 22
2.1899999999999991
 32
0.7699999999999996
 13
0.23
 23
2.1899999999999991
 33
0.7000000000000011
  0
3DFACE
  5
25E0
  8
TAIL
 10
0.2
 20
2.1899999999999991
 30
0.7000000000000011
 11
0.2
 21
2.1899999999999991
 31
0.7699999999999996
 12
0.2
 22
2.3100000000000001
 32
0.7699999999999996
 13
0.2
 23
2.3100000000000001
 33
0.6899999999999995
  0
3DFACE
  5
25E1
  8
TAIL
 10
0.2
 20
2.2099999999999991
 30
0.6799999999999998
 11
0.2
 21
2.1899999999999991
 31
0.7000000000000011
 12
0.2
 22
2.3100000000000001
 32
0.6899999999999995
 13
0.2
 23
2.29
 33
0.67
  0
3DFACE
  5
25E2
  8
TAIL
 10
0.23
 20
2.29
 30
0.67
 11
0.23
 21
2.3100000000000001
 31
0.6899999999999995
 12
0.23
 22
2.1899999999999991
 32
0.7000000000000011
 13
0.23
 23
2.2099999999999991
 33
0.6799999999999998
  0
3DFACE
  5
25E3
  8
TAIL
 10
0.23
 20
2.29
 30
0.5800000000000001
 11
0.23
 21
2.29
 31
0.67
 12
0.23
 22
2.2099999999999991
 32
0.6799999999999998
 13
0.23
 23
2.2099999999999991
 33
0.540000000000001
  0
3DFACE
  5
25E4
  8
TAIL
 10
0.2
 20
2.2099999999999991
 30
0.540000000000001
 11
0.2
 21
2.2099999999999991
 31
0.6799999999999998
 12
0.2
 22
2.29
 32
0.67
 13
0.2
 23
2.29
 33
0.5800000000000001
  0
3DFACE
  5
25E5
  8
TAIL
 10
0.2
 20
2.1899999999999991
 30
0.5199999999999996
 11
0.2
 21
2.2099999999999991
 31
0.540000000000001
 12
0.2
 22
2.29
 32
0.5800000000000001
 13
0.2
 23
2.2999999999999998
 33
0.5600000000000005
  0
3DFACE
  5
25E6
  8
TAIL
 10
0.23
 20
2.2999999999999998
 30
0.5600000000000005
 11
0.23
 21
2.29
 31
0.5800000000000001
 12
0.23
 22
2.2099999999999991
 32
0.540000000000001
 13
0.23
 23
2.1899999999999991
 33
0.5199999999999996
  0
3DFACE
  5
25E7
  8
TAIL
 10
0.23
 20
2.4900000000000002
 30
0.5700000000000003
 11
0.23
 21
2.5
 31
0.67
 12
0.23
 22
2.3100000000000001
 32
0.5600000000000005
 13
0.23
 23
2.27
 33
0.4900000000000003
  0
3DFACE
  5
25E8
  8
TAIL
 10
0.2
 20
2.27
 30
0.4900000000000003
 11
0.2
 21
2.3100000000000001
 31
0.5600000000000005
 12
0.2
 22
2.5
 32
0.67
 13
0.2
 23
2.4900000000000002
 33
0.5700000000000003
  0
3DFACE
  5
25E9
  8
TAIL
 10
0.2
 20
2.1899999999999991
 30
0.5199999999999996
 11
0.2
 21
2.2999999999999998
 31
0.5600000000000005
 12
0.2
 22
2.3100000000000001
 32
0.5600000000000005
 13
0.2
 23
2.27
 33
0.4900000000000003
  0
3DFACE
  5
25EA
  8
TAIL
 10
0.23
 20
2.27
 30
0.4900000000000003
 11
0.23
 21
2.3100000000000001
 31
0.5600000000000005
 12
0.23
 22
2.2999999999999998
 32
0.5600000000000005
 13
0.23
 23
2.1899999999999991
 33
0.5199999999999996
  0
3DFACE
  5
25EB
  8
TAIL
 10
0.23
 20
2.0600000000000001
 30
0.4399999999999995
 11
0.23
 21
2.27
 31
0.4900000000000003
 12
0.23
 22
2.1899999999999991
 32
0.5199999999999996
 13
0.23
 23
2.069999999999999
 33
0.5199999999999996
  0
3DFACE
  5
25EC
  8
TAIL
 10
0.2
 20
2.069999999999999
 30
0.5199999999999996
 11
0.2
 21
2.1899999999999991
 31
0.5199999999999996
 12
0.2
 22
2.27
 32
0.4900000000000003
 13
0.2
 23
2.0600000000000001
 33
0.4399999999999995
  0
3DFACE
  5
25ED
  8
TAIL
 10
0.2
 20
2.04
 30
0.540000000000001
 11
0.2
 21
2.069999999999999
 31
0.5199999999999996
 12
0.2
 22
2.069999999999999
 32
0.5199999999999996
 13
0.2
 23
2.0600000000000001
 33
0.4399999999999995
  0
3DFACE
  5
25EE
  8
TAIL
 10
0.23
 20
2.0600000000000001
 30
0.4399999999999995
 11
0.23
 21
2.069999999999999
 31
0.5199999999999996
 12
0.23
 22
2.069999999999999
 32
0.5199999999999996
 13
0.23
 23
2.04
 33
0.540000000000001
  0
3DFACE
  5
25EF
  8
TAIL
 10
0.23
 20
2.1899999999999991
 30
0.7000000000000011
 11
0.23
 21
2.1899999999999991
 31
0.7699999999999996
 12
0.23
 22
1.95
 32
0.7699999999999996
 13
0.23
 23
2.0
 33
0.7000000000000011
  0
3DFACE
  5
25F0
  8
TAIL
 10
0.2
 20
2.0
 30
0.7000000000000011
 11
0.2
 21
1.95
 31
0.7699999999999996
 12
0.2
 22
2.1899999999999991
 32
0.7699999999999996
 13
0.2
 23
2.1899999999999991
 33
0.7000000000000011
  0
3DFACE
  5
25F1
  8
TAIL
 10
0.2
 20
1.98
 30
0.6799999999999998
 11
0.2
 21
1.919999999999999
 31
0.790000000000001
 12
0.2
 22
1.95
 32
0.7699999999999996
 13
0.2
 23
2.0
 33
0.7000000000000011
  0
3DFACE
  5
25F2
  8
TAIL
 10
0.23
 20
2.0
 30
0.7000000000000011
 11
0.23
 21
1.95
 31
0.7699999999999996
 12
0.23
 22
1.919999999999999
 32
0.790000000000001
 13
0.23
 23
1.98
 33
0.6799999999999998
  0
3DFACE
  5
25F3
  8
TAIL
 10
0.23
 20
1.8600000000000001
 30
1.0800000000000001
 11
0.23
 21
1.6299999999999999
 31
1.1899999999999991
 12
0.23
 22
1.6299999999999999
 32
1.1899999999999991
 13
0.23
 23
1.8400000000000001
 33
1.0599999999999981
  0
3DFACE
  5
25F4
  8
TAIL
 10
0.2
 20
1.8400000000000001
 30
1.0599999999999981
 11
0.2
 21
1.6299999999999999
 31
1.1899999999999991
 12
0.2
 22
1.6299999999999999
 32
1.1899999999999991
 13
0.2
 23
1.8600000000000001
 33
1.0800000000000001
  0
3DFACE
  5
25F5
  8
TAIL
 10
0.2
 20
2.6299999999999959
 30
0.7699999999999978
 11
0.2
 21
2.5999999999999961
 31
0.7699999999999978
 12
0.23
 22
2.5999999999999961
 32
0.7699999999999978
 13
0.23
 23
2.6299999999999959
 33
0.7699999999999978
  0
3DFACE
  5
25F6
  8
TAIL
 10
0.2
 20
2.7000000000000002
 30
0.8599999999999994
 11
0.2
 21
2.6299999999999928
 31
0.7699999999999961
 12
0.23
 22
2.6299999999999928
 32
0.7699999999999961
 13
0.23
 23
2.7000000000000002
 33
0.8599999999999994
  0
3DFACE
  5
25F7
  8
TAIL
 10
0.2
 20
2.7200000000000002
 30
0.950000000000001
 11
0.2
 21
2.6999999999999971
 31
0.8599999999999977
 12
0.23
 22
2.6999999999999971
 32
0.8599999999999977
 13
0.23
 23
2.7200000000000002
 33
0.950000000000001
  0
3DFACE
  5
25F8
  8
TAIL
 10
0.2
 20
2.7200000000000002
 30
0.9900000000000002
 11
0.2
 21
2.719999999999998
 31
0.9499999999999957
 12
0.23
 22
2.719999999999998
 32
0.9499999999999957
 13
0.23
 23
2.7200000000000002
 33
0.9900000000000002
  0
3DFACE
  5
25F9
  8
TAIL
 10
0.2
 20
2.7000000000000002
 30
1.0199999999999989
 11
0.2
 21
2.719999999999998
 31
0.9899999999999948
 12
0.23
 22
2.719999999999998
 32
0.9899999999999948
 13
0.23
 23
2.7000000000000002
 33
1.0199999999999989
  0
3DFACE
  5
25FA
  8
TAIL
 10
0.2
 20
2.6899999999999991
 30
1.0199999999999989
 11
0.2
 21
2.699999999999998
 31
1.019999999999994
 12
0.23
 22
2.699999999999998
 32
1.019999999999994
 13
0.23
 23
2.6899999999999991
 33
1.0199999999999989
  0
3DFACE
  5
25FB
  8
TAIL
 10
0.2
 20
2.6000000000000001
 30
0.9700000000000006
 11
0.2
 21
2.6899999999999982
 31
1.019999999999994
 12
0.23
 22
2.6899999999999982
 32
1.019999999999994
 13
0.23
 23
2.6000000000000001
 33
0.9700000000000006
  0
3DFACE
  5
25FC
  8
TAIL
 10
0.2
 20
2.589999999999999
 30
0.9600000000000009
 11
0.2
 21
2.6000000000000001
 31
0.9700000000000006
 12
0.23
 22
2.6000000000000001
 32
0.9700000000000006
 13
0.23
 23
2.589999999999999
 33
0.9600000000000009
  0
3DFACE
  5
25FD
  8
TAIL
 10
0.2
 20
2.589999999999999
 30
0.7800000000000013
 11
0.2
 21
2.589999999999999
 31
0.9600000000000009
 12
0.23
 22
2.589999999999999
 32
0.9600000000000009
 13
0.23
 23
2.589999999999999
 33
0.7800000000000013
  0
3DFACE
  5
25FE
  8
TAIL
 10
0.2
 20
2.6000000000000041
 30
0.7699999999999961
 11
0.2
 21
2.589999999999999
 31
0.7800000000000013
 12
0.23
 22
2.589999999999999
 32
0.7800000000000013
 13
0.2300000000000001
 23
2.6000000000000041
 33
0.7699999999999961
  0
3DFACE
  5
25FF
  8
TAIL
 10
0.2
 20
2.3100000000000001
 30
0.7699999999999996
 11
0.2
 21
2.29
 31
0.790000000000001
 12
0.23
 22
2.29
 32
0.790000000000001
 13
0.23
 23
2.3100000000000001
 33
0.7699999999999996
  0
3DFACE
  5
2600
  8
TAIL
 10
0.2
 20
2.29
 30
0.790000000000001
 11
0.2
 21
2.29
 31
0.950000000000001
 12
0.23
 22
2.29
 32
0.950000000000001
 13
0.23
 23
2.29
 33
0.790000000000001
  0
3DFACE
  5
2601
  8
TAIL
 10
0.2
 20
2.29
 30
0.950000000000001
 11
0.2
 21
2.3100000000000001
 31
0.9700000000000006
 12
0.23
 22
2.3100000000000001
 32
0.9700000000000006
 13
0.23
 23
2.29
 33
0.950000000000001
  0
3DFACE
  5
2602
  8
TAIL
 10
0.2
 20
2.3100000000000001
 30
0.9700000000000006
 11
0.2
 21
2.5
 31
0.9700000000000006
 12
0.23
 22
2.5
 32
0.9700000000000006
 13
0.23
 23
2.3100000000000001
 33
0.9700000000000006
  0
3DFACE
  5
2603
  8
TAIL
 10
0.2
 20
2.5
 30
0.9700000000000006
 11
0.2
 21
2.52
 31
0.950000000000001
 12
0.23
 22
2.52
 32
0.950000000000001
 13
0.23
 23
2.5
 33
0.9700000000000006
  0
3DFACE
  5
2604
  8
TAIL
 10
0.2
 20
2.52
 30
0.950000000000001
 11
0.2
 21
2.52
 31
0.790000000000001
 12
0.23
 22
2.52
 32
0.790000000000001
 13
0.23
 23
2.52
 33
0.950000000000001
  0
3DFACE
  5
2605
  8
TAIL
 10
0.2
 20
2.52
 30
0.790000000000001
 11
0.2
 21
2.5
 31
0.7699999999999996
 12
0.23
 22
2.5
 32
0.7699999999999996
 13
0.23
 23
2.52
 33
0.790000000000001
  0
3DFACE
  5
2606
  8
TAIL
 10
0.2
 20
2.5
 30
0.7699999999999996
 11
0.2
 21
2.3100000000000001
 31
0.7699999999999996
 12
0.23
 22
2.3100000000000001
 32
0.7699999999999996
 13
0.23
 23
2.5
 33
0.7699999999999996
  0
3DFACE
  5
2607
  8
TAIL
 10
0.2
 20
1.919999999999999
 30
0.790000000000001
 11
0.2
 21
1.8400000000000001
 31
1.0600000000000001
 12
0.23
 22
1.8400000000000001
 32
1.0599999999999981
 13
0.23
 23
1.919999999999999
 33
0.790000000000001
  0
3DFACE
  5
2608
  8
TAIL
 10
0.2
 20
1.95
 30
0.7699999999999996
 11
0.2
 21
1.920000000000001
 31
0.7900000000000027
 12
0.23
 22
1.920000000000001
 32
0.790000000000001
 13
0.23
 23
1.95
 33
0.7699999999999996
  0
3DFACE
  5
2609
  8
TAIL
 10
0.2
 20
2.1899999999999991
 30
0.7699999999999996
 11
0.2
 21
1.9499999999999991
 31
0.7700000000000014
 12
0.23
 22
1.95
 32
0.7699999999999996
 13
0.23
 23
2.1899999999999991
 33
0.7699999999999996
  0
3DFACE
  5
260A
  8
TAIL
 10
0.2
 20
2.2099999999999991
 30
0.790000000000001
 11
0.2
 21
2.1899999999999991
 31
0.7700000000000014
 12
0.23
 22
2.1899999999999991
 32
0.7699999999999996
 13
0.23
 23
2.2099999999999991
 33
0.790000000000001
  0
3DFACE
  5
260B
  8
TAIL
 10
0.2
 20
2.2099999999999991
 30
0.9900000000000002
 11
0.2
 21
2.2099999999999991
 31
0.7900000000000027
 12
0.23
 22
2.2099999999999991
 32
0.790000000000001
 13
0.23
 23
2.2099999999999991
 33
0.9900000000000002
  0
3DFACE
  5
260C
  8
TAIL
 10
0.2
 20
2.1899999999999991
 30
1.0099999999999989
 11
0.2
 21
2.2099999999999991
 31
0.9900000000000019
 12
0.23
 22
2.2099999999999991
 32
0.9900000000000002
 13
0.23
 23
2.1899999999999991
 33
1.0099999999999989
  0
3DFACE
  5
260D
  8
TAIL
 10
0.2
 20
1.8600000000000001
 30
1.0800000000000001
 11
0.2
 21
2.1899999999999991
 31
1.0100000000000009
 12
0.23
 22
2.1899999999999991
 32
1.0099999999999989
 13
0.23
 23
1.8600000000000001
 33
1.0800000000000001
  0
3DFACE
  5
260E
  8
TAIL
 10
0.2
 20
1.8400000000000001
 30
1.0600000000000001
 11
0.2
 21
1.8600000000000001
 31
1.0800000000000001
 12
0.23
 22
1.8600000000000001
 32
1.0800000000000001
 13
0.23
 23
1.8400000000000001
 33
1.0600000000000001
  0
3DFACE
  5
260F
  8
TAIL
 10
0.2
 20
2.1900000000000022
 30
0.5199999999999978
 11
0.2
 21
2.069999999999999
 31
0.5199999999999996
 12
0.23
 22
2.069999999999999
 32
0.5199999999999978
 13
0.23
 23
2.1900000000000039
 33
0.5199999999999978
  0
3DFACE
  5
2610
  8
TAIL
 10
0.2
 20
2.0699999999999972
 30
0.5199999999999978
 11
0.2
 21
2.04
 31
0.540000000000001
 12
0.23
 22
2.04
 32
0.540000000000001
 13
0.23
 23
2.069999999999999
 33
0.5199999999999978
  0
3DFACE
  5
2611
  8
TAIL
 10
0.2
 20
2.0399999999999938
 30
0.540000000000001
 11
0.2
 21
1.9800000000000031
 31
0.6799999999999926
 12
0.23
 22
1.9799999999999991
 32
0.6800000000000015
 13
0.23
 23
2.0399999999999969
 33
0.540000000000001
  0
3DFACE
  5
2612
  8
TAIL
 10
0.2
 20
1.979999999999992
 30
0.680000000000014
 11
0.2
 21
2.0
 31
0.7000000000000011
 12
0.23
 22
2.0
 32
0.7000000000000011
 13
0.23
 23
1.9799999999999951
 33
0.680000000000014
  0
3DFACE
  5
2613
  8
TAIL
 10
0.2
 20
1.999999999999988
 30
0.7000000000000224
 11
0.2
 21
2.1899999999999991
 31
0.7000000000000011
 12
0.23
 22
2.1899999999999991
 32
0.7000000000000011
 13
0.23
 23
1.9999999999999909
 33
0.7000000000000224
  0
3DFACE
  5
2614
  8
TAIL
 10
0.2
 20
2.189999999999988
 30
0.7000000000000224
 11
0.2
 21
2.2100000000000022
 31
0.6799999999999998
 12
0.23
 22
2.2099999999999991
 32
0.6800000000000015
 13
0.23
 23
2.1899999999999911
 33
0.7000000000000224
  0
3DFACE
  5
2615
  8
TAIL
 10
0.2
 20
2.2099999999999991
 30
0.6799999999999998
 11
0.2
 21
2.2099999999999991
 31
0.540000000000001
 12
0.23
 22
2.2099999999999991
 32
0.540000000000001
 13
0.23
 23
2.2100000000000022
 33
0.6799999999999998
  0
3DFACE
  5
2616
  8
TAIL
 10
0.2
 20
2.2099999999999991
 30
0.540000000000001
 11
0.2
 21
2.1899999999999991
 31
0.5199999999999996
 12
0.23
 22
2.1899999999999991
 32
0.5199999999999978
 13
0.23
 23
2.2099999999999991
 33
0.540000000000001
  0
3DFACE
  5
2617
  8
TAIL
 10
0.2
 20
2.5
 30
0.67
 11
0.2
 21
2.3099999999999938
 31
0.5600000000000023
 12
0.23
 22
2.3099999999999952
 32
0.5600000000000005
 13
0.23
 23
2.5
 33
0.67
  0
3DFACE
  5
2618
  8
TAIL
 10
0.2
 20
2.5099999999999998
 30
0.6799999999999998
 11
0.2
 21
2.4999999999999938
 31
0.6700000000000017
 12
0.23
 22
2.4999999999999951
 32
0.67
 13
0.23
 23
2.5099999999999998
 33
0.6799999999999998
  0
3DFACE
  5
2619
  8
TAIL
 10
0.2
 20
2.5
 30
0.6899999999999995
 11
0.2
 21
2.509999999999994
 31
0.6799999999999962
 12
0.23
 22
2.509999999999994
 32
0.6799999999999944
 13
0.23
 23
2.5
 33
0.6899999999999995
  0
3DFACE
  5
261A
  8
TAIL
 10
0.2
 20
2.3100000000000001
 30
0.6899999999999995
 11
0.2
 21
2.500000000000004
 31
0.689999999999996
 12
0.23
 22
2.5000000000000049
 32
0.6899999999999942
 13
0.23
 23
2.3100000000000001
 33
0.6899999999999995
  0
3DFACE
  5
261B
  8
TAIL
 10
0.2
 20
2.29
 30
0.67
 11
0.2
 21
2.3100000000000041
 31
0.689999999999996
 12
0.23
 22
2.3100000000000049
 32
0.6899999999999942
 13
0.23
 23
2.29
 33
0.67
  0
3DFACE
  5
261C
  8
TAIL
 10
0.2
 20
2.29
 30
0.5800000000000001
 11
0.2
 21
2.290000000000004
 31
0.6700000000000053
 12
0.23
 22
2.2900000000000049
 32
0.6700000000000035
 13
0.23
 23
2.29
 33
0.5800000000000001
  0
3DFACE
  5
261D
  8
TAIL
 10
0.2
 20
2.2999999999999998
 30
0.5600000000000005
 11
0.2
 21
2.29
 31
0.5800000000000054
 12
0.23
 22
2.29
 32
0.5800000000000037
 13
0.23
 23
2.2999999999999998
 33
0.5600000000000005
  0
3DFACE
  5
261E
  8
TAIL
 10
0.2
 20
2.3100000000000001
 30
0.5600000000000005
 11
0.2
 21
2.2999999999999998
 31
0.5600000000000005
 12
0.23
 22
2.2999999999999998
 32
0.5599999999999988
 13
0.23
 23
2.3100000000000001
 33
0.5600000000000005
  0
3DFACE
  5
284A
  8
TAIL
 10
0.23
 20
2.0600000000000001
 30
0.4399999999999995
 11
0.23
 21
2.04
 31
0.540000000000001
 12
0.23
 22
1.8500000000000001
 32
0.7100000000000009
 13
0.23
 23
1.8899999999999999
 33
0.4399999999999995
  0
3DFACE
  5
284B
  8
TAIL
 10
0.2
 20
1.8899999999999999
 30
0.4399999999999995
 11
0.2
 21
1.8500000000000001
 31
0.7100000000000009
 12
0.2
 22
2.04
 32
0.540000000000001
 13
0.2
 23
2.0600000000000001
 33
0.4399999999999995
  0
3DFACE
  5
284C
  8
TAIL
 10
0.2
 20
1.8500000000000001
 30
0.7100000000000009
 11
0.2
 21
1.919999999999999
 31
0.790000000000001
 12
0.2
 22
1.98
 32
0.6799999999999998
 13
0.2
 23
2.04
 33
0.540000000000001
  0
3DFACE
  5
284D
  8
TAIL
 10
0.23
 20
2.04
 30
0.540000000000001
 11
0.23
 21
1.98
 31
0.6799999999999998
 12
0.23
 22
1.919999999999999
 32
0.790000000000001
 13
0.23
 23
1.8500000000000001
 33
0.7100000000000009
  0
3DFACE
  5
284E
  8
TAIL
 10
0.23
 20
1.919999999999999
 30
0.790000000000001
 11
0.23
 21
1.8400000000000001
 31
1.0600000000000001
 12
0.23
 22
1.6299999999999999
 32
1.1899999999999991
 13
0.23
 23
1.8500000000000001
 33
0.7100000000000009
  0
3DFACE
  5
284F
  8
TAIL
 10
0.2
 20
1.8500000000000001
 30
0.7100000000000009
 11
0.2
 21
1.6299999999999999
 31
1.1899999999999991
 12
0.2
 22
1.8400000000000001
 32
1.0600000000000001
 13
0.2
 23
1.919999999999999
 33
0.790000000000001
  0
3DFACE
  5
2850
  8
TAIL
 10
-0.2
 20
2.04
 30
0.540000000000001
 11
-0.2
 21
1.98
 31
0.6799999999999998
 12
-0.2
 22
1.919999999999999
 32
0.790000000000001
 13
-0.2
 23
1.8500000000000001
 33
0.7100000000000009
  0
3DFACE
  5
2851
  8
TAIL
 10
-0.23
 20
1.8500000000000001
 30
0.7100000000000009
 11
-0.23
 21
1.919999999999999
 31
0.790000000000001
 12
-0.23
 22
1.98
 32
0.6799999999999998
 13
-0.23
 23
2.04
 33
0.540000000000001
  0
3DFACE
  5
2852
  8
TAIL
 10
-0.2
 20
2.0600000000000001
 30
0.4399999999999995
 11
-0.2
 21
2.04
 31
0.540000000000001
 12
-0.2
 22
1.8500000000000001
 32
0.7100000000000009
 13
-0.2
 23
1.8899999999999999
 33
0.4399999999999995
  0
3DFACE
  5
2853
  8
TAIL
 10
-0.23
 20
1.8899999999999999
 30
0.4399999999999995
 11
-0.23
 21
1.8500000000000001
 31
0.7100000000000009
 12
-0.23
 22
2.04
 32
0.540000000000001
 13
-0.23
 23
2.0600000000000001
 33
0.4399999999999995
  0
3DFACE
  5
2854
  8
TAIL
 10
-0.23
 20
2.29
 30
0.5800000000000001
 11
-0.23
 21
2.290000000000004
 31
0.6700000000000053
 12
-0.2
 22
2.2900000000000049
 32
0.6700000000000035
 13
-0.2
 23
2.29
 33
0.5800000000000001
  0
3DFACE
  5
2855
  8
TAIL
 10
-0.23
 20
2.5
 30
0.67
 11
-0.23
 21
2.3099999999999938
 31
0.5600000000000023
 12
-0.2
 22
2.3099999999999952
 32
0.5600000000000005
 13
-0.2
 23
2.5
 33
0.67
  0
3DFACE
  5
2856
  8
TAIL
 10
-0.23
 20
2.2099999999999991
 30
0.6799999999999998
 11
-0.23
 21
2.2099999999999991
 31
0.540000000000001
 12
-0.2
 22
2.2099999999999991
 32
0.540000000000001
 13
-0.2
 23
2.2100000000000022
 33
0.6799999999999998
  0
3DFACE
  5
2857
  8
TAIL
 10
-0.23
 20
2.0399999999999938
 30
0.540000000000001
 11
-0.23
 21
1.9800000000000031
 31
0.6799999999999926
 12
-0.2
 22
1.9799999999999991
 32
0.6800000000000015
 13
-0.2
 23
2.0399999999999969
 33
0.540000000000001
  0
3DFACE
  5
2858
  8
TAIL
 10
-0.2
 20
2.4900000000000002
 30
0.5700000000000003
 11
-0.2
 21
2.5
 31
0.67
 12
-0.2
 22
2.3100000000000001
 32
0.5600000000000005
 13
-0.2
 23
2.27
 33
0.4900000000000003
  0
3DFACE
  5
2859
  8
TAIL
 10
-0.23
 20
2.27
 30
0.4900000000000003
 11
-0.23
 21
2.3100000000000001
 31
0.5600000000000005
 12
-0.23
 22
2.5
 32
0.67
 13
-0.23
 23
2.4900000000000002
 33
0.5700000000000003
  0
3DFACE
  5
285A
  8
TAIL
 10
-0.2
 20
2.29
 30
0.5800000000000001
 11
-0.2
 21
2.29
 31
0.67
 12
-0.2
 22
2.2099999999999991
 32
0.6799999999999998
 13
-0.2
 23
2.2099999999999991
 33
0.540000000000001
  0
3DFACE
  5
285B
  8
TAIL
 10
-0.23
 20
2.2099999999999991
 30
0.540000000000001
 11
-0.23
 21
2.2099999999999991
 31
0.6799999999999998
 12
-0.23
 22
2.29
 32
0.67
 13
-0.23
 23
2.29
 33
0.5800000000000001
  0
3DFACE
  5
285C
  8
TAIL
 10
-0.2
 20
2.5
 30
0.67
 11
-0.2
 21
2.4900000000000002
 31
0.5700000000000003
 12
-0.2
 22
2.5099999999999998
 32
0.6799999999999998
 13
-0.2
 23
2.5099999999999998
 33
0.6799999999999998
  0
3DFACE
  5
285D
  8
TAIL
 10
-0.23
 20
2.5099999999999998
 30
0.6799999999999998
 11
-0.23
 21
2.5099999999999998
 31
0.6799999999999998
 12
-0.23
 22
2.4900000000000002
 32
0.5700000000000003
 13
-0.23
 23
2.5
 33
0.67
  0
3DFACE
  5
285E
  8
TAIL
 10
-0.2
 20
2.4900000000000002
 30
0.5700000000000003
 11
-0.2
 21
2.6000000000000001
 31
0.7699999999999996
 12
-0.2
 22
2.589999999999999
 32
0.7800000000000013
 13
-0.2
 23
2.5099999999999998
 33
0.6799999999999998
  0
3DFACE
  5
285F
  8
TAIL
 10
-0.23
 20
2.5099999999999998
 30
0.6799999999999998
 11
-0.23
 21
2.589999999999999
 31
0.7800000000000013
 12
-0.23
 22
2.6000000000000001
 32
0.7699999999999996
 13
-0.23
 23
2.4900000000000002
 33
0.5700000000000003
  0
3DFACE
  5
2860
  8
TAIL
 10
-0.2
 20
2.649999999999999
 30
0.67
 11
-0.2
 21
2.629999999999999
 31
0.7699999999999996
 12
-0.2
 22
2.6000000000000001
 32
0.7699999999999996
 13
-0.2
 23
2.4900000000000002
 33
0.5700000000000003
  0
3DFACE
  5
2861
  8
TAIL
 10
-0.23
 20
2.4900000000000002
 30
0.5700000000000003
 11
-0.23
 21
2.6000000000000001
 31
0.7699999999999996
 12
-0.23
 22
2.629999999999999
 32
0.7699999999999996
 13
-0.23
 23
2.649999999999999
 33
0.67
  0
3DFACE
  5
2862
  8
TAIL
 10
-0.23
 20
2.3100000000000001
 30
0.5600000000000005
 11
-0.23
 21
2.2999999999999998
 31
0.5600000000000005
 12
-0.2
 22
2.2999999999999998
 32
0.5599999999999988
 13
-0.2
 23
2.3100000000000001
 33
0.5600000000000005
  0
3DFACE
  5
2863
  8
TAIL
 10
-0.23
 20
2.2999999999999998
 30
0.5600000000000005
 11
-0.23
 21
2.29
 31
0.5800000000000054
 12
-0.2
 22
2.29
 32
0.5800000000000037
 13
-0.2
 23
2.2999999999999998
 33
0.5600000000000005
  0
3DFACE
  5
2864
  8
TAIL
 10
-0.23
 20
2.2099999999999991
 30
0.540000000000001
 11
-0.23
 21
2.1899999999999991
 31
0.5199999999999996
 12
-0.2
 22
2.1899999999999991
 32
0.5199999999999978
 13
-0.2
 23
2.2099999999999991
 33
0.540000000000001
  0
3DFACE
  5
2865
  8
TAIL
 10
-0.23
 20
2.0699999999999972
 30
0.5199999999999978
 11
-0.23
 21
2.04
 31
0.540000000000001
 12
-0.2
 22
2.04
 32
0.540000000000001
 13
-0.2
 23
2.069999999999999
 33
0.5199999999999978
  0
3DFACE
  5
2866
  8
TAIL
 10
-0.23
 20
2.1900000000000022
 30
0.5199999999999978
 11
-0.23
 21
2.069999999999999
 31
0.5199999999999996
 12
-0.2
 22
2.069999999999999
 32
0.5199999999999978
 13
-0.2
 23
2.1900000000000039
 33
0.5199999999999978
  0
3DFACE
  5
2867
  8
TAIL
 10
-0.2
 20
2.0600000000000001
 30
0.4399999999999995
 11
-0.2
 21
2.069999999999999
 31
0.5199999999999996
 12
-0.2
 22
2.069999999999999
 32
0.5199999999999996
 13
-0.2
 23
2.04
 33
0.540000000000001
  0
3DFACE
  5
2868
  8
TAIL
 10
-0.23
 20
2.04
 30
0.540000000000001
 11
-0.23
 21
2.069999999999999
 31
0.5199999999999996
 12
-0.23
 22
2.069999999999999
 32
0.5199999999999996
 13
-0.23
 23
2.0600000000000001
 33
0.4399999999999995
  0
3DFACE
  5
2869
  8
TAIL
 10
-0.2
 20
2.0600000000000001
 30
0.4399999999999995
 11
-0.2
 21
2.27
 31
0.4900000000000003
 12
-0.2
 22
2.1899999999999991
 32
0.5199999999999996
 13
-0.2
 23
2.069999999999999
 33
0.5199999999999996
  0
3DFACE
  5
286A
  8
TAIL
 10
-0.23
 20
2.069999999999999
 30
0.5199999999999996
 11
-0.23
 21
2.1899999999999991
 31
0.5199999999999996
 12
-0.23
 22
2.27
 32
0.4900000000000003
 13
-0.23
 23
2.0600000000000001
 33
0.4399999999999995
  0
3DFACE
  5
286B
  8
TAIL
 10
-0.2
 20
2.27
 30
0.4900000000000003
 11
-0.2
 21
2.3100000000000001
 31
0.5600000000000005
 12
-0.2
 22
2.2999999999999998
 32
0.5600000000000005
 13
-0.2
 23
2.1899999999999991
 33
0.5199999999999996
  0
3DFACE
  5
286C
  8
TAIL
 10
-0.23
 20
2.1899999999999991
 30
0.5199999999999996
 11
-0.23
 21
2.2999999999999998
 31
0.5600000000000005
 12
-0.23
 22
2.3100000000000001
 32
0.5600000000000005
 13
-0.23
 23
2.27
 33
0.4900000000000003
  0
3DFACE
  5
286D
  8
TAIL
 10
-0.2
 20
2.2999999999999998
 30
0.5600000000000005
 11
-0.2
 21
2.29
 31
0.5800000000000001
 12
-0.2
 22
2.2099999999999991
 32
0.540000000000001
 13
-0.2
 23
2.1899999999999991
 33
0.5199999999999996
  0
3DFACE
  5
286E
  8
TAIL
 10
-0.23
 20
2.1899999999999991
 30
0.5199999999999996
 11
-0.23
 21
2.2099999999999991
 31
0.540000000000001
 12
-0.23
 22
2.29
 32
0.5800000000000001
 13
-0.23
 23
2.2999999999999998
 33
0.5600000000000005
  0
3DFACE
  5
286F
  8
TAIL
 10
-0.2
 20
1.919999999999999
 30
0.790000000000001
 11
-0.2
 21
1.8400000000000001
 31
1.0600000000000001
 12
-0.2
 22
1.6299999999999999
 32
1.1899999999999991
 13
-0.2
 23
1.8500000000000001
 33
0.7100000000000009
  0
3DFACE
  5
2870
  8
TAIL
 10
-0.23
 20
1.8500000000000001
 30
0.7100000000000009
 11
-0.23
 21
1.6299999999999999
 31
1.1899999999999991
 12
-0.23
 22
1.8400000000000001
 32
1.0600000000000001
 13
-0.23
 23
1.919999999999999
 33
0.790000000000001
  0
3DFACE
  5
2871
  8
TAIL
 10
-0.23
 20
2.2099999999999991
 30
0.9900000000000002
 11
-0.23
 21
2.2099999999999991
 31
0.7900000000000027
 12
-0.2
 22
2.2099999999999991
 32
0.790000000000001
 13
-0.2
 23
2.2099999999999991
 33
0.9900000000000002
  0
3DFACE
  5
2872
  8
TAIL
 10
-0.23
 20
1.919999999999999
 30
0.790000000000001
 11
-0.23
 21
1.8400000000000001
 31
1.0600000000000001
 12
-0.2
 22
1.8400000000000001
 32
1.0599999999999981
 13
-0.2
 23
1.919999999999999
 33
0.790000000000001
  0
3DFACE
  5
2873
  8
TAIL
 10
-0.23
 20
2.6000000000000001
 30
0.9700000000000006
 11
-0.23
 21
2.6899999999999982
 31
1.019999999999994
 12
-0.2
 22
2.6899999999999982
 32
1.019999999999994
 13
-0.2
 23
2.6000000000000001
 33
0.9700000000000006
  0
3DFACE
  5
2874
  8
TAIL
 10
-0.23
 20
2.7200000000000002
 30
0.9900000000000002
 11
-0.23
 21
2.719999999999998
 31
0.9499999999999957
 12
-0.2
 22
2.719999999999998
 32
0.9499999999999957
 13
-0.2
 23
2.7200000000000002
 33
0.9900000000000002
  0
3DFACE
  5
2875
  8
TAIL
 10
-0.2
 20
2.29
 30
0.950000000000001
 11
-0.2
 21
2.3100000000000001
 31
0.9700000000000006
 12
-0.2
 22
2.2099999999999991
 32
0.9900000000000002
 13
-0.2
 23
2.2099999999999991
 33
0.9900000000000002
  0
3DFACE
  5
2876
  8
TAIL
 10
-0.23
 20
2.2099999999999991
 30
0.9900000000000002
 11
-0.23
 21
2.2099999999999991
 31
0.9900000000000002
 12
-0.23
 22
2.3100000000000001
 32
0.9700000000000006
 13
-0.23
 23
2.29
 33
0.950000000000001
  0
3DFACE
  5
2877
  8
TAIL
 10
-0.2
 20
2.29
 30
0.790000000000001
 11
-0.2
 21
2.29
 31
0.950000000000001
 12
-0.2
 22
2.2099999999999991
 32
0.9900000000000002
 13
-0.2
 23
2.2099999999999991
 33
0.790000000000001
  0
3DFACE
  5
2878
  8
TAIL
 10
-0.23
 20
2.2099999999999991
 30
0.790000000000001
 11
-0.23
 21
2.2099999999999991
 31
0.9900000000000002
 12
-0.23
 22
2.29
 32
0.950000000000001
 13
-0.23
 23
2.29
 33
0.790000000000001
  0
3DFACE
  5
2879
  8
TAIL
 10
-0.2
 20
2.5
 30
0.9700000000000006
 11
-0.2
 21
2.5299999999999998
 31
1.04
 12
-0.2
 22
2.2099999999999991
 32
0.9900000000000002
 13
-0.2
 23
2.3100000000000001
 33
0.9700000000000006
  0
3DFACE
  5
287A
  8
TAIL
 10
-0.23
 20
2.3100000000000001
 30
0.9700000000000006
 11
-0.23
 21
2.2099999999999991
 31
0.9900000000000002
 12
-0.23
 22
2.5299999999999998
 32
1.04
 13
-0.23
 23
2.5
 33
0.9700000000000006
  0
3DFACE
  5
287B
  8
TAIL
 10
-0.2
 20
2.6000000000000001
 30
0.9700000000000006
 11
-0.2
 21
2.6899999999999991
 31
1.0199999999999989
 12
-0.2
 22
2.5299999999999998
 32
1.04
 13
-0.2
 23
2.5
 33
0.9700000000000006
  0
3DFACE
  5
287C
  8
TAIL
 10
-0.23
 20
2.5
 30
0.9700000000000006
 11
-0.23
 21
2.5299999999999998
 31
1.04
 12
-0.23
 22
2.6899999999999991
 32
1.0199999999999989
 13
-0.23
 23
2.6000000000000001
 33
0.9700000000000006
  0
3DFACE
  5
287D
  8
TAIL
 10
-0.2
 20
2.7799999999999998
 30
1.0199999999999969
 11
-0.2
 21
2.7200000000000002
 31
0.9900000000000002
 12
-0.2
 22
2.7200000000000002
 32
0.950000000000001
 13
-0.2
 23
2.7799999999999998
 33
0.8700000000000009
  0
3DFACE
  5
287E
  8
TAIL
 10
-0.23
 20
2.7799999999999998
 30
0.8700000000000009
 11
-0.23
 21
2.7200000000000002
 31
0.950000000000001
 12
-0.23
 22
2.7200000000000002
 32
0.9900000000000002
 13
-0.23
 23
2.7799999999999998
 33
1.0200000000000009
  0
3DFACE
  5
287F
  8
TAIL
 10
-0.23
 20
2.29
 30
0.67
 11
-0.23
 21
2.3100000000000041
 31
0.689999999999996
 12
-0.2
 22
2.3100000000000049
 32
0.6899999999999942
 13
-0.2
 23
2.29
 33
0.67
  0
3DFACE
  5
2880
  8
TAIL
 10
-0.23
 20
2.3100000000000001
 30
0.6899999999999995
 11
-0.23
 21
2.500000000000004
 31
0.689999999999996
 12
-0.2
 22
2.5000000000000049
 32
0.6899999999999942
 13
-0.2
 23
2.3100000000000001
 33
0.6899999999999995
  0
3DFACE
  5
2881
  8
TAIL
 10
-0.23
 20
2.5
 30
0.6899999999999995
 11
-0.23
 21
2.509999999999994
 31
0.6799999999999962
 12
-0.2
 22
2.509999999999994
 32
0.6799999999999944
 13
-0.2
 23
2.5
 33
0.6899999999999995
  0
3DFACE
  5
2882
  8
TAIL
 10
-0.23
 20
2.5099999999999998
 30
0.6799999999999998
 11
-0.23
 21
2.4999999999999938
 31
0.6700000000000017
 12
-0.2
 22
2.4999999999999951
 32
0.67
 13
-0.2
 23
2.5099999999999998
 33
0.6799999999999998
  0
3DFACE
  5
2883
  8
TAIL
 10
-0.23
 20
2.189999999999988
 30
0.7000000000000224
 11
-0.23
 21
2.2100000000000022
 31
0.6799999999999998
 12
-0.2
 22
2.2099999999999991
 32
0.6800000000000015
 13
-0.2
 23
2.1899999999999911
 33
0.7000000000000224
  0
3DFACE
  5
2884
  8
TAIL
 10
-0.23
 20
1.999999999999988
 30
0.7000000000000224
 11
-0.23
 21
2.1899999999999991
 31
0.7000000000000011
 12
-0.2
 22
2.1899999999999991
 32
0.7000000000000011
 13
-0.2
 23
1.9999999999999909
 33
0.7000000000000224
  0
3DFACE
  5
2885
  8
TAIL
 10
-0.23
 20
1.979999999999992
 30
0.680000000000014
 11
-0.23
 21
2.0
 31
0.7000000000000011
 12
-0.2
 22
2.0
 32
0.7000000000000011
 13
-0.2
 23
1.9799999999999951
 33
0.680000000000014
  0
3DFACE
  5
2886
  8
TAIL
 10
-0.23
 20
2.2099999999999991
 30
0.790000000000001
 11
-0.23
 21
2.1899999999999991
 31
0.7700000000000014
 12
-0.2
 22
2.1899999999999991
 32
0.7699999999999996
 13
-0.2
 23
2.2099999999999991
 33
0.790000000000001
  0
3DFACE
  5
2887
  8
TAIL
 10
-0.23
 20
2.1899999999999991
 30
0.7699999999999996
 11
-0.23
 21
1.9499999999999991
 31
0.7700000000000014
 12
-0.2
 22
1.95
 32
0.7699999999999996
 13
-0.2
 23
2.1899999999999991
 33
0.7699999999999996
  0
3DFACE
  5
2888
  8
TAIL
 10
-0.23
 20
1.95
 30
0.7699999999999996
 11
-0.23
 21
1.920000000000001
 31
0.7900000000000027
 12
-0.2
 22
1.920000000000001
 32
0.790000000000001
 13
-0.2
 23
1.95
 33
0.7699999999999996
  0
3DFACE
  5
2889
  8
TAIL
 10
-0.23
 20
2.5
 30
0.7699999999999996
 11
-0.23
 21
2.3100000000000001
 31
0.7699999999999996
 12
-0.2
 22
2.3100000000000001
 32
0.7699999999999996
 13
-0.2
 23
2.5
 33
0.7699999999999996
  0
3DFACE
  5
288A
  8
TAIL
 10
-0.23
 20
2.52
 30
0.790000000000001
 11
-0.23
 21
2.5
 31
0.7699999999999996
 12
-0.2
 22
2.5
 32
0.7699999999999996
 13
-0.2
 23
2.52
 33
0.790000000000001
  0
3DFACE
  5
288B
  8
TAIL
 10
-0.23
 20
2.52
 30
0.950000000000001
 11
-0.23
 21
2.52
 31
0.790000000000001
 12
-0.2
 22
2.52
 32
0.790000000000001
 13
-0.2
 23
2.52
 33
0.950000000000001
  0
3DFACE
  5
288C
  8
TAIL
 10
-0.23
 20
2.5
 30
0.9700000000000006
 11
-0.23
 21
2.52
 31
0.950000000000001
 12
-0.2
 22
2.52
 32
0.950000000000001
 13
-0.2
 23
2.5
 33
0.9700000000000006
  0
3DFACE
  5
288D
  8
TAIL
 10
-0.23
 20
2.3100000000000001
 30
0.9700000000000006
 11
-0.23
 21
2.5
 31
0.9700000000000006
 12
-0.2
 22
2.5
 32
0.9700000000000006
 13
-0.2
 23
2.3100000000000001
 33
0.9700000000000006
  0
3DFACE
  5
288E
  8
TAIL
 10
-0.23
 20
2.29
 30
0.950000000000001
 11
-0.23
 21
2.3100000000000001
 31
0.9700000000000006
 12
-0.2
 22
2.3100000000000001
 32
0.9700000000000006
 13
-0.2
 23
2.29
 33
0.950000000000001
  0
3DFACE
  5
288F
  8
TAIL
 10
-0.23
 20
2.29
 30
0.790000000000001
 11
-0.23
 21
2.29
 31
0.950000000000001
 12
-0.2
 22
2.29
 32
0.950000000000001
 13
-0.2
 23
2.29
 33
0.790000000000001
  0
3DFACE
  5
2890
  8
TAIL
 10
-0.23
 20
2.3100000000000001
 30
0.7699999999999996
 11
-0.23
 21
2.29
 31
0.790000000000001
 12
-0.2
 22
2.29
 32
0.790000000000001
 13
-0.2
 23
2.3100000000000001
 33
0.7699999999999996
  0
3DFACE
  5
2891
  8
TAIL
 10
-0.23
 20
2.6000000000000041
 30
0.7699999999999961
 11
-0.23
 21
2.589999999999999
 31
0.7800000000000013
 12
-0.2
 22
2.589999999999999
 32
0.7800000000000013
 13
-0.2
 23
2.6000000000000041
 33
0.7699999999999961
  0
3DFACE
  5
2892
  8
TAIL
 10
-0.23
 20
2.589999999999999
 30
0.7800000000000013
 11
-0.23
 21
2.589999999999999
 31
0.9600000000000009
 12
-0.2
 22
2.589999999999999
 32
0.9600000000000009
 13
-0.2
 23
2.589999999999999
 33
0.7800000000000013
  0
3DFACE
  5
2893
  8
TAIL
 10
-0.23
 20
2.589999999999999
 30
0.9600000000000009
 11
-0.23
 21
2.6000000000000001
 31
0.9700000000000006
 12
-0.2
 22
2.6000000000000001
 32
0.9700000000000006
 13
-0.2
 23
2.589999999999999
 33
0.9600000000000009
  0
3DFACE
  5
2894
  8
TAIL
 10
-0.23
 20
2.7200000000000002
 30
0.950000000000001
 11
-0.23
 21
2.6999999999999971
 31
0.8599999999999977
 12
-0.2
 22
2.6999999999999971
 32
0.8599999999999977
 13
-0.2
 23
2.7200000000000002
 33
0.950000000000001
  0
3DFACE
  5
2895
  8
TAIL
 10
-0.23
 20
2.7000000000000002
 30
0.8599999999999994
 11
-0.23
 21
2.6299999999999928
 31
0.7699999999999961
 12
-0.2
 22
2.6299999999999928
 32
0.7699999999999961
 13
-0.2
 23
2.7000000000000002
 33
0.8599999999999994
  0
3DFACE
  5
2896
  8
TAIL
 10
-0.23
 20
2.6299999999999959
 30
0.7699999999999978
 11
-0.23
 21
2.5999999999999961
 31
0.7699999999999978
 12
-0.2
 22
2.5999999999999961
 32
0.7699999999999978
 13
-0.2
 23
2.6299999999999959
 33
0.7699999999999978
  0
3DFACE
  5
2897
  8
TAIL
 10
-0.2
 20
2.0
 30
0.7000000000000011
 11
-0.2
 21
1.95
 31
0.7699999999999996
 12
-0.2
 22
1.919999999999999
 32
0.790000000000001
 13
-0.2
 23
1.98
 33
0.6799999999999998
  0
3DFACE
  5
2898
  8
TAIL
 10
-0.23
 20
1.98
 30
0.6799999999999998
 11
-0.23
 21
1.919999999999999
 31
0.790000000000001
 12
-0.23
 22
1.95
 32
0.7699999999999996
 13
-0.23
 23
2.0
 33
0.7000000000000011
  0
3DFACE
  5
2899
  8
TAIL
 10
-0.2
 20
2.1899999999999991
 30
0.7000000000000011
 11
-0.2
 21
2.1899999999999991
 31
0.7699999999999996
 12
-0.2
 22
1.95
 32
0.7699999999999996
 13
-0.2
 23
2.0
 33
0.7000000000000011
  0
3DFACE
  5
289A
  8
TAIL
 10
-0.23
 20
2.0
 30
0.7000000000000011
 11
-0.23
 21
1.95
 31
0.7699999999999996
 12
-0.23
 22
2.1899999999999991
 32
0.7699999999999996
 13
-0.23
 23
2.1899999999999991
 33
0.7000000000000011
  0
3DFACE
  5
289B
  8
TAIL
 10
-0.2
 20
2.29
 30
0.67
 11
-0.2
 21
2.3100000000000001
 31
0.6899999999999995
 12
-0.2
 22
2.1899999999999991
 32
0.7000000000000011
 13
-0.2
 23
2.2099999999999991
 33
0.6799999999999998
  0
3DFACE
  5
289C
  8
TAIL
 10
-0.23
 20
2.2099999999999991
 30
0.6799999999999998
 11
-0.23
 21
2.1899999999999991
 31
0.7000000000000011
 12
-0.23
 22
2.3100000000000001
 32
0.6899999999999995
 13
-0.23
 23
2.29
 33
0.67
  0
3DFACE
  5
289D
  8
TAIL
 10
-0.2
 20
2.3100000000000001
 30
0.6899999999999995
 11
-0.2
 21
2.3100000000000001
 31
0.7699999999999996
 12
-0.2
 22
2.1899999999999991
 32
0.7699999999999996
 13
-0.2
 23
2.1899999999999991
 33
0.7000000000000011
  0
3DFACE
  5
289E
  8
TAIL
 10
-0.23
 20
2.1899999999999991
 30
0.7000000000000011
 11
-0.23
 21
2.1899999999999991
 31
0.7699999999999996
 12
-0.23
 22
2.3100000000000001
 32
0.7699999999999996
 13
-0.23
 23
2.3100000000000001
 33
0.6899999999999995
  0
3DFACE
  5
289F
  8
TAIL
 10
-0.2
 20
2.5
 30
0.6899999999999995
 11
-0.2
 21
2.5
 31
0.7699999999999996
 12
-0.2
 22
2.3100000000000001
 32
0.7699999999999996
 13
-0.2
 23
2.3100000000000001
 33
0.6899999999999995
  0
3DFACE
  5
28A0
  8
TAIL
 10
-0.23
 20
2.3100000000000001
 30
0.6899999999999995
 11
-0.23
 21
2.3100000000000001
 31
0.7699999999999996
 12
-0.23
 22
2.5
 32
0.7699999999999996
 13
-0.23
 23
2.5
 33
0.6899999999999995
  0
3DFACE
  5
28A1
  8
TAIL
 10
-0.2
 20
2.3100000000000001
 30
0.7699999999999996
 11
-0.2
 21
2.29
 31
0.790000000000001
 12
-0.2
 22
2.2099999999999991
 32
0.790000000000001
 13
-0.2
 23
2.1899999999999991
 33
0.7699999999999996
  0
3DFACE
  5
28A2
  8
TAIL
 10
-0.23
 20
2.1899999999999991
 30
0.7699999999999996
 11
-0.23
 21
2.2099999999999991
 31
0.790000000000001
 12
-0.23
 22
2.29
 32
0.790000000000001
 13
-0.23
 23
2.3100000000000001
 33
0.7699999999999996
  0
3DFACE
  5
28A3
  8
TAIL
 10
-0.2
 20
2.589999999999999
 30
0.9600000000000009
 11
-0.2
 21
2.6000000000000001
 31
0.9700000000000006
 12
-0.2
 22
2.5
 32
0.9700000000000006
 13
-0.2
 23
2.52
 33
0.950000000000001
  0
3DFACE
  5
28A4
  8
TAIL
 10
-0.23
 20
2.52
 30
0.950000000000001
 11
-0.23
 21
2.5
 31
0.9700000000000006
 12
-0.23
 22
2.6000000000000001
 32
0.9700000000000006
 13
-0.23
 23
2.589999999999999
 33
0.9600000000000009
  0
3DFACE
  5
28A5
  8
TAIL
 10
-0.2
 20
2.5
 30
0.6899999999999995
 11
-0.2
 21
2.5099999999999998
 31
0.6799999999999998
 12
-0.2
 22
2.5
 32
0.7699999999999996
 13
-0.2
 23
2.5
 33
0.7699999999999996
  0
3DFACE
  5
28A6
  8
TAIL
 10
-0.23
 20
2.5
 30
0.7699999999999996
 11
-0.23
 21
2.5
 31
0.7699999999999996
 12
-0.23
 22
2.5099999999999998
 32
0.6799999999999998
 13
-0.23
 23
2.5
 33
0.6899999999999995
  0
3DFACE
  5
28A7
  8
TAIL
 10
-0.2
 20
2.5099999999999998
 30
0.6799999999999998
 11
-0.2
 21
2.589999999999999
 31
0.7800000000000013
 12
-0.2
 22
2.52
 32
0.790000000000001
 13
-0.2
 23
2.5
 33
0.7699999999999996
  0
3DFACE
  5
28A8
  8
TAIL
 10
-0.23
 20
2.5
 30
0.7699999999999996
 11
-0.23
 21
2.52
 31
0.790000000000001
 12
-0.23
 22
2.589999999999999
 32
0.7800000000000013
 13
-0.23
 23
2.5099999999999998
 33
0.6799999999999998
  0
3DFACE
  5
28A9
  8
TAIL
 10
-0.2
 20
2.589999999999999
 30
0.7800000000000013
 11
-0.2
 21
2.589999999999999
 31
0.9600000000000009
 12
-0.2
 22
2.52
 32
0.950000000000001
 13
-0.2
 23
2.52
 33
0.790000000000001
  0
3DFACE
  5
28AA
  8
TAIL
 10
-0.23
 20
2.52
 30
0.790000000000001
 11
-0.23
 21
2.52
 31
0.950000000000001
 12
-0.23
 22
2.589999999999999
 32
0.9600000000000009
 13
-0.23
 23
2.589999999999999
 33
0.7800000000000013
  0
3DFACE
  5
28AB
  8
TAIL
 10
-0.2
 20
2.7400000000000002
 30
0.7799999999999994
 11
-0.2
 21
2.7000000000000002
 31
0.8599999999999994
 12
-0.2
 22
2.629999999999999
 32
0.7699999999999978
 13
-0.2
 23
2.649999999999999
 33
0.67
  0
3DFACE
  5
28AC
  8
TAIL
 10
-0.23
 20
2.649999999999999
 30
0.67
 11
-0.23
 21
2.629999999999999
 31
0.7699999999999978
 12
-0.23
 22
2.7000000000000002
 32
0.8599999999999994
 13
-0.23
 23
2.7400000000000002
 33
0.7799999999999994
  0
3DFACE
  5
28AD
  8
TAIL
 10
-0.2
 20
2.7799999999999998
 30
0.8700000000000009
 11
-0.2
 21
2.7200000000000002
 31
0.950000000000001
 12
-0.2
 22
2.7000000000000002
 32
0.8599999999999994
 13
-0.2
 23
2.7400000000000002
 33
0.7800000000000013
  0
3DFACE
  5
28AE
  8
TAIL
 10
-0.23
 20
2.7400000000000002
 30
0.7800000000000013
 11
-0.23
 21
2.7000000000000002
 31
0.8599999999999994
 12
-0.23
 22
2.7200000000000002
 32
0.950000000000001
 13
-0.23
 23
2.7799999999999998
 33
0.8700000000000009
  0
3DFACE
  5
28AF
  8
TAIL
 10
-0.23
 20
1.8400000000000001
 30
1.0600000000000001
 11
-0.23
 21
1.8600000000000001
 31
1.0800000000000001
 12
-0.2
 22
1.8600000000000001
 32
1.0800000000000001
 13
-0.2
 23
1.8400000000000001
 33
1.0600000000000001
  0
3DFACE
  5
28B0
  8
TAIL
 10
-0.23
 20
1.8600000000000001
 30
1.0800000000000001
 11
-0.23
 21
2.1899999999999991
 31
1.0100000000000009
 12
-0.2
 22
2.1899999999999991
 32
1.0099999999999989
 13
-0.2
 23
1.8600000000000001
 33
1.0800000000000001
  0
3DFACE
  5
28B1
  8
TAIL
 10
-0.23
 20
2.1899999999999991
 30
1.0099999999999989
 11
-0.23
 21
2.2099999999999991
 31
0.9900000000000019
 12
-0.2
 22
2.2099999999999991
 32
0.9900000000000002
 13
-0.2
 23
2.1899999999999991
 33
1.0099999999999989
  0
3DFACE
  5
28B2
  8
TAIL
 10
-0.23
 20
2.6899999999999991
 30
1.0199999999999989
 11
-0.23
 21
2.699999999999998
 31
1.019999999999994
 12
-0.2
 22
2.699999999999998
 32
1.019999999999994
 13
-0.2
 23
2.6899999999999991
 33
1.0199999999999989
  0
3DFACE
  5
28B3
  8
TAIL
 10
-0.23
 20
2.7000000000000002
 30
1.0199999999999989
 11
-0.23
 21
2.719999999999998
 31
0.9899999999999948
 12
-0.2
 22
2.719999999999998
 32
0.9899999999999948
 13
-0.2
 23
2.7000000000000002
 33
1.0199999999999989
  0
3DFACE
  5
28B4
  8
TAIL
 10
-0.2
 20
1.8600000000000001
 30
1.0800000000000001
 11
-0.2
 21
1.6299999999999999
 31
1.1899999999999991
 12
-0.2
 22
1.6299999999999999
 32
1.1899999999999991
 13
-0.2
 23
1.8400000000000001
 33
1.0599999999999981
  0
3DFACE
  5
28B5
  8
TAIL
 10
-0.23
 20
1.8400000000000001
 30
1.0599999999999981
 11
-0.23
 21
1.6299999999999999
 31
1.1899999999999991
 12
-0.23
 22
1.6299999999999999
 32
1.1899999999999991
 13
-0.23
 23
1.8600000000000001
 33
1.0800000000000001
  0
3DFACE
  5
28B6
  8
TAIL
 10
-0.2
 20
2.1899999999999991
 30
1.0099999999999989
 11
-0.2
 21
2.5299999999999998
 31
1.04
 12
-0.2
 22
1.6299999999999999
 32
1.1899999999999991
 13
-0.2
 23
1.8600000000000001
 33
1.0800000000000001
  0
3DFACE
  5
28B7
  8
TAIL
 10
-0.23
 20
1.8600000000000001
 30
1.0800000000000001
 11
-0.23
 21
1.6299999999999999
 31
1.1899999999999991
 12
-0.23
 22
2.5299999999999998
 32
1.04
 13
-0.23
 23
2.1899999999999991
 33
1.0099999999999989
  0
3DFACE
  5
28B8
  8
TAIL
 10
-0.2
 20
2.5299999999999998
 30
1.04
 11
-0.2
 21
2.5299999999999998
 31
1.04
 12
-0.2
 22
2.1899999999999991
 32
1.0099999999999989
 13
-0.2
 23
2.2099999999999991
 33
0.9900000000000002
  0
3DFACE
  5
28B9
  8
TAIL
 10
-0.23
 20
2.2099999999999991
 30
0.9900000000000002
 11
-0.23
 21
2.1899999999999991
 31
1.0099999999999989
 12
-0.23
 22
2.5299999999999998
 32
1.04
 13
-0.23
 23
2.5299999999999998
 33
1.04
  0
3DFACE
  5
28BA
  8
TAIL
 10
-0.2
 20
2.6899999999999991
 30
1.0199999999999989
 11
-0.2
 21
2.7000000000000002
 31
1.0199999999999989
 12
-0.2
 22
2.5600000000000001
 32
1.04
 13
-0.2
 23
2.5299999999999989
 33
1.04
  0
3DFACE
  5
28BB
  8
TAIL
 10
-0.23
 20
2.5299999999999989
 30
1.04
 11
-0.23
 21
2.5600000000000001
 31
1.04
 12
-0.23
 22
2.7000000000000002
 32
1.0199999999999989
 13
-0.23
 23
2.6899999999999991
 33
1.0199999999999989
  0
3DFACE
  5
28BC
  8
TAIL
 10
-0.2
 20
2.7799999999999998
 30
1.0199999999999969
 11
-0.2
 21
2.7000000000000002
 31
1.0199999999999989
 12
-0.2
 22
2.7200000000000002
 32
0.9900000000000002
 13
-0.2
 23
2.7799999999999998
 33
1.0199999999999989
  0
3DFACE
  5
28BD
  8
TAIL
 10
-0.23
 20
2.7799999999999998
 30
1.0199999999999989
 11
-0.23
 21
2.7200000000000002
 31
0.9900000000000002
 12
-0.23
 22
2.7000000000000002
 32
1.0199999999999989
 13
-0.23
 23
2.7799999999999998
 33
1.0200000000000009
  0
3DFACE
  5
28BE
  8
TAIL
 10
-0.2
 20
2.7400000000000002
 30
1.109999999999997
 11
-0.2
 21
2.5600000000000001
 31
1.0399999999999989
 12
-0.2
 22
2.7000000000000002
 32
1.0199999999999989
 13
-0.2
 23
2.7799999999999998
 33
1.0200000000000009
  0
3DFACE
  5
28BF
  8
TAIL
 10
-0.23
 20
2.7799999999999998
 30
1.0200000000000009
 11
-0.23
 21
2.7000000000000002
 31
1.0199999999999989
 12
-0.23
 22
2.5600000000000001
 32
1.040000000000002
 13
-0.23
 23
2.7400000000000002
 33
1.110000000000001
  0
3DFACE
  5
28C0
  8
TAIL
 10
-0.23
 20
2.5299999999999998
 30
1.04
 11
-0.23
 21
1.6299999999999999
 31
1.1899999999999991
 12
-0.2
 22
1.6299999999999999
 32
1.1899999999999991
 13
-0.2
 23
2.5299999999999998
 33
1.04
  0
3DFACE
  5
28C1
  8
TAIL
 10
-0.23
 20
2.5600000000000001
 30
1.04
 11
-0.23
 21
2.5299999999999998
 31
1.04
 12
-0.2
 22
2.5299999999999998
 32
1.04
 13
-0.2
 23
2.5600000000000001
 33
1.04
  0
3DFACE
  5
28C2
  8
TAIL
 10
-0.23
 20
2.7400000000000002
 30
1.109999999999999
 11
-0.23
 21
2.5600000000000001
 31
1.04
 12
-0.2
 22
2.5600000000000001
 32
1.04
 13
-0.2
 23
2.7400000000000002
 33
1.109999999999999
  0
3DFACE
  5
28CB
  8
TAIL
 10
-0.2
 20
2.5600000000000041
 30
1.04
 11
-0.2
 21
2.5300000000000011
 31
1.04
 12
0.2
 22
2.5300000000000091
 32
1.04
 13
0.2
 23
2.5600000000000089
 33
1.04
  0
3DFACE
  5
28CC
  8
TAIL
 10
-0.1999999999999999
 20
2.5599999999999881
 30
0.9900000000000002
 11
-0.2
 21
2.5600000000000018
 31
1.040000000000002
 12
0.2
 22
2.5600000000000098
 32
1.040000000000002
 13
0.2000000000000001
 23
2.5599999999999898
 33
0.9900000000000002
  0
3DFACE
  5
28CD
  8
TAIL
 10
-0.2
 20
2.5299999999999909
 30
1.04
 11
-0.2
 21
2.5299999999999998
 31
0.9900000000000002
 12
0.2
 22
2.530000000000002
 32
0.9900000000000002
 13
0.2
 23
2.5299999999999958
 33
1.04
  0
3DFACE
  5
28CE
  8
TAIL
 10
-0.2
 20
2.5299999999999998
 30
0.9900000000000002
 11
-0.1999999999999999
 21
2.5599999999999881
 31
0.9900000000000002
 12
0.2000000000000001
 22
2.5599999999999898
 32
0.9900000000000002
 13
0.2
 23
2.5300000000000051
 33
0.9900000000000002
  0
3DFACE
  5
28D3
  8
TAIL
 10
-0.2
 20
2.2799999999999998
 30
1.0816666666666661
 11
-0.2
 21
2.2400000000000002
 31
1.088333333333332
 12
0.2
 22
2.239999999999998
 32
1.088333333333332
 13
0.2
 23
2.2799999999999998
 33
1.0816666666666661
  0
3DFACE
  5
28D4
  8
TAIL
 10
-0.2
 20
2.2799999999999998
 30
1.0300000000000009
 11
-0.2
 21
2.2799999999999998
 31
1.0816666666666661
 12
0.2
 22
2.279999999999998
 32
1.0816666666666661
 13
0.2
 23
2.2799999999999998
 33
1.0300000000000009
  0
3DFACE
  5
28D5
  8
TAIL
 10
-0.2
 20
2.2400000000000002
 30
1.0300000000000009
 11
-0.2
 21
2.2799999999999998
 31
1.0300000000000009
 12
0.2
 22
2.279999999999998
 32
1.0300000000000009
 13
0.2
 23
2.2400000000000002
 33
1.0300000000000009
  0
3DFACE
  5
28D6
  8
TAIL
 10
-0.2
 20
2.2400000000000002
 30
1.088333333333332
 11
-0.2
 21
2.2400000000000011
 31
1.0300000000000009
 12
0.2
 22
2.2400000000000002
 32
1.0300000000000009
 13
0.2
 23
2.239999999999998
 33
1.088333333333332
  0
3DFACE
  5
2951
  8
TAIL
 10
-0.2300000000000001
 20
2.52
 30
0.9800000000000004
 11
-0.2300000000000001
 21
2.5287867965644031
 31
1.0012132034355969
 12
-0.28
 22
2.5287867965644031
 32
1.0012132034355969
 13
-0.28
 23
2.52
 33
0.9800000000000004
  0
3DFACE
  5
2952
  8
TAIL
 10
-0.2300000000000001
 20
2.5287867965644031
 30
1.0012132034355969
 11
-0.2300000000000001
 21
2.5499999999999998
 31
1.0099999999999989
 12
-0.28
 22
2.5499999999999998
 32
1.0099999999999989
 13
-0.28
 23
2.5287867965644031
 33
1.0012132034355969
  0
3DFACE
  5
2953
  8
TAIL
 10
-0.2300000000000001
 20
2.5499999999999998
 30
1.0099999999999989
 11
-0.2300000000000001
 21
2.5712132034355961
 31
1.0012132034355969
 12
-0.28
 22
2.5712132034355961
 32
1.0012132034355969
 13
-0.28
 23
2.5499999999999998
 33
1.0099999999999989
  0
3DFACE
  5
2954
  8
TAIL
 10
-0.2300000000000001
 20
2.5712132034355961
 30
1.0012132034355969
 11
-0.2300000000000001
 21
2.5800000000000001
 31
0.9800000000000004
 12
-0.28
 22
2.5800000000000001
 32
0.9800000000000004
 13
-0.28
 23
2.5712132034355961
 33
1.0012132034355969
  0
3DFACE
  5
2955
  8
TAIL
 10
-0.2300000000000001
 20
2.5800000000000001
 30
0.9800000000000004
 11
-0.2300000000000001
 21
2.5712132034355961
 31
0.9587867965644036
 12
-0.28
 22
2.5712132034355961
 32
0.9587867965644036
 13
-0.28
 23
2.5800000000000001
 33
0.9800000000000004
  0
3DFACE
  5
2956
  8
TAIL
 10
-0.2300000000000001
 20
2.5712132034355961
 30
0.9587867965644036
 11
-0.2300000000000001
 21
2.5499999999999998
 31
0.950000000000001
 12
-0.28
 22
2.5499999999999998
 32
0.950000000000001
 13
-0.28
 23
2.5712132034355961
 33
0.9587867965644036
  0
3DFACE
  5
2957
  8
TAIL
 10
-0.2300000000000001
 20
2.5499999999999998
 30
0.950000000000001
 11
-0.2300000000000001
 21
2.5287867965644031
 31
0.9587867965644036
 12
-0.28
 22
2.5287867965644031
 32
0.9587867965644036
 13
-0.28
 23
2.5499999999999998
 33
0.950000000000001
  0
3DFACE
  5
2958
  8
TAIL
 10
-0.2300000000000001
 20
2.5287867965644031
 30
0.9587867965644036
 11
-0.2300000000000001
 21
2.52
 31
0.9800000000000004
 12
-0.28
 22
2.52
 32
0.9800000000000004
 13
-0.28
 23
2.5287867965644031
 33
0.9587867965644036
  0
3DFACE
  5
2959
  8
TAIL
 10
-0.28
 20
2.5299999999999998
 30
0.9800000000000004
 11
-0.28
 21
2.54
 31
0.9973205080756883
 12
-0.29
 22
2.54
 32
0.9973205080756883
 13
-0.29
 23
2.5299999999999998
 33
0.9800000000000004
  0
3DFACE
  5
295A
  8
TAIL
 10
-0.28
 20
2.54
 30
0.9973205080756883
 11
-0.28
 21
2.5600000000000001
 31
0.9973205080756883
 12
-0.29
 22
2.5600000000000001
 32
0.9973205080756883
 13
-0.29
 23
2.54
 33
0.9973205080756883
  0
3DFACE
  5
295B
  8
TAIL
 10
-0.28
 20
2.5600000000000001
 30
0.9973205080756883
 11
-0.28
 21
2.5699999999999998
 31
0.9800000000000004
 12
-0.29
 22
2.5699999999999998
 32
0.9800000000000004
 13
-0.29
 23
2.5600000000000001
 33
0.9973205080756883
  0
3DFACE
  5
295C
  8
TAIL
 10
-0.28
 20
2.5699999999999998
 30
0.9800000000000004
 11
-0.28
 21
2.5600000000000001
 31
0.9626794919243124
 12
-0.29
 22
2.5600000000000001
 32
0.9626794919243124
 13
-0.29
 23
2.5699999999999998
 33
0.9800000000000004
  0
3DFACE
  5
295D
  8
TAIL
 10
-0.28
 20
2.5600000000000001
 30
0.9626794919243124
 11
-0.28
 21
2.54
 31
0.9626794919243124
 12
-0.29
 22
2.54
 32
0.9626794919243124
 13
-0.29
 23
2.5600000000000001
 33
0.9626794919243124
  0
3DFACE
  5
295E
  8
TAIL
 10
-0.28
 20
2.54
 30
0.9626794919243124
 11
-0.28
 21
2.5299999999999998
 31
0.9800000000000004
 12
-0.29
 22
2.5299999999999998
 32
0.9800000000000004
 13
-0.29
 23
2.54
 33
0.9626794919243124
  0
3DFACE
  5
295F
  8
TAIL
 10
-0.25
 20
2.48
 30
0.9900000000000002
 11
-0.2500000000000001
 21
2.5241421356237308
 31
0.9900000000000002
 12
-0.27
 22
2.5241421356237308
 32
0.9900000000000002
 13
-0.27
 23
2.48
 33
0.9900000000000002
  0
3DFACE
  5
2960
  8
TAIL
 10
-0.25
 20
2.5241421356237308
 30
0.9700000000000006
 11
-0.25
 21
2.48
 31
0.9700000000000006
 12
-0.27
 22
2.48
 32
0.9700000000000006
 13
-0.27
 23
2.5241421356237308
 33
0.9700000000000006
  0
3DFACE
  5
2965
  8
TAIL
 10
-0.25
 20
2.48
 30
0.9700000000000006
 11
-0.2500000000000001
 21
2.52
 31
0.9800000000000004
 12
-0.25
 22
2.5241421356237308
 32
0.9900000000000002
 13
-0.25
 23
2.48
 33
0.9900000000000002
  0
3DFACE
  5
2966
  8
TAIL
 10
-0.25
 20
2.48
 30
0.9700000000000006
 11
-0.25
 21
2.5241421356237308
 31
0.9700000000000006
 12
-0.2500000000000001
 22
2.52
 32
0.9800000000000004
 13
-0.25
 23
2.48
 33
0.9700000000000006
  0
3DFACE
  5
2967
  8
TAIL
 10
-0.27
 20
2.48
 30
0.9900000000000002
 11
-0.2700000000000001
 21
2.5241421356237308
 31
0.9900000000000002
 12
-0.27
 22
2.52
 32
0.9800000000000004
 13
-0.27
 23
2.48
 33
0.9700000000000006
  0
3DFACE
  5
2968
  8
TAIL
 10
-0.27
 20
2.48
 30
0.9700000000000006
 11
-0.27
 21
2.52
 31
0.9800000000000004
 12
-0.27
 22
2.5241421356237308
 32
0.9700000000000006
 13
-0.27
 23
2.48
 33
0.9700000000000006
  0
3DFACE
  5
2969
  8
TAIL
 10
-0.2499999999999999
 20
2.48
 30
0.9700000000000006
 11
-0.2499999999999999
 21
2.48
 31
0.9900000000000002
 12
-0.2699999999999999
 22
2.48
 32
0.9900000000000002
 13
-0.2699999999999999
 23
2.48
 33
0.9700000000000006
  0
3DFACE
  5
296A
  8
TAIL
 10
-0.29
 20
2.54
 30
0.9973205080756883
 11
-0.29
 21
2.5600000000000001
 31
0.9973205080756883
 12
-0.29
 22
2.5699999999999998
 32
0.9800000000000004
 13
-0.29
 23
2.5299999999999998
 33
0.9800000000000004
  0
3DFACE
  5
296B
  8
TAIL
 10
-0.29
 20
2.5299999999999998
 30
0.9800000000000004
 11
-0.29
 21
2.5699999999999998
 31
0.9800000000000004
 12
-0.29
 22
2.5600000000000001
 32
0.9626794919243124
 13
-0.29
 23
2.54
 33
0.9626794919243124
  0
3DFACE
  5
296C
  8
TAIL
 10
-0.28
 20
2.5287867965644031
 30
1.0012132034355969
 11
-0.28
 21
2.5499999999999998
 31
1.0099999999999989
 12
-0.28
 22
2.5600000000000001
 32
0.9973205080756883
 13
-0.28
 23
2.54
 33
0.9973205080756883
  0
3DFACE
  5
296D
  8
TAIL
 10
-0.28
 20
2.52
 30
0.9800000000000004
 11
-0.28
 21
2.5287867965644031
 31
1.0012132034355969
 12
-0.28
 22
2.54
 32
0.9973205080756883
 13
-0.28
 23
2.5299999999999998
 33
0.9800000000000004
  0
3DFACE
  5
296E
  8
TAIL
 10
-0.28
 20
2.5287867965644031
 30
0.9587867965644036
 11
-0.28
 21
2.52
 31
0.9800000000000004
 12
-0.28
 22
2.5299999999999998
 32
0.9800000000000004
 13
-0.28
 23
2.54
 33
0.9626794919243124
  0
3DFACE
  5
296F
  8
TAIL
 10
-0.28
 20
2.5499999999999998
 30
0.950000000000001
 11
-0.28
 21
2.5287867965644031
 31
0.9587867965644036
 12
-0.28
 22
2.54
 32
0.9626794919243124
 13
-0.28
 23
2.5600000000000001
 33
0.9626794919243124
  0
3DFACE
  5
2970
  8
TAIL
 10
-0.28
 20
2.5499999999999998
 30
1.0099999999999989
 11
-0.28
 21
2.5712132034355961
 31
1.0012132034355969
 12
-0.28
 22
2.5712132034355961
 32
1.0012132034355969
 13
-0.28
 23
2.5600000000000001
 33
0.9973205080756883
  0
3DFACE
  5
2971
  8
TAIL
 10
-0.28
 20
2.5712132034355961
 30
1.0012132034355969
 11
-0.28
 21
2.5800000000000001
 31
0.9800000000000004
 12
-0.28
 22
2.5699999999999998
 32
0.9800000000000004
 13
-0.28
 23
2.5600000000000001
 33
0.9973205080756883
  0
3DFACE
  5
2972
  8
TAIL
 10
-0.28
 20
2.5800000000000001
 30
0.9800000000000004
 11
-0.28
 21
2.5712132034355961
 31
0.9587867965644036
 12
-0.28
 22
2.5600000000000001
 32
0.9626794919243124
 13
-0.28
 23
2.5699999999999998
 33
0.9800000000000004
  0
3DFACE
  5
2973
  8
TAIL
 10
-0.28
 20
2.5712132034355961
 30
0.9587867965644036
 11
-0.28
 21
2.5499999999999998
 31
0.950000000000001
 12
-0.28
 22
2.5600000000000001
 32
0.9626794919243124
 13
-0.28
 23
2.5600000000000001
 33
0.9626794919243124
  0
3DFACE
  5
2975
  8
TAIL
 10
-0.2518953646967803
 20
2.4548671821995178
 30
1.0099999999999989
 11
-0.2377563709456101
 21
2.492284943432713
 31
1.0099999999999989
 12
-0.2751741321788047
 22
2.5064239371838828
 32
1.0099999999999989
 13
-0.2893131259299749
 23
2.4690061759506881
 33
1.0099999999999989
  0
3DFACE
  5
2976
  8
TAIL
 10
-0.2377563709456101
 20
2.492284943432713
 30
1.0099999999999989
 11
-0.2377563709456101
 21
2.492284943432713
 31
1.0
 12
-0.2751741321788047
 22
2.5064239371838828
 32
1.0
 13
-0.2751741321788047
 23
2.5064239371838828
 33
1.0099999999999989
  0
3DFACE
  5
2977
  8
TAIL
 10
-0.2377563709456101
 20
2.492284943432713
 30
1.0
 11
-0.2483606162589877
 21
2.4642216225078171
 31
1.0
 12
-0.2857783774921823
 22
2.4783606162589868
 32
1.0
 13
-0.2751741321788047
 23
2.5064239371838828
 33
1.0
  0
3DFACE
  5
2978
  8
TAIL
 10
-0.2483606162589877
 20
2.4642216225078171
 30
1.0
 11
-0.2483606162589877
 21
2.4642216225078171
 31
0.9600000000000009
 12
-0.2857783774921823
 22
2.4783606162589868
 32
0.9600000000000009
 13
-0.2857783774921823
 23
2.4783606162589868
 33
1.0
  0
3DFACE
  5
2979
  8
TAIL
 10
-0.2483606162589877
 20
2.4642216225078171
 30
0.9600000000000009
 11
-0.2377563709456101
 21
2.492284943432713
 31
0.9600000000000009
 12
-0.2751741321788047
 22
2.5064239371838828
 32
0.9600000000000009
 13
-0.2857783774921823
 23
2.4783606162589868
 33
0.9600000000000009
  0
3DFACE
  5
297A
  8
TAIL
 10
-0.2377563709456101
 20
2.492284943432713
 30
0.9600000000000009
 11
-0.2377563709456101
 21
2.492284943432713
 31
0.950000000000001
 12
-0.2751741321788047
 22
2.5064239371838828
 32
0.950000000000001
 13
-0.2751741321788047
 23
2.5064239371838828
 33
0.9600000000000009
  0
3DFACE
  5
297B
  8
TAIL
 10
-0.2377563709456101
 20
2.492284943432713
 30
0.950000000000001
 11
-0.2518953646967803
 21
2.4548671821995178
 31
0.950000000000001
 12
-0.2893131259299749
 22
2.4690061759506881
 32
0.950000000000001
 13
-0.2751741321788047
 23
2.5064239371838828
 33
0.950000000000001
  0
3DFACE
  5
297C
  8
TAIL
 10
-0.2518953646967803
 20
2.4548671821995178
 30
0.950000000000001
 11
-0.2518953646967803
 21
2.4548671821995178
 31
1.0099999999999989
 12
-0.2893131259299749
 22
2.4690061759506881
 32
1.0099999999999989
 13
-0.2893131259299749
 23
2.4690061759506881
 33
0.950000000000001
  0
3DFACE
  5
2989
  8
TAIL
 10
-0.2565725848509297
 20
2.4566345564184151
 30
0.9800000000000004
 11
-0.2706042453133778
 21
2.4619366790751029
 31
0.9950000000000009
 12
-0.2812084906267555
 22
2.433873358150207
 32
0.9950000000000009
 13
-0.2671768301643074
 23
2.4285712354935192
 33
0.9800000000000004
  0
3DFACE
  5
298A
  8
TAIL
 10
-0.2706042453133778
 20
2.4619366790751029
 30
0.9950000000000009
 11
-0.2846359057758257
 21
2.4672388017317921
 31
0.9800000000000004
 12
-0.2952401510892034
 22
2.4391754808068962
 32
0.9800000000000004
 13
-0.2812084906267555
 23
2.433873358150207
 33
0.9950000000000009
  0
3DFACE
  5
298B
  8
TAIL
 10
-0.2846359057758257
 20
2.4672388017317921
 30
0.9800000000000004
 11
-0.2706042453133778
 21
2.4619366790751029
 31
0.9649999999999998
 12
-0.2812084906267555
 22
2.433873358150207
 32
0.9649999999999998
 13
-0.2952401510892034
 23
2.4391754808068962
 33
0.9800000000000004
  0
3DFACE
  5
298C
  8
TAIL
 10
-0.2706042453133778
 20
2.4619366790751029
 30
0.9649999999999998
 11
-0.2565725848509297
 21
2.4566345564184151
 31
0.9800000000000004
 12
-0.2671768301643074
 22
2.4285712354935192
 32
0.9800000000000004
 13
-0.2812084906267555
 23
2.433873358150207
 33
0.9649999999999998
  0
3DFACE
  5
298D
  8
TAIL
 10
-0.2624996100101581
 20
2.4268038612746219
 30
0.9800000000000004
 11
-0.2812084906267555
 21
2.433873358150207
 31
1.0
 12
-0.5003628937698949
 22
1.8538980590356899
 32
1.0
 13
-0.4816540131532975
 23
1.846828562160105
 33
0.9800000000000004
  0
3DFACE
  5
298E
  8
TAIL
 10
-0.2812084906267555
 20
2.433873358150207
 30
1.0
 11
-0.2999173712433528
 21
2.440942855025793
 31
0.9800000000000004
 12
-0.5190717743864921
 22
1.8609675559112751
 32
0.9800000000000004
 13
-0.5003628937698949
 23
1.8538980590356899
 33
1.0
  0
3DFACE
  5
298F
  8
TAIL
 10
-0.2999173712433528
 20
2.440942855025793
 30
0.9800000000000004
 11
-0.2812084906267555
 21
2.433873358150207
 31
0.9600000000000009
 12
-0.5003628937698949
 22
1.8538980590356899
 32
0.9600000000000009
 13
-0.5190717743864921
 23
1.8609675559112751
 33
0.9800000000000004
  0
3DFACE
  5
2990
  8
TAIL
 10
-0.2812084906267555
 20
2.433873358150207
 30
0.9600000000000009
 11
-0.2624996100101581
 21
2.4268038612746219
 31
0.9800000000000004
 12
-0.4816540131532975
 22
1.846828562160105
 32
0.9800000000000004
 13
-0.5003628937698949
 23
1.8538980590356899
 33
0.9600000000000009
  0
3DFACE
  5
2991
  8
TAIL
 10
-0.2893131259299749
 20
2.4690061759506881
 30
1.0099999999999989
 11
-0.2751741321788047
 21
2.5064239371838828
 31
1.0099999999999989
 12
-0.2751741321788047
 22
2.5064239371838828
 32
1.0
 13
-0.2857783774921823
 23
2.4783606162589868
 33
1.0
  0
3DFACE
  5
2992
  8
TAIL
 10
-0.2893131259299749
 20
2.4690061759506881
 30
0.950000000000001
 11
-0.2893131259299749
 21
2.4690061759506881
 31
1.0099999999999989
 12
-0.2857783774921823
 22
2.4783606162589868
 32
1.0
 13
-0.2857783774921823
 23
2.4783606162589868
 33
0.9600000000000009
  0
3DFACE
  5
2993
  8
TAIL
 10
-0.2751741321788047
 20
2.5064239371838828
 30
0.950000000000001
 11
-0.2893131259299749
 21
2.4690061759506881
 31
0.950000000000001
 12
-0.2857783774921823
 22
2.4783606162589868
 32
0.9600000000000009
 13
-0.2751741321788047
 23
2.5064239371838828
 33
0.9600000000000009
  0
3DFACE
  5
2994
  8
TAIL
 10
-0.2518953646967803
 20
2.4548671821995178
 30
1.0099999999999989
 11
-0.2518953646967803
 21
2.4548671821995178
 31
0.950000000000001
 12
-0.2483606162589877
 22
2.4642216225078171
 32
0.9600000000000009
 13
-0.2483606162589877
 23
2.4642216225078171
 33
1.0
  0
3DFACE
  5
2995
  8
TAIL
 10
-0.2377563709456101
 20
2.492284943432713
 30
1.0099999999999989
 11
-0.2518953646967803
 21
2.4548671821995178
 31
1.0099999999999989
 12
-0.2483606162589877
 22
2.4642216225078171
 32
1.0
 13
-0.2377563709456101
 23
2.492284943432713
 33
1.0
  0
3DFACE
  5
2996
  8
TAIL
 10
-0.2518953646967803
 20
2.4548671821995178
 30
0.950000000000001
 11
-0.2377563709456101
 21
2.492284943432713
 31
0.950000000000001
 12
-0.2377563709456101
 22
2.492284943432713
 32
0.9600000000000009
 13
-0.2483606162589877
 23
2.4642216225078171
 33
0.9600000000000009
  0
3DFACE
  5
2997
  8
TAIL
 10
-0.2812084906267555
 20
2.433873358150207
 30
0.9950000000000009
 11
-0.2952401510892034
 21
2.4391754808068962
 31
0.9800000000000004
 12
-0.2999173712433528
 22
2.440942855025793
 32
0.9800000000000004
 13
-0.2812084906267555
 23
2.433873358150207
 33
1.0
  0
3DFACE
  5
2998
  8
TAIL
 10
-0.2952401510892038
 20
2.4391754808068962
 30
0.9800000000000004
 11
-0.2812084906267552
 21
2.433873358150207
 31
0.9649999999999998
 12
-0.2812084906267552
 22
2.433873358150207
 32
0.9600000000000009
 13
-0.2999173712433522
 23
2.4409428550257921
 33
0.9800000000000004
  0
3DFACE
  5
2999
  8
TAIL
 10
-0.2812084906267553
 20
2.433873358150207
 30
0.9649999999999998
 11
-0.2671768301643074
 21
2.4285712354935178
 31
0.9800000000000004
 12
-0.262499610010158
 22
2.4268038612746219
 32
0.9800000000000004
 13
-0.2812084906267553
 23
2.433873358150207
 33
0.9600000000000009
  0
3DFACE
  5
299A
  8
TAIL
 10
-0.2671768301643067
 20
2.4285712354935178
 30
0.9800000000000004
 11
-0.2812084906267552
 21
2.433873358150207
 31
0.9949999999999992
 12
-0.2812084906267552
 22
2.433873358150207
 32
1.0
 13
-0.2624996100101583
 23
2.4268038612746219
 33
0.9800000000000004
  0
3DFACE
  5
299D
  8
TAIL
 10
-0.4993277553422604
 20
1.8000563606186111
 30
0.950000000000001
 11
-0.4993277553422604
 21
1.8000563606186111
 31
1.0099999999999989
 12
-0.5028625037800532
 22
1.7907019203103121
 32
1.0
 13
-0.5028625037800532
 23
1.7907019203103121
 33
0.9600000000000009
  0
3DFACE
  5
299E
  8
TAIL
 10
-0.5028625037800532
 20
1.7907019203103121
 30
0.9600000000000009
 11
-0.5028625037800532
 21
1.7907019203103121
 31
1.0
 12
-0.5402802650132477
 22
1.8048409140614821
 32
1.0
 13
-0.5402802650132477
 23
1.8048409140614821
 33
0.9600000000000009
  0
3DFACE
  5
299F
  8
TAIL
 10
-0.4993277553422604
 20
1.8000563606186111
 30
1.0099999999999989
 11
-0.4993277553422604
 21
1.8000563606186111
 31
0.950000000000001
 12
-0.5367455165754551
 22
1.8141953543697811
 32
0.950000000000001
 13
-0.5367455165754551
 23
1.8141953543697811
 33
1.0099999999999989
  0
3DFACE
  5
29A0
  8
TAIL
 10
-0.5367455165754551
 20
1.8141953543697811
 30
1.0099999999999989
 11
-0.5367455165754551
 21
1.8141953543697811
 31
0.950000000000001
 12
-0.5402802650132477
 22
1.8048409140614821
 32
0.9600000000000009
 13
-0.5402802650132477
 23
1.8048409140614821
 33
1.0
  0
3DFACE
  5
29A1
  8
TAIL
 10
-0.5134667490934306
 20
1.7626385993854159
 30
0.950000000000001
 11
-0.4993277553422604
 21
1.8000563606186111
 31
0.950000000000001
 12
-0.5028625037800532
 22
1.7907019203103121
 32
0.9600000000000009
 13
-0.5134667490934306
 23
1.7626385993854159
 33
0.9600000000000009
  0
3DFACE
  5
29A2
  8
TAIL
 10
-0.5134667490934306
 20
1.7626385993854159
 30
0.950000000000001
 11
-0.5134667490934306
 21
1.7626385993854159
 31
0.9600000000000009
 12
-0.5508845103266253
 22
1.7767775931365859
 32
0.9600000000000009
 13
-0.5508845103266253
 23
1.7767775931365859
 33
0.950000000000001
  0
3DFACE
  5
29A3
  8
TAIL
 10
-0.5134667490934306
 20
1.7626385993854159
 30
0.9600000000000009
 11
-0.5028625037800532
 21
1.7907019203103121
 31
0.9600000000000009
 12
-0.5402802650132477
 22
1.8048409140614821
 32
0.9600000000000009
 13
-0.5508845103266253
 23
1.7767775931365859
 33
0.9600000000000009
  0
3DFACE
  5
29A4
  8
TAIL
 10
-0.4993277553422604
 20
1.8000563606186111
 30
0.950000000000001
 11
-0.5134667490934306
 21
1.7626385993854159
 31
0.950000000000001
 12
-0.5508845103266253
 22
1.7767775931365859
 32
0.950000000000001
 13
-0.5367455165754551
 23
1.8141953543697811
 33
0.950000000000001
  0
3DFACE
  5
29A5
  8
TAIL
 10
-0.5367455165754551
 20
1.8141953543697811
 30
0.950000000000001
 11
-0.5508845103266253
 21
1.7767775931365859
 31
0.950000000000001
 12
-0.5508845103266253
 22
1.7767775931365859
 32
0.9600000000000009
 13
-0.5402802650132477
 23
1.8048409140614821
 33
0.9600000000000009
  0
3DFACE
  5
29A6
  8
TAIL
 10
-0.5180366359588579
 20
1.807125857494196
 30
0.9649999999999998
 11
-0.5320682964213059
 21
1.8124279801508849
 31
0.9800000000000004
 12
-0.5143945542323429
 22
1.859200181692378
 32
0.9800000000000004
 13
-0.5003628937698949
 23
1.8538980590356899
 33
0.9649999999999998
  0
3DFACE
  5
29A7
  8
TAIL
 10
-0.5040049754964099
 20
1.801823734837507
 30
0.9800000000000004
 11
-0.5180366359588579
 21
1.807125857494196
 31
0.9649999999999998
 12
-0.5003628937698949
 22
1.8538980590356899
 32
0.9649999999999998
 13
-0.4863312333074468
 23
1.848595936379001
 33
0.9800000000000004
  0
3DFACE
  5
29A8
  8
TAIL
 10
-0.5180366359588579
 20
1.807125857494196
 30
0.9950000000000009
 11
-0.5040049754964099
 21
1.801823734837507
 31
0.9800000000000004
 12
-0.4863312333074468
 22
1.848595936379001
 32
0.9800000000000004
 13
-0.5003628937698949
 23
1.8538980590356899
 33
0.9950000000000009
  0
3DFACE
  5
29A9
  8
TAIL
 10
-0.5320682964213059
 20
1.8124279801508849
 30
0.9800000000000004
 11
-0.5180366359588579
 21
1.807125857494196
 31
0.9950000000000009
 12
-0.5003628937698949
 22
1.8538980590356899
 32
0.9950000000000009
 13
-0.5143945542323429
 23
1.859200181692378
 33
0.9800000000000004
  0
3DFACE
  5
29AA
  8
TAIL
 10
-0.4993277553422604
 20
1.8000563606186111
 30
1.0099999999999989
 11
-0.5134667490934306
 21
1.7626385993854159
 31
1.0099999999999989
 12
-0.5134667490934306
 22
1.7626385993854159
 32
1.0
 13
-0.5028625037800532
 23
1.7907019203103121
 33
1.0
  0
3DFACE
  5
29AB
  8
TAIL
 10
-0.5134667490934306
 20
1.7626385993854159
 30
1.0
 11
-0.5134667490934306
 21
1.7626385993854159
 31
1.0099999999999989
 12
-0.5508845103266253
 22
1.7767775931365859
 32
1.0099999999999989
 13
-0.5508845103266253
 23
1.7767775931365859
 33
1.0
  0
3DFACE
  5
29AC
  8
TAIL
 10
-0.5028625037800532
 20
1.7907019203103121
 30
1.0
 11
-0.5134667490934306
 21
1.7626385993854159
 31
1.0
 12
-0.5508845103266253
 22
1.7767775931365859
 32
1.0
 13
-0.5402802650132477
 23
1.8048409140614821
 33
1.0
  0
3DFACE
  5
29AD
  8
TAIL
 10
-0.5134667490934306
 20
1.7626385993854159
 30
1.0099999999999989
 11
-0.4993277553422604
 21
1.8000563606186111
 31
1.0099999999999989
 12
-0.5367455165754551
 22
1.8141953543697811
 32
1.0099999999999989
 13
-0.5508845103266253
 23
1.7767775931365859
 33
1.0099999999999989
  0
3DFACE
  5
29AE
  8
TAIL
 10
-0.5508845103266253
 20
1.7767775931365859
 30
1.0099999999999989
 11
-0.5367455165754551
 21
1.8141953543697811
 31
1.0099999999999989
 12
-0.5402802650132477
 22
1.8048409140614821
 32
1.0
 13
-0.5508845103266253
 23
1.7767775931365859
 33
1.0
  0
3DFACE
  5
29AF
  8
TAIL
 10
-0.4863312333074463
 20
1.8485959363790001
 30
0.9800000000000004
 11
-0.5003628937698949
 21
1.853898059035689
 31
0.9650000000000016
 12
-0.5003628937698949
 22
1.853898059035689
 32
0.9600000000000009
 13
-0.4816540131532979
 23
1.8468285621601039
 33
0.9800000000000004
  0
3DFACE
  5
29B0
  8
TAIL
 10
-0.5003628937698951
 20
1.853898059035689
 30
0.9649999999999998
 11
-0.5143945542323432
 21
1.859200181692378
 31
0.9800000000000004
 12
-0.5190717743864923
 22
1.8609675559112739
 32
0.9800000000000004
 13
-0.5003628937698951
 23
1.853898059035689
 33
0.9600000000000009
  0
3DFACE
  5
29B1
  8
TAIL
 10
-0.500362893769895
 20
1.853898059035689
 30
0.9950000000000009
 11
-0.486331233307447
 21
1.8485959363790001
 31
0.9800000000000004
 12
-0.4816540131532977
 22
1.8468285621601039
 32
0.9800000000000004
 13
-0.500362893769895
 23
1.853898059035689
 33
1.0
  0
3DFACE
  5
29B2
  8
TAIL
 10
-0.5143945542323434
 20
1.859200181692378
 30
0.9800000000000004
 11
-0.5003628937698949
 21
1.853898059035689
 31
0.9950000000000009
 12
-0.5003628937698949
 22
1.853898059035689
 32
1.0
 13
-0.5190717743864918
 23
1.8609675559112739
 33
0.9800000000000004
  0
3DFACE
  5
29C0
  8
TAIL
 10
0.5367455165754551
 20
1.8141953543697811
 30
0.950000000000001
 11
0.5367455165754551
 21
1.8141953543697811
 31
1.0099999999999989
 12
0.5402802650132477
 22
1.8048409140614821
 32
1.0
 13
0.5402802650132477
 23
1.8048409140614821
 33
0.9600000000000009
  0
3DFACE
  5
29C1
  8
TAIL
 10
0.4993277553422604
 20
1.8000563606186111
 30
0.950000000000001
 11
0.4993277553422604
 21
1.8000563606186111
 31
1.0099999999999989
 12
0.5367455165754551
 22
1.8141953543697811
 32
1.0099999999999989
 13
0.5367455165754551
 23
1.8141953543697811
 33
0.950000000000001
  0
3DFACE
  5
29C2
  8
TAIL
 10
0.5028625037800532
 20
1.7907019203103121
 30
1.0
 11
0.5028625037800532
 21
1.7907019203103121
 31
0.9600000000000009
 12
0.5402802650132477
 22
1.8048409140614821
 32
0.9600000000000009
 13
0.5402802650132477
 23
1.8048409140614821
 33
1.0
  0
3DFACE
  5
29C3
  8
TAIL
 10
0.4993277553422604
 20
1.8000563606186111
 30
1.0099999999999989
 11
0.4993277553422604
 21
1.8000563606186111
 31
0.950000000000001
 12
0.5028625037800532
 22
1.7907019203103121
 32
0.9600000000000009
 13
0.5028625037800532
 23
1.7907019203103121
 33
1.0
  0
3DFACE
  5
29C4
  8
TAIL
 10
0.5320682964213059
 20
1.8124279801508849
 30
0.9800000000000004
 11
0.5180366359588579
 21
1.807125857494196
 31
0.9649999999999998
 12
0.5003628937698949
 22
1.8538980590356899
 32
0.9649999999999998
 13
0.5143945542323429
 23
1.859200181692378
 33
0.9800000000000004
  0
3DFACE
  5
29C5
  8
TAIL
 10
0.5180366359588579
 20
1.807125857494196
 30
0.9649999999999998
 11
0.5040049754964099
 21
1.801823734837507
 31
0.9800000000000004
 12
0.4863312333074468
 22
1.848595936379001
 32
0.9800000000000004
 13
0.5003628937698949
 23
1.8538980590356899
 33
0.9649999999999998
  0
3DFACE
  5
29C6
  8
TAIL
 10
0.5143945542323434
 20
1.859200181692378
 30
0.9800000000000004
 11
0.5003628937698949
 21
1.853898059035689
 31
0.9649999999999998
 12
0.5003628937698949
 22
1.853898059035689
 32
0.9600000000000009
 13
0.5190717743864918
 23
1.8609675559112739
 33
0.9800000000000004
  0
3DFACE
  5
29C7
  8
TAIL
 10
0.500362893769895
 20
1.853898059035689
 30
0.9649999999999998
 11
0.486331233307447
 21
1.8485959363790001
 31
0.9800000000000004
 12
0.4816540131532977
 22
1.8468285621601039
 32
0.9800000000000004
 13
0.500362893769895
 23
1.853898059035689
 33
0.9600000000000009
  0
3DFACE
  5
29C8
  8
TAIL
 10
0.2812084906267555
 20
2.433873358150207
 30
0.9600000000000009
 11
0.2999173712433528
 21
2.440942855025793
 31
0.9800000000000004
 12
0.5190717743864921
 22
1.8609675559112751
 32
0.9800000000000004
 13
0.5003628937698949
 23
1.8538980590356899
 33
0.9600000000000009
  0
3DFACE
  5
29C9
  8
TAIL
 10
0.2624996100101581
 20
2.4268038612746219
 30
0.9800000000000004
 11
0.2812084906267555
 21
2.433873358150207
 31
0.9600000000000009
 12
0.5003628937698949
 22
1.8538980590356899
 32
0.9600000000000009
 13
0.4816540131532975
 23
1.846828562160105
 33
0.9800000000000004
  0
3DFACE
  5
29CA
  8
TAIL
 10
0.5367455165754551
 20
1.8141953543697811
 30
1.0099999999999989
 11
0.5508845103266253
 21
1.7767775931365859
 31
1.0099999999999989
 12
0.5508845103266253
 22
1.7767775931365859
 32
1.0
 13
0.5402802650132477
 23
1.8048409140614821
 33
1.0
  0
3DFACE
  5
29CB
  8
TAIL
 10
0.4993277553422604
 20
1.8000563606186111
 30
1.0099999999999989
 11
0.5134667490934306
 21
1.7626385993854159
 31
1.0099999999999989
 12
0.5508845103266253
 22
1.7767775931365859
 32
1.0099999999999989
 13
0.5367455165754551
 23
1.8141953543697811
 33
1.0099999999999989
  0
3DFACE
  5
29CC
  8
TAIL
 10
0.5134667490934306
 20
1.7626385993854159
 30
1.0
 11
0.5028625037800532
 21
1.7907019203103121
 31
1.0
 12
0.5402802650132477
 22
1.8048409140614821
 32
1.0
 13
0.5508845103266253
 23
1.7767775931365859
 33
1.0
  0
3DFACE
  5
29CD
  8
TAIL
 10
0.5134667490934306
 20
1.7626385993854159
 30
1.0099999999999989
 11
0.5134667490934306
 21
1.7626385993854159
 31
1.0
 12
0.5508845103266253
 22
1.7767775931365859
 32
1.0
 13
0.5508845103266253
 23
1.7767775931365859
 33
1.0099999999999989
  0
3DFACE
  5
29CE
  8
TAIL
 10
0.5134667490934306
 20
1.7626385993854159
 30
1.0099999999999989
 11
0.4993277553422604
 21
1.8000563606186111
 31
1.0099999999999989
 12
0.5028625037800532
 22
1.7907019203103121
 32
1.0
 13
0.5134667490934306
 23
1.7626385993854159
 33
1.0
  0
3DFACE
  5
29CF
  8
TAIL
 10
0.5180366359588579
 20
1.807125857494196
 30
0.9950000000000009
 11
0.5320682964213059
 21
1.8124279801508849
 31
0.9800000000000004
 12
0.5143945542323429
 22
1.859200181692378
 32
0.9800000000000004
 13
0.5003628937698949
 23
1.8538980590356899
 33
0.9950000000000009
  0
3DFACE
  5
29D0
  8
TAIL
 10
0.5040049754964099
 20
1.801823734837507
 30
0.9800000000000004
 11
0.5180366359588579
 21
1.807125857494196
 31
0.9950000000000009
 12
0.5003628937698949
 22
1.8538980590356899
 32
0.9950000000000009
 13
0.4863312333074468
 23
1.848595936379001
 33
0.9800000000000004
  0
3DFACE
  5
29D1
  8
TAIL
 10
0.5003628937698951
 20
1.853898059035689
 30
0.9950000000000009
 11
0.5143945542323432
 21
1.859200181692378
 31
0.9800000000000004
 12
0.5190717743864923
 22
1.8609675559112739
 32
0.9800000000000004
 13
0.5003628937698951
 23
1.853898059035689
 33
1.0
  0
3DFACE
  5
29D2
  8
TAIL
 10
0.4863312333074463
 20
1.8485959363790001
 30
0.9800000000000004
 11
0.5003628937698949
 21
1.853898059035689
 31
0.9949999999999992
 12
0.5003628937698949
 22
1.853898059035689
 32
1.0
 13
0.4816540131532979
 23
1.8468285621601039
 33
0.9800000000000004
  0
3DFACE
  5
29D3
  8
TAIL
 10
0.2812084906267555
 20
2.433873358150207
 30
1.0
 11
0.2624996100101581
 21
2.4268038612746219
 31
0.9800000000000004
 12
0.4816540131532975
 22
1.846828562160105
 32
0.9800000000000004
 13
0.5003628937698949
 23
1.8538980590356899
 33
1.0
  0
3DFACE
  5
29D4
  8
TAIL
 10
0.2999173712433528
 20
2.440942855025793
 30
0.9800000000000004
 11
0.2812084906267555
 21
2.433873358150207
 31
1.0
 12
0.5003628937698949
 22
1.8538980590356899
 32
1.0
 13
0.5190717743864921
 23
1.8609675559112751
 33
0.9800000000000004
  0
3DFACE
  5
29D5
  8
TAIL
 10
0.5508845103266253
 20
1.7767775931365859
 30
0.950000000000001
 11
0.5367455165754551
 21
1.8141953543697811
 31
0.950000000000001
 12
0.5402802650132477
 22
1.8048409140614821
 32
0.9600000000000009
 13
0.5508845103266253
 23
1.7767775931365859
 33
0.9600000000000009
  0
3DFACE
  5
29D6
  8
TAIL
 10
0.5134667490934306
 20
1.7626385993854159
 30
0.950000000000001
 11
0.4993277553422604
 21
1.8000563606186111
 31
0.950000000000001
 12
0.5367455165754551
 22
1.8141953543697811
 32
0.950000000000001
 13
0.5508845103266253
 23
1.7767775931365859
 33
0.950000000000001
  0
3DFACE
  5
29D7
  8
TAIL
 10
0.5028625037800532
 20
1.7907019203103121
 30
0.9600000000000009
 11
0.5134667490934306
 21
1.7626385993854159
 31
0.9600000000000009
 12
0.5508845103266253
 22
1.7767775931365859
 32
0.9600000000000009
 13
0.5402802650132477
 23
1.8048409140614821
 33
0.9600000000000009
  0
3DFACE
  5
29D8
  8
TAIL
 10
0.5134667490934306
 20
1.7626385993854159
 30
0.9600000000000009
 11
0.5134667490934306
 21
1.7626385993854159
 31
0.950000000000001
 12
0.5508845103266253
 22
1.7767775931365859
 32
0.950000000000001
 13
0.5508845103266253
 23
1.7767775931365859
 33
0.9600000000000009
  0
3DFACE
  5
29D9
  8
TAIL
 10
0.4993277553422604
 20
1.8000563606186111
 30
0.950000000000001
 11
0.5134667490934306
 21
1.7626385993854159
 31
0.950000000000001
 12
0.5134667490934306
 22
1.7626385993854159
 32
0.9600000000000009
 13
0.5028625037800532
 23
1.7907019203103121
 33
0.9600000000000009
  0
3DFACE
  5
29DA
  8
TAIL
 10
0.2812084906267555
 20
2.433873358150207
 30
0.9649999999999998
 11
0.2952401510892034
 21
2.4391754808068962
 31
0.9800000000000004
 12
0.2999173712433528
 22
2.440942855025793
 32
0.9800000000000004
 13
0.2812084906267555
 23
2.433873358150207
 33
0.9600000000000009
  0
3DFACE
  5
29DB
  8
TAIL
 10
0.2671768301643067
 20
2.4285712354935178
 30
0.9800000000000004
 11
0.2812084906267552
 21
2.433873358150207
 31
0.9650000000000016
 12
0.2812084906267552
 22
2.433873358150207
 32
0.9600000000000009
 13
0.2624996100101583
 23
2.4268038612746219
 33
0.9800000000000004
  0
3DFACE
  5
29DC
  8
TAIL
 10
0.2565725848509297
 20
2.4566345564184151
 30
0.9800000000000004
 11
0.2706042453133778
 21
2.4619366790751029
 31
0.9649999999999998
 12
0.2812084906267555
 22
2.433873358150207
 32
0.9649999999999998
 13
0.2671768301643074
 23
2.4285712354935192
 33
0.9800000000000004
  0
3DFACE
  5
29DD
  8
TAIL
 10
0.2706042453133778
 20
2.4619366790751029
 30
0.9649999999999998
 11
0.2846359057758257
 21
2.4672388017317921
 31
0.9800000000000004
 12
0.2952401510892034
 22
2.4391754808068962
 32
0.9800000000000004
 13
0.2812084906267555
 23
2.433873358150207
 33
0.9649999999999998
  0
3DFACE
  5
29DE
  8
TAIL
 10
0.2893131259299749
 20
2.4690061759506881
 30
1.0099999999999989
 11
0.2893131259299749
 21
2.4690061759506881
 31
0.950000000000001
 12
0.2857783774921823
 22
2.4783606162589868
 32
0.9600000000000009
 13
0.2857783774921823
 23
2.4783606162589868
 33
1.0
  0
3DFACE
  5
29DF
  8
TAIL
 10
0.2518953646967803
 20
2.4548671821995178
 30
1.0099999999999989
 11
0.2518953646967803
 21
2.4548671821995178
 31
0.950000000000001
 12
0.2893131259299749
 22
2.4690061759506881
 32
0.950000000000001
 13
0.2893131259299749
 23
2.4690061759506881
 33
1.0099999999999989
  0
3DFACE
  5
29E0
  8
TAIL
 10
0.2483606162589877
 20
2.4642216225078171
 30
0.9600000000000009
 11
0.2483606162589877
 21
2.4642216225078171
 31
1.0
 12
0.2857783774921823
 22
2.4783606162589868
 32
1.0
 13
0.2857783774921823
 23
2.4783606162589868
 33
0.9600000000000009
  0
3DFACE
  5
29E1
  8
TAIL
 10
0.2518953646967803
 20
2.4548671821995178
 30
0.950000000000001
 11
0.2518953646967803
 21
2.4548671821995178
 31
1.0099999999999989
 12
0.2483606162589877
 22
2.4642216225078171
 32
1.0
 13
0.2483606162589877
 23
2.4642216225078171
 33
0.9600000000000009
  0
3DFACE
  5
29E2
  8
TAIL
 10
0.28
 20
2.5600000000000001
 30
0.9626794919243124
 11
0.28
 21
2.5699999999999998
 31
0.9800000000000004
 12
0.29
 22
2.5699999999999998
 32
0.9800000000000004
 13
0.29
 23
2.5600000000000001
 33
0.9626794919243124
  0
3DFACE
  5
29E3
  8
TAIL
 10
0.28
 20
2.5299999999999998
 30
0.9800000000000004
 11
0.28
 21
2.54
 31
0.9626794919243124
 12
0.29
 22
2.54
 32
0.9626794919243124
 13
0.29
 23
2.5299999999999998
 33
0.9800000000000004
  0
3DFACE
  5
29E4
  8
TAIL
 10
0.2300000000000001
 20
2.5712132034355961
 30
0.9587867965644036
 11
0.2300000000000001
 21
2.5800000000000001
 31
0.9800000000000004
 12
0.28
 22
2.5800000000000001
 32
0.9800000000000004
 13
0.28
 23
2.5712132034355961
 33
0.9587867965644036
  0
3DFACE
  5
29E5
  8
TAIL
 10
0.2300000000000001
 20
2.52
 30
0.9800000000000004
 11
0.2300000000000001
 21
2.5287867965644031
 31
0.9587867965644036
 12
0.28
 22
2.5287867965644031
 32
0.9587867965644036
 13
0.28
 23
2.52
 33
0.9800000000000004
  0
3DFACE
  5
29E8
  8
TAIL
 10
0.25
 20
2.48
 30
0.9900000000000002
 11
0.2500000000000001
 21
2.52
 31
0.9800000000000004
 12
0.25
 22
2.5241421356237308
 32
0.9700000000000006
 13
0.25
 23
2.48
 33
0.9700000000000006
  0
3DFACE
  5
29E9
  8
TAIL
 10
0.27
 20
2.48
 30
0.9700000000000006
 11
0.2700000000000001
 21
2.5241421356237308
 31
0.9700000000000006
 12
0.27
 22
2.52
 32
0.9800000000000004
 13
0.27
 23
2.48
 33
0.9900000000000002
  0
3DFACE
  5
29EA
  8
TAIL
 10
0.29
 20
2.54
 30
0.9626794919243124
 11
0.29
 21
2.5600000000000001
 31
0.9626794919243124
 12
0.29
 22
2.5699999999999998
 32
0.9800000000000004
 13
0.29
 23
2.5299999999999998
 33
0.9800000000000004
  0
3DFACE
  5
29EB
  8
TAIL
 10
0.28
 20
2.52
 30
0.9800000000000004
 11
0.28
 21
2.5287867965644031
 31
0.9587867965644036
 12
0.28
 22
2.54
 32
0.9626794919243124
 13
0.28
 23
2.5299999999999998
 33
0.9800000000000004
  0
3DFACE
  5
29EC
  8
TAIL
 10
0.28
 20
2.5712132034355961
 30
0.9587867965644036
 11
0.28
 21
2.5800000000000001
 31
0.9800000000000004
 12
0.28
 22
2.5699999999999998
 32
0.9800000000000004
 13
0.28
 23
2.5600000000000001
 33
0.9626794919243124
  0
3DFACE
  5
29ED
  8
TAIL
 10
0.2499999999999999
 20
2.48
 30
0.9900000000000002
 11
0.2499999999999999
 21
2.48
 31
0.9700000000000006
 12
0.2699999999999999
 22
2.48
 32
0.9700000000000006
 13
0.2699999999999999
 23
2.48
 33
0.9900000000000002
  0
3DFACE
  5
29EE
  8
TAIL
 10
0.2952401510892038
 20
2.4391754808068962
 30
0.9800000000000004
 11
0.2812084906267552
 21
2.433873358150207
 31
0.9950000000000009
 12
0.2812084906267552
 22
2.433873358150207
 32
1.0
 13
0.2999173712433522
 23
2.4409428550257921
 33
0.9800000000000004
  0
3DFACE
  5
29EF
  8
TAIL
 10
0.2812084906267553
 20
2.433873358150207
 30
0.9950000000000009
 11
0.2671768301643074
 21
2.4285712354935178
 31
0.9800000000000004
 12
0.262499610010158
 22
2.4268038612746219
 32
0.9800000000000004
 13
0.2812084906267553
 23
2.433873358150207
 33
1.0
  0
3DFACE
  5
29F0
  8
TAIL
 10
0.2846359057758257
 20
2.4672388017317921
 30
0.9800000000000004
 11
0.2706042453133778
 21
2.4619366790751029
 31
0.9950000000000009
 12
0.2812084906267555
 22
2.433873358150207
 32
0.9950000000000009
 13
0.2952401510892034
 23
2.4391754808068962
 33
0.9800000000000004
  0
3DFACE
  5
29F1
  8
TAIL
 10
0.2706042453133778
 20
2.4619366790751029
 30
0.9950000000000009
 11
0.2565725848509297
 21
2.4566345564184151
 31
0.9800000000000004
 12
0.2671768301643074
 22
2.4285712354935192
 32
0.9800000000000004
 13
0.2812084906267555
 23
2.433873358150207
 33
0.9950000000000009
  0
3DFACE
  5
29F2
  8
TAIL
 10
0.2751741321788047
 20
2.5064239371838828
 30
1.0099999999999989
 11
0.2893131259299749
 21
2.4690061759506881
 31
1.0099999999999989
 12
0.2857783774921823
 22
2.4783606162589868
 32
1.0
 13
0.2751741321788047
 23
2.5064239371838828
 33
1.0
  0
3DFACE
  5
29F3
  8
TAIL
 10
0.2377563709456101
 20
2.492284943432713
 30
1.0099999999999989
 11
0.2518953646967803
 21
2.4548671821995178
 31
1.0099999999999989
 12
0.2893131259299749
 22
2.4690061759506881
 32
1.0099999999999989
 13
0.2751741321788047
 23
2.5064239371838828
 33
1.0099999999999989
  0
3DFACE
  5
29F4
  8
TAIL
 10
0.2483606162589877
 20
2.4642216225078171
 30
1.0
 11
0.2377563709456101
 21
2.492284943432713
 31
1.0
 12
0.2751741321788047
 22
2.5064239371838828
 32
1.0
 13
0.2857783774921823
 23
2.4783606162589868
 33
1.0
  0
3DFACE
  5
29F5
  8
TAIL
 10
0.2377563709456101
 20
2.492284943432713
 30
1.0
 11
0.2377563709456101
 21
2.492284943432713
 31
1.0099999999999989
 12
0.2751741321788047
 22
2.5064239371838828
 32
1.0099999999999989
 13
0.2751741321788047
 23
2.5064239371838828
 33
1.0
  0
3DFACE
  5
29F6
  8
TAIL
 10
0.2518953646967803
 20
2.4548671821995178
 30
1.0099999999999989
 11
0.2377563709456101
 21
2.492284943432713
 31
1.0099999999999989
 12
0.2377563709456101
 22
2.492284943432713
 32
1.0
 13
0.2483606162589877
 23
2.4642216225078171
 33
1.0
  0
3DFACE
  5
29F7
  8
TAIL
 10
0.28
 20
2.54
 30
0.9973205080756883
 11
0.28
 21
2.5299999999999998
 31
0.9800000000000004
 12
0.29
 22
2.5299999999999998
 32
0.9800000000000004
 13
0.29
 23
2.54
 33
0.9973205080756883
  0
3DFACE
  5
29F8
  8
TAIL
 10
0.28
 20
2.5600000000000001
 30
0.9973205080756883
 11
0.28
 21
2.54
 31
0.9973205080756883
 12
0.29
 22
2.54
 32
0.9973205080756883
 13
0.29
 23
2.5600000000000001
 33
0.9973205080756883
  0
3DFACE
  5
29F9
  8
TAIL
 10
0.28
 20
2.5699999999999998
 30
0.9800000000000004
 11
0.28
 21
2.5600000000000001
 31
0.9973205080756883
 12
0.29
 22
2.5600000000000001
 32
0.9973205080756883
 13
0.29
 23
2.5699999999999998
 33
0.9800000000000004
  0
3DFACE
  5
29FA
  8
TAIL
 10
0.2300000000000001
 20
2.5287867965644031
 30
1.0012132034355969
 11
0.2300000000000001
 21
2.52
 31
0.9800000000000004
 12
0.28
 22
2.52
 32
0.9800000000000004
 13
0.28
 23
2.5287867965644031
 33
1.0012132034355969
  0
3DFACE
  5
29FB
  8
TAIL
 10
0.2300000000000001
 20
2.5499999999999998
 30
1.0099999999999989
 11
0.2300000000000001
 21
2.5287867965644031
 31
1.0012132034355969
 12
0.28
 22
2.5287867965644031
 32
1.0012132034355969
 13
0.28
 23
2.5499999999999998
 33
1.0099999999999989
  0
3DFACE
  5
29FC
  8
TAIL
 10
0.2300000000000001
 20
2.5712132034355961
 30
1.0012132034355969
 11
0.2300000000000001
 21
2.5499999999999998
 31
1.0099999999999989
 12
0.28
 22
2.5499999999999998
 32
1.0099999999999989
 13
0.28
 23
2.5712132034355961
 33
1.0012132034355969
  0
3DFACE
  5
29FD
  8
TAIL
 10
0.2300000000000001
 20
2.5800000000000001
 30
0.9800000000000004
 11
0.2300000000000001
 21
2.5712132034355961
 31
1.0012132034355969
 12
0.28
 22
2.5712132034355961
 32
1.0012132034355969
 13
0.28
 23
2.5800000000000001
 33
0.9800000000000004
  0
3DFACE
  5
2A00
  8
TAIL
 10
0.25
 20
2.5241421356237308
 30
0.9900000000000002
 11
0.25
 21
2.48
 31
0.9900000000000002
 12
0.27
 22
2.48
 32
0.9900000000000002
 13
0.27
 23
2.5241421356237308
 33
0.9900000000000002
  0
3DFACE
  5
2A01
  8
TAIL
 10
0.25
 20
2.48
 30
0.9900000000000002
 11
0.25
 21
2.5241421356237308
 31
0.9900000000000002
 12
0.2500000000000001
 22
2.52
 32
0.9800000000000004
 13
0.25
 23
2.48
 33
0.9900000000000002
  0
3DFACE
  5
2A02
  8
TAIL
 10
0.27
 20
2.48
 30
0.9900000000000002
 11
0.27
 21
2.52
 31
0.9800000000000004
 12
0.27
 22
2.5241421356237308
 32
0.9900000000000002
 13
0.27
 23
2.48
 33
0.9900000000000002
  0
3DFACE
  5
2A03
  8
TAIL
 10
0.29
 20
2.5299999999999998
 30
0.9800000000000004
 11
0.29
 21
2.5699999999999998
 31
0.9800000000000004
 12
0.29
 22
2.5600000000000001
 32
0.9973205080756883
 13
0.29
 23
2.54
 33
0.9973205080756883
  0
3DFACE
  5
2A04
  8
TAIL
 10
0.28
 20
2.5287867965644031
 30
1.0012132034355969
 11
0.28
 21
2.52
 31
0.9800000000000004
 12
0.28
 22
2.5299999999999998
 32
0.9800000000000004
 13
0.28
 23
2.54
 33
0.9973205080756883
  0
3DFACE
  5
2A05
  8
TAIL
 10
0.28
 20
2.5499999999999998
 30
1.0099999999999989
 11
0.28
 21
2.5287867965644031
 31
1.0012132034355969
 12
0.28
 22
2.54
 32
0.9973205080756883
 13
0.28
 23
2.5600000000000001
 33
0.9973205080756883
  0
3DFACE
  5
2A06
  8
TAIL
 10
0.28
 20
2.5800000000000001
 30
0.9800000000000004
 11
0.28
 21
2.5712132034355961
 31
1.0012132034355969
 12
0.28
 22
2.5600000000000001
 32
0.9973205080756883
 13
0.28
 23
2.5699999999999998
 33
0.9800000000000004
  0
3DFACE
  5
2A07
  8
TAIL
 10
0.28
 20
2.5712132034355961
 30
1.0012132034355969
 11
0.28
 21
2.5499999999999998
 31
1.0099999999999989
 12
0.28
 22
2.5600000000000001
 32
0.9973205080756883
 13
0.28
 23
2.5600000000000001
 33
0.9973205080756883
  0
3DFACE
  5
2A08
  8
TAIL
 10
0.2893131259299749
 20
2.4690061759506881
 30
0.950000000000001
 11
0.2751741321788047
 21
2.5064239371838828
 31
0.950000000000001
 12
0.2751741321788047
 22
2.5064239371838828
 32
0.9600000000000009
 13
0.2857783774921823
 23
2.4783606162589868
 33
0.9600000000000009
  0
3DFACE
  5
2A09
  8
TAIL
 10
0.2518953646967803
 20
2.4548671821995178
 30
0.950000000000001
 11
0.2377563709456101
 21
2.492284943432713
 31
0.950000000000001
 12
0.2751741321788047
 22
2.5064239371838828
 32
0.950000000000001
 13
0.2893131259299749
 23
2.4690061759506881
 33
0.950000000000001
  0
3DFACE
  5
2A0A
  8
TAIL
 10
0.2377563709456101
 20
2.492284943432713
 30
0.9600000000000009
 11
0.2483606162589877
 21
2.4642216225078171
 31
0.9600000000000009
 12
0.2857783774921823
 22
2.4783606162589868
 32
0.9600000000000009
 13
0.2751741321788047
 23
2.5064239371838828
 33
0.9600000000000009
  0
3DFACE
  5
2A0B
  8
TAIL
 10
0.2377563709456101
 20
2.492284943432713
 30
0.950000000000001
 11
0.2377563709456101
 21
2.492284943432713
 31
0.9600000000000009
 12
0.2751741321788047
 22
2.5064239371838828
 32
0.9600000000000009
 13
0.2751741321788047
 23
2.5064239371838828
 33
0.950000000000001
  0
3DFACE
  5
2A0C
  8
TAIL
 10
0.2377563709456101
 20
2.492284943432713
 30
0.950000000000001
 11
0.2518953646967803
 21
2.4548671821995178
 31
0.950000000000001
 12
0.2483606162589877
 22
2.4642216225078171
 32
0.9600000000000009
 13
0.2377563709456101
 23
2.492284943432713
 33
0.9600000000000009
  0
3DFACE
  5
2A0D
  8
TAIL
 10
0.28
 20
2.54
 30
0.9626794919243124
 11
0.28
 21
2.5600000000000001
 31
0.9626794919243124
 12
0.29
 22
2.5600000000000001
 32
0.9626794919243124
 13
0.29
 23
2.54
 33
0.9626794919243124
  0
3DFACE
  5
2A0E
  8
TAIL
 10
0.2300000000000001
 20
2.5499999999999998
 30
0.950000000000001
 11
0.2300000000000001
 21
2.5712132034355961
 31
0.9587867965644036
 12
0.28
 22
2.5712132034355961
 32
0.9587867965644036
 13
0.28
 23
2.5499999999999998
 33
0.950000000000001
  0
3DFACE
  5
2A0F
  8
TAIL
 10
0.2300000000000001
 20
2.5287867965644031
 30
0.9587867965644036
 11
0.2300000000000001
 21
2.5499999999999998
 31
0.950000000000001
 12
0.28
 22
2.5499999999999998
 32
0.950000000000001
 13
0.28
 23
2.5287867965644031
 33
0.9587867965644036
  0
3DFACE
  5
2A10
  8
TAIL
 10
0.25
 20
2.48
 30
0.9700000000000006
 11
0.2500000000000001
 21
2.5241421356237308
 31
0.9700000000000006
 12
0.27
 22
2.5241421356237308
 32
0.9700000000000006
 13
0.27
 23
2.48
 33
0.9700000000000006
  0
3DFACE
  5
2A11
  8
TAIL
 10
0.28
 20
2.5287867965644031
 30
0.9587867965644036
 11
0.28
 21
2.5499999999999998
 31
0.950000000000001
 12
0.28
 22
2.5600000000000001
 32
0.9626794919243124
 13
0.28
 23
2.54
 33
0.9626794919243124
  0
3DFACE
  5
2A12
  8
TAIL
 10
0.28
 20
2.5499999999999998
 30
0.950000000000001
 11
0.28
 21
2.5712132034355961
 31
0.9587867965644036
 12
0.28
 22
2.5712132034355961
 32
0.9587867965644036
 13
0.28
 23
2.5600000000000001
 33
0.9626794919243124
  0
VIEWPORT
  5
2E
 67
     1
  8
0
 10
144.7270812988281
 20
101.2295806407928
 30
0.0
 40
391.13550988316581
 41
222.15178063964839
 68
     2
 69
     1
1001
ACAD
1000
MVIEW
1002
{
1070
    16
1010
0.0
1020
0.0
1030
0.0
1010
0.0
1020
0.0
1030
1.0
1040
0.0
1040
222.15178063964839
1040
144.7270812988281
1040
101.2295806407928
1040
50.0
1040
0.0
1040
0.0
1070
     0
1070
   100
1070
     1
1070
     1
1070
     0
1070
     0
1070
     0
1070
     0
1040
0.0
1040
0.0
1040
0.0
1040
10.0
1040
10.0
1040
10.0
1040
10.0
1070
     0
1002
{
1002
}
1002
}
  0
VIEWPORT
  5
30
 67
     1
  8
0
 10
139.22375631332389
 20
100.8062499761581
 30
0.0
 40
222.75801010131829
 41
161.289999961853
 68
     1
 69
     2
1001
ACAD
1000
MVIEW
1002
{
1070
    16
1010
0.0
1020
0.0
1030
0.0
1010
0.0
1020
0.0
1030
1.0
1040
0.0
1040
307.49010134148989
1040
210.0
1040
148.5
1040
50.0
1040
0.0
1040
0.0
1070
     0
1070
   100
1070
     1
1070
     3
1070
     0
1070
     1
1070
     0
1070
     0
1040
0.0
1040
0.0
1040
0.0
1040
10.0
1040
10.0
1040
10.0
1040
10.0
1070
     0
1002
{
1002
}
1002
}
  0
ENDSEC
  0
EOF
