  0
SECTION
  2
HEADER
  9
$ACADVER
  1
AC1009
  9
$INSBASE
 10
0.0
 20
0.0
 30
0.0
  9
$EXTMIN
 10
-2.7599999999999998
 20
-22.865649000000001
 30
-6.7600000000000007
  9
$EXTMAX
 10
3.0
 20
16.0
 30
42.114049935201393
  9
$LIMMIN
 10
0.0
 20
0.0
  9
$LIMMAX
 10
420.0
 20
297.0
  9
$ORTHOMODE
 70
     1
  9
$REGENMODE
 70
     1
  9
$FILLMODE
 70
     1
  9
$QTEXTMODE
 70
     0
  9
$MIRRTEXT
 70
     1
  9
$DRAGMODE
 70
     2
  9
$LTSCALE
 40
1.0
  9
$OSMODE
 70
    39
  9
$ATTMODE
 70
     1
  9
$TEXTSIZE
 40
2.5
  9
$TRACEWID
 40
1.0
  9
$TEXTSTYLE
  7
STANDARD
  9
$CLAYER
  8
PROP
  9
$CELTYPE
  6
BYLAYER
  9
$CECOLOR
 62
   256
  9
$DIMSCALE
 40
1.0
  9
$DIMASZ
 40
2.5
  9
$DIMEXO
 40
0.625
  9
$DIMDLI
 40
3.75
  9
$DIMRND
 40
0.0
  9
$DIMDLE
 40
0.0
  9
$DIMEXE
 40
1.25
  9
$DIMTP
 40
0.0
  9
$DIMTM
 40
0.0
  9
$DIMTXT
 40
2.5
  9
$DIMCEN
 40
2.5
  9
$DIMTSZ
 40
0.0
  9
$DIMTOL
 70
     0
  9
$DIMLIM
 70
     0
  9
$DIMTIH
 70
     0
  9
$DIMTOH
 70
     0
  9
$DIMSE1
 70
     0
  9
$DIMSE2
 70
     0
  9
$DIMTAD
 70
     1
  9
$DIMZIN
 70
     8
  9
$DIMBLK
  1

  9
$DIMASO
 70
     1
  9
$DIMSHO
 70
     1
  9
$DIMPOST
  1

  9
$DIMAPOST
  1

  9
$DIMALT
 70
     0
  9
$DIMALTD
 70
     3
  9
$DIMALTF
 40
0.03937007874016
  9
$DIMLFAC
 40
1.0
  9
$DIMTOFL
 70
     1
  9
$DIMTVP
 40
0.0
  9
$DIMTIX
 70
     0
  9
$DIMSOXD
 70
     0
  9
$DIMSAH
 70
     0
  9
$DIMBLK1
  1

  9
$DIMBLK2
  1

  9
$DIMSTYLE
  2
ISO-25
  9
$DIMCLRD
 70
     0
  9
$DIMCLRE
 70
     0
  9
$DIMCLRT
 70
     0
  9
$DIMTFAC
 40
1.0
  9
$DIMGAP
 40
0.625
  9
$LUNITS
 70
     2
  9
$LUPREC
 70
     4
  9
$SKETCHINC
 40
1.0
  9
$FILLETRAD
 40
10.0
  9
$AUNITS
 70
     0
  9
$AUPREC
 70
     0
  9
$MENU
  1
.
  9
$ELEVATION
 40
0.0
  9
$PELEVATION
 40
0.0
  9
$THICKNESS
 40
0.0
  9
$LIMCHECK
 70
     0
  9
$BLIPMODE
 70
     0
  9
$CHAMFERA
 40
10.0
  9
$CHAMFERB
 40
10.0
  9
$SKPOLY
 70
     0
  9
$TDCREATE
 40
2456817.7130165971
  9
$TDUPDATE
 40
2456818.6717620599
  9
$TDINDWG
 40
0.5372267361000001
  9
$TDUSRTIMER
 40
0.5372267245
  9
$USRTIMER
 70
     1
  9
$ANGBASE
 50
0.0
  9
$ANGDIR
 70
     0
  9
$PDMODE
 70
     0
  9
$PDSIZE
 40
0.0
  9
$PLINEWID
 40
0.0
  9
$COORDS
 70
     1
  9
$SPLFRAME
 70
     0
  9
$SPLINETYPE
 70
     6
  9
$SPLINESEGS
 70
     8
  9
$ATTDIA
 70
     1
  9
$ATTREQ
 70
     1
  9
$HANDLING
 70
-16383
  9
$HANDSEED
  5
D49
  9
$SURFTAB1
 70
     6
  9
$SURFTAB2
 70
     6
  9
$SURFTYPE
 70
     6
  9
$SURFU
 70
     6
  9
$SURFV
 70
     6
  9
$UCSNAME
  2

  9
$UCSORG
 10
0.0
 20
0.0
 30
0.0
  9
$UCSXDIR
 10
0.0
 20
-1.0
 30
0.0
  9
$UCSYDIR
 10
0.0
 20
0.0
 30
1.0
  9
$PUCSNAME
  2

  9
$PUCSORG
 10
0.0
 20
0.0
 30
0.0
  9
$PUCSXDIR
 10
1.0
 20
0.0
 30
0.0
  9
$PUCSYDIR
 10
0.0
 20
1.0
 30
0.0
  9
$USERI1
 70
     0
  9
$USERI2
 70
     0
  9
$USERI3
 70
     0
  9
$USERI4
 70
     0
  9
$USERI5
 70
     0
  9
$USERR1
 40
0.0
  9
$USERR2
 40
0.0
  9
$USERR3
 40
0.0
  9
$USERR4
 40
0.0
  9
$USERR5
 40
0.0
  9
$WORLDVIEW
 70
     1
  9
$SHADEDGE
 70
     3
  9
$SHADEDIF
 70
    70
  9
$TILEMODE
 70
     1
  9
$MAXACTVP
 70
    64
  9
$PLIMCHECK
 70
     0
  9
$PEXTMIN
 10
27.844751262664801
 20
20.161249995231621
 30
0.0
  9
$PEXTMAX
 10
250.60276136398309
 20
181.4512499570846
 30
0.0
  9
$PLIMMIN
 10
-3.757080078125
 20
-3.7570831775665279
  9
$PLIMMAX
 10
293.21124267578119
 20
206.21624445915219
  9
$UNITMODE
 70
     0
  9
$VISRETAIN
 70
     1
  9
$PLINEGEN
 70
     0
  9
$PSLTSCALE
 70
     1
  0
ENDSEC
  0
SECTION
  2
TABLES
  0
TABLE
  2
VPORT
 70
    26
  0
VPORT
  2
*ACTIVE
 70
     0
 10
0.0
 20
0.0
 11
1.0
 21
1.0
 12
0.6450889801407415
 22
-1.3370942571201749
 13
0.0
 23
0.0
 14
0.01
 24
0.01
 15
1.0
 25
1.0
 16
-1.0
 26
0.0
 36
0.0
 17
0.0
 27
0.0
 37
0.0
 40
4.2672489644993066
 41
2.2220902612826601
 42
50.0
 43
0.0
 44
0.0
 50
0.0
 51
0.0
 71
     0
 72
   100
 73
     1
 74
     3
 75
     1
 76
     1
 77
     0
 78
     0
  0
ENDTAB
  0
TABLE
  2
LTYPE
 70
     1
  0
LTYPE
  2
CONTINUOUS
 70
     0
  3
Solid line
 72
    65
 73
     0
 40
0.0
  0
ENDTAB
  0
TABLE
  2
LAYER
 70
    11
  0
LAYER
  2
0
 70
     0
 62
     7
  6
CONTINUOUS
  0
LAYER
  2
DRAWING
 70
     0
 62
     9
  6
CONTINUOUS
  0
LAYER
  2
FALSEBOARD
 70
     0
 62
     6
  6
CONTINUOUS
  0
LAYER
  2
SUPERSTRUCTURE
 70
     0
 62
     3
  6
CONTINUOUS
  0
LAYER
  2
RAILINGS
 70
     0
 62
     6
  6
CONTINUOUS
  0
LAYER
  2
TURRET
 70
     0
 62
     2
  6
CONTINUOUS
  0
LAYER
  2
SLEEVE
 70
     0
 62
     5
  6
CONTINUOUS
  0
LAYER
  2
BARREL
 70
     0
 62
     1
  6
CONTINUOUS
  0
LAYER
  2
BOATS
 70
     0
 62
     1
  6
CONTINUOUS
  0
LAYER
  2
PROP
 70
     0
 62
     1
  6
CONTINUOUS
  0
ENDTAB
  0
TABLE
  2
STYLE
 70
     1
  0
STYLE
  2
STANDARD
 70
     0
 40
0.0
 41
1.0
 50
0.0
 71
     0
 42
2.5
  3
txt
  4

  0
ENDTAB
  0
TABLE
  2
VIEW
 70
     0
  0
ENDTAB
  0
TABLE
  2
UCS
 70
     0
  0
ENDTAB
  0
TABLE
  2
APPID
 70
     1
  0
APPID
  2
ACAD
 70
     0
  0
ENDTAB
  0
TABLE
  2
DIMSTYLE
 70
     1
  0
DIMSTYLE
  2
ISO-25
 70
     0
  3

  4

  5

  6

  7

 40
1.0
 41
2.5
 42
0.625
 43
3.75
 44
1.25
 45
0.0
 46
0.0
 47
0.0
 48
0.0
140
2.5
141
2.5
142
0.0
143
0.03937007874016
144
1.0
145
0.0
146
1.0
147
0.625
 71
     0
 72
     0
 73
     0
 74
     0
 75
     0
 76
     0
 77
     1
 78
     8
170
     0
171
     3
172
     1
173
     0
174
     0
175
     0
176
     0
177
     0
178
     0
  0
ENDTAB
  0
ENDSEC
  0
SECTION
  2
BLOCKS
  0
BLOCK
  8
0
  2
$MODEL_SPACE
 70
     0
 10
0.0
 20
0.0
 30
0.0
  3
$MODEL_SPACE
  1

  0
ENDBLK
  5
21
  8
0
  0
BLOCK
 67
     1
  8
0
  2
$PAPER_SPACE
 70
     0
 10
0.0
 20
0.0
 30
0.0
  3
$PAPER_SPACE
  1

  0
ENDBLK
  5
1D
 67
     1
  8
0
  0
ENDSEC
  0
SECTION
  2
ENTITIES
  0
3DFACE
  5
CD8
  8
PROP
 10
-0.4344486372867138
 20
0.2700000000000067
 30
0.0724871130596434
 11
-0.3644486372867135
 21
0.2700000000000067
 31
-0.0487564434701759
 12
0.0425833024919733
 22
0.2000000000000064
 32
0.1862435565298235
 13
-0.027416697508027
 23
0.2000000000000064
 33
0.3074871130596428
  0
3DFACE
  5
CD9
  8
PROP
 10
-0.027416697508027
 20
0.2000000000000064
 30
0.3074871130596428
 11
0.0425833024919733
 21
0.2000000000000064
 31
0.1862435565298235
 12
-0.3644486372867135
 22
0.2700000000000067
 32
-0.0487564434701759
 13
-0.4344486372867138
 23
0.2700000000000067
 33
0.0724871130596434
  0
3DFACE
  5
CDA
  8
PROP
 10
-0.374544826719049
 20
0.2400000000000091
 30
0.2687306695894656
 11
-0.4344486372867138
 21
0.2700000000000067
 31
0.0724871130596434
 12
-0.027416697508027
 22
0.2000000000000064
 32
0.3074871130596428
 13
-0.1926794919243164
 23
0.2000000000000064
 33
0.373730669589466
  0
3DFACE
  5
CDB
  8
PROP
 10
-0.1926794919243164
 20
0.2000000000000064
 30
0.373730669589466
 11
-0.027416697508027
 21
0.2000000000000064
 31
0.3074871130596428
 12
-0.4344486372867138
 22
0.2700000000000067
 32
0.0724871130596434
 13
-0.374544826719049
 23
0.2400000000000091
 33
0.2687306695894656
  0
3DFACE
  5
CDC
  8
PROP
 10
0.4200000000000017
 20
0.2000000000000064
 30
-0.0200000000000003
 11
0.2800000000000011
 21
0.2000000000000064
 31
-0.1299999999999997
 12
0.2800000000000011
 22
0.2700000000000067
 32
0.3399999999999992
 13
0.4200000000000017
 23
0.2400000000000091
 33
0.1900000000000006
  0
3DFACE
  5
CDD
  8
PROP
 10
0.4200000000000017
 20
0.2400000000000091
 30
0.1900000000000006
 11
0.2800000000000011
 21
0.2700000000000067
 31
0.3399999999999992
 12
0.2800000000000011
 22
0.2000000000000064
 32
-0.1299999999999997
 13
0.4200000000000017
 23
0.2000000000000064
 33
-0.0200000000000003
  0
3DFACE
  5
CDE
  8
PROP
 10
0.2800000000000011
 20
0.2000000000000064
 30
-0.1299999999999997
 11
0.1400000000000006
 21
0.2000000000000064
 31
-0.1299999999999997
 12
0.1400000000000006
 22
0.2700000000000067
 32
0.3399999999999992
 13
0.2800000000000011
 23
0.2700000000000067
 33
0.3399999999999992
  0
3DFACE
  5
CDF
  8
PROP
 10
0.2800000000000011
 20
0.2700000000000067
 30
0.3399999999999992
 11
0.1400000000000006
 21
0.2700000000000067
 31
0.3399999999999992
 12
0.1400000000000006
 22
0.2000000000000064
 32
-0.1299999999999997
 13
0.2800000000000011
 23
0.2000000000000064
 33
-0.1299999999999997
  0
3DFACE
  5
CE0
  8
PROP
 10
0.1400000000000006
 20
0.2000000000000064
 30
-0.1299999999999997
 11
0.0
 21
0.2000000000000064
 31
-0.0000000000000007
 12
0.0
 22
0.2500000000000071
 32
0.2299999999999998
 13
0.1400000000000006
 23
0.2700000000000067
 33
0.3399999999999992
  0
3DFACE
  5
CE1
  8
PROP
 10
0.1400000000000006
 20
0.2700000000000067
 30
0.3399999999999992
 11
0.0
 21
0.2500000000000071
 31
0.2299999999999998
 12
0.0
 22
0.2000000000000064
 32
-0.0000000000000007
 13
0.1400000000000006
 23
0.2000000000000064
 33
-0.1299999999999997
  0
3DFACE
  5
CE2
  8
PROP
 10
0.1544486372867055
 20
0.2700000000000067
 30
-0.4124871130596411
 11
0.2244486372867058
 21
0.2700000000000067
 31
-0.2912435565298181
 12
-0.1825833024919774
 22
0.2000000000000064
 32
-0.0562435565298187
 13
-0.2525833024919777
 23
0.2000000000000064
 33
-0.1774871130596416
  0
3DFACE
  5
CE3
  8
PROP
 10
-0.2525833024919777
 20
0.2000000000000064
 30
-0.1774871130596416
 11
-0.1825833024919774
 21
0.2000000000000064
 31
-0.0562435565298187
 12
0.2244486372867058
 22
0.2700000000000067
 32
-0.2912435565298181
 13
0.1544486372867055
 23
0.2700000000000067
 33
-0.4124871130596411
  0
3DFACE
  5
CE4
  8
PROP
 10
-0.1825833024919774
 20
0.2000000000000064
 30
-0.0562435565298187
 11
0.0
 21
0.2000000000000064
 31
-0.0000000000000007
 12
0.1991858428704205
 22
0.2500000000000071
 32
-0.1149999999999991
 13
0.2244486372867058
 23
0.2700000000000067
 33
-0.2912435565298181
  0
3DFACE
  5
CE5
  8
PROP
 10
0.2244486372867058
 20
0.2700000000000067
 30
-0.2912435565298181
 11
0.1991858428704205
 21
0.2500000000000071
 31
-0.1149999999999991
 12
0.0
 22
0.2000000000000064
 32
-0.0000000000000007
 13
-0.1825833024919774
 23
0.2000000000000064
 33
-0.0562435565298187
  0
3DFACE
  5
CE6
  8
PROP
 10
-0.0454551732809563
 20
0.2400000000000091
 30
-0.4587306695894647
 11
0.1544486372867055
 21
0.2700000000000067
 31
-0.4124871130596411
 12
-0.2525833024919777
 22
0.2000000000000064
 32
-0.1774871130596416
 13
-0.2273205080756924
 23
0.2000000000000064
 33
-0.3537306695894642
  0
3DFACE
  5
CE7
  8
PROP
 10
-0.2273205080756924
 20
0.2000000000000064
 30
-0.3537306695894642
 11
-0.2525833024919777
 21
0.2000000000000064
 31
-0.1774871130596416
 12
0.1544486372867055
 22
0.2700000000000067
 32
-0.4124871130596411
 13
-0.0454551732809563
 23
0.2400000000000091
 33
-0.4587306695894647
  0
3DFACE
  5
CE8
  8
PROP
 10
0.0425833024919733
 20
0.2000000000000064
 30
0.1862435565298235
 11
-0.0000000000000036
 21
0.2000000000000064
 31
-0.0000000000000007
 12
-0.1991858428704276
 22
0.2500000000000071
 32
-0.1149999999999991
 13
-0.3644486372867135
 23
0.2700000000000067
 33
-0.0487564434701759
  0
3DFACE
  5
CE9
  8
PROP
 10
-0.3644486372867135
 20
0.2700000000000067
 30
-0.0487564434701759
 11
-0.1991858428704276
 21
0.2500000000000071
 31
-0.1149999999999991
 12
-0.0000000000000036
 22
0.2000000000000064
 32
-0.0000000000000007
 13
0.0425833024919733
 23
0.2000000000000064
 33
0.1862435565298235
  0
3DFACE
  5
CEA
  8
PROP
 10
0.0919238815542512
 20
0.0
 30
0.0919238815542507
 11
0.13
 21
0.0
 31
-0.0000000000000007
 12
0.13
 22
0.1500000000000021
 32
-0.0000000000000007
 13
0.0919238815542512
 23
0.1500000000000021
 33
0.0919238815542507
  0
3DFACE
  5
CEB
  8
PROP
 10
0.0
 20
0.0
 30
0.1299999999999983
 11
0.0919238815542512
 21
0.0
 31
0.0919238815542507
 12
0.0919238815542512
 22
0.1500000000000021
 32
0.0919238815542507
 13
0.0
 23
0.1500000000000021
 33
0.1299999999999983
  0
3DFACE
  5
CEC
  8
PROP
 10
-0.0919238815542512
 20
0.0
 30
0.0919238815542507
 11
0.0
 21
0.0
 31
0.1299999999999983
 12
0.0
 22
0.1500000000000021
 32
0.1299999999999983
 13
-0.0919238815542512
 23
0.1500000000000021
 33
0.0919238815542507
  0
3DFACE
  5
CED
  8
PROP
 10
-0.1300000000000001
 20
0.0
 30
-0.0000000000000007
 11
-0.0919238815542512
 21
0.0
 31
0.0919238815542507
 12
-0.0919238815542512
 22
0.1500000000000021
 32
0.0919238815542507
 13
-0.1300000000000001
 23
0.1500000000000021
 33
-0.0000000000000007
  0
3DFACE
  5
CEE
  8
PROP
 10
-0.0919238815542512
 20
0.0
 30
-0.091923881554252
 11
-0.1300000000000001
 21
0.0
 31
-0.0000000000000007
 12
-0.1300000000000001
 22
0.1500000000000021
 32
-0.0000000000000007
 13
-0.0919238815542512
 23
0.1500000000000021
 33
-0.091923881554252
  0
3DFACE
  5
CEF
  8
PROP
 10
0.0
 20
0.0
 30
-0.1299999999999997
 11
-0.0919238815542512
 21
0.0
 31
-0.091923881554252
 12
-0.0919238815542512
 22
0.1500000000000021
 32
-0.091923881554252
 13
0.0
 23
0.1500000000000021
 33
-0.1299999999999997
  0
3DFACE
  5
CF0
  8
PROP
 10
0.0919238815542512
 20
0.0
 30
-0.091923881554252
 11
0.0
 21
0.0
 31
-0.1299999999999997
 12
0.0
 22
0.1500000000000021
 32
-0.1299999999999997
 13
0.0919238815542512
 23
0.1500000000000021
 33
-0.091923881554252
  0
3DFACE
  5
CF1
  8
PROP
 10
0.13
 20
0.0
 30
-0.0000000000000007
 11
0.0919238815542512
 21
0.0
 31
-0.091923881554252
 12
0.0919238815542512
 22
0.1500000000000021
 32
-0.091923881554252
 13
0.13
 23
0.1500000000000021
 33
-0.0000000000000007
  0
3DFACE
  5
CF2
  8
PROP
 10
-0.0796084166404534
 20
0.3000000000000007
 30
-0.0796084166404547
 11
-0.0919238815542512
 21
0.1500000000000021
 31
-0.091923881554252
 12
-0.1300000000000001
 22
0.1500000000000021
 32
-0.0000000000000007
 13
-0.1125833024919771
 23
0.3000000000000007
 33
-0.0000000000000007
  0
3DFACE
  5
CF3
  8
PROP
 10
-0.0459619407771255
 20
0.4700000000000025
 30
-0.0459619407771264
 11
-0.0796084166404534
 21
0.3000000000000007
 31
-0.0796084166404547
 12
-0.1125833024919771
 22
0.3000000000000007
 32
-0.0000000000000007
 13
-0.065
 23
0.4700000000000025
 33
-0.0000000000000007
  0
3DFACE
  5
CF4
  8
PROP
 10
0.0
 20
0.6000000000000015
 30
-0.0000000000000007
 11
-0.0459619407771255
 21
0.4700000000000025
 31
-0.0459619407771264
 12
-0.065
 22
0.4700000000000025
 32
-0.0000000000000007
 13
0.0
 23
0.6000000000000015
 33
-0.0000000000000007
  0
3DFACE
  5
CF5
  8
PROP
 10
0.0
 20
0.3000000000000007
 30
-0.1125833024919778
 11
0.0
 21
0.1500000000000021
 31
-0.1299999999999997
 12
-0.0919238815542512
 22
0.1500000000000021
 32
-0.091923881554252
 13
-0.0796084166404534
 23
0.3000000000000007
 33
-0.0796084166404547
  0
3DFACE
  5
CF6
  8
PROP
 10
0.0
 20
0.4700000000000025
 30
-0.065000000000002
 11
0.0
 21
0.3000000000000007
 31
-0.1125833024919778
 12
-0.0796084166404534
 22
0.3000000000000007
 32
-0.0796084166404547
 13
-0.0459619407771255
 23
0.4700000000000025
 33
-0.0459619407771264
  0
3DFACE
  5
CF7
  8
PROP
 10
0.0
 20
0.6000000000000015
 30
-0.0000000000000007
 11
0.0
 21
0.4700000000000025
 31
-0.065000000000002
 12
-0.0459619407771255
 22
0.4700000000000025
 32
-0.0459619407771264
 13
0.0
 23
0.6000000000000015
 33
-0.0000000000000007
  0
3DFACE
  5
CF8
  8
PROP
 10
0.0796084166404534
 20
0.3000000000000007
 30
-0.0796084166404547
 11
0.0919238815542513
 21
0.1500000000000021
 31
-0.091923881554252
 12
0.0
 22
0.1500000000000021
 32
-0.1299999999999997
 13
0.0
 23
0.3000000000000007
 33
-0.1125833024919778
  0
3DFACE
  5
CF9
  8
PROP
 10
0.0459619407771256
 20
0.4700000000000025
 30
-0.0459619407771264
 11
0.0796084166404534
 21
0.3000000000000007
 31
-0.0796084166404547
 12
0.0
 22
0.3000000000000007
 32
-0.1125833024919778
 13
0.0
 23
0.4700000000000025
 33
-0.065000000000002
  0
3DFACE
  5
CFA
  8
PROP
 10
0.0
 20
0.6000000000000015
 30
-0.0000000000000007
 11
0.0459619407771256
 21
0.4700000000000025
 31
-0.0459619407771264
 12
0.0
 22
0.4700000000000025
 32
-0.065000000000002
 13
0.0
 23
0.6000000000000015
 33
-0.0000000000000007
  0
3DFACE
  5
CFB
  8
PROP
 10
0.112583302491977
 20
0.3000000000000007
 30
-0.0000000000000007
 11
0.13
 21
0.1500000000000021
 31
-0.0000000000000007
 12
0.0919238815542513
 22
0.1500000000000021
 32
-0.091923881554252
 13
0.0796084166404534
 23
0.3000000000000007
 33
-0.0796084166404547
  0
3DFACE
  5
CFC
  8
PROP
 10
0.0650000000000001
 20
0.4700000000000025
 30
-0.0000000000000007
 11
0.112583302491977
 21
0.3000000000000007
 31
-0.0000000000000007
 12
0.0796084166404534
 22
0.3000000000000007
 32
-0.0796084166404547
 13
0.0459619407771256
 23
0.4700000000000025
 33
-0.0459619407771264
  0
3DFACE
  5
CFD
  8
PROP
 10
0.0
 20
0.6000000000000015
 30
-0.0000000000000007
 11
0.0650000000000001
 21
0.4700000000000025
 31
-0.0000000000000007
 12
0.0459619407771256
 22
0.4700000000000025
 32
-0.0459619407771264
 13
0.0
 23
0.6000000000000015
 33
-0.0000000000000007
  0
3DFACE
  5
CFE
  8
PROP
 10
0.0796084166404533
 20
0.3000000000000007
 30
0.0796084166404534
 11
0.0919238815542512
 21
0.1500000000000021
 31
0.0919238815542507
 12
0.13
 22
0.1500000000000021
 32
-0.0000000000000007
 13
0.112583302491977
 23
0.3000000000000007
 33
-0.0000000000000007
  0
3DFACE
  5
CFF
  8
PROP
 10
0.0459619407771256
 20
0.4700000000000025
 30
0.045961940777125
 11
0.0796084166404533
 21
0.3000000000000007
 31
0.0796084166404534
 12
0.112583302491977
 22
0.3000000000000007
 32
-0.0000000000000007
 13
0.0650000000000001
 23
0.4700000000000025
 33
-0.0000000000000007
  0
3DFACE
  5
D00
  8
PROP
 10
0.0
 20
0.6000000000000015
 30
-0.0000000000000007
 11
0.0459619407771256
 21
0.4700000000000025
 31
0.045961940777125
 12
0.0650000000000001
 22
0.4700000000000025
 32
-0.0000000000000007
 13
0.0
 23
0.6000000000000015
 33
-0.0000000000000007
  0
3DFACE
  5
D01
  8
PROP
 10
0.0
 20
0.3000000000000007
 30
0.1125833024919765
 11
0.0
 21
0.1500000000000021
 31
0.1299999999999983
 12
0.0919238815542512
 22
0.1500000000000021
 32
0.0919238815542507
 13
0.0796084166404533
 23
0.3000000000000007
 33
0.0796084166404534
  0
3DFACE
  5
D02
  8
PROP
 10
0.0
 20
0.4700000000000025
 30
0.0650000000000006
 11
0.0
 21
0.3000000000000007
 31
0.1125833024919765
 12
0.0796084166404533
 22
0.3000000000000007
 32
0.0796084166404534
 13
0.0459619407771256
 23
0.4700000000000025
 33
0.045961940777125
  0
3DFACE
  5
D03
  8
PROP
 10
0.0
 20
0.6000000000000015
 30
-0.0000000000000007
 11
0.0
 21
0.4700000000000025
 31
0.0650000000000006
 12
0.0459619407771256
 22
0.4700000000000025
 32
0.045961940777125
 13
0.0
 23
0.6000000000000015
 33
-0.0000000000000007
  0
3DFACE
  5
D04
  8
PROP
 10
-0.0796084166404534
 20
0.3000000000000007
 30
0.0796084166404534
 11
-0.0919238815542512
 21
0.1500000000000021
 31
0.0919238815542507
 12
0.0
 22
0.1500000000000021
 32
0.1299999999999983
 13
0.0
 23
0.3000000000000007
 33
0.1125833024919765
  0
3DFACE
  5
D05
  8
PROP
 10
-0.0459619407771255
 20
0.4700000000000025
 30
0.045961940777125
 11
-0.0796084166404534
 21
0.3000000000000007
 31
0.0796084166404534
 12
0.0
 22
0.3000000000000007
 32
0.1125833024919765
 13
0.0
 23
0.4700000000000025
 33
0.0650000000000006
  0
3DFACE
  5
D06
  8
PROP
 10
0.0
 20
0.6000000000000015
 30
-0.0000000000000007
 11
-0.0459619407771255
 21
0.4700000000000025
 31
0.045961940777125
 12
0.0
 22
0.4700000000000025
 32
0.0650000000000006
 13
0.0
 23
0.6000000000000015
 33
-0.0000000000000007
  0
3DFACE
  5
D07
  8
PROP
 10
-0.1125833024919771
 20
0.3000000000000007
 30
-0.0000000000000007
 11
-0.1300000000000001
 21
0.1500000000000021
 31
-0.0000000000000007
 12
-0.0919238815542512
 22
0.1500000000000021
 32
0.0919238815542507
 13
-0.0796084166404534
 23
0.3000000000000007
 33
0.0796084166404534
  0
3DFACE
  5
D08
  8
PROP
 10
-0.065
 20
0.4700000000000025
 30
-0.0000000000000007
 11
-0.1125833024919771
 21
0.3000000000000007
 31
-0.0000000000000007
 12
-0.0796084166404534
 22
0.3000000000000007
 32
0.0796084166404534
 13
-0.0459619407771255
 23
0.4700000000000025
 33
0.045961940777125
  0
3DFACE
  5
D09
  8
PROP
 10
0.0
 20
0.6000000000000015
 30
-0.0000000000000007
 11
-0.065
 21
0.4700000000000025
 31
-0.0000000000000007
 12
-0.0459619407771255
 22
0.4700000000000025
 32
0.045961940777125
 13
0.0
 23
0.6000000000000015
 33
-0.0000000000000007
  0
VIEWPORT
  5
2E
 67
     1
  8
0
 10
144.7270812988281
 20
101.2295806407928
 30
0.0
 40
391.13550988316581
 41
222.15178063964839
 68
     2
 69
     1
1001
ACAD
1000
MVIEW
1002
{
1070
    16
1010
0.0
1020
0.0
1030
0.0
1010
0.0
1020
0.0
1030
1.0
1040
0.0
1040
222.15178063964839
1040
144.7270812988281
1040
101.2295806407928
1040
50.0
1040
0.0
1040
0.0
1070
     0
1070
   100
1070
     1
1070
     1
1070
     0
1070
     0
1070
     0
1070
     0
1040
0.0
1040
0.0
1040
0.0
1040
10.0
1040
10.0
1040
10.0
1040
10.0
1070
     0
1002
{
1002
}
1002
}
  0
VIEWPORT
  5
30
 67
     1
  8
0
 10
139.22375631332389
 20
100.8062499761581
 30
0.0
 40
222.75801010131829
 41
161.289999961853
 68
     1
 69
     2
1001
ACAD
1000
MVIEW
1002
{
1070
    16
1010
0.0
1020
0.0
1030
0.0
1010
0.0
1020
0.0
1030
1.0
1040
0.0
1040
307.49010134148989
1040
210.0
1040
148.5
1040
50.0
1040
0.0
1040
0.0
1070
     0
1070
   100
1070
     1
1070
     3
1070
     0
1070
     1
1070
     0
1070
     0
1040
0.0
1040
0.0
1040
0.0
1040
10.0
1040
10.0
1040
10.0
1040
10.0
1070
     0
1002
{
1002
}
1002
}
  0
ENDSEC
  0
EOF
