  0
SECTION
  2
HEADER
  9
$ACADVER
  1
AC1009
  9
$INSBASE
 10
0.0
 20
0.0
 30
0.0
  9
$EXTMIN
 10
-1.26
 20
-4.7400000000000002
 30
-2.2799999999999998
  9
$EXTMAX
 10
7.0
 20
2.8700000000000001
 30
3.40337925
  9
$LIMMIN
 10
0.0
 20
0.0
  9
$LIMMAX
 10
420.0
 20
297.0
  9
$ORTHOMODE
 70
     1
  9
$REGENMODE
 70
     1
  9
$FILLMODE
 70
     1
  9
$QTEXTMODE
 70
     0
  9
$MIRRTEXT
 70
     1
  9
$DRAGMODE
 70
     2
  9
$LTSCALE
 40
1.0
  9
$OSMODE
 70
   551
  9
$ATTMODE
 70
     1
  9
$TEXTSIZE
 40
2.5
  9
$TRACEWID
 40
1.0
  9
$TEXTSTYLE
  7
STANDARD
  9
$CLAYER
  8
TURRET
  9
$CELTYPE
  6
BYLAYER
  9
$CECOLOR
 62
   256
  9
$DIMSCALE
 40
1.0
  9
$DIMASZ
 40
2.5
  9
$DIMEXO
 40
0.625
  9
$DIMDLI
 40
3.75
  9
$DIMRND
 40
0.0
  9
$DIMDLE
 40
0.0
  9
$DIMEXE
 40
1.25
  9
$DIMTP
 40
0.0
  9
$DIMTM
 40
0.0
  9
$DIMTXT
 40
2.5
  9
$DIMCEN
 40
2.5
  9
$DIMTSZ
 40
0.0
  9
$DIMTOL
 70
     0
  9
$DIMLIM
 70
     0
  9
$DIMTIH
 70
     0
  9
$DIMTOH
 70
     0
  9
$DIMSE1
 70
     0
  9
$DIMSE2
 70
     0
  9
$DIMTAD
 70
     1
  9
$DIMZIN
 70
     8
  9
$DIMBLK
  1

  9
$DIMASO
 70
     1
  9
$DIMSHO
 70
     1
  9
$DIMPOST
  1

  9
$DIMAPOST
  1

  9
$DIMALT
 70
     0
  9
$DIMALTD
 70
     3
  9
$DIMALTF
 40
0.03937007874016
  9
$DIMLFAC
 40
1.0
  9
$DIMTOFL
 70
     1
  9
$DIMTVP
 40
0.0
  9
$DIMTIX
 70
     0
  9
$DIMSOXD
 70
     0
  9
$DIMSAH
 70
     0
  9
$DIMBLK1
  1

  9
$DIMBLK2
  1

  9
$DIMSTYLE
  2
ISO-25
  9
$DIMCLRD
 70
     0
  9
$DIMCLRE
 70
     0
  9
$DIMCLRT
 70
     0
  9
$DIMTFAC
 40
1.0
  9
$DIMGAP
 40
0.625
  9
$LUNITS
 70
     2
  9
$LUPREC
 70
     4
  9
$SKETCHINC
 40
1.0
  9
$FILLETRAD
 40
10.0
  9
$AUNITS
 70
     0
  9
$AUPREC
 70
     0
  9
$MENU
  1
.
  9
$ELEVATION
 40
0.0
  9
$PELEVATION
 40
0.0
  9
$THICKNESS
 40
0.0
  9
$LIMCHECK
 70
     0
  9
$BLIPMODE
 70
     0
  9
$CHAMFERA
 40
10.0
  9
$CHAMFERB
 40
10.0
  9
$SKPOLY
 70
     0
  9
$TDCREATE
 40
2454435.615718727
  9
$TDUPDATE
 40
2454435.7245270368
  9
$TDINDWG
 40
0.108808669
  9
$TDUSRTIMER
 40
0.1088085532
  9
$USRTIMER
 70
     1
  9
$ANGBASE
 50
0.0
  9
$ANGDIR
 70
     0
  9
$PDMODE
 70
     0
  9
$PDSIZE
 40
0.0
  9
$PLINEWID
 40
0.0
  9
$COORDS
 70
     1
  9
$SPLFRAME
 70
     0
  9
$SPLINETYPE
 70
     6
  9
$SPLINESEGS
 70
     8
  9
$ATTDIA
 70
     1
  9
$ATTREQ
 70
     1
  9
$HANDLING
 70
-16383
  9
$HANDSEED
  5
532
  9
$SURFTAB1
 70
     6
  9
$SURFTAB2
 70
     6
  9
$SURFTYPE
 70
     6
  9
$SURFU
 70
     6
  9
$SURFV
 70
     6
  9
$UCSNAME
  2

  9
$UCSORG
 10
0.0
 20
0.0
 30
0.0
  9
$UCSXDIR
 10
1.0
 20
0.0
 30
0.0
  9
$UCSYDIR
 10
0.0
 20
1.0
 30
0.0
  9
$PUCSNAME
  2

  9
$PUCSORG
 10
0.0
 20
0.0
 30
0.0
  9
$PUCSXDIR
 10
1.0
 20
0.0
 30
0.0
  9
$PUCSYDIR
 10
0.0
 20
1.0
 30
0.0
  9
$USERI1
 70
     0
  9
$USERI2
 70
     0
  9
$USERI3
 70
     0
  9
$USERI4
 70
     0
  9
$USERI5
 70
     0
  9
$USERR1
 40
0.0
  9
$USERR2
 40
0.0
  9
$USERR3
 40
0.0
  9
$USERR4
 40
0.0
  9
$USERR5
 40
0.0
  9
$WORLDVIEW
 70
     1
  9
$SHADEDGE
 70
     3
  9
$SHADEDIF
 70
    70
  9
$TILEMODE
 70
     1
  9
$MAXACTVP
 70
    64
  9
$PLIMCHECK
 70
     0
  9
$PEXTMIN
 10
0.0
 20
0.0
 30
0.0
  9
$PEXTMAX
 10
0.0
 20
0.0
 30
0.0
  9
$PLIMMIN
 10
0.0
 20
0.0
  9
$PLIMMAX
 10
12.0
 20
9.0
  9
$UNITMODE
 70
     0
  9
$VISRETAIN
 70
     1
  9
$PLINEGEN
 70
     0
  9
$PSLTSCALE
 70
     1
  0
ENDSEC
  0
SECTION
  2
TABLES
  0
TABLE
  2
VPORT
 70
    43
  0
VPORT
  2
*ACTIVE
 70
     0
 10
0.0
 20
0.0
 11
1.0
 21
1.0
 12
9.3500954437758566
 22
-5.5296748902779198
 13
0.0
 23
0.0
 14
0.01
 24
0.01
 15
1.0
 25
1.0
 16
0.0
 26
0.0
 36
1.0
 17
0.0
 27
0.0
 37
0.0
 40
21.090310949765101
 41
1.536666666666666
 42
50.0
 43
0.0
 44
0.0
 50
0.0
 51
0.0
 71
     0
 72
   100
 73
     1
 74
     3
 75
     1
 76
     1
 77
     0
 78
     0
  0
ENDTAB
  0
TABLE
  2
LTYPE
 70
     1
  0
LTYPE
  2
CONTINUOUS
 70
     0
  3
Solid line
 72
    65
 73
     0
 40
0.0
  0
ENDTAB
  0
TABLE
  2
LAYER
 70
     7
  0
LAYER
  2
0
 70
     0
 62
     7
  6
CONTINUOUS
  0
LAYER
  2
DRAWING
 70
     0
 62
    -9
  6
CONTINUOUS
  0
LAYER
  2
WHEELS
 70
     0
 62
     2
  6
CONTINUOUS
  0
LAYER
  2
SUPPORTS
 70
     0
 62
     5
  6
CONTINUOUS
  0
LAYER
  2
TURRET
 70
     4
 62
     3
  6
CONTINUOUS
  0
LAYER
  2
SLEEVE
 70
     0
 62
     5
  6
CONTINUOUS
  0
LAYER
  2
GUN
 70
     0
 62
     1
  6
CONTINUOUS
  0
ENDTAB
  0
TABLE
  2
STYLE
 70
     1
  0
STYLE
  2
STANDARD
 70
     0
 40
0.0
 41
1.0
 50
0.0
 71
     0
 42
2.5
  3
txt
  4

  0
ENDTAB
  0
TABLE
  2
VIEW
 70
     0
  0
ENDTAB
  0
TABLE
  2
UCS
 70
     0
  0
ENDTAB
  0
TABLE
  2
APPID
 70
     1
  0
APPID
  2
ACAD
 70
     0
  0
ENDTAB
  0
TABLE
  2
DIMSTYLE
 70
     1
  0
DIMSTYLE
  2
ISO-25
 70
     0
  3

  4

  5

  6

  7

 40
1.0
 41
2.5
 42
0.625
 43
3.75
 44
1.25
 45
0.0
 46
0.0
 47
0.0
 48
0.0
140
2.5
141
2.5
142
0.0
143
0.03937007874016
144
1.0
145
0.0
146
1.0
147
0.625
 71
     0
 72
     0
 73
     0
 74
     0
 75
     0
 76
     0
 77
     1
 78
     8
170
     0
171
     3
172
     1
173
     0
174
     0
175
     0
176
     0
177
     0
178
     0
  0
ENDTAB
  0
ENDSEC
  0
SECTION
  2
BLOCKS
  0
BLOCK
  8
0
  2
$MODEL_SPACE
 70
     0
 10
0.0
 20
0.0
 30
0.0
  3
$MODEL_SPACE
  1

  0
ENDBLK
  5
21
  8
0
  0
BLOCK
 67
     1
  8
0
  2
$PAPER_SPACE
 70
     0
 10
0.0
 20
0.0
 30
0.0
  3
$PAPER_SPACE
  1

  0
ENDBLK
  5
53
 67
     1
  8
0
  0
ENDSEC
  0
SECTION
  2
ENTITIES
  0
3DFACE
  5
19D
  8
TURRET
 10
-0.2
 20
0.3500000000000001
 30
1.129999999999999
 11
-0.24
 21
0.4151038145079498
 31
1.153695850618081
 12
-0.24
 22
-0.0500435804149597
 32
2.4316778148869171
 13
-0.2
 23
-0.1151473949229094
 33
2.4079819642688349
  0
3DFACE
  5
19E
  8
TURRET
 10
-0.24
 20
0.4151038145079498
 30
1.153695850618081
 11
-0.3199999999999999
 21
0.4151038145079498
 31
1.153695850618081
 12
-0.3199999999999999
 22
-0.0500435804149597
 32
2.4316778148869171
 13
-0.24
 23
-0.0500435804149597
 33
2.4316778148869171
  0
3DFACE
  5
19F
  8
TURRET
 10
-0.3199999999999999
 20
0.4151038145079498
 30
1.153695850618081
 11
-0.36
 21
0.3500000000000001
 31
1.129999999999999
 12
-0.36
 22
-0.1151473949229094
 32
2.4079819642688349
 13
-0.3199999999999999
 23
-0.0500435804149597
 33
2.4316778148869171
  0
3DFACE
  5
1A0
  8
TURRET
 10
-0.36
 20
0.3500000000000001
 30
1.129999999999999
 11
-0.3200000000000001
 21
0.28489618549205
 31
1.1063041493819179
 12
-0.3200000000000001
 22
-0.1802512094308595
 32
2.384286113650754
 13
-0.36
 23
-0.1151473949229094
 33
2.4079819642688349
  0
3DFACE
  5
1A1
  8
TURRET
 10
-0.3200000000000001
 20
0.28489618549205
 30
1.1063041493819179
 11
-0.24
 21
0.28489618549205
 31
1.1063041493819179
 12
-0.24
 22
-0.1802512094308595
 32
2.384286113650754
 13
-0.3200000000000001
 23
-0.1802512094308595
 33
2.384286113650754
  0
3DFACE
  5
1A2
  8
TURRET
 10
-0.24
 20
0.28489618549205
 30
1.1063041493819179
 11
-0.2
 21
0.3500000000000001
 31
1.129999999999999
 12
-0.2
 22
-0.1151473949229094
 32
2.4079819642688349
 13
-0.24
 23
-0.1802512094308595
 33
2.384286113650754
  0
3DFACE
  5
1A3
  8
TURRET
 10
-0.24
 20
0.4151038145079498
 30
1.153695850618081
 11
-0.3200000000000001
 21
0.28489618549205
 31
1.1063041493819179
 12
-0.36
 22
0.3499999999999996
 32
1.1299999999999999
 13
-0.3199999999999999
 23
0.4151038145079493
 33
1.1536958506180821
  0
3DFACE
  5
1A4
  8
TURRET
 10
-0.2
 20
0.3500000000000001
 30
1.129999999999999
 11
-0.2400000000000001
 21
0.28489618549205
 31
1.1063041493819179
 12
-0.3200000000000001
 22
0.28489618549205
 32
1.1063041493819179
 13
-0.24
 23
0.4151038145079498
 33
1.153695850618081
  0
3DFACE
  5
1A5
  8
TURRET
 10
-0.3199999999999999
 20
-0.0500435804149597
 30
2.4316778148869171
 11
-0.36
 21
-0.1151473949229094
 31
2.4079819642688349
 12
-0.3200000000000001
 22
-0.1802512094308595
 32
2.384286113650754
 13
-0.24
 23
-0.0500435804149597
 33
2.4316778148869171
  0
3DFACE
  5
1A6
  8
TURRET
 10
-0.24
 20
-0.0500435804149597
 30
2.4316778148869171
 11
-0.3200000000000001
 21
-0.1802512094308595
 31
2.384286113650754
 12
-0.24
 22
-0.1802512094308595
 32
2.384286113650754
 13
-0.2
 23
-0.1151473949229094
 33
2.4079819642688349
  0
3DFACE
  5
1A7
  8
TURRET
 10
0.3199999999999999
 20
0.28489618549205
 30
1.1063041493819179
 11
0.3599999999999999
 21
0.3500000000000001
 31
1.129999999999999
 12
0.3599999999999999
 22
-0.1151473949229094
 32
2.4079819642688349
 13
0.3199999999999999
 23
-0.1802512094308595
 33
2.384286113650754
  0
3DFACE
  5
1A8
  8
TURRET
 10
0.2399999999999999
 20
0.28489618549205
 30
1.1063041493819179
 11
0.3199999999999999
 21
0.28489618549205
 31
1.1063041493819179
 12
0.3199999999999999
 22
-0.1802512094308595
 32
2.384286113650754
 13
0.2399999999999999
 23
-0.1802512094308595
 33
2.384286113650754
  0
3DFACE
  5
1A9
  8
TURRET
 10
0.2
 20
0.3500000000000001
 30
1.129999999999999
 11
0.2399999999999999
 21
0.28489618549205
 31
1.1063041493819179
 12
0.2399999999999999
 22
-0.1802512094308595
 32
2.384286113650754
 13
0.2
 23
-0.1151473949229094
 33
2.4079819642688349
  0
3DFACE
  5
1AA
  8
TURRET
 10
0.24
 20
0.4151038145079498
 30
1.153695850618081
 11
0.2
 21
0.3500000000000001
 31
1.129999999999999
 12
0.2
 22
-0.1151473949229094
 32
2.4079819642688349
 13
0.24
 23
-0.0500435804149597
 33
2.4316778148869171
  0
3DFACE
  5
1AB
  8
TURRET
 10
0.3200000000000001
 20
0.4151038145079498
 30
1.153695850618081
 11
0.24
 21
0.4151038145079498
 31
1.153695850618081
 12
0.24
 22
-0.0500435804149597
 32
2.4316778148869171
 13
0.3200000000000001
 23
-0.0500435804149597
 33
2.4316778148869171
  0
3DFACE
  5
1AC
  8
TURRET
 10
0.3599999999999999
 20
0.3500000000000001
 30
1.129999999999999
 11
0.3200000000000001
 21
0.4151038145079498
 31
1.153695850618081
 12
0.3200000000000001
 22
-0.0500435804149597
 32
2.4316778148869171
 13
0.3599999999999999
 23
-0.1151473949229094
 33
2.4079819642688349
  0
3DFACE
  5
1AD
  8
TURRET
 10
0.3599999999999999
 20
0.3500000000000001
 30
1.129999999999999
 11
0.3199999999999999
 21
0.28489618549205
 31
1.1063041493819179
 12
0.2399999999999999
 22
0.28489618549205
 32
1.1063041493819179
 13
0.3200000000000001
 23
0.4151038145079498
 33
1.153695850618081
  0
3DFACE
  5
1AE
  8
TURRET
 10
0.3200000000000001
 20
0.4151038145079498
 30
1.153695850618081
 11
0.2399999999999999
 21
0.28489618549205
 31
1.1063041493819179
 12
0.2
 22
0.3499999999999996
 32
1.1299999999999999
 13
0.24
 23
0.4151038145079493
 33
1.1536958506180821
  0
3DFACE
  5
1AF
  8
TURRET
 10
0.3200000000000001
 20
-0.0500435804149597
 30
2.4316778148869171
 11
0.2399999999999999
 21
-0.1802512094308595
 31
2.384286113650754
 12
0.3199999999999999
 22
-0.1802512094308595
 32
2.384286113650754
 13
0.3599999999999999
 23
-0.1151473949229094
 33
2.4079819642688349
  0
3DFACE
  5
1B0
  8
TURRET
 10
0.24
 20
-0.0500435804149597
 30
2.4316778148869171
 11
0.2
 21
-0.1151473949229094
 31
2.4079819642688349
 12
0.2399999999999999
 22
-0.1802512094308595
 32
2.384286113650754
 13
0.3200000000000001
 23
-0.0500435804149597
 33
2.4316778148869171
  0
3DFACE
  5
216
  8
TURRET
 10
-0.23
 20
-0.1151473949229094
 30
2.4079819642688349
 11
-0.255
 21
-0.0744575108554404
 31
2.422791870905137
 12
-0.255
 22
-0.1770635538531411
 32
2.704699657140909
 13
-0.23
 23
-0.2177534379206101
 33
2.6898897505046082
  0
3DFACE
  5
217
  8
TURRET
 10
-0.255
 20
-0.0744575108554404
 30
2.422791870905137
 11
-0.305
 21
-0.0744575108554404
 31
2.422791870905137
 12
-0.305
 22
-0.1770635538531411
 32
2.704699657140909
 13
-0.255
 23
-0.1770635538531411
 33
2.704699657140909
  0
3DFACE
  5
218
  8
TURRET
 10
-0.305
 20
-0.0744575108554404
 30
2.422791870905137
 11
-0.33
 21
-0.1151473949229094
 31
2.4079819642688349
 12
-0.33
 22
-0.2177534379206101
 32
2.6898897505046082
 13
-0.305
 23
-0.1770635538531411
 33
2.704699657140909
  0
3DFACE
  5
219
  8
TURRET
 10
-0.33
 20
-0.1151473949229094
 30
2.4079819642688349
 11
-0.3050000000000001
 21
-0.1558372789903784
 31
2.3931720576325342
 12
-0.3050000000000001
 22
-0.2584433219880791
 32
2.6750798438683061
 13
-0.33
 23
-0.2177534379206101
 33
2.6898897505046082
  0
3DFACE
  5
21A
  8
TURRET
 10
-0.3050000000000001
 20
-0.1558372789903784
 30
2.3931720576325342
 11
-0.2550000000000001
 21
-0.1558372789903784
 31
2.3931720576325342
 12
-0.2550000000000001
 22
-0.2584433219880791
 32
2.6750798438683061
 13
-0.3050000000000001
 23
-0.2584433219880791
 33
2.6750798438683061
  0
3DFACE
  5
21B
  8
TURRET
 10
-0.2550000000000001
 20
-0.1558372789903784
 30
2.3931720576325342
 11
-0.23
 21
-0.1151473949229094
 31
2.4079819642688349
 12
-0.23
 22
-0.2177534379206101
 32
2.6898897505046082
 13
-0.2550000000000001
 23
-0.2584433219880791
 33
2.6750798438683061
  0
3DFACE
  5
21C
  8
TURRET
 10
-0.3050000000000001
 20
-0.2584433219880791
 30
2.6750798438683061
 11
-0.2550000000000001
 21
-0.2584433219880791
 31
2.6750798438683061
 12
-0.23
 22
-0.2177534379206101
 32
2.6898897505046082
 13
-0.33
 23
-0.2177534379206101
 33
2.6898897505046082
  0
3DFACE
  5
21D
  8
TURRET
 10
-0.33
 20
-0.2177534379206101
 30
2.6898897505046082
 11
-0.23
 21
-0.2177534379206101
 31
2.6898897505046082
 12
-0.255
 22
-0.1770635538531411
 32
2.704699657140909
 13
-0.305
 23
-0.1770635538531411
 33
2.704699657140909
  0
3DFACE
  5
21E
  8
TURRET
 10
0.305
 20
-0.1558372789903784
 30
2.3931720576325342
 11
0.33
 21
-0.1151473949229094
 31
2.4079819642688349
 12
0.33
 22
-0.2177534379206101
 32
2.6898897505046082
 13
0.305
 23
-0.2584433219880791
 33
2.6750798438683061
  0
3DFACE
  5
21F
  8
TURRET
 10
0.2549999999999999
 20
-0.1558372789903784
 30
2.3931720576325342
 11
0.305
 21
-0.1558372789903784
 31
2.3931720576325342
 12
0.305
 22
-0.2584433219880791
 32
2.6750798438683061
 13
0.2549999999999999
 23
-0.2584433219880791
 33
2.6750798438683061
  0
3DFACE
  5
220
  8
TURRET
 10
0.23
 20
-0.1151473949229094
 30
2.4079819642688349
 11
0.2549999999999999
 21
-0.1558372789903784
 31
2.3931720576325342
 12
0.2549999999999999
 22
-0.2584433219880791
 32
2.6750798438683061
 13
0.23
 23
-0.2177534379206101
 33
2.6898897505046082
  0
3DFACE
  5
221
  8
TURRET
 10
0.2550000000000001
 20
-0.0744575108554404
 30
2.422791870905137
 11
0.23
 21
-0.1151473949229094
 31
2.4079819642688349
 12
0.23
 22
-0.2177534379206101
 32
2.6898897505046082
 13
0.2550000000000001
 23
-0.1770635538531411
 33
2.704699657140909
  0
3DFACE
  5
222
  8
TURRET
 10
0.305
 20
-0.0744575108554404
 30
2.422791870905137
 11
0.2550000000000001
 21
-0.0744575108554404
 31
2.422791870905137
 12
0.2550000000000001
 22
-0.1770635538531411
 32
2.704699657140909
 13
0.305
 23
-0.1770635538531411
 33
2.704699657140909
  0
3DFACE
  5
223
  8
TURRET
 10
0.33
 20
-0.1151473949229094
 30
2.4079819642688349
 11
0.305
 21
-0.0744575108554404
 31
2.422791870905137
 12
0.305
 22
-0.1770635538531411
 32
2.704699657140909
 13
0.33
 23
-0.2177534379206101
 33
2.6898897505046082
  0
3DFACE
  5
224
  8
TURRET
 10
0.23
 20
-0.2177534379206101
 30
2.6898897505046082
 11
0.33
 21
-0.2177534379206101
 31
2.6898897505046082
 12
0.305
 22
-0.1770635538531411
 32
2.704699657140909
 13
0.2550000000000001
 23
-0.1770635538531411
 33
2.704699657140909
  0
3DFACE
  5
225
  8
TURRET
 10
0.2549999999999999
 20
-0.2584433219880791
 30
2.6750798438683061
 11
0.305
 21
-0.2584433219880791
 31
2.6750798438683061
 12
0.33
 22
-0.2177534379206101
 32
2.6898897505046082
 13
0.23
 23
-0.2177534379206101
 33
2.6898897505046082
  0
3DFACE
  5
252
  8
TURRET
 10
0.32
 20
-0.2177534379206101
 30
2.6898897505046082
 11
0.31
 21
-0.2083565117127515
 31
2.6933099519378638
 12
0.31
 22
-0.2391383246120613
 32
2.777882287808596
 13
0.32
 23
-0.2519554522531768
 33
2.783859012583199
  0
3DFACE
  5
253
  8
TURRET
 10
0.31
 20
-0.2083565117127515
 30
2.6933099519378638
 11
0.3
 21
-0.2177534379206101
 31
2.6898897505046082
 12
0.3
 22
-0.2451150493866638
 32
2.7650651601674801
 13
0.31
 23
-0.2391383246120613
 33
2.777882287808596
  0
3DFACE
  5
254
  8
TURRET
 10
0.3
 20
-0.2177534379206101
 30
2.6898897505046082
 11
0.31
 21
-0.2271503641284691
 31
2.6864695490713508
 12
0.31
 22
-0.2579321770277794
 32
2.771041884942083
 13
0.3
 23
-0.2451150493866638
 33
2.7650651601674801
  0
3DFACE
  5
255
  8
TURRET
 10
0.31
 20
-0.2271503641284691
 30
2.6864695490713508
 11
0.32
 21
-0.2177534379206101
 31
2.6898897505046082
 12
0.32
 22
-0.2519554522531768
 32
2.783859012583199
 13
0.31
 23
-0.2579321770277794
 33
2.771041884942083
  0
3DFACE
  5
256
  8
TURRET
 10
0.32
 20
-0.2519554522531768
 30
2.7838590125831981
 11
0.31
 21
-0.2391383246120613
 31
2.777882287808596
 12
-0.31
 22
-0.2391383246120613
 32
2.777882287808596
 13
-0.32
 23
-0.2519554522531768
 33
2.7838590125831981
  0
3DFACE
  5
257
  8
TURRET
 10
0.31
 20
-0.2391383246120613
 30
2.777882287808596
 11
0.3
 21
-0.2451150493866634
 31
2.7650651601674801
 12
-0.3000000000000004
 22
-0.2451150493866634
 32
2.7650651601674801
 13
-0.31
 23
-0.2391383246120613
 33
2.777882287808596
  0
3DFACE
  5
258
  8
TURRET
 10
0.3
 20
-0.2451150493866634
 30
2.7650651601674801
 11
0.31
 21
-0.2579321770277794
 31
2.771041884942083
 12
-0.31
 22
-0.2579321770277794
 32
2.771041884942083
 13
-0.3000000000000004
 23
-0.2451150493866634
 33
2.7650651601674801
  0
3DFACE
  5
259
  8
TURRET
 10
0.31
 20
-0.2579321770277794
 30
2.771041884942083
 11
0.32
 21
-0.2519554522531768
 31
2.7838590125831981
 12
-0.32
 22
-0.2519554522531768
 32
2.7838590125831981
 13
-0.31
 23
-0.2579321770277794
 33
2.771041884942083
  0
3DFACE
  5
25A
  8
TURRET
 10
-0.3
 20
-0.2177534379206101
 30
2.6898897505046082
 11
-0.31
 21
-0.2083565117127515
 31
2.6933099519378638
 12
-0.31
 22
-0.2391383246120613
 32
2.777882287808596
 13
-0.3
 23
-0.2451150493866638
 33
2.7650651601674801
  0
3DFACE
  5
25B
  8
TURRET
 10
-0.31
 20
-0.2083565117127515
 30
2.6933099519378638
 11
-0.32
 21
-0.2177534379206101
 31
2.6898897505046082
 12
-0.32
 22
-0.2519554522531768
 32
2.783859012583199
 13
-0.31
 23
-0.2391383246120613
 33
2.777882287808596
  0
3DFACE
  5
25C
  8
TURRET
 10
-0.32
 20
-0.2177534379206101
 30
2.6898897505046082
 11
-0.31
 21
-0.2271503641284691
 31
2.6864695490713508
 12
-0.31
 22
-0.2579321770277794
 32
2.771041884942083
 13
-0.32
 23
-0.2519554522531768
 33
2.783859012583199
  0
3DFACE
  5
25D
  8
TURRET
 10
-0.31
 20
-0.2271503641284691
 30
2.6864695490713508
 11
-0.3
 21
-0.2177534379206101
 31
2.6898897505046082
 12
-0.3
 22
-0.2451150493866638
 32
2.7650651601674801
 13
-0.31
 23
-0.2579321770277794
 33
2.771041884942083
  0
3DFACE
  5
274
  8
TURRET
 10
0.32
 20
0.0
 30
0.88
 11
0.2262741699796952
 21
0.2262741699796953
 31
0.88
 12
0.2262741699796952
 22
0.2262741699796953
 32
0.98
 13
0.32
 23
0.0
 33
0.98
  0
3DFACE
  5
275
  8
TURRET
 10
0.2262741699796952
 20
0.2262741699796953
 30
0.88
 11
0.0
 21
0.3199999999999998
 31
0.88
 12
0.0
 22
0.3199999999999998
 32
0.98
 13
0.2262741699796952
 23
0.2262741699796953
 33
0.98
  0
3DFACE
  5
276
  8
TURRET
 10
0.0
 20
0.3199999999999998
 30
0.88
 11
-0.2262741699796952
 21
0.2262741699796953
 31
0.88
 12
-0.2262741699796952
 22
0.2262741699796953
 32
0.98
 13
0.0
 23
0.3199999999999998
 33
0.98
  0
3DFACE
  5
277
  8
TURRET
 10
-0.2262741699796952
 20
0.2262741699796953
 30
0.88
 11
-0.32
 21
0.0
 31
0.88
 12
-0.32
 22
0.0
 32
0.98
 13
-0.2262741699796952
 23
0.2262741699796953
 33
0.98
  0
3DFACE
  5
278
  8
TURRET
 10
-0.32
 20
0.0
 30
0.88
 11
-0.2262741699796952
 21
-0.2262741699796953
 31
0.88
 12
-0.2262741699796952
 22
-0.2262741699796953
 32
0.98
 13
-0.32
 23
0.0
 33
0.98
  0
3DFACE
  5
279
  8
TURRET
 10
-0.2262741699796952
 20
-0.2262741699796953
 30
0.88
 11
-0.0000000000000001
 21
-0.3199999999999998
 31
0.88
 12
-0.0000000000000001
 22
-0.3199999999999998
 32
0.98
 13
-0.2262741699796952
 23
-0.2262741699796953
 33
0.98
  0
3DFACE
  5
27A
  8
TURRET
 10
-0.0000000000000001
 20
-0.3199999999999998
 30
0.88
 11
0.2262741699796951
 21
-0.2262741699796953
 31
0.88
 12
0.2262741699796951
 22
-0.2262741699796953
 32
0.98
 13
-0.0000000000000001
 23
-0.3199999999999998
 33
0.98
  0
3DFACE
  5
27B
  8
TURRET
 10
0.2262741699796951
 20
-0.2262741699796953
 30
0.88
 11
0.32
 21
0.0
 31
0.88
 12
0.32
 22
0.0
 32
0.98
 13
0.2262741699796951
 23
-0.2262741699796953
 33
0.98
  0
3DFACE
  5
27C
  8
TURRET
 10
-0.32
 20
0.0
 30
0.98
 11
-0.2262741699796952
 21
-0.2262741699796953
 31
0.98
 12
-0.0000000000000001
 22
-0.3199999999999998
 32
0.98
 13
-0.2262741699796952
 23
0.2262741699796953
 33
0.98
  0
3DFACE
  5
27D
  8
TURRET
 10
-0.2262741699796952
 20
0.2262741699796953
 30
0.98
 11
-0.0000000000000001
 21
-0.3199999999999998
 31
0.98
 12
0.2262741699796951
 22
-0.2262741699796953
 32
0.98
 13
0.0
 23
0.3199999999999998
 33
0.98
  0
3DFACE
  5
27E
  8
TURRET
 10
-0.0000000000000001
 20
0.3199999999999998
 30
0.98
 11
0.2262741699796951
 21
-0.2262741699796953
 31
0.98
 12
0.32
 22
0.0
 32
0.98
 13
0.2262741699796952
 23
0.2262741699796953
 33
0.98
  0
3DFACE
  5
27F
  8
TURRET
 10
-0.2262741699796952
 20
0.2262741699796953
 30
0.88
 11
-0.0000000000000001
 21
-0.3199999999999998
 31
0.88
 12
-0.2262741699796952
 22
-0.2262741699796953
 32
0.88
 13
-0.32
 23
0.0
 33
0.88
  0
3DFACE
  5
280
  8
TURRET
 10
0.0
 20
0.3199999999999998
 30
0.88
 11
0.2262741699796951
 21
-0.2262741699796953
 31
0.88
 12
-0.0000000000000001
 22
-0.3199999999999998
 32
0.88
 13
-0.2262741699796952
 23
0.2262741699796953
 33
0.88
  0
3DFACE
  5
281
  8
TURRET
 10
0.2262741699796952
 20
0.2262741699796953
 30
0.88
 11
0.32
 21
0.0
 31
0.88
 12
0.226274169979695
 22
-0.2262741699796953
 32
0.88
 13
-0.0000000000000001
 23
0.3199999999999998
 33
0.88
  0
3DFACE
  5
284
  8
TURRET
 10
-0.3200000000000003
 20
0.3900000000000001
 30
0.98
 11
-0.3200000000000003
 21
0.02
 31
0.98
 12
-0.3200000000000003
 22
0.2800000000000002
 32
1.109999999999999
 13
-0.3200000000000003
 23
0.3999999999999999
 33
1.149999999999999
  0
3DFACE
  5
285
  8
TURRET
 10
-0.24
 20
0.2800000000000002
 30
1.109999999999999
 11
-0.24
 21
-0.2399999999999998
 31
0.98
 12
-0.24
 22
0.3900000000000001
 32
0.98
 13
-0.24
 23
0.3999999999999999
 33
1.149999999999999
  0
3DFACE
  5
287
  8
TURRET
 10
-0.3200000000000003
 20
0.2800000000000002
 30
1.109999999999999
 11
-0.3200000000000003
 21
0.02
 31
0.98
 12
-0.24
 22
-0.2399999999999998
 32
0.98
 13
-0.24
 23
0.2800000000000002
 33
1.109999999999999
  0
3DFACE
  5
288
  8
TURRET
 10
-0.24
 20
0.3999999999999999
 30
1.149999999999999
 11
-0.24
 21
0.3900000000000001
 31
0.98
 12
-0.3200000000000003
 22
0.3900000000000001
 32
0.98
 13
-0.3200000000000003
 23
0.3999999999999999
 33
1.149999999999999
  0
3DFACE
  5
289
  8
TURRET
 10
-0.24
 20
0.3900000000000001
 30
0.98
 11
-0.24
 21
-0.2399999999999998
 31
0.98
 12
-0.3200000000000003
 22
0.02
 32
0.98
 13
-0.3200000000000003
 23
0.3900000000000001
 33
0.98
  0
3DFACE
  5
28B
  8
TURRET
 10
0.3200000000000001
 20
0.3999999999999999
 30
1.149999999999999
 11
0.3200000000000001
 21
0.3900000000000001
 31
0.98
 12
0.2399999999999998
 22
0.3900000000000001
 32
0.98
 13
0.2399999999999998
 23
0.3999999999999999
 33
1.149999999999999
  0
3DFACE
  5
28C
  8
TURRET
 10
0.3200000000000001
 20
0.2800000000000002
 30
1.109999999999999
 11
0.3200000000000001
 21
0.02
 31
0.98
 12
0.3200000000000001
 22
0.3900000000000001
 32
0.98
 13
0.3200000000000001
 23
0.3999999999999999
 33
1.149999999999999
  0
3DFACE
  5
28D
  8
TURRET
 10
0.2399999999999998
 20
0.2800000000000002
 30
1.109999999999999
 11
0.2399999999999998
 21
-0.2399999999999998
 31
0.98
 12
0.3200000000000001
 22
0.02
 32
0.98
 13
0.3200000000000001
 23
0.2800000000000002
 33
1.109999999999999
  0
3DFACE
  5
28E
  8
TURRET
 10
0.2399999999999998
 20
0.3900000000000001
 30
0.98
 11
0.2399999999999998
 21
-0.2399999999999998
 31
0.98
 12
0.2399999999999998
 22
0.2800000000000002
 32
1.109999999999999
 13
0.2399999999999998
 23
0.3999999999999999
 33
1.149999999999999
  0
3DFACE
  5
28F
  8
TURRET
 10
0.3200000000000001
 20
0.3900000000000001
 30
0.98
 11
0.3200000000000001
 21
0.02
 31
0.98
 12
0.2399999999999998
 22
-0.2399999999999998
 32
0.98
 13
0.2399999999999998
 23
0.3900000000000001
 33
0.98
  0
3DFACE
  5
294
  8
TURRET
 10
-0.3200000000000003
 20
0.1600000000000001
 30
1.0800000000000001
 11
-0.3200000000000003
 21
-0.2399999999999998
 31
0.98
 12
-0.3200000000000003
 22
-0.5600000000000001
 32
1.5800000000000001
 13
-0.3200000000000003
 23
-0.3599999999999999
 33
1.5800000000000001
  0
3DFACE
  5
295
  8
TURRET
 10
-0.24
 20
-0.5600000000000001
 30
1.5800000000000001
 11
-0.24
 21
-0.2399999999999998
 31
0.98
 12
-0.24
 22
0.1600000000000001
 32
1.0800000000000001
 13
-0.24
 23
-0.3599999999999999
 33
1.5800000000000001
  0
3DFACE
  5
296
  8
TURRET
 10
-0.3200000000000003
 20
-0.3599999999999999
 30
1.5800000000000001
 11
-0.3200000000000003
 21
-0.5600000000000001
 31
1.5800000000000001
 12
-0.24
 22
-0.5600000000000001
 32
1.5800000000000001
 13
-0.24
 23
-0.3599999999999999
 33
1.5800000000000001
  0
3DFACE
  5
297
  8
TURRET
 10
-0.3200000000000003
 20
-0.5600000000000001
 30
1.5800000000000001
 11
-0.3200000000000003
 21
-0.2399999999999998
 31
0.98
 12
-0.24
 22
-0.2399999999999998
 32
0.98
 13
-0.24
 23
-0.5600000000000001
 33
1.5800000000000001
  0
3DFACE
  5
298
  8
TURRET
 10
-0.24
 20
-0.3599999999999999
 30
1.5800000000000001
 11
-0.24
 21
0.1600000000000001
 31
1.0800000000000001
 12
-0.3200000000000003
 22
0.1600000000000001
 32
1.0800000000000001
 13
-0.3200000000000003
 23
-0.3599999999999999
 33
1.5800000000000001
  0
3DFACE
  5
29C
  8
TURRET
 10
0.3200000000000001
 20
-0.3599999999999999
 30
1.5800000000000001
 11
0.3200000000000001
 21
0.1600000000000001
 31
1.0800000000000001
 12
0.2399999999999998
 22
0.1600000000000001
 32
1.0800000000000001
 13
0.2399999999999998
 23
-0.3599999999999999
 33
1.5800000000000001
  0
3DFACE
  5
29D
  8
TURRET
 10
0.3200000000000001
 20
-0.5600000000000001
 30
1.5800000000000001
 11
0.3200000000000001
 21
-0.2399999999999998
 31
0.98
 12
0.3200000000000001
 22
0.1600000000000001
 32
1.0800000000000001
 13
0.3200000000000001
 23
-0.3599999999999999
 33
1.5800000000000001
  0
3DFACE
  5
29E
  8
TURRET
 10
0.2399999999999998
 20
-0.5600000000000001
 30
1.5800000000000001
 11
0.2399999999999998
 21
-0.2399999999999998
 31
0.98
 12
0.3200000000000001
 22
-0.2399999999999998
 32
0.98
 13
0.3200000000000001
 23
-0.5600000000000001
 33
1.5800000000000001
  0
3DFACE
  5
29F
  8
TURRET
 10
0.2399999999999998
 20
0.1600000000000001
 30
1.0800000000000001
 11
0.2399999999999998
 21
-0.2399999999999998
 31
0.98
 12
0.2399999999999998
 22
-0.5600000000000001
 32
1.5800000000000001
 13
0.2399999999999998
 23
-0.3599999999999999
 33
1.5800000000000001
  0
3DFACE
  5
2A1
  8
TURRET
 10
0.2399999999999998
 20
-0.3599999999999999
 30
1.5800000000000001
 11
0.2399999999999998
 21
-0.5600000000000001
 31
1.5800000000000001
 12
0.3200000000000001
 22
-0.5600000000000001
 32
1.5800000000000001
 13
0.3200000000000001
 23
-0.3599999999999999
 33
1.5800000000000001
  0
3DFACE
  5
3DC
  8
TURRET
 10
-0.03
 20
0.42
 30
0.98
 11
-0.0999999999999997
 21
0.25
 31
0.98
 12
-0.0999999999999997
 22
0.25
 32
1.0800000000000001
 13
-0.03
 23
0.42
 33
1.0800000000000001
  0
3DFACE
  5
3DE
  8
TURRET
 10
0.03
 20
0.42
 30
0.98
 11
0.1
 21
0.25
 31
0.98
 12
-0.0999999999999997
 22
0.25
 32
0.98
 13
-0.03
 23
0.42
 33
0.98
  0
3DFACE
  5
3DF
  8
TURRET
 10
-0.03
 20
0.42
 30
1.0800000000000001
 11
-0.0999999999999997
 21
0.25
 31
1.0800000000000001
 12
0.1
 22
0.25
 32
1.0800000000000001
 13
0.03
 23
0.42
 33
1.0800000000000001
  0
3DFACE
  5
3E0
  8
TURRET
 10
0.1000000000000001
 20
0.25
 30
1.0800000000000001
 11
0.1000000000000001
 21
0.25
 31
0.98
 12
0.03
 22
0.42
 32
0.98
 13
0.03
 23
0.42
 33
1.0800000000000001
  0
3DFACE
  5
3E1
  8
TURRET
 10
0.03
 20
0.42
 30
1.0800000000000001
 11
0.03
 21
0.42
 31
0.98
 12
-0.03
 22
0.42
 32
0.98
 13
-0.03
 23
0.42
 33
1.0800000000000001
  0
3DFACE
  5
3E3
  8
TURRET
 10
0.24
 20
0.25
 30
1.0800000000000001
 11
0.24
 21
0.25
 31
0.98
 12
-0.24
 22
0.25
 32
0.98
 13
-0.24
 23
0.25
 33
1.0800000000000001
  0
3DFACE
  5
3E4
  8
TURRET
 10
0.24
 20
0.1499999999999999
 30
1.0800000000000001
 11
0.24
 21
0.25
 31
0.98
 12
0.24
 22
0.25
 32
0.98
 13
0.24
 23
0.25
 33
1.0800000000000001
  0
3DFACE
  5
3E6
  8
TURRET
 10
-0.24
 20
0.25
 30
0.98
 11
-0.24
 21
0.25
 31
0.98
 12
-0.24
 22
0.1499999999999999
 32
1.0800000000000001
 13
-0.24
 23
0.25
 33
1.0800000000000001
  0
3DFACE
  5
3E7
  8
TURRET
 10
0.24
 20
0.25
 30
0.98
 11
0.24
 21
0.0800000000000001
 31
0.98
 12
-0.24
 22
0.0800000000000001
 32
0.98
 13
-0.24
 23
0.25
 33
0.98
  0
3DFACE
  5
3E8
  8
TURRET
 10
-0.24
 20
0.25
 30
1.0800000000000001
 11
-0.24
 21
0.1499999999999999
 31
1.0800000000000001
 12
0.24
 22
0.1499999999999999
 32
1.0800000000000001
 13
0.24
 23
0.25
 33
1.0800000000000001
  0
3DFACE
  5
480
  8
TURRET
 10
-0.51
 20
-0.5999999999999996
 30
1.0800000000000001
 11
-0.51
 21
-0.525
 31
1.2099038105676649
 12
-0.5400000000000002
 22
-0.525
 32
1.2099038105676649
 13
-0.5400000000000002
 23
-0.5999999999999996
 33
1.0800000000000001
  0
3DFACE
  5
481
  8
TURRET
 10
-0.51
 20
-0.525
 30
1.2099038105676649
 11
-0.51
 21
-0.3749999999999996
 31
1.2099038105676649
 12
-0.5400000000000002
 22
-0.3749999999999996
 32
1.2099038105676649
 13
-0.5400000000000002
 23
-0.525
 33
1.2099038105676649
  0
3DFACE
  5
482
  8
TURRET
 10
-0.51
 20
-0.3749999999999996
 30
1.2099038105676649
 11
-0.51
 21
-0.2999999999999998
 31
1.0800000000000001
 12
-0.5400000000000002
 22
-0.2999999999999998
 32
1.0800000000000001
 13
-0.5400000000000002
 23
-0.3749999999999996
 33
1.2099038105676649
  0
3DFACE
  5
483
  8
TURRET
 10
-0.51
 20
-0.2999999999999998
 30
1.0800000000000001
 11
-0.51
 21
-0.3749999999999996
 31
0.9500961894323342
 12
-0.5400000000000002
 22
-0.3749999999999996
 32
0.9500961894323342
 13
-0.5400000000000002
 23
-0.2999999999999998
 33
1.0800000000000001
  0
3DFACE
  5
484
  8
TURRET
 10
-0.51
 20
-0.3749999999999996
 30
0.9500961894323342
 11
-0.51
 21
-0.5249999999999995
 31
0.9500961894323342
 12
-0.5400000000000002
 22
-0.5249999999999995
 32
0.9500961894323342
 13
-0.5400000000000002
 23
-0.3749999999999996
 33
0.9500961894323342
  0
3DFACE
  5
485
  8
TURRET
 10
-0.51
 20
-0.5249999999999995
 30
0.9500961894323342
 11
-0.51
 21
-0.5999999999999996
 31
1.0800000000000001
 12
-0.5400000000000002
 22
-0.5999999999999996
 32
1.0800000000000001
 13
-0.5400000000000002
 23
-0.5249999999999995
 33
0.9500961894323342
  0
3DFACE
  5
486
  8
TURRET
 10
-0.5400000000000002
 20
-0.3500000000000001
 30
1.0800000000000001
 11
-0.5400000000000002
 21
-0.3300000000000001
 31
1.1000000000000001
 12
-0.6400000000000002
 22
-0.3300000000000001
 32
1.1000000000000001
 13
-0.6400000000000002
 23
-0.3500000000000001
 33
1.0800000000000001
  0
3DFACE
  5
487
  8
TURRET
 10
-0.5400000000000002
 20
-0.3300000000000001
 30
1.1000000000000001
 11
-0.5400000000000002
 21
-0.31
 31
1.0800000000000001
 12
-0.6400000000000002
 22
-0.31
 32
1.0800000000000001
 13
-0.6400000000000002
 23
-0.3300000000000001
 33
1.1000000000000001
  0
3DFACE
  5
488
  8
TURRET
 10
-0.5400000000000002
 20
-0.31
 30
1.0800000000000001
 11
-0.5400000000000002
 21
-0.3300000000000001
 31
1.0600000000000001
 12
-0.6400000000000002
 22
-0.3300000000000001
 32
1.0600000000000001
 13
-0.6400000000000002
 23
-0.31
 33
1.0800000000000001
  0
3DFACE
  5
489
  8
TURRET
 10
-0.5400000000000002
 20
-0.3300000000000001
 30
1.0600000000000001
 11
-0.5400000000000002
 21
-0.3500000000000001
 31
1.0800000000000001
 12
-0.6400000000000002
 22
-0.3500000000000001
 32
1.0800000000000001
 13
-0.6400000000000002
 23
-0.3300000000000001
 33
1.0600000000000001
  0
3DFACE
  5
48A
  8
TURRET
 10
-0.5400000000000002
 20
-0.525
 30
1.2099038105676649
 11
-0.5400000000000002
 21
-0.3749999999999996
 31
1.2099038105676649
 12
-0.5400000000000002
 22
-0.2999999999999998
 32
1.0800000000000001
 13
-0.5400000000000002
 23
-0.5999999999999996
 33
1.0800000000000001
  0
3DFACE
  5
48B
  8
TURRET
 10
-0.5400000000000002
 20
-0.5999999999999996
 30
1.0800000000000001
 11
-0.5400000000000002
 21
-0.2999999999999998
 31
1.0800000000000001
 12
-0.5400000000000002
 22
-0.3749999999999996
 32
0.9500961894323342
 13
-0.5400000000000002
 23
-0.5249999999999995
 33
0.9500961894323342
  0
3DFACE
  5
48C
  8
TURRET
 10
-0.6400000000000002
 20
-0.3300000000000001
 30
1.1000000000000001
 11
-0.6400000000000002
 21
-0.31
 31
1.0800000000000001
 12
-0.6400000000000002
 22
-0.3300000000000001
 32
1.0600000000000001
 13
-0.6400000000000002
 23
-0.3500000000000001
 33
1.0800000000000001
  0
3DFACE
  5
48D
  8
TURRET
 10
-0.51
 20
-0.5249999999999995
 30
0.9500961894323342
 11
-0.51
 21
-0.3749999999999996
 31
1.2099038105676649
 12
-0.51
 22
-0.525
 32
1.2099038105676649
 13
-0.51
 23
-0.5999999999999996
 33
1.0800000000000001
  0
3DFACE
  5
48E
  8
TURRET
 10
-0.51
 20
-0.3749999999999991
 30
0.9500961894323342
 11
-0.51
 21
-0.2999999999999994
 31
1.0800000000000001
 12
-0.51
 22
-0.3749999999999996
 32
1.2099038105676649
 13
-0.51
 23
-0.5249999999999995
 33
0.9500961894323342
  0
3DFACE
  5
49B
  8
TURRET
 10
-0.32
 20
-0.4799999999999996
 30
1.0800000000000001
 11
-0.32
 21
-0.4499999999999998
 31
1.1100000000000001
 12
-0.51
 22
-0.4499999999999998
 32
1.1100000000000001
 13
-0.51
 23
-0.4799999999999996
 33
1.0800000000000001
  0
3DFACE
  5
49C
  8
TURRET
 10
-0.32
 20
-0.4499999999999998
 30
1.1100000000000001
 11
-0.32
 21
-0.42
 31
1.0800000000000001
 12
-0.51
 22
-0.42
 32
1.0800000000000001
 13
-0.51
 23
-0.4499999999999998
 33
1.1100000000000001
  0
3DFACE
  5
49D
  8
TURRET
 10
-0.32
 20
-0.42
 30
1.0800000000000001
 11
-0.32
 21
-0.4499999999999998
 31
1.05
 12
-0.51
 22
-0.4499999999999998
 32
1.05
 13
-0.51
 23
-0.42
 33
1.0800000000000001
  0
3DFACE
  5
49E
  8
TURRET
 10
-0.32
 20
-0.4499999999999998
 30
1.05
 11
-0.32
 21
-0.4799999999999996
 31
1.0800000000000001
 12
-0.51
 22
-0.4799999999999996
 32
1.0800000000000001
 13
-0.51
 23
-0.4499999999999998
 33
1.05
  0
3DFACE
  5
49F
  8
TURRET
 10
-0.39
 20
-0.2599999999999998
 30
1.02
 11
-0.39
 21
-0.5
 31
1.04
 12
-0.39
 22
-0.5099999999999998
 32
1.139999999999999
 13
-0.39
 23
-0.3799999999999999
 33
1.2399999999999991
  0
3DFACE
  5
4A0
  8
TURRET
 10
-0.2
 20
-0.5099999999999998
 30
1.139999999999999
 11
-0.2
 21
-0.5
 31
1.04
 12
-0.2
 22
-0.2599999999999998
 32
1.02
 13
-0.2
 23
-0.3799999999999999
 33
1.2399999999999991
  0
3DFACE
  5
4A1
  8
TURRET
 10
-0.39
 20
-0.3799999999999999
 30
1.2399999999999991
 11
-0.39
 21
-0.5099999999999998
 31
1.139999999999999
 12
-0.2
 22
-0.5099999999999998
 32
1.139999999999999
 13
-0.2
 23
-0.3799999999999999
 33
1.2399999999999991
  0
3DFACE
  5
4A2
  8
TURRET
 10
-0.39
 20
-0.5099999999999998
 30
1.139999999999999
 11
-0.39
 21
-0.5
 31
1.04
 12
-0.2
 22
-0.5
 32
1.04
 13
-0.2
 23
-0.5099999999999998
 33
1.139999999999999
  0
3DFACE
  5
4A3
  8
TURRET
 10
-0.2
 20
-0.3799999999999999
 30
1.2399999999999991
 11
-0.2
 21
-0.2599999999999998
 31
1.02
 12
-0.39
 22
-0.2599999999999998
 32
1.02
 13
-0.39
 23
-0.3799999999999999
 33
1.2399999999999991
  0
3DFACE
  5
4A4
  8
TURRET
 10
-0.2
 20
-0.2599999999999998
 30
1.02
 11
-0.2
 21
-0.5
 31
1.04
 12
-0.39
 22
-0.5
 32
1.04
 13
-0.39
 23
-0.2599999999999998
 33
1.02
  0
3DFACE
  5
4A6
  8
TURRET
 10
-0.3499999999999999
 20
-0.44
 30
1.1899999999999991
 11
-0.3799999999999997
 21
-0.44
 31
1.159999999999999
 12
-0.3799999999999997
 22
-0.69
 32
1.159999999999999
 13
-0.3499999999999999
 23
-0.69
 33
1.1899999999999991
  0
3DFACE
  5
4A7
  8
TURRET
 10
-0.3200000000000001
 20
-0.44
 30
1.159999999999999
 11
-0.3499999999999999
 21
-0.44
 31
1.1899999999999991
 12
-0.3499999999999999
 22
-0.69
 32
1.1899999999999991
 13
-0.3200000000000001
 23
-0.69
 33
1.159999999999999
  0
3DFACE
  5
4A8
  8
TURRET
 10
-0.4250000000000006
 20
-0.69
 30
1.0300961894323339
 11
-0.5000000000000002
 21
-0.69
 31
1.159999999999999
 12
-0.425
 22
-0.69
 32
1.289903810567665
 13
-0.2750000000000001
 23
-0.69
 33
1.0300961894323339
  0
3DFACE
  5
4A9
  8
TURRET
 10
-0.2750000000000001
 20
-0.69
 30
1.0300961894323339
 11
-0.425
 21
-0.69
 31
1.289903810567665
 12
-0.2749999999999997
 22
-0.69
 32
1.289903810567665
 13
-0.2
 23
-0.69
 33
1.159999999999999
  0
3DFACE
  5
4AA
  8
TURRET
 10
-0.2749999999999997
 20
-0.7199999999999998
 30
1.289903810567665
 11
-0.425
 21
-0.7199999999999998
 31
1.289903810567665
 12
-0.4999999999999999
 22
-0.7199999999999998
 32
1.159999999999999
 13
-0.2
 23
-0.7199999999999998
 33
1.159999999999999
  0
3DFACE
  5
4AB
  8
TURRET
 10
-0.425
 20
-0.69
 30
1.289903810567665
 11
-0.4999999999999999
 21
-0.69
 31
1.159999999999999
 12
-0.4999999999999999
 22
-0.7199999999999998
 32
1.159999999999999
 13
-0.425
 23
-0.7199999999999998
 33
1.289903810567665
  0
3DFACE
  5
4AC
  8
TURRET
 10
-0.2
 20
-0.69
 30
1.159999999999999
 11
-0.2749999999999997
 21
-0.69
 31
1.289903810567665
 12
-0.2749999999999997
 22
-0.7199999999999998
 32
1.289903810567665
 13
-0.2
 23
-0.7199999999999998
 33
1.159999999999999
  0
3DFACE
  5
4AD
  8
TURRET
 10
-0.2
 20
-0.7199999999999998
 30
1.159999999999999
 11
-0.4999999999999999
 21
-0.7199999999999998
 31
1.159999999999999
 12
-0.425
 22
-0.7199999999999998
 32
1.0300961894323339
 13
-0.2750000000000001
 23
-0.7199999999999998
 33
1.0300961894323339
  0
3DFACE
  5
4AE
  8
TURRET
 10
-0.2750000000000001
 20
-0.69
 30
1.0300961894323339
 11
-0.2
 21
-0.69
 31
1.159999999999999
 12
-0.2
 22
-0.7199999999999998
 32
1.159999999999999
 13
-0.2750000000000001
 23
-0.7199999999999998
 33
1.0300961894323339
  0
3DFACE
  5
4AF
  8
TURRET
 10
-0.4999999999999999
 20
-0.69
 30
1.159999999999999
 11
-0.425
 21
-0.69
 31
1.0300961894323339
 12
-0.425
 22
-0.7199999999999998
 32
1.0300961894323339
 13
-0.4999999999999999
 23
-0.7199999999999998
 33
1.159999999999999
  0
3DFACE
  5
4B0
  8
TURRET
 10
-0.425
 20
-0.69
 30
1.0300961894323339
 11
-0.2750000000000001
 21
-0.69
 31
1.0300961894323339
 12
-0.2750000000000001
 22
-0.7199999999999998
 32
1.0300961894323339
 13
-0.425
 23
-0.7199999999999998
 33
1.0300961894323339
  0
3DFACE
  5
4B1
  8
TURRET
 10
-0.4699999999999996
 20
-0.7199999999999998
 30
1.139999999999999
 11
-0.4499999999999995
 21
-0.7199999999999998
 31
1.159999999999999
 12
-0.4499999999999995
 22
-0.82
 32
1.159999999999999
 13
-0.4699999999999996
 23
-0.82
 33
1.139999999999999
  0
3DFACE
  5
4B2
  8
TURRET
 10
-0.4899999999999995
 20
-0.7199999999999998
 30
1.159999999999999
 11
-0.4699999999999996
 21
-0.7199999999999998
 31
1.139999999999999
 12
-0.4699999999999996
 22
-0.82
 32
1.139999999999999
 13
-0.4899999999999995
 23
-0.82
 33
1.159999999999999
  0
3DFACE
  5
4B3
  8
TURRET
 10
-0.4699999999999996
 20
-0.7199999999999998
 30
1.179999999999999
 11
-0.4899999999999995
 21
-0.7199999999999998
 31
1.159999999999999
 12
-0.4899999999999995
 22
-0.82
 32
1.159999999999999
 13
-0.4699999999999996
 23
-0.82
 33
1.179999999999999
  0
3DFACE
  5
4B4
  8
TURRET
 10
-0.4499999999999995
 20
-0.7199999999999998
 30
1.159999999999999
 11
-0.4699999999999996
 21
-0.7199999999999998
 31
1.179999999999999
 12
-0.4699999999999996
 22
-0.82
 32
1.179999999999999
 13
-0.4499999999999995
 23
-0.82
 33
1.159999999999999
  0
3DFACE
  5
4B5
  8
TURRET
 10
-0.4699999999999996
 20
-0.82
 30
1.179999999999999
 11
-0.4899999999999995
 21
-0.82
 31
1.159999999999999
 12
-0.4699999999999996
 22
-0.82
 32
1.139999999999999
 13
-0.4499999999999995
 23
-0.82
 33
1.159999999999999
  0
3DFACE
  5
4B6
  8
TURRET
 10
-0.3499999999999999
 20
-0.44
 30
1.129999999999999
 11
-0.3200000000000001
 21
-0.44
 31
1.159999999999999
 12
-0.3200000000000001
 22
-0.69
 32
1.159999999999999
 13
-0.3499999999999999
 23
-0.69
 33
1.129999999999999
  0
3DFACE
  5
4B7
  8
TURRET
 10
-0.3799999999999997
 20
-0.44
 30
1.159999999999999
 11
-0.3499999999999999
 21
-0.44
 31
1.129999999999999
 12
-0.3499999999999999
 22
-0.69
 32
1.129999999999999
 13
-0.3799999999999997
 23
-0.69
 33
1.159999999999999
  0
3DFACE
  5
4B8
  8
TURRET
 10
-0.2749999999999997
 20
-0.69
 30
1.289903810567665
 11
-0.425
 21
-0.69
 31
1.289903810567665
 12
-0.425
 22
-0.7199999999999998
 32
1.289903810567665
 13
-0.2749999999999997
 23
-0.7199999999999998
 33
1.289903810567665
  0
3DFACE
  5
50C
  8
TURRET
 10
0.0
 20
0.0500000000000003
 30
1.179999999999999
 11
0.0
 21
0.2500000000000004
 31
0.98
 12
-0.2400000000000002
 22
0.2500000000000004
 32
0.98
 13
-0.2400000000000002
 23
-0.0499999999999998
 33
1.28
  0
3DFACE
  5
50D
  8
TURRET
 10
-0.2400000000000002
 20
-0.1299999999999999
 30
1.28
 11
-0.2400000000000002
 21
0.1700000000000004
 31
0.98
 12
0.0
 22
0.1700000000000004
 32
0.98
 13
0.0
 23
-0.0299999999999998
 33
1.179999999999999
  0
3DFACE
  5
50E
  8
TURRET
 10
-0.2400000000000002
 20
-0.0499999999999998
 30
1.28
 11
-0.2400000000000002
 21
-0.1299999999999999
 31
1.28
 12
0.0
 22
-0.0299999999999998
 32
1.179999999999999
 13
0.0
 23
0.0500000000000003
 33
1.179999999999999
  0
3DFACE
  5
512
  8
TURRET
 10
0.24
 20
-0.0499999999999998
 30
1.28
 11
0.24
 21
0.2500000000000004
 31
0.98
 12
-0.0000000000000002
 22
0.2500000000000004
 32
0.98
 13
-0.0000000000000002
 23
0.0500000000000003
 33
1.179999999999999
  0
3DFACE
  5
513
  8
TURRET
 10
-0.0000000000000002
 20
-0.0299999999999998
 30
1.179999999999999
 11
-0.0000000000000002
 21
0.1700000000000004
 31
0.98
 12
0.24
 22
0.1700000000000004
 32
0.98
 13
0.24
 23
-0.1299999999999999
 33
1.28
  0
3DFACE
  5
515
  8
TURRET
 10
-0.0000000000000002
 20
0.0500000000000003
 30
1.179999999999999
 11
-0.0000000000000002
 21
-0.0299999999999998
 31
1.179999999999999
 12
0.24
 22
-0.1299999999999999
 32
1.28
 13
0.24
 23
-0.0499999999999998
 33
1.28
  0
ENDSEC
  0
EOF
