  0
SECTION
  2
HEADER
  9
$ACADVER
  1
AC1009
  9
$INSBASE
 10
0.0
 20
0.0
 30
0.0
  9
$EXTMIN
 10
-9.2600000000000051
 20
-107.66
 30
-94.159999999999997
  9
$EXTMAX
 10
9.2599999999999998
 20
103.602841
 30
95.618461999999965
  9
$LIMMIN
 10
0.0
 20
0.0
  9
$LIMMAX
 10
420.0
 20
297.0
  9
$ORTHOMODE
 70
     1
  9
$REGENMODE
 70
     1
  9
$FILLMODE
 70
     1
  9
$QTEXTMODE
 70
     0
  9
$MIRRTEXT
 70
     1
  9
$DRAGMODE
 70
     2
  9
$LTSCALE
 40
1.0
  9
$OSMODE
 70
   559
  9
$ATTMODE
 70
     1
  9
$TEXTSIZE
 40
2.5
  9
$TRACEWID
 40
1.0
  9
$TEXTSTYLE
  7
STANDARD
  9
$CLAYER
  8
SLEEVE
  9
$CELTYPE
  6
BYLAYER
  9
$CECOLOR
 62
   256
  9
$DIMSCALE
 40
1.0
  9
$DIMASZ
 40
2.5
  9
$DIMEXO
 40
0.625
  9
$DIMDLI
 40
3.75
  9
$DIMRND
 40
0.0
  9
$DIMDLE
 40
0.0
  9
$DIMEXE
 40
1.25
  9
$DIMTP
 40
0.0
  9
$DIMTM
 40
0.0
  9
$DIMTXT
 40
2.5
  9
$DIMCEN
 40
2.5
  9
$DIMTSZ
 40
0.0
  9
$DIMTOL
 70
     0
  9
$DIMLIM
 70
     0
  9
$DIMTIH
 70
     0
  9
$DIMTOH
 70
     0
  9
$DIMSE1
 70
     0
  9
$DIMSE2
 70
     0
  9
$DIMTAD
 70
     1
  9
$DIMZIN
 70
     8
  9
$DIMBLK
  1

  9
$DIMASO
 70
     1
  9
$DIMSHO
 70
     1
  9
$DIMPOST
  1

  9
$DIMAPOST
  1

  9
$DIMALT
 70
     0
  9
$DIMALTD
 70
     3
  9
$DIMALTF
 40
0.03937007874016
  9
$DIMLFAC
 40
1.0
  9
$DIMTOFL
 70
     1
  9
$DIMTVP
 40
0.0
  9
$DIMTIX
 70
     0
  9
$DIMSOXD
 70
     0
  9
$DIMSAH
 70
     0
  9
$DIMBLK1
  1

  9
$DIMBLK2
  1

  9
$DIMSTYLE
  2
ISO-25
  9
$DIMCLRD
 70
     0
  9
$DIMCLRE
 70
     0
  9
$DIMCLRT
 70
     0
  9
$DIMTFAC
 40
1.0
  9
$DIMGAP
 40
0.625
  9
$LUNITS
 70
     2
  9
$LUPREC
 70
     4
  9
$SKETCHINC
 40
1.0
  9
$FILLETRAD
 40
10.0
  9
$AUNITS
 70
     0
  9
$AUPREC
 70
     0
  9
$MENU
  1
.
  9
$ELEVATION
 40
0.0
  9
$PELEVATION
 40
0.0
  9
$THICKNESS
 40
0.0
  9
$LIMCHECK
 70
     0
  9
$BLIPMODE
 70
     0
  9
$CHAMFERA
 40
10.0
  9
$CHAMFERB
 40
10.0
  9
$SKPOLY
 70
     0
  9
$TDCREATE
 40
2455438.8352431832
  9
$TDUPDATE
 40
2455453.843576435
  9
$TDINDWG
 40
1.9246200347
  9
$TDUSRTIMER
 40
1.9246200347
  9
$USRTIMER
 70
     1
  9
$ANGBASE
 50
0.0
  9
$ANGDIR
 70
     0
  9
$PDMODE
 70
     0
  9
$PDSIZE
 40
0.0
  9
$PLINEWID
 40
0.0
  9
$COORDS
 70
     1
  9
$SPLFRAME
 70
     0
  9
$SPLINETYPE
 70
     6
  9
$SPLINESEGS
 70
     8
  9
$ATTDIA
 70
     1
  9
$ATTREQ
 70
     1
  9
$HANDLING
 70
-16383
  9
$HANDSEED
  5
4090
  9
$SURFTAB1
 70
     6
  9
$SURFTAB2
 70
     6
  9
$SURFTYPE
 70
     6
  9
$SURFU
 70
     6
  9
$SURFV
 70
     6
  9
$UCSNAME
  2

  9
$UCSORG
 10
0.0
 20
0.0
 30
0.0
  9
$UCSXDIR
 10
0.0
 20
-1.0
 30
0.0
  9
$UCSYDIR
 10
0.0
 20
0.0
 30
1.0
  9
$PUCSNAME
  2

  9
$PUCSORG
 10
0.0
 20
0.0
 30
0.0
  9
$PUCSXDIR
 10
1.0
 20
0.0
 30
0.0
  9
$PUCSYDIR
 10
0.0
 20
1.0
 30
0.0
  9
$USERI1
 70
     0
  9
$USERI2
 70
     0
  9
$USERI3
 70
     0
  9
$USERI4
 70
     0
  9
$USERI5
 70
     0
  9
$USERR1
 40
0.0
  9
$USERR2
 40
0.0
  9
$USERR3
 40
0.0
  9
$USERR4
 40
0.0
  9
$USERR5
 40
0.0
  9
$WORLDVIEW
 70
     1
  9
$SHADEDGE
 70
     3
  9
$SHADEDIF
 70
    70
  9
$TILEMODE
 70
     1
  9
$MAXACTVP
 70
    64
  9
$PLIMCHECK
 70
     0
  9
$PEXTMIN
 10
27.844751262664801
 20
20.161249995231621
 30
0.0
  9
$PEXTMAX
 10
250.60276136398309
 20
181.4512499570846
 30
0.0
  9
$PLIMMIN
 10
-3.757080078125
 20
-3.7570831775665279
  9
$PLIMMAX
 10
293.21124267578119
 20
206.21624445915219
  9
$UNITMODE
 70
     0
  9
$VISRETAIN
 70
     1
  9
$PLINEGEN
 70
     0
  9
$PSLTSCALE
 70
     1
  0
ENDSEC
  0
SECTION
  2
TABLES
  0
TABLE
  2
VPORT
 70
     5
  0
VPORT
  2
*ACTIVE
 70
     0
 10
0.0
 20
0.0
 11
1.0
 21
1.0
 12
-2.6927097437125549
 22
0.5553406885238587
 13
0.0
 23
0.0
 14
0.01
 24
0.01
 15
1.0
 25
1.0
 16
-1.0
 26
0.0
 36
0.0
 17
0.0
 27
0.0
 37
0.0
 40
11.25299217847461
 41
1.716094032549728
 42
50.0
 43
0.0
 44
0.0
 50
0.0
 51
0.0
 71
     0
 72
   100
 73
     1
 74
     3
 75
     1
 76
     1
 77
     0
 78
     0
  0
ENDTAB
  0
TABLE
  2
LTYPE
 70
     1
  0
LTYPE
  2
CONTINUOUS
 70
     0
  3
Solid line
 72
    65
 73
     0
 40
0.0
  0
ENDTAB
  0
TABLE
  2
LAYER
 70
    12
  0
LAYER
  2
0
 70
     0
 62
     7
  6
CONTINUOUS
  0
LAYER
  2
DRAWING
 70
     0
 62
     9
  6
CONTINUOUS
  0
LAYER
  2
SUPERSTRUCTURE
 70
     0
 62
     3
  6
CONTINUOUS
  0
LAYER
  2
RANGEFINDERS
 70
     0
 62
     2
  6
CONTINUOUS
  0
LAYER
  2
BARREL
 70
     0
 62
     1
  6
CONTINUOUS
  0
LAYER
  2
RAILINGS
 70
     0
 62
     6
  6
CONTINUOUS
  0
LAYER
  2
TURRET
 70
     0
 62
     2
  6
CONTINUOUS
  0
LAYER
  2
SLEEVE
 70
     0
 62
     5
  6
CONTINUOUS
  0
LAYER
  2
MOUNT
 70
     0
 62
     2
  6
CONTINUOUS
  0
LAYER
  2
CRANE
 70
     0
 62
     4
  6
CONTINUOUS
  0
LAYER
  2
BOATS
 70
     0
 62
     1
  6
CONTINUOUS
  0
ENDTAB
  0
TABLE
  2
STYLE
 70
     1
  0
STYLE
  2
STANDARD
 70
     0
 40
0.0
 41
1.0
 50
0.0
 71
     0
 42
2.5
  3
txt
  4

  0
ENDTAB
  0
TABLE
  2
VIEW
 70
     0
  0
ENDTAB
  0
TABLE
  2
UCS
 70
     0
  0
ENDTAB
  0
TABLE
  2
APPID
 70
     1
  0
APPID
  2
ACAD
 70
     0
  0
ENDTAB
  0
TABLE
  2
DIMSTYLE
 70
     1
  0
DIMSTYLE
  2
ISO-25
 70
     0
  3

  4

  5

  6

  7

 40
1.0
 41
2.5
 42
0.625
 43
3.75
 44
1.25
 45
0.0
 46
0.0
 47
0.0
 48
0.0
140
2.5
141
2.5
142
0.0
143
0.03937007874016
144
1.0
145
0.0
146
1.0
147
0.625
 71
     0
 72
     0
 73
     0
 74
     0
 75
     0
 76
     0
 77
     1
 78
     8
170
     0
171
     3
172
     1
173
     0
174
     0
175
     0
176
     0
177
     0
178
     0
  0
ENDTAB
  0
ENDSEC
  0
SECTION
  2
BLOCKS
  0
BLOCK
  8
0
  2
$MODEL_SPACE
 70
     0
 10
0.0
 20
0.0
 30
0.0
  3
$MODEL_SPACE
  1

  0
ENDBLK
  5
21
  8
0
  0
BLOCK
 67
     1
  8
0
  2
$PAPER_SPACE
 70
     0
 10
0.0
 20
0.0
 30
0.0
  3
$PAPER_SPACE
  1

  0
ENDBLK
  5
1D
 67
     1
  8
0
  0
ENDSEC
  0
SECTION
  2
ENTITIES
  0
3DFACE
  5
2310
  8
SLEEVE
 10
1.3000000000000069
 20
-0.515000000000039
 30
0.8920061658979738
 11
1.3000000000000069
 21
-0.0000000000000526
 31
1.03
 12
-1.2999999999999921
 22
-0.0000000000000526
 32
1.03
 13
-1.2999999999999921
 23
-0.515000000000039
 33
0.8920061658979738
  0
3DFACE
  5
233C
  8
SLEEVE
 10
-0.2050609665440906
 20
1.489999999999956
 30
-0.2050609665440985
 11
0.0000000000000082
 21
1.489999999999956
 31
-0.29
 12
0.0000000000000081
 22
0.9522947341949404
 32
-0.29
 13
-0.2050609665440905
 23
0.9750540796153231
 33
-0.2050609665440985
  0
3DFACE
  5
233D
  8
SLEEVE
 10
0.0000000000000083
 20
1.489999999999956
 30
0.29
 11
-0.2050609665440905
 21
1.489999999999956
 31
0.2050609665440985
 12
-0.2050609665440905
 22
0.9750540796153231
 32
0.2050609665440985
 13
0.0000000000000081
 23
0.9522947341949404
 33
0.29
  0
3DFACE
  5
233E
  8
SLEEVE
 10
-0.2050609665440894
 20
0.9750540796153231
 30
-0.2050609665441003
 11
0.0000000000000054
 21
0.9522947341949404
 31
-0.29
 12
-0.8499999999999927
 22
0.9522947341949404
 32
-0.29
 13
-0.6449390334558954
 23
0.9750540796153231
 33
-0.2050609665441003
  0
3DFACE
  5
233F
  8
SLEEVE
 10
0.8500000000000081
 20
0.9522947341949404
 30
-0.29
 11
1.300000000000008
 21
0.8920061658979293
 31
-0.5149999999999997
 12
-1.2999999999999921
 22
0.8920061658979293
 32
-0.5149999999999997
 13
-0.8499999999999918
 23
0.9522947341949404
 33
-0.29
  0
3DFACE
  5
2340
  8
SLEEVE
 10
-1.2999999999999921
 20
0.8920061658979293
 30
0.5149999999999997
 11
1.300000000000008
 21
0.8920061658979293
 31
0.5149999999999997
 12
0.8500000000000083
 22
0.9522947341949404
 32
0.29
 13
-0.8499999999999914
 23
0.9522947341949404
 33
0.29
  0
3DFACE
  5
2341
  8
SLEEVE
 10
-0.8499999999999917
 20
0.9522947341949404
 30
0.29
 11
0.0000000000000081
 21
0.9522947341949404
 31
0.29
 12
-0.2050609665440905
 22
0.9750540796153231
 32
0.2050609665440985
 13
-0.6449390334558927
 23
0.9750540796153231
 33
0.2050609665440985
  0
3DFACE
  5
2342
  8
SLEEVE
 10
1.300000000000008
 20
0.5149999999999338
 30
-0.8920061658979721
 11
1.3000000000000069
 21
-0.0000000000000526
 31
-1.03
 12
-1.2999999999999921
 22
-0.0000000000000526
 32
-1.03
 13
-1.2999999999999921
 23
0.5149999999999338
 33
-0.8920061658979721
  0
3DFACE
  5
2343
  8
SLEEVE
 10
1.300000000000008
 20
0.8920061658979293
 30
-0.5149999999999997
 11
1.300000000000008
 21
0.5149999999999338
 31
-0.8920061658979721
 12
-1.2999999999999921
 22
0.5149999999999338
 32
-0.8920061658979721
 13
-1.2999999999999921
 23
0.8920061658979293
 33
-0.5149999999999997
  0
3DFACE
  5
2344
  8
SLEEVE
 10
1.300000000000008
 20
0.5149999999999338
 30
0.8920061658979738
 11
1.300000000000008
 21
0.8920061658979293
 31
0.5149999999999997
 12
-1.2999999999999921
 22
0.8920061658979293
 32
0.5149999999999997
 13
-1.2999999999999921
 23
0.5149999999999338
 33
0.8920061658979738
  0
3DFACE
  5
2345
  8
SLEEVE
 10
1.3000000000000069
 20
-0.0000000000000526
 30
1.03
 11
1.300000000000008
 21
0.5149999999999338
 31
0.8920061658979738
 12
-1.2999999999999921
 22
0.5149999999999338
 32
0.8920061658979738
 13
-1.2999999999999921
 23
-0.0000000000000526
 33
1.03
  0
3DFACE
  5
235A
  8
SLEEVE
 10
-0.6449390334558931
 20
1.489999999999956
 30
-0.2050609665440985
 11
-0.5599999999999918
 21
1.489999999999956
 31
-0.0000000000000009
 12
-0.5599999999999917
 22
1.0299999999999481
 32
0.0000000000000009
 13
-0.6449390334558927
 23
0.9750540796153231
 33
-0.2050609665440985
  0
3DFACE
  5
235B
  8
SLEEVE
 10
-0.8499999999999918
 20
1.489999999999956
 30
-0.29
 11
-0.6449390334558931
 21
1.489999999999956
 31
-0.2050609665440985
 12
-0.6449390334558927
 22
0.9750540796153231
 32
-0.2050609665440985
 13
-0.8499999999999918
 23
0.9522947341949404
 33
-0.29
  0
3DFACE
  5
235C
  8
SLEEVE
 10
-1.05506096654409
 20
1.489999999999956
 30
-0.2050609665440985
 11
-0.8499999999999918
 21
1.489999999999956
 31
-0.29
 12
-0.8499999999999918
 22
0.9522947341949404
 32
-0.29
 13
-1.05506096654409
 23
0.9750540796153231
 33
-0.2050609665440985
  0
3DFACE
  5
235D
  8
SLEEVE
 10
-1.139999999999991
 20
1.489999999999956
 30
-0.0000000000000009
 11
-1.05506096654409
 21
1.489999999999956
 31
-0.2050609665440985
 12
-1.05506096654409
 22
0.9750540796153231
 32
-0.2050609665440985
 13
-1.1399999999999919
 23
1.0299999999999481
 33
0.0000000000000009
  0
3DFACE
  5
235E
  8
SLEEVE
 10
-1.05506096654409
 20
1.489999999999956
 30
0.2050609665440985
 11
-1.139999999999991
 21
1.489999999999956
 31
-0.0000000000000009
 12
-1.1399999999999919
 22
1.0299999999999481
 32
0.0000000000000009
 13
-1.05506096654409
 23
0.9750540796153231
 33
0.2050609665440985
  0
3DFACE
  5
235F
  8
SLEEVE
 10
-0.8499999999999918
 20
1.489999999999956
 30
0.29
 11
-1.05506096654409
 21
1.489999999999956
 31
0.2050609665440985
 12
-1.05506096654409
 22
0.9750540796153231
 32
0.2050609665440985
 13
-0.8499999999999918
 23
0.9522947341949404
 33
0.29
  0
3DFACE
  5
2360
  8
SLEEVE
 10
-0.644939033455893
 20
1.489999999999956
 30
0.2050609665440985
 11
-0.8499999999999918
 21
1.489999999999956
 31
0.29
 12
-0.8499999999999918
 22
0.9522947341949404
 32
0.29
 13
-0.6449390334558927
 23
0.9750540796153231
 33
0.2050609665440985
  0
3DFACE
  5
2361
  8
SLEEVE
 10
-0.5599999999999918
 20
1.489999999999956
 30
-0.0000000000000009
 11
-0.644939033455893
 21
1.489999999999956
 31
0.2050609665440985
 12
-0.6449390334558927
 22
0.9750540796153231
 32
0.2050609665440985
 13
-0.5599999999999917
 23
1.0299999999999481
 33
0.0000000000000009
  0
3DFACE
  5
2362
  8
SLEEVE
 10
-0.2899999999999918
 20
1.489999999999956
 30
-0.0000000000000009
 11
-0.2050609665440906
 21
1.489999999999956
 31
-0.2050609665440985
 12
-0.2050609665440905
 22
0.9750540796153231
 32
-0.2050609665440985
 13
-0.289999999999992
 23
1.0299999999999481
 33
0.0000000000000009
  0
3DFACE
  5
2363
  8
SLEEVE
 10
-0.2050609665440905
 20
1.489999999999956
 30
0.2050609665440985
 11
-0.2899999999999918
 21
1.489999999999956
 31
-0.0000000000000009
 12
-0.289999999999992
 22
1.0299999999999481
 32
0.0000000000000009
 13
-0.2050609665440905
 23
0.9750540796153231
 33
0.2050609665440985
  0
3DFACE
  5
2364
  8
SLEEVE
 10
-1.2999999999999929
 20
1.0299999999999481
 30
0.0000000000000027
 11
-1.139999999999991
 21
1.0299999999999481
 31
0.0000000000000027
 12
-1.0550609665440931
 22
0.9750540796153231
 32
-0.2050609665440985
 13
-1.2999999999999921
 23
0.8920061658979293
 33
-0.5149999999999997
  0
3DFACE
  5
2365
  8
SLEEVE
 10
-0.8499999999999918
 20
0.9522947341949404
 30
-0.29
 11
-1.2999999999999921
 21
0.8920061658979293
 31
-0.5149999999999997
 12
-1.2999999999999921
 22
0.8920061658979293
 32
-0.5149999999999997
 13
-1.0550609665440951
 23
0.9750540796153231
 33
-0.2050609665441003
  0
3DFACE
  5
2366
  8
SLEEVE
 10
-0.2899999999999909
 20
1.0299999999999481
 30
-0.0000000000000009
 11
-0.2050609665440914
 21
0.9750540796153231
 31
-0.2050609665440985
 12
-0.6449390334558954
 22
0.9750540796153231
 32
-0.2050609665441003
 13
-0.5599999999999922
 23
1.0299999999999481
 33
-0.0000000000000009
  0
3DFACE
  5
2367
  8
SLEEVE
 10
-0.6449390334558927
 20
0.9750540796153231
 30
0.2050609665440985
 11
-0.2050609665440905
 21
0.9750540796153231
 31
0.2050609665440985
 12
-0.289999999999992
 22
1.0299999999999481
 32
0.0000000000000009
 13
-0.5599999999999917
 23
1.0299999999999481
 33
0.0000000000000009
  0
3DFACE
  5
2368
  8
SLEEVE
 10
-1.2999999999999921
 20
0.8920061658979293
 30
0.5149999999999997
 11
-0.8499999999999918
 21
0.9522947341949404
 31
0.29
 12
-1.05506096654409
 22
0.9750540796153231
 32
0.2050609665440985
 13
-1.2999999999999921
 23
0.8920061658979293
 33
0.5149999999999997
  0
3DFACE
  5
2369
  8
SLEEVE
 10
-1.2999999999999921
 20
0.8920061658979293
 30
0.5149999999999997
 11
-1.05506096654409
 21
0.9750540796153231
 31
0.2050609665440985
 12
-1.139999999999991
 22
1.0299999999999481
 32
0.0000000000000027
 13
-1.2999999999999929
 23
1.0299999999999481
 33
0.0000000000000027
  0
3DFACE
  5
2384
  8
SLEEVE
 10
1.055060966544106
 20
1.489999999999956
 30
-0.2050609665440985
 11
1.1400000000000079
 21
1.489999999999956
 31
-0.0000000000000009
 12
1.1400000000000079
 22
1.0299999999999481
 32
0.0000000000000009
 13
1.0550609665441071
 23
0.9750540796153231
 33
-0.2050609665440985
  0
3DFACE
  5
2385
  8
SLEEVE
 10
0.8500000000000081
 20
1.489999999999956
 30
-0.29
 11
1.055060966544106
 21
1.489999999999956
 31
-0.2050609665440985
 12
1.0550609665441071
 22
0.9750540796153231
 32
-0.2050609665440985
 13
0.8500000000000081
 23
0.9522947341949404
 33
-0.29
  0
3DFACE
  5
2386
  8
SLEEVE
 10
0.6449390334559093
 20
1.489999999999956
 30
-0.2050609665440985
 11
0.8500000000000081
 21
1.489999999999956
 31
-0.29
 12
0.8500000000000081
 22
0.9522947341949404
 32
-0.29
 13
0.6449390334559096
 23
0.9750540796153231
 33
-0.2050609665440985
  0
3DFACE
  5
2387
  8
SLEEVE
 10
0.5600000000000084
 20
1.489999999999956
 30
-0.0000000000000009
 11
0.6449390334559093
 21
1.489999999999956
 31
-0.2050609665440985
 12
0.6449390334559096
 22
0.9750540796153231
 32
-0.2050609665440985
 13
0.5600000000000081
 23
1.0299999999999481
 33
0.0000000000000009
  0
3DFACE
  5
2388
  8
SLEEVE
 10
0.6449390334559096
 20
1.489999999999956
 30
0.2050609665440985
 11
0.5600000000000084
 21
1.489999999999956
 31
-0.0000000000000009
 12
0.5600000000000081
 22
1.0299999999999481
 32
0.0000000000000009
 13
0.6449390334559096
 23
0.9750540796153231
 33
0.2050609665440985
  0
3DFACE
  5
2389
  8
SLEEVE
 10
0.8500000000000081
 20
1.489999999999956
 30
0.29
 11
0.6449390334559096
 21
1.489999999999956
 31
0.2050609665440985
 12
0.6449390334559096
 22
0.9750540796153231
 32
0.2050609665440985
 13
0.8500000000000081
 23
0.9522947341949404
 33
0.29
  0
3DFACE
  5
238A
  8
SLEEVE
 10
1.055060966544106
 20
1.489999999999956
 30
0.2050609665440985
 11
0.8500000000000081
 21
1.489999999999956
 31
0.29
 12
0.8500000000000081
 22
0.9522947341949404
 32
0.29
 13
1.0550609665441071
 23
0.9750540796153231
 33
0.2050609665440985
  0
3DFACE
  5
238B
  8
SLEEVE
 10
1.1400000000000079
 20
1.489999999999956
 30
-0.0000000000000009
 11
1.055060966544106
 21
1.489999999999956
 31
0.2050609665440985
 12
1.0550609665441071
 22
0.9750540796153231
 32
0.2050609665440985
 13
1.1400000000000079
 23
1.0299999999999481
 33
0.0000000000000009
  0
3DFACE
  5
238C
  8
SLEEVE
 10
0.2050609665441069
 20
1.489999999999956
 30
-0.2050609665440985
 11
0.2900000000000082
 21
1.489999999999956
 31
-0.0000000000000009
 12
0.2900000000000081
 22
1.0299999999999481
 32
0.0000000000000009
 13
0.2050609665441073
 23
0.9750540796153231
 33
-0.2050609665440985
  0
3DFACE
  5
238D
  8
SLEEVE
 10
0.0000000000000082
 20
1.489999999999956
 30
-0.29
 11
0.2050609665441069
 21
1.489999999999956
 31
-0.2050609665440985
 12
0.2050609665441073
 22
0.9750540796153231
 32
-0.2050609665440985
 13
0.0000000000000081
 23
0.9522947341949404
 33
-0.29
  0
3DFACE
  5
238E
  8
SLEEVE
 10
0.205060966544107
 20
1.489999999999956
 30
0.2050609665440985
 11
0.0000000000000083
 21
1.489999999999956
 31
0.29
 12
0.0000000000000081
 22
0.9522947341949404
 32
0.29
 13
0.2050609665441073
 23
0.9750540796153231
 33
0.2050609665440985
  0
3DFACE
  5
238F
  8
SLEEVE
 10
0.2900000000000082
 20
1.489999999999956
 30
-0.0000000000000009
 11
0.205060966544107
 21
1.489999999999956
 31
0.2050609665440985
 12
0.2050609665441073
 22
0.9750540796153231
 32
0.2050609665440985
 13
0.2900000000000081
 23
1.0299999999999481
 33
0.0000000000000009
  0
3DFACE
  5
2390
  8
SLEEVE
 10
0.5600000000000101
 20
1.0299999999999481
 30
-0.0000000000000009
 11
0.6449390334559096
 21
0.9750540796153231
 31
-0.2050609665440985
 12
0.2050609665441052
 22
0.9750540796153231
 32
-0.2050609665441003
 13
0.2900000000000085
 23
1.0299999999999481
 33
-0.0000000000000009
  0
3DFACE
  5
2391
  8
SLEEVE
 10
0.6449390334559114
 20
0.9750540796153231
 30
-0.2050609665441003
 11
0.8500000000000063
 21
0.9522947341949404
 31
-0.29
 12
0.0000000000000079
 22
0.9522947341949404
 32
-0.29
 13
0.2050609665441053
 23
0.9750540796153231
 33
-0.2050609665441003
  0
3DFACE
  5
2392
  8
SLEEVE
 10
1.140000000000007
 20
1.0299999999999481
 30
0.0000000000000009
 11
1.300000000000008
 21
1.0299999999999481
 31
0.0000000000000009
 12
1.3000000000000069
 22
0.8920061658979293
 32
-0.5149999999999997
 13
1.0550609665441071
 23
0.9750540796153231
 33
-0.2050609665440985
  0
3DFACE
  5
2393
  8
SLEEVE
 10
1.0550609665441071
 20
0.9750540796153231
 30
-0.2050609665440985
 11
1.0550609665441071
 21
0.9750540796153231
 31
-0.2050609665440985
 12
1.300000000000008
 22
0.8920061658979293
 32
-0.5149999999999997
 13
0.8500000000000079
 23
0.9522947341949404
 33
-0.29
  0
3DFACE
  5
2394
  8
SLEEVE
 10
0.2050609665441073
 20
0.9750540796153231
 30
0.2050609665440985
 11
0.6449390334559098
 21
0.9750540796153231
 31
0.2050609665440985
 12
0.5600000000000082
 22
1.0299999999999481
 32
0.0000000000000009
 13
0.2900000000000081
 23
1.0299999999999481
 33
0.0000000000000009
  0
3DFACE
  5
2395
  8
SLEEVE
 10
0.8500000000000081
 20
0.9522947341949404
 30
0.29
 11
1.3000000000000069
 21
0.8920061658979293
 31
0.5149999999999997
 12
1.3000000000000069
 22
0.8920061658979293
 32
0.5149999999999997
 13
1.0550609665441071
 23
0.9750540796153231
 33
0.2050609665440985
  0
3DFACE
  5
2396
  8
SLEEVE
 10
1.0550609665441071
 20
0.9750540796153231
 30
0.2050609665440985
 11
1.300000000000008
 21
0.8920061658979293
 31
0.5149999999999997
 12
1.300000000000008
 22
1.0299999999999481
 32
0.0000000000000009
 13
1.140000000000007
 23
1.0299999999999481
 33
0.0000000000000009
  0
3DFACE
  5
2397
  8
SLEEVE
 10
0.0000000000000082
 20
0.9522947341949404
 30
0.29
 11
0.8500000000000081
 21
0.9522947341949404
 31
0.29
 12
0.6449390334559098
 22
0.9750540796153231
 32
0.2050609665440985
 13
0.2050609665441073
 23
0.9750540796153231
 33
0.2050609665440985
  0
VIEWPORT
  5
2E
 67
     1
  8
0
 10
144.7270812988281
 20
101.2295806407928
 30
0.0
 40
391.13550988316581
 41
222.15178063964839
 68
     2
 69
     1
1001
ACAD
1000
MVIEW
1002
{
1070
    16
1010
0.0
1020
0.0
1030
0.0
1010
0.0
1020
0.0
1030
1.0
1040
0.0
1040
222.15178063964839
1040
144.7270812988281
1040
101.2295806407928
1040
50.0
1040
0.0
1040
0.0
1070
     0
1070
   100
1070
     1
1070
     1
1070
     0
1070
     0
1070
     0
1070
     0
1040
0.0
1040
0.0
1040
0.0
1040
10.0
1040
10.0
1040
10.0
1040
10.0
1070
     0
1002
{
1002
}
1002
}
  0
VIEWPORT
  5
30
 67
     1
  8
0
 10
139.22375631332389
 20
100.8062499761581
 30
0.0
 40
222.75801010131829
 41
161.289999961853
 68
     1
 69
     2
1001
ACAD
1000
MVIEW
1002
{
1070
    16
1010
0.0
1020
0.0
1030
0.0
1010
0.0
1020
0.0
1030
1.0
1040
0.0
1040
307.49010134148989
1040
210.0
1040
148.5
1040
50.0
1040
0.0
1040
0.0
1070
     0
1070
   100
1070
     1
1070
     3
1070
     0
1070
     1
1070
     0
1070
     0
1040
0.0
1040
0.0
1040
0.0
1040
10.0
1040
10.0
1040
10.0
1040
10.0
1070
     0
1002
{
1002
}
1002
}
  0
ENDSEC
  0
EOF
