  0
SECTION
  2
HEADER
  9
$ACADVER
  1
AC1009
  9
$INSBASE
 10
0.0
 20
0.0
 30
0.0
  9
$EXTMIN
 10
-1.02
 20
-3.242949988878483
 30
-11.884277999999989
  9
$EXTMAX
 10
1.02
 20
10.749999999999989
 30
19.0561670292585
  9
$LIMMIN
 10
0.0
 20
0.0
  9
$LIMMAX
 10
420.0
 20
297.0
  9
$ORTHOMODE
 70
     1
  9
$REGENMODE
 70
     1
  9
$FILLMODE
 70
     1
  9
$QTEXTMODE
 70
     0
  9
$MIRRTEXT
 70
     1
  9
$DRAGMODE
 70
     2
  9
$LTSCALE
 40
1.0
  9
$OSMODE
 70
    35
  9
$ATTMODE
 70
     1
  9
$TEXTSIZE
 40
2.5
  9
$TRACEWID
 40
1.0
  9
$TEXTSTYLE
  7
STANDARD
  9
$CLAYER
  8
FRAME
  9
$CELTYPE
  6
BYLAYER
  9
$CECOLOR
 62
   256
  9
$DIMSCALE
 40
1.0
  9
$DIMASZ
 40
2.5
  9
$DIMEXO
 40
0.625
  9
$DIMDLI
 40
3.75
  9
$DIMRND
 40
0.0
  9
$DIMDLE
 40
0.0
  9
$DIMEXE
 40
1.25
  9
$DIMTP
 40
0.0
  9
$DIMTM
 40
0.0
  9
$DIMTXT
 40
2.5
  9
$DIMCEN
 40
2.5
  9
$DIMTSZ
 40
0.0
  9
$DIMTOL
 70
     0
  9
$DIMLIM
 70
     0
  9
$DIMTIH
 70
     0
  9
$DIMTOH
 70
     0
  9
$DIMSE1
 70
     0
  9
$DIMSE2
 70
     0
  9
$DIMTAD
 70
     1
  9
$DIMZIN
 70
     8
  9
$DIMBLK
  1

  9
$DIMASO
 70
     1
  9
$DIMSHO
 70
     1
  9
$DIMPOST
  1

  9
$DIMAPOST
  1

  9
$DIMALT
 70
     0
  9
$DIMALTD
 70
     3
  9
$DIMALTF
 40
0.03937007874016
  9
$DIMLFAC
 40
1.0
  9
$DIMTOFL
 70
     1
  9
$DIMTVP
 40
0.0
  9
$DIMTIX
 70
     0
  9
$DIMSOXD
 70
     0
  9
$DIMSAH
 70
     0
  9
$DIMBLK1
  1

  9
$DIMBLK2
  1

  9
$DIMSTYLE
  2
ISO-25
  9
$DIMCLRD
 70
     0
  9
$DIMCLRE
 70
     0
  9
$DIMCLRT
 70
     0
  9
$DIMTFAC
 40
1.0
  9
$DIMGAP
 40
0.625
  9
$LUNITS
 70
     2
  9
$LUPREC
 70
     4
  9
$SKETCHINC
 40
1.0
  9
$FILLETRAD
 40
10.0
  9
$AUNITS
 70
     0
  9
$AUPREC
 70
     0
  9
$MENU
  1
.
  9
$ELEVATION
 40
0.0
  9
$PELEVATION
 40
0.0
  9
$THICKNESS
 40
0.0
  9
$LIMCHECK
 70
     0
  9
$BLIPMODE
 70
     0
  9
$CHAMFERA
 40
10.0
  9
$CHAMFERB
 40
10.0
  9
$SKPOLY
 70
     0
  9
$TDCREATE
 40
2457328.915226134
  9
$TDUPDATE
 40
2457340.027452419
  9
$TDINDWG
 40
1.0324755556
  9
$TDUSRTIMER
 40
1.0324755556
  9
$USRTIMER
 70
     1
  9
$ANGBASE
 50
0.0
  9
$ANGDIR
 70
     0
  9
$PDMODE
 70
     0
  9
$PDSIZE
 40
0.0
  9
$PLINEWID
 40
0.0
  9
$COORDS
 70
     1
  9
$SPLFRAME
 70
     0
  9
$SPLINETYPE
 70
     6
  9
$SPLINESEGS
 70
     8
  9
$ATTDIA
 70
     1
  9
$ATTREQ
 70
     1
  9
$HANDLING
 70
-16383
  9
$HANDSEED
  5
1146
  9
$SURFTAB1
 70
     6
  9
$SURFTAB2
 70
     6
  9
$SURFTYPE
 70
     6
  9
$SURFU
 70
     6
  9
$SURFV
 70
     6
  9
$UCSNAME
  2

  9
$UCSORG
 10
0.0
 20
0.0
 30
0.0
  9
$UCSXDIR
 10
0.0
 20
-1.0
 30
0.0
  9
$UCSYDIR
 10
0.0
 20
0.0
 30
1.0
  9
$PUCSNAME
  2

  9
$PUCSORG
 10
0.0
 20
0.0
 30
0.0
  9
$PUCSXDIR
 10
1.0
 20
0.0
 30
0.0
  9
$PUCSYDIR
 10
0.0
 20
1.0
 30
0.0
  9
$USERI1
 70
     0
  9
$USERI2
 70
     0
  9
$USERI3
 70
     0
  9
$USERI4
 70
     0
  9
$USERI5
 70
     0
  9
$USERR1
 40
0.0
  9
$USERR2
 40
0.0
  9
$USERR3
 40
0.0
  9
$USERR4
 40
0.0
  9
$USERR5
 40
0.0
  9
$WORLDVIEW
 70
     1
  9
$SHADEDGE
 70
     3
  9
$SHADEDIF
 70
    70
  9
$TILEMODE
 70
     1
  9
$MAXACTVP
 70
    64
  9
$PLIMCHECK
 70
     0
  9
$PEXTMIN
 10
27.844751262664801
 20
20.161249995231621
 30
0.0
  9
$PEXTMAX
 10
250.60276136398309
 20
181.4512499570846
 30
0.0
  9
$PLIMMIN
 10
-3.757080078125
 20
-3.7570831775665279
  9
$PLIMMAX
 10
293.21124267578119
 20
206.21624445915219
  9
$UNITMODE
 70
     0
  9
$VISRETAIN
 70
     1
  9
$PLINEGEN
 70
     0
  9
$PSLTSCALE
 70
     1
  0
ENDSEC
  0
SECTION
  2
TABLES
  0
TABLE
  2
VPORT
 70
     2
  0
VPORT
  2
*ACTIVE
 70
     0
 10
0.0
 20
0.0
 11
1.0
 21
1.0
 12
15.47468238900894
 22
-7.3597516772031213
 13
0.0
 23
0.0
 14
0.01
 24
0.01
 15
1.0
 25
1.0
 16
-1.0
 26
0.0
 36
0.0
 17
0.0
 27
0.0
 37
0.0
 40
61.061425238333619
 41
2.2487980769230771
 42
50.0
 43
0.0
 44
0.0
 50
0.0
 51
0.0
 71
     0
 72
   100
 73
     1
 74
     3
 75
     1
 76
     1
 77
     0
 78
     0
  0
ENDTAB
  0
TABLE
  2
LTYPE
 70
     1
  0
LTYPE
  2
CONTINUOUS
 70
     0
  3
Solid line
 72
    65
 73
     0
 40
0.0
  0
ENDTAB
  0
TABLE
  2
LAYER
 70
     7
  0
LAYER
  2
0
 70
     0
 62
     7
  6
CONTINUOUS
  0
LAYER
  2
REFERENCE
 70
     0
 62
     9
  6
CONTINUOUS
  0
LAYER
  2
TMP
 70
     0
 62
     4
  6
CONTINUOUS
  0
LAYER
  2
FRAME
 70
     0
 62
     5
  6
CONTINUOUS
  0
LAYER
  2
WHEELS
 70
     0
 62
     2
  6
CONTINUOUS
  0
LAYER
  2
INSIDES
 70
     0
 62
     1
  6
CONTINUOUS
  0
LAYER
  2
CARGO_BOX
 70
     0
 62
     3
  6
CONTINUOUS
  0
ENDTAB
  0
TABLE
  2
STYLE
 70
     1
  0
STYLE
  2
STANDARD
 70
     0
 40
0.0
 41
1.0
 50
0.0
 71
     0
 42
2.5
  3
txt
  4

  0
ENDTAB
  0
TABLE
  2
VIEW
 70
     0
  0
ENDTAB
  0
TABLE
  2
UCS
 70
     0
  0
ENDTAB
  0
TABLE
  2
APPID
 70
     1
  0
APPID
  2
ACAD
 70
     0
  0
ENDTAB
  0
TABLE
  2
DIMSTYLE
 70
     1
  0
DIMSTYLE
  2
ISO-25
 70
     0
  3

  4

  5

  6

  7

 40
1.0
 41
2.5
 42
0.625
 43
3.75
 44
1.25
 45
0.0
 46
0.0
 47
0.0
 48
0.0
140
2.5
141
2.5
142
0.0
143
0.03937007874016
144
1.0
145
0.0
146
1.0
147
0.625
 71
     0
 72
     0
 73
     0
 74
     0
 75
     0
 76
     0
 77
     1
 78
     8
170
     0
171
     3
172
     1
173
     0
174
     0
175
     0
176
     0
177
     0
178
     0
  0
ENDTAB
  0
ENDSEC
  0
SECTION
  2
BLOCKS
  0
BLOCK
  8
0
  2
$MODEL_SPACE
 70
     0
 10
0.0
 20
0.0
 30
0.0
  3
$MODEL_SPACE
  1

  0
ENDBLK
  5
21
  8
0
  0
BLOCK
 67
     1
  8
0
  2
$PAPER_SPACE
 70
     0
 10
0.0
 20
0.0
 30
0.0
  3
$PAPER_SPACE
  1

  0
ENDBLK
  5
1D
 67
     1
  8
0
  0
ENDSEC
  0
SECTION
  2
ENTITIES
  0
3DFACE
  5
94
  8
FRAME
 10
0.11
 20
-0.95
 30
0.4900000000000001
 11
0.11
 21
-2.669999999999999
 31
0.5600000000000001
 12
0.11
 22
-2.669999999999999
 32
0.6800000000000002
 13
0.11
 23
-0.36
 33
0.6800000000000002
  0
3DFACE
  5
95
  8
FRAME
 10
0.17
 20
-2.669999999999999
 30
0.6800000000000002
 11
0.17
 21
-2.669999999999999
 31
0.5600000000000001
 12
0.17
 22
-0.95
 32
0.4900000000000001
 13
0.17
 23
-0.36
 33
0.6800000000000002
  0
3DFACE
  5
96
  8
FRAME
 10
0.11
 20
-2.669999999999999
 30
0.6800000000000002
 11
0.11
 21
-2.669999999999999
 31
0.5600000000000001
 12
0.17
 22
-2.669999999999999
 32
0.5600000000000001
 13
0.17
 23
-2.669999999999999
 33
0.6800000000000002
  0
3DFACE
  5
98
  8
FRAME
 10
0.17
 20
-0.95
 30
0.4900000000000001
 11
0.17
 21
-2.669999999999999
 31
0.5600000000000001
 12
0.11
 22
-2.669999999999999
 32
0.5600000000000001
 13
0.11
 23
-0.95
 33
0.4900000000000001
  0
3DFACE
  5
99
  8
FRAME
 10
0.11
 20
-0.36
 30
0.6800000000000002
 11
0.11
 21
-2.669999999999999
 31
0.6800000000000002
 12
0.17
 22
-2.669999999999999
 32
0.6800000000000002
 13
0.17
 23
-0.36
 33
0.6800000000000002
  0
3DFACE
  5
A4
  8
FRAME
 10
0.17
 20
-0.9500000000000001
 30
0.6800000000000002
 11
0.17
 21
-0.9500000000000001
 31
0.4900000000000001
 12
0.17
 22
-0.36
 32
0.4900000000000001
 13
0.17
 23
-0.36
 33
0.6800000000000002
  0
3DFACE
  5
A6
  8
FRAME
 10
0.11
 20
-0.36
 30
0.4900000000000001
 11
0.11
 21
-0.9500000000000001
 31
0.4900000000000001
 12
0.11
 22
-0.9500000000000001
 32
0.6800000000000002
 13
0.11
 23
-0.36
 33
0.6800000000000002
  0
3DFACE
  5
A8
  8
FRAME
 10
0.17
 20
-0.36
 30
0.4900000000000001
 11
0.17
 21
-0.9500000000000001
 31
0.4900000000000001
 12
0.11
 22
-0.9500000000000001
 32
0.4900000000000001
 13
0.11
 23
-0.36
 33
0.4900000000000001
  0
3DFACE
  5
AC
  8
FRAME
 10
0.34
 20
1.0600000000000001
 30
0.6800000000000002
 11
0.11
 21
-0.3600000000000001
 31
0.6800000000000002
 12
0.17
 22
-0.3600000000000001
 32
0.6800000000000002
 13
0.4
 23
1.0600000000000001
 33
0.6800000000000002
  0
3DFACE
  5
AE
  8
FRAME
 10
0.17
 20
-0.3600000000000001
 30
0.6800000000000002
 11
0.17
 21
-0.3600000000000001
 31
0.4900000000000001
 12
0.4
 22
1.0600000000000001
 32
0.4900000000000001
 13
0.4
 23
1.0600000000000001
 33
0.6800000000000002
  0
3DFACE
  5
B0
  8
FRAME
 10
0.34
 20
1.0600000000000001
 30
0.4900000000000001
 11
0.11
 21
-0.3600000000000001
 31
0.4900000000000001
 12
0.11
 22
-0.3600000000000001
 32
0.6800000000000002
 13
0.34
 23
1.0600000000000001
 33
0.6800000000000002
  0
3DFACE
  5
B1
  8
FRAME
 10
0.4
 20
1.0600000000000001
 30
0.4900000000000001
 11
0.17
 21
-0.3600000000000001
 31
0.4900000000000001
 12
0.11
 22
-0.3600000000000001
 32
0.4900000000000001
 13
0.34
 23
1.0600000000000001
 33
0.4900000000000001
  0
3DFACE
  5
B5
  8
FRAME
 10
0.4
 20
1.27
 30
0.4900000000000001
 11
0.4
 21
1.0599999999999989
 31
0.4900000000000001
 12
0.34
 22
1.0599999999999989
 32
0.4900000000000001
 13
0.34
 23
1.27
 33
0.4900000000000001
  0
3DFACE
  5
B6
  8
FRAME
 10
0.34
 20
1.27
 30
0.4900000000000001
 11
0.34
 21
1.0599999999999989
 31
0.4900000000000001
 12
0.34
 22
1.0599999999999989
 32
0.6800000000000002
 13
0.34
 23
1.919999999999999
 33
0.6200000000000001
  0
3DFACE
  5
B7
  8
FRAME
 10
0.4
 20
1.0599999999999989
 30
0.6800000000000002
 11
0.4
 21
1.0599999999999989
 31
0.4900000000000001
 12
0.4
 22
1.27
 32
0.4900000000000001
 13
0.4
 23
1.919999999999999
 33
0.6200000000000001
  0
3DFACE
  5
B9
  8
FRAME
 10
0.4
 20
1.919999999999999
 30
0.6200000000000001
 11
0.4
 21
1.27
 31
0.4900000000000001
 12
0.34
 22
1.27
 32
0.4900000000000001
 13
0.34
 23
1.919999999999999
 33
0.6200000000000001
  0
3DFACE
  5
BD
  8
FRAME
 10
-0.11
 20
-0.9500000000000001
 30
0.6800000000000002
 11
-0.11
 21
-0.9500000000000001
 31
0.4900000000000001
 12
-0.11
 22
-0.36
 32
0.4900000000000001
 13
-0.11
 23
-0.36
 33
0.6800000000000002
  0
3DFACE
  5
C0
  8
FRAME
 10
-0.11
 20
-0.36
 30
0.4900000000000001
 11
-0.11
 21
-0.9500000000000001
 31
0.4900000000000001
 12
-0.17
 22
-0.9500000000000001
 32
0.4900000000000001
 13
-0.17
 23
-0.36
 33
0.4900000000000001
  0
3DFACE
  5
C1
  8
FRAME
 10
-0.11
 20
-2.669999999999999
 30
0.6800000000000002
 11
-0.11
 21
-2.669999999999999
 31
0.5600000000000001
 12
-0.11
 22
-0.95
 32
0.4900000000000001
 13
-0.11
 23
-0.36
 33
0.6800000000000002
  0
3DFACE
  5
C2
  8
FRAME
 10
-0.17
 20
-0.36
 30
0.6800000000000002
 11
-0.17
 21
-2.669999999999999
 31
0.6800000000000002
 12
-0.11
 22
-2.669999999999999
 32
0.6800000000000002
 13
-0.11
 23
-0.36
 33
0.6800000000000002
  0
3DFACE
  5
C4
  8
FRAME
 10
-0.11
 20
-0.95
 30
0.4900000000000001
 11
-0.11
 21
-2.669999999999999
 31
0.5600000000000001
 12
-0.17
 22
-2.669999999999999
 32
0.5600000000000001
 13
-0.17
 23
-0.95
 33
0.4900000000000001
  0
3DFACE
  5
C6
  8
FRAME
 10
-0.17
 20
-0.36
 30
0.4900000000000001
 11
-0.17
 21
-0.9500000000000001
 31
0.4900000000000001
 12
-0.17
 22
-0.9500000000000001
 32
0.6800000000000002
 13
-0.17
 23
-0.36
 33
0.6800000000000002
  0
3DFACE
  5
C7
  8
FRAME
 10
-0.17
 20
-2.669999999999999
 30
0.6800000000000002
 11
-0.17
 21
-2.669999999999999
 31
0.5600000000000001
 12
-0.11
 22
-2.669999999999999
 32
0.5600000000000001
 13
-0.11
 23
-2.669999999999999
 33
0.6800000000000002
  0
3DFACE
  5
C8
  8
FRAME
 10
-0.17
 20
-0.95
 30
0.4900000000000001
 11
-0.17
 21
-2.669999999999999
 31
0.5600000000000001
 12
-0.17
 22
-2.669999999999999
 32
0.6800000000000002
 13
-0.17
 23
-0.36
 33
0.6800000000000002
  0
3DFACE
  5
CB
  8
FRAME
 10
-0.3399999999999999
 20
1.0599999999999989
 30
0.6800000000000002
 11
-0.3399999999999999
 21
1.0599999999999989
 31
0.4900000000000001
 12
-0.3399999999999999
 22
1.27
 32
0.4900000000000001
 13
-0.3399999999999999
 23
1.919999999999999
 33
0.6200000000000001
  0
3DFACE
  5
CD
  8
FRAME
 10
-0.3399999999999999
 20
1.919999999999999
 30
0.6200000000000001
 11
-0.3399999999999999
 21
1.27
 31
0.4900000000000001
 12
-0.4
 22
1.27
 32
0.4900000000000001
 13
-0.4
 23
1.919999999999999
 33
0.6200000000000001
  0
3DFACE
  5
CE
  8
FRAME
 10
-0.4
 20
1.27
 30
0.4900000000000001
 11
-0.4
 21
1.0599999999999989
 31
0.4900000000000001
 12
-0.4
 22
1.0599999999999989
 32
0.6800000000000002
 13
-0.4
 23
1.919999999999999
 33
0.6200000000000001
  0
3DFACE
  5
CF
  8
FRAME
 10
-0.3399999999999999
 20
1.27
 30
0.4900000000000001
 11
-0.3399999999999999
 21
1.0599999999999989
 31
0.4900000000000001
 12
-0.4
 22
1.0599999999999989
 32
0.4900000000000001
 13
-0.4
 23
1.27
 33
0.4900000000000001
  0
3DFACE
  5
D2
  8
FRAME
 10
-0.4
 20
1.0600000000000001
 30
0.6800000000000002
 11
-0.17
 21
-0.3600000000000001
 31
0.6800000000000002
 12
-0.11
 22
-0.3600000000000001
 32
0.6800000000000002
 13
-0.34
 23
1.0600000000000001
 33
0.6800000000000002
  0
3DFACE
  5
D3
  8
FRAME
 10
-0.11
 20
-0.3600000000000001
 30
0.6800000000000002
 11
-0.11
 21
-0.3600000000000001
 31
0.4900000000000001
 12
-0.34
 22
1.0600000000000001
 32
0.4900000000000001
 13
-0.34
 23
1.0600000000000001
 33
0.6800000000000002
  0
3DFACE
  5
D4
  8
FRAME
 10
-0.34
 20
1.0600000000000001
 30
0.4900000000000001
 11
-0.11
 21
-0.3600000000000001
 31
0.4900000000000001
 12
-0.17
 22
-0.3600000000000001
 32
0.4900000000000001
 13
-0.4
 23
1.0600000000000001
 33
0.4900000000000001
  0
3DFACE
  5
D5
  8
FRAME
 10
-0.4
 20
1.0600000000000001
 30
0.4900000000000001
 11
-0.17
 21
-0.3600000000000001
 31
0.4900000000000001
 12
-0.17
 22
-0.3600000000000001
 32
0.6800000000000002
 13
-0.4
 23
1.0600000000000001
 33
0.6800000000000002
  0
3DFACE
  5
DC
  8
FRAME
 10
-0.1100000000000001
 20
-2.609999999999999
 30
0.5600000000000001
 11
0.11
 21
-2.609999999999999
 31
0.5600000000000001
 12
0.11
 22
-2.669999999999999
 32
0.5600000000000001
 13
-0.1100000000000001
 23
-2.669999999999999
 33
0.5600000000000001
  0
3DFACE
  5
DE
  8
FRAME
 10
0.11
 20
-2.609999999999999
 30
0.6800000000000002
 11
0.11
 21
-2.609999999999999
 31
0.5600000000000001
 12
-0.1100000000000001
 22
-2.609999999999999
 32
0.5600000000000001
 13
-0.1100000000000001
 23
-2.609999999999999
 33
0.6800000000000002
  0
3DFACE
  5
E0
  8
FRAME
 10
-0.1100000000000001
 20
-2.669999999999999
 30
0.5600000000000001
 11
0.11
 21
-2.669999999999999
 31
0.5600000000000001
 12
0.11
 22
-2.669999999999999
 32
0.6800000000000002
 13
-0.1100000000000001
 23
-2.669999999999999
 33
0.6800000000000002
  0
3DFACE
  5
E1
  8
FRAME
 10
-0.1100000000000001
 20
-2.669999999999999
 30
0.6800000000000002
 11
0.11
 21
-2.669999999999999
 31
0.6800000000000002
 12
0.11
 22
-2.609999999999999
 32
0.6800000000000002
 13
-0.1100000000000001
 23
-2.609999999999999
 33
0.6800000000000002
  0
3DFACE
  5
E6
  8
FRAME
 10
0.11
 20
-1.78
 30
0.6800000000000002
 11
0.11
 21
-1.78
 31
0.5600000000000001
 12
-0.1100000000000001
 22
-1.78
 32
0.5600000000000001
 13
-0.1100000000000001
 23
-1.78
 33
0.6800000000000002
  0
3DFACE
  5
E7
  8
FRAME
 10
-0.1100000000000001
 20
-1.8400000000000001
 30
0.5600000000000001
 11
0.11
 21
-1.8400000000000001
 31
0.5600000000000001
 12
0.11
 22
-1.8400000000000001
 32
0.6800000000000002
 13
-0.1100000000000001
 23
-1.8400000000000001
 33
0.6800000000000002
  0
3DFACE
  5
E8
  8
FRAME
 10
-0.1100000000000001
 20
-1.78
 30
0.5600000000000001
 11
0.11
 21
-1.78
 31
0.5600000000000001
 12
0.11
 22
-1.8400000000000001
 32
0.5600000000000001
 13
-0.1100000000000001
 23
-1.8400000000000001
 33
0.5600000000000001
  0
3DFACE
  5
E9
  8
FRAME
 10
-0.1100000000000001
 20
-1.8400000000000001
 30
0.6800000000000002
 11
0.11
 21
-1.8400000000000001
 31
0.6800000000000002
 12
0.11
 22
-1.78
 32
0.6800000000000002
 13
-0.1100000000000001
 23
-1.78
 33
0.6800000000000002
  0
3DFACE
  5
EB
  8
FRAME
 10
-0.1100000000000001
 20
-0.9700000000000001
 30
0.5600000000000001
 11
0.11
 21
-0.9700000000000001
 31
0.5600000000000001
 12
0.11
 22
-0.9700000000000001
 32
0.6800000000000002
 13
-0.1100000000000001
 23
-0.9700000000000001
 33
0.6800000000000002
  0
3DFACE
  5
ED
  8
FRAME
 10
0.11
 20
-0.72
 30
0.6800000000000002
 11
0.11
 21
-0.72
 31
0.5600000000000001
 12
-0.1100000000000001
 22
-0.72
 32
0.5600000000000001
 13
-0.1100000000000001
 23
-0.72
 33
0.6800000000000002
  0
3DFACE
  5
EF
  8
FRAME
 10
-0.1100000000000001
 20
-0.9099999999999999
 30
0.5600000000000001
 11
0.11
 21
-0.9099999999999999
 31
0.5600000000000001
 12
0.11
 22
-0.9700000000000001
 32
0.5600000000000001
 13
-0.1100000000000001
 23
-0.9700000000000001
 33
0.5600000000000001
  0
3DFACE
  5
F0
  8
FRAME
 10
-0.1100000000000001
 20
-0.9700000000000001
 30
0.6800000000000002
 11
0.11
 21
-0.9700000000000001
 31
0.6800000000000002
 12
0.11
 22
-0.9099999999999999
 32
0.6800000000000002
 13
-0.1100000000000001
 23
-0.9099999999999999
 33
0.6800000000000002
  0
3DFACE
  5
F8
  8
FRAME
 10
0.59
 20
-0.7900000000000002
 30
0.48
 11
0.59
 21
-1.25
 31
0.48
 12
0.59
 22
-1.28
 32
0.55
 13
0.59
 23
-1.0
 33
0.63
  0
3DFACE
  5
F9
  8
FRAME
 10
0.6400000000000001
 20
-1.28
 30
0.55
 11
0.6400000000000001
 21
-1.25
 31
0.48
 12
0.6400000000000001
 22
-0.7900000000000002
 32
0.48
 13
0.6400000000000001
 23
-1.0
 33
0.63
  0
3DFACE
  5
FA
  8
FRAME
 10
0.59
 20
-1.28
 30
0.55
 11
0.59
 21
-1.25
 31
0.48
 12
0.6400000000000001
 22
-1.25
 32
0.48
 13
0.6400000000000001
 23
-1.28
 33
0.55
  0
3DFACE
  5
FC
  8
FRAME
 10
0.6400000000000001
 20
-0.7900000000000002
 30
0.48
 11
0.6400000000000001
 21
-1.25
 31
0.48
 12
0.59
 22
-1.25
 32
0.48
 13
0.59
 23
-0.7900000000000002
 33
0.48
  0
3DFACE
  5
FD
  8
FRAME
 10
0.59
 20
-1.0
 30
0.63
 11
0.59
 21
-1.28
 31
0.55
 12
0.6400000000000001
 22
-1.28
 32
0.55
 13
0.6400000000000001
 23
-1.0
 33
0.63
  0
3DFACE
  5
105
  8
FRAME
 10
0.6400000000000001
 20
-1.0
 30
0.63
 11
0.6400000000000001
 21
-0.7900000000000002
 31
0.48
 12
0.6400000000000001
 22
-0.7900000000000002
 32
0.7800000000000001
 13
0.6400000000000001
 23
-0.9699999999999999
 33
0.9
  0
3DFACE
  5
107
  8
FRAME
 10
0.6400000000000001
 20
-0.9699999999999999
 30
0.9
 11
0.6400000000000001
 21
-0.7900000000000002
 31
0.7800000000000001
 12
0.59
 22
-0.7900000000000002
 32
0.7800000000000001
 13
0.59
 23
-0.9699999999999999
 33
0.9
  0
3DFACE
  5
108
  8
FRAME
 10
0.59
 20
-0.7900000000000002
 30
0.7800000000000001
 11
0.59
 21
-0.7900000000000002
 31
0.48
 12
0.59
 22
-1.0
 32
0.63
 13
0.59
 23
-0.9699999999999999
 33
0.9
  0
3DFACE
  5
109
  8
FRAME
 10
0.6400000000000001
 20
-0.7900000000000002
 30
0.7800000000000001
 11
0.6400000000000001
 21
-0.7900000000000002
 31
0.48
 12
0.59
 22
-0.7900000000000002
 32
0.48
 13
0.59
 23
-0.7900000000000002
 33
0.7800000000000001
  0
3DFACE
  5
10C
  8
FRAME
 10
0.6400000000000001
 20
-1.28
 30
0.63
 11
0.6400000000000001
 21
-1.0
 31
0.63
 12
0.6400000000000001
 22
-1.0900000000000001
 32
0.7900000000000002
 13
0.6400000000000001
 23
-1.28
 33
0.7000000000000001
  0
3DFACE
  5
10D
  8
FRAME
 10
0.59
 20
-1.0900000000000001
 30
0.7900000000000002
 11
0.59
 21
-1.0
 31
0.63
 12
0.59
 22
-1.28
 32
0.63
 13
0.59
 23
-1.28
 33
0.7000000000000001
  0
3DFACE
  5
10E
  8
FRAME
 10
0.59
 20
-1.28
 30
0.7000000000000001
 11
0.59
 21
-1.28
 31
0.63
 12
0.6400000000000001
 22
-1.28
 32
0.63
 13
0.6400000000000001
 23
-1.28
 33
0.7000000000000001
  0
3DFACE
  5
10F
  8
FRAME
 10
0.59
 20
-1.28
 30
0.63
 11
0.59
 21
-1.0
 31
0.63
 12
0.6400000000000001
 22
-1.0
 32
0.63
 13
0.6400000000000001
 23
-1.28
 33
0.63
  0
3DFACE
  5
110
  8
FRAME
 10
0.6400000000000001
 20
-1.28
 30
0.7000000000000001
 11
0.6400000000000001
 21
-1.0900000000000001
 31
0.7900000000000002
 12
0.59
 22
-1.0900000000000001
 32
0.7900000000000002
 13
0.59
 23
-1.28
 33
0.7000000000000001
  0
3DFACE
  5
115
  8
FRAME
 10
0.6400000000000001
 20
-1.0
 30
0.63
 11
0.6400000000000001
 21
-0.9699999999999999
 31
0.9
 12
0.6400000000000001
 22
-1.0900000000000001
 32
0.9
 13
0.6400000000000001
 23
-1.0900000000000001
 33
0.7900000000000002
  0
3DFACE
  5
116
  8
FRAME
 10
0.6400000000000001
 20
-1.0900000000000001
 30
0.9
 11
0.6400000000000001
 21
-0.9699999999999999
 31
0.9
 12
0.59
 22
-0.9699999999999999
 32
0.9
 13
0.59
 23
-1.0900000000000001
 33
0.9
  0
3DFACE
  5
117
  8
FRAME
 10
0.59
 20
-1.0900000000000001
 30
0.9
 11
0.59
 21
-0.9699999999999999
 31
0.9
 12
0.59
 22
-1.0
 32
0.63
 13
0.59
 23
-1.0900000000000001
 33
0.7900000000000002
  0
3DFACE
  5
119
  8
FRAME
 10
0.6400000000000001
 20
-1.0900000000000001
 30
0.7900000000000002
 11
0.6400000000000001
 21
-1.0900000000000001
 31
0.9
 12
0.59
 22
-1.0900000000000001
 32
0.9
 13
0.59
 23
-1.0900000000000001
 33
0.7900000000000002
  0
3DFACE
  5
12F
  8
FRAME
 10
0.5900000000000001
 20
-1.6000000000000001
 30
0.63
 11
0.5900000000000001
 21
-1.629999999999999
 31
0.9
 12
0.5900000000000001
 22
-1.5099999999999989
 32
0.9
 13
0.5900000000000001
 23
-1.5099999999999989
 33
0.7900000000000002
  0
3DFACE
  5
130
  8
FRAME
 10
0.6400000000000002
 20
-1.5099999999999989
 30
0.9
 11
0.6400000000000002
 21
-1.629999999999999
 31
0.9
 12
0.6400000000000002
 22
-1.6000000000000001
 32
0.63
 13
0.6400000000000002
 23
-1.5099999999999989
 33
0.7900000000000002
  0
3DFACE
  5
131
  8
FRAME
 10
0.5900000000000001
 20
-1.5099999999999989
 30
0.7900000000000002
 11
0.5900000000000001
 21
-1.5099999999999989
 31
0.9
 12
0.6400000000000002
 22
-1.5099999999999989
 32
0.9
 13
0.6400000000000002
 23
-1.5099999999999989
 33
0.7900000000000002
  0
3DFACE
  5
132
  8
FRAME
 10
0.5900000000000001
 20
-1.6000000000000001
 30
0.63
 11
0.5900000000000001
 21
-1.8100000000000001
 31
0.48
 12
0.5900000000000001
 22
-1.8100000000000001
 32
0.7800000000000001
 13
0.5900000000000001
 23
-1.629999999999999
 33
0.9
  0
3DFACE
  5
133
  8
FRAME
 10
0.5900000000000001
 20
-1.629999999999999
 30
0.9
 11
0.5900000000000001
 21
-1.8100000000000001
 31
0.7800000000000001
 12
0.6400000000000002
 22
-1.8100000000000001
 32
0.7800000000000001
 13
0.6400000000000002
 23
-1.629999999999999
 33
0.9
  0
3DFACE
  5
134
  8
FRAME
 10
0.6400000000000002
 20
-1.8100000000000001
 30
0.7800000000000001
 11
0.6400000000000002
 21
-1.8100000000000001
 31
0.48
 12
0.6400000000000002
 22
-1.6000000000000001
 32
0.63
 13
0.6400000000000002
 23
-1.629999999999999
 33
0.9
  0
3DFACE
  5
135
  8
FRAME
 10
0.5900000000000001
 20
-1.3200000000000001
 30
0.63
 11
0.5900000000000001
 21
-1.6000000000000001
 31
0.63
 12
0.5900000000000001
 22
-1.5099999999999989
 32
0.7900000000000002
 13
0.5900000000000001
 23
-1.3200000000000001
 33
0.7000000000000001
  0
3DFACE
  5
136
  8
FRAME
 10
0.5900000000000001
 20
-1.3200000000000001
 30
0.7000000000000001
 11
0.5900000000000001
 21
-1.5099999999999989
 31
0.7900000000000002
 12
0.6400000000000002
 22
-1.5099999999999989
 32
0.7900000000000002
 13
0.6400000000000002
 23
-1.3200000000000001
 33
0.7000000000000001
  0
3DFACE
  5
137
  8
FRAME
 10
0.6400000000000002
 20
-1.5099999999999989
 30
0.7900000000000002
 11
0.6400000000000002
 21
-1.6000000000000001
 31
0.63
 12
0.6400000000000002
 22
-1.3200000000000001
 32
0.63
 13
0.6400000000000002
 23
-1.3200000000000001
 33
0.7000000000000001
  0
3DFACE
  5
138
  8
FRAME
 10
0.6400000000000002
 20
-1.3200000000000001
 30
0.63
 11
0.6400000000000002
 21
-1.6000000000000001
 31
0.63
 12
0.5900000000000001
 22
-1.6000000000000001
 32
0.63
 13
0.5900000000000001
 23
-1.3200000000000001
 33
0.63
  0
3DFACE
  5
139
  8
FRAME
 10
0.6400000000000002
 20
-1.3200000000000001
 30
0.7000000000000001
 11
0.6400000000000002
 21
-1.3200000000000001
 31
0.63
 12
0.5900000000000001
 22
-1.3200000000000001
 32
0.63
 13
0.5900000000000001
 23
-1.3200000000000001
 33
0.7000000000000001
  0
3DFACE
  5
13A
  8
FRAME
 10
0.5900000000000001
 20
-1.8100000000000001
 30
0.7800000000000001
 11
0.5900000000000001
 21
-1.8100000000000001
 31
0.48
 12
0.6400000000000002
 22
-1.8100000000000001
 32
0.48
 13
0.6400000000000002
 23
-1.8100000000000001
 33
0.7800000000000001
  0
3DFACE
  5
13B
  8
FRAME
 10
0.5900000000000001
 20
-1.3200000000000001
 30
0.55
 11
0.5900000000000001
 21
-1.3500000000000001
 31
0.48
 12
0.5900000000000001
 22
-1.8100000000000001
 32
0.48
 13
0.5900000000000001
 23
-1.6000000000000001
 33
0.63
  0
3DFACE
  5
13C
  8
FRAME
 10
0.6400000000000002
 20
-1.6000000000000001
 30
0.63
 11
0.6400000000000002
 21
-1.3200000000000001
 31
0.55
 12
0.5900000000000001
 22
-1.3200000000000001
 32
0.55
 13
0.5900000000000001
 23
-1.6000000000000001
 33
0.63
  0
3DFACE
  5
13D
  8
FRAME
 10
0.6400000000000002
 20
-1.8100000000000001
 30
0.48
 11
0.6400000000000002
 21
-1.3500000000000001
 31
0.48
 12
0.6400000000000002
 22
-1.3200000000000001
 32
0.55
 13
0.6400000000000002
 23
-1.6000000000000001
 33
0.63
  0
3DFACE
  5
13E
  8
FRAME
 10
0.5900000000000001
 20
-1.8100000000000001
 30
0.48
 11
0.5900000000000001
 21
-1.3500000000000001
 31
0.48
 12
0.6400000000000002
 22
-1.3500000000000001
 32
0.48
 13
0.6400000000000002
 23
-1.8100000000000001
 33
0.48
  0
3DFACE
  5
13F
  8
FRAME
 10
0.6400000000000002
 20
-1.3200000000000001
 30
0.55
 11
0.6400000000000002
 21
-1.3500000000000001
 31
0.48
 12
0.5900000000000001
 22
-1.3500000000000001
 32
0.48
 13
0.5900000000000001
 23
-1.3200000000000001
 33
0.55
  0
3DFACE
  5
140
  8
FRAME
 10
0.5900000000000001
 20
-1.5099999999999989
 30
0.9
 11
0.5900000000000001
 21
-1.629999999999999
 31
0.9
 12
0.6400000000000002
 22
-1.629999999999999
 32
0.9
 13
0.6400000000000002
 23
-1.5099999999999989
 33
0.9
  0
3DFACE
  5
156
  8
FRAME
 10
0.6700000000000002
 20
-1.0900000000000001
 30
0.8449999999999999
 11
0.6538908729652602
 21
-1.0900000000000001
 31
0.8838908729652599
 12
0.6538908729652602
 22
-1.5099999999999989
 32
0.8838908729652599
 13
0.6700000000000002
 23
-1.5099999999999989
 33
0.8449999999999999
  0
3DFACE
  5
157
  8
FRAME
 10
0.6538908729652602
 20
-1.0900000000000001
 30
0.8838908729652599
 11
0.6150000000000001
 21
-1.0900000000000001
 31
0.9
 12
0.6150000000000001
 22
-1.5099999999999989
 32
0.9
 13
0.6538908729652602
 23
-1.5099999999999989
 33
0.8838908729652599
  0
3DFACE
  5
158
  8
FRAME
 10
0.6150000000000001
 20
-1.0900000000000001
 30
0.9
 11
0.5761091270347399
 21
-1.0900000000000001
 31
0.8838908729652599
 12
0.5761091270347399
 22
-1.5099999999999989
 32
0.8838908729652599
 13
0.6150000000000001
 23
-1.5099999999999989
 33
0.9
  0
3DFACE
  5
159
  8
FRAME
 10
0.5761091270347399
 20
-1.0900000000000001
 30
0.8838908729652599
 11
0.5600000000000001
 21
-1.0900000000000001
 31
0.8449999999999999
 12
0.5600000000000001
 22
-1.5099999999999989
 32
0.8449999999999999
 13
0.5761091270347399
 23
-1.5099999999999989
 33
0.8838908729652599
  0
3DFACE
  5
15A
  8
FRAME
 10
0.5600000000000001
 20
-1.0900000000000001
 30
0.8449999999999999
 11
0.5761091270347399
 21
-1.0900000000000001
 31
0.8061091270347398
 12
0.5761091270347399
 22
-1.5099999999999989
 32
0.8061091270347398
 13
0.5600000000000001
 23
-1.5099999999999989
 33
0.8449999999999999
  0
3DFACE
  5
15B
  8
FRAME
 10
0.5761091270347399
 20
-1.0900000000000001
 30
0.8061091270347398
 11
0.6150000000000001
 21
-1.0900000000000001
 31
0.79
 12
0.6150000000000001
 22
-1.5099999999999989
 32
0.79
 13
0.5761091270347399
 23
-1.5099999999999989
 33
0.8061091270347398
  0
3DFACE
  5
15C
  8
FRAME
 10
0.6150000000000001
 20
-1.0900000000000001
 30
0.79
 11
0.6538908729652601
 21
-1.0900000000000001
 31
0.8061091270347397
 12
0.6538908729652601
 22
-1.5099999999999989
 32
0.8061091270347397
 13
0.6150000000000001
 23
-1.5099999999999989
 33
0.79
  0
3DFACE
  5
15D
  8
FRAME
 10
0.6538908729652601
 20
-1.0900000000000001
 30
0.8061091270347397
 11
0.6700000000000002
 21
-1.0900000000000001
 31
0.8449999999999999
 12
0.6700000000000002
 22
-1.5099999999999989
 32
0.8449999999999999
 13
0.6538908729652601
 23
-1.5099999999999989
 33
0.8061091270347397
  0
3DFACE
  5
15E
  8
FRAME
 10
0.5761091270347399
 20
-1.5099999999999989
 30
0.8838908729652599
 11
0.5600000000000001
 21
-1.5099999999999989
 31
0.8449999999999999
 12
0.5761091270347399
 22
-1.5099999999999989
 32
0.8061091270347398
 13
0.5900000000000001
 23
-1.5099999999999989
 33
0.8896446609406726
  0
3DFACE
  5
15F
  8
FRAME
 10
0.5900000000000001
 20
-1.5099999999999989
 30
0.8896446609406726
 11
0.5761091270347399
 21
-1.5099999999999989
 31
0.8061091270347398
 12
0.5900000000000001
 22
-1.5099999999999989
 32
0.8003553390593273
 13
0.5900000000000001
 23
-1.5099999999999989
 33
0.8896446609406726
  0
3DFACE
  5
160
  8
FRAME
 10
0.6700000000000002
 20
-1.5099999999999989
 30
0.8449999999999999
 11
0.6538908729652602
 21
-1.5099999999999989
 31
0.8838908729652599
 12
0.6400000000000002
 22
-1.5099999999999989
 32
0.8896446609406725
 13
0.6538908729652601
 23
-1.5099999999999989
 33
0.8061091270347397
  0
3DFACE
  5
161
  8
FRAME
 10
0.6538908729652601
 20
-1.5099999999999989
 30
0.8061091270347397
 11
0.6400000000000002
 21
-1.5099999999999989
 31
0.8896446609406725
 12
0.6400000000000002
 22
-1.5099999999999989
 32
0.8896446609406725
 13
0.6400000000000002
 23
-1.5099999999999989
 33
0.8003553390593273
  0
3DFACE
  5
162
  8
FRAME
 10
0.6400000000000001
 20
-1.089999999999999
 30
0.8896446609406726
 11
0.6538908729652603
 21
-1.089999999999999
 31
0.8061091270347398
 12
0.6400000000000001
 22
-1.089999999999999
 32
0.8003553390593273
 13
0.6400000000000001
 23
-1.089999999999999
 33
0.8896446609406726
  0
3DFACE
  5
163
  8
FRAME
 10
0.6538908729652602
 20
-1.089999999999999
 30
0.8838908729652599
 11
0.6700000000000002
 21
-1.089999999999999
 31
0.8449999999999999
 12
0.6538908729652603
 22
-1.089999999999999
 32
0.8061091270347398
 13
0.6400000000000001
 23
-1.089999999999999
 33
0.8896446609406726
  0
3DFACE
  5
164
  8
FRAME
 10
0.57610912703474
 20
-1.089999999999999
 30
0.8061091270347397
 11
0.59
 21
-1.089999999999999
 31
0.8896446609406725
 12
0.59
 22
-1.089999999999999
 32
0.8896446609406725
 13
0.59
 23
-1.089999999999999
 33
0.8003553390593273
  0
3DFACE
  5
165
  8
FRAME
 10
0.5600000000000001
 20
-1.089999999999999
 30
0.8449999999999999
 11
0.5761091270347399
 21
-1.089999999999999
 31
0.8838908729652599
 12
0.59
 22
-1.089999999999999
 32
0.8896446609406725
 13
0.57610912703474
 23
-1.089999999999999
 33
0.8061091270347397
  0
3DFACE
  5
166
  8
FRAME
 10
-0.67
 20
-1.089999999999999
 30
0.8449999999999999
 11
-0.6538908729652601
 21
-1.089999999999999
 31
0.8838908729652599
 12
-0.6400000000000001
 22
-1.089999999999999
 32
0.8896446609406725
 13
-0.6538908729652599
 23
-1.089999999999999
 33
0.8061091270347397
  0
3DFACE
  5
167
  8
FRAME
 10
-0.6538908729652599
 20
-1.089999999999999
 30
0.8061091270347397
 11
-0.6400000000000001
 21
-1.089999999999999
 31
0.8896446609406725
 12
-0.6400000000000001
 22
-1.089999999999999
 32
0.8896446609406725
 13
-0.6400000000000001
 23
-1.089999999999999
 33
0.8003553390593273
  0
3DFACE
  5
168
  8
FRAME
 10
-0.5761091270347399
 20
-1.089999999999999
 30
0.8838908729652599
 11
-0.5599999999999998
 21
-1.089999999999999
 31
0.8449999999999999
 12
-0.5761091270347398
 22
-1.089999999999999
 32
0.8061091270347398
 13
-0.59
 23
-1.089999999999999
 33
0.8896446609406726
  0
3DFACE
  5
169
  8
FRAME
 10
-0.59
 20
-1.089999999999999
 30
0.8896446609406726
 11
-0.5761091270347398
 21
-1.089999999999999
 31
0.8061091270347398
 12
-0.59
 22
-1.089999999999999
 32
0.8003553390593273
 13
-0.59
 23
-1.089999999999999
 33
0.8896446609406726
  0
3DFACE
  5
16A
  8
FRAME
 10
-0.5761091270347399
 20
-1.5099999999999989
 30
0.8061091270347397
 11
-0.5899999999999999
 21
-1.5099999999999989
 31
0.8896446609406725
 12
-0.5899999999999999
 22
-1.5099999999999989
 32
0.8896446609406725
 13
-0.5899999999999999
 23
-1.5099999999999989
 33
0.8003553390593273
  0
3DFACE
  5
16B
  8
FRAME
 10
-0.5600000000000001
 20
-1.5099999999999989
 30
0.8449999999999999
 11
-0.5761091270347399
 21
-1.5099999999999989
 31
0.8838908729652599
 12
-0.5899999999999999
 22
-1.5099999999999989
 32
0.8896446609406725
 13
-0.5761091270347399
 23
-1.5099999999999989
 33
0.8061091270347397
  0
3DFACE
  5
16C
  8
FRAME
 10
-0.6399999999999999
 20
-1.5099999999999989
 30
0.8896446609406726
 11
-0.6538908729652602
 21
-1.5099999999999989
 31
0.8061091270347398
 12
-0.6399999999999999
 22
-1.5099999999999989
 32
0.8003553390593273
 13
-0.6399999999999999
 23
-1.5099999999999989
 33
0.8896446609406726
  0
3DFACE
  5
16D
  8
FRAME
 10
-0.6538908729652601
 20
-1.5099999999999989
 30
0.8838908729652599
 11
-0.6700000000000002
 21
-1.5099999999999989
 31
0.8449999999999999
 12
-0.6538908729652602
 22
-1.5099999999999989
 32
0.8061091270347398
 13
-0.6399999999999999
 23
-1.5099999999999989
 33
0.8896446609406726
  0
3DFACE
  5
16E
  8
FRAME
 10
-0.6538908729652601
 20
-1.0900000000000001
 30
0.8838908729652599
 11
-0.6700000000000002
 21
-1.0900000000000001
 31
0.8449999999999999
 12
-0.6700000000000002
 22
-1.5099999999999989
 32
0.8449999999999999
 13
-0.6538908729652601
 23
-1.5099999999999989
 33
0.8838908729652599
  0
3DFACE
  5
16F
  8
FRAME
 10
-0.5600000000000001
 20
-1.0900000000000001
 30
0.8449999999999999
 11
-0.5761091270347399
 21
-1.0900000000000001
 31
0.8838908729652599
 12
-0.5761091270347399
 22
-1.5099999999999989
 32
0.8838908729652599
 13
-0.5600000000000001
 23
-1.5099999999999989
 33
0.8449999999999999
  0
3DFACE
  5
170
  8
FRAME
 10
-0.6399999999999999
 20
-1.6000000000000001
 30
0.63
 11
-0.6399999999999999
 21
-1.629999999999999
 31
0.9
 12
-0.6399999999999999
 22
-1.5099999999999989
 32
0.9
 13
-0.6399999999999999
 23
-1.5099999999999989
 33
0.7900000000000002
  0
3DFACE
  5
171
  8
FRAME
 10
-0.5899999999999999
 20
-1.5099999999999989
 30
0.9
 11
-0.5899999999999999
 21
-1.629999999999999
 31
0.9
 12
-0.5899999999999999
 22
-1.6000000000000001
 32
0.63
 13
-0.5899999999999999
 23
-1.5099999999999989
 33
0.7900000000000002
  0
3DFACE
  5
172
  8
FRAME
 10
-0.6399999999999999
 20
-1.5099999999999989
 30
0.7900000000000002
 11
-0.6399999999999999
 21
-1.5099999999999989
 31
0.9
 12
-0.5899999999999999
 22
-1.5099999999999989
 32
0.9
 13
-0.5899999999999999
 23
-1.5099999999999989
 33
0.7900000000000002
  0
3DFACE
  5
173
  8
FRAME
 10
-0.6399999999999999
 20
-1.6000000000000001
 30
0.63
 11
-0.6399999999999999
 21
-1.8100000000000001
 31
0.48
 12
-0.6399999999999999
 22
-1.8100000000000001
 32
0.7800000000000001
 13
-0.6399999999999999
 23
-1.629999999999999
 33
0.9
  0
3DFACE
  5
174
  8
FRAME
 10
-0.6399999999999999
 20
-1.629999999999999
 30
0.9
 11
-0.6399999999999999
 21
-1.8100000000000001
 31
0.7800000000000001
 12
-0.5899999999999999
 22
-1.8100000000000001
 32
0.7800000000000001
 13
-0.5899999999999999
 23
-1.629999999999999
 33
0.9
  0
3DFACE
  5
175
  8
FRAME
 10
-0.5899999999999999
 20
-1.8100000000000001
 30
0.7800000000000001
 11
-0.5899999999999999
 21
-1.8100000000000001
 31
0.48
 12
-0.5899999999999999
 22
-1.6000000000000001
 32
0.63
 13
-0.5899999999999999
 23
-1.629999999999999
 33
0.9
  0
3DFACE
  5
176
  8
FRAME
 10
-0.59
 20
-1.0
 30
0.63
 11
-0.59
 21
-0.9699999999999999
 31
0.9
 12
-0.59
 22
-1.0900000000000001
 32
0.9
 13
-0.59
 23
-1.0900000000000001
 33
0.7900000000000002
  0
3DFACE
  5
177
  8
FRAME
 10
-0.6400000000000001
 20
-1.0900000000000001
 30
0.9
 11
-0.6400000000000001
 21
-0.9699999999999999
 31
0.9
 12
-0.6400000000000001
 22
-1.0
 32
0.63
 13
-0.6400000000000001
 23
-1.0900000000000001
 33
0.7900000000000002
  0
3DFACE
  5
178
  8
FRAME
 10
-0.59
 20
-1.0900000000000001
 30
0.7900000000000002
 11
-0.59
 21
-1.0900000000000001
 31
0.9
 12
-0.6400000000000001
 22
-1.0900000000000001
 32
0.9
 13
-0.6400000000000001
 23
-1.0900000000000001
 33
0.7900000000000002
  0
3DFACE
  5
179
  8
FRAME
 10
-0.59
 20
-1.0
 30
0.63
 11
-0.59
 21
-0.7900000000000002
 31
0.48
 12
-0.59
 22
-0.7900000000000002
 32
0.7800000000000001
 13
-0.59
 23
-0.9699999999999999
 33
0.9
  0
3DFACE
  5
17A
  8
FRAME
 10
-0.59
 20
-0.9699999999999999
 30
0.9
 11
-0.59
 21
-0.7900000000000002
 31
0.7800000000000001
 12
-0.6400000000000001
 22
-0.7900000000000002
 32
0.7800000000000001
 13
-0.6400000000000001
 23
-0.9699999999999999
 33
0.9
  0
3DFACE
  5
17B
  8
FRAME
 10
-0.6400000000000001
 20
-0.7900000000000002
 30
0.7800000000000001
 11
-0.6400000000000001
 21
-0.7900000000000002
 31
0.48
 12
-0.6400000000000001
 22
-1.0
 32
0.63
 13
-0.6400000000000001
 23
-0.9699999999999999
 33
0.9
  0
3DFACE
  5
17C
  8
FRAME
 10
-0.5761091270347399
 20
-1.0900000000000001
 30
0.8061091270347397
 11
-0.5600000000000001
 21
-1.0900000000000001
 31
0.8449999999999999
 12
-0.5600000000000001
 22
-1.5099999999999989
 32
0.8449999999999999
 13
-0.5761091270347399
 23
-1.5099999999999989
 33
0.8061091270347397
  0
3DFACE
  5
17D
  8
FRAME
 10
-0.6150000000000001
 20
-1.0900000000000001
 30
0.79
 11
-0.5761091270347399
 21
-1.0900000000000001
 31
0.8061091270347397
 12
-0.5761091270347399
 22
-1.5099999999999989
 32
0.8061091270347397
 13
-0.6150000000000001
 23
-1.5099999999999989
 33
0.79
  0
3DFACE
  5
17E
  8
FRAME
 10
-0.6538908729652602
 20
-1.0900000000000001
 30
0.8061091270347398
 11
-0.6150000000000001
 21
-1.0900000000000001
 31
0.79
 12
-0.6150000000000001
 22
-1.5099999999999989
 32
0.79
 13
-0.6538908729652602
 23
-1.5099999999999989
 33
0.8061091270347398
  0
3DFACE
  5
17F
  8
FRAME
 10
-0.6700000000000002
 20
-1.0900000000000001
 30
0.8449999999999999
 11
-0.6538908729652602
 21
-1.0900000000000001
 31
0.8061091270347398
 12
-0.6538908729652602
 22
-1.5099999999999989
 32
0.8061091270347398
 13
-0.6700000000000002
 23
-1.5099999999999989
 33
0.8449999999999999
  0
3DFACE
  5
180
  8
FRAME
 10
-0.6399999999999999
 20
-1.3200000000000001
 30
0.63
 11
-0.6399999999999999
 21
-1.6000000000000001
 31
0.63
 12
-0.6399999999999999
 22
-1.5099999999999989
 32
0.7900000000000002
 13
-0.6399999999999999
 23
-1.3200000000000001
 33
0.7000000000000001
  0
3DFACE
  5
181
  8
FRAME
 10
-0.6399999999999999
 20
-1.3200000000000001
 30
0.7000000000000001
 11
-0.6399999999999999
 21
-1.5099999999999989
 31
0.7900000000000002
 12
-0.5899999999999999
 22
-1.5099999999999989
 32
0.7900000000000002
 13
-0.5899999999999999
 23
-1.3200000000000001
 33
0.7000000000000001
  0
3DFACE
  5
182
  8
FRAME
 10
-0.5899999999999999
 20
-1.5099999999999989
 30
0.7900000000000002
 11
-0.5899999999999999
 21
-1.6000000000000001
 31
0.63
 12
-0.5899999999999999
 22
-1.3200000000000001
 32
0.63
 13
-0.5899999999999999
 23
-1.3200000000000001
 33
0.7000000000000001
  0
3DFACE
  5
183
  8
FRAME
 10
-0.5899999999999999
 20
-1.3200000000000001
 30
0.63
 11
-0.5899999999999999
 21
-1.6000000000000001
 31
0.63
 12
-0.6399999999999999
 22
-1.6000000000000001
 32
0.63
 13
-0.6399999999999999
 23
-1.3200000000000001
 33
0.63
  0
3DFACE
  5
184
  8
FRAME
 10
-0.5899999999999999
 20
-1.3200000000000001
 30
0.7000000000000001
 11
-0.5899999999999999
 21
-1.3200000000000001
 31
0.63
 12
-0.6399999999999999
 22
-1.3200000000000001
 32
0.63
 13
-0.6399999999999999
 23
-1.3200000000000001
 33
0.7000000000000001
  0
3DFACE
  5
185
  8
FRAME
 10
-0.6399999999999999
 20
-1.8100000000000001
 30
0.7800000000000001
 11
-0.6399999999999999
 21
-1.8100000000000001
 31
0.48
 12
-0.5899999999999999
 22
-1.8100000000000001
 32
0.48
 13
-0.5899999999999999
 23
-1.8100000000000001
 33
0.7800000000000001
  0
3DFACE
  5
186
  8
FRAME
 10
-0.6399999999999999
 20
-1.3200000000000001
 30
0.55
 11
-0.6399999999999999
 21
-1.3500000000000001
 31
0.48
 12
-0.6399999999999999
 22
-1.8100000000000001
 32
0.48
 13
-0.6399999999999999
 23
-1.6000000000000001
 33
0.63
  0
3DFACE
  5
187
  8
FRAME
 10
-0.5899999999999999
 20
-1.6000000000000001
 30
0.63
 11
-0.5899999999999999
 21
-1.3200000000000001
 31
0.55
 12
-0.6399999999999999
 22
-1.3200000000000001
 32
0.55
 13
-0.6399999999999999
 23
-1.6000000000000001
 33
0.63
  0
3DFACE
  5
188
  8
FRAME
 10
-0.5899999999999999
 20
-1.8100000000000001
 30
0.48
 11
-0.5899999999999999
 21
-1.3500000000000001
 31
0.48
 12
-0.5899999999999999
 22
-1.3200000000000001
 32
0.55
 13
-0.5899999999999999
 23
-1.6000000000000001
 33
0.63
  0
3DFACE
  5
189
  8
FRAME
 10
-0.6399999999999999
 20
-1.8100000000000001
 30
0.48
 11
-0.6399999999999999
 21
-1.3500000000000001
 31
0.48
 12
-0.5899999999999999
 22
-1.3500000000000001
 32
0.48
 13
-0.5899999999999999
 23
-1.8100000000000001
 33
0.48
  0
3DFACE
  5
18A
  8
FRAME
 10
-0.5899999999999999
 20
-1.3200000000000001
 30
0.55
 11
-0.5899999999999999
 21
-1.3500000000000001
 31
0.48
 12
-0.6399999999999999
 22
-1.3500000000000001
 32
0.48
 13
-0.6399999999999999
 23
-1.3200000000000001
 33
0.55
  0
3DFACE
  5
18B
  8
FRAME
 10
-0.59
 20
-1.28
 30
0.63
 11
-0.59
 21
-1.0
 31
0.63
 12
-0.59
 22
-1.0900000000000001
 32
0.7900000000000002
 13
-0.59
 23
-1.28
 33
0.7000000000000001
  0
3DFACE
  5
18C
  8
FRAME
 10
-0.59
 20
-1.28
 30
0.7000000000000001
 11
-0.59
 21
-1.0900000000000001
 31
0.7900000000000002
 12
-0.6400000000000001
 22
-1.0900000000000001
 32
0.7900000000000002
 13
-0.6400000000000001
 23
-1.28
 33
0.7000000000000001
  0
3DFACE
  5
18D
  8
FRAME
 10
-0.6400000000000001
 20
-1.0900000000000001
 30
0.7900000000000002
 11
-0.6400000000000001
 21
-1.0
 31
0.63
 12
-0.6400000000000001
 22
-1.28
 32
0.63
 13
-0.6400000000000001
 23
-1.28
 33
0.7000000000000001
  0
3DFACE
  5
18E
  8
FRAME
 10
-0.6400000000000001
 20
-1.28
 30
0.63
 11
-0.6400000000000001
 21
-1.0
 31
0.63
 12
-0.59
 22
-1.0
 32
0.63
 13
-0.59
 23
-1.28
 33
0.63
  0
3DFACE
  5
18F
  8
FRAME
 10
-0.6400000000000001
 20
-1.28
 30
0.7000000000000001
 11
-0.6400000000000001
 21
-1.28
 31
0.63
 12
-0.59
 22
-1.28
 32
0.63
 13
-0.59
 23
-1.28
 33
0.7000000000000001
  0
3DFACE
  5
190
  8
FRAME
 10
-0.59
 20
-0.7900000000000002
 30
0.7800000000000001
 11
-0.59
 21
-0.7900000000000002
 31
0.48
 12
-0.6400000000000001
 22
-0.7900000000000002
 32
0.48
 13
-0.6400000000000001
 23
-0.7900000000000002
 33
0.7800000000000001
  0
3DFACE
  5
191
  8
FRAME
 10
-0.59
 20
-1.28
 30
0.55
 11
-0.59
 21
-1.25
 31
0.48
 12
-0.59
 22
-0.7900000000000002
 32
0.48
 13
-0.59
 23
-1.0
 33
0.63
  0
3DFACE
  5
192
  8
FRAME
 10
-0.6400000000000001
 20
-1.0
 30
0.63
 11
-0.6400000000000001
 21
-1.28
 31
0.55
 12
-0.59
 22
-1.28
 32
0.55
 13
-0.59
 23
-1.0
 33
0.63
  0
3DFACE
  5
193
  8
FRAME
 10
-0.6400000000000001
 20
-0.7900000000000002
 30
0.48
 11
-0.6400000000000001
 21
-1.25
 31
0.48
 12
-0.6400000000000001
 22
-1.28
 32
0.55
 13
-0.6400000000000001
 23
-1.0
 33
0.63
  0
3DFACE
  5
194
  8
FRAME
 10
-0.59
 20
-0.7900000000000002
 30
0.48
 11
-0.59
 21
-1.25
 31
0.48
 12
-0.6400000000000001
 22
-1.25
 32
0.48
 13
-0.6400000000000001
 23
-0.7900000000000002
 33
0.48
  0
3DFACE
  5
195
  8
FRAME
 10
-0.6400000000000001
 20
-1.28
 30
0.55
 11
-0.6400000000000001
 21
-1.25
 31
0.48
 12
-0.59
 22
-1.25
 32
0.48
 13
-0.59
 23
-1.28
 33
0.55
  0
3DFACE
  5
196
  8
FRAME
 10
-0.6150000000000001
 20
-1.0900000000000001
 30
0.9
 11
-0.6538908729652601
 21
-1.0900000000000001
 31
0.8838908729652599
 12
-0.6538908729652601
 22
-1.5099999999999989
 32
0.8838908729652599
 13
-0.6150000000000001
 23
-1.5099999999999989
 33
0.9
  0
3DFACE
  5
197
  8
FRAME
 10
-0.5761091270347399
 20
-1.0900000000000001
 30
0.8838908729652599
 11
-0.6150000000000001
 21
-1.0900000000000001
 31
0.9
 12
-0.6150000000000001
 22
-1.5099999999999989
 32
0.9
 13
-0.5761091270347399
 23
-1.5099999999999989
 33
0.8838908729652599
  0
3DFACE
  5
198
  8
FRAME
 10
-0.6399999999999999
 20
-1.5099999999999989
 30
0.9
 11
-0.6399999999999999
 21
-1.629999999999999
 31
0.9
 12
-0.5899999999999999
 22
-1.629999999999999
 32
0.9
 13
-0.5899999999999999
 23
-1.5099999999999989
 33
0.9
  0
3DFACE
  5
199
  8
FRAME
 10
-0.59
 20
-1.0900000000000001
 30
0.9
 11
-0.59
 21
-0.9699999999999999
 31
0.9
 12
-0.6400000000000001
 22
-0.9699999999999999
 32
0.9
 13
-0.6400000000000001
 23
-1.0900000000000001
 33
0.9
  0
3DFACE
  5
28E
  8
FRAME
 10
0.9081624690497721
 20
-2.4399999999999991
 30
0.4579136219279926
 11
0.9073966492688285
 21
-2.4187867965644032
 31
0.4491602617773231
 12
-0.1386077837275047
 22
-2.4187867965644032
 32
0.5406737916623645
 13
-0.1378419639465614
 23
-2.4399999999999991
 33
0.5494271518130339
  0
3DFACE
  5
28F
  8
FRAME
 10
0.9073966492688285
 20
-2.4187867965644032
 30
0.4491602617773231
 11
0.905547796767342
 21
-2.4099999999999988
 31
0.4280277809852401
 12
-0.1404566362289913
 22
-2.4099999999999988
 32
0.5195413108702814
 13
-0.1386077837275047
 23
-2.4187867965644032
 33
0.5406737916623645
  0
3DFACE
  5
290
  8
FRAME
 10
0.905547796767342
 20
-2.4099999999999988
 30
0.4280277809852401
 11
0.9036989442658553
 21
-2.4187867965644032
 31
0.406895300193157
 12
-0.1423054887304778
 22
-2.4187867965644032
 32
0.4984088300781992
 13
-0.1404566362289913
 23
-2.4099999999999988
 33
0.5195413108702814
  0
3DFACE
  5
291
  8
FRAME
 10
0.9036989442658553
 20
-2.4187867965644032
 30
0.406895300193157
 11
0.9029331244849123
 21
-2.4399999999999991
 31
0.3981419400424874
 12
-0.143071308511421
 22
-2.4399999999999991
 32
0.4896554699275288
 13
-0.1423054887304778
 23
-2.4187867965644032
 33
0.4984088300781992
  0
3DFACE
  5
292
  8
FRAME
 10
0.9029331244849123
 20
-2.4399999999999991
 30
0.3981419400424874
 11
0.9036989442658553
 21
-2.4612132034355958
 31
0.406895300193157
 12
-0.1423054887304779
 22
-2.4612132034355958
 32
0.4984088300781983
 13
-0.143071308511421
 23
-2.4399999999999991
 33
0.4896554699275288
  0
3DFACE
  5
293
  8
FRAME
 10
0.9036989442658553
 20
-2.4612132034355958
 30
0.406895300193157
 11
0.905547796767342
 21
-2.4700000000000002
 31
0.4280277809852401
 12
-0.1404566362289913
 22
-2.4700000000000002
 32
0.5195413108702814
 13
-0.1423054887304779
 23
-2.4612132034355958
 33
0.4984088300781983
  0
3DFACE
  5
294
  8
FRAME
 10
0.905547796767342
 20
-2.4700000000000002
 30
0.4280277809852401
 11
0.9073966492688285
 21
-2.4612132034355958
 31
0.4491602617773231
 12
-0.1386077837275047
 22
-2.4612132034355958
 32
0.5406737916623645
 13
-0.1404566362289913
 23
-2.4700000000000002
 33
0.5195413108702814
  0
3DFACE
  5
295
  8
FRAME
 10
0.9073966492688285
 20
-2.4612132034355958
 30
0.4491602617773231
 11
0.9081624690497721
 21
-2.4399999999999991
 31
0.4579136219279926
 12
-0.1378419639465614
 22
-2.4399999999999991
 32
0.5494271518130339
 13
-0.1386077837275047
 23
-2.4612132034355958
 33
0.5406737916623645
  0
3DFACE
  5
296
  8
FRAME
 10
-0.1378419639465614
 20
-2.4399999999999991
 30
0.5494271518130339
 11
-0.1386077837275047
 21
-2.4187867965644032
 31
0.5406737916623645
 12
-0.2133223860843849
 22
-2.384999999999998
 32
0.5472104723684387
 13
-0.2274994867748185
 23
-2.399999999999999
 33
0.5572711686603232
  0
3DFACE
  5
297
  8
FRAME
 10
-0.1386077837275047
 20
-2.4187867965644032
 30
0.5406737916623645
 11
-0.1404566362289913
 21
-2.4099999999999988
 31
0.5195413108702814
 12
-0.2089816782651652
 22
-2.3787867965644018
 32
0.525536475216084
 13
-0.2133223860843849
 23
-2.384999999999998
 33
0.5472104723684387
  0
3DFACE
  5
298
  8
FRAME
 10
-0.1404566362289913
 20
-2.4099999999999988
 30
0.5195413108702814
 11
-0.1423054887304778
 21
-2.4187867965644032
 31
0.4984088300781992
 12
-0.217020091087358
 22
-2.384999999999998
 32
0.5049455107842736
 13
-0.2089816782651652
 23
-2.3787867965644018
 33
0.525536475216084
  0
3DFACE
  5
299
  8
FRAME
 10
-0.1423054887304778
 20
-2.4187867965644032
 30
0.4984088300781992
 11
-0.143071308511421
 21
-2.4399999999999991
 31
0.4896554699275288
 12
-0.232728831339678
 22
-2.399999999999999
 32
0.497499486774818
 13
-0.217020091087358
 23
-2.384999999999998
 33
0.5049455107842736
  0
3DFACE
  5
29A
  8
FRAME
 10
-0.143071308511421
 20
-2.4399999999999991
 30
0.4896554699275288
 11
-0.1423054887304779
 21
-2.4612132034355958
 31
0.4984088300781983
 12
-0.2469059320301115
 22
-2.4149999999999991
 32
0.5075601830667034
 13
-0.232728831339678
 23
-2.399999999999999
 33
0.497499486774818
  0
3DFACE
  5
29B
  8
FRAME
 10
-0.1423054887304779
 20
-2.4612132034355958
 30
0.4984088300781983
 11
-0.1404566362289913
 21
-2.4700000000000002
 31
0.5195413108702814
 12
-0.2512466398493313
 22
-2.4212132034355949
 32
0.5292341802190573
 13
-0.2469059320301115
 23
-2.4149999999999991
 33
0.5075601830667034
  0
3DFACE
  5
29C
  8
FRAME
 10
-0.1404566362289913
 20
-2.4700000000000002
 30
0.5195413108702814
 11
-0.1386077837275047
 21
-2.4612132034355958
 31
0.5406737916623645
 12
-0.2432082270271383
 22
-2.4149999999999991
 32
0.5498251446508685
 13
-0.2512466398493313
 23
-2.4212132034355949
 33
0.5292341802190573
  0
3DFACE
  5
29D
  8
FRAME
 10
-0.1386077837275047
 20
-2.4612132034355958
 30
0.5406737916623645
 11
-0.1378419639465614
 21
-2.4399999999999991
 31
0.5494271518130339
 12
-0.2274994867748185
 22
-2.399999999999999
 32
0.5572711686603232
 13
-0.2432082270271383
 23
-2.4149999999999991
 33
0.5498251446508685
  0
3DFACE
  5
29E
  8
FRAME
 10
-0.2274994867748185
 20
-2.399999999999999
 30
0.5572711686603232
 11
-0.2133223860843849
 21
-2.384999999999998
 31
0.5472104723684387
 12
-0.2387867965644033
 22
-2.3300000000000001
 32
0.551213203435597
 13
-0.26
 23
-2.3300000000000001
 33
0.5600000000000005
  0
3DFACE
  5
29F
  8
FRAME
 10
-0.2133223860843849
 20
-2.384999999999998
 30
0.5472104723684387
 11
-0.2089816782651652
 21
-2.3787867965644018
 31
0.525536475216084
 12
-0.2299999999999998
 22
-2.3300000000000001
 32
0.5300000000000003
 13
-0.2387867965644033
 23
-2.3300000000000001
 33
0.551213203435597
  0
3DFACE
  5
2A0
  8
FRAME
 10
-0.2089816782651652
 20
-2.3787867965644018
 30
0.525536475216084
 11
-0.217020091087358
 21
-2.384999999999998
 31
0.5049455107842736
 12
-0.2387867965644033
 22
-2.3300000000000001
 32
0.5087867965644044
 13
-0.2299999999999998
 23
-2.3300000000000001
 33
0.5300000000000003
  0
3DFACE
  5
2A1
  8
FRAME
 10
-0.217020091087358
 20
-2.384999999999998
 30
0.5049455107842736
 11
-0.232728831339678
 21
-2.399999999999999
 31
0.497499486774818
 12
-0.26
 22
-2.3300000000000001
 32
0.5
 13
-0.2387867965644033
 23
-2.3300000000000001
 33
0.5087867965644044
  0
3DFACE
  5
2A2
  8
FRAME
 10
-0.232728831339678
 20
-2.399999999999999
 30
0.497499486774818
 11
-0.2469059320301115
 21
-2.4149999999999991
 31
0.5075601830667034
 12
-0.2812132034355967
 22
-2.3300000000000001
 32
0.5087867965644044
 13
-0.26
 23
-2.3300000000000001
 33
0.5
  0
3DFACE
  5
2A3
  8
FRAME
 10
-0.2469059320301115
 20
-2.4149999999999991
 30
0.5075601830667034
 11
-0.2512466398493313
 21
-2.4212132034355949
 31
0.5292341802190573
 12
-0.2900000000000003
 22
-2.3300000000000001
 32
0.5300000000000003
 13
-0.2812132034355967
 23
-2.3300000000000001
 33
0.5087867965644044
  0
3DFACE
  5
2A4
  8
FRAME
 10
-0.2512466398493313
 20
-2.4212132034355949
 30
0.5292341802190573
 11
-0.2432082270271383
 21
-2.4149999999999991
 31
0.5498251446508685
 12
-0.2812132034355967
 22
-2.3300000000000001
 32
0.551213203435597
 13
-0.2900000000000003
 23
-2.3300000000000001
 33
0.5300000000000003
  0
3DFACE
  5
2A5
  8
FRAME
 10
-0.2432082270271383
 20
-2.4149999999999991
 30
0.5498251446508685
 11
-0.2274994867748185
 21
-2.399999999999999
 31
0.5572711686603232
 12
-0.26
 22
-2.3300000000000001
 32
0.5600000000000005
 13
-0.2812132034355967
 23
-2.3300000000000001
 33
0.551213203435597
  0
3DFACE
  5
2A6
  8
FRAME
 10
-0.26
 20
-0.34
 30
0.5600000000000005
 11
-0.2812132034355967
 21
-0.3187867965644031
 31
0.551213203435597
 12
-0.2812132034355967
 22
-2.3300000000000001
 32
0.551213203435597
 13
-0.26
 23
-2.3300000000000001
 33
0.5600000000000005
  0
3DFACE
  5
2A7
  8
FRAME
 10
-0.2812132034355967
 20
-0.3187867965644031
 30
0.551213203435597
 11
-0.2900000000000003
 21
-0.31
 31
0.5300000000000003
 12
-0.2900000000000003
 22
-2.3300000000000001
 32
0.5300000000000003
 13
-0.2812132034355967
 23
-2.3300000000000001
 33
0.551213203435597
  0
3DFACE
  5
2A8
  8
FRAME
 10
-0.2900000000000003
 20
-0.31
 30
0.5300000000000003
 11
-0.2812132034355967
 21
-0.3187867965644031
 31
0.5087867965644044
 12
-0.2812132034355967
 22
-2.3300000000000001
 32
0.5087867965644044
 13
-0.2900000000000003
 23
-2.3300000000000001
 33
0.5300000000000003
  0
3DFACE
  5
2A9
  8
FRAME
 10
-0.2812132034355967
 20
-0.3187867965644031
 30
0.5087867965644044
 11
-0.26
 21
-0.34
 31
0.5
 12
-0.26
 22
-2.3300000000000001
 32
0.5
 13
-0.2812132034355967
 23
-2.3300000000000001
 33
0.5087867965644044
  0
3DFACE
  5
2AA
  8
FRAME
 10
-0.26
 20
-0.34
 30
0.5
 11
-0.2387867965644033
 21
-0.3612132034355966
 31
0.5087867965644044
 12
-0.2387867965644033
 22
-2.3300000000000001
 32
0.5087867965644044
 13
-0.26
 23
-2.3300000000000001
 33
0.5
  0
3DFACE
  5
2AB
  8
FRAME
 10
-0.2387867965644033
 20
-0.3612132034355966
 30
0.5087867965644044
 11
-0.2299999999999998
 21
-0.37
 31
0.5300000000000003
 12
-0.2299999999999998
 22
-2.3300000000000001
 32
0.5300000000000003
 13
-0.2387867965644033
 23
-2.3300000000000001
 33
0.5087867965644044
  0
3DFACE
  5
2AC
  8
FRAME
 10
-0.2299999999999998
 20
-0.37
 30
0.5300000000000003
 11
-0.2387867965644033
 21
-0.3612132034355966
 31
0.551213203435597
 12
-0.2387867965644033
 22
-2.3300000000000001
 32
0.551213203435597
 13
-0.2299999999999998
 23
-2.3300000000000001
 33
0.5300000000000003
  0
3DFACE
  5
2AD
  8
FRAME
 10
-0.2387867965644033
 20
-0.3612132034355966
 30
0.551213203435597
 11
-0.26
 21
-0.34
 31
0.5600000000000005
 12
-0.26
 22
-2.3300000000000001
 32
0.5600000000000005
 13
-0.2387867965644033
 23
-2.3300000000000001
 33
0.551213203435597
  0
3DFACE
  5
2AE
  8
FRAME
 10
-0.0500000000000001
 20
-0.3399999999999999
 30
0.5600000000000005
 11
-0.0712132034355968
 21
-0.3187867965644031
 31
0.551213203435597
 12
-0.2812132034355967
 22
-0.3187867965644031
 32
0.551213203435597
 13
-0.26
 23
-0.3399999999999999
 33
0.5600000000000005
  0
3DFACE
  5
2AF
  8
FRAME
 10
-0.0712132034355968
 20
-0.3187867965644031
 30
0.551213203435597
 11
-0.0800000000000003
 21
-0.3099999999999996
 31
0.5300000000000003
 12
-0.2900000000000003
 22
-0.3099999999999996
 32
0.5300000000000003
 13
-0.2812132034355967
 23
-0.3187867965644031
 33
0.551213203435597
  0
3DFACE
  5
2B0
  8
FRAME
 10
-0.0800000000000003
 20
-0.3099999999999996
 30
0.5300000000000003
 11
-0.0712132034355968
 21
-0.3187867965644031
 31
0.5087867965644035
 12
-0.2812132034355967
 22
-0.3187867965644031
 32
0.5087867965644044
 13
-0.2900000000000003
 23
-0.3099999999999996
 33
0.5300000000000003
  0
3DFACE
  5
2B1
  8
FRAME
 10
-0.0712132034355968
 20
-0.3187867965644031
 30
0.5087867965644035
 11
-0.0500000000000001
 21
-0.3399999999999999
 31
0.5
 12
-0.26
 22
-0.3399999999999999
 32
0.5
 13
-0.2812132034355967
 23
-0.3187867965644031
 33
0.5087867965644044
  0
3DFACE
  5
2B2
  8
FRAME
 10
-0.0500000000000001
 20
-0.3399999999999999
 30
0.5
 11
-0.0287867965644033
 21
-0.3612132034355966
 31
0.5087867965644035
 12
-0.2387867965644033
 22
-0.3612132034355966
 32
0.5087867965644044
 13
-0.26
 23
-0.3399999999999999
 33
0.5
  0
3DFACE
  5
2B3
  8
FRAME
 10
-0.0287867965644033
 20
-0.3612132034355966
 30
0.5087867965644035
 11
-0.0200000000000007
 21
-0.3700000000000001
 31
0.5300000000000003
 12
-0.2300000000000006
 22
-0.3700000000000001
 32
0.5300000000000003
 13
-0.2387867965644033
 23
-0.3612132034355966
 33
0.5087867965644044
  0
3DFACE
  5
2B4
  8
FRAME
 10
-0.0200000000000007
 20
-0.3700000000000001
 30
0.5300000000000003
 11
-0.0287867965644033
 21
-0.3612132034355966
 31
0.551213203435597
 12
-0.2387867965644033
 22
-0.3612132034355966
 32
0.551213203435597
 13
-0.2300000000000006
 23
-0.3700000000000001
 33
0.5300000000000003
  0
3DFACE
  5
2B5
  8
FRAME
 10
-0.0287867965644033
 20
-0.3612132034355966
 30
0.551213203435597
 11
-0.0500000000000001
 21
-0.3399999999999999
 31
0.5600000000000005
 12
-0.26
 22
-0.3399999999999999
 32
0.5600000000000005
 13
-0.2387867965644033
 23
-0.3612132034355966
 33
0.551213203435597
  0
3DFACE
  5
2B6
  8
FRAME
 10
-0.0500000000000001
 20
-0.34
 30
0.5600000000000005
 11
-0.0287867965644033
 21
-0.3612132034355966
 31
0.551213203435597
 12
-0.0287867965644033
 22
1.159999999999999
 32
0.551213203435597
 13
-0.0500000000000001
 23
1.159999999999999
 33
0.5600000000000005
  0
3DFACE
  5
2B7
  8
FRAME
 10
-0.0287867965644033
 20
-0.3612132034355966
 30
0.551213203435597
 11
-0.0199999999999998
 21
-0.3700000000000009
 31
0.5300000000000003
 12
-0.0199999999999998
 22
1.159999999999999
 32
0.5300000000000003
 13
-0.0287867965644033
 23
1.159999999999999
 33
0.551213203435597
  0
3DFACE
  5
2B8
  8
FRAME
 10
-0.0199999999999998
 20
-0.3700000000000009
 30
0.5300000000000003
 11
-0.0287867965644033
 21
-0.3612132034355966
 31
0.5087867965644035
 12
-0.0287867965644033
 22
1.159999999999999
 32
0.5087867965644035
 13
-0.0199999999999998
 23
1.159999999999999
 33
0.5300000000000003
  0
3DFACE
  5
2B9
  8
FRAME
 10
-0.0287867965644033
 20
-0.3612132034355966
 30
0.5087867965644035
 11
-0.0500000000000001
 21
-0.34
 31
0.5
 12
-0.0500000000000001
 22
1.159999999999999
 32
0.5
 13
-0.0287867965644033
 23
1.159999999999999
 33
0.5087867965644035
  0
3DFACE
  5
2BA
  8
FRAME
 10
-0.0500000000000001
 20
-0.34
 30
0.5
 11
-0.0712132034355968
 21
-0.3187867965644031
 31
0.5087867965644035
 12
-0.0712132034355968
 22
1.159999999999999
 32
0.5087867965644035
 13
-0.0500000000000001
 23
1.159999999999999
 33
0.5
  0
3DFACE
  5
2BB
  8
FRAME
 10
-0.0712132034355968
 20
-0.3187867965644031
 30
0.5087867965644035
 11
-0.0800000000000003
 21
-0.31
 31
0.5300000000000003
 12
-0.0800000000000003
 22
1.159999999999999
 32
0.5300000000000003
 13
-0.0712132034355968
 23
1.159999999999999
 33
0.5087867965644035
  0
3DFACE
  5
2BC
  8
FRAME
 10
-0.0800000000000003
 20
-0.31
 30
0.5300000000000003
 11
-0.0712132034355968
 21
-0.3187867965644031
 31
0.551213203435597
 12
-0.0712132034355968
 22
1.159999999999999
 32
0.551213203435597
 13
-0.0800000000000003
 23
1.159999999999999
 33
0.5300000000000003
  0
3DFACE
  5
2BD
  8
FRAME
 10
-0.0712132034355968
 20
-0.3187867965644031
 30
0.551213203435597
 11
-0.0500000000000001
 21
-0.34
 31
0.5600000000000005
 12
-0.0500000000000001
 22
1.159999999999999
 32
0.5600000000000005
 13
-0.0712132034355968
 23
1.159999999999999
 33
0.551213203435597
  0
3DFACE
  5
2BE
  8
FRAME
 10
0.9073966492688285
 20
-2.4612132034355958
 30
0.4491602617773231
 11
0.905547796767342
 21
-2.4099999999999988
 31
0.4280277809852401
 12
0.9073966492688287
 22
-2.4187867965644032
 32
0.4491602617773231
 13
0.9081624690497719
 23
-2.4399999999999991
 33
0.4579136219279926
  0
3DFACE
  5
2BF
  8
FRAME
 10
0.905547796767342
 20
-2.4700000000000002
 30
0.4280277809852401
 11
0.9036989442658553
 21
-2.4187867965644032
 31
0.406895300193157
 12
0.905547796767342
 22
-2.4099999999999988
 32
0.4280277809852401
 13
0.9073966492688285
 23
-2.4612132034355958
 33
0.4491602617773231
  0
3DFACE
  5
2C0
  8
FRAME
 10
0.9036989442658553
 20
-2.4612132034355958
 30
0.406895300193157
 11
0.9029331244849123
 21
-2.4399999999999991
 31
0.3981419400424874
 12
0.9036989442658553
 22
-2.4187867965644032
 32
0.406895300193157
 13
0.9055477967673418
 23
-2.4700000000000002
 33
0.4280277809852401
  0
3DFACE
  5
2C4
  8
FRAME
 10
0.59
 20
-1.3400000000000001
 30
0.6800000000000002
 11
0.59
 21
-1.3400000000000001
 31
0.63
 12
0.59
 22
-1.26
 32
0.63
 13
0.59
 23
-1.26
 33
0.6800000000000002
  0
3DFACE
  5
2C5
  8
FRAME
 10
0.17
 20
-1.3799999999999999
 30
0.6800000000000002
 11
0.17
 21
-1.3799999999999999
 31
0.63
 12
0.59
 22
-1.3400000000000001
 32
0.63
 13
0.59
 23
-1.3400000000000001
 33
0.6800000000000002
  0
3DFACE
  5
2C6
  8
FRAME
 10
0.59
 20
-1.26
 30
0.6800000000000002
 11
0.59
 21
-1.26
 31
0.63
 12
0.17
 22
-1.2199999999999991
 32
0.63
 13
0.17
 23
-1.2199999999999991
 33
0.6800000000000002
  0
3DFACE
  5
2C7
  8
FRAME
 10
0.59
 20
-1.26
 30
0.63
 11
0.59
 21
-1.3400000000000001
 31
0.63
 12
0.17
 22
-1.3799999999999999
 32
0.63
 13
0.17
 23
-1.2199999999999991
 33
0.63
  0
3DFACE
  5
2C8
  8
FRAME
 10
0.17
 20
-1.2199999999999991
 30
0.6800000000000002
 11
0.17
 21
-1.3799999999999999
 31
0.6800000000000002
 12
0.59
 22
-1.3400000000000001
 32
0.6800000000000002
 13
0.59
 23
-1.26
 33
0.6800000000000002
  0
3DFACE
  5
2CC
  8
FRAME
 10
-0.17
 20
-1.3799999999999999
 30
0.6800000000000002
 11
-0.17
 21
-1.2199999999999991
 31
0.6800000000000002
 12
-0.59
 22
-1.2599999999999989
 32
0.6800000000000002
 13
-0.59
 23
-1.3400000000000001
 33
0.6800000000000002
  0
3DFACE
  5
2CD
  8
FRAME
 10
-0.17
 20
-1.2199999999999991
 30
0.6800000000000002
 11
-0.17
 21
-1.2199999999999991
 31
0.63
 12
-0.59
 22
-1.2599999999999989
 32
0.63
 13
-0.59
 23
-1.2599999999999989
 33
0.6800000000000002
  0
3DFACE
  5
2CE
  8
FRAME
 10
-0.59
 20
-1.2599999999999989
 30
0.6800000000000002
 11
-0.59
 21
-1.2599999999999989
 31
0.63
 12
-0.59
 22
-1.3400000000000001
 32
0.63
 13
-0.59
 23
-1.3400000000000001
 33
0.6800000000000002
  0
3DFACE
  5
2CF
  8
FRAME
 10
-0.59
 20
-1.3400000000000001
 30
0.6800000000000002
 11
-0.59
 21
-1.3400000000000001
 31
0.63
 12
-0.17
 22
-1.3799999999999999
 32
0.63
 13
-0.17
 23
-1.3799999999999999
 33
0.6800000000000002
  0
3DFACE
  5
2D1
  8
FRAME
 10
-0.59
 20
-1.3400000000000001
 30
0.63
 11
-0.59
 21
-1.2599999999999989
 31
0.63
 12
-0.17
 22
-1.2199999999999991
 32
0.63
 13
-0.17
 23
-1.3799999999999999
 33
0.63
  0
3DFACE
  5
2D3
  8
FRAME
 10
-0.11
 20
-1.3799999999999999
 30
0.63
 11
-0.11
 21
-1.2199999999999991
 31
0.63
 12
0.11
 22
-1.2199999999999991
 32
0.63
 13
0.11
 23
-1.3799999999999999
 33
0.63
  0
3DFACE
  5
2D4
  8
FRAME
 10
0.11
 20
-1.2199999999999991
 30
0.6800000000000002
 11
0.11
 21
-1.2199999999999991
 31
0.63
 12
-0.11
 22
-1.2199999999999991
 32
0.63
 13
-0.11
 23
-1.2199999999999991
 33
0.6800000000000002
  0
3DFACE
  5
2D5
  8
FRAME
 10
0.11
 20
-1.3799999999999999
 30
0.6800000000000002
 11
0.11
 21
-1.2199999999999991
 31
0.6800000000000002
 12
-0.11
 22
-1.2199999999999991
 32
0.6800000000000002
 13
-0.11
 23
-1.3799999999999999
 33
0.6800000000000002
  0
3DFACE
  5
2D7
  8
FRAME
 10
-0.11
 20
-1.3799999999999999
 30
0.6800000000000002
 11
-0.11
 21
-1.3799999999999999
 31
0.63
 12
0.11
 22
-1.3799999999999999
 32
0.63
 13
0.11
 23
-1.3799999999999999
 33
0.6800000000000002
  0
3DFACE
  5
2DF
  8
FRAME
 10
-0.03
 20
-2.71
 30
0.51
 11
-0.03
 21
-2.8700000000000001
 31
0.51
 12
-0.03
 22
-2.8700000000000001
 32
0.5400000000000002
 13
-0.03
 23
-2.77
 33
0.5400000000000002
  0
3DFACE
  5
2E0
  8
FRAME
 10
0.03
 20
-2.8700000000000001
 30
0.5400000000000002
 11
0.03
 21
-2.8700000000000001
 31
0.51
 12
0.03
 22
-2.71
 32
0.51
 13
0.03
 23
-2.77
 33
0.5400000000000002
  0
3DFACE
  5
2E1
  8
FRAME
 10
-0.03
 20
-2.8700000000000001
 30
0.5400000000000002
 11
-0.03
 21
-2.8700000000000001
 31
0.51
 12
0.03
 22
-2.8700000000000001
 32
0.51
 13
0.03
 23
-2.8700000000000001
 33
0.5400000000000002
  0
3DFACE
  5
2E3
  8
FRAME
 10
0.03
 20
-2.7099999999999991
 30
0.51
 11
0.03
 21
-2.8700000000000001
 31
0.51
 12
-0.03
 22
-2.8700000000000001
 32
0.51
 13
-0.03
 23
-2.7099999999999991
 33
0.51
  0
3DFACE
  5
2E4
  8
FRAME
 10
-0.03
 20
-2.77
 30
0.5400000000000002
 11
-0.03
 21
-2.8700000000000001
 31
0.5400000000000002
 12
0.03
 22
-2.8700000000000001
 32
0.5400000000000002
 13
0.03
 23
-2.77
 33
0.5400000000000002
  0
3DFACE
  5
2E7
  8
FRAME
 10
0.03
 20
-2.77
 30
0.5400000000000002
 11
0.03
 21
-2.71
 31
0.51
 12
0.03
 22
-2.669999999999999
 32
0.5600000000000001
 13
0.03
 23
-2.669999999999999
 33
0.6
  0
3DFACE
  5
2E8
  8
FRAME
 10
0.03
 20
-2.669999999999999
 30
0.5600000000000001
 11
0.03
 21
-2.71
 31
0.51
 12
-0.03
 22
-2.71
 32
0.51
 13
-0.03
 23
-2.669999999999999
 33
0.5600000000000001
  0
3DFACE
  5
2EA
  8
FRAME
 10
-0.03
 20
-2.669999999999999
 30
0.5600000000000001
 11
-0.03
 21
-2.71
 31
0.51
 12
-0.03
 22
-2.77
 32
0.5400000000000002
 13
-0.03
 23
-2.669999999999999
 33
0.6
  0
3DFACE
  5
2EC
  8
FRAME
 10
-0.03
 20
-2.669999999999999
 30
0.6
 11
-0.03
 21
-2.77
 31
0.5400000000000002
 12
0.03
 22
-2.77
 32
0.5400000000000002
 13
0.03
 23
-2.669999999999999
 33
0.6
  0
3DFACE
  5
32A
  8
FRAME
 10
0.03
 20
-2.839999999999999
 30
0.59
 11
0.0212132034355964
 21
-2.8187867965644031
 31
0.59
 12
0.014142135623731
 22
-2.825857864376268
 32
0.61
 13
0.02
 23
-2.839999999999999
 33
0.61
  0
3DFACE
  5
32B
  8
FRAME
 10
0.0212132034355964
 20
-2.8187867965644031
 30
0.59
 11
0.0
 21
-2.8100000000000001
 31
0.59
 12
0.0
 22
-2.819999999999999
 32
0.61
 13
0.014142135623731
 23
-2.825857864376268
 33
0.61
  0
3DFACE
  5
32C
  8
FRAME
 10
0.0
 20
-2.8100000000000001
 30
0.59
 11
-0.0212132034355964
 21
-2.8187867965644031
 31
0.59
 12
-0.014142135623731
 22
-2.825857864376268
 32
0.61
 13
0.0
 23
-2.819999999999999
 33
0.61
  0
3DFACE
  5
32D
  8
FRAME
 10
-0.0212132034355964
 20
-2.8187867965644031
 30
0.59
 11
-0.03
 21
-2.839999999999999
 31
0.59
 12
-0.02
 22
-2.839999999999999
 32
0.61
 13
-0.014142135623731
 23
-2.825857864376268
 33
0.61
  0
3DFACE
  5
32E
  8
FRAME
 10
-0.03
 20
-2.839999999999999
 30
0.59
 11
-0.0212132034355964
 21
-2.8612132034355962
 31
0.59
 12
-0.014142135623731
 22
-2.85414213562373
 32
0.61
 13
-0.02
 23
-2.839999999999999
 33
0.61
  0
3DFACE
  5
32F
  8
FRAME
 10
-0.0212132034355964
 20
-2.8612132034355962
 30
0.59
 11
0.0
 21
-2.8699999999999992
 31
0.59
 12
0.0
 22
-2.859999999999999
 32
0.61
 13
-0.014142135623731
 23
-2.85414213562373
 33
0.61
  0
3DFACE
  5
330
  8
FRAME
 10
0.0
 20
-2.8699999999999992
 30
0.59
 11
0.0212132034355964
 21
-2.8612132034355962
 31
0.59
 12
0.014142135623731
 22
-2.85414213562373
 32
0.61
 13
0.0
 23
-2.859999999999999
 33
0.61
  0
3DFACE
  5
331
  8
FRAME
 10
0.0212132034355964
 20
-2.8612132034355962
 30
0.59
 11
0.03
 21
-2.839999999999999
 31
0.59
 12
0.02
 22
-2.839999999999999
 32
0.61
 13
0.014142135623731
 23
-2.85414213562373
 33
0.61
  0
3DFACE
  5
332
  8
FRAME
 10
0.02
 20
-2.839999999999999
 30
0.61
 11
0.014142135623731
 21
-2.825857864376268
 31
0.61
 12
0.014142135623731
 22
-2.825857864376268
 32
0.6800000000000001
 13
0.02
 23
-2.839999999999999
 33
0.6800000000000001
  0
3DFACE
  5
333
  8
FRAME
 10
0.014142135623731
 20
-2.825857864376268
 30
0.61
 11
0.0
 21
-2.819999999999999
 31
0.61
 12
0.0
 22
-2.819999999999999
 32
0.6800000000000001
 13
0.014142135623731
 23
-2.825857864376268
 33
0.6800000000000001
  0
3DFACE
  5
334
  8
FRAME
 10
0.0
 20
-2.819999999999999
 30
0.61
 11
-0.014142135623731
 21
-2.825857864376268
 31
0.61
 12
-0.014142135623731
 22
-2.825857864376268
 32
0.6800000000000001
 13
0.0
 23
-2.819999999999999
 33
0.6800000000000001
  0
3DFACE
  5
335
  8
FRAME
 10
-0.014142135623731
 20
-2.825857864376268
 30
0.61
 11
-0.02
 21
-2.839999999999999
 31
0.61
 12
-0.02
 22
-2.839999999999999
 32
0.6800000000000001
 13
-0.014142135623731
 23
-2.825857864376268
 33
0.6800000000000001
  0
3DFACE
  5
336
  8
FRAME
 10
-0.02
 20
-2.839999999999999
 30
0.61
 11
-0.014142135623731
 21
-2.85414213562373
 31
0.61
 12
-0.014142135623731
 22
-2.85414213562373
 32
0.6800000000000001
 13
-0.02
 23
-2.839999999999999
 33
0.6800000000000001
  0
3DFACE
  5
337
  8
FRAME
 10
-0.014142135623731
 20
-2.85414213562373
 30
0.61
 11
0.0
 21
-2.859999999999999
 31
0.61
 12
0.0
 22
-2.859999999999999
 32
0.6800000000000001
 13
-0.014142135623731
 23
-2.85414213562373
 33
0.6800000000000001
  0
3DFACE
  5
338
  8
FRAME
 10
0.0
 20
-2.859999999999999
 30
0.61
 11
0.014142135623731
 21
-2.85414213562373
 31
0.61
 12
0.014142135623731
 22
-2.85414213562373
 32
0.6800000000000001
 13
0.0
 23
-2.859999999999999
 33
0.6800000000000001
  0
3DFACE
  5
339
  8
FRAME
 10
0.014142135623731
 20
-2.85414213562373
 30
0.61
 11
0.02
 21
-2.839999999999999
 31
0.61
 12
0.02
 22
-2.839999999999999
 32
0.6800000000000001
 13
0.014142135623731
 23
-2.85414213562373
 33
0.6800000000000001
  0
3DFACE
  5
33A
  8
FRAME
 10
0.03
 20
-2.8399999999999999
 30
0.5400000000000002
 11
0.0212132034355964
 21
-2.818786796564404
 31
0.5400000000000002
 12
0.0212132034355964
 22
-2.818786796564404
 32
0.59
 13
0.03
 23
-2.8399999999999999
 33
0.59
  0
3DFACE
  5
33B
  8
FRAME
 10
0.0212132034355964
 20
-2.818786796564404
 30
0.5400000000000002
 11
0.0
 21
-2.8100000000000001
 31
0.5400000000000002
 12
0.0
 22
-2.8100000000000001
 32
0.59
 13
0.0212132034355964
 23
-2.818786796564404
 33
0.59
  0
3DFACE
  5
33C
  8
FRAME
 10
0.0
 20
-2.8100000000000001
 30
0.5400000000000002
 11
-0.0212132034355964
 21
-2.818786796564404
 31
0.5400000000000002
 12
-0.0212132034355964
 22
-2.818786796564404
 32
0.59
 13
0.0
 23
-2.8100000000000001
 33
0.59
  0
3DFACE
  5
33D
  8
FRAME
 10
-0.0212132034355964
 20
-2.818786796564404
 30
0.5400000000000002
 11
-0.03
 21
-2.8399999999999999
 31
0.5400000000000002
 12
-0.03
 22
-2.8399999999999999
 32
0.59
 13
-0.0212132034355964
 23
-2.818786796564404
 33
0.59
  0
3DFACE
  5
33E
  8
FRAME
 10
-0.03
 20
-2.8399999999999999
 30
0.5400000000000002
 11
-0.0212132034355964
 21
-2.8612132034355962
 31
0.5400000000000002
 12
-0.0212132034355964
 22
-2.8612132034355962
 32
0.59
 13
-0.03
 23
-2.8399999999999999
 33
0.59
  0
3DFACE
  5
33F
  8
FRAME
 10
-0.0212132034355964
 20
-2.8612132034355962
 30
0.5400000000000002
 11
0.0
 21
-2.8700000000000001
 31
0.5400000000000002
 12
0.0
 22
-2.8700000000000001
 32
0.59
 13
-0.0212132034355964
 23
-2.8612132034355962
 33
0.59
  0
3DFACE
  5
340
  8
FRAME
 10
0.0
 20
-2.8700000000000001
 30
0.5400000000000002
 11
0.0212132034355964
 21
-2.8612132034355962
 31
0.5400000000000002
 12
0.0212132034355964
 22
-2.8612132034355962
 32
0.59
 13
0.0
 23
-2.8700000000000001
 33
0.59
  0
3DFACE
  5
341
  8
FRAME
 10
0.0212132034355964
 20
-2.8612132034355962
 30
0.5400000000000002
 11
0.03
 21
-2.8399999999999999
 31
0.5400000000000002
 12
0.03
 22
-2.8399999999999999
 32
0.59
 13
0.0212132034355964
 23
-2.8612132034355962
 33
0.59
  0
3DFACE
  5
342
  8
FRAME
 10
0.0
 20
-2.819999999999999
 30
0.6800000000000001
 11
-0.014142135623731
 21
-2.825857864376268
 31
0.6800000000000001
 12
-0.02
 22
-2.839999999999999
 32
0.6800000000000001
 13
0.014142135623731
 23
-2.825857864376268
 33
0.6800000000000001
  0
3DFACE
  5
343
  8
FRAME
 10
0.014142135623731
 20
-2.825857864376268
 30
0.6800000000000001
 11
-0.02
 21
-2.839999999999999
 31
0.6800000000000001
 12
-0.014142135623731
 22
-2.85414213562373
 32
0.6800000000000001
 13
0.02
 23
-2.839999999999999
 33
0.6800000000000001
  0
3DFACE
  5
344
  8
FRAME
 10
0.02
 20
-2.839999999999999
 30
0.6800000000000001
 11
-0.014142135623731
 21
-2.85414213562373
 31
0.6800000000000001
 12
0.0
 22
-2.859999999999999
 32
0.6800000000000001
 13
0.014142135623731
 23
-2.85414213562373
 33
0.6800000000000001
  0
3DFACE
  5
348
  8
FRAME
 10
-0.4
 20
2.399999999999999
 30
0.6200000000000001
 11
-0.4
 21
1.919999999999999
 31
0.6200000000000001
 12
-0.4
 22
1.0600000000000001
 32
0.6800000000000002
 13
-0.4
 23
2.399999999999999
 33
0.6800000000000002
  0
3DFACE
  5
349
  8
FRAME
 10
-0.3399999999999999
 20
1.0600000000000001
 30
0.6800000000000002
 11
-0.3399999999999999
 21
1.919999999999999
 31
0.6200000000000001
 12
-0.3399999999999999
 22
2.399999999999999
 32
0.6200000000000001
 13
-0.3399999999999999
 23
2.399999999999999
 33
0.6800000000000002
  0
3DFACE
  5
34C
  8
FRAME
 10
-0.3399999999999999
 20
2.399999999999999
 30
0.6200000000000001
 11
-0.3399999999999999
 21
1.919999999999999
 31
0.6200000000000001
 12
-0.4
 22
1.919999999999999
 32
0.6200000000000001
 13
-0.4
 23
2.399999999999999
 33
0.6200000000000001
  0
3DFACE
  5
34D
  8
FRAME
 10
-0.4
 20
2.399999999999999
 30
0.6800000000000002
 11
-0.4
 21
1.0600000000000001
 31
0.6800000000000002
 12
-0.3399999999999999
 22
1.0600000000000001
 32
0.6800000000000002
 13
-0.3399999999999999
 23
2.399999999999999
 33
0.6800000000000002
  0
3DFACE
  5
34F
  8
FRAME
 10
0.4
 20
1.0600000000000001
 30
0.6800000000000002
 11
0.4
 21
1.919999999999999
 31
0.6200000000000001
 12
0.4
 22
2.399999999999999
 32
0.6200000000000001
 13
0.4
 23
2.399999999999999
 33
0.6800000000000002
  0
3DFACE
  5
350
  8
FRAME
 10
0.3399999999999999
 20
2.399999999999999
 30
0.6800000000000002
 11
0.3399999999999999
 21
1.0600000000000001
 31
0.6800000000000002
 12
0.4
 22
1.0600000000000001
 32
0.6800000000000002
 13
0.4
 23
2.399999999999999
 33
0.6800000000000002
  0
3DFACE
  5
352
  8
FRAME
 10
0.4
 20
2.399999999999999
 30
0.6200000000000001
 11
0.4
 21
1.919999999999999
 31
0.6200000000000001
 12
0.3399999999999999
 22
1.919999999999999
 32
0.6200000000000001
 13
0.3399999999999999
 23
2.399999999999999
 33
0.6200000000000001
  0
3DFACE
  5
353
  8
FRAME
 10
0.3399999999999999
 20
2.399999999999999
 30
0.6200000000000001
 11
0.3399999999999999
 21
1.919999999999999
 31
0.6200000000000001
 12
0.3399999999999999
 22
1.0600000000000001
 32
0.6800000000000002
 13
0.3399999999999999
 23
2.399999999999999
 33
0.6800000000000002
  0
3DFACE
  5
355
  8
FRAME
 10
0.4000000000000004
 20
2.5196712783298811
 30
0.6165393478504874
 11
0.4000000000000004
 21
2.4810342452783192
 31
0.6061865860463868
 12
-0.3999999999999995
 22
2.4810342452783192
 32
0.6061865860463868
 13
-0.3999999999999995
 23
2.5196712783298811
 33
0.6165393478504874
  0
3DFACE
  5
356
  8
FRAME
 10
-0.3999999999999995
 20
2.4603287216701171
 30
0.6834606521495127
 11
0.4000000000000004
 21
2.4603287216701171
 31
0.6834606521495127
 12
0.4000000000000004
 22
2.498965754721679
 32
0.6938134139536136
 13
-0.3999999999999995
 23
2.498965754721679
 33
0.6938134139536136
  0
3DFACE
  5
357
  8
FRAME
 10
-0.3999999999999995
 20
2.4810342452783192
 30
0.6061865860463868
 11
0.4000000000000004
 21
2.4810342452783192
 31
0.6061865860463868
 12
0.4000000000000004
 22
2.4603287216701171
 32
0.6834606521495127
 13
-0.3999999999999995
 23
2.4603287216701171
 33
0.6834606521495127
  0
3DFACE
  5
358
  8
FRAME
 10
-0.3999999999999995
 20
2.498965754721679
 30
0.6938134139536136
 11
0.4000000000000004
 21
2.498965754721679
 31
0.6938134139536136
 12
0.4000000000000004
 22
2.5196712783298811
 32
0.6165393478504874
 13
-0.3999999999999995
 23
2.5196712783298811
 33
0.6165393478504874
  0
3DFACE
  5
35D
  8
FRAME
 10
-0.5800000000000001
 20
2.4410102051443352
 30
0.6782842712474623
 11
-0.3999999999999995
 21
2.4603287216701171
 31
0.6834606521495127
 12
-0.3999999999999995
 22
2.498965754721679
 32
0.6938134139536136
 13
-0.5800000000000001
 23
2.4796472381958981
 33
0.6886370330515632
  0
3DFACE
  5
35E
  8
FRAME
 10
-0.3999999999999995
 20
2.5196712783298811
 30
0.6165393478504874
 11
-0.3999999999999995
 21
2.4810342452783192
 31
0.6061865860463868
 12
-0.5800000000000001
 22
2.4617157287525369
 32
0.6010102051443365
 13
-0.5800000000000001
 23
2.5003527618041002
 33
0.6113629669484372
  0
3DFACE
  5
360
  8
FRAME
 10
-0.5800000000000001
 20
2.4617157287525369
 30
0.6010102051443365
 11
-0.3999999999999995
 21
2.4810342452783192
 31
0.6061865860463868
 12
-0.3999999999999995
 22
2.4603287216701171
 32
0.6834606521495127
 13
-0.5800000000000001
 23
2.4410102051443352
 33
0.6782842712474623
  0
3DFACE
  5
361
  8
FRAME
 10
-0.5800000000000001
 20
2.4796472381958981
 30
0.6886370330515632
 11
-0.3999999999999995
 21
2.498965754721679
 31
0.6938134139536136
 12
-0.3999999999999995
 22
2.5196712783298811
 32
0.6165393478504874
 13
-0.5800000000000001
 23
2.5003527618041002
 33
0.6113629669484372
  0
3DFACE
  5
364
  8
FRAME
 10
-0.7000000000000002
 20
2.4327379539638661
 30
0.5932456337912608
 11
-0.5800000000000001
 21
2.4617157287525369
 31
0.6010102051443365
 12
-0.5800000000000001
 22
2.4410102051443352
 32
0.6782842712474623
 13
-0.7000000000000002
 23
2.4120324303556631
 33
0.6705196998943866
  0
3DFACE
  5
365
  8
FRAME
 10
-0.5800000000000001
 20
2.5003527618041002
 30
0.6113629669484372
 11
-0.5800000000000001
 21
2.4617157287525369
 31
0.6010102051443365
 12
-0.7000000000000002
 22
2.4327379539638661
 32
0.5932456337912608
 13
-0.7000000000000002
 23
2.4810342452783192
 33
0.6061865860463868
  0
3DFACE
  5
366
  8
FRAME
 10
-0.7000000000000002
 20
2.4120324303556631
 30
0.6705196998943866
 11
-0.5800000000000001
 21
2.4410102051443352
 31
0.6782842712474623
 12
-0.5800000000000001
 22
2.4796472381958981
 32
0.6886370330515632
 13
-0.7000000000000002
 23
2.4603287216701171
 33
0.6834606521495127
  0
3DFACE
  5
367
  8
FRAME
 10
-0.7000000000000002
 20
2.4603287216701171
 30
0.6834606521495127
 11
-0.5800000000000001
 21
2.4796472381958981
 31
0.6886370330515632
 12
-0.5800000000000001
 22
2.5003527618041002
 32
0.6113629669484372
 13
-0.7000000000000002
 23
2.4810342452783192
 33
0.6061865860463868
  0
3DFACE
  5
36B
  8
FRAME
 10
-0.7999999999999999
 20
2.4313509468814449
 30
0.6756960807964371
 11
-0.7000000000000002
 21
2.4603287216701171
 31
0.6834606521495127
 12
-0.7000000000000002
 22
2.4810342452783192
 32
0.6061865860463868
 13
-0.7999999999999999
 23
2.452056470489647
 33
0.5984220146933112
  0
3DFACE
  5
36C
  8
FRAME
 10
-0.7000000000000002
 20
2.4810342452783192
 30
0.6061865860463868
 11
-0.7000000000000002
 21
2.4327379539638661
 31
0.5932456337912608
 12
-0.7999999999999999
 22
2.403760179175193
 32
0.5854810624381851
 13
-0.7999999999999999
 23
2.452056470489647
 33
0.5984220146933112
  0
3DFACE
  5
36D
  8
FRAME
 10
-0.7999999999999999
 20
2.3830546555669909
 30
0.6627551285413111
 11
-0.7000000000000002
 21
2.4120324303556631
 31
0.6705196998943866
 12
-0.7000000000000002
 22
2.4603287216701171
 32
0.6834606521495127
 13
-0.7999999999999999
 23
2.4313509468814449
 33
0.6756960807964371
  0
3DFACE
  5
36E
  8
FRAME
 10
-0.7999999999999999
 20
2.403760179175193
 30
0.5854810624381851
 11
-0.7000000000000002
 21
2.4327379539638661
 31
0.5932456337912608
 12
-0.7000000000000002
 22
2.4120324303556631
 32
0.6705196998943866
 13
-0.7999999999999999
 23
2.3830546555669909
 33
0.6627551285413111
  0
3DFACE
  5
370
  8
FRAME
 10
-0.7999999999999999
 20
2.452056470489647
 30
0.5984220146933112
 11
-0.7999999999999999
 21
2.403760179175193
 31
0.5854810624381851
 12
-0.7999999999999999
 22
2.3830546555669909
 32
0.6627551285413111
 13
-0.7999999999999999
 23
2.4313509468814449
 33
0.6756960807964371
  0
3DFACE
  5
372
  8
FRAME
 10
0.580000000000001
 20
2.4617157287525369
 30
0.6010102051443365
 11
0.4000000000000004
 21
2.4810342452783192
 31
0.6061865860463868
 12
0.4000000000000004
 22
2.5196712783298811
 32
0.6165393478504874
 13
0.580000000000001
 23
2.5003527618041002
 33
0.6113629669484372
  0
3DFACE
  5
373
  8
FRAME
 10
0.580000000000001
 20
2.5003527618041002
 30
0.6113629669484372
 11
0.4000000000000004
 21
2.5196712783298811
 31
0.6165393478504874
 12
0.4000000000000004
 22
2.498965754721679
 32
0.6938134139536136
 13
0.580000000000001
 23
2.4796472381958981
 33
0.6886370330515632
  0
3DFACE
  5
374
  8
FRAME
 10
0.580000000000001
 20
2.4410102051443352
 30
0.6782842712474623
 11
0.4000000000000004
 21
2.4603287216701171
 31
0.6834606521495127
 12
0.4000000000000004
 22
2.4810342452783192
 32
0.6061865860463868
 13
0.580000000000001
 23
2.4617157287525369
 33
0.6010102051443365
  0
3DFACE
  5
375
  8
FRAME
 10
0.8000000000000007
 20
2.4313509468814449
 30
0.6756960807964371
 11
0.8000000000000007
 21
2.3830546555669909
 31
0.6627551285413111
 12
0.8000000000000007
 22
2.403760179175193
 32
0.5854810624381851
 13
0.8000000000000007
 23
2.452056470489647
 33
0.5984220146933112
  0
3DFACE
  5
376
  8
FRAME
 10
0.8000000000000007
 20
2.3830546555669909
 30
0.6627551285413111
 11
0.7000000000000011
 21
2.4120324303556631
 31
0.6705196998943866
 12
0.7000000000000011
 22
2.4327379539638661
 32
0.5932456337912608
 13
0.8000000000000007
 23
2.403760179175193
 33
0.5854810624381851
  0
3DFACE
  5
377
  8
FRAME
 10
0.8000000000000007
 20
2.452056470489647
 30
0.5984220146933112
 11
0.7000000000000011
 21
2.4810342452783192
 31
0.6061865860463868
 12
0.7000000000000011
 22
2.4603287216701171
 32
0.6834606521495127
 13
0.8000000000000007
 23
2.4313509468814449
 33
0.6756960807964371
  0
3DFACE
  5
37A
  8
FRAME
 10
0.7000000000000011
 20
2.4120324303556631
 30
0.6705196998943866
 11
0.580000000000001
 21
2.4410102051443352
 31
0.6782842712474623
 12
0.580000000000001
 22
2.4617157287525369
 32
0.6010102051443365
 13
0.7000000000000011
 23
2.4327379539638661
 33
0.5932456337912608
  0
3DFACE
  5
37B
  8
FRAME
 10
0.7000000000000011
 20
2.4810342452783192
 30
0.6061865860463868
 11
0.580000000000001
 21
2.5003527618041002
 31
0.6113629669484372
 12
0.580000000000001
 22
2.4796472381958981
 32
0.6886370330515632
 13
0.7000000000000011
 23
2.4603287216701171
 33
0.6834606521495127
  0
3DFACE
  5
37E
  8
FRAME
 10
0.8000000000000007
 20
2.403760179175193
 30
0.5854810624381851
 11
0.7000000000000011
 21
2.4327379539638661
 31
0.5932456337912608
 12
0.7000000000000011
 22
2.4810342452783192
 32
0.6061865860463868
 13
0.8000000000000007
 23
2.452056470489647
 33
0.5984220146933112
  0
3DFACE
  5
37F
  8
FRAME
 10
0.7000000000000011
 20
2.4327379539638661
 30
0.5932456337912608
 11
0.580000000000001
 21
2.4617157287525369
 31
0.6010102051443365
 12
0.580000000000001
 22
2.5003527618041002
 32
0.6113629669484372
 13
0.7000000000000011
 23
2.4810342452783192
 33
0.6061865860463868
  0
3DFACE
  5
380
  8
FRAME
 10
0.4000000000000004
 20
2.498965754721679
 30
0.6938134139536136
 11
0.4000000000000004
 21
2.4603287216701171
 31
0.6834606521495127
 12
0.580000000000001
 22
2.4410102051443352
 32
0.6782842712474623
 13
0.580000000000001
 23
2.4796472381958981
 33
0.6886370330515632
  0
3DFACE
  5
382
  8
FRAME
 10
0.7000000000000011
 20
2.4603287216701171
 30
0.6834606521495127
 11
0.7000000000000011
 21
2.4120324303556631
 31
0.6705196998943866
 12
0.8000000000000007
 22
2.3830546555669909
 32
0.6627551285413111
 13
0.8000000000000007
 23
2.4313509468814449
 33
0.6756960807964371
  0
3DFACE
  5
383
  8
FRAME
 10
0.580000000000001
 20
2.4796472381958981
 30
0.6886370330515632
 11
0.580000000000001
 21
2.4410102051443352
 31
0.6782842712474623
 12
0.7000000000000011
 22
2.4120324303556631
 32
0.6705196998943866
 13
0.7000000000000011
 23
2.4603287216701171
 33
0.6834606521495127
  0
3DFACE
  5
5CE
  8
FRAME
 10
0.71
 20
-0.88
 30
0.4200000000000001
 11
0.71
 21
-0.855
 31
0.4633012701892219
 12
-0.71
 22
-0.855
 32
0.4633012701892219
 13
-0.71
 23
-0.88
 33
0.4200000000000001
  0
3DFACE
  5
5CF
  8
FRAME
 10
0.71
 20
-0.855
 30
0.4633012701892219
 11
0.71
 21
-0.8050000000000001
 31
0.4633012701892219
 12
-0.71
 22
-0.8050000000000001
 32
0.4633012701892219
 13
-0.71
 23
-0.855
 33
0.4633012701892219
  0
3DFACE
  5
5D0
  8
FRAME
 10
0.71
 20
-0.8050000000000001
 30
0.4633012701892219
 11
0.71
 21
-0.7800000000000001
 31
0.4200000000000001
 12
-0.71
 22
-0.7800000000000001
 32
0.4200000000000001
 13
-0.71
 23
-0.8050000000000001
 33
0.4633012701892219
  0
3DFACE
  5
5D1
  8
FRAME
 10
0.71
 20
-0.7800000000000001
 30
0.4200000000000001
 11
0.71
 21
-0.8050000000000001
 31
0.376698729810778
 12
-0.71
 22
-0.8050000000000001
 32
0.376698729810778
 13
-0.71
 23
-0.7800000000000001
 33
0.4200000000000001
  0
3DFACE
  5
5D2
  8
FRAME
 10
0.71
 20
-0.8050000000000001
 30
0.376698729810778
 11
0.71
 21
-0.855
 31
0.376698729810778
 12
-0.71
 22
-0.855
 32
0.376698729810778
 13
-0.71
 23
-0.8050000000000001
 33
0.376698729810778
  0
3DFACE
  5
5D3
  8
FRAME
 10
0.71
 20
-0.855
 30
0.376698729810778
 11
0.71
 21
-0.88
 31
0.4200000000000001
 12
-0.71
 22
-0.88
 32
0.4200000000000001
 13
-0.71
 23
-0.855
 33
0.376698729810778
  0
3DFACE
  5
5D4
  8
FRAME
 10
0.11
 20
-0.7200000000000001
 30
0.4200000000000001
 11
0.0777817459305203
 21
-0.7200000000000001
 31
0.4977817459305202
 12
0.0777817459305203
 22
-0.9200000000000002
 32
0.4977817459305202
 13
0.11
 23
-0.9200000000000002
 33
0.4200000000000001
  0
3DFACE
  5
5D5
  8
FRAME
 10
0.0777817459305203
 20
-0.7200000000000001
 30
0.4977817459305202
 11
0.0
 21
-0.7200000000000001
 31
0.5300000000000001
 12
0.0
 22
-0.9200000000000002
 32
0.5300000000000001
 13
0.0777817459305203
 23
-0.9200000000000002
 33
0.4977817459305202
  0
3DFACE
  5
5D6
  8
FRAME
 10
0.0
 20
-0.7200000000000001
 30
0.5300000000000001
 11
-0.0777817459305202
 21
-0.7200000000000001
 31
0.4977817459305202
 12
-0.0777817459305202
 22
-0.9200000000000002
 32
0.4977817459305202
 13
0.0
 23
-0.9200000000000002
 33
0.5300000000000001
  0
3DFACE
  5
5D7
  8
FRAME
 10
-0.0777817459305202
 20
-0.7200000000000001
 30
0.4977817459305202
 11
-0.11
 21
-0.7200000000000001
 31
0.4200000000000001
 12
-0.11
 22
-0.9200000000000002
 32
0.4200000000000001
 13
-0.0777817459305202
 23
-0.9200000000000002
 33
0.4977817459305202
  0
3DFACE
  5
5D8
  8
FRAME
 10
-0.11
 20
-0.7200000000000001
 30
0.4200000000000001
 11
-0.0777817459305203
 21
-0.7200000000000001
 31
0.3422182540694798
 12
-0.0777817459305203
 22
-0.9200000000000002
 32
0.3422182540694798
 13
-0.11
 23
-0.9200000000000002
 33
0.4200000000000001
  0
3DFACE
  5
5D9
  8
FRAME
 10
-0.0777817459305203
 20
-0.7200000000000001
 30
0.3422182540694798
 11
0.0
 21
-0.7200000000000001
 31
0.31
 12
0.0
 22
-0.9200000000000002
 32
0.31
 13
-0.0777817459305203
 23
-0.9200000000000002
 33
0.3422182540694798
  0
3DFACE
  5
5DA
  8
FRAME
 10
0.0
 20
-0.7200000000000001
 30
0.31
 11
0.0777817459305202
 21
-0.7200000000000001
 31
0.3422182540694798
 12
0.0777817459305202
 22
-0.9200000000000002
 32
0.3422182540694798
 13
0.0
 23
-0.9200000000000002
 33
0.31
  0
3DFACE
  5
5DB
  8
FRAME
 10
0.0777817459305202
 20
-0.7200000000000001
 30
0.3422182540694798
 11
0.11
 21
-0.7200000000000001
 31
0.4200000000000001
 12
0.11
 22
-0.9200000000000002
 32
0.4200000000000001
 13
0.0777817459305202
 23
-0.9200000000000002
 33
0.3422182540694798
  0
3DFACE
  5
716
  8
FRAME
 10
0.71
 20
-1.794999999999999
 30
0.376698729810778
 11
0.71
 21
-1.8200000000000001
 31
0.4200000000000001
 12
-0.7099999999999999
 22
-1.8200000000000001
 32
0.4200000000000001
 13
-0.7099999999999999
 23
-1.794999999999999
 33
0.376698729810778
  0
3DFACE
  5
717
  8
FRAME
 10
0.71
 20
-1.7450000000000001
 30
0.376698729810778
 11
0.71
 21
-1.794999999999999
 31
0.376698729810778
 12
-0.7099999999999999
 22
-1.794999999999999
 32
0.376698729810778
 13
-0.7099999999999999
 23
-1.7450000000000001
 33
0.376698729810778
  0
3DFACE
  5
718
  8
FRAME
 10
0.71
 20
-1.7199999999999991
 30
0.4200000000000001
 11
0.71
 21
-1.7450000000000001
 31
0.376698729810778
 12
-0.7099999999999999
 22
-1.7450000000000001
 32
0.376698729810778
 13
-0.7099999999999999
 23
-1.7199999999999991
 33
0.4200000000000001
  0
3DFACE
  5
719
  8
FRAME
 10
0.71
 20
-1.7450000000000001
 30
0.4633012701892219
 11
0.71
 21
-1.7199999999999991
 31
0.4200000000000001
 12
-0.7099999999999999
 22
-1.7199999999999991
 32
0.4200000000000001
 13
-0.7099999999999999
 23
-1.7450000000000001
 33
0.4633012701892219
  0
3DFACE
  5
71A
  8
FRAME
 10
0.71
 20
-1.794999999999999
 30
0.4633012701892219
 11
0.71
 21
-1.7450000000000001
 31
0.4633012701892219
 12
-0.7099999999999999
 22
-1.7450000000000001
 32
0.4633012701892219
 13
-0.7099999999999999
 23
-1.794999999999999
 33
0.4633012701892219
  0
3DFACE
  5
71B
  8
FRAME
 10
0.71
 20
-1.8200000000000001
 30
0.4200000000000001
 11
0.71
 21
-1.794999999999999
 31
0.4633012701892219
 12
-0.7099999999999999
 22
-1.794999999999999
 32
0.4633012701892219
 13
-0.7099999999999999
 23
-1.8200000000000001
 33
0.4200000000000001
  0
3DFACE
  5
71C
  8
FRAME
 10
-0.11
 20
-1.6599999999999999
 30
0.4200000000000001
 11
-0.0777817459305202
 21
-1.6599999999999999
 31
0.3422182540694798
 12
-0.0777817459305202
 22
-1.859999999999999
 32
0.3422182540694798
 13
-0.11
 23
-1.859999999999999
 33
0.4200000000000001
  0
3DFACE
  5
71D
  8
FRAME
 10
-0.0777817459305202
 20
-1.6599999999999999
 30
0.3422182540694798
 11
0.0
 21
-1.6599999999999999
 31
0.31
 12
0.0
 22
-1.859999999999999
 32
0.31
 13
-0.0777817459305202
 23
-1.859999999999999
 33
0.3422182540694798
  0
3DFACE
  5
71E
  8
FRAME
 10
-0.0777817459305202
 20
-1.6599999999999999
 30
0.4977817459305202
 11
-0.11
 21
-1.6599999999999999
 31
0.4200000000000001
 12
-0.11
 22
-1.859999999999999
 32
0.4200000000000001
 13
-0.0777817459305202
 23
-1.859999999999999
 33
0.4977817459305202
  0
3DFACE
  5
71F
  8
FRAME
 10
0.0
 20
-1.6599999999999999
 30
0.5300000000000001
 11
-0.0777817459305202
 21
-1.6599999999999999
 31
0.4977817459305202
 12
-0.0777817459305202
 22
-1.859999999999999
 32
0.4977817459305202
 13
0.0
 23
-1.859999999999999
 33
0.5300000000000001
  0
3DFACE
  5
720
  8
FRAME
 10
0.0777817459305202
 20
-1.6599999999999999
 30
0.3422182540694798
 11
0.11
 21
-1.6599999999999999
 31
0.4200000000000001
 12
0.11
 22
-1.859999999999999
 32
0.4200000000000001
 13
0.0777817459305202
 23
-1.859999999999999
 33
0.3422182540694798
  0
3DFACE
  5
721
  8
FRAME
 10
0.0
 20
-1.6599999999999999
 30
0.31
 11
0.0777817459305202
 21
-1.6599999999999999
 31
0.3422182540694798
 12
0.0777817459305202
 22
-1.859999999999999
 32
0.3422182540694798
 13
0.0
 23
-1.859999999999999
 33
0.31
  0
3DFACE
  5
722
  8
FRAME
 10
0.0777817459305202
 20
-1.6599999999999999
 30
0.4977817459305202
 11
0.0
 21
-1.6599999999999999
 31
0.5300000000000001
 12
0.0
 22
-1.859999999999999
 32
0.5300000000000001
 13
0.0777817459305202
 23
-1.859999999999999
 33
0.4977817459305202
  0
3DFACE
  5
723
  8
FRAME
 10
0.11
 20
-1.6599999999999999
 30
0.4200000000000001
 11
0.0777817459305202
 21
-1.6599999999999999
 31
0.4977817459305202
 12
0.0777817459305202
 22
-1.859999999999999
 32
0.4977817459305202
 13
0.11
 23
-1.859999999999999
 33
0.4200000000000001
  0
3DFACE
  5
751
  8
FRAME
 10
0.03
 20
-0.9200000000000002
 30
0.4200000000000001
 11
0.0212132034355964
 21
-0.9200000000000002
 31
0.4412132034355964
 12
0.0212132034355964
 22
-1.6599999999999999
 32
0.4412132034355964
 13
0.03
 23
-1.6599999999999999
 33
0.4200000000000001
  0
3DFACE
  5
752
  8
FRAME
 10
0.0212132034355964
 20
-0.9200000000000002
 30
0.4412132034355964
 11
0.0
 21
-0.9200000000000002
 31
0.45
 12
0.0
 22
-1.6599999999999999
 32
0.45
 13
0.0212132034355964
 23
-1.6599999999999999
 33
0.4412132034355964
  0
3DFACE
  5
753
  8
FRAME
 10
0.0
 20
-0.9200000000000002
 30
0.45
 11
-0.0212132034355964
 21
-0.9200000000000002
 31
0.4412132034355964
 12
-0.0212132034355964
 22
-1.6599999999999999
 32
0.4412132034355964
 13
0.0
 23
-1.6599999999999999
 33
0.45
  0
3DFACE
  5
754
  8
FRAME
 10
-0.0212132034355964
 20
-0.9200000000000002
 30
0.4412132034355964
 11
-0.03
 21
-0.9200000000000002
 31
0.4200000000000001
 12
-0.03
 22
-1.6599999999999999
 32
0.4200000000000001
 13
-0.0212132034355964
 23
-1.6599999999999999
 33
0.4412132034355964
  0
3DFACE
  5
755
  8
FRAME
 10
-0.03
 20
-0.9200000000000002
 30
0.4200000000000001
 11
-0.0212132034355964
 21
-0.9200000000000002
 31
0.3987867965644036
 12
-0.0212132034355964
 22
-1.6599999999999999
 32
0.3987867965644036
 13
-0.03
 23
-1.6599999999999999
 33
0.4200000000000001
  0
3DFACE
  5
756
  8
FRAME
 10
-0.0212132034355964
 20
-0.9200000000000002
 30
0.3987867965644036
 11
0.0
 21
-0.9200000000000002
 31
0.39
 12
0.0
 22
-1.6599999999999999
 32
0.39
 13
-0.0212132034355964
 23
-1.6599999999999999
 33
0.3987867965644036
  0
3DFACE
  5
757
  8
FRAME
 10
0.0
 20
-0.9200000000000002
 30
0.39
 11
0.0212132034355964
 21
-0.9200000000000002
 31
0.3987867965644036
 12
0.0212132034355964
 22
-1.6599999999999999
 32
0.3987867965644036
 13
0.0
 23
-1.6599999999999999
 33
0.39
  0
3DFACE
  5
758
  8
FRAME
 10
0.0212132034355964
 20
-0.9200000000000002
 30
0.3987867965644036
 11
0.03
 21
-0.9200000000000002
 31
0.4200000000000001
 12
0.03
 22
-1.6599999999999999
 32
0.4200000000000001
 13
0.0212132034355964
 23
-1.6599999999999999
 33
0.3987867965644036
  0
3DFACE
  5
761
  8
FRAME
 10
0.0
 20
-1.859999999999999
 30
0.5300000000000001
 11
-0.0777817459305202
 21
-1.859999999999999
 31
0.4977817459305202
 12
-0.11
 22
-1.859999999999999
 32
0.4200000000000001
 13
0.0777817459305202
 23
-1.859999999999999
 33
0.4977817459305202
  0
3DFACE
  5
762
  8
FRAME
 10
0.0777817459305202
 20
-1.859999999999999
 30
0.4977817459305202
 11
-0.11
 21
-1.859999999999999
 31
0.4200000000000001
 12
-0.0777817459305202
 22
-1.859999999999999
 32
0.3422182540694798
 13
0.11
 23
-1.859999999999999
 33
0.4200000000000001
  0
3DFACE
  5
763
  8
FRAME
 10
0.11
 20
-1.859999999999999
 30
0.4200000000000001
 11
-0.0777817459305202
 21
-1.859999999999999
 31
0.3422182540694798
 12
0.0
 22
-1.859999999999999
 32
0.31
 13
0.0777817459305202
 23
-1.859999999999999
 33
0.3422182540694798
  0
3DFACE
  5
764
  8
FRAME
 10
0.0
 20
-1.6599999999999999
 30
0.45
 11
-0.0212132034355964
 21
-1.6599999999999999
 31
0.4412132034355964
 12
-0.0777817459305202
 22
-1.6599999999999999
 32
0.4977817459305202
 13
0.0
 23
-1.6599999999999999
 33
0.5300000000000001
  0
3DFACE
  5
765
  8
FRAME
 10
-0.0212132034355964
 20
-1.6599999999999999
 30
0.4412132034355964
 11
-0.03
 21
-1.6599999999999999
 31
0.4200000000000001
 12
-0.11
 22
-1.6599999999999999
 32
0.4200000000000001
 13
-0.0777817459305203
 23
-1.6599999999999999
 33
0.4977817459305203
  0
3DFACE
  5
766
  8
FRAME
 10
-0.03
 20
-1.6599999999999999
 30
0.4200000000000001
 11
-0.0212132034355964
 21
-1.6599999999999999
 31
0.3987867965644036
 12
-0.0777817459305202
 22
-1.6599999999999999
 32
0.3422182540694798
 13
-0.11
 23
-1.6599999999999999
 33
0.4200000000000001
  0
3DFACE
  5
767
  8
FRAME
 10
-0.0212132034355964
 20
-1.659999999999999
 30
0.3987867965644036
 11
0.0000000000000001
 21
-1.659999999999999
 31
0.3900000000000001
 12
0.0
 22
-1.659999999999999
 32
0.31
 13
-0.0777817459305203
 23
-1.659999999999999
 33
0.3422182540694798
  0
3DFACE
  5
768
  8
FRAME
 10
0.0
 20
-1.6599999999999999
 30
0.39
 11
0.0212132034355964
 21
-1.6599999999999999
 31
0.3987867965644036
 12
0.0777817459305202
 22
-1.6599999999999999
 32
0.3422182540694797
 13
-0.0000000000000001
 23
-1.6599999999999999
 33
0.31
  0
3DFACE
  5
769
  8
FRAME
 10
0.0212132034355964
 20
-1.6599999999999999
 30
0.3987867965644035
 11
0.03
 21
-1.6599999999999999
 31
0.4200000000000001
 12
0.11
 22
-1.6599999999999999
 32
0.42
 13
0.0777817459305202
 23
-1.6599999999999999
 33
0.3422182540694796
  0
3DFACE
  5
76A
  8
FRAME
 10
0.03
 20
-1.6599999999999999
 30
0.42
 11
0.0212132034355964
 21
-1.6599999999999999
 31
0.4412132034355964
 12
0.0777817459305204
 22
-1.6599999999999999
 32
0.4977817459305202
 13
0.11
 23
-1.6599999999999999
 33
0.4199999999999999
  0
3DFACE
  5
76B
  8
FRAME
 10
0.0212132034355964
 20
-1.6599999999999999
 30
0.4412132034355964
 11
0.0000000000000001
 21
-1.6599999999999999
 31
0.45
 12
0.0000000000000001
 22
-1.6599999999999999
 32
0.5300000000000001
 13
0.0777817459305204
 23
-1.6599999999999999
 33
0.4977817459305202
  0
3DFACE
  5
76C
  8
FRAME
 10
-0.0212132034355964
 20
-0.9199999999999999
 30
0.3987867965644035
 11
-0.0299999999999999
 21
-0.9199999999999999
 31
0.4200000000000001
 12
-0.1099999999999999
 22
-0.9199999999999999
 32
0.42
 13
-0.0777817459305201
 23
-0.9199999999999999
 33
0.3422182540694796
  0
3DFACE
  5
76D
  8
FRAME
 10
0.0000000000000001
 20
-0.9199999999999999
 30
0.39
 11
-0.0212132034355964
 21
-0.9199999999999999
 31
0.3987867965644036
 12
-0.0777817459305201
 22
-0.9199999999999999
 32
0.3422182540694797
 13
0.0000000000000001
 23
-0.9199999999999999
 33
0.31
  0
3DFACE
  5
76E
  8
FRAME
 10
0.0212132034355965
 20
-0.9200000000000002
 30
0.3987867965644036
 11
0.0
 21
-0.9200000000000002
 31
0.3900000000000001
 12
0.0
 22
-0.9200000000000002
 32
0.31
 13
0.0777817459305204
 23
-0.9200000000000002
 33
0.3422182540694798
  0
3DFACE
  5
76F
  8
FRAME
 10
0.03
 20
-0.9199999999999999
 30
0.4200000000000001
 11
0.0212132034355965
 21
-0.9199999999999999
 31
0.3987867965644036
 12
0.0777817459305203
 22
-0.9199999999999999
 32
0.3422182540694798
 13
0.1100000000000001
 23
-0.9199999999999999
 33
0.4200000000000001
  0
3DFACE
  5
770
  8
FRAME
 10
-0.0212132034355964
 20
-0.9199999999999999
 30
0.4412132034355964
 11
0.0
 21
-0.9199999999999999
 31
0.45
 12
-0.0000000000000001
 22
-0.9199999999999999
 32
0.5300000000000001
 13
-0.0777817459305203
 23
-0.9199999999999999
 33
0.4977817459305202
  0
3DFACE
  5
771
  8
FRAME
 10
-0.0299999999999999
 20
-0.9199999999999999
 30
0.42
 11
-0.0212132034355964
 21
-0.9199999999999999
 31
0.4412132034355964
 12
-0.0777817459305203
 22
-0.9199999999999999
 32
0.4977817459305202
 13
-0.11
 23
-0.9199999999999999
 33
0.4199999999999999
  0
3DFACE
  5
772
  8
FRAME
 10
0.0212132034355965
 20
-0.9199999999999999
 30
0.4412132034355964
 11
0.0300000000000001
 21
-0.9199999999999999
 31
0.4200000000000001
 12
0.11
 22
-0.9199999999999999
 32
0.4200000000000001
 13
0.0777817459305204
 23
-0.9199999999999999
 33
0.4977817459305203
  0
3DFACE
  5
773
  8
FRAME
 10
0.0
 20
-0.9199999999999999
 30
0.45
 11
0.0212132034355965
 21
-0.9199999999999999
 31
0.4412132034355964
 12
0.0777817459305203
 22
-0.9199999999999999
 32
0.4977817459305202
 13
0.0
 23
-0.9199999999999999
 33
0.5300000000000001
  0
3DFACE
  5
77D
  8
FRAME
 10
-0.1099999999999999
 20
-0.7800000000000003
 30
0.4200000000000001
 11
0.0777817459305203
 21
-0.7800000000000003
 31
0.3422182540694798
 12
0.0000000000000001
 22
-0.7800000000000003
 32
0.31
 13
-0.0777817459305202
 23
-0.7800000000000003
 33
0.3422182540694798
  0
3DFACE
  5
77E
  8
FRAME
 10
-0.0777817459305202
 20
-0.7800000000000003
 30
0.4977817459305202
 11
0.11
 21
-0.7800000000000003
 31
0.4200000000000001
 12
0.0777817459305203
 22
-0.7800000000000003
 32
0.3422182540694798
 13
-0.1099999999999999
 23
-0.7800000000000003
 33
0.4200000000000001
  0
3DFACE
  5
77F
  8
FRAME
 10
0.0000000000000001
 20
-0.7800000000000003
 30
0.5300000000000001
 11
0.0777817459305203
 21
-0.7800000000000003
 31
0.4977817459305202
 12
0.11
 22
-0.7800000000000003
 32
0.4200000000000001
 13
-0.0777817459305202
 23
-0.7800000000000003
 33
0.4977817459305202
  0
3DFACE
  5
FC3
  8
FRAME
 10
-0.6299999999999999
 20
1.8100000000000001
 30
0.42
 11
-0.6299999999999999
 21
1.8012132034355961
 31
0.4412132034355963
 12
-0.4100000000000002
 22
1.8012132034355961
 32
0.3312132034355963
 13
-0.4100000000000002
 23
1.8100000000000001
 33
0.31
  0
3DFACE
  5
FC4
  8
FRAME
 10
-0.6299999999999999
 20
1.8012132034355961
 30
0.4412132034355963
 11
-0.6299999999999999
 21
1.78
 31
0.4499999999999998
 12
-0.4100000000000002
 22
1.78
 32
0.3399999999999999
 13
-0.4100000000000002
 23
1.8012132034355961
 33
0.3312132034355963
  0
3DFACE
  5
FC5
  8
FRAME
 10
-0.6299999999999999
 20
1.78
 30
0.4499999999999998
 11
-0.6299999999999999
 21
1.758786796564404
 31
0.4412132034355963
 12
-0.4100000000000002
 22
1.758786796564404
 32
0.3312132034355963
 13
-0.4100000000000002
 23
1.78
 33
0.3399999999999999
  0
3DFACE
  5
FC6
  8
FRAME
 10
-0.6299999999999999
 20
1.758786796564404
 30
0.4412132034355963
 11
-0.6299999999999999
 21
1.75
 31
0.42
 12
-0.4100000000000002
 22
1.75
 32
0.31
 13
-0.4100000000000002
 23
1.758786796564404
 33
0.3312132034355963
  0
3DFACE
  5
FC7
  8
FRAME
 10
-0.6299999999999999
 20
1.75
 30
0.42
 11
-0.6299999999999999
 21
1.758786796564404
 31
0.3987867965644036
 12
-0.4100000000000002
 22
1.758786796564404
 32
0.2887867965644037
 13
-0.4100000000000002
 23
1.75
 33
0.31
  0
3DFACE
  5
FC8
  8
FRAME
 10
-0.6299999999999999
 20
1.758786796564404
 30
0.3987867965644036
 11
-0.6299999999999999
 21
1.78
 31
0.3900000000000001
 12
-0.4100000000000002
 22
1.78
 32
0.2800000000000002
 13
-0.4100000000000002
 23
1.758786796564404
 33
0.2887867965644037
  0
3DFACE
  5
FC9
  8
FRAME
 10
-0.6299999999999999
 20
1.78
 30
0.3900000000000001
 11
-0.6299999999999999
 21
1.8012132034355961
 31
0.3987867965644036
 12
-0.4100000000000002
 22
1.8012132034355961
 32
0.2887867965644037
 13
-0.4100000000000002
 23
1.78
 33
0.2800000000000002
  0
3DFACE
  5
FCA
  8
FRAME
 10
-0.6299999999999999
 20
1.8012132034355961
 30
0.3987867965644036
 11
-0.6299999999999999
 21
1.8100000000000001
 31
0.42
 12
-0.4100000000000002
 22
1.8100000000000001
 32
0.31
 13
-0.4100000000000002
 23
1.8012132034355961
 33
0.2887867965644037
  0
3DFACE
  5
FCB
  8
FRAME
 10
-0.4100000000000002
 20
1.8100000000000001
 30
0.31
 11
-0.4100000000000002
 21
1.8012132034355961
 31
0.3312132034355963
 12
0.4099999999999997
 22
1.8012132034355961
 32
0.3312132034355963
 13
0.4099999999999997
 23
1.8100000000000001
 33
0.31
  0
3DFACE
  5
FCC
  8
FRAME
 10
-0.4100000000000002
 20
1.8012132034355961
 30
0.3312132034355963
 11
-0.4100000000000002
 21
1.78
 31
0.3399999999999999
 12
0.4099999999999997
 22
1.78
 32
0.3399999999999999
 13
0.4099999999999997
 23
1.8012132034355961
 33
0.3312132034355963
  0
3DFACE
  5
FCD
  8
FRAME
 10
-0.4100000000000002
 20
1.78
 30
0.3399999999999999
 11
-0.4100000000000002
 21
1.758786796564404
 31
0.3312132034355963
 12
0.4099999999999997
 22
1.758786796564404
 32
0.3312132034355963
 13
0.4099999999999997
 23
1.78
 33
0.3399999999999999
  0
3DFACE
  5
FCE
  8
FRAME
 10
-0.4100000000000002
 20
1.758786796564404
 30
0.3312132034355963
 11
-0.4100000000000002
 21
1.75
 31
0.31
 12
0.4099999999999997
 22
1.75
 32
0.31
 13
0.4099999999999997
 23
1.758786796564404
 33
0.3312132034355963
  0
3DFACE
  5
FCF
  8
FRAME
 10
-0.4100000000000002
 20
1.75
 30
0.31
 11
-0.4100000000000002
 21
1.758786796564404
 31
0.2887867965644037
 12
0.4099999999999997
 22
1.758786796564404
 32
0.2887867965644037
 13
0.4099999999999997
 23
1.75
 33
0.31
  0
3DFACE
  5
FD0
  8
FRAME
 10
-0.4100000000000002
 20
1.758786796564404
 30
0.2887867965644037
 11
-0.4100000000000002
 21
1.78
 31
0.2800000000000002
 12
0.4099999999999997
 22
1.78
 32
0.2800000000000002
 13
0.4099999999999997
 23
1.758786796564404
 33
0.2887867965644037
  0
3DFACE
  5
FD1
  8
FRAME
 10
-0.4100000000000002
 20
1.78
 30
0.2800000000000002
 11
-0.4100000000000002
 21
1.8012132034355961
 31
0.2887867965644037
 12
0.4099999999999997
 22
1.8012132034355961
 32
0.2887867965644037
 13
0.4099999999999997
 23
1.78
 33
0.2800000000000002
  0
3DFACE
  5
FD2
  8
FRAME
 10
-0.4100000000000002
 20
1.8012132034355961
 30
0.2887867965644037
 11
-0.4100000000000002
 21
1.8100000000000001
 31
0.31
 12
0.4099999999999997
 22
1.8100000000000001
 32
0.31
 13
0.4099999999999997
 23
1.8012132034355961
 33
0.2887867965644037
  0
3DFACE
  5
FD3
  8
FRAME
 10
-0.71
 20
1.8100000000000001
 30
0.42
 11
-0.71
 21
1.8012132034355961
 31
0.4412132034355963
 12
-0.6299999999999999
 22
1.8012132034355961
 32
0.4412132034355963
 13
-0.6299999999999999
 23
1.8100000000000001
 33
0.42
  0
3DFACE
  5
FD4
  8
FRAME
 10
-0.71
 20
1.8012132034355961
 30
0.4412132034355963
 11
-0.71
 21
1.78
 31
0.4499999999999998
 12
-0.6299999999999999
 22
1.78
 32
0.4499999999999998
 13
-0.6299999999999999
 23
1.8012132034355961
 33
0.4412132034355963
  0
3DFACE
  5
FD5
  8
FRAME
 10
-0.71
 20
1.78
 30
0.4499999999999998
 11
-0.71
 21
1.758786796564404
 31
0.4412132034355963
 12
-0.6299999999999999
 22
1.758786796564404
 32
0.4412132034355963
 13
-0.6299999999999999
 23
1.78
 33
0.4499999999999998
  0
3DFACE
  5
FD6
  8
FRAME
 10
-0.71
 20
1.758786796564404
 30
0.4412132034355963
 11
-0.71
 21
1.75
 31
0.42
 12
-0.6299999999999999
 22
1.75
 32
0.42
 13
-0.6299999999999999
 23
1.758786796564404
 33
0.4412132034355963
  0
3DFACE
  5
FD7
  8
FRAME
 10
-0.71
 20
1.75
 30
0.42
 11
-0.71
 21
1.758786796564404
 31
0.3987867965644036
 12
-0.6299999999999999
 22
1.758786796564404
 32
0.3987867965644036
 13
-0.6299999999999999
 23
1.75
 33
0.42
  0
3DFACE
  5
FD8
  8
FRAME
 10
-0.71
 20
1.758786796564404
 30
0.3987867965644036
 11
-0.71
 21
1.78
 31
0.3900000000000001
 12
-0.6299999999999999
 22
1.78
 32
0.3900000000000001
 13
-0.6299999999999999
 23
1.758786796564404
 33
0.3987867965644036
  0
3DFACE
  5
FD9
  8
FRAME
 10
-0.71
 20
1.78
 30
0.3900000000000001
 11
-0.71
 21
1.8012132034355961
 31
0.3987867965644036
 12
-0.6299999999999999
 22
1.8012132034355961
 32
0.3987867965644036
 13
-0.6299999999999999
 23
1.78
 33
0.3900000000000001
  0
3DFACE
  5
FDA
  8
FRAME
 10
-0.71
 20
1.8012132034355961
 30
0.3987867965644036
 11
-0.71
 21
1.8100000000000001
 31
0.42
 12
-0.6299999999999999
 22
1.8100000000000001
 32
0.42
 13
-0.6299999999999999
 23
1.8012132034355961
 33
0.3987867965644036
  0
3DFACE
  5
FDB
  8
FRAME
 10
0.6299999999999999
 20
1.7499999999999989
 30
0.42
 11
0.6299999999999999
 21
1.7587867965644031
 31
0.4412132034355963
 12
0.4100000000000002
 22
1.7587867965644031
 32
0.3312132034355963
 13
0.4100000000000002
 23
1.7499999999999989
 33
0.31
  0
3DFACE
  5
FDC
  8
FRAME
 10
0.6299999999999999
 20
1.7587867965644031
 30
0.4412132034355963
 11
0.6299999999999999
 21
1.7799999999999989
 31
0.4499999999999998
 12
0.4100000000000002
 22
1.7799999999999989
 32
0.3399999999999999
 13
0.4100000000000002
 23
1.7587867965644031
 33
0.3312132034355963
  0
3DFACE
  5
FDD
  8
FRAME
 10
0.6299999999999999
 20
1.7799999999999989
 30
0.4499999999999998
 11
0.6299999999999999
 21
1.801213203435595
 31
0.4412132034355963
 12
0.4100000000000002
 22
1.801213203435595
 32
0.3312132034355963
 13
0.4100000000000002
 23
1.7799999999999989
 33
0.3399999999999999
  0
3DFACE
  5
FDE
  8
FRAME
 10
0.6299999999999999
 20
1.801213203435595
 30
0.4412132034355963
 11
0.6299999999999999
 21
1.8099999999999989
 31
0.42
 12
0.4100000000000002
 22
1.8099999999999989
 32
0.31
 13
0.4100000000000002
 23
1.801213203435595
 33
0.3312132034355963
  0
3DFACE
  5
FDF
  8
FRAME
 10
0.6299999999999999
 20
1.8099999999999989
 30
0.42
 11
0.6299999999999999
 21
1.801213203435595
 31
0.3987867965644036
 12
0.4100000000000002
 22
1.801213203435595
 32
0.2887867965644037
 13
0.4100000000000002
 23
1.8099999999999989
 33
0.31
  0
3DFACE
  5
FE0
  8
FRAME
 10
0.6299999999999999
 20
1.801213203435595
 30
0.3987867965644036
 11
0.6299999999999999
 21
1.7799999999999989
 31
0.3900000000000001
 12
0.4100000000000002
 22
1.7799999999999989
 32
0.2800000000000002
 13
0.4100000000000002
 23
1.801213203435595
 33
0.2887867965644037
  0
3DFACE
  5
FE1
  8
FRAME
 10
0.6299999999999999
 20
1.7799999999999989
 30
0.3900000000000001
 11
0.6299999999999999
 21
1.7587867965644031
 31
0.3987867965644036
 12
0.4100000000000002
 22
1.7587867965644031
 32
0.2887867965644037
 13
0.4100000000000002
 23
1.7799999999999989
 33
0.2800000000000002
  0
3DFACE
  5
FE2
  8
FRAME
 10
0.6299999999999999
 20
1.7587867965644031
 30
0.3987867965644036
 11
0.6299999999999999
 21
1.7499999999999989
 31
0.42
 12
0.4100000000000002
 22
1.7499999999999989
 32
0.31
 13
0.4100000000000002
 23
1.7587867965644031
 33
0.2887867965644037
  0
3DFACE
  5
FE3
  8
FRAME
 10
0.71
 20
1.7499999999999989
 30
0.42
 11
0.71
 21
1.7587867965644031
 31
0.4412132034355963
 12
0.6299999999999999
 22
1.7587867965644031
 32
0.4412132034355963
 13
0.6299999999999999
 23
1.7499999999999989
 33
0.42
  0
3DFACE
  5
FE4
  8
FRAME
 10
0.71
 20
1.7587867965644031
 30
0.4412132034355963
 11
0.71
 21
1.7799999999999989
 31
0.4499999999999998
 12
0.6299999999999999
 22
1.7799999999999989
 32
0.4499999999999998
 13
0.6299999999999999
 23
1.7587867965644031
 33
0.4412132034355963
  0
3DFACE
  5
FE5
  8
FRAME
 10
0.71
 20
1.7799999999999989
 30
0.4499999999999998
 11
0.71
 21
1.801213203435595
 31
0.4412132034355963
 12
0.6299999999999999
 22
1.801213203435595
 32
0.4412132034355963
 13
0.6299999999999999
 23
1.7799999999999989
 33
0.4499999999999998
  0
3DFACE
  5
FE6
  8
FRAME
 10
0.71
 20
1.801213203435595
 30
0.4412132034355963
 11
0.71
 21
1.8099999999999989
 31
0.42
 12
0.6299999999999999
 22
1.8099999999999989
 32
0.42
 13
0.6299999999999999
 23
1.801213203435595
 33
0.4412132034355963
  0
3DFACE
  5
FE7
  8
FRAME
 10
0.71
 20
1.8099999999999989
 30
0.42
 11
0.71
 21
1.801213203435595
 31
0.3987867965644036
 12
0.6299999999999999
 22
1.801213203435595
 32
0.3987867965644036
 13
0.6299999999999999
 23
1.8099999999999989
 33
0.42
  0
3DFACE
  5
FE8
  8
FRAME
 10
0.71
 20
1.801213203435595
 30
0.3987867965644036
 11
0.71
 21
1.7799999999999989
 31
0.3900000000000001
 12
0.6299999999999999
 22
1.7799999999999989
 32
0.3900000000000001
 13
0.6299999999999999
 23
1.801213203435595
 33
0.3987867965644036
  0
3DFACE
  5
FE9
  8
FRAME
 10
0.71
 20
1.7799999999999989
 30
0.3900000000000001
 11
0.71
 21
1.7587867965644031
 31
0.3987867965644036
 12
0.6299999999999999
 22
1.7587867965644031
 32
0.3987867965644036
 13
0.6299999999999999
 23
1.7799999999999989
 33
0.3900000000000001
  0
3DFACE
  5
FEA
  8
FRAME
 10
0.71
 20
1.7587867965644031
 30
0.3987867965644036
 11
0.71
 21
1.7499999999999989
 31
0.42
 12
0.6299999999999999
 22
1.7499999999999989
 32
0.42
 13
0.6299999999999999
 23
1.7587867965644031
 33
0.3987867965644036
  0
3DFACE
  5
FEC
  8
FRAME
 10
0.34
 20
2.2999999999999998
 30
0.51
 11
0.34
 21
2.25
 31
0.51
 12
0.34
 22
2.169999999999999
 32
0.6200000000000001
 13
0.34
 23
2.2400000000000002
 33
0.6200000000000001
  0
3DFACE
  5
FED
  8
FRAME
 10
0.4
 20
2.169999999999999
 30
0.6200000000000001
 11
0.4
 21
2.25
 31
0.51
 12
0.4
 22
2.2999999999999998
 32
0.51
 13
0.4
 23
2.2400000000000002
 33
0.6200000000000001
  0
3DFACE
  5
FEE
  8
FRAME
 10
0.34
 20
2.169999999999999
 30
0.6200000000000001
 11
0.34
 21
2.25
 31
0.51
 12
0.4
 22
2.25
 32
0.51
 13
0.4
 23
2.169999999999999
 33
0.6200000000000001
  0
3DFACE
  5
FEF
  8
FRAME
 10
0.4
 20
2.2400000000000002
 30
0.6200000000000001
 11
0.4
 21
2.2999999999999998
 31
0.51
 12
0.34
 22
2.2999999999999998
 32
0.51
 13
0.34
 23
2.2400000000000002
 33
0.6200000000000001
  0
3DFACE
  5
FF4
  8
FRAME
 10
0.4
 20
2.25
 30
0.5100000000000002
 11
0.4
 21
2.2799999999999998
 31
0.4600000000000001
 12
0.4
 22
2.2999999999999998
 32
0.48
 13
0.4
 23
2.2999999999999998
 33
0.5100000000000002
  0
3DFACE
  5
FF5
  8
FRAME
 10
0.34
 20
2.2999999999999998
 30
0.48
 11
0.34
 21
2.2799999999999998
 31
0.4600000000000001
 12
0.34
 22
2.25
 32
0.5100000000000002
 13
0.34
 23
2.2999999999999998
 33
0.5100000000000002
  0
3DFACE
  5
FF6
  8
FRAME
 10
0.4
 20
2.2999999999999998
 30
0.48
 11
0.4
 21
2.2799999999999998
 31
0.4600000000000001
 12
0.34
 22
2.2799999999999998
 32
0.4600000000000001
 13
0.34
 23
2.2999999999999998
 33
0.48
  0
3DFACE
  5
FF7
  8
FRAME
 10
0.4
 20
2.2999999999999998
 30
0.5100000000000002
 11
0.4
 21
2.2999999999999998
 31
0.48
 12
0.34
 22
2.2999999999999998
 32
0.48
 13
0.34
 23
2.2999999999999998
 33
0.5100000000000002
  0
3DFACE
  5
FFB
  8
FRAME
 10
0.34
 20
2.2799999999999998
 30
0.4600000000000001
 11
0.34
 21
1.78
 31
0.39
 12
0.34
 22
1.78
 32
0.4700000000000001
 13
0.34
 23
2.25
 33
0.5100000000000002
  0
3DFACE
  5
FFC
  8
FRAME
 10
0.4
 20
1.78
 30
0.4700000000000001
 11
0.4
 21
1.78
 31
0.39
 12
0.4
 22
2.2799999999999998
 32
0.4600000000000001
 13
0.4
 23
2.25
 33
0.5100000000000002
  0
3DFACE
  5
FFE
  8
FRAME
 10
0.4
 20
2.2799999999999998
 30
0.4600000000000001
 11
0.4
 21
1.78
 31
0.39
 12
0.34
 22
1.78
 32
0.39
 13
0.34
 23
2.2799999999999998
 33
0.4600000000000001
  0
3DFACE
  5
FFF
  8
FRAME
 10
0.34
 20
2.25
 30
0.5100000000000002
 11
0.34
 21
1.78
 31
0.4700000000000001
 12
0.4
 22
1.78
 32
0.4700000000000001
 13
0.4
 23
2.25
 33
0.5100000000000002
  0
3DFACE
  5
1001
  8
FRAME
 10
0.4
 20
1.3899999999999999
 30
0.51
 11
0.4
 21
1.3400000000000001
 31
0.4600000000000001
 12
0.4
 22
1.78
 32
0.39
 13
0.4
 23
1.78
 33
0.4700000000000001
  0
3DFACE
  5
1002
  8
FRAME
 10
0.34
 20
1.78
 30
0.4700000000000001
 11
0.34
 21
1.3899999999999999
 31
0.51
 12
0.4
 22
1.3899999999999999
 32
0.51
 13
0.4
 23
1.78
 33
0.4700000000000001
  0
3DFACE
  5
1003
  8
FRAME
 10
0.34
 20
1.78
 30
0.39
 11
0.34
 21
1.3400000000000001
 31
0.4600000000000001
 12
0.34
 22
1.3899999999999999
 32
0.51
 13
0.34
 23
1.78
 33
0.4700000000000001
  0
3DFACE
  5
1006
  8
FRAME
 10
0.4
 20
1.78
 30
0.39
 11
0.4
 21
1.3400000000000001
 31
0.4600000000000001
 12
0.34
 22
1.3400000000000001
 32
0.4600000000000001
 13
0.34
 23
1.78
 33
0.39
  0
3DFACE
  5
1008
  8
FRAME
 10
0.34
 20
1.3125
 30
0.4985000000000001
 11
0.34
 21
1.3400000000000001
 31
0.4600000000000001
 12
0.4
 22
1.3400000000000001
 32
0.4600000000000001
 13
0.4
 23
1.3125
 33
0.4985000000000001
  0
3DFACE
  5
1009
  8
FRAME
 10
0.4
 20
1.3125
 30
0.4985000000000001
 11
0.4
 21
1.3400000000000001
 31
0.4600000000000001
 12
0.4
 22
1.3899999999999999
 32
0.51
 13
0.4
 23
1.3899999999999999
 33
0.5140000000000001
  0
3DFACE
  5
100A
  8
FRAME
 10
0.34
 20
1.3899999999999999
 30
0.51
 11
0.34
 21
1.3400000000000001
 31
0.4600000000000001
 12
0.34
 22
1.3125
 32
0.4985000000000001
 13
0.34
 23
1.3899999999999999
 33
0.5140000000000001
  0
3DFACE
  5
100B
  8
FRAME
 10
0.4
 20
1.3899999999999999
 30
0.5140000000000001
 11
0.4
 21
1.3899999999999999
 31
0.51
 12
0.34
 22
1.3899999999999999
 32
0.51
 13
0.34
 23
1.3899999999999999
 33
0.5140000000000001
  0
3DFACE
  5
1010
  8
FRAME
 10
-0.4
 20
1.3125
 30
0.4985000000000001
 11
-0.4
 21
1.3400000000000001
 31
0.4600000000000001
 12
-0.3399999999999999
 22
1.3400000000000001
 32
0.4600000000000001
 13
-0.3399999999999999
 23
1.3125
 33
0.4985000000000001
  0
3DFACE
  5
1011
  8
FRAME
 10
-0.4
 20
1.3899999999999999
 30
0.51
 11
-0.4
 21
1.3400000000000001
 31
0.4600000000000001
 12
-0.4
 22
1.3125
 32
0.4985000000000001
 13
-0.4
 23
1.3899999999999999
 33
0.5140000000000001
  0
3DFACE
  5
1012
  8
FRAME
 10
-0.3399999999999999
 20
1.3125
 30
0.4985000000000001
 11
-0.3399999999999999
 21
1.3400000000000001
 31
0.4600000000000001
 12
-0.3399999999999999
 22
1.3899999999999999
 32
0.51
 13
-0.3399999999999999
 23
1.3899999999999999
 33
0.5140000000000001
  0
3DFACE
  5
1014
  8
FRAME
 10
-0.3399999999999999
 20
1.3899999999999999
 30
0.51
 11
-0.3399999999999999
 21
1.3400000000000001
 31
0.4600000000000001
 12
-0.3399999999999999
 22
1.78
 32
0.39
 13
-0.3399999999999999
 23
1.78
 33
0.4700000000000001
  0
3DFACE
  5
1016
  8
FRAME
 10
-0.4
 20
1.78
 30
0.4700000000000001
 11
-0.4
 21
1.3899999999999999
 31
0.51
 12
-0.3399999999999999
 22
1.3899999999999999
 32
0.51
 13
-0.3399999999999999
 23
1.78
 33
0.4700000000000001
  0
3DFACE
  5
1017
  8
FRAME
 10
-0.4
 20
1.78
 30
0.39
 11
-0.4
 21
1.3400000000000001
 31
0.4600000000000001
 12
-0.4
 22
1.3899999999999999
 32
0.51
 13
-0.4
 23
1.78
 33
0.4700000000000001
  0
3DFACE
  5
1018
  8
FRAME
 10
-0.3399999999999999
 20
1.78
 30
0.39
 11
-0.3399999999999999
 21
1.3400000000000001
 31
0.4600000000000001
 12
-0.4
 22
1.3400000000000001
 32
0.4600000000000001
 13
-0.4
 23
1.78
 33
0.39
  0
3DFACE
  5
101A
  8
FRAME
 10
-0.3399999999999999
 20
1.78
 30
0.4700000000000001
 11
-0.3399999999999999
 21
1.78
 31
0.39
 12
-0.3399999999999999
 22
2.2799999999999998
 32
0.4600000000000001
 13
-0.3399999999999999
 23
2.25
 33
0.5100000000000002
  0
3DFACE
  5
101C
  8
FRAME
 10
-0.4
 20
2.25
 30
0.5100000000000002
 11
-0.4
 21
1.78
 31
0.4700000000000001
 12
-0.3399999999999999
 22
1.78
 32
0.4700000000000001
 13
-0.3399999999999999
 23
2.25
 33
0.5100000000000002
  0
3DFACE
  5
101D
  8
FRAME
 10
-0.4
 20
2.2799999999999998
 30
0.4600000000000001
 11
-0.4
 21
1.78
 31
0.39
 12
-0.4
 22
1.78
 32
0.4700000000000001
 13
-0.4
 23
2.25
 33
0.5100000000000002
  0
3DFACE
  5
101E
  8
FRAME
 10
-0.3399999999999999
 20
2.2799999999999998
 30
0.4600000000000001
 11
-0.3399999999999999
 21
1.78
 31
0.39
 12
-0.4
 22
1.78
 32
0.39
 13
-0.4
 23
2.2799999999999998
 33
0.4600000000000001
  0
3DFACE
  5
1020
  8
FRAME
 10
-0.3399999999999999
 20
2.25
 30
0.5100000000000002
 11
-0.3399999999999999
 21
2.2799999999999998
 31
0.4600000000000001
 12
-0.3399999999999999
 22
2.2999999999999998
 32
0.48
 13
-0.3399999999999999
 23
2.2999999999999998
 33
0.5100000000000002
  0
3DFACE
  5
1022
  8
FRAME
 10
-0.4
 20
2.2999999999999998
 30
0.48
 11
-0.4
 21
2.2799999999999998
 31
0.4600000000000001
 12
-0.4
 22
2.25
 32
0.5100000000000002
 13
-0.4
 23
2.2999999999999998
 33
0.5100000000000002
  0
3DFACE
  5
1023
  8
FRAME
 10
-0.3399999999999999
 20
2.2999999999999998
 30
0.48
 11
-0.3399999999999999
 21
2.2799999999999998
 31
0.4600000000000001
 12
-0.4
 22
2.2799999999999998
 32
0.4600000000000001
 13
-0.4
 23
2.2999999999999998
 33
0.48
  0
3DFACE
  5
1024
  8
FRAME
 10
-0.3399999999999999
 20
1.3899999999999999
 30
0.5140000000000001
 11
-0.3399999999999999
 21
1.3899999999999999
 31
0.51
 12
-0.4
 22
1.3899999999999999
 32
0.51
 13
-0.4
 23
1.3899999999999999
 33
0.5140000000000001
  0
3DFACE
  5
1026
  8
FRAME
 10
-0.3399999999999999
 20
2.2999999999999998
 30
0.5100000000000002
 11
-0.3399999999999999
 21
2.2999999999999998
 31
0.48
 12
-0.4
 22
2.2999999999999998
 32
0.48
 13
-0.4
 23
2.2999999999999998
 33
0.5100000000000002
  0
3DFACE
  5
1028
  8
FRAME
 10
-0.4
 20
2.169999999999999
 30
0.6200000000000001
 11
-0.4
 21
2.25
 31
0.51
 12
-0.3399999999999999
 22
2.25
 32
0.51
 13
-0.3399999999999999
 23
2.169999999999999
 33
0.6200000000000001
  0
3DFACE
  5
1029
  8
FRAME
 10
-0.3399999999999999
 20
2.169999999999999
 30
0.6200000000000001
 11
-0.3399999999999999
 21
2.25
 31
0.51
 12
-0.3399999999999999
 22
2.2999999999999998
 32
0.51
 13
-0.3399999999999999
 23
2.2400000000000002
 33
0.6200000000000001
  0
3DFACE
  5
102A
  8
FRAME
 10
-0.3399999999999999
 20
2.2400000000000002
 30
0.6200000000000001
 11
-0.3399999999999999
 21
2.2999999999999998
 31
0.51
 12
-0.4
 22
2.2999999999999998
 32
0.51
 13
-0.4
 23
2.2400000000000002
 33
0.6200000000000001
  0
3DFACE
  5
102C
  8
FRAME
 10
-0.4
 20
2.2999999999999998
 30
0.51
 11
-0.4
 21
2.25
 31
0.51
 12
-0.4
 22
2.169999999999999
 32
0.6200000000000001
 13
-0.4
 23
2.2400000000000002
 33
0.6200000000000001
  0
VIEWPORT
  5
2E
 67
     1
  8
0
 10
144.7270812988281
 20
101.2295806407928
 30
0.0
 40
391.13550988316581
 41
222.15178063964839
 68
     2
 69
     1
1001
ACAD
1000
MVIEW
1002
{
1070
    16
1010
0.0
1020
0.0
1030
0.0
1010
0.0
1020
0.0
1030
1.0
1040
0.0
1040
222.15178063964839
1040
144.7270812988281
1040
101.2295806407928
1040
50.0
1040
0.0
1040
0.0
1070
     0
1070
   100
1070
     1
1070
     1
1070
     0
1070
     0
1070
     0
1070
     0
1040
0.0
1040
0.0
1040
0.0
1040
10.0
1040
10.0
1040
10.0
1040
10.0
1070
     0
1002
{
1002
}
1002
}
  0
VIEWPORT
  5
30
 67
     1
  8
0
 10
139.22375631332389
 20
100.8062499761581
 30
0.0
 40
222.75801010131829
 41
161.289999961853
 68
     1
 69
     2
1001
ACAD
1000
MVIEW
1002
{
1070
    16
1010
0.0
1020
0.0
1030
0.0
1010
0.0
1020
0.0
1030
1.0
1040
0.0
1040
307.49010134148989
1040
210.0
1040
148.5
1040
50.0
1040
0.0
1040
0.0
1070
     0
1070
   100
1070
     1
1070
     3
1070
     0
1070
     1
1070
     0
1070
     0
1040
0.0
1040
0.0
1040
0.0
1040
10.0
1040
10.0
1040
10.0
1040
10.0
1070
     0
1002
{
1002
}
1002
}
  0
ENDSEC
  0
EOF
