  0
SECTION
  2
HEADER
  9
$ACADVER
  1
AC1009
  9
$INSBASE
 10
0.0
 20
0.0
 30
0.0
  9
$EXTMIN
 10
-1.8373136019851639
 20
-2.2783901626682508
 30
-2.5099999999999998
  9
$EXTMAX
 10
1.837313601985165
 20
10.669999999999989
 30
11.82623175081682
  9
$LIMMIN
 10
0.0
 20
0.0
  9
$LIMMAX
 10
420.0
 20
297.0
  9
$ORTHOMODE
 70
     1
  9
$REGENMODE
 70
     1
  9
$FILLMODE
 70
     1
  9
$QTEXTMODE
 70
     0
  9
$MIRRTEXT
 70
     1
  9
$DRAGMODE
 70
     2
  9
$LTSCALE
 40
1.0
  9
$OSMODE
 70
    35
  9
$ATTMODE
 70
     1
  9
$TEXTSIZE
 40
2.5
  9
$TRACEWID
 40
1.0
  9
$TEXTSTYLE
  7
STANDARD
  9
$CLAYER
  8
TRAIL
  9
$CELTYPE
  6
BYLAYER
  9
$CECOLOR
 62
   256
  9
$DIMSCALE
 40
1.0
  9
$DIMASZ
 40
2.5
  9
$DIMEXO
 40
0.625
  9
$DIMDLI
 40
3.75
  9
$DIMRND
 40
0.0
  9
$DIMDLE
 40
0.0
  9
$DIMEXE
 40
1.25
  9
$DIMTP
 40
0.0
  9
$DIMTM
 40
0.0
  9
$DIMTXT
 40
2.5
  9
$DIMCEN
 40
2.5
  9
$DIMTSZ
 40
0.0
  9
$DIMTOL
 70
     0
  9
$DIMLIM
 70
     0
  9
$DIMTIH
 70
     0
  9
$DIMTOH
 70
     0
  9
$DIMSE1
 70
     0
  9
$DIMSE2
 70
     0
  9
$DIMTAD
 70
     1
  9
$DIMZIN
 70
     8
  9
$DIMBLK
  1

  9
$DIMASO
 70
     1
  9
$DIMSHO
 70
     1
  9
$DIMPOST
  1

  9
$DIMAPOST
  1

  9
$DIMALT
 70
     0
  9
$DIMALTD
 70
     3
  9
$DIMALTF
 40
0.03937007874016
  9
$DIMLFAC
 40
1.0
  9
$DIMTOFL
 70
     1
  9
$DIMTVP
 40
0.0
  9
$DIMTIX
 70
     0
  9
$DIMSOXD
 70
     0
  9
$DIMSAH
 70
     0
  9
$DIMBLK1
  1

  9
$DIMBLK2
  1

  9
$DIMSTYLE
  2
ISO-25
  9
$DIMCLRD
 70
     0
  9
$DIMCLRE
 70
     0
  9
$DIMCLRT
 70
     0
  9
$DIMTFAC
 40
1.0
  9
$DIMGAP
 40
0.625
  9
$LUNITS
 70
     2
  9
$LUPREC
 70
     4
  9
$SKETCHINC
 40
1.0
  9
$FILLETRAD
 40
10.0
  9
$AUNITS
 70
     0
  9
$AUPREC
 70
     0
  9
$MENU
  1
.
  9
$ELEVATION
 40
0.0
  9
$PELEVATION
 40
0.0
  9
$THICKNESS
 40
0.0
  9
$LIMCHECK
 70
     0
  9
$BLIPMODE
 70
     0
  9
$CHAMFERA
 40
10.0
  9
$CHAMFERB
 40
10.0
  9
$SKPOLY
 70
     0
  9
$TDCREATE
 40
2457327.5131909829
  9
$TDUPDATE
 40
2457339.5202646409
  9
$TDINDWG
 40
0.5941290162
  9
$TDUSRTIMER
 40
0.5941290046
  9
$USRTIMER
 70
     1
  9
$ANGBASE
 50
0.0
  9
$ANGDIR
 70
     0
  9
$PDMODE
 70
     0
  9
$PDSIZE
 40
0.0
  9
$PLINEWID
 40
0.0
  9
$COORDS
 70
     1
  9
$SPLFRAME
 70
     0
  9
$SPLINETYPE
 70
     6
  9
$SPLINESEGS
 70
     8
  9
$ATTDIA
 70
     1
  9
$ATTREQ
 70
     1
  9
$HANDLING
 70
-16383
  9
$HANDSEED
  5
59F
  9
$SURFTAB1
 70
     6
  9
$SURFTAB2
 70
     6
  9
$SURFTYPE
 70
     6
  9
$SURFU
 70
     6
  9
$SURFV
 70
     6
  9
$UCSNAME
  2

  9
$UCSORG
 10
0.0
 20
0.0
 30
0.0
  9
$UCSXDIR
 10
1.0
 20
0.0
 30
0.0
  9
$UCSYDIR
 10
0.0
 20
1.0
 30
0.0
  9
$PUCSNAME
  2

  9
$PUCSORG
 10
0.0
 20
0.0
 30
0.0
  9
$PUCSXDIR
 10
1.0
 20
0.0
 30
0.0
  9
$PUCSYDIR
 10
0.0
 20
1.0
 30
0.0
  9
$USERI1
 70
     0
  9
$USERI2
 70
     0
  9
$USERI3
 70
     0
  9
$USERI4
 70
     0
  9
$USERI5
 70
     0
  9
$USERR1
 40
0.0
  9
$USERR2
 40
0.0
  9
$USERR3
 40
0.0
  9
$USERR4
 40
0.0
  9
$USERR5
 40
0.0
  9
$WORLDVIEW
 70
     1
  9
$SHADEDGE
 70
     3
  9
$SHADEDIF
 70
    70
  9
$TILEMODE
 70
     1
  9
$MAXACTVP
 70
    64
  9
$PLIMCHECK
 70
     0
  9
$PEXTMIN
 10
27.844751262664801
 20
20.161249995231621
 30
0.0
  9
$PEXTMAX
 10
250.60276136398309
 20
181.4512499570846
 30
0.0
  9
$PLIMMIN
 10
-3.757080078125
 20
-3.7570831775665279
  9
$PLIMMAX
 10
293.21124267578119
 20
206.21624445915219
  9
$UNITMODE
 70
     0
  9
$VISRETAIN
 70
     1
  9
$PLINEGEN
 70
     0
  9
$PSLTSCALE
 70
     1
  0
ENDSEC
  0
SECTION
  2
TABLES
  0
TABLE
  2
VPORT
 70
     2
  0
VPORT
  2
*ACTIVE
 70
     0
 10
0.0
 20
0.0
 11
1.0
 21
1.0
 12
1.0515930239014899
 22
-0.6482011119710549
 13
0.0
 23
0.0
 14
0.01
 24
0.01
 15
1.0
 25
1.0
 16
-1.0
 26
0.0
 36
0.0
 17
0.0
 27
0.0
 37
0.0
 40
4.7935662443691314
 41
2.2487980769230771
 42
50.0
 43
0.0
 44
0.0
 50
0.0
 51
0.0
 71
     0
 72
   100
 73
     1
 74
     3
 75
     1
 76
     1
 77
     0
 78
     0
  0
ENDTAB
  0
TABLE
  2
LTYPE
 70
     1
  0
LTYPE
  2
CONTINUOUS
 70
     0
  3
Solid line
 72
    65
 73
     0
 40
0.0
  0
ENDTAB
  0
TABLE
  2
LAYER
 70
     6
  0
LAYER
  2
0
 70
     0
 62
     7
  6
CONTINUOUS
  0
LAYER
  2
DRAWING
 70
     0
 62
     9
  6
CONTINUOUS
  0
LAYER
  2
TURRET
 70
     0
 62
     2
  6
CONTINUOUS
  0
LAYER
  2
TMP
 70
     0
 62
     4
  6
CONTINUOUS
  0
LAYER
  2
ROCKET
 70
     0
 62
     1
  6
CONTINUOUS
  0
LAYER
  2
TRAIL
 70
     0
 62
     6
  6
CONTINUOUS
  0
ENDTAB
  0
TABLE
  2
STYLE
 70
     1
  0
STYLE
  2
STANDARD
 70
     0
 40
0.0
 41
1.0
 50
0.0
 71
     0
 42
2.5
  3
txt
  4

  0
ENDTAB
  0
TABLE
  2
VIEW
 70
     0
  0
ENDTAB
  0
TABLE
  2
UCS
 70
     0
  0
ENDTAB
  0
TABLE
  2
APPID
 70
     1
  0
APPID
  2
ACAD
 70
     0
  0
ENDTAB
  0
TABLE
  2
DIMSTYLE
 70
     1
  0
DIMSTYLE
  2
ISO-25
 70
     0
  3

  4

  5

  6

  7

 40
1.0
 41
2.5
 42
0.625
 43
3.75
 44
1.25
 45
0.0
 46
0.0
 47
0.0
 48
0.0
140
2.5
141
2.5
142
0.0
143
0.03937007874016
144
1.0
145
0.0
146
1.0
147
0.625
 71
     0
 72
     0
 73
     0
 74
     0
 75
     0
 76
     0
 77
     1
 78
     8
170
     0
171
     3
172
     1
173
     0
174
     0
175
     0
176
     0
177
     0
178
     0
  0
ENDTAB
  0
ENDSEC
  0
SECTION
  2
BLOCKS
  0
BLOCK
  8
0
  2
$MODEL_SPACE
 70
     0
 10
0.0
 20
0.0
 30
0.0
  3
$MODEL_SPACE
  1

  0
ENDBLK
  5
21
  8
0
  0
BLOCK
 67
     1
  8
0
  2
$PAPER_SPACE
 70
     0
 10
0.0
 20
0.0
 30
0.0
  3
$PAPER_SPACE
  1

  0
ENDBLK
  5
1D
 67
     1
  8
0
  0
ENDSEC
  0
SECTION
  2
ENTITIES
  0
3DFACE
  5
4AB
  8
TRAIL
 10
0.0
 20
-0.09
 30
0.09
 11
-0.0200000000000001
 21
-0.11
 31
0.09
 12
-0.0200000000000001
 22
-0.11
 32
0.2
 13
0.0
 23
-0.09
 33
0.2
  0
3DFACE
  5
4AC
  8
TRAIL
 10
0.02
 20
-0.11
 30
0.09
 11
0.0
 21
-0.09
 31
0.09
 12
0.0
 22
-0.09
 32
0.2
 13
0.02
 23
-0.11
 33
0.2
  0
3DFACE
  5
4AD
  8
TRAIL
 10
-0.0000000000000001
 20
-0.13
 30
0.11
 11
0.02
 21
-0.11
 31
0.11
 12
0.02
 22
-0.11
 32
0.18
 13
-0.0000000000000001
 23
-0.13
 33
0.18
  0
3DFACE
  5
4AE
  8
TRAIL
 10
-0.0200000000000001
 20
-0.11
 30
0.11
 11
-0.0000000000000001
 21
-0.13
 31
0.11
 12
-0.0000000000000001
 22
-0.13
 32
0.18
 13
-0.0200000000000001
 23
-0.11
 33
0.18
  0
3DFACE
  5
4AF
  8
TRAIL
 10
-0.02
 20
-0.1099999999999998
 30
0.1799999999999999
 11
-0.02
 21
-0.16
 31
0.1799999999999999
 12
-0.02
 22
-0.16
 32
0.1999999999999997
 13
-0.02
 23
-0.1099999999999998
 33
0.1999999999999997
  0
3DFACE
  5
4B0
  8
TRAIL
 10
0.02
 20
-0.16
 30
0.1999999999999997
 11
0.02
 21
-0.16
 31
0.1799999999999999
 12
0.02
 22
-0.1099999999999998
 32
0.1799999999999999
 13
0.02
 23
-0.1099999999999998
 33
0.1999999999999997
  0
3DFACE
  5
4B1
  8
TRAIL
 10
0.01
 20
-0.1600000000000001
 30
0.19
 11
0.01
 21
-0.1600000000000001
 31
0.18
 12
0.02
 22
-0.16
 32
0.1799999999999999
 13
0.02
 23
-0.16
 33
0.19
  0
3DFACE
  5
4B3
  8
TRAIL
 10
0.02
 20
-0.1099999999999998
 30
0.1799999999999999
 11
0.02
 21
-0.16
 31
0.1799999999999999
 12
-0.02
 22
-0.16
 32
0.1799999999999999
 13
-0.02
 23
-0.1099999999999998
 33
0.1799999999999999
  0
3DFACE
  5
4B4
  8
TRAIL
 10
-0.02
 20
-0.1099999999999998
 30
0.1999999999999997
 11
-0.02
 21
-0.16
 31
0.1999999999999997
 12
0.02
 22
-0.16
 32
0.1999999999999997
 13
0.02
 23
-0.1099999999999998
 33
0.1999999999999997
  0
3DFACE
  5
4B8
  8
TRAIL
 10
0.02
 20
-0.16
 30
0.1099999999999997
 11
0.02
 21
-0.16
 31
0.09
 12
0.02
 22
-0.1099999999999998
 32
0.09
 13
0.02
 23
-0.1099999999999998
 33
0.1099999999999997
  0
3DFACE
  5
4B9
  8
TRAIL
 10
0.01
 20
-0.1600000000000001
 30
0.11
 11
0.01
 21
-0.1599999999999998
 31
0.1
 12
0.02
 22
-0.1599999999999997
 32
0.1
 13
0.02
 23
-0.16
 33
0.1099999999999997
  0
3DFACE
  5
4BB
  8
TRAIL
 10
-0.02
 20
-0.1099999999999998
 30
0.09
 11
-0.02
 21
-0.16
 31
0.09
 12
-0.02
 22
-0.16
 32
0.1099999999999997
 13
-0.02
 23
-0.1099999999999998
 33
0.1099999999999997
  0
3DFACE
  5
4BC
  8
TRAIL
 10
0.02
 20
-0.1099999999999998
 30
0.09
 11
0.02
 21
-0.16
 31
0.09
 12
-0.02
 22
-0.16
 32
0.09
 13
-0.02
 23
-0.1099999999999998
 33
0.09
  0
3DFACE
  5
4BD
  8
TRAIL
 10
-0.02
 20
-0.1099999999999998
 30
0.1099999999999997
 11
-0.02
 21
-0.16
 31
0.1099999999999997
 12
0.02
 22
-0.16
 32
0.1099999999999997
 13
0.02
 23
-0.1099999999999998
 33
0.1099999999999997
  0
3DFACE
  5
4BF
  8
TRAIL
 10
-0.02
 20
-2.0599999999999992
 30
-0.0000000000000001
 11
-0.02
 21
-2.109999999999999
 31
-0.0000000000000001
 12
-0.02
 22
-2.109999999999999
 32
0.0199999999999998
 13
-0.02
 23
-2.0599999999999992
 33
0.0199999999999998
  0
3DFACE
  5
4C0
  8
TRAIL
 10
-0.02
 20
-2.109999999999999
 30
0.0199999999999998
 11
-0.02
 21
-2.109999999999999
 31
-0.0000000000000001
 12
0.02
 22
-2.109999999999999
 32
-0.0000000000000001
 13
0.02
 23
-2.109999999999999
 33
0.0199999999999998
  0
3DFACE
  5
4C1
  8
TRAIL
 10
0.02
 20
-2.109999999999999
 30
0.0199999999999998
 11
0.02
 21
-2.109999999999999
 31
-0.0000000000000001
 12
0.02
 22
-2.0599999999999992
 32
-0.0000000000000001
 13
0.02
 23
-2.0599999999999992
 33
0.0199999999999998
  0
3DFACE
  5
4C2
  8
TRAIL
 10
-0.01
 20
-2.0600000000000001
 30
0.0199999999999998
 11
-0.01
 21
-2.0599999999999992
 31
0.01
 12
-0.02
 22
-2.0600000000000001
 32
0.01
 13
-0.02
 23
-2.0600000000000001
 33
0.0199999999999998
  0
3DFACE
  5
4C3
  8
TRAIL
 10
0.02
 20
-2.0599999999999992
 30
-0.0000000000000001
 11
0.02
 21
-2.109999999999999
 31
-0.0000000000000001
 12
-0.02
 22
-2.109999999999999
 32
-0.0000000000000001
 13
-0.02
 23
-2.0599999999999992
 33
-0.0000000000000001
  0
3DFACE
  5
4C4
  8
TRAIL
 10
-0.02
 20
-2.0800000000000001
 30
0.0199999999999998
 11
-0.02
 21
-2.109999999999999
 31
0.0199999999999998
 12
0.02
 22
-2.109999999999999
 32
0.0199999999999998
 13
0.02
 23
-2.0800000000000001
 33
0.0199999999999998
  0
3DFACE
  5
4C6
  8
TRAIL
 10
-0.02
 20
-0.1599999999999999
 30
0.1
 11
-0.02
 21
-2.0600000000000001
 31
0.01
 12
-0.01
 22
-2.0599999999999992
 32
0.01
 13
-0.01
 23
-0.1600000000000001
 33
0.1
  0
3DFACE
  5
4C8
  8
TRAIL
 10
0.02
 20
-2.0600000000000001
 30
0.01
 11
0.02
 21
-2.0600000000000001
 31
-0.0000000000000001
 12
0.02
 22
-0.1599999999999999
 32
0.09
 13
0.02
 23
-0.1599999999999999
 33
0.1
  0
3DFACE
  5
4CA
  8
TRAIL
 10
-0.02
 20
-0.1599999999999999
 30
0.09
 11
-0.02
 21
-2.0600000000000001
 31
-0.0000000000000001
 12
-0.02
 22
-2.0600000000000001
 32
0.01
 13
-0.02
 23
-0.1599999999999999
 33
0.1
  0
3DFACE
  5
4CB
  8
TRAIL
 10
0.02
 20
-0.1599999999999999
 30
0.09
 11
0.02
 21
-2.0600000000000001
 31
-0.0000000000000001
 12
-0.02
 22
-2.0600000000000001
 32
-0.0000000000000001
 13
-0.02
 23
-0.1599999999999999
 33
0.09
  0
3DFACE
  5
4CD
  8
TRAIL
 10
-0.02
 20
-0.1599999999999999
 30
0.19
 11
-0.02
 21
-2.0600000000000001
 31
0.06
 12
-0.02
 22
-2.0600000000000001
 32
0.0699999999999998
 13
-0.02
 23
-0.1599999999999999
 33
0.2
  0
3DFACE
  5
4CF
  8
TRAIL
 10
0.02
 20
-2.0600000000000001
 30
0.0699999999999998
 11
0.02
 21
-2.0600000000000001
 31
0.06
 12
0.02
 22
-0.1599999999999999
 32
0.19
 13
0.02
 23
-0.1599999999999999
 33
0.2
  0
3DFACE
  5
4D1
  8
TRAIL
 10
0.02
 20
-0.1599999999999999
 30
0.19
 11
0.02
 21
-2.0600000000000001
 31
0.06
 12
0.01
 22
-2.0600000000000001
 32
0.06
 13
0.01
 23
-0.1599999999999997
 33
0.19
  0
3DFACE
  5
4D2
  8
TRAIL
 10
-0.02
 20
-0.1599999999999999
 30
0.2
 11
-0.02
 21
-2.0600000000000001
 31
0.0699999999999998
 12
0.02
 22
-2.0600000000000001
 32
0.0699999999999998
 13
0.02
 23
-0.1599999999999999
 33
0.2
  0
3DFACE
  5
4D4
  8
TRAIL
 10
-0.02
 20
-2.0600000000000001
 30
0.0199999999999998
 11
-0.01
 21
-2.0599999999999992
 31
0.05
 12
0.01
 22
-2.0599999999999992
 32
0.05
 13
0.02
 23
-2.0600000000000001
 33
0.0199999999999998
  0
3DFACE
  5
4D5
  8
TRAIL
 10
-0.02
 20
-2.0600000000000001
 30
0.0700000000000001
 11
-0.02
 21
-2.0800000000000001
 31
0.0700000000000001
 12
0.02
 22
-2.0800000000000001
 32
0.0700000000000001
 13
0.02
 23
-2.0600000000000001
 33
0.0700000000000001
  0
3DFACE
  5
4D6
  8
TRAIL
 10
0.02
 20
-2.0600000000000001
 30
0.0700000000000001
 11
0.02
 21
-2.0800000000000001
 31
0.0700000000000001
 12
0.02
 22
-2.0800000000000001
 32
0.0199999999999998
 13
0.02
 23
-2.0600000000000001
 33
0.0199999999999998
  0
3DFACE
  5
4D8
  8
TRAIL
 10
-0.02
 20
-2.0800000000000001
 30
0.0199999999999998
 11
-0.02
 21
-2.0800000000000001
 31
0.0700000000000001
 12
-0.02
 22
-2.0600000000000001
 32
0.0700000000000001
 13
-0.02
 23
-2.0600000000000001
 33
0.0199999999999998
  0
3DFACE
  5
4D9
  8
TRAIL
 10
0.02
 20
-2.0800000000000001
 30
0.0199999999999998
 11
0.02
 21
-2.0800000000000001
 31
0.0700000000000001
 12
-0.02
 22
-2.0800000000000001
 32
0.0700000000000001
 13
-0.02
 23
-2.0800000000000001
 33
0.0199999999999998
  0
3DFACE
  5
4DB
  8
TRAIL
 10
0.01
 20
-2.0599999999999992
 30
0.0599999999999998
 11
0.01
 21
-2.0599999999999992
 31
0.05
 12
0.01
 22
-0.1600000000000001
 32
0.18
 13
0.01
 23
-0.1600000000000001
 33
0.19
  0
3DFACE
  5
4DC
  8
TRAIL
 10
0.01
 20
-0.1600000000000001
 30
0.18
 11
0.01
 21
-2.0599999999999992
 31
0.05
 12
-0.01
 22
-2.0599999999999992
 32
0.05
 13
-0.01
 23
-0.1600000000000001
 33
0.18
  0
3DFACE
  5
4DD
  8
TRAIL
 10
-0.01
 20
-0.1600000000000001
 30
0.18
 11
-0.01
 21
-2.0599999999999992
 31
0.05
 12
-0.01
 22
-2.0599999999999992
 32
0.0599999999999998
 13
-0.01
 23
-0.1600000000000001
 33
0.19
  0
3DFACE
  5
4E3
  8
TRAIL
 10
0.01
 20
-2.0599999999999992
 30
0.02
 11
0.01
 21
-2.0599999999999992
 31
0.01
 12
0.01
 22
-0.1600000000000001
 32
0.1
 13
0.01
 23
-0.1600000000000001
 33
0.11
  0
3DFACE
  5
4E4
  8
TRAIL
 10
-0.01
 20
-0.1600000000000001
 30
0.1
 11
-0.01
 21
-2.0599999999999992
 31
0.01
 12
-0.01
 22
-2.0599999999999992
 32
0.02
 13
-0.01
 23
-0.1600000000000001
 33
0.11
  0
3DFACE
  5
4E7
  8
TRAIL
 10
-0.01
 20
-1.6000000000000001
 30
0.0417894736842105
 11
-0.01
 21
-2.0599999999999992
 31
0.02
 12
0.01
 22
-2.0599999999999992
 32
0.02
 13
0.01
 23
-1.6000000000000001
 33
0.0417894736842105
  0
3DFACE
  5
4EF
  8
TRAIL
 10
-0.01
 20
-1.6000000000000001
 30
0.0417894736842105
 11
-0.01
 21
-1.6000000000000001
 31
0.0814736842105263
 12
-0.01
 22
-1.5800000000000001
 32
0.0828421052631578
 13
-0.01
 23
-1.5800000000000001
 33
0.0427368421052631
  0
3DFACE
  5
4F1
  8
TRAIL
 10
0.01
 20
-1.5800000000000001
 30
0.0828421052631578
 11
0.01
 21
-1.6000000000000001
 31
0.0814736842105263
 12
0.01
 22
-1.6000000000000001
 32
0.0417894736842105
 13
0.01
 23
-1.5800000000000001
 33
0.0427368421052631
  0
3DFACE
  5
4F3
  8
TRAIL
 10
0.01
 20
-1.6000000000000001
 30
0.0417894736842105
 11
0.01
 21
-1.6000000000000001
 31
0.0814736842105263
 12
-0.01
 22
-1.6000000000000001
 32
0.0814736842105263
 13
-0.01
 23
-1.6000000000000001
 33
0.0417894736842105
  0
3DFACE
  5
4F4
  8
TRAIL
 10
-0.01
 20
-1.5800000000000001
 30
0.0427368421052631
 11
-0.01
 21
-1.5800000000000001
 31
0.0828421052631578
 12
0.01
 22
-1.5800000000000001
 32
0.0828421052631578
 13
0.01
 23
-1.5800000000000001
 33
0.0427368421052631
  0
3DFACE
  5
4F6
  8
TRAIL
 10
0.01
 20
-1.1000000000000001
 30
0.1156842105263157
 11
0.01
 21
-1.1200000000000001
 31
0.1143157894736842
 12
0.01
 22
-1.1200000000000001
 32
0.0645263157894737
 13
0.01
 23
-1.1000000000000001
 33
0.0654736842105263
  0
3DFACE
  5
4F7
  8
TRAIL
 10
-0.01
 20
-1.1000000000000001
 30
0.0654736842105263
 11
-0.01
 21
-1.1000000000000001
 31
0.1156842105263157
 12
0.01
 22
-1.1000000000000001
 32
0.1156842105263157
 13
0.01
 23
-1.1000000000000001
 33
0.0654736842105263
  0
3DFACE
  5
4F8
  8
TRAIL
 10
-0.01
 20
-1.1200000000000001
 30
0.0645263157894737
 11
-0.01
 21
-1.1200000000000001
 31
0.1143157894736842
 12
-0.01
 22
-1.1000000000000001
 32
0.1156842105263157
 13
-0.01
 23
-1.1000000000000001
 33
0.0654736842105263
  0
3DFACE
  5
4FB
  8
TRAIL
 10
0.01
 20
-1.1200000000000001
 30
0.0645263157894737
 11
0.01
 21
-1.1200000000000001
 31
0.1143157894736842
 12
-0.01
 22
-1.1200000000000001
 32
0.1143157894736842
 13
-0.01
 23
-1.1200000000000001
 33
0.0645263157894737
  0
3DFACE
  5
4FD
  8
TRAIL
 10
-0.01
 20
-0.6200000000000007
 30
0.0882105263157895
 11
-0.01
 21
-0.6200000000000007
 31
0.1485263157894736
 12
0.01
 22
-0.6200000000000007
 32
0.1485263157894736
 13
0.01
 23
-0.6200000000000007
 33
0.0882105263157895
  0
3DFACE
  5
4FF
  8
TRAIL
 10
0.01
 20
-0.6200000000000007
 30
0.1485263157894736
 11
0.01
 21
-0.6400000000000004
 31
0.1471578947368421
 12
0.01
 22
-0.6400000000000001
 32
0.0872631578947369
 13
0.01
 23
-0.6200000000000007
 33
0.0882105263157895
  0
3DFACE
  5
501
  8
TRAIL
 10
-0.01
 20
-0.6400000000000004
 30
0.0872631578947369
 11
-0.01
 21
-0.6400000000000004
 31
0.1471578947368421
 12
-0.01
 22
-0.6200000000000007
 32
0.1485263157894736
 13
-0.01
 23
-0.6200000000000007
 33
0.0882105263157895
  0
3DFACE
  5
502
  8
TRAIL
 10
0.01
 20
-0.6400000000000001
 30
0.0872631578947369
 11
0.01
 21
-0.6400000000000004
 31
0.1471578947368421
 12
-0.01
 22
-0.6400000000000004
 32
0.1471578947368421
 13
-0.01
 23
-0.6400000000000004
 33
0.0872631578947369
  0
3DFACE
  5
505
  8
TRAIL
 10
-0.01
 20
-0.159999999999999
 30
0.1899999999999998
 11
-0.01
 21
-2.0599999999999992
 31
0.0599999999999998
 12
-0.02
 22
-2.0599999999999992
 32
0.0599999999999998
 13
-0.02
 23
-0.1599999999999988
 33
0.1899999999999998
  0
3DFACE
  5
506
  8
TRAIL
 10
0.01
 20
-0.1599999999999998
 30
0.1
 11
0.01
 21
-2.0600000000000001
 31
0.01
 12
0.02
 22
-2.0599999999999992
 32
0.01
 13
0.02
 23
-0.16
 33
0.1
  0
3DFACE
  5
507
  8
TRAIL
 10
0.02
 20
-2.0600000000000001
 30
0.0199999999999998
 11
0.02
 21
-2.0599999999999992
 31
0.01
 12
0.01
 22
-2.0600000000000001
 32
0.01
 13
0.01
 23
-2.0600000000000001
 33
0.0199999999999998
  0
3DFACE
  5
508
  8
TRAIL
 10
0.01
 20
-2.0599999999999992
 30
0.05
 11
0.01
 21
-2.0599999999999992
 31
0.0599999999999998
 12
0.02
 22
-2.0600000000000001
 32
0.06
 13
0.0200000000000001
 23
-2.0600000000000001
 33
0.0199999999999998
  0
3DFACE
  5
509
  8
TRAIL
 10
-0.02
 20
-2.0600000000000001
 30
0.0199999999999998
 11
-0.02
 21
-2.0599999999999978
 31
0.0599999999999995
 12
-0.01
 22
-2.0599999999999992
 32
0.0599999999999998
 13
-0.01
 23
-2.0599999999999992
 33
0.05
  0
3DFACE
  5
50A
  8
TRAIL
 10
-0.02
 20
-0.1600000000000001
 30
0.11
 11
-0.02
 21
-0.1599999999999998
 31
0.1
 12
-0.01
 22
-0.1599999999999997
 32
0.1
 13
-0.01
 23
-0.16
 33
0.1099999999999997
  0
3DFACE
  5
50B
  8
TRAIL
 10
-0.02
 20
-0.1599999999999992
 30
0.1899999999999998
 11
-0.02
 21
-0.1599999999999992
 31
0.1799999999999998
 12
-0.01
 22
-0.1599999999999991
 32
0.1799999999999997
 13
-0.01
 23
-0.1599999999999991
 33
0.1899999999999998
  0
3DFACE
  5
50C
  8
TRAIL
 10
-0.01
 20
-1.1200000000000001
 30
0.0645263157894737
 11
-0.01
 21
-1.579999999999999
 31
0.0427368421052632
 12
0.01
 22
-1.579999999999999
 32
0.0427368421052632
 13
0.01
 23
-1.1200000000000001
 33
0.0645263157894737
  0
3DFACE
  5
50D
  8
TRAIL
 10
-0.01
 20
-0.6400000000000015
 30
0.0872631578947368
 11
-0.01
 21
-1.1000000000000001
 31
0.0654736842105263
 12
0.01
 22
-1.1000000000000001
 32
0.0654736842105263
 13
0.01
 23
-0.6400000000000015
 33
0.0872631578947368
  0
3DFACE
  5
50E
  8
TRAIL
 10
-0.01
 20
-0.1600000000000014
 30
0.11
 11
-0.01
 21
-0.6200000000000007
 31
0.0882105263157895
 12
0.01
 22
-0.6200000000000007
 32
0.0882105263157895
 13
0.01
 23
-0.1600000000000014
 33
0.11
  0
3DFACE
  5
510
  8
TRAIL
 10
0.1435640646055094
 20
0.0713397459621551
 30
0.1899999999999998
 11
1.789012331795943
 21
1.021339745962154
 31
0.0599999999999998
 12
1.7940123317959431
 22
1.0126794919243101
 32
0.0599999999999998
 13
0.1485640646055092
 23
0.0626794919243106
 33
0.1899999999999998
  0
3DFACE
  5
511
  8
TRAIL
 10
0.1285640646055101
 20
0.0973205080756887
 30
0.19
 11
1.7740123317959431
 21
1.047320508075688
 31
0.06
 12
1.779012331795943
 22
1.038660254037844
 32
0.06
 13
0.1335640646055099
 23
0.0886602540378442
 33
0.19
  0
3DFACE
  5
512
  8
TRAIL
 10
0.1435640646055103
 20
0.0713397459621557
 30
0.18
 11
1.789012331795943
 21
1.021339745962154
 31
0.05
 12
1.789012331795943
 22
1.021339745962154
 32
0.0599999999999998
 13
0.1435640646055103
 23
0.0713397459621557
 33
0.19
  0
3DFACE
  5
513
  8
TRAIL
 10
0.1335640646055103
 20
0.0886602540378444
 30
0.18
 11
1.779012331795943
 21
1.0386602540378429
 31
0.05
 12
1.789012331795943
 22
1.021339745962154
 32
0.05
 13
0.1435640646055103
 23
0.0713397459621557
 33
0.18
  0
3DFACE
  5
514
  8
TRAIL
 10
1.779012331795943
 20
1.0386602540378429
 30
0.0599999999999998
 11
1.779012331795943
 21
1.0386602540378429
 31
0.05
 12
0.1335640646055103
 22
0.0886602540378444
 32
0.18
 13
0.1335640646055103
 23
0.0886602540378444
 33
0.19
  0
3DFACE
  5
515
  8
TRAIL
 10
0.1485640646055101
 20
0.0626794919243112
 30
0.2
 11
1.7940123317959431
 21
1.0126794919243101
 31
0.0699999999999998
 12
1.7740123317959431
 22
1.047320508075688
 32
0.0699999999999998
 13
0.1285640646055101
 23
0.0973205080756887
 33
0.2
  0
3DFACE
  5
516
  8
TRAIL
 10
1.7740123317959431
 20
1.047320508075688
 30
0.0699999999999998
 11
1.7740123317959431
 21
1.047320508075688
 31
0.06
 12
0.1285640646055101
 22
0.0973205080756887
 32
0.19
 13
0.1285640646055101
 23
0.0973205080756887
 33
0.2
  0
3DFACE
  5
517
  8
TRAIL
 10
0.1485640646055101
 20
0.0626794919243112
 30
0.19
 11
1.7940123317959431
 21
1.0126794919243101
 31
0.06
 12
1.7940123317959431
 22
1.0126794919243101
 32
0.0699999999999998
 13
0.1485640646055101
 23
0.0626794919243112
 33
0.2
  0
3DFACE
  5
518
  8
TRAIL
 10
0.1052627944162883
 20
0.0376794919243111
 30
0.11
 11
0.1125833024919771
 21
0.0649999999999999
 31
0.11
 12
0.1125833024919771
 22
0.0649999999999999
 32
0.18
 13
0.1052627944162883
 23
0.0376794919243111
 33
0.18
  0
3DFACE
  5
519
  8
TRAIL
 10
0.1125833024919771
 20
0.0649999999999999
 30
0.11
 11
0.0852627944162883
 21
0.0723205080756887
 31
0.11
 12
0.0852627944162883
 22
0.0723205080756887
 32
0.18
 13
0.1125833024919771
 23
0.0649999999999999
 33
0.18
  0
3DFACE
  5
51A
  8
TRAIL
 10
0.0852627944162883
 20
0.0723205080756887
 30
0.09
 11
0.0779422863405995
 21
0.045
 31
0.09
 12
0.0779422863405995
 22
0.045
 32
0.2
 13
0.0852627944162883
 23
0.0723205080756887
 33
0.2
  0
3DFACE
  5
51B
  8
TRAIL
 10
0.0779422863405995
 20
0.045
 30
0.09
 11
0.1052627944162883
 21
0.0376794919243111
 31
0.09
 12
0.1052627944162883
 22
0.0376794919243111
 32
0.2
 13
0.0779422863405995
 23
0.045
 33
0.2
  0
3DFACE
  5
51C
  8
TRAIL
 10
0.1435640646055114
 20
0.0713397459621563
 30
0.11
 11
0.5419357503463526
 21
0.3013397459621558
 31
0.0882105263157895
 12
0.5319357503463527
 22
0.3186602540378446
 32
0.0882105263157895
 13
0.1335640646055114
 23
0.0886602540378451
 33
0.11
  0
3DFACE
  5
51D
  8
TRAIL
 10
0.5592562584220421
 20
0.3113397459621562
 30
0.0872631578947368
 11
0.9576279441628832
 21
0.5413397459621558
 31
0.0654736842105263
 12
0.9476279441628832
 22
0.5586602540378446
 32
0.0654736842105263
 13
0.5492562584220421
 23
0.3286602540378449
 33
0.0872631578947368
  0
3DFACE
  5
51E
  8
TRAIL
 10
0.9749484522385717
 20
0.5513397459621557
 30
0.0645263157894737
 11
1.373320137979412
 21
0.7813397459621552
 31
0.0427368421052632
 12
1.3633201379794131
 22
0.7986602540378441
 32
0.0427368421052632
 13
0.9649484522385717
 23
0.5686602540378445
 33
0.0645263157894737
  0
3DFACE
  5
51F
  8
TRAIL
 10
1.390640646055102
 20
0.7913397459621554
 30
0.0417894736842105
 11
1.789012331795943
 21
1.021339745962154
 31
0.02
 12
1.779012331795943
 22
1.0386602540378429
 32
0.02
 13
1.3806406460551019
 23
0.8086602540378443
 33
0.0417894736842105
  0
3DFACE
  5
520
  8
TRAIL
 10
0.1485640646055103
 20
0.0626794919243113
 30
0.11
 11
0.14856406460551
 21
0.0626794919243111
 31
0.1
 12
0.1435640646055099
 22
0.0713397459621554
 32
0.1
 13
0.1435640646055102
 23
0.0713397459621556
 33
0.1099999999999997
  0
3DFACE
  5
521
  8
TRAIL
 10
0.1335640646055103
 20
0.0886602540378444
 30
0.11
 11
0.13356406460551
 21
0.0886602540378443
 31
0.1
 12
0.1285640646055099
 22
0.0973205080756886
 32
0.1
 13
0.1285640646055102
 23
0.0973205080756888
 33
0.1099999999999997
  0
3DFACE
  5
522
  8
TRAIL
 10
1.811332839871632
 20
1.0226794919243101
 30
0.0199999999999998
 11
1.837313601985165
 21
1.03767949192431
 31
0.0199999999999998
 12
1.817313601985165
 22
1.0723205080756879
 32
0.0199999999999998
 13
1.7913328398716319
 23
1.057320508075688
 33
0.0199999999999998
  0
3DFACE
  5
523
  8
TRAIL
 10
1.794012331795944
 20
1.0126794919243101
 30
0.0199999999999998
 11
1.794012331795942
 21
1.0126794919243101
 31
0.0599999999999995
 12
1.789012331795943
 22
1.021339745962154
 32
0.0599999999999998
 13
1.789012331795943
 23
1.021339745962154
 33
0.05
  0
3DFACE
  5
524
  8
TRAIL
 10
1.779012331795943
 20
1.0386602540378429
 30
0.05
 11
1.779012331795943
 21
1.0386602540378429
 31
0.0599999999999998
 12
1.774012331795944
 22
1.047320508075688
 32
0.06
 13
1.774012331795944
 23
1.047320508075688
 33
0.0199999999999998
  0
3DFACE
  5
525
  8
TRAIL
 10
1.794012331795944
 20
1.0126794919243101
 30
0.0199999999999998
 11
1.789012331795943
 21
1.021339745962154
 31
0.05
 12
1.779012331795943
 22
1.0386602540378429
 32
0.05
 13
1.774012331795944
 23
1.047320508075688
 33
0.0199999999999998
  0
3DFACE
  5
526
  8
TRAIL
 10
1.774012331795944
 20
1.047320508075688
 30
0.0199999999999998
 11
1.7740123317959431
 21
1.047320508075688
 31
0.01
 12
1.779012331795943
 22
1.038660254037844
 32
0.01
 13
1.7790123317959441
 23
1.038660254037844
 33
0.0199999999999998
  0
3DFACE
  5
527
  8
TRAIL
 10
1.7890123317959441
 20
1.0213397459621549
 30
0.0199999999999998
 11
1.789012331795943
 21
1.021339745962154
 31
0.01
 12
1.7940123317959431
 22
1.0126794919243101
 32
0.01
 13
1.794012331795944
 23
1.0126794919243101
 33
0.0199999999999998
  0
3DFACE
  5
528
  8
TRAIL
 10
0.13356406460551
 20
0.0886602540378443
 30
0.1
 11
1.779012331795943
 21
1.038660254037844
 31
0.01
 12
1.7740123317959431
 22
1.047320508075688
 32
0.01
 13
0.1285640646055102
 23
0.0973205080756888
 33
0.1
  0
3DFACE
  5
529
  8
TRAIL
 10
0.1485640646055101
 20
0.0626794919243112
 30
0.1
 11
1.7940123317959431
 21
1.0126794919243101
 31
0.01
 12
1.789012331795943
 22
1.021339745962154
 32
0.01
 13
0.1435640646055103
 23
0.0713397459621557
 33
0.1
  0
3DFACE
  5
52A
  8
TRAIL
 10
0.5492562584220408
 20
0.3286602540378442
 30
0.0872631578947369
 11
0.5492562584220411
 21
0.3286602540378444
 31
0.1471578947368421
 12
0.559256258422041
 22
0.3113397459621556
 32
0.1471578947368421
 13
0.559256258422041
 23
0.3113397459621556
 33
0.0872631578947369
  0
3DFACE
  5
52B
  8
TRAIL
 10
0.559256258422041
 20
0.3113397459621556
 30
0.0872631578947369
 11
0.559256258422041
 21
0.3113397459621556
 31
0.1471578947368421
 12
0.5419357503463526
 22
0.3013397459621558
 32
0.1485263157894736
 13
0.5419357503463526
 23
0.3013397459621558
 33
0.0882105263157895
  0
3DFACE
  5
52C
  8
TRAIL
 10
0.5319357503463527
 20
0.3186602540378446
 30
0.1485263157894736
 11
0.5492562584220411
 21
0.3286602540378444
 31
0.1471578947368421
 12
0.5492562584220408
 22
0.3286602540378442
 32
0.0872631578947369
 13
0.5319357503463527
 23
0.3186602540378446
 33
0.0882105263157895
  0
3DFACE
  5
52D
  8
TRAIL
 10
0.5419357503463526
 20
0.3013397459621558
 30
0.0882105263157895
 11
0.5419357503463526
 21
0.3013397459621558
 31
0.1485263157894736
 12
0.5319357503463527
 22
0.3186602540378446
 32
0.1485263157894736
 13
0.5319357503463527
 23
0.3186602540378446
 33
0.0882105263157895
  0
3DFACE
  5
52E
  8
TRAIL
 10
0.9649484522385716
 20
0.5686602540378444
 30
0.0645263157894737
 11
0.9649484522385716
 21
0.5686602540378444
 31
0.1143157894736842
 12
0.9749484522385715
 22
0.5513397459621556
 32
0.1143157894736842
 13
0.9749484522385715
 23
0.5513397459621556
 33
0.0645263157894737
  0
3DFACE
  5
52F
  8
TRAIL
 10
0.9749484522385715
 20
0.5513397459621556
 30
0.0645263157894737
 11
0.9749484522385715
 21
0.5513397459621556
 31
0.1143157894736842
 12
0.9576279441628832
 22
0.5413397459621558
 32
0.1156842105263157
 13
0.9576279441628832
 23
0.5413397459621558
 33
0.0654736842105263
  0
3DFACE
  5
530
  8
TRAIL
 10
0.9576279441628832
 20
0.5413397459621558
 30
0.0654736842105263
 11
0.9576279441628832
 21
0.5413397459621558
 31
0.1156842105263157
 12
0.9476279441628832
 22
0.5586602540378446
 32
0.1156842105263157
 13
0.9476279441628832
 23
0.5586602540378446
 33
0.0654736842105263
  0
3DFACE
  5
531
  8
TRAIL
 10
0.9476279441628832
 20
0.5586602540378446
 30
0.1156842105263157
 11
0.9649484522385716
 21
0.5686602540378444
 31
0.1143157894736842
 12
0.9649484522385716
 22
0.5686602540378444
 32
0.0645263157894737
 13
0.9476279441628832
 23
0.5586602540378446
 33
0.0654736842105263
  0
3DFACE
  5
532
  8
TRAIL
 10
1.3733201379794131
 20
0.7813397459621556
 30
0.0427368421052631
 11
1.3733201379794131
 21
0.7813397459621556
 31
0.0828421052631578
 12
1.3633201379794131
 22
0.7986602540378445
 32
0.0828421052631578
 13
1.3633201379794131
 23
0.7986602540378445
 33
0.0427368421052631
  0
3DFACE
  5
533
  8
TRAIL
 10
1.3806406460551019
 20
0.8086602540378443
 30
0.0417894736842105
 11
1.3806406460551019
 21
0.8086602540378443
 31
0.0814736842105263
 12
1.390640646055102
 22
0.7913397459621554
 32
0.0814736842105263
 13
1.390640646055102
 23
0.7913397459621554
 33
0.0417894736842105
  0
3DFACE
  5
534
  8
TRAIL
 10
1.3633201379794131
 20
0.7986602540378445
 30
0.0828421052631578
 11
1.3806406460551019
 21
0.8086602540378443
 31
0.0814736842105263
 12
1.3806406460551019
 22
0.8086602540378443
 32
0.0417894736842105
 13
1.3633201379794131
 23
0.7986602540378445
 33
0.0427368421052631
  0
3DFACE
  5
535
  8
TRAIL
 10
1.390640646055102
 20
0.7913397459621554
 30
0.0417894736842105
 11
1.390640646055102
 21
0.7913397459621554
 31
0.0814736842105263
 12
1.3733201379794131
 22
0.7813397459621556
 32
0.0828421052631578
 13
1.3733201379794131
 23
0.7813397459621556
 33
0.0427368421052631
  0
3DFACE
  5
536
  8
TRAIL
 10
0.1435640646055103
 20
0.0713397459621557
 30
0.1
 11
1.789012331795943
 21
1.021339745962154
 31
0.01
 12
1.789012331795943
 22
1.021339745962154
 32
0.02
 13
0.1435640646055103
 23
0.0713397459621557
 33
0.11
  0
3DFACE
  5
537
  8
TRAIL
 10
1.779012331795943
 20
1.0386602540378429
 30
0.02
 11
1.779012331795943
 21
1.0386602540378429
 31
0.01
 12
0.1335640646055103
 22
0.0886602540378444
 32
0.1
 13
0.1335640646055103
 23
0.0886602540378444
 33
0.11
  0
3DFACE
  5
538
  8
TRAIL
 10
1.7913328398716319
 20
1.057320508075688
 30
0.0199999999999998
 11
1.7913328398716319
 21
1.057320508075688
 31
0.0700000000000001
 12
1.811332839871632
 22
1.0226794919243101
 32
0.0700000000000001
 13
1.811332839871632
 23
1.0226794919243101
 33
0.0199999999999998
  0
3DFACE
  5
539
  8
TRAIL
 10
1.811332839871632
 20
1.0226794919243101
 30
0.0199999999999998
 11
1.811332839871632
 21
1.0226794919243101
 31
0.0700000000000001
 12
1.794012331795944
 22
1.0126794919243101
 32
0.0700000000000001
 13
1.794012331795944
 23
1.0126794919243101
 33
0.0199999999999998
  0
3DFACE
  5
53A
  8
TRAIL
 10
1.774012331795944
 20
1.047320508075688
 30
0.0700000000000001
 11
1.7913328398716319
 21
1.057320508075688
 31
0.0700000000000001
 12
1.7913328398716319
 22
1.057320508075688
 32
0.0199999999999998
 13
1.774012331795944
 23
1.047320508075688
 33
0.0199999999999998
  0
3DFACE
  5
53B
  8
TRAIL
 10
1.794012331795944
 20
1.0126794919243101
 30
0.0700000000000001
 11
1.811332839871632
 21
1.0226794919243101
 31
0.0700000000000001
 12
1.7913328398716319
 22
1.057320508075688
 32
0.0700000000000001
 13
1.774012331795944
 23
1.047320508075688
 33
0.0700000000000001
  0
3DFACE
  5
53C
  8
TRAIL
 10
0.1285640646055101
 20
0.0973205080756887
 30
0.09
 11
1.7740123317959431
 21
1.047320508075688
 31
-0.0000000000000001
 12
1.7940123317959431
 22
1.0126794919243101
 32
-0.0000000000000001
 13
0.1485640646055101
 23
0.0626794919243112
 33
0.09
  0
3DFACE
  5
53D
  8
TRAIL
 10
0.1485640646055101
 20
0.0626794919243112
 30
0.09
 11
1.7940123317959431
 21
1.0126794919243101
 31
-0.0000000000000001
 12
1.7940123317959431
 22
1.0126794919243101
 32
0.01
 13
0.1485640646055101
 23
0.0626794919243112
 33
0.1
  0
3DFACE
  5
53E
  8
TRAIL
 10
1.7740123317959431
 20
1.047320508075688
 30
0.01
 11
1.7740123317959431
 21
1.047320508075688
 31
-0.0000000000000001
 12
0.1285640646055101
 22
0.0973205080756887
 32
0.09
 13
0.1285640646055101
 23
0.0973205080756887
 33
0.1
  0
3DFACE
  5
53F
  8
TRAIL
 10
1.7740123317959431
 20
1.047320508075688
 30
-0.0000000000000001
 11
1.817313601985165
 21
1.0723205080756879
 31
-0.0000000000000001
 12
1.837313601985165
 22
1.03767949192431
 32
-0.0000000000000001
 13
1.7940123317959431
 23
1.0126794919243101
 33
-0.0000000000000001
  0
3DFACE
  5
540
  8
TRAIL
 10
1.817313601985165
 20
1.0723205080756879
 30
0.0199999999999998
 11
1.817313601985165
 21
1.0723205080756879
 31
-0.0000000000000001
 12
1.7740123317959431
 22
1.047320508075688
 32
-0.0000000000000001
 13
1.7740123317959431
 23
1.047320508075688
 33
0.0199999999999998
  0
3DFACE
  5
541
  8
TRAIL
 10
1.837313601985165
 20
1.03767949192431
 30
0.0199999999999998
 11
1.837313601985165
 21
1.03767949192431
 31
-0.0000000000000001
 12
1.817313601985165
 22
1.0723205080756879
 32
-0.0000000000000001
 13
1.817313601985165
 23
1.0723205080756879
 33
0.0199999999999998
  0
3DFACE
  5
542
  8
TRAIL
 10
1.7940123317959431
 20
1.0126794919243101
 30
-0.0000000000000001
 11
1.837313601985165
 21
1.03767949192431
 31
-0.0000000000000001
 12
1.837313601985165
 22
1.03767949192431
 32
0.0199999999999998
 13
1.7940123317959431
 23
1.0126794919243101
 33
0.0199999999999998
  0
3DFACE
  5
543
  8
TRAIL
 10
0.1052627944162881
 20
0.0376794919243111
 30
0.1099999999999997
 11
0.1485640646055102
 21
0.0626794919243112
 31
0.1099999999999997
 12
0.1285640646055102
 22
0.0973205080756888
 32
0.1099999999999997
 13
0.0852627944162882
 23
0.0723205080756887
 33
0.1099999999999997
  0
3DFACE
  5
544
  8
TRAIL
 10
0.0852627944162882
 20
0.0723205080756887
 30
0.09
 11
0.1285640646055102
 21
0.0973205080756888
 31
0.09
 12
0.1485640646055102
 22
0.0626794919243112
 32
0.09
 13
0.1052627944162881
 23
0.0376794919243111
 33
0.09
  0
3DFACE
  5
545
  8
TRAIL
 10
0.1052627944162881
 20
0.0376794919243111
 30
0.09
 11
0.1485640646055102
 21
0.0626794919243112
 31
0.09
 12
0.1485640646055102
 22
0.0626794919243112
 32
0.1099999999999997
 13
0.1052627944162881
 23
0.0376794919243111
 33
0.1099999999999997
  0
3DFACE
  5
546
  8
TRAIL
 10
0.1285640646055102
 20
0.0973205080756888
 30
0.1099999999999997
 11
0.1285640646055102
 21
0.0973205080756888
 31
0.09
 12
0.0852627944162882
 22
0.0723205080756887
 32
0.09
 13
0.0852627944162882
 23
0.0723205080756887
 33
0.1099999999999997
  0
3DFACE
  5
547
  8
TRAIL
 10
0.1485640646055095
 20
0.0626794919243108
 30
0.1899999999999998
 11
0.1485640646055095
 21
0.0626794919243108
 31
0.1799999999999998
 12
0.1435640646055094
 22
0.0713397459621552
 32
0.1799999999999997
 13
0.1435640646055094
 23
0.0713397459621552
 33
0.1899999999999998
  0
3DFACE
  5
548
  8
TRAIL
 10
0.1335640646055103
 20
0.0886602540378444
 30
0.19
 11
0.1335640646055103
 21
0.0886602540378444
 31
0.18
 12
0.1285640646055102
 22
0.0973205080756888
 32
0.1799999999999999
 13
0.1285640646055102
 23
0.0973205080756888
 33
0.19
  0
3DFACE
  5
549
  8
TRAIL
 10
0.1052627944162881
 20
0.0376794919243111
 30
0.1999999999999997
 11
0.1485640646055102
 21
0.0626794919243112
 31
0.1999999999999997
 12
0.1285640646055102
 22
0.0973205080756888
 32
0.1999999999999997
 13
0.0852627944162882
 23
0.0723205080756887
 33
0.1999999999999997
  0
3DFACE
  5
54A
  8
TRAIL
 10
0.0852627944162882
 20
0.0723205080756887
 30
0.1799999999999999
 11
0.1285640646055102
 21
0.0973205080756888
 31
0.1799999999999999
 12
0.1485640646055102
 22
0.0626794919243112
 32
0.1799999999999999
 13
0.1052627944162881
 23
0.0376794919243111
 33
0.1799999999999999
  0
3DFACE
  5
54B
  8
TRAIL
 10
0.1285640646055102
 20
0.0973205080756888
 30
0.1999999999999997
 11
0.1285640646055102
 21
0.0973205080756888
 31
0.1799999999999999
 12
0.0852627944162882
 22
0.0723205080756887
 32
0.1799999999999999
 13
0.0852627944162882
 23
0.0723205080756887
 33
0.1999999999999997
  0
3DFACE
  5
54C
  8
TRAIL
 10
0.1052627944162881
 20
0.0376794919243111
 30
0.1799999999999999
 11
0.1485640646055102
 21
0.0626794919243112
 31
0.1799999999999999
 12
0.1485640646055102
 22
0.0626794919243112
 32
0.1999999999999997
 13
0.1052627944162881
 23
0.0376794919243111
 33
0.1999999999999997
  0
3DFACE
  5
54D
  8
TRAIL
 10
-0.1335640646055093
 20
0.088660254037844
 30
0.1899999999999998
 11
-1.7790123317959421
 21
1.038660254037844
 31
0.0599999999999998
 12
-1.774012331795942
 22
1.0473205080756891
 32
0.0599999999999998
 13
-0.1285640646055091
 23
0.0973205080756883
 33
0.1899999999999998
  0
3DFACE
  5
54E
  8
TRAIL
 10
-0.1485640646055101
 20
0.0626794919243112
 30
0.19
 11
-1.7940123317959431
 21
1.0126794919243121
 31
0.06
 12
-1.789012331795943
 22
1.021339745962156
 32
0.06
 13
-0.1435640646055099
 23
0.0713397459621555
 33
0.19
  0
3DFACE
  5
54F
  8
TRAIL
 10
-0.1335640646055103
 20
0.0886602540378445
 30
0.18
 11
-1.7790123317959421
 21
1.0386602540378449
 31
0.05
 12
-1.7790123317959421
 22
1.0386602540378449
 32
0.0599999999999998
 13
-0.1335640646055103
 23
0.0886602540378445
 33
0.19
  0
3DFACE
  5
550
  8
TRAIL
 10
-0.1435640646055103
 20
0.0713397459621558
 30
0.18
 11
-1.7890123317959421
 21
1.021339745962156
 31
0.05
 12
-1.7790123317959421
 22
1.0386602540378449
 32
0.05
 13
-0.1335640646055103
 23
0.0886602540378445
 33
0.18
  0
3DFACE
  5
551
  8
TRAIL
 10
-1.7890123317959421
 20
1.021339745962156
 30
0.0599999999999998
 11
-1.7890123317959421
 21
1.021339745962156
 31
0.05
 12
-0.1435640646055103
 22
0.0713397459621558
 32
0.18
 13
-0.1435640646055103
 23
0.0713397459621558
 33
0.19
  0
3DFACE
  5
552
  8
TRAIL
 10
-0.1285640646055101
 20
0.0973205080756888
 30
0.2
 11
-1.7740123317959431
 21
1.0473205080756891
 31
0.0699999999999998
 12
-1.7940123317959431
 22
1.0126794919243121
 32
0.0699999999999998
 13
-0.1485640646055101
 23
0.0626794919243112
 33
0.2
  0
3DFACE
  5
553
  8
TRAIL
 10
-1.7940123317959431
 20
1.0126794919243121
 30
0.0699999999999998
 11
-1.7940123317959431
 21
1.0126794919243121
 31
0.06
 12
-0.1485640646055101
 22
0.0626794919243112
 32
0.19
 13
-0.1485640646055101
 23
0.0626794919243112
 33
0.2
  0
3DFACE
  5
554
  8
TRAIL
 10
-0.1285640646055101
 20
0.0973205080756888
 30
0.19
 11
-1.7740123317959431
 21
1.0473205080756891
 31
0.06
 12
-1.7740123317959431
 22
1.0473205080756891
 32
0.0699999999999998
 13
-0.1285640646055101
 23
0.0973205080756888
 33
0.2
  0
3DFACE
  5
555
  8
TRAIL
 10
-0.0852627944162882
 20
0.0723205080756889
 30
0.11
 11
-0.1125833024919769
 21
0.0650000000000001
 31
0.11
 12
-0.1125833024919769
 22
0.0650000000000001
 32
0.18
 13
-0.0852627944162882
 23
0.0723205080756889
 33
0.18
  0
3DFACE
  5
556
  8
TRAIL
 10
-0.1125833024919769
 20
0.0650000000000001
 30
0.11
 11
-0.1052627944162882
 21
0.0376794919243114
 31
0.11
 12
-0.1052627944162882
 22
0.0376794919243114
 32
0.18
 13
-0.1125833024919769
 23
0.0650000000000001
 33
0.18
  0
3DFACE
  5
557
  8
TRAIL
 10
-0.1052627944162882
 20
0.0376794919243114
 30
0.09
 11
-0.0779422863405994
 21
0.0450000000000001
 31
0.09
 12
-0.0779422863405994
 22
0.0450000000000001
 32
0.2
 13
-0.1052627944162882
 23
0.0376794919243114
 33
0.2
  0
3DFACE
  5
558
  8
TRAIL
 10
-0.0779422863405994
 20
0.0450000000000001
 30
0.09
 11
-0.0852627944162882
 21
0.0723205080756889
 31
0.09
 12
-0.0852627944162882
 22
0.0723205080756889
 32
0.2
 13
-0.0779422863405994
 23
0.0450000000000001
 33
0.2
  0
3DFACE
  5
559
  8
TRAIL
 10
-0.1335640646055113
 20
0.0886602540378452
 30
0.11
 11
-0.5319357503463524
 21
0.318660254037845
 31
0.0882105263157895
 12
-0.5419357503463523
 22
0.3013397459621562
 32
0.0882105263157895
 13
-0.1435640646055113
 23
0.0713397459621564
 33
0.11
  0
3DFACE
  5
55A
  8
TRAIL
 10
-0.549256258422042
 20
0.3286602540378454
 30
0.0872631578947368
 11
-0.9476279441628829
 21
0.5586602540378453
 31
0.0654736842105263
 12
-0.9576279441628829
 22
0.5413397459621564
 32
0.0654736842105263
 13
-0.5592562584220419
 23
0.3113397459621566
 33
0.0872631578947368
  0
3DFACE
  5
55B
  8
TRAIL
 10
-0.9649484522385714
 20
0.5686602540378452
 30
0.0645263157894737
 11
-1.363320137979412
 21
0.798660254037845
 31
0.0427368421052632
 12
-1.373320137979412
 22
0.7813397459621562
 32
0.0427368421052632
 13
-0.9749484522385714
 23
0.5513397459621564
 33
0.0645263157894737
  0
3DFACE
  5
55C
  8
TRAIL
 10
-1.3806406460551011
 20
0.8086602540378453
 30
0.0417894736842105
 11
-1.7790123317959421
 21
1.0386602540378449
 31
0.02
 12
-1.7890123317959421
 22
1.021339745962156
 32
0.02
 13
-1.3906406460551011
 23
0.7913397459621564
 33
0.0417894736842105
  0
3DFACE
  5
55D
  8
TRAIL
 10
-0.1285640646055103
 20
0.0973205080756889
 30
0.11
 11
-0.1285640646055099
 21
0.0973205080756888
 31
0.1
 12
-0.1335640646055099
 22
0.0886602540378443
 32
0.1
 13
-0.1335640646055102
 23
0.0886602540378445
 33
0.1099999999999997
  0
3DFACE
  5
55E
  8
TRAIL
 10
-0.1435640646055103
 20
0.0713397459621558
 30
0.11
 11
-0.14356406460551
 21
0.0713397459621556
 31
0.1
 12
-0.1485640646055099
 22
0.0626794919243111
 32
0.1
 13
-0.1485640646055102
 23
0.0626794919243113
 33
0.1099999999999997
  0
3DFACE
  5
55F
  8
TRAIL
 10
-1.7913328398716311
 20
1.0573205080756889
 30
0.0199999999999998
 11
-1.8173136019851639
 21
1.072320508075689
 31
0.0199999999999998
 12
-1.8373136019851639
 22
1.0376794919243111
 32
0.0199999999999998
 13
-1.8113328398716311
 23
1.0226794919243121
 33
0.0199999999999998
  0
3DFACE
  5
560
  8
TRAIL
 10
-1.7740123317959431
 20
1.0473205080756891
 30
0.0199999999999998
 11
-1.7740123317959411
 21
1.0473205080756891
 31
0.0599999999999995
 12
-1.7790123317959421
 22
1.0386602540378449
 32
0.0599999999999998
 13
-1.7790123317959421
 23
1.0386602540378449
 33
0.05
  0
3DFACE
  5
561
  8
TRAIL
 10
-1.7890123317959421
 20
1.021339745962156
 30
0.05
 11
-1.7890123317959421
 21
1.021339745962156
 31
0.0599999999999998
 12
-1.7940123317959431
 22
1.0126794919243121
 32
0.06
 13
-1.7940123317959431
 23
1.0126794919243121
 33
0.0199999999999998
  0
3DFACE
  5
562
  8
TRAIL
 10
-1.7740123317959431
 20
1.0473205080756891
 30
0.0199999999999998
 11
-1.7790123317959421
 21
1.0386602540378449
 31
0.05
 12
-1.7890123317959421
 22
1.021339745962156
 32
0.05
 13
-1.7940123317959431
 23
1.0126794919243121
 33
0.0199999999999998
  0
3DFACE
  5
563
  8
TRAIL
 10
-1.7940123317959431
 20
1.0126794919243121
 30
0.0199999999999998
 11
-1.794012331795942
 21
1.0126794919243109
 31
0.01
 12
-1.789012331795943
 22
1.021339745962156
 32
0.01
 13
-1.789012331795943
 23
1.021339745962156
 33
0.0199999999999998
  0
3DFACE
  5
564
  8
TRAIL
 10
-1.779012331795943
 20
1.0386602540378449
 30
0.0199999999999998
 11
-1.7790123317959421
 21
1.0386602540378449
 31
0.01
 12
-1.7740123317959431
 22
1.0473205080756891
 32
0.01
 13
-1.7740123317959431
 23
1.0473205080756891
 33
0.0199999999999998
  0
3DFACE
  5
565
  8
TRAIL
 10
-0.14356406460551
 20
0.0713397459621556
 30
0.1
 11
-1.789012331795943
 21
1.021339745962156
 31
0.01
 12
-1.794012331795942
 22
1.0126794919243109
 32
0.01
 13
-0.1485640646055102
 23
0.0626794919243113
 33
0.1
  0
3DFACE
  5
566
  8
TRAIL
 10
-0.1285640646055101
 20
0.0973205080756888
 30
0.1
 11
-1.7740123317959431
 21
1.0473205080756891
 31
0.01
 12
-1.7790123317959421
 22
1.0386602540378449
 32
0.01
 13
-0.1335640646055103
 23
0.0886602540378445
 33
0.1
  0
3DFACE
  5
567
  8
TRAIL
 10
-0.5592562584220407
 20
0.3113397459621559
 30
0.0872631578947369
 11
-0.5592562584220409
 21
0.3113397459621561
 31
0.1471578947368421
 12
-0.5492562584220408
 22
0.3286602540378448
 32
0.1471578947368421
 13
-0.5492562584220408
 23
0.3286602540378448
 33
0.0872631578947369
  0
3DFACE
  5
568
  8
TRAIL
 10
-0.5492562584220408
 20
0.3286602540378448
 30
0.0872631578947369
 11
-0.5492562584220408
 21
0.3286602540378448
 31
0.1471578947368421
 12
-0.5319357503463524
 22
0.318660254037845
 32
0.1485263157894736
 13
-0.5319357503463524
 23
0.318660254037845
 33
0.0882105263157895
  0
3DFACE
  5
569
  8
TRAIL
 10
-0.5419357503463523
 20
0.3013397459621562
 30
0.1485263157894736
 11
-0.5592562584220409
 21
0.3113397459621561
 31
0.1471578947368421
 12
-0.5592562584220407
 22
0.3113397459621559
 32
0.0872631578947369
 13
-0.5419357503463523
 23
0.3013397459621562
 33
0.0882105263157895
  0
3DFACE
  5
56A
  8
TRAIL
 10
-0.5319357503463524
 20
0.318660254037845
 30
0.0882105263157895
 11
-0.5319357503463524
 21
0.318660254037845
 31
0.1485263157894736
 12
-0.5419357503463523
 22
0.3013397459621562
 32
0.1485263157894736
 13
-0.5419357503463523
 23
0.3013397459621562
 33
0.0882105263157895
  0
3DFACE
  5
56B
  8
TRAIL
 10
-0.9749484522385712
 20
0.5513397459621562
 30
0.0645263157894737
 11
-0.9749484522385712
 21
0.5513397459621562
 31
0.1143157894736842
 12
-0.9649484522385712
 22
0.5686602540378452
 32
0.1143157894736842
 13
-0.9649484522385712
 23
0.5686602540378452
 33
0.0645263157894737
  0
3DFACE
  5
56C
  8
TRAIL
 10
-0.9649484522385712
 20
0.5686602540378452
 30
0.0645263157894737
 11
-0.9649484522385712
 21
0.5686602540378452
 31
0.1143157894736842
 12
-0.9476279441628829
 22
0.5586602540378453
 32
0.1156842105263157
 13
-0.9476279441628829
 23
0.5586602540378453
 33
0.0654736842105263
  0
3DFACE
  5
56D
  8
TRAIL
 10
-0.9476279441628829
 20
0.5586602540378453
 30
0.0654736842105263
 11
-0.9476279441628829
 21
0.5586602540378453
 31
0.1156842105263157
 12
-0.9576279441628829
 22
0.5413397459621564
 32
0.1156842105263157
 13
-0.9576279441628829
 23
0.5413397459621564
 33
0.0654736842105263
  0
3DFACE
  5
56E
  8
TRAIL
 10
-0.9576279441628829
 20
0.5413397459621564
 30
0.1156842105263157
 11
-0.9749484522385712
 21
0.5513397459621562
 31
0.1143157894736842
 12
-0.9749484522385712
 22
0.5513397459621562
 32
0.0645263157894737
 13
-0.9576279441628829
 23
0.5413397459621564
 33
0.0654736842105263
  0
3DFACE
  5
56F
  8
TRAIL
 10
-1.3633201379794131
 20
0.7986602540378455
 30
0.0427368421052631
 11
-1.3633201379794131
 21
0.7986602540378455
 31
0.0828421052631578
 12
-1.3733201379794131
 22
0.7813397459621566
 32
0.0828421052631578
 13
-1.3733201379794131
 23
0.7813397459621566
 33
0.0427368421052631
  0
3DFACE
  5
570
  8
TRAIL
 10
-1.3906406460551011
 20
0.7913397459621564
 30
0.0417894736842105
 11
-1.3906406460551011
 21
0.7913397459621564
 31
0.0814736842105263
 12
-1.3806406460551011
 22
0.8086602540378453
 32
0.0814736842105263
 13
-1.3806406460551011
 23
0.8086602540378453
 33
0.0417894736842105
  0
3DFACE
  5
571
  8
TRAIL
 10
-1.3733201379794131
 20
0.7813397459621566
 30
0.0828421052631578
 11
-1.3906406460551011
 21
0.7913397459621564
 31
0.0814736842105263
 12
-1.3906406460551011
 22
0.7913397459621564
 32
0.0417894736842105
 13
-1.3733201379794131
 23
0.7813397459621566
 33
0.0427368421052631
  0
3DFACE
  5
572
  8
TRAIL
 10
-1.3806406460551011
 20
0.8086602540378453
 30
0.0417894736842105
 11
-1.3806406460551011
 21
0.8086602540378453
 31
0.0814736842105263
 12
-1.3633201379794131
 22
0.7986602540378455
 32
0.0828421052631578
 13
-1.3633201379794131
 23
0.7986602540378455
 33
0.0427368421052631
  0
3DFACE
  5
573
  8
TRAIL
 10
-0.1335640646055103
 20
0.0886602540378445
 30
0.1
 11
-1.7790123317959421
 21
1.0386602540378449
 31
0.01
 12
-1.7790123317959421
 22
1.0386602540378449
 32
0.02
 13
-0.1335640646055103
 23
0.0886602540378445
 33
0.11
  0
3DFACE
  5
574
  8
TRAIL
 10
-1.7890123317959421
 20
1.021339745962156
 30
0.02
 11
-1.7890123317959421
 21
1.021339745962156
 31
0.01
 12
-0.1435640646055103
 22
0.0713397459621558
 32
0.1
 13
-0.1435640646055103
 23
0.0713397459621558
 33
0.11
  0
3DFACE
  5
575
  8
TRAIL
 10
-1.8113328398716311
 20
1.0226794919243121
 30
0.0199999999999998
 11
-1.8113328398716311
 21
1.0226794919243121
 31
0.0700000000000001
 12
-1.7913328398716311
 22
1.0573205080756889
 32
0.0700000000000001
 13
-1.7913328398716311
 23
1.0573205080756889
 33
0.0199999999999998
  0
3DFACE
  5
576
  8
TRAIL
 10
-1.7913328398716311
 20
1.0573205080756889
 30
0.0199999999999998
 11
-1.7913328398716311
 21
1.0573205080756889
 31
0.0700000000000001
 12
-1.7740123317959431
 22
1.0473205080756891
 32
0.0700000000000001
 13
-1.7740123317959431
 23
1.0473205080756891
 33
0.0199999999999998
  0
3DFACE
  5
577
  8
TRAIL
 10
-1.7940123317959431
 20
1.0126794919243121
 30
0.0700000000000001
 11
-1.8113328398716311
 21
1.0226794919243121
 31
0.0700000000000001
 12
-1.8113328398716311
 22
1.0226794919243121
 32
0.0199999999999998
 13
-1.7940123317959431
 23
1.0126794919243121
 33
0.0199999999999998
  0
3DFACE
  5
578
  8
TRAIL
 10
-1.7740123317959431
 20
1.0473205080756891
 30
0.0700000000000001
 11
-1.7913328398716311
 21
1.0573205080756889
 31
0.0700000000000001
 12
-1.8113328398716311
 22
1.0226794919243121
 32
0.0700000000000001
 13
-1.7940123317959431
 23
1.0126794919243121
 33
0.0700000000000001
  0
3DFACE
  5
579
  8
TRAIL
 10
-0.1485640646055101
 20
0.0626794919243112
 30
0.09
 11
-1.7940123317959431
 21
1.0126794919243121
 31
-0.0000000000000001
 12
-1.7740123317959431
 22
1.0473205080756891
 32
-0.0000000000000001
 13
-0.1285640646055101
 23
0.0973205080756888
 33
0.09
  0
3DFACE
  5
57A
  8
TRAIL
 10
-0.1285640646055101
 20
0.0973205080756888
 30
0.09
 11
-1.7740123317959431
 21
1.0473205080756891
 31
-0.0000000000000001
 12
-1.7740123317959431
 22
1.0473205080756891
 32
0.01
 13
-0.1285640646055101
 23
0.0973205080756888
 33
0.1
  0
3DFACE
  5
57B
  8
TRAIL
 10
-1.7940123317959431
 20
1.0126794919243121
 30
0.01
 11
-1.7940123317959431
 21
1.0126794919243121
 31
-0.0000000000000001
 12
-0.1485640646055101
 22
0.0626794919243112
 32
0.09
 13
-0.1485640646055101
 23
0.0626794919243112
 33
0.1
  0
3DFACE
  5
57C
  8
TRAIL
 10
-1.794012331795942
 20
1.0126794919243109
 30
-0.0000000000000001
 11
-1.8373136019851639
 21
1.0376794919243111
 31
-0.0000000000000001
 12
-1.8173136019851639
 22
1.072320508075689
 32
-0.0000000000000001
 13
-1.774012331795942
 23
1.0473205080756891
 33
-0.0000000000000001
  0
3DFACE
  5
57D
  8
TRAIL
 10
-1.8373136019851639
 20
1.0376794919243111
 30
0.0199999999999998
 11
-1.8373136019851639
 21
1.0376794919243111
 31
-0.0000000000000001
 12
-1.794012331795942
 22
1.0126794919243109
 32
-0.0000000000000001
 13
-1.794012331795942
 23
1.0126794919243109
 33
0.0199999999999998
  0
3DFACE
  5
57E
  8
TRAIL
 10
-1.8173136019851639
 20
1.072320508075689
 30
0.0199999999999998
 11
-1.8173136019851639
 21
1.072320508075689
 31
-0.0000000000000001
 12
-1.8373136019851639
 22
1.0376794919243111
 32
-0.0000000000000001
 13
-1.8373136019851639
 23
1.0376794919243111
 33
0.0199999999999998
  0
3DFACE
  5
57F
  8
TRAIL
 10
-1.774012331795942
 20
1.0473205080756891
 30
-0.0000000000000001
 11
-1.8173136019851639
 21
1.072320508075689
 31
-0.0000000000000001
 12
-1.8173136019851639
 22
1.072320508075689
 32
0.0199999999999998
 13
-1.774012331795942
 23
1.0473205080756891
 33
0.0199999999999998
  0
3DFACE
  5
580
  8
TRAIL
 10
-0.0852627944162881
 20
0.0723205080756888
 30
0.1099999999999997
 11
-0.1285640646055101
 21
0.0973205080756889
 31
0.1099999999999997
 12
-0.1485640646055102
 22
0.0626794919243113
 32
0.1099999999999997
 13
-0.1052627944162881
 23
0.0376794919243112
 33
0.1099999999999997
  0
3DFACE
  5
581
  8
TRAIL
 10
-0.1052627944162881
 20
0.0376794919243112
 30
0.09
 11
-0.1485640646055102
 21
0.0626794919243113
 31
0.09
 12
-0.1285640646055101
 22
0.0973205080756889
 32
0.09
 13
-0.0852627944162881
 23
0.0723205080756888
 33
0.09
  0
3DFACE
  5
582
  8
TRAIL
 10
-0.0852627944162881
 20
0.0723205080756888
 30
0.09
 11
-0.1285640646055101
 21
0.0973205080756889
 31
0.09
 12
-0.1285640646055101
 22
0.0973205080756889
 32
0.1099999999999997
 13
-0.0852627944162881
 23
0.0723205080756888
 33
0.1099999999999997
  0
3DFACE
  5
583
  8
TRAIL
 10
-0.1485640646055102
 20
0.0626794919243113
 30
0.1099999999999997
 11
-0.1485640646055102
 21
0.0626794919243113
 31
0.09
 12
-0.1052627944162881
 22
0.0376794919243112
 32
0.09
 13
-0.1052627944162881
 23
0.0376794919243112
 33
0.1099999999999997
  0
3DFACE
  5
584
  8
TRAIL
 10
-0.1285640646055095
 20
0.0973205080756885
 30
0.1899999999999998
 11
-0.1285640646055095
 21
0.0973205080756885
 31
0.1799999999999998
 12
-0.1335640646055094
 22
0.088660254037844
 32
0.1799999999999997
 13
-0.1335640646055094
 23
0.088660254037844
 33
0.1899999999999998
  0
3DFACE
  5
585
  8
TRAIL
 10
-0.1435640646055103
 20
0.0713397459621558
 30
0.19
 11
-0.1435640646055103
 21
0.0713397459621558
 31
0.18
 12
-0.1485640646055102
 22
0.0626794919243113
 32
0.1799999999999999
 13
-0.1485640646055102
 23
0.0626794919243113
 33
0.19
  0
3DFACE
  5
586
  8
TRAIL
 10
-0.0852627944162881
 20
0.0723205080756888
 30
0.1999999999999997
 11
-0.1285640646055101
 21
0.0973205080756889
 31
0.1999999999999997
 12
-0.1485640646055102
 22
0.0626794919243113
 32
0.1999999999999997
 13
-0.1052627944162881
 23
0.0376794919243112
 33
0.1999999999999997
  0
3DFACE
  5
587
  8
TRAIL
 10
-0.1052627944162881
 20
0.0376794919243112
 30
0.1799999999999999
 11
-0.1485640646055102
 21
0.0626794919243113
 31
0.1799999999999999
 12
-0.1285640646055101
 22
0.0973205080756889
 32
0.1799999999999999
 13
-0.0852627944162881
 23
0.0723205080756888
 33
0.1799999999999999
  0
3DFACE
  5
588
  8
TRAIL
 10
-0.1485640646055102
 20
0.0626794919243113
 30
0.1999999999999997
 11
-0.1485640646055102
 21
0.0626794919243113
 31
0.1799999999999999
 12
-0.1052627944162881
 22
0.0376794919243112
 32
0.1799999999999999
 13
-0.1052627944162881
 23
0.0376794919243112
 33
0.1999999999999997
  0
3DFACE
  5
589
  8
TRAIL
 10
-0.0852627944162881
 20
0.0723205080756888
 30
0.1799999999999999
 11
-0.1285640646055101
 21
0.0973205080756889
 31
0.1799999999999999
 12
-0.1285640646055101
 22
0.0973205080756889
 32
0.1999999999999997
 13
-0.0852627944162881
 23
0.0723205080756888
 33
0.1999999999999997
  0
VIEWPORT
  5
2E
 67
     1
  8
0
 10
144.7270812988281
 20
101.2295806407928
 30
0.0
 40
391.13550988316581
 41
222.15178063964839
 68
     2
 69
     1
1001
ACAD
1000
MVIEW
1002
{
1070
    16
1010
0.0
1020
0.0
1030
0.0
1010
0.0
1020
0.0
1030
1.0
1040
0.0
1040
222.15178063964839
1040
144.7270812988281
1040
101.2295806407928
1040
50.0
1040
0.0
1040
0.0
1070
     0
1070
   100
1070
     1
1070
     1
1070
     0
1070
     0
1070
     0
1070
     0
1040
0.0
1040
0.0
1040
0.0
1040
10.0
1040
10.0
1040
10.0
1040
10.0
1070
     0
1002
{
1002
}
1002
}
  0
VIEWPORT
  5
30
 67
     1
  8
0
 10
139.22375631332389
 20
100.8062499761581
 30
0.0
 40
222.75801010131829
 41
161.289999961853
 68
     1
 69
     2
1001
ACAD
1000
MVIEW
1002
{
1070
    16
1010
0.0
1020
0.0
1030
0.0
1010
0.0
1020
0.0
1030
1.0
1040
0.0
1040
307.49010134148989
1040
210.0
1040
148.5
1040
50.0
1040
0.0
1040
0.0
1070
     0
1070
   100
1070
     1
1070
     3
1070
     0
1070
     1
1070
     0
1070
     0
1040
0.0
1040
0.0
1040
0.0
1040
10.0
1040
10.0
1040
10.0
1040
10.0
1070
     0
1002
{
1002
}
1002
}
  0
ENDSEC
  0
EOF
