  0
SECTION
  2
HEADER
  9
$ACADVER
  1
AC1009
  9
$INSBASE
 10
0.0
 20
0.0
 30
0.0
  9
$EXTMIN
 10
-1.5100000000000251
 20
-1.9900000000000351
 30
-0.0000000000000107
  9
$EXTMAX
 10
1.5100000000000151
 20
2.3699999999999779
 30
2.8600000000000021
  9
$LIMMIN
 10
0.0
 20
0.0
  9
$LIMMAX
 10
420.0
 20
297.0
  9
$ORTHOMODE
 70
     1
  9
$REGENMODE
 70
     1
  9
$FILLMODE
 70
     1
  9
$QTEXTMODE
 70
     0
  9
$MIRRTEXT
 70
     1
  9
$DRAGMODE
 70
     2
  9
$LTSCALE
 40
1.0
  9
$OSMODE
 70
    39
  9
$ATTMODE
 70
     1
  9
$TEXTSIZE
 40
2.5
  9
$TRACEWID
 40
1.0
  9
$TEXTSTYLE
  7
STANDARD
  9
$CLAYER
  8
0
  9
$CELTYPE
  6
BYLAYER
  9
$CECOLOR
 62
   256
  9
$DIMSCALE
 40
1.0
  9
$DIMASZ
 40
2.5
  9
$DIMEXO
 40
0.625
  9
$DIMDLI
 40
3.75
  9
$DIMRND
 40
0.0
  9
$DIMDLE
 40
0.0
  9
$DIMEXE
 40
1.25
  9
$DIMTP
 40
0.0
  9
$DIMTM
 40
0.0
  9
$DIMTXT
 40
2.5
  9
$DIMCEN
 40
2.5
  9
$DIMTSZ
 40
0.0
  9
$DIMTOL
 70
     0
  9
$DIMLIM
 70
     0
  9
$DIMTIH
 70
     0
  9
$DIMTOH
 70
     0
  9
$DIMSE1
 70
     0
  9
$DIMSE2
 70
     0
  9
$DIMTAD
 70
     1
  9
$DIMZIN
 70
     8
  9
$DIMBLK
  1

  9
$DIMASO
 70
     1
  9
$DIMSHO
 70
     1
  9
$DIMPOST
  1

  9
$DIMAPOST
  1

  9
$DIMALT
 70
     0
  9
$DIMALTD
 70
     3
  9
$DIMALTF
 40
0.03937007874016
  9
$DIMLFAC
 40
1.0
  9
$DIMTOFL
 70
     1
  9
$DIMTVP
 40
0.0
  9
$DIMTIX
 70
     0
  9
$DIMSOXD
 70
     0
  9
$DIMSAH
 70
     0
  9
$DIMBLK1
  1

  9
$DIMBLK2
  1

  9
$DIMSTYLE
  2
ISO-25
  9
$DIMCLRD
 70
     0
  9
$DIMCLRE
 70
     0
  9
$DIMCLRT
 70
     0
  9
$DIMTFAC
 40
1.0
  9
$DIMGAP
 40
0.625
  9
$LUNITS
 70
     2
  9
$LUPREC
 70
     4
  9
$SKETCHINC
 40
1.0
  9
$FILLETRAD
 40
10.0
  9
$AUNITS
 70
     0
  9
$AUPREC
 70
     0
  9
$MENU
  1
.
  9
$ELEVATION
 40
0.0
  9
$PELEVATION
 40
0.0
  9
$THICKNESS
 40
0.0
  9
$LIMCHECK
 70
     0
  9
$BLIPMODE
 70
     0
  9
$CHAMFERA
 40
10.0
  9
$CHAMFERB
 40
10.0
  9
$SKPOLY
 70
     0
  9
$TDCREATE
 40
2455752.5505406251
  9
$TDUPDATE
 40
2455752.5507491319
  9
$TDINDWG
 40
0.0002085069
  9
$TDUSRTIMER
 40
0.0002085069
  9
$USRTIMER
 70
     1
  9
$ANGBASE
 50
0.0
  9
$ANGDIR
 70
     0
  9
$PDMODE
 70
     0
  9
$PDSIZE
 40
0.0
  9
$PLINEWID
 40
0.0
  9
$COORDS
 70
     1
  9
$SPLFRAME
 70
     0
  9
$SPLINETYPE
 70
     6
  9
$SPLINESEGS
 70
     8
  9
$ATTDIA
 70
     1
  9
$ATTREQ
 70
     1
  9
$HANDLING
 70
-16383
  9
$HANDSEED
  5
12E
  9
$SURFTAB1
 70
     6
  9
$SURFTAB2
 70
     6
  9
$SURFTYPE
 70
     6
  9
$SURFU
 70
     6
  9
$SURFV
 70
     6
  9
$UCSNAME
  2

  9
$UCSORG
 10
0.0
 20
0.0
 30
0.0
  9
$UCSXDIR
 10
0.0
 20
-1.0
 30
0.0
  9
$UCSYDIR
 10
0.0
 20
0.0
 30
1.0
  9
$PUCSNAME
  2

  9
$PUCSORG
 10
0.0
 20
0.0
 30
0.0
  9
$PUCSXDIR
 10
1.0
 20
0.0
 30
0.0
  9
$PUCSYDIR
 10
0.0
 20
1.0
 30
0.0
  9
$USERI1
 70
     0
  9
$USERI2
 70
     0
  9
$USERI3
 70
     0
  9
$USERI4
 70
     0
  9
$USERI5
 70
     0
  9
$USERR1
 40
0.0
  9
$USERR2
 40
0.0
  9
$USERR3
 40
0.0
  9
$USERR4
 40
0.0
  9
$USERR5
 40
0.0
  9
$WORLDVIEW
 70
     1
  9
$SHADEDGE
 70
     3
  9
$SHADEDIF
 70
    70
  9
$TILEMODE
 70
     1
  9
$MAXACTVP
 70
    64
  9
$PLIMCHECK
 70
     0
  9
$PEXTMIN
 10
27.844751262664801
 20
20.161249995231621
 30
0.0
  9
$PEXTMAX
 10
250.60276136398309
 20
181.4512499570846
 30
0.0
  9
$PLIMMIN
 10
-3.757080078125
 20
-3.7570831775665279
  9
$PLIMMAX
 10
293.21124267578119
 20
206.21624445915219
  9
$UNITMODE
 70
     0
  9
$VISRETAIN
 70
     1
  9
$PLINEGEN
 70
     0
  9
$PSLTSCALE
 70
     1
  0
ENDSEC
  0
SECTION
  2
TABLES
  0
TABLE
  2
VPORT
 70
     2
  0
VPORT
  2
*ACTIVE
 70
     0
 10
0.0
 20
0.0
 11
1.0
 21
1.0
 12
0.6850267327163473
 22
1.0210738181990231
 13
0.0
 23
0.0
 14
0.25
 24
0.25
 15
1.0
 25
1.0
 16
-1.0
 26
0.0
 36
0.0
 17
0.0
 27
0.0
 37
0.0
 40
3.9931464789042872
 41
2.1731448763250878
 42
50.0
 43
0.0
 44
0.0
 50
0.0
 51
0.0
 71
     0
 72
   100
 73
     1
 74
     3
 75
     1
 76
     1
 77
     0
 78
     0
  0
ENDTAB
  0
TABLE
  2
LTYPE
 70
     1
  0
LTYPE
  2
CONTINUOUS
 70
     0
  3
Solid line
 72
    65
 73
     0
 40
0.0
  0
ENDTAB
  0
TABLE
  2
LAYER
 70
     2
  0
LAYER
  2
0
 70
     0
 62
     7
  6
CONTINUOUS
  0
LAYER
  2
TURRET
 70
     0
 62
     2
  6
CONTINUOUS
  0
ENDTAB
  0
TABLE
  2
STYLE
 70
     1
  0
STYLE
  2
STANDARD
 70
     0
 40
0.0
 41
1.0
 50
0.0
 71
     0
 42
2.5
  3
txt
  4

  0
ENDTAB
  0
TABLE
  2
VIEW
 70
     0
  0
ENDTAB
  0
TABLE
  2
UCS
 70
     0
  0
ENDTAB
  0
TABLE
  2
APPID
 70
     1
  0
APPID
  2
ACAD
 70
     0
  0
ENDTAB
  0
TABLE
  2
DIMSTYLE
 70
     1
  0
DIMSTYLE
  2
ISO-25
 70
     0
  3

  4

  5

  6

  7

 40
1.0
 41
2.5
 42
0.625
 43
3.75
 44
1.25
 45
0.0
 46
0.0
 47
0.0
 48
0.0
140
2.5
141
2.5
142
0.0
143
0.03937007874016
144
1.0
145
0.0
146
1.0
147
0.625
 71
     0
 72
     0
 73
     0
 74
     0
 75
     0
 76
     0
 77
     1
 78
     8
170
     0
171
     3
172
     1
173
     0
174
     0
175
     0
176
     0
177
     0
178
     0
  0
ENDTAB
  0
ENDSEC
  0
SECTION
  2
BLOCKS
  0
BLOCK
  8
0
  2
$MODEL_SPACE
 70
     0
 10
0.0
 20
0.0
 30
0.0
  3
$MODEL_SPACE
  1

  0
ENDBLK
  5
21
  8
0
  0
BLOCK
 67
     1
  8
0
  2
$PAPER_SPACE
 70
     0
 10
0.0
 20
0.0
 30
0.0
  3
$PAPER_SPACE
  1

  0
ENDBLK
  5
1D
 67
     1
  8
0
  0
ENDSEC
  0
SECTION
  2
ENTITIES
  0
3DFACE
  5
D3
  8
TURRET
 10
1.510000000000008
 20
1.4699999999999731
 30
1.76
 11
1.510000000000008
 21
-1.8000000000000069
 31
1.0599999999999981
 12
1.510000000000008
 22
-1.8000000000000069
 32
0.0999999999999979
 13
1.510000000000008
 23
2.229999999999992
 33
0.0999999999999979
  0
3DFACE
  5
D4
  8
TURRET
 10
1.510000000000008
 20
-1.670000000000013
 30
2.199999999999998
 11
1.510000000000008
 21
-1.9900000000000351
 31
2.199999999999998
 12
1.510000000000008
 22
-1.800000000000036
 32
1.0599999999999981
 13
1.510000000000008
 23
1.4699999999999731
 33
1.76
  0
3DFACE
  5
D5
  8
TURRET
 10
0.2000000000000011
 20
1.4699999999999731
 30
1.76
 11
0.2000000000000011
 21
1.4699999999999731
 31
1.76
 12
0.1300000000000026
 22
1.9599999999999831
 32
0.8562222222222253
 13
0.1300000000000026
 23
1.9599999999999831
 33
1.5
  0
3DFACE
  5
D6
  8
TURRET
 10
0.1300000000000026
 20
1.9599999999999831
 30
1.5
 11
0.1300000000000026
 21
1.9599999999999831
 31
0.8562222222222253
 12
-0.129999999999999
 22
1.9599999999999831
 32
0.8562222222222253
 13
-0.129999999999999
 23
1.9599999999999831
 33
1.5
  0
3DFACE
  5
D7
  8
TURRET
 10
-0.129999999999999
 20
1.9599999999999831
 30
0.8562222222222253
 11
-0.1999999999999975
 21
1.4699999999999731
 31
1.76
 12
-0.1999999999999975
 22
1.4699999999999731
 32
1.76
 13
-0.129999999999999
 23
1.9599999999999831
 33
1.5
  0
3DFACE
  5
D8
  8
TURRET
 10
0.5400000000000027
 20
2.2699999999999561
 30
0.0999999999999979
 11
0.5400000000000012
 21
1.369999999999977
 31
1.76
 12
-0.5399999999999992
 22
1.369999999999977
 32
1.76
 13
-0.5399999999999992
 23
2.2699999999999561
 33
0.0999999999999979
  0
3DFACE
  5
D9
  8
TURRET
 10
-1.509999999999998
 20
2.229999999999992
 30
0.0999999999999979
 11
-1.509999999999998
 21
1.4699999999999731
 31
1.76
 12
-0.5399999999999992
 22
1.4699999999999731
 32
1.76
 13
-0.5399999999999992
 23
2.3699999999999499
 33
0.0999999999999979
  0
3DFACE
  5
DA
  8
TURRET
 10
-0.5399999999999992
 20
2.2699999999999561
 30
0.0999999999999979
 11
-0.5399999999999992
 21
1.369999999999977
 31
1.76
 12
-1.409999999999989
 22
1.4199999999999611
 32
1.76
 13
-1.409999999999989
 23
2.1799999999999802
 33
0.0999999999999979
  0
3DFACE
  5
DB
  8
TURRET
 10
1.4099999999999999
 20
2.1799999999999802
 30
0.0999999999999979
 11
1.4099999999999999
 21
1.4199999999999611
 31
1.76
 12
0.5400000000000012
 22
1.369999999999977
 32
1.76
 13
0.5400000000000027
 23
2.2699999999999561
 33
0.0999999999999979
  0
3DFACE
  5
DC
  8
TURRET
 10
-0.5400000000000969
 20
2.3699999999999499
 30
0.0999999999999979
 11
-0.5399999999999992
 21
1.4699999999999731
 31
1.76
 12
-0.1999999999999975
 22
1.4699999999999731
 32
1.76
 13
-0.1300000000000967
 23
1.9599999999999831
 33
0.8562222222222253
  0
3DFACE
  5
DD
  8
TURRET
 10
0.1300000000000026
 20
1.9599999999999831
 30
0.8562222222222253
 11
0.2000000000000011
 21
1.4699999999999731
 31
1.76
 12
0.5400000000000012
 22
1.4699999999999731
 32
1.76
 13
0.5399999999999035
 23
2.3699999999999779
 33
0.0999999999999979
  0
3DFACE
  5
DE
  8
TURRET
 10
1.4099999999999999
 20
-1.7000000000000131
 30
1.059999999999913
 11
-1.409999999999991
 21
-1.7000000000000131
 31
1.0600000000000041
 12
-1.409999999999991
 22
-1.8900000000000401
 32
2.2000000000000011
 13
1.4099999999999999
 23
-1.8900000000000401
 33
2.199999999999998
  0
3DFACE
  5
DF
  8
TURRET
 10
-0.7400000000000003
 20
0.0000000000000027
 30
2.5700000000000021
 11
-0.7400000000000003
 21
-1.3800000000000201
 31
2.5700000000000021
 12
-0.7400000000000003
 22
-1.3800000000000201
 32
0.0999999999999979
 13
-0.7400000000000003
 23
-0.0000000000000542
 33
0.0999999999999979
  0
3DFACE
  5
E0
  8
TURRET
 10
-0.8399999999999996
 20
-1.3800000000000201
 30
0.0999999999999979
 11
-0.8399999999999996
 21
-1.3800000000000201
 31
2.5700000000000021
 12
-0.8399999999999996
 22
0.0000000000000027
 32
2.5700000000000021
 13
-0.8399999999999996
 23
-0.0000000000000542
 33
0.0999999999999979
  0
3DFACE
  5
E1
  8
TURRET
 10
-0.8399999999999996
 20
-0.0000000000000542
 30
0.0999999999999979
 11
-0.8399999999999996
 21
0.0000000000000027
 31
2.5700000000000021
 12
-0.7400000000000003
 22
0.0000000000000027
 32
2.5700000000000021
 13
-0.7400000000000003
 23
-0.0000000000000542
 33
0.0999999999999979
  0
3DFACE
  5
E2
  8
TURRET
 10
-0.7400000000000003
 20
-1.3800000000000201
 30
0.0999999999999979
 11
-0.7400000000000003
 21
-1.3800000000000201
 31
2.2799999999999958
 12
-0.8399999999999996
 22
-1.3800000000000201
 32
2.2799999999999958
 13
-0.8399999999999996
 23
-1.3800000000000201
 33
0.0999999999999979
  0
3DFACE
  5
E3
  8
TURRET
 10
0.8399999999999996
 20
-1.3800000000000201
 30
0.0999999999999979
 11
0.8399999999999996
 21
-1.3800000000000201
 31
2.2799999999999958
 12
0.7400000000000003
 22
-1.3800000000000201
 32
2.2799999999999958
 13
0.7400000000000003
 23
-1.3800000000000201
 33
0.0999999999999979
  0
3DFACE
  5
E4
  8
TURRET
 10
0.7400000000000003
 20
-0.0000000000000542
 30
0.0999999999999979
 11
0.7400000000000003
 21
0.0000000000000027
 31
2.5700000000000021
 12
0.8399999999999996
 22
0.0000000000000027
 32
2.5700000000000021
 13
0.8399999999999996
 23
-0.0000000000000542
 33
0.0999999999999979
  0
3DFACE
  5
E5
  8
TURRET
 10
0.7400000000000003
 20
-1.3800000000000201
 30
0.0999999999999979
 11
0.7400000000000003
 21
-1.3800000000000201
 31
2.5700000000000021
 12
0.7400000000000003
 22
0.0000000000000027
 32
2.5700000000000021
 13
0.7400000000000003
 23
-0.0000000000000542
 33
0.0999999999999979
  0
3DFACE
  5
E6
  8
TURRET
 10
0.8399999999999996
 20
0.0000000000000027
 30
2.5700000000000021
 11
0.8399999999999996
 21
-1.3800000000000201
 31
2.5700000000000021
 12
0.8399999999999996
 22
-1.3800000000000201
 32
0.0999999999999979
 13
0.8399999999999996
 23
-0.0000000000000542
 33
0.0999999999999979
  0
3DFACE
  5
E7
  8
TURRET
 10
1.4099999999999999
 20
2.1799999999999802
 30
0.0999999999999979
 11
1.4099999999999999
 21
-1.7000000000000131
 31
0.0999999999999979
 12
1.4099999999999999
 22
-1.7000000000000131
 32
1.0599999999999981
 13
1.4099999999999999
 23
1.4199999999999611
 33
1.76
  0
3DFACE
  5
E8
  8
TURRET
 10
1.4099999999999999
 20
1.4199999999999611
 30
1.76
 11
1.4099999999999999
 21
-1.700000000000041
 31
1.0599999999999981
 12
1.4099999999999999
 22
-1.8900000000000401
 32
2.199999999999998
 13
1.4099999999999999
 23
-1.670000000000013
 33
2.199999999999998
  0
3DFACE
  5
E9
  8
TURRET
 10
-1.509999999999998
 20
1.4699999999999731
 30
1.76
 11
-1.509999999999998
 21
-1.800000000000036
 31
1.0599999999999981
 12
-1.509999999999998
 22
-1.9900000000000351
 32
2.2000000000000011
 13
-1.509999999999998
 23
-1.670000000000013
 33
2.2000000000000011
  0
3DFACE
  5
EA
  8
TURRET
 10
-1.509999999999998
 20
2.229999999999992
 30
0.0999999999999979
 11
-1.509999999999998
 21
-1.8000000000000069
 31
0.0999999999999979
 12
-1.509999999999998
 22
-1.8000000000000069
 32
1.0600000000000021
 13
-1.509999999999998
 23
1.4699999999999731
 33
1.76
  0
3DFACE
  5
EB
  8
TURRET
 10
-1.409999999999991
 20
-1.670000000000013
 30
2.2000000000000011
 11
-1.409999999999991
 21
-1.8900000000000401
 31
2.2000000000000011
 12
-1.409999999999991
 22
-1.700000000000041
 32
1.0600000000000021
 13
-1.409999999999989
 23
1.4199999999999611
 33
1.76
  0
3DFACE
  5
EC
  8
TURRET
 10
-1.409999999999989
 20
1.4199999999999611
 30
1.76
 11
-1.409999999999991
 21
-1.7000000000000131
 31
1.0600000000000021
 12
-1.409999999999991
 22
-1.7000000000000131
 32
0.0999999999999979
 13
-1.409999999999989
 23
2.1799999999999802
 33
0.0999999999999979
  0
3DFACE
  5
ED
  8
TURRET
 10
0.5400000000000027
 20
2.3699999999999499
 30
0.0999999999999979
 11
0.5400000000000012
 21
1.4699999999999731
 31
1.76
 12
1.510000000000008
 22
1.4699999999999731
 32
1.76
 13
1.5099999999999989
 23
2.229999999999964
 33
0.0999999999999979
  0
3DFACE
  5
EE
  8
TURRET
 10
1.510000000000008
 20
-1.9900000000000351
 30
2.199999999999998
 11
-1.509999999999998
 21
-1.9900000000000351
 31
2.199999999999998
 12
-1.5099999999999909
 22
-1.800000000000036
 32
1.0599999999999981
 13
1.510000000000008
 23
-1.800000000000036
 33
1.0599999999999981
  0
3DFACE
  5
EF
  8
TURRET
 10
-0.5399999999999992
 20
2.3699999999999499
 30
0.0999999999999979
 11
-0.129999999999999
 21
1.9599999999999831
 31
0.8562222222222253
 12
0.1300000000000026
 22
1.9599999999999831
 32
0.8562222222222253
 13
0.5400000000000027
 23
2.3699999999999499
 33
0.0999999999999979
  0
3DFACE
  5
F0
  8
TURRET
 10
1.4099999999999999
 20
-1.7000000000000131
 30
0.0999999999999979
 11
-1.409999999999991
 21
-1.7000000000000131
 31
0.0999999999999979
 12
-1.409999999999991
 22
-1.7000000000000131
 32
1.0600000000000021
 13
1.4099999999999999
 23
-1.7000000000000131
 33
1.0599999999999981
  0
3DFACE
  5
F1
  8
TURRET
 10
1.510000000000008
 20
-1.800000000000036
 30
1.0599999999999981
 11
-1.509999999999998
 21
-1.8000000000000069
 31
1.0600000000000041
 12
-1.509999999999998
 22
-1.8000000000000069
 32
-0.0000000000000107
 13
1.5099999999999989
 23
-1.8000000000000069
 33
-0.0000000000000107
  0
3DFACE
  5
F2
  8
TURRET
 10
1.5099999999999989
 20
-1.8000000000000069
 30
0.0999999999999979
 11
1.5099999999999989
 21
-1.8000000000000069
 31
-0.0000000000000107
 12
1.5099999999999989
 22
2.229999999999992
 32
-0.0000000000000107
 13
1.5099999999999989
 23
2.229999999999992
 33
0.0999999999999979
  0
3DFACE
  5
F3
  8
TURRET
 10
-0.5399999999999992
 20
2.3699999999999779
 30
-0.0000000000000107
 11
-1.509999999999998
 21
2.229999999999964
 31
-0.0000000000000107
 12
-1.509999999999998
 22
2.229999999999964
 32
0.0999999999999979
 13
-0.5399999999999992
 23
2.3699999999999779
 33
0.0999999999999979
  0
3DFACE
  5
F4
  8
TURRET
 10
0.5400000000000027
 20
2.3699999999999779
 30
0.0999999999999979
 11
0.5400000000000027
 21
2.3699999999999779
 31
-0.0000000000000107
 12
-0.5399999999999992
 22
2.3699999999999779
 32
-0.0000000000000107
 13
-0.5399999999999992
 23
2.3699999999999779
 33
0.0999999999999979
  0
3DFACE
  5
F5
  8
TURRET
 10
-1.509999999999998
 20
2.229999999999992
 30
-0.0000000000000107
 11
-1.509999999999998
 21
-1.8000000000000069
 31
-0.0000000000000107
 12
-1.509999999999998
 22
-1.8000000000000069
 32
0.0999999999999979
 13
-1.509999999999998
 23
2.229999999999992
 33
0.0999999999999979
  0
3DFACE
  5
F6
  8
TURRET
 10
1.5099999999999989
 20
2.229999999999964
 30
0.0999999999999979
 11
1.5099999999999989
 21
2.229999999999964
 31
-0.0000000000000107
 12
0.5400000000000027
 22
2.3699999999999779
 32
-0.0000000000000107
 13
0.5400000000000027
 23
2.3699999999999779
 33
0.0999999999999979
  0
3DFACE
  5
F7
  8
TURRET
 10
1.5099999999999989
 20
2.229999999999992
 30
-0.0000000000000107
 11
1.5099999999999989
 21
-1.8000000000000069
 31
-0.0000000000000107
 12
-1.509999999999998
 22
-1.8000000000000069
 32
-0.0000000000000107
 13
-1.509999999999998
 23
2.229999999999992
 33
-0.0000000000000107
  0
3DFACE
  5
F8
  8
TURRET
 10
0.5400000000000027
 20
2.3699999999999779
 30
-0.0000000000000107
 11
1.5099999999999989
 21
2.229999999999964
 31
-0.0000000000000107
 12
-1.509999999999998
 22
2.229999999999964
 32
-0.0000000000000107
 13
-0.5399999999999992
 23
2.3699999999999779
 33
-0.0000000000000107
  0
3DFACE
  5
F9
  8
TURRET
 10
-1.409999999999989
 20
2.1799999999999802
 30
0.0999999999999979
 11
-1.409999999999991
 21
-1.7000000000000131
 31
0.0999999999999979
 12
1.4099999999999999
 22
-1.7000000000000131
 32
0.0999999999999979
 13
1.4099999999999999
 23
2.1799999999999802
 33
0.0999999999999979
  0
3DFACE
  5
FA
  8
TURRET
 10
-0.5399999999999992
 20
2.2699999999999561
 30
0.0999999999999979
 11
-1.409999999999989
 21
2.1799999999999802
 31
0.0999999999999979
 12
1.4099999999999999
 22
2.1799999999999802
 32
0.0999999999999979
 13
0.5400000000000027
 23
2.2699999999999561
 33
0.0999999999999979
  0
3DFACE
  5
FB
  8
TURRET
 10
1.4099999999999999
 20
-1.670000000000013
 30
2.199999999999998
 11
1.4099999999999999
 21
-1.8900000000000401
 31
2.199999999999998
 12
1.3100000000000001
 22
-1.890000000000011
 32
2.4700000000000011
 13
1.3100000000000001
 23
-1.8700000000000021
 33
2.4700000000000011
  0
3DFACE
  5
FC
  8
TURRET
 10
-1.3100000000000001
 20
-1.8700000000000021
 30
2.4700000000000011
 11
-1.3100000000000001
 21
-1.890000000000011
 31
2.4700000000000011
 12
-1.409999999999991
 22
-1.8900000000000401
 32
2.2000000000000011
 13
-1.409999999999991
 23
-1.670000000000013
 33
2.199999999999998
  0
3DFACE
  5
FD
  8
TURRET
 10
-1.509999999999998
 20
-1.670000000000013
 30
2.199999999999998
 11
-1.509999999999998
 21
-1.9900000000000051
 31
2.199999999999998
 12
-1.409999999999999
 22
-1.9900000000000051
 32
2.4700000000000011
 13
-1.409999999999999
 23
-1.8700000000000021
 33
2.4700000000000011
  0
3DFACE
  5
FE
  8
TURRET
 10
1.4099999999999999
 20
-1.890000000000011
 30
2.199999999999914
 11
-1.409999999999991
 21
-1.890000000000011
 31
2.2000000000000051
 12
-1.3100000000000001
 22
-1.890000000000011
 32
2.4700000000000011
 13
1.3100000000000001
 23
-1.890000000000011
 33
2.4700000000000011
  0
3DFACE
  5
FF
  8
TURRET
 10
-1.409999999999997
 20
1.1099999999999861
 30
2.0700000000000021
 11
-1.409999999999999
 21
-1.8700000000000021
 31
2.4700000000000011
 12
-1.3100000000000001
 22
-1.8700000000000021
 32
2.4700000000000011
 13
-1.3099999999999981
 23
1.1100000000000161
 33
2.0700000000000021
  0
3DFACE
  5
100
  8
TURRET
 10
1.3099999999999981
 20
1.1099999999999861
 30
2.069999999999995
 11
1.3099999999999981
 21
-1.8700000000000021
 31
2.4699999999999971
 12
1.409999999999999
 22
-1.8700000000000021
 32
2.4699999999999971
 13
1.409999999999999
 23
1.1100000000000161
 33
2.069999999999999
  0
3DFACE
  5
101
  8
TURRET
 10
-0.7400000000000003
 20
-1.3800000000000201
 30
2.6500000000000021
 11
-0.7400000000000003
 21
-1.9900000000000051
 31
2.6500000000000021
 12
-0.7400000000000003
 22
-1.890000000000011
 32
2.4700000000000011
 13
-0.7400000000000003
 23
-1.380000000000049
 33
2.2800000000000029
  0
3DFACE
  5
102
  8
TURRET
 10
-0.8399999999999996
 20
-1.890000000000011
 30
2.4700000000000011
 11
-0.8399999999999996
 21
-1.9900000000000051
 31
2.6500000000000021
 12
-0.8399999999999996
 22
-1.3800000000000201
 32
2.6500000000000021
 13
-0.8399999999999996
 23
-1.380000000000049
 33
2.2800000000000029
  0
3DFACE
  5
103
  8
TURRET
 10
-0.7400000000000003
 20
-1.380000000000049
 30
2.2800000000000029
 11
-0.7400000000000003
 21
-1.890000000000011
 31
2.4700000000000011
 12
-0.8399999999999996
 22
-1.890000000000011
 32
2.4700000000000011
 13
-0.8399999999999996
 23
-1.380000000000049
 33
2.2800000000000029
  0
3DFACE
  5
104
  8
TURRET
 10
0.8399999999999996
 20
-1.380000000000049
 30
2.2800000000000029
 11
0.8399999999999996
 21
-1.890000000000011
 31
2.4700000000000011
 12
0.7400000000000003
 22
-1.890000000000011
 32
2.4700000000000011
 13
0.7400000000000003
 23
-1.380000000000049
 33
2.2800000000000029
  0
3DFACE
  5
105
  8
TURRET
 10
0.7400000000000003
 20
-1.890000000000011
 30
2.4700000000000011
 11
0.7400000000000003
 21
-1.9900000000000051
 31
2.6500000000000021
 12
0.7400000000000003
 22
-1.3800000000000201
 32
2.6500000000000021
 13
0.7400000000000003
 23
-1.380000000000049
 33
2.2800000000000029
  0
3DFACE
  5
106
  8
TURRET
 10
0.8399999999999996
 20
-1.3800000000000201
 30
2.6500000000000021
 11
0.8399999999999996
 21
-1.9900000000000051
 31
2.6500000000000021
 12
0.8399999999999996
 22
-1.890000000000011
 32
2.4700000000000011
 13
0.8399999999999996
 23
-1.380000000000049
 33
2.2800000000000029
  0
3DFACE
  5
107
  8
TURRET
 10
1.4099999999999999
 20
1.4199999999999611
 30
1.76
 11
1.4099999999999999
 21
-1.670000000000013
 31
2.199999999999998
 12
1.3100000000000001
 22
-1.8700000000000021
 32
2.4700000000000011
 13
1.3100000000000001
 23
1.1099999999999861
 33
2.0700000000000021
  0
3DFACE
  5
108
  8
TURRET
 10
-1.509999999999998
 20
1.4699999999999731
 30
1.76
 11
-1.509999999999998
 21
-1.670000000000013
 31
2.2000000000000011
 12
-1.409999999999999
 22
-1.8700000000000021
 32
2.4700000000000011
 13
-1.409999999999997
 23
1.1099999999999861
 33
2.0700000000000021
  0
3DFACE
  5
109
  8
TURRET
 10
-1.3099999999999981
 20
1.1099999999999861
 30
2.0700000000000021
 11
-1.3100000000000001
 21
-1.8700000000000021
 31
2.4700000000000011
 12
-1.409999999999991
 22
-1.670000000000013
 32
2.2000000000000051
 13
-1.409999999999989
 23
1.4199999999999611
 33
1.76
  0
3DFACE
  5
10A
  8
TURRET
 10
1.409999999999999
 20
-1.8700000000000021
 30
2.4700000000000011
 11
1.409999999999999
 21
-1.9900000000000051
 31
2.4700000000000011
 12
1.510000000000008
 22
-1.9900000000000051
 32
2.199999999999998
 13
1.510000000000008
 23
-1.670000000000013
 33
2.199999999999998
  0
3DFACE
  5
10B
  8
TURRET
 10
1.4099999999999999
 20
1.1099999999999861
 30
2.0700000000000021
 11
1.409999999999999
 21
-1.8700000000000021
 31
2.4700000000000011
 12
1.510000000000008
 22
-1.670000000000013
 32
2.199999999999998
 13
1.510000000000008
 23
1.4699999999999731
 33
1.76
  0
3DFACE
  5
10C
  8
TURRET
 10
1.409999999999999
 20
-1.9900000000000051
 30
2.4700000000000011
 11
-1.409999999999999
 21
-1.9900000000000051
 31
2.4700000000000011
 12
-1.5099999999999909
 22
-1.9900000000000351
 32
2.199999999999998
 13
1.510000000000008
 23
-1.9900000000000351
 33
2.199999999999998
  0
3DFACE
  5
10D
  8
TURRET
 10
-1.509999999999998
 20
1.4699999999999731
 30
1.76
 11
-1.409999999999997
 21
1.1099999999999861
 31
2.0700000000000021
 12
-1.3099999999999981
 22
1.1099999999999861
 32
2.0700000000000021
 13
-1.409999999999989
 23
1.4199999999999611
 33
1.76
  0
3DFACE
  5
10E
  8
TURRET
 10
1.4099999999999999
 20
1.4199999999999611
 30
1.76
 11
1.3099999999999981
 21
1.1099999999999861
 31
2.069999999999995
 12
1.409999999999999
 22
1.1099999999999861
 32
2.069999999999995
 13
1.510000000000008
 23
1.4699999999999731
 33
1.76
  0
3DFACE
  5
10F
  8
TURRET
 10
-0.129999999999999
 20
1.9599999999999831
 30
1.5
 11
-0.1999999999999975
 21
1.4699999999999731
 31
1.76
 12
0.2000000000000011
 22
1.4699999999999731
 32
1.76
 13
0.1300000000000026
 23
1.9599999999999831
 33
1.5
  0
3DFACE
  5
110
  8
TURRET
 10
0.5400000000000012
 20
1.369999999999977
 30
1.76
 11
1.4099999999999999
 21
1.4199999999999611
 31
1.76
 12
-1.4100000000000199
 22
1.4199999999999611
 32
1.76
 13
-0.5399999999999992
 23
1.369999999999977
 33
1.76
  0
3DFACE
  5
111
  8
TURRET
 10
1.4099999999999999
 20
1.4199999999999611
 30
1.76
 11
1.5100000000000151
 21
1.4700000000000011
 31
1.75999999999998
 12
-1.5100000000000251
 22
1.4699999999999731
 32
1.76
 13
-1.409999999999989
 23
1.4199999999999611
 33
1.76
  0
3DFACE
  5
112
  8
TURRET
 10
-0.7400000000000003
 20
-0.8200000000000191
 30
2.8600000000000021
 11
-0.7400000000000003
 21
-1.249999999999996
 31
2.8600000000000021
 12
-0.7400000000000003
 22
-1.249999999999996
 32
2.5700000000000021
 13
-0.7400000000000003
 23
-0.0000000000000542
 33
2.5700000000000021
  0
3DFACE
  5
113
  8
TURRET
 10
-0.8399999999999996
 20
-1.249999999999996
 30
2.5700000000000021
 11
-0.8399999999999996
 21
-1.249999999999996
 31
2.8600000000000021
 12
-0.8399999999999996
 22
-0.8200000000000191
 32
2.8600000000000021
 13
-0.8399999999999996
 23
-0.0000000000000542
 33
2.5700000000000021
  0
3DFACE
  5
114
  8
TURRET
 10
-0.8399999999999996
 20
-0.0000000000000542
 30
2.5700000000000021
 11
-0.8399999999999996
 21
-0.8200000000000191
 31
2.8600000000000021
 12
-0.7400000000000003
 22
-0.8200000000000191
 32
2.8600000000000021
 13
-0.7400000000000003
 23
-0.0000000000000542
 33
2.5700000000000021
  0
3DFACE
  5
115
  8
TURRET
 10
-0.7400000000000003
 20
-1.249999999999996
 30
2.5700000000000021
 11
-0.7400000000000003
 21
-1.249999999999996
 31
2.8600000000000021
 12
-0.8399999999999996
 22
-1.249999999999996
 32
2.8600000000000021
 13
-0.8399999999999996
 23
-1.249999999999996
 33
2.5700000000000021
  0
3DFACE
  5
116
  8
TURRET
 10
0.8399999999999996
 20
-1.249999999999996
 30
2.5700000000000021
 11
0.8399999999999996
 21
-1.249999999999996
 31
2.8600000000000021
 12
0.7400000000000003
 22
-1.249999999999996
 32
2.8600000000000021
 13
0.7400000000000003
 23
-1.249999999999996
 33
2.5700000000000021
  0
3DFACE
  5
117
  8
TURRET
 10
0.7400000000000003
 20
-0.0000000000000542
 30
2.5700000000000021
 11
0.7400000000000003
 21
-0.8200000000000191
 31
2.8600000000000021
 12
0.8399999999999996
 22
-0.8200000000000191
 32
2.8600000000000021
 13
0.8399999999999996
 23
-0.0000000000000542
 33
2.5700000000000021
  0
3DFACE
  5
118
  8
TURRET
 10
0.7400000000000003
 20
-1.249999999999996
 30
2.5700000000000021
 11
0.7400000000000003
 21
-1.249999999999996
 31
2.8600000000000021
 12
0.7400000000000003
 22
-0.8200000000000191
 32
2.8600000000000021
 13
0.7400000000000003
 23
-0.0000000000000542
 33
2.5700000000000021
  0
3DFACE
  5
119
  8
TURRET
 10
0.8399999999999996
 20
-0.8200000000000191
 30
2.8600000000000021
 11
0.8399999999999996
 21
-1.249999999999996
 31
2.8600000000000021
 12
0.8399999999999996
 22
-1.249999999999996
 32
2.5700000000000021
 13
0.8399999999999996
 23
-0.0000000000000542
 33
2.5700000000000021
  0
3DFACE
  5
11A
  8
TURRET
 10
-0.7400000000000003
 20
-1.890000000000011
 30
2.4700000000000011
 11
-0.7400000000000003
 21
-1.9900000000000051
 31
2.6500000000000021
 12
-0.8399999999999996
 22
-1.9900000000000051
 32
2.6500000000000021
 13
-0.8399999999999996
 23
-1.890000000000011
 33
2.4700000000000011
  0
3DFACE
  5
11B
  8
TURRET
 10
0.8399999999999996
 20
-1.890000000000011
 30
2.4700000000000011
 11
0.8399999999999996
 21
-1.9900000000000051
 31
2.6500000000000021
 12
0.7400000000000003
 22
-1.9900000000000051
 32
2.6500000000000021
 13
0.7400000000000003
 23
-1.890000000000011
 33
2.4700000000000011
  0
3DFACE
  5
11C
  8
TURRET
 10
1.3100000000000001
 20
-1.890000000000011
 30
2.4700000000000011
 11
-1.3100000000000001
 21
-1.890000000000011
 31
2.4700000000000011
 12
-1.409999999999991
 22
-1.9900000000000051
 32
2.4699999999999971
 13
1.4099999999999999
 23
-1.9900000000000051
 33
2.4699999999999971
  0
3DFACE
  5
11D
  8
TURRET
 10
-1.409999999999999
 20
-1.8700000000000021
 30
2.4700000000000011
 11
-1.409999999999999
 21
-1.9900000000000051
 31
2.4700000000000011
 12
-1.3100000000000001
 22
-1.890000000000011
 32
2.4700000000000011
 13
-1.3100000000000001
 23
-1.8700000000000021
 33
2.4700000000000011
  0
3DFACE
  5
11E
  8
TURRET
 10
1.3100000000000001
 20
-1.8700000000000021
 30
2.4700000000000011
 11
1.3100000000000001
 21
-1.890000000000011
 31
2.4700000000000011
 12
1.409999999999999
 22
-1.9900000000000051
 32
2.4700000000000011
 13
1.409999999999999
 23
-1.8700000000000021
 33
2.4700000000000011
  0
3DFACE
  5
11F
  8
TURRET
 10
-0.8399999999999996
 20
-1.380000000000049
 30
2.5700000000000021
 11
-0.8399999999999996
 21
-1.3800000000000201
 31
2.6500000000000021
 12
-0.7400000000000003
 22
-1.3800000000000201
 32
2.6500000000000021
 13
-0.7400000000000003
 23
-1.380000000000049
 33
2.5700000000000021
  0
3DFACE
  5
120
  8
TURRET
 10
0.7400000000000003
 20
-1.380000000000049
 30
2.5700000000000021
 11
0.7400000000000003
 21
-1.3800000000000201
 31
2.6500000000000021
 12
0.8399999999999996
 22
-1.3800000000000201
 32
2.6500000000000021
 13
0.8399999999999996
 23
-1.380000000000049
 33
2.5700000000000021
  0
3DFACE
  5
121
  8
TURRET
 10
-0.8399999999999996
 20
-1.249999999999996
 30
2.5700000000000021
 11
-0.8399999999999996
 21
-1.3800000000000201
 31
2.5700000000000021
 12
-0.7400000000000003
 22
-1.3800000000000201
 32
2.5700000000000021
 13
-0.7400000000000003
 23
-1.249999999999996
 33
2.5700000000000021
  0
3DFACE
  5
122
  8
TURRET
 10
0.7400000000000003
 20
-1.249999999999996
 30
2.5700000000000021
 11
0.7400000000000003
 21
-1.3800000000000201
 31
2.5700000000000021
 12
0.8399999999999996
 22
-1.3800000000000201
 32
2.5700000000000021
 13
0.8399999999999996
 23
-1.249999999999996
 33
2.5700000000000021
  0
3DFACE
  5
123
  8
TURRET
 10
-0.8399999999999996
 20
-1.3800000000000201
 30
2.6500000000000021
 11
-0.8399999999999996
 21
-1.9900000000000051
 31
2.6500000000000021
 12
-0.7400000000000003
 22
-1.9900000000000051
 32
2.6500000000000021
 13
-0.7400000000000003
 23
-1.3800000000000201
 33
2.6500000000000021
  0
3DFACE
  5
124
  8
TURRET
 10
0.7400000000000003
 20
-1.3800000000000201
 30
2.6500000000000021
 11
0.7400000000000003
 21
-1.9900000000000051
 31
2.6500000000000021
 12
0.8399999999999996
 22
-1.9900000000000051
 32
2.6500000000000021
 13
0.8399999999999996
 23
-1.3800000000000201
 33
2.6500000000000021
  0
3DFACE
  5
125
  8
TURRET
 10
-0.8399999999999996
 20
-0.8200000000000191
 30
2.8600000000000021
 11
-0.8399999999999996
 21
-1.249999999999996
 31
2.8600000000000021
 12
-0.7400000000000003
 22
-1.249999999999996
 32
2.8600000000000021
 13
-0.7400000000000003
 23
-0.8200000000000191
 33
2.8600000000000021
  0
3DFACE
  5
126
  8
TURRET
 10
0.7400000000000003
 20
-0.8200000000000191
 30
2.8600000000000021
 11
0.7400000000000003
 21
-1.249999999999996
 31
2.8600000000000021
 12
0.8399999999999996
 22
-1.249999999999996
 32
2.8600000000000021
 13
0.8399999999999996
 23
-0.8200000000000191
 33
2.8600000000000021
  0
VIEWPORT
  5
2E
 67
     1
  8
0
 10
144.7270812988281
 20
101.2295806407928
 30
0.0
 40
391.13550988316581
 41
222.15178063964839
 68
     2
 69
     1
1001
ACAD
1000
MVIEW
1002
{
1070
    16
1010
0.0
1020
0.0
1030
0.0
1010
0.0
1020
0.0
1030
1.0
1040
0.0
1040
222.15178063964839
1040
144.7270812988281
1040
101.2295806407928
1040
50.0
1040
0.0
1040
0.0
1070
     0
1070
   100
1070
     1
1070
     1
1070
     0
1070
     0
1070
     0
1070
     0
1040
0.0
1040
0.0
1040
0.0
1040
10.0
1040
10.0
1040
10.0
1040
10.0
1070
     0
1002
{
1002
}
1002
}
  0
VIEWPORT
  5
30
 67
     1
  8
0
 10
139.22375631332389
 20
100.8062499761581
 30
0.0
 40
222.75801010131829
 41
161.289999961853
 68
     1
 69
     2
1001
ACAD
1000
MVIEW
1002
{
1070
    16
1010
0.0
1020
0.0
1030
0.0
1010
0.0
1020
0.0
1030
1.0
1040
0.0
1040
307.49010134148989
1040
210.0
1040
148.5
1040
50.0
1040
0.0
1040
0.0
1070
     0
1070
   100
1070
     1
1070
     3
1070
     0
1070
     1
1070
     0
1070
     0
1040
0.0
1040
0.0
1040
0.0
1040
10.0
1040
10.0
1040
10.0
1040
10.0
1070
     0
1002
{
1002
}
1002
}
  0
ENDSEC
  0
EOF
