  0
SECTION
  2
HEADER
  9
$ACADVER
  1
AC1009
  9
$INSBASE
 10
0.0
 20
0.0
 30
0.0
  9
$EXTMIN
 10
-1.0800000000000001
 20
-4.9394020000000012
 30
-7.6900000000000004
  9
$EXTMAX
 10
1.079999999999999
 20
10.73
 30
3.4399999999999991
  9
$LIMMIN
 10
0.0
 20
0.0
  9
$LIMMAX
 10
420.0
 20
297.0
  9
$ORTHOMODE
 70
     1
  9
$REGENMODE
 70
     1
  9
$FILLMODE
 70
     1
  9
$QTEXTMODE
 70
     0
  9
$MIRRTEXT
 70
     1
  9
$DRAGMODE
 70
     2
  9
$LTSCALE
 40
1.0
  9
$OSMODE
 70
    35
  9
$ATTMODE
 70
     1
  9
$TEXTSIZE
 40
2.5
  9
$TRACEWID
 40
1.0
  9
$TEXTSTYLE
  7
STANDARD
  9
$CLAYER
  8
0
  9
$CELTYPE
  6
BYLAYER
  9
$CECOLOR
 62
   256
  9
$DIMSCALE
 40
1.0
  9
$DIMASZ
 40
2.5
  9
$DIMEXO
 40
0.625
  9
$DIMDLI
 40
3.75
  9
$DIMRND
 40
0.0
  9
$DIMDLE
 40
0.0
  9
$DIMEXE
 40
1.25
  9
$DIMTP
 40
0.0
  9
$DIMTM
 40
0.0
  9
$DIMTXT
 40
2.5
  9
$DIMCEN
 40
2.5
  9
$DIMTSZ
 40
0.0
  9
$DIMTOL
 70
     0
  9
$DIMLIM
 70
     0
  9
$DIMTIH
 70
     0
  9
$DIMTOH
 70
     0
  9
$DIMSE1
 70
     0
  9
$DIMSE2
 70
     0
  9
$DIMTAD
 70
     1
  9
$DIMZIN
 70
     8
  9
$DIMBLK
  1

  9
$DIMASO
 70
     1
  9
$DIMSHO
 70
     1
  9
$DIMPOST
  1

  9
$DIMAPOST
  1

  9
$DIMALT
 70
     0
  9
$DIMALTD
 70
     3
  9
$DIMALTF
 40
0.03937007874016
  9
$DIMLFAC
 40
1.0
  9
$DIMTOFL
 70
     1
  9
$DIMTVP
 40
0.0
  9
$DIMTIX
 70
     0
  9
$DIMSOXD
 70
     0
  9
$DIMSAH
 70
     0
  9
$DIMBLK1
  1

  9
$DIMBLK2
  1

  9
$DIMSTYLE
  2
ISO-25
  9
$DIMCLRD
 70
     0
  9
$DIMCLRE
 70
     0
  9
$DIMCLRT
 70
     0
  9
$DIMTFAC
 40
1.0
  9
$DIMGAP
 40
0.625
  9
$LUNITS
 70
     2
  9
$LUPREC
 70
     4
  9
$SKETCHINC
 40
1.0
  9
$FILLETRAD
 40
10.0
  9
$AUNITS
 70
     0
  9
$AUPREC
 70
     0
  9
$MENU
  1
.
  9
$ELEVATION
 40
0.0
  9
$PELEVATION
 40
0.0
  9
$THICKNESS
 40
0.0
  9
$LIMCHECK
 70
     0
  9
$BLIPMODE
 70
     0
  9
$CHAMFERA
 40
10.0
  9
$CHAMFERB
 40
10.0
  9
$SKPOLY
 70
     0
  9
$TDCREATE
 40
2457248.0076366202
  9
$TDUPDATE
 40
2457399.5388267129
  9
$TDINDWG
 40
4.1158729977000004
  9
$TDUSRTIMER
 40
4.1158729977000004
  9
$USRTIMER
 70
     1
  9
$ANGBASE
 50
0.0
  9
$ANGDIR
 70
     0
  9
$PDMODE
 70
     0
  9
$PDSIZE
 40
0.0
  9
$PLINEWID
 40
0.0
  9
$COORDS
 70
     1
  9
$SPLFRAME
 70
     0
  9
$SPLINETYPE
 70
     6
  9
$SPLINESEGS
 70
     8
  9
$ATTDIA
 70
     1
  9
$ATTREQ
 70
     1
  9
$HANDLING
 70
-16383
  9
$HANDSEED
  5
3CE5
  9
$SURFTAB1
 70
     6
  9
$SURFTAB2
 70
     6
  9
$SURFTYPE
 70
     6
  9
$SURFU
 70
     6
  9
$SURFV
 70
     6
  9
$UCSNAME
  2

  9
$UCSORG
 10
0.0
 20
0.0
 30
0.0
  9
$UCSXDIR
 10
0.0
 20
-1.0
 30
0.0
  9
$UCSYDIR
 10
0.0
 20
0.0
 30
1.0
  9
$PUCSNAME
  2

  9
$PUCSORG
 10
0.0
 20
0.0
 30
0.0
  9
$PUCSXDIR
 10
1.0
 20
0.0
 30
0.0
  9
$PUCSYDIR
 10
0.0
 20
1.0
 30
0.0
  9
$USERI1
 70
     0
  9
$USERI2
 70
     0
  9
$USERI3
 70
     0
  9
$USERI4
 70
     0
  9
$USERI5
 70
     0
  9
$USERR1
 40
0.0
  9
$USERR2
 40
0.0
  9
$USERR3
 40
0.0
  9
$USERR4
 40
0.0
  9
$USERR5
 40
0.0
  9
$WORLDVIEW
 70
     1
  9
$SHADEDGE
 70
     3
  9
$SHADEDIF
 70
    70
  9
$TILEMODE
 70
     1
  9
$MAXACTVP
 70
    64
  9
$PLIMCHECK
 70
     0
  9
$PEXTMIN
 10
27.844751262664801
 20
20.161249995231621
 30
0.0
  9
$PEXTMAX
 10
250.60276136398309
 20
181.4512499570846
 30
0.0
  9
$PLIMMIN
 10
-3.757080078125
 20
-3.7570831775665279
  9
$PLIMMAX
 10
293.21124267578119
 20
206.21624445915219
  9
$UNITMODE
 70
     0
  9
$VISRETAIN
 70
     1
  9
$PLINEGEN
 70
     0
  9
$PSLTSCALE
 70
     1
  0
ENDSEC
  0
SECTION
  2
TABLES
  0
TABLE
  2
VPORT
 70
     4
  0
VPORT
  2
*ACTIVE
 70
     0
 10
0.0
 20
0.0
 11
1.0
 21
1.0
 12
-2.8952989999999938
 22
-2.125
 13
0.0
 23
0.0
 14
0.01
 24
0.01
 15
1.0
 25
1.0
 16
-1.0
 26
0.0
 36
0.0
 17
0.0
 27
0.0
 37
0.0
 40
56.029001108983437
 41
2.126136363636363
 42
50.0
 43
0.0
 44
0.0
 50
0.0
 51
0.0
 71
     0
 72
   100
 73
     1
 74
     3
 75
     1
 76
     1
 77
     0
 78
     0
  0
ENDTAB
  0
TABLE
  2
LTYPE
 70
     1
  0
LTYPE
  2
CONTINUOUS
 70
     0
  3
Solid line
 72
    65
 73
     0
 40
0.0
  0
ENDTAB
  0
TABLE
  2
LAYER
 70
     9
  0
LAYER
  2
0
 70
     0
 62
     7
  6
CONTINUOUS
  0
LAYER
  2
REFERENCE
 70
     0
 62
     9
  6
CONTINUOUS
  0
LAYER
  2
TMP
 70
     0
 62
     4
  6
CONTINUOUS
  0
LAYER
  2
FENDERS
 70
     0
 62
     6
  6
CONTINUOUS
  0
LAYER
  2
WHEELS
 70
     0
 62
     2
  6
CONTINUOUS
  0
LAYER
  2
TORSIONS
 70
     0
 62
     5
  6
CONTINUOUS
  0
LAYER
  2
TRACKS
 70
     0
 62
     3
  6
CONTINUOUS
  0
LAYER
  2
INSIDE
 70
     0
 62
     1
  6
CONTINUOUS
  0
ENDTAB
  0
TABLE
  2
STYLE
 70
     1
  0
STYLE
  2
STANDARD
 70
     0
 40
0.0
 41
1.0
 50
0.0
 71
     0
 42
2.5
  3
txt
  4

  0
ENDTAB
  0
TABLE
  2
VIEW
 70
     0
  0
ENDTAB
  0
TABLE
  2
UCS
 70
     0
  0
ENDTAB
  0
TABLE
  2
APPID
 70
     1
  0
APPID
  2
ACAD
 70
     0
  0
ENDTAB
  0
TABLE
  2
DIMSTYLE
 70
     1
  0
DIMSTYLE
  2
ISO-25
 70
     0
  3

  4

  5

  6

  7

 40
1.0
 41
2.5
 42
0.625
 43
3.75
 44
1.25
 45
0.0
 46
0.0
 47
0.0
 48
0.0
140
2.5
141
2.5
142
0.0
143
0.03937007874016
144
1.0
145
0.0
146
1.0
147
0.625
 71
     0
 72
     0
 73
     0
 74
     0
 75
     0
 76
     0
 77
     1
 78
     8
170
     0
171
     3
172
     1
173
     0
174
     0
175
     0
176
     0
177
     0
178
     0
  0
ENDTAB
  0
ENDSEC
  0
SECTION
  2
BLOCKS
  0
BLOCK
  8
0
  2
$MODEL_SPACE
 70
     0
 10
0.0
 20
0.0
 30
0.0
  3
$MODEL_SPACE
  1

  0
ENDBLK
  5
21
  8
0
  0
BLOCK
 67
     1
  8
0
  2
$PAPER_SPACE
 70
     0
 10
0.0
 20
0.0
 30
0.0
  3
$PAPER_SPACE
  1

  0
ENDBLK
  5
1D
 67
     1
  8
0
  0
ENDSEC
  0
SECTION
  2
ENTITIES
  0
3DFACE
  5
A6
  8
0
 10
0.7400000000000003
 20
2.3836822074215021
 30
0.841313035204566
 11
0.7400000000000007
 21
2.169999999999999
 31
0.51
 12
-0.7399999999999994
 22
2.169999999999999
 32
0.51
 13
-0.7399999999999997
 23
2.3836822074215021
 33
0.841313035204566
  0
3DFACE
  5
A7
  8
0
 10
-0.7400000000000008
 20
-2.3500000000000001
 30
0.8500000000000014
 11
-0.7400000000000007
 21
-1.9799999999999991
 31
0.5100000000000016
 12
0.7399999999999994
 22
-1.9799999999999991
 32
0.5100000000000016
 13
0.7399999999999993
 23
-2.3500000000000001
 33
0.8500000000000014
  0
3DFACE
  5
A8
  8
0
 10
-0.7400000000000007
 20
-1.9799999999999991
 30
0.5100000000000016
 11
-0.7399999999999994
 21
2.169999999999999
 31
0.5100000000000016
 12
0.7400000000000007
 22
2.169999999999999
 32
0.5100000000000016
 13
0.7399999999999994
 23
-1.9799999999999991
 33
0.5100000000000016
  0
3DFACE
  5
B2
  8
0
 10
0.3699999999999997
 20
-2.28714285714286
 30
0.89
 11
-0.7400000000000008
 21
-2.3500000000000001
 31
0.8500000000000014
 12
0.7399999999999993
 22
-2.3500000000000001
 32
0.8500000000000014
 13
0.5699999999999998
 23
-2.28714285714286
 33
0.89
  0
3DFACE
  5
143
  8
0
 10
-0.6616082253916037
 20
2.6400000000000001
 30
1.2800000000000009
 11
-0.6557283435044533
 21
2.5499999999999998
 31
1.3
 12
0.6557283435044554
 22
2.5499999999999998
 32
1.3
 13
0.6616082253916074
 23
2.6400000000000001
 33
1.2800000000000009
  0
3DFACE
  5
146
  8
0
 10
-0.674392013539512
 20
2.7099999999999991
 30
1.2399999999999991
 11
-0.6616082253916037
 21
2.6400000000000001
 31
1.2800000000000009
 12
0.6616082253916074
 22
2.6400000000000001
 32
1.2800000000000009
 13
0.6743920135395167
 23
2.7099999999999991
 33
1.2399999999999991
  0
3DFACE
  5
147
  8
0
 10
-0.6871758016874204
 20
2.7400000000000002
 30
1.1899999999999999
 11
-0.674392013539512
 21
2.7099999999999991
 31
1.2399999999999991
 12
0.6743920135395167
 22
2.7099999999999991
 32
1.2399999999999991
 13
0.687175801687426
 23
2.7400000000000002
 33
1.1899999999999999
  0
3DFACE
  5
148
  8
0
 10
-0.6978289584773441
 20
2.75
 30
1.110000000000001
 11
-0.6871758016874204
 21
2.7400000000000002
 31
1.1899999999999999
 12
0.687175801687426
 22
2.7400000000000002
 32
1.1899999999999999
 13
0.6978289584773504
 23
2.75
 33
1.110000000000001
  0
3DFACE
  5
149
  8
0
 10
-0.7127433779832372
 20
2.75
 30
1.04
 11
-0.6978289584773441
 21
2.75
 31
1.110000000000001
 12
0.6978289584773504
 22
2.75
 32
1.110000000000001
 13
0.7127433779832446
 23
2.75
 33
1.04
  0
3DFACE
  5
17E
  8
0
 10
0.7127433779832445
 20
2.75
 30
1.04
 11
0.6978289584773504
 21
2.75
 31
1.110000000000001
 12
0.7042208525513037
 22
2.5499999999999989
 32
1.0800000000000001
 13
0.7042208525513037
 23
2.5499999999999989
 33
1.0800000000000001
  0
3DFACE
  5
17F
  8
0
 10
0.6978289584773504
 20
2.75
 30
1.110000000000001
 11
0.687175801687426
 21
2.7400000000000002
 31
1.1899999999999999
 12
0.7042208525513037
 22
2.5499999999999989
 32
1.0800000000000001
 13
0.7042208525513037
 23
2.5499999999999989
 33
1.0800000000000001
  0
3DFACE
  5
180
  8
0
 10
0.687175801687426
 20
2.7400000000000002
 30
1.1899999999999999
 11
0.6743920135395167
 21
2.7099999999999991
 31
1.2399999999999991
 12
0.7042208525513037
 22
2.5499999999999989
 32
1.0800000000000001
 13
0.7042208525513037
 23
2.5499999999999989
 33
1.0800000000000001
  0
3DFACE
  5
181
  8
0
 10
0.6743920135395167
 20
2.7099999999999991
 30
1.2399999999999991
 11
0.6616082253916074
 21
2.6400000000000001
 31
1.2800000000000009
 12
0.7042208525513037
 22
2.5499999999999989
 32
1.0800000000000001
 13
0.7042208525513037
 23
2.5499999999999989
 33
1.0800000000000001
  0
3DFACE
  5
182
  8
0
 10
0.6616082253916074
 20
2.6400000000000001
 30
1.2800000000000009
 11
0.6557283435044554
 21
2.5499999999999998
 31
1.3
 12
0.7042208525513037
 22
2.5499999999999989
 32
1.0800000000000001
 13
0.7042208525513037
 23
2.5499999999999989
 33
1.0800000000000001
  0
3DFACE
  5
183
  8
0
 10
-0.7042208525513015
 20
2.5499999999999998
 30
1.0800000000000001
 11
-0.7042208525513015
 21
2.5499999999999998
 31
1.0800000000000001
 12
-0.6871758016874204
 22
2.7400000000000002
 32
1.1899999999999999
 13
-0.6978289584773441
 23
2.75
 33
1.110000000000001
  0
3DFACE
  5
184
  8
0
 10
-0.7042208525513015
 20
2.5499999999999998
 30
1.0800000000000001
 11
-0.7042208525513015
 21
2.5499999999999998
 31
1.0800000000000001
 12
-0.6978289584773441
 22
2.75
 32
1.110000000000001
 13
-0.7127433779832371
 23
2.75
 33
1.04
  0
3DFACE
  5
185
  8
0
 10
-0.7042208525513015
 20
2.5499999999999998
 30
1.0800000000000001
 11
-0.7042208525513015
 21
2.5499999999999998
 31
1.0800000000000001
 12
-0.674392013539512
 22
2.7099999999999991
 32
1.2399999999999991
 13
-0.6871758016874204
 23
2.7400000000000002
 33
1.1899999999999999
  0
3DFACE
  5
186
  8
0
 10
-0.7042208525513015
 20
2.5499999999999998
 30
1.0800000000000001
 11
-0.7042208525513015
 21
2.5499999999999998
 31
1.0800000000000001
 12
-0.6616082253916037
 22
2.6400000000000001
 32
1.2800000000000009
 13
-0.674392013539512
 23
2.7099999999999991
 33
1.2399999999999991
  0
3DFACE
  5
187
  8
0
 10
-0.7042208525513015
 20
2.5499999999999998
 30
1.0800000000000001
 11
-0.7042208525513015
 21
2.5499999999999998
 31
1.0800000000000001
 12
-0.6557283435044533
 22
2.5499999999999998
 32
1.3
 13
-0.6616082253916037
 23
2.6400000000000001
 33
1.2800000000000009
  0
3DFACE
  5
1EE
  8
0
 10
-0.5899999999999989
 20
2.667680694299233
 30
1.0806091384191681
 11
-0.561715728752537
 21
2.6570626380999989
 31
1.0855604193395909
 12
-0.561715728752537
 22
2.5675877048314359
 32
0.8936808057330286
 13
-0.5899999999999989
 23
2.5662523114814659
 33
0.8630952695303726
  0
3DFACE
  5
1EF
  8
0
 10
-0.561715728752537
 20
2.6570626380999989
 30
1.0855604193395909
 11
-0.5499999999999989
 21
2.6314283828177678
 31
1.097513868888798
 12
-0.5499999999999989
 22
2.5469047304696271
 32
0.9162523114814664
 13
-0.561715728752537
 23
2.5675877048314359
 33
0.8936808057330286
  0
3DFACE
  5
1F0
  8
0
 10
-0.5499999999999989
 20
2.6314283828177678
 30
1.097513868888798
 11
-0.561715728752537
 21
2.6057941275355372
 31
1.1094673184380011
 12
-0.5617157287525372
 22
2.5163191942669729
 32
0.9175877048314369
 13
-0.5499999999999989
 23
2.5469047304696271
 33
0.9162523114814664
  0
3DFACE
  5
1F1
  8
0
 10
-0.561715728752537
 20
2.6057941275355372
 30
1.1094673184380011
 11
-0.5899999999999989
 21
2.5951760713363021
 31
1.1144185993584239
 12
-0.5899999999999991
 22
2.4937476885185328
 32
0.8969047304696289
 13
-0.5617157287525372
 23
2.5163191942669729
 33
0.9175877048314369
  0
3DFACE
  5
1F2
  8
0
 10
-0.5899999999999989
 20
2.5951760713363021
 30
1.1144185993584239
 11
-0.6182842712474609
 21
2.6057941275355372
 31
1.1094673184380011
 12
-0.618284271247461
 22
2.4924122951685632
 32
0.8663191942669747
 13
-0.5899999999999991
 23
2.4937476885185328
 33
0.8969047304696289
  0
3DFACE
  5
1F3
  8
0
 10
-0.6182842712474609
 20
2.6057941275355372
 30
1.1094673184380011
 11
-0.629999999999999
 21
2.6314283828177678
 31
1.097513868888798
 12
-0.6299999999999991
 22
2.5130952695303721
 32
0.843747688518535
 13
-0.618284271247461
 23
2.4924122951685632
 33
0.8663191942669747
  0
3DFACE
  5
1F4
  8
0
 10
-0.629999999999999
 20
2.6314283828177678
 30
1.097513868888798
 11
-0.6182842712474609
 21
2.6570626380999989
 31
1.0855604193395909
 12
-0.6182842712474609
 22
2.5436808057330271
 32
0.8424122951685646
 13
-0.6299999999999991
 23
2.5130952695303721
 33
0.843747688518535
  0
3DFACE
  5
1F5
  8
0
 10
-0.6182842712474609
 20
2.6570626380999989
 30
1.0855604193395909
 11
-0.5899999999999989
 21
2.667680694299233
 31
1.0806091384191681
 12
-0.5899999999999989
 22
2.5662523114814659
 32
0.8630952695303726
 13
-0.6182842712474609
 23
2.5436808057330271
 33
0.8424122951685646
  0
3DFACE
  5
1F6
  8
0
 10
-0.589999999999999
 20
2.5662523114814659
 30
0.8630952695303726
 11
-0.561715728752537
 21
2.5675877048314351
 31
0.8936808057330286
 12
-0.2899999999999991
 22
2.5675877048314351
 32
0.8936808057330286
 13
-0.2899999999999991
 23
2.5662523114814659
 33
0.8630952695303726
  0
3DFACE
  5
1F7
  8
0
 10
-0.561715728752537
 20
2.5675877048314351
 30
0.8936808057330286
 11
-0.5499999999999991
 21
2.5469047304696271
 31
0.9162523114814664
 12
-0.2899999999999991
 22
2.5469047304696271
 32
0.9162523114814664
 13
-0.2899999999999991
 23
2.5675877048314351
 33
0.8936808057330286
  0
3DFACE
  5
1F8
  8
0
 10
-0.5499999999999991
 20
2.5469047304696271
 30
0.9162523114814664
 11
-0.5617157287525372
 21
2.5163191942669729
 31
0.9175877048314369
 12
-0.2899999999999991
 22
2.5163191942669729
 32
0.9175877048314369
 13
-0.2899999999999991
 23
2.5469047304696271
 33
0.9162523114814664
  0
3DFACE
  5
1F9
  8
0
 10
-0.5617157287525372
 20
2.5163191942669729
 30
0.9175877048314369
 11
-0.5899999999999992
 21
2.4937476885185328
 31
0.8969047304696289
 12
-0.2899999999999991
 22
2.4937476885185328
 32
0.8969047304696289
 13
-0.2899999999999991
 23
2.5163191942669729
 33
0.9175877048314369
  0
3DFACE
  5
1FA
  8
0
 10
-0.5899999999999992
 20
2.4937476885185328
 30
0.8969047304696289
 11
-0.618284271247461
 21
2.4924122951685632
 31
0.8663191942669747
 12
-0.2899999999999992
 22
2.4924122951685632
 32
0.8663191942669747
 13
-0.2899999999999991
 23
2.4937476885185328
 33
0.8969047304696289
  0
3DFACE
  5
1FB
  8
0
 10
-0.618284271247461
 20
2.4924122951685632
 30
0.8663191942669747
 11
-0.6299999999999992
 21
2.5130952695303712
 31
0.843747688518535
 12
-0.2899999999999991
 22
2.5130952695303712
 32
0.843747688518535
 13
-0.2899999999999992
 23
2.4924122951685632
 33
0.8663191942669747
  0
3DFACE
  5
1FC
  8
0
 10
-0.6299999999999992
 20
2.5130952695303712
 30
0.843747688518535
 11
-0.6182842712474609
 21
2.5436808057330271
 31
0.8424122951685646
 12
-0.2899999999999991
 22
2.5436808057330271
 32
0.8424122951685646
 13
-0.2899999999999991
 23
2.5130952695303712
 33
0.843747688518535
  0
3DFACE
  5
1FD
  8
0
 10
-0.6182842712474609
 20
2.5436808057330271
 30
0.8424122951685646
 11
-0.589999999999999
 21
2.5662523114814659
 31
0.8630952695303726
 12
-0.2899999999999991
 22
2.5662523114814659
 32
0.8630952695303726
 13
-0.2899999999999991
 23
2.5436808057330271
 33
0.8424122951685646
  0
3DFACE
  5
1FE
  8
0
 10
-0.2899999999999991
 20
2.6299999999999999
 30
0.8800000000000007
 11
-0.2899999999999991
 21
2.6007106781186531
 31
0.9507106781186553
 12
0.5100000000000011
 22
2.6007106781186531
 32
0.9507106781186553
 13
0.5100000000000011
 23
2.6299999999999999
 33
0.8800000000000007
  0
3DFACE
  5
1FF
  8
0
 10
-0.2899999999999991
 20
2.6007106781186531
 30
0.9507106781186553
 11
-0.2899999999999991
 21
2.5299999999999989
 31
0.9800000000000022
 12
0.5100000000000011
 22
2.5299999999999989
 32
0.9800000000000022
 13
0.5100000000000011
 23
2.6007106781186531
 33
0.9507106781186553
  0
3DFACE
  5
200
  8
0
 10
-0.2899999999999991
 20
2.5299999999999989
 30
0.9800000000000022
 11
-0.2899999999999991
 21
2.4592893218813439
 31
0.9507106781186553
 12
0.5100000000000008
 22
2.4592893218813439
 32
0.9507106781186553
 13
0.5100000000000011
 23
2.5299999999999989
 33
0.9800000000000022
  0
3DFACE
  5
201
  8
0
 10
-0.2899999999999991
 20
2.4592893218813439
 30
0.9507106781186553
 11
-0.2899999999999991
 21
2.4299999999999988
 31
0.8800000000000007
 12
0.5100000000000008
 22
2.4299999999999988
 32
0.8800000000000007
 13
0.5100000000000008
 23
2.4592893218813439
 33
0.9507106781186553
  0
3DFACE
  5
202
  8
0
 10
-0.2899999999999991
 20
2.4299999999999988
 30
0.8800000000000007
 11
-0.2899999999999991
 21
2.4592893218813439
 31
0.8092893218813461
 12
0.5100000000000008
 22
2.4592893218813439
 32
0.8092893218813461
 13
0.5100000000000008
 23
2.4299999999999988
 33
0.8800000000000007
  0
3DFACE
  5
203
  8
0
 10
-0.2899999999999991
 20
2.4592893218813439
 30
0.8092893218813461
 11
-0.2899999999999991
 21
2.5299999999999989
 31
0.7800000000000013
 12
0.5100000000000011
 22
2.5299999999999989
 32
0.7800000000000013
 13
0.5100000000000008
 23
2.4592893218813439
 33
0.8092893218813461
  0
3DFACE
  5
204
  8
0
 10
-0.2899999999999991
 20
2.5299999999999989
 30
0.7800000000000013
 11
-0.2899999999999991
 21
2.6007106781186531
 31
0.8092893218813461
 12
0.5100000000000011
 22
2.6007106781186531
 32
0.8092893218813461
 13
0.5100000000000011
 23
2.5299999999999989
 33
0.7800000000000013
  0
3DFACE
  5
205
  8
0
 10
-0.2899999999999991
 20
2.6007106781186531
 30
0.8092893218813461
 11
-0.2899999999999991
 21
2.6299999999999999
 31
0.8800000000000007
 12
0.5100000000000011
 22
2.6299999999999999
 32
0.8800000000000007
 13
0.5100000000000011
 23
2.6007106781186531
 33
0.8092893218813461
  0
3DFACE
  5
206
  8
0
 10
-0.5599999999999993
 20
2.48
 30
0.6800000000000015
 11
-0.5599999999999993
 21
2.4507106781186532
 31
0.7507106781186561
 12
0.2400000000000008
 22
2.4507106781186532
 32
0.7507106781186561
 13
0.2400000000000008
 23
2.48
 33
0.6800000000000015
  0
3DFACE
  5
207
  8
0
 10
-0.5599999999999993
 20
2.4507106781186532
 30
0.7507106781186561
 11
-0.5599999999999993
 21
2.379999999999999
 31
0.7800000000000013
 12
0.2400000000000008
 22
2.379999999999999
 32
0.7800000000000013
 13
0.2400000000000008
 23
2.4507106781186532
 33
0.7507106781186561
  0
3DFACE
  5
208
  8
0
 10
-0.5599999999999993
 20
2.379999999999999
 30
0.7800000000000013
 11
-0.5599999999999993
 21
2.3092893218813439
 31
0.7507106781186561
 12
0.2400000000000007
 22
2.3092893218813439
 32
0.7507106781186561
 13
0.2400000000000008
 23
2.379999999999999
 33
0.7800000000000013
  0
3DFACE
  5
209
  8
0
 10
-0.5599999999999993
 20
2.3092893218813439
 30
0.7507106781186561
 11
-0.5599999999999993
 21
2.2799999999999989
 31
0.6800000000000015
 12
0.2400000000000007
 22
2.2799999999999989
 32
0.6800000000000015
 13
0.2400000000000007
 23
2.3092893218813439
 33
0.7507106781186561
  0
3DFACE
  5
20A
  8
0
 10
-0.5599999999999993
 20
2.2799999999999989
 30
0.6800000000000015
 11
-0.5599999999999993
 21
2.3092893218813439
 31
0.6092893218813469
 12
0.2400000000000007
 22
2.3092893218813439
 32
0.6092893218813469
 13
0.2400000000000007
 23
2.2799999999999989
 33
0.6800000000000015
  0
3DFACE
  5
20B
  8
0
 10
-0.5599999999999993
 20
2.3092893218813439
 30
0.6092893218813469
 11
-0.5599999999999993
 21
2.379999999999999
 31
0.5800000000000019
 12
0.2400000000000008
 22
2.379999999999999
 32
0.5800000000000019
 13
0.2400000000000007
 23
2.3092893218813439
 33
0.6092893218813469
  0
3DFACE
  5
20C
  8
0
 10
-0.5599999999999993
 20
2.379999999999999
 30
0.5800000000000019
 11
-0.5599999999999993
 21
2.4507106781186532
 31
0.6092893218813469
 12
0.2400000000000008
 22
2.4507106781186532
 32
0.6092893218813469
 13
0.2400000000000008
 23
2.379999999999999
 33
0.5800000000000019
  0
3DFACE
  5
20D
  8
0
 10
-0.5599999999999993
 20
2.4507106781186532
 30
0.6092893218813469
 11
-0.5599999999999993
 21
2.48
 31
0.6800000000000015
 12
0.2400000000000008
 22
2.48
 32
0.6800000000000015
 13
0.2400000000000008
 23
2.4507106781186532
 33
0.6092893218813469
  0
3DFACE
  5
24C
  8
0
 10
0.700000000000001
 20
2.633211714892965
 30
1.195986300191723
 11
0.6800000000000011
 21
2.6389692722772682
 31
1.1887311661065829
 12
0.6800000000000011
 22
2.5942318056429872
 32
1.0927913593033001
 13
0.700000000000001
 23
2.5867237061014881
 33
1.0962924436176911
  0
3DFACE
  5
24F
  8
0
 10
0.6800000000000011
 20
2.683054050001966
 30
1.1331796618561409
 11
0.700000000000001
 21
2.6888116073862691
 31
1.125924527771001
 12
0.700000000000001
 22
2.6592283290644199
 32
1.062482982678435
 13
0.6800000000000011
 23
2.6517202295229221
 33
1.0659840669928271
  0
3DFACE
  5
250
  8
0
 10
0.700000000000001
 20
2.6888116073862691
 30
1.125924527771001
 11
0.720000000000001
 21
2.683054050001966
 31
1.1331796618561409
 12
0.720000000000001
 22
2.6517202295229221
 32
1.0659840669928271
 13
0.700000000000001
 23
2.6592283290644199
 33
1.062482982678435
  0
3DFACE
  5
253
  8
0
 10
0.720000000000001
 20
2.6389692722772682
 30
1.1887311661065829
 11
0.700000000000001
 21
2.633211714892965
 31
1.195986300191723
 12
0.700000000000001
 22
2.5867237061014881
 32
1.0962924436176911
 13
0.720000000000001
 23
2.5942318056429872
 33
1.0927913593033001
  0
3DFACE
  5
255
  8
0
 10
0.6800000000000011
 20
2.6389692722772682
 30
1.1887311661065829
 11
0.6800000000000011
 21
2.683054050001966
 31
1.1331796618561409
 12
0.6800000000000011
 22
2.6517202295229221
 32
1.0659840669928271
 13
0.6800000000000011
 23
2.5942318056429872
 33
1.0927913593033001
  0
3DFACE
  5
256
  8
0
 10
0.720000000000001
 20
2.683054050001966
 30
1.1331796618561409
 11
0.720000000000001
 21
2.6389692722772682
 31
1.1887311661065829
 12
0.720000000000001
 22
2.5942318056429872
 32
1.0927913593033001
 13
0.720000000000001
 23
2.6517202295229221
 33
1.0659840669928271
  0
3DFACE
  5
25A
  8
0
 10
0.700000000000001
 20
2.6888116073862691
 30
1.125924527771001
 11
0.700000000000001
 21
2.633211714892965
 31
1.195986300191723
 12
0.720000000000001
 22
2.6389692722772682
 32
1.1887311661065829
 13
0.720000000000001
 23
2.683054050001966
 33
1.1331796618561409
  0
3DFACE
  5
25B
  8
0
 10
0.6800000000000011
 20
2.683054050001966
 30
1.1331796618561409
 11
0.6800000000000011
 21
2.6389692722772682
 31
1.1887311661065829
 12
0.700000000000001
 22
2.633211714892965
 32
1.195986300191723
 13
0.700000000000001
 23
2.6888116073862691
 33
1.125924527771001
  0
3DFACE
  5
25C
  8
0
 10
0.700000000000001
 20
2.4937476885185328
 30
0.8969047304696289
 11
0.6717157287525389
 21
2.5163191942669729
 31
0.9175877048314369
 12
0.5100000000000008
 22
2.5163191942669729
 32
0.9175877048314369
 13
0.5100000000000008
 23
2.4937476885185328
 33
0.8969047304696289
  0
3DFACE
  5
25D
  8
0
 10
0.6717157287525389
 20
2.5163191942669729
 30
0.9175877048314369
 11
0.6600000000000013
 21
2.5469047304696271
 31
0.9162523114814664
 12
0.5100000000000011
 22
2.5469047304696271
 32
0.9162523114814664
 13
0.5100000000000008
 23
2.5163191942669729
 33
0.9175877048314369
  0
3DFACE
  5
25E
  8
0
 10
0.6600000000000013
 20
2.5469047304696271
 30
0.9162523114814664
 11
0.6717157287525392
 21
2.5675877048314351
 31
0.8936808057330286
 12
0.5100000000000011
 22
2.5675877048314351
 32
0.8936808057330286
 13
0.5100000000000011
 23
2.5469047304696271
 33
0.9162523114814664
  0
3DFACE
  5
25F
  8
0
 10
0.6717157287525392
 20
2.5675877048314351
 30
0.8936808057330286
 11
0.7000000000000011
 21
2.5662523114814659
 31
0.8630952695303726
 12
0.5100000000000011
 22
2.5662523114814659
 32
0.8630952695303726
 13
0.5100000000000011
 23
2.5675877048314351
 33
0.8936808057330286
  0
3DFACE
  5
260
  8
0
 10
0.7000000000000011
 20
2.5662523114814659
 30
0.8630952695303726
 11
0.7282842712474629
 21
2.5436808057330271
 31
0.8424122951685646
 12
0.5100000000000011
 22
2.5436808057330271
 32
0.8424122951685646
 13
0.5100000000000011
 23
2.5662523114814659
 33
0.8630952695303726
  0
3DFACE
  5
261
  8
0
 10
0.7282842712474629
 20
2.5436808057330271
 30
0.8424122951685646
 11
0.740000000000001
 21
2.5130952695303712
 31
0.843747688518535
 12
0.5100000000000008
 22
2.5130952695303712
 32
0.843747688518535
 13
0.5100000000000011
 23
2.5436808057330271
 33
0.8424122951685646
  0
3DFACE
  5
262
  8
0
 10
0.740000000000001
 20
2.5130952695303712
 30
0.843747688518535
 11
0.7282842712474626
 21
2.4924122951685632
 31
0.8663191942669747
 12
0.5100000000000008
 22
2.4924122951685632
 32
0.8663191942669747
 13
0.5100000000000008
 23
2.5130952695303712
 33
0.843747688518535
  0
3DFACE
  5
263
  8
0
 10
0.7282842712474626
 20
2.4924122951685632
 30
0.8663191942669747
 11
0.700000000000001
 21
2.4937476885185328
 31
0.8969047304696289
 12
0.5100000000000008
 22
2.4937476885185328
 32
0.8969047304696289
 13
0.5100000000000008
 23
2.4924122951685632
 33
0.8663191942669747
  0
3DFACE
  5
264
  8
0
 10
0.700000000000001
 20
2.578271340866674
 30
1.0781662878769589
 11
0.6717157287525392
 21
2.588889397065909
 31
1.073215006956536
 12
0.6717157287525389
 22
2.5163191942669729
 32
0.9175877048314369
 13
0.7000000000000007
 23
2.4937476885185328
 33
0.8969047304696289
  0
3DFACE
  5
265
  8
0
 10
0.6717157287525392
 20
2.588889397065909
 30
1.073215006956536
 11
0.660000000000001
 21
2.6145236523481401
 31
1.0612615574073301
 12
0.660000000000001
 22
2.5469047304696271
 32
0.9162523114814664
 13
0.6717157287525389
 23
2.5163191942669729
 33
0.9175877048314369
  0
3DFACE
  5
266
  8
0
 10
0.660000000000001
 20
2.6145236523481401
 30
1.0612615574073301
 11
0.6717157287525392
 21
2.6401579076303712
 31
1.049308107858125
 12
0.6717157287525392
 22
2.5675877048314359
 32
0.8936808057330286
 13
0.660000000000001
 23
2.5469047304696271
 33
0.9162523114814664
  0
3DFACE
  5
267
  8
0
 10
0.6717157287525392
 20
2.6401579076303712
 30
1.049308107858125
 11
0.700000000000001
 21
2.6507759638296049
 31
1.0443568269377019
 12
0.700000000000001
 22
2.5662523114814659
 32
0.8630952695303726
 13
0.6717157287525392
 23
2.5675877048314359
 33
0.8936808057330286
  0
3DFACE
  5
268
  8
0
 10
0.700000000000001
 20
2.6507759638296049
 30
1.0443568269377019
 11
0.7282842712474629
 21
2.6401579076303712
 31
1.049308107858125
 12
0.7282842712474629
 22
2.5436808057330271
 32
0.8424122951685646
 13
0.700000000000001
 23
2.5662523114814659
 33
0.8630952695303726
  0
3DFACE
  5
269
  8
0
 10
0.7282842712474629
 20
2.6401579076303712
 30
1.049308107858125
 11
0.7400000000000011
 21
2.6145236523481401
 31
1.0612615574073301
 12
0.7400000000000008
 22
2.5130952695303721
 32
0.843747688518535
 13
0.7282842712474629
 23
2.5436808057330271
 33
0.8424122951685646
  0
3DFACE
  5
26A
  8
0
 10
0.7400000000000011
 20
2.6145236523481401
 30
1.0612615574073301
 11
0.7282842712474629
 21
2.588889397065909
 31
1.073215006956536
 12
0.7282842712474626
 22
2.4924122951685632
 32
0.8663191942669747
 13
0.7400000000000008
 23
2.5130952695303721
 33
0.843747688518535
  0
3DFACE
  5
26B
  8
0
 10
0.7282842712474629
 20
2.588889397065909
 30
1.073215006956536
 11
0.700000000000001
 21
2.578271340866674
 31
1.0781662878769589
 12
0.7000000000000007
 22
2.4937476885185328
 32
0.8969047304696289
 13
0.7282842712474626
 23
2.4924122951685632
 33
0.8663191942669747
  0
3DFACE
  5
26C
  8
0
 10
0.720000000000001
 20
2.5942318056429872
 30
1.0927913593033001
 11
0.700000000000001
 21
2.5867237061014881
 31
1.0962924436176911
 12
0.700000000000001
 22
2.578271340866674
 32
1.0781662878769589
 13
0.7282842712474629
 23
2.588889397065909
 33
1.073215006956536
  0
3DFACE
  5
26D
  8
0
 10
0.700000000000001
 20
2.5867237061014881
 30
1.0962924436176911
 11
0.6800000000000011
 21
2.5942318056429872
 31
1.0927913593033001
 12
0.6717157287525392
 22
2.588889397065909
 32
1.073215006956536
 13
0.700000000000001
 23
2.578271340866674
 33
1.0781662878769589
  0
3DFACE
  5
26E
  8
0
 10
0.700000000000001
 20
2.6592283290644199
 30
1.062482982678435
 11
0.720000000000001
 21
2.6517202295229221
 31
1.0659840669928271
 12
0.7282842712474629
 22
2.6401579076303712
 32
1.049308107858125
 13
0.700000000000001
 23
2.6507759638296049
 33
1.0443568269377019
  0
3DFACE
  5
26F
  8
0
 10
0.6800000000000011
 20
2.6517202295229221
 30
1.0659840669928271
 11
0.700000000000001
 21
2.6592283290644199
 31
1.062482982678435
 12
0.700000000000001
 22
2.6507759638296049
 32
1.0443568269377019
 13
0.6717157287525392
 23
2.6401579076303712
 33
1.049308107858125
  0
3DFACE
  5
270
  8
0
 10
0.720000000000001
 20
2.5942318056429872
 30
1.0927913593033001
 11
0.720000000000001
 21
2.5942318056429872
 31
1.0927913593033001
 12
0.7282842712474629
 22
2.588889397065909
 32
1.073215006956536
 13
0.7400000000000011
 23
2.6145236523481401
 33
1.0612615574073301
  0
3DFACE
  5
271
  8
0
 10
0.720000000000001
 20
2.5942318056429872
 30
1.0927913593033001
 11
0.720000000000001
 21
2.5942318056429872
 31
1.0927913593033001
 12
0.7400000000000011
 22
2.6145236523481401
 32
1.0612615574073301
 13
0.720000000000001
 23
2.6517202295229221
 33
1.0659840669928271
  0
3DFACE
  5
272
  8
0
 10
0.7400000000000011
 20
2.6145236523481401
 30
1.0612615574073301
 11
0.7400000000000011
 21
2.6145236523481401
 31
1.0612615574073301
 12
0.7282842712474629
 22
2.6401579076303712
 32
1.049308107858125
 13
0.720000000000001
 23
2.6517202295229221
 33
1.0659840669928271
  0
3DFACE
  5
273
  8
0
 10
0.6800000000000011
 20
2.5942318056429872
 30
1.0927913593033001
 11
0.6800000000000011
 21
2.5942318056429872
 31
1.0927913593033001
 12
0.660000000000001
 22
2.6145236523481401
 32
1.0612615574073301
 13
0.6717157287525392
 23
2.588889397065909
 33
1.073215006956536
  0
3DFACE
  5
274
  8
0
 10
0.6800000000000011
 20
2.5942318056429872
 30
1.0927913593033001
 11
0.6800000000000011
 21
2.5942318056429872
 31
1.0927913593033001
 12
0.6800000000000011
 22
2.6517202295229221
 32
1.0659840669928271
 13
0.660000000000001
 23
2.6145236523481401
 33
1.0612615574073301
  0
3DFACE
  5
275
  8
0
 10
0.660000000000001
 20
2.6145236523481401
 30
1.0612615574073301
 11
0.660000000000001
 21
2.6145236523481401
 31
1.0612615574073301
 12
0.6800000000000011
 22
2.6517202295229221
 32
1.0659840669928271
 13
0.6717157287525392
 23
2.6401579076303712
 33
1.049308107858125
  0
3DFACE
  5
276
  8
0
 10
-0.778284271247461
 20
2.62949489742783
 30
1.0555692960792671
 11
-0.7499999999999991
 21
2.6396410161513781
 31
1.0497114317029981
 12
-0.7499999999999992
 22
2.4146410161513772
 32
0.660000000000002
 13
-0.7782842712474613
 23
2.3903527618040998
 33
0.6413629669484388
  0
3DFACE
  5
277
  8
0
 10
-0.7899999999999992
 20
2.605
 30
1.0697114317029981
 11
-0.778284271247461
 21
2.62949489742783
 31
1.0555692960792671
 12
-0.7782842712474613
 22
2.3903527618040998
 32
0.6413629669484388
 13
-0.7899999999999993
 23
2.359999999999999
 33
0.6453589838486238
  0
3DFACE
  5
278
  8
0
 10
-0.778284271247461
 20
2.5805051025721681
 30
1.0838535673267291
 11
-0.7899999999999992
 21
2.605
 31
1.0697114317029981
 12
-0.7899999999999993
 22
2.359999999999999
 32
0.6453589838486238
 13
-0.7782842712474613
 23
2.341362966948437
 33
0.6696472381958998
  0
3DFACE
  5
279
  8
0
 10
-0.7499999999999991
 20
2.5703589838486218
 30
1.0897114317029979
 11
-0.778284271247461
 21
2.5805051025721681
 31
1.0838535673267291
 12
-0.7782842712474613
 22
2.341362966948437
 32
0.6696472381958998
 13
-0.7499999999999992
 23
2.3453589838486231
 33
0.7000000000000011
  0
3DFACE
  5
27A
  8
0
 10
-0.7217157287525371
 20
2.5805051025721681
 30
1.0838535673267291
 11
-0.7499999999999991
 21
2.5703589838486218
 31
1.0897114317029979
 12
-0.7499999999999992
 22
2.3453589838486231
 32
0.7000000000000011
 13
-0.7217157287525373
 23
2.3696472381958991
 33
0.7186370330515643
  0
3DFACE
  5
27B
  8
0
 10
-0.709999999999999
 20
2.605
 30
1.0697114317029981
 11
-0.7217157287525371
 21
2.5805051025721681
 31
1.0838535673267291
 12
-0.7217157287525373
 22
2.3696472381958991
 32
0.7186370330515643
 13
-0.7099999999999992
 23
2.3999999999999999
 33
0.7146410161513792
  0
3DFACE
  5
27C
  8
0
 10
-0.7217157287525371
 20
2.62949489742783
 30
1.0555692960792671
 11
-0.709999999999999
 21
2.605
 31
1.0697114317029981
 12
-0.7099999999999992
 22
2.3999999999999999
 32
0.7146410161513792
 13
-0.7217157287525373
 23
2.4186370330515619
 33
0.6903527618041015
  0
3DFACE
  5
27D
  8
0
 10
-0.7499999999999991
 20
2.6396410161513781
 30
1.0497114317029981
 11
-0.7217157287525371
 21
2.62949489742783
 31
1.0555692960792671
 12
-0.7217157287525373
 22
2.4186370330515619
 32
0.6903527618041015
 13
-0.7499999999999992
 23
2.4146410161513772
 33
0.660000000000002
  0
3DFACE
  5
27E
  8
0
 10
-0.709999999999999
 20
2.605
 30
1.0697114317029981
 11
-0.709999999999999
 21
2.605
 31
1.0697114317029981
 12
-0.7299999999999991
 22
2.587533373200765
 32
1.1028898041549571
 13
-0.7217157287525371
 23
2.5805051025721681
 33
1.0838535673267291
  0
3DFACE
  5
27F
  8
0
 10
-0.7299999999999991
 20
2.6424666267992341
 30
1.071174075402419
 11
-0.7299999999999991
 21
2.6424666267992341
 31
1.071174075402419
 12
-0.7299999999999991
 22
2.587533373200765
 32
1.1028898041549571
 13
-0.709999999999999
 23
2.605
 33
1.0697114317029981
  0
3DFACE
  5
280
  8
0
 10
-0.7299999999999991
 20
2.6424666267992341
 30
1.071174075402419
 11
-0.7299999999999991
 21
2.6424666267992341
 31
1.071174075402419
 12
-0.709999999999999
 22
2.605
 32
1.0697114317029981
 13
-0.7217157287525371
 23
2.62949489742783
 33
1.0555692960792671
  0
3DFACE
  5
281
  8
0
 10
-0.7899999999999992
 20
2.605
 30
1.0697114317029981
 11
-0.7899999999999992
 21
2.605
 31
1.0697114317029981
 12
-0.778284271247461
 22
2.5805051025721681
 32
1.0838535673267291
 13
-0.7699999999999991
 23
2.587533373200765
 33
1.1028898041549571
  0
3DFACE
  5
282
  8
0
 10
-0.7699999999999991
 20
2.6424666267992341
 30
1.071174075402419
 11
-0.7699999999999991
 21
2.6424666267992341
 31
1.071174075402419
 12
-0.7899999999999992
 22
2.605
 32
1.0697114317029981
 13
-0.7699999999999991
 23
2.587533373200765
 33
1.1028898041549571
  0
3DFACE
  5
283
  8
0
 10
-0.7699999999999991
 20
2.6424666267992341
 30
1.071174075402419
 11
-0.7699999999999991
 21
2.6424666267992341
 31
1.071174075402419
 12
-0.778284271247461
 22
2.62949489742783
 32
1.0555692960792671
 13
-0.7899999999999992
 23
2.605
 33
1.0697114317029981
  0
3DFACE
  5
284
  8
0
 10
-0.7299999999999991
 20
2.587533373200765
 30
1.1028898041549571
 11
-0.7499999999999991
 21
2.5803589838486221
 31
1.107031939778687
 12
-0.7499999999999991
 22
2.5703589838486218
 32
1.0897114317029979
 13
-0.7217157287525371
 23
2.5805051025721681
 33
1.0838535673267291
  0
3DFACE
  5
285
  8
0
 10
-0.7499999999999991
 20
2.5803589838486221
 30
1.107031939778687
 11
-0.7699999999999991
 21
2.587533373200765
 31
1.1028898041549571
 12
-0.778284271247461
 22
2.5805051025721681
 32
1.0838535673267291
 13
-0.7499999999999991
 23
2.5703589838486218
 33
1.0897114317029979
  0
3DFACE
  5
286
  8
0
 10
-0.7499999999999991
 20
2.649641016151377
 30
1.067031939778688
 11
-0.7299999999999991
 21
2.6424666267992341
 31
1.071174075402419
 12
-0.7217157287525371
 22
2.62949489742783
 32
1.0555692960792671
 13
-0.7499999999999991
 23
2.6396410161513781
 33
1.0497114317029981
  0
3DFACE
  5
287
  8
0
 10
-0.7699999999999991
 20
2.6424666267992341
 30
1.071174075402419
 11
-0.7499999999999991
 21
2.649641016151377
 31
1.067031939778688
 12
-0.7499999999999991
 22
2.6396410161513781
 32
1.0497114317029981
 13
-0.778284271247461
 23
2.62949489742783
 33
1.0555692960792671
  0
3DFACE
  5
288
  8
0
 10
-0.729999999999999
 20
2.6404623053889011
 30
1.1945654038951721
 11
-0.7499999999999991
 21
2.6353589838486231
 31
1.202294734194975
 12
-0.7499999999999991
 22
2.5803589838486229
 32
1.107031939778687
 13
-0.729999999999999
 23
2.587533373200765
 33
1.1028898041549571
  0
3DFACE
  5
289
  8
0
 10
-0.729999999999999
 20
2.6795376946111
 30
1.1353830483433991
 11
-0.729999999999999
 21
2.6404623053889011
 31
1.1945654038951721
 12
-0.729999999999999
 22
2.587533373200765
 32
1.1028898041549571
 13
-0.729999999999999
 23
2.6424666267992349
 33
1.071174075402417
  0
3DFACE
  5
28A
  8
0
 10
-0.7499999999999991
 20
2.6353589838486231
 30
1.202294734194975
 11
-0.7699999999999989
 21
2.6404623053889011
 31
1.1945654038951721
 12
-0.7699999999999989
 22
2.587533373200765
 32
1.1028898041549571
 13
-0.7499999999999991
 23
2.5803589838486229
 33
1.107031939778687
  0
3DFACE
  5
28B
  8
0
 10
-0.7699999999999989
 20
2.6404623053889011
 30
1.1945654038951721
 11
-0.7699999999999989
 21
2.6795376946111
 31
1.1353830483433991
 12
-0.7699999999999989
 22
2.6424666267992349
 32
1.071174075402417
 13
-0.7699999999999989
 23
2.587533373200765
 33
1.1028898041549571
  0
3DFACE
  5
28C
  8
0
 10
-0.7499999999999991
 20
2.6846410161513781
 30
1.1276537180435959
 11
-0.729999999999999
 21
2.6795376946111
 31
1.1353830483433991
 12
-0.729999999999999
 22
2.6424666267992349
 32
1.071174075402417
 13
-0.7499999999999991
 23
2.649641016151377
 33
1.067031939778686
  0
3DFACE
  5
28D
  8
0
 10
-0.7699999999999989
 20
2.6795376946111
 30
1.1353830483433991
 11
-0.7499999999999991
 21
2.6846410161513781
 31
1.1276537180435959
 12
-0.7499999999999991
 22
2.649641016151377
 32
1.067031939778686
 13
-0.7699999999999989
 23
2.6424666267992349
 33
1.071174075402417
  0
3DFACE
  5
28E
  8
0
 10
-0.7499999999999991
 20
2.6846410161513781
 30
1.1276537180435959
 11
-0.7499999999999991
 21
2.6353589838486231
 31
1.202294734194975
 12
-0.729999999999999
 22
2.6404623053889011
 32
1.1945654038951721
 13
-0.729999999999999
 23
2.6795376946111
 33
1.1353830483433991
  0
3DFACE
  5
28F
  8
0
 10
-0.7699999999999989
 20
2.6795376946111
 30
1.1353830483433991
 11
-0.7699999999999991
 21
2.6404623053889011
 31
1.1945654038951721
 12
-0.7499999999999991
 22
2.6353589838486231
 32
1.202294734194975
 13
-0.7499999999999991
 23
2.6846410161513781
 33
1.1276537180435959
  0
3DFACE
  5
290
  8
0
 10
-0.7782842712474613
 20
2.3903527618040998
 30
0.6413629669484388
 11
-0.7499999999999993
 21
2.4146410161513758
 31
0.660000000000002
 12
-0.5599999999999993
 22
2.4146410161513758
 32
0.660000000000002
 13
-0.5599999999999993
 23
2.3903527618040998
 33
0.6413629669484388
  0
3DFACE
  5
291
  8
0
 10
-0.7499999999999993
 20
2.4146410161513758
 30
0.660000000000002
 11
-0.7217157287525373
 21
2.4186370330515619
 31
0.6903527618041015
 12
-0.5599999999999993
 22
2.4186370330515619
 32
0.6903527618041015
 13
-0.5599999999999993
 23
2.4146410161513758
 33
0.660000000000002
  0
3DFACE
  5
292
  8
0
 10
-0.7217157287525373
 20
2.4186370330515619
 30
0.6903527618041015
 11
-0.7099999999999995
 21
2.3999999999999999
 31
0.7146410161513792
 12
-0.5599999999999993
 22
2.3999999999999999
 32
0.7146410161513792
 13
-0.5599999999999993
 23
2.4186370330515619
 33
0.6903527618041015
  0
3DFACE
  5
293
  8
0
 10
-0.7899999999999994
 20
2.359999999999999
 30
0.6453589838486238
 11
-0.7782842712474613
 21
2.3903527618040998
 31
0.6413629669484388
 12
-0.5599999999999993
 22
2.3903527618040998
 32
0.6413629669484388
 13
-0.5599999999999993
 23
2.359999999999999
 33
0.6453589838486238
  0
3DFACE
  5
294
  8
0
 10
-0.7099999999999995
 20
2.3999999999999999
 30
0.7146410161513792
 11
-0.7217157287525373
 21
2.3696472381958991
 31
0.7186370330515643
 12
-0.5599999999999993
 22
2.3696472381958991
 32
0.7186370330515643
 13
-0.5599999999999993
 23
2.3999999999999999
 33
0.7146410161513792
  0
3DFACE
  5
295
  8
0
 10
-0.7782842712474613
 20
2.3413629669484362
 30
0.6696472381959016
 11
-0.7899999999999994
 21
2.359999999999999
 31
0.6453589838486238
 12
-0.5599999999999993
 22
2.359999999999999
 32
0.6453589838486238
 13
-0.5599999999999993
 23
2.3413629669484362
 33
0.6696472381959016
  0
3DFACE
  5
296
  8
0
 10
-0.7499999999999993
 20
2.3453589838486208
 30
0.7000000000000011
 11
-0.7782842712474613
 21
2.3413629669484362
 31
0.6696472381959016
 12
-0.5599999999999993
 22
2.3413629669484362
 32
0.6696472381959016
 13
-0.5599999999999993
 23
2.3453589838486208
 33
0.7000000000000011
  0
3DFACE
  5
297
  8
0
 10
-0.7217157287525373
 20
2.3696472381958991
 30
0.7186370330515643
 11
-0.7499999999999993
 21
2.3453589838486208
 31
0.7000000000000011
 12
-0.5599999999999993
 22
2.3453589838486208
 32
0.7000000000000011
 13
-0.5599999999999993
 23
2.3696472381958991
 33
0.7186370330515643
  0
3DFACE
  5
29D
  8
0
 10
0.570000000000001
 20
2.3570569425459569
 30
0.7127660817715605
 11
0.5417157287525388
 21
2.3869459271066762
 31
0.7193923101204902
 12
0.2400000000000008
 22
2.3869459271066762
 32
0.7193923101204902
 13
0.2400000000000007
 23
2.3570569425459569
 33
0.7127660817715605
  0
3DFACE
  5
29E
  8
0
 10
0.5417157287525388
 20
2.3869459271066762
 30
0.7193923101204902
 11
0.530000000000001
 21
2.4127660817715588
 31
0.7029430574540428
 12
0.2400000000000008
 22
2.4127660817715588
 32
0.7029430574540428
 13
0.2400000000000008
 23
2.3869459271066762
 33
0.7193923101204902
  0
3DFACE
  5
29F
  8
0
 10
0.530000000000001
 20
2.4127660817715588
 30
0.7029430574540428
 11
0.541715728752539
 21
2.4193923101204868
 31
0.6730540728933239
 12
0.2400000000000008
 22
2.4193923101204868
 32
0.6730540728933239
 13
0.2400000000000008
 23
2.4127660817715588
 33
0.7029430574540428
  0
3DFACE
  5
2A0
  8
0
 10
0.541715728752539
 20
2.4193923101204868
 30
0.6730540728933239
 11
0.570000000000001
 21
2.402943057454042
 31
0.6472339182284426
 12
0.2400000000000008
 22
2.402943057454042
 32
0.6472339182284426
 13
0.2400000000000008
 23
2.4193923101204868
 33
0.6730540728933239
  0
3DFACE
  5
2A1
  8
0
 10
0.570000000000001
 20
2.402943057454042
 30
0.6472339182284426
 11
0.5982842712474628
 21
2.3730540728933232
 31
0.6406076898795128
 12
0.2400000000000007
 22
2.3730540728933232
 32
0.6406076898795128
 13
0.2400000000000008
 23
2.402943057454042
 33
0.6472339182284426
  0
3DFACE
  5
2A2
  8
0
 10
0.5982842712474628
 20
2.3730540728933232
 30
0.6406076898795128
 11
0.6100000000000009
 21
2.3472339182284401
 31
0.6570569425459585
 12
0.2400000000000007
 22
2.3472339182284401
 32
0.6570569425459585
 13
0.2400000000000007
 23
2.3730540728933232
 33
0.6406076898795128
  0
3DFACE
  5
2A3
  8
0
 10
0.6100000000000009
 20
2.3472339182284401
 30
0.6570569425459585
 11
0.5982842712474628
 21
2.3406076898795121
 31
0.6869459271066792
 12
0.2400000000000007
 22
2.3406076898795121
 32
0.6869459271066792
 13
0.2400000000000007
 23
2.3472339182284401
 33
0.6570569425459585
  0
3DFACE
  5
2A4
  8
0
 10
0.5982842712474628
 20
2.3406076898795121
 30
0.6869459271066792
 11
0.570000000000001
 21
2.3570569425459569
 31
0.7127660817715605
 12
0.2400000000000007
 22
2.3570569425459569
 32
0.7127660817715605
 13
0.2400000000000007
 23
2.3406076898795121
 33
0.6869459271066792
  0
3DFACE
  5
2A5
  8
0
 10
0.5700000000000011
 20
2.5699999999999998
 30
0.8618704158103049
 11
0.5417157287525392
 21
2.5817157287525379
 31
0.8557715934485319
 12
0.5417157287525388
 22
2.3869459271066762
 32
0.7193923101204902
 13
0.5700000000000008
 23
2.3570569425459569
 33
0.7127660817715605
  0
3DFACE
  5
2A6
  8
0
 10
0.5417157287525392
 20
2.5817157287525379
 30
0.8557715934485319
 11
0.5300000000000011
 21
2.609999999999999
 31
0.8410477337882351
 12
0.5300000000000007
 22
2.4127660817715588
 32
0.7029430574540428
 13
0.5417157287525388
 23
2.3869459271066762
 33
0.7193923101204902
  0
3DFACE
  5
2A7
  8
0
 10
0.5300000000000011
 20
2.609999999999999
 30
0.8410477337882351
 11
0.5417157287525392
 21
2.6382842712474619
 31
0.8263238741279383
 12
0.541715728752539
 22
2.4193923101204868
 32
0.6730540728933239
 13
0.5300000000000007
 23
2.4127660817715588
 33
0.7029430574540428
  0
3DFACE
  5
2A8
  8
0
 10
0.5417157287525392
 20
2.6382842712474619
 30
0.8263238741279383
 11
0.5700000000000011
 21
2.6499999999999999
 31
0.8202250517661653
 12
0.570000000000001
 22
2.402943057454042
 32
0.6472339182284426
 13
0.541715728752539
 23
2.4193923101204868
 33
0.6730540728933239
  0
3DFACE
  5
2A9
  8
0
 10
0.5700000000000011
 20
2.6499999999999999
 30
0.8202250517661653
 11
0.5982842712474631
 21
2.6382842712474619
 31
0.8263238741279383
 12
0.5982842712474628
 22
2.3730540728933232
 32
0.6406076898795128
 13
0.570000000000001
 23
2.402943057454042
 33
0.6472339182284426
  0
3DFACE
  5
2AA
  8
0
 10
0.5982842712474631
 20
2.6382842712474619
 30
0.8263238741279383
 11
0.6100000000000012
 21
2.609999999999999
 31
0.8410477337882351
 12
0.6100000000000008
 22
2.3472339182284401
 32
0.6570569425459585
 13
0.5982842712474628
 23
2.3730540728933232
 33
0.6406076898795128
  0
3DFACE
  5
2AB
  8
0
 10
0.6100000000000012
 20
2.609999999999999
 30
0.8410477337882351
 11
0.5982842712474631
 21
2.5817157287525379
 31
0.8557715934485319
 12
0.5982842712474628
 22
2.3406076898795121
 32
0.6869459271066792
 13
0.6100000000000008
 23
2.3472339182284401
 33
0.6570569425459585
  0
3DFACE
  5
2AC
  8
0
 10
0.5982842712474631
 20
2.5817157287525379
 30
0.8557715934485319
 11
0.5700000000000011
 21
2.5699999999999998
 31
0.8618704158103049
 12
0.5700000000000008
 22
2.3570569425459569
 32
0.7127660817715605
 13
0.5982842712474628
 23
2.3406076898795121
 33
0.6869459271066792
  0
3DFACE
  5
2C1
  8
0
 10
0.5300000000000011
 20
2.609999999999999
 30
0.8410477337882351
 11
0.5417157287525392
 21
2.5817157287525379
 31
0.8557715934485319
 12
0.5417157287525392
 22
2.5817157287525379
 32
1.0800000000000001
 13
0.5300000000000011
 23
2.609999999999999
 33
1.0700000000000021
  0
3DFACE
  5
2C2
  8
0
 10
0.5417157287525392
 20
2.5817157287525379
 30
0.8557715934485319
 11
0.5700000000000011
 21
2.5699999999999998
 31
0.8618704158103049
 12
0.5700000000000011
 22
2.5699999999999998
 32
1.0800000000000001
 13
0.5417157287525392
 23
2.5817157287525379
 33
1.0800000000000001
  0
3DFACE
  5
2C3
  8
0
 10
0.5700000000000011
 20
2.5699999999999998
 30
0.8618704158103049
 11
0.5982842712474631
 21
2.5817157287525379
 31
0.8557715934485319
 12
0.5982842712474631
 22
2.5817157287525379
 32
1.0800000000000001
 13
0.5700000000000011
 23
2.5699999999999998
 33
1.0800000000000001
  0
3DFACE
  5
2C4
  8
0
 10
0.5982842712474631
 20
2.5817157287525379
 30
0.8557715934485319
 11
0.6100000000000012
 21
2.609999999999999
 31
0.8410477337882351
 12
0.6100000000000012
 22
2.609999999999999
 32
1.0700000000000021
 13
0.5982842712474631
 23
2.5817157287525379
 33
1.0800000000000001
  0
3DFACE
  5
2C5
  8
0
 10
0.6100000000000012
 20
2.609999999999999
 30
0.8410477337882351
 11
0.5982842712474631
 21
2.6382842712474619
 31
0.8263238741279383
 12
0.5982842712474631
 22
2.6382842712474619
 32
1.0700000000000021
 13
0.6100000000000012
 23
2.609999999999999
 33
1.0700000000000021
  0
3DFACE
  5
2C6
  8
0
 10
0.5982842712474631
 20
2.6382842712474619
 30
0.8263238741279383
 11
0.5700000000000011
 21
2.6499999999999999
 31
0.8202250517661653
 12
0.5700000000000011
 22
2.6499999999999999
 32
1.0600000000000001
 13
0.5982842712474631
 23
2.6382842712474619
 33
1.0700000000000021
  0
3DFACE
  5
2C7
  8
0
 10
0.5700000000000011
 20
2.6499999999999999
 30
0.8202250517661653
 11
0.5417157287525392
 21
2.6382842712474619
 31
0.8263238741279383
 12
0.5417157287525392
 22
2.6382842712474619
 32
1.0700000000000021
 13
0.5700000000000011
 23
2.6499999999999999
 33
1.0600000000000001
  0
3DFACE
  5
2C8
  8
0
 10
0.5417157287525392
 20
2.6382842712474619
 30
0.8263238741279383
 11
0.5300000000000011
 21
2.609999999999999
 31
0.8410477337882351
 12
0.5300000000000011
 22
2.609999999999999
 32
1.0700000000000021
 13
0.5417157287525392
 23
2.6382842712474619
 33
1.0700000000000021
  0
3DFACE
  5
2CA
  8
0
 10
-0.2899999999999991
 20
2.5469047304696271
 30
0.9162523114814664
 11
-0.2899999999999991
 21
2.5163191942669729
 31
0.9175877048314369
 12
-0.2899999999999992
 22
2.4592893218813439
 32
0.9507106781186553
 13
-0.2899999999999991
 23
2.5299999999999989
 33
0.9800000000000022
  0
3DFACE
  5
2CB
  8
0
 10
0.5100000000000011
 20
2.5299999999999989
 30
0.9800000000000022
 11
0.5100000000000008
 21
2.4592893218813439
 31
0.9507106781186553
 12
0.5100000000000008
 22
2.4937476885185328
 32
0.8969047304696289
 13
0.5100000000000008
 23
2.5163191942669729
 33
0.9175877048314369
  0
3DFACE
  5
2CC
  8
0
 10
0.5100000000000008
 20
2.4592893218813439
 30
0.9507106781186553
 11
0.5100000000000008
 21
2.4299999999999988
 31
0.8800000000000007
 12
0.5100000000000008
 22
2.4924122951685632
 32
0.866319194266973
 13
0.5100000000000008
 23
2.4937476885185328
 33
0.8969047304696289
  0
3DFACE
  5
2CD
  8
0
 10
-0.2899999999999991
 20
2.5163191942669729
 30
0.9175877048314369
 11
-0.2899999999999991
 21
2.4937476885185328
 31
0.8969047304696289
 12
-0.2899999999999992
 22
2.4299999999999988
 32
0.8800000000000007
 13
-0.2899999999999992
 23
2.4592893218813439
 33
0.9507106781186553
  0
3DFACE
  5
2CE
  8
0
 10
0.5100000000000008
 20
2.4299999999999988
 30
0.8800000000000007
 11
0.5100000000000008
 21
2.4592893218813439
 31
0.8092893218813461
 12
0.5100000000000008
 22
2.5130952695303712
 32
0.843747688518535
 13
0.5100000000000008
 23
2.4924122951685632
 33
0.8663191942669747
  0
3DFACE
  5
2CF
  8
0
 10
-0.2899999999999991
 20
2.4937476885185328
 30
0.8969047304696289
 11
-0.2899999999999992
 21
2.4924122951685632
 31
0.8663191942669747
 12
-0.2899999999999992
 22
2.4592893218813439
 32
0.8092893218813461
 13
-0.2899999999999992
 23
2.4299999999999988
 33
0.8800000000000007
  0
3DFACE
  5
2D0
  8
0
 10
0.5100000000000007
 20
2.4592893218813439
 30
0.8092893218813461
 11
0.5100000000000009
 21
2.5299999999999989
 31
0.7800000000000013
 12
0.5100000000000009
 22
2.5436808057330249
 32
0.8424122951685646
 13
0.5100000000000007
 23
2.5130952695303712
 33
0.843747688518535
  0
3DFACE
  5
2D1
  8
0
 10
-0.2899999999999991
 20
2.4924122951685632
 30
0.866319194266973
 11
-0.2899999999999991
 21
2.5130952695303712
 31
0.843747688518535
 12
-0.2899999999999991
 22
2.5299999999999989
 32
0.7800000000000013
 13
-0.2899999999999991
 23
2.4592893218813439
 33
0.8092893218813461
  0
3DFACE
  5
2D2
  8
0
 10
0.5100000000000011
 20
2.5299999999999989
 30
0.7800000000000013
 11
0.5100000000000011
 21
2.6007106781186531
 31
0.8092893218813461
 12
0.5100000000000011
 22
2.566252311481465
 32
0.8630952695303726
 13
0.5100000000000011
 23
2.5436808057330249
 33
0.8424122951685646
  0
3DFACE
  5
2D3
  8
0
 10
-0.2899999999999991
 20
2.5130952695303712
 30
0.843747688518535
 11
-0.2899999999999991
 21
2.5436808057330249
 31
0.8424122951685646
 12
-0.2899999999999991
 22
2.6007106781186531
 32
0.8092893218813461
 13
-0.2899999999999991
 23
2.5299999999999989
 33
0.7800000000000013
  0
3DFACE
  5
2D4
  8
0
 10
0.5100000000000011
 20
2.6007106781186531
 30
0.8092893218813461
 11
0.5100000000000011
 21
2.629999999999999
 31
0.8800000000000007
 12
0.5100000000000011
 22
2.5675877048314368
 32
0.8936808057330286
 13
0.5100000000000011
 23
2.5662523114814659
 33
0.8630952695303726
  0
3DFACE
  5
2D5
  8
0
 10
-0.2899999999999991
 20
2.5436808057330271
 30
0.8424122951685646
 11
-0.2899999999999991
 21
2.5662523114814659
 31
0.8630952695303726
 12
-0.2899999999999991
 22
2.629999999999999
 32
0.8800000000000007
 13
-0.2899999999999991
 23
2.6007106781186531
 33
0.8092893218813461
  0
3DFACE
  5
2D6
  8
0
 10
0.5100000000000011
 20
2.6299999999999999
 30
0.8800000000000007
 11
0.5100000000000011
 21
2.6007106781186531
 31
0.9507106781186553
 12
0.5100000000000011
 22
2.5469047304696271
 32
0.9162523114814664
 13
0.5100000000000011
 23
2.5675877048314368
 33
0.8936808057330286
  0
3DFACE
  5
2D7
  8
0
 10
-0.2899999999999991
 20
2.5662523114814659
 30
0.8630952695303744
 11
-0.2899999999999991
 21
2.5675877048314368
 31
0.8936808057330286
 12
-0.2899999999999991
 22
2.6007106781186531
 32
0.9507106781186553
 13
-0.2899999999999991
 23
2.6299999999999999
 33
0.8800000000000007
  0
3DFACE
  5
2D8
  8
0
 10
0.5100000000000011
 20
2.6007106781186549
 30
0.9507106781186553
 11
0.5100000000000011
 21
2.5300000000000011
 31
0.9800000000000004
 12
0.5100000000000008
 22
2.5163191942669729
 32
0.9175877048314386
 13
0.5100000000000011
 23
2.5469047304696271
 33
0.9162523114814664
  0
3DFACE
  5
2D9
  8
0
 10
-0.2899999999999991
 20
2.5675877048314351
 30
0.8936808057330286
 11
-0.2899999999999991
 21
2.5469047304696271
 31
0.9162523114814664
 12
-0.2899999999999991
 22
2.5300000000000011
 32
0.9800000000000004
 13
-0.2899999999999991
 23
2.6007106781186549
 33
0.9507106781186553
  0
3DFACE
  5
2DA
  8
0
 10
-0.5599999999999993
 20
2.3696472381958991
 30
0.7186370330515643
 11
-0.5599999999999993
 21
2.3453589838486208
 31
0.7000000000000011
 12
-0.5599999999999993
 22
2.3092893218813439
 32
0.7507106781186561
 13
-0.5599999999999993
 23
2.379999999999999
 33
0.7800000000000013
  0
3DFACE
  5
2DB
  8
0
 10
0.2400000000000008
 20
2.379999999999999
 30
0.7800000000000013
 11
0.2400000000000007
 21
2.3092893218813439
 31
0.7507106781186561
 12
0.2400000000000007
 22
2.3570569425459569
 32
0.7127660817715605
 13
0.2400000000000008
 23
2.3869459271066762
 33
0.7193923101204902
  0
3DFACE
  5
2DC
  8
0
 10
0.2400000000000007
 20
2.3092893218813439
 30
0.7507106781186561
 11
0.2400000000000007
 21
2.2799999999999989
 31
0.6800000000000015
 12
0.2400000000000007
 22
2.3406076898795121
 32
0.6869459271066792
 13
0.2400000000000007
 23
2.3570569425459569
 33
0.7127660817715605
  0
3DFACE
  5
2DD
  8
0
 10
-0.5599999999999993
 20
2.3453589838486231
 30
0.7000000000000011
 11
-0.5599999999999993
 21
2.341362966948437
 31
0.6696472381959016
 12
-0.5599999999999993
 22
2.2799999999999989
 32
0.6800000000000015
 13
-0.5599999999999993
 23
2.3092893218813439
 33
0.7507106781186561
  0
3DFACE
  5
2DE
  8
0
 10
0.2400000000000007
 20
2.2799999999999989
 30
0.6800000000000015
 11
0.2400000000000007
 21
2.3092893218813439
 31
0.6092893218813469
 12
0.2400000000000007
 22
2.3472339182284401
 32
0.6570569425459585
 13
0.2400000000000007
 23
2.3406076898795098
 33
0.6869459271066792
  0
3DFACE
  5
2DF
  8
0
 10
-0.5599999999999993
 20
2.3413629669484362
 30
0.6696472381959016
 11
-0.5599999999999993
 21
2.359999999999999
 31
0.6453589838486238
 12
-0.5599999999999993
 22
2.3092893218813439
 32
0.6092893218813469
 13
-0.5599999999999993
 23
2.2799999999999989
 33
0.6800000000000015
  0
3DFACE
  5
2E0
  8
0
 10
0.2400000000000007
 20
2.3092893218813439
 30
0.6092893218813469
 11
0.2400000000000007
 21
2.379999999999999
 31
0.5800000000000019
 12
0.2400000000000007
 22
2.3730540728933209
 32
0.6406076898795128
 13
0.2400000000000007
 23
2.3472339182284401
 33
0.6570569425459585
  0
3DFACE
  5
2E1
  8
0
 10
-0.5599999999999992
 20
2.359999999999999
 30
0.6453589838486238
 11
-0.5599999999999992
 21
2.3903527618040998
 31
0.6413629669484388
 12
-0.5599999999999992
 22
2.379999999999999
 32
0.5800000000000019
 13
-0.5599999999999992
 23
2.3092893218813439
 33
0.6092893218813469
  0
3DFACE
  5
2E2
  8
0
 10
0.2400000000000008
 20
2.379999999999999
 30
0.5800000000000019
 11
0.2400000000000008
 21
2.4507106781186532
 31
0.6092893218813469
 12
0.2400000000000008
 22
2.402943057454042
 32
0.6472339182284408
 13
0.2400000000000007
 23
2.3730540728933232
 33
0.6406076898795128
  0
3DFACE
  5
2E3
  8
0
 10
-0.5599999999999993
 20
2.3903527618040998
 30
0.6413629669484388
 11
-0.5599999999999993
 21
2.4146410161513758
 31
0.660000000000002
 12
-0.5599999999999993
 22
2.4507106781186532
 32
0.6092893218813469
 13
-0.5599999999999993
 23
2.379999999999999
 33
0.5800000000000019
  0
3DFACE
  5
2E4
  8
0
 10
0.2400000000000008
 20
2.4507106781186532
 30
0.6092893218813469
 11
0.2400000000000008
 21
2.4799999999999982
 31
0.6800000000000015
 12
0.2400000000000008
 22
2.4193923101204868
 32
0.6730540728933239
 13
0.2400000000000008
 23
2.402943057454042
 33
0.6472339182284426
  0
3DFACE
  5
2E5
  8
0
 10
-0.5599999999999993
 20
2.4146410161513758
 30
0.660000000000002
 11
-0.5599999999999993
 21
2.418637033051561
 31
0.6903527618041015
 12
-0.5599999999999993
 22
2.4799999999999982
 32
0.6800000000000015
 13
-0.5599999999999993
 23
2.4507106781186532
 33
0.6092893218813469
  0
3DFACE
  5
2E6
  8
0
 10
0.2400000000000008
 20
2.4799999999999982
 30
0.6800000000000015
 11
0.2400000000000008
 21
2.4507106781186532
 31
0.7507106781186561
 12
0.2400000000000008
 22
2.4127660817715588
 32
0.7029430574540445
 13
0.2400000000000008
 23
2.4193923101204868
 33
0.6730540728933239
  0
3DFACE
  5
2E7
  8
0
 10
-0.5599999999999993
 20
2.418637033051561
 30
0.6903527618041015
 11
-0.5599999999999993
 21
2.3999999999999981
 31
0.7146410161513792
 12
-0.5599999999999993
 22
2.4507106781186532
 32
0.7507106781186561
 13
-0.5599999999999993
 23
2.4799999999999982
 33
0.6800000000000015
  0
3DFACE
  5
2E8
  8
0
 10
0.2400000000000008
 20
2.450710678118655
 30
0.7507106781186561
 11
0.2400000000000008
 21
2.379999999999999
 31
0.7800000000000013
 12
0.2400000000000008
 22
2.3869459271066762
 32
0.7193923101204902
 13
0.2400000000000008
 23
2.4127660817715588
 33
0.7029430574540445
  0
3DFACE
  5
2E9
  8
0
 10
-0.5599999999999993
 20
2.3999999999999999
 30
0.7146410161513775
 11
-0.5599999999999993
 21
2.3696472381958991
 31
0.7186370330515643
 12
-0.5599999999999993
 22
2.379999999999999
 32
0.7800000000000013
 13
-0.5599999999999993
 23
2.450710678118655
 33
0.7507106781186561
  0
3DFACE
  5
420
  8
0
 10
0.5699999999999994
 20
-1.894285714285717
 30
1.1399999999999999
 11
0.5699999999999998
 21
-2.28714285714286
 31
0.89
 12
0.7399999999999993
 22
-2.3500000000000001
 32
0.8500000000000014
 13
0.7399999999999998
 23
-2.0185143678160928
 33
1.06094540229885
  0
3DFACE
  5
24C4
  8
0
 10
0.7235821200408471
 20
2.4599999999999991
 30
0.950838672768879
 11
0.7400000000000003
 21
2.3836822074215021
 31
0.841313035204566
 12
-0.7399999999999997
 22
2.3836822074215021
 32
0.841313035204566
 13
-0.723582120040846
 23
2.4599999999999991
 33
0.9508386727688784
  0
3DFACE
  5
256A
  8
0
 10
-0.2499999999999997
 20
1.4034253854183469
 30
1.4651067444997581
 11
-0.3599999999999968
 21
1.299999999999998
 31
1.480000000000002
 12
0.3600000000000001
 22
1.2999999999999989
 32
1.48
 13
0.5300000000000006
 23
1.4034253854183469
 33
1.4651067444997581
  0
3DFACE
  5
2593
  8
0
 10
-0.7400000000000008
 20
-2.3500000000000001
 30
0.8500000000000014
 11
-0.7399999999999999
 21
2.3836822074215021
 31
0.841313035204566
 12
-0.7399999999999994
 22
2.1699999999999999
 32
0.510000000000003
 13
-0.7400000000000007
 23
-1.979999999999998
 33
0.510000000000003
  0
3DFACE
  5
2594
  8
0
 10
0.7399999999999994
 20
-1.9799999999999991
 30
0.5100000000000016
 11
0.7400000000000007
 21
2.169999999999999
 31
0.5100000000000016
 12
0.7400000000000006
 22
2.3836822074215021
 32
0.841313035204566
 13
0.7399999999999993
 23
-2.3500000000000001
 33
0.8500000000000014
  0
3DFACE
  5
2595
  8
0
 10
0.7399999999999998
 20
-2.0185143678160928
 30
1.06094540229885
 11
0.7399999999999993
 21
-2.3500000000000001
 31
0.8500000000000014
 12
0.7400000000000042
 22
2.3836822074214861
 32
0.8413130352045403
 13
0.7400000000000683
 23
2.3836822074179911
 33
0.8413130352047414
  0
3DFACE
  5
2596
  8
0
 10
-0.7400000000000004
 20
-2.0185143678160942
 30
1.06094540229885
 11
-0.7399999999999997
 21
2.3836822074215029
 31
0.841313035204566
 12
-0.7399999999999997
 22
2.3836822074215029
 32
0.841313035204566
 13
-0.7400000000000008
 23
-2.3500000000000001
 33
0.8500000000000014
  0
3DFACE
  5
260C
  8
0
 10
-0.4499999999999999
 20
1.573041344951996
 30
1.450486596562921
 11
-0.3914213562373093
 21
1.432996291632062
 31
1.4701686452524461
 12
-0.3843502884254439
 22
1.4469571993460619
 32
1.5186979462550481
 13
-0.4399999999999999
 23
1.5800000000000001
 33
1.5
  0
3DFACE
  5
260D
  8
0
 10
-0.3914213562373093
 20
1.432996291632062
 30
1.4701686452524461
 11
-0.2499999999999998
 21
1.374987731203682
 31
1.478321216754934
 12
-0.2499999999999998
 22
1.391849066939101
 32
1.526442889182412
 13
-0.3843502884254439
 23
1.4469571993460619
 33
1.5186979462550481
  0
3DFACE
  5
260E
  8
0
 10
-0.2499999999999998
 20
1.374987731203682
 30
1.478321216754934
 11
-0.1085786437626903
 21
1.432996291632062
 31
1.4701686452524461
 12
-0.1156497115745558
 22
1.4469571993460619
 32
1.5186979462550481
 13
-0.2499999999999998
 23
1.391849066939101
 33
1.526442889182412
  0
3DFACE
  5
260F
  8
0
 10
-0.1085786437626903
 20
1.432996291632062
 30
1.4701686452524461
 11
-0.0499999999999998
 21
1.573041344951996
 31
1.450486596562921
 12
-0.0599999999999998
 22
1.5800000000000001
 32
1.5
 13
-0.1156497115745558
 23
1.4469571993460619
 33
1.5186979462550481
  0
3DFACE
  5
2610
  8
0
 10
-0.0499999999999998
 20
1.573041344951996
 30
1.450486596562921
 11
-0.1085786437626903
 21
1.71308639827193
 31
1.4308045478733971
 12
-0.1156497115745557
 22
1.7130428006539371
 32
1.4813020537449511
 13
-0.0599999999999998
 23
1.5800000000000001
 33
1.5
  0
3DFACE
  5
2611
  8
0
 10
-0.1085786437626903
 20
1.71308639827193
 30
1.4308045478733971
 11
-0.2499999999999997
 21
1.77109495870031
 31
1.422651976370908
 12
-0.2499999999999997
 22
1.768150933060898
 32
1.4735571108175869
 13
-0.1156497115745557
 23
1.7130428006539371
 33
1.4813020537449511
  0
3DFACE
  5
2612
  8
0
 10
-0.2499999999999997
 20
1.77109495870031
 30
1.422651976370908
 11
-0.3914213562373092
 21
1.71308639827193
 31
1.4308045478733971
 12
-0.3843502884254438
 22
1.7130428006539371
 32
1.4813020537449511
 13
-0.2499999999999997
 23
1.768150933060898
 33
1.4735571108175869
  0
3DFACE
  5
2613
  8
0
 10
-0.3914213562373092
 20
1.71308639827193
 30
1.4308045478733971
 11
-0.4499999999999999
 21
1.573041344951996
 31
1.450486596562921
 12
-0.4399999999999999
 22
1.5800000000000001
 32
1.5
 13
-0.3843502884254438
 23
1.7130428006539371
 33
1.4813020537449511
  0
3DFACE
  5
261C
  8
0
 10
-0.4199999999999996
 20
1.5716907386857559
 30
1.4408765336292511
 11
-0.3702081528017127
 21
1.4527091663516201
 31
1.458009880045366
 12
-0.3702081528017129
 22
1.454003049630052
 32
1.4672163379490171
 13
-0.4199999999999999
 23
1.573041344951996
 33
1.450486596562921
  0
3DFACE
  5
261D
  8
0
 10
-0.3702081528017127
 20
1.4527091663516201
 30
1.458009880045366
 11
-0.2499999999999996
 21
1.4034253854183469
 31
1.4651067444997581
 12
-0.2499999999999998
 22
1.4046957732659291
 32
1.4741460237261319
 13
-0.3702081528017129
 23
1.454003049630052
 33
1.4672163379490171
  0
3DFACE
  5
261E
  8
0
 10
-0.2499999999999996
 20
1.4034253854183469
 30
1.4651067444997581
 11
-0.1297918471982865
 21
1.4527091663516201
 31
1.458009880045366
 12
-0.1297918471982867
 22
1.454003049630052
 32
1.4672163379490171
 13
-0.2499999999999998
 23
1.4046957732659291
 33
1.4741460237261319
  0
3DFACE
  5
261F
  8
0
 10
-0.1297918471982865
 20
1.4527091663516201
 30
1.458009880045366
 11
-0.0799999999999996
 21
1.5716907386857559
 31
1.4408765336292511
 12
-0.0799999999999998
 22
1.573041344951996
 32
1.450486596562921
 13
-0.1297918471982867
 23
1.454003049630052
 33
1.4672163379490171
  0
3DFACE
  5
2620
  8
0
 10
-0.0799999999999996
 20
1.5716907386857559
 30
1.4408765336292511
 11
-0.1297918471982864
 21
1.6906723110198909
 31
1.423743187213135
 12
-0.1297918471982867
 22
1.69207964027394
 32
1.4337568551768249
 13
-0.0799999999999998
 23
1.573041344951996
 33
1.450486596562921
  0
3DFACE
  5
2621
  8
0
 10
-0.1297918471982864
 20
1.6906723110198909
 30
1.423743187213135
 11
-0.2499999999999995
 21
1.739956091953164
 31
1.416646322758744
 12
-0.2499999999999997
 22
1.7413869166380631
 32
1.4268271693997101
 13
-0.1297918471982867
 23
1.69207964027394
 33
1.4337568551768249
  0
3DFACE
  5
2622
  8
0
 10
-0.2499999999999995
 20
1.739956091953164
 30
1.416646322758744
 11
-0.3702081528017125
 21
1.6906723110198909
 31
1.423743187213135
 12
-0.3702081528017128
 22
1.69207964027394
 32
1.4337568551768249
 13
-0.2499999999999997
 23
1.7413869166380631
 33
1.4268271693997101
  0
3DFACE
  5
2623
  8
0
 10
-0.3702081528017125
 20
1.6906723110198909
 30
1.423743187213135
 11
-0.4199999999999996
 21
1.5716907386857559
 31
1.4408765336292511
 12
-0.4199999999999999
 22
1.573041344951996
 32
1.450486596562921
 13
-0.3702081528017128
 23
1.69207964027394
 33
1.4337568551768249
  0
3DFACE
  5
262C
  8
0
 10
-0.1156497115745557
 20
1.7130428006539371
 30
1.4813020537449511
 11
-0.2499999999999997
 21
1.768150933060898
 31
1.4735571108175869
 12
-0.3843502884254438
 22
1.7130428006539371
 32
1.4813020537449511
 13
-0.0599999999999998
 23
1.5800000000000001
 33
1.5
  0
3DFACE
  5
262D
  8
0
 10
-0.0599999999999998
 20
1.5800000000000001
 30
1.5
 11
-0.3843502884254438
 21
1.7130428006539371
 31
1.4813020537449519
 12
-0.4399999999999999
 22
1.5800000000000001
 32
1.5
 13
-0.1156497115745558
 23
1.4469571993460619
 33
1.5186979462550481
  0
3DFACE
  5
262E
  8
0
 10
-0.1156497115745558
 20
1.4469571993460619
 30
1.5186979462550481
 11
-0.4399999999999999
 21
1.5800000000000001
 31
1.5
 12
-0.3843502884254439
 22
1.4469571993460619
 32
1.5186979462550481
 13
-0.2499999999999998
 23
1.391849066939101
 33
1.526442889182412
  0
3DFACE
  5
262F
  8
0
 10
0.6643502884254443
 20
1.4469571993460619
 30
1.5186979462550481
 11
0.3400000000000003
 21
1.5800000000000001
 31
1.5
 12
0.3956497115745563
 22
1.4469571993460619
 32
1.5186979462550481
 13
0.5300000000000004
 23
1.391849066939101
 33
1.526442889182412
  0
3DFACE
  5
2630
  8
0
 10
0.7200000000000003
 20
1.5800000000000001
 30
1.5
 11
0.3956497115745563
 21
1.7130428006539371
 31
1.4813020537449519
 12
0.3400000000000003
 22
1.5800000000000001
 32
1.5
 13
0.6643502884254444
 23
1.4469571993460619
 33
1.5186979462550481
  0
3DFACE
  5
2631
  8
0
 10
0.6643502884254444
 20
1.7130428006539371
 30
1.4813020537449511
 11
0.5300000000000004
 21
1.768150933060898
 31
1.4735571108175869
 12
0.3956497115745563
 22
1.7130428006539371
 32
1.4813020537449511
 13
0.7200000000000003
 23
1.5800000000000001
 33
1.5
  0
3DFACE
  5
2632
  8
0
 10
0.7000000000000007
 20
1.5716907386857559
 30
1.4408765336292511
 11
0.6502081528017139
 21
1.6906723110198909
 31
1.423743187213135
 12
0.6502081528017136
 22
1.69207964027394
 32
1.4337568551768249
 13
0.7000000000000004
 23
1.573041344951996
 33
1.450486596562921
  0
3DFACE
  5
2633
  8
0
 10
0.6502081528017139
 20
1.6906723110198909
 30
1.423743187213135
 11
0.5300000000000007
 21
1.739956091953164
 31
1.416646322758744
 12
0.5300000000000004
 22
1.7413869166380631
 32
1.4268271693997101
 13
0.6502081528017136
 23
1.69207964027394
 33
1.4337568551768249
  0
3DFACE
  5
2634
  8
0
 10
0.6502081528017139
 20
1.4527091663516201
 30
1.458009880045366
 11
0.7000000000000007
 21
1.5716907386857559
 31
1.4408765336292511
 12
0.7000000000000004
 22
1.573041344951996
 32
1.450486596562921
 13
0.6502081528017136
 23
1.454003049630052
 33
1.4672163379490171
  0
3DFACE
  5
2635
  8
0
 10
0.5300000000000006
 20
1.4034253854183469
 30
1.4651067444997581
 11
0.6502081528017139
 21
1.4527091663516201
 31
1.458009880045366
 12
0.6502081528017136
 22
1.454003049630052
 32
1.4672163379490171
 13
0.5300000000000004
 23
1.4046957732659291
 33
1.4741460237261319
  0
3DFACE
  5
2636
  8
0
 10
0.4097918471982877
 20
1.6906723110198909
 30
1.423743187213135
 11
0.3600000000000005
 21
1.5716907386857559
 31
1.4408765336292511
 12
0.3600000000000003
 22
1.573041344951996
 32
1.450486596562921
 13
0.4097918471982874
 23
1.69207964027394
 33
1.4337568551768249
  0
3DFACE
  5
2637
  8
0
 10
0.5300000000000007
 20
1.739956091953164
 30
1.416646322758744
 11
0.4097918471982877
 21
1.6906723110198909
 31
1.423743187213135
 12
0.4097918471982874
 22
1.69207964027394
 32
1.4337568551768249
 13
0.5300000000000004
 23
1.7413869166380631
 33
1.4268271693997101
  0
3DFACE
  5
2638
  8
0
 10
0.3600000000000005
 20
1.5716907386857559
 30
1.4408765336292511
 11
0.4097918471982875
 21
1.4527091663516201
 31
1.458009880045366
 12
0.4097918471982873
 22
1.454003049630052
 32
1.4672163379490171
 13
0.3600000000000003
 23
1.573041344951996
 33
1.450486596562921
  0
3DFACE
  5
2639
  8
0
 10
0.4097918471982875
 20
1.4527091663516201
 30
1.458009880045366
 11
0.5300000000000006
 21
1.4034253854183469
 31
1.4651067444997581
 12
0.5300000000000004
 22
1.4046957732659291
 32
1.4741460237261319
 13
0.4097918471982873
 23
1.454003049630052
 33
1.4672163379490171
  0
3DFACE
  5
263A
  8
0
 10
0.3885786437626909
 20
1.71308639827193
 30
1.4308045478733971
 11
0.3300000000000003
 21
1.573041344951996
 31
1.450486596562921
 12
0.3400000000000003
 22
1.5800000000000001
 32
1.5
 13
0.3956497115745563
 23
1.7130428006539371
 33
1.4813020537449511
  0
3DFACE
  5
263B
  8
0
 10
0.5300000000000004
 20
1.77109495870031
 30
1.422651976370908
 11
0.3885786437626909
 21
1.71308639827193
 31
1.4308045478733971
 12
0.3956497115745563
 22
1.7130428006539371
 32
1.4813020537449511
 13
0.5300000000000004
 23
1.768150933060898
 33
1.4735571108175869
  0
3DFACE
  5
263C
  8
0
 10
0.67142135623731
 20
1.71308639827193
 30
1.4308045478733971
 11
0.5300000000000004
 21
1.77109495870031
 31
1.422651976370908
 12
0.5300000000000004
 22
1.768150933060898
 32
1.4735571108175869
 13
0.6643502884254444
 23
1.7130428006539371
 33
1.4813020537449511
  0
3DFACE
  5
263D
  8
0
 10
0.7300000000000004
 20
1.573041344951996
 30
1.450486596562921
 11
0.67142135623731
 21
1.71308639827193
 31
1.4308045478733971
 12
0.6643502884254444
 22
1.7130428006539371
 32
1.4813020537449511
 13
0.7200000000000003
 23
1.5800000000000001
 33
1.5
  0
3DFACE
  5
263E
  8
0
 10
0.6714213562373099
 20
1.432996291632062
 30
1.4701686452524461
 11
0.7300000000000004
 21
1.573041344951996
 31
1.450486596562921
 12
0.7200000000000003
 22
1.5800000000000001
 32
1.5
 13
0.6643502884254444
 23
1.4469571993460619
 33
1.5186979462550481
  0
3DFACE
  5
263F
  8
0
 10
0.5300000000000004
 20
1.374987731203682
 30
1.478321216754934
 11
0.6714213562373099
 21
1.432996291632062
 31
1.4701686452524461
 12
0.6643502884254444
 22
1.4469571993460619
 32
1.5186979462550481
 13
0.5300000000000004
 23
1.391849066939101
 33
1.526442889182412
  0
3DFACE
  5
2640
  8
0
 10
0.3885786437626908
 20
1.432996291632062
 30
1.4701686452524461
 11
0.5300000000000004
 21
1.374987731203682
 31
1.478321216754934
 12
0.5300000000000004
 22
1.391849066939101
 32
1.526442889182412
 13
0.3956497115745563
 23
1.4469571993460619
 33
1.5186979462550481
  0
3DFACE
  5
2641
  8
0
 10
0.3300000000000003
 20
1.573041344951996
 30
1.450486596562921
 11
0.3885786437626908
 21
1.432996291632062
 31
1.4701686452524461
 12
0.3956497115745563
 22
1.4469571993460619
 32
1.5186979462550481
 13
0.3400000000000003
 23
1.5800000000000001
 33
1.5
  0
3DFACE
  5
2642
  8
0
 10
-0.1297918471982865
 20
1.4527091663516201
 30
1.458009880045366
 11
-0.2499999999999997
 21
1.4034253854183469
 31
1.4651067444997581
 12
0.5300000000000006
 22
1.4034253854183469
 32
1.4651067444997581
 13
0.4097918471982875
 23
1.4527091663516201
 33
1.458009880045366
  0
3DFACE
  5
2643
  8
0
 10
-0.0799999999999996
 20
1.5716907386857559
 30
1.4408765336292511
 11
-0.1297918471982865
 21
1.4527091663516201
 31
1.458009880045366
 12
0.4097918471982875
 22
1.4527091663516201
 32
1.458009880045366
 13
0.3600000000000005
 23
1.5716907386857559
 33
1.4408765336292511
  0
3DFACE
  5
2644
  8
0
 10
-0.1297918471982866
 20
1.6906723110198909
 30
1.423743187213135
 11
-0.0799999999999996
 21
1.5716907386857559
 31
1.4408765336292511
 12
0.3600000000000005
 22
1.5716907386857559
 32
1.4408765336292511
 13
0.4097918471982877
 23
1.6906723110198909
 33
1.423743187213135
  0
3DFACE
  5
2645
  8
0
 10
-0.2499999999999995
 20
1.739956091953164
 30
1.416646322758744
 11
-0.1297918471982866
 21
1.6906723110198909
 31
1.423743187213135
 12
0.4097918471982877
 22
1.6906723110198909
 32
1.423743187213135
 13
0.5300000000000007
 23
1.739956091953164
 33
1.416646322758744
  0
3DFACE
  5
2646
  8
0
 10
0.5300000000000006
 20
1.4034253854183469
 30
1.4651067444997581
 11
0.3600000000000001
 21
1.2999999999999989
 31
1.48
 12
0.3600000000000001
 22
1.2999999999999989
 32
1.48
 13
0.6502081528017139
 23
1.4527091663516201
 33
1.458009880045366
  0
3DFACE
  5
2647
  8
0
 10
0.6502081528017139
 20
1.4527091663516201
 30
1.458009880045366
 11
0.72
 21
1.3
 31
1.4799999999999991
 12
0.72
 22
1.3
 32
1.4799999999999991
 13
0.7000000000000007
 23
1.5716907386857559
 33
1.4408765336292511
  0
3DFACE
  5
2649
  8
0
 10
-0.3702081528017127
 20
1.4527091663516201
 30
1.458009880045366
 11
-0.3599999999999968
 21
1.299999999999998
 31
1.480000000000002
 12
-0.3599999999999968
 22
1.299999999999998
 32
1.480000000000002
 13
-0.2499999999999997
 23
1.4034253854183469
 33
1.4651067444997581
  0
3DFACE
  5
264A
  8
0
 10
-0.4199999999999996
 20
1.5716907386857559
 30
1.4408765336292511
 11
-0.72
 21
1.2999999999999989
 31
1.4799999999999991
 12
-0.72
 22
1.2999999999999989
 32
1.4799999999999991
 13
-0.3702081528017127
 23
1.4527091663516201
 33
1.458009880045366
  0
3DFACE
  5
264B
  8
0
 10
-0.3702081528017125
 20
1.6906723110198909
 30
1.423743187213135
 11
-0.72
 21
1.2999999999999989
 31
1.4799999999999991
 12
-0.72
 22
1.2999999999999989
 32
1.4799999999999991
 13
-0.4199999999999996
 23
1.5716907386857559
 33
1.4408765336292511
  0
3DFACE
  5
264C
  8
0
 10
-0.6557283435044533
 20
2.5499999999999998
 30
1.3
 11
-0.72
 21
1.2999999999999989
 31
1.4799999999999991
 12
-0.72
 22
1.2999999999999989
 32
1.4799999999999991
 13
-0.3702081528017125
 23
1.6906723110198909
 33
1.423743187213135
  0
3DFACE
  5
264D
  8
0
 10
-0.6557283435044533
 20
2.5499999999999998
 30
1.3
 11
-0.3702081528017125
 21
1.6906723110198909
 31
1.423743187213135
 12
-0.3702081528017125
 22
1.6906723110198909
 32
1.423743187213135
 13
-0.2499999999999995
 23
1.739956091953164
 33
1.416646322758744
  0
3DFACE
  5
264E
  8
0
 10
0.6502081528017139
 20
1.6906723110198909
 30
1.423743187213135
 11
0.7000000000000007
 21
1.5716907386857559
 31
1.4408765336292511
 12
0.7000000000000007
 22
1.5716907386857559
 32
1.4408765336292511
 13
0.6557283435044554
 23
2.5500000000000012
 33
1.2999999999999989
  0
3DFACE
  5
264F
  8
0
 10
0.5300000000000007
 20
1.739956091953164
 30
1.416646322758744
 11
0.6502081528017139
 21
1.6906723110198909
 31
1.423743187213135
 12
0.6502081528017139
 22
1.6906723110198909
 32
1.423743187213135
 13
0.6557283435044554
 23
2.5500000000000012
 33
1.2999999999999989
  0
3DFACE
  5
2650
  8
0
 10
-0.6557283435044548
 20
2.5500000000000029
 30
1.2999999999999989
 11
-0.2499999999999995
 21
1.739956091953164
 31
1.416646322758744
 12
0.5300000000000007
 22
1.739956091953164
 32
1.416646322758744
 13
0.6557283435044589
 23
2.5500000000000029
 33
1.2999999999999989
  0
3DFACE
  5
39D5
  8
0
 10
0.5699999999999987
 20
-2.29
 30
0.9
 11
0.5699999999999998
 21
-2.28714285714286
 31
0.89
 12
0.5699999999999994
 22
-1.894285714285717
 32
1.1399999999999999
 13
0.57
 23
-1.9099999999999999
 33
1.1399999999999999
  0
3DFACE
  5
39D6
  8
0
 10
0.3699999999999993
 20
-1.894285714285717
 30
1.1399999999999999
 11
0.3699999999999997
 21
-2.28714285714286
 31
0.89
 12
0.3699999999999997
 22
-2.29
 32
0.9
 13
0.3699999999999997
 23
-1.9099999999999999
 33
1.1399999999999999
  0
3DFACE
  5
39D9
  8
0
 10
0.3699999999999997
 20
-1.9099999999999999
 30
1.1399999999999999
 11
0.3699999999999997
 21
-2.29
 31
0.9
 12
0.5699999999999987
 22
-2.29
 32
0.9
 13
0.57
 23
-1.9099999999999999
 33
1.1399999999999999
  0
3DFACE
  5
39DA
  8
0
 10
0.3699999999999997
 20
-2.29
 30
0.9
 11
0.3699999999999997
 21
-2.28714285714286
 31
0.89
 12
0.5699999999999998
 22
-2.28714285714286
 32
0.89
 13
0.5699999999999987
 23
-2.29
 33
0.9
  0
3DFACE
  5
39E3
  8
0
 10
0.5699999999999994
 20
-1.894285714285717
 30
1.1399999999999999
 11
0.740000000000001
 21
-1.721428571428574
 31
1.25
 12
0.7400000000000131
 22
-1.7214285714285691
 32
1.250000000000002
 13
0.3699999999999993
 23
-1.894285714285717
 33
1.1399999999999999
  0
3DFACE
  5
39E4
  8
0
 10
0.3699999999999993
 20
-1.894285714285717
 30
1.1399999999999999
 11
0.7400000000000131
 21
-1.7214285714285691
 31
1.250000000000002
 12
0.7400000000000131
 22
-1.7214285714285691
 32
1.250000000000002
 13
-0.7400000000000003
 23
-1.721428571428574
 33
1.25
  0
3DFACE
  5
39E6
  8
0
 10
-0.7400000000000004
 20
-2.0185143678160942
 30
1.06094540229885
 11
-0.7400000000000008
 21
-2.3500000000000001
 31
0.8500000000000014
 12
-0.0200000000000003
 22
-2.28714285714286
 32
0.89
 13
-0.0200000000000007
 23
-1.894285714285717
 33
1.1399999999999999
  0
3DFACE
  5
3A43
  8
0
 10
-1.02
 20
-0.3200000000000001
 30
1.06094540229885
 11
-1.02
 21
-0.3200000000000001
 31
0.9762039045553141
 12
-0.7400000000000004
 22
-2.0185143678160942
 32
1.06094540229885
 13
-0.7400000000000004
 23
-2.0185143678160942
 33
1.06094540229885
  0
3DFACE
  5
3A44
  8
0
 10
0.7399999999999998
 20
-2.0185143678160928
 30
1.06094540229885
 11
0.7399999999999998
 21
-2.0185143678160928
 31
1.06094540229885
 12
1.0199999999999989
 22
-0.3200000000000001
 32
0.9762039045553141
 13
1.020000000000002
 23
-0.3199999999999969
 33
1.060945402298852
  0
3DFACE
  5
3A4D
  8
0
 10
-1.0199999999999989
 20
-0.3199999999999998
 30
1.06094540229885
 11
-0.8791550445704315
 21
1.04
 31
1.06094540229885
 12
-0.8791550445704315
 22
1.04
 32
0.9083514099783073
 13
-1.02
 23
-0.3200000000000001
 33
0.9762039045553141
  0
3DFACE
  5
3A4E
  8
0
 10
1.0199999999999989
 20
-0.3200000000000001
 30
0.9762039045553141
 11
0.8791550445702823
 21
1.04
 31
0.9083514099783073
 12
0.8791550445702822
 22
1.04
 32
1.06094540229885
 13
1.0199999999999989
 23
-0.3200000000000001
 33
1.06094540229885
  0
3DFACE
  5
3A56
  8
0
 10
0.8791550445702822
 20
1.04
 30
0.9083514099783073
 11
0.7400000000000003
 21
2.3836822074215021
 31
0.841313035204566
 12
0.7235821200408472
 22
2.4599999999999991
 32
0.9508386727688789
 13
0.8791550445702822
 23
1.04
 33
1.06094540229885
  0
3DFACE
  5
3A57
  8
0
 10
-0.8791550445704318
 20
1.04
 30
1.06094540229885
 11
-0.723582120040846
 21
2.4599999999999991
 31
0.9508386727688784
 12
-0.7399999999999997
 22
2.3836822074215021
 32
0.841313035204566
 13
-0.8791550445704315
 23
1.04
 33
0.9083514099783073
  0
3DFACE
  5
3A5D
  8
0
 10
0.7000000000000007
 20
1.5716907386857559
 30
1.4408765336292511
 11
0.7199999999999998
 21
1.3
 31
1.4799999999999991
 12
0.7199999999999998
 22
1.3
 32
1.4799999999999991
 13
0.6557283435044552
 23
2.549999999999979
 33
1.300000000000002
  0
3DFACE
  5
3A5F
  8
0
 10
0.7042208525513037
 20
2.5499999999999989
 30
1.0800000000000001
 11
0.6557283435044643
 21
2.5499999999998009
 31
1.300000000000028
 12
0.7235821200408472
 22
2.4599999999999991
 32
0.9508386727688789
 13
0.7235821200408472
 23
2.4599999999999991
 33
0.9508386727688789
  0
3DFACE
  5
3A60
  8
0
 10
-0.723582120040846
 20
2.4599999999999991
 30
0.9508386727688784
 11
-0.723582120040846
 21
2.4599999999999991
 31
0.9508386727688784
 12
-0.6557283435044536
 22
2.5500000000000029
 32
1.2999999999999989
 13
-0.7042208525513015
 23
2.5499999999999998
 33
1.0800000000000001
  0
3DFACE
  5
3A62
  8
0
 10
0.7042208525513037
 20
2.5499999999999989
 30
1.0800000000000001
 11
0.7235821200408434
 21
2.4599999999994622
 31
0.9508386727689057
 12
-0.7235821200409048
 22
2.4599999999994622
 32
0.9508386727689199
 13
-0.7042208525513015
 23
2.5499999999999998
 33
1.0800000000000001
  0
3DFACE
  5
3A64
  8
0
 10
-0.72
 20
1.2999999999999989
 30
1.4799999999999991
 11
-0.6557283435044548
 21
2.5500000000000029
 31
1.2999999999999989
 12
-0.7235821200405952
 22
2.4600000000003321
 32
0.9508386727701683
 13
-0.8791550445704318
 23
1.04
 33
1.06094540229885
  0
3DFACE
  5
3A65
  8
0
 10
0.8791550445702817
 20
1.04
 30
1.06094540229885
 11
0.7235821200409061
 21
2.4599999999994622
 31
0.9508386727689204
 12
0.6557283435043143
 22
2.5499999999999998
 32
1.3000000000008001
 13
0.7199999999999993
 23
1.30000000000001
 33
1.479999999999998
  0
3DFACE
  5
3A69
  8
0
 10
-0.9099999999999999
 20
-0.3200000000000001
 30
1.4799999999999991
 11
-0.72
 21
1.2999999999999989
 31
1.4799999999999991
 12
-0.87915504457043
 22
1.04
 32
1.06094540229885
 13
-1.02
 23
-0.3199999999999996
 33
1.06094540229885
  0
3DFACE
  5
3A6A
  8
0
 10
1.0199999999999989
 20
-0.3200000000000001
 30
1.06094540229885
 11
0.8791550445702822
 21
1.04
 31
1.06094540229885
 12
0.7199999999999993
 22
1.30000000000001
 32
1.479999999999998
 13
0.9099999999999999
 23
-0.3200000000000001
 33
1.4799999999999991
  0
3DFACE
  5
3A6E
  8
0
 10
-0.51
 20
-1.52
 30
1.25
 11
-0.7400000000000003
 21
-1.7214285714285731
 31
1.25
 12
0.7399999999999998
 22
-1.7214285714285751
 32
1.2499999999999989
 13
-0.15
 23
-1.52
 33
1.25
  0
3DFACE
  5
3A6F
  8
0
 10
-0.7400000000000002
 20
-1.7214285714285731
 30
1.25
 11
-0.7400000000000004
 21
-2.0185143678160942
 31
1.06094540229885
 12
-0.0200000000000007
 22
-1.894285714285717
 32
1.1399999999999999
 13
-0.0200000000000007
 23
-1.894285714285717
 33
1.1399999999999999
  0
3DFACE
  5
3A70
  8
0
 10
0.7399999999999998
 20
-2.0185143678160928
 30
1.06094540229885
 11
0.7399999999999998
 21
-1.7214285714285751
 31
1.2499999999999989
 12
0.7399999999999998
 22
-1.7214285714285751
 32
1.2499999999999989
 13
0.5699999999999994
 23
-1.894285714285717
 33
1.1399999999999999
  0
3DFACE
  5
3A78
  8
0
 10
-0.6484096332697292
 20
-1.2199999999999991
 30
1.4799999999999991
 11
-0.51
 21
-1.230434782608695
 31
1.4399999999999991
 12
-0.14
 22
-1.230434782608695
 32
1.4399999999999991
 13
0.6484096332697292
 23
-1.2199999999999991
 33
1.4799999999999991
  0
3DFACE
  5
3A7B
  8
0
 10
-0.9099999999999999
 20
-0.3200000000000001
 30
1.4799999999999991
 11
-1.02
 21
-0.3199999999999996
 31
1.06094540229885
 12
-0.789827656062943
 22
-1.28
 32
1.25
 13
-0.6484096332697292
 23
-1.2199999999999991
 33
1.4799999999999991
  0
3DFACE
  5
3A7C
  8
0
 10
-1.0200000000000009
 20
-0.3199999999999986
 30
1.06094540229885
 11
-0.7400000000000007
 21
-2.0185143678160942
 31
1.06094540229885
 12
-0.7400000000000059
 22
-1.7214285714285731
 32
1.25
 13
-0.789827656062943
 23
-1.28
 33
1.25
  0
3DFACE
  5
3A7D
  8
0
 10
0.6484096332697292
 20
-1.2199999999999991
 30
1.4799999999999991
 11
0.7898276560629427
 21
-1.28
 31
1.25
 12
1.0199999999999989
 22
-0.3200000000000001
 32
1.06094540229885
 13
0.9099999999999999
 23
-0.3200000000000001
 33
1.4799999999999991
  0
3DFACE
  5
3A7E
  8
0
 10
0.7898276560629427
 20
-1.28
 30
1.25
 11
0.7400000000000131
 21
-1.7214285714285691
 31
1.250000000000002
 12
0.7399999999999998
 22
-2.0185143678160942
 32
1.06094540229885
 13
1.020000000000002
 23
-0.3200000000000001
 33
1.0609454022988449
  0
3DFACE
  5
3A89
  8
0
 10
-0.51
 20
-1.230434782608695
 30
1.4399999999999991
 11
-0.51
 21
-1.3400000000000001
 31
1.4399999999999991
 12
-0.14
 22
-1.3
 32
1.4399999999999991
 13
-0.14
 23
-1.230434782608695
 33
1.4399999999999991
  0
3DFACE
  5
3A8D
  8
0
 10
-0.51
 20
-1.3400000000000001
 30
1.4399999999999991
 11
-0.45
 21
-1.3899999999999999
 31
1.4399999999999991
 12
-0.2
 22
-1.3899999999999999
 32
1.4399999999999991
 13
-0.14
 23
-1.3
 33
1.4399999999999991
  0
3DFACE
  5
3A90
  8
0
 10
-0.16
 20
-1.4599999999999991
 30
1.3899999999999999
 11
-0.2
 21
-1.3899999999999999
 31
1.4399999999999991
 12
-0.45
 22
-1.3899999999999999
 32
1.4399999999999991
 13
-0.5
 23
-1.4599999999999991
 33
1.3899999999999999
  0
3DFACE
  5
3A92
  8
0
 10
-0.5
 20
-1.4599999999999991
 30
1.3899999999999999
 11
-0.51
 21
-1.52
 31
1.25
 12
-0.15
 22
-1.52
 32
1.25
 13
-0.1599999999999999
 23
-1.4599999999999991
 33
1.3899999999999999
  0
3DFACE
  5
3A95
  8
0
 10
-0.6000000000000004
 20
-1.2434782608695649
 30
1.389999999999999
 11
-0.6000000000000001
 21
-1.3600000000000001
 31
1.3899999999999999
 12
-0.51
 22
-1.3400000000000001
 32
1.4399999999999991
 13
-0.51
 23
-1.230434782608695
 33
1.4399999999999991
  0
3DFACE
  5
3A97
  8
0
 10
-0.14
 20
-1.230434782608695
 30
1.4399999999999991
 11
-0.14
 21
-1.3
 31
1.4399999999999991
 12
-0.09
 22
-1.3600000000000001
 32
1.3899999999999999
 13
-0.09
 23
-1.2434782608695649
 33
1.3899999999999999
  0
3DFACE
  5
3A9A
  8
0
 10
-0.6
 20
-1.3600000000000001
 30
1.3899999999999999
 11
-0.5
 21
-1.4599999999999991
 31
1.3899999999999999
 12
-0.45
 22
-1.3899999999999999
 32
1.4399999999999991
 13
-0.5099999999999988
 23
-1.339999999999999
 33
1.4399999999999991
  0
3DFACE
  5
3A9B
  8
0
 10
-0.14
 20
-1.3
 30
1.4399999999999991
 11
-0.2
 21
-1.3899999999999999
 31
1.4399999999999991
 12
-0.16
 22
-1.4599999999999991
 32
1.3899999999999999
 13
-0.09
 23
-1.3600000000000001
 33
1.3899999999999999
  0
3DFACE
  5
3A9D
  8
0
 10
-0.6000000000000001
 20
-1.3600000000000001
 30
1.3899999999999999
 11
-0.6000000000000004
 21
-1.2434782608695649
 31
1.389999999999999
 12
-0.6900000000000001
 22
-1.28
 32
1.25
 13
-0.6900000000000001
 23
-1.3799999999999999
 33
1.25
  0
3DFACE
  5
3AA4
  8
0
 10
-0.09
 20
-1.2434782608695649
 30
1.3899999999999999
 11
-0.09
 21
-1.3600000000000001
 31
1.3899999999999999
 12
-0.03
 22
-1.3799999999999999
 32
1.25
 13
-0.03
 23
-1.28
 33
1.25
  0
3DFACE
  5
3AA5
  8
0
 10
-0.6000000000000002
 20
-1.3600000000000001
 30
1.3899999999999999
 11
-0.6900000000000001
 21
-1.3799999999999999
 31
1.25
 12
-0.51
 22
-1.52
 32
1.25
 13
-0.5
 23
-1.4599999999999991
 33
1.3899999999999999
  0
3DFACE
  5
3AA6
  8
0
 10
-0.1599999999999999
 20
-1.4599999999999991
 30
1.3899999999999999
 11
-0.15
 21
-1.52
 31
1.25
 12
-0.03
 22
-1.3799999999999999
 32
1.25
 13
-0.09
 23
-1.3600000000000001
 33
1.3899999999999999
  0
3DFACE
  5
3AA7
  8
0
 10
-0.6900000000000001
 20
-1.3799999999999999
 30
1.25
 11
-0.7400000000000059
 21
-1.721428571428572
 31
1.25
 12
-0.7400000000000003
 22
-1.721428571428574
 32
1.25
 13
-0.51
 23
-1.52
 33
1.25
  0
3DFACE
  5
3AA8
  8
0
 10
-0.69
 20
-1.3799999999999999
 30
1.25
 11
-0.6900000000000001
 21
-1.28
 31
1.25
 12
-0.789827656062943
 22
-1.28
 32
1.25
 13
-0.7400000000000028
 23
-1.7214285714285511
 33
1.25
  0
3DFACE
  5
3AA9
  8
0
 10
-0.15
 20
-1.52
 30
1.25
 11
0.7399999999999998
 21
-1.7214285714285751
 31
1.2499999999999989
 12
0.7399999999999998
 22
-1.7214285714285751
 32
1.2499999999999989
 13
-0.03
 23
-1.3799999999999999
 33
1.25
  0
3DFACE
  5
3AAA
  8
0
 10
-0.03
 20
-1.28
 30
1.25
 11
-0.0300000000000001
 21
-1.3799999999999999
 31
1.25
 12
0.7399999999999725
 22
-1.7214285714285691
 32
1.2499999999999989
 13
0.7898276560629427
 23
-1.28
 33
1.25
  0
3DFACE
  5
3AB7
  8
0
 10
0.6484096332697292
 20
-1.2199999999999991
 30
1.4799999999999991
 11
-0.14
 21
-1.230434782608695
 31
1.4399999999999991
 12
-0.09
 22
-1.2434782608695649
 32
1.3899999999999999
 13
0.6484096332697292
 23
-1.2199999999999991
 33
1.4799999999999991
  0
3DFACE
  5
3AB8
  8
0
 10
0.648409633269729
 20
-1.2199999999999991
 30
1.4799999999999991
 11
-0.09
 21
-1.2434782608695649
 31
1.3899999999999999
 12
-0.0300000000000001
 22
-1.28
 32
1.25
 13
0.7898276560629426
 23
-1.28
 33
1.25
  0
3DFACE
  5
3AB9
  8
0
 10
-0.6484096332697292
 20
-1.2199999999999991
 30
1.4799999999999991
 11
-0.6000000000000008
 21
-1.2434782608695649
 31
1.389999999999999
 12
-0.51
 22
-1.230434782608695
 32
1.4399999999999991
 13
-0.6484096332697292
 23
-1.2199999999999991
 33
1.4799999999999991
  0
3DFACE
  5
3ABA
  8
0
 10
-0.6
 20
-1.2434782608695649
 30
1.3899999999999979
 11
-0.6484096332697292
 21
-1.2199999999999991
 31
1.4799999999999991
 12
-0.789827656062943
 22
-1.28
 32
1.25
 13
-0.6900000000000001
 23
-1.28
 33
1.25
  0
3DFACE
  5
3AD4
  8
0
 10
0.03
 20
-1.3899999999999999
 30
1.25
 11
0.0212132034355964
 21
-1.3687867965644029
 31
1.25
 12
0.0212132034355964
 22
-1.3687867965644029
 32
1.419999999999999
 13
0.03
 23
-1.3899999999999999
 33
1.419999999999999
  0
3DFACE
  5
3AD5
  8
0
 10
0.0212132034355964
 20
-1.3687867965644029
 30
1.25
 11
0.0
 21
-1.3600000000000001
 31
1.25
 12
0.0
 22
-1.3600000000000001
 32
1.419999999999999
 13
0.0212132034355964
 23
-1.3687867965644029
 33
1.419999999999999
  0
3DFACE
  5
3AD6
  8
0
 10
0.0
 20
-1.3600000000000001
 30
1.25
 11
-0.0212132034355964
 21
-1.3687867965644029
 31
1.25
 12
-0.0212132034355964
 22
-1.3687867965644029
 32
1.419999999999999
 13
0.0
 23
-1.3600000000000001
 33
1.419999999999999
  0
3DFACE
  5
3AD7
  8
0
 10
-0.0212132034355964
 20
-1.3687867965644029
 30
1.25
 11
-0.03
 21
-1.3899999999999999
 31
1.25
 12
-0.03
 22
-1.3899999999999999
 32
1.419999999999999
 13
-0.0212132034355964
 23
-1.3687867965644029
 33
1.419999999999999
  0
3DFACE
  5
3AD8
  8
0
 10
-0.03
 20
-1.3899999999999999
 30
1.25
 11
-0.0212132034355964
 21
-1.411213203435596
 31
1.25
 12
-0.0212132034355964
 22
-1.411213203435596
 32
1.4399999999999991
 13
-0.03
 23
-1.3899999999999999
 33
1.4399999999999991
  0
3DFACE
  5
3AD9
  8
0
 10
-0.0212132034355964
 20
-1.411213203435596
 30
1.25
 11
0.0
 21
-1.4199999999999999
 31
1.25
 12
0.0
 22
-1.4199999999999999
 32
1.4399999999999991
 13
-0.0212132034355964
 23
-1.411213203435596
 33
1.4399999999999991
  0
3DFACE
  5
3ADA
  8
0
 10
0.0
 20
-1.4199999999999999
 30
1.25
 11
0.0212132034355964
 21
-1.411213203435596
 31
1.25
 12
0.0212132034355964
 22
-1.411213203435596
 32
1.4399999999999991
 13
0.0
 23
-1.4199999999999999
 33
1.4399999999999991
  0
3DFACE
  5
3ADB
  8
0
 10
0.0212132034355964
 20
-1.411213203435596
 30
1.25
 11
0.03
 21
-1.3899999999999999
 31
1.25
 12
0.03
 22
-1.3899999999999999
 32
1.4399999999999991
 13
0.0212132034355964
 23
-1.411213203435596
 33
1.4399999999999991
  0
3DFACE
  5
3ADD
  8
0
 10
-0.12
 20
-1.2399999999999991
 30
1.419999999999999
 11
-0.03
 21
-1.3899999999999999
 31
1.419999999999999
 12
-0.03
 22
-1.3899999999999999
 32
1.4399999999999991
 13
-0.12
 23
-1.2399999999999991
 33
1.4399999999999991
  0
3DFACE
  5
3ADE
  8
0
 10
0.03
 20
-1.3899999999999999
 30
1.419999999999999
 11
0.12
 21
-1.2399999999999991
 31
1.419999999999999
 12
0.12
 22
-1.2399999999999991
 32
1.4399999999999991
 13
0.03
 23
-1.3899999999999999
 33
1.4399999999999991
  0
3DFACE
  5
3AE4
  8
0
 10
0.12
 20
-1.2399999999999991
 30
1.419999999999999
 11
0.1199999999999999
 21
-1.2356521739130431
 31
1.419999999999999
 12
0.12
 22
-1.230434782608695
 32
1.4399999999999991
 13
0.12
 23
-1.2399999999999991
 33
1.4399999999999991
  0
3DFACE
  5
3AE5
  8
0
 10
-0.12
 20
-1.2356521739130431
 30
1.419999999999999
 11
-0.12
 21
-1.2399999999999991
 31
1.419999999999999
 12
-0.12
 22
-1.2399999999999991
 32
1.4399999999999991
 13
-0.12
 23
-1.230434782608695
 33
1.4399999999999991
  0
3DFACE
  5
3AE6
  8
0
 10
0.12
 20
-1.2399999999999991
 30
1.4399999999999991
 11
0.12
 21
-1.230434782608695
 31
1.4399999999999991
 12
-0.12
 22
-1.230434782608695
 32
1.4399999999999991
 13
-0.12
 23
-1.2399999999999991
 33
1.4399999999999991
  0
3DFACE
  5
3AE7
  8
0
 10
0.03
 20
-1.3899999999999999
 30
1.4399999999999991
 11
0.12
 21
-1.2399999999999991
 31
1.4399999999999991
 12
-0.12
 22
-1.2399999999999991
 32
1.4399999999999991
 13
-0.03
 23
-1.3899999999999999
 33
1.4399999999999991
  0
3DFACE
  5
3AE8
  8
0
 10
0.0212132034355964
 20
-1.411213203435596
 30
1.4399999999999991
 11
0.03
 21
-1.3899999999999999
 31
1.4399999999999991
 12
-0.03
 22
-1.3899999999999999
 32
1.4399999999999991
 13
-0.0212132034355964
 23
-1.411213203435596
 33
1.4399999999999991
  0
3DFACE
  5
3AE9
  8
0
 10
0.0
 20
-1.4199999999999999
 30
1.4399999999999991
 11
0.0212132034355964
 21
-1.411213203435596
 31
1.4399999999999991
 12
-0.0212132034355964
 22
-1.411213203435596
 32
1.4399999999999991
 13
0.0
 23
-1.4199999999999999
 33
1.4399999999999991
  0
3DFACE
  5
3B04
  8
0
 10
0.01
 20
-1.3899999999999999
 30
1.4399999999999991
 11
0.0
 21
-1.3799999999999999
 31
1.4399999999999991
 12
0.0
 22
-1.3899999999999999
 32
3.4399999999999991
 13
0.0
 23
-1.3899999999999999
 33
3.4399999999999991
  0
3DFACE
  5
3B05
  8
0
 10
0.0
 20
-1.3799999999999999
 30
1.4399999999999991
 11
-0.01
 21
-1.3899999999999999
 31
1.4399999999999991
 12
0.0
 22
-1.3899999999999999
 32
3.4399999999999991
 13
0.0
 23
-1.3899999999999999
 33
3.4399999999999991
  0
3DFACE
  5
3B06
  8
0
 10
-0.01
 20
-1.3899999999999999
 30
1.4399999999999991
 11
0.0
 21
-1.3999999999999999
 31
1.4399999999999991
 12
0.0
 22
-1.3899999999999999
 32
3.4399999999999991
 13
0.0
 23
-1.3899999999999999
 33
3.4399999999999991
  0
3DFACE
  5
3B07
  8
0
 10
0.0
 20
-1.3999999999999999
 30
1.4399999999999991
 11
0.01
 21
-1.3899999999999999
 31
1.4399999999999991
 12
0.0
 22
-1.3899999999999999
 32
3.4399999999999991
 13
0.0
 23
-1.3899999999999999
 33
3.4399999999999991
  0
3DFACE
  5
3B0A
  8
0
 10
0.6484096332697292
 20
-1.2199999999999991
 30
1.4799999999999991
 11
0.6
 21
-1.01
 31
1.8700000000000001
 12
-0.6
 22
-1.01
 32
1.8700000000000001
 13
-0.6484096332697292
 23
-1.2199999999999991
 33
1.4799999999999991
  0
3DFACE
  5
3B12
  8
0
 10
-0.6484096332697292
 20
-1.2199999999999991
 30
1.4799999999999991
 11
-0.6000000000000001
 21
-1.01
 31
1.8700000000000001
 12
-0.7400000000000001
 22
-0.3200000000000001
 32
1.8400000000000001
 13
-0.9099999999999999
 23
-0.3200000000000001
 33
1.4799999999999991
  0
3DFACE
  5
3B13
  8
0
 10
0.9099999999999999
 20
-0.3200000000000001
 30
1.4799999999999991
 11
0.7400000000000001
 21
-0.3200000000000001
 31
1.8400000000000001
 12
0.6000000000000001
 22
-1.01
 32
1.8700000000000001
 13
0.6484096332697285
 23
-1.2199999999999991
 33
1.48
  0
3DFACE
  5
3B15
  8
0
 10
0.5746296296296294
 20
1.0900000000000001
 30
1.8400000000000001
 11
0.72
 21
1.3
 31
1.4799999999999991
 12
0.3600000000000001
 22
1.2999999999999989
 32
1.4799999999999991
 13
0.3599999999999999
 23
1.0900000000000001
 33
1.8400000000000001
  0
3DFACE
  5
3B19
  8
0
 10
-0.9099999999999999
 20
-0.3200000000000001
 30
1.4799999999999991
 11
-0.7400000000000001
 21
-0.3200000000000001
 31
1.8400000000000001
 12
-0.5746296296296296
 22
1.0900000000000001
 32
1.8400000000000001
 13
-0.72
 23
1.2999999999999989
 33
1.4799999999999991
  0
3DFACE
  5
3B1A
  8
0
 10
0.7200000000000003
 20
1.3
 30
1.479999999999998
 11
0.5746296296296294
 21
1.0900000000000001
 31
1.8400000000000001
 12
0.7400000000000002
 22
-0.3200000000000001
 32
1.8400000000000001
 13
0.9099999999999999
 23
-0.3200000000000001
 33
1.4799999999999991
  0
3DFACE
  5
3B1F
  8
0
 10
-0.3600000000000001
 20
1.0900000000000001
 30
1.8400000000000001
 11
-0.36
 21
1.2999999999999989
 31
1.4799999999999991
 12
-0.72
 22
1.2999999999999989
 32
1.4799999999999991
 13
-0.5746296296296296
 23
1.0900000000000001
 33
1.8400000000000001
  0
3DFACE
  5
3B29
  8
0
 10
-0.3600000000000001
 20
0.8
 30
1.8400000000000001
 11
-0.3600000000000001
 21
1.0900000000000001
 31
1.8400000000000001
 12
-0.5746296296296296
 22
1.0900000000000001
 32
1.8400000000000001
 13
-0.6020000000000002
 23
0.8
 33
1.8400000000000001
  0
3DFACE
  5
3B2A
  8
0
 10
0.6020000000000002
 20
0.8
 30
1.8400000000000001
 11
0.5746296296296294
 21
1.0900000000000001
 31
1.8400000000000001
 12
0.3599999999999999
 22
1.0900000000000001
 32
1.8400000000000001
 13
0.3599999999999999
 23
0.8
 33
1.8400000000000001
  0
3DFACE
  5
3B2B
  8
0
 10
-0.6020000000000002
 20
0.8
 30
1.8400000000000001
 11
-0.5746296296296296
 21
1.0900000000000001
 31
1.8400000000000001
 12
-0.7400000000000001
 22
-0.3200000000000001
 32
1.8400000000000001
 13
-0.73
 23
-0.3200000000000001
 33
1.8400000000000001
  0
3DFACE
  5
3B2C
  8
0
 10
-0.73
 20
-0.3200000000000001
 30
1.8400000000000001
 11
-0.7400000000000001
 21
-0.3200000000000001
 31
1.8400000000000001
 12
-0.6
 22
-1.01
 32
1.8700000000000001
 13
-0.6285507246376811
 23
-0.8200000000000001
 33
1.8617391304347819
  0
3DFACE
  5
3B2D
  8
0
 10
0.73
 20
-0.3200000000000001
 30
1.8400000000000001
 11
0.7400000000000002
 21
-0.3199999999999998
 31
1.8400000000000001
 12
0.5746296296296294
 22
1.0900000000000001
 32
1.8400000000000001
 13
0.6020000000000002
 23
0.8
 33
1.8400000000000001
  0
3DFACE
  5
3B2E
  8
0
 10
0.6285507246376813
 20
-0.8200000000000004
 30
1.8617391304347819
 11
0.6
 21
-1.0099999999999989
 31
1.8700000000000001
 12
0.7400000000000002
 22
-0.3200000000000001
 32
1.8400000000000001
 13
0.73
 23
-0.3200000000000001
 33
1.8400000000000001
  0
3DFACE
  5
3B2F
  8
0
 10
-0.6285507246376811
 20
-0.8200000000000001
 30
1.8617391304347819
 11
-0.5999999999999998
 21
-1.01
 31
1.8700000000000001
 12
0.6
 22
-1.01
 32
1.8700000000000001
 13
0.6285507246376813
 23
-0.8200000000000004
 33
1.8617391304347819
  0
LINE
  5
3B3B
  8
0
 10
0.6
 20
-1.01
 30
1.8700000000000001
 11
0.7400000000000002
 21
-0.3200000000000001
 31
1.8400000000000001
210
-1.0
220
0.0
230
0.0
  0
3DFACE
  5
3B91
  8
0
 10
-0.0200000000000003
 20
-1.9099999999999999
 30
1.1399999999999999
 11
-0.0200000000000003
 21
-2.29
 31
0.9
 12
0.1799999999999987
 22
-2.29
 32
0.9
 13
0.1799999999999998
 23
-1.9099999999999999
 33
1.1399999999999999
  0
3DFACE
  5
3B92
  8
0
 10
-0.0200000000000007
 20
-1.894285714285717
 30
1.1399999999999999
 11
-0.0200000000000003
 21
-2.28714285714286
 31
0.89
 12
-0.0200000000000003
 22
-2.29
 32
0.9
 13
-0.0200000000000003
 23
-1.9099999999999999
 33
1.1399999999999999
  0
3DFACE
  5
3B93
  8
0
 10
0.1799999999999987
 20
-2.29
 30
0.9
 11
0.1799999999999997
 21
-2.28714285714286
 31
0.89
 12
0.1799999999999994
 22
-1.894285714285717
 32
1.1399999999999999
 13
0.1799999999999998
 23
-1.9099999999999999
 33
1.1399999999999999
  0
3DFACE
  5
3B94
  8
0
 10
-0.0200000000000003
 20
-2.29
 30
0.9
 11
-0.0200000000000003
 21
-2.28714285714286
 31
0.89
 12
0.1799999999999997
 22
-2.28714285714286
 32
0.89
 13
0.1799999999999987
 23
-2.29
 33
0.9
  0
3DFACE
  5
3B95
  8
0
 10
-0.0200000000000007
 20
-1.894285714285717
 30
1.1399999999999999
 11
-0.0200000000000003
 21
-1.9099999999999999
 31
1.1399999999999999
 12
0.1799999999999988
 22
-1.9099999999999999
 32
1.1399999999999999
 13
0.1799999999999994
 23
-1.894285714285717
 33
1.1399999999999999
  0
3DFACE
  5
3B96
  8
0
 10
0.1799999999999997
 20
-2.28714285714286
 30
0.89
 11
-0.7400000000000152
 21
-2.350000000000001
 31
0.8500000000000008
 12
-0.7400000000000152
 22
-2.350000000000001
 32
0.8500000000000008
 13
0.3699999999999997
 23
-2.28714285714286
 33
0.89
  0
3DFACE
  5
3B97
  8
0
 10
-0.0200000000000003
 20
-2.28714285714286
 30
0.89
 11
-0.7400000000000152
 21
-2.350000000000001
 31
0.8500000000000008
 12
-0.7400000000000152
 22
-2.350000000000001
 32
0.8500000000000008
 13
0.1799999999999997
 23
-2.28714285714286
 33
0.89
  0
3DFACE
  5
3B98
  8
0
 10
-0.7400000000000003
 20
-1.721428571428574
 30
1.25
 11
-0.0200000000000007
 21
-1.894285714285715
 31
1.1399999999999999
 12
0.1799999999999994
 22
-1.894285714285717
 32
1.1399999999999999
 13
0.1799999999999994
 23
-1.894285714285717
 33
1.1399999999999999
  0
3DFACE
  5
3B99
  8
0
 10
-0.7399999999999993
 20
-1.7214285714285731
 30
1.25
 11
0.1800000000000068
 21
-1.894285714285717
 31
1.139999999999999
 12
0.3699999999999957
 22
-1.894285714285719
 32
1.139999999999999
 13
0.3699999999999957
 23
-1.894285714285719
 33
1.139999999999999
  0
3DFACE
  5
3B9A
  8
0
 10
0.1800000000000068
 20
-1.894285714285717
 30
1.139999999999999
 11
0.1799999999999997
 21
-2.28714285714286
 31
0.89
 12
0.3699999999999997
 22
-2.28714285714286
 32
0.89
 13
0.3700000000000107
 23
-1.894285714285719
 33
1.139999999999999
  0
3DFACE
  5
3B9E
  8
0
 62
     0
 10
1.02
 20
1.5900000000000001
 30
1.1299999999999999
 11
1.02
 21
2.399999999999999
 31
1.0800000000000001
 12
0.6900000000000001
 22
2.399999999999999
 32
1.0800000000000001
 13
0.7700000000000001
 23
1.5900000000000001
 33
1.1299999999999999
  0
3DFACE
  5
3B9F
  8
0
 10
1.0200000000000029
 20
1.5701521043989271
 30
0.8819013049866038
 11
1.02
 21
1.5900000000000001
 31
1.1299999999999999
 12
0.8198709178593979
 22
1.581118965167539
 32
1.0189870645942429
 13
0.824251184632871
 23
1.5701521043989271
 33
0.8819013049866036
  0
3DFACE
  5
3BA0
  8
0
 10
1.02
 20
2.399999999999999
 30
1.0800000000000001
 11
1.020000000000004
 21
2.380916083311726
 31
0.841451041396594
 12
0.7402864666374663
 22
2.380916083311726
 32
0.841451041396594
 13
0.7312401761141736
 23
2.3901006929257411
 33
0.9562586615717673
  0
3DFACE
  5
3BA6
  8
0
 10
-0.8242511846329612
 20
1.5701521043989271
 30
0.8819013049866036
 11
-0.8198709178594082
 21
1.581118965167539
 31
1.0189870645942429
 12
-1.02
 22
1.5900000000000001
 32
1.1299999999999999
 13
-1.019999999999996
 23
1.5701521043989271
 33
0.8819013049866038
  0
3DFACE
  5
3BA7
  8
0
 10
-0.7900000000000002
 20
1.5900000000000001
 30
1.1299999999999999
 11
-0.7000000000000001
 21
2.399999999999999
 31
1.0800000000000001
 12
-1.02
 22
2.399999999999999
 32
1.0800000000000001
 13
-1.02
 23
1.5900000000000001
 33
1.1299999999999999
  0
3DFACE
  5
3BA8
  8
0
 10
-0.731240176113976
 20
2.3901006929257411
 30
0.9562586615717673
 11
-0.7402864666374658
 21
2.3809160833117269
 31
0.841451041396594
 12
-1.0199999999999949
 22
2.3809160833117269
 32
0.841451041396594
 13
-1.02
 23
2.399999999999999
 33
1.0800000000000001
  0
3DFACE
  5
3BAC
  8
0
 10
1.02
 20
2.399999999999999
 30
1.0800000000000001
 11
1.02
 21
2.399999999999999
 31
1.0800000000000001
 12
0.7312401761141736
 22
2.3901006929257411
 32
0.9562586615717673
 13
0.6900000000000001
 23
2.399999999999999
 33
1.0800000000000001
  0
3DFACE
  5
3BAD
  8
0
 10
1.02
 20
1.5900000000000001
 30
1.1299999999999999
 11
1.02
 21
1.5900000000000001
 31
1.1299999999999999
 12
0.7700000000000001
 22
1.5900000000000001
 32
1.1299999999999999
 13
0.819870917859402
 23
1.5811189651674999
 33
1.018987064593754
  0
3DFACE
  5
3BAE
  8
0
 10
-0.6999999999995286
 20
2.4000000000000972
 30
1.0800000000012211
 11
-0.7312401761144475
 21
2.390100692925643
 31
0.9562586615705463
 12
-1.02
 22
2.399999999999999
 32
1.0800000000000001
 13
-1.02
 23
2.399999999999999
 33
1.0800000000000001
  0
3DFACE
  5
3BAF
  8
0
 10
-0.8198709178592679
 20
1.5811189651674999
 30
1.018987064593754
 11
-0.7900000000001404
 21
1.5900000000000389
 31
1.1300000000004891
 12
-1.02
 22
1.5900000000000001
 32
1.1299999999999999
 13
-1.02
 23
1.5900000000000001
 33
1.1299999999999999
  0
3DFACE
  5
3BBA
  8
0
 10
-1.02
 20
1.5900000000000001
 30
1.1299999999999999
 11
-1.02000000000001
 21
2.3999999999999022
 31
1.079999999998779
 12
-1.0199999999999949
 22
2.3809160833117269
 32
0.841451041396594
 13
-1.019999999999996
 23
1.5701521043989271
 33
0.8819013049866038
  0
3DFACE
  5
3BBB
  8
0
 62
     0
 10
1.0200000000000029
 20
1.5701521043989271
 30
0.8819013049866038
 11
1.020000000000004
 21
2.380916083311726
 31
0.841451041396594
 12
1.02
 22
2.399999999999999
 32
1.0800000000000001
 13
1.02
 23
1.5900000000000001
 33
1.1299999999999999
  0
3DFACE
  5
3C4D
  8
0
 10
0.8699999999999999
 20
-1.8600000000000001
 30
1.0800000000000001
 11
0.8599999999999999
 21
-1.8500000000000001
 31
1.0900000000000001
 12
0.8599999999999999
 22
-1.8500000000000001
 32
1.1626794919243111
 13
0.8699999999999999
 23
-1.8600000000000001
 33
1.16414213562373
  0
3DFACE
  5
3C4E
  8
0
 10
0.8599999999999999
 20
-1.8500000000000001
 30
1.0900000000000001
 11
0.85
 21
-1.8600000000000001
 31
1.1000000000000001
 12
0.85
 22
-1.8600000000000001
 32
1.16414213562373
 13
0.8599999999999999
 23
-1.8500000000000001
 33
1.1626794919243111
  0
3DFACE
  5
3C4F
  8
0
 10
0.85
 20
-1.8600000000000001
 30
1.1000000000000001
 11
0.8599999999999999
 21
-1.8700000000000001
 31
1.0900000000000001
 12
0.8599999999999999
 22
-1.8700000000000001
 32
1.159999999999999
 13
0.85
 23
-1.8600000000000001
 33
1.16414213562373
  0
3DFACE
  5
3C50
  8
0
 10
0.8599999999999999
 20
-1.8700000000000001
 30
1.0900000000000001
 11
0.8699999999999999
 21
-1.8600000000000001
 31
1.0800000000000001
 12
0.8699999999999999
 22
-1.8600000000000001
 32
1.16414213562373
 13
0.8599999999999999
 23
-1.8700000000000001
 33
1.159999999999999
  0
3DFACE
  5
3C51
  8
0
 10
0.85
 20
-1.8600000000000001
 30
1.1000000000000001
 11
0.8599999999999999
 21
-1.8500000000000001
 31
1.0900000000000001
 12
0.75
 22
-1.8500000000000001
 32
1.0900000000000001
 13
0.75
 23
-1.8600000000000001
 33
1.1000000000000001
  0
3DFACE
  5
3C52
  8
0
 10
0.8599999999999999
 20
-1.8500000000000001
 30
1.0900000000000001
 11
0.8700000000000001
 21
-1.8600000000000001
 31
1.0800000000000001
 12
0.75
 22
-1.8600000000000001
 32
1.0800000000000001
 13
0.75
 23
-1.8500000000000001
 33
1.0900000000000001
  0
3DFACE
  5
3C53
  8
0
 10
0.8700000000000001
 20
-1.8600000000000001
 30
1.0800000000000001
 11
0.8599999999999999
 21
-1.8700000000000001
 31
1.0900000000000001
 12
0.75
 22
-1.8700000000000001
 32
1.0900000000000001
 13
0.75
 23
-1.8600000000000001
 33
1.0800000000000001
  0
3DFACE
  5
3C54
  8
0
 10
0.8599999999999999
 20
-1.8700000000000001
 30
1.0900000000000001
 11
0.85
 21
-1.8600000000000001
 31
1.1000000000000001
 12
0.75
 22
-1.8600000000000001
 32
1.1000000000000001
 13
0.75
 23
-1.8700000000000001
 33
1.0900000000000001
  0
3DFACE
  5
3C55
  8
0
 10
0.8599999999999999
 20
-1.79
 30
1.2299999999999991
 11
0.825
 21
-1.7993782217350891
 31
1.2299999999999991
 12
0.8352512626584708
 22
-1.7993782217350891
 32
1.2547487373415289
 13
0.8599999999999999
 23
-1.79
 33
1.2299999999999991
  0
3DFACE
  5
3C56
  8
0
 10
0.825
 20
-1.7993782217350891
 30
1.2299999999999991
 11
0.7993782217350893
 21
-1.825
 31
1.2299999999999991
 12
0.8171339295012943
 22
-1.825
 32
1.2728660704987049
 13
0.8352512626584708
 23
-1.7993782217350891
 33
1.2547487373415289
  0
3DFACE
  5
3C57
  8
0
 10
0.7993782217350893
 20
-1.825
 30
1.2299999999999991
 11
0.7900000000000002
 21
-1.8600000000000001
 31
1.2299999999999991
 12
0.8105025253169417
 22
-1.8600000000000001
 32
1.2794974746830581
 13
0.8171339295012943
 23
-1.825
 33
1.2728660704987049
  0
3DFACE
  5
3C58
  8
0
 10
0.8599999999999999
 20
-1.79
 30
1.2299999999999991
 11
0.8352512626584708
 21
-1.7993782217350891
 31
1.2547487373415289
 12
0.8599999999999999
 22
-1.7993782217350891
 32
1.264999999999999
 13
0.8599999999999999
 23
-1.79
 33
1.2299999999999991
  0
3DFACE
  5
3C59
  8
0
 10
0.8352512626584708
 20
-1.7993782217350891
 30
1.2547487373415289
 11
0.8171339295012943
 21
-1.825
 31
1.2728660704987049
 12
0.8599999999999999
 22
-1.825
 32
1.2906217782649101
 13
0.8599999999999999
 23
-1.7993782217350891
 33
1.264999999999999
  0
3DFACE
  5
3C5A
  8
0
 10
0.8171339295012943
 20
-1.825
 30
1.2728660704987049
 11
0.8105025253169417
 21
-1.8600000000000001
 31
1.2794974746830581
 12
0.8599999999999999
 22
-1.8600000000000001
 32
1.2999999999999989
 13
0.8599999999999999
 23
-1.825
 33
1.2906217782649101
  0
3DFACE
  5
3C5B
  8
0
 10
0.8599999999999999
 20
-1.79
 30
1.2299999999999991
 11
0.8599999999999999
 21
-1.7993782217350891
 31
1.264999999999999
 12
0.884748737341529
 22
-1.7993782217350891
 32
1.2547487373415289
 13
0.8599999999999999
 23
-1.79
 33
1.2299999999999991
  0
3DFACE
  5
3C5C
  8
0
 10
0.8599999999999999
 20
-1.7993782217350891
 30
1.264999999999999
 11
0.8599999999999999
 21
-1.825
 31
1.2906217782649101
 12
0.9028660704987055
 22
-1.825
 32
1.2728660704987049
 13
0.884748737341529
 23
-1.7993782217350891
 33
1.2547487373415289
  0
3DFACE
  5
3C5D
  8
0
 10
0.8599999999999999
 20
-1.825
 30
1.2906217782649101
 11
0.8599999999999999
 21
-1.8600000000000001
 31
1.2999999999999989
 12
0.9094974746830583
 22
-1.8600000000000001
 32
1.2794974746830581
 13
0.9028660704987055
 23
-1.825
 33
1.2728660704987049
  0
3DFACE
  5
3C5E
  8
0
 10
0.8599999999999999
 20
-1.79
 30
1.2299999999999991
 11
0.884748737341529
 21
-1.7993782217350891
 31
1.2547487373415289
 12
0.8949999999999999
 22
-1.7993782217350891
 32
1.2299999999999991
 13
0.8599999999999999
 23
-1.79
 33
1.2299999999999991
  0
3DFACE
  5
3C5F
  8
0
 10
0.884748737341529
 20
-1.7993782217350891
 30
1.2547487373415289
 11
0.9028660704987055
 21
-1.825
 31
1.2728660704987049
 12
0.9206217782649107
 22
-1.825
 32
1.2299999999999991
 13
0.8949999999999999
 23
-1.7993782217350891
 33
1.2299999999999991
  0
3DFACE
  5
3C60
  8
0
 10
0.9028660704987055
 20
-1.825
 30
1.2728660704987049
 11
0.9094974746830583
 21
-1.8600000000000001
 31
1.2794974746830581
 12
0.9299999999999998
 22
-1.8600000000000001
 32
1.2299999999999991
 13
0.9206217782649107
 23
-1.825
 33
1.2299999999999991
  0
3DFACE
  5
3C61
  8
0
 10
0.8599999999999999
 20
-1.79
 30
1.2299999999999991
 11
0.8949999999999999
 21
-1.7993782217350891
 31
1.2299999999999991
 12
0.884748737341529
 22
-1.7993782217350891
 32
1.2052512626584699
 13
0.8599999999999999
 23
-1.79
 33
1.2299999999999991
  0
3DFACE
  5
3C62
  8
0
 10
0.8949999999999999
 20
-1.7993782217350891
 30
1.2299999999999991
 11
0.9206217782649107
 21
-1.825
 31
1.2299999999999991
 12
0.9028660704987055
 22
-1.825
 32
1.1871339295012939
 13
0.884748737341529
 23
-1.7993782217350891
 33
1.2052512626584699
  0
3DFACE
  5
3C63
  8
0
 10
0.9206217782649107
 20
-1.825
 30
1.2299999999999991
 11
0.9299999999999998
 21
-1.8600000000000001
 31
1.2299999999999991
 12
0.9094974746830583
 22
-1.8600000000000001
 32
1.180502525316941
 13
0.9028660704987055
 23
-1.825
 33
1.1871339295012939
  0
3DFACE
  5
3C64
  8
0
 10
0.8599999999999999
 20
-1.79
 30
1.2299999999999991
 11
0.884748737341529
 21
-1.7993782217350891
 31
1.2052512626584699
 12
0.8599999999999999
 22
-1.7993782217350891
 32
1.1950000000000001
 13
0.8599999999999999
 23
-1.79
 33
1.2299999999999991
  0
3DFACE
  5
3C65
  8
0
 10
0.884748737341529
 20
-1.7993782217350891
 30
1.2052512626584699
 11
0.9028660704987055
 21
-1.825
 31
1.1871339295012939
 12
0.8599999999999999
 22
-1.825
 32
1.169378221735089
 13
0.8599999999999999
 23
-1.7993782217350891
 33
1.1950000000000001
  0
3DFACE
  5
3C66
  8
0
 10
0.9028660704987055
 20
-1.825
 30
1.1871339295012939
 11
0.9094974746830583
 21
-1.8600000000000001
 31
1.180502525316941
 12
0.8599999999999999
 22
-1.8600000000000001
 32
1.159999999999999
 13
0.8599999999999999
 23
-1.825
 33
1.169378221735089
  0
3DFACE
  5
3C67
  8
0
 10
0.8599999999999999
 20
-1.79
 30
1.2299999999999991
 11
0.8599999999999999
 21
-1.7993782217350891
 31
1.1950000000000001
 12
0.8352512626584708
 22
-1.7993782217350891
 32
1.2052512626584699
 13
0.8599999999999999
 23
-1.79
 33
1.2299999999999991
  0
3DFACE
  5
3C68
  8
0
 10
0.8599999999999999
 20
-1.7993782217350891
 30
1.1950000000000001
 11
0.8599999999999999
 21
-1.825
 31
1.169378221735089
 12
0.8171339295012943
 22
-1.825
 32
1.1871339295012939
 13
0.8352512626584708
 23
-1.7993782217350891
 33
1.2052512626584699
  0
3DFACE
  5
3C69
  8
0
 10
0.8599999999999999
 20
-1.825
 30
1.169378221735089
 11
0.8599999999999999
 21
-1.8600000000000001
 31
1.159999999999999
 12
0.8105025253169417
 22
-1.8600000000000001
 32
1.180502525316941
 13
0.8171339295012943
 23
-1.825
 33
1.1871339295012939
  0
3DFACE
  5
3C6A
  8
0
 10
0.8599999999999999
 20
-1.79
 30
1.2299999999999991
 11
0.8352512626584708
 21
-1.7993782217350891
 31
1.2052512626584699
 12
0.825
 22
-1.7993782217350891
 32
1.2299999999999991
 13
0.8599999999999999
 23
-1.79
 33
1.2299999999999991
  0
3DFACE
  5
3C6B
  8
0
 10
0.8352512626584708
 20
-1.7993782217350891
 30
1.2052512626584699
 11
0.8171339295012943
 21
-1.825
 31
1.1871339295012939
 12
0.7993782217350893
 22
-1.825
 32
1.2299999999999991
 13
0.825
 23
-1.7993782217350891
 33
1.2299999999999991
  0
3DFACE
  5
3C6C
  8
0
 10
0.8171339295012943
 20
-1.825
 30
1.1871339295012939
 11
0.8105025253169417
 21
-1.8600000000000001
 31
1.180502525316941
 12
0.7900000000000002
 22
-1.8600000000000001
 32
1.2299999999999991
 13
0.7993782217350893
 23
-1.825
 33
1.2299999999999991
  0
3DFACE
  5
3C6D
  8
0
 10
0.9299999999999998
 20
-1.8600000000000001
 30
1.2299999999999991
 11
0.9094974746830583
 21
-1.8600000000000001
 31
1.2794974746830581
 12
0.9094974746830583
 22
-1.8799999999999999
 32
1.2794974746830581
 13
0.9299999999999998
 23
-1.8799999999999999
 33
1.2299999999999991
  0
3DFACE
  5
3C6E
  8
0
 10
0.9094974746830583
 20
-1.8600000000000001
 30
1.2794974746830581
 11
0.8599999999999999
 21
-1.8600000000000001
 31
1.3
 12
0.8599999999999999
 22
-1.8799999999999999
 32
1.3
 13
0.9094974746830583
 23
-1.8799999999999999
 33
1.2794974746830581
  0
3DFACE
  5
3C6F
  8
0
 10
0.8599999999999999
 20
-1.8600000000000001
 30
1.3
 11
0.8105025253169417
 21
-1.8600000000000001
 31
1.2794974746830581
 12
0.8105025253169417
 22
-1.8799999999999999
 32
1.2794974746830581
 13
0.8599999999999999
 23
-1.8799999999999999
 33
1.3
  0
3DFACE
  5
3C70
  8
0
 10
0.8105025253169417
 20
-1.8600000000000001
 30
1.2794974746830581
 11
0.7900000000000002
 21
-1.8600000000000001
 31
1.2299999999999991
 12
0.7900000000000002
 22
-1.8799999999999999
 32
1.2299999999999991
 13
0.8105025253169417
 23
-1.8799999999999999
 33
1.2794974746830581
  0
3DFACE
  5
3C71
  8
0
 10
0.7900000000000002
 20
-1.8600000000000001
 30
1.2299999999999991
 11
0.8105025253169417
 21
-1.8600000000000001
 31
1.180502525316941
 12
0.8105025253169417
 22
-1.8799999999999999
 32
1.180502525316941
 13
0.7900000000000002
 23
-1.8799999999999999
 33
1.2299999999999991
  0
3DFACE
  5
3C72
  8
0
 10
0.8105025253169417
 20
-1.8600000000000001
 30
1.180502525316941
 11
0.8599999999999999
 21
-1.8600000000000001
 31
1.159999999999999
 12
0.8599999999999999
 22
-1.8799999999999999
 32
1.159999999999999
 13
0.8105025253169417
 23
-1.8799999999999999
 33
1.180502525316941
  0
3DFACE
  5
3C73
  8
0
 10
0.8599999999999999
 20
-1.8600000000000001
 30
1.159999999999999
 11
0.9094974746830583
 21
-1.8600000000000001
 31
1.180502525316941
 12
0.9094974746830583
 22
-1.8799999999999999
 32
1.180502525316941
 13
0.8599999999999999
 23
-1.8799999999999999
 33
1.159999999999999
  0
3DFACE
  5
3C74
  8
0
 10
0.9094974746830583
 20
-1.8600000000000001
 30
1.180502525316941
 11
0.9299999999999998
 21
-1.8600000000000001
 31
1.2299999999999991
 12
0.9299999999999998
 22
-1.8799999999999999
 32
1.2299999999999991
 13
0.9094974746830583
 23
-1.8799999999999999
 33
1.180502525316941
  0
3DFACE
  5
3C75
  8
0
 10
0.8600000000000001
 20
-1.8799999999999999
 30
1.1599999999999999
 11
0.9094974746830583
 21
-1.8799999999999999
 31
1.180502525316941
 12
0.9299999999999998
 22
-1.8799999999999999
 32
1.2299999999999991
 13
0.8105025253169417
 23
-1.8799999999999999
 33
1.180502525316941
  0
3DFACE
  5
3C76
  8
0
 10
0.8105025253169417
 20
-1.8799999999999999
 30
1.180502525316941
 11
0.9300000000000001
 21
-1.8799999999999999
 31
1.23
 12
0.9094974746830583
 22
-1.8799999999999999
 32
1.2794974746830581
 13
0.7900000000000002
 23
-1.8799999999999999
 33
1.2299999999999991
  0
3DFACE
  5
3C77
  8
0
 10
0.7899999999999999
 20
-1.8799999999999999
 30
1.2299999999999991
 11
0.9094974746830581
 21
-1.8799999999999999
 31
1.2794974746830581
 12
0.8599999999999999
 22
-1.8799999999999999
 32
1.3
 13
0.8105025253169417
 23
-1.8799999999999999
 33
1.2794974746830581
  0
3DFACE
  5
3C78
  8
0
 10
-0.8699999999999999
 20
-1.8600000000000001
 30
1.0800000000000001
 11
-0.8599999999999999
 21
-1.8700000000000001
 31
1.0900000000000001
 12
-0.8599999999999999
 22
-1.8700000000000001
 32
1.1626794919243111
 13
-0.8699999999999999
 23
-1.8600000000000001
 33
1.16414213562373
  0
3DFACE
  5
3C79
  8
0
 10
-0.8599999999999999
 20
-1.8500000000000001
 30
1.0900000000000001
 11
-0.8699999999999999
 21
-1.8600000000000001
 31
1.0800000000000001
 12
-0.8699999999999999
 22
-1.8600000000000001
 32
1.16414213562373
 13
-0.8599999999999999
 23
-1.8500000000000001
 33
1.159999999999999
  0
3DFACE
  5
3C7A
  8
0
 10
-0.8599999999999999
 20
-1.8700000000000001
 30
1.0900000000000001
 11
-0.85
 21
-1.8600000000000001
 31
1.1000000000000001
 12
-0.85
 22
-1.8600000000000001
 32
1.16414213562373
 13
-0.8599999999999999
 23
-1.8700000000000001
 33
1.1626794919243111
  0
3DFACE
  5
3C7B
  8
0
 10
-0.85
 20
-1.8600000000000001
 30
1.1000000000000001
 11
-0.8599999999999999
 21
-1.8500000000000001
 31
1.0900000000000001
 12
-0.8599999999999999
 22
-1.8500000000000001
 32
1.159999999999999
 13
-0.85
 23
-1.8600000000000001
 33
1.16414213562373
  0
3DFACE
  5
3C7C
  8
0
 10
-0.8599999999999999
 20
-1.8500000000000001
 30
1.0900000000000001
 11
-0.85
 21
-1.8600000000000001
 31
1.1000000000000001
 12
-0.75
 22
-1.8600000000000001
 32
1.1000000000000001
 13
-0.75
 23
-1.8500000000000001
 33
1.0900000000000001
  0
3DFACE
  5
3C7D
  8
0
 10
-0.8700000000000001
 20
-1.8600000000000001
 30
1.0800000000000001
 11
-0.8599999999999999
 21
-1.8500000000000001
 31
1.0900000000000001
 12
-0.75
 22
-1.8500000000000001
 32
1.0900000000000001
 13
-0.75
 23
-1.8600000000000001
 33
1.0800000000000001
  0
3DFACE
  5
3C7E
  8
0
 10
-0.8599999999999999
 20
-1.8700000000000001
 30
1.0900000000000001
 11
-0.8700000000000001
 21
-1.8600000000000001
 31
1.0800000000000001
 12
-0.75
 22
-1.8600000000000001
 32
1.0800000000000001
 13
-0.75
 23
-1.8700000000000001
 33
1.0900000000000001
  0
3DFACE
  5
3C7F
  8
0
 10
-0.85
 20
-1.8600000000000001
 30
1.1000000000000001
 11
-0.8599999999999999
 21
-1.8700000000000001
 31
1.0900000000000001
 12
-0.75
 22
-1.8700000000000001
 32
1.0900000000000001
 13
-0.75
 23
-1.8600000000000001
 33
1.1000000000000001
  0
3DFACE
  5
3C80
  8
0
 10
-0.9300000000000001
 20
-1.8799999999999999
 30
1.2299999999999991
 11
-0.8105025253169417
 21
-1.8799999999999999
 31
1.2794974746830581
 12
-0.8599999999999999
 22
-1.8799999999999999
 32
1.3
 13
-0.9094974746830583
 23
-1.8799999999999999
 33
1.2794974746830581
  0
3DFACE
  5
3C81
  8
0
 10
-0.9094974746830583
 20
-1.8799999999999999
 30
1.180502525316941
 11
-0.79
 21
-1.8799999999999999
 31
1.23
 12
-0.8105025253169417
 22
-1.8799999999999999
 32
1.2794974746830581
 13
-0.9299999999999998
 23
-1.8799999999999999
 33
1.2299999999999991
  0
3DFACE
  5
3C82
  8
0
 10
-0.8599999999999997
 20
-1.8799999999999999
 30
1.1599999999999999
 11
-0.8105025253169415
 21
-1.8799999999999999
 31
1.180502525316941
 12
-0.7900000000000002
 22
-1.8799999999999999
 32
1.2299999999999991
 13
-0.9094974746830583
 23
-1.8799999999999999
 33
1.180502525316941
  0
3DFACE
  5
3C83
  8
0
 10
-0.8105025253169417
 20
-1.8600000000000001
 30
1.180502525316941
 11
-0.7900000000000002
 21
-1.8600000000000001
 31
1.2299999999999991
 12
-0.7900000000000002
 22
-1.8799999999999999
 32
1.2299999999999991
 13
-0.8105025253169417
 23
-1.8799999999999999
 33
1.180502525316941
  0
3DFACE
  5
3C84
  8
0
 10
-0.8599999999999999
 20
-1.8600000000000001
 30
1.159999999999999
 11
-0.8105025253169417
 21
-1.8600000000000001
 31
1.180502525316941
 12
-0.8105025253169417
 22
-1.8799999999999999
 32
1.180502525316941
 13
-0.8599999999999999
 23
-1.8799999999999999
 33
1.159999999999999
  0
3DFACE
  5
3C85
  8
0
 10
-0.9094974746830583
 20
-1.8600000000000001
 30
1.180502525316941
 11
-0.8599999999999999
 21
-1.8600000000000001
 31
1.159999999999999
 12
-0.8599999999999999
 22
-1.8799999999999999
 32
1.159999999999999
 13
-0.9094974746830583
 23
-1.8799999999999999
 33
1.180502525316941
  0
3DFACE
  5
3C86
  8
0
 10
-0.9299999999999998
 20
-1.8600000000000001
 30
1.2299999999999991
 11
-0.9094974746830583
 21
-1.8600000000000001
 31
1.180502525316941
 12
-0.9094974746830583
 22
-1.8799999999999999
 32
1.180502525316941
 13
-0.9299999999999998
 23
-1.8799999999999999
 33
1.2299999999999991
  0
3DFACE
  5
3C87
  8
0
 10
-0.9094974746830583
 20
-1.8600000000000001
 30
1.2794974746830581
 11
-0.9299999999999998
 21
-1.8600000000000001
 31
1.2299999999999991
 12
-0.9299999999999998
 22
-1.8799999999999999
 32
1.2299999999999991
 13
-0.9094974746830583
 23
-1.8799999999999999
 33
1.2794974746830581
  0
3DFACE
  5
3C88
  8
0
 10
-0.8599999999999999
 20
-1.8600000000000001
 30
1.3
 11
-0.9094974746830583
 21
-1.8600000000000001
 31
1.2794974746830581
 12
-0.9094974746830583
 22
-1.8799999999999999
 32
1.2794974746830581
 13
-0.8599999999999999
 23
-1.8799999999999999
 33
1.3
  0
3DFACE
  5
3C89
  8
0
 10
-0.8105025253169417
 20
-1.8600000000000001
 30
1.2794974746830581
 11
-0.8599999999999999
 21
-1.8600000000000001
 31
1.3
 12
-0.8599999999999999
 22
-1.8799999999999999
 32
1.3
 13
-0.8105025253169417
 23
-1.8799999999999999
 33
1.2794974746830581
  0
3DFACE
  5
3C8A
  8
0
 10
-0.7900000000000002
 20
-1.8600000000000001
 30
1.2299999999999991
 11
-0.8105025253169417
 21
-1.8600000000000001
 31
1.2794974746830581
 12
-0.8105025253169417
 22
-1.8799999999999999
 32
1.2794974746830581
 13
-0.7900000000000002
 23
-1.8799999999999999
 33
1.2299999999999991
  0
3DFACE
  5
3C8B
  8
0
 10
-0.9028660704987055
 20
-1.825
 30
1.1871339295012939
 11
-0.9094974746830583
 21
-1.8600000000000001
 31
1.180502525316941
 12
-0.9299999999999998
 22
-1.8600000000000001
 32
1.2299999999999991
 13
-0.9206217782649107
 23
-1.825
 33
1.2299999999999991
  0
3DFACE
  5
3C8C
  8
0
 10
-0.884748737341529
 20
-1.7993782217350891
 30
1.2052512626584699
 11
-0.9028660704987055
 21
-1.825
 31
1.1871339295012939
 12
-0.9206217782649107
 22
-1.825
 32
1.2299999999999991
 13
-0.8949999999999999
 23
-1.7993782217350891
 33
1.2299999999999991
  0
3DFACE
  5
3C8D
  8
0
 10
-0.8599999999999999
 20
-1.79
 30
1.2299999999999991
 11
-0.884748737341529
 21
-1.7993782217350891
 31
1.2052512626584699
 12
-0.8949999999999999
 22
-1.7993782217350891
 32
1.2299999999999991
 13
-0.8599999999999999
 23
-1.79
 33
1.2299999999999991
  0
3DFACE
  5
3C8E
  8
0
 10
-0.8599999999999999
 20
-1.825
 30
1.169378221735089
 11
-0.8599999999999999
 21
-1.8600000000000001
 31
1.159999999999999
 12
-0.9094974746830583
 22
-1.8600000000000001
 32
1.180502525316941
 13
-0.9028660704987055
 23
-1.825
 33
1.1871339295012939
  0
3DFACE
  5
3C8F
  8
0
 10
-0.8599999999999999
 20
-1.7993782217350891
 30
1.1950000000000001
 11
-0.8599999999999999
 21
-1.825
 31
1.169378221735089
 12
-0.9028660704987055
 22
-1.825
 32
1.1871339295012939
 13
-0.884748737341529
 23
-1.7993782217350891
 33
1.2052512626584699
  0
3DFACE
  5
3C90
  8
0
 10
-0.8599999999999999
 20
-1.79
 30
1.2299999999999991
 11
-0.8599999999999999
 21
-1.7993782217350891
 31
1.1950000000000001
 12
-0.884748737341529
 22
-1.7993782217350891
 32
1.2052512626584699
 13
-0.8599999999999999
 23
-1.79
 33
1.2299999999999991
  0
3DFACE
  5
3C91
  8
0
 10
-0.8171339295012943
 20
-1.825
 30
1.1871339295012939
 11
-0.8105025253169417
 21
-1.8600000000000001
 31
1.180502525316941
 12
-0.8599999999999999
 22
-1.8600000000000001
 32
1.159999999999999
 13
-0.8599999999999999
 23
-1.825
 33
1.169378221735089
  0
3DFACE
  5
3C92
  8
0
 10
-0.8352512626584708
 20
-1.7993782217350891
 30
1.2052512626584699
 11
-0.8171339295012943
 21
-1.825
 31
1.1871339295012939
 12
-0.8599999999999999
 22
-1.825
 32
1.169378221735089
 13
-0.8599999999999999
 23
-1.7993782217350891
 33
1.1950000000000001
  0
3DFACE
  5
3C93
  8
0
 10
-0.8599999999999999
 20
-1.79
 30
1.2299999999999991
 11
-0.8352512626584708
 21
-1.7993782217350891
 31
1.2052512626584699
 12
-0.8599999999999999
 22
-1.7993782217350891
 32
1.1950000000000001
 13
-0.8599999999999999
 23
-1.79
 33
1.2299999999999991
  0
3DFACE
  5
3C94
  8
0
 10
-0.7993782217350893
 20
-1.825
 30
1.2299999999999991
 11
-0.7900000000000002
 21
-1.8600000000000001
 31
1.2299999999999991
 12
-0.8105025253169417
 22
-1.8600000000000001
 32
1.180502525316941
 13
-0.8171339295012943
 23
-1.825
 33
1.1871339295012939
  0
3DFACE
  5
3C95
  8
0
 10
-0.825
 20
-1.7993782217350891
 30
1.2299999999999991
 11
-0.7993782217350893
 21
-1.825
 31
1.2299999999999991
 12
-0.8171339295012943
 22
-1.825
 32
1.1871339295012939
 13
-0.8352512626584708
 23
-1.7993782217350891
 33
1.2052512626584699
  0
3DFACE
  5
3C96
  8
0
 10
-0.8599999999999999
 20
-1.79
 30
1.2299999999999991
 11
-0.825
 21
-1.7993782217350891
 31
1.2299999999999991
 12
-0.8352512626584708
 22
-1.7993782217350891
 32
1.2052512626584699
 13
-0.8599999999999999
 23
-1.79
 33
1.2299999999999991
  0
3DFACE
  5
3C97
  8
0
 10
-0.8171339295012943
 20
-1.825
 30
1.2728660704987049
 11
-0.8105025253169417
 21
-1.8600000000000001
 31
1.2794974746830581
 12
-0.7900000000000002
 22
-1.8600000000000001
 32
1.2299999999999991
 13
-0.7993782217350893
 23
-1.825
 33
1.2299999999999991
  0
3DFACE
  5
3C98
  8
0
 10
-0.8352512626584708
 20
-1.7993782217350891
 30
1.2547487373415289
 11
-0.8171339295012943
 21
-1.825
 31
1.2728660704987049
 12
-0.7993782217350893
 22
-1.825
 32
1.2299999999999991
 13
-0.825
 23
-1.7993782217350891
 33
1.2299999999999991
  0
3DFACE
  5
3C99
  8
0
 10
-0.8599999999999999
 20
-1.79
 30
1.2299999999999991
 11
-0.8352512626584708
 21
-1.7993782217350891
 31
1.2547487373415289
 12
-0.825
 22
-1.7993782217350891
 32
1.2299999999999991
 13
-0.8599999999999999
 23
-1.79
 33
1.2299999999999991
  0
3DFACE
  5
3C9A
  8
0
 10
-0.8599999999999999
 20
-1.825
 30
1.2906217782649101
 11
-0.8599999999999999
 21
-1.8600000000000001
 31
1.2999999999999989
 12
-0.8105025253169417
 22
-1.8600000000000001
 32
1.2794974746830581
 13
-0.8171339295012943
 23
-1.825
 33
1.2728660704987049
  0
3DFACE
  5
3C9B
  8
0
 10
-0.8599999999999999
 20
-1.7993782217350891
 30
1.264999999999999
 11
-0.8599999999999999
 21
-1.825
 31
1.2906217782649101
 12
-0.8171339295012943
 22
-1.825
 32
1.2728660704987049
 13
-0.8352512626584708
 23
-1.7993782217350891
 33
1.2547487373415289
  0
3DFACE
  5
3C9C
  8
0
 10
-0.8599999999999999
 20
-1.79
 30
1.2299999999999991
 11
-0.8599999999999999
 21
-1.7993782217350891
 31
1.264999999999999
 12
-0.8352512626584708
 22
-1.7993782217350891
 32
1.2547487373415289
 13
-0.8599999999999999
 23
-1.79
 33
1.2299999999999991
  0
3DFACE
  5
3C9D
  8
0
 10
-0.9028660704987055
 20
-1.825
 30
1.2728660704987049
 11
-0.9094974746830583
 21
-1.8600000000000001
 31
1.2794974746830581
 12
-0.8599999999999999
 22
-1.8600000000000001
 32
1.2999999999999989
 13
-0.8599999999999999
 23
-1.825
 33
1.2906217782649101
  0
3DFACE
  5
3C9E
  8
0
 10
-0.884748737341529
 20
-1.7993782217350891
 30
1.2547487373415289
 11
-0.9028660704987055
 21
-1.825
 31
1.2728660704987049
 12
-0.8599999999999999
 22
-1.825
 32
1.2906217782649101
 13
-0.8599999999999999
 23
-1.7993782217350891
 33
1.264999999999999
  0
3DFACE
  5
3C9F
  8
0
 10
-0.8599999999999999
 20
-1.79
 30
1.2299999999999991
 11
-0.884748737341529
 21
-1.7993782217350891
 31
1.2547487373415289
 12
-0.8599999999999999
 22
-1.7993782217350891
 32
1.264999999999999
 13
-0.8599999999999999
 23
-1.79
 33
1.2299999999999991
  0
3DFACE
  5
3CA0
  8
0
 10
-0.9206217782649107
 20
-1.825
 30
1.2299999999999991
 11
-0.9299999999999998
 21
-1.8600000000000001
 31
1.2299999999999991
 12
-0.9094974746830583
 22
-1.8600000000000001
 32
1.2794974746830581
 13
-0.9028660704987055
 23
-1.825
 33
1.2728660704987049
  0
3DFACE
  5
3CA1
  8
0
 10
-0.8949999999999999
 20
-1.7993782217350891
 30
1.2299999999999991
 11
-0.9206217782649107
 21
-1.825
 31
1.2299999999999991
 12
-0.9028660704987055
 22
-1.825
 32
1.2728660704987049
 13
-0.884748737341529
 23
-1.7993782217350891
 33
1.2547487373415289
  0
3DFACE
  5
3CA2
  8
0
 10
-0.8599999999999999
 20
-1.79
 30
1.2299999999999991
 11
-0.8949999999999999
 21
-1.7993782217350891
 31
1.2299999999999991
 12
-0.884748737341529
 22
-1.7993782217350891
 32
1.2547487373415289
 13
-0.8599999999999999
 23
-1.79
 33
1.2299999999999991
  0
3DFACE
  5
3CA4
  8
0
 10
0.2700000000000011
 20
2.2799999999999998
 30
1.3400000000000001
 11
0.2700000000000008
 21
1.7599999999999989
 31
1.4799999999999991
 12
0.2700000000000008
 22
1.7599999999999989
 32
1.51
 13
0.2700000000000011
 23
2.2799999999999998
 33
1.3700000000000001
  0
3DFACE
  5
3CA5
  8
0
 10
0.3200000000000001
 20
1.7599999999999989
 30
1.51
 11
0.3200000000000001
 21
1.7599999999999989
 31
1.4799999999999991
 12
0.3200000000000001
 22
2.2799999999999998
 32
1.3400000000000001
 13
0.3200000000000001
 23
2.2799999999999998
 33
1.3700000000000001
  0
3DFACE
  5
3CA7
  8
0
 10
0.3200000000000001
 20
2.2799999999999998
 30
1.3700000000000001
 11
0.3200000000000001
 21
2.2799999999999998
 31
1.3400000000000001
 12
0.2700000000000011
 22
2.2799999999999998
 32
1.3400000000000001
 13
0.2700000000000011
 23
2.2799999999999998
 33
1.3700000000000001
  0
3DFACE
  5
3CA9
  8
0
 10
0.2700000000000011
 20
2.2799999999999998
 30
1.3700000000000001
 11
0.2700000000000008
 21
1.7599999999999989
 31
1.51
 12
0.3200000000000001
 22
1.7599999999999989
 32
1.51
 13
0.3200000000000001
 23
2.2799999999999998
 33
1.3700000000000001
  0
3DFACE
  5
3CAC
  8
0
 10
0.3200000000000001
 20
1.3899999999999999
 30
1.5600000000000001
 11
0.3200000000000001
 21
1.3899999999999999
 31
1.5299999999999989
 12
0.3200000000000001
 22
1.7599999999999989
 32
1.4799999999999991
 13
0.3200000000000001
 23
1.7599999999999989
 33
1.51
  0
3DFACE
  5
3CAE
  8
0
 10
0.2700000000000011
 20
1.7599999999999989
 30
1.4799999999999991
 11
0.2700000000000008
 21
1.3899999999999999
 31
1.5299999999999989
 12
0.2700000000000008
 22
1.3899999999999999
 32
1.5600000000000001
 13
0.2700000000000011
 23
1.7599999999999989
 33
1.51
  0
3DFACE
  5
3CB1
  8
0
 10
0.2700000000000011
 20
1.7599999999999989
 30
1.51
 11
0.2700000000000008
 21
1.3899999999999999
 31
1.5600000000000001
 12
0.3200000000000001
 22
1.3899999999999999
 32
1.5600000000000001
 13
0.3200000000000001
 23
1.7599999999999989
 33
1.51
  0
3DFACE
  5
3CB3
  8
0
 10
0.2700000000000011
 20
1.3899999999999999
 30
1.5299999999999989
 11
0.2700000000000008
 21
0.8100000000000001
 31
1.4799999999999991
 12
0.2700000000000008
 22
0.8100000000000001
 32
1.51
 13
0.2700000000000011
 23
1.3899999999999999
 33
1.5600000000000001
  0
3DFACE
  5
3CB5
  8
0
 10
0.3200000000000001
 20
0.8100000000000001
 30
1.51
 11
0.3200000000000001
 21
0.8100000000000001
 31
1.4799999999999991
 12
0.3200000000000001
 22
1.3899999999999999
 32
1.5299999999999989
 13
0.3200000000000001
 23
1.3899999999999999
 33
1.5600000000000001
  0
3DFACE
  5
3CB6
  8
0
 10
0.2700000000000011
 20
1.3899999999999999
 30
1.5600000000000001
 11
0.2700000000000008
 21
0.8100000000000001
 31
1.51
 12
0.3200000000000001
 22
0.8100000000000001
 32
1.51
 13
0.3200000000000001
 23
1.3899999999999999
 33
1.5600000000000001
  0
3DFACE
  5
3CB7
  8
0
 10
0.2700000000000008
 20
0.8100000000000001
 30
1.51
 11
0.2700000000000008
 21
0.8100000000000001
 31
1.4799999999999991
 12
0.3200000000000001
 22
0.8100000000000001
 32
1.4799999999999991
 13
0.3200000000000001
 23
0.8100000000000001
 33
1.51
  0
3DFACE
  5
3CBB
  8
0
 10
-0.319999999999999
 20
1.3899999999999999
 30
1.5600000000000001
 11
-0.3199999999999993
 21
0.8100000000000001
 31
1.51
 12
-0.27
 22
0.8100000000000001
 32
1.51
 13
-0.27
 23
1.3899999999999999
 33
1.5600000000000001
  0
3DFACE
  5
3CBC
  8
0
 10
-0.3199999999999993
 20
0.8100000000000001
 30
1.51
 11
-0.3199999999999993
 21
0.8100000000000001
 31
1.4799999999999991
 12
-0.27
 22
0.8100000000000001
 32
1.4799999999999991
 13
-0.27
 23
0.8100000000000001
 33
1.51
  0
3DFACE
  5
3CBD
  8
0
 10
-0.27
 20
0.8100000000000001
 30
1.51
 11
-0.27
 21
0.8100000000000001
 31
1.4799999999999991
 12
-0.27
 22
1.3899999999999999
 32
1.5299999999999989
 13
-0.27
 23
1.3899999999999999
 33
1.5600000000000001
  0
3DFACE
  5
3CBF
  8
0
 10
-0.319999999999999
 20
1.3899999999999999
 30
1.5299999999999989
 11
-0.3199999999999993
 21
0.8100000000000001
 31
1.4799999999999991
 12
-0.3199999999999993
 22
0.8100000000000001
 32
1.51
 13
-0.319999999999999
 23
1.3899999999999999
 33
1.5600000000000001
  0
3DFACE
  5
3CC1
  8
0
 10
-0.319999999999999
 20
1.7599999999999989
 30
1.51
 11
-0.3199999999999993
 21
1.3899999999999999
 31
1.5600000000000001
 12
-0.27
 22
1.3899999999999999
 32
1.5600000000000001
 13
-0.27
 23
1.7599999999999989
 33
1.51
  0
3DFACE
  5
3CC3
  8
0
 10
-0.27
 20
1.3899999999999999
 30
1.5600000000000001
 11
-0.27
 21
1.3899999999999999
 31
1.5299999999999989
 12
-0.27
 22
1.7599999999999989
 32
1.4799999999999991
 13
-0.27
 23
1.7599999999999989
 33
1.51
  0
3DFACE
  5
3CC5
  8
0
 10
-0.319999999999999
 20
1.7599999999999989
 30
1.4799999999999991
 11
-0.3199999999999993
 21
1.3899999999999999
 31
1.5299999999999989
 12
-0.3199999999999993
 22
1.3899999999999999
 32
1.5600000000000001
 13
-0.319999999999999
 23
1.7599999999999989
 33
1.51
  0
3DFACE
  5
3CC9
  8
0
 10
-0.27
 20
1.7599999999999989
 30
1.51
 11
-0.27
 21
1.7599999999999989
 31
1.4799999999999991
 12
-0.27
 22
2.2799999999999998
 32
1.3400000000000001
 13
-0.27
 23
2.2799999999999998
 33
1.3700000000000001
  0
3DFACE
  5
3CCA
  8
0
 10
-0.27
 20
2.2799999999999998
 30
1.3700000000000001
 11
-0.27
 21
2.2799999999999998
 31
1.3400000000000001
 12
-0.319999999999999
 22
2.2799999999999998
 32
1.3400000000000001
 13
-0.319999999999999
 23
2.2799999999999998
 33
1.3700000000000001
  0
3DFACE
  5
3CCB
  8
0
 10
-0.319999999999999
 20
2.2799999999999998
 30
1.3400000000000001
 11
-0.3199999999999993
 21
1.7599999999999989
 31
1.4799999999999991
 12
-0.3199999999999993
 22
1.7599999999999989
 32
1.51
 13
-0.319999999999999
 23
2.2799999999999998
 33
1.3700000000000001
  0
3DFACE
  5
3CCC
  8
0
 10
-0.319999999999999
 20
2.2799999999999998
 30
1.3700000000000001
 11
-0.3199999999999993
 21
1.7599999999999989
 31
1.51
 12
-0.27
 22
1.7599999999999989
 32
1.51
 13
-0.27
 23
2.2799999999999998
 33
1.3700000000000001
  0
3DFACE
  5
3CD0
  8
0
 10
-0.3702081528017127
 20
1.4527091663516201
 30
1.458009880045366
 11
-0.72
 21
1.2999999999999989
 31
1.4799999999999991
 12
-0.72
 22
1.2999999999999989
 32
1.4799999999999991
 13
-0.3599999999999968
 23
1.299999999999998
 33
1.480000000000002
  0
3DFACE
  5
3CD1
  8
0
 10
0.3600000000000001
 20
1.2999999999999989
 30
1.4799999999999991
 11
0.7199999999999988
 21
1.300000000000014
 31
1.4799999999999971
 12
0.7199999999999988
 22
1.300000000000014
 32
1.4799999999999971
 13
0.6502081528017139
 23
1.4527091663516201
 33
1.458009880045366
  0
3DFACE
  5
3CDC
  8
0
 10
0.3699999999999843
 20
-1.894285714285717
 30
1.1399999999999999
 11
0.3699999999999997
 21
-1.9099999999999999
 31
1.1399999999999999
 12
0.5699999999999987
 22
-1.9099999999999999
 32
1.1399999999999999
 13
0.5699999999999994
 23
-1.894285714285717
 33
1.1399999999999999
  0
VIEWPORT
  5
2E
 67
     1
  8
0
 10
144.7270812988281
 20
101.2295806407928
 30
0.0
 40
391.13550988316581
 41
222.15178063964839
 68
     2
 69
     1
1001
ACAD
1000
MVIEW
1002
{
1070
    16
1010
0.0
1020
0.0
1030
0.0
1010
0.0
1020
0.0
1030
1.0
1040
0.0
1040
222.15178063964839
1040
144.7270812988281
1040
101.2295806407928
1040
50.0
1040
0.0
1040
0.0
1070
     0
1070
   100
1070
     1
1070
     1
1070
     0
1070
     0
1070
     0
1070
     0
1040
0.0
1040
0.0
1040
0.0
1040
10.0
1040
10.0
1040
10.0
1040
10.0
1070
     0
1002
{
1002
}
1002
}
  0
VIEWPORT
  5
30
 67
     1
  8
0
 10
139.22375631332389
 20
100.8062499761581
 30
0.0
 40
222.75801010131829
 41
161.289999961853
 68
     1
 69
     2
1001
ACAD
1000
MVIEW
1002
{
1070
    16
1010
0.0
1020
0.0
1030
0.0
1010
0.0
1020
0.0
1030
1.0
1040
0.0
1040
307.49010134148989
1040
210.0
1040
148.5
1040
50.0
1040
0.0
1040
0.0
1070
     0
1070
   100
1070
     1
1070
     3
1070
     0
1070
     1
1070
     0
1070
     0
1040
0.0
1040
0.0
1040
0.0
1040
10.0
1040
10.0
1040
10.0
1040
10.0
1070
     0
1002
{
1002
}
1002
}
  0
ENDSEC
  0
EOF
