  0
SECTION
  2
HEADER
  9
$ACADVER
  1
AC1009
  9
$INSBASE
 10
0.0
 20
0.0
 30
0.0
  9
$EXTMIN
 10
-1.0700000000000001
 20
-4.2699999999999987
 30
-7.6900000000000004
  9
$EXTMAX
 10
1.069999999999999
 20
9.5
 30
13.62531926206033
  9
$LIMMIN
 10
0.0
 20
0.0
  9
$LIMMAX
 10
420.0
 20
297.0
  9
$ORTHOMODE
 70
     1
  9
$REGENMODE
 70
     1
  9
$FILLMODE
 70
     1
  9
$QTEXTMODE
 70
     0
  9
$MIRRTEXT
 70
     1
  9
$DRAGMODE
 70
     2
  9
$LTSCALE
 40
1.0
  9
$OSMODE
 70
    35
  9
$ATTMODE
 70
     1
  9
$TEXTSIZE
 40
2.5
  9
$TRACEWID
 40
1.0
  9
$TEXTSTYLE
  7
STANDARD
  9
$CLAYER
  8
0
  9
$CELTYPE
  6
BYLAYER
  9
$CECOLOR
 62
   256
  9
$DIMSCALE
 40
1.0
  9
$DIMASZ
 40
2.5
  9
$DIMEXO
 40
0.625
  9
$DIMDLI
 40
3.75
  9
$DIMRND
 40
0.0
  9
$DIMDLE
 40
0.0
  9
$DIMEXE
 40
1.25
  9
$DIMTP
 40
0.0
  9
$DIMTM
 40
0.0
  9
$DIMTXT
 40
2.5
  9
$DIMCEN
 40
2.5
  9
$DIMTSZ
 40
0.0
  9
$DIMTOL
 70
     0
  9
$DIMLIM
 70
     0
  9
$DIMTIH
 70
     0
  9
$DIMTOH
 70
     0
  9
$DIMSE1
 70
     0
  9
$DIMSE2
 70
     0
  9
$DIMTAD
 70
     1
  9
$DIMZIN
 70
     8
  9
$DIMBLK
  1

  9
$DIMASO
 70
     1
  9
$DIMSHO
 70
     1
  9
$DIMPOST
  1

  9
$DIMAPOST
  1

  9
$DIMALT
 70
     0
  9
$DIMALTD
 70
     3
  9
$DIMALTF
 40
0.03937007874016
  9
$DIMLFAC
 40
1.0
  9
$DIMTOFL
 70
     1
  9
$DIMTVP
 40
0.0
  9
$DIMTIX
 70
     0
  9
$DIMSOXD
 70
     0
  9
$DIMSAH
 70
     0
  9
$DIMBLK1
  1

  9
$DIMBLK2
  1

  9
$DIMSTYLE
  2
ISO-25
  9
$DIMCLRD
 70
     0
  9
$DIMCLRE
 70
     0
  9
$DIMCLRT
 70
     0
  9
$DIMTFAC
 40
1.0
  9
$DIMGAP
 40
0.625
  9
$LUNITS
 70
     2
  9
$LUPREC
 70
     4
  9
$SKETCHINC
 40
1.0
  9
$FILLETRAD
 40
10.0
  9
$AUNITS
 70
     0
  9
$AUPREC
 70
     0
  9
$MENU
  1
.
  9
$ELEVATION
 40
0.0
  9
$PELEVATION
 40
0.0
  9
$THICKNESS
 40
0.0
  9
$LIMCHECK
 70
     0
  9
$BLIPMODE
 70
     0
  9
$CHAMFERA
 40
10.0
  9
$CHAMFERB
 40
10.0
  9
$SKPOLY
 70
     0
  9
$TDCREATE
 40
2457248.0493032872
  9
$TDUPDATE
 40
2457264.9942160882
  9
$TDINDWG
 40
1.6588671181000001
  9
$TDUSRTIMER
 40
1.6588671181000001
  9
$USRTIMER
 70
     1
  9
$ANGBASE
 50
0.0
  9
$ANGDIR
 70
     0
  9
$PDMODE
 70
     0
  9
$PDSIZE
 40
0.0
  9
$PLINEWID
 40
0.0
  9
$COORDS
 70
     1
  9
$SPLFRAME
 70
     0
  9
$SPLINETYPE
 70
     6
  9
$SPLINESEGS
 70
     8
  9
$ATTDIA
 70
     1
  9
$ATTREQ
 70
     1
  9
$HANDLING
 70
-16383
  9
$HANDSEED
  5
24CD
  9
$SURFTAB1
 70
     6
  9
$SURFTAB2
 70
     6
  9
$SURFTYPE
 70
     6
  9
$SURFU
 70
     6
  9
$SURFV
 70
     6
  9
$UCSNAME
  2

  9
$UCSORG
 10
0.0
 20
0.0
 30
0.0
  9
$UCSXDIR
 10
0.0
 20
-1.0
 30
0.0
  9
$UCSYDIR
 10
0.0
 20
0.0
 30
1.0
  9
$PUCSNAME
  2

  9
$PUCSORG
 10
0.0
 20
0.0
 30
0.0
  9
$PUCSXDIR
 10
1.0
 20
0.0
 30
0.0
  9
$PUCSYDIR
 10
0.0
 20
1.0
 30
0.0
  9
$USERI1
 70
     0
  9
$USERI2
 70
     0
  9
$USERI3
 70
     0
  9
$USERI4
 70
     0
  9
$USERI5
 70
     0
  9
$USERR1
 40
0.0
  9
$USERR2
 40
0.0
  9
$USERR3
 40
0.0
  9
$USERR4
 40
0.0
  9
$USERR5
 40
0.0
  9
$WORLDVIEW
 70
     1
  9
$SHADEDGE
 70
     3
  9
$SHADEDIF
 70
    70
  9
$TILEMODE
 70
     1
  9
$MAXACTVP
 70
    64
  9
$PLIMCHECK
 70
     0
  9
$PEXTMIN
 10
27.844751262664801
 20
20.161249995231621
 30
0.0
  9
$PEXTMAX
 10
250.60276136398309
 20
181.4512499570846
 30
0.0
  9
$PLIMMIN
 10
-3.757080078125
 20
-3.7570831775665279
  9
$PLIMMAX
 10
293.21124267578119
 20
206.21624445915219
  9
$UNITMODE
 70
     0
  9
$VISRETAIN
 70
     1
  9
$PLINEGEN
 70
     0
  9
$PSLTSCALE
 70
     1
  0
ENDSEC
  0
SECTION
  2
TABLES
  0
TABLE
  2
VPORT
 70
     3
  0
VPORT
  2
*ACTIVE
 70
     0
 10
0.0
 20
0.0
 11
1.0
 21
1.0
 12
31.071339842042619
 22
-8.2742481403122472
 13
0.0
 23
0.0
 14
0.01
 24
0.01
 15
1.0
 25
1.0
 16
-1.0
 26
0.0
 36
0.0
 17
0.0
 27
0.0
 37
0.0
 40
59.476608052246171
 41
2.2487980769230771
 42
50.0
 43
0.0
 44
0.0
 50
0.0
 51
0.0
 71
     0
 72
   100
 73
     1
 74
     3
 75
     1
 76
     1
 77
     0
 78
     0
  0
ENDTAB
  0
TABLE
  2
LTYPE
 70
     1
  0
LTYPE
  2
CONTINUOUS
 70
     0
  3
Solid line
 72
    65
 73
     0
 40
0.0
  0
ENDTAB
  0
TABLE
  2
LAYER
 70
    12
  0
LAYER
  2
0
 70
     0
 62
     7
  6
CONTINUOUS
  0
LAYER
  2
REFERENCE
 70
     0
 62
     9
  6
CONTINUOUS
  0
LAYER
  2
TMP
 70
     0
 62
     4
  6
CONTINUOUS
  0
LAYER
  2
FENDERS
 70
     0
 62
     6
  6
CONTINUOUS
  0
LAYER
  2
WHEELS
 70
     0
 62
     2
  6
CONTINUOUS
  0
LAYER
  2
TORSIONS
 70
     0
 62
     5
  6
CONTINUOUS
  0
LAYER
  2
TRACKS
 70
     0
 62
     3
  6
CONTINUOUS
  0
LAYER
  2
TURRET
 70
     0
 62
     2
  6
CONTINUOUS
  0
LAYER
  2
SLEEVE
 70
     0
 62
     5
  6
CONTINUOUS
  0
LAYER
  2
GUN
 70
     0
 62
     1
  6
CONTINUOUS
  0
LAYER
  2
TURRET_ADDONS_IIA
 70
     0
 62
     6
  6
CONTINUOUS
  0
LAYER
  2
TURRET_ADDONS_II
 70
     0
 62
     3
  6
CONTINUOUS
  0
ENDTAB
  0
TABLE
  2
STYLE
 70
     1
  0
STYLE
  2
STANDARD
 70
     0
 40
0.0
 41
1.0
 50
0.0
 71
     0
 42
2.5
  3
txt
  4

  0
ENDTAB
  0
TABLE
  2
VIEW
 70
     0
  0
ENDTAB
  0
TABLE
  2
UCS
 70
     0
  0
ENDTAB
  0
TABLE
  2
APPID
 70
     1
  0
APPID
  2
ACAD
 70
     0
  0
ENDTAB
  0
TABLE
  2
DIMSTYLE
 70
     1
  0
DIMSTYLE
  2
ISO-25
 70
     0
  3

  4

  5

  6

  7

 40
1.0
 41
2.5
 42
0.625
 43
3.75
 44
1.25
 45
0.0
 46
0.0
 47
0.0
 48
0.0
140
2.5
141
2.5
142
0.0
143
0.03937007874016
144
1.0
145
0.0
146
1.0
147
0.625
 71
     0
 72
     0
 73
     0
 74
     0
 75
     0
 76
     0
 77
     1
 78
     8
170
     0
171
     3
172
     1
173
     0
174
     0
175
     0
176
     0
177
     0
178
     0
  0
ENDTAB
  0
ENDSEC
  0
SECTION
  2
BLOCKS
  0
BLOCK
  8
0
  2
$MODEL_SPACE
 70
     0
 10
0.0
 20
0.0
 30
0.0
  3
$MODEL_SPACE
  1

  0
ENDBLK
  5
21
  8
0
  0
BLOCK
 67
     1
  8
0
  2
$PAPER_SPACE
 70
     0
 10
0.0
 20
0.0
 30
0.0
  3
$PAPER_SPACE
  1

  0
ENDBLK
  5
1D
 67
     1
  8
0
  0
ENDSEC
  0
SECTION
  2
ENTITIES
  0
3DFACE
  5
A3
  8
0
 10
-0.7399999999999998
 20
2.2200000000000002
 30
0.85
 11
-0.7399999999999998
 21
1.8200000000000001
 31
0.2999999999999998
 12
-0.7400000000000003
 22
-1.8399999999999981
 32
0.2999999999999998
 13
-0.7400000000000003
 23
-2.2099999999999991
 33
0.6400000000000001
  0
3DFACE
  5
A4
  8
0
 10
0.7399999999999998
 20
-1.8399999999999981
 30
0.2999999999999998
 11
0.7400000000000003
 21
1.8200000000000001
 31
0.2999999999999998
 12
0.7400000000000003
 22
2.2200000000000002
 32
0.85
 13
0.7399999999999998
 23
-2.2099999999999991
 33
0.6400000000000001
  0
3DFACE
  5
A6
  8
0
 10
0.7400000000000003
 20
2.2200000000000002
 30
0.85
 11
0.7400000000000003
 21
1.8200000000000001
 31
0.2999999999999998
 12
-0.7399999999999998
 22
1.8200000000000001
 32
0.2999999999999998
 13
-0.7399999999999998
 23
2.2200000000000002
 33
0.85
  0
3DFACE
  5
A7
  8
0
 10
-0.7400000000000003
 20
-2.2099999999999991
 30
0.6400000000000001
 11
-0.7400000000000003
 21
-1.8399999999999981
 31
0.2999999999999998
 12
0.7399999999999998
 22
-1.8399999999999981
 32
0.2999999999999998
 13
0.7399999999999998
 23
-2.2099999999999991
 33
0.6400000000000001
  0
3DFACE
  5
A8
  8
0
 10
-0.7400000000000003
 20
-1.8399999999999981
 30
0.2999999999999998
 11
-0.7399999999999998
 21
1.8200000000000001
 31
0.2999999999999998
 12
0.7400000000000003
 22
1.8200000000000001
 32
0.2999999999999998
 13
0.7399999999999998
 23
-1.8399999999999981
 33
0.2999999999999998
  0
3DFACE
  5
AE
  8
0
 10
0.7399999999999998
 20
-2.2099999999999991
 30
0.6400000000000001
 11
0.7400000000000003
 21
2.2200000000000002
 31
0.85
 12
0.7400000000000003
 22
2.2200000000000002
 32
0.85
 13
0.7399999999999998
 23
-1.55
 33
1.0600000000000001
  0
3DFACE
  5
AF
  8
0
 10
-0.7399999999999998
 20
2.2200000000000002
 30
0.85
 11
-0.7399999999999998
 21
2.2200000000000002
 31
0.85
 12
-0.7400000000000003
 22
-2.2099999999999991
 32
0.6400000000000001
 13
-0.7400000000000003
 23
-1.55
 33
1.0600000000000001
  0
3DFACE
  5
B2
  8
0
 10
-0.1500000000000002
 20
-1.8500000000000001
 30
0.8690909090909089
 11
-0.7400000000000003
 21
-2.2099999999999991
 31
0.6400000000000001
 12
0.7399999999999998
 22
-2.2099999999999991
 32
0.6400000000000001
 13
0.1499999999999998
 23
-1.8500000000000001
 33
0.8690909090909089
  0
3DFACE
  5
C0
  8
0
 10
-0.0600000000000002
 20
-0.9099999999999999
 30
1.3100000000000001
 11
-0.0300000000000001
 21
-1.0800000000000001
 31
1.140781249999999
 12
0.7767187499999999
 22
-1.0800000000000001
 32
1.140781249999999
 13
0.79
 23
-0.9100000000000001
 33
1.3100000000000001
  0
3DFACE
  5
CE
  8
0
 10
-0.6400000000000002
 20
-1.2399999999999991
 30
1.11328125
 11
-0.7400000000000003
 21
-1.55
 31
1.0600000000000001
 12
0.7399999999999998
 22
-1.55
 32
1.0600000000000001
 13
-0.1500000000000001
 23
-1.2399999999999991
 33
1.11328125
  0
3DFACE
  5
DF
  8
0
 10
-0.6300000000000001
 20
-1.179999999999999
 30
1.3100000000000001
 11
-0.6400000000000002
 21
-1.2399999999999991
 31
1.11328125
 12
-0.1500000000000001
 22
-1.2399999999999991
 32
1.11328125
 13
-0.1600000000000001
 23
-1.179999999999999
 33
1.3100000000000001
  0
3DFACE
  5
E9
  8
0
 10
-0.6200000000000001
 20
-1.1499999999999999
 30
1.3100000000000001
 11
-0.6300000000000001
 21
-1.179999999999999
 31
1.3100000000000001
 12
-0.1600000000000001
 22
-1.179999999999999
 32
1.3100000000000001
 13
-0.1800000000000001
 23
-1.1499999999999999
 33
1.3100000000000001
  0
3DFACE
  5
F7
  8
0
 10
-0.1600000000000001
 20
-1.179999999999999
 30
1.3100000000000001
 11
-0.1500000000000001
 21
-1.2399999999999991
 31
1.11328125
 12
-0.0300000000000002
 22
-1.0800000000000001
 32
1.140781249999999
 13
-0.0600000000000002
 23
-1.04
 33
1.3100000000000001
  0
3DFACE
  5
F8
  8
0
 10
-0.7300000000000001
 20
-1.04
 30
1.3100000000000001
 11
-0.7600000000000002
 21
-1.0800000000000001
 31
1.140781249999999
 12
-0.6400000000000002
 22
-1.2399999999999991
 32
1.11328125
 13
-0.6300000000000001
 23
-1.179999999999999
 33
1.3100000000000001
  0
3DFACE
  5
F9
  8
0
 10
-0.7900000000000002
 20
-0.8699999999999999
 30
1.3100000000000001
 11
-0.7900000000000002
 21
-0.8699999999999999
 31
1.3100000000000001
 12
-0.76
 22
-1.0800000000000001
 32
1.140781249999999
 13
-0.7300000000000001
 23
-1.04
 33
1.3100000000000001
  0
3DFACE
  5
FA
  8
0
 10
-0.0600000000000001
 20
-1.04
 30
1.3100000000000001
 11
-0.0300000000000002
 21
-1.0800000000000001
 31
1.140781249999999
 12
-0.0600000000000001
 22
-0.9099999999999999
 32
1.3100000000000001
 13
-0.0600000000000002
 23
-0.9099999999999999
 33
1.3100000000000001
  0
3DFACE
  5
FC
  8
0
 10
-0.76
 20
-1.0800000000000001
 30
1.140781249999999
 11
-0.7400000000000003
 21
-1.55
 31
1.0600000000000001
 12
-0.7400000000000003
 22
-1.55
 32
1.0600000000000001
 13
-0.6400000000000002
 23
-1.2399999999999991
 33
1.11328125
  0
3DFACE
  5
FD
  8
0
 10
-0.0300000000000001
 20
-1.0800000000000001
 30
1.140781249999999
 11
-0.1500000000000001
 21
-1.2399999999999991
 31
1.11328125
 12
0.7399999999999998
 22
-1.5499999999999989
 32
1.0600000000000001
 13
0.7767187499999999
 23
-1.0800000000000001
 33
1.140781249999999
  0
3DFACE
  5
101
  8
0
 10
-0.9200000000000002
 20
-0.1399999999999999
 30
1.3100000000000001
 11
-0.8000000000000002
 21
-0.69
 31
1.3100000000000001
 12
0.79
 22
-0.8700000000000001
 32
1.3100000000000001
 13
0.9200000000000002
 23
-0.1400000000000001
 33
1.3100000000000001
  0
3DFACE
  5
103
  8
0
 10
0.9200000000000002
 20
-0.1400000000000002
 30
1.3100000000000001
 11
0.6522947341949746
 21
0.1499999999999999
 31
1.3100000000000001
 12
-0.6522947341949742
 22
0.1500000000000001
 32
1.3100000000000001
 13
-0.9200000000000002
 23
-0.1399999999999998
 33
1.3100000000000001
  0
3DFACE
  5
10A
  8
0
 10
0.9200000000000002
 20
-0.1400000000000003
 30
1.3100000000000001
 11
0.79
 21
-0.8700000000000001
 31
1.3100000000000001
 12
0.7767187500000001
 22
-1.0800000000000001
 32
1.140781249999999
 13
0.99
 23
-0.14
 33
0.9814588859416447
  0
3DFACE
  5
10B
  8
0
 10
0.7900000000000002
 20
-0.8700000000000001
 30
1.3100000000000001
 11
0.79
 21
-0.9100000000000001
 31
1.3100000000000001
 12
0.7767187499999999
 22
-1.0800000000000001
 32
1.140781249999999
 13
0.7767187499999999
 23
-1.0800000000000001
 33
1.140781249999999
  0
3DFACE
  5
10D
  8
0
 10
0.99
 20
-0.14
 30
0.9814588859416447
 11
0.7767187499999997
 21
-1.0800000000000001
 31
1.1407812500000001
 12
0.7399999999999998
 22
-1.5499999999999989
 32
1.0600000000000001
 13
0.99
 23
-0.14
 33
0.9814588859416447
  0
3DFACE
  5
10F
  8
0
 10
-0.9200000000000002
 20
-0.1399999999999998
 30
1.3100000000000001
 11
-0.9200000000000002
 21
-0.1399999999999998
 31
1.3100000000000001
 12
-0.99
 22
-0.1399999999999998
 32
0.9814588859416447
 13
-0.7900000000000002
 23
-0.8699999999999999
 33
1.3100000000000001
  0
3DFACE
  5
110
  8
0
 10
-0.7900000000000002
 20
-0.8699999999999999
 30
1.3100000000000001
 11
-0.7900000000000002
 21
-0.8699999999999999
 31
1.3100000000000001
 12
-0.99
 22
-0.1399999999999998
 32
0.9814588859416447
 13
-0.76
 23
-1.0800000000000001
 33
1.140781249999999
  0
3DFACE
  5
111
  8
0
 10
-0.76
 20
-1.0800000000000001
 30
1.1407812500000001
 11
-0.76
 21
-1.0800000000000001
 31
1.1407812500000001
 12
-0.99
 22
-0.1399999999999998
 32
0.9814588859416447
 13
-0.7400000000000003
 23
-1.55
 33
1.0600000000000001
  0
3DFACE
  5
122
  8
0
 10
0.8892796610169492
 20
0.1499999999999998
 30
1.3100000000000001
 11
0.8679733474371008
 21
0.1500000000000001
 31
1.409999999999999
 12
0.6522947341949744
 22
0.1500000000000002
 32
1.409999999999999
 13
0.6522947341949748
 23
0.1499999999999999
 33
1.3100000000000001
  0
3DFACE
  5
123
  8
0
 10
-0.6522947341949744
 20
0.1500000000000005
 30
1.4099999999999999
 11
-0.6321985447626404
 21
0.2249999999999996
 31
1.4099999999999999
 12
-0.7853462287930327
 22
0.9300000000000001
 32
1.409999999999999
 13
-0.8679733474371008
 23
0.1500000000000006
 33
1.409999999999999
  0
3DFACE
  5
129
  8
0
 10
0.785346228793033
 20
0.9299999999999998
 30
1.409999999999999
 11
0.5500000000000002
 21
1.0888419745043789
 31
1.3853733372861421
 12
-0.2699999999999999
 22
1.0888419745043789
 32
1.3853733372861421
 13
-0.7853462287930327
 23
0.9300000000000001
 33
1.409999999999999
  0
3DFACE
  5
12A
  8
0
 10
0.7505932203389834
 20
2.1200000000000001
 30
0.8555702917771884
 11
0.7400000000000003
 21
2.2200000000000002
 31
0.85
 12
0.6557283435044546
 22
2.2999999999999998
 32
1.1975968992248061
 13
0.6814692093588453
 23
2.1199999999999841
 33
1.179999999999999
  0
3DFACE
  5
12B
  8
0
 10
0.9900000000000002
 20
-0.1399999999999991
 30
0.9814588859416444
 11
0.9900000000000002
 21
-0.1399999999999991
 31
0.9814588859416444
 12
0.8892796610169492
 22
0.1499999999999998
 32
1.3100000000000001
 13
0.9200000000000002
 23
-0.14
 33
1.3100000000000001
  0
3DFACE
  5
12C
  8
0
 10
0.9900000000000002
 20
-0.1399999999999991
 30
0.9814588859416444
 11
0.9900000000000002
 21
-0.1399999999999991
 31
0.9814588859416444
 12
0.785346228793033
 22
0.9299999999999998
 32
1.409999999999999
 13
0.8892796610169492
 23
0.1500000000000001
 33
1.3100000000000001
  0
3DFACE
  5
12D
  8
0
 10
0.8892796610169494
 20
0.1499999999999998
 30
1.3099999999999989
 11
0.8892796610169494
 21
0.1499999999999998
 31
1.3099999999999989
 12
0.785346228793033
 22
0.9300000000000001
 32
1.409999999999999
 13
0.8679733474371008
 23
0.1499999999999991
 33
1.409999999999999
  0
3DFACE
  5
12E
  8
0
 10
-0.8679733474371008
 20
0.1500000000000003
 30
1.409999999999999
 11
-0.7853462287930327
 21
0.9300000000000001
 31
1.409999999999999
 12
-0.7853462287930327
 22
0.9300000000000001
 32
1.409999999999999
 13
-0.8892796610169494
 23
0.1500000000000002
 33
1.3100000000000001
  0
3DFACE
  5
12F
  8
0
 10
-0.6814692093588429
 20
2.1200000000000001
 30
1.179999999999999
 11
-0.655728343504454
 21
2.2999999999999998
 31
1.1975968992248061
 12
-0.7399999999999998
 22
2.2200000000000002
 32
0.85
 13
-0.7505932203389829
 23
2.1200000000000001
 33
0.8555702917771884
  0
3DFACE
  5
130
  8
0
 10
-0.8892796610169494
 20
0.1500000000000002
 30
1.3100000000000001
 11
-0.7853462287930327
 21
0.9300000000000004
 31
1.4099999999999999
 12
-0.7853462287930327
 22
0.9300000000000004
 32
1.4099999999999999
 13
-0.99
 23
-0.1399999999999996
 33
0.9814588859416447
  0
3DFACE
  5
131
  8
0
 10
-0.9200000000000002
 20
-0.1399999999999998
 30
1.3100000000000001
 11
-0.8892796610169494
 21
0.1500000000000002
 31
1.3100000000000001
 12
-0.8892796610169494
 22
0.1500000000000002
 32
1.3100000000000001
 13
-0.99
 23
-0.14
 33
0.9814588859416447
  0
3DFACE
  5
13F
  8
0
 10
0.7400000000000003
 20
2.2200000000000002
 30
0.85
 11
0.704220852551303
 21
2.2999999999999989
 31
0.9699999999999999
 12
0.6557283435044546
 22
2.2999999999999998
 32
1.1975968992248061
 13
0.6557283435044546
 23
2.2999999999999998
 33
1.1975968992248061
  0
3DFACE
  5
140
  8
0
 10
-0.6557283435044541
 20
2.2999999999999998
 30
1.1975968992248061
 11
-0.655728343504454
 21
2.2999999999999998
 31
1.1975968992248061
 12
-0.7042208525513022
 22
2.2999999999999998
 32
0.9699999999999999
 13
-0.7399999999999998
 23
2.2199999999999989
 33
0.85
  0
3DFACE
  5
143
  8
0
 10
-0.6616082253916044
 20
2.3900000000000001
 30
1.169999999999999
 11
-0.655728343504454
 21
2.2999999999999998
 31
1.1975968992248061
 12
0.6557283435044548
 22
2.2999999999999998
 32
1.1975968992248061
 13
0.6616082253916068
 23
2.3900000000000001
 33
1.169999999999999
  0
3DFACE
  5
146
  8
0
 10
-0.6743920135395126
 20
2.4599999999999991
 30
1.1100000000000001
 11
-0.6616082253916044
 21
2.3900000000000001
 31
1.169999999999999
 12
0.6616082253916068
 22
2.3900000000000001
 32
1.169999999999999
 13
0.6743920135395161
 23
2.4599999999999991
 33
1.1100000000000001
  0
3DFACE
  5
147
  8
0
 10
-0.6871758016874212
 20
2.4900000000000002
 30
1.05
 11
-0.6743920135395126
 21
2.4599999999999991
 31
1.1100000000000001
 12
0.6743920135395161
 22
2.4599999999999991
 32
1.1100000000000001
 13
0.6871758016874253
 23
2.4900000000000002
 33
1.05
  0
3DFACE
  5
148
  8
0
 10
-0.6978289584773446
 20
2.5
 30
1.0
 11
-0.6871758016874212
 21
2.4900000000000002
 31
1.05
 12
0.6871758016874253
 22
2.4900000000000002
 32
1.05
 13
0.6978289584773498
 23
2.5
 33
1.0
  0
3DFACE
  5
149
  8
0
 10
-0.712743377983238
 20
2.5
 30
0.9300000000000001
 11
-0.6978289584773446
 21
2.5
 31
1.0
 12
0.6978289584773498
 22
2.5
 32
1.0
 13
0.7127433779832441
 23
2.5
 33
0.9300000000000001
  0
3DFACE
  5
17E
  8
0
 10
0.7127433779832439
 20
2.5
 30
0.9300000000000001
 11
0.6978289584773498
 21
2.5
 31
1.0
 12
0.7042208525513031
 22
2.2999999999999989
 32
0.9699999999999999
 13
0.7042208525513031
 23
2.2999999999999989
 33
0.9699999999999999
  0
3DFACE
  5
17F
  8
0
 10
0.6978289584773498
 20
2.5
 30
1.0
 11
0.6871758016874253
 21
2.4900000000000002
 31
1.05
 12
0.704220852551303
 22
2.2999999999999989
 32
0.9699999999999999
 13
0.704220852551303
 23
2.2999999999999989
 33
0.9699999999999999
  0
3DFACE
  5
180
  8
0
 10
0.6871758016874253
 20
2.4900000000000002
 30
1.05
 11
0.6743920135395161
 21
2.4599999999999991
 31
1.1100000000000001
 12
0.704220852551303
 22
2.2999999999999989
 32
0.9699999999999999
 13
0.704220852551303
 23
2.2999999999999989
 33
0.9699999999999999
  0
3DFACE
  5
181
  8
0
 10
0.6743920135395161
 20
2.4599999999999991
 30
1.1100000000000001
 11
0.6616082253916068
 21
2.3900000000000001
 31
1.169999999999999
 12
0.704220852551303
 22
2.2999999999999989
 32
0.9699999999999999
 13
0.704220852551303
 23
2.2999999999999989
 33
0.9699999999999999
  0
3DFACE
  5
182
  8
0
 10
0.6616082253916068
 20
2.3900000000000001
 30
1.169999999999999
 11
0.6557283435044546
 21
2.2999999999999998
 31
1.1975968992248061
 12
0.704220852551303
 22
2.2999999999999989
 32
0.9699999999999999
 13
0.704220852551303
 23
2.2999999999999989
 33
0.9699999999999999
  0
3DFACE
  5
183
  8
0
 10
-0.7042208525513022
 20
2.2999999999999998
 30
0.9699999999999999
 11
-0.7042208525513022
 21
2.2999999999999998
 31
0.9699999999999999
 12
-0.6871758016874212
 22
2.4900000000000002
 32
1.05
 13
-0.6978289584773446
 23
2.5
 33
1.0
  0
3DFACE
  5
184
  8
0
 10
-0.7042208525513022
 20
2.2999999999999998
 30
0.9699999999999999
 11
-0.7042208525513022
 21
2.2999999999999998
 31
0.9699999999999999
 12
-0.6978289584773446
 22
2.5
 32
1.0
 13
-0.7127433779832378
 23
2.5
 33
0.9300000000000001
  0
3DFACE
  5
185
  8
0
 10
-0.7042208525513022
 20
2.2999999999999998
 30
0.9699999999999999
 11
-0.7042208525513022
 21
2.2999999999999998
 31
0.9699999999999999
 12
-0.6743920135395126
 22
2.4599999999999991
 32
1.1100000000000001
 13
-0.6871758016874212
 23
2.4900000000000002
 33
1.05
  0
3DFACE
  5
186
  8
0
 10
-0.7042208525513022
 20
2.2999999999999998
 30
0.9699999999999999
 11
-0.7042208525513022
 21
2.2999999999999998
 31
0.9699999999999999
 12
-0.6616082253916044
 22
2.3900000000000001
 32
1.169999999999999
 13
-0.6743920135395126
 23
2.4599999999999991
 33
1.1100000000000001
  0
3DFACE
  5
187
  8
0
 10
-0.7042208525513022
 20
2.2999999999999998
 30
0.9699999999999999
 11
-0.7042208525513022
 21
2.2999999999999998
 31
0.9699999999999999
 12
-0.6557283435044541
 22
2.2999999999999998
 32
1.1975968992248061
 13
-0.6616082253916044
 23
2.3900000000000001
 33
1.169999999999999
  0
3DFACE
  5
1EE
  8
0
 10
-0.5899999999999995
 20
2.4176806942992339
 30
0.970609138419168
 11
-0.5617157287525377
 21
2.4070626380999989
 31
0.975560419339591
 12
-0.5617157287525377
 22
2.3175877048314359
 32
0.7836808057330268
 13
-0.5899999999999995
 23
2.3162523114814659
 33
0.7530952695303722
  0
3DFACE
  5
1EF
  8
0
 10
-0.5617157287525377
 20
2.4070626380999989
 30
0.975560419339591
 11
-0.5499999999999995
 21
2.3814283828177669
 31
0.9875138688887959
 12
-0.5499999999999995
 22
2.2969047304696271
 32
0.8062523114814659
 13
-0.5617157287525377
 23
2.3175877048314359
 33
0.7836808057330268
  0
3DFACE
  5
1F0
  8
0
 10
-0.5499999999999995
 20
2.3814283828177669
 30
0.9875138688887959
 11
-0.5617157287525377
 21
2.3557941275355359
 31
0.9994673184380009
 12
-0.5617157287525378
 22
2.2663191942669729
 32
0.8075877048314364
 13
-0.5499999999999995
 23
2.2969047304696271
 33
0.8062523114814659
  0
3DFACE
  5
1F1
  8
0
 10
-0.5617157287525377
 20
2.3557941275355359
 30
0.9994673184380009
 11
-0.5899999999999995
 21
2.3451760713363021
 31
1.004418599358424
 12
-0.5899999999999998
 22
2.2437476885185341
 32
0.7869047304696281
 13
-0.5617157287525378
 23
2.2663191942669729
 33
0.8075877048314364
  0
3DFACE
  5
1F2
  8
0
 10
-0.5899999999999995
 20
2.3451760713363021
 30
1.004418599358424
 11
-0.6182842712474616
 21
2.3557941275355359
 31
0.9994673184380009
 12
-0.6182842712474616
 22
2.2424122951685632
 32
0.7563191942669734
 13
-0.5899999999999998
 23
2.2437476885185341
 33
0.7869047304696281
  0
3DFACE
  5
1F3
  8
0
 10
-0.6182842712474616
 20
2.3557941275355359
 30
0.9994673184380009
 11
-0.6299999999999996
 21
2.3814283828177669
 31
0.9875138688887959
 12
-0.6299999999999998
 22
2.2630952695303721
 32
0.733747688518534
 13
-0.6182842712474616
 23
2.2424122951685632
 33
0.7563191942669734
  0
3DFACE
  5
1F4
  8
0
 10
-0.6299999999999996
 20
2.3814283828177669
 30
0.9875138688887959
 11
-0.6182842712474616
 21
2.4070626380999989
 31
0.975560419339591
 12
-0.6182842712474616
 22
2.2936808057330258
 32
0.7324122951685637
 13
-0.6299999999999998
 23
2.2630952695303721
 33
0.733747688518534
  0
3DFACE
  5
1F5
  8
0
 10
-0.6182842712474616
 20
2.4070626380999989
 30
0.975560419339591
 11
-0.5899999999999995
 21
2.4176806942992339
 31
0.970609138419168
 12
-0.5899999999999995
 22
2.3162523114814659
 32
0.7530952695303722
 13
-0.6182842712474616
 23
2.2936808057330258
 33
0.7324122951685637
  0
3DFACE
  5
1F6
  8
0
 10
-0.5899999999999998
 20
2.3162523114814659
 30
0.7530952695303722
 11
-0.5617157287525377
 21
2.3175877048314351
 31
0.7836808057330268
 12
-0.2899999999999998
 22
2.3175877048314351
 32
0.7836808057330268
 13
-0.2899999999999998
 23
2.3162523114814659
 33
0.7530952695303722
  0
3DFACE
  5
1F7
  8
0
 10
-0.5617157287525377
 20
2.3175877048314351
 30
0.7836808057330268
 11
-0.5499999999999998
 21
2.2969047304696271
 31
0.8062523114814659
 12
-0.2899999999999998
 22
2.2969047304696271
 32
0.8062523114814659
 13
-0.2899999999999998
 23
2.3175877048314351
 33
0.7836808057330268
  0
3DFACE
  5
1F8
  8
0
 10
-0.5499999999999998
 20
2.2969047304696271
 30
0.8062523114814659
 11
-0.5617157287525378
 21
2.266319194266972
 31
0.8075877048314364
 12
-0.2899999999999998
 22
2.266319194266972
 32
0.8075877048314364
 13
-0.2899999999999998
 23
2.2969047304696271
 33
0.8062523114814659
  0
3DFACE
  5
1F9
  8
0
 10
-0.5617157287525378
 20
2.266319194266972
 30
0.8075877048314364
 11
-0.5899999999999998
 21
2.2437476885185328
 31
0.7869047304696281
 12
-0.2899999999999998
 22
2.2437476885185328
 32
0.7869047304696281
 13
-0.2899999999999998
 23
2.266319194266972
 33
0.8075877048314364
  0
3DFACE
  5
1FA
  8
0
 10
-0.5899999999999998
 20
2.2437476885185328
 30
0.7869047304696281
 11
-0.6182842712474616
 21
2.2424122951685619
 31
0.7563191942669734
 12
-0.2899999999999998
 22
2.2424122951685619
 32
0.7563191942669734
 13
-0.2899999999999998
 23
2.2437476885185328
 33
0.7869047304696281
  0
3DFACE
  5
1FB
  8
0
 10
-0.6182842712474616
 20
2.2424122951685619
 30
0.7563191942669734
 11
-0.6299999999999998
 21
2.2630952695303712
 31
0.733747688518534
 12
-0.2899999999999998
 22
2.2630952695303712
 32
0.733747688518534
 13
-0.2899999999999998
 23
2.2424122951685619
 33
0.7563191942669734
  0
3DFACE
  5
1FC
  8
0
 10
-0.6299999999999998
 20
2.2630952695303712
 30
0.733747688518534
 11
-0.6182842712474616
 21
2.2936808057330258
 31
0.7324122951685637
 12
-0.2899999999999998
 22
2.2936808057330258
 32
0.7324122951685637
 13
-0.2899999999999998
 23
2.2630952695303712
 33
0.733747688518534
  0
3DFACE
  5
1FD
  8
0
 10
-0.6182842712474616
 20
2.2936808057330258
 30
0.7324122951685637
 11
-0.5899999999999998
 21
2.3162523114814659
 31
0.7530952695303722
 12
-0.2899999999999998
 22
2.3162523114814659
 32
0.7530952695303722
 13
-0.2899999999999998
 23
2.2936808057330258
 33
0.7324122951685637
  0
3DFACE
  5
1FE
  8
0
 10
-0.2899999999999997
 20
2.3799999999999999
 30
0.7700000000000001
 11
-0.2899999999999997
 21
2.350710678118654
 31
0.8407106781186547
 12
0.5100000000000005
 22
2.350710678118654
 32
0.8407106781186547
 13
0.5100000000000005
 23
2.3799999999999999
 33
0.7700000000000001
  0
3DFACE
  5
1FF
  8
0
 10
-0.2899999999999997
 20
2.350710678118654
 30
0.8407106781186547
 11
-0.2899999999999997
 21
2.2799999999999989
 31
0.8699999999999999
 12
0.5100000000000005
 22
2.2799999999999989
 32
0.8699999999999999
 13
0.5100000000000005
 23
2.350710678118654
 33
0.8407106781186547
  0
3DFACE
  5
200
  8
0
 10
-0.2899999999999997
 20
2.2799999999999989
 30
0.8699999999999999
 11
-0.2899999999999997
 21
2.2092893218813452
 31
0.8407106781186547
 12
0.5100000000000003
 22
2.2092893218813452
 32
0.8407106781186547
 13
0.5100000000000005
 23
2.2799999999999989
 33
0.8699999999999999
  0
3DFACE
  5
201
  8
0
 10
-0.2899999999999997
 20
2.2092893218813452
 30
0.8407106781186547
 11
-0.2899999999999997
 21
2.1799999999999988
 31
0.7700000000000001
 12
0.5100000000000003
 22
2.1799999999999988
 32
0.7700000000000001
 13
0.5100000000000003
 23
2.2092893218813452
 33
0.8407106781186547
  0
3DFACE
  5
202
  8
0
 10
-0.2899999999999997
 20
2.1799999999999988
 30
0.7700000000000001
 11
-0.2899999999999997
 21
2.2092893218813452
 31
0.6992893218813454
 12
0.5100000000000003
 22
2.2092893218813452
 32
0.6992893218813454
 13
0.5100000000000003
 23
2.1799999999999988
 33
0.7700000000000001
  0
3DFACE
  5
203
  8
0
 10
-0.2899999999999997
 20
2.2092893218813452
 30
0.6992893218813454
 11
-0.2899999999999997
 21
2.2799999999999989
 31
0.6700000000000002
 12
0.5100000000000005
 22
2.2799999999999989
 32
0.6700000000000002
 13
0.5100000000000003
 23
2.2092893218813452
 33
0.6992893218813454
  0
3DFACE
  5
204
  8
0
 10
-0.2899999999999997
 20
2.2799999999999989
 30
0.6700000000000002
 11
-0.2899999999999997
 21
2.350710678118654
 31
0.6992893218813454
 12
0.5100000000000005
 22
2.350710678118654
 32
0.6992893218813454
 13
0.5100000000000005
 23
2.2799999999999989
 33
0.6700000000000002
  0
3DFACE
  5
205
  8
0
 10
-0.2899999999999997
 20
2.350710678118654
 30
0.6992893218813454
 11
-0.2899999999999997
 21
2.3799999999999999
 31
0.7700000000000001
 12
0.5100000000000005
 22
2.3799999999999999
 32
0.7700000000000001
 13
0.5100000000000005
 23
2.350710678118654
 33
0.6992893218813454
  0
3DFACE
  5
206
  8
0
 10
-0.5599999999999998
 20
2.2299999999999991
 30
0.5700000000000001
 11
-0.5599999999999998
 21
2.2007106781186541
 31
0.6407106781186548
 12
0.2400000000000003
 22
2.2007106781186541
 32
0.6407106781186548
 13
0.2400000000000003
 23
2.2299999999999991
 33
0.5700000000000001
  0
3DFACE
  5
207
  8
0
 10
-0.5599999999999998
 20
2.2007106781186541
 30
0.6407106781186548
 11
-0.5599999999999998
 21
2.129999999999999
 31
0.6700000000000002
 12
0.2400000000000003
 22
2.129999999999999
 32
0.6700000000000002
 13
0.2400000000000003
 23
2.2007106781186541
 33
0.6407106781186548
  0
3DFACE
  5
208
  8
0
 10
-0.5599999999999998
 20
2.129999999999999
 30
0.6700000000000002
 11
-0.5599999999999998
 21
2.0592893218813439
 31
0.6407106781186548
 12
0.2400000000000003
 22
2.0592893218813439
 32
0.6407106781186548
 13
0.2400000000000003
 23
2.129999999999999
 33
0.6700000000000002
  0
3DFACE
  5
209
  8
0
 10
-0.5599999999999998
 20
2.0592893218813439
 30
0.6407106781186548
 11
-0.5599999999999998
 21
2.029999999999998
 31
0.5700000000000001
 12
0.2400000000000003
 22
2.029999999999998
 32
0.5700000000000001
 13
0.2400000000000003
 23
2.0592893218813439
 33
0.6407106781186548
  0
3DFACE
  5
20A
  8
0
 10
-0.5599999999999998
 20
2.029999999999998
 30
0.5700000000000001
 11
-0.5599999999999998
 21
2.0592893218813439
 31
0.4992893218813454
 12
0.2400000000000003
 22
2.0592893218813439
 32
0.4992893218813454
 13
0.2400000000000003
 23
2.029999999999998
 33
0.5700000000000001
  0
3DFACE
  5
20B
  8
0
 10
-0.5599999999999998
 20
2.0592893218813439
 30
0.4992893218813454
 11
-0.5599999999999998
 21
2.129999999999999
 31
0.4700000000000001
 12
0.2400000000000003
 22
2.129999999999999
 32
0.4700000000000001
 13
0.2400000000000003
 23
2.0592893218813439
 33
0.4992893218813454
  0
3DFACE
  5
20C
  8
0
 10
-0.5599999999999998
 20
2.129999999999999
 30
0.4700000000000001
 11
-0.5599999999999998
 21
2.2007106781186541
 31
0.4992893218813454
 12
0.2400000000000003
 22
2.2007106781186541
 32
0.4992893218813454
 13
0.2400000000000003
 23
2.129999999999999
 33
0.4700000000000001
  0
3DFACE
  5
20D
  8
0
 10
-0.5599999999999998
 20
2.2007106781186541
 30
0.4992893218813454
 11
-0.5599999999999998
 21
2.2299999999999991
 31
0.5700000000000001
 12
0.2400000000000003
 22
2.2299999999999991
 32
0.5700000000000001
 13
0.2400000000000003
 23
2.2007106781186541
 33
0.4992893218813454
  0
3DFACE
  5
24C
  8
0
 10
0.7000000000000003
 20
2.383211714892965
 30
1.085986300191722
 11
0.6800000000000005
 21
2.3889692722772682
 31
1.0787311661065819
 12
0.6800000000000005
 22
2.3442318056429872
 32
0.9827913593032999
 13
0.7000000000000003
 23
2.3367237061014881
 33
0.9862924436176909
  0
3DFACE
  5
24F
  8
0
 10
0.6800000000000005
 20
2.433054050001966
 30
1.02317966185614
 11
0.7000000000000003
 21
2.4388116073862691
 31
1.0159245277710001
 12
0.7000000000000003
 22
2.4092283290644199
 32
0.9524829826784348
 13
0.6800000000000005
 23
2.4017202295229221
 33
0.9559840669928256
  0
3DFACE
  5
250
  8
0
 10
0.7000000000000003
 20
2.4388116073862691
 30
1.0159245277710001
 11
0.7200000000000003
 21
2.433054050001966
 31
1.02317966185614
 12
0.7200000000000003
 22
2.4017202295229221
 32
0.9559840669928256
 13
0.7000000000000003
 23
2.4092283290644199
 33
0.9524829826784348
  0
3DFACE
  5
253
  8
0
 10
0.7200000000000003
 20
2.3889692722772682
 30
1.0787311661065819
 11
0.7000000000000003
 21
2.383211714892965
 31
1.085986300191722
 12
0.7000000000000003
 22
2.3367237061014881
 32
0.9862924436176909
 13
0.7200000000000003
 23
2.3442318056429872
 33
0.9827913593032999
  0
3DFACE
  5
255
  8
0
 10
0.6800000000000005
 20
2.3889692722772682
 30
1.0787311661065819
 11
0.6800000000000005
 21
2.433054050001966
 31
1.02317966185614
 12
0.6800000000000005
 22
2.4017202295229221
 32
0.9559840669928256
 13
0.6800000000000005
 23
2.3442318056429872
 33
0.9827913593032999
  0
3DFACE
  5
256
  8
0
 10
0.7200000000000003
 20
2.433054050001966
 30
1.02317966185614
 11
0.7200000000000003
 21
2.3889692722772682
 31
1.0787311661065819
 12
0.7200000000000003
 22
2.3442318056429872
 32
0.9827913593032999
 13
0.7200000000000003
 23
2.4017202295229221
 33
0.9559840669928256
  0
3DFACE
  5
25A
  8
0
 10
0.7000000000000003
 20
2.4388116073862691
 30
1.0159245277710001
 11
0.7000000000000003
 21
2.383211714892965
 31
1.085986300191722
 12
0.7200000000000003
 22
2.3889692722772682
 32
1.0787311661065819
 13
0.7200000000000003
 23
2.433054050001966
 33
1.02317966185614
  0
3DFACE
  5
25B
  8
0
 10
0.6800000000000005
 20
2.433054050001966
 30
1.02317966185614
 11
0.6800000000000003
 21
2.3889692722772682
 31
1.0787311661065819
 12
0.7000000000000003
 22
2.383211714892965
 32
1.085986300191722
 13
0.7000000000000003
 23
2.4388116073862691
 33
1.0159245277710001
  0
3DFACE
  5
25C
  8
0
 10
0.7000000000000003
 20
2.2437476885185328
 30
0.7869047304696281
 11
0.6717157287525383
 21
2.266319194266972
 31
0.8075877048314364
 12
0.5100000000000003
 22
2.266319194266972
 32
0.8075877048314364
 13
0.5100000000000003
 23
2.2437476885185328
 33
0.7869047304696281
  0
3DFACE
  5
25D
  8
0
 10
0.6717157287525383
 20
2.266319194266972
 30
0.8075877048314364
 11
0.6600000000000005
 21
2.2969047304696271
 31
0.8062523114814659
 12
0.5100000000000005
 22
2.2969047304696271
 32
0.8062523114814659
 13
0.5100000000000003
 23
2.266319194266972
 33
0.8075877048314364
  0
3DFACE
  5
25E
  8
0
 10
0.6600000000000005
 20
2.2969047304696271
 30
0.8062523114814659
 11
0.6717157287525384
 21
2.3175877048314351
 31
0.7836808057330268
 12
0.5100000000000005
 22
2.3175877048314351
 32
0.7836808057330268
 13
0.5100000000000005
 23
2.2969047304696271
 33
0.8062523114814659
  0
3DFACE
  5
25F
  8
0
 10
0.6717157287525384
 20
2.3175877048314351
 30
0.7836808057330268
 11
0.7000000000000004
 21
2.3162523114814659
 31
0.7530952695303722
 12
0.5100000000000005
 22
2.3162523114814659
 32
0.7530952695303722
 13
0.5100000000000005
 23
2.3175877048314351
 33
0.7836808057330268
  0
3DFACE
  5
260
  8
0
 10
0.7000000000000004
 20
2.3162523114814659
 30
0.7530952695303722
 11
0.7282842712474622
 21
2.2936808057330258
 31
0.7324122951685637
 12
0.5100000000000005
 22
2.2936808057330258
 32
0.7324122951685637
 13
0.5100000000000005
 23
2.3162523114814659
 33
0.7530952695303722
  0
3DFACE
  5
261
  8
0
 10
0.7282842712474622
 20
2.2936808057330258
 30
0.7324122951685637
 11
0.7400000000000003
 21
2.2630952695303712
 31
0.733747688518534
 12
0.5100000000000003
 22
2.2630952695303712
 32
0.733747688518534
 13
0.5100000000000005
 23
2.2936808057330258
 33
0.7324122951685637
  0
3DFACE
  5
262
  8
0
 10
0.7400000000000003
 20
2.2630952695303712
 30
0.733747688518534
 11
0.7282842712474622
 21
2.2424122951685619
 31
0.7563191942669734
 12
0.5100000000000003
 22
2.2424122951685619
 32
0.7563191942669734
 13
0.5100000000000003
 23
2.2630952695303712
 33
0.733747688518534
  0
3DFACE
  5
263
  8
0
 10
0.7282842712474622
 20
2.2424122951685619
 30
0.7563191942669734
 11
0.7000000000000003
 21
2.2437476885185328
 31
0.7869047304696281
 12
0.5100000000000003
 22
2.2437476885185328
 32
0.7869047304696281
 13
0.5100000000000003
 23
2.2424122951685619
 33
0.7563191942669734
  0
3DFACE
  5
264
  8
0
 10
0.7000000000000003
 20
2.3282713408666731
 30
0.968166287876958
 11
0.6717157287525384
 21
2.3388893970659081
 31
0.9632150069565348
 12
0.6717157287525383
 22
2.2663191942669729
 32
0.8075877048314364
 13
0.7000000000000002
 23
2.2437476885185341
 33
0.7869047304696281
  0
3DFACE
  5
265
  8
0
 10
0.6717157287525384
 20
2.3388893970659081
 30
0.9632150069565348
 11
0.6600000000000003
 21
2.3645236523481401
 31
0.9512615574073299
 12
0.6600000000000003
 22
2.2969047304696271
 32
0.8062523114814659
 13
0.6717157287525383
 23
2.2663191942669729
 33
0.8075877048314364
  0
3DFACE
  5
266
  8
0
 10
0.6600000000000003
 20
2.3645236523481401
 30
0.9512615574073299
 11
0.6717157287525384
 21
2.3901579076303712
 31
0.939308107858125
 12
0.6717157287525384
 22
2.3175877048314359
 32
0.7836808057330268
 13
0.6600000000000003
 23
2.2969047304696271
 33
0.8062523114814659
  0
3DFACE
  5
267
  8
0
 10
0.6717157287525384
 20
2.3901579076303712
 30
0.939308107858125
 11
0.7000000000000003
 21
2.4007759638296058
 31
0.934356826937702
 12
0.7000000000000003
 22
2.3162523114814659
 32
0.7530952695303722
 13
0.6717157287525384
 23
2.3175877048314359
 33
0.7836808057330268
  0
3DFACE
  5
268
  8
0
 10
0.7000000000000003
 20
2.4007759638296058
 30
0.934356826937702
 11
0.7282842712474622
 21
2.3901579076303712
 31
0.939308107858125
 12
0.7282842712474622
 22
2.2936808057330258
 32
0.7324122951685637
 13
0.7000000000000003
 23
2.3162523114814659
 33
0.7530952695303722
  0
3DFACE
  5
269
  8
0
 10
0.7282842712474622
 20
2.3901579076303712
 30
0.939308107858125
 11
0.7400000000000003
 21
2.3645236523481401
 31
0.9512615574073299
 12
0.7400000000000003
 22
2.2630952695303721
 32
0.733747688518534
 13
0.7282842712474622
 23
2.2936808057330258
 33
0.7324122951685637
  0
3DFACE
  5
26A
  8
0
 10
0.7400000000000003
 20
2.3645236523481401
 30
0.9512615574073299
 11
0.7282842712474622
 21
2.3388893970659081
 31
0.9632150069565348
 12
0.7282842712474622
 22
2.2424122951685632
 32
0.7563191942669734
 13
0.7400000000000003
 23
2.2630952695303721
 33
0.733747688518534
  0
3DFACE
  5
26B
  8
0
 10
0.7282842712474622
 20
2.3388893970659081
 30
0.9632150069565348
 11
0.7000000000000003
 21
2.3282713408666731
 31
0.968166287876958
 12
0.7000000000000002
 22
2.2437476885185341
 32
0.7869047304696281
 13
0.7282842712474622
 23
2.2424122951685632
 33
0.7563191942669734
  0
3DFACE
  5
26C
  8
0
 10
0.7200000000000003
 20
2.3442318056429872
 30
0.9827913593032999
 11
0.7000000000000003
 21
2.3367237061014881
 31
0.9862924436176909
 12
0.7000000000000003
 22
2.3282713408666731
 32
0.968166287876958
 13
0.7282842712474622
 23
2.3388893970659081
 33
0.9632150069565348
  0
3DFACE
  5
26D
  8
0
 10
0.7000000000000003
 20
2.3367237061014881
 30
0.9862924436176909
 11
0.6800000000000005
 21
2.3442318056429872
 31
0.9827913593032999
 12
0.6717157287525384
 22
2.3388893970659081
 32
0.9632150069565348
 13
0.7000000000000003
 23
2.3282713408666731
 33
0.968166287876958
  0
3DFACE
  5
26E
  8
0
 10
0.7000000000000003
 20
2.4092283290644199
 30
0.9524829826784348
 11
0.7200000000000003
 21
2.4017202295229221
 31
0.9559840669928256
 12
0.7282842712474622
 22
2.3901579076303712
 32
0.939308107858125
 13
0.7000000000000003
 23
2.4007759638296058
 33
0.934356826937702
  0
3DFACE
  5
26F
  8
0
 10
0.6800000000000005
 20
2.4017202295229221
 30
0.9559840669928256
 11
0.7000000000000003
 21
2.4092283290644199
 31
0.9524829826784348
 12
0.7000000000000003
 22
2.4007759638296058
 32
0.934356826937702
 13
0.6717157287525384
 23
2.3901579076303712
 33
0.939308107858125
  0
3DFACE
  5
270
  8
0
 10
0.7200000000000003
 20
2.3442318056429872
 30
0.9827913593032999
 11
0.7200000000000003
 21
2.3442318056429872
 31
0.9827913593032999
 12
0.7282842712474622
 22
2.3388893970659081
 32
0.9632150069565348
 13
0.7400000000000003
 23
2.3645236523481401
 33
0.9512615574073299
  0
3DFACE
  5
271
  8
0
 10
0.7200000000000003
 20
2.3442318056429872
 30
0.9827913593032999
 11
0.7200000000000003
 21
2.3442318056429872
 31
0.9827913593032999
 12
0.7400000000000003
 22
2.3645236523481401
 32
0.9512615574073299
 13
0.7200000000000003
 23
2.4017202295229221
 33
0.9559840669928256
  0
3DFACE
  5
272
  8
0
 10
0.7400000000000003
 20
2.3645236523481401
 30
0.9512615574073299
 11
0.7400000000000003
 21
2.3645236523481401
 31
0.9512615574073299
 12
0.7282842712474622
 22
2.3901579076303712
 32
0.939308107858125
 13
0.7200000000000003
 23
2.4017202295229221
 33
0.9559840669928256
  0
3DFACE
  5
273
  8
0
 10
0.6800000000000005
 20
2.3442318056429872
 30
0.9827913593032999
 11
0.6800000000000005
 21
2.3442318056429872
 31
0.9827913593032999
 12
0.6600000000000003
 22
2.3645236523481401
 32
0.9512615574073299
 13
0.6717157287525384
 23
2.3388893970659081
 33
0.9632150069565348
  0
3DFACE
  5
274
  8
0
 10
0.6800000000000005
 20
2.3442318056429872
 30
0.9827913593032999
 11
0.6800000000000005
 21
2.3442318056429872
 31
0.9827913593032999
 12
0.6800000000000005
 22
2.4017202295229221
 32
0.9559840669928256
 13
0.6600000000000003
 23
2.3645236523481401
 33
0.9512615574073299
  0
3DFACE
  5
275
  8
0
 10
0.6600000000000003
 20
2.3645236523481401
 30
0.9512615574073299
 11
0.6600000000000003
 21
2.3645236523481401
 31
0.9512615574073299
 12
0.6800000000000005
 22
2.4017202295229221
 32
0.9559840669928256
 13
0.6717157287525384
 23
2.3901579076303712
 33
0.939308107858125
  0
3DFACE
  5
276
  8
0
 10
-0.7782842712474616
 20
2.3794948974278309
 30
0.9455692960792664
 11
-0.7499999999999997
 21
2.3896410161513768
 31
0.9397114317029975
 12
-0.7499999999999999
 22
2.1646410161513772
 32
0.55
 13
-0.7782842712474617
 23
2.1403527618040998
 33
0.5313629669484373
  0
3DFACE
  5
277
  8
0
 10
-0.7899999999999997
 20
2.3549999999999991
 30
0.9597114317029971
 11
-0.7782842712474616
 21
2.3794948974278309
 31
0.9455692960792664
 12
-0.7782842712474617
 22
2.1403527618040998
 32
0.5313629669484373
 13
-0.7899999999999999
 23
2.109999999999999
 33
0.5353589838486226
  0
3DFACE
  5
278
  8
0
 10
-0.7782842712474616
 20
2.3305051025721668
 30
0.9738535673267282
 11
-0.7899999999999997
 21
2.3549999999999991
 31
0.9597114317029971
 12
-0.7899999999999999
 22
2.109999999999999
 32
0.5353589838486226
 13
-0.7782842712474617
 23
2.091362966948437
 33
0.559647238195899
  0
3DFACE
  5
279
  8
0
 10
-0.7499999999999997
 20
2.3203589838486218
 30
0.979711431702997
 11
-0.7782842712474616
 21
2.3305051025721668
 31
0.9738535673267282
 12
-0.7782842712474617
 22
2.091362966948437
 32
0.559647238195899
 13
-0.7499999999999999
 23
2.0953589838486222
 33
0.5899999999999999
  0
3DFACE
  5
27A
  8
0
 10
-0.7217157287525378
 20
2.3305051025721668
 30
0.9738535673267282
 11
-0.7499999999999997
 21
2.3203589838486218
 31
0.979711431702997
 12
-0.7499999999999999
 22
2.0953589838486222
 32
0.5899999999999999
 13
-0.7217157287525379
 23
2.1196472381958991
 33
0.608637033051563
  0
3DFACE
  5
27B
  8
0
 10
-0.7099999999999996
 20
2.3549999999999991
 30
0.9597114317029971
 11
-0.7217157287525378
 21
2.3305051025721668
 31
0.9738535673267282
 12
-0.7217157287525379
 22
2.1196472381958991
 32
0.608637033051563
 13
-0.7099999999999999
 23
2.149999999999999
 33
0.6046410161513776
  0
3DFACE
  5
27C
  8
0
 10
-0.7217157287525378
 20
2.3794948974278309
 30
0.9455692960792664
 11
-0.7099999999999996
 21
2.3549999999999991
 31
0.9597114317029971
 12
-0.7099999999999999
 22
2.149999999999999
 32
0.6046410161513776
 13
-0.7217157287525379
 23
2.1686370330515619
 33
0.580352761804101
  0
3DFACE
  5
27D
  8
0
 10
-0.7499999999999997
 20
2.3896410161513768
 30
0.9397114317029975
 11
-0.7217157287525378
 21
2.3794948974278309
 31
0.9455692960792664
 12
-0.7217157287525379
 22
2.1686370330515619
 32
0.580352761804101
 13
-0.7499999999999999
 23
2.1646410161513772
 33
0.55
  0
3DFACE
  5
27E
  8
0
 10
-0.7099999999999996
 20
2.3549999999999991
 30
0.9597114317029971
 11
-0.7099999999999996
 21
2.3549999999999991
 31
0.9597114317029971
 12
-0.7299999999999998
 22
2.337533373200765
 32
0.9928898041549553
 13
-0.7217157287525378
 23
2.3305051025721668
 33
0.9738535673267282
  0
3DFACE
  5
27F
  8
0
 10
-0.7299999999999998
 20
2.3924666267992341
 30
0.961174075402417
 11
-0.7299999999999998
 21
2.3924666267992341
 31
0.961174075402417
 12
-0.7299999999999998
 22
2.337533373200765
 32
0.9928898041549553
 13
-0.7099999999999996
 23
2.3549999999999991
 33
0.9597114317029971
  0
3DFACE
  5
280
  8
0
 10
-0.7299999999999998
 20
2.3924666267992341
 30
0.961174075402417
 11
-0.7299999999999998
 21
2.3924666267992341
 31
0.961174075402417
 12
-0.7099999999999996
 22
2.3549999999999991
 32
0.9597114317029971
 13
-0.7217157287525378
 23
2.3794948974278309
 33
0.9455692960792664
  0
3DFACE
  5
281
  8
0
 10
-0.7899999999999997
 20
2.3549999999999991
 30
0.9597114317029971
 11
-0.7899999999999997
 21
2.3549999999999991
 31
0.9597114317029971
 12
-0.7782842712474616
 22
2.3305051025721668
 32
0.9738535673267282
 13
-0.7699999999999997
 23
2.337533373200765
 33
0.9928898041549553
  0
3DFACE
  5
282
  8
0
 10
-0.7699999999999997
 20
2.3924666267992341
 30
0.961174075402417
 11
-0.7699999999999997
 21
2.3924666267992341
 31
0.961174075402417
 12
-0.7899999999999997
 22
2.3549999999999991
 32
0.9597114317029971
 13
-0.7699999999999997
 23
2.337533373200765
 33
0.9928898041549553
  0
3DFACE
  5
283
  8
0
 10
-0.7699999999999997
 20
2.3924666267992341
 30
0.961174075402417
 11
-0.7699999999999997
 21
2.3924666267992341
 31
0.961174075402417
 12
-0.7782842712474616
 22
2.3794948974278309
 32
0.9455692960792664
 13
-0.7899999999999997
 23
2.3549999999999991
 33
0.9597114317029971
  0
3DFACE
  5
284
  8
0
 10
-0.7299999999999998
 20
2.337533373200765
 30
0.9928898041549553
 11
-0.7499999999999997
 21
2.3303589838486221
 31
0.9970319397786862
 12
-0.7499999999999997
 22
2.3203589838486218
 32
0.979711431702997
 13
-0.7217157287525378
 23
2.3305051025721668
 33
0.9738535673267282
  0
3DFACE
  5
285
  8
0
 10
-0.7499999999999997
 20
2.3303589838486221
 30
0.9970319397786862
 11
-0.7699999999999997
 21
2.337533373200765
 31
0.9928898041549553
 12
-0.7782842712474616
 22
2.3305051025721668
 32
0.9738535673267282
 13
-0.7499999999999997
 23
2.3203589838486218
 33
0.979711431702997
  0
3DFACE
  5
286
  8
0
 10
-0.7499999999999997
 20
2.399641016151377
 30
0.9570319397786862
 11
-0.7299999999999998
 21
2.3924666267992341
 31
0.961174075402417
 12
-0.7217157287525378
 22
2.3794948974278309
 32
0.9455692960792664
 13
-0.7499999999999997
 23
2.3896410161513768
 33
0.9397114317029975
  0
3DFACE
  5
287
  8
0
 10
-0.7699999999999997
 20
2.3924666267992341
 30
0.961174075402417
 11
-0.7499999999999997
 21
2.399641016151377
 31
0.9570319397786862
 12
-0.7499999999999997
 22
2.3896410161513768
 32
0.9397114317029975
 13
-0.7782842712474616
 23
2.3794948974278309
 33
0.9455692960792664
  0
3DFACE
  5
288
  8
0
 10
-0.7299999999999997
 20
2.3904623053888998
 30
1.0845654038951711
 11
-0.7499999999999997
 21
2.3853589838486231
 31
1.092294734194974
 12
-0.7499999999999997
 22
2.3303589838486229
 32
0.9970319397786854
 13
-0.7299999999999997
 23
2.337533373200765
 33
0.9928898041549547
  0
3DFACE
  5
289
  8
0
 10
-0.7299999999999997
 20
2.4295376946111
 30
1.0253830483433981
 11
-0.7299999999999997
 21
2.3904623053888998
 31
1.0845654038951711
 12
-0.7299999999999997
 22
2.337533373200765
 32
0.9928898041549547
 13
-0.7299999999999997
 23
2.3924666267992349
 33
0.9611740754024163
  0
3DFACE
  5
28A
  8
0
 10
-0.7499999999999997
 20
2.3853589838486231
 30
1.092294734194974
 11
-0.7699999999999996
 21
2.3904623053888998
 31
1.0845654038951711
 12
-0.7699999999999996
 22
2.337533373200765
 32
0.9928898041549547
 13
-0.7499999999999997
 23
2.3303589838486229
 33
0.9970319397786854
  0
3DFACE
  5
28B
  8
0
 10
-0.7699999999999996
 20
2.3904623053888998
 30
1.0845654038951711
 11
-0.7699999999999996
 21
2.4295376946111
 31
1.0253830483433981
 12
-0.7699999999999996
 22
2.3924666267992349
 32
0.9611740754024163
 13
-0.7699999999999996
 23
2.337533373200765
 33
0.9928898041549547
  0
3DFACE
  5
28C
  8
0
 10
-0.7499999999999997
 20
2.4346410161513781
 30
1.0176537180435949
 11
-0.7299999999999997
 21
2.4295376946111
 31
1.0253830483433981
 12
-0.7299999999999997
 22
2.3924666267992349
 32
0.9611740754024163
 13
-0.7499999999999997
 23
2.3996410161513779
 33
0.9570319397786853
  0
3DFACE
  5
28D
  8
0
 10
-0.7699999999999996
 20
2.4295376946111
 30
1.0253830483433981
 11
-0.7499999999999997
 21
2.4346410161513781
 31
1.0176537180435949
 12
-0.7499999999999997
 22
2.3996410161513779
 32
0.9570319397786853
 13
-0.7699999999999996
 23
2.3924666267992349
 33
0.9611740754024163
  0
3DFACE
  5
28E
  8
0
 10
-0.7499999999999997
 20
2.4346410161513781
 30
1.0176537180435949
 11
-0.7499999999999997
 21
2.3853589838486231
 31
1.092294734194974
 12
-0.7299999999999997
 22
2.3904623053888998
 32
1.0845654038951711
 13
-0.7299999999999997
 23
2.4295376946111
 33
1.0253830483433981
  0
3DFACE
  5
28F
  8
0
 10
-0.7699999999999996
 20
2.4295376946111
 30
1.0253830483433981
 11
-0.7699999999999997
 21
2.3904623053888998
 31
1.0845654038951711
 12
-0.7499999999999997
 22
2.3853589838486231
 32
1.092294734194974
 13
-0.7499999999999997
 23
2.4346410161513781
 33
1.0176537180435949
  0
3DFACE
  5
290
  8
0
 10
-0.7782842712474617
 20
2.1403527618040998
 30
0.531362966948437
 11
-0.75
 21
2.1646410161513758
 31
0.5499999999999999
 12
-0.5599999999999998
 22
2.1646410161513758
 32
0.5499999999999999
 13
-0.5599999999999998
 23
2.1403527618040998
 33
0.531362966948437
  0
3DFACE
  5
291
  8
0
 10
-0.75
 20
2.1646410161513758
 30
0.5499999999999999
 11
-0.7217157287525379
 21
2.1686370330515619
 31
0.5803527618041007
 12
-0.5599999999999998
 22
2.1686370330515619
 32
0.5803527618041007
 13
-0.5599999999999998
 23
2.1646410161513758
 33
0.5499999999999999
  0
3DFACE
  5
292
  8
0
 10
-0.7217157287525379
 20
2.1686370330515619
 30
0.5803527618041007
 11
-0.71
 21
2.149999999999999
 31
0.6046410161513776
 12
-0.5599999999999998
 22
2.149999999999999
 32
0.6046410161513776
 13
-0.5599999999999998
 23
2.1686370330515619
 33
0.5803527618041007
  0
3DFACE
  5
293
  8
0
 10
-0.79
 20
2.1099999999999981
 30
0.5353589838486226
 11
-0.7782842712474617
 21
2.1403527618040998
 31
0.531362966948437
 12
-0.5599999999999998
 22
2.1403527618040998
 32
0.531362966948437
 13
-0.5599999999999998
 23
2.1099999999999981
 33
0.5353589838486226
  0
3DFACE
  5
294
  8
0
 10
-0.71
 20
2.149999999999999
 30
0.6046410161513776
 11
-0.7217157287525379
 21
2.1196472381958991
 31
0.6086370330515627
 12
-0.5599999999999998
 22
2.1196472381958991
 32
0.6086370330515627
 13
-0.5599999999999998
 23
2.149999999999999
 33
0.6046410161513776
  0
3DFACE
  5
295
  8
0
 10
-0.7782842712474617
 20
2.0913629669484362
 30
0.5596472381958995
 11
-0.79
 21
2.1099999999999981
 31
0.5353589838486226
 12
-0.5599999999999998
 22
2.1099999999999981
 32
0.5353589838486226
 13
-0.5599999999999998
 23
2.0913629669484362
 33
0.5596472381958995
  0
3DFACE
  5
296
  8
0
 10
-0.75
 20
2.0953589838486208
 30
0.5899999999999999
 11
-0.7782842712474617
 21
2.0913629669484362
 31
0.5596472381958995
 12
-0.5599999999999998
 22
2.0913629669484362
 32
0.5596472381958995
 13
-0.5599999999999998
 23
2.0953589838486208
 33
0.5899999999999999
  0
3DFACE
  5
297
  8
0
 10
-0.7217157287525379
 20
2.1196472381958991
 30
0.6086370330515627
 11
-0.75
 21
2.0953589838486208
 31
0.5899999999999999
 12
-0.5599999999999998
 22
2.0953589838486208
 32
0.5899999999999999
 13
-0.5599999999999998
 23
2.1196472381958991
 33
0.6086370330515627
  0
3DFACE
  5
29D
  8
0
 10
0.5700000000000003
 20
2.1070569425459569
 30
0.60276608177156
 11
0.5417157287525383
 21
2.1369459271066762
 31
0.6093923101204889
 12
0.2400000000000003
 22
2.1369459271066762
 32
0.6093923101204889
 13
0.2400000000000003
 23
2.1070569425459569
 33
0.60276608177156
  0
3DFACE
  5
29E
  8
0
 10
0.5417157287525383
 20
2.1369459271066762
 30
0.6093923101204889
 11
0.5300000000000004
 21
2.1627660817715588
 31
0.592943057454042
 12
0.2400000000000003
 22
2.1627660817715588
 32
0.592943057454042
 13
0.2400000000000003
 23
2.1369459271066762
 33
0.6093923101204889
  0
3DFACE
  5
29F
  8
0
 10
0.5300000000000004
 20
2.1627660817715588
 30
0.592943057454042
 11
0.5417157287525384
 21
2.1693923101204882
 31
0.5630540728933229
 12
0.2400000000000003
 22
2.1693923101204882
 32
0.5630540728933229
 13
0.2400000000000003
 23
2.1627660817715588
 33
0.592943057454042
  0
3DFACE
  5
2A0
  8
0
 10
0.5417157287525384
 20
2.1693923101204882
 30
0.5630540728933229
 11
0.5700000000000004
 21
2.1529430574540411
 31
0.5372339182284407
 12
0.2400000000000003
 22
2.1529430574540411
 32
0.5372339182284407
 13
0.2400000000000003
 23
2.1693923101204882
 33
0.5630540728933229
  0
3DFACE
  5
2A1
  8
0
 10
0.5700000000000004
 20
2.1529430574540411
 30
0.5372339182284407
 11
0.5982842712474623
 21
2.1230540728933218
 31
0.5306076898795118
 12
0.2400000000000003
 22
2.1230540728933218
 32
0.5306076898795118
 13
0.2400000000000003
 23
2.1529430574540411
 33
0.5372339182284407
  0
3DFACE
  5
2A2
  8
0
 10
0.5982842712474623
 20
2.1230540728933218
 30
0.5306076898795118
 11
0.6100000000000004
 21
2.0972339182284392
 31
0.5470569425459582
 12
0.2400000000000003
 22
2.0972339182284392
 32
0.5470569425459582
 13
0.2400000000000003
 23
2.1230540728933218
 33
0.5306076898795118
  0
3DFACE
  5
2A3
  8
0
 10
0.6100000000000004
 20
2.0972339182284392
 30
0.5470569425459582
 11
0.5982842712474622
 21
2.0906076898795112
 31
0.5769459271066778
 12
0.2400000000000003
 22
2.0906076898795112
 32
0.5769459271066778
 13
0.2400000000000003
 23
2.0972339182284392
 33
0.5470569425459582
  0
3DFACE
  5
2A4
  8
0
 10
0.5982842712474622
 20
2.0906076898795112
 30
0.5769459271066778
 11
0.5700000000000003
 21
2.1070569425459569
 31
0.60276608177156
 12
0.2400000000000003
 22
2.1070569425459569
 32
0.60276608177156
 13
0.2400000000000003
 23
2.0906076898795112
 33
0.5769459271066778
  0
3DFACE
  5
2A5
  8
0
 10
0.5700000000000004
 20
2.319999999999999
 30
0.7518704158103031
 11
0.5417157287525385
 21
2.331715728752537
 31
0.7457715934485306
 12
0.5417157287525383
 22
2.1369459271066762
 32
0.6093923101204889
 13
0.5700000000000002
 23
2.1070569425459569
 33
0.60276608177156
  0
3DFACE
  5
2A6
  8
0
 10
0.5417157287525385
 20
2.331715728752537
 30
0.7457715934485306
 11
0.5300000000000004
 21
2.3599999999999981
 31
0.7310477337882333
 12
0.5300000000000003
 22
2.1627660817715588
 32
0.592943057454042
 13
0.5417157287525383
 23
2.1369459271066762
 33
0.6093923101204889
  0
3DFACE
  5
2A7
  8
0
 10
0.5300000000000004
 20
2.3599999999999981
 30
0.7310477337882333
 11
0.5417157287525385
 21
2.388284271247461
 31
0.7163238741279363
 12
0.5417157287525384
 22
2.1693923101204882
 32
0.5630540728933229
 13
0.5300000000000003
 23
2.1627660817715588
 33
0.592943057454042
  0
3DFACE
  5
2A8
  8
0
 10
0.5417157287525385
 20
2.388284271247461
 30
0.7163238741279363
 11
0.5700000000000004
 21
2.399999999999999
 31
0.710225051766164
 12
0.5700000000000003
 22
2.1529430574540411
 32
0.5372339182284407
 13
0.5417157287525384
 23
2.1693923101204882
 33
0.5630540728933229
  0
3DFACE
  5
2A9
  8
0
 10
0.5700000000000004
 20
2.399999999999999
 30
0.710225051766164
 11
0.5982842712474623
 21
2.388284271247461
 31
0.7163238741279363
 12
0.5982842712474623
 22
2.1230540728933218
 32
0.5306076898795118
 13
0.5700000000000003
 23
2.1529430574540411
 33
0.5372339182284407
  0
3DFACE
  5
2AA
  8
0
 10
0.5982842712474623
 20
2.388284271247461
 30
0.7163238741279363
 11
0.6100000000000004
 21
2.3599999999999981
 31
0.7310477337882333
 12
0.6100000000000003
 22
2.0972339182284392
 32
0.5470569425459582
 13
0.5982842712474623
 23
2.1230540728933218
 33
0.5306076898795118
  0
3DFACE
  5
2AB
  8
0
 10
0.6100000000000004
 20
2.3599999999999981
 30
0.7310477337882333
 11
0.5982842712474623
 21
2.331715728752537
 31
0.7457715934485304
 12
0.5982842712474622
 22
2.0906076898795112
 32
0.5769459271066778
 13
0.6100000000000003
 23
2.0972339182284392
 33
0.5470569425459582
  0
3DFACE
  5
2AC
  8
0
 10
0.5982842712474623
 20
2.331715728752537
 30
0.7457715934485304
 11
0.5700000000000004
 21
2.319999999999999
 31
0.7518704158103031
 12
0.5700000000000002
 22
2.1070569425459569
 32
0.60276608177156
 13
0.5982842712474622
 23
2.0906076898795112
 33
0.5769459271066778
  0
3DFACE
  5
2C1
  8
0
 10
0.5300000000000004
 20
2.359999999999999
 30
0.7310477337882333
 11
0.5417157287525385
 21
2.331715728752537
 31
0.7457715934485306
 12
0.5417157287525385
 22
2.331715728752537
 32
0.9699999999999999
 13
0.5300000000000004
 23
2.359999999999999
 33
0.9599999999999999
  0
3DFACE
  5
2C2
  8
0
 10
0.5417157287525385
 20
2.331715728752537
 30
0.7457715934485306
 11
0.5700000000000004
 21
2.319999999999999
 31
0.7518704158103031
 12
0.5700000000000004
 22
2.319999999999999
 32
0.9699999999999999
 13
0.5417157287525385
 23
2.331715728752537
 33
0.9699999999999999
  0
3DFACE
  5
2C3
  8
0
 10
0.5700000000000004
 20
2.319999999999999
 30
0.7518704158103031
 11
0.5982842712474623
 21
2.331715728752537
 31
0.7457715934485306
 12
0.5982842712474623
 22
2.331715728752537
 32
0.9699999999999999
 13
0.5700000000000004
 23
2.319999999999999
 33
0.9699999999999999
  0
3DFACE
  5
2C4
  8
0
 10
0.5982842712474623
 20
2.331715728752537
 30
0.7457715934485306
 11
0.6100000000000004
 21
2.359999999999999
 31
0.7310477337882333
 12
0.6100000000000004
 22
2.359999999999999
 32
0.9599999999999999
 13
0.5982842712474623
 23
2.331715728752537
 33
0.9699999999999999
  0
3DFACE
  5
2C5
  8
0
 10
0.6100000000000004
 20
2.359999999999999
 30
0.7310477337882333
 11
0.5982842712474623
 21
2.388284271247461
 31
0.7163238741279363
 12
0.5982842712474623
 22
2.388284271247461
 32
0.9599999999999999
 13
0.6100000000000004
 23
2.359999999999999
 33
0.9599999999999999
  0
3DFACE
  5
2C6
  8
0
 10
0.5982842712474623
 20
2.388284271247461
 30
0.7163238741279363
 11
0.5700000000000004
 21
2.399999999999999
 31
0.710225051766164
 12
0.5700000000000004
 22
2.399999999999999
 32
0.95
 13
0.5982842712474623
 23
2.388284271247461
 33
0.9599999999999999
  0
3DFACE
  5
2C7
  8
0
 10
0.5700000000000004
 20
2.399999999999999
 30
0.710225051766164
 11
0.5417157287525385
 21
2.388284271247461
 31
0.7163238741279363
 12
0.5417157287525385
 22
2.388284271247461
 32
0.9599999999999999
 13
0.5700000000000004
 23
2.399999999999999
 33
0.95
  0
3DFACE
  5
2C8
  8
0
 10
0.5417157287525385
 20
2.388284271247461
 30
0.7163238741279363
 11
0.5300000000000004
 21
2.359999999999999
 31
0.7310477337882333
 12
0.5300000000000004
 22
2.359999999999999
 32
0.9599999999999999
 13
0.5417157287525385
 23
2.388284271247461
 33
0.9599999999999999
  0
3DFACE
  5
2CA
  8
0
 10
-0.2899999999999998
 20
2.2969047304696271
 30
0.8062523114814659
 11
-0.2899999999999998
 21
2.266319194266972
 31
0.8075877048314364
 12
-0.2899999999999998
 22
2.2092893218813452
 32
0.8407106781186547
 13
-0.2899999999999998
 23
2.2799999999999989
 33
0.8699999999999999
  0
3DFACE
  5
2CB
  8
0
 10
0.5100000000000005
 20
2.2799999999999989
 30
0.8699999999999999
 11
0.5100000000000003
 21
2.2092893218813452
 31
0.8407106781186547
 12
0.5100000000000003
 22
2.2437476885185328
 32
0.7869047304696281
 13
0.5100000000000003
 23
2.266319194266972
 33
0.8075877048314364
  0
3DFACE
  5
2CC
  8
0
 10
0.5100000000000003
 20
2.2092893218813452
 30
0.8407106781186545
 11
0.5100000000000003
 21
2.1800000000000002
 31
0.7700000000000001
 12
0.5100000000000003
 22
2.2424122951685619
 32
0.7563191942669723
 13
0.5100000000000003
 23
2.2437476885185328
 33
0.7869047304696273
  0
3DFACE
  5
2CD
  8
0
 10
-0.2899999999999998
 20
2.266319194266972
 30
0.8075877048314353
 11
-0.2899999999999998
 21
2.2437476885185328
 31
0.7869047304696273
 12
-0.2899999999999998
 22
2.1800000000000002
 32
0.7700000000000001
 13
-0.2899999999999998
 23
2.2092893218813452
 33
0.8407106781186545
  0
3DFACE
  5
2CE
  8
0
 10
0.5100000000000003
 20
2.1800000000000002
 30
0.7700000000000005
 11
0.5100000000000003
 21
2.2092893218813452
 31
0.6992893218813459
 12
0.5100000000000003
 22
2.2630952695303712
 32
0.7337476885185339
 13
0.5100000000000003
 23
2.2424122951685632
 33
0.7563191942669736
  0
3DFACE
  5
2CF
  8
0
 10
-0.2899999999999998
 20
2.2437476885185341
 30
0.7869047304696278
 11
-0.2899999999999998
 21
2.2424122951685632
 31
0.7563191942669736
 12
-0.2899999999999998
 22
2.2092893218813452
 32
0.6992893218813459
 13
-0.2899999999999998
 23
2.1800000000000002
 33
0.7700000000000005
  0
3DFACE
  5
2D0
  8
0
 10
0.5100000000000002
 20
2.2092893218813439
 30
0.6992893218813454
 11
0.5100000000000003
 21
2.279999999999998
 31
0.6700000000000004
 12
0.5100000000000003
 22
2.2936808057330249
 32
0.7324122951685635
 13
0.5100000000000002
 23
2.2630952695303699
 33
0.7337476885185339
  0
3DFACE
  5
2D1
  8
0
 10
-0.2899999999999997
 20
2.2424122951685619
 30
0.7563191942669727
 11
-0.2899999999999997
 21
2.2630952695303699
 31
0.7337476885185339
 12
-0.2899999999999997
 22
2.279999999999998
 32
0.6700000000000004
 13
-0.2899999999999997
 23
2.2092893218813439
 33
0.6992893218813454
  0
3DFACE
  5
2D2
  8
0
 10
0.5100000000000005
 20
2.279999999999998
 30
0.67
 11
0.5100000000000005
 21
2.3507106781186531
 31
0.6992893218813451
 12
0.5100000000000005
 22
2.316252311481465
 32
0.7530952695303718
 13
0.5100000000000005
 23
2.2936808057330249
 33
0.7324122951685634
  0
3DFACE
  5
2D3
  8
0
 10
-0.2899999999999998
 20
2.2630952695303712
 30
0.7337476885185339
 11
-0.2899999999999998
 21
2.2936808057330249
 31
0.7324122951685634
 12
-0.2899999999999998
 22
2.3507106781186531
 32
0.6992893218813451
 13
-0.2899999999999998
 23
2.279999999999998
 33
0.67
  0
3DFACE
  5
2D4
  8
0
 10
0.5100000000000005
 20
2.350710678118654
 30
0.699289321881345
 11
0.5100000000000005
 21
2.379999999999999
 31
0.7699999999999996
 12
0.5100000000000005
 22
2.3175877048314359
 32
0.7836808057330265
 13
0.5100000000000005
 23
2.3162523114814659
 33
0.7530952695303715
  0
3DFACE
  5
2D5
  8
0
 10
-0.2899999999999998
 20
2.2936808057330258
 30
0.7324122951685635
 11
-0.2899999999999998
 21
2.3162523114814659
 31
0.7530952695303715
 12
-0.2899999999999998
 22
2.379999999999999
 32
0.7699999999999996
 13
-0.2899999999999998
 23
2.350710678118654
 33
0.699289321881345
  0
3DFACE
  5
2D6
  8
0
 10
0.5100000000000005
 20
2.3799999999999999
 30
0.7699999999999996
 11
0.5100000000000005
 21
2.350710678118654
 31
0.8407106781186541
 12
0.5100000000000005
 22
2.2969047304696271
 32
0.8062523114814661
 13
0.5100000000000005
 23
2.3175877048314359
 33
0.7836808057330265
  0
3DFACE
  5
2D7
  8
0
 10
-0.2899999999999998
 20
2.3162523114814659
 30
0.7530952695303724
 11
-0.2899999999999998
 21
2.3175877048314359
 31
0.7836808057330265
 12
-0.2899999999999998
 22
2.350710678118654
 32
0.8407106781186541
 13
-0.2899999999999998
 23
2.3799999999999999
 33
0.7699999999999996
  0
3DFACE
  5
2D8
  8
0
 10
0.5100000000000005
 20
2.3507106781186549
 30
0.8407106781186545
 11
0.5100000000000005
 21
2.2799999999999998
 31
0.8699999999999996
 12
0.5100000000000003
 22
2.266319194266972
 32
0.8075877048314371
 13
0.5100000000000005
 23
2.2969047304696271
 33
0.8062523114814656
  0
3DFACE
  5
2D9
  8
0
 10
-0.2899999999999998
 20
2.3175877048314351
 30
0.7836808057330269
 11
-0.2899999999999998
 21
2.2969047304696271
 31
0.8062523114814656
 12
-0.2899999999999998
 22
2.2799999999999998
 32
0.8699999999999996
 13
-0.2899999999999998
 23
2.3507106781186549
 33
0.8407106781186545
  0
3DFACE
  5
2DA
  8
0
 10
-0.5599999999999998
 20
2.1196472381958982
 30
0.6086370330515628
 11
-0.5599999999999998
 21
2.0953589838486208
 31
0.5900000000000001
 12
-0.5599999999999998
 22
2.0592893218813439
 32
0.6407106781186548
 13
-0.5599999999999998
 23
2.129999999999999
 33
0.6700000000000002
  0
3DFACE
  5
2DB
  8
0
 10
0.2400000000000003
 20
2.129999999999999
 30
0.6700000000000002
 11
0.2400000000000003
 21
2.0592893218813439
 31
0.6407106781186548
 12
0.2400000000000003
 22
2.1070569425459569
 32
0.60276608177156
 13
0.2400000000000003
 23
2.1369459271066762
 33
0.6093923101204889
  0
3DFACE
  5
2DC
  8
0
 10
0.2400000000000003
 20
2.0592893218813439
 30
0.6407106781186549
 11
0.2400000000000003
 21
2.0299999999999989
 31
0.5700000000000003
 12
0.2400000000000003
 22
2.0906076898795112
 32
0.5769459271066771
 13
0.2400000000000003
 23
2.1070569425459569
 33
0.6027660817715593
  0
3DFACE
  5
2DD
  8
0
 10
-0.5599999999999998
 20
2.0953589838486222
 30
0.5900000000000003
 11
-0.5599999999999998
 21
2.091362966948437
 31
0.5596472381958995
 12
-0.5599999999999998
 22
2.0299999999999989
 32
0.5700000000000003
 13
-0.5599999999999998
 23
2.0592893218813439
 33
0.6407106781186549
  0
3DFACE
  5
2DE
  8
0
 10
0.2400000000000003
 20
2.029999999999998
 30
0.5700000000000003
 11
0.2400000000000003
 21
2.0592893218813439
 31
0.4992893218813457
 12
0.2400000000000003
 22
2.0972339182284392
 32
0.5470569425459582
 13
0.2400000000000003
 23
2.0906076898795098
 33
0.5769459271066771
  0
3DFACE
  5
2DF
  8
0
 10
-0.5599999999999998
 20
2.0913629669484362
 30
0.5596472381958995
 11
-0.5599999999999998
 21
2.1099999999999981
 31
0.5353589838486226
 12
-0.5599999999999998
 22
2.0592893218813439
 32
0.4992893218813457
 13
-0.5599999999999998
 23
2.029999999999998
 33
0.5700000000000003
  0
3DFACE
  5
2E0
  8
0
 10
0.2400000000000002
 20
2.0592893218813439
 30
0.4992893218813457
 11
0.2400000000000002
 21
2.1299999999999981
 31
0.4700000000000007
 12
0.2400000000000002
 22
2.1230540728933209
 32
0.5306076898795116
 13
0.2400000000000002
 23
2.0972339182284392
 33
0.5470569425459578
  0
3DFACE
  5
2E1
  8
0
 10
-0.5599999999999997
 20
2.1099999999999981
 30
0.5353589838486226
 11
-0.5599999999999997
 21
2.1403527618040998
 31
0.5313629669484375
 12
-0.5599999999999997
 22
2.1299999999999981
 32
0.4700000000000007
 13
-0.5599999999999997
 23
2.0592893218813439
 33
0.4992893218813457
  0
3DFACE
  5
2E2
  8
0
 10
0.2400000000000003
 20
2.129999999999999
 30
0.4700000000000001
 11
0.2400000000000003
 21
2.2007106781186541
 31
0.4992893218813453
 12
0.2400000000000003
 22
2.1529430574540411
 32
0.5372339182284404
 13
0.2400000000000003
 23
2.1230540728933218
 33
0.5306076898795114
  0
3DFACE
  5
2E3
  8
0
 10
-0.5599999999999998
 20
2.1403527618040998
 30
0.5313629669484374
 11
-0.5599999999999998
 21
2.1646410161513772
 31
0.55
 12
-0.5599999999999998
 22
2.2007106781186541
 32
0.4992893218813453
 13
-0.5599999999999998
 23
2.129999999999999
 33
0.4700000000000001
  0
3DFACE
  5
2E4
  8
0
 10
0.2400000000000003
 20
2.2007106781186541
 30
0.4992893218813457
 11
0.2400000000000003
 21
2.2299999999999991
 31
0.57
 12
0.2400000000000003
 22
2.1693923101204882
 32
0.5630540728933227
 13
0.2400000000000003
 23
2.1529430574540411
 33
0.5372339182284405
  0
3DFACE
  5
2E5
  8
0
 10
-0.5599999999999998
 20
2.1646410161513772
 30
0.5499999999999999
 11
-0.5599999999999998
 21
2.1686370330515619
 31
0.5803527618041012
 12
-0.5599999999999998
 22
2.2299999999999991
 32
0.57
 13
-0.5599999999999998
 23
2.2007106781186541
 33
0.4992893218813457
  0
3DFACE
  5
2E6
  8
0
 10
0.2400000000000003
 20
2.2299999999999991
 30
0.5700000000000003
 11
0.2400000000000003
 21
2.2007106781186541
 31
0.6407106781186549
 12
0.2400000000000003
 22
2.1627660817715588
 32
0.5929430574540424
 13
0.2400000000000003
 23
2.1693923101204882
 33
0.5630540728933237
  0
3DFACE
  5
2E7
  8
0
 10
-0.5599999999999998
 20
2.168637033051561
 30
0.5803527618041012
 11
-0.5599999999999998
 21
2.149999999999999
 31
0.604641016151378
 12
-0.5599999999999998
 22
2.2007106781186541
 32
0.6407106781186549
 13
-0.5599999999999998
 23
2.2299999999999991
 33
0.5700000000000003
  0
3DFACE
  5
2E8
  8
0
 10
0.2400000000000003
 20
2.2007106781186541
 30
0.6407106781186545
 11
0.2400000000000003
 21
2.129999999999999
 31
0.6699999999999995
 12
0.2400000000000003
 22
2.1369459271066762
 32
0.6093923101204886
 13
0.2400000000000003
 23
2.1627660817715588
 33
0.5929430574540424
  0
3DFACE
  5
2E9
  8
0
 10
-0.5599999999999998
 20
2.149999999999999
 30
0.6046410161513771
 11
-0.5599999999999998
 21
2.1196472381958982
 31
0.6086370330515627
 12
-0.5599999999999998
 22
2.129999999999999
 32
0.6699999999999995
 13
-0.5599999999999998
 23
2.2007106781186541
 33
0.6407106781186545
  0
3DFACE
  5
2EF
  8
0
 10
-0.6600000000000003
 20
-1.03
 30
1.3700000000000001
 11
-0.6000000000000001
 21
-1.1100000000000001
 31
1.3700000000000001
 12
-0.2200000000000001
 22
-1.1100000000000001
 32
1.3700000000000001
 13
-0.1800000000000001
 23
-1.05
 33
1.3700000000000001
  0
3DFACE
  5
2F8
  8
0
 10
-0.6900000000000003
 20
-0.8299999999999999
 30
1.3700000000000001
 11
-0.6600000000000003
 21
-1.03
 31
1.3700000000000001
 12
-0.1800000000000001
 22
-1.05
 32
1.3700000000000001
 13
-0.1800000000000001
 23
-0.94
 33
1.3700000000000001
  0
3DFACE
  5
2FC
  8
0
 10
-0.1800000000000001
 20
-1.1499999999999999
 30
1.3100000000000001
 11
-0.2200000000000002
 21
-1.1100000000000001
 31
1.3700000000000001
 12
-0.6000000000000002
 22
-1.1100000000000001
 32
1.3700000000000001
 13
-0.6200000000000001
 23
-1.1499999999999999
 33
1.3100000000000001
  0
3DFACE
  5
2FD
  8
0
 10
-0.1200000000000001
 20
-1.0700000000000001
 30
1.3100000000000001
 11
-0.1800000000000001
 21
-1.05
 31
1.3700000000000001
 12
-0.2200000000000001
 22
-1.1100000000000001
 32
1.3700000000000001
 13
-0.1800000000000001
 23
-1.1499999999999999
 33
1.3100000000000001
  0
3DFACE
  5
2FE
  8
0
 10
-0.6200000000000001
 20
-1.1499999999999999
 30
1.3100000000000001
 11
-0.6000000000000002
 21
-1.1100000000000001
 31
1.3700000000000001
 12
-0.6600000000000003
 22
-1.03
 32
1.3700000000000001
 13
-0.6900000000000003
 23
-1.0700000000000001
 33
1.3100000000000001
  0
3DFACE
  5
2FF
  8
0
 10
-0.6900000000000003
 20
-1.0700000000000001
 30
1.3100000000000001
 11
-0.6600000000000003
 21
-1.03
 31
1.3700000000000001
 12
-0.6900000000000003
 22
-0.8299999999999999
 32
1.3700000000000001
 13
-0.8000000000000002
 23
-0.69
 33
1.3100000000000001
  0
3DFACE
  5
304
  8
0
 10
-0.8000000000000002
 20
-0.6900000000000001
 30
1.3100000000000001
 11
-0.6900000000000003
 21
-0.8299999999999999
 31
1.3700000000000001
 12
-0.1800000000000002
 22
-0.94
 32
1.3700000000000001
 13
-0.1200000000000001
 23
-0.85
 33
1.3100000000000001
  0
3DFACE
  5
305
  8
0
 10
-0.1200000000000001
 20
-0.85
 30
1.3100000000000001
 11
-0.1800000000000002
 21
-0.94
 31
1.3700000000000001
 12
-0.1800000000000001
 22
-1.05
 32
1.3700000000000001
 13
-0.1200000000000001
 23
-1.0700000000000001
 33
1.3100000000000001
  0
3DFACE
  5
307
  8
0
 10
-0.0600000000000001
 20
-1.04
 30
1.3100000000000001
 11
-0.1200000000000001
 21
-1.0700000000000001
 31
1.3100000000000001
 12
-0.1800000000000001
 22
-1.1499999999999999
 32
1.3100000000000001
 13
-0.1600000000000001
 23
-1.179999999999999
 33
1.3100000000000001
  0
3DFACE
  5
308
  8
0
 10
-0.6300000000000001
 20
-1.179999999999999
 30
1.3100000000000001
 11
-0.6200000000000001
 21
-1.1499999999999999
 31
1.3100000000000001
 12
-0.6900000000000003
 22
-1.0700000000000001
 32
1.3100000000000001
 13
-0.7300000000000001
 23
-1.04
 33
1.3100000000000001
  0
3DFACE
  5
309
  8
0
 10
-0.0600000000000002
 20
-0.9099999999999999
 30
1.3100000000000001
 11
-0.1200000000000001
 21
-0.85
 31
1.3100000000000001
 12
-0.1200000000000001
 22
-1.0700000000000001
 32
1.3100000000000001
 13
-0.0600000000000001
 23
-1.04
 33
1.3100000000000001
  0
3DFACE
  5
30A
  8
0
 10
-0.7300000000000001
 20
-1.04
 30
1.3100000000000001
 11
-0.6900000000000003
 21
-1.0700000000000001
 31
1.3100000000000001
 12
-0.8000000000000002
 22
-0.69
 32
1.3100000000000001
 13
-0.7900000000000002
 23
-0.8699999999999999
 33
1.3100000000000001
  0
3DFACE
  5
30B
  8
0
 10
-0.7900000000000002
 20
-0.8699999999999999
 30
1.3100000000000001
 11
-0.8000000000000002
 21
-0.69
 31
1.3100000000000001
 12
-0.9199999999999999
 22
-0.1400000000000006
 32
1.3100000000000001
 13
-0.9199999999999999
 23
-0.1400000000000006
 33
1.3100000000000001
  0
3DFACE
  5
30C
  8
0
 10
0.7900000000000002
 20
-0.8700000000000001
 30
1.3100000000000001
 11
-0.8000000000000002
 21
-0.6900000000000001
 31
1.3100000000000001
 12
-0.1200000000000001
 22
-0.85
 32
1.3100000000000001
 13
-0.0600000000000002
 23
-0.9099999999999999
 33
1.3100000000000001
  0
3DFACE
  5
30D
  8
0
 10
-0.0600000000000001
 20
-0.9099999999999999
 30
1.3100000000000001
 11
-0.0600000000000001
 21
-0.9099999999999999
 31
1.3100000000000001
 12
0.7900000000000002
 22
-0.9100000000000004
 32
1.3099999999999989
 13
0.7900000000000002
 23
-0.8699999999999993
 33
1.3100000000000001
  0
3DFACE
  5
384
  8
0
 10
-0.1650000000000002
 20
-1.405
 30
1.3049999999999999
 11
-0.1650000000000002
 21
-1.419999999999999
 31
1.29
 12
-0.0500000000000005
 22
-1.4550000000000001
 32
1.29
 13
-0.0500000000000005
 23
-1.4399999999999991
 33
1.3049999999999999
  0
3DFACE
  5
385
  8
0
 10
-0.1650000000000002
 20
-1.419999999999999
 30
1.29
 11
-0.1650000000000002
 21
-1.405
 31
1.2749999999999999
 12
-0.0500000000000005
 22
-1.4399999999999991
 32
1.2749999999999999
 13
-0.0500000000000005
 23
-1.4550000000000001
 33
1.29
  0
3DFACE
  5
386
  8
0
 10
-0.1650000000000002
 20
-1.405
 30
1.2749999999999999
 11
-0.1650000000000002
 21
-1.3899999999999999
 31
1.29
 12
-0.0500000000000005
 22
-1.4249999999999989
 32
1.29
 13
-0.0500000000000005
 23
-1.4399999999999991
 33
1.2749999999999999
  0
3DFACE
  5
387
  8
0
 10
-0.1650000000000002
 20
-1.3899999999999999
 30
1.29
 11
-0.1650000000000002
 21
-1.405
 31
1.3049999999999999
 12
-0.0500000000000005
 22
-1.4399999999999991
 32
1.3049999999999999
 13
-0.0500000000000005
 23
-1.4249999999999989
 33
1.29
  0
3DFACE
  5
388
  8
0
 10
-0.05
 20
-1.4399999999999991
 30
1.3049999999999999
 11
-0.05
 21
-1.4550000000000001
 31
1.29
 12
0.0499999999999997
 22
-1.4550000000000001
 32
1.29
 13
0.0499999999999997
 23
-1.4399999999999991
 33
1.3049999999999999
  0
3DFACE
  5
389
  8
0
 10
-0.05
 20
-1.4550000000000001
 30
1.29
 11
-0.05
 21
-1.4399999999999991
 31
1.2749999999999999
 12
0.0499999999999997
 22
-1.4399999999999991
 32
1.2749999999999999
 13
0.0499999999999997
 23
-1.4550000000000001
 33
1.29
  0
3DFACE
  5
38A
  8
0
 10
-0.05
 20
-1.4399999999999991
 30
1.2749999999999999
 11
-0.05
 21
-1.4249999999999989
 31
1.29
 12
0.0499999999999997
 22
-1.4249999999999989
 32
1.29
 13
0.0499999999999997
 23
-1.4399999999999991
 33
1.2749999999999999
  0
3DFACE
  5
38B
  8
0
 10
-0.05
 20
-1.4249999999999989
 30
1.29
 11
-0.05
 21
-1.4399999999999991
 31
1.3049999999999999
 12
0.0499999999999997
 22
-1.4399999999999991
 32
1.3049999999999999
 13
0.0499999999999997
 23
-1.4249999999999989
 33
1.29
  0
3DFACE
  5
38C
  8
0
 10
0.0249999999999998
 20
-1.425
 30
1.29
 11
0.0399999999999999
 21
-1.4399999999999991
 31
1.29
 12
0.0399999999999999
 22
-1.4399999999999991
 32
1.0749999999999991
 13
0.0249999999999998
 23
-1.425
 33
1.0800000000000001
  0
3DFACE
  5
38D
  8
0
 10
0.0399999999999999
 20
-1.4399999999999991
 30
1.29
 11
0.0249999999999997
 21
-1.454999999999999
 31
1.29
 12
0.0249999999999997
 22
-1.454999999999999
 32
1.0749999999999991
 13
0.0399999999999999
 23
-1.4399999999999991
 33
1.0749999999999991
  0
3DFACE
  5
38E
  8
0
 10
0.0249999999999997
 20
-1.454999999999999
 30
1.29
 11
0.0099999999999996
 21
-1.4399999999999991
 31
1.29
 12
0.0099999999999996
 22
-1.4399999999999991
 32
1.0749999999999991
 13
0.0249999999999997
 23
-1.454999999999999
 33
1.0749999999999991
  0
3DFACE
  5
38F
  8
0
 10
0.0099999999999996
 20
-1.4399999999999991
 30
1.29
 11
0.0249999999999998
 21
-1.425
 31
1.29
 12
0.0249999999999998
 22
-1.425
 32
1.0800000000000001
 13
0.0099999999999996
 23
-1.4399999999999991
 33
1.0749999999999991
  0
3DFACE
  5
390
  8
0
 10
0.1050000000000002
 20
-1.419999999999999
 30
1.3049999999999999
 11
0.1100000000000001
 21
-1.4350000000000001
 31
1.29
 12
0.2050000000000003
 22
-1.395
 32
1.29
 13
0.2
 23
-1.3799999999999999
 33
1.3049999999999999
  0
3DFACE
  5
391
  8
0
 10
0.1100000000000001
 20
-1.4350000000000001
 30
1.29
 11
0.1050000000000002
 21
-1.419999999999999
 31
1.2749999999999999
 12
0.2
 22
-1.3799999999999999
 32
1.2749999999999999
 13
0.2050000000000003
 23
-1.395
 33
1.29
  0
3DFACE
  5
392
  8
0
 10
0.1050000000000002
 20
-1.419999999999999
 30
1.2749999999999999
 11
0.1000000000000003
 21
-1.405
 31
1.29
 12
0.1950000000000001
 22
-1.3649999999999991
 32
1.29
 13
0.2
 23
-1.3799999999999999
 33
1.2749999999999999
  0
3DFACE
  5
393
  8
0
 10
0.1000000000000003
 20
-1.405
 30
1.29
 11
0.1050000000000002
 21
-1.419999999999999
 31
1.3049999999999999
 12
0.2
 22
-1.3799999999999999
 32
1.3049999999999999
 13
0.1950000000000001
 23
-1.3649999999999991
 33
1.29
  0
3DFACE
  5
394
  8
0
 10
0.0500000000000001
 20
-1.4399999999999991
 30
1.3049999999999999
 11
0.0500000000000001
 21
-1.4550000000000001
 31
1.29
 12
0.1099999999999997
 22
-1.4350000000000001
 32
1.29
 13
0.1049999999999998
 23
-1.419999999999999
 33
1.3049999999999999
  0
3DFACE
  5
395
  8
0
 10
0.0500000000000001
 20
-1.4550000000000001
 30
1.29
 11
0.0500000000000001
 21
-1.4399999999999991
 31
1.2749999999999999
 12
0.1049999999999998
 22
-1.419999999999999
 32
1.2749999999999999
 13
0.1099999999999997
 23
-1.4350000000000001
 33
1.29
  0
3DFACE
  5
396
  8
0
 10
0.0500000000000001
 20
-1.4399999999999991
 30
1.2749999999999999
 11
0.0500000000000001
 21
-1.4249999999999989
 31
1.29
 12
0.1
 22
-1.405
 32
1.29
 13
0.1049999999999998
 23
-1.419999999999999
 33
1.2749999999999999
  0
3DFACE
  5
397
  8
0
 10
0.0500000000000001
 20
-1.4249999999999989
 30
1.29
 11
0.0500000000000001
 21
-1.4399999999999991
 31
1.3049999999999999
 12
0.1049999999999998
 22
-1.419999999999999
 32
1.3049999999999999
 13
0.1
 23
-1.405
 33
1.29
  0
3DFACE
  5
398
  8
0
 10
0.2
 20
-1.3799999999999999
 30
1.3049999999999999
 11
0.2049999999999999
 21
-1.395
 31
1.29
 12
0.3000000000000001
 22
-1.3249999999999991
 32
1.29
 13
0.2949999999999997
 23
-1.304999999999999
 33
1.3049999999999999
  0
3DFACE
  5
399
  8
0
 10
0.2049999999999999
 20
-1.395
 30
1.29
 11
0.2
 21
-1.3799999999999999
 31
1.2749999999999999
 12
0.2949999999999997
 22
-1.304999999999999
 32
1.2749999999999999
 13
0.3000000000000001
 23
-1.3249999999999991
 33
1.29
  0
3DFACE
  5
39A
  8
0
 10
0.2
 20
-1.3799999999999999
 30
1.2749999999999999
 11
0.1950000000000001
 21
-1.3649999999999991
 31
1.29
 12
0.2899999999999998
 22
-1.284999999999999
 32
1.29
 13
0.2949999999999997
 23
-1.304999999999999
 33
1.2749999999999999
  0
3DFACE
  5
39B
  8
0
 10
0.1950000000000001
 20
-1.3649999999999991
 30
1.29
 11
0.2
 21
-1.3799999999999999
 31
1.3049999999999999
 12
0.2949999999999997
 22
-1.304999999999999
 32
1.3049999999999999
 13
0.2899999999999998
 23
-1.284999999999999
 33
1.29
  0
3DFACE
  5
39C
  8
0
 10
0.2949999999999997
 20
-1.304999999999999
 30
1.3049999999999999
 11
0.3000000000000001
 21
-1.3249999999999991
 31
1.29
 12
0.3499999999999999
 22
-1.26
 32
1.29
 13
0.3399999999999997
 23
-1.2399999999999991
 33
1.3049999999999999
  0
3DFACE
  5
39D
  8
0
 10
0.3000000000000001
 20
-1.3249999999999991
 30
1.29
 11
0.2949999999999997
 21
-1.304999999999999
 31
1.2749999999999999
 12
0.3399999999999997
 22
-1.2399999999999991
 32
1.2749999999999999
 13
0.3499999999999999
 23
-1.26
 33
1.29
  0
3DFACE
  5
39E
  8
0
 10
0.2949999999999997
 20
-1.304999999999999
 30
1.2749999999999999
 11
0.2899999999999998
 21
-1.284999999999999
 31
1.29
 12
0.3299999999999999
 22
-1.2250000000000001
 32
1.29
 13
0.3399999999999997
 23
-1.2399999999999991
 33
1.2749999999999999
  0
3DFACE
  5
39F
  8
0
 10
0.2899999999999998
 20
-1.284999999999999
 30
1.29
 11
0.2949999999999997
 21
-1.304999999999999
 31
1.3049999999999999
 12
0.3399999999999997
 22
-1.2399999999999991
 32
1.3049999999999999
 13
0.3299999999999999
 23
-1.2250000000000001
 33
1.29
  0
3DFACE
  5
3A0
  8
0
 10
0.3399999999999997
 20
-1.2399999999999991
 30
1.3049999999999999
 11
0.3499999999999999
 21
-1.26
 31
1.29
 12
0.3949999999999998
 22
-1.145
 32
1.29
 13
0.3799999999999997
 23
-1.1399999999999999
 33
1.3049999999999999
  0
3DFACE
  5
3A1
  8
0
 10
0.3499999999999999
 20
-1.26
 30
1.29
 11
0.3399999999999997
 21
-1.2399999999999991
 31
1.2749999999999999
 12
0.3799999999999997
 22
-1.1399999999999999
 32
1.2749999999999999
 13
0.3949999999999998
 23
-1.145
 33
1.29
  0
3DFACE
  5
3A2
  8
0
 10
0.3399999999999997
 20
-1.2399999999999991
 30
1.2749999999999999
 11
0.3299999999999999
 21
-1.2250000000000001
 31
1.29
 12
0.365
 22
-1.135
 32
1.29
 13
0.3799999999999997
 23
-1.1399999999999999
 33
1.2749999999999999
  0
3DFACE
  5
3A3
  8
0
 10
0.3299999999999999
 20
-1.2250000000000001
 30
1.29
 11
0.3399999999999997
 21
-1.2399999999999991
 31
1.3049999999999999
 12
0.3799999999999997
 22
-1.1399999999999999
 32
1.3049999999999999
 13
0.365
 23
-1.135
 33
1.29
  0
3DFACE
  5
3A4
  8
0
 10
0.3799999999999998
 20
-1.125
 30
1.29
 11
0.3949999999999998
 21
-1.1399999999999999
 31
1.29
 12
0.3949999999999998
 22
-1.1399999999999999
 32
1.1299999999999999
 13
0.3799999999999998
 23
-1.125
 33
1.1299999999999999
  0
3DFACE
  5
3A5
  8
0
 10
0.3949999999999998
 20
-1.1399999999999999
 30
1.29
 11
0.3799999999999997
 21
-1.155
 31
1.29
 12
0.3799999999999997
 22
-1.155
 32
1.125
 13
0.3949999999999998
 23
-1.1399999999999999
 33
1.1299999999999999
  0
3DFACE
  5
3A6
  8
0
 10
0.3799999999999997
 20
-1.155
 30
1.29
 11
0.3649999999999996
 21
-1.1399999999999999
 31
1.29
 12
0.3649999999999996
 22
-1.1399999999999999
 32
1.1299999999999999
 13
0.3799999999999997
 23
-1.155
 33
1.125
  0
3DFACE
  5
3A7
  8
0
 10
0.3649999999999996
 20
-1.1399999999999999
 30
1.29
 11
0.3799999999999998
 21
-1.125
 31
1.29
 12
0.3799999999999998
 22
-1.125
 32
1.1299999999999999
 13
0.3649999999999996
 23
-1.1399999999999999
 33
1.1299999999999999
  0
3DFACE
  5
3A8
  8
0
 10
0.3799999999999997
 20
-1.1399999999999999
 30
1.3049999999999999
 11
0.3949999999999998
 21
-1.145
 31
1.29
 12
0.4050000000000002
 22
-1.04
 32
1.29
 13
0.39
 23
-1.04
 33
1.3049999999999999
  0
3DFACE
  5
3A9
  8
0
 10
0.3949999999999998
 20
-1.145
 30
1.29
 11
0.3799999999999997
 21
-1.1399999999999999
 31
1.2749999999999999
 12
0.39
 22
-1.04
 32
1.2749999999999999
 13
0.4050000000000002
 23
-1.04
 33
1.29
  0
3DFACE
  5
3AA
  8
0
 10
0.3799999999999997
 20
-1.1399999999999999
 30
1.2749999999999999
 11
0.365
 21
-1.135
 31
1.29
 12
0.3749999999999999
 22
-1.04
 32
1.29
 13
0.39
 23
-1.04
 33
1.2749999999999999
  0
3DFACE
  5
3AB
  8
0
 10
0.365
 20
-1.135
 30
1.29
 11
0.3799999999999997
 21
-1.1399999999999999
 31
1.3049999999999999
 12
0.39
 22
-1.04
 32
1.3049999999999999
 13
0.3749999999999999
 23
-1.04
 33
1.29
  0
3DFACE
  5
3AC
  8
0
 10
0.39
 20
-1.04
 30
1.3049999999999999
 11
0.4050000000000002
 21
-1.04
 31
1.29
 12
0.4050000000000002
 22
-0.94
 32
1.29
 13
0.39
 23
-0.94
 33
1.3049999999999999
  0
3DFACE
  5
3AD
  8
0
 10
0.4050000000000002
 20
-1.04
 30
1.29
 11
0.39
 21
-1.04
 31
1.2749999999999999
 12
0.39
 22
-0.94
 32
1.2749999999999999
 13
0.4050000000000002
 23
-0.94
 33
1.29
  0
3DFACE
  5
3AE
  8
0
 10
0.39
 20
-1.04
 30
1.2749999999999999
 11
0.3749999999999999
 21
-1.04
 31
1.29
 12
0.3749999999999999
 22
-0.94
 32
1.29
 13
0.39
 23
-0.94
 33
1.2749999999999999
  0
3DFACE
  5
3AF
  8
0
 10
0.3749999999999999
 20
-1.04
 30
1.29
 11
0.39
 21
-1.04
 31
1.3049999999999999
 12
0.39
 22
-0.94
 32
1.3049999999999999
 13
0.3749999999999999
 23
-0.94
 33
1.29
  0
3DFACE
  5
3B0
  8
0
 10
0.39
 20
-0.94
 30
1.3049999999999999
 11
0.4050000000000002
 21
-0.94
 31
1.29
 12
0.39
 22
-0.94
 32
1.2749999999999999
 13
0.3749999999999999
 23
-0.94
 33
1.29
  0
3DFACE
  5
3B1
  8
0
 10
-0.1650000000000002
 20
-1.3899999999999999
 30
1.29
 11
-0.1650000000000002
 21
-1.405
 31
1.2749999999999999
 12
-0.1650000000000007
 22
-1.419999999999999
 32
1.29
 13
-0.1650000000000007
 23
-1.4049999999999989
 33
1.3049999999999999
  0
3DFACE
  5
3CC
  8
0
 10
-0.1500000000000003
 20
-1.834659090909091
 30
0.9099999999999999
 11
-0.1060660171779814
 21
-1.7948843344673471
 31
1.0160660171779821
 12
-0.1060660171779823
 22
-1.619039115863171
 32
1.0160660171779821
 13
-0.1500000000000002
 23
-1.7857142857142849
 33
0.9099999999999999
  0
3DFACE
  5
3CD
  8
0
 10
-0.1060660171779814
 20
-1.7948843344673471
 30
1.0160660171779821
 11
-0.0000000000000002
 21
-1.79
 31
1.03
 12
-0.0000000000000002
 22
-1.597142857142857
 32
1.03
 13
-0.1060660171779823
 23
-1.619039115863171
 33
1.0160660171779821
  0
3DFACE
  5
3CE
  8
0
 10
-0.0000000000000002
 20
-1.79
 30
1.03
 11
0.1060660171779819
 21
-1.7948843344673471
 31
1.0160660171779821
 12
0.1060660171779819
 22
-1.619039115863171
 32
1.0160660171779821
 13
-0.0000000000000002
 23
-1.597142857142857
 33
1.03
  0
3DFACE
  5
3CF
  8
0
 10
0.1060660171779819
 20
-1.7948843344673471
 30
1.0160660171779821
 11
0.1499999999999998
 21
-1.834659090909091
 31
0.9099999999999999
 12
0.1499999999999998
 22
-1.7857142857142849
 32
0.9099999999999999
 13
0.1060660171779819
 23
-1.619039115863171
 33
1.0160660171779821
  0
3DFACE
  5
3D0
  8
0
 10
0.1499999999999998
 20
-1.834659090909091
 30
0.9099999999999999
 11
0.1499999999999998
 21
-1.8500000000000001
 31
0.8690909090909089
 12
0.1499999999999998
 22
-1.7857142857142849
 32
0.9099999999999999
 13
0.1499999999999998
 23
-1.7857142857142849
 33
0.9099999999999999
  0
3DFACE
  5
3D3
  8
0
 10
-0.1500000000000002
 20
-1.8500000000000001
 30
0.8690909090909089
 11
-0.1500000000000003
 21
-1.834659090909091
 31
0.9099999999999999
 12
-0.1500000000000002
 22
-1.7857142857142849
 32
0.9099999999999999
 13
-0.1500000000000002
 23
-1.7857142857142849
 33
0.9099999999999999
  0
3DFACE
  5
3EA
  8
0
 10
0.1299999999999998
 20
-1.834659090909091
 30
0.9099999999999999
 11
0.1299999999999998
 21
-1.8500000000000001
 31
0.8690909090909089
 12
0.1499999999999998
 22
-1.8500000000000001
 32
0.8690909090909089
 13
0.1499999999999998
 23
-1.834659090909091
 33
0.9099999999999999
  0
3DFACE
  5
3EB
  8
0
 10
0.0900000000000005
 20
-1.8009090909090899
 30
1.0
 11
0.1299999999999998
 21
-1.834659090909091
 31
0.9099999999999999
 12
0.1499999999999998
 22
-1.834659090909091
 32
0.9099999999999999
 13
0.1060660171779819
 23
-1.7948843344673471
 33
1.0160660171779821
  0
3DFACE
  5
3EC
  8
0
 10
-0.0000000000000002
 20
-1.7975000000000001
 30
1.01
 11
0.0900000000000005
 21
-1.8009090909090899
 31
1.0
 12
0.1060660171779819
 22
-1.7948843344673471
 32
1.0160660171779821
 13
-0.0000000000000002
 23
-1.79
 33
1.03
  0
3DFACE
  5
3ED
  8
0
 10
-0.0899999999999994
 20
-1.8009090909090899
 30
1.0
 11
-0.0000000000000002
 21
-1.7975000000000001
 31
1.01
 12
-0.0000000000000002
 22
-1.79
 32
1.03
 13
-0.1060660171779814
 23
-1.7948843344673471
 33
1.0160660171779821
  0
3DFACE
  5
3EE
  8
0
 10
-0.1300000000000002
 20
-1.834659090909091
 30
0.9100000000000001
 11
-0.0899999999999994
 21
-1.8009090909090899
 31
1.0
 12
-0.1060660171779814
 22
-1.7948843344673471
 32
1.0160660171779821
 13
-0.1500000000000003
 23
-1.834659090909091
 33
0.9099999999999999
  0
3DFACE
  5
3EF
  8
0
 10
-0.1300000000000002
 20
-1.8500000000000001
 30
0.8690909090909089
 11
-0.1300000000000002
 21
-1.834659090909091
 31
0.9100000000000001
 12
-0.1500000000000003
 22
-1.834659090909091
 32
0.9099999999999999
 13
-0.1500000000000002
 23
-1.8500000000000001
 33
0.8690909090909089
  0
3DFACE
  5
40D
  8
0
 10
0.1299999999999998
 20
-1.7857142857142849
 30
0.9099999999999999
 11
0.1299999999999998
 21
-1.7857142857142849
 31
0.9099999999999999
 12
0.1299999999999998
 22
-1.8500000000000001
 32
0.8690909090909089
 13
0.1299999999999998
 23
-1.834659090909091
 33
0.9099999999999999
  0
3DFACE
  5
40E
  8
0
 10
0.0899999999999998
 20
-1.7
 30
0.9999999999999998
 11
0.1057575757575755
 21
-1.7
 31
0.9645454545454546
 12
0.1299999999999998
 22
-1.7857142857142849
 32
0.9099999999999999
 13
0.0900000000000005
 23
-1.8009090909090899
 33
1.0
  0
3DFACE
  5
40F
  8
0
 10
-0.0000000000000001
 20
-1.7
 30
1.01
 11
0.0899999999999998
 21
-1.7
 31
0.9999999999999998
 12
0.0900000000000005
 22
-1.8009090909090899
 32
1.0
 13
-0.0000000000000002
 23
-1.7975000000000001
 33
1.01
  0
3DFACE
  5
410
  8
0
 10
-0.0900000000000002
 20
-1.7
 30
1.0
 11
-0.0000000000000001
 21
-1.7
 31
1.01
 12
-0.0000000000000002
 22
-1.7975000000000001
 32
1.01
 13
-0.0899999999999994
 23
-1.8009090909090899
 33
1.0
  0
3DFACE
  5
411
  8
0
 10
-0.1057575757575759
 20
-1.7
 30
0.9645454545454546
 11
-0.0900000000000002
 21
-1.7
 31
1.0
 12
-0.0899999999999994
 22
-1.8009090909090899
 32
1.0
 13
-0.1300000000000002
 23
-1.7857142857142849
 33
0.9099999999999999
  0
3DFACE
  5
412
  8
0
 10
-0.1300000000000002
 20
-1.7857142857142849
 30
0.9099999999999999
 11
-0.1300000000000002
 21
-1.7857142857142849
 31
0.9099999999999999
 12
-0.1300000000000002
 22
-1.834659090909091
 32
0.9100000000000001
 13
-0.1300000000000002
 23
-1.8500000000000001
 33
0.8690909090909089
  0
3DFACE
  5
416
  8
0
 10
0.1299999999999998
 20
-1.7857142857142849
 30
0.9099999999999999
 11
0.1299999999999998
 21
-1.7857142857142849
 31
0.9099999999999999
 12
0.1299999999999998
 22
-1.834659090909091
 32
0.9099999999999999
 13
0.0900000000000005
 23
-1.8009090909090899
 33
1.0
  0
3DFACE
  5
417
  8
0
 10
-0.1300000000000002
 20
-1.7857142857142849
 30
0.9099999999999999
 11
-0.1300000000000002
 21
-1.7857142857142849
 31
0.9099999999999999
 12
-0.0899999999999994
 22
-1.8009090909090899
 32
1.0
 13
-0.1300000000000002
 23
-1.834659090909091
 33
0.9100000000000001
  0
3DFACE
  5
418
  8
0
 10
0.1057575757575755
 20
-1.7
 30
0.9645454545454546
 11
0.0899999999999998
 21
-1.7
 31
0.9999999999999998
 12
-0.0900000000000001
 22
-1.7
 32
1.0
 13
-0.105757575757576
 23
-1.7
 33
0.9645454545454546
  0
3DFACE
  5
419
  8
0
 10
0.0900000000000008
 20
-1.7
 30
0.9999999999999998
 11
-0.0000000000000002
 21
-1.7
 31
1.01
 12
-0.0000000000000002
 22
-1.7
 32
1.01
 13
-0.0900000000000003
 23
-1.7
 33
1.0
  0
3DFACE
  5
41A
  8
0
 10
-0.7400000000000003
 20
-1.55
 30
1.0600000000000001
 11
-0.7400000000000003
 21
-2.2099999999999991
 31
0.6400000000000001
 12
-0.1500000000000002
 22
-1.8500000000000001
 32
0.8690909090909089
 13
-0.1500000000000002
 23
-1.7857142857142849
 33
0.9099999999999999
  0
3DFACE
  5
41B
  8
0
 10
-0.1500000000000002
 20
-1.7857142857142849
 30
0.9099999999999999
 11
-0.1060660171779823
 21
-1.619039115863171
 31
1.0160660171779821
 12
-0.7400000000000003
 22
-1.55
 32
1.0600000000000001
 13
-0.7400000000000003
 23
-1.55
 33
1.0600000000000001
  0
3DFACE
  5
41C
  8
0
 10
-0.1060660171779824
 20
-1.619039115863171
 30
1.0160660171779821
 11
-0.0000000000000002
 21
-1.597142857142857
 31
1.03
 12
-0.7400000000000003
 22
-1.55
 32
1.0600000000000001
 13
-0.7400000000000003
 23
-1.55
 33
1.0600000000000001
  0
3DFACE
  5
41D
  8
0
 10
-0.0000000000000003
 20
-1.597142857142857
 30
1.03
 11
0.7399999999999998
 21
-1.5499999999999989
 31
1.0600000000000001
 12
-0.7400000000000003
 22
-1.55
 32
1.0600000000000001
 13
-0.7400000000000003
 23
-1.55
 33
1.0600000000000001
  0
3DFACE
  5
41E
  8
0
 10
0.1060660171779818
 20
-1.619039115863171
 30
1.0160660171779821
 11
0.7399999999999998
 21
-1.5499999999999989
 31
1.0600000000000001
 12
-0.0000000000000003
 22
-1.597142857142857
 32
1.03
 13
-0.0000000000000003
 23
-1.597142857142857
 33
1.03
  0
3DFACE
  5
41F
  8
0
 10
0.1499999999999998
 20
-1.7857142857142849
 30
0.9099999999999999
 11
0.7399999999999998
 21
-1.55
 31
1.0600000000000001
 12
0.1060660171779818
 22
-1.619039115863171
 32
1.0160660171779821
 13
0.1060660171779818
 23
-1.619039115863171
 33
1.0160660171779821
  0
3DFACE
  5
420
  8
0
 10
0.1499999999999998
 20
-1.7857142857142849
 30
0.9099999999999999
 11
0.1499999999999998
 21
-1.8500000000000001
 31
0.8690909090909089
 12
0.7399999999999998
 22
-2.2099999999999991
 32
0.6400000000000001
 13
0.7399999999999894
 23
-1.55
 33
1.0600000000000001
  0
3DFACE
  5
421
  8
0
 10
0.1299999999999998
 20
-1.7857142857142849
 30
0.9099999999999999
 11
0.1057575757575755
 21
-1.7
 31
0.9645454545454546
 12
-0.1057575757575759
 22
-1.7
 32
0.9645454545454546
 13
-0.1300000000000002
 23
-1.7857142857142849
 33
0.9099999999999999
  0
3DFACE
  5
422
  8
0
 10
0.1299999999999998
 20
-1.8500000000000001
 30
0.8690909090909089
 11
0.1299999999999998
 21
-1.7857142857142849
 31
0.9099999999999999
 12
-0.1300000000000003
 22
-1.7857142857142849
 32
0.9099999999999999
 13
-0.1300000000000002
 23
-1.8500000000000001
 33
0.8690909090909089
  0
3DFACE
  5
425
  8
0
 10
0.1299999999999998
 20
-1.8459090909090901
 30
0.88
 11
0.1299999999999998
 21
-1.82590909090909
 31
0.8899999999999998
 12
-0.1300000000000002
 22
-1.82590909090909
 32
0.89
 13
-0.1300000000000002
 23
-1.8459090909090901
 33
0.88
  0
3DFACE
  5
432
  8
0
 10
0.1299999999999998
 20
-1.8402840909090901
 30
0.8949999999999999
 11
0.1299999999999998
 21
-1.82028409090909
 31
0.9049999999999998
 12
-0.1300000000000002
 22
-1.82028409090909
 32
0.905
 13
-0.1300000000000002
 23
-1.8402840909090901
 33
0.8949999999999999
  0
3DFACE
  5
433
  8
0
 10
0.1299999999999998
 20
-1.834659090909091
 30
0.9099999999999999
 11
0.1255555555555554
 21
-1.8146590909090901
 31
0.9199999999999999
 12
-0.1255555555555559
 22
-1.8146590909090901
 32
0.9200000000000002
 13
-0.1300000000000002
 23
-1.834659090909091
 33
0.9099999999999999
  0
3DFACE
  5
434
  8
0
 10
0.1233333333333331
 20
-1.8290340909090901
 30
0.925
 11
0.1188888888888887
 21
-1.8090340909090901
 31
0.9349999999999999
 12
-0.1188888888888891
 22
-1.8090340909090901
 32
0.9350000000000001
 13
-0.1233333333333336
 23
-1.8290340909090901
 33
0.925
  0
3DFACE
  5
435
  8
0
 10
0.1166666666666664
 20
-1.8234090909090901
 30
0.94
 11
0.112222222222222
 21
-1.803409090909091
 31
0.95
 12
-0.1122222222222224
 22
-1.803409090909091
 32
0.95
 13
-0.1166666666666669
 23
-1.8234090909090901
 33
0.94
  0
3DFACE
  5
436
  8
0
 10
0.1099999999999998
 20
-1.817784090909091
 30
0.9549999999999999
 11
0.1055555555555554
 21
-1.7977840909090901
 31
0.9649999999999998
 12
-0.1055555555555558
 22
-1.7977840909090901
 32
0.965
 13
-0.1100000000000003
 23
-1.817784090909091
 33
0.9549999999999999
  0
3DFACE
  5
437
  8
0
 10
0.1033333333333331
 20
-1.812159090909091
 30
0.9699999999999999
 11
0.0988888888888887
 21
-1.7921590909090901
 31
0.9799999999999998
 12
-0.0988888888888891
 22
-1.7921590909090901
 32
0.98
 13
-0.1033333333333336
 23
-1.812159090909091
 33
0.9699999999999999
  0
3DFACE
  5
438
  8
0
 10
0.0966666666666665
 20
-1.806534090909091
 30
0.9849999999999999
 11
0.0922222222222221
 21
-1.7865340909090901
 31
0.9949999999999999
 12
-0.0922222222222224
 22
-1.7865340909090901
 32
0.9949999999999999
 13
-0.0966666666666669
 23
-1.806534090909091
 33
0.9849999999999999
  0
3DFACE
  5
439
  8
0
 10
0.0900000000000005
 20
-1.8009090909090899
 30
1.0
 11
0.0000000000000015
 21
-1.780909090909091
 31
1.0099999999999989
 12
0.0000000000000015
 22
-1.780909090909091
 32
1.0099999999999989
 13
-0.0899999999999995
 23
-1.8009090909090899
 33
1.0
  0
3DFACE
  5
4F7
  8
0
 10
0.8899999999999996
 20
-1.5720000000000001
 30
1.1399999999999999
 11
0.9105025253169413
 21
-1.5423015151901649
 31
1.189497474683058
 12
0.9105025253169415
 22
-1.3300000000000001
 32
1.189497474683058
 13
0.8899999999999998
 23
-1.3300000000000001
 33
1.1399999999999999
  0
3DFACE
  5
4F8
  8
0
 10
0.9105025253169413
 20
-1.5423015151901649
 30
1.189497474683058
 11
0.9599999999999997
 21
-1.53
 31
1.21
 12
0.9599999999999997
 22
-1.3300000000000001
 32
1.21
 13
0.9105025253169415
 23
-1.3300000000000001
 33
1.189497474683058
  0
3DFACE
  5
4F9
  8
0
 10
0.9599999999999997
 20
-1.53
 30
1.21
 11
1.0094974746830581
 21
-1.542301515190164
 31
1.189497474683058
 12
1.0094974746830581
 22
-1.3300000000000001
 32
1.189497474683058
 13
0.9599999999999997
 23
-1.3300000000000001
 33
1.21
  0
3DFACE
  5
4FA
  8
0
 10
1.0094974746830581
 20
-1.542301515190164
 30
1.189497474683058
 11
1.0299999999999989
 21
-1.5720000000000001
 31
1.1399999999999999
 12
1.0299999999999989
 22
-1.3300000000000001
 32
1.1399999999999999
 13
1.0094974746830581
 23
-1.3300000000000001
 33
1.189497474683058
  0
3DFACE
  5
4FB
  8
0
 10
1.0299999999999989
 20
-1.5720000000000001
 30
1.1399999999999999
 11
1.0299999999999989
 21
-1.55
 31
1.0600000000000001
 12
1.0299999999999989
 22
-1.3300000000000001
 32
1.047745358090185
 13
1.0299999999999989
 23
-1.3300000000000001
 33
1.1399999999999999
  0
3DFACE
  5
4FE
  8
0
 10
0.8899999999999998
 20
-1.55
 30
1.0600000000000001
 11
0.8899999999999996
 21
-1.5720000000000001
 31
1.1399999999999999
 12
0.8899999999999998
 22
-1.3300000000000001
 32
1.1399999999999999
 13
0.8899999999999998
 23
-1.3300000000000001
 33
1.047745358090185
  0
3DFACE
  5
4FF
  8
0
 10
1.0299999999999989
 20
-1.6160377358490561
 30
1.066603773584905
 11
1.0299999999999989
 21
-1.6160377358490561
 31
1.066603773584905
 12
1.0299999999999989
 22
-1.55
 32
1.0600000000000001
 13
1.0299999999999989
 23
-1.5720000000000001
 33
1.1399999999999999
  0
3DFACE
  5
500
  8
0
 10
0.8899999999999998
 20
-1.6160377358490561
 30
1.066603773584905
 11
0.8899999999999998
 21
-1.6160377358490561
 31
1.066603773584905
 12
0.8899999999999996
 22
-1.5720000000000001
 32
1.1399999999999999
 13
0.8899999999999998
 23
-1.55
 33
1.0600000000000001
  0
3DFACE
  5
504
  8
0
 10
0.8949999999999997
 20
-1.5720000000000001
 30
1.1399999999999999
 11
0.8949999999999997
 21
-1.55
 31
1.0600000000000001
 12
0.8949999999999999
 22
-1.3300000000000001
 32
1.047745358090185
 13
0.8949999999999999
 23
-1.3300000000000001
 33
1.1399999999999999
  0
3DFACE
  5
505
  8
0
 10
0.8949999999999997
 20
-1.6160377358490561
 30
1.066603773584905
 11
0.8949999999999997
 21
-1.6160377358490561
 31
1.066603773584905
 12
0.8949999999999997
 22
-1.55
 32
1.0600000000000001
 13
0.8949999999999997
 23
-1.5720000000000001
 33
1.1399999999999999
  0
3DFACE
  5
506
  8
0
 10
0.9155025253169417
 20
-1.542301515190164
 30
1.189497474683058
 11
0.8949999999999997
 21
-1.5720000000000001
 31
1.1399999999999999
 12
0.8949999999999999
 22
-1.3300000000000001
 32
1.1399999999999999
 13
0.9155025253169417
 23
-1.3300000000000001
 33
1.189497474683058
  0
3DFACE
  5
507
  8
0
 10
0.9599999999999997
 20
-1.5312426406871189
 30
1.2079289321881339
 11
0.9155025253169417
 21
-1.542301515190164
 31
1.189497474683058
 12
0.9155025253169417
 22
-1.3300000000000001
 32
1.189497474683058
 13
0.9599999999999997
 23
-1.3300000000000001
 33
1.2079289321881339
  0
3DFACE
  5
508
  8
0
 10
1.0044974746830571
 20
-1.5423015151901649
 30
1.189497474683058
 11
0.9599999999999997
 21
-1.5312426406871189
 31
1.2079289321881339
 12
0.9599999999999997
 22
-1.3300000000000001
 32
1.2079289321881339
 13
1.0044974746830571
 23
-1.3300000000000001
 33
1.189497474683058
  0
3DFACE
  5
509
  8
0
 10
1.024999999999999
 20
-1.5720000000000001
 30
1.1399999999999999
 11
1.0044974746830571
 21
-1.5423015151901649
 31
1.189497474683058
 12
1.0044974746830571
 22
-1.3300000000000001
 32
1.189497474683058
 13
1.024999999999999
 23
-1.3300000000000001
 33
1.1399999999999999
  0
3DFACE
  5
50A
  8
0
 10
1.024999999999999
 20
-1.55
 30
1.0600000000000001
 11
1.024999999999999
 21
-1.5720000000000001
 31
1.1399999999999999
 12
1.024999999999999
 22
-1.3300000000000001
 32
1.1399999999999999
 13
1.024999999999999
 23
-1.3300000000000001
 33
1.047745358090185
  0
3DFACE
  5
50B
  8
0
 10
1.024999999999999
 20
-1.6160377358490561
 30
1.066603773584905
 11
1.024999999999999
 21
-1.6160377358490561
 31
1.066603773584905
 12
1.024999999999999
 22
-1.5720000000000001
 32
1.1399999999999999
 13
1.024999999999999
 23
-1.55
 33
1.0600000000000001
  0
3DFACE
  5
50C
  8
0
 10
1.0299999999999989
 20
-1.3300000000000001
 30
1.1399999999999999
 11
1.0299999999999989
 21
-1.3300000000000001
 31
1.047745358090185
 12
1.024999999999999
 22
-1.3300000000000001
 32
1.047745358090185
 13
1.024999999999999
 23
-1.3300000000000001
 33
1.1399999999999999
  0
3DFACE
  5
50D
  8
0
 10
1.0094974746830581
 20
-1.3300000000000001
 30
1.189497474683058
 11
1.0299999999999989
 21
-1.3300000000000001
 31
1.1399999999999999
 12
1.024999999999999
 22
-1.3300000000000001
 32
1.1399999999999999
 13
1.0044974746830571
 23
-1.3300000000000001
 33
1.189497474683058
  0
3DFACE
  5
50E
  8
0
 10
0.9599999999999997
 20
-1.3300000000000001
 30
1.21
 11
1.0094974746830581
 21
-1.3300000000000001
 31
1.189497474683058
 12
1.0044974746830571
 22
-1.3300000000000001
 32
1.189497474683058
 13
0.9599999999999997
 23
-1.3300000000000001
 33
1.2079289321881339
  0
3DFACE
  5
50F
  8
0
 10
0.9105025253169415
 20
-1.3300000000000001
 30
1.189497474683058
 11
0.9599999999999997
 21
-1.3300000000000001
 31
1.21
 12
0.9599999999999997
 22
-1.3300000000000001
 32
1.2079289321881339
 13
0.9155025253169417
 23
-1.3300000000000001
 33
1.189497474683058
  0
3DFACE
  5
510
  8
0
 10
0.8899999999999998
 20
-1.3300000000000001
 30
1.1399999999999999
 11
0.9105025253169415
 21
-1.3300000000000001
 31
1.189497474683058
 12
0.9155025253169417
 22
-1.3300000000000001
 32
1.189497474683058
 13
0.8949999999999999
 23
-1.3300000000000001
 33
1.1399999999999999
  0
3DFACE
  5
511
  8
0
 10
0.8899999999999998
 20
-1.3300000000000001
 30
1.047745358090185
 11
0.8899999999999998
 21
-1.3300000000000001
 31
1.1399999999999999
 12
0.8949999999999999
 22
-1.3300000000000001
 32
1.1399999999999999
 13
0.8949999999999999
 23
-1.3300000000000001
 33
1.047745358090185
  0
3DFACE
  5
512
  8
0
 10
1.024999999999999
 20
-1.5720000000000001
 30
1.1399999999999999
 11
1.024999999999999
 21
-1.6160377358490561
 31
1.066603773584905
 12
1.0299999999999989
 22
-1.6160377358490561
 32
1.066603773584905
 13
1.0299999999999989
 23
-1.5720000000000001
 33
1.1399999999999999
  0
3DFACE
  5
513
  8
0
 10
1.0044974746830571
 20
-1.5423015151901649
 30
1.189497474683058
 11
1.024999999999999
 21
-1.5720000000000001
 31
1.1399999999999999
 12
1.0299999999999989
 22
-1.5720000000000001
 32
1.1399999999999999
 13
1.0094974746830581
 23
-1.542301515190164
 33
1.189497474683058
  0
3DFACE
  5
514
  8
0
 10
0.9599999999999997
 20
-1.5312426406871189
 30
1.2079289321881339
 11
1.0044974746830571
 21
-1.5423015151901649
 31
1.189497474683058
 12
1.0094974746830581
 22
-1.5423015151901649
 32
1.189497474683058
 13
0.9599999999999997
 23
-1.53
 33
1.21
  0
3DFACE
  5
515
  8
0
 10
0.9155025253169417
 20
-1.542301515190164
 30
1.189497474683058
 11
0.9599999999999997
 21
-1.5312426406871189
 31
1.2079289321881339
 12
0.9599999999999997
 22
-1.53
 32
1.21
 13
0.9105025253169413
 23
-1.5423015151901649
 33
1.189497474683058
  0
3DFACE
  5
516
  8
0
 10
0.8949999999999997
 20
-1.5720000000000001
 30
1.1399999999999999
 11
0.9155025253169417
 21
-1.542301515190164
 31
1.189497474683058
 12
0.9105025253169413
 22
-1.542301515190164
 32
1.189497474683058
 13
0.8899999999999996
 23
-1.5720000000000001
 33
1.1399999999999999
  0
3DFACE
  5
517
  8
0
 10
0.8949999999999997
 20
-1.6160377358490561
 30
1.066603773584905
 11
0.8949999999999997
 21
-1.5720000000000001
 31
1.1399999999999999
 12
0.8899999999999996
 22
-1.5720000000000001
 32
1.1399999999999999
 13
0.8899999999999998
 23
-1.6160377358490561
 33
1.066603773584905
  0
3DFACE
  5
526
  8
0
 10
0.9499999999999996
 20
-1.5
 30
1.05
 11
0.9599999999999997
 21
-1.51
 31
1.05
 12
0.9599999999999997
 22
-1.51
 32
1.0940192378864659
 13
0.9499999999999996
 23
-1.5
 33
1.1008408654345081
  0
3DFACE
  5
527
  8
0
 10
0.9599999999999997
 20
-1.51
 30
1.05
 11
0.9699999999999998
 21
-1.5
 31
1.05
 12
0.9699999999999998
 22
-1.5
 32
1.1008408654345081
 13
0.9599999999999997
 23
-1.51
 33
1.0940192378864659
  0
3DFACE
  5
528
  8
0
 10
0.9699999999999998
 20
-1.5
 30
1.05
 11
0.9599999999999997
 21
-1.49
 31
1.05
 12
0.9599999999999997
 22
-1.49
 32
1.1066987298107771
 13
0.9699999999999998
 23
-1.5
 33
1.1008408654345081
  0
3DFACE
  5
529
  8
0
 10
0.9599999999999997
 20
-1.49
 30
1.05
 11
0.9499999999999996
 21
-1.5
 31
1.05
 12
0.9499999999999996
 22
-1.5
 32
1.1008408654345081
 13
0.9599999999999997
 23
-1.49
 33
1.1066987298107771
  0
3DFACE
  5
52A
  8
0
 10
0.9599999999999997
 20
-1.4750000000000001
 30
1.139999999999999
 11
0.9849999999999997
 21
-1.481698729810778
 31
1.139999999999999
 12
0.9776776695296634
 22
-1.481698729810778
 32
1.122322330470336
 13
0.9599999999999997
 23
-1.4750000000000001
 33
1.139999999999999
  0
3DFACE
  5
52B
  8
0
 10
0.9849999999999997
 20
-1.481698729810778
 30
1.139999999999999
 11
1.003301270189221
 21
-1.5
 31
1.139999999999999
 12
0.9906186217847894
 22
-1.5
 32
1.10938137821521
 13
0.9776776695296634
 23
-1.481698729810778
 33
1.122322330470336
  0
3DFACE
  5
52C
  8
0
 10
1.003301270189221
 20
-1.5
 30
1.139999999999999
 11
1.0099999999999989
 21
-1.5249999999999999
 31
1.139999999999999
 12
0.9953553390593271
 22
-1.5249999999999999
 32
1.1046446609406719
 13
0.9906186217847894
 23
-1.5
 33
1.10938137821521
  0
3DFACE
  5
52D
  8
0
 10
0.9599999999999997
 20
-1.4750000000000001
 30
1.139999999999999
 11
0.9776776695296634
 21
-1.481698729810778
 31
1.122322330470336
 12
0.9599999999999997
 22
-1.481698729810778
 32
1.1149999999999991
 13
0.9599999999999997
 23
-1.4750000000000001
 33
1.139999999999999
  0
3DFACE
  5
52E
  8
0
 10
0.9776776695296634
 20
-1.481698729810778
 30
1.122322330470336
 11
0.9906186217847894
 21
-1.5
 31
1.10938137821521
 12
0.9599999999999997
 22
-1.5
 32
1.0966987298107771
 13
0.9599999999999997
 23
-1.481698729810778
 33
1.1149999999999991
  0
3DFACE
  5
52F
  8
0
 10
0.9906186217847894
 20
-1.5
 30
1.10938137821521
 11
0.9953553390593271
 21
-1.5249999999999999
 31
1.1046446609406719
 12
0.9599999999999997
 22
-1.5249999999999999
 32
1.0900000000000001
 13
0.9599999999999997
 23
-1.5
 33
1.0966987298107771
  0
3DFACE
  5
530
  8
0
 10
0.9599999999999997
 20
-1.4750000000000001
 30
1.139999999999999
 11
0.9599999999999997
 21
-1.481698729810778
 31
1.1149999999999991
 12
0.9423223304703361
 22
-1.481698729810778
 32
1.122322330470336
 13
0.9599999999999997
 23
-1.4750000000000001
 33
1.139999999999999
  0
3DFACE
  5
531
  8
0
 10
0.9599999999999997
 20
-1.481698729810778
 30
1.1149999999999991
 11
0.9599999999999997
 21
-1.5
 31
1.0966987298107771
 12
0.9293813782152099
 22
-1.5
 32
1.10938137821521
 13
0.9423223304703361
 23
-1.481698729810778
 33
1.122322330470336
  0
3DFACE
  5
532
  8
0
 10
0.9599999999999997
 20
-1.5
 30
1.0966987298107771
 11
0.9599999999999997
 21
-1.5249999999999999
 31
1.0900000000000001
 12
0.9246446609406723
 22
-1.5249999999999999
 32
1.1046446609406719
 13
0.9293813782152099
 23
-1.5
 33
1.10938137821521
  0
3DFACE
  5
533
  8
0
 10
0.9599999999999997
 20
-1.4750000000000001
 30
1.139999999999999
 11
0.9423223304703361
 21
-1.481698729810778
 31
1.122322330470336
 12
0.9349999999999997
 22
-1.481698729810778
 32
1.139999999999999
 13
0.9599999999999997
 23
-1.4750000000000001
 33
1.139999999999999
  0
3DFACE
  5
534
  8
0
 10
0.9423223304703361
 20
-1.481698729810778
 30
1.122322330470336
 11
0.9293813782152099
 21
-1.5
 31
1.10938137821521
 12
0.9166987298107777
 22
-1.5
 32
1.139999999999999
 13
0.9349999999999997
 23
-1.481698729810778
 33
1.139999999999999
  0
3DFACE
  5
535
  8
0
 10
0.9293813782152099
 20
-1.5
 30
1.10938137821521
 11
0.9246446609406723
 21
-1.5249999999999999
 31
1.1046446609406719
 12
0.9099999999999997
 22
-1.5249999999999999
 32
1.139999999999999
 13
0.9166987298107777
 23
-1.5
 33
1.139999999999999
  0
3DFACE
  5
536
  8
0
 10
0.9599999999999997
 20
-1.4750000000000001
 30
1.139999999999999
 11
0.9349999999999997
 21
-1.481698729810778
 31
1.139999999999999
 12
0.9423223304703361
 22
-1.481698729810778
 32
1.1576776695296629
 13
0.9599999999999997
 23
-1.4750000000000001
 33
1.139999999999999
  0
3DFACE
  5
537
  8
0
 10
0.9349999999999997
 20
-1.481698729810778
 30
1.139999999999999
 11
0.9166987298107777
 21
-1.5
 31
1.139999999999999
 12
0.9293813782152099
 22
-1.5
 32
1.1706186217847889
 13
0.9423223304703361
 23
-1.481698729810778
 33
1.1576776695296629
  0
3DFACE
  5
538
  8
0
 10
0.9166987298107777
 20
-1.5
 30
1.139999999999999
 11
0.9099999999999997
 21
-1.5249999999999999
 31
1.139999999999999
 12
0.9246446609406723
 22
-1.5249999999999999
 32
1.175355339059327
 13
0.9293813782152099
 23
-1.5
 33
1.1706186217847889
  0
3DFACE
  5
539
  8
0
 10
0.9599999999999997
 20
-1.4750000000000001
 30
1.139999999999999
 11
0.9423223304703361
 21
-1.481698729810778
 31
1.1576776695296629
 12
0.9599999999999997
 22
-1.481698729810778
 32
1.1649999999999989
 13
0.9599999999999997
 23
-1.4750000000000001
 33
1.139999999999999
  0
3DFACE
  5
53A
  8
0
 10
0.9423223304703361
 20
-1.481698729810778
 30
1.1576776695296629
 11
0.9293813782152099
 21
-1.5
 31
1.1706186217847889
 12
0.9599999999999997
 22
-1.5
 32
1.1833012701892209
 13
0.9599999999999997
 23
-1.481698729810778
 33
1.1649999999999989
  0
3DFACE
  5
53B
  8
0
 10
0.9293813782152099
 20
-1.5
 30
1.1706186217847889
 11
0.9246446609406723
 21
-1.5249999999999999
 31
1.175355339059327
 12
0.9599999999999997
 22
-1.5249999999999999
 32
1.1899999999999991
 13
0.9599999999999997
 23
-1.5
 33
1.1833012701892209
  0
3DFACE
  5
53C
  8
0
 10
0.9599999999999997
 20
-1.4750000000000001
 30
1.139999999999999
 11
0.9599999999999997
 21
-1.481698729810778
 31
1.1649999999999989
 12
0.9776776695296634
 22
-1.481698729810778
 32
1.1576776695296629
 13
0.9599999999999997
 23
-1.4750000000000001
 33
1.139999999999999
  0
3DFACE
  5
53D
  8
0
 10
0.9599999999999997
 20
-1.481698729810778
 30
1.1649999999999989
 11
0.9599999999999997
 21
-1.5
 31
1.1833012701892209
 12
0.9906186217847894
 22
-1.5
 32
1.1706186217847889
 13
0.9776776695296634
 23
-1.481698729810778
 33
1.1576776695296629
  0
3DFACE
  5
53E
  8
0
 10
0.9599999999999997
 20
-1.5
 30
1.1833012701892209
 11
0.9599999999999997
 21
-1.5249999999999999
 31
1.1899999999999991
 12
0.9953553390593271
 22
-1.5249999999999999
 32
1.175355339059327
 13
0.9906186217847894
 23
-1.5
 33
1.1706186217847889
  0
3DFACE
  5
53F
  8
0
 10
0.9599999999999997
 20
-1.4750000000000001
 30
1.139999999999999
 11
0.9776776695296634
 21
-1.481698729810778
 31
1.1576776695296629
 12
0.9849999999999997
 22
-1.481698729810778
 32
1.139999999999999
 13
0.9599999999999997
 23
-1.4750000000000001
 33
1.139999999999999
  0
3DFACE
  5
540
  8
0
 10
0.9776776695296634
 20
-1.481698729810778
 30
1.1576776695296629
 11
0.9906186217847894
 21
-1.5
 31
1.1706186217847889
 12
1.003301270189221
 22
-1.5
 32
1.139999999999999
 13
0.9849999999999997
 23
-1.481698729810778
 33
1.139999999999999
  0
3DFACE
  5
541
  8
0
 10
0.9906186217847894
 20
-1.5
 30
1.1706186217847889
 11
0.9953553390593271
 21
-1.5249999999999999
 31
1.175355339059327
 12
1.0099999999999989
 22
-1.5249999999999999
 32
1.139999999999999
 13
1.003301270189221
 23
-1.5
 33
1.139999999999999
  0
3DFACE
  5
542
  8
0
 10
0.9599999999999997
 20
-1.5249999999999999
 30
1.0900000000000001
 11
0.9953553390593271
 21
-1.5249999999999999
 31
1.1046446609406719
 12
0.9099999999999997
 22
-1.5249999999999999
 32
1.139999999999999
 13
0.9246446609406723
 23
-1.5249999999999999
 33
1.1046446609406719
  0
3DFACE
  5
543
  8
0
 10
0.9953553390593271
 20
-1.5249999999999999
 30
1.1046446609406719
 11
1.0099999999999989
 21
-1.5249999999999999
 31
1.139999999999999
 12
0.9246446609406723
 22
-1.5249999999999999
 32
1.175355339059327
 13
0.9099999999999997
 23
-1.5249999999999999
 33
1.139999999999999
  0
3DFACE
  5
544
  8
0
 10
1.0099999999999989
 20
-1.5249999999999999
 30
1.139999999999999
 11
0.9953553390593271
 21
-1.5249999999999999
 31
1.175355339059327
 12
0.9599999999999997
 22
-1.5249999999999999
 32
1.1899999999999991
 13
0.9246446609406723
 23
-1.5249999999999999
 33
1.175355339059327
  0
3DFACE
  5
545
  8
0
 10
-0.9246446609406728
 20
-1.524999999999999
 30
1.1046446609406719
 11
-0.9100000000000001
 21
-1.524999999999999
 31
1.139999999999999
 12
-0.9953553390593276
 22
-1.524999999999999
 32
1.175355339059327
 13
-1.01
 23
-1.524999999999999
 33
1.139999999999999
  0
3DFACE
  5
546
  8
0
 10
-0.9600000000000001
 20
-1.524999999999999
 30
1.0900000000000001
 11
-0.9246446609406728
 21
-1.524999999999999
 31
1.1046446609406719
 12
-1.01
 22
-1.524999999999999
 32
1.139999999999999
 13
-0.9953553390593276
 23
-1.524999999999999
 33
1.1046446609406719
  0
3DFACE
  5
547
  8
0
 10
-0.9906186217847899
 20
-1.4999999999999989
 30
1.10938137821521
 11
-0.9953553390593276
 21
-1.524999999999999
 31
1.1046446609406719
 12
-1.01
 22
-1.524999999999999
 32
1.139999999999999
 13
-1.0033012701892221
 23
-1.4999999999999989
 33
1.139999999999999
  0
3DFACE
  5
548
  8
0
 10
-0.9600000000000001
 20
-1.4999999999999989
 30
1.0966987298107771
 11
-0.9600000000000001
 21
-1.524999999999999
 31
1.0900000000000001
 12
-0.9953553390593276
 22
-1.524999999999999
 32
1.1046446609406719
 13
-0.9906186217847899
 23
-1.4999999999999989
 33
1.10938137821521
  0
3DFACE
  5
549
  8
0
 10
-0.9600000000000001
 20
-1.4816987298107771
 30
1.1149999999999991
 11
-0.9600000000000001
 21
-1.4999999999999989
 31
1.0966987298107771
 12
-0.9906186217847899
 22
-1.4999999999999989
 32
1.10938137821521
 13
-0.9776776695296637
 23
-1.4816987298107771
 33
1.122322330470336
  0
3DFACE
  5
54A
  8
0
 10
-0.9293813782152104
 20
-1.4999999999999989
 30
1.10938137821521
 11
-0.9246446609406728
 21
-1.524999999999999
 31
1.1046446609406719
 12
-0.9600000000000001
 22
-1.524999999999999
 32
1.0900000000000001
 13
-0.9600000000000001
 23
-1.4999999999999989
 33
1.0966987298107771
  0
3DFACE
  5
54B
  8
0
 10
-0.9423223304703364
 20
-1.4816987298107771
 30
1.122322330470336
 11
-0.9293813782152104
 21
-1.4999999999999989
 31
1.10938137821521
 12
-0.9600000000000001
 22
-1.4999999999999989
 32
1.0966987298107771
 13
-0.9600000000000001
 23
-1.4816987298107771
 33
1.1149999999999991
  0
3DFACE
  5
54C
  8
0
 10
-0.9166987298107782
 20
-1.4999999999999989
 30
1.139999999999999
 11
-0.9100000000000001
 21
-1.524999999999999
 31
1.139999999999999
 12
-0.9246446609406728
 22
-1.524999999999999
 32
1.1046446609406719
 13
-0.9293813782152104
 23
-1.4999999999999989
 33
1.10938137821521
  0
3DFACE
  5
54D
  8
0
 10
-1.0249999999999999
 20
-1.6160377358490561
 30
1.066603773584905
 11
-1.0249999999999999
 21
-1.571999999999999
 31
1.1399999999999999
 12
-1.03
 22
-1.571999999999999
 32
1.1399999999999999
 13
-1.03
 23
-1.6160377358490561
 33
1.066603773584905
  0
3DFACE
  5
54E
  8
0
 10
-0.8950000000000002
 20
-1.5720000000000001
 30
1.1399999999999999
 11
-0.8950000000000002
 21
-1.6160377358490561
 31
1.066603773584905
 12
-0.8900000000000002
 22
-1.6160377358490561
 32
1.066603773584905
 13
-0.8900000000000002
 23
-1.5720000000000001
 33
1.1399999999999999
  0
3DFACE
  5
54F
  8
0
 10
-1.03
 20
-1.329999999999999
 30
1.047745358090185
 11
-1.03
 21
-1.329999999999999
 31
1.1399999999999999
 12
-1.0249999999999999
 22
-1.329999999999999
 32
1.1399999999999999
 13
-1.0249999999999999
 23
-1.329999999999999
 33
1.047745358090185
  0
3DFACE
  5
550
  8
0
 10
-0.89
 20
-1.3300000000000001
 30
1.1399999999999999
 11
-0.89
 21
-1.3300000000000001
 31
1.047745358090185
 12
-0.8950000000000001
 22
-1.3300000000000001
 32
1.047745358090185
 13
-0.8950000000000001
 23
-1.3300000000000001
 33
1.1399999999999999
  0
3DFACE
  5
551
  8
0
 10
-0.8950000000000002
 20
-1.55
 30
1.0600000000000001
 11
-0.8950000000000002
 21
-1.5720000000000001
 31
1.1399999999999999
 12
-0.8950000000000001
 22
-1.3300000000000001
 32
1.1399999999999999
 13
-0.8950000000000001
 23
-1.3300000000000001
 33
1.047745358090185
  0
3DFACE
  5
552
  8
0
 10
-0.8950000000000002
 20
-1.6160377358490561
 30
1.066603773584905
 11
-0.8950000000000002
 21
-1.6160377358490561
 31
1.066603773584905
 12
-0.8950000000000002
 22
-1.5720000000000001
 32
1.1399999999999999
 13
-0.8950000000000002
 23
-1.55
 33
1.0600000000000001
  0
3DFACE
  5
553
  8
0
 10
-1.0249999999999999
 20
-1.571999999999999
 30
1.1399999999999999
 11
-1.0249999999999999
 21
-1.5499999999999989
 31
1.0600000000000001
 12
-1.0249999999999999
 22
-1.329999999999999
 32
1.047745358090185
 13
-1.0249999999999999
 23
-1.329999999999999
 33
1.1399999999999999
  0
3DFACE
  5
554
  8
0
 10
-1.0249999999999999
 20
-1.6160377358490561
 30
1.066603773584905
 11
-1.0249999999999999
 21
-1.6160377358490561
 31
1.066603773584905
 12
-1.0249999999999999
 22
-1.5499999999999989
 32
1.0600000000000001
 13
-1.0249999999999999
 23
-1.571999999999999
 33
1.1399999999999999
  0
3DFACE
  5
555
  8
0
 10
-1.03
 20
-1.5499999999999989
 30
1.0600000000000001
 11
-1.03
 21
-1.571999999999999
 31
1.1399999999999999
 12
-1.03
 22
-1.329999999999999
 32
1.1399999999999999
 13
-1.03
 23
-1.329999999999999
 33
1.047745358090185
  0
3DFACE
  5
556
  8
0
 10
-0.8900000000000002
 20
-1.5720000000000001
 30
1.1399999999999999
 11
-0.8900000000000002
 21
-1.55
 31
1.0600000000000001
 12
-0.89
 22
-1.3300000000000001
 32
1.047745358090185
 13
-0.89
 23
-1.3300000000000001
 33
1.1399999999999999
  0
3DFACE
  5
557
  8
0
 10
-1.03
 20
-1.6160377358490561
 30
1.066603773584905
 11
-1.03
 21
-1.6160377358490561
 31
1.066603773584905
 12
-1.03
 22
-1.571999999999999
 32
1.1399999999999999
 13
-1.03
 23
-1.5499999999999989
 33
1.0600000000000001
  0
3DFACE
  5
558
  8
0
 10
-0.8900000000000002
 20
-1.6160377358490561
 30
1.066603773584905
 11
-0.8900000000000002
 21
-1.6160377358490561
 31
1.066603773584905
 12
-0.8900000000000002
 22
-1.55
 32
1.0600000000000001
 13
-0.8900000000000002
 23
-1.5720000000000001
 33
1.1399999999999999
  0
3DFACE
  5
559
  8
0
 10
-0.9600000000000001
 20
-1.4899999999999991
 30
1.05
 11
-0.9700000000000002
 21
-1.4999999999999989
 31
1.05
 12
-0.9700000000000002
 22
-1.4999999999999989
 32
1.1008408654345081
 13
-0.9600000000000001
 23
-1.4899999999999991
 33
1.1066987298107771
  0
3DFACE
  5
55A
  8
0
 10
-0.9500000000000001
 20
-1.4999999999999989
 30
1.05
 11
-0.9600000000000001
 21
-1.4899999999999991
 31
1.05
 12
-0.9600000000000001
 22
-1.4899999999999991
 32
1.1066987298107771
 13
-0.9500000000000001
 23
-1.4999999999999989
 33
1.1008408654345081
  0
3DFACE
  5
55B
  8
0
 10
-0.9600000000000001
 20
-1.5099999999999989
 30
1.05
 11
-0.9500000000000001
 21
-1.4999999999999989
 31
1.05
 12
-0.9500000000000001
 22
-1.4999999999999989
 32
1.1008408654345081
 13
-0.9600000000000001
 23
-1.5099999999999989
 33
1.0940192378864659
  0
3DFACE
  5
55C
  8
0
 10
-0.9700000000000002
 20
-1.4999999999999989
 30
1.05
 11
-0.9600000000000001
 21
-1.5099999999999989
 31
1.05
 12
-0.9600000000000001
 22
-1.5099999999999989
 32
1.0940192378864659
 13
-0.9700000000000002
 23
-1.4999999999999989
 33
1.1008408654345081
  0
3DFACE
  5
55D
  8
0
 10
-0.9100000000000001
 20
-1.524999999999999
 30
1.139999999999999
 11
-0.9246446609406728
 21
-1.524999999999999
 31
1.175355339059327
 12
-0.9600000000000001
 22
-1.524999999999999
 32
1.1899999999999991
 13
-0.9953553390593276
 23
-1.524999999999999
 33
1.175355339059327
  0
3DFACE
  5
55E
  8
0
 10
-0.9293813782152104
 20
-1.4999999999999989
 30
1.1706186217847889
 11
-0.9246446609406728
 21
-1.524999999999999
 31
1.175355339059327
 12
-0.9100000000000001
 22
-1.524999999999999
 32
1.139999999999999
 13
-0.9166987298107782
 23
-1.4999999999999989
 33
1.139999999999999
  0
3DFACE
  5
55F
  8
0
 10
-0.9423223304703364
 20
-1.4816987298107771
 30
1.1576776695296629
 11
-0.9293813782152104
 21
-1.4999999999999989
 31
1.1706186217847889
 12
-0.9166987298107782
 22
-1.4999999999999989
 32
1.139999999999999
 13
-0.9350000000000001
 23
-1.4816987298107771
 33
1.139999999999999
  0
3DFACE
  5
560
  8
0
 10
-0.9600000000000001
 20
-1.474999999999999
 30
1.139999999999999
 11
-0.9423223304703364
 21
-1.4816987298107771
 31
1.1576776695296629
 12
-0.9350000000000001
 22
-1.4816987298107771
 32
1.139999999999999
 13
-0.9600000000000001
 23
-1.474999999999999
 33
1.139999999999999
  0
3DFACE
  5
561
  8
0
 10
-0.9600000000000001
 20
-1.4999999999999989
 30
1.1833012701892209
 11
-0.9600000000000001
 21
-1.524999999999999
 31
1.1899999999999991
 12
-0.9246446609406728
 22
-1.524999999999999
 32
1.175355339059327
 13
-0.9293813782152104
 23
-1.4999999999999989
 33
1.1706186217847889
  0
3DFACE
  5
562
  8
0
 10
-0.9600000000000001
 20
-1.4816987298107771
 30
1.1649999999999989
 11
-0.9600000000000001
 21
-1.4999999999999989
 31
1.1833012701892209
 12
-0.9293813782152104
 22
-1.4999999999999989
 32
1.1706186217847889
 13
-0.9423223304703364
 23
-1.4816987298107771
 33
1.1576776695296629
  0
3DFACE
  5
563
  8
0
 10
-0.9600000000000001
 20
-1.474999999999999
 30
1.139999999999999
 11
-0.9600000000000001
 21
-1.4816987298107771
 31
1.1649999999999989
 12
-0.9423223304703364
 22
-1.4816987298107771
 32
1.1576776695296629
 13
-0.9600000000000001
 23
-1.474999999999999
 33
1.139999999999999
  0
3DFACE
  5
564
  8
0
 10
-0.9906186217847899
 20
-1.4999999999999989
 30
1.1706186217847889
 11
-0.9953553390593276
 21
-1.524999999999999
 31
1.175355339059327
 12
-0.9600000000000001
 22
-1.524999999999999
 32
1.1899999999999991
 13
-0.9600000000000001
 23
-1.4999999999999989
 33
1.1833012701892209
  0
3DFACE
  5
565
  8
0
 10
-0.9776776695296637
 20
-1.4816987298107771
 30
1.1576776695296629
 11
-0.9906186217847899
 21
-1.4999999999999989
 31
1.1706186217847889
 12
-0.9600000000000001
 22
-1.4999999999999989
 32
1.1833012701892209
 13
-0.9600000000000001
 23
-1.4816987298107771
 33
1.1649999999999989
  0
3DFACE
  5
566
  8
0
 10
-0.9600000000000001
 20
-1.474999999999999
 30
1.139999999999999
 11
-0.9776776695296637
 21
-1.4816987298107771
 31
1.1576776695296629
 12
-0.9600000000000001
 22
-1.4816987298107771
 32
1.1649999999999989
 13
-0.9600000000000001
 23
-1.474999999999999
 33
1.139999999999999
  0
3DFACE
  5
567
  8
0
 10
-1.0033012701892221
 20
-1.4999999999999989
 30
1.139999999999999
 11
-1.01
 21
-1.524999999999999
 31
1.139999999999999
 12
-0.9953553390593276
 22
-1.524999999999999
 32
1.175355339059327
 13
-0.9906186217847899
 23
-1.4999999999999989
 33
1.1706186217847889
  0
3DFACE
  5
568
  8
0
 10
-0.9850000000000001
 20
-1.4816987298107771
 30
1.139999999999999
 11
-1.0033012701892221
 21
-1.4999999999999989
 31
1.139999999999999
 12
-0.9906186217847899
 22
-1.4999999999999989
 32
1.1706186217847889
 13
-0.9776776695296637
 23
-1.4816987298107771
 33
1.1576776695296629
  0
3DFACE
  5
569
  8
0
 10
-0.9600000000000001
 20
-1.474999999999999
 30
1.139999999999999
 11
-0.9850000000000001
 21
-1.4816987298107771
 31
1.139999999999999
 12
-0.9776776695296637
 22
-1.4816987298107771
 32
1.1576776695296629
 13
-0.9600000000000001
 23
-1.474999999999999
 33
1.139999999999999
  0
3DFACE
  5
56A
  8
0
 10
-0.9776776695296637
 20
-1.4816987298107771
 30
1.122322330470336
 11
-0.9906186217847899
 21
-1.4999999999999989
 31
1.10938137821521
 12
-1.0033012701892221
 22
-1.4999999999999989
 32
1.139999999999999
 13
-0.9850000000000001
 23
-1.4816987298107771
 33
1.139999999999999
  0
3DFACE
  5
56B
  8
0
 10
-0.9600000000000001
 20
-1.474999999999999
 30
1.139999999999999
 11
-0.9776776695296637
 21
-1.4816987298107771
 31
1.122322330470336
 12
-0.9850000000000001
 22
-1.4816987298107771
 32
1.139999999999999
 13
-0.9600000000000001
 23
-1.474999999999999
 33
1.139999999999999
  0
3DFACE
  5
56C
  8
0
 10
-0.9600000000000001
 20
-1.474999999999999
 30
1.139999999999999
 11
-0.9600000000000001
 21
-1.4816987298107771
 31
1.1149999999999991
 12
-0.9776776695296637
 22
-1.4816987298107771
 32
1.122322330470336
 13
-0.9600000000000001
 23
-1.474999999999999
 33
1.139999999999999
  0
3DFACE
  5
56D
  8
0
 10
-0.9600000000000001
 20
-1.474999999999999
 30
1.139999999999999
 11
-0.9423223304703364
 21
-1.4816987298107771
 31
1.122322330470336
 12
-0.9600000000000001
 22
-1.4816987298107771
 32
1.1149999999999991
 13
-0.9600000000000001
 23
-1.474999999999999
 33
1.139999999999999
  0
3DFACE
  5
56E
  8
0
 10
-0.9350000000000001
 20
-1.4816987298107771
 30
1.139999999999999
 11
-0.9166987298107782
 21
-1.4999999999999989
 31
1.139999999999999
 12
-0.9293813782152104
 22
-1.4999999999999989
 32
1.10938137821521
 13
-0.9423223304703364
 23
-1.4816987298107771
 33
1.122322330470336
  0
3DFACE
  5
56F
  8
0
 10
-0.9600000000000001
 20
-1.474999999999999
 30
1.139999999999999
 11
-0.9350000000000001
 21
-1.4816987298107771
 31
1.139999999999999
 12
-0.9423223304703364
 22
-1.4816987298107771
 32
1.122322330470336
 13
-0.9600000000000001
 23
-1.474999999999999
 33
1.139999999999999
  0
3DFACE
  5
570
  8
0
 10
-1.0249999999999999
 20
-1.571999999999999
 30
1.1399999999999999
 11
-1.0044974746830579
 21
-1.542301515190164
 31
1.189497474683058
 12
-1.0094974746830581
 22
-1.542301515190164
 32
1.189497474683058
 13
-1.03
 23
-1.571999999999999
 33
1.1399999999999999
  0
3DFACE
  5
571
  8
0
 10
-1.0044974746830579
 20
-1.542301515190164
 30
1.189497474683058
 11
-0.9600000000000001
 21
-1.5312426406871189
 31
1.2079289321881339
 12
-0.9600000000000001
 22
-1.5299999999999989
 32
1.21
 13
-1.0094974746830581
 23
-1.542301515190164
 33
1.189497474683058
  0
3DFACE
  5
572
  8
0
 10
-0.9600000000000001
 20
-1.5312426406871189
 30
1.2079289321881339
 11
-0.9155025253169419
 21
-1.542301515190164
 31
1.189497474683058
 12
-0.9105025253169419
 22
-1.542301515190164
 32
1.189497474683058
 13
-0.9600000000000001
 23
-1.5299999999999989
 33
1.21
  0
3DFACE
  5
573
  8
0
 10
-0.9155025253169419
 20
-1.542301515190164
 30
1.189497474683058
 11
-0.8950000000000002
 21
-1.5720000000000001
 31
1.1399999999999999
 12
-0.8900000000000002
 22
-1.5720000000000001
 32
1.1399999999999999
 13
-0.9105025253169419
 23
-1.542301515190164
 33
1.189497474683058
  0
3DFACE
  5
574
  8
0
 10
-1.03
 20
-1.329999999999999
 30
1.1399999999999999
 11
-1.0094974746830581
 21
-1.329999999999999
 31
1.189497474683058
 12
-1.0044974746830579
 22
-1.329999999999999
 32
1.189497474683058
 13
-1.0249999999999999
 23
-1.329999999999999
 33
1.1399999999999999
  0
3DFACE
  5
575
  8
0
 10
-1.0094974746830581
 20
-1.329999999999999
 30
1.189497474683058
 11
-0.9600000000000001
 21
-1.329999999999999
 31
1.21
 12
-0.9600000000000001
 22
-1.329999999999999
 32
1.2079289321881339
 13
-1.0044974746830579
 23
-1.329999999999999
 33
1.189497474683058
  0
3DFACE
  5
576
  8
0
 10
-0.9600000000000001
 20
-1.329999999999999
 30
1.21
 11
-0.9105025253169417
 21
-1.329999999999999
 31
1.189497474683058
 12
-0.9155025253169418
 22
-1.329999999999999
 32
1.189497474683058
 13
-0.9600000000000001
 23
-1.329999999999999
 33
1.2079289321881339
  0
3DFACE
  5
577
  8
0
 10
-0.9105025253169417
 20
-1.329999999999999
 30
1.189497474683058
 11
-0.89
 21
-1.3300000000000001
 31
1.1399999999999999
 12
-0.8950000000000001
 22
-1.3300000000000001
 32
1.1399999999999999
 13
-0.9155025253169418
 23
-1.329999999999999
 33
1.189497474683058
  0
3DFACE
  5
578
  8
0
 10
-0.8950000000000002
 20
-1.5720000000000001
 30
1.1399999999999999
 11
-0.9155025253169419
 21
-1.542301515190164
 31
1.189497474683058
 12
-0.9155025253169418
 22
-1.329999999999999
 32
1.189497474683058
 13
-0.8950000000000001
 23
-1.3300000000000001
 33
1.1399999999999999
  0
3DFACE
  5
579
  8
0
 10
-1.0044974746830579
 20
-1.542301515190164
 30
1.189497474683058
 11
-1.0249999999999999
 21
-1.571999999999999
 31
1.1399999999999999
 12
-1.0249999999999999
 22
-1.329999999999999
 32
1.1399999999999999
 13
-1.0044974746830579
 23
-1.329999999999999
 33
1.189497474683058
  0
3DFACE
  5
57A
  8
0
 10
-0.9600000000000001
 20
-1.5312426406871189
 30
1.2079289321881339
 11
-1.0044974746830579
 21
-1.542301515190164
 31
1.189497474683058
 12
-1.0044974746830579
 22
-1.329999999999999
 32
1.189497474683058
 13
-0.9600000000000001
 23
-1.329999999999999
 33
1.2079289321881339
  0
3DFACE
  5
57B
  8
0
 10
-0.9155025253169419
 20
-1.542301515190164
 30
1.189497474683058
 11
-0.9600000000000001
 21
-1.5312426406871189
 31
1.2079289321881339
 12
-0.9600000000000001
 22
-1.329999999999999
 32
1.2079289321881339
 13
-0.9155025253169418
 23
-1.329999999999999
 33
1.189497474683058
  0
3DFACE
  5
57C
  8
0
 10
-0.9105025253169419
 20
-1.542301515190164
 30
1.189497474683058
 11
-0.8900000000000002
 21
-1.5720000000000001
 31
1.1399999999999999
 12
-0.89
 22
-1.3300000000000001
 32
1.1399999999999999
 13
-0.9105025253169417
 23
-1.329999999999999
 33
1.189497474683058
  0
3DFACE
  5
57D
  8
0
 10
-0.9600000000000001
 20
-1.5299999999999989
 30
1.21
 11
-0.9105025253169419
 21
-1.542301515190164
 31
1.189497474683058
 12
-0.9105025253169417
 22
-1.329999999999999
 32
1.189497474683058
 13
-0.9600000000000001
 23
-1.329999999999999
 33
1.21
  0
3DFACE
  5
57E
  8
0
 10
-1.0094974746830581
 20
-1.542301515190164
 30
1.189497474683058
 11
-0.9600000000000001
 21
-1.5299999999999989
 31
1.21
 12
-0.9600000000000001
 22
-1.329999999999999
 32
1.21
 13
-1.0094974746830581
 23
-1.329999999999999
 33
1.189497474683058
  0
3DFACE
  5
57F
  8
0
 10
-1.03
 20
-1.571999999999999
 30
1.1399999999999999
 11
-1.0094974746830581
 21
-1.542301515190164
 31
1.189497474683058
 12
-1.0094974746830581
 22
-1.329999999999999
 32
1.189497474683058
 13
-1.03
 23
-1.329999999999999
 33
1.1399999999999999
  0
3DFACE
  5
580
  8
0
 10
0.0433012701892217
 20
-1.7687928065978991
 30
0.9552332325579834
 11
0.0499999999999998
 21
-1.792940952255125
 31
0.9617037086855464
 12
0.0353553390593272
 22
-1.8020915873497361
 32
0.9275530735909356
 13
0.0306186217847895
 23
-1.776717489050593
 33
0.925657915010678
  0
3DFACE
  5
581
  8
0
 10
0.0176776695296635
 20
-1.755690454615541
 30
0.9334211977361404
 11
0.0306186217847895
 21
-1.776717489050593
 31
0.925657915010678
 12
-0.0000000000000002
 22
-1.78
 32
0.9134074173710931
 13
-0.0000000000000002
 23
-1.7575856131957981
 33
0.9263483696262191
  0
3DFACE
  5
582
  8
0
 10
0.0306186217847895
 20
-1.776717489050593
 30
0.925657915010678
 11
0.0353553390593272
 21
-1.8020915873497361
 31
0.9275530735909356
 12
-0.0000000000000002
 22
-1.805881904510251
 32
0.9134074173710933
 13
-0.0000000000000002
 23
-1.78
 33
0.9134074173710931
  0
3DFACE
  5
583
  8
0
 10
-0.0000000000000002
 20
-1.7575856131957981
 30
0.9263483696262191
 11
-0.0000000000000002
 21
-1.78
 31
0.9134074173710931
 12
-0.0306186217847899
 22
-1.776717489050593
 32
0.9256579150106782
 13
-0.0176776695296639
 23
-1.755690454615541
 33
0.9334211977361404
  0
3DFACE
  5
584
  8
0
 10
-0.0000000000000002
 20
-1.78
 30
0.9134074173710931
 11
-0.0000000000000002
 21
-1.805881904510251
 31
0.9134074173710933
 12
-0.0353553390593277
 22
-1.8020915873497361
 32
0.9275530735909356
 13
-0.0306186217847899
 23
-1.776717489050593
 33
0.9256579150106782
  0
3DFACE
  5
585
  8
0
 10
-0.0306186217847899
 20
-1.776717489050593
 30
0.9256579150106782
 11
-0.0353553390593277
 21
-1.8020915873497361
 31
0.9275530735909356
 12
-0.0500000000000003
 22
-1.792940952255125
 32
0.9617037086855464
 13
-0.0433012701892221
 23
-1.7687928065978991
 33
0.9552332325579834
  0
3DFACE
  5
586
  8
0
 10
-0.0000000000000002
 20
-1.805881904510251
 30
0.9134074173710933
 11
0.0353553390593272
 21
-1.8020915873497361
 31
0.9275530735909356
 12
-0.0500000000000003
 22
-1.792940952255125
 32
0.9617037086855464
 13
-0.0353553390593277
 23
-1.8020915873497361
 33
0.9275530735909356
  0
3DFACE
  5
587
  8
0
 10
0.0353553390593272
 20
-1.8020915873497361
 30
0.9275530735909356
 11
0.0499999999999998
 21
-1.792940952255125
 31
0.9617037086855464
 12
-0.0353553390593276
 22
-1.7837903171605141
 32
0.9958543437801575
 13
-0.0500000000000003
 23
-1.792940952255125
 33
0.9617037086855464
  0
3DFACE
  5
58C
  8
0
 10
-0.0000000000000002
 20
-1.7446446609406721
 30
0.9487627564304204
 11
0.0249999999999998
 21
-1.751115137068235
 31
0.9504965152834458
 12
0.0176776695296635
 22
-1.755690454615541
 32
0.9334211977361404
 13
-0.0000000000000002
 23
-1.7446446609406721
 33
0.9487627564304204
  0
3DFACE
  5
58D
  8
0
 10
0.0249999999999998
 20
-1.751115137068235
 30
0.9504965152834458
 11
0.0433012701892217
 21
-1.7687928065978991
 31
0.9552332325579834
 12
0.0306186217847895
 22
-1.776717489050593
 32
0.925657915010678
 13
0.0176776695296635
 23
-1.755690454615541
 33
0.9334211977361404
  0
3DFACE
  5
58E
  8
0
 10
-0.0000000000000002
 20
-1.7446446609406721
 30
0.9487627564304204
 11
0.0176776695296635
 21
-1.755690454615541
 31
0.9334211977361404
 12
-0.0000000000000002
 22
-1.7575856131957981
 32
0.9263483696262191
 13
-0.0000000000000002
 23
-1.7446446609406721
 33
0.9487627564304204
  0
3DFACE
  5
58F
  8
0
 10
-0.0000000000000002
 20
-1.7446446609406721
 30
0.9487627564304204
 11
-0.0000000000000002
 21
-1.7575856131957981
 31
0.9263483696262191
 12
-0.0176776695296639
 22
-1.755690454615541
 32
0.9334211977361404
 13
-0.0000000000000002
 23
-1.7446446609406721
 33
0.9487627564304204
  0
3DFACE
  5
590
  8
0
 10
-0.0000000000000002
 20
-1.7446446609406721
 30
0.9487627564304204
 11
-0.0176776695296639
 21
-1.755690454615541
 31
0.9334211977361404
 12
-0.0250000000000003
 22
-1.751115137068235
 32
0.9504965152834458
 13
-0.0000000000000002
 23
-1.7446446609406721
 33
0.9487627564304204
  0
3DFACE
  5
591
  8
0
 10
-0.0176776695296639
 20
-1.755690454615541
 30
0.9334211977361404
 11
-0.0306186217847899
 21
-1.776717489050593
 31
0.9256579150106782
 12
-0.0433012701892221
 22
-1.7687928065978991
 32
0.9552332325579834
 13
-0.0250000000000003
 23
-1.751115137068235
 33
0.9504965152834458
  0
3DFACE
  5
592
  8
0
 10
-0.0000000000000002
 20
-1.7446446609406721
 30
0.9487627564304204
 11
-0.0250000000000003
 21
-1.751115137068235
 31
0.9504965152834458
 12
-0.0176776695296639
 22
-1.7465398195209301
 32
0.967571832830751
 13
-0.0000000000000002
 23
-1.7446446609406721
 33
0.9487627564304201
  0
3DFACE
  5
593
  8
0
 10
-0.0250000000000003
 20
-1.751115137068235
 30
0.9504965152834458
 11
-0.0433012701892221
 21
-1.7687928065978991
 31
0.9552332325579834
 12
-0.0306186217847899
 22
-1.760868124145204
 32
0.9848085501052887
 13
-0.0176776695296639
 23
-1.7465398195209301
 33
0.967571832830751
  0
3DFACE
  5
594
  8
0
 10
-0.0433012701892221
 20
-1.7687928065978991
 30
0.9552332325579834
 11
-0.0500000000000003
 21
-1.792940952255125
 31
0.9617037086855464
 12
-0.0353553390593276
 22
-1.7837903171605141
 32
0.9958543437801575
 13
-0.0306186217847899
 23
-1.760868124145204
 33
0.9848085501052887
  0
3DFACE
  5
595
  8
0
 10
-0.0000000000000002
 20
-1.7446446609406721
 30
0.9487627564304201
 11
-0.0176776695296639
 21
-1.7465398195209301
 31
0.967571832830751
 12
-0.0000000000000002
 22
-1.7446446609406721
 32
0.9746446609406724
 13
-0.0000000000000002
 23
-1.7446446609406721
 33
0.9487627564304204
  0
3DFACE
  5
596
  8
0
 10
-0.0176776695296639
 20
-1.7465398195209301
 30
0.967571832830751
 11
-0.0306186217847899
 21
-1.760868124145204
 31
0.9848085501052887
 12
-0.0000000000000002
 22
-1.7575856131957981
 32
0.9970590477448738
 13
-0.0000000000000002
 23
-1.7446446609406721
 33
0.9746446609406724
  0
3DFACE
  5
597
  8
0
 10
-0.0306186217847899
 20
-1.760868124145204
 30
0.9848085501052887
 11
-0.0353553390593276
 21
-1.7837903171605141
 31
0.9958543437801575
 12
-0.0000000000000002
 22
-1.7799999999999989
 32
1.01
 13
-0.0000000000000002
 23
-1.7575856131957981
 33
0.9970590477448738
  0
3DFACE
  5
598
  8
0
 10
-0.0000000000000002
 20
-1.7446446609406721
 30
0.9487627564304204
 11
-0.0000000000000002
 21
-1.7446446609406721
 31
0.9746446609406724
 12
0.0176776695296635
 22
-1.7465398195209301
 32
0.9675718328307512
 13
-0.0000000000000002
 23
-1.7446446609406721
 33
0.9487627564304204
  0
3DFACE
  5
599
  8
0
 10
-0.0000000000000002
 20
-1.7446446609406721
 30
0.9746446609406724
 11
-0.0000000000000002
 21
-1.7575856131957981
 31
0.9970590477448738
 12
0.0306186217847895
 22
-1.760868124145204
 32
0.9848085501052889
 13
0.0176776695296635
 23
-1.7465398195209301
 33
0.9675718328307512
  0
3DFACE
  5
59A
  8
0
 10
-0.0000000000000002
 20
-1.7575856131957981
 30
0.9970590477448738
 11
-0.0000000000000002
 21
-1.7799999999999989
 31
1.01
 12
0.0353553390593272
 22
-1.7837903171605141
 32
0.9958543437801575
 13
0.0306186217847895
 23
-1.760868124145204
 33
0.9848085501052889
  0
3DFACE
  5
59B
  8
0
 10
-0.0000000000000002
 20
-1.7446446609406721
 30
0.9487627564304204
 11
0.0176776695296635
 21
-1.7465398195209301
 31
0.9675718328307512
 12
0.0249999999999998
 22
-1.751115137068235
 32
0.9504965152834458
 13
-0.0000000000000002
 23
-1.7446446609406721
 33
0.9487627564304204
  0
3DFACE
  5
59C
  8
0
 10
0.0176776695296635
 20
-1.7465398195209301
 30
0.9675718328307512
 11
0.0306186217847895
 21
-1.760868124145204
 31
0.9848085501052889
 12
0.0433012701892217
 22
-1.7687928065978991
 32
0.9552332325579834
 13
0.0249999999999998
 23
-1.751115137068235
 33
0.9504965152834458
  0
3DFACE
  5
59D
  8
0
 10
0.0306186217847895
 20
-1.760868124145204
 30
0.9848085501052889
 11
0.0353553390593272
 21
-1.7837903171605141
 31
0.9958543437801575
 12
0.0499999999999998
 22
-1.792940952255125
 32
0.9617037086855464
 13
0.0433012701892217
 23
-1.7687928065978991
 33
0.9552332325579834
  0
3DFACE
  5
59E
  8
0
 10
0.0499999999999998
 20
-1.792940952255125
 30
0.9617037086855464
 11
0.0353553390593272
 21
-1.7837903171605141
 31
0.9958543437801575
 12
-0.0000000000000002
 22
-1.7799999999999989
 32
1.01
 13
-0.0353553390593276
 23
-1.7837903171605141
 33
0.9958543437801575
  0
3DFACE
  5
5A8
  8
0
 10
-1.0599999999999989
 20
2.1200000000000001
 30
1.179999999999999
 11
-1.0599999999999989
 21
2.1200000000000001
 31
0.8555702917771884
 12
-1.0599999999999989
 22
1.22
 32
0.9057029177718833
 13
-1.0599999999999989
 23
1.2199999999999991
 33
1.229999999999998
  0
3DFACE
  5
5A9
  8
0
 10
-0.7768364501200087
 20
1.22
 30
1.229999999999998
 11
-0.6814692093588429
 21
2.1200000000000001
 31
1.179999999999999
 12
-1.0599999999999989
 22
2.1200000000000001
 32
1.179999999999999
 13
-1.0599999999999989
 23
1.2199999999999991
 33
1.229999999999998
  0
3DFACE
  5
5AA
  8
0
 10
-0.6814692093588429
 20
2.1200000000000001
 30
1.179999999999999
 11
-0.7505932203389829
 21
2.1200000000000001
 31
0.8555702917771884
 12
-1.0599999999999989
 22
2.1200000000000001
 32
0.8555702917771884
 13
-1.0599999999999989
 23
2.1200000000000001
 33
1.179999999999999
  0
3DFACE
  5
5AB
  8
0
 10
-1.0599999999999989
 20
1.2199999999999991
 30
1.229999999999998
 11
-1.0599999999999989
 21
1.22
 31
0.9057029177718833
 12
-0.8459322033898304
 22
1.2199999999999991
 32
0.9057029177718833
 13
-0.7768364501200087
 23
1.22
 33
1.229999999999998
  0
3DFACE
  5
5AE
  8
0
 10
0.7768364501200111
 20
1.2199999999999831
 30
1.229999999999998
 11
0.8459322033898308
 21
1.2199999999999991
 31
0.9057029177718833
 12
1.0600000000000001
 22
1.2199999999999991
 32
0.9057029177718833
 13
1.0600000000000001
 23
1.2199999999999991
 33
1.229999999999998
  0
3DFACE
  5
5AF
  8
0
 10
1.0600000000000001
 20
2.1200000000000001
 30
1.179999999999999
 11
1.0600000000000001
 21
2.1200000000000001
 31
0.8555702917771884
 12
0.7505932203389834
 22
2.1200000000000001
 32
0.8555702917771884
 13
0.6814692093588453
 23
2.1199999999999841
 33
1.179999999999999
  0
3DFACE
  5
5B1
  8
0
 10
1.0600000000000001
 20
1.2199999999999991
 30
0.9057029177718833
 11
1.0600000000000001
 21
2.1200000000000001
 31
0.8555702917771884
 12
1.0600000000000001
 22
2.1200000000000001
 32
1.179999999999999
 13
1.0600000000000001
 23
1.2199999999999991
 33
1.229999999999998
  0
3DFACE
  5
5B3
  8
0
 10
1.0600000000000001
 20
1.2199999999999991
 30
1.229999999999998
 11
1.0600000000000001
 21
2.1200000000000001
 31
1.179999999999999
 12
0.6814692093588453
 22
2.1199999999999841
 32
1.179999999999999
 13
0.7768364501200111
 23
1.2199999999999831
 33
1.229999999999998
  0
3DFACE
  5
5BD
  8
0
 10
0.7768364501200111
 20
1.2199999999999831
 30
1.229999999999998
 11
0.6814692093588453
 21
2.1199999999999841
 31
1.179999999999999
 12
0.6557283435044546
 22
2.2999999999999998
 32
1.1975968992248061
 13
0.785346228793033
 23
0.9299999999999998
 33
1.409999999999999
  0
3DFACE
  5
5BE
  8
0
 10
0.99
 20
-0.14
 30
0.9814588859416447
 11
0.8459322033898308
 21
1.2199999999999991
 31
0.9057029177718833
 12
0.7768364501200114
 22
1.2199999999999831
 32
1.229999999999998
 13
0.7853462287930331
 23
0.9299999999999993
 33
1.409999999999999
  0
3DFACE
  5
5BF
  8
0
 10
-0.7853462287930327
 20
0.9300000000000002
 30
1.409999999999999
 11
-0.6557283435044541
 21
2.2999999999999998
 31
1.1975968992248061
 12
-0.6814692093588429
 22
2.1200000000000001
 32
1.179999999999999
 13
-0.7768364501200087
 23
1.22
 33
1.229999999999998
  0
3DFACE
  5
5C0
  8
0
 10
-0.7853462287930332
 20
0.9300000000000001
 30
1.409999999999999
 11
-0.7768364501200087
 21
1.22
 31
1.229999999999998
 12
-0.8459322033898304
 22
1.2199999999999991
 32
0.9057029177718833
 13
-0.9899999999999998
 23
-0.1399999999999998
 33
0.9814588859416449
  0
3DFACE
  5
633
  8
0
 10
-0.4699999999999999
 20
1.2596044154591111
 30
1.3710926199633089
 11
-0.4432050807568876
 21
1.161789655385731
 31
1.391883789045085
 12
-0.4345448267190432
 22
1.177075977930288
 32
1.4397516106276871
 13
-0.4599999999999999
 23
1.27
 33
1.419999999999999
  0
3DFACE
  5
634
  8
0
 10
-0.4432050807568876
 20
1.161789655385731
 30
1.391883789045085
 11
-0.3699999999999999
 21
1.090184281281857
 31
1.4071039811617001
 12
-0.3649999999999999
 22
1.1090508725316071
 32
1.4542107931384709
 13
-0.4345448267190432
 23
1.177075977930288
 33
1.4397516106276871
  0
3DFACE
  5
635
  8
0
 10
-0.3699999999999999
 20
1.090184281281857
 30
1.4071039811617001
 11
-0.2699999999999999
 21
1.06397489531235
 31
1.4126749581268609
 12
-0.2699999999999999
 22
1.0841519558605761
 32
1.459503221255374
 13
-0.3649999999999999
 23
1.1090508725316071
 33
1.4542107931384709
  0
3DFACE
  5
636
  8
0
 10
-0.2699999999999999
 20
1.06397489531235
 30
1.4126749581268609
 11
-0.1699999999999999
 21
1.0901842812818561
 31
1.4071039811617001
 12
-0.1749999999999999
 22
1.1090508725316071
 32
1.4542107931384709
 13
-0.2699999999999999
 23
1.0841519558605761
 33
1.459503221255374
  0
3DFACE
  5
637
  8
0
 10
-0.1699999999999999
 20
1.0901842812818561
 30
1.4071039811617001
 11
-0.0967949192431122
 21
1.161789655385731
 31
1.391883789045085
 12
-0.1054551732809566
 22
1.177075977930288
 32
1.4397516106276871
 13
-0.1749999999999999
 23
1.1090508725316071
 33
1.4542107931384709
  0
3DFACE
  5
638
  8
0
 10
-0.0967949192431122
 20
1.161789655385731
 30
1.391883789045085
 11
-0.0699999999999999
 21
1.2596044154591111
 31
1.3710926199633089
 12
-0.0799999999999999
 22
1.27
 32
1.419999999999999
 13
-0.1054551732809566
 23
1.177075977930288
 33
1.4397516106276871
  0
3DFACE
  5
639
  8
0
 10
-0.0699999999999999
 20
1.2596044154591111
 30
1.3710926199633089
 11
-0.0967949192431121
 21
1.357419175532492
 31
1.350301450881533
 12
-0.1054551732809564
 22
1.362924022069711
 32
1.4002483893723121
 13
-0.0799999999999999
 23
1.27
 33
1.419999999999999
  0
3DFACE
  5
63A
  8
0
 10
-0.0967949192431121
 20
1.357419175532492
 30
1.350301450881533
 11
-0.1699999999999997
 21
1.429024549636366
 31
1.3350812587649179
 12
-0.1749999999999998
 22
1.430949127468391
 32
1.3857892068615281
 13
-0.1054551732809564
 23
1.362924022069711
 33
1.4002483893723121
  0
3DFACE
  5
63B
  8
0
 10
-0.1699999999999997
 20
1.429024549636366
 30
1.3350812587649179
 11
-0.2699999999999998
 21
1.4552339356058721
 31
1.3295102817997571
 12
-0.2699999999999998
 22
1.455848044139423
 32
1.380496778744625
 13
-0.1749999999999998
 23
1.430949127468391
 33
1.3857892068615281
  0
3DFACE
  5
63C
  8
0
 10
-0.2699999999999998
 20
1.4552339356058721
 30
1.3295102817997571
 11
-0.3699999999999999
 21
1.429024549636366
 31
1.3350812587649179
 12
-0.3649999999999999
 22
1.430949127468391
 32
1.3857892068615281
 13
-0.2699999999999998
 23
1.455848044139423
 33
1.380496778744625
  0
3DFACE
  5
63D
  8
0
 10
-0.3699999999999999
 20
1.429024549636366
 30
1.3350812587649179
 11
-0.4432050807568876
 21
1.357419175532492
 31
1.350301450881533
 12
-0.4345448267190432
 22
1.362924022069711
 32
1.4002483893723121
 13
-0.3649999999999999
 23
1.430949127468391
 33
1.3857892068615281
  0
3DFACE
  5
63E
  8
0
 10
-0.4432050807568876
 20
1.357419175532492
 30
1.350301450881533
 11
-0.4699999999999999
 21
1.2596044154591111
 31
1.3710926199633089
 12
-0.4599999999999999
 22
1.27
 32
1.419999999999999
 13
-0.4345448267190432
 23
1.362924022069711
 33
1.4002483893723121
  0
3DFACE
  5
63F
  8
0
 10
-0.4399999999999999
 20
1.2570951745925629
 30
1.3592875698306099
 11
-0.3902081528017129
 21
1.138122195853871
 31
1.3777329928908719
 12
-0.3902081528017129
 22
1.1420230992074729
 32
1.396085300262393
 13
-0.4399999999999999
 23
1.2596044154591119
 33
1.3710926199633089
  0
3DFACE
  5
640
  8
0
 10
-0.3902081528017129
 20
1.138122195853871
 30
1.3777329928908719
 11
-0.2699999999999999
 21
1.0888419745043789
 31
1.3853733372861421
 12
-0.2699999999999999
 22
1.0933193233343641
 32
1.4064376074023279
 13
-0.3902081528017129
 23
1.1420230992074729
 33
1.396085300262393
  0
3DFACE
  5
641
  8
0
 10
-0.2699999999999999
 20
1.0888419745043789
 30
1.3853733372861421
 11
-0.1497918471982868
 21
1.138122195853871
 31
1.3777329928908719
 12
-0.1497918471982868
 22
1.1420230992074729
 32
1.396085300262393
 13
-0.2699999999999999
 23
1.0933193233343641
 33
1.4064376074023279
  0
3DFACE
  5
642
  8
0
 10
-0.1497918471982868
 20
1.138122195853871
 30
1.3777329928908719
 11
-0.0999999999999999
 21
1.2570951745925629
 31
1.3592875698306099
 12
-0.0999999999999999
 22
1.2596044154591119
 32
1.3710926199633089
 13
-0.1497918471982868
 23
1.1420230992074729
 33
1.396085300262393
  0
3DFACE
  5
643
  8
0
 10
-0.0999999999999999
 20
1.2570951745925629
 30
1.3592875698306099
 11
-0.1497918471982868
 21
1.376068153331254
 31
1.340842146770348
 12
-0.1497918471982868
 22
1.3771857317107501
 32
1.346099939664225
 13
-0.0999999999999999
 23
1.2596044154591119
 33
1.3710926199633089
  0
3DFACE
  5
644
  8
0
 10
-0.1497918471982868
 20
1.376068153331254
 30
1.340842146770348
 11
-0.2699999999999998
 21
1.425348374680746
 31
1.333201802375078
 12
-0.2699999999999998
 22
1.425889507583858
 32
1.3357476325242901
 13
-0.1497918471982868
 23
1.3771857317107501
 33
1.346099939664225
  0
3DFACE
  5
645
  8
0
 10
-0.2699999999999998
 20
1.425348374680746
 30
1.333201802375078
 11
-0.3902081528017129
 21
1.376068153331254
 31
1.340842146770348
 12
-0.3902081528017129
 22
1.3771857317107501
 32
1.346099939664225
 13
-0.2699999999999998
 23
1.425889507583858
 33
1.3357476325242901
  0
3DFACE
  5
646
  8
0
 10
-0.3902081528017129
 20
1.376068153331254
 30
1.340842146770348
 11
-0.4399999999999999
 21
1.2570951745925629
 31
1.3592875698306099
 12
-0.4399999999999999
 22
1.2596044154591119
 32
1.3710926199633089
 13
-0.3902081528017129
 23
1.3771857317107501
 33
1.346099939664225
  0
3DFACE
  5
647
  8
0
 10
-0.1749999999999998
 20
1.430949127468391
 30
1.3857892068615281
 11
-0.2699999999999998
 21
1.455848044139423
 31
1.380496778744625
 12
-0.3649999999999999
 22
1.430949127468391
 32
1.3857892068615281
 13
-0.1054551732809564
 23
1.362924022069711
 33
1.4002483893723121
  0
3DFACE
  5
648
  8
0
 10
-0.1054551732809564
 20
1.362924022069711
 30
1.4002483893723121
 11
-0.3649999999999999
 21
1.430949127468391
 31
1.3857892068615281
 12
-0.4345448267190432
 22
1.362924022069711
 32
1.4002483893723121
 13
-0.0799999999999999
 23
1.27
 33
1.419999999999999
  0
3DFACE
  5
649
  8
0
 10
-0.0799999999999999
 20
1.27
 30
1.419999999999999
 11
-0.4345448267190432
 21
1.362924022069711
 31
1.4002483893723121
 12
-0.4599999999999999
 22
1.27
 32
1.419999999999999
 13
-0.1054551732809566
 23
1.177075977930288
 33
1.4397516106276871
  0
3DFACE
  5
64A
  8
0
 10
-0.1054551732809565
 20
1.177075977930288
 30
1.4397516106276871
 11
-0.4599999999999999
 21
1.27
 31
1.419999999999999
 12
-0.4345448267190432
 22
1.177075977930288
 32
1.4397516106276871
 13
-0.1749999999999999
 23
1.1090508725316071
 33
1.4542107931384709
  0
3DFACE
  5
64B
  8
0
 10
-0.1749999999999999
 20
1.1090508725316071
 30
1.4542107931384709
 11
-0.4345448267190432
 21
1.177075977930288
 31
1.4397516106276871
 12
-0.3649999999999999
 22
1.1090508725316071
 32
1.4542107931384709
 13
-0.2699999999999999
 23
1.0841519558605761
 33
1.459503221255374
  0
3DFACE
  5
64C
  8
0
 10
0.7400000000000002
 20
1.27
 30
1.419999999999999
 11
0.3854551732809568
 21
1.362924022069711
 31
1.4002483893723121
 12
0.3600000000000002
 22
1.27
 32
1.419999999999999
 13
0.7145448267190435
 23
1.177075977930288
 33
1.4397516106276871
  0
3DFACE
  5
64D
  8
0
 10
0.7145448267190437
 20
1.362924022069711
 30
1.4002483893723121
 11
0.4550000000000002
 21
1.430949127468391
 31
1.3857892068615281
 12
0.3854551732809568
 22
1.362924022069711
 32
1.4002483893723121
 13
0.7400000000000002
 23
1.27
 33
1.419999999999999
  0
3DFACE
  5
64E
  8
0
 10
0.3767949192431124
 20
1.357419175532492
 30
1.350301450881533
 11
0.3500000000000002
 21
1.2596044154591111
 31
1.3710926199633089
 12
0.3600000000000002
 22
1.27
 32
1.419999999999999
 13
0.3854551732809568
 23
1.362924022069711
 33
1.4002483893723121
  0
3DFACE
  5
64F
  8
0
 10
0.7500000000000001
 20
1.2596044154591111
 30
1.3710926199633089
 11
0.7232050807568881
 21
1.357419175532492
 31
1.350301450881533
 12
0.7145448267190437
 22
1.362924022069711
 32
1.4002483893723121
 13
0.7400000000000002
 23
1.27
 33
1.419999999999999
  0
3DFACE
  5
650
  8
0
 10
0.7232050807568879
 20
1.161789655385731
 30
1.391883789045085
 11
0.7500000000000001
 21
1.2596044154591111
 31
1.3710926199633089
 12
0.7400000000000002
 22
1.27
 32
1.419999999999999
 13
0.7145448267190435
 23
1.177075977930288
 33
1.4397516106276871
  0
3DFACE
  5
651
  8
0
 10
0.6500000000000002
 20
1.0901842812818561
 30
1.4071039811617001
 11
0.7232050807568879
 21
1.161789655385731
 31
1.391883789045085
 12
0.7145448267190435
 22
1.177075977930288
 32
1.4397516106276871
 13
0.6450000000000001
 23
1.1090508725316071
 33
1.4542107931384709
  0
3DFACE
  5
652
  8
0
 10
0.5500000000000002
 20
1.06397489531235
 30
1.4126749581268609
 11
0.6500000000000002
 21
1.0901842812818561
 31
1.4071039811617001
 12
0.6450000000000001
 22
1.1090508725316071
 32
1.4542107931384709
 13
0.5500000000000002
 23
1.0841519558605761
 33
1.459503221255374
  0
3DFACE
  5
653
  8
0
 10
0.4500000000000001
 20
1.090184281281857
 30
1.4071039811617001
 11
0.5500000000000002
 21
1.06397489531235
 31
1.4126749581268609
 12
0.5500000000000002
 22
1.0841519558605761
 32
1.459503221255374
 13
0.4550000000000002
 23
1.1090508725316071
 33
1.4542107931384709
  0
3DFACE
  5
654
  8
0
 10
0.3767949192431124
 20
1.161789655385731
 30
1.391883789045085
 11
0.4500000000000001
 21
1.090184281281857
 31
1.4071039811617001
 12
0.4550000000000002
 22
1.1090508725316071
 32
1.4542107931384709
 13
0.3854551732809568
 23
1.177075977930288
 33
1.4397516106276871
  0
3DFACE
  5
655
  8
0
 10
0.3500000000000002
 20
1.2596044154591111
 30
1.3710926199633089
 11
0.3767949192431124
 21
1.161789655385731
 31
1.391883789045085
 12
0.3854551732809568
 22
1.177075977930288
 32
1.4397516106276871
 13
0.3600000000000002
 23
1.27
 33
1.419999999999999
  0
3DFACE
  5
656
  8
0
 10
0.6450000000000004
 20
1.430949127468391
 30
1.3857892068615281
 11
0.5500000000000003
 21
1.455848044139423
 31
1.380496778744625
 12
0.4550000000000002
 22
1.430949127468391
 32
1.3857892068615281
 13
0.7145448267190437
 23
1.362924022069711
 33
1.4002483893723121
  0
3DFACE
  5
657
  8
0
 10
0.4297918471982872
 20
1.376068153331254
 30
1.340842146770348
 11
0.3800000000000002
 21
1.2570951745925629
 31
1.3592875698306099
 12
0.3800000000000002
 22
1.2596044154591119
 32
1.3710926199633089
 13
0.4297918471982872
 23
1.3771857317107501
 33
1.346099939664225
  0
3DFACE
  5
658
  8
0
 10
0.5500000000000003
 20
1.425348374680746
 30
1.333201802375078
 11
0.4297918471982872
 21
1.376068153331254
 31
1.340842146770348
 12
0.4297918471982872
 22
1.3771857317107501
 32
1.346099939664225
 13
0.5500000000000003
 23
1.425889507583858
 33
1.3357476325242901
  0
3DFACE
  5
659
  8
0
 10
0.6702081528017134
 20
1.376068153331254
 30
1.340842146770348
 11
0.5500000000000003
 21
1.425348374680746
 31
1.333201802375078
 12
0.5500000000000003
 22
1.425889507583858
 32
1.3357476325242901
 13
0.6702081528017134
 23
1.3771857317107501
 33
1.346099939664225
  0
3DFACE
  5
65A
  8
0
 10
0.7200000000000002
 20
1.2570951745925629
 30
1.3592875698306099
 11
0.6702081528017134
 21
1.376068153331254
 31
1.340842146770348
 12
0.6702081528017134
 22
1.3771857317107501
 32
1.346099939664225
 13
0.7200000000000002
 23
1.2596044154591119
 33
1.3710926199633089
  0
3DFACE
  5
65B
  8
0
 10
0.6702081528017133
 20
1.138122195853871
 30
1.3777329928908719
 11
0.7200000000000002
 21
1.2570951745925629
 31
1.3592875698306099
 12
0.7200000000000002
 22
1.2596044154591119
 32
1.3710926199633089
 13
0.6702081528017133
 23
1.1420230992074729
 33
1.396085300262393
  0
3DFACE
  5
65C
  8
0
 10
0.5500000000000002
 20
1.0888419745043789
 30
1.3853733372861421
 11
0.6702081528017133
 21
1.138122195853871
 31
1.3777329928908719
 12
0.6702081528017133
 22
1.1420230992074729
 32
1.396085300262393
 13
0.5500000000000002
 23
1.0933193233343641
 33
1.4064376074023279
  0
3DFACE
  5
65D
  8
0
 10
0.4297918471982872
 20
1.138122195853871
 30
1.3777329928908719
 11
0.5500000000000002
 21
1.0888419745043789
 31
1.3853733372861421
 12
0.5500000000000002
 22
1.0933193233343641
 32
1.4064376074023279
 13
0.4297918471982872
 23
1.1420230992074729
 33
1.396085300262393
  0
3DFACE
  5
65E
  8
0
 10
0.3800000000000002
 20
1.2570951745925629
 30
1.3592875698306099
 11
0.4297918471982872
 21
1.138122195853871
 31
1.3777329928908719
 12
0.4297918471982872
 22
1.1420230992074729
 32
1.396085300262393
 13
0.3800000000000002
 23
1.2596044154591119
 33
1.3710926199633089
  0
3DFACE
  5
65F
  8
0
 10
0.4500000000000002
 20
1.429024549636366
 30
1.3350812587649179
 11
0.3767949192431124
 21
1.357419175532492
 31
1.350301450881533
 12
0.3854551732809568
 22
1.362924022069711
 32
1.4002483893723121
 13
0.4550000000000002
 23
1.430949127468391
 33
1.3857892068615281
  0
3DFACE
  5
660
  8
0
 10
0.5500000000000003
 20
1.4552339356058721
 30
1.3295102817997571
 11
0.4500000000000002
 21
1.429024549636366
 31
1.3350812587649179
 12
0.4550000000000002
 22
1.430949127468391
 32
1.3857892068615281
 13
0.5500000000000003
 23
1.455848044139423
 33
1.380496778744625
  0
3DFACE
  5
661
  8
0
 10
0.6500000000000004
 20
1.429024549636366
 30
1.3350812587649179
 11
0.5500000000000003
 21
1.4552339356058721
 31
1.3295102817997571
 12
0.5500000000000003
 22
1.455848044139423
 32
1.380496778744625
 13
0.6450000000000004
 23
1.430949127468391
 33
1.3857892068615281
  0
3DFACE
  5
662
  8
0
 10
0.7232050807568881
 20
1.357419175532492
 30
1.350301450881533
 11
0.6500000000000004
 21
1.429024549636366
 31
1.3350812587649179
 12
0.6450000000000004
 22
1.430949127468391
 32
1.3857892068615281
 13
0.7145448267190437
 23
1.362924022069711
 33
1.4002483893723121
  0
3DFACE
  5
663
  8
0
 10
0.6450000000000001
 20
1.1090508725316071
 30
1.4542107931384709
 11
0.3854551732809568
 21
1.177075977930288
 31
1.4397516106276871
 12
0.4550000000000002
 22
1.1090508725316071
 32
1.4542107931384709
 13
0.5500000000000002
 23
1.0841519558605761
 33
1.459503221255374
  0
3DFACE
  5
664
  8
0
 10
0.7145448267190436
 20
1.177075977930288
 30
1.4397516106276871
 11
0.3600000000000002
 21
1.27
 31
1.419999999999999
 12
0.3854551732809568
 22
1.177075977930288
 32
1.4397516106276871
 13
0.6450000000000001
 23
1.1090508725316071
 33
1.4542107931384709
  0
3DFACE
  5
666
  8
0
 10
0.5500000000000002
 20
1.0888419745043789
 30
1.3853733372861421
 11
0.4297918471982872
 21
1.138122195853871
 31
1.3777329928908719
 12
-0.1497918471982868
 22
1.138122195853871
 32
1.3777329928908719
 13
-0.2699999999999999
 23
1.0888419745043789
 33
1.3853733372861421
  0
3DFACE
  5
667
  8
0
 10
0.4297918471982872
 20
1.138122195853871
 30
1.3777329928908719
 11
0.3800000000000002
 21
1.2570951745925629
 31
1.3592875698306099
 12
-0.0999999999999999
 22
1.2570951745925629
 32
1.3592875698306099
 13
-0.1497918471982868
 23
1.138122195853871
 33
1.3777329928908719
  0
3DFACE
  5
668
  8
0
 10
0.3800000000000002
 20
1.2570951745925629
 30
1.3592875698306099
 11
0.4297918471982871
 21
1.3760681533312551
 31
1.340842146770348
 12
-0.1497918471982868
 22
1.376068153331254
 32
1.340842146770348
 13
-0.0999999999999999
 23
1.2570951745925629
 33
1.3592875698306099
  0
3DFACE
  5
669
  8
0
 10
0.4297918471982884
 20
1.3760681533312551
 30
1.340842146770348
 11
0.5500000000000003
 21
1.425348374680746
 31
1.333201802375078
 12
-0.2699999999999998
 22
1.425348374680746
 32
1.333201802375078
 13
-0.1497918471982868
 23
1.376068153331254
 33
1.340842146770348
  0
3DFACE
  5
66A
  8
0
 10
0.5500000000000015
 20
1.425348374680746
 30
1.333201802375078
 11
0.6557283435044548
 21
2.2999999999999989
 31
1.1975968992248061
 12
-0.6557283435044532
 22
2.2999999999999998
 32
1.1975968992248101
 13
-0.2699999999999998
 23
1.425348374680746
 33
1.333201802375078
  0
3DFACE
  5
66B
  8
0
 10
0.6702081528017133
 20
1.376068153331254
 30
1.340842146770348
 11
0.6557283435044545
 21
2.2999999999999998
 31
1.1975968992248061
 12
0.6557283435044545
 22
2.2999999999999998
 32
1.1975968992248061
 13
0.5500000000000015
 23
1.425348374680746
 33
1.333201802375078
  0
3DFACE
  5
66C
  8
0
 10
0.7200000000000002
 20
1.2570951745925629
 30
1.3592875698306099
 11
0.6557283435044545
 21
2.299999999999998
 31
1.1975968992248061
 12
0.6557283435044545
 22
2.299999999999998
 32
1.1975968992248061
 13
0.6702081528017134
 23
1.376068153331254
 33
1.340842146770348
  0
3DFACE
  5
66D
  8
0
 10
0.785346228793033
 20
0.9300000000000001
 30
1.409999999999999
 11
0.6557283435044545
 21
2.2999999999999972
 31
1.1975968992248061
 12
0.6557283435044545
 22
2.2999999999999972
 32
1.1975968992248061
 13
0.7200000000000003
 23
1.2570951745925629
 33
1.3592875698306099
  0
3DFACE
  5
66E
  8
0
 10
0.7853462287930331
 20
0.9299999999999991
 30
1.4099999999999999
 11
0.7200000000000002
 21
1.2570951745925629
 31
1.3592875698306099
 12
0.7200000000000002
 22
1.2570951745925629
 32
1.3592875698306099
 13
0.6702081528017134
 23
1.138122195853871
 33
1.3777329928908719
  0
3DFACE
  5
66F
  8
0
 10
0.785346228793033
 20
0.9300000000000001
 30
1.409999999999999
 11
0.6702081528017133
 21
1.138122195853871
 31
1.3777329928908719
 12
0.6702081528017133
 22
1.138122195853871
 32
1.3777329928908719
 13
0.5500000000000003
 23
1.0888419745043789
 33
1.3853733372861421
  0
3DFACE
  5
670
  8
0
 10
-0.2699999999999999
 20
1.0888419745043789
 30
1.3853733372861421
 11
-0.3902081528017128
 21
1.138122195853871
 31
1.3777329928908719
 12
-0.3902081528017128
 22
1.138122195853871
 32
1.3777329928908719
 13
-0.7853462287930332
 23
0.9300000000000002
 33
1.4099999999999999
  0
3DFACE
  5
671
  8
0
 10
-0.3902081528017129
 20
1.138122195853871
 30
1.3777329928908719
 11
-0.4399999999999999
 21
1.2570951745925629
 31
1.3592875698306099
 12
-0.4399999999999999
 22
1.2570951745925629
 32
1.3592875698306099
 13
-0.785346228793034
 23
0.9300000000000001
 33
1.409999999999999
  0
3DFACE
  5
672
  8
0
 10
-0.4400000000000001
 20
1.2570951745925629
 30
1.3592875698306099
 11
-0.6557283435044531
 21
2.2999999999999998
 31
1.1975968992248101
 12
-0.6557283435044531
 22
2.2999999999999998
 32
1.1975968992248101
 13
-0.7853462287930327
 23
0.9300000000000002
 33
1.409999999999999
  0
3DFACE
  5
673
  8
0
 10
-0.3902081528017129
 20
1.376068153331254
 30
1.340842146770348
 11
-0.6557283435044524
 21
2.299999999999975
 31
1.1975968992248129
 12
-0.6557283435044524
 22
2.299999999999975
 32
1.1975968992248129
 13
-0.4400000000000002
 23
1.257095174592564
 33
1.3592875698306099
  0
3DFACE
  5
674
  8
0
 10
-0.2699999999999998
 20
1.425348374680746
 30
1.333201802375078
 11
-0.6557283435044364
 21
2.299999999999919
 31
1.197596899224822
 12
-0.6557283435044364
 22
2.299999999999919
 32
1.197596899224822
 13
-0.3902081528017129
 23
1.376068153331254
 33
1.340842146770348
  0
3DFACE
  5
1DFF
  8
0
 10
-0.6522947341949746
 20
0.1500000000000002
 30
1.3100000000000001
 11
-0.6321985447626405
 21
0.2249999999999996
 31
1.3100000000000001
 12
-0.6321985447626405
 22
0.2249999999999996
 32
1.4099999999999999
 13
-0.6522947341949745
 23
0.1500000000000005
 33
1.4099999999999999
  0
3DFACE
  5
1E00
  8
0
 10
-0.6321985447626405
 20
0.2249999999999996
 30
1.3100000000000001
 11
-0.3650000000000002
 21
0.4921985447626401
 31
1.3100000000000001
 12
-0.3650000000000002
 22
0.4921985447626401
 32
1.4099999999999999
 13
-0.6321985447626405
 23
0.2249999999999996
 33
1.4099999999999999
  0
3DFACE
  5
1E01
  8
0
 10
-0.3650000000000002
 20
0.4921985447626401
 30
1.3100000000000001
 11
-0.0000000000000001
 21
0.59
 31
1.3100000000000001
 12
-0.0000000000000001
 22
0.59
 32
1.4099999999999999
 13
-0.3650000000000002
 23
0.4921985447626401
 33
1.4099999999999999
  0
3DFACE
  5
1E02
  8
0
 10
-0.0000000000000001
 20
0.59
 30
1.3100000000000001
 11
0.3650000000000001
 21
0.4921985447626401
 31
1.3100000000000001
 12
0.3650000000000001
 22
0.4921985447626401
 32
1.4099999999999999
 13
-0.0000000000000001
 23
0.59
 33
1.4099999999999999
  0
3DFACE
  5
1E03
  8
0
 10
0.3650000000000001
 20
0.4921985447626401
 30
1.3100000000000001
 11
0.6321985447626404
 21
0.2249999999999997
 31
1.3100000000000001
 12
0.6321985447626404
 22
0.2249999999999997
 32
1.4099999999999999
 13
0.3650000000000001
 23
0.4921985447626401
 33
1.4099999999999999
  0
3DFACE
  5
1E04
  8
0
 10
0.6321985447626404
 20
0.2249999999999997
 30
1.3100000000000001
 11
0.6522947341949746
 21
0.1499999999999999
 31
1.3100000000000001
 12
0.6522947341949745
 22
0.1500000000000001
 32
1.4099999999999999
 13
0.6321985447626404
 23
0.2249999999999997
 33
1.4099999999999999
  0
3DFACE
  5
1E07
  8
0
 10
-0.6522947341949742
 20
0.1500000000000001
 30
1.3100000000000001
 11
-0.6522947341949745
 21
0.1500000000000005
 31
1.4099999999999999
 12
-0.8679733474371008
 22
0.1500000000000003
 32
1.409999999999999
 13
-0.8892796610169487
 23
0.1500000000000002
 33
1.3100000000000001
  0
3DFACE
  5
1E08
  8
0
 10
0.8679733474371008
 20
0.1500000000000001
 30
1.409999999999999
 11
0.7853462287930332
 21
0.9299999999999991
 31
1.409999999999999
 12
0.6321985447626404
 22
0.2249999999999997
 32
1.4099999999999999
 13
0.6522947341949744
 23
0.1500000000000002
 33
1.409999999999999
  0
3DFACE
  5
1E0A
  8
0
 10
-0.6321985447626404
 20
0.2249999999999996
 30
1.4099999999999999
 11
-0.3650000000000002
 21
0.4921985447626399
 31
1.4099999999999999
 12
-0.785346228793033
 22
0.9300000000000009
 32
1.4099999999999999
 13
-0.6321985447626404
 23
0.2249999999999996
 33
1.4099999999999999
  0
3DFACE
  5
1E0B
  8
0
 10
-0.3650000000000002
 20
0.4921985447626401
 30
1.4099999999999999
 11
0.0
 21
0.5899999999999998
 31
1.4099999999999999
 12
-0.7853462287930317
 22
0.9300000000000013
 32
1.409999999999999
 13
-0.3650000000000002
 23
0.4921985447626401
 33
1.4099999999999999
  0
3DFACE
  5
1E0C
  8
0
 10
0.0
 20
0.59
 30
1.4099999999999999
 11
0.785346228793033
 21
0.9299999999999998
 31
1.409999999999999
 12
-0.7853462287930327
 22
0.9300000000000001
 32
1.4099999999999999
 13
0.0
 23
0.59
 33
1.4099999999999999
  0
3DFACE
  5
1E0D
  8
0
 10
0.3650000000000001
 20
0.4921985447626401
 30
1.4099999999999999
 11
0.7853462287930338
 21
0.9300000000000014
 31
1.409999999999999
 12
0.0
 22
0.59
 32
1.4099999999999999
 13
0.3650000000000001
 23
0.4921985447626401
 33
1.4099999999999999
  0
3DFACE
  5
1E0E
  8
0
 10
0.6321985447626404
 20
0.2249999999999997
 30
1.4099999999999999
 11
0.7853462287930335
 21
0.9300000000000002
 31
1.409999999999999
 12
0.3650000000000001
 22
0.4921985447626401
 32
1.4099999999999999
 13
0.6321985447626404
 23
0.2249999999999997
 33
1.4099999999999999
  0
3DFACE
  5
1E10
  8
0
 10
0.6522947341949748
 20
0.1499999999999999
 30
1.3100000000000001
 11
0.6321985447626404
 21
0.2249999999999997
 31
1.3100000000000001
 12
-0.6321985447626406
 22
0.2249999999999995
 32
1.3100000000000001
 13
-0.6522947341949746
 23
0.1500000000000003
 33
1.3100000000000001
  0
3DFACE
  5
1E11
  8
0
 10
0.6321985447626404
 20
0.2249999999999997
 30
1.3100000000000001
 11
0.3650000000000001
 21
0.4921985447626401
 31
1.3100000000000001
 12
-0.3650000000000002
 22
0.4921985447626401
 32
1.3100000000000001
 13
-0.6321985447626405
 23
0.2249999999999996
 33
1.3100000000000001
  0
3DFACE
  5
1E12
  8
0
 10
0.365
 20
0.4921985447626401
 30
1.3100000000000001
 11
0.0
 21
0.59
 31
1.3100000000000001
 12
0.0
 22
0.59
 32
1.3100000000000001
 13
-0.3650000000000002
 23
0.4921985447626401
 33
1.3100000000000001
  0
3DFACE
  5
1E13
  8
0
 10
0.9200000000000002
 20
-0.14
 30
1.3100000000000001
 11
0.8892796610169487
 21
0.1500000000000039
 31
1.3100000000000001
 12
0.6522947341949748
 22
0.1499999999999999
 32
1.3099999999999989
 13
0.9200000000000002
 23
-0.14
 33
1.3100000000000001
  0
3DFACE
  5
1E14
  8
0
 10
-0.9200000000000002
 20
-0.1399999999999998
 30
1.3100000000000001
 11
-0.6522947341949748
 21
0.1500000000000041
 31
1.3100000000000001
 12
-0.8892796610169487
 22
0.1500000000000002
 32
1.3100000000000001
 13
-0.9200000000000002
 23
-0.1399999999999998
 33
1.3100000000000001
  0
3DFACE
  5
24C4
  8
0
 10
0.704220852551303
 20
2.2999999999999989
 30
0.9699999999999999
 11
0.7400000000000003
 21
2.2200000000000002
 31
0.85
 12
-0.7399999999999998
 22
2.2200000000000002
 32
0.85
 13
-0.7042208525513022
 23
2.2999999999999998
 33
0.9699999999999999
  0
VIEWPORT
  5
2E
 67
     1
  8
0
 10
144.7270812988281
 20
101.2295806407928
 30
0.0
 40
391.13550988316581
 41
222.15178063964839
 68
     2
 69
     1
1001
ACAD
1000
MVIEW
1002
{
1070
    16
1010
0.0
1020
0.0
1030
0.0
1010
0.0
1020
0.0
1030
1.0
1040
0.0
1040
222.15178063964839
1040
144.7270812988281
1040
101.2295806407928
1040
50.0
1040
0.0
1040
0.0
1070
     0
1070
   100
1070
     1
1070
     1
1070
     0
1070
     0
1070
     0
1070
     0
1040
0.0
1040
0.0
1040
0.0
1040
10.0
1040
10.0
1040
10.0
1040
10.0
1070
     0
1002
{
1002
}
1002
}
  0
VIEWPORT
  5
30
 67
     1
  8
0
 10
139.22375631332389
 20
100.8062499761581
 30
0.0
 40
222.75801010131829
 41
161.289999961853
 68
     1
 69
     2
1001
ACAD
1000
MVIEW
1002
{
1070
    16
1010
0.0
1020
0.0
1030
0.0
1010
0.0
1020
0.0
1030
1.0
1040
0.0
1040
307.49010134148989
1040
210.0
1040
148.5
1040
50.0
1040
0.0
1040
0.0
1070
     0
1070
   100
1070
     1
1070
     3
1070
     0
1070
     1
1070
     0
1070
     0
1040
0.0
1040
0.0
1040
0.0
1040
10.0
1040
10.0
1040
10.0
1040
10.0
1070
     0
1002
{
1002
}
1002
}
  0
ENDSEC
  0
EOF
