  0
SECTION
  2
HEADER
  9
$ACADVER
  1
AC1009
  9
$INSBASE
 10
0.0
 20
0.0
 30
0.0
  9
$EXTMIN
 10
-1.6499999999999999
 20
-29.068000000000001
 30
-16.219999999999999
  9
$EXTMAX
 10
3.0
 20
15.720000000000001
 30
46.471837067209769
  9
$LIMMIN
 10
0.0
 20
0.0
  9
$LIMMAX
 10
420.0
 20
297.0
  9
$ORTHOMODE
 70
     1
  9
$REGENMODE
 70
     1
  9
$FILLMODE
 70
     1
  9
$QTEXTMODE
 70
     0
  9
$MIRRTEXT
 70
     1
  9
$DRAGMODE
 70
     2
  9
$LTSCALE
 40
1.0
  9
$OSMODE
 70
   559
  9
$ATTMODE
 70
     1
  9
$TEXTSIZE
 40
2.5
  9
$TRACEWID
 40
1.0
  9
$TEXTSTYLE
  7
STANDARD
  9
$CLAYER
  8
0
  9
$CELTYPE
  6
BYLAYER
  9
$CECOLOR
 62
   256
  9
$DIMSCALE
 40
1.0
  9
$DIMASZ
 40
2.5
  9
$DIMEXO
 40
0.625
  9
$DIMDLI
 40
3.75
  9
$DIMRND
 40
0.0
  9
$DIMDLE
 40
0.0
  9
$DIMEXE
 40
1.25
  9
$DIMTP
 40
0.0
  9
$DIMTM
 40
0.0
  9
$DIMTXT
 40
2.5
  9
$DIMCEN
 40
2.5
  9
$DIMTSZ
 40
0.0
  9
$DIMTOL
 70
     0
  9
$DIMLIM
 70
     0
  9
$DIMTIH
 70
     0
  9
$DIMTOH
 70
     0
  9
$DIMSE1
 70
     0
  9
$DIMSE2
 70
     0
  9
$DIMTAD
 70
     1
  9
$DIMZIN
 70
     8
  9
$DIMBLK
  1

  9
$DIMASO
 70
     1
  9
$DIMSHO
 70
     1
  9
$DIMPOST
  1

  9
$DIMAPOST
  1

  9
$DIMALT
 70
     0
  9
$DIMALTD
 70
     3
  9
$DIMALTF
 40
0.03937007874016
  9
$DIMLFAC
 40
1.0
  9
$DIMTOFL
 70
     1
  9
$DIMTVP
 40
0.0
  9
$DIMTIX
 70
     0
  9
$DIMSOXD
 70
     0
  9
$DIMSAH
 70
     0
  9
$DIMBLK1
  1

  9
$DIMBLK2
  1

  9
$DIMSTYLE
  2
ISO-25
  9
$DIMCLRD
 70
     0
  9
$DIMCLRE
 70
     0
  9
$DIMCLRT
 70
     0
  9
$DIMTFAC
 40
1.0
  9
$DIMGAP
 40
0.625
  9
$LUNITS
 70
     2
  9
$LUPREC
 70
     4
  9
$SKETCHINC
 40
1.0
  9
$FILLETRAD
 40
10.0
  9
$AUNITS
 70
     0
  9
$AUPREC
 70
     0
  9
$MENU
  1
.
  9
$ELEVATION
 40
0.0
  9
$PELEVATION
 40
0.0
  9
$THICKNESS
 40
0.0
  9
$LIMCHECK
 70
     0
  9
$BLIPMODE
 70
     0
  9
$CHAMFERA
 40
10.0
  9
$CHAMFERB
 40
10.0
  9
$SKPOLY
 70
     0
  9
$TDCREATE
 40
2454769.7702105902
  9
$TDUPDATE
 40
2454769.8750268519
  9
$TDINDWG
 40
0.079486956
  9
$TDUSRTIMER
 40
0.079486956
  9
$USRTIMER
 70
     1
  9
$ANGBASE
 50
0.0
  9
$ANGDIR
 70
     0
  9
$PDMODE
 70
     0
  9
$PDSIZE
 40
0.0
  9
$PLINEWID
 40
0.0
  9
$COORDS
 70
     1
  9
$SPLFRAME
 70
     0
  9
$SPLINETYPE
 70
     6
  9
$SPLINESEGS
 70
     8
  9
$ATTDIA
 70
     1
  9
$ATTREQ
 70
     1
  9
$HANDLING
 70
-16383
  9
$HANDSEED
  5
689
  9
$SURFTAB1
 70
     6
  9
$SURFTAB2
 70
     6
  9
$SURFTYPE
 70
     6
  9
$SURFU
 70
     6
  9
$SURFV
 70
     6
  9
$UCSNAME
  2

  9
$UCSORG
 10
0.0
 20
0.0
 30
0.0
  9
$UCSXDIR
 10
0.0
 20
-1.0
 30
0.0
  9
$UCSYDIR
 10
0.0
 20
0.0
 30
1.0
  9
$PUCSNAME
  2

  9
$PUCSORG
 10
0.0
 20
0.0
 30
0.0
  9
$PUCSXDIR
 10
1.0
 20
0.0
 30
0.0
  9
$PUCSYDIR
 10
0.0
 20
1.0
 30
0.0
  9
$USERI1
 70
     0
  9
$USERI2
 70
     0
  9
$USERI3
 70
     0
  9
$USERI4
 70
     0
  9
$USERI5
 70
     0
  9
$USERR1
 40
0.0
  9
$USERR2
 40
0.0
  9
$USERR3
 40
0.0
  9
$USERR4
 40
0.0
  9
$USERR5
 40
0.0
  9
$WORLDVIEW
 70
     1
  9
$SHADEDGE
 70
     3
  9
$SHADEDIF
 70
    70
  9
$TILEMODE
 70
     1
  9
$MAXACTVP
 70
    64
  9
$PLIMCHECK
 70
     0
  9
$PEXTMIN
 10
27.844751262664801
 20
20.161249995231621
 30
0.0
  9
$PEXTMAX
 10
250.60276136398309
 20
181.4512499570846
 30
0.0
  9
$PLIMMIN
 10
-3.757080078125
 20
-3.7570831775665279
  9
$PLIMMAX
 10
293.21124267578119
 20
206.21624445915219
  9
$UNITMODE
 70
     0
  9
$VISRETAIN
 70
     1
  9
$PLINEGEN
 70
     0
  9
$PSLTSCALE
 70
     1
  0
ENDSEC
  0
SECTION
  2
TABLES
  0
TABLE
  2
VPORT
 70
     2
  0
VPORT
  2
*ACTIVE
 70
     0
 10
0.0
 20
0.0
 11
1.0
 21
1.0
 12
1.5636598308942089
 22
0.6148126935292702
 13
0.0
 23
0.0
 14
0.01
 24
0.01
 15
1.0
 25
1.0
 16
-1.0
 26
0.0
 36
0.0
 17
0.0
 27
0.0
 37
0.0
 40
24.480653282119409
 41
1.7606679035250461
 42
50.0
 43
0.0
 44
0.0
 50
0.0
 51
0.0
 71
     0
 72
   100
 73
     1
 74
     3
 75
     1
 76
     1
 77
     0
 78
     0
  0
ENDTAB
  0
TABLE
  2
LTYPE
 70
     1
  0
LTYPE
  2
CONTINUOUS
 70
     0
  3
Solid line
 72
    65
 73
     0
 40
0.0
  0
ENDTAB
  0
TABLE
  2
LAYER
 70
     7
  0
LAYER
  2
0
 70
     0
 62
     7
  6
CONTINUOUS
  0
LAYER
  2
DRAWING
 70
     0
 62
    -9
  6
CONTINUOUS
  0
LAYER
  2
TURRET
 70
     0
 62
     2
  6
CONTINUOUS
  0
LAYER
  2
GUN
 70
     0
 62
     1
  6
CONTINUOUS
  0
LAYER
  2
WHEEL
 70
     0
 62
     2
  6
CONTINUOUS
  0
LAYER
  2
DR2
 70
     0
 62
    -9
  6
CONTINUOUS
  0
LAYER
  2
SLEEVE
 70
     0
 62
     5
  6
CONTINUOUS
  0
ENDTAB
  0
TABLE
  2
STYLE
 70
     1
  0
STYLE
  2
STANDARD
 70
     0
 40
0.0
 41
1.0
 50
0.0
 71
     0
 42
2.5
  3
txt
  4

  0
ENDTAB
  0
TABLE
  2
VIEW
 70
     0
  0
ENDTAB
  0
TABLE
  2
UCS
 70
     0
  0
ENDTAB
  0
TABLE
  2
APPID
 70
     1
  0
APPID
  2
ACAD
 70
     0
  0
ENDTAB
  0
TABLE
  2
DIMSTYLE
 70
     1
  0
DIMSTYLE
  2
ISO-25
 70
     0
  3

  4

  5

  6

  7

 40
1.0
 41
2.5
 42
0.625
 43
3.75
 44
1.25
 45
0.0
 46
0.0
 47
0.0
 48
0.0
140
2.5
141
2.5
142
0.0
143
0.03937007874016
144
1.0
145
0.0
146
1.0
147
0.625
 71
     0
 72
     0
 73
     0
 74
     0
 75
     0
 76
     0
 77
     1
 78
     8
170
     0
171
     3
172
     1
173
     0
174
     0
175
     0
176
     0
177
     0
178
     0
  0
ENDTAB
  0
ENDSEC
  0
SECTION
  2
BLOCKS
  0
BLOCK
  8
0
  2
$MODEL_SPACE
 70
     0
 10
0.0
 20
0.0
 30
0.0
  3
$MODEL_SPACE
  1

  0
ENDBLK
  5
21
  8
0
  0
BLOCK
 67
     1
  8
0
  2
$PAPER_SPACE
 70
     0
 10
0.0
 20
0.0
 30
0.0
  3
$PAPER_SPACE
  1

  0
ENDBLK
  5
1D
 67
     1
  8
0
  0
ENDSEC
  0
SECTION
  2
ENTITIES
  0
3DFACE
  5
86
  8
0
 10
-1.6499999999999999
 20
-6.0099999999999989
 30
3.0499999999999998
 11
-1.6499999999999999
 21
-6.0099999999999989
 31
1.3500000000000001
 12
1.6499999999999999
 22
-6.0099999999999989
 32
1.3500000000000001
 13
1.6499999999999999
 23
-6.0099999999999989
 33
3.0499999999999998
  0
3DFACE
  5
87
  8
0
 10
1.6499999999999999
 20
-6.0099999999999989
 30
3.0499999999999998
 11
1.6499999999999999
 21
-6.0099999999999989
 31
1.3500000000000001
 12
1.6499999999999999
 22
6.0099999999999989
 32
1.3500000000000001
 13
1.6499999999999999
 23
6.0099999999999989
 33
3.0499999999999998
  0
3DFACE
  5
88
  8
0
 10
-1.6499999999999999
 20
6.0099999999999989
 30
1.3500000000000001
 11
-1.6499999999999999
 21
-6.0099999999999989
 31
1.3500000000000001
 12
-1.6499999999999999
 22
-6.0099999999999989
 32
3.0499999999999998
 13
-1.6499999999999999
 23
6.0099999999999989
 33
3.0499999999999998
  0
3DFACE
  5
89
  8
0
 10
-1.6499999999999999
 20
6.0099999999999989
 30
3.0499999999999998
 11
-1.6499999999999999
 21
-6.0099999999999989
 31
3.0499999999999998
 12
1.6499999999999999
 22
-6.0099999999999989
 32
3.0499999999999998
 13
1.6499999999999999
 23
6.0099999999999989
 33
3.0499999999999998
  0
3DFACE
  5
8A
  8
0
 10
1.6499999999999999
 20
6.0099999999999989
 30
3.0499999999999998
 11
1.6499999999999999
 21
6.0099999999999989
 31
1.3500000000000001
 12
-1.6499999999999999
 22
6.0099999999999989
 32
1.3500000000000001
 13
-1.6499999999999999
 23
6.0099999999999989
 33
3.0499999999999998
  0
3DFACE
  5
8B
  8
0
 10
1.6499999999999999
 20
6.0099999999999989
 30
1.3500000000000001
 11
1.6499999999999999
 21
-6.0099999999999989
 31
1.3500000000000001
 12
-1.6499999999999999
 22
-6.0099999999999989
 32
1.3500000000000001
 13
-1.6499999999999999
 23
6.0099999999999989
 33
1.3500000000000001
  0
3DFACE
  5
16F
  8
0
 10
1.55
 20
6.0700000000000003
 30
1.3500000000000001
 11
1.55
 21
6.0700000000000003
 31
1.1499999999999999
 12
0.3300000000000001
 22
6.2599999999999971
 32
1.1499999999999999
 13
0.3300000000000001
 23
6.2599999999999971
 33
1.3500000000000001
  0
3DFACE
  5
170
  8
0
 10
-0.33
 20
6.2599999999999971
 30
1.1499999999999999
 11
-1.55
 21
6.0700000000000003
 31
1.1499999999999999
 12
-1.55
 22
6.0700000000000003
 32
1.3500000000000001
 13
-0.33
 23
6.2599999999999971
 33
1.3500000000000001
  0
3DFACE
  5
171
  8
0
 10
-0.33
 20
6.2599999999999971
 30
1.3500000000000001
 11
-1.55
 21
6.0700000000000003
 31
1.3500000000000001
 12
1.55
 22
6.0700000000000003
 32
1.3500000000000001
 13
0.3300000000000001
 23
6.2599999999999971
 33
1.3500000000000001
  0
3DFACE
  5
172
  8
0
 10
0.3300000000000001
 20
6.2599999999999971
 30
1.3500000000000001
 11
0.3300000000000001
 21
6.2599999999999971
 31
1.1499999999999999
 12
-0.33
 22
6.2599999999999971
 32
1.1499999999999999
 13
-0.33
 23
6.2599999999999971
 33
1.3500000000000001
  0
3DFACE
  5
173
  8
0
 10
0.3300000000000001
 20
6.2599999999999971
 30
1.1499999999999999
 11
1.55
 21
6.0700000000000003
 31
1.1499999999999999
 12
-1.55
 22
6.0700000000000003
 32
1.1499999999999999
 13
-0.33
 23
6.2599999999999971
 33
1.1499999999999999
  0
3DFACE
  5
178
  8
0
 10
1.55
 20
6.0699999999999967
 30
1.1499999999999999
 11
1.55
 21
-6.0700000000000003
 31
1.1499999999999999
 12
-1.55
 22
-6.0700000000000003
 32
1.1499999999999999
 13
-1.55
 23
6.0699999999999967
 33
1.1499999999999999
  0
3DFACE
  5
179
  8
0
 10
-1.55
 20
6.0699999999999967
 30
1.1499999999999999
 11
-1.55
 21
-6.0700000000000003
 31
1.1499999999999999
 12
-1.55
 22
-6.0700000000000003
 32
1.3500000000000001
 13
-1.55
 23
6.0699999999999967
 33
1.3500000000000001
  0
3DFACE
  5
17A
  8
0
 10
1.55
 20
-6.0700000000000003
 30
1.3500000000000001
 11
1.55
 21
-6.0700000000000003
 31
1.1499999999999999
 12
1.55
 22
6.0699999999999967
 32
1.1499999999999999
 13
1.55
 23
6.0699999999999967
 33
1.3500000000000001
  0
3DFACE
  5
17D
  8
0
 10
-1.55
 20
6.0699999999999967
 30
1.3500000000000001
 11
-1.55
 21
6.0099999999999989
 31
1.3500000000000001
 12
1.55
 22
6.0099999999999989
 32
1.3500000000000001
 13
1.55
 23
6.0699999999999967
 33
1.3500000000000001
  0
3DFACE
  5
17F
  8
0
 10
-0.3300000000000001
 20
-6.259999999999998
 30
1.1499999999999999
 11
-1.55
 21
-6.0700000000000021
 31
1.1499999999999999
 12
1.55
 22
-6.0700000000000021
 32
1.1499999999999999
 13
0.33
 23
-6.259999999999998
 33
1.1499999999999999
  0
3DFACE
  5
180
  8
0
 10
0.33
 20
-6.259999999999998
 30
1.3500000000000001
 11
1.55
 21
-6.0700000000000021
 31
1.3500000000000001
 12
-1.55
 22
-6.0700000000000021
 32
1.3500000000000001
 13
-0.3300000000000001
 23
-6.259999999999998
 33
1.3500000000000001
  0
3DFACE
  5
181
  8
0
 10
-0.3300000000000001
 20
-6.259999999999998
 30
1.3500000000000001
 11
-0.3300000000000001
 21
-6.259999999999998
 31
1.1499999999999999
 12
0.33
 22
-6.259999999999998
 32
1.1499999999999999
 13
0.33
 23
-6.259999999999998
 33
1.3500000000000001
  0
3DFACE
  5
183
  8
0
 10
-1.55
 20
-6.0700000000000021
 30
1.3500000000000001
 11
-1.55
 21
-6.0700000000000021
 31
1.1499999999999999
 12
-0.3300000000000001
 22
-6.259999999999998
 32
1.1499999999999999
 13
-0.3300000000000001
 23
-6.259999999999998
 33
1.3500000000000001
  0
3DFACE
  5
184
  8
0
 10
0.33
 20
-6.259999999999998
 30
1.1499999999999999
 11
1.55
 21
-6.0700000000000021
 31
1.1499999999999999
 12
1.55
 22
-6.0700000000000021
 32
1.3500000000000001
 13
0.33
 23
-6.259999999999998
 33
1.3500000000000001
  0
3DFACE
  5
187
  8
0
 10
-1.55
 20
-6.0100000000000016
 30
1.3500000000000001
 11
-1.55
 21
-6.0700000000000003
 31
1.3500000000000001
 12
1.55
 22
-6.0700000000000003
 32
1.3500000000000001
 13
1.55
 23
-6.0100000000000016
 33
1.3500000000000001
  0
3DFACE
  5
1AF
  8
0
 10
-0.98
 20
6.2400000000000002
 30
1.3500000000000001
 11
-1.0
 21
6.2599999999999989
 31
1.3500000000000001
 12
-1.0
 22
6.2599999999999989
 32
1.9399999999999991
 13
-0.98
 23
6.2400000000000002
 33
1.9399999999999991
  0
3DFACE
  5
1B0
  8
0
 10
-1.0
 20
6.2599999999999989
 30
1.3500000000000001
 11
-1.02
 21
6.2400000000000002
 31
1.3500000000000001
 12
-1.02
 22
6.2400000000000002
 32
1.9399999999999991
 13
-1.0
 23
6.2599999999999989
 33
1.9399999999999991
  0
3DFACE
  5
1B1
  8
0
 10
-1.02
 20
6.2400000000000002
 30
1.3500000000000001
 11
-1.0
 21
6.2199999999999998
 31
1.3500000000000001
 12
-1.0
 22
6.2199999999999998
 32
1.9399999999999991
 13
-1.02
 23
6.2400000000000002
 33
1.9399999999999991
  0
3DFACE
  5
1B2
  8
0
 10
-1.0
 20
6.2199999999999998
 30
1.3500000000000001
 11
-0.98
 21
6.2400000000000002
 31
1.3500000000000001
 12
-0.98
 22
6.2400000000000002
 32
1.9399999999999991
 13
-1.0
 23
6.2199999999999998
 33
1.9399999999999991
  0
3DFACE
  5
1B3
  8
0
 10
-0.98
 20
6.0099999999999989
 30
1.7999999999999989
 11
-1.0
 21
6.0099999999999989
 31
1.78
 12
-1.0
 22
6.2199999999999989
 32
1.78
 13
-0.98
 23
6.2399999999999993
 33
1.7999999999999989
  0
3DFACE
  5
1B4
  8
0
 10
-1.0
 20
6.0099999999999989
 30
1.78
 11
-1.02
 21
6.0099999999999989
 31
1.7999999999999989
 12
-1.02
 22
6.2399999999999993
 32
1.7999999999999989
 13
-1.0
 23
6.2199999999999989
 33
1.78
  0
3DFACE
  5
1B5
  8
0
 10
-1.02
 20
6.0099999999999989
 30
1.7999999999999989
 11
-1.0
 21
6.0099999999999989
 31
1.819999999999999
 12
-1.0
 22
6.2199999999999989
 32
1.819999999999999
 13
-1.02
 23
6.2399999999999993
 33
1.7999999999999989
  0
3DFACE
  5
1B6
  8
0
 10
-1.0
 20
6.0099999999999989
 30
1.819999999999999
 11
-0.98
 21
6.0099999999999989
 31
1.7999999999999989
 12
-0.98
 22
6.2399999999999993
 32
1.7999999999999989
 13
-1.0
 23
6.2199999999999989
 33
1.819999999999999
  0
3DFACE
  5
1BD
  8
0
 10
-0.82
 20
6.2400000000000002
 30
1.9399999999999991
 11
-0.9100000000000001
 21
6.0841154273188014
 31
1.9399999999999991
 12
-1.089999999999999
 22
6.0841154273188014
 32
1.9399999999999991
 13
-1.179999999999999
 23
6.2400000000000002
 33
1.9399999999999991
  0
3DFACE
  5
1BE
  8
0
 10
-1.179999999999999
 20
6.2400000000000002
 30
1.9399999999999991
 11
-1.089999999999999
 21
6.0841154273188014
 31
1.9399999999999991
 12
-0.9100000000000001
 22
6.0841154273188014
 32
1.9399999999999991
 13
-0.82
 23
6.2400000000000002
 33
1.9399999999999991
  0
3DFACE
  5
1BF
  8
0
 10
-1.089999999999999
 20
6.395884572681199
 30
1.9399999999999991
 11
-1.179999999999999
 21
6.2400000000000002
 31
1.9399999999999991
 12
-0.82
 22
6.2400000000000002
 32
1.9399999999999991
 13
-0.9099999999999999
 23
6.395884572681199
 33
1.9399999999999991
  0
3DFACE
  5
1C0
  8
0
 10
-0.9099999999999999
 20
6.395884572681199
 30
1.9399999999999991
 11
-0.82
 21
6.2400000000000002
 31
1.9399999999999991
 12
-1.179999999999999
 22
6.2400000000000002
 32
1.9399999999999991
 13
-1.089999999999999
 23
6.395884572681199
 33
1.9399999999999991
  0
3DFACE
  5
1C3
  8
0
 10
-0.24
 20
-6.2599999999999989
 30
1.1499999999999999
 11
-0.24
 21
-6.2599999999999989
 31
0.7700000000000001
 12
0.24
 22
-6.2599999999999989
 32
0.7700000000000001
 13
0.24
 23
-6.2599999999999989
 33
1.1499999999999999
  0
3DFACE
  5
1C4
  8
0
 10
0.24
 20
-6.2599999999999989
 30
1.1499999999999999
 11
0.24
 21
-6.2599999999999989
 31
0.7700000000000001
 12
0.24
 22
6.259999999999998
 32
0.7700000000000001
 13
0.24
 23
6.259999999999998
 33
1.1499999999999999
  0
3DFACE
  5
1C5
  8
0
 10
-0.24
 20
6.259999999999998
 30
0.7700000000000001
 11
-0.24
 21
-6.2599999999999989
 31
0.7700000000000001
 12
-0.24
 22
-6.2599999999999989
 32
1.1499999999999999
 13
-0.24
 23
6.259999999999998
 33
1.1499999999999999
  0
3DFACE
  5
1C7
  8
0
 10
0.24
 20
6.259999999999998
 30
1.1499999999999999
 11
0.24
 21
6.259999999999998
 31
0.7700000000000001
 12
-0.24
 22
6.259999999999998
 32
0.7700000000000001
 13
-0.24
 23
6.259999999999998
 33
1.1499999999999999
  0
3DFACE
  5
1CA
  8
0
 10
-0.24
 20
1.5
 30
0.39
 11
-0.24
 21
-1.5
 31
0.39
 12
-0.24
 22
-4.1799999999999988
 32
0.7700000000000001
 13
-0.24
 23
4.1799999999999988
 33
0.7700000000000001
  0
3DFACE
  5
1CB
  8
0
 10
0.24
 20
1.5
 30
0.39
 11
0.24
 21
-1.5
 31
0.39
 12
-0.24
 22
-1.5
 32
0.39
 13
-0.24
 23
1.5
 33
0.39
  0
3DFACE
  5
1CC
  8
0
 10
0.24
 20
-4.1799999999999988
 30
0.7700000000000001
 11
0.24
 21
-1.5
 31
0.39
 12
0.24
 22
1.5
 32
0.39
 13
0.24
 23
4.1799999999999988
 33
0.7700000000000001
  0
3DFACE
  5
1CD
  8
0
 10
-0.24
 20
-4.1799999999999988
 30
0.7700000000000001
 11
-0.24
 21
-1.5
 31
0.39
 12
0.24
 22
-1.5
 32
0.39
 13
0.24
 23
-4.1799999999999988
 33
0.7700000000000001
  0
3DFACE
  5
1CE
  8
0
 10
0.24
 20
4.1799999999999988
 30
0.7700000000000001
 11
0.24
 21
1.5
 31
0.39
 12
-0.24
 22
1.5
 32
0.39
 13
-0.24
 23
4.1799999999999988
 33
0.7700000000000001
  0
3DFACE
  5
4B8
  8
0
 10
1.5499999999999989
 20
6.4499999999999984
 30
1.1499999999999999
 11
1.5499999999999989
 21
-6.4500000000000011
 31
1.1499999999999999
 12
1.5499999999999989
 22
-6.5
 32
1.02
 13
1.5499999999999989
 23
6.5
 33
1.02
  0
3DFACE
  5
4B9
  8
0
 10
1.5499999999999989
 20
6.5
 30
1.02
 11
1.5499999999999989
 21
-6.5
 31
1.02
 12
1.5499999999999989
 22
-6.4500000000000011
 32
1.1499999999999999
 13
1.5499999999999989
 23
6.4499999999999984
 33
1.1499999999999999
  0
3DFACE
  5
4BA
  8
0
 10
1.5499999999999989
 20
6.5
 30
1.02
 11
1.5499999999999989
 21
-6.5
 31
1.02
 12
1.5499999999999989
 22
-6.5099999999999989
 32
0.8899999999999998
 13
1.5499999999999989
 23
6.5099999999999989
 33
0.8899999999999998
  0
3DFACE
  5
4BB
  8
0
 10
1.5499999999999989
 20
6.5099999999999989
 30
0.8899999999999998
 11
1.5499999999999989
 21
-6.5099999999999989
 31
0.8899999999999998
 12
1.5499999999999989
 22
-6.5
 32
1.02
 13
1.5499999999999989
 23
6.5
 33
1.02
  0
3DFACE
  5
4BC
  8
0
 10
1.5499999999999989
 20
6.5099999999999989
 30
0.71
 11
1.5499999999999989
 21
-6.5099999999999989
 31
0.71
 12
1.5499999999999989
 22
-6.5099999999999989
 32
0.8899999999999998
 13
1.5499999999999989
 23
6.5099999999999989
 33
0.8899999999999998
  0
3DFACE
  5
4BD
  8
0
 10
1.5499999999999989
 20
6.5099999999999989
 30
0.8899999999999998
 11
1.5499999999999989
 21
-6.5099999999999989
 31
0.8899999999999998
 12
1.5499999999999989
 22
-6.5099999999999989
 32
0.71
 13
1.5499999999999989
 23
6.5099999999999989
 33
0.71
  0
3DFACE
  5
4BE
  8
0
 10
1.5499999999999989
 20
6.5099999999999989
 30
0.71
 11
1.5499999999999989
 21
-6.5099999999999989
 31
0.71
 12
1.5499999999999989
 22
-6.589999999999999
 32
0.3500000000000001
 13
1.5499999999999989
 23
6.589999999999999
 33
0.3500000000000001
  0
3DFACE
  5
4BF
  8
0
 10
1.5499999999999989
 20
6.589999999999999
 30
0.3500000000000001
 11
1.5499999999999989
 21
-6.589999999999999
 31
0.3500000000000001
 12
1.5499999999999989
 22
-6.5099999999999989
 32
0.71
 13
1.5499999999999989
 23
6.5099999999999989
 33
0.71
  0
3DFACE
  5
4CE
  8
0
 10
-1.55
 20
6.589999999999999
 30
0.3500000000000001
 11
-1.55
 21
-6.589999999999999
 31
0.3500000000000001
 12
-1.55
 22
-6.5099999999999989
 32
0.71
 13
-1.55
 23
6.5099999999999989
 33
0.71
  0
3DFACE
  5
4CF
  8
0
 10
-1.55
 20
6.5099999999999989
 30
0.71
 11
-1.55
 21
-6.5099999999999989
 31
0.71
 12
-1.55
 22
-6.589999999999999
 32
0.3500000000000001
 13
-1.55
 23
6.589999999999999
 33
0.3500000000000001
  0
3DFACE
  5
4D6
  8
0
 10
-1.55
 20
6.5099999999999989
 30
0.71
 11
-1.55
 21
-6.5099999999999989
 31
0.71
 12
-1.55
 22
-6.5099999999999989
 32
0.8899999999999998
 13
-1.55
 23
6.5099999999999989
 33
0.8899999999999998
  0
3DFACE
  5
4D7
  8
0
 10
-1.55
 20
6.5099999999999989
 30
0.8899999999999998
 11
-1.55
 21
-6.5099999999999989
 31
0.8899999999999998
 12
-1.55
 22
-6.5099999999999989
 32
0.71
 13
-1.55
 23
6.5099999999999989
 33
0.71
  0
3DFACE
  5
4D8
  8
0
 10
-1.55
 20
6.5
 30
1.02
 11
-1.55
 21
-6.5
 31
1.02
 12
-1.55
 22
-6.5099999999999989
 32
0.8899999999999998
 13
-1.55
 23
6.5099999999999989
 33
0.8899999999999998
  0
3DFACE
  5
4D9
  8
0
 10
-1.55
 20
6.5099999999999989
 30
0.8899999999999998
 11
-1.55
 21
-6.5099999999999989
 31
0.8899999999999998
 12
-1.55
 22
-6.5
 32
1.02
 13
-1.55
 23
6.5
 33
1.02
  0
3DFACE
  5
4DA
  8
0
 10
-1.55
 20
6.4499999999999984
 30
1.1499999999999999
 11
-1.55
 21
-6.4500000000000011
 31
1.1499999999999999
 12
-1.55
 22
-6.5
 32
1.02
 13
-1.55
 23
6.5
 33
1.02
  0
3DFACE
  5
4DB
  8
0
 10
-1.55
 20
6.5
 30
1.02
 11
-1.55
 21
-6.5
 31
1.02
 12
-1.55
 22
-6.4500000000000011
 32
1.1499999999999999
 13
-1.55
 23
6.4499999999999984
 33
1.1499999999999999
  0
3DFACE
  5
4DD
  8
0
 10
-0.1
 20
6.259999999999998
 30
0.9300000000000001
 11
-0.1
 21
6.259999999999998
 31
0.8100000000000001
 12
0.1
 22
6.259999999999998
 32
0.8100000000000001
 13
0.1
 23
6.259999999999998
 33
0.9300000000000001
  0
3DFACE
  5
4DE
  8
0
 10
0.1
 20
6.259999999999998
 30
0.9300000000000001
 11
0.1
 21
6.259999999999998
 31
0.8100000000000001
 12
0.1
 22
6.4800000000000004
 32
0.8100000000000001
 13
0.1
 23
6.4800000000000004
 33
0.9300000000000001
  0
3DFACE
  5
4DF
  8
0
 10
-0.1
 20
6.4800000000000004
 30
0.8100000000000001
 11
-0.1
 21
6.259999999999998
 31
0.8100000000000001
 12
-0.1
 22
6.259999999999998
 32
0.9300000000000001
 13
-0.1
 23
6.4800000000000004
 33
0.9300000000000001
  0
3DFACE
  5
4E0
  8
0
 10
-0.1
 20
6.4800000000000004
 30
0.9300000000000001
 11
-0.1
 21
6.259999999999998
 31
0.9300000000000001
 12
0.1
 22
6.259999999999998
 32
0.9300000000000001
 13
0.1
 23
6.4800000000000004
 33
0.9300000000000001
  0
3DFACE
  5
4E2
  8
0
 10
0.1
 20
6.4800000000000004
 30
0.8100000000000001
 11
0.1
 21
6.259999999999998
 31
0.8100000000000001
 12
-0.1
 22
6.259999999999998
 32
0.8100000000000001
 13
-0.1
 23
6.4800000000000004
 33
0.8100000000000001
  0
3DFACE
  5
4E4
  8
0
 10
-0.1000000000000001
 20
6.4800000000000004
 30
0.9699999999999992
 11
0.1000000000000001
 21
6.4800000000000004
 31
0.9699999999999992
 12
0.1999999999999997
 22
6.5800000000000001
 32
0.9699999999999992
 13
-0.1700000000000001
 23
6.5800000000000001
 33
0.9699999999999992
  0
3DFACE
  5
4E5
  8
0
 10
-0.03
 20
6.5800000000000001
 30
0.9699999999999992
 11
0.1
 21
6.5800000000000001
 31
0.9699999999999992
 12
0.1
 22
6.5800000000000001
 32
0.7699999999999996
 13
-0.03
 23
6.5800000000000001
 33
0.7699999999999996
  0
3DFACE
  5
4E6
  8
0
 10
0.1999999999999997
 20
6.5800000000000001
 30
0.7699999999999996
 11
0.1000000000000001
 21
6.4800000000000004
 31
0.7699999999999996
 12
-0.1000000000000001
 22
6.4800000000000004
 32
0.7699999999999996
 13
-0.1700000000000001
 23
6.5800000000000001
 33
0.7699999999999996
  0
3DFACE
  5
4E7
  8
0
 10
-0.1000000000000001
 20
6.4800000000000004
 30
0.7699999999999996
 11
0.1000000000000001
 21
6.4800000000000004
 31
0.7699999999999996
 12
0.1000000000000001
 22
6.4800000000000004
 32
0.9699999999999992
 13
-0.1000000000000001
 23
6.4800000000000004
 33
0.9699999999999992
  0
3DFACE
  5
4E8
  8
0
 10
0.1999999999999997
 20
6.5800000000000001
 30
0.9699999999999992
 11
0.1000000000000001
 21
6.4800000000000004
 31
0.9699999999999992
 12
0.1000000000000001
 22
6.4800000000000004
 32
0.7699999999999996
 13
0.1999999999999997
 23
6.5800000000000001
 33
0.7699999999999996
  0
3DFACE
  5
4E9
  8
0
 10
-0.1700000000000001
 20
6.5800000000000001
 30
0.7699999999999996
 11
-0.1000000000000001
 21
6.4800000000000004
 31
0.7699999999999996
 12
-0.1000000000000001
 22
6.4800000000000004
 32
0.9699999999999992
 13
-0.1700000000000001
 23
6.5800000000000001
 33
0.9699999999999992
  0
3DFACE
  5
4EB
  8
0
 10
0.1599999999999997
 20
6.6799999999999988
 30
0.7699999999999996
 11
0.1000000000000001
 21
6.5800000000000001
 31
0.7699999999999996
 12
0.1000000000000001
 22
6.5800000000000001
 32
0.9699999999999992
 13
0.1599999999999997
 23
6.6799999999999988
 33
0.9699999999999992
  0
3DFACE
  5
4EC
  8
0
 10
0.1999999999999997
 20
6.6799999999999988
 30
0.7699999999999996
 11
0.1999999999999997
 21
6.5800000000000001
 31
0.7699999999999996
 12
0.1000000000000001
 22
6.5800000000000001
 32
0.7699999999999996
 13
0.1599999999999997
 23
6.6799999999999988
 33
0.7699999999999996
  0
3DFACE
  5
4ED
  8
0
 10
0.1000000000000001
 20
6.5800000000000001
 30
0.9699999999999992
 11
0.1999999999999997
 21
6.5800000000000001
 31
0.9699999999999992
 12
0.1999999999999997
 22
6.6799999999999988
 32
0.9699999999999992
 13
0.1599999999999997
 23
6.6799999999999988
 33
0.9699999999999992
  0
3DFACE
  5
4EF
  8
0
 10
0.1599999999999997
 20
6.6799999999999988
 30
0.9699999999999992
 11
0.1999999999999997
 21
6.6799999999999988
 31
0.9699999999999992
 12
0.1999999999999997
 22
6.6799999999999988
 32
0.7699999999999996
 13
0.1599999999999997
 23
6.6799999999999988
 33
0.7699999999999996
  0
3DFACE
  5
4F0
  8
0
 10
0.1999999999999997
 20
6.6799999999999988
 30
0.9699999999999992
 11
0.1999999999999997
 21
6.5800000000000001
 31
0.9699999999999992
 12
0.1999999999999997
 22
6.5800000000000001
 32
0.7699999999999996
 13
0.1999999999999997
 23
6.6799999999999988
 33
0.7699999999999996
  0
3DFACE
  5
4F2
  8
0
 10
-0.1700000000000001
 20
6.5800000000000001
 30
0.9699999999999992
 11
-0.0300000000000003
 21
6.5800000000000001
 31
0.9699999999999992
 12
-0.0300000000000003
 22
6.6799999999999988
 32
0.9699999999999992
 13
-0.1700000000000001
 23
6.6799999999999988
 33
0.9699999999999992
  0
3DFACE
  5
4F3
  8
0
 10
-0.0300000000000003
 20
6.6799999999999988
 30
0.7699999999999996
 11
-0.0300000000000003
 21
6.5800000000000001
 31
0.7699999999999996
 12
-0.1700000000000001
 22
6.5800000000000001
 32
0.7699999999999996
 13
-0.1700000000000001
 23
6.6799999999999988
 33
0.7699999999999996
  0
3DFACE
  5
4F4
  8
0
 10
-0.1700000000000001
 20
6.6799999999999988
 30
0.7699999999999996
 11
-0.1700000000000001
 21
6.5800000000000001
 31
0.7699999999999996
 12
-0.1700000000000001
 22
6.5800000000000001
 32
0.9699999999999992
 13
-0.1700000000000001
 23
6.6799999999999988
 33
0.9699999999999992
  0
3DFACE
  5
4F7
  8
0
 10
-0.0300000000000003
 20
6.6799999999999988
 30
0.9699999999999992
 11
-0.0300000000000003
 21
6.5800000000000001
 31
0.9699999999999992
 12
-0.0300000000000003
 22
6.5800000000000001
 32
0.7699999999999996
 13
-0.0300000000000003
 23
6.6799999999999988
 33
0.7699999999999996
  0
3DFACE
  5
4F9
  8
0
 10
-0.1100000000000003
 20
6.7799999999999994
 30
0.7699999999999996
 11
-0.1700000000000001
 21
6.6799999999999988
 31
0.7699999999999996
 12
-0.1700000000000001
 22
6.6799999999999988
 32
0.9699999999999992
 13
-0.1100000000000003
 23
6.7799999999999994
 33
0.9699999999999992
  0
3DFACE
  5
4FA
  8
0
 10
0.02
 20
6.7799999999999994
 30
0.7699999999999996
 11
0.02
 21
6.6799999999999988
 31
0.7699999999999996
 12
-0.1700000000000001
 22
6.6799999999999988
 32
0.7699999999999996
 13
-0.1100000000000003
 23
6.7799999999999994
 33
0.7699999999999996
  0
3DFACE
  5
4FB
  8
0
 10
-0.1700000000000001
 20
6.6799999999999988
 30
0.9699999999999992
 11
0.02
 21
6.6799999999999988
 31
0.9699999999999992
 12
0.02
 22
6.7799999999999994
 32
0.9699999999999992
 13
-0.1100000000000003
 23
6.7799999999999994
 33
0.9699999999999992
  0
3DFACE
  5
4FC
  8
0
 10
-0.03
 20
6.6799999999999988
 30
0.7699999999999996
 11
0.02
 21
6.6799999999999988
 31
0.7699999999999996
 12
0.02
 22
6.6799999999999988
 32
0.9699999999999992
 13
-0.03
 23
6.6799999999999988
 33
0.9699999999999992
  0
3DFACE
  5
4FD
  8
0
 10
-0.1100000000000003
 20
6.7799999999999994
 30
0.9699999999999992
 11
0.02
 21
6.7799999999999994
 31
0.9699999999999992
 12
0.02
 22
6.7799999999999994
 32
0.7699999999999996
 13
-0.1100000000000003
 23
6.7799999999999994
 33
0.7699999999999996
  0
3DFACE
  5
500
  8
0
 10
0.02
 20
6.6799999999999988
 30
0.9699999999999992
 11
0.0600000000000001
 21
6.7099999999999991
 31
0.9699999999999992
 12
0.0600000000000001
 22
6.7400000000000002
 32
0.9699999999999992
 13
0.02
 23
6.7799999999999994
 33
0.9699999999999992
  0
3DFACE
  5
501
  8
0
 10
0.0600000000000001
 20
6.7400000000000002
 30
0.7699999999999996
 11
0.0600000000000001
 21
6.7099999999999991
 31
0.7699999999999996
 12
0.02
 22
6.6799999999999988
 32
0.7699999999999996
 13
0.02
 23
6.7799999999999994
 33
0.7699999999999996
  0
3DFACE
  5
502
  8
0
 10
0.0600000000000001
 20
6.7400000000000002
 30
0.9699999999999992
 11
0.0600000000000001
 21
6.7099999999999991
 31
0.9699999999999992
 12
0.0600000000000001
 22
6.7099999999999991
 32
0.7699999999999996
 13
0.0600000000000001
 23
6.7400000000000002
 33
0.7699999999999996
  0
3DFACE
  5
503
  8
0
 10
0.02
 20
6.6799999999999988
 30
0.7699999999999996
 11
0.0600000000000001
 21
6.7099999999999991
 31
0.7699999999999996
 12
0.0600000000000001
 22
6.7099999999999991
 32
0.9699999999999992
 13
0.02
 23
6.6799999999999988
 33
0.9699999999999992
  0
3DFACE
  5
504
  8
0
 10
0.02
 20
6.7799999999999994
 30
0.9699999999999992
 11
0.0600000000000001
 21
6.7400000000000002
 31
0.9699999999999992
 12
0.0600000000000001
 22
6.7400000000000002
 32
0.7699999999999996
 13
0.02
 23
6.7799999999999994
 33
0.7699999999999996
  0
3DFACE
  5
507
  8
0
 10
-0.1599999999999997
 20
-6.6799999999999988
 30
0.7699999999999996
 11
-0.1000000000000001
 21
-6.5800000000000001
 31
0.7699999999999996
 12
-0.1000000000000001
 22
-6.5800000000000001
 32
0.9699999999999992
 13
-0.1599999999999997
 23
-6.6799999999999988
 33
0.9699999999999992
  0
3DFACE
  5
508
  8
0
 10
-0.1999999999999998
 20
-6.6799999999999988
 30
0.9699999999999992
 11
-0.1999999999999998
 21
-6.5800000000000001
 31
0.9699999999999992
 12
-0.1999999999999998
 22
-6.5800000000000001
 32
0.7699999999999996
 13
-0.1999999999999998
 23
-6.6799999999999988
 33
0.7699999999999996
  0
3DFACE
  5
509
  8
0
 10
-0.1000000000000001
 20
-6.5800000000000001
 30
0.9699999999999992
 11
-0.1999999999999998
 21
-6.5800000000000001
 31
0.9699999999999992
 12
-0.1999999999999998
 22
-6.6799999999999988
 32
0.9699999999999992
 13
-0.1599999999999997
 23
-6.6799999999999988
 33
0.9699999999999992
  0
3DFACE
  5
50A
  8
0
 10
-0.1999999999999998
 20
-6.6799999999999988
 30
0.7699999999999996
 11
-0.1999999999999998
 21
-6.5800000000000001
 31
0.7699999999999996
 12
-0.1000000000000001
 22
-6.5800000000000001
 32
0.7699999999999996
 13
-0.1599999999999997
 23
-6.6799999999999988
 33
0.7699999999999996
  0
3DFACE
  5
50B
  8
0
 10
0.0300000000000002
 20
-6.6799999999999988
 30
0.9699999999999992
 11
0.0300000000000003
 21
-6.5800000000000001
 31
0.9699999999999992
 12
0.0300000000000003
 22
-6.5800000000000001
 32
0.7699999999999996
 13
0.0300000000000002
 23
-6.6799999999999988
 33
0.7699999999999996
  0
3DFACE
  5
50C
  8
0
 10
0.1700000000000001
 20
-6.6799999999999988
 30
0.7699999999999996
 11
0.1700000000000001
 21
-6.5800000000000001
 31
0.7699999999999996
 12
0.1700000000000001
 22
-6.5800000000000001
 32
0.9699999999999992
 13
0.1700000000000001
 23
-6.6799999999999988
 33
0.9699999999999992
  0
3DFACE
  5
50D
  8
0
 10
0.1700000000000001
 20
-6.5800000000000001
 30
0.9699999999999992
 11
0.0300000000000003
 21
-6.5800000000000001
 31
0.9699999999999992
 12
0.0300000000000002
 22
-6.6799999999999988
 32
0.9699999999999992
 13
0.1700000000000001
 23
-6.6799999999999988
 33
0.9699999999999992
  0
3DFACE
  5
50E
  8
0
 10
0.0300000000000002
 20
-6.6799999999999988
 30
0.7699999999999996
 11
0.0300000000000003
 21
-6.5800000000000001
 31
0.7699999999999996
 12
0.1700000000000001
 22
-6.5800000000000001
 32
0.7699999999999996
 13
0.1700000000000001
 23
-6.6799999999999988
 33
0.7699999999999996
  0
3DFACE
  5
50F
  8
0
 10
0.03
 20
-6.5800000000000001
 30
0.9699999999999992
 11
-0.1
 21
-6.5800000000000001
 31
0.9699999999999992
 12
-0.1
 22
-6.5800000000000001
 32
0.7699999999999996
 13
0.03
 23
-6.5800000000000001
 33
0.7699999999999996
  0
3DFACE
  5
510
  8
0
 10
-0.1999999999999998
 20
-6.5800000000000001
 30
0.9699999999999992
 11
-0.1000000000000001
 21
-6.4800000000000004
 31
0.9699999999999992
 12
-0.1000000000000001
 22
-6.4800000000000004
 32
0.7699999999999996
 13
-0.1999999999999998
 23
-6.5800000000000001
 33
0.7699999999999996
  0
3DFACE
  5
511
  8
0
 10
0.1000000000000001
 20
-6.4800000000000004
 30
0.7699999999999996
 11
-0.1000000000000001
 21
-6.4800000000000004
 31
0.7699999999999996
 12
-0.1000000000000001
 22
-6.4800000000000004
 32
0.9699999999999992
 13
0.1000000000000001
 23
-6.4800000000000004
 33
0.9699999999999992
  0
3DFACE
  5
512
  8
0
 10
0.1000000000000001
 20
-6.4800000000000004
 30
0.9699999999999992
 11
-0.1000000000000001
 21
-6.4800000000000004
 31
0.9699999999999992
 12
-0.1999999999999998
 22
-6.5800000000000001
 32
0.9699999999999992
 13
0.1700000000000001
 23
-6.5800000000000001
 33
0.9699999999999992
  0
3DFACE
  5
513
  8
0
 10
0.1700000000000001
 20
-6.5800000000000001
 30
0.7699999999999996
 11
0.1000000000000001
 21
-6.4800000000000004
 31
0.7699999999999996
 12
0.1000000000000001
 22
-6.4800000000000004
 32
0.9699999999999992
 13
0.1700000000000001
 23
-6.5800000000000001
 33
0.9699999999999992
  0
3DFACE
  5
514
  8
0
 10
-0.1999999999999998
 20
-6.5800000000000001
 30
0.7699999999999996
 11
-0.1000000000000001
 21
-6.4800000000000004
 31
0.7699999999999996
 12
0.1000000000000001
 22
-6.4800000000000004
 32
0.7699999999999996
 13
0.1700000000000001
 23
-6.5800000000000001
 33
0.7699999999999996
  0
3DFACE
  5
515
  8
0
 10
0.03
 20
-6.6799999999999988
 30
0.7699999999999996
 11
-0.0200000000000001
 21
-6.6799999999999988
 31
0.7699999999999996
 12
-0.0200000000000001
 22
-6.6799999999999988
 32
0.9699999999999992
 13
0.03
 23
-6.6799999999999988
 33
0.9699999999999992
  0
3DFACE
  5
516
  8
0
 10
-0.1599999999999997
 20
-6.6799999999999988
 30
0.9699999999999992
 11
-0.1999999999999998
 21
-6.6799999999999988
 31
0.9699999999999992
 12
-0.1999999999999998
 22
-6.6799999999999988
 32
0.7699999999999996
 13
-0.1599999999999997
 23
-6.6799999999999988
 33
0.7699999999999996
  0
3DFACE
  5
517
  8
0
 10
-0.0200000000000001
 20
-6.7799999999999994
 30
0.9699999999999992
 11
-0.0600000000000001
 21
-6.7400000000000002
 31
0.9699999999999992
 12
-0.0600000000000001
 22
-6.7400000000000002
 32
0.7699999999999996
 13
-0.0200000000000001
 23
-6.7799999999999994
 33
0.7699999999999996
  0
3DFACE
  5
518
  8
0
 10
-0.0200000000000001
 20
-6.6799999999999988
 30
0.9699999999999992
 11
-0.0600000000000001
 21
-6.7099999999999991
 31
0.9699999999999992
 12
-0.0600000000000001
 22
-6.7400000000000002
 32
0.9699999999999992
 13
-0.0200000000000001
 23
-6.7799999999999994
 33
0.9699999999999992
  0
3DFACE
  5
519
  8
0
 10
-0.0200000000000001
 20
-6.6799999999999988
 30
0.7699999999999996
 11
-0.0600000000000001
 21
-6.7099999999999991
 31
0.7699999999999996
 12
-0.0600000000000001
 22
-6.7099999999999991
 32
0.9699999999999992
 13
-0.0200000000000001
 23
-6.6799999999999988
 33
0.9699999999999992
  0
3DFACE
  5
51A
  8
0
 10
-0.0600000000000001
 20
-6.7400000000000002
 30
0.9699999999999992
 11
-0.0600000000000001
 21
-6.7099999999999991
 31
0.9699999999999992
 12
-0.0600000000000001
 22
-6.7099999999999991
 32
0.7699999999999996
 13
-0.0600000000000001
 23
-6.7400000000000002
 33
0.7699999999999996
  0
3DFACE
  5
51B
  8
0
 10
-0.0600000000000001
 20
-6.7400000000000002
 30
0.7699999999999996
 11
-0.0600000000000001
 21
-6.7099999999999991
 31
0.7699999999999996
 12
-0.0200000000000001
 22
-6.6799999999999988
 32
0.7699999999999996
 13
-0.0200000000000001
 23
-6.7799999999999994
 33
0.7699999999999996
  0
3DFACE
  5
51C
  8
0
 10
0.1100000000000003
 20
-6.7799999999999994
 30
0.9699999999999992
 11
-0.0200000000000001
 21
-6.7799999999999994
 31
0.9699999999999992
 12
-0.0200000000000001
 22
-6.7799999999999994
 32
0.7699999999999996
 13
0.1100000000000003
 23
-6.7799999999999994
 33
0.7699999999999996
  0
3DFACE
  5
51D
  8
0
 10
0.1100000000000003
 20
-6.7799999999999994
 30
0.7699999999999996
 11
0.1700000000000001
 21
-6.6799999999999988
 31
0.7699999999999996
 12
0.1700000000000001
 22
-6.6799999999999988
 32
0.9699999999999992
 13
0.1100000000000003
 23
-6.7799999999999994
 33
0.9699999999999992
  0
3DFACE
  5
51E
  8
0
 10
0.1700000000000001
 20
-6.6799999999999988
 30
0.9699999999999992
 11
-0.0200000000000001
 21
-6.6799999999999988
 31
0.9699999999999992
 12
-0.0200000000000001
 22
-6.7799999999999994
 32
0.9699999999999992
 13
0.1100000000000003
 23
-6.7799999999999994
 33
0.9699999999999992
  0
3DFACE
  5
51F
  8
0
 10
-0.0200000000000001
 20
-6.7799999999999994
 30
0.7699999999999996
 11
-0.0200000000000001
 21
-6.6799999999999988
 31
0.7699999999999996
 12
0.1700000000000001
 22
-6.6799999999999988
 32
0.7699999999999996
 13
0.1100000000000003
 23
-6.7799999999999994
 33
0.7699999999999996
  0
3DFACE
  5
520
  8
0
 10
0.1
 20
-6.4800000000000004
 30
0.9300000000000001
 11
0.1
 21
-6.259999999999998
 31
0.9300000000000001
 12
-0.1
 22
-6.259999999999998
 32
0.9300000000000001
 13
-0.1
 23
-6.4800000000000004
 33
0.9300000000000001
  0
3DFACE
  5
521
  8
0
 10
-0.1
 20
-6.4800000000000004
 30
0.8100000000000001
 11
-0.1
 21
-6.259999999999998
 31
0.8100000000000001
 12
0.1
 22
-6.259999999999998
 32
0.8100000000000001
 13
0.1
 23
-6.4800000000000004
 33
0.8100000000000001
  0
3DFACE
  5
522
  8
0
 10
-0.1
 20
-6.259999999999998
 30
0.9300000000000001
 11
-0.1
 21
-6.259999999999998
 31
0.8100000000000001
 12
-0.1
 22
-6.4800000000000004
 32
0.8100000000000001
 13
-0.1
 23
-6.4800000000000004
 33
0.9300000000000001
  0
3DFACE
  5
523
  8
0
 10
0.1
 20
-6.4800000000000004
 30
0.8100000000000001
 11
0.1
 21
-6.259999999999998
 31
0.8100000000000001
 12
0.1
 22
-6.259999999999998
 32
0.9300000000000001
 13
0.1
 23
-6.4800000000000004
 33
0.9300000000000001
  0
3DFACE
  5
54C
  8
0
 10
1.649999999999999
 20
0.0
 30
3.0499999999999998
 11
1.524401228643623
 21
0.6314276634023982
 31
3.0499999999999998
 12
1.524401228643623
 22
0.6314276634023982
 32
3.2299999999999991
 13
1.649999999999999
 23
0.0
 33
3.2299999999999991
  0
3DFACE
  5
54D
  8
0
 10
1.524401228643623
 20
0.6314276634023982
 30
3.0499999999999998
 11
1.1667261889578029
 21
1.1667261889578029
 31
3.0499999999999998
 12
1.1667261889578029
 22
1.1667261889578029
 32
3.2299999999999991
 13
1.524401228643623
 23
0.6314276634023982
 33
3.2299999999999991
  0
3DFACE
  5
54E
  8
0
 10
1.1667261889578029
 20
1.1667261889578029
 30
3.0499999999999998
 11
0.6314276634023983
 21
1.524401228643623
 31
3.0499999999999998
 12
0.6314276634023983
 22
1.524401228643623
 32
3.2299999999999991
 13
1.1667261889578029
 23
1.1667261889578029
 33
3.2299999999999991
  0
3DFACE
  5
54F
  8
0
 10
0.6314276634023983
 20
1.524401228643623
 30
3.0499999999999998
 11
0.0000000000000001
 21
1.649999999999999
 31
3.0499999999999998
 12
0.0000000000000001
 22
1.649999999999999
 32
3.2299999999999991
 13
0.6314276634023983
 23
1.524401228643623
 33
3.2299999999999991
  0
3DFACE
  5
550
  8
0
 10
0.0000000000000001
 20
1.649999999999999
 30
3.0499999999999998
 11
-0.631427663402398
 21
1.524401228643623
 31
3.0499999999999998
 12
-0.631427663402398
 22
1.524401228643623
 32
3.2299999999999991
 13
0.0000000000000001
 23
1.649999999999999
 33
3.2299999999999991
  0
3DFACE
  5
551
  8
0
 10
-0.631427663402398
 20
1.524401228643623
 30
3.0499999999999998
 11
-1.1667261889578029
 21
1.1667261889578029
 31
3.0499999999999998
 12
-1.1667261889578029
 22
1.1667261889578029
 32
3.2299999999999991
 13
-0.631427663402398
 23
1.524401228643623
 33
3.2299999999999991
  0
3DFACE
  5
552
  8
0
 10
-1.1667261889578029
 20
1.1667261889578029
 30
3.0499999999999998
 11
-1.524401228643623
 21
0.6314276634023983
 31
3.0499999999999998
 12
-1.524401228643623
 22
0.6314276634023983
 32
3.2299999999999991
 13
-1.1667261889578029
 23
1.1667261889578029
 33
3.2299999999999991
  0
3DFACE
  5
553
  8
0
 10
-1.524401228643623
 20
0.6314276634023983
 30
3.0499999999999998
 11
-1.649999999999999
 21
0.0000000000000002
 31
3.0499999999999998
 12
-1.649999999999999
 22
0.0000000000000002
 32
3.2299999999999991
 13
-1.524401228643623
 23
0.6314276634023983
 33
3.2299999999999991
  0
3DFACE
  5
554
  8
0
 10
-1.649999999999999
 20
0.0000000000000002
 30
3.0499999999999998
 11
-1.524401228643623
 21
-0.631427663402398
 31
3.0499999999999998
 12
-1.524401228643623
 22
-0.631427663402398
 32
3.2299999999999991
 13
-1.649999999999999
 23
0.0000000000000002
 33
3.2299999999999991
  0
3DFACE
  5
555
  8
0
 10
-1.524401228643623
 20
-0.631427663402398
 30
3.0499999999999998
 11
-1.1667261889578029
 21
-1.166726188957802
 31
3.0499999999999998
 12
-1.1667261889578029
 22
-1.166726188957802
 32
3.2299999999999991
 13
-1.524401228643623
 23
-0.631427663402398
 33
3.2299999999999991
  0
3DFACE
  5
556
  8
0
 10
-1.1667261889578029
 20
-1.166726188957802
 30
3.0499999999999998
 11
-0.6314276634023991
 21
-1.5244012286436219
 31
3.0499999999999998
 12
-0.6314276634023991
 22
-1.5244012286436219
 32
3.2299999999999991
 13
-1.1667261889578029
 23
-1.166726188957802
 33
3.2299999999999991
  0
3DFACE
  5
557
  8
0
 10
-0.6314276634023991
 20
-1.5244012286436219
 30
3.0499999999999998
 11
-0.0000000000000003
 21
-1.649999999999999
 31
3.0499999999999998
 12
-0.0000000000000003
 22
-1.649999999999999
 32
3.2299999999999991
 13
-0.6314276634023991
 23
-1.5244012286436219
 33
3.2299999999999991
  0
3DFACE
  5
558
  8
0
 10
-0.0000000000000003
 20
-1.649999999999999
 30
3.0499999999999998
 11
0.6314276634023984
 21
-1.5244012286436219
 31
3.0499999999999998
 12
0.6314276634023984
 22
-1.5244012286436219
 32
3.2299999999999991
 13
-0.0000000000000003
 23
-1.649999999999999
 33
3.2299999999999991
  0
3DFACE
  5
559
  8
0
 10
0.6314276634023984
 20
-1.5244012286436219
 30
3.0499999999999998
 11
1.166726188957804
 21
-1.166726188957802
 31
3.0499999999999998
 12
1.166726188957804
 22
-1.166726188957802
 32
3.2299999999999991
 13
0.6314276634023984
 23
-1.5244012286436219
 33
3.2299999999999991
  0
3DFACE
  5
55A
  8
0
 10
1.166726188957804
 20
-1.166726188957802
 30
3.0499999999999998
 11
1.524401228643623
 21
-0.6314276634023965
 31
3.0499999999999998
 12
1.524401228643623
 22
-0.6314276634023965
 32
3.2299999999999991
 13
1.166726188957804
 23
-1.166726188957802
 33
3.2299999999999991
  0
3DFACE
  5
55B
  8
0
 10
1.524401228643623
 20
-0.6314276634023965
 30
3.0499999999999998
 11
1.649999999999999
 21
0.0
 31
3.0499999999999998
 12
1.649999999999999
 22
0.0
 32
3.2299999999999991
 13
1.524401228643623
 23
-0.6314276634023965
 33
3.2299999999999991
  0
3DFACE
  5
63C
  8
0
 10
-1.1667261889578029
 20
1.1667261889578029
 30
3.2299999999999991
 11
-1.524401228643623
 21
0.6314276634023983
 31
3.2299999999999991
 12
-1.649999999999999
 22
0.0000000000000002
 32
3.2299999999999991
 13
-0.631427663402398
 23
1.524401228643623
 33
3.2299999999999991
  0
3DFACE
  5
63D
  8
0
 10
-0.6314276634023979
 20
1.524401228643623
 30
3.2299999999999991
 11
-1.649999999999999
 21
0.0000000000000002
 31
3.2299999999999991
 12
-1.524401228643623
 22
-0.631427663402398
 32
3.2299999999999991
 13
0.0000000000000001
 23
1.649999999999999
 33
3.2299999999999991
  0
3DFACE
  5
63E
  8
0
 10
-0.0000000000000001
 20
1.649999999999999
 30
3.2299999999999991
 11
-1.524401228643623
 21
-0.631427663402398
 31
3.2299999999999991
 12
-1.1667261889578029
 22
-1.166726188957802
 32
3.2299999999999991
 13
0.6314276634023983
 23
1.524401228643623
 33
3.2299999999999991
  0
3DFACE
  5
63F
  8
0
 10
0.6314276634023983
 20
1.524401228643623
 30
3.2299999999999991
 11
-1.1667261889578029
 21
-1.166726188957802
 31
3.2299999999999991
 12
-0.6314276634023991
 22
-1.5244012286436219
 32
3.2299999999999991
 13
1.1667261889578029
 23
1.1667261889578029
 33
3.2299999999999991
  0
3DFACE
  5
640
  8
0
 10
1.1667261889578029
 20
1.1667261889578029
 30
3.2299999999999991
 11
-0.6314276634023983
 21
-1.5244012286436219
 31
3.2299999999999991
 12
-0.0000000000000003
 22
-1.649999999999999
 32
3.2299999999999991
 13
1.524401228643623
 23
0.6314276634023982
 33
3.2299999999999991
  0
3DFACE
  5
641
  8
0
 10
1.5244012286436219
 20
0.6314276634023979
 30
3.2299999999999991
 11
-0.0000000000000004
 21
-1.649999999999999
 31
3.2299999999999991
 12
0.6314276634023975
 22
-1.524401228643623
 32
3.2299999999999991
 13
1.649999999999999
 23
0.0
 33
3.2299999999999991
  0
3DFACE
  5
642
  8
0
 10
1.649999999999999
 20
0.0
 30
3.2299999999999991
 11
0.6314276634023975
 21
-1.524401228643623
 31
3.2299999999999991
 12
1.166726188957804
 22
-1.166726188957802
 32
3.2299999999999991
 13
1.524401228643623
 23
-0.6314276634023965
 33
3.2299999999999991
  0
VIEWPORT
  5
2E
 67
     1
  8
0
 10
144.7270812988281
 20
101.2295806407928
 30
0.0
 40
391.13550988316581
 41
222.15178063964839
 68
     2
 69
     1
1001
ACAD
1000
MVIEW
1002
{
1070
    16
1010
0.0
1020
0.0
1030
0.0
1010
0.0
1020
0.0
1030
1.0
1040
0.0
1040
222.15178063964839
1040
144.7270812988281
1040
101.2295806407928
1040
50.0
1040
0.0
1040
0.0
1070
     0
1070
   100
1070
     1
1070
     1
1070
     0
1070
     0
1070
     0
1070
     0
1040
0.0
1040
0.0
1040
0.0
1040
10.0
1040
10.0
1040
10.0
1040
10.0
1070
     0
1002
{
1002
}
1002
}
  0
VIEWPORT
  5
30
 67
     1
  8
0
 10
139.22375631332389
 20
100.8062499761581
 30
0.0
 40
222.75801010131829
 41
161.289999961853
 68
     1
 69
     2
1001
ACAD
1000
MVIEW
1002
{
1070
    16
1010
0.0
1020
0.0
1030
0.0
1010
0.0
1020
0.0
1030
1.0
1040
0.0
1040
307.49010134148989
1040
210.0
1040
148.5
1040
50.0
1040
0.0
1040
0.0
1070
     0
1070
   100
1070
     1
1070
     3
1070
     0
1070
     1
1070
     0
1070
     0
1040
0.0
1040
0.0
1040
0.0
1040
10.0
1040
10.0
1040
10.0
1040
10.0
1070
     0
1002
{
1002
}
1002
}
  0
ENDSEC
  0
EOF
