  0
SECTION
  2
HEADER
  9
$ACADVER
  1
AC1009
  9
$INSBASE
 10
0.0
 20
0.0
 30
0.0
  9
$EXTMIN
 10
-1.0
 20
-15.7615268
 30
-5.4500000000000002
  9
$EXTMAX
 10
3.0
 20
13.0
 30
4.9826042680000011
  9
$LIMMIN
 10
0.0
 20
0.0
  9
$LIMMAX
 10
420.0
 20
297.0
  9
$ORTHOMODE
 70
     1
  9
$REGENMODE
 70
     1
  9
$FILLMODE
 70
     1
  9
$QTEXTMODE
 70
     0
  9
$MIRRTEXT
 70
     1
  9
$DRAGMODE
 70
     2
  9
$LTSCALE
 40
1.0
  9
$OSMODE
 70
    39
  9
$ATTMODE
 70
     1
  9
$TEXTSIZE
 40
2.5
  9
$TRACEWID
 40
1.0
  9
$TEXTSTYLE
  7
STANDARD
  9
$CLAYER
  8
TRACKS
  9
$CELTYPE
  6
BYLAYER
  9
$CECOLOR
 62
   256
  9
$DIMSCALE
 40
1.0
  9
$DIMASZ
 40
2.5
  9
$DIMEXO
 40
0.625
  9
$DIMDLI
 40
3.75
  9
$DIMRND
 40
0.0
  9
$DIMDLE
 40
0.0
  9
$DIMEXE
 40
1.25
  9
$DIMTP
 40
0.0
  9
$DIMTM
 40
0.0
  9
$DIMTXT
 40
2.5
  9
$DIMCEN
 40
2.5
  9
$DIMTSZ
 40
0.0
  9
$DIMTOL
 70
     0
  9
$DIMLIM
 70
     0
  9
$DIMTIH
 70
     0
  9
$DIMTOH
 70
     0
  9
$DIMSE1
 70
     0
  9
$DIMSE2
 70
     0
  9
$DIMTAD
 70
     1
  9
$DIMZIN
 70
     8
  9
$DIMBLK
  1

  9
$DIMASO
 70
     1
  9
$DIMSHO
 70
     1
  9
$DIMPOST
  1

  9
$DIMAPOST
  1

  9
$DIMALT
 70
     0
  9
$DIMALTD
 70
     3
  9
$DIMALTF
 40
0.03937007874016
  9
$DIMLFAC
 40
1.0
  9
$DIMTOFL
 70
     1
  9
$DIMTVP
 40
0.0
  9
$DIMTIX
 70
     0
  9
$DIMSOXD
 70
     0
  9
$DIMSAH
 70
     0
  9
$DIMBLK1
  1

  9
$DIMBLK2
  1

  9
$DIMSTYLE
  2
ISO-25
  9
$DIMCLRD
 70
     0
  9
$DIMCLRE
 70
     0
  9
$DIMCLRT
 70
     0
  9
$DIMTFAC
 40
1.0
  9
$DIMGAP
 40
0.625
  9
$LUNITS
 70
     2
  9
$LUPREC
 70
     4
  9
$SKETCHINC
 40
1.0
  9
$FILLETRAD
 40
10.0
  9
$AUNITS
 70
     0
  9
$AUPREC
 70
     0
  9
$MENU
  1
.
  9
$ELEVATION
 40
0.0
  9
$PELEVATION
 40
0.0
  9
$THICKNESS
 40
0.0
  9
$LIMCHECK
 70
     0
  9
$BLIPMODE
 70
     0
  9
$CHAMFERA
 40
10.0
  9
$CHAMFERB
 40
10.0
  9
$SKPOLY
 70
     0
  9
$TDCREATE
 40
2455769.7926708912
  9
$TDUPDATE
 40
2455769.9185693292
  9
$TDINDWG
 40
0.1258984375
  9
$TDUSRTIMER
 40
0.1258984375
  9
$USRTIMER
 70
     1
  9
$ANGBASE
 50
0.0
  9
$ANGDIR
 70
     0
  9
$PDMODE
 70
     0
  9
$PDSIZE
 40
0.0
  9
$PLINEWID
 40
0.0
  9
$COORDS
 70
     1
  9
$SPLFRAME
 70
     0
  9
$SPLINETYPE
 70
     6
  9
$SPLINESEGS
 70
     8
  9
$ATTDIA
 70
     1
  9
$ATTREQ
 70
     1
  9
$HANDLING
 70
-16383
  9
$HANDSEED
  5
B5A
  9
$SURFTAB1
 70
     6
  9
$SURFTAB2
 70
     6
  9
$SURFTYPE
 70
     6
  9
$SURFU
 70
     6
  9
$SURFV
 70
     6
  9
$UCSNAME
  2

  9
$UCSORG
 10
0.0
 20
0.0
 30
0.0
  9
$UCSXDIR
 10
0.0
 20
-1.0
 30
0.0
  9
$UCSYDIR
 10
0.0
 20
0.0
 30
1.0
  9
$PUCSNAME
  2

  9
$PUCSORG
 10
0.0
 20
0.0
 30
0.0
  9
$PUCSXDIR
 10
1.0
 20
0.0
 30
0.0
  9
$PUCSYDIR
 10
0.0
 20
1.0
 30
0.0
  9
$USERI1
 70
     0
  9
$USERI2
 70
     0
  9
$USERI3
 70
     0
  9
$USERI4
 70
     0
  9
$USERI5
 70
     0
  9
$USERR1
 40
0.0
  9
$USERR2
 40
0.0
  9
$USERR3
 40
0.0
  9
$USERR4
 40
0.0
  9
$USERR5
 40
0.0
  9
$WORLDVIEW
 70
     1
  9
$SHADEDGE
 70
     3
  9
$SHADEDIF
 70
    70
  9
$TILEMODE
 70
     1
  9
$MAXACTVP
 70
    64
  9
$PLIMCHECK
 70
     0
  9
$PEXTMIN
 10
27.844751262664801
 20
20.161249995231621
 30
0.0
  9
$PEXTMAX
 10
250.60276136398309
 20
181.4512499570846
 30
0.0
  9
$PLIMMIN
 10
-3.757080078125
 20
-3.7570831775665279
  9
$PLIMMAX
 10
293.21124267578119
 20
206.21624445915219
  9
$UNITMODE
 70
     0
  9
$VISRETAIN
 70
     1
  9
$PLINEGEN
 70
     0
  9
$PSLTSCALE
 70
     1
  0
ENDSEC
  0
SECTION
  2
TABLES
  0
TABLE
  2
VPORT
 70
    36
  0
VPORT
  2
*ACTIVE
 70
     0
 10
0.0
 20
0.0
 11
1.0
 21
1.0
 12
1.38076340000002
 22
-0.2336978659999929
 13
0.0
 23
0.0
 14
0.01
 24
0.01
 15
1.0
 25
1.0
 16
-1.0
 26
0.0
 36
0.0
 17
0.0
 27
0.0
 37
0.0
 40
66.389981296802176
 41
2.1731448763250878
 42
50.0
 43
0.0
 44
0.0
 50
0.0
 51
0.0
 71
     0
 72
   100
 73
     1
 74
     3
 75
     1
 76
     1
 77
     0
 78
     0
  0
ENDTAB
  0
TABLE
  2
LTYPE
 70
     1
  0
LTYPE
  2
CONTINUOUS
 70
     0
  3
Solid line
 72
    65
 73
     0
 40
0.0
  0
ENDTAB
  0
TABLE
  2
LAYER
 70
     7
  0
LAYER
  2
0
 70
     0
 62
     7
  6
CONTINUOUS
  0
LAYER
  2
DRAWING
 70
     0
 62
     9
  6
CONTINUOUS
  0
LAYER
  2
SUSPENSION
 70
     0
 62
     5
  6
CONTINUOUS
  0
LAYER
  2
WHEELS
 70
     0
 62
     2
  6
CONTINUOUS
  0
LAYER
  2
TRACKS
 70
     0
 62
     3
  6
CONTINUOUS
  0
LAYER
  2
MUDGUARDS
 70
     0
 62
     6
  6
CONTINUOUS
  0
LAYER
  2
TENT
 70
     0
 62
     3
  6
CONTINUOUS
  0
ENDTAB
  0
TABLE
  2
STYLE
 70
     1
  0
STYLE
  2
STANDARD
 70
     0
 40
0.0
 41
1.0
 50
0.0
 71
     0
 42
2.5
  3
txt
  4

  0
ENDTAB
  0
TABLE
  2
VIEW
 70
     0
  0
ENDTAB
  0
TABLE
  2
UCS
 70
     0
  0
ENDTAB
  0
TABLE
  2
APPID
 70
     1
  0
APPID
  2
ACAD
 70
     0
  0
ENDTAB
  0
TABLE
  2
DIMSTYLE
 70
     1
  0
DIMSTYLE
  2
ISO-25
 70
     0
  3

  4

  5

  6

  7

 40
1.0
 41
2.5
 42
0.625
 43
3.75
 44
1.25
 45
0.0
 46
0.0
 47
0.0
 48
0.0
140
2.5
141
2.5
142
0.0
143
0.03937007874016
144
1.0
145
0.0
146
1.0
147
0.625
 71
     0
 72
     0
 73
     0
 74
     0
 75
     0
 76
     0
 77
     1
 78
     8
170
     0
171
     3
172
     1
173
     0
174
     0
175
     0
176
     0
177
     0
178
     0
  0
ENDTAB
  0
ENDSEC
  0
SECTION
  2
BLOCKS
  0
BLOCK
  8
0
  2
$MODEL_SPACE
 70
     0
 10
0.0
 20
0.0
 30
0.0
  3
$MODEL_SPACE
  1

  0
ENDBLK
  5
21
  8
0
  0
BLOCK
 67
     1
  8
0
  2
$PAPER_SPACE
 70
     0
 10
0.0
 20
0.0
 30
0.0
  3
$PAPER_SPACE
  1

  0
ENDBLK
  5
1D
 67
     1
  8
0
  0
ENDSEC
  0
SECTION
  2
ENTITIES
  0
3DFACE
  5
559
  8
TRACKS
 10
0.94
 20
-2.0600000000000001
 30
0.04
 11
0.94
 21
-2.0800000000000001
 31
0.0
 12
0.94
 22
0.5999999999999996
 32
0.0
 13
0.94
 23
0.5999999999999996
 33
0.04
  0
3DFACE
  5
55A
  8
TRACKS
 10
0.6600000000000001
 20
0.5999999999999996
 30
0.0
 11
0.6600000000000001
 21
-2.0800000000000001
 31
0.0
 12
0.6600000000000001
 22
-2.0600000000000001
 32
0.04
 13
0.6600000000000001
 23
0.5999999999999996
 33
0.04
  0
3DFACE
  5
55C
  8
TRACKS
 10
0.94
 20
0.5999999999999996
 30
0.0
 11
0.94
 21
-2.0800000000000001
 31
0.0
 12
0.6600000000000001
 22
-2.0800000000000001
 32
0.0
 13
0.6600000000000001
 23
0.5999999999999996
 33
0.0
  0
3DFACE
  5
55D
  8
TRACKS
 10
0.6600000000000001
 20
0.5999999999999996
 30
0.04
 11
0.6600000000000001
 21
-2.0600000000000001
 31
0.04
 12
0.94
 22
-2.0600000000000001
 32
0.04
 13
0.94
 23
0.5999999999999996
 33
0.04
  0
3DFACE
  5
560
  8
TRACKS
 10
0.94
 20
-2.75
 30
0.27
 11
0.94
 21
-2.79
 31
0.24
 12
0.94
 22
-2.0800000000000001
 32
0.0
 13
0.94
 23
-2.0600000000000001
 33
0.04
  0
3DFACE
  5
561
  8
TRACKS
 10
0.94
 20
-2.0800000000000001
 30
0.0
 11
0.94
 21
-2.79
 31
0.24
 12
0.6600000000000001
 22
-2.79
 32
0.24
 13
0.6600000000000001
 23
-2.0800000000000001
 33
0.0
  0
3DFACE
  5
562
  8
TRACKS
 10
0.6600000000000001
 20
-2.0800000000000001
 30
0.0
 11
0.6600000000000001
 21
-2.79
 31
0.24
 12
0.6600000000000001
 22
-2.75
 32
0.27
 13
0.6600000000000001
 23
-2.0600000000000001
 33
0.04
  0
3DFACE
  5
563
  8
TRACKS
 10
0.6600000000000001
 20
-2.0600000000000001
 30
0.04
 11
0.6600000000000001
 21
-2.75
 31
0.27
 12
0.94
 22
-2.75
 32
0.27
 13
0.94
 23
-2.0600000000000001
 33
0.04
  0
3DFACE
  5
568
  8
TRACKS
 10
0.6600000000000001
 20
-2.79
 30
0.24
 11
0.6600000000000001
 21
-2.879999999999999
 31
0.31
 12
0.6600000000000001
 22
-2.839999999999999
 32
0.34
 13
0.6600000000000001
 23
-2.75
 33
0.27
  0
3DFACE
  5
569
  8
TRACKS
 10
0.94
 20
-2.839999999999999
 30
0.34
 11
0.94
 21
-2.879999999999999
 31
0.31
 12
0.94
 22
-2.79
 32
0.24
 13
0.94
 23
-2.75
 33
0.27
  0
3DFACE
  5
56B
  8
TRACKS
 10
0.94
 20
-2.79
 30
0.24
 11
0.94
 21
-2.879999999999999
 31
0.31
 12
0.6600000000000001
 22
-2.879999999999999
 32
0.31
 13
0.6600000000000001
 23
-2.79
 33
0.24
  0
3DFACE
  5
56C
  8
TRACKS
 10
0.6600000000000001
 20
-2.75
 30
0.27
 11
0.6600000000000001
 21
-2.839999999999999
 31
0.34
 12
0.94
 22
-2.839999999999999
 32
0.34
 13
0.94
 23
-2.75
 33
0.27
  0
3DFACE
  5
56E
  8
TRACKS
 10
0.6600000000000001
 20
-2.8399999999999999
 30
0.34
 11
0.6600000000000001
 21
-2.9100000000000001
 31
0.5
 12
0.94
 22
-2.9100000000000001
 32
0.5
 13
0.94
 23
-2.8399999999999999
 33
0.34
  0
3DFACE
  5
56F
  8
TRACKS
 10
0.94
 20
-2.879999999999999
 30
0.31
 11
0.94
 21
-2.9500000000000002
 31
0.5
 12
0.6600000000000001
 22
-2.9500000000000002
 32
0.5
 13
0.6600000000000001
 23
-2.879999999999999
 33
0.31
  0
3DFACE
  5
570
  8
TRACKS
 10
0.94
 20
-2.9100000000000001
 30
0.5
 11
0.94
 21
-2.9500000000000002
 31
0.5
 12
0.94
 22
-2.879999999999999
 32
0.31
 13
0.94
 23
-2.8399999999999999
 33
0.34
  0
3DFACE
  5
571
  8
TRACKS
 10
0.6600000000000001
 20
-2.879999999999999
 30
0.31
 11
0.6600000000000001
 21
-2.9500000000000002
 31
0.5
 12
0.6600000000000001
 22
-2.9100000000000001
 32
0.5
 13
0.6600000000000001
 23
-2.8399999999999999
 33
0.34
  0
3DFACE
  5
575
  8
TRACKS
 10
0.6600000000000001
 20
-2.9500000000000002
 30
0.5
 11
0.6600000000000001
 21
-2.8700000000000001
 31
0.69
 12
0.6600000000000001
 22
-2.839999999999999
 32
0.6600000000000001
 13
0.6600000000000001
 23
-2.9100000000000001
 33
0.5
  0
3DFACE
  5
576
  8
TRACKS
 10
0.94
 20
-2.839999999999999
 30
0.6600000000000001
 11
0.94
 21
-2.8700000000000001
 31
0.69
 12
0.94
 22
-2.9500000000000002
 32
0.5
 13
0.94
 23
-2.9100000000000001
 33
0.5
  0
3DFACE
  5
577
  8
TRACKS
 10
0.94
 20
-2.9500000000000002
 30
0.5
 11
0.94
 21
-2.8700000000000001
 31
0.69
 12
0.6600000000000001
 22
-2.8700000000000001
 32
0.69
 13
0.6600000000000001
 23
-2.9500000000000002
 33
0.5
  0
3DFACE
  5
57A
  8
TRACKS
 10
0.6600000000000001
 20
-2.9100000000000001
 30
0.5
 11
0.6600000000000001
 21
-2.839999999999999
 31
0.6600000000000001
 12
0.94
 22
-2.839999999999999
 32
0.6600000000000001
 13
0.94
 23
-2.9100000000000001
 33
0.5
  0
3DFACE
  5
57C
  8
TRACKS
 10
0.94
 20
-2.6800000000000002
 30
0.73
 11
0.94
 21
-2.6800000000000002
 31
0.7700000000000001
 12
0.94
 22
-2.8700000000000001
 32
0.6900000000000001
 13
0.94
 23
-2.839999999999999
 33
0.6600000000000001
  0
3DFACE
  5
57D
  8
TRACKS
 10
0.94
 20
-2.8700000000000001
 30
0.6900000000000001
 11
0.94
 21
-2.6800000000000002
 31
0.7700000000000001
 12
0.6600000000000001
 22
-2.6800000000000002
 32
0.7700000000000001
 13
0.6600000000000001
 23
-2.8700000000000001
 33
0.6900000000000001
  0
3DFACE
  5
57E
  8
TRACKS
 10
0.6600000000000001
 20
-2.8700000000000001
 30
0.6900000000000001
 11
0.6600000000000001
 21
-2.6800000000000002
 31
0.7700000000000001
 12
0.6600000000000001
 22
-2.6800000000000002
 32
0.73
 13
0.6600000000000001
 23
-2.839999999999999
 33
0.6600000000000001
  0
3DFACE
  5
581
  8
TRACKS
 10
0.6600000000000001
 20
-2.839999999999999
 30
0.6600000000000001
 11
0.6600000000000001
 21
-2.6800000000000002
 31
0.73
 12
0.94
 22
-2.6800000000000002
 32
0.73
 13
0.94
 23
-2.839999999999999
 33
0.6600000000000001
  0
3DFACE
  5
583
  8
TRACKS
 10
0.94
 20
-2.4900000000000002
 30
0.6600000000000001
 11
0.94
 21
-2.4900000000000002
 31
0.7000000000000001
 12
0.94
 22
-2.6800000000000002
 32
0.7700000000000001
 13
0.94
 23
-2.6800000000000002
 33
0.73
  0
3DFACE
  5
585
  8
TRACKS
 10
0.94
 20
-2.6800000000000002
 30
0.7700000000000001
 11
0.94
 21
-2.4900000000000002
 31
0.7000000000000001
 12
0.6600000000000001
 22
-2.4900000000000002
 32
0.7000000000000001
 13
0.6600000000000001
 23
-2.6800000000000002
 33
0.7700000000000001
  0
3DFACE
  5
586
  8
TRACKS
 10
0.6600000000000001
 20
-2.6800000000000002
 30
0.7700000000000001
 11
0.6600000000000001
 21
-2.4900000000000002
 31
0.7000000000000001
 12
0.6600000000000001
 22
-2.4900000000000002
 32
0.6600000000000001
 13
0.6600000000000001
 23
-2.6800000000000002
 33
0.73
  0
3DFACE
  5
588
  8
TRACKS
 10
0.6600000000000001
 20
-2.6800000000000002
 30
0.73
 11
0.6600000000000001
 21
-2.4900000000000002
 31
0.6600000000000001
 12
0.94
 22
-2.4900000000000002
 32
0.6600000000000001
 13
0.94
 23
-2.6800000000000002
 33
0.73
  0
3DFACE
  5
58A
  8
TRACKS
 10
0.6600000000000001
 20
-2.4900000000000002
 30
0.7000000000000001
 11
0.6600000000000001
 21
-2.2799999999999998
 31
0.65
 12
0.6600000000000001
 22
-2.2799999999999998
 32
0.61
 13
0.6600000000000001
 23
-2.4900000000000002
 33
0.6600000000000001
  0
3DFACE
  5
58B
  8
TRACKS
 10
0.94
 20
-2.4900000000000002
 30
0.7000000000000001
 11
0.94
 21
-2.2799999999999998
 31
0.65
 12
0.6600000000000001
 22
-2.2799999999999998
 32
0.65
 13
0.6600000000000001
 23
-2.4900000000000002
 33
0.7000000000000001
  0
3DFACE
  5
58C
  8
TRACKS
 10
0.94
 20
-2.2799999999999998
 30
0.61
 11
0.94
 21
-2.2799999999999998
 31
0.65
 12
0.94
 22
-2.4900000000000002
 32
0.7000000000000001
 13
0.94
 23
-2.4900000000000002
 33
0.6600000000000001
  0
3DFACE
  5
58F
  8
TRACKS
 10
0.6600000000000001
 20
-2.4900000000000002
 30
0.6600000000000001
 11
0.6600000000000001
 21
-2.2799999999999998
 31
0.61
 12
0.94
 22
-2.2799999999999998
 32
0.61
 13
0.94
 23
-2.4900000000000002
 33
0.6600000000000001
  0
3DFACE
  5
591
  8
TRACKS
 10
0.94
 20
-2.2799999999999998
 30
0.65
 11
0.94
 21
-1.99
 31
0.65
 12
0.6600000000000001
 22
-1.99
 32
0.65
 13
0.6600000000000001
 23
-2.2799999999999998
 33
0.65
  0
3DFACE
  5
592
  8
TRACKS
 10
0.94
 20
-1.99
 30
0.61
 11
0.94
 21
-1.99
 31
0.65
 12
0.94
 22
-2.2799999999999998
 32
0.65
 13
0.94
 23
-2.2799999999999998
 33
0.61
  0
3DFACE
  5
594
  8
TRACKS
 10
0.6600000000000001
 20
-2.2799999999999998
 30
0.65
 11
0.6600000000000001
 21
-1.99
 31
0.65
 12
0.6600000000000001
 22
-1.99
 32
0.61
 13
0.6600000000000001
 23
-2.2799999999999998
 33
0.61
  0
3DFACE
  5
596
  8
TRACKS
 10
0.6600000000000001
 20
-2.2799999999999998
 30
0.61
 11
0.6600000000000001
 21
-1.99
 31
0.61
 12
0.94
 22
-1.99
 32
0.61
 13
0.94
 23
-2.2799999999999998
 33
0.61
  0
3DFACE
  5
599
  8
TRACKS
 10
0.6600000000000001
 20
-1.99
 30
0.65
 11
0.6600000000000001
 21
-1.7199999999999991
 31
0.63
 12
0.6600000000000001
 22
-1.7199999999999991
 32
0.59
 13
0.6600000000000001
 23
-1.99
 33
0.61
  0
3DFACE
  5
59A
  8
TRACKS
 10
0.94
 20
-1.7199999999999991
 30
0.59
 11
0.94
 21
-1.7199999999999991
 31
0.63
 12
0.94
 22
-1.99
 32
0.65
 13
0.94
 23
-1.99
 33
0.61
  0
3DFACE
  5
59B
  8
TRACKS
 10
0.94
 20
-1.99
 30
0.65
 11
0.94
 21
-1.7199999999999991
 31
0.63
 12
0.6600000000000001
 22
-1.7199999999999991
 32
0.63
 13
0.6600000000000001
 23
-1.99
 33
0.65
  0
3DFACE
  5
59D
  8
TRACKS
 10
0.6600000000000001
 20
-1.99
 30
0.61
 11
0.6600000000000001
 21
-1.7199999999999991
 31
0.59
 12
0.94
 22
-1.7199999999999991
 32
0.59
 13
0.94
 23
-1.99
 33
0.61
  0
3DFACE
  5
59F
  8
TRACKS
 10
0.94
 20
-1.45
 30
0.59
 11
0.94
 21
-1.4699999999999991
 31
0.63
 12
0.94
 22
-1.7199999999999991
 32
0.63
 13
0.94
 23
-1.7199999999999991
 33
0.59
  0
3DFACE
  5
5A1
  8
TRACKS
 10
0.6600000000000001
 20
-1.7199999999999991
 30
0.63
 11
0.6600000000000001
 21
-1.4699999999999991
 31
0.63
 12
0.6600000000000001
 22
-1.45
 32
0.59
 13
0.6600000000000001
 23
-1.7199999999999991
 33
0.59
  0
3DFACE
  5
5A3
  8
TRACKS
 10
0.94
 20
-1.7199999999999991
 30
0.63
 11
0.94
 21
-1.4699999999999991
 31
0.63
 12
0.6600000000000001
 22
-1.4699999999999991
 32
0.63
 13
0.6600000000000001
 23
-1.7199999999999991
 33
0.63
  0
3DFACE
  5
5A4
  8
TRACKS
 10
0.6600000000000001
 20
-1.7199999999999991
 30
0.59
 11
0.6600000000000001
 21
-1.45
 31
0.59
 12
0.94
 22
-1.45
 32
0.59
 13
0.94
 23
-1.7199999999999991
 33
0.59
  0
3DFACE
  5
5A6
  8
TRACKS
 10
0.94
 20
-1.2199999999999991
 30
0.61
 11
0.94
 21
-1.2199999999999991
 31
0.65
 12
0.94
 22
-1.4699999999999991
 32
0.63
 13
0.94
 23
-1.45
 33
0.59
  0
3DFACE
  5
5A9
  8
TRACKS
 10
0.6600000000000001
 20
-1.4699999999999991
 30
0.63
 11
0.6600000000000001
 21
-1.2199999999999991
 31
0.65
 12
0.6600000000000001
 22
-1.2199999999999991
 32
0.61
 13
0.6600000000000001
 23
-1.45
 33
0.59
  0
3DFACE
  5
5AA
  8
TRACKS
 10
0.94
 20
-1.4699999999999991
 30
0.63
 11
0.94
 21
-1.2199999999999991
 31
0.65
 12
0.6600000000000001
 22
-1.2199999999999991
 32
0.65
 13
0.6600000000000001
 23
-1.4699999999999991
 33
0.63
  0
3DFACE
  5
5AB
  8
TRACKS
 10
0.6600000000000001
 20
-1.45
 30
0.59
 11
0.6600000000000001
 21
-1.2199999999999991
 31
0.61
 12
0.94
 22
-1.2199999999999991
 32
0.61
 13
0.94
 23
-1.45
 33
0.59
  0
3DFACE
  5
5AD
  8
TRACKS
 10
0.6600000000000001
 20
-1.2199999999999991
 30
0.61
 11
0.6600000000000001
 21
-1.03
 31
0.63
 12
0.94
 22
-1.03
 32
0.63
 13
0.94
 23
-1.2199999999999991
 33
0.61
  0
3DFACE
  5
5AF
  8
TRACKS
 10
0.94
 20
-1.03
 30
0.63
 11
0.94
 21
-1.03
 31
0.6700000000000002
 12
0.94
 22
-1.2199999999999991
 32
0.65
 13
0.94
 23
-1.2199999999999991
 33
0.61
  0
3DFACE
  5
5B1
  8
TRACKS
 10
0.6600000000000001
 20
-1.2199999999999991
 30
0.65
 11
0.6600000000000001
 21
-1.03
 31
0.6700000000000002
 12
0.6600000000000001
 22
-1.03
 32
0.63
 13
0.6600000000000001
 23
-1.2199999999999991
 33
0.61
  0
3DFACE
  5
5B2
  8
TRACKS
 10
0.94
 20
-1.2199999999999991
 30
0.65
 11
0.94
 21
-1.03
 31
0.6700000000000002
 12
0.6600000000000001
 22
-1.03
 32
0.6700000000000002
 13
0.6600000000000001
 23
-1.2199999999999991
 33
0.65
  0
3DFACE
  5
5B4
  8
TRACKS
 10
0.94
 20
-0.84
 30
0.6700000000000002
 11
0.94
 21
-0.84
 31
0.71
 12
0.94
 22
-1.03
 32
0.6700000000000002
 13
0.94
 23
-1.03
 33
0.63
  0
3DFACE
  5
5B6
  8
TRACKS
 10
0.6600000000000001
 20
-1.03
 30
0.6700000000000002
 11
0.6600000000000001
 21
-0.84
 31
0.71
 12
0.6600000000000001
 22
-0.84
 32
0.6700000000000002
 13
0.6600000000000001
 23
-1.03
 33
0.63
  0
3DFACE
  5
5B8
  8
TRACKS
 10
0.94
 20
-1.03
 30
0.6700000000000002
 11
0.94
 21
-0.84
 31
0.71
 12
0.6600000000000001
 22
-0.84
 32
0.71
 13
0.6600000000000001
 23
-1.03
 33
0.6700000000000002
  0
3DFACE
  5
5B9
  8
TRACKS
 10
0.6600000000000001
 20
-1.03
 30
0.63
 11
0.6600000000000001
 21
-0.84
 31
0.6700000000000002
 12
0.94
 22
-0.84
 32
0.6700000000000002
 13
0.94
 23
-1.03
 33
0.63
  0
3DFACE
  5
5F8
  8
TRACKS
 10
0.94
 20
-0.65
 30
0.6700000000000002
 11
0.94
 21
-0.65
 31
0.71
 12
0.94
 22
-0.84
 32
0.71
 13
0.94
 23
-0.84
 33
0.6700000000000002
  0
3DFACE
  5
5FB
  8
TRACKS
 10
0.6600000000000001
 20
-0.84
 30
0.71
 11
0.6600000000000001
 21
-0.65
 31
0.71
 12
0.6600000000000001
 22
-0.65
 32
0.6700000000000002
 13
0.6600000000000001
 23
-0.84
 33
0.6700000000000002
  0
3DFACE
  5
5FC
  8
TRACKS
 10
0.94
 20
-0.84
 30
0.71
 11
0.94
 21
-0.65
 31
0.71
 12
0.6600000000000001
 22
-0.65
 32
0.71
 13
0.6600000000000001
 23
-0.84
 33
0.71
  0
3DFACE
  5
5FD
  8
TRACKS
 10
0.6600000000000001
 20
-0.84
 30
0.6700000000000002
 11
0.6600000000000001
 21
-0.65
 31
0.6700000000000002
 12
0.94
 22
-0.65
 32
0.6700000000000002
 13
0.94
 23
-0.84
 33
0.6700000000000002
  0
3DFACE
  5
5FF
  8
TRACKS
 10
0.6600000000000001
 20
-0.6500000000000004
 30
0.6700000000000002
 11
0.6600000000000001
 21
-0.6500000000000004
 31
0.71
 12
0.6600000000000001
 22
-0.46
 32
0.6700000000000002
 13
0.6600000000000001
 23
-0.46
 33
0.63
  0
3DFACE
  5
600
  8
TRACKS
 10
0.94
 20
-0.46
 30
0.63
 11
0.94
 21
-0.6500000000000004
 31
0.6700000000000002
 12
0.6600000000000001
 22
-0.6500000000000004
 32
0.6700000000000002
 13
0.6600000000000001
 23
-0.46
 33
0.63
  0
3DFACE
  5
601
  8
TRACKS
 10
0.94
 20
-0.46
 30
0.6700000000000002
 11
0.94
 21
-0.6500000000000004
 31
0.71
 12
0.94
 22
-0.6500000000000004
 32
0.6700000000000002
 13
0.94
 23
-0.46
 33
0.63
  0
3DFACE
  5
602
  8
TRACKS
 10
0.6600000000000001
 20
-0.46
 30
0.6700000000000002
 11
0.6600000000000001
 21
-0.6500000000000004
 31
0.71
 12
0.94
 22
-0.6500000000000004
 32
0.71
 13
0.94
 23
-0.46
 33
0.6700000000000002
  0
3DFACE
  5
605
  8
TRACKS
 10
0.6600000000000001
 20
-0.46
 30
0.63
 11
0.6600000000000001
 21
-0.46
 31
0.6700000000000002
 12
0.6600000000000001
 22
-0.2700000000000005
 32
0.65
 13
0.6600000000000001
 23
-0.2700000000000005
 33
0.61
  0
3DFACE
  5
607
  8
TRACKS
 10
0.94
 20
-0.2700000000000005
 30
0.65
 11
0.94
 21
-0.46
 31
0.6700000000000002
 12
0.94
 22
-0.46
 32
0.63
 13
0.94
 23
-0.2700000000000005
 33
0.61
  0
3DFACE
  5
608
  8
TRACKS
 10
0.6600000000000001
 20
-0.2700000000000005
 30
0.65
 11
0.6600000000000001
 21
-0.46
 31
0.6700000000000002
 12
0.94
 22
-0.46
 32
0.6700000000000002
 13
0.94
 23
-0.2700000000000005
 33
0.65
  0
3DFACE
  5
60A
  8
TRACKS
 10
0.94
 20
-0.2700000000000005
 30
0.61
 11
0.94
 21
-0.46
 31
0.63
 12
0.6600000000000001
 22
-0.46
 32
0.63
 13
0.6600000000000001
 23
-0.2700000000000005
 33
0.61
  0
3DFACE
  5
60B
  8
TRACKS
 10
0.6600000000000001
 20
-0.2700000000000005
 30
0.61
 11
0.6600000000000001
 21
-0.2700000000000005
 31
0.65
 12
0.6600000000000001
 22
-0.0200000000000005
 32
0.63
 13
0.6600000000000001
 23
-0.04
 33
0.59
  0
3DFACE
  5
60C
  8
TRACKS
 10
0.94
 20
-0.04
 30
0.59
 11
0.94
 21
-0.2700000000000005
 31
0.61
 12
0.6600000000000001
 22
-0.2700000000000005
 32
0.61
 13
0.6600000000000001
 23
-0.04
 33
0.59
  0
3DFACE
  5
60D
  8
TRACKS
 10
0.94
 20
-0.0200000000000005
 30
0.63
 11
0.94
 21
-0.2700000000000005
 31
0.65
 12
0.94
 22
-0.2700000000000005
 32
0.61
 13
0.94
 23
-0.04
 33
0.59
  0
3DFACE
  5
60E
  8
TRACKS
 10
0.6600000000000001
 20
-0.0200000000000005
 30
0.63
 11
0.6600000000000001
 21
-0.2700000000000005
 31
0.65
 12
0.94
 22
-0.2700000000000005
 32
0.65
 13
0.94
 23
-0.0200000000000005
 33
0.63
  0
3DFACE
  5
610
  8
TRACKS
 10
0.6600000000000001
 20
-0.04
 30
0.59
 11
0.6600000000000001
 21
-0.0200000000000005
 31
0.63
 12
0.6600000000000003
 22
0.2299999999999995
 32
0.63
 13
0.6600000000000003
 23
0.2299999999999995
 33
0.59
  0
3DFACE
  5
611
  8
TRACKS
 10
0.6600000000000003
 20
0.2299999999999995
 30
0.63
 11
0.6600000000000001
 21
-0.0200000000000005
 31
0.63
 12
0.94
 22
-0.0200000000000005
 32
0.63
 13
0.9400000000000002
 23
0.2299999999999995
 33
0.63
  0
3DFACE
  5
613
  8
TRACKS
 10
0.9400000000000002
 20
0.2299999999999995
 30
0.63
 11
0.94
 21
-0.0200000000000005
 31
0.63
 12
0.94
 22
-0.04
 32
0.59
 13
0.9400000000000002
 23
0.2299999999999995
 33
0.59
  0
3DFACE
  5
614
  8
TRACKS
 10
0.9400000000000002
 20
0.2299999999999995
 30
0.59
 11
0.94
 21
-0.04
 31
0.59
 12
0.6600000000000001
 22
-0.04
 32
0.59
 13
0.6600000000000003
 23
0.2299999999999995
 33
0.59
  0
3DFACE
  5
617
  8
TRACKS
 10
0.6600000000000003
 20
0.2299999999999995
 30
0.59
 11
0.6600000000000003
 21
0.2299999999999995
 31
0.63
 12
0.6600000000000003
 22
0.4999999999999992
 32
0.65
 13
0.6600000000000003
 23
0.4999999999999992
 33
0.61
  0
3DFACE
  5
618
  8
TRACKS
 10
0.6600000000000003
 20
0.4999999999999992
 30
0.65
 11
0.6600000000000003
 21
0.2299999999999995
 31
0.63
 12
0.9400000000000002
 22
0.2299999999999995
 32
0.63
 13
0.9400000000000002
 23
0.4999999999999992
 33
0.65
  0
3DFACE
  5
619
  8
TRACKS
 10
0.9400000000000002
 20
0.4999999999999992
 30
0.65
 11
0.9400000000000002
 21
0.2299999999999995
 31
0.63
 12
0.9400000000000002
 22
0.2299999999999995
 32
0.59
 13
0.9400000000000002
 23
0.4999999999999992
 33
0.61
  0
3DFACE
  5
61C
  8
TRACKS
 10
0.9400000000000002
 20
0.4999999999999992
 30
0.61
 11
0.9400000000000002
 21
0.2299999999999995
 31
0.59
 12
0.6600000000000003
 22
0.2299999999999995
 32
0.59
 13
0.6600000000000003
 23
0.4999999999999992
 33
0.61
  0
3DFACE
  5
61D
  8
TRACKS
 10
0.6600000000000003
 20
0.4999999999999992
 30
0.61
 11
0.6600000000000003
 21
0.4999999999999992
 31
0.65
 12
0.6600000000000003
 22
0.63
 32
0.65
 13
0.6600000000000003
 23
0.63
 33
0.61
  0
3DFACE
  5
61E
  8
TRACKS
 10
0.6600000000000003
 20
0.63
 30
0.65
 11
0.6600000000000003
 21
0.4999999999999992
 31
0.65
 12
0.9400000000000002
 22
0.4999999999999992
 32
0.65
 13
0.9400000000000002
 23
0.63
 33
0.65
  0
3DFACE
  5
61F
  8
TRACKS
 10
0.9400000000000002
 20
0.63
 30
0.65
 11
0.9400000000000002
 21
0.4999999999999992
 31
0.65
 12
0.9400000000000002
 22
0.4999999999999992
 32
0.61
 13
0.9400000000000002
 23
0.63
 33
0.61
  0
3DFACE
  5
622
  8
TRACKS
 10
0.9400000000000002
 20
0.63
 30
0.61
 11
0.9400000000000002
 21
0.4999999999999992
 31
0.61
 12
0.6600000000000003
 22
0.4999999999999992
 32
0.61
 13
0.6600000000000003
 23
0.63
 33
0.61
  0
3DFACE
  5
623
  8
TRACKS
 10
0.6600000000000003
 20
0.9200000000000002
 30
0.71
 11
0.6600000000000003
 21
0.63
 31
0.65
 12
0.9400000000000002
 22
0.63
 32
0.65
 13
0.9400000000000002
 23
0.9200000000000002
 33
0.71
  0
3DFACE
  5
624
  8
TRACKS
 10
0.6600000000000003
 20
0.63
 30
0.61
 11
0.6600000000000003
 21
0.63
 31
0.65
 12
0.6600000000000003
 22
0.9200000000000002
 32
0.71
 13
0.6600000000000003
 23
0.9200000000000002
 33
0.6700000000000002
  0
3DFACE
  5
625
  8
TRACKS
 10
0.9400000000000002
 20
0.9200000000000002
 30
0.71
 11
0.9400000000000002
 21
0.63
 31
0.65
 12
0.9400000000000002
 22
0.63
 32
0.61
 13
0.9400000000000002
 23
0.9200000000000002
 33
0.6700000000000002
  0
3DFACE
  5
626
  8
TRACKS
 10
0.9400000000000002
 20
0.9200000000000002
 30
0.6700000000000002
 11
0.9400000000000002
 21
0.63
 31
0.61
 12
0.6600000000000003
 22
0.63
 32
0.61
 13
0.6600000000000003
 23
0.9200000000000002
 33
0.6700000000000002
  0
3DFACE
  5
629
  8
TRACKS
 10
0.6600000000000003
 20
0.9200000000000002
 30
0.6700000000000002
 11
0.6600000000000003
 21
0.9200000000000002
 31
0.71
 12
0.6600000000000003
 22
1.1899999999999999
 32
0.7700000000000001
 13
0.6600000000000003
 23
1.1899999999999999
 33
0.73
  0
3DFACE
  5
62A
  8
TRACKS
 10
0.6600000000000003
 20
1.1899999999999999
 30
0.7700000000000001
 11
0.6600000000000003
 21
0.9200000000000002
 31
0.71
 12
0.9400000000000002
 22
0.9200000000000002
 32
0.71
 13
0.9400000000000002
 23
1.1899999999999999
 33
0.7700000000000001
  0
3DFACE
  5
62B
  8
TRACKS
 10
0.9400000000000002
 20
1.1899999999999999
 30
0.7700000000000001
 11
0.9400000000000002
 21
0.9200000000000002
 31
0.71
 12
0.9400000000000002
 22
0.9200000000000002
 32
0.6700000000000002
 13
0.9400000000000002
 23
1.1899999999999999
 33
0.73
  0
3DFACE
  5
62E
  8
TRACKS
 10
0.9400000000000002
 20
1.1899999999999999
 30
0.73
 11
0.9400000000000002
 21
0.9200000000000002
 31
0.6700000000000002
 12
0.6600000000000003
 22
0.9200000000000002
 32
0.6700000000000002
 13
0.6600000000000003
 23
1.1899999999999999
 33
0.73
  0
3DFACE
  5
62F
  8
TRACKS
 10
0.6600000000000003
 20
1.1899999999999999
 30
0.73
 11
0.6600000000000003
 21
1.1899999999999999
 31
0.7700000000000001
 12
0.6600000000000003
 22
1.379999999999999
 32
0.69
 13
0.6600000000000003
 23
1.3500000000000001
 33
0.6600000000000001
  0
3DFACE
  5
630
  8
TRACKS
 10
0.6600000000000003
 20
1.379999999999999
 30
0.69
 11
0.6600000000000003
 21
1.1899999999999999
 31
0.7700000000000001
 12
0.9400000000000002
 22
1.1899999999999999
 32
0.7700000000000001
 13
0.9400000000000002
 23
1.379999999999999
 33
0.69
  0
3DFACE
  5
631
  8
TRACKS
 10
0.9400000000000002
 20
1.379999999999999
 30
0.69
 11
0.9400000000000002
 21
1.1899999999999999
 31
0.7700000000000001
 12
0.9400000000000002
 22
1.1899999999999999
 32
0.73
 13
0.9400000000000002
 23
1.3500000000000001
 33
0.6600000000000001
  0
3DFACE
  5
634
  8
TRACKS
 10
0.9400000000000002
 20
1.3500000000000001
 30
0.6600000000000001
 11
0.9400000000000002
 21
1.1899999999999999
 31
0.73
 12
0.6600000000000003
 22
1.1899999999999999
 32
0.73
 13
0.6600000000000003
 23
1.3500000000000001
 33
0.6600000000000001
  0
3DFACE
  5
635
  8
TRACKS
 10
0.6600000000000003
 20
1.3500000000000001
 30
0.6600000000000001
 11
0.6600000000000003
 21
1.379999999999999
 31
0.69
 12
0.6600000000000003
 22
1.4599999999999991
 32
0.5
 13
0.6600000000000003
 23
1.4199999999999999
 33
0.5
  0
3DFACE
  5
636
  8
TRACKS
 10
0.6600000000000003
 20
1.4599999999999991
 30
0.5
 11
0.6600000000000003
 21
1.379999999999999
 31
0.69
 12
0.9400000000000002
 22
1.379999999999999
 32
0.69
 13
0.9400000000000002
 23
1.4599999999999991
 33
0.5
  0
3DFACE
  5
637
  8
TRACKS
 10
0.9400000000000002
 20
1.4599999999999991
 30
0.5
 11
0.9400000000000002
 21
1.379999999999999
 31
0.69
 12
0.9400000000000002
 22
1.3500000000000001
 32
0.6600000000000001
 13
0.9400000000000002
 23
1.4199999999999999
 33
0.5
  0
3DFACE
  5
63A
  8
TRACKS
 10
0.9400000000000002
 20
1.4199999999999999
 30
0.5
 11
0.9400000000000002
 21
1.3500000000000001
 31
0.6600000000000001
 12
0.6600000000000003
 22
1.3500000000000001
 32
0.6600000000000001
 13
0.6600000000000003
 23
1.4199999999999999
 33
0.5
  0
3DFACE
  5
63B
  8
TRACKS
 10
0.6600000000000003
 20
1.4199999999999999
 30
0.5
 11
0.6600000000000003
 21
1.4599999999999991
 31
0.5
 12
0.6600000000000003
 22
1.409999999999999
 32
0.31
 13
0.6600000000000003
 23
1.3700000000000001
 33
0.34
  0
3DFACE
  5
63C
  8
TRACKS
 10
0.6600000000000003
 20
1.409999999999999
 30
0.31
 11
0.6600000000000003
 21
1.4599999999999991
 31
0.5
 12
0.9400000000000002
 22
1.4599999999999991
 32
0.5
 13
0.9400000000000002
 23
1.409999999999999
 33
0.31
  0
3DFACE
  5
63D
  8
TRACKS
 10
0.9400000000000002
 20
1.409999999999999
 30
0.31
 11
0.9400000000000002
 21
1.4599999999999991
 31
0.5
 12
0.9400000000000002
 22
1.4199999999999999
 32
0.5
 13
0.9400000000000002
 23
1.3700000000000001
 33
0.34
  0
3DFACE
  5
640
  8
TRACKS
 10
0.9400000000000002
 20
1.3700000000000001
 30
0.34
 11
0.9400000000000002
 21
1.4199999999999999
 31
0.5
 12
0.6600000000000003
 22
1.4199999999999999
 32
0.5
 13
0.6600000000000003
 23
1.3700000000000001
 33
0.34
  0
3DFACE
  5
641
  8
TRACKS
 10
0.6600000000000003
 20
1.3700000000000001
 30
0.34
 11
0.6600000000000003
 21
1.409999999999999
 31
0.31
 12
0.6600000000000003
 22
1.3200000000000001
 32
0.24
 13
0.6600000000000003
 23
1.28
 33
0.27
  0
3DFACE
  5
642
  8
TRACKS
 10
0.6600000000000003
 20
1.3200000000000001
 30
0.24
 11
0.6600000000000003
 21
1.409999999999999
 31
0.31
 12
0.9400000000000002
 22
1.409999999999999
 32
0.31
 13
0.9400000000000002
 23
1.3200000000000001
 33
0.24
  0
3DFACE
  5
643
  8
TRACKS
 10
0.9400000000000002
 20
1.3200000000000001
 30
0.24
 11
0.9400000000000002
 21
1.409999999999999
 31
0.31
 12
0.9400000000000002
 22
1.3700000000000001
 32
0.34
 13
0.9400000000000002
 23
1.28
 33
0.27
  0
3DFACE
  5
646
  8
TRACKS
 10
0.9400000000000002
 20
1.28
 30
0.27
 11
0.9400000000000002
 21
1.3700000000000001
 31
0.34
 12
0.6600000000000003
 22
1.3700000000000001
 32
0.34
 13
0.6600000000000003
 23
1.28
 33
0.27
  0
3DFACE
  5
647
  8
TRACKS
 10
0.6600000000000003
 20
1.28
 30
0.27
 11
0.6600000000000003
 21
1.3200000000000001
 31
0.24
 12
0.6600000000000003
 22
0.6
 32
0.0
 13
0.6600000000000003
 23
0.6
 33
0.04
  0
3DFACE
  5
648
  8
TRACKS
 10
0.6600000000000003
 20
0.6
 30
0.0
 11
0.6600000000000003
 21
1.3200000000000001
 31
0.24
 12
0.9400000000000002
 22
1.3200000000000001
 32
0.24
 13
0.9400000000000002
 23
0.6
 33
0.0
  0
3DFACE
  5
649
  8
TRACKS
 10
0.9400000000000002
 20
0.6
 30
0.0
 11
0.9400000000000002
 21
1.3200000000000001
 31
0.24
 12
0.9400000000000002
 22
1.28
 32
0.27
 13
0.9400000000000002
 23
0.6
 33
0.04
  0
3DFACE
  5
64C
  8
TRACKS
 10
0.9400000000000002
 20
0.6
 30
0.04
 11
0.9400000000000002
 21
1.28
 31
0.27
 12
0.6600000000000003
 22
1.28
 32
0.27
 13
0.6600000000000003
 23
0.6
 33
0.04
  0
3DFACE
  5
65A
  8
TRACKS
 10
-0.6599999999999998
 20
1.4599999999999991
 30
0.5
 11
-0.6599999999999998
 21
1.379999999999999
 31
0.69
 12
-0.6599999999999998
 22
1.3500000000000001
 32
0.6600000000000001
 13
-0.6599999999999998
 23
1.4199999999999999
 33
0.5
  0
3DFACE
  5
65B
  8
TRACKS
 10
-0.9399999999999998
 20
1.4599999999999991
 30
0.5
 11
-0.9399999999999998
 21
1.379999999999999
 31
0.69
 12
-0.6599999999999998
 22
1.379999999999999
 32
0.69
 13
-0.6599999999999998
 23
1.4599999999999991
 33
0.5
  0
3DFACE
  5
65C
  8
TRACKS
 10
-0.9399999999999998
 20
1.3500000000000001
 30
0.6600000000000001
 11
-0.9399999999999998
 21
1.379999999999999
 31
0.69
 12
-0.9399999999999998
 22
1.4599999999999991
 32
0.5
 13
-0.9399999999999998
 23
1.4199999999999999
 33
0.5
  0
3DFACE
  5
65D
  8
TRACKS
 10
-0.6599999999999998
 20
1.4199999999999999
 30
0.5
 11
-0.6599999999999998
 21
1.3500000000000001
 31
0.6600000000000001
 12
-0.9399999999999998
 22
1.3500000000000001
 32
0.6600000000000001
 13
-0.9399999999999998
 23
1.4199999999999999
 33
0.5
  0
3DFACE
  5
65E
  8
TRACKS
 10
-0.6600000000000001
 20
-2.839999999999999
 30
0.6600000000000001
 11
-0.6600000000000001
 21
-2.8700000000000001
 31
0.69
 12
-0.6600000000000001
 22
-2.9500000000000002
 32
0.5
 13
-0.6600000000000001
 23
-2.9100000000000001
 33
0.5
  0
3DFACE
  5
65F
  8
TRACKS
 10
-0.6600000000000001
 20
-2.9500000000000002
 30
0.5
 11
-0.6600000000000001
 21
-2.8700000000000001
 31
0.69
 12
-0.94
 22
-2.8700000000000001
 32
0.69
 13
-0.94
 23
-2.9500000000000002
 33
0.5
  0
3DFACE
  5
660
  8
TRACKS
 10
-0.94
 20
-2.9500000000000002
 30
0.5
 11
-0.94
 21
-2.8700000000000001
 31
0.69
 12
-0.94
 22
-2.839999999999999
 32
0.6600000000000001
 13
-0.94
 23
-2.9100000000000001
 33
0.5
  0
3DFACE
  5
661
  8
TRACKS
 10
-0.94
 20
-2.9100000000000001
 30
0.5
 11
-0.94
 21
-2.839999999999999
 31
0.6600000000000001
 12
-0.6600000000000001
 22
-2.839999999999999
 32
0.6600000000000001
 13
-0.6600000000000001
 23
-2.9100000000000001
 33
0.5
  0
3DFACE
  5
662
  8
TRACKS
 10
-0.66
 20
0.6
 30
0.0
 11
-0.6599999999999998
 21
1.3200000000000001
 31
0.24
 12
-0.6599999999999998
 22
1.28
 32
0.27
 13
-0.66
 23
0.6
 33
0.04
  0
3DFACE
  5
663
  8
TRACKS
 10
-0.9399999999999998
 20
0.6
 30
0.0
 11
-0.9399999999999998
 21
1.3200000000000001
 31
0.24
 12
-0.6599999999999998
 22
1.3200000000000001
 32
0.24
 13
-0.66
 23
0.6
 33
0.0
  0
3DFACE
  5
664
  8
TRACKS
 10
-0.9399999999999998
 20
1.28
 30
0.27
 11
-0.9399999999999998
 21
1.3200000000000001
 31
0.24
 12
-0.9399999999999998
 22
0.6
 32
0.0
 13
-0.9399999999999998
 23
0.6
 33
0.04
  0
3DFACE
  5
665
  8
TRACKS
 10
-0.66
 20
0.6
 30
0.04
 11
-0.6599999999999998
 21
1.28
 31
0.27
 12
-0.9399999999999998
 22
1.28
 32
0.27
 13
-0.9399999999999998
 23
0.6
 33
0.04
  0
3DFACE
  5
666
  8
TRACKS
 10
-0.6600000000000001
 20
-2.75
 30
0.27
 11
-0.6600000000000001
 21
-2.79
 31
0.24
 12
-0.6600000000000001
 22
-2.0800000000000001
 32
0.0
 13
-0.6600000000000001
 23
-2.0600000000000001
 33
0.04
  0
3DFACE
  5
667
  8
TRACKS
 10
-0.6600000000000001
 20
-2.0800000000000001
 30
0.0
 11
-0.6600000000000001
 21
-2.79
 31
0.24
 12
-0.94
 22
-2.79
 32
0.24
 13
-0.94
 23
-2.0800000000000001
 33
0.0
  0
3DFACE
  5
668
  8
TRACKS
 10
-0.94
 20
-2.0800000000000001
 30
0.0
 11
-0.94
 21
-2.79
 31
0.24
 12
-0.94
 22
-2.75
 32
0.27
 13
-0.94
 23
-2.0600000000000001
 33
0.04
  0
3DFACE
  5
669
  8
TRACKS
 10
-0.94
 20
-2.0600000000000001
 30
0.04
 11
-0.94
 21
-2.75
 31
0.27
 12
-0.6600000000000001
 22
-2.75
 32
0.27
 13
-0.6600000000000001
 23
-2.0600000000000001
 33
0.04
  0
3DFACE
  5
66A
  8
TRACKS
 10
-0.6600000000000001
 20
-2.0600000000000001
 30
0.04
 11
-0.6600000000000001
 21
-2.0800000000000001
 31
0.0
 12
-0.6600000000000001
 22
0.5999999999999996
 32
0.0
 13
-0.6600000000000001
 23
0.5999999999999996
 33
0.04
  0
3DFACE
  5
66B
  8
TRACKS
 10
-0.6600000000000001
 20
0.5999999999999996
 30
0.0
 11
-0.6600000000000001
 21
-2.0800000000000001
 31
0.0
 12
-0.94
 22
-2.0800000000000001
 32
0.0
 13
-0.94
 23
0.5999999999999996
 33
0.0
  0
3DFACE
  5
66C
  8
TRACKS
 10
-0.94
 20
0.5999999999999996
 30
0.0
 11
-0.94
 21
-2.0800000000000001
 31
0.0
 12
-0.94
 22
-2.0600000000000001
 32
0.04
 13
-0.94
 23
0.5999999999999996
 33
0.04
  0
3DFACE
  5
66D
  8
TRACKS
 10
-0.94
 20
0.5999999999999996
 30
0.04
 11
-0.94
 21
-2.0600000000000001
 31
0.04
 12
-0.6600000000000001
 22
-2.0600000000000001
 32
0.04
 13
-0.6600000000000001
 23
0.5999999999999996
 33
0.04
  0
3DFACE
  5
66E
  8
TRACKS
 10
-0.6600000000000001
 20
-2.9100000000000001
 30
0.5
 11
-0.6600000000000001
 21
-2.9500000000000002
 31
0.5
 12
-0.6600000000000001
 22
-2.879999999999999
 32
0.31
 13
-0.6600000000000001
 23
-2.8399999999999999
 33
0.34
  0
3DFACE
  5
66F
  8
TRACKS
 10
-0.6600000000000001
 20
-2.879999999999999
 30
0.31
 11
-0.6600000000000001
 21
-2.9500000000000002
 31
0.5
 12
-0.94
 22
-2.9500000000000002
 32
0.5
 13
-0.94
 23
-2.879999999999999
 33
0.31
  0
3DFACE
  5
670
  8
TRACKS
 10
-0.94
 20
-2.879999999999999
 30
0.31
 11
-0.94
 21
-2.9500000000000002
 31
0.5
 12
-0.94
 22
-2.9100000000000001
 32
0.5
 13
-0.94
 23
-2.8399999999999999
 33
0.34
  0
3DFACE
  5
671
  8
TRACKS
 10
-0.94
 20
-2.8399999999999999
 30
0.34
 11
-0.94
 21
-2.9100000000000001
 31
0.5
 12
-0.6600000000000001
 22
-2.9100000000000001
 32
0.5
 13
-0.6600000000000001
 23
-2.8399999999999999
 33
0.34
  0
3DFACE
  5
672
  8
TRACKS
 10
-0.6600000000000001
 20
-2.839999999999999
 30
0.34
 11
-0.6600000000000001
 21
-2.879999999999999
 31
0.31
 12
-0.6600000000000001
 22
-2.79
 32
0.24
 13
-0.6600000000000001
 23
-2.75
 33
0.27
  0
3DFACE
  5
673
  8
TRACKS
 10
-0.6600000000000001
 20
-2.79
 30
0.24
 11
-0.6600000000000001
 21
-2.879999999999999
 31
0.31
 12
-0.94
 22
-2.879999999999999
 32
0.31
 13
-0.94
 23
-2.79
 33
0.24
  0
3DFACE
  5
674
  8
TRACKS
 10
-0.94
 20
-2.79
 30
0.24
 11
-0.94
 21
-2.879999999999999
 31
0.31
 12
-0.94
 22
-2.839999999999999
 32
0.34
 13
-0.94
 23
-2.75
 33
0.27
  0
3DFACE
  5
675
  8
TRACKS
 10
-0.94
 20
-2.75
 30
0.27
 11
-0.94
 21
-2.839999999999999
 31
0.34
 12
-0.6600000000000001
 22
-2.839999999999999
 32
0.34
 13
-0.6600000000000001
 23
-2.75
 33
0.27
  0
3DFACE
  5
676
  8
TRACKS
 10
-0.6599999999999998
 20
1.409999999999999
 30
0.31
 11
-0.6599999999999998
 21
1.4599999999999991
 31
0.5
 12
-0.6599999999999998
 22
1.4199999999999999
 32
0.5
 13
-0.6599999999999998
 23
1.3700000000000001
 33
0.34
  0
3DFACE
  5
677
  8
TRACKS
 10
-0.6599999999999998
 20
1.3700000000000001
 30
0.34
 11
-0.6599999999999998
 21
1.4199999999999999
 31
0.5
 12
-0.9399999999999998
 22
1.4199999999999999
 32
0.5
 13
-0.9399999999999998
 23
1.3700000000000001
 33
0.34
  0
3DFACE
  5
678
  8
TRACKS
 10
-0.9399999999999998
 20
1.4199999999999999
 30
0.5
 11
-0.9399999999999998
 21
1.4599999999999991
 31
0.5
 12
-0.9399999999999998
 22
1.409999999999999
 32
0.31
 13
-0.9399999999999998
 23
1.3700000000000001
 33
0.34
  0
3DFACE
  5
679
  8
TRACKS
 10
-0.9399999999999998
 20
1.409999999999999
 30
0.31
 11
-0.9399999999999998
 21
1.4599999999999991
 31
0.5
 12
-0.6599999999999998
 22
1.4599999999999991
 32
0.5
 13
-0.6599999999999998
 23
1.409999999999999
 33
0.31
  0
3DFACE
  5
67A
  8
TRACKS
 10
-0.6599999999999998
 20
1.3200000000000001
 30
0.24
 11
-0.6599999999999998
 21
1.409999999999999
 31
0.31
 12
-0.6599999999999998
 22
1.3700000000000001
 32
0.34
 13
-0.6599999999999998
 23
1.28
 33
0.27
  0
3DFACE
  5
67B
  8
TRACKS
 10
-0.6599999999999998
 20
1.28
 30
0.27
 11
-0.6599999999999998
 21
1.3700000000000001
 31
0.34
 12
-0.9399999999999998
 22
1.3700000000000001
 32
0.34
 13
-0.9399999999999998
 23
1.28
 33
0.27
  0
3DFACE
  5
67C
  8
TRACKS
 10
-0.9399999999999998
 20
1.3700000000000001
 30
0.34
 11
-0.9399999999999998
 21
1.409999999999999
 31
0.31
 12
-0.9399999999999998
 22
1.3200000000000001
 32
0.24
 13
-0.9399999999999998
 23
1.28
 33
0.27
  0
3DFACE
  5
67D
  8
TRACKS
 10
-0.9399999999999998
 20
1.3200000000000001
 30
0.24
 11
-0.9399999999999998
 21
1.409999999999999
 31
0.31
 12
-0.6599999999999998
 22
1.409999999999999
 32
0.31
 13
-0.6599999999999998
 23
1.3200000000000001
 33
0.24
  0
3DFACE
  5
67E
  8
TRACKS
 10
-0.66
 20
0.2299999999999995
 30
0.59
 11
-0.6600000000000001
 21
-0.04
 31
0.59
 12
-0.94
 22
-0.04
 32
0.59
 13
-0.9399999999999998
 23
0.2299999999999995
 33
0.59
  0
3DFACE
  5
67F
  8
TRACKS
 10
-0.66
 20
0.2299999999999995
 30
0.63
 11
-0.6600000000000001
 21
-0.0200000000000005
 31
0.63
 12
-0.6600000000000001
 22
-0.04
 32
0.59
 13
-0.66
 23
0.2299999999999995
 33
0.59
  0
3DFACE
  5
680
  8
TRACKS
 10
-0.9399999999999998
 20
0.2299999999999995
 30
0.63
 11
-0.94
 21
-0.0200000000000005
 31
0.63
 12
-0.6600000000000001
 22
-0.0200000000000005
 32
0.63
 13
-0.66
 23
0.2299999999999995
 33
0.63
  0
3DFACE
  5
681
  8
TRACKS
 10
-0.94
 20
-0.04
 30
0.59
 11
-0.94
 21
-0.0200000000000005
 31
0.63
 12
-0.9399999999999998
 22
0.2299999999999995
 32
0.63
 13
-0.9399999999999998
 23
0.2299999999999995
 33
0.59
  0
3DFACE
  5
682
  8
TRACKS
 10
-0.94
 20
-0.0200000000000005
 30
0.63
 11
-0.94
 21
-0.2700000000000005
 31
0.65
 12
-0.6600000000000001
 22
-0.2700000000000005
 32
0.65
 13
-0.6600000000000001
 23
-0.0200000000000005
 33
0.63
  0
3DFACE
  5
683
  8
TRACKS
 10
-0.6600000000000001
 20
-0.0200000000000005
 30
0.63
 11
-0.6600000000000001
 21
-0.2700000000000005
 31
0.65
 12
-0.6600000000000001
 22
-0.2700000000000005
 32
0.61
 13
-0.6600000000000001
 23
-0.04
 33
0.59
  0
3DFACE
  5
684
  8
TRACKS
 10
-0.6600000000000001
 20
-0.04
 30
0.59
 11
-0.6600000000000001
 21
-0.2700000000000005
 31
0.61
 12
-0.94
 22
-0.2700000000000005
 32
0.61
 13
-0.94
 23
-0.04
 33
0.59
  0
3DFACE
  5
685
  8
TRACKS
 10
-0.94
 20
-0.2700000000000005
 30
0.61
 11
-0.94
 21
-0.2700000000000005
 31
0.65
 12
-0.94
 22
-0.0200000000000005
 32
0.63
 13
-0.94
 23
-0.04
 33
0.59
  0
3DFACE
  5
686
  8
TRACKS
 10
-0.6600000000000001
 20
-0.2700000000000005
 30
0.61
 11
-0.6600000000000001
 21
-0.46
 31
0.63
 12
-0.94
 22
-0.46
 32
0.63
 13
-0.94
 23
-0.2700000000000005
 33
0.61
  0
3DFACE
  5
687
  8
TRACKS
 10
-0.94
 20
-0.2700000000000005
 30
0.65
 11
-0.94
 21
-0.46
 31
0.6700000000000002
 12
-0.6600000000000001
 22
-0.46
 32
0.6700000000000002
 13
-0.6600000000000001
 23
-0.2700000000000005
 33
0.65
  0
3DFACE
  5
688
  8
TRACKS
 10
-0.6600000000000001
 20
-0.2700000000000005
 30
0.65
 11
-0.6600000000000001
 21
-0.46
 31
0.6700000000000002
 12
-0.6600000000000001
 22
-0.46
 32
0.63
 13
-0.6600000000000001
 23
-0.2700000000000005
 33
0.61
  0
3DFACE
  5
689
  8
TRACKS
 10
-0.94
 20
-0.46
 30
0.63
 11
-0.94
 21
-0.46
 31
0.6700000000000002
 12
-0.94
 22
-0.2700000000000005
 32
0.65
 13
-0.94
 23
-0.2700000000000005
 33
0.61
  0
3DFACE
  5
68A
  8
TRACKS
 10
-0.94
 20
-0.46
 30
0.6700000000000002
 11
-0.94
 21
-0.6500000000000004
 31
0.71
 12
-0.6600000000000001
 22
-0.6500000000000004
 32
0.71
 13
-0.6600000000000001
 23
-0.46
 33
0.6700000000000002
  0
3DFACE
  5
68B
  8
TRACKS
 10
-0.6600000000000001
 20
-0.46
 30
0.6700000000000002
 11
-0.6600000000000001
 21
-0.6500000000000004
 31
0.71
 12
-0.6600000000000001
 22
-0.6500000000000004
 32
0.6700000000000002
 13
-0.6600000000000001
 23
-0.46
 33
0.63
  0
3DFACE
  5
68C
  8
TRACKS
 10
-0.6600000000000001
 20
-0.46
 30
0.63
 11
-0.6600000000000001
 21
-0.6500000000000004
 31
0.6700000000000002
 12
-0.94
 22
-0.6500000000000004
 32
0.6700000000000002
 13
-0.94
 23
-0.46
 33
0.63
  0
3DFACE
  5
68D
  8
TRACKS
 10
-0.94
 20
-0.6500000000000004
 30
0.6700000000000002
 11
-0.94
 21
-0.6500000000000004
 31
0.71
 12
-0.94
 22
-0.46
 32
0.6700000000000002
 13
-0.94
 23
-0.46
 33
0.63
  0
3DFACE
  5
68E
  8
TRACKS
 10
-0.6600000000000001
 20
-0.65
 30
0.6700000000000002
 11
-0.6600000000000001
 21
-0.65
 31
0.71
 12
-0.6600000000000001
 22
-0.84
 32
0.71
 13
-0.6600000000000001
 23
-0.84
 33
0.6700000000000002
  0
3DFACE
  5
68F
  8
TRACKS
 10
-0.94
 20
-0.84
 30
0.6700000000000002
 11
-0.94
 21
-0.65
 31
0.6700000000000002
 12
-0.6600000000000001
 22
-0.65
 32
0.6700000000000002
 13
-0.6600000000000001
 23
-0.84
 33
0.6700000000000002
  0
3DFACE
  5
690
  8
TRACKS
 10
-0.94
 20
-0.84
 30
0.71
 11
-0.94
 21
-0.65
 31
0.71
 12
-0.94
 22
-0.65
 32
0.6700000000000002
 13
-0.94
 23
-0.84
 33
0.6700000000000002
  0
3DFACE
  5
691
  8
TRACKS
 10
-0.6600000000000001
 20
-0.84
 30
0.71
 11
-0.6600000000000001
 21
-0.65
 31
0.71
 12
-0.94
 22
-0.65
 32
0.71
 13
-0.94
 23
-0.84
 33
0.71
  0
3DFACE
  5
692
  8
TRACKS
 10
-0.6600000000000001
 20
-0.84
 30
0.6700000000000002
 11
-0.6600000000000001
 21
-0.84
 31
0.71
 12
-0.6600000000000001
 22
-1.03
 32
0.6700000000000002
 13
-0.6600000000000001
 23
-1.03
 33
0.63
  0
3DFACE
  5
693
  8
TRACKS
 10
-0.94
 20
-1.03
 30
0.63
 11
-0.94
 21
-0.84
 31
0.6700000000000002
 12
-0.6600000000000001
 22
-0.84
 32
0.6700000000000002
 13
-0.6600000000000001
 23
-1.03
 33
0.63
  0
3DFACE
  5
694
  8
TRACKS
 10
-0.94
 20
-1.03
 30
0.6700000000000002
 11
-0.94
 21
-0.84
 31
0.71
 12
-0.94
 22
-0.84
 32
0.6700000000000002
 13
-0.94
 23
-1.03
 33
0.63
  0
3DFACE
  5
695
  8
TRACKS
 10
-0.6600000000000001
 20
-1.03
 30
0.6700000000000002
 11
-0.6600000000000001
 21
-0.84
 31
0.71
 12
-0.94
 22
-0.84
 32
0.71
 13
-0.94
 23
-1.03
 33
0.6700000000000002
  0
3DFACE
  5
696
  8
TRACKS
 10
-0.6600000000000001
 20
-1.03
 30
0.63
 11
-0.6600000000000001
 21
-1.03
 31
0.6700000000000002
 12
-0.6600000000000001
 22
-1.2199999999999991
 32
0.65
 13
-0.6600000000000001
 23
-1.2199999999999991
 33
0.61
  0
3DFACE
  5
697
  8
TRACKS
 10
-0.94
 20
-1.2199999999999991
 30
0.61
 11
-0.94
 21
-1.03
 31
0.63
 12
-0.6600000000000001
 22
-1.03
 32
0.63
 13
-0.6600000000000001
 23
-1.2199999999999991
 33
0.61
  0
3DFACE
  5
698
  8
TRACKS
 10
-0.94
 20
-1.2199999999999991
 30
0.65
 11
-0.94
 21
-1.03
 31
0.6700000000000002
 12
-0.94
 22
-1.03
 32
0.63
 13
-0.94
 23
-1.2199999999999991
 33
0.61
  0
3DFACE
  5
699
  8
TRACKS
 10
-0.6600000000000001
 20
-1.2199999999999991
 30
0.65
 11
-0.6600000000000001
 21
-1.03
 31
0.6700000000000002
 12
-0.94
 22
-1.03
 32
0.6700000000000002
 13
-0.94
 23
-1.2199999999999991
 33
0.65
  0
3DFACE
  5
69A
  8
TRACKS
 10
-0.6600000000000001
 20
-1.2199999999999991
 30
0.61
 11
-0.6600000000000001
 21
-1.2199999999999991
 31
0.65
 12
-0.6600000000000001
 22
-1.4699999999999991
 32
0.63
 13
-0.6600000000000001
 23
-1.45
 33
0.59
  0
3DFACE
  5
69B
  8
TRACKS
 10
-0.94
 20
-1.45
 30
0.59
 11
-0.94
 21
-1.2199999999999991
 31
0.61
 12
-0.6600000000000001
 22
-1.2199999999999991
 32
0.61
 13
-0.6600000000000001
 23
-1.45
 33
0.59
  0
3DFACE
  5
69C
  8
TRACKS
 10
-0.94
 20
-1.4699999999999991
 30
0.63
 11
-0.94
 21
-1.2199999999999991
 31
0.65
 12
-0.94
 22
-1.2199999999999991
 32
0.61
 13
-0.94
 23
-1.45
 33
0.59
  0
3DFACE
  5
69D
  8
TRACKS
 10
-0.6600000000000001
 20
-1.4699999999999991
 30
0.63
 11
-0.6600000000000001
 21
-1.2199999999999991
 31
0.65
 12
-0.94
 22
-1.2199999999999991
 32
0.65
 13
-0.94
 23
-1.4699999999999991
 33
0.63
  0
3DFACE
  5
69E
  8
TRACKS
 10
-0.6600000000000001
 20
-1.45
 30
0.59
 11
-0.6600000000000001
 21
-1.4699999999999991
 31
0.63
 12
-0.6600000000000001
 22
-1.7199999999999991
 32
0.63
 13
-0.6600000000000001
 23
-1.7199999999999991
 33
0.59
  0
3DFACE
  5
69F
  8
TRACKS
 10
-0.6600000000000001
 20
-1.7199999999999991
 30
0.63
 11
-0.6600000000000001
 21
-1.4699999999999991
 31
0.63
 12
-0.94
 22
-1.4699999999999991
 32
0.63
 13
-0.94
 23
-1.7199999999999991
 33
0.63
  0
3DFACE
  5
6A0
  8
TRACKS
 10
-0.94
 20
-1.7199999999999991
 30
0.63
 11
-0.94
 21
-1.4699999999999991
 31
0.63
 12
-0.94
 22
-1.45
 32
0.59
 13
-0.94
 23
-1.7199999999999991
 33
0.59
  0
3DFACE
  5
6A1
  8
TRACKS
 10
-0.94
 20
-1.7199999999999991
 30
0.59
 11
-0.94
 21
-1.45
 31
0.59
 12
-0.6600000000000001
 22
-1.45
 32
0.59
 13
-0.6600000000000001
 23
-1.7199999999999991
 33
0.59
  0
3DFACE
  5
6A2
  8
TRACKS
 10
-0.6600000000000001
 20
-1.7199999999999991
 30
0.59
 11
-0.6600000000000001
 21
-1.7199999999999991
 31
0.63
 12
-0.6600000000000001
 22
-1.99
 32
0.65
 13
-0.6600000000000001
 23
-1.99
 33
0.61
  0
3DFACE
  5
6A3
  8
TRACKS
 10
-0.6600000000000001
 20
-1.99
 30
0.65
 11
-0.6600000000000001
 21
-1.7199999999999991
 31
0.63
 12
-0.94
 22
-1.7199999999999991
 32
0.63
 13
-0.94
 23
-1.99
 33
0.65
  0
3DFACE
  5
6A4
  8
TRACKS
 10
-0.94
 20
-1.99
 30
0.65
 11
-0.94
 21
-1.7199999999999991
 31
0.63
 12
-0.94
 22
-1.7199999999999991
 32
0.59
 13
-0.94
 23
-1.99
 33
0.61
  0
3DFACE
  5
6A5
  8
TRACKS
 10
-0.94
 20
-1.99
 30
0.61
 11
-0.94
 21
-1.7199999999999991
 31
0.59
 12
-0.6600000000000001
 22
-1.7199999999999991
 32
0.59
 13
-0.6600000000000001
 23
-1.99
 33
0.61
  0
3DFACE
  5
6A6
  8
TRACKS
 10
-0.6600000000000001
 20
-1.99
 30
0.61
 11
-0.6600000000000001
 21
-1.99
 31
0.65
 12
-0.6600000000000001
 22
-2.2799999999999998
 32
0.65
 13
-0.6600000000000001
 23
-2.2799999999999998
 33
0.61
  0
3DFACE
  5
6A7
  8
TRACKS
 10
-0.6600000000000001
 20
-2.2799999999999998
 30
0.65
 11
-0.6600000000000001
 21
-1.99
 31
0.65
 12
-0.94
 22
-1.99
 32
0.65
 13
-0.94
 23
-2.2799999999999998
 33
0.65
  0
3DFACE
  5
6A8
  8
TRACKS
 10
-0.94
 20
-2.2799999999999998
 30
0.65
 11
-0.94
 21
-1.99
 31
0.65
 12
-0.94
 22
-1.99
 32
0.61
 13
-0.94
 23
-2.2799999999999998
 33
0.61
  0
3DFACE
  5
6A9
  8
TRACKS
 10
-0.94
 20
-2.2799999999999998
 30
0.61
 11
-0.94
 21
-1.99
 31
0.61
 12
-0.6600000000000001
 22
-1.99
 32
0.61
 13
-0.6600000000000001
 23
-2.2799999999999998
 33
0.61
  0
3DFACE
  5
6AA
  8
TRACKS
 10
-0.6600000000000001
 20
-2.4900000000000002
 30
0.7000000000000001
 11
-0.6600000000000001
 21
-2.2799999999999998
 31
0.65
 12
-0.94
 22
-2.2799999999999998
 32
0.65
 13
-0.94
 23
-2.4900000000000002
 33
0.7000000000000001
  0
3DFACE
  5
6AB
  8
TRACKS
 10
-0.6600000000000001
 20
-2.2799999999999998
 30
0.61
 11
-0.6600000000000001
 21
-2.2799999999999998
 31
0.65
 12
-0.6600000000000001
 22
-2.4900000000000002
 32
0.7000000000000001
 13
-0.6600000000000001
 23
-2.4900000000000002
 33
0.6600000000000001
  0
3DFACE
  5
6AC
  8
TRACKS
 10
-0.94
 20
-2.4900000000000002
 30
0.7000000000000001
 11
-0.94
 21
-2.2799999999999998
 31
0.65
 12
-0.94
 22
-2.2799999999999998
 32
0.61
 13
-0.94
 23
-2.4900000000000002
 33
0.6600000000000001
  0
3DFACE
  5
6AD
  8
TRACKS
 10
-0.94
 20
-2.4900000000000002
 30
0.6600000000000001
 11
-0.94
 21
-2.2799999999999998
 31
0.61
 12
-0.6600000000000001
 22
-2.2799999999999998
 32
0.61
 13
-0.6600000000000001
 23
-2.4900000000000002
 33
0.6600000000000001
  0
3DFACE
  5
6AE
  8
TRACKS
 10
-0.6600000000000001
 20
-2.4900000000000002
 30
0.6600000000000001
 11
-0.6600000000000001
 21
-2.4900000000000002
 31
0.7000000000000001
 12
-0.6600000000000001
 22
-2.6800000000000002
 32
0.7700000000000001
 13
-0.6600000000000001
 23
-2.6800000000000002
 33
0.73
  0
3DFACE
  5
6AF
  8
TRACKS
 10
-0.6600000000000001
 20
-2.6800000000000002
 30
0.7700000000000001
 11
-0.6600000000000001
 21
-2.4900000000000002
 31
0.7000000000000001
 12
-0.94
 22
-2.4900000000000002
 32
0.7000000000000001
 13
-0.94
 23
-2.6800000000000002
 33
0.7700000000000001
  0
3DFACE
  5
6B0
  8
TRACKS
 10
-0.94
 20
-2.6800000000000002
 30
0.7700000000000001
 11
-0.94
 21
-2.4900000000000002
 31
0.7000000000000001
 12
-0.94
 22
-2.4900000000000002
 32
0.6600000000000001
 13
-0.94
 23
-2.6800000000000002
 33
0.73
  0
3DFACE
  5
6B1
  8
TRACKS
 10
-0.94
 20
-2.6800000000000002
 30
0.73
 11
-0.94
 21
-2.4900000000000002
 31
0.6600000000000001
 12
-0.6600000000000001
 22
-2.4900000000000002
 32
0.6600000000000001
 13
-0.6600000000000001
 23
-2.6800000000000002
 33
0.73
  0
3DFACE
  5
6B2
  8
TRACKS
 10
-0.6600000000000001
 20
-2.6800000000000002
 30
0.73
 11
-0.6600000000000001
 21
-2.6800000000000002
 31
0.7700000000000001
 12
-0.6600000000000001
 22
-2.8700000000000001
 32
0.6900000000000001
 13
-0.6600000000000001
 23
-2.839999999999999
 33
0.6600000000000001
  0
3DFACE
  5
6B3
  8
TRACKS
 10
-0.6600000000000001
 20
-2.8700000000000001
 30
0.6900000000000001
 11
-0.6600000000000001
 21
-2.6800000000000002
 31
0.7700000000000001
 12
-0.94
 22
-2.6800000000000002
 32
0.7700000000000001
 13
-0.94
 23
-2.8700000000000001
 33
0.6900000000000001
  0
3DFACE
  5
6B4
  8
TRACKS
 10
-0.94
 20
-2.8700000000000001
 30
0.6900000000000001
 11
-0.94
 21
-2.6800000000000002
 31
0.7700000000000001
 12
-0.94
 22
-2.6800000000000002
 32
0.73
 13
-0.94
 23
-2.839999999999999
 33
0.6600000000000001
  0
3DFACE
  5
6B5
  8
TRACKS
 10
-0.94
 20
-2.839999999999999
 30
0.6600000000000001
 11
-0.94
 21
-2.6800000000000002
 31
0.73
 12
-0.6600000000000001
 22
-2.6800000000000002
 32
0.73
 13
-0.6600000000000001
 23
-2.839999999999999
 33
0.6600000000000001
  0
3DFACE
  5
6B6
  8
TRACKS
 10
-0.6599999999999998
 20
1.1899999999999999
 30
0.7700000000000001
 11
-0.66
 21
0.9200000000000002
 31
0.71
 12
-0.66
 22
0.9200000000000002
 32
0.6700000000000002
 13
-0.6599999999999998
 23
1.1899999999999999
 33
0.73
  0
3DFACE
  5
6B7
  8
TRACKS
 10
-0.66
 20
0.9200000000000002
 30
0.71
 11
-0.66
 21
0.63
 31
0.65
 12
-0.66
 22
0.63
 32
0.61
 13
-0.66
 23
0.9200000000000002
 33
0.6700000000000002
  0
3DFACE
  5
6B8
  8
TRACKS
 10
-0.6599999999999998
 20
1.1899999999999999
 30
0.73
 11
-0.66
 21
0.9200000000000002
 31
0.6700000000000002
 12
-0.9399999999999998
 22
0.9200000000000002
 32
0.6700000000000002
 13
-0.9399999999999998
 23
1.1899999999999999
 33
0.73
  0
3DFACE
  5
6B9
  8
TRACKS
 10
-0.66
 20
0.9200000000000002
 30
0.6700000000000002
 11
-0.66
 21
0.63
 31
0.61
 12
-0.9399999999999998
 22
0.63
 32
0.61
 13
-0.9399999999999998
 23
0.9200000000000002
 33
0.6700000000000002
  0
3DFACE
  5
6BA
  8
TRACKS
 10
-0.9399999999999998
 20
0.9200000000000002
 30
0.6700000000000002
 11
-0.9399999999999998
 21
0.9200000000000002
 31
0.71
 12
-0.9399999999999998
 22
1.1899999999999999
 32
0.7700000000000001
 13
-0.9399999999999998
 23
1.1899999999999999
 33
0.73
  0
3DFACE
  5
6BB
  8
TRACKS
 10
-0.9399999999999998
 20
0.63
 30
0.61
 11
-0.9399999999999998
 21
0.63
 31
0.65
 12
-0.9399999999999998
 22
0.9200000000000002
 32
0.71
 13
-0.9399999999999998
 23
0.9200000000000002
 33
0.6700000000000002
  0
3DFACE
  5
6BC
  8
TRACKS
 10
-0.9399999999999998
 20
1.1899999999999999
 30
0.7700000000000001
 11
-0.9399999999999998
 21
0.9200000000000002
 31
0.71
 12
-0.66
 22
0.9200000000000002
 32
0.71
 13
-0.6599999999999998
 23
1.1899999999999999
 33
0.7700000000000001
  0
3DFACE
  5
6BD
  8
TRACKS
 10
-0.9399999999999998
 20
0.9200000000000002
 30
0.71
 11
-0.9399999999999998
 21
0.63
 31
0.65
 12
-0.66
 22
0.63
 32
0.65
 13
-0.66
 23
0.9200000000000002
 33
0.71
  0
3DFACE
  5
6BE
  8
TRACKS
 10
-0.66
 20
0.63
 30
0.65
 11
-0.66
 21
0.4999999999999992
 31
0.65
 12
-0.66
 22
0.4999999999999992
 32
0.61
 13
-0.66
 23
0.63
 33
0.61
  0
3DFACE
  5
6BF
  8
TRACKS
 10
-0.66
 20
0.63
 30
0.61
 11
-0.66
 21
0.4999999999999992
 31
0.61
 12
-0.9399999999999998
 22
0.4999999999999992
 32
0.61
 13
-0.9399999999999998
 23
0.63
 33
0.61
  0
3DFACE
  5
6C0
  8
TRACKS
 10
-0.9399999999999998
 20
0.4999999999999992
 30
0.61
 11
-0.9399999999999998
 21
0.4999999999999992
 31
0.65
 12
-0.9399999999999998
 22
0.63
 32
0.65
 13
-0.9399999999999998
 23
0.63
 33
0.61
  0
3DFACE
  5
6C1
  8
TRACKS
 10
-0.9399999999999998
 20
0.63
 30
0.65
 11
-0.9399999999999998
 21
0.4999999999999992
 31
0.65
 12
-0.66
 22
0.4999999999999992
 32
0.65
 13
-0.66
 23
0.63
 33
0.65
  0
3DFACE
  5
6C2
  8
TRACKS
 10
-0.6599999999999998
 20
1.3500000000000001
 30
0.6600000000000001
 11
-0.6599999999999998
 21
1.1899999999999999
 31
0.73
 12
-0.9399999999999998
 22
1.1899999999999999
 32
0.73
 13
-0.9399999999999998
 23
1.3500000000000001
 33
0.6600000000000001
  0
3DFACE
  5
6C3
  8
TRACKS
 10
-0.6599999999999998
 20
1.379999999999999
 30
0.69
 11
-0.6599999999999998
 21
1.1899999999999999
 31
0.7700000000000001
 12
-0.6599999999999998
 22
1.1899999999999999
 32
0.73
 13
-0.6599999999999998
 23
1.3500000000000001
 33
0.6600000000000001
  0
3DFACE
  5
6C4
  8
TRACKS
 10
-0.9399999999999998
 20
1.379999999999999
 30
0.69
 11
-0.9399999999999998
 21
1.1899999999999999
 31
0.7700000000000001
 12
-0.6599999999999998
 22
1.1899999999999999
 32
0.7700000000000001
 13
-0.6599999999999998
 23
1.379999999999999
 33
0.69
  0
3DFACE
  5
6C5
  8
TRACKS
 10
-0.9399999999999998
 20
1.1899999999999999
 30
0.73
 11
-0.9399999999999998
 21
1.1899999999999999
 31
0.7700000000000001
 12
-0.9399999999999998
 22
1.379999999999999
 32
0.69
 13
-0.9399999999999998
 23
1.3500000000000001
 33
0.6600000000000001
  0
3DFACE
  5
6C6
  8
TRACKS
 10
-0.66
 20
0.4999999999999992
 30
0.61
 11
-0.66
 21
0.2299999999999995
 31
0.59
 12
-0.9399999999999998
 22
0.2299999999999995
 32
0.59
 13
-0.9399999999999998
 23
0.4999999999999992
 33
0.61
  0
3DFACE
  5
6C7
  8
TRACKS
 10
-0.66
 20
0.4999999999999992
 30
0.65
 11
-0.66
 21
0.2299999999999995
 31
0.63
 12
-0.66
 22
0.2299999999999995
 32
0.59
 13
-0.66
 23
0.4999999999999992
 33
0.61
  0
3DFACE
  5
6C8
  8
TRACKS
 10
-0.9399999999999998
 20
0.4999999999999992
 30
0.65
 11
-0.9399999999999998
 21
0.2299999999999995
 31
0.63
 12
-0.66
 22
0.2299999999999995
 32
0.63
 13
-0.66
 23
0.4999999999999992
 33
0.65
  0
3DFACE
  5
6C9
  8
TRACKS
 10
-0.9399999999999998
 20
0.2299999999999995
 30
0.59
 11
-0.9399999999999998
 21
0.2299999999999995
 31
0.63
 12
-0.9399999999999998
 22
0.4999999999999992
 32
0.65
 13
-0.9399999999999998
 23
0.4999999999999992
 33
0.61
  0
VIEWPORT
  5
2E
 67
     1
  8
0
 10
144.7270812988281
 20
101.2295806407928
 30
0.0
 40
391.13550988316581
 41
222.15178063964839
 68
     2
 69
     1
1001
ACAD
1000
MVIEW
1002
{
1070
    16
1010
0.0
1020
0.0
1030
0.0
1010
0.0
1020
0.0
1030
1.0
1040
0.0
1040
222.15178063964839
1040
144.7270812988281
1040
101.2295806407928
1040
50.0
1040
0.0
1040
0.0
1070
     0
1070
   100
1070
     1
1070
     1
1070
     0
1070
     0
1070
     0
1070
     0
1040
0.0
1040
0.0
1040
0.0
1040
10.0
1040
10.0
1040
10.0
1040
10.0
1070
     0
1002
{
1002
}
1002
}
  0
VIEWPORT
  5
30
 67
     1
  8
0
 10
139.22375631332389
 20
100.8062499761581
 30
0.0
 40
222.75801010131829
 41
161.289999961853
 68
     1
 69
     2
1001
ACAD
1000
MVIEW
1002
{
1070
    16
1010
0.0
1020
0.0
1030
0.0
1010
0.0
1020
0.0
1030
1.0
1040
0.0
1040
307.49010134148989
1040
210.0
1040
148.5
1040
50.0
1040
0.0
1040
0.0
1070
     0
1070
   100
1070
     1
1070
     3
1070
     0
1070
     1
1070
     0
1070
     0
1040
0.0
1040
0.0
1040
0.0
1040
10.0
1040
10.0
1040
10.0
1040
10.0
1070
     0
1002
{
1002
}
1002
}
  0
ENDSEC
  0
EOF
