  0
SECTION
  2
HEADER
  9
$ACADVER
  1
AC1009
  9
$INSBASE
 10
0.0
 20
0.0
 30
0.0
  9
$EXTMIN
 10
-3.2400000000000011
 20
-35.670000000000002
 30
-26.079999999999998
  9
$EXTMAX
 10
17.370000000000001
 20
52.850000000000001
 30
55.082233853006692
  9
$LIMMIN
 10
0.0
 20
0.0
  9
$LIMMAX
 10
420.0
 20
297.0
  9
$ORTHOMODE
 70
     1
  9
$REGENMODE
 70
     1
  9
$FILLMODE
 70
     1
  9
$QTEXTMODE
 70
     0
  9
$MIRRTEXT
 70
     1
  9
$DRAGMODE
 70
     2
  9
$LTSCALE
 40
1.0
  9
$OSMODE
 70
   551
  9
$ATTMODE
 70
     1
  9
$TEXTSIZE
 40
2.5
  9
$TRACEWID
 40
1.0
  9
$TEXTSTYLE
  7
STANDARD
  9
$CLAYER
  8
TURRET
  9
$CELTYPE
  6
BYLAYER
  9
$CECOLOR
 62
   256
  9
$DIMSCALE
 40
1.0
  9
$DIMASZ
 40
2.5
  9
$DIMEXO
 40
0.625
  9
$DIMDLI
 40
3.75
  9
$DIMRND
 40
0.0
  9
$DIMDLE
 40
0.0
  9
$DIMEXE
 40
1.25
  9
$DIMTP
 40
0.0
  9
$DIMTM
 40
0.0
  9
$DIMTXT
 40
2.5
  9
$DIMCEN
 40
2.5
  9
$DIMTSZ
 40
0.0
  9
$DIMTOL
 70
     0
  9
$DIMLIM
 70
     0
  9
$DIMTIH
 70
     0
  9
$DIMTOH
 70
     0
  9
$DIMSE1
 70
     0
  9
$DIMSE2
 70
     0
  9
$DIMTAD
 70
     1
  9
$DIMZIN
 70
     8
  9
$DIMBLK
  1

  9
$DIMASO
 70
     1
  9
$DIMSHO
 70
     1
  9
$DIMPOST
  1

  9
$DIMAPOST
  1

  9
$DIMALT
 70
     0
  9
$DIMALTD
 70
     3
  9
$DIMALTF
 40
0.03937007874016
  9
$DIMLFAC
 40
1.0
  9
$DIMTOFL
 70
     1
  9
$DIMTVP
 40
0.0
  9
$DIMTIX
 70
     0
  9
$DIMSOXD
 70
     0
  9
$DIMSAH
 70
     0
  9
$DIMBLK1
  1

  9
$DIMBLK2
  1

  9
$DIMSTYLE
  2
ISO-25
  9
$DIMCLRD
 70
     0
  9
$DIMCLRE
 70
     0
  9
$DIMCLRT
 70
     0
  9
$DIMTFAC
 40
1.0
  9
$DIMGAP
 40
0.625
  9
$LUNITS
 70
     2
  9
$LUPREC
 70
     4
  9
$SKETCHINC
 40
1.0
  9
$FILLETRAD
 40
10.0
  9
$AUNITS
 70
     0
  9
$AUPREC
 70
     0
  9
$MENU
  1
.
  9
$ELEVATION
 40
0.0
  9
$PELEVATION
 40
0.0
  9
$THICKNESS
 40
0.0
  9
$LIMCHECK
 70
     0
  9
$BLIPMODE
 70
     0
  9
$CHAMFERA
 40
10.0
  9
$CHAMFERB
 40
10.0
  9
$SKPOLY
 70
     0
  9
$TDCREATE
 40
2454661.6936312732
  9
$TDUPDATE
 40
2454665.7843839228
  9
$TDINDWG
 40
0.6377108681
  9
$TDUSRTIMER
 40
0.6377108681
  9
$USRTIMER
 70
     1
  9
$ANGBASE
 50
0.0
  9
$ANGDIR
 70
     0
  9
$PDMODE
 70
     0
  9
$PDSIZE
 40
0.0
  9
$PLINEWID
 40
0.0
  9
$COORDS
 70
     1
  9
$SPLFRAME
 70
     0
  9
$SPLINETYPE
 70
     6
  9
$SPLINESEGS
 70
     8
  9
$ATTDIA
 70
     1
  9
$ATTREQ
 70
     1
  9
$HANDLING
 70
-16383
  9
$HANDSEED
  5
122E
  9
$SURFTAB1
 70
     6
  9
$SURFTAB2
 70
     6
  9
$SURFTYPE
 70
     6
  9
$SURFU
 70
     6
  9
$SURFV
 70
     6
  9
$UCSNAME
  2

  9
$UCSORG
 10
0.0
 20
0.0
 30
0.0
  9
$UCSXDIR
 10
0.0
 20
-1.0
 30
0.0
  9
$UCSYDIR
 10
0.0
 20
0.0
 30
1.0
  9
$PUCSNAME
  2

  9
$PUCSORG
 10
0.0
 20
0.0
 30
0.0
  9
$PUCSXDIR
 10
1.0
 20
0.0
 30
0.0
  9
$PUCSYDIR
 10
0.0
 20
1.0
 30
0.0
  9
$USERI1
 70
     0
  9
$USERI2
 70
     0
  9
$USERI3
 70
     0
  9
$USERI4
 70
     0
  9
$USERI5
 70
     0
  9
$USERR1
 40
0.0
  9
$USERR2
 40
0.0
  9
$USERR3
 40
0.0
  9
$USERR4
 40
0.0
  9
$USERR5
 40
0.0
  9
$WORLDVIEW
 70
     1
  9
$SHADEDGE
 70
     3
  9
$SHADEDIF
 70
    70
  9
$TILEMODE
 70
     1
  9
$MAXACTVP
 70
    64
  9
$PLIMCHECK
 70
     0
  9
$PEXTMIN
 10
27.844751262664801
 20
20.161249995231621
 30
0.0
  9
$PEXTMAX
 10
250.60276136398309
 20
181.4512499570846
 30
0.0
  9
$PLIMMIN
 10
-3.757080078125
 20
-3.7570831775665279
  9
$PLIMMAX
 10
293.21124267578119
 20
206.21624445915219
  9
$UNITMODE
 70
     0
  9
$VISRETAIN
 70
     1
  9
$PLINEGEN
 70
     0
  9
$PSLTSCALE
 70
     1
  0
ENDSEC
  0
SECTION
  2
TABLES
  0
TABLE
  2
VPORT
 70
    15
  0
VPORT
  2
*ACTIVE
 70
     0
 10
0.0
 20
0.0
 11
1.0
 21
1.0
 12
0.6876258556927613
 22
0.718184029636177
 13
0.0
 23
0.0
 14
0.01
 24
0.01
 15
1.0
 25
1.0
 16
-1.0
 26
0.0
 36
0.0
 17
0.0
 27
0.0
 37
0.0
 40
4.3388452032339719
 41
1.7606679035250461
 42
50.0
 43
0.0
 44
0.0
 50
0.0
 51
0.0
 71
     0
 72
   100
 73
     1
 74
     3
 75
     1
 76
     1
 77
     0
 78
     0
  0
ENDTAB
  0
TABLE
  2
LTYPE
 70
     1
  0
LTYPE
  2
CONTINUOUS
 70
     0
  3
Solid line
 72
    65
 73
     0
 40
0.0
  0
ENDTAB
  0
TABLE
  2
LAYER
 70
     8
  0
LAYER
  2
0
 70
     0
 62
     7
  6
CONTINUOUS
  0
LAYER
  2
DRAWING
 70
     0
 62
     9
  6
CONTINUOUS
  0
LAYER
  2
HULL2
 70
     0
 62
     7
  6
CONTINUOUS
  0
LAYER
  2
TURRET
 70
     4
 62
     2
  6
CONTINUOUS
  0
LAYER
  2
SLEEVE
 70
     0
 62
     5
  6
CONTINUOUS
  0
LAYER
  2
BARREL
 70
     0
 62
     1
  6
CONTINUOUS
  0
LAYER
  2
MOUNT
 70
     0
 62
     5
  6
CONTINUOUS
  0
ENDTAB
  0
TABLE
  2
STYLE
 70
     1
  0
STYLE
  2
STANDARD
 70
     0
 40
0.0
 41
1.0
 50
0.0
 71
     0
 42
2.5
  3
txt
  4

  0
ENDTAB
  0
TABLE
  2
VIEW
 70
     0
  0
ENDTAB
  0
TABLE
  2
UCS
 70
     0
  0
ENDTAB
  0
TABLE
  2
APPID
 70
     1
  0
APPID
  2
ACAD
 70
     0
  0
ENDTAB
  0
TABLE
  2
DIMSTYLE
 70
     1
  0
DIMSTYLE
  2
ISO-25
 70
     0
  3

  4

  5

  6

  7

 40
1.0
 41
2.5
 42
0.625
 43
3.75
 44
1.25
 45
0.0
 46
0.0
 47
0.0
 48
0.0
140
2.5
141
2.5
142
0.0
143
0.03937007874016
144
1.0
145
0.0
146
1.0
147
0.625
 71
     0
 72
     0
 73
     0
 74
     0
 75
     0
 76
     0
 77
     1
 78
     8
170
     0
171
     3
172
     1
173
     0
174
     0
175
     0
176
     0
177
     0
178
     0
  0
ENDTAB
  0
ENDSEC
  0
SECTION
  2
BLOCKS
  0
BLOCK
  8
0
  2
$MODEL_SPACE
 70
     0
 10
0.0
 20
0.0
 30
0.0
  3
$MODEL_SPACE
  1

  0
ENDBLK
  5
21
  8
0
  0
BLOCK
 67
     1
  8
0
  2
$PAPER_SPACE
 70
     0
 10
0.0
 20
0.0
 30
0.0
  3
$PAPER_SPACE
  1

  0
ENDBLK
  5
1D
 67
     1
  8
0
  0
ENDSEC
  0
SECTION
  2
ENTITIES
  0
3DFACE
  5
80D
  8
TURRET
 10
1.070000000000001
 20
0.7499999999999947
 30
0.8099999999999996
 11
1.070000000000001
 21
0.7499999999999947
 31
0.1499999999999977
 12
0.1200000000000006
 22
0.7499999999999947
 32
0.1499999999999977
 13
0.1200000000000006
 23
0.7499999999999947
 33
0.8099999999999996
  0
3DFACE
  5
80E
  8
TURRET
 10
-0.1699999999999998
 20
-0.4900000000000003
 30
0.71
 11
-0.1699999999999999
 21
-0.7299999999999951
 31
0.3199999999999994
 12
-0.1199999999999991
 22
-0.7299999999999951
 32
0.3199999999999994
 13
-0.119999999999999
 23
-0.4900000000000003
 33
0.71
  0
3DFACE
  5
80F
  8
TURRET
 10
-0.1199999999999991
 20
-0.7299999999999951
 30
0.3199999999999994
 11
-0.119999999999999
 21
-0.6100000000000048
 31
0.2799999999999985
 12
-0.1199999999999989
 22
-0.1600000000000019
 32
0.5400000000000002
 13
-0.119999999999999
 23
-0.4900000000000003
 33
0.71
  0
3DFACE
  5
810
  8
TURRET
 10
-0.1199999999999989
 20
-0.1600000000000019
 30
0.5400000000000002
 11
-0.119999999999999
 21
-0.6100000000000048
 31
0.2799999999999985
 12
-0.1699999999999999
 22
-0.6100000000000048
 32
0.2799999999999985
 13
-0.1699999999999997
 23
-0.1600000000000019
 33
0.5400000000000002
  0
3DFACE
  5
811
  8
TURRET
 10
-0.1699999999999997
 20
-0.1600000000000019
 30
0.5400000000000002
 11
-0.1699999999999999
 21
-0.6100000000000048
 31
0.2799999999999985
 12
-0.1699999999999999
 22
-0.7299999999999951
 32
0.3199999999999994
 13
-0.1699999999999998
 23
-0.4900000000000003
 33
0.71
  0
3DFACE
  5
812
  8
TURRET
 10
1.080000000000001
 20
-0.4800000000000093
 30
1.079999999999999
 11
1.080000000000001
 21
-0.4800000000000093
 31
0.1499999999999977
 12
1.070000000000001
 22
-0.0900000000000088
 32
0.1499999999999977
 13
1.070000000000001
 23
-0.0900000000000088
 33
1.079999999999999
  0
3DFACE
  5
813
  8
TURRET
 10
1.0900000000000001
 20
-0.7800000000000065
 30
1.079999999999999
 11
1.0900000000000001
 21
-0.7800000000000065
 31
0.1499999999999977
 12
1.080000000000001
 22
-0.4800000000000093
 32
0.1499999999999977
 13
1.080000000000001
 23
-0.4800000000000093
 33
1.079999999999999
  0
3DFACE
  5
814
  8
TURRET
 10
0.1200000000000002
 20
-0.7800000000000065
 30
1.079999999999999
 11
0.1200000000000002
 21
-0.7800000000000065
 31
0.1499999999999977
 12
1.0900000000000001
 22
-0.7800000000000065
 32
0.1499999999999977
 13
1.0900000000000001
 23
-0.7800000000000065
 33
1.079999999999999
  0
3DFACE
  5
815
  8
TURRET
 10
0.1200000000000003
 20
-0.4800000000000093
 30
0.1499999999999977
 11
0.1200000000000002
 21
-0.7800000000000065
 31
0.1499999999999977
 12
0.1200000000000002
 22
-0.7800000000000065
 32
1.079999999999999
 13
0.1200000000000003
 23
-0.4800000000000093
 33
1.079999999999999
  0
3DFACE
  5
816
  8
TURRET
 10
0.1200000000000003
 20
-0.0900000000000088
 30
0.1499999999999977
 11
0.1200000000000003
 21
-0.4800000000000093
 31
0.1499999999999977
 12
0.1200000000000003
 22
-0.4800000000000093
 32
1.079999999999999
 13
0.1200000000000003
 23
-0.0900000000000088
 33
1.079999999999999
  0
3DFACE
  5
817
  8
TURRET
 10
1.070000000000001
 20
-0.0900000000000088
 30
1.079999999999999
 11
1.070000000000001
 21
-0.0900000000000088
 31
0.1499999999999977
 12
1.070000000000001
 22
0.7499999999999947
 32
0.1499999999999977
 13
1.070000000000001
 23
0.7499999999999947
 33
0.8099999999999996
  0
3DFACE
  5
818
  8
TURRET
 10
0.1200000000000006
 20
0.7499999999999947
 30
0.1499999999999977
 11
0.1200000000000003
 21
-0.0900000000000088
 31
0.1499999999999977
 12
0.1200000000000003
 22
-0.0900000000000088
 32
1.079999999999999
 13
0.1200000000000006
 23
0.7499999999999947
 33
0.8099999999999996
  0
3DFACE
  5
819
  8
TURRET
 10
0.3000000000000013
 20
0.5196152422706551
 30
-0.0000000000000009
 11
-0.2999999999999986
 21
0.5196152422706551
 31
-0.0000000000000009
 12
-0.2999999999999986
 22
0.5196152422706551
 32
0.1499999999999995
 13
0.3000000000000013
 23
0.5196152422706551
 33
0.1499999999999995
  0
3DFACE
  5
81A
  8
TURRET
 10
-0.1699999999999999
 20
-0.6100000000000048
 30
0.2799999999999985
 11
-0.1699999999999999
 21
-0.6200000000000099
 31
0.1499999999999995
 12
-0.1699999999999999
 22
-0.7700000000000014
 32
-0.0000000000000009
 13
-0.1699999999999999
 23
-0.7299999999999951
 33
0.3199999999999994
  0
3DFACE
  5
81B
  8
TURRET
 10
-0.1699999999999999
 20
-0.7299999999999951
 30
0.3199999999999994
 11
-0.1699999999999999
 21
-0.7700000000000014
 31
-0.0000000000000009
 12
-0.1199999999999991
 22
-0.7700000000000014
 32
-0.0000000000000009
 13
-0.1199999999999991
 23
-0.7299999999999951
 33
0.3199999999999994
  0
3DFACE
  5
81C
  8
TURRET
 10
-0.1199999999999991
 20
-0.7700000000000014
 30
-0.0000000000000009
 11
-0.1199999999999991
 21
-0.6200000000000099
 31
0.1499999999999995
 12
-0.119999999999999
 22
-0.6100000000000048
 32
0.2799999999999985
 13
-0.1199999999999991
 23
-0.7299999999999951
 33
0.3199999999999994
  0
3DFACE
  5
81D
  8
TURRET
 10
-0.1699999999999998
 20
-0.5200000000000014
 30
-0.0000000000000009
 11
-0.1699999999999999
 21
-0.7700000000000014
 31
-0.0000000000000009
 12
-0.1699999999999999
 22
-0.6200000000000099
 32
0.1499999999999995
 13
-0.1699999999999998
 23
-0.5200000000000014
 33
0.1499999999999995
  0
3DFACE
  5
81E
  8
TURRET
 10
-0.119999999999999
 20
-0.5200000000000014
 30
-0.0000000000000009
 11
-0.1199999999999991
 21
-0.7700000000000014
 31
-0.0000000000000009
 12
-0.1699999999999999
 22
-0.7700000000000014
 32
-0.0000000000000009
 13
-0.1699999999999998
 23
-0.5200000000000014
 33
-0.0000000000000009
  0
3DFACE
  5
81F
  8
TURRET
 10
-0.1199999999999991
 20
-0.6200000000000099
 30
0.1499999999999995
 11
-0.1199999999999991
 21
-0.7700000000000014
 31
-0.0000000000000009
 12
-0.119999999999999
 22
-0.5200000000000014
 32
-0.0000000000000009
 13
-0.119999999999999
 23
-0.5200000000000014
 33
0.1499999999999995
  0
3DFACE
  5
820
  8
TURRET
 10
-0.1699999999999998
 20
-0.5200000000000014
 30
0.1499999999999995
 11
-0.1699999999999999
 21
-0.6200000000000099
 31
0.1499999999999995
 12
-0.1199999999999991
 22
-0.6200000000000099
 32
0.1499999999999995
 13
-0.119999999999999
 23
-0.5200000000000014
 33
0.1499999999999995
  0
3DFACE
  5
821
  8
TURRET
 10
-0.119999999999999
 20
-0.6100000000000048
 30
0.2799999999999985
 11
-0.119999999999999
 21
-0.6200000000000099
 31
0.1499999999999995
 12
-0.1699999999999999
 22
-0.6200000000000099
 32
0.1499999999999995
 13
-0.1699999999999999
 23
-0.6100000000000048
 33
0.2799999999999985
  0
3DFACE
  5
822
  8
TURRET
 10
1.070000000000001
 20
-0.0900000000000088
 30
0.1499999999999977
 11
1.080000000000001
 21
-0.4800000000000093
 31
0.1499999999999977
 12
0.1200000000000003
 22
-0.4800000000000093
 32
0.1499999999999977
 13
0.1200000000000003
 23
-0.0900000000000088
 33
0.1499999999999977
  0
3DFACE
  5
823
  8
TURRET
 10
1.080000000000001
 20
-0.4800000000000093
 30
0.1499999999999977
 11
1.0900000000000001
 21
-0.7800000000000065
 31
0.1499999999999977
 12
0.1200000000000002
 22
-0.7800000000000065
 32
0.1499999999999977
 13
0.1200000000000003
 23
-0.4800000000000093
 33
0.1499999999999977
  0
3DFACE
  5
824
  8
TURRET
 10
-0.2999999999999992
 20
-0.5196152422706657
 30
0.1499999999999995
 11
0.3000000000000007
 21
-0.5196152422706657
 31
0.1499999999999995
 12
0.6000000000000011
 22
-0.0000000000000053
 32
0.1499999999999995
 13
-0.5999999999999989
 23
-0.0000000000000053
 33
0.1499999999999995
  0
3DFACE
  5
825
  8
TURRET
 10
-0.5999999999999989
 20
-0.0000000000000053
 30
-0.0000000000000009
 11
0.6000000000000011
 21
-0.0000000000000053
 31
-0.0000000000000009
 12
0.3000000000000006
 22
-0.5196152422706657
 32
-0.0000000000000009
 13
-0.2999999999999993
 23
-0.5196152422706657
 33
-0.0000000000000009
  0
3DFACE
  5
826
  8
TURRET
 10
0.3000000000000006
 20
-0.5196152422706657
 30
-0.0000000000000009
 11
0.6000000000000011
 21
-0.0000000000000053
 31
-0.0000000000000009
 12
0.6000000000000011
 22
-0.0000000000000053
 32
0.1499999999999995
 13
0.3000000000000006
 23
-0.5196152422706657
 33
0.1499999999999995
  0
3DFACE
  5
827
  8
TURRET
 10
-0.2999999999999992
 20
-0.5196152422706657
 30
-0.0000000000000009
 11
0.3000000000000006
 21
-0.5196152422706657
 31
-0.0000000000000009
 12
0.3000000000000006
 22
-0.5196152422706657
 32
0.1499999999999995
 13
-0.2999999999999992
 23
-0.5196152422706657
 33
0.1499999999999995
  0
3DFACE
  5
828
  8
TURRET
 10
-0.5999999999999989
 20
-0.0000000000000053
 30
-0.0000000000000009
 11
-0.2999999999999992
 21
-0.5196152422706657
 31
-0.0000000000000009
 12
-0.2999999999999992
 22
-0.5196152422706657
 32
0.1499999999999995
 13
-0.5999999999999989
 23
-0.0000000000000053
 33
0.1499999999999995
  0
3DFACE
  5
829
  8
TURRET
 10
1.070000000000001
 20
0.7499999999999947
 30
0.1499999999999977
 11
1.070000000000001
 21
-0.0900000000000088
 31
0.1499999999999977
 12
0.1200000000000003
 22
-0.0900000000000088
 32
0.1499999999999977
 13
0.1200000000000006
 23
0.7499999999999947
 33
0.1499999999999977
  0
3DFACE
  5
82A
  8
TURRET
 10
-0.5999999999999989
 20
-0.0000000000000053
 30
0.1499999999999995
 11
0.6000000000000011
 21
-0.0000000000000053
 31
0.1499999999999995
 12
0.3000000000000014
 22
0.5196152422706551
 32
0.1499999999999995
 13
-0.2999999999999987
 23
0.5196152422706551
 33
0.1499999999999995
  0
3DFACE
  5
82B
  8
TURRET
 10
-0.2999999999999983
 20
0.5196152422706551
 30
-0.0000000000000009
 11
0.3000000000000016
 21
0.5196152422706551
 31
-0.0000000000000009
 12
0.6000000000000011
 22
-0.0000000000000053
 32
-0.0000000000000009
 13
-0.5999999999999989
 23
-0.0000000000000053
 33
-0.0000000000000009
  0
3DFACE
  5
82C
  8
TURRET
 10
-0.2999999999999986
 20
0.5196152422706551
 30
-0.0000000000000009
 11
-0.5999999999999989
 21
-0.0000000000000053
 31
-0.0000000000000009
 12
-0.5999999999999989
 22
-0.0000000000000053
 32
0.1499999999999995
 13
-0.2999999999999986
 23
0.5196152422706551
 33
0.1499999999999995
  0
3DFACE
  5
82D
  8
TURRET
 10
0.6000000000000011
 20
-0.0000000000000053
 30
-0.0000000000000009
 11
0.3000000000000013
 21
0.5196152422706551
 31
-0.0000000000000009
 12
0.3000000000000013
 22
0.5196152422706551
 32
0.1499999999999995
 13
0.6000000000000011
 23
-0.0000000000000053
 33
0.1499999999999995
  0
3DFACE
  5
864
  8
TURRET
 10
-0.119999999999999
 20
-0.4900000000000003
 30
0.71
 11
-0.1199999999999989
 21
-0.1600000000000019
 31
0.5400000000000002
 12
-0.1199999999999988
 22
-0.0399999999999974
 32
0.6799999999999989
 13
-0.1199999999999989
 23
-0.1999999999999939
 33
0.7699999999999987
  0
3DFACE
  5
865
  8
TURRET
 10
-0.1199999999999989
 20
-0.1999999999999939
 30
0.7699999999999987
 11
-0.1199999999999988
 21
-0.0399999999999974
 31
0.6799999999999989
 12
-0.1699999999999997
 22
-0.0399999999999974
 32
0.6799999999999989
 13
-0.1699999999999997
 23
-0.1999999999999939
 33
0.7699999999999987
  0
3DFACE
  5
866
  8
TURRET
 10
-0.1699999999999997
 20
-0.1999999999999939
 30
0.7699999999999987
 11
-0.1699999999999998
 21
-0.4900000000000003
 31
0.71
 12
-0.119999999999999
 22
-0.4900000000000003
 32
0.71
 13
-0.1199999999999989
 23
-0.1999999999999939
 33
0.7699999999999987
  0
3DFACE
  5
867
  8
TURRET
 10
-0.1699999999999997
 20
-0.0399999999999974
 30
0.6799999999999989
 11
-0.1699999999999997
 21
-0.1600000000000019
 31
0.5400000000000002
 12
-0.1699999999999998
 22
-0.4900000000000003
 32
0.71
 13
-0.1699999999999997
 23
-0.1999999999999939
 33
0.7699999999999987
  0
3DFACE
  5
868
  8
TURRET
 10
-0.1199999999999988
 20
-0.0399999999999974
 30
0.6799999999999989
 11
-0.1199999999999989
 21
-0.1600000000000019
 31
0.5400000000000002
 12
-0.1699999999999997
 22
-0.1600000000000019
 32
0.5400000000000002
 13
-0.1699999999999997
 23
-0.0399999999999974
 33
0.6799999999999989
  0
3DFACE
  5
871
  8
TURRET
 10
0.1200000000000003
 20
-0.0900000000000088
 30
1.079999999999999
 11
0.1200000000000003
 21
-0.4800000000000093
 31
1.079999999999999
 12
1.080000000000001
 22
-0.4800000000000093
 32
1.079999999999999
 13
1.070000000000001
 23
-0.0900000000000088
 33
1.079999999999999
  0
3DFACE
  5
872
  8
TURRET
 10
0.1200000000000003
 20
-0.4800000000000093
 30
1.079999999999999
 11
0.1200000000000002
 21
-0.7800000000000065
 31
1.079999999999999
 12
1.0900000000000001
 22
-0.7800000000000065
 32
1.079999999999999
 13
1.080000000000001
 23
-0.4800000000000093
 33
1.079999999999999
  0
3DFACE
  5
87F
  8
TURRET
 10
0.1200000000000006
 20
0.7499999999999947
 30
0.8099999999999996
 11
0.1200000000000003
 21
-0.0900000000000088
 31
1.079999999999999
 12
1.070000000000001
 22
-0.0900000000000088
 32
1.079999999999999
 13
1.070000000000001
 23
0.7499999999999947
 33
0.8099999999999996
  0
VIEWPORT
  5
2E
 67
     1
  8
0
 10
144.7270812988281
 20
101.2295806407928
 30
0.0
 40
391.13550988316581
 41
222.15178063964839
 68
     2
 69
     1
1001
ACAD
1000
MVIEW
1002
{
1070
    16
1010
0.0
1020
0.0
1030
0.0
1010
0.0
1020
0.0
1030
1.0
1040
0.0
1040
222.15178063964839
1040
144.7270812988281
1040
101.2295806407928
1040
50.0
1040
0.0
1040
0.0
1070
     0
1070
   100
1070
     1
1070
     1
1070
     0
1070
     0
1070
     0
1070
     0
1040
0.0
1040
0.0
1040
0.0
1040
10.0
1040
10.0
1040
10.0
1040
10.0
1070
     0
1002
{
1002
}
1002
}
  0
VIEWPORT
  5
30
 67
     1
  8
0
 10
139.22375631332389
 20
100.8062499761581
 30
0.0
 40
222.75801010131829
 41
161.289999961853
 68
     1
 69
     2
1001
ACAD
1000
MVIEW
1002
{
1070
    16
1010
0.0
1020
0.0
1030
0.0
1010
0.0
1020
0.0
1030
1.0
1040
0.0
1040
307.49010134148989
1040
210.0
1040
148.5
1040
50.0
1040
0.0
1040
0.0
1070
     0
1070
   100
1070
     1
1070
     3
1070
     0
1070
     1
1070
     0
1070
     0
1040
0.0
1040
0.0
1040
0.0
1040
10.0
1040
10.0
1040
10.0
1040
10.0
1070
     0
1002
{
1002
}
1002
}
  0
ENDSEC
  0
EOF
