  0
SECTION
  2
HEADER
  9
$ACADVER
  1
AC1009
  9
$INSBASE
 10
0.0
 20
0.0
 30
0.0
  9
$EXTMIN
 10
-5.3599999999999994
 20
-22.96762499999998
 30
-7.3200000000000003
  9
$EXTMAX
 10
5.3599999999999977
 20
25.02
 30
39.221482311347572
  9
$LIMMIN
 10
0.0
 20
0.0
  9
$LIMMAX
 10
420.0
 20
297.0
  9
$ORTHOMODE
 70
     1
  9
$REGENMODE
 70
     1
  9
$FILLMODE
 70
     1
  9
$QTEXTMODE
 70
     0
  9
$MIRRTEXT
 70
     1
  9
$DRAGMODE
 70
     2
  9
$LTSCALE
 40
1.0
  9
$OSMODE
 70
   559
  9
$ATTMODE
 70
     1
  9
$TEXTSIZE
 40
2.5
  9
$TRACEWID
 40
1.0
  9
$TEXTSTYLE
  7
STANDARD
  9
$CLAYER
  8
PROP
  9
$CELTYPE
  6
BYLAYER
  9
$CECOLOR
 62
   256
  9
$DIMSCALE
 40
1.0
  9
$DIMASZ
 40
2.5
  9
$DIMEXO
 40
0.625
  9
$DIMDLI
 40
3.75
  9
$DIMRND
 40
0.0
  9
$DIMDLE
 40
0.0
  9
$DIMEXE
 40
1.25
  9
$DIMTP
 40
0.0
  9
$DIMTM
 40
0.0
  9
$DIMTXT
 40
2.5
  9
$DIMCEN
 40
2.5
  9
$DIMTSZ
 40
0.0
  9
$DIMTOL
 70
     0
  9
$DIMLIM
 70
     0
  9
$DIMTIH
 70
     0
  9
$DIMTOH
 70
     0
  9
$DIMSE1
 70
     0
  9
$DIMSE2
 70
     0
  9
$DIMTAD
 70
     1
  9
$DIMZIN
 70
     8
  9
$DIMBLK
  1

  9
$DIMASO
 70
     1
  9
$DIMSHO
 70
     1
  9
$DIMPOST
  1

  9
$DIMAPOST
  1

  9
$DIMALT
 70
     0
  9
$DIMALTD
 70
     3
  9
$DIMALTF
 40
0.03937007874016
  9
$DIMLFAC
 40
1.0
  9
$DIMTOFL
 70
     1
  9
$DIMTVP
 40
0.0
  9
$DIMTIX
 70
     0
  9
$DIMSOXD
 70
     0
  9
$DIMSAH
 70
     0
  9
$DIMBLK1
  1

  9
$DIMBLK2
  1

  9
$DIMSTYLE
  2
ISO-25
  9
$DIMCLRD
 70
     0
  9
$DIMCLRE
 70
     0
  9
$DIMCLRT
 70
     0
  9
$DIMTFAC
 40
1.0
  9
$DIMGAP
 40
0.625
  9
$LUNITS
 70
     2
  9
$LUPREC
 70
     4
  9
$SKETCHINC
 40
1.0
  9
$FILLETRAD
 40
10.0
  9
$AUNITS
 70
     0
  9
$AUPREC
 70
     0
  9
$MENU
  1
.
  9
$ELEVATION
 40
0.0
  9
$PELEVATION
 40
0.0
  9
$THICKNESS
 40
0.0
  9
$LIMCHECK
 70
     0
  9
$BLIPMODE
 70
     0
  9
$CHAMFERA
 40
10.0
  9
$CHAMFERB
 40
10.0
  9
$SKPOLY
 70
     0
  9
$TDCREATE
 40
2454947.731950914
  9
$TDUPDATE
 40
2454949.959545509
  9
$TDINDWG
 40
0.4863939468
  9
$TDUSRTIMER
 40
0.4863939468
  9
$USRTIMER
 70
     1
  9
$ANGBASE
 50
0.0
  9
$ANGDIR
 70
     0
  9
$PDMODE
 70
     0
  9
$PDSIZE
 40
0.0
  9
$PLINEWID
 40
0.0
  9
$COORDS
 70
     1
  9
$SPLFRAME
 70
     0
  9
$SPLINETYPE
 70
     6
  9
$SPLINESEGS
 70
     8
  9
$ATTDIA
 70
     1
  9
$ATTREQ
 70
     1
  9
$HANDLING
 70
-16383
  9
$HANDSEED
  5
86E
  9
$SURFTAB1
 70
     6
  9
$SURFTAB2
 70
     6
  9
$SURFTYPE
 70
     6
  9
$SURFU
 70
     6
  9
$SURFV
 70
     6
  9
$UCSNAME
  2

  9
$UCSORG
 10
0.0
 20
0.0
 30
0.0
  9
$UCSXDIR
 10
0.0
 20
-1.0
 30
0.0
  9
$UCSYDIR
 10
0.0
 20
0.0
 30
1.0
  9
$PUCSNAME
  2

  9
$PUCSORG
 10
0.0
 20
0.0
 30
0.0
  9
$PUCSXDIR
 10
1.0
 20
0.0
 30
0.0
  9
$PUCSYDIR
 10
0.0
 20
1.0
 30
0.0
  9
$USERI1
 70
     0
  9
$USERI2
 70
     0
  9
$USERI3
 70
     0
  9
$USERI4
 70
     0
  9
$USERI5
 70
     0
  9
$USERR1
 40
0.0
  9
$USERR2
 40
0.0
  9
$USERR3
 40
0.0
  9
$USERR4
 40
0.0
  9
$USERR5
 40
0.0
  9
$WORLDVIEW
 70
     1
  9
$SHADEDGE
 70
     3
  9
$SHADEDIF
 70
    70
  9
$TILEMODE
 70
     1
  9
$MAXACTVP
 70
    64
  9
$PLIMCHECK
 70
     0
  9
$PEXTMIN
 10
27.844751262664801
 20
20.161249995231621
 30
0.0
  9
$PEXTMAX
 10
250.60276136398309
 20
181.4512499570846
 30
0.0
  9
$PLIMMIN
 10
-3.757080078125
 20
-3.7570831775665279
  9
$PLIMMAX
 10
293.21124267578119
 20
206.21624445915219
  9
$UNITMODE
 70
     0
  9
$VISRETAIN
 70
     1
  9
$PLINEGEN
 70
     0
  9
$PSLTSCALE
 70
     1
  0
ENDSEC
  0
SECTION
  2
TABLES
  0
TABLE
  2
VPORT
 70
     2
  0
VPORT
  2
*ACTIVE
 70
     0
 10
0.0
 20
0.0
 11
1.0
 21
1.0
 12
4.6273481987378062
 22
16.023112096603288
 13
0.0
 23
0.0
 14
0.01
 24
0.01
 15
1.0
 25
1.0
 16
-1.0
 26
0.0
 36
0.0
 17
0.0
 27
0.0
 37
0.0
 40
92.01285663012122
 41
1.7606679035250461
 42
50.0
 43
0.0
 44
0.0
 50
0.0
 51
0.0
 71
     0
 72
   100
 73
     1
 74
     3
 75
     1
 76
     1
 77
     0
 78
     0
  0
ENDTAB
  0
TABLE
  2
LTYPE
 70
     1
  0
LTYPE
  2
CONTINUOUS
 70
     0
  3
Solid line
 72
    65
 73
     0
 40
0.0
  0
ENDTAB
  0
TABLE
  2
LAYER
 70
     6
  0
LAYER
  2
0
 70
     0
 62
     7
  6
CONTINUOUS
  0
LAYER
  2
DRAWING
 70
     0
 62
     9
  6
CONTINUOUS
  0
LAYER
  2
PROP
 70
     0
 62
     1
  6
CONTINUOUS
  0
LAYER
  2
W
 70
     0
 62
     5
  6
CONTINUOUS
  0
LAYER
  2
W2
 70
     0
 62
     1
  6
CONTINUOUS
  0
LAYER
  2
H2
 70
     0
 62
     7
  6
CONTINUOUS
  0
ENDTAB
  0
TABLE
  2
STYLE
 70
     1
  0
STYLE
  2
STANDARD
 70
     0
 40
0.0
 41
1.0
 50
0.0
 71
     0
 42
2.5
  3
txt
  4

  0
ENDTAB
  0
TABLE
  2
VIEW
 70
     0
  0
ENDTAB
  0
TABLE
  2
UCS
 70
     0
  0
ENDTAB
  0
TABLE
  2
APPID
 70
     1
  0
APPID
  2
ACAD
 70
     0
  0
ENDTAB
  0
TABLE
  2
DIMSTYLE
 70
     1
  0
DIMSTYLE
  2
ISO-25
 70
     0
  3

  4

  5

  6

  7

 40
1.0
 41
2.5
 42
0.625
 43
3.75
 44
1.25
 45
0.0
 46
0.0
 47
0.0
 48
0.0
140
2.5
141
2.5
142
0.0
143
0.03937007874016
144
1.0
145
0.0
146
1.0
147
0.625
 71
     0
 72
     0
 73
     0
 74
     0
 75
     0
 76
     0
 77
     1
 78
     8
170
     0
171
     3
172
     1
173
     0
174
     0
175
     0
176
     0
177
     0
178
     0
  0
ENDTAB
  0
ENDSEC
  0
SECTION
  2
BLOCKS
  0
BLOCK
  8
0
  2
$MODEL_SPACE
 70
     0
 10
0.0
 20
0.0
 30
0.0
  3
$MODEL_SPACE
  1

  0
ENDBLK
  5
21
  8
0
  0
BLOCK
 67
     1
  8
0
  2
$PAPER_SPACE
 70
     0
 10
0.0
 20
0.0
 30
0.0
  3
$PAPER_SPACE
  1

  0
ENDBLK
  5
1D
 67
     1
  8
0
  0
ENDSEC
  0
SECTION
  2
ENTITIES
  0
3DFACE
  5
27A
  8
PROP
 10
0.3
 20
3.9399999999999991
 30
0.0
 11
0.277163859753386
 21
3.9399999999999991
 31
-0.1148050297095269
 12
0.1877817459305202
 22
4.1500000000000004
 32
-0.0777817459305204
 13
0.22
 23
4.1500000000000004
 33
0.0
  0
3DFACE
  5
27B
  8
PROP
 10
0.277163859753386
 20
3.9399999999999991
 30
-0.1148050297095269
 11
0.2121320343559642
 21
3.9399999999999991
 31
-0.2121320343559643
 12
0.1555634918610405
 22
4.1500000000000004
 32
-0.1555634918610402
 13
0.1877817459305202
 23
4.1500000000000004
 33
-0.0777817459305204
  0
3DFACE
  5
27C
  8
PROP
 10
0.2121320343559642
 20
3.9399999999999991
 30
-0.2121320343559643
 11
0.1148050297095269
 21
3.9399999999999991
 31
-0.2771638597533861
 12
0.0777817459305202
 22
4.1500000000000004
 32
-0.1877817459305202
 13
0.1555634918610405
 23
4.1500000000000004
 33
-0.1555634918610402
  0
3DFACE
  5
27D
  8
PROP
 10
0.1148050297095269
 20
3.9399999999999991
 30
-0.2771638597533861
 11
0.0
 21
3.9399999999999991
 31
-0.2999999999999998
 12
0.0
 22
4.1500000000000004
 32
-0.2200000000000002
 13
0.0777817459305202
 23
4.1500000000000004
 33
-0.1877817459305202
  0
3DFACE
  5
27E
  8
PROP
 10
0.0
 20
3.9399999999999991
 30
-0.2999999999999998
 11
-0.1148050297095269
 21
3.9399999999999991
 31
-0.2771638597533861
 12
-0.0777817459305202
 22
4.1500000000000004
 32
-0.1877817459305202
 13
0.0
 23
4.1500000000000004
 33
-0.2200000000000002
  0
3DFACE
  5
27F
  8
PROP
 10
-0.1148050297095269
 20
3.9399999999999991
 30
-0.2771638597533861
 11
-0.2121320343559642
 21
3.9399999999999991
 31
-0.2121320343559643
 12
-0.1555634918610404
 22
4.1500000000000004
 32
-0.1555634918610402
 13
-0.0777817459305202
 23
4.1500000000000004
 33
-0.1877817459305202
  0
3DFACE
  5
280
  8
PROP
 10
-0.2121320343559642
 20
3.9399999999999991
 30
-0.2121320343559643
 11
-0.277163859753386
 21
3.9399999999999991
 31
-0.1148050297095269
 12
-0.1877817459305202
 22
4.1500000000000004
 32
-0.0777817459305204
 13
-0.1555634918610404
 23
4.1500000000000004
 33
-0.1555634918610402
  0
3DFACE
  5
281
  8
PROP
 10
-0.277163859753386
 20
3.9399999999999991
 30
-0.1148050297095269
 11
-0.3
 21
3.9399999999999991
 31
0.0
 12
-0.22
 22
4.1500000000000004
 32
0.0
 13
-0.1877817459305202
 23
4.1500000000000004
 33
-0.0777817459305204
  0
3DFACE
  5
282
  8
PROP
 10
-0.3
 20
3.9399999999999991
 30
0.0
 11
-0.277163859753386
 21
3.9399999999999991
 31
0.1148050297095269
 12
-0.1877817459305202
 22
4.1500000000000004
 32
0.0777817459305204
 13
-0.22
 23
4.1500000000000004
 33
0.0
  0
3DFACE
  5
283
  8
PROP
 10
-0.277163859753386
 20
3.9399999999999991
 30
0.1148050297095269
 11
-0.2121320343559643
 21
3.9399999999999991
 31
0.2121320343559643
 12
-0.1555634918610405
 22
4.1500000000000004
 32
0.1555634918610402
 13
-0.1877817459305202
 23
4.1500000000000004
 33
0.0777817459305204
  0
3DFACE
  5
284
  8
PROP
 10
-0.2121320343559643
 20
3.9399999999999991
 30
0.2121320343559643
 11
-0.1148050297095271
 21
3.9399999999999991
 31
0.2771638597533861
 12
-0.0777817459305203
 22
4.1500000000000004
 32
0.1877817459305202
 13
-0.1555634918610405
 23
4.1500000000000004
 33
0.1555634918610402
  0
3DFACE
  5
285
  8
PROP
 10
-0.1148050297095271
 20
3.9399999999999991
 30
0.2771638597533861
 11
-0.0000000000000001
 21
3.9399999999999991
 31
0.2999999999999998
 12
0.0
 22
4.1500000000000004
 32
0.2200000000000002
 13
-0.0777817459305203
 23
4.1500000000000004
 33
0.1877817459305202
  0
3DFACE
  5
286
  8
PROP
 10
-0.0000000000000001
 20
3.9399999999999991
 30
0.2999999999999998
 11
0.114805029709527
 21
3.9399999999999991
 31
0.2771638597533861
 12
0.0777817459305202
 22
4.1500000000000004
 32
0.1877817459305207
 13
0.0
 23
4.1500000000000004
 33
0.2200000000000002
  0
3DFACE
  5
287
  8
PROP
 10
0.114805029709527
 20
3.9399999999999991
 30
0.2771638597533861
 11
0.2121320343559644
 21
3.9399999999999991
 31
0.2121320343559643
 12
0.1555634918610406
 22
4.1500000000000004
 32
0.1555634918610402
 13
0.0777817459305202
 23
4.1500000000000004
 33
0.1877817459305207
  0
3DFACE
  5
288
  8
PROP
 10
0.2121320343559644
 20
3.9399999999999991
 30
0.2121320343559643
 11
0.2771638597533861
 21
3.9399999999999991
 31
0.1148050297095264
 12
0.1877817459305202
 22
4.1500000000000004
 32
0.0777817459305204
 13
0.1555634918610406
 23
4.1500000000000004
 33
0.1555634918610402
  0
3DFACE
  5
289
  8
PROP
 10
0.2771638597533861
 20
3.9399999999999991
 30
0.1148050297095264
 11
0.3
 21
3.9399999999999991
 31
0.0
 12
0.22
 22
4.1500000000000004
 32
0.0
 13
0.1877817459305202
 23
4.1500000000000004
 33
0.0777817459305204
  0
3DFACE
  5
28A
  8
PROP
 10
0.31
 20
3.8900000000000001
 30
0.0
 11
0.2864026550784989
 21
3.8900000000000001
 31
-0.1186318640331776
 12
0.277163859753386
 22
3.9399999999999991
 32
-0.1148050297095269
 13
0.3
 23
3.9399999999999991
 33
0.0
  0
3DFACE
  5
28B
  8
PROP
 10
0.2864026550784989
 20
3.8900000000000001
 30
-0.1186318640331776
 11
0.2192031021678297
 21
3.8900000000000001
 31
-0.2192031021678296
 12
0.2121320343559642
 22
3.9399999999999991
 32
-0.2121320343559643
 13
0.277163859753386
 23
3.9399999999999991
 33
-0.1148050297095269
  0
3DFACE
  5
28C
  8
PROP
 10
0.2192031021678297
 20
3.8900000000000001
 30
-0.2192031021678296
 11
0.1186318640331778
 21
3.8900000000000001
 31
-0.2864026550784988
 12
0.1148050297095269
 22
3.9399999999999991
 32
-0.2771638597533861
 13
0.2121320343559642
 23
3.9399999999999991
 33
-0.2121320343559643
  0
3DFACE
  5
28D
  8
PROP
 10
0.1186318640331778
 20
3.8900000000000001
 30
-0.2864026550784988
 11
0.0
 21
3.8900000000000001
 31
-0.31
 12
0.0
 22
3.9399999999999991
 32
-0.2999999999999998
 13
0.1148050297095269
 23
3.9399999999999991
 33
-0.2771638597533861
  0
3DFACE
  5
28E
  8
PROP
 10
0.0
 20
3.8900000000000001
 30
-0.31
 11
-0.1186318640331778
 21
3.8900000000000001
 31
-0.2864026550784988
 12
-0.1148050297095269
 22
3.9399999999999991
 32
-0.2771638597533861
 13
0.0
 23
3.9399999999999991
 33
-0.2999999999999998
  0
3DFACE
  5
28F
  8
PROP
 10
-0.1186318640331778
 20
3.8900000000000001
 30
-0.2864026550784988
 11
-0.2192031021678297
 21
3.8900000000000001
 31
-0.2192031021678296
 12
-0.2121320343559642
 22
3.9399999999999991
 32
-0.2121320343559643
 13
-0.1148050297095269
 23
3.9399999999999991
 33
-0.2771638597533861
  0
3DFACE
  5
290
  8
PROP
 10
-0.2192031021678297
 20
3.8900000000000001
 30
-0.2192031021678296
 11
-0.2864026550784989
 21
3.8900000000000001
 31
-0.118631864033178
 12
-0.277163859753386
 22
3.9399999999999991
 32
-0.1148050297095269
 13
-0.2121320343559642
 23
3.9399999999999991
 33
-0.2121320343559643
  0
3DFACE
  5
291
  8
PROP
 10
-0.2864026550784989
 20
3.8900000000000001
 30
-0.118631864033178
 11
-0.31
 21
3.8900000000000001
 31
0.0
 12
-0.3
 22
3.9399999999999991
 32
0.0
 13
-0.277163859753386
 23
3.9399999999999991
 33
-0.1148050297095269
  0
3DFACE
  5
292
  8
PROP
 10
-0.31
 20
3.8900000000000001
 30
0.0
 11
-0.2864026550784989
 21
3.8900000000000001
 31
0.1186318640331776
 12
-0.277163859753386
 22
3.9399999999999991
 32
0.1148050297095269
 13
-0.3
 23
3.9399999999999991
 33
0.0
  0
3DFACE
  5
293
  8
PROP
 10
-0.2864026550784989
 20
3.8900000000000001
 30
0.1186318640331776
 11
-0.2192031021678297
 21
3.8900000000000001
 31
0.2192031021678296
 12
-0.2121320343559643
 22
3.9399999999999991
 32
0.2121320343559643
 13
-0.277163859753386
 23
3.9399999999999991
 33
0.1148050297095269
  0
3DFACE
  5
294
  8
PROP
 10
-0.2192031021678297
 20
3.8900000000000001
 30
0.2192031021678296
 11
-0.118631864033178
 21
3.8900000000000001
 31
0.2864026550784988
 12
-0.1148050297095271
 22
3.9399999999999991
 32
0.2771638597533861
 13
-0.2121320343559643
 23
3.9399999999999991
 33
0.2121320343559643
  0
3DFACE
  5
295
  8
PROP
 10
-0.118631864033178
 20
3.8900000000000001
 30
0.2864026550784988
 11
-0.0000000000000001
 21
3.8900000000000001
 31
0.31
 12
-0.0000000000000001
 22
3.9399999999999991
 32
0.2999999999999998
 13
-0.1148050297095271
 23
3.9399999999999991
 33
0.2771638597533861
  0
3DFACE
  5
296
  8
PROP
 10
-0.0000000000000001
 20
3.8900000000000001
 30
0.31
 11
0.1186318640331779
 21
3.8900000000000001
 31
0.2864026550784988
 12
0.114805029709527
 22
3.9399999999999991
 32
0.2771638597533861
 13
-0.0000000000000001
 23
3.9399999999999991
 33
0.2999999999999998
  0
3DFACE
  5
297
  8
PROP
 10
0.1186318640331779
 20
3.8900000000000001
 30
0.2864026550784988
 11
0.2192031021678299
 21
3.8900000000000001
 31
0.2192031021678296
 12
0.2121320343559644
 22
3.9399999999999991
 32
0.2121320343559643
 13
0.114805029709527
 23
3.9399999999999991
 33
0.2771638597533861
  0
3DFACE
  5
298
  8
PROP
 10
0.2192031021678299
 20
3.8900000000000001
 30
0.2192031021678296
 11
0.286402655078499
 21
3.8900000000000001
 31
0.1186318640331776
 12
0.2771638597533861
 22
3.9399999999999991
 32
0.1148050297095264
 13
0.2121320343559644
 23
3.9399999999999991
 33
0.2121320343559643
  0
3DFACE
  5
299
  8
PROP
 10
0.286402655078499
 20
3.8900000000000001
 30
0.1186318640331776
 11
0.31
 21
3.8900000000000001
 31
0.0
 12
0.3
 22
3.9399999999999991
 32
0.0
 13
0.2771638597533861
 23
3.9399999999999991
 33
0.1148050297095264
  0
3DFACE
  5
29A
  8
PROP
 10
0.22
 20
4.1500000000000004
 30
0.0
 11
0.1555634918610405
 21
4.1500000000000004
 31
-0.1555634918610402
 12
0.0424264068711929
 22
4.3600000000000003
 32
-0.042426406871193
 13
0.06
 23
4.3600000000000003
 33
0.0
  0
3DFACE
  5
29B
  8
PROP
 10
0.1555634918610405
 20
4.1500000000000004
 30
-0.1555634918610402
 11
0.0
 21
4.1500000000000004
 31
-0.2200000000000002
 12
0.0
 22
4.3600000000000003
 32
-0.0600000000000001
 13
0.0424264068711929
 23
4.3600000000000003
 33
-0.042426406871193
  0
3DFACE
  5
29C
  8
PROP
 10
0.0
 20
4.1500000000000004
 30
-0.2200000000000002
 11
-0.1555634918610404
 21
4.1500000000000004
 31
-0.1555634918610402
 12
-0.0424264068711929
 22
4.3600000000000003
 32
-0.042426406871193
 13
0.0
 23
4.3600000000000003
 33
-0.0600000000000001
  0
3DFACE
  5
29D
  8
PROP
 10
-0.1555634918610404
 20
4.1500000000000004
 30
-0.1555634918610402
 11
-0.22
 21
4.1500000000000004
 31
0.0
 12
-0.06
 22
4.3600000000000003
 32
0.0
 13
-0.0424264068711929
 23
4.3600000000000003
 33
-0.042426406871193
  0
3DFACE
  5
29E
  8
PROP
 10
-0.22
 20
4.1500000000000004
 30
0.0
 11
-0.1555634918610405
 21
4.1500000000000004
 31
0.1555634918610402
 12
-0.0424264068711929
 22
4.3600000000000003
 32
0.042426406871193
 13
-0.06
 23
4.3600000000000003
 33
0.0
  0
3DFACE
  5
29F
  8
PROP
 10
-0.1555634918610405
 20
4.1500000000000004
 30
0.1555634918610402
 11
0.0
 21
4.1500000000000004
 31
0.2200000000000002
 12
0.0
 22
4.3600000000000003
 32
0.0600000000000001
 13
-0.0424264068711929
 23
4.3600000000000003
 33
0.042426406871193
  0
3DFACE
  5
2A0
  8
PROP
 10
0.0
 20
4.1500000000000004
 30
0.2200000000000002
 11
0.1555634918610404
 21
4.1500000000000004
 31
0.1555634918610407
 12
0.0424264068711929
 22
4.3600000000000003
 32
0.042426406871193
 13
0.0
 23
4.3600000000000003
 33
0.0600000000000001
  0
3DFACE
  5
2A1
  8
PROP
 10
0.1555634918610404
 20
4.1500000000000004
 30
0.1555634918610407
 11
0.22
 21
4.1500000000000004
 31
0.0
 12
0.06
 22
4.3600000000000003
 32
0.0
 13
0.0424264068711929
 23
4.3600000000000003
 33
0.042426406871193
  0
3DFACE
  5
2A2
  8
PROP
 10
-0.0424264068711929
 20
4.3600000000000003
 30
0.042426406871193
 11
0.0
 21
4.3600000000000003
 31
0.0600000000000001
 12
0.0424264068711929
 22
4.3600000000000003
 32
0.042426406871193
 13
-0.06
 23
4.3600000000000003
 33
0.0
  0
3DFACE
  5
2A3
  8
PROP
 10
-0.06
 20
4.3600000000000003
 30
0.0
 11
0.0424264068711929
 21
4.3600000000000003
 31
0.042426406871193
 12
0.06
 22
4.3600000000000003
 32
0.0
 13
-0.0424264068711929
 23
4.3600000000000003
 33
-0.042426406871193
  0
3DFACE
  5
2A4
  8
PROP
 10
-0.0424264068711929
 20
4.3600000000000003
 30
-0.042426406871193
 11
0.06
 21
4.3600000000000003
 31
0.0
 12
0.0424264068711929
 22
4.3600000000000003
 32
-0.042426406871193
 13
0.0
 23
4.3600000000000003
 33
-0.0600000000000001
  0
VIEWPORT
  5
2E
 67
     1
  8
0
 10
144.7270812988281
 20
101.2295806407928
 30
0.0
 40
391.13550988316581
 41
222.15178063964839
 68
     2
 69
     1
1001
ACAD
1000
MVIEW
1002
{
1070
    16
1010
0.0
1020
0.0
1030
0.0
1010
0.0
1020
0.0
1030
1.0
1040
0.0
1040
222.15178063964839
1040
144.7270812988281
1040
101.2295806407928
1040
50.0
1040
0.0
1040
0.0
1070
     0
1070
   100
1070
     1
1070
     1
1070
     0
1070
     0
1070
     0
1070
     0
1040
0.0
1040
0.0
1040
0.0
1040
10.0
1040
10.0
1040
10.0
1040
10.0
1070
     0
1002
{
1002
}
1002
}
  0
VIEWPORT
  5
30
 67
     1
  8
0
 10
139.22375631332389
 20
100.8062499761581
 30
0.0
 40
222.75801010131829
 41
161.289999961853
 68
     1
 69
     2
1001
ACAD
1000
MVIEW
1002
{
1070
    16
1010
0.0
1020
0.0
1030
0.0
1010
0.0
1020
0.0
1030
1.0
1040
0.0
1040
307.49010134148989
1040
210.0
1040
148.5
1040
50.0
1040
0.0
1040
0.0
1070
     0
1070
   100
1070
     1
1070
     3
1070
     0
1070
     1
1070
     0
1070
     0
1040
0.0
1040
0.0
1040
0.0
1040
10.0
1040
10.0
1040
10.0
1040
10.0
1070
     0
1002
{
1002
}
1002
}
  0
ENDSEC
  0
EOF
