  0
SECTION
  2
HEADER
  9
$ACADVER
  1
AC1009
  9
$INSBASE
 10
0.0
 20
0.0
 30
0.0
  9
$EXTMIN
 10
-1.5700000000000001
 20
-4.4499999999999993
 30
-4.669999999999999
  9
$EXTMAX
 10
3.0
 20
23.512350999999988
 30
17.202159827213819
  9
$LIMMIN
 10
0.0
 20
0.0
  9
$LIMMAX
 10
420.0
 20
297.0
  9
$ORTHOMODE
 70
     1
  9
$REGENMODE
 70
     1
  9
$FILLMODE
 70
     1
  9
$QTEXTMODE
 70
     0
  9
$MIRRTEXT
 70
     1
  9
$DRAGMODE
 70
     2
  9
$LTSCALE
 40
1.0
  9
$OSMODE
 70
    39
  9
$ATTMODE
 70
     1
  9
$TEXTSIZE
 40
2.5
  9
$TRACEWID
 40
1.0
  9
$TEXTSTYLE
  7
STANDARD
  9
$CLAYER
  8
INTERIOR2
  9
$CELTYPE
  6
BYLAYER
  9
$CECOLOR
 62
   256
  9
$DIMSCALE
 40
1.0
  9
$DIMASZ
 40
2.5
  9
$DIMEXO
 40
0.625
  9
$DIMDLI
 40
3.75
  9
$DIMRND
 40
0.0
  9
$DIMDLE
 40
0.0
  9
$DIMEXE
 40
1.25
  9
$DIMTP
 40
0.0
  9
$DIMTM
 40
0.0
  9
$DIMTXT
 40
2.5
  9
$DIMCEN
 40
2.5
  9
$DIMTSZ
 40
0.0
  9
$DIMTOL
 70
     0
  9
$DIMLIM
 70
     0
  9
$DIMTIH
 70
     0
  9
$DIMTOH
 70
     0
  9
$DIMSE1
 70
     0
  9
$DIMSE2
 70
     0
  9
$DIMTAD
 70
     1
  9
$DIMZIN
 70
     8
  9
$DIMBLK
  1

  9
$DIMASO
 70
     1
  9
$DIMSHO
 70
     1
  9
$DIMPOST
  1

  9
$DIMAPOST
  1

  9
$DIMALT
 70
     0
  9
$DIMALTD
 70
     3
  9
$DIMALTF
 40
0.03937007874016
  9
$DIMLFAC
 40
1.0
  9
$DIMTOFL
 70
     1
  9
$DIMTVP
 40
0.0
  9
$DIMTIX
 70
     0
  9
$DIMSOXD
 70
     0
  9
$DIMSAH
 70
     0
  9
$DIMBLK1
  1

  9
$DIMBLK2
  1

  9
$DIMSTYLE
  2
ISO-25
  9
$DIMCLRD
 70
     0
  9
$DIMCLRE
 70
     0
  9
$DIMCLRT
 70
     0
  9
$DIMTFAC
 40
1.0
  9
$DIMGAP
 40
0.625
  9
$LUNITS
 70
     2
  9
$LUPREC
 70
     4
  9
$SKETCHINC
 40
1.0
  9
$FILLETRAD
 40
10.0
  9
$AUNITS
 70
     0
  9
$AUPREC
 70
     0
  9
$MENU
  1
.
  9
$ELEVATION
 40
0.0
  9
$PELEVATION
 40
0.0
  9
$THICKNESS
 40
0.0
  9
$LIMCHECK
 70
     0
  9
$BLIPMODE
 70
     0
  9
$CHAMFERA
 40
10.0
  9
$CHAMFERB
 40
10.0
  9
$SKPOLY
 70
     0
  9
$TDCREATE
 40
2455577.8606177079
  9
$TDUPDATE
 40
2455578.792649664
  9
$TDINDWG
 40
0.3326848264
  9
$TDUSRTIMER
 40
0.3326848264
  9
$USRTIMER
 70
     1
  9
$ANGBASE
 50
0.0
  9
$ANGDIR
 70
     0
  9
$PDMODE
 70
     0
  9
$PDSIZE
 40
0.0
  9
$PLINEWID
 40
0.0
  9
$COORDS
 70
     1
  9
$SPLFRAME
 70
     0
  9
$SPLINETYPE
 70
     6
  9
$SPLINESEGS
 70
     8
  9
$ATTDIA
 70
     1
  9
$ATTREQ
 70
     1
  9
$HANDLING
 70
-16383
  9
$HANDSEED
  5
9E0
  9
$SURFTAB1
 70
     6
  9
$SURFTAB2
 70
     6
  9
$SURFTYPE
 70
     6
  9
$SURFU
 70
     6
  9
$SURFV
 70
     6
  9
$UCSNAME
  2

  9
$UCSORG
 10
0.0
 20
0.0
 30
0.0
  9
$UCSXDIR
 10
0.0
 20
-1.0
 30
0.0
  9
$UCSYDIR
 10
0.0
 20
0.0
 30
1.0
  9
$PUCSNAME
  2

  9
$PUCSORG
 10
0.0
 20
0.0
 30
0.0
  9
$PUCSXDIR
 10
1.0
 20
0.0
 30
0.0
  9
$PUCSYDIR
 10
0.0
 20
1.0
 30
0.0
  9
$USERI1
 70
     0
  9
$USERI2
 70
     0
  9
$USERI3
 70
     0
  9
$USERI4
 70
     0
  9
$USERI5
 70
     0
  9
$USERR1
 40
0.0
  9
$USERR2
 40
0.0
  9
$USERR3
 40
0.0
  9
$USERR4
 40
0.0
  9
$USERR5
 40
0.0
  9
$WORLDVIEW
 70
     1
  9
$SHADEDGE
 70
     3
  9
$SHADEDIF
 70
    70
  9
$TILEMODE
 70
     1
  9
$MAXACTVP
 70
    64
  9
$PLIMCHECK
 70
     0
  9
$PEXTMIN
 10
27.844751262664801
 20
20.161249995231621
 30
0.0
  9
$PEXTMAX
 10
250.60276136398309
 20
181.4512499570846
 30
0.0
  9
$PLIMMIN
 10
-3.757080078125
 20
-3.7570831775665279
  9
$PLIMMAX
 10
293.21124267578119
 20
206.21624445915219
  9
$UNITMODE
 70
     0
  9
$VISRETAIN
 70
     1
  9
$PLINEGEN
 70
     0
  9
$PSLTSCALE
 70
     1
  0
ENDSEC
  0
SECTION
  2
TABLES
  0
TABLE
  2
VPORT
 70
    28
  0
VPORT
  2
*ACTIVE
 70
     0
 10
0.0
 20
0.0
 11
1.0
 21
1.0
 12
-6.4275700447664263
 22
6.9785254771820027
 13
0.0
 23
0.0
 14
0.01
 24
0.01
 15
1.0
 25
1.0
 16
-1.0
 26
0.0
 36
0.0
 17
0.0
 27
0.0
 37
0.0
 40
38.968278244659537
 41
1.767225325884543
 42
50.0
 43
0.0
 44
0.0
 50
0.0
 51
0.0
 71
     0
 72
   100
 73
     1
 74
     3
 75
     1
 76
     1
 77
     0
 78
     0
  0
ENDTAB
  0
TABLE
  2
LTYPE
 70
     1
  0
LTYPE
  2
CONTINUOUS
 70
     0
  3
Solid line
 72
    65
 73
     0
 40
0.0
  0
ENDTAB
  0
TABLE
  2
LAYER
 70
     6
  0
LAYER
  2
0
 70
     0
 62
     7
  6
CONTINUOUS
  0
LAYER
  2
DRAWING
 70
     0
 62
     9
  6
CONTINUOUS
  0
LAYER
  2
WHEELS
 70
     0
 62
     2
  6
CONTINUOUS
  0
LAYER
  2
BAR
 70
     0
 62
     1
  6
CONTINUOUS
  0
LAYER
  2
INTERIOR1
 70
     0
 62
     4
  6
CONTINUOUS
  0
LAYER
  2
INTERIOR2
 70
     0
 62
     6
  6
CONTINUOUS
  0
ENDTAB
  0
TABLE
  2
STYLE
 70
     1
  0
STYLE
  2
STANDARD
 70
     0
 40
0.0
 41
1.0
 50
0.0
 71
     0
 42
2.5
  3
txt
  4

  0
ENDTAB
  0
TABLE
  2
VIEW
 70
     0
  0
ENDTAB
  0
TABLE
  2
UCS
 70
     0
  0
ENDTAB
  0
TABLE
  2
APPID
 70
     1
  0
APPID
  2
ACAD
 70
     0
  0
ENDTAB
  0
TABLE
  2
DIMSTYLE
 70
     1
  0
DIMSTYLE
  2
ISO-25
 70
     0
  3

  4

  5

  6

  7

 40
1.0
 41
2.5
 42
0.625
 43
3.75
 44
1.25
 45
0.0
 46
0.0
 47
0.0
 48
0.0
140
2.5
141
2.5
142
0.0
143
0.03937007874016
144
1.0
145
0.0
146
1.0
147
0.625
 71
     0
 72
     0
 73
     0
 74
     0
 75
     0
 76
     0
 77
     1
 78
     8
170
     0
171
     3
172
     1
173
     0
174
     0
175
     0
176
     0
177
     0
178
     0
  0
ENDTAB
  0
ENDSEC
  0
SECTION
  2
BLOCKS
  0
BLOCK
  8
0
  2
$MODEL_SPACE
 70
     0
 10
0.0
 20
0.0
 30
0.0
  3
$MODEL_SPACE
  1

  0
ENDBLK
  5
21
  8
0
  0
BLOCK
 67
     1
  8
0
  2
$PAPER_SPACE
 70
     0
 10
0.0
 20
0.0
 30
0.0
  3
$PAPER_SPACE
  1

  0
ENDBLK
  5
1D
 67
     1
  8
0
  0
ENDSEC
  0
SECTION
  2
ENTITIES
  0
3DFACE
  5
8A2
  8
INTERIOR2
 10
1.4099999999999979
 20
-3.77
 30
3.1000000000000001
 11
1.4799999999999991
 21
-3.7699999999999991
 31
3.2000000000000002
 12
1.3099999999999981
 22
-3.77
 32
3.2000000000000002
 13
1.4099999999999979
 23
-3.77
 33
3.1000000000000001
  0
3DFACE
  5
8A3
  8
INTERIOR2
 10
1.4599999999999991
 20
-3.77
 30
3.2000000000000002
 11
1.4599999999999991
 21
-3.7699999999999991
 31
3.3199999999999998
 12
-1.46
 22
-3.7699999999999991
 32
3.3199999999999998
 13
-1.46
 23
-3.7699999999999991
 33
3.2000000000000002
  0
3DFACE
  5
8A4
  8
INTERIOR2
 10
1.4599999999999991
 20
-3.77
 30
3.3200000000000012
 11
1.409999999999999
 21
-3.7699999999999991
 31
3.419999999999999
 12
-1.4099999999999999
 22
-3.7699999999999991
 32
3.419999999999999
 13
-1.46
 23
-3.7699999999999991
 33
3.3200000000000012
  0
3DFACE
  5
8A5
  8
INTERIOR2
 10
1.409999999999999
 20
-3.77
 30
3.4199999999999999
 11
0.6999999999999997
 21
-3.7699999999999991
 31
3.7000000000000002
 12
-0.7000000000000006
 22
-3.7699999999999991
 32
3.7000000000000002
 13
-1.4099999999999999
 23
-3.7699999999999991
 33
3.4199999999999999
  0
3DFACE
  5
8A6
  8
INTERIOR2
 10
0.6999999999999997
 20
-3.77
 30
3.7000000000000011
 11
0.2999999999999996
 21
-3.7699999999999991
 31
3.7799999999999998
 12
-0.3000000000000004
 22
-3.7699999999999991
 32
3.7799999999999998
 13
-0.7000000000000006
 23
-3.7699999999999991
 33
3.7000000000000011
  0
3DFACE
  5
8A7
  8
INTERIOR2
 10
1.4599999999999991
 20
-3.0699999999999998
 30
3.089999999999999
 11
1.4599999999999991
 21
-3.4399999999999991
 31
3.089999999999999
 12
1.4599999999999991
 22
-3.4399999999999991
 32
2.4300000000000002
 13
1.4599999999999991
 23
-3.0699999999999998
 33
2.4300000000000002
  0
3DFACE
  5
8A8
  8
INTERIOR2
 10
1.4599999999999991
 20
-2.1400000000000001
 30
3.1099999999999999
 11
1.4599999999999991
 21
-2.669999999999999
 31
3.109999999999999
 12
1.4599999999999991
 22
-2.669999999999999
 32
2.4300000000000002
 13
1.4599999999999991
 23
-2.1400000000000001
 33
2.4300000000000002
  0
3DFACE
  5
8A9
  8
INTERIOR2
 10
-1.46
 20
-3.0699999999999998
 30
2.4300000000000002
 11
-1.46
 21
-3.4399999999999991
 31
2.4300000000000002
 12
-1.46
 22
-3.4399999999999991
 32
3.089999999999999
 13
-1.46
 23
-3.0699999999999998
 33
3.089999999999999
  0
3DFACE
  5
8AA
  8
INTERIOR2
 10
-1.46
 20
-2.1400000000000001
 30
2.4300000000000002
 11
-1.46
 21
-2.669999999999999
 31
2.4300000000000002
 12
-1.46
 22
-2.669999999999999
 32
3.109999999999999
 13
-1.46
 23
-2.1400000000000001
 33
3.1099999999999999
  0
3DFACE
  5
8AB
  8
INTERIOR2
 10
-1.150000000000001
 20
-1.9599999999999991
 30
2.54
 11
-1.3100000000000009
 21
-1.9599999999999991
 31
2.54
 12
-1.4099999999999999
 22
-1.9599999999999991
 32
2.6399999999999988
 13
-1.05
 23
-1.9599999999999991
 33
2.6400000000000001
  0
3DFACE
  5
8AC
  8
INTERIOR2
 10
-1.05
 20
-1.9599999999999991
 30
2.6400000000000001
 11
-1.4099999999999999
 21
-1.9599999999999991
 31
2.6399999999999988
 12
-1.409999999999999
 22
-1.9599999999999991
 32
3.1000000000000001
 13
-1.05
 23
-1.9599999999999991
 33
3.1000000000000001
  0
3DFACE
  5
8AD
  8
INTERIOR2
 10
-1.0499999999999989
 20
-1.9599999999999991
 30
3.1000000000000001
 11
-1.409999999999999
 21
-1.9599999999999991
 31
3.1000000000000001
 12
-1.3099999999999989
 22
-1.9599999999999991
 32
3.2000000000000002
 13
-1.149999999999999
 23
-1.9599999999999991
 33
3.2000000000000011
  0
3DFACE
  5
8AE
  8
INTERIOR2
 10
1.410000000000001
 20
-1.96
 30
3.1000000000000001
 11
1.05
 21
-1.96
 31
3.0999999999999992
 12
1.1499999999999999
 22
-1.96
 32
3.1999999999999988
 13
1.3100000000000001
 23
-1.9599999999999991
 33
3.2000000000000002
  0
3DFACE
  5
8AF
  8
INTERIOR2
 10
1.4099999999999999
 20
-1.9599999999999991
 30
2.6400000000000001
 11
1.05
 21
-1.9599999999999991
 31
2.6399999999999988
 12
1.05
 22
-1.96
 32
3.0999999999999992
 13
1.4099999999999999
 23
-1.9599999999999991
 33
3.0999999999999992
  0
3DFACE
  5
8B0
  8
INTERIOR2
 10
1.3099999999999989
 20
-1.96
 30
2.5399999999999991
 11
1.149999999999999
 21
-1.9599999999999991
 31
2.54
 12
1.05
 22
-1.9599999999999991
 32
2.6399999999999988
 13
1.4099999999999999
 23
-1.9599999999999991
 33
2.6400000000000001
  0
3DFACE
  5
8B4
  8
INTERIOR2
 10
1.0499999999999989
 20
-3.75
 30
2.6400000000000001
 11
1.409999999999999
 21
-3.75
 31
2.6399999999999988
 12
1.4099999999999979
 22
-3.75
 32
3.1000000000000001
 13
1.0499999999999989
 23
-3.75
 33
3.1000000000000001
  0
3DFACE
  5
8B6
  8
INTERIOR2
 10
1.1499999999999999
 20
-3.75
 30
2.54
 11
1.3100000000000001
 21
-3.75
 31
2.54
 12
1.409999999999999
 22
-3.75
 32
2.6399999999999988
 13
1.0499999999999989
 23
-3.75
 33
2.6400000000000001
  0
3DFACE
  5
8B8
  8
INTERIOR2
 10
1.049999999999998
 20
-3.75
 30
3.1000000000000001
 11
1.4099999999999979
 21
-3.75
 31
3.1000000000000001
 12
1.3099999999999981
 22
-3.75
 32
3.2000000000000002
 13
1.1499999999999979
 23
-3.75
 33
3.2000000000000011
  0
3DFACE
  5
8BF
  8
INTERIOR2
 10
1.3100000000000001
 20
-3.77
 30
2.54
 11
1.3100000000000001
 21
-3.75
 31
2.54
 12
1.1499999999999999
 22
-3.75
 32
2.54
 13
1.1499999999999999
 23
-3.77
 33
2.54
  0
3DFACE
  5
8C0
  8
INTERIOR2
 10
1.1499999999999999
 20
-3.77
 30
2.54
 11
1.1499999999999999
 21
-3.75
 31
2.54
 12
1.0499999999999989
 22
-3.75
 32
2.6400000000000001
 13
1.0499999999999989
 23
-3.77
 33
2.6400000000000001
  0
3DFACE
  5
8C1
  8
INTERIOR2
 10
1.0499999999999989
 20
-3.77
 30
2.6400000000000001
 11
1.0499999999999989
 21
-3.75
 31
2.6400000000000001
 12
1.0499999999999989
 22
-3.75
 32
3.1000000000000001
 13
1.0499999999999989
 23
-3.77
 33
3.1000000000000001
  0
3DFACE
  5
8C2
  8
INTERIOR2
 10
1.049999999999998
 20
-3.77
 30
3.1000000000000001
 11
1.049999999999998
 21
-3.75
 31
3.1000000000000001
 12
1.1499999999999979
 22
-3.75
 32
3.2000000000000011
 13
1.1499999999999979
 23
-3.77
 33
3.2000000000000011
  0
3DFACE
  5
8C3
  8
INTERIOR2
 10
1.1499999999999979
 20
-3.77
 30
3.2000000000000011
 11
1.1499999999999979
 21
-3.75
 31
3.2000000000000011
 12
1.3099999999999981
 22
-3.75
 32
3.2000000000000002
 13
1.3099999999999981
 23
-3.7699999999999991
 33
3.2000000000000002
  0
3DFACE
  5
8C4
  8
INTERIOR2
 10
1.3099999999999981
 20
-3.77
 30
3.2000000000000002
 11
1.3099999999999981
 21
-3.75
 31
3.2000000000000002
 12
1.4099999999999979
 22
-3.75
 32
3.1000000000000001
 13
1.4099999999999979
 23
-3.77
 33
3.1000000000000001
  0
3DFACE
  5
8C5
  8
INTERIOR2
 10
1.4099999999999979
 20
-3.77
 30
3.1000000000000001
 11
1.4099999999999979
 21
-3.75
 31
3.1000000000000001
 12
1.409999999999999
 22
-3.75
 32
2.6399999999999988
 13
1.409999999999999
 23
-3.77
 33
2.6399999999999988
  0
3DFACE
  5
8C6
  8
INTERIOR2
 10
1.409999999999999
 20
-3.77
 30
2.6399999999999988
 11
1.409999999999999
 21
-3.75
 31
2.6399999999999988
 12
1.3100000000000001
 22
-3.75
 32
2.54
 13
1.3100000000000001
 23
-3.77
 33
2.54
  0
3DFACE
  5
8C7
  8
INTERIOR2
 10
-1.0500000000000009
 20
-3.77
 30
3.1000000000000001
 11
-1.0500000000000009
 21
-3.75
 31
3.1000000000000001
 12
-1.05
 22
-3.75
 32
2.6399999999999988
 13
-1.05
 23
-3.77
 33
2.6399999999999988
  0
3DFACE
  5
8C8
  8
INTERIOR2
 10
-1.4099999999999999
 20
-3.77
 30
2.6400000000000001
 11
-1.4099999999999999
 21
-3.75
 31
2.6400000000000001
 12
-1.4099999999999999
 22
-3.75
 32
3.1000000000000001
 13
-1.4099999999999999
 23
-3.77
 33
3.1000000000000001
  0
3DFACE
  5
8C9
  8
INTERIOR2
 10
-1.4099999999999999
 20
-3.75
 30
2.6400000000000001
 11
-1.05
 21
-3.75
 31
2.6399999999999988
 12
-1.0500000000000009
 22
-3.75
 32
3.1000000000000001
 13
-1.4099999999999999
 23
-3.75
 33
3.1000000000000001
  0
3DFACE
  5
8CA
  8
INTERIOR2
 10
-1.05
 20
-3.77
 30
2.6399999999999988
 11
-1.05
 21
-3.75
 31
2.6399999999999988
 12
-1.149999999999999
 22
-3.75
 32
2.54
 13
-1.149999999999999
 23
-3.77
 33
2.54
  0
3DFACE
  5
8CB
  8
INTERIOR2
 10
-1.3099999999999989
 20
-3.77
 30
2.54
 11
-1.3099999999999989
 21
-3.75
 31
2.54
 12
-1.4099999999999999
 22
-3.75
 32
2.6400000000000001
 13
-1.4099999999999999
 23
-3.77
 33
2.6400000000000001
  0
3DFACE
  5
8CC
  8
INTERIOR2
 10
-1.149999999999999
 20
-3.77
 30
2.54
 11
-1.149999999999999
 21
-3.75
 31
2.54
 12
-1.3099999999999989
 22
-3.75
 32
2.54
 13
-1.3099999999999989
 23
-3.77
 33
2.54
  0
3DFACE
  5
8CD
  8
INTERIOR2
 10
-1.3099999999999989
 20
-3.75
 30
2.54
 11
-1.149999999999999
 21
-3.75
 31
2.54
 12
-1.05
 22
-3.75
 32
2.6399999999999988
 13
-1.4099999999999999
 23
-3.75
 33
2.6400000000000001
  0
3DFACE
  5
8CE
  8
INTERIOR2
 10
-1.150000000000001
 20
-3.77
 30
3.2000000000000002
 11
-1.150000000000001
 21
-3.75
 31
3.2000000000000002
 12
-1.0500000000000009
 22
-3.75
 32
3.1000000000000001
 13
-1.0500000000000009
 23
-3.77
 33
3.1000000000000001
  0
3DFACE
  5
8CF
  8
INTERIOR2
 10
-1.3100000000000009
 20
-3.77
 30
3.2000000000000011
 11
-1.3100000000000009
 21
-3.75
 31
3.2000000000000011
 12
-1.150000000000001
 22
-3.75
 32
3.2000000000000002
 13
-1.150000000000001
 23
-3.7699999999999991
 33
3.2000000000000002
  0
3DFACE
  5
8D0
  8
INTERIOR2
 10
-1.410000000000001
 20
-3.77
 30
3.1000000000000001
 11
-1.410000000000001
 21
-3.75
 31
3.1000000000000001
 12
-1.3100000000000009
 22
-3.75
 32
3.2000000000000011
 13
-1.3100000000000009
 23
-3.77
 33
3.2000000000000011
  0
3DFACE
  5
8D1
  8
INTERIOR2
 10
-1.410000000000001
 20
-3.75
 30
3.1000000000000001
 11
-1.0500000000000009
 21
-3.75
 31
3.1000000000000001
 12
-1.150000000000001
 22
-3.75
 32
3.2000000000000002
 13
-1.3100000000000009
 23
-3.75
 33
3.2000000000000011
  0
3DFACE
  5
8D2
  8
INTERIOR2
 10
-1.05
 20
-3.77
 30
2.6399999999999988
 11
1.0499999999999989
 21
-3.77
 31
2.6400000000000001
 12
1.0499999999999989
 22
-3.77
 32
3.1000000000000001
 13
-1.0500000000000009
 23
-3.77
 33
3.1000000000000001
  0
3DFACE
  5
8D3
  8
INTERIOR2
 10
-1.149999999999999
 20
-3.77
 30
2.54
 11
1.1499999999999999
 21
-3.77
 31
2.54
 12
1.0499999999999989
 22
-3.77
 32
2.6400000000000001
 13
-1.0500000000000009
 23
-3.77
 33
2.6400000000000001
  0
3DFACE
  5
8D4
  8
INTERIOR2
 10
-1.0499999999999989
 20
-3.77
 30
3.1000000000000001
 11
1.05
 21
-3.77
 31
3.1000000000000001
 12
1.1499999999999979
 22
-3.77
 32
3.2000000000000002
 13
-1.150000000000001
 23
-3.77
 33
3.2000000000000002
  0
3DFACE
  5
8D5
  8
INTERIOR2
 10
-1.48
 20
-3.77
 30
1.429999999999999
 11
1.4799999999999991
 21
-3.77
 31
1.429999999999999
 12
1.1499999999999999
 22
-3.77
 32
2.54
 13
-1.149999999999999
 23
-3.77
 33
2.54
  0
3DFACE
  5
8D6
  8
INTERIOR2
 10
-1.410000000000001
 20
-3.77
 30
3.1000000000000001
 11
-1.3100000000000021
 21
-3.7699999999999991
 31
3.2000000000000002
 12
-1.48
 22
-3.7699999999999991
 32
3.2000000000000002
 13
-1.410000000000001
 23
-3.77
 33
3.1000000000000001
  0
3DFACE
  5
8D7
  8
INTERIOR2
 10
1.4799999999999991
 20
-3.7699999999999991
 30
3.2000000000000002
 11
1.4099999999999979
 21
-3.77
 31
3.1000000000000001
 12
1.409999999999999
 22
-3.77
 32
2.6399999999999988
 13
1.4799999999999991
 23
-3.77
 33
1.429999999999999
  0
3DFACE
  5
8D8
  8
INTERIOR2
 10
1.4799999999999991
 20
-3.77
 30
1.429999999999999
 11
1.3100000000000001
 21
-3.77
 31
2.54
 12
1.1499999999999999
 22
-3.77
 32
2.54
 13
1.4799999999999991
 23
-3.77
 33
1.429999999999999
  0
3DFACE
  5
8D9
  8
INTERIOR2
 10
1.4799999999999991
 20
-3.77
 30
1.429999999999999
 11
1.409999999999999
 21
-3.77
 31
2.6399999999999988
 12
1.3100000000000001
 22
-3.77
 32
2.54
 13
1.4799999999999991
 23
-3.77
 33
1.429999999999999
  0
3DFACE
  5
8DA
  8
INTERIOR2
 10
-1.48
 20
-3.77
 30
1.429999999999999
 11
-1.410000000000001
 21
-3.77
 31
2.6400000000000001
 12
-1.410000000000001
 22
-3.77
 32
3.1000000000000001
 13
-1.48
 23
-3.7699999999999991
 33
3.2000000000000002
  0
3DFACE
  5
8DB
  8
INTERIOR2
 10
-1.48
 20
-3.77
 30
1.429999999999999
 11
-1.3099999999999989
 21
-3.77
 31
2.54
 12
-1.4099999999999999
 22
-3.77
 32
2.6400000000000001
 13
-1.48
 23
-3.77
 33
1.429999999999999
  0
3DFACE
  5
8DC
  8
INTERIOR2
 10
-1.48
 20
-3.77
 30
1.429999999999999
 11
-1.149999999999999
 21
-3.77
 31
2.54
 12
-1.3099999999999989
 22
-3.77
 32
2.54
 13
-1.48
 23
-3.77
 33
1.429999999999999
  0
3DFACE
  5
96C
  8
INTERIOR2
 10
1.1899999999999991
 20
-4.0300000000000011
 30
1.4299999999999999
 11
1.105147186257613
 21
-4.0300000000000011
 31
1.634852813742385
 12
1.069999999999999
 22
-4.0300000000000011
 32
1.55
 13
1.105147186257613
 23
-4.0300000000000011
 33
1.465147186257614
  0
3DFACE
  5
96D
  8
INTERIOR2
 10
1.274852813742384
 20
-4.0300000000000011
 30
1.465147186257614
 11
1.1899999999999991
 21
-4.0300000000000011
 31
1.669999999999999
 12
1.105147186257613
 22
-4.0300000000000011
 32
1.634852813742385
 13
1.1899999999999991
 23
-4.0300000000000011
 33
1.4299999999999999
  0
3DFACE
  5
96E
  8
INTERIOR2
 10
1.3099999999999989
 20
-4.0300000000000011
 30
1.55
 11
1.274852813742384
 21
-4.0300000000000011
 31
1.634852813742385
 12
1.1899999999999991
 22
-4.0300000000000011
 32
1.669999999999999
 13
1.274852813742384
 23
-4.0300000000000011
 33
1.465147186257614
  0
3DFACE
  5
96F
  8
INTERIOR2
 10
1.105147186257613
 20
-3.98
 30
1.634852813742385
 11
1.069999999999999
 21
-3.98
 31
1.55
 12
1.069999999999999
 22
-4.0300000000000011
 32
1.55
 13
1.105147186257613
 23
-4.0300000000000011
 33
1.634852813742385
  0
3DFACE
  5
970
  8
INTERIOR2
 10
1.3099999999999989
 20
-3.98
 30
1.55
 11
1.274852813742384
 21
-3.98
 31
1.634852813742385
 12
1.274852813742384
 22
-4.0300000000000011
 32
1.634852813742385
 13
1.3099999999999989
 23
-4.0300000000000011
 33
1.55
  0
3DFACE
  5
971
  8
INTERIOR2
 10
1.2634846922834939
 20
-3.919999999999999
 30
1.6234846922834949
 11
1.274852813742384
 21
-3.98
 31
1.634852813742385
 12
1.3099999999999989
 22
-3.98
 32
1.5499999999999989
 13
1.2939230484541311
 23
-3.919999999999999
 33
1.5499999999999989
  0
3DFACE
  5
972
  8
INTERIOR2
 10
1.2324264068711921
 20
-3.876076951545866
 30
1.5924264068711931
 11
1.2634846922834939
 21
-3.919999999999999
 31
1.6234846922834949
 12
1.2939230484541311
 22
-3.919999999999999
 32
1.5499999999999989
 13
1.2499999999999989
 23
-3.876076951545866
 33
1.5499999999999989
  0
3DFACE
  5
973
  8
INTERIOR2
 10
1.1899999999999991
 20
-3.859999999999999
 30
1.55
 11
1.2324264068711921
 21
-3.876076951545866
 31
1.5924264068711931
 12
1.2499999999999989
 22
-3.876076951545866
 32
1.5499999999999989
 13
1.1899999999999991
 23
-3.859999999999999
 33
1.5499999999999989
  0
3DFACE
  5
974
  8
INTERIOR2
 10
1.1899999999999991
 20
-3.859999999999999
 30
1.55
 11
1.1899999999999991
 21
-3.876076951545866
 31
1.6100000000000001
 12
1.2324264068711921
 22
-3.876076951545866
 32
1.5924264068711931
 13
1.1899999999999991
 23
-3.859999999999999
 33
1.55
  0
3DFACE
  5
975
  8
INTERIOR2
 10
1.1899999999999991
 20
-3.859999999999999
 30
1.55
 11
1.147573593128806
 21
-3.876076951545866
 31
1.592426406871192
 12
1.1899999999999991
 22
-3.876076951545866
 32
1.6100000000000001
 13
1.1899999999999991
 23
-3.859999999999999
 33
1.55
  0
3DFACE
  5
976
  8
INTERIOR2
 10
1.0860769515458659
 20
-3.919999999999999
 30
1.55
 11
1.069999999999999
 21
-3.98
 31
1.55
 12
1.105147186257613
 22
-3.98
 32
1.634852813742385
 13
1.1165153077165031
 23
-3.919999999999999
 33
1.6234846922834949
  0
3DFACE
  5
977
  8
INTERIOR2
 10
1.129999999999999
 20
-3.876076951545866
 30
1.55
 11
1.0860769515458659
 21
-3.919999999999999
 31
1.55
 12
1.1165153077165031
 22
-3.919999999999999
 32
1.6234846922834949
 13
1.147573593128806
 23
-3.876076951545866
 33
1.592426406871192
  0
3DFACE
  5
978
  8
INTERIOR2
 10
1.1899999999999991
 20
-3.859999999999999
 30
1.55
 11
1.129999999999999
 21
-3.876076951545866
 31
1.55
 12
1.147573593128806
 22
-3.876076951545866
 32
1.592426406871192
 13
1.1899999999999991
 23
-3.859999999999999
 33
1.55
  0
3DFACE
  5
979
  8
INTERIOR2
 10
1.274852813742384
 20
-3.98
 30
1.465147186257614
 11
1.3099999999999989
 21
-3.98
 31
1.55
 12
1.3099999999999989
 22
-4.0300000000000011
 32
1.55
 13
1.274852813742384
 23
-4.0300000000000011
 33
1.465147186257614
  0
3DFACE
  5
97A
  8
INTERIOR2
 10
1.1899999999999991
 20
-3.98
 30
1.4299999999999999
 11
1.274852813742384
 21
-3.98
 31
1.465147186257614
 12
1.274852813742384
 22
-4.0300000000000011
 32
1.465147186257614
 13
1.1899999999999991
 23
-4.0300000000000011
 33
1.4299999999999999
  0
3DFACE
  5
97B
  8
INTERIOR2
 10
1.105147186257613
 20
-3.98
 30
1.465147186257614
 11
1.1899999999999991
 21
-3.98
 31
1.4299999999999999
 12
1.1899999999999991
 22
-4.0300000000000011
 32
1.4299999999999999
 13
1.105147186257613
 23
-4.0300000000000011
 33
1.465147186257614
  0
3DFACE
  5
97C
  8
INTERIOR2
 10
1.069999999999999
 20
-3.98
 30
1.55
 11
1.105147186257613
 21
-3.98
 31
1.465147186257614
 12
1.105147186257613
 22
-4.0300000000000011
 32
1.465147186257614
 13
1.069999999999999
 23
-4.0300000000000011
 33
1.55
  0
3DFACE
  5
97D
  8
INTERIOR2
 10
1.1165153077165031
 20
-3.919999999999999
 30
1.4765153077165041
 11
1.105147186257613
 21
-3.98
 31
1.465147186257614
 12
1.069999999999999
 22
-3.98
 32
1.55
 13
1.0860769515458659
 23
-3.919999999999999
 33
1.55
  0
3DFACE
  5
97E
  8
INTERIOR2
 10
1.147573593128806
 20
-3.876076951545866
 30
1.507573593128807
 11
1.1165153077165031
 21
-3.919999999999999
 31
1.4765153077165041
 12
1.0860769515458659
 22
-3.919999999999999
 32
1.55
 13
1.129999999999999
 23
-3.876076951545866
 33
1.55
  0
3DFACE
  5
97F
  8
INTERIOR2
 10
1.1899999999999991
 20
-3.859999999999999
 30
1.55
 11
1.147573593128806
 21
-3.876076951545866
 31
1.507573593128807
 12
1.129999999999999
 22
-3.876076951545866
 32
1.55
 13
1.1899999999999991
 23
-3.859999999999999
 33
1.55
  0
3DFACE
  5
980
  8
INTERIOR2
 10
1.1899999999999991
 20
-3.919999999999999
 30
1.4460769515458669
 11
1.1899999999999991
 21
-3.98
 31
1.4299999999999999
 12
1.105147186257613
 22
-3.98
 32
1.465147186257614
 13
1.1165153077165031
 23
-3.919999999999999
 33
1.4765153077165041
  0
3DFACE
  5
981
  8
INTERIOR2
 10
1.1899999999999991
 20
-3.876076951545866
 30
1.49
 11
1.1899999999999991
 21
-3.919999999999999
 31
1.4460769515458669
 12
1.1165153077165031
 22
-3.919999999999999
 32
1.4765153077165041
 13
1.147573593128806
 23
-3.876076951545866
 33
1.507573593128807
  0
3DFACE
  5
982
  8
INTERIOR2
 10
1.1899999999999991
 20
-3.859999999999999
 30
1.55
 11
1.1899999999999991
 21
-3.876076951545866
 31
1.49
 12
1.147573593128806
 22
-3.876076951545866
 32
1.507573593128807
 13
1.1899999999999991
 23
-3.859999999999999
 33
1.55
  0
3DFACE
  5
983
  8
INTERIOR2
 10
1.2634846922834939
 20
-3.919999999999999
 30
1.4765153077165041
 11
1.2748528137423849
 21
-3.98
 31
1.465147186257614
 12
1.1899999999999991
 22
-3.98
 32
1.4299999999999999
 13
1.1899999999999991
 23
-3.919999999999999
 33
1.4460769515458669
  0
3DFACE
  5
984
  8
INTERIOR2
 10
1.2324264068711921
 20
-3.876076951545866
 30
1.507573593128807
 11
1.2634846922834939
 21
-3.919999999999999
 31
1.4765153077165041
 12
1.1899999999999991
 22
-3.919999999999999
 32
1.4460769515458669
 13
1.1899999999999991
 23
-3.876076951545866
 33
1.49
  0
3DFACE
  5
985
  8
INTERIOR2
 10
1.1899999999999991
 20
-3.859999999999999
 30
1.55
 11
1.2324264068711921
 21
-3.876076951545866
 31
1.507573593128807
 12
1.1899999999999991
 22
-3.876076951545866
 32
1.49
 13
1.1899999999999991
 23
-3.859999999999999
 33
1.55
  0
3DFACE
  5
986
  8
INTERIOR2
 10
1.2939230484541311
 20
-3.919999999999999
 30
1.5499999999999989
 11
1.3099999999999989
 21
-3.98
 31
1.5499999999999989
 12
1.2748528137423849
 22
-3.98
 32
1.465147186257614
 13
1.2634846922834939
 23
-3.919999999999999
 33
1.4765153077165041
  0
3DFACE
  5
987
  8
INTERIOR2
 10
1.2499999999999989
 20
-3.876076951545866
 30
1.5499999999999989
 11
1.2939230484541311
 21
-3.919999999999999
 31
1.5499999999999989
 12
1.2634846922834939
 22
-3.919999999999999
 32
1.4765153077165041
 13
1.2324264068711921
 23
-3.876076951545866
 33
1.507573593128807
  0
3DFACE
  5
988
  8
INTERIOR2
 10
1.1899999999999991
 20
-3.859999999999999
 30
1.5499999999999989
 11
1.2499999999999989
 21
-3.876076951545866
 31
1.5499999999999989
 12
1.2324264068711921
 22
-3.876076951545866
 32
1.507573593128807
 13
1.1899999999999991
 23
-3.859999999999999
 33
1.55
  0
3DFACE
  5
999
  8
INTERIOR2
 10
1.1899999999999991
 20
-3.98
 30
1.669999999999999
 11
1.105147186257613
 21
-3.98
 31
1.634852813742385
 12
1.105147186257613
 22
-4.0300000000000011
 32
1.634852813742385
 13
1.1899999999999991
 23
-4.0300000000000011
 33
1.669999999999999
  0
3DFACE
  5
99A
  8
INTERIOR2
 10
1.274852813742384
 20
-3.98
 30
1.634852813742385
 11
1.1899999999999991
 21
-3.98
 31
1.669999999999999
 12
1.1899999999999991
 22
-4.0300000000000011
 32
1.669999999999999
 13
1.274852813742384
 23
-4.0300000000000011
 33
1.634852813742385
  0
3DFACE
  5
99B
  8
INTERIOR2
 10
1.1899999999999991
 20
-3.919999999999999
 30
1.6539230484541321
 11
1.1899999999999991
 21
-3.98
 31
1.669999999999999
 12
1.274852813742384
 22
-3.98
 32
1.634852813742385
 13
1.2634846922834939
 23
-3.919999999999999
 33
1.6234846922834949
  0
3DFACE
  5
99C
  8
INTERIOR2
 10
1.1899999999999991
 20
-3.876076951545866
 30
1.6100000000000001
 11
1.1899999999999991
 21
-3.919999999999999
 31
1.6539230484541321
 12
1.2634846922834939
 22
-3.919999999999999
 32
1.6234846922834949
 13
1.2324264068711921
 23
-3.876076951545866
 33
1.5924264068711931
  0
3DFACE
  5
99D
  8
INTERIOR2
 10
1.1165153077165031
 20
-3.919999999999999
 30
1.6234846922834949
 11
1.105147186257613
 21
-3.98
 31
1.634852813742385
 12
1.1899999999999991
 22
-3.98
 32
1.669999999999999
 13
1.1899999999999991
 23
-3.919999999999999
 33
1.6539230484541321
  0
3DFACE
  5
99E
  8
INTERIOR2
 10
1.147573593128806
 20
-3.876076951545866
 30
1.592426406871192
 11
1.1165153077165031
 21
-3.919999999999999
 31
1.6234846922834949
 12
1.1899999999999991
 22
-3.919999999999999
 32
1.6539230484541321
 13
1.1899999999999991
 23
-3.876076951545866
 33
1.6100000000000001
  0
3DFACE
  5
9A5
  8
INTERIOR2
 10
-1.1899999999999999
 20
-4.0300000000000011
 30
1.4299999999999999
 11
-1.274852813742386
 21
-4.0300000000000011
 31
1.634852813742385
 12
-1.3100000000000001
 22
-4.0300000000000011
 32
1.55
 13
-1.274852813742386
 23
-4.0300000000000011
 33
1.465147186257614
  0
3DFACE
  5
9A6
  8
INTERIOR2
 10
-1.1051471862576141
 20
-4.0300000000000011
 30
1.465147186257614
 11
-1.1899999999999999
 21
-4.0300000000000011
 31
1.669999999999999
 12
-1.274852813742386
 22
-4.0300000000000011
 32
1.634852813742385
 13
-1.1899999999999999
 23
-4.0300000000000011
 33
1.4299999999999999
  0
3DFACE
  5
9A7
  8
INTERIOR2
 10
-1.0700000000000001
 20
-4.0300000000000011
 30
1.55
 11
-1.1051471862576141
 21
-4.0300000000000011
 31
1.634852813742385
 12
-1.1899999999999999
 22
-4.0300000000000011
 32
1.669999999999999
 13
-1.1051471862576141
 23
-4.0300000000000011
 33
1.465147186257614
  0
3DFACE
  5
9A8
  8
INTERIOR2
 10
-1.274852813742386
 20
-3.98
 30
1.634852813742385
 11
-1.3100000000000001
 21
-3.98
 31
1.55
 12
-1.3100000000000001
 22
-4.0300000000000011
 32
1.55
 13
-1.274852813742386
 23
-4.0300000000000011
 33
1.634852813742385
  0
3DFACE
  5
9A9
  8
INTERIOR2
 10
-1.0700000000000001
 20
-3.98
 30
1.55
 11
-1.1051471862576141
 21
-3.98
 31
1.634852813742385
 12
-1.1051471862576141
 22
-4.0300000000000011
 32
1.634852813742385
 13
-1.0700000000000001
 23
-4.0300000000000011
 33
1.55
  0
3DFACE
  5
9AA
  8
INTERIOR2
 10
-1.1165153077165051
 20
-3.919999999999999
 30
1.6234846922834949
 11
-1.1051471862576141
 21
-3.98
 31
1.634852813742385
 12
-1.0700000000000001
 22
-3.98
 32
1.5499999999999989
 13
-1.086076951545867
 23
-3.919999999999999
 33
1.5499999999999989
  0
3DFACE
  5
9AB
  8
INTERIOR2
 10
-1.1475735931288069
 20
-3.876076951545866
 30
1.5924264068711931
 11
-1.1165153077165051
 21
-3.919999999999999
 31
1.6234846922834949
 12
-1.086076951545867
 22
-3.919999999999999
 32
1.5499999999999989
 13
-1.1299999999999999
 23
-3.876076951545866
 33
1.5499999999999989
  0
3DFACE
  5
9AC
  8
INTERIOR2
 10
-1.1899999999999999
 20
-3.859999999999999
 30
1.55
 11
-1.1475735931288069
 21
-3.876076951545866
 31
1.5924264068711931
 12
-1.1299999999999999
 22
-3.876076951545866
 32
1.5499999999999989
 13
-1.1899999999999999
 23
-3.859999999999999
 33
1.5499999999999989
  0
3DFACE
  5
9AD
  8
INTERIOR2
 10
-1.1899999999999999
 20
-3.859999999999999
 30
1.55
 11
-1.1899999999999999
 21
-3.876076951545866
 31
1.6100000000000001
 12
-1.1475735931288069
 22
-3.876076951545866
 32
1.5924264068711931
 13
-1.1899999999999999
 23
-3.859999999999999
 33
1.55
  0
3DFACE
  5
9AE
  8
INTERIOR2
 10
-1.1899999999999999
 20
-3.859999999999999
 30
1.55
 11
-1.232426406871193
 21
-3.876076951545866
 31
1.592426406871192
 12
-1.1899999999999999
 22
-3.876076951545866
 32
1.6100000000000001
 13
-1.1899999999999999
 23
-3.859999999999999
 33
1.55
  0
3DFACE
  5
9AF
  8
INTERIOR2
 10
-1.2939230484541331
 20
-3.919999999999999
 30
1.55
 11
-1.3100000000000001
 21
-3.98
 31
1.55
 12
-1.274852813742386
 22
-3.98
 32
1.634852813742385
 13
-1.2634846922834959
 23
-3.919999999999999
 33
1.6234846922834949
  0
3DFACE
  5
9B0
  8
INTERIOR2
 10
-1.25
 20
-3.876076951545866
 30
1.55
 11
-1.2939230484541331
 21
-3.919999999999999
 31
1.55
 12
-1.2634846922834959
 22
-3.919999999999999
 32
1.6234846922834949
 13
-1.232426406871193
 23
-3.876076951545866
 33
1.592426406871192
  0
3DFACE
  5
9B1
  8
INTERIOR2
 10
-1.1899999999999999
 20
-3.859999999999999
 30
1.55
 11
-1.25
 21
-3.876076951545866
 31
1.55
 12
-1.232426406871193
 22
-3.876076951545866
 32
1.592426406871192
 13
-1.1899999999999999
 23
-3.859999999999999
 33
1.55
  0
3DFACE
  5
9B2
  8
INTERIOR2
 10
-1.1051471862576141
 20
-3.98
 30
1.465147186257614
 11
-1.0700000000000001
 21
-3.98
 31
1.55
 12
-1.0700000000000001
 22
-4.0300000000000011
 32
1.55
 13
-1.1051471862576141
 23
-4.0300000000000011
 33
1.465147186257614
  0
3DFACE
  5
9B3
  8
INTERIOR2
 10
-1.1899999999999999
 20
-3.98
 30
1.4299999999999999
 11
-1.1051471862576141
 21
-3.98
 31
1.465147186257614
 12
-1.1051471862576141
 22
-4.0300000000000011
 32
1.465147186257614
 13
-1.1899999999999999
 23
-4.0300000000000011
 33
1.4299999999999999
  0
3DFACE
  5
9B4
  8
INTERIOR2
 10
-1.274852813742386
 20
-3.98
 30
1.465147186257614
 11
-1.1899999999999999
 21
-3.98
 31
1.4299999999999999
 12
-1.1899999999999999
 22
-4.0300000000000011
 32
1.4299999999999999
 13
-1.274852813742386
 23
-4.0300000000000011
 33
1.465147186257614
  0
3DFACE
  5
9B5
  8
INTERIOR2
 10
-1.3100000000000001
 20
-3.98
 30
1.55
 11
-1.274852813742386
 21
-3.98
 31
1.465147186257614
 12
-1.274852813742386
 22
-4.0300000000000011
 32
1.465147186257614
 13
-1.3100000000000001
 23
-4.0300000000000011
 33
1.55
  0
3DFACE
  5
9B6
  8
INTERIOR2
 10
-1.263484692283495
 20
-3.919999999999999
 30
1.4765153077165041
 11
-1.274852813742386
 21
-3.98
 31
1.465147186257614
 12
-1.3100000000000001
 22
-3.98
 32
1.55
 13
-1.2939230484541331
 23
-3.919999999999999
 33
1.55
  0
3DFACE
  5
9B7
  8
INTERIOR2
 10
-1.232426406871193
 20
-3.876076951545866
 30
1.507573593128807
 11
-1.263484692283495
 21
-3.919999999999999
 31
1.4765153077165041
 12
-1.2939230484541331
 22
-3.919999999999999
 32
1.55
 13
-1.25
 23
-3.876076951545866
 33
1.55
  0
3DFACE
  5
9B8
  8
INTERIOR2
 10
-1.1899999999999999
 20
-3.859999999999999
 30
1.55
 11
-1.232426406871193
 21
-3.876076951545866
 31
1.507573593128807
 12
-1.25
 22
-3.876076951545866
 32
1.55
 13
-1.1899999999999999
 23
-3.859999999999999
 33
1.55
  0
3DFACE
  5
9B9
  8
INTERIOR2
 10
-1.1899999999999999
 20
-3.919999999999999
 30
1.4460769515458669
 11
-1.1899999999999999
 21
-3.98
 31
1.4299999999999999
 12
-1.274852813742386
 22
-3.98
 32
1.465147186257614
 13
-1.263484692283495
 23
-3.919999999999999
 33
1.4765153077165041
  0
3DFACE
  5
9BA
  8
INTERIOR2
 10
-1.1899999999999999
 20
-3.876076951545866
 30
1.49
 11
-1.1899999999999999
 21
-3.919999999999999
 31
1.4460769515458669
 12
-1.263484692283495
 22
-3.919999999999999
 32
1.4765153077165041
 13
-1.232426406871193
 23
-3.876076951545866
 33
1.507573593128807
  0
3DFACE
  5
9BB
  8
INTERIOR2
 10
-1.1899999999999999
 20
-3.859999999999999
 30
1.55
 11
-1.1899999999999999
 21
-3.876076951545866
 31
1.49
 12
-1.232426406871193
 22
-3.876076951545866
 32
1.507573593128807
 13
-1.1899999999999999
 23
-3.859999999999999
 33
1.55
  0
3DFACE
  5
9BC
  8
INTERIOR2
 10
-1.1165153077165051
 20
-3.919999999999999
 30
1.4765153077165041
 11
-1.1051471862576141
 21
-3.98
 31
1.465147186257614
 12
-1.1899999999999999
 22
-3.98
 32
1.4299999999999999
 13
-1.1899999999999999
 23
-3.919999999999999
 33
1.4460769515458669
  0
3DFACE
  5
9BD
  8
INTERIOR2
 10
-1.1475735931288069
 20
-3.876076951545866
 30
1.507573593128807
 11
-1.1165153077165051
 21
-3.919999999999999
 31
1.4765153077165041
 12
-1.1899999999999999
 22
-3.919999999999999
 32
1.4460769515458669
 13
-1.1899999999999999
 23
-3.876076951545866
 33
1.49
  0
3DFACE
  5
9BE
  8
INTERIOR2
 10
-1.1899999999999999
 20
-3.859999999999999
 30
1.55
 11
-1.1475735931288069
 21
-3.876076951545866
 31
1.507573593128807
 12
-1.1899999999999999
 22
-3.876076951545866
 32
1.49
 13
-1.1899999999999999
 23
-3.859999999999999
 33
1.55
  0
3DFACE
  5
9BF
  8
INTERIOR2
 10
-1.086076951545867
 20
-3.919999999999999
 30
1.5499999999999989
 11
-1.0700000000000001
 21
-3.98
 31
1.5499999999999989
 12
-1.1051471862576141
 22
-3.98
 32
1.465147186257614
 13
-1.1165153077165051
 23
-3.919999999999999
 33
1.4765153077165041
  0
3DFACE
  5
9C0
  8
INTERIOR2
 10
-1.1299999999999999
 20
-3.876076951545866
 30
1.5499999999999989
 11
-1.086076951545867
 21
-3.919999999999999
 31
1.5499999999999989
 12
-1.1165153077165051
 22
-3.919999999999999
 32
1.4765153077165041
 13
-1.1475735931288069
 23
-3.876076951545866
 33
1.507573593128807
  0
3DFACE
  5
9C1
  8
INTERIOR2
 10
-1.1899999999999999
 20
-3.859999999999999
 30
1.5499999999999989
 11
-1.1299999999999999
 21
-3.876076951545866
 31
1.5499999999999989
 12
-1.1475735931288069
 22
-3.876076951545866
 32
1.507573593128807
 13
-1.1899999999999999
 23
-3.859999999999999
 33
1.55
  0
3DFACE
  5
9C2
  8
INTERIOR2
 10
-1.1899999999999999
 20
-3.98
 30
1.669999999999999
 11
-1.274852813742386
 21
-3.98
 31
1.634852813742385
 12
-1.274852813742386
 22
-4.0300000000000011
 32
1.634852813742385
 13
-1.1899999999999999
 23
-4.0300000000000011
 33
1.669999999999999
  0
3DFACE
  5
9C3
  8
INTERIOR2
 10
-1.1051471862576141
 20
-3.98
 30
1.634852813742385
 11
-1.1899999999999999
 21
-3.98
 31
1.669999999999999
 12
-1.1899999999999999
 22
-4.0300000000000011
 32
1.669999999999999
 13
-1.1051471862576141
 23
-4.0300000000000011
 33
1.634852813742385
  0
3DFACE
  5
9C4
  8
INTERIOR2
 10
-1.1899999999999999
 20
-3.919999999999999
 30
1.6539230484541321
 11
-1.1899999999999999
 21
-3.98
 31
1.669999999999999
 12
-1.1051471862576141
 22
-3.98
 32
1.634852813742385
 13
-1.1165153077165051
 23
-3.919999999999999
 33
1.6234846922834949
  0
3DFACE
  5
9C5
  8
INTERIOR2
 10
-1.1899999999999999
 20
-3.876076951545866
 30
1.6100000000000001
 11
-1.1899999999999999
 21
-3.919999999999999
 31
1.6539230484541321
 12
-1.1165153077165051
 22
-3.919999999999999
 32
1.6234846922834949
 13
-1.1475735931288069
 23
-3.876076951545866
 33
1.5924264068711931
  0
3DFACE
  5
9C6
  8
INTERIOR2
 10
-1.2634846922834959
 20
-3.919999999999999
 30
1.6234846922834949
 11
-1.274852813742386
 21
-3.98
 31
1.634852813742385
 12
-1.1899999999999999
 22
-3.98
 32
1.669999999999999
 13
-1.1899999999999999
 23
-3.919999999999999
 33
1.6539230484541321
  0
3DFACE
  5
9C7
  8
INTERIOR2
 10
-1.232426406871193
 20
-3.876076951545866
 30
1.592426406871192
 11
-1.2634846922834959
 21
-3.919999999999999
 31
1.6234846922834949
 12
-1.1899999999999999
 22
-3.919999999999999
 32
1.6539230484541321
 13
-1.1899999999999999
 23
-3.876076951545866
 33
1.6100000000000001
  0
VIEWPORT
  5
2E
 67
     1
  8
0
 10
144.7270812988281
 20
101.2295806407928
 30
0.0
 40
391.13550988316581
 41
222.15178063964839
 68
     2
 69
     1
1001
ACAD
1000
MVIEW
1002
{
1070
    16
1010
0.0
1020
0.0
1030
0.0
1010
0.0
1020
0.0
1030
1.0
1040
0.0
1040
222.15178063964839
1040
144.7270812988281
1040
101.2295806407928
1040
50.0
1040
0.0
1040
0.0
1070
     0
1070
   100
1070
     1
1070
     1
1070
     0
1070
     0
1070
     0
1070
     0
1040
0.0
1040
0.0
1040
0.0
1040
10.0
1040
10.0
1040
10.0
1040
10.0
1070
     0
1002
{
1002
}
1002
}
  0
VIEWPORT
  5
30
 67
     1
  8
0
 10
139.22375631332389
 20
100.8062499761581
 30
0.0
 40
222.75801010131829
 41
161.289999961853
 68
     1
 69
     2
1001
ACAD
1000
MVIEW
1002
{
1070
    16
1010
0.0
1020
0.0
1030
0.0
1010
0.0
1020
0.0
1030
1.0
1040
0.0
1040
307.49010134148989
1040
210.0
1040
148.5
1040
50.0
1040
0.0
1040
0.0
1070
     0
1070
   100
1070
     1
1070
     3
1070
     0
1070
     1
1070
     0
1070
     0
1040
0.0
1040
0.0
1040
0.0
1040
10.0
1040
10.0
1040
10.0
1040
10.0
1070
     0
1002
{
1002
}
1002
}
  0
ENDSEC
  0
EOF
