  0
SECTION
  2
HEADER
  9
$ACADVER
  1
AC1009
  9
$INSBASE
 10
0.0
 20
0.0
 30
0.0
  9
$EXTMIN
 10
-1.4019803920172591
 20
3.8499999999999992
 30
-1.5999999999999981
  9
$EXTMAX
 10
1.4006406460551051
 20
4.4399999999999986
 30
0.838301270189226
  9
$LIMMIN
 10
0.0
 20
0.0
  9
$LIMMAX
 10
420.0
 20
297.0
  9
$ORTHOMODE
 70
     1
  9
$REGENMODE
 70
     1
  9
$FILLMODE
 70
     1
  9
$QTEXTMODE
 70
     0
  9
$MIRRTEXT
 70
     1
  9
$DRAGMODE
 70
     0
  9
$LTSCALE
 40
1.0
  9
$OSMODE
 70
   551
  9
$ATTMODE
 70
     1
  9
$TEXTSIZE
 40
2.5
  9
$TRACEWID
 40
1.0
  9
$TEXTSTYLE
  7
STANDARD
  9
$CLAYER
  8
PROPELLER
  9
$CELTYPE
  6
BYLAYER
  9
$CECOLOR
 62
   256
  9
$DIMSCALE
 40
1.0
  9
$DIMASZ
 40
2.5
  9
$DIMEXO
 40
0.625
  9
$DIMDLI
 40
3.75
  9
$DIMRND
 40
0.0
  9
$DIMDLE
 40
0.0
  9
$DIMEXE
 40
1.25
  9
$DIMTP
 40
0.0
  9
$DIMTM
 40
0.0
  9
$DIMTXT
 40
2.5
  9
$DIMCEN
 40
2.5
  9
$DIMTSZ
 40
0.0
  9
$DIMTOL
 70
     0
  9
$DIMLIM
 70
     0
  9
$DIMTIH
 70
     0
  9
$DIMTOH
 70
     0
  9
$DIMSE1
 70
     0
  9
$DIMSE2
 70
     0
  9
$DIMTAD
 70
     1
  9
$DIMZIN
 70
     8
  9
$DIMBLK
  1

  9
$DIMASO
 70
     1
  9
$DIMSHO
 70
     1
  9
$DIMPOST
  1

  9
$DIMAPOST
  1

  9
$DIMALT
 70
     0
  9
$DIMALTD
 70
     3
  9
$DIMALTF
 40
0.03937007874016
  9
$DIMLFAC
 40
1.0
  9
$DIMTOFL
 70
     1
  9
$DIMTVP
 40
0.0
  9
$DIMTIX
 70
     0
  9
$DIMSOXD
 70
     0
  9
$DIMSAH
 70
     0
  9
$DIMBLK1
  1

  9
$DIMBLK2
  1

  9
$DIMSTYLE
  2
ISO-25
  9
$DIMCLRD
 70
     0
  9
$DIMCLRE
 70
     0
  9
$DIMCLRT
 70
     0
  9
$DIMTFAC
 40
1.0
  9
$DIMGAP
 40
0.625
  9
$LUNITS
 70
     2
  9
$LUPREC
 70
     4
  9
$SKETCHINC
 40
1.0
  9
$FILLETRAD
 40
10.0
  9
$AUNITS
 70
     0
  9
$AUPREC
 70
     0
  9
$MENU
  1
.
  9
$ELEVATION
 40
0.0
  9
$PELEVATION
 40
0.0
  9
$THICKNESS
 40
0.0
  9
$LIMCHECK
 70
     0
  9
$BLIPMODE
 70
     0
  9
$CHAMFERA
 40
10.0
  9
$CHAMFERB
 40
10.0
  9
$SKPOLY
 70
     0
  9
$TDCREATE
 40
2454504.4837981481
  9
$TDUPDATE
 40
2454504.9451138768
  9
$TDINDWG
 40
0.1913903935
  9
$TDUSRTIMER
 40
0.1913903935
  9
$USRTIMER
 70
     1
  9
$ANGBASE
 50
0.0
  9
$ANGDIR
 70
     0
  9
$PDMODE
 70
     0
  9
$PDSIZE
 40
0.0
  9
$PLINEWID
 40
0.0
  9
$COORDS
 70
     1
  9
$SPLFRAME
 70
     0
  9
$SPLINETYPE
 70
     6
  9
$SPLINESEGS
 70
     8
  9
$ATTDIA
 70
     1
  9
$ATTREQ
 70
     1
  9
$HANDLING
 70
-16383
  9
$HANDSEED
  5
711
  9
$SURFTAB1
 70
     6
  9
$SURFTAB2
 70
     6
  9
$SURFTYPE
 70
     6
  9
$SURFU
 70
     6
  9
$SURFV
 70
     6
  9
$UCSNAME
  2

  9
$UCSORG
 10
0.0
 20
0.0
 30
0.0
  9
$UCSXDIR
 10
1.0
 20
0.0
 30
0.0
  9
$UCSYDIR
 10
0.0
 20
1.0
 30
0.0
  9
$PUCSNAME
  2

  9
$PUCSORG
 10
0.0
 20
0.0
 30
0.0
  9
$PUCSXDIR
 10
1.0
 20
0.0
 30
0.0
  9
$PUCSYDIR
 10
0.0
 20
1.0
 30
0.0
  9
$USERI1
 70
     0
  9
$USERI2
 70
     0
  9
$USERI3
 70
     0
  9
$USERI4
 70
     0
  9
$USERI5
 70
     0
  9
$USERR1
 40
0.0
  9
$USERR2
 40
0.0
  9
$USERR3
 40
0.0
  9
$USERR4
 40
0.0
  9
$USERR5
 40
0.0
  9
$WORLDVIEW
 70
     1
  9
$SHADEDGE
 70
     3
  9
$SHADEDIF
 70
    70
  9
$TILEMODE
 70
     1
  9
$MAXACTVP
 70
    64
  9
$PLIMCHECK
 70
     0
  9
$PEXTMIN
 10
0.0
 20
0.0
 30
0.0
  9
$PEXTMAX
 10
0.0
 20
0.0
 30
0.0
  9
$PLIMMIN
 10
0.0
 20
0.0
  9
$PLIMMAX
 10
12.0
 20
9.0
  9
$UNITMODE
 70
     0
  9
$VISRETAIN
 70
     1
  9
$PLINEGEN
 70
     0
  9
$PSLTSCALE
 70
     1
  0
ENDSEC
  0
SECTION
  2
TABLES
  0
TABLE
  2
VPORT
 70
    24
  0
VPORT
  2
*ACTIVE
 70
     0
 10
0.0
 20
0.0
 11
1.0
 21
1.0
 12
0.3872231080177579
 22
3.646916831610683
 13
0.0
 23
0.0
 14
0.01
 24
0.01
 15
1.0
 25
1.0
 16
0.0
 26
0.0
 36
1.0
 17
0.0
 27
0.0
 37
0.0
 40
4.659341668888386
 41
1.6612612612612609
 42
50.0
 43
0.0
 44
0.0
 50
0.0
 51
0.0
 71
     0
 72
   100
 73
     1
 74
     3
 75
     1
 76
     1
 77
     0
 78
     0
  0
ENDTAB
  0
TABLE
  2
LTYPE
 70
     1
  0
LTYPE
  2
CONTINUOUS
 70
     0
  3
Solid line
 72
    65
 73
     0
 40
0.0
  0
ENDTAB
  0
TABLE
  2
LAYER
 70
     8
  0
LAYER
  2
0
 70
     0
 62
     7
  6
CONTINUOUS
  0
LAYER
  2
DRAWING
 70
     0
 62
     9
  6
CONTINUOUS
  0
LAYER
  2
WING1
 70
     0
 62
     1
  6
CONTINUOUS
  0
LAYER
  2
WING2
 70
     0
 62
     5
  6
CONTINUOUS
  0
LAYER
  2
PROPELLER
 70
     0
 62
     1
  6
CONTINUOUS
  0
LAYER
  2
WHEELS
 70
     0
 62
     2
  6
CONTINUOUS
  0
LAYER
  2
SHASSIS
 70
     0
 62
     3
  6
CONTINUOUS
  0
LAYER
  2
SHASSIS2
 70
     0
 62
     3
  6
CONTINUOUS
  0
ENDTAB
  0
TABLE
  2
STYLE
 70
     1
  0
STYLE
  2
STANDARD
 70
     0
 40
0.0
 41
1.0
 50
0.0
 71
     0
 42
2.5
  3
txt
  4

  0
ENDTAB
  0
TABLE
  2
VIEW
 70
     0
  0
ENDTAB
  0
TABLE
  2
UCS
 70
     0
  0
ENDTAB
  0
TABLE
  2
APPID
 70
     1
  0
APPID
  2
ACAD
 70
     0
  0
ENDTAB
  0
TABLE
  2
DIMSTYLE
 70
     1
  0
DIMSTYLE
  2
ISO-25
 70
     0
  3

  4

  5

  6

  7

 40
1.0
 41
2.5
 42
0.625
 43
3.75
 44
1.25
 45
0.0
 46
0.0
 47
0.0
 48
0.0
140
2.5
141
2.5
142
0.0
143
0.03937007874016
144
1.0
145
0.0
146
1.0
147
0.625
 71
     0
 72
     0
 73
     0
 74
     0
 75
     0
 76
     0
 77
     1
 78
     8
170
     0
171
     3
172
     1
173
     0
174
     0
175
     0
176
     0
177
     0
178
     0
  0
ENDTAB
  0
ENDSEC
  0
SECTION
  2
BLOCKS
  0
BLOCK
  8
0
  2
$MODEL_SPACE
 70
     0
 10
0.0
 20
0.0
 30
0.0
  3
$MODEL_SPACE
  1

  0
ENDBLK
  5
21
  8
0
  0
BLOCK
 67
     1
  8
0
  2
$PAPER_SPACE
 70
     0
 10
0.0
 20
0.0
 30
0.0
  3
$PAPER_SPACE
  1

  0
ENDBLK
  5
53
 67
     1
  8
0
  0
ENDSEC
  0
SECTION
  2
ENTITIES
  0
3DFACE
  5
54F
  8
PROPELLER
 10
0.23
 20
4.0499999999999989
 30
-0.0000000000000044
 11
0.1626345596729059
 21
4.0499999999999989
 31
-0.1626345596729104
 12
0.1414213562373095
 22
4.2000000000000002
 32
-0.1414213562373137
 13
0.2
 23
4.2000000000000002
 33
-0.0000000000000044
  0
3DFACE
  5
550
  8
PROPELLER
 10
0.1626345596729059
 20
4.0499999999999989
 30
-0.1626345596729104
 11
0.0
 21
4.0499999999999989
 31
-0.2300000000000049
 12
0.0
 22
4.2000000000000002
 32
-0.2000000000000037
 13
0.1414213562373095
 23
4.2000000000000002
 33
-0.1414213562373137
  0
3DFACE
  5
551
  8
PROPELLER
 10
0.0
 20
4.0499999999999989
 30
-0.2300000000000049
 11
-0.1626345596729059
 21
4.0499999999999989
 31
-0.1626345596729104
 12
-0.1414213562373095
 22
4.2000000000000002
 32
-0.1414213562373137
 13
0.0
 23
4.2000000000000002
 33
-0.2000000000000037
  0
3DFACE
  5
552
  8
PROPELLER
 10
-0.1626345596729059
 20
4.0499999999999989
 30
-0.1626345596729104
 11
-0.23
 21
4.0499999999999989
 31
-0.0000000000000044
 12
-0.2
 22
4.2000000000000002
 32
-0.0000000000000044
 13
-0.1414213562373095
 23
4.2000000000000002
 33
-0.1414213562373137
  0
3DFACE
  5
553
  8
PROPELLER
 10
-0.23
 20
4.0499999999999989
 30
-0.0000000000000044
 11
-0.162634559672906
 21
4.0499999999999989
 31
0.1626345596729015
 12
-0.1414213562373095
 22
4.2000000000000002
 32
0.1414213562373048
 13
-0.2
 23
4.2000000000000002
 33
-0.0000000000000044
  0
3DFACE
  5
554
  8
PROPELLER
 10
-0.162634559672906
 20
4.0499999999999989
 30
0.1626345596729015
 11
0.0
 21
4.0499999999999989
 31
0.229999999999996
 12
0.0
 22
4.2000000000000002
 32
0.1999999999999948
 13
-0.1414213562373095
 23
4.2000000000000002
 33
0.1414213562373048
  0
3DFACE
  5
555
  8
PROPELLER
 10
0.0
 20
4.0499999999999989
 30
0.229999999999996
 11
0.1626345596729059
 21
4.0499999999999989
 31
0.1626345596729015
 12
0.1414213562373095
 22
4.2000000000000002
 32
0.1414213562373048
 13
0.0
 23
4.2000000000000002
 33
0.1999999999999948
  0
3DFACE
  5
556
  8
PROPELLER
 10
0.1626345596729059
 20
4.0499999999999989
 30
0.1626345596729015
 11
0.23
 21
4.0499999999999989
 31
-0.0000000000000044
 12
0.2
 22
4.2000000000000002
 32
-0.0000000000000044
 13
0.1414213562373095
 23
4.2000000000000002
 33
0.1414213562373048
  0
3DFACE
  5
557
  8
PROPELLER
 10
0.26
 20
3.8499999999999992
 30
-0.000000000000008
 11
0.1838477631085024
 21
3.8499999999999992
 31
-0.1838477631085107
 12
0.1626345596729059
 22
4.0499999999999989
 32
-0.162634559672914
 13
0.23
 23
4.0499999999999989
 33
-0.000000000000008
  0
3DFACE
  5
558
  8
PROPELLER
 10
0.1838477631085024
 20
3.8499999999999992
 30
-0.1838477631085107
 11
0.0
 21
3.8499999999999992
 31
-0.2600000000000096
 12
0.0
 22
4.0499999999999989
 32
-0.2300000000000084
 13
0.1626345596729059
 23
4.0499999999999989
 33
-0.162634559672914
  0
3DFACE
  5
559
  8
PROPELLER
 10
0.0
 20
3.8499999999999992
 30
-0.2600000000000096
 11
-0.1838477631085023
 21
3.8499999999999992
 31
-0.1838477631085107
 12
-0.1626345596729059
 22
4.0499999999999989
 32
-0.162634559672914
 13
0.0
 23
4.0499999999999989
 33
-0.2300000000000084
  0
3DFACE
  5
55A
  8
PROPELLER
 10
-0.1838477631085023
 20
3.8499999999999992
 30
-0.1838477631085107
 11
-0.26
 21
3.8499999999999992
 31
-0.000000000000008
 12
-0.23
 22
4.0499999999999989
 32
-0.000000000000008
 13
-0.1626345596729059
 23
4.0499999999999989
 33
-0.162634559672914
  0
3DFACE
  5
55B
  8
PROPELLER
 10
-0.26
 20
3.8499999999999992
 30
-0.000000000000008
 11
-0.1838477631085024
 21
3.8499999999999992
 31
0.1838477631084947
 12
-0.162634559672906
 22
4.0499999999999989
 32
0.162634559672898
 13
-0.23
 23
4.0499999999999989
 33
-0.000000000000008
  0
3DFACE
  5
55C
  8
PROPELLER
 10
-0.1838477631085024
 20
3.8499999999999992
 30
0.1838477631084947
 11
0.0
 21
3.8499999999999992
 31
0.2599999999999936
 12
0.0
 22
4.0499999999999989
 32
0.2299999999999924
 13
-0.162634559672906
 23
4.0499999999999989
 33
0.162634559672898
  0
3DFACE
  5
55D
  8
PROPELLER
 10
0.0
 20
3.8499999999999992
 30
0.2599999999999936
 11
0.1838477631085023
 21
3.8499999999999992
 31
0.1838477631084947
 12
0.1626345596729059
 22
4.0499999999999989
 32
0.162634559672898
 13
0.0
 23
4.0499999999999989
 33
0.2299999999999924
  0
3DFACE
  5
55E
  8
PROPELLER
 10
0.1838477631085023
 20
3.8499999999999992
 30
0.1838477631084947
 11
0.26
 21
3.8499999999999992
 31
-0.000000000000008
 12
0.23
 22
4.0499999999999989
 32
-0.000000000000008
 13
0.1626345596729059
 23
4.0499999999999989
 33
0.162634559672898
  0
3DFACE
  5
55F
  8
PROPELLER
 10
0.0
 20
4.4399999999999986
 30
-0.0000000000000009
 11
-0.076536686473018
 21
4.3999999999999986
 31
-0.0000000000000009
 12
-0.0541196100146202
 22
4.3999999999999986
 32
0.0541196100146193
 13
0.0
 23
4.4399999999999986
 33
-0.0000000000000009
  0
3DFACE
  5
560
  8
PROPELLER
 10
-0.076536686473018
 20
4.3999999999999986
 30
-0.0000000000000009
 11
-0.1414213562373096
 21
4.3414213562373103
 31
-0.0000000000000009
 12
-0.0999999999999997
 22
4.3414213562373103
 32
0.099999999999997
 13
-0.0541196100146202
 23
4.3999999999999986
 33
0.0541196100146193
  0
3DFACE
  5
561
  8
PROPELLER
 10
-0.1414213562373096
 20
4.3414213562373103
 30
-0.0000000000000009
 11
-0.1847759065022574
 21
4.2400000000000002
 31
-0.0000000000000009
 12
-0.1306562964876381
 22
4.2400000000000002
 32
0.130656296487639
 13
-0.0999999999999997
 23
4.3414213562373103
 33
0.099999999999997
  0
3DFACE
  5
562
  8
PROPELLER
 10
-0.1847759065022574
 20
4.2400000000000002
 30
-0.0000000000000009
 11
-0.2
 21
4.2000000000000002
 31
-0.0000000000000009
 12
-0.1414213562373092
 22
4.2000000000000002
 32
0.1414213562373083
 13
-0.1306562964876381
 23
4.2400000000000002
 33
0.130656296487639
  0
3DFACE
  5
563
  8
PROPELLER
 10
0.0
 20
4.4399999999999986
 30
-0.0000000000000009
 11
-0.0541196100146202
 21
4.3999999999999986
 31
0.0541196100146193
 12
0.0
 22
4.3999999999999986
 32
0.0765366864730153
 13
0.0
 23
4.4399999999999986
 33
-0.0000000000000009
  0
3DFACE
  5
564
  8
PROPELLER
 10
-0.0541196100146202
 20
4.3999999999999986
 30
0.0541196100146193
 11
-0.0999999999999997
 21
4.3414213562373103
 31
0.099999999999997
 12
0.0
 22
4.3414213562373103
 32
0.1414213562373083
 13
0.0
 23
4.3999999999999986
 33
0.0765366864730153
  0
3DFACE
  5
565
  8
PROPELLER
 10
-0.0999999999999997
 20
4.3414213562373103
 30
0.099999999999997
 11
-0.1306562964876381
 21
4.2400000000000002
 31
0.130656296487639
 12
0.0
 22
4.2400000000000002
 32
0.1847759065022556
 13
0.0
 23
4.3414213562373103
 33
0.1414213562373083
  0
3DFACE
  5
566
  8
PROPELLER
 10
-0.1306562964876381
 20
4.2400000000000002
 30
0.130656296487639
 11
-0.1414213562373092
 21
4.2000000000000002
 31
0.1414213562373083
 12
0.0
 22
4.2000000000000002
 32
0.1999999999999984
 13
0.0
 23
4.2400000000000002
 33
0.1847759065022556
  0
3DFACE
  5
567
  8
PROPELLER
 10
0.0
 20
4.4399999999999986
 30
-0.0000000000000009
 11
0.0
 21
4.3999999999999986
 31
0.0765366864730153
 12
0.0541196100146202
 22
4.3999999999999986
 32
0.0541196100146193
 13
0.0
 23
4.4399999999999986
 33
-0.0000000000000009
  0
3DFACE
  5
568
  8
PROPELLER
 10
0.0
 20
4.3999999999999986
 30
0.0765366864730153
 11
0.0
 21
4.3414213562373103
 31
0.1414213562373083
 12
0.0999999999999997
 22
4.3414213562373103
 32
0.1000000000000005
 13
0.0541196100146202
 23
4.3999999999999986
 33
0.0541196100146193
  0
3DFACE
  5
569
  8
PROPELLER
 10
0.0
 20
4.3414213562373103
 30
0.1414213562373083
 11
0.0
 21
4.2400000000000002
 31
0.1847759065022556
 12
0.1306562964876381
 22
4.2400000000000002
 32
0.130656296487639
 13
0.0999999999999997
 23
4.3414213562373103
 33
0.1000000000000005
  0
3DFACE
  5
56A
  8
PROPELLER
 10
0.0
 20
4.2400000000000002
 30
0.1847759065022556
 11
0.0
 21
4.2000000000000002
 31
0.1999999999999984
 12
0.1414213562373092
 22
4.2000000000000002
 32
0.1414213562373119
 13
0.1306562964876381
 23
4.2400000000000002
 33
0.130656296487639
  0
3DFACE
  5
56B
  8
PROPELLER
 10
0.0
 20
4.4399999999999986
 30
-0.0000000000000009
 11
0.0541196100146202
 21
4.3999999999999986
 31
0.0541196100146193
 12
0.076536686473018
 22
4.3999999999999986
 32
-0.0000000000000009
 13
0.0
 23
4.4399999999999986
 33
-0.0000000000000009
  0
3DFACE
  5
56C
  8
PROPELLER
 10
0.0541196100146202
 20
4.3999999999999986
 30
0.0541196100146193
 11
0.0999999999999997
 21
4.3414213562373103
 31
0.1000000000000005
 12
0.1414213562373096
 22
4.3414213562373103
 32
-0.0000000000000009
 13
0.076536686473018
 23
4.3999999999999986
 33
-0.0000000000000009
  0
3DFACE
  5
56D
  8
PROPELLER
 10
0.0999999999999997
 20
4.3414213562373103
 30
0.1000000000000005
 11
0.1306562964876381
 21
4.2400000000000002
 31
0.130656296487639
 12
0.1847759065022574
 22
4.2400000000000002
 32
-0.0000000000000009
 13
0.1414213562373096
 23
4.3414213562373103
 33
-0.0000000000000009
  0
3DFACE
  5
56E
  8
PROPELLER
 10
0.1306562964876381
 20
4.2400000000000002
 30
0.130656296487639
 11
0.1414213562373092
 21
4.2000000000000002
 31
0.1414213562373119
 12
0.2
 22
4.2000000000000002
 32
-0.0000000000000009
 13
0.1847759065022574
 23
4.2400000000000002
 33
-0.0000000000000009
  0
3DFACE
  5
56F
  8
PROPELLER
 10
0.0
 20
4.4399999999999986
 30
-0.0000000000000009
 11
0.076536686473018
 21
4.3999999999999986
 31
-0.0000000000000009
 12
0.0541196100146202
 22
4.3999999999999986
 32
-0.0541196100146211
 13
0.0
 23
4.4399999999999986
 33
-0.0000000000000009
  0
3DFACE
  5
570
  8
PROPELLER
 10
0.076536686473018
 20
4.3999999999999986
 30
-0.0000000000000009
 11
0.1414213562373096
 21
4.3414213562373103
 31
-0.0000000000000009
 12
0.0999999999999997
 22
4.3414213562373103
 32
-0.1000000000000023
 13
0.0541196100146202
 23
4.3999999999999986
 33
-0.0541196100146211
  0
3DFACE
  5
571
  8
PROPELLER
 10
0.1414213562373096
 20
4.3414213562373103
 30
-0.0000000000000009
 11
0.1847759065022574
 21
4.2400000000000002
 31
-0.0000000000000009
 12
0.1306562964876381
 22
4.2400000000000002
 32
-0.1306562964876408
 13
0.0999999999999997
 23
4.3414213562373103
 33
-0.1000000000000023
  0
3DFACE
  5
572
  8
PROPELLER
 10
0.1847759065022574
 20
4.2400000000000002
 30
-0.0000000000000009
 11
0.2
 21
4.2000000000000002
 31
-0.0000000000000009
 12
0.1414213562373092
 22
4.2000000000000002
 32
-0.1414213562373137
 13
0.1306562964876381
 23
4.2400000000000002
 33
-0.1306562964876408
  0
3DFACE
  5
573
  8
PROPELLER
 10
0.0
 20
4.4399999999999986
 30
-0.0000000000000009
 11
0.0541196100146202
 21
4.3999999999999986
 31
-0.0541196100146211
 12
0.0
 22
4.3999999999999986
 32
-0.0765366864730206
 13
0.0
 23
4.4399999999999986
 33
-0.0000000000000009
  0
3DFACE
  5
574
  8
PROPELLER
 10
0.0541196100146202
 20
4.3999999999999986
 30
-0.0541196100146211
 11
0.0999999999999997
 21
4.3414213562373103
 31
-0.1000000000000023
 12
0.0
 22
4.3414213562373103
 32
-0.1414213562373101
 13
0.0
 23
4.3999999999999986
 33
-0.0765366864730206
  0
3DFACE
  5
575
  8
PROPELLER
 10
0.0999999999999997
 20
4.3414213562373103
 30
-0.1000000000000023
 11
0.1306562964876381
 21
4.2400000000000002
 31
-0.1306562964876408
 12
0.0
 22
4.2400000000000002
 32
-0.1847759065022574
 13
0.0
 23
4.3414213562373103
 33
-0.1414213562373101
  0
3DFACE
  5
576
  8
PROPELLER
 10
0.1306562964876381
 20
4.2400000000000002
 30
-0.1306562964876408
 11
0.1414213562373092
 21
4.2000000000000002
 31
-0.1414213562373137
 12
0.0
 22
4.2000000000000002
 32
-0.2000000000000002
 13
0.0
 23
4.2400000000000002
 33
-0.1847759065022574
  0
3DFACE
  5
577
  8
PROPELLER
 10
0.0
 20
4.4399999999999986
 30
-0.0000000000000009
 11
0.0
 21
4.3999999999999986
 31
-0.0765366864730206
 12
-0.0541196100146202
 22
4.3999999999999986
 32
-0.0541196100146211
 13
0.0
 23
4.4399999999999986
 33
-0.0000000000000009
  0
3DFACE
  5
578
  8
PROPELLER
 10
0.0
 20
4.3999999999999986
 30
-0.0765366864730206
 11
0.0
 21
4.3414213562373103
 31
-0.1414213562373101
 12
-0.0999999999999997
 22
4.3414213562373103
 32
-0.0999999999999988
 13
-0.0541196100146202
 23
4.3999999999999986
 33
-0.0541196100146211
  0
3DFACE
  5
579
  8
PROPELLER
 10
0.0
 20
4.3414213562373103
 30
-0.1414213562373101
 11
0.0
 21
4.2400000000000002
 31
-0.1847759065022574
 12
-0.1306562964876381
 22
4.2400000000000002
 32
-0.1306562964876408
 13
-0.0999999999999997
 23
4.3414213562373103
 33
-0.0999999999999988
  0
3DFACE
  5
57A
  8
PROPELLER
 10
0.0
 20
4.2400000000000002
 30
-0.1847759065022574
 11
0.0
 21
4.2000000000000002
 31
-0.2000000000000002
 12
-0.1414213562373092
 22
4.2000000000000002
 32
-0.1414213562373101
 13
-0.1306562964876381
 23
4.2400000000000002
 33
-0.1306562964876408
  0
3DFACE
  5
57B
  8
PROPELLER
 10
0.0
 20
4.4399999999999986
 30
-0.0000000000000009
 11
-0.0541196100146202
 21
4.3999999999999986
 31
-0.0541196100146211
 12
-0.076536686473018
 22
4.3999999999999986
 32
-0.0000000000000009
 13
0.0
 23
4.4399999999999986
 33
-0.0000000000000009
  0
3DFACE
  5
57C
  8
PROPELLER
 10
-0.0541196100146202
 20
4.3999999999999986
 30
-0.0541196100146211
 11
-0.0999999999999997
 21
4.3414213562373103
 31
-0.0999999999999988
 12
-0.1414213562373096
 22
4.3414213562373103
 32
-0.0000000000000009
 13
-0.076536686473018
 23
4.3999999999999986
 33
-0.0000000000000009
  0
3DFACE
  5
57D
  8
PROPELLER
 10
-0.0999999999999997
 20
4.3414213562373103
 30
-0.0999999999999988
 11
-0.1306562964876381
 21
4.2400000000000002
 31
-0.1306562964876408
 12
-0.1847759065022574
 22
4.2400000000000002
 32
-0.0000000000000009
 13
-0.1414213562373096
 23
4.3414213562373103
 33
-0.0000000000000009
  0
3DFACE
  5
57E
  8
PROPELLER
 10
-0.1306562964876381
 20
4.2400000000000002
 30
-0.1306562964876408
 11
-0.1414213562373092
 21
4.2000000000000002
 31
-0.1414213562373101
 12
-0.2
 22
4.2000000000000002
 32
-0.0000000000000009
 13
-0.1847759065022574
 23
4.2400000000000002
 33
-0.0000000000000009
  0
3DFACE
  5
57F
  8
PROPELLER
 10
0.0899999999999999
 20
3.9900000000000002
 30
-0.0099999999999989
 11
0.0899999999999999
 21
3.9900000000000002
 31
-0.2599999999999989
 12
-0.1000000000000005
 22
3.9900000000000002
 32
-0.2599999999999989
 13
-0.1000000000000005
 23
3.9900000000000002
 33
-0.0085786437626938
  0
3DFACE
  5
580
  8
PROPELLER
 10
0.0899999999999999
 20
3.9900000000000002
 30
-0.2599999999999989
 11
0.0599999999999996
 21
3.9900000000000002
 31
-0.299999999999998
 12
-0.0700000000000003
 22
3.9900000000000002
 32
-0.299999999999998
 13
-0.1000000000000005
 23
3.9900000000000002
 33
-0.2599999999999989
  0
3DFACE
  5
581
  8
PROPELLER
 10
0.0599999999999996
 20
3.9900000000000002
 30
-0.299999999999998
 11
0.0599999999999996
 21
3.9900000000000002
 31
-0.3999999999999995
 12
-0.0700000000000003
 22
3.9900000000000002
 32
-0.4399999999999987
 13
-0.0700000000000003
 23
3.9900000000000002
 33
-0.299999999999998
  0
3DFACE
  5
582
  8
PROPELLER
 10
0.0599999999999996
 20
3.9900000000000002
 30
-0.3999999999999995
 11
0.1099999999999994
 21
3.9900000000000002
 31
-0.6899999999999987
 12
-0.1400000000000006
 22
3.9900000000000002
 32
-0.6899999999999987
 13
-0.0700000000000003
 23
3.9900000000000002
 33
-0.4399999999999987
  0
3DFACE
  5
583
  8
PROPELLER
 10
0.1099999999999994
 20
3.9900000000000002
 30
-0.6899999999999987
 11
0.129999999999999
 21
3.9900000000000002
 31
-0.9099999999999974
 12
-0.1600000000000001
 22
3.9900000000000002
 32
-0.9399999999999986
 13
-0.1400000000000006
 23
3.9900000000000002
 33
-0.6899999999999987
  0
3DFACE
  5
584
  8
PROPELLER
 10
0.129999999999999
 20
3.9900000000000002
 30
-0.9099999999999974
 11
0.129999999999999
 21
3.9900000000000002
 31
-1.1299999999999959
 12
-0.1600000000000001
 22
3.9900000000000002
 32
-1.129999999999999
 13
-0.1600000000000001
 23
3.9900000000000002
 33
-0.9399999999999986
  0
3DFACE
  5
585
  8
PROPELLER
 10
0.129999999999999
 20
3.9900000000000002
 30
-1.129999999999999
 11
0.1099999999999994
 21
3.9900000000000002
 31
-1.3499999999999981
 12
-0.1300000000000008
 22
3.9900000000000002
 32
-1.3500000000000021
 13
-0.1600000000000001
 23
3.9900000000000002
 33
-1.129999999999999
  0
3DFACE
  5
586
  8
PROPELLER
 10
0.1099999999999994
 20
3.9900000000000002
 30
-1.3499999999999981
 11
0.0899999999999999
 21
3.9900000000000002
 31
-1.4699999999999991
 12
-0.0800000000000001
 22
3.9900000000000002
 32
-1.4999999999999969
 13
-0.1300000000000008
 23
3.9900000000000002
 33
-1.3499999999999981
  0
3DFACE
  5
587
  8
PROPELLER
 10
0.0899999999999999
 20
3.9900000000000002
 30
-1.4699999999999991
 11
0.0499999999999989
 21
3.9900000000000002
 31
-1.5900000000000001
 12
-0.0300000000000003
 22
3.9900000000000002
 32
-1.5999999999999981
 13
-0.0800000000000001
 23
3.9900000000000002
 33
-1.4999999999999969
  0
3DFACE
  5
588
  8
PROPELLER
 10
0.3164101615137778
 20
3.9900000000000002
 30
0.2519615242270694
 11
0.5425575286112636
 21
3.9900000000000002
 31
0.4402627944162907
 12
0.6675575286112636
 22
3.9900000000000002
 32
0.2237564434701822
 13
0.416051177665155
 23
3.9900000000000002
 33
0.1593782217350919
  0
3DFACE
  5
589
  8
PROPELLER
 10
1.1141342951089941
 20
3.9900000000000002
 30
0.7702627944162926
 11
1.228057343563127
 21
3.9900000000000002
 31
0.8129422863406032
 12
1.339038105676658
 22
3.9900000000000002
 32
0.6807179676972474
 13
1.234134295108994
 23
3.9900000000000002
 33
0.5624166975080263
  0
3DFACE
  5
58A
  8
PROPELLER
 10
1.228057343563127
 20
3.9900000000000002
 30
0.8129422863406032
 11
1.3519803920172599
 21
3.9900000000000002
 31
0.838301270189226
 12
1.4006406460551051
 22
3.9900000000000002
 32
0.7740192378864697
 13
1.339038105676658
 23
3.9900000000000002
 33
0.6807179676972474
  0
3DFACE
  5
58B
  8
PROPELLER
 10
0.7230831174438404
 20
3.9900000000000002
 30
0.5675833024919781
 11
0.9136087062764151
 21
3.9900000000000002
 31
0.6775833024919776
 12
1.058608706276418
 22
3.9900000000000002
 32
0.4264359353944931
 13
0.8940638795573737
 23
3.9900000000000002
 33
0.3314359353944907
  0
3DFACE
  5
58C
  8
PROPELLER
 10
0.9136087062764186
 20
3.9900000000000002
 30
0.6775833024919811
 11
1.1141342951089941
 21
3.9900000000000002
 31
0.7702627944162926
 12
1.2341342951089971
 22
3.9900000000000002
 32
0.5624166975080298
 13
1.058608706276418
 23
3.9900000000000002
 33
0.4264359353944931
  0
3DFACE
  5
58D
  8
PROPELLER
 10
0.5425575286112636
 20
3.9900000000000002
 30
0.4402627944162907
 11
0.7230831174438404
 21
3.9900000000000002
 31
0.5675833024919781
 12
0.8940638795573737
 22
3.9900000000000002
 32
0.3314359353944907
 13
0.6675575286112636
 23
3.9900000000000002
 33
0.2237564434701822
  0
3DFACE
  5
58E
  8
PROPELLER
 10
-0.0363397459621542
 20
3.9900000000000002
 30
0.0829422863406029
 11
0.1801666049839579
 21
3.9900000000000002
 31
0.2079422863406028
 12
0.2751666049839567
 22
3.9900000000000002
 32
0.0433974596215583
 13
0.0574293234285133
 23
3.9900000000000002
 33
-0.0823132184970925
  0
3DFACE
  5
58F
  8
PROPELLER
 10
0.2298076211353344
 20
3.9900000000000002
 30
0.2019615242270687
 11
0.3164101615137778
 21
3.9900000000000002
 31
0.2519615242270694
 12
0.416051177665155
 22
3.9900000000000002
 32
0.1593782217350919
 13
0.2948076211353321
 23
3.9900000000000002
 33
0.0893782217350916
  0
3DFACE
  5
590
  8
PROPELLER
 10
0.1801666049839579
 20
3.9900000000000002
 30
0.2079422863406028
 11
0.2298076211353344
 21
3.9900000000000002
 31
0.2019615242270687
 12
0.2948076211353321
 22
3.9900000000000002
 32
0.0893782217350916
 13
0.2751666049839567
 23
3.9900000000000002
 33
0.0433974596215583
  0
3DFACE
  5
591
  8
PROPELLER
 10
-0.3764101615137783
 20
3.9900000000000002
 30
0.148038475772938
 11
-0.6525575286112632
 21
3.9900000000000002
 31
0.2497372055837159
 12
-0.5275575286112632
 22
3.9900000000000002
 32
0.466243556529828
 13
-0.3460511776651547
 23
3.9900000000000002
 33
0.2806217782649183
  0
3DFACE
  5
592
  8
PROPELLER
 10
-1.224134295108992
 20
3.9900000000000002
 30
0.5797372055837178
 11
-1.3180573435631251
 21
3.9900000000000011
 31
0.6570577136594081
 12
-1.259038105676658
 22
3.9900000000000011
 32
0.8192820323027616
 13
-1.104134295108993
 23
3.9900000000000002
 33
0.7875833024919841
  0
3DFACE
  5
593
  8
PROPELLER
 10
-1.3180573435631251
 20
3.9900000000000011
 30
0.6570577136594081
 11
-1.4019803920172591
 21
3.9900000000000011
 31
0.7516987298107863
 12
-1.3706406460551039
 22
3.9900000000000011
 32
0.8259807621135406
 13
-1.259038105676658
 23
3.9900000000000011
 33
0.8192820323027616
  0
3DFACE
  5
594
  8
PROPELLER
 10
-0.8530831174438393
 20
3.9900000000000002
 30
0.3424166975080309
 11
-1.0436087062764141
 21
3.9900000000000002
 31
0.4524166975080304
 12
-0.898608706276418
 22
3.9900000000000002
 32
0.7035640646055184
 13
-0.7340638795573735
 23
3.9900000000000002
 33
0.608564064605516
  0
3DFACE
  5
595
  8
PROPELLER
 10
-1.043608706276417
 20
3.9900000000000002
 30
0.4524166975080304
 11
-1.224134295108992
 21
3.9900000000000002
 31
0.5797372055837178
 12
-1.1041342951089961
 22
3.9900000000000002
 32
0.7875833024919841
 13
-0.898608706276418
 23
3.9900000000000002
 33
0.7035640646055184
  0
3DFACE
  5
596
  8
PROPELLER
 10
-0.6525575286112632
 20
3.9900000000000002
 30
0.2497372055837159
 11
-0.8530831174438393
 21
3.9900000000000002
 31
0.3424166975080309
 12
-0.7340638795573735
 22
3.9900000000000002
 32
0.608564064605516
 13
-0.5275575286112632
 23
3.9900000000000002
 33
0.466243556529828
  0
3DFACE
  5
597
  8
PROPELLER
 10
-0.0536602540378457
 20
3.9900000000000002
 30
-0.072942286340596
 11
-0.2701666049839559
 21
3.9900000000000002
 31
0.0520577136594076
 12
-0.1751666049839553
 22
3.9900000000000002
 32
0.2166025403784486
 13
0.0425706765714882
 23
3.9900000000000002
 33
0.0908918622597979
  0
3DFACE
  5
598
  8
PROPELLER
 10
-0.2898076211353313
 20
3.9900000000000002
 30
0.0980384757729409
 11
-0.3764101615137783
 21
3.9900000000000002
 31
0.148038475772938
 12
-0.3460511776651547
 22
3.9900000000000002
 32
0.2806217782649183
 13
-0.2248076211353318
 23
3.9900000000000002
 33
0.210621778264918
  0
3DFACE
  5
599
  8
PROPELLER
 10
-0.2701666049839559
 20
3.9900000000000002
 30
0.0520577136594076
 11
-0.2898076211353313
 21
3.9900000000000002
 31
0.0980384757729409
 12
-0.2248076211353318
 22
3.9900000000000002
 32
0.210621778264918
 13
-0.1751666049839553
 23
3.9900000000000002
 33
0.2166025403784486
  0
ENDSEC
  0
EOF
