  0
SECTION
  2
HEADER
  9
$ACADVER
  1
AC1009
  9
$INSBASE
 10
0.0
 20
0.0
 30
0.0
  9
$EXTMIN
 10
-1.0700000000000001
 20
-2.1899999999999999
 30
-0.48
  9
$EXTMAX
 10
1.0700000000000001
 20
2.9900000000000002
 30
0.9299999999999998
  9
$LIMMIN
 10
0.0
 20
0.0
  9
$LIMMAX
 10
420.0
 20
297.0
  9
$ORTHOMODE
 70
     1
  9
$REGENMODE
 70
     1
  9
$FILLMODE
 70
     1
  9
$QTEXTMODE
 70
     0
  9
$MIRRTEXT
 70
     1
  9
$DRAGMODE
 70
     2
  9
$LTSCALE
 40
1.0
  9
$OSMODE
 70
    35
  9
$ATTMODE
 70
     1
  9
$TEXTSIZE
 40
2.5
  9
$TRACEWID
 40
1.0
  9
$TEXTSTYLE
  7
STANDARD
  9
$CLAYER
  8
WHEELS
  9
$CELTYPE
  6
BYLAYER
  9
$CECOLOR
 62
   256
  9
$DIMSCALE
 40
1.0
  9
$DIMASZ
 40
2.5
  9
$DIMEXO
 40
0.625
  9
$DIMDLI
 40
3.75
  9
$DIMRND
 40
0.0
  9
$DIMDLE
 40
0.0
  9
$DIMEXE
 40
1.25
  9
$DIMTP
 40
0.0
  9
$DIMTM
 40
0.0
  9
$DIMTXT
 40
2.5
  9
$DIMCEN
 40
2.5
  9
$DIMTSZ
 40
0.0
  9
$DIMTOL
 70
     0
  9
$DIMLIM
 70
     0
  9
$DIMTIH
 70
     0
  9
$DIMTOH
 70
     0
  9
$DIMSE1
 70
     0
  9
$DIMSE2
 70
     0
  9
$DIMTAD
 70
     1
  9
$DIMZIN
 70
     8
  9
$DIMBLK
  1

  9
$DIMASO
 70
     1
  9
$DIMSHO
 70
     1
  9
$DIMPOST
  1

  9
$DIMAPOST
  1

  9
$DIMALT
 70
     0
  9
$DIMALTD
 70
     3
  9
$DIMALTF
 40
0.03937007874016
  9
$DIMLFAC
 40
1.0
  9
$DIMTOFL
 70
     1
  9
$DIMTVP
 40
0.0
  9
$DIMTIX
 70
     0
  9
$DIMSOXD
 70
     0
  9
$DIMSAH
 70
     0
  9
$DIMBLK1
  1

  9
$DIMBLK2
  1

  9
$DIMSTYLE
  2
ISO-25
  9
$DIMCLRD
 70
     0
  9
$DIMCLRE
 70
     0
  9
$DIMCLRT
 70
     0
  9
$DIMTFAC
 40
1.0
  9
$DIMGAP
 40
0.625
  9
$LUNITS
 70
     2
  9
$LUPREC
 70
     4
  9
$SKETCHINC
 40
1.0
  9
$FILLETRAD
 40
10.0
  9
$AUNITS
 70
     0
  9
$AUPREC
 70
     0
  9
$MENU
  1
.
  9
$ELEVATION
 40
0.0
  9
$PELEVATION
 40
0.0
  9
$THICKNESS
 40
0.0
  9
$LIMCHECK
 70
     0
  9
$BLIPMODE
 70
     0
  9
$CHAMFERA
 40
10.0
  9
$CHAMFERB
 40
10.0
  9
$SKPOLY
 70
     0
  9
$TDCREATE
 40
2457211.0131720481
  9
$TDUPDATE
 40
2457635.8405787488
  9
$TDINDWG
 40
1.5208661921
  9
$TDUSRTIMER
 40
1.5208661921
  9
$USRTIMER
 70
     1
  9
$ANGBASE
 50
0.0
  9
$ANGDIR
 70
     0
  9
$PDMODE
 70
     0
  9
$PDSIZE
 40
0.0
  9
$PLINEWID
 40
0.0
  9
$COORDS
 70
     1
  9
$SPLFRAME
 70
     0
  9
$SPLINETYPE
 70
     6
  9
$SPLINESEGS
 70
     8
  9
$ATTDIA
 70
     1
  9
$ATTREQ
 70
     1
  9
$HANDLING
 70
-16383
  9
$HANDSEED
  5
3C0C
  9
$SURFTAB1
 70
     6
  9
$SURFTAB2
 70
     6
  9
$SURFTYPE
 70
     6
  9
$SURFU
 70
     6
  9
$SURFV
 70
     6
  9
$UCSNAME
  2

  9
$UCSORG
 10
0.0
 20
0.0
 30
0.0
  9
$UCSXDIR
 10
0.0
 20
-1.0
 30
0.0
  9
$UCSYDIR
 10
0.0
 20
0.0
 30
1.0
  9
$PUCSNAME
  2

  9
$PUCSORG
 10
0.0
 20
0.0
 30
0.0
  9
$PUCSXDIR
 10
1.0
 20
0.0
 30
0.0
  9
$PUCSYDIR
 10
0.0
 20
1.0
 30
0.0
  9
$USERI1
 70
     0
  9
$USERI2
 70
     0
  9
$USERI3
 70
     0
  9
$USERI4
 70
     0
  9
$USERI5
 70
     0
  9
$USERR1
 40
0.0
  9
$USERR2
 40
0.0
  9
$USERR3
 40
0.0
  9
$USERR4
 40
0.0
  9
$USERR5
 40
0.0
  9
$WORLDVIEW
 70
     1
  9
$SHADEDGE
 70
     3
  9
$SHADEDIF
 70
    70
  9
$TILEMODE
 70
     1
  9
$MAXACTVP
 70
    64
  9
$PLIMCHECK
 70
     0
  9
$PEXTMIN
 10
27.844751262664801
 20
20.161249995231621
 30
0.0
  9
$PEXTMAX
 10
250.60276136398309
 20
181.4512499570846
 30
0.0
  9
$PLIMMIN
 10
-3.757080078125
 20
-3.7570831775665279
  9
$PLIMMAX
 10
293.21124267578119
 20
206.21624445915219
  9
$UNITMODE
 70
     0
  9
$VISRETAIN
 70
     1
  9
$PLINEGEN
 70
     0
  9
$PSLTSCALE
 70
     1
  0
ENDSEC
  0
SECTION
  2
TABLES
  0
TABLE
  2
VPORT
 70
     7
  0
VPORT
  2
*ACTIVE
 70
     0
 10
0.0
 20
0.0
 11
1.0
 21
1.0
 12
0.5519414794078124
 22
0.4264533538787956
 13
0.0
 23
0.0
 14
0.01
 24
0.01
 15
1.0
 25
1.0
 16
-1.0
 26
0.0
 36
0.0
 17
0.0
 27
0.0
 37
0.0
 40
2.3036187165769642
 41
2.1655092592592591
 42
50.0
 43
0.0
 44
0.0
 50
0.0
 51
0.0
 71
     0
 72
   100
 73
     1
 74
     3
 75
     1
 76
     1
 77
     0
 78
     0
  0
ENDTAB
  0
TABLE
  2
LTYPE
 70
     1
  0
LTYPE
  2
CONTINUOUS
 70
     0
  3
Solid line
 72
    65
 73
     0
 40
0.0
  0
ENDTAB
  0
TABLE
  2
LAYER
 70
    16
  0
LAYER
  2
0
 70
     0
 62
     7
  6
CONTINUOUS
  0
LAYER
  2
DRAWING
 70
     0
 62
     9
  6
CONTINUOUS
  0
LAYER
  2
SEATS
 70
     0
 62
     3
  6
CONTINUOUS
  0
LAYER
  2
INTERNALS
 70
     0
 62
     5
  6
CONTINUOUS
  0
LAYER
  2
TMP
 70
     0
 62
     4
  6
CONTINUOUS
  0
LAYER
  2
FENDERS
 70
     0
 62
     6
  6
CONTINUOUS
  0
LAYER
  2
ROLLER
 70
     0
 62
     6
  6
CONTINUOUS
  0
LAYER
  2
WHEELS
 70
     0
 62
     2
  6
CONTINUOUS
  0
LAYER
  2
SUSPENSION
 70
     0
 62
     5
  6
CONTINUOUS
  0
LAYER
  2
TRACKS
 70
     0
 62
     3
  6
CONTINUOUS
  0
LAYER
  2
CANS
 70
     0
 62
     3
  6
CONTINUOUS
  0
LAYER
  2
TURRET
 70
     0
 62
     2
  6
CONTINUOUS
  0
LAYER
  2
GUN
 70
     0
 62
     1
  6
CONTINUOUS
  0
LAYER
  2
WINDSCREEN_COVER
 70
     0
 62
     1
  6
CONTINUOUS
  0
LAYER
  2
TOOLS
 70
     0
 62
     3
  6
CONTINUOUS
  0
LAYER
  2
SUPPORTS
 70
     0
 62
     4
  6
CONTINUOUS
  0
ENDTAB
  0
TABLE
  2
STYLE
 70
     1
  0
STYLE
  2
STANDARD
 70
     0
 40
0.0
 41
1.0
 50
0.0
 71
     0
 42
2.5
  3
txt
  4

  0
ENDTAB
  0
TABLE
  2
VIEW
 70
     0
  0
ENDTAB
  0
TABLE
  2
UCS
 70
     0
  0
ENDTAB
  0
TABLE
  2
APPID
 70
     2
  0
APPID
  2
ACAD
 70
     0
  0
APPID
  2
CONTENTBLOCKICON
 70
     0
  0
ENDTAB
  0
TABLE
  2
DIMSTYLE
 70
     1
  0
DIMSTYLE
  2
ISO-25
 70
     0
  3

  4

  5

  6

  7

 40
1.0
 41
2.5
 42
0.625
 43
3.75
 44
1.25
 45
0.0
 46
0.0
 47
0.0
 48
0.0
140
2.5
141
2.5
142
0.0
143
0.03937007874016
144
1.0
145
0.0
146
1.0
147
0.625
 71
     0
 72
     0
 73
     0
 74
     0
 75
     0
 76
     0
 77
     1
 78
     8
170
     0
171
     3
172
     1
173
     0
174
     0
175
     0
176
     0
177
     0
178
     0
  0
ENDTAB
  0
ENDSEC
  0
SECTION
  2
BLOCKS
  0
BLOCK
  8
0
  2
$MODEL_SPACE
 70
     0
 10
0.0
 20
0.0
 30
0.0
  3
$MODEL_SPACE
  1

  0
ENDBLK
  5
21
  8
0
  0
BLOCK
 67
     1
  8
0
  2
$PAPER_SPACE
 70
     0
 10
0.0
 20
0.0
 30
0.0
  3
$PAPER_SPACE
  1

  0
ENDBLK
  5
1D
 67
     1
  8
0
  0
BLOCK
  8
0
  2
ZZZ
 70
     0
 10
0.0
 20
0.0
 30
0.0
  3
ZZZ
  1

  0
POLYLINE
  5
1D41
  8
SUSPENSION
 66
     1
 10
0.0
 20
0.0
 30
0.0
 70
    17
 71
     8
 72
     9
  0
VERTEX
  5
1D42
  8
SUSPENSION
 10
0.04
 20
-1.7099999999999991
 30
0.4500000000000001
 70
    64
  0
VERTEX
  5
1D43
  8
SUSPENSION
 10
0.0544628888228555
 20
-1.637290147850633
 30
0.4500000000000001
 70
    64
  0
VERTEX
  5
1D44
  8
SUSPENSION
 10
0.095649711574556
 20
-1.575649711574556
 30
0.4500000000000001
 70
    64
  0
VERTEX
  5
1D45
  8
SUSPENSION
 10
0.1572901478506329
 20
-1.5344628888228551
 30
0.45
 70
    64
  0
VERTEX
  5
1D46
  8
SUSPENSION
 10
0.23
 20
-1.52
 30
0.45
 70
    64
  0
VERTEX
  5
1D47
  8
SUSPENSION
 10
0.302709852149367
 20
-1.5344628888228551
 30
0.45
 70
    64
  0
VERTEX
  5
1D48
  8
SUSPENSION
 10
0.364350288425444
 20
-1.575649711574556
 30
0.45
 70
    64
  0
VERTEX
  5
1D49
  8
SUSPENSION
 10
0.4055371111771446
 20
-1.637290147850633
 30
0.45
 70
    64
  0
VERTEX
  5
1D4A
  8
SUSPENSION
 10
0.4200000000000001
 20
-1.7099999999999991
 30
0.45
 70
    64
  0
VERTEX
  5
1D4B
  8
SUSPENSION
 10
0.04
 20
-1.7099999999999991
 30
0.45
 70
    64
  0
VERTEX
  5
1D4C
  8
SUSPENSION
 10
0.0544628888228555
 20
-1.658586370486111
 30
0.3985863704861112
 70
    64
  0
VERTEX
  5
1D4D
  8
SUSPENSION
 10
0.095649711574556
 20
-1.6149999999999991
 30
0.355
 70
    64
  0
VERTEX
  5
1D4E
  8
SUSPENSION
 10
0.1572901478506329
 20
-1.585876518336744
 30
0.3258765183367442
 70
    64
  0
VERTEX
  5
1D4F
  8
SUSPENSION
 10
0.2299999999999999
 20
-1.575649711574556
 30
0.315649711574556
 70
    64
  0
VERTEX
  5
1D50
  8
SUSPENSION
 10
0.302709852149367
 20
-1.585876518336744
 30
0.3258765183367442
 70
    64
  0
VERTEX
  5
1D51
  8
SUSPENSION
 10
0.364350288425444
 20
-1.615
 30
0.355
 70
    64
  0
VERTEX
  5
1D52
  8
SUSPENSION
 10
0.4055371111771446
 20
-1.658586370486111
 30
0.3985863704861112
 70
    64
  0
VERTEX
  5
1D53
  8
SUSPENSION
 10
0.4200000000000001
 20
-1.7099999999999991
 30
0.45
 70
    64
  0
VERTEX
  5
1D54
  8
SUSPENSION
 10
0.04
 20
-1.7099999999999991
 30
0.45
 70
    64
  0
VERTEX
  5
1D55
  8
SUSPENSION
 10
0.0544628888228555
 20
-1.7099999999999991
 30
0.377290147850633
 70
    64
  0
VERTEX
  5
1D56
  8
SUSPENSION
 10
0.095649711574556
 20
-1.7099999999999991
 30
0.315649711574556
 70
    64
  0
VERTEX
  5
1D57
  8
SUSPENSION
 10
0.1572901478506329
 20
-1.7099999999999991
 30
0.2744628888228555
 70
    64
  0
VERTEX
  5
1D58
  8
SUSPENSION
 10
0.2299999999999999
 20
-1.7099999999999991
 30
0.26
 70
    64
  0
VERTEX
  5
1D59
  8
SUSPENSION
 10
0.302709852149367
 20
-1.7099999999999991
 30
0.2744628888228555
 70
    64
  0
VERTEX
  5
1D5A
  8
SUSPENSION
 10
0.364350288425444
 20
-1.7099999999999991
 30
0.315649711574556
 70
    64
  0
VERTEX
  5
1D5B
  8
SUSPENSION
 10
0.4055371111771445
 20
-1.7099999999999991
 30
0.377290147850633
 70
    64
  0
VERTEX
  5
1D5C
  8
SUSPENSION
 10
0.4200000000000001
 20
-1.7099999999999991
 30
0.45
 70
    64
  0
VERTEX
  5
1D5D
  8
SUSPENSION
 10
0.04
 20
-1.7099999999999991
 30
0.45
 70
    64
  0
VERTEX
  5
1D5E
  8
SUSPENSION
 10
0.0544628888228555
 20
-1.761413629513888
 30
0.3985863704861112
 70
    64
  0
VERTEX
  5
1D5F
  8
SUSPENSION
 10
0.095649711574556
 20
-1.804999999999999
 30
0.355
 70
    64
  0
VERTEX
  5
1D60
  8
SUSPENSION
 10
0.1572901478506329
 20
-1.834123481663255
 30
0.3258765183367442
 70
    64
  0
VERTEX
  5
1D61
  8
SUSPENSION
 10
0.2299999999999999
 20
-1.844350288425443
 30
0.315649711574556
 70
    64
  0
VERTEX
  5
1D62
  8
SUSPENSION
 10
0.302709852149367
 20
-1.834123481663255
 30
0.3258765183367442
 70
    64
  0
VERTEX
  5
1D63
  8
SUSPENSION
 10
0.364350288425444
 20
-1.804999999999999
 30
0.3550000000000001
 70
    64
  0
VERTEX
  5
1D64
  8
SUSPENSION
 10
0.4055371111771445
 20
-1.761413629513888
 30
0.3985863704861113
 70
    64
  0
VERTEX
  5
1D65
  8
SUSPENSION
 10
0.4200000000000001
 20
-1.7099999999999991
 30
0.4500000000000001
 70
    64
  0
VERTEX
  5
1D66
  8
SUSPENSION
 10
0.04
 20
-1.7099999999999991
 30
0.4500000000000001
 70
    64
  0
VERTEX
  5
1D67
  8
SUSPENSION
 10
0.0544628888228555
 20
-1.7827098521493661
 30
0.45
 70
    64
  0
VERTEX
  5
1D68
  8
SUSPENSION
 10
0.095649711574556
 20
-1.844350288425443
 30
0.45
 70
    64
  0
VERTEX
  5
1D69
  8
SUSPENSION
 10
0.1572901478506329
 20
-1.885537111177144
 30
0.45
 70
    64
  0
VERTEX
  5
1D6A
  8
SUSPENSION
 10
0.23
 20
-1.8999999999999999
 30
0.45
 70
    64
  0
VERTEX
  5
1D6B
  8
SUSPENSION
 10
0.302709852149367
 20
-1.885537111177144
 30
0.45
 70
    64
  0
VERTEX
  5
1D6C
  8
SUSPENSION
 10
0.364350288425444
 20
-1.844350288425443
 30
0.45
 70
    64
  0
VERTEX
  5
1D6D
  8
SUSPENSION
 10
0.4055371111771446
 20
-1.7827098521493661
 30
0.45
 70
    64
  0
VERTEX
  5
1D6E
  8
SUSPENSION
 10
0.4200000000000001
 20
-1.7099999999999991
 30
0.45
 70
    64
  0
VERTEX
  5
1D6F
  8
SUSPENSION
 10
0.04
 20
-1.7099999999999991
 30
0.45
 70
    64
  0
VERTEX
  5
1D70
  8
SUSPENSION
 10
0.0544628888228555
 20
-1.761413629513888
 30
0.5014136295138887
 70
    64
  0
VERTEX
  5
1D71
  8
SUSPENSION
 10
0.095649711574556
 20
-1.804999999999999
 30
0.545
 70
    64
  0
VERTEX
  5
1D72
  8
SUSPENSION
 10
0.157290147850633
 20
-1.834123481663255
 30
0.5741234816632557
 70
    64
  0
VERTEX
  5
1D73
  8
SUSPENSION
 10
0.23
 20
-1.8443502884254439
 30
0.584350288425444
 70
    64
  0
VERTEX
  5
1D74
  8
SUSPENSION
 10
0.3027098521493671
 20
-1.834123481663255
 30
0.5741234816632557
 70
    64
  0
VERTEX
  5
1D75
  8
SUSPENSION
 10
0.364350288425444
 20
-1.804999999999999
 30
0.545
 70
    64
  0
VERTEX
  5
1D76
  8
SUSPENSION
 10
0.4055371111771446
 20
-1.761413629513888
 30
0.5014136295138887
 70
    64
  0
VERTEX
  5
1D77
  8
SUSPENSION
 10
0.4200000000000001
 20
-1.7099999999999991
 30
0.45
 70
    64
  0
VERTEX
  5
1D78
  8
SUSPENSION
 10
0.04
 20
-1.7099999999999991
 30
0.4500000000000002
 70
    64
  0
VERTEX
  5
1D79
  8
SUSPENSION
 10
0.0544628888228555
 20
-1.7099999999999991
 30
0.5227098521493672
 70
    64
  0
VERTEX
  5
1D7A
  8
SUSPENSION
 10
0.095649711574556
 20
-1.7099999999999991
 30
0.5843502884254442
 70
    64
  0
VERTEX
  5
1D7B
  8
SUSPENSION
 10
0.157290147850633
 20
-1.7099999999999991
 30
0.6255371111771446
 70
    64
  0
VERTEX
  5
1D7C
  8
SUSPENSION
 10
0.23
 20
-1.7099999999999991
 30
0.6400000000000002
 70
    64
  0
VERTEX
  5
1D7D
  8
SUSPENSION
 10
0.3027098521493671
 20
-1.7099999999999991
 30
0.6255371111771446
 70
    64
  0
VERTEX
  5
1D7E
  8
SUSPENSION
 10
0.3643502884254441
 20
-1.7099999999999991
 30
0.5843502884254442
 70
    64
  0
VERTEX
  5
1D7F
  8
SUSPENSION
 10
0.4055371111771446
 20
-1.7099999999999991
 30
0.5227098521493672
 70
    64
  0
VERTEX
  5
1D80
  8
SUSPENSION
 10
0.4200000000000001
 20
-1.7099999999999991
 30
0.4500000000000002
 70
    64
  0
VERTEX
  5
1D81
  8
SUSPENSION
 10
0.04
 20
-1.7099999999999991
 30
0.4500000000000002
 70
    64
  0
VERTEX
  5
1D82
  8
SUSPENSION
 10
0.0544628888228555
 20
-1.658586370486111
 30
0.5014136295138889
 70
    64
  0
VERTEX
  5
1D83
  8
SUSPENSION
 10
0.095649711574556
 20
-1.615
 30
0.5450000000000002
 70
    64
  0
VERTEX
  5
1D84
  8
SUSPENSION
 10
0.157290147850633
 20
-1.585876518336744
 30
0.5741234816632561
 70
    64
  0
VERTEX
  5
1D85
  8
SUSPENSION
 10
0.23
 20
-1.575649711574556
 30
0.5843502884254442
 70
    64
  0
VERTEX
  5
1D86
  8
SUSPENSION
 10
0.3027098521493671
 20
-1.585876518336744
 30
0.5741234816632561
 70
    64
  0
VERTEX
  5
1D87
  8
SUSPENSION
 10
0.364350288425444
 20
-1.615
 30
0.545
 70
    64
  0
VERTEX
  5
1D88
  8
SUSPENSION
 10
0.4055371111771446
 20
-1.658586370486111
 30
0.5014136295138887
 70
    64
  0
VERTEX
  5
1D89
  8
SUSPENSION
 10
0.4200000000000001
 20
-1.7099999999999991
 30
0.45
 70
    64
  0
SEQEND
  5
1D8A
  8
SUSPENSION
  0
ENDBLK
  5
1D40
  8
0
  0
ENDSEC
  0
SECTION
  2
ENTITIES
  0
3DFACE
  5
2ED5
  8
WHEELS
 10
-0.5700000000000001
 20
-0.1799999999999997
 30
0.0
 11
-0.5700000000000001
 21
-0.1558845726811988
 31
0.09
 12
-0.6900000000000003
 22
-0.1558845726811988
 32
0.09
 13
-0.6900000000000003
 23
-0.1799999999999997
 33
0.0
  0
3DFACE
  5
2ED6
  8
WHEELS
 10
-0.5700000000000001
 20
-0.1558845726811988
 30
0.09
 11
-0.5700000000000001
 21
-0.0899999999999999
 31
0.155884572681199
 12
-0.6900000000000003
 22
-0.0899999999999999
 32
0.155884572681199
 13
-0.6900000000000003
 23
-0.1558845726811988
 33
0.09
  0
3DFACE
  5
2ED7
  8
WHEELS
 10
-0.5700000000000001
 20
-0.0899999999999999
 30
0.155884572681199
 11
-0.5700000000000001
 21
0.0
 31
0.18
 12
-0.6900000000000003
 22
0.0
 32
0.18
 13
-0.6900000000000003
 23
-0.0899999999999999
 33
0.155884572681199
  0
3DFACE
  5
2ED8
  8
WHEELS
 10
-0.5700000000000001
 20
0.0
 30
0.18
 11
-0.5700000000000001
 21
0.0899999999999999
 31
0.155884572681199
 12
-0.6900000000000003
 22
0.0899999999999999
 32
0.155884572681199
 13
-0.6900000000000003
 23
0.0
 33
0.18
  0
3DFACE
  5
2ED9
  8
WHEELS
 10
-0.5700000000000001
 20
0.0899999999999999
 30
0.155884572681199
 11
-0.5700000000000001
 21
0.1558845726811988
 31
0.09
 12
-0.6900000000000003
 22
0.1558845726811988
 32
0.09
 13
-0.6900000000000003
 23
0.0899999999999999
 33
0.155884572681199
  0
3DFACE
  5
2EDA
  8
WHEELS
 10
-0.5700000000000001
 20
0.1558845726811988
 30
0.09
 11
-0.5700000000000001
 21
0.1799999999999997
 31
0.0000000000000001
 12
-0.6900000000000003
 22
0.1799999999999997
 32
0.0000000000000001
 13
-0.6900000000000003
 23
0.1558845726811988
 33
0.09
  0
3DFACE
  5
2EDB
  8
WHEELS
 10
-0.5700000000000001
 20
0.1799999999999997
 30
0.0000000000000001
 11
-0.5700000000000001
 21
0.1558845726811988
 31
-0.0899999999999999
 12
-0.6900000000000003
 22
0.1558845726811988
 32
-0.0899999999999999
 13
-0.6900000000000003
 23
0.1799999999999997
 33
0.0000000000000001
  0
3DFACE
  5
2EDC
  8
WHEELS
 10
-0.5700000000000001
 20
0.1558845726811988
 30
-0.0899999999999999
 11
-0.5700000000000001
 21
0.0899999999999999
 31
-0.1558845726811989
 12
-0.6900000000000003
 22
0.0899999999999999
 32
-0.1558845726811989
 13
-0.6900000000000003
 23
0.1558845726811988
 33
-0.0899999999999999
  0
3DFACE
  5
2EDD
  8
WHEELS
 10
-0.5700000000000001
 20
0.0899999999999999
 30
-0.1558845726811989
 11
-0.5700000000000001
 21
0.0
 31
-0.18
 12
-0.6900000000000003
 22
0.0
 32
-0.18
 13
-0.6900000000000003
 23
0.0899999999999999
 33
-0.1558845726811989
  0
3DFACE
  5
2EDE
  8
WHEELS
 10
-0.5700000000000001
 20
0.0
 30
-0.18
 11
-0.5700000000000001
 21
-0.0899999999999999
 31
-0.1558845726811989
 12
-0.6900000000000003
 22
-0.0899999999999999
 32
-0.1558845726811989
 13
-0.6900000000000003
 23
0.0
 33
-0.18
  0
3DFACE
  5
2EDF
  8
WHEELS
 10
-0.5700000000000001
 20
-0.0899999999999999
 30
-0.1558845726811989
 11
-0.5700000000000001
 21
-0.1558845726811988
 31
-0.0899999999999999
 12
-0.6900000000000003
 22
-0.1558845726811988
 32
-0.0899999999999999
 13
-0.6900000000000003
 23
-0.0899999999999999
 33
-0.1558845726811989
  0
3DFACE
  5
2EE0
  8
WHEELS
 10
-0.5700000000000001
 20
-0.1558845726811988
 30
-0.0899999999999999
 11
-0.5700000000000001
 21
-0.1799999999999997
 31
0.0
 12
-0.6900000000000003
 22
-0.1799999999999997
 32
0.0
 13
-0.6900000000000003
 23
-0.1558845726811988
 33
-0.0899999999999999
  0
3DFACE
  5
2EE1
  8
WHEELS
 10
-0.7400000000000001
 20
0.48
 30
0.0
 11
-0.7400000000000002
 21
0.4156921938165308
 31
0.2399999999999999
 12
-0.6900000000000001
 22
0.3464101615137753
 32
0.2
 13
-0.6900000000000001
 23
0.3999999999999999
 33
0.0
  0
3DFACE
  5
2EE2
  8
WHEELS
 10
-0.7400000000000002
 20
0.4156921938165308
 30
0.2399999999999999
 11
-0.7400000000000002
 21
0.2400000000000002
 31
0.4156921938165305
 12
-0.6900000000000001
 22
0.2000000000000002
 32
0.3464101615137755
 13
-0.6900000000000001
 23
0.3464101615137753
 33
0.2
  0
3DFACE
  5
2EE3
  8
WHEELS
 10
-0.7400000000000002
 20
0.2400000000000002
 30
0.4156921938165305
 11
-0.7400000000000002
 21
0.0
 31
0.4799999999999999
 12
-0.6900000000000001
 22
0.0
 32
0.4000000000000001
 13
-0.6900000000000001
 23
0.2000000000000002
 33
0.3464101615137755
  0
3DFACE
  5
2EE4
  8
WHEELS
 10
-0.7400000000000002
 20
0.0
 30
0.4799999999999999
 11
-0.7400000000000002
 21
-0.2400000000000003
 31
0.4156921938165306
 12
-0.6900000000000003
 22
-0.2000000000000002
 32
0.3464101615137755
 13
-0.6900000000000001
 23
0.0
 33
0.4000000000000001
  0
3DFACE
  5
2EE5
  8
WHEELS
 10
-0.7400000000000002
 20
-0.2400000000000003
 30
0.4156921938165306
 11
-0.7400000000000002
 21
-0.4156921938165308
 31
0.2400000000000002
 12
-0.6900000000000003
 22
-0.3464101615137753
 32
0.2000000000000001
 13
-0.6900000000000003
 23
-0.2000000000000002
 33
0.3464101615137755
  0
3DFACE
  5
2EE6
  8
WHEELS
 10
-0.7400000000000002
 20
-0.4156921938165308
 30
0.2400000000000002
 11
-0.7400000000000003
 21
-0.4800000000000005
 31
0.0000000000000003
 12
-0.6900000000000003
 22
-0.4000000000000004
 32
0.0000000000000002
 13
-0.6900000000000003
 23
-0.3464101615137753
 33
0.2000000000000001
  0
3DFACE
  5
2EE7
  8
WHEELS
 10
-0.7400000000000003
 20
-0.4800000000000005
 30
0.0000000000000003
 11
-0.7400000000000002
 21
-0.4156921938165308
 31
-0.2399999999999997
 12
-0.6900000000000003
 22
-0.3464101615137753
 32
-0.1999999999999998
 13
-0.6900000000000003
 23
-0.4000000000000004
 33
0.0000000000000002
  0
3DFACE
  5
2EE8
  8
WHEELS
 10
-0.7400000000000002
 20
-0.4156921938165308
 30
-0.2399999999999997
 11
-0.7400000000000002
 21
-0.2400000000000003
 31
-0.4156921938165305
 12
-0.6900000000000003
 22
-0.2000000000000002
 32
-0.3464101615137754
 13
-0.6900000000000003
 23
-0.3464101615137753
 33
-0.1999999999999998
  0
3DFACE
  5
2EE9
  8
WHEELS
 10
-0.7400000000000002
 20
-0.2400000000000003
 30
-0.4156921938165305
 11
-0.7400000000000002
 21
0.0
 31
-0.48
 12
-0.6900000000000001
 22
0.0
 32
-0.4
 13
-0.6900000000000003
 23
-0.2000000000000002
 33
-0.3464101615137754
  0
3DFACE
  5
2EEA
  8
WHEELS
 10
-0.7400000000000002
 20
0.0
 30
-0.48
 11
-0.7400000000000002
 21
0.2400000000000002
 31
-0.4156921938165305
 12
-0.6900000000000001
 22
0.2000000000000002
 32
-0.3464101615137754
 13
-0.6900000000000001
 23
0.0
 33
-0.4
  0
3DFACE
  5
2EEB
  8
WHEELS
 10
-0.7400000000000002
 20
0.2400000000000002
 30
-0.4156921938165305
 11
-0.7400000000000002
 21
0.4156921938165308
 31
-0.2399999999999998
 12
-0.6900000000000001
 22
0.3464101615137753
 32
-0.1999999999999999
 13
-0.6900000000000001
 23
0.2000000000000002
 33
-0.3464101615137754
  0
3DFACE
  5
2EEC
  8
WHEELS
 10
-0.7400000000000002
 20
0.4156921938165308
 30
-0.2399999999999998
 11
-0.7400000000000001
 21
0.48
 31
0.0
 12
-0.6900000000000001
 22
0.3999999999999999
 32
0.0
 13
-0.6900000000000001
 23
0.3464101615137753
 33
-0.1999999999999999
  0
3DFACE
  5
2EED
  8
WHEELS
 10
-1.02
 20
-0.0499999999999998
 30
0.0
 11
-1.02
 21
-0.0353553390593273
 31
0.0353553390593274
 12
-1.0700000000000001
 22
-0.0353553390593273
 32
0.0353553390593274
 13
-1.0700000000000001
 23
-0.0499999999999998
 33
0.0
  0
3DFACE
  5
2EEE
  8
WHEELS
 10
-1.02
 20
-0.0353553390593273
 30
0.0353553390593274
 11
-1.02
 21
0.0
 31
0.05
 12
-1.0700000000000001
 22
0.0
 32
0.05
 13
-1.0700000000000001
 23
-0.0353553390593273
 33
0.0353553390593274
  0
3DFACE
  5
2EEF
  8
WHEELS
 10
-1.02
 20
0.0
 30
0.05
 11
-1.02
 21
0.0353553390593273
 31
0.0353553390593274
 12
-1.0700000000000001
 22
0.0353553390593273
 32
0.0353553390593274
 13
-1.0700000000000001
 23
0.0
 33
0.05
  0
3DFACE
  5
2EF0
  8
WHEELS
 10
-1.02
 20
0.0353553390593273
 30
0.0353553390593274
 11
-1.02
 21
0.0499999999999998
 31
0.0
 12
-1.0700000000000001
 22
0.0499999999999998
 32
0.0
 13
-1.0700000000000001
 23
0.0353553390593273
 33
0.0353553390593274
  0
3DFACE
  5
2EF1
  8
WHEELS
 10
-1.02
 20
0.0499999999999998
 30
0.0
 11
-1.02
 21
0.0353553390593273
 31
-0.0353553390593274
 12
-1.0700000000000001
 22
0.0353553390593273
 32
-0.0353553390593274
 13
-1.0700000000000001
 23
0.0499999999999998
 33
0.0
  0
3DFACE
  5
2EF2
  8
WHEELS
 10
-1.02
 20
0.0353553390593273
 30
-0.0353553390593274
 11
-1.02
 21
0.0
 31
-0.05
 12
-1.0700000000000001
 22
0.0
 32
-0.05
 13
-1.0700000000000001
 23
0.0353553390593273
 33
-0.0353553390593274
  0
3DFACE
  5
2EF3
  8
WHEELS
 10
-1.02
 20
0.0
 30
-0.05
 11
-1.02
 21
-0.0353553390593273
 31
-0.0353553390593274
 12
-1.0700000000000001
 22
-0.0353553390593273
 32
-0.0353553390593274
 13
-1.0700000000000001
 23
0.0
 33
-0.05
  0
3DFACE
  5
2EF4
  8
WHEELS
 10
-1.02
 20
-0.0353553390593273
 30
-0.0353553390593274
 11
-1.02
 21
-0.0499999999999998
 31
0.0
 12
-1.0700000000000001
 22
-0.0499999999999998
 32
0.0
 13
-1.0700000000000001
 23
-0.0353553390593273
 33
-0.0353553390593274
  0
3DFACE
  5
2EF5
  8
WHEELS
 10
-1.0
 20
-0.0899999999999999
 30
0.0
 11
-1.0
 21
-0.0636396103067893
 31
0.0636396103067893
 12
-1.02
 22
-0.0636396103067893
 32
0.0636396103067893
 13
-1.02
 23
-0.0899999999999999
 33
0.0
  0
3DFACE
  5
2EF6
  8
WHEELS
 10
-1.0
 20
-0.0636396103067893
 30
0.0636396103067893
 11
-1.0
 21
0.0
 31
0.09
 12
-1.02
 22
0.0
 32
0.09
 13
-1.02
 23
-0.0636396103067893
 33
0.0636396103067893
  0
3DFACE
  5
2EF7
  8
WHEELS
 10
-1.0
 20
0.0
 30
0.09
 11
-1.0
 21
0.0636396103067893
 31
0.0636396103067893
 12
-1.02
 22
0.0636396103067893
 32
0.0636396103067893
 13
-1.02
 23
0.0
 33
0.09
  0
3DFACE
  5
2EF8
  8
WHEELS
 10
-1.0
 20
0.0636396103067893
 30
0.0636396103067893
 11
-1.0
 21
0.0899999999999999
 31
0.0
 12
-1.02
 22
0.0899999999999999
 32
0.0
 13
-1.02
 23
0.0636396103067893
 33
0.0636396103067893
  0
3DFACE
  5
2EF9
  8
WHEELS
 10
-1.0
 20
0.0899999999999999
 30
0.0
 11
-1.0
 21
0.0636396103067893
 31
-0.0636396103067893
 12
-1.02
 22
0.0636396103067893
 32
-0.0636396103067893
 13
-1.02
 23
0.0899999999999999
 33
0.0
  0
3DFACE
  5
2EFA
  8
WHEELS
 10
-1.0
 20
0.0636396103067893
 30
-0.0636396103067893
 11
-1.0
 21
0.0
 31
-0.09
 12
-1.02
 22
0.0
 32
-0.09
 13
-1.02
 23
0.0636396103067893
 33
-0.0636396103067893
  0
3DFACE
  5
2EFB
  8
WHEELS
 10
-1.0
 20
0.0
 30
-0.09
 11
-1.0
 21
-0.0636396103067893
 31
-0.0636396103067893
 12
-1.02
 22
-0.0636396103067893
 32
-0.0636396103067893
 13
-1.02
 23
0.0
 33
-0.09
  0
3DFACE
  5
2EFC
  8
WHEELS
 10
-1.0
 20
-0.0636396103067893
 30
-0.0636396103067893
 11
-1.0
 21
-0.0899999999999999
 31
0.0
 12
-1.02
 22
-0.0899999999999999
 32
0.0
 13
-1.02
 23
-0.0636396103067893
 33
-0.0636396103067893
  0
3DFACE
  5
2EFD
  8
WHEELS
 10
-0.95
 20
-0.23
 30
0.0
 11
-0.95
 21
-0.199185842870421
 31
0.1149999999999999
 12
-1.0
 22
-0.1472243186433548
 32
0.085
 13
-1.0
 23
-0.1699999999999999
 33
0.0
  0
3DFACE
  5
2EFE
  8
WHEELS
 10
-0.95
 20
-0.199185842870421
 30
0.1149999999999999
 11
-0.95
 21
-0.1150000000000002
 31
0.1991858428704209
 12
-1.0
 22
-0.085
 32
0.1472243186433546
 13
-1.0
 23
-0.1472243186433548
 33
0.085
  0
3DFACE
  5
2EFF
  8
WHEELS
 10
-0.95
 20
-0.1150000000000002
 30
0.1991858428704209
 11
-0.95
 21
0.0
 31
0.23
 12
-1.0
 22
0.0
 32
0.17
 13
-1.0
 23
-0.085
 33
0.1472243186433546
  0
3DFACE
  5
2F00
  8
WHEELS
 10
-0.95
 20
0.0
 30
0.23
 11
-0.95
 21
0.1150000000000002
 31
0.1991858428704209
 12
-1.0
 22
0.085
 32
0.1472243186433546
 13
-1.0
 23
0.0
 33
0.17
  0
3DFACE
  5
2F01
  8
WHEELS
 10
-0.95
 20
0.1150000000000002
 30
0.1991858428704209
 11
-0.95
 21
0.199185842870421
 31
0.115
 12
-1.0
 22
0.1472243186433548
 32
0.085
 13
-1.0
 23
0.085
 33
0.1472243186433546
  0
3DFACE
  5
2F02
  8
WHEELS
 10
-0.95
 20
0.199185842870421
 30
0.115
 11
-0.95
 21
0.23
 31
0.0000000000000001
 12
-1.0
 22
0.1699999999999999
 32
0.0000000000000001
 13
-1.0
 23
0.1472243186433548
 33
0.085
  0
3DFACE
  5
2F03
  8
WHEELS
 10
-0.95
 20
0.23
 30
0.0000000000000001
 11
-0.95
 21
0.199185842870421
 31
-0.1149999999999998
 12
-1.0
 22
0.1472243186433548
 32
-0.0849999999999999
 13
-1.0
 23
0.1699999999999999
 33
0.0000000000000001
  0
3DFACE
  5
2F04
  8
WHEELS
 10
-0.95
 20
0.199185842870421
 30
-0.1149999999999998
 11
-0.95
 21
0.1150000000000002
 31
-0.1991858428704208
 12
-1.0
 22
0.085
 32
-0.1472243186433546
 13
-1.0
 23
0.1472243186433548
 33
-0.0849999999999999
  0
3DFACE
  5
2F05
  8
WHEELS
 10
-0.95
 20
0.1150000000000002
 30
-0.1991858428704208
 11
-0.95
 21
0.0
 31
-0.23
 12
-1.0
 22
0.0
 32
-0.17
 13
-1.0
 23
0.085
 33
-0.1472243186433546
  0
3DFACE
  5
2F06
  8
WHEELS
 10
-0.95
 20
0.0
 30
-0.23
 11
-0.95
 21
-0.1150000000000002
 31
-0.1991858428704209
 12
-1.0
 22
-0.085
 32
-0.1472243186433546
 13
-1.0
 23
0.0
 33
-0.17
  0
3DFACE
  5
2F07
  8
WHEELS
 10
-0.95
 20
-0.1150000000000002
 30
-0.1991858428704209
 11
-0.95
 21
-0.199185842870421
 31
-0.1149999999999999
 12
-1.0
 22
-0.1472243186433548
 32
-0.085
 13
-1.0
 23
-0.085
 33
-0.1472243186433546
  0
3DFACE
  5
2F08
  8
WHEELS
 10
-0.95
 20
-0.199185842870421
 30
-0.1149999999999999
 11
-0.95
 21
-0.23
 31
0.0
 12
-1.0
 22
-0.1699999999999999
 32
0.0
 13
-1.0
 23
-0.1472243186433548
 33
-0.085
  0
3DFACE
  5
2F09
  8
WHEELS
 10
-0.9700000000000002
 20
-0.3300000000000001
 30
0.0
 11
-0.9700000000000002
 21
-0.2857883832488648
 31
0.165
 12
-0.9500000000000001
 22
-0.2684678751731759
 32
0.155
 13
-0.9500000000000001
 23
-0.3100000000000005
 33
0.0
  0
3DFACE
  5
2F0A
  8
WHEELS
 10
-0.9700000000000002
 20
-0.2857883832488648
 30
0.165
 11
-0.9700000000000002
 21
-0.165
 31
0.2857883832488647
 12
-0.9500000000000001
 22
-0.1550000000000002
 32
0.2684678751731759
 13
-0.9500000000000001
 23
-0.2684678751731759
 33
0.155
  0
3DFACE
  5
2F0B
  8
WHEELS
 10
-0.9700000000000002
 20
-0.165
 30
0.2857883832488647
 11
-0.9700000000000001
 21
0.0
 31
0.33
 12
-0.95
 22
0.0
 32
0.31
 13
-0.9500000000000001
 23
-0.1550000000000002
 33
0.2684678751731759
  0
3DFACE
  5
2F0C
  8
WHEELS
 10
-0.9700000000000001
 20
0.0
 30
0.33
 11
-0.9700000000000001
 21
0.165
 31
0.2857883832488647
 12
-0.95
 22
0.1550000000000002
 32
0.268467875173176
 13
-0.95
 23
0.0
 33
0.31
  0
3DFACE
  5
2F0D
  8
WHEELS
 10
-0.9700000000000001
 20
0.165
 30
0.2857883832488647
 11
-0.9700000000000001
 21
0.2857883832488648
 31
0.1650000000000001
 12
-0.95
 22
0.2684678751731759
 32
0.1550000000000001
 13
-0.95
 23
0.1550000000000002
 33
0.268467875173176
  0
3DFACE
  5
2F0E
  8
WHEELS
 10
-0.9700000000000001
 20
0.2857883832488648
 30
0.1650000000000001
 11
-0.9700000000000001
 21
0.3300000000000001
 31
0.0000000000000002
 12
-0.95
 22
0.31
 32
0.0000000000000002
 13
-0.95
 23
0.2684678751731759
 33
0.1550000000000001
  0
3DFACE
  5
2F0F
  8
WHEELS
 10
-0.9700000000000001
 20
0.3300000000000001
 30
0.0000000000000002
 11
-0.9700000000000001
 21
0.2857883832488648
 31
-0.1649999999999998
 12
-0.95
 22
0.2684678751731759
 32
-0.1549999999999998
 13
-0.95
 23
0.31
 33
0.0000000000000002
  0
3DFACE
  5
2F10
  8
WHEELS
 10
-0.9700000000000001
 20
0.2857883832488648
 30
-0.1649999999999998
 11
-0.9700000000000001
 21
0.165
 31
-0.2857883832488647
 12
-0.95
 22
0.1550000000000002
 32
-0.2684678751731759
 13
-0.95
 23
0.2684678751731759
 33
-0.1549999999999998
  0
3DFACE
  5
2F11
  8
WHEELS
 10
-0.9700000000000001
 20
0.165
 30
-0.2857883832488647
 11
-0.9700000000000001
 21
0.0
 31
-0.33
 12
-0.95
 22
0.0
 32
-0.31
 13
-0.95
 23
0.1550000000000002
 33
-0.2684678751731759
  0
3DFACE
  5
2F12
  8
WHEELS
 10
-0.9700000000000001
 20
0.0
 30
-0.33
 11
-0.9700000000000002
 21
-0.165
 31
-0.2857883832488647
 12
-0.9500000000000001
 22
-0.1550000000000002
 32
-0.2684678751731759
 13
-0.95
 23
0.0
 33
-0.31
  0
3DFACE
  5
2F13
  8
WHEELS
 10
-0.9700000000000002
 20
-0.165
 30
-0.2857883832488647
 11
-0.9700000000000002
 21
-0.2857883832488648
 31
-0.1649999999999999
 12
-0.9500000000000001
 22
-0.2684678751731759
 32
-0.1549999999999998
 13
-0.9500000000000001
 23
-0.1550000000000002
 33
-0.2684678751731759
  0
3DFACE
  5
2F14
  8
WHEELS
 10
-0.9700000000000002
 20
-0.2857883832488648
 30
-0.1649999999999999
 11
-0.9700000000000002
 21
-0.3300000000000001
 31
0.0
 12
-0.9500000000000001
 22
-0.3100000000000005
 32
0.0
 13
-0.9500000000000001
 23
-0.2684678751731759
 33
-0.1549999999999998
  0
3DFACE
  5
2F15
  8
WHEELS
 10
-0.9200000000000002
 20
-0.4800000000000005
 30
0.0
 11
-0.9200000000000002
 21
-0.4156921938165308
 31
0.2399999999999999
 12
-0.9700000000000001
 22
-0.3464101615137753
 32
0.2
 13
-0.9700000000000001
 23
-0.4000000000000004
 33
0.0
  0
3DFACE
  5
2F16
  8
WHEELS
 10
-0.9200000000000002
 20
-0.4156921938165308
 30
0.2399999999999999
 11
-0.9200000000000002
 21
-0.2400000000000003
 31
0.4156921938165305
 12
-0.9700000000000001
 22
-0.2000000000000002
 32
0.3464101615137755
 13
-0.9700000000000001
 23
-0.3464101615137753
 33
0.2
  0
3DFACE
  5
2F17
  8
WHEELS
 10
-0.9200000000000002
 20
-0.2400000000000003
 30
0.4156921938165305
 11
-0.9200000000000002
 21
0.0
 31
0.4799999999999999
 12
-0.9700000000000001
 22
0.0
 32
0.4000000000000001
 13
-0.9700000000000001
 23
-0.2000000000000002
 33
0.3464101615137755
  0
3DFACE
  5
2F18
  8
WHEELS
 10
-0.9200000000000002
 20
0.0
 30
0.4799999999999999
 11
-0.9200000000000002
 21
0.2400000000000002
 31
0.4156921938165306
 12
-0.9700000000000001
 22
0.2000000000000002
 32
0.3464101615137755
 13
-0.9700000000000001
 23
0.0
 33
0.4000000000000001
  0
3DFACE
  5
2F19
  8
WHEELS
 10
-0.9200000000000002
 20
0.2400000000000002
 30
0.4156921938165306
 11
-0.9200000000000002
 21
0.4156921938165304
 31
0.2400000000000002
 12
-0.9700000000000001
 22
0.3464101615137753
 32
0.2000000000000001
 13
-0.9700000000000001
 23
0.2000000000000002
 33
0.3464101615137755
  0
3DFACE
  5
2F1A
  8
WHEELS
 10
-0.9200000000000002
 20
0.4156921938165304
 30
0.2400000000000002
 11
-0.9200000000000002
 21
0.48
 31
0.0000000000000003
 12
-0.9700000000000001
 22
0.3999999999999999
 32
0.0000000000000002
 13
-0.9700000000000001
 23
0.3464101615137753
 33
0.2000000000000001
  0
3DFACE
  5
2F1B
  8
WHEELS
 10
-0.9200000000000002
 20
0.48
 30
0.0000000000000003
 11
-0.9200000000000002
 21
0.4156921938165308
 31
-0.2399999999999997
 12
-0.9700000000000001
 22
0.3464101615137753
 32
-0.1999999999999998
 13
-0.9700000000000001
 23
0.3999999999999999
 33
0.0000000000000002
  0
3DFACE
  5
2F1C
  8
WHEELS
 10
-0.9200000000000002
 20
0.4156921938165308
 30
-0.2399999999999997
 11
-0.9200000000000002
 21
0.2400000000000002
 31
-0.4156921938165305
 12
-0.9700000000000001
 22
0.2000000000000002
 32
-0.3464101615137754
 13
-0.9700000000000001
 23
0.3464101615137753
 33
-0.1999999999999998
  0
3DFACE
  5
2F1D
  8
WHEELS
 10
-0.9200000000000002
 20
0.2400000000000002
 30
-0.4156921938165305
 11
-0.9200000000000002
 21
0.0
 31
-0.48
 12
-0.9700000000000001
 22
0.0
 32
-0.4
 13
-0.9700000000000001
 23
0.2000000000000002
 33
-0.3464101615137754
  0
3DFACE
  5
2F1E
  8
WHEELS
 10
-0.9200000000000002
 20
0.0
 30
-0.48
 11
-0.9200000000000002
 21
-0.2400000000000003
 31
-0.4156921938165305
 12
-0.9700000000000001
 22
-0.2000000000000002
 32
-0.3464101615137754
 13
-0.9700000000000001
 23
0.0
 33
-0.4
  0
3DFACE
  5
2F1F
  8
WHEELS
 10
-0.9200000000000002
 20
-0.2400000000000003
 30
-0.4156921938165305
 11
-0.9200000000000002
 21
-0.4156921938165308
 31
-0.2399999999999998
 12
-0.9700000000000001
 22
-0.3464101615137753
 32
-0.1999999999999999
 13
-0.9700000000000001
 23
-0.2000000000000002
 33
-0.3464101615137754
  0
3DFACE
  5
2F20
  8
WHEELS
 10
-0.9200000000000002
 20
-0.4156921938165308
 30
-0.2399999999999998
 11
-0.9200000000000002
 21
-0.4800000000000005
 31
0.0
 12
-0.9700000000000001
 22
-0.4000000000000004
 32
0.0
 13
-0.9700000000000001
 23
-0.3464101615137753
 33
-0.1999999999999999
  0
3DFACE
  5
2F21
  8
WHEELS
 10
-0.7400000000000002
 20
-0.4800000000000005
 30
0.0
 11
-0.7400000000000002
 21
-0.4156921938165308
 31
0.2399999999999999
 12
-0.9200000000000002
 22
-0.4156921938165308
 32
0.2399999999999999
 13
-0.9200000000000002
 23
-0.4800000000000005
 33
0.0
  0
3DFACE
  5
2F22
  8
WHEELS
 10
-0.7400000000000002
 20
-0.4156921938165308
 30
0.2399999999999999
 11
-0.7400000000000002
 21
-0.2400000000000003
 31
0.4156921938165305
 12
-0.9200000000000002
 22
-0.2400000000000003
 32
0.4156921938165305
 13
-0.9200000000000002
 23
-0.4156921938165308
 33
0.2399999999999999
  0
3DFACE
  5
2F23
  8
WHEELS
 10
-0.7400000000000002
 20
-0.2400000000000003
 30
0.4156921938165305
 11
-0.7400000000000002
 21
0.0
 31
0.4799999999999999
 12
-0.9200000000000002
 22
0.0
 32
0.4799999999999999
 13
-0.9200000000000002
 23
-0.2400000000000003
 33
0.4156921938165305
  0
3DFACE
  5
2F24
  8
WHEELS
 10
-0.7400000000000002
 20
0.0
 30
0.4799999999999999
 11
-0.7400000000000002
 21
0.2400000000000002
 31
0.4156921938165306
 12
-0.9200000000000002
 22
0.2400000000000002
 32
0.4156921938165306
 13
-0.9200000000000002
 23
0.0
 33
0.4799999999999999
  0
3DFACE
  5
2F25
  8
WHEELS
 10
-0.7400000000000002
 20
0.2400000000000002
 30
0.4156921938165306
 11
-0.7400000000000002
 21
0.4156921938165304
 31
0.2400000000000002
 12
-0.9200000000000002
 22
0.4156921938165304
 32
0.2400000000000002
 13
-0.9200000000000002
 23
0.2400000000000002
 33
0.4156921938165306
  0
3DFACE
  5
2F26
  8
WHEELS
 10
-0.7400000000000002
 20
0.4156921938165304
 30
0.2400000000000002
 11
-0.7400000000000002
 21
0.48
 31
0.0000000000000003
 12
-0.9200000000000002
 22
0.48
 32
0.0000000000000003
 13
-0.9200000000000002
 23
0.4156921938165304
 33
0.2400000000000002
  0
3DFACE
  5
2F27
  8
WHEELS
 10
-0.7400000000000002
 20
0.48
 30
0.0000000000000003
 11
-0.7400000000000002
 21
0.4156921938165308
 31
-0.2399999999999997
 12
-0.9200000000000002
 22
0.4156921938165308
 32
-0.2399999999999997
 13
-0.9200000000000002
 23
0.48
 33
0.0000000000000003
  0
3DFACE
  5
2F28
  8
WHEELS
 10
-0.7400000000000002
 20
0.4156921938165308
 30
-0.2399999999999997
 11
-0.7400000000000002
 21
0.2400000000000002
 31
-0.4156921938165305
 12
-0.9200000000000002
 22
0.2400000000000002
 32
-0.4156921938165305
 13
-0.9200000000000002
 23
0.4156921938165308
 33
-0.2399999999999997
  0
3DFACE
  5
2F29
  8
WHEELS
 10
-0.7400000000000002
 20
0.2400000000000002
 30
-0.4156921938165305
 11
-0.7400000000000002
 21
0.0
 31
-0.48
 12
-0.9200000000000002
 22
0.0
 32
-0.48
 13
-0.9200000000000002
 23
0.2400000000000002
 33
-0.4156921938165305
  0
3DFACE
  5
2F2A
  8
WHEELS
 10
-0.7400000000000002
 20
0.0
 30
-0.48
 11
-0.7400000000000002
 21
-0.2400000000000003
 31
-0.4156921938165305
 12
-0.9200000000000002
 22
-0.2400000000000003
 32
-0.4156921938165305
 13
-0.9200000000000002
 23
0.0
 33
-0.48
  0
3DFACE
  5
2F2B
  8
WHEELS
 10
-0.7400000000000002
 20
-0.2400000000000003
 30
-0.4156921938165305
 11
-0.7400000000000002
 21
-0.4156921938165308
 31
-0.2399999999999998
 12
-0.9200000000000002
 22
-0.4156921938165308
 32
-0.2399999999999998
 13
-0.9200000000000002
 23
-0.2400000000000003
 33
-0.4156921938165305
  0
3DFACE
  5
2F2C
  8
WHEELS
 10
-0.7400000000000002
 20
-0.4156921938165308
 30
-0.2399999999999998
 11
-0.7400000000000002
 21
-0.4800000000000005
 31
0.0
 12
-0.9200000000000002
 22
-0.4800000000000005
 32
0.0
 13
-0.9200000000000002
 23
-0.4156921938165308
 33
-0.2399999999999998
  0
3DFACE
  5
2F2D
  8
WHEELS
 10
-1.0
 20
-0.0149999999999997
 30
0.1299999999999999
 11
-1.0
 21
-0.0075000000000003
 31
0.1429903810567665
 12
-1.01
 22
-0.0075000000000003
 32
0.1429903810567665
 13
-1.01
 23
-0.0149999999999997
 33
0.1299999999999999
  0
3DFACE
  5
2F2E
  8
WHEELS
 10
-1.0
 20
-0.0075000000000003
 30
0.1429903810567665
 11
-1.0
 21
0.0075000000000003
 31
0.1429903810567665
 12
-1.01
 22
0.0075000000000003
 32
0.1429903810567665
 13
-1.01
 23
-0.0075000000000003
 33
0.1429903810567665
  0
3DFACE
  5
2F2F
  8
WHEELS
 10
-1.0
 20
0.0075000000000003
 30
0.1429903810567665
 11
-1.0
 21
0.0149999999999997
 31
0.1299999999999999
 12
-1.01
 22
0.0149999999999997
 32
0.1299999999999999
 13
-1.01
 23
0.0075000000000003
 33
0.1429903810567665
  0
3DFACE
  5
2F30
  8
WHEELS
 10
-1.0
 20
0.0149999999999997
 30
0.1299999999999999
 11
-1.0
 21
0.0075000000000003
 31
0.1170096189432334
 12
-1.01
 22
0.0075000000000003
 32
0.1170096189432334
 13
-1.01
 23
0.0149999999999997
 33
0.1299999999999999
  0
3DFACE
  5
2F31
  8
WHEELS
 10
-1.0
 20
0.0075000000000003
 30
0.1170096189432334
 11
-1.0
 21
-0.0075000000000003
 31
0.1170096189432334
 12
-1.01
 22
-0.0075000000000003
 32
0.1170096189432334
 13
-1.01
 23
0.0075000000000003
 33
0.1170096189432334
  0
3DFACE
  5
2F32
  8
WHEELS
 10
-1.0
 20
-0.0075000000000003
 30
0.1170096189432334
 11
-1.0
 21
-0.0149999999999997
 31
0.1299999999999999
 12
-1.01
 22
-0.0149999999999997
 32
0.1299999999999999
 13
-1.01
 23
-0.0075000000000003
 33
0.1170096189432334
  0
3DFACE
  5
2F33
  8
WHEELS
 10
-0.6900000000000001
 20
0.2000000000000002
 30
0.3464101615137756
 11
-0.6900000000000001
 21
0.0
 31
0.4000000000000001
 12
-0.6900000000000003
 22
0.0
 32
0.18
 13
-0.6900000000000003
 23
0.0899999999999999
 33
0.155884572681199
  0
3DFACE
  5
2F34
  8
WHEELS
 10
-0.9700000000000001
 20
0.0
 30
0.4000000000000001
 11
-0.9700000000000001
 21
0.2000000000000002
 31
0.3464101615137755
 12
-0.9700000000000001
 22
0.165
 32
0.2857883832488647
 13
-0.9700000000000001
 23
0.0
 33
0.33
  0
3DFACE
  5
2F35
  8
WHEELS
 10
-0.95
 20
0.0
 30
0.31
 11
-0.95
 21
0.1550000000000002
 31
0.268467875173176
 12
-0.95
 22
0.1150000000000002
 32
0.1991858428704209
 13
-0.95
 23
0.0
 33
0.23
  0
3DFACE
  5
2F36
  8
WHEELS
 10
-1.01
 20
0.0075000000000003
 30
0.1170096189432334
 11
-1.01
 21
-0.0075000000000003
 31
0.1170096189432334
 12
-1.01
 22
-0.0149999999999997
 32
0.1299999999999999
 13
-1.01
 23
0.0149999999999997
 33
0.1299999999999999
  0
3DFACE
  5
2F37
  8
WHEELS
 10
-1.01
 20
0.0149999999999997
 30
0.1299999999999999
 11
-1.01
 21
-0.0149999999999997
 31
0.1299999999999999
 12
-1.01
 22
-0.0075000000000003
 32
0.1429903810567665
 13
-1.01
 23
0.0075000000000003
 33
0.1429903810567665
  0
3DFACE
  5
2F38
  8
WHEELS
 10
-1.01
 20
0.120083302491977
 30
0.0520096189432335
 11
-1.01
 21
0.1050833024919773
 31
0.0779903810567665
 12
-1.01
 22
0.120083302491977
 32
0.0779903810567665
 13
-1.01
 23
0.1275833024919768
 33
0.0649999999999999
  0
3DFACE
  5
2F39
  8
WHEELS
 10
-1.01
 20
0.1050833024919773
 30
0.0520096189432335
 11
-1.01
 21
0.097583302491977
 31
0.0650000000000001
 12
-1.01
 22
0.1050833024919773
 32
0.0779903810567665
 13
-1.01
 23
0.120083302491977
 33
0.0520096189432335
  0
3DFACE
  5
2F3A
  8
WHEELS
 10
-1.0
 20
0.097583302491977
 30
0.0650000000000001
 11
-1.0
 21
0.1050833024919773
 31
0.0779903810567665
 12
-1.01
 22
0.1050833024919773
 32
0.0779903810567665
 13
-1.01
 23
0.097583302491977
 33
0.0650000000000001
  0
3DFACE
  5
2F3B
  8
WHEELS
 10
-1.0
 20
0.1050833024919773
 30
0.0520096189432335
 11
-1.0
 21
0.097583302491977
 31
0.0650000000000001
 12
-1.01
 22
0.097583302491977
 32
0.0650000000000001
 13
-1.01
 23
0.1050833024919773
 33
0.0520096189432335
  0
3DFACE
  5
2F3C
  8
WHEELS
 10
-1.0
 20
0.120083302491977
 30
0.0520096189432335
 11
-1.0
 21
0.1050833024919773
 31
0.0520096189432335
 12
-1.01
 22
0.1050833024919773
 32
0.0520096189432335
 13
-1.01
 23
0.120083302491977
 33
0.0520096189432335
  0
3DFACE
  5
2F3D
  8
WHEELS
 10
-1.0
 20
0.1275833024919768
 30
0.0649999999999999
 11
-1.0
 21
0.120083302491977
 31
0.0520096189432335
 12
-1.01
 22
0.120083302491977
 32
0.0520096189432335
 13
-1.01
 23
0.1275833024919768
 33
0.0649999999999999
  0
3DFACE
  5
2F3E
  8
WHEELS
 10
-1.0
 20
0.120083302491977
 30
0.0779903810567665
 11
-1.0
 21
0.1275833024919768
 31
0.0649999999999999
 12
-1.01
 22
0.1275833024919768
 32
0.0649999999999999
 13
-1.01
 23
0.120083302491977
 33
0.0779903810567665
  0
3DFACE
  5
2F3F
  8
WHEELS
 10
-1.0
 20
0.1050833024919773
 30
0.0779903810567665
 11
-1.0
 21
0.120083302491977
 31
0.0779903810567665
 12
-1.01
 22
0.120083302491977
 32
0.0779903810567665
 13
-1.01
 23
0.1050833024919773
 33
0.0779903810567665
  0
3DFACE
  5
2F40
  8
WHEELS
 10
-1.01
 20
0.1050833024919768
 30
-0.0779903810567667
 11
-1.01
 21
0.1200833024919765
 31
-0.0520096189432334
 12
-1.01
 22
0.1275833024919768
 32
-0.065
 13
-1.01
 23
0.1200833024919765
 33
-0.0779903810567667
  0
3DFACE
  5
2F41
  8
WHEELS
 10
-1.01
 20
0.0975833024919766
 30
-0.065
 11
-1.01
 21
0.1050833024919768
 31
-0.0520096189432334
 12
-1.01
 22
0.1200833024919765
 32
-0.0520096189432334
 13
-1.01
 23
0.1050833024919768
 33
-0.0779903810567667
  0
3DFACE
  5
2F42
  8
WHEELS
 10
-1.0
 20
0.1050833024919768
 30
-0.0520096189432334
 11
-1.0
 21
0.1200833024919765
 31
-0.0520096189432334
 12
-1.01
 22
0.1200833024919765
 32
-0.0520096189432334
 13
-1.01
 23
0.1050833024919768
 33
-0.0520096189432334
  0
3DFACE
  5
2F43
  8
WHEELS
 10
-1.0
 20
0.0975833024919766
 30
-0.065
 11
-1.0
 21
0.1050833024919768
 31
-0.0520096189432334
 12
-1.01
 22
0.1050833024919768
 32
-0.0520096189432334
 13
-1.01
 23
0.0975833024919766
 33
-0.065
  0
3DFACE
  5
2F44
  8
WHEELS
 10
-1.0
 20
0.1050833024919768
 30
-0.0779903810567667
 11
-1.0
 21
0.0975833024919766
 31
-0.065
 12
-1.01
 22
0.0975833024919766
 32
-0.065
 13
-1.01
 23
0.1050833024919768
 33
-0.0779903810567667
  0
3DFACE
  5
2F45
  8
WHEELS
 10
-1.0
 20
0.1200833024919765
 30
-0.0779903810567667
 11
-1.0
 21
0.1050833024919768
 31
-0.0779903810567667
 12
-1.01
 22
0.1050833024919768
 32
-0.0779903810567667
 13
-1.01
 23
0.1200833024919765
 33
-0.0779903810567667
  0
3DFACE
  5
2F46
  8
WHEELS
 10
-1.0
 20
0.1275833024919768
 30
-0.065
 11
-1.0
 21
0.1200833024919765
 31
-0.0779903810567667
 12
-1.01
 22
0.1200833024919765
 32
-0.0779903810567667
 13
-1.01
 23
0.1275833024919768
 33
-0.065
  0
3DFACE
  5
2F47
  8
WHEELS
 10
-1.0
 20
0.1200833024919765
 30
-0.0520096189432334
 11
-1.0
 21
0.1275833024919768
 31
-0.065
 12
-1.01
 22
0.1275833024919768
 32
-0.065
 13
-1.01
 23
0.1200833024919765
 33
-0.0520096189432334
  0
3DFACE
  5
2F48
  8
WHEELS
 10
-1.01
 20
-0.0149999999999997
 30
-0.1299999999999999
 11
-1.01
 21
0.0149999999999997
 31
-0.1299999999999999
 12
-1.01
 22
0.0075000000000003
 32
-0.1429903810567665
 13
-1.01
 23
-0.0075000000000003
 33
-0.1429903810567665
  0
3DFACE
  5
2F49
  8
WHEELS
 10
-1.01
 20
-0.0075000000000003
 30
-0.1170096189432334
 11
-1.01
 21
0.0075000000000003
 31
-0.1170096189432334
 12
-1.01
 22
0.0149999999999997
 32
-0.1299999999999999
 13
-1.01
 23
-0.0149999999999997
 33
-0.1299999999999999
  0
3DFACE
  5
2F4A
  8
WHEELS
 10
-1.0
 20
0.0075000000000003
 30
-0.1170096189432334
 11
-1.0
 21
0.0149999999999997
 31
-0.1299999999999999
 12
-1.01
 22
0.0149999999999997
 32
-0.1299999999999999
 13
-1.01
 23
0.0075000000000003
 33
-0.1170096189432334
  0
3DFACE
  5
2F4B
  8
WHEELS
 10
-1.0
 20
-0.0075000000000003
 30
-0.1170096189432334
 11
-1.0
 21
0.0075000000000003
 31
-0.1170096189432334
 12
-1.01
 22
0.0075000000000003
 32
-0.1170096189432334
 13
-1.01
 23
-0.0075000000000003
 33
-0.1170096189432334
  0
3DFACE
  5
2F4C
  8
WHEELS
 10
-1.0
 20
-0.0149999999999997
 30
-0.1299999999999999
 11
-1.0
 21
-0.0075000000000003
 31
-0.1170096189432334
 12
-1.01
 22
-0.0075000000000003
 32
-0.1170096189432334
 13
-1.01
 23
-0.0149999999999997
 33
-0.1299999999999999
  0
3DFACE
  5
2F4D
  8
WHEELS
 10
-1.0
 20
-0.0075000000000003
 30
-0.1429903810567665
 11
-1.0
 21
-0.0149999999999997
 31
-0.1299999999999999
 12
-1.01
 22
-0.0149999999999997
 32
-0.1299999999999999
 13
-1.01
 23
-0.0075000000000003
 33
-0.1429903810567665
  0
3DFACE
  5
2F4E
  8
WHEELS
 10
-1.0
 20
0.0075000000000003
 30
-0.1429903810567665
 11
-1.0
 21
-0.0075000000000003
 31
-0.1429903810567665
 12
-1.01
 22
-0.0075000000000003
 32
-0.1429903810567665
 13
-1.01
 23
0.0075000000000003
 33
-0.1429903810567665
  0
3DFACE
  5
2F4F
  8
WHEELS
 10
-1.0
 20
0.0149999999999997
 30
-0.1299999999999999
 11
-1.0
 21
0.0075000000000003
 31
-0.1429903810567665
 12
-1.01
 22
0.0075000000000003
 32
-0.1429903810567665
 13
-1.01
 23
0.0149999999999997
 33
-0.1299999999999999
  0
3DFACE
  5
2F50
  8
WHEELS
 10
-1.01
 20
-0.1200833024919765
 30
-0.0520096189432334
 11
-1.01
 21
-0.1050833024919768
 31
-0.0779903810567664
 12
-1.01
 22
-0.1200833024919765
 32
-0.0779903810567664
 13
-1.01
 23
-0.1275833024919768
 33
-0.0649999999999998
  0
3DFACE
  5
2F51
  8
WHEELS
 10
-1.01
 20
-0.1050833024919768
 30
-0.0520096189432334
 11
-1.01
 21
-0.0975833024919766
 31
-0.065
 12
-1.01
 22
-0.1050833024919768
 32
-0.0779903810567664
 13
-1.01
 23
-0.1200833024919765
 33
-0.0520096189432334
  0
3DFACE
  5
2F52
  8
WHEELS
 10
-1.0
 20
-0.0975833024919766
 30
-0.065
 11
-1.0
 21
-0.1050833024919768
 31
-0.0779903810567664
 12
-1.01
 22
-0.1050833024919768
 32
-0.0779903810567664
 13
-1.01
 23
-0.0975833024919766
 33
-0.065
  0
3DFACE
  5
2F53
  8
WHEELS
 10
-1.0
 20
-0.1050833024919768
 30
-0.0520096189432334
 11
-1.0
 21
-0.0975833024919766
 31
-0.065
 12
-1.01
 22
-0.0975833024919766
 32
-0.065
 13
-1.01
 23
-0.1050833024919768
 33
-0.0520096189432334
  0
3DFACE
  5
2F54
  8
WHEELS
 10
-1.0
 20
-0.1200833024919765
 30
-0.0520096189432334
 11
-1.0
 21
-0.1050833024919768
 31
-0.0520096189432334
 12
-1.01
 22
-0.1050833024919768
 32
-0.0520096189432334
 13
-1.01
 23
-0.1200833024919765
 33
-0.0520096189432334
  0
3DFACE
  5
2F55
  8
WHEELS
 10
-1.0
 20
-0.1275833024919768
 30
-0.0649999999999998
 11
-1.0
 21
-0.1200833024919765
 31
-0.0520096189432334
 12
-1.01
 22
-0.1200833024919765
 32
-0.0520096189432334
 13
-1.01
 23
-0.1275833024919768
 33
-0.0649999999999998
  0
3DFACE
  5
2F56
  8
WHEELS
 10
-1.0
 20
-0.1200833024919765
 30
-0.0779903810567664
 11
-1.0
 21
-0.1275833024919768
 31
-0.0649999999999998
 12
-1.01
 22
-0.1275833024919768
 32
-0.0649999999999998
 13
-1.01
 23
-0.1200833024919765
 33
-0.0779903810567664
  0
3DFACE
  5
2F57
  8
WHEELS
 10
-1.0
 20
-0.1050833024919768
 30
-0.0779903810567664
 11
-1.0
 21
-0.1200833024919765
 31
-0.0779903810567664
 12
-1.01
 22
-0.1200833024919765
 32
-0.0779903810567664
 13
-1.01
 23
-0.1050833024919768
 33
-0.0779903810567664
  0
3DFACE
  5
2F58
  8
WHEELS
 10
-1.01
 20
-0.1050833024919768
 30
0.0779903810567665
 11
-1.01
 21
-0.120083302491977
 31
0.0520096189432335
 12
-1.01
 22
-0.1275833024919768
 32
0.0649999999999999
 13
-1.01
 23
-0.120083302491977
 33
0.0779903810567665
  0
3DFACE
  5
2F59
  8
WHEELS
 10
-1.01
 20
-0.097583302491977
 30
0.0650000000000001
 11
-1.01
 21
-0.1050833024919768
 31
0.0520096189432335
 12
-1.01
 22
-0.120083302491977
 32
0.0520096189432335
 13
-1.01
 23
-0.1050833024919768
 33
0.0779903810567665
  0
3DFACE
  5
2F5A
  8
WHEELS
 10
-1.0
 20
-0.1050833024919768
 30
0.0520096189432335
 11
-1.0
 21
-0.120083302491977
 31
0.0520096189432335
 12
-1.01
 22
-0.120083302491977
 32
0.0520096189432335
 13
-1.01
 23
-0.1050833024919768
 33
0.0520096189432335
  0
3DFACE
  5
2F5B
  8
WHEELS
 10
-1.0
 20
-0.097583302491977
 30
0.0650000000000001
 11
-1.0
 21
-0.1050833024919768
 31
0.0520096189432335
 12
-1.01
 22
-0.1050833024919768
 32
0.0520096189432335
 13
-1.01
 23
-0.097583302491977
 33
0.0650000000000001
  0
3DFACE
  5
2F5C
  8
WHEELS
 10
-1.0
 20
-0.1050833024919768
 30
0.0779903810567665
 11
-1.0
 21
-0.097583302491977
 31
0.0650000000000001
 12
-1.01
 22
-0.097583302491977
 32
0.0650000000000001
 13
-1.01
 23
-0.1050833024919768
 33
0.0779903810567665
  0
3DFACE
  5
2F5D
  8
WHEELS
 10
-1.0
 20
-0.120083302491977
 30
0.0779903810567665
 11
-1.0
 21
-0.1050833024919768
 31
0.0779903810567665
 12
-1.01
 22
-0.1050833024919768
 32
0.0779903810567665
 13
-1.01
 23
-0.120083302491977
 33
0.0779903810567665
  0
3DFACE
  5
2F5E
  8
WHEELS
 10
-1.0
 20
-0.1275833024919768
 30
0.0649999999999999
 11
-1.0
 21
-0.120083302491977
 31
0.0779903810567665
 12
-1.01
 22
-0.120083302491977
 32
0.0779903810567665
 13
-1.01
 23
-0.1275833024919768
 33
0.0649999999999999
  0
3DFACE
  5
2F5F
  8
WHEELS
 10
-1.0
 20
-0.120083302491977
 30
0.0520096189432335
 11
-1.0
 21
-0.1275833024919768
 31
0.0649999999999999
 12
-1.01
 22
-0.1275833024919768
 32
0.0649999999999999
 13
-1.01
 23
-0.120083302491977
 33
0.0520096189432335
  0
3DFACE
  5
2F60
  8
WHEELS
 10
-0.95
 20
0.1549999999999998
 30
0.2684678751731761
 11
-0.95
 21
0.2684678751731759
 31
0.155
 12
-0.95
 22
0.1991858428704205
 32
0.1149999999999999
 13
-0.95
 23
0.1149999999999998
 33
0.1991858428704209
  0
3DFACE
  5
2F61
  8
WHEELS
 10
-0.6900000000000001
 20
0.3464101615137753
 30
0.2000000000000003
 11
-0.6900000000000001
 21
0.2000000000000002
 31
0.3464101615137755
 12
-0.6900000000000003
 22
0.0899999999999999
 32
0.155884572681199
 13
-0.6900000000000003
 23
0.1558845726811988
 33
0.09
  0
3DFACE
  5
2F62
  8
WHEELS
 10
-0.9700000000000001
 20
0.2000000000000002
 30
0.3464101615137755
 11
-0.9700000000000001
 21
0.3464101615137753
 31
0.2000000000000001
 12
-0.9700000000000001
 22
0.2857883832488648
 32
0.165
 13
-0.9700000000000001
 23
0.165
 33
0.2857883832488647
  0
3DFACE
  5
2F63
  8
WHEELS
 10
-0.95
 20
0.2684678751731759
 30
0.155
 11
-0.95
 21
0.31
 31
-0.0000000000000001
 12
-0.95
 22
0.23
 32
0.0000000000000002
 13
-0.95
 23
0.199185842870421
 33
0.1149999999999999
  0
3DFACE
  5
2F64
  8
WHEELS
 10
-0.6900000000000001
 20
0.4000000000000004
 30
0.0000000000000002
 11
-0.6900000000000001
 21
0.3464101615137753
 31
0.1999999999999999
 12
-0.6900000000000003
 22
0.1558845726811988
 32
0.09
 13
-0.6900000000000003
 23
0.1800000000000002
 33
0.0000000000000002
  0
3DFACE
  5
2F65
  8
WHEELS
 10
-0.9700000000000001
 20
0.3464101615137753
 30
0.1999999999999999
 11
-0.9700000000000001
 21
0.4000000000000004
 31
0.0000000000000002
 12
-0.9700000000000001
 22
0.3300000000000001
 32
-0.0000000000000001
 13
-0.9700000000000001
 23
0.2857883832488648
 33
0.165
  0
3DFACE
  5
2F66
  8
WHEELS
 10
-0.95
 20
0.31
 30
-0.0000000000000001
 11
-0.95
 21
0.2684678751731759
 31
-0.1550000000000001
 12
-0.95
 22
0.199185842870421
 32
-0.115
 13
-0.95
 23
0.2300000000000004
 33
-0.0000000000000001
  0
3DFACE
  5
2F67
  8
WHEELS
 10
-0.6900000000000001
 20
0.3464101615137758
 30
-0.2
 11
-0.6900000000000001
 21
0.4000000000000004
 31
-0.0000000000000001
 12
-0.6900000000000003
 22
0.1800000000000002
 32
-0.0000000000000001
 13
-0.6900000000000003
 23
0.1558845726811993
 33
-0.0899999999999999
  0
3DFACE
  5
2F68
  8
WHEELS
 10
-0.9700000000000001
 20
0.4000000000000004
 30
-0.0000000000000001
 11
-0.9700000000000001
 21
0.3464101615137758
 31
-0.2
 12
-0.9700000000000001
 22
0.2857883832488648
 32
-0.1650000000000001
 13
-0.9700000000000001
 23
0.3300000000000001
 33
-0.0000000000000001
  0
3DFACE
  5
2F69
  8
WHEELS
 10
-0.95
 20
0.2684678751731759
 30
-0.1550000000000001
 11
-0.95
 21
0.1549999999999998
 31
-0.2684678751731761
 12
-0.95
 22
0.1149999999999998
 32
-0.199185842870421
 13
-0.95
 23
0.1991858428704205
 33
-0.115
  0
3DFACE
  5
2F6A
  8
WHEELS
 10
-0.6900000000000001
 20
0.2000000000000002
 30
-0.3464101615137756
 11
-0.6900000000000001
 21
0.3464101615137753
 31
-0.2
 12
-0.6900000000000003
 22
0.1558845726811988
 32
-0.0900000000000002
 13
-0.6900000000000003
 23
0.0899999999999999
 33
-0.1558845726811991
  0
3DFACE
  5
2F6B
  8
WHEELS
 10
-0.9700000000000001
 20
0.3464101615137753
 30
-0.2
 11
-0.9700000000000001
 21
0.1999999999999997
 31
-0.3464101615137755
 12
-0.9700000000000001
 22
0.1649999999999996
 32
-0.2857883832488648
 13
-0.9700000000000001
 23
0.2857883832488648
 33
-0.1650000000000001
  0
3DFACE
  5
2F6C
  8
WHEELS
 10
-0.95
 20
0.1550000000000002
 30
-0.2684678751731759
 11
-0.95
 21
0.0
 31
-0.31
 12
-0.95
 22
0.0
 32
-0.23
 13
-0.95
 23
0.1150000000000002
 33
-0.199185842870421
  0
3DFACE
  5
2F6D
  8
WHEELS
 10
-0.6900000000000001
 20
0.0
 30
-0.4000000000000002
 11
-0.6900000000000001
 21
0.2000000000000002
 31
-0.3464101615137754
 12
-0.6900000000000003
 22
0.0899999999999999
 32
-0.1558845726811989
 13
-0.6900000000000003
 23
0.0
 33
-0.1799999999999999
  0
3DFACE
  5
2F6E
  8
WHEELS
 10
-0.9700000000000001
 20
0.2000000000000002
 30
-0.3464101615137754
 11
-0.9700000000000001
 21
0.0
 31
-0.4
 12
-0.9700000000000001
 22
0.0
 32
-0.33
 13
-0.9700000000000001
 23
0.165
 33
-0.2857883832488648
  0
3DFACE
  5
2F6F
  8
WHEELS
 10
-0.95
 20
0.0000000000000004
 30
-0.31
 11
-0.95
 21
-0.1549999999999994
 31
-0.2684678751731761
 12
-0.95
 22
-0.1149999999999993
 32
-0.199185842870421
 13
-0.95
 23
0.0000000000000004
 33
-0.23
  0
3DFACE
  5
2F70
  8
WHEELS
 10
-0.6900000000000001
 20
-0.1999999999999993
 30
-0.3464101615137757
 11
-0.6900000000000001
 21
0.0000000000000004
 31
-0.4000000000000001
 12
-0.6900000000000003
 22
0.0000000000000004
 32
-0.18
 13
-0.6900000000000003
 23
-0.0899999999999994
 33
-0.1558845726811991
  0
3DFACE
  5
2F71
  8
WHEELS
 10
-0.9700000000000001
 20
0.0000000000000004
 30
-0.4000000000000001
 11
-0.9700000000000001
 21
-0.1999999999999993
 31
-0.3464101615137756
 12
-0.9700000000000001
 22
-0.1649999999999996
 32
-0.2857883832488648
 13
-0.9700000000000001
 23
0.0000000000000004
 33
-0.33
  0
3DFACE
  5
2F72
  8
WHEELS
 10
-0.95
 20
-0.1549999999999998
 30
-0.268467875173176
 11
-0.95
 21
-0.2684678751731759
 31
-0.1550000000000003
 12
-0.95
 22
-0.1991858428704205
 32
-0.1150000000000003
 13
-0.95
 23
-0.1149999999999998
 33
-0.199185842870421
  0
3DFACE
  5
2F73
  8
WHEELS
 10
-0.6900000000000001
 20
-0.3464101615137753
 30
-0.2000000000000004
 11
-0.6900000000000001
 21
-0.1999999999999997
 31
-0.3464101615137758
 12
-0.6900000000000003
 22
-0.0899999999999999
 32
-0.1558845726811991
 13
-0.6900000000000003
 23
-0.1558845726811988
 33
-0.0900000000000002
  0
3DFACE
  5
2F74
  8
WHEELS
 10
-0.9700000000000001
 20
-0.1999999999999997
 30
-0.3464101615137758
 11
-0.9700000000000001
 21
-0.3464101615137753
 31
-0.2000000000000002
 12
-0.9700000000000001
 22
-0.2857883832488648
 32
-0.1650000000000001
 13
-0.9700000000000001
 23
-0.1649999999999996
 33
-0.2857883832488648
  0
3DFACE
  5
2F75
  8
WHEELS
 10
-0.95
 20
-0.2684678751731759
 30
-0.1550000000000001
 11
-0.95
 21
-0.3100000000000005
 31
-0.0000000000000001
 12
-0.95
 22
-0.23
 32
-0.0000000000000001
 13
-0.95
 23
-0.1991858428704205
 33
-0.115
  0
3DFACE
  5
2F76
  8
WHEELS
 10
-0.6900000000000001
 20
-0.4000000000000004
 30
-0.0000000000000003
 11
-0.6900000000000001
 21
-0.3464101615137753
 31
-0.2000000000000002
 12
-0.6900000000000003
 22
-0.1558845726811988
 32
-0.0900000000000002
 13
-0.6900000000000003
 23
-0.1799999999999997
 33
-0.0000000000000001
  0
3DFACE
  5
2F77
  8
WHEELS
 10
-0.9700000000000001
 20
-0.3464101615137753
 30
-0.2000000000000002
 11
-0.9700000000000001
 21
-0.4000000000000004
 31
-0.0000000000000003
 12
-0.9700000000000001
 22
-0.3300000000000001
 32
-0.0000000000000001
 13
-0.9700000000000001
 23
-0.2857883832488648
 33
-0.1650000000000001
  0
3DFACE
  5
2F78
  8
WHEELS
 10
-0.95
 20
-0.3100000000000005
 30
-0.0000000000000001
 11
-0.95
 21
-0.2684678751731759
 31
0.155
 12
-0.95
 22
-0.199185842870421
 32
0.1149999999999999
 13
-0.95
 23
-0.23
 33
-0.0000000000000001
  0
3DFACE
  5
2F79
  8
WHEELS
 10
-0.6900000000000001
 20
-0.3464101615137753
 30
0.1999999999999999
 11
-0.6900000000000001
 21
-0.4000000000000004
 31
-0.0000000000000001
 12
-0.6900000000000003
 22
-0.1799999999999997
 32
-0.0000000000000001
 13
-0.6900000000000003
 23
-0.1558845726811988
 33
0.0899999999999998
  0
3DFACE
  5
2F7A
  8
WHEELS
 10
-0.9700000000000001
 20
-0.4000000000000004
 30
-0.0000000000000001
 11
-0.9700000000000001
 21
-0.3464101615137753
 31
0.1999999999999999
 12
-0.9700000000000001
 22
-0.2857883832488648
 32
0.165
 13
-0.9700000000000001
 23
-0.3300000000000001
 33
-0.0000000000000001
  0
3DFACE
  5
2F7B
  8
WHEELS
 10
-0.95
 20
-0.2684678751731759
 30
0.155
 11
-0.95
 21
-0.1550000000000002
 31
0.2684678751731759
 12
-0.95
 22
-0.1150000000000002
 32
0.1991858428704207
 13
-0.95
 23
-0.199185842870421
 33
0.1149999999999999
  0
3DFACE
  5
2F7C
  8
WHEELS
 10
-0.6900000000000001
 20
-0.2000000000000002
 30
0.3464101615137755
 11
-0.6900000000000001
 21
-0.3464101615137753
 31
0.1999999999999999
 12
-0.6900000000000003
 22
-0.1558845726811988
 32
0.09
 13
-0.6900000000000003
 23
-0.0900000000000003
 33
0.1558845726811985
  0
3DFACE
  5
2F7D
  8
WHEELS
 10
-0.9700000000000001
 20
-0.3464101615137753
 30
0.1999999999999999
 11
-0.9700000000000001
 21
-0.2000000000000002
 31
0.3464101615137754
 12
-0.9700000000000001
 22
-0.165
 32
0.2857883832488647
 13
-0.9700000000000001
 23
-0.2857883832488648
 33
0.165
  0
3DFACE
  5
2F7E
  8
WHEELS
 10
-0.95
 20
-0.1549999999999998
 30
0.2684678751731761
 11
-0.95
 21
0.0
 31
0.3100000000000001
 12
-0.95
 22
0.0
 32
0.23
 13
-0.95
 23
-0.1150000000000002
 33
0.199185842870421
  0
3DFACE
  5
2F7F
  8
WHEELS
 10
-0.6900000000000001
 20
0.0
 30
0.4000000000000002
 11
-0.6900000000000001
 21
-0.2000000000000002
 31
0.3464101615137756
 12
-0.6900000000000003
 22
-0.0899999999999999
 32
0.155884572681199
 13
-0.6900000000000003
 23
0.0
 33
0.18
  0
3DFACE
  5
2F80
  8
WHEELS
 10
-0.9700000000000001
 20
-0.2000000000000002
 30
0.3464101615137756
 11
-0.9700000000000001
 21
0.0
 31
0.4000000000000001
 12
-0.9700000000000001
 22
0.0
 32
0.3300000000000001
 13
-0.9700000000000001
 23
-0.165
 33
0.2857883832488648
  0
3DFACE
  5
2F81
  8
WHEELS
 10
-1.02
 20
-0.0636396103067893
 30
0.0636396103067893
 11
-1.02
 21
0.0
 31
0.09
 12
-1.02
 22
0.0
 32
0.05
 13
-1.02
 23
-0.0353553390593273
 33
0.0353553390593274
  0
3DFACE
  5
2F82
  8
WHEELS
 10
-1.0
 20
-0.085
 30
0.1472243186433546
 11
-1.0
 21
-0.0075000000000003
 31
0.1170096189432334
 12
-1.0
 22
0.0
 32
0.09
 13
-1.0
 23
-0.0636396103067893
 33
0.0636396103067893
  0
3DFACE
  5
2F83
  8
WHEELS
 10
-1.0
 20
-0.085
 30
0.1472243186433546
 11
-1.0
 21
-0.085
 31
0.1472243186433546
 12
-1.0
 22
-0.0149999999999997
 32
0.1299999999999999
 13
-1.0
 23
-0.0075000000000003
 33
0.1170096189432334
  0
3DFACE
  5
2F84
  8
WHEELS
 10
-1.0
 20
-0.085
 30
0.1472243186433546
 11
-1.0
 21
0.0
 31
0.17
 12
-1.0
 22
-0.0075000000000003
 32
0.1429903810567665
 13
-1.0
 23
-0.0149999999999997
 33
0.1299999999999999
  0
3DFACE
  5
2F85
  8
WHEELS
 10
-1.0
 20
0.0
 30
0.17
 11
-1.0
 21
0.0
 31
0.17
 12
-1.0
 22
0.0075000000000003
 32
0.1429903810567665
 13
-1.0
 23
-0.0075000000000003
 33
0.1429903810567665
  0
3DFACE
  5
2F86
  8
WHEELS
 10
-1.0
 20
0.0
 30
0.17
 11
-1.0
 21
0.085
 31
0.1472243186433546
 12
-1.0
 22
0.0149999999999997
 32
0.1299999999999999
 13
-1.0
 23
0.0075000000000003
 33
0.1429903810567665
  0
3DFACE
  5
2F87
  8
WHEELS
 10
-1.0
 20
0.085
 30
0.1472243186433546
 11
-1.0
 21
0.1050833024919773
 31
0.0779903810567665
 12
-1.0
 22
0.0075000000000003
 32
0.1170096189432334
 13
-1.0
 23
0.0149999999999997
 33
0.1299999999999999
  0
3DFACE
  5
2F88
  8
WHEELS
 10
-1.0
 20
0.0636396103067893
 30
0.0636396103067893
 11
-1.0
 21
0.0
 31
0.09
 12
-1.0
 22
-0.0075000000000003
 32
0.1170096189432334
 13
-1.0
 23
0.0075000000000003
 33
0.1170096189432334
  0
3DFACE
  5
2F89
  8
WHEELS
 10
-1.0
 20
0.0636396103067893
 30
0.0636396103067893
 11
-1.0
 21
0.0075000000000003
 31
0.1170096189432334
 12
-1.0
 22
0.1050833024919773
 32
0.0779903810567665
 13
-1.0
 23
0.097583302491977
 33
0.0650000000000001
  0
3DFACE
  5
2F8A
  8
WHEELS
 10
-1.0
 20
0.085
 30
0.1472243186433546
 11
-1.0
 21
0.1472243186433548
 31
0.085
 12
-1.0
 22
0.120083302491977
 32
0.0779903810567665
 13
-1.0
 23
0.1050833024919773
 33
0.0779903810567665
  0
3DFACE
  5
2F8B
  8
WHEELS
 10
-1.0
 20
0.1472243186433548
 30
0.085
 11
-1.0
 21
0.1472243186433548
 31
0.085
 12
-1.0
 22
0.1275833024919768
 32
0.0649999999999999
 13
-1.0
 23
0.120083302491977
 33
0.0779903810567665
  0
3DFACE
  5
2F8C
  8
WHEELS
 10
-1.0
 20
0.0899999999999999
 30
0.0
 11
-1.0
 21
0.0636396103067893
 31
0.0636396103067893
 12
-1.0
 22
0.097583302491977
 32
0.0650000000000001
 13
-1.0
 23
0.1050833024919773
 33
0.0520096189432335
  0
3DFACE
  5
2F8D
  8
WHEELS
 10
-1.0
 20
0.1699999999999999
 30
0.0000000000000001
 11
-1.0
 21
0.0899999999999999
 31
0.0
 12
-1.0
 22
0.1050833024919773
 32
0.0520096189432335
 13
-1.0
 23
0.120083302491977
 33
0.0520096189432335
  0
3DFACE
  5
2F8E
  8
WHEELS
 10
-1.0
 20
0.1472243186433548
 30
0.085
 11
-1.0
 21
0.1699999999999999
 31
0.0000000000000001
 12
-1.0
 22
0.120083302491977
 32
0.0520096189432335
 13
-1.0
 23
0.1275833024919768
 33
0.0649999999999999
  0
3DFACE
  5
2F8F
  8
WHEELS
 10
-1.02
 20
0.0
 30
0.0899999999999998
 11
-1.02
 21
0.0636396103067893
 31
0.0636396103067893
 12
-1.02
 22
0.0353553390593273
 32
0.0353553390593273
 13
-1.02
 23
0.0
 33
0.0499999999999998
  0
3DFACE
  5
2F90
  8
WHEELS
 10
-1.02
 20
0.0636396103067893
 30
0.0636396103067893
 11
-1.02
 21
0.0900000000000003
 31
-0.0000000000000001
 12
-1.02
 22
0.0500000000000003
 32
-0.0000000000000001
 13
-1.02
 23
0.0353553390593273
 33
0.0353553390593273
  0
3DFACE
  5
2F91
  8
WHEELS
 10
-1.02
 20
0.0899999999999999
 30
0.0000000000000002
 11
-1.02
 21
0.0636396103067893
 31
-0.0636396103067893
 12
-1.02
 22
0.0353553390593273
 32
-0.0353553390593273
 13
-1.02
 23
0.0499999999999998
 33
0.0000000000000002
  0
3DFACE
  5
2F92
  8
WHEELS
 10
-1.02
 20
0.0636396103067893
 30
-0.0636396103067893
 11
-1.02
 21
0.0
 31
-0.09
 12
-1.02
 22
0.0
 32
-0.0500000000000001
 13
-1.02
 23
0.0353553390593273
 33
-0.0353553390593274
  0
3DFACE
  5
2F93
  8
WHEELS
 10
-1.02
 20
0.0
 30
-0.0900000000000002
 11
-1.02
 21
-0.0636396103067893
 31
-0.0636396103067894
 12
-1.02
 22
-0.0353553390593273
 32
-0.0353553390593274
 13
-1.02
 23
0.0
 33
-0.0499999999999999
  0
3DFACE
  5
2F94
  8
WHEELS
 10
-1.02
 20
-0.0636396103067893
 30
-0.0636396103067892
 11
-1.02
 21
-0.0899999999999999
 31
-0.0000000000000001
 12
-1.02
 22
-0.0499999999999998
 32
0.0000000000000002
 13
-1.02
 23
-0.0353553390593273
 33
-0.0353553390593271
  0
3DFACE
  5
2F95
  8
WHEELS
 10
-1.02
 20
-0.0899999999999999
 30
-0.0000000000000002
 11
-1.02
 21
-0.0636396103067893
 31
0.0636396103067893
 12
-1.02
 22
-0.0353553390593273
 32
0.0353553390593274
 13
-1.02
 23
-0.0499999999999998
 33
0.0000000000000001
  0
3DFACE
  5
2F96
  8
WHEELS
 10
-1.0
 20
-0.085
 30
0.1472243186433546
 11
-1.0
 21
-0.0636396103067893
 31
0.0636396103067893
 12
-1.0
 22
-0.097583302491977
 32
0.0650000000000001
 13
-1.0
 23
-0.1050833024919768
 33
0.0779903810567665
  0
3DFACE
  5
2F97
  8
WHEELS
 10
-1.0
 20
-0.0636396103067893
 30
0.0636396103067893
 11
-1.0
 21
-0.0899999999999999
 31
0.0
 12
-1.0
 22
-0.1050833024919768
 32
0.0520096189432335
 13
-1.0
 23
-0.097583302491977
 33
0.0650000000000001
  0
3DFACE
  5
2F98
  8
WHEELS
 10
-1.0
 20
-0.085
 30
0.1472243186433546
 11
-1.0
 21
-0.085
 31
0.1472243186433546
 12
-1.0
 22
-0.1050833024919768
 32
0.0779903810567665
 13
-1.0
 23
-0.120083302491977
 33
0.0779903810567665
  0
3DFACE
  5
2F9A
  8
WHEELS
 10
-1.0
 20
-0.0899999999999999
 30
0.0
 11
-1.0
 21
-0.1699999999999999
 31
0.0
 12
-1.0
 22
-0.120083302491977
 32
0.0520096189432335
 13
-1.0
 23
-0.1050833024919768
 33
0.0520096189432335
  0
3DFACE
  5
2F9B
  8
WHEELS
 10
-1.0
 20
-0.1699999999999999
 30
0.0
 11
-1.0
 21
-0.1472243186433548
 31
0.085
 12
-1.0
 22
-0.1275833024919768
 32
0.0649999999999999
 13
-1.0
 23
-0.120083302491977
 33
0.0520096189432335
  0
3DFACE
  5
2F9C
  8
WHEELS
 10
-1.0
 20
-0.1472243186433548
 30
0.085
 11
-1.0
 21
-0.1472243186433548
 31
0.085
 12
-1.0
 22
-0.120083302491977
 32
0.0779903810567665
 13
-1.0
 23
-0.1275833024919768
 33
0.0649999999999999
  0
3DFACE
  5
2F9D
  8
WHEELS
 10
-1.0
 20
-0.1472243186433548
 30
0.085
 11
-1.0
 21
-0.1472243186433548
 31
0.085
 12
-1.0
 22
-0.085
 32
0.1472243186433546
 13
-1.0
 23
-0.120083302491977
 33
0.0779903810567665
  0
3DFACE
  5
2F9E
  8
WHEELS
 10
-1.0
 20
0.1699999999999999
 30
0.0000000000000001
 11
-1.0
 21
0.1472243186433548
 31
-0.085
 12
-1.0
 22
0.1275833024919768
 32
-0.0649999999999999
 13
-1.0
 23
0.1200833024919774
 33
-0.0520096189432335
  0
3DFACE
  5
2F9F
  8
WHEELS
 10
-1.0
 20
0.0900000000000003
 30
0.0
 11
-1.0
 21
0.1699999999999999
 31
0.0000000000000001
 12
-1.0
 22
0.1200833024919774
 32
-0.0520096189432335
 13
-1.0
 23
0.1050833024919768
 33
-0.0520096189432335
  0
3DFACE
  5
2FA0
  8
WHEELS
 10
-1.0
 20
0.1472243186433548
 30
-0.085
 11
-1.0
 21
0.1472243186433548
 31
-0.085
 12
-1.0
 22
0.1200833024919774
 32
-0.0779903810567665
 13
-1.0
 23
0.1275833024919768
 33
-0.0649999999999999
  0
3DFACE
  5
2FA1
  8
WHEELS
 10
-1.0
 20
0.1472243186433548
 30
-0.085
 11
-1.0
 21
0.1472243186433548
 31
-0.085
 12
-1.0
 22
0.0850000000000004
 32
-0.1472243186433546
 13
-1.0
 23
0.1200833024919774
 33
-0.0779903810567665
  0
3DFACE
  5
2FA2
  8
WHEELS
 10
-1.0
 20
0.0850000000000004
 30
-0.1472243186433546
 11
-1.0
 21
0.0850000000000004
 31
-0.1472243186433546
 12
-1.0
 22
0.1050833024919768
 32
-0.0779903810567665
 13
-1.0
 23
0.1200833024919774
 33
-0.0779903810567665
  0
3DFACE
  5
2FA3
  8
WHEELS
 10
-1.0
 20
0.0850000000000004
 30
-0.1472243186433546
 11
-1.0
 21
0.0636396103067893
 31
-0.0636396103067893
 12
-1.0
 22
0.0975833024919775
 32
-0.0650000000000001
 13
-1.0
 23
0.1050833024919768
 33
-0.0779903810567665
  0
3DFACE
  5
2FA4
  8
WHEELS
 10
-1.0
 20
0.0636396103067893
 30
-0.0636396103067893
 11
-1.0
 21
0.0900000000000003
 31
0.0
 12
-1.0
 22
0.1050833024919768
 32
-0.0520096189432335
 13
-1.0
 23
0.0975833024919775
 33
-0.0650000000000001
  0
3DFACE
  5
2FA5
  8
WHEELS
 10
-1.0
 20
0.0850000000000004
 30
-0.1472243186433546
 11
-1.0
 21
0.0075000000000003
 31
-0.1170096189432334
 12
-1.0
 22
0.0
 32
-0.09
 13
-1.0
 23
0.0636396103067893
 33
-0.0636396103067893
  0
3DFACE
  5
2FA6
  8
WHEELS
 10
-1.0
 20
0.0850000000000004
 30
-0.1472243186433546
 11
-1.0
 21
0.0000000000000004
 31
-0.17
 12
-1.0
 22
0.0075000000000003
 32
-0.1429903810567665
 13
-1.0
 23
0.0150000000000001
 33
-0.1299999999999999
  0
3DFACE
  5
2FA7
  8
WHEELS
 10
-1.0
 20
0.0850000000000004
 30
-0.1472243186433546
 11
-1.0
 21
0.0850000000000004
 31
-0.1472243186433546
 12
-1.0
 22
0.0150000000000001
 32
-0.1299999999999999
 13
-1.0
 23
0.0075000000000003
 33
-0.1170096189432334
  0
3DFACE
  5
2FA8
  8
WHEELS
 10
-1.0
 20
0.0000000000000004
 30
-0.17
 11
-1.0
 21
-0.0849999999999995
 31
-0.1472243186433547
 12
-1.0
 22
-0.0149999999999997
 32
-0.1299999999999999
 13
-1.0
 23
-0.0074999999999994
 33
-0.1429903810567665
  0
3DFACE
  5
2FA9
  8
WHEELS
 10
-1.0
 20
0.0000000000000004
 30
-0.17
 11
-1.0
 21
0.0000000000000004
 31
-0.17
 12
-1.0
 22
-0.0074999999999994
 32
-0.1429903810567665
 13
-1.0
 23
0.0075000000000003
 33
-0.1429903810567665
  0
3DFACE
  5
2FAA
  8
WHEELS
 10
-1.0
 20
-0.0636396103067893
 30
-0.0636396103067894
 11
-1.0
 21
0.0
 31
-0.09
 12
-1.0
 22
0.0075000000000003
 32
-0.1170096189432334
 13
-1.0
 23
-0.0074999999999998
 33
-0.1170096189432334
  0
3DFACE
  5
2FAB
  8
WHEELS
 10
-1.0
 20
-0.0849999999999995
 30
-0.1472243186433547
 11
-1.0
 21
-0.1050833024919768
 31
-0.0779903810567667
 12
-1.0
 22
-0.0074999999999998
 32
-0.1170096189432334
 13
-1.0
 23
-0.0149999999999997
 33
-0.1299999999999999
  0
3DFACE
  5
2FAC
  8
WHEELS
 10
-1.0
 20
-0.0636396103067893
 30
-0.0636396103067894
 11
-1.0
 21
-0.0074999999999998
 31
-0.1170096189432334
 12
-1.0
 22
-0.1050833024919768
 32
-0.0779903810567667
 13
-1.0
 23
-0.0975833024919766
 33
-0.0650000000000002
  0
3DFACE
  5
2FAD
  8
WHEELS
 10
-1.0
 20
-0.0849999999999995
 30
-0.1472243186433547
 11
-1.0
 21
-0.1472243186433544
 31
-0.0850000000000001
 12
-1.0
 22
-0.1200833024919765
 32
-0.0779903810567667
 13
-1.0
 23
-0.1050833024919768
 33
-0.0779903810567667
  0
3DFACE
  5
2FAE
  8
WHEELS
 10
-1.0
 20
-0.0899999999999999
 30
-0.0000000000000001
 11
-1.0
 21
-0.0636396103067893
 31
-0.0636396103067894
 12
-1.0
 22
-0.0975833024919766
 32
-0.0650000000000002
 13
-1.0
 23
-0.1050833024919768
 33
-0.0520096189432336
  0
3DFACE
  5
2FAF
  8
WHEELS
 10
-1.0
 20
-0.1699999999999999
 30
-0.0000000000000002
 11
-1.0
 21
-0.0899999999999999
 31
-0.0000000000000001
 12
-1.0
 22
-0.1050833024919768
 32
-0.0520096189432336
 13
-1.0
 23
-0.1200833024919765
 33
-0.0520096189432336
  0
3DFACE
  5
2FB0
  8
WHEELS
 10
-1.0
 20
-0.1472243186433544
 30
-0.0850000000000001
 11
-1.0
 21
-0.1699999999999999
 31
-0.0000000000000002
 12
-1.0
 22
-0.1200833024919765
 32
-0.0520096189432336
 13
-1.0
 23
-0.1275833024919768
 33
-0.065
  0
3DFACE
  5
2FB1
  8
WHEELS
 10
-1.0
 20
-0.1472243186433544
 30
-0.0850000000000001
 11
-1.0
 21
-0.1472243186433544
 31
-0.0850000000000001
 12
-1.0
 22
-0.1275833024919768
 32
-0.065
 13
-1.0
 23
-0.1200833024919765
 33
-0.0779903810567667
  0
3DFACE
  5
2FB2
  8
WHEELS
 10
-1.0700000000000001
 20
0.0
 30
-0.05
 11
-1.0700000000000001
 21
-0.0353553390593273
 31
-0.0353553390593274
 12
-1.0700000000000001
 22
-0.0499999999999998
 32
0.0
 13
-1.0700000000000001
 23
-0.0353553390593273
 33
0.0353553390593274
  0
3DFACE
  5
2FB3
  8
WHEELS
 10
-1.0700000000000001
 20
-0.0353553390593273
 30
0.0353553390593274
 11
-1.0700000000000001
 21
0.0
 31
0.05
 12
-1.0700000000000001
 22
0.0353553390593273
 32
-0.0353553390593274
 13
-1.0700000000000001
 23
0.0
 33
-0.05
  0
3DFACE
  5
2FB4
  8
WHEELS
 10
-1.0700000000000001
 20
0.0
 30
0.05
 11
-1.0700000000000001
 21
0.0353553390593273
 31
0.0353553390593274
 12
-1.0700000000000001
 22
0.0499999999999998
 32
0.0
 13
-1.0700000000000001
 23
0.0353553390593273
 33
-0.0353553390593274
  0
3DFACE
  5
2FB7
  8
WHEELS
 10
-0.5700000000000001
 20
0.0
 30
0.06
 11
-0.5700000000000001
 21
0.0424264068711928
 31
0.0424264068711929
 12
-0.5700000000000001
 22
0.0899999999999999
 32
0.155884572681199
 13
-0.5700000000000001
 23
0.0
 33
0.18
  0
3DFACE
  5
2FB8
  8
WHEELS
 10
-0.5700000000000001
 20
0.0424264068711928
 30
0.0424264068711929
 11
-0.5700000000000001
 21
0.0600000000000001
 31
0.0
 12
-0.5700000000000001
 22
0.1558845726811988
 32
0.09
 13
-0.5700000000000001
 23
0.0899999999999999
 33
0.155884572681199
  0
3DFACE
  5
2FB9
  8
WHEELS
 10
-0.5700000000000001
 20
0.0600000000000001
 30
0.0
 11
-0.5700000000000001
 21
0.0600000000000001
 31
0.0
 12
-0.5700000000000001
 22
0.1799999999999999
 32
0.0000000000000002
 13
-0.5700000000000001
 23
0.1558845726811988
 33
0.0900000000000002
  0
3DFACE
  5
2FBA
  8
WHEELS
 10
-0.5700000000000001
 20
0.042426406871193
 30
-0.0424264068711929
 11
-0.5700000000000001
 21
0.0000000000000002
 31
-0.0600000000000001
 12
-0.5700000000000001
 22
0.0900000000000003
 32
-0.1558845726811989
 13
-0.5700000000000001
 23
0.1558845726811993
 33
-0.0899999999999999
  0
3DFACE
  5
2FBB
  8
WHEELS
 10
-0.5700000000000001
 20
0.0600000000000003
 30
-0.0000000000000001
 11
-0.5700000000000001
 21
0.042426406871193
 31
-0.0424264068711929
 12
-0.5700000000000001
 22
0.1558845726811993
 32
-0.0899999999999999
 13
-0.5700000000000001
 23
0.1800000000000002
 33
-0.0000000000000001
  0
3DFACE
  5
2FBC
  8
WHEELS
 10
-0.5700000000000001
 20
0.0000000000000002
 30
-0.0600000000000001
 11
-0.5700000000000001
 21
0.0000000000000002
 31
-0.0600000000000001
 12
-0.5700000000000001
 22
0.0000000000000004
 32
-0.18
 13
-0.5700000000000001
 23
0.0900000000000003
 33
-0.1558845726811989
  0
3DFACE
  5
2FBD
  8
WHEELS
 10
-0.5700000000000001
 20
-0.0424264068711926
 30
-0.0424264068711929
 11
-0.5700000000000001
 21
-0.0599999999999998
 31
-0.0000000000000001
 12
-0.5700000000000001
 22
-0.1558845726811986
 32
-0.0900000000000002
 13
-0.5700000000000001
 23
-0.0899999999999994
 33
-0.1558845726811991
  0
3DFACE
  5
2FBE
  8
WHEELS
 10
-0.5700000000000001
 20
0.0000000000000002
 30
-0.06
 11
-0.5700000000000001
 21
-0.0424264068711926
 31
-0.0424264068711929
 12
-0.5700000000000001
 22
-0.0899999999999994
 32
-0.1558845726811991
 13
-0.5700000000000001
 23
0.0000000000000004
 33
-0.18
  0
3DFACE
  5
2FBF
  8
WHEELS
 10
-0.5700000000000001
 20
-0.0599999999999998
 30
-0.0000000000000001
 11
-0.5700000000000001
 21
-0.0599999999999998
 31
-0.0000000000000001
 12
-0.5700000000000001
 22
-0.1799999999999997
 32
-0.0000000000000003
 13
-0.5700000000000001
 23
-0.1558845726811986
 33
-0.0900000000000003
  0
3DFACE
  5
2FC0
  8
WHEELS
 10
-0.5700000000000001
 20
-0.042426406871193
 30
0.042426406871193
 11
-0.5700000000000001
 21
0.0
 31
0.0600000000000002
 12
-0.5700000000000001
 22
-0.0900000000000003
 32
0.1558845726811988
 13
-0.5700000000000001
 23
-0.155884572681199
 33
0.0899999999999998
  0
3DFACE
  5
2FC1
  8
WHEELS
 10
-0.5700000000000001
 20
-0.0600000000000001
 30
0.0000000000000002
 11
-0.5700000000000001
 21
-0.042426406871193
 31
0.042426406871193
 12
-0.5700000000000001
 22
-0.155884572681199
 32
0.0899999999999998
 13
-0.5700000000000001
 23
-0.1799999999999999
 33
-0.0000000000000001
  0
3DFACE
  5
2FC2
  8
WHEELS
 10
-0.5700000000000001
 20
0.0
 30
0.0600000000000002
 11
-0.5700000000000001
 21
0.0
 31
0.0600000000000002
 12
-0.5700000000000001
 22
-0.0000000000000004
 32
0.1800000000000001
 13
-0.5700000000000001
 23
-0.0900000000000003
 33
0.1558845726811988
  0
3DFACE
  5
2FC3
  8
WHEELS
 10
0.5700000000000001
 20
0.1799999999999997
 30
0.0
 11
0.5700000000000001
 21
0.1558845726811988
 31
0.09
 12
0.6900000000000003
 22
0.1558845726811988
 32
0.09
 13
0.6900000000000003
 23
0.1799999999999997
 33
0.0
  0
3DFACE
  5
2FC4
  8
WHEELS
 10
0.5700000000000001
 20
-0.1558845726811988
 30
0.09
 11
0.5700000000000001
 21
-0.1799999999999997
 31
0.0000000000000001
 12
0.6900000000000003
 22
-0.1799999999999997
 32
0.0000000000000001
 13
0.6900000000000003
 23
-0.1558845726811988
 33
0.09
  0
3DFACE
  5
2FC5
  8
WHEELS
 10
0.7399999999999999
 20
-0.48
 30
0.0
 11
0.7400000000000001
 21
-0.4156921938165308
 31
0.2399999999999999
 12
0.6900000000000001
 22
-0.3464101615137753
 32
0.2
 13
0.69
 23
-0.3999999999999999
 33
0.0
  0
3DFACE
  5
2FC6
  8
WHEELS
 10
0.7400000000000002
 20
0.4156921938165308
 30
0.2400000000000002
 11
0.7400000000000003
 21
0.4800000000000005
 31
0.0000000000000003
 12
0.6900000000000003
 22
0.4000000000000004
 32
0.0000000000000002
 13
0.6900000000000003
 23
0.3464101615137753
 33
0.2000000000000001
  0
3DFACE
  5
2FC7
  8
WHEELS
 10
1.02
 20
-0.0353553390593275
 30
0.0353553390593274
 11
1.02
 21
-0.0500000000000001
 31
0.0
 12
1.0700000000000001
 22
-0.0500000000000001
 32
0.0
 13
1.0700000000000001
 23
-0.0353553390593275
 33
0.0353553390593274
  0
3DFACE
  5
2FC8
  8
WHEELS
 10
1.0
 20
0.0899999999999997
 30
0.0
 11
1.0
 21
0.0636396103067891
 31
0.0636396103067893
 12
1.02
 22
0.0636396103067891
 32
0.0636396103067893
 13
1.02
 23
0.0899999999999997
 33
0.0
  0
3DFACE
  5
2FC9
  8
WHEELS
 10
1.0
 20
-0.0636396103067896
 30
0.0636396103067893
 11
1.0
 21
-0.0900000000000001
 31
0.0
 12
1.02
 22
-0.0900000000000001
 32
0.0
 13
1.02
 23
-0.0636396103067896
 33
0.0636396103067893
  0
3DFACE
  5
2FCA
  8
WHEELS
 10
0.95
 20
0.2299999999999998
 30
0.0
 11
0.95
 21
0.1991858428704207
 31
0.1149999999999999
 12
1.0
 22
0.1472243186433546
 32
0.085
 13
1.0
 23
0.1699999999999997
 33
0.0
  0
3DFACE
  5
2FCB
  8
WHEELS
 10
0.95
 20
-0.1991858428704212
 30
0.115
 11
0.95
 21
-0.2300000000000002
 31
0.0000000000000001
 12
1.0
 22
-0.1700000000000001
 32
0.0000000000000001
 13
1.0
 23
-0.1472243186433551
 33
0.085
  0
3DFACE
  5
2FCC
  8
WHEELS
 10
0.9700000000000002
 20
0.3300000000000001
 30
0.0
 11
0.9700000000000002
 21
0.2857883832488646
 31
0.165
 12
0.9500000000000001
 22
0.2684678751731757
 32
0.155
 13
0.9500000000000001
 23
0.3100000000000005
 33
0.0
  0
3DFACE
  5
2FCD
  8
WHEELS
 10
0.9700000000000001
 20
-0.285788383248865
 30
0.1650000000000001
 11
0.9700000000000001
 21
-0.3300000000000001
 31
0.0000000000000002
 12
0.95
 22
-0.3100000000000005
 32
0.0000000000000002
 13
0.95
 23
-0.2684678751731762
 33
0.1550000000000001
  0
3DFACE
  5
2FCE
  8
WHEELS
 10
0.9200000000000002
 20
0.4800000000000005
 30
0.0
 11
0.9200000000000002
 21
0.4156921938165308
 31
0.2399999999999999
 12
0.9700000000000001
 22
0.3464101615137753
 32
0.2
 13
0.9700000000000001
 23
0.4000000000000004
 33
0.0
  0
3DFACE
  5
2FCF
  8
WHEELS
 10
0.9200000000000002
 20
-0.4156921938165308
 30
0.2400000000000002
 11
0.9200000000000002
 21
-0.4800000000000005
 31
0.0000000000000003
 12
0.9699999999999999
 22
-0.4000000000000004
 32
0.0000000000000002
 13
0.9700000000000001
 23
-0.3464101615137753
 33
0.2000000000000001
  0
3DFACE
  5
2FD0
  8
WHEELS
 10
0.7400000000000002
 20
0.4800000000000005
 30
0.0
 11
0.7400000000000002
 21
0.4156921938165308
 31
0.2399999999999999
 12
0.9200000000000002
 22
0.4156921938165308
 32
0.2399999999999999
 13
0.9200000000000002
 23
0.4800000000000005
 33
0.0
  0
3DFACE
  5
2FD1
  8
WHEELS
 10
0.7400000000000001
 20
-0.4156921938165304
 30
0.2400000000000002
 11
0.7400000000000001
 21
-0.48
 31
0.0000000000000003
 12
0.9200000000000002
 22
-0.4800000000000005
 32
0.0000000000000003
 13
0.9200000000000002
 23
-0.4156921938165308
 33
0.2400000000000002
  0
3DFACE
  5
2FD2
  8
WHEELS
 10
0.95
 20
-0.2684678751731762
 30
0.155
 11
0.95
 21
-0.3100000000000005
 31
-0.0000000000000001
 12
0.95
 22
-0.2300000000000002
 32
0.0000000000000002
 13
0.95
 23
-0.1991858428704212
 33
0.1149999999999999
  0
3DFACE
  5
2FD3
  8
WHEELS
 10
0.69
 20
-0.4000000000000004
 30
0.0000000000000002
 11
0.6900000000000001
 21
-0.3464101615137753
 31
0.1999999999999999
 12
0.6900000000000003
 22
-0.1558845726811988
 32
0.09
 13
0.6900000000000003
 23
-0.1800000000000002
 33
0.0000000000000002
  0
3DFACE
  5
2FD4
  8
WHEELS
 10
0.9700000000000001
 20
-0.3464101615137753
 30
0.1999999999999999
 11
0.9699999999999999
 21
-0.4000000000000004
 31
0.0000000000000002
 12
0.9700000000000001
 22
-0.3300000000000001
 32
-0.0000000000000001
 13
0.9700000000000001
 23
-0.285788383248865
 33
0.165
  0
3DFACE
  5
2FD5
  8
WHEELS
 10
0.95
 20
0.3100000000000005
 30
-0.0000000000000001
 11
0.95
 21
0.2684678751731757
 31
0.155
 12
0.95
 22
0.1991858428704207
 32
0.1149999999999999
 13
0.95
 23
0.2299999999999998
 33
-0.0000000000000001
  0
3DFACE
  5
2FD6
  8
WHEELS
 10
0.6900000000000001
 20
0.3464101615137753
 30
0.1999999999999999
 11
0.6900000000000001
 21
0.4000000000000004
 31
-0.0000000000000001
 12
0.6900000000000003
 22
0.1799999999999997
 32
-0.0000000000000001
 13
0.6900000000000003
 23
0.1558845726811988
 33
0.0899999999999998
  0
3DFACE
  5
2FD7
  8
WHEELS
 10
0.9700000000000001
 20
0.4000000000000004
 30
-0.0000000000000001
 11
0.9700000000000001
 21
0.3464101615137753
 31
0.1999999999999999
 12
0.9700000000000001
 22
0.2857883832488646
 32
0.165
 13
0.9700000000000001
 23
0.3300000000000001
 33
-0.0000000000000001
  0
3DFACE
  5
2FD8
  8
WHEELS
 10
1.0
 20
-0.0900000000000001
 30
0.0
 11
1.0
 21
-0.0636396103067896
 31
0.0636396103067893
 12
1.0
 22
-0.0975833024919772
 32
0.0650000000000001
 13
1.0
 23
-0.1050833024919775
 33
0.0520096189432335
  0
3DFACE
  5
2FD9
  8
WHEELS
 10
1.0
 20
-0.1700000000000001
 30
0.0000000000000001
 11
1.0
 21
-0.0900000000000001
 31
0.0
 12
1.0
 22
-0.1050833024919775
 32
0.0520096189432335
 13
1.0
 23
-0.1200833024919772
 33
0.0520096189432335
  0
3DFACE
  5
2FDA
  8
WHEELS
 10
1.0
 20
-0.1472243186433551
 30
0.085
 11
1.0
 21
-0.1700000000000001
 31
0.0000000000000001
 12
1.0
 22
-0.1200833024919772
 32
0.0520096189432335
 13
1.0
 23
-0.127583302491977
 33
0.0649999999999999
  0
3DFACE
  5
2FDB
  8
WHEELS
 10
1.02
 20
-0.0636396103067896
 30
0.0636396103067893
 11
1.02
 21
-0.0900000000000006
 31
-0.0000000000000001
 12
1.02
 22
-0.0500000000000005
 32
-0.0000000000000001
 13
1.02
 23
-0.0353553390593275
 33
0.0353553390593273
  0
3DFACE
  5
2FDC
  8
WHEELS
 10
1.02
 20
0.0899999999999997
 30
-0.0000000000000002
 11
1.02
 21
0.0636396103067891
 31
0.0636396103067893
 12
1.02
 22
0.0353553390593271
 32
0.0353553390593274
 13
1.02
 23
0.0499999999999996
 33
0.0000000000000001
  0
3DFACE
  5
2FDD
  8
WHEELS
 10
1.0
 20
0.0636396103067891
 30
0.0636396103067893
 11
1.0
 21
0.0899999999999997
 31
0.0
 12
1.0
 22
0.1050833024919766
 32
0.0520096189432335
 13
1.0
 23
0.0975833024919768
 33
0.0650000000000001
  0
3DFACE
  5
2FDE
  8
WHEELS
 10
1.0
 20
0.0899999999999997
 30
0.0
 11
1.0
 21
0.1699999999999997
 31
0.0
 12
1.0
 22
0.1200833024919767
 32
0.0520096189432335
 13
1.0
 23
0.1050833024919766
 33
0.0520096189432335
  0
3DFACE
  5
2FDF
  8
WHEELS
 10
1.0
 20
0.1699999999999997
 30
0.0
 11
1.0
 21
0.1472243186433546
 31
0.085
 12
1.0
 22
0.1275833024919766
 32
0.0649999999999999
 13
1.0
 23
0.1200833024919767
 33
0.0520096189432335
  0
3DFACE
  5
2FE0
  8
WHEELS
 10
1.0700000000000001
 20
-0.0000000000000002
 30
-0.05
 11
1.0700000000000001
 21
0.0353553390593271
 31
-0.0353553390593274
 12
1.0700000000000001
 22
0.0499999999999996
 32
0.0
 13
1.0700000000000001
 23
0.0353553390593271
 33
0.0353553390593274
  0
3DFACE
  5
2FE1
  8
WHEELS
 10
1.02
 20
0.0499999999999996
 30
0.0
 11
1.02
 21
0.0353553390593271
 31
0.0353553390593274
 12
1.0700000000000001
 22
0.0353553390593271
 32
0.0353553390593274
 13
1.0700000000000001
 23
0.0499999999999996
 33
0.0
  0
3DFACE
  5
2FE2
  8
WHEELS
 10
1.0700000000000001
 20
0.0353553390593271
 30
0.0353553390593274
 11
1.0700000000000001
 21
-0.0000000000000002
 31
0.05
 12
1.0700000000000001
 22
-0.0353553390593275
 32
-0.0353553390593274
 13
1.0700000000000001
 23
-0.0000000000000002
 33
-0.05
  0
3DFACE
  5
2FE3
  8
WHEELS
 10
1.0700000000000001
 20
-0.0000000000000002
 30
0.05
 11
1.0700000000000001
 21
-0.0353553390593275
 31
0.0353553390593274
 12
1.0700000000000001
 22
-0.0500000000000001
 32
0.0
 13
1.0700000000000001
 23
-0.0353553390593275
 33
-0.0353553390593274
  0
3DFACE
  5
2FE4
  8
WHEELS
 10
0.5700000000000001
 20
0.0600000000000001
 30
0.0000000000000002
 11
0.5700000000000001
 21
0.042426406871193
 31
0.042426406871193
 12
0.5700000000000001
 22
0.155884572681199
 32
0.0899999999999998
 13
0.5700000000000001
 23
0.1799999999999999
 33
-0.0000000000000001
  0
3DFACE
  5
2FE5
  8
WHEELS
 10
0.5700000000000001
 20
-0.0600000000000001
 30
0.0
 11
0.5700000000000001
 21
-0.0600000000000001
 31
0.0
 12
0.5700000000000001
 22
-0.1799999999999999
 32
0.0000000000000002
 13
0.5700000000000001
 23
-0.1558845726811988
 33
0.0900000000000002
  0
3DFACE
  5
2FE6
  8
WHEELS
 10
0.5700000000000001
 20
-0.0424264068711928
 30
0.0424264068711929
 11
0.5700000000000001
 21
-0.0600000000000001
 31
0.0
 12
0.5700000000000001
 22
-0.1558845726811988
 32
0.09
 13
0.5700000000000001
 23
-0.0899999999999999
 33
0.155884572681199
  0
3DFACE
  5
2FE7
  8
WHEELS
 10
0.7400000000000002
 20
0.4156921938165308
 30
-0.2399999999999997
 11
0.7400000000000002
 21
0.2400000000000002
 31
-0.4156921938165305
 12
0.6900000000000003
 22
0.2000000000000002
 32
-0.3464101615137754
 13
0.6900000000000003
 23
0.3464101615137753
 33
-0.1999999999999998
  0
3DFACE
  5
2FE8
  8
WHEELS
 10
0.7400000000000002
 20
-0.2400000000000003
 30
-0.4156921938165305
 11
0.7400000000000001
 21
-0.4156921938165308
 31
-0.2399999999999998
 12
0.6900000000000001
 22
-0.3464101615137753
 32
-0.1999999999999999
 13
0.6900000000000001
 23
-0.2000000000000002
 33
-0.3464101615137754
  0
3DFACE
  5
2FE9
  8
WHEELS
 10
0.9700000000000001
 20
-0.285788383248865
 30
-0.1649999999999998
 11
0.9700000000000001
 21
-0.1650000000000003
 31
-0.2857883832488647
 12
0.95
 22
-0.1550000000000005
 32
-0.2684678751731759
 13
0.95
 23
-0.2684678751731762
 33
-0.1549999999999998
  0
3DFACE
  5
2FEA
  8
WHEELS
 10
0.9700000000000002
 20
0.1649999999999998
 30
-0.2857883832488647
 11
0.9700000000000002
 21
0.2857883832488646
 31
-0.1649999999999999
 12
0.9500000000000001
 22
0.2684678751731757
 32
-0.1549999999999998
 13
0.9500000000000001
 23
0.155
 33
-0.2684678751731759
  0
3DFACE
  5
2FEB
  8
WHEELS
 10
0.9200000000000002
 20
-0.4156921938165308
 30
-0.2399999999999997
 11
0.9200000000000002
 21
-0.2400000000000005
 31
-0.4156921938165305
 12
0.9700000000000001
 22
-0.2000000000000004
 32
-0.3464101615137754
 13
0.9700000000000001
 23
-0.3464101615137753
 33
-0.1999999999999998
  0
3DFACE
  5
2FEC
  8
WHEELS
 10
0.9200000000000002
 20
0.24
 30
-0.4156921938165305
 11
0.9200000000000002
 21
0.4156921938165308
 31
-0.2399999999999998
 12
0.9700000000000001
 22
0.3464101615137753
 32
-0.1999999999999999
 13
0.9700000000000001
 23
0.2
 33
-0.3464101615137754
  0
3DFACE
  5
2FED
  8
WHEELS
 10
0.7400000000000001
 20
-0.4156921938165308
 30
-0.2399999999999997
 11
0.7400000000000002
 21
-0.2400000000000003
 31
-0.4156921938165305
 12
0.9200000000000002
 22
-0.2400000000000005
 32
-0.4156921938165305
 13
0.9200000000000002
 23
-0.4156921938165308
 33
-0.2399999999999997
  0
3DFACE
  5
2FEE
  8
WHEELS
 10
0.7400000000000002
 20
0.2400000000000002
 30
-0.4156921938165305
 11
0.7400000000000002
 21
0.4156921938165308
 31
-0.2399999999999998
 12
0.9200000000000002
 22
0.4156921938165308
 32
-0.2399999999999998
 13
0.9200000000000002
 23
0.24
 33
-0.4156921938165305
  0
3DFACE
  5
2FEF
  8
WHEELS
 10
0.95
 20
-0.2684678751731762
 30
-0.1550000000000001
 11
0.95
 21
-0.155
 31
-0.2684678751731761
 12
0.95
 22
-0.115
 32
-0.199185842870421
 13
0.95
 23
-0.1991858428704207
 33
-0.115
  0
3DFACE
  5
2FF0
  8
WHEELS
 10
0.6900000000000001
 20
-0.2000000000000002
 30
-0.3464101615137756
 11
0.6900000000000001
 21
-0.3464101615137753
 31
-0.2
 12
0.6900000000000003
 22
-0.1558845726811988
 32
-0.0900000000000002
 13
0.6900000000000003
 23
-0.0899999999999999
 33
-0.1558845726811991
  0
3DFACE
  5
2FF1
  8
WHEELS
 10
0.9700000000000001
 20
-0.3464101615137753
 30
-0.2
 11
0.9700000000000001
 21
-0.2
 31
-0.3464101615137755
 12
0.9700000000000001
 22
-0.1649999999999998
 32
-0.2857883832488648
 13
0.9700000000000001
 23
-0.285788383248865
 33
-0.1650000000000001
  0
3DFACE
  5
2FF2
  8
WHEELS
 10
0.95
 20
-0.1550000000000005
 30
-0.2684678751731759
 11
0.95
 21
-0.0000000000000002
 31
-0.31
 12
0.95
 22
-0.0000000000000002
 32
-0.23
 13
0.95
 23
-0.1150000000000004
 33
-0.199185842870421
  0
3DFACE
  5
2FF3
  8
WHEELS
 10
0.6900000000000001
 20
0.0
 30
-0.4000000000000002
 11
0.6900000000000001
 21
-0.2000000000000002
 31
-0.3464101615137754
 12
0.6900000000000003
 22
-0.0899999999999999
 32
-0.1558845726811989
 13
0.6900000000000003
 23
0.0
 33
-0.1799999999999999
  0
3DFACE
  5
2FF4
  8
WHEELS
 10
0.95
 20
-0.0000000000000007
 30
-0.31
 11
0.95
 21
0.1549999999999991
 31
-0.2684678751731761
 12
0.95
 22
0.1149999999999991
 32
-0.199185842870421
 13
0.95
 23
-0.0000000000000007
 33
-0.23
  0
3DFACE
  5
2FF5
  8
WHEELS
 10
0.6900000000000001
 20
0.1999999999999993
 30
-0.3464101615137757
 11
0.6900000000000001
 21
-0.0000000000000004
 31
-0.4000000000000001
 12
0.6900000000000003
 22
-0.0000000000000004
 32
-0.18
 13
0.6900000000000003
 23
0.0899999999999994
 33
-0.1558845726811991
  0
3DFACE
  5
2FF6
  8
WHEELS
 10
0.95
 20
0.1549999999999996
 30
-0.268467875173176
 11
0.95
 21
0.2684678751731757
 31
-0.1550000000000003
 12
0.95
 22
0.1991858428704203
 32
-0.1150000000000003
 13
0.95
 23
0.1149999999999995
 33
-0.199185842870421
  0
3DFACE
  5
2FF7
  8
WHEELS
 10
0.6900000000000001
 20
0.3464101615137753
 30
-0.2000000000000004
 11
0.6900000000000001
 21
0.1999999999999997
 31
-0.3464101615137758
 12
0.6900000000000003
 22
0.0899999999999999
 32
-0.1558845726811991
 13
0.6900000000000003
 23
0.1558845726811988
 33
-0.0900000000000002
  0
3DFACE
  5
2FF8
  8
WHEELS
 10
0.9700000000000001
 20
0.1999999999999995
 30
-0.3464101615137758
 11
0.9700000000000001
 21
0.3464101615137753
 31
-0.2000000000000002
 12
0.9700000000000001
 22
0.2857883832488646
 32
-0.1650000000000001
 13
0.9700000000000001
 23
0.1649999999999994
 33
-0.2857883832488648
  0
3DFACE
  5
2FF9
  8
WHEELS
 10
0.7400000000000002
 20
0.2400000000000002
 30
-0.4156921938165305
 11
0.7400000000000002
 21
0.0
 31
-0.48
 12
0.6900000000000001
 22
0.0
 32
-0.4
 13
0.6900000000000003
 23
0.2000000000000002
 33
-0.3464101615137754
  0
3DFACE
  5
2FFA
  8
WHEELS
 10
0.7400000000000002
 20
0.0
 30
-0.48
 11
0.7400000000000002
 21
-0.2400000000000003
 31
-0.4156921938165305
 12
0.6900000000000001
 22
-0.2000000000000002
 32
-0.3464101615137754
 13
0.6900000000000001
 23
0.0
 33
-0.4
  0
3DFACE
  5
2FFB
  8
WHEELS
 10
0.9200000000000002
 20
-0.2400000000000005
 30
-0.4156921938165305
 11
0.9200000000000002
 21
-0.0000000000000002
 31
-0.48
 12
0.9700000000000001
 22
-0.0000000000000002
 32
-0.4
 13
0.9700000000000001
 23
-0.2000000000000004
 33
-0.3464101615137754
  0
3DFACE
  5
2FFC
  8
WHEELS
 10
0.9200000000000002
 20
-0.0000000000000002
 30
-0.48
 11
0.9200000000000002
 21
0.24
 31
-0.4156921938165305
 12
0.9700000000000001
 22
0.2
 32
-0.3464101615137754
 13
0.9700000000000001
 23
-0.0000000000000002
 33
-0.4
  0
3DFACE
  5
2FFD
  8
WHEELS
 10
0.9700000000000001
 20
-0.2000000000000004
 30
-0.3464101615137754
 11
0.9700000000000001
 21
-0.0000000000000002
 31
-0.4
 12
0.9700000000000001
 22
-0.0000000000000002
 32
-0.33
 13
0.9700000000000001
 23
-0.1650000000000003
 33
-0.2857883832488648
  0
3DFACE
  5
2FFE
  8
WHEELS
 10
0.9700000000000001
 20
-0.0000000000000007
 30
-0.4000000000000001
 11
0.9700000000000001
 21
0.1999999999999991
 31
-0.3464101615137756
 12
0.9700000000000001
 22
0.1649999999999994
 32
-0.2857883832488648
 13
0.9700000000000001
 23
-0.0000000000000007
 33
-0.33
  0
3DFACE
  5
2FFF
  8
WHEELS
 10
0.7400000000000002
 20
-0.2400000000000003
 30
-0.4156921938165305
 11
0.7400000000000002
 21
0.0
 31
-0.48
 12
0.9200000000000002
 22
-0.0000000000000002
 32
-0.48
 13
0.9200000000000002
 23
-0.2400000000000005
 33
-0.4156921938165305
  0
3DFACE
  5
3000
  8
WHEELS
 10
0.7400000000000002
 20
0.0
 30
-0.48
 11
0.7400000000000002
 21
0.2400000000000002
 31
-0.4156921938165305
 12
0.9200000000000002
 22
0.24
 32
-0.4156921938165305
 13
0.9200000000000002
 23
-0.0000000000000002
 33
-0.48
  0
3DFACE
  5
3001
  8
WHEELS
 10
0.9700000000000001
 20
-0.1650000000000003
 30
-0.2857883832488647
 11
0.9700000000000001
 21
-0.0000000000000002
 31
-0.33
 12
0.95
 22
-0.0000000000000002
 32
-0.31
 13
0.95
 23
-0.1550000000000005
 33
-0.2684678751731759
  0
3DFACE
  5
3002
  8
WHEELS
 10
0.9700000000000001
 20
-0.0000000000000002
 30
-0.33
 11
0.9700000000000002
 21
0.1649999999999998
 31
-0.2857883832488647
 12
0.9500000000000001
 22
0.155
 32
-0.2684678751731759
 13
0.95
 23
-0.0000000000000002
 33
-0.31
  0
3DFACE
  5
3003
  8
WHEELS
 10
0.5700000000000001
 20
-0.1558845726811988
 30
-0.0899999999999999
 11
0.5700000000000001
 21
-0.0899999999999999
 31
-0.1558845726811989
 12
0.6900000000000003
 22
-0.0899999999999999
 32
-0.1558845726811989
 13
0.6900000000000003
 23
-0.1558845726811988
 33
-0.0899999999999999
  0
3DFACE
  5
3004
  8
WHEELS
 10
0.5700000000000001
 20
0.0899999999999999
 30
-0.1558845726811989
 11
0.5700000000000001
 21
0.1558845726811988
 31
-0.0899999999999999
 12
0.6900000000000003
 22
0.1558845726811988
 32
-0.0899999999999999
 13
0.6900000000000003
 23
0.0899999999999999
 33
-0.1558845726811989
  0
3DFACE
  5
3005
  8
WHEELS
 10
0.7400000000000003
 20
0.4800000000000005
 30
0.0000000000000003
 11
0.7400000000000002
 21
0.4156921938165308
 31
-0.2399999999999997
 12
0.6900000000000003
 22
0.3464101615137753
 32
-0.1999999999999998
 13
0.6900000000000003
 23
0.4000000000000004
 33
0.0000000000000002
  0
3DFACE
  5
3006
  8
WHEELS
 10
0.7400000000000001
 20
-0.4156921938165308
 30
-0.2399999999999998
 11
0.7399999999999999
 21
-0.48
 31
0.0
 12
0.69
 22
-0.3999999999999999
 32
0.0
 13
0.6900000000000001
 23
-0.3464101615137753
 33
-0.1999999999999999
  0
3DFACE
  5
3007
  8
WHEELS
 10
0.95
 20
-0.2300000000000002
 30
0.0000000000000001
 11
0.95
 21
-0.1991858428704212
 31
-0.1149999999999998
 12
1.0
 22
-0.1472243186433551
 32
-0.0849999999999999
 13
1.0
 23
-0.1700000000000001
 33
0.0000000000000001
  0
3DFACE
  5
3008
  8
WHEELS
 10
0.95
 20
-0.1991858428704212
 30
-0.1149999999999998
 11
0.95
 21
-0.1150000000000004
 31
-0.1991858428704208
 12
1.0
 22
-0.0850000000000002
 32
-0.1472243186433546
 13
1.0
 23
-0.1472243186433551
 33
-0.0849999999999999
  0
3DFACE
  5
3009
  8
WHEELS
 10
0.95
 20
0.115
 30
-0.1991858428704209
 11
0.95
 21
0.1991858428704207
 31
-0.1149999999999999
 12
1.0
 22
0.1472243186433546
 32
-0.085
 13
1.0
 23
0.0849999999999998
 33
-0.1472243186433546
  0
3DFACE
  5
300A
  8
WHEELS
 10
0.95
 20
0.1991858428704207
 30
-0.1149999999999999
 11
0.95
 21
0.2299999999999998
 31
0.0
 12
1.0
 22
0.1699999999999997
 32
0.0
 13
1.0
 23
0.1472243186433546
 33
-0.085
  0
3DFACE
  5
300B
  8
WHEELS
 10
0.9700000000000001
 20
-0.3300000000000001
 30
0.0000000000000002
 11
0.9700000000000001
 21
-0.285788383248865
 31
-0.1649999999999998
 12
0.95
 22
-0.2684678751731762
 32
-0.1549999999999998
 13
0.95
 23
-0.3100000000000005
 33
0.0000000000000002
  0
3DFACE
  5
300C
  8
WHEELS
 10
0.9700000000000002
 20
0.2857883832488646
 30
-0.1649999999999999
 11
0.9700000000000002
 21
0.3300000000000001
 31
0.0
 12
0.9500000000000001
 22
0.3100000000000005
 32
0.0
 13
0.9500000000000001
 23
0.2684678751731757
 33
-0.1549999999999998
  0
3DFACE
  5
300D
  8
WHEELS
 10
0.9200000000000002
 20
-0.4800000000000005
 30
0.0000000000000003
 11
0.9200000000000002
 21
-0.4156921938165308
 31
-0.2399999999999997
 12
0.9700000000000001
 22
-0.3464101615137753
 32
-0.1999999999999998
 13
0.9699999999999999
 23
-0.4000000000000004
 33
0.0000000000000002
  0
3DFACE
  5
300E
  8
WHEELS
 10
0.9200000000000002
 20
0.4156921938165308
 30
-0.2399999999999998
 11
0.9200000000000002
 21
0.4800000000000005
 31
0.0
 12
0.9700000000000001
 22
0.4000000000000004
 32
0.0
 13
0.9700000000000001
 23
0.3464101615137753
 33
-0.1999999999999999
  0
3DFACE
  5
300F
  8
WHEELS
 10
0.7400000000000001
 20
-0.48
 30
0.0000000000000003
 11
0.7400000000000001
 21
-0.4156921938165308
 31
-0.2399999999999997
 12
0.9200000000000002
 22
-0.4156921938165308
 32
-0.2399999999999997
 13
0.9200000000000002
 23
-0.4800000000000005
 33
0.0000000000000003
  0
3DFACE
  5
3010
  8
WHEELS
 10
0.7400000000000002
 20
0.4156921938165308
 30
-0.2399999999999998
 11
0.7400000000000002
 21
0.4800000000000005
 31
0.0
 12
0.9200000000000002
 22
0.4800000000000005
 32
0.0
 13
0.9200000000000002
 23
0.4156921938165308
 33
-0.2399999999999998
  0
3DFACE
  5
3011
  8
WHEELS
 10
0.95
 20
-0.3100000000000005
 30
-0.0000000000000001
 11
0.95
 21
-0.2684678751731762
 31
-0.1550000000000001
 12
0.95
 22
-0.1991858428704212
 32
-0.115
 13
0.95
 23
-0.2300000000000007
 33
-0.0000000000000001
  0
3DFACE
  5
3012
  8
WHEELS
 10
0.6900000000000001
 20
-0.3464101615137758
 30
-0.2
 11
0.69
 21
-0.4000000000000004
 31
-0.0000000000000001
 12
0.6900000000000003
 22
-0.1800000000000002
 32
-0.0000000000000001
 13
0.6900000000000003
 23
-0.1558845726811993
 33
-0.0899999999999999
  0
3DFACE
  5
3013
  8
WHEELS
 10
0.9699999999999999
 20
-0.4000000000000004
 30
-0.0000000000000001
 11
0.9700000000000001
 21
-0.3464101615137762
 31
-0.2
 12
0.9700000000000001
 22
-0.285788383248865
 32
-0.1650000000000001
 13
0.9700000000000001
 23
-0.3300000000000001
 33
-0.0000000000000001
  0
3DFACE
  5
3014
  8
WHEELS
 10
0.95
 20
0.2684678751731757
 30
-0.1550000000000001
 11
0.95
 21
0.3100000000000005
 31
-0.0000000000000001
 12
0.95
 22
0.2299999999999998
 32
-0.0000000000000001
 13
0.95
 23
0.1991858428704203
 33
-0.115
  0
3DFACE
  5
3015
  8
WHEELS
 10
0.6900000000000001
 20
0.4000000000000004
 30
-0.0000000000000003
 11
0.6900000000000001
 21
0.3464101615137753
 31
-0.2000000000000002
 12
0.6900000000000003
 22
0.1558845726811988
 32
-0.0900000000000002
 13
0.6900000000000003
 23
0.1799999999999997
 33
-0.0000000000000001
  0
3DFACE
  5
3016
  8
WHEELS
 10
0.9700000000000001
 20
0.3464101615137753
 30
-0.2000000000000002
 11
0.9700000000000001
 21
0.4000000000000004
 31
-0.0000000000000003
 12
0.9700000000000001
 22
0.3300000000000001
 32
-0.0000000000000001
 13
0.9700000000000001
 23
0.2857883832488646
 33
-0.1650000000000001
  0
3DFACE
  5
3017
  8
WHEELS
 10
1.0
 20
-0.1472243186433551
 30
-0.085
 11
1.0
 21
-0.1472243186433551
 31
-0.085
 12
1.0
 22
-0.0850000000000007
 32
-0.1472243186433546
 13
1.0
 23
-0.1200833024919776
 33
-0.0779903810567665
  0
3DFACE
  5
3018
  8
WHEELS
 10
1.0
 20
-0.0850000000000007
 30
-0.1472243186433546
 11
1.0
 21
-0.0850000000000007
 31
-0.1472243186433546
 12
1.0
 22
-0.1050833024919771
 32
-0.0779903810567665
 13
1.0
 23
-0.1200833024919776
 33
-0.0779903810567665
  0
3DFACE
  5
3019
  8
WHEELS
 10
1.0
 20
-0.0850000000000007
 30
-0.1472243186433546
 11
1.0
 21
-0.0636396103067896
 31
-0.0636396103067893
 12
1.0
 22
-0.0975833024919777
 32
-0.0650000000000001
 13
1.0
 23
-0.1050833024919771
 33
-0.0779903810567665
  0
3DFACE
  5
301A
  8
WHEELS
 10
1.0
 20
-0.0850000000000007
 30
-0.1472243186433546
 11
1.0
 21
-0.0075000000000005
 31
-0.1170096189432334
 12
1.0
 22
-0.0000000000000002
 32
-0.09
 13
1.0
 23
-0.0636396103067896
 33
-0.0636396103067893
  0
3DFACE
  5
301B
  8
WHEELS
 10
1.0
 20
0.0636396103067891
 30
-0.0636396103067894
 11
1.0
 21
-0.0000000000000002
 31
-0.09
 12
1.0
 22
-0.0075000000000005
 32
-0.1170096189432334
 13
1.0
 23
0.0074999999999996
 33
-0.1170096189432334
  0
3DFACE
  5
301C
  8
WHEELS
 10
1.0
 20
0.0849999999999993
 30
-0.1472243186433547
 11
1.0
 21
0.1050833024919766
 31
-0.0779903810567667
 12
1.0
 22
0.0074999999999996
 32
-0.1170096189432334
 13
1.0
 23
0.0149999999999995
 33
-0.1299999999999999
  0
3DFACE
  5
301D
  8
WHEELS
 10
1.0
 20
0.0636396103067891
 30
-0.0636396103067894
 11
1.0
 21
0.0074999999999996
 31
-0.1170096189432334
 12
1.0
 22
0.1050833024919766
 32
-0.0779903810567667
 13
1.0
 23
0.0975833024919764
 33
-0.0650000000000002
  0
3DFACE
  5
301E
  8
WHEELS
 10
1.0
 20
0.0849999999999993
 30
-0.1472243186433547
 11
1.0
 21
0.1472243186433542
 31
-0.0850000000000001
 12
1.0
 22
0.1200833024919763
 32
-0.0779903810567667
 13
1.0
 23
0.1050833024919766
 33
-0.0779903810567667
  0
3DFACE
  5
301F
  8
WHEELS
 10
0.5700000000000001
 20
-0.0000000000000002
 30
-0.06
 11
0.5700000000000001
 21
0.0424264068711926
 31
-0.0424264068711929
 12
0.5700000000000001
 22
0.0899999999999994
 32
-0.1558845726811991
 13
0.5700000000000001
 23
-0.0000000000000004
 33
-0.18
  0
3DFACE
  5
3020
  8
WHEELS
 10
0.5700000000000001
 20
0.0424264068711926
 30
-0.0424264068711929
 11
0.5700000000000001
 21
0.0599999999999998
 31
-0.0000000000000001
 12
0.5700000000000001
 22
0.1558845726811986
 32
-0.0900000000000002
 13
0.5700000000000001
 23
0.0899999999999994
 33
-0.1558845726811991
  0
3DFACE
  5
3021
  8
WHEELS
 10
0.5700000000000001
 20
-0.0000000000000002
 30
-0.0600000000000001
 11
0.5700000000000001
 21
-0.0000000000000002
 31
-0.0600000000000001
 12
0.5700000000000001
 22
-0.0000000000000004
 32
-0.18
 13
0.5700000000000001
 23
-0.0900000000000003
 33
-0.1558845726811989
  0
3DFACE
  5
3022
  8
WHEELS
 10
0.5700000000000001
 20
-0.042426406871193
 30
-0.0424264068711929
 11
0.5700000000000001
 21
-0.0000000000000002
 31
-0.0600000000000001
 12
0.5700000000000001
 22
-0.0900000000000003
 32
-0.1558845726811989
 13
0.5700000000000001
 23
-0.1558845726811993
 33
-0.0899999999999999
  0
3DFACE
  5
3023
  8
WHEELS
 10
0.5700000000000001
 20
-0.0899999999999999
 30
-0.1558845726811989
 11
0.5700000000000001
 21
0.0
 31
-0.18
 12
0.6900000000000003
 22
0.0
 32
-0.18
 13
0.6900000000000003
 23
-0.0899999999999999
 33
-0.1558845726811989
  0
3DFACE
  5
3024
  8
WHEELS
 10
0.5700000000000001
 20
0.0
 30
-0.18
 11
0.5700000000000001
 21
0.0899999999999999
 31
-0.1558845726811989
 12
0.6900000000000003
 22
0.0899999999999999
 32
-0.1558845726811989
 13
0.6900000000000003
 23
0.0
 33
-0.18
  0
3DFACE
  5
3025
  8
WHEELS
 10
0.95
 20
-0.1150000000000004
 30
-0.1991858428704208
 11
0.95
 21
-0.0000000000000002
 31
-0.23
 12
1.0
 22
-0.0000000000000002
 32
-0.17
 13
1.0
 23
-0.0850000000000002
 33
-0.1472243186433546
  0
3DFACE
  5
3026
  8
WHEELS
 10
0.95
 20
-0.0000000000000002
 30
-0.23
 11
0.95
 21
0.115
 31
-0.1991858428704209
 12
1.0
 22
0.0849999999999998
 32
-0.1472243186433546
 13
1.0
 23
-0.0000000000000002
 33
-0.17
  0
3DFACE
  5
3027
  8
WHEELS
 10
1.01
 20
0.0149999999999995
 30
-0.1299999999999999
 11
1.01
 21
-0.0149999999999999
 31
-0.1299999999999999
 12
1.01
 22
-0.0075000000000005
 32
-0.1429903810567665
 13
1.01
 23
0.0075000000000001
 33
-0.1429903810567665
  0
3DFACE
  5
3028
  8
WHEELS
 10
1.01
 20
0.0075000000000001
 30
-0.1170096189432334
 11
1.01
 21
-0.0075000000000005
 31
-0.1170096189432334
 12
1.01
 22
-0.0149999999999999
 32
-0.1299999999999999
 13
1.01
 23
0.0149999999999995
 33
-0.1299999999999999
  0
3DFACE
  5
3029
  8
WHEELS
 10
1.0
 20
-0.0075000000000005
 30
-0.1170096189432334
 11
1.0
 21
-0.0149999999999999
 31
-0.1299999999999999
 12
1.01
 22
-0.0149999999999999
 32
-0.1299999999999999
 13
1.01
 23
-0.0075000000000005
 33
-0.1170096189432334
  0
3DFACE
  5
302A
  8
WHEELS
 10
1.0
 20
0.0075000000000001
 30
-0.1170096189432334
 11
1.0
 21
-0.0075000000000005
 31
-0.1170096189432334
 12
1.01
 22
-0.0075000000000005
 32
-0.1170096189432334
 13
1.01
 23
0.0075000000000001
 33
-0.1170096189432334
  0
3DFACE
  5
302B
  8
WHEELS
 10
1.0
 20
0.0149999999999995
 30
-0.1299999999999999
 11
1.0
 21
0.0075000000000001
 31
-0.1170096189432334
 12
1.01
 22
0.0075000000000001
 32
-0.1170096189432334
 13
1.01
 23
0.0149999999999995
 33
-0.1299999999999999
  0
3DFACE
  5
302C
  8
WHEELS
 10
1.0
 20
0.0075000000000001
 30
-0.1429903810567665
 11
1.0
 21
0.0149999999999995
 31
-0.1299999999999999
 12
1.01
 22
0.0149999999999995
 32
-0.1299999999999999
 13
1.01
 23
0.0075000000000001
 33
-0.1429903810567665
  0
3DFACE
  5
302D
  8
WHEELS
 10
1.0
 20
-0.0075000000000005
 30
-0.1429903810567665
 11
1.0
 21
0.0075000000000001
 31
-0.1429903810567665
 12
1.01
 22
0.0075000000000001
 32
-0.1429903810567665
 13
1.01
 23
-0.0075000000000005
 33
-0.1429903810567665
  0
3DFACE
  5
302E
  8
WHEELS
 10
1.0
 20
-0.0149999999999999
 30
-0.1299999999999999
 11
1.0
 21
-0.0075000000000005
 31
-0.1429903810567665
 12
1.01
 22
-0.0075000000000005
 32
-0.1429903810567665
 13
1.01
 23
-0.0149999999999999
 33
-0.1299999999999999
  0
3DFACE
  5
302F
  8
WHEELS
 10
1.0
 20
-0.0850000000000007
 30
-0.1472243186433546
 11
1.0
 21
-0.0000000000000007
 31
-0.17
 12
1.0
 22
-0.0075000000000005
 32
-0.1429903810567665
 13
1.0
 23
-0.0150000000000004
 33
-0.1299999999999999
  0
3DFACE
  5
3030
  8
WHEELS
 10
1.0
 20
-0.0850000000000007
 30
-0.1472243186433546
 11
1.0
 21
-0.0850000000000007
 31
-0.1472243186433546
 12
1.0
 22
-0.0150000000000004
 32
-0.1299999999999999
 13
1.0
 23
-0.0075000000000005
 33
-0.1170096189432334
  0
3DFACE
  5
3031
  8
WHEELS
 10
1.0
 20
-0.0000000000000007
 30
-0.17
 11
1.0
 21
0.0849999999999993
 31
-0.1472243186433547
 12
1.0
 22
0.0149999999999995
 32
-0.1299999999999999
 13
1.0
 23
0.0074999999999992
 33
-0.1429903810567665
  0
3DFACE
  5
3032
  8
WHEELS
 10
1.0
 20
-0.0000000000000007
 30
-0.17
 11
1.0
 21
-0.0000000000000007
 31
-0.17
 12
1.0
 22
0.0074999999999992
 32
-0.1429903810567665
 13
1.0
 23
-0.0075000000000005
 33
-0.1429903810567665
  0
3DFACE
  5
3033
  8
WHEELS
 10
0.5700000000000001
 20
-0.1799999999999997
 30
0.0000000000000001
 11
0.5700000000000001
 21
-0.1558845726811988
 31
-0.0899999999999999
 12
0.6900000000000003
 22
-0.1558845726811988
 32
-0.0899999999999999
 13
0.6900000000000003
 23
-0.1799999999999997
 33
0.0000000000000001
  0
3DFACE
  5
3034
  8
WHEELS
 10
0.5700000000000001
 20
0.1558845726811988
 30
-0.0899999999999999
 11
0.5700000000000001
 21
0.1799999999999997
 31
0.0
 12
0.6900000000000003
 22
0.1799999999999997
 32
0.0
 13
0.6900000000000003
 23
0.1558845726811988
 33
-0.0899999999999999
  0
3DFACE
  5
3035
  8
WHEELS
 10
1.02
 20
-0.0500000000000001
 30
0.0
 11
1.02
 21
-0.0353553390593275
 31
-0.0353553390593274
 12
1.0700000000000001
 22
-0.0353553390593275
 32
-0.0353553390593274
 13
1.0700000000000001
 23
-0.0500000000000001
 33
0.0
  0
3DFACE
  5
3036
  8
WHEELS
 10
1.02
 20
-0.0353553390593275
 30
-0.0353553390593274
 11
1.02
 21
-0.0000000000000002
 31
-0.05
 12
1.0700000000000001
 22
-0.0000000000000002
 32
-0.05
 13
1.0700000000000001
 23
-0.0353553390593275
 33
-0.0353553390593274
  0
3DFACE
  5
3037
  8
WHEELS
 10
1.0
 20
-0.0900000000000001
 30
0.0
 11
1.0
 21
-0.0636396103067896
 31
-0.0636396103067893
 12
1.02
 22
-0.0636396103067896
 32
-0.0636396103067893
 13
1.02
 23
-0.0900000000000001
 33
0.0
  0
3DFACE
  5
3038
  8
WHEELS
 10
1.0
 20
-0.0636396103067896
 30
-0.0636396103067893
 11
1.0
 21
-0.0000000000000002
 31
-0.09
 12
1.02
 22
-0.0000000000000002
 32
-0.09
 13
1.02
 23
-0.0636396103067896
 33
-0.0636396103067893
  0
3DFACE
  5
3039
  8
WHEELS
 10
1.0
 20
-0.0000000000000002
 30
-0.09
 11
1.0
 21
0.0636396103067891
 31
-0.0636396103067893
 12
1.02
 22
0.0636396103067891
 32
-0.0636396103067893
 13
1.02
 23
-0.0000000000000002
 33
-0.09
  0
3DFACE
  5
303A
  8
WHEELS
 10
1.0
 20
0.0636396103067891
 30
-0.0636396103067893
 11
1.0
 21
0.0899999999999997
 31
0.0
 12
1.02
 22
0.0899999999999997
 32
0.0
 13
1.02
 23
0.0636396103067891
 33
-0.0636396103067893
  0
3DFACE
  5
303B
  8
WHEELS
 10
1.01
 20
-0.1050833024919771
 30
-0.0779903810567667
 11
1.01
 21
-0.1200833024919767
 31
-0.0520096189432334
 12
1.01
 22
-0.127583302491977
 32
-0.065
 13
1.01
 23
-0.1200833024919767
 33
-0.0779903810567667
  0
3DFACE
  5
303C
  8
WHEELS
 10
1.01
 20
-0.0975833024919768
 30
-0.065
 11
1.01
 21
-0.1050833024919771
 31
-0.0520096189432334
 12
1.01
 22
-0.1200833024919767
 32
-0.0520096189432334
 13
1.01
 23
-0.1050833024919771
 33
-0.0779903810567667
  0
3DFACE
  5
303D
  8
WHEELS
 10
1.0
 20
-0.1050833024919771
 30
-0.0520096189432334
 11
1.0
 21
-0.1200833024919767
 31
-0.0520096189432334
 12
1.01
 22
-0.1200833024919767
 32
-0.0520096189432334
 13
1.01
 23
-0.1050833024919771
 33
-0.0520096189432334
  0
3DFACE
  5
303E
  8
WHEELS
 10
1.0
 20
-0.0975833024919768
 30
-0.065
 11
1.0
 21
-0.1050833024919771
 31
-0.0520096189432334
 12
1.01
 22
-0.1050833024919771
 32
-0.0520096189432334
 13
1.01
 23
-0.0975833024919768
 33
-0.065
  0
3DFACE
  5
303F
  8
WHEELS
 10
1.0
 20
-0.1050833024919771
 30
-0.0779903810567667
 11
1.0
 21
-0.0975833024919768
 31
-0.065
 12
1.01
 22
-0.0975833024919768
 32
-0.065
 13
1.01
 23
-0.1050833024919771
 33
-0.0779903810567667
  0
3DFACE
  5
3040
  8
WHEELS
 10
1.0
 20
-0.1200833024919767
 30
-0.0779903810567667
 11
1.0
 21
-0.1050833024919771
 31
-0.0779903810567667
 12
1.01
 22
-0.1050833024919771
 32
-0.0779903810567667
 13
1.01
 23
-0.1200833024919767
 33
-0.0779903810567667
  0
3DFACE
  5
3041
  8
WHEELS
 10
1.0
 20
-0.127583302491977
 30
-0.065
 11
1.0
 21
-0.1200833024919767
 31
-0.0779903810567667
 12
1.01
 22
-0.1200833024919767
 32
-0.0779903810567667
 13
1.01
 23
-0.127583302491977
 33
-0.065
  0
3DFACE
  5
3042
  8
WHEELS
 10
1.0
 20
-0.1200833024919767
 30
-0.0520096189432334
 11
1.0
 21
-0.127583302491977
 31
-0.065
 12
1.01
 22
-0.127583302491977
 32
-0.065
 13
1.01
 23
-0.1200833024919767
 33
-0.0520096189432334
  0
3DFACE
  5
3043
  8
WHEELS
 10
1.01
 20
0.1200833024919763
 30
-0.0520096189432334
 11
1.01
 21
0.1050833024919766
 31
-0.0779903810567664
 12
1.01
 22
0.1200833024919763
 32
-0.0779903810567664
 13
1.01
 23
0.1275833024919766
 33
-0.0649999999999998
  0
3DFACE
  5
3044
  8
WHEELS
 10
1.01
 20
0.1050833024919766
 30
-0.0520096189432334
 11
1.01
 21
0.0975833024919764
 31
-0.065
 12
1.01
 22
0.1050833024919766
 32
-0.0779903810567664
 13
1.01
 23
0.1200833024919763
 33
-0.0520096189432334
  0
3DFACE
  5
3045
  8
WHEELS
 10
1.0
 20
0.0975833024919764
 30
-0.065
 11
1.0
 21
0.1050833024919766
 31
-0.0779903810567664
 12
1.01
 22
0.1050833024919766
 32
-0.0779903810567664
 13
1.01
 23
0.0975833024919764
 33
-0.065
  0
3DFACE
  5
3046
  8
WHEELS
 10
1.0
 20
0.1050833024919766
 30
-0.0520096189432334
 11
1.0
 21
0.0975833024919764
 31
-0.065
 12
1.01
 22
0.0975833024919764
 32
-0.065
 13
1.01
 23
0.1050833024919766
 33
-0.0520096189432334
  0
3DFACE
  5
3047
  8
WHEELS
 10
1.0
 20
0.1200833024919763
 30
-0.0520096189432334
 11
1.0
 21
0.1050833024919766
 31
-0.0520096189432334
 12
1.01
 22
0.1050833024919766
 32
-0.0520096189432334
 13
1.01
 23
0.1200833024919763
 33
-0.0520096189432334
  0
3DFACE
  5
3048
  8
WHEELS
 10
1.0
 20
0.1275833024919766
 30
-0.0649999999999998
 11
1.0
 21
0.1200833024919763
 31
-0.0520096189432334
 12
1.01
 22
0.1200833024919763
 32
-0.0520096189432334
 13
1.01
 23
0.1275833024919766
 33
-0.0649999999999998
  0
3DFACE
  5
3049
  8
WHEELS
 10
1.0
 20
0.1200833024919763
 30
-0.0779903810567664
 11
1.0
 21
0.1275833024919766
 31
-0.0649999999999998
 12
1.01
 22
0.1275833024919766
 32
-0.0649999999999998
 13
1.01
 23
0.1200833024919763
 33
-0.0779903810567664
  0
3DFACE
  5
304A
  8
WHEELS
 10
1.0
 20
0.1050833024919766
 30
-0.0779903810567664
 11
1.0
 21
0.1200833024919763
 31
-0.0779903810567664
 12
1.01
 22
0.1200833024919763
 32
-0.0779903810567664
 13
1.01
 23
0.1050833024919766
 33
-0.0779903810567664
  0
3DFACE
  5
304B
  8
WHEELS
 10
1.02
 20
-0.0900000000000001
 30
0.0000000000000002
 11
1.02
 21
-0.0636396103067896
 31
-0.0636396103067893
 12
1.02
 22
-0.0353553390593275
 32
-0.0353553390593273
 13
1.02
 23
-0.0500000000000001
 33
0.0000000000000002
  0
3DFACE
  5
304C
  8
WHEELS
 10
1.02
 20
-0.0636396103067896
 30
-0.0636396103067893
 11
1.02
 21
-0.0000000000000002
 31
-0.09
 12
1.02
 22
-0.0000000000000002
 32
-0.0500000000000001
 13
1.02
 23
-0.0353553390593275
 33
-0.0353553390593274
  0
3DFACE
  5
304D
  8
WHEELS
 10
1.02
 20
-0.0000000000000002
 30
-0.0900000000000002
 11
1.02
 21
0.0636396103067891
 31
-0.0636396103067894
 12
1.02
 22
0.0353553390593271
 32
-0.0353553390593274
 13
1.02
 23
-0.0000000000000002
 33
-0.0499999999999999
  0
3DFACE
  5
304E
  8
WHEELS
 10
1.02
 20
0.0636396103067891
 30
-0.0636396103067892
 11
1.02
 21
0.0899999999999997
 31
-0.0000000000000001
 12
1.02
 22
0.0499999999999996
 32
0.0000000000000002
 13
1.02
 23
0.0353553390593271
 33
-0.0353553390593271
  0
3DFACE
  5
304F
  8
WHEELS
 10
1.0
 20
-0.1700000000000001
 30
0.0000000000000001
 11
1.0
 21
-0.1472243186433551
 31
-0.085
 12
1.0
 22
-0.127583302491977
 32
-0.0649999999999999
 13
1.0
 23
-0.1200833024919776
 33
-0.0520096189432335
  0
3DFACE
  5
3050
  8
WHEELS
 10
1.0
 20
-0.0900000000000006
 30
0.0
 11
1.0
 21
-0.1700000000000001
 31
0.0000000000000001
 12
1.0
 22
-0.1200833024919776
 32
-0.0520096189432335
 13
1.0
 23
-0.1050833024919771
 33
-0.0520096189432335
  0
3DFACE
  5
3051
  8
WHEELS
 10
1.0
 20
-0.1472243186433551
 30
-0.085
 11
1.0
 21
-0.1472243186433551
 31
-0.085
 12
1.0
 22
-0.1200833024919776
 32
-0.0779903810567665
 13
1.0
 23
-0.127583302491977
 33
-0.0649999999999999
  0
3DFACE
  5
3052
  8
WHEELS
 10
1.0
 20
-0.0636396103067896
 30
-0.0636396103067893
 11
1.0
 21
-0.0900000000000006
 31
0.0
 12
1.0
 22
-0.1050833024919771
 32
-0.0520096189432335
 13
1.0
 23
-0.0975833024919777
 33
-0.0650000000000001
  0
3DFACE
  5
3053
  8
WHEELS
 10
1.0
 20
0.0899999999999997
 30
-0.0000000000000001
 11
1.0
 21
0.0636396103067891
 31
-0.0636396103067894
 12
1.0
 22
0.0975833024919764
 32
-0.0650000000000002
 13
1.0
 23
0.1050833024919766
 33
-0.0520096189432336
  0
3DFACE
  5
3054
  8
WHEELS
 10
1.0
 20
0.1699999999999997
 30
-0.0000000000000002
 11
1.0
 21
0.0899999999999997
 31
-0.0000000000000001
 12
1.0
 22
0.1050833024919766
 32
-0.0520096189432336
 13
1.0
 23
0.1200833024919763
 33
-0.0520096189432336
  0
3DFACE
  5
3055
  8
WHEELS
 10
1.0
 20
0.1472243186433542
 30
-0.0850000000000001
 11
1.0
 21
0.1699999999999997
 31
-0.0000000000000002
 12
1.0
 22
0.1200833024919763
 32
-0.0520096189432336
 13
1.0
 23
0.1275833024919766
 33
-0.065
  0
3DFACE
  5
3056
  8
WHEELS
 10
1.0
 20
0.1472243186433542
 30
-0.0850000000000001
 11
1.0
 21
0.1472243186433542
 31
-0.0850000000000001
 12
1.0
 22
0.1275833024919766
 32
-0.065
 13
1.0
 23
0.1200833024919763
 33
-0.0779903810567667
  0
3DFACE
  5
3057
  8
WHEELS
 10
1.02
 20
-0.0000000000000002
 30
-0.05
 11
1.02
 21
0.0353553390593271
 31
-0.0353553390593274
 12
1.0700000000000001
 22
0.0353553390593271
 32
-0.0353553390593274
 13
1.0700000000000001
 23
-0.0000000000000002
 33
-0.05
  0
3DFACE
  5
3058
  8
WHEELS
 10
1.02
 20
0.0353553390593271
 30
-0.0353553390593274
 11
1.02
 21
0.0499999999999996
 31
0.0
 12
1.0700000000000001
 22
0.0499999999999996
 32
0.0
 13
1.0700000000000001
 23
0.0353553390593271
 33
-0.0353553390593274
  0
3DFACE
  5
3059
  8
WHEELS
 10
0.5700000000000001
 20
0.0599999999999998
 30
-0.0000000000000001
 11
0.5700000000000001
 21
0.0599999999999998
 31
-0.0000000000000001
 12
0.5700000000000001
 22
0.1799999999999997
 32
-0.0000000000000003
 13
0.5700000000000001
 23
0.1558845726811986
 33
-0.0900000000000003
  0
3DFACE
  5
305A
  8
WHEELS
 10
0.5700000000000001
 20
-0.0600000000000003
 30
-0.0000000000000001
 11
0.5700000000000001
 21
-0.042426406871193
 31
-0.0424264068711929
 12
0.5700000000000001
 22
-0.1558845726811993
 32
-0.0899999999999999
 13
0.5700000000000001
 23
-0.1800000000000002
 33
-0.0000000000000001
  0
3DFACE
  5
305B
  8
WHEELS
 10
0.7400000000000001
 20
-0.4156921938165308
 30
0.2399999999999999
 11
0.7400000000000002
 21
-0.2400000000000003
 31
0.4156921938165305
 12
0.6900000000000001
 22
-0.2000000000000002
 32
0.3464101615137755
 13
0.6900000000000001
 23
-0.3464101615137753
 33
0.2
  0
3DFACE
  5
305C
  8
WHEELS
 10
0.7400000000000002
 20
0.2400000000000002
 30
0.4156921938165306
 11
0.7400000000000002
 21
0.4156921938165308
 31
0.2400000000000002
 12
0.6900000000000003
 22
0.3464101615137753
 32
0.2000000000000001
 13
0.6900000000000003
 23
0.2000000000000002
 33
0.3464101615137755
  0
3DFACE
  5
305D
  8
WHEELS
 10
0.9700000000000002
 20
0.2857883832488646
 30
0.165
 11
0.9700000000000002
 21
0.1649999999999998
 31
0.2857883832488647
 12
0.9500000000000001
 22
0.155
 32
0.2684678751731759
 13
0.9500000000000001
 23
0.2684678751731757
 33
0.155
  0
3DFACE
  5
305E
  8
WHEELS
 10
0.9700000000000002
 20
0.1649999999999998
 30
0.2857883832488647
 11
0.9700000000000001
 21
-0.0000000000000002
 31
0.33
 12
0.95
 22
-0.0000000000000002
 32
0.31
 13
0.9500000000000001
 23
0.155
 33
0.2684678751731759
  0
3DFACE
  5
305F
  8
WHEELS
 10
0.9700000000000001
 20
-0.0000000000000002
 30
0.33
 11
0.9700000000000001
 21
-0.1650000000000003
 31
0.2857883832488647
 12
0.95
 22
-0.1550000000000005
 32
0.268467875173176
 13
0.95
 23
-0.0000000000000002
 33
0.31
  0
3DFACE
  5
3060
  8
WHEELS
 10
0.9700000000000001
 20
-0.1650000000000003
 30
0.2857883832488647
 11
0.9700000000000001
 21
-0.285788383248865
 31
0.1650000000000001
 12
0.95
 22
-0.2684678751731762
 32
0.1550000000000001
 13
0.95
 23
-0.1550000000000005
 33
0.268467875173176
  0
3DFACE
  5
3061
  8
WHEELS
 10
0.9200000000000002
 20
0.4156921938165308
 30
0.2399999999999999
 11
0.9200000000000002
 21
0.24
 31
0.4156921938165305
 12
0.9700000000000001
 22
0.2
 32
0.3464101615137755
 13
0.9700000000000001
 23
0.3464101615137753
 33
0.2
  0
3DFACE
  5
3062
  8
WHEELS
 10
0.9200000000000002
 20
-0.2400000000000005
 30
0.4156921938165306
 11
0.9200000000000002
 21
-0.4156921938165308
 31
0.2400000000000002
 12
0.9700000000000001
 22
-0.3464101615137753
 32
0.2000000000000001
 13
0.9700000000000001
 23
-0.2000000000000004
 33
0.3464101615137755
  0
3DFACE
  5
3063
  8
WHEELS
 10
0.7400000000000002
 20
0.4156921938165308
 30
0.2399999999999999
 11
0.7400000000000002
 21
0.2400000000000002
 31
0.4156921938165305
 12
0.9200000000000002
 22
0.24
 32
0.4156921938165305
 13
0.9200000000000002
 23
0.4156921938165308
 33
0.2399999999999999
  0
3DFACE
  5
3064
  8
WHEELS
 10
0.7400000000000002
 20
-0.2400000000000003
 30
0.4156921938165306
 11
0.7400000000000001
 21
-0.4156921938165304
 31
0.2400000000000002
 12
0.9200000000000002
 22
-0.4156921938165308
 32
0.2400000000000002
 13
0.9200000000000002
 23
-0.2400000000000005
 33
0.4156921938165306
  0
3DFACE
  5
3065
  8
WHEELS
 10
0.6900000000000001
 20
-0.2000000000000002
 30
0.3464101615137756
 11
0.6900000000000001
 21
0.0
 31
0.4000000000000001
 12
0.6900000000000003
 22
0.0
 32
0.18
 13
0.6900000000000003
 23
-0.0899999999999999
 33
0.155884572681199
  0
3DFACE
  5
3066
  8
WHEELS
 10
0.95
 20
-0.0000000000000002
 30
0.31
 11
0.95
 21
-0.1550000000000005
 31
0.268467875173176
 12
0.95
 22
-0.1150000000000004
 32
0.1991858428704209
 13
0.95
 23
-0.0000000000000002
 33
0.23
  0
3DFACE
  5
3067
  8
WHEELS
 10
0.6900000000000001
 20
-0.3464101615137753
 30
0.2000000000000003
 11
0.6900000000000001
 21
-0.2000000000000002
 31
0.3464101615137755
 12
0.6900000000000003
 22
-0.0899999999999999
 32
0.155884572681199
 13
0.6900000000000003
 23
-0.1558845726811988
 33
0.09
  0
3DFACE
  5
3068
  8
WHEELS
 10
0.9700000000000001
 20
-0.2000000000000004
 30
0.3464101615137755
 11
0.9700000000000001
 21
-0.3464101615137753
 31
0.2000000000000001
 12
0.9700000000000001
 22
-0.285788383248865
 32
0.165
 13
0.9700000000000001
 23
-0.1650000000000003
 33
0.2857883832488647
  0
3DFACE
  5
3069
  8
WHEELS
 10
0.6900000000000001
 20
0.2000000000000002
 30
0.3464101615137755
 11
0.6900000000000001
 21
0.3464101615137753
 31
0.1999999999999999
 12
0.6900000000000003
 22
0.1558845726811988
 32
0.09
 13
0.6900000000000003
 23
0.0900000000000003
 33
0.1558845726811985
  0
3DFACE
  5
306A
  8
WHEELS
 10
0.9700000000000001
 20
0.3464101615137753
 30
0.1999999999999999
 11
0.9700000000000001
 21
0.2
 31
0.3464101615137754
 12
0.9700000000000001
 22
0.1649999999999998
 32
0.2857883832488647
 13
0.9700000000000001
 23
0.2857883832488646
 33
0.165
  0
3DFACE
  5
306B
  8
WHEELS
 10
0.95
 20
0.1549999999999996
 30
0.2684678751731761
 11
0.95
 21
-0.0000000000000002
 31
0.3100000000000001
 12
0.95
 22
-0.0000000000000002
 32
0.23
 13
0.95
 23
0.115
 33
0.199185842870421
  0
3DFACE
  5
306C
  8
WHEELS
 10
0.6900000000000001
 20
0.0
 30
0.4000000000000002
 11
0.6900000000000001
 21
0.2000000000000002
 31
0.3464101615137756
 12
0.6900000000000003
 22
0.0899999999999999
 32
0.155884572681199
 13
0.6900000000000003
 23
0.0
 33
0.18
  0
3DFACE
  5
306D
  8
WHEELS
 10
0.5700000000000001
 20
0.1558845726811988
 30
0.09
 11
0.5700000000000001
 21
0.0899999999999999
 31
0.155884572681199
 12
0.6900000000000003
 22
0.0899999999999999
 32
0.155884572681199
 13
0.6900000000000003
 23
0.1558845726811988
 33
0.09
  0
3DFACE
  5
306E
  8
WHEELS
 10
0.5700000000000001
 20
-0.0899999999999999
 30
0.155884572681199
 11
0.5700000000000001
 21
-0.1558845726811988
 31
0.09
 12
0.6900000000000003
 22
-0.1558845726811988
 32
0.09
 13
0.6900000000000003
 23
-0.0899999999999999
 33
0.155884572681199
  0
3DFACE
  5
306F
  8
WHEELS
 10
0.95
 20
0.1991858428704207
 30
0.1149999999999999
 11
0.95
 21
0.115
 31
0.1991858428704209
 12
1.0
 22
0.0849999999999998
 32
0.1472243186433546
 13
1.0
 23
0.1472243186433546
 33
0.085
  0
3DFACE
  5
3070
  8
WHEELS
 10
0.95
 20
-0.1150000000000004
 30
0.1991858428704209
 11
0.95
 21
-0.1991858428704212
 31
0.115
 12
1.0
 22
-0.1472243186433551
 32
0.085
 13
1.0
 23
-0.0850000000000002
 33
0.1472243186433546
  0
3DFACE
  5
3071
  8
WHEELS
 10
0.95
 20
-0.155
 30
0.2684678751731761
 11
0.95
 21
-0.2684678751731762
 31
0.155
 12
0.95
 22
-0.1991858428704207
 32
0.1149999999999999
 13
0.95
 23
-0.115
 33
0.1991858428704209
  0
3DFACE
  5
3072
  8
WHEELS
 10
0.95
 20
0.2684678751731757
 30
0.155
 11
0.95
 21
0.155
 31
0.2684678751731759
 12
0.95
 22
0.115
 32
0.1991858428704207
 13
0.95
 23
0.1991858428704207
 33
0.1149999999999999
  0
3DFACE
  5
3073
  8
WHEELS
 10
1.0
 20
0.0849999999999998
 30
0.1472243186433546
 11
1.0
 21
0.0075000000000001
 31
0.1170096189432334
 12
1.0
 22
-0.0000000000000002
 32
0.09
 13
1.0
 23
0.0636396103067891
 33
0.0636396103067893
  0
3DFACE
  5
3074
  8
WHEELS
 10
1.0
 20
0.0849999999999998
 30
0.1472243186433546
 11
1.0
 21
0.0849999999999998
 31
0.1472243186433546
 12
1.0
 22
0.0149999999999995
 32
0.1299999999999999
 13
1.0
 23
0.0075000000000001
 33
0.1170096189432334
  0
3DFACE
  5
3075
  8
WHEELS
 10
1.0
 20
0.0849999999999998
 30
0.1472243186433546
 11
1.0
 21
-0.0000000000000002
 31
0.17
 12
1.0
 22
0.0075000000000001
 32
0.1429903810567665
 13
1.0
 23
0.0149999999999995
 33
0.1299999999999999
  0
3DFACE
  5
3076
  8
WHEELS
 10
1.0
 20
-0.0000000000000002
 30
0.17
 11
1.0
 21
-0.0000000000000002
 31
0.17
 12
1.0
 22
-0.0075000000000005
 32
0.1429903810567665
 13
1.0
 23
0.0075000000000001
 33
0.1429903810567665
  0
3DFACE
  5
3077
  8
WHEELS
 10
1.0
 20
-0.0000000000000002
 30
0.17
 11
1.0
 21
-0.0850000000000002
 31
0.1472243186433546
 12
1.0
 22
-0.0149999999999999
 32
0.1299999999999999
 13
1.0
 23
-0.0075000000000005
 33
0.1429903810567665
  0
3DFACE
  5
3078
  8
WHEELS
 10
1.0
 20
-0.0850000000000002
 30
0.1472243186433546
 11
1.0
 21
-0.1050833024919775
 31
0.0779903810567665
 12
1.0
 22
-0.0075000000000005
 32
0.1170096189432334
 13
1.0
 23
-0.0149999999999999
 33
0.1299999999999999
  0
3DFACE
  5
3079
  8
WHEELS
 10
1.0
 20
-0.0850000000000002
 30
0.1472243186433546
 11
1.0
 21
-0.1472243186433551
 31
0.085
 12
1.0
 22
-0.1200833024919772
 32
0.0779903810567665
 13
1.0
 23
-0.1050833024919775
 33
0.0779903810567665
  0
3DFACE
  5
307A
  8
WHEELS
 10
1.0
 20
0.0849999999999998
 30
0.1472243186433546
 11
1.0
 21
0.0636396103067891
 31
0.0636396103067893
 12
1.0
 22
0.0975833024919768
 32
0.0650000000000001
 13
1.0
 23
0.1050833024919766
 33
0.0779903810567665
  0
3DFACE
  5
307B
  8
WHEELS
 10
1.0
 20
0.0849999999999998
 30
0.1472243186433546
 11
1.0
 21
0.0849999999999998
 31
0.1472243186433546
 12
1.0
 22
0.1050833024919766
 32
0.0779903810567665
 13
1.0
 23
0.1200833024919767
 33
0.0779903810567665
  0
3DFACE
  5
307C
  8
WHEELS
 10
1.0
 20
0.1472243186433546
 30
0.085
 11
1.0
 21
0.1472243186433546
 31
0.085
 12
1.0
 22
0.0849999999999998
 32
0.1472243186433546
 13
1.0
 23
0.1200833024919767
 33
0.0779903810567665
  0
3DFACE
  5
307D
  8
WHEELS
 10
0.5700000000000001
 20
0.0
 30
0.0600000000000002
 11
0.5700000000000001
 21
0.0
 31
0.0600000000000002
 12
0.5700000000000001
 22
0.0000000000000004
 32
0.1800000000000001
 13
0.5700000000000001
 23
0.0900000000000003
 33
0.1558845726811988
  0
3DFACE
  5
307E
  8
WHEELS
 10
0.5700000000000001
 20
0.042426406871193
 30
0.042426406871193
 11
0.5700000000000001
 21
0.0
 31
0.0600000000000002
 12
0.5700000000000001
 22
0.0900000000000003
 32
0.1558845726811988
 13
0.5700000000000001
 23
0.155884572681199
 33
0.0899999999999998
  0
3DFACE
  5
307F
  8
WHEELS
 10
0.5700000000000001
 20
0.0
 30
0.06
 11
0.5700000000000001
 21
-0.0424264068711928
 31
0.0424264068711929
 12
0.5700000000000001
 22
-0.0899999999999999
 32
0.155884572681199
 13
0.5700000000000001
 23
0.0
 33
0.18
  0
3DFACE
  5
3080
  8
WHEELS
 10
1.02
 20
-0.0000000000000002
 30
0.05
 11
1.02
 21
-0.0353553390593275
 31
0.0353553390593274
 12
1.0700000000000001
 22
-0.0353553390593275
 32
0.0353553390593274
 13
1.0700000000000001
 23
-0.0000000000000002
 33
0.05
  0
3DFACE
  5
3081
  8
WHEELS
 10
1.0
 20
0.0636396103067891
 30
0.0636396103067893
 11
1.0
 21
-0.0000000000000002
 31
0.09
 12
1.02
 22
-0.0000000000000002
 32
0.09
 13
1.02
 23
0.0636396103067891
 33
0.0636396103067893
  0
3DFACE
  5
3082
  8
WHEELS
 10
1.0
 20
-0.0000000000000002
 30
0.09
 11
1.0
 21
-0.0636396103067896
 31
0.0636396103067893
 12
1.02
 22
-0.0636396103067896
 32
0.0636396103067893
 13
1.02
 23
-0.0000000000000002
 33
0.09
  0
3DFACE
  5
3083
  8
WHEELS
 10
1.0
 20
0.0149999999999995
 30
0.1299999999999999
 11
1.0
 21
0.0075000000000001
 31
0.1429903810567665
 12
1.01
 22
0.0075000000000001
 32
0.1429903810567665
 13
1.01
 23
0.0149999999999995
 33
0.1299999999999999
  0
3DFACE
  5
3084
  8
WHEELS
 10
1.0
 20
0.0075000000000001
 30
0.1429903810567665
 11
1.0
 21
-0.0075000000000005
 31
0.1429903810567665
 12
1.01
 22
-0.0075000000000005
 32
0.1429903810567665
 13
1.01
 23
0.0075000000000001
 33
0.1429903810567665
  0
3DFACE
  5
3085
  8
WHEELS
 10
1.0
 20
-0.0075000000000005
 30
0.1429903810567665
 11
1.0
 21
-0.0149999999999999
 31
0.1299999999999999
 12
1.01
 22
-0.0149999999999999
 32
0.1299999999999999
 13
1.01
 23
-0.0075000000000005
 33
0.1429903810567665
  0
3DFACE
  5
3086
  8
WHEELS
 10
1.0
 20
-0.0149999999999999
 30
0.1299999999999999
 11
1.0
 21
-0.0075000000000005
 31
0.1170096189432334
 12
1.01
 22
-0.0075000000000005
 32
0.1170096189432334
 13
1.01
 23
-0.0149999999999999
 33
0.1299999999999999
  0
3DFACE
  5
3087
  8
WHEELS
 10
1.0
 20
-0.0075000000000005
 30
0.1170096189432334
 11
1.0
 21
0.0075000000000001
 31
0.1170096189432334
 12
1.01
 22
0.0075000000000001
 32
0.1170096189432334
 13
1.01
 23
-0.0075000000000005
 33
0.1170096189432334
  0
3DFACE
  5
3088
  8
WHEELS
 10
1.0
 20
0.0075000000000001
 30
0.1170096189432334
 11
1.0
 21
0.0149999999999995
 31
0.1299999999999999
 12
1.01
 22
0.0149999999999995
 32
0.1299999999999999
 13
1.01
 23
0.0075000000000001
 33
0.1170096189432334
  0
3DFACE
  5
3089
  8
WHEELS
 10
1.01
 20
-0.0075000000000005
 30
0.1170096189432334
 11
1.01
 21
0.0075000000000001
 31
0.1170096189432334
 12
1.01
 22
0.0149999999999995
 32
0.1299999999999999
 13
1.01
 23
-0.0149999999999999
 33
0.1299999999999999
  0
3DFACE
  5
308A
  8
WHEELS
 10
1.01
 20
-0.0149999999999999
 30
0.1299999999999999
 11
1.01
 21
0.0149999999999995
 31
0.1299999999999999
 12
1.01
 22
0.0075000000000001
 32
0.1429903810567665
 13
1.01
 23
-0.0075000000000005
 33
0.1429903810567665
  0
3DFACE
  5
308B
  8
WHEELS
 10
1.01
 20
-0.1200833024919772
 30
0.0520096189432335
 11
1.01
 21
-0.1050833024919775
 31
0.0779903810567665
 12
1.01
 22
-0.1200833024919772
 32
0.0779903810567665
 13
1.01
 23
-0.127583302491977
 33
0.0649999999999999
  0
3DFACE
  5
308C
  8
WHEELS
 10
1.01
 20
-0.1050833024919775
 30
0.0520096189432335
 11
1.01
 21
-0.0975833024919772
 31
0.0650000000000001
 12
1.01
 22
-0.1050833024919775
 32
0.0779903810567665
 13
1.01
 23
-0.1200833024919772
 33
0.0520096189432335
  0
3DFACE
  5
308D
  8
WHEELS
 10
1.0
 20
-0.0975833024919772
 30
0.0650000000000001
 11
1.0
 21
-0.1050833024919775
 31
0.0779903810567665
 12
1.01
 22
-0.1050833024919775
 32
0.0779903810567665
 13
1.01
 23
-0.0975833024919772
 33
0.0650000000000001
  0
3DFACE
  5
308E
  8
WHEELS
 10
1.0
 20
-0.1050833024919775
 30
0.0520096189432335
 11
1.0
 21
-0.0975833024919772
 31
0.0650000000000001
 12
1.01
 22
-0.0975833024919772
 32
0.0650000000000001
 13
1.01
 23
-0.1050833024919775
 33
0.0520096189432335
  0
3DFACE
  5
308F
  8
WHEELS
 10
1.0
 20
-0.1200833024919772
 30
0.0520096189432335
 11
1.0
 21
-0.1050833024919775
 31
0.0520096189432335
 12
1.01
 22
-0.1050833024919775
 32
0.0520096189432335
 13
1.01
 23
-0.1200833024919772
 33
0.0520096189432335
  0
3DFACE
  5
3090
  8
WHEELS
 10
1.0
 20
-0.127583302491977
 30
0.0649999999999999
 11
1.0
 21
-0.1200833024919772
 31
0.0520096189432335
 12
1.01
 22
-0.1200833024919772
 32
0.0520096189432335
 13
1.01
 23
-0.127583302491977
 33
0.0649999999999999
  0
3DFACE
  5
3091
  8
WHEELS
 10
1.0
 20
-0.1200833024919772
 30
0.0779903810567665
 11
1.0
 21
-0.127583302491977
 31
0.0649999999999999
 12
1.01
 22
-0.127583302491977
 32
0.0649999999999999
 13
1.01
 23
-0.1200833024919772
 33
0.0779903810567665
  0
3DFACE
  5
3092
  8
WHEELS
 10
1.0
 20
-0.1050833024919775
 30
0.0779903810567665
 11
1.0
 21
-0.1200833024919772
 31
0.0779903810567665
 12
1.01
 22
-0.1200833024919772
 32
0.0779903810567665
 13
1.01
 23
-0.1050833024919775
 33
0.0779903810567665
  0
3DFACE
  5
3093
  8
WHEELS
 10
1.01
 20
0.1050833024919766
 30
0.0779903810567665
 11
1.01
 21
0.1200833024919767
 31
0.0520096189432335
 12
1.01
 22
0.1275833024919766
 32
0.0649999999999999
 13
1.01
 23
0.1200833024919767
 33
0.0779903810567665
  0
3DFACE
  5
3094
  8
WHEELS
 10
1.01
 20
0.0975833024919768
 30
0.0650000000000001
 11
1.01
 21
0.1050833024919766
 31
0.0520096189432335
 12
1.01
 22
0.1200833024919767
 32
0.0520096189432335
 13
1.01
 23
0.1050833024919766
 33
0.0779903810567665
  0
3DFACE
  5
3095
  8
WHEELS
 10
1.0
 20
0.1050833024919766
 30
0.0520096189432335
 11
1.0
 21
0.1200833024919767
 31
0.0520096189432335
 12
1.01
 22
0.1200833024919767
 32
0.0520096189432335
 13
1.01
 23
0.1050833024919766
 33
0.0520096189432335
  0
3DFACE
  5
3096
  8
WHEELS
 10
1.0
 20
0.0975833024919768
 30
0.0650000000000001
 11
1.0
 21
0.1050833024919766
 31
0.0520096189432335
 12
1.01
 22
0.1050833024919766
 32
0.0520096189432335
 13
1.01
 23
0.0975833024919768
 33
0.0650000000000001
  0
3DFACE
  5
3097
  8
WHEELS
 10
1.0
 20
0.1050833024919766
 30
0.0779903810567665
 11
1.0
 21
0.0975833024919768
 31
0.0650000000000001
 12
1.01
 22
0.0975833024919768
 32
0.0650000000000001
 13
1.01
 23
0.1050833024919766
 33
0.0779903810567665
  0
3DFACE
  5
3098
  8
WHEELS
 10
1.0
 20
0.1200833024919767
 30
0.0779903810567665
 11
1.0
 21
0.1050833024919766
 31
0.0779903810567665
 12
1.01
 22
0.1050833024919766
 32
0.0779903810567665
 13
1.01
 23
0.1200833024919767
 33
0.0779903810567665
  0
3DFACE
  5
3099
  8
WHEELS
 10
1.0
 20
0.1275833024919766
 30
0.0649999999999999
 11
1.0
 21
0.1200833024919767
 31
0.0779903810567665
 12
1.01
 22
0.1200833024919767
 32
0.0779903810567665
 13
1.01
 23
0.1275833024919766
 33
0.0649999999999999
  0
3DFACE
  5
309A
  8
WHEELS
 10
1.0
 20
0.1200833024919767
 30
0.0520096189432335
 11
1.0
 21
0.1275833024919766
 31
0.0649999999999999
 12
1.01
 22
0.1275833024919766
 32
0.0649999999999999
 13
1.01
 23
0.1200833024919767
 33
0.0520096189432335
  0
3DFACE
  5
309B
  8
WHEELS
 10
1.02
 20
0.0636396103067891
 30
0.0636396103067893
 11
1.02
 21
-0.0000000000000002
 31
0.09
 12
1.02
 22
-0.0000000000000002
 32
0.05
 13
1.02
 23
0.0353553390593271
 33
0.0353553390593274
  0
3DFACE
  5
309C
  8
WHEELS
 10
1.0
 20
-0.0636396103067896
 30
0.0636396103067893
 11
1.0
 21
-0.0000000000000002
 31
0.09
 12
1.0
 22
0.0075000000000001
 32
0.1170096189432334
 13
1.0
 23
-0.0075000000000005
 33
0.1170096189432334
  0
3DFACE
  5
309D
  8
WHEELS
 10
1.0
 20
-0.0636396103067896
 30
0.0636396103067893
 11
1.0
 21
-0.0075000000000005
 31
0.1170096189432334
 12
1.0
 22
-0.1050833024919775
 32
0.0779903810567665
 13
1.0
 23
-0.0975833024919772
 33
0.0650000000000001
  0
3DFACE
  5
309E
  8
WHEELS
 10
1.0
 20
-0.1472243186433551
 30
0.085
 11
1.0
 21
-0.1472243186433551
 31
0.085
 12
1.0
 22
-0.127583302491977
 32
0.0649999999999999
 13
1.0
 23
-0.1200833024919772
 33
0.0779903810567665
  0
3DFACE
  5
309F
  8
WHEELS
 10
1.02
 20
-0.0000000000000002
 30
0.0899999999999998
 11
1.02
 21
-0.0636396103067896
 31
0.0636396103067893
 12
1.02
 22
-0.0353553390593275
 32
0.0353553390593273
 13
1.02
 23
-0.0000000000000002
 33
0.0499999999999998
  0
3DFACE
  5
30A0
  8
WHEELS
 10
1.0
 20
0.1472243186433546
 30
0.085
 11
1.0
 21
0.1472243186433546
 31
0.085
 12
1.0
 22
0.1200833024919767
 32
0.0779903810567665
 13
1.0
 23
0.1275833024919766
 33
0.0649999999999999
  0
3DFACE
  5
30A1
  8
WHEELS
 10
1.02
 20
0.0353553390593271
 30
0.0353553390593274
 11
1.02
 21
-0.0000000000000002
 31
0.05
 12
1.0700000000000001
 22
-0.0000000000000002
 32
0.05
 13
1.0700000000000001
 23
0.0353553390593271
 33
0.0353553390593274
  0
3DFACE
  5
30A2
  8
WHEELS
 10
0.5700000000000001
 20
0.0899999999999999
 30
0.155884572681199
 11
0.5700000000000001
 21
0.0
 31
0.18
 12
0.6900000000000003
 22
0.0
 32
0.18
 13
0.6900000000000003
 23
0.0899999999999999
 33
0.155884572681199
  0
3DFACE
  5
30A3
  8
WHEELS
 10
0.5700000000000001
 20
0.0
 30
0.18
 11
0.5700000000000001
 21
-0.0899999999999999
 31
0.155884572681199
 12
0.6900000000000003
 22
-0.0899999999999999
 32
0.155884572681199
 13
0.6900000000000003
 23
0.0
 33
0.18
  0
3DFACE
  5
30A4
  8
WHEELS
 10
0.95
 20
0.115
 30
0.1991858428704209
 11
0.95
 21
-0.0000000000000002
 31
0.23
 12
1.0
 22
-0.0000000000000002
 32
0.17
 13
1.0
 23
0.0849999999999998
 33
0.1472243186433546
  0
3DFACE
  5
30A5
  8
WHEELS
 10
0.95
 20
-0.0000000000000002
 30
0.23
 11
0.95
 21
-0.1150000000000004
 31
0.1991858428704209
 12
1.0
 22
-0.0850000000000002
 32
0.1472243186433546
 13
1.0
 23
-0.0000000000000002
 33
0.17
  0
3DFACE
  5
30A6
  8
WHEELS
 10
0.7400000000000002
 20
-0.2400000000000003
 30
0.4156921938165305
 11
0.7400000000000002
 21
0.0
 31
0.4799999999999999
 12
0.6900000000000001
 22
0.0
 32
0.4000000000000001
 13
0.6900000000000001
 23
-0.2000000000000002
 33
0.3464101615137755
  0
3DFACE
  5
30A7
  8
WHEELS
 10
0.7400000000000002
 20
0.0
 30
0.4799999999999999
 11
0.7400000000000002
 21
0.2400000000000002
 31
0.4156921938165306
 12
0.6900000000000003
 22
0.2000000000000002
 32
0.3464101615137755
 13
0.6900000000000001
 23
0.0
 33
0.4000000000000001
  0
3DFACE
  5
30A8
  8
WHEELS
 10
0.9200000000000002
 20
0.24
 30
0.4156921938165305
 11
0.9200000000000002
 21
-0.0000000000000002
 31
0.4799999999999999
 12
0.9700000000000001
 22
-0.0000000000000002
 32
0.4000000000000001
 13
0.9700000000000001
 23
0.2
 33
0.3464101615137755
  0
3DFACE
  5
30A9
  8
WHEELS
 10
0.9200000000000002
 20
-0.0000000000000002
 30
0.4799999999999999
 11
0.9200000000000002
 21
-0.2400000000000005
 31
0.4156921938165306
 12
0.9700000000000001
 22
-0.2000000000000004
 32
0.3464101615137755
 13
0.9700000000000001
 23
-0.0000000000000002
 33
0.4000000000000001
  0
3DFACE
  5
30AA
  8
WHEELS
 10
0.9700000000000001
 20
-0.0000000000000002
 30
0.4000000000000001
 11
0.9700000000000001
 21
-0.2000000000000004
 31
0.3464101615137755
 12
0.9700000000000001
 22
-0.1650000000000003
 32
0.2857883832488647
 13
0.9700000000000001
 23
-0.0000000000000002
 33
0.33
  0
3DFACE
  5
30AB
  8
WHEELS
 10
0.9700000000000001
 20
0.2
 30
0.3464101615137756
 11
0.9700000000000001
 21
-0.0000000000000002
 31
0.4000000000000001
 12
0.9700000000000001
 22
-0.0000000000000002
 32
0.3300000000000001
 13
0.9700000000000001
 23
0.1649999999999998
 33
0.2857883832488648
  0
3DFACE
  5
30AC
  8
WHEELS
 10
0.7400000000000002
 20
0.2400000000000002
 30
0.4156921938165305
 11
0.7400000000000002
 21
0.0
 31
0.4799999999999999
 12
0.9200000000000002
 22
-0.0000000000000002
 32
0.4799999999999999
 13
0.9200000000000002
 23
0.24
 33
0.4156921938165305
  0
3DFACE
  5
30AD
  8
WHEELS
 10
0.7400000000000002
 20
0.0
 30
0.4799999999999999
 11
0.7400000000000002
 21
-0.2400000000000003
 31
0.4156921938165306
 12
0.9200000000000002
 22
-0.2400000000000005
 32
0.4156921938165306
 13
0.9200000000000002
 23
-0.0000000000000002
 33
0.4799999999999999
  0
VIEWPORT
  5
2E
 67
     1
  8
0
 10
144.7270812988281
 20
101.2295806407928
 30
0.0
 40
391.13550988316581
 41
222.15178063964839
 68
     2
 69
     1
1001
ACAD
1000
MVIEW
1002
{
1070
    16
1010
0.0
1020
0.0
1030
0.0
1010
0.0
1020
0.0
1030
1.0
1040
0.0
1040
222.15178063964839
1040
144.7270812988281
1040
101.2295806407928
1040
50.0
1040
0.0
1040
0.0
1070
     0
1070
   100
1070
     1
1070
     1
1070
     0
1070
     0
1070
     0
1070
     0
1040
0.0
1040
0.0
1040
0.0
1040
10.0
1040
10.0
1040
10.0
1040
10.0
1070
     0
1002
{
1002
}
1002
}
  0
VIEWPORT
  5
30
 67
     1
  8
0
 10
139.22375631332389
 20
100.8062499761581
 30
0.0
 40
222.75801010131829
 41
161.289999961853
 68
     1
 69
     2
1001
ACAD
1000
MVIEW
1002
{
1070
    16
1010
0.0
1020
0.0
1030
0.0
1010
0.0
1020
0.0
1030
1.0
1040
0.0
1040
307.49010134148989
1040
210.0
1040
148.5
1040
50.0
1040
0.0
1040
0.0
1070
     0
1070
   100
1070
     1
1070
     3
1070
     0
1070
     1
1070
     0
1070
     0
1040
0.0
1040
0.0
1040
0.0
1040
10.0
1040
10.0
1040
10.0
1040
10.0
1070
     0
1002
{
1002
}
1002
}
  0
ENDSEC
  0
EOF
