  0
SECTION
  2
HEADER
  9
$ACADVER
  1
AC1009
  9
$INSBASE
 10
0.0
 20
0.0
 30
0.0
  9
$EXTMIN
 10
-1.340999629903727
 20
-7.0300000000000002
 30
-18.239999999999998
  9
$EXTMAX
 10
1.3809996299037191
 20
26.215
 30
21.413283420138882
  9
$LIMMIN
 10
0.0
 20
0.0
  9
$LIMMAX
 10
420.0
 20
297.0
  9
$ORTHOMODE
 70
     1
  9
$REGENMODE
 70
     1
  9
$FILLMODE
 70
     1
  9
$QTEXTMODE
 70
     0
  9
$MIRRTEXT
 70
     1
  9
$DRAGMODE
 70
     2
  9
$LTSCALE
 40
1.0
  9
$OSMODE
 70
   551
  9
$ATTMODE
 70
     1
  9
$TEXTSIZE
 40
2.5
  9
$TRACEWID
 40
1.0
  9
$TEXTSTYLE
  7
STANDARD
  9
$CLAYER
  8
WHEELS
  9
$CELTYPE
  6
BYLAYER
  9
$CECOLOR
 62
   256
  9
$DIMSCALE
 40
1.0
  9
$DIMASZ
 40
2.5
  9
$DIMEXO
 40
0.625
  9
$DIMDLI
 40
3.75
  9
$DIMRND
 40
0.0
  9
$DIMDLE
 40
0.0
  9
$DIMEXE
 40
1.25
  9
$DIMTP
 40
0.0
  9
$DIMTM
 40
0.0
  9
$DIMTXT
 40
2.5
  9
$DIMCEN
 40
2.5
  9
$DIMTSZ
 40
0.0
  9
$DIMTOL
 70
     0
  9
$DIMLIM
 70
     0
  9
$DIMTIH
 70
     0
  9
$DIMTOH
 70
     0
  9
$DIMSE1
 70
     0
  9
$DIMSE2
 70
     0
  9
$DIMTAD
 70
     1
  9
$DIMZIN
 70
     8
  9
$DIMBLK
  1

  9
$DIMASO
 70
     1
  9
$DIMSHO
 70
     1
  9
$DIMPOST
  1

  9
$DIMAPOST
  1

  9
$DIMALT
 70
     0
  9
$DIMALTD
 70
     3
  9
$DIMALTF
 40
0.03937007874016
  9
$DIMLFAC
 40
1.0
  9
$DIMTOFL
 70
     1
  9
$DIMTVP
 40
0.0
  9
$DIMTIX
 70
     0
  9
$DIMSOXD
 70
     0
  9
$DIMSAH
 70
     0
  9
$DIMBLK1
  1

  9
$DIMBLK2
  1

  9
$DIMSTYLE
  2
ISO-25
  9
$DIMCLRD
 70
     0
  9
$DIMCLRE
 70
     0
  9
$DIMCLRT
 70
     0
  9
$DIMTFAC
 40
1.0
  9
$DIMGAP
 40
0.625
  9
$LUNITS
 70
     2
  9
$LUPREC
 70
     4
  9
$SKETCHINC
 40
1.0
  9
$FILLETRAD
 40
10.0
  9
$AUNITS
 70
     0
  9
$AUPREC
 70
     0
  9
$MENU
  1
.
  9
$ELEVATION
 40
0.0
  9
$PELEVATION
 40
0.0
  9
$THICKNESS
 40
0.0
  9
$LIMCHECK
 70
     0
  9
$BLIPMODE
 70
     0
  9
$CHAMFERA
 40
10.0
  9
$CHAMFERB
 40
10.0
  9
$SKPOLY
 70
     0
  9
$TDCREATE
 40
2454612.7747117239
  9
$TDUPDATE
 40
2454619.6891771518
  9
$TDINDWG
 40
0.2964807523
  9
$TDUSRTIMER
 40
0.2964807523
  9
$USRTIMER
 70
     1
  9
$ANGBASE
 50
0.0
  9
$ANGDIR
 70
     0
  9
$PDMODE
 70
     0
  9
$PDSIZE
 40
0.0
  9
$PLINEWID
 40
0.0
  9
$COORDS
 70
     1
  9
$SPLFRAME
 70
     0
  9
$SPLINETYPE
 70
     6
  9
$SPLINESEGS
 70
     8
  9
$ATTDIA
 70
     1
  9
$ATTREQ
 70
     1
  9
$HANDLING
 70
-16383
  9
$HANDSEED
  5
CB0
  9
$SURFTAB1
 70
     6
  9
$SURFTAB2
 70
     6
  9
$SURFTYPE
 70
     6
  9
$SURFU
 70
     6
  9
$SURFV
 70
     6
  9
$UCSNAME
  2

  9
$UCSORG
 10
0.0
 20
0.0
 30
0.0
  9
$UCSXDIR
 10
0.0
 20
-1.0
 30
0.0
  9
$UCSYDIR
 10
0.0
 20
0.0
 30
1.0
  9
$PUCSNAME
  2

  9
$PUCSORG
 10
0.0
 20
0.0
 30
0.0
  9
$PUCSXDIR
 10
1.0
 20
0.0
 30
0.0
  9
$PUCSYDIR
 10
0.0
 20
1.0
 30
0.0
  9
$USERI1
 70
     0
  9
$USERI2
 70
     0
  9
$USERI3
 70
     0
  9
$USERI4
 70
     0
  9
$USERI5
 70
     0
  9
$USERR1
 40
0.0
  9
$USERR2
 40
0.0
  9
$USERR3
 40
0.0
  9
$USERR4
 40
0.0
  9
$USERR5
 40
0.0
  9
$WORLDVIEW
 70
     1
  9
$SHADEDGE
 70
     3
  9
$SHADEDIF
 70
    70
  9
$TILEMODE
 70
     1
  9
$MAXACTVP
 70
    64
  9
$PLIMCHECK
 70
     0
  9
$PEXTMIN
 10
27.844751262664801
 20
20.161249995231621
 30
0.0
  9
$PEXTMAX
 10
250.60276136398309
 20
181.4512499570846
 30
0.0
  9
$PLIMMIN
 10
-3.757080078125
 20
-3.7570831775665279
  9
$PLIMMAX
 10
293.21124267578119
 20
206.21624445915219
  9
$UNITMODE
 70
     0
  9
$VISRETAIN
 70
     1
  9
$PLINEGEN
 70
     0
  9
$PSLTSCALE
 70
     1
  0
ENDSEC
  0
SECTION
  2
TABLES
  0
TABLE
  2
VPORT
 70
    33
  0
VPORT
  2
*ACTIVE
 70
     0
 10
0.0
 20
0.0
 11
1.0
 21
1.0
 12
-0.1918583128816777
 22
-0.0300007478346718
 13
0.0
 23
0.0
 14
0.01
 24
0.01
 15
1.0
 25
1.0
 16
-1.0
 26
0.0
 36
0.0
 17
0.0
 27
0.0
 37
0.0
 40
2.5058651087388268
 41
1.7606679035250461
 42
50.0
 43
0.0
 44
0.0
 50
0.0
 51
0.0
 71
     0
 72
   100
 73
     1
 74
     3
 75
     1
 76
     1
 77
     0
 78
     0
  0
ENDTAB
  0
TABLE
  2
LTYPE
 70
     1
  0
LTYPE
  2
CONTINUOUS
 70
     0
  3
Solid line
 72
    65
 73
     0
 40
0.0
  0
ENDTAB
  0
TABLE
  2
LAYER
 70
    12
  0
LAYER
  2
0
 70
     0
 62
     7
  6
CONTINUOUS
  0
LAYER
  2
DRAWING
 70
     0
 62
    -9
  6
CONTINUOUS
  0
LAYER
  2
HULL_ADDONS
 70
     0
 62
     6
  6
CONTINUOUS
  0
LAYER
  2
WING1
 70
     0
 62
     5
  6
CONTINUOUS
  0
LAYER
  2
PROPELLER
 70
     0
 62
     1
  6
CONTINUOUS
  0
LAYER
  2
TURRET
 70
     0
 62
     2
  6
CONTINUOUS
  0
LAYER
  2
GUNS
 70
     0
 62
     1
  6
CONTINUOUS
  0
LAYER
  2
NACELLE
 70
     0
 62
     3
  6
CONTINUOUS
  0
LAYER
  2
WHEELS
 70
     0
 62
     2
  6
CONTINUOUS
  0
LAYER
  2
SHASSIS
 70
     0
 62
     3
  6
CONTINUOUS
  0
LAYER
  2
BAY_DOORS
 70
     0
 62
     5
  6
CONTINUOUS
  0
LAYER
  2
WING2
 70
     0
 62
     5
  6
CONTINUOUS
  0
ENDTAB
  0
TABLE
  2
STYLE
 70
     1
  0
STYLE
  2
STANDARD
 70
     0
 40
0.0
 41
1.0
 50
0.0
 71
     0
 42
2.5
  3
txt
  4

  0
ENDTAB
  0
TABLE
  2
VIEW
 70
     0
  0
ENDTAB
  0
TABLE
  2
UCS
 70
     0
  0
ENDTAB
  0
TABLE
  2
APPID
 70
     1
  0
APPID
  2
ACAD
 70
     0
  0
ENDTAB
  0
TABLE
  2
DIMSTYLE
 70
     1
  0
DIMSTYLE
  2
ISO-25
 70
     0
  3

  4

  5

  6

  7

 40
1.0
 41
2.5
 42
0.625
 43
3.75
 44
1.25
 45
0.0
 46
0.0
 47
0.0
 48
0.0
140
2.5
141
2.5
142
0.0
143
0.03937007874016
144
1.0
145
0.0
146
1.0
147
0.625
 71
     0
 72
     0
 73
     0
 74
     0
 75
     0
 76
     0
 77
     1
 78
     8
170
     0
171
     3
172
     1
173
     0
174
     0
175
     0
176
     0
177
     0
178
     0
  0
ENDTAB
  0
ENDSEC
  0
SECTION
  2
BLOCKS
  0
BLOCK
  8
0
  2
$MODEL_SPACE
 70
     0
 10
0.0
 20
0.0
 30
0.0
  3
$MODEL_SPACE
  1

  0
ENDBLK
  5
21
  8
0
  0
BLOCK
 67
     1
  8
0
  2
$PAPER_SPACE
 70
     0
 10
0.0
 20
0.0
 30
0.0
  3
$PAPER_SPACE
  1

  0
ENDBLK
  5
1D
 67
     1
  8
0
  0
ENDSEC
  0
SECTION
  2
ENTITIES
  0
3DFACE
  5
A42
  8
WHEELS
 10
0.1600000000000006
 20
0.0
 30
-0.3099999999999989
 11
0.0800000000000005
 21
0.0
 31
-0.1714359353944881
 12
0.0800000000000005
 22
-0.1212235124565027
 32
-0.1212235124564993
 13
0.1600000000000006
 23
-0.21920310216783
 33
-0.2192031021678285
  0
3DFACE
  5
A43
  8
WHEELS
 10
-0.0799999999999996
 20
0.0
 30
-0.1714359353944881
 11
-0.1599999999999997
 21
0.0
 31
-0.3099999999999989
 12
-0.1599999999999997
 22
-0.21920310216783
 32
-0.2192031021678285
 13
-0.0799999999999996
 23
-0.1212235124565027
 33
-0.1212235124564993
  0
3DFACE
  5
A44
  8
WHEELS
 10
-0.1599999999999997
 20
0.0
 30
-0.3099999999999989
 11
-0.0799999999999996
 21
0.0
 31
-0.4485640646055098
 12
-0.0799999999999996
 22
-0.3171826918791574
 32
-0.317182691879154
 13
-0.1599999999999997
 23
-0.21920310216783
 33
-0.2192031021678285
  0
3DFACE
  5
A45
  8
WHEELS
 10
-0.0799999999999996
 20
0.0
 30
-0.4485640646055098
 11
0.0800000000000005
 21
0.0
 31
-0.4485640646055098
 12
0.0800000000000005
 22
-0.3171826918791574
 32
-0.317182691879154
 13
-0.0799999999999996
 23
-0.3171826918791574
 33
-0.317182691879154
  0
3DFACE
  5
A46
  8
WHEELS
 10
0.0800000000000005
 20
0.0
 30
-0.4485640646055098
 11
0.1600000000000006
 21
0.0
 31
-0.3099999999999989
 12
0.1600000000000006
 22
-0.21920310216783
 32
-0.2192031021678285
 13
0.0800000000000005
 23
-0.3171826918791574
 33
-0.317182691879154
  0
3DFACE
  5
A47
  8
WHEELS
 10
0.1600000000000006
 20
-0.2192031021678283
 30
0.2192031021678316
 11
0.0800000000000005
 21
-0.1212235124565027
 31
0.121223512456506
 12
0.0800000000000005
 22
0.0
 32
0.1714359353944912
 13
0.1600000000000006
 23
0.0
 33
0.310000000000002
  0
3DFACE
  5
A48
  8
WHEELS
 10
-0.0799999999999996
 20
-0.1212235124565027
 30
0.121223512456506
 11
-0.1599999999999997
 21
-0.2192031021678283
 31
0.2192031021678316
 12
-0.1599999999999997
 22
0.0
 32
0.310000000000002
 13
-0.0799999999999996
 23
0.0
 33
0.1714359353944912
  0
3DFACE
  5
A49
  8
WHEELS
 10
-0.1599999999999997
 20
-0.2192031021678283
 30
0.2192031021678316
 11
-0.0799999999999996
 21
-0.3171826918791574
 31
0.3171826918791607
 12
-0.0799999999999996
 22
0.0
 32
0.448564064605513
 13
-0.1599999999999997
 23
0.0
 33
0.310000000000002
  0
3DFACE
  5
A4A
  8
WHEELS
 10
-0.0799999999999996
 20
-0.3171826918791574
 30
0.3171826918791607
 11
0.0800000000000005
 21
-0.3171826918791574
 31
0.3171826918791607
 12
0.0800000000000005
 22
0.0
 32
0.448564064605513
 13
-0.0799999999999996
 23
0.0
 33
0.448564064605513
  0
3DFACE
  5
A4B
  8
WHEELS
 10
0.0800000000000005
 20
-0.3171826918791574
 30
0.3171826918791607
 11
0.1600000000000006
 21
-0.2192031021678283
 31
0.2192031021678316
 12
0.1600000000000006
 22
0.0
 32
0.310000000000002
 13
0.0800000000000005
 23
0.0
 33
0.448564064605513
  0
3DFACE
  5
A4C
  8
WHEELS
 10
0.0800000000000005
 20
-0.1212235124565027
 30
0.121223512456506
 11
0.0800000000000005
 21
-0.1714359353944897
 31
0.0000000000000033
 12
0.0800000000000005
 22
0.1212235124565044
 32
0.121223512456506
 13
0.0800000000000005
 23
0.0
 33
0.1714359353944912
  0
3DFACE
  5
A4D
  8
WHEELS
 10
0.0800000000000005
 20
-0.1714359353944897
 30
0.0000000000000033
 11
0.0800000000000005
 21
-0.1212235124565027
 31
-0.1212235124564993
 12
0.0800000000000005
 22
0.1714359353944896
 32
0.0000000000000033
 13
0.0800000000000005
 23
0.1212235124565044
 33
0.121223512456506
  0
3DFACE
  5
A4E
  8
WHEELS
 10
0.0800000000000005
 20
-0.1212235124565044
 30
-0.1212235124564993
 11
0.0800000000000005
 21
0.0
 31
-0.1714359353944881
 12
0.0800000000000005
 22
0.1212235124565026
 32
-0.1212235124564993
 13
0.0800000000000005
 23
0.1714359353944896
 33
0.0000000000000033
  0
3DFACE
  5
A4F
  8
WHEELS
 10
-0.0799999999999996
 20
0.1212235124565026
 30
-0.1212235124564993
 11
-0.0799999999999996
 21
0.0
 31
-0.1714359353944881
 12
-0.0799999999999996
 22
-0.1212235124565027
 32
-0.1212235124564993
 13
-0.0799999999999996
 23
-0.1714359353944897
 33
0.0000000000000033
  0
3DFACE
  5
A50
  8
WHEELS
 10
-0.0799999999999996
 20
0.1714359353944896
 30
0.0000000000000033
 11
-0.0799999999999996
 21
0.1212235124565026
 31
-0.1212235124564993
 12
-0.0799999999999996
 22
-0.1714359353944897
 32
0.0000000000000033
 13
-0.0799999999999996
 23
-0.1212235124565027
 33
0.121223512456506
  0
3DFACE
  5
A51
  8
WHEELS
 10
-0.0799999999999996
 20
0.1212235124565044
 30
0.121223512456506
 11
-0.0799999999999996
 21
0.1714359353944896
 31
0.0000000000000033
 12
-0.0799999999999996
 22
-0.1212235124565027
 32
0.121223512456506
 13
-0.0799999999999996
 23
0.0
 33
0.1714359353944912
  0
3DFACE
  5
A5C
  8
WHEELS
 10
0.1600000000000006
 20
0.0
 30
0.310000000000002
 11
0.0800000000000005
 21
0.0
 31
0.1714359353944912
 12
0.0800000000000005
 22
0.1212235124565044
 32
0.121223512456506
 13
0.1600000000000006
 23
0.2192031021678318
 33
0.2192031021678351
  0
3DFACE
  5
A5D
  8
WHEELS
 10
-0.0799999999999996
 20
0.0
 30
0.1714359353944912
 11
-0.1599999999999997
 21
0.0
 31
0.310000000000002
 12
-0.1599999999999997
 22
0.2192031021678318
 32
0.2192031021678351
 13
-0.0799999999999996
 23
0.1212235124565044
 33
0.121223512456506
  0
3DFACE
  5
A5E
  8
WHEELS
 10
-0.1599999999999997
 20
0.0
 30
0.310000000000002
 11
-0.0799999999999996
 21
0.0
 31
0.448564064605513
 12
-0.0799999999999996
 22
0.3171826918791609
 32
0.3171826918791643
 13
-0.1599999999999997
 23
0.2192031021678318
 33
0.2192031021678351
  0
3DFACE
  5
A5F
  8
WHEELS
 10
0.0800000000000005
 20
0.0
 30
0.448564064605513
 11
0.1600000000000006
 21
0.0
 31
0.310000000000002
 12
0.1600000000000006
 22
0.2192031021678318
 32
0.2192031021678351
 13
0.0800000000000005
 23
0.3171826918791609
 33
0.3171826918791643
  0
3DFACE
  5
A60
  8
WHEELS
 10
-0.1599999999999997
 20
0.2192031021678318
 30
0.2192031021678351
 11
-0.0799999999999996
 21
0.3171826918791609
 31
0.3171826918791643
 12
-0.0799999999999996
 22
0.4485640646055114
 32
0.0000000000000033
 13
-0.1599999999999997
 23
0.3100000000000005
 33
0.0000000000000033
  0
3DFACE
  5
A61
  8
WHEELS
 10
-0.0799999999999996
 20
0.3171826918791609
 30
0.3171826918791643
 11
0.0800000000000005
 21
0.3171826918791609
 31
0.3171826918791643
 12
0.0800000000000005
 22
0.4485640646055114
 32
0.0000000000000033
 13
-0.0799999999999996
 23
0.4485640646055114
 33
0.0000000000000033
  0
3DFACE
  5
A62
  8
WHEELS
 10
0.0800000000000005
 20
0.3171826918791609
 30
0.3171826918791643
 11
0.1600000000000006
 21
0.2192031021678318
 31
0.2192031021678351
 12
0.1600000000000006
 22
0.3100000000000005
 32
0.0000000000000033
 13
0.0800000000000005
 23
0.4485640646055114
 33
0.0000000000000033
  0
3DFACE
  5
A63
  8
WHEELS
 10
0.1600000000000006
 20
0.3100000000000005
 30
0.0000000000000033
 11
0.0800000000000005
 21
0.1714359353944896
 31
0.0000000000000033
 12
0.0800000000000005
 22
0.1212235124565026
 32
-0.1212235124564993
 13
0.1600000000000006
 23
0.2192031021678318
 33
-0.2192031021678249
  0
3DFACE
  5
A64
  8
WHEELS
 10
-0.0799999999999996
 20
0.1714359353944896
 30
0.0000000000000033
 11
-0.1599999999999997
 21
0.3100000000000005
 31
0.0000000000000033
 12
-0.1599999999999997
 22
0.2192031021678318
 32
-0.2192031021678249
 13
-0.0799999999999996
 23
0.1212235124565026
 33
-0.1212235124564993
  0
3DFACE
  5
A65
  8
WHEELS
 10
-0.1599999999999997
 20
0.3100000000000005
 30
0.0000000000000033
 11
-0.0799999999999996
 21
0.4485640646055114
 31
0.0000000000000033
 12
-0.0799999999999996
 22
0.3171826918791574
 32
-0.317182691879154
 13
-0.1599999999999997
 23
0.2192031021678318
 33
-0.2192031021678249
  0
3DFACE
  5
A66
  8
WHEELS
 10
-0.0799999999999996
 20
0.4485640646055114
 30
0.0000000000000033
 11
0.0800000000000005
 21
0.4485640646055114
 31
0.0000000000000033
 12
0.0800000000000005
 22
0.3171826918791574
 32
-0.317182691879154
 13
-0.0799999999999996
 23
0.3171826918791574
 33
-0.317182691879154
  0
3DFACE
  5
A67
  8
WHEELS
 10
0.0800000000000005
 20
0.4485640646055114
 30
0.0000000000000033
 11
0.1600000000000006
 21
0.3100000000000005
 31
0.0000000000000033
 12
0.1600000000000006
 22
0.2192031021678318
 32
-0.2192031021678249
 13
0.0800000000000005
 23
0.3171826918791574
 33
-0.317182691879154
  0
3DFACE
  5
A68
  8
WHEELS
 10
0.1600000000000006
 20
0.2192031021678318
 30
-0.2192031021678249
 11
0.0800000000000005
 21
0.1212235124565026
 31
-0.1212235124564993
 12
0.0800000000000005
 22
0.0
 32
-0.1714359353944881
 13
0.1600000000000006
 23
0.0
 33
-0.3099999999999989
  0
3DFACE
  5
A69
  8
WHEELS
 10
-0.0799999999999996
 20
0.1212235124565026
 30
-0.1212235124564993
 11
-0.1599999999999997
 21
0.2192031021678318
 31
-0.2192031021678249
 12
-0.1599999999999997
 22
0.0
 32
-0.3099999999999989
 13
-0.0799999999999996
 23
0.0
 33
-0.1714359353944881
  0
3DFACE
  5
A6A
  8
WHEELS
 10
-0.1599999999999997
 20
0.2192031021678318
 30
-0.2192031021678249
 11
-0.0799999999999996
 21
0.3171826918791574
 31
-0.317182691879154
 12
-0.0799999999999996
 22
0.0
 32
-0.4485640646055098
 13
-0.1599999999999997
 23
0.0
 33
-0.3099999999999989
  0
3DFACE
  5
A6B
  8
WHEELS
 10
-0.0799999999999996
 20
0.3171826918791574
 30
-0.317182691879154
 11
0.0800000000000005
 21
0.3171826918791574
 31
-0.317182691879154
 12
0.0800000000000005
 22
0.0
 32
-0.4485640646055098
 13
-0.0799999999999996
 23
0.0
 33
-0.4485640646055098
  0
3DFACE
  5
A6C
  8
WHEELS
 10
0.0800000000000005
 20
0.3171826918791574
 30
-0.317182691879154
 11
0.1600000000000006
 21
0.2192031021678318
 31
-0.2192031021678249
 12
0.1600000000000006
 22
0.0
 32
-0.3099999999999989
 13
0.0800000000000005
 23
0.0
 33
-0.4485640646055098
  0
3DFACE
  5
A6D
  8
WHEELS
 10
0.1600000000000006
 20
0.2192031021678318
 30
0.2192031021678351
 11
0.0800000000000005
 21
0.1212235124565044
 31
0.121223512456506
 12
0.0800000000000005
 22
0.1714359353944896
 32
0.0000000000000033
 13
0.1600000000000006
 23
0.3100000000000005
 33
0.0000000000000033
  0
3DFACE
  5
A6E
  8
WHEELS
 10
-0.0799999999999996
 20
0.1212235124565044
 30
0.121223512456506
 11
-0.1599999999999997
 21
0.2192031021678318
 31
0.2192031021678351
 12
-0.1599999999999997
 22
0.3100000000000005
 32
0.0000000000000033
 13
-0.0799999999999996
 23
0.1714359353944896
 33
0.0000000000000033
  0
3DFACE
  5
A92
  8
WHEELS
 10
-0.0799999999999996
 20
0.0
 30
0.448564064605513
 11
0.0800000000000005
 21
0.0
 31
0.448564064605513
 12
0.0800000000000005
 22
0.3171826918791609
 32
0.3171826918791643
 13
-0.0799999999999996
 23
0.3171826918791609
 33
0.3171826918791643
  0
3DFACE
  5
A97
  8
WHEELS
 10
-0.1599999999999997
 20
-0.3100000000000005
 30
0.0000000000000033
 11
-0.0799999999999996
 21
-0.4485640646055114
 31
0.0000000000000033
 12
-0.0799999999999996
 22
-0.3171826918791574
 32
0.3171826918791607
 13
-0.1599999999999997
 23
-0.2192031021678283
 33
0.2192031021678316
  0
3DFACE
  5
A98
  8
WHEELS
 10
-0.0799999999999996
 20
-0.4485640646055114
 30
0.0000000000000033
 11
0.0800000000000005
 21
-0.4485640646055114
 31
0.0000000000000033
 12
0.0800000000000005
 22
-0.3171826918791574
 32
0.3171826918791607
 13
-0.0799999999999996
 23
-0.3171826918791574
 33
0.3171826918791607
  0
3DFACE
  5
A99
  8
WHEELS
 10
0.0800000000000005
 20
-0.4485640646055114
 30
0.0000000000000033
 11
0.1600000000000006
 21
-0.3100000000000005
 31
0.0000000000000033
 12
0.1600000000000006
 22
-0.2192031021678283
 32
0.2192031021678316
 13
0.0800000000000005
 23
-0.3171826918791574
 33
0.3171826918791607
  0
3DFACE
  5
A9A
  8
WHEELS
 10
0.1600000000000006
 20
-0.21920310216783
 30
-0.2192031021678285
 11
0.0800000000000005
 21
-0.1212235124565027
 31
-0.1212235124564993
 12
0.0800000000000005
 22
-0.1714359353944897
 32
0.0000000000000033
 13
0.1600000000000006
 23
-0.3100000000000005
 33
0.0000000000000033
  0
3DFACE
  5
A9B
  8
WHEELS
 10
-0.0799999999999996
 20
-0.1212235124565027
 30
-0.1212235124564993
 11
-0.1599999999999997
 21
-0.21920310216783
 31
-0.2192031021678285
 12
-0.1599999999999997
 22
-0.3100000000000005
 32
0.0000000000000033
 13
-0.0799999999999996
 23
-0.1714359353944897
 33
0.0000000000000033
  0
3DFACE
  5
A9C
  8
WHEELS
 10
-0.1599999999999997
 20
-0.21920310216783
 30
-0.2192031021678285
 11
-0.0799999999999996
 21
-0.3171826918791574
 31
-0.317182691879154
 12
-0.0799999999999996
 22
-0.4485640646055114
 32
0.0000000000000033
 13
-0.1599999999999997
 23
-0.3100000000000005
 33
0.0000000000000033
  0
3DFACE
  5
A9D
  8
WHEELS
 10
-0.0799999999999996
 20
-0.3171826918791574
 30
-0.317182691879154
 11
0.0800000000000005
 21
-0.3171826918791574
 31
-0.317182691879154
 12
0.0800000000000005
 22
-0.4485640646055114
 32
0.0000000000000033
 13
-0.0799999999999996
 23
-0.4485640646055114
 33
0.0000000000000033
  0
3DFACE
  5
A9E
  8
WHEELS
 10
0.0800000000000005
 20
-0.3171826918791574
 30
-0.317182691879154
 11
0.1600000000000006
 21
-0.21920310216783
 31
-0.2192031021678285
 12
0.1600000000000006
 22
-0.3100000000000005
 32
0.0000000000000033
 13
0.0800000000000005
 23
-0.4485640646055114
 33
0.0000000000000033
  0
3DFACE
  5
A9F
  8
WHEELS
 10
0.1600000000000006
 20
-0.3100000000000005
 30
0.0000000000000033
 11
0.0800000000000005
 21
-0.1714359353944897
 31
0.0000000000000033
 12
0.0800000000000005
 22
-0.1212235124565027
 32
0.121223512456506
 13
0.1600000000000006
 23
-0.2192031021678283
 33
0.2192031021678316
  0
3DFACE
  5
AA0
  8
WHEELS
 10
-0.0799999999999996
 20
-0.1714359353944897
 30
0.0000000000000033
 11
-0.1599999999999997
 21
-0.3100000000000005
 31
0.0000000000000033
 12
-0.1599999999999997
 22
-0.2192031021678283
 32
0.2192031021678316
 13
-0.0799999999999996
 23
-0.1212235124565027
 33
0.121223512456506
  0
VIEWPORT
  5
2E
 67
     1
  8
0
 10
144.7270812988281
 20
101.2295806407928
 30
0.0
 40
391.13550988316581
 41
222.15178063964839
 68
     2
 69
     1
1001
ACAD
1000
MVIEW
1002
{
1070
    16
1010
0.0
1020
0.0
1030
0.0
1010
0.0
1020
0.0
1030
1.0
1040
0.0
1040
222.15178063964839
1040
144.7270812988281
1040
101.2295806407928
1040
50.0
1040
0.0
1040
0.0
1070
     0
1070
   100
1070
     1
1070
     1
1070
     0
1070
     0
1070
     0
1070
     0
1040
0.0
1040
0.0
1040
0.0
1040
10.0
1040
10.0
1040
10.0
1040
10.0
1070
     0
1002
{
1002
}
1002
}
  0
VIEWPORT
  5
30
 67
     1
  8
0
 10
139.22375631332389
 20
100.8062499761581
 30
0.0
 40
222.75801010131829
 41
161.289999961853
 68
     1
 69
     2
1001
ACAD
1000
MVIEW
1002
{
1070
    16
1010
0.0
1020
0.0
1030
0.0
1010
0.0
1020
0.0
1030
1.0
1040
0.0
1040
307.49010134148989
1040
210.0
1040
148.5
1040
50.0
1040
0.0
1040
0.0
1070
     0
1070
   100
1070
     1
1070
     3
1070
     0
1070
     1
1070
     0
1070
     0
1040
0.0
1040
0.0
1040
0.0
1040
10.0
1040
10.0
1040
10.0
1040
10.0
1070
     0
1002
{
1002
}
1002
}
  0
ENDSEC
  0
EOF
