  0
SECTION
  2
HEADER
  9
$ACADVER
  1
AC1009
  9
$INSBASE
 10
0.0
 20
0.0
 30
0.0
  9
$EXTMIN
 10
-1.0
 20
-0.4699999999999998
 30
-0.4700000000000001
  9
$EXTMAX
 10
1.0
 20
0.4699999999999998
 30
0.4700000000000004
  9
$LIMMIN
 10
0.0
 20
0.0
  9
$LIMMAX
 10
420.0
 20
297.0
  9
$ORTHOMODE
 70
     1
  9
$REGENMODE
 70
     1
  9
$FILLMODE
 70
     1
  9
$QTEXTMODE
 70
     0
  9
$MIRRTEXT
 70
     1
  9
$DRAGMODE
 70
     0
  9
$LTSCALE
 40
1.0
  9
$OSMODE
 70
   545
  9
$ATTMODE
 70
     1
  9
$TEXTSIZE
 40
2.5
  9
$TRACEWID
 40
1.0
  9
$TEXTSTYLE
  7
STANDARD
  9
$CLAYER
  8
WHEELS
  9
$CELTYPE
  6
BYLAYER
  9
$CECOLOR
 62
   256
  9
$DIMSCALE
 40
1.0
  9
$DIMASZ
 40
2.5
  9
$DIMEXO
 40
0.625
  9
$DIMDLI
 40
3.75
  9
$DIMRND
 40
0.0
  9
$DIMDLE
 40
0.0
  9
$DIMEXE
 40
1.25
  9
$DIMTP
 40
0.0
  9
$DIMTM
 40
0.0
  9
$DIMTXT
 40
2.5
  9
$DIMCEN
 40
2.5
  9
$DIMTSZ
 40
0.0
  9
$DIMTOL
 70
     0
  9
$DIMLIM
 70
     0
  9
$DIMTIH
 70
     0
  9
$DIMTOH
 70
     0
  9
$DIMSE1
 70
     0
  9
$DIMSE2
 70
     0
  9
$DIMTAD
 70
     1
  9
$DIMZIN
 70
     8
  9
$DIMBLK
  1

  9
$DIMASO
 70
     1
  9
$DIMSHO
 70
     1
  9
$DIMPOST
  1

  9
$DIMAPOST
  1

  9
$DIMALT
 70
     0
  9
$DIMALTD
 70
     3
  9
$DIMALTF
 40
0.03937007874016
  9
$DIMLFAC
 40
1.0
  9
$DIMTOFL
 70
     1
  9
$DIMTVP
 40
0.0
  9
$DIMTIX
 70
     0
  9
$DIMSOXD
 70
     0
  9
$DIMSAH
 70
     0
  9
$DIMBLK1
  1

  9
$DIMBLK2
  1

  9
$DIMSTYLE
  2
ISO-25
  9
$DIMCLRD
 70
     0
  9
$DIMCLRE
 70
     0
  9
$DIMCLRT
 70
     0
  9
$DIMTFAC
 40
1.0
  9
$DIMGAP
 40
0.625
  9
$LUNITS
 70
     2
  9
$LUPREC
 70
     4
  9
$SKETCHINC
 40
1.0
  9
$FILLETRAD
 40
10.0
  9
$AUNITS
 70
     0
  9
$AUPREC
 70
     0
  9
$MENU
  1
.
  9
$ELEVATION
 40
0.0
  9
$PELEVATION
 40
0.0
  9
$THICKNESS
 40
0.0
  9
$LIMCHECK
 70
     0
  9
$BLIPMODE
 70
     0
  9
$CHAMFERA
 40
10.0
  9
$CHAMFERB
 40
10.0
  9
$SKPOLY
 70
     0
  9
$TDCREATE
 40
2454427.4959214581
  9
$TDUPDATE
 40
2454427.8665510989
  9
$TDINDWG
 40
0.2343241088
  9
$TDUSRTIMER
 40
0.2343241088
  9
$USRTIMER
 70
     1
  9
$ANGBASE
 50
0.0
  9
$ANGDIR
 70
     0
  9
$PDMODE
 70
     0
  9
$PDSIZE
 40
0.0
  9
$PLINEWID
 40
0.0
  9
$COORDS
 70
     1
  9
$SPLFRAME
 70
     0
  9
$SPLINETYPE
 70
     6
  9
$SPLINESEGS
 70
     8
  9
$ATTDIA
 70
     1
  9
$ATTREQ
 70
     1
  9
$HANDLING
 70
-16383
  9
$HANDSEED
  5
69E
  9
$SURFTAB1
 70
     6
  9
$SURFTAB2
 70
     6
  9
$SURFTYPE
 70
     6
  9
$SURFU
 70
     6
  9
$SURFV
 70
     6
  9
$UCSNAME
  2

  9
$UCSORG
 10
0.0
 20
0.0
 30
0.0
  9
$UCSXDIR
 10
1.0
 20
0.0
 30
0.0
  9
$UCSYDIR
 10
0.0
 20
1.0
 30
0.0
  9
$PUCSNAME
  2

  9
$PUCSORG
 10
0.0
 20
0.0
 30
0.0
  9
$PUCSXDIR
 10
1.0
 20
0.0
 30
0.0
  9
$PUCSYDIR
 10
0.0
 20
1.0
 30
0.0
  9
$USERI1
 70
     0
  9
$USERI2
 70
     0
  9
$USERI3
 70
     0
  9
$USERI4
 70
     0
  9
$USERI5
 70
     0
  9
$USERR1
 40
0.0
  9
$USERR2
 40
0.0
  9
$USERR3
 40
0.0
  9
$USERR4
 40
0.0
  9
$USERR5
 40
0.0
  9
$WORLDVIEW
 70
     1
  9
$SHADEDGE
 70
     3
  9
$SHADEDIF
 70
    70
  9
$TILEMODE
 70
     1
  9
$MAXACTVP
 70
    64
  9
$PLIMCHECK
 70
     0
  9
$PEXTMIN
 10
0.0
 20
0.0
 30
0.0
  9
$PEXTMAX
 10
0.0
 20
0.0
 30
0.0
  9
$PLIMMIN
 10
0.0
 20
0.0
  9
$PLIMMAX
 10
12.0
 20
9.0
  9
$UNITMODE
 70
     0
  9
$VISRETAIN
 70
     1
  9
$PLINEGEN
 70
     0
  9
$PSLTSCALE
 70
     1
  0
ENDSEC
  0
SECTION
  2
TABLES
  0
TABLE
  2
VPORT
 70
     7
  0
VPORT
  2
*ACTIVE
 70
     0
 10
0.0
 20
0.0
 11
1.0
 21
1.0
 12
0.4632085721454102
 22
-0.2357962197776517
 13
0.0
 23
0.0
 14
0.01
 24
0.01
 15
1.0
 25
1.0
 16
0.0
 26
0.0
 36
1.0
 17
0.0
 27
0.0
 37
0.0
 40
2.3749919264833599
 41
1.6612612612612609
 42
50.0
 43
0.0
 44
0.0
 50
0.0
 51
0.0
 71
     0
 72
   100
 73
     1
 74
     3
 75
     1
 76
     1
 77
     0
 78
     0
  0
ENDTAB
  0
TABLE
  2
LTYPE
 70
     1
  0
LTYPE
  2
CONTINUOUS
 70
     0
  3
Solid line
 72
    65
 73
     0
 40
0.0
  0
ENDTAB
  0
TABLE
  2
LAYER
 70
     8
  0
LAYER
  2
0
 70
     0
 62
     7
  6
CONTINUOUS
  0
LAYER
  2
DRAWING
 70
     0
 62
     8
  6
CONTINUOUS
  0
LAYER
  2
WHEELS
 70
     0
 62
     2
  6
CONTINUOUS
  0
LAYER
  2
TURRET
 70
     0
 62
     3
  6
CONTINUOUS
  0
LAYER
  2
CRANE
 70
     0
 62
     1
  6
CONTINUOUS
  0
LAYER
  2
SUPPORTS
 70
     0
 62
     5
  6
CONTINUOUS
  0
LAYER
  2
OUTRIGS
 70
     0
 62
     4
  6
CONTINUOUS
  0
LAYER
  2
MUDGUARDS
 70
     0
 62
     6
  6
CONTINUOUS
  0
ENDTAB
  0
TABLE
  2
STYLE
 70
     1
  0
STYLE
  2
STANDARD
 70
     0
 40
0.0
 41
1.0
 50
0.0
 71
     0
 42
2.5
  3
txt
  4

  0
ENDTAB
  0
TABLE
  2
VIEW
 70
     0
  0
ENDTAB
  0
TABLE
  2
UCS
 70
     0
  0
ENDTAB
  0
TABLE
  2
APPID
 70
     1
  0
APPID
  2
ACAD
 70
     0
  0
ENDTAB
  0
TABLE
  2
DIMSTYLE
 70
     1
  0
DIMSTYLE
  2
ISO-25
 70
     0
  3

  4

  5

  6

  7

 40
1.0
 41
2.5
 42
0.625
 43
3.75
 44
1.25
 45
0.0
 46
0.0
 47
0.0
 48
0.0
140
2.5
141
2.5
142
0.0
143
0.03937007874016
144
1.0
145
0.0
146
1.0
147
0.625
 71
     0
 72
     0
 73
     0
 74
     0
 75
     0
 76
     0
 77
     1
 78
     8
170
     0
171
     3
172
     1
173
     0
174
     0
175
     0
176
     0
177
     0
178
     0
  0
ENDTAB
  0
ENDSEC
  0
SECTION
  2
BLOCKS
  0
BLOCK
  8
0
  2
$MODEL_SPACE
 70
     0
 10
0.0
 20
0.0
 30
0.0
  3
$MODEL_SPACE
  1

  0
ENDBLK
  5
21
  8
0
  0
BLOCK
 67
     1
  8
0
  2
$PAPER_SPACE
 70
     0
 10
0.0
 20
0.0
 30
0.0
  3
$PAPER_SPACE
  1

  0
ENDBLK
  5
53
 67
     1
  8
0
  0
ENDSEC
  0
SECTION
  2
ENTITIES
  0
3DFACE
  5
28D
  8
WHEELS
 10
-0.65
 20
-0.4699999999999998
 30
0.0000000000000002
 11
-0.65
 21
-0.3323401871576772
 31
0.3323401871576774
 12
-0.75
 22
-0.3323401871576772
 32
0.3323401871576774
 13
-0.75
 23
-0.4699999999999998
 33
0.0000000000000002
  0
3DFACE
  5
28E
  8
WHEELS
 10
-0.65
 20
0.3323401871576772
 30
0.3323401871576774
 11
-0.65
 21
0.4699999999999998
 31
0.0000000000000002
 12
-0.75
 22
0.4699999999999998
 32
0.0000000000000002
 13
-0.75
 23
0.3323401871576772
 33
0.3323401871576774
  0
3DFACE
  5
28F
  8
WHEELS
 10
-0.75
 20
-0.4699999999999998
 30
0.0000000000000002
 11
-0.75
 21
-0.3323401871576772
 31
0.3323401871576774
 12
-0.8
 22
-0.2545584412271573
 32
0.254558441227157
 13
-0.8
 23
-0.3599999999999994
 33
0.0000000000000002
  0
3DFACE
  5
290
  8
WHEELS
 10
-0.75
 20
0.3323401871576772
 30
0.3323401871576774
 11
-0.75
 21
0.4699999999999998
 31
0.0000000000000002
 12
-0.8
 22
0.3600000000000003
 32
0.0000000000000002
 13
-0.8
 23
0.2545584412271573
 33
0.254558441227157
  0
3DFACE
  5
291
  8
WHEELS
 10
-0.65
 20
0.4699999999999998
 30
-0.0000000000000003
 11
-0.65
 21
0.3323401871576772
 31
0.3323401871576774
 12
-0.5999999999999999
 22
0.2545584412271573
 32
0.254558441227157
 13
-0.5999999999999999
 23
0.3600000000000003
 33
0.0000000000000002
  0
3DFACE
  5
292
  8
WHEELS
 10
-0.65
 20
-0.3323401871576772
 30
0.3323401871576774
 11
-0.65
 21
-0.4699999999999998
 31
0.0000000000000002
 12
-0.5999999999999999
 22
-0.3599999999999994
 32
0.0000000000000002
 13
-0.5999999999999999
 23
-0.2545584412271573
 33
0.254558441227157
  0
3DFACE
  5
295
  8
WHEELS
 10
-0.5999999999999999
 20
0.0
 30
0.36
 11
-0.5999999999999999
 21
-0.2545584412271573
 31
0.254558441227157
 12
-0.5999999999999999
 22
-0.3599999999999994
 32
0.0000000000000002
 13
-0.5999999999999999
 23
0.2545584412271573
 33
0.254558441227157
  0
3DFACE
  5
296
  8
WHEELS
 10
-0.5999999999999999
 20
0.2545584412271573
 30
0.254558441227157
 11
-0.5999999999999999
 21
-0.3599999999999994
 31
0.0000000000000002
 12
-0.6
 22
-0.2545584412271573
 32
-0.2545584412271571
 13
-0.5999999999999999
 23
0.3600000000000003
 33
0.0000000000000002
  0
3DFACE
  5
297
  8
WHEELS
 10
-0.65
 20
0.3323401871576772
 30
-0.3323401871576775
 11
-0.65
 21
0.0
 31
-0.4700000000000001
 12
-0.75
 22
0.0
 32
-0.4700000000000001
 13
-0.75
 23
0.3323401871576772
 33
-0.3323401871576775
  0
3DFACE
  5
298
  8
WHEELS
 10
-0.65
 20
0.0
 30
-0.4700000000000001
 11
-0.65
 21
-0.3323401871576772
 31
-0.3323401871576775
 12
-0.75
 22
-0.3323401871576772
 32
-0.3323401871576775
 13
-0.75
 23
0.0
 33
-0.4700000000000001
  0
3DFACE
  5
299
  8
WHEELS
 10
-0.75
 20
0.3323401871576772
 30
-0.3323401871576775
 11
-0.75
 21
0.0
 31
-0.4700000000000001
 12
-0.8
 22
0.0
 32
-0.3599999999999997
 13
-0.8
 23
0.2545584412271573
 33
-0.2545584412271567
  0
3DFACE
  5
29A
  8
WHEELS
 10
-0.75
 20
0.0
 30
-0.4700000000000001
 11
-0.75
 21
-0.3323401871576772
 31
-0.3323401871576775
 12
-0.8
 22
-0.2545584412271573
 32
-0.2545584412271571
 13
-0.8
 23
0.0
 33
-0.3599999999999997
  0
3DFACE
  5
29B
  8
WHEELS
 10
-0.65
 20
-0.3323401871576772
 30
-0.3323401871576775
 11
-0.65
 21
0.0
 31
-0.4700000000000001
 12
-0.6
 22
0.0
 32
-0.3599999999999997
 13
-0.6
 23
-0.2545584412271573
 33
-0.2545584412271571
  0
3DFACE
  5
29C
  8
WHEELS
 10
-0.65
 20
0.0
 30
-0.4700000000000001
 11
-0.65
 21
0.3323401871576772
 31
-0.3323401871576775
 12
-0.6
 22
0.2545584412271573
 32
-0.2545584412271571
 13
-0.6
 23
0.0
 33
-0.3599999999999997
  0
3DFACE
  5
29D
  8
WHEELS
 10
-0.65
 20
0.4699999999999998
 30
0.0000000000000002
 11
-0.65
 21
0.3323401871576772
 31
-0.3323401871576775
 12
-0.75
 22
0.3323401871576772
 32
-0.3323401871576775
 13
-0.75
 23
0.4699999999999998
 33
0.0000000000000002
  0
3DFACE
  5
29E
  8
WHEELS
 10
-0.65
 20
-0.3323401871576772
 30
-0.3323401871576775
 11
-0.65
 21
-0.4699999999999998
 31
0.0000000000000002
 12
-0.75
 22
-0.4699999999999998
 32
0.0000000000000002
 13
-0.75
 23
-0.3323401871576772
 33
-0.3323401871576775
  0
3DFACE
  5
29F
  8
WHEELS
 10
-0.75
 20
0.4699999999999998
 30
0.0000000000000002
 11
-0.75
 21
0.3323401871576772
 31
-0.3323401871576775
 12
-0.8
 22
0.2545584412271573
 32
-0.2545584412271567
 13
-0.8
 23
0.3600000000000003
 33
0.0000000000000002
  0
3DFACE
  5
2A0
  8
WHEELS
 10
-0.75
 20
-0.3323401871576772
 30
-0.3323401871576775
 11
-0.75
 21
-0.4699999999999998
 31
0.0000000000000002
 12
-0.8
 22
-0.3599999999999994
 32
0.0000000000000002
 13
-0.8
 23
-0.2545584412271573
 33
-0.2545584412271571
  0
3DFACE
  5
2A1
  8
WHEELS
 10
-0.65
 20
-0.4699999999999998
 30
0.0000000000000002
 11
-0.65
 21
-0.3323401871576772
 31
-0.3323401871576775
 12
-0.6
 22
-0.2545584412271573
 32
-0.2545584412271571
 13
-0.5999999999999999
 23
-0.3599999999999994
 33
0.0000000000000002
  0
3DFACE
  5
2A2
  8
WHEELS
 10
-0.65
 20
0.3323401871576772
 30
-0.3323401871576775
 11
-0.65
 21
0.4699999999999998
 31
-0.0000000000000003
 12
-0.5999999999999999
 22
0.3600000000000003
 32
0.0000000000000002
 13
-0.6
 23
0.2545584412271573
 33
-0.2545584412271571
  0
3DFACE
  5
2A4
  8
WHEELS
 10
-0.5999999999999999
 20
0.3600000000000003
 30
0.0000000000000002
 11
-0.6
 21
-0.2545584412271573
 31
-0.2545584412271571
 12
-0.6
 22
0.0
 32
-0.3599999999999997
 13
-0.6
 23
0.2545584412271573
 33
-0.2545584412271571
  0
3DFACE
  5
2A5
  8
WHEELS
 10
-0.65
 20
-0.3323401871576772
 30
0.3323401871576774
 11
-0.65
 21
0.0
 31
0.47
 12
-0.75
 22
0.0
 32
0.47
 13
-0.75
 23
-0.3323401871576772
 33
0.3323401871576774
  0
3DFACE
  5
2A6
  8
WHEELS
 10
-0.65
 20
0.0
 30
0.47
 11
-0.65
 21
0.3323401871576772
 31
0.3323401871576774
 12
-0.75
 22
0.3323401871576772
 32
0.3323401871576774
 13
-0.75
 23
0.0
 33
0.47
  0
3DFACE
  5
2A7
  8
WHEELS
 10
-0.75
 20
-0.3323401871576772
 30
0.3323401871576774
 11
-0.75
 21
0.0
 31
0.47
 12
-0.8
 22
0.0
 32
0.36
 13
-0.8
 23
-0.2545584412271573
 33
0.254558441227157
  0
3DFACE
  5
2A8
  8
WHEELS
 10
-0.75
 20
0.0
 30
0.47
 11
-0.75
 21
0.3323401871576772
 31
0.3323401871576774
 12
-0.8
 22
0.2545584412271573
 32
0.254558441227157
 13
-0.8
 23
0.0
 33
0.36
  0
3DFACE
  5
2A9
  8
WHEELS
 10
-0.65
 20
0.3323401871576772
 30
0.3323401871576774
 11
-0.65
 21
0.0
 31
0.4700000000000004
 12
-0.5999999999999999
 22
0.0
 32
0.36
 13
-0.5999999999999999
 23
0.2545584412271573
 33
0.254558441227157
  0
3DFACE
  5
2AA
  8
WHEELS
 10
-0.65
 20
0.0
 30
0.4700000000000004
 11
-0.65
 21
-0.3323401871576772
 31
0.3323401871576774
 12
-0.5999999999999999
 22
-0.2545584412271573
 32
0.254558441227157
 13
-0.5999999999999999
 23
0.0
 33
0.36
  0
3DFACE
  5
2AB
  8
WHEELS
 10
-0.85
 20
-0.4699999999999998
 30
0.0000000000000002
 11
-0.85
 21
-0.3323401871576772
 31
0.3323401871576774
 12
-0.95
 22
-0.3323401871576772
 32
0.3323401871576774
 13
-0.95
 23
-0.4699999999999998
 33
0.0000000000000002
  0
3DFACE
  5
2AC
  8
WHEELS
 10
-0.85
 20
0.3323401871576772
 30
0.3323401871576774
 11
-0.85
 21
0.4699999999999998
 31
0.0000000000000002
 12
-0.95
 22
0.4699999999999998
 32
0.0000000000000002
 13
-0.95
 23
0.3323401871576772
 33
0.3323401871576774
  0
3DFACE
  5
2AD
  8
WHEELS
 10
-0.95
 20
-0.4699999999999998
 30
0.0000000000000002
 11
-0.95
 21
-0.3323401871576772
 31
0.3323401871576774
 12
-1.0
 22
-0.2545584412271573
 32
0.254558441227157
 13
-1.0
 23
-0.3599999999999994
 33
0.0000000000000002
  0
3DFACE
  5
2AE
  8
WHEELS
 10
-0.95
 20
0.3323401871576772
 30
0.3323401871576774
 11
-0.95
 21
0.4699999999999998
 31
0.0000000000000002
 12
-1.0
 22
0.3600000000000003
 32
0.0000000000000002
 13
-1.0
 23
0.2545584412271573
 33
0.254558441227157
  0
3DFACE
  5
2AF
  8
WHEELS
 10
-0.85
 20
0.4699999999999998
 30
-0.0000000000000003
 11
-0.85
 21
0.3323401871576772
 31
0.3323401871576774
 12
-0.8
 22
0.2545584412271573
 32
0.254558441227157
 13
-0.8
 23
0.3600000000000003
 33
0.0000000000000002
  0
3DFACE
  5
2B0
  8
WHEELS
 10
-0.85
 20
-0.3323401871576772
 30
0.3323401871576774
 11
-0.85
 21
-0.4699999999999998
 31
0.0000000000000002
 12
-0.8
 22
-0.3599999999999994
 32
0.0000000000000002
 13
-0.8
 23
-0.2545584412271573
 33
0.254558441227157
  0
3DFACE
  5
2B1
  8
WHEELS
 10
-1.0
 20
-0.2545584412271573
 30
0.254558441227157
 11
-1.0
 21
0.0
 31
0.36
 12
-1.0
 22
0.2545584412271573
 32
0.254558441227157
 13
-1.0
 23
-0.3599999999999994
 33
0.0000000000000002
  0
3DFACE
  5
2B2
  8
WHEELS
 10
-1.0
 20
-0.3599999999999994
 30
0.0000000000000002
 11
-1.0
 21
0.2545584412271573
 31
0.254558441227157
 12
-1.0
 22
0.3600000000000003
 32
0.0000000000000002
 13
-1.0
 23
-0.2545584412271573
 33
-0.2545584412271571
  0
3DFACE
  5
2B5
  8
WHEELS
 10
-0.85
 20
0.3323401871576772
 30
-0.3323401871576775
 11
-0.85
 21
0.0
 31
-0.4700000000000001
 12
-0.95
 22
0.0
 32
-0.4700000000000001
 13
-0.95
 23
0.3323401871576772
 33
-0.3323401871576775
  0
3DFACE
  5
2B6
  8
WHEELS
 10
-0.85
 20
0.0
 30
-0.4700000000000001
 11
-0.85
 21
-0.3323401871576772
 31
-0.3323401871576775
 12
-0.95
 22
-0.3323401871576772
 32
-0.3323401871576775
 13
-0.95
 23
0.0
 33
-0.4700000000000001
  0
3DFACE
  5
2B7
  8
WHEELS
 10
-0.95
 20
0.3323401871576772
 30
-0.3323401871576775
 11
-0.95
 21
0.0
 31
-0.4700000000000001
 12
-1.0
 22
0.0
 32
-0.3599999999999997
 13
-1.0
 23
0.2545584412271573
 33
-0.2545584412271567
  0
3DFACE
  5
2B8
  8
WHEELS
 10
-0.95
 20
0.0
 30
-0.4700000000000001
 11
-0.95
 21
-0.3323401871576772
 31
-0.3323401871576775
 12
-1.0
 22
-0.2545584412271573
 32
-0.2545584412271571
 13
-1.0
 23
0.0
 33
-0.3599999999999997
  0
3DFACE
  5
2B9
  8
WHEELS
 10
-0.85
 20
-0.3323401871576772
 30
-0.3323401871576775
 11
-0.85
 21
0.0
 31
-0.4700000000000001
 12
-0.8
 22
0.0
 32
-0.3599999999999997
 13
-0.8
 23
-0.2545584412271573
 33
-0.2545584412271571
  0
3DFACE
  5
2BA
  8
WHEELS
 10
-0.85
 20
0.0
 30
-0.4700000000000001
 11
-0.85
 21
0.3323401871576772
 31
-0.3323401871576775
 12
-0.8
 22
0.2545584412271573
 32
-0.2545584412271571
 13
-0.8
 23
0.0
 33
-0.3599999999999997
  0
3DFACE
  5
2BB
  8
WHEELS
 10
-0.85
 20
0.4699999999999998
 30
0.0000000000000002
 11
-0.85
 21
0.3323401871576772
 31
-0.3323401871576775
 12
-0.95
 22
0.3323401871576772
 32
-0.3323401871576775
 13
-0.95
 23
0.4699999999999998
 33
0.0000000000000002
  0
3DFACE
  5
2BC
  8
WHEELS
 10
-0.85
 20
-0.3323401871576772
 30
-0.3323401871576775
 11
-0.85
 21
-0.4699999999999998
 31
0.0000000000000002
 12
-0.95
 22
-0.4699999999999998
 32
0.0000000000000002
 13
-0.95
 23
-0.3323401871576772
 33
-0.3323401871576775
  0
3DFACE
  5
2BD
  8
WHEELS
 10
-0.95
 20
0.4699999999999998
 30
0.0000000000000002
 11
-0.95
 21
0.3323401871576772
 31
-0.3323401871576775
 12
-1.0
 22
0.2545584412271573
 32
-0.2545584412271567
 13
-1.0
 23
0.3600000000000003
 33
0.0000000000000002
  0
3DFACE
  5
2BE
  8
WHEELS
 10
-0.95
 20
-0.3323401871576772
 30
-0.3323401871576775
 11
-0.95
 21
-0.4699999999999998
 31
0.0000000000000002
 12
-1.0
 22
-0.3599999999999994
 32
0.0000000000000002
 13
-1.0
 23
-0.2545584412271573
 33
-0.2545584412271571
  0
3DFACE
  5
2BF
  8
WHEELS
 10
-0.85
 20
-0.4699999999999998
 30
0.0000000000000002
 11
-0.85
 21
-0.3323401871576772
 31
-0.3323401871576775
 12
-0.8
 22
-0.2545584412271573
 32
-0.2545584412271571
 13
-0.8
 23
-0.3599999999999994
 33
0.0000000000000002
  0
3DFACE
  5
2C0
  8
WHEELS
 10
-0.85
 20
0.3323401871576772
 30
-0.3323401871576775
 11
-0.85
 21
0.4699999999999998
 31
-0.0000000000000003
 12
-0.8
 22
0.3600000000000003
 32
0.0000000000000002
 13
-0.8
 23
0.2545584412271573
 33
-0.2545584412271571
  0
3DFACE
  5
2C1
  8
WHEELS
 10
-1.0
 20
-0.2545584412271573
 30
-0.2545584412271571
 11
-1.0
 21
0.3600000000000003
 31
0.0000000000000002
 12
-1.0
 22
0.2545584412271573
 32
-0.2545584412271567
 13
-1.0
 23
0.0
 33
-0.3599999999999997
  0
3DFACE
  5
2C3
  8
WHEELS
 10
-0.85
 20
-0.3323401871576772
 30
0.3323401871576774
 11
-0.85
 21
0.0
 31
0.47
 12
-0.95
 22
0.0
 32
0.47
 13
-0.95
 23
-0.3323401871576772
 33
0.3323401871576774
  0
3DFACE
  5
2C4
  8
WHEELS
 10
-0.85
 20
0.0
 30
0.47
 11
-0.85
 21
0.3323401871576772
 31
0.3323401871576774
 12
-0.95
 22
0.3323401871576772
 32
0.3323401871576774
 13
-0.95
 23
0.0
 33
0.47
  0
3DFACE
  5
2C5
  8
WHEELS
 10
-0.95
 20
-0.3323401871576772
 30
0.3323401871576774
 11
-0.95
 21
0.0
 31
0.47
 12
-1.0
 22
0.0
 32
0.36
 13
-1.0
 23
-0.2545584412271573
 33
0.254558441227157
  0
3DFACE
  5
2C6
  8
WHEELS
 10
-0.95
 20
0.0
 30
0.47
 11
-0.95
 21
0.3323401871576772
 31
0.3323401871576774
 12
-1.0
 22
0.2545584412271573
 32
0.254558441227157
 13
-1.0
 23
0.0
 33
0.36
  0
3DFACE
  5
2C7
  8
WHEELS
 10
-0.85
 20
0.3323401871576772
 30
0.3323401871576774
 11
-0.85
 21
0.0
 31
0.4700000000000004
 12
-0.8
 22
0.0
 32
0.36
 13
-0.8
 23
0.2545584412271573
 33
0.254558441227157
  0
3DFACE
  5
2C8
  8
WHEELS
 10
-0.85
 20
0.0
 30
0.4700000000000004
 11
-0.85
 21
-0.3323401871576772
 31
0.3323401871576774
 12
-0.8
 22
-0.2545584412271573
 32
0.254558441227157
 13
-0.8
 23
0.0
 33
0.36
  0
3DFACE
  5
2C9
  8
WHEELS
 10
0.6000000000000001
 20
-0.3599999999999994
 30
0.0000000000000002
 11
0.6000000000000001
 21
0.2545584412271573
 31
0.254558441227157
 12
0.6000000000000001
 22
0.3600000000000003
 32
0.0000000000000002
 13
0.6000000000000001
 23
-0.2545584412271573
 33
-0.2545584412271571
  0
3DFACE
  5
2CA
  8
WHEELS
 10
0.6000000000000001
 20
-0.2545584412271573
 30
0.254558441227157
 11
0.6000000000000001
 21
0.0
 31
0.36
 12
0.6000000000000001
 22
0.2545584412271573
 32
0.254558441227157
 13
0.6000000000000001
 23
-0.3599999999999994
 33
0.0000000000000002
  0
3DFACE
  5
2CB
  8
WHEELS
 10
0.7500000000000001
 20
-0.3323401871576772
 30
0.3323401871576774
 11
0.7500000000000001
 21
-0.4699999999999998
 31
0.0000000000000002
 12
0.8000000000000002
 22
-0.3599999999999994
 32
0.0000000000000002
 13
0.8000000000000002
 23
-0.2545584412271573
 33
0.254558441227157
  0
3DFACE
  5
2CC
  8
WHEELS
 10
0.7500000000000001
 20
0.4699999999999998
 30
-0.0000000000000003
 11
0.7500000000000001
 21
0.3323401871576772
 31
0.3323401871576774
 12
0.8000000000000002
 22
0.2545584412271573
 32
0.254558441227157
 13
0.8000000000000002
 23
0.3600000000000003
 33
0.0000000000000002
  0
3DFACE
  5
2CD
  8
WHEELS
 10
0.6500000000000002
 20
0.3323401871576772
 30
0.3323401871576774
 11
0.6500000000000002
 21
0.4699999999999998
 31
0.0000000000000002
 12
0.6000000000000001
 22
0.3600000000000003
 32
0.0000000000000002
 13
0.6000000000000001
 23
0.2545584412271573
 33
0.254558441227157
  0
3DFACE
  5
2CE
  8
WHEELS
 10
0.6500000000000002
 20
-0.4699999999999998
 30
0.0000000000000002
 11
0.6500000000000002
 21
-0.3323401871576772
 31
0.3323401871576774
 12
0.6000000000000001
 22
-0.2545584412271573
 32
0.254558441227157
 13
0.6000000000000001
 23
-0.3599999999999994
 33
0.0000000000000002
  0
3DFACE
  5
2CF
  8
WHEELS
 10
0.7500000000000001
 20
0.3323401871576772
 30
0.3323401871576774
 11
0.7500000000000001
 21
0.4699999999999998
 31
0.0000000000000002
 12
0.6500000000000002
 22
0.4699999999999998
 32
0.0000000000000002
 13
0.6500000000000002
 23
0.3323401871576772
 33
0.3323401871576774
  0
3DFACE
  5
2D0
  8
WHEELS
 10
0.7500000000000001
 20
-0.4699999999999998
 30
0.0000000000000002
 11
0.7500000000000001
 21
-0.3323401871576772
 31
0.3323401871576774
 12
0.6500000000000002
 22
-0.3323401871576772
 32
0.3323401871576774
 13
0.6500000000000002
 23
-0.4699999999999998
 33
0.0000000000000002
  0
3DFACE
  5
2D1
  8
WHEELS
 10
0.9500000000000001
 20
-0.4699999999999998
 30
0.0000000000000002
 11
0.9500000000000001
 21
-0.3323401871576772
 31
0.3323401871576774
 12
0.8500000000000001
 22
-0.3323401871576772
 32
0.3323401871576774
 13
0.8500000000000001
 23
-0.4699999999999998
 33
0.0000000000000002
  0
3DFACE
  5
2D2
  8
WHEELS
 10
0.9500000000000001
 20
0.3323401871576772
 30
0.3323401871576774
 11
0.9500000000000001
 21
0.4699999999999998
 31
0.0000000000000002
 12
0.8500000000000001
 22
0.4699999999999998
 32
0.0000000000000002
 13
0.8500000000000001
 23
0.3323401871576772
 33
0.3323401871576774
  0
3DFACE
  5
2D3
  8
WHEELS
 10
0.8500000000000001
 20
-0.4699999999999998
 30
0.0000000000000002
 11
0.8500000000000001
 21
-0.3323401871576772
 31
0.3323401871576774
 12
0.8000000000000002
 22
-0.2545584412271573
 32
0.254558441227157
 13
0.8000000000000002
 23
-0.3599999999999994
 33
0.0000000000000002
  0
3DFACE
  5
2D4
  8
WHEELS
 10
0.8500000000000001
 20
0.3323401871576772
 30
0.3323401871576774
 11
0.8500000000000001
 21
0.4699999999999998
 31
0.0000000000000002
 12
0.8000000000000002
 22
0.3600000000000003
 32
0.0000000000000002
 13
0.8000000000000002
 23
0.2545584412271573
 33
0.254558441227157
  0
3DFACE
  5
2D5
  8
WHEELS
 10
0.9500000000000001
 20
0.4699999999999998
 30
-0.0000000000000003
 11
0.9500000000000001
 21
0.3323401871576772
 31
0.3323401871576774
 12
1.0
 22
0.2545584412271573
 32
0.254558441227157
 13
1.0
 23
0.3600000000000003
 33
0.0000000000000002
  0
3DFACE
  5
2D6
  8
WHEELS
 10
0.9500000000000001
 20
-0.3323401871576772
 30
0.3323401871576774
 11
0.9500000000000001
 21
-0.4699999999999998
 31
0.0000000000000002
 12
1.0
 22
-0.3599999999999994
 32
0.0000000000000002
 13
1.0
 23
-0.2545584412271573
 33
0.254558441227157
  0
3DFACE
  5
2D7
  8
WHEELS
 10
1.0
 20
0.0
 30
0.36
 11
1.0
 21
-0.2545584412271573
 31
0.254558441227157
 12
1.0
 22
-0.3599999999999994
 32
0.0000000000000002
 13
1.0
 23
0.2545584412271573
 33
0.254558441227157
  0
3DFACE
  5
2D8
  8
WHEELS
 10
1.0
 20
0.2545584412271573
 30
0.254558441227157
 11
1.0
 21
-0.3599999999999994
 31
0.0000000000000002
 12
1.0
 22
-0.2545584412271573
 32
-0.2545584412271571
 13
1.0
 23
0.3600000000000003
 33
0.0000000000000002
  0
3DFACE
  5
2D9
  8
WHEELS
 10
0.75
 20
0.0
 30
-0.4700000000000001
 11
0.75
 21
0.3323401871576772
 31
-0.3323401871576775
 12
0.8
 22
0.2545584412271573
 32
-0.2545584412271571
 13
0.8
 23
0.0
 33
-0.3599999999999997
  0
3DFACE
  5
2DA
  8
WHEELS
 10
0.75
 20
-0.3323401871576772
 30
-0.3323401871576775
 11
0.75
 21
0.0
 31
-0.4700000000000001
 12
0.8
 22
0.0
 32
-0.3599999999999997
 13
0.8
 23
-0.2545584412271573
 33
-0.2545584412271571
  0
3DFACE
  5
2DB
  8
WHEELS
 10
0.6500000000000002
 20
0.0
 30
-0.4700000000000001
 11
0.6500000000000002
 21
-0.3323401871576772
 31
-0.3323401871576775
 12
0.6000000000000001
 22
-0.2545584412271573
 32
-0.2545584412271571
 13
0.6000000000000001
 23
0.0
 33
-0.3599999999999997
  0
3DFACE
  5
2DC
  8
WHEELS
 10
0.6500000000000002
 20
0.3323401871576772
 30
-0.3323401871576775
 11
0.6500000000000002
 21
0.0
 31
-0.4700000000000001
 12
0.6000000000000001
 22
0.0
 32
-0.3599999999999997
 13
0.6000000000000001
 23
0.2545584412271573
 33
-0.2545584412271567
  0
3DFACE
  5
2DD
  8
WHEELS
 10
0.7500000000000001
 20
0.0
 30
-0.4700000000000001
 11
0.7500000000000001
 21
-0.3323401871576772
 31
-0.3323401871576775
 12
0.6500000000000002
 22
-0.3323401871576772
 32
-0.3323401871576775
 13
0.6500000000000002
 23
0.0
 33
-0.4700000000000001
  0
3DFACE
  5
2DE
  8
WHEELS
 10
0.7500000000000001
 20
0.3323401871576772
 30
-0.3323401871576775
 11
0.7500000000000001
 21
0.0
 31
-0.4700000000000001
 12
0.6500000000000002
 22
0.0
 32
-0.4700000000000001
 13
0.6500000000000002
 23
0.3323401871576772
 33
-0.3323401871576775
  0
3DFACE
  5
2DF
  8
WHEELS
 10
0.9500000000000001
 20
0.3323401871576772
 30
-0.3323401871576775
 11
0.9500000000000001
 21
0.0
 31
-0.4700000000000001
 12
0.8500000000000001
 22
0.0
 32
-0.4700000000000001
 13
0.8500000000000001
 23
0.3323401871576772
 33
-0.3323401871576775
  0
3DFACE
  5
2E0
  8
WHEELS
 10
0.9500000000000001
 20
0.0
 30
-0.4700000000000001
 11
0.9500000000000001
 21
-0.3323401871576772
 31
-0.3323401871576775
 12
0.8500000000000001
 22
-0.3323401871576772
 32
-0.3323401871576775
 13
0.8500000000000001
 23
0.0
 33
-0.4700000000000001
  0
3DFACE
  5
2E1
  8
WHEELS
 10
0.8500000000000001
 20
0.3323401871576772
 30
-0.3323401871576775
 11
0.8500000000000001
 21
0.0
 31
-0.4700000000000001
 12
0.8000000000000002
 22
0.0
 32
-0.3599999999999997
 13
0.8000000000000002
 23
0.2545584412271573
 33
-0.2545584412271567
  0
3DFACE
  5
2E2
  8
WHEELS
 10
0.8500000000000001
 20
0.0
 30
-0.4700000000000001
 11
0.8500000000000001
 21
-0.3323401871576772
 31
-0.3323401871576775
 12
0.8000000000000002
 22
-0.2545584412271573
 32
-0.2545584412271571
 13
0.8000000000000002
 23
0.0
 33
-0.3599999999999997
  0
3DFACE
  5
2E3
  8
WHEELS
 10
0.95
 20
-0.3323401871576772
 30
-0.3323401871576775
 11
0.95
 21
0.0
 31
-0.4700000000000001
 12
1.0
 22
0.0
 32
-0.3599999999999997
 13
1.0
 23
-0.2545584412271573
 33
-0.2545584412271571
  0
3DFACE
  5
2E4
  8
WHEELS
 10
0.95
 20
0.0
 30
-0.4700000000000001
 11
0.95
 21
0.3323401871576772
 31
-0.3323401871576775
 12
1.0
 22
0.2545584412271573
 32
-0.2545584412271571
 13
1.0
 23
0.0
 33
-0.3599999999999997
  0
3DFACE
  5
2E5
  8
WHEELS
 10
0.6000000000000001
 20
-0.2545584412271573
 30
-0.2545584412271571
 11
0.6000000000000001
 21
0.3600000000000003
 31
0.0000000000000002
 12
0.6000000000000001
 22
0.2545584412271573
 32
-0.2545584412271567
 13
0.6000000000000001
 23
0.0
 33
-0.3599999999999997
  0
3DFACE
  5
2E6
  8
WHEELS
 10
0.75
 20
0.3323401871576772
 30
-0.3323401871576775
 11
0.7500000000000001
 21
0.4699999999999998
 31
-0.0000000000000003
 12
0.8000000000000002
 22
0.3600000000000003
 32
0.0000000000000002
 13
0.8
 23
0.2545584412271573
 33
-0.2545584412271571
  0
3DFACE
  5
2E7
  8
WHEELS
 10
0.7500000000000001
 20
-0.4699999999999998
 30
0.0000000000000002
 11
0.75
 21
-0.3323401871576772
 31
-0.3323401871576775
 12
0.8
 22
-0.2545584412271573
 32
-0.2545584412271571
 13
0.8000000000000002
 23
-0.3599999999999994
 33
0.0000000000000002
  0
3DFACE
  5
2E8
  8
WHEELS
 10
0.6500000000000002
 20
-0.3323401871576772
 30
-0.3323401871576775
 11
0.6500000000000002
 21
-0.4699999999999998
 31
0.0000000000000002
 12
0.6000000000000001
 22
-0.3599999999999994
 32
0.0000000000000002
 13
0.6000000000000001
 23
-0.2545584412271573
 33
-0.2545584412271571
  0
3DFACE
  5
2E9
  8
WHEELS
 10
0.6500000000000002
 20
0.4699999999999998
 30
0.0000000000000002
 11
0.6500000000000002
 21
0.3323401871576772
 31
-0.3323401871576775
 12
0.6000000000000001
 22
0.2545584412271573
 32
-0.2545584412271567
 13
0.6000000000000001
 23
0.3600000000000003
 33
0.0000000000000002
  0
3DFACE
  5
2EA
  8
WHEELS
 10
0.7500000000000001
 20
-0.3323401871576772
 30
-0.3323401871576775
 11
0.7500000000000001
 21
-0.4699999999999998
 31
0.0000000000000002
 12
0.6500000000000002
 22
-0.4699999999999998
 32
0.0000000000000002
 13
0.6500000000000002
 23
-0.3323401871576772
 33
-0.3323401871576775
  0
3DFACE
  5
2EB
  8
WHEELS
 10
0.7500000000000001
 20
0.4699999999999998
 30
0.0000000000000002
 11
0.7500000000000001
 21
0.3323401871576772
 31
-0.3323401871576775
 12
0.6500000000000002
 22
0.3323401871576772
 32
-0.3323401871576775
 13
0.6500000000000002
 23
0.4699999999999998
 33
0.0000000000000002
  0
3DFACE
  5
2EC
  8
WHEELS
 10
0.9500000000000001
 20
0.4699999999999998
 30
0.0000000000000002
 11
0.9500000000000001
 21
0.3323401871576772
 31
-0.3323401871576775
 12
0.8500000000000001
 22
0.3323401871576772
 32
-0.3323401871576775
 13
0.8500000000000001
 23
0.4699999999999998
 33
0.0000000000000002
  0
3DFACE
  5
2ED
  8
WHEELS
 10
0.9500000000000001
 20
-0.3323401871576772
 30
-0.3323401871576775
 11
0.9500000000000001
 21
-0.4699999999999998
 31
0.0000000000000002
 12
0.8500000000000001
 22
-0.4699999999999998
 32
0.0000000000000002
 13
0.8500000000000001
 23
-0.3323401871576772
 33
-0.3323401871576775
  0
3DFACE
  5
2EE
  8
WHEELS
 10
0.8500000000000001
 20
0.4699999999999998
 30
0.0000000000000002
 11
0.8500000000000001
 21
0.3323401871576772
 31
-0.3323401871576775
 12
0.8000000000000002
 22
0.2545584412271573
 32
-0.2545584412271567
 13
0.8000000000000002
 23
0.3600000000000003
 33
0.0000000000000002
  0
3DFACE
  5
2EF
  8
WHEELS
 10
0.8500000000000001
 20
-0.3323401871576772
 30
-0.3323401871576775
 11
0.8500000000000001
 21
-0.4699999999999998
 31
0.0000000000000002
 12
0.8000000000000002
 22
-0.3599999999999994
 32
0.0000000000000002
 13
0.8000000000000002
 23
-0.2545584412271573
 33
-0.2545584412271571
  0
3DFACE
  5
2F0
  8
WHEELS
 10
0.9500000000000001
 20
-0.4699999999999998
 30
0.0000000000000002
 11
0.95
 21
-0.3323401871576772
 31
-0.3323401871576775
 12
1.0
 22
-0.2545584412271573
 32
-0.2545584412271571
 13
1.0
 23
-0.3599999999999994
 33
0.0000000000000002
  0
3DFACE
  5
2F1
  8
WHEELS
 10
0.95
 20
0.3323401871576772
 30
-0.3323401871576775
 11
0.9500000000000001
 21
0.4699999999999998
 31
-0.0000000000000003
 12
1.0
 22
0.3600000000000003
 32
0.0000000000000002
 13
1.0
 23
0.2545584412271573
 33
-0.2545584412271571
  0
3DFACE
  5
2F2
  8
WHEELS
 10
1.0
 20
0.3600000000000003
 30
0.0000000000000002
 11
1.0
 21
-0.2545584412271573
 31
-0.2545584412271571
 12
1.0
 22
0.0
 32
-0.3599999999999997
 13
1.0
 23
0.2545584412271573
 33
-0.2545584412271571
  0
3DFACE
  5
2F3
  8
WHEELS
 10
0.7500000000000001
 20
0.0
 30
0.4700000000000004
 11
0.7500000000000001
 21
-0.3323401871576772
 31
0.3323401871576774
 12
0.8000000000000002
 22
-0.2545584412271573
 32
0.254558441227157
 13
0.8000000000000002
 23
0.0
 33
0.36
  0
3DFACE
  5
2F4
  8
WHEELS
 10
0.7500000000000001
 20
0.3323401871576772
 30
0.3323401871576774
 11
0.7500000000000001
 21
0.0
 31
0.4700000000000004
 12
0.8000000000000002
 22
0.0
 32
0.36
 13
0.8000000000000002
 23
0.2545584412271573
 33
0.254558441227157
  0
3DFACE
  5
2F5
  8
WHEELS
 10
0.6500000000000002
 20
0.0
 30
0.47
 11
0.6500000000000002
 21
0.3323401871576772
 31
0.3323401871576774
 12
0.6000000000000001
 22
0.2545584412271573
 32
0.254558441227157
 13
0.6000000000000001
 23
0.0
 33
0.36
  0
3DFACE
  5
2F6
  8
WHEELS
 10
0.6500000000000002
 20
-0.3323401871576772
 30
0.3323401871576774
 11
0.6500000000000002
 21
0.0
 31
0.47
 12
0.6000000000000001
 22
0.0
 32
0.36
 13
0.6000000000000001
 23
-0.2545584412271573
 33
0.254558441227157
  0
3DFACE
  5
2F7
  8
WHEELS
 10
0.7500000000000001
 20
0.0
 30
0.47
 11
0.7500000000000001
 21
0.3323401871576772
 31
0.3323401871576774
 12
0.6500000000000002
 22
0.3323401871576772
 32
0.3323401871576774
 13
0.6500000000000002
 23
0.0
 33
0.47
  0
3DFACE
  5
2F8
  8
WHEELS
 10
0.7500000000000001
 20
-0.3323401871576772
 30
0.3323401871576774
 11
0.7500000000000001
 21
0.0
 31
0.47
 12
0.6500000000000002
 22
0.0
 32
0.47
 13
0.6500000000000002
 23
-0.3323401871576772
 33
0.3323401871576774
  0
3DFACE
  5
2F9
  8
WHEELS
 10
0.9500000000000001
 20
-0.3323401871576772
 30
0.3323401871576774
 11
0.9500000000000001
 21
0.0
 31
0.47
 12
0.8500000000000001
 22
0.0
 32
0.47
 13
0.8500000000000001
 23
-0.3323401871576772
 33
0.3323401871576774
  0
3DFACE
  5
2FA
  8
WHEELS
 10
0.9500000000000001
 20
0.0
 30
0.47
 11
0.9500000000000001
 21
0.3323401871576772
 31
0.3323401871576774
 12
0.8500000000000001
 22
0.3323401871576772
 32
0.3323401871576774
 13
0.8500000000000001
 23
0.0
 33
0.47
  0
3DFACE
  5
2FB
  8
WHEELS
 10
0.8500000000000001
 20
-0.3323401871576772
 30
0.3323401871576774
 11
0.8500000000000001
 21
0.0
 31
0.47
 12
0.8000000000000002
 22
0.0
 32
0.36
 13
0.8000000000000002
 23
-0.2545584412271573
 33
0.254558441227157
  0
3DFACE
  5
2FC
  8
WHEELS
 10
0.8500000000000001
 20
0.0
 30
0.47
 11
0.8500000000000001
 21
0.3323401871576772
 31
0.3323401871576774
 12
0.8000000000000002
 22
0.2545584412271573
 32
0.254558441227157
 13
0.8000000000000002
 23
0.0
 33
0.36
  0
3DFACE
  5
2FD
  8
WHEELS
 10
0.9500000000000001
 20
0.3323401871576772
 30
0.3323401871576774
 11
0.9500000000000001
 21
0.0
 31
0.4700000000000004
 12
1.0
 22
0.0
 32
0.36
 13
1.0
 23
0.2545584412271573
 33
0.254558441227157
  0
3DFACE
  5
2FE
  8
WHEELS
 10
0.9500000000000001
 20
0.0
 30
0.4700000000000004
 11
0.9500000000000001
 21
-0.3323401871576772
 31
0.3323401871576774
 12
1.0
 22
-0.2545584412271573
 32
0.254558441227157
 13
1.0
 23
0.0
 33
0.36
  0
3DFACE
  5
619
  8
WHEELS
 10
0.6700000000000002
 20
-0.0149999999999997
 30
-0.0259807621135331
 11
0.6700000000000002
 21
-0.0300000000000003
 31
0.0000000000000002
 12
-0.6700000000000002
 22
-0.0300000000000003
 32
0.0000000000000002
 13
-0.6700000000000002
 23
-0.0149999999999997
 33
-0.0259807621135331
  0
3DFACE
  5
61A
  8
WHEELS
 10
0.6700000000000002
 20
0.0149999999999997
 30
-0.0259807621135331
 11
0.6700000000000002
 21
-0.0149999999999997
 31
-0.0259807621135331
 12
-0.6700000000000002
 22
-0.0149999999999997
 32
-0.0259807621135331
 13
-0.6700000000000002
 23
0.0149999999999997
 33
-0.0259807621135331
  0
3DFACE
  5
61B
  8
WHEELS
 10
0.6700000000000002
 20
0.0300000000000003
 30
0.0000000000000002
 11
0.6700000000000002
 21
0.0149999999999997
 31
-0.0259807621135331
 12
-0.6700000000000002
 22
0.0149999999999997
 32
-0.0259807621135331
 13
-0.6700000000000002
 23
0.0300000000000003
 33
0.0000000000000002
  0
3DFACE
  5
61C
  8
WHEELS
 10
0.6700000000000002
 20
0.0149999999999997
 30
0.0259807621135335
 11
0.6700000000000002
 21
0.0300000000000003
 31
0.0000000000000002
 12
-0.6700000000000002
 22
0.0300000000000003
 32
0.0000000000000002
 13
-0.6700000000000002
 23
0.0149999999999997
 33
0.0259807621135335
  0
3DFACE
  5
61D
  8
WHEELS
 10
0.6700000000000002
 20
-0.0149999999999997
 30
0.0259807621135335
 11
0.6700000000000002
 21
0.0149999999999997
 31
0.0259807621135335
 12
-0.6700000000000002
 22
0.0149999999999997
 32
0.0259807621135335
 13
-0.6700000000000002
 23
-0.0149999999999997
 33
0.0259807621135335
  0
3DFACE
  5
61E
  8
WHEELS
 10
0.6700000000000002
 20
-0.0300000000000003
 30
0.0000000000000002
 11
0.6700000000000002
 21
-0.0149999999999997
 31
0.0259807621135335
 12
-0.6700000000000002
 22
-0.0149999999999997
 32
0.0259807621135335
 13
-0.6700000000000002
 23
-0.0300000000000003
 33
0.0000000000000002
  0
ENDSEC
  0
EOF
