  0
SECTION
  2
HEADER
  9
$ACADVER
  1
AC1009
  9
$INSBASE
 10
0.0
 20
0.0
 30
0.0
  9
$EXTMIN
 10
-0.3298076211353318
 20
-11.09
 30
-0.2982050807569141
  9
$EXTMAX
 10
0.3361473670974946
 20
-10.939999999999991
 30
0.3399999999999903
  9
$LIMMIN
 10
0.0
 20
0.0
  9
$LIMMAX
 10
420.0
 20
297.0
  9
$ORTHOMODE
 70
     1
  9
$REGENMODE
 70
     1
  9
$FILLMODE
 70
     1
  9
$QTEXTMODE
 70
     0
  9
$MIRRTEXT
 70
     1
  9
$DRAGMODE
 70
     2
  9
$LTSCALE
 40
1.0
  9
$OSMODE
 70
    39
  9
$ATTMODE
 70
     1
  9
$TEXTSIZE
 40
2.5
  9
$TRACEWID
 40
1.0
  9
$TEXTSTYLE
  7
STANDARD
  9
$CLAYER
  8
PROP
  9
$CELTYPE
  6
BYLAYER
  9
$CECOLOR
 62
   256
  9
$DIMSCALE
 40
1.0
  9
$DIMASZ
 40
2.5
  9
$DIMEXO
 40
0.625
  9
$DIMDLI
 40
3.75
  9
$DIMRND
 40
0.0
  9
$DIMDLE
 40
0.0
  9
$DIMEXE
 40
1.25
  9
$DIMTP
 40
0.0
  9
$DIMTM
 40
0.0
  9
$DIMTXT
 40
2.5
  9
$DIMCEN
 40
2.5
  9
$DIMTSZ
 40
0.0
  9
$DIMTOL
 70
     0
  9
$DIMLIM
 70
     0
  9
$DIMTIH
 70
     0
  9
$DIMTOH
 70
     0
  9
$DIMSE1
 70
     0
  9
$DIMSE2
 70
     0
  9
$DIMTAD
 70
     1
  9
$DIMZIN
 70
     8
  9
$DIMBLK
  1

  9
$DIMASO
 70
     1
  9
$DIMSHO
 70
     1
  9
$DIMPOST
  1

  9
$DIMAPOST
  1

  9
$DIMALT
 70
     0
  9
$DIMALTD
 70
     3
  9
$DIMALTF
 40
0.03937007874016
  9
$DIMLFAC
 40
1.0
  9
$DIMTOFL
 70
     1
  9
$DIMTVP
 40
0.0
  9
$DIMTIX
 70
     0
  9
$DIMSOXD
 70
     0
  9
$DIMSAH
 70
     0
  9
$DIMBLK1
  1

  9
$DIMBLK2
  1

  9
$DIMSTYLE
  2
ISO-25
  9
$DIMCLRD
 70
     0
  9
$DIMCLRE
 70
     0
  9
$DIMCLRT
 70
     0
  9
$DIMTFAC
 40
1.0
  9
$DIMGAP
 40
0.625
  9
$LUNITS
 70
     2
  9
$LUPREC
 70
     4
  9
$SKETCHINC
 40
1.0
  9
$FILLETRAD
 40
10.0
  9
$AUNITS
 70
     0
  9
$AUPREC
 70
     0
  9
$MENU
  1
.
  9
$ELEVATION
 40
0.0
  9
$PELEVATION
 40
0.0
  9
$THICKNESS
 40
0.0
  9
$LIMCHECK
 70
     0
  9
$BLIPMODE
 70
     0
  9
$CHAMFERA
 40
10.0
  9
$CHAMFERB
 40
10.0
  9
$SKPOLY
 70
     0
  9
$TDCREATE
 40
2456742.8100524419
  9
$TDUPDATE
 40
2456744.9633120601
  9
$TDINDWG
 40
0.4650640394
  9
$TDUSRTIMER
 40
0.4650640394
  9
$USRTIMER
 70
     1
  9
$ANGBASE
 50
0.0
  9
$ANGDIR
 70
     0
  9
$PDMODE
 70
     0
  9
$PDSIZE
 40
0.0
  9
$PLINEWID
 40
0.0
  9
$COORDS
 70
     1
  9
$SPLFRAME
 70
     0
  9
$SPLINETYPE
 70
     6
  9
$SPLINESEGS
 70
     8
  9
$ATTDIA
 70
     1
  9
$ATTREQ
 70
     1
  9
$HANDLING
 70
-16383
  9
$HANDSEED
  5
14B0
  9
$SURFTAB1
 70
     6
  9
$SURFTAB2
 70
     6
  9
$SURFTYPE
 70
     6
  9
$SURFU
 70
     6
  9
$SURFV
 70
     6
  9
$UCSNAME
  2

  9
$UCSORG
 10
0.0
 20
0.0
 30
0.0
  9
$UCSXDIR
 10
0.0
 20
-1.0
 30
0.0
  9
$UCSYDIR
 10
0.0
 20
0.0
 30
1.0
  9
$PUCSNAME
  2

  9
$PUCSORG
 10
0.0
 20
0.0
 30
0.0
  9
$PUCSXDIR
 10
1.0
 20
0.0
 30
0.0
  9
$PUCSYDIR
 10
0.0
 20
1.0
 30
0.0
  9
$USERI1
 70
     0
  9
$USERI2
 70
     0
  9
$USERI3
 70
     0
  9
$USERI4
 70
     0
  9
$USERI5
 70
     0
  9
$USERR1
 40
0.0
  9
$USERR2
 40
0.0
  9
$USERR3
 40
0.0
  9
$USERR4
 40
0.0
  9
$USERR5
 40
0.0
  9
$WORLDVIEW
 70
     1
  9
$SHADEDGE
 70
     3
  9
$SHADEDIF
 70
    70
  9
$TILEMODE
 70
     1
  9
$MAXACTVP
 70
    64
  9
$PLIMCHECK
 70
     0
  9
$PEXTMIN
 10
27.844751262664801
 20
20.161249995231621
 30
0.0
  9
$PEXTMAX
 10
250.60276136398309
 20
181.4512499570846
 30
0.0
  9
$PLIMMIN
 10
-3.757080078125
 20
-3.7570831775665279
  9
$PLIMMAX
 10
293.21124267578119
 20
206.21624445915219
  9
$UNITMODE
 70
     0
  9
$VISRETAIN
 70
     1
  9
$PLINEGEN
 70
     0
  9
$PSLTSCALE
 70
     1
  0
ENDSEC
  0
SECTION
  2
TABLES
  0
TABLE
  2
VPORT
 70
    37
  0
VPORT
  2
*ACTIVE
 70
     0
 10
0.0
 20
0.0
 11
1.0
 21
1.0
 12
11.015000000000001
 22
0.0208974596215381
 13
0.0
 23
0.0
 14
0.01
 24
0.01
 15
1.0
 25
1.0
 16
-1.0
 26
0.0
 36
0.0
 17
0.0
 27
0.0
 37
0.0
 40
0.6426628578052647
 41
1.7832167832167829
 42
50.0
 43
0.0
 44
0.0
 50
0.0
 51
0.0
 71
     0
 72
   100
 73
     1
 74
     3
 75
     1
 76
     1
 77
     0
 78
     0
  0
ENDTAB
  0
TABLE
  2
LTYPE
 70
     1
  0
LTYPE
  2
CONTINUOUS
 70
     0
  3
Solid line
 72
    65
 73
     0
 40
0.0
  0
ENDTAB
  0
TABLE
  2
LAYER
 70
    11
  0
LAYER
  2
0
 70
     0
 62
     7
  6
CONTINUOUS
  0
LAYER
  2
DRAWING
 70
     0
 62
     9
  6
CONTINUOUS
  0
LAYER
  2
H2
 70
     0
 62
     6
  6
CONTINUOUS
  0
LAYER
  2
SUPERSTRUCTURE
 70
     0
 62
     3
  6
CONTINUOUS
  0
LAYER
  2
TURRET
 70
     0
 62
     2
  6
CONTINUOUS
  0
LAYER
  2
GUN
 70
     0
 62
     1
  6
CONTINUOUS
  0
LAYER
  2
SLEEVE
 70
     0
 62
     5
  6
CONTINUOUS
  0
LAYER
  2
RAILINGS
 70
     0
 62
     6
  6
CONTINUOUS
  0
LAYER
  2
PROP
 70
     0
 62
     1
  6
CONTINUOUS
  0
ENDTAB
  0
TABLE
  2
STYLE
 70
     1
  0
STYLE
  2
STANDARD
 70
     0
 40
0.0
 41
1.0
 50
0.0
 71
     0
 42
2.5
  3
txt
  4

  0
ENDTAB
  0
TABLE
  2
VIEW
 70
     0
  0
ENDTAB
  0
TABLE
  2
UCS
 70
     0
  0
ENDTAB
  0
TABLE
  2
APPID
 70
     1
  0
APPID
  2
ACAD
 70
     0
  0
ENDTAB
  0
TABLE
  2
DIMSTYLE
 70
     1
  0
DIMSTYLE
  2
ISO-25
 70
     0
  3

  4

  5

  6

  7

 40
1.0
 41
2.5
 42
0.625
 43
3.75
 44
1.25
 45
0.0
 46
0.0
 47
0.0
 48
0.0
140
2.5
141
2.5
142
0.0
143
0.03937007874016
144
1.0
145
0.0
146
1.0
147
0.625
 71
     0
 72
     0
 73
     0
 74
     0
 75
     0
 76
     0
 77
     1
 78
     8
170
     0
171
     3
172
     1
173
     0
174
     0
175
     0
176
     0
177
     0
178
     0
  0
ENDTAB
  0
ENDSEC
  0
SECTION
  2
BLOCKS
  0
BLOCK
  8
0
  2
$MODEL_SPACE
 70
     0
 10
0.0
 20
0.0
 30
0.0
  3
$MODEL_SPACE
  1

  0
ENDBLK
  5
21
  8
0
  0
BLOCK
 67
     1
  8
0
  2
$PAPER_SPACE
 70
     0
 10
0.0
 20
0.0
 30
0.0
  3
$PAPER_SPACE
  1

  0
ENDBLK
  5
1D
 67
     1
  8
0
  0
ENDSEC
  0
SECTION
  2
ENTITIES
  0
3DFACE
  5
1463
  8
PROP
 10
-0.0400000000000076
 20
-11.039999999999999
 30
0.0692820323027601
 11
-0.0800000000000139
 21
-11.039999999999999
 31
-0.000000000000006
 12
-0.0000000000000013
 22
-11.09
 32
-0.000000000000006
 13
-0.0000000000000013
 23
-11.09
 33
-0.000000000000006
  0
3DFACE
  5
1464
  8
PROP
 10
0.0400000000000049
 20
-11.039999999999999
 30
0.0692820323027601
 11
-0.0400000000000076
 21
-11.039999999999999
 31
0.0692820323027601
 12
-0.0000000000000013
 22
-11.09
 32
-0.000000000000006
 13
-0.0000000000000013
 23
-11.09
 33
-0.000000000000006
  0
3DFACE
  5
1465
  8
PROP
 10
0.0800000000000112
 20
-11.039999999999999
 30
-0.000000000000006
 11
0.0400000000000049
 21
-11.039999999999999
 31
0.0692820323027601
 12
-0.0000000000000013
 22
-11.09
 32
-0.000000000000006
 13
-0.0000000000000013
 23
-11.09
 33
-0.000000000000006
  0
3DFACE
  5
1466
  8
PROP
 10
0.0400000000000049
 20
-11.039999999999999
 30
-0.0692820323027721
 11
0.0800000000000112
 21
-11.039999999999999
 31
-0.000000000000006
 12
-0.0000000000000013
 22
-11.09
 32
-0.000000000000006
 13
-0.0000000000000013
 23
-11.09
 33
-0.000000000000006
  0
3DFACE
  5
1467
  8
PROP
 10
-0.0400000000000076
 20
-11.039999999999999
 30
-0.0692820323027721
 11
0.0400000000000049
 21
-11.039999999999999
 31
-0.0692820323027721
 12
-0.0000000000000013
 22
-11.09
 32
-0.000000000000006
 13
-0.0000000000000013
 23
-11.09
 33
-0.000000000000006
  0
3DFACE
  5
1468
  8
PROP
 10
-0.0800000000000139
 20
-11.039999999999999
 30
-0.000000000000006
 11
-0.0400000000000076
 21
-11.039999999999999
 31
-0.0692820323027721
 12
-0.0000000000000013
 22
-11.09
 32
-0.000000000000006
 13
-0.0000000000000013
 23
-11.09
 33
-0.000000000000006
  0
3DFACE
  5
1469
  8
PROP
 10
-0.0400000000000076
 20
-10.939999999999991
 30
0.0692820323027459
 11
-0.0799999999999996
 21
-10.939999999999991
 31
-0.000000000000006
 12
-0.0799999999999996
 22
-11.039999999999999
 32
-0.000000000000006
 13
-0.0400000000000076
 23
-11.039999999999999
 33
0.0692820323027459
  0
3DFACE
  5
146A
  8
PROP
 10
0.0400000000000049
 20
-10.939999999999991
 30
0.0692820323027459
 11
-0.0400000000000076
 21
-10.939999999999991
 31
0.0692820323027459
 12
-0.0400000000000076
 22
-11.039999999999999
 32
0.0692820323027459
 13
0.0400000000000049
 23
-11.039999999999999
 33
0.0692820323027459
  0
3DFACE
  5
146B
  8
PROP
 10
0.079999999999997
 20
-10.939999999999991
 30
-0.000000000000006
 11
0.0400000000000049
 21
-10.939999999999991
 31
0.0692820323027459
 12
0.0400000000000049
 22
-11.039999999999999
 32
0.0692820323027459
 13
0.079999999999997
 23
-11.039999999999999
 33
-0.000000000000006
  0
3DFACE
  5
146C
  8
PROP
 10
0.0400000000000049
 20
-10.939999999999991
 30
-0.0692820323027579
 11
0.079999999999997
 21
-10.939999999999991
 31
-0.000000000000006
 12
0.079999999999997
 22
-11.039999999999999
 32
-0.000000000000006
 13
0.0400000000000049
 23
-11.039999999999999
 33
-0.0692820323027579
  0
3DFACE
  5
146D
  8
PROP
 10
-0.0400000000000076
 20
-10.939999999999991
 30
-0.0692820323027579
 11
0.0400000000000049
 21
-10.939999999999991
 31
-0.0692820323027579
 12
0.0400000000000049
 22
-11.039999999999999
 32
-0.0692820323027579
 13
-0.0400000000000076
 23
-11.039999999999999
 33
-0.0692820323027579
  0
3DFACE
  5
146E
  8
PROP
 10
-0.0799999999999996
 20
-10.939999999999991
 30
-0.000000000000006
 11
-0.0400000000000076
 21
-10.939999999999991
 31
-0.0692820323027579
 12
-0.0400000000000076
 22
-11.039999999999999
 32
-0.0692820323027579
 13
-0.0799999999999996
 23
-11.039999999999999
 33
-0.000000000000006
  0
3DFACE
  5
146F
  8
PROP
 10
0.0199038105676821
 20
-10.939999999999991
 30
-0.2655255888326085
 11
0.0039230484541535
 21
-10.939999999999991
 31
-0.2332050807569093
 12
0.1165063509461235
 22
-10.939999999999991
 32
-0.2982050807569141
 13
0.0718653347947353
 23
-10.939999999999991
 33
-0.2955255888326025
  0
3DFACE
  5
1470
  8
PROP
 10
0.0718653347947353
 20
-10.939999999999991
 30
-0.2955255888326025
 11
0.1165063509461235
 21
-10.939999999999991
 31
-0.2982050807569141
 12
0.0039230484541535
 22
-10.939999999999991
 32
-0.2332050807569093
 13
0.0199038105676821
 23
-10.939999999999991
 33
-0.2655255888326085
  0
3DFACE
  5
1471
  8
PROP
 10
0.0039230484541535
 20
-10.939999999999991
 30
-0.2332050807569093
 11
-0.0093782217350777
 21
-10.949999999999999
 31
-0.1562435565298432
 12
0.189807621135357
 22
-10.949999999999999
 32
-0.2712435565298381
 13
0.1165063509461235
 23
-10.939999999999991
 33
-0.2982050807569141
  0
3DFACE
  5
1472
  8
PROP
 10
0.1165063509461235
 20
-10.939999999999991
 30
-0.2982050807569141
 11
0.189807621135357
 21
-10.949999999999999
 31
-0.2712435565298381
 12
-0.0093782217350777
 22
-10.949999999999999
 32
-0.1562435565298432
 13
0.0039230484541535
 23
-10.939999999999991
 33
-0.2332050807569093
  0
3DFACE
  5
1473
  8
PROP
 10
-0.0093782217350777
 20
-10.949999999999999
 30
-0.1562435565298432
 11
0.0319615242270843
 21
-10.96999999999999
 31
-0.0646410161513973
 12
0.2744486372867372
 22
-10.96999999999999
 32
-0.2046410161513978
 13
0.189807621135357
 23
-10.949999999999999
 33
-0.2712435565298381
  0
3DFACE
  5
1474
  8
PROP
 10
0.189807621135357
 20
-10.949999999999999
 30
-0.2712435565298381
 11
0.2744486372867372
 21
-10.96999999999999
 31
-0.2046410161513978
 12
0.0319615242270843
 22
-10.96999999999999
 32
-0.0646410161513973
 13
-0.0093782217350777
 23
-10.949999999999999
 33
-0.1562435565298432
  0
3DFACE
  5
1475
  8
PROP
 10
0.2744486372867372
 20
-10.96999999999999
 30
-0.2046410161513978
 11
0.3094486372867196
 21
-10.99
 31
-0.1440192378865095
 12
0.0669615242270809
 22
-10.99
 32
-0.0040192378864947
 13
0.0319615242270843
 23
-10.96999999999999
 33
-0.0646410161513973
  0
3DFACE
  5
1476
  8
PROP
 10
0.0319615242270843
 20
-10.96999999999999
 30
-0.0646410161513973
 11
0.0669615242270809
 21
-10.99
 31
-0.0040192378864947
 12
0.3094486372867196
 22
-10.99
 32
-0.1440192378865095
 13
0.2744486372867372
 23
-10.96999999999999
 33
-0.2046410161513978
  0
3DFACE
  5
1477
  8
PROP
 10
0.3094486372867196
 20
-10.99
 30
-0.1440192378865095
 11
0.3271281292110317
 21
-11.01
 31
-0.0733974596215876
 12
0.075980762113558
 22
-11.01
 32
0.0716025403784226
 13
0.0669615242270809
 23
-10.99
 33
-0.0040192378864947
  0
3DFACE
  5
1478
  8
PROP
 10
0.0669615242270809
 20
-10.99
 30
-0.0040192378864947
 11
0.075980762113558
 21
-11.01
 31
0.0716025403784226
 12
0.3271281292110317
 22
-11.01
 32
-0.0733974596215876
 13
0.3094486372867196
 23
-10.99
 33
-0.1440192378865095
  0
3DFACE
  5
1479
  8
PROP
 10
0.3271281292110317
 20
-11.01
 30
-0.0733974596215876
 11
0.3361473670974946
 21
-11.029999999999999
 31
0.0022243186433084
 12
0.1456217782649234
 22
-11.029999999999999
 32
0.1122243186433292
 13
0.075980762113558
 23
-11.01
 33
0.0716025403784226
  0
3DFACE
  5
147A
  8
PROP
 10
0.075980762113558
 20
-11.01
 30
0.0716025403784226
 11
0.1456217782649234
 21
-11.029999999999999
 31
0.1122243186433292
 12
0.3361473670974946
 22
-11.029999999999999
 32
0.0022243186433084
 13
0.3271281292110317
 23
-11.01
 33
-0.0733974596215876
  0
3DFACE
  5
147B
  8
PROP
 10
0.1456217782649234
 20
-11.029999999999999
 30
0.1122243186433292
 11
0.2312435565298316
 21
-11.04999999999999
 31
0.1205255888325578
 12
0.2918653347947484
 22
-11.04999999999999
 32
0.0855255888325541
 13
0.3361473670974946
 23
-11.029999999999999
 33
0.0022243186433084
  0
3DFACE
  5
147C
  8
PROP
 10
0.3361473670974946
 20
-11.029999999999999
 30
0.0022243186433084
 11
0.2918653347947484
 21
-11.04999999999999
 31
0.0855255888325541
 12
0.2312435565298316
 22
-11.04999999999999
 32
0.1205255888325578
 13
0.1456217782649234
 23
-11.029999999999999
 33
0.1122243186433292
  0
3DFACE
  5
147D
  8
PROP
 10
-0.2399038105676694
 20
-10.939999999999991
 30
0.1155255888325695
 11
-0.2039230484541448
 21
-10.939999999999991
 31
0.1132050807568714
 12
-0.3165063509461148
 22
-10.939999999999991
 32
0.0482050807568737
 13
-0.2918653347947369
 23
-10.939999999999991
 33
0.0855255888325826
  0
3DFACE
  5
147E
  8
PROP
 10
-0.2918653347947369
 20
-10.939999999999991
 30
0.0855255888325826
 11
-0.3165063509461148
 21
-10.939999999999991
 31
0.0482050807568737
 12
-0.2039230484541448
 22
-10.939999999999991
 32
0.1132050807568714
 13
-0.2399038105676694
 23
-10.939999999999991
 33
0.1155255888325695
  0
3DFACE
  5
147F
  8
PROP
 10
-0.2039230484541448
 20
-10.939999999999991
 30
0.1132050807568714
 11
-0.1306217782649113
 21
-10.949999999999999
 31
0.0862435565298097
 12
-0.3298076211353318
 22
-10.949999999999999
 32
-0.0287564434701995
 13
-0.3165063509461148
 23
-10.939999999999991
 33
0.0482050807568737
  0
3DFACE
  5
1480
  8
PROP
 10
-0.3165063509461148
 20
-10.939999999999991
 30
0.0482050807568737
 11
-0.3298076211353318
 21
-10.949999999999999
 31
-0.0287564434701995
 12
-0.1306217782649113
 22
-10.949999999999999
 32
0.0862435565298097
 13
-0.2039230484541448
 23
-10.939999999999991
 33
0.1132050807568714
  0
3DFACE
  5
1481
  8
PROP
 10
-0.1306217782649113
 20
-10.949999999999999
 30
0.0862435565298097
 11
-0.0719615242270648
 21
-10.96999999999999
 31
0.0046410161513688
 12
-0.3144486372867035
 22
-10.96999999999999
 32
-0.1353589838486318
 13
-0.3298076211353318
 23
-10.949999999999999
 33
-0.0287564434701995
  0
3DFACE
  5
1482
  8
PROP
 10
-0.3298076211353318
 20
-10.949999999999999
 30
-0.0287564434701995
 11
-0.3144486372867035
 21
-10.96999999999999
 31
-0.1353589838486318
 12
-0.0719615242270648
 22
-10.96999999999999
 32
0.0046410161513688
 13
-0.1306217782649113
 23
-10.949999999999999
 33
0.0862435565298097
  0
3DFACE
  5
1483
  8
PROP
 10
-0.3144486372867035
 20
-10.96999999999999
 30
-0.1353589838486318
 11
-0.2794486372867211
 21
-10.99
 31
-0.1959807621135201
 12
-0.0369615242270682
 22
-10.99
 32
-0.0559807621135338
 13
-0.0719615242270648
 23
-10.96999999999999
 33
0.0046410161513688
  0
3DFACE
  5
1484
  8
PROP
 10
-0.0719615242270648
 20
-10.96999999999999
 30
0.0046410161513688
 11
-0.0369615242270682
 21
-10.99
 31
-0.0559807621135338
 12
-0.2794486372867211
 22
-10.99
 32
-0.1959807621135201
 13
-0.3144486372867035
 23
-10.96999999999999
 33
-0.1353589838486318
  0
3DFACE
  5
1485
  8
PROP
 10
-0.2794486372867211
 20
-10.99
 30
-0.1959807621135201
 11
-0.2271281292110259
 21
-11.01
 31
-0.2466025403784318
 12
0.0240192378864621
 22
-11.01
 32
-0.10160254037845
 13
-0.0369615242270682
 23
-10.99
 33
-0.0559807621135338
  0
3DFACE
  5
1486
  8
PROP
 10
-0.0369615242270682
 20
-10.99
 30
-0.0559807621135338
 11
0.0240192378864621
 21
-11.01
 31
-0.10160254037845
 12
-0.2271281292110259
 22
-11.01
 32
-0.2466025403784318
 13
-0.2794486372867211
 23
-10.99
 33
-0.1959807621135201
  0
3DFACE
  5
1487
  8
PROP
 10
-0.2271281292110259
 20
-11.01
 30
-0.2466025403784318
 11
-0.1661473670975098
 21
-11.029999999999999
 31
-0.292224318643348
 12
0.0243782217350899
 22
-11.029999999999999
 32
-0.1822243186433627
 13
0.0240192378864621
 23
-11.01
 33
-0.10160254037845
  0
3DFACE
  5
1488
  8
PROP
 10
0.0240192378864621
 20
-11.01
 30
-0.10160254037845
 11
0.0243782217350899
 21
-11.029999999999999
 31
-0.1822243186433627
 12
-0.1661473670975098
 22
-11.029999999999999
 32
-0.292224318643348
 13
-0.2271281292110259
 23
-11.01
 33
-0.2466025403784318
  0
3DFACE
  5
1489
  8
PROP
 10
0.0243782217350899
 20
-11.029999999999999
 30
-0.1822243186433627
 11
-0.0112435565298212
 21
-11.04999999999999
 31
-0.2605255888325917
 12
-0.071865334794738
 22
-11.04999999999999
 32
-0.2955255888325883
 13
-0.1661473670975098
 23
-11.029999999999999
 33
-0.292224318643348
  0
3DFACE
  5
148A
  8
PROP
 10
-0.1661473670975098
 20
-11.029999999999999
 30
-0.292224318643348
 11
-0.071865334794738
 21
-11.04999999999999
 31
-0.2955255888325883
 12
-0.0112435565298212
 22
-11.04999999999999
 32
-0.2605255888325917
 13
0.0243782217350899
 23
-11.029999999999999
 33
-0.1822243186433627
  0
3DFACE
  5
148B
  8
PROP
 10
-0.1699999999999746
 20
-11.029999999999999
 30
0.2899999999999931
 11
-0.2200000000000002
 21
-11.04999999999999
 31
0.2099999999999877
 12
-0.2200000000000002
 22
-11.04999999999999
 32
0.1399999999999875
 13
-0.1699999999999888
 23
-11.029999999999999
 33
0.0699999999999872
  0
3DFACE
  5
148C
  8
PROP
 10
-0.1699999999999888
 20
-11.029999999999999
 30
0.0699999999999872
 11
-0.2200000000000002
 21
-11.04999999999999
 31
0.1399999999999875
 12
-0.2200000000000002
 22
-11.04999999999999
 32
0.2099999999999877
 13
-0.1699999999999746
 23
-11.029999999999999
 33
0.2899999999999931
  0
3DFACE
  5
148D
  8
PROP
 10
-0.0999999999999957
 20
-11.01
 30
0.029999999999988
 11
-0.1699999999999888
 21
-11.029999999999999
 31
0.0699999999999872
 12
-0.1699999999999746
 22
-11.029999999999999
 32
0.2899999999999931
 13
-0.0999999999999815
 23
-11.01
 33
0.3199999999999872
  0
3DFACE
  5
148E
  8
PROP
 10
-0.0999999999999815
 20
-11.01
 30
0.3199999999999872
 11
-0.1699999999999746
 21
-11.029999999999999
 31
0.2899999999999931
 12
-0.1699999999999888
 22
-11.029999999999999
 32
0.0699999999999872
 13
-0.0999999999999957
 23
-11.01
 33
0.029999999999988
  0
3DFACE
  5
148F
  8
PROP
 10
-0.0299999999999883
 20
-10.99
 30
0.0599999999999892
 11
-0.0999999999999957
 21
-11.01
 31
0.029999999999988
 12
-0.0999999999999815
 22
-11.01
 32
0.3199999999999872
 13
-0.0299999999999741
 23
-10.99
 33
0.3399999999999903
  0
3DFACE
  5
1490
  8
PROP
 10
-0.0299999999999741
 20
-10.99
 30
0.3399999999999903
 11
-0.0999999999999815
 21
-11.01
 31
0.3199999999999872
 12
-0.0999999999999957
 22
-11.01
 32
0.029999999999988
 13
-0.0299999999999883
 23
-10.99
 33
0.0599999999999892
  0
3DFACE
  5
1491
  8
PROP
 10
0.0400000000000049
 20
-10.96999999999999
 30
0.0599999999999892
 11
-0.0299999999999883
 21
-10.99
 31
0.0599999999999892
 12
-0.0299999999999741
 22
-10.99
 32
0.3399999999999903
 13
0.0400000000000049
 23
-10.96999999999999
 33
0.3399999999999903
  0
3DFACE
  5
1492
  8
PROP
 10
0.0400000000000049
 20
-10.96999999999999
 30
0.3399999999999903
 11
-0.0299999999999741
 21
-10.99
 31
0.3399999999999903
 12
-0.0299999999999883
 22
-10.99
 32
0.0599999999999892
 13
0.0400000000000049
 23
-10.96999999999999
 33
0.0599999999999892
  0
3DFACE
  5
1493
  8
PROP
 10
0.1399999999999992
 20
-10.949999999999999
 30
0.2999999999999912
 11
0.0400000000000049
 21
-10.96999999999999
 31
0.3399999999999903
 12
0.0400000000000049
 22
-10.96999999999999
 32
0.0599999999999892
 13
0.1399999999999992
 23
-10.949999999999999
 33
0.0699999999999872
  0
3DFACE
  5
1494
  8
PROP
 10
0.1399999999999992
 20
-10.949999999999999
 30
0.0699999999999872
 11
0.0400000000000049
 21
-10.96999999999999
 31
0.0599999999999892
 12
0.0400000000000049
 22
-10.96999999999999
 32
0.3399999999999903
 13
0.1399999999999992
 23
-10.949999999999999
 33
0.2999999999999912
  0
3DFACE
  5
1495
  8
PROP
 10
0.2000000000000015
 20
-10.939999999999991
 30
0.249999999999994
 11
0.1399999999999992
 21
-10.949999999999999
 31
0.2999999999999912
 12
0.1399999999999992
 22
-10.949999999999999
 32
0.0699999999999872
 13
0.2000000000000015
 23
-10.939999999999991
 33
0.1199999999999914
  0
3DFACE
  5
1496
  8
PROP
 10
0.2000000000000015
 20
-10.939999999999991
 30
0.1199999999999914
 11
0.1399999999999992
 21
-10.949999999999999
 31
0.0699999999999872
 12
0.1399999999999992
 22
-10.949999999999999
 32
0.2999999999999912
 13
0.2000000000000015
 23
-10.939999999999991
 33
0.249999999999994
  0
3DFACE
  5
1497
  8
PROP
 10
0.2200000000000117
 20
-10.939999999999991
 30
0.2099999999999877
 11
0.2000000000000015
 21
-10.939999999999991
 31
0.249999999999994
 12
0.2000000000000015
 22
-10.939999999999991
 32
0.1199999999999914
 13
0.2200000000000117
 23
-10.939999999999991
 33
0.1499999999999926
  0
3DFACE
  5
1498
  8
PROP
 10
0.2200000000000117
 20
-10.939999999999991
 30
0.1499999999999926
 11
0.2000000000000015
 21
-10.939999999999991
 31
0.1199999999999914
 12
0.2000000000000015
 22
-10.939999999999991
 32
0.249999999999994
 13
0.2200000000000117
 23
-10.939999999999991
 33
0.2099999999999877
  0
VIEWPORT
  5
2E
 67
     1
  8
0
 10
144.7270812988281
 20
101.2295806407928
 30
0.0
 40
391.13550988316581
 41
222.15178063964839
 68
     2
 69
     1
1001
ACAD
1000
MVIEW
1002
{
1070
    16
1010
0.0
1020
0.0
1030
0.0
1010
0.0
1020
0.0
1030
1.0
1040
0.0
1040
222.15178063964839
1040
144.7270812988281
1040
101.2295806407928
1040
50.0
1040
0.0
1040
0.0
1070
     0
1070
   100
1070
     1
1070
     1
1070
     0
1070
     0
1070
     0
1070
     0
1040
0.0
1040
0.0
1040
0.0
1040
10.0
1040
10.0
1040
10.0
1040
10.0
1070
     0
1002
{
1002
}
1002
}
  0
VIEWPORT
  5
30
 67
     1
  8
0
 10
139.22375631332389
 20
100.8062499761581
 30
0.0
 40
222.75801010131829
 41
161.289999961853
 68
     1
 69
     2
1001
ACAD
1000
MVIEW
1002
{
1070
    16
1010
0.0
1020
0.0
1030
0.0
1010
0.0
1020
0.0
1030
1.0
1040
0.0
1040
307.49010134148989
1040
210.0
1040
148.5
1040
50.0
1040
0.0
1040
0.0
1070
     0
1070
   100
1070
     1
1070
     3
1070
     0
1070
     1
1070
     0
1070
     0
1040
0.0
1040
0.0
1040
0.0
1040
10.0
1040
10.0
1040
10.0
1040
10.0
1070
     0
1002
{
1002
}
1002
}
  0
ENDSEC
  0
EOF
