  0
SECTION
  2
HEADER
  9
$ACADVER
  1
AC1009
  9
$INSBASE
 10
0.0
 20
0.0
 30
0.0
  9
$EXTMIN
 10
-1.069999999999999
 20
-10.470000000000001
 30
-5.089999999999999
  9
$EXTMAX
 10
3.0
 20
9.6500000000000004
 30
7.5233003300330026
  9
$LIMMIN
 10
0.0
 20
0.0
  9
$LIMMAX
 10
420.0
 20
297.0
  9
$ORTHOMODE
 70
     1
  9
$REGENMODE
 70
     1
  9
$FILLMODE
 70
     1
  9
$QTEXTMODE
 70
     0
  9
$MIRRTEXT
 70
     1
  9
$DRAGMODE
 70
     2
  9
$LTSCALE
 40
1.0
  9
$OSMODE
 70
   559
  9
$ATTMODE
 70
     1
  9
$TEXTSIZE
 40
2.5
  9
$TRACEWID
 40
1.0
  9
$TEXTSTYLE
  7
STANDARD
  9
$CLAYER
  8
TURRET
  9
$CELTYPE
  6
BYLAYER
  9
$CECOLOR
 62
   256
  9
$DIMSCALE
 40
1.0
  9
$DIMASZ
 40
2.5
  9
$DIMEXO
 40
0.625
  9
$DIMDLI
 40
3.75
  9
$DIMRND
 40
0.0
  9
$DIMDLE
 40
0.0
  9
$DIMEXE
 40
1.25
  9
$DIMTP
 40
0.0
  9
$DIMTM
 40
0.0
  9
$DIMTXT
 40
2.5
  9
$DIMCEN
 40
2.5
  9
$DIMTSZ
 40
0.0
  9
$DIMTOL
 70
     0
  9
$DIMLIM
 70
     0
  9
$DIMTIH
 70
     0
  9
$DIMTOH
 70
     0
  9
$DIMSE1
 70
     0
  9
$DIMSE2
 70
     0
  9
$DIMTAD
 70
     1
  9
$DIMZIN
 70
     8
  9
$DIMBLK
  1

  9
$DIMASO
 70
     1
  9
$DIMSHO
 70
     1
  9
$DIMPOST
  1

  9
$DIMAPOST
  1

  9
$DIMALT
 70
     0
  9
$DIMALTD
 70
     3
  9
$DIMALTF
 40
0.03937007874016
  9
$DIMLFAC
 40
1.0
  9
$DIMTOFL
 70
     1
  9
$DIMTVP
 40
0.0
  9
$DIMTIX
 70
     0
  9
$DIMSOXD
 70
     0
  9
$DIMSAH
 70
     0
  9
$DIMBLK1
  1

  9
$DIMBLK2
  1

  9
$DIMSTYLE
  2
ISO-25
  9
$DIMCLRD
 70
     0
  9
$DIMCLRE
 70
     0
  9
$DIMCLRT
 70
     0
  9
$DIMTFAC
 40
1.0
  9
$DIMGAP
 40
0.625
  9
$LUNITS
 70
     2
  9
$LUPREC
 70
     4
  9
$SKETCHINC
 40
1.0
  9
$FILLETRAD
 40
10.0
  9
$AUNITS
 70
     0
  9
$AUPREC
 70
     0
  9
$MENU
  1
.
  9
$ELEVATION
 40
0.0
  9
$PELEVATION
 40
0.0
  9
$THICKNESS
 40
0.0
  9
$LIMCHECK
 70
     0
  9
$BLIPMODE
 70
     0
  9
$CHAMFERA
 40
10.0
  9
$CHAMFERB
 40
10.0
  9
$SKPOLY
 70
     0
  9
$TDCREATE
 40
2455128.769670879
  9
$TDUPDATE
 40
2455128.9296835419
  9
$TDINDWG
 40
0.160012662
  9
$TDUSRTIMER
 40
0.160012662
  9
$USRTIMER
 70
     1
  9
$ANGBASE
 50
0.0
  9
$ANGDIR
 70
     0
  9
$PDMODE
 70
     0
  9
$PDSIZE
 40
0.0
  9
$PLINEWID
 40
0.0
  9
$COORDS
 70
     1
  9
$SPLFRAME
 70
     0
  9
$SPLINETYPE
 70
     6
  9
$SPLINESEGS
 70
     8
  9
$ATTDIA
 70
     1
  9
$ATTREQ
 70
     1
  9
$HANDLING
 70
-16383
  9
$HANDSEED
  5
194B
  9
$SURFTAB1
 70
     6
  9
$SURFTAB2
 70
     6
  9
$SURFTYPE
 70
     6
  9
$SURFU
 70
     6
  9
$SURFV
 70
     6
  9
$UCSNAME
  2

  9
$UCSORG
 10
0.0
 20
0.0
 30
0.0
  9
$UCSXDIR
 10
0.0
 20
-1.0
 30
0.0
  9
$UCSYDIR
 10
0.0
 20
0.0
 30
1.0
  9
$PUCSNAME
  2

  9
$PUCSORG
 10
0.0
 20
0.0
 30
0.0
  9
$PUCSXDIR
 10
1.0
 20
0.0
 30
0.0
  9
$PUCSYDIR
 10
0.0
 20
1.0
 30
0.0
  9
$USERI1
 70
     0
  9
$USERI2
 70
     0
  9
$USERI3
 70
     0
  9
$USERI4
 70
     0
  9
$USERI5
 70
     0
  9
$USERR1
 40
0.0
  9
$USERR2
 40
0.0
  9
$USERR3
 40
0.0
  9
$USERR4
 40
0.0
  9
$USERR5
 40
0.0
  9
$WORLDVIEW
 70
     1
  9
$SHADEDGE
 70
     3
  9
$SHADEDIF
 70
    70
  9
$TILEMODE
 70
     1
  9
$MAXACTVP
 70
    64
  9
$PLIMCHECK
 70
     0
  9
$PEXTMIN
 10
27.844751262664801
 20
20.161249995231621
 30
0.0
  9
$PEXTMAX
 10
250.60276136398309
 20
181.4512499570846
 30
0.0
  9
$PLIMMIN
 10
-3.757080078125
 20
-3.7570831775665279
  9
$PLIMMAX
 10
293.21124267578119
 20
206.21624445915219
  9
$UNITMODE
 70
     0
  9
$VISRETAIN
 70
     1
  9
$PLINEGEN
 70
     0
  9
$PSLTSCALE
 70
     1
  0
ENDSEC
  0
SECTION
  2
TABLES
  0
TABLE
  2
VPORT
 70
    75
  0
VPORT
  2
*ACTIVE
 70
     0
 10
0.0
 20
0.0
 11
1.0
 21
1.0
 12
-0.3792511852405802
 22
0.5905329499818725
 13
0.0
 23
0.0
 14
0.01
 24
0.01
 15
1.0
 25
1.0
 16
-1.0
 26
0.0
 36
0.0
 17
0.0
 27
0.0
 37
0.0
 40
7.1797642759736631
 41
1.767225325884543
 42
50.0
 43
0.0
 44
0.0
 50
0.0
 51
0.0
 71
     0
 72
   100
 73
     1
 74
     3
 75
     1
 76
     1
 77
     0
 78
     0
  0
ENDTAB
  0
TABLE
  2
LTYPE
 70
     1
  0
LTYPE
  2
CONTINUOUS
 70
     0
  3
Solid line
 72
    65
 73
     0
 40
0.0
  0
ENDTAB
  0
TABLE
  2
LAYER
 70
     9
  0
LAYER
  2
0
 70
     0
 62
     7
  6
CONTINUOUS
  0
LAYER
  2
DRAWING
 70
     0
 62
     9
  6
CONTINUOUS
  0
LAYER
  2
WHEELS
 70
     0
 62
     2
  6
CONTINUOUS
  0
LAYER
  2
BOGEY
 70
     0
 62
     5
  6
CONTINUOUS
  0
LAYER
  2
TRACKS
 70
     0
 62
     3
  6
CONTINUOUS
  0
LAYER
  2
MUDGUARDS
 70
     0
 62
     6
  6
CONTINUOUS
  0
LAYER
  2
GUN
 70
     0
 62
     1
  6
CONTINUOUS
  0
LAYER
  2
TURRET
 70
     0
 62
     2
  6
CONTINUOUS
  0
LAYER
  2
SLEEVE
 70
     0
 62
     5
  6
CONTINUOUS
  0
ENDTAB
  0
TABLE
  2
STYLE
 70
     1
  0
STYLE
  2
STANDARD
 70
     0
 40
0.0
 41
1.0
 50
0.0
 71
     0
 42
2.5
  3
txt
  4

  0
ENDTAB
  0
TABLE
  2
VIEW
 70
     0
  0
ENDTAB
  0
TABLE
  2
UCS
 70
     0
  0
ENDTAB
  0
TABLE
  2
APPID
 70
     1
  0
APPID
  2
ACAD
 70
     0
  0
ENDTAB
  0
TABLE
  2
DIMSTYLE
 70
     1
  0
DIMSTYLE
  2
ISO-25
 70
     0
  3

  4

  5

  6

  7

 40
1.0
 41
2.5
 42
0.625
 43
3.75
 44
1.25
 45
0.0
 46
0.0
 47
0.0
 48
0.0
140
2.5
141
2.5
142
0.0
143
0.03937007874016
144
1.0
145
0.0
146
1.0
147
0.625
 71
     0
 72
     0
 73
     0
 74
     0
 75
     0
 76
     0
 77
     1
 78
     8
170
     0
171
     3
172
     1
173
     0
174
     0
175
     0
176
     0
177
     0
178
     0
  0
ENDTAB
  0
ENDSEC
  0
SECTION
  2
BLOCKS
  0
BLOCK
  8
0
  2
$MODEL_SPACE
 70
     0
 10
0.0
 20
0.0
 30
0.0
  3
$MODEL_SPACE
  1

  0
ENDBLK
  5
21
  8
0
  0
BLOCK
 67
     1
  8
0
  2
$PAPER_SPACE
 70
     0
 10
0.0
 20
0.0
 30
0.0
  3
$PAPER_SPACE
  1

  0
ENDBLK
  5
1D
 67
     1
  8
0
  0
ENDSEC
  0
SECTION
  2
ENTITIES
  0
3DFACE
  5
DE7
  8
TURRET
 10
0.8599999999999999
 20
-0.4799999999999998
 30
1.2599999999999989
 11
0.8599999999999999
 21
-0.5700000000000001
 31
0.36
 12
0.88
 22
-0.5700000000000001
 32
0.36
 13
0.88
 23
-0.4799999999999998
 33
1.2799999999999989
  0
3DFACE
  5
DE8
  8
TURRET
 10
0.88
 20
-0.4799999999999998
 30
1.2799999999999989
 11
0.88
 21
-0.5700000000000001
 31
0.36
 12
0.88
 22
0.3900000000000001
 32
0.36
 13
0.88
 23
-0.1599999999999999
 33
1.2799999999999989
  0
3DFACE
  5
DE9
  8
TURRET
 10
0.8599999999999999
 20
0.3900000000000001
 30
0.36
 11
0.8599999999999999
 21
-0.5700000000000001
 31
0.36
 12
0.8599999999999999
 22
-0.4799999999999998
 32
1.2599999999999989
 13
0.8599999999999999
 23
-0.1599999999999999
 33
1.2599999999999989
  0
3DFACE
  5
DEA
  8
TURRET
 10
-0.88
 20
-0.1599999999999999
 30
1.2799999999999989
 11
-0.88
 21
-0.4799999999999998
 31
1.2799999999999989
 12
0.88
 22
-0.4799999999999998
 32
1.2799999999999989
 13
0.88
 23
-0.1599999999999999
 33
1.2799999999999989
  0
3DFACE
  5
DEC
  8
TURRET
 10
0.88
 20
0.3900000000000001
 30
0.36
 11
0.88
 21
-0.5700000000000001
 31
0.36
 12
0.8599999999999999
 22
-0.5700000000000001
 32
0.36
 13
0.8599999999999999
 23
0.3900000000000001
 33
0.36
  0
3DFACE
  5
DF3
  8
TURRET
 10
-0.88
 20
-0.4799999999999998
 30
1.2799999999999989
 11
-0.88
 21
-0.5700000000000001
 31
0.36
 12
-0.8599999999999999
 22
-0.5700000000000001
 32
0.36
 13
-0.8599999999999999
 23
-0.4799999999999998
 33
1.2599999999999989
  0
3DFACE
  5
DF4
  8
TURRET
 10
-0.8599999999999999
 20
-0.4799999999999998
 30
1.2599999999999989
 11
-0.8599999999999999
 21
-0.5700000000000001
 31
0.36
 12
-0.8599999999999999
 22
0.3900000000000001
 32
0.36
 13
-0.8599999999999999
 23
-0.1599999999999999
 33
1.2599999999999989
  0
3DFACE
  5
DF5
  8
TURRET
 10
-0.88
 20
0.3900000000000001
 30
0.36
 11
-0.88
 21
-0.5700000000000001
 31
0.36
 12
-0.88
 22
-0.4799999999999998
 32
1.2799999999999989
 13
-0.88
 23
-0.1599999999999999
 33
1.2799999999999989
  0
3DFACE
  5
DF6
  8
TURRET
 10
-0.8599999999999999
 20
0.3900000000000001
 30
0.36
 11
-0.8599999999999999
 21
-0.5700000000000001
 31
0.36
 12
-0.88
 22
-0.5700000000000001
 32
0.36
 13
-0.88
 23
0.3900000000000001
 33
0.36
  0
3DFACE
  5
DF9
  8
TURRET
 10
-0.5700000000000001
 20
0.73
 30
0.4200000000000001
 11
-0.2
 21
0.73
 31
0.4200000000000001
 12
-0.2
 22
0.2
 32
1.2599999999999989
 13
-0.5700000000000001
 23
0.2
 33
1.2599999999999989
  0
3DFACE
  5
DFA
  8
TURRET
 10
-0.2
 20
0.22
 30
1.2799999999999989
 11
-0.2
 21
0.75
 31
0.4200000000000001
 12
-0.5700000000000001
 22
0.75
 32
0.4200000000000001
 13
-0.5700000000000001
 23
0.22
 33
1.2799999999999989
  0
3DFACE
  5
DFC
  8
TURRET
 10
-0.5700000000000001
 20
0.75
 30
0.4200000000000001
 11
0.5700000000000001
 21
0.75
 31
0.4200000000000001
 12
0.5700000000000001
 22
0.73
 32
0.4200000000000001
 13
-0.5700000000000001
 23
0.73
 33
0.4200000000000001
  0
3DFACE
  5
DFD
  8
TURRET
 10
-0.2
 20
0.2
 30
1.2599999999999989
 11
-0.2
 21
0.2757142857142856
 31
1.1399999999999999
 12
0.2
 22
0.2757142857142856
 32
1.1399999999999999
 13
0.2
 23
0.2
 33
1.2599999999999989
  0
3DFACE
  5
E01
  8
TURRET
 10
-0.8599999999999999
 20
0.3900000000000001
 30
0.36
 11
-0.5700000000000001
 21
0.73
 31
0.4200000000000001
 12
-0.5700000000000001
 22
0.2
 32
1.2599999999999989
 13
-0.8599999999999999
 23
-0.1599999999999999
 33
1.2599999999999989
  0
3DFACE
  5
E03
  8
TURRET
 10
-0.5700000000000001
 20
0.22
 30
1.2799999999999989
 11
-0.5700000000000001
 21
0.75
 31
0.4200000000000001
 12
-0.88
 22
0.3900000000000001
 32
0.36
 13
-0.88
 23
-0.1599999999999999
 33
1.2799999999999989
  0
3DFACE
  5
E05
  8
TURRET
 10
-0.88
 20
0.3900000000000001
 30
0.36
 11
-0.5700000000000001
 21
0.75
 31
0.4200000000000001
 12
-0.5700000000000001
 22
0.73
 32
0.4200000000000001
 13
-0.8599999999999999
 23
0.3900000000000001
 33
0.36
  0
3DFACE
  5
E08
  8
TURRET
 10
0.88
 20
-0.1599999999999999
 30
1.2799999999999989
 11
0.88
 21
0.3900000000000001
 31
0.36
 12
0.5700000000000001
 22
0.75
 32
0.4200000000000001
 13
0.5700000000000001
 23
0.22
 33
1.2799999999999989
  0
3DFACE
  5
E0B
  8
TURRET
 10
0.5700000000000001
 20
0.73
 30
0.4200000000000001
 11
0.8599999999999999
 21
0.3900000000000001
 31
0.36
 12
0.8599999999999999
 22
-0.1599999999999999
 32
1.2599999999999989
 13
0.5700000000000001
 23
0.2
 33
1.2599999999999989
  0
3DFACE
  5
E0C
  8
TURRET
 10
0.5700000000000001
 20
0.75
 30
0.4200000000000001
 11
0.88
 21
0.3900000000000001
 31
0.36
 12
0.8599999999999999
 22
0.3900000000000001
 32
0.36
 13
0.5700000000000001
 23
0.73
 33
0.4200000000000001
  0
3DFACE
  5
E11
  8
TURRET
 10
0.5700000000000001
 20
0.22
 30
1.2799999999999989
 11
0.5700000000000001
 21
0.75
 31
0.4200000000000001
 12
0.2
 22
0.75
 32
0.4200000000000001
 13
0.2
 23
0.22
 33
1.2799999999999989
  0
3DFACE
  5
E12
  8
TURRET
 10
0.2
 20
0.73
 30
0.4200000000000001
 11
0.5700000000000001
 21
0.73
 31
0.4200000000000001
 12
0.5700000000000001
 22
0.2
 32
1.2599999999999989
 13
0.2
 23
0.2
 33
1.2599999999999989
  0
3DFACE
  5
E15
  8
TURRET
 10
0.2
 20
0.6822093023255816
 30
0.5299999999999999
 11
0.2
 21
0.75
 31
0.4200000000000001
 12
-0.2
 22
0.75
 32
0.4200000000000001
 13
-0.2
 23
0.6822093023255816
 33
0.5299999999999999
  0
3DFACE
  5
E1F
  8
TURRET
 10
-0.2
 20
0.6605952380952384
 30
0.5299999999999999
 11
-0.2
 21
0.73
 31
0.4200000000000001
 12
0.2
 22
0.73
 32
0.4200000000000001
 13
0.2
 23
0.6605952380952384
 33
0.5299999999999999
  0
3DFACE
  5
E20
  8
TURRET
 10
0.2
 20
0.22
 30
1.2799999999999989
 11
0.2
 21
0.3062790697674418
 31
1.1399999999999999
 12
-0.2
 22
0.3062790697674418
 32
1.1399999999999999
 13
-0.2
 23
0.22
 33
1.2799999999999989
  0
3DFACE
  5
E21
  8
TURRET
 10
0.2
 20
0.3062790697674418
 30
1.1399999999999999
 11
0.2
 21
0.2757142857142856
 31
1.1399999999999999
 12
-0.2
 22
0.2757142857142856
 32
1.1399999999999999
 13
-0.2
 23
0.3062790697674418
 33
1.1399999999999999
  0
3DFACE
  5
E22
  8
TURRET
 10
0.2
 20
0.6605952380952384
 30
0.5299999999999999
 11
0.2
 21
0.6822093023255816
 31
0.5299999999999999
 12
-0.2
 22
0.6822093023255816
 32
0.5299999999999999
 13
-0.2
 23
0.6605952380952384
 33
0.5299999999999999
  0
3DFACE
  5
E26
  8
TURRET
 10
-0.5700000000000001
 20
0.22
 30
1.2799999999999989
 11
-0.88
 21
-0.1599999999999999
 31
1.2799999999999989
 12
0.88
 22
-0.1599999999999999
 32
1.2799999999999989
 13
0.5700000000000001
 23
0.22
 33
1.2799999999999989
  0
3DFACE
  5
E27
  8
TURRET
 10
0.8599999999999999
 20
-0.4799999999999998
 30
1.2599999999999989
 11
-0.8599999999999999
 21
-0.4799999999999998
 31
1.2599999999999989
 12
-0.8599999999999999
 22
-0.1599999999999999
 32
1.2599999999999989
 13
0.8599999999999999
 23
-0.1599999999999999
 33
1.2599999999999989
  0
3DFACE
  5
E28
  8
TURRET
 10
0.8599999999999999
 20
-0.1599999999999999
 30
1.2599999999999989
 11
-0.8599999999999999
 21
-0.1599999999999999
 31
1.2599999999999989
 12
-0.5700000000000001
 22
0.2
 32
1.2599999999999989
 13
0.5700000000000001
 23
0.2
 33
1.2599999999999989
  0
3DFACE
  5
E29
  8
TURRET
 10
-0.88
 20
-0.4799999999999998
 30
1.2799999999999989
 11
-0.8599999999999999
 21
-0.4799999999999998
 31
1.2599999999999989
 12
0.8599999999999999
 22
-0.4799999999999998
 32
1.2599999999999989
 13
0.88
 23
-0.4799999999999998
 33
1.2799999999999989
  0
3DFACE
  5
120F
  8
TURRET
 10
-0.25
 20
-0.5900000000000001
 30
0.4800000000000001
 11
-0.25
 21
-0.5900000000000001
 31
0.4200000000000001
 12
-0.2
 22
-0.5900000000000001
 32
0.4200000000000001
 13
-0.2
 23
-0.5900000000000001
 33
0.4800000000000001
  0
3DFACE
  5
1210
  8
TURRET
 10
-0.2
 20
-0.5900000000000001
 30
0.85
 11
-0.2
 21
-0.5900000000000001
 31
0.4200000000000001
 12
-0.2
 22
0.1400000000000008
 32
0.4200000000000001
 13
-0.2
 23
0.1400000000000008
 33
0.85
  0
3DFACE
  5
1211
  8
TURRET
 10
-0.25
 20
0.1400000000000008
 30
0.4200000000000001
 11
-0.25
 21
-0.5900000000000001
 31
0.4200000000000001
 12
-0.25
 22
-0.5900000000000001
 32
0.85
 13
-0.25
 23
0.1400000000000008
 33
0.85
  0
3DFACE
  5
1212
  8
TURRET
 10
-0.25
 20
-0.0600000000000001
 30
0.85
 11
-0.25
 21
-0.5900000000000001
 31
0.85
 12
-0.2
 22
-0.5900000000000001
 32
0.85
 13
-0.2
 23
-0.0600000000000001
 33
0.85
  0
3DFACE
  5
1214
  8
TURRET
 10
-0.2
 20
-0.1399999999999999
 30
0.4200000000000001
 11
-0.2
 21
-0.5900000000000001
 31
0.4200000000000001
 12
-0.25
 22
-0.5900000000000001
 32
0.4200000000000001
 13
-0.25
 23
-0.1399999999999999
 33
0.4200000000000001
  0
3DFACE
  5
1216
  8
TURRET
 10
-0.25
 20
-0.5899999999999998
 30
0.4800000000000001
 11
-0.25
 21
-0.7100000000000002
 31
0.6
 12
-0.25
 22
-0.7100000000000002
 32
0.7599999999999999
 13
-0.25
 23
-0.5899999999999998
 33
0.85
  0
3DFACE
  5
1217
  8
TURRET
 10
-0.25
 20
-0.7100000000000002
 30
0.7599999999999999
 11
-0.25
 21
-0.7100000000000002
 31
0.6
 12
-0.2
 22
-0.7100000000000002
 32
0.6
 13
-0.2
 23
-0.7100000000000002
 33
0.7599999999999999
  0
3DFACE
  5
1218
  8
TURRET
 10
-0.2
 20
-0.7100000000000002
 30
0.7599999999999999
 11
-0.2
 21
-0.7100000000000002
 31
0.6
 12
-0.2
 22
-0.5899999999999998
 32
0.4800000000000001
 13
-0.2
 23
-0.5899999999999998
 33
0.85
  0
3DFACE
  5
121A
  8
TURRET
 10
-0.2
 20
-0.5899999999999998
 30
0.4800000000000001
 11
-0.2
 21
-0.7100000000000002
 31
0.6
 12
-0.25
 22
-0.7100000000000002
 32
0.6
 13
-0.25
 23
-0.5899999999999998
 33
0.4800000000000001
  0
3DFACE
  5
121B
  8
TURRET
 10
-0.25
 20
-0.5899999999999998
 30
0.85
 11
-0.25
 21
-0.7100000000000002
 31
0.7599999999999999
 12
-0.2
 22
-0.7100000000000002
 32
0.7599999999999999
 13
-0.2
 23
-0.5899999999999998
 33
0.85
  0
3DFACE
  5
121D
  8
TURRET
 10
0.2
 20
0.1400000000000006
 30
0.4200000000000001
 11
0.2
 21
-0.1399999999999999
 31
0.4200000000000001
 12
0.2
 22
-0.0600000000000001
 32
0.85
 13
0.2
 23
0.1400000000000006
 33
0.85
  0
3DFACE
  5
121E
  8
TURRET
 10
0.2
 20
-0.0600000000000001
 30
0.85
 11
0.2
 21
-0.1399999999999999
 31
0.4200000000000001
 12
0.25
 22
-0.1399999999999999
 32
0.4200000000000001
 13
0.25
 23
-0.0600000000000001
 33
0.85
  0
3DFACE
  5
121F
  8
TURRET
 10
0.25
 20
-0.0600000000000001
 30
0.85
 11
0.25
 21
-0.1399999999999999
 31
0.4200000000000001
 12
0.25
 22
0.1400000000000006
 32
0.4200000000000001
 13
0.25
 23
0.1400000000000006
 33
0.85
  0
3DFACE
  5
1224
  8
TURRET
 10
-0.25
 20
0.1400000000000008
 30
0.31
 11
-0.25
 21
-0.1399999999999999
 31
0.31
 12
-0.25
 22
-0.1399999999999999
 32
0.4200000000000001
 13
-0.25
 23
0.1400000000000008
 33
0.4200000000000001
  0
3DFACE
  5
1225
  8
TURRET
 10
-0.25
 20
-0.1399999999999999
 30
0.4200000000000001
 11
-0.25
 21
-0.1399999999999999
 31
0.31
 12
-0.2
 22
-0.1399999999999999
 32
0.36
 13
-0.2
 23
-0.1399999999999999
 33
0.4200000000000001
  0
3DFACE
  5
1226
  8
TURRET
 10
-0.2
 20
-0.1399999999999999
 30
0.4200000000000001
 11
-0.2
 21
-0.1399999999999999
 31
0.36
 12
-0.2
 22
0.1400000000000008
 32
0.36
 13
-0.2
 23
0.1400000000000008
 33
0.4200000000000001
  0
3DFACE
  5
1227
  8
TURRET
 10
-0.2
 20
0.1400000000000008
 30
0.8499999999999984
 11
-0.2
 21
0.1400000000000008
 31
0.36
 12
-0.25
 22
0.1400000000000008
 32
0.31
 13
-0.25
 23
0.1400000000000001
 33
0.85
  0
3DFACE
  5
122B
  8
TURRET
 10
-0.25
 20
-0.1399999999999999
 30
0.31
 11
0.25
 21
-0.1399999999999999
 31
0.31
 12
0.2
 22
-0.1399999999999999
 32
0.36
 13
-0.2
 23
-0.1399999999999999
 33
0.36
  0
3DFACE
  5
122C
  8
TURRET
 10
-0.2
 20
-0.1399999999999999
 30
0.36
 11
0.2
 21
-0.1399999999999999
 31
0.36
 12
0.2
 22
0.1400000000000008
 32
0.36
 13
-0.2
 23
0.1400000000000008
 33
0.36
  0
3DFACE
  5
122D
  8
TURRET
 10
-0.2
 20
0.1400000000000008
 30
0.36
 11
0.2
 21
0.1400000000000008
 31
0.36
 12
0.25
 22
0.1400000000000008
 32
0.31
 13
-0.25
 23
0.1400000000000008
 33
0.31
  0
3DFACE
  5
122E
  8
TURRET
 10
0.25
 20
0.1400000000000008
 30
0.31
 11
0.25
 21
-0.1399999999999999
 31
0.31
 12
-0.25
 22
-0.1399999999999999
 32
0.31
 13
-0.25
 23
0.1400000000000008
 33
0.31
  0
3DFACE
  5
1232
  8
TURRET
 10
0.2
 20
0.1400000000000008
 30
0.36
 11
0.2
 21
-0.1399999999999999
 31
0.36
 12
0.2
 22
-0.1399999999999999
 32
0.4200000000000001
 13
0.2
 23
0.1400000000000008
 33
0.4200000000000001
  0
3DFACE
  5
1233
  8
TURRET
 10
0.2
 20
-0.1399999999999999
 30
0.4200000000000001
 11
0.2
 21
-0.1399999999999999
 31
0.36
 12
0.25
 22
-0.1399999999999999
 32
0.31
 13
0.25
 23
-0.1399999999999999
 33
0.4200000000000001
  0
3DFACE
  5
1234
  8
TURRET
 10
0.25
 20
-0.1399999999999999
 30
0.4200000000000001
 11
0.25
 21
-0.1399999999999999
 31
0.31
 12
0.25
 22
0.1400000000000008
 32
0.31
 13
0.25
 23
0.1400000000000008
 33
0.4200000000000001
  0
3DFACE
  5
1235
  8
TURRET
 10
0.25
 20
0.1400000000000001
 30
0.85
 11
0.25
 21
0.1400000000000008
 31
0.31
 12
0.2
 22
0.1400000000000008
 32
0.36
 13
0.2
 23
0.1400000000000006
 33
0.85
  0
3DFACE
  5
1239
  8
TURRET
 10
0.25
 20
-0.0600000000000001
 30
0.85
 11
0.25
 21
-0.0307106781186548
 31
0.9207106781186547
 12
0.2
 22
-0.0307106781186548
 32
0.9207106781186547
 13
0.2
 23
-0.0600000000000001
 33
0.85
  0
3DFACE
  5
123A
  8
TURRET
 10
0.25
 20
-0.0307106781186548
 30
0.9207106781186547
 11
0.25
 21
0.04
 31
0.95
 12
0.2
 22
0.04
 32
0.95
 13
0.2
 23
-0.0307106781186548
 33
0.9207106781186547
  0
3DFACE
  5
123B
  8
TURRET
 10
0.25
 20
0.04
 30
0.95
 11
0.25
 21
0.1107106781186549
 31
0.9207106781186547
 12
0.2
 22
0.1107106781186549
 32
0.9207106781186547
 13
0.2
 23
0.04
 33
0.95
  0
3DFACE
  5
123C
  8
TURRET
 10
0.25
 20
0.1107106781186549
 30
0.9207106781186547
 11
0.25
 21
0.1400000000000001
 31
0.85
 12
0.2
 22
0.1400000000000001
 32
0.85
 13
0.2
 23
0.1107106781186549
 33
0.9207106781186547
  0
3DFACE
  5
1241
  8
TURRET
 10
-0.2
 20
-0.0600000000000001
 30
0.85
 11
-0.2
 21
-0.0307106781186548
 31
0.9207106781186547
 12
-0.25
 22
-0.0307106781186548
 32
0.9207106781186547
 13
-0.25
 23
-0.0600000000000001
 33
0.85
  0
3DFACE
  5
1242
  8
TURRET
 10
-0.2
 20
-0.0307106781186548
 30
0.9207106781186547
 11
-0.2
 21
0.04
 31
0.95
 12
-0.25
 22
0.04
 32
0.95
 13
-0.25
 23
-0.0307106781186548
 33
0.9207106781186547
  0
3DFACE
  5
1243
  8
TURRET
 10
-0.2
 20
0.04
 30
0.95
 11
-0.2
 21
0.1107106781186549
 31
0.9207106781186547
 12
-0.25
 22
0.1107106781186549
 32
0.9207106781186547
 13
-0.25
 23
0.04
 33
0.95
  0
3DFACE
  5
1244
  8
TURRET
 10
-0.2
 20
0.1107106781186549
 30
0.9207106781186547
 11
-0.2
 21
0.1400000000000001
 31
0.85
 12
-0.25
 22
0.1400000000000001
 32
0.85
 13
-0.25
 23
0.1107106781186549
 33
0.9207106781186547
  0
3DFACE
  5
1249
  8
TURRET
 10
-0.25
 20
0.1107106781186549
 30
0.9207106781186547
 11
-0.25
 21
0.1400000000000001
 31
0.85
 12
-0.25
 22
-0.0600000000000001
 32
0.85
 13
-0.25
 23
-0.0307106781186548
 33
0.9207106781186547
  0
3DFACE
  5
124A
  8
TURRET
 10
-0.25
 20
0.04
 30
0.95
 11
-0.25
 21
0.1107106781186549
 31
0.9207106781186547
 12
-0.25
 22
-0.0307106781186548
 32
0.9207106781186547
 13
-0.25
 23
0.04
 33
0.95
  0
3DFACE
  5
124B
  8
TURRET
 10
0.25
 20
-0.0307106781186548
 30
0.9207106781186547
 11
0.25
 21
-0.0600000000000001
 31
0.85
 12
0.25
 22
0.1400000000000001
 32
0.85
 13
0.25
 23
0.1107106781186549
 33
0.9207106781186547
  0
3DFACE
  5
124C
  8
TURRET
 10
0.25
 20
0.04
 30
0.95
 11
0.25
 21
-0.0307106781186548
 31
0.9207106781186547
 12
0.25
 22
0.1107106781186544
 32
0.9207106781186547
 13
0.25
 23
0.04
 33
0.95
  0
3DFACE
  5
124D
  8
TURRET
 10
0.2
 20
0.04
 30
0.95
 11
0.2
 21
0.1107106781186549
 31
0.9207106781186547
 12
0.2
 22
-0.0307106781186548
 32
0.9207106781186547
 13
0.2
 23
0.04
 33
0.95
  0
3DFACE
  5
124E
  8
TURRET
 10
0.2
 20
0.1107106781186549
 30
0.9207106781186547
 11
0.2
 21
0.1400000000000001
 31
0.85
 12
0.2
 22
-0.0600000000000001
 32
0.85
 13
0.2
 23
-0.0307106781186548
 33
0.9207106781186547
  0
3DFACE
  5
124F
  8
TURRET
 10
-0.2
 20
0.04
 30
0.95
 11
-0.2
 21
-0.0307106781186548
 31
0.9207106781186547
 12
-0.2
 22
0.1107106781186544
 32
0.9207106781186547
 13
-0.2
 23
0.04
 33
0.95
  0
3DFACE
  5
1250
  8
TURRET
 10
-0.2
 20
-0.0307106781186548
 30
0.9207106781186547
 11
-0.2
 21
-0.0600000000000001
 31
0.85
 12
-0.2
 22
0.1400000000000001
 32
0.85
 13
-0.2
 23
0.1107106781186549
 33
0.9207106781186547
  0
3DFACE
  5
1266
  8
TURRET
 10
0.13
 20
0.0
 30
0.31
 11
0.0919238815542512
 21
-0.0919238815542512
 31
0.31
 12
0.1131370849898476
 22
-0.1131370849898476
 32
0.0
 13
0.16
 23
0.0
 33
0.0
  0
3DFACE
  5
1267
  8
TURRET
 10
0.0919238815542512
 20
-0.0919238815542512
 30
0.31
 11
0.0
 21
-0.1300000000000001
 31
0.31
 12
0.0
 22
-0.1599999999999999
 32
0.0
 13
0.1131370849898476
 23
-0.1131370849898476
 33
0.0
  0
3DFACE
  5
1268
  8
TURRET
 10
0.0
 20
-0.1300000000000001
 30
0.31
 11
-0.0919238815542512
 21
-0.0919238815542512
 31
0.31
 12
-0.1131370849898476
 22
-0.1131370849898476
 32
0.0
 13
0.0
 23
-0.1599999999999999
 33
0.0
  0
3DFACE
  5
1269
  8
TURRET
 10
-0.0919238815542512
 20
-0.0919238815542512
 30
0.31
 11
-0.13
 21
0.0
 31
0.31
 12
-0.16
 22
0.0
 32
0.0
 13
-0.1131370849898476
 23
-0.1131370849898476
 33
0.0
  0
3DFACE
  5
126A
  8
TURRET
 10
-0.13
 20
0.0
 30
0.31
 11
-0.0919238815542512
 21
0.0919238815542512
 31
0.31
 12
-0.1131370849898476
 22
0.1131370849898476
 32
0.0
 13
-0.16
 23
0.0
 33
0.0
  0
3DFACE
  5
126B
  8
TURRET
 10
-0.0919238815542512
 20
0.0919238815542512
 30
0.31
 11
0.0
 21
0.1300000000000001
 31
0.31
 12
0.0
 22
0.1599999999999999
 32
0.0
 13
-0.1131370849898476
 23
0.1131370849898476
 33
0.0
  0
3DFACE
  5
126C
  8
TURRET
 10
0.0
 20
0.1300000000000001
 30
0.31
 11
0.0919238815542512
 21
0.0919238815542512
 31
0.31
 12
0.1131370849898476
 22
0.1131370849898476
 32
0.0
 13
0.0
 23
0.1599999999999999
 33
0.0
  0
3DFACE
  5
126D
  8
TURRET
 10
0.0919238815542512
 20
0.0919238815542512
 30
0.31
 11
0.13
 21
0.0
 31
0.31
 12
0.16
 22
0.0
 32
0.0
 13
0.1131370849898476
 23
0.1131370849898476
 33
0.0
  0
3DFACE
  5
126E
  8
TURRET
 10
-0.27
 20
-0.45
 30
0.27
 11
-0.27
 21
-0.4999999999999999
 31
0.65
 12
-0.6200000000000001
 22
-0.4999999999999999
 32
0.65
 13
-0.6200000000000001
 23
-0.45
 33
0.27
  0
3DFACE
  5
126F
  8
TURRET
 10
-0.6200000000000001
 20
-0.45
 30
0.27
 11
-0.6200000000000001
 21
-0.4999999999999999
 31
0.65
 12
-0.27
 22
-0.4999999999999999
 32
0.65
 13
-0.27
 23
-0.45
 33
0.27
  0
3DFACE
  5
1273
  8
TURRET
 10
-0.6200000000000001
 20
-0.4500000000000009
 30
0.27
 11
-0.6200000000000001
 21
-0.4500000000000009
 31
0.1799999999999999
 12
-0.27
 22
-0.4500000000000009
 32
0.1799999999999999
 13
-0.27
 23
-0.4500000000000009
 33
0.27
  0
3DFACE
  5
1274
  8
TURRET
 10
-0.27
 20
-0.4500000000000009
 30
0.27
 11
-0.27
 21
-0.4500000000000009
 31
0.1799999999999999
 12
-0.27
 22
-0.2299999999999998
 32
0.1799999999999999
 13
-0.27
 23
-0.2299999999999998
 33
0.27
  0
3DFACE
  5
1275
  8
TURRET
 10
-0.6200000000000001
 20
-0.2299999999999998
 30
0.1799999999999999
 11
-0.6200000000000001
 21
-0.4500000000000009
 31
0.1799999999999999
 12
-0.6200000000000001
 22
-0.4500000000000009
 32
0.27
 13
-0.6200000000000001
 23
-0.2299999999999998
 33
0.27
  0
3DFACE
  5
1276
  8
TURRET
 10
-0.27
 20
-0.2299999999999998
 30
0.27
 11
-0.27
 21
-0.2299999999999998
 31
0.1799999999999999
 12
-0.6200000000000001
 22
-0.2299999999999998
 32
0.1799999999999999
 13
-0.6200000000000001
 23
-0.2299999999999998
 33
0.27
  0
3DFACE
  5
1277
  8
TURRET
 10
-0.27
 20
-0.2299999999999998
 30
0.1799999999999999
 11
-0.27
 21
-0.4500000000000009
 31
0.1799999999999999
 12
-0.6200000000000001
 22
-0.4500000000000009
 32
0.1799999999999999
 13
-0.6200000000000001
 23
-0.2299999999999998
 33
0.1799999999999999
  0
3DFACE
  5
1278
  8
TURRET
 10
-0.6200000000000001
 20
-0.2299999999999998
 30
0.27
 11
-0.6200000000000001
 21
-0.4500000000000009
 31
0.27
 12
-0.27
 22
-0.4500000000000009
 32
0.27
 13
-0.27
 23
-0.2299999999999998
 33
0.27
  0
3DFACE
  5
127A
  8
TURRET
 10
0.27
 20
-0.2299999999999998
 30
0.27
 11
0.27
 21
-0.4500000000000009
 31
0.27
 12
0.6200000000000001
 22
-0.4500000000000009
 32
0.27
 13
0.6200000000000001
 23
-0.2299999999999998
 33
0.27
  0
3DFACE
  5
127B
  8
TURRET
 10
0.6200000000000001
 20
-0.2299999999999998
 30
0.1799999999999999
 11
0.6200000000000001
 21
-0.4500000000000009
 31
0.1799999999999999
 12
0.27
 22
-0.4500000000000009
 32
0.1799999999999999
 13
0.27
 23
-0.2299999999999998
 33
0.1799999999999999
  0
3DFACE
  5
127C
  8
TURRET
 10
0.6200000000000001
 20
-0.2299999999999998
 30
0.27
 11
0.6200000000000001
 21
-0.2299999999999998
 31
0.1799999999999999
 12
0.27
 22
-0.2299999999999998
 32
0.1799999999999999
 13
0.27
 23
-0.2299999999999998
 33
0.27
  0
3DFACE
  5
127D
  8
TURRET
 10
0.27
 20
-0.4500000000000009
 30
0.27
 11
0.27
 21
-0.4500000000000009
 31
0.1799999999999999
 12
0.6200000000000001
 22
-0.4500000000000009
 32
0.1799999999999999
 13
0.6200000000000001
 23
-0.4500000000000009
 33
0.27
  0
3DFACE
  5
127E
  8
TURRET
 10
0.6200000000000001
 20
-0.4500000000000009
 30
0.27
 11
0.6200000000000001
 21
-0.4500000000000009
 31
0.1799999999999999
 12
0.6200000000000001
 22
-0.2299999999999998
 32
0.1799999999999999
 13
0.6200000000000001
 23
-0.2299999999999998
 33
0.27
  0
3DFACE
  5
127F
  8
TURRET
 10
0.27
 20
-0.2299999999999998
 30
0.1799999999999999
 11
0.27
 21
-0.4500000000000009
 31
0.1799999999999999
 12
0.27
 22
-0.4500000000000009
 32
0.27
 13
0.27
 23
-0.2299999999999998
 33
0.27
  0
3DFACE
  5
1280
  8
TURRET
 10
0.6200000000000001
 20
-0.45
 30
0.27
 11
0.6200000000000001
 21
-0.4999999999999999
 31
0.65
 12
0.2699999999999999
 22
-0.4999999999999999
 32
0.65
 13
0.2699999999999999
 23
-0.45
 33
0.27
  0
3DFACE
  5
1281
  8
TURRET
 10
0.2699999999999999
 20
-0.45
 30
0.27
 11
0.2699999999999999
 21
-0.4999999999999999
 31
0.65
 12
0.6200000000000001
 22
-0.4999999999999999
 32
0.65
 13
0.6200000000000001
 23
-0.45
 33
0.27
  0
3DFACE
  5
128F
  8
TURRET
 10
0.27
 20
-0.3
 30
0.23
 11
0.27
 21
-0.28
 31
0.25
 12
-0.27
 22
-0.28
 32
0.25
 13
-0.27
 23
-0.3
 33
0.23
  0
3DFACE
  5
1290
  8
TURRET
 10
0.27
 20
-0.28
 30
0.25
 11
0.27
 21
-0.26
 31
0.23
 12
-0.27
 22
-0.26
 32
0.23
 13
-0.27
 23
-0.28
 33
0.25
  0
3DFACE
  5
1291
  8
TURRET
 10
0.27
 20
-0.26
 30
0.23
 11
0.27
 21
-0.28
 31
0.21
 12
-0.27
 22
-0.28
 32
0.21
 13
-0.27
 23
-0.26
 33
0.23
  0
3DFACE
  5
1292
  8
TURRET
 10
0.27
 20
-0.28
 30
0.21
 11
0.27
 21
-0.3
 31
0.23
 12
-0.27
 22
-0.3
 32
0.23
 13
-0.27
 23
-0.28
 33
0.21
  0
3DFACE
  5
192B
  8
TURRET
 10
-0.8100000000000001
 20
-0.3600000000000001
 30
1.5900000000000001
 11
-0.8200000000000001
 21
-0.3500000000000003
 31
1.5900000000000001
 12
-0.8200000000000001
 22
-0.3600000000000001
 32
2.5899999999999999
 13
-0.8200000000000001
 23
-0.3600000000000001
 33
2.5899999999999999
  0
3DFACE
  5
192C
  8
TURRET
 10
-0.8200000000000001
 20
-0.3500000000000003
 30
1.5900000000000001
 11
-0.83
 21
-0.3600000000000001
 31
1.5900000000000001
 12
-0.8200000000000001
 22
-0.3600000000000001
 32
2.5899999999999999
 13
-0.8200000000000001
 23
-0.3600000000000001
 33
2.5899999999999999
  0
3DFACE
  5
192D
  8
TURRET
 10
-0.83
 20
-0.3600000000000001
 30
1.5900000000000001
 11
-0.8200000000000001
 21
-0.3699999999999999
 31
1.5900000000000001
 12
-0.8200000000000001
 22
-0.3600000000000001
 32
2.5899999999999999
 13
-0.8200000000000001
 23
-0.3600000000000001
 33
2.5899999999999999
  0
3DFACE
  5
192E
  8
TURRET
 10
-0.8200000000000001
 20
-0.3699999999999999
 30
1.5900000000000001
 11
-0.8100000000000001
 21
-0.3600000000000001
 31
1.5900000000000001
 12
-0.8200000000000001
 22
-0.3600000000000001
 32
2.5899999999999999
 13
-0.8200000000000001
 23
-0.3600000000000001
 33
2.5899999999999999
  0
3DFACE
  5
192F
  8
TURRET
 10
-0.7900000000000002
 20
-0.3600000000000001
 30
1.4599999999999991
 11
-0.8200000000000001
 21
-0.3300000000000003
 31
1.4599999999999991
 12
-0.8200000000000001
 22
-0.3500000000000003
 32
1.5900000000000001
 13
-0.8100000000000001
 23
-0.3600000000000001
 33
1.5900000000000001
  0
3DFACE
  5
1930
  8
TURRET
 10
-0.8200000000000001
 20
-0.3300000000000003
 30
1.4599999999999991
 11
-0.85
 21
-0.3600000000000001
 31
1.4599999999999991
 12
-0.83
 22
-0.3600000000000001
 32
1.5900000000000001
 13
-0.8200000000000001
 23
-0.3500000000000003
 33
1.5900000000000001
  0
3DFACE
  5
1931
  8
TURRET
 10
-0.85
 20
-0.3600000000000001
 30
1.4599999999999991
 11
-0.8200000000000001
 21
-0.3899999999999999
 31
1.4599999999999991
 12
-0.8200000000000001
 22
-0.3699999999999999
 32
1.5900000000000001
 13
-0.83
 23
-0.3600000000000001
 33
1.5900000000000001
  0
3DFACE
  5
1932
  8
TURRET
 10
-0.8200000000000001
 20
-0.3899999999999999
 30
1.4599999999999991
 11
-0.7900000000000002
 21
-0.3600000000000001
 31
1.4599999999999991
 12
-0.8100000000000001
 22
-0.3600000000000001
 32
1.5900000000000001
 13
-0.8200000000000001
 23
-0.3699999999999999
 33
1.5900000000000001
  0
3DFACE
  5
1933
  8
TURRET
 10
-0.7900000000000002
 20
-0.3600000000000001
 30
1.3400000000000001
 11
-0.8200000000000001
 21
-0.3899999999999999
 31
1.3400000000000001
 12
-0.8200000000000001
 22
-0.41
 32
1.2799999999999989
 13
-0.7700000000000001
 23
-0.3600000000000001
 33
1.2799999999999989
  0
3DFACE
  5
1934
  8
TURRET
 10
-0.8200000000000001
 20
-0.3899999999999999
 30
1.3400000000000001
 11
-0.85
 21
-0.3600000000000001
 31
1.3400000000000001
 12
-0.8700000000000001
 22
-0.3600000000000001
 32
1.2799999999999989
 13
-0.8200000000000001
 23
-0.41
 33
1.2799999999999989
  0
3DFACE
  5
1935
  8
TURRET
 10
-0.85
 20
-0.3600000000000001
 30
1.3400000000000001
 11
-0.8200000000000001
 21
-0.3300000000000003
 31
1.3400000000000001
 12
-0.8200000000000001
 22
-0.3100000000000003
 32
1.2799999999999989
 13
-0.8700000000000001
 23
-0.3600000000000001
 33
1.2799999999999989
  0
3DFACE
  5
1936
  8
TURRET
 10
-0.8200000000000001
 20
-0.3300000000000003
 30
1.3400000000000001
 11
-0.7900000000000002
 21
-0.3600000000000001
 31
1.3400000000000001
 12
-0.7700000000000001
 22
-0.3600000000000001
 32
1.2799999999999989
 13
-0.8200000000000001
 23
-0.3100000000000003
 33
1.2799999999999989
  0
3DFACE
  5
1937
  8
TURRET
 10
-0.79
 20
-0.3600000000000001
 30
1.3400000000000001
 11
-0.82
 21
-0.3300000000000003
 31
1.3400000000000001
 12
-0.82
 22
-0.3300000000000003
 32
1.4599999999999991
 13
-0.79
 23
-0.3600000000000001
 33
1.4599999999999991
  0
3DFACE
  5
1938
  8
TURRET
 10
-0.82
 20
-0.3300000000000003
 30
1.3400000000000001
 11
-0.85
 21
-0.3600000000000001
 31
1.3400000000000001
 12
-0.85
 22
-0.3600000000000001
 32
1.4599999999999991
 13
-0.82
 23
-0.3300000000000003
 33
1.4599999999999991
  0
3DFACE
  5
1939
  8
TURRET
 10
-0.85
 20
-0.3600000000000001
 30
1.3400000000000001
 11
-0.82
 21
-0.3899999999999999
 31
1.3400000000000001
 12
-0.82
 22
-0.3899999999999999
 32
1.4599999999999991
 13
-0.85
 23
-0.3600000000000001
 33
1.4599999999999991
  0
3DFACE
  5
193A
  8
TURRET
 10
-0.82
 20
-0.3899999999999999
 30
1.3400000000000001
 11
-0.79
 21
-0.3600000000000001
 31
1.3400000000000001
 12
-0.79
 22
-0.3600000000000001
 32
1.4599999999999991
 13
-0.82
 23
-0.3899999999999999
 33
1.4599999999999991
  0
VIEWPORT
  5
2E
 67
     1
  8
0
 10
144.7270812988281
 20
101.2295806407928
 30
0.0
 40
391.13550988316581
 41
222.15178063964839
 68
     2
 69
     1
1001
ACAD
1000
MVIEW
1002
{
1070
    16
1010
0.0
1020
0.0
1030
0.0
1010
0.0
1020
0.0
1030
1.0
1040
0.0
1040
222.15178063964839
1040
144.7270812988281
1040
101.2295806407928
1040
50.0
1040
0.0
1040
0.0
1070
     0
1070
   100
1070
     1
1070
     1
1070
     0
1070
     0
1070
     0
1070
     0
1040
0.0
1040
0.0
1040
0.0
1040
10.0
1040
10.0
1040
10.0
1040
10.0
1070
     0
1002
{
1002
}
1002
}
  0
VIEWPORT
  5
30
 67
     1
  8
0
 10
139.22375631332389
 20
100.8062499761581
 30
0.0
 40
222.75801010131829
 41
161.289999961853
 68
     1
 69
     2
1001
ACAD
1000
MVIEW
1002
{
1070
    16
1010
0.0
1020
0.0
1030
0.0
1010
0.0
1020
0.0
1030
1.0
1040
0.0
1040
307.49010134148989
1040
210.0
1040
148.5
1040
50.0
1040
0.0
1040
0.0
1070
     0
1070
   100
1070
     1
1070
     3
1070
     0
1070
     1
1070
     0
1070
     0
1040
0.0
1040
0.0
1040
0.0
1040
10.0
1040
10.0
1040
10.0
1040
10.0
1070
     0
1002
{
1002
}
1002
}
  0
ENDSEC
  0
EOF
