  0
SECTION
  2
HEADER
  9
$ACADVER
  1
AC1009
  9
$INSBASE
 10
0.0
 20
0.0
 30
0.0
  9
$EXTMIN
 10
-5.4400000000000022
 20
-13.039999999999999
 30
-23.899999999999999
  9
$EXTMAX
 10
3.5007703131927901
 20
20.5
 30
9.8699999999999992
  9
$LIMMIN
 10
0.0
 20
0.0
  9
$LIMMAX
 10
420.0
 20
297.0
  9
$ORTHOMODE
 70
     1
  9
$REGENMODE
 70
     1
  9
$FILLMODE
 70
     1
  9
$QTEXTMODE
 70
     0
  9
$MIRRTEXT
 70
     1
  9
$DRAGMODE
 70
     2
  9
$LTSCALE
 40
1.0
  9
$OSMODE
 70
    35
  9
$ATTMODE
 70
     1
  9
$TEXTSIZE
 40
2.5
  9
$TRACEWID
 40
1.0
  9
$TEXTSTYLE
  7
STANDARD
  9
$CLAYER
  8
PROPELLER
  9
$CELTYPE
  6
BYLAYER
  9
$CECOLOR
 62
   256
  9
$DIMSCALE
 40
1.0
  9
$DIMASZ
 40
2.5
  9
$DIMEXO
 40
0.625
  9
$DIMDLI
 40
3.75
  9
$DIMRND
 40
0.0
  9
$DIMDLE
 40
0.0
  9
$DIMEXE
 40
1.25
  9
$DIMTP
 40
0.0
  9
$DIMTM
 40
0.0
  9
$DIMTXT
 40
2.5
  9
$DIMCEN
 40
2.5
  9
$DIMTSZ
 40
0.0
  9
$DIMTOL
 70
     0
  9
$DIMLIM
 70
     0
  9
$DIMTIH
 70
     0
  9
$DIMTOH
 70
     0
  9
$DIMSE1
 70
     0
  9
$DIMSE2
 70
     0
  9
$DIMTAD
 70
     1
  9
$DIMZIN
 70
     8
  9
$DIMBLK
  1

  9
$DIMASO
 70
     1
  9
$DIMSHO
 70
     1
  9
$DIMPOST
  1

  9
$DIMAPOST
  1

  9
$DIMALT
 70
     0
  9
$DIMALTD
 70
     3
  9
$DIMALTF
 40
0.03937007874016
  9
$DIMLFAC
 40
1.0
  9
$DIMTOFL
 70
     1
  9
$DIMTVP
 40
0.0
  9
$DIMTIX
 70
     0
  9
$DIMSOXD
 70
     0
  9
$DIMSAH
 70
     0
  9
$DIMBLK1
  1

  9
$DIMBLK2
  1

  9
$DIMSTYLE
  2
ISO-25
  9
$DIMCLRD
 70
     0
  9
$DIMCLRE
 70
     0
  9
$DIMCLRT
 70
     0
  9
$DIMTFAC
 40
1.0
  9
$DIMGAP
 40
0.625
  9
$LUNITS
 70
     2
  9
$LUPREC
 70
     4
  9
$SKETCHINC
 40
1.0
  9
$FILLETRAD
 40
10.0
  9
$AUNITS
 70
     0
  9
$AUPREC
 70
     0
  9
$MENU
  1
.
  9
$ELEVATION
 40
0.0
  9
$PELEVATION
 40
0.0
  9
$THICKNESS
 40
0.0
  9
$LIMCHECK
 70
     0
  9
$BLIPMODE
 70
     0
  9
$CHAMFERA
 40
10.0
  9
$CHAMFERB
 40
10.0
  9
$SKPOLY
 70
     0
  9
$TDCREATE
 40
2458170.5431545591
  9
$TDUPDATE
 40
2458177.1070113191
  9
$TDINDWG
 40
1.8273441781999999
  9
$TDUSRTIMER
 40
1.8273441667000001
  9
$USRTIMER
 70
     1
  9
$ANGBASE
 50
0.0
  9
$ANGDIR
 70
     0
  9
$PDMODE
 70
     0
  9
$PDSIZE
 40
0.0
  9
$PLINEWID
 40
0.0
  9
$COORDS
 70
     1
  9
$SPLFRAME
 70
     0
  9
$SPLINETYPE
 70
     6
  9
$SPLINESEGS
 70
     8
  9
$ATTDIA
 70
     1
  9
$ATTREQ
 70
     1
  9
$HANDLING
 70
-16383
  9
$HANDSEED
  5
A16
  9
$SURFTAB1
 70
     6
  9
$SURFTAB2
 70
     6
  9
$SURFTYPE
 70
     6
  9
$SURFU
 70
     6
  9
$SURFV
 70
     6
  9
$UCSNAME
  2

  9
$UCSORG
 10
0.0
 20
0.0
 30
0.0
  9
$UCSXDIR
 10
0.0
 20
-1.0
 30
0.0
  9
$UCSYDIR
 10
0.0
 20
0.0
 30
1.0
  9
$PUCSNAME
  2

  9
$PUCSORG
 10
0.0
 20
0.0
 30
0.0
  9
$PUCSXDIR
 10
1.0
 20
0.0
 30
0.0
  9
$PUCSYDIR
 10
0.0
 20
1.0
 30
0.0
  9
$USERI1
 70
     0
  9
$USERI2
 70
     0
  9
$USERI3
 70
     0
  9
$USERI4
 70
     0
  9
$USERI5
 70
     0
  9
$USERR1
 40
0.0
  9
$USERR2
 40
0.0
  9
$USERR3
 40
0.0
  9
$USERR4
 40
0.0
  9
$USERR5
 40
0.0
  9
$WORLDVIEW
 70
     1
  9
$SHADEDGE
 70
     3
  9
$SHADEDIF
 70
    70
  9
$TILEMODE
 70
     1
  9
$MAXACTVP
 70
    64
  9
$PLIMCHECK
 70
     0
  9
$PEXTMIN
 10
27.844751262664801
 20
20.161249995231621
 30
0.0
  9
$PEXTMAX
 10
250.60276136398309
 20
181.4512499570846
 30
0.0
  9
$PLIMMIN
 10
-3.757080078125
 20
-3.7570831775665279
  9
$PLIMMAX
 10
293.21124267578119
 20
206.21624445915219
  9
$UNITMODE
 70
     0
  9
$VISRETAIN
 70
     1
  9
$PLINEGEN
 70
     0
  9
$PSLTSCALE
 70
     1
  0
ENDSEC
  0
SECTION
  2
TABLES
  0
TABLE
  2
VPORT
 70
     2
  0
VPORT
  2
*ACTIVE
 70
     0
 10
0.0
 20
0.0
 11
1.0
 21
1.0
 12
4.7497086059067177
 22
1.577022870365826
 13
0.0
 23
0.0
 14
0.01
 24
0.01
 15
1.0
 25
1.0
 16
-1.0
 26
0.0
 36
0.0
 17
0.0
 27
0.0
 37
0.0
 40
15.675098945365621
 41
2.1655092592592591
 42
50.0
 43
0.0
 44
0.0
 50
0.0
 51
0.0
 71
     0
 72
   100
 73
     1
 74
     3
 75
     1
 76
     1
 77
     0
 78
     0
  0
ENDTAB
  0
TABLE
  2
LTYPE
 70
     1
  0
LTYPE
  2
CONTINUOUS
 70
     0
  3
Solid line
 72
    65
 73
     0
 40
0.0
  0
ENDTAB
  0
TABLE
  2
LAYER
 70
     6
  0
LAYER
  2
0
 70
     0
 62
     7
  6
CONTINUOUS
  0
LAYER
  2
_REF
 70
     0
 62
     9
  6
CONTINUOUS
  0
LAYER
  2
_TMP
 70
     0
 62
     4
  6
CONTINUOUS
  0
LAYER
  2
PROPELLER
 70
     0
 62
     1
  6
CONTINUOUS
  0
LAYER
  2
WING
 70
     0
 62
     5
  6
CONTINUOUS
  0
LAYER
  2
CAB_INTERNALS
 70
     0
 62
     3
  6
CONTINUOUS
  0
ENDTAB
  0
TABLE
  2
STYLE
 70
     1
  0
STYLE
  2
STANDARD
 70
     0
 40
0.0
 41
1.0
 50
0.0
 71
     0
 42
2.5
  3
txt
  4

  0
ENDTAB
  0
TABLE
  2
VIEW
 70
     0
  0
ENDTAB
  0
TABLE
  2
UCS
 70
     0
  0
ENDTAB
  0
TABLE
  2
APPID
 70
     1
  0
APPID
  2
ACAD
 70
     0
  0
ENDTAB
  0
TABLE
  2
DIMSTYLE
 70
     1
  0
DIMSTYLE
  2
ISO-25
 70
     0
  3

  4

  5

  6

  7

 40
1.0
 41
2.5
 42
0.625
 43
3.75
 44
1.25
 45
0.0
 46
0.0
 47
0.0
 48
0.0
140
2.5
141
2.5
142
0.0
143
0.03937007874016
144
1.0
145
0.0
146
1.0
147
0.625
 71
     0
 72
     0
 73
     0
 74
     0
 75
     0
 76
     0
 77
     1
 78
     8
170
     0
171
     3
172
     1
173
     0
174
     0
175
     0
176
     0
177
     0
178
     0
  0
ENDTAB
  0
ENDSEC
  0
SECTION
  2
BLOCKS
  0
BLOCK
  8
0
  2
$MODEL_SPACE
 70
     0
 10
0.0
 20
0.0
 30
0.0
  3
$MODEL_SPACE
  1

  0
ENDBLK
  5
21
  8
0
  0
BLOCK
 67
     1
  8
0
  2
$PAPER_SPACE
 70
     0
 10
0.0
 20
0.0
 30
0.0
  3
$PAPER_SPACE
  1

  0
ENDBLK
  5
1D
 67
     1
  8
0
  0
ENDSEC
  0
SECTION
  2
ENTITIES
  0
3DFACE
  5
2B9
  8
PROPELLER
 10
0.0000000000000001
 20
-0.3000000000000003
 30
0.0000000000000001
 11
-0.1019756081437326
 21
-0.25
 31
0.0000000000000001
 12
-0.0781178479521847
 22
-0.25
 32
-0.065548657405041
 13
0.0000000000000001
 23
-0.3000000000000003
 33
0.0000000000000001
  0
3DFACE
  5
2BA
  8
PROPELLER
 10
-0.1019756081437326
 20
-0.25
 30
0.0000000000000001
 11
-0.1939691332565161
 21
-0.0700000000000003
 31
0.0000000000000001
 12
-0.1485889766677587
 22
-0.0700000000000003
 32
-0.1246809555189257
 13
-0.0781178479521847
 23
-0.25
 33
-0.065548657405041
  0
3DFACE
  5
2BB
  8
PROPELLER
 10
-0.1939691332565161
 20
-0.0700000000000003
 30
0.0000000000000001
 11
-0.2669756081437326
 21
0.0860308667434837
 31
0.0000000000000001
 12
-0.2045151810668162
 22
0.0860308667434837
 32
-0.17160861300332
 13
-0.1485889766677587
 23
-0.0700000000000003
 33
-0.1246809555189257
  0
3DFACE
  5
2BC
  8
PROPELLER
 10
-0.2669756081437326
 20
0.0860308667434837
 30
0.0000000000000001
 11
-0.3138486503774007
 21
0.2199999999999997
 31
0.0
 12
-0.2404220146019987
 22
0.2199999999999997
 32
-0.2017380237794358
 13
-0.2045151810668162
 23
0.0860308667434837
 33
-0.17160861300332
  0
3DFACE
  5
2BD
  8
PROPELLER
 10
-0.3138486503774007
 20
0.2199999999999997
 30
0.0
 11
-0.33
 21
0.2799999999999998
 31
0.0
 12
-0.2527946662292628
 22
0.2799999999999998
 32
-0.212119911196558
 13
-0.2404220146019987
 23
0.2199999999999997
 33
-0.2017380237794358
  0
3DFACE
  5
2BE
  8
PROPELLER
 10
0.0000000000000001
 20
-0.3000000000000003
 30
0.0000000000000001
 11
-0.0781178479521847
 21
-0.25
 31
-0.065548657405041
 12
-0.0177078785206362
 22
-0.25
 32
-0.1004263695180826
 13
0.0000000000000001
 23
-0.3000000000000003
 33
0.0000000000000001
  0
3DFACE
  5
2BF
  8
PROPELLER
 10
-0.0781178479521847
 20
-0.25
 30
-0.065548657405041
 11
-0.1485889766677587
 21
-0.0700000000000003
 31
-0.1246809555189257
 12
-0.033682386513628
 22
-0.0700000000000003
 32
-0.191022306276075
 13
-0.0177078785206362
 23
-0.25
 33
-0.1004263695180826
  0
3DFACE
  5
2C0
  8
PROPELLER
 10
-0.1485889766677587
 20
-0.0700000000000003
 30
-0.1246809555189257
 11
-0.2045151810668162
 21
0.0860308667434837
 31
-0.17160861300332
 12
-0.0463598278356797
 22
0.0860308667434837
 32
-0.2629196487650971
 13
-0.033682386513628
 23
-0.0700000000000003
 33
-0.191022306276075
  0
3DFACE
  5
2C1
  8
PROPELLER
 10
-0.2045151810668162
 20
0.0860308667434837
 30
-0.17160861300332
 11
-0.2404220146019987
 21
0.2199999999999997
 31
-0.2017380237794358
 12
-0.0544992462012612
 22
0.2199999999999997
 32
-0.3090805841640821
 13
-0.0463598278356797
 23
0.0860308667434837
 33
-0.2629196487650971
  0
3DFACE
  5
2C2
  8
PROPELLER
 10
-0.2404220146019987
 20
0.2199999999999997
 30
-0.2017380237794358
 11
-0.2527946662292628
 21
0.2799999999999998
 31
-0.212119911196558
 12
-0.057303898630087
 22
0.2799999999999998
 32
-0.3249865584940287
 13
-0.0544992462012612
 23
0.2199999999999997
 33
-0.3090805841640821
  0
3DFACE
  5
2C3
  8
PROPELLER
 10
0.0000000000000001
 20
-0.3000000000000003
 30
0.0000000000000001
 11
-0.0177078785206362
 21
-0.25
 31
-0.1004263695180826
 12
0.0509878040718663
 22
-0.25
 32
-0.0883134672188397
 13
0.0000000000000001
 23
-0.3000000000000003
 33
0.0000000000000001
  0
3DFACE
  5
2C4
  8
PROPELLER
 10
-0.0177078785206362
 20
-0.25
 30
-0.1004263695180826
 11
-0.033682386513628
 21
-0.0700000000000003
 31
-0.191022306276075
 12
0.096984566628258
 22
-0.0700000000000003
 32
-0.1679821969501919
 13
0.0509878040718663
 23
-0.25
 33
-0.0883134672188397
  0
3DFACE
  5
2C5
  8
PROPELLER
 10
-0.033682386513628
 20
-0.0700000000000003
 30
-0.191022306276075
 11
-0.0463598278356797
 21
0.0860308667434837
 31
-0.2629196487650971
 12
0.1334878040718662
 22
0.0860308667434837
 32
-0.2312076588432721
 13
0.096984566628258
 23
-0.0700000000000003
 33
-0.1679821969501919
  0
3DFACE
  5
2C6
  8
PROPELLER
 10
-0.0463598278356797
 20
0.0860308667434837
 30
-0.2629196487650971
 11
-0.0544992462012612
 21
0.2199999999999997
 31
-0.3090805841640821
 12
0.1569243251887002
 22
0.2199999999999997
 32
-0.2718009041702895
 13
0.1334878040718662
 23
0.0860308667434837
 33
-0.2312076588432721
  0
3DFACE
  5
2C7
  8
PROPELLER
 10
-0.0544992462012612
 20
0.2199999999999997
 30
-0.3090805841640821
 11
-0.057303898630087
 21
0.2799999999999998
 31
-0.3249865584940287
 12
0.1649999999999999
 22
0.2799999999999998
 32
-0.2857883832488648
 13
0.1569243251887002
 23
0.2199999999999997
 33
-0.2718009041702895
  0
3DFACE
  5
2C8
  8
PROPELLER
 10
0.0000000000000001
 20
-0.3000000000000003
 30
0.0000000000000001
 11
0.0509878040718663
 21
-0.25
 31
-0.0883134672188397
 12
0.0958257264728209
 22
-0.25
 32
-0.0348777121130416
 13
0.0000000000000001
 23
-0.3000000000000003
 33
0.0000000000000001
  0
3DFACE
  5
2C9
  8
PROPELLER
 10
0.0509878040718663
 20
-0.25
 30
-0.0883134672188397
 11
0.096984566628258
 21
-0.0700000000000003
 31
-0.1679821969501919
 12
0.1822713631813867
 22
-0.0700000000000003
 32
-0.0663413507571494
 13
0.0958257264728209
 23
-0.25
 33
-0.0348777121130416
  0
3DFACE
  5
2CA
  8
PROPELLER
 10
0.096984566628258
 20
-0.0700000000000003
 30
-0.1679821969501919
 11
0.1334878040718662
 21
0.0860308667434837
 31
-0.2312076588432721
 12
0.2508750089024958
 22
0.0860308667434837
 32
-0.091311035761777
 13
0.1822713631813867
 23
-0.0700000000000003
 33
-0.0663413507571494
  0
3DFACE
  5
2CB
  8
PROPELLER
 10
0.1334878040718662
 20
0.0860308667434837
 30
-0.2312076588432721
 11
0.1569243251887002
 21
0.2199999999999997
 31
-0.2718009041702895
 12
0.2949212608032599
 22
0.2199999999999997
 32
-0.1073425603846463
 13
0.2508750089024958
 23
0.0860308667434837
 33
-0.091311035761777
  0
3DFACE
  5
2CC
  8
PROPELLER
 10
0.1569243251887002
 20
0.2199999999999997
 30
-0.2718009041702895
 11
0.1649999999999999
 21
0.2799999999999998
 31
-0.2857883832488648
 12
0.3100985648593498
 22
0.2799999999999998
 32
-0.1128666472974707
 13
0.2949212608032599
 23
0.2199999999999997
 33
-0.1073425603846463
  0
3DFACE
  5
2CD
  8
PROPELLER
 10
0.0000000000000001
 20
-0.3000000000000003
 30
0.0000000000000001
 11
0.0958257264728209
 21
-0.25
 31
-0.0348777121130416
 12
0.0958257264728209
 22
-0.25
 32
0.0348777121130417
 13
0.0000000000000001
 23
-0.3000000000000003
 33
0.0000000000000001
  0
3DFACE
  5
2CE
  8
PROPELLER
 10
0.0958257264728209
 20
-0.25
 30
-0.0348777121130416
 11
0.1822713631813867
 21
-0.0700000000000003
 31
-0.0663413507571494
 12
0.1822713631813867
 22
-0.0700000000000003
 32
0.0663413507571494
 13
0.0958257264728209
 23
-0.25
 33
0.0348777121130417
  0
3DFACE
  5
2CF
  8
PROPELLER
 10
0.1822713631813867
 20
-0.0700000000000003
 30
-0.0663413507571494
 11
0.2508750089024958
 21
0.0860308667434837
 31
-0.091311035761777
 12
0.2508750089024958
 22
0.0860308667434837
 32
0.091311035761777
 13
0.1822713631813867
 23
-0.0700000000000003
 33
0.0663413507571494
  0
3DFACE
  5
2D0
  8
PROPELLER
 10
0.2508750089024958
 20
0.0860308667434837
 30
-0.091311035761777
 11
0.2949212608032599
 21
0.2199999999999997
 31
-0.1073425603846463
 12
0.2949212608032599
 22
0.2199999999999997
 32
0.1073425603846462
 13
0.2508750089024958
 23
0.0860308667434837
 33
0.091311035761777
  0
3DFACE
  5
2D1
  8
PROPELLER
 10
0.2949212608032599
 20
0.2199999999999997
 30
-0.1073425603846463
 11
0.3100985648593498
 21
0.2799999999999998
 31
-0.1128666472974707
 12
0.3100985648593498
 22
0.2799999999999998
 32
0.1128666472974707
 13
0.2949212608032599
 23
0.2199999999999997
 33
0.1073425603846462
  0
3DFACE
  5
2D2
  8
PROPELLER
 10
0.0000000000000001
 20
-0.3000000000000003
 30
0.0000000000000001
 11
0.0958257264728209
 21
-0.25
 31
0.0348777121130417
 12
0.0509878040718664
 22
-0.25
 32
0.0883134672188398
 13
0.0000000000000001
 23
-0.3000000000000003
 33
0.0000000000000001
  0
3DFACE
  5
2D3
  8
PROPELLER
 10
0.0958257264728209
 20
-0.25
 30
0.0348777121130417
 11
0.1822713631813867
 21
-0.0700000000000003
 31
0.0663413507571494
 12
0.0969845666282581
 22
-0.0700000000000003
 32
0.1679821969501919
 13
0.0509878040718664
 23
-0.25
 33
0.0883134672188398
  0
3DFACE
  5
2D4
  8
PROPELLER
 10
0.1822713631813867
 20
-0.0700000000000003
 30
0.0663413507571494
 11
0.2508750089024958
 21
0.0860308667434837
 31
0.091311035761777
 12
0.1334878040718664
 22
0.0860308667434837
 32
0.2312076588432721
 13
0.0969845666282581
 23
-0.0700000000000003
 33
0.1679821969501919
  0
3DFACE
  5
2D5
  8
PROPELLER
 10
0.2508750089024958
 20
0.0860308667434837
 30
0.091311035761777
 11
0.2949212608032599
 21
0.2199999999999997
 31
0.1073425603846462
 12
0.1569243251887005
 22
0.2199999999999997
 32
0.2718009041702895
 13
0.1334878040718664
 23
0.0860308667434837
 33
0.2312076588432721
  0
3DFACE
  5
2D6
  8
PROPELLER
 10
0.2949212608032599
 20
0.2199999999999997
 30
0.1073425603846462
 11
0.3100985648593498
 21
0.2799999999999998
 31
0.1128666472974707
 12
0.1650000000000001
 22
0.2799999999999998
 32
0.2857883832488647
 13
0.1569243251887005
 23
0.2199999999999997
 33
0.2718009041702895
  0
3DFACE
  5
2D7
  8
PROPELLER
 10
0.0000000000000001
 20
-0.3000000000000003
 30
0.0000000000000001
 11
0.0509878040718664
 21
-0.25
 31
0.0883134672188398
 12
-0.0177078785206361
 22
-0.25
 32
0.1004263695180828
 13
0.0000000000000001
 23
-0.3000000000000003
 33
0.0000000000000001
  0
3DFACE
  5
2D8
  8
PROPELLER
 10
0.0509878040718664
 20
-0.25
 30
0.0883134672188398
 11
0.0969845666282581
 21
-0.0700000000000003
 31
0.1679821969501919
 12
-0.0336823865136279
 22
-0.0700000000000003
 32
0.1910223062760752
 13
-0.0177078785206361
 23
-0.25
 33
0.1004263695180828
  0
3DFACE
  5
2D9
  8
PROPELLER
 10
0.0969845666282581
 20
-0.0700000000000003
 30
0.1679821969501919
 11
0.1334878040718664
 21
0.0860308667434837
 31
0.2312076588432721
 12
-0.0463598278356796
 22
0.0860308667434837
 32
0.2629196487650971
 13
-0.0336823865136279
 23
-0.0700000000000003
 33
0.1910223062760752
  0
3DFACE
  5
2DA
  8
PROPELLER
 10
0.1334878040718664
 20
0.0860308667434837
 30
0.2312076588432721
 11
0.1569243251887005
 21
0.2199999999999997
 31
0.2718009041702895
 12
-0.0544992462012611
 22
0.2199999999999997
 32
0.3090805841640821
 13
-0.0463598278356796
 23
0.0860308667434837
 33
0.2629196487650971
  0
3DFACE
  5
2DB
  8
PROPELLER
 10
0.1569243251887005
 20
0.2199999999999997
 30
0.2718009041702895
 11
0.1650000000000001
 21
0.2799999999999998
 31
0.2857883832488647
 12
-0.0573038986300869
 22
0.2799999999999998
 32
0.3249865584940287
 13
-0.0544992462012611
 23
0.2199999999999997
 33
0.3090805841640821
  0
3DFACE
  5
2DC
  8
PROPELLER
 10
0.0000000000000001
 20
-0.3000000000000003
 30
0.0000000000000001
 11
-0.0177078785206361
 21
-0.25
 31
0.1004263695180828
 12
-0.0781178479521847
 22
-0.25
 32
0.0655486574050411
 13
0.0000000000000001
 23
-0.3000000000000003
 33
0.0000000000000001
  0
3DFACE
  5
2DD
  8
PROPELLER
 10
-0.0177078785206361
 20
-0.25
 30
0.1004263695180828
 11
-0.0336823865136279
 21
-0.0700000000000003
 31
0.1910223062760752
 12
-0.1485889766677586
 22
-0.0700000000000003
 32
0.1246809555189259
 13
-0.0781178479521847
 23
-0.25
 33
0.0655486574050411
  0
3DFACE
  5
2DE
  8
PROPELLER
 10
-0.0336823865136279
 20
-0.0700000000000003
 30
0.1910223062760752
 11
-0.0463598278356796
 21
0.0860308667434837
 31
0.2629196487650971
 12
-0.2045151810668161
 22
0.0860308667434837
 32
0.1716086130033201
 13
-0.1485889766677586
 23
-0.0700000000000003
 33
0.1246809555189259
  0
3DFACE
  5
2DF
  8
PROPELLER
 10
-0.0463598278356796
 20
0.0860308667434837
 30
0.2629196487650971
 11
-0.0544992462012611
 21
0.2199999999999997
 31
0.3090805841640821
 12
-0.2404220146019987
 22
0.2199999999999997
 32
0.2017380237794359
 13
-0.2045151810668161
 23
0.0860308667434837
 33
0.1716086130033201
  0
3DFACE
  5
2E0
  8
PROPELLER
 10
-0.0544992462012611
 20
0.2199999999999997
 30
0.3090805841640821
 11
-0.0573038986300869
 21
0.2799999999999998
 31
0.3249865584940287
 12
-0.2527946662292626
 22
0.2799999999999998
 32
0.2121199111965581
 13
-0.2404220146019987
 23
0.2199999999999997
 33
0.2017380237794359
  0
3DFACE
  5
2E1
  8
PROPELLER
 10
0.0000000000000001
 20
-0.3000000000000003
 30
0.0000000000000001
 11
-0.0781178479521847
 21
-0.25
 31
0.0655486574050411
 12
-0.1019756081437326
 22
-0.25
 32
0.0000000000000001
 13
0.0000000000000001
 23
-0.3000000000000003
 33
0.0000000000000001
  0
3DFACE
  5
2E2
  8
PROPELLER
 10
-0.0781178479521847
 20
-0.25
 30
0.0655486574050411
 11
-0.1485889766677586
 21
-0.0700000000000003
 31
0.1246809555189259
 12
-0.1939691332565161
 22
-0.0700000000000003
 32
0.0000000000000001
 13
-0.1019756081437326
 23
-0.25
 33
0.0000000000000001
  0
3DFACE
  5
2E3
  8
PROPELLER
 10
-0.1485889766677586
 20
-0.0700000000000003
 30
0.1246809555189259
 11
-0.2045151810668161
 21
0.0860308667434837
 31
0.1716086130033201
 12
-0.2669756081437326
 22
0.0860308667434837
 32
0.0000000000000001
 13
-0.1939691332565161
 23
-0.0700000000000003
 33
0.0000000000000001
  0
3DFACE
  5
2E4
  8
PROPELLER
 10
-0.2045151810668161
 20
0.0860308667434837
 30
0.1716086130033201
 11
-0.2404220146019987
 21
0.2199999999999997
 31
0.2017380237794359
 12
-0.3138486503774007
 22
0.2199999999999997
 32
0.0
 13
-0.2669756081437326
 23
0.0860308667434837
 33
0.0000000000000001
  0
3DFACE
  5
2E5
  8
PROPELLER
 10
-0.2404220146019987
 20
0.2199999999999997
 30
0.2017380237794359
 11
-0.2527946662292626
 21
0.2799999999999998
 31
0.2121199111965581
 12
-0.33
 22
0.2799999999999998
 32
0.0
 13
-0.3138486503774007
 23
0.2199999999999997
 33
0.0
  0
3DFACE
  5
2FF
  8
PROPELLER
 10
0.0463074372332413
 20
0.0124080404102021
 30
0.014200767235196
 11
0.0950282706578181
 21
0.0254627483808889
 31
0.1960134592844982
 12
-0.0970495695304594
 22
-0.0260043537814747
 32
0.303982161710782
 13
-0.1018763619131313
 23
-0.0272976889024443
 33
-0.0312416879174311
  0
3DFACE
  5
300
  8
PROPELLER
 10
0.0950282706578181
 20
0.0254627483808889
 30
0.1960134592844982
 11
0.1379530728933433
 21
0.0369644144751638
 31
0.8558052241846798
 12
-0.1090337292272565
 22
-0.0292154996941969
 32
0.5923327616031502
 13
-0.0970495695304594
 23
-0.0260043537814747
 33
0.303982161710782
  0
3DFACE
  5
301
  8
PROPELLER
 10
0.1379530728933433
 20
0.0369644144751638
 30
0.8558052241846798
 11
0.1359110687057319
 21
0.0364172611021516
 31
1.0741982891892361
 12
-0.1110550280998988
 22
-0.0297571050947827
 32
1.0923283825984329
 13
-0.1090337292272565
 23
-0.0292154996941969
 33
0.5923327616031502
  0
3DFACE
  5
302
  8
PROPELLER
 10
0.1359110687057319
 20
0.0364172611021516
 30
1.0741982891892361
 11
0.1160267576873606
 21
0.0310892760227297
 31
1.2141133589648621
 12
-0.0897679703265126
 22
-0.0240532551551693
 32
1.370023048134555
 13
-0.1110550280998988
 23
-0.0297571050947827
 33
1.0923283825984329
  0
3DFACE
  5
308
  8
PROPELLER
 10
0.1160267576873606
 20
0.0310892760227297
 30
1.2141133589648621
 11
0.0474423185593826
 21
0.0127121309450473
 31
1.4538182926819101
 12
-0.0643761988629335
 22
-0.017249550497108
 32
1.4925341396522911
 13
-0.0897679703265126
 23
-0.0240532551551693
 33
1.370023048134555
  0
3DFACE
  5
309
  8
PROPELLER
 10
0.0474423185593826
 20
0.0127121309450473
 30
1.4538182926819101
 11
0.0
 21
0.0
 31
1.512275923481412
 12
0.0
 22
0.0
 32
1.512275923481412
 13
-0.0643761988629335
 23
-0.017249550497108
 33
1.4925341396522911
  0
3DFACE
  5
30A
  8
PROPELLER
 10
-0.1379530728933442
 20
0.0369644144751638
 30
-0.8558052241846796
 11
-0.1359110687057328
 21
0.0364172611021525
 31
-1.0741982891892361
 12
0.1110550280998979
 22
-0.0297571050947836
 32
-1.0923283825984329
 13
0.1090337292272565
 23
-0.0292154996941969
 33
-0.5923327616031502
  0
3DFACE
  5
30D
  8
PROPELLER
 10
-0.0950282706578181
 20
0.0254627483808889
 30
-0.1960134592844981
 11
-0.1379530728933442
 21
0.0369644144751638
 31
-0.8558052241846796
 12
0.1090337292272565
 22
-0.0292154996941969
 32
-0.5923327616031502
 13
0.0970495695304594
 23
-0.0260043537814747
 33
-0.3039821617107821
  0
3DFACE
  5
30E
  8
PROPELLER
 10
-0.0463074372332413
 20
0.0124080404102021
 30
-0.014200767235196
 11
-0.0950282706578181
 21
0.0254627483808889
 31
-0.1960134592844981
 12
0.0970495695304594
 22
-0.0260043537814747
 32
-0.3039821617107821
 13
0.1018763619131313
 23
-0.0272976889024443
 33
0.0312416879174311
  0
3DFACE
  5
313
  8
PROPELLER
 10
-0.0474423185593835
 20
0.0127121309450473
 30
-1.4538182926819101
 11
-0.0000000000000009
 21
0.0
 31
-1.512275923481412
 12
-0.0000000000000009
 22
0.0
 32
-1.512275923481412
 13
0.0643761988629326
 23
-0.017249550497108
 33
-1.4925341396522911
  0
3DFACE
  5
314
  8
PROPELLER
 10
-0.1160267576873615
 20
0.0310892760227306
 30
-1.2141133589648621
 11
-0.0474423185593835
 21
0.0127121309450473
 31
-1.4538182926819101
 12
0.0643761988629326
 22
-0.017249550497108
 32
-1.4925341396522911
 13
0.0897679703265118
 23
-0.0240532551551702
 33
-1.370023048134555
  0
3DFACE
  5
315
  8
PROPELLER
 10
-0.1359110687057328
 20
0.0364172611021525
 30
-1.0741982891892361
 11
-0.1160267576873615
 21
0.0310892760227306
 31
-1.2141133589648621
 12
0.0897679703265118
 22
-0.0240532551551702
 32
-1.370023048134555
 13
0.1110550280998979
 23
-0.0297571050947836
 33
-1.0923283825984329
  0
VIEWPORT
  5
2E
 67
     1
  8
0
 10
144.7270812988281
 20
101.2295806407928
 30
0.0
 40
391.13550988316581
 41
222.15178063964839
 68
     2
 69
     1
1001
ACAD
1000
MVIEW
1002
{
1070
    16
1010
0.0
1020
0.0
1030
0.0
1010
0.0
1020
0.0
1030
1.0
1040
0.0
1040
222.15178063964839
1040
144.7270812988281
1040
101.2295806407928
1040
50.0
1040
0.0
1040
0.0
1070
     0
1070
   100
1070
     1
1070
     1
1070
     0
1070
     0
1070
     0
1070
     0
1040
0.0
1040
0.0
1040
0.0
1040
10.0
1040
10.0
1040
10.0
1040
10.0
1070
     0
1002
{
1002
}
1002
}
  0
VIEWPORT
  5
30
 67
     1
  8
0
 10
139.22375631332389
 20
100.8062499761581
 30
0.0
 40
222.75801010131829
 41
161.289999961853
 68
     1
 69
     2
1001
ACAD
1000
MVIEW
1002
{
1070
    16
1010
0.0
1020
0.0
1030
0.0
1010
0.0
1020
0.0
1030
1.0
1040
0.0
1040
307.49010134148989
1040
210.0
1040
148.5
1040
50.0
1040
0.0
1040
0.0
1070
     0
1070
   100
1070
     1
1070
     3
1070
     0
1070
     1
1070
     0
1070
     0
1040
0.0
1040
0.0
1040
0.0
1040
10.0
1040
10.0
1040
10.0
1040
10.0
1070
     0
1002
{
1002
}
1002
}
  0
ENDSEC
  0
EOF
