  0
SECTION
  2
HEADER
  9
$ACADVER
  1
AC1009
  9
$INSBASE
 10
0.0
 20
0.0
 30
0.0
  9
$EXTMIN
 10
-1.1100000000000001
 20
-25.16
 30
-8.6838599505703193
  9
$EXTMAX
 10
6.8099999999999996
 20
11.94
 30
4.9900319488817892
  9
$LIMMIN
 10
0.0
 20
0.0
  9
$LIMMAX
 10
420.0
 20
297.0
  9
$ORTHOMODE
 70
     1
  9
$REGENMODE
 70
     1
  9
$FILLMODE
 70
     1
  9
$QTEXTMODE
 70
     0
  9
$MIRRTEXT
 70
     1
  9
$DRAGMODE
 70
     2
  9
$LTSCALE
 40
1.0
  9
$OSMODE
 70
    39
  9
$ATTMODE
 70
     1
  9
$TEXTSIZE
 40
2.5
  9
$TRACEWID
 40
1.0
  9
$TEXTSTYLE
  7
STANDARD
  9
$CLAYER
  8
0
  9
$CELTYPE
  6
BYLAYER
  9
$CECOLOR
 62
   256
  9
$DIMSCALE
 40
1.0
  9
$DIMASZ
 40
2.5
  9
$DIMEXO
 40
0.625
  9
$DIMDLI
 40
3.75
  9
$DIMRND
 40
0.0
  9
$DIMDLE
 40
0.0
  9
$DIMEXE
 40
1.25
  9
$DIMTP
 40
0.0
  9
$DIMTM
 40
0.0
  9
$DIMTXT
 40
2.5
  9
$DIMCEN
 40
2.5
  9
$DIMTSZ
 40
0.0
  9
$DIMTOL
 70
     0
  9
$DIMLIM
 70
     0
  9
$DIMTIH
 70
     0
  9
$DIMTOH
 70
     0
  9
$DIMSE1
 70
     0
  9
$DIMSE2
 70
     0
  9
$DIMTAD
 70
     1
  9
$DIMZIN
 70
     8
  9
$DIMBLK
  1

  9
$DIMASO
 70
     1
  9
$DIMSHO
 70
     1
  9
$DIMPOST
  1

  9
$DIMAPOST
  1

  9
$DIMALT
 70
     0
  9
$DIMALTD
 70
     3
  9
$DIMALTF
 40
0.03937007874016
  9
$DIMLFAC
 40
1.0
  9
$DIMTOFL
 70
     1
  9
$DIMTVP
 40
0.0
  9
$DIMTIX
 70
     0
  9
$DIMSOXD
 70
     0
  9
$DIMSAH
 70
     0
  9
$DIMBLK1
  1

  9
$DIMBLK2
  1

  9
$DIMSTYLE
  2
ISO-25
  9
$DIMCLRD
 70
     0
  9
$DIMCLRE
 70
     0
  9
$DIMCLRT
 70
     0
  9
$DIMTFAC
 40
1.0
  9
$DIMGAP
 40
0.625
  9
$LUNITS
 70
     2
  9
$LUPREC
 70
     4
  9
$SKETCHINC
 40
1.0
  9
$FILLETRAD
 40
10.0
  9
$AUNITS
 70
     0
  9
$AUPREC
 70
     0
  9
$MENU
  1
.
  9
$ELEVATION
 40
0.0
  9
$PELEVATION
 40
0.0
  9
$THICKNESS
 40
0.0
  9
$LIMCHECK
 70
     0
  9
$BLIPMODE
 70
     0
  9
$CHAMFERA
 40
10.0
  9
$CHAMFERB
 40
10.0
  9
$SKPOLY
 70
     0
  9
$TDCREATE
 40
2454567.9342599772
  9
$TDUPDATE
 40
2455420.9122416321
  9
$TDINDWG
 40
0.2542417014
  9
$TDUSRTIMER
 40
0.2542417014
  9
$USRTIMER
 70
     1
  9
$ANGBASE
 50
0.0
  9
$ANGDIR
 70
     0
  9
$PDMODE
 70
     0
  9
$PDSIZE
 40
0.0
  9
$PLINEWID
 40
0.0
  9
$COORDS
 70
     1
  9
$SPLFRAME
 70
     0
  9
$SPLINETYPE
 70
     6
  9
$SPLINESEGS
 70
     8
  9
$ATTDIA
 70
     0
  9
$ATTREQ
 70
     1
  9
$HANDLING
 70
     1
  9
$HANDSEED
  5
F1A
  9
$SURFTAB1
 70
     6
  9
$SURFTAB2
 70
     6
  9
$SURFTYPE
 70
     6
  9
$SURFU
 70
     6
  9
$SURFV
 70
     6
  9
$UCSNAME
  2

  9
$UCSORG
 10
0.0
 20
0.0
 30
0.0
  9
$UCSXDIR
 10
0.0
 20
-1.0
 30
0.0
  9
$UCSYDIR
 10
0.0
 20
0.0
 30
1.0
  9
$PUCSNAME
  2

  9
$PUCSORG
 10
0.0
 20
0.0
 30
0.0
  9
$PUCSXDIR
 10
1.0
 20
0.0
 30
0.0
  9
$PUCSYDIR
 10
0.0
 20
1.0
 30
0.0
  9
$USERI1
 70
     0
  9
$USERI2
 70
     0
  9
$USERI3
 70
     0
  9
$USERI4
 70
     0
  9
$USERI5
 70
     0
  9
$USERR1
 40
0.0
  9
$USERR2
 40
0.0
  9
$USERR3
 40
0.0
  9
$USERR4
 40
0.0
  9
$USERR5
 40
0.0
  9
$WORLDVIEW
 70
     1
  9
$SHADEDGE
 70
     3
  9
$SHADEDIF
 70
    70
  9
$TILEMODE
 70
     1
  9
$MAXACTVP
 70
    64
  9
$PLIMCHECK
 70
     0
  9
$PEXTMIN
 10
27.844751262664801
 20
20.161249995231628
 30
0.0
  9
$PEXTMAX
 10
250.60276136398309
 20
181.4512499570846
 30
0.0
  9
$PLIMMIN
 10
-3.757080078125
 20
-3.7570831775665279
  9
$PLIMMAX
 10
293.21124267578131
 20
206.21624445915219
  9
$UNITMODE
 70
     0
  9
$VISRETAIN
 70
     1
  9
$PLINEGEN
 70
     0
  9
$PSLTSCALE
 70
     1
  0
ENDSEC
  0
SECTION
  2
TABLES
  0
TABLE
  2
VPORT
 70
     1
  0
VPORT
  2
*ACTIVE
 70
     0
 10
0.0
 20
0.0
 11
1.0
 21
1.0
 12
12.3782066421916
 22
-8.1466969072558371
 13
0.0
 23
0.0
 14
0.01
 24
0.01
 15
1.0
 25
1.0
 16
-1.0
 26
0.0
 36
0.0
 17
0.258566277702033
 27
-5.3530930313875116
 37
5.5720167005679828
 40
68.32336952251741
 41
1.767354596622889
 42
50.0
 43
0.0
 44
0.0
 50
0.0
 51
0.0
 71
     0
 72
   100
 73
     1
 74
     3
 75
     1
 76
     1
 77
     0
 78
     0
  0
ENDTAB
  0
TABLE
  2
LTYPE
 70
     2
  0
LTYPE
  2
CONTINUOUS
 70
     0
  3
Solid line
 72
    65
 73
     0
 40
0.0
  0
ENDTAB
  0
TABLE
  2
LAYER
 70
     5
  0
LAYER
  2
0
 70
     0
 62
     7
  6
CONTINUOUS
  0
LAYER
  2
DRAWING
 70
     0
 62
     9
  6
CONTINUOUS
  0
LAYER
  2
SLEEVE
 70
     0
 62
     5
  6
CONTINUOUS
  0
LAYER
  2
GUN
 70
     0
 62
     1
  6
CONTINUOUS
  0
LAYER
  2
MG_RING
 70
     0
 62
     3
  6
CONTINUOUS
  0
ENDTAB
  0
TABLE
  2
STYLE
 70
     1
  0
STYLE
  2
STANDARD
 70
     0
 40
0.0
 41
1.0
 50
0.0
 71
     0
 42
2.5
  3
txt
  4

  0
ENDTAB
  0
TABLE
  2
VIEW
 70
     0
  0
ENDTAB
  0
TABLE
  2
UCS
 70
     0
  0
ENDTAB
  0
TABLE
  2
APPID
 70
     3
  0
APPID
  2
ACAD
 70
     0
  0
APPID
  2
ACAD_EXEMPT_FROM_CAD_STANDARDS
 70
     0
  0
APPID
  2
ACAD_MLEADERVER
 70
     0
  0
ENDTAB
  0
TABLE
  2
DIMSTYLE
 70
     2
  0
DIMSTYLE
  2
ISO-25
 70
     0
  3

  4

  5

  6

  7

 40
1.0
 41
2.5
 42
0.625
 43
3.75
 44
1.25
 45
0.0
 46
0.0
 47
0.0
 48
0.0
140
2.5
141
2.5
142
0.0
143
0.03937007874016
144
1.0
145
0.0
146
1.0
147
0.625
 71
     0
 72
     0
 73
     0
 74
     0
 75
     0
 76
     0
 77
     1
 78
     8
170
     0
171
     3
172
     1
173
     0
174
     0
175
     0
176
     0
177
     0
178
     0
  0
ENDTAB
  0
ENDSEC
  0
SECTION
  2
BLOCKS
  0
BLOCK
  8
0
  2
$MODEL_SPACE
 70
     0
 10
0.0
 20
0.0
 30
0.0
  3
$MODEL_SPACE
  1

  0
ENDBLK
  5
21
  8
0
  0
BLOCK
 67
     1
  8
0
  2
$PAPER_SPACE
 70
     0
 10
0.0
 20
0.0
 30
0.0
  3
$PAPER_SPACE
  1

  0
ENDBLK
  5
1D
 67
     1
  8
0
  0
ENDSEC
  0
SECTION
  2
ENTITIES
  0
3DFACE
  5
301
  8
0
 10
0.0
 20
-1.1100000000000001
 30
0.0499999999999989
 11
0.0
 21
-1.1100000000000001
 31
0.2299999999999995
 12
0.3003691895543588
 22
-1.0624261940216979
 32
0.2299999999999995
 13
0.3003691895543588
 23
-1.0624261940216979
 33
0.0499999999999998
  0
3DFACE
  5
302
  8
0
 10
0.3003691895543588
 20
-1.0624261940216979
 30
0.0499999999999998
 11
0.3003691895543588
 21
-1.0624261940216979
 31
0.2299999999999995
 12
0.4542399732103332
 22
-1.009077026114104
 32
0.4099999999999993
 13
0.7400000000000001
 23
-0.9100000000000001
 33
0.0499999999999989
  0
3DFACE
  5
303
  8
0
 10
0.7400000000000001
 20
-0.9100000000000001
 30
0.0499999999999989
 11
0.7399999999999997
 21
-0.9100000000000001
 31
0.6099999999999995
 12
0.8980088637561919
 22
-0.6524416300446454
 32
0.2600000000000007
 13
0.8980088637561918
 23
-0.6524416300446454
 33
0.0499999999999989
  0
3DFACE
  5
304
  8
0
 10
0.8980088637561918
 20
-0.6524416300446454
 30
0.0499999999999989
 11
0.8980088637561919
 21
-0.6524416300446454
 31
0.2600000000000007
 12
1.0556727330876201
 22
-0.3430088637561921
 32
0.1099999999999994
 13
1.0556727330876201
 23
-0.3430088637561921
 33
0.0499999999999989
  0
3DFACE
  5
305
  8
0
 10
1.0556727330876201
 20
-0.3430088637561921
 30
0.0499999999999989
 11
1.0556727330876201
 21
-0.3430088637561921
 31
0.1099999999999994
 12
1.1100000000000001
 22
0.0
 32
0.0499999999999989
 13
1.1100000000000001
 23
0.0
 33
0.0499999999999989
  0
3DFACE
  5
310
  8
0
 10
-1.109999999999999
 20
0.0
 30
0.0499999999999989
 11
-1.109999999999999
 21
0.0
 31
0.0499999999999989
 12
-1.0556727330876201
 22
-0.3430088637561912
 32
0.1100000000000012
 13
-1.0556727330876201
 23
-0.3430088637561912
 33
0.0499999999999989
  0
3DFACE
  5
311
  8
0
 10
-1.0556727330876201
 20
-0.3430088637561912
 30
0.0499999999999989
 11
-1.0556727330876201
 21
-0.3430088637561912
 31
0.1100000000000012
 12
-0.8980088637561918
 22
-0.6524416300446454
 32
0.2599999999999998
 13
-0.8980088637561918
 23
-0.6524416300446454
 33
0.0499999999999989
  0
3DFACE
  5
312
  8
0
 10
-0.8980088637561918
 20
-0.6524416300446454
 30
0.0499999999999989
 11
-0.8980088637561918
 21
-0.6524416300446454
 31
0.2599999999999998
 12
-0.7400000000000001
 22
-0.9100000000000001
 32
0.6099999999999995
 13
-0.7400000000000001
 23
-0.9100000000000001
 33
0.0499999999999989
  0
3DFACE
  5
313
  8
0
 10
-0.7400000000000001
 20
-0.9100000000000001
 30
0.0499999999999989
 11
-0.4542399732103333
 21
-1.009077026114104
 31
0.4099999999999993
 12
-0.3003691895543588
 22
-1.0624261940216979
 32
0.2299999999999995
 13
-0.3003691895543588
 23
-1.0624261940216979
 33
0.0499999999999998
  0
3DFACE
  5
314
  8
0
 10
-0.3003691895543588
 20
-1.0624261940216979
 30
0.0499999999999998
 11
-0.3003691895543588
 21
-1.0624261940216979
 31
0.2299999999999995
 12
0.0
 22
-1.1100000000000001
 32
0.2299999999999995
 13
0.0
 23
-1.1100000000000001
 33
0.0499999999999989
  0
3DFACE
  5
320
  8
0
 10
0.7400000000000001
 20
-0.9100000000000001
 30
0.6099999999999995
 11
0.7400000000000001
 21
-0.910000000000001
 31
0.6899999999999995
 12
0.7604759747124512
 22
-0.5525181371549249
 32
0.7599999999999998
 13
0.8980088637561919
 23
-0.6524416300446454
 33
0.2599999999999998
  0
3DFACE
  5
321
  8
0
 10
0.8980088637561919
 20
-0.6524416300446454
 30
0.2599999999999998
 11
0.7604759747124512
 21
-0.5525181371549249
 31
0.7599999999999998
 12
0.8939931253174449
 22
-0.290475974712451
 32
0.7599999999999998
 13
1.0556727330876201
 23
-0.3430088637561921
 33
0.1099999999999994
  0
3DFACE
  5
322
  8
0
 10
1.0556727330876201
 20
-0.3430088637561921
 30
0.1099999999999994
 11
0.8939931253174449
 21
-0.290475974712451
 31
0.7599999999999998
 12
0.940000000000001
 22
0.0
 32
0.7599999999999998
 13
1.1100000000000001
 23
0.0
 33
0.0499999999999989
  0
3DFACE
  5
323
  8
0
 10
1.1100000000000001
 20
0.0
 30
0.0499999999999989
 11
0.940000000000001
 21
0.0
 31
0.7599999999999998
 12
0.8939931253174449
 22
0.2904759747124501
 32
0.7599999999999998
 13
1.0556727330876201
 23
0.3430088637561912
 33
0.0499999999999989
  0
3DFACE
  5
324
  8
0
 10
1.0556727330876201
 20
0.3430088637561912
 30
0.0499999999999989
 11
0.8939931253174449
 21
0.2904759747124501
 31
0.7599999999999998
 12
0.7604759747124512
 22
0.5525181371549249
 32
0.7599999999999998
 13
0.8980088637561919
 23
0.6524416300446454
 33
0.0499999999999989
  0
3DFACE
  5
325
  8
0
 10
0.8980088637561919
 20
0.6524416300446454
 30
0.0499999999999989
 11
0.7604759747124512
 21
0.5525181371549249
 31
0.7599999999999998
 12
0.6200000000000001
 22
0.7299999999999997
 32
0.7599999999999998
 13
0.6200000000000001
 23
1.0099999999999989
 33
0.0499999999999989
  0
3DFACE
  5
32A
  8
0
 10
-0.6200000000000001
 20
1.0099999999999989
 30
0.0499999999999989
 11
-0.6200000000000001
 21
0.7299999999999997
 31
0.7599999999999998
 12
-0.7604759747124495
 22
0.5525181371549249
 32
0.7599999999999998
 13
-0.8980088637561918
 23
0.6524416300446454
 33
0.0499999999999989
  0
3DFACE
  5
32B
  8
0
 10
-0.8980088637561918
 20
0.6524416300446454
 30
0.0499999999999989
 11
-0.7604759747124495
 21
0.5525181371549249
 31
0.7599999999999998
 12
-0.8939931253174439
 22
0.290475974712451
 32
0.7599999999999998
 13
-1.055672733087621
 23
0.3430088637561921
 33
0.0499999999999998
  0
3DFACE
  5
32C
  8
0
 10
-1.055672733087621
 20
0.3430088637561921
 30
0.0499999999999998
 11
-0.8939931253174439
 21
0.290475974712451
 31
0.7599999999999998
 12
-0.9399999999999998
 22
0.0
 32
0.7599999999999998
 13
-1.1100000000000001
 23
0.0
 33
0.0499999999999998
  0
3DFACE
  5
32D
  8
0
 10
-1.1100000000000001
 20
0.0
 30
0.0499999999999998
 11
-0.9399999999999998
 21
0.0
 31
0.7599999999999998
 12
-0.8939931253174439
 22
-0.2904759747124501
 32
0.7599999999999998
 13
-1.055672733087621
 23
-0.3430088637561912
 33
0.1099999999999994
  0
3DFACE
  5
32E
  8
0
 10
-1.055672733087621
 20
-0.3430088637561912
 30
0.1099999999999994
 11
-0.8939931253174439
 21
-0.2904759747124501
 31
0.7599999999999998
 12
-0.7604759747124504
 22
-0.5525181371549249
 32
0.7599999999999998
 13
-0.8980088637561918
 23
-0.6524416300446454
 33
0.2599999999999998
  0
3DFACE
  5
32F
  8
0
 10
-0.8980088637561918
 20
-0.6524416300446454
 30
0.2599999999999998
 11
-0.7604759747124504
 21
-0.5525181371549249
 31
0.7599999999999998
 12
-0.7400000000000001
 22
-0.910000000000001
 32
0.6899999999999995
 13
-0.7400000000000001
 23
-0.9100000000000001
 33
0.6099999999999995
  0
3DFACE
  5
338
  8
0
 10
0.48
 20
-1.910000000000001
 30
0.6899999999999995
 11
0.48
 21
-1.910000000000001
 31
0.6099999999999995
 12
0.7400000000000001
 22
-0.910000000000001
 32
0.6099999999999995
 13
0.7400000000000001
 23
-0.910000000000001
 33
0.6899999999999995
  0
3DFACE
  5
33B
  8
0
 10
-0.7400000000000001
 20
-0.910000000000001
 30
0.6099999999999995
 11
-0.4799999999999996
 21
-1.910000000000001
 31
0.6099999999999995
 12
-0.4799999999999996
 22
-1.910000000000001
 32
0.6899999999999995
 13
-0.7400000000000001
 23
-0.910000000000001
 33
0.6899999999999995
  0
3DFACE
  5
347
  8
0
 10
0.4600000000000001
 20
-1.910000000000001
 30
0.5599999999999996
 11
0.22
 21
-1.910000000000001
 31
0.4099999999999993
 12
0.4542399732103332
 22
-1.009077026114104
 32
0.4099999999999993
 13
0.7180184594777181
 23
-0.9176213097010847
 33
0.5599999999999988
  0
3DFACE
  5
34A
  8
0
 10
-0.4542399732103333
 20
-1.009077026114104
 30
0.4099999999999993
 11
-0.22
 21
-1.910000000000001
 31
0.4099999999999993
 12
-0.4600000000000001
 22
-1.910000000000001
 32
0.5599999999999996
 13
-0.7180184594777181
 23
-0.9176213097010847
 33
0.5599999999999988
  0
3DFACE
  5
35D
  8
0
 10
0.48
 20
-1.910000000000001
 30
0.6099999999999995
 11
0.4600000000000001
 21
-1.910000000000001
 31
0.5599999999999996
 12
0.7180184594777181
 22
-0.9176213097010847
 32
0.5599999999999988
 13
0.7400000000000001
 23
-0.910000000000001
 33
0.6099999999999995
  0
3DFACE
  5
360
  8
0
 10
-0.7180184594777181
 20
-0.9176213097010847
 30
0.5599999999999988
 11
-0.4600000000000001
 21
-1.910000000000001
 31
0.5599999999999996
 12
-0.4799999999999996
 22
-1.910000000000001
 32
0.6099999999999995
 13
-0.7400000000000001
 23
-0.910000000000001
 33
0.6099999999999995
  0
3DFACE
  5
365
  8
0
 10
0.38
 20
-1.910000000000001
 30
0.7900000000000002
 11
0.48
 21
-1.910000000000001
 31
0.6899999999999995
 12
0.7400000000000001
 22
-0.910000000000001
 32
0.6899999999999995
 13
0.6400000000000001
 23
-0.910000000000001
 33
0.7900000000000002
  0
3DFACE
  5
368
  8
0
 10
-0.7400000000000001
 20
-0.910000000000001
 30
0.6899999999999995
 11
-0.4799999999999996
 21
-1.910000000000001
 31
0.6899999999999995
 12
-0.38
 22
-1.910000000000001
 32
0.7900000000000002
 13
-0.6400000000000001
 23
-0.910000000000001
 33
0.7900000000000002
  0
3DFACE
  5
369
  8
0
 10
-0.6400000000000001
 20
-0.910000000000001
 30
0.7900000000000002
 11
-0.38
 21
-1.910000000000001
 31
0.7900000000000002
 12
0.38
 22
-1.910000000000001
 32
0.7900000000000002
 13
0.6400000000000001
 23
-0.910000000000001
 33
0.7900000000000002
  0
3DFACE
  5
376
  8
0
 10
0.22
 20
-1.910000000000001
 30
0.4099999999999993
 11
0.08
 21
-1.910000000000001
 31
0.2299999999999995
 12
0.3003691895543588
 22
-1.0624261940216979
 32
0.2299999999999995
 13
0.4542399732103332
 23
-1.009077026114104
 33
0.4099999999999993
  0
3DFACE
  5
378
  8
0
 10
0.3003691895543588
 20
-1.0624261940216979
 30
0.2299999999999995
 11
0.08
 21
-1.910000000000001
 31
0.2299999999999995
 12
-0.08
 22
-1.910000000000001
 32
0.2299999999999995
 13
0.0
 23
-1.1100000000000001
 33
0.2299999999999995
  0
3DFACE
  5
379
  8
0
 10
-0.3003691895543587
 20
-1.0624261940216979
 30
0.2299999999999995
 11
-0.08
 21
-1.910000000000001
 31
0.2299999999999995
 12
-0.22
 22
-1.910000000000001
 32
0.4099999999999993
 13
-0.4542399732103333
 23
-1.009077026114104
 33
0.4099999999999993
  0
3DFACE
  5
3CD
  8
0
 10
-0.48
 20
-1.909999999999999
 30
0.6899999999999995
 11
-0.48
 21
-1.909999999999999
 31
0.6099999999999995
 12
-0.4100000000000001
 22
-1.9599999999999991
 32
0.6099999999999995
 13
-0.4100000000000001
 23
-1.9599999999999991
 33
0.6899999999999995
  0
3DFACE
  5
3CE
  8
0
 10
-0.4100000000000001
 20
-1.9599999999999991
 30
0.6899999999999995
 11
-0.4100000000000001
 21
-1.9599999999999991
 31
0.6099999999999995
 12
0.4100000000000001
 22
-1.9599999999999991
 32
0.6099999999999995
 13
0.4100000000000001
 23
-1.9599999999999991
 33
0.6899999999999995
  0
3DFACE
  5
3D0
  8
0
 10
0.4100000000000001
 20
-1.9599999999999991
 30
0.6099999999999995
 11
0.4799999999999996
 21
-1.909999999999999
 31
0.6099999999999995
 12
0.4799999999999996
 22
-1.909999999999999
 32
0.6899999999999995
 13
0.4100000000000001
 23
-1.9599999999999991
 33
0.6899999999999995
  0
3DFACE
  5
3D3
  8
0
 10
-0.4600000000000001
 20
-1.909999999999999
 30
0.5599999999999996
 11
-0.22
 21
-1.909999999999999
 31
0.4099999999999993
 12
-0.15
 22
-1.9599999999999991
 32
0.4099999999999993
 13
-0.39
 23
-1.9599999999999991
 33
0.5599999999999996
  0
3DFACE
  5
3D4
  8
0
 10
-0.04
 20
-1.9599999999999991
 30
0.4299999999999998
 11
-0.15
 21
-1.9599999999999991
 31
0.4099999999999993
 12
0.15
 22
-1.9599999999999991
 32
0.4099999999999993
 13
0.04
 23
-1.9599999999999991
 33
0.4299999999999998
  0
3DFACE
  5
3D6
  8
0
 10
0.15
 20
-1.9599999999999991
 30
0.4099999999999993
 11
0.22
 21
-1.909999999999999
 31
0.4099999999999993
 12
0.4600000000000001
 22
-1.909999999999999
 32
0.5599999999999996
 13
0.39
 23
-1.9599999999999991
 33
0.5599999999999996
  0
3DFACE
  5
3D9
  8
0
 10
-0.48
 20
-1.909999999999999
 30
0.6099999999999995
 11
-0.4600000000000001
 21
-1.909999999999999
 31
0.5599999999999996
 12
-0.39
 22
-1.9599999999999991
 32
0.5599999999999996
 13
-0.4100000000000001
 23
-1.9599999999999991
 33
0.6099999999999995
  0
3DFACE
  5
3DA
  8
0
 10
-0.4100000000000001
 20
-1.9599999999999991
 30
0.6099999999999995
 11
-0.39
 21
-1.9599999999999991
 31
0.5599999999999996
 12
0.39
 22
-1.9599999999999991
 32
0.5599999999999996
 13
0.4100000000000001
 23
-1.9599999999999991
 33
0.6099999999999995
  0
3DFACE
  5
3DC
  8
0
 10
0.39
 20
-1.9599999999999991
 30
0.5599999999999996
 11
0.4600000000000001
 21
-1.909999999999999
 31
0.5599999999999996
 12
0.4799999999999996
 22
-1.909999999999999
 32
0.6099999999999995
 13
0.4100000000000001
 23
-1.9599999999999991
 33
0.6099999999999995
  0
3DFACE
  5
3DF
  8
0
 10
-0.38
 20
-1.909999999999999
 30
0.7900000000000002
 11
-0.48
 21
-1.909999999999999
 31
0.6899999999999995
 12
-0.4100000000000001
 22
-1.9599999999999991
 32
0.6899999999999995
 13
-0.31
 23
-1.9599999999999991
 33
0.7299999999999997
  0
3DFACE
  5
3E0
  8
0
 10
-0.31
 20
-1.9599999999999991
 30
0.7299999999999997
 11
-0.4100000000000001
 21
-1.9599999999999991
 31
0.6899999999999995
 12
0.4100000000000001
 22
-1.9599999999999991
 32
0.6899999999999995
 13
0.31
 23
-1.9599999999999991
 33
0.7299999999999997
  0
3DFACE
  5
3E2
  8
0
 10
0.4100000000000001
 20
-1.9599999999999991
 30
0.6899999999999995
 11
0.4799999999999996
 21
-1.909999999999999
 31
0.6899999999999995
 12
0.38
 22
-1.909999999999999
 32
0.7900000000000002
 13
0.31
 23
-1.9599999999999991
 33
0.7299999999999997
  0
3DFACE
  5
3E3
  8
0
 10
0.31
 20
-1.9599999999999991
 30
0.7299999999999997
 11
0.38
 21
-1.909999999999999
 31
0.7900000000000002
 12
-0.38
 22
-1.909999999999999
 32
0.7900000000000002
 13
-0.31
 23
-1.9599999999999991
 33
0.7299999999999997
  0
3DFACE
  5
3E5
  8
0
 10
-0.22
 20
-1.909999999999999
 30
0.4099999999999993
 11
-0.08
 21
-1.909999999999999
 31
0.2299999999999995
 12
-0.06
 22
-1.9599999999999991
 32
0.29
 13
-0.15
 23
-1.9599999999999991
 33
0.4099999999999993
  0
3DFACE
  5
3E6
  8
0
 10
-0.15
 20
-1.9599999999999991
 30
0.4099999999999993
 11
-0.06
 21
-1.9599999999999991
 31
0.29
 12
0.06
 22
-1.9599999999999991
 32
0.29
 13
0.15
 23
-1.9599999999999991
 33
0.4099999999999993
  0
3DFACE
  5
3E7
  8
0
 10
-0.06
 20
-1.9599999999999991
 30
0.29
 11
-0.08
 21
-1.909999999999999
 31
0.2299999999999995
 12
0.08
 22
-1.909999999999999
 32
0.2299999999999995
 13
0.06
 23
-1.9599999999999991
 33
0.29
  0
3DFACE
  5
3E8
  8
0
 10
0.06
 20
-1.9599999999999991
 30
0.29
 11
0.08
 21
-1.909999999999999
 31
0.2299999999999995
 12
0.22
 22
-1.909999999999999
 32
0.4099999999999993
 13
0.15
 23
-1.9599999999999991
 33
0.4099999999999993
  0
3DFACE
  5
403
  8
0
 10
-0.6200000000000001
 20
0.5599999999999996
 30
0.7599999999999998
 11
-0.6200000000000001
 21
0.9599999999999999
 31
0.0499999999999989
 12
-0.8575580140374441
 22
0.6230523674300219
 32
0.0499999999999989
 13
-0.663393935387457
 23
0.4819839068798278
 33
0.7599999999999998
  0
3DFACE
  5
404
  8
0
 10
-0.663393935387457
 20
0.4819839068798278
 30
0.7599999999999998
 11
-0.8575580140374441
 21
0.6230523674300219
 31
0.0499999999999989
 12
-1.0081199072728619
 22
0.3275580140374448
 32
0.0499999999999989
 13
-0.779866343362026
 23
0.2533939353874572
 33
0.7599999999999998
  0
3DFACE
  5
405
  8
0
 10
-0.779866343362026
 20
0.2533939353874572
 30
0.7599999999999998
 11
-1.0081199072728619
 21
0.3275580140374448
 31
0.0499999999999989
 12
-1.0600000000000001
 22
0.0
 32
0.0499999999999989
 13
-0.82
 23
0.0
 33
0.7599999999999998
  0
3DFACE
  5
406
  8
0
 10
-0.82
 20
0.0
 30
0.7599999999999998
 11
-1.0600000000000001
 21
0.0
 31
0.0499999999999989
 12
-1.0081199072728619
 22
-0.3275580140374439
 32
0.0499999999999989
 13
-0.7700000000000001
 23
-0.2533939353874572
 33
0.7599999999999998
  0
3DFACE
  5
407
  8
0
 10
-0.7700000000000001
 20
-0.2533939353874572
 30
0.7599999999999998
 11
-1.0081199072728619
 21
-0.3275580140374439
 31
0.0499999999999989
 12
-0.8575580140374443
 22
-0.6230523674300219
 32
0.0499999999999989
 13
-0.72
 23
-0.4819839068798278
 33
0.7599999999999998
  0
3DFACE
  5
408
  8
0
 10
-0.72
 20
-0.4819839068798278
 30
0.7599999999999998
 11
-0.8575580140374443
 21
-0.6230523674300219
 31
0.0499999999999989
 12
-0.6900000000000001
 22
-0.9100000000000001
 32
0.0499999999999989
 13
-0.63
 23
-0.9100000000000001
 33
0.7599999999999998
  0
3DFACE
  5
40D
  8
0
 10
0.63
 20
-0.9100000000000001
 30
0.7599999999999998
 11
0.6900000000000001
 21
-0.9100000000000001
 31
0.0499999999999989
 12
0.8575580140374441
 22
-0.6230523674300219
 32
0.0499999999999989
 13
0.72
 23
-0.4819839068798278
 33
0.7599999999999998
  0
3DFACE
  5
40E
  8
0
 10
0.72
 20
-0.4819839068798278
 30
0.7599999999999998
 11
0.8575580140374441
 21
-0.6230523674300219
 31
0.0499999999999989
 12
1.0081199072728619
 22
-0.3275580140374448
 32
0.0499999999999989
 13
0.7700000000000001
 23
-0.2533939353874572
 33
0.7599999999999998
  0
3DFACE
  5
40F
  8
0
 10
0.7700000000000001
 20
-0.2533939353874572
 30
0.7599999999999998
 11
1.0081199072728619
 21
-0.3275580140374448
 31
0.0499999999999989
 12
1.0600000000000001
 22
0.0
 32
0.0499999999999989
 13
0.82
 23
0.0
 33
0.7599999999999998
  0
3DFACE
  5
410
  8
0
 10
0.82
 20
0.0
 30
0.7599999999999998
 11
1.0600000000000001
 21
0.0
 31
0.0499999999999989
 12
1.0081199072728619
 22
0.3275580140374439
 32
0.0499999999999989
 13
0.7798663433620261
 23
0.2533939353874564
 33
0.7599999999999998
  0
3DFACE
  5
411
  8
0
 10
0.7798663433620261
 20
0.2533939353874564
 30
0.7599999999999998
 11
1.0081199072728619
 21
0.3275580140374439
 31
0.0499999999999989
 12
0.8575580140374444
 22
0.6230523674300211
 32
0.0499999999999989
 13
0.663393935387457
 23
0.4819839068798278
 33
0.7599999999999998
  0
3DFACE
  5
412
  8
0
 10
0.663393935387457
 20
0.4819839068798278
 30
0.7599999999999998
 11
0.8575580140374444
 21
0.6230523674300211
 31
0.0499999999999989
 12
0.6200000000000001
 22
0.9599999999999999
 32
0.0499999999999989
 13
0.6200000000000001
 23
0.5599999999999996
 33
0.7599999999999998
  0
3DFACE
  5
415
  8
0
 10
0.8939931253174449
 20
-0.290475974712451
 30
0.7599999999999998
 11
0.7700000000000001
 21
-0.2533939353874572
 31
0.7599999999999998
 12
0.82
 22
0.0
 32
0.7599999999999998
 13
0.940000000000001
 23
0.0
 33
0.7599999999999998
  0
3DFACE
  5
416
  8
0
 10
0.7604759747124512
 20
-0.5525181371549249
 30
0.7599999999999998
 11
0.72
 21
-0.4819839068798278
 31
0.7599999999999998
 12
0.7700000000000001
 22
-0.2533939353874572
 32
0.7599999999999998
 13
0.8939931253174449
 23
-0.290475974712451
 33
0.7599999999999998
  0
3DFACE
  5
419
  8
0
 10
0.940000000000001
 20
0.0
 30
0.7599999999999998
 11
0.82
 21
0.0
 31
0.7599999999999998
 12
0.7798663433620261
 22
0.2533939353874564
 32
0.7599999999999998
 13
0.8939931253174449
 23
0.2904759747124501
 33
0.7599999999999998
  0
3DFACE
  5
41A
  8
0
 10
0.8939931253174449
 20
0.2904759747124501
 30
0.7599999999999998
 11
0.7798663433620261
 21
0.2533939353874564
 31
0.7599999999999998
 12
0.663393935387457
 22
0.4819839068798278
 32
0.7599999999999998
 13
0.7604759747124512
 23
0.5525181371549249
 33
0.7599999999999998
  0
3DFACE
  5
41B
  8
0
 10
0.7604759747124512
 20
0.5525181371549249
 30
0.7599999999999998
 11
0.663393935387457
 21
0.4819839068798278
 31
0.7599999999999998
 12
0.6200000000000001
 22
0.5599999999999996
 32
0.7599999999999998
 13
0.6200000000000001
 23
0.7299999999999997
 33
0.7599999999999998
  0
3DFACE
  5
420
  8
0
 10
-0.6200000000000001
 20
0.7299999999999997
 30
0.7599999999999998
 11
-0.6200000000000001
 21
0.5599999999999996
 31
0.7599999999999998
 12
-0.663393935387457
 22
0.4819839068798278
 32
0.7599999999999998
 13
-0.7604759747124495
 23
0.5525181371549249
 33
0.7599999999999998
  0
3DFACE
  5
421
  8
0
 10
-0.7604759747124495
 20
0.5525181371549249
 30
0.7599999999999998
 11
-0.663393935387457
 21
0.4819839068798278
 31
0.7599999999999998
 12
-0.779866343362026
 22
0.2533939353874572
 32
0.7599999999999998
 13
-0.8939931253174439
 23
0.290475974712451
 33
0.7599999999999998
  0
3DFACE
  5
422
  8
0
 10
-0.8939931253174442
 20
0.2904759747124492
 30
0.7599999999999998
 11
-0.779866343362026
 21
0.2533939353874572
 31
0.7599999999999998
 12
-0.82
 22
0.0
 32
0.7599999999999998
 13
-0.9399999999999998
 23
0.0
 33
0.7599999999999998
  0
3DFACE
  5
423
  8
0
 10
-0.9399999999999998
 20
-0.0000000000000009
 30
0.7599999999999998
 11
-0.82
 21
0.0
 31
0.7599999999999998
 12
-0.7700000000000001
 22
-0.2533939353874572
 32
0.7599999999999998
 13
-0.8939931253174439
 23
-0.2904759747124501
 33
0.7599999999999998
  0
3DFACE
  5
424
  8
0
 10
-0.8939931253174444
 20
-0.2904759747124501
 30
0.7599999999999998
 11
-0.7700000000000001
 21
-0.2533939353874572
 31
0.7599999999999998
 12
-0.72
 22
-0.4819839068798278
 32
0.7599999999999998
 13
-0.7604759747124504
 23
-0.5525181371549249
 33
0.7599999999999998
  0
3DFACE
  5
4A4
  8
0
 10
0.7400000000000003
 20
-0.9100000000000001
 30
0.6900000000000004
 11
0.6700000000000002
 21
-0.9100000000000001
 31
0.7599999999999998
 12
0.7604759747124512
 22
-0.5525181371549249
 32
0.7599999999999998
 13
0.7604759747124512
 23
-0.5525181371549249
 33
0.7599999999999998
  0
3DFACE
  5
4A5
  8
0
 10
-0.7604759747124504
 20
-0.5525181371549249
 30
0.7599999999999998
 11
-0.7604759747124504
 21
-0.5525181371549249
 31
0.7599999999999998
 12
-0.6700000000000002
 22
-0.9100000000000001
 32
0.7599999999999998
 13
-0.7399999999999998
 23
-0.910000000000001
 33
0.6899999999999995
  0
3DFACE
  5
4A9
  8
0
 10
0.67
 20
-0.910000000000001
 30
0.7599999999999998
 11
0.63
 21
-0.9100000000000001
 31
0.7599999999999998
 12
0.72
 22
-0.4819839068798278
 32
0.7599999999999998
 13
0.7604759747124512
 23
-0.5525181371549249
 33
0.7599999999999998
  0
3DFACE
  5
4AA
  8
0
 10
-0.760475974712451
 20
-0.552518137154924
 30
0.7599999999999998
 11
-0.7200000000000009
 21
-0.4819839068798242
 31
0.7599999999999998
 12
-0.63
 22
-0.9100000000000001
 32
0.7599999999999998
 13
-0.67
 23
-0.910000000000001
 33
0.7599999999999998
  0
3DFACE
  5
4AB
  8
0
 10
-0.63
 20
-0.9100000000000001
 30
0.7599999999999998
 11
-0.6900000000000001
 21
-0.9100000000000001
 31
0.0499999999999989
 12
0.69
 22
-0.9100000000000001
 32
0.0499999999999989
 13
0.6299999999999999
 23
-0.9100000000000001
 33
0.7599999999999998
  0
3DFACE
  5
4AC
  8
0
 10
-0.67
 20
-0.910000000000001
 30
0.7599999999999998
 11
-0.6400000000000001
 21
-0.910000000000001
 31
0.7900000000000002
 12
0.6400000000000001
 22
-0.910000000000001
 32
0.7900000000000002
 13
0.67
 23
-0.910000000000001
 33
0.7599999999999998
  0
3DFACE
  5
4B0
  8
0
 10
0.0
 20
-1.1100000000000001
 30
0.2299999999999995
 11
-0.08
 21
-1.910000000000001
 31
0.2299999999999995
 12
-0.08
 22
-1.910000000000001
 32
0.2299999999999995
 13
-0.3003691895543587
 23
-1.0624261940216979
 33
0.2299999999999995
  0
3DFACE
  5
502
  8
0
 10
-0.7400000000000001
 20
-0.9100000000000001
 30
0.0499999999999989
 11
-0.7180184594777183
 21
-0.9176213097010847
 31
0.5599999999999988
 12
-0.4542399732103333
 22
-1.009077026114104
 32
0.4099999999999993
 13
-0.7400000000000001
 23
-0.9100000000000001
 33
0.0499999999999989
  0
3DFACE
  5
503
  8
0
 10
-0.7400000000000001
 20
-0.9100000000000001
 30
0.0499999999999989
 11
-0.7400000000000002
 21
-0.910000000000001
 31
0.6099999999999995
 12
-0.7180184594777181
 22
-0.9176213097010847
 32
0.5599999999999988
 13
-0.7400000000000001
 23
-0.9100000000000001
 33
0.0499999999999989
  0
3DFACE
  5
504
  8
0
 10
0.7400000000000001
 20
-0.9100000000000001
 30
0.0499999999999989
 11
0.4542399732103333
 21
-1.009077026114104
 31
0.4099999999999993
 12
0.718018459477718
 22
-0.9176213097010847
 32
0.5599999999999988
 13
0.7400000000000001
 23
-0.9100000000000001
 33
0.0499999999999989
  0
3DFACE
  5
505
  8
0
 10
0.7400000000000001
 20
-0.9100000000000001
 30
0.0499999999999989
 11
0.718018459477718
 21
-0.9176213097010847
 31
0.5599999999999988
 12
0.7399999999999997
 22
-0.910000000000001
 32
0.6099999999999987
 13
0.7400000000000001
 23
-0.9100000000000001
 33
0.0499999999999989
  0
3DFACE
  5
5F3
  8
0
 10
-0.6200000000000001
 20
0.5599999999999996
 30
0.7599999999999998
 11
-0.6200000000000001
 21
0.9599999999999999
 31
0.0499999999999998
 12
0.6200000000000001
 22
0.9599999999999999
 32
0.0499999999999998
 13
0.6200000000000001
 23
0.5599999999999996
 33
0.7599999999999998
  0
3DFACE
  5
5F5
  8
0
 10
0.6200000000000001
 20
0.9784507042253519
 30
0.1299999999999999
 11
0.6200000000000001
 21
1.0099999999999989
 31
0.0499999999999998
 12
-0.6200000000000001
 22
1.0099999999999989
 32
0.0499999999999998
 13
-0.6199999999999993
 23
0.9784507042253519
 33
0.1299999999999999
  0
3DFACE
  5
5F8
  8
0
 10
-0.6200000000000001
 20
0.7299999999999997
 30
0.7599999999999998
 11
-0.6200000000000001
 21
0.5599999999999996
 31
0.7599999999999998
 12
0.6200000000000001
 22
0.5599999999999996
 32
0.7599999999999998
 13
0.6200000000000001
 23
0.7299999999999997
 33
0.7599999999999998
  0
3DFACE
  5
690
  8
0
 10
0.6200000000000001
 20
0.7694366197183093
 30
0.6599999999999993
 11
0.6200000000000001
 21
0.9784507042253519
 31
0.1299999999999999
 12
0.6200000000000001
 22
1.0399999999999989
 32
0.1299999999999999
 13
0.6200000000000001
 23
0.9499999999999996
 33
0.6599999999999993
  0
3DFACE
  5
692
  8
0
 10
0.6200000000000001
 20
1.0399999999999989
 30
0.1299999999999999
 11
0.6200000000000001
 21
0.9784507042253519
 31
0.1299999999999999
 12
-0.6199999999999993
 22
0.9784507042253519
 32
0.1299999999999999
 13
-0.6199999999999993
 23
1.0399999999999989
 33
0.1299999999999999
  0
3DFACE
  5
693
  8
0
 10
-0.6199999999999993
 20
1.0399999999999989
 30
0.1299999999999999
 11
-0.6199999999999993
 21
0.9784507042253519
 31
0.1299999999999999
 12
-0.6199999999999993
 22
0.7694366197183093
 32
0.6599999999999993
 13
-0.6199999999999993
 23
0.9499999999999996
 33
0.6599999999999993
  0
3DFACE
  5
694
  8
0
 10
-0.6199999999999993
 20
0.9499999999999996
 30
0.6599999999999993
 11
-0.6199999999999993
 21
0.7694366197183093
 31
0.6599999999999993
 12
0.6200000000000001
 22
0.7694366197183093
 32
0.6599999999999993
 13
0.6200000000000001
 23
0.9499999999999996
 33
0.6599999999999993
  0
3DFACE
  5
697
  8
0
 10
0.6200000000000001
 20
0.9499999999999996
 30
0.6599999999999993
 11
0.6200000000000001
 21
1.0399999999999989
 31
0.1299999999999999
 12
0.6200000000000001
 22
1.149999999999999
 32
0.25
 13
0.6200000000000001
 23
1.149999999999999
 33
0.5499999999999999
  0
3DFACE
  5
699
  8
0
 10
0.6200000000000001
 20
1.149999999999999
 30
0.25
 11
0.6200000000000001
 21
1.0399999999999989
 31
0.1299999999999999
 12
-0.6199999999999993
 22
1.0399999999999989
 32
0.1299999999999999
 13
-0.6199999999999993
 23
1.149999999999999
 33
0.25
  0
3DFACE
  5
69A
  8
0
 10
-0.6199999999999993
 20
1.149999999999999
 30
0.25
 11
-0.6199999999999993
 21
1.0399999999999989
 31
0.1299999999999999
 12
-0.6199999999999993
 22
0.9499999999999996
 32
0.6599999999999993
 13
-0.6199999999999993
 23
1.149999999999999
 33
0.5499999999999999
  0
3DFACE
  5
69B
  8
0
 10
-0.6199999999999993
 20
1.149999999999999
 30
0.5499999999999999
 11
-0.6199999999999993
 21
0.9499999999999996
 31
0.6599999999999993
 12
0.6200000000000001
 22
0.9499999999999996
 32
0.6599999999999993
 13
0.6200000000000001
 23
1.149999999999999
 33
0.5499999999999999
  0
3DFACE
  5
6A1
  8
0
 10
0.6200000000000001
 20
0.7299999999999997
 30
0.7599999999999998
 11
0.6200000000000001
 21
0.7694366197183093
 31
0.6600000000000003
 12
-0.6200000000000001
 22
0.7694366197183093
 32
0.6600000000000003
 13
-0.6200000000000001
 23
0.7299999999999997
 33
0.7599999999999998
  0
3DFACE
  5
962
  8
0
 10
1.1100000000000001
 20
0.0
 30
0.0499999999999998
 11
1.0900000000000001
 21
0.0
 31
0.0
 12
1.036651602761717
 22
-0.336828523868693
 32
0.0
 13
1.0556727330876201
 23
-0.3430088637561912
 33
0.0499999999999998
  0
3DFACE
  5
963
  8
0
 10
1.0556727330876201
 20
-0.3430088637561912
 30
0.0499999999999998
 11
1.036651602761717
 21
-0.336828523868693
 31
0.0
 12
0.8818285238686927
 22
-0.6406859249987953
 32
0.0
 13
0.8980088637561916
 23
-0.6524416300446454
 33
0.0499999999999998
  0
3DFACE
  5
964
  8
0
 10
0.8980088637561916
 20
-0.6524416300446454
 30
0.0499999999999998
 11
0.8818285238686927
 21
-0.6406859249987953
 31
0.0
 12
0.640685924998796
 22
-0.8818285238686929
 32
0.0
 13
0.7400000000000001
 23
-0.9100000000000001
 33
0.0499999999999989
  0
3DFACE
  5
965
  8
0
 10
0.7400000000000001
 20
-0.9100000000000001
 30
0.0499999999999989
 11
0.640685924998796
 21
-0.8818285238686929
 31
0.0
 12
0.3368285238686928
 22
-1.0366516027617161
 32
0.0
 13
0.3003691895543588
 23
-1.0624261940216979
 33
0.0499999999999998
  0
3DFACE
  5
966
  8
0
 10
0.3003691895543588
 20
-1.0624261940216979
 30
0.0499999999999998
 11
0.3368285238686928
 21
-1.0366516027617161
 31
0.0
 12
0.0000000000000001
 22
-1.089999999999999
 32
0.0
 13
0.0000000000000001
 23
-1.1100000000000001
 33
0.0499999999999998
  0
3DFACE
  5
967
  8
0
 10
0.0000000000000001
 20
-1.1100000000000001
 30
0.0499999999999998
 11
0.0000000000000001
 21
-1.089999999999999
 31
0.0
 12
-0.3368285238686926
 22
-1.0366516027617161
 32
0.0
 13
-0.3003691895543588
 23
-1.0624261940216979
 33
0.0499999999999998
  0
3DFACE
  5
968
  8
0
 10
-0.3003691895543588
 20
-1.0624261940216979
 30
0.0499999999999998
 11
-0.3368285238686926
 21
-1.0366516027617161
 31
0.0
 12
-0.6406859249987958
 22
-0.8818285238686929
 32
0.0
 13
-0.7400000000000001
 23
-0.9100000000000001
 33
0.0499999999999989
  0
3DFACE
  5
969
  8
0
 10
-0.7400000000000001
 20
-0.9100000000000001
 30
0.0499999999999989
 11
-0.6406859249987958
 21
-0.8818285238686929
 31
0.0
 12
-0.8818285238686927
 22
-0.6406859249987962
 32
0.0
 13
-0.8980088637561916
 23
-0.6524416300446454
 33
0.0499999999999998
  0
3DFACE
  5
96A
  8
0
 10
-0.8980088637561916
 20
-0.6524416300446454
 30
0.0499999999999998
 11
-0.8818285238686927
 21
-0.6406859249987962
 31
0.0
 12
-1.036651602761717
 22
-0.336828523868693
 32
0.0
 13
-1.0556727330876201
 23
-0.3430088637561921
 33
0.0499999999999998
  0
3DFACE
  5
96B
  8
0
 10
-1.0556727330876201
 20
-0.3430088637561921
 30
0.0499999999999998
 11
-1.036651602761717
 21
-0.336828523868693
 31
0.0
 12
-1.0900000000000001
 22
0.0
 32
0.0
 13
-1.1100000000000001
 23
0.0
 33
0.0499999999999998
  0
3DFACE
  5
96C
  8
0
 10
-1.1100000000000001
 20
0.0
 30
0.0499999999999998
 11
-1.0900000000000001
 21
0.0
 31
0.0
 12
-1.036651602761717
 22
0.336828523868693
 32
0.0
 13
-1.0556727330876201
 23
0.3430088637561912
 33
0.0499999999999998
  0
3DFACE
  5
96D
  8
0
 10
-1.0556727330876201
 20
0.3430088637561912
 30
0.0499999999999998
 11
-1.036651602761717
 21
0.336828523868693
 31
0.0
 12
-0.8818285238686927
 22
0.6406859249987953
 32
0.0
 13
-0.8980088637561918
 23
0.6524416300446454
 33
0.0499999999999998
  0
3DFACE
  5
96E
  8
0
 10
-0.8980088637561918
 20
0.6524416300446454
 30
0.0499999999999998
 11
-0.8818285238686927
 21
0.6406859249987953
 31
0.0
 12
-0.640685924998796
 22
0.8818285238686929
 32
0.0
 13
-0.6200000000000001
 23
1.0099999999999989
 33
0.0499999999999998
  0
3DFACE
  5
973
  8
0
 10
0.6200000000000001
 20
1.0099999999999989
 30
0.0499999999999998
 11
0.6406859249987957
 21
0.8818285238686929
 31
0.0
 12
0.8818285238686925
 22
0.6406859249987962
 32
0.0
 13
0.8980088637561916
 23
0.6524416300446454
 33
0.0499999999999998
  0
3DFACE
  5
974
  8
0
 10
0.8980088637561916
 20
0.6524416300446454
 30
0.0499999999999998
 11
0.8818285238686925
 21
0.6406859249987962
 31
0.0
 12
1.036651602761717
 22
0.336828523868693
 32
0.0
 13
1.0556727330876201
 23
0.3430088637561921
 33
0.0499999999999998
  0
3DFACE
  5
975
  8
0
 10
1.0556727330876201
 20
0.3430088637561921
 30
0.0499999999999998
 11
1.036651602761717
 21
0.336828523868693
 31
0.0
 12
1.0900000000000001
 22
0.0
 32
0.0
 13
1.1100000000000001
 23
0.0
 33
0.0499999999999998
  0
3DFACE
  5
976
  8
0
 10
-0.6200000000000001
 20
1.0099999999999989
 30
0.0499999999999998
 11
-0.6406859249987961
 21
0.8818285238686929
 31
0.0
 12
0.6406859249987957
 22
0.8818285238686929
 32
0.0
 13
0.6200000000000003
 23
1.0099999999999989
 33
0.0499999999999998
  0
3DFACE
  5
9C6
  8
0
 10
-0.06
 20
-0.9499999967821581
 30
1.3199999973062939
 11
-0.06
 21
-1.0600000000000009
 31
1.1399999999999999
 12
-0.06
 22
-0.9800000000000013
 32
1.1399999999999999
 13
-0.06
 23
-0.8899999967821576
 33
1.3199999973062939
  0
3DFACE
  5
9C7
  8
0
 10
0.06
 20
-0.9499999967821581
 30
1.3199999973062939
 11
0.06
 21
-1.0600000000000009
 31
1.1399999999999999
 12
0.06
 22
-0.9800000000000013
 32
1.1399999999999999
 13
0.06
 23
-0.8899999967821576
 33
1.3199999973062939
  0
3DFACE
  5
9EC
  8
0
 10
-0.06
 20
-0.9499999967821581
 30
1.3199999973062939
 11
-0.06
 21
-1.0600000000000009
 31
1.1399999999999999
 12
-0.06
 22
-0.9800000000000013
 32
1.1399999999999999
 13
-0.06
 23
-0.8899999967821576
 33
1.3199999973062939
  0
3DFACE
  5
9ED
  8
0
 10
0.06
 20
-0.9499999967821581
 30
1.3199999973062939
 11
0.06
 21
-1.0600000000000009
 31
1.1399999999999999
 12
0.06
 22
-0.9800000000000013
 32
1.1399999999999999
 13
0.06
 23
-0.8899999967821576
 33
1.3199999973062939
  0
3DFACE
  5
9EE
  8
0
 10
0.06
 20
-1.0600000000000001
 30
1.139999997306294
 11
0.06
 21
-1.0600000000000001
 31
0.7900000000000002
 12
0.06
 22
-0.9800000000000004
 32
0.7900000000000002
 13
0.06
 23
-0.9800000000000004
 33
1.139999997306294
  0
3DFACE
  5
9EF
  8
0
 10
-0.06
 20
-1.0600000000000001
 30
1.139999997306294
 11
-0.06
 21
-1.0600000000000001
 31
0.7900000000000002
 12
-0.06
 22
-0.9800000000000004
 32
0.7900000000000002
 13
-0.06
 23
-0.9800000000000004
 33
1.139999997306294
  0
3DFACE
  5
9F0
  8
0
 10
-0.06
 20
-1.0600000000000001
 30
1.139999997306294
 11
-0.06
 21
-1.0600000000000001
 31
0.7900000000000002
 12
-0.06
 22
-0.9800000000000004
 32
0.7900000000000002
 13
-0.06
 23
-0.9800000000000004
 33
1.139999997306294
  0
3DFACE
  5
9F1
  8
0
 10
0.06
 20
-1.0600000000000001
 30
1.139999997306294
 11
0.06
 21
-1.0600000000000001
 31
0.7900000000000002
 12
0.06
 22
-0.9800000000000004
 32
0.7900000000000002
 13
0.06
 23
-0.9800000000000004
 33
1.139999997306294
  0
3DFACE
  5
A35
  8
0
 10
0.6900000000000001
 20
-0.9100000000000001
 30
0.0499999999999989
 11
-0.6900000000000003
 21
-0.9100000000000001
 31
0.0499999999999989
 12
-0.8575580140374443
 22
-0.6230523674300219
 32
0.0499999999999989
 13
0.8575580140374441
 23
-0.6230523674300219
 33
0.0499999999999989
  0
3DFACE
  5
A36
  8
0
 10
0.8575580140374443
 20
-0.6230523674300219
 30
0.0499999999999989
 11
-0.8575580140374443
 21
-0.6230523674300219
 31
0.0499999999999989
 12
-1.0081199072728619
 22
-0.3275580140374439
 32
0.0499999999999989
 13
1.0081199072728619
 23
-0.3275580140374448
 33
0.0499999999999989
  0
3DFACE
  5
A37
  8
0
 10
1.008119907272863
 20
-0.3275580140374448
 30
0.0499999999999989
 11
-1.0081199072728619
 21
-0.3275580140374439
 31
0.0499999999999989
 12
-1.0600000000000001
 22
0.0
 32
0.0499999999999989
 13
1.0600000000000001
 23
0.0
 33
0.0499999999999989
  0
3DFACE
  5
A38
  8
0
 10
1.0600000000000001
 20
0.0
 30
0.0499999999999989
 11
-1.0600000000000001
 21
0.0
 31
0.0499999999999989
 12
-1.008119907272863
 22
0.3275580140374439
 32
0.0499999999999989
 13
1.0081199072728619
 23
0.3275580140374439
 33
0.0499999999999989
  0
3DFACE
  5
A39
  8
0
 10
1.0081199072728619
 20
0.3275580140374439
 30
0.0499999999999989
 11
-1.008119907272863
 21
0.3275580140374439
 31
0.0499999999999989
 12
-0.8575580140374441
 22
0.6230523674300219
 32
0.0499999999999989
 13
0.8575580140374444
 23
0.6230523674300211
 33
0.0499999999999989
  0
3DFACE
  5
A3A
  8
0
 10
0.8575580140374444
 20
0.6230523674300211
 30
0.0499999999999989
 11
-0.8575580140374443
 21
0.6230523674300219
 31
0.0499999999999989
 12
-0.6200000000000001
 22
0.9599999999999999
 32
0.0499999999999998
 13
0.6200000000000001
 23
0.9599999999999999
 33
0.0499999999999998
  0
3DFACE
  5
BCA
  8
0
 10
-0.98
 20
0.0
 30
0.6600000000000003
 11
-0.9300000000000001
 21
-0.3100000000000005
 31
0.6600000000000003
 12
-0.94
 22
-0.3100000000000005
 32
0.67
 13
-0.99
 23
0.0
 33
0.67
  0
3DFACE
  5
BCB
  8
0
 10
-0.99
 20
0.0
 30
0.67
 11
-0.94
 21
-0.3100000000000005
 31
0.67
 12
-0.95
 22
-0.3100000000000005
 32
0.6600000000000003
 13
-1.0
 23
0.0
 33
0.6600000000000003
  0
3DFACE
  5
BCC
  8
0
 10
-1.0
 20
0.0
 30
0.6600000000000003
 11
-0.95
 21
-0.3100000000000005
 31
0.6600000000000003
 12
-0.94
 22
-0.3100000000000005
 32
0.6500000000000004
 13
-0.99
 23
0.0
 33
0.6500000000000004
  0
3DFACE
  5
BCD
  8
0
 10
-0.99
 20
0.0
 30
0.6500000000000004
 11
-0.94
 21
-0.3100000000000005
 31
0.6500000000000004
 12
-0.9300000000000001
 22
-0.3100000000000005
 32
0.6600000000000003
 13
-0.98
 23
0.0
 33
0.6600000000000003
  0
3DFACE
  5
BCF
  8
0
 10
-0.9300000000000001
 20
-0.3100000000000005
 30
0.6600000000000003
 11
-0.7900000000000002
 21
-0.5899999999999999
 31
0.6600000000000003
 12
-0.8
 22
-0.5899999999999999
 32
0.67
 13
-0.94
 23
-0.3100000000000005
 33
0.67
  0
3DFACE
  5
BD0
  8
0
 10
-0.94
 20
-0.3100000000000005
 30
0.67
 11
-0.8
 21
-0.5899999999999999
 31
0.67
 12
-0.8100000000000001
 22
-0.5899999999999999
 32
0.6600000000000003
 13
-0.95
 23
-0.3100000000000005
 33
0.6600000000000003
  0
3DFACE
  5
BD1
  8
0
 10
-0.95
 20
-0.3100000000000005
 30
0.6600000000000003
 11
-0.8100000000000001
 21
-0.5899999999999999
 31
0.6600000000000003
 12
-0.8
 22
-0.5899999999999999
 32
0.6500000000000004
 13
-0.94
 23
-0.3100000000000005
 33
0.6500000000000004
  0
3DFACE
  5
BD2
  8
0
 10
-0.94
 20
-0.3100000000000005
 30
0.6500000000000004
 11
-0.8
 21
-0.5899999999999999
 31
0.6500000000000004
 12
-0.7900000000000002
 22
-0.5899999999999999
 32
0.6600000000000003
 13
-0.9300000000000001
 23
-0.3100000000000005
 33
0.6600000000000003
  0
3DFACE
  5
BD6
  8
0
 10
-0.7900000000000002
 20
-0.5899999999999999
 30
0.6600000000000003
 11
-0.71
 21
-0.9100000000000001
 31
0.6600000000000003
 12
-0.72
 22
-0.9100000000000001
 32
0.67
 13
-0.8
 23
-0.5899999999999999
 33
0.67
  0
3DFACE
  5
BD7
  8
0
 10
-0.8
 20
-0.5899999999999999
 30
0.67
 11
-0.72
 21
-0.9100000000000001
 31
0.67
 12
-0.73
 22
-0.9100000000000001
 32
0.6600000000000003
 13
-0.8100000000000001
 23
-0.5899999999999999
 33
0.6600000000000003
  0
3DFACE
  5
BD8
  8
0
 10
-0.8100000000000001
 20
-0.5899999999999999
 30
0.6600000000000003
 11
-0.73
 21
-0.9100000000000001
 31
0.6600000000000003
 12
-0.72
 22
-0.9100000000000001
 32
0.6500000000000004
 13
-0.8
 23
-0.5899999999999999
 33
0.6500000000000004
  0
3DFACE
  5
BD9
  8
0
 10
-0.8
 20
-0.5899999999999999
 30
0.6500000000000004
 11
-0.72
 21
-0.9100000000000001
 31
0.6500000000000004
 12
-0.71
 22
-0.9100000000000001
 32
0.6600000000000003
 13
-0.7900000000000002
 23
-0.5899999999999999
 33
0.6600000000000003
  0
3DFACE
  5
BE1
  8
0
 10
-0.9099999999999999
 20
0.2999999999999998
 30
0.6600000000000003
 11
-0.98
 21
0.0
 31
0.6600000000000003
 12
-0.99
 22
0.0
 32
0.67
 13
-0.9200000000000002
 23
0.2999999999999998
 33
0.67
  0
3DFACE
  5
BE2
  8
0
 10
-0.9200000000000002
 20
0.2999999999999998
 30
0.67
 11
-0.99
 21
0.0
 31
0.67
 12
-1.0
 22
0.0
 32
0.6600000000000003
 13
-0.9300000000000001
 23
0.2999999999999998
 33
0.6600000000000003
  0
3DFACE
  5
BE3
  8
0
 10
-0.9300000000000001
 20
0.2999999999999998
 30
0.6600000000000003
 11
-1.0
 21
0.0
 31
0.6600000000000003
 12
-0.99
 22
0.0
 32
0.6500000000000004
 13
-0.9200000000000002
 23
0.2999999999999998
 33
0.6500000000000004
  0
3DFACE
  5
BE4
  8
0
 10
-0.9200000000000002
 20
0.2999999999999998
 30
0.6500000000000004
 11
-0.99
 21
0.0
 31
0.6500000000000004
 12
-0.98
 22
0.0
 32
0.6600000000000003
 13
-0.9099999999999999
 23
0.2999999999999998
 33
0.6600000000000003
  0
3DFACE
  5
BE5
  8
0
 10
-0.7800000000000001
 20
0.5699999999999994
 30
0.6600000000000003
 11
-0.9099999999999999
 21
0.2999999999999998
 31
0.6600000000000003
 12
-0.9200000000000002
 22
0.2999999999999998
 32
0.67
 13
-0.7900000000000002
 23
0.5699999999999994
 33
0.67
  0
3DFACE
  5
BE6
  8
0
 10
-0.7900000000000002
 20
0.5699999999999994
 30
0.67
 11
-0.9200000000000002
 21
0.2999999999999998
 31
0.67
 12
-0.9300000000000001
 22
0.2999999999999998
 32
0.6600000000000003
 13
-0.8
 23
0.5699999999999994
 33
0.6600000000000003
  0
3DFACE
  5
BE7
  8
0
 10
-0.8
 20
0.5699999999999994
 30
0.6600000000000003
 11
-0.9300000000000001
 21
0.2999999999999998
 31
0.6600000000000003
 12
-0.9200000000000002
 22
0.2999999999999998
 32
0.6500000000000004
 13
-0.7900000000000002
 23
0.5699999999999994
 33
0.6500000000000004
  0
3DFACE
  5
BE8
  8
0
 10
-0.7900000000000002
 20
0.5699999999999994
 30
0.6500000000000004
 11
-0.9200000000000002
 21
0.2999999999999998
 31
0.6500000000000004
 12
-0.9099999999999999
 22
0.2999999999999998
 32
0.6600000000000003
 13
-0.7800000000000001
 23
0.5699999999999994
 33
0.6600000000000003
  0
3DFACE
  5
BE9
  8
0
 10
-0.6200000000000001
 20
0.7599999999999998
 30
0.6600000000000003
 11
-0.7800000000000001
 21
0.5699999999999994
 31
0.6600000000000003
 12
-0.7900000000000002
 22
0.5699999999999994
 32
0.67
 13
-0.6200000000000001
 23
0.7699999999999996
 33
0.67
  0
3DFACE
  5
BEA
  8
0
 10
-0.6200000000000001
 20
0.7699999999999996
 30
0.67
 11
-0.7900000000000002
 21
0.5699999999999994
 31
0.67
 12
-0.8
 22
0.5699999999999994
 32
0.6600000000000003
 13
-0.6200000000000001
 23
0.7799999999999994
 33
0.6600000000000003
  0
3DFACE
  5
BEB
  8
0
 10
-0.6200000000000001
 20
0.7799999999999994
 30
0.6600000000000003
 11
-0.8
 21
0.5699999999999994
 31
0.6600000000000003
 12
-0.7900000000000002
 22
0.5699999999999994
 32
0.6500000000000004
 13
-0.6200000000000001
 23
0.7699999999999996
 33
0.6500000000000004
  0
3DFACE
  5
BEC
  8
0
 10
-0.6200000000000001
 20
0.7699999999999996
 30
0.6500000000000004
 11
-0.7900000000000002
 21
0.5699999999999994
 31
0.6500000000000004
 12
-0.7800000000000001
 22
0.5699999999999994
 32
0.6600000000000003
 13
-0.6200000000000001
 23
0.7599999999999998
 33
0.6600000000000003
  0
3DFACE
  5
BF4
  8
0
 10
0.98
 20
0.0
 30
0.6599999999999984
 11
0.9300000000000001
 21
-0.3100000000000005
 31
0.6599999999999984
 12
0.94
 22
-0.3100000000000005
 32
0.6499999999999986
 13
0.99
 23
0.0
 33
0.6499999999999986
  0
3DFACE
  5
BF5
  8
0
 10
0.99
 20
0.0
 30
0.6499999999999986
 11
0.94
 21
-0.3100000000000005
 31
0.6499999999999986
 12
0.95
 22
-0.3100000000000005
 32
0.6599999999999984
 13
1.0
 23
0.0
 33
0.6599999999999984
  0
3DFACE
  5
BF6
  8
0
 10
1.0
 20
0.0
 30
0.6599999999999984
 11
0.95
 21
-0.3100000000000005
 31
0.6599999999999984
 12
0.94
 22
-0.3100000000000005
 32
0.6699999999999982
 13
0.99
 23
0.0
 33
0.6699999999999982
  0
3DFACE
  5
BF7
  8
0
 10
0.99
 20
0.0
 30
0.6699999999999982
 11
0.94
 21
-0.3100000000000005
 31
0.6699999999999982
 12
0.9300000000000001
 22
-0.3100000000000005
 32
0.6599999999999984
 13
0.98
 23
0.0
 33
0.6599999999999984
  0
3DFACE
  5
BF8
  8
0
 10
0.9300000000000001
 20
-0.3100000000000005
 30
0.6599999999999984
 11
0.7900000000000002
 21
-0.5899999999999999
 31
0.6599999999999984
 12
0.8
 22
-0.5899999999999999
 32
0.6499999999999986
 13
0.94
 23
-0.3100000000000005
 33
0.6499999999999986
  0
3DFACE
  5
BF9
  8
0
 10
0.94
 20
-0.3100000000000005
 30
0.6499999999999986
 11
0.8
 21
-0.5899999999999999
 31
0.6499999999999986
 12
0.8100000000000001
 22
-0.5899999999999999
 32
0.6599999999999984
 13
0.95
 23
-0.3100000000000005
 33
0.6599999999999984
  0
3DFACE
  5
BFA
  8
0
 10
0.95
 20
-0.3100000000000005
 30
0.6599999999999984
 11
0.8100000000000001
 21
-0.5899999999999999
 31
0.6599999999999984
 12
0.8
 22
-0.5899999999999999
 32
0.6699999999999982
 13
0.94
 23
-0.3100000000000005
 33
0.6699999999999982
  0
3DFACE
  5
BFB
  8
0
 10
0.94
 20
-0.3100000000000005
 30
0.6699999999999982
 11
0.8
 21
-0.5899999999999999
 31
0.6699999999999982
 12
0.7900000000000002
 22
-0.5899999999999999
 32
0.6599999999999984
 13
0.9300000000000001
 23
-0.3100000000000005
 33
0.6599999999999984
  0
3DFACE
  5
BFC
  8
0
 10
0.7900000000000002
 20
-0.5899999999999999
 30
0.6599999999999984
 11
0.71
 21
-0.9100000000000001
 31
0.6599999999999984
 12
0.72
 22
-0.9100000000000001
 32
0.6499999999999986
 13
0.8
 23
-0.5899999999999999
 33
0.6499999999999986
  0
3DFACE
  5
BFD
  8
0
 10
0.8
 20
-0.5899999999999999
 30
0.6499999999999986
 11
0.72
 21
-0.9100000000000001
 31
0.6499999999999986
 12
0.73
 22
-0.9100000000000001
 32
0.6599999999999984
 13
0.8100000000000001
 23
-0.5899999999999999
 33
0.6599999999999984
  0
3DFACE
  5
BFE
  8
0
 10
0.8100000000000001
 20
-0.5899999999999999
 30
0.6599999999999984
 11
0.73
 21
-0.9100000000000001
 31
0.6599999999999984
 12
0.72
 22
-0.9100000000000001
 32
0.6699999999999982
 13
0.8
 23
-0.5899999999999999
 33
0.6699999999999982
  0
3DFACE
  5
BFF
  8
0
 10
0.8
 20
-0.5899999999999999
 30
0.6699999999999982
 11
0.72
 21
-0.9100000000000001
 31
0.6699999999999982
 12
0.71
 22
-0.9100000000000001
 32
0.6599999999999984
 13
0.7900000000000002
 23
-0.5899999999999999
 33
0.6599999999999984
  0
3DFACE
  5
C00
  8
0
 10
0.9099999999999999
 20
0.2999999999999998
 30
0.6599999999999984
 11
0.98
 21
0.0
 31
0.6599999999999984
 12
0.99
 22
0.0
 32
0.6499999999999986
 13
0.9200000000000002
 23
0.2999999999999998
 33
0.6499999999999986
  0
3DFACE
  5
C01
  8
0
 10
0.9200000000000002
 20
0.2999999999999998
 30
0.6499999999999986
 11
0.99
 21
0.0
 31
0.6499999999999986
 12
1.0
 22
0.0
 32
0.6599999999999984
 13
0.9300000000000001
 23
0.2999999999999998
 33
0.6599999999999984
  0
3DFACE
  5
C02
  8
0
 10
0.9300000000000001
 20
0.2999999999999998
 30
0.6599999999999984
 11
1.0
 21
0.0
 31
0.6599999999999984
 12
0.99
 22
0.0
 32
0.6699999999999982
 13
0.9200000000000002
 23
0.2999999999999998
 33
0.6699999999999982
  0
3DFACE
  5
C03
  8
0
 10
0.9200000000000002
 20
0.2999999999999998
 30
0.6699999999999982
 11
0.99
 21
0.0
 31
0.6699999999999982
 12
0.98
 22
0.0
 32
0.6599999999999984
 13
0.9099999999999999
 23
0.2999999999999998
 33
0.6599999999999984
  0
3DFACE
  5
C04
  8
0
 10
0.7800000000000001
 20
0.5699999999999994
 30
0.6599999999999984
 11
0.9099999999999999
 21
0.2999999999999998
 31
0.6599999999999984
 12
0.9200000000000002
 22
0.2999999999999998
 32
0.6499999999999986
 13
0.7900000000000002
 23
0.5699999999999994
 33
0.6499999999999986
  0
3DFACE
  5
C05
  8
0
 10
0.7900000000000002
 20
0.5699999999999994
 30
0.6499999999999986
 11
0.9200000000000002
 21
0.2999999999999998
 31
0.6499999999999986
 12
0.9300000000000001
 22
0.2999999999999998
 32
0.6599999999999984
 13
0.8
 23
0.5699999999999994
 33
0.6599999999999984
  0
3DFACE
  5
C06
  8
0
 10
0.8
 20
0.5699999999999994
 30
0.6599999999999984
 11
0.9300000000000001
 21
0.2999999999999998
 31
0.6599999999999984
 12
0.9200000000000002
 22
0.2999999999999998
 32
0.6699999999999982
 13
0.7900000000000002
 23
0.5699999999999994
 33
0.6699999999999982
  0
3DFACE
  5
C07
  8
0
 10
0.7900000000000002
 20
0.5699999999999994
 30
0.6699999999999982
 11
0.9200000000000002
 21
0.2999999999999998
 31
0.6699999999999982
 12
0.9099999999999999
 22
0.2999999999999998
 32
0.6599999999999984
 13
0.7800000000000001
 23
0.5699999999999994
 33
0.6599999999999984
  0
3DFACE
  5
C08
  8
0
 10
0.6200000000000001
 20
0.7599999999999998
 30
0.6599999999999984
 11
0.7800000000000001
 21
0.5699999999999994
 31
0.6599999999999984
 12
0.7900000000000002
 22
0.5699999999999994
 32
0.6499999999999986
 13
0.6200000000000001
 23
0.7699999999999996
 33
0.6499999999999986
  0
3DFACE
  5
C09
  8
0
 10
0.6200000000000001
 20
0.7699999999999996
 30
0.6499999999999986
 11
0.7900000000000002
 21
0.5699999999999994
 31
0.6499999999999986
 12
0.8
 22
0.5699999999999994
 32
0.6599999999999984
 13
0.6200000000000001
 23
0.7799999999999994
 33
0.6599999999999984
  0
3DFACE
  5
C0A
  8
0
 10
0.6200000000000001
 20
0.7799999999999994
 30
0.6599999999999984
 11
0.8
 21
0.5699999999999994
 31
0.6599999999999984
 12
0.7900000000000002
 22
0.5699999999999994
 32
0.6699999999999982
 13
0.6200000000000001
 23
0.7699999999999996
 33
0.6699999999999982
  0
3DFACE
  5
C0B
  8
0
 10
0.6200000000000001
 20
0.7699999999999996
 30
0.6699999999999982
 11
0.7900000000000002
 21
0.5699999999999994
 31
0.6699999999999982
 12
0.7800000000000001
 22
0.5699999999999994
 32
0.6599999999999984
 13
0.6200000000000001
 23
0.7599999999999998
 33
0.6599999999999984
  0
3DFACE
  5
CC0
  8
0
 10
-0.6519991910721933
 20
-1.297805017248034
 30
0.6025000000000002
 11
-0.6844422944120741
 21
-1.3064981205879149
 31
0.6164124278936383
 12
-0.6759575411272518
 22
-1.3176732698797899
 32
0.6217157287525384
 13
-0.648637033051563
 23
-1.3103527618041011
 33
0.6100000000000004
  0
3DFACE
  5
CC1
  8
0
 10
-0.6519991910721933
 20
-1.297805017248034
 30
0.5874999999999995
 11
-0.6946874849404573
 21
-1.309243311116298
 31
0.6058058261758399
 12
-0.6844422944120741
 22
-1.3064981205879149
 32
0.6164124278936383
 13
-0.6519991910721933
 23
-1.297805017248034
 33
0.6025000000000002
  0
3DFACE
  5
CC2
  8
0
 10
-0.648637033051563
 20
-1.3103527618041011
 30
0.5800000000000001
 11
-0.6964479221840186
 21
-1.323163650936557
 31
0.6005025253169416
 12
-0.6946874849404573
 22
-1.309243311116298
 32
0.6058058261758399
 13
-0.6519991910721933
 23
-1.297805017248034
 33
0.5874999999999995
  0
3DFACE
  5
CC3
  8
0
 10
-0.6452748750309327
 20
-1.322900506360168
 30
0.5874999999999995
 11
-0.6879631688991967
 21
-1.334338800228432
 31
0.6058058261758399
 12
-0.6964479221840186
 22
-1.323163650936557
 32
0.6005025253169416
 13
-0.648637033051563
 23
-1.3103527618041011
 33
0.5800000000000001
  0
3DFACE
  5
CC4
  8
0
 10
-0.6452748750309327
 20
-1.322900506360168
 30
0.6025000000000002
 11
-0.6777179783708133
 21
-1.3315936097000489
 31
0.6164124278936383
 12
-0.6879631688991967
 22
-1.334338800228432
 32
0.6058058261758399
 13
-0.6452748750309327
 23
-1.322900506360168
 33
0.5874999999999995
  0
3DFACE
  5
CC5
  8
0
 10
-0.648637033051563
 20
-1.3103527618041011
 30
0.6100000000000004
 11
-0.6759575411272518
 21
-1.3176732698797899
 31
0.6217157287525384
 12
-0.6777179783708133
 22
-1.3315936097000489
 32
0.6164124278936383
 13
-0.6452748750309327
 23
-1.322900506360168
 33
0.6025000000000002
  0
3DFACE
  5
CC6
  8
0
 10
-0.6844422944120741
 20
-1.3064981205879149
 30
0.6164124278936383
 11
-0.6978806678209235
 21
-1.310098921890404
 31
0.6499999999999995
 12
-0.6872740661031257
 22
-1.3207055236082019
 32
0.6499999999999995
 13
-0.6759575411272518
 23
-1.3176732698797899
 33
0.6217157287525384
  0
3DFACE
  5
CC7
  8
0
 10
-0.6946874849404573
 20
-1.309243311116298
 30
0.6058058261758399
 11
-0.7123695552152602
 21
-1.3139812075669419
 31
0.6499999999999995
 12
-0.6978806678209235
 22
-1.310098921890404
 32
0.6499999999999995
 13
-0.6844422944120741
 23
-1.3064981205879149
 33
0.6164124278936383
  0
3DFACE
  5
CC8
  8
0
 10
-0.6964479221840186
 20
-1.323163650936557
 30
0.6005025253169416
 11
-0.7162518408917971
 21
-1.328470094961278
 31
0.6499999999999995
 12
-0.7123695552152602
 22
-1.3139812075669419
 32
0.6499999999999995
 13
-0.6946874849404573
 23
-1.309243311116298
 33
0.6058058261758399
  0
3DFACE
  5
CC9
  8
0
 10
-0.6879631688991967
 20
-1.334338800228432
 30
0.6058058261758399
 11
-0.7056452391739995
 21
-1.3390766966790759
 31
0.6499999999999995
 12
-0.7162518408917971
 22
-1.328470094961278
 32
0.6499999999999995
 13
-0.6964479221840186
 23
-1.323163650936557
 33
0.6005025253169416
  0
3DFACE
  5
CCA
  8
0
 10
-0.6777179783708133
 20
-1.3315936097000489
 30
0.6164124278936383
 11
-0.6911563517796627
 21
-1.335194411002538
 31
0.6499999999999995
 12
-0.7056452391739995
 22
-1.3390766966790759
 32
0.6499999999999995
 13
-0.6879631688991967
 23
-1.334338800228432
 33
0.6058058261758399
  0
3DFACE
  5
CCB
  8
0
 10
-0.6759575411272518
 20
-1.3176732698797899
 30
0.6217157287525384
 11
-0.6872740661031257
 21
-1.3207055236082019
 31
0.6499999999999995
 12
-0.6911563517796627
 22
-1.335194411002538
 32
0.6499999999999995
 13
-0.6777179783708133
 23
-1.3315936097000489
 33
0.6164124278936383
  0
3DFACE
  5
CCC
  8
0
 10
-0.6978806678209235
 20
-1.310098921890404
 30
0.6499999999999995
 11
-0.6844422944120741
 21
-1.3064981205879149
 31
0.6835875721063607
 12
-0.6759575411272518
 22
-1.3176732698797899
 32
0.6782842712474624
 13
-0.6872740661031257
 23
-1.3207055236082019
 33
0.6499999999999995
  0
3DFACE
  5
CCD
  8
0
 10
-0.7123695552152602
 20
-1.3139812075669419
 30
0.6499999999999995
 11
-0.6946874849404573
 21
-1.309243311116298
 31
0.6941941738241592
 12
-0.6844422944120741
 22
-1.3064981205879149
 32
0.6835875721063607
 13
-0.6978806678209235
 23
-1.310098921890404
 33
0.6499999999999995
  0
3DFACE
  5
CCE
  8
0
 10
-0.7162518408917971
 20
-1.328470094961278
 30
0.6499999999999995
 11
-0.6964479221840186
 21
-1.323163650936557
 31
0.6994974746830575
 12
-0.6946874849404573
 22
-1.309243311116298
 32
0.6941941738241592
 13
-0.7123695552152602
 23
-1.3139812075669419
 33
0.6499999999999995
  0
3DFACE
  5
CCF
  8
0
 10
-0.7056452391739995
 20
-1.3390766966790759
 30
0.6499999999999995
 11
-0.6879631688991967
 21
-1.334338800228432
 31
0.6941941738241592
 12
-0.6964479221840186
 22
-1.323163650936557
 32
0.6994974746830575
 13
-0.7162518408917971
 23
-1.328470094961278
 33
0.6499999999999995
  0
3DFACE
  5
CD0
  8
0
 10
-0.6911563517796627
 20
-1.335194411002538
 30
0.6499999999999995
 11
-0.6777179783708133
 21
-1.3315936097000489
 31
0.6835875721063607
 12
-0.6879631688991967
 22
-1.334338800228432
 32
0.6941941738241592
 13
-0.7056452391739995
 23
-1.3390766966790759
 33
0.6499999999999995
  0
3DFACE
  5
CD1
  8
0
 10
-0.6872740661031257
 20
-1.3207055236082019
 30
0.6499999999999995
 11
-0.6759575411272518
 21
-1.3176732698797899
 31
0.6782842712474624
 12
-0.6777179783708133
 22
-1.3315936097000489
 32
0.6835875721063607
 13
-0.6911563517796627
 23
-1.335194411002538
 33
0.6499999999999995
  0
3DFACE
  5
CD2
  8
0
 10
-0.6844422944120741
 20
-1.3064981205879149
 30
0.6835875721063607
 11
-0.6519991910721933
 21
-1.297805017248034
 31
0.6974999999999998
 12
-0.648637033051563
 22
-1.3103527618041011
 32
0.6900000000000004
 13
-0.6759575411272518
 23
-1.3176732698797899
 33
0.6782842712474624
  0
3DFACE
  5
CD3
  8
0
 10
-0.6946874849404573
 20
-1.309243311116298
 30
0.6941941738241592
 11
-0.6519991910721933
 21
-1.297805017248034
 31
0.7124999999999995
 12
-0.6519991910721933
 22
-1.297805017248034
 32
0.6974999999999998
 13
-0.6844422944120741
 23
-1.3064981205879149
 33
0.6835875721063607
  0
3DFACE
  5
CD4
  8
0
 10
-0.6964479221840186
 20
-1.323163650936557
 30
0.6994974746830575
 11
-0.648637033051563
 21
-1.3103527618041011
 31
0.7199999999999998
 12
-0.6519991910721933
 22
-1.297805017248034
 32
0.7124999999999995
 13
-0.6946874849404573
 23
-1.309243311116298
 33
0.6941941738241592
  0
3DFACE
  5
CD5
  8
0
 10
-0.6879631688991967
 20
-1.334338800228432
 30
0.6941941738241592
 11
-0.6452748750309327
 21
-1.322900506360168
 31
0.7124999999999995
 12
-0.648637033051563
 22
-1.3103527618041011
 32
0.7199999999999998
 13
-0.6964479221840186
 23
-1.323163650936557
 33
0.6994974746830575
  0
3DFACE
  5
CD6
  8
0
 10
-0.6777179783708133
 20
-1.3315936097000489
 30
0.6835875721063607
 11
-0.6452748750309327
 21
-1.322900506360168
 31
0.6974999999999998
 12
-0.6452748750309327
 22
-1.322900506360168
 32
0.7124999999999995
 13
-0.6879631688991967
 23
-1.334338800228432
 33
0.6941941738241592
  0
3DFACE
  5
CD7
  8
0
 10
-0.6759575411272518
 20
-1.3176732698797899
 30
0.6782842712474624
 11
-0.648637033051563
 21
-1.3103527618041011
 31
0.6900000000000004
 12
-0.6452748750309327
 22
-1.322900506360168
 32
0.6974999999999998
 13
-0.6777179783708133
 23
-1.3315936097000489
 33
0.6835875721063607
  0
3DFACE
  5
CD8
  8
0
 10
-0.61
 20
-1.3
 30
0.6100000000000004
 11
-0.648637033051563
 21
-1.3103527618041011
 31
0.6100000000000004
 12
-0.6519991910721933
 22
-1.297805017248034
 32
0.6025000000000002
 13
-0.6133621580206304
 23
-1.2874522554439329
 33
0.6025000000000002
  0
3DFACE
  5
CD9
  8
0
 10
-0.6133621580206304
 20
-1.2874522554439329
 30
0.6025000000000002
 11
-0.6519991910721933
 21
-1.297805017248034
 31
0.6025000000000002
 12
-0.6519991910721933
 22
-1.297805017248034
 32
0.5874999999999995
 13
-0.6133621580206304
 23
-1.2874522554439329
 33
0.5874999999999995
  0
3DFACE
  5
CDA
  8
0
 10
-0.6133621580206304
 20
-1.2874522554439329
 30
0.5874999999999995
 11
-0.6519991910721933
 21
-1.297805017248034
 31
0.5874999999999995
 12
-0.648637033051563
 22
-1.3103527618041011
 32
0.5800000000000001
 13
-0.61
 23
-1.3
 33
0.5800000000000001
  0
3DFACE
  5
CDB
  8
0
 10
-0.61
 20
-1.3
 30
0.5800000000000001
 11
-0.648637033051563
 21
-1.3103527618041011
 31
0.5800000000000001
 12
-0.6452748750309327
 22
-1.322900506360168
 32
0.5874999999999995
 13
-0.6066378419793698
 23
-1.3125477445560669
 33
0.5874999999999995
  0
3DFACE
  5
CDC
  8
0
 10
-0.6066378419793698
 20
-1.3125477445560669
 30
0.5874999999999995
 11
-0.6452748750309327
 21
-1.322900506360168
 31
0.5874999999999995
 12
-0.6452748750309327
 22
-1.322900506360168
 32
0.6025000000000002
 13
-0.6066378419793698
 23
-1.3125477445560669
 33
0.6025000000000002
  0
3DFACE
  5
CDD
  8
0
 10
-0.6066378419793698
 20
-1.3125477445560669
 30
0.6025000000000002
 11
-0.6452748750309327
 21
-1.322900506360168
 31
0.6025000000000002
 12
-0.648637033051563
 22
-1.3103527618041011
 32
0.6100000000000004
 13
-0.61
 23
-1.3
 33
0.6100000000000004
  0
3DFACE
  5
CDE
  8
0
 10
-0.61
 20
-1.3
 30
0.7199999999999998
 11
-0.648637033051563
 21
-1.3103527618041011
 31
0.7199999999999998
 12
-0.6519991910721933
 22
-1.297805017248034
 32
0.7124999999999995
 13
-0.6133621580206304
 23
-1.2874522554439329
 33
0.7124999999999995
  0
3DFACE
  5
CDF
  8
0
 10
-0.6133621580206304
 20
-1.2874522554439329
 30
0.7124999999999995
 11
-0.6519991910721933
 21
-1.297805017248034
 31
0.7124999999999995
 12
-0.6519991910721933
 22
-1.297805017248034
 32
0.6974999999999998
 13
-0.6133621580206304
 23
-1.2874522554439329
 33
0.6974999999999998
  0
3DFACE
  5
CE0
  8
0
 10
-0.6133621580206304
 20
-1.2874522554439329
 30
0.6974999999999998
 11
-0.6519991910721933
 21
-1.297805017248034
 31
0.6974999999999998
 12
-0.648637033051563
 22
-1.3103527618041011
 32
0.6900000000000004
 13
-0.61
 23
-1.3
 33
0.6900000000000004
  0
3DFACE
  5
CE1
  8
0
 10
-0.61
 20
-1.3
 30
0.6900000000000004
 11
-0.648637033051563
 21
-1.3103527618041011
 31
0.6900000000000004
 12
-0.6452748750309327
 22
-1.322900506360168
 32
0.6974999999999998
 13
-0.6066378419793698
 23
-1.3125477445560669
 33
0.6974999999999998
  0
3DFACE
  5
CE2
  8
0
 10
-0.6066378419793698
 20
-1.3125477445560669
 30
0.6974999999999998
 11
-0.6452748750309327
 21
-1.322900506360168
 31
0.6974999999999998
 12
-0.6452748750309327
 22
-1.322900506360168
 32
0.7124999999999995
 13
-0.6066378419793698
 23
-1.3125477445560669
 33
0.7124999999999995
  0
3DFACE
  5
CE3
  8
0
 10
-0.6066378419793698
 20
-1.3125477445560669
 30
0.7124999999999995
 11
-0.6452748750309327
 21
-1.322900506360168
 31
0.7124999999999995
 12
-0.648637033051563
 22
-1.3103527618041011
 32
0.7199999999999998
 13
-0.61
 23
-1.3
 33
0.7199999999999998
  0
3DFACE
  5
CE4
  8
0
 10
0.6519991910721926
 20
-1.297805017248034
 30
0.6974999999999998
 11
0.6844422944120732
 21
-1.3064981205879149
 31
0.6835875721063607
 12
0.6759575411272514
 22
-1.3176732698797899
 32
0.6782842712474615
 13
0.6486370330515623
 23
-1.3103527618041011
 33
0.6899999999999995
  0
3DFACE
  5
CE5
  8
0
 10
0.6519991910721926
 20
-1.297805017248034
 30
0.7124999999999995
 11
0.6946874849404569
 21
-1.309243311116298
 31
0.6941941738241592
 12
0.6844422944120732
 22
-1.3064981205879149
 32
0.6835875721063607
 13
0.6519991910721926
 23
-1.297805017248034
 33
0.6974999999999998
  0
3DFACE
  5
CE6
  8
0
 10
0.6486370330515623
 20
-1.3103527618041011
 30
0.7199999999999998
 11
0.6964479221840181
 21
-1.323163650936557
 31
0.6994974746830583
 12
0.6946874849404569
 22
-1.309243311116298
 32
0.6941941738241592
 13
0.6519991910721926
 23
-1.297805017248034
 33
0.7124999999999995
  0
3DFACE
  5
CE7
  8
0
 10
0.6452748750309321
 20
-1.322900506360168
 30
0.7124999999999995
 11
0.6879631688991963
 21
-1.334338800228432
 31
0.6941941738241592
 12
0.6964479221840181
 22
-1.323163650936557
 32
0.6994974746830583
 13
0.6486370330515623
 23
-1.3103527618041011
 33
0.7199999999999998
  0
3DFACE
  5
CE8
  8
0
 10
0.6452748750309321
 20
-1.322900506360168
 30
0.6974999999999998
 11
0.6777179783708128
 21
-1.3315936097000489
 31
0.6835875721063607
 12
0.6879631688991963
 22
-1.334338800228432
 32
0.6941941738241592
 13
0.6452748750309321
 23
-1.322900506360168
 33
0.7124999999999995
  0
3DFACE
  5
CE9
  8
0
 10
0.6486370330515623
 20
-1.3103527618041011
 30
0.6899999999999995
 11
0.6759575411272514
 21
-1.3176732698797899
 31
0.6782842712474615
 12
0.6777179783708128
 22
-1.3315936097000489
 32
0.6835875721063607
 13
0.6452748750309321
 23
-1.322900506360168
 33
0.6974999999999998
  0
3DFACE
  5
CEA
  8
0
 10
0.6844422944120732
 20
-1.3064981205879149
 30
0.6835875721063607
 11
0.6978806678209228
 21
-1.310098921890404
 31
0.6499999999999995
 12
0.6872740661031253
 22
-1.3207055236082019
 32
0.6499999999999995
 13
0.6759575411272514
 23
-1.3176732698797899
 33
0.6782842712474615
  0
3DFACE
  5
CEB
  8
0
 10
0.6946874849404569
 20
-1.309243311116298
 30
0.6941941738241592
 11
0.7123695552152594
 21
-1.3139812075669419
 31
0.6499999999999995
 12
0.6978806678209228
 22
-1.310098921890404
 32
0.6499999999999995
 13
0.6844422944120732
 23
-1.3064981205879149
 33
0.6835875721063607
  0
3DFACE
  5
CEC
  8
0
 10
0.6964479221840181
 20
-1.323163650936557
 30
0.6994974746830583
 11
0.7162518408917967
 21
-1.328470094961278
 31
0.6499999999999995
 12
0.7123695552152594
 22
-1.3139812075669419
 32
0.6499999999999995
 13
0.6946874849404569
 23
-1.309243311116298
 33
0.6941941738241592
  0
3DFACE
  5
CED
  8
0
 10
0.6879631688991963
 20
-1.334338800228432
 30
0.6941941738241592
 11
0.7056452391739989
 21
-1.3390766966790759
 31
0.6499999999999995
 12
0.7162518408917967
 22
-1.328470094961278
 32
0.6499999999999995
 13
0.6964479221840181
 23
-1.323163650936557
 33
0.6994974746830583
  0
3DFACE
  5
CEE
  8
0
 10
0.6777179783708128
 20
-1.3315936097000489
 30
0.6835875721063607
 11
0.6911563517796625
 21
-1.335194411002538
 31
0.6499999999999995
 12
0.7056452391739989
 22
-1.3390766966790759
 32
0.6499999999999995
 13
0.6879631688991963
 23
-1.334338800228432
 33
0.6941941738241592
  0
3DFACE
  5
CEF
  8
0
 10
0.6759575411272514
 20
-1.3176732698797899
 30
0.6782842712474615
 11
0.6872740661031253
 21
-1.3207055236082019
 31
0.6499999999999995
 12
0.6911563517796625
 22
-1.335194411002538
 32
0.6499999999999995
 13
0.6777179783708128
 23
-1.3315936097000489
 33
0.6835875721063607
  0
3DFACE
  5
CF0
  8
0
 10
0.6978806678209228
 20
-1.310098921890404
 30
0.6499999999999995
 11
0.6844422944120732
 21
-1.3064981205879149
 31
0.6164124278936383
 12
0.6759575411272514
 22
-1.3176732698797899
 32
0.6217157287525376
 13
0.6872740661031253
 23
-1.3207055236082019
 33
0.6499999999999995
  0
3DFACE
  5
CF1
  8
0
 10
0.7123695552152594
 20
-1.3139812075669419
 30
0.6499999999999995
 11
0.6946874849404569
 21
-1.309243311116298
 31
0.6058058261758399
 12
0.6844422944120732
 22
-1.3064981205879149
 32
0.6164124278936383
 13
0.6978806678209228
 23
-1.310098921890404
 33
0.6499999999999995
  0
3DFACE
  5
CF2
  8
0
 10
0.7162518408917967
 20
-1.328470094961278
 30
0.6499999999999995
 11
0.6964479221840181
 21
-1.323163650936557
 31
0.6005025253169416
 12
0.6946874849404569
 22
-1.309243311116298
 32
0.6058058261758399
 13
0.7123695552152594
 23
-1.3139812075669419
 33
0.6499999999999995
  0
3DFACE
  5
CF3
  8
0
 10
0.7056452391739989
 20
-1.3390766966790759
 30
0.6499999999999995
 11
0.6879631688991963
 21
-1.334338800228432
 31
0.6058058261758399
 12
0.6964479221840181
 22
-1.323163650936557
 32
0.6005025253169416
 13
0.7162518408917967
 23
-1.328470094961278
 33
0.6499999999999995
  0
3DFACE
  5
CF4
  8
0
 10
0.6911563517796625
 20
-1.335194411002538
 30
0.6499999999999995
 11
0.6777179783708128
 21
-1.3315936097000489
 31
0.6164124278936383
 12
0.6879631688991963
 22
-1.334338800228432
 32
0.6058058261758399
 13
0.7056452391739989
 23
-1.3390766966790759
 33
0.6499999999999995
  0
3DFACE
  5
CF5
  8
0
 10
0.6872740661031253
 20
-1.3207055236082019
 30
0.6499999999999995
 11
0.6759575411272514
 21
-1.3176732698797899
 31
0.6217157287525376
 12
0.6777179783708128
 22
-1.3315936097000489
 32
0.6164124278936383
 13
0.6911563517796625
 23
-1.335194411002538
 33
0.6499999999999995
  0
3DFACE
  5
CF6
  8
0
 10
0.6844422944120732
 20
-1.3064981205879149
 30
0.6164124278936383
 11
0.6519991910721926
 21
-1.297805017248034
 31
0.6024999999999992
 12
0.6486370330515623
 22
-1.3103527618041011
 32
0.6099999999999995
 13
0.6759575411272514
 23
-1.3176732698797899
 33
0.6217157287525376
  0
3DFACE
  5
CF7
  8
0
 10
0.6946874849404569
 20
-1.309243311116298
 30
0.6058058261758399
 11
0.6519991910721926
 21
-1.297805017248034
 31
0.5874999999999995
 12
0.6519991910721926
 22
-1.297805017248034
 32
0.6024999999999992
 13
0.6844422944120732
 23
-1.3064981205879149
 33
0.6164124278936383
  0
3DFACE
  5
CF8
  8
0
 10
0.6964479221840181
 20
-1.323163650936557
 30
0.6005025253169416
 11
0.6486370330515623
 21
-1.3103527618041011
 31
0.5800000000000001
 12
0.6519991910721926
 22
-1.297805017248034
 32
0.5874999999999995
 13
0.6946874849404569
 23
-1.309243311116298
 33
0.6058058261758399
  0
3DFACE
  5
CF9
  8
0
 10
0.6879631688991963
 20
-1.334338800228432
 30
0.6058058261758399
 11
0.6452748750309321
 21
-1.322900506360168
 31
0.5874999999999995
 12
0.6486370330515623
 22
-1.3103527618041011
 32
0.5800000000000001
 13
0.6964479221840181
 23
-1.323163650936557
 33
0.6005025253169416
  0
3DFACE
  5
CFA
  8
0
 10
0.6777179783708128
 20
-1.3315936097000489
 30
0.6164124278936383
 11
0.6452748750309321
 21
-1.322900506360168
 31
0.6024999999999992
 12
0.6452748750309321
 22
-1.322900506360168
 32
0.5874999999999995
 13
0.6879631688991963
 23
-1.334338800228432
 33
0.6058058261758399
  0
3DFACE
  5
CFB
  8
0
 10
0.6759575411272514
 20
-1.3176732698797899
 30
0.6217157287525376
 11
0.6486370330515623
 21
-1.3103527618041011
 31
0.6099999999999995
 12
0.6452748750309321
 22
-1.322900506360168
 32
0.6024999999999992
 13
0.6777179783708128
 23
-1.3315936097000489
 33
0.6164124278936383
  0
3DFACE
  5
CFC
  8
0
 10
0.6099999999999999
 20
-1.3
 30
0.6899999999999995
 11
0.6486370330515623
 21
-1.3103527618041011
 31
0.6899999999999995
 12
0.6519991910721926
 22
-1.297805017248034
 32
0.6974999999999998
 13
0.6133621580206301
 23
-1.2874522554439329
 33
0.6974999999999998
  0
3DFACE
  5
CFD
  8
0
 10
0.6133621580206301
 20
-1.2874522554439329
 30
0.6974999999999998
 11
0.6519991910721926
 21
-1.297805017248034
 31
0.6974999999999998
 12
0.6519991910721926
 22
-1.297805017248034
 32
0.7124999999999995
 13
0.6133621580206301
 23
-1.2874522554439329
 33
0.7124999999999995
  0
3DFACE
  5
CFE
  8
0
 10
0.6133621580206301
 20
-1.2874522554439329
 30
0.7124999999999995
 11
0.6519991910721926
 21
-1.297805017248034
 31
0.7124999999999995
 12
0.6486370330515623
 22
-1.3103527618041011
 32
0.7199999999999998
 13
0.6099999999999999
 23
-1.3
 33
0.7199999999999998
  0
3DFACE
  5
CFF
  8
0
 10
0.6099999999999999
 20
-1.3
 30
0.7199999999999998
 11
0.6486370330515623
 21
-1.3103527618041011
 31
0.7199999999999998
 12
0.6452748750309321
 22
-1.322900506360168
 32
0.7124999999999995
 13
0.6066378419793697
 23
-1.3125477445560669
 33
0.7124999999999995
  0
3DFACE
  5
D00
  8
0
 10
0.6066378419793697
 20
-1.3125477445560669
 30
0.7124999999999995
 11
0.6452748750309321
 21
-1.322900506360168
 31
0.7124999999999995
 12
0.6452748750309321
 22
-1.322900506360168
 32
0.6974999999999998
 13
0.6066378419793697
 23
-1.3125477445560669
 33
0.6974999999999998
  0
3DFACE
  5
D01
  8
0
 10
0.6066378419793697
 20
-1.3125477445560669
 30
0.6974999999999998
 11
0.6452748750309321
 21
-1.322900506360168
 31
0.6974999999999998
 12
0.6486370330515623
 22
-1.3103527618041011
 32
0.6899999999999995
 13
0.6099999999999999
 23
-1.3
 33
0.6899999999999995
  0
3DFACE
  5
D02
  8
0
 10
0.6099999999999999
 20
-1.3
 30
0.5800000000000001
 11
0.6486370330515623
 21
-1.3103527618041011
 31
0.5800000000000001
 12
0.6519991910721926
 22
-1.297805017248034
 32
0.5874999999999995
 13
0.6133621580206301
 23
-1.2874522554439329
 33
0.5874999999999995
  0
3DFACE
  5
D03
  8
0
 10
0.6133621580206301
 20
-1.2874522554439329
 30
0.5874999999999995
 11
0.6519991910721926
 21
-1.297805017248034
 31
0.5874999999999995
 12
0.6519991910721926
 22
-1.297805017248034
 32
0.6024999999999992
 13
0.6133621580206301
 23
-1.2874522554439329
 33
0.6024999999999992
  0
3DFACE
  5
D04
  8
0
 10
0.6133621580206301
 20
-1.2874522554439329
 30
0.6024999999999992
 11
0.6519991910721926
 21
-1.297805017248034
 31
0.6024999999999992
 12
0.6486370330515623
 22
-1.3103527618041011
 32
0.6099999999999995
 13
0.6099999999999999
 23
-1.3
 33
0.6099999999999995
  0
3DFACE
  5
D05
  8
0
 10
0.6099999999999999
 20
-1.3
 30
0.6099999999999995
 11
0.6486370330515623
 21
-1.3103527618041011
 31
0.6099999999999995
 12
0.6452748750309321
 22
-1.322900506360168
 32
0.6024999999999992
 13
0.6066378419793697
 23
-1.3125477445560669
 33
0.6024999999999992
  0
3DFACE
  5
D06
  8
0
 10
0.6066378419793697
 20
-1.3125477445560669
 30
0.6024999999999992
 11
0.6452748750309321
 21
-1.322900506360168
 31
0.6024999999999992
 12
0.6452748750309321
 22
-1.322900506360168
 32
0.5874999999999995
 13
0.6066378419793697
 23
-1.3125477445560669
 33
0.5874999999999995
  0
3DFACE
  5
D07
  8
0
 10
0.6066378419793697
 20
-1.3125477445560669
 30
0.5874999999999995
 11
0.6452748750309321
 21
-1.322900506360168
 31
0.5874999999999995
 12
0.6486370330515623
 22
-1.3103527618041011
 32
0.5800000000000001
 13
0.6099999999999999
 23
-1.3
 33
0.5800000000000001
  0
3DFACE
  5
D5B
  8
0
 10
0.05
 20
-2.1400000000000001
 30
0.4299999999999998
 11
0.05
 21
-2.1400000000000001
 31
0.5199999999999996
 12
0.0353553390593274
 22
-2.1046446609406728
 32
0.5199999999999996
 13
0.0353553390593274
 23
-2.1046446609406728
 33
0.4299999999999998
  0
3DFACE
  5
D5C
  8
0
 10
0.0353553390593274
 20
-2.1046446609406728
 30
0.4299999999999998
 11
0.0353553390593274
 21
-2.1046446609406728
 31
0.5199999999999996
 12
0.04
 22
-1.9599999999999991
 32
0.5199999999999996
 13
0.04
 23
-1.9599999999999991
 33
0.4299999999999998
  0
3DFACE
  5
D5D
  8
0
 10
-0.04
 20
-1.9599999999999991
 30
0.4299999999999998
 11
-0.04
 21
-1.9599999999999991
 31
0.5199999999999996
 12
-0.0353553390593274
 22
-2.1046446609406728
 32
0.5199999999999996
 13
-0.0353553390593274
 23
-2.1046446609406728
 33
0.4299999999999998
  0
3DFACE
  5
D5E
  8
0
 10
-0.0353553390593274
 20
-2.1046446609406728
 30
0.4299999999999998
 11
-0.0353553390593274
 21
-2.1046446609406728
 31
0.5199999999999996
 12
-0.05
 22
-2.1400000000000001
 32
0.5199999999999996
 13
-0.05
 23
-2.1400000000000001
 33
0.4299999999999998
  0
3DFACE
  5
D5F
  8
0
 10
-0.05
 20
-2.1400000000000001
 30
0.4299999999999998
 11
-0.05
 21
-2.1400000000000001
 31
0.5199999999999996
 12
-0.0353553390593274
 22
-2.175355339059327
 32
0.5199999999999996
 13
-0.0353553390593274
 23
-2.175355339059327
 33
0.4299999999999998
  0
3DFACE
  5
D60
  8
0
 10
-0.0353553390593274
 20
-2.175355339059327
 30
0.4299999999999998
 11
-0.0353553390593274
 21
-2.175355339059327
 31
0.5199999999999996
 12
0.0
 22
-2.1899999999999999
 32
0.5199999999999996
 13
0.0
 23
-2.1899999999999999
 33
0.4299999999999998
  0
3DFACE
  5
D61
  8
0
 10
0.0
 20
-2.1899999999999999
 30
0.4299999999999998
 11
0.0
 21
-2.1899999999999999
 31
0.5199999999999996
 12
0.0353553390593274
 22
-2.175355339059327
 32
0.5199999999999996
 13
0.0353553390593274
 23
-2.175355339059327
 33
0.4299999999999998
  0
3DFACE
  5
D62
  8
0
 10
0.0353553390593274
 20
-2.175355339059327
 30
0.4299999999999998
 11
0.0353553390593274
 21
-2.175355339059327
 31
0.5199999999999996
 12
0.05
 22
-2.1400000000000001
 32
0.5199999999999996
 13
0.05
 23
-2.1400000000000001
 33
0.4299999999999998
  0
3DFACE
  5
D63
  8
0
 10
0.03
 20
-2.1400000000000001
 30
0.5699999999999994
 11
0.05
 21
-2.1400000000000001
 31
0.5199999999999996
 12
0.0353553390593274
 22
-2.175355339059327
 32
0.5199999999999996
 13
0.0212132034355964
 23
-2.1612132034355969
 33
0.5699999999999994
  0
3DFACE
  5
D64
  8
0
 10
0.0212132034355964
 20
-2.1612132034355969
 30
0.5699999999999994
 11
0.0353553390593274
 21
-2.175355339059327
 31
0.5199999999999996
 12
0.0
 22
-2.1899999999999999
 32
0.5199999999999996
 13
0.0
 23
-2.1699999999999999
 33
0.5699999999999994
  0
3DFACE
  5
D65
  8
0
 10
0.0
 20
-2.1699999999999999
 30
0.5699999999999994
 11
0.0
 21
-2.1899999999999999
 31
0.5199999999999996
 12
-0.0353553390593274
 22
-2.175355339059327
 32
0.5199999999999996
 13
-0.0212132034355964
 23
-2.1612132034355969
 33
0.5699999999999994
  0
3DFACE
  5
D66
  8
0
 10
-0.0212132034355964
 20
-2.1612132034355969
 30
0.5699999999999994
 11
-0.0353553390593274
 21
-2.175355339059327
 31
0.5199999999999996
 12
-0.05
 22
-2.1400000000000001
 32
0.5199999999999996
 13
-0.03
 23
-2.1400000000000001
 33
0.5699999999999994
  0
3DFACE
  5
D67
  8
0
 10
-0.03
 20
-2.1400000000000001
 30
0.5699999999999994
 11
-0.05
 21
-2.1400000000000001
 31
0.5199999999999996
 12
-0.0353553390593274
 22
-2.1046446609406728
 32
0.5199999999999996
 13
-0.0212132034355964
 23
-2.1187867965644029
 33
0.5699999999999994
  0
3DFACE
  5
D68
  8
0
 10
-0.0212132034355964
 20
-2.1187867965644029
 30
0.5699999999999994
 11
-0.0353553390593274
 21
-2.1046446609406728
 31
0.5199999999999996
 12
0.0
 22
-2.0899999999999999
 32
0.5199999999999996
 13
0.0
 23
-2.1099999999999999
 33
0.5699999999999994
  0
3DFACE
  5
D69
  8
0
 10
0.0
 20
-2.1099999999999999
 30
0.5699999999999994
 11
0.0
 21
-2.0899999999999999
 31
0.5199999999999996
 12
0.0353553390593274
 22
-2.1046446609406728
 32
0.5199999999999996
 13
0.0212132034355964
 23
-2.1187867965644029
 33
0.5699999999999994
  0
3DFACE
  5
D6A
  8
0
 10
0.0212132034355964
 20
-2.1187867965644029
 30
0.5699999999999994
 11
0.0353553390593274
 21
-2.1046446609406728
 31
0.5199999999999996
 12
0.05
 22
-2.1400000000000001
 32
0.5199999999999996
 13
0.03
 23
-2.1400000000000001
 33
0.5699999999999994
  0
3DFACE
  5
D6D
  8
0
 10
-0.04
 20
-1.9599999999999991
 30
0.5199999999999996
 11
0.04
 21
-1.9599999999999991
 31
0.5199999999999996
 12
0.0
 22
-2.0899999999999999
 32
0.5199999999999996
 13
-0.0353553390593274
 23
-2.1046446609406728
 33
0.5199999999999996
  0
3DFACE
  5
D6E
  8
0
 10
0.04
 20
-1.9599999999999991
 30
0.4299999999999998
 11
-0.04
 21
-1.9599999999999991
 31
0.4299999999999998
 12
-0.0353553390593274
 22
-2.1046446609406728
 32
0.4299999999999998
 13
0.0353553390593274
 23
-2.1046446609406728
 33
0.4299999999999998
  0
3DFACE
  5
D6F
  8
0
 10
0.03
 20
-2.1400000000000001
 30
0.5699999999999994
 11
0.0212132034355964
 21
-2.1612132034355969
 31
0.5699999999999994
 12
0.0
 22
-2.1699999999999999
 32
0.5699999999999994
 13
-0.0212132034355964
 23
-2.1612132034355969
 33
0.5699999999999994
  0
3DFACE
  5
D70
  8
0
 10
0.0212132034355964
 20
-2.1187867965644029
 30
0.5699999999999994
 11
0.03
 21
-2.1400000000000001
 31
0.5699999999999994
 12
-0.0212132034355964
 22
-2.1612132034355969
 32
0.5699999999999994
 13
-0.03
 23
-2.1400000000000001
 33
0.5699999999999994
  0
3DFACE
  5
D71
  8
0
 10
0.0
 20
-2.1099999999999999
 30
0.5699999999999994
 11
0.0212132034355964
 21
-2.1187867965644029
 31
0.5699999999999994
 12
-0.03
 22
-2.1400000000000001
 32
0.5699999999999994
 13
-0.0212132034355964
 23
-2.1187867965644029
 33
0.5699999999999994
  0
3DFACE
  5
D72
  8
0
 10
0.04
 20
-1.9599999999999991
 30
0.5199999999999996
 11
0.04
 21
-1.9599999999999991
 31
0.5199999999999996
 12
0.0353553390593274
 22
-2.1046446609406728
 32
0.5199999999999996
 13
0.0
 23
-2.0899999999999999
 33
0.5199999999999996
  0
3DFACE
  5
D73
  8
0
 10
-0.39
 20
-1.9599999999999991
 30
0.5599999999999996
 11
-0.04
 21
-1.9599999999999991
 31
0.5199999999999996
 12
0.04
 22
-1.9599999999999991
 32
0.5199999999999996
 13
0.39
 23
-1.9599999999999991
 33
0.5599999999999996
  0
3DFACE
  5
D74
  8
0
 10
0.04
 20
-1.9599999999999991
 30
0.4299999999999998
 11
0.04
 21
-1.9599999999999991
 31
0.5199999999999996
 12
0.39
 22
-1.9599999999999991
 32
0.5599999999999996
 13
0.15
 23
-1.9599999999999991
 33
0.4099999999999993
  0
3DFACE
  5
D75
  8
0
 10
-0.15
 20
-1.9599999999999991
 30
0.4099999999999993
 11
-0.39
 21
-1.9599999999999991
 31
0.5599999999999996
 12
-0.04
 22
-1.9599999999999991
 32
0.5199999999999996
 13
-0.04
 23
-1.9599999999999991
 33
0.4299999999999998
  0
VIEWPORT
  5
2E
 67
     1
  8
0
 10
144.7270812988281
 20
101.2295806407928
 30
0.0
 40
391.13550988316581
 41
222.15178063964851
 68
     2
 69
     1
1001
ACAD
1000
MVIEW
1002
{
1070
    16
1010
0.0
1020
0.0
1030
0.0
1010
0.0
1020
0.0
1030
1.0
1040
0.0
1040
222.15178063964851
1040
144.7270812988281
1040
101.2295806407928
1040
50.0
1040
0.0
1040
0.0
1070
     0
1070
   100
1070
     1
1070
     1
1070
     0
1070
     0
1070
     0
1070
     0
1040
0.0
1040
0.0
1040
0.0
1040
10.0
1040
10.0
1040
10.0
1040
10.0
1070
     0
1002
{
1002
}
1002
}
  0
VIEWPORT
  5
30
 67
     1
  8
0
 10
139.22375631332389
 20
100.8062499761581
 30
0.0
 40
222.7580101013184
 41
161.289999961853
 68
     1
 69
     2
1001
ACAD
1000
MVIEW
1002
{
1070
    16
1010
0.0
1020
0.0
1030
0.0
1010
0.0
1020
0.0
1030
1.0
1040
0.0
1040
307.49010134149
1040
210.0
1040
148.5
1040
50.0
1040
0.0
1040
0.0
1070
     0
1070
   100
1070
     1
1070
     3
1070
     0
1070
     1
1070
     0
1070
     0
1040
0.0
1040
0.0
1040
0.0
1040
10.0
1040
10.0
1040
10.0
1040
10.0
1070
     0
1002
{
1002
}
1002
}
  0
ENDSEC
  0
EOF
