  0
SECTION
  2
HEADER
  9
$ACADVER
  1
AC1009
  9
$INSBASE
 10
0.0
 20
0.0
 30
0.0
  9
$EXTMIN
 10
-1.04
 20
-15.992800000000001
 30
-3.5800000000000001
  9
$EXTMAX
 10
1.04
 20
8.8434880000000007
 30
8.6735680000000013
  9
$LIMMIN
 10
0.0
 20
0.0
  9
$LIMMAX
 10
420.0
 20
297.0
  9
$ORTHOMODE
 70
     1
  9
$REGENMODE
 70
     1
  9
$FILLMODE
 70
     1
  9
$QTEXTMODE
 70
     0
  9
$MIRRTEXT
 70
     1
  9
$DRAGMODE
 70
     2
  9
$LTSCALE
 40
1.0
  9
$OSMODE
 70
    35
  9
$ATTMODE
 70
     1
  9
$TEXTSIZE
 40
2.5
  9
$TRACEWID
 40
1.0
  9
$TEXTSTYLE
  7
STANDARD
  9
$CLAYER
  8
WHEELS
  9
$CELTYPE
  6
BYLAYER
  9
$CECOLOR
 62
   256
  9
$DIMSCALE
 40
1.0
  9
$DIMASZ
 40
2.5
  9
$DIMEXO
 40
0.625
  9
$DIMDLI
 40
3.75
  9
$DIMRND
 40
0.0
  9
$DIMDLE
 40
0.0
  9
$DIMEXE
 40
1.25
  9
$DIMTP
 40
0.0
  9
$DIMTM
 40
0.0
  9
$DIMTXT
 40
2.5
  9
$DIMCEN
 40
2.5
  9
$DIMTSZ
 40
0.0
  9
$DIMTOL
 70
     0
  9
$DIMLIM
 70
     0
  9
$DIMTIH
 70
     0
  9
$DIMTOH
 70
     0
  9
$DIMSE1
 70
     0
  9
$DIMSE2
 70
     0
  9
$DIMTAD
 70
     1
  9
$DIMZIN
 70
     8
  9
$DIMBLK
  1

  9
$DIMASO
 70
     1
  9
$DIMSHO
 70
     1
  9
$DIMPOST
  1

  9
$DIMAPOST
  1

  9
$DIMALT
 70
     0
  9
$DIMALTD
 70
     3
  9
$DIMALTF
 40
0.03937007874016
  9
$DIMLFAC
 40
1.0
  9
$DIMTOFL
 70
     1
  9
$DIMTVP
 40
0.0
  9
$DIMTIX
 70
     0
  9
$DIMSOXD
 70
     0
  9
$DIMSAH
 70
     0
  9
$DIMBLK1
  1

  9
$DIMBLK2
  1

  9
$DIMSTYLE
  2
ISO-25
  9
$DIMCLRD
 70
     0
  9
$DIMCLRE
 70
     0
  9
$DIMCLRT
 70
     0
  9
$DIMTFAC
 40
1.0
  9
$DIMGAP
 40
0.625
  9
$LUNITS
 70
     2
  9
$LUPREC
 70
     4
  9
$SKETCHINC
 40
1.0
  9
$FILLETRAD
 40
10.0
  9
$AUNITS
 70
     0
  9
$AUPREC
 70
     0
  9
$MENU
  1
.
  9
$ELEVATION
 40
0.0
  9
$PELEVATION
 40
0.0
  9
$THICKNESS
 40
0.0
  9
$LIMCHECK
 70
     0
  9
$BLIPMODE
 70
     0
  9
$CHAMFERA
 40
10.0
  9
$CHAMFERB
 40
10.0
  9
$SKPOLY
 70
     0
  9
$TDCREATE
 40
2457235.044502581
  9
$TDUPDATE
 40
2457238.00514655
  9
$TDINDWG
 40
1.0477635300999999
  9
$TDUSRTIMER
 40
1.0477635300999999
  9
$USRTIMER
 70
     1
  9
$ANGBASE
 50
0.0
  9
$ANGDIR
 70
     0
  9
$PDMODE
 70
     0
  9
$PDSIZE
 40
0.0
  9
$PLINEWID
 40
0.0
  9
$COORDS
 70
     1
  9
$SPLFRAME
 70
     0
  9
$SPLINETYPE
 70
     6
  9
$SPLINESEGS
 70
     8
  9
$ATTDIA
 70
     1
  9
$ATTREQ
 70
     1
  9
$HANDLING
 70
-16383
  9
$HANDSEED
  5
C85
  9
$SURFTAB1
 70
     6
  9
$SURFTAB2
 70
     6
  9
$SURFTYPE
 70
     6
  9
$SURFU
 70
     6
  9
$SURFV
 70
     6
  9
$UCSNAME
  2

  9
$UCSORG
 10
0.0
 20
0.0
 30
0.0
  9
$UCSXDIR
 10
0.0
 20
-1.0
 30
0.0
  9
$UCSYDIR
 10
0.0
 20
0.0
 30
1.0
  9
$PUCSNAME
  2

  9
$PUCSORG
 10
0.0
 20
0.0
 30
0.0
  9
$PUCSXDIR
 10
1.0
 20
0.0
 30
0.0
  9
$PUCSYDIR
 10
0.0
 20
1.0
 30
0.0
  9
$USERI1
 70
     0
  9
$USERI2
 70
     0
  9
$USERI3
 70
     0
  9
$USERI4
 70
     0
  9
$USERI5
 70
     0
  9
$USERR1
 40
0.0
  9
$USERR2
 40
0.0
  9
$USERR3
 40
0.0
  9
$USERR4
 40
0.0
  9
$USERR5
 40
0.0
  9
$WORLDVIEW
 70
     1
  9
$SHADEDGE
 70
     3
  9
$SHADEDIF
 70
    70
  9
$TILEMODE
 70
     1
  9
$MAXACTVP
 70
    64
  9
$PLIMCHECK
 70
     0
  9
$PEXTMIN
 10
27.844751262664801
 20
20.161249995231621
 30
0.0
  9
$PEXTMAX
 10
250.60276136398309
 20
181.4512499570846
 30
0.0
  9
$PLIMMIN
 10
-3.757080078125
 20
-3.7570831775665279
  9
$PLIMMAX
 10
293.21124267578119
 20
206.21624445915219
  9
$UNITMODE
 70
     0
  9
$VISRETAIN
 70
     1
  9
$PLINEGEN
 70
     0
  9
$PSLTSCALE
 70
     1
  0
ENDSEC
  0
SECTION
  2
TABLES
  0
TABLE
  2
VPORT
 70
    49
  0
VPORT
  2
*ACTIVE
 70
     0
 10
0.0
 20
0.0
 11
1.0
 21
1.0
 12
1.015904538908976
 22
0.3607733628983545
 13
0.0
 23
0.0
 14
0.01
 24
0.01
 15
1.0
 25
1.0
 16
-1.0
 26
0.0
 36
0.0
 17
0.0
 27
0.0
 37
0.0
 40
3.4138631380549449
 41
2.2487980769230771
 42
50.0
 43
0.0
 44
0.0
 50
0.0
 51
0.0
 71
     0
 72
   100
 73
     1
 74
     3
 75
     1
 76
     1
 77
     0
 78
     0
  0
ENDTAB
  0
TABLE
  2
LTYPE
 70
     1
  0
LTYPE
  2
CONTINUOUS
 70
     0
  3
Solid line
 72
    65
 73
     0
 40
0.0
  0
ENDTAB
  0
TABLE
  2
LAYER
 70
    11
  0
LAYER
  2
0
 70
     0
 62
     7
  6
CONTINUOUS
  0
LAYER
  2
REFERENCE
 70
     0
 62
     9
  6
CONTINUOUS
  0
LAYER
  2
FRAME
 70
     0
 62
     5
  6
CONTINUOUS
  0
LAYER
  2
TMP
 70
     0
 62
     4
  6
CONTINUOUS
  0
LAYER
  2
CARGO_BOX
 70
     0
 62
     3
  6
CONTINUOUS
  0
LAYER
  2
REF2
 70
     0
 62
     9
  6
CONTINUOUS
  0
LAYER
  2
CARGO_IN
 70
     0
 62
     1
  6
CONTINUOUS
  0
LAYER
  2
WHEELS
 70
     0
 62
     2
  6
CONTINUOUS
  0
LAYER
  2
FENDERS
 70
     0
 62
     6
  6
CONTINUOUS
  0
LAYER
  2
INTERNALS
 70
     0
 62
     5
  6
CONTINUOUS
  0
LAYER
  2
TENT
 70
     0
 62
     1
  6
CONTINUOUS
  0
ENDTAB
  0
TABLE
  2
STYLE
 70
     1
  0
STYLE
  2
STANDARD
 70
     0
 40
0.0
 41
1.0
 50
0.0
 71
     0
 42
2.5
  3
txt
  4

  0
ENDTAB
  0
TABLE
  2
VIEW
 70
     0
  0
ENDTAB
  0
TABLE
  2
UCS
 70
     0
  0
ENDTAB
  0
TABLE
  2
APPID
 70
     1
  0
APPID
  2
ACAD
 70
     0
  0
ENDTAB
  0
TABLE
  2
DIMSTYLE
 70
     1
  0
DIMSTYLE
  2
ISO-25
 70
     0
  3

  4

  5

  6

  7

 40
1.0
 41
2.5
 42
0.625
 43
3.75
 44
1.25
 45
0.0
 46
0.0
 47
0.0
 48
0.0
140
2.5
141
2.5
142
0.0
143
0.03937007874016
144
1.0
145
0.0
146
1.0
147
0.625
 71
     0
 72
     0
 73
     0
 74
     0
 75
     0
 76
     0
 77
     1
 78
     8
170
     0
171
     3
172
     1
173
     0
174
     0
175
     0
176
     0
177
     0
178
     0
  0
ENDTAB
  0
ENDSEC
  0
SECTION
  2
BLOCKS
  0
BLOCK
  8
0
  2
$MODEL_SPACE
 70
     0
 10
0.0
 20
0.0
 30
0.0
  3
$MODEL_SPACE
  1

  0
ENDBLK
  5
21
  8
0
  0
BLOCK
 67
     1
  8
0
  2
$PAPER_SPACE
 70
     0
 10
0.0
 20
0.0
 30
0.0
  3
$PAPER_SPACE
  1

  0
ENDBLK
  5
1D
 67
     1
  8
0
  0
ENDSEC
  0
SECTION
  2
ENTITIES
  0
3DFACE
  5
3FA
  8
WHEELS
 10
-0.7399999999999999
 20
0.48
 30
0.0
 11
-0.7400000000000001
 21
0.4156921938165306
 31
0.24
 12
-0.6799999999999999
 22
0.3290896534380867
 32
0.19
 13
-0.6799999999999999
 23
0.3799999999999999
 33
0.0
  0
3DFACE
  5
3FB
  8
WHEELS
 10
-0.7400000000000001
 20
0.4156921938165306
 30
0.24
 11
-0.7400000000000001
 21
0.24
 31
0.4156921938165306
 12
-0.6799999999999999
 22
0.19
 32
0.3290896534380867
 13
-0.6799999999999999
 23
0.3290896534380867
 33
0.19
  0
3DFACE
  5
3FC
  8
WHEELS
 10
-0.7400000000000001
 20
0.24
 30
0.4156921938165306
 11
-0.7400000000000001
 21
0.0
 31
0.48
 12
-0.6800000000000001
 22
0.0
 32
0.3800000000000001
 13
-0.6799999999999999
 23
0.19
 33
0.3290896534380867
  0
3DFACE
  5
3FD
  8
WHEELS
 10
-0.7400000000000001
 20
0.0
 30
0.48
 11
-0.7400000000000001
 21
-0.2399999999999999
 31
0.4156921938165306
 12
-0.6800000000000001
 22
-0.19
 32
0.3290896534380867
 13
-0.6800000000000001
 23
0.0
 33
0.3800000000000001
  0
3DFACE
  5
3FE
  8
WHEELS
 10
-0.7400000000000001
 20
-0.2399999999999999
 30
0.4156921938165306
 11
-0.7400000000000001
 21
-0.4156921938165305
 31
0.2400000000000002
 12
-0.6800000000000001
 22
-0.3290896534380866
 32
0.1900000000000002
 13
-0.6800000000000001
 23
-0.19
 33
0.3290896534380867
  0
3DFACE
  5
3FF
  8
WHEELS
 10
-0.7400000000000001
 20
-0.4156921938165305
 30
0.2400000000000002
 11
-0.7400000000000002
 21
-0.48
 31
0.0000000000000002
 12
-0.6800000000000001
 22
-0.38
 32
0.0000000000000002
 13
-0.6800000000000001
 23
-0.3290896534380866
 33
0.1900000000000002
  0
3DFACE
  5
400
  8
WHEELS
 10
-0.7400000000000002
 20
-0.48
 30
0.0000000000000002
 11
-0.7400000000000001
 21
-0.4156921938165308
 31
-0.2399999999999997
 12
-0.6800000000000001
 22
-0.3290896534380868
 32
-0.1899999999999997
 13
-0.6800000000000001
 23
-0.38
 33
0.0000000000000002
  0
3DFACE
  5
401
  8
WHEELS
 10
-0.7400000000000001
 20
-0.4156921938165308
 30
-0.2399999999999997
 11
-0.7400000000000001
 21
-0.2400000000000002
 31
-0.4156921938165305
 12
-0.6800000000000001
 22
-0.1900000000000002
 32
-0.3290896534380866
 13
-0.6800000000000001
 23
-0.3290896534380868
 33
-0.1899999999999997
  0
3DFACE
  5
402
  8
WHEELS
 10
-0.7400000000000001
 20
-0.2400000000000002
 30
-0.4156921938165305
 11
-0.7400000000000001
 21
-0.0000000000000001
 31
-0.48
 12
-0.6800000000000001
 22
-0.0000000000000001
 32
-0.38
 13
-0.6800000000000001
 23
-0.1900000000000002
 33
-0.3290896534380866
  0
3DFACE
  5
403
  8
WHEELS
 10
-0.7400000000000001
 20
-0.0000000000000001
 30
-0.48
 11
-0.7400000000000001
 21
0.24
 31
-0.4156921938165305
 12
-0.6799999999999999
 22
0.19
 32
-0.3290896534380867
 13
-0.6800000000000001
 23
-0.0000000000000001
 33
-0.38
  0
3DFACE
  5
404
  8
WHEELS
 10
-0.7400000000000001
 20
0.24
 30
-0.4156921938165305
 11
-0.7400000000000001
 21
0.4156921938165306
 31
-0.2399999999999998
 12
-0.6799999999999999
 22
0.3290896534380867
 32
-0.19
 13
-0.6799999999999999
 23
0.19
 33
-0.3290896534380867
  0
3DFACE
  5
405
  8
WHEELS
 10
-0.7400000000000001
 20
0.4156921938165306
 30
-0.2399999999999998
 11
-0.7399999999999999
 21
0.48
 31
0.0
 12
-0.6799999999999999
 22
0.3799999999999999
 32
0.0
 13
-0.6799999999999999
 23
0.3290896534380867
 33
-0.19
  0
3DFACE
  5
406
  8
WHEELS
 10
-0.94
 20
-0.38
 30
0.0
 11
-0.94
 21
-0.3290896534380867
 31
0.19
 12
-0.88
 22
-0.2050609665440988
 32
0.2050609665440988
 13
-0.88
 23
-0.29
 33
0.0
  0
3DFACE
  5
407
  8
WHEELS
 10
-0.94
 20
-0.3290896534380867
 30
0.19
 11
-0.94
 21
-0.1900000000000001
 31
0.3290896534380867
 12
-0.88
 22
-0.2050609665440988
 32
0.2050609665440988
 13
-0.88
 23
-0.2050609665440988
 33
0.2050609665440988
  0
3DFACE
  5
408
  8
WHEELS
 10
-0.94
 20
-0.1900000000000001
 30
0.3290896534380867
 11
-0.9399999999999998
 21
0.0
 31
0.3800000000000001
 12
-0.88
 22
0.0
 32
0.29
 13
-0.88
 23
-0.2050609665440988
 33
0.2050609665440988
  0
3DFACE
  5
409
  8
WHEELS
 10
-0.9399999999999998
 20
0.0
 30
0.3800000000000001
 11
-0.9399999999999998
 21
0.19
 31
0.3290896534380867
 12
-0.88
 22
0.2050609665440988
 32
0.2050609665440988
 13
-0.88
 23
0.0
 33
0.29
  0
3DFACE
  5
40A
  8
WHEELS
 10
-0.9399999999999998
 20
0.19
 30
0.3290896534380867
 11
-0.9399999999999998
 21
0.3290896534380866
 31
0.1900000000000002
 12
-0.88
 22
0.2050609665440988
 32
0.2050609665440988
 13
-0.88
 23
0.2050609665440988
 33
0.2050609665440988
  0
3DFACE
  5
40B
  8
WHEELS
 10
-0.9399999999999998
 20
0.3290896534380866
 30
0.1900000000000002
 11
-0.9399999999999998
 21
0.38
 31
0.0000000000000002
 12
-0.88
 22
0.29
 32
0.0000000000000001
 13
-0.88
 23
0.2050609665440988
 33
0.2050609665440988
  0
3DFACE
  5
40C
  8
WHEELS
 10
-0.9399999999999998
 20
0.38
 30
0.0000000000000002
 11
-0.9399999999999998
 21
0.3290896534380868
 31
-0.1899999999999997
 12
-0.88
 22
0.2050609665440988
 32
-0.2050609665440988
 13
-0.88
 23
0.29
 33
0.0000000000000001
  0
3DFACE
  5
40D
  8
WHEELS
 10
-0.9399999999999998
 20
0.3290896534380868
 30
-0.1899999999999997
 11
-0.9399999999999998
 21
0.1900000000000002
 31
-0.3290896534380866
 12
-0.88
 22
0.2050609665440988
 32
-0.2050609665440988
 13
-0.88
 23
0.2050609665440988
 33
-0.2050609665440988
  0
3DFACE
  5
40E
  8
WHEELS
 10
-0.9399999999999998
 20
0.1900000000000002
 30
-0.3290896534380866
 11
-0.9399999999999998
 21
0.0000000000000001
 31
-0.38
 12
-0.88
 22
0.0
 32
-0.29
 13
-0.88
 23
0.2050609665440988
 33
-0.2050609665440988
  0
3DFACE
  5
40F
  8
WHEELS
 10
-0.9399999999999998
 20
0.0000000000000001
 30
-0.38
 11
-0.94
 21
-0.1900000000000001
 31
-0.3290896534380867
 12
-0.88
 22
-0.2050609665440988
 32
-0.2050609665440988
 13
-0.88
 23
0.0
 33
-0.29
  0
3DFACE
  5
410
  8
WHEELS
 10
-0.94
 20
-0.1900000000000001
 30
-0.3290896534380867
 11
-0.94
 21
-0.3290896534380867
 31
-0.19
 12
-0.88
 22
-0.2050609665440988
 32
-0.2050609665440988
 13
-0.88
 23
-0.2050609665440988
 33
-0.2050609665440988
  0
3DFACE
  5
411
  8
WHEELS
 10
-0.94
 20
-0.3290896534380867
 30
-0.19
 11
-0.94
 21
-0.38
 31
0.0
 12
-0.88
 22
-0.29
 32
0.0
 13
-0.88
 23
-0.2050609665440988
 33
-0.2050609665440988
  0
3DFACE
  5
412
  8
WHEELS
 10
-0.88
 20
-0.29
 30
0.0
 11
-0.88
 21
-0.2050609665440988
 31
0.2050609665440988
 12
-0.98
 22
-0.1131370849898476
 32
0.1131370849898476
 13
-0.98
 23
-0.16
 33
0.0
  0
3DFACE
  5
413
  8
WHEELS
 10
-0.88
 20
-0.2050609665440988
 30
0.2050609665440988
 11
-0.88
 21
0.0
 31
0.29
 12
-0.98
 22
0.0
 32
0.16
 13
-0.98
 23
-0.1131370849898476
 33
0.1131370849898476
  0
3DFACE
  5
414
  8
WHEELS
 10
-0.88
 20
0.0
 30
0.29
 11
-0.88
 21
0.2050609665440988
 31
0.2050609665440988
 12
-0.98
 22
0.1131370849898476
 32
0.1131370849898476
 13
-0.98
 23
0.0
 33
0.16
  0
3DFACE
  5
415
  8
WHEELS
 10
-0.88
 20
0.2050609665440988
 30
0.2050609665440988
 11
-0.88
 21
0.29
 31
0.0
 12
-0.98
 22
0.16
 32
0.0
 13
-0.98
 23
0.1131370849898476
 33
0.1131370849898476
  0
3DFACE
  5
416
  8
WHEELS
 10
-0.88
 20
0.29
 30
0.0
 11
-0.88
 21
0.2050609665440988
 31
-0.2050609665440988
 12
-0.98
 22
0.1131370849898476
 32
-0.1131370849898476
 13
-0.98
 23
0.16
 33
0.0
  0
3DFACE
  5
417
  8
WHEELS
 10
-0.88
 20
0.2050609665440988
 30
-0.2050609665440988
 11
-0.88
 21
0.0
 31
-0.29
 12
-0.98
 22
0.0
 32
-0.16
 13
-0.98
 23
0.1131370849898476
 33
-0.1131370849898476
  0
3DFACE
  5
418
  8
WHEELS
 10
-0.88
 20
0.0
 30
-0.29
 11
-0.88
 21
-0.2050609665440988
 31
-0.2050609665440988
 12
-0.98
 22
-0.1131370849898475
 32
-0.1131370849898476
 13
-0.98
 23
0.0
 33
-0.16
  0
3DFACE
  5
419
  8
WHEELS
 10
-0.88
 20
-0.2050609665440988
 30
-0.2050609665440988
 11
-0.88
 21
-0.29
 31
0.0
 12
-0.98
 22
-0.16
 32
0.0
 13
-0.98
 23
-0.1131370849898475
 33
-0.1131370849898476
  0
3DFACE
  5
41A
  8
WHEELS
 10
-0.88
 20
-0.48
 30
0.0
 11
-0.88
 21
-0.4156921938165306
 31
0.24
 12
-0.9399999999999998
 22
-0.3290896534380867
 32
0.19
 13
-0.9399999999999998
 23
-0.3799999999999999
 33
0.0
  0
3DFACE
  5
41B
  8
WHEELS
 10
-0.88
 20
-0.4156921938165306
 30
0.24
 11
-0.88
 21
-0.24
 31
0.4156921938165306
 12
-0.9399999999999998
 22
-0.19
 32
0.3290896534380867
 13
-0.9399999999999998
 23
-0.3290896534380867
 33
0.19
  0
3DFACE
  5
41C
  8
WHEELS
 10
-0.88
 20
-0.24
 30
0.4156921938165306
 11
-0.88
 21
0.0
 31
0.48
 12
-0.9399999999999998
 22
0.0
 32
0.3800000000000001
 13
-0.9399999999999998
 23
-0.19
 33
0.3290896534380867
  0
3DFACE
  5
41D
  8
WHEELS
 10
-0.88
 20
0.0
 30
0.48
 11
-0.88
 21
0.2399999999999999
 31
0.4156921938165306
 12
-0.9399999999999998
 22
0.19
 32
0.3290896534380867
 13
-0.9399999999999998
 23
0.0
 33
0.3800000000000001
  0
3DFACE
  5
41E
  8
WHEELS
 10
-0.88
 20
0.2399999999999999
 30
0.4156921938165306
 11
-0.88
 21
0.4156921938165305
 31
0.2400000000000002
 12
-0.9399999999999998
 22
0.3290896534380866
 32
0.1900000000000002
 13
-0.9399999999999998
 23
0.19
 33
0.3290896534380867
  0
3DFACE
  5
41F
  8
WHEELS
 10
-0.88
 20
0.4156921938165305
 30
0.2400000000000002
 11
-0.88
 21
0.48
 31
0.0000000000000002
 12
-0.9399999999999998
 22
0.38
 32
0.0000000000000002
 13
-0.9399999999999998
 23
0.3290896534380866
 33
0.1900000000000002
  0
3DFACE
  5
420
  8
WHEELS
 10
-0.88
 20
0.48
 30
0.0000000000000002
 11
-0.88
 21
0.4156921938165307
 31
-0.2399999999999997
 12
-0.9399999999999998
 22
0.3290896534380868
 32
-0.1899999999999997
 13
-0.9399999999999998
 23
0.38
 33
0.0000000000000002
  0
3DFACE
  5
421
  8
WHEELS
 10
-0.88
 20
0.4156921938165307
 30
-0.2399999999999997
 11
-0.88
 21
0.2400000000000002
 31
-0.4156921938165305
 12
-0.9399999999999998
 22
0.1900000000000002
 32
-0.3290896534380866
 13
-0.9399999999999998
 23
0.3290896534380868
 33
-0.1899999999999997
  0
3DFACE
  5
422
  8
WHEELS
 10
-0.88
 20
0.2400000000000002
 30
-0.4156921938165305
 11
-0.88
 21
0.0000000000000001
 31
-0.48
 12
-0.9399999999999998
 22
0.0000000000000001
 32
-0.38
 13
-0.9399999999999998
 23
0.1900000000000002
 33
-0.3290896534380866
  0
3DFACE
  5
423
  8
WHEELS
 10
-0.88
 20
0.0000000000000001
 30
-0.48
 11
-0.88
 21
-0.24
 31
-0.4156921938165305
 12
-0.9399999999999998
 22
-0.19
 32
-0.3290896534380867
 13
-0.9399999999999998
 23
0.0000000000000001
 33
-0.38
  0
3DFACE
  5
424
  8
WHEELS
 10
-0.88
 20
-0.24
 30
-0.4156921938165305
 11
-0.88
 21
-0.4156921938165306
 31
-0.2399999999999998
 12
-0.9399999999999998
 22
-0.3290896534380867
 32
-0.19
 13
-0.9399999999999998
 23
-0.19
 33
-0.3290896534380867
  0
3DFACE
  5
425
  8
WHEELS
 10
-0.88
 20
-0.4156921938165306
 30
-0.2399999999999998
 11
-0.88
 21
-0.48
 31
0.0
 12
-0.9399999999999998
 22
-0.3799999999999999
 32
0.0
 13
-0.9399999999999998
 23
-0.3290896534380867
 33
-0.19
  0
3DFACE
  5
426
  8
WHEELS
 10
-0.7400000000000001
 20
-0.48
 30
0.0
 11
-0.7400000000000001
 21
-0.4156921938165306
 31
0.24
 12
-0.88
 22
-0.4156921938165306
 32
0.24
 13
-0.88
 23
-0.48
 33
0.0
  0
3DFACE
  5
427
  8
WHEELS
 10
-0.7400000000000001
 20
-0.4156921938165306
 30
0.24
 11
-0.7400000000000001
 21
-0.24
 31
0.4156921938165306
 12
-0.88
 22
-0.24
 32
0.4156921938165306
 13
-0.88
 23
-0.4156921938165306
 33
0.24
  0
3DFACE
  5
428
  8
WHEELS
 10
-0.7400000000000001
 20
-0.24
 30
0.4156921938165306
 11
-0.7400000000000001
 21
0.0
 31
0.48
 12
-0.88
 22
0.0
 32
0.48
 13
-0.88
 23
-0.24
 33
0.4156921938165306
  0
3DFACE
  5
429
  8
WHEELS
 10
-0.7400000000000001
 20
0.0
 30
0.48
 11
-0.7400000000000001
 21
0.2399999999999999
 31
0.4156921938165306
 12
-0.88
 22
0.2399999999999999
 32
0.4156921938165306
 13
-0.88
 23
0.0
 33
0.48
  0
3DFACE
  5
42A
  8
WHEELS
 10
-0.7400000000000001
 20
0.2399999999999999
 30
0.4156921938165306
 11
-0.7400000000000001
 21
0.4156921938165305
 31
0.2400000000000002
 12
-0.88
 22
0.4156921938165305
 32
0.2400000000000002
 13
-0.88
 23
0.2399999999999999
 33
0.4156921938165306
  0
3DFACE
  5
42B
  8
WHEELS
 10
-0.7400000000000001
 20
0.4156921938165305
 30
0.2400000000000002
 11
-0.7400000000000001
 21
0.48
 31
0.0000000000000002
 12
-0.88
 22
0.48
 32
0.0000000000000002
 13
-0.88
 23
0.4156921938165305
 33
0.2400000000000002
  0
3DFACE
  5
42C
  8
WHEELS
 10
-0.7400000000000001
 20
0.48
 30
0.0000000000000002
 11
-0.7400000000000001
 21
0.4156921938165307
 31
-0.2399999999999997
 12
-0.88
 22
0.4156921938165307
 32
-0.2399999999999997
 13
-0.88
 23
0.48
 33
0.0000000000000002
  0
3DFACE
  5
42D
  8
WHEELS
 10
-0.7400000000000001
 20
0.4156921938165307
 30
-0.2399999999999997
 11
-0.7400000000000001
 21
0.2400000000000002
 31
-0.4156921938165305
 12
-0.88
 22
0.2400000000000002
 32
-0.4156921938165305
 13
-0.88
 23
0.4156921938165307
 33
-0.2399999999999997
  0
3DFACE
  5
42E
  8
WHEELS
 10
-0.7400000000000001
 20
0.2400000000000002
 30
-0.4156921938165305
 11
-0.7400000000000001
 21
0.0000000000000001
 31
-0.48
 12
-0.88
 22
0.0000000000000001
 32
-0.48
 13
-0.88
 23
0.2400000000000002
 33
-0.4156921938165305
  0
3DFACE
  5
42F
  8
WHEELS
 10
-0.7400000000000001
 20
0.0000000000000001
 30
-0.48
 11
-0.7400000000000001
 21
-0.24
 31
-0.4156921938165305
 12
-0.88
 22
-0.24
 32
-0.4156921938165305
 13
-0.88
 23
0.0000000000000001
 33
-0.48
  0
3DFACE
  5
430
  8
WHEELS
 10
-0.7400000000000001
 20
-0.24
 30
-0.4156921938165305
 11
-0.7400000000000001
 21
-0.4156921938165306
 31
-0.2399999999999998
 12
-0.88
 22
-0.4156921938165306
 32
-0.2399999999999998
 13
-0.88
 23
-0.24
 33
-0.4156921938165305
  0
3DFACE
  5
431
  8
WHEELS
 10
-0.7400000000000001
 20
-0.4156921938165306
 30
-0.2399999999999998
 11
-0.7400000000000001
 21
-0.48
 31
0.0
 12
-0.88
 22
-0.48
 32
0.0
 13
-0.88
 23
-0.4156921938165306
 33
-0.2399999999999998
  0
3DFACE
  5
432
  8
WHEELS
 10
-0.98
 20
-0.0500000000000001
 30
0.0
 11
-0.98
 21
-0.0353553390593274
 31
0.0353553390593274
 12
-1.03
 22
-0.0353553390593274
 32
0.0353553390593274
 13
-1.03
 23
-0.0500000000000001
 33
0.0
  0
3DFACE
  5
433
  8
WHEELS
 10
-0.98
 20
-0.0353553390593274
 30
0.0353553390593274
 11
-0.98
 21
0.0
 31
0.0500000000000001
 12
-1.03
 22
0.0
 32
0.0500000000000001
 13
-1.03
 23
-0.0353553390593274
 33
0.0353553390593274
  0
3DFACE
  5
434
  8
WHEELS
 10
-0.98
 20
0.0
 30
0.0500000000000001
 11
-0.98
 21
0.0353553390593274
 31
0.0353553390593274
 12
-1.03
 22
0.0353553390593274
 32
0.0353553390593274
 13
-1.03
 23
0.0
 33
0.0500000000000001
  0
3DFACE
  5
435
  8
WHEELS
 10
-0.98
 20
0.0353553390593274
 30
0.0353553390593274
 11
-0.98
 21
0.0500000000000001
 31
0.0
 12
-1.03
 22
0.0500000000000001
 32
0.0
 13
-1.03
 23
0.0353553390593274
 33
0.0353553390593274
  0
3DFACE
  5
436
  8
WHEELS
 10
-0.98
 20
0.0500000000000001
 30
0.0
 11
-0.98
 21
0.0353553390593274
 31
-0.0353553390593274
 12
-1.03
 22
0.0353553390593274
 32
-0.0353553390593274
 13
-1.03
 23
0.0500000000000001
 33
0.0
  0
3DFACE
  5
437
  8
WHEELS
 10
-0.98
 20
0.0353553390593274
 30
-0.0353553390593274
 11
-0.98
 21
0.0
 31
-0.0500000000000001
 12
-1.03
 22
0.0
 32
-0.0500000000000001
 13
-1.03
 23
0.0353553390593274
 33
-0.0353553390593274
  0
3DFACE
  5
438
  8
WHEELS
 10
-0.98
 20
0.0
 30
-0.0500000000000001
 11
-0.98
 21
-0.0353553390593274
 31
-0.0353553390593274
 12
-1.03
 22
-0.0353553390593274
 32
-0.0353553390593274
 13
-1.03
 23
0.0
 33
-0.0500000000000001
  0
3DFACE
  5
439
  8
WHEELS
 10
-0.98
 20
-0.0353553390593274
 30
-0.0353553390593274
 11
-0.98
 21
-0.0500000000000001
 31
0.0
 12
-1.03
 22
-0.0500000000000001
 32
0.0
 13
-1.03
 23
-0.0353553390593274
 33
-0.0353553390593274
  0
3DFACE
  5
43A
  8
WHEELS
 10
-0.98
 20
0.0
 30
0.16
 11
-0.98
 21
0.1131370849898476
 31
0.1131370849898476
 12
-0.98
 22
0.0353553390593274
 32
0.0353553390593274
 13
-0.98
 23
0.0
 33
0.0500000000000001
  0
3DFACE
  5
43B
  8
WHEELS
 10
-1.03
 20
0.0
 30
-0.0500000000000001
 11
-1.03
 21
-0.0353553390593274
 31
-0.0353553390593274
 12
-1.03
 22
-0.0500000000000001
 32
0.0
 13
-1.03
 23
0.0353553390593274
 33
-0.0353553390593274
  0
3DFACE
  5
43C
  8
WHEELS
 10
-1.03
 20
0.0353553390593274
 30
-0.0353553390593274
 11
-1.03
 21
-0.0500000000000001
 31
0.0
 12
-1.03
 22
-0.0353553390593274
 32
0.0353553390593274
 13
-1.03
 23
0.0500000000000001
 33
0.0
  0
3DFACE
  5
43D
  8
WHEELS
 10
-1.03
 20
0.0500000000000001
 30
0.0
 11
-1.03
 21
-0.0353553390593274
 31
0.0353553390593274
 12
-1.03
 22
0.0
 32
0.0500000000000001
 13
-1.03
 23
0.0353553390593274
 33
0.0353553390593274
  0
3DFACE
  5
43E
  8
WHEELS
 10
-0.98
 20
0.1131370849898476
 30
0.1131370849898476
 11
-0.98
 21
0.16
 31
0.0000000000000002
 12
-0.98
 22
0.0500000000000001
 32
0.0
 13
-0.98
 23
0.0353553390593274
 33
0.0353553390593275
  0
3DFACE
  5
43F
  8
WHEELS
 10
-0.98
 20
0.1600000000000001
 30
0.0000000000000001
 11
-0.98
 21
0.1131370849898478
 31
-0.1131370849898475
 12
-0.98
 22
0.0353553390593275
 32
-0.0353553390593274
 13
-0.98
 23
0.0500000000000002
 33
0.0
  0
3DFACE
  5
440
  8
WHEELS
 10
-0.98
 20
0.1131370849898476
 30
-0.1131370849898475
 11
-0.98
 21
0.0000000000000001
 31
-0.16
 12
-0.98
 22
0.0
 32
-0.0500000000000001
 13
-0.98
 23
0.0353553390593273
 33
-0.0353553390593274
  0
3DFACE
  5
441
  8
WHEELS
 10
-0.98
 20
0.0000000000000001
 30
-0.1600000000000001
 11
-0.98
 21
-0.1131370849898474
 31
-0.1131370849898479
 12
-0.98
 22
-0.0353553390593274
 32
-0.0353553390593275
 13
-0.98
 23
0.0
 33
-0.0500000000000002
  0
3DFACE
  5
442
  8
WHEELS
 10
-0.98
 20
-0.1131370849898475
 30
-0.1131370849898476
 11
-0.98
 21
-0.16
 31
-0.0000000000000001
 12
-0.98
 22
-0.0500000000000001
 32
0.0
 13
-0.98
 23
-0.0353553390593274
 33
-0.0353553390593273
  0
3DFACE
  5
443
  8
WHEELS
 10
-0.98
 20
-0.16
 30
-0.0000000000000001
 11
-0.98
 21
-0.1131370849898478
 31
0.1131370849898474
 12
-0.98
 22
-0.0353553390593274
 32
0.0353553390593274
 13
-0.98
 23
-0.0500000000000001
 33
0.0
  0
3DFACE
  5
444
  8
WHEELS
 10
-0.98
 20
-0.1131370849898476
 30
0.1131370849898474
 11
-0.98
 21
-0.0000000000000001
 31
0.1599999999999999
 12
-0.98
 22
0.0
 32
0.0499999999999999
 13
-0.98
 23
-0.0353553390593273
 33
0.0353553390593273
  0
3DFACE
  5
445
  8
WHEELS
 10
-0.6800000000000001
 20
0.0
 30
0.3800000000000001
 11
-0.6800000000000001
 21
-0.19
 31
0.3290896534380867
 12
-0.6800000000000001
 22
-0.3290896534380866
 32
0.1900000000000002
 13
-0.6799999999999999
 23
0.19
 33
0.3290896534380867
  0
3DFACE
  5
446
  8
WHEELS
 10
-0.6799999999999999
 20
0.19
 30
0.3290896534380867
 11
-0.6800000000000001
 21
-0.3290896534380866
 31
0.1900000000000002
 12
-0.6800000000000001
 22
-0.38
 32
0.0000000000000002
 13
-0.6799999999999999
 23
0.3290896534380867
 33
0.19
  0
3DFACE
  5
447
  8
WHEELS
 10
-0.6799999999999999
 20
0.3290896534380867
 30
0.19
 11
-0.6800000000000001
 21
-0.38
 31
0.0000000000000002
 12
-0.6800000000000001
 22
-0.3290896534380868
 32
-0.1899999999999997
 13
-0.6799999999999999
 23
0.3799999999999999
 33
0.0
  0
3DFACE
  5
448
  8
WHEELS
 10
-0.6799999999999999
 20
0.3799999999999999
 30
0.0
 11
-0.6800000000000001
 21
-0.3290896534380868
 31
-0.1899999999999997
 12
-0.6800000000000001
 22
-0.1900000000000002
 32
-0.3290896534380866
 13
-0.6799999999999999
 23
0.3290896534380867
 33
-0.19
  0
3DFACE
  5
449
  8
WHEELS
 10
-0.6799999999999999
 20
0.3290896534380867
 30
-0.19
 11
-0.6800000000000001
 21
-0.1900000000000001
 31
-0.3290896534380865
 12
-0.6800000000000001
 22
-0.0000000000000001
 32
-0.38
 13
-0.6799999999999999
 23
0.19
 33
-0.3290896534380867
  0
3DFACE
  5
44D
  8
WHEELS
 10
0.7400000000000002
 20
0.48
 30
0.0000000000000002
 11
0.7400000000000001
 21
0.4156921938165307
 31
-0.2399999999999997
 12
0.6800000000000001
 22
0.3290896534380867
 32
-0.1899999999999997
 13
0.6800000000000001
 23
0.3799999999999999
 33
0.0000000000000002
  0
3DFACE
  5
44E
  8
WHEELS
 10
0.7399999999999999
 20
-0.4156921938165307
 30
-0.2399999999999998
 11
0.7399999999999998
 21
-0.48
 31
0.0
 12
0.6799999999999998
 22
-0.38
 32
0.0
 13
0.6799999999999998
 23
-0.3290896534380868
 33
-0.19
  0
3DFACE
  5
44F
  8
WHEELS
 10
0.9399999999999998
 20
-0.3800000000000001
 30
0.0000000000000002
 11
0.9399999999999998
 21
-0.3290896534380869
 31
-0.1899999999999997
 12
0.8799999999999998
 22
-0.2050609665440989
 32
-0.2050609665440988
 13
0.8799999999999998
 23
-0.2900000000000001
 33
0.0000000000000001
  0
3DFACE
  5
450
  8
WHEELS
 10
0.94
 20
0.3290896534380866
 30
-0.19
 11
0.94
 21
0.3799999999999999
 31
0.0
 12
0.88
 22
0.29
 32
0.0
 13
0.88
 23
0.2050609665440986
 33
-0.2050609665440988
  0
3DFACE
  5
451
  8
WHEELS
 10
0.8799999999999998
 20
-0.29
 30
0.0
 11
0.8799999999999998
 21
-0.2050609665440989
 31
-0.2050609665440988
 12
0.9799999999999998
 22
-0.1131370849898478
 32
-0.1131370849898476
 13
0.9799999999999998
 23
-0.1600000000000001
 33
0.0
  0
3DFACE
  5
452
  8
WHEELS
 10
0.8799999999999998
 20
-0.2050609665440989
 30
-0.2050609665440988
 11
0.88
 21
-0.0000000000000001
 31
-0.29
 12
0.98
 22
-0.0000000000000001
 32
-0.16
 13
0.9799999999999998
 23
-0.1131370849898478
 33
-0.1131370849898476
  0
3DFACE
  5
453
  8
WHEELS
 10
0.88
 20
-0.0000000000000001
 30
-0.29
 11
0.88
 21
0.2050609665440986
 31
-0.2050609665440988
 12
0.98
 22
0.1131370849898474
 32
-0.1131370849898476
 13
0.98
 23
-0.0000000000000001
 33
-0.16
  0
3DFACE
  5
454
  8
WHEELS
 10
0.88
 20
0.2050609665440986
 30
-0.2050609665440988
 11
0.88
 21
0.29
 31
0.0
 12
0.98
 22
0.1599999999999999
 32
0.0
 13
0.98
 23
0.1131370849898474
 33
-0.1131370849898476
  0
3DFACE
  5
455
  8
WHEELS
 10
0.8799999999999998
 20
-0.48
 30
0.0000000000000002
 11
0.8799999999999998
 21
-0.4156921938165308
 31
-0.2399999999999997
 12
0.9399999999999998
 22
-0.3290896534380869
 32
-0.1899999999999997
 13
0.9399999999999998
 23
-0.3800000000000001
 33
0.0000000000000002
  0
3DFACE
  5
456
  8
WHEELS
 10
0.88
 20
0.4156921938165305
 30
-0.2399999999999998
 11
0.88
 21
0.48
 31
0.0
 12
0.9399999999999998
 22
0.3799999999999998
 32
0.0
 13
0.9399999999999998
 23
0.3290896534380866
 33
-0.19
  0
3DFACE
  5
457
  8
WHEELS
 10
0.7399999999999999
 20
-0.48
 30
0.0000000000000002
 11
0.7399999999999999
 21
-0.4156921938165308
 31
-0.2399999999999997
 12
0.8799999999999998
 22
-0.4156921938165308
 32
-0.2399999999999997
 13
0.8799999999999998
 23
-0.48
 33
0.0000000000000002
  0
3DFACE
  5
458
  8
WHEELS
 10
0.7400000000000001
 20
0.4156921938165305
 30
-0.2399999999999998
 11
0.7400000000000001
 21
0.48
 31
0.0
 12
0.88
 22
0.48
 32
0.0
 13
0.88
 23
0.4156921938165305
 33
-0.2399999999999998
  0
3DFACE
  5
459
  8
WHEELS
 10
0.6799999999999998
 20
-0.3290896534380868
 30
0.19
 11
0.6800000000000001
 21
0.3799999999999999
 31
0.0000000000000002
 12
0.6800000000000001
 22
0.3290896534380867
 32
-0.1899999999999997
 13
0.6799999999999998
 23
-0.38
 33
0.0
  0
3DFACE
  5
45A
  8
WHEELS
 10
0.6799999999999998
 20
-0.38
 30
0.0
 11
0.6800000000000001
 21
0.3290896534380867
 31
-0.1899999999999997
 12
0.6800000000000001
 22
0.1900000000000001
 32
-0.3290896534380866
 13
0.6799999999999998
 23
-0.3290896534380868
 33
-0.19
  0
3DFACE
  5
45B
  8
WHEELS
 10
0.7400000000000001
 20
0.2400000000000001
 30
-0.4156921938165305
 11
0.7400000000000001
 21
0.0
 31
-0.48
 12
0.6800000000000001
 22
0.0
 32
-0.38
 13
0.6800000000000001
 23
0.1900000000000001
 33
-0.3290896534380866
  0
3DFACE
  5
45C
  8
WHEELS
 10
0.7400000000000001
 20
0.0
 30
-0.48
 11
0.7399999999999999
 21
-0.2400000000000001
 31
-0.4156921938165305
 12
0.6799999999999998
 22
-0.1900000000000001
 32
-0.3290896534380867
 13
0.6800000000000001
 23
0.0
 33
-0.38
  0
3DFACE
  5
45D
  8
WHEELS
 10
0.8799999999999998
 20
-0.2400000000000003
 30
-0.4156921938165305
 11
0.88
 21
-0.0000000000000002
 31
-0.48
 12
0.9399999999999998
 22
-0.0000000000000002
 32
-0.38
 13
0.9399999999999998
 23
-0.1900000000000003
 33
-0.3290896534380866
  0
3DFACE
  5
45E
  8
WHEELS
 10
0.88
 20
-0.0000000000000002
 30
-0.48
 11
0.88
 21
0.2399999999999999
 31
-0.4156921938165305
 12
0.9399999999999998
 22
0.1899999999999998
 32
-0.3290896534380867
 13
0.9399999999999998
 23
-0.0000000000000002
 33
-0.38
  0
3DFACE
  5
45F
  8
WHEELS
 10
0.7399999999999999
 20
-0.2400000000000003
 30
-0.4156921938165305
 11
0.7400000000000001
 21
-0.0000000000000002
 31
-0.48
 12
0.88
 22
-0.0000000000000002
 32
-0.48
 13
0.8799999999999998
 23
-0.2400000000000003
 33
-0.4156921938165305
  0
3DFACE
  5
460
  8
WHEELS
 10
0.7400000000000001
 20
-0.0000000000000002
 30
-0.48
 11
0.7400000000000001
 21
0.2399999999999999
 31
-0.4156921938165305
 12
0.88
 22
0.2399999999999999
 32
-0.4156921938165305
 13
0.88
 23
-0.0000000000000002
 33
-0.48
  0
3DFACE
  5
461
  8
WHEELS
 10
0.7400000000000001
 20
0.4156921938165307
 30
-0.2399999999999997
 11
0.7400000000000001
 21
0.2400000000000001
 31
-0.4156921938165305
 12
0.6800000000000001
 22
0.1900000000000001
 32
-0.3290896534380866
 13
0.6800000000000001
 23
0.3290896534380867
 33
-0.1899999999999997
  0
3DFACE
  5
462
  8
WHEELS
 10
0.7399999999999999
 20
-0.2400000000000001
 30
-0.4156921938165305
 11
0.7399999999999999
 21
-0.4156921938165307
 31
-0.2399999999999998
 12
0.6799999999999998
 22
-0.3290896534380868
 32
-0.19
 13
0.6799999999999998
 23
-0.1900000000000001
 33
-0.3290896534380867
  0
3DFACE
  5
463
  8
WHEELS
 10
0.9399999999999998
 20
-0.3290896534380869
 30
-0.1899999999999997
 11
0.9399999999999998
 21
-0.1900000000000003
 31
-0.3290896534380866
 12
0.8799999999999998
 22
-0.2050609665440989
 32
-0.2050609665440988
 13
0.8799999999999998
 23
-0.2050609665440989
 33
-0.2050609665440988
  0
3DFACE
  5
464
  8
WHEELS
 10
0.9399999999999998
 20
-0.1900000000000003
 30
-0.3290896534380866
 11
0.9399999999999998
 21
-0.0000000000000002
 31
-0.38
 12
0.88
 22
-0.0000000000000001
 32
-0.29
 13
0.8799999999999998
 23
-0.2050609665440989
 33
-0.2050609665440988
  0
3DFACE
  5
465
  8
WHEELS
 10
0.9399999999999998
 20
-0.0000000000000002
 30
-0.38
 11
0.94
 21
0.19
 31
-0.3290896534380867
 12
0.88
 22
0.2050609665440986
 32
-0.2050609665440988
 13
0.88
 23
-0.0000000000000001
 33
-0.29
  0
3DFACE
  5
466
  8
WHEELS
 10
0.94
 20
0.19
 30
-0.3290896534380867
 11
0.94
 21
0.3290896534380866
 31
-0.19
 12
0.88
 22
0.2050609665440986
 32
-0.2050609665440988
 13
0.88
 23
0.2050609665440986
 33
-0.2050609665440988
  0
3DFACE
  5
467
  8
WHEELS
 10
0.8799999999999998
 20
-0.4156921938165308
 30
-0.2399999999999997
 11
0.8799999999999998
 21
-0.2400000000000003
 31
-0.4156921938165305
 12
0.9399999999999998
 22
-0.1900000000000003
 32
-0.3290896534380866
 13
0.9399999999999998
 23
-0.3290896534380869
 33
-0.1899999999999997
  0
3DFACE
  5
468
  8
WHEELS
 10
0.88
 20
0.2399999999999999
 30
-0.4156921938165305
 11
0.88
 21
0.4156921938165305
 31
-0.2399999999999998
 12
0.9399999999999998
 22
0.3290896534380866
 32
-0.19
 13
0.9399999999999998
 23
0.1899999999999998
 33
-0.3290896534380867
  0
3DFACE
  5
469
  8
WHEELS
 10
0.7399999999999999
 20
-0.4156921938165308
 30
-0.2399999999999997
 11
0.7399999999999999
 21
-0.2400000000000003
 31
-0.4156921938165305
 12
0.8799999999999998
 22
-0.2400000000000003
 32
-0.4156921938165305
 13
0.8799999999999998
 23
-0.4156921938165308
 33
-0.2399999999999997
  0
3DFACE
  5
46A
  8
WHEELS
 10
0.7400000000000001
 20
0.2399999999999999
 30
-0.4156921938165305
 11
0.7400000000000001
 21
0.4156921938165305
 31
-0.2399999999999998
 12
0.88
 22
0.4156921938165305
 32
-0.2399999999999998
 13
0.88
 23
0.2399999999999999
 33
-0.4156921938165305
  0
3DFACE
  5
46B
  8
WHEELS
 10
0.6799999999999998
 20
-0.3290896534380868
 30
-0.19
 11
0.6800000000000001
 21
0.19
 31
-0.3290896534380865
 12
0.6800000000000001
 22
0.0
 32
-0.38
 13
0.6799999999999998
 23
-0.1900000000000001
 33
-0.3290896534380867
  0
3DFACE
  5
46C
  8
WHEELS
 10
0.7399999999999999
 20
-0.4156921938165307
 30
0.24
 11
0.7399999999999999
 21
-0.2400000000000001
 31
0.4156921938165306
 12
0.6799999999999998
 22
-0.1900000000000001
 32
0.3290896534380867
 13
0.6799999999999998
 23
-0.3290896534380868
 33
0.19
  0
3DFACE
  5
46D
  8
WHEELS
 10
0.7400000000000001
 20
0.2399999999999998
 30
0.4156921938165306
 11
0.7400000000000001
 21
0.4156921938165304
 31
0.2400000000000002
 12
0.6800000000000001
 22
0.3290896534380865
 32
0.1900000000000002
 13
0.6800000000000001
 23
0.1899999999999998
 33
0.3290896534380867
  0
3DFACE
  5
46E
  8
WHEELS
 10
0.94
 20
0.3290896534380866
 30
0.19
 11
0.94
 21
0.19
 31
0.3290896534380867
 12
0.88
 22
0.2050609665440986
 32
0.2050609665440988
 13
0.88
 23
0.2050609665440986
 33
0.2050609665440988
  0
3DFACE
  5
46F
  8
WHEELS
 10
0.94
 20
0.19
 30
0.3290896534380867
 11
0.9399999999999998
 21
-0.0000000000000001
 31
0.3800000000000001
 12
0.88
 22
-0.0000000000000001
 32
0.29
 13
0.88
 23
0.2050609665440986
 33
0.2050609665440988
  0
3DFACE
  5
470
  8
WHEELS
 10
0.9399999999999998
 20
-0.0000000000000001
 30
0.3800000000000001
 11
0.9399999999999998
 21
-0.1900000000000001
 31
0.3290896534380867
 12
0.8799999999999998
 22
-0.2050609665440989
 32
0.2050609665440988
 13
0.88
 23
-0.0000000000000001
 33
0.29
  0
3DFACE
  5
471
  8
WHEELS
 10
0.9399999999999998
 20
-0.1900000000000001
 30
0.3290896534380867
 11
0.9399999999999998
 21
-0.3290896534380867
 31
0.1900000000000002
 12
0.8799999999999998
 22
-0.2050609665440989
 32
0.2050609665440988
 13
0.8799999999999998
 23
-0.2050609665440989
 33
0.2050609665440988
  0
3DFACE
  5
472
  8
WHEELS
 10
0.88
 20
0.4156921938165305
 30
0.24
 11
0.88
 21
0.2399999999999999
 31
0.4156921938165306
 12
0.9399999999999998
 22
0.1899999999999998
 32
0.3290896534380867
 13
0.9399999999999998
 23
0.3290896534380866
 33
0.19
  0
3DFACE
  5
473
  8
WHEELS
 10
0.8799999999999998
 20
-0.24
 30
0.4156921938165306
 11
0.8799999999999998
 21
-0.4156921938165306
 31
0.2400000000000002
 12
0.9399999999999998
 22
-0.3290896534380867
 32
0.1900000000000002
 13
0.9399999999999998
 23
-0.1900000000000001
 33
0.3290896534380867
  0
3DFACE
  5
474
  8
WHEELS
 10
0.7400000000000001
 20
0.4156921938165305
 30
0.24
 11
0.7400000000000001
 21
0.2399999999999999
 31
0.4156921938165306
 12
0.88
 22
0.2399999999999999
 32
0.4156921938165306
 13
0.88
 23
0.4156921938165305
 33
0.24
  0
3DFACE
  5
475
  8
WHEELS
 10
0.7399999999999999
 20
-0.24
 30
0.4156921938165306
 11
0.7399999999999999
 21
-0.4156921938165306
 31
0.2400000000000002
 12
0.8799999999999998
 22
-0.4156921938165306
 32
0.2400000000000002
 13
0.8799999999999998
 23
-0.24
 33
0.4156921938165306
  0
3DFACE
  5
476
  8
WHEELS
 10
0.6800000000000001
 20
-0.0000000000000001
 30
0.3800000000000001
 11
0.6800000000000001
 21
0.1899999999999998
 31
0.3290896534380867
 12
0.6800000000000001
 22
0.3290896534380865
 32
0.1900000000000002
 13
0.6799999999999998
 23
-0.1900000000000001
 33
0.3290896534380867
  0
3DFACE
  5
477
  8
WHEELS
 10
0.6799999999999998
 20
-0.1900000000000001
 30
0.3290896534380867
 11
0.6800000000000001
 21
0.3290896534380865
 31
0.1900000000000002
 12
0.6800000000000001
 22
0.3799999999999999
 32
0.0000000000000002
 13
0.6799999999999998
 23
-0.3290896534380868
 33
0.19
  0
3DFACE
  5
478
  8
WHEELS
 10
0.7399999999999998
 20
-0.48
 30
0.0
 11
0.7399999999999999
 21
-0.4156921938165307
 31
0.24
 12
0.6799999999999998
 22
-0.3290896534380868
 32
0.19
 13
0.6799999999999998
 23
-0.38
 33
0.0
  0
3DFACE
  5
479
  8
WHEELS
 10
0.8799999999999998
 20
-0.4156921938165306
 30
0.2400000000000002
 11
0.8799999999999998
 21
-0.48
 31
0.0000000000000002
 12
0.9399999999999998
 22
-0.3800000000000001
 32
0.0000000000000002
 13
0.9399999999999998
 23
-0.3290896534380867
 33
0.1900000000000002
  0
3DFACE
  5
47A
  8
WHEELS
 10
0.7399999999999999
 20
-0.4156921938165306
 30
0.2400000000000002
 11
0.7399999999999999
 21
-0.48
 31
0.0000000000000002
 12
0.8799999999999998
 22
-0.48
 32
0.0000000000000002
 13
0.8799999999999998
 23
-0.4156921938165306
 33
0.2400000000000002
  0
3DFACE
  5
47B
  8
WHEELS
 10
0.7400000000000001
 20
0.4156921938165304
 30
0.2400000000000002
 11
0.7400000000000002
 21
0.48
 31
0.0000000000000002
 12
0.6800000000000001
 22
0.3799999999999999
 32
0.0000000000000002
 13
0.6800000000000001
 23
0.3290896534380865
 33
0.1900000000000002
  0
3DFACE
  5
47C
  8
WHEELS
 10
0.94
 20
0.3799999999999999
 30
0.0
 11
0.94
 21
0.3290896534380866
 31
0.19
 12
0.88
 22
0.2050609665440986
 32
0.2050609665440988
 13
0.88
 23
0.29
 33
0.0
  0
3DFACE
  5
47D
  8
WHEELS
 10
0.9399999999999998
 20
-0.3290896534380867
 30
0.1900000000000002
 11
0.9399999999999998
 21
-0.3800000000000001
 31
0.0000000000000002
 12
0.8799999999999998
 22
-0.2900000000000001
 32
0.0000000000000001
 13
0.8799999999999998
 23
-0.2050609665440989
 33
0.2050609665440988
  0
3DFACE
  5
47E
  8
WHEELS
 10
0.88
 20
0.29
 30
0.0
 11
0.88
 21
0.2050609665440986
 31
0.2050609665440988
 12
0.98
 22
0.1131370849898475
 32
0.1131370849898476
 13
0.98
 23
0.1599999999999999
 33
0.0
  0
3DFACE
  5
47F
  8
WHEELS
 10
0.8799999999999998
 20
-0.2050609665440989
 30
0.2050609665440988
 11
0.8799999999999998
 21
-0.29
 31
0.0
 12
0.9799999999999998
 22
-0.1600000000000001
 32
0.0
 13
0.9799999999999998
 23
-0.1131370849898476
 33
0.1131370849898476
  0
3DFACE
  5
480
  8
WHEELS
 10
0.88
 20
0.48
 30
0.0
 11
0.88
 21
0.4156921938165305
 31
0.24
 12
0.9399999999999998
 22
0.3290896534380866
 32
0.19
 13
0.9399999999999998
 23
0.3799999999999998
 33
0.0
  0
3DFACE
  5
481
  8
WHEELS
 10
0.7400000000000001
 20
0.48
 30
0.0
 11
0.7400000000000001
 21
0.4156921938165305
 31
0.24
 12
0.88
 22
0.4156921938165305
 32
0.24
 13
0.88
 23
0.48
 33
0.0
  0
3DFACE
  5
482
  8
WHEELS
 10
0.98
 20
-0.0000000000000001
 30
0.16
 11
0.9799999999999998
 21
-0.1131370849898476
 31
0.1131370849898476
 12
0.98
 22
-0.0353553390593275
 32
0.0353553390593274
 13
0.98
 23
-0.0000000000000001
 33
0.0500000000000001
  0
3DFACE
  5
483
  8
WHEELS
 10
0.9799999999999998
 20
-0.1131370849898478
 30
0.1131370849898476
 11
0.9799999999999998
 21
-0.1600000000000001
 31
0.0000000000000002
 12
0.98
 22
-0.0500000000000002
 32
0.0
 13
0.98
 23
-0.0353553390593275
 33
0.0353553390593275
  0
3DFACE
  5
484
  8
WHEELS
 10
0.98
 20
0.1599999999999999
 30
-0.0000000000000001
 11
0.98
 21
0.1131370849898476
 31
0.1131370849898474
 12
0.98
 22
0.0353553390593273
 32
0.0353553390593274
 13
0.98
 23
0.0499999999999999
 33
0.0
  0
3DFACE
  5
485
  8
WHEELS
 10
0.98
 20
0.1131370849898475
 30
0.1131370849898474
 11
0.98
 21
0.0
 31
0.1599999999999999
 12
0.98
 22
-0.0000000000000001
 32
0.0499999999999999
 13
0.98
 23
0.0353553390593272
 33
0.0353553390593273
  0
3DFACE
  5
486
  8
WHEELS
 10
0.98
 20
0.0499999999999999
 30
0.0
 11
0.98
 21
0.0353553390593273
 31
0.0353553390593274
 12
1.03
 22
0.0353553390593273
 32
0.0353553390593274
 13
1.03
 23
0.0499999999999999
 33
0.0
  0
3DFACE
  5
487
  8
WHEELS
 10
0.98
 20
0.0353553390593273
 30
0.0353553390593274
 11
0.98
 21
-0.0000000000000001
 31
0.0500000000000001
 12
1.03
 22
-0.0000000000000001
 32
0.0500000000000001
 13
1.03
 23
0.0353553390593273
 33
0.0353553390593274
  0
3DFACE
  5
488
  8
WHEELS
 10
0.98
 20
-0.0000000000000001
 30
0.0500000000000001
 11
0.98
 21
-0.0353553390593275
 31
0.0353553390593274
 12
1.03
 22
-0.0353553390593275
 32
0.0353553390593274
 13
1.03
 23
-0.0000000000000001
 33
0.0500000000000001
  0
3DFACE
  5
489
  8
WHEELS
 10
0.98
 20
-0.0353553390593275
 30
0.0353553390593274
 11
0.98
 21
-0.0500000000000002
 31
0.0
 12
1.03
 22
-0.0500000000000002
 32
0.0
 13
1.03
 23
-0.0353553390593275
 33
0.0353553390593274
  0
3DFACE
  5
48A
  8
WHEELS
 10
0.98
 20
-0.0500000000000002
 30
0.0
 11
0.98
 21
-0.0353553390593275
 31
-0.0353553390593274
 12
1.03
 22
-0.0353553390593275
 32
-0.0353553390593274
 13
1.03
 23
-0.0500000000000002
 33
0.0
  0
3DFACE
  5
48B
  8
WHEELS
 10
0.98
 20
-0.0353553390593275
 30
-0.0353553390593274
 11
0.98
 21
-0.0000000000000001
 31
-0.0500000000000001
 12
1.03
 22
-0.0000000000000001
 32
-0.0500000000000001
 13
1.03
 23
-0.0353553390593275
 33
-0.0353553390593274
  0
3DFACE
  5
48C
  8
WHEELS
 10
0.98
 20
-0.0000000000000001
 30
-0.0500000000000001
 11
0.98
 21
0.0353553390593273
 31
-0.0353553390593274
 12
1.03
 22
0.0353553390593273
 32
-0.0353553390593274
 13
1.03
 23
-0.0000000000000001
 33
-0.0500000000000001
  0
3DFACE
  5
48D
  8
WHEELS
 10
0.98
 20
0.0353553390593273
 30
-0.0353553390593274
 11
0.98
 21
0.0499999999999999
 31
0.0
 12
1.03
 22
0.0499999999999999
 32
0.0
 13
1.03
 23
0.0353553390593273
 33
-0.0353553390593274
  0
3DFACE
  5
48E
  8
WHEELS
 10
1.03
 20
-0.0000000000000001
 30
-0.0500000000000001
 11
1.03
 21
0.0353553390593273
 31
-0.0353553390593274
 12
1.03
 22
0.0499999999999999
 32
0.0
 13
1.03
 23
-0.0353553390593275
 33
-0.0353553390593274
  0
3DFACE
  5
48F
  8
WHEELS
 10
1.03
 20
-0.0353553390593275
 30
-0.0353553390593274
 11
1.03
 21
0.0499999999999999
 31
0.0
 12
1.03
 22
0.0353553390593273
 32
0.0353553390593274
 13
1.03
 23
-0.0500000000000002
 33
0.0
  0
3DFACE
  5
490
  8
WHEELS
 10
1.03
 20
-0.0500000000000002
 30
0.0
 11
1.03
 21
0.0353553390593273
 31
0.0353553390593274
 12
1.03
 22
-0.0000000000000001
 32
0.0500000000000001
 13
1.03
 23
-0.0353553390593275
 33
0.0353553390593274
  0
3DFACE
  5
491
  8
WHEELS
 10
0.9799999999999998
 20
-0.1600000000000003
 30
0.0000000000000001
 11
0.9799999999999998
 21
-0.1131370849898479
 31
-0.1131370849898475
 12
0.98
 22
-0.0353553390593277
 32
-0.0353553390593274
 13
0.98
 23
-0.0500000000000003
 33
0.0
  0
3DFACE
  5
492
  8
WHEELS
 10
0.9799999999999998
 20
-0.1131370849898478
 30
-0.1131370849898475
 11
0.98
 21
-0.0000000000000002
 31
-0.16
 12
0.98
 22
-0.0000000000000001
 32
-0.0500000000000001
 13
0.98
 23
-0.0353553390593274
 33
-0.0353553390593274
  0
3DFACE
  5
493
  8
WHEELS
 10
0.98
 20
-0.0000000000000002
 30
-0.1600000000000001
 11
0.98
 21
0.1131370849898473
 31
-0.1131370849898479
 12
0.98
 22
0.0353553390593273
 32
-0.0353553390593275
 13
0.98
 23
-0.0000000000000001
 33
-0.0500000000000002
  0
3DFACE
  5
494
  8
WHEELS
 10
0.98
 20
0.1131370849898474
 30
-0.1131370849898476
 11
0.98
 21
0.1599999999999999
 31
-0.0000000000000001
 12
0.98
 22
0.0499999999999999
 32
0.0
 13
0.98
 23
0.0353553390593273
 33
-0.0353553390593273
  0
3DFACE
  5
495
  8
WHEELS
 10
0.88
 20
0.2050609665440986
 30
0.2050609665440988
 11
0.88
 21
-0.0000000000000001
 31
0.29
 12
0.98
 22
-0.0000000000000001
 32
0.16
 13
0.98
 23
0.1131370849898475
 33
0.1131370849898476
  0
3DFACE
  5
496
  8
WHEELS
 10
0.88
 20
-0.0000000000000001
 30
0.29
 11
0.8799999999999998
 21
-0.2050609665440989
 31
0.2050609665440988
 12
0.9799999999999998
 22
-0.1131370849898476
 32
0.1131370849898476
 13
0.98
 23
-0.0000000000000001
 33
0.16
  0
3DFACE
  5
497
  8
WHEELS
 10
0.7399999999999999
 20
-0.2400000000000001
 30
0.4156921938165306
 11
0.7400000000000001
 21
-0.0000000000000001
 31
0.48
 12
0.6800000000000001
 22
-0.0000000000000001
 32
0.3800000000000001
 13
0.6799999999999998
 23
-0.1900000000000001
 33
0.3290896534380867
  0
3DFACE
  5
498
  8
WHEELS
 10
0.7400000000000001
 20
-0.0000000000000001
 30
0.48
 11
0.7400000000000001
 21
0.2399999999999998
 31
0.4156921938165306
 12
0.6800000000000001
 22
0.1899999999999998
 32
0.3290896534380867
 13
0.6800000000000001
 23
-0.0000000000000001
 33
0.3800000000000001
  0
3DFACE
  5
499
  8
WHEELS
 10
0.88
 20
0.2399999999999999
 30
0.4156921938165306
 11
0.88
 21
-0.0000000000000001
 31
0.48
 12
0.9399999999999998
 22
-0.0000000000000001
 32
0.3800000000000001
 13
0.9399999999999998
 23
0.1899999999999998
 33
0.3290896534380867
  0
3DFACE
  5
49A
  8
WHEELS
 10
0.88
 20
-0.0000000000000001
 30
0.48
 11
0.8799999999999998
 21
-0.24
 31
0.4156921938165306
 12
0.9399999999999998
 22
-0.1900000000000001
 32
0.3290896534380867
 13
0.9399999999999998
 23
-0.0000000000000001
 33
0.3800000000000001
  0
3DFACE
  5
49B
  8
WHEELS
 10
0.7400000000000001
 20
0.2399999999999999
 30
0.4156921938165306
 11
0.7400000000000001
 21
-0.0000000000000001
 31
0.48
 12
0.88
 22
-0.0000000000000001
 32
0.48
 13
0.88
 23
0.2399999999999999
 33
0.4156921938165306
  0
3DFACE
  5
49C
  8
WHEELS
 10
0.7400000000000001
 20
-0.0000000000000001
 30
0.48
 11
0.7399999999999999
 21
-0.24
 31
0.4156921938165306
 12
0.8799999999999998
 22
-0.24
 32
0.4156921938165306
 13
0.88
 23
-0.0000000000000001
 33
0.48
  0
VIEWPORT
  5
2E
 67
     1
  8
0
 10
144.7270812988281
 20
101.2295806407928
 30
0.0
 40
391.13550988316581
 41
222.15178063964839
 68
     2
 69
     1
1001
ACAD
1000
MVIEW
1002
{
1070
    16
1010
0.0
1020
0.0
1030
0.0
1010
0.0
1020
0.0
1030
1.0
1040
0.0
1040
222.15178063964839
1040
144.7270812988281
1040
101.2295806407928
1040
50.0
1040
0.0
1040
0.0
1070
     0
1070
   100
1070
     1
1070
     1
1070
     0
1070
     0
1070
     0
1070
     0
1040
0.0
1040
0.0
1040
0.0
1040
10.0
1040
10.0
1040
10.0
1040
10.0
1070
     0
1002
{
1002
}
1002
}
  0
VIEWPORT
  5
30
 67
     1
  8
0
 10
139.22375631332389
 20
100.8062499761581
 30
0.0
 40
222.75801010131829
 41
161.289999961853
 68
     1
 69
     2
1001
ACAD
1000
MVIEW
1002
{
1070
    16
1010
0.0
1020
0.0
1030
0.0
1010
0.0
1020
0.0
1030
1.0
1040
0.0
1040
307.49010134148989
1040
210.0
1040
148.5
1040
50.0
1040
0.0
1040
0.0
1070
     0
1070
   100
1070
     1
1070
     3
1070
     0
1070
     1
1070
     0
1070
     0
1040
0.0
1040
0.0
1040
0.0
1040
10.0
1040
10.0
1040
10.0
1040
10.0
1070
     0
1002
{
1002
}
1002
}
  0
ENDSEC
  0
EOF
