  0
SECTION
  2
HEADER
  9
$ACADVER
  1
AC1009
  9
$INSBASE
 10
0.0
 20
0.0
 30
0.0
  9
$EXTMIN
 10
-0.7000000000000002
 20
-0.8900000000000002
 30
0.0
  9
$EXTMAX
 10
0.7000000000000002
 20
0.71
 30
0.8900000000000009
  9
$LIMMIN
 10
0.0
 20
0.0
  9
$LIMMAX
 10
420.0
 20
297.0
  9
$ORTHOMODE
 70
     1
  9
$REGENMODE
 70
     1
  9
$FILLMODE
 70
     1
  9
$QTEXTMODE
 70
     0
  9
$MIRRTEXT
 70
     1
  9
$DRAGMODE
 70
     2
  9
$LTSCALE
 40
1.0
  9
$OSMODE
 70
    35
  9
$ATTMODE
 70
     1
  9
$TEXTSIZE
 40
2.5
  9
$TRACEWID
 40
1.0
  9
$TEXTSTYLE
  7
STANDARD
  9
$CLAYER
  8
TURRET
  9
$CELTYPE
  6
BYLAYER
  9
$CECOLOR
 62
   256
  9
$DIMSCALE
 40
1.0
  9
$DIMASZ
 40
2.5
  9
$DIMEXO
 40
0.625
  9
$DIMDLI
 40
3.75
  9
$DIMRND
 40
0.0
  9
$DIMDLE
 40
0.0
  9
$DIMEXE
 40
1.25
  9
$DIMTP
 40
0.0
  9
$DIMTM
 40
0.0
  9
$DIMTXT
 40
2.5
  9
$DIMCEN
 40
2.5
  9
$DIMTSZ
 40
0.0
  9
$DIMTOL
 70
     0
  9
$DIMLIM
 70
     0
  9
$DIMTIH
 70
     0
  9
$DIMTOH
 70
     0
  9
$DIMSE1
 70
     0
  9
$DIMSE2
 70
     0
  9
$DIMTAD
 70
     1
  9
$DIMZIN
 70
     8
  9
$DIMBLK
  1

  9
$DIMASO
 70
     1
  9
$DIMSHO
 70
     1
  9
$DIMPOST
  1

  9
$DIMAPOST
  1

  9
$DIMALT
 70
     0
  9
$DIMALTD
 70
     3
  9
$DIMALTF
 40
0.03937007874016
  9
$DIMLFAC
 40
1.0
  9
$DIMTOFL
 70
     1
  9
$DIMTVP
 40
0.0
  9
$DIMTIX
 70
     0
  9
$DIMSOXD
 70
     0
  9
$DIMSAH
 70
     0
  9
$DIMBLK1
  1

  9
$DIMBLK2
  1

  9
$DIMSTYLE
  2
ISO-25
  9
$DIMCLRD
 70
     0
  9
$DIMCLRE
 70
     0
  9
$DIMCLRT
 70
     0
  9
$DIMTFAC
 40
1.0
  9
$DIMGAP
 40
0.625
  9
$LUNITS
 70
     2
  9
$LUPREC
 70
     4
  9
$SKETCHINC
 40
1.0
  9
$FILLETRAD
 40
10.0
  9
$AUNITS
 70
     0
  9
$AUPREC
 70
     0
  9
$MENU
  1
.
  9
$ELEVATION
 40
0.0
  9
$PELEVATION
 40
0.0
  9
$THICKNESS
 40
0.0
  9
$LIMCHECK
 70
     0
  9
$BLIPMODE
 70
     0
  9
$CHAMFERA
 40
10.0
  9
$CHAMFERB
 40
10.0
  9
$SKPOLY
 70
     0
  9
$TDCREATE
 40
2456977.9084515618
  9
$TDUPDATE
 40
2456988.3685592008
  9
$TDINDWG
 40
1.3258990161999999
  9
$TDUSRTIMER
 40
1.3258990046000001
  9
$USRTIMER
 70
     1
  9
$ANGBASE
 50
0.0
  9
$ANGDIR
 70
     0
  9
$PDMODE
 70
     0
  9
$PDSIZE
 40
0.0
  9
$PLINEWID
 40
0.0
  9
$COORDS
 70
     1
  9
$SPLFRAME
 70
     0
  9
$SPLINETYPE
 70
     6
  9
$SPLINESEGS
 70
     8
  9
$ATTDIA
 70
     1
  9
$ATTREQ
 70
     1
  9
$HANDLING
 70
-16383
  9
$HANDSEED
  5
B0B
  9
$SURFTAB1
 70
     6
  9
$SURFTAB2
 70
     6
  9
$SURFTYPE
 70
     6
  9
$SURFU
 70
     6
  9
$SURFV
 70
     6
  9
$UCSNAME
  2

  9
$UCSORG
 10
0.0
 20
0.0
 30
0.0
  9
$UCSXDIR
 10
0.0
 20
-1.0
 30
0.0
  9
$UCSYDIR
 10
0.0
 20
0.0
 30
1.0
  9
$PUCSNAME
  2

  9
$PUCSORG
 10
0.0
 20
0.0
 30
0.0
  9
$PUCSXDIR
 10
1.0
 20
0.0
 30
0.0
  9
$PUCSYDIR
 10
0.0
 20
1.0
 30
0.0
  9
$USERI1
 70
     0
  9
$USERI2
 70
     0
  9
$USERI3
 70
     0
  9
$USERI4
 70
     0
  9
$USERI5
 70
     0
  9
$USERR1
 40
0.0
  9
$USERR2
 40
0.0
  9
$USERR3
 40
0.0
  9
$USERR4
 40
0.0
  9
$USERR5
 40
0.0
  9
$WORLDVIEW
 70
     1
  9
$SHADEDGE
 70
     3
  9
$SHADEDIF
 70
    70
  9
$TILEMODE
 70
     1
  9
$MAXACTVP
 70
    64
  9
$PLIMCHECK
 70
     0
  9
$PEXTMIN
 10
27.844751262664801
 20
20.161249995231621
 30
0.0
  9
$PEXTMAX
 10
250.60276136398309
 20
181.4512499570846
 30
0.0
  9
$PLIMMIN
 10
-3.757080078125
 20
-3.7570831775665279
  9
$PLIMMAX
 10
293.21124267578119
 20
206.21624445915219
  9
$UNITMODE
 70
     0
  9
$VISRETAIN
 70
     1
  9
$PLINEGEN
 70
     0
  9
$PSLTSCALE
 70
     1
  0
ENDSEC
  0
SECTION
  2
TABLES
  0
TABLE
  2
VPORT
 70
     4
  0
VPORT
  2
*ACTIVE
 70
     0
 10
0.0
 20
0.0
 11
1.0
 21
1.0
 12
0.0900000000000001
 22
0.4450000000000005
 13
0.0
 23
0.0
 14
0.01
 24
0.01
 15
1.0
 25
1.0
 16
-1.0
 26
0.0
 36
0.0
 17
0.0
 27
0.0
 37
0.0
 40
0.8994014084507052
 41
2.1728395061728389
 42
50.0
 43
0.0
 44
0.0
 50
0.0
 51
0.0
 71
     0
 72
   100
 73
     1
 74
     3
 75
     1
 76
     1
 77
     0
 78
     0
  0
ENDTAB
  0
TABLE
  2
LTYPE
 70
     1
  0
LTYPE
  2
CONTINUOUS
 70
     0
  3
Solid line
 72
    65
 73
     0
 40
0.0
  0
ENDTAB
  0
TABLE
  2
LAYER
 70
    10
  0
LAYER
  2
0
 70
     0
 62
     7
  6
CONTINUOUS
  0
LAYER
  2
DRAWING
 70
     0
 62
     9
  6
CONTINUOUS
  0
LAYER
  2
LOWER_HULL
 70
     0
 62
     5
  6
CONTINUOUS
  0
LAYER
  2
FENDERS
 70
     0
 62
     6
  6
CONTINUOUS
  0
LAYER
  2
TMP
 70
     0
 62
     4
  6
CONTINUOUS
  0
LAYER
  2
WHEELS
 70
     0
 62
     2
  6
CONTINUOUS
  0
LAYER
  2
SLEEVE
 70
     0
 62
     5
  6
CONTINUOUS
  0
LAYER
  2
GUN
 70
     0
 62
     1
  6
CONTINUOUS
  0
LAYER
  2
TURRET
 70
     0
 62
     2
  6
CONTINUOUS
  0
LAYER
  2
SUSPENSION
 70
     0
 62
     6
  6
CONTINUOUS
  0
ENDTAB
  0
TABLE
  2
STYLE
 70
     1
  0
STYLE
  2
STANDARD
 70
     0
 40
0.0
 41
1.0
 50
0.0
 71
     0
 42
2.5
  3
txt
  4

  0
ENDTAB
  0
TABLE
  2
VIEW
 70
     0
  0
ENDTAB
  0
TABLE
  2
UCS
 70
     0
  0
ENDTAB
  0
TABLE
  2
APPID
 70
     1
  0
APPID
  2
ACAD
 70
     0
  0
ENDTAB
  0
TABLE
  2
DIMSTYLE
 70
     1
  0
DIMSTYLE
  2
ISO-25
 70
     0
  3

  4

  5

  6

  7

 40
1.0
 41
2.5
 42
0.625
 43
3.75
 44
1.25
 45
0.0
 46
0.0
 47
0.0
 48
0.0
140
2.5
141
2.5
142
0.0
143
0.03937007874016
144
1.0
145
0.0
146
1.0
147
0.625
 71
     0
 72
     0
 73
     0
 74
     0
 75
     0
 76
     0
 77
     1
 78
     8
170
     0
171
     3
172
     1
173
     0
174
     0
175
     0
176
     0
177
     0
178
     0
  0
ENDTAB
  0
ENDSEC
  0
SECTION
  2
BLOCKS
  0
BLOCK
  8
0
  2
$MODEL_SPACE
 70
     0
 10
0.0
 20
0.0
 30
0.0
  3
$MODEL_SPACE
  1

  0
ENDBLK
  5
21
  8
0
  0
BLOCK
 67
     1
  8
0
  2
$PAPER_SPACE
 70
     0
 10
0.0
 20
0.0
 30
0.0
  3
$PAPER_SPACE
  1

  0
ENDBLK
  5
1D
 67
     1
  8
0
  0
ENDSEC
  0
SECTION
  2
ENTITIES
  0
3DFACE
  5
9E4
  8
TURRET
 10
-0.3800000000000001
 20
-0.4800000000000003
 30
0.5
 11
-0.4800000000000006
 21
-0.51
 31
0.0
 12
-0.38
 22
-0.6000000000000001
 32
0.0
 13
-0.3200000000000004
 23
-0.5200000000000004
 33
0.5
  0
3DFACE
  5
9E9
  8
TURRET
 10
-0.4600000000000002
 20
-0.4
 30
0.5
 11
-0.5599999999999997
 21
-0.42
 31
0.0
 12
-0.4800000000000006
 22
-0.51
 32
0.0
 13
-0.3800000000000001
 23
-0.4800000000000003
 33
0.5
  0
3DFACE
  5
9EA
  8
TURRET
 10
-0.5400000000000002
 20
-0.28
 30
0.5
 11
-0.6399999999999998
 21
-0.29
 31
0.0
 12
-0.5599999999999997
 22
-0.42
 32
0.0
 13
-0.4600000000000002
 23
-0.4
 33
0.5
  0
3DFACE
  5
9EB
  8
TURRET
 10
-0.5800000000000002
 20
-0.1500000000000001
 30
0.5
 11
-0.6900000000000005
 21
-0.1500000000000001
 31
0.0
 12
-0.6399999999999998
 22
-0.29
 32
0.0
 13
-0.5400000000000002
 23
-0.28
 33
0.5
  0
3DFACE
  5
9EC
  8
TURRET
 10
-0.6000000000000006
 20
0.0
 30
0.5
 11
-0.7000000000000002
 21
0.0
 31
0.0
 12
-0.6900000000000005
 22
-0.1500000000000001
 32
0.0
 13
-0.5800000000000002
 23
-0.1500000000000001
 33
0.5
  0
3DFACE
  5
9ED
  8
TURRET
 10
-0.5900000000000008
 20
0.1199999999999999
 30
0.5
 11
-0.6900000000000004
 21
0.1399999999999999
 31
0.0
 12
-0.7000000000000002
 22
0.0
 32
0.0
 13
-0.6000000000000006
 23
0.0
 33
0.5
  0
3DFACE
  5
9EE
  8
TURRET
 10
-0.5300000000000003
 20
0.28
 30
0.5
 11
-0.6200000000000001
 21
0.3199999999999998
 31
0.0
 12
-0.6900000000000004
 22
0.1399999999999999
 32
0.0
 13
-0.5900000000000008
 23
0.1199999999999999
 33
0.5
  0
3DFACE
  5
9EF
  8
TURRET
 10
-0.5
 20
0.3299999999999998
 30
0.5
 11
-0.5899999999999999
 21
0.3799999999999999
 31
0.0
 12
-0.6200000000000001
 22
0.3199999999999998
 32
0.0
 13
-0.5300000000000003
 23
0.28
 33
0.5
  0
3DFACE
  5
9F0
  8
TURRET
 10
-0.4199999999999992
 20
0.4299999999999999
 30
0.5
 11
-0.5199999999999996
 21
0.47
 31
0.0
 12
-0.5899999999999999
 22
0.3799999999999999
 32
0.0
 13
-0.5
 23
0.3299999999999998
 33
0.5
  0
3DFACE
  5
9F1
  8
TURRET
 10
-0.3299999999999992
 20
0.51
 30
0.5
 11
-0.4299999999999998
 21
0.5599999999999998
 31
0.0
 12
-0.5199999999999996
 22
0.47
 32
0.0
 13
-0.4199999999999992
 23
0.4299999999999999
 33
0.5
  0
3DFACE
  5
9F2
  8
TURRET
 10
-0.1900000000000004
 20
0.57
 30
0.5
 11
-0.29
 21
0.6400000000000002
 31
0.0
 12
-0.4299999999999997
 22
0.5599999999999998
 32
0.0
 13
-0.3299999999999992
 23
0.51
 33
0.5
  0
3DFACE
  5
9F3
  8
TURRET
 10
-0.0500000000000003
 20
0.5999999999999999
 30
0.5
 11
-0.1500000000000003
 21
0.69
 31
0.0
 12
-0.29
 22
0.6400000000000002
 32
0.0
 13
-0.1900000000000004
 23
0.57
 33
0.5
  0
3DFACE
  5
9F4
  8
TURRET
 10
0.0
 20
0.6099999999999999
 30
0.5
 11
0.0000000000000017
 21
0.71
 31
0.0
 12
-0.1500000000000003
 22
0.69
 32
0.0
 13
-0.0500000000000003
 23
0.5999999999999999
 33
0.5
  0
3DFACE
  5
9F5
  8
TURRET
 10
0.0500000000000003
 20
0.5999999999999999
 30
0.5
 11
0.1500000000000004
 21
0.69
 31
0.0
 12
0.0000000000000017
 22
0.71
 32
0.0
 13
0.0
 23
0.6099999999999999
 33
0.5
  0
3DFACE
  5
9F6
  8
TURRET
 10
0.1900000000000004
 20
0.57
 30
0.5
 11
0.29
 21
0.6400000000000002
 31
0.0000000000000004
 12
0.1500000000000004
 22
0.69
 32
0.0
 13
0.0500000000000003
 23
0.5999999999999999
 33
0.5
  0
3DFACE
  5
9F7
  8
TURRET
 10
0.3299999999999992
 20
0.51
 30
0.5
 11
0.4299999999999998
 21
0.5599999999999998
 31
0.0000000000000004
 12
0.29
 22
0.6400000000000002
 32
0.0000000000000004
 13
0.1900000000000004
 23
0.57
 33
0.5
  0
3DFACE
  5
9F8
  8
TURRET
 10
0.4199999999999991
 20
0.4299999999999999
 30
0.5
 11
0.5199999999999996
 21
0.47
 31
0.0000000000000004
 12
0.4299999999999997
 22
0.5599999999999998
 32
0.0000000000000004
 13
0.3299999999999992
 23
0.51
 33
0.5
  0
3DFACE
  5
9F9
  8
TURRET
 10
0.5
 20
0.3299999999999998
 30
0.5
 11
0.5899999999999999
 21
0.3799999999999999
 31
0.0000000000000004
 12
0.5199999999999996
 22
0.47
 32
0.0000000000000004
 13
0.4199999999999991
 23
0.4299999999999999
 33
0.5
  0
3DFACE
  5
9FA
  8
TURRET
 10
0.5300000000000003
 20
0.28
 30
0.5
 11
0.6200000000000001
 21
0.3199999999999998
 31
0.0000000000000004
 12
0.5899999999999999
 22
0.3799999999999999
 32
0.0000000000000004
 13
0.5
 23
0.3299999999999998
 33
0.5
  0
3DFACE
  5
9FB
  8
TURRET
 10
0.5900000000000008
 20
0.1199999999999999
 30
0.5
 11
0.6900000000000004
 21
0.1399999999999999
 31
0.0000000000000004
 12
0.6200000000000001
 22
0.3199999999999998
 32
0.0000000000000004
 13
0.5300000000000003
 23
0.28
 33
0.5
  0
3DFACE
  5
9FC
  8
TURRET
 10
0.6000000000000006
 20
0.0
 30
0.5
 11
0.7000000000000002
 21
0.0
 31
0.0000000000000004
 12
0.6900000000000004
 22
0.1399999999999999
 32
0.0000000000000004
 13
0.5900000000000008
 23
0.1199999999999999
 33
0.5
  0
3DFACE
  5
9FD
  8
TURRET
 10
0.58
 20
-0.1500000000000001
 30
0.5
 11
0.6900000000000003
 21
-0.1500000000000001
 31
0.0000000000000004
 12
0.7000000000000002
 22
0.0
 32
0.0000000000000004
 13
0.6000000000000006
 23
0.0
 33
0.5
  0
3DFACE
  5
9FE
  8
TURRET
 10
0.54
 20
-0.28
 30
0.5
 11
0.6399999999999996
 21
-0.29
 31
0.0000000000000004
 12
0.6900000000000003
 22
-0.1500000000000001
 32
0.0000000000000004
 13
0.58
 23
-0.1500000000000001
 33
0.5
  0
3DFACE
  5
9FF
  8
TURRET
 10
0.4599999999999999
 20
-0.4000000000000003
 30
0.5
 11
0.5599999999999996
 21
-0.4200000000000001
 31
0.0000000000000004
 12
0.6399999999999996
 22
-0.29
 32
0.0000000000000004
 13
0.54
 23
-0.28
 33
0.5
  0
3DFACE
  5
A00
  8
TURRET
 10
0.3799999999999998
 20
-0.4800000000000003
 30
0.5
 11
0.4800000000000004
 21
-0.5100000000000003
 31
0.0000000000000004
 12
0.5599999999999996
 22
-0.4200000000000001
 32
0.0000000000000004
 13
0.4599999999999999
 23
-0.4000000000000003
 33
0.5
  0
3DFACE
  5
A01
  8
TURRET
 10
0.3200000000000001
 20
-0.5200000000000004
 30
0.5
 11
0.3799999999999998
 21
-0.6000000000000001
 31
0.0000000000000004
 12
0.4800000000000004
 22
-0.5100000000000003
 32
0.0000000000000004
 13
0.3799999999999998
 23
-0.4800000000000003
 33
0.5
  0
3DFACE
  5
A02
  8
TURRET
 10
0.3199999999999999
 20
-0.5200000000000005
 30
0.5
 11
0.3199999999999999
 21
-0.5200000000000005
 31
0.5
 12
0.3799999999999998
 22
-0.4800000000000001
 32
0.5
 13
0.4299999999999996
 23
-0.3999999999999999
 33
0.5200000000000001
  0
3DFACE
  5
A03
  8
TURRET
 10
0.4299999999999996
 20
-0.3999999999999999
 30
0.5200000000000001
 11
0.3800000000000001
 21
-0.48
 31
0.5
 12
0.4599999999999999
 22
-0.4000000000000003
 32
0.5
 13
0.4299999999999996
 23
-0.3999999999999999
 33
0.5200000000000001
  0
3DFACE
  5
A04
  8
TURRET
 10
0.4299999999999996
 20
-0.3999999999999999
 30
0.5200000000000001
 11
0.4599999999999999
 21
-0.4000000000000003
 31
0.5
 12
0.54
 22
-0.28
 32
0.5
 13
0.4800000000000003
 23
-0.28
 33
0.5400000000000002
  0
3DFACE
  5
A05
  8
TURRET
 10
0.4800000000000003
 20
-0.28
 30
0.5400000000000002
 11
0.54
 21
-0.28
 31
0.5
 12
0.58
 22
-0.1500000000000001
 32
0.5
 13
0.5
 23
-0.1500000000000001
 33
0.57
  0
3DFACE
  5
A06
  8
TURRET
 10
0.5
 20
-0.1500000000000001
 30
0.57
 11
0.58
 21
-0.1500000000000001
 31
0.5
 12
0.6000000000000006
 22
0.0
 32
0.5
 13
0.5100000000000007
 23
0.0
 33
0.5899999999999999
  0
3DFACE
  5
A07
  8
TURRET
 10
0.5100000000000007
 20
0.0
 30
0.5899999999999999
 11
0.6000000000000006
 21
0.0
 31
0.5
 12
0.5900000000000008
 22
0.1199999999999999
 32
0.5
 13
0.5000000000000009
 23
0.1199999999999999
 33
0.5899999999999999
  0
3DFACE
  5
A08
  8
TURRET
 10
0.5000000000000009
 20
0.1199999999999999
 30
0.5899999999999999
 11
0.5900000000000008
 21
0.1199999999999999
 31
0.5
 12
0.5300000000000003
 22
0.28
 32
0.5
 13
0.4400000000000003
 23
0.28
 33
0.5899999999999999
  0
3DFACE
  5
A09
  8
TURRET
 10
0.4400000000000004
 20
0.28
 30
0.5899999999999999
 11
0.5300000000000003
 21
0.28
 31
0.5
 12
0.5
 22
0.3299999999999998
 32
0.5
 13
0.4000000000000003
 23
0.3299999999999998
 33
0.5899999999999999
  0
3DFACE
  5
A0A
  8
TURRET
 10
0.4000000000000003
 20
0.3299999999999998
 30
0.5899999999999999
 11
0.5
 21
0.3299999999999998
 31
0.5
 12
0.4199999999999991
 22
0.4299999999999999
 32
0.5
 13
0.4000000000000003
 23
0.3299999999999998
 33
0.5899999999999999
  0
3DFACE
  5
A0B
  8
TURRET
 10
0.4000000000000003
 20
0.3299999999999998
 30
0.5899999999999999
 11
0.4199999999999991
 21
0.4299999999999999
 31
0.5
 12
0.3299999999999992
 22
0.51
 32
0.5
 13
0.2999999999999997
 23
0.4299999999999999
 33
0.5899999999999999
  0
3DFACE
  5
A0C
  8
TURRET
 10
0.2999999999999997
 20
0.4299999999999999
 30
0.5899999999999999
 11
0.3299999999999992
 21
0.51
 31
0.5
 12
0.1900000000000004
 22
0.57
 32
0.5
 13
0.1900000000000003
 23
0.4900000000000001
 33
0.5899999999999999
  0
3DFACE
  5
A0D
  8
TURRET
 10
0.1900000000000003
 20
0.4900000000000001
 30
0.5899999999999999
 11
0.1900000000000006
 21
0.57
 31
0.4999999999999996
 12
0.0500000000000003
 22
0.5999999999999999
 32
0.5
 13
0.1
 23
0.51
 33
0.5899999999999999
  0
3DFACE
  5
A0E
  8
TURRET
 10
0.1
 20
0.51
 30
0.5899999999999999
 11
0.0500000000000006
 21
0.5999999999999999
 31
0.4999999999999996
 12
0.0
 22
0.6099999999999999
 32
0.5
 13
-0.0000000000000001
 23
0.5200000000000001
 33
0.5899999999999999
  0
3DFACE
  5
A0F
  8
TURRET
 10
-0.4299999999999999
 20
-0.3999999999999999
 30
0.5200000000000001
 11
-0.3800000000000001
 21
-0.4800000000000003
 31
0.5
 12
-0.3200000000000006
 22
-0.5200000000000001
 32
0.5
 13
-0.3200000000000006
 23
-0.5200000000000001
 33
0.5
  0
3DFACE
  5
A10
  8
TURRET
 10
-0.4299999999999999
 20
-0.3999999999999999
 30
0.5200000000000001
 11
-0.4600000000000002
 21
-0.4
 31
0.5
 12
-0.3800000000000001
 22
-0.4800000000000003
 32
0.5
 13
-0.3800000000000001
 23
-0.4800000000000003
 33
0.5
  0
3DFACE
  5
A11
  8
TURRET
 10
-0.4800000000000006
 20
-0.28
 30
0.5400000000000002
 11
-0.5400000000000002
 21
-0.28
 31
0.5
 12
-0.4600000000000002
 22
-0.4
 32
0.5
 13
-0.4299999999999999
 23
-0.3999999999999999
 33
0.5200000000000001
  0
3DFACE
  5
A12
  8
TURRET
 10
-0.5000000000000001
 20
-0.1500000000000001
 30
0.57
 11
-0.5800000000000002
 21
-0.1500000000000001
 31
0.5
 12
-0.5400000000000002
 22
-0.28
 32
0.5
 13
-0.4800000000000006
 23
-0.28
 33
0.5400000000000002
  0
3DFACE
  5
A13
  8
TURRET
 10
-0.5100000000000007
 20
0.0
 30
0.5899999999999999
 11
-0.6000000000000006
 21
0.0
 31
0.5
 12
-0.5800000000000002
 22
-0.1500000000000001
 32
0.5
 13
-0.5000000000000001
 23
-0.1500000000000001
 33
0.57
  0
3DFACE
  5
A14
  8
TURRET
 10
-0.5000000000000009
 20
0.1199999999999999
 30
0.5899999999999999
 11
-0.5900000000000008
 21
0.1199999999999999
 31
0.5
 12
-0.6000000000000006
 22
0.0
 32
0.5
 13
-0.5100000000000007
 23
0.0
 33
0.5899999999999999
  0
3DFACE
  5
A15
  8
TURRET
 10
-0.4400000000000005
 20
0.28
 30
0.5899999999999999
 11
-0.5300000000000003
 21
0.28
 31
0.5
 12
-0.5900000000000008
 22
0.1199999999999999
 32
0.5
 13
-0.5000000000000009
 23
0.1199999999999999
 33
0.5899999999999999
  0
3DFACE
  5
A16
  8
TURRET
 10
-0.4400000000000003
 20
0.2800000000000002
 30
0.5899999999999999
 11
-0.5
 21
0.3299999999999998
 31
0.5
 12
-0.5300000000000003
 22
0.28
 32
0.5
 13
-0.4400000000000004
 23
0.28
 33
0.5899999999999999
  0
3DFACE
  5
A17
  8
TURRET
 10
-0.4000000000000005
 20
0.3299999999999998
 30
0.5899999999999999
 11
-0.4199999999999992
 21
0.4299999999999999
 31
0.5
 12
-0.5
 22
0.3299999999999998
 32
0.5
 13
-0.4399999999999999
 23
0.2799999999999998
 33
0.5900000000000003
  0
3DFACE
  5
A18
  8
TURRET
 10
-0.2999999999999999
 20
0.4299999999999999
 30
0.5899999999999999
 11
-0.3299999999999992
 21
0.51
 31
0.5
 12
-0.4199999999999992
 22
0.4299999999999999
 32
0.5
 13
-0.4000000000000005
 23
0.3299999999999998
 33
0.5899999999999999
  0
3DFACE
  5
A19
  8
TURRET
 10
-0.1900000000000005
 20
0.4900000000000001
 30
0.5899999999999999
 11
-0.1900000000000004
 21
0.57
 31
0.5
 12
-0.3299999999999992
 22
0.51
 32
0.5
 13
-0.2999999999999999
 23
0.4299999999999999
 33
0.5899999999999999
  0
3DFACE
  5
A1A
  8
TURRET
 10
-0.1000000000000001
 20
0.51
 30
0.5899999999999999
 11
-0.0500000000000003
 21
0.5999999999999999
 31
0.5
 12
-0.1900000000000004
 22
0.57
 32
0.5
 13
-0.1900000000000005
 23
0.4900000000000001
 33
0.5899999999999999
  0
3DFACE
  5
A1B
  8
TURRET
 10
-0.0000000000000001
 20
0.5200000000000001
 30
0.5899999999999999
 11
0.0
 21
0.6099999999999999
 31
0.5
 12
-0.0500000000000003
 22
0.5999999999999999
 32
0.5
 13
-0.1000000000000001
 23
0.51
 33
0.5899999999999999
  0
3DFACE
  5
A21
  8
TURRET
 10
0.3283999999999999
 20
-0.73
 30
0.4299999999999993
 11
0.3739999999999999
 21
-0.6800000000000001
 31
0.0499999999999998
 12
0.3800000000000001
 22
-0.6000000000000001
 32
0.0000000000000004
 13
0.3200000000000001
 23
-0.5200000000000001
 33
0.5
  0
3DFACE
  5
A22
  8
TURRET
 10
-0.3199999999999999
 20
-0.5200000000000001
 30
0.5
 11
-0.3799999999999999
 21
-0.6000000000000001
 31
0.0
 12
-0.3739999999999999
 22
-0.6800000000000001
 32
0.0499999999999998
 13
-0.3283999999999963
 23
-0.7300000000000059
 33
0.4300000000000286
  0
3DFACE
  5
A23
  8
TURRET
 10
-0.3283999999999963
 20
-0.7300000000000059
 30
0.4300000000000286
 11
-0.3739999999999999
 21
-0.6800000000000001
 31
0.0499999999999998
 12
-0.3607999999999998
 22
-0.7900000000000002
 32
0.1599999999999999
 13
-0.3331999999999998
 23
-0.8
 33
0.3899999999999997
  0
3DFACE
  5
A24
  8
TURRET
 10
0.3331999999999998
 20
-0.8
 30
0.3899999999999997
 11
0.3607999999999998
 21
-0.7900000000000002
 31
0.1599999999999999
 12
0.3739999999999999
 22
-0.6800000000000001
 32
0.0499999999999998
 13
0.3283999999999999
 23
-0.73
 33
0.4299999999999993
  0
3DFACE
  5
A25
  8
TURRET
 10
-0.3331999999999998
 20
-0.8
 30
0.3899999999999997
 11
-0.3607999999999998
 21
-0.7900000000000002
 31
0.1599999999999999
 12
-0.3487999999999999
 22
-0.84
 32
0.2599999999999998
 13
-0.3391999999999998
 23
-0.84
 33
0.3399999999999999
  0
3DFACE
  5
A26
  8
TURRET
 10
0.3391999999999998
 20
-0.84
 30
0.3399999999999999
 11
0.3487999999999998
 21
-0.84
 31
0.2599999999999998
 12
0.3607999999999998
 22
-0.7900000000000002
 32
0.1599999999999999
 13
0.3331999999999998
 23
-0.8
 33
0.3899999999999997
  0
3DFACE
  5
A28
  8
TURRET
 10
-0.28
 20
-0.7400000000000002
 30
0.48
 11
0.28
 21
-0.7400000000000002
 31
0.48
 12
0.3200000000000005
 22
-0.5200000000000001
 32
0.5
 13
-0.3199999999999999
 23
-0.5200000000000001
 33
0.5
  0
3DFACE
  5
A29
  8
TURRET
 10
-0.28
 20
-0.8300000000000002
 30
0.4299999999999998
 11
0.2800000000000001
 21
-0.83
 31
0.4299999999999998
 12
0.28
 22
-0.7400000000000002
 32
0.48
 13
-0.28
 23
-0.7400000000000002
 33
0.48
  0
3DFACE
  5
A2A
  8
TURRET
 10
-0.28
 20
-0.8700000000000001
 30
0.3700000000000001
 11
0.28
 21
-0.8700000000000001
 31
0.3700000000000001
 12
0.2800000000000001
 22
-0.83
 32
0.4299999999999998
 13
-0.28
 23
-0.8300000000000002
 33
0.4299999999999998
  0
3DFACE
  5
A2B
  8
TURRET
 10
-0.28
 20
-0.8900000000000002
 30
0.2599999999999998
 11
0.2800000000000001
 21
-0.8900000000000002
 31
0.2599999999999998
 12
0.28
 22
-0.8700000000000001
 32
0.3700000000000001
 13
-0.28
 23
-0.8700000000000001
 33
0.3700000000000001
  0
3DFACE
  5
A2C
  8
TURRET
 10
-0.28
 20
-0.83
 30
0.1499999999999995
 11
0.28
 21
-0.83
 31
0.1499999999999995
 12
0.2800000000000001
 22
-0.8900000000000002
 32
0.2599999999999998
 13
-0.28
 23
-0.8900000000000002
 33
0.2599999999999998
  0
3DFACE
  5
A2D
  8
TURRET
 10
-0.2799999999999999
 20
-0.6900000000000001
 30
0.0
 11
0.2800000000000001
 21
-0.6900000000000001
 31
0.0
 12
0.28
 22
-0.83
 32
0.1499999999999995
 13
-0.28
 23
-0.83
 33
0.1499999999999995
  0
3DFACE
  5
A30
  8
TURRET
 10
0.28
 20
-0.7400000000000001
 30
0.48
 11
0.3283999999999999
 21
-0.73
 31
0.4299999999999993
 12
0.3200000000000001
 22
-0.5200000000000001
 32
0.5
 13
0.3200000000000001
 23
-0.5200000000000001
 33
0.5
  0
3DFACE
  5
A31
  8
TURRET
 10
0.2800000000000001
 20
-0.83
 30
0.4299999999999998
 11
0.3331999999999998
 21
-0.8
 31
0.3899999999999997
 12
0.3283999999999999
 22
-0.73
 32
0.4299999999999993
 13
0.28
 23
-0.7400000000000001
 33
0.48
  0
3DFACE
  5
A32
  8
TURRET
 10
0.2800000000000001
 20
-0.8700000000000002
 30
0.3700000000000001
 11
0.3391999999999998
 21
-0.84
 31
0.3399999999999999
 12
0.3331999999999998
 22
-0.8
 32
0.3899999999999997
 13
0.2800000000000001
 23
-0.83
 33
0.4299999999999998
  0
3DFACE
  5
A33
  8
TURRET
 10
0.2800000000000001
 20
-0.8900000000000002
 30
0.2599999999999998
 11
0.3487999999999998
 21
-0.84
 31
0.2599999999999998
 12
0.3391999999999998
 22
-0.84
 32
0.3399999999999999
 13
0.2800000000000001
 23
-0.8700000000000002
 33
0.3700000000000001
  0
3DFACE
  5
A34
  8
TURRET
 10
0.2800000000000001
 20
-0.83
 30
0.1499999999999995
 11
0.3607999999999998
 21
-0.7900000000000002
 31
0.1599999999999999
 12
0.3487999999999998
 22
-0.84
 32
0.2599999999999998
 13
0.2800000000000001
 23
-0.8900000000000002
 33
0.2599999999999998
  0
3DFACE
  5
A35
  8
TURRET
 10
0.2800000000000002
 20
-0.6900000000000001
 30
0.0
 11
0.3739999999999999
 21
-0.6800000000000001
 31
0.0499999999999998
 12
0.3607999999999998
 22
-0.7900000000000002
 32
0.1599999999999999
 13
0.2800000000000001
 23
-0.83
 33
0.1499999999999995
  0
3DFACE
  5
A36
  8
TURRET
 10
-0.3283999999999963
 20
-0.7300000000000059
 30
0.4300000000000286
 11
-0.28
 21
-0.7400000000000002
 31
0.48
 12
-0.3199999999999999
 22
-0.5200000000000001
 32
0.5
 13
-0.3199999999999999
 23
-0.5200000000000001
 33
0.5
  0
3DFACE
  5
A37
  8
TURRET
 10
-0.3331999999999998
 20
-0.8
 30
0.3899999999999997
 11
-0.28
 21
-0.8300000000000002
 31
0.4299999999999998
 12
-0.28
 22
-0.7400000000000002
 32
0.48
 13
-0.3283999999999963
 23
-0.7300000000000059
 33
0.4300000000000286
  0
3DFACE
  5
A38
  8
TURRET
 10
-0.3391999999999998
 20
-0.84
 30
0.3399999999999999
 11
-0.28
 21
-0.8700000000000001
 31
0.3700000000000001
 12
-0.28
 22
-0.8300000000000002
 32
0.4299999999999998
 13
-0.3331999999999998
 23
-0.8
 33
0.3899999999999997
  0
3DFACE
  5
A39
  8
TURRET
 10
-0.3487999999999999
 20
-0.84
 30
0.2599999999999998
 11
-0.28
 21
-0.8900000000000002
 31
0.2599999999999998
 12
-0.28
 22
-0.8700000000000001
 32
0.3700000000000001
 13
-0.3391999999999998
 23
-0.84
 33
0.3399999999999999
  0
3DFACE
  5
A3A
  8
TURRET
 10
-0.3607999999999998
 20
-0.7900000000000002
 30
0.1599999999999999
 11
-0.28
 21
-0.83
 31
0.1499999999999995
 12
-0.28
 22
-0.8900000000000002
 32
0.2599999999999998
 13
-0.3487999999999999
 23
-0.84
 33
0.2599999999999998
  0
3DFACE
  5
A3B
  8
TURRET
 10
-0.3739999999999999
 20
-0.6800000000000001
 30
0.0499999999999998
 11
-0.2799999999999999
 21
-0.6900000000000001
 31
0.0
 12
-0.28
 22
-0.83
 32
0.1499999999999995
 13
-0.3607999999999998
 23
-0.7900000000000002
 33
0.1599999999999999
  0
3DFACE
  5
A3D
  8
TURRET
 10
-0.3799999999999999
 20
-0.6000000000000001
 30
0.0
 11
-0.3799999999999999
 21
-0.6000000000000001
 31
0.0
 12
-0.2799999999999999
 22
-0.6900000000000001
 32
0.0
 13
-0.3739999999999999
 23
-0.6800000000000001
 33
0.0499999999999998
  0
3DFACE
  5
A3E
  8
TURRET
 10
0.3800000000000001
 20
-0.6000000000000001
 30
0.0000000000000004
 11
0.3800000000000001
 21
-0.6000000000000001
 31
0.0000000000000004
 12
0.3739999999999999
 22
-0.6800000000000001
 32
0.0499999999999998
 13
0.2800000000000002
 23
-0.6900000000000001
 33
0.0
  0
3DFACE
  5
A40
  8
TURRET
 10
-0.3199999999999999
 20
-0.5200000000000001
 30
0.5
 11
0.3199999999999999
 21
-0.5200000000000006
 31
0.5
 12
0.4299999999999996
 22
-0.3999999999999999
 32
0.5200000000000001
 13
-0.4299999999999999
 23
-0.3999999999999999
 33
0.5200000000000001
  0
3DFACE
  5
A41
  8
TURRET
 10
-0.4299999999999999
 20
-0.3999999999999999
 30
0.5200000000000001
 11
0.4299999999999998
 21
-0.4000000000000004
 31
0.5200000000000001
 12
0.4800000000000004
 22
-0.2799999999999998
 32
0.5400000000000002
 13
-0.4800000000000006
 23
-0.28
 33
0.5400000000000002
  0
3DFACE
  5
A42
  8
TURRET
 10
-0.4800000000000006
 20
-0.28
 30
0.5400000000000002
 11
0.4800000000000004
 21
-0.2799999999999998
 31
0.5400000000000002
 12
0.5
 22
-0.1500000000000001
 32
0.57
 13
-0.5000000000000001
 23
-0.1500000000000001
 33
0.57
  0
3DFACE
  5
A44
  8
TURRET
 10
-0.5000000000000001
 20
-0.1500000000000001
 30
0.57
 11
0.5000000000000001
 21
-0.1500000000000001
 31
0.57
 12
0.5100000000000007
 22
0.0
 32
0.5899999999999999
 13
-0.5100000000000007
 23
0.0
 33
0.5899999999999999
  0
3DFACE
  5
A45
  8
TURRET
 10
-0.5100000000000007
 20
0.0
 30
0.5899999999999999
 11
0.5100000000000007
 21
0.0
 31
0.5899999999999999
 12
0.5000000000000009
 22
0.1199999999999999
 32
0.5899999999999999
 13
-0.5000000000000009
 23
0.1199999999999999
 33
0.5899999999999999
  0
3DFACE
  5
A46
  8
TURRET
 10
-0.5000000000000009
 20
0.1199999999999999
 30
0.5899999999999999
 11
0.5000000000000009
 21
0.1199999999999999
 31
0.5899999999999999
 12
0.4400000000000004
 22
0.28
 32
0.5899999999999999
 13
-0.4400000000000005
 23
0.28
 33
0.5899999999999999
  0
3DFACE
  5
A47
  8
TURRET
 10
-0.4399999999999997
 20
0.28
 30
0.5900000000000003
 11
0.4400000000000005
 21
0.28
 31
0.5900000000000003
 12
0.4000000000000003
 22
0.3299999999999998
 32
0.5899999999999999
 13
-0.4000000000000005
 23
0.3299999999999998
 33
0.5899999999999999
  0
3DFACE
  5
A48
  8
TURRET
 10
-0.4000000000000005
 20
0.3299999999999998
 30
0.5899999999999999
 11
0.4000000000000003
 21
0.3299999999999998
 31
0.5899999999999999
 12
0.2999999999999997
 22
0.4299999999999999
 32
0.5899999999999999
 13
-0.2999999999999999
 23
0.4299999999999999
 33
0.5899999999999999
  0
3DFACE
  5
A49
  8
TURRET
 10
-0.2999999999999999
 20
0.4299999999999999
 30
0.5899999999999999
 11
0.2999999999999997
 21
0.4299999999999999
 31
0.5899999999999999
 12
0.1900000000000003
 22
0.4900000000000001
 32
0.5899999999999999
 13
-0.1900000000000005
 23
0.4900000000000001
 33
0.5899999999999999
  0
3DFACE
  5
A4A
  8
TURRET
 10
-0.1900000000000005
 20
0.4900000000000001
 30
0.5899999999999999
 11
0.1900000000000003
 21
0.4900000000000001
 31
0.5899999999999999
 12
0.1
 22
0.51
 32
0.5899999999999999
 13
-0.1000000000000001
 23
0.51
 33
0.5899999999999999
  0
3DFACE
  5
A4B
  8
TURRET
 10
-0.1000000000000001
 20
0.51
 30
0.5899999999999999
 11
0.1
 21
0.51
 31
0.5899999999999999
 12
-0.0000000000000001
 22
0.5200000000000001
 32
0.5899999999999999
 13
-0.0000000000000001
 23
0.5200000000000001
 33
0.5899999999999999
  0
3DFACE
  5
A8E
  8
TURRET
 10
-0.3699999999999999
 20
-0.2599999999999998
 30
0.5899999999999999
 11
-0.3524264068711927
 21
-0.3024264068711928
 31
0.5899999999999999
 12
-0.3524264068711927
 22
-0.3024264068711928
 32
0.6199999999999997
 13
-0.3699999999999999
 23
-0.2599999999999998
 33
0.6199999999999997
  0
3DFACE
  5
A8F
  8
TURRET
 10
-0.3524264068711927
 20
-0.3024264068711928
 30
0.5899999999999999
 11
-0.3099999999999999
 21
-0.3199999999999998
 31
0.5899999999999999
 12
-0.3099999999999999
 22
-0.3199999999999998
 32
0.6199999999999997
 13
-0.3524264068711927
 23
-0.3024264068711928
 33
0.6199999999999997
  0
3DFACE
  5
A90
  8
TURRET
 10
-0.3099999999999999
 20
-0.3199999999999998
 30
0.5899999999999999
 11
-0.267573593128807
 21
-0.3024264068711928
 31
0.5899999999999999
 12
-0.267573593128807
 22
-0.3024264068711928
 32
0.6199999999999997
 13
-0.3099999999999999
 23
-0.3199999999999998
 33
0.6199999999999997
  0
3DFACE
  5
A91
  8
TURRET
 10
-0.267573593128807
 20
-0.3024264068711928
 30
0.5899999999999999
 11
-0.2499999999999999
 21
-0.2599999999999998
 31
0.5899999999999999
 12
-0.2499999999999999
 22
-0.2599999999999998
 32
0.6199999999999997
 13
-0.267573593128807
 23
-0.3024264068711928
 33
0.6199999999999997
  0
3DFACE
  5
A92
  8
TURRET
 10
-0.2499999999999999
 20
-0.2599999999999998
 30
0.5899999999999999
 11
-0.267573593128807
 21
-0.2175735931288072
 31
0.5899999999999999
 12
-0.267573593128807
 22
-0.2175735931288072
 32
0.6199999999999997
 13
-0.2499999999999999
 23
-0.2599999999999998
 33
0.6199999999999997
  0
3DFACE
  5
A93
  8
TURRET
 10
-0.267573593128807
 20
-0.2175735931288072
 30
0.5899999999999999
 11
-0.3099999999999998
 21
-0.1999999999999997
 31
0.5899999999999999
 12
-0.3099999999999998
 22
-0.1999999999999997
 32
0.6199999999999997
 13
-0.267573593128807
 23
-0.2175735931288072
 33
0.6199999999999997
  0
3DFACE
  5
A94
  8
TURRET
 10
-0.3099999999999998
 20
-0.1999999999999997
 30
0.5899999999999999
 11
-0.3524264068711927
 21
-0.2175735931288072
 31
0.5899999999999999
 12
-0.3524264068711927
 22
-0.2175735931288072
 32
0.6199999999999997
 13
-0.3099999999999998
 23
-0.1999999999999997
 33
0.6199999999999997
  0
3DFACE
  5
A95
  8
TURRET
 10
-0.3524264068711927
 20
-0.2175735931288072
 30
0.5899999999999999
 11
-0.3699999999999999
 21
-0.2599999999999998
 31
0.5899999999999999
 12
-0.3699999999999999
 22
-0.2599999999999998
 32
0.6199999999999997
 13
-0.3524264068711927
 23
-0.2175735931288072
 33
0.6199999999999997
  0
3DFACE
  5
A96
  8
TURRET
 10
-0.4099999999999999
 20
-0.2599999999999998
 30
0.5400000000000002
 11
-0.3807106781186546
 21
-0.3307106781186546
 31
0.5299999999999998
 12
-0.3524264068711927
 22
-0.3024264068711928
 32
0.5899999999999999
 13
-0.3699999999999999
 23
-0.2599999999999998
 33
0.5899999999999999
  0
3DFACE
  5
A97
  8
TURRET
 10
-0.3807106781186546
 20
-0.1892893218813452
 30
0.5600000000000001
 11
-0.4099999999999999
 21
-0.2599999999999998
 31
0.5400000000000002
 12
-0.3699999999999999
 22
-0.2599999999999998
 32
0.5899999999999999
 13
-0.3524264068711927
 23
-0.2175735931288072
 33
0.5899999999999999
  0
3DFACE
  5
A98
  8
TURRET
 10
-0.2392893218813451
 20
-0.3307106781186546
 30
0.5299999999999998
 11
-0.2099999999999998
 21
-0.2599999999999998
 31
0.5400000000000002
 12
-0.2499999999999999
 22
-0.2599999999999998
 32
0.5899999999999999
 13
-0.267573593128807
 23
-0.3024264068711928
 33
0.5899999999999999
  0
3DFACE
  5
A99
  8
TURRET
 10
-0.2099999999999998
 20
-0.2599999999999998
 30
0.5400000000000002
 11
-0.2392893218813451
 21
-0.1892893218813452
 31
0.5600000000000001
 12
-0.267573593128807
 22
-0.2175735931288072
 32
0.5899999999999999
 13
-0.2499999999999999
 23
-0.2599999999999998
 33
0.5899999999999999
  0
3DFACE
  5
A9A
  8
TURRET
 10
-0.2392893218813451
 20
-0.1892893218813452
 30
0.5600000000000001
 11
-0.3099999999999998
 21
-0.1599999999999999
 31
0.5600000000000001
 12
-0.3099999999999998
 22
-0.1999999999999997
 32
0.5899999999999999
 13
-0.267573593128807
 23
-0.2175735931288072
 33
0.5899999999999999
  0
3DFACE
  5
A9B
  8
TURRET
 10
-0.3099999999999998
 20
-0.1599999999999999
 30
0.5600000000000001
 11
-0.3807106781186546
 21
-0.1892893218813452
 31
0.5600000000000001
 12
-0.3524264068711927
 22
-0.2175735931288072
 32
0.5899999999999999
 13
-0.3099999999999998
 23
-0.1999999999999997
 33
0.5899999999999999
  0
3DFACE
  5
A9C
  8
TURRET
 10
-0.3807106781186546
 20
-0.3307106781186546
 30
0.5299999999999998
 11
-0.3099999999999999
 21
-0.3599999999999999
 31
0.5200000000000001
 12
-0.3099999999999999
 22
-0.3199999999999998
 32
0.5899999999999999
 13
-0.3524264068711927
 23
-0.3024264068711928
 33
0.5899999999999999
  0
3DFACE
  5
A9D
  8
TURRET
 10
-0.3099999999999999
 20
-0.3599999999999999
 30
0.5200000000000001
 11
-0.2392893218813451
 21
-0.3307106781186546
 31
0.5299999999999998
 12
-0.267573593128807
 22
-0.3024264068711928
 32
0.5899999999999999
 13
-0.3099999999999999
 23
-0.3199999999999998
 33
0.5899999999999999
  0
3DFACE
  5
A9E
  8
TURRET
 10
-0.3699999999999999
 20
-0.2599999999999998
 30
0.7899999999999996
 11
-0.3524264068711927
 21
-0.3024264068711928
 31
0.7899999999999996
 12
-0.3524264068711927
 22
-0.3024264068711928
 32
0.8700000000000001
 13
-0.3699999999999999
 23
-0.2599999999999998
 33
0.8700000000000001
  0
3DFACE
  5
A9F
  8
TURRET
 10
-0.3524264068711927
 20
-0.3024264068711928
 30
0.7899999999999996
 11
-0.3099999999999999
 21
-0.3199999999999998
 31
0.7899999999999996
 12
-0.3099999999999999
 22
-0.3199999999999998
 32
0.8700000000000001
 13
-0.3524264068711927
 23
-0.3024264068711928
 33
0.8700000000000001
  0
3DFACE
  5
AA0
  8
TURRET
 10
-0.3099999999999999
 20
-0.3199999999999998
 30
0.7899999999999996
 11
-0.267573593128807
 21
-0.3024264068711928
 31
0.7899999999999996
 12
-0.267573593128807
 22
-0.3024264068711928
 32
0.8700000000000001
 13
-0.3099999999999999
 23
-0.3199999999999998
 33
0.8700000000000001
  0
3DFACE
  5
AA1
  8
TURRET
 10
-0.267573593128807
 20
-0.3024264068711928
 30
0.7899999999999996
 11
-0.2499999999999999
 21
-0.2599999999999998
 31
0.7899999999999996
 12
-0.2499999999999999
 22
-0.2599999999999998
 32
0.8700000000000001
 13
-0.267573593128807
 23
-0.3024264068711928
 33
0.8700000000000001
  0
3DFACE
  5
AA2
  8
TURRET
 10
-0.2499999999999999
 20
-0.2599999999999998
 30
0.7899999999999996
 11
-0.267573593128807
 21
-0.2175735931288072
 31
0.7899999999999996
 12
-0.267573593128807
 22
-0.2175735931288072
 32
0.8700000000000001
 13
-0.2499999999999999
 23
-0.2599999999999998
 33
0.8700000000000001
  0
3DFACE
  5
AA3
  8
TURRET
 10
-0.267573593128807
 20
-0.2175735931288072
 30
0.7899999999999996
 11
-0.3099999999999998
 21
-0.1999999999999997
 31
0.7899999999999996
 12
-0.3099999999999998
 22
-0.1999999999999997
 32
0.8700000000000001
 13
-0.267573593128807
 23
-0.2175735931288072
 33
0.8700000000000001
  0
3DFACE
  5
AA4
  8
TURRET
 10
-0.3099999999999998
 20
-0.1999999999999997
 30
0.7899999999999996
 11
-0.3524264068711927
 21
-0.2175735931288072
 31
0.7899999999999996
 12
-0.3524264068711927
 22
-0.2175735931288072
 32
0.8700000000000001
 13
-0.3099999999999998
 23
-0.1999999999999997
 33
0.8700000000000001
  0
3DFACE
  5
AA5
  8
TURRET
 10
-0.3524264068711927
 20
-0.2175735931288072
 30
0.7899999999999996
 11
-0.3699999999999999
 21
-0.2599999999999998
 31
0.7899999999999996
 12
-0.3699999999999999
 22
-0.2599999999999998
 32
0.8700000000000001
 13
-0.3524264068711927
 23
-0.2175735931288072
 33
0.8700000000000001
  0
3DFACE
  5
AA6
  8
TURRET
 10
-0.3499999999999999
 20
-0.2599999999999998
 30
0.7699999999999996
 11
-0.3382842712474618
 21
-0.2882842712474618
 31
0.7699999999999996
 12
-0.3524264068711927
 22
-0.3024264068711928
 32
0.7899999999999996
 13
-0.3699999999999999
 23
-0.2599999999999998
 33
0.7899999999999996
  0
3DFACE
  5
AA7
  8
TURRET
 10
-0.3382842712474618
 20
-0.2882842712474618
 30
0.7699999999999996
 11
-0.3099999999999999
 21
-0.2999999999999998
 31
0.7699999999999996
 12
-0.3099999999999999
 22
-0.3199999999999998
 32
0.7899999999999996
 13
-0.3524264068711927
 23
-0.3024264068711928
 33
0.7899999999999996
  0
3DFACE
  5
AA8
  8
TURRET
 10
-0.3099999999999999
 20
-0.2999999999999998
 30
0.7699999999999996
 11
-0.281715728752538
 21
-0.2882842712474618
 31
0.7699999999999996
 12
-0.267573593128807
 22
-0.3024264068711928
 32
0.7899999999999996
 13
-0.3099999999999999
 23
-0.3199999999999998
 33
0.7899999999999996
  0
3DFACE
  5
AA9
  8
TURRET
 10
-0.281715728752538
 20
-0.2882842712474618
 30
0.7699999999999996
 11
-0.2699999999999999
 21
-0.2599999999999998
 31
0.7699999999999996
 12
-0.2499999999999999
 22
-0.2599999999999998
 32
0.7899999999999996
 13
-0.267573593128807
 23
-0.3024264068711928
 33
0.7899999999999996
  0
3DFACE
  5
AAA
  8
TURRET
 10
-0.2699999999999999
 20
-0.2599999999999998
 30
0.7699999999999996
 11
-0.2817157287525379
 21
-0.231715728752538
 31
0.7699999999999996
 12
-0.267573593128807
 22
-0.2175735931288072
 32
0.7899999999999996
 13
-0.2499999999999999
 23
-0.2599999999999998
 33
0.7899999999999996
  0
3DFACE
  5
AAB
  8
TURRET
 10
-0.2817157287525379
 20
-0.231715728752538
 30
0.7699999999999996
 11
-0.3099999999999998
 21
-0.2199999999999997
 31
0.7699999999999996
 12
-0.3099999999999998
 22
-0.1999999999999997
 32
0.7899999999999996
 13
-0.267573593128807
 23
-0.2175735931288072
 33
0.7899999999999996
  0
3DFACE
  5
AAC
  8
TURRET
 10
-0.3099999999999998
 20
-0.2199999999999997
 30
0.7699999999999996
 11
-0.3382842712474617
 21
-0.231715728752538
 31
0.7699999999999996
 12
-0.3524264068711927
 22
-0.2175735931288072
 32
0.7899999999999996
 13
-0.3099999999999998
 23
-0.1999999999999997
 33
0.7899999999999996
  0
3DFACE
  5
AAD
  8
TURRET
 10
-0.3382842712474617
 20
-0.231715728752538
 30
0.7699999999999996
 11
-0.3499999999999999
 21
-0.2599999999999998
 31
0.7699999999999996
 12
-0.3699999999999999
 22
-0.2599999999999998
 32
0.7899999999999996
 13
-0.3524264068711927
 23
-0.2175735931288072
 33
0.7899999999999996
  0
3DFACE
  5
AAE
  8
TURRET
 10
-0.3499999999999999
 20
-0.2599999999999998
 30
0.6399999999999997
 11
-0.3382842712474618
 21
-0.2882842712474618
 31
0.6399999999999997
 12
-0.3382842712474618
 22
-0.2882842712474618
 32
0.7700000000000001
 13
-0.3499999999999999
 23
-0.2599999999999998
 33
0.7700000000000001
  0
3DFACE
  5
AAF
  8
TURRET
 10
-0.3382842712474618
 20
-0.2882842712474618
 30
0.6399999999999997
 11
-0.3099999999999999
 21
-0.2999999999999998
 31
0.6399999999999997
 12
-0.3099999999999999
 22
-0.2999999999999998
 32
0.7700000000000001
 13
-0.3382842712474618
 23
-0.2882842712474618
 33
0.7700000000000001
  0
3DFACE
  5
AB0
  8
TURRET
 10
-0.3099999999999999
 20
-0.2999999999999998
 30
0.6399999999999997
 11
-0.281715728752538
 21
-0.2882842712474618
 31
0.6399999999999997
 12
-0.281715728752538
 22
-0.2882842712474618
 32
0.7700000000000001
 13
-0.3099999999999999
 23
-0.2999999999999998
 33
0.7700000000000001
  0
3DFACE
  5
AB1
  8
TURRET
 10
-0.281715728752538
 20
-0.2882842712474618
 30
0.6399999999999997
 11
-0.2699999999999999
 21
-0.2599999999999998
 31
0.6399999999999997
 12
-0.2699999999999999
 22
-0.2599999999999998
 32
0.7700000000000001
 13
-0.281715728752538
 23
-0.2882842712474618
 33
0.7700000000000001
  0
3DFACE
  5
AB2
  8
TURRET
 10
-0.2699999999999999
 20
-0.2599999999999998
 30
0.6399999999999997
 11
-0.2817157287525379
 21
-0.231715728752538
 31
0.6399999999999997
 12
-0.2817157287525379
 22
-0.231715728752538
 32
0.7700000000000001
 13
-0.2699999999999999
 23
-0.2599999999999998
 33
0.7700000000000001
  0
3DFACE
  5
AB3
  8
TURRET
 10
-0.2817157287525379
 20
-0.231715728752538
 30
0.6399999999999997
 11
-0.3099999999999998
 21
-0.2199999999999997
 31
0.6399999999999997
 12
-0.3099999999999998
 22
-0.2199999999999997
 32
0.7700000000000001
 13
-0.2817157287525379
 23
-0.231715728752538
 33
0.7700000000000001
  0
3DFACE
  5
AB4
  8
TURRET
 10
-0.3099999999999998
 20
-0.2199999999999997
 30
0.6399999999999997
 11
-0.3382842712474617
 21
-0.231715728752538
 31
0.6399999999999997
 12
-0.3382842712474617
 22
-0.231715728752538
 32
0.7700000000000001
 13
-0.3099999999999998
 23
-0.2199999999999997
 33
0.7700000000000001
  0
3DFACE
  5
AB5
  8
TURRET
 10
-0.3382842712474617
 20
-0.231715728752538
 30
0.6399999999999997
 11
-0.3499999999999999
 21
-0.2599999999999998
 31
0.6399999999999997
 12
-0.3499999999999999
 22
-0.2599999999999998
 32
0.7700000000000001
 13
-0.3382842712474617
 23
-0.231715728752538
 33
0.7700000000000001
  0
3DFACE
  5
AB6
  8
TURRET
 10
-0.3699999999999999
 20
-0.2599999999999998
 30
0.6199999999999997
 11
-0.3524264068711927
 21
-0.3024264068711928
 31
0.6199999999999997
 12
-0.3382842712474618
 22
-0.2882842712474618
 32
0.6399999999999997
 13
-0.3499999999999999
 23
-0.2599999999999998
 33
0.6399999999999997
  0
3DFACE
  5
AB7
  8
TURRET
 10
-0.3524264068711927
 20
-0.3024264068711928
 30
0.6199999999999997
 11
-0.3099999999999999
 21
-0.3199999999999998
 31
0.6199999999999997
 12
-0.3099999999999999
 22
-0.2999999999999998
 32
0.6399999999999997
 13
-0.3382842712474618
 23
-0.2882842712474618
 33
0.6399999999999997
  0
3DFACE
  5
AB8
  8
TURRET
 10
-0.3099999999999999
 20
-0.3199999999999998
 30
0.6199999999999997
 11
-0.267573593128807
 21
-0.3024264068711928
 31
0.6199999999999997
 12
-0.281715728752538
 22
-0.2882842712474618
 32
0.6399999999999997
 13
-0.3099999999999999
 23
-0.2999999999999998
 33
0.6399999999999997
  0
3DFACE
  5
AB9
  8
TURRET
 10
-0.267573593128807
 20
-0.3024264068711928
 30
0.6199999999999997
 11
-0.2499999999999999
 21
-0.2599999999999998
 31
0.6199999999999997
 12
-0.2699999999999999
 22
-0.2599999999999998
 32
0.6399999999999997
 13
-0.281715728752538
 23
-0.2882842712474618
 33
0.6399999999999997
  0
3DFACE
  5
ABA
  8
TURRET
 10
-0.2499999999999999
 20
-0.2599999999999998
 30
0.6199999999999997
 11
-0.267573593128807
 21
-0.2175735931288072
 31
0.6199999999999997
 12
-0.2817157287525379
 22
-0.231715728752538
 32
0.6399999999999997
 13
-0.2699999999999999
 23
-0.2599999999999998
 33
0.6399999999999997
  0
3DFACE
  5
ABB
  8
TURRET
 10
-0.267573593128807
 20
-0.2175735931288072
 30
0.6199999999999997
 11
-0.3099999999999998
 21
-0.1999999999999997
 31
0.6199999999999997
 12
-0.3099999999999998
 22
-0.2199999999999997
 32
0.6399999999999997
 13
-0.2817157287525379
 23
-0.231715728752538
 33
0.6399999999999997
  0
3DFACE
  5
ABC
  8
TURRET
 10
-0.3099999999999998
 20
-0.1999999999999997
 30
0.6199999999999997
 11
-0.3524264068711927
 21
-0.2175735931288072
 31
0.6199999999999997
 12
-0.3382842712474617
 22
-0.231715728752538
 32
0.6399999999999997
 13
-0.3099999999999998
 23
-0.2199999999999997
 33
0.6399999999999997
  0
3DFACE
  5
ABD
  8
TURRET
 10
-0.3524264068711927
 20
-0.2175735931288072
 30
0.6199999999999997
 11
-0.3699999999999999
 21
-0.2599999999999998
 31
0.6199999999999997
 12
-0.3499999999999999
 22
-0.2599999999999998
 32
0.6399999999999997
 13
-0.3382842712474617
 23
-0.231715728752538
 33
0.6399999999999997
  0
3DFACE
  5
ABE
  8
TURRET
 10
-0.3499999999999999
 20
-0.2599999999999998
 30
0.8900000000000005
 11
-0.3382842712474617
 21
-0.231715728752538
 31
0.8900000000000005
 12
-0.3524264068711927
 22
-0.2175735931288072
 32
0.8700000000000006
 13
-0.3699999999999999
 23
-0.2599999999999998
 33
0.8700000000000006
  0
3DFACE
  5
ABF
  8
TURRET
 10
-0.3382842712474617
 20
-0.231715728752538
 30
0.8900000000000005
 11
-0.3099999999999998
 21
-0.2199999999999997
 31
0.8900000000000005
 12
-0.3099999999999998
 22
-0.2
 32
0.8700000000000006
 13
-0.3524264068711927
 23
-0.2175735931288072
 33
0.8700000000000006
  0
3DFACE
  5
AC0
  8
TURRET
 10
-0.3099999999999998
 20
-0.2199999999999997
 30
0.8900000000000005
 11
-0.2817157287525379
 21
-0.231715728752538
 31
0.8900000000000005
 12
-0.267573593128807
 22
-0.2175735931288072
 32
0.8700000000000006
 13
-0.3099999999999998
 23
-0.2
 33
0.8700000000000006
  0
3DFACE
  5
AC1
  8
TURRET
 10
-0.2817157287525379
 20
-0.231715728752538
 30
0.8900000000000005
 11
-0.2699999999999999
 21
-0.2599999999999998
 31
0.8900000000000005
 12
-0.2499999999999999
 22
-0.2599999999999998
 32
0.8700000000000006
 13
-0.267573593128807
 23
-0.2175735931288072
 33
0.8700000000000006
  0
3DFACE
  5
AC2
  8
TURRET
 10
-0.2699999999999999
 20
-0.2599999999999998
 30
0.8900000000000005
 11
-0.281715728752538
 21
-0.2882842712474618
 31
0.8900000000000005
 12
-0.267573593128807
 22
-0.3024264068711928
 32
0.8700000000000006
 13
-0.2499999999999999
 23
-0.2599999999999998
 33
0.8700000000000006
  0
3DFACE
  5
AC3
  8
TURRET
 10
-0.281715728752538
 20
-0.2882842712474618
 30
0.8900000000000005
 11
-0.3099999999999999
 21
-0.2999999999999998
 31
0.8900000000000005
 12
-0.3099999999999999
 22
-0.3199999999999998
 32
0.8700000000000006
 13
-0.267573593128807
 23
-0.3024264068711928
 33
0.8700000000000006
  0
3DFACE
  5
AC4
  8
TURRET
 10
-0.3099999999999999
 20
-0.2999999999999998
 30
0.8900000000000005
 11
-0.3382842712474618
 21
-0.2882842712474618
 31
0.8900000000000005
 12
-0.3524264068711927
 22
-0.3024264068711928
 32
0.8700000000000006
 13
-0.3099999999999999
 23
-0.3199999999999998
 33
0.8700000000000006
  0
3DFACE
  5
AC5
  8
TURRET
 10
-0.3382842712474618
 20
-0.2882842712474618
 30
0.8900000000000005
 11
-0.3499999999999999
 21
-0.2599999999999998
 31
0.8900000000000005
 12
-0.3699999999999999
 22
-0.2599999999999998
 32
0.8700000000000006
 13
-0.3524264068711927
 23
-0.3024264068711928
 33
0.8700000000000006
  0
3DFACE
  5
AC6
  8
TURRET
 10
-0.3099999999999999
 20
-0.2999999999999998
 30
0.8900000000000005
 11
-0.281715728752538
 21
-0.2882842712474618
 31
0.8900000000000005
 12
-0.2699999999999998
 22
-0.2599999999999998
 32
0.8900000000000009
 13
-0.2817157287525378
 23
-0.2317157287525382
 33
0.8900000000000009
  0
3DFACE
  5
AC7
  8
TURRET
 10
-0.3382842712474618
 20
-0.2882842712474618
 30
0.8900000000000005
 11
-0.3099999999999999
 21
-0.2999999999999998
 31
0.8900000000000005
 12
-0.2817157287525378
 22
-0.2317157287525382
 32
0.8900000000000009
 13
-0.3099999999999998
 23
-0.2199999999999997
 33
0.8900000000000005
  0
3DFACE
  5
AC8
  8
TURRET
 10
-0.3499999999999999
 20
-0.2599999999999998
 30
0.8900000000000005
 11
-0.3382842712474618
 21
-0.2882842712474618
 31
0.8900000000000005
 12
-0.3099999999999997
 22
-0.2200000000000002
 32
0.8900000000000009
 13
-0.3382842712474617
 23
-0.231715728752538
 33
0.8900000000000005
  0
VIEWPORT
  5
2E
 67
     1
  8
0
 10
144.7270812988281
 20
101.2295806407928
 30
0.0
 40
391.13550988316581
 41
222.15178063964839
 68
     2
 69
     1
1001
ACAD
1000
MVIEW
1002
{
1070
    16
1010
0.0
1020
0.0
1030
0.0
1010
0.0
1020
0.0
1030
1.0
1040
0.0
1040
222.15178063964839
1040
144.7270812988281
1040
101.2295806407928
1040
50.0
1040
0.0
1040
0.0
1070
     0
1070
   100
1070
     1
1070
     1
1070
     0
1070
     0
1070
     0
1070
     0
1040
0.0
1040
0.0
1040
0.0
1040
10.0
1040
10.0
1040
10.0
1040
10.0
1070
     0
1002
{
1002
}
1002
}
  0
VIEWPORT
  5
30
 67
     1
  8
0
 10
139.22375631332389
 20
100.8062499761581
 30
0.0
 40
222.75801010131829
 41
161.289999961853
 68
     1
 69
     2
1001
ACAD
1000
MVIEW
1002
{
1070
    16
1010
0.0
1020
0.0
1030
0.0
1010
0.0
1020
0.0
1030
1.0
1040
0.0
1040
307.49010134148989
1040
210.0
1040
148.5
1040
50.0
1040
0.0
1040
0.0
1070
     0
1070
   100
1070
     1
1070
     3
1070
     0
1070
     1
1070
     0
1070
     0
1040
0.0
1040
0.0
1040
0.0
1040
10.0
1040
10.0
1040
10.0
1040
10.0
1070
     0
1002
{
1002
}
1002
}
  0
ENDSEC
  0
EOF
