  0
SECTION
  2
HEADER
  9
$ACADVER
  1
AC1009
  9
$INSBASE
 10
0.0
 20
0.0
 30
0.0
  9
$EXTMIN
 10
-40.585150479281182
 20
-60.830000000000013
 30
-85.620000000000005
  9
$EXTMAX
 10
36.799999999999997
 20
60.848600042510022
 30
28.705150479281169
  9
$LIMMIN
 10
0.0
 20
0.0
  9
$LIMMAX
 10
420.0
 20
297.0
  9
$ORTHOMODE
 70
     1
  9
$REGENMODE
 70
     1
  9
$FILLMODE
 70
     1
  9
$QTEXTMODE
 70
     0
  9
$MIRRTEXT
 70
     1
  9
$DRAGMODE
 70
     2
  9
$LTSCALE
 40
1.0
  9
$OSMODE
 70
   551
  9
$ATTMODE
 70
     1
  9
$TEXTSIZE
 40
2.5
  9
$TRACEWID
 40
1.0
  9
$TEXTSTYLE
  7
STANDARD
  9
$CLAYER
  8
SLEEVE
  9
$CELTYPE
  6
BYLAYER
  9
$CECOLOR
 62
   256
  9
$DIMSCALE
 40
1.0
  9
$DIMASZ
 40
2.5
  9
$DIMEXO
 40
0.625
  9
$DIMDLI
 40
3.75
  9
$DIMRND
 40
0.0
  9
$DIMDLE
 40
0.0
  9
$DIMEXE
 40
1.25
  9
$DIMTP
 40
0.0
  9
$DIMTM
 40
0.0
  9
$DIMTXT
 40
2.5
  9
$DIMCEN
 40
2.5
  9
$DIMTSZ
 40
0.0
  9
$DIMTOL
 70
     0
  9
$DIMLIM
 70
     0
  9
$DIMTIH
 70
     0
  9
$DIMTOH
 70
     0
  9
$DIMSE1
 70
     0
  9
$DIMSE2
 70
     0
  9
$DIMTAD
 70
     1
  9
$DIMZIN
 70
     8
  9
$DIMBLK
  1

  9
$DIMASO
 70
     1
  9
$DIMSHO
 70
     1
  9
$DIMPOST
  1

  9
$DIMAPOST
  1

  9
$DIMALT
 70
     0
  9
$DIMALTD
 70
     3
  9
$DIMALTF
 40
0.03937007874016
  9
$DIMLFAC
 40
1.0
  9
$DIMTOFL
 70
     1
  9
$DIMTVP
 40
0.0
  9
$DIMTIX
 70
     0
  9
$DIMSOXD
 70
     0
  9
$DIMSAH
 70
     0
  9
$DIMBLK1
  1

  9
$DIMBLK2
  1

  9
$DIMSTYLE
  2
ISO-25
  9
$DIMCLRD
 70
     0
  9
$DIMCLRE
 70
     0
  9
$DIMCLRT
 70
     0
  9
$DIMTFAC
 40
1.0
  9
$DIMGAP
 40
0.625
  9
$LUNITS
 70
     2
  9
$LUPREC
 70
     4
  9
$SKETCHINC
 40
1.0
  9
$FILLETRAD
 40
10.0
  9
$AUNITS
 70
     0
  9
$AUPREC
 70
     0
  9
$MENU
  1
.
  9
$ELEVATION
 40
0.0
  9
$PELEVATION
 40
0.0
  9
$THICKNESS
 40
0.0
  9
$LIMCHECK
 70
     0
  9
$BLIPMODE
 70
     0
  9
$CHAMFERA
 40
10.0
  9
$CHAMFERB
 40
10.0
  9
$SKPOLY
 70
     0
  9
$TDCREATE
 40
2454640.4138923148
  9
$TDUPDATE
 40
2454641.9152502888
  9
$TDINDWG
 40
0.6496871412
  9
$TDUSRTIMER
 40
0.6496871412
  9
$USRTIMER
 70
     1
  9
$ANGBASE
 50
0.0
  9
$ANGDIR
 70
     0
  9
$PDMODE
 70
     0
  9
$PDSIZE
 40
0.0
  9
$PLINEWID
 40
0.0
  9
$COORDS
 70
     1
  9
$SPLFRAME
 70
     0
  9
$SPLINETYPE
 70
     6
  9
$SPLINESEGS
 70
     8
  9
$ATTDIA
 70
     1
  9
$ATTREQ
 70
     1
  9
$HANDLING
 70
-16383
  9
$HANDSEED
  5
1F93
  9
$SURFTAB1
 70
     6
  9
$SURFTAB2
 70
     6
  9
$SURFTYPE
 70
     6
  9
$SURFU
 70
     6
  9
$SURFV
 70
     6
  9
$UCSNAME
  2

  9
$UCSORG
 10
0.0
 20
0.0
 30
0.0
  9
$UCSXDIR
 10
0.0
 20
-1.0
 30
0.0
  9
$UCSYDIR
 10
0.0
 20
0.0
 30
1.0
  9
$PUCSNAME
  2

  9
$PUCSORG
 10
0.0
 20
0.0
 30
0.0
  9
$PUCSXDIR
 10
1.0
 20
0.0
 30
0.0
  9
$PUCSYDIR
 10
0.0
 20
1.0
 30
0.0
  9
$USERI1
 70
     0
  9
$USERI2
 70
     0
  9
$USERI3
 70
     0
  9
$USERI4
 70
     0
  9
$USERI5
 70
     0
  9
$USERR1
 40
0.0
  9
$USERR2
 40
0.0
  9
$USERR3
 40
0.0
  9
$USERR4
 40
0.0
  9
$USERR5
 40
0.0
  9
$WORLDVIEW
 70
     1
  9
$SHADEDGE
 70
     3
  9
$SHADEDIF
 70
    70
  9
$TILEMODE
 70
     1
  9
$MAXACTVP
 70
    64
  9
$PLIMCHECK
 70
     0
  9
$PEXTMIN
 10
27.844751262664801
 20
20.161249995231621
 30
0.0
  9
$PEXTMAX
 10
250.60276136398309
 20
181.4512499570846
 30
0.0
  9
$PLIMMIN
 10
-3.757080078125
 20
-3.7570831775665279
  9
$PLIMMAX
 10
293.21124267578119
 20
206.21624445915219
  9
$UNITMODE
 70
     0
  9
$VISRETAIN
 70
     1
  9
$PLINEGEN
 70
     0
  9
$PSLTSCALE
 70
     1
  0
ENDSEC
  0
SECTION
  2
TABLES
  0
TABLE
  2
VPORT
 70
    68
  0
VPORT
  2
*ACTIVE
 70
     0
 10
0.0
 20
0.0
 11
1.0
 21
1.0
 12
5.5671032786799008
 22
-0.695428810156983
 13
0.0
 23
0.0
 14
0.01
 24
0.01
 15
1.0
 25
1.0
 16
-1.0
 26
0.0
 36
0.0
 17
0.0
 27
0.0
 37
0.0
 40
38.67553416585298
 41
1.7606679035250461
 42
50.0
 43
0.0
 44
0.0
 50
0.0
 51
0.0
 71
     0
 72
   100
 73
     1
 74
     3
 75
     1
 76
     1
 77
     0
 78
     0
  0
ENDTAB
  0
TABLE
  2
LTYPE
 70
     1
  0
LTYPE
  2
CONTINUOUS
 70
     0
  3
Solid line
 72
    65
 73
     0
 40
0.0
  0
ENDTAB
  0
TABLE
  2
LAYER
 70
    11
  0
LAYER
  2
0
 70
     0
 62
     7
  6
CONTINUOUS
  0
LAYER
  2
DRAWING
 70
     0
 62
    -9
  6
CONTINUOUS
  0
LAYER
  2
HULL2
 70
     0
 62
     4
  6
CONTINUOUS
  0
LAYER
  2
RAILINGS
 70
     0
 62
     1
  6
CONTINUOUS
  0
LAYER
  2
TURRET
 70
     0
 62
     2
  6
CONTINUOUS
  0
LAYER
  2
SLEEVE
 70
     0
 62
     5
  6
CONTINUOUS
  0
LAYER
  2
BARREL
 70
     0
 62
     1
  6
CONTINUOUS
  0
LAYER
  2
GUN_MOUNT
 70
     0
 62
     3
  6
CONTINUOUS
  0
LAYER
  2
BOAT
 70
     0
 62
     6
  6
CONTINUOUS
  0
LAYER
  2
DRAWING2
 70
     0
 62
    -7
  6
CONTINUOUS
  0
ENDTAB
  0
TABLE
  2
STYLE
 70
     1
  0
STYLE
  2
STANDARD
 70
     0
 40
0.0
 41
1.0
 50
0.0
 71
     0
 42
2.5
  3
txt
  4

  0
ENDTAB
  0
TABLE
  2
VIEW
 70
     0
  0
ENDTAB
  0
TABLE
  2
UCS
 70
     0
  0
ENDTAB
  0
TABLE
  2
APPID
 70
     1
  0
APPID
  2
ACAD
 70
     0
  0
ENDTAB
  0
TABLE
  2
DIMSTYLE
 70
     1
  0
DIMSTYLE
  2
ISO-25
 70
     0
  3

  4

  5

  6

  7

 40
1.0
 41
2.5
 42
0.625
 43
3.75
 44
1.25
 45
0.0
 46
0.0
 47
0.0
 48
0.0
140
2.5
141
2.5
142
0.0
143
0.03937007874016
144
1.0
145
0.0
146
1.0
147
0.625
 71
     0
 72
     0
 73
     0
 74
     0
 75
     0
 76
     0
 77
     1
 78
     8
170
     0
171
     3
172
     1
173
     0
174
     0
175
     0
176
     0
177
     0
178
     0
  0
ENDTAB
  0
ENDSEC
  0
SECTION
  2
BLOCKS
  0
BLOCK
  8
0
  2
$MODEL_SPACE
 70
     0
 10
0.0
 20
0.0
 30
0.0
  3
$MODEL_SPACE
  1

  0
ENDBLK
  5
21
  8
0
  0
BLOCK
 67
     1
  8
0
  2
$PAPER_SPACE
 70
     0
 10
0.0
 20
0.0
 30
0.0
  3
$PAPER_SPACE
  1

  0
ENDBLK
  5
1D
 67
     1
  8
0
  0
ENDSEC
  0
SECTION
  2
ENTITIES
  0
3DFACE
  5
1CDE
  8
TURRET
 10
-1.3400000000000001
 20
0.0000000000000107
 30
0.0000000000000004
 11
-0.9475230867899748
 21
-0.9475230867899604
 31
0.0000000000000004
 12
-0.9475230867899748
 22
-0.9475230867899604
 32
1.009999999999998
 13
-1.3400000000000001
 23
0.0000000000000107
 33
1.009999999999998
  0
3DFACE
  5
1CDF
  8
TURRET
 10
-0.9475230867899748
 20
-0.9475230867899604
 30
0.0000000000000004
 11
-0.0000000000000012
 21
-1.3399999999999921
 31
0.0000000000000004
 12
-0.0000000000000012
 22
-1.3399999999999921
 32
1.009999999999998
 13
-0.9475230867899748
 23
-0.9475230867899604
 33
1.009999999999998
  0
3DFACE
  5
1CE0
  8
TURRET
 10
-0.0000000000000012
 20
-1.3399999999999921
 30
0.0000000000000004
 11
0.9475230867899726
 21
-0.9475230867899604
 31
0.0000000000000004
 12
0.9475230867899726
 22
-0.9475230867899604
 32
1.009999999999998
 13
-0.0000000000000012
 23
-1.3399999999999921
 33
1.009999999999998
  0
3DFACE
  5
1CE1
  8
TURRET
 10
0.9475230867899726
 20
-0.9475230867899604
 30
0.0000000000000004
 11
1.339999999999999
 21
0.0000000000000107
 31
0.0000000000000004
 12
1.339999999999999
 22
0.0000000000000107
 32
1.009999999999998
 13
0.9475230867899726
 23
-0.9475230867899604
 33
1.009999999999998
  0
3DFACE
  5
1CE2
  8
TURRET
 10
1.339999999999999
 20
0.0000000000000107
 30
0.0000000000000004
 11
0.947523086789973
 21
0.9475230867899817
 31
0.0000000000000004
 12
0.947523086789973
 22
0.9475230867899817
 32
1.009999999999998
 13
1.339999999999999
 23
0.0000000000000107
 33
1.009999999999998
  0
3DFACE
  5
1CE3
  8
TURRET
 10
0.947523086789973
 20
0.9475230867899817
 30
0.0000000000000004
 11
-0.0000000000000006
 21
1.3400000000000141
 31
0.0000000000000004
 12
-0.0000000000000006
 22
1.3400000000000141
 32
1.009999999999998
 13
0.947523086789973
 23
0.9475230867899817
 33
1.009999999999998
  0
3DFACE
  5
1CE4
  8
TURRET
 10
-0.0000000000000006
 20
1.3400000000000141
 30
0.0000000000000004
 11
-0.9475230867899744
 21
0.9475230867899817
 31
0.0000000000000004
 12
-0.9475230867899744
 22
0.9475230867899817
 32
1.009999999999998
 13
-0.0000000000000006
 23
1.3400000000000141
 33
1.009999999999998
  0
3DFACE
  5
1CE5
  8
TURRET
 10
-0.9475230867899744
 20
0.9475230867899817
 30
0.0000000000000004
 11
-1.3400000000000001
 21
0.0000000000000107
 31
0.0000000000000004
 12
-1.3400000000000001
 22
0.0000000000000107
 32
1.009999999999998
 13
-0.9475230867899744
 23
0.9475230867899817
 33
1.009999999999998
  0
3DFACE
  5
1D6D
  8
TURRET
 10
-0.3900000000000008
 20
1.2500000000000031
 30
1.6799999999999999
 11
-0.2757716446627544
 21
1.2500000000000031
 31
1.955771644662754
 12
-0.2757716446627539
 22
5.3600000000000021
 32
1.955771644662754
 13
-0.3900000000000006
 23
3.0900000000000061
 33
1.6799999999999999
  0
3DFACE
  5
1D6E
  8
TURRET
 10
-0.2757716446627544
 20
1.2500000000000031
 30
1.955771644662754
 11
-0.0000000000000009
 21
1.2500000000000031
 31
2.0699999999999998
 12
-0.0000000000000003
 22
5.4100000000000001
 32
2.0699999999999998
 13
-0.2757716446627539
 23
5.3600000000000021
 33
1.955771644662754
  0
3DFACE
  5
1D6F
  8
TURRET
 10
-0.0000000000000009
 20
1.2500000000000031
 30
2.0699999999999998
 11
0.2757716446627527
 21
1.2500000000000031
 31
1.955771644662754
 12
0.2757716446627532
 22
5.3600000000000021
 32
1.955771644662754
 13
-0.0000000000000003
 23
5.4100000000000001
 33
2.0699999999999998
  0
3DFACE
  5
1D70
  8
TURRET
 10
0.2757716446627527
 20
1.2500000000000031
 30
1.955771644662754
 11
0.3899999999999992
 21
1.2500000000000031
 31
1.6799999999999999
 12
0.3899999999999994
 22
3.0900000000000061
 32
1.6799999999999999
 13
0.2757716446627532
 23
5.3600000000000021
 33
1.955771644662754
  0
3DFACE
  5
1D71
  8
TURRET
 10
0.3899999999999992
 20
1.2500000000000031
 30
1.6799999999999999
 11
0.2757716446627528
 21
1.2500000000000031
 31
1.4042283553372461
 12
0.2757716446627528
 22
1.770000000000006
 32
1.4042283553372461
 13
0.3899999999999993
 23
1.970000000000002
 33
1.6799999999999999
  0
3DFACE
  5
1D74
  8
TURRET
 10
-0.2757716446627543
 20
1.2500000000000031
 30
1.4042283553372461
 11
-0.3900000000000008
 21
1.2500000000000031
 31
1.6799999999999999
 12
-0.3900000000000007
 22
1.970000000000002
 32
1.6799999999999999
 13
-0.2757716446627543
 23
1.770000000000006
 33
1.4042283553372461
  0
3DFACE
  5
1D75
  8
TURRET
 10
-0.3600000000000014
 20
-3.2099999999999902
 30
1.6799999999999999
 11
-0.2545584412271585
 21
-3.2099999999999902
 31
1.425441558772846
 12
-0.1838477631085038
 22
-3.409999999999985
 32
1.496152236891497
 13
-0.2600000000000014
 23
-3.409999999999985
 33
1.6799999999999999
  0
3DFACE
  5
1D76
  8
TURRET
 10
-0.2545584412271585
 20
-3.2099999999999902
 30
1.425441558772846
 11
-0.0000000000000014
 21
-3.2099999999999902
 31
1.3200000000000001
 12
-0.0000000000000014
 22
-3.409999999999985
 32
1.4200000000000019
 13
-0.1838477631085038
 23
-3.409999999999985
 33
1.496152236891497
  0
3DFACE
  5
1D77
  8
TURRET
 10
-0.0000000000000014
 20
-3.2099999999999902
 30
1.3200000000000001
 11
0.2545584412271557
 21
-3.2099999999999902
 31
1.425441558772846
 12
0.1838477631085009
 22
-3.409999999999985
 32
1.496152236891497
 13
-0.0000000000000014
 23
-3.409999999999985
 33
1.4200000000000019
  0
3DFACE
  5
1D78
  8
TURRET
 10
0.2545584412271557
 20
-3.2099999999999902
 30
1.425441558772846
 11
0.3599999999999986
 21
-3.2099999999999902
 31
1.6799999999999999
 12
0.2599999999999986
 22
-3.409999999999985
 32
1.6799999999999999
 13
0.1838477631085009
 23
-3.409999999999985
 33
1.496152236891497
  0
3DFACE
  5
1D79
  8
TURRET
 10
0.3599999999999986
 20
-3.2099999999999902
 30
1.6799999999999999
 11
0.2545584412271558
 21
-3.2099999999999902
 31
1.934558441227153
 12
0.183847763108501
 22
-3.409999999999985
 32
1.863847763108502
 13
0.2599999999999986
 23
-3.409999999999985
 33
1.6799999999999999
  0
3DFACE
  5
1D7A
  8
TURRET
 10
0.2545584412271558
 20
-3.2099999999999902
 30
1.934558441227153
 11
-0.0000000000000013
 21
-3.2099999999999902
 31
2.0399999999999991
 12
-0.0000000000000014
 22
-3.409999999999985
 32
1.9399999999999979
 13
0.183847763108501
 23
-3.409999999999985
 33
1.863847763108502
  0
3DFACE
  5
1D7B
  8
TURRET
 10
-0.0000000000000013
 20
-3.2099999999999902
 30
2.0399999999999991
 11
-0.2545584412271584
 21
-3.2099999999999902
 31
1.934558441227153
 12
-0.1838477631085037
 22
-3.409999999999985
 32
1.863847763108502
 13
-0.0000000000000014
 23
-3.409999999999985
 33
1.9399999999999979
  0
3DFACE
  5
1D7C
  8
TURRET
 10
-0.2545584412271584
 20
-3.2099999999999902
 30
1.934558441227153
 11
-0.3600000000000014
 21
-3.2099999999999902
 31
1.6799999999999999
 12
-0.2600000000000014
 22
-3.409999999999985
 32
1.6799999999999999
 13
-0.1838477631085037
 23
-3.409999999999985
 33
1.863847763108502
  0
3DFACE
  5
1D7D
  8
TURRET
 10
-0.3900000000000014
 20
-3.2099999999999969
 30
1.6799999999999999
 11
-0.2757716446627549
 21
-3.2099999999999969
 31
1.955771644662754
 12
-0.2757716446627549
 22
-2.9199999999999982
 32
1.955771644662754
 13
-0.3900000000000014
 23
-2.9199999999999982
 33
1.6799999999999999
  0
3DFACE
  5
1D7E
  8
TURRET
 10
-0.2757716446627549
 20
-3.2099999999999969
 30
1.955771644662754
 11
-0.0000000000000014
 21
-3.2099999999999969
 31
2.0699999999999998
 12
-0.0000000000000014
 22
-2.9199999999999982
 32
2.0699999999999998
 13
-0.2757716446627549
 23
-2.9199999999999982
 33
1.955771644662754
  0
3DFACE
  5
1D7F
  8
TURRET
 10
-0.0000000000000014
 20
-3.2099999999999969
 30
2.0699999999999998
 11
0.2757716446627521
 21
-3.2099999999999969
 31
1.955771644662754
 12
0.2757716446627522
 22
-2.9199999999999982
 32
1.955771644662754
 13
-0.0000000000000014
 23
-2.9199999999999982
 33
2.0699999999999998
  0
3DFACE
  5
1D80
  8
TURRET
 10
0.2757716446627521
 20
-3.2099999999999969
 30
1.955771644662754
 11
0.3899999999999986
 21
-3.2099999999999969
 31
1.6799999999999999
 12
0.3899999999999987
 22
-2.9199999999999982
 32
1.6799999999999999
 13
0.2757716446627522
 23
-2.9199999999999982
 33
1.955771644662754
  0
3DFACE
  5
1D81
  8
TURRET
 10
0.3899999999999986
 20
-3.2099999999999969
 30
1.6799999999999999
 11
0.2757716446627522
 21
-3.2099999999999969
 31
1.4042283553372461
 12
0.2757716446627523
 22
-2.9199999999999982
 32
1.4042283553372461
 13
0.3899999999999987
 23
-2.9199999999999982
 33
1.6799999999999999
  0
3DFACE
  5
1D82
  8
TURRET
 10
0.2757716446627522
 20
-3.2099999999999969
 30
1.4042283553372461
 11
-0.0000000000000013
 21
-3.2099999999999969
 31
1.2899999999999989
 12
-0.0000000000000013
 22
-2.9199999999999982
 32
1.2899999999999989
 13
0.2757716446627523
 23
-2.9199999999999982
 33
1.4042283553372461
  0
3DFACE
  5
1D83
  8
TURRET
 10
-0.0000000000000013
 20
-3.2099999999999969
 30
1.2899999999999989
 11
-0.2757716446627549
 21
-3.2099999999999969
 31
1.4042283553372461
 12
-0.2757716446627549
 22
-2.9199999999999982
 32
1.4042283553372461
 13
-0.0000000000000013
 23
-2.9199999999999982
 33
1.2899999999999989
  0
3DFACE
  5
1D84
  8
TURRET
 10
-0.2757716446627549
 20
-3.2099999999999969
 30
1.4042283553372461
 11
-0.3900000000000014
 21
-3.2099999999999969
 31
1.6799999999999999
 12
-0.3900000000000014
 22
-2.9199999999999982
 32
1.6799999999999999
 13
-0.2757716446627549
 23
-2.9199999999999982
 33
1.4042283553372461
  0
3DFACE
  5
1D85
  8
TURRET
 10
-0.3600000000000013
 20
-2.9199999999999982
 30
1.6799999999999999
 11
-0.2545584412271584
 21
-2.9199999999999982
 31
1.934558441227153
 12
-0.2545584412271579
 22
1.2500000000000031
 32
1.934558441227153
 13
-0.3600000000000008
 23
1.2500000000000031
 33
1.6799999999999999
  0
3DFACE
  5
1D86
  8
TURRET
 10
-0.2545584412271584
 20
-2.9199999999999982
 30
1.934558441227153
 11
-0.0000000000000014
 21
-2.9199999999999982
 31
2.0399999999999991
 12
-0.0000000000000009
 22
1.2500000000000031
 32
2.0399999999999991
 13
-0.2545584412271579
 23
1.2500000000000031
 33
1.934558441227153
  0
3DFACE
  5
1D87
  8
TURRET
 10
-0.0000000000000014
 20
-2.9199999999999982
 30
2.0399999999999991
 11
0.2545584412271558
 21
-2.9199999999999982
 31
1.934558441227153
 12
0.2545584412271562
 22
1.2500000000000031
 32
1.934558441227153
 13
-0.0000000000000009
 23
1.2500000000000031
 33
2.0399999999999991
  0
3DFACE
  5
1D88
  8
TURRET
 10
0.2545584412271558
 20
-2.9199999999999982
 30
1.934558441227153
 11
0.3599999999999986
 21
-2.9199999999999982
 31
1.6799999999999999
 12
0.3599999999999992
 22
1.2500000000000031
 32
1.6799999999999999
 13
0.2545584412271562
 23
1.2500000000000031
 33
1.934558441227153
  0
3DFACE
  5
1D89
  8
TURRET
 10
0.3599999999999986
 20
-2.9199999999999982
 30
1.6799999999999999
 11
0.2545584412271558
 21
-2.9199999999999982
 31
1.425441558772846
 12
0.2545584412271563
 22
1.2500000000000031
 32
1.425441558772846
 13
0.3599999999999992
 23
1.2500000000000031
 33
1.6799999999999999
  0
3DFACE
  5
1D8A
  8
TURRET
 10
0.2545584412271558
 20
-2.9199999999999982
 30
1.425441558772846
 11
-0.0000000000000013
 21
-2.9199999999999982
 31
1.3200000000000001
 12
-0.0000000000000008
 22
1.2500000000000031
 32
1.3200000000000001
 13
0.2545584412271563
 23
1.2500000000000031
 33
1.425441558772846
  0
3DFACE
  5
1D8B
  8
TURRET
 10
-0.0000000000000013
 20
-2.9199999999999982
 30
1.3200000000000001
 11
-0.2545584412271584
 21
-2.9199999999999982
 31
1.425441558772846
 12
-0.2545584412271578
 22
1.2500000000000031
 32
1.425441558772846
 13
-0.0000000000000008
 23
1.2500000000000031
 33
1.3200000000000001
  0
3DFACE
  5
1D8C
  8
TURRET
 10
-0.2545584412271584
 20
-2.9199999999999982
 30
1.425441558772846
 11
-0.3600000000000013
 21
-2.9199999999999982
 31
1.6799999999999999
 12
-0.3600000000000008
 22
1.2500000000000031
 32
1.6799999999999999
 13
-0.2545584412271578
 23
1.2500000000000031
 33
1.425441558772846
  0
3DFACE
  5
1D92
  8
TURRET
 10
0.2757716446627528
 20
1.2500000000000031
 30
1.4042283553372461
 11
-0.0000000000000008
 21
1.2500000000000031
 31
1.2899999999999989
 12
-0.0000000000000007
 22
1.6200000000000001
 32
1.2899999999999989
 13
0.2757716446627528
 23
1.770000000000006
 33
1.4042283553372461
  0
3DFACE
  5
1D93
  8
TURRET
 10
-0.0000000000000008
 20
1.2500000000000031
 30
1.2899999999999989
 11
-0.2757716446627543
 21
1.2500000000000031
 31
1.4042283553372461
 12
-0.2757716446627543
 22
1.770000000000006
 32
1.4042283553372461
 13
-0.0000000000000007
 23
1.6200000000000001
 33
1.2899999999999989
  0
3DFACE
  5
1D96
  8
TURRET
 10
-0.2757716446627543
 20
1.6200000000000001
 30
1.955771644662754
 11
-0.0000000000000008
 21
1.6200000000000001
 31
2.0699999999999998
 12
0.2757716446627527
 22
1.6200000000000001
 32
1.955771644662754
 13
-0.3900000000000008
 23
1.6200000000000001
 33
1.6799999999999999
  0
3DFACE
  5
1D97
  8
TURRET
 10
-0.3900000000000007
 20
1.6200000000000001
 30
1.6799999999999999
 11
0.2757716446627527
 21
1.6200000000000001
 31
1.955771644662754
 12
0.3899999999999992
 22
1.6200000000000001
 32
1.6799999999999999
 13
-0.2757716446627543
 23
1.6200000000000001
 33
1.4042283553372461
  0
3DFACE
  5
1D98
  8
TURRET
 10
-0.2757716446627541
 20
1.6200000000000001
 30
1.4042283553372461
 11
0.3899999999999992
 21
1.6200000000000001
 31
1.6799999999999999
 12
0.2757716446627528
 22
1.6200000000000001
 32
1.4042283553372461
 13
-0.0000000000000007
 23
1.6200000000000001
 33
1.2899999999999989
  0
3DFACE
  5
1D99
  8
TURRET
 10
-0.2757716446627544
 20
1.2500000000000031
 30
1.955771644662754
 11
0.3899999999999992
 21
1.2500000000000031
 31
1.6799999999999999
 12
0.2757716446627527
 22
1.2500000000000031
 32
1.955771644662754
 13
-0.0000000000000009
 23
1.2500000000000031
 33
2.0699999999999998
  0
3DFACE
  5
1D9A
  8
TURRET
 10
-0.3900000000000008
 20
1.2500000000000031
 30
1.6799999999999999
 11
0.2757716446627528
 21
1.2500000000000031
 31
1.4042283553372461
 12
0.3899999999999991
 22
1.2500000000000031
 32
1.6799999999999999
 13
-0.2757716446627544
 23
1.2500000000000031
 33
1.955771644662754
  0
3DFACE
  5
1D9B
  8
TURRET
 10
-0.2757716446627543
 20
1.2500000000000031
 30
1.4042283553372461
 11
-0.0000000000000007
 21
1.2500000000000031
 31
1.2899999999999989
 12
0.2757716446627528
 22
1.2500000000000031
 32
1.4042283553372461
 13
-0.3900000000000007
 23
1.2500000000000031
 33
1.6799999999999999
  0
3DFACE
  5
1D9C
  8
TURRET
 10
-0.3900000000000014
 20
-3.2099999999999969
 30
1.6799999999999999
 11
0.2757716446627523
 21
-3.2099999999999969
 31
1.4042283553372461
 12
0.3899999999999986
 22
-3.2099999999999969
 32
1.6799999999999999
 13
-0.2757716446627549
 23
-3.2099999999999969
 33
1.955771644662754
  0
3DFACE
  5
1D9D
  8
TURRET
 10
-0.2757716446627549
 20
-3.2099999999999969
 30
1.4042283553372461
 11
-0.0000000000000013
 21
-3.2099999999999969
 31
1.2899999999999989
 12
0.2757716446627523
 22
-3.2099999999999969
 32
1.4042283553372461
 13
-0.3900000000000013
 23
-3.2099999999999969
 33
1.6799999999999999
  0
3DFACE
  5
1D9E
  8
TURRET
 10
-0.2757716446627549
 20
-3.2099999999999969
 30
1.955771644662754
 11
0.3899999999999986
 21
-3.2099999999999969
 31
1.6799999999999999
 12
0.2757716446627521
 22
-3.2099999999999969
 32
1.955771644662754
 13
-0.0000000000000014
 23
-3.2099999999999969
 33
2.0699999999999998
  0
3DFACE
  5
1D9F
  8
TURRET
 10
-0.3900000000000012
 20
-2.9199999999999982
 30
1.6799999999999999
 11
0.2757716446627522
 21
-2.9199999999999982
 31
1.955771644662754
 12
0.3899999999999987
 22
-2.9199999999999982
 32
1.6799999999999999
 13
-0.2757716446627549
 23
-2.9199999999999982
 33
1.4042283553372461
  0
3DFACE
  5
1DA0
  8
TURRET
 10
-0.2757716446627547
 20
-2.9199999999999982
 30
1.4042283553372461
 11
0.3899999999999987
 21
-2.9199999999999982
 31
1.6799999999999999
 12
0.2757716446627523
 22
-2.9199999999999982
 32
1.4042283553372461
 13
-0.0000000000000013
 23
-2.9199999999999982
 33
1.2899999999999989
  0
3DFACE
  5
1DA1
  8
TURRET
 10
-0.2757716446627549
 20
-2.9199999999999982
 30
1.955771644662754
 11
-0.0000000000000014
 21
-2.9199999999999982
 31
2.0699999999999998
 12
0.2757716446627522
 22
-2.9199999999999982
 32
1.955771644662754
 13
-0.3900000000000014
 23
-2.9199999999999982
 33
1.6799999999999999
  0
3DFACE
  5
1DA2
  8
TURRET
 10
-0.0000000000000013
 20
-3.409999999999985
 30
1.9399999999999979
 11
-0.1838477631085037
 21
-3.409999999999985
 31
1.863847763108502
 12
-0.2600000000000014
 22
-3.409999999999985
 32
1.6799999999999999
 13
0.183847763108501
 23
-3.409999999999985
 33
1.863847763108502
  0
3DFACE
  5
1DA3
  8
TURRET
 10
0.1838477631085009
 20
-3.409999999999985
 30
1.863847763108502
 11
-0.2600000000000014
 21
-3.409999999999985
 31
1.6799999999999999
 12
-0.1838477631085038
 22
-3.409999999999985
 32
1.496152236891497
 13
0.2599999999999986
 23
-3.409999999999985
 33
1.6799999999999999
  0
3DFACE
  5
1DA4
  8
TURRET
 10
0.2599999999999986
 20
-3.409999999999985
 30
1.6799999999999999
 11
-0.1838477631085038
 21
-3.409999999999985
 31
1.496152236891497
 12
-0.0000000000000014
 22
-3.409999999999985
 32
1.4200000000000019
 13
0.1838477631085009
 23
-3.409999999999985
 33
1.496152236891497
  0
3DFACE
  5
1DD6
  8
TURRET
 10
1.1157716446627519
 20
1.2500000000000031
 30
1.955771644662754
 11
1.2299999999999991
 21
1.2500000000000031
 31
1.6799999999999999
 12
1.2299999999999991
 22
3.0900000000000061
 32
1.6799999999999999
 13
1.115771644662753
 23
5.3600000000000021
 33
1.955771644662754
  0
3DFACE
  5
1DD7
  8
TURRET
 10
0.4499999999999992
 20
1.2500000000000031
 30
1.6799999999999999
 11
0.5642283553372455
 21
1.2500000000000031
 31
1.955771644662754
 12
0.564228355337246
 22
5.3600000000000021
 32
1.955771644662754
 13
0.4499999999999995
 23
3.0900000000000061
 33
1.6799999999999999
  0
3DFACE
  5
1DD8
  8
TURRET
 10
1.023847763108501
 20
-3.409999999999985
 30
1.863847763108502
 11
0.5799999999999985
 21
-3.409999999999985
 31
1.6799999999999999
 12
0.6561522368914962
 22
-3.409999999999985
 32
1.496152236891497
 13
1.0999999999999981
 23
-3.409999999999985
 33
1.6799999999999999
  0
3DFACE
  5
1DD9
  8
TURRET
 10
0.8399999999999984
 20
-3.409999999999985
 30
1.9399999999999979
 11
0.6561522368914963
 21
-3.409999999999985
 31
1.863847763108502
 12
0.5799999999999985
 22
-3.409999999999985
 32
1.6799999999999999
 13
1.023847763108501
 23
-3.409999999999985
 33
1.863847763108502
  0
3DFACE
  5
1DDA
  8
TURRET
 10
0.564228355337245
 20
-2.9199999999999982
 30
1.955771644662754
 11
0.8399999999999986
 21
-2.9199999999999982
 31
2.0699999999999998
 12
1.1157716446627519
 22
-2.9199999999999982
 32
1.955771644662754
 13
0.4499999999999988
 23
-2.9199999999999982
 33
1.6799999999999999
  0
3DFACE
  5
1DDB
  8
TURRET
 10
0.4499999999999988
 20
-2.9199999999999982
 30
1.6799999999999999
 11
1.1157716446627519
 21
-2.9199999999999982
 31
1.955771644662754
 12
1.229999999999998
 22
-2.9199999999999982
 32
1.6799999999999999
 13
0.5642283553372453
 23
-2.9199999999999982
 33
1.4042283553372461
  0
3DFACE
  5
1DDC
  8
TURRET
 10
0.564228355337245
 20
-3.2099999999999969
 30
1.955771644662754
 11
1.229999999999998
 21
-3.2099999999999969
 31
1.6799999999999999
 12
1.1157716446627519
 22
-3.2099999999999969
 32
1.955771644662754
 13
0.8399999999999986
 23
-3.2099999999999969
 33
2.0699999999999998
  0
3DFACE
  5
1DDD
  8
TURRET
 10
0.4499999999999987
 20
-3.2099999999999969
 30
1.6799999999999999
 11
1.1157716446627519
 21
-3.2099999999999969
 31
1.4042283553372461
 12
1.229999999999998
 22
-3.2099999999999969
 32
1.6799999999999999
 13
0.564228355337245
 23
-3.2099999999999969
 33
1.955771644662754
  0
3DFACE
  5
1DDE
  8
TURRET
 10
0.4499999999999992
 20
1.2500000000000031
 30
1.6799999999999999
 11
1.1157716446627519
 21
1.2500000000000031
 31
1.4042283553372461
 12
1.2299999999999991
 22
1.2500000000000031
 32
1.6799999999999999
 13
0.5642283553372455
 23
1.2500000000000031
 33
1.955771644662754
  0
3DFACE
  5
1DDF
  8
TURRET
 10
0.5642283553372455
 20
1.2500000000000031
 30
1.955771644662754
 11
1.2299999999999991
 21
1.2500000000000031
 31
1.6799999999999999
 12
1.1157716446627519
 22
1.2500000000000031
 32
1.955771644662754
 13
0.8399999999999991
 23
1.2500000000000031
 33
2.0699999999999998
  0
3DFACE
  5
1DE0
  8
TURRET
 10
0.4499999999999993
 20
1.6200000000000001
 30
1.6799999999999999
 11
1.1157716446627519
 21
1.6200000000000001
 31
1.955771644662754
 12
1.2299999999999991
 22
1.6200000000000001
 32
1.6799999999999999
 13
0.5642283553372458
 23
1.6200000000000001
 33
1.4042283553372461
  0
3DFACE
  5
1DE1
  8
TURRET
 10
0.5642283553372457
 20
1.6200000000000001
 30
1.955771644662754
 11
0.8399999999999991
 21
1.6200000000000001
 31
2.0699999999999998
 12
1.1157716446627519
 22
1.6200000000000001
 32
1.955771644662754
 13
0.4499999999999993
 23
1.6200000000000001
 33
1.6799999999999999
  0
3DFACE
  5
1DE2
  8
TURRET
 10
1.094558441227155
 20
-2.9199999999999982
 30
1.934558441227153
 11
1.199999999999998
 21
-2.9199999999999982
 31
1.6799999999999999
 12
1.1999999999999991
 22
1.2500000000000031
 32
1.6799999999999999
 13
1.0945584412271561
 23
1.2500000000000031
 33
1.934558441227153
  0
3DFACE
  5
1DE3
  8
TURRET
 10
0.4799999999999986
 20
-2.9199999999999982
 30
1.6799999999999999
 11
0.5854415587728417
 21
-2.9199999999999982
 31
1.934558441227153
 12
0.585441558772842
 22
1.2500000000000031
 32
1.934558441227153
 13
0.479999999999999
 23
1.2500000000000031
 33
1.6799999999999999
  0
3DFACE
  5
1DE4
  8
TURRET
 10
1.1157716446627519
 20
-3.2099999999999969
 30
1.955771644662754
 11
1.229999999999998
 21
-3.2099999999999969
 31
1.6799999999999999
 12
1.229999999999998
 22
-2.9199999999999982
 32
1.6799999999999999
 13
1.1157716446627519
 23
-2.9199999999999982
 33
1.955771644662754
  0
3DFACE
  5
1DE5
  8
TURRET
 10
0.4499999999999987
 20
-3.2099999999999969
 30
1.6799999999999999
 11
0.564228355337245
 21
-3.2099999999999969
 31
1.955771644662754
 12
0.564228355337245
 22
-2.9199999999999982
 32
1.955771644662754
 13
0.4499999999999988
 23
-2.9199999999999982
 33
1.6799999999999999
  0
3DFACE
  5
1DE6
  8
TURRET
 10
0.5854415587728417
 20
-3.2099999999999902
 30
1.934558441227153
 11
0.4799999999999985
 21
-3.2099999999999902
 31
1.6799999999999999
 12
0.5799999999999985
 22
-3.409999999999985
 32
1.6799999999999999
 13
0.6561522368914963
 23
-3.409999999999985
 33
1.863847763108502
  0
3DFACE
  5
1DE7
  8
TURRET
 10
1.199999999999998
 20
-3.2099999999999902
 30
1.6799999999999999
 11
1.094558441227155
 21
-3.2099999999999902
 31
1.934558441227153
 12
1.023847763108501
 22
-3.409999999999985
 32
1.863847763108502
 13
1.0999999999999981
 23
-3.409999999999985
 33
1.6799999999999999
  0
3DFACE
  5
1DE8
  8
TURRET
 10
0.5854415587728417
 20
-2.9199999999999982
 30
1.425441558772846
 11
0.4799999999999986
 21
-2.9199999999999982
 31
1.6799999999999999
 12
0.479999999999999
 22
1.2500000000000031
 32
1.6799999999999999
 13
0.585441558772842
 23
1.2500000000000031
 33
1.425441558772846
  0
3DFACE
  5
1DE9
  8
TURRET
 10
0.8399999999999986
 20
-2.9199999999999982
 30
1.3200000000000001
 11
0.5854415587728417
 21
-2.9199999999999982
 31
1.425441558772846
 12
0.585441558772842
 22
1.2500000000000031
 32
1.425441558772846
 13
0.8399999999999991
 23
1.2500000000000031
 33
1.3200000000000001
  0
3DFACE
  5
1DEA
  8
TURRET
 10
1.094558441227155
 20
-2.9199999999999982
 30
1.425441558772846
 11
0.8399999999999986
 21
-2.9199999999999982
 31
1.3200000000000001
 12
0.8399999999999991
 22
1.2500000000000031
 32
1.3200000000000001
 13
1.0945584412271561
 23
1.2500000000000031
 33
1.425441558772846
  0
3DFACE
  5
1DEB
  8
TURRET
 10
1.199999999999998
 20
-2.9199999999999982
 30
1.6799999999999999
 11
1.094558441227155
 21
-2.9199999999999982
 31
1.425441558772846
 12
1.0945584412271561
 22
1.2500000000000031
 32
1.425441558772846
 13
1.1999999999999991
 23
1.2500000000000031
 33
1.6799999999999999
  0
3DFACE
  5
1DEC
  8
TURRET
 10
1.1157716446627519
 20
1.2500000000000031
 30
1.4042283553372461
 11
0.8399999999999991
 21
1.2500000000000031
 31
1.2899999999999989
 12
0.8399999999999991
 22
1.6200000000000001
 32
1.2899999999999989
 13
1.1157716446627519
 23
1.770000000000006
 33
1.4042283553372461
  0
3DFACE
  5
1DED
  8
TURRET
 10
0.5642283553372458
 20
1.2500000000000031
 30
1.4042283553372461
 11
0.8399999999999991
 21
1.2500000000000031
 31
1.2899999999999989
 12
1.1157716446627519
 22
1.2500000000000031
 32
1.4042283553372461
 13
0.4499999999999992
 23
1.2500000000000031
 33
1.6799999999999999
  0
3DFACE
  5
1DEE
  8
TURRET
 10
0.5642283553372458
 20
1.6200000000000001
 30
1.4042283553372461
 11
1.2299999999999991
 21
1.6200000000000001
 31
1.6799999999999999
 12
1.1157716446627519
 22
1.6200000000000001
 32
1.4042283553372461
 13
0.8399999999999991
 23
1.6200000000000001
 33
1.2899999999999989
  0
3DFACE
  5
1DEF
  8
TURRET
 10
1.2299999999999991
 20
1.2500000000000031
 30
1.6799999999999999
 11
1.1157716446627519
 21
1.2500000000000031
 31
1.4042283553372461
 12
1.1157716446627519
 22
1.770000000000006
 32
1.4042283553372461
 13
1.2299999999999991
 23
1.970000000000002
 33
1.6799999999999999
  0
3DFACE
  5
1DF0
  8
TURRET
 10
0.8399999999999991
 20
1.2500000000000031
 30
1.2899999999999989
 11
0.5642283553372458
 21
1.2500000000000031
 31
1.4042283553372461
 12
0.5642283553372458
 22
1.770000000000006
 32
1.4042283553372461
 13
0.8399999999999991
 23
1.6200000000000001
 33
1.2899999999999989
  0
3DFACE
  5
1DF1
  8
TURRET
 10
0.5642283553372458
 20
1.2500000000000031
 30
1.4042283553372461
 11
0.4499999999999992
 21
1.2500000000000031
 31
1.6799999999999999
 12
0.4499999999999994
 22
1.970000000000002
 32
1.6799999999999999
 13
0.5642283553372458
 23
1.770000000000006
 33
1.4042283553372461
  0
3DFACE
  5
1DF2
  8
TURRET
 10
1.0999999999999981
 20
-3.409999999999985
 30
1.6799999999999999
 11
0.6561522368914962
 21
-3.409999999999985
 31
1.496152236891497
 12
0.8399999999999984
 22
-3.409999999999985
 32
1.4200000000000019
 13
1.0238477631084999
 23
-3.409999999999985
 33
1.496152236891497
  0
3DFACE
  5
1DF3
  8
TURRET
 10
0.5642283553372453
 20
-2.9199999999999982
 30
1.4042283553372461
 11
1.229999999999998
 21
-2.9199999999999982
 31
1.6799999999999999
 12
1.1157716446627519
 22
-2.9199999999999982
 32
1.4042283553372461
 13
0.8399999999999986
 23
-2.9199999999999982
 33
1.2899999999999989
  0
3DFACE
  5
1DF4
  8
TURRET
 10
0.5642283553372453
 20
-3.2099999999999969
 30
1.4042283553372461
 11
0.8399999999999986
 21
-3.2099999999999969
 31
1.2899999999999989
 12
1.1157716446627519
 22
-3.2099999999999969
 32
1.4042283553372461
 13
0.4499999999999987
 23
-3.2099999999999969
 33
1.6799999999999999
  0
3DFACE
  5
1DF5
  8
TURRET
 10
1.1157716446627519
 20
-3.2099999999999969
 30
1.4042283553372461
 11
0.8399999999999986
 21
-3.2099999999999969
 31
1.2899999999999989
 12
0.8399999999999986
 22
-2.9199999999999982
 32
1.2899999999999989
 13
1.1157716446627519
 23
-2.9199999999999982
 33
1.4042283553372461
  0
3DFACE
  5
1DF6
  8
TURRET
 10
1.094558441227155
 20
-3.2099999999999902
 30
1.425441558772846
 11
1.199999999999998
 21
-3.2099999999999902
 31
1.6799999999999999
 12
1.0999999999999981
 22
-3.409999999999985
 32
1.6799999999999999
 13
1.0238477631084999
 23
-3.409999999999985
 33
1.496152236891497
  0
3DFACE
  5
1DF7
  8
TURRET
 10
0.8399999999999986
 20
-3.2099999999999902
 30
1.3200000000000001
 11
1.094558441227155
 21
-3.2099999999999902
 31
1.425441558772846
 12
1.0238477631084999
 22
-3.409999999999985
 32
1.496152236891497
 13
0.8399999999999984
 23
-3.409999999999985
 33
1.4200000000000019
  0
3DFACE
  5
1DF8
  8
TURRET
 10
1.229999999999998
 20
-3.2099999999999969
 30
1.6799999999999999
 11
1.1157716446627519
 21
-3.2099999999999969
 31
1.4042283553372461
 12
1.1157716446627519
 22
-2.9199999999999982
 32
1.4042283553372461
 13
1.229999999999998
 23
-2.9199999999999982
 33
1.6799999999999999
  0
3DFACE
  5
1DF9
  8
TURRET
 10
0.5642283553372453
 20
-3.2099999999999969
 30
1.4042283553372461
 11
0.4499999999999987
 21
-3.2099999999999969
 31
1.6799999999999999
 12
0.4499999999999988
 22
-2.9199999999999982
 32
1.6799999999999999
 13
0.5642283553372453
 23
-2.9199999999999982
 33
1.4042283553372461
  0
3DFACE
  5
1DFA
  8
TURRET
 10
0.8399999999999986
 20
-3.2099999999999969
 30
1.2899999999999989
 11
0.5642283553372453
 21
-3.2099999999999969
 31
1.4042283553372461
 12
0.5642283553372453
 22
-2.9199999999999982
 32
1.4042283553372461
 13
0.8399999999999986
 23
-2.9199999999999982
 33
1.2899999999999989
  0
3DFACE
  5
1DFB
  8
TURRET
 10
0.5854415587728417
 20
-3.2099999999999902
 30
1.425441558772846
 11
0.8399999999999986
 21
-3.2099999999999902
 31
1.3200000000000001
 12
0.8399999999999984
 22
-3.409999999999985
 32
1.4200000000000019
 13
0.6561522368914962
 23
-3.409999999999985
 33
1.496152236891497
  0
3DFACE
  5
1DFC
  8
TURRET
 10
0.4799999999999985
 20
-3.2099999999999902
 30
1.6799999999999999
 11
0.5854415587728417
 21
-3.2099999999999902
 31
1.425441558772846
 12
0.6561522368914962
 22
-3.409999999999985
 32
1.496152236891497
 13
0.5799999999999985
 23
-3.409999999999985
 33
1.6799999999999999
  0
3DFACE
  5
1DFD
  8
TURRET
 10
0.8399999999999986
 20
-2.9199999999999982
 30
2.0399999999999991
 11
1.094558441227155
 21
-2.9199999999999982
 31
1.934558441227153
 12
1.0945584412271561
 22
1.2500000000000031
 32
1.934558441227153
 13
0.8399999999999991
 23
1.2500000000000031
 33
2.0399999999999991
  0
3DFACE
  5
1DFE
  8
TURRET
 10
0.5854415587728417
 20
-2.9199999999999982
 30
1.934558441227153
 11
0.8399999999999986
 21
-2.9199999999999982
 31
2.0399999999999991
 12
0.8399999999999991
 22
1.2500000000000031
 32
2.0399999999999991
 13
0.585441558772842
 23
1.2500000000000031
 33
1.934558441227153
  0
3DFACE
  5
1DFF
  8
TURRET
 10
0.8399999999999991
 20
1.2500000000000031
 30
2.0699999999999998
 11
1.1157716446627519
 21
1.2500000000000031
 31
1.955771644662754
 12
1.115771644662753
 22
5.3600000000000021
 32
1.955771644662754
 13
0.8399999999999996
 23
5.4100000000000001
 33
2.0699999999999998
  0
3DFACE
  5
1E00
  8
TURRET
 10
0.5642283553372455
 20
1.2500000000000031
 30
1.955771644662754
 11
0.8399999999999991
 21
1.2500000000000031
 31
2.0699999999999998
 12
0.8399999999999996
 22
5.4100000000000001
 32
2.0699999999999998
 13
0.564228355337246
 23
5.3600000000000021
 33
1.955771644662754
  0
3DFACE
  5
1E01
  8
TURRET
 10
0.8399999999999986
 20
-3.2099999999999969
 30
2.0699999999999998
 11
1.1157716446627519
 21
-3.2099999999999969
 31
1.955771644662754
 12
1.1157716446627519
 22
-2.9199999999999982
 32
1.955771644662754
 13
0.8399999999999986
 23
-2.9199999999999982
 33
2.0699999999999998
  0
3DFACE
  5
1E02
  8
TURRET
 10
1.094558441227155
 20
-3.2099999999999902
 30
1.934558441227153
 11
0.8399999999999986
 21
-3.2099999999999902
 31
2.0399999999999991
 12
0.8399999999999984
 22
-3.409999999999985
 32
1.9399999999999979
 13
1.023847763108501
 23
-3.409999999999985
 33
1.863847763108502
  0
3DFACE
  5
1E03
  8
TURRET
 10
0.564228355337245
 20
-3.2099999999999969
 30
1.955771644662754
 11
0.8399999999999986
 21
-3.2099999999999969
 31
2.0699999999999998
 12
0.8399999999999986
 22
-2.9199999999999982
 32
2.0699999999999998
 13
0.564228355337245
 23
-2.9199999999999982
 33
1.955771644662754
  0
3DFACE
  5
1E04
  8
TURRET
 10
0.8399999999999986
 20
-3.2099999999999902
 30
2.0399999999999991
 11
0.5854415587728417
 21
-3.2099999999999902
 31
1.934558441227153
 12
0.6561522368914963
 22
-3.409999999999985
 32
1.863847763108502
 13
0.8399999999999984
 23
-3.409999999999985
 33
1.9399999999999979
  0
3DFACE
  5
1E05
  8
TURRET
 10
-0.5642283553372472
 20
1.2500000000000031
 30
1.955771644662754
 11
-0.4500000000000007
 21
1.2500000000000031
 31
1.6799999999999999
 12
-0.4500000000000005
 22
3.0900000000000061
 32
1.6799999999999999
 13
-0.5642283553372467
 23
5.3600000000000021
 33
1.955771644662754
  0
3DFACE
  5
1E06
  8
TURRET
 10
-1.23
 20
1.2500000000000031
 30
1.6799999999999999
 11
-1.1157716446627539
 21
1.2500000000000031
 31
1.955771644662754
 12
-1.115771644662753
 22
5.3600000000000021
 32
1.955771644662754
 13
-1.23
 23
3.0900000000000061
 33
1.6799999999999999
  0
3DFACE
  5
1E07
  8
TURRET
 10
-0.6561522368914992
 20
-3.409999999999985
 30
1.863847763108502
 11
-1.100000000000001
 21
-3.409999999999985
 31
1.6799999999999999
 12
-1.023847763108503
 22
-3.409999999999985
 32
1.496152236891497
 13
-0.5800000000000014
 23
-3.409999999999985
 33
1.6799999999999999
  0
3DFACE
  5
1E08
  8
TURRET
 10
-0.8400000000000014
 20
-3.409999999999985
 30
1.9399999999999979
 11
-1.023847763108503
 21
-3.409999999999985
 31
1.863847763108502
 12
-1.100000000000001
 22
-3.409999999999985
 32
1.6799999999999999
 13
-0.656152236891499
 23
-3.409999999999985
 33
1.863847763108502
  0
3DFACE
  5
1E09
  8
TURRET
 10
-1.1157716446627539
 20
-2.9199999999999982
 30
1.955771644662754
 11
-0.8400000000000012
 21
-2.9199999999999982
 31
2.0699999999999998
 12
-0.5642283553372477
 22
-2.9199999999999982
 32
1.955771644662754
 13
-1.2300000000000011
 23
-2.9199999999999982
 33
1.6799999999999999
  0
3DFACE
  5
1E0A
  8
TURRET
 10
-1.2300000000000011
 20
-2.9199999999999982
 30
1.6799999999999999
 11
-0.5642283553372477
 21
-2.9199999999999982
 31
1.955771644662754
 12
-0.4500000000000012
 22
-2.9199999999999982
 32
1.6799999999999999
 13
-1.1157716446627539
 23
-2.9199999999999982
 33
1.4042283553372461
  0
3DFACE
  5
1E0B
  8
TURRET
 10
-1.1157716446627539
 20
-3.2099999999999969
 30
1.955771644662754
 11
-0.4500000000000015
 21
-3.2099999999999969
 31
1.6799999999999999
 12
-0.564228355337248
 22
-3.2099999999999969
 32
1.955771644662754
 13
-0.8400000000000012
 23
-3.2099999999999969
 33
2.0699999999999998
  0
3DFACE
  5
1E0C
  8
TURRET
 10
-1.2300000000000011
 20
-3.2099999999999969
 30
1.6799999999999999
 11
-0.5642283553372477
 21
-3.2099999999999969
 31
1.4042283553372461
 12
-0.4500000000000015
 22
-3.2099999999999969
 32
1.6799999999999999
 13
-1.1157716446627539
 23
-3.2099999999999969
 33
1.955771644662754
  0
3DFACE
  5
1E0D
  8
TURRET
 10
-1.23
 20
1.2500000000000031
 30
1.6799999999999999
 11
-0.5642283553372472
 21
1.2500000000000031
 31
1.4042283553372461
 12
-0.4500000000000009
 22
1.2500000000000031
 32
1.6799999999999999
 13
-1.1157716446627539
 23
1.2500000000000031
 33
1.955771644662754
  0
3DFACE
  5
1E0E
  8
TURRET
 10
-1.1157716446627539
 20
1.2500000000000031
 30
1.955771644662754
 11
-0.4500000000000007
 21
1.2500000000000031
 31
1.6799999999999999
 12
-0.5642283553372472
 22
1.2500000000000031
 32
1.955771644662754
 13
-0.8400000000000009
 23
1.2500000000000031
 33
2.0699999999999998
  0
3DFACE
  5
1E0F
  8
TURRET
 10
-1.23
 20
1.6200000000000001
 30
1.6799999999999999
 11
-0.5642283553372472
 21
1.6200000000000001
 31
1.955771644662754
 12
-0.4500000000000007
 22
1.6200000000000001
 32
1.6799999999999999
 13
-1.1157716446627539
 23
1.6200000000000001
 33
1.4042283553372461
  0
3DFACE
  5
1E10
  8
TURRET
 10
-1.1157716446627539
 20
1.6200000000000001
 30
1.955771644662754
 11
-0.8400000000000008
 21
1.6200000000000001
 31
2.0699999999999998
 12
-0.5642283553372472
 22
1.6200000000000001
 32
1.955771644662754
 13
-1.23
 23
1.6200000000000001
 33
1.6799999999999999
  0
3DFACE
  5
1E11
  8
TURRET
 10
-0.5854415587728443
 20
-2.9199999999999982
 30
1.934558441227153
 11
-0.4800000000000014
 21
-2.9199999999999982
 31
1.6799999999999999
 12
-0.480000000000001
 22
1.2500000000000031
 32
1.6799999999999999
 13
-0.5854415587728438
 23
1.2500000000000031
 33
1.934558441227153
  0
3DFACE
  5
1E12
  8
TURRET
 10
-1.2000000000000011
 20
-2.9199999999999982
 30
1.6799999999999999
 11
-1.0945584412271581
 21
-2.9199999999999982
 31
1.934558441227153
 12
-1.0945584412271581
 22
1.2500000000000031
 32
1.934558441227153
 13
-1.2
 23
1.2500000000000031
 33
1.6799999999999999
  0
3DFACE
  5
1E13
  8
TURRET
 10
-0.5642283553372477
 20
-3.2099999999999969
 30
1.955771644662754
 11
-0.4500000000000013
 21
-3.2099999999999969
 31
1.6799999999999999
 12
-0.4500000000000012
 22
-2.9199999999999982
 32
1.6799999999999999
 13
-0.5642283553372477
 23
-2.9199999999999982
 33
1.955771644662754
  0
3DFACE
  5
1E14
  8
TURRET
 10
-1.2300000000000011
 20
-3.2099999999999969
 30
1.6799999999999999
 11
-1.1157716446627539
 21
-3.2099999999999969
 31
1.955771644662754
 12
-1.1157716446627539
 22
-2.9199999999999982
 32
1.955771644662754
 13
-1.2300000000000011
 23
-2.9199999999999982
 33
1.6799999999999999
  0
3DFACE
  5
1E15
  8
TURRET
 10
-1.0945584412271581
 20
-3.2099999999999902
 30
1.934558441227153
 11
-1.2000000000000011
 21
-3.2099999999999902
 31
1.6799999999999999
 12
-1.100000000000001
 22
-3.409999999999985
 32
1.6799999999999999
 13
-1.023847763108503
 23
-3.409999999999985
 33
1.863847763108502
  0
3DFACE
  5
1E16
  8
TURRET
 10
-0.4800000000000015
 20
-3.2099999999999902
 30
1.6799999999999999
 11
-0.5854415587728443
 21
-3.2099999999999902
 31
1.934558441227153
 12
-0.656152236891499
 22
-3.409999999999985
 32
1.863847763108502
 13
-0.5800000000000014
 23
-3.409999999999985
 33
1.6799999999999999
  0
3DFACE
  5
1E17
  8
TURRET
 10
-1.0945584412271581
 20
-2.9199999999999982
 30
1.425441558772846
 11
-1.2000000000000011
 21
-2.9199999999999982
 31
1.6799999999999999
 12
-1.2
 22
1.2500000000000031
 32
1.6799999999999999
 13
-1.0945584412271581
 23
1.2500000000000031
 33
1.425441558772846
  0
3DFACE
  5
1E18
  8
TURRET
 10
-0.8400000000000012
 20
-2.9199999999999982
 30
1.3200000000000001
 11
-1.0945584412271581
 21
-2.9199999999999982
 31
1.425441558772846
 12
-1.0945584412271581
 22
1.2500000000000031
 32
1.425441558772846
 13
-0.8400000000000009
 23
1.2500000000000031
 33
1.3200000000000001
  0
3DFACE
  5
1E19
  8
TURRET
 10
-0.5854415587728443
 20
-2.9199999999999982
 30
1.425441558772846
 11
-0.8400000000000012
 21
-2.9199999999999982
 31
1.3200000000000001
 12
-0.8400000000000009
 22
1.2500000000000031
 32
1.3200000000000001
 13
-0.5854415587728438
 23
1.2500000000000031
 33
1.425441558772846
  0
3DFACE
  5
1E1A
  8
TURRET
 10
-0.4800000000000014
 20
-2.9199999999999982
 30
1.6799999999999999
 11
-0.5854415587728443
 21
-2.9199999999999982
 31
1.425441558772846
 12
-0.5854415587728438
 22
1.2500000000000031
 32
1.425441558772846
 13
-0.480000000000001
 23
1.2500000000000031
 33
1.6799999999999999
  0
3DFACE
  5
1E1B
  8
TURRET
 10
-0.5642283553372472
 20
1.2500000000000031
 30
1.4042283553372461
 11
-0.8400000000000009
 21
1.2500000000000031
 31
1.2899999999999989
 12
-0.8400000000000008
 22
1.6200000000000001
 32
1.2899999999999989
 13
-0.5642283553372472
 23
1.770000000000006
 33
1.4042283553372461
  0
3DFACE
  5
1E1C
  8
TURRET
 10
-1.1157716446627539
 20
1.2500000000000031
 30
1.4042283553372461
 11
-0.8400000000000009
 21
1.2500000000000031
 31
1.2899999999999989
 12
-0.5642283553372472
 22
1.2500000000000031
 32
1.4042283553372461
 13
-1.23
 23
1.2500000000000031
 33
1.6799999999999999
  0
3DFACE
  5
1E1D
  8
TURRET
 10
-1.1157716446627539
 20
1.6200000000000001
 30
1.4042283553372461
 11
-0.4500000000000007
 21
1.6200000000000001
 31
1.6799999999999999
 12
-0.5642283553372472
 22
1.6200000000000001
 32
1.4042283553372461
 13
-0.8400000000000008
 23
1.6200000000000001
 33
1.2899999999999989
  0
3DFACE
  5
1E1E
  8
TURRET
 10
-0.4500000000000007
 20
1.2500000000000031
 30
1.6799999999999999
 11
-0.5642283553372472
 21
1.2500000000000031
 31
1.4042283553372461
 12
-0.5642283553372472
 22
1.770000000000006
 32
1.4042283553372461
 13
-0.4500000000000006
 23
1.970000000000002
 33
1.6799999999999999
  0
3DFACE
  5
1E1F
  8
TURRET
 10
-0.8400000000000009
 20
1.2500000000000031
 30
1.2899999999999989
 11
-1.1157716446627539
 21
1.2500000000000031
 31
1.4042283553372461
 12
-1.1157716446627539
 22
1.770000000000006
 32
1.4042283553372461
 13
-0.8400000000000008
 23
1.6200000000000001
 33
1.2899999999999989
  0
3DFACE
  5
1E20
  8
TURRET
 10
-1.1157716446627539
 20
1.2500000000000031
 30
1.4042283553372461
 11
-1.23
 21
1.2500000000000031
 31
1.6799999999999999
 12
-1.23
 22
1.970000000000002
 32
1.6799999999999999
 13
-1.1157716446627539
 23
1.770000000000006
 33
1.4042283553372461
  0
3DFACE
  5
1E21
  8
TURRET
 10
-0.5800000000000014
 20
-3.409999999999985
 30
1.6799999999999999
 11
-1.023847763108503
 21
-3.409999999999985
 31
1.496152236891497
 12
-0.8400000000000014
 22
-3.409999999999985
 32
1.4200000000000019
 13
-0.6561522368914992
 23
-3.409999999999985
 33
1.496152236891497
  0
3DFACE
  5
1E22
  8
TURRET
 10
-1.1157716446627539
 20
-2.9199999999999982
 30
1.4042283553372461
 11
-0.4500000000000012
 21
-2.9199999999999982
 31
1.6799999999999999
 12
-0.5642283553372477
 22
-2.9199999999999982
 32
1.4042283553372461
 13
-0.8400000000000012
 23
-2.9199999999999982
 33
1.2899999999999989
  0
3DFACE
  5
1E23
  8
TURRET
 10
-1.1157716446627539
 20
-3.2099999999999969
 30
1.4042283553372461
 11
-0.8400000000000012
 21
-3.2099999999999969
 31
1.2899999999999989
 12
-0.5642283553372477
 22
-3.2099999999999969
 32
1.4042283553372461
 13
-1.2300000000000011
 23
-3.2099999999999969
 33
1.6799999999999999
  0
3DFACE
  5
1E24
  8
TURRET
 10
-0.5642283553372477
 20
-3.2099999999999969
 30
1.4042283553372461
 11
-0.8400000000000012
 21
-3.2099999999999969
 31
1.2899999999999989
 12
-0.8400000000000012
 22
-2.9199999999999982
 32
1.2899999999999989
 13
-0.5642283553372477
 23
-2.9199999999999982
 33
1.4042283553372461
  0
3DFACE
  5
1E25
  8
TURRET
 10
-0.5854415587728443
 20
-3.2099999999999902
 30
1.425441558772846
 11
-0.4800000000000015
 21
-3.2099999999999902
 31
1.6799999999999999
 12
-0.5800000000000014
 22
-3.409999999999985
 32
1.6799999999999999
 13
-0.6561522368914992
 23
-3.409999999999985
 33
1.496152236891497
  0
3DFACE
  5
1E26
  8
TURRET
 10
-0.8400000000000012
 20
-3.2099999999999902
 30
1.3200000000000001
 11
-0.5854415587728443
 21
-3.2099999999999902
 31
1.425441558772846
 12
-0.6561522368914992
 22
-3.409999999999985
 32
1.496152236891497
 13
-0.8400000000000014
 23
-3.409999999999985
 33
1.4200000000000019
  0
3DFACE
  5
1E27
  8
TURRET
 10
-0.4500000000000013
 20
-3.2099999999999969
 30
1.6799999999999999
 11
-0.5642283553372477
 21
-3.2099999999999969
 31
1.4042283553372461
 12
-0.5642283553372477
 22
-2.9199999999999982
 32
1.4042283553372461
 13
-0.4500000000000012
 23
-2.9199999999999982
 33
1.6799999999999999
  0
3DFACE
  5
1E28
  8
TURRET
 10
-1.1157716446627539
 20
-3.2099999999999969
 30
1.4042283553372461
 11
-1.2300000000000011
 21
-3.2099999999999969
 31
1.6799999999999999
 12
-1.2300000000000011
 22
-2.9199999999999982
 32
1.6799999999999999
 13
-1.1157716446627539
 23
-2.9199999999999982
 33
1.4042283553372461
  0
3DFACE
  5
1E29
  8
TURRET
 10
-0.8400000000000012
 20
-3.2099999999999969
 30
1.2899999999999989
 11
-1.1157716446627539
 21
-3.2099999999999969
 31
1.4042283553372461
 12
-1.1157716446627539
 22
-2.9199999999999982
 32
1.4042283553372461
 13
-0.8400000000000012
 23
-2.9199999999999982
 33
1.2899999999999989
  0
3DFACE
  5
1E2A
  8
TURRET
 10
-1.0945584412271581
 20
-3.2099999999999902
 30
1.425441558772846
 11
-0.8400000000000012
 21
-3.2099999999999902
 31
1.3200000000000001
 12
-0.8400000000000014
 22
-3.409999999999985
 32
1.4200000000000019
 13
-1.023847763108503
 23
-3.409999999999985
 33
1.496152236891497
  0
3DFACE
  5
1E2B
  8
TURRET
 10
-1.2000000000000011
 20
-3.2099999999999902
 30
1.6799999999999999
 11
-1.0945584412271581
 21
-3.2099999999999902
 31
1.425441558772846
 12
-1.023847763108503
 22
-3.409999999999985
 32
1.496152236891497
 13
-1.100000000000001
 23
-3.409999999999985
 33
1.6799999999999999
  0
3DFACE
  5
1E2C
  8
TURRET
 10
-0.8400000000000012
 20
-2.9199999999999982
 30
2.0399999999999991
 11
-0.5854415587728443
 21
-2.9199999999999982
 31
1.934558441227153
 12
-0.5854415587728438
 22
1.2500000000000031
 32
1.934558441227153
 13
-0.8400000000000009
 23
1.2500000000000031
 33
2.0399999999999991
  0
3DFACE
  5
1E2D
  8
TURRET
 10
-1.0945584412271581
 20
-2.9199999999999982
 30
1.934558441227153
 11
-0.8400000000000012
 21
-2.9199999999999982
 31
2.0399999999999991
 12
-0.8400000000000009
 22
1.2500000000000031
 32
2.0399999999999991
 13
-1.0945584412271581
 23
1.2500000000000031
 33
1.934558441227153
  0
3DFACE
  5
1E2E
  8
TURRET
 10
-0.8400000000000009
 20
1.2500000000000031
 30
2.0699999999999998
 11
-0.5642283553372472
 21
1.2500000000000031
 31
1.955771644662754
 12
-0.5642283553372467
 22
5.3600000000000021
 32
1.955771644662754
 13
-0.8400000000000002
 23
5.4100000000000001
 33
2.0699999999999998
  0
3DFACE
  5
1E2F
  8
TURRET
 10
-1.1157716446627539
 20
1.2500000000000031
 30
1.955771644662754
 11
-0.8400000000000009
 21
1.2500000000000031
 31
2.0699999999999998
 12
-0.8400000000000002
 22
5.4100000000000001
 32
2.0699999999999998
 13
-1.115771644662753
 23
5.3600000000000021
 33
1.955771644662754
  0
3DFACE
  5
1E30
  8
TURRET
 10
-0.8400000000000012
 20
-3.2099999999999969
 30
2.0699999999999998
 11
-0.5642283553372477
 21
-3.2099999999999969
 31
1.955771644662754
 12
-0.5642283553372477
 22
-2.9199999999999982
 32
1.955771644662754
 13
-0.8400000000000012
 23
-2.9199999999999982
 33
2.0699999999999998
  0
3DFACE
  5
1E31
  8
TURRET
 10
-0.5854415587728443
 20
-3.2099999999999902
 30
1.934558441227153
 11
-0.8400000000000012
 21
-3.2099999999999902
 31
2.0399999999999991
 12
-0.8400000000000014
 22
-3.409999999999985
 32
1.9399999999999979
 13
-0.656152236891499
 23
-3.409999999999985
 33
1.863847763108502
  0
3DFACE
  5
1E32
  8
TURRET
 10
-1.1157716446627539
 20
-3.2099999999999969
 30
1.955771644662754
 11
-0.8400000000000012
 21
-3.2099999999999969
 31
2.0699999999999998
 12
-0.8400000000000012
 22
-2.9199999999999982
 32
2.0699999999999998
 13
-1.1157716446627539
 23
-2.9199999999999982
 33
1.955771644662754
  0
3DFACE
  5
1E33
  8
TURRET
 10
-0.8400000000000012
 20
-3.2099999999999902
 30
2.0399999999999991
 11
-1.0945584412271581
 21
-3.2099999999999902
 31
1.934558441227153
 12
-1.023847763108503
 22
-3.409999999999985
 32
1.863847763108502
 13
-0.8400000000000014
 23
-3.409999999999985
 33
1.9399999999999979
  0
3DFACE
  5
1E49
  8
TURRET
 10
-1.51
 20
0.0000000000000036
 30
1.009999999999998
 11
-1.0677312395916869
 21
-1.0677312395916829
 31
1.009999999999998
 12
-1.0677312395916869
 22
-1.0677312395916829
 32
1.3200000000000001
 13
-1.51
 23
0.0000000000000036
 33
1.3200000000000001
  0
3DFACE
  5
1E4A
  8
TURRET
 10
-1.0677312395916869
 20
-1.0677312395916829
 30
1.009999999999998
 11
-0.0000000000000013
 21
-1.509999999999994
 31
1.009999999999998
 12
-0.0000000000000013
 22
-1.509999999999994
 32
1.3200000000000001
 13
-1.0677312395916869
 23
-1.0677312395916829
 33
1.3200000000000001
  0
3DFACE
  5
1E4B
  8
TURRET
 10
-0.0000000000000013
 20
-1.509999999999994
 30
1.009999999999998
 11
1.0677312395916849
 21
-1.0677312395916829
 31
1.009999999999998
 12
1.0677312395916849
 22
-1.0677312395916829
 32
1.3200000000000001
 13
-0.0000000000000013
 23
-1.509999999999994
 33
1.3200000000000001
  0
3DFACE
  5
1E4C
  8
TURRET
 10
1.0677312395916849
 20
-1.0677312395916829
 30
1.009999999999998
 11
1.5099999999999989
 21
0.0000000000000036
 31
1.009999999999998
 12
1.5099999999999989
 22
0.0000000000000036
 32
1.3200000000000001
 13
1.0677312395916849
 23
-1.0677312395916829
 33
1.3200000000000001
  0
3DFACE
  5
1E4D
  8
TURRET
 10
1.5099999999999989
 20
0.0000000000000036
 30
1.009999999999998
 11
1.067731239591686
 21
1.06773123959169
 31
1.009999999999998
 12
1.067731239591686
 22
1.06773123959169
 32
1.3200000000000001
 13
1.5099999999999989
 23
0.0000000000000036
 33
1.3200000000000001
  0
3DFACE
  5
1E4E
  8
TURRET
 10
1.067731239591686
 20
1.06773123959169
 30
1.009999999999998
 11
-0.0000000000000005
 21
1.5100000000000009
 31
1.009999999999998
 12
-0.0000000000000005
 22
1.5100000000000009
 32
1.3200000000000001
 13
1.067731239591686
 23
1.06773123959169
 33
1.3200000000000001
  0
3DFACE
  5
1E4F
  8
TURRET
 10
-0.0000000000000005
 20
1.5100000000000009
 30
1.009999999999998
 11
-1.0677312395916869
 21
1.06773123959169
 31
1.009999999999998
 12
-1.0677312395916869
 22
1.06773123959169
 32
1.3200000000000001
 13
-0.0000000000000005
 23
1.5100000000000009
 33
1.3200000000000001
  0
3DFACE
  5
1E50
  8
TURRET
 10
-1.0677312395916869
 20
1.06773123959169
 30
1.009999999999998
 11
-1.51
 21
0.0000000000000036
 31
1.009999999999998
 12
-1.51
 22
0.0000000000000036
 32
1.3200000000000001
 13
-1.0677312395916869
 23
1.06773123959169
 33
1.3200000000000001
  0
3DFACE
  5
1E52
  8
TURRET
 10
1.5099999999999989
 20
0.0000000000000036
 30
1.3200000000000001
 11
1.067731239591686
 21
1.06773123959169
 31
1.3200000000000001
 12
-0.0000000000000006
 22
1.5100000000000009
 32
1.3200000000000001
 13
1.0677312395916849
 23
-1.0677312395916829
 33
1.3200000000000001
  0
3DFACE
  5
1E53
  8
TURRET
 10
1.0677312395916849
 20
-1.0677312395916829
 30
1.3200000000000001
 11
-0.0000000000000006
 21
1.5100000000000009
 31
1.3200000000000001
 12
-1.0677312395916869
 22
1.06773123959169
 32
1.3200000000000001
 13
-0.0000000000000011
 23
-1.509999999999994
 33
1.3200000000000001
  0
3DFACE
  5
1E54
  8
TURRET
 10
-0.0000000000000012
 20
-1.509999999999994
 30
1.3200000000000001
 11
-1.0677312395916869
 21
1.06773123959169
 31
1.3200000000000001
 12
-1.51
 22
0.0000000000000036
 32
1.3200000000000001
 13
-1.0677312395916869
 23
-1.0677312395916829
 33
1.3200000000000001
  0
3DFACE
  5
1E55
  8
TURRET
 10
1.0677312395916849
 20
-1.0677312395916829
 30
1.009999999999998
 11
-0.0000000000000006
 21
1.5100000000000009
 31
1.009999999999998
 12
1.067731239591686
 22
1.06773123959169
 32
1.009999999999998
 13
1.5099999999999989
 23
0.0000000000000036
 33
1.009999999999998
  0
3DFACE
  5
1E56
  8
TURRET
 10
-0.0000000000000012
 20
-1.509999999999994
 30
1.009999999999998
 11
-1.0677312395916869
 21
1.06773123959169
 31
1.009999999999998
 12
-0.0000000000000006
 22
1.5100000000000009
 32
1.009999999999998
 13
1.0677312395916849
 23
-1.0677312395916829
 33
1.009999999999998
  0
3DFACE
  5
1E57
  8
TURRET
 10
-1.0677312395916869
 20
-1.0677312395916829
 30
1.009999999999998
 11
-1.51
 21
0.0000000000000036
 31
1.009999999999998
 12
-1.0677312395916869
 22
1.06773123959169
 32
1.009999999999998
 13
-0.0000000000000012
 23
-1.509999999999994
 33
1.009999999999998
  0
VIEWPORT
  5
2E
 67
     1
  8
0
 10
144.7270812988281
 20
101.2295806407928
 30
0.0
 40
391.13550988316581
 41
222.15178063964839
 68
     2
 69
     1
1001
ACAD
1000
MVIEW
1002
{
1070
    16
1010
0.0
1020
0.0
1030
0.0
1010
0.0
1020
0.0
1030
1.0
1040
0.0
1040
222.15178063964839
1040
144.7270812988281
1040
101.2295806407928
1040
50.0
1040
0.0
1040
0.0
1070
     0
1070
   100
1070
     1
1070
     1
1070
     0
1070
     0
1070
     0
1070
     0
1040
0.0
1040
0.0
1040
0.0
1040
10.0
1040
10.0
1040
10.0
1040
10.0
1070
     0
1002
{
1002
}
1002
}
  0
VIEWPORT
  5
30
 67
     1
  8
0
 10
139.22375631332389
 20
100.8062499761581
 30
0.0
 40
222.75801010131829
 41
161.289999961853
 68
     1
 69
     2
1001
ACAD
1000
MVIEW
1002
{
1070
    16
1010
0.0
1020
0.0
1030
0.0
1010
0.0
1020
0.0
1030
1.0
1040
0.0
1040
307.49010134148989
1040
210.0
1040
148.5
1040
50.0
1040
0.0
1040
0.0
1070
     0
1070
   100
1070
     1
1070
     3
1070
     0
1070
     1
1070
     0
1070
     0
1040
0.0
1040
0.0
1040
0.0
1040
10.0
1040
10.0
1040
10.0
1040
10.0
1070
     0
1002
{
1002
}
1002
}
  0
ENDSEC
  0
EOF
