  0
SECTION
  2
HEADER
  9
$ACADVER
  1
AC1009
  9
$INSBASE
 10
0.0
 20
0.0
 30
0.0
  9
$EXTMIN
 10
-5.6086602540378481
 20
-2.9100000000000001
 30
0.0
  9
$EXTMAX
 10
21.0
 20
7.0
 30
5.5
  9
$LIMMIN
 10
0.0
 20
0.0
  9
$LIMMAX
 10
420.0
 20
297.0
  9
$ORTHOMODE
 70
     1
  9
$REGENMODE
 70
     1
  9
$FILLMODE
 70
     1
  9
$QTEXTMODE
 70
     0
  9
$MIRRTEXT
 70
     1
  9
$DRAGMODE
 70
     2
  9
$LTSCALE
 40
1.0
  9
$OSMODE
 70
   559
  9
$ATTMODE
 70
     1
  9
$TEXTSIZE
 40
2.5
  9
$TRACEWID
 40
1.0
  9
$TEXTSTYLE
  7
STANDARD
  9
$CLAYER
  8
RADAR
  9
$CELTYPE
  6
BYLAYER
  9
$CECOLOR
 62
   256
  9
$DIMSCALE
 40
1.0
  9
$DIMASZ
 40
2.5
  9
$DIMEXO
 40
0.625
  9
$DIMDLI
 40
3.75
  9
$DIMRND
 40
0.0
  9
$DIMDLE
 40
0.0
  9
$DIMEXE
 40
1.25
  9
$DIMTP
 40
0.0
  9
$DIMTM
 40
0.0
  9
$DIMTXT
 40
2.5
  9
$DIMCEN
 40
2.5
  9
$DIMTSZ
 40
0.0
  9
$DIMTOL
 70
     0
  9
$DIMLIM
 70
     0
  9
$DIMTIH
 70
     0
  9
$DIMTOH
 70
     0
  9
$DIMSE1
 70
     0
  9
$DIMSE2
 70
     0
  9
$DIMTAD
 70
     1
  9
$DIMZIN
 70
     8
  9
$DIMBLK
  1

  9
$DIMASO
 70
     1
  9
$DIMSHO
 70
     1
  9
$DIMPOST
  1

  9
$DIMAPOST
  1

  9
$DIMALT
 70
     0
  9
$DIMALTD
 70
     3
  9
$DIMALTF
 40
0.03937007874016
  9
$DIMLFAC
 40
1.0
  9
$DIMTOFL
 70
     1
  9
$DIMTVP
 40
0.0
  9
$DIMTIX
 70
     0
  9
$DIMSOXD
 70
     0
  9
$DIMSAH
 70
     0
  9
$DIMBLK1
  1

  9
$DIMBLK2
  1

  9
$DIMSTYLE
  2
ISO-25
  9
$DIMCLRD
 70
     0
  9
$DIMCLRE
 70
     0
  9
$DIMCLRT
 70
     0
  9
$DIMTFAC
 40
1.0
  9
$DIMGAP
 40
0.625
  9
$LUNITS
 70
     2
  9
$LUPREC
 70
     4
  9
$SKETCHINC
 40
1.0
  9
$FILLETRAD
 40
10.0
  9
$AUNITS
 70
     0
  9
$AUPREC
 70
     0
  9
$MENU
  1
.
  9
$ELEVATION
 40
0.0
  9
$PELEVATION
 40
0.0
  9
$THICKNESS
 40
0.0
  9
$LIMCHECK
 70
     0
  9
$BLIPMODE
 70
     0
  9
$CHAMFERA
 40
10.0
  9
$CHAMFERB
 40
10.0
  9
$SKPOLY
 70
     0
  9
$TDCREATE
 40
2454881.8893947108
  9
$TDUPDATE
 40
2454881.9474303699
  9
$TDINDWG
 40
0.0580360185
  9
$TDUSRTIMER
 40
0.0580360185
  9
$USRTIMER
 70
     1
  9
$ANGBASE
 50
0.0
  9
$ANGDIR
 70
     0
  9
$PDMODE
 70
     0
  9
$PDSIZE
 40
0.0
  9
$PLINEWID
 40
0.0
  9
$COORDS
 70
     1
  9
$SPLFRAME
 70
     0
  9
$SPLINETYPE
 70
     6
  9
$SPLINESEGS
 70
     8
  9
$ATTDIA
 70
     1
  9
$ATTREQ
 70
     1
  9
$HANDLING
 70
-16383
  9
$HANDSEED
  5
4B2
  9
$SURFTAB1
 70
     6
  9
$SURFTAB2
 70
     6
  9
$SURFTYPE
 70
     6
  9
$SURFU
 70
     6
  9
$SURFV
 70
     6
  9
$UCSNAME
  2

  9
$UCSORG
 10
0.0
 20
0.0
 30
0.0
  9
$UCSXDIR
 10
0.0
 20
-1.0
 30
0.0
  9
$UCSYDIR
 10
0.0
 20
0.0
 30
1.0
  9
$PUCSNAME
  2

  9
$PUCSORG
 10
0.0
 20
0.0
 30
0.0
  9
$PUCSXDIR
 10
1.0
 20
0.0
 30
0.0
  9
$PUCSYDIR
 10
0.0
 20
1.0
 30
0.0
  9
$USERI1
 70
     0
  9
$USERI2
 70
     0
  9
$USERI3
 70
     0
  9
$USERI4
 70
     0
  9
$USERI5
 70
     0
  9
$USERR1
 40
0.0
  9
$USERR2
 40
0.0
  9
$USERR3
 40
0.0
  9
$USERR4
 40
0.0
  9
$USERR5
 40
0.0
  9
$WORLDVIEW
 70
     1
  9
$SHADEDGE
 70
     3
  9
$SHADEDIF
 70
    70
  9
$TILEMODE
 70
     1
  9
$MAXACTVP
 70
    64
  9
$PLIMCHECK
 70
     0
  9
$PEXTMIN
 10
27.844751262664801
 20
20.161249995231621
 30
0.0
  9
$PEXTMAX
 10
250.60276136398309
 20
181.4512499570846
 30
0.0
  9
$PLIMMIN
 10
-3.757080078125
 20
-3.7570831775665279
  9
$PLIMMAX
 10
293.21124267578119
 20
206.21624445915219
  9
$UNITMODE
 70
     0
  9
$VISRETAIN
 70
     1
  9
$PLINEGEN
 70
     0
  9
$PSLTSCALE
 70
     1
  0
ENDSEC
  0
SECTION
  2
TABLES
  0
TABLE
  2
VPORT
 70
    26
  0
VPORT
  2
*ACTIVE
 70
     0
 10
0.0
 20
0.0
 11
1.0
 21
1.0
 12
2.302191954988495
 22
2.9420354535625339
 13
0.0
 23
0.0
 14
0.01
 24
0.01
 15
1.0
 25
1.0
 16
-1.0
 26
0.0
 36
0.0
 17
0.0
 27
0.0
 37
0.0
 40
11.380295544519401
 41
1.7606679035250461
 42
50.0
 43
0.0
 44
0.0
 50
0.0
 51
0.0
 71
     0
 72
   100
 73
     1
 74
     3
 75
     1
 76
     1
 77
     0
 78
     0
  0
ENDTAB
  0
TABLE
  2
LTYPE
 70
     1
  0
LTYPE
  2
CONTINUOUS
 70
     0
  3
Solid line
 72
    65
 73
     0
 40
0.0
  0
ENDTAB
  0
TABLE
  2
LAYER
 70
     3
  0
LAYER
  2
0
 70
     0
 62
     7
  6
CONTINUOUS
  0
LAYER
  2
WHEELS
 70
     0
 62
     2
  6
CONTINUOUS
  0
LAYER
  2
RADAR
 70
     0
 62
     5
  6
CONTINUOUS
  0
ENDTAB
  0
TABLE
  2
STYLE
 70
     1
  0
STYLE
  2
STANDARD
 70
     0
 40
0.0
 41
1.0
 50
0.0
 71
     0
 42
2.5
  3
txt
  4

  0
ENDTAB
  0
TABLE
  2
VIEW
 70
     0
  0
ENDTAB
  0
TABLE
  2
UCS
 70
     0
  0
ENDTAB
  0
TABLE
  2
APPID
 70
     1
  0
APPID
  2
ACAD
 70
     0
  0
ENDTAB
  0
TABLE
  2
DIMSTYLE
 70
     1
  0
DIMSTYLE
  2
ISO-25
 70
     0
  3

  4

  5

  6

  7

 40
1.0
 41
2.5
 42
0.625
 43
3.75
 44
1.25
 45
0.0
 46
0.0
 47
0.0
 48
0.0
140
2.5
141
2.5
142
0.0
143
0.03937007874016
144
1.0
145
0.0
146
1.0
147
0.625
 71
     0
 72
     0
 73
     0
 74
     0
 75
     0
 76
     0
 77
     1
 78
     8
170
     0
171
     3
172
     1
173
     0
174
     0
175
     0
176
     0
177
     0
178
     0
  0
ENDTAB
  0
ENDSEC
  0
SECTION
  2
BLOCKS
  0
BLOCK
  8
0
  2
$MODEL_SPACE
 70
     0
 10
0.0
 20
0.0
 30
0.0
  3
$MODEL_SPACE
  1

  0
ENDBLK
  5
21
  8
0
  0
BLOCK
 67
     1
  8
0
  2
$PAPER_SPACE
 70
     0
 10
0.0
 20
0.0
 30
0.0
  3
$PAPER_SPACE
  1

  0
ENDBLK
  5
1D
 67
     1
  8
0
  0
ENDSEC
  0
SECTION
  2
ENTITIES
  0
3DFACE
  5
2C7
  8
RADAR
 10
-0.98
 20
-0.5
 30
3.0
 11
-0.98
 21
-0.5
 31
0.55
 12
0.98
 22
-0.5
 32
0.55
 13
0.98
 23
-0.5
 33
3.0
  0
3DFACE
  5
2C8
  8
RADAR
 10
0.98
 20
-0.5
 30
3.0
 11
0.98
 21
-0.5
 31
0.55
 12
0.98
 22
0.5
 32
0.55
 13
0.98
 23
0.5
 33
3.0
  0
3DFACE
  5
2C9
  8
RADAR
 10
-0.98
 20
0.5
 30
0.55
 11
-0.98
 21
-0.5
 31
0.55
 12
-0.98
 22
-0.5
 32
3.0
 13
-0.98
 23
0.5
 33
3.0
  0
3DFACE
  5
2CA
  8
RADAR
 10
-0.98
 20
0.5
 30
3.0
 11
-0.98
 21
-0.5
 31
3.0
 12
0.98
 22
-0.5
 32
3.0
 13
0.98
 23
0.5
 33
3.0
  0
3DFACE
  5
2CB
  8
RADAR
 10
0.98
 20
0.5
 30
3.0
 11
0.98
 21
0.5
 31
0.55
 12
-0.98
 22
0.5
 32
0.55
 13
-0.98
 23
0.5
 33
3.0
  0
3DFACE
  5
2CC
  8
RADAR
 10
0.98
 20
0.5
 30
0.55
 11
0.98
 21
-0.5
 31
0.55
 12
-0.98
 22
-0.5
 32
0.55
 13
-0.98
 23
0.5
 33
0.55
  0
3DFACE
  5
2E4
  8
RADAR
 10
-2.9599999999999991
 20
0.5
 30
1.5
 11
-3.0
 21
0.5
 31
1.4599999999999991
 12
3.0
 22
0.5
 32
1.4599999999999991
 13
2.9599999999999991
 23
0.5
 33
1.5
  0
3DFACE
  5
2E7
  8
RADAR
 10
-2.9599999999999991
 20
0.5400000000000002
 30
1.5
 11
-2.9599999999999991
 21
0.5
 31
1.5
 12
2.9599999999999991
 22
0.5
 32
1.5
 13
2.9599999999999991
 23
0.5400000000000002
 33
1.5
  0
3DFACE
  5
2E8
  8
RADAR
 10
2.9599999999999991
 20
0.5400000000000002
 30
1.5
 11
3.0
 21
0.5400000000000002
 31
1.4599999999999991
 12
-3.0
 22
0.5400000000000002
 32
1.4599999999999991
 13
-2.9599999999999991
 23
0.5400000000000002
 33
1.5
  0
3DFACE
  5
2E9
  8
RADAR
 10
3.0
 20
0.5400000000000002
 30
1.4599999999999991
 11
3.0
 21
0.5
 31
1.4599999999999991
 12
-3.0
 22
0.5
 32
1.4599999999999991
 13
-3.0
 23
0.5400000000000002
 33
1.4599999999999991
  0
3DFACE
  5
2EB
  8
RADAR
 10
3.0
 20
0.5400000000000002
 30
4.54
 11
2.96
 21
0.5400000000000002
 31
4.5
 12
-2.9599999999999991
 22
0.5400000000000002
 32
4.5
 13
-3.0
 23
0.5400000000000002
 33
4.54
  0
3DFACE
  5
2EC
  8
RADAR
 10
-3.0
 20
0.5400000000000002
 30
4.54
 11
-3.0
 21
0.5
 31
4.54
 12
3.0
 22
0.5
 32
4.54
 13
3.0
 23
0.5400000000000002
 33
4.54
  0
3DFACE
  5
2ED
  8
RADAR
 10
-3.0
 20
0.5
 30
4.54
 11
-2.9599999999999991
 21
0.5
 31
4.5
 12
2.9599999999999991
 22
0.5
 32
4.5
 13
3.0
 23
0.5
 33
4.54
  0
3DFACE
  5
2EE
  8
RADAR
 10
2.96
 20
0.5400000000000002
 30
4.5
 11
2.9599999999999991
 21
0.5
 31
4.5
 12
-2.9599999999999991
 22
0.5
 32
4.5
 13
-2.9599999999999991
 23
0.5400000000000002
 33
4.5
  0
3DFACE
  5
2F2
  8
RADAR
 10
-2.9999999999999991
 20
0.5400000000000002
 30
4.54
 11
-2.9599999999999991
 21
0.5400000000000002
 31
4.5
 12
-2.9599999999999991
 22
0.5400000000000002
 32
1.5
 13
-3.0
 23
0.5400000000000002
 33
1.4599999999999991
  0
3DFACE
  5
2F3
  8
RADAR
 10
-3.0
 20
0.5400000000000002
 30
1.4599999999999991
 11
-3.0
 21
0.5
 31
1.4599999999999991
 12
-2.9999999999999991
 22
0.5
 32
4.54
 13
-2.9999999999999991
 23
0.5400000000000002
 33
4.54
  0
3DFACE
  5
2F4
  8
RADAR
 10
-3.0
 20
0.5
 30
1.4599999999999991
 11
-2.9599999999999991
 21
0.5
 31
1.5
 12
-2.9599999999999991
 22
0.5
 32
4.5
 13
-2.9999999999999991
 23
0.5
 33
4.54
  0
3DFACE
  5
2F5
  8
RADAR
 10
-2.9599999999999991
 20
0.5400000000000002
 30
4.5
 11
-2.9599999999999991
 21
0.5
 31
4.5
 12
-2.9599999999999991
 22
0.5
 32
1.5
 13
-2.9599999999999991
 23
0.5400000000000002
 33
1.5
  0
3DFACE
  5
2F9
  8
RADAR
 10
2.96
 20
0.5400000000000002
 30
4.5
 11
3.0
 21
0.5400000000000002
 31
4.54
 12
3.0
 22
0.5400000000000002
 32
1.4599999999999991
 13
2.9599999999999991
 23
0.5400000000000002
 33
1.5
  0
3DFACE
  5
2FA
  8
RADAR
 10
2.9599999999999991
 20
0.5
 30
1.5
 11
3.0
 21
0.5
 31
1.4599999999999991
 12
3.0
 22
0.5
 32
4.54
 13
2.96
 23
0.5
 33
4.5
  0
3DFACE
  5
2FB
  8
RADAR
 10
3.0
 20
0.5400000000000002
 30
4.54
 11
3.0
 21
0.5
 31
4.54
 12
3.0
 22
0.5
 32
1.4599999999999991
 13
3.0
 23
0.5400000000000002
 33
1.4599999999999991
  0
3DFACE
  5
2FE
  8
RADAR
 10
2.9599999999999991
 20
0.5400000000000002
 30
1.5
 11
2.9599999999999991
 21
0.5
 31
1.5
 12
2.96
 22
0.5
 32
4.5
 13
2.96
 23
0.5400000000000002
 33
4.5
  0
3DFACE
  5
304
  8
RADAR
 10
-0.4699999999999993
 20
0.5400000000000002
 30
4.5
 11
-0.4699999999999993
 21
0.5
 31
4.5
 12
-0.4699999999999998
 22
0.5
 32
1.5
 13
-0.4699999999999998
 23
0.5400000000000002
 33
1.5
  0
3DFACE
  5
305
  8
RADAR
 10
-0.5099999999999998
 20
0.5
 30
1.5
 11
-0.4699999999999998
 21
0.5
 31
1.5
 12
-0.4699999999999993
 22
0.5
 32
4.5
 13
-0.5099999999999995
 23
0.5
 33
4.5
  0
3DFACE
  5
306
  8
RADAR
 10
-0.5099999999999998
 20
0.5400000000000002
 30
1.5
 11
-0.5099999999999998
 21
0.5
 31
1.5
 12
-0.5099999999999995
 22
0.5
 32
4.5
 13
-0.5099999999999995
 23
0.5400000000000002
 33
4.5
  0
3DFACE
  5
307
  8
RADAR
 10
-0.5099999999999995
 20
0.5400000000000002
 30
4.5
 11
-0.4699999999999993
 21
0.5400000000000002
 31
4.5
 12
-0.4699999999999998
 22
0.5400000000000002
 32
1.5
 13
-0.5099999999999998
 23
0.5400000000000002
 33
1.5
  0
3DFACE
  5
308
  8
RADAR
 10
-1.0399999999999989
 20
0.5400000000000002
 30
4.5
 11
-0.9999999999999992
 21
0.5400000000000002
 31
4.5
 12
-0.9999999999999998
 22
0.5400000000000002
 32
1.5
 13
-1.0399999999999989
 23
0.5400000000000002
 33
1.5
  0
3DFACE
  5
309
  8
RADAR
 10
-1.0399999999999989
 20
0.5400000000000002
 30
1.5
 11
-1.0399999999999989
 21
0.5
 31
1.5
 12
-1.0399999999999989
 22
0.5
 32
4.5
 13
-1.0399999999999989
 23
0.5400000000000002
 33
4.5
  0
3DFACE
  5
30A
  8
RADAR
 10
-1.0399999999999989
 20
0.5
 30
1.5
 11
-0.9999999999999998
 21
0.5
 31
1.5
 12
-0.9999999999999992
 22
0.5
 32
4.5
 13
-1.0399999999999989
 23
0.5
 33
4.5
  0
3DFACE
  5
30B
  8
RADAR
 10
-0.9999999999999992
 20
0.5400000000000002
 30
4.5
 11
-0.9999999999999992
 21
0.5
 31
4.5
 12
-0.9999999999999998
 22
0.5
 32
1.5
 13
-0.9999999999999998
 23
0.5400000000000002
 33
1.5
  0
3DFACE
  5
30C
  8
RADAR
 10
-1.7999999999999989
 20
0.5400000000000002
 30
4.5
 11
-1.7999999999999989
 21
0.5
 31
4.5
 12
-1.7999999999999989
 22
0.5
 32
1.5
 13
-1.7999999999999989
 23
0.5400000000000002
 33
1.5
  0
3DFACE
  5
30D
  8
RADAR
 10
-1.839999999999999
 20
0.5
 30
1.5
 11
-1.7999999999999989
 21
0.5
 31
1.5
 12
-1.7999999999999989
 22
0.5
 32
4.5
 13
-1.839999999999999
 23
0.5
 33
4.5
  0
3DFACE
  5
30E
  8
RADAR
 10
-1.839999999999999
 20
0.5400000000000002
 30
1.5
 11
-1.839999999999999
 21
0.5
 31
1.5
 12
-1.839999999999999
 22
0.5
 32
4.5
 13
-1.839999999999999
 23
0.5400000000000002
 33
4.5
  0
3DFACE
  5
30F
  8
RADAR
 10
-1.839999999999999
 20
0.5400000000000002
 30
4.5
 11
-1.7999999999999989
 21
0.5400000000000002
 31
4.5
 12
-1.7999999999999989
 22
0.5400000000000002
 32
1.5
 13
-1.839999999999999
 23
0.5400000000000002
 33
1.5
  0
3DFACE
  5
310
  8
RADAR
 10
-2.1999999999999988
 20
0.5400000000000002
 30
4.5
 11
-2.1599999999999988
 21
0.5400000000000002
 31
4.5
 12
-2.1600000000000001
 22
0.5400000000000002
 32
1.5
 13
-2.2000000000000002
 23
0.5400000000000002
 33
1.5
  0
3DFACE
  5
311
  8
RADAR
 10
-2.2000000000000002
 20
0.5400000000000002
 30
1.5
 11
-2.2000000000000002
 21
0.5
 31
1.5
 12
-2.1999999999999988
 22
0.5
 32
4.5
 13
-2.1999999999999988
 23
0.5400000000000002
 33
4.5
  0
3DFACE
  5
312
  8
RADAR
 10
-2.2000000000000002
 20
0.5
 30
1.5
 11
-2.1600000000000001
 21
0.5
 31
1.5
 12
-2.1599999999999988
 22
0.5
 32
4.5
 13
-2.1999999999999988
 23
0.5
 33
4.5
  0
3DFACE
  5
313
  8
RADAR
 10
-2.1599999999999988
 20
0.5400000000000002
 30
4.5
 11
-2.1599999999999988
 21
0.5
 31
4.5
 12
-2.1600000000000001
 22
0.5
 32
1.5
 13
-2.1600000000000001
 23
0.5400000000000002
 33
1.5
  0
3DFACE
  5
314
  8
RADAR
 10
-2.9599999999999991
 20
0.5400000000000002
 30
2.98
 11
-2.9599999999999991
 21
0.5400000000000002
 31
3.02
 12
-1.839999999999999
 22
0.5400000000000002
 32
3.02
 13
-1.839999999999999
 23
0.5400000000000002
 33
2.98
  0
3DFACE
  5
315
  8
RADAR
 10
-1.839999999999999
 20
0.5400000000000002
 30
2.98
 11
-1.839999999999999
 21
0.5
 31
2.98
 12
-2.9599999999999991
 22
0.5
 32
2.98
 13
-2.9599999999999991
 23
0.5400000000000002
 33
2.98
  0
3DFACE
  5
316
  8
RADAR
 10
-1.839999999999999
 20
0.5
 30
2.98
 11
-1.839999999999999
 21
0.5
 31
3.02
 12
-2.9599999999999991
 22
0.5
 32
3.02
 13
-2.9599999999999991
 23
0.5
 33
2.98
  0
3DFACE
  5
317
  8
RADAR
 10
-2.9599999999999991
 20
0.5400000000000002
 30
3.02
 11
-2.9599999999999991
 21
0.5
 31
3.02
 12
-1.839999999999999
 22
0.5
 32
3.02
 13
-1.839999999999999
 23
0.5400000000000002
 33
3.02
  0
3DFACE
  5
318
  8
RADAR
 10
2.1599999999999988
 20
0.5000000000000009
 30
4.5
 11
2.1599999999999988
 21
0.540000000000001
 31
4.5
 12
2.1600000000000001
 22
0.540000000000001
 32
1.5
 13
2.1600000000000001
 23
0.5000000000000009
 33
1.5
  0
3DFACE
  5
319
  8
RADAR
 10
2.2000000000000002
 20
0.540000000000001
 30
1.5
 11
2.1600000000000001
 21
0.540000000000001
 31
1.5
 12
2.1599999999999988
 22
0.540000000000001
 32
4.5
 13
2.1999999999999988
 23
0.540000000000001
 33
4.5
  0
3DFACE
  5
31A
  8
RADAR
 10
2.2000000000000002
 20
0.5000000000000009
 30
1.5
 11
2.2000000000000002
 21
0.540000000000001
 31
1.5
 12
2.1999999999999988
 22
0.540000000000001
 32
4.5
 13
2.1999999999999988
 23
0.5000000000000009
 33
4.5
  0
3DFACE
  5
31B
  8
RADAR
 10
2.1999999999999988
 20
0.5000000000000009
 30
4.5
 11
2.1599999999999988
 21
0.5000000000000009
 31
4.5
 12
2.1600000000000001
 22
0.5000000000000009
 32
1.5
 13
2.2000000000000002
 23
0.5000000000000009
 33
1.5
  0
3DFACE
  5
31C
  8
RADAR
 10
1.839999999999999
 20
0.5000000000000009
 30
4.5
 11
1.7999999999999989
 21
0.5000000000000009
 31
4.5
 12
1.7999999999999989
 22
0.5000000000000009
 32
1.5
 13
1.839999999999999
 23
0.5000000000000009
 33
1.5
  0
3DFACE
  5
31D
  8
RADAR
 10
1.839999999999999
 20
0.5000000000000009
 30
1.5
 11
1.839999999999999
 21
0.540000000000001
 31
1.5
 12
1.839999999999999
 22
0.540000000000001
 32
4.5
 13
1.839999999999999
 23
0.5000000000000009
 33
4.5
  0
3DFACE
  5
31E
  8
RADAR
 10
1.839999999999999
 20
0.540000000000001
 30
1.5
 11
1.7999999999999989
 21
0.540000000000001
 31
1.5
 12
1.7999999999999989
 22
0.540000000000001
 32
4.5
 13
1.839999999999999
 23
0.540000000000001
 33
4.5
  0
3DFACE
  5
31F
  8
RADAR
 10
1.7999999999999989
 20
0.5000000000000009
 30
4.5
 11
1.7999999999999989
 21
0.540000000000001
 31
4.5
 12
1.7999999999999989
 22
0.540000000000001
 32
1.5
 13
1.7999999999999989
 23
0.5000000000000009
 33
1.5
  0
3DFACE
  5
320
  8
RADAR
 10
0.9999999999999992
 20
0.5000000000000009
 30
4.5
 11
0.9999999999999992
 21
0.540000000000001
 31
4.5
 12
0.9999999999999998
 22
0.540000000000001
 32
1.5
 13
0.9999999999999998
 23
0.5000000000000009
 33
1.5
  0
3DFACE
  5
321
  8
RADAR
 10
1.0399999999999989
 20
0.540000000000001
 30
1.5
 11
0.9999999999999998
 21
0.540000000000001
 31
1.5
 12
0.9999999999999992
 22
0.540000000000001
 32
4.5
 13
1.0399999999999989
 23
0.540000000000001
 33
4.5
  0
3DFACE
  5
322
  8
RADAR
 10
1.0399999999999989
 20
0.5000000000000009
 30
1.5
 11
1.0399999999999989
 21
0.540000000000001
 31
1.5
 12
1.0399999999999989
 22
0.540000000000001
 32
4.5
 13
1.0399999999999989
 23
0.5000000000000009
 33
4.5
  0
3DFACE
  5
323
  8
RADAR
 10
1.0399999999999989
 20
0.5000000000000009
 30
4.5
 11
0.9999999999999992
 21
0.5000000000000009
 31
4.5
 12
0.9999999999999998
 22
0.5000000000000009
 32
1.5
 13
1.0399999999999989
 23
0.5000000000000009
 33
1.5
  0
3DFACE
  5
324
  8
RADAR
 10
0.5099999999999995
 20
0.5000000000000009
 30
4.5
 11
0.4699999999999993
 21
0.5000000000000009
 31
4.5
 12
0.4699999999999998
 22
0.5000000000000009
 32
1.5
 13
0.5099999999999998
 23
0.5000000000000009
 33
1.5
  0
3DFACE
  5
325
  8
RADAR
 10
0.5099999999999998
 20
0.5000000000000009
 30
1.5
 11
0.5099999999999998
 21
0.540000000000001
 31
1.5
 12
0.5099999999999995
 22
0.540000000000001
 32
4.5
 13
0.5099999999999995
 23
0.5000000000000009
 33
4.5
  0
3DFACE
  5
326
  8
RADAR
 10
0.5099999999999998
 20
0.540000000000001
 30
1.5
 11
0.4699999999999998
 21
0.540000000000001
 31
1.5
 12
0.4699999999999993
 22
0.540000000000001
 32
4.5
 13
0.5099999999999995
 23
0.540000000000001
 33
4.5
  0
3DFACE
  5
327
  8
RADAR
 10
0.4699999999999993
 20
0.5000000000000009
 30
4.5
 11
0.4699999999999993
 21
0.540000000000001
 31
4.5
 12
0.4699999999999998
 22
0.540000000000001
 32
1.5
 13
0.4699999999999998
 23
0.5000000000000009
 33
1.5
  0
3DFACE
  5
328
  8
RADAR
 10
2.9599999999999991
 20
0.5
 30
2.98
 11
2.9599999999999991
 21
0.5
 31
3.02
 12
1.839999999999999
 22
0.5
 32
3.02
 13
1.839999999999999
 23
0.5
 33
2.98
  0
3DFACE
  5
329
  8
RADAR
 10
1.839999999999999
 20
0.5400000000000002
 30
2.98
 11
1.839999999999999
 21
0.5400000000000002
 31
3.02
 12
2.9599999999999991
 22
0.5400000000000002
 32
3.02
 13
2.9599999999999991
 23
0.5400000000000002
 33
2.98
  0
3DFACE
  5
32A
  8
RADAR
 10
2.9599999999999991
 20
0.5400000000000002
 30
2.98
 11
2.9599999999999991
 21
0.5
 31
2.98
 12
1.839999999999999
 22
0.5
 32
2.98
 13
1.839999999999999
 23
0.5400000000000002
 33
2.98
  0
3DFACE
  5
32B
  8
RADAR
 10
1.839999999999999
 20
0.5400000000000002
 30
3.02
 11
1.839999999999999
 21
0.5
 31
3.02
 12
2.9599999999999991
 22
0.5
 32
3.02
 13
2.9599999999999991
 23
0.5400000000000002
 33
3.02
  0
3DFACE
  5
32C
  8
RADAR
 10
-1.8
 20
0.5400000000000002
 30
3.25
 11
-1.8
 21
0.5
 31
3.25
 12
1.8
 22
0.5
 32
3.25
 13
1.8
 23
0.5400000000000002
 33
3.25
  0
3DFACE
  5
32D
  8
RADAR
 10
1.8
 20
0.5400000000000002
 30
3.21
 11
1.8
 21
0.5
 31
3.21
 12
-1.8
 22
0.5
 32
3.21
 13
-1.8
 23
0.5400000000000002
 33
3.21
  0
3DFACE
  5
32E
  8
RADAR
 10
-1.8
 20
0.5400000000000002
 30
3.21
 11
-1.8
 21
0.5400000000000002
 31
3.25
 12
1.8
 22
0.5400000000000002
 32
3.25
 13
1.8
 23
0.5400000000000002
 33
3.21
  0
3DFACE
  5
32F
  8
RADAR
 10
1.8
 20
0.5
 30
3.21
 11
1.8
 21
0.5
 31
3.25
 12
-1.8
 22
0.5
 32
3.25
 13
-1.8
 23
0.5
 33
3.21
  0
3DFACE
  5
330
  8
RADAR
 10
-0.98
 20
-0.4600000000000001
 30
3.21
 11
-0.98
 21
-0.4599999999999996
 31
3.25
 12
-0.9799999999999998
 22
0.5000000000000006
 32
3.25
 13
-0.9799999999999998
 23
0.5000000000000006
 33
3.21
  0
3DFACE
  5
331
  8
RADAR
 10
-0.9399999999999998
 20
0.5000000000000006
 30
3.21
 11
-0.9399999999999998
 21
0.5000000000000006
 31
3.25
 12
-0.9400000000000005
 22
-0.4599999999999996
 32
3.25
 13
-0.94
 23
-0.4600000000000001
 33
3.21
  0
3DFACE
  5
332
  8
RADAR
 10
-0.9799999999999998
 20
0.5000000000000006
 30
3.21
 11
-0.9399999999999998
 21
0.5000000000000006
 31
3.21
 12
-0.94
 22
-0.4600000000000001
 32
3.21
 13
-0.98
 23
-0.4600000000000001
 33
3.21
  0
3DFACE
  5
333
  8
RADAR
 10
-0.98
 20
-0.4599999999999996
 30
3.25
 11
-0.9400000000000005
 21
-0.4599999999999996
 31
3.25
 12
-0.9399999999999998
 22
0.5000000000000006
 32
3.25
 13
-0.9799999999999998
 23
0.5000000000000006
 33
3.25
  0
3DFACE
  5
334
  8
RADAR
 10
-0.98
 20
-0.4999999999999992
 30
3.25
 11
-0.98
 21
-0.4599999999999996
 31
3.25
 12
-0.9799999999999998
 22
-0.4599999999999996
 32
3.0
 13
-0.9799999999999998
 23
-0.4999999999999996
 33
3.0
  0
3DFACE
  5
335
  8
RADAR
 10
-0.9399999999999998
 20
-0.4999999999999996
 30
3.0
 11
-0.9399999999999998
 21
-0.4599999999999996
 31
3.0
 12
-0.9400000000000005
 22
-0.4599999999999996
 32
3.25
 13
-0.94
 23
-0.4999999999999992
 33
3.25
  0
3DFACE
  5
336
  8
RADAR
 10
-0.9799999999999998
 20
-0.4999999999999996
 30
3.0
 11
-0.9399999999999998
 21
-0.4999999999999996
 31
3.0
 12
-0.94
 22
-0.4999999999999992
 32
3.25
 13
-0.98
 23
-0.4999999999999992
 33
3.25
  0
3DFACE
  5
337
  8
RADAR
 10
-0.98
 20
-0.4599999999999991
 30
3.2099999999999991
 11
-0.94
 21
-0.4599999999999991
 31
3.2099999999999991
 12
-0.9399999999999998
 22
-0.4599999999999996
 32
3.0
 13
-0.9799999999999998
 23
-0.4599999999999996
 33
3.0
  0
3DFACE
  5
338
  8
RADAR
 10
-0.98
 20
0.4200000000000009
 30
3.2099999999999991
 11
-0.98
 21
0.460000000000001
 31
3.2099999999999991
 12
-0.9799999999999998
 22
0.4600000000000005
 32
3.0
 13
-0.9799999999999998
 23
0.4200000000000005
 33
3.0
  0
3DFACE
  5
339
  8
RADAR
 10
-0.9799999999999998
 20
0.4200000000000005
 30
3.0
 11
-0.9399999999999998
 21
0.4200000000000005
 31
3.0
 12
-0.94
 22
0.4200000000000009
 32
3.2099999999999991
 13
-0.98
 23
0.4200000000000009
 33
3.2099999999999991
  0
3DFACE
  5
33A
  8
RADAR
 10
-0.9399999999999998
 20
0.4200000000000005
 30
3.0
 11
-0.9399999999999998
 21
0.4600000000000005
 31
3.0
 12
-0.94
 22
0.460000000000001
 32
3.2099999999999991
 13
-0.94
 23
0.4200000000000009
 33
3.2099999999999991
  0
3DFACE
  5
33B
  8
RADAR
 10
-0.98
 20
0.460000000000001
 30
3.2099999999999991
 11
-0.94
 21
0.460000000000001
 31
3.2099999999999991
 12
-0.9399999999999998
 22
0.4600000000000005
 32
3.0
 13
-0.9799999999999998
 23
0.4600000000000005
 33
3.0
  0
3DFACE
  5
33C
  8
RADAR
 10
1.8
 20
-0.46
 30
4.5399999999999991
 11
1.8
 21
-0.46
 31
4.4999999999999991
 12
-1.8
 22
-0.46
 32
4.4999999999999991
 13
-1.8
 23
-0.46
 33
4.5399999999999991
  0
3DFACE
  5
33D
  8
RADAR
 10
1.8
 20
-0.46
 30
4.4999999999999991
 11
1.8400000000000001
 21
-0.5
 31
4.4999999999999991
 12
-1.8400000000000001
 22
-0.5
 32
4.4999999999999991
 13
-1.8
 23
-0.46
 33
4.4999999999999991
  0
3DFACE
  5
33E
  8
RADAR
 10
-1.8400000000000001
 20
-0.5
 30
4.5399999999999991
 11
-1.8400000000000001
 21
-0.5
 31
4.4999999999999991
 12
1.8400000000000001
 22
-0.5
 32
4.4999999999999991
 13
1.8400000000000001
 23
-0.5
 33
4.5399999999999991
  0
3DFACE
  5
33F
  8
RADAR
 10
-1.8
 20
-0.46
 30
4.5399999999999991
 11
-1.8400000000000001
 21
-0.5
 31
4.5399999999999991
 12
1.8400000000000001
 22
-0.5
 32
4.5399999999999991
 13
1.8
 23
-0.46
 33
4.5399999999999991
  0
3DFACE
  5
340
  8
RADAR
 10
-1.8
 20
-0.4599999999999991
 30
4.5
 11
-1.8
 21
-0.4599999999999991
 31
4.5
 12
-1.7999999999999989
 22
0.5
 32
4.4999999999999991
 13
-1.7999999999999989
 23
0.5
 33
4.4999999999999991
  0
3DFACE
  5
341
  8
RADAR
 10
-1.839999999999999
 20
0.5
 30
4.5
 11
-1.839999999999999
 21
0.5
 31
4.4999999999999991
 12
-1.8400000000000001
 22
-0.5
 32
4.4999999999999991
 13
-1.8400000000000001
 23
-0.5
 33
4.4999999999999991
  0
3DFACE
  5
342
  8
RADAR
 10
-1.839999999999999
 20
0.5
 30
4.4999999999999991
 11
-1.7999999999999989
 21
0.5
 31
4.4999999999999991
 12
-1.8
 22
-0.46
 32
4.4999999999999991
 13
-1.8400000000000001
 23
-0.5
 33
4.4999999999999991
  0
3DFACE
  5
343
  8
RADAR
 10
-1.8400000000000001
 20
-0.5
 30
4.4999999999999991
 11
-1.8
 21
-0.4599999999999991
 31
4.5
 12
-1.7999999999999989
 22
0.5
 32
4.4999999999999991
 13
-1.839999999999999
 23
0.5
 33
4.4999999999999991
  0
3DFACE
  5
345
  8
RADAR
 10
1.8
 20
0.5
 30
4.5399999999999991
 11
1.8
 21
0.5
 31
4.4999999999999991
 12
1.8
 22
-0.4600000000000001
 32
4.4999999999999991
 13
1.8
 23
-0.4600000000000001
 33
4.5399999999999991
  0
3DFACE
  5
346
  8
RADAR
 10
1.8400000000000001
 20
-0.5
 30
4.5399999999999991
 11
1.8400000000000001
 21
-0.5
 31
4.4999999999999991
 12
1.8400000000000001
 22
0.5
 32
4.4999999999999991
 13
1.8400000000000001
 23
0.5
 33
4.5399999999999991
  0
3DFACE
  5
347
  8
RADAR
 10
1.8
 20
0.5
 30
4.4999999999999991
 11
1.8400000000000001
 21
0.5
 31
4.4999999999999991
 12
1.8400000000000001
 22
-0.5
 32
4.4999999999999991
 13
1.8
 23
-0.4600000000000001
 33
4.4999999999999991
  0
3DFACE
  5
348
  8
RADAR
 10
1.8
 20
-0.4600000000000001
 30
4.5399999999999991
 11
1.8400000000000001
 21
-0.5
 31
4.5399999999999991
 12
1.8400000000000001
 22
0.5
 32
4.5399999999999991
 13
1.8
 23
0.5
 33
4.5399999999999991
  0
3DFACE
  5
349
  8
RADAR
 10
0.9399999999999998
 20
0.4200000000000009
 30
3.2099999999999991
 11
0.9399999999999998
 21
0.460000000000001
 31
3.2099999999999991
 12
0.94
 22
0.4600000000000005
 32
3.0
 13
0.94
 23
0.4200000000000005
 33
3.0
  0
3DFACE
  5
34A
  8
RADAR
 10
0.94
 20
0.4200000000000005
 30
3.0
 11
0.98
 21
0.4200000000000005
 31
3.0
 12
0.9799999999999998
 22
0.4200000000000009
 32
3.2099999999999991
 13
0.9399999999999998
 23
0.4200000000000009
 33
3.2099999999999991
  0
3DFACE
  5
34B
  8
RADAR
 10
0.98
 20
0.4200000000000005
 30
3.0
 11
0.98
 21
0.4600000000000005
 31
3.0
 12
0.9799999999999998
 22
0.460000000000001
 32
3.2099999999999991
 13
0.9799999999999998
 23
0.4200000000000009
 33
3.2099999999999991
  0
3DFACE
  5
34C
  8
RADAR
 10
0.9399999999999998
 20
0.460000000000001
 30
3.2099999999999991
 11
0.9799999999999998
 21
0.460000000000001
 31
3.2099999999999991
 12
0.98
 22
0.4600000000000005
 32
3.0
 13
0.94
 23
0.4600000000000005
 33
3.0
  0
3DFACE
  5
34D
  8
RADAR
 10
0.9399999999999998
 20
-0.4999999999999992
 30
3.25
 11
0.9400000000000005
 21
-0.4599999999999996
 31
3.25
 12
0.94
 22
-0.4599999999999996
 32
3.0
 13
0.94
 23
-0.4999999999999996
 33
3.0
  0
3DFACE
  5
34E
  8
RADAR
 10
0.94
 20
-0.4999999999999996
 30
3.0
 11
0.98
 21
-0.4999999999999996
 31
3.0
 12
0.9799999999999998
 22
-0.4999999999999992
 32
3.25
 13
0.9399999999999998
 23
-0.4999999999999992
 33
3.25
  0
3DFACE
  5
34F
  8
RADAR
 10
0.98
 20
-0.4999999999999996
 30
3.0
 11
0.98
 21
-0.4599999999999996
 31
3.0
 12
0.9800000000000007
 22
-0.4599999999999996
 32
3.25
 13
0.9799999999999998
 23
-0.4999999999999992
 33
3.25
  0
3DFACE
  5
350
  8
RADAR
 10
0.9399999999999998
 20
-0.4599999999999991
 30
3.2099999999999991
 11
0.9799999999999998
 21
-0.4599999999999991
 31
3.2099999999999991
 12
0.98
 22
-0.4599999999999996
 32
3.0
 13
0.94
 23
-0.4599999999999996
 33
3.0
  0
3DFACE
  5
351
  8
RADAR
 10
0.9399999999999998
 20
-0.4600000000000001
 30
3.21
 11
0.9400000000000005
 21
-0.4599999999999996
 31
3.25
 12
0.94
 22
0.5000000000000006
 32
3.25
 13
0.94
 23
0.5000000000000006
 33
3.21
  0
3DFACE
  5
352
  8
RADAR
 10
0.98
 20
0.5000000000000006
 30
3.21
 11
0.98
 21
0.5000000000000006
 31
3.25
 12
0.9800000000000007
 22
-0.4599999999999996
 32
3.25
 13
0.9799999999999998
 23
-0.4600000000000001
 33
3.21
  0
3DFACE
  5
353
  8
RADAR
 10
0.94
 20
0.5000000000000006
 30
3.21
 11
0.98
 21
0.5000000000000006
 31
3.21
 12
0.9799999999999998
 22
-0.4600000000000001
 32
3.21
 13
0.9399999999999998
 23
-0.4600000000000001
 33
3.21
  0
3DFACE
  5
354
  8
RADAR
 10
0.9400000000000005
 20
-0.4599999999999996
 30
3.25
 11
0.9800000000000007
 21
-0.4599999999999996
 31
3.25
 12
0.98
 22
0.5000000000000006
 32
3.25
 13
0.94
 23
0.5000000000000006
 33
3.25
  0
3DFACE
  5
355
  8
RADAR
 10
-2.9599999999999991
 20
0.5
 30
4.5399999999999991
 11
-3.0
 21
0.5
 31
4.5399999999999991
 12
-1.8400000000000001
 22
-0.5
 32
4.5399999999999991
 13
-1.8400000000000001
 23
-0.46
 33
4.5399999999999991
  0
3DFACE
  5
356
  8
RADAR
 10
-1.8400000000000001
 20
-0.46
 30
4.4999999999999991
 11
-1.8400000000000001
 21
-0.5
 31
4.4999999999999991
 12
-3.0
 22
0.5
 32
4.4999999999999991
 13
-2.9599999999999991
 23
0.5
 33
4.4999999999999991
  0
3DFACE
  5
357
  8
RADAR
 10
-3.0
 20
0.5
 30
4.5399999999999991
 11
-3.0
 21
0.5
 31
4.4999999999999991
 12
-1.8400000000000001
 22
-0.5
 32
4.4999999999999991
 13
-1.8400000000000001
 23
-0.5
 33
4.5399999999999991
  0
3DFACE
  5
358
  8
RADAR
 10
-1.8400000000000001
 20
-0.46
 30
4.5399999999999991
 11
-1.8400000000000001
 21
-0.46
 31
4.4999999999999991
 12
-2.9599999999999991
 22
0.5
 32
4.4999999999999991
 13
-2.9599999999999991
 23
0.5
 33
4.5399999999999991
  0
3DFACE
  5
359
  8
RADAR
 10
2.9599999999999991
 20
0.5
 30
4.5399999999999991
 11
2.9599999999999991
 21
0.5
 31
4.4999999999999991
 12
1.839999999999999
 22
-0.4600000000000001
 32
4.4999999999999991
 13
1.839999999999999
 23
-0.4600000000000001
 33
4.5399999999999991
  0
3DFACE
  5
35A
  8
RADAR
 10
3.0
 20
0.5
 30
4.5399999999999991
 11
2.9599999999999991
 21
0.5
 31
4.5399999999999991
 12
1.839999999999999
 22
-0.4600000000000001
 32
4.5399999999999991
 13
1.839999999999999
 23
-0.5
 33
4.5399999999999991
  0
3DFACE
  5
35B
  8
RADAR
 10
1.839999999999999
 20
-0.5
 30
4.4999999999999991
 11
1.839999999999999
 21
-0.4600000000000001
 31
4.4999999999999991
 12
2.9599999999999991
 22
0.5
 32
4.4999999999999991
 13
3.0
 23
0.5
 33
4.4999999999999991
  0
3DFACE
  5
35C
  8
RADAR
 10
1.839999999999999
 20
-0.5
 30
4.5399999999999991
 11
1.839999999999999
 21
-0.5
 31
4.4999999999999991
 12
3.0
 22
0.5
 32
4.4999999999999991
 13
3.0
 23
0.5
 33
4.5399999999999991
  0
3DFACE
  5
35D
  8
RADAR
 10
-0.02
 20
-0.4600000000000001
 30
4.5399999999999991
 11
0.02
 21
-0.46
 31
4.5399999999999991
 12
0.0200000000000002
 22
0.5
 32
4.5399999999999991
 13
-0.0199999999999998
 23
0.5
 33
4.5399999999999991
  0
3DFACE
  5
35E
  8
RADAR
 10
-0.0199999999999998
 20
0.5
 30
4.4999999999999991
 11
0.0200000000000002
 21
0.5
 31
4.4999999999999991
 12
0.02
 22
-0.46
 32
4.4999999999999991
 13
-0.02
 23
-0.4600000000000001
 33
4.4999999999999991
  0
3DFACE
  5
35F
  8
RADAR
 10
-0.0199999999999998
 20
0.5
 30
4.5399999999999991
 11
-0.0199999999999998
 21
0.5
 31
4.4999999999999991
 12
-0.02
 22
-0.4600000000000001
 32
4.4999999999999991
 13
-0.02
 23
-0.4600000000000001
 33
4.5399999999999991
  0
3DFACE
  5
360
  8
RADAR
 10
0.02
 20
-0.46
 30
4.5399999999999991
 11
0.02
 21
-0.46
 31
4.4999999999999991
 12
0.0200000000000002
 22
0.5
 32
4.4999999999999991
 13
0.0200000000000002
 23
0.5
 33
4.5399999999999991
  0
3DFACE
  5
361
  8
RADAR
 10
-1.8400000000000001
 20
0.4200000000000009
 30
4.5
 11
-1.8400000000000001
 21
0.460000000000001
 31
4.5
 12
-0.98
 22
0.4600000000000005
 32
3.25
 13
-0.98
 23
0.4200000000000005
 33
3.25
  0
3DFACE
  5
362
  8
RADAR
 10
-0.98
 20
0.4200000000000005
 30
3.25
 11
-0.94
 21
0.4200000000000005
 31
3.25
 12
-1.8
 22
0.4200000000000009
 32
4.5
 13
-1.8400000000000001
 23
0.4200000000000009
 33
4.5
  0
3DFACE
  5
363
  8
RADAR
 10
-0.94
 20
0.4200000000000005
 30
3.25
 11
-0.94
 21
0.4600000000000005
 31
3.25
 12
-1.8
 22
0.460000000000001
 32
4.5
 13
-1.8
 23
0.4200000000000009
 33
4.5
  0
3DFACE
  5
364
  8
RADAR
 10
-1.8400000000000001
 20
0.460000000000001
 30
4.5
 11
-1.8
 21
0.460000000000001
 31
4.5
 12
-0.94
 22
0.4600000000000005
 32
3.25
 13
-0.98
 23
0.4600000000000005
 33
3.25
  0
3DFACE
  5
365
  8
RADAR
 10
-1.8400000000000001
 20
-0.5
 30
4.4999999999999991
 11
-1.8400000000000001
 21
-0.4599999999999991
 31
4.5
 12
-0.98
 22
-0.4599999999999996
 32
3.25
 13
-0.98
 23
-0.4999999999999996
 33
3.25
  0
3DFACE
  5
366
  8
RADAR
 10
-0.98
 20
-0.4999999999999996
 30
3.25
 11
-0.94
 21
-0.4999999999999996
 31
3.25
 12
-1.8
 22
-0.4999999999999992
 32
4.5
 13
-1.8400000000000001
 23
-0.5
 33
4.4999999999999991
  0
3DFACE
  5
367
  8
RADAR
 10
-0.94
 20
-0.4999999999999996
 30
3.25
 11
-0.94
 21
-0.4599999999999996
 31
3.25
 12
-1.8
 22
-0.4599999999999991
 32
4.5
 13
-1.8
 23
-0.4999999999999992
 33
4.5
  0
3DFACE
  5
368
  8
RADAR
 10
-1.8400000000000001
 20
-0.4599999999999991
 30
4.5
 11
-1.8
 21
-0.4599999999999991
 31
4.5
 12
-0.94
 22
-0.4599999999999996
 32
3.25
 13
-0.98
 23
-0.4599999999999996
 33
3.25
  0
3DFACE
  5
369
  8
RADAR
 10
0.9399999999999998
 20
-0.4999999999999996
 30
3.25
 11
0.98
 21
-0.4999999999999996
 31
3.25
 12
1.839999999999999
 22
-0.4999999999999992
 32
4.5
 13
1.8
 23
-0.5
 33
4.4999999999999991
  0
3DFACE
  5
36A
  8
RADAR
 10
1.8
 20
-0.5
 30
4.4999999999999991
 11
1.7999999999999989
 21
-0.4599999999999991
 31
4.5
 12
0.9399999999999998
 22
-0.4599999999999996
 32
3.25
 13
0.9399999999999998
 23
-0.4999999999999996
 33
3.25
  0
3DFACE
  5
36B
  8
RADAR
 10
1.7999999999999989
 20
-0.4599999999999991
 30
4.5
 11
1.839999999999999
 21
-0.4599999999999991
 31
4.5
 12
0.98
 22
-0.4599999999999996
 32
3.25
 13
0.9399999999999998
 23
-0.4599999999999996
 33
3.25
  0
3DFACE
  5
36C
  8
RADAR
 10
1.7999999999999989
 20
0.460000000000001
 30
4.5
 11
1.839999999999999
 21
0.460000000000001
 31
4.5
 12
0.98
 22
0.4600000000000005
 32
3.25
 13
0.9399999999999998
 23
0.4600000000000005
 33
3.25
  0
3DFACE
  5
36D
  8
RADAR
 10
1.7999999999999989
 20
0.4200000000000009
 30
4.5
 11
1.7999999999999989
 21
0.460000000000001
 31
4.5
 12
0.9399999999999998
 22
0.4600000000000005
 32
3.25
 13
0.9399999999999998
 23
0.4200000000000005
 33
3.25
  0
3DFACE
  5
36E
  8
RADAR
 10
0.9399999999999998
 20
0.4200000000000005
 30
3.25
 11
0.98
 21
0.4200000000000005
 31
3.25
 12
1.839999999999999
 22
0.4200000000000009
 32
4.5
 13
1.7999999999999989
 23
0.4200000000000009
 33
4.5
  0
3DFACE
  5
36F
  8
RADAR
 10
0.98
 20
-0.4999999999999996
 30
3.25
 11
0.98
 21
-0.4599999999999996
 31
3.25
 12
1.839999999999999
 22
-0.4599999999999991
 32
4.5
 13
1.839999999999999
 23
-0.4999999999999992
 33
4.5
  0
3DFACE
  5
370
  8
RADAR
 10
0.98
 20
0.4200000000000005
 30
3.25
 11
0.98
 21
0.4600000000000005
 31
3.25
 12
1.839999999999999
 22
0.460000000000001
 32
4.5
 13
1.839999999999999
 23
0.4200000000000009
 33
4.5
  0
3DFACE
  5
38B
  8
RADAR
 10
-1.5349999999999999
 20
0.4200000000000001
 30
4.1100000000000003
 11
-1.55
 21
0.4200000000000001
 31
4.125
 12
-1.55
 22
-0.4600000000000001
 32
4.125
 13
-1.5349999999999999
 23
-0.4600000000000001
 33
4.1100000000000003
  0
3DFACE
  5
38C
  8
RADAR
 10
-1.55
 20
0.4200000000000001
 30
4.125
 11
-1.5649999999999991
 21
0.4200000000000001
 31
4.1100000000000003
 12
-1.5649999999999991
 22
-0.4600000000000001
 32
4.1100000000000003
 13
-1.55
 23
-0.4600000000000001
 33
4.125
  0
3DFACE
  5
38D
  8
RADAR
 10
-1.5649999999999991
 20
0.4200000000000001
 30
4.1100000000000003
 11
-1.55
 21
0.4200000000000001
 31
4.0949999999999998
 12
-1.55
 22
-0.4600000000000001
 32
4.0949999999999998
 13
-1.5649999999999991
 23
-0.4600000000000001
 33
4.1100000000000003
  0
3DFACE
  5
38E
  8
RADAR
 10
-1.55
 20
0.4200000000000001
 30
4.0949999999999998
 11
-1.5349999999999999
 21
0.4200000000000001
 31
4.1100000000000003
 12
-1.5349999999999999
 22
-0.4600000000000001
 32
4.1100000000000003
 13
-1.55
 23
-0.4600000000000001
 33
4.0949999999999998
  0
3DFACE
  5
38F
  8
RADAR
 10
-1.26
 20
0.4200000000000001
 30
3.6749999999999998
 11
-1.2450000000000001
 21
0.4200000000000001
 31
3.6899999999999991
 12
-1.2450000000000001
 22
-0.4600000000000001
 32
3.6899999999999991
 13
-1.26
 23
-0.4600000000000001
 33
3.6749999999999998
  0
3DFACE
  5
390
  8
RADAR
 10
-1.274999999999999
 20
0.4200000000000001
 30
3.6899999999999991
 11
-1.26
 21
0.4200000000000001
 31
3.6749999999999998
 12
-1.26
 22
-0.4600000000000001
 32
3.6749999999999998
 13
-1.274999999999999
 23
-0.4600000000000001
 33
3.6899999999999991
  0
3DFACE
  5
391
  8
RADAR
 10
-1.26
 20
0.4200000000000001
 30
3.7049999999999992
 11
-1.274999999999999
 21
0.4200000000000001
 31
3.6899999999999991
 12
-1.274999999999999
 22
-0.4600000000000001
 32
3.6899999999999991
 13
-1.26
 23
-0.4600000000000001
 33
3.7049999999999992
  0
3DFACE
  5
392
  8
RADAR
 10
-1.2450000000000001
 20
0.4200000000000001
 30
3.6899999999999991
 11
-1.26
 21
0.4200000000000001
 31
3.7049999999999992
 12
-1.26
 22
-0.4600000000000001
 32
3.7049999999999992
 13
-1.2450000000000001
 23
-0.4600000000000001
 33
3.6899999999999991
  0
3DFACE
  5
393
  8
RADAR
 10
1.26
 20
-0.4600000000000004
 30
3.6749999999999998
 11
1.2450000000000001
 21
-0.4600000000000004
 31
3.6899999999999991
 12
1.2450000000000001
 22
0.4199999999999995
 32
3.6899999999999991
 13
1.26
 23
0.4199999999999995
 33
3.6749999999999998
  0
3DFACE
  5
394
  8
RADAR
 10
1.274999999999999
 20
-0.4600000000000004
 30
3.6899999999999991
 11
1.26
 21
-0.4600000000000004
 31
3.6749999999999998
 12
1.26
 22
0.4199999999999995
 32
3.6749999999999998
 13
1.274999999999999
 23
0.4199999999999995
 33
3.6899999999999991
  0
3DFACE
  5
395
  8
RADAR
 10
1.26
 20
-0.4600000000000004
 30
3.7049999999999992
 11
1.274999999999999
 21
-0.4600000000000004
 31
3.6899999999999991
 12
1.274999999999999
 22
0.4199999999999995
 32
3.6899999999999991
 13
1.26
 23
0.4199999999999995
 33
3.7049999999999992
  0
3DFACE
  5
396
  8
RADAR
 10
1.2450000000000001
 20
-0.4600000000000004
 30
3.6899999999999991
 11
1.26
 21
-0.4600000000000004
 31
3.7049999999999992
 12
1.26
 22
0.4199999999999995
 32
3.7049999999999992
 13
1.2450000000000001
 23
0.4199999999999995
 33
3.6899999999999991
  0
3DFACE
  5
397
  8
RADAR
 10
1.55
 20
-0.4600000000000004
 30
4.0949999999999998
 11
1.5349999999999999
 21
-0.4600000000000004
 31
4.1100000000000003
 12
1.5349999999999999
 22
0.4199999999999995
 32
4.1100000000000003
 13
1.55
 23
0.4199999999999995
 33
4.0949999999999998
  0
3DFACE
  5
398
  8
RADAR
 10
1.5649999999999991
 20
-0.4600000000000004
 30
4.1100000000000003
 11
1.55
 21
-0.4600000000000004
 31
4.0949999999999998
 12
1.55
 22
0.4199999999999995
 32
4.0949999999999998
 13
1.5649999999999991
 23
0.4199999999999995
 33
4.1100000000000003
  0
3DFACE
  5
399
  8
RADAR
 10
1.55
 20
-0.4600000000000004
 30
4.125
 11
1.5649999999999991
 21
-0.4600000000000004
 31
4.1100000000000003
 12
1.5649999999999991
 22
0.4199999999999995
 32
4.1100000000000003
 13
1.55
 23
0.4199999999999995
 33
4.125
  0
3DFACE
  5
39A
  8
RADAR
 10
1.5349999999999999
 20
-0.4600000000000004
 30
4.1100000000000003
 11
1.55
 21
-0.4600000000000004
 31
4.125
 12
1.55
 22
0.4199999999999995
 32
4.125
 13
1.5349999999999999
 23
0.4199999999999995
 33
4.1100000000000003
  0
3DFACE
  5
39C
  8
RADAR
 10
0.02
 20
0.5
 30
4.5399999999999991
 11
0.02
 21
0.5
 31
4.4999999999999991
 12
1.728799999999999
 22
-0.46
 32
4.4999999999999991
 13
1.728799999999999
 23
-0.46
 33
4.5399999999999991
  0
3DFACE
  5
39D
  8
RADAR
 10
0.0600000000000001
 20
0.5
 30
4.5399999999999991
 11
0.02
 21
0.5
 31
4.5399999999999991
 12
1.728799999999999
 22
-0.46
 32
4.5399999999999991
 13
1.8
 23
-0.46
 33
4.5399999999999991
  0
3DFACE
  5
39E
  8
RADAR
 10
1.8
 20
-0.46
 30
4.4999999999999991
 11
1.728799999999999
 21
-0.46
 31
4.4999999999999991
 12
0.02
 22
0.5
 32
4.4999999999999991
 13
0.0600000000000001
 23
0.5
 33
4.4999999999999991
  0
3DFACE
  5
39F
  8
RADAR
 10
1.8
 20
-0.46
 30
4.5399999999999991
 11
1.8
 21
-0.46
 31
4.4999999999999991
 12
0.0600000000000001
 22
0.5
 32
4.4999999999999991
 13
0.0600000000000001
 23
0.5
 33
4.5399999999999991
  0
3DFACE
  5
3A0
  8
RADAR
 10
-0.02
 20
0.5
 30
4.5399999999999991
 11
-0.0600000000000001
 21
0.5
 31
4.5399999999999991
 12
-1.8
 22
-0.4600000000000001
 32
4.5399999999999991
 13
-1.7287999999999999
 23
-0.46
 33
4.5399999999999991
  0
3DFACE
  5
3A1
  8
RADAR
 10
-1.7287999999999999
 20
-0.46
 30
4.5399999999999991
 11
-1.7287999999999999
 21
-0.46
 31
4.4999999999999991
 12
-0.02
 22
0.5
 32
4.4999999999999991
 13
-0.02
 23
0.5
 33
4.5399999999999991
  0
3DFACE
  5
3A2
  8
RADAR
 10
-1.7287999999999999
 20
-0.46
 30
4.4999999999999991
 11
-1.8
 21
-0.4600000000000001
 31
4.4999999999999991
 12
-0.0600000000000001
 22
0.5
 32
4.4999999999999991
 13
-0.02
 23
0.5
 33
4.4999999999999991
  0
3DFACE
  5
3A3
  8
RADAR
 10
-0.0600000000000001
 20
0.5
 30
4.5399999999999991
 11
-0.0600000000000001
 21
0.5
 31
4.4999999999999991
 12
-1.8
 22
-0.4600000000000001
 32
4.4999999999999991
 13
-1.8
 23
-0.4600000000000001
 33
4.5399999999999991
  0
3DFACE
  5
3AD
  8
RADAR
 10
-0.0199999999999993
 20
0.5400000000000002
 30
4.5599999999999996
 11
0.0200000000000007
 21
0.5400000000000002
 31
4.5599999999999996
 12
0.0200000000000003
 22
0.5400000000000002
 32
4.54
 13
-0.0199999999999998
 23
0.5400000000000002
 33
4.54
  0
3DFACE
  5
3AE
  8
RADAR
 10
-0.0199999999999998
 20
0.5400000000000002
 30
4.54
 11
-0.0199999999999998
 21
0.5
 31
4.54
 12
-0.0199999999999993
 22
0.5
 32
4.5599999999999996
 13
-0.0199999999999993
 23
0.5400000000000002
 33
4.5599999999999996
  0
3DFACE
  5
3AF
  8
RADAR
 10
-0.0199999999999998
 20
0.5
 30
4.54
 11
0.0200000000000003
 21
0.5
 31
4.54
 12
0.0200000000000007
 22
0.5
 32
4.5599999999999996
 13
-0.0199999999999993
 23
0.5
 33
4.5599999999999996
  0
3DFACE
  5
3B0
  8
RADAR
 10
0.0200000000000007
 20
0.5400000000000002
 30
4.5599999999999996
 11
0.0200000000000007
 21
0.5
 31
4.5599999999999996
 12
0.0200000000000003
 22
0.5
 32
4.54
 13
0.0200000000000003
 23
0.5400000000000002
 33
4.54
  0
VIEWPORT
  5
2E
 67
     1
  8
0
 10
144.7270812988281
 20
101.2295806407928
 30
0.0
 40
391.13550988316581
 41
222.15178063964839
 68
     2
 69
     1
1001
ACAD
1000
MVIEW
1002
{
1070
    16
1010
0.0
1020
0.0
1030
0.0
1010
0.0
1020
0.0
1030
1.0
1040
0.0
1040
222.15178063964839
1040
144.7270812988281
1040
101.2295806407928
1040
50.0
1040
0.0
1040
0.0
1070
     0
1070
   100
1070
     1
1070
     1
1070
     0
1070
     0
1070
     0
1070
     0
1040
0.0
1040
0.0
1040
0.0
1040
10.0
1040
10.0
1040
10.0
1040
10.0
1070
     0
1002
{
1002
}
1002
}
  0
VIEWPORT
  5
30
 67
     1
  8
0
 10
139.22375631332389
 20
100.8062499761581
 30
0.0
 40
222.75801010131829
 41
161.289999961853
 68
     1
 69
     2
1001
ACAD
1000
MVIEW
1002
{
1070
    16
1010
0.0
1020
0.0
1030
0.0
1010
0.0
1020
0.0
1030
1.0
1040
0.0
1040
307.49010134148989
1040
210.0
1040
148.5
1040
50.0
1040
0.0
1040
0.0
1070
     0
1070
   100
1070
     1
1070
     3
1070
     0
1070
     1
1070
     0
1070
     0
1040
0.0
1040
0.0
1040
0.0
1040
10.0
1040
10.0
1040
10.0
1040
10.0
1070
     0
1002
{
1002
}
1002
}
  0
ENDSEC
  0
EOF
