  0
SECTION
  2
HEADER
  9
$ACADVER
  1
AC1009
  9
$INSBASE
 10
0.0
 20
0.0
 30
0.0
  9
$EXTMIN
 10
-0.94
 20
-8.09816
 30
-3.879999999999999
  9
$EXTMAX
 10
1.0
 20
9.0199999999999996
 30
8.9169117241379308
  9
$LIMMIN
 10
0.0
 20
0.0
  9
$LIMMAX
 10
420.0
 20
297.0
  9
$ORTHOMODE
 70
     1
  9
$REGENMODE
 70
     1
  9
$FILLMODE
 70
     1
  9
$QTEXTMODE
 70
     0
  9
$MIRRTEXT
 70
     1
  9
$DRAGMODE
 70
     2
  9
$LTSCALE
 40
1.0
  9
$OSMODE
 70
    35
  9
$ATTMODE
 70
     1
  9
$TEXTSIZE
 40
2.5
  9
$TRACEWID
 40
1.0
  9
$TEXTSTYLE
  7
STANDARD
  9
$CLAYER
  8
WHEELS
  9
$CELTYPE
  6
BYLAYER
  9
$CECOLOR
 62
   256
  9
$DIMSCALE
 40
1.0
  9
$DIMASZ
 40
2.5
  9
$DIMEXO
 40
0.625
  9
$DIMDLI
 40
3.75
  9
$DIMRND
 40
0.0
  9
$DIMDLE
 40
0.0
  9
$DIMEXE
 40
1.25
  9
$DIMTP
 40
0.0
  9
$DIMTM
 40
0.0
  9
$DIMTXT
 40
2.5
  9
$DIMCEN
 40
2.5
  9
$DIMTSZ
 40
0.0
  9
$DIMTOL
 70
     0
  9
$DIMLIM
 70
     0
  9
$DIMTIH
 70
     0
  9
$DIMTOH
 70
     0
  9
$DIMSE1
 70
     0
  9
$DIMSE2
 70
     0
  9
$DIMTAD
 70
     1
  9
$DIMZIN
 70
     8
  9
$DIMBLK
  1

  9
$DIMASO
 70
     1
  9
$DIMSHO
 70
     1
  9
$DIMPOST
  1

  9
$DIMAPOST
  1

  9
$DIMALT
 70
     0
  9
$DIMALTD
 70
     3
  9
$DIMALTF
 40
0.03937007874016
  9
$DIMLFAC
 40
1.0
  9
$DIMTOFL
 70
     1
  9
$DIMTVP
 40
0.0
  9
$DIMTIX
 70
     0
  9
$DIMSOXD
 70
     0
  9
$DIMSAH
 70
     0
  9
$DIMBLK1
  1

  9
$DIMBLK2
  1

  9
$DIMSTYLE
  2
ISO-25
  9
$DIMCLRD
 70
     0
  9
$DIMCLRE
 70
     0
  9
$DIMCLRT
 70
     0
  9
$DIMTFAC
 40
1.0
  9
$DIMGAP
 40
0.625
  9
$LUNITS
 70
     2
  9
$LUPREC
 70
     4
  9
$SKETCHINC
 40
1.0
  9
$FILLETRAD
 40
10.0
  9
$AUNITS
 70
     0
  9
$AUPREC
 70
     0
  9
$MENU
  1
.
  9
$ELEVATION
 40
0.0
  9
$PELEVATION
 40
0.0
  9
$THICKNESS
 40
0.0
  9
$LIMCHECK
 70
     0
  9
$BLIPMODE
 70
     0
  9
$CHAMFERA
 40
10.0
  9
$CHAMFERB
 40
10.0
  9
$SKPOLY
 70
     0
  9
$TDCREATE
 40
2458129.5047071991
  9
$TDUPDATE
 40
2458130.5734742009
  9
$TDINDWG
 40
0.7026093403
  9
$TDUSRTIMER
 40
0.7026093287
  9
$USRTIMER
 70
     1
  9
$ANGBASE
 50
0.0
  9
$ANGDIR
 70
     0
  9
$PDMODE
 70
     0
  9
$PDSIZE
 40
0.0
  9
$PLINEWID
 40
0.0
  9
$COORDS
 70
     1
  9
$SPLFRAME
 70
     0
  9
$SPLINETYPE
 70
     6
  9
$SPLINESEGS
 70
     8
  9
$ATTDIA
 70
     1
  9
$ATTREQ
 70
     1
  9
$HANDLING
 70
-16383
  9
$HANDSEED
  5
E96
  9
$SURFTAB1
 70
     6
  9
$SURFTAB2
 70
     6
  9
$SURFTYPE
 70
     6
  9
$SURFU
 70
     6
  9
$SURFV
 70
     6
  9
$UCSNAME
  2

  9
$UCSORG
 10
0.0
 20
0.0
 30
0.0
  9
$UCSXDIR
 10
0.0
 20
-1.0
 30
0.0
  9
$UCSYDIR
 10
0.0
 20
0.0
 30
1.0
  9
$PUCSNAME
  2

  9
$PUCSORG
 10
0.0
 20
0.0
 30
0.0
  9
$PUCSXDIR
 10
1.0
 20
0.0
 30
0.0
  9
$PUCSYDIR
 10
0.0
 20
1.0
 30
0.0
  9
$USERI1
 70
     0
  9
$USERI2
 70
     0
  9
$USERI3
 70
     0
  9
$USERI4
 70
     0
  9
$USERI5
 70
     0
  9
$USERR1
 40
0.0
  9
$USERR2
 40
0.0
  9
$USERR3
 40
0.0
  9
$USERR4
 40
0.0
  9
$USERR5
 40
0.0
  9
$WORLDVIEW
 70
     1
  9
$SHADEDGE
 70
     3
  9
$SHADEDIF
 70
    70
  9
$TILEMODE
 70
     1
  9
$MAXACTVP
 70
    64
  9
$PLIMCHECK
 70
     0
  9
$PEXTMIN
 10
27.844751262664801
 20
20.161249995231621
 30
0.0
  9
$PEXTMAX
 10
250.60276136398309
 20
181.4512499570846
 30
0.0
  9
$PLIMMIN
 10
-3.757080078125
 20
-3.7570831775665279
  9
$PLIMMAX
 10
293.21124267578119
 20
206.21624445915219
  9
$UNITMODE
 70
     0
  9
$VISRETAIN
 70
     1
  9
$PLINEGEN
 70
     0
  9
$PSLTSCALE
 70
     1
  0
ENDSEC
  0
SECTION
  2
TABLES
  0
TABLE
  2
VPORT
 70
    25
  0
VPORT
  2
*ACTIVE
 70
     0
 10
0.0
 20
0.0
 11
1.0
 21
1.0
 12
-0.111217200140338
 22
0.3725333413775615
 13
0.0
 23
0.0
 14
0.01
 24
0.01
 15
1.0
 25
1.0
 16
-1.0
 26
0.0
 36
0.0
 17
0.0
 27
0.0
 37
0.0
 40
2.6681243100678671
 41
2.1655092592592591
 42
50.0
 43
0.0
 44
0.0
 50
0.0
 51
0.0
 71
     0
 72
   100
 73
     1
 74
     3
 75
     1
 76
     1
 77
     0
 78
     0
  0
ENDTAB
  0
TABLE
  2
LTYPE
 70
     1
  0
LTYPE
  2
CONTINUOUS
 70
     0
  3
Solid line
 72
    65
 73
     0
 40
0.0
  0
ENDTAB
  0
TABLE
  2
LAYER
 70
    10
  0
LAYER
  2
0
 70
     0
 62
     7
  6
CONTINUOUS
  0
LAYER
  2
_REF
 70
     0
 62
     9
  6
CONTINUOUS
  0
LAYER
  2
_TMP
 70
     0
 62
     4
  6
CONTINUOUS
  0
LAYER
  2
FRAME
 70
     0
 62
     5
  6
CONTINUOUS
  0
LAYER
  2
WHEELS
 70
     0
 62
     2
  6
CONTINUOUS
  0
LAYER
  2
FENDERS
 70
     0
 62
     6
  6
CONTINUOUS
  0
LAYER
  2
TURRET
 70
     0
 62
     2
  6
CONTINUOUS
  0
LAYER
  2
SLEEVE_MG
 70
     0
 62
     5
  6
CONTINUOUS
  0
LAYER
  2
SLEEVE_37
 70
     0
 62
     5
  6
CONTINUOUS
  0
LAYER
  2
BARREL_37
 70
     0
 62
     1
  6
CONTINUOUS
  0
ENDTAB
  0
TABLE
  2
STYLE
 70
     1
  0
STYLE
  2
STANDARD
 70
     0
 40
0.0
 41
1.0
 50
0.0
 71
     0
 42
2.5
  3
txt
  4

  0
ENDTAB
  0
TABLE
  2
VIEW
 70
     0
  0
ENDTAB
  0
TABLE
  2
UCS
 70
     0
  0
ENDTAB
  0
TABLE
  2
APPID
 70
     1
  0
APPID
  2
ACAD
 70
     0
  0
ENDTAB
  0
TABLE
  2
DIMSTYLE
 70
     1
  0
DIMSTYLE
  2
ISO-25
 70
     0
  3

  4

  5

  6

  7

 40
1.0
 41
2.5
 42
0.625
 43
3.75
 44
1.25
 45
0.0
 46
0.0
 47
0.0
 48
0.0
140
2.5
141
2.5
142
0.0
143
0.03937007874016
144
1.0
145
0.0
146
1.0
147
0.625
 71
     0
 72
     0
 73
     0
 74
     0
 75
     0
 76
     0
 77
     1
 78
     8
170
     0
171
     3
172
     1
173
     0
174
     0
175
     0
176
     0
177
     0
178
     0
  0
ENDTAB
  0
ENDSEC
  0
SECTION
  2
BLOCKS
  0
BLOCK
  8
0
  2
$MODEL_SPACE
 70
     0
 10
0.0
 20
0.0
 30
0.0
  3
$MODEL_SPACE
  1

  0
ENDBLK
  5
21
  8
0
  0
BLOCK
 67
     1
  8
0
  2
$PAPER_SPACE
 70
     0
 10
0.0
 20
0.0
 30
0.0
  3
$PAPER_SPACE
  1

  0
ENDBLK
  5
1D
 67
     1
  8
0
  0
ENDSEC
  0
SECTION
  2
ENTITIES
  0
3DFACE
  5
524
  8
WHEELS
 10
-0.5700000000000001
 20
0.3899999999999999
 30
0.0000000000000001
 11
-0.5700000000000001
 21
0.3377499074759311
 31
0.195
 12
-0.5300000000000001
 22
0.2857883832488648
 32
0.1650000000000001
 13
-0.5300000000000001
 23
0.3300000000000001
 33
0.0000000000000001
  0
3DFACE
  5
525
  8
WHEELS
 10
-0.5700000000000001
 20
0.3377499074759311
 30
0.195
 11
-0.5700000000000001
 21
0.1950000000000001
 31
0.337749907475931
 12
-0.5300000000000001
 22
0.1649999999999998
 32
0.2857883832488649
 13
-0.5300000000000001
 23
0.2857883832488648
 33
0.1650000000000001
  0
3DFACE
  5
526
  8
WHEELS
 10
-0.5700000000000001
 20
0.1950000000000001
 30
0.337749907475931
 11
-0.5700000000000001
 21
-0.0000000000000002
 31
0.3900000000000002
 12
-0.5300000000000001
 22
-0.0000000000000002
 32
0.3300000000000002
 13
-0.5300000000000001
 23
0.1649999999999998
 33
0.2857883832488649
  0
3DFACE
  5
527
  8
WHEELS
 10
-0.5700000000000001
 20
-0.0000000000000002
 30
0.3900000000000002
 11
-0.5700000000000001
 21
-0.1949999999999996
 31
0.337749907475931
 12
-0.5300000000000003
 22
-0.1650000000000003
 32
0.2857883832488649
 13
-0.5300000000000001
 23
-0.0000000000000002
 33
0.3300000000000002
  0
3DFACE
  5
528
  8
WHEELS
 10
-0.5700000000000001
 20
-0.1949999999999996
 30
0.337749907475931
 11
-0.5700000000000001
 21
-0.3377499074759311
 31
0.1950000000000004
 12
-0.5300000000000003
 22
-0.2857883832488646
 32
0.1650000000000001
 13
-0.5300000000000003
 23
-0.1650000000000003
 33
0.2857883832488649
  0
3DFACE
  5
529
  8
WHEELS
 10
-0.5700000000000001
 20
-0.3377499074759311
 30
0.1950000000000004
 11
-0.5700000000000001
 21
-0.3899999999999999
 31
0.0000000000000001
 12
-0.5300000000000003
 22
-0.3300000000000003
 32
0.0000000000000001
 13
-0.5300000000000003
 23
-0.2857883832488646
 33
0.1650000000000001
  0
3DFACE
  5
52A
  8
WHEELS
 10
-0.5700000000000001
 20
-0.3899999999999999
 30
0.0000000000000001
 11
-0.5700000000000001
 21
-0.3377499074759311
 31
-0.1949999999999997
 12
-0.5300000000000003
 22
-0.285788383248865
 32
-0.1649999999999995
 13
-0.5300000000000003
 23
-0.3300000000000003
 33
0.0000000000000001
  0
3DFACE
  5
52B
  8
WHEELS
 10
-0.5700000000000001
 20
-0.3377499074759311
 30
-0.1949999999999997
 11
-0.5700000000000001
 21
-0.1950000000000001
 31
-0.3377499074759308
 12
-0.5300000000000003
 22
-0.1650000000000003
 32
-0.2857883832488647
 13
-0.5300000000000003
 23
-0.285788383248865
 33
-0.1649999999999995
  0
3DFACE
  5
52C
  8
WHEELS
 10
-0.5700000000000001
 20
-0.1950000000000001
 30
-0.3377499074759308
 11
-0.5700000000000001
 21
-0.0000000000000002
 31
-0.39
 12
-0.5300000000000001
 22
-0.0000000000000002
 32
-0.33
 13
-0.5300000000000003
 23
-0.1650000000000003
 33
-0.2857883832488647
  0
3DFACE
  5
52D
  8
WHEELS
 10
-0.5700000000000001
 20
-0.0000000000000002
 30
-0.39
 11
-0.5700000000000001
 21
0.1950000000000001
 31
-0.3377499074759308
 12
-0.5300000000000001
 22
0.1649999999999998
 32
-0.2857883832488647
 13
-0.5300000000000001
 23
-0.0000000000000002
 33
-0.33
  0
3DFACE
  5
52E
  8
WHEELS
 10
-0.5700000000000001
 20
0.1950000000000001
 30
-0.3377499074759308
 11
-0.5700000000000001
 21
0.3377499074759311
 31
-0.1949999999999997
 12
-0.5300000000000001
 22
0.2857883832488648
 32
-0.1649999999999999
 13
-0.5300000000000001
 23
0.1649999999999998
 33
-0.2857883832488647
  0
3DFACE
  5
52F
  8
WHEELS
 10
-0.5700000000000001
 20
0.3377499074759311
 30
-0.1949999999999997
 11
-0.5700000000000001
 21
0.3899999999999999
 31
0.0000000000000001
 12
-0.5300000000000001
 22
0.3300000000000001
 32
0.0000000000000001
 13
-0.5300000000000001
 23
0.2857883832488648
 33
-0.1649999999999999
  0
3DFACE
  5
530
  8
WHEELS
 10
-0.6700000000000002
 20
0.26
 30
0.0000000000000001
 11
-0.6700000000000002
 21
0.225166604983954
 31
-0.1299999999999998
 12
-0.65
 22
0.1991858428704212
 32
-0.1149999999999997
 13
-0.65
 23
0.2300000000000002
 33
0.0000000000000001
  0
3DFACE
  5
531
  8
WHEELS
 10
-0.6700000000000002
 20
0.225166604983954
 30
-0.1299999999999998
 11
-0.6700000000000002
 21
0.1300000000000001
 31
-0.2251666049839541
 12
-0.65
 22
0.115
 32
-0.1991858428704208
 13
-0.65
 23
0.1991858428704212
 33
-0.1149999999999997
  0
3DFACE
  5
532
  8
WHEELS
 10
-0.6700000000000002
 20
0.1300000000000001
 30
-0.2251666049839541
 11
-0.6700000000000002
 21
-0.0000000000000002
 31
-0.2600000000000001
 12
-0.65
 22
-0.0000000000000002
 32
-0.2299999999999999
 13
-0.65
 23
0.115
 33
-0.1991858428704208
  0
3DFACE
  5
533
  8
WHEELS
 10
-0.6700000000000002
 20
-0.0000000000000002
 30
-0.2600000000000001
 11
-0.6700000000000002
 21
-0.1300000000000001
 31
-0.2251666049839541
 12
-0.6500000000000002
 22
-0.115
 32
-0.1991858428704208
 13
-0.65
 23
-0.0000000000000002
 33
-0.2299999999999999
  0
3DFACE
  5
534
  8
WHEELS
 10
-0.6700000000000002
 20
-0.1300000000000001
 30
-0.2251666049839541
 11
-0.6700000000000002
 21
-0.225166604983954
 31
-0.1299999999999998
 12
-0.6500000000000002
 22
-0.1991858428704207
 32
-0.1150000000000001
 13
-0.6500000000000002
 23
-0.115
 33
-0.1991858428704208
  0
3DFACE
  5
535
  8
WHEELS
 10
-0.6700000000000002
 20
-0.225166604983954
 30
-0.1299999999999998
 11
-0.6700000000000002
 21
-0.26
 31
0.0000000000000001
 12
-0.6500000000000002
 22
-0.2299999999999998
 32
0.0000000000000001
 13
-0.6500000000000002
 23
-0.1991858428704207
 33
-0.1150000000000001
  0
3DFACE
  5
536
  8
WHEELS
 10
-0.6700000000000002
 20
-0.26
 30
0.0000000000000001
 11
-0.6700000000000002
 21
-0.225166604983954
 31
0.13
 12
-0.6500000000000002
 22
-0.1991858428704207
 32
0.1149999999999999
 13
-0.6500000000000002
 23
-0.2299999999999998
 33
0.0000000000000001
  0
3DFACE
  5
537
  8
WHEELS
 10
-0.6700000000000002
 20
-0.225166604983954
 30
0.13
 11
-0.6700000000000002
 21
-0.1300000000000001
 31
0.2251666049839539
 12
-0.6500000000000002
 22
-0.115
 32
0.1991858428704211
 13
-0.6500000000000002
 23
-0.1991858428704207
 33
0.1149999999999999
  0
3DFACE
  5
538
  8
WHEELS
 10
-0.6700000000000002
 20
-0.1300000000000001
 30
0.2251666049839539
 11
-0.6700000000000002
 21
-0.0000000000000002
 31
0.2600000000000003
 12
-0.65
 22
-0.0000000000000002
 32
0.2300000000000001
 13
-0.6500000000000002
 23
-0.115
 33
0.1991858428704211
  0
3DFACE
  5
539
  8
WHEELS
 10
-0.6700000000000002
 20
-0.0000000000000002
 30
0.2600000000000003
 11
-0.6700000000000002
 21
0.1300000000000001
 31
0.2251666049839543
 12
-0.65
 22
0.115
 32
0.1991858428704211
 13
-0.65
 23
-0.0000000000000002
 33
0.2300000000000001
  0
3DFACE
  5
53A
  8
WHEELS
 10
-0.6700000000000002
 20
0.1300000000000001
 30
0.2251666049839543
 11
-0.6700000000000002
 21
0.225166604983954
 31
0.13
 12
-0.65
 22
0.1991858428704212
 32
0.1149999999999999
 13
-0.65
 23
0.115
 33
0.1991858428704211
  0
3DFACE
  5
53B
  8
WHEELS
 10
-0.6700000000000002
 20
0.225166604983954
 30
0.13
 11
-0.6700000000000002
 21
0.26
 31
0.0000000000000001
 12
-0.65
 22
0.2300000000000002
 32
0.0000000000000001
 13
-0.65
 23
0.1991858428704212
 33
0.1149999999999999
  0
3DFACE
  5
53C
  8
WHEELS
 10
-0.6900000000000001
 20
-0.2900000000000003
 30
0.0000000000000001
 11
-0.6900000000000001
 21
-0.2511473670974873
 31
0.1450000000000001
 12
-0.6700000000000002
 22
-0.225166604983954
 32
0.13
 13
-0.6700000000000002
 23
-0.26
 33
0.0000000000000001
  0
3DFACE
  5
53D
  8
WHEELS
 10
-0.6900000000000001
 20
-0.2511473670974873
 30
0.1450000000000001
 11
-0.6900000000000001
 21
-0.1449999999999998
 31
0.2511473670974872
 12
-0.6700000000000002
 22
-0.1300000000000001
 32
0.2251666049839543
 13
-0.6700000000000002
 23
-0.225166604983954
 33
0.13
  0
3DFACE
  5
53E
  8
WHEELS
 10
-0.6900000000000001
 20
-0.1449999999999998
 30
0.2511473670974872
 11
-0.6900000000000001
 21
-0.0000000000000002
 31
0.2900000000000001
 12
-0.6700000000000002
 22
-0.0000000000000002
 32
0.2600000000000003
 13
-0.6700000000000002
 23
-0.1300000000000001
 33
0.2251666049839543
  0
3DFACE
  5
53F
  8
WHEELS
 10
-0.6900000000000001
 20
-0.0000000000000002
 30
0.2900000000000001
 11
-0.6900000000000001
 21
0.1450000000000002
 31
0.2511473670974872
 12
-0.6700000000000002
 22
0.1299999999999997
 32
0.2251666049839543
 13
-0.6700000000000002
 23
-0.0000000000000002
 33
0.2600000000000003
  0
3DFACE
  5
540
  8
WHEELS
 10
-0.6900000000000001
 20
0.1450000000000002
 30
0.2511473670974872
 11
-0.6900000000000001
 21
0.2511473670974869
 31
0.1450000000000001
 12
-0.6700000000000002
 22
0.225166604983954
 32
0.13
 13
-0.6700000000000002
 23
0.1299999999999997
 33
0.2251666049839543
  0
3DFACE
  5
541
  8
WHEELS
 10
-0.6900000000000001
 20
0.2511473670974869
 30
0.1450000000000001
 11
-0.6900000000000001
 21
0.29
 31
0.0000000000000001
 12
-0.6700000000000002
 22
0.26
 32
0.0000000000000001
 13
-0.6700000000000002
 23
0.225166604983954
 33
0.13
  0
3DFACE
  5
542
  8
WHEELS
 10
-0.6900000000000001
 20
0.29
 30
0.0000000000000001
 11
-0.6900000000000001
 21
0.2511473670974873
 31
-0.1449999999999999
 12
-0.6700000000000002
 22
0.225166604983954
 32
-0.1299999999999998
 13
-0.6700000000000002
 23
0.26
 33
0.0000000000000001
  0
3DFACE
  5
543
  8
WHEELS
 10
-0.6900000000000001
 20
0.2511473670974873
 30
-0.1449999999999999
 11
-0.6900000000000001
 21
0.1450000000000002
 31
-0.251147367097487
 12
-0.6700000000000002
 22
0.1300000000000001
 32
-0.2251666049839537
 13
-0.6700000000000002
 23
0.225166604983954
 33
-0.1299999999999998
  0
3DFACE
  5
544
  8
WHEELS
 10
-0.6900000000000001
 20
0.1450000000000002
 30
-0.251147367097487
 11
-0.6900000000000001
 21
-0.0000000000000002
 31
-0.29
 12
-0.6700000000000002
 22
-0.0000000000000002
 32
-0.2600000000000001
 13
-0.6700000000000002
 23
0.1300000000000001
 33
-0.2251666049839537
  0
3DFACE
  5
545
  8
WHEELS
 10
-0.6900000000000001
 20
-0.0000000000000002
 30
-0.29
 11
-0.6900000000000001
 21
-0.1449999999999998
 31
-0.251147367097487
 12
-0.6700000000000002
 22
-0.1300000000000001
 32
-0.2251666049839541
 13
-0.6700000000000002
 23
-0.0000000000000002
 33
-0.2600000000000001
  0
3DFACE
  5
546
  8
WHEELS
 10
-0.6900000000000001
 20
-0.1449999999999998
 30
-0.251147367097487
 11
-0.6900000000000001
 21
-0.2511473670974873
 31
-0.1449999999999999
 12
-0.6700000000000002
 22
-0.225166604983954
 32
-0.1299999999999998
 13
-0.6700000000000002
 23
-0.1300000000000001
 33
-0.2251666049839541
  0
3DFACE
  5
547
  8
WHEELS
 10
-0.6900000000000001
 20
-0.2511473670974873
 30
-0.1449999999999999
 11
-0.6900000000000001
 21
-0.2900000000000003
 31
0.0000000000000001
 12
-0.6700000000000002
 22
-0.26
 32
0.0000000000000001
 13
-0.6700000000000002
 23
-0.225166604983954
 33
-0.1299999999999998
  0
3DFACE
  5
548
  8
WHEELS
 10
-0.65
 20
-0.3899999999999999
 30
0.0000000000000001
 11
-0.65
 21
-0.3377499074759311
 31
0.195
 12
-0.6900000000000001
 22
-0.285788383248865
 32
0.1650000000000001
 13
-0.6900000000000001
 23
-0.3300000000000003
 33
0.0000000000000001
  0
3DFACE
  5
549
  8
WHEELS
 10
-0.65
 20
-0.3377499074759311
 30
0.195
 11
-0.65
 21
-0.1950000000000001
 31
0.337749907475931
 12
-0.6900000000000001
 22
-0.1650000000000003
 32
0.2857883832488649
 13
-0.6900000000000001
 23
-0.285788383248865
 33
0.1650000000000001
  0
3DFACE
  5
54A
  8
WHEELS
 10
-0.65
 20
-0.1950000000000001
 30
0.337749907475931
 11
-0.65
 21
-0.0000000000000002
 31
0.3900000000000002
 12
-0.6900000000000001
 22
-0.0000000000000002
 32
0.3300000000000002
 13
-0.6900000000000001
 23
-0.1650000000000003
 33
0.2857883832488649
  0
3DFACE
  5
54B
  8
WHEELS
 10
-0.65
 20
-0.0000000000000002
 30
0.3900000000000002
 11
-0.65
 21
0.1950000000000001
 31
0.337749907475931
 12
-0.6900000000000001
 22
0.1649999999999998
 32
0.2857883832488649
 13
-0.6900000000000001
 23
-0.0000000000000002
 33
0.3300000000000002
  0
3DFACE
  5
54C
  8
WHEELS
 10
-0.65
 20
0.1950000000000001
 30
0.337749907475931
 11
-0.65
 21
0.3377499074759311
 31
0.1950000000000004
 12
-0.6900000000000001
 22
0.2857883832488646
 32
0.1650000000000001
 13
-0.6900000000000001
 23
0.1649999999999998
 33
0.2857883832488649
  0
3DFACE
  5
54D
  8
WHEELS
 10
-0.65
 20
0.3377499074759311
 30
0.1950000000000004
 11
-0.65
 21
0.3899999999999999
 31
0.0000000000000001
 12
-0.6900000000000001
 22
0.3300000000000001
 32
0.0000000000000001
 13
-0.6900000000000001
 23
0.2857883832488646
 33
0.1650000000000001
  0
3DFACE
  5
54E
  8
WHEELS
 10
-0.65
 20
0.3899999999999999
 30
0.0000000000000001
 11
-0.65
 21
0.3377499074759311
 31
-0.1949999999999997
 12
-0.6900000000000001
 22
0.285788383248865
 32
-0.1649999999999995
 13
-0.6900000000000001
 23
0.3300000000000001
 33
0.0000000000000001
  0
3DFACE
  5
54F
  8
WHEELS
 10
-0.65
 20
0.3377499074759311
 30
-0.1949999999999997
 11
-0.65
 21
0.1950000000000001
 31
-0.3377499074759308
 12
-0.6900000000000001
 22
0.1650000000000003
 32
-0.2857883832488647
 13
-0.6900000000000001
 23
0.285788383248865
 33
-0.1649999999999995
  0
3DFACE
  5
550
  8
WHEELS
 10
-0.65
 20
0.1950000000000001
 30
-0.3377499074759308
 11
-0.65
 21
-0.0000000000000002
 31
-0.39
 12
-0.6900000000000001
 22
-0.0000000000000002
 32
-0.33
 13
-0.6900000000000001
 23
0.1650000000000003
 33
-0.2857883832488647
  0
3DFACE
  5
551
  8
WHEELS
 10
-0.65
 20
-0.0000000000000002
 30
-0.39
 11
-0.65
 21
-0.1950000000000001
 31
-0.3377499074759308
 12
-0.6900000000000001
 22
-0.1650000000000003
 32
-0.2857883832488647
 13
-0.6900000000000001
 23
-0.0000000000000002
 33
-0.33
  0
3DFACE
  5
552
  8
WHEELS
 10
-0.65
 20
-0.1950000000000001
 30
-0.3377499074759308
 11
-0.65
 21
-0.3377499074759311
 31
-0.1949999999999997
 12
-0.6900000000000001
 22
-0.285788383248865
 32
-0.1649999999999999
 13
-0.6900000000000001
 23
-0.1650000000000003
 33
-0.2857883832488647
  0
3DFACE
  5
553
  8
WHEELS
 10
-0.65
 20
-0.3377499074759311
 30
-0.1949999999999997
 11
-0.65
 21
-0.3899999999999999
 31
0.0000000000000001
 12
-0.6900000000000001
 22
-0.3300000000000003
 32
0.0000000000000001
 13
-0.6900000000000001
 23
-0.285788383248865
 33
-0.1649999999999999
  0
3DFACE
  5
554
  8
WHEELS
 10
-0.5700000000000001
 20
-0.3899999999999999
 30
0.0000000000000001
 11
-0.5700000000000001
 21
-0.3377499074759311
 31
0.195
 12
-0.65
 22
-0.3377499074759311
 32
0.195
 13
-0.65
 23
-0.3899999999999999
 33
0.0000000000000001
  0
3DFACE
  5
555
  8
WHEELS
 10
-0.5700000000000001
 20
-0.3377499074759311
 30
0.195
 11
-0.5700000000000001
 21
-0.1950000000000001
 31
0.337749907475931
 12
-0.65
 22
-0.1950000000000001
 32
0.337749907475931
 13
-0.65
 23
-0.3377499074759311
 33
0.195
  0
3DFACE
  5
556
  8
WHEELS
 10
-0.5700000000000001
 20
-0.1950000000000001
 30
0.337749907475931
 11
-0.5700000000000001
 21
-0.0000000000000002
 31
0.3900000000000002
 12
-0.65
 22
-0.0000000000000002
 32
0.3900000000000002
 13
-0.65
 23
-0.1950000000000001
 33
0.337749907475931
  0
3DFACE
  5
557
  8
WHEELS
 10
-0.5700000000000001
 20
-0.0000000000000002
 30
0.3900000000000002
 11
-0.5700000000000001
 21
0.1950000000000001
 31
0.337749907475931
 12
-0.65
 22
0.1950000000000001
 32
0.337749907475931
 13
-0.65
 23
-0.0000000000000002
 33
0.3900000000000002
  0
3DFACE
  5
558
  8
WHEELS
 10
-0.5700000000000001
 20
0.1950000000000001
 30
0.337749907475931
 11
-0.5700000000000001
 21
0.3377499074759311
 31
0.1950000000000004
 12
-0.65
 22
0.3377499074759311
 32
0.1950000000000004
 13
-0.65
 23
0.1950000000000001
 33
0.337749907475931
  0
3DFACE
  5
559
  8
WHEELS
 10
-0.5700000000000001
 20
0.3377499074759311
 30
0.1950000000000004
 11
-0.5700000000000001
 21
0.3899999999999999
 31
0.0000000000000001
 12
-0.65
 22
0.3899999999999999
 32
0.0000000000000001
 13
-0.65
 23
0.3377499074759311
 33
0.1950000000000004
  0
3DFACE
  5
55A
  8
WHEELS
 10
-0.5700000000000001
 20
0.3899999999999999
 30
0.0000000000000001
 11
-0.5700000000000001
 21
0.3377499074759311
 31
-0.1949999999999997
 12
-0.65
 22
0.3377499074759311
 32
-0.1949999999999997
 13
-0.65
 23
0.3899999999999999
 33
0.0000000000000001
  0
3DFACE
  5
55B
  8
WHEELS
 10
-0.5700000000000001
 20
0.3377499074759311
 30
-0.1949999999999997
 11
-0.5700000000000001
 21
0.1950000000000001
 31
-0.3377499074759308
 12
-0.65
 22
0.1950000000000001
 32
-0.3377499074759308
 13
-0.65
 23
0.3377499074759311
 33
-0.1949999999999997
  0
3DFACE
  5
55C
  8
WHEELS
 10
-0.5700000000000001
 20
0.1950000000000001
 30
-0.3377499074759308
 11
-0.5700000000000001
 21
-0.0000000000000002
 31
-0.39
 12
-0.65
 22
-0.0000000000000002
 32
-0.39
 13
-0.65
 23
0.1950000000000001
 33
-0.3377499074759308
  0
3DFACE
  5
55D
  8
WHEELS
 10
-0.5700000000000001
 20
-0.0000000000000002
 30
-0.39
 11
-0.5700000000000001
 21
-0.1950000000000001
 31
-0.3377499074759308
 12
-0.65
 22
-0.1950000000000001
 32
-0.3377499074759308
 13
-0.65
 23
-0.0000000000000002
 33
-0.39
  0
3DFACE
  5
55E
  8
WHEELS
 10
-0.5700000000000001
 20
-0.1950000000000001
 30
-0.3377499074759308
 11
-0.5700000000000001
 21
-0.3377499074759311
 31
-0.1949999999999997
 12
-0.65
 22
-0.3377499074759311
 32
-0.1949999999999997
 13
-0.65
 23
-0.1950000000000001
 33
-0.3377499074759308
  0
3DFACE
  5
55F
  8
WHEELS
 10
-0.5700000000000001
 20
-0.3377499074759311
 30
-0.1949999999999997
 11
-0.5700000000000001
 21
-0.3899999999999999
 31
0.0000000000000001
 12
-0.65
 22
-0.3899999999999999
 32
0.0000000000000001
 13
-0.65
 23
-0.3377499074759311
 33
-0.1949999999999997
  0
3DFACE
  5
560
  8
WHEELS
 10
-0.65
 20
-0.0999999999999999
 30
-0.0499999999999997
 11
-0.65
 21
-0.0900000000000001
 31
-0.0326794919243109
 12
-0.6700000000000002
 22
-0.0900000000000001
 32
-0.0326794919243109
 13
-0.6700000000000002
 23
-0.0999999999999999
 33
-0.0499999999999997
  0
3DFACE
  5
561
  8
WHEELS
 10
-0.65
 20
-0.0900000000000001
 30
-0.0326794919243109
 11
-0.65
 21
-0.0700000000000001
 31
-0.0326794919243109
 12
-0.6700000000000002
 22
-0.0700000000000001
 32
-0.0326794919243109
 13
-0.6700000000000002
 23
-0.0900000000000001
 33
-0.0326794919243109
  0
3DFACE
  5
562
  8
WHEELS
 10
-0.65
 20
-0.0700000000000001
 30
-0.0326794919243109
 11
-0.65
 21
-0.0599999999999998
 31
-0.0499999999999997
 12
-0.6700000000000002
 22
-0.0599999999999998
 32
-0.0499999999999997
 13
-0.6700000000000002
 23
-0.0700000000000001
 33
-0.0326794919243109
  0
3DFACE
  5
563
  8
WHEELS
 10
-0.65
 20
-0.0599999999999998
 30
-0.0499999999999997
 11
-0.65
 21
-0.0700000000000001
 31
-0.0673205080756886
 12
-0.6700000000000002
 22
-0.0700000000000001
 32
-0.0673205080756886
 13
-0.6700000000000002
 23
-0.0599999999999998
 33
-0.0499999999999997
  0
3DFACE
  5
564
  8
WHEELS
 10
-0.65
 20
-0.0700000000000001
 30
-0.0673205080756886
 11
-0.65
 21
-0.0900000000000001
 31
-0.0673205080756886
 12
-0.6700000000000002
 22
-0.0900000000000001
 32
-0.0673205080756886
 13
-0.6700000000000002
 23
-0.0700000000000001
 33
-0.0673205080756886
  0
3DFACE
  5
565
  8
WHEELS
 10
-0.65
 20
-0.0900000000000001
 30
-0.0673205080756886
 11
-0.65
 21
-0.0999999999999999
 31
-0.0499999999999997
 12
-0.6700000000000002
 22
-0.0999999999999999
 32
-0.0499999999999997
 13
-0.6700000000000002
 23
-0.0900000000000001
 33
-0.0673205080756886
  0
3DFACE
  5
566
  8
WHEELS
 10
-0.65
 20
-0.03
 30
0.0000000000000001
 11
-0.65
 21
-0.0149999999999999
 31
0.0259807621135334
 12
-0.7000000000000001
 22
-0.0149999999999999
 32
0.0259807621135334
 13
-0.7000000000000001
 23
-0.03
 33
0.0000000000000001
  0
3DFACE
  5
567
  8
WHEELS
 10
-0.65
 20
-0.0149999999999999
 30
0.0259807621135334
 11
-0.65
 21
0.0149999999999999
 31
0.0259807621135334
 12
-0.7000000000000001
 22
0.0149999999999999
 32
0.0259807621135334
 13
-0.7000000000000001
 23
-0.0149999999999999
 33
0.0259807621135334
  0
3DFACE
  5
568
  8
WHEELS
 10
-0.65
 20
0.0149999999999999
 30
0.0259807621135334
 11
-0.65
 21
0.03
 31
0.0000000000000001
 12
-0.7000000000000001
 22
0.03
 32
0.0000000000000001
 13
-0.7000000000000001
 23
0.0149999999999999
 33
0.0259807621135334
  0
3DFACE
  5
569
  8
WHEELS
 10
-0.65
 20
0.03
 30
0.0000000000000001
 11
-0.65
 21
0.0149999999999999
 31
-0.0259807621135332
 12
-0.7000000000000001
 22
0.0149999999999999
 32
-0.0259807621135332
 13
-0.7000000000000001
 23
0.03
 33
0.0000000000000001
  0
3DFACE
  5
56A
  8
WHEELS
 10
-0.65
 20
0.0149999999999999
 30
-0.0259807621135332
 11
-0.65
 21
-0.0149999999999999
 31
-0.0259807621135332
 12
-0.7000000000000001
 22
-0.0149999999999999
 32
-0.0259807621135332
 13
-0.7000000000000001
 23
0.0149999999999999
 33
-0.0259807621135332
  0
3DFACE
  5
56B
  8
WHEELS
 10
-0.65
 20
-0.0149999999999999
 30
-0.0259807621135332
 11
-0.65
 21
-0.03
 31
0.0000000000000001
 12
-0.7000000000000001
 22
-0.03
 32
0.0000000000000001
 13
-0.7000000000000001
 23
-0.0149999999999999
 33
-0.0259807621135332
  0
3DFACE
  5
56C
  8
WHEELS
 10
-0.5300000000000003
 20
-0.2511473670974873
 30
0.1450000000000001
 11
-0.5300000000000003
 21
-0.2900000000000003
 31
0.0000000000000001
 12
-0.5500000000000002
 22
-0.26
 32
0.0000000000000001
 13
-0.5500000000000002
 23
-0.225166604983954
 33
0.13
  0
3DFACE
  5
56D
  8
WHEELS
 10
-0.5300000000000003
 20
0.29
 30
0.0000000000000001
 11
-0.5300000000000003
 21
0.2511473670974873
 31
0.1450000000000001
 12
-0.5500000000000002
 22
0.225166604983954
 32
0.13
 13
-0.5500000000000002
 23
0.26
 33
0.0000000000000001
  0
3DFACE
  5
572
  8
WHEELS
 10
-0.5300000000000003
 20
-0.1449999999999998
 30
0.2511473670974872
 11
-0.5300000000000003
 21
-0.2511473670974873
 31
0.1450000000000001
 12
-0.5500000000000002
 22
-0.225166604983954
 32
0.13
 13
-0.5500000000000002
 23
-0.1300000000000001
 33
0.2251666049839543
  0
3DFACE
  5
573
  8
WHEELS
 10
-0.5300000000000003
 20
-0.0000000000000002
 30
0.2900000000000001
 11
-0.5300000000000003
 21
-0.1449999999999998
 31
0.2511473670974872
 12
-0.5500000000000002
 22
-0.1300000000000001
 32
0.2251666049839543
 13
-0.5500000000000002
 23
-0.0000000000000002
 33
0.2600000000000003
  0
3DFACE
  5
574
  8
WHEELS
 10
-0.5300000000000003
 20
0.1450000000000002
 30
0.2511473670974872
 11
-0.5300000000000003
 21
-0.0000000000000002
 31
0.2900000000000001
 12
-0.5500000000000002
 22
-0.0000000000000002
 32
0.2600000000000003
 13
-0.5500000000000002
 23
0.1300000000000001
 33
0.2251666049839539
  0
3DFACE
  5
575
  8
WHEELS
 10
-0.5300000000000003
 20
0.2511473670974873
 30
0.1450000000000001
 11
-0.5300000000000003
 21
0.1450000000000002
 31
0.2511473670974872
 12
-0.5500000000000002
 22
0.1300000000000001
 32
0.2251666049839539
 13
-0.5500000000000002
 23
0.225166604983954
 33
0.13
  0
3DFACE
  5
57A
  8
WHEELS
 10
-0.5300000000000003
 20
0.1450000000000002
 30
-0.251147367097487
 11
-0.5300000000000003
 21
0.2511473670974869
 31
-0.1449999999999999
 12
-0.5500000000000002
 22
0.225166604983954
 32
-0.1299999999999998
 13
-0.5500000000000002
 23
0.1299999999999997
 33
-0.2251666049839541
  0
3DFACE
  5
57B
  8
WHEELS
 10
-0.5300000000000003
 20
-0.0000000000000002
 30
-0.29
 11
-0.5300000000000003
 21
0.1450000000000002
 31
-0.251147367097487
 12
-0.5500000000000002
 22
0.1299999999999997
 32
-0.2251666049839541
 13
-0.5500000000000002
 23
-0.0000000000000002
 33
-0.2600000000000001
  0
3DFACE
  5
57C
  8
WHEELS
 10
-0.5300000000000003
 20
-0.1449999999999998
 30
-0.251147367097487
 11
-0.5300000000000003
 21
-0.0000000000000002
 31
-0.29
 12
-0.5500000000000002
 22
-0.0000000000000002
 32
-0.2600000000000001
 13
-0.5500000000000002
 23
-0.1300000000000001
 33
-0.2251666049839541
  0
3DFACE
  5
57D
  8
WHEELS
 10
-0.5300000000000003
 20
-0.2511473670974873
 30
-0.1449999999999999
 11
-0.5300000000000003
 21
-0.1449999999999998
 31
-0.251147367097487
 12
-0.5500000000000002
 22
-0.1300000000000001
 32
-0.2251666049839541
 13
-0.5500000000000002
 23
-0.225166604983954
 33
-0.1299999999999998
  0
3DFACE
  5
58C
  8
WHEELS
 10
-0.5300000000000003
 20
0.2511473670974869
 30
-0.1449999999999999
 11
-0.5300000000000003
 21
0.29
 31
0.0000000000000001
 12
-0.5500000000000002
 22
0.26
 32
0.0000000000000001
 13
-0.5500000000000002
 23
0.225166604983954
 33
-0.1299999999999998
  0
3DFACE
  5
58D
  8
WHEELS
 10
-0.5300000000000003
 20
-0.2900000000000003
 30
0.0000000000000001
 11
-0.5300000000000003
 21
-0.2511473670974873
 31
-0.1449999999999999
 12
-0.5500000000000002
 22
-0.225166604983954
 32
-0.1299999999999998
 13
-0.5500000000000002
 23
-0.26
 33
0.0000000000000001
  0
3DFACE
  5
594
  8
WHEELS
 10
-0.6900000000000001
 20
-0.0000000000000002
 30
0.3300000000000006
 11
-0.6900000000000001
 21
0.1649999999999998
 31
0.2857883832488649
 12
-0.6900000000000001
 22
0.1450000000000002
 32
0.2511473670974872
 13
-0.6900000000000001
 23
-0.0000000000000002
 33
0.2900000000000001
  0
3DFACE
  5
595
  8
WHEELS
 10
-0.6500000000000002
 20
-0.0000000000000002
 30
0.2300000000000001
 11
-0.65
 21
0.115
 31
0.1991858428704211
 12
-0.65
 22
0.0149999999999999
 32
0.0259807621135334
 13
-0.65
 23
-0.0149999999999999
 33
0.0259807621135334
  0
3DFACE
  5
596
  8
WHEELS
 10
-0.6500000000000002
 20
-0.115
 30
0.1991858428704211
 11
-0.65
 21
-0.0000000000000002
 31
0.2300000000000001
 12
-0.65
 22
-0.0149999999999999
 32
0.0259807621135334
 13
-0.65
 23
-0.0149999999999999
 33
0.0259807621135334
  0
3DFACE
  5
597
  8
WHEELS
 10
-0.6700000000000002
 20
-0.0900000000000001
 30
-0.0326794919243109
 11
-0.6700000000000002
 21
-0.0700000000000001
 31
-0.0326794919243109
 12
-0.6700000000000002
 22
-0.0599999999999998
 32
-0.0499999999999997
 13
-0.6700000000000002
 23
-0.0999999999999999
 33
-0.0499999999999997
  0
3DFACE
  5
598
  8
WHEELS
 10
-0.6700000000000002
 20
-0.0999999999999999
 30
-0.0499999999999997
 11
-0.6700000000000002
 21
-0.0599999999999998
 31
-0.0499999999999997
 12
-0.6700000000000002
 22
-0.0700000000000001
 32
-0.0673205080756886
 13
-0.6700000000000002
 23
-0.0900000000000001
 33
-0.0673205080756886
  0
3DFACE
  5
599
  8
WHEELS
 10
-0.6700000000000002
 20
-0.0933012701892218
 30
0.061602540378444
 11
-0.6700000000000002
 21
-0.0733012701892213
 31
0.0269615242270668
 12
-0.6700000000000002
 22
-0.0933012701892218
 32
0.0269615242270668
 13
-0.6700000000000002
 23
-0.1033012701892215
 33
0.0442820323027556
  0
3DFACE
  5
59A
  8
WHEELS
 10
-0.6700000000000002
 20
-0.0733012701892213
 30
0.0616025403784445
 11
-0.6700000000000002
 21
-0.0633012701892215
 31
0.0442820323027556
 12
-0.6700000000000002
 22
-0.0733012701892213
 32
0.0269615242270668
 13
-0.6700000000000002
 23
-0.0933012701892218
 33
0.061602540378444
  0
3DFACE
  5
59B
  8
WHEELS
 10
-0.65
 20
-0.1033012701892215
 30
0.0442820323027556
 11
-0.65
 21
-0.0933012701892218
 31
0.061602540378444
 12
-0.6700000000000002
 22
-0.0933012701892218
 32
0.061602540378444
 13
-0.6700000000000002
 23
-0.1033012701892215
 33
0.0442820323027556
  0
3DFACE
  5
59C
  8
WHEELS
 10
-0.65
 20
-0.0933012701892218
 30
0.0269615242270668
 11
-0.65
 21
-0.1033012701892215
 31
0.0442820323027556
 12
-0.6700000000000002
 22
-0.1033012701892215
 32
0.0442820323027556
 13
-0.6700000000000002
 23
-0.0933012701892218
 33
0.0269615242270668
  0
3DFACE
  5
59D
  8
WHEELS
 10
-0.65
 20
-0.0733012701892213
 30
0.0269615242270668
 11
-0.65
 21
-0.0933012701892218
 31
0.0269615242270668
 12
-0.6700000000000002
 22
-0.0933012701892218
 32
0.0269615242270668
 13
-0.6700000000000002
 23
-0.0733012701892213
 33
0.0269615242270668
  0
3DFACE
  5
59E
  8
WHEELS
 10
-0.65
 20
-0.0633012701892215
 30
0.0442820323027556
 11
-0.65
 21
-0.0733012701892213
 31
0.0269615242270668
 12
-0.6700000000000002
 22
-0.0733012701892213
 32
0.0269615242270668
 13
-0.6700000000000002
 23
-0.0633012701892215
 33
0.0442820323027556
  0
3DFACE
  5
59F
  8
WHEELS
 10
-0.65
 20
-0.0733012701892213
 30
0.0616025403784445
 11
-0.65
 21
-0.0633012701892215
 31
0.0442820323027556
 12
-0.6700000000000002
 22
-0.0633012701892215
 32
0.0442820323027556
 13
-0.6700000000000002
 23
-0.0733012701892213
 33
0.0616025403784445
  0
3DFACE
  5
5A0
  8
WHEELS
 10
-0.65
 20
-0.0933012701892218
 30
0.061602540378444
 11
-0.65
 21
-0.0733012701892213
 31
0.0616025403784445
 12
-0.6700000000000002
 22
-0.0733012701892213
 32
0.0616025403784445
 13
-0.6700000000000002
 23
-0.0933012701892218
 33
0.061602540378444
  0
3DFACE
  5
5A1
  8
WHEELS
 10
-0.6700000000000002
 20
0.0066987298107788
 30
0.1116025403784434
 11
-0.6700000000000002
 21
-0.0133012701892217
 31
0.0769615242270662
 12
-0.6700000000000002
 22
-0.0233012701892215
 32
0.094282032302755
 13
-0.6700000000000002
 23
-0.0133012701892217
 33
0.1116025403784434
  0
3DFACE
  5
5A2
  8
WHEELS
 10
-0.6700000000000002
 20
0.0166987298107786
 30
0.0942820323027546
 11
-0.6700000000000002
 21
0.0066987298107788
 31
0.0769615242270662
 12
-0.6700000000000002
 22
-0.0133012701892217
 32
0.0769615242270662
 13
-0.6700000000000002
 23
0.0066987298107788
 33
0.1116025403784434
  0
3DFACE
  5
5A3
  8
WHEELS
 10
-0.65
 20
-0.0133012701892217
 30
0.1116025403784434
 11
-0.65
 21
0.0066987298107788
 31
0.1116025403784434
 12
-0.6700000000000002
 22
0.0066987298107788
 32
0.1116025403784434
 13
-0.6700000000000002
 23
-0.0133012701892217
 33
0.1116025403784434
  0
3DFACE
  5
5A4
  8
WHEELS
 10
-0.65
 20
-0.0233012701892215
 30
0.094282032302755
 11
-0.65
 21
-0.0133012701892217
 31
0.1116025403784434
 12
-0.6700000000000002
 22
-0.0133012701892217
 32
0.1116025403784434
 13
-0.6700000000000002
 23
-0.0233012701892215
 33
0.094282032302755
  0
3DFACE
  5
5A5
  8
WHEELS
 10
-0.65
 20
-0.0133012701892217
 30
0.0769615242270662
 11
-0.65
 21
-0.0233012701892215
 31
0.094282032302755
 12
-0.6700000000000002
 22
-0.0233012701892215
 32
0.094282032302755
 13
-0.6700000000000002
 23
-0.0133012701892217
 33
0.0769615242270662
  0
3DFACE
  5
5A6
  8
WHEELS
 10
-0.65
 20
0.0066987298107788
 30
0.0769615242270662
 11
-0.65
 21
-0.0133012701892217
 31
0.0769615242270662
 12
-0.6700000000000002
 22
-0.0133012701892217
 32
0.0769615242270662
 13
-0.6700000000000002
 23
0.0066987298107788
 33
0.0769615242270662
  0
3DFACE
  5
5A7
  8
WHEELS
 10
-0.65
 20
0.0166987298107786
 30
0.0942820323027546
 11
-0.65
 21
0.0066987298107788
 31
0.0769615242270662
 12
-0.6700000000000002
 22
0.0066987298107788
 32
0.0769615242270662
 13
-0.6700000000000002
 23
0.0166987298107786
 33
0.0942820323027546
  0
3DFACE
  5
5A8
  8
WHEELS
 10
-0.65
 20
0.0066987298107788
 30
0.1116025403784434
 11
-0.65
 21
0.0166987298107786
 31
0.0942820323027546
 12
-0.6700000000000002
 22
0.0166987298107786
 32
0.0942820323027546
 13
-0.6700000000000002
 23
0.0066987298107788
 33
0.1116025403784434
  0
3DFACE
  5
5A9
  8
WHEELS
 10
-0.6700000000000002
 20
0.1000000000000003
 30
0.0499999999999999
 11
-0.6700000000000002
 21
0.0600000000000003
 31
0.0499999999999999
 12
-0.6700000000000002
 22
0.0700000000000001
 32
0.0673205080756888
 13
-0.6700000000000002
 23
0.0900000000000001
 33
0.0673205080756888
  0
3DFACE
  5
5AA
  8
WHEELS
 10
-0.6700000000000002
 20
0.0900000000000001
 30
0.0326794919243111
 11
-0.6700000000000002
 21
0.0700000000000001
 31
0.0326794919243111
 12
-0.6700000000000002
 22
0.0600000000000003
 32
0.0499999999999999
 13
-0.6700000000000002
 23
0.1000000000000003
 33
0.0499999999999999
  0
3DFACE
  5
5AB
  8
WHEELS
 10
-0.65
 20
0.0900000000000001
 30
0.0673205080756888
 11
-0.65
 21
0.1000000000000003
 31
0.0499999999999999
 12
-0.6700000000000002
 22
0.1000000000000003
 32
0.0499999999999999
 13
-0.6700000000000002
 23
0.0900000000000001
 33
0.0673205080756888
  0
3DFACE
  5
5AC
  8
WHEELS
 10
-0.65
 20
0.0700000000000001
 30
0.0673205080756888
 11
-0.65
 21
0.0900000000000001
 31
0.0673205080756888
 12
-0.6700000000000002
 22
0.0900000000000001
 32
0.0673205080756888
 13
-0.6700000000000002
 23
0.0700000000000001
 33
0.0673205080756888
  0
3DFACE
  5
5AD
  8
WHEELS
 10
-0.65
 20
0.0600000000000003
 30
0.0499999999999999
 11
-0.65
 21
0.0700000000000001
 31
0.0673205080756888
 12
-0.6700000000000002
 22
0.0700000000000001
 32
0.0673205080756888
 13
-0.6700000000000002
 23
0.0600000000000003
 33
0.0499999999999999
  0
3DFACE
  5
5AE
  8
WHEELS
 10
-0.65
 20
0.0700000000000001
 30
0.0326794919243111
 11
-0.65
 21
0.0600000000000003
 31
0.0499999999999999
 12
-0.6700000000000002
 22
0.0600000000000003
 32
0.0499999999999999
 13
-0.6700000000000002
 23
0.0700000000000001
 33
0.0326794919243111
  0
3DFACE
  5
5AF
  8
WHEELS
 10
-0.65
 20
0.0900000000000001
 30
0.0326794919243111
 11
-0.65
 21
0.0700000000000001
 31
0.0326794919243111
 12
-0.6700000000000002
 22
0.0700000000000001
 32
0.0326794919243111
 13
-0.6700000000000002
 23
0.0900000000000001
 33
0.0326794919243111
  0
3DFACE
  5
5B0
  8
WHEELS
 10
-0.65
 20
0.1000000000000003
 30
0.0499999999999999
 11
-0.65
 21
0.0900000000000001
 31
0.0326794919243111
 12
-0.6700000000000002
 22
0.0900000000000001
 32
0.0326794919243111
 13
-0.6700000000000002
 23
0.1000000000000003
 33
0.0499999999999999
  0
3DFACE
  5
5B1
  8
WHEELS
 10
-0.6700000000000002
 20
0.0933012701892222
 30
-0.0616025403784438
 11
-0.6700000000000002
 21
0.0733012701892226
 31
-0.0269615242270666
 12
-0.6700000000000002
 22
0.0933012701892222
 32
-0.0269615242270666
 13
-0.6700000000000002
 23
0.103301270189222
 33
-0.044282032302755
  0
3DFACE
  5
5B2
  8
WHEELS
 10
-0.6700000000000002
 20
0.0733012701892217
 30
-0.0616025403784438
 11
-0.6700000000000002
 21
0.0633012701892219
 31
-0.0442820323027554
 12
-0.6700000000000002
 22
0.0733012701892226
 32
-0.0269615242270666
 13
-0.6700000000000002
 23
0.0933012701892222
 33
-0.0616025403784438
  0
3DFACE
  5
5B3
  8
WHEELS
 10
-0.65
 20
0.103301270189222
 30
-0.044282032302755
 11
-0.65
 21
0.0933012701892222
 31
-0.0616025403784438
 12
-0.6700000000000002
 22
0.0933012701892222
 32
-0.0616025403784438
 13
-0.6700000000000002
 23
0.103301270189222
 33
-0.044282032302755
  0
3DFACE
  5
5B4
  8
WHEELS
 10
-0.65
 20
0.0933012701892222
 30
-0.0269615242270666
 11
-0.65
 21
0.103301270189222
 31
-0.044282032302755
 12
-0.6700000000000002
 22
0.103301270189222
 32
-0.044282032302755
 13
-0.6700000000000002
 23
0.0933012701892222
 33
-0.0269615242270666
  0
3DFACE
  5
5B5
  8
WHEELS
 10
-0.65
 20
0.0733012701892226
 30
-0.0269615242270666
 11
-0.65
 21
0.0933012701892222
 31
-0.0269615242270666
 12
-0.6700000000000002
 22
0.0933012701892222
 32
-0.0269615242270666
 13
-0.6700000000000002
 23
0.0733012701892226
 33
-0.0269615242270666
  0
3DFACE
  5
5B6
  8
WHEELS
 10
-0.65
 20
0.0633012701892219
 30
-0.0442820323027554
 11
-0.65
 21
0.0733012701892226
 31
-0.0269615242270666
 12
-0.6700000000000002
 22
0.0733012701892226
 32
-0.0269615242270666
 13
-0.6700000000000002
 23
0.0633012701892219
 33
-0.0442820323027554
  0
3DFACE
  5
5B7
  8
WHEELS
 10
-0.65
 20
0.0733012701892217
 30
-0.0616025403784438
 11
-0.65
 21
0.0633012701892219
 31
-0.0442820323027554
 12
-0.6700000000000002
 22
0.0633012701892219
 32
-0.0442820323027554
 13
-0.6700000000000002
 23
0.0733012701892217
 33
-0.0616025403784438
  0
3DFACE
  5
5B8
  8
WHEELS
 10
-0.65
 20
0.0933012701892222
 30
-0.0616025403784438
 11
-0.65
 21
0.0733012701892217
 31
-0.0616025403784438
 12
-0.6700000000000002
 22
0.0733012701892217
 32
-0.0616025403784438
 13
-0.6700000000000002
 23
0.0933012701892222
 33
-0.0616025403784438
  0
3DFACE
  5
5B9
  8
WHEELS
 10
-0.6700000000000002
 20
-0.0066987298107779
 30
-0.1116025403784441
 11
-0.6700000000000002
 21
0.0133012701892221
 31
-0.0769615242270664
 12
-0.6700000000000002
 22
0.0233012701892219
 32
-0.0942820323027553
 13
-0.6700000000000002
 23
0.0133012701892221
 33
-0.1116025403784441
  0
3DFACE
  5
5BA
  8
WHEELS
 10
-0.6700000000000002
 20
-0.0166987298107781
 30
-0.0942820323027553
 11
-0.6700000000000002
 21
-0.0066987298107783
 31
-0.0769615242270664
 12
-0.6700000000000002
 22
0.0133012701892221
 32
-0.0769615242270664
 13
-0.6700000000000002
 23
-0.0066987298107779
 33
-0.1116025403784441
  0
3DFACE
  5
5BB
  8
WHEELS
 10
-0.65
 20
0.0133012701892221
 30
-0.1116025403784441
 11
-0.65
 21
-0.0066987298107779
 31
-0.1116025403784441
 12
-0.6700000000000002
 22
-0.0066987298107779
 32
-0.1116025403784441
 13
-0.6700000000000002
 23
0.0133012701892221
 33
-0.1116025403784441
  0
3DFACE
  5
5BC
  8
WHEELS
 10
-0.65
 20
0.0233012701892219
 30
-0.0942820323027553
 11
-0.65
 21
0.0133012701892221
 31
-0.1116025403784441
 12
-0.6700000000000002
 22
0.0133012701892221
 32
-0.1116025403784441
 13
-0.6700000000000002
 23
0.0233012701892219
 33
-0.0942820323027553
  0
3DFACE
  5
5BD
  8
WHEELS
 10
-0.65
 20
0.0133012701892221
 30
-0.0769615242270664
 11
-0.65
 21
0.0233012701892219
 31
-0.0942820323027553
 12
-0.6700000000000002
 22
0.0233012701892219
 32
-0.0942820323027553
 13
-0.6700000000000002
 23
0.0133012701892221
 33
-0.0769615242270664
  0
3DFACE
  5
5BE
  8
WHEELS
 10
-0.65
 20
-0.0066987298107783
 30
-0.0769615242270664
 11
-0.65
 21
0.0133012701892221
 31
-0.0769615242270664
 12
-0.6700000000000002
 22
0.0133012701892221
 32
-0.0769615242270664
 13
-0.6700000000000002
 23
-0.0066987298107783
 33
-0.0769615242270664
  0
3DFACE
  5
5BF
  8
WHEELS
 10
-0.65
 20
-0.0166987298107781
 30
-0.0942820323027553
 11
-0.65
 21
-0.0066987298107783
 31
-0.0769615242270664
 12
-0.6700000000000002
 22
-0.0066987298107783
 32
-0.0769615242270664
 13
-0.6700000000000002
 23
-0.0166987298107781
 33
-0.0942820323027553
  0
3DFACE
  5
5C0
  8
WHEELS
 10
-0.65
 20
-0.0066987298107779
 30
-0.1116025403784441
 11
-0.65
 21
-0.0166987298107781
 31
-0.0942820323027553
 12
-0.6700000000000002
 22
-0.0166987298107781
 32
-0.0942820323027553
 13
-0.6700000000000002
 23
-0.0066987298107779
 33
-0.1116025403784441
  0
3DFACE
  5
5C1
  8
WHEELS
 10
-0.7000000000000001
 20
-0.0149999999999999
 30
0.0259807621135334
 11
-0.7000000000000001
 21
0.0149999999999999
 31
0.0259807621135334
 12
-0.7000000000000001
 22
0.03
 32
0.0000000000000001
 13
-0.7000000000000001
 23
-0.03
 33
0.0000000000000001
  0
3DFACE
  5
5C2
  8
WHEELS
 10
-0.7000000000000001
 20
-0.03
 30
0.0000000000000001
 11
-0.7000000000000001
 21
0.03
 31
0.0000000000000001
 12
-0.7000000000000001
 22
0.0149999999999999
 32
-0.0259807621135332
 13
-0.7000000000000001
 23
-0.0149999999999999
 33
-0.0259807621135332
  0
3DFACE
  5
5C3
  8
WHEELS
 10
-0.6500000000000002
 20
0.1150000000000004
 30
0.1991858428704211
 11
-0.65
 21
0.1991858428704212
 31
0.1149999999999999
 12
-0.65
 22
0.0150000000000008
 32
0.0259807621135334
 13
-0.65
 23
0.0150000000000008
 33
0.0259807621135334
  0
3DFACE
  5
5C4
  8
WHEELS
 10
-0.6500000000000002
 20
0.1991858428704212
 30
0.1149999999999999
 11
-0.65
 21
0.2300000000000006
 31
0.0000000000000001
 12
-0.65
 22
0.0300000000000005
 32
0.0000000000000006
 13
-0.65
 23
0.0150000000000008
 33
0.0259807621135334
  0
3DFACE
  5
5C5
  8
WHEELS
 10
-0.6500000000000002
 20
0.2300000000000002
 30
-0.0000000000000003
 11
-0.65
 21
0.1991858428704212
 31
-0.1150000000000001
 12
-0.65
 22
0.03
 32
-0.0000000000000003
 13
-0.65
 23
0.03
 33
-0.0000000000000003
  0
3DFACE
  5
5C6
  8
WHEELS
 10
-0.6500000000000002
 20
0.1991858428704212
 30
-0.1150000000000001
 11
-0.65
 21
0.115
 31
-0.1991858428704213
 12
-0.65
 22
0.0150000000000004
 32
-0.0259807621135332
 13
-0.65
 23
0.03
 33
-0.0000000000000003
  0
3DFACE
  5
5C7
  8
WHEELS
 10
-0.6500000000000002
 20
0.115
 30
-0.1991858428704208
 11
-0.65
 21
-0.0000000000000002
 31
-0.2299999999999999
 12
-0.65
 22
0.0149999999999999
 32
-0.0259807621135332
 13
-0.65
 23
0.0149999999999999
 33
-0.0259807621135332
  0
3DFACE
  5
5C8
  8
WHEELS
 10
-0.6500000000000002
 20
-0.0000000000000002
 30
-0.2299999999999999
 11
-0.65
 21
-0.1150000000000004
 31
-0.1991858428704208
 12
-0.65
 22
-0.0149999999999999
 32
-0.0259807621135332
 13
-0.65
 23
0.0149999999999999
 33
-0.0259807621135332
  0
3DFACE
  5
5C9
  8
WHEELS
 10
-0.6500000000000002
 20
-0.1149999999999995
 30
-0.1991858428704208
 11
-0.65
 21
-0.1991858428704207
 31
-0.1150000000000001
 12
-0.65
 22
-0.0149999999999999
 32
-0.0259807621135332
 13
-0.65
 23
-0.0149999999999999
 33
-0.0259807621135332
  0
3DFACE
  5
5CA
  8
WHEELS
 10
-0.6500000000000002
 20
-0.1991858428704207
 30
-0.1150000000000001
 11
-0.65
 21
-0.2299999999999998
 31
0.0000000000000001
 12
-0.65
 22
-0.0299999999999996
 32
-0.0000000000000003
 13
-0.65
 23
-0.0149999999999999
 33
-0.0259807621135332
  0
3DFACE
  5
5CB
  8
WHEELS
 10
-0.6500000000000002
 20
-0.2299999999999998
 30
-0.0000000000000003
 11
-0.65
 21
-0.1991858428704207
 31
0.1149999999999999
 12
-0.65
 22
-0.0299999999999996
 32
-0.0000000000000003
 13
-0.65
 23
-0.0299999999999996
 33
-0.0000000000000003
  0
3DFACE
  5
5CC
  8
WHEELS
 10
-0.6500000000000002
 20
-0.1991858428704207
 30
0.1149999999999999
 11
-0.65
 21
-0.1149999999999995
 31
0.1991858428704211
 12
-0.65
 22
-0.0149999999999999
 32
0.025980762113533
 13
-0.65
 23
-0.0299999999999996
 33
-0.0000000000000003
  0
3DFACE
  5
5CD
  8
WHEELS
 10
-0.6900000000000001
 20
0.1650000000000003
 30
0.2857883832488649
 11
-0.6900000000000001
 21
0.2857883832488648
 31
0.1650000000000001
 12
-0.6900000000000001
 22
0.2511473670974873
 32
0.1449999999999997
 13
-0.6900000000000001
 23
0.1450000000000002
 33
0.2511473670974872
  0
3DFACE
  5
5CE
  8
WHEELS
 10
-0.6900000000000001
 20
0.2857883832488655
 30
0.1650000000000006
 11
-0.6900000000000001
 21
0.3300000000000003
 31
0.0000000000000001
 12
-0.6900000000000001
 22
0.2899999999999998
 32
0.0000000000000001
 13
-0.6900000000000001
 23
0.2511473670974877
 33
0.1450000000000001
  0
3DFACE
  5
5CF
  8
WHEELS
 10
-0.6900000000000001
 20
0.3300000000000007
 30
0.0000000000000001
 11
-0.6900000000000001
 21
0.285788383248865
 31
-0.1649999999999999
 12
-0.6900000000000001
 22
0.2511473670974873
 32
-0.1449999999999999
 13
-0.6900000000000001
 23
0.2900000000000003
 33
0.0000000000000001
  0
3DFACE
  5
5D0
  8
WHEELS
 10
-0.6900000000000001
 20
0.2857883832488655
 30
-0.1650000000000004
 11
-0.6900000000000001
 21
0.1650000000000003
 31
-0.2857883832488651
 12
-0.6900000000000001
 22
0.1450000000000002
 32
-0.2511473670974874
 13
-0.6900000000000001
 23
0.2511473670974873
 33
-0.1449999999999999
  0
3DFACE
  5
5D1
  8
WHEELS
 10
-0.6900000000000001
 20
0.1650000000000003
 30
-0.2857883832488647
 11
-0.6900000000000001
 21
0.0000000000000002
 31
-0.3299999999999995
 12
-0.6900000000000001
 22
-0.0000000000000002
 32
-0.2899999999999995
 13
-0.6900000000000001
 23
0.1450000000000002
 33
-0.251147367097487
  0
3DFACE
  5
5D2
  8
WHEELS
 10
-0.6900000000000001
 20
-0.0000000000000002
 30
-0.3300000000000004
 11
-0.6900000000000001
 21
-0.1650000000000003
 31
-0.2857883832488651
 12
-0.6900000000000001
 22
-0.1449999999999998
 32
-0.2511473670974874
 13
-0.6900000000000001
 23
-0.0000000000000002
 33
-0.29
  0
3DFACE
  5
5D3
  8
WHEELS
 10
-0.6900000000000001
 20
-0.1650000000000003
 30
-0.2857883832488651
 11
-0.6900000000000001
 21
-0.2857883832488646
 31
-0.1649999999999999
 12
-0.6900000000000001
 22
-0.2511473670974873
 32
-0.1449999999999999
 13
-0.6900000000000001
 23
-0.1449999999999998
 33
-0.251147367097487
  0
3DFACE
  5
5D4
  8
WHEELS
 10
-0.6900000000000001
 20
-0.285788383248865
 30
-0.1650000000000004
 11
-0.6900000000000001
 21
-0.3299999999999994
 31
-0.0000000000000003
 12
-0.6900000000000001
 22
-0.2900000000000003
 32
0.0000000000000001
 13
-0.6900000000000001
 23
-0.2511473670974873
 33
-0.1449999999999999
  0
3DFACE
  5
5D5
  8
WHEELS
 10
-0.6900000000000001
 20
-0.3300000000000003
 30
0.0000000000000001
 11
-0.6900000000000001
 21
-0.2857883832488646
 31
0.1650000000000001
 12
-0.6900000000000001
 22
-0.2511473670974869
 32
0.1450000000000001
 13
-0.6900000000000001
 23
-0.2899999999999998
 33
0.0000000000000001
  0
3DFACE
  5
5D6
  8
WHEELS
 10
-0.6900000000000001
 20
-0.285788383248865
 30
0.1650000000000006
 11
-0.6900000000000001
 21
-0.1649999999999998
 31
0.2857883832488649
 12
-0.6900000000000001
 22
-0.1449999999999998
 32
0.2511473670974872
 13
-0.6900000000000001
 23
-0.2511473670974873
 33
0.1450000000000001
  0
3DFACE
  5
5D7
  8
WHEELS
 10
-0.6900000000000001
 20
-0.1650000000000003
 30
0.2857883832488653
 11
-0.6900000000000001
 21
-0.0000000000000002
 31
0.3300000000000002
 12
-0.6900000000000001
 22
-0.0000000000000002
 32
0.2900000000000001
 13
-0.6900000000000001
 23
-0.1449999999999998
 33
0.2511473670974876
  0
3DFACE
  5
5E6
  8
WHEELS
 10
-0.5300000000000001
 20
0.2857883832488648
 30
-0.1650000000000004
 11
-0.5299999999999999
 21
0.3299999999999996
 31
-0.0000000000000003
 12
-0.5300000000000001
 22
0.29
 32
0.0000000000000001
 13
-0.5300000000000001
 23
0.2511473670974869
 33
-0.1449999999999999
  0
3DFACE
  5
5E7
  8
WHEELS
 10
-0.5300000000000001
 20
-0.3300000000000007
 30
0.0000000000000001
 11
-0.5300000000000001
 21
-0.285788383248865
 31
-0.1649999999999999
 12
-0.5300000000000001
 22
-0.2511473670974873
 32
-0.1449999999999999
 13
-0.5300000000000001
 23
-0.2900000000000003
 33
0.0000000000000001
  0
3DFACE
  5
5E8
  8
WHEELS
 10
-0.5300000000000001
 20
0.1649999999999998
 30
-0.2857883832488651
 11
-0.5300000000000001
 21
0.2857883832488646
 31
-0.1649999999999999
 12
-0.5300000000000001
 22
0.2511473670974869
 32
-0.1449999999999999
 13
-0.5300000000000001
 23
0.1449999999999998
 33
-0.251147367097487
  0
3DFACE
  5
5E9
  8
WHEELS
 10
-0.5300000000000001
 20
-0.0000000000000002
 30
-0.3300000000000004
 11
-0.5300000000000001
 21
0.1649999999999998
 31
-0.2857883832488651
 12
-0.5300000000000001
 22
0.1450000000000002
 32
-0.2511473670974874
 13
-0.5300000000000001
 23
-0.0000000000000002
 33
-0.29
  0
3DFACE
  5
5EA
  8
WHEELS
 10
-0.5300000000000001
 20
-0.1650000000000003
 30
-0.2857883832488647
 11
-0.5300000000000001
 21
-0.0000000000000002
 31
-0.3299999999999995
 12
-0.5300000000000001
 22
0.0000000000000002
 32
-0.2899999999999995
 13
-0.5300000000000001
 23
-0.1450000000000002
 33
-0.251147367097487
  0
3DFACE
  5
5EB
  8
WHEELS
 10
-0.5300000000000001
 20
-0.2857883832488655
 30
-0.1650000000000004
 11
-0.5300000000000001
 21
-0.1650000000000003
 31
-0.2857883832488651
 12
-0.5300000000000001
 22
-0.1450000000000002
 32
-0.2511473670974874
 13
-0.5300000000000001
 23
-0.2511473670974873
 33
-0.1449999999999999
  0
3DFACE
  5
5EC
  8
WHEELS
 10
-0.5300000000000001
 20
0.285788383248865
 30
0.1650000000000006
 11
-0.5300000000000001
 21
0.1649999999999998
 31
0.2857883832488649
 12
-0.5300000000000001
 22
0.1449999999999998
 32
0.2511473670974872
 13
-0.5300000000000001
 23
0.2511473670974873
 33
0.1450000000000001
  0
3DFACE
  5
5ED
  8
WHEELS
 10
-0.5300000000000001
 20
-0.1650000000000003
 30
0.2857883832488649
 11
-0.5300000000000001
 21
-0.285788383248865
 31
0.1650000000000001
 12
-0.5300000000000001
 22
-0.2511473670974873
 32
0.1449999999999997
 13
-0.5300000000000001
 23
-0.1449999999999998
 33
0.2511473670974872
  0
3DFACE
  5
5EE
  8
WHEELS
 10
-0.5299999999999999
 20
0.3300000000000003
 30
0.0000000000000001
 11
-0.5300000000000001
 21
0.2857883832488646
 31
0.1650000000000001
 12
-0.5300000000000001
 22
0.2511473670974869
 32
0.1450000000000001
 13
-0.5300000000000001
 23
0.2899999999999998
 33
0.0000000000000001
  0
3DFACE
  5
5EF
  8
WHEELS
 10
-0.5300000000000001
 20
-0.2857883832488655
 30
0.1650000000000006
 11
-0.5300000000000001
 21
-0.3300000000000003
 31
0.0000000000000001
 12
-0.5300000000000001
 22
-0.2899999999999998
 32
0.0000000000000001
 13
-0.5300000000000001
 23
-0.2511473670974877
 33
0.1450000000000001
  0
3DFACE
  5
5F2
  8
WHEELS
 10
-0.5300000000000001
 20
0.1649999999999998
 30
0.2857883832488653
 11
-0.5300000000000001
 21
-0.0000000000000002
 31
0.3300000000000002
 12
-0.5300000000000001
 22
-0.0000000000000002
 32
0.2900000000000001
 13
-0.5300000000000001
 23
0.1449999999999993
 33
0.2511473670974876
  0
3DFACE
  5
5F3
  8
WHEELS
 10
-0.5300000000000001
 20
-0.0000000000000002
 30
0.3300000000000006
 11
-0.5300000000000001
 21
-0.1650000000000003
 31
0.2857883832488649
 12
-0.5300000000000001
 22
-0.1449999999999998
 32
0.2511473670974872
 13
-0.5300000000000001
 23
-0.0000000000000002
 33
0.2900000000000001
  0
3DFACE
  5
5F4
  8
WHEELS
 10
-0.5500000000000002
 20
0.1300000000000006
 30
0.2251666049839543
 11
-0.5500000000000002
 21
-0.0000000000000002
 31
0.2600000000000003
 12
-0.5500000000000002
 22
-0.1300000000000001
 32
0.2251666049839543
 13
-0.5500000000000002
 23
0.225166604983954
 33
0.13
  0
3DFACE
  5
5F5
  8
WHEELS
 10
-0.5500000000000002
 20
0.2251666049839531
 30
0.1300000000000009
 11
-0.5500000000000002
 21
-0.1300000000000001
 31
0.2251666049839543
 12
-0.5500000000000002
 22
-0.225166604983954
 32
0.13
 13
-0.5500000000000002
 23
0.26
 33
0.0000000000000001
  0
3DFACE
  5
5F6
  8
WHEELS
 10
-0.5500000000000002
 20
0.2599999999999996
 30
0.0000000000000001
 11
-0.5500000000000002
 21
-0.225166604983954
 31
0.13
 12
-0.5500000000000002
 22
-0.26
 32
0.0000000000000001
 13
-0.5500000000000002
 23
0.225166604983954
 33
-0.1299999999999998
  0
3DFACE
  5
5F7
  8
WHEELS
 10
-0.5500000000000002
 20
0.2251666049839536
 30
-0.1299999999999998
 11
-0.5500000000000002
 21
-0.26
 31
0.0000000000000001
 12
-0.5500000000000002
 22
-0.225166604983954
 32
-0.1299999999999998
 13
-0.5500000000000002
 23
0.1299999999999997
 33
-0.2251666049839541
  0
3DFACE
  5
5F8
  8
WHEELS
 10
-0.5500000000000002
 20
0.1299999999999997
 30
-0.2251666049839541
 11
-0.5500000000000002
 21
-0.225166604983954
 31
-0.1299999999999998
 12
-0.5500000000000002
 22
-0.1300000000000001
 32
-0.2251666049839541
 13
-0.5500000000000002
 23
-0.0000000000000002
 33
-0.2600000000000001
  0
3DFACE
  5
5F9
  8
WHEELS
 10
0.5700000000000003
 20
0.3899999999999999
 30
0.0000000000000001
 11
0.5700000000000003
 21
0.3377499074759311
 31
-0.1949999999999997
 12
0.5300000000000003
 22
0.285788383248865
 32
-0.1649999999999995
 13
0.5300000000000003
 23
0.3300000000000001
 33
0.0000000000000001
  0
3DFACE
  5
5FA
  8
WHEELS
 10
0.5700000000000001
 20
-0.3377499074759311
 30
-0.1949999999999997
 11
0.5700000000000001
 21
-0.3899999999999999
 31
0.0000000000000001
 12
0.5300000000000001
 22
-0.3300000000000003
 32
0.0000000000000001
 13
0.5300000000000003
 23
-0.285788383248865
 33
-0.1649999999999999
  0
3DFACE
  5
5FB
  8
WHEELS
 10
0.5300000000000003
 20
-0.2511473670974873
 30
-0.1449999999999999
 11
0.5300000000000003
 21
-0.2900000000000003
 31
0.0000000000000001
 12
0.5500000000000003
 22
-0.26
 32
0.0000000000000001
 13
0.5500000000000003
 23
-0.225166604983954
 33
-0.1299999999999998
  0
3DFACE
  5
5FC
  8
WHEELS
 10
0.5300000000000003
 20
0.29
 30
0.0000000000000001
 11
0.5300000000000003
 21
0.2511473670974873
 31
-0.1449999999999999
 12
0.5500000000000003
 22
0.225166604983954
 32
-0.1299999999999998
 13
0.5500000000000003
 23
0.26
 33
0.0000000000000001
  0
3DFACE
  5
5FD
  8
WHEELS
 10
0.5300000000000003
 20
0.3300000000000007
 30
0.0000000000000001
 11
0.5300000000000003
 21
0.285788383248865
 31
-0.1649999999999999
 12
0.5300000000000003
 22
0.2511473670974873
 32
-0.1449999999999999
 13
0.5300000000000003
 23
0.2900000000000003
 33
0.0000000000000001
  0
3DFACE
  5
5FE
  8
WHEELS
 10
0.5300000000000003
 20
-0.285788383248865
 30
-0.1650000000000004
 11
0.5300000000000001
 21
-0.3299999999999994
 31
-0.0000000000000003
 12
0.5300000000000003
 22
-0.2900000000000003
 32
0.0000000000000001
 13
0.5300000000000003
 23
-0.2511473670974873
 33
-0.1449999999999999
  0
3DFACE
  5
5FF
  8
WHEELS
 10
0.5500000000000003
 20
-0.2599999999999996
 30
0.0000000000000001
 11
0.5500000000000003
 21
0.225166604983954
 31
0.13
 12
0.5500000000000003
 22
0.26
 32
0.0000000000000001
 13
0.5500000000000003
 23
-0.225166604983954
 33
-0.1299999999999998
  0
3DFACE
  5
600
  8
WHEELS
 10
0.5500000000000003
 20
-0.2251666049839536
 30
-0.1299999999999998
 11
0.5500000000000003
 21
0.26
 31
0.0000000000000001
 12
0.5500000000000003
 22
0.225166604983954
 32
-0.1299999999999998
 13
0.5500000000000003
 23
-0.1300000000000001
 33
-0.2251666049839541
  0
3DFACE
  5
601
  8
WHEELS
 10
0.6900000000000003
 20
0.2857883832488648
 30
-0.1650000000000004
 11
0.6900000000000003
 21
0.3299999999999996
 31
-0.0000000000000003
 12
0.6900000000000003
 22
0.29
 32
0.0000000000000001
 13
0.6900000000000003
 23
0.2511473670974869
 33
-0.1449999999999999
  0
3DFACE
  5
602
  8
WHEELS
 10
0.6900000000000003
 20
-0.3300000000000007
 30
0.0000000000000001
 11
0.6900000000000003
 21
-0.285788383248865
 31
-0.1649999999999999
 12
0.6900000000000003
 22
-0.2511473670974873
 32
-0.1449999999999999
 13
0.6900000000000003
 23
-0.2900000000000003
 33
0.0000000000000001
  0
3DFACE
  5
603
  8
WHEELS
 10
0.6500000000000002
 20
0.1991858428704203
 30
-0.1150000000000001
 11
0.6500000000000002
 21
0.2300000000000002
 31
0.0000000000000001
 12
0.6500000000000002
 22
0.03
 32
-0.0000000000000003
 13
0.6500000000000002
 23
0.0150000000000004
 33
-0.0259807621135332
  0
3DFACE
  5
604
  8
WHEELS
 10
0.6500000000000002
 20
0.115
 30
-0.1991858428704208
 11
0.6500000000000002
 21
0.1991858428704203
 31
-0.1150000000000001
 12
0.6500000000000002
 22
0.0150000000000004
 32
-0.0259807621135332
 13
0.6500000000000002
 23
0.0150000000000004
 33
-0.0259807621135332
  0
3DFACE
  5
605
  8
WHEELS
 10
0.6500000000000002
 20
-0.0000000000000002
 30
-0.2299999999999999
 11
0.6500000000000002
 21
0.115
 31
-0.1991858428704208
 12
0.6500000000000002
 22
0.0149999999999999
 32
-0.0259807621135332
 13
0.6500000000000002
 23
-0.0149999999999999
 33
-0.0259807621135332
  0
3DFACE
  5
606
  8
WHEELS
 10
0.6500000000000002
 20
-0.115
 30
-0.1991858428704208
 11
0.6500000000000002
 21
-0.0000000000000002
 31
-0.2299999999999999
 12
0.6500000000000002
 22
-0.0149999999999999
 32
-0.0259807621135332
 13
0.6500000000000002
 23
-0.0149999999999999
 33
-0.0259807621135332
  0
3DFACE
  5
607
  8
WHEELS
 10
0.6500000000000002
 20
-0.1991858428704212
 30
-0.1150000000000001
 11
0.6500000000000002
 21
-0.115
 31
-0.1991858428704213
 12
0.6500000000000002
 22
-0.0150000000000004
 32
-0.0259807621135332
 13
0.6500000000000002
 23
-0.03
 33
-0.0000000000000003
  0
3DFACE
  5
608
  8
WHEELS
 10
0.6500000000000002
 20
-0.2300000000000002
 30
-0.0000000000000003
 11
0.6500000000000002
 21
-0.1991858428704212
 31
-0.1150000000000001
 12
0.6500000000000002
 22
-0.03
 32
-0.0000000000000003
 13
0.6500000000000002
 23
-0.03
 33
-0.0000000000000003
  0
3DFACE
  5
609
  8
WHEELS
 10
0.5700000000000003
 20
0.3377499074759311
 30
-0.1949999999999997
 11
0.5700000000000003
 21
0.3899999999999999
 31
0.0000000000000001
 12
0.6500000000000004
 22
0.3899999999999999
 32
0.0000000000000001
 13
0.6500000000000004
 23
0.3377499074759311
 33
-0.1949999999999997
  0
3DFACE
  5
60A
  8
WHEELS
 10
0.5700000000000001
 20
-0.3899999999999999
 30
0.0000000000000001
 11
0.5700000000000001
 21
-0.3377499074759311
 31
-0.1949999999999997
 12
0.6500000000000002
 22
-0.3377499074759311
 32
-0.1949999999999997
 13
0.6500000000000002
 23
-0.3899999999999999
 33
0.0000000000000001
  0
3DFACE
  5
60B
  8
WHEELS
 10
0.6500000000000004
 20
0.3377499074759311
 30
-0.1949999999999997
 11
0.6500000000000004
 21
0.3899999999999999
 31
0.0000000000000001
 12
0.6900000000000003
 22
0.3300000000000001
 32
0.0000000000000001
 13
0.6900000000000003
 23
0.2857883832488648
 33
-0.1649999999999999
  0
3DFACE
  5
60C
  8
WHEELS
 10
0.6500000000000002
 20
-0.3899999999999999
 30
0.0000000000000001
 11
0.6500000000000002
 21
-0.3377499074759311
 31
-0.1949999999999997
 12
0.6900000000000003
 22
-0.285788383248865
 32
-0.1649999999999995
 13
0.6900000000000003
 23
-0.3300000000000003
 33
0.0000000000000001
  0
3DFACE
  5
60D
  8
WHEELS
 10
0.6900000000000003
 20
0.2511473670974873
 30
-0.1449999999999999
 11
0.6900000000000003
 21
0.29
 31
0.0000000000000001
 12
0.6700000000000002
 22
0.26
 32
0.0000000000000001
 13
0.6700000000000002
 23
0.225166604983954
 33
-0.1299999999999998
  0
3DFACE
  5
60E
  8
WHEELS
 10
0.6900000000000003
 20
-0.2900000000000003
 30
0.0000000000000001
 11
0.6900000000000003
 21
-0.2511473670974873
 31
-0.1449999999999999
 12
0.6700000000000002
 22
-0.225166604983954
 32
-0.1299999999999998
 13
0.6700000000000002
 23
-0.26
 33
0.0000000000000001
  0
3DFACE
  5
60F
  8
WHEELS
 10
0.6700000000000004
 20
0.225166604983954
 30
-0.1299999999999998
 11
0.6700000000000004
 21
0.26
 31
0.0000000000000001
 12
0.6500000000000004
 22
0.2300000000000002
 32
0.0000000000000001
 13
0.6500000000000004
 23
0.1991858428704207
 33
-0.1150000000000001
  0
3DFACE
  5
610
  8
WHEELS
 10
0.6700000000000002
 20
-0.26
 30
0.0000000000000001
 11
0.6700000000000002
 21
-0.225166604983954
 31
-0.1299999999999998
 12
0.6500000000000002
 22
-0.1991858428704207
 32
-0.1149999999999997
 13
0.6500000000000002
 23
-0.2299999999999998
 33
0.0000000000000001
  0
3DFACE
  5
611
  8
WHEELS
 10
0.5700000000000003
 20
0.1950000000000001
 30
-0.3377499074759308
 11
0.5700000000000003
 21
-0.0000000000000002
 31
-0.39
 12
0.5300000000000003
 22
-0.0000000000000002
 32
-0.33
 13
0.5300000000000003
 23
0.1650000000000003
 33
-0.2857883832488647
  0
3DFACE
  5
612
  8
WHEELS
 10
0.5700000000000003
 20
-0.0000000000000002
 30
-0.39
 11
0.5700000000000001
 21
-0.1950000000000001
 31
-0.3377499074759308
 12
0.5300000000000003
 22
-0.1650000000000003
 32
-0.2857883832488647
 13
0.5300000000000003
 23
-0.0000000000000002
 33
-0.33
  0
3DFACE
  5
613
  8
WHEELS
 10
0.5700000000000003
 20
-0.0000000000000002
 30
-0.39
 11
0.5700000000000003
 21
0.1950000000000001
 31
-0.3377499074759308
 12
0.6500000000000002
 22
0.1950000000000001
 32
-0.3377499074759308
 13
0.6500000000000002
 23
-0.0000000000000002
 33
-0.39
  0
3DFACE
  5
614
  8
WHEELS
 10
0.5700000000000003
 20
-0.1950000000000001
 30
-0.3377499074759308
 11
0.5700000000000003
 21
-0.0000000000000002
 31
-0.39
 12
0.6500000000000002
 22
-0.0000000000000002
 32
-0.39
 13
0.6500000000000002
 23
-0.1950000000000001
 33
-0.3377499074759308
  0
3DFACE
  5
615
  8
WHEELS
 10
0.6500000000000002
 20
-0.0000000000000002
 30
-0.39
 11
0.6500000000000002
 21
0.1950000000000001
 31
-0.3377499074759308
 12
0.6900000000000003
 22
0.1649999999999998
 32
-0.2857883832488647
 13
0.6900000000000003
 23
-0.0000000000000002
 33
-0.33
  0
3DFACE
  5
616
  8
WHEELS
 10
0.6500000000000002
 20
-0.1950000000000001
 30
-0.3377499074759308
 11
0.6500000000000002
 21
-0.0000000000000002
 31
-0.39
 12
0.6900000000000003
 22
-0.0000000000000002
 32
-0.33
 13
0.6900000000000003
 23
-0.1650000000000003
 33
-0.2857883832488647
  0
3DFACE
  5
617
  8
WHEELS
 10
0.5700000000000003
 20
0.3377499074759311
 30
-0.1949999999999997
 11
0.5700000000000003
 21
0.1950000000000001
 31
-0.3377499074759308
 12
0.5300000000000003
 22
0.1650000000000003
 32
-0.2857883832488647
 13
0.5300000000000003
 23
0.285788383248865
 33
-0.1649999999999995
  0
3DFACE
  5
618
  8
WHEELS
 10
0.5700000000000001
 20
-0.1950000000000001
 30
-0.3377499074759308
 11
0.5700000000000001
 21
-0.3377499074759311
 31
-0.1949999999999997
 12
0.5300000000000003
 22
-0.285788383248865
 32
-0.1649999999999999
 13
0.5300000000000003
 23
-0.1650000000000003
 33
-0.2857883832488647
  0
3DFACE
  5
619
  8
WHEELS
 10
0.5300000000000003
 20
-0.1449999999999998
 30
-0.251147367097487
 11
0.5300000000000003
 21
-0.2511473670974873
 31
-0.1449999999999999
 12
0.5500000000000003
 22
-0.225166604983954
 32
-0.1299999999999998
 13
0.5500000000000003
 23
-0.1300000000000001
 33
-0.2251666049839541
  0
3DFACE
  5
61A
  8
WHEELS
 10
0.5300000000000003
 20
-0.0000000000000002
 30
-0.29
 11
0.5300000000000003
 21
-0.1449999999999998
 31
-0.251147367097487
 12
0.5500000000000003
 22
-0.1300000000000001
 32
-0.2251666049839541
 13
0.5500000000000003
 23
-0.0000000000000002
 33
-0.2600000000000001
  0
3DFACE
  5
61B
  8
WHEELS
 10
0.5300000000000003
 20
0.1450000000000002
 30
-0.251147367097487
 11
0.5300000000000003
 21
-0.0000000000000002
 31
-0.29
 12
0.5500000000000003
 22
-0.0000000000000002
 32
-0.2600000000000001
 13
0.5500000000000003
 23
0.1300000000000001
 33
-0.2251666049839541
  0
3DFACE
  5
61C
  8
WHEELS
 10
0.5300000000000003
 20
0.2511473670974873
 30
-0.1449999999999999
 11
0.5300000000000003
 21
0.1450000000000002
 31
-0.251147367097487
 12
0.5500000000000003
 22
0.1300000000000001
 32
-0.2251666049839541
 13
0.5500000000000003
 23
0.225166604983954
 33
-0.1299999999999998
  0
3DFACE
  5
61D
  8
WHEELS
 10
0.5300000000000003
 20
0.2857883832488655
 30
-0.1650000000000004
 11
0.5300000000000003
 21
0.1650000000000003
 31
-0.2857883832488651
 12
0.5300000000000003
 22
0.1450000000000002
 32
-0.2511473670974874
 13
0.5300000000000003
 23
0.2511473670974873
 33
-0.1449999999999999
  0
3DFACE
  5
61E
  8
WHEELS
 10
0.5300000000000003
 20
0.1650000000000003
 30
-0.2857883832488647
 11
0.5300000000000003
 21
0.0000000000000002
 31
-0.3299999999999995
 12
0.5300000000000003
 22
-0.0000000000000002
 32
-0.2899999999999995
 13
0.5300000000000003
 23
0.1450000000000002
 33
-0.251147367097487
  0
3DFACE
  5
61F
  8
WHEELS
 10
0.5300000000000003
 20
-0.0000000000000002
 30
-0.3300000000000004
 11
0.5300000000000003
 21
-0.1650000000000003
 31
-0.2857883832488651
 12
0.5300000000000003
 22
-0.1449999999999998
 32
-0.2511473670974874
 13
0.5300000000000003
 23
-0.0000000000000002
 33
-0.29
  0
3DFACE
  5
620
  8
WHEELS
 10
0.5300000000000003
 20
-0.1650000000000003
 30
-0.2857883832488651
 11
0.5300000000000003
 21
-0.2857883832488646
 31
-0.1649999999999999
 12
0.5300000000000003
 22
-0.2511473670974873
 32
-0.1449999999999999
 13
0.5300000000000003
 23
-0.1449999999999998
 33
-0.251147367097487
  0
3DFACE
  5
621
  8
WHEELS
 10
0.5500000000000003
 20
-0.1300000000000001
 30
-0.2251666049839541
 11
0.5500000000000003
 21
0.225166604983954
 31
-0.1299999999999998
 12
0.5500000000000003
 22
0.1300000000000001
 32
-0.2251666049839541
 13
0.5500000000000003
 23
-0.0000000000000002
 33
-0.2600000000000001
  0
3DFACE
  5
622
  8
WHEELS
 10
0.6900000000000003
 20
0.1649999999999998
 30
-0.2857883832488651
 11
0.6900000000000003
 21
0.2857883832488646
 31
-0.1649999999999999
 12
0.6900000000000003
 22
0.2511473670974869
 32
-0.1449999999999999
 13
0.6900000000000003
 23
0.1449999999999998
 33
-0.251147367097487
  0
3DFACE
  5
623
  8
WHEELS
 10
0.6900000000000003
 20
-0.0000000000000002
 30
-0.3300000000000004
 11
0.6900000000000003
 21
0.1649999999999998
 31
-0.2857883832488651
 12
0.6900000000000003
 22
0.1450000000000002
 32
-0.2511473670974874
 13
0.6900000000000003
 23
-0.0000000000000002
 33
-0.29
  0
3DFACE
  5
624
  8
WHEELS
 10
0.6900000000000003
 20
-0.1650000000000003
 30
-0.2857883832488647
 11
0.6900000000000003
 21
-0.0000000000000002
 31
-0.3299999999999995
 12
0.6900000000000003
 22
0.0000000000000002
 32
-0.2899999999999995
 13
0.6900000000000003
 23
-0.1450000000000002
 33
-0.251147367097487
  0
3DFACE
  5
625
  8
WHEELS
 10
0.6900000000000003
 20
-0.2857883832488655
 30
-0.1650000000000004
 11
0.6900000000000003
 21
-0.1650000000000003
 31
-0.2857883832488651
 12
0.6900000000000003
 22
-0.1450000000000002
 32
-0.2511473670974874
 13
0.6900000000000003
 23
-0.2511473670974873
 33
-0.1449999999999999
  0
3DFACE
  5
626
  8
WHEELS
 10
0.6500000000000002
 20
0.0066987298107779
 30
-0.1116025403784441
 11
0.6500000000000002
 21
0.0166987298107781
 31
-0.0942820323027553
 12
0.6700000000000002
 22
0.0166987298107781
 32
-0.0942820323027553
 13
0.6700000000000002
 23
0.0066987298107779
 33
-0.1116025403784441
  0
3DFACE
  5
627
  8
WHEELS
 10
0.6500000000000002
 20
0.0166987298107781
 30
-0.0942820323027553
 11
0.6500000000000002
 21
0.0066987298107783
 31
-0.0769615242270664
 12
0.6700000000000002
 22
0.0066987298107783
 32
-0.0769615242270664
 13
0.6700000000000002
 23
0.0166987298107781
 33
-0.0942820323027553
  0
3DFACE
  5
628
  8
WHEELS
 10
0.6500000000000002
 20
0.0066987298107783
 30
-0.0769615242270664
 11
0.6500000000000002
 21
-0.0133012701892221
 31
-0.0769615242270664
 12
0.6700000000000002
 22
-0.0133012701892221
 32
-0.0769615242270664
 13
0.6700000000000002
 23
0.0066987298107783
 33
-0.0769615242270664
  0
3DFACE
  5
629
  8
WHEELS
 10
0.6500000000000002
 20
-0.0133012701892221
 30
-0.0769615242270664
 11
0.6500000000000002
 21
-0.0233012701892219
 31
-0.0942820323027553
 12
0.6700000000000002
 22
-0.0233012701892219
 32
-0.0942820323027553
 13
0.6700000000000002
 23
-0.0133012701892221
 33
-0.0769615242270664
  0
3DFACE
  5
62A
  8
WHEELS
 10
0.6500000000000002
 20
-0.0233012701892219
 30
-0.0942820323027553
 11
0.6500000000000002
 21
-0.0133012701892221
 31
-0.1116025403784441
 12
0.6700000000000002
 22
-0.0133012701892221
 32
-0.1116025403784441
 13
0.6700000000000002
 23
-0.0233012701892219
 33
-0.0942820323027553
  0
3DFACE
  5
62B
  8
WHEELS
 10
0.6500000000000002
 20
-0.0133012701892221
 30
-0.1116025403784441
 11
0.6500000000000002
 21
0.0066987298107779
 31
-0.1116025403784441
 12
0.6700000000000002
 22
0.0066987298107779
 32
-0.1116025403784441
 13
0.6700000000000002
 23
-0.0133012701892221
 33
-0.1116025403784441
  0
3DFACE
  5
62C
  8
WHEELS
 10
0.6700000000000002
 20
0.0166987298107781
 30
-0.0942820323027553
 11
0.6700000000000002
 21
0.0066987298107783
 31
-0.0769615242270664
 12
0.6700000000000002
 22
-0.0133012701892221
 32
-0.0769615242270664
 13
0.6700000000000002
 23
0.0066987298107779
 33
-0.1116025403784441
  0
3DFACE
  5
62D
  8
WHEELS
 10
0.6700000000000002
 20
0.0066987298107779
 30
-0.1116025403784441
 11
0.6700000000000002
 21
-0.0133012701892221
 31
-0.0769615242270664
 12
0.6700000000000002
 22
-0.0233012701892219
 32
-0.0942820323027553
 13
0.6700000000000002
 23
-0.0133012701892221
 33
-0.1116025403784441
  0
3DFACE
  5
62E
  8
WHEELS
 10
0.5700000000000003
 20
0.1950000000000001
 30
-0.3377499074759308
 11
0.5700000000000003
 21
0.3377499074759311
 31
-0.1949999999999997
 12
0.6500000000000004
 22
0.3377499074759311
 32
-0.1949999999999997
 13
0.6500000000000002
 23
0.1950000000000001
 33
-0.3377499074759308
  0
3DFACE
  5
62F
  8
WHEELS
 10
0.5700000000000001
 20
-0.3377499074759311
 30
-0.1949999999999997
 11
0.5700000000000003
 21
-0.1950000000000001
 31
-0.3377499074759308
 12
0.6500000000000002
 22
-0.1950000000000001
 32
-0.3377499074759308
 13
0.6500000000000002
 23
-0.3377499074759311
 33
-0.1949999999999997
  0
3DFACE
  5
630
  8
WHEELS
 10
0.6500000000000002
 20
0.1950000000000001
 30
-0.3377499074759308
 11
0.6500000000000004
 21
0.3377499074759311
 31
-0.1949999999999997
 12
0.6900000000000003
 22
0.2857883832488648
 32
-0.1649999999999999
 13
0.6900000000000003
 23
0.1649999999999998
 33
-0.2857883832488647
  0
3DFACE
  5
631
  8
WHEELS
 10
0.6500000000000002
 20
-0.3377499074759311
 30
-0.1949999999999997
 11
0.6500000000000002
 21
-0.1950000000000001
 31
-0.3377499074759308
 12
0.6900000000000003
 22
-0.1650000000000003
 32
-0.2857883832488647
 13
0.6900000000000003
 23
-0.285788383248865
 33
-0.1649999999999995
  0
3DFACE
  5
632
  8
WHEELS
 10
0.6900000000000003
 20
0.1450000000000002
 30
-0.251147367097487
 11
0.6900000000000003
 21
0.2511473670974873
 31
-0.1449999999999999
 12
0.6700000000000002
 22
0.225166604983954
 32
-0.1299999999999998
 13
0.6700000000000002
 23
0.1300000000000001
 33
-0.2251666049839541
  0
3DFACE
  5
633
  8
WHEELS
 10
0.6900000000000003
 20
-0.0000000000000002
 30
-0.29
 11
0.6900000000000003
 21
0.1450000000000002
 31
-0.251147367097487
 12
0.6700000000000002
 22
0.1300000000000001
 32
-0.2251666049839541
 13
0.6700000000000002
 23
-0.0000000000000002
 33
-0.2600000000000001
  0
3DFACE
  5
634
  8
WHEELS
 10
0.6900000000000003
 20
-0.1449999999999998
 30
-0.251147367097487
 11
0.6900000000000003
 21
-0.0000000000000002
 31
-0.29
 12
0.6700000000000002
 22
-0.0000000000000002
 32
-0.2600000000000001
 13
0.6700000000000002
 23
-0.1300000000000001
 33
-0.2251666049839537
  0
3DFACE
  5
635
  8
WHEELS
 10
0.6900000000000003
 20
-0.2511473670974873
 30
-0.1449999999999999
 11
0.6900000000000003
 21
-0.1449999999999998
 31
-0.251147367097487
 12
0.6700000000000002
 22
-0.1300000000000001
 32
-0.2251666049839537
 13
0.6700000000000002
 23
-0.225166604983954
 33
-0.1299999999999998
  0
3DFACE
  5
636
  8
WHEELS
 10
0.6700000000000002
 20
0.1299999999999997
 30
-0.2251666049839541
 11
0.6700000000000004
 21
0.225166604983954
 31
-0.1299999999999998
 12
0.6500000000000004
 22
0.1991858428704207
 32
-0.1150000000000001
 13
0.6500000000000002
 23
0.115
 33
-0.1991858428704208
  0
3DFACE
  5
637
  8
WHEELS
 10
0.6700000000000002
 20
-0.0000000000000002
 30
-0.2600000000000001
 11
0.6700000000000002
 21
0.1299999999999997
 31
-0.2251666049839541
 12
0.6500000000000002
 22
0.115
 32
-0.1991858428704208
 13
0.6500000000000002
 23
-0.0000000000000002
 33
-0.2299999999999999
  0
3DFACE
  5
638
  8
WHEELS
 10
0.6700000000000002
 20
-0.1300000000000001
 30
-0.2251666049839541
 11
0.6700000000000002
 21
-0.0000000000000002
 31
-0.2600000000000001
 12
0.6500000000000002
 22
-0.0000000000000002
 32
-0.2299999999999999
 13
0.6500000000000002
 23
-0.115
 33
-0.1991858428704208
  0
3DFACE
  5
639
  8
WHEELS
 10
0.6700000000000002
 20
-0.225166604983954
 30
-0.1299999999999998
 11
0.6700000000000002
 21
-0.1300000000000001
 31
-0.2251666049839541
 12
0.6500000000000002
 22
-0.115
 32
-0.1991858428704208
 13
0.6500000000000002
 23
-0.1991858428704207
 33
-0.1149999999999997
  0
3DFACE
  5
63A
  8
WHEELS
 10
0.5700000000000001
 20
-0.3377499074759311
 30
0.195
 11
0.5700000000000001
 21
-0.1950000000000001
 31
0.337749907475931
 12
0.5300000000000003
 22
-0.1650000000000003
 32
0.2857883832488649
 13
0.5300000000000003
 23
-0.285788383248865
 33
0.1650000000000001
  0
3DFACE
  5
63B
  8
WHEELS
 10
0.5700000000000003
 20
0.1950000000000001
 30
0.337749907475931
 11
0.5700000000000003
 21
0.3377499074759311
 31
0.1950000000000004
 12
0.5300000000000003
 22
0.2857883832488646
 32
0.1650000000000001
 13
0.5300000000000003
 23
0.1649999999999998
 33
0.2857883832488649
  0
3DFACE
  5
63C
  8
WHEELS
 10
0.5300000000000003
 20
0.1450000000000002
 30
0.2511473670974872
 11
0.5300000000000003
 21
0.2511473670974873
 31
0.1450000000000001
 12
0.5500000000000003
 22
0.225166604983954
 32
0.13
 13
0.5500000000000003
 23
0.1300000000000001
 33
0.2251666049839543
  0
3DFACE
  5
63D
  8
WHEELS
 10
0.5300000000000003
 20
-0.0000000000000002
 30
0.2900000000000001
 11
0.5300000000000003
 21
0.1450000000000002
 31
0.2511473670974872
 12
0.5500000000000003
 22
0.1300000000000001
 32
0.2251666049839543
 13
0.5500000000000003
 23
-0.0000000000000002
 33
0.2600000000000003
  0
3DFACE
  5
63E
  8
WHEELS
 10
0.5300000000000003
 20
-0.1449999999999998
 30
0.2511473670974872
 11
0.5300000000000003
 21
-0.0000000000000002
 31
0.2900000000000001
 12
0.5500000000000003
 22
-0.0000000000000002
 32
0.2600000000000003
 13
0.5500000000000003
 23
-0.1300000000000001
 33
0.2251666049839539
  0
3DFACE
  5
63F
  8
WHEELS
 10
0.5300000000000003
 20
-0.2511473670974873
 30
0.1450000000000001
 11
0.5300000000000003
 21
-0.1449999999999998
 31
0.2511473670974872
 12
0.5500000000000003
 22
-0.1300000000000001
 32
0.2251666049839539
 13
0.5500000000000003
 23
-0.225166604983954
 33
0.13
  0
3DFACE
  5
640
  8
WHEELS
 10
0.5300000000000003
 20
0.1650000000000003
 30
0.2857883832488649
 11
0.5300000000000003
 21
0.2857883832488648
 31
0.1650000000000001
 12
0.5300000000000003
 22
0.2511473670974873
 32
0.1449999999999997
 13
0.5300000000000003
 23
0.1450000000000002
 33
0.2511473670974872
  0
3DFACE
  5
641
  8
WHEELS
 10
0.5300000000000003
 20
-0.285788383248865
 30
0.1650000000000006
 11
0.5300000000000003
 21
-0.1649999999999998
 31
0.2857883832488649
 12
0.5300000000000003
 22
-0.1449999999999998
 32
0.2511473670974872
 13
0.5300000000000003
 23
-0.2511473670974873
 33
0.1450000000000001
  0
3DFACE
  5
642
  8
WHEELS
 10
0.5500000000000003
 20
-0.1300000000000001
 30
0.2251666049839543
 11
0.5500000000000003
 21
-0.0000000000000002
 31
0.2600000000000003
 12
0.5500000000000003
 22
0.1300000000000001
 32
0.2251666049839543
 13
0.5500000000000003
 23
-0.225166604983954
 33
0.13
  0
3DFACE
  5
643
  8
WHEELS
 10
0.6900000000000003
 20
0.285788383248865
 30
0.1650000000000006
 11
0.6900000000000003
 21
0.1649999999999998
 31
0.2857883832488649
 12
0.6900000000000003
 22
0.1449999999999998
 32
0.2511473670974872
 13
0.6900000000000003
 23
0.2511473670974873
 33
0.1450000000000001
  0
3DFACE
  5
644
  8
WHEELS
 10
0.6900000000000003
 20
-0.1650000000000003
 30
0.2857883832488649
 11
0.6900000000000003
 21
-0.285788383248865
 31
0.1650000000000001
 12
0.6900000000000003
 22
-0.2511473670974873
 32
0.1449999999999997
 13
0.6900000000000003
 23
-0.1449999999999998
 33
0.2511473670974872
  0
3DFACE
  5
645
  8
WHEELS
 10
0.5700000000000003
 20
-0.1949999999999996
 30
0.337749907475931
 11
0.5700000000000001
 21
-0.3377499074759311
 31
0.1950000000000004
 12
0.6500000000000002
 22
-0.3377499074759311
 32
0.1950000000000004
 13
0.6500000000000002
 23
-0.1949999999999996
 33
0.337749907475931
  0
3DFACE
  5
646
  8
WHEELS
 10
0.5700000000000003
 20
0.3377499074759311
 30
0.195
 11
0.5700000000000003
 21
0.1950000000000001
 31
0.337749907475931
 12
0.6500000000000002
 22
0.1950000000000001
 32
0.337749907475931
 13
0.6500000000000004
 23
0.3377499074759311
 33
0.195
  0
3DFACE
  5
647
  8
WHEELS
 10
0.6500000000000002
 20
-0.1949999999999996
 30
0.337749907475931
 11
0.6500000000000002
 21
-0.3377499074759311
 31
0.1950000000000004
 12
0.6900000000000003
 22
-0.2857883832488646
 32
0.1650000000000001
 13
0.6900000000000003
 23
-0.1650000000000003
 33
0.2857883832488649
  0
3DFACE
  5
648
  8
WHEELS
 10
0.6500000000000004
 20
0.3377499074759311
 30
0.195
 11
0.6500000000000002
 21
0.1950000000000001
 31
0.337749907475931
 12
0.6900000000000003
 22
0.1649999999999998
 32
0.2857883832488649
 13
0.6900000000000003
 23
0.2857883832488648
 33
0.1650000000000001
  0
3DFACE
  5
649
  8
WHEELS
 10
0.6900000000000003
 20
-0.1449999999999998
 30
0.2511473670974872
 11
0.6900000000000003
 21
-0.2511473670974873
 31
0.1450000000000001
 12
0.6700000000000002
 22
-0.225166604983954
 32
0.13
 13
0.6700000000000002
 23
-0.1300000000000001
 33
0.2251666049839543
  0
3DFACE
  5
64A
  8
WHEELS
 10
0.6900000000000003
 20
-0.0000000000000002
 30
0.2900000000000001
 11
0.6900000000000003
 21
-0.1449999999999998
 31
0.2511473670974872
 12
0.6700000000000002
 22
-0.1300000000000001
 32
0.2251666049839543
 13
0.6700000000000002
 23
-0.0000000000000002
 33
0.2600000000000003
  0
3DFACE
  5
64B
  8
WHEELS
 10
0.6900000000000003
 20
0.1450000000000002
 30
0.2511473670974872
 11
0.6900000000000003
 21
-0.0000000000000002
 31
0.2900000000000001
 12
0.6700000000000002
 22
-0.0000000000000002
 32
0.2600000000000003
 13
0.6700000000000002
 23
0.1300000000000001
 33
0.2251666049839543
  0
3DFACE
  5
64C
  8
WHEELS
 10
0.6900000000000003
 20
0.2511473670974873
 30
0.1450000000000001
 11
0.6900000000000003
 21
0.1450000000000002
 31
0.2511473670974872
 12
0.6700000000000002
 22
0.1300000000000001
 32
0.2251666049839543
 13
0.6700000000000002
 23
0.225166604983954
 33
0.13
  0
3DFACE
  5
64D
  8
WHEELS
 10
0.6700000000000002
 20
-0.0000000000000002
 30
0.2600000000000003
 11
0.6700000000000002
 21
-0.1300000000000001
 31
0.2251666049839543
 12
0.6500000000000002
 22
-0.115
 32
0.1991858428704211
 13
0.6500000000000002
 23
-0.0000000000000002
 33
0.2300000000000001
  0
3DFACE
  5
64E
  8
WHEELS
 10
0.6700000000000002
 20
0.1300000000000001
 30
0.2251666049839539
 11
0.6700000000000002
 21
-0.0000000000000002
 31
0.2600000000000003
 12
0.6500000000000002
 22
-0.0000000000000002
 32
0.2300000000000001
 13
0.6500000000000002
 23
0.115
 33
0.1991858428704211
  0
3DFACE
  5
64F
  8
WHEELS
 10
0.5700000000000001
 20
-0.3899999999999999
 30
0.0000000000000001
 11
0.5700000000000001
 21
-0.3377499074759311
 31
0.195
 12
0.5300000000000003
 22
-0.285788383248865
 32
0.1650000000000001
 13
0.5300000000000001
 23
-0.3300000000000003
 33
0.0000000000000001
  0
3DFACE
  5
650
  8
WHEELS
 10
0.5700000000000003
 20
0.3377499074759311
 30
0.1950000000000004
 11
0.5700000000000003
 21
0.3899999999999999
 31
0.0000000000000001
 12
0.5300000000000003
 22
0.3300000000000001
 32
0.0000000000000001
 13
0.5300000000000003
 23
0.2857883832488646
 33
0.1650000000000001
  0
3DFACE
  5
651
  8
WHEELS
 10
0.5300000000000003
 20
0.2511473670974873
 30
0.1450000000000001
 11
0.5300000000000003
 21
0.29
 31
0.0000000000000001
 12
0.5500000000000003
 22
0.26
 32
0.0000000000000001
 13
0.5500000000000003
 23
0.225166604983954
 33
0.13
  0
3DFACE
  5
652
  8
WHEELS
 10
0.5300000000000003
 20
-0.2900000000000003
 30
0.0000000000000001
 11
0.5300000000000003
 21
-0.2511473670974873
 31
0.1450000000000001
 12
0.5500000000000003
 22
-0.225166604983954
 32
0.13
 13
0.5500000000000003
 23
-0.26
 33
0.0000000000000001
  0
3DFACE
  5
653
  8
WHEELS
 10
0.5300000000000003
 20
0.2857883832488655
 30
0.1650000000000006
 11
0.5300000000000003
 21
0.3300000000000003
 31
0.0000000000000001
 12
0.5300000000000003
 22
0.2899999999999998
 32
0.0000000000000001
 13
0.5300000000000003
 23
0.2511473670974877
 33
0.1450000000000001
  0
3DFACE
  5
654
  8
WHEELS
 10
0.5300000000000001
 20
-0.3300000000000003
 30
0.0000000000000001
 11
0.5300000000000003
 21
-0.2857883832488646
 31
0.1650000000000001
 12
0.5300000000000003
 22
-0.2511473670974869
 32
0.1450000000000001
 13
0.5300000000000003
 23
-0.2899999999999998
 33
0.0000000000000001
  0
3DFACE
  5
655
  8
WHEELS
 10
0.5500000000000003
 20
-0.2251666049839536
 30
0.1300000000000009
 11
0.5500000000000003
 21
0.1300000000000001
 31
0.2251666049839543
 12
0.5500000000000003
 22
0.225166604983954
 32
0.13
 13
0.5500000000000003
 23
-0.26
 33
0.0000000000000001
  0
3DFACE
  5
656
  8
WHEELS
 10
0.6900000000000003
 20
0.3300000000000003
 30
0.0000000000000001
 11
0.6900000000000003
 21
0.2857883832488646
 31
0.1650000000000001
 12
0.6900000000000003
 22
0.2511473670974869
 32
0.1450000000000001
 13
0.6900000000000003
 23
0.2899999999999998
 33
0.0000000000000001
  0
3DFACE
  5
657
  8
WHEELS
 10
0.6900000000000003
 20
-0.2857883832488655
 30
0.1650000000000006
 11
0.6900000000000003
 21
-0.3300000000000003
 31
0.0000000000000001
 12
0.6900000000000003
 22
-0.2899999999999998
 32
0.0000000000000001
 13
0.6900000000000003
 23
-0.2511473670974877
 33
0.1450000000000001
  0
3DFACE
  5
658
  8
WHEELS
 10
0.6500000000000002
 20
0.1991858428704207
 30
0.1149999999999999
 11
0.6500000000000002
 21
0.1149999999999995
 31
0.1991858428704211
 12
0.6500000000000002
 22
0.0149999999999999
 32
0.025980762113533
 13
0.6500000000000002
 23
0.0299999999999996
 33
-0.0000000000000003
  0
3DFACE
  5
659
  8
WHEELS
 10
0.6500000000000004
 20
0.2299999999999998
 30
-0.0000000000000003
 11
0.6500000000000002
 21
0.1991858428704207
 31
0.1149999999999999
 12
0.6500000000000002
 22
0.0299999999999996
 32
-0.0000000000000003
 13
0.6500000000000002
 23
0.0299999999999996
 33
-0.0000000000000003
  0
3DFACE
  5
65A
  8
WHEELS
 10
0.6500000000000002
 20
-0.1991858428704212
 30
0.1149999999999999
 11
0.6500000000000002
 21
-0.2300000000000006
 31
0.0000000000000001
 12
0.6500000000000002
 22
-0.0300000000000005
 32
0.0000000000000006
 13
0.6500000000000002
 23
-0.0150000000000008
 33
0.0259807621135334
  0
3DFACE
  5
65B
  8
WHEELS
 10
0.6500000000000002
 20
-0.1150000000000004
 30
0.1991858428704211
 11
0.6500000000000002
 21
-0.1991858428704212
 31
0.1149999999999999
 12
0.6500000000000002
 22
-0.0150000000000008
 32
0.0259807621135334
 13
0.6500000000000002
 23
-0.0150000000000008
 33
0.0259807621135334
  0
3DFACE
  5
65C
  8
WHEELS
 10
0.7000000000000002
 20
0.03
 30
0.0000000000000001
 11
0.7000000000000002
 21
-0.03
 31
0.0000000000000001
 12
0.7000000000000002
 22
-0.0149999999999999
 32
-0.0259807621135332
 13
0.7000000000000002
 23
0.0149999999999999
 33
-0.0259807621135332
  0
3DFACE
  5
65D
  8
WHEELS
 10
0.7000000000000002
 20
0.0149999999999999
 30
0.0259807621135334
 11
0.7000000000000002
 21
-0.0149999999999999
 31
0.0259807621135334
 12
0.7000000000000002
 22
-0.03
 32
0.0000000000000001
 13
0.7000000000000002
 23
0.03
 33
0.0000000000000001
  0
3DFACE
  5
65E
  8
WHEELS
 10
0.6500000000000002
 20
-0.0933012701892218
 30
-0.0616025403784438
 11
0.6500000000000002
 21
-0.0733012701892222
 31
-0.0616025403784438
 12
0.6700000000000002
 22
-0.0733012701892222
 32
-0.0616025403784438
 13
0.6700000000000002
 23
-0.0933012701892218
 33
-0.0616025403784438
  0
3DFACE
  5
65F
  8
WHEELS
 10
0.6500000000000002
 20
-0.0733012701892222
 30
-0.0616025403784438
 11
0.6500000000000002
 21
-0.0633012701892224
 31
-0.0442820323027554
 12
0.6700000000000002
 22
-0.0633012701892224
 32
-0.0442820323027554
 13
0.6700000000000002
 23
-0.0733012701892222
 33
-0.0616025403784438
  0
3DFACE
  5
660
  8
WHEELS
 10
0.6500000000000002
 20
-0.0633012701892224
 30
-0.0442820323027554
 11
0.6500000000000002
 21
-0.0733012701892222
 31
-0.0269615242270666
 12
0.6700000000000002
 22
-0.0733012701892222
 32
-0.0269615242270666
 13
0.6700000000000002
 23
-0.0633012701892224
 33
-0.0442820323027554
  0
3DFACE
  5
661
  8
WHEELS
 10
0.6500000000000002
 20
-0.0733012701892222
 30
-0.0269615242270666
 11
0.6500000000000002
 21
-0.0933012701892226
 31
-0.0269615242270666
 12
0.6700000000000002
 22
-0.0933012701892226
 32
-0.0269615242270666
 13
0.6700000000000002
 23
-0.0733012701892222
 33
-0.0269615242270666
  0
3DFACE
  5
662
  8
WHEELS
 10
0.6500000000000002
 20
-0.0933012701892226
 30
-0.0269615242270666
 11
0.6500000000000002
 21
-0.1033012701892224
 31
-0.044282032302755
 12
0.6700000000000002
 22
-0.1033012701892224
 32
-0.044282032302755
 13
0.6700000000000002
 23
-0.0933012701892226
 33
-0.0269615242270666
  0
3DFACE
  5
663
  8
WHEELS
 10
0.6500000000000002
 20
-0.1033012701892224
 30
-0.044282032302755
 11
0.6500000000000002
 21
-0.0933012701892218
 31
-0.0616025403784438
 12
0.6700000000000002
 22
-0.0933012701892218
 32
-0.0616025403784438
 13
0.6700000000000002
 23
-0.1033012701892224
 33
-0.044282032302755
  0
3DFACE
  5
664
  8
WHEELS
 10
0.6700000000000002
 20
-0.0733012701892222
 30
-0.0616025403784438
 11
0.6700000000000002
 21
-0.0633012701892224
 31
-0.0442820323027554
 12
0.6700000000000002
 22
-0.0733012701892222
 32
-0.0269615242270666
 13
0.6700000000000002
 23
-0.0933012701892218
 33
-0.0616025403784438
  0
3DFACE
  5
665
  8
WHEELS
 10
0.6700000000000002
 20
-0.0933012701892218
 30
-0.0616025403784438
 11
0.6700000000000002
 21
-0.0733012701892222
 31
-0.0269615242270666
 12
0.6700000000000002
 22
-0.0933012701892226
 32
-0.0269615242270666
 13
0.6700000000000002
 23
-0.1033012701892224
 33
-0.044282032302755
  0
3DFACE
  5
666
  8
WHEELS
 10
0.6500000000000002
 20
-0.0999999999999999
 30
0.0499999999999999
 11
0.6500000000000002
 21
-0.0900000000000001
 31
0.0326794919243111
 12
0.6700000000000002
 22
-0.0900000000000001
 32
0.0326794919243111
 13
0.6700000000000002
 23
-0.0999999999999999
 33
0.0499999999999999
  0
3DFACE
  5
667
  8
WHEELS
 10
0.6500000000000002
 20
-0.0900000000000001
 30
0.0326794919243111
 11
0.6500000000000002
 21
-0.0700000000000001
 31
0.0326794919243111
 12
0.6700000000000002
 22
-0.0700000000000001
 32
0.0326794919243111
 13
0.6700000000000002
 23
-0.0900000000000001
 33
0.0326794919243111
  0
3DFACE
  5
668
  8
WHEELS
 10
0.6500000000000002
 20
-0.0700000000000001
 30
0.0326794919243111
 11
0.6500000000000002
 21
-0.0599999999999998
 31
0.0499999999999999
 12
0.6700000000000002
 22
-0.0599999999999998
 32
0.0499999999999999
 13
0.6700000000000002
 23
-0.0700000000000001
 33
0.0326794919243111
  0
3DFACE
  5
669
  8
WHEELS
 10
0.6500000000000002
 20
-0.0599999999999998
 30
0.0499999999999999
 11
0.6500000000000002
 21
-0.0700000000000001
 31
0.0673205080756888
 12
0.6700000000000002
 22
-0.0700000000000001
 32
0.0673205080756888
 13
0.6700000000000002
 23
-0.0599999999999998
 33
0.0499999999999999
  0
3DFACE
  5
66A
  8
WHEELS
 10
0.6500000000000002
 20
-0.0700000000000001
 30
0.0673205080756888
 11
0.6500000000000002
 21
-0.0900000000000001
 31
0.0673205080756888
 12
0.6700000000000002
 22
-0.0900000000000001
 32
0.0673205080756888
 13
0.6700000000000002
 23
-0.0700000000000001
 33
0.0673205080756888
  0
3DFACE
  5
66B
  8
WHEELS
 10
0.6500000000000002
 20
-0.0900000000000001
 30
0.0673205080756888
 11
0.6500000000000002
 21
-0.0999999999999999
 31
0.0499999999999999
 12
0.6700000000000002
 22
-0.0999999999999999
 32
0.0499999999999999
 13
0.6700000000000002
 23
-0.0900000000000001
 33
0.0673205080756888
  0
3DFACE
  5
66C
  8
WHEELS
 10
0.6700000000000002
 20
-0.0900000000000001
 30
0.0326794919243111
 11
0.6700000000000002
 21
-0.0700000000000001
 31
0.0326794919243111
 12
0.6700000000000002
 22
-0.0599999999999998
 32
0.0499999999999999
 13
0.6700000000000002
 23
-0.0999999999999999
 33
0.0499999999999999
  0
3DFACE
  5
66D
  8
WHEELS
 10
0.6700000000000002
 20
-0.0999999999999999
 30
0.0499999999999999
 11
0.6700000000000002
 21
-0.0599999999999998
 31
0.0499999999999999
 12
0.6700000000000002
 22
-0.0700000000000001
 32
0.0673205080756888
 13
0.6700000000000002
 23
-0.0900000000000001
 33
0.0673205080756888
  0
3DFACE
  5
66E
  8
WHEELS
 10
0.6500000000000002
 20
-0.0066987298107788
 30
0.1116025403784434
 11
0.6500000000000002
 21
-0.0166987298107786
 31
0.0942820323027546
 12
0.6700000000000002
 22
-0.0166987298107786
 32
0.0942820323027546
 13
0.6700000000000002
 23
-0.0066987298107788
 33
0.1116025403784434
  0
3DFACE
  5
66F
  8
WHEELS
 10
0.6500000000000002
 20
-0.0166987298107786
 30
0.0942820323027546
 11
0.6500000000000002
 21
-0.0066987298107788
 31
0.0769615242270662
 12
0.6700000000000002
 22
-0.0066987298107788
 32
0.0769615242270662
 13
0.6700000000000002
 23
-0.0166987298107786
 33
0.0942820323027546
  0
3DFACE
  5
670
  8
WHEELS
 10
0.6500000000000002
 20
-0.0066987298107788
 30
0.0769615242270662
 11
0.6500000000000002
 21
0.0133012701892217
 31
0.0769615242270662
 12
0.6700000000000002
 22
0.0133012701892217
 32
0.0769615242270662
 13
0.6700000000000002
 23
-0.0066987298107788
 33
0.0769615242270662
  0
3DFACE
  5
671
  8
WHEELS
 10
0.6500000000000002
 20
0.0133012701892217
 30
0.0769615242270662
 11
0.6500000000000002
 21
0.0233012701892215
 31
0.094282032302755
 12
0.6700000000000002
 22
0.0233012701892215
 32
0.094282032302755
 13
0.6700000000000002
 23
0.0133012701892217
 33
0.0769615242270662
  0
3DFACE
  5
672
  8
WHEELS
 10
0.6500000000000002
 20
0.0233012701892215
 30
0.094282032302755
 11
0.6500000000000002
 21
0.0133012701892217
 31
0.1116025403784434
 12
0.6700000000000002
 22
0.0133012701892217
 32
0.1116025403784434
 13
0.6700000000000002
 23
0.0233012701892215
 33
0.094282032302755
  0
3DFACE
  5
673
  8
WHEELS
 10
0.6500000000000002
 20
0.0133012701892217
 30
0.1116025403784434
 11
0.6500000000000002
 21
-0.0066987298107788
 31
0.1116025403784434
 12
0.6700000000000002
 22
-0.0066987298107788
 32
0.1116025403784434
 13
0.6700000000000002
 23
0.0133012701892217
 33
0.1116025403784434
  0
3DFACE
  5
674
  8
WHEELS
 10
0.6700000000000002
 20
-0.0166987298107786
 30
0.0942820323027546
 11
0.6700000000000002
 21
-0.0066987298107788
 31
0.0769615242270662
 12
0.6700000000000002
 22
0.0133012701892217
 32
0.0769615242270662
 13
0.6700000000000002
 23
-0.0066987298107788
 33
0.1116025403784434
  0
3DFACE
  5
675
  8
WHEELS
 10
0.6700000000000002
 20
-0.0066987298107788
 30
0.1116025403784434
 11
0.6700000000000002
 21
0.0133012701892217
 31
0.0769615242270662
 12
0.6700000000000002
 22
0.0233012701892215
 32
0.094282032302755
 13
0.6700000000000002
 23
0.0133012701892217
 33
0.1116025403784434
  0
3DFACE
  5
676
  8
WHEELS
 10
0.6500000000000002
 20
0.0933012701892218
 30
0.061602540378444
 11
0.6500000000000002
 21
0.0733012701892213
 31
0.0616025403784445
 12
0.6700000000000002
 22
0.0733012701892213
 32
0.0616025403784445
 13
0.6700000000000002
 23
0.0933012701892218
 33
0.061602540378444
  0
3DFACE
  5
677
  8
WHEELS
 10
0.6500000000000002
 20
0.0733012701892213
 30
0.0616025403784445
 11
0.6500000000000002
 21
0.0633012701892215
 31
0.0442820323027556
 12
0.6700000000000002
 22
0.0633012701892215
 32
0.0442820323027556
 13
0.6700000000000002
 23
0.0733012701892213
 33
0.0616025403784445
  0
3DFACE
  5
678
  8
WHEELS
 10
0.6500000000000002
 20
0.0633012701892215
 30
0.0442820323027556
 11
0.6500000000000002
 21
0.0733012701892213
 31
0.0269615242270668
 12
0.6700000000000002
 22
0.0733012701892213
 32
0.0269615242270668
 13
0.6700000000000002
 23
0.0633012701892215
 33
0.0442820323027556
  0
3DFACE
  5
679
  8
WHEELS
 10
0.6500000000000002
 20
0.0733012701892213
 30
0.0269615242270668
 11
0.6500000000000002
 21
0.0933012701892218
 31
0.0269615242270668
 12
0.6700000000000002
 22
0.0933012701892218
 32
0.0269615242270668
 13
0.6700000000000002
 23
0.0733012701892213
 33
0.0269615242270668
  0
3DFACE
  5
67A
  8
WHEELS
 10
0.6500000000000002
 20
0.0933012701892218
 30
0.0269615242270668
 11
0.6500000000000002
 21
0.1033012701892215
 31
0.0442820323027556
 12
0.6700000000000002
 22
0.1033012701892215
 32
0.0442820323027556
 13
0.6700000000000002
 23
0.0933012701892218
 33
0.0269615242270668
  0
3DFACE
  5
67B
  8
WHEELS
 10
0.6500000000000002
 20
0.1033012701892215
 30
0.0442820323027556
 11
0.6500000000000002
 21
0.0933012701892218
 31
0.061602540378444
 12
0.6700000000000002
 22
0.0933012701892218
 32
0.061602540378444
 13
0.6700000000000002
 23
0.1033012701892215
 33
0.0442820323027556
  0
3DFACE
  5
67C
  8
WHEELS
 10
0.6700000000000002
 20
0.0733012701892213
 30
0.0616025403784445
 11
0.6700000000000002
 21
0.0633012701892215
 31
0.0442820323027556
 12
0.6700000000000002
 22
0.0733012701892213
 32
0.0269615242270668
 13
0.6700000000000002
 23
0.0933012701892218
 33
0.061602540378444
  0
3DFACE
  5
67D
  8
WHEELS
 10
0.6700000000000002
 20
0.0933012701892218
 30
0.061602540378444
 11
0.6700000000000002
 21
0.0733012701892213
 31
0.0269615242270668
 12
0.6700000000000002
 22
0.0933012701892218
 32
0.0269615242270668
 13
0.6700000000000002
 23
0.1033012701892215
 33
0.0442820323027556
  0
3DFACE
  5
67E
  8
WHEELS
 10
0.6700000000000002
 20
0.1000000000000003
 30
-0.0499999999999997
 11
0.6700000000000002
 21
0.0600000000000003
 31
-0.0499999999999997
 12
0.6700000000000002
 22
0.0700000000000001
 32
-0.0673205080756886
 13
0.6700000000000002
 23
0.0900000000000001
 33
-0.0673205080756886
  0
3DFACE
  5
67F
  8
WHEELS
 10
0.6700000000000002
 20
0.0900000000000001
 30
-0.0326794919243109
 11
0.6700000000000002
 21
0.0700000000000001
 31
-0.0326794919243109
 12
0.6700000000000002
 22
0.0600000000000003
 32
-0.0499999999999997
 13
0.6700000000000002
 23
0.1000000000000003
 33
-0.0499999999999997
  0
3DFACE
  5
680
  8
WHEELS
 10
0.6500000000000002
 20
0.115
 30
0.1991858428704211
 11
0.6500000000000002
 21
-0.0000000000000002
 31
0.2300000000000001
 12
0.6500000000000002
 22
0.0149999999999999
 32
0.0259807621135334
 13
0.6500000000000002
 23
0.0149999999999999
 33
0.0259807621135334
  0
3DFACE
  5
681
  8
WHEELS
 10
0.6500000000000002
 20
-0.0000000000000002
 30
0.2300000000000001
 11
0.6500000000000002
 21
-0.1150000000000004
 31
0.1991858428704211
 12
0.6500000000000002
 22
-0.0149999999999999
 32
0.0259807621135334
 13
0.6500000000000002
 23
0.0149999999999999
 33
0.0259807621135334
  0
3DFACE
  5
682
  8
WHEELS
 10
0.6500000000000002
 20
0.0149999999999999
 30
-0.0259807621135332
 11
0.6500000000000002
 21
0.03
 31
0.0000000000000001
 12
0.7000000000000002
 22
0.03
 32
0.0000000000000001
 13
0.7000000000000002
 23
0.0149999999999999
 33
-0.0259807621135332
  0
3DFACE
  5
683
  8
WHEELS
 10
0.6500000000000002
 20
-0.0149999999999999
 30
-0.0259807621135332
 11
0.6500000000000002
 21
0.0149999999999999
 31
-0.0259807621135332
 12
0.7000000000000002
 22
0.0149999999999999
 32
-0.0259807621135332
 13
0.7000000000000002
 23
-0.0149999999999999
 33
-0.0259807621135332
  0
3DFACE
  5
684
  8
WHEELS
 10
0.6500000000000002
 20
-0.03
 30
0.0000000000000001
 11
0.6500000000000002
 21
-0.0149999999999999
 31
-0.0259807621135332
 12
0.7000000000000002
 22
-0.0149999999999999
 32
-0.0259807621135332
 13
0.7000000000000002
 23
-0.03
 33
0.0000000000000001
  0
3DFACE
  5
685
  8
WHEELS
 10
0.6500000000000002
 20
-0.0149999999999999
 30
0.0259807621135334
 11
0.6500000000000002
 21
-0.03
 31
0.0000000000000001
 12
0.7000000000000002
 22
-0.03
 32
0.0000000000000001
 13
0.7000000000000002
 23
-0.0149999999999999
 33
0.0259807621135334
  0
3DFACE
  5
686
  8
WHEELS
 10
0.6500000000000002
 20
0.0149999999999999
 30
0.0259807621135334
 11
0.6500000000000002
 21
-0.0149999999999999
 31
0.0259807621135334
 12
0.7000000000000002
 22
-0.0149999999999999
 32
0.0259807621135334
 13
0.7000000000000002
 23
0.0149999999999999
 33
0.0259807621135334
  0
3DFACE
  5
687
  8
WHEELS
 10
0.6500000000000002
 20
0.03
 30
0.0000000000000001
 11
0.6500000000000002
 21
0.0149999999999999
 31
0.0259807621135334
 12
0.7000000000000002
 22
0.0149999999999999
 32
0.0259807621135334
 13
0.7000000000000002
 23
0.03
 33
0.0000000000000001
  0
3DFACE
  5
688
  8
WHEELS
 10
0.6500000000000002
 20
0.0900000000000001
 30
-0.0673205080756886
 11
0.6500000000000002
 21
0.1000000000000003
 31
-0.0499999999999997
 12
0.6700000000000002
 22
0.1000000000000003
 32
-0.0499999999999997
 13
0.6700000000000002
 23
0.0900000000000001
 33
-0.0673205080756886
  0
3DFACE
  5
689
  8
WHEELS
 10
0.6500000000000002
 20
0.0700000000000001
 30
-0.0673205080756886
 11
0.6500000000000002
 21
0.0900000000000001
 31
-0.0673205080756886
 12
0.6700000000000002
 22
0.0900000000000001
 32
-0.0673205080756886
 13
0.6700000000000002
 23
0.0700000000000001
 33
-0.0673205080756886
  0
3DFACE
  5
68A
  8
WHEELS
 10
0.6500000000000002
 20
0.0600000000000003
 30
-0.0499999999999997
 11
0.6500000000000002
 21
0.0700000000000001
 31
-0.0673205080756886
 12
0.6700000000000002
 22
0.0700000000000001
 32
-0.0673205080756886
 13
0.6700000000000002
 23
0.0600000000000003
 33
-0.0499999999999997
  0
3DFACE
  5
68B
  8
WHEELS
 10
0.6500000000000002
 20
0.0700000000000001
 30
-0.0326794919243109
 11
0.6500000000000002
 21
0.0600000000000003
 31
-0.0499999999999997
 12
0.6700000000000002
 22
0.0600000000000003
 32
-0.0499999999999997
 13
0.6700000000000002
 23
0.0700000000000001
 33
-0.0326794919243109
  0
3DFACE
  5
68C
  8
WHEELS
 10
0.6500000000000002
 20
0.0900000000000001
 30
-0.0326794919243109
 11
0.6500000000000002
 21
0.0700000000000001
 31
-0.0326794919243109
 12
0.6700000000000002
 22
0.0700000000000001
 32
-0.0326794919243109
 13
0.6700000000000002
 23
0.0900000000000001
 33
-0.0326794919243109
  0
3DFACE
  5
68D
  8
WHEELS
 10
0.6500000000000002
 20
0.1000000000000003
 30
-0.0499999999999997
 11
0.6500000000000002
 21
0.0900000000000001
 31
-0.0326794919243109
 12
0.6700000000000002
 22
0.0900000000000001
 32
-0.0326794919243109
 13
0.6700000000000002
 23
0.1000000000000003
 33
-0.0499999999999997
  0
3DFACE
  5
68E
  8
WHEELS
 10
0.5700000000000001
 20
-0.3377499074759311
 30
0.1950000000000004
 11
0.5700000000000001
 21
-0.3899999999999999
 31
0.0000000000000001
 12
0.6500000000000002
 22
-0.3899999999999999
 32
0.0000000000000001
 13
0.6500000000000002
 23
-0.3377499074759311
 33
0.1950000000000004
  0
3DFACE
  5
68F
  8
WHEELS
 10
0.5700000000000003
 20
0.3899999999999999
 30
0.0000000000000001
 11
0.5700000000000003
 21
0.3377499074759311
 31
0.195
 12
0.6500000000000004
 22
0.3377499074759311
 32
0.195
 13
0.6500000000000004
 23
0.3899999999999999
 33
0.0000000000000001
  0
3DFACE
  5
690
  8
WHEELS
 10
0.6500000000000002
 20
-0.3377499074759311
 30
0.1950000000000004
 11
0.6500000000000002
 21
-0.3899999999999999
 31
0.0000000000000001
 12
0.6900000000000003
 22
-0.3300000000000003
 32
0.0000000000000001
 13
0.6900000000000003
 23
-0.2857883832488646
 33
0.1650000000000001
  0
3DFACE
  5
691
  8
WHEELS
 10
0.6500000000000004
 20
0.3899999999999999
 30
0.0000000000000001
 11
0.6500000000000004
 21
0.3377499074759311
 31
0.195
 12
0.6900000000000003
 22
0.2857883832488648
 32
0.1650000000000001
 13
0.6900000000000003
 23
0.3300000000000001
 33
0.0000000000000001
  0
3DFACE
  5
692
  8
WHEELS
 10
0.6900000000000003
 20
-0.2511473670974873
 30
0.1450000000000001
 11
0.6900000000000003
 21
-0.2900000000000003
 31
0.0000000000000001
 12
0.6700000000000002
 22
-0.26
 32
0.0000000000000001
 13
0.6700000000000002
 23
-0.225166604983954
 33
0.13
  0
3DFACE
  5
693
  8
WHEELS
 10
0.6900000000000003
 20
0.29
 30
0.0000000000000001
 11
0.6900000000000003
 21
0.2511473670974873
 31
0.1450000000000001
 12
0.6700000000000002
 22
0.225166604983954
 32
0.13
 13
0.6700000000000002
 23
0.26
 33
0.0000000000000001
  0
3DFACE
  5
694
  8
WHEELS
 10
0.6700000000000002
 20
-0.225166604983954
 30
0.13
 11
0.6700000000000002
 21
-0.26
 31
0.0000000000000001
 12
0.6500000000000002
 22
-0.2299999999999998
 32
0.0000000000000001
 13
0.6500000000000002
 23
-0.1991858428704207
 33
0.1149999999999999
  0
3DFACE
  5
695
  8
WHEELS
 10
0.6700000000000002
 20
-0.1300000000000001
 30
0.2251666049839543
 11
0.6700000000000002
 21
-0.225166604983954
 31
0.13
 12
0.6500000000000002
 22
-0.1991858428704207
 32
0.1149999999999999
 13
0.6500000000000002
 23
-0.115
 33
0.1991858428704211
  0
3DFACE
  5
696
  8
WHEELS
 10
0.6700000000000004
 20
0.225166604983954
 30
0.13
 11
0.6700000000000002
 21
0.1300000000000001
 31
0.2251666049839539
 12
0.6500000000000002
 22
0.115
 32
0.1991858428704211
 13
0.6500000000000004
 23
0.1991858428704212
 33
0.1149999999999999
  0
3DFACE
  5
697
  8
WHEELS
 10
0.6700000000000004
 20
0.26
 30
0.0000000000000001
 11
0.6700000000000004
 21
0.225166604983954
 31
0.13
 12
0.6500000000000004
 22
0.1991858428704212
 32
0.1149999999999999
 13
0.6500000000000004
 23
0.2300000000000002
 33
0.0000000000000001
  0
3DFACE
  5
698
  8
WHEELS
 10
0.5700000000000001
 20
-0.1950000000000001
 30
0.337749907475931
 11
0.5700000000000003
 21
-0.0000000000000002
 31
0.3900000000000002
 12
0.5300000000000003
 22
-0.0000000000000002
 32
0.3300000000000002
 13
0.5300000000000003
 23
-0.1650000000000003
 33
0.2857883832488649
  0
3DFACE
  5
699
  8
WHEELS
 10
0.5700000000000003
 20
-0.0000000000000002
 30
0.3900000000000002
 11
0.5700000000000003
 21
0.1950000000000001
 31
0.337749907475931
 12
0.5300000000000003
 22
0.1649999999999998
 32
0.2857883832488649
 13
0.5300000000000003
 23
-0.0000000000000002
 33
0.3300000000000002
  0
3DFACE
  5
69A
  8
WHEELS
 10
0.5300000000000003
 20
-0.0000000000000002
 30
0.3300000000000006
 11
0.5300000000000003
 21
0.1649999999999998
 31
0.2857883832488649
 12
0.5300000000000003
 22
0.1450000000000002
 32
0.2511473670974872
 13
0.5300000000000003
 23
-0.0000000000000002
 33
0.2900000000000001
  0
3DFACE
  5
69B
  8
WHEELS
 10
0.5300000000000003
 20
-0.1650000000000003
 30
0.2857883832488653
 11
0.5300000000000003
 21
-0.0000000000000002
 31
0.3300000000000002
 12
0.5300000000000003
 22
-0.0000000000000002
 32
0.2900000000000001
 13
0.5300000000000003
 23
-0.1449999999999998
 33
0.2511473670974876
  0
3DFACE
  5
69C
  8
WHEELS
 10
0.6900000000000003
 20
0.1649999999999998
 30
0.2857883832488653
 11
0.6900000000000003
 21
-0.0000000000000002
 31
0.3300000000000002
 12
0.6900000000000003
 22
-0.0000000000000002
 32
0.2900000000000001
 13
0.6900000000000003
 23
0.1449999999999993
 33
0.2511473670974876
  0
3DFACE
  5
69D
  8
WHEELS
 10
0.6900000000000003
 20
-0.0000000000000002
 30
0.3300000000000006
 11
0.6900000000000003
 21
-0.1650000000000003
 31
0.2857883832488649
 12
0.6900000000000003
 22
-0.1449999999999998
 32
0.2511473670974872
 13
0.6900000000000003
 23
-0.0000000000000002
 33
0.2900000000000001
  0
3DFACE
  5
69E
  8
WHEELS
 10
0.5700000000000003
 20
-0.0000000000000002
 30
0.3900000000000002
 11
0.5700000000000003
 21
-0.1949999999999996
 31
0.337749907475931
 12
0.6500000000000002
 22
-0.1949999999999996
 32
0.337749907475931
 13
0.6500000000000002
 23
-0.0000000000000002
 33
0.3900000000000002
  0
3DFACE
  5
69F
  8
WHEELS
 10
0.5700000000000003
 20
0.1950000000000001
 30
0.337749907475931
 11
0.5700000000000003
 21
-0.0000000000000002
 31
0.3900000000000002
 12
0.6500000000000002
 22
-0.0000000000000002
 32
0.3900000000000002
 13
0.6500000000000002
 23
0.1950000000000001
 33
0.337749907475931
  0
3DFACE
  5
6A0
  8
WHEELS
 10
0.6500000000000002
 20
-0.0000000000000002
 30
0.3900000000000002
 11
0.6500000000000002
 21
-0.1949999999999996
 31
0.337749907475931
 12
0.6900000000000003
 22
-0.1650000000000003
 32
0.2857883832488649
 13
0.6900000000000003
 23
-0.0000000000000002
 33
0.3300000000000002
  0
3DFACE
  5
6A1
  8
WHEELS
 10
0.6500000000000002
 20
0.1950000000000001
 30
0.337749907475931
 11
0.6500000000000002
 21
-0.0000000000000002
 31
0.3900000000000002
 12
0.6900000000000003
 22
-0.0000000000000002
 32
0.3300000000000002
 13
0.6900000000000003
 23
0.1649999999999998
 33
0.2857883832488649
  0
VIEWPORT
  5
2E
 67
     1
  8
0
 10
144.7270812988281
 20
101.2295806407928
 30
0.0
 40
391.13550988316581
 41
222.15178063964839
 68
     2
 69
     1
1001
ACAD
1000
MVIEW
1002
{
1070
    16
1010
0.0
1020
0.0
1030
0.0
1010
0.0
1020
0.0
1030
1.0
1040
0.0
1040
222.15178063964839
1040
144.7270812988281
1040
101.2295806407928
1040
50.0
1040
0.0
1040
0.0
1070
     0
1070
   100
1070
     1
1070
     1
1070
     0
1070
     0
1070
     0
1070
     0
1040
0.0
1040
0.0
1040
0.0
1040
10.0
1040
10.0
1040
10.0
1040
10.0
1070
     0
1002
{
1002
}
1002
}
  0
VIEWPORT
  5
30
 67
     1
  8
0
 10
139.22375631332389
 20
100.8062499761581
 30
0.0
 40
222.75801010131829
 41
161.289999961853
 68
     1
 69
     2
1001
ACAD
1000
MVIEW
1002
{
1070
    16
1010
0.0
1020
0.0
1030
0.0
1010
0.0
1020
0.0
1030
1.0
1040
0.0
1040
307.49010134148989
1040
210.0
1040
148.5
1040
50.0
1040
0.0
1040
0.0
1070
     0
1070
   100
1070
     1
1070
     3
1070
     0
1070
     1
1070
     0
1070
     0
1040
0.0
1040
0.0
1040
0.0
1040
10.0
1040
10.0
1040
10.0
1040
10.0
1070
     0
1002
{
1002
}
1002
}
  0
ENDSEC
  0
EOF
