  0
SECTION
  2
HEADER
  9
$ACADVER
  1
AC1009
  9
$INSBASE
 10
0.0
 20
0.0
 30
0.0
  9
$EXTMIN
 10
-1.3100000000000001
 20
-7.5165543066824956
 30
-7.8907452544237477
  9
$EXTMAX
 10
1.3100000000000001
 20
16.429999999999989
 30
14.34597786587398
  9
$LIMMIN
 10
0.0
 20
0.0
  9
$LIMMAX
 10
420.0
 20
297.0
  9
$ORTHOMODE
 70
     1
  9
$REGENMODE
 70
     1
  9
$FILLMODE
 70
     1
  9
$QTEXTMODE
 70
     0
  9
$MIRRTEXT
 70
     1
  9
$DRAGMODE
 70
     2
  9
$LTSCALE
 40
1.0
  9
$OSMODE
 70
    35
  9
$ATTMODE
 70
     1
  9
$TEXTSIZE
 40
2.5
  9
$TRACEWID
 40
1.0
  9
$TEXTSTYLE
  7
STANDARD
  9
$CLAYER
  8
SLEEVE
  9
$CELTYPE
  6
BYLAYER
  9
$CECOLOR
 62
   256
  9
$DIMSCALE
 40
1.0
  9
$DIMASZ
 40
2.5
  9
$DIMEXO
 40
0.625
  9
$DIMDLI
 40
3.75
  9
$DIMRND
 40
0.0
  9
$DIMDLE
 40
0.0
  9
$DIMEXE
 40
1.25
  9
$DIMTP
 40
0.0
  9
$DIMTM
 40
0.0
  9
$DIMTXT
 40
2.5
  9
$DIMCEN
 40
2.5
  9
$DIMTSZ
 40
0.0
  9
$DIMTOL
 70
     0
  9
$DIMLIM
 70
     0
  9
$DIMTIH
 70
     0
  9
$DIMTOH
 70
     0
  9
$DIMSE1
 70
     0
  9
$DIMSE2
 70
     0
  9
$DIMTAD
 70
     1
  9
$DIMZIN
 70
     8
  9
$DIMBLK
  1

  9
$DIMASO
 70
     1
  9
$DIMSHO
 70
     1
  9
$DIMPOST
  1

  9
$DIMAPOST
  1

  9
$DIMALT
 70
     0
  9
$DIMALTD
 70
     3
  9
$DIMALTF
 40
0.03937007874016
  9
$DIMLFAC
 40
1.0
  9
$DIMTOFL
 70
     1
  9
$DIMTVP
 40
0.0
  9
$DIMTIX
 70
     0
  9
$DIMSOXD
 70
     0
  9
$DIMSAH
 70
     0
  9
$DIMBLK1
  1

  9
$DIMBLK2
  1

  9
$DIMSTYLE
  2
ISO-25
  9
$DIMCLRD
 70
     0
  9
$DIMCLRE
 70
     0
  9
$DIMCLRT
 70
     0
  9
$DIMTFAC
 40
1.0
  9
$DIMGAP
 40
0.625
  9
$LUNITS
 70
     2
  9
$LUPREC
 70
     4
  9
$SKETCHINC
 40
1.0
  9
$FILLETRAD
 40
10.0
  9
$AUNITS
 70
     0
  9
$AUPREC
 70
     0
  9
$MENU
  1
.
  9
$ELEVATION
 40
0.0
  9
$PELEVATION
 40
0.0
  9
$THICKNESS
 40
0.0
  9
$LIMCHECK
 70
     0
  9
$BLIPMODE
 70
     0
  9
$CHAMFERA
 40
10.0
  9
$CHAMFERB
 40
10.0
  9
$SKPOLY
 70
     0
  9
$TDCREATE
 40
2457832.6514969901
  9
$TDUPDATE
 40
2457840.0811903011
  9
$TDINDWG
 40
1.3714469096999999
  9
$TDUSRTIMER
 40
1.3714469096999999
  9
$USRTIMER
 70
     1
  9
$ANGBASE
 50
0.0
  9
$ANGDIR
 70
     0
  9
$PDMODE
 70
     0
  9
$PDSIZE
 40
0.0
  9
$PLINEWID
 40
0.0
  9
$COORDS
 70
     1
  9
$SPLFRAME
 70
     0
  9
$SPLINETYPE
 70
     6
  9
$SPLINESEGS
 70
     8
  9
$ATTDIA
 70
     1
  9
$ATTREQ
 70
     1
  9
$HANDLING
 70
-16383
  9
$HANDSEED
  5
2987
  9
$SURFTAB1
 70
     6
  9
$SURFTAB2
 70
     6
  9
$SURFTYPE
 70
     6
  9
$SURFU
 70
     6
  9
$SURFV
 70
     6
  9
$UCSNAME
  2

  9
$UCSORG
 10
0.0
 20
0.0
 30
0.0
  9
$UCSXDIR
 10
0.0
 20
-1.0
 30
0.0
  9
$UCSYDIR
 10
0.0
 20
0.0
 30
1.0
  9
$PUCSNAME
  2

  9
$PUCSORG
 10
0.0
 20
0.0
 30
0.0
  9
$PUCSXDIR
 10
1.0
 20
0.0
 30
0.0
  9
$PUCSYDIR
 10
0.0
 20
1.0
 30
0.0
  9
$USERI1
 70
     0
  9
$USERI2
 70
     0
  9
$USERI3
 70
     0
  9
$USERI4
 70
     0
  9
$USERI5
 70
     0
  9
$USERR1
 40
0.0
  9
$USERR2
 40
0.0
  9
$USERR3
 40
0.0
  9
$USERR4
 40
0.0
  9
$USERR5
 40
0.0
  9
$WORLDVIEW
 70
     1
  9
$SHADEDGE
 70
     3
  9
$SHADEDIF
 70
    70
  9
$TILEMODE
 70
     1
  9
$MAXACTVP
 70
    64
  9
$PLIMCHECK
 70
     0
  9
$PEXTMIN
 10
27.844751262664801
 20
20.161249995231621
 30
0.0
  9
$PEXTMAX
 10
250.60276136398309
 20
181.4512499570846
 30
0.0
  9
$PLIMMIN
 10
-3.757080078125
 20
-3.7570831775665279
  9
$PLIMMAX
 10
293.21124267578119
 20
206.21624445915219
  9
$UNITMODE
 70
     0
  9
$VISRETAIN
 70
     1
  9
$PLINEGEN
 70
     0
  9
$PSLTSCALE
 70
     1
  0
ENDSEC
  0
SECTION
  2
TABLES
  0
TABLE
  2
VPORT
 70
    25
  0
VPORT
  2
*ACTIVE
 70
     0
 10
0.0
 20
0.0
 11
1.0
 21
1.0
 12
-2.632467702789469
 22
-0.1885472772367089
 13
0.0
 23
0.0
 14
0.01
 24
0.01
 15
1.0
 25
1.0
 16
-1.0
 26
0.0
 36
0.0
 17
0.0
 27
0.0
 37
0.0
 40
10.24480059048758
 41
2.1655092592592591
 42
50.0
 43
0.0
 44
0.0
 50
0.0
 51
0.0
 71
     0
 72
   100
 73
     1
 74
     3
 75
     1
 76
     1
 77
     0
 78
     0
  0
ENDTAB
  0
TABLE
  2
LTYPE
 70
     1
  0
LTYPE
  2
CONTINUOUS
 70
     0
  3
Solid line
 72
    65
 73
     0
 40
0.0
  0
ENDTAB
  0
TABLE
  2
LAYER
 70
    12
  0
LAYER
  2
0
 70
     0
 62
     7
  6
CONTINUOUS
  0
LAYER
  2
_REF
 70
     0
 62
     9
  6
CONTINUOUS
  0
LAYER
  2
_TMP
 70
     0
 62
     4
  6
CONTINUOUS
  0
LAYER
  2
FENDERS
 70
     0
 62
     6
  6
CONTINUOUS
  0
LAYER
  2
SUSPENSION
 70
     0
 62
     5
  6
CONTINUOUS
  0
LAYER
  2
WHEELS
 70
     0
 62
     2
  6
CONTINUOUS
  0
LAYER
  2
TRACKS
 70
     0
 62
     3
  6
CONTINUOUS
  0
LAYER
  2
INTERNALS
 70
     0
 62
     3
  6
CONTINUOUS
  0
LAYER
  2
TURRET
 70
     0
 62
     2
  6
CONTINUOUS
  0
LAYER
  2
SLEEVE
 70
     0
 62
     5
  6
CONTINUOUS
  0
LAYER
  2
GUN
 70
     0
 62
     1
  6
CONTINUOUS
  0
LAYER
  2
TENT
 70
     0
 62
     3
  6
CONTINUOUS
  0
ENDTAB
  0
TABLE
  2
STYLE
 70
     1
  0
STYLE
  2
STANDARD
 70
     0
 40
0.0
 41
1.0
 50
0.0
 71
     0
 42
2.5
  3
txt
  4

  0
ENDTAB
  0
TABLE
  2
VIEW
 70
     0
  0
ENDTAB
  0
TABLE
  2
UCS
 70
     0
  0
ENDTAB
  0
TABLE
  2
APPID
 70
     1
  0
APPID
  2
ACAD
 70
     0
  0
ENDTAB
  0
TABLE
  2
DIMSTYLE
 70
     1
  0
DIMSTYLE
  2
ISO-25
 70
     0
  3

  4

  5

  6

  7

 40
1.0
 41
2.5
 42
0.625
 43
3.75
 44
1.25
 45
0.0
 46
0.0
 47
0.0
 48
0.0
140
2.5
141
2.5
142
0.0
143
0.03937007874016
144
1.0
145
0.0
146
1.0
147
0.625
 71
     0
 72
     0
 73
     0
 74
     0
 75
     0
 76
     0
 77
     1
 78
     8
170
     0
171
     3
172
     1
173
     0
174
     0
175
     0
176
     0
177
     0
178
     0
  0
ENDTAB
  0
ENDSEC
  0
SECTION
  2
BLOCKS
  0
BLOCK
  8
0
  2
$MODEL_SPACE
 70
     0
 10
0.0
 20
0.0
 30
0.0
  3
$MODEL_SPACE
  1

  0
ENDBLK
  5
21
  8
0
  0
BLOCK
 67
     1
  8
0
  2
$PAPER_SPACE
 70
     0
 10
0.0
 20
0.0
 30
0.0
  3
$PAPER_SPACE
  1

  0
ENDBLK
  5
1D
 67
     1
  8
0
  0
ENDSEC
  0
SECTION
  2
ENTITIES
  0
3DFACE
  5
23AE
  8
SLEEVE
 10
0.1
 20
1.01
 30
0.0
 11
0.0707106781186548
 21
1.01
 31
0.0707106781186546
 12
0.0848528137423857
 22
0.5900000000000001
 32
0.0848528137423852
 13
0.12
 23
0.5900000000000001
 33
0.0
  0
3DFACE
  5
23AF
  8
SLEEVE
 10
0.0707106781186548
 20
1.01
 30
0.0707106781186546
 11
0.0
 21
1.01
 31
0.0999999999999997
 12
0.0
 22
0.5900000000000001
 32
0.1199999999999992
 13
0.0848528137423857
 23
0.5900000000000001
 33
0.0848528137423852
  0
3DFACE
  5
23B0
  8
SLEEVE
 10
0.0
 20
1.01
 30
0.0999999999999997
 11
-0.0707106781186548
 21
1.01
 31
0.0707106781186546
 12
-0.0848528137423857
 22
0.5900000000000001
 32
0.0848528137423852
 13
0.0
 23
0.5900000000000001
 33
0.1199999999999992
  0
3DFACE
  5
23B1
  8
SLEEVE
 10
-0.0707106781186548
 20
1.01
 30
0.0707106781186546
 11
-0.1
 21
1.01
 31
0.0
 12
-0.12
 22
0.5900000000000001
 32
0.0
 13
-0.0848528137423857
 23
0.5900000000000001
 33
0.0848528137423852
  0
3DFACE
  5
23B2
  8
SLEEVE
 10
-0.1
 20
1.01
 30
0.0
 11
-0.0707106781186548
 21
1.01
 31
-0.0707106781186546
 12
-0.0848528137423857
 22
0.5900000000000001
 32
-0.0848528137423852
 13
-0.12
 23
0.5900000000000001
 33
0.0
  0
3DFACE
  5
23B3
  8
SLEEVE
 10
-0.0707106781186548
 20
1.01
 30
-0.0707106781186546
 11
0.0
 21
1.01
 31
-0.0999999999999997
 12
0.0
 22
0.5900000000000001
 32
-0.1199999999999992
 13
-0.0848528137423857
 23
0.5900000000000001
 33
-0.0848528137423852
  0
3DFACE
  5
23B4
  8
SLEEVE
 10
0.0
 20
1.01
 30
-0.0999999999999997
 11
0.0707106781186547
 21
1.01
 31
-0.0707106781186546
 12
0.0848528137423857
 22
0.5900000000000001
 32
-0.0848528137423852
 13
0.0
 23
0.5900000000000001
 33
-0.1199999999999992
  0
3DFACE
  5
23B5
  8
SLEEVE
 10
0.0707106781186547
 20
1.01
 30
-0.0707106781186546
 11
0.1
 21
1.01
 31
0.0
 12
0.12
 22
0.5900000000000001
 32
0.0
 13
0.0848528137423857
 23
0.5900000000000001
 33
-0.0848528137423852
  0
3DFACE
  5
23B6
  8
SLEEVE
 10
0.16
 20
0.5900000000000001
 30
0.0
 11
0.1131370849898476
 21
0.5900000000000001
 31
0.1131370849898481
 12
0.1272792206135785
 22
0.5700000000000001
 32
0.1272792206135787
 13
0.18
 23
0.5700000000000001
 33
0.0
  0
3DFACE
  5
23B7
  8
SLEEVE
 10
0.1131370849898476
 20
0.5900000000000001
 30
0.1131370849898481
 11
0.0
 21
0.5900000000000001
 31
0.1600000000000001
 12
0.0
 22
0.5700000000000001
 32
0.1799999999999997
 13
0.1272792206135785
 23
0.5700000000000001
 33
0.1272792206135787
  0
3DFACE
  5
23B8
  8
SLEEVE
 10
0.0
 20
0.5900000000000001
 30
0.1600000000000001
 11
-0.1131370849898476
 21
0.5900000000000001
 31
0.1131370849898481
 12
-0.1272792206135785
 22
0.5700000000000001
 32
0.1272792206135787
 13
0.0
 23
0.5700000000000001
 33
0.1799999999999997
  0
3DFACE
  5
23B9
  8
SLEEVE
 10
-0.1131370849898476
 20
0.5900000000000001
 30
0.1131370849898481
 11
-0.16
 21
0.5900000000000001
 31
0.0
 12
-0.18
 22
0.5700000000000001
 32
0.0
 13
-0.1272792206135785
 23
0.5700000000000001
 33
0.1272792206135787
  0
3DFACE
  5
23BA
  8
SLEEVE
 10
-0.16
 20
0.5900000000000001
 30
0.0
 11
-0.1131370849898476
 21
0.5900000000000001
 31
-0.1131370849898481
 12
-0.1272792206135786
 22
0.5700000000000001
 32
-0.1272792206135787
 13
-0.18
 23
0.5700000000000001
 33
0.0
  0
3DFACE
  5
23BB
  8
SLEEVE
 10
-0.1131370849898476
 20
0.5900000000000001
 30
-0.1131370849898481
 11
0.0
 21
0.5900000000000001
 31
-0.1600000000000001
 12
0.0
 22
0.5700000000000001
 32
-0.1799999999999997
 13
-0.1272792206135786
 23
0.5700000000000001
 33
-0.1272792206135787
  0
3DFACE
  5
23BC
  8
SLEEVE
 10
0.0
 20
0.5900000000000001
 30
-0.1600000000000001
 11
0.1131370849898476
 21
0.5900000000000001
 31
-0.1131370849898481
 12
0.1272792206135785
 22
0.5700000000000001
 32
-0.1272792206135787
 13
0.0
 23
0.5700000000000001
 33
-0.1799999999999997
  0
3DFACE
  5
23BD
  8
SLEEVE
 10
0.1131370849898476
 20
0.5900000000000001
 30
-0.1131370849898481
 11
0.16
 21
0.5900000000000001
 31
0.0
 12
0.18
 22
0.5700000000000001
 32
0.0
 13
0.1272792206135785
 23
0.5700000000000001
 33
-0.1272792206135787
  0
3DFACE
  5
23BE
  8
SLEEVE
 10
0.18
 20
0.5700000000000001
 30
0.0
 11
0.1272792206135785
 21
0.5700000000000001
 31
0.1272792206135787
 12
0.1272792206135785
 22
-0.3600000000000001
 32
0.1272792206135787
 13
0.18
 23
-0.3600000000000001
 33
0.0
  0
3DFACE
  5
23BF
  8
SLEEVE
 10
0.1272792206135785
 20
0.5700000000000001
 30
0.1272792206135787
 11
0.0
 21
0.5700000000000001
 31
0.1799999999999997
 12
0.0
 22
-0.3600000000000001
 32
0.1799999999999997
 13
0.1272792206135785
 23
-0.3600000000000001
 33
0.1272792206135787
  0
3DFACE
  5
23C0
  8
SLEEVE
 10
0.0
 20
0.5700000000000001
 30
0.1799999999999997
 11
-0.1272792206135785
 21
0.5700000000000001
 31
0.1272792206135787
 12
-0.1272792206135785
 22
-0.3600000000000001
 32
0.1272792206135787
 13
0.0
 23
-0.3600000000000001
 33
0.1799999999999997
  0
3DFACE
  5
23C1
  8
SLEEVE
 10
-0.1272792206135785
 20
0.5700000000000001
 30
0.1272792206135787
 11
-0.18
 21
0.5700000000000001
 31
0.0
 12
-0.18
 22
-0.3600000000000001
 32
0.0
 13
-0.1272792206135785
 23
-0.3600000000000001
 33
0.1272792206135787
  0
3DFACE
  5
23C2
  8
SLEEVE
 10
-0.18
 20
0.5700000000000001
 30
0.0
 11
-0.1272792206135786
 21
0.5700000000000001
 31
-0.1272792206135787
 12
-0.1272792206135786
 22
-0.3600000000000001
 32
-0.1272792206135787
 13
-0.18
 23
-0.3600000000000001
 33
0.0
  0
3DFACE
  5
23C3
  8
SLEEVE
 10
-0.1272792206135786
 20
0.5700000000000001
 30
-0.1272792206135787
 11
0.0
 21
0.5700000000000001
 31
-0.1799999999999997
 12
0.0
 22
-0.3600000000000001
 32
-0.1799999999999997
 13
-0.1272792206135786
 23
-0.3600000000000001
 33
-0.1272792206135787
  0
3DFACE
  5
23C4
  8
SLEEVE
 10
0.0
 20
0.5700000000000001
 30
-0.1799999999999997
 11
0.1272792206135785
 21
0.5700000000000001
 31
-0.1272792206135787
 12
0.1272792206135785
 22
-0.3600000000000001
 32
-0.1272792206135787
 13
0.0
 23
-0.3600000000000001
 33
-0.1799999999999997
  0
3DFACE
  5
23C5
  8
SLEEVE
 10
0.1272792206135785
 20
0.5700000000000001
 30
-0.1272792206135787
 11
0.18
 21
0.5700000000000001
 31
0.0
 12
0.18
 22
-0.3600000000000001
 32
0.0
 13
0.1272792206135785
 23
-0.3600000000000001
 33
-0.1272792206135787
  0
3DFACE
  5
23F9
  8
SLEEVE
 10
0.0
 20
1.01
 30
0.0850000000000009
 11
-0.0601040764008566
 21
1.01
 31
0.0601040764008563
 12
-0.0707106781186548
 22
1.01
 32
0.0707106781186546
 13
0.0
 23
1.01
 33
0.0999999999999997
  0
3DFACE
  5
23FA
  8
SLEEVE
 10
0.0
 20
0.5900000000000001
 30
0.1199999999999992
 11
-0.0848528137423857
 21
0.5900000000000001
 31
0.0848528137423852
 12
-0.1131370849898476
 22
0.5900000000000001
 32
0.1131370849898481
 13
0.0
 23
0.5900000000000001
 33
0.1600000000000001
  0
3DFACE
  5
2409
  8
SLEEVE
 10
-0.0601040764008563
 20
1.01
 30
0.060104076400858
 11
-0.0849999999999991
 21
1.01
 31
0.0
 12
-0.0999999999999997
 22
1.01
 32
0.0
 13
-0.0707106781186546
 23
1.01
 33
0.0707106781186546
  0
3DFACE
  5
240A
  8
SLEEVE
 10
-0.0848528137423852
 20
0.5900000000000001
 30
0.0848528137423852
 11
-0.1199999999999992
 21
0.5900000000000001
 31
0.0
 12
-0.1600000000000001
 22
0.5900000000000001
 32
0.0000000000000018
 13
-0.1131370849898463
 23
0.5900000000000001
 33
0.1131370849898481
  0
3DFACE
  5
240B
  8
SLEEVE
 10
-0.0850000000000009
 20
1.01
 30
0.0
 11
-0.0601040764008563
 21
1.01
 31
-0.0601040764008563
 12
-0.0707106781186546
 22
1.01
 32
-0.0707106781186546
 13
-0.0999999999999997
 23
1.01
 33
0.0
  0
3DFACE
  5
240C
  8
SLEEVE
 10
-0.1199999999999992
 20
0.5900000000000001
 30
0.0
 11
-0.0848528137423852
 21
0.5900000000000001
 31
-0.0848528137423852
 12
-0.1131370849898481
 22
0.5900000000000001
 32
-0.1131370849898481
 13
-0.1600000000000001
 23
0.5900000000000001
 33
0.0
  0
3DFACE
  5
240D
  8
SLEEVE
 10
-0.060104076400858
 20
1.0099999999999989
 30
-0.0601040764008563
 11
0.0
 21
1.0099999999999989
 31
-0.0849999999999991
 12
0.0
 22
1.0099999999999989
 32
-0.0999999999999997
 13
-0.0707106781186546
 23
1.0099999999999989
 33
-0.0707106781186528
  0
3DFACE
  5
240E
  8
SLEEVE
 10
-0.0848528137423852
 20
0.5899999999999999
 30
-0.0848528137423834
 11
0.0
 21
0.5899999999999999
 31
-0.1199999999999992
 12
0.0
 22
0.5899999999999999
 32
-0.1599999999999984
 13
-0.1131370849898481
 23
0.5899999999999999
 33
-0.1131370849898463
  0
3DFACE
  5
240F
  8
SLEEVE
 10
-0.0000000000000001
 20
1.01
 30
-0.0850000000000009
 11
0.0601040764008565
 21
1.01
 31
-0.0601040764008563
 12
0.0707106781186547
 22
1.01
 32
-0.0707106781186546
 13
-0.0000000000000001
 23
1.01
 33
-0.0999999999999997
  0
3DFACE
  5
2410
  8
SLEEVE
 10
-0.0000000000000001
 20
0.5900000000000001
 30
-0.1199999999999992
 11
0.0848528137423857
 21
0.5900000000000001
 31
-0.0848528137423852
 12
0.1131370849898475
 22
0.5900000000000001
 32
-0.1131370849898481
 13
-0.0000000000000001
 23
0.5900000000000001
 33
-0.1600000000000001
  0
3DFACE
  5
2411
  8
SLEEVE
 10
0.060104076400858
 20
1.01
 30
-0.0601040764008598
 11
0.0850000000000009
 21
1.01
 31
-0.0000000000000018
 12
0.1000000000000014
 22
1.01
 32
-0.0000000000000018
 13
0.0707106781186546
 23
1.01
 33
-0.0707106781186564
  0
3DFACE
  5
2412
  8
SLEEVE
 10
0.0848528137423852
 20
0.5900000000000001
 30
-0.084852813742387
 11
0.120000000000001
 21
0.5900000000000001
 31
-0.0000000000000018
 12
0.1600000000000001
 22
0.5900000000000001
 32
-0.0000000000000018
 13
0.1131370849898481
 23
0.5900000000000001
 33
-0.1131370849898499
  0
3DFACE
  5
2413
  8
SLEEVE
 10
0.0850000000000009
 20
1.01
 30
0.0
 11
0.0601040764008563
 21
1.01
 31
0.0601040764008563
 12
0.0707106781186546
 22
1.01
 32
0.0707106781186546
 13
0.0999999999999997
 23
1.01
 33
0.0
  0
3DFACE
  5
2414
  8
SLEEVE
 10
0.1199999999999992
 20
0.5900000000000001
 30
0.0
 11
0.0848528137423852
 21
0.5900000000000001
 31
0.0848528137423852
 12
0.1131370849898481
 22
0.5900000000000001
 32
0.1131370849898463
 13
0.1600000000000001
 23
0.5900000000000001
 33
0.0
  0
3DFACE
  5
2415
  8
SLEEVE
 10
0.060104076400858
 20
1.01
 30
0.0601040764008563
 11
0.0
 21
1.01
 31
0.0849999999999991
 12
0.0
 22
1.01
 32
0.0999999999999997
 13
0.0707106781186546
 23
1.01
 33
0.0707106781186528
  0
3DFACE
  5
2416
  8
SLEEVE
 10
0.0848528137423852
 20
0.5900000000000001
 30
0.0848528137423852
 11
0.0
 21
0.5900000000000001
 31
0.1199999999999992
 12
0.0000000000000018
 22
0.5900000000000001
 32
0.1600000000000001
 13
0.1131370849898481
 23
0.5900000000000001
 33
0.1131370849898463
  0
3DFACE
  5
245A
  8
SLEEVE
 10
0.21
 20
0.6399999999999999
 30
0.2000000000000011
 11
0.1807106781186547
 21
0.6399999999999999
 31
0.1292893218813464
 12
0.1524264068711929
 22
0.6899999999999997
 32
0.1575735931288076
 13
0.17
 23
0.6899999999999997
 33
0.2000000000000011
  0
3DFACE
  5
245B
  8
SLEEVE
 10
0.1807106781186547
 20
0.6399999999999999
 30
0.1292893218813464
 11
0.11
 21
0.6399999999999999
 31
0.1000000000000014
 12
0.11
 22
0.6899999999999997
 32
0.1400000000000006
 13
0.1524264068711929
 23
0.6899999999999997
 33
0.1575735931288076
  0
3DFACE
  5
245C
  8
SLEEVE
 10
0.11
 20
0.6399999999999999
 30
0.1000000000000014
 11
0.0392893218813453
 21
0.6399999999999999
 31
0.1292893218813464
 12
0.0675735931288072
 22
0.6899999999999997
 32
0.1575735931288076
 13
0.11
 23
0.6899999999999997
 33
0.1400000000000006
  0
3DFACE
  5
245D
  8
SLEEVE
 10
0.0392893218813453
 20
0.6399999999999999
 30
0.1292893218813464
 11
0.0100000000000001
 21
0.6399999999999999
 31
0.2000000000000011
 12
0.0500000000000001
 22
0.6899999999999997
 32
0.2000000000000011
 13
0.0675735931288072
 23
0.6899999999999997
 33
0.1575735931288076
  0
3DFACE
  5
245E
  8
SLEEVE
 10
0.0100000000000001
 20
0.6399999999999999
 30
0.2000000000000011
 11
0.0392893218813453
 21
0.6399999999999999
 31
0.2707106781186557
 12
0.0675735931288072
 22
0.6899999999999997
 32
0.2424264068711945
 13
0.0500000000000001
 23
0.6899999999999997
 33
0.2000000000000011
  0
3DFACE
  5
245F
  8
SLEEVE
 10
0.0392893218813453
 20
0.6399999999999999
 30
0.2707106781186557
 11
0.11
 21
0.6399999999999999
 31
0.3000000000000007
 12
0.11
 22
0.6899999999999997
 32
0.2600000000000016
 13
0.0675735931288072
 23
0.6899999999999997
 33
0.2424264068711945
  0
3DFACE
  5
2460
  8
SLEEVE
 10
0.11
 20
0.6399999999999999
 30
0.3000000000000007
 11
0.1807106781186547
 21
0.6399999999999999
 31
0.2707106781186557
 12
0.1524264068711929
 22
0.6899999999999997
 32
0.2424264068711945
 13
0.11
 23
0.6899999999999997
 33
0.2600000000000016
  0
3DFACE
  5
2461
  8
SLEEVE
 10
0.1807106781186547
 20
0.6399999999999999
 30
0.2707106781186557
 11
0.21
 21
0.6399999999999999
 31
0.2000000000000011
 12
0.17
 22
0.6899999999999997
 32
0.2000000000000011
 13
0.1524264068711929
 23
0.6899999999999997
 33
0.2424264068711945
  0
3DFACE
  5
2462
  8
SLEEVE
 10
0.1900000000000001
 20
0.5400000000000002
 30
0.2000000000000011
 11
0.1665685424949239
 21
0.5400000000000002
 31
0.2565685424949251
 12
0.1665685424949239
 22
-0.3099999999999998
 32
0.2565685424949251
 13
0.1900000000000001
 23
-0.3099999999999998
 33
0.2000000000000011
  0
3DFACE
  5
2463
  8
SLEEVE
 10
0.1665685424949239
 20
0.5400000000000002
 30
0.2565685424949251
 11
0.11
 21
0.5400000000000002
 31
0.2800000000000011
 12
0.11
 22
-0.3099999999999998
 32
0.2800000000000011
 13
0.1665685424949239
 23
-0.3099999999999998
 33
0.2565685424949251
  0
3DFACE
  5
2464
  8
SLEEVE
 10
0.11
 20
0.5400000000000002
 30
0.2800000000000011
 11
0.0534314575050762
 21
0.5400000000000002
 31
0.2565685424949251
 12
0.0534314575050762
 22
-0.3099999999999998
 32
0.2565685424949251
 13
0.11
 23
-0.3099999999999998
 33
0.2800000000000011
  0
3DFACE
  5
2465
  8
SLEEVE
 10
0.0534314575050762
 20
0.5400000000000002
 30
0.2565685424949251
 11
0.03
 21
0.5400000000000002
 31
0.2000000000000011
 12
0.03
 22
-0.3099999999999998
 32
0.2000000000000011
 13
0.0534314575050762
 23
-0.3099999999999998
 33
0.2565685424949251
  0
3DFACE
  5
2466
  8
SLEEVE
 10
0.03
 20
0.5400000000000002
 30
0.2000000000000011
 11
0.0534314575050762
 21
0.5400000000000002
 31
0.143431457505077
 12
0.0534314575050762
 22
-0.3099999999999998
 32
0.143431457505077
 13
0.03
 23
-0.3099999999999998
 33
0.2000000000000011
  0
3DFACE
  5
2467
  8
SLEEVE
 10
0.0534314575050762
 20
0.5400000000000002
 30
0.143431457505077
 11
0.11
 21
0.5400000000000002
 31
0.120000000000001
 12
0.11
 22
-0.3099999999999998
 32
0.120000000000001
 13
0.0534314575050762
 23
-0.3099999999999998
 33
0.143431457505077
  0
3DFACE
  5
2468
  8
SLEEVE
 10
0.11
 20
0.5400000000000002
 30
0.120000000000001
 11
0.1665685424949238
 21
0.5400000000000002
 31
0.143431457505077
 12
0.1665685424949238
 22
-0.3099999999999998
 32
0.143431457505077
 13
0.11
 23
-0.3099999999999998
 33
0.120000000000001
  0
3DFACE
  5
2469
  8
SLEEVE
 10
0.1665685424949238
 20
0.5400000000000002
 30
0.143431457505077
 11
0.1900000000000001
 21
0.5400000000000002
 31
0.2000000000000011
 12
0.1900000000000001
 22
-0.3099999999999998
 32
0.2000000000000011
 13
0.1665685424949238
 23
-0.3099999999999998
 33
0.143431457505077
  0
3DFACE
  5
246A
  8
SLEEVE
 10
0.21
 20
0.6399999999999999
 30
0.2000000000000011
 11
0.1807106781186547
 21
0.6399999999999999
 31
0.2707106781186557
 12
0.1807106781186547
 22
0.5399999999999999
 32
0.2707106781186557
 13
0.21
 23
0.5399999999999999
 33
0.2000000000000011
  0
3DFACE
  5
246B
  8
SLEEVE
 10
0.1807106781186547
 20
0.6399999999999999
 30
0.2707106781186557
 11
0.11
 21
0.6399999999999999
 31
0.3000000000000007
 12
0.11
 22
0.5399999999999999
 32
0.3000000000000007
 13
0.1807106781186547
 23
0.5399999999999999
 33
0.2707106781186557
  0
3DFACE
  5
246C
  8
SLEEVE
 10
0.11
 20
0.6399999999999999
 30
0.3000000000000007
 11
0.0392893218813453
 21
0.6399999999999999
 31
0.2707106781186557
 12
0.0392893218813453
 22
0.5399999999999999
 32
0.2707106781186557
 13
0.11
 23
0.5399999999999999
 33
0.3000000000000007
  0
3DFACE
  5
246D
  8
SLEEVE
 10
0.0392893218813453
 20
0.6399999999999999
 30
0.2707106781186557
 11
0.0100000000000001
 21
0.6399999999999999
 31
0.2000000000000011
 12
0.0100000000000001
 22
0.5399999999999999
 32
0.2000000000000011
 13
0.0392893218813453
 23
0.5399999999999999
 33
0.2707106781186557
  0
3DFACE
  5
246E
  8
SLEEVE
 10
0.0100000000000001
 20
0.6399999999999999
 30
0.2000000000000011
 11
0.0392893218813453
 21
0.6399999999999999
 31
0.1292893218813464
 12
0.0392893218813453
 22
0.5399999999999999
 32
0.1292893218813464
 13
0.0100000000000001
 23
0.5399999999999999
 33
0.2000000000000011
  0
3DFACE
  5
246F
  8
SLEEVE
 10
0.0392893218813453
 20
0.6399999999999999
 30
0.1292893218813464
 11
0.11
 21
0.6399999999999999
 31
0.1000000000000014
 12
0.11
 22
0.5399999999999999
 32
0.1000000000000014
 13
0.0392893218813453
 23
0.5399999999999999
 33
0.1292893218813464
  0
3DFACE
  5
2470
  8
SLEEVE
 10
0.11
 20
0.6399999999999999
 30
0.1000000000000014
 11
0.1807106781186547
 21
0.6399999999999999
 31
0.1292893218813464
 12
0.1807106781186547
 22
0.5399999999999999
 32
0.1292893218813464
 13
0.11
 23
0.5399999999999999
 33
0.1000000000000014
  0
3DFACE
  5
2471
  8
SLEEVE
 10
0.1807106781186547
 20
0.6399999999999999
 30
0.1292893218813464
 11
0.21
 21
0.6399999999999999
 31
0.2000000000000011
 12
0.21
 22
0.5399999999999999
 32
0.2000000000000011
 13
0.1807106781186547
 23
0.5399999999999999
 33
0.1292893218813464
  0
3DFACE
  5
2472
  8
SLEEVE
 10
0.1807106781186548
 20
0.5399999999999999
 30
0.2707106781186557
 11
0.11
 21
0.5399999999999999
 31
0.3000000000000007
 12
0.11
 22
0.5400000000000002
 32
0.2800000000000011
 13
0.1665685424949239
 23
0.5400000000000002
 33
0.2565685424949251
  0
3DFACE
  5
2473
  8
SLEEVE
 10
0.11
 20
0.6899999999999997
 30
0.2600000000000016
 11
0.1524264068711929
 21
0.6899999999999997
 31
0.2424264068711945
 12
0.17
 22
0.6899999999999997
 32
0.2000000000000011
 13
0.0675735931288072
 23
0.6899999999999997
 33
0.2424264068711945
  0
3DFACE
  5
2474
  8
SLEEVE
 10
0.0675735931288072
 20
0.6899999999999997
 30
0.2424264068711945
 11
0.17
 21
0.6899999999999997
 31
0.2000000000000011
 12
0.1524264068711929
 22
0.6899999999999997
 32
0.1575735931288076
 13
0.0500000000000001
 23
0.6899999999999997
 33
0.2000000000000011
  0
3DFACE
  5
2475
  8
SLEEVE
 10
0.0500000000000001
 20
0.6899999999999997
 30
0.2000000000000011
 11
0.1524264068711929
 21
0.6899999999999997
 31
0.1575735931288076
 12
0.11
 22
0.6899999999999997
 32
0.1400000000000006
 13
0.0675735931288072
 23
0.6899999999999997
 33
0.1575735931288076
  0
3DFACE
  5
2476
  8
SLEEVE
 10
0.11
 20
-0.3099999999999998
 30
0.2800000000000011
 11
0.0534314575050762
 21
-0.3099999999999998
 31
0.2565685424949251
 12
0.03
 22
-0.3099999999999998
 32
0.2000000000000011
 13
0.1665685424949239
 23
-0.3099999999999998
 33
0.2565685424949251
  0
3DFACE
  5
2477
  8
SLEEVE
 10
0.1665685424949239
 20
-0.3099999999999998
 30
0.2565685424949251
 11
0.03
 21
-0.3099999999999998
 31
0.2000000000000011
 12
0.0534314575050762
 22
-0.3099999999999998
 32
0.143431457505077
 13
0.1900000000000001
 23
-0.3099999999999998
 33
0.2000000000000011
  0
3DFACE
  5
2478
  8
SLEEVE
 10
0.1900000000000001
 20
-0.3099999999999998
 30
0.2000000000000011
 11
0.0534314575050762
 21
-0.3099999999999998
 31
0.143431457505077
 12
0.11
 22
-0.3099999999999998
 32
0.120000000000001
 13
0.1665685424949238
 23
-0.3099999999999998
 33
0.143431457505077
  0
3DFACE
  5
2479
  8
SLEEVE
 10
-0.01
 20
0.6399999999999999
 30
0.2000000000000011
 11
-0.0392893218813453
 21
0.6399999999999999
 31
0.1292893218813464
 12
-0.0675735931288071
 22
0.6899999999999997
 32
0.1575735931288076
 13
-0.05
 23
0.6899999999999997
 33
0.2000000000000011
  0
3DFACE
  5
247A
  8
SLEEVE
 10
-0.0392893218813453
 20
0.6399999999999999
 30
0.1292893218813464
 11
-0.11
 21
0.6399999999999999
 31
0.1000000000000014
 12
-0.11
 22
0.6899999999999997
 32
0.1400000000000006
 13
-0.0675735931288071
 23
0.6899999999999997
 33
0.1575735931288076
  0
3DFACE
  5
247B
  8
SLEEVE
 10
-0.11
 20
0.6399999999999999
 30
0.3000000000000007
 11
-0.0392893218813453
 21
0.6399999999999999
 31
0.2707106781186557
 12
-0.0675735931288072
 22
0.6899999999999997
 32
0.2424264068711945
 13
-0.11
 23
0.6899999999999997
 33
0.2600000000000016
  0
3DFACE
  5
247C
  8
SLEEVE
 10
-0.0392893218813453
 20
0.6399999999999999
 30
0.2707106781186557
 11
-0.01
 21
0.6399999999999999
 31
0.2000000000000011
 12
-0.05
 22
0.6899999999999997
 32
0.2000000000000011
 13
-0.0675735931288072
 23
0.6899999999999997
 33
0.2424264068711945
  0
3DFACE
  5
247D
  8
SLEEVE
 10
-0.11
 20
0.6399999999999999
 30
0.1000000000000014
 11
-0.1807106781186547
 21
0.6399999999999999
 31
0.1292893218813464
 12
-0.1524264068711929
 22
0.6899999999999997
 32
0.1575735931288076
 13
-0.11
 23
0.6899999999999997
 33
0.1400000000000006
  0
3DFACE
  5
247E
  8
SLEEVE
 10
-0.1807106781186547
 20
0.6399999999999999
 30
0.2707106781186557
 11
-0.11
 21
0.6399999999999999
 31
0.3000000000000007
 12
-0.11
 22
0.6899999999999997
 32
0.2600000000000016
 13
-0.1524264068711929
 23
0.6899999999999997
 33
0.2424264068711945
  0
3DFACE
  5
247F
  8
SLEEVE
 10
-0.1807106781186547
 20
0.6399999999999999
 30
0.1292893218813464
 11
-0.21
 21
0.6399999999999999
 31
0.2000000000000011
 12
-0.17
 22
0.6899999999999997
 32
0.2000000000000011
 13
-0.1524264068711929
 23
0.6899999999999997
 33
0.1575735931288076
  0
3DFACE
  5
2480
  8
SLEEVE
 10
-0.21
 20
0.6399999999999999
 30
0.2000000000000011
 11
-0.1807106781186547
 21
0.6399999999999999
 31
0.2707106781186557
 12
-0.1524264068711929
 22
0.6899999999999997
 32
0.2424264068711945
 13
-0.17
 23
0.6899999999999997
 33
0.2000000000000011
  0
3DFACE
  5
2481
  8
SLEEVE
 10
-0.03
 20
-0.3099999999999998
 30
0.2000000000000011
 11
-0.1665685424949238
 21
-0.3099999999999998
 31
0.143431457505077
 12
-0.11
 22
-0.3099999999999998
 32
0.120000000000001
 13
-0.0534314575050762
 23
-0.3099999999999998
 33
0.143431457505077
  0
3DFACE
  5
2482
  8
SLEEVE
 10
-0.0392893218813453
 20
0.6399999999999999
 30
0.1292893218813464
 11
-0.01
 21
0.6399999999999999
 31
0.2000000000000011
 12
-0.01
 22
0.5399999999999999
 32
0.2000000000000011
 13
-0.0392893218813453
 23
0.5399999999999999
 33
0.1292893218813464
  0
3DFACE
  5
2483
  8
SLEEVE
 10
-0.21
 20
0.6399999999999999
 30
0.2000000000000011
 11
-0.1807106781186547
 21
0.6399999999999999
 31
0.1292893218813464
 12
-0.1807106781186547
 22
0.5399999999999999
 32
0.1292893218813464
 13
-0.21
 23
0.5399999999999999
 33
0.2000000000000011
  0
3DFACE
  5
2484
  8
SLEEVE
 10
-0.11
 20
0.5400000000000002
 30
0.120000000000001
 11
-0.0534314575050762
 21
0.5400000000000002
 31
0.143431457505077
 12
-0.0534314575050762
 22
-0.3099999999999998
 32
0.143431457505077
 13
-0.11
 23
-0.3099999999999998
 33
0.120000000000001
  0
3DFACE
  5
2485
  8
SLEEVE
 10
-0.1665685424949238
 20
0.5400000000000002
 30
0.143431457505077
 11
-0.11
 21
0.5400000000000002
 31
0.120000000000001
 12
-0.11
 22
-0.3099999999999998
 32
0.120000000000001
 13
-0.1665685424949238
 23
-0.3099999999999998
 33
0.143431457505077
  0
3DFACE
  5
2486
  8
SLEEVE
 10
-0.11
 20
0.6399999999999999
 30
0.1000000000000014
 11
-0.0392893218813453
 21
0.6399999999999999
 31
0.1292893218813464
 12
-0.0392893218813453
 22
0.5399999999999999
 32
0.1292893218813464
 13
-0.11
 23
0.5399999999999999
 33
0.1000000000000014
  0
3DFACE
  5
2487
  8
SLEEVE
 10
-0.1807106781186547
 20
0.6399999999999999
 30
0.1292893218813464
 11
-0.11
 21
0.6399999999999999
 31
0.1000000000000014
 12
-0.11
 22
0.5399999999999999
 32
0.1000000000000014
 13
-0.1807106781186547
 23
0.5399999999999999
 33
0.1292893218813464
  0
3DFACE
  5
2488
  8
SLEEVE
 10
-0.0534314575050762
 20
-0.3099999999999998
 30
0.2565685424949251
 11
-0.19
 21
-0.3099999999999998
 31
0.2000000000000011
 12
-0.1665685424949238
 22
-0.3099999999999998
 32
0.143431457505077
 13
-0.03
 23
-0.3099999999999998
 33
0.2000000000000011
  0
3DFACE
  5
2489
  8
SLEEVE
 10
-0.11
 20
-0.3099999999999998
 30
0.2800000000000011
 11
-0.1665685424949238
 21
-0.3099999999999998
 31
0.2565685424949251
 12
-0.19
 22
-0.3099999999999998
 32
0.2000000000000011
 13
-0.0534314575050762
 23
-0.3099999999999998
 33
0.2565685424949251
  0
3DFACE
  5
248A
  8
SLEEVE
 10
-0.01
 20
0.6399999999999999
 30
0.2000000000000011
 11
-0.0392893218813453
 21
0.6399999999999999
 31
0.2707106781186557
 12
-0.0392893218813453
 22
0.5399999999999999
 32
0.2707106781186557
 13
-0.01
 23
0.5399999999999999
 33
0.2000000000000011
  0
3DFACE
  5
248B
  8
SLEEVE
 10
-0.0392893218813453
 20
0.6399999999999999
 30
0.2707106781186557
 11
-0.11
 21
0.6399999999999999
 31
0.3000000000000007
 12
-0.11
 22
0.5399999999999999
 32
0.3000000000000007
 13
-0.0392893218813453
 23
0.5399999999999999
 33
0.2707106781186557
  0
3DFACE
  5
248C
  8
SLEEVE
 10
-0.11
 20
0.6399999999999999
 30
0.3000000000000007
 11
-0.1807106781186547
 21
0.6399999999999999
 31
0.2707106781186557
 12
-0.1807106781186547
 22
0.5399999999999999
 32
0.2707106781186557
 13
-0.11
 23
0.5399999999999999
 33
0.3000000000000007
  0
3DFACE
  5
248D
  8
SLEEVE
 10
-0.1807106781186547
 20
0.6399999999999999
 30
0.2707106781186557
 11
-0.21
 21
0.6399999999999999
 31
0.2000000000000011
 12
-0.21
 22
0.5399999999999999
 32
0.2000000000000011
 13
-0.1807106781186547
 23
0.5399999999999999
 33
0.2707106781186557
  0
3DFACE
  5
248E
  8
SLEEVE
 10
-0.0392893218813452
 20
0.5399999999999999
 30
0.2707106781186557
 11
-0.11
 21
0.5399999999999999
 31
0.3000000000000007
 12
-0.11
 22
0.5400000000000002
 32
0.2800000000000011
 13
-0.0534314575050762
 23
0.5400000000000002
 33
0.2565685424949251
  0
3DFACE
  5
248F
  8
SLEEVE
 10
-0.03
 20
0.5400000000000002
 30
0.2000000000000011
 11
-0.0534314575050762
 21
0.5400000000000002
 31
0.2565685424949251
 12
-0.0534314575050762
 22
-0.3099999999999998
 32
0.2565685424949251
 13
-0.03
 23
-0.3099999999999998
 33
0.2000000000000011
  0
3DFACE
  5
2490
  8
SLEEVE
 10
-0.0534314575050762
 20
0.5400000000000002
 30
0.2565685424949251
 11
-0.11
 21
0.5400000000000002
 31
0.2800000000000011
 12
-0.11
 22
-0.3099999999999998
 32
0.2800000000000011
 13
-0.0534314575050762
 23
-0.3099999999999998
 33
0.2565685424949251
  0
3DFACE
  5
2491
  8
SLEEVE
 10
-0.0534314575050762
 20
0.5400000000000002
 30
0.143431457505077
 11
-0.03
 21
0.5400000000000002
 31
0.2000000000000011
 12
-0.03
 22
-0.3099999999999998
 32
0.2000000000000011
 13
-0.0534314575050762
 23
-0.3099999999999998
 33
0.143431457505077
  0
3DFACE
  5
2492
  8
SLEEVE
 10
-0.11
 20
0.5400000000000002
 30
0.2800000000000011
 11
-0.1665685424949238
 21
0.5400000000000002
 31
0.2565685424949251
 12
-0.1665685424949238
 22
-0.3099999999999998
 32
0.2565685424949251
 13
-0.11
 23
-0.3099999999999998
 33
0.2800000000000011
  0
3DFACE
  5
2493
  8
SLEEVE
 10
-0.1665685424949238
 20
0.5400000000000002
 30
0.2565685424949251
 11
-0.19
 21
0.5400000000000002
 31
0.2000000000000011
 12
-0.19
 22
-0.3099999999999998
 32
0.2000000000000011
 13
-0.1665685424949238
 23
-0.3099999999999998
 33
0.2565685424949251
  0
3DFACE
  5
2494
  8
SLEEVE
 10
-0.19
 20
0.5400000000000002
 30
0.2000000000000011
 11
-0.1665685424949238
 21
0.5400000000000002
 31
0.143431457505077
 12
-0.1665685424949238
 22
-0.3099999999999998
 32
0.143431457505077
 13
-0.19
 23
-0.3099999999999998
 33
0.2000000000000011
  0
3DFACE
  5
2495
  8
SLEEVE
 10
-0.17
 20
0.6899999999999997
 30
0.2000000000000011
 11
-0.0675735931288071
 21
0.6899999999999997
 31
0.1575735931288076
 12
-0.11
 22
0.6899999999999997
 32
0.1400000000000006
 13
-0.1524264068711929
 23
0.6899999999999997
 33
0.1575735931288076
  0
3DFACE
  5
2496
  8
SLEEVE
 10
-0.11
 20
0.6899999999999997
 30
0.2600000000000016
 11
-0.0675735931288072
 21
0.6899999999999997
 31
0.2424264068711945
 12
-0.05
 22
0.6899999999999997
 32
0.2000000000000011
 13
-0.1524264068711929
 23
0.6899999999999997
 33
0.2424264068711945
  0
3DFACE
  5
2497
  8
SLEEVE
 10
-0.1524264068711929
 20
0.6899999999999997
 30
0.2424264068711945
 11
-0.05
 21
0.6899999999999997
 31
0.2000000000000011
 12
-0.0675735931288071
 22
0.6899999999999997
 32
0.1575735931288076
 13
-0.17
 23
0.6899999999999997
 33
0.2000000000000011
  0
3DFACE
  5
25DF
  8
SLEEVE
 10
-0.18
 20
-0.0400000000000003
 30
0.0
 11
-0.1682842712474622
 21
-0.0282842712474618
 31
0.0282842712474611
 12
-0.19
 22
-0.0282842712474618
 32
0.0282842712474611
 13
-0.19
 23
-0.0400000000000003
 33
0.0
  0
3DFACE
  5
25E0
  8
SLEEVE
 10
-0.1682842712474622
 20
-0.0282842712474618
 30
0.0282842712474611
 11
-0.1634314575050766
 21
-0.0000000000000002
 31
0.0399999999999992
 12
-0.19
 22
-0.0000000000000002
 32
0.0399999999999992
 13
-0.19
 23
-0.0282842712474618
 33
0.0282842712474611
  0
3DFACE
  5
25E1
  8
SLEEVE
 10
-0.1634314575050766
 20
-0.0000000000000002
 30
0.0399999999999992
 11
-0.1682842712474622
 21
0.0282842712474618
 31
0.0282842712474611
 12
-0.19
 22
0.0282842712474618
 32
0.0282842712474611
 13
-0.19
 23
-0.0000000000000002
 33
0.0399999999999992
  0
3DFACE
  5
25E2
  8
SLEEVE
 10
-0.1682842712474622
 20
0.0282842712474618
 30
0.0282842712474611
 11
-0.18
 21
0.0399999999999998
 31
0.0
 12
-0.19
 22
0.0399999999999998
 32
0.0
 13
-0.19
 23
0.0282842712474618
 33
0.0282842712474611
  0
3DFACE
  5
25E3
  8
SLEEVE
 10
-0.18
 20
0.0399999999999998
 30
0.0
 11
-0.1682842712474622
 21
0.0282842712474618
 31
-0.0282842712474611
 12
-0.19
 22
0.0282842712474618
 32
-0.0282842712474611
 13
-0.19
 23
0.0399999999999998
 33
0.0
  0
3DFACE
  5
25E4
  8
SLEEVE
 10
-0.1682842712474622
 20
0.0282842712474618
 30
-0.0282842712474611
 11
-0.1634314575050766
 21
-0.0000000000000002
 31
-0.0399999999999992
 12
-0.19
 22
-0.0000000000000002
 32
-0.0399999999999992
 13
-0.19
 23
0.0282842712474618
 33
-0.0282842712474611
  0
3DFACE
  5
25E5
  8
SLEEVE
 10
-0.1634314575050766
 20
-0.0000000000000002
 30
-0.0399999999999992
 11
-0.1682842712474622
 21
-0.0282842712474618
 31
-0.0282842712474611
 12
-0.19
 22
-0.0282842712474618
 32
-0.0282842712474611
 13
-0.19
 23
-0.0000000000000002
 33
-0.0399999999999992
  0
3DFACE
  5
25E6
  8
SLEEVE
 10
-0.1682842712474622
 20
-0.0282842712474618
 30
-0.0282842712474611
 11
-0.18
 21
-0.0400000000000003
 31
0.0
 12
-0.19
 22
-0.0400000000000003
 32
0.0
 13
-0.19
 23
-0.0282842712474618
 33
-0.0282842712474611
  0
3DFACE
  5
25E7
  8
SLEEVE
 10
-0.23
 20
-0.0400000000000003
 30
0.0
 11
-0.23
 21
-0.0282842712474618
 31
0.0282842712474611
 12
-0.28
 22
-0.0282842712474618
 32
0.0282842712474611
 13
-0.28
 23
-0.0400000000000003
 33
0.0
  0
3DFACE
  5
25E8
  8
SLEEVE
 10
-0.23
 20
-0.0282842712474618
 30
0.0282842712474611
 11
-0.23
 21
-0.0000000000000002
 31
0.0399999999999992
 12
-0.28
 22
-0.0000000000000002
 32
0.0399999999999992
 13
-0.28
 23
-0.0282842712474618
 33
0.0282842712474611
  0
3DFACE
  5
25E9
  8
SLEEVE
 10
-0.23
 20
-0.0000000000000002
 30
0.0399999999999992
 11
-0.23
 21
0.0282842712474618
 31
0.0282842712474611
 12
-0.28
 22
0.0282842712474618
 32
0.0282842712474611
 13
-0.28
 23
-0.0000000000000002
 33
0.0399999999999992
  0
3DFACE
  5
25EA
  8
SLEEVE
 10
-0.23
 20
0.0282842712474618
 30
0.0282842712474611
 11
-0.23
 21
0.0399999999999998
 31
0.0
 12
-0.28
 22
0.0399999999999998
 32
0.0
 13
-0.28
 23
0.0282842712474618
 33
0.0282842712474611
  0
3DFACE
  5
25EB
  8
SLEEVE
 10
-0.23
 20
0.0399999999999998
 30
0.0
 11
-0.23
 21
0.0282842712474618
 31
-0.0282842712474611
 12
-0.28
 22
0.0282842712474618
 32
-0.0282842712474611
 13
-0.28
 23
0.0399999999999998
 33
0.0
  0
3DFACE
  5
25EC
  8
SLEEVE
 10
-0.23
 20
0.0282842712474618
 30
-0.0282842712474611
 11
-0.23
 21
-0.0000000000000002
 31
-0.0399999999999992
 12
-0.28
 22
-0.0000000000000002
 32
-0.0399999999999992
 13
-0.28
 23
0.0282842712474618
 33
-0.0282842712474611
  0
3DFACE
  5
25ED
  8
SLEEVE
 10
-0.23
 20
-0.0000000000000002
 30
-0.0399999999999992
 11
-0.23
 21
-0.0282842712474618
 31
-0.0282842712474611
 12
-0.28
 22
-0.0282842712474618
 32
-0.0282842712474611
 13
-0.28
 23
-0.0000000000000002
 33
-0.0399999999999992
  0
3DFACE
  5
25EE
  8
SLEEVE
 10
-0.23
 20
-0.0282842712474618
 30
-0.0282842712474611
 11
-0.23
 21
-0.0400000000000003
 31
0.0
 12
-0.28
 22
-0.0400000000000003
 32
0.0
 13
-0.28
 23
-0.0282842712474618
 33
-0.0282842712474611
  0
3DFACE
  5
25EF
  8
SLEEVE
 10
-0.28
 20
-0.0000000000000002
 30
-0.0399999999999992
 11
-0.28
 21
-0.0282842712474618
 31
-0.0282842712474611
 12
-0.28
 22
-0.0400000000000003
 32
0.0
 13
-0.28
 23
0.0282842712474618
 33
-0.0282842712474611
  0
3DFACE
  5
25F0
  8
SLEEVE
 10
-0.28
 20
0.0282842712474618
 30
-0.0282842712474611
 11
-0.28
 21
-0.0400000000000003
 31
0.0
 12
-0.28
 22
-0.0282842712474618
 32
0.0282842712474611
 13
-0.28
 23
0.0399999999999998
 33
0.0
  0
3DFACE
  5
25F1
  8
SLEEVE
 10
-0.28
 20
0.0399999999999998
 30
0.0
 11
-0.28
 21
-0.0282842712474618
 31
0.0282842712474611
 12
-0.28
 22
-0.0000000000000002
 32
0.0399999999999992
 13
-0.28
 23
0.0282842712474618
 33
0.0282842712474611
  0
3DFACE
  5
25F2
  8
SLEEVE
 10
0.23
 20
-0.0400000000000003
 30
0.0
 11
0.23
 21
-0.0282842712474618
 31
-0.0282842712474611
 12
0.28
 22
-0.0282842712474618
 32
-0.0282842712474611
 13
0.28
 23
-0.0400000000000003
 33
0.0
  0
3DFACE
  5
25F3
  8
SLEEVE
 10
0.23
 20
-0.0282842712474618
 30
-0.0282842712474611
 11
0.23
 21
-0.0000000000000002
 31
-0.0399999999999992
 12
0.28
 22
-0.0000000000000002
 32
-0.0399999999999992
 13
0.28
 23
-0.0282842712474618
 33
-0.0282842712474611
  0
3DFACE
  5
25F4
  8
SLEEVE
 10
0.23
 20
-0.0000000000000002
 30
-0.0399999999999992
 11
0.23
 21
0.0282842712474618
 31
-0.0282842712474611
 12
0.28
 22
0.0282842712474618
 32
-0.0282842712474611
 13
0.28
 23
-0.0000000000000002
 33
-0.0399999999999992
  0
3DFACE
  5
25F5
  8
SLEEVE
 10
0.23
 20
0.0282842712474618
 30
-0.0282842712474611
 11
0.23
 21
0.0399999999999998
 31
0.0
 12
0.28
 22
0.0399999999999998
 32
0.0
 13
0.28
 23
0.0282842712474618
 33
-0.0282842712474611
  0
3DFACE
  5
25F6
  8
SLEEVE
 10
0.23
 20
0.0399999999999998
 30
0.0
 11
0.23
 21
0.0282842712474618
 31
0.0282842712474611
 12
0.28
 22
0.0282842712474618
 32
0.0282842712474611
 13
0.28
 23
0.0399999999999998
 33
0.0
  0
3DFACE
  5
25F7
  8
SLEEVE
 10
0.23
 20
0.0282842712474618
 30
0.0282842712474611
 11
0.23
 21
-0.0000000000000002
 31
0.0399999999999992
 12
0.28
 22
-0.0000000000000002
 32
0.0399999999999992
 13
0.28
 23
0.0282842712474618
 33
0.0282842712474611
  0
3DFACE
  5
25F8
  8
SLEEVE
 10
0.23
 20
-0.0000000000000002
 30
0.0399999999999992
 11
0.23
 21
-0.0282842712474618
 31
0.0282842712474611
 12
0.28
 22
-0.0282842712474618
 32
0.0282842712474611
 13
0.28
 23
-0.0000000000000002
 33
0.0399999999999992
  0
3DFACE
  5
25F9
  8
SLEEVE
 10
0.23
 20
-0.0282842712474618
 30
0.0282842712474611
 11
0.23
 21
-0.0400000000000003
 31
0.0
 12
0.28
 22
-0.0400000000000003
 32
0.0
 13
0.28
 23
-0.0282842712474618
 33
0.0282842712474611
  0
3DFACE
  5
25FA
  8
SLEEVE
 10
0.28
 20
-0.0000000000000002
 30
0.0399999999999992
 11
0.28
 21
-0.0282842712474618
 31
0.0282842712474611
 12
0.28
 22
-0.0400000000000003
 32
0.0
 13
0.28
 23
0.0282842712474618
 33
0.0282842712474611
  0
3DFACE
  5
25FB
  8
SLEEVE
 10
0.28
 20
0.0282842712474618
 30
0.0282842712474611
 11
0.28
 21
-0.0400000000000003
 31
0.0
 12
0.28
 22
-0.0282842712474618
 32
-0.0282842712474611
 13
0.28
 23
0.0399999999999998
 33
0.0
  0
3DFACE
  5
25FC
  8
SLEEVE
 10
0.28
 20
0.0399999999999998
 30
0.0
 11
0.28
 21
-0.0282842712474618
 31
-0.0282842712474611
 12
0.28
 22
-0.0000000000000002
 32
-0.0399999999999992
 13
0.28
 23
0.0282842712474618
 33
-0.0282842712474611
  0
3DFACE
  5
25FD
  8
SLEEVE
 10
0.1682842712474623
 20
-0.0282842712474618
 30
0.0282842712474611
 11
0.18
 21
-0.0400000000000003
 31
0.0
 12
0.19
 22
-0.0400000000000003
 32
0.0
 13
0.19
 23
-0.0282842712474618
 33
0.0282842712474611
  0
3DFACE
  5
25FE
  8
SLEEVE
 10
0.1634314575050766
 20
-0.0000000000000002
 30
0.0399999999999992
 11
0.1682842712474623
 21
-0.0282842712474618
 31
0.0282842712474611
 12
0.19
 22
-0.0282842712474618
 32
0.0282842712474611
 13
0.19
 23
-0.0000000000000002
 33
0.0399999999999992
  0
3DFACE
  5
25FF
  8
SLEEVE
 10
0.1682842712474623
 20
0.0282842712474618
 30
0.0282842712474611
 11
0.1634314575050766
 21
-0.0000000000000002
 31
0.0399999999999992
 12
0.19
 22
-0.0000000000000002
 32
0.0399999999999992
 13
0.19
 23
0.0282842712474618
 33
0.0282842712474611
  0
3DFACE
  5
2600
  8
SLEEVE
 10
0.18
 20
0.0399999999999998
 30
0.0
 11
0.1682842712474623
 21
0.0282842712474618
 31
0.0282842712474611
 12
0.19
 22
0.0282842712474618
 32
0.0282842712474611
 13
0.19
 23
0.0399999999999998
 33
0.0
  0
3DFACE
  5
2601
  8
SLEEVE
 10
0.1682842712474622
 20
0.0282842712474618
 30
-0.0282842712474611
 11
0.18
 21
0.0399999999999998
 31
0.0
 12
0.19
 22
0.0399999999999998
 32
0.0
 13
0.19
 23
0.0282842712474618
 33
-0.0282842712474611
  0
3DFACE
  5
2602
  8
SLEEVE
 10
0.1634314575050766
 20
-0.0000000000000002
 30
-0.0399999999999992
 11
0.1682842712474622
 21
0.0282842712474618
 31
-0.0282842712474611
 12
0.19
 22
0.0282842712474618
 32
-0.0282842712474611
 13
0.19
 23
-0.0000000000000002
 33
-0.0399999999999992
  0
3DFACE
  5
2603
  8
SLEEVE
 10
0.1682842712474622
 20
-0.0282842712474618
 30
-0.0282842712474611
 11
0.1634314575050766
 21
-0.0000000000000002
 31
-0.0399999999999992
 12
0.19
 22
-0.0000000000000002
 32
-0.0399999999999992
 13
0.19
 23
-0.0282842712474618
 33
-0.0282842712474611
  0
3DFACE
  5
2604
  8
SLEEVE
 10
0.18
 20
-0.0400000000000003
 30
0.0
 11
0.1682842712474622
 21
-0.0282842712474618
 31
-0.0282842712474611
 12
0.19
 22
-0.0282842712474618
 32
-0.0282842712474611
 13
0.19
 23
-0.0400000000000003
 33
0.0
  0
3DFACE
  5
27E0
  8
SLEEVE
 10
-0.18
 20
-0.3600000000000001
 30
-0.1600000000000001
 11
-0.12
 21
-0.3600000000000001
 31
-0.21
 12
-0.12
 22
-1.28
 32
-0.21
 13
-0.18
 23
-1.28
 33
-0.1600000000000001
  0
3DFACE
  5
27E1
  8
SLEEVE
 10
-0.18
 20
-0.3600000000000001
 30
-0.0100000000000002
 11
-0.18
 21
-0.3600000000000001
 31
-0.1600000000000001
 12
-0.18
 22
-1.28
 32
-0.1600000000000001
 13
-0.18
 23
-1.28
 33
-0.1200000000000001
  0
3DFACE
  5
27E2
  8
SLEEVE
 10
-0.17
 20
-0.3600000000000001
 30
-0.0100000000000002
 11
-0.18
 21
-0.3600000000000001
 31
-0.0100000000000002
 12
-0.18
 22
-1.3300000000000001
 32
-0.0100000000000002
 13
-0.17
 23
-1.3300000000000001
 33
-0.0100000000000002
  0
3DFACE
  5
27E3
  8
SLEEVE
 10
-0.17
 20
-0.3600000000000001
 30
-0.1600000000000001
 11
-0.17
 21
-0.3600000000000001
 31
-0.0100000000000002
 12
-0.17
 22
-1.28
 32
-0.1200000000000001
 13
-0.17
 23
-1.28
 33
-0.1600000000000001
  0
3DFACE
  5
27E4
  8
SLEEVE
 10
-0.1219999999999999
 20
-0.3600000000000001
 30
-0.2000000000000002
 11
-0.17
 21
-0.3600000000000001
 31
-0.1600000000000001
 12
-0.17
 22
-1.28
 32
-0.1600000000000001
 13
-0.1219999999999998
 23
-1.28
 33
-0.2000000000000002
  0
3DFACE
  5
27E5
  8
SLEEVE
 10
0.1219999999999998
 20
-0.3600000000000001
 30
-0.2000000000000002
 11
-0.1219999999999999
 21
-0.3600000000000001
 31
-0.2000000000000002
 12
-0.1219999999999999
 22
-1.28
 32
-0.2000000000000002
 13
0.1219999999999998
 23
-1.28
 33
-0.2000000000000002
  0
3DFACE
  5
27E6
  8
SLEEVE
 10
0.17
 20
-0.3600000000000001
 30
-0.1600000000000001
 11
0.1219999999999998
 21
-0.3600000000000001
 31
-0.2000000000000002
 12
0.1219999999999998
 22
-1.28
 32
-0.2000000000000002
 13
0.17
 23
-1.28
 33
-0.1600000000000001
  0
3DFACE
  5
27E7
  8
SLEEVE
 10
0.17
 20
-0.3600000000000001
 30
-0.0100000000000002
 11
0.17
 21
-0.3600000000000001
 31
-0.1600000000000001
 12
0.17
 22
-1.28
 32
-0.1600000000000001
 13
0.17
 23
-1.28
 33
-0.1200000000000001
  0
3DFACE
  5
27E8
  8
SLEEVE
 10
0.18
 20
-0.3600000000000001
 30
-0.0100000000000002
 11
0.17
 21
-0.3600000000000001
 31
-0.0100000000000002
 12
0.17
 22
-1.3300000000000001
 32
-0.0100000000000002
 13
0.18
 23
-1.3300000000000001
 33
-0.0100000000000002
  0
3DFACE
  5
27E9
  8
SLEEVE
 10
0.18
 20
-0.3600000000000001
 30
-0.1600000000000001
 11
0.18
 21
-0.3600000000000001
 31
-0.0100000000000002
 12
0.18
 22
-1.28
 32
-0.1200000000000001
 13
0.18
 23
-1.28
 33
-0.1600000000000001
  0
3DFACE
  5
27EA
  8
SLEEVE
 10
0.12
 20
-0.3600000000000001
 30
-0.21
 11
0.18
 21
-0.3600000000000001
 31
-0.1600000000000001
 12
0.18
 22
-1.28
 32
-0.1600000000000001
 13
0.12
 23
-1.28
 33
-0.21
  0
3DFACE
  5
27EB
  8
SLEEVE
 10
-0.12
 20
-0.3600000000000001
 30
-0.21
 11
0.12
 21
-0.3600000000000001
 31
-0.21
 12
0.12
 22
-1.28
 32
-0.21
 13
-0.12
 23
-1.28
 33
-0.21
  0
3DFACE
  5
27EC
  8
SLEEVE
 10
-0.12
 20
-1.28
 30
-0.21
 11
0.12
 21
-1.28
 31
-0.21
 12
0.1219999999999998
 22
-1.28
 32
-0.2000000000000002
 13
-0.1219999999999998
 23
-1.28
 33
-0.2000000000000002
  0
3DFACE
  5
27ED
  8
SLEEVE
 10
0.12
 20
-1.28
 30
-0.21
 11
0.18
 21
-1.28
 31
-0.1600000000000001
 12
0.17
 22
-1.28
 32
-0.1600000000000001
 13
0.1219999999999998
 23
-1.28
 33
-0.2000000000000002
  0
3DFACE
  5
27EE
  8
SLEEVE
 10
-0.18
 20
-1.28
 30
-0.1600000000000001
 11
-0.12
 21
-1.28
 31
-0.21
 12
-0.1219999999999998
 22
-1.28
 32
-0.2000000000000002
 13
-0.17
 23
-1.28
 33
-0.1600000000000001
  0
3DFACE
  5
27FB
  8
SLEEVE
 10
-0.18
 20
-1.28
 30
-0.1200000000000001
 11
-0.18
 21
-1.28
 31
-0.1600000000000001
 12
-0.17
 22
-1.28
 32
-0.1600000000000001
 13
-0.17
 23
-1.28
 33
-0.1200000000000001
  0
3DFACE
  5
27FC
  8
SLEEVE
 10
-0.18
 20
-1.3300000000000001
 30
-0.1200000000000001
 11
-0.18
 21
-1.28
 31
-0.1200000000000001
 12
-0.17
 22
-1.28
 32
-0.1200000000000001
 13
-0.17
 23
-1.3300000000000001
 33
-0.1200000000000001
  0
3DFACE
  5
27FD
  8
SLEEVE
 10
-0.18
 20
-1.3300000000000001
 30
-0.0100000000000002
 11
-0.18
 21
-1.3300000000000001
 31
-0.1200000000000001
 12
-0.17
 22
-1.3300000000000001
 32
-0.1200000000000001
 13
-0.17
 23
-1.3300000000000001
 33
-0.0100000000000002
  0
3DFACE
  5
27FF
  8
SLEEVE
 10
0.17
 20
-1.28
 30
-0.1200000000000001
 11
0.17
 21
-1.28
 31
-0.1600000000000001
 12
0.18
 22
-1.28
 32
-0.1600000000000001
 13
0.18
 23
-1.28
 33
-0.1200000000000001
  0
3DFACE
  5
2800
  8
SLEEVE
 10
0.17
 20
-1.3300000000000001
 30
-0.1200000000000001
 11
0.17
 21
-1.28
 31
-0.1200000000000001
 12
0.18
 22
-1.28
 32
-0.1200000000000001
 13
0.18
 23
-1.3300000000000001
 33
-0.1200000000000001
  0
3DFACE
  5
2801
  8
SLEEVE
 10
0.17
 20
-1.3300000000000001
 30
-0.0100000000000002
 11
0.17
 21
-1.3300000000000001
 31
-0.1200000000000001
 12
0.18
 22
-1.3300000000000001
 32
-0.1200000000000001
 13
0.18
 23
-1.3300000000000001
 33
-0.0100000000000002
  0
3DFACE
  5
2802
  8
SLEEVE
 10
-0.17
 20
-1.3300000000000001
 30
-0.0100000000000002
 11
-0.17
 21
-1.3300000000000001
 31
-0.1200000000000001
 12
-0.17
 22
-1.28
 32
-0.1200000000000001
 13
-0.17
 23
-0.3600000000000001
 33
-0.0100000000000002
  0
3DFACE
  5
2803
  8
SLEEVE
 10
-0.18
 20
-0.3600000000000001
 30
-0.0100000000000002
 11
-0.18
 21
-1.28
 31
-0.1200000000000001
 12
-0.18
 22
-1.3300000000000001
 32
-0.1200000000000001
 13
-0.18
 23
-1.3300000000000001
 33
-0.0100000000000002
  0
3DFACE
  5
2804
  8
SLEEVE
 10
0.18
 20
-1.3300000000000001
 30
-0.0100000000000002
 11
0.18
 21
-1.3300000000000001
 31
-0.1200000000000001
 12
0.18
 22
-1.28
 32
-0.1200000000000001
 13
0.18
 23
-0.3600000000000001
 33
-0.0100000000000002
  0
3DFACE
  5
2805
  8
SLEEVE
 10
0.17
 20
-0.3600000000000001
 30
-0.0100000000000002
 11
0.17
 21
-1.28
 31
-0.1200000000000001
 12
0.17
 22
-1.3300000000000001
 32
-0.1200000000000001
 13
0.17
 23
-1.3300000000000001
 33
-0.0100000000000002
  0
3DFACE
  5
2807
  8
SLEEVE
 10
-0.17
 20
-0.3600000000000001
 30
-0.0099999999999998
 11
-0.1699999999999999
 21
-0.3600000000000001
 31
-0.1600000000000001
 12
-0.1799999999999999
 22
-0.3600000000000001
 32
-0.1600000000000001
 13
-0.18
 23
-0.3600000000000001
 33
-0.0099999999999998
  0
3DFACE
  5
2808
  8
SLEEVE
 10
0.18
 20
-0.3600000000000001
 30
-0.0099999999999998
 11
0.1800000000000001
 21
-0.3600000000000001
 31
-0.1600000000000001
 12
0.1700000000000001
 22
-0.3600000000000001
 32
-0.1600000000000001
 13
0.17
 23
-0.3600000000000001
 33
-0.0099999999999998
  0
3DFACE
  5
2809
  8
SLEEVE
 10
0.1800000000000001
 20
-0.3600000000000001
 30
-0.1600000000000001
 11
0.1200000000000001
 21
-0.3600000000000001
 31
-0.21
 12
0.1219999999999999
 22
-0.3600000000000001
 32
-0.2000000000000002
 13
0.1700000000000001
 23
-0.3600000000000001
 33
-0.1600000000000001
  0
3DFACE
  5
280A
  8
SLEEVE
 10
-0.1199999999999999
 20
-0.3600000000000001
 30
-0.21
 11
-0.1799999999999999
 21
-0.3600000000000001
 31
-0.1600000000000001
 12
-0.1699999999999999
 22
-0.3600000000000001
 32
-0.1600000000000001
 13
-0.1219999999999997
 23
-0.3600000000000001
 33
-0.2000000000000002
  0
3DFACE
  5
280B
  8
SLEEVE
 10
0.1200000000000001
 20
-0.3600000000000001
 30
-0.21
 11
-0.1199999999999999
 21
-0.3600000000000001
 31
-0.21
 12
-0.1219999999999997
 22
-0.3600000000000001
 32
-0.2000000000000002
 13
0.1219999999999999
 23
-0.3600000000000001
 33
-0.2000000000000002
  0
3DFACE
  5
280C
  8
SLEEVE
 10
-0.1272792206135786
 20
-0.3600000000000001
 30
-0.1272792206135787
 11
0.0
 21
-0.3600000000000001
 31
-0.1799999999999997
 12
0.0
 22
-0.3600000000000001
 32
-0.0850000000000009
 13
-0.0601040764008566
 23
-0.3600000000000001
 33
-0.0601040764008563
  0
3DFACE
  5
280D
  8
SLEEVE
 10
-0.0000000000000002
 20
-0.3600000000000001
 30
-0.1799999999999997
 11
0.1272792206135782
 21
-0.3600000000000001
 31
-0.1272792206135782
 12
0.0601040764008569
 22
-0.3600000000000001
 32
-0.0601040764008571
 13
-0.0000000000000004
 23
-0.3600000000000001
 33
-0.085
  0
3DFACE
  5
280E
  8
SLEEVE
 10
0.1272792206135784
 20
-0.3600000000000001
 30
-0.1272792206135787
 11
0.1799999999999995
 21
-0.3600000000000001
 31
0.0
 12
0.0850000000000007
 22
-0.3600000000000001
 32
0.0
 13
0.060104076400856
 23
-0.3600000000000001
 33
-0.0601040764008567
  0
3DFACE
  5
280F
  8
SLEEVE
 10
0.1799999999999999
 20
-0.36
 30
0.0
 11
0.1272792206135782
 21
-0.36
 31
0.1272792206135787
 12
0.0601040764008569
 22
-0.36
 32
0.0601040764008571
 13
0.0849999999999998
 23
-0.36
 33
0.0
  0
3DFACE
  5
2810
  8
SLEEVE
 10
0.1272792206135787
 20
-0.3600000000000001
 30
0.1272792206135787
 11
0.0000000000000001
 21
-0.3600000000000001
 31
0.1799999999999997
 12
0.0000000000000001
 22
-0.3600000000000001
 32
0.0850000000000009
 13
0.0601040764008566
 23
-0.3600000000000001
 33
0.0601040764008563
  0
3DFACE
  5
2811
  8
SLEEVE
 10
0.0
 20
-0.3600000000000001
 30
0.1799999999999997
 11
-0.1272792206135782
 21
-0.3600000000000001
 31
0.1272792206135782
 12
-0.0601040764008569
 22
-0.3600000000000001
 32
0.0601040764008571
 13
0.0000000000000002
 23
-0.3600000000000001
 33
0.085
  0
3DFACE
  5
2812
  8
SLEEVE
 10
-0.1272792206135782
 20
-0.3600000000000001
 30
0.1272792206135787
 11
-0.1799999999999995
 21
-0.3600000000000001
 31
0.0
 12
-0.0850000000000007
 22
-0.3600000000000001
 32
0.0
 13
-0.060104076400856
 23
-0.3600000000000001
 33
0.0601040764008563
  0
3DFACE
  5
2813
  8
SLEEVE
 10
-0.1799999999999999
 20
-0.3600000000000001
 30
0.0000000000000004
 11
-0.1272792206135783
 21
-0.3600000000000001
 31
-0.1272792206135778
 12
-0.0601040764008571
 22
-0.3600000000000001
 32
-0.0601040764008571
 13
-0.0849999999999998
 23
-0.3600000000000001
 33
0.0000000000000004
  0
3DFACE
  5
2827
  8
SLEEVE
 10
0.19
 20
-0.9
 30
0.1399999999999997
 11
0.11
 21
-0.9
 31
0.1399999999999997
 12
0.11
 22
-1.3899999999999999
 32
0.1399999999999997
 13
0.19
 23
-1.3899999999999999
 33
0.1399999999999997
  0
3DFACE
  5
2828
  8
SLEEVE
 10
0.21
 20
-0.9
 30
0.1533333333333329
 11
0.19
 21
-0.9
 31
0.1399999999999997
 12
0.19
 22
-1.3899999999999999
 32
0.1399999999999997
 13
0.21
 23
-1.3899999999999999
 33
0.1533333333333329
  0
3DFACE
  5
2829
  8
SLEEVE
 10
0.21
 20
-0.9
 30
0.1699999999999999
 11
0.21
 21
-0.9
 31
0.1533333333333329
 12
0.21
 22
-1.3899999999999999
 32
0.1533333333333329
 13
0.21
 23
-1.3899999999999999
 33
0.1699999999999999
  0
3DFACE
  5
282A
  8
SLEEVE
 10
0.22
 20
-0.9
 30
0.1699999999999999
 11
0.21
 21
-0.9
 31
0.1699999999999999
 12
0.21
 22
-1.3899999999999999
 32
0.1699999999999999
 13
0.22
 23
-1.3899999999999999
 33
0.1699999999999999
  0
3DFACE
  5
282B
  8
SLEEVE
 10
0.22
 20
-0.9
 30
0.1499999999999999
 11
0.22
 21
-0.9
 31
0.1699999999999999
 12
0.22
 22
-1.3899999999999999
 32
0.1699999999999999
 13
0.22
 23
-1.3899999999999999
 33
0.1499999999999999
  0
3DFACE
  5
282C
  8
SLEEVE
 10
0.19
 20
-0.9
 30
0.1299999999999999
 11
0.22
 21
-0.9
 31
0.1499999999999999
 12
0.22
 22
-1.3899999999999999
 32
0.1499999999999999
 13
0.19
 23
-1.3899999999999999
 33
0.1299999999999999
  0
3DFACE
  5
282D
  8
SLEEVE
 10
0.11
 20
-0.9
 30
0.1299999999999999
 11
0.19
 21
-0.9
 31
0.1299999999999999
 12
0.19
 22
-1.3899999999999999
 32
0.1299999999999999
 13
0.11
 23
-1.3899999999999999
 33
0.1299999999999999
  0
3DFACE
  5
282E
  8
SLEEVE
 10
0.11
 20
-0.9
 30
0.1399999999999997
 11
0.11
 21
-0.9
 31
0.1299999999999999
 12
0.11
 22
-1.3899999999999999
 32
0.1299999999999999
 13
0.11
 23
-1.3899999999999999
 33
0.1399999999999997
  0
3DFACE
  5
282F
  8
SLEEVE
 10
0.11
 20
-1.3899999999999999
 30
0.1399999999999997
 11
0.11
 21
-1.3899999999999999
 31
0.1299999999999999
 12
0.19
 22
-1.3899999999999999
 32
0.1299999999999999
 13
0.19
 23
-1.3899999999999999
 33
0.1399999999999997
  0
3DFACE
  5
2830
  8
SLEEVE
 10
0.19
 20
-1.3899999999999999
 30
0.1399999999999997
 11
0.19
 21
-1.3899999999999999
 31
0.1299999999999999
 12
0.22
 22
-1.3899999999999999
 32
0.1499999999999999
 13
0.21
 23
-1.3899999999999999
 33
0.1533333333333329
  0
3DFACE
  5
2831
  8
SLEEVE
 10
0.21
 20
-1.3899999999999999
 30
0.1533333333333329
 11
0.22
 21
-1.3899999999999999
 31
0.1499999999999999
 12
0.22
 22
-1.3899999999999999
 32
0.1699999999999999
 13
0.21
 23
-1.3899999999999999
 33
0.1699999999999999
  0
3DFACE
  5
2832
  8
SLEEVE
 10
0.19
 20
-0.9
 30
0.1399999999999997
 11
0.19
 21
-0.9
 31
0.1299999999999999
 12
0.11
 22
-0.9
 32
0.1299999999999999
 13
0.11
 23
-0.9
 33
0.1399999999999997
  0
3DFACE
  5
2833
  8
SLEEVE
 10
0.21
 20
-0.9
 30
0.1533333333333329
 11
0.22
 21
-0.9
 31
0.1499999999999999
 12
0.19
 22
-0.9
 32
0.1299999999999999
 13
0.19
 23
-0.9
 33
0.1399999999999997
  0
3DFACE
  5
2834
  8
SLEEVE
 10
0.21
 20
-0.9
 30
0.1699999999999999
 11
0.22
 21
-0.9
 31
0.1699999999999999
 12
0.22
 22
-0.9
 32
0.1499999999999999
 13
0.21
 23
-0.9
 33
0.1533333333333329
  0
3DFACE
  5
2835
  8
SLEEVE
 10
-0.21
 20
-0.9000000000000004
 30
0.1533333333333329
 11
-0.22
 21
-0.9000000000000004
 31
0.1499999999999999
 12
-0.22
 22
-0.9000000000000004
 32
0.1699999999999999
 13
-0.21
 23
-0.9000000000000004
 33
0.1699999999999999
  0
3DFACE
  5
2836
  8
SLEEVE
 10
-0.19
 20
-0.9000000000000004
 30
0.1399999999999997
 11
-0.19
 21
-0.9000000000000004
 31
0.1299999999999999
 12
-0.22
 22
-0.9000000000000004
 32
0.1499999999999999
 13
-0.21
 23
-0.9000000000000004
 33
0.1533333333333329
  0
3DFACE
  5
2837
  8
SLEEVE
 10
-0.11
 20
-0.9000000000000004
 30
0.1399999999999997
 11
-0.11
 21
-0.9000000000000004
 31
0.1299999999999999
 12
-0.19
 22
-0.9000000000000004
 32
0.1299999999999999
 13
-0.19
 23
-0.9000000000000004
 33
0.1399999999999997
  0
3DFACE
  5
2838
  8
SLEEVE
 10
-0.11
 20
-1.3899999999999999
 30
0.1399999999999997
 11
-0.11
 21
-1.3899999999999999
 31
0.1299999999999999
 12
-0.11
 22
-0.9000000000000004
 32
0.1299999999999999
 13
-0.11
 23
-0.9000000000000004
 33
0.1399999999999997
  0
3DFACE
  5
2839
  8
SLEEVE
 10
-0.11
 20
-1.3899999999999999
 30
0.1299999999999999
 11
-0.19
 21
-1.3899999999999999
 31
0.1299999999999999
 12
-0.19
 22
-0.9000000000000004
 32
0.1299999999999999
 13
-0.11
 23
-0.9000000000000004
 33
0.1299999999999999
  0
3DFACE
  5
283A
  8
SLEEVE
 10
-0.19
 20
-1.3899999999999999
 30
0.1299999999999999
 11
-0.22
 21
-1.3899999999999999
 31
0.1499999999999999
 12
-0.22
 22
-0.9000000000000004
 32
0.1499999999999999
 13
-0.19
 23
-0.9000000000000004
 33
0.1299999999999999
  0
3DFACE
  5
283B
  8
SLEEVE
 10
-0.22
 20
-1.3899999999999999
 30
0.1499999999999999
 11
-0.22
 21
-1.3899999999999999
 31
0.1699999999999999
 12
-0.22
 22
-0.9000000000000004
 32
0.1699999999999999
 13
-0.22
 23
-0.9000000000000004
 33
0.1499999999999999
  0
3DFACE
  5
283C
  8
SLEEVE
 10
-0.22
 20
-1.3899999999999999
 30
0.1699999999999999
 11
-0.21
 21
-1.3899999999999999
 31
0.1699999999999999
 12
-0.21
 22
-0.9000000000000004
 32
0.1699999999999999
 13
-0.22
 23
-0.9000000000000004
 33
0.1699999999999999
  0
3DFACE
  5
283D
  8
SLEEVE
 10
-0.21
 20
-1.3899999999999999
 30
0.1699999999999999
 11
-0.21
 21
-1.3899999999999999
 31
0.1533333333333329
 12
-0.21
 22
-0.9000000000000004
 32
0.1533333333333329
 13
-0.21
 23
-0.9000000000000004
 33
0.1699999999999999
  0
3DFACE
  5
283E
  8
SLEEVE
 10
-0.21
 20
-1.3899999999999999
 30
0.1533333333333329
 11
-0.19
 21
-1.3899999999999999
 31
0.1399999999999997
 12
-0.19
 22
-0.9000000000000004
 32
0.1399999999999997
 13
-0.21
 23
-0.9000000000000004
 33
0.1533333333333329
  0
3DFACE
  5
283F
  8
SLEEVE
 10
-0.19
 20
-1.3899999999999999
 30
0.1399999999999997
 11
-0.11
 21
-1.3899999999999999
 31
0.1399999999999997
 12
-0.11
 22
-0.9000000000000004
 32
0.1399999999999997
 13
-0.19
 23
-0.9000000000000004
 33
0.1399999999999997
  0
3DFACE
  5
2846
  8
SLEEVE
 10
-0.21
 20
-1.3899999999999999
 30
0.1699999999999999
 11
-0.22
 21
-1.3899999999999999
 31
0.1699999999999999
 12
-0.22
 22
-1.3899999999999999
 32
0.1499999999999999
 13
-0.21
 23
-1.3899999999999999
 33
0.1533333333333329
  0
3DFACE
  5
2847
  8
SLEEVE
 10
-0.21
 20
-1.3899999999999999
 30
0.1533333333333329
 11
-0.22
 21
-1.3899999999999999
 31
0.1499999999999999
 12
-0.19
 22
-1.3899999999999999
 32
0.1299999999999999
 13
-0.19
 23
-1.3899999999999999
 33
0.1399999999999997
  0
3DFACE
  5
2848
  8
SLEEVE
 10
-0.19
 20
-1.3899999999999999
 30
0.1399999999999997
 11
-0.19
 21
-1.3899999999999999
 31
0.1299999999999999
 12
-0.11
 22
-1.3899999999999999
 32
0.1299999999999999
 13
-0.11
 23
-1.3899999999999999
 33
0.1399999999999997
  0
3DFACE
  5
285B
  8
SLEEVE
 10
-0.17
 20
-0.9300000000000001
 30
-0.0100000000000002
 11
-0.18
 21
-0.9200000000000002
 31
-0.0100000000000002
 12
-0.18
 22
-0.9200000000000002
 32
0.1299999999999999
 13
-0.17
 23
-0.9300000000000001
 33
0.1299999999999999
  0
3DFACE
  5
285C
  8
SLEEVE
 10
-0.18
 20
-0.9200000000000002
 30
-0.0700000000000003
 11
-0.19
 21
-0.9300000000000001
 31
-0.0700000000000003
 12
-0.19
 22
-0.9300000000000001
 32
0.1299999999999999
 13
-0.18
 23
-0.9200000000000002
 33
0.1299999999999999
  0
3DFACE
  5
285D
  8
SLEEVE
 10
-0.19
 20
-0.9300000000000001
 30
-0.0700000000000003
 11
-0.18
 21
-0.94
 31
-0.0700000000000003
 12
-0.18
 22
-0.94
 32
0.1299999999999999
 13
-0.19
 23
-0.9300000000000001
 33
0.1299999999999999
  0
3DFACE
  5
285E
  8
SLEEVE
 10
-0.18
 20
-0.94
 30
-0.0100000000000002
 11
-0.17
 21
-0.9300000000000001
 31
-0.0100000000000002
 12
-0.17
 22
-0.9300000000000001
 32
0.1299999999999999
 13
-0.18
 23
-0.94
 33
0.1299999999999999
  0
3DFACE
  5
285F
  8
SLEEVE
 10
-0.18
 20
-0.94
 30
-0.0700000000000003
 11
-0.18
 21
-0.94
 31
-0.0700000000000003
 12
-0.19
 22
-0.9300000000000001
 32
-0.0700000000000003
 13
-0.18
 23
-0.9200000000000002
 33
-0.0700000000000003
  0
3DFACE
  5
2860
  8
SLEEVE
 10
0.18
 20
-0.9200000000000002
 30
-0.0700000000000003
 11
0.18
 21
-0.9200000000000002
 31
-0.0700000000000003
 12
0.19
 22
-0.9300000000000001
 32
-0.0700000000000003
 13
0.18
 23
-0.94
 33
-0.0700000000000003
  0
3DFACE
  5
2861
  8
SLEEVE
 10
0.18
 20
-0.9200000000000002
 30
-0.0100000000000002
 11
0.17
 21
-0.9300000000000001
 31
-0.0100000000000002
 12
0.17
 22
-0.9300000000000001
 32
0.1299999999999999
 13
0.18
 23
-0.9200000000000002
 33
0.1299999999999999
  0
3DFACE
  5
2862
  8
SLEEVE
 10
0.17
 20
-0.9300000000000001
 30
-0.0100000000000002
 11
0.18
 21
-0.94
 31
-0.0100000000000002
 12
0.18
 22
-0.94
 32
0.1299999999999999
 13
0.17
 23
-0.9300000000000001
 33
0.1299999999999999
  0
3DFACE
  5
2863
  8
SLEEVE
 10
0.19
 20
-0.9300000000000001
 30
-0.0700000000000003
 11
0.18
 21
-0.9200000000000002
 31
-0.0700000000000003
 12
0.18
 22
-0.9200000000000002
 32
0.1299999999999999
 13
0.19
 23
-0.9300000000000001
 33
0.1299999999999999
  0
3DFACE
  5
2864
  8
SLEEVE
 10
0.18
 20
-0.94
 30
-0.0700000000000003
 11
0.19
 21
-0.9300000000000001
 31
-0.0700000000000003
 12
0.19
 22
-0.9300000000000001
 32
0.1299999999999999
 13
0.18
 23
-0.94
 33
0.1299999999999999
  0
3DFACE
  5
2865
  8
SLEEVE
 10
0.18
 20
-1.3
 30
-0.0700000000000003
 11
0.18
 21
-1.3
 31
-0.0700000000000003
 12
0.19
 22
-1.3100000000000001
 32
-0.0700000000000003
 13
0.18
 23
-1.3200000000000001
 33
-0.0700000000000003
  0
3DFACE
  5
2866
  8
SLEEVE
 10
-0.18
 20
-1.3200000000000001
 30
-0.0700000000000003
 11
-0.18
 21
-1.3200000000000001
 31
-0.0700000000000003
 12
-0.19
 22
-1.3100000000000001
 32
-0.0700000000000003
 13
-0.18
 23
-1.3
 33
-0.0700000000000003
  0
3DFACE
  5
2867
  8
SLEEVE
 10
0.18
 20
-1.3
 30
-0.0100000000000002
 11
0.17
 21
-1.3100000000000001
 31
-0.0100000000000002
 12
0.17
 22
-1.3100000000000001
 32
0.1299999999999999
 13
0.18
 23
-1.3
 33
0.1299999999999999
  0
3DFACE
  5
2868
  8
SLEEVE
 10
0.17
 20
-1.3100000000000001
 30
-0.0100000000000002
 11
0.18
 21
-1.3200000000000001
 31
-0.0100000000000002
 12
0.18
 22
-1.3200000000000001
 32
0.1299999999999999
 13
0.17
 23
-1.3100000000000001
 33
0.1299999999999999
  0
3DFACE
  5
2869
  8
SLEEVE
 10
0.19
 20
-1.3100000000000001
 30
-0.0700000000000003
 11
0.18
 21
-1.3
 31
-0.0700000000000003
 12
0.18
 22
-1.3
 32
0.1299999999999999
 13
0.19
 23
-1.3100000000000001
 33
0.1299999999999999
  0
3DFACE
  5
286A
  8
SLEEVE
 10
0.18
 20
-1.3200000000000001
 30
-0.0700000000000003
 11
0.19
 21
-1.3100000000000001
 31
-0.0700000000000003
 12
0.19
 22
-1.3100000000000001
 32
0.1299999999999999
 13
0.18
 23
-1.3200000000000001
 33
0.1299999999999999
  0
3DFACE
  5
286B
  8
SLEEVE
 10
-0.18
 20
-1.3200000000000001
 30
-0.0100000000000002
 11
-0.17
 21
-1.3100000000000001
 31
-0.0100000000000002
 12
-0.17
 22
-1.3100000000000001
 32
0.1299999999999999
 13
-0.18
 23
-1.3200000000000001
 33
0.1299999999999999
  0
3DFACE
  5
286C
  8
SLEEVE
 10
-0.17
 20
-1.3100000000000001
 30
-0.0100000000000002
 11
-0.18
 21
-1.3
 31
-0.0100000000000002
 12
-0.18
 22
-1.3
 32
0.1299999999999999
 13
-0.17
 23
-1.3100000000000001
 33
0.1299999999999999
  0
3DFACE
  5
286D
  8
SLEEVE
 10
-0.19
 20
-1.3100000000000001
 30
-0.0700000000000003
 11
-0.18
 21
-1.3200000000000001
 31
-0.0700000000000003
 12
-0.18
 22
-1.3200000000000001
 32
0.1299999999999999
 13
-0.19
 23
-1.3100000000000001
 33
0.1299999999999999
  0
3DFACE
  5
286E
  8
SLEEVE
 10
-0.18
 20
-1.3
 30
-0.0700000000000003
 11
-0.19
 21
-1.3100000000000001
 31
-0.0700000000000003
 12
-0.19
 22
-1.3100000000000001
 32
0.1299999999999999
 13
-0.18
 23
-1.3
 33
0.1299999999999999
  0
VIEWPORT
  5
2E
 67
     1
  8
0
 10
144.7270812988281
 20
101.2295806407928
 30
0.0
 40
391.13550988316581
 41
222.15178063964839
 68
     2
 69
     1
1001
ACAD
1000
MVIEW
1002
{
1070
    16
1010
0.0
1020
0.0
1030
0.0
1010
0.0
1020
0.0
1030
1.0
1040
0.0
1040
222.15178063964839
1040
144.7270812988281
1040
101.2295806407928
1040
50.0
1040
0.0
1040
0.0
1070
     0
1070
   100
1070
     1
1070
     1
1070
     0
1070
     0
1070
     0
1070
     0
1040
0.0
1040
0.0
1040
0.0
1040
10.0
1040
10.0
1040
10.0
1040
10.0
1070
     0
1002
{
1002
}
1002
}
  0
VIEWPORT
  5
30
 67
     1
  8
0
 10
139.22375631332389
 20
100.8062499761581
 30
0.0
 40
222.75801010131829
 41
161.289999961853
 68
     1
 69
     2
1001
ACAD
1000
MVIEW
1002
{
1070
    16
1010
0.0
1020
0.0
1030
0.0
1010
0.0
1020
0.0
1030
1.0
1040
0.0
1040
307.49010134148989
1040
210.0
1040
148.5
1040
50.0
1040
0.0
1040
0.0
1070
     0
1070
   100
1070
     1
1070
     3
1070
     0
1070
     1
1070
     0
1070
     0
1040
0.0
1040
0.0
1040
0.0
1040
10.0
1040
10.0
1040
10.0
1040
10.0
1070
     0
1002
{
1002
}
1002
}
  0
ENDSEC
  0
EOF
