  0
SECTION
  2
HEADER
  9
$ACADVER
  1
AC1009
  9
$INSBASE
 10
0.0
 20
0.0
 30
0.0
  9
$EXTMIN
 10
-1.6399999999999999
 20
-5.1200000000000001
 30
-11.088471999999999
  9
$EXTMAX
 10
18.48
 20
21.155999999999999
 30
14.24874720234604
  9
$LIMMIN
 10
0.0
 20
0.0
  9
$LIMMAX
 10
420.0
 20
297.0
  9
$ORTHOMODE
 70
     1
  9
$REGENMODE
 70
     1
  9
$FILLMODE
 70
     1
  9
$QTEXTMODE
 70
     0
  9
$MIRRTEXT
 70
     1
  9
$DRAGMODE
 70
     2
  9
$LTSCALE
 40
1.0
  9
$OSMODE
 70
   559
  9
$ATTMODE
 70
     1
  9
$TEXTSIZE
 40
2.5
  9
$TRACEWID
 40
1.0
  9
$TEXTSTYLE
  7
STANDARD
  9
$CLAYER
  8
TURRET
  9
$CELTYPE
  6
BYLAYER
  9
$CECOLOR
 62
   256
  9
$DIMSCALE
 40
1.0
  9
$DIMASZ
 40
2.5
  9
$DIMEXO
 40
0.625
  9
$DIMDLI
 40
3.75
  9
$DIMRND
 40
0.0
  9
$DIMDLE
 40
0.0
  9
$DIMEXE
 40
1.25
  9
$DIMTP
 40
0.0
  9
$DIMTM
 40
0.0
  9
$DIMTXT
 40
2.5
  9
$DIMCEN
 40
2.5
  9
$DIMTSZ
 40
0.0
  9
$DIMTOL
 70
     0
  9
$DIMLIM
 70
     0
  9
$DIMTIH
 70
     0
  9
$DIMTOH
 70
     0
  9
$DIMSE1
 70
     0
  9
$DIMSE2
 70
     0
  9
$DIMTAD
 70
     1
  9
$DIMZIN
 70
     8
  9
$DIMBLK
  1

  9
$DIMASO
 70
     1
  9
$DIMSHO
 70
     1
  9
$DIMPOST
  1

  9
$DIMAPOST
  1

  9
$DIMALT
 70
     0
  9
$DIMALTD
 70
     3
  9
$DIMALTF
 40
0.03937007874016
  9
$DIMLFAC
 40
1.0
  9
$DIMTOFL
 70
     1
  9
$DIMTVP
 40
0.0
  9
$DIMTIX
 70
     0
  9
$DIMSOXD
 70
     0
  9
$DIMSAH
 70
     0
  9
$DIMBLK1
  1

  9
$DIMBLK2
  1

  9
$DIMSTYLE
  2
ISO-25
  9
$DIMCLRD
 70
     0
  9
$DIMCLRE
 70
     0
  9
$DIMCLRT
 70
     0
  9
$DIMTFAC
 40
1.0
  9
$DIMGAP
 40
0.625
  9
$LUNITS
 70
     2
  9
$LUPREC
 70
     4
  9
$SKETCHINC
 40
1.0
  9
$FILLETRAD
 40
10.0
  9
$AUNITS
 70
     0
  9
$AUPREC
 70
     0
  9
$MENU
  1
.
  9
$ELEVATION
 40
0.0
  9
$PELEVATION
 40
0.0
  9
$THICKNESS
 40
0.0
  9
$LIMCHECK
 70
     0
  9
$BLIPMODE
 70
     0
  9
$CHAMFERA
 40
10.0
  9
$CHAMFERB
 40
10.0
  9
$SKPOLY
 70
     0
  9
$TDCREATE
 40
2455131.8114775
  9
$TDUPDATE
 40
2455132.8464619671
  9
$TDINDWG
 40
0.2432984259
  9
$TDUSRTIMER
 40
0.2432984259
  9
$USRTIMER
 70
     1
  9
$ANGBASE
 50
0.0
  9
$ANGDIR
 70
     0
  9
$PDMODE
 70
     0
  9
$PDSIZE
 40
0.0
  9
$PLINEWID
 40
0.0
  9
$COORDS
 70
     1
  9
$SPLFRAME
 70
     0
  9
$SPLINETYPE
 70
     6
  9
$SPLINESEGS
 70
     8
  9
$ATTDIA
 70
     1
  9
$ATTREQ
 70
     1
  9
$HANDLING
 70
-16383
  9
$HANDSEED
  5
955
  9
$SURFTAB1
 70
     6
  9
$SURFTAB2
 70
     6
  9
$SURFTYPE
 70
     6
  9
$SURFU
 70
     6
  9
$SURFV
 70
     6
  9
$UCSNAME
  2

  9
$UCSORG
 10
0.0
 20
0.0
 30
0.0
  9
$UCSXDIR
 10
0.0
 20
-1.0
 30
0.0
  9
$UCSYDIR
 10
0.0
 20
0.0
 30
1.0
  9
$PUCSNAME
  2

  9
$PUCSORG
 10
0.0
 20
0.0
 30
0.0
  9
$PUCSXDIR
 10
1.0
 20
0.0
 30
0.0
  9
$PUCSYDIR
 10
0.0
 20
1.0
 30
0.0
  9
$USERI1
 70
     0
  9
$USERI2
 70
     0
  9
$USERI3
 70
     0
  9
$USERI4
 70
     0
  9
$USERI5
 70
     0
  9
$USERR1
 40
0.0
  9
$USERR2
 40
0.0
  9
$USERR3
 40
0.0
  9
$USERR4
 40
0.0
  9
$USERR5
 40
0.0
  9
$WORLDVIEW
 70
     1
  9
$SHADEDGE
 70
     3
  9
$SHADEDIF
 70
    70
  9
$TILEMODE
 70
     1
  9
$MAXACTVP
 70
    64
  9
$PLIMCHECK
 70
     0
  9
$PEXTMIN
 10
27.844751262664801
 20
20.161249995231621
 30
0.0
  9
$PEXTMAX
 10
250.60276136398309
 20
181.4512499570846
 30
0.0
  9
$PLIMMIN
 10
-3.757080078125
 20
-3.7570831775665279
  9
$PLIMMAX
 10
293.21124267578119
 20
206.21624445915219
  9
$UNITMODE
 70
     0
  9
$VISRETAIN
 70
     1
  9
$PLINEGEN
 70
     0
  9
$PSLTSCALE
 70
     1
  0
ENDSEC
  0
SECTION
  2
TABLES
  0
TABLE
  2
VPORT
 70
    19
  0
VPORT
  2
*ACTIVE
 70
     0
 10
0.0
 20
0.0
 11
1.0
 21
1.0
 12
0.0089837443064198
 22
-6.6354316952011017
 13
0.0
 23
0.0
 14
0.01
 24
0.01
 15
1.0
 25
1.0
 16
-1.0
 26
0.0
 36
0.0
 17
0.0
 27
0.0
 37
0.0
 40
50.091870780467147
 41
1.7606679035250461
 42
50.0
 43
0.0
 44
0.0
 50
0.0
 51
0.0
 71
     0
 72
   100
 73
     1
 74
     3
 75
     1
 76
     1
 77
     0
 78
     0
  0
ENDTAB
  0
TABLE
  2
LTYPE
 70
     1
  0
LTYPE
  2
CONTINUOUS
 70
     0
  3
Solid line
 72
    65
 73
     0
 40
0.0
  0
ENDTAB
  0
TABLE
  2
LAYER
 70
     7
  0
LAYER
  2
0
 70
     0
 62
     7
  6
CONTINUOUS
  0
LAYER
  2
DRAWING
 70
     0
 62
     9
  6
CONTINUOUS
  0
LAYER
  2
WHEELS
 70
     0
 62
     2
  6
CONTINUOUS
  0
LAYER
  2
TURRET
 70
     0
 62
     2
  6
CONTINUOUS
  0
LAYER
  2
BUFFER
 70
     0
 62
     1
  6
CONTINUOUS
  0
LAYER
  2
ARM
 70
     0
 62
     3
  6
CONTINUOUS
  0
LAYER
  2
CABLES
 70
     0
 62
     5
  6
CONTINUOUS
  0
ENDTAB
  0
TABLE
  2
STYLE
 70
     1
  0
STYLE
  2
STANDARD
 70
     0
 40
0.0
 41
1.0
 50
0.0
 71
     0
 42
2.5
  3
txt
  4

  0
ENDTAB
  0
TABLE
  2
VIEW
 70
     0
  0
ENDTAB
  0
TABLE
  2
UCS
 70
     0
  0
ENDTAB
  0
TABLE
  2
APPID
 70
     1
  0
APPID
  2
ACAD
 70
     0
  0
ENDTAB
  0
TABLE
  2
DIMSTYLE
 70
     1
  0
DIMSTYLE
  2
ISO-25
 70
     0
  3

  4

  5

  6

  7

 40
1.0
 41
2.5
 42
0.625
 43
3.75
 44
1.25
 45
0.0
 46
0.0
 47
0.0
 48
0.0
140
2.5
141
2.5
142
0.0
143
0.03937007874016
144
1.0
145
0.0
146
1.0
147
0.625
 71
     0
 72
     0
 73
     0
 74
     0
 75
     0
 76
     0
 77
     1
 78
     8
170
     0
171
     3
172
     1
173
     0
174
     0
175
     0
176
     0
177
     0
178
     0
  0
ENDTAB
  0
ENDSEC
  0
SECTION
  2
BLOCKS
  0
BLOCK
  8
0
  2
$MODEL_SPACE
 70
     0
 10
0.0
 20
0.0
 30
0.0
  3
$MODEL_SPACE
  1

  0
ENDBLK
  5
21
  8
0
  0
BLOCK
 67
     1
  8
0
  2
$PAPER_SPACE
 70
     0
 10
0.0
 20
0.0
 30
0.0
  3
$PAPER_SPACE
  1

  0
ENDBLK
  5
1D
 67
     1
  8
0
  0
ENDSEC
  0
SECTION
  2
ENTITIES
  0
3DFACE
  5
2E5
  8
TURRET
 10
1.6399999999999999
 20
1.339999999999999
 30
3.149999999999999
 11
1.6399999999999999
 21
1.339999999999999
 31
1.6599999999999999
 12
-1.639999999999999
 22
1.3400000000000001
 32
1.6599999999999999
 13
-1.639999999999999
 23
1.3400000000000001
 33
3.149999999999999
  0
3DFACE
  5
2E6
  8
TURRET
 10
-1.639999999999999
 20
1.3400000000000001
 30
3.149999999999999
 11
-1.639999999999999
 21
1.3400000000000001
 31
1.6599999999999999
 12
-1.6399999999999999
 22
-2.2999999999999998
 32
1.6599999999999999
 13
-1.6399999999999999
 23
-2.2999999999999998
 33
3.149999999999999
  0
3DFACE
  5
2E7
  8
TURRET
 10
1.639999999999999
 20
-2.2999999999999998
 30
1.6599999999999999
 11
1.6399999999999999
 21
1.339999999999999
 31
1.6599999999999999
 12
1.6399999999999999
 22
1.339999999999999
 32
3.149999999999999
 13
1.639999999999999
 23
-2.2999999999999998
 33
3.149999999999999
  0
3DFACE
  5
2EA
  8
TURRET
 10
-1.6399999999999999
 20
-2.2999999999999998
 30
1.6599999999999999
 11
-1.639999999999999
 21
1.3400000000000001
 31
1.6599999999999999
 12
1.6399999999999999
 22
1.339999999999999
 32
1.6599999999999999
 13
1.639999999999999
 23
-2.2999999999999998
 33
1.6599999999999999
  0
3DFACE
  5
2F1
  8
TURRET
 10
1.619999999999999
 20
-1.1399999999999999
 30
3.149999999999999
 11
1.6200000000000001
 21
-0.4900000000000003
 31
3.149999999999999
 12
1.6200000000000001
 22
-0.4900000000000003
 32
4.129999999999999
 13
1.619999999999999
 23
-1.1399999999999999
 33
4.129999999999999
  0
3DFACE
  5
2F2
  8
TURRET
 10
-1.6200000000000001
 20
-0.4899999999999998
 30
4.129999999999999
 11
-1.6200000000000001
 21
-0.4899999999999998
 31
3.149999999999999
 12
-1.6200000000000001
 22
-1.1399999999999999
 32
3.149999999999999
 13
-1.6200000000000001
 23
-1.1399999999999999
 33
4.129999999999999
  0
3DFACE
  5
2F7
  8
TURRET
 10
-1.6399999999999999
 20
-0.3799999999999998
 30
4.129999999999999
 11
-1.6399999999999999
 21
-0.3799999999999998
 31
3.149999999999999
 12
-1.6399999999999999
 22
-0.4900000000000003
 32
3.149999999999999
 13
-1.6399999999999999
 23
-0.4900000000000003
 33
4.129999999999999
  0
3DFACE
  5
2F9
  8
TURRET
 10
1.6399999999999999
 20
-0.4900000000000007
 30
3.149999999999999
 11
1.6399999999999999
 21
-0.3800000000000002
 31
3.149999999999999
 12
1.6399999999999999
 22
-0.3800000000000002
 32
4.129999999999999
 13
1.6399999999999999
 23
-0.4900000000000007
 33
4.129999999999999
  0
3DFACE
  5
2FE
  8
TURRET
 10
-1.6399999999999999
 20
0.3800000000000003
 30
4.129999999999999
 11
-1.6399999999999999
 21
0.3800000000000003
 31
3.149999999999999
 12
-1.6399999999999999
 22
0.2699999999999999
 32
3.149999999999999
 13
-1.6399999999999999
 23
0.2699999999999999
 33
4.129999999999999
  0
3DFACE
  5
301
  8
TURRET
 10
1.6399999999999999
 20
0.2699999999999995
 30
3.149999999999999
 11
1.6399999999999999
 21
0.3799999999999999
 31
3.149999999999999
 12
1.6399999999999999
 22
0.3799999999999999
 32
4.129999999999999
 13
1.6399999999999999
 23
0.2699999999999995
 33
4.129999999999999
  0
3DFACE
  5
302
  8
TURRET
 10
-1.6200000000000001
 20
0.2700000000000004
 30
4.129999999999999
 11
-1.6200000000000001
 21
0.2700000000000004
 31
3.149999999999999
 12
-1.6200000000000001
 22
-0.3800000000000002
 32
3.149999999999999
 13
-1.6200000000000001
 23
-0.3800000000000002
 33
4.129999999999999
  0
3DFACE
  5
304
  8
TURRET
 10
1.6200000000000001
 20
-0.3800000000000007
 30
3.149999999999999
 11
1.6200000000000001
 21
0.2699999999999999
 31
3.149999999999999
 12
1.6200000000000001
 22
0.2699999999999999
 32
4.129999999999999
 13
1.6200000000000001
 23
-0.3800000000000007
 33
4.129999999999999
  0
3DFACE
  5
30C
  8
TURRET
 10
1.6200000000000001
 20
0.3799999999999994
 30
3.149999999999999
 11
1.6200000000000001
 21
1.03
 31
3.149999999999999
 12
1.6200000000000001
 22
1.03
 32
4.129999999999999
 13
1.6200000000000001
 23
0.3799999999999994
 33
4.129999999999999
  0
3DFACE
  5
30E
  8
TURRET
 10
-1.619999999999999
 20
1.03
 30
4.129999999999999
 11
-1.619999999999999
 21
1.03
 31
3.149999999999999
 12
-1.6200000000000001
 22
0.3799999999999998
 32
3.149999999999999
 13
-1.6200000000000001
 23
0.3799999999999998
 33
4.129999999999999
  0
3DFACE
  5
30F
  8
TURRET
 10
1.6399999999999999
 20
1.0299999999999989
 30
3.149999999999999
 11
1.6399999999999999
 21
1.339999999999999
 31
3.149999999999999
 12
1.6399999999999999
 22
1.2499999999999989
 32
4.3099999999999996
 13
1.6399999999999999
 23
1.0299999999999989
 33
4.3099999999999996
  0
3DFACE
  5
311
  8
TURRET
 10
-0.5100000000000002
 20
1.25
 30
4.3099999999999996
 11
-0.509999999999998
 21
1.339999999999999
 31
3.149999999999999
 12
-1.639999999999999
 22
1.3400000000000001
 32
3.149999999999999
 13
-1.639999999999999
 23
1.25
 33
4.3099999999999996
  0
3DFACE
  5
312
  8
TURRET
 10
-1.639999999999999
 20
1.25
 30
4.3099999999999996
 11
-1.639999999999999
 21
1.3400000000000001
 31
3.149999999999999
 12
-1.639999999999999
 22
1.03
 32
3.149999999999999
 13
-1.639999999999999
 23
1.03
 33
4.3099999999999996
  0
3DFACE
  5
31B
  8
TURRET
 10
1.639999999999999
 20
-2.2999999999999998
 30
4.129999999999999
 11
1.6399999999999999
 21
1.0299999999999989
 31
4.129999999999999
 12
1.6399999999999999
 22
1.0299999999999989
 32
4.3099999999999996
 13
1.639999999999999
 23
-2.2999999999999998
 33
4.3099999999999996
  0
3DFACE
  5
31C
  8
TURRET
 10
-1.639999999999999
 20
1.03
 30
4.3099999999999996
 11
-1.639999999999999
 21
1.03
 31
4.129999999999999
 12
-1.6399999999999999
 22
-2.2999999999999998
 32
4.129999999999999
 13
-1.6399999999999999
 23
-2.2999999999999998
 33
4.3099999999999996
  0
3DFACE
  5
322
  8
TURRET
 10
-1.6399999999999999
 20
-1.139999999999999
 30
4.129999999999999
 11
-1.6399999999999999
 21
-1.139999999999999
 31
3.149999999999999
 12
-1.6399999999999999
 22
-2.2999999999999998
 32
3.149999999999999
 13
-1.6399999999999999
 23
-2.2999999999999998
 33
4.129999999999999
  0
3DFACE
  5
325
  8
TURRET
 10
1.639999999999999
 20
-2.2999999999999998
 30
3.149999999999999
 11
1.639999999999999
 21
-1.1399999999999999
 31
3.149999999999999
 12
1.639999999999999
 22
-1.1399999999999999
 32
4.129999999999999
 13
1.639999999999999
 23
-2.2999999999999998
 33
4.129999999999999
  0
3DFACE
  5
329
  8
TURRET
 10
-1.6399999999999999
 20
-2.2999999999999998
 30
4.3099999999999996
 11
-1.6399999999999999
 21
-2.2999999999999998
 31
1.6599999999999999
 12
-0.8500000000000003
 22
-2.5800000000000001
 32
1.6599999999999999
 13
-0.8500000000000003
 23
-2.5800000000000001
 33
5.0300000000000002
  0
3DFACE
  5
32B
  8
TURRET
 10
0.8499999999999996
 20
-2.5800000000000001
 30
1.6599999999999999
 11
1.639999999999999
 21
-2.2999999999999998
 31
1.6599999999999999
 12
1.639999999999999
 22
-2.2999999999999998
 32
4.3099999999999996
 13
0.8499999999999996
 23
-2.5800000000000001
 33
5.0300000000000002
  0
3DFACE
  5
32D
  8
TURRET
 10
-0.8500000000000003
 20
-2.5800000000000001
 30
1.6599999999999999
 11
-1.6399999999999999
 21
-2.2999999999999998
 31
1.6599999999999999
 12
1.639999999999999
 22
-2.2999999999999998
 32
1.6599999999999999
 13
0.8499999999999996
 23
-2.5800000000000001
 33
1.6599999999999999
  0
3DFACE
  5
334
  8
TURRET
 10
-0.8500000000000003
 20
-2.5800000000000001
 30
1.6599999999999999
 11
-0.1400000000000004
 21
-2.7599999999999998
 31
1.6599999999999999
 12
-0.1400000000000004
 22
-2.7599999999999998
 32
5.5
 13
-0.8500000000000003
 23
-2.5800000000000001
 33
5.0300000000000002
  0
3DFACE
  5
335
  8
TURRET
 10
0.8499999999999996
 20
-2.5800000000000001
 30
1.6599999999999999
 11
0.1399999999999998
 21
-2.7599999999999998
 31
1.6599999999999999
 12
-0.1400000000000004
 22
-2.7599999999999998
 32
1.6599999999999999
 13
-0.8500000000000003
 23
-2.5800000000000001
 33
1.6599999999999999
  0
3DFACE
  5
337
  8
TURRET
 10
-0.1400000000000004
 20
-2.7599999999999998
 30
5.5
 11
-0.1400000000000004
 21
-2.7599999999999998
 31
1.6599999999999999
 12
0.1399999999999998
 22
-2.7599999999999998
 32
1.6599999999999999
 13
0.1399999999999998
 23
-2.7599999999999998
 33
5.5
  0
3DFACE
  5
338
  8
TURRET
 10
0.1399999999999998
 20
-2.7599999999999998
 30
5.5
 11
0.1399999999999998
 21
-2.7599999999999998
 31
1.6599999999999999
 12
0.8499999999999996
 22
-2.5800000000000001
 32
1.6599999999999999
 13
0.8499999999999996
 23
-2.5800000000000001
 33
5.0300000000000002
  0
3DFACE
  5
33C
  8
TURRET
 10
1.6200000000000001
 20
-0.4900000000000003
 30
3.149999999999999
 11
1.6399999999999999
 21
-0.4900000000000007
 31
3.149999999999999
 12
1.6399999999999999
 22
-0.4900000000000007
 32
4.129999999999999
 13
1.6200000000000001
 23
-0.4900000000000003
 33
4.129999999999999
  0
3DFACE
  5
33D
  8
TURRET
 10
1.639999999999999
 20
-1.1399999999999999
 30
3.149999999999999
 11
1.6399999999999999
 21
-0.4900000000000007
 31
3.149999999999999
 12
1.6200000000000001
 22
-0.4900000000000003
 32
3.149999999999999
 13
1.619999999999999
 23
-1.1399999999999999
 33
3.149999999999999
  0
3DFACE
  5
33E
  8
TURRET
 10
1.619999999999999
 20
-1.1399999999999999
 30
4.129999999999999
 11
1.6200000000000001
 21
-0.4900000000000003
 31
4.129999999999999
 12
1.6399999999999999
 22
-0.4900000000000007
 32
4.129999999999999
 13
1.639999999999999
 23
-1.1399999999999999
 33
4.129999999999999
  0
3DFACE
  5
33F
  8
TURRET
 10
1.619999999999999
 20
-1.1399999999999999
 30
3.149999999999999
 11
1.619999999999999
 21
-1.1399999999999999
 31
4.129999999999999
 12
1.639999999999999
 22
-1.140000000000001
 32
4.129999999999999
 13
1.639999999999999
 23
-1.1399999999999999
 33
3.149999999999999
  0
3DFACE
  5
340
  8
TURRET
 10
1.6200000000000001
 20
-0.3800000000000007
 30
3.149999999999999
 11
1.6200000000000001
 21
-0.3800000000000007
 31
4.129999999999999
 12
1.6399999999999999
 22
-0.3800000000000011
 32
4.129999999999999
 13
1.6399999999999999
 23
-0.3800000000000002
 33
3.149999999999999
  0
3DFACE
  5
341
  8
TURRET
 10
1.6200000000000001
 20
0.2699999999999999
 30
3.149999999999999
 11
1.6399999999999999
 21
0.2699999999999995
 31
3.149999999999999
 12
1.6399999999999999
 22
0.2699999999999995
 32
4.129999999999999
 13
1.6200000000000001
 23
0.2699999999999999
 33
4.129999999999999
  0
3DFACE
  5
342
  8
TURRET
 10
1.6399999999999999
 20
-0.3800000000000002
 30
3.149999999999999
 11
1.6399999999999999
 21
0.2699999999999995
 31
3.149999999999999
 12
1.6200000000000001
 22
0.2699999999999999
 32
3.149999999999999
 13
1.6200000000000001
 23
-0.3800000000000007
 33
3.149999999999999
  0
3DFACE
  5
343
  8
TURRET
 10
1.6200000000000001
 20
-0.3800000000000007
 30
4.129999999999999
 11
1.6200000000000001
 21
0.2699999999999999
 31
4.129999999999999
 12
1.6399999999999999
 22
0.2699999999999995
 32
4.129999999999999
 13
1.6399999999999999
 23
-0.3800000000000002
 33
4.129999999999999
  0
3DFACE
  5
344
  8
TURRET
 10
1.6200000000000001
 20
1.03
 30
3.149999999999999
 11
1.6399999999999999
 21
1.0299999999999989
 31
3.149999999999999
 12
1.6399999999999999
 22
1.0299999999999989
 32
4.129999999999999
 13
1.6200000000000001
 23
1.03
 33
4.129999999999999
  0
3DFACE
  5
345
  8
TURRET
 10
1.6200000000000001
 20
0.3799999999999994
 30
3.149999999999999
 11
1.6200000000000001
 21
0.3799999999999994
 31
4.129999999999999
 12
1.6399999999999999
 22
0.3799999999999989
 32
4.129999999999999
 13
1.6399999999999999
 23
0.3799999999999998
 33
3.149999999999999
  0
3DFACE
  5
346
  8
TURRET
 10
1.6399999999999999
 20
0.3799999999999998
 30
3.149999999999999
 11
1.6399999999999999
 21
1.0299999999999989
 31
3.149999999999999
 12
1.6200000000000001
 22
1.03
 32
3.149999999999999
 13
1.6200000000000001
 23
0.3799999999999994
 33
3.149999999999999
  0
3DFACE
  5
347
  8
TURRET
 10
1.6200000000000001
 20
0.3799999999999994
 30
4.129999999999999
 11
1.6200000000000001
 21
1.03
 31
4.129999999999999
 12
1.6399999999999999
 22
1.0299999999999989
 32
4.129999999999999
 13
1.6399999999999999
 23
0.3799999999999998
 33
4.129999999999999
  0
3DFACE
  5
348
  8
TURRET
 10
-1.6399999999999999
 20
-1.1399999999999999
 30
3.149999999999999
 11
-1.6399999999999999
 21
-1.1399999999999999
 31
4.129999999999999
 12
-1.6200000000000001
 22
-1.1399999999999999
 32
4.129999999999999
 13
-1.6200000000000001
 23
-1.139999999999999
 33
3.149999999999999
  0
3DFACE
  5
349
  8
TURRET
 10
-1.6399999999999999
 20
-0.4899999999999998
 30
3.149999999999999
 11
-1.6200000000000001
 21
-0.4900000000000003
 31
3.149999999999999
 12
-1.6200000000000001
 22
-0.4900000000000003
 32
4.129999999999999
 13
-1.6399999999999999
 23
-0.4899999999999998
 33
4.129999999999999
  0
3DFACE
  5
34A
  8
TURRET
 10
-1.6200000000000001
 20
-1.139999999999999
 30
3.149999999999999
 11
-1.6200000000000001
 21
-0.4900000000000003
 31
3.149999999999999
 12
-1.6399999999999999
 22
-0.4899999999999998
 32
3.149999999999999
 13
-1.6399999999999999
 23
-1.1399999999999999
 33
3.149999999999999
  0
3DFACE
  5
34B
  8
TURRET
 10
-1.6399999999999999
 20
-1.1399999999999999
 30
4.129999999999999
 11
-1.6399999999999999
 21
-0.4899999999999998
 31
4.129999999999999
 12
-1.6200000000000001
 22
-0.4900000000000003
 32
4.129999999999999
 13
-1.6200000000000001
 23
-1.139999999999999
 33
4.129999999999999
  0
3DFACE
  5
34C
  8
TURRET
 10
-1.6399999999999999
 20
0.2700000000000004
 30
3.149999999999999
 11
-1.6200000000000001
 21
0.2699999999999999
 31
3.149999999999999
 12
-1.6200000000000001
 22
0.2699999999999999
 32
4.129999999999999
 13
-1.6399999999999999
 23
0.2700000000000004
 33
4.129999999999999
  0
3DFACE
  5
34D
  8
TURRET
 10
-1.6399999999999999
 20
-0.3800000000000003
 30
3.149999999999999
 11
-1.6399999999999999
 21
-0.3800000000000003
 31
4.129999999999999
 12
-1.6200000000000001
 22
-0.3800000000000008
 32
4.129999999999999
 13
-1.6200000000000001
 23
-0.3799999999999999
 33
3.149999999999999
  0
3DFACE
  5
34E
  8
TURRET
 10
-1.6200000000000001
 20
-0.3799999999999999
 30
3.149999999999999
 11
-1.6200000000000001
 21
0.2699999999999999
 31
3.149999999999999
 12
-1.6399999999999999
 22
0.2700000000000004
 32
3.149999999999999
 13
-1.6399999999999999
 23
-0.3800000000000003
 33
3.149999999999999
  0
3DFACE
  5
34F
  8
TURRET
 10
-1.6399999999999999
 20
-0.3800000000000003
 30
4.129999999999999
 11
-1.6399999999999999
 21
0.2700000000000004
 31
4.129999999999999
 12
-1.6200000000000001
 22
0.2699999999999999
 32
4.129999999999999
 13
-1.6200000000000001
 23
-0.3799999999999999
 33
4.129999999999999
  0
3DFACE
  5
350
  8
TURRET
 10
-1.6399999999999999
 20
0.3799999999999998
 30
3.149999999999999
 11
-1.6399999999999999
 21
0.3799999999999998
 31
4.129999999999999
 12
-1.6200000000000001
 22
0.3799999999999994
 32
4.129999999999999
 13
-1.6200000000000001
 23
0.3800000000000002
 33
3.149999999999999
  0
3DFACE
  5
351
  8
TURRET
 10
-1.639999999999999
 20
1.03
 30
3.149999999999999
 11
-1.619999999999999
 21
1.03
 31
3.149999999999999
 12
-1.619999999999999
 22
1.03
 32
4.129999999999999
 13
-1.639999999999999
 23
1.03
 33
4.129999999999999
  0
3DFACE
  5
352
  8
TURRET
 10
-1.6200000000000001
 20
0.3800000000000002
 30
3.149999999999999
 11
-1.619999999999999
 21
1.03
 31
3.149999999999999
 12
-1.639999999999999
 22
1.03
 32
3.149999999999999
 13
-1.6399999999999999
 23
0.3799999999999998
 33
3.149999999999999
  0
3DFACE
  5
353
  8
TURRET
 10
-1.6399999999999999
 20
0.3799999999999998
 30
4.129999999999999
 11
-1.639999999999999
 21
1.03
 31
4.129999999999999
 12
-1.619999999999999
 22
1.03
 32
4.129999999999999
 13
-1.6200000000000001
 23
0.3800000000000002
 33
4.129999999999999
  0
3DFACE
  5
358
  8
TURRET
 10
0.1400000000000016
 20
1.3200000000000001
 30
3.149999999999999
 11
0.1399999999999983
 21
1.243965517241379
 31
4.129999999999999
 12
0.1399999999999983
 22
1.2639655172413791
 32
4.129999999999999
 13
0.1400000000000016
 23
1.339999999999999
 33
3.149999999999999
  0
3DFACE
  5
359
  8
TURRET
 10
-0.5099999999999988
 20
1.3200000000000001
 30
3.149999999999999
 11
-0.509999999999998
 21
1.339999999999999
 31
3.149999999999999
 12
-0.5100000000000012
 22
1.2639655172413791
 32
4.129999999999999
 13
-0.5100000000000021
 23
1.243965517241379
 33
4.129999999999999
  0
3DFACE
  5
35B
  8
TURRET
 10
0.1400000000000016
 20
1.3200000000000001
 30
3.149999999999999
 11
-0.5099999999999988
 21
1.3200000000000001
 31
3.149999999999999
 12
-0.5100000000000021
 22
1.243965517241379
 32
4.129999999999999
 13
0.1399999999999983
 23
1.243965517241379
 33
4.129999999999999
  0
3DFACE
  5
35C
  8
TURRET
 10
0.1400000000000016
 20
1.339999999999999
 30
3.149999999999999
 11
-0.509999999999998
 21
1.339999999999999
 31
3.149999999999999
 12
-0.5099999999999988
 22
1.3200000000000001
 32
3.149999999999999
 13
0.1400000000000016
 23
1.3200000000000001
 33
3.149999999999999
  0
3DFACE
  5
35E
  8
TURRET
 10
0.1399999999999983
 20
1.243965517241379
 30
4.129999999999999
 11
-0.5100000000000021
 21
1.243965517241379
 31
4.129999999999999
 12
-0.5100000000000012
 22
1.2639655172413791
 32
4.129999999999999
 13
0.1399999999999983
 23
1.2639655172413791
 33
4.129999999999999
  0
3DFACE
  5
363
  8
TURRET
 10
1.54
 20
1.3200000000000001
 30
3.149999999999999
 11
0.2800000000000013
 21
1.3200000000000001
 31
3.149999999999999
 12
0.279999999999998
 22
1.243965517241379
 32
4.129999999999999
 13
1.539999999999996
 23
1.243965517241379
 33
4.129999999999999
  0
3DFACE
  5
364
  8
TURRET
 10
0.2800000000000013
 20
1.3200000000000001
 30
3.149999999999999
 11
0.2800000000000022
 21
1.339999999999999
 31
3.149999999999999
 12
0.2799999999999989
 22
1.2639655172413791
 32
4.129999999999999
 13
0.279999999999998
 23
1.243965517241379
 33
4.129999999999999
  0
3DFACE
  5
365
  8
TURRET
 10
1.54
 20
1.3200000000000001
 30
3.149999999999999
 11
1.539999999999996
 21
1.243965517241379
 31
4.129999999999999
 12
1.539999999999996
 22
1.2639655172413791
 32
4.129999999999999
 13
1.54
 23
1.339999999999999
 33
3.149999999999999
  0
3DFACE
  5
366
  8
TURRET
 10
1.54
 20
1.339999999999999
 30
3.149999999999999
 11
0.2800000000000022
 21
1.339999999999999
 31
3.149999999999999
 12
0.2800000000000013
 22
1.3200000000000001
 32
3.149999999999999
 13
1.54
 23
1.3200000000000001
 33
3.149999999999999
  0
3DFACE
  5
367
  8
TURRET
 10
1.539999999999996
 20
1.243965517241379
 30
4.129999999999999
 11
0.279999999999998
 21
1.243965517241379
 31
4.129999999999999
 12
0.2799999999999989
 22
1.2639655172413791
 32
4.129999999999999
 13
1.539999999999996
 23
1.2639655172413791
 33
4.129999999999999
  0
3DFACE
  5
36C
  8
TURRET
 10
1.6399999999999999
 20
1.2499999999999989
 30
4.3099999999999996
 11
1.6400000000000019
 21
1.339999999999999
 31
3.149999999999999
 12
1.54
 22
1.339999999999999
 32
3.149999999999999
 13
1.54
 23
1.2499999999999989
 33
4.3099999999999996
  0
3DFACE
  5
36D
  8
TURRET
 10
0.2800000000000002
 20
1.25
 30
4.3099999999999996
 11
0.2800000000000002
 21
1.339999999999999
 31
3.149999999999999
 12
0.1400000000000003
 22
1.3400000000000001
 32
3.149999999999999
 13
0.1400000000000003
 23
1.25
 33
4.3099999999999996
  0
3DFACE
  5
36E
  8
TURRET
 10
0.1400000000000003
 20
1.25
 30
4.3099999999999996
 11
0.1399999999999983
 21
1.2639655172413791
 31
4.129999999999999
 12
-0.5100000000000015
 22
1.2639655172413791
 32
4.129999999999999
 13
-0.5100000000000015
 23
1.25
 33
4.3099999999999996
  0
3DFACE
  5
36F
  8
TURRET
 10
1.54
 20
1.2499999999999989
 30
4.3099999999999996
 11
1.539999999999996
 21
1.2639655172413791
 31
4.129999999999999
 12
0.279999999999999
 22
1.2639655172413791
 32
4.129999999999999
 13
0.2799999999999989
 23
1.25
 33
4.3099999999999996
  0
3DFACE
  5
382
  8
TURRET
 10
-0.8000000000000002
 20
-0.05
 30
5.5
 11
-0.8000000000000003
 21
-2.592676056338028
 31
5.5
 12
0.7999999999999998
 22
-2.592676056338028
 32
5.5
 13
0.8000000000000002
 23
-0.0500000000000002
 33
5.5
  0
3DFACE
  5
383
  8
TURRET
 10
-1.6399999999999999
 20
-2.2999999999999989
 30
4.3099999999999996
 11
-0.8000000000000003
 21
-2.592676056338028
 31
5.5
 12
-0.8
 22
1.25
 32
5.5
 13
-1.639999999999999
 23
1.25
 33
4.3099999999999996
  0
3DFACE
  5
384
  8
TURRET
 10
0.8000000000000003
 20
1.25
 30
5.5
 11
0.7999999999999989
 21
-2.592676056338028
 31
5.5
 12
1.639999999999999
 22
-2.2999999999999989
 32
4.3099999999999996
 13
1.6399999999999999
 23
1.2499999999999989
 33
4.3099999999999996
  0
3DFACE
  5
387
  8
TURRET
 10
-0.8000000000000003
 20
-2.592676056338028
 30
5.5
 11
-0.1400000000000004
 21
-2.7599999999999998
 31
5.5
 12
0.1399999999999998
 22
-2.7599999999999998
 32
5.5
 13
0.7999999999999989
 23
-2.592676056338028
 33
5.5
  0
3DFACE
  5
38C
  8
TURRET
 10
0.7999999999999989
 20
-2.592676056338028
 30
5.5
 11
0.8499999999999996
 21
-2.5800000000000001
 31
5.0300000000000002
 12
0.8499999999999996
 22
-2.5800000000000001
 32
5.0300000000000002
 13
1.639999999999999
 23
-2.2999999999999998
 33
4.3099999999999996
  0
3DFACE
  5
38D
  8
TURRET
 10
0.7999999999999989
 20
-2.592676056338028
 30
5.5
 11
0.1399999999999998
 21
-2.7599999999999998
 31
5.5
 12
0.1399999999999998
 22
-2.7599999999999998
 32
5.5
 13
0.8499999999999996
 23
-2.5800000000000001
 33
5.0300000000000002
  0
3DFACE
  5
38E
  8
TURRET
 10
-0.8000000000000003
 20
-2.5926760563380271
 30
5.5
 11
-0.8500000000000003
 21
-2.5800000000000001
 31
5.0300000000000002
 12
-0.8500000000000003
 22
-2.5800000000000001
 32
5.0300000000000002
 13
-0.1400000000000004
 23
-2.7599999999999998
 33
5.5
  0
3DFACE
  5
38F
  8
TURRET
 10
-0.8000000000000003
 20
-2.5926760563380271
 30
5.5
 11
-1.6399999999999999
 21
-2.2999999999999989
 31
4.3099999999999996
 12
-1.6399999999999999
 22
-2.2999999999999989
 32
4.3099999999999996
 13
-0.8500000000000003
 23
-2.5800000000000001
 33
5.0300000000000002
  0
3DFACE
  5
392
  8
TURRET
 10
-0.8000000000000002
 20
-0.05
 30
4.3099999999999996
 11
-0.8
 21
-0.0499999999999999
 31
5.5
 12
0.8
 22
-0.0500000000000001
 32
5.5
 13
0.8000000000000002
 23
-0.0500000000000002
 33
4.3099999999999996
  0
3DFACE
  5
393
  8
TURRET
 10
-0.8
 20
1.25
 30
4.3099999999999996
 11
-0.8
 21
-0.0499999999999997
 31
4.3099999999999996
 12
0.8
 22
-0.0499999999999999
 32
4.3099999999999996
 13
0.8000000000000003
 23
1.25
 33
4.3099999999999996
  0
3DFACE
  5
394
  8
TURRET
 10
-0.8000000000000002
 20
1.25
 30
4.3099999999999996
 11
-0.8000000000000002
 21
1.25
 31
5.5
 12
-0.8
 22
-0.0500000000000002
 32
5.5
 13
-0.8
 23
-0.0500000000000002
 33
4.3099999999999996
  0
3DFACE
  5
395
  8
TURRET
 10
0.8
 20
1.25
 30
4.3099999999999996
 11
0.8
 21
-0.0499999999999996
 31
4.3099999999999996
 12
0.8000000000000003
 22
-0.0500000000000002
 32
5.5
 13
0.8000000000000003
 23
1.25
 33
5.5
  0
3DFACE
  5
396
  8
TURRET
 10
-0.8
 20
1.25
 30
5.5
 11
-0.8
 21
1.25
 31
4.3099999999999961
 12
-1.639999999999999
 22
1.25
 32
4.3099999999999961
 13
-0.8000000000000002
 23
1.25
 33
5.5
  0
3DFACE
  5
397
  8
TURRET
 10
0.8000000000000005
 20
1.25
 30
5.5
 11
1.6399999999999999
 21
1.2499999999999989
 31
4.3099999999999996
 12
0.8000000000000003
 22
1.25
 32
4.3099999999999996
 13
0.8000000000000005
 23
1.25
 33
5.5
  0
3DFACE
  5
39A
  8
TURRET
 10
-0.49
 20
0.5900000000000001
 30
5.0300000000000002
 11
-0.49
 21
0.5900000000000001
 31
4.7800000000000002
 12
-0.8
 22
0.5900000000000001
 32
4.7800000000000002
 13
-0.8
 23
0.5900000000000001
 33
5.0300000000000002
  0
3DFACE
  5
39D
  8
TURRET
 10
-0.49
 20
0.3700000000000001
 30
5.0300000000000002
 11
-0.49
 21
0.5900000000000001
 31
5.0300000000000002
 12
-0.8
 22
0.5900000000000001
 32
5.0300000000000002
 13
-0.8
 23
0.3700000000000001
 33
5.0300000000000002
  0
3DFACE
  5
39E
  8
TURRET
 10
-0.8
 20
0.3700000000000001
 30
5.0300000000000002
 11
-0.8
 21
0.3700000000000001
 31
4.7800000000000002
 12
-0.49
 22
0.3700000000000001
 32
4.7800000000000002
 13
-0.49
 23
0.3700000000000001
 33
5.0300000000000002
  0
3DFACE
  5
3A3
  8
TURRET
 10
-0.8
 20
0.3700000000000001
 30
4.7800000000000002
 11
-0.8
 21
0.0100000000000001
 31
4.3099999999999996
 12
-0.4900000000000001
 22
0.0100000000000001
 32
4.3099999999999996
 13
-0.49
 23
0.3700000000000001
 33
4.7800000000000002
  0
3DFACE
  5
3A4
  8
TURRET
 10
-0.4900000000000001
 20
0.0100000000000001
 30
4.3099999999999996
 11
-0.4900000000000001
 21
0.1400000000000001
 31
4.3099999999999996
 12
-0.49
 22
0.4900000000000001
 32
4.6900000000000004
 13
-0.49
 23
0.3700000000000001
 33
4.7800000000000002
  0
3DFACE
  5
3A5
  8
TURRET
 10
-0.49
 20
0.4900000000000001
 30
4.6900000000000004
 11
-0.4900000000000001
 21
0.1400000000000001
 31
4.3099999999999996
 12
-0.8
 22
0.1400000000000001
 32
4.3099999999999996
 13
-0.8
 23
0.4900000000000002
 33
4.6900000000000004
  0
3DFACE
  5
3A9
  8
TURRET
 10
-0.49
 20
0.5700000000000002
 30
4.3099999999999996
 11
-0.4899999999999999
 21
0.7300000000000001
 31
4.3099999999999996
 12
-0.49
 22
0.5900000000000001
 32
4.7800000000000002
 13
-0.49
 23
0.4900000000000001
 33
4.6900000000000004
  0
3DFACE
  5
3AA
  8
TURRET
 10
-0.8
 20
0.4900000000000002
 30
4.6900000000000004
 11
-0.8
 21
0.5700000000000002
 31
4.3099999999999996
 12
-0.49
 22
0.5700000000000002
 32
4.3099999999999996
 13
-0.49
 23
0.4900000000000001
 33
4.6900000000000004
  0
3DFACE
  5
3AC
  8
TURRET
 10
-0.49
 20
0.5900000000000001
 30
4.7800000000000002
 11
-0.4899999999999999
 21
0.7300000000000001
 31
4.3099999999999996
 12
-0.8
 22
0.7300000000000001
 32
4.3099999999999996
 13
-0.8
 23
0.5900000000000001
 33
4.7800000000000002
  0
3DFACE
  5
3B0
  8
TURRET
 10
-0.49
 20
0.4900000000000001
 30
4.6900000000000004
 11
-0.49
 21
0.4900000000000001
 31
4.6900000000000004
 12
-0.49
 22
0.5900000000000001
 32
4.7800000000000002
 13
-0.49
 23
0.3700000000000001
 33
4.7800000000000002
  0
3DFACE
  5
3B2
  8
TURRET
 10
0.4900000000000001
 20
0.5899999999999999
 30
4.7800000000000002
 11
0.4900000000000002
 21
0.7299999999999999
 31
4.3099999999999996
 12
0.4900000000000001
 22
0.57
 32
4.3099999999999996
 13
0.4900000000000001
 23
0.49
 33
4.6900000000000004
  0
3DFACE
  5
3B3
  8
TURRET
 10
0.4900000000000001
 20
0.49
 30
4.6900000000000004
 11
0.4900000000000001
 21
0.57
 31
4.3099999999999996
 12
0.8000000000000002
 22
0.57
 32
4.3099999999999996
 13
0.8000000000000002
 23
0.4899999999999999
 33
4.6900000000000004
  0
3DFACE
  5
3B5
  8
TURRET
 10
0.8000000000000002
 20
0.5899999999999999
 30
4.7800000000000002
 11
0.8000000000000002
 21
0.7299999999999999
 31
4.3099999999999996
 12
0.4900000000000002
 22
0.7299999999999999
 32
4.3099999999999996
 13
0.4900000000000001
 23
0.5899999999999999
 33
4.7800000000000002
  0
3DFACE
  5
3B6
  8
TURRET
 10
0.8000000000000002
 20
0.4899999999999999
 30
4.6900000000000004
 11
0.8
 21
0.1399999999999999
 31
4.3099999999999996
 12
0.4900000000000001
 22
0.1399999999999999
 32
4.3099999999999996
 13
0.4900000000000001
 23
0.49
 33
4.6900000000000004
  0
3DFACE
  5
3B8
  8
TURRET
 10
0.4900000000000001
 20
0.49
 30
4.6900000000000004
 11
0.4900000000000001
 21
0.1399999999999999
 31
4.3099999999999996
 12
0.4900000000000001
 22
0.01
 32
4.3099999999999996
 13
0.4900000000000001
 23
0.3699999999999999
 33
4.7800000000000002
  0
3DFACE
  5
3B9
  8
TURRET
 10
0.4900000000000001
 20
0.3699999999999999
 30
4.7800000000000002
 11
0.4900000000000001
 21
0.01
 31
4.3099999999999996
 12
0.8
 22
0.0099999999999999
 32
4.3099999999999996
 13
0.8
 23
0.3699999999999999
 33
4.7800000000000002
  0
3DFACE
  5
3BA
  8
TURRET
 10
0.4900000000000001
 20
0.5899999999999999
 30
4.7800000000000002
 11
0.4900000000000001
 21
0.49
 31
4.6900000000000004
 12
0.4900000000000001
 22
0.49
 32
4.6900000000000004
 13
0.4900000000000001
 23
0.3699999999999999
 33
4.7800000000000002
  0
3DFACE
  5
3BC
  8
TURRET
 10
0.8
 20
0.3699999999999999
 30
5.0300000000000002
 11
0.8000000000000002
 21
0.5899999999999999
 31
5.0300000000000002
 12
0.4900000000000001
 22
0.5899999999999999
 32
5.0300000000000002
 13
0.4900000000000001
 23
0.3699999999999999
 33
5.0300000000000002
  0
3DFACE
  5
3BE
  8
TURRET
 10
0.8000000000000002
 20
0.5899999999999999
 30
5.0300000000000002
 11
0.8000000000000002
 21
0.5899999999999999
 31
4.7800000000000002
 12
0.4900000000000001
 22
0.5899999999999999
 32
4.7800000000000002
 13
0.4900000000000001
 23
0.5899999999999999
 33
5.0300000000000002
  0
3DFACE
  5
3BF
  8
TURRET
 10
0.4900000000000001
 20
0.3699999999999999
 30
5.0300000000000002
 11
0.4900000000000001
 21
0.3699999999999999
 31
4.7800000000000002
 12
0.8
 22
0.3699999999999999
 32
4.7800000000000002
 13
0.8
 23
0.3699999999999999
 33
5.0300000000000002
  0
3DFACE
  5
3D6
  8
TURRET
 10
-0.4899999999999999
 20
0.7000000000000002
 30
4.9100000000000001
 11
-0.49
 21
0.6326345596729061
 31
5.0726345596729061
 12
0.4900000000000001
 22
0.6326345596729058
 32
5.0726345596729061
 13
0.4900000000000002
 23
0.7
 33
4.9100000000000001
  0
3DFACE
  5
3D7
  8
TURRET
 10
-0.49
 20
0.6326345596729061
 30
5.0726345596729061
 11
-0.49
 21
0.4700000000000001
 31
5.1399999999999997
 12
0.4900000000000001
 22
0.47
 32
5.1399999999999997
 13
0.4900000000000001
 23
0.6326345596729058
 33
5.0726345596729061
  0
3DFACE
  5
3D8
  8
TURRET
 10
-0.49
 20
0.4700000000000001
 30
5.1399999999999997
 11
-0.49
 21
0.3073654403270942
 31
5.0726345596729061
 12
0.4900000000000001
 22
0.307365440327094
 32
5.0726345596729061
 13
0.4900000000000001
 23
0.47
 33
5.1399999999999997
  0
3DFACE
  5
3D9
  8
TURRET
 10
-0.49
 20
0.3073654403270942
 30
5.0726345596729061
 11
-0.49
 21
0.2400000000000001
 31
4.9100000000000001
 12
0.4900000000000001
 22
0.2399999999999999
 32
4.9100000000000001
 13
0.4900000000000001
 23
0.307365440327094
 33
5.0726345596729061
  0
3DFACE
  5
3DA
  8
TURRET
 10
-0.49
 20
0.2400000000000001
 30
4.9100000000000001
 11
-0.49
 21
0.3073654403270941
 31
4.7473654403270942
 12
0.4900000000000001
 22
0.307365440327094
 32
4.7473654403270942
 13
0.4900000000000001
 23
0.2399999999999999
 33
4.9100000000000001
  0
3DFACE
  5
3DB
  8
TURRET
 10
-0.49
 20
0.3073654403270941
 30
4.7473654403270942
 11
-0.49
 21
0.4700000000000001
 31
4.6799999999999988
 12
0.4900000000000001
 22
0.47
 32
4.6799999999999988
 13
0.4900000000000001
 23
0.307365440327094
 33
4.7473654403270942
  0
3DFACE
  5
3DC
  8
TURRET
 10
-0.49
 20
0.4700000000000001
 30
4.6799999999999988
 11
-0.49
 21
0.6326345596729061
 31
4.7473654403270942
 12
0.4900000000000001
 22
0.6326345596729058
 32
4.7473654403270942
 13
0.4900000000000001
 23
0.47
 33
4.6799999999999988
  0
3DFACE
  5
3DD
  8
TURRET
 10
-0.49
 20
0.6326345596729061
 30
4.7473654403270942
 11
-0.4899999999999999
 21
0.7000000000000002
 31
4.9100000000000001
 12
0.4900000000000002
 22
0.7
 32
4.9100000000000001
 13
0.4900000000000001
 23
0.6326345596729058
 33
4.7473654403270942
  0
3DFACE
  5
446
  8
TURRET
 10
-1.149999999999999
 20
1.3400000000000001
 30
2.069999999999999
 11
-1.1100000000000001
 21
1.379999999999999
 31
2.069999999999999
 12
-1.1100000000000001
 22
1.379999999999999
 32
3.151571604280301
 13
-1.149999999999999
 23
1.3400000000000001
 33
3.149999999999999
  0
3DFACE
  5
447
  8
TURRET
 10
-1.1100000000000001
 20
1.379999999999999
 30
2.069999999999999
 11
-1.149999999999999
 21
1.420000000000001
 31
2.069999999999999
 12
-1.149999999999999
 22
1.420000000000001
 32
3.1531432085606128
 13
-1.1100000000000001
 23
1.379999999999999
 33
3.151571604280301
  0
3DFACE
  5
448
  8
TURRET
 10
-1.149999999999999
 20
1.420000000000001
 30
2.069999999999999
 11
-1.1899999999999991
 21
1.379999999999999
 31
2.069999999999999
 12
-1.1899999999999991
 22
1.379999999999999
 32
3.151571604280301
 13
-1.149999999999999
 23
1.420000000000001
 33
3.1531432085606128
  0
3DFACE
  5
449
  8
TURRET
 10
-1.1899999999999991
 20
1.379999999999999
 30
2.069999999999999
 11
-1.149999999999999
 21
1.3400000000000001
 31
2.069999999999999
 12
-1.149999999999999
 22
1.3400000000000001
 32
3.149999999999999
 13
-1.1899999999999991
 23
1.379999999999999
 33
3.151571604280301
  0
3DFACE
  5
44A
  8
TURRET
 10
-1.5600000000000001
 20
1.3400000000000001
 30
2.4099999999999988
 11
-1.52
 21
1.379999999999999
 31
2.3700000000000001
 12
-1.1899999999999991
 22
1.379999999999999
 32
2.3700000000000001
 13
-1.149999999999999
 23
1.3400000000000001
 33
2.4099999999999988
  0
3DFACE
  5
44B
  8
TURRET
 10
-1.52
 20
1.379999999999999
 30
2.3700000000000001
 11
-1.5600000000000001
 21
1.420000000000001
 31
2.4099999999999988
 12
-1.149999999999999
 22
1.420000000000001
 32
2.4099999999999988
 13
-1.1899999999999991
 23
1.379999999999999
 33
2.3700000000000001
  0
3DFACE
  5
44C
  8
TURRET
 10
-1.5600000000000001
 20
1.420000000000001
 30
2.4099999999999988
 11
-1.52
 21
1.379999999999999
 31
2.449999999999998
 12
-1.1899999999999991
 22
1.379999999999999
 32
2.449999999999998
 13
-1.149999999999999
 23
1.420000000000001
 33
2.4099999999999988
  0
3DFACE
  5
44D
  8
TURRET
 10
-1.52
 20
1.379999999999999
 30
2.449999999999998
 11
-1.5600000000000001
 21
1.3400000000000001
 31
2.4099999999999988
 12
-1.149999999999999
 22
1.3400000000000001
 32
2.4099999999999988
 13
-1.1899999999999991
 23
1.379999999999999
 33
2.449999999999998
  0
3DFACE
  5
44E
  8
TURRET
 10
-1.5600000000000001
 20
1.3400000000000001
 30
2.7899999999999991
 11
-1.52
 21
1.379999999999999
 31
2.75
 12
-1.1899999999999991
 22
1.379999999999999
 32
2.75
 13
-1.149999999999999
 23
1.3400000000000001
 33
2.7899999999999991
  0
3DFACE
  5
44F
  8
TURRET
 10
-1.52
 20
1.379999999999999
 30
2.75
 11
-1.5600000000000001
 21
1.420000000000001
 31
2.7899999999999991
 12
-1.149999999999999
 22
1.420000000000001
 32
2.7899999999999991
 13
-1.1899999999999991
 23
1.379999999999999
 33
2.75
  0
3DFACE
  5
450
  8
TURRET
 10
-1.5600000000000001
 20
1.420000000000001
 30
2.7899999999999991
 11
-1.52
 21
1.379999999999999
 31
2.8299999999999979
 12
-1.1899999999999991
 22
1.379999999999999
 32
2.8299999999999979
 13
-1.149999999999999
 23
1.420000000000001
 33
2.7899999999999991
  0
3DFACE
  5
451
  8
TURRET
 10
-1.52
 20
1.379999999999999
 30
2.8299999999999979
 11
-1.5600000000000001
 21
1.3400000000000001
 31
2.7899999999999991
 12
-1.149999999999999
 22
1.3400000000000001
 32
2.7899999999999991
 13
-1.1899999999999991
 23
1.379999999999999
 33
2.8299999999999979
  0
3DFACE
  5
452
  8
TURRET
 10
-1.5600000000000001
 20
1.3400000000000001
 30
3.149999999999999
 11
-1.52
 21
1.379999999999999
 31
3.109999999999999
 12
-1.1899999999999991
 22
1.379999999999999
 32
3.109999999999999
 13
-1.149999999999999
 23
1.3400000000000001
 33
3.149999999999999
  0
3DFACE
  5
453
  8
TURRET
 10
-1.52
 20
1.379999999999999
 30
3.109999999999999
 11
-1.5600000000000001
 21
1.420000000000001
 31
3.149999999999999
 12
-1.149999999999999
 22
1.420000000000001
 32
3.149999999999999
 13
-1.1899999999999991
 23
1.379999999999999
 33
3.109999999999999
  0
3DFACE
  5
454
  8
TURRET
 10
-1.5600000000000001
 20
1.420000000000001
 30
3.149999999999999
 11
-1.52
 21
1.379999999999999
 31
3.1899999999999982
 12
-1.1899999999999991
 22
1.379999999999999
 32
3.1899999999999982
 13
-1.149999999999999
 23
1.420000000000001
 33
3.149999999999999
  0
3DFACE
  5
455
  8
TURRET
 10
-1.52
 20
1.379999999999999
 30
3.1899999999999982
 11
-1.5600000000000001
 21
1.3400000000000001
 31
3.149999999999999
 12
-1.149999999999999
 22
1.3400000000000001
 32
3.149999999999999
 13
-1.1899999999999991
 23
1.379999999999999
 33
3.1899999999999982
  0
3DFACE
  5
456
  8
TURRET
 10
-1.149999999999999
 20
1.3400000000000001
 30
3.149999999999999
 11
-1.1100000000000001
 21
1.379999999999999
 31
3.151571604280301
 12
-1.1100000000000001
 22
1.281802823689518
 32
4.3992850309955234
 13
-1.149999999999999
 23
1.2419261303401929
 33
4.39614666716641
  0
3DFACE
  5
457
  8
TURRET
 10
-1.1100000000000001
 20
1.379999999999999
 30
3.151571604280301
 11
-1.149999999999999
 21
1.420000000000001
 31
3.1531432085606128
 12
-1.149999999999999
 22
1.321679517038846
 32
4.4024233948246367
 13
-1.1100000000000001
 23
1.281802823689518
 33
4.3992850309955234
  0
3DFACE
  5
458
  8
TURRET
 10
-1.149999999999999
 20
1.420000000000001
 30
3.1531432085606128
 11
-1.1899999999999991
 21
1.379999999999999
 31
3.151571604280301
 12
-1.1899999999999991
 22
1.281802823689518
 32
4.3992850309955234
 13
-1.149999999999999
 23
1.321679517038846
 33
4.4024233948246367
  0
3DFACE
  5
459
  8
TURRET
 10
-1.1899999999999991
 20
1.379999999999999
 30
3.151571604280301
 11
-1.149999999999999
 21
1.3400000000000001
 31
3.149999999999999
 12
-1.149999999999999
 22
1.2419261303401929
 32
4.39614666716641
 13
-1.1899999999999991
 23
1.281802823689518
 33
4.3992850309955234
  0
3DFACE
  5
45A
  8
TURRET
 10
-1.5600000000000001
 20
1.3062625888370261
 30
3.578674453505243
 11
-1.52
 21
1.3492776460154641
 31
3.5419361239850331
 12
-1.1899999999999991
 22
1.3492776460154641
 32
3.5419361239850331
 13
-1.149999999999999
 23
1.3062625888370261
 33
3.578674453505243
  0
3DFACE
  5
45B
  8
TURRET
 10
-1.52
 20
1.3492776460154641
 30
3.5419361239850331
 11
-1.5600000000000001
 21
1.3860159755356789
 31
3.5849511811634711
 12
-1.149999999999999
 22
1.3860159755356789
 32
3.5849511811634711
 13
-1.1899999999999991
 23
1.3492776460154641
 33
3.5419361239850331
  0
3DFACE
  5
45C
  8
TURRET
 10
-1.5600000000000001
 20
1.3860159755356789
 30
3.5849511811634711
 11
-1.52
 21
1.3430009183572369
 31
3.6216895106836811
 12
-1.1899999999999991
 22
1.3430009183572369
 32
3.6216895106836811
 13
-1.149999999999999
 23
1.3860159755356789
 33
3.5849511811634711
  0
3DFACE
  5
45D
  8
TURRET
 10
-1.52
 20
1.3430009183572369
 30
3.6216895106836811
 11
-1.5600000000000001
 21
1.3062625888370261
 31
3.578674453505243
 12
-1.149999999999999
 22
1.3062625888370261
 32
3.578674453505243
 13
-1.1899999999999991
 23
1.3430009183572369
 33
3.6216895106836811
  0
3DFACE
  5
45E
  8
TURRET
 10
-1.5600000000000001
 20
1.2795864962895589
 30
3.9176263469745072
 11
-1.52
 21
1.3226015534679969
 31
3.8808880174542959
 12
-1.1899999999999991
 22
1.3226015534679969
 32
3.8808880174542959
 13
-1.149999999999999
 23
1.2795864962895589
 33
3.9176263469745072
  0
3DFACE
  5
45F
  8
TURRET
 10
-1.52
 20
1.3226015534679969
 30
3.8808880174542959
 11
-1.5600000000000001
 21
1.3593398829882111
 31
3.9239030746327339
 12
-1.149999999999999
 22
1.3593398829882111
 32
3.9239030746327339
 13
-1.1899999999999991
 23
1.3226015534679969
 33
3.8808880174542959
  0
3DFACE
  5
460
  8
TURRET
 10
-1.5600000000000001
 20
1.3593398829882111
 30
3.9239030746327339
 11
-1.52
 21
1.3163248258097691
 31
3.9606414041529452
 12
-1.1899999999999991
 22
1.3163248258097691
 32
3.9606414041529452
 13
-1.149999999999999
 23
1.3593398829882111
 33
3.9239030746327339
  0
3DFACE
  5
461
  8
TURRET
 10
-1.52
 20
1.3163248258097691
 30
3.9606414041529452
 11
-1.5600000000000001
 21
1.2795864962895589
 31
3.9176263469745072
 12
-1.149999999999999
 22
1.2795864962895589
 32
3.9176263469745072
 13
-1.1899999999999991
 23
1.3163248258097691
 33
3.9606414041529452
  0
3DFACE
  5
462
  8
TURRET
 10
-1.5600000000000001
 20
1.3400000000000001
 30
3.149999999999999
 11
-1.52
 21
1.379999999999999
 31
3.151571604280301
 12
-1.52
 22
1.281802823689518
 32
4.3992850309955234
 13
-1.5600000000000001
 23
1.2419261303401941
 33
4.39614666716641
  0
3DFACE
  5
463
  8
TURRET
 10
-1.52
 20
1.379999999999999
 30
3.151571604280301
 11
-1.5600000000000001
 21
1.4200000000000019
 31
3.1531432085606128
 12
-1.5600000000000001
 22
1.321679517038846
 32
4.4024233948246367
 13
-1.52
 23
1.281802823689518
 33
4.3992850309955234
  0
3DFACE
  5
464
  8
TURRET
 10
-1.5600000000000001
 20
1.4200000000000019
 30
3.1531432085606128
 11
-1.599999999999999
 21
1.379999999999999
 31
3.151571604280301
 12
-1.599999999999999
 22
1.281802823689518
 32
4.3992850309955234
 13
-1.5600000000000001
 23
1.321679517038846
 33
4.4024233948246367
  0
3DFACE
  5
465
  8
TURRET
 10
-1.599999999999999
 20
1.379999999999999
 30
3.151571604280301
 11
-1.5600000000000001
 21
1.3400000000000001
 31
3.149999999999999
 12
-1.5600000000000001
 22
1.2419261303401941
 32
4.39614666716641
 13
-1.599999999999999
 23
1.281802823689518
 33
4.3992850309955234
  0
3DFACE
  5
466
  8
TURRET
 10
-1.5600000000000001
 20
1.3400000000000001
 30
2.069999999999999
 11
-1.52
 21
1.379999999999999
 31
2.069999999999999
 12
-1.52
 22
1.379999999999999
 32
3.151571604280301
 13
-1.5600000000000001
 23
1.3400000000000001
 33
3.149999999999999
  0
3DFACE
  5
467
  8
TURRET
 10
-1.52
 20
1.379999999999999
 30
2.069999999999999
 11
-1.5600000000000001
 21
1.4200000000000019
 31
2.069999999999999
 12
-1.5600000000000001
 22
1.4200000000000019
 32
3.1531432085606128
 13
-1.52
 23
1.379999999999999
 33
3.151571604280301
  0
3DFACE
  5
468
  8
TURRET
 10
-1.5600000000000001
 20
1.4200000000000019
 30
2.069999999999999
 11
-1.599999999999999
 21
1.379999999999999
 31
2.069999999999999
 12
-1.599999999999999
 22
1.379999999999999
 32
3.151571604280301
 13
-1.5600000000000001
 23
1.4200000000000019
 33
3.1531432085606128
  0
3DFACE
  5
469
  8
TURRET
 10
-1.599999999999999
 20
1.379999999999999
 30
2.069999999999999
 11
-1.5600000000000001
 21
1.3400000000000001
 31
2.069999999999999
 12
-1.5600000000000001
 22
1.3400000000000001
 32
3.149999999999999
 13
-1.599999999999999
 23
1.379999999999999
 33
3.151571604280301
  0
3DFACE
  5
46A
  8
TURRET
 10
-1.1100000000000001
 20
1.281802823689518
 30
4.3992850309955234
 11
-1.149999999999999
 21
1.321679517038846
 31
4.4024233948246367
 12
-1.1899999999999991
 22
1.281802823689518
 32
4.3992850309955234
 13
-1.149999999999999
 23
1.2419261303401929
 33
4.39614666716641
  0
3DFACE
  5
46B
  8
TURRET
 10
-1.52
 20
1.281802823689518
 30
4.3992850309955234
 11
-1.5600000000000001
 21
1.321679517038846
 31
4.4024233948246367
 12
-1.599999999999999
 22
1.281802823689518
 32
4.3992850309955234
 13
-1.5600000000000001
 23
1.2419261303401941
 33
4.39614666716641
  0
3DFACE
  5
46E
  8
TURRET
 10
-0.69
 20
1.71
 30
1.919999999999999
 11
-0.69
 21
1.71
 31
1.679999999999999
 12
-0.8499999999999998
 22
1.71
 32
1.679999999999999
 13
-0.8499999999999998
 23
1.71
 33
1.919999999999999
  0
3DFACE
  5
46F
  8
TURRET
 10
-0.8499999999999998
 20
1.71
 30
1.919999999999999
 11
-0.8499999999999998
 21
1.71
 31
1.679999999999999
 12
-0.85
 22
1.3400000000000001
 32
1.679999999999999
 13
-0.85
 23
1.3400000000000001
 33
1.919999999999999
  0
3DFACE
  5
470
  8
TURRET
 10
-0.69
 20
1.3400000000000001
 30
1.679999999999999
 11
-0.69
 21
1.71
 31
1.679999999999999
 12
-0.69
 22
1.71
 32
1.919999999999999
 13
-0.69
 23
1.3400000000000001
 33
1.919999999999999
  0
3DFACE
  5
471
  8
TURRET
 10
-0.69
 20
1.3400000000000001
 30
1.919999999999999
 11
-0.69
 21
1.71
 31
1.919999999999999
 12
-0.8499999999999998
 22
1.71
 32
1.919999999999999
 13
-0.85
 23
1.3400000000000001
 33
1.919999999999999
  0
3DFACE
  5
473
  8
TURRET
 10
-0.85
 20
1.3400000000000001
 30
1.679999999999999
 11
-0.8499999999999998
 21
1.71
 31
1.679999999999999
 12
-0.69
 22
1.71
 32
1.679999999999999
 13
-0.69
 23
1.3400000000000001
 33
1.679999999999999
  0
3DFACE
  5
478
  8
TURRET
 10
0.85
 20
1.3400000000000001
 30
1.679999999999999
 11
0.8500000000000001
 21
1.71
 31
1.679999999999999
 12
0.8500000000000001
 22
1.71
 32
1.919999999999999
 13
0.85
 23
1.3400000000000001
 33
1.919999999999999
  0
3DFACE
  5
479
  8
TURRET
 10
0.8500000000000001
 20
1.71
 30
1.919999999999999
 11
0.8500000000000001
 21
1.71
 31
1.679999999999999
 12
0.6900000000000003
 22
1.71
 32
1.679999999999999
 13
0.6900000000000003
 23
1.71
 33
1.919999999999999
  0
3DFACE
  5
47A
  8
TURRET
 10
0.6900000000000003
 20
1.71
 30
1.919999999999999
 11
0.6900000000000003
 21
1.71
 31
1.679999999999999
 12
0.6900000000000001
 22
1.3400000000000001
 32
1.679999999999999
 13
0.6900000000000001
 23
1.3400000000000001
 33
1.919999999999999
  0
3DFACE
  5
47C
  8
TURRET
 10
0.6900000000000001
 20
1.3400000000000001
 30
1.679999999999999
 11
0.6900000000000003
 21
1.71
 31
1.679999999999999
 12
0.8500000000000001
 22
1.71
 32
1.679999999999999
 13
0.85
 23
1.3400000000000001
 33
1.679999999999999
  0
3DFACE
  5
47D
  8
TURRET
 10
0.85
 20
1.3400000000000001
 30
1.919999999999999
 11
0.8500000000000001
 21
1.71
 31
1.919999999999999
 12
0.6900000000000003
 22
1.71
 32
1.919999999999999
 13
0.6900000000000001
 23
1.3400000000000001
 33
1.919999999999999
  0
3DFACE
  5
8DD
  8
TURRET
 10
0.24
 20
-2.02
 30
5.5
 11
0.1697056274847714
 21
-1.8502943725152281
 31
5.5
 12
0.1697056274847714
 22
-1.8502943725152281
 32
5.5999999999999988
 13
0.24
 23
-2.02
 33
5.5999999999999988
  0
3DFACE
  5
8DE
  8
TURRET
 10
0.1697056274847714
 20
-1.8502943725152281
 30
5.5
 11
0.0
 21
-1.78
 31
5.5
 12
0.0
 22
-1.78
 32
5.5999999999999988
 13
0.1697056274847714
 23
-1.8502943725152281
 33
5.5999999999999988
  0
3DFACE
  5
8DF
  8
TURRET
 10
0.0
 20
-1.78
 30
5.5
 11
-0.1697056274847714
 21
-1.8502943725152281
 31
5.5
 12
-0.1697056274847714
 22
-1.8502943725152281
 32
5.5999999999999988
 13
0.0
 23
-1.78
 33
5.5999999999999988
  0
3DFACE
  5
8E0
  8
TURRET
 10
-0.1697056274847714
 20
-1.8502943725152281
 30
5.5
 11
-0.24
 21
-2.02
 31
5.5
 12
-0.24
 22
-2.02
 32
5.5999999999999988
 13
-0.1697056274847714
 23
-1.8502943725152281
 33
5.5999999999999988
  0
3DFACE
  5
8E1
  8
TURRET
 10
-0.24
 20
-2.02
 30
5.5
 11
-0.1697056274847714
 21
-2.1897056274847708
 31
5.5
 12
-0.1697056274847714
 22
-2.1897056274847708
 32
5.5999999999999988
 13
-0.24
 23
-2.02
 33
5.5999999999999988
  0
3DFACE
  5
8E2
  8
TURRET
 10
-0.1697056274847714
 20
-2.1897056274847708
 30
5.5
 11
0.0
 21
-2.2599999999999998
 31
5.5
 12
0.0
 22
-2.2599999999999998
 32
5.5999999999999988
 13
-0.1697056274847714
 23
-2.1897056274847708
 33
5.5999999999999988
  0
3DFACE
  5
8E3
  8
TURRET
 10
0.0
 20
-2.2599999999999998
 30
5.5
 11
0.1697056274847714
 21
-2.1897056274847708
 31
5.5
 12
0.1697056274847714
 22
-2.1897056274847708
 32
5.5999999999999988
 13
0.0
 23
-2.2599999999999998
 33
5.5999999999999988
  0
3DFACE
  5
8E4
  8
TURRET
 10
0.1697056274847714
 20
-2.1897056274847708
 30
5.5
 11
0.24
 21
-2.02
 31
5.5
 12
0.24
 22
-2.02
 32
5.5999999999999988
 13
0.1697056274847714
 23
-2.1897056274847708
 33
5.5999999999999988
  0
3DFACE
  5
8E5
  8
TURRET
 10
-0.1697056274847714
 20
-1.8502943725152281
 30
5.5999999999999988
 11
-0.24
 21
-2.02
 31
5.5999999999999988
 12
-0.1697056274847714
 22
-2.1897056274847708
 32
5.5999999999999988
 13
0.0
 23
-1.78
 33
5.5999999999999988
  0
3DFACE
  5
8E6
  8
TURRET
 10
0.0
 20
-1.78
 30
5.5999999999999988
 11
-0.1697056274847714
 21
-2.1897056274847708
 31
5.5999999999999988
 12
0.0
 22
-2.2599999999999998
 32
5.5999999999999988
 13
0.1697056274847714
 23
-1.8502943725152281
 33
5.5999999999999988
  0
3DFACE
  5
8E7
  8
TURRET
 10
0.1697056274847714
 20
-1.8502943725152281
 30
5.5999999999999988
 11
-0.0000000000000001
 21
-2.2599999999999998
 31
5.5999999999999988
 12
0.1697056274847714
 22
-2.1897056274847708
 32
5.5999999999999988
 13
0.24
 23
-2.02
 33
5.5999999999999988
  0
3DFACE
  5
8FD
  8
TURRET
 10
1.1599999999999999
 20
1.3
 30
4.6900000000000004
 11
1.130710678118654
 21
1.3
 31
4.760710678118655
 12
1.130710678118654
 22
1.25
 32
4.760710678118655
 13
1.1599999999999999
 23
1.25
 33
4.6900000000000004
  0
3DFACE
  5
8FE
  8
TURRET
 10
1.130710678118654
 20
1.3
 30
4.760710678118655
 11
1.0600000000000001
 21
1.3
 31
4.79
 12
1.0600000000000001
 22
1.25
 32
4.79
 13
1.130710678118654
 23
1.25
 33
4.760710678118655
  0
3DFACE
  5
8FF
  8
TURRET
 10
1.0600000000000001
 20
1.3
 30
4.79
 11
0.9892893218813453
 21
1.3
 31
4.760710678118655
 12
0.9892893218813453
 22
1.25
 32
4.760710678118655
 13
1.0600000000000001
 23
1.25
 33
4.79
  0
3DFACE
  5
900
  8
TURRET
 10
0.9892893218813453
 20
1.3
 30
4.760710678118655
 11
0.9600000000000001
 21
1.3
 31
4.6900000000000004
 12
0.9600000000000001
 22
1.25
 32
4.6900000000000004
 13
0.9892893218813453
 23
1.25
 33
4.760710678118655
  0
3DFACE
  5
901
  8
TURRET
 10
0.9600000000000001
 20
1.3
 30
4.6900000000000004
 11
0.9892893218813453
 21
1.3
 31
4.6192893218813449
 12
0.9892893218813453
 22
1.25
 32
4.6192893218813449
 13
0.9600000000000001
 23
1.25
 33
4.6900000000000004
  0
3DFACE
  5
902
  8
TURRET
 10
0.9892893218813453
 20
1.3
 30
4.6192893218813449
 11
1.0600000000000001
 21
1.3
 31
4.5899999999999999
 12
1.0600000000000001
 22
1.25
 32
4.5899999999999999
 13
0.9892893218813453
 23
1.25
 33
4.6192893218813449
  0
3DFACE
  5
903
  8
TURRET
 10
1.0600000000000001
 20
1.3
 30
4.5899999999999999
 11
1.130710678118654
 21
1.3
 31
4.6192893218813449
 12
1.130710678118654
 22
1.25
 32
4.6192893218813449
 13
1.0600000000000001
 23
1.25
 33
4.5899999999999999
  0
3DFACE
  5
904
  8
TURRET
 10
1.130710678118654
 20
1.3
 30
4.6192893218813449
 11
1.1599999999999999
 21
1.3
 31
4.6900000000000004
 12
1.1599999999999999
 22
1.25
 32
4.6900000000000004
 13
1.130710678118654
 23
1.25
 33
4.6192893218813449
  0
3DFACE
  5
905
  8
TURRET
 10
1.130710678118654
 20
1.3
 30
4.760710678118655
 11
0.9600000000000001
 21
1.3
 31
4.6900000000000004
 12
0.9892893218813453
 22
1.3
 32
4.760710678118655
 13
1.0600000000000001
 23
1.3
 33
4.79
  0
3DFACE
  5
906
  8
TURRET
 10
1.1599999999999999
 20
1.3
 30
4.6900000000000004
 11
0.9892893218813453
 21
1.3
 31
4.6192893218813449
 12
0.9600000000000001
 22
1.3
 32
4.6900000000000004
 13
1.130710678118654
 23
1.3
 33
4.760710678118655
  0
3DFACE
  5
907
  8
TURRET
 10
1.130710678118654
 20
1.3
 30
4.6192893218813449
 11
1.0600000000000001
 21
1.3
 31
4.5899999999999999
 12
0.9892893218813453
 22
1.3
 32
4.6192893218813449
 13
1.1599999999999999
 23
1.3
 33
4.6900000000000004
  0
VIEWPORT
  5
2E
 67
     1
  8
0
 10
144.7270812988281
 20
101.2295806407928
 30
0.0
 40
391.13550988316581
 41
222.15178063964839
 68
     2
 69
     1
1001
ACAD
1000
MVIEW
1002
{
1070
    16
1010
0.0
1020
0.0
1030
0.0
1010
0.0
1020
0.0
1030
1.0
1040
0.0
1040
222.15178063964839
1040
144.7270812988281
1040
101.2295806407928
1040
50.0
1040
0.0
1040
0.0
1070
     0
1070
   100
1070
     1
1070
     1
1070
     0
1070
     0
1070
     0
1070
     0
1040
0.0
1040
0.0
1040
0.0
1040
10.0
1040
10.0
1040
10.0
1040
10.0
1070
     0
1002
{
1002
}
1002
}
  0
VIEWPORT
  5
30
 67
     1
  8
0
 10
139.22375631332389
 20
100.8062499761581
 30
0.0
 40
222.75801010131829
 41
161.289999961853
 68
     1
 69
     2
1001
ACAD
1000
MVIEW
1002
{
1070
    16
1010
0.0
1020
0.0
1030
0.0
1010
0.0
1020
0.0
1030
1.0
1040
0.0
1040
307.49010134148989
1040
210.0
1040
148.5
1040
50.0
1040
0.0
1040
0.0
1070
     0
1070
   100
1070
     1
1070
     3
1070
     0
1070
     1
1070
     0
1070
     0
1040
0.0
1040
0.0
1040
0.0
1040
10.0
1040
10.0
1040
10.0
1040
10.0
1070
     0
1002
{
1002
}
1002
}
  0
ENDSEC
  0
EOF
