  0
SECTION
  2
HEADER
  9
$ACADVER
  1
AC1009
  9
$INSBASE
 10
0.0
 20
0.0
 30
0.0
  9
$EXTMIN
 10
-1.6599999999999999
 20
-11.939999999999991
 30
-6.2400000000000064
  9
$EXTMAX
 10
3.0
 20
24.120000000000001
 30
5.4826229508196711
  9
$LIMMIN
 10
0.0
 20
0.0
  9
$LIMMAX
 10
420.0
 20
297.0
  9
$ORTHOMODE
 70
     1
  9
$REGENMODE
 70
     1
  9
$FILLMODE
 70
     1
  9
$QTEXTMODE
 70
     0
  9
$MIRRTEXT
 70
     1
  9
$DRAGMODE
 70
     2
  9
$LTSCALE
 40
1.0
  9
$OSMODE
 70
   551
  9
$ATTMODE
 70
     1
  9
$TEXTSIZE
 40
2.5
  9
$TRACEWID
 40
1.0
  9
$TEXTSTYLE
  7
STANDARD
  9
$CLAYER
  8
0
  9
$CELTYPE
  6
BYLAYER
  9
$CECOLOR
 62
   256
  9
$DIMSCALE
 40
1.0
  9
$DIMASZ
 40
2.5
  9
$DIMEXO
 40
0.625
  9
$DIMDLI
 40
3.75
  9
$DIMRND
 40
0.0
  9
$DIMDLE
 40
0.0
  9
$DIMEXE
 40
1.25
  9
$DIMTP
 40
0.0
  9
$DIMTM
 40
0.0
  9
$DIMTXT
 40
2.5
  9
$DIMCEN
 40
2.5
  9
$DIMTSZ
 40
0.0
  9
$DIMTOL
 70
     0
  9
$DIMLIM
 70
     0
  9
$DIMTIH
 70
     0
  9
$DIMTOH
 70
     0
  9
$DIMSE1
 70
     0
  9
$DIMSE2
 70
     0
  9
$DIMTAD
 70
     1
  9
$DIMZIN
 70
     8
  9
$DIMBLK
  1

  9
$DIMASO
 70
     1
  9
$DIMSHO
 70
     1
  9
$DIMPOST
  1

  9
$DIMAPOST
  1

  9
$DIMALT
 70
     0
  9
$DIMALTD
 70
     3
  9
$DIMALTF
 40
0.03937007874016
  9
$DIMLFAC
 40
1.0
  9
$DIMTOFL
 70
     1
  9
$DIMTVP
 40
0.0
  9
$DIMTIX
 70
     0
  9
$DIMSOXD
 70
     0
  9
$DIMSAH
 70
     0
  9
$DIMBLK1
  1

  9
$DIMBLK2
  1

  9
$DIMSTYLE
  2
ISO-25
  9
$DIMCLRD
 70
     0
  9
$DIMCLRE
 70
     0
  9
$DIMCLRT
 70
     0
  9
$DIMTFAC
 40
1.0
  9
$DIMGAP
 40
0.625
  9
$LUNITS
 70
     2
  9
$LUPREC
 70
     4
  9
$SKETCHINC
 40
1.0
  9
$FILLETRAD
 40
10.0
  9
$AUNITS
 70
     0
  9
$AUPREC
 70
     0
  9
$MENU
  1
.
  9
$ELEVATION
 40
0.0
  9
$PELEVATION
 40
0.0
  9
$THICKNESS
 40
0.0
  9
$LIMCHECK
 70
     0
  9
$BLIPMODE
 70
     0
  9
$CHAMFERA
 40
10.0
  9
$CHAMFERB
 40
10.0
  9
$SKPOLY
 70
     0
  9
$TDCREATE
 40
2454731.7523565851
  9
$TDUPDATE
 40
2454731.8820822448
  9
$TDINDWG
 40
0.1297262037
  9
$TDUSRTIMER
 40
0.1297262037
  9
$USRTIMER
 70
     1
  9
$ANGBASE
 50
0.0
  9
$ANGDIR
 70
     0
  9
$PDMODE
 70
     0
  9
$PDSIZE
 40
0.0
  9
$PLINEWID
 40
0.0
  9
$COORDS
 70
     1
  9
$SPLFRAME
 70
     0
  9
$SPLINETYPE
 70
     6
  9
$SPLINESEGS
 70
     8
  9
$ATTDIA
 70
     1
  9
$ATTREQ
 70
     1
  9
$HANDLING
 70
-16383
  9
$HANDSEED
  5
650
  9
$SURFTAB1
 70
     6
  9
$SURFTAB2
 70
     6
  9
$SURFTYPE
 70
     6
  9
$SURFU
 70
     6
  9
$SURFV
 70
     6
  9
$UCSNAME
  2

  9
$UCSORG
 10
0.0
 20
0.0
 30
0.0
  9
$UCSXDIR
 10
0.0
 20
-1.0
 30
0.0
  9
$UCSYDIR
 10
0.0
 20
0.0
 30
1.0
  9
$PUCSNAME
  2

  9
$PUCSORG
 10
0.0
 20
0.0
 30
0.0
  9
$PUCSXDIR
 10
1.0
 20
0.0
 30
0.0
  9
$PUCSYDIR
 10
0.0
 20
1.0
 30
0.0
  9
$USERI1
 70
     0
  9
$USERI2
 70
     0
  9
$USERI3
 70
     0
  9
$USERI4
 70
     0
  9
$USERI5
 70
     0
  9
$USERR1
 40
0.0
  9
$USERR2
 40
0.0
  9
$USERR3
 40
0.0
  9
$USERR4
 40
0.0
  9
$USERR5
 40
0.0
  9
$WORLDVIEW
 70
     1
  9
$SHADEDGE
 70
     3
  9
$SHADEDIF
 70
    70
  9
$TILEMODE
 70
     1
  9
$MAXACTVP
 70
    64
  9
$PLIMCHECK
 70
     0
  9
$PEXTMIN
 10
27.844751262664801
 20
20.161249995231621
 30
0.0
  9
$PEXTMAX
 10
250.60276136398309
 20
181.4512499570846
 30
0.0
  9
$PLIMMIN
 10
-3.757080078125
 20
-3.7570831775665279
  9
$PLIMMAX
 10
293.21124267578119
 20
206.21624445915219
  9
$UNITMODE
 70
     0
  9
$VISRETAIN
 70
     1
  9
$PLINEGEN
 70
     0
  9
$PSLTSCALE
 70
     1
  0
ENDSEC
  0
SECTION
  2
TABLES
  0
TABLE
  2
VPORT
 70
    44
  0
VPORT
  2
*ACTIVE
 70
     0
 10
0.0
 20
0.0
 11
1.0
 21
1.0
 12
5.2420405633278833
 22
-4.8583819047877581
 13
0.0
 23
0.0
 14
0.01
 24
0.01
 15
1.0
 25
1.0
 16
-1.0
 26
0.0
 36
0.0
 17
0.0
 27
0.0
 37
0.0
 40
41.977098991105699
 41
1.7606679035250461
 42
50.0
 43
0.0
 44
0.0
 50
0.0
 51
0.0
 71
     0
 72
   100
 73
     1
 74
     3
 75
     1
 76
     1
 77
     0
 78
     0
  0
ENDTAB
  0
TABLE
  2
LTYPE
 70
     1
  0
LTYPE
  2
CONTINUOUS
 70
     0
  3
Solid line
 72
    65
 73
     0
 40
0.0
  0
ENDTAB
  0
TABLE
  2
LAYER
 70
     7
  0
LAYER
  2
0
 70
     0
 62
     7
  6
CONTINUOUS
  0
LAYER
  2
DRAWING
 70
     0
 62
     9
  6
CONTINUOUS
  0
LAYER
  2
WHEELS
 70
     0
 62
     2
  6
CONTINUOUS
  0
LAYER
  2
TURRET
 70
     0
 62
     2
  6
CONTINUOUS
  0
LAYER
  2
SLEEVE
 70
     0
 62
     5
  6
CONTINUOUS
  0
LAYER
  2
BARREL
 70
     0
 62
     1
  6
CONTINUOUS
  0
LAYER
  2
WAGON
 70
     0
 62
     6
  6
CONTINUOUS
  0
ENDTAB
  0
TABLE
  2
STYLE
 70
     1
  0
STYLE
  2
STANDARD
 70
     0
 40
0.0
 41
1.0
 50
0.0
 71
     0
 42
2.5
  3
txt
  4

  0
ENDTAB
  0
TABLE
  2
VIEW
 70
     0
  0
ENDTAB
  0
TABLE
  2
UCS
 70
     0
  0
ENDTAB
  0
TABLE
  2
APPID
 70
     1
  0
APPID
  2
ACAD
 70
     0
  0
ENDTAB
  0
TABLE
  2
DIMSTYLE
 70
     1
  0
DIMSTYLE
  2
ISO-25
 70
     0
  3

  4

  5

  6

  7

 40
1.0
 41
2.5
 42
0.625
 43
3.75
 44
1.25
 45
0.0
 46
0.0
 47
0.0
 48
0.0
140
2.5
141
2.5
142
0.0
143
0.03937007874016
144
1.0
145
0.0
146
1.0
147
0.625
 71
     0
 72
     0
 73
     0
 74
     0
 75
     0
 76
     0
 77
     1
 78
     8
170
     0
171
     3
172
     1
173
     0
174
     0
175
     0
176
     0
177
     0
178
     0
  0
ENDTAB
  0
ENDSEC
  0
SECTION
  2
BLOCKS
  0
BLOCK
  8
0
  2
$MODEL_SPACE
 70
     0
 10
0.0
 20
0.0
 30
0.0
  3
$MODEL_SPACE
  1

  0
ENDBLK
  5
21
  8
0
  0
BLOCK
 67
     1
  8
0
  2
$PAPER_SPACE
 70
     0
 10
0.0
 20
0.0
 30
0.0
  3
$PAPER_SPACE
  1

  0
ENDBLK
  5
1D
 67
     1
  8
0
  0
ENDSEC
  0
SECTION
  2
ENTITIES
  0
3DFACE
  5
82
  8
0
 10
1.6599999999999999
 20
-4.46
 30
3.2599999999999998
 11
1.6599999999999999
 21
-4.46
 31
0.4200000000000001
 12
1.6599999999999999
 22
4.46
 32
0.4200000000000001
 13
1.6599999999999999
 23
4.46
 33
3.2599999999999998
  0
3DFACE
  5
83
  8
0
 10
-1.6599999999999999
 20
4.46
 30
0.4200000000000001
 11
-1.6599999999999999
 21
-4.46
 31
0.4200000000000001
 12
-1.6599999999999999
 22
-4.46
 32
3.2599999999999998
 13
-1.6599999999999999
 23
4.46
 33
3.2599999999999998
  0
3DFACE
  5
10C
  8
0
 10
1.4599999999999991
 20
-4.8099999999999987
 30
3.5599999999999992
 11
1.5600000000000001
 21
-4.8099999999999987
 31
3.419999999999999
 12
1.5600000000000001
 22
4.8099999999999996
 32
3.419999999999999
 13
1.4599999999999991
 23
4.8099999999999996
 33
3.5599999999999992
  0
3DFACE
  5
110
  8
0
 10
-1.46
 20
4.8099999999999996
 30
3.5599999999999992
 11
-1.5600000000000001
 21
4.8099999999999996
 31
3.419999999999999
 12
-1.5600000000000001
 22
-4.8099999999999987
 32
3.419999999999999
 13
-1.46
 23
-4.8099999999999987
 33
3.5599999999999992
  0
3DFACE
  5
113
  8
0
 10
-1.1599999999999999
 20
4.8099999999999996
 30
3.7599999999999989
 11
-1.46
 21
4.8099999999999996
 31
3.5599999999999992
 12
-1.46
 22
-4.8099999999999987
 32
3.5599999999999992
 13
-1.1599999999999999
 23
-4.8099999999999987
 33
3.7599999999999989
  0
3DFACE
  5
116
  8
0
 10
1.159999999999999
 20
-4.8099999999999987
 30
3.7599999999999989
 11
1.4599999999999991
 21
-4.8099999999999987
 31
3.5599999999999992
 12
1.4599999999999991
 22
4.8099999999999996
 32
3.5599999999999992
 13
1.159999999999999
 23
4.8099999999999996
 33
3.7599999999999989
  0
3DFACE
  5
11D
  8
0
 10
0.8699999999999999
 20
-4.8099999999999987
 30
3.899999999999999
 11
1.159999999999999
 21
-4.8099999999999987
 31
3.7599999999999989
 12
1.159999999999999
 22
4.8099999999999996
 32
3.7599999999999989
 13
0.8699999999999999
 23
4.8099999999999996
 33
3.899999999999999
  0
3DFACE
  5
11E
  8
0
 10
-0.8700000000000002
 20
4.8099999999999996
 30
3.899999999999999
 11
-1.1599999999999999
 21
4.8099999999999996
 31
3.7599999999999989
 12
-1.1599999999999999
 22
-4.8099999999999987
 32
3.7599999999999989
 13
-0.8700000000000002
 23
-4.8099999999999987
 33
3.899999999999999
  0
3DFACE
  5
124
  8
0
 10
-0.590000000000001
 20
4.8099999999999996
 30
3.9899999999999989
 11
-0.8700000000000002
 21
4.8099999999999996
 31
3.899999999999999
 12
-0.8700000000000002
 22
-4.8099999999999987
 32
3.899999999999999
 13
-0.590000000000001
 23
-4.8099999999999987
 33
3.9899999999999989
  0
3DFACE
  5
125
  8
0
 10
0.59
 20
-4.8099999999999987
 30
3.9899999999999989
 11
0.8699999999999999
 21
-4.8099999999999987
 31
3.899999999999999
 12
0.8699999999999999
 22
4.8099999999999996
 32
3.899999999999999
 13
0.59
 23
4.8099999999999996
 33
3.9899999999999989
  0
3DFACE
  5
128
  8
0
 10
-0.4600000000000001
 20
-4.8099999999999987
 30
4.0599999999999996
 11
0.4600000000000001
 21
-4.8099999999999987
 31
4.0599999999999996
 12
0.4600000000000001
 22
4.8099999999999996
 32
4.0599999999999996
 13
-0.4600000000000001
 23
4.8099999999999996
 33
4.0599999999999996
  0
3DFACE
  5
12B
  8
0
 10
0.4600000000000001
 20
-4.8099999999999987
 30
4.0599999999999996
 11
0.59
 21
-4.8099999999999987
 31
3.9899999999999989
 12
0.59
 22
4.8099999999999996
 32
3.9899999999999989
 13
0.4600000000000001
 23
4.8099999999999996
 33
4.0599999999999996
  0
3DFACE
  5
12C
  8
0
 10
-0.4600000000000001
 20
4.8099999999999996
 30
4.0599999999999996
 11
-0.590000000000001
 21
4.8099999999999996
 31
3.9899999999999989
 12
-0.590000000000001
 22
-4.8099999999999987
 32
3.9899999999999989
 13
-0.4600000000000001
 23
-4.8099999999999987
 33
4.0599999999999996
  0
3DFACE
  5
13B
  8
0
 10
0.69
 20
5.7799999999999976
 30
1.29
 11
-0.6900000000000001
 21
5.7799999999999976
 31
1.29
 12
-0.6900000000000001
 22
5.7799999999999976
 32
3.419999999999999
 13
0.69
 23
5.7799999999999976
 33
3.419999999999999
  0
3DFACE
  5
13C
  8
0
 10
-1.26
 20
5.4899999999999967
 30
1.29
 11
-1.1299999999999999
 21
5.6099999999999977
 31
1.29
 12
1.129999999999999
 22
5.6099999999999977
 32
1.29
 13
1.2599999999999989
 23
5.4899999999999967
 33
1.29
  0
3DFACE
  5
13D
  8
0
 10
-1.1299999999999999
 20
5.6099999999999977
 30
1.29
 11
-0.89
 21
5.729999999999996
 31
1.29
 12
0.8900000000000002
 22
5.729999999999996
 32
1.29
 13
1.129999999999999
 23
5.6099999999999977
 33
1.29
  0
3DFACE
  5
13E
  8
0
 10
-0.89
 20
5.729999999999996
 30
1.29
 11
-0.6900000000000001
 21
5.7799999999999976
 31
1.29
 12
0.69
 22
5.7799999999999976
 32
1.29
 13
0.8900000000000002
 23
5.729999999999996
 33
1.29
  0
3DFACE
  5
142
  8
0
 10
-1.1299999999999999
 20
5.6099999999999977
 30
3.419999999999999
 11
-0.89
 21
5.729999999999996
 31
3.419999999999999
 12
-0.89
 22
5.729999999999996
 32
1.29
 13
-1.1299999999999999
 23
5.6099999999999977
 33
1.29
  0
3DFACE
  5
143
  8
0
 10
1.129999999999999
 20
5.6099999999999977
 30
1.29
 11
0.8900000000000002
 21
5.729999999999996
 31
1.29
 12
0.8900000000000002
 22
5.729999999999996
 32
3.419999999999999
 13
1.129999999999999
 23
5.6099999999999977
 33
3.419999999999999
  0
3DFACE
  5
145
  8
0
 10
-1.26
 20
5.4899999999999967
 30
3.419999999999999
 11
-1.1299999999999999
 21
5.6099999999999977
 31
3.419999999999999
 12
-1.1299999999999999
 22
5.6099999999999977
 32
1.29
 13
-1.26
 23
5.4899999999999967
 33
1.29
  0
3DFACE
  5
146
  8
0
 10
1.2599999999999989
 20
5.4899999999999967
 30
1.29
 11
1.129999999999999
 21
5.6099999999999977
 31
1.29
 12
1.129999999999999
 22
5.6099999999999977
 32
3.419999999999999
 13
1.2599999999999989
 23
5.4899999999999967
 33
3.419999999999999
  0
3DFACE
  5
147
  8
0
 10
-0.89
 20
5.729999999999996
 30
3.419999999999999
 11
-0.6900000000000001
 21
5.7799999999999976
 31
3.419999999999999
 12
-0.6900000000000001
 22
5.7799999999999976
 32
1.29
 13
-0.89
 23
5.729999999999996
 33
1.29
  0
3DFACE
  5
148
  8
0
 10
0.8900000000000002
 20
5.729999999999996
 30
1.29
 11
0.69
 21
5.7799999999999976
 31
1.29
 12
0.69
 22
5.7799999999999976
 32
3.419999999999999
 13
0.8900000000000002
 23
5.729999999999996
 33
3.419999999999999
  0
3DFACE
  5
14A
  8
0
 10
-1.45
 20
5.2399999999999967
 30
1.29
 11
-1.26
 21
5.4899999999999967
 31
1.29
 12
1.2599999999999989
 22
5.4899999999999967
 32
1.29
 13
1.4499999999999991
 23
5.2399999999999967
 33
1.29
  0
3DFACE
  5
14D
  8
0
 10
-1.45
 20
5.2399999999999967
 30
3.419999999999999
 11
-1.26
 21
5.4899999999999967
 31
3.419999999999999
 12
-1.26
 22
5.4899999999999967
 32
1.29
 13
-1.45
 23
5.2399999999999967
 33
1.29
  0
3DFACE
  5
14E
  8
0
 10
1.4499999999999991
 20
5.2399999999999967
 30
1.29
 11
1.2599999999999989
 21
5.4899999999999967
 31
1.29
 12
1.2599999999999989
 22
5.4899999999999967
 32
3.419999999999999
 13
1.4499999999999991
 23
5.2399999999999967
 33
3.419999999999999
  0
3DFACE
  5
150
  8
0
 10
-1.54
 20
4.9899999999999993
 30
1.29
 11
-1.45
 21
5.2399999999999967
 31
1.29
 12
1.4499999999999991
 22
5.2399999999999967
 32
1.29
 13
1.54
 23
4.9899999999999993
 33
1.29
  0
3DFACE
  5
153
  8
0
 10
-1.54
 20
4.9899999999999993
 30
3.419999999999999
 11
-1.45
 21
5.2399999999999967
 31
3.419999999999999
 12
-1.45
 22
5.2399999999999967
 32
1.29
 13
-1.54
 23
4.9899999999999993
 33
1.29
  0
3DFACE
  5
154
  8
0
 10
1.54
 20
4.9899999999999993
 30
1.29
 11
1.4499999999999991
 21
5.2399999999999967
 31
1.29
 12
1.4499999999999991
 22
5.2399999999999967
 32
3.419999999999999
 13
1.54
 23
4.9899999999999993
 33
3.419999999999999
  0
3DFACE
  5
159
  8
0
 10
-1.5600000000000001
 20
4.8099999999999961
 30
3.419999999999999
 11
-1.54
 21
4.9899999999999993
 31
3.419999999999999
 12
-1.54
 22
4.9899999999999993
 32
1.29
 13
-1.5600000000000001
 23
4.8099999999999961
 33
1.05
  0
3DFACE
  5
15A
  8
0
 10
1.5600000000000001
 20
4.8099999999999961
 30
1.05
 11
1.54
 21
4.9899999999999993
 31
1.29
 12
1.54
 22
4.9899999999999993
 32
3.419999999999999
 13
1.5600000000000001
 23
4.8099999999999961
 33
3.419999999999999
  0
3DFACE
  5
161
  8
0
 10
1.5600000000000001
 20
4.46
 30
0.42
 11
1.5600000000000001
 21
4.8099999999999987
 31
1.05
 12
1.5600000000000001
 22
4.8099999999999987
 32
3.419999999999999
 13
1.5600000000000001
 23
4.46
 33
3.419999999999999
  0
3DFACE
  5
162
  8
0
 10
-1.5600000000000001
 20
4.46
 30
3.419999999999999
 11
-1.5600000000000001
 21
4.8099999999999987
 31
3.419999999999999
 12
-1.5600000000000001
 22
4.8099999999999987
 32
1.05
 13
-1.5600000000000001
 23
4.46
 33
0.42
  0
3DFACE
  5
178
  8
0
 10
0.46
 20
4.8099999999999987
 30
4.0599999999999996
 11
0.65
 21
4.8099999999999987
 31
3.419999999999999
 12
0.65
 22
5.7800000000000002
 32
3.419999999999999
 13
0.46
 23
5.7800000000000002
 33
4.0599999999999996
  0
3DFACE
  5
179
  8
0
 10
-0.65
 20
5.7800000000000002
 30
3.419999999999999
 11
-0.65
 21
4.8099999999999987
 31
3.419999999999999
 12
-0.4600000000000001
 22
4.8099999999999987
 32
4.0599999999999996
 13
-0.4600000000000001
 23
5.7800000000000002
 33
4.0599999999999996
  0
3DFACE
  5
17A
  8
0
 10
-0.4600000000000001
 20
5.7800000000000002
 30
4.0599999999999996
 11
-0.4600000000000001
 21
4.8099999999999987
 31
4.0599999999999996
 12
0.46
 22
4.8099999999999987
 32
4.0599999999999996
 13
0.46
 23
5.7800000000000002
 33
4.0599999999999996
  0
3DFACE
  5
17B
  8
0
 10
0.46
 20
5.7800000000000002
 30
4.0599999999999996
 11
0.65
 21
5.7800000000000002
 31
3.419999999999999
 12
-0.65
 22
5.7800000000000002
 32
3.419999999999999
 13
-0.4600000000000001
 23
5.7800000000000002
 33
4.0599999999999996
  0
3DFACE
  5
17F
  8
0
 10
-1.46
 20
4.8099999999999996
 30
3.5599999999999992
 11
-1.46
 21
4.8099999999999996
 31
3.5599999999999992
 12
-1.54
 22
4.9899999999999993
 32
3.419999999999999
 13
-1.5600000000000001
 23
4.809999999999989
 33
3.4199999999999848
  0
3DFACE
  5
180
  8
0
 10
-0.5900000000000011
 20
4.8099999999999996
 30
3.9899999999999989
 11
-0.4600000000000003
 21
4.8099999999999996
 31
4.0599999999999996
 12
-0.6900000000000001
 22
5.7799999999999976
 32
3.419999999999999
 13
-0.89
 23
5.729999999999996
 33
3.419999999999999
  0
3DFACE
  5
181
  8
0
 10
-0.4600000000000037
 20
4.8099999999999996
 30
4.0599999999999978
 11
-0.4600000000000001
 21
4.8099999999999987
 31
4.0600000000000014
 12
-0.65
 22
5.7799999999999976
 32
3.419999999999999
 13
-0.6900000000000001
 23
5.7799999999999976
 33
3.419999999999999
  0
3DFACE
  5
182
  8
0
 10
-0.8700000000000002
 20
4.8099999999999996
 30
3.899999999999999
 11
-0.5900000000000012
 21
4.8099999999999996
 31
3.9899999999999989
 12
-0.89
 22
5.729999999999996
 32
3.419999999999999
 13
-1.1299999999999999
 23
5.6099999999999977
 33
3.419999999999999
  0
3DFACE
  5
183
  8
0
 10
-0.8700000000000002
 20
4.8100000000000014
 30
3.899999999999999
 11
-0.8700000000000002
 21
4.8099999999999996
 31
3.899999999999999
 12
-1.1299999999999999
 22
5.6099999999999977
 32
3.419999999999999
 13
-1.26
 23
5.4899999999999967
 33
3.419999999999999
  0
3DFACE
  5
184
  8
0
 10
-1.1599999999999999
 20
4.8099999999999996
 30
3.7599999999999989
 11
-0.8699999999999997
 21
4.8099999999999996
 31
3.8999999999999999
 12
-1.26
 22
5.4899999999999967
 32
3.419999999999999
 13
-1.45
 23
5.2399999999999967
 33
3.419999999999999
  0
3DFACE
  5
185
  8
0
 10
-1.46
 20
4.8100000000000014
 30
3.5599999999999992
 11
-1.1599999999999999
 21
4.8099999999999996
 31
3.7599999999999989
 12
-1.45
 22
5.2399999999999967
 32
3.419999999999999
 13
-1.54
 23
4.9899999999999993
 33
3.419999999999999
  0
3DFACE
  5
186
  8
0
 10
0.8900000000000002
 20
5.729999999999996
 30
3.419999999999999
 11
0.69
 21
5.7799999999999976
 31
3.419999999999999
 12
0.4600000000000001
 22
4.8100000000000014
 32
4.0599999999999996
 13
0.59
 23
4.8100000000000014
 33
3.9899999999999989
  0
3DFACE
  5
187
  8
0
 10
0.69
 20
5.7799999999999976
 30
3.419999999999999
 11
0.6499999999999999
 21
5.7799999999999976
 31
3.419999999999999
 12
0.4599999999999984
 22
4.8099999999999987
 32
4.0600000000000014
 13
0.4599999999999996
 23
4.8099999999999987
 33
4.0600000000000014
  0
3DFACE
  5
188
  8
0
 10
1.129999999999999
 20
5.6099999999999977
 30
3.419999999999999
 11
0.8900000000000002
 21
5.729999999999996
 31
3.419999999999999
 12
0.5900000000000018
 22
4.8100000000000032
 32
3.989999999999998
 13
0.8699999999999999
 23
4.8100000000000014
 33
3.899999999999999
  0
3DFACE
  5
189
  8
0
 10
1.5600000000000001
 20
4.8099999999999961
 30
3.419999999999999
 11
1.54
 21
4.9899999999999993
 31
3.419999999999999
 12
1.4599999999999991
 22
4.8100000000000014
 32
3.5599999999999992
 13
1.4599999999999991
 23
4.8099999999999996
 33
3.5600000000000001
  0
3DFACE
  5
18A
  8
0
 10
1.2599999999999989
 20
5.4899999999999967
 30
3.419999999999999
 11
1.129999999999999
 21
5.6099999999999977
 31
3.419999999999999
 12
0.8699999999999996
 22
4.8099999999999996
 32
3.899999999999999
 13
0.8699999999999996
 23
4.8099999999999996
 33
3.899999999999999
  0
3DFACE
  5
18B
  8
0
 10
1.4499999999999991
 20
5.2399999999999967
 30
3.419999999999999
 11
1.2599999999999989
 21
5.4899999999999967
 31
3.419999999999999
 12
0.8699999999999986
 22
4.8099999999999961
 32
3.9000000000000021
 13
1.159999999999999
 23
4.8099999999999996
 33
3.7599999999999989
  0
3DFACE
  5
18C
  8
0
 10
1.54
 20
4.9899999999999993
 30
3.419999999999999
 11
1.4499999999999991
 21
5.2399999999999967
 31
3.419999999999999
 12
1.1599999999999979
 22
4.8099999999999961
 32
3.760000000000002
 13
1.4599999999999991
 23
4.8099999999999996
 33
3.5600000000000001
  0
3DFACE
  5
1CB
  8
0
 10
0.43
 20
5.29
 30
4.0599999999999996
 11
0.3040559159102154
 21
5.5940559159102152
 31
4.0599999999999996
 12
0.3040559159102154
 22
5.5940559159102152
 32
4.1399999999999988
 13
0.43
 23
5.29
 33
4.1399999999999988
  0
3DFACE
  5
1CC
  8
0
 10
0.3040559159102154
 20
5.5940559159102152
 30
4.0599999999999996
 11
0.0
 21
5.7199999999999989
 31
4.0599999999999996
 12
0.0
 22
5.7199999999999989
 32
4.1399999999999988
 13
0.3040559159102154
 23
5.5940559159102152
 33
4.1399999999999988
  0
3DFACE
  5
1CD
  8
0
 10
0.0
 20
5.7199999999999989
 30
4.0599999999999996
 11
-0.3040559159102154
 21
5.5940559159102152
 31
4.0599999999999996
 12
-0.3040559159102154
 22
5.5940559159102152
 32
4.1399999999999988
 13
0.0
 23
5.7199999999999989
 33
4.1399999999999988
  0
3DFACE
  5
1CE
  8
0
 10
-0.3040559159102154
 20
5.5940559159102152
 30
4.0599999999999996
 11
-0.43
 21
5.29
 31
4.0599999999999996
 12
-0.43
 22
5.29
 32
4.1399999999999988
 13
-0.3040559159102154
 23
5.5940559159102152
 33
4.1399999999999988
  0
3DFACE
  5
1CF
  8
0
 10
-0.43
 20
5.29
 30
4.0599999999999996
 11
-0.3040559159102155
 21
4.985944084089784
 31
4.0599999999999996
 12
-0.3040559159102155
 22
4.985944084089784
 32
4.1399999999999988
 13
-0.43
 23
5.29
 33
4.1399999999999988
  0
3DFACE
  5
1D0
  8
0
 10
-0.3040559159102155
 20
4.985944084089784
 30
4.0599999999999996
 11
-0.0000000000000001
 21
4.8600000000000003
 31
4.0599999999999996
 12
-0.0000000000000001
 22
4.8600000000000003
 32
4.1399999999999988
 13
-0.3040559159102155
 23
4.985944084089784
 33
4.1399999999999988
  0
3DFACE
  5
1D1
  8
0
 10
-0.0000000000000001
 20
4.8600000000000003
 30
4.0599999999999996
 11
0.3040559159102154
 21
4.985944084089784
 31
4.0599999999999996
 12
0.3040559159102154
 22
4.985944084089784
 32
4.1399999999999988
 13
-0.0000000000000001
 23
4.8600000000000003
 33
4.1399999999999988
  0
3DFACE
  5
1D2
  8
0
 10
0.3040559159102154
 20
4.985944084089784
 30
4.0599999999999996
 11
0.43
 21
5.29
 31
4.0599999999999996
 12
0.43
 22
5.29
 32
4.1399999999999988
 13
0.3040559159102154
 23
4.985944084089784
 33
4.1399999999999988
  0
3DFACE
  5
1D3
  8
0
 10
-0.43
 20
5.29
 30
4.1399999999999988
 11
-0.3040559159102155
 21
4.985944084089784
 31
4.1399999999999988
 12
-0.0000000000000001
 22
4.8600000000000003
 32
4.1399999999999988
 13
-0.3040559159102154
 23
5.5940559159102152
 33
4.1399999999999988
  0
3DFACE
  5
1D4
  8
0
 10
-0.3040559159102154
 20
5.5940559159102152
 30
4.1399999999999988
 11
-0.0000000000000001
 21
4.8600000000000003
 31
4.1399999999999988
 12
0.3040559159102154
 22
4.985944084089784
 32
4.1399999999999988
 13
0.0
 23
5.7199999999999989
 33
4.1399999999999988
  0
3DFACE
  5
1D5
  8
0
 10
0.0
 20
5.7199999999999989
 30
4.1399999999999988
 11
0.3040559159102153
 21
4.985944084089784
 31
4.1399999999999988
 12
0.43
 22
5.29
 32
4.1399999999999988
 13
0.3040559159102154
 23
5.5940559159102152
 33
4.1399999999999988
  0
3DFACE
  5
1E4
  8
0
 10
1.5600000000000001
 20
-4.4599999999999991
 30
3.2599999999999998
 11
1.5600000000000001
 21
4.4599999999999991
 31
3.2599999999999998
 12
1.5600000000000001
 22
4.4599999999999991
 32
3.419999999999999
 13
1.5600000000000001
 23
-4.4599999999999991
 33
3.419999999999999
  0
3DFACE
  5
1E5
  8
0
 10
-1.5600000000000001
 20
-4.4599999999999991
 30
3.419999999999999
 11
-1.5600000000000001
 21
4.4599999999999991
 31
3.419999999999999
 12
-1.5600000000000001
 22
4.4599999999999991
 32
3.2599999999999998
 13
-1.5600000000000001
 23
-4.4599999999999991
 33
3.2599999999999998
  0
3DFACE
  5
1E6
  8
0
 10
-1.5600000000000001
 20
-4.4599999999999982
 30
3.2599999999999998
 11
-1.5600000000000001
 21
4.4599999999999991
 31
3.2599999999999998
 12
-1.6599999999999999
 22
4.46
 32
3.2599999999999998
 13
-1.6599999999999999
 23
-4.46
 33
3.2599999999999998
  0
3DFACE
  5
1E8
  8
0
 10
-1.5600000000000001
 20
4.4600000000000026
 30
3.2599999999999998
 11
-1.5600000000000001
 21
4.4600000000000009
 31
0.4200000000000004
 12
-1.6599999999999999
 22
4.4600000000000009
 32
0.42
 13
-1.6599999999999999
 23
4.46
 33
3.2599999999999998
  0
3DFACE
  5
1E9
  8
0
 10
1.6599999999999999
 20
-4.4599999999999982
 30
3.2599999999999998
 11
1.6599999999999999
 21
4.4599999999999991
 31
3.2599999999999998
 12
1.5600000000000001
 22
4.46
 32
3.2599999999999998
 13
1.5600000000000001
 23
-4.4600000000000009
 33
3.2599999999999998
  0
3DFACE
  5
1EB
  8
0
 10
1.6599999999999999
 20
4.4600000000000026
 30
3.2599999999999998
 11
1.6599999999999999
 21
4.4600000000000009
 31
0.4200000000000004
 12
1.5600000000000001
 22
4.4600000000000009
 32
0.42
 13
1.5600000000000001
 23
4.46
 33
3.2599999999999998
  0
3DFACE
  5
4A2
  8
0
 10
-1.25
 20
-2.4100000000000001
 30
1.29
 11
-1.25
 21
-2.4100000000000001
 31
0.24
 12
1.25
 22
-2.4100000000000001
 32
0.24
 13
1.25
 23
-2.4100000000000001
 33
1.29
  0
3DFACE
  5
4A3
  8
0
 10
1.25
 20
-2.4100000000000001
 30
1.29
 11
1.25
 21
-2.4100000000000001
 31
0.24
 12
1.25
 22
3.350000000000001
 32
0.24
 13
1.25
 23
3.350000000000001
 33
1.29
  0
3DFACE
  5
4A4
  8
0
 10
-1.25
 20
3.350000000000001
 30
0.24
 11
-1.25
 21
-2.4100000000000001
 31
0.24
 12
-1.25
 22
-2.4100000000000001
 32
1.29
 13
-1.25
 23
3.350000000000001
 33
1.29
  0
3DFACE
  5
4A6
  8
0
 10
1.25
 20
3.350000000000001
 30
1.29
 11
1.25
 21
3.350000000000001
 31
0.24
 12
-1.25
 22
3.350000000000001
 32
0.24
 13
-1.25
 23
3.350000000000001
 33
1.29
  0
3DFACE
  5
4A7
  8
0
 10
1.25
 20
3.350000000000001
 30
0.24
 11
1.25
 21
-2.4100000000000001
 31
0.24
 12
-1.25
 22
-2.4100000000000001
 32
0.24
 13
-1.25
 23
3.350000000000001
 33
0.24
  0
3DFACE
  5
4AA
  8
0
 10
1.5600000000000001
 20
4.8099999999999961
 30
1.29
 11
1.54
 21
4.9899999999999993
 31
1.29
 12
1.54
 22
4.9899999999999993
 32
1.29
 13
1.5600000000000001
 23
4.8099999999999961
 33
1.0499999999999989
  0
3DFACE
  5
4AB
  8
0
 10
-1.5600000000000001
 20
4.8099999999999961
 30
1.0499999999999989
 11
-1.54
 21
4.9899999999999993
 31
1.29
 12
-1.54
 22
4.9899999999999993
 32
1.29
 13
-1.5600000000000001
 23
4.8099999999999961
 33
1.29
  0
3DFACE
  5
4AC
  8
0
 10
1.5600000000000001
 20
4.46
 30
1.29
 11
1.5600000000000001
 21
4.8099999999999961
 31
1.29
 12
1.5600000000000001
 22
4.8099999999999961
 32
1.0499999999999989
 13
1.5600000000000001
 23
4.46
 33
0.42
  0
3DFACE
  5
4AD
  8
0
 10
-1.5600000000000001
 20
4.46
 30
0.42
 11
-1.5600000000000001
 21
4.8099999999999961
 31
1.0499999999999989
 12
-1.5600000000000001
 22
4.8099999999999961
 32
1.29
 13
-1.5600000000000001
 23
4.46
 33
1.29
  0
3DFACE
  5
4B0
  8
0
 10
-1.5600000000000001
 20
4.8099999999999987
 30
1.29
 11
-1.54
 21
4.9900000000000002
 31
1.29
 12
1.54
 22
4.9900000000000002
 32
1.29
 13
1.5600000000000001
 23
4.8099999999999961
 33
1.29
  0
3DFACE
  5
4B1
  8
0
 10
-1.5600000000000001
 20
-4.8099999999999978
 30
1.29
 11
-1.5600000000000001
 21
4.8099999999999961
 31
1.29
 12
1.5600000000000001
 22
4.8099999999999961
 32
1.29
 13
1.5600000000000001
 23
-4.8099999999999996
 33
1.29
  0
3DFACE
  5
4B2
  8
0
 10
-1.5600000000000001
 20
4.4599999999999982
 30
0.4200000000000001
 11
-1.5600000000000001
 21
-4.4599999999999991
 31
0.4199999999999993
 12
-1.6599999999999999
 22
-4.4600000000000009
 32
0.4199999999999989
 13
-1.6599999999999999
 23
4.46
 33
0.4199999999999998
  0
3DFACE
  5
4B3
  8
0
 10
1.6599999999999999
 20
4.4599999999999982
 30
0.4200000000000001
 11
1.6599999999999999
 21
-4.4599999999999991
 31
0.4199999999999993
 12
1.5600000000000001
 22
-4.4600000000000009
 32
0.4199999999999989
 13
1.5600000000000001
 23
4.4600000000000009
 33
0.4199999999999998
  0
3DFACE
  5
4B4
  8
0
 10
-1.5600000000000001
 20
4.4600000000000017
 30
1.2900000000000009
 11
-1.5600000000000001
 21
-4.46
 31
1.2900000000000009
 12
-1.5600000000000001
 22
-4.4599999999999991
 32
0.4199999999999993
 13
-1.5600000000000001
 23
4.4600000000000009
 33
0.4200000000000001
  0
3DFACE
  5
4B5
  8
0
 10
1.5600000000000001
 20
4.4599999999999964
 30
0.4199999999999986
 11
1.5600000000000001
 21
-4.46
 31
0.4199999999999977
 12
1.5600000000000001
 22
-4.46
 32
1.29
 13
1.5600000000000001
 23
4.4600000000000009
 33
1.29
  0
3DFACE
  5
4B7
  8
0
 10
-0.6900000000000003
 20
-5.7799999999999994
 30
1.29
 11
0.69
 21
-5.7799999999999994
 31
1.29
 12
0.69
 22
-5.7799999999999994
 32
3.419999999999999
 13
-0.6900000000000003
 23
-5.7799999999999994
 33
3.419999999999999
  0
3DFACE
  5
4B8
  8
0
 10
1.129999999999999
 20
-5.6100000000000012
 30
3.419999999999999
 11
0.8899999999999998
 21
-5.7299999999999978
 31
3.419999999999999
 12
0.8899999999999998
 22
-5.7299999999999978
 32
1.29
 13
1.129999999999999
 23
-5.6100000000000012
 33
1.29
  0
3DFACE
  5
4B9
  8
0
 10
-1.1299999999999999
 20
-5.6100000000000012
 30
1.29
 11
-0.8900000000000002
 21
-5.7299999999999978
 31
1.29
 12
-0.8900000000000002
 22
-5.7299999999999978
 32
3.419999999999999
 13
-1.1299999999999999
 23
-5.6100000000000012
 33
3.419999999999999
  0
3DFACE
  5
4BA
  8
0
 10
1.2599999999999989
 20
-5.4900000000000002
 30
3.419999999999999
 11
1.129999999999999
 21
-5.6100000000000012
 31
3.419999999999999
 12
1.129999999999999
 22
-5.6100000000000012
 32
1.29
 13
1.2599999999999989
 23
-5.4900000000000002
 33
1.29
  0
3DFACE
  5
4BB
  8
0
 10
-1.26
 20
-5.4900000000000002
 30
1.29
 11
-1.1299999999999999
 21
-5.6100000000000012
 31
1.29
 12
-1.1299999999999999
 22
-5.6100000000000012
 32
3.419999999999999
 13
-1.26
 23
-5.4900000000000002
 33
3.419999999999999
  0
3DFACE
  5
4BC
  8
0
 10
0.8899999999999998
 20
-5.7299999999999978
 30
3.419999999999999
 11
0.69
 21
-5.7799999999999994
 31
3.419999999999999
 12
0.69
 22
-5.7799999999999994
 32
1.29
 13
0.8899999999999998
 23
-5.7299999999999978
 33
1.29
  0
3DFACE
  5
4BD
  8
0
 10
-0.8900000000000002
 20
-5.7299999999999978
 30
1.29
 11
-0.6900000000000003
 21
-5.7799999999999994
 31
1.29
 12
-0.6900000000000003
 22
-5.7799999999999994
 32
3.419999999999999
 13
-0.8900000000000002
 23
-5.7299999999999978
 33
3.419999999999999
  0
3DFACE
  5
4BE
  8
0
 10
1.45
 20
-5.2400000000000002
 30
3.419999999999999
 11
1.2599999999999989
 21
-5.4900000000000002
 31
3.419999999999999
 12
1.2599999999999989
 22
-5.4900000000000002
 32
1.29
 13
1.45
 23
-5.2400000000000002
 33
1.29
  0
3DFACE
  5
4BF
  8
0
 10
-1.4499999999999991
 20
-5.2400000000000002
 30
1.29
 11
-1.26
 21
-5.4900000000000002
 31
1.29
 12
-1.26
 22
-5.4900000000000002
 32
3.419999999999999
 13
-1.4499999999999991
 23
-5.2400000000000002
 33
3.419999999999999
  0
3DFACE
  5
4C0
  8
0
 10
1.54
 20
-4.9900000000000002
 30
3.419999999999999
 11
1.45
 21
-5.2400000000000002
 31
3.419999999999999
 12
1.45
 22
-5.2400000000000002
 32
1.29
 13
1.54
 23
-4.9900000000000002
 33
1.29
  0
3DFACE
  5
4C1
  8
0
 10
-1.54
 20
-4.9900000000000002
 30
1.29
 11
-1.4499999999999991
 21
-5.2400000000000002
 31
1.29
 12
-1.4499999999999991
 22
-5.2400000000000002
 32
3.419999999999999
 13
-1.54
 23
-4.9900000000000002
 33
3.419999999999999
  0
3DFACE
  5
4C2
  8
0
 10
1.5600000000000001
 20
-4.8099999999999978
 30
3.419999999999999
 11
1.54
 21
-4.9900000000000002
 31
3.419999999999999
 12
1.54
 22
-4.9900000000000002
 32
1.29
 13
1.5600000000000001
 23
-4.8099999999999978
 33
1.05
  0
3DFACE
  5
4C3
  8
0
 10
-1.5600000000000001
 20
-4.8099999999999978
 30
1.05
 11
-1.54
 21
-4.9900000000000002
 31
1.29
 12
-1.54
 22
-4.9900000000000002
 32
3.419999999999999
 13
-1.5600000000000001
 23
-4.8099999999999978
 33
3.419999999999999
  0
3DFACE
  5
4C4
  8
0
 10
1.5600000000000001
 20
-4.4600000000000017
 30
3.419999999999999
 11
1.5600000000000001
 21
-4.8099999999999996
 31
3.419999999999999
 12
1.5600000000000001
 22
-4.8099999999999996
 32
1.05
 13
1.5600000000000001
 23
-4.4600000000000017
 33
0.42
  0
3DFACE
  5
4C5
  8
0
 10
-1.5600000000000001
 20
-4.4600000000000017
 30
0.42
 11
-1.5600000000000001
 21
-4.8099999999999996
 31
1.05
 12
-1.5600000000000001
 22
-4.8099999999999996
 32
3.419999999999999
 13
-1.5600000000000001
 23
-4.4600000000000017
 33
3.419999999999999
  0
3DFACE
  5
4D0
  8
0
 10
1.5600000000000001
 20
-4.4600000000000062
 30
3.2599999999999989
 11
1.5600000000000001
 21
-4.4600000000000017
 31
0.4200000000000004
 12
1.6599999999999999
 22
-4.4600000000000017
 32
0.42
 13
1.6599999999999999
 23
-4.4600000000000017
 33
3.2599999999999998
  0
3DFACE
  5
4D1
  8
0
 10
-1.6599999999999999
 20
-4.4600000000000062
 30
3.2599999999999989
 11
-1.6599999999999999
 21
-4.4600000000000017
 31
0.4200000000000004
 12
-1.5600000000000001
 22
-4.4600000000000017
 32
0.42
 13
-1.5600000000000001
 23
-4.4600000000000017
 33
3.2599999999999998
  0
3DFACE
  5
4F3
  8
0
 10
-1.5600000000000001
 20
-4.4600000000000017
 30
1.29
 11
-1.5600000000000001
 21
-4.8099999999999978
 31
1.29
 12
-1.5600000000000001
 22
-4.8099999999999978
 32
1.0499999999999989
 13
-1.5600000000000001
 23
-4.4600000000000017
 33
0.42
  0
3DFACE
  5
4F4
  8
0
 10
1.5600000000000001
 20
-4.4600000000000017
 30
0.42
 11
1.5600000000000001
 21
-4.8099999999999978
 31
1.0499999999999989
 12
1.5600000000000001
 22
-4.8099999999999978
 32
1.29
 13
1.5600000000000001
 23
-4.4600000000000017
 33
1.29
  0
3DFACE
  5
56B
  8
0
 10
-1.5600000000000001
 20
-4.8099999999999978
 30
1.29
 11
-1.54
 21
-4.9900000000000002
 31
1.29
 12
-1.54
 22
-4.9900000000000002
 32
1.29
 13
-1.5600000000000001
 23
-4.8099999999999978
 33
1.0499999999999989
  0
3DFACE
  5
56C
  8
0
 10
1.5600000000000001
 20
-4.8099999999999978
 30
1.0499999999999989
 11
1.54
 21
-4.9900000000000002
 31
1.29
 12
1.54
 22
-4.9900000000000002
 32
1.29
 13
1.5600000000000001
 23
-4.8099999999999978
 33
1.29
  0
3DFACE
  5
57C
  8
0
 10
1.5600000000000001
 20
-4.8099999999999996
 30
1.29
 11
1.54
 21
-4.9900000000000011
 31
1.29
 12
-1.54
 22
-4.9900000000000011
 32
1.29
 13
-1.5600000000000001
 23
-4.8099999999999978
 33
1.29
  0
3DFACE
  5
57D
  8
0
 10
1.2599999999999989
 20
-5.4900000000000002
 30
1.29
 11
1.129999999999999
 21
-5.6100000000000012
 31
1.29
 12
-1.1299999999999999
 22
-5.6100000000000012
 32
1.29
 13
-1.26
 23
-5.4900000000000002
 33
1.29
  0
3DFACE
  5
57E
  8
0
 10
1.129999999999999
 20
-5.6100000000000012
 30
1.29
 11
0.8899999999999998
 21
-5.7299999999999978
 31
1.29
 12
-0.8900000000000002
 22
-5.7299999999999978
 32
1.29
 13
-1.1299999999999999
 23
-5.6100000000000012
 33
1.29
  0
3DFACE
  5
57F
  8
0
 10
0.8899999999999998
 20
-5.7299999999999978
 30
1.29
 11
0.69
 21
-5.7799999999999994
 31
1.29
 12
-0.6900000000000003
 22
-5.7799999999999994
 32
1.29
 13
-0.8900000000000002
 23
-5.7299999999999978
 33
1.29
  0
3DFACE
  5
580
  8
0
 10
1.45
 20
-5.2400000000000002
 30
1.29
 11
1.2599999999999989
 21
-5.4900000000000002
 31
1.29
 12
-1.26
 22
-5.4900000000000002
 32
1.29
 13
-1.4499999999999991
 23
-5.2400000000000002
 33
1.29
  0
3DFACE
  5
581
  8
0
 10
1.54
 20
-4.9900000000000002
 30
1.29
 11
1.45
 21
-5.2400000000000002
 31
1.29
 12
-1.4499999999999991
 22
-5.2400000000000002
 32
1.29
 13
-1.54
 23
-4.9900000000000002
 33
1.29
  0
3DFACE
  5
606
  8
0
 10
0.6499999999999999
 20
-5.780000000000002
 30
3.419999999999999
 11
0.65
 21
-4.8099999999999996
 31
3.419999999999999
 12
0.46
 22
-4.8099999999999996
 32
4.0599999999999996
 13
0.4599999999999999
 23
-5.780000000000002
 33
4.0599999999999996
  0
3DFACE
  5
607
  8
0
 10
-0.4600000000000001
 20
-4.8099999999999996
 30
4.0599999999999996
 11
-0.65
 21
-4.8099999999999996
 31
3.419999999999999
 12
-0.6500000000000004
 22
-5.780000000000002
 32
3.419999999999999
 13
-0.4600000000000002
 23
-5.780000000000002
 33
4.0599999999999996
  0
3DFACE
  5
608
  8
0
 10
-0.4600000000000002
 20
-5.780000000000002
 30
4.0599999999999996
 11
-0.6500000000000004
 21
-5.780000000000002
 31
3.419999999999999
 12
0.6499999999999999
 22
-5.780000000000002
 32
3.419999999999999
 13
0.4599999999999999
 23
-5.780000000000002
 33
4.0599999999999996
  0
3DFACE
  5
609
  8
0
 10
0.5900000000000011
 20
-4.8100000000000023
 30
3.9900000000000002
 11
0.4600000000000002
 21
-4.8100000000000023
 31
4.0599999999999996
 12
0.69
 22
-5.7799999999999994
 32
3.419999999999999
 13
0.8899999999999998
 23
-5.7299999999999978
 33
3.419999999999999
  0
3DFACE
  5
60A
  8
0
 10
0.4600000000000037
 20
-4.8100000000000023
 30
4.0599999999999978
 11
0.46
 21
-4.8099999999999996
 31
4.0600000000000014
 12
0.6499999999999999
 22
-5.7799999999999994
 32
3.419999999999999
 13
0.69
 23
-5.7799999999999994
 33
3.419999999999999
  0
3DFACE
  5
60B
  8
0
 10
0.8700000000000002
 20
-4.8100000000000023
 30
3.899999999999999
 11
0.5900000000000012
 21
-4.8100000000000023
 31
3.9900000000000002
 12
0.8899999999999998
 22
-5.7299999999999978
 32
3.419999999999999
 13
1.129999999999999
 23
-5.6100000000000012
 33
3.419999999999999
  0
3DFACE
  5
60C
  8
0
 10
0.8700000000000002
 20
-4.8100000000000041
 30
3.899999999999999
 11
0.8700000000000002
 21
-4.8100000000000023
 31
3.899999999999999
 12
1.129999999999999
 22
-5.6100000000000012
 32
3.419999999999999
 13
1.2599999999999989
 23
-5.4900000000000002
 33
3.419999999999999
  0
3DFACE
  5
60D
  8
0
 10
1.1599999999999999
 20
-4.8100000000000023
 30
3.7599999999999989
 11
0.8699999999999997
 21
-4.8100000000000023
 31
3.8999999999999999
 12
1.2599999999999989
 22
-5.4900000000000002
 32
3.419999999999999
 13
1.45
 23
-5.2400000000000002
 33
3.419999999999999
  0
3DFACE
  5
60E
  8
0
 10
-0.8900000000000002
 20
-5.7299999999999978
 30
3.419999999999999
 11
-0.6900000000000003
 21
-5.7799999999999994
 31
3.419999999999999
 12
-0.4600000000000001
 22
-4.8100000000000041
 32
4.0599999999999996
 13
-0.59
 23
-4.8100000000000041
 33
3.9900000000000002
  0
3DFACE
  5
60F
  8
0
 10
-0.6900000000000001
 20
-5.7799999999999994
 30
3.419999999999999
 11
-0.65
 21
-5.7799999999999994
 31
3.419999999999999
 12
-0.4599999999999985
 22
-4.8099999999999996
 32
4.0600000000000014
 13
-0.4599999999999997
 23
-4.8099999999999996
 33
4.0600000000000014
  0
3DFACE
  5
610
  8
0
 10
-1.1299999999999999
 20
-5.6100000000000012
 30
3.419999999999999
 11
-0.8900000000000002
 21
-5.7299999999999978
 31
3.419999999999999
 12
-0.5900000000000018
 22
-4.8100000000000041
 32
3.9899999999999989
 13
-0.8699999999999999
 23
-4.8100000000000041
 33
3.899999999999999
  0
3DFACE
  5
611
  8
0
 10
1.46
 20
-4.8100000000000041
 30
3.5599999999999992
 11
1.1599999999999999
 21
-4.8100000000000023
 31
3.7599999999999989
 12
1.45
 22
-5.2400000000000002
 32
3.419999999999999
 13
1.54
 23
-4.9900000000000002
 33
3.419999999999999
  0
3DFACE
  5
612
  8
0
 10
-1.26
 20
-5.4900000000000002
 30
3.419999999999999
 11
-1.1299999999999999
 21
-5.6100000000000012
 31
3.419999999999999
 12
-0.8699999999999996
 22
-4.8100000000000023
 32
3.899999999999999
 13
-0.8699999999999996
 23
-4.8100000000000023
 33
3.899999999999999
  0
3DFACE
  5
613
  8
0
 10
-1.4499999999999991
 20
-5.2400000000000002
 30
3.419999999999999
 11
-1.26
 21
-5.4900000000000002
 31
3.419999999999999
 12
-0.8699999999999986
 22
-4.8099999999999978
 32
3.9000000000000021
 13
-1.159999999999999
 23
-4.8100000000000023
 33
3.7599999999999989
  0
3DFACE
  5
614
  8
0
 10
-1.54
 20
-4.9900000000000002
 30
3.419999999999999
 11
-1.4499999999999991
 21
-5.2400000000000002
 31
3.419999999999999
 12
-1.1599999999999979
 22
-4.8099999999999978
 32
3.760000000000002
 13
-1.4599999999999991
 23
-4.8100000000000023
 33
3.5600000000000001
  0
3DFACE
  5
615
  8
0
 10
1.46
 20
-4.8100000000000023
 30
3.5599999999999992
 11
1.46
 21
-4.8100000000000023
 31
3.5599999999999992
 12
1.54
 22
-4.9900000000000002
 32
3.419999999999999
 13
1.5600000000000001
 23
-4.8099999999999907
 33
3.4199999999999848
  0
3DFACE
  5
616
  8
0
 10
-1.5600000000000001
 20
-4.8099999999999978
 30
3.419999999999999
 11
-1.54
 21
-4.9900000000000002
 31
3.419999999999999
 12
-1.4599999999999991
 22
-4.8100000000000041
 32
3.5599999999999992
 13
-1.4599999999999991
 23
-4.8100000000000023
 33
3.5599999999999992
  0
3DFACE
  5
61B
  8
0
 10
0.4599999999999999
 20
-5.780000000000002
 30
4.0599999999999996
 11
0.46
 21
-4.8099999999999996
 31
4.0599999999999996
 12
-0.4600000000000001
 22
-4.8099999999999996
 32
4.0599999999999996
 13
-0.4600000000000002
 23
-5.780000000000002
 33
4.0599999999999996
  0
3DFACE
  5
61C
  8
0
 10
-0.4300000000000001
 20
-5.29
 30
4.0599999999999996
 11
-0.3040559159102156
 21
-5.5940559159102161
 31
4.0599999999999996
 12
-0.3040559159102156
 22
-5.5940559159102161
 32
4.1399999999999988
 13
-0.4300000000000001
 23
-5.29
 33
4.1399999999999988
  0
3DFACE
  5
61D
  8
0
 10
-0.3040559159102156
 20
-5.5940559159102161
 30
4.0599999999999996
 11
-0.0000000000000002
 21
-5.7199999999999998
 31
4.0599999999999996
 12
-0.0000000000000002
 22
-5.7199999999999998
 32
4.1399999999999988
 13
-0.3040559159102156
 23
-5.5940559159102161
 33
4.1399999999999988
  0
3DFACE
  5
61E
  8
0
 10
-0.0000000000000002
 20
-5.7199999999999998
 30
4.0599999999999996
 11
0.3040559159102152
 21
-5.5940559159102161
 31
4.0599999999999996
 12
0.3040559159102152
 22
-5.5940559159102161
 32
4.1399999999999988
 13
-0.0000000000000002
 23
-5.7199999999999998
 33
4.1399999999999988
  0
3DFACE
  5
61F
  8
0
 10
0.3040559159102152
 20
-5.5940559159102161
 30
4.0599999999999996
 11
0.4299999999999999
 21
-5.29
 31
4.0599999999999996
 12
0.4299999999999999
 22
-5.29
 32
4.1399999999999988
 13
0.3040559159102152
 23
-5.5940559159102161
 33
4.1399999999999988
  0
3DFACE
  5
620
  8
0
 10
0.4299999999999999
 20
-5.29
 30
4.0599999999999996
 11
0.3040559159102154
 21
-4.9859440840897848
 31
4.0599999999999996
 12
0.3040559159102154
 22
-4.9859440840897848
 32
4.1399999999999988
 13
0.4299999999999999
 23
-5.29
 33
4.1399999999999988
  0
3DFACE
  5
621
  8
0
 10
0.3040559159102154
 20
-4.9859440840897848
 30
4.0599999999999996
 11
0.0
 21
-4.8600000000000012
 31
4.0599999999999996
 12
0.0
 22
-4.8600000000000012
 32
4.1399999999999988
 13
0.3040559159102154
 23
-4.9859440840897848
 33
4.1399999999999988
  0
3DFACE
  5
622
  8
0
 10
0.0
 20
-4.8600000000000012
 30
4.0599999999999996
 11
-0.3040559159102154
 21
-4.9859440840897848
 31
4.0599999999999996
 12
-0.3040559159102154
 22
-4.9859440840897848
 32
4.1399999999999988
 13
0.0
 23
-4.8600000000000012
 33
4.1399999999999988
  0
3DFACE
  5
623
  8
0
 10
-0.3040559159102154
 20
-4.9859440840897848
 30
4.0599999999999996
 11
-0.4300000000000001
 21
-5.29
 31
4.0599999999999996
 12
-0.4300000000000001
 22
-5.29
 32
4.1399999999999988
 13
-0.3040559159102154
 23
-4.9859440840897848
 33
4.1399999999999988
  0
3DFACE
  5
624
  8
0
 10
0.4299999999999999
 20
-5.29
 30
4.1399999999999988
 11
0.3040559159102154
 21
-4.9859440840897848
 31
4.1399999999999988
 12
0.0
 22
-4.8600000000000012
 32
4.1399999999999988
 13
0.3040559159102152
 23
-5.5940559159102161
 33
4.1399999999999988
  0
3DFACE
  5
625
  8
0
 10
0.3040559159102152
 20
-5.5940559159102161
 30
4.1399999999999988
 11
0.0
 21
-4.8600000000000012
 31
4.1399999999999988
 12
-0.3040559159102154
 22
-4.9859440840897848
 32
4.1399999999999988
 13
-0.0000000000000002
 23
-5.7199999999999998
 33
4.1399999999999988
  0
3DFACE
  5
626
  8
0
 10
-0.0000000000000002
 20
-5.7199999999999998
 30
4.1399999999999988
 11
-0.3040559159102154
 21
-4.9859440840897848
 31
4.1399999999999988
 12
-0.4300000000000001
 22
-5.29
 32
4.1399999999999988
 13
-0.3040559159102156
 23
-5.5940559159102161
 33
4.1399999999999988
  0
3DFACE
  5
63B
  8
0
 10
0.25
 20
5.2699999999999996
 30
1.2099999999999991
 11
0.125
 21
5.4865063509461089
 31
1.2099999999999991
 12
0.125
 22
5.4865063509461089
 32
1.29
 13
0.25
 23
5.2699999999999996
 33
1.29
  0
3DFACE
  5
63C
  8
0
 10
0.125
 20
5.4865063509461089
 30
1.2099999999999991
 11
-0.125
 21
5.4865063509461089
 31
1.2099999999999991
 12
-0.125
 22
5.4865063509461089
 32
1.29
 13
0.125
 23
5.4865063509461089
 33
1.29
  0
3DFACE
  5
63D
  8
0
 10
-0.125
 20
5.4865063509461089
 30
1.2099999999999991
 11
-0.25
 21
5.2699999999999996
 31
1.2099999999999991
 12
-0.25
 22
5.2699999999999996
 32
1.29
 13
-0.125
 23
5.4865063509461089
 33
1.29
  0
3DFACE
  5
63E
  8
0
 10
-0.25
 20
5.2699999999999996
 30
1.2099999999999991
 11
-0.1250000000000001
 21
5.0534936490538911
 31
1.2099999999999991
 12
-0.1250000000000001
 22
5.0534936490538911
 32
1.29
 13
-0.25
 23
5.2699999999999996
 33
1.29
  0
3DFACE
  5
63F
  8
0
 10
-0.1250000000000001
 20
5.0534936490538911
 30
1.2099999999999991
 11
0.1249999999999998
 21
5.0534936490538911
 31
1.2099999999999991
 12
0.1249999999999998
 22
5.0534936490538911
 32
1.29
 13
-0.1250000000000001
 23
5.0534936490538911
 33
1.29
  0
3DFACE
  5
640
  8
0
 10
0.1249999999999998
 20
5.0534936490538911
 30
1.2099999999999991
 11
0.25
 21
5.2699999999999996
 31
1.2099999999999991
 12
0.25
 22
5.2699999999999996
 32
1.29
 13
0.1249999999999998
 23
5.0534936490538911
 33
1.29
  0
3DFACE
  5
641
  8
0
 10
0.1249999999999998
 20
-5.4865063509461089
 30
1.2099999999999991
 11
0.25
 21
-5.2699999999999996
 31
1.2099999999999991
 12
0.25
 22
-5.2699999999999996
 32
1.29
 13
0.1249999999999998
 23
-5.4865063509461089
 33
1.29
  0
3DFACE
  5
642
  8
0
 10
-0.25
 20
-5.2699999999999996
 30
1.2099999999999991
 11
-0.1250000000000001
 21
-5.4865063509461089
 31
1.2099999999999991
 12
-0.1250000000000001
 22
-5.4865063509461089
 32
1.29
 13
-0.25
 23
-5.2699999999999996
 33
1.29
  0
3DFACE
  5
643
  8
0
 10
-0.125
 20
-5.0534936490538911
 30
1.2099999999999991
 11
-0.25
 21
-5.2699999999999996
 31
1.2099999999999991
 12
-0.25
 22
-5.2699999999999996
 32
1.29
 13
-0.125
 23
-5.0534936490538911
 33
1.29
  0
3DFACE
  5
644
  8
0
 10
0.25
 20
-5.2699999999999996
 30
1.2099999999999991
 11
0.125
 21
-5.0534936490538911
 31
1.2099999999999991
 12
0.125
 22
-5.0534936490538911
 32
1.29
 13
0.25
 23
-5.2699999999999996
 33
1.29
  0
3DFACE
  5
645
  8
0
 10
-0.1250000000000001
 20
-5.4865063509461089
 30
1.2099999999999991
 11
0.1249999999999998
 21
-5.4865063509461089
 31
1.2099999999999991
 12
0.1249999999999998
 22
-5.4865063509461089
 32
1.29
 13
-0.1250000000000001
 23
-5.4865063509461089
 33
1.29
  0
3DFACE
  5
646
  8
0
 10
0.125
 20
-5.0534936490538911
 30
1.2099999999999991
 11
-0.125
 21
-5.0534936490538911
 31
1.2099999999999991
 12
-0.125
 22
-5.0534936490538911
 32
1.29
 13
0.125
 23
-5.0534936490538911
 33
1.29
  0
VIEWPORT
  5
2E
 67
     1
  8
0
 10
144.7270812988281
 20
101.2295806407928
 30
0.0
 40
391.13550988316581
 41
222.15178063964839
 68
     2
 69
     1
1001
ACAD
1000
MVIEW
1002
{
1070
    16
1010
0.0
1020
0.0
1030
0.0
1010
0.0
1020
0.0
1030
1.0
1040
0.0
1040
222.15178063964839
1040
144.7270812988281
1040
101.2295806407928
1040
50.0
1040
0.0
1040
0.0
1070
     0
1070
   100
1070
     1
1070
     1
1070
     0
1070
     0
1070
     0
1070
     0
1040
0.0
1040
0.0
1040
0.0
1040
10.0
1040
10.0
1040
10.0
1040
10.0
1070
     0
1002
{
1002
}
1002
}
  0
VIEWPORT
  5
30
 67
     1
  8
0
 10
139.22375631332389
 20
100.8062499761581
 30
0.0
 40
222.75801010131829
 41
161.289999961853
 68
     1
 69
     2
1001
ACAD
1000
MVIEW
1002
{
1070
    16
1010
0.0
1020
0.0
1030
0.0
1010
0.0
1020
0.0
1030
1.0
1040
0.0
1040
307.49010134148989
1040
210.0
1040
148.5
1040
50.0
1040
0.0
1040
0.0
1070
     0
1070
   100
1070
     1
1070
     3
1070
     0
1070
     1
1070
     0
1070
     0
1040
0.0
1040
0.0
1040
0.0
1040
10.0
1040
10.0
1040
10.0
1040
10.0
1070
     0
1002
{
1002
}
1002
}
  0
ENDSEC
  0
EOF
