  0
SECTION
  2
HEADER
  9
$ACADVER
  1
AC1009
  9
$INSBASE
 10
0.0
 20
0.0
 30
0.0
  9
$EXTMIN
 10
-0.9699999999999999
 20
-4.5100000000000007
 30
-12.69932
  9
$EXTMAX
 10
1.0
 20
9.1500000000000021
 30
14.679999999999991
  9
$LIMMIN
 10
0.0
 20
0.0
  9
$LIMMAX
 10
420.0
 20
297.0
  9
$ORTHOMODE
 70
     1
  9
$REGENMODE
 70
     1
  9
$FILLMODE
 70
     1
  9
$QTEXTMODE
 70
     0
  9
$MIRRTEXT
 70
     1
  9
$DRAGMODE
 70
     2
  9
$LTSCALE
 40
1.0
  9
$OSMODE
 70
    35
  9
$ATTMODE
 70
     1
  9
$TEXTSIZE
 40
2.5
  9
$TRACEWID
 40
1.0
  9
$TEXTSTYLE
  7
STANDARD
  9
$CLAYER
  8
TAIL
  9
$CELTYPE
  6
BYLAYER
  9
$CECOLOR
 62
   256
  9
$DIMSCALE
 40
1.0
  9
$DIMASZ
 40
2.5
  9
$DIMEXO
 40
0.625
  9
$DIMDLI
 40
3.75
  9
$DIMRND
 40
0.0
  9
$DIMDLE
 40
0.0
  9
$DIMEXE
 40
1.25
  9
$DIMTP
 40
0.0
  9
$DIMTM
 40
0.0
  9
$DIMTXT
 40
2.5
  9
$DIMCEN
 40
2.5
  9
$DIMTSZ
 40
0.0
  9
$DIMTOL
 70
     0
  9
$DIMLIM
 70
     0
  9
$DIMTIH
 70
     0
  9
$DIMTOH
 70
     0
  9
$DIMSE1
 70
     0
  9
$DIMSE2
 70
     0
  9
$DIMTAD
 70
     1
  9
$DIMZIN
 70
     8
  9
$DIMBLK
  1

  9
$DIMASO
 70
     1
  9
$DIMSHO
 70
     1
  9
$DIMPOST
  1

  9
$DIMAPOST
  1

  9
$DIMALT
 70
     0
  9
$DIMALTD
 70
     3
  9
$DIMALTF
 40
0.03937007874016
  9
$DIMLFAC
 40
1.0
  9
$DIMTOFL
 70
     1
  9
$DIMTVP
 40
0.0
  9
$DIMTIX
 70
     0
  9
$DIMSOXD
 70
     0
  9
$DIMSAH
 70
     0
  9
$DIMBLK1
  1

  9
$DIMBLK2
  1

  9
$DIMSTYLE
  2
ISO-25
  9
$DIMCLRD
 70
     0
  9
$DIMCLRE
 70
     0
  9
$DIMCLRT
 70
     0
  9
$DIMTFAC
 40
1.0
  9
$DIMGAP
 40
0.625
  9
$LUNITS
 70
     2
  9
$LUPREC
 70
     4
  9
$SKETCHINC
 40
1.0
  9
$FILLETRAD
 40
10.0
  9
$AUNITS
 70
     0
  9
$AUPREC
 70
     0
  9
$MENU
  1
.
  9
$ELEVATION
 40
0.0
  9
$PELEVATION
 40
0.0
  9
$THICKNESS
 40
0.0
  9
$LIMCHECK
 70
     0
  9
$BLIPMODE
 70
     0
  9
$CHAMFERA
 40
10.0
  9
$CHAMFERB
 40
10.0
  9
$SKPOLY
 70
     0
  9
$TDCREATE
 40
2457667.0590383331
  9
$TDUPDATE
 40
2457674.536228634
  9
$TDINDWG
 40
0.7235102199
  9
$TDUSRTIMER
 40
0.7235102199
  9
$USRTIMER
 70
     1
  9
$ANGBASE
 50
0.0
  9
$ANGDIR
 70
     0
  9
$PDMODE
 70
     0
  9
$PDSIZE
 40
0.0
  9
$PLINEWID
 40
0.0
  9
$COORDS
 70
     1
  9
$SPLFRAME
 70
     0
  9
$SPLINETYPE
 70
     6
  9
$SPLINESEGS
 70
     8
  9
$ATTDIA
 70
     1
  9
$ATTREQ
 70
     1
  9
$HANDLING
 70
-16383
  9
$HANDSEED
  5
3A0B
  9
$SURFTAB1
 70
     6
  9
$SURFTAB2
 70
     6
  9
$SURFTYPE
 70
     6
  9
$SURFU
 70
     6
  9
$SURFV
 70
     6
  9
$UCSNAME
  2

  9
$UCSORG
 10
0.0
 20
0.0
 30
0.0
  9
$UCSXDIR
 10
0.0
 20
-1.0
 30
0.0
  9
$UCSYDIR
 10
0.0
 20
0.0
 30
1.0
  9
$PUCSNAME
  2

  9
$PUCSORG
 10
0.0
 20
0.0
 30
0.0
  9
$PUCSXDIR
 10
1.0
 20
0.0
 30
0.0
  9
$PUCSYDIR
 10
0.0
 20
1.0
 30
0.0
  9
$USERI1
 70
     0
  9
$USERI2
 70
     0
  9
$USERI3
 70
     0
  9
$USERI4
 70
     0
  9
$USERI5
 70
     0
  9
$USERR1
 40
0.0
  9
$USERR2
 40
0.0
  9
$USERR3
 40
0.0
  9
$USERR4
 40
0.0
  9
$USERR5
 40
0.0
  9
$WORLDVIEW
 70
     1
  9
$SHADEDGE
 70
     3
  9
$SHADEDIF
 70
    70
  9
$TILEMODE
 70
     1
  9
$MAXACTVP
 70
    64
  9
$PLIMCHECK
 70
     0
  9
$PEXTMIN
 10
27.844751262664801
 20
20.161249995231621
 30
0.0
  9
$PEXTMAX
 10
250.60276136398309
 20
181.4512499570846
 30
0.0
  9
$PLIMMIN
 10
-3.757080078125
 20
-3.7570831775665279
  9
$PLIMMAX
 10
293.21124267578119
 20
206.21624445915219
  9
$UNITMODE
 70
     0
  9
$VISRETAIN
 70
     1
  9
$PLINEGEN
 70
     0
  9
$PSLTSCALE
 70
     1
  0
ENDSEC
  0
SECTION
  2
TABLES
  0
TABLE
  2
VPORT
 70
     8
  0
VPORT
  2
*ACTIVE
 70
     0
 10
0.0
 20
0.0
 11
1.0
 21
1.0
 12
11.3737724579615
 22
4.9069114887638596
 13
0.0
 23
0.0
 14
0.01
 24
0.01
 15
1.0
 25
1.0
 16
-1.0
 26
0.0
 36
0.0
 17
0.0
 27
0.0
 37
0.0
 40
41.811158022921632
 41
2.1655092592592591
 42
50.0
 43
0.0
 44
0.0
 50
0.0
 51
0.0
 71
     0
 72
   100
 73
     1
 74
     3
 75
     1
 76
     1
 77
     0
 78
     0
  0
ENDTAB
  0
TABLE
  2
LTYPE
 70
     1
  0
LTYPE
  2
CONTINUOUS
 70
     0
  3
Solid line
 72
    65
 73
     0
 40
0.0
  0
ENDTAB
  0
TABLE
  2
LAYER
 70
    13
  0
LAYER
  2
0
 70
     0
 62
     7
  6
CONTINUOUS
  0
LAYER
  2
DRAWING
 70
     0
 62
     9
  6
CONTINUOUS
  0
LAYER
  2
TURRET
 70
     0
 62
     2
  6
CONTINUOUS
  0
LAYER
  2
SLEEVE
 70
     0
 62
     5
  6
CONTINUOUS
  0
LAYER
  2
GUN
 70
     0
 62
     1
  6
CONTINUOUS
  0
LAYER
  2
SLEEVE_39
 70
     0
 62
     5
  6
CONTINUOUS
  0
LAYER
  2
TMP
 70
     0
 62
     4
  6
CONTINUOUS
  0
LAYER
  2
SUSPENSION
 70
     0
 62
     5
  6
CONTINUOUS
  0
LAYER
  2
WHEELS
 70
     0
 62
     2
  6
CONTINUOUS
  0
LAYER
  2
TRACKS
 70
     0
 62
     3
  6
CONTINUOUS
  0
LAYER
  2
FENDERS
 70
     0
 62
     6
  6
CONTINUOUS
  0
LAYER
  2
TAIL
 70
     0
 62
     1
  6
CONTINUOUS
  0
LAYER
  2
T2
 70
     0
 62
     1
  6
CONTINUOUS
  0
ENDTAB
  0
TABLE
  2
STYLE
 70
     1
  0
STYLE
  2
STANDARD
 70
     0
 40
0.0
 41
1.0
 50
0.0
 71
     0
 42
2.5
  3
txt
  4

  0
ENDTAB
  0
TABLE
  2
VIEW
 70
     0
  0
ENDTAB
  0
TABLE
  2
UCS
 70
     0
  0
ENDTAB
  0
TABLE
  2
APPID
 70
     1
  0
APPID
  2
ACAD
 70
     0
  0
ENDTAB
  0
TABLE
  2
DIMSTYLE
 70
     1
  0
DIMSTYLE
  2
ISO-25
 70
     0
  3

  4

  5

  6

  7

 40
1.0
 41
2.5
 42
0.625
 43
3.75
 44
1.25
 45
0.0
 46
0.0
 47
0.0
 48
0.0
140
2.5
141
2.5
142
0.0
143
0.03937007874016
144
1.0
145
0.0
146
1.0
147
0.625
 71
     0
 72
     0
 73
     0
 74
     0
 75
     0
 76
     0
 77
     1
 78
     8
170
     0
171
     3
172
     1
173
     0
174
     0
175
     0
176
     0
177
     0
178
     0
  0
ENDTAB
  0
ENDSEC
  0
SECTION
  2
BLOCKS
  0
BLOCK
  8
0
  2
$MODEL_SPACE
 70
     0
 10
0.0
 20
0.0
 30
0.0
  3
$MODEL_SPACE
  1

  0
ENDBLK
  5
21
  8
0
  0
BLOCK
 67
     1
  8
0
  2
$PAPER_SPACE
 70
     0
 10
0.0
 20
0.0
 30
0.0
  3
$PAPER_SPACE
  1

  0
ENDBLK
  5
1D
 67
     1
  8
0
  0
ENDSEC
  0
SECTION
  2
ENTITIES
  0
3DFACE
  5
35F9
  8
TAIL
 10
0.13
 20
2.9451335141299082
 30
1.1246000213894021
 11
0.13
 21
1.9443387475872169
 31
1.129904092478446
 12
0.17
 22
1.9443387475872169
 32
1.129904092478446
 13
0.17
 23
2.9451335141299082
 33
1.1246000213894021
  0
3DFACE
  5
362B
  8
TAIL
 10
0.08
 20
1.719363425165662
 30
1.1310964299519191
 11
0.08
 21
1.7046189375110861
 31
1.117691287268443
 12
0.12
 22
1.7046189375110861
 32
1.117691287268443
 13
0.12
 23
1.719363425165662
 33
1.1310964299519191
  0
3DFACE
  5
362C
  8
TAIL
 10
0.08
 20
1.7046189375110861
 30
1.117691287268443
 11
0.08
 21
1.7023229472670369
 31
1.0960628178332641
 12
0.12
 22
1.7023229472670369
 32
1.0960628178332641
 13
0.12
 23
1.7046189375110861
 33
1.117691287268443
  0
3DFACE
  5
362D
  8
TAIL
 10
0.13
 20
1.960294462824967
 30
0.6729921896201557
 11
0.13
 21
2.0982758569417661
 31
0.4467041245814187
 12
0.17
 22
2.0982758569417661
 32
0.4467041245814187
 13
0.17
 23
1.960294462824967
 33
0.6729921896201557
  0
3DFACE
  5
362E
  8
TAIL
 10
0.13
 20
2.0982758569417661
 30
0.4467041245814187
 11
0.13
 21
1.929498711787748
 31
0.4087187824458163
 12
0.17
 22
1.929498711787748
 32
0.4087187824458163
 13
0.17
 23
2.0982758569417661
 33
0.4467041245814187
  0
3DFACE
  5
362F
  8
TAIL
 10
0.1299999999999994
 20
1.929498711787748
 30
0.4087187824458163
 11
0.1299999999999994
 21
1.8199147157826729
 31
0.3948859295383502
 12
0.1699999999999995
 22
1.8199147157826729
 32
0.3948859295383502
 13
0.1699999999999995
 23
1.929498711787748
 33
0.4087187824458163
  0
3DFACE
  5
3630
  8
TAIL
 10
0.1299999999999994
 20
1.8199147157826729
 30
0.3948859295383502
 11
0.1299999999999994
 21
1.7699451744317181
 31
0.3931409547032252
 12
0.1699999999999995
 22
1.7699451744317181
 32
0.3931409547032252
 13
0.1699999999999995
 23
1.8199147157826729
 33
0.3948859295383502
  0
3DFACE
  5
3631
  8
TAIL
 10
0.1299999999999994
 20
1.7699451744317181
 30
0.3931409547032252
 11
0.1299999999999994
 21
1.709632729843547
 31
0.4010408931712661
 12
0.1699999999999995
 22
1.709632729843547
 32
0.4010408931712661
 13
0.1699999999999995
 23
1.7699451744317181
 33
0.3931409547032252
  0
3DFACE
  5
3632
  8
TAIL
 10
0.13
 20
2.126235922488342
 30
0.5056438562180351
 11
0.13
 21
1.956466136903916
 31
0.7826211003449443
 12
0.17
 22
1.956466136903916
 32
0.7826211003449443
 13
0.17
 23
2.126235922488342
 33
0.5056438562180351
  0
3DFACE
  5
3633
  8
TAIL
 10
0.0991583040330589
 20
1.8452013895373529
 30
0.9641481193488157
 11
0.1194680567913867
 21
1.910352250376524
 31
1.077100656082125
 12
0.1594680567913868
 22
1.9103522503765129
 32
1.077100656082105
 13
0.139158304033059
 23
1.8452013895373529
 33
0.9641481193488152
  0
3DFACE
  5
3634
  8
TAIL
 10
0.13
 20
1.9461868765108099
 30
1.076980604522952
 11
0.13
 21
2.1363249341784898
 31
1.0763436125199941
 12
0.17
 22
2.1363249341784898
 32
1.0763436125199941
 13
0.17
 23
1.9461868765108099
 33
1.076980604522952
  0
3DFACE
  5
3635
  8
TAIL
 10
0.13
 20
2.1363249341784898
 30
1.0763436125199941
 11
0.13
 21
2.126235922488342
 31
0.5056438562180351
 12
0.17
 22
2.126235922488342
 32
0.5056438562180351
 13
0.17
 23
2.1363249341784898
 33
1.0763436125199941
  0
3DFACE
  5
3636
  8
TAIL
 10
0.13
 20
2.3151677023812409
 30
1.0759757913923731
 11
0.13
 21
2.5519789341451311
 31
1.0745035237824929
 12
0.17
 22
2.5519789341451311
 32
1.0745035237824929
 13
0.17
 23
2.3151677023812409
 33
1.0759757913923731
  0
3DFACE
  5
3637
  8
TAIL
 10
0.13
 20
2.2752069535351152
 30
1.021156906846566
 11
0.13
 21
2.3151677023812409
 31
1.0759757913923731
 12
0.17
 22
2.3151677023812409
 32
1.0759757913923731
 13
0.17
 23
2.2752069535351152
 33
1.021156906846566
  0
3DFACE
  5
3638
  8
TAIL
 10
0.13
 20
2.6103535082552991
 30
0.6826471419253158
 11
0.13
 21
2.2752069535351152
 31
1.021156906846566
 12
0.17
 22
2.2752069535351152
 32
1.021156906846566
 13
0.17
 23
2.6103535082552991
 33
0.6826471419253158
  0
3DFACE
  5
3639
  8
TAIL
 10
0.13
 20
2.616398385414834
 30
0.9809229254827547
 11
0.13
 21
2.6103535082552991
 31
0.6826471419253158
 12
0.17
 22
2.6103535082552991
 32
0.6826471419253158
 13
0.17
 23
2.616398385414834
 33
0.9809229254827547
  0
3DFACE
  5
363A
  8
TAIL
 10
0.13
 20
2.5519789341451311
 30
1.0745035237824929
 11
0.13
 21
2.616398385414834
 31
0.9809229254827547
 12
0.17
 22
2.616398385414834
 32
0.9809229254827547
 13
0.17
 23
2.5519789341451311
 33
1.0745035237824929
  0
3DFACE
  5
363B
  8
TAIL
 10
0.13
 20
2.831515305992589
 30
1.074057074516428
 11
0.13
 21
2.9034438320201228
 31
1.02773094739508
 12
0.17
 22
2.9034438320201228
 32
1.02773094739508
 13
0.17
 23
2.831515305992589
 33
1.074057074516428
  0
3DFACE
  5
363C
  8
TAIL
 10
0.13
 20
2.9034438320201228
 30
1.02773094739508
 11
0.13
 21
2.8993519123832532
 31
1.0029281473119851
 12
0.17
 22
2.8993519123832532
 32
1.0029281473119851
 13
0.17
 23
2.9034438320201228
 33
1.02773094739508
  0
3DFACE
  5
363D
  8
TAIL
 10
0.13
 20
2.8993519123832532
 30
1.0029281473119851
 11
0.13
 21
2.8718131523418551
 31
0.9319238045195739
 12
0.17
 22
2.8718131523418551
 32
0.9319238045195739
 13
0.17
 23
2.8993519123832532
 33
1.0029281473119851
  0
3DFACE
  5
363E
  8
TAIL
 10
0.13
 20
2.8718131523418551
 30
0.9319238045195739
 11
0.13
 21
2.8142926674898852
 31
0.8598724768260873
 12
0.17
 22
2.8142926674898852
 32
0.8598724768260873
 13
0.17
 23
2.8718131523418551
 33
0.9319238045195739
  0
3DFACE
  5
363F
  8
TAIL
 10
0.13
 20
2.8142926674898852
 30
0.8598724768260873
 11
0.13
 21
2.6689209780083449
 31
0.7247167448082297
 12
0.17
 22
2.6689209780083449
 32
0.7247167448082297
 13
0.17
 23
2.8142926674898852
 33
0.8598724768260873
  0
3DFACE
  5
3640
  8
TAIL
 10
0.13
 20
2.6689209780083449
 30
0.7247167448082297
 11
0.13
 21
2.6701292412819928
 31
1.0749722787960809
 12
0.17
 22
2.6701292412819928
 32
1.0749722787960809
 13
0.17
 23
2.6689209780083449
 33
0.7247167448082297
  0
3DFACE
  5
3641
  8
TAIL
 10
0.13
 20
2.6701292412819928
 30
1.0749722787960809
 11
0.13
 21
2.831515305992589
 31
1.074057074516428
 12
0.17
 22
2.831515305992589
 32
1.074057074516428
 13
0.17
 23
2.6701292412819928
 33
1.0749722787960809
  0
3DFACE
  5
3642
  8
TAIL
 10
0.13
 20
2.2798132109901461
 30
0.5059174690239379
 11
0.13
 21
2.2496274755235999
 31
0.5131258613485766
 12
0.17
 22
2.2496274755235999
 32
0.5131258613485766
 13
0.17
 23
2.2798132109901461
 33
0.5059174690239379
  0
3DFACE
  5
3643
  8
TAIL
 10
0.13
 20
2.2496274755235999
 30
0.5131258613485766
 11
0.13
 21
2.1835599225766988
 31
0.5833217713686137
 12
0.17
 22
2.1835599225766988
 32
0.5833217713686137
 13
0.17
 23
2.2496274755235999
 33
0.5131258613485766
  0
3DFACE
  5
3644
  8
TAIL
 10
0.13
 20
2.1835599225766988
 30
0.5833217713686137
 11
0.13
 21
2.186904417504659
 31
0.9817123486456898
 12
0.17
 22
2.186904417504659
 32
0.9817123486456898
 13
0.17
 23
2.1835599225766988
 33
0.5833217713686137
  0
3DFACE
  5
3645
  8
TAIL
 10
0.13
 20
2.186904417504659
 30
0.9817123486456898
 11
0.13
 21
2.2456952845149081
 31
0.9822631412171908
 12
0.17
 22
2.2456952845149081
 32
0.9822631412171908
 13
0.17
 23
2.186904417504659
 33
0.9817123486456898
  0
3DFACE
  5
3646
  8
TAIL
 10
0.13
 20
2.2456952845149081
 30
0.9822631412171908
 11
0.13
 21
2.4867578584458312
 31
0.7325291391959979
 12
0.17
 22
2.4867578584458312
 32
0.7325291391959979
 13
0.17
 23
2.2456952845149081
 33
0.9822631412171908
  0
3DFACE
  5
3647
  8
TAIL
 10
0.13
 20
2.4867578584458312
 30
0.7325291391959979
 11
0.13
 21
2.4858501978928831
 31
0.6235653319019472
 12
0.17
 22
2.4858501978928831
 32
0.6235653319019472
 13
0.17
 23
2.4867578584458312
 33
0.7325291391959979
  0
3DFACE
  5
3648
  8
TAIL
 10
0.13
 20
2.4858501978928831
 30
0.6235653319019472
 11
0.13
 21
2.4704655605580599
 31
0.5927223397205627
 12
0.17
 22
2.4704655605580599
 32
0.5927223397205627
 13
0.17
 23
2.4858501978928831
 33
0.6235653319019472
  0
3DFACE
  5
3649
  8
TAIL
 10
0.13
 20
2.4704655605580599
 30
0.5927223397205627
 11
0.13
 21
2.2798132109901461
 31
0.5059174690239379
 12
0.17
 22
2.2798132109901461
 32
0.5059174690239379
 13
0.17
 23
2.4704655605580599
 33
0.5927223397205627
  0
3DFACE
  5
364B
  8
TAIL
 10
0.08
 20
1.719363425165662
 30
1.1310964299519191
 11
0.08
 21
1.7798572551337699
 31
0.9689073515938886
 12
0.08
 22
1.7023229472670369
 32
1.0960628178332641
 13
0.08
 23
1.7046189375110861
 33
1.117691287268443
  0
3DFACE
  5
364C
  8
TAIL
 10
0.12
 20
1.7046189375110861
 30
1.117691287268443
 11
0.12
 21
1.7023229472670369
 31
1.0960628178332641
 12
0.12
 22
1.7798572551337699
 32
0.9689073515938883
 13
0.12
 23
1.719363425165662
 33
1.1310964299519191
  0
3DFACE
  5
364D
  8
TAIL
 10
0.12
 20
1.719363425165662
 30
1.1310964299519191
 11
0.12
 21
1.719363425165662
 31
1.1310964299519191
 12
0.12
 22
1.779857255133771
 32
0.9689073515938872
 13
0.12
 23
1.7742036372749601
 33
1.130805784563583
  0
3DFACE
  5
364E
  8
TAIL
 10
0.08
 20
1.7742036372749601
 30
1.130805784563583
 11
0.08
 21
1.7798572551337699
 31
0.9689073515938886
 12
0.08
 22
1.719363425165662
 32
1.1310964299519191
 13
0.08
 23
1.719363425165662
 33
1.1310964299519191
  0
3DFACE
  5
364F
  8
TAIL
 10
0.17
 20
2.831515305992589
 30
1.074057074516428
 11
0.17
 21
2.9034438320201228
 31
1.02773094739508
 12
0.17
 22
2.9451335141299082
 32
1.1246000213894021
 13
0.17
 23
2.9451335141299082
 33
1.1246000213894021
  0
3DFACE
  5
3650
  8
TAIL
 10
0.13
 20
2.9451335141299082
 30
1.1246000213894021
 11
0.13
 21
2.9451335141299082
 31
1.1246000213894021
 12
0.13
 22
2.9034438320201228
 32
1.02773094739508
 13
0.13
 23
2.831515305992589
 33
1.074057074516428
  0
3DFACE
  5
3651
  8
TAIL
 10
0.17
 20
2.6701292412819928
 30
1.0749722787960809
 11
0.17
 21
2.831515305992589
 31
1.074057074516428
 12
0.17
 22
2.9451335141299082
 32
1.1246000213894021
 13
0.17
 23
2.9451335141299082
 33
1.1246000213894021
  0
3DFACE
  5
3652
  8
TAIL
 10
0.13
 20
2.9451335141299082
 30
1.1246000213894021
 11
0.13
 21
2.9451335141299082
 31
1.1246000213894021
 12
0.13
 22
2.831515305992589
 32
1.074057074516428
 13
0.13
 23
2.6701292412819928
 33
1.0749722787960809
  0
3DFACE
  5
3653
  8
TAIL
 10
0.17
 20
2.5519789341451311
 30
1.0745035237824929
 11
0.17
 21
2.616398385414834
 31
0.9809229254827547
 12
0.17
 22
2.6701292412819928
 32
1.0749722787960809
 13
0.17
 23
2.6701292412819928
 33
1.0749722787960809
  0
3DFACE
  5
3654
  8
TAIL
 10
0.13
 20
2.6701292412819928
 30
1.0749722787960809
 11
0.13
 21
2.6701292412819928
 31
1.0749722787960809
 12
0.13
 22
2.616398385414834
 32
0.9809229254827547
 13
0.13
 23
2.5519789341451311
 33
1.0745035237824929
  0
3DFACE
  5
3655
  8
TAIL
 10
0.17
 20
2.9451335141299082
 30
1.1246000213894021
 11
0.17
 21
2.5519789341451311
 31
1.0745035237824929
 12
0.17
 22
2.6701292412819928
 32
1.0749722787960809
 13
0.17
 23
2.6701292412819928
 33
1.0749722787960809
  0
3DFACE
  5
3656
  8
TAIL
 10
0.13
 20
2.6701292412819928
 30
1.0749722787960809
 11
0.13
 21
2.6701292412819928
 31
1.0749722787960809
 12
0.13
 22
2.5519789341451311
 32
1.0745035237824929
 13
0.13
 23
2.9451335141299082
 33
1.1246000213894021
  0
3DFACE
  5
3657
  8
TAIL
 10
0.17
 20
2.9451335141299082
 30
1.1246000213894021
 11
0.17
 21
2.3151677023812409
 31
1.0759757913923731
 12
0.17
 22
2.5519789341451311
 32
1.0745035237824929
 13
0.17
 23
2.5519789341451311
 33
1.0745035237824929
  0
3DFACE
  5
3658
  8
TAIL
 10
0.13
 20
2.5519789341451311
 30
1.0745035237824929
 11
0.13
 21
2.5519789341451311
 31
1.0745035237824929
 12
0.13
 22
2.3151677023812409
 32
1.0759757913923731
 13
0.13
 23
2.9451335141299082
 33
1.1246000213894021
  0
3DFACE
  5
3659
  8
TAIL
 10
0.17
 20
1.9461868765108099
 30
1.076980604522952
 11
0.17
 21
2.1363249341784898
 31
1.0763436125199941
 12
0.17
 22
1.9443387475872169
 32
1.129904092478446
 13
0.17
 23
1.9443387475872169
 33
1.129904092478446
  0
3DFACE
  5
365A
  8
TAIL
 10
0.13
 20
1.9443387475872169
 30
1.129904092478446
 11
0.13
 21
1.9443387475872169
 31
1.129904092478446
 12
0.13
 22
2.1363249341784898
 32
1.0763436125199941
 13
0.13
 23
1.9461868765108099
 33
1.076980604522952
  0
3DFACE
  5
365B
  8
TAIL
 10
0.17
 20
2.1363249341784898
 30
1.0763436125199941
 11
0.17
 21
2.3151677023812409
 31
1.0759757913923731
 12
0.17
 22
2.9451335141299082
 32
1.1246000213894021
 13
0.17
 23
1.9443387475872169
 33
1.129904092478446
  0
3DFACE
  5
365C
  8
TAIL
 10
0.13
 20
1.9443387475872169
 30
1.129904092478446
 11
0.13
 21
2.9451335141299082
 31
1.1246000213894021
 12
0.13
 22
2.3151677023812409
 32
1.0759757913923731
 13
0.13
 23
2.1363249341784898
 33
1.0763436125199941
  0
3DFACE
  5
365D
  8
TAIL
 10
0.17
 20
2.2752069535351152
 30
1.021156906846566
 11
0.17
 21
2.3151677023812409
 31
1.0759757913923731
 12
0.17
 22
2.1363249341784898
 32
1.0763436125199941
 13
0.17
 23
2.186904417504659
 33
0.9817123486456898
  0
3DFACE
  5
365E
  8
TAIL
 10
0.13
 20
2.186904417504659
 30
0.9817123486456898
 11
0.13
 21
2.1363249341784898
 31
1.0763436125199941
 12
0.13
 22
2.3151677023812409
 32
1.0759757913923731
 13
0.13
 23
2.2752069535351152
 33
1.021156906846566
  0
3DFACE
  5
365F
  8
TAIL
 10
0.17
 20
2.186904417504659
 30
0.9817123486456898
 11
0.17
 21
2.2456952845149081
 31
0.9822631412171908
 12
0.17
 22
2.2752069535351152
 32
1.021156906846566
 13
0.17
 23
2.2752069535351152
 33
1.021156906846566
  0
3DFACE
  5
3660
  8
TAIL
 10
0.13
 20
2.186904417504659
 30
0.9817123486456898
 11
0.13
 21
2.2752069535351152
 31
1.021156906846566
 12
0.13
 22
2.2456952845149081
 32
0.9822631412171908
 13
0.13
 23
2.186904417504659
 33
0.9817123486456898
  0
3DFACE
  5
3662
  8
TAIL
 10
0.17
 20
2.6103535082552991
 30
0.6826471419253158
 11
0.17
 21
2.2752069535351152
 31
1.021156906846566
 12
0.17
 22
2.2456952845149081
 32
0.9822631412171908
 13
0.17
 23
2.4867578584458312
 33
0.7325291391959979
  0
3DFACE
  5
3663
  8
TAIL
 10
0.13
 20
2.4867578584458312
 30
0.7325291391959979
 11
0.13
 21
2.2456952845149081
 31
0.9822631412171908
 12
0.13
 22
2.2752069535351152
 32
1.021156906846566
 13
0.13
 23
2.6103535082552991
 33
0.6826471419253158
  0
3DFACE
  5
3664
  8
TAIL
 10
0.17
 20
2.616398385414834
 30
0.9809229254827547
 11
0.17
 21
2.6103535082552991
 31
0.6826471419253158
 12
0.17
 22
2.6689209780083449
 32
0.7247167448082297
 13
0.17
 23
2.6701292412819928
 33
1.0749722787960809
  0
3DFACE
  5
3665
  8
TAIL
 10
0.13
 20
2.6701292412819928
 30
1.0749722787960809
 11
0.13
 21
2.6689209780083449
 31
0.7247167448082297
 12
0.13
 22
2.6103535082552991
 32
0.6826471419253158
 13
0.13
 23
2.616398385414834
 33
0.9809229254827547
  0
3DFACE
  5
3666
  8
TAIL
 10
0.17
 20
2.4867578584458312
 30
0.7325291391959979
 11
0.17
 21
2.4858501978928831
 31
0.6235653319019472
 12
0.17
 22
2.6103535082552991
 32
0.6826471419253158
 13
0.17
 23
2.6103535082552991
 33
0.6826471419253158
  0
3DFACE
  5
3667
  8
TAIL
 10
0.13
 20
2.6103535082552991
 30
0.6826471419253158
 11
0.13
 21
2.6103535082552991
 31
0.6826471419253158
 12
0.13
 22
2.4858501978928831
 32
0.6235653319019472
 13
0.13
 23
2.4867578584458312
 33
0.7325291391959979
  0
3DFACE
  5
3668
  8
TAIL
 10
0.17
 20
2.4858501978928831
 30
0.6235653319019472
 11
0.17
 21
2.4704655605580599
 31
0.5927223397205627
 12
0.17
 22
2.6103535082552991
 32
0.6826471419253158
 13
0.17
 23
2.6103535082552991
 33
0.6826471419253158
  0
3DFACE
  5
3669
  8
TAIL
 10
0.13
 20
2.6103535082552991
 30
0.6826471419253158
 11
0.13
 21
2.6103535082552991
 31
0.6826471419253158
 12
0.13
 22
2.4704655605580599
 32
0.5927223397205627
 13
0.13
 23
2.4858501978928831
 33
0.6235653319019472
  0
3DFACE
  5
366B
  8
TAIL
 10
0.17
 20
2.1835599225766988
 30
0.5833217713686137
 11
0.17
 21
2.186904417504659
 31
0.9817123486456898
 12
0.17
 22
2.1363249341784898
 32
1.0763436125199941
 13
0.17
 23
2.126235922488342
 33
0.5056438562180351
  0
3DFACE
  5
366C
  8
TAIL
 10
0.13
 20
2.126235922488342
 30
0.5056438562180351
 11
0.13
 21
2.1363249341784898
 31
1.0763436125199941
 12
0.13
 22
2.186904417504659
 32
0.9817123486456898
 13
0.13
 23
2.1835599225766988
 33
0.5833217713686137
  0
3DFACE
  5
366D
  8
TAIL
 10
0.1699999999999999
 20
2.126235922488342
 30
0.5056438562180354
 11
0.17
 21
1.956466136903916
 31
0.7826211003449446
 12
0.17
 22
1.960294462824967
 32
0.6729921896201557
 13
0.17
 23
2.0982758569417661
 33
0.4467041245814187
  0
3DFACE
  5
366E
  8
TAIL
 10
0.13
 20
1.956466136903916
 30
0.7826211003449443
 11
0.13
 21
2.126235922488342
 31
0.5056438562180351
 12
0.13
 22
2.0982758569417661
 32
0.4467041245814187
 13
0.13
 23
1.960294462824967
 33
0.6729921896201557
  0
3DFACE
  5
366F
  8
TAIL
 10
0.17
 20
2.2496274755235999
 30
0.5131258613485766
 11
0.17
 21
2.1835599225766988
 31
0.5833217713686137
 12
0.17
 22
2.126235922488342
 32
0.5056438562180351
 13
0.17
 23
2.0982758569417661
 33
0.4467041245814187
  0
3DFACE
  5
3670
  8
TAIL
 10
0.13
 20
2.0982758569417661
 30
0.4467041245814187
 11
0.13
 21
2.126235922488342
 31
0.5056438562180351
 12
0.13
 22
2.1835599225766988
 32
0.5833217713686137
 13
0.13
 23
2.2496274755235999
 33
0.5131258613485766
  0
3DFACE
  5
3671
  8
TAIL
 10
0.17
 20
2.2798132109901461
 30
0.5059174690239379
 11
0.17
 21
2.2496274755235999
 31
0.5131258613485766
 12
0.17
 22
2.0982758569417661
 32
0.4467041245814187
 13
0.17
 23
2.0982758569417661
 33
0.4467041245814187
  0
3DFACE
  5
3672
  8
TAIL
 10
0.13
 20
2.0982758569417661
 30
0.4467041245814187
 11
0.13
 21
2.0982758569417661
 31
0.4467041245814187
 12
0.13
 22
2.2496274755235999
 32
0.5131258613485766
 13
0.13
 23
2.2798132109901461
 33
0.5059174690239379
  0
3DFACE
  5
3674
  8
TAIL
 10
0.1699999999999995
 20
1.7699451744317181
 30
0.3931409547032252
 11
0.1699999999999995
 21
1.709632729843547
 31
0.4010408931712661
 12
0.1699999999999995
 22
1.7010348014414569
 32
0.360716265123477
 13
0.1699999999999995
 23
1.7613472460296269
 33
0.3528163266554363
  0
3DFACE
  5
3675
  8
TAIL
 10
0.1299999999999994
 20
1.7613472460296269
 30
0.3528163266554363
 11
0.1299999999999994
 21
1.7010348014414569
 31
0.360716265123477
 12
0.1299999999999994
 22
1.709632729843547
 32
0.4010408931712661
 13
0.1299999999999994
 23
1.7699451744317181
 33
0.3931409547032252
  0
3DFACE
  5
3676
  8
TAIL
 10
0.1299999999999994
 20
1.821310695650773
 30
0.3549102964575864
 11
0.1299999999999994
 21
1.7613472460296269
 31
0.3528163266554363
 12
0.1299999999999994
 22
1.7699451744317181
 32
0.3931409547032252
 13
0.1299999999999994
 23
1.8199147157826729
 33
0.3948859295383502
  0
3DFACE
  5
3677
  8
TAIL
 10
0.1699999999999995
 20
1.8199147157826729
 30
0.3948859295383502
 11
0.1699999999999995
 21
1.7699451744317181
 31
0.3931409547032252
 12
0.1699999999999995
 22
1.7613472460296269
 32
0.3528163266554363
 13
0.1699999999999995
 23
1.821310695650773
 33
0.3549102964575864
  0
3DFACE
  5
3678
  8
TAIL
 10
0.1699999999999995
 20
1.929498711787748
 30
0.4087187824458163
 11
0.1699999999999995
 21
1.8199147157826729
 31
0.3948859295383502
 12
0.1699999999999995
 22
1.821310695650773
 32
0.3549102964575864
 13
0.1699999999999995
 23
1.910906875115467
 33
0.3680451594310022
  0
3DFACE
  5
3679
  8
TAIL
 10
0.1299999999999994
 20
1.910906875115467
 30
0.3680451594310022
 11
0.1299999999999994
 21
1.821310695650773
 31
0.3549102964575864
 12
0.1299999999999994
 22
1.8199147157826729
 32
0.3948859295383502
 13
0.1299999999999994
 23
1.929498711787748
 33
0.4087187824458163
  0
3DFACE
  5
367A
  8
TAIL
 10
0.17
 20
2.0982758569417661
 30
0.4467041245814187
 11
0.17
 21
1.929498711787748
 31
0.4087187824458163
 12
0.17
 22
1.910906875115467
 32
0.3680451594310022
 13
0.17
 23
2.0797563308076379
 33
0.4039597986810005
  0
3DFACE
  5
367B
  8
TAIL
 10
0.1299999999999994
 20
2.0797563308076379
 30
0.4039597986810005
 11
0.1299999999999994
 21
1.910906875115467
 31
0.3680451594310022
 12
0.1299999999999994
 22
1.929498711787748
 32
0.4087187824458163
 13
0.1299999999999994
 23
2.0982758569417661
 33
0.4467041245814187
  0
3DFACE
  5
367C
  8
TAIL
 10
0.13
 20
2.238262883262593
 30
0.4495193512341645
 11
0.13
 21
2.0797563308076379
 31
0.4039597986810005
 12
0.13
 22
2.0982758569417661
 32
0.4467041245814187
 13
0.13
 23
2.2798132109901461
 33
0.5059174690239379
  0
3DFACE
  5
367D
  8
TAIL
 10
0.17
 20
2.2798132109901461
 30
0.5059174690239379
 11
0.17
 21
2.0982758569417661
 31
0.4467041245814187
 12
0.17
 22
2.0797563308076379
 32
0.4039597986810005
 13
0.17
 23
2.238262883262593
 33
0.4495193512341645
  0
3DFACE
  5
367E
  8
TAIL
 10
0.13
 20
2.3960714457834991
 30
0.5150667203277103
 11
0.13
 21
2.238262883262593
 31
0.4495193512341645
 12
0.13
 22
2.2798132109901461
 32
0.5059174690239379
 13
0.13
 23
2.4704655605580599
 33
0.5927223397205627
  0
3DFACE
  5
367F
  8
TAIL
 10
0.17
 20
2.4704655605580599
 30
0.5927223397205627
 11
0.17
 21
2.2798132109901461
 31
0.5059174690239379
 12
0.17
 22
2.238262883262593
 32
0.4495193512341645
 13
0.17
 23
2.3960714457834991
 33
0.5150667203277103
  0
3DFACE
  5
3680
  8
TAIL
 10
0.13
 20
2.5631759266405441
 30
0.6009509009286632
 11
0.13
 21
2.3960714457834991
 31
0.5150667203277103
 12
0.13
 22
2.4704655605580599
 32
0.5927223397205627
 13
0.13
 23
2.6103535082552991
 33
0.6826471419253158
  0
3DFACE
  5
3681
  8
TAIL
 10
0.17
 20
2.6103535082552991
 30
0.6826471419253158
 11
0.17
 21
2.4704655605580599
 31
0.5927223397205627
 12
0.17
 22
2.3960714457834991
 32
0.5150667203277103
 13
0.17
 23
2.5631759266405441
 33
0.6009509009286632
  0
3DFACE
  5
3682
  8
TAIL
 10
0.13
 20
2.6803108661466362
 30
0.6850901066944908
 11
0.13
 21
2.5631759266405441
 31
0.6009509009286632
 12
0.13
 22
2.6103535082552991
 32
0.6826471419253158
 13
0.13
 23
2.6689209780083449
 33
0.7247167448082297
  0
3DFACE
  5
3683
  8
TAIL
 10
0.17
 20
2.6689209780083449
 30
0.7247167448082297
 11
0.17
 21
2.6103535082552991
 31
0.6826471419253158
 12
0.17
 22
2.5631759266405441
 32
0.6009509009286632
 13
0.17
 23
2.6803108661466362
 33
0.6850901066944908
  0
3DFACE
  5
3684
  8
TAIL
 10
0.17
 20
2.8142926674898852
 30
0.8598724768260873
 11
0.17
 21
2.6689209780083449
 31
0.7247167448082297
 12
0.17
 22
2.6803108661466362
 32
0.6850901066944908
 13
0.17
 23
2.8256825556281751
 33
0.8202458387123484
  0
3DFACE
  5
3685
  8
TAIL
 10
0.13
 20
2.8256825556281751
 30
0.8202458387123484
 11
0.13
 21
2.6803108661466362
 31
0.6850901066944908
 12
0.13
 22
2.6689209780083449
 32
0.7247167448082297
 13
0.13
 23
2.8142926674898852
 33
0.8598724768260873
  0
3DFACE
  5
3686
  8
TAIL
 10
0.13
 20
2.9024928670864778
 30
0.9129829728802668
 11
0.13
 21
2.8256825556281751
 31
0.8202458387123484
 12
0.13
 22
2.8142926674898852
 32
0.8598724768260873
 13
0.13
 23
2.8718131523418551
 33
0.9319238045195739
  0
3DFACE
  5
3687
  8
TAIL
 10
0.17
 20
2.8718131523418551
 30
0.9319238045195739
 11
0.17
 21
2.8142926674898852
 31
0.8598724768260873
 12
0.17
 22
2.8256825556281751
 32
0.8202458387123484
 13
0.17
 23
2.9024928670864778
 33
0.9129829728802668
  0
3DFACE
  5
3688
  8
TAIL
 10
0.13
 20
2.9393275454640171
 30
1.0043241271800849
 11
0.13
 21
2.9024928670864778
 31
0.9129829728802668
 12
0.13
 22
2.8718131523418551
 32
0.9319238045195739
 13
0.13
 23
2.8993519123832532
 33
1.0029281473119851
  0
3DFACE
  5
3689
  8
TAIL
 10
0.17
 20
2.8993519123832532
 30
1.0029281473119851
 11
0.17
 21
2.8718131523418551
 31
0.9319238045195739
 12
0.17
 22
2.9024928670864778
 32
0.9129829728802668
 13
0.17
 23
2.9393275454640171
 33
1.0043241271800849
  0
3DFACE
  5
368A
  8
TAIL
 10
0.17
 20
2.9034438320201228
 30
1.02773094739508
 11
0.17
 21
2.8993519123832532
 31
1.0029281473119851
 12
0.17
 22
2.9393275454640171
 32
1.0043241271800849
 13
0.17
 23
2.9468784889650328
 33
1.074630480038447
  0
3DFACE
  5
368B
  8
TAIL
 10
0.13
 20
2.9468784889650328
 30
1.074630480038447
 11
0.13
 21
2.9393275454640171
 31
1.0043241271800849
 12
0.13
 22
2.8993519123832532
 32
1.0029281473119851
 13
0.13
 23
2.9034438320201228
 33
1.02773094739508
  0
3DFACE
  5
368C
  8
TAIL
 10
0.13
 20
2.9451335141299069
 30
1.1246000213894021
 11
0.13
 21
2.9468784889650328
 31
1.074630480038447
 12
0.13
 22
2.9034438320201228
 32
1.02773094739508
 13
0.13
 23
2.9034438320201228
 33
1.02773094739508
  0
3DFACE
  5
368D
  8
TAIL
 10
0.17
 20
2.9034438320201228
 30
1.02773094739508
 11
0.17
 21
2.9034438320201228
 31
1.02773094739508
 12
0.17
 22
2.9468784889650328
 32
1.074630480038447
 13
0.17
 23
2.9451335141299069
 33
1.1246000213894021
  0
3DFACE
  5
370B
  8
TAIL
 10
-0.26
 20
1.7613472460296269
 30
0.3528163266554363
 11
-0.26
 21
1.701034801441456
 31
0.360716265123477
 12
-0.17
 22
1.701034801441456
 32
0.360716265123477
 13
-0.17
 23
1.7613472460296269
 33
0.3528163266554359
  0
3DFACE
  5
370C
  8
TAIL
 10
-0.13
 20
1.7613472460296269
 30
0.3528163266554363
 11
-0.13
 21
1.701034801441456
 31
0.360716265123477
 12
0.13
 22
1.701034801441456
 32
0.360716265123477
 13
0.13
 23
1.7613472460296269
 33
0.3528163266554363
  0
3DFACE
  5
370D
  8
TAIL
 10
0.17
 20
1.7613472460296269
 30
0.3528163266554363
 11
0.17
 21
1.701034801441456
 31
0.360716265123477
 12
0.26
 22
1.701034801441456
 32
0.360716265123477
 13
0.26
 23
1.7613472460296269
 33
0.3528163266554359
  0
3DFACE
  5
370E
  8
TAIL
 10
-0.26
 20
1.821310695650773
 30
0.3549102964575864
 11
-0.26
 21
1.7613472460296249
 31
0.3528163266554362
 12
-0.17
 22
1.7613472460296249
 32
0.3528163266554362
 13
-0.17
 23
1.821310695650773
 33
0.3549102964575864
  0
3DFACE
  5
370F
  8
TAIL
 10
-0.13
 20
1.821310695650773
 30
0.3549102964575864
 11
-0.13
 21
1.7613472460296249
 31
0.3528163266554362
 12
0.13
 22
1.7613472460296249
 32
0.3528163266554362
 13
0.13
 23
1.821310695650773
 33
0.3549102964575864
  0
3DFACE
  5
3710
  8
TAIL
 10
0.17
 20
1.821310695650773
 30
0.3549102964575864
 11
0.17
 21
1.7613472460296249
 31
0.3528163266554362
 12
0.26
 22
1.7613472460296249
 32
0.3528163266554362
 13
0.26
 23
1.821310695650773
 33
0.3549102964575864
  0
3DFACE
  5
3711
  8
TAIL
 10
0.17
 20
1.910906875115467
 30
0.3680451594310022
 11
0.17
 21
1.821310695650771
 31
0.3549102964575863
 12
0.26
 22
1.821310695650771
 32
0.3549102964575863
 13
0.26
 23
1.910906875115467
 33
0.3680451594310022
  0
3DFACE
  5
3712
  8
TAIL
 10
-0.13
 20
1.910906875115467
 30
0.3680451594310022
 11
-0.13
 21
1.821310695650771
 31
0.3549102964575863
 12
0.13
 22
1.821310695650771
 32
0.3549102964575863
 13
0.13
 23
1.910906875115467
 33
0.3680451594310022
  0
3DFACE
  5
3713
  8
TAIL
 10
-0.26
 20
1.910906875115467
 30
0.3680451594310022
 11
-0.26
 21
1.821310695650771
 31
0.3549102964575863
 12
-0.17
 22
1.821310695650771
 32
0.3549102964575863
 13
-0.17
 23
1.910906875115467
 33
0.3680451594310022
  0
3DFACE
  5
3714
  8
TAIL
 10
-0.26
 20
2.0797563308076379
 30
0.4039597986810005
 11
-0.26
 21
1.910906875115467
 31
0.3680451594310022
 12
-0.17
 22
1.910906875115467
 32
0.3680451594310022
 13
-0.17
 23
2.0797563308076379
 33
0.4039597986810005
  0
3DFACE
  5
3715
  8
TAIL
 10
-0.13
 20
2.0797563308076379
 30
0.4039597986810005
 11
-0.13
 21
1.910906875115467
 31
0.3680451594310022
 12
0.13
 22
1.910906875115467
 32
0.3680451594310022
 13
0.13
 23
2.0797563308076379
 33
0.4039597986810005
  0
3DFACE
  5
3716
  8
TAIL
 10
0.17
 20
2.0797563308076379
 30
0.4039597986810005
 11
0.17
 21
1.910906875115467
 31
0.3680451594310022
 12
0.26
 22
1.910906875115467
 32
0.3680451594310022
 13
0.26
 23
2.0797563308076379
 33
0.4039597986810005
  0
3DFACE
  5
3717
  8
TAIL
 10
0.17
 20
2.238262883262593
 30
0.4495193512341645
 11
0.17
 21
2.0797563308076379
 31
0.4039597986810005
 12
0.26
 22
2.0797563308076379
 32
0.4039597986810005
 13
0.26
 23
2.238262883262593
 33
0.4495193512341645
  0
3DFACE
  5
3718
  8
TAIL
 10
-0.13
 20
2.238262883262593
 30
0.4495193512341645
 11
-0.13
 21
2.0797563308076379
 31
0.4039597986810005
 12
0.13
 22
2.0797563308076379
 32
0.4039597986810005
 13
0.13
 23
2.238262883262593
 33
0.4495193512341645
  0
3DFACE
  5
3719
  8
TAIL
 10
-0.26
 20
2.238262883262593
 30
0.4495193512341645
 11
-0.26
 21
2.0797563308076379
 31
0.4039597986810005
 12
-0.17
 22
2.0797563308076379
 32
0.4039597986810005
 13
-0.17
 23
2.238262883262593
 33
0.4495193512341645
  0
3DFACE
  5
371A
  8
TAIL
 10
-0.13
 20
2.3960714457834991
 30
0.5150667203277103
 11
-0.13
 21
2.238262883262593
 31
0.4495193512341645
 12
0.13
 22
2.238262883262593
 32
0.4495193512341645
 13
0.13
 23
2.3960714457834991
 33
0.5150667203277103
  0
3DFACE
  5
371B
  8
TAIL
 10
0.17
 20
2.3960714457834991
 30
0.5150667203277103
 11
0.17
 21
2.238262883262593
 31
0.4495193512341645
 12
0.26
 22
2.238262883262593
 32
0.4495193512341645
 13
0.26
 23
2.3960714457834991
 33
0.5150667203277103
  0
3DFACE
  5
371C
  8
TAIL
 10
-0.26
 20
2.3960714457834991
 30
0.5150667203277103
 11
-0.26
 21
2.238262883262593
 31
0.4495193512341645
 12
-0.17
 22
2.238262883262593
 32
0.4495193512341645
 13
-0.17
 23
2.3960714457834991
 33
0.5150667203277103
  0
3DFACE
  5
371D
  8
TAIL
 10
0.17
 20
2.5631759266405441
 30
0.6009509009286632
 11
0.17
 21
2.3960714457834991
 31
0.5150667203277103
 12
0.26
 22
2.3960714457834991
 32
0.5150667203277103
 13
0.26
 23
2.5631759266405441
 33
0.6009509009286632
  0
3DFACE
  5
371E
  8
TAIL
 10
-0.13
 20
2.5631759266405441
 30
0.6009509009286632
 11
-0.13
 21
2.3960714457834991
 31
0.5150667203277103
 12
0.13
 22
2.3960714457834991
 32
0.5150667203277103
 13
0.13
 23
2.5631759266405441
 33
0.6009509009286632
  0
3DFACE
  5
371F
  8
TAIL
 10
-0.26
 20
2.5631759266405441
 30
0.6009509009286632
 11
-0.26
 21
2.3960714457834991
 31
0.5150667203277103
 12
-0.17
 22
2.3960714457834991
 32
0.5150667203277103
 13
-0.17
 23
2.5631759266405441
 33
0.6009509009286632
  0
3DFACE
  5
3720
  8
TAIL
 10
-0.26
 20
2.6803108661466362
 30
0.6850901066944908
 11
-0.26
 21
2.5631759266405441
 31
0.6009509009286632
 12
-0.17
 22
2.5631759266405441
 32
0.6009509009286632
 13
-0.17
 23
2.6803108661466362
 33
0.6850901066944908
  0
3DFACE
  5
3721
  8
TAIL
 10
-0.13
 20
2.6803108661466362
 30
0.6850901066944908
 11
-0.13
 21
2.5631759266405441
 31
0.6009509009286632
 12
0.13
 22
2.5631759266405441
 32
0.6009509009286632
 13
0.13
 23
2.6803108661466362
 33
0.6850901066944908
  0
3DFACE
  5
3722
  8
TAIL
 10
0.17
 20
2.6803108661466362
 30
0.6850901066944908
 11
0.17
 21
2.5631759266405441
 31
0.6009509009286632
 12
0.26
 22
2.5631759266405441
 32
0.6009509009286632
 13
0.26
 23
2.6803108661466362
 33
0.6850901066944908
  0
3DFACE
  5
3723
  8
TAIL
 10
-0.26
 20
2.8256825556281751
 30
0.8202458387123484
 11
-0.26
 21
2.6803108661466362
 31
0.6850901066944908
 12
-0.17
 22
2.6803108661466362
 32
0.6850901066944908
 13
-0.17
 23
2.8256825556281751
 33
0.8202458387123484
  0
3DFACE
  5
3724
  8
TAIL
 10
-0.13
 20
2.8256825556281751
 30
0.8202458387123484
 11
-0.13
 21
2.6803108661466362
 31
0.6850901066944908
 12
0.13
 22
2.6803108661466362
 32
0.6850901066944908
 13
0.13
 23
2.8256825556281751
 33
0.8202458387123484
  0
3DFACE
  5
3725
  8
TAIL
 10
0.17
 20
2.8256825556281751
 30
0.8202458387123484
 11
0.17
 21
2.6803108661466362
 31
0.6850901066944908
 12
0.26
 22
2.6803108661466362
 32
0.6850901066944908
 13
0.26
 23
2.8256825556281751
 33
0.8202458387123484
  0
3DFACE
  5
3726
  8
TAIL
 10
-0.26
 20
2.9024928670864778
 30
0.9129829728802668
 11
-0.26
 21
2.8256825556281751
 31
0.8202458387123484
 12
-0.17
 22
2.8256825556281751
 32
0.8202458387123484
 13
-0.17
 23
2.9024928670864778
 33
0.9129829728802668
  0
3DFACE
  5
3727
  8
TAIL
 10
-0.13
 20
2.9024928670864778
 30
0.9129829728802668
 11
-0.13
 21
2.8256825556281751
 31
0.8202458387123484
 12
0.13
 22
2.8256825556281751
 32
0.8202458387123484
 13
0.13
 23
2.9024928670864778
 33
0.9129829728802668
  0
3DFACE
  5
3728
  8
TAIL
 10
0.17
 20
2.9024928670864778
 30
0.9129829728802668
 11
0.17
 21
2.8256825556281751
 31
0.8202458387123484
 12
0.26
 22
2.8256825556281751
 32
0.8202458387123484
 13
0.26
 23
2.9024928670864778
 33
0.9129829728802668
  0
3DFACE
  5
3729
  8
TAIL
 10
0.17
 20
2.9393275454640171
 30
1.0043241271800849
 11
0.17
 21
2.9024928670864778
 31
0.9129829728802668
 12
0.26
 22
2.9024928670864778
 32
0.9129829728802668
 13
0.26
 23
2.9393275454640171
 33
1.0043241271800849
  0
3DFACE
  5
372A
  8
TAIL
 10
-0.13
 20
2.9393275454640171
 30
1.0043241271800849
 11
-0.13
 21
2.9024928670864778
 31
0.9129829728802668
 12
0.13
 22
2.9024928670864778
 32
0.9129829728802668
 13
0.13
 23
2.9393275454640171
 33
1.0043241271800849
  0
3DFACE
  5
372B
  8
TAIL
 10
-0.26
 20
2.9393275454640171
 30
1.0043241271800849
 11
-0.26
 21
2.9024928670864778
 31
0.9129829728802668
 12
-0.17
 22
2.9024928670864778
 32
0.9129829728802668
 13
-0.17
 23
2.9393275454640171
 33
1.0043241271800849
  0
3DFACE
  5
372C
  8
TAIL
 10
0.17
 20
2.9468784889650328
 30
1.074630480038447
 11
0.17
 21
2.9393275454640171
 31
1.0043241271800849
 12
0.26
 22
2.9393275454640171
 32
1.0043241271800849
 13
0.26
 23
2.9468784889650328
 33
1.074630480038447
  0
3DFACE
  5
372D
  8
TAIL
 10
-0.13
 20
2.9468784889650328
 30
1.074630480038447
 11
-0.13
 21
2.9393275454640171
 31
1.0043241271800849
 12
0.13
 22
2.9393275454640171
 32
1.0043241271800849
 13
0.13
 23
2.9468784889650328
 33
1.074630480038447
  0
3DFACE
  5
372E
  8
TAIL
 10
-0.26
 20
2.9468784889650328
 30
1.074630480038447
 11
-0.26
 21
2.9393275454640171
 31
1.0043241271800849
 12
-0.17
 22
2.9393275454640171
 32
1.0043241271800849
 13
-0.17
 23
2.9468784889650328
 33
1.074630480038447
  0
3DFACE
  5
372F
  8
TAIL
 10
-0.26
 20
2.9451335141299082
 30
1.1246000213894021
 11
-0.26
 21
2.9468784889650328
 31
1.074630480038447
 12
-0.17
 22
2.9468784889650328
 32
1.074630480038447
 13
-0.17
 23
2.9451335141299082
 33
1.1246000213894021
  0
3DFACE
  5
3730
  8
TAIL
 10
-0.13
 20
2.9451335141299082
 30
1.1246000213894021
 11
-0.13
 21
2.9468784889650328
 31
1.074630480038447
 12
0.13
 22
2.9468784889650328
 32
1.074630480038447
 13
0.13
 23
2.9451335141299082
 33
1.1246000213894021
  0
3DFACE
  5
3731
  8
TAIL
 10
0.17
 20
2.9451335141299082
 30
1.1246000213894021
 11
0.17
 21
2.9468784889650328
 31
1.074630480038447
 12
0.26
 22
2.9468784889650328
 32
1.074630480038447
 13
0.26
 23
2.9451335141299082
 33
1.1246000213894021
  0
3DFACE
  5
3732
  8
TAIL
 10
-0.26
 20
2.9651213306702902
 30
1.1252980113234521
 11
-0.26
 21
2.9451335141299082
 31
1.1246000213894021
 12
0.26
 22
2.9451335141299082
 32
1.1246000213894021
 13
0.26
 23
2.9651213306702902
 33
1.1252980113234521
  0
3DFACE
  5
3733
  8
TAIL
 10
-0.26
 20
2.9668663055054152
 30
1.075328469972497
 11
-0.26
 21
2.9651213306702902
 31
1.1252980113234521
 12
0.26
 22
2.9651213306702902
 32
1.1252980113234521
 13
0.26
 23
2.9668663055054152
 33
1.075328469972497
  0
3DFACE
  5
3734
  8
TAIL
 10
-0.26
 20
2.9558890993471931
 30
0.9797609356556243
 11
-0.26
 21
2.9668663055054152
 31
1.075328469972497
 12
0.26
 22
2.9668663055054152
 32
1.075328469972497
 13
0.26
 23
2.9558890993471931
 33
0.9797609356556243
  0
3DFACE
  5
3735
  8
TAIL
 10
-0.26
 20
2.9224806836268602
 30
0.9136809628143168
 11
-0.26
 21
2.9558890993471931
 31
0.9797609356556243
 12
0.26
 22
2.9558890993471931
 32
0.9797609356556243
 13
0.26
 23
2.9224806836268602
 33
0.9136809628143167
  0
3DFACE
  5
3736
  8
TAIL
 10
-0.26
 20
2.8845990203482459
 30
0.8523215333250712
 11
-0.26
 21
2.9224806836268602
 31
0.9136809628143168
 12
0.26
 22
2.9224806836268602
 32
0.9136809628143168
 13
0.26
 23
2.8845990203482459
 33
0.8523215333250712
  0
3DFACE
  5
3737
  8
TAIL
 10
-0.26
 20
2.8363744538324172
 30
0.8006070171389911
 11
-0.26
 21
2.8845990203482459
 31
0.8523215333250712
 12
0.26
 22
2.8845990203482459
 32
0.8523215333250712
 13
0.26
 23
2.8363744538324172
 33
0.8006070171389911
  0
3DFACE
  5
3738
  8
TAIL
 10
-0.26
 20
2.6910027643508769
 30
0.6654512851211337
 11
-0.26
 21
2.8363744538324172
 31
0.8006070171389911
 12
0.26
 22
2.8363744538324172
 32
0.8006070171389911
 13
0.26
 23
2.6910027643508769
 33
0.6654512851211337
  0
3DFACE
  5
3739
  8
TAIL
 10
-0.26
 20
2.5738678248447862
 30
0.581312079355306
 11
-0.26
 21
2.6910027643508769
 31
0.6654512851211337
 12
0.26
 22
2.6910027643508769
 32
0.6654512851211337
 13
0.26
 23
2.5738678248447862
 33
0.581312079355306
  0
3DFACE
  5
373A
  8
TAIL
 10
-0.26
 20
2.4067633439877398
 30
0.4954278987543533
 11
-0.26
 21
2.5738678248447862
 31
0.581312079355306
 12
0.26
 22
2.5738678248447862
 32
0.581312079355306
 13
0.26
 23
2.4067633439877398
 33
0.4954278987543531
  0
3DFACE
  5
373B
  8
TAIL
 10
-0.26
 20
2.2489547814668338
 30
0.4298805296608072
 11
-0.26
 21
2.4067633439877398
 31
0.4954278987543533
 12
0.26
 22
2.4067633439877398
 32
0.4954278987543533
 13
0.26
 23
2.2489547814668338
 33
0.4298805296608072
  0
3DFACE
  5
373C
  8
TAIL
 10
-0.26
 20
2.0904482290118791
 30
0.3843209771076431
 11
-0.26
 21
2.2489547814668338
 31
0.4298805296608072
 12
0.26
 22
2.2489547814668338
 32
0.4298805296608072
 13
0.26
 23
2.0904482290118791
 33
0.3843209771076431
  0
3DFACE
  5
373D
  8
TAIL
 10
-0.26
 20
1.9315926815898989
 30
0.3487553328246698
 11
-0.26
 21
2.0904482290118791
 31
0.3843209771076431
 12
0.26
 22
2.0904482290118791
 32
0.3843209771076431
 13
0.26
 23
1.9315926815898989
 33
0.3487553328246698
  0
3DFACE
  5
373E
  8
TAIL
 10
-0.26
 20
1.8419965021252049
 30
0.335620469851254
 11
-0.26
 21
1.9315926815898989
 31
0.3487553328246698
 12
0.26
 22
1.9315926815898989
 32
0.3487553328246698
 13
0.26
 23
1.8419965021252049
 33
0.335620469851254
  0
3DFACE
  5
373F
  8
TAIL
 10
-0.26
 20
1.7620452359636769
 30
0.3328285101150539
 11
-0.26
 21
1.8419965021252049
 31
0.335620469851254
 12
0.26
 22
1.8419965021252049
 32
0.335620469851254
 13
0.26
 23
1.7620452359636769
 33
0.3328285101150539
  0
3DFACE
  5
3740
  8
TAIL
 10
-0.26
 20
1.701732791375506
 30
0.3407284485830946
 11
-0.26
 21
1.7620452359636769
 31
0.3328285101150539
 12
0.26
 22
1.7620452359636769
 32
0.3328285101150539
 13
0.26
 23
1.701732791375506
 33
0.3407284485830946
  0
3DFACE
  5
3741
  8
TAIL
 10
-0.26
 20
1.701034801441456
 30
0.360716265123477
 11
-0.26
 21
1.701732791375506
 31
0.3407284485830946
 12
0.26
 22
1.701732791375506
 32
0.3407284485830946
 13
0.26
 23
1.701034801441456
 33
0.360716265123477
  0
3DFACE
  5
3742
  8
TAIL
 10
0.15
 20
1.701034801441456
 30
0.360716265123477
 11
0.1699999999999995
 21
1.7010348014414569
 31
0.360716265123477
 12
0.1699999999999995
 22
1.709632729843547
 32
0.4010408931712661
 13
0.1499999999999995
 23
1.709632729843547
 33
0.4010408931712659
  0
3DFACE
  5
3744
  8
TAIL
 10
-0.26
 20
2.9468784889650328
 30
1.074630480038447
 11
-0.26
 21
2.9451335141299082
 31
1.1246000213894021
 12
-0.26
 22
2.9651213306702902
 32
1.1252980113234521
 13
-0.26
 23
2.9668663055054152
 33
1.075328469972497
  0
3DFACE
  5
3745
  8
TAIL
 10
0.26
 20
2.9668663055054152
 30
1.075328469972497
 11
0.26
 21
2.9651213306702902
 31
1.1252980113234521
 12
0.26
 22
2.9451335141299082
 32
1.1246000213894021
 13
0.26
 23
2.9468784889650328
 33
1.074630480038447
  0
3DFACE
  5
3746
  8
TAIL
 10
0.26
 20
2.9558890993471931
 30
0.9797609356556243
 11
0.26
 21
2.9668663055054152
 31
1.075328469972497
 12
0.26
 22
2.9468784889650328
 32
1.074630480038447
 13
0.26
 23
2.9393275454640171
 33
1.0043241271800849
  0
3DFACE
  5
3747
  8
TAIL
 10
-0.26
 20
2.9393275454640171
 30
1.0043241271800849
 11
-0.26
 21
2.9468784889650328
 31
1.074630480038447
 12
-0.26
 22
2.9668663055054152
 32
1.075328469972497
 13
-0.26
 23
2.9558890993471931
 33
0.9797609356556243
  0
3DFACE
  5
3748
  8
TAIL
 10
0.26
 20
2.9224806836268602
 30
0.9136809628143167
 11
0.26
 21
2.9558890993471931
 31
0.9797609356556243
 12
0.26
 22
2.9393275454640171
 32
1.0043241271800849
 13
0.26
 23
2.9024928670864778
 33
0.9129829728802668
  0
3DFACE
  5
3749
  8
TAIL
 10
-0.26
 20
2.9024928670864778
 30
0.9129829728802668
 11
-0.26
 21
2.9393275454640171
 31
1.0043241271800849
 12
-0.26
 22
2.9558890993471931
 32
0.9797609356556243
 13
-0.26
 23
2.9224806836268602
 33
0.9136809628143168
  0
3DFACE
  5
374A
  8
TAIL
 10
0.26
 20
2.8845990203482459
 30
0.8523215333250712
 11
0.26
 21
2.9224806836268602
 31
0.9136809628143168
 12
0.26
 22
2.9024928670864778
 32
0.9129829728802668
 13
0.26
 23
2.8256825556281751
 33
0.8202458387123484
  0
3DFACE
  5
374B
  8
TAIL
 10
-0.26
 20
2.8256825556281751
 30
0.8202458387123484
 11
-0.26
 21
2.9024928670864778
 31
0.9129829728802668
 12
-0.26
 22
2.9224806836268602
 32
0.9136809628143168
 13
-0.26
 23
2.8845990203482459
 33
0.8523215333250712
  0
3DFACE
  5
374C
  8
TAIL
 10
-0.26
 20
2.8256825556281751
 30
0.8202458387123484
 11
-0.26
 21
2.8256825556281751
 31
0.8202458387123484
 12
-0.26
 22
2.8845990203482459
 32
0.8523215333250712
 13
-0.26
 23
2.8363744538324172
 33
0.8006070171389911
  0
3DFACE
  5
374D
  8
TAIL
 10
0.26
 20
2.8363744538324172
 30
0.8006070171389911
 11
0.26
 21
2.8845990203482459
 31
0.8523215333250712
 12
0.26
 22
2.8256825556281751
 32
0.8202458387123484
 13
0.26
 23
2.8256825556281751
 33
0.8202458387123484
  0
3DFACE
  5
374E
  8
TAIL
 10
-0.26
 20
2.8363744538324172
 30
0.8006070171389911
 11
-0.26
 21
2.6910027643508769
 31
0.6654512851211337
 12
-0.26
 22
2.6803108661466362
 32
0.6850901066944908
 13
-0.26
 23
2.8256825556281751
 33
0.8202458387123484
  0
3DFACE
  5
374F
  8
TAIL
 10
0.26
 20
2.8256825556281751
 30
0.8202458387123484
 11
0.26
 21
2.6803108661466362
 31
0.6850901066944908
 12
0.26
 22
2.6910027643508769
 32
0.6654512851211337
 13
0.26
 23
2.8363744538324172
 33
0.8006070171389911
  0
3DFACE
  5
3750
  8
TAIL
 10
0.26
 20
2.6803108661466362
 30
0.6850901066944908
 11
0.26
 21
2.5631759266405441
 31
0.6009509009286632
 12
0.26
 22
2.5738678248447862
 32
0.581312079355306
 13
0.26
 23
2.6910027643508769
 33
0.6654512851211337
  0
3DFACE
  5
3751
  8
TAIL
 10
-0.26
 20
2.6910027643508769
 30
0.6654512851211337
 11
-0.26
 21
2.5738678248447862
 31
0.581312079355306
 12
-0.26
 22
2.5631759266405441
 32
0.6009509009286632
 13
-0.26
 23
2.6803108661466362
 33
0.6850901066944908
  0
3DFACE
  5
3752
  8
TAIL
 10
-0.26
 20
2.5738678248447862
 30
0.581312079355306
 11
-0.26
 21
2.4067633439877398
 31
0.4954278987543533
 12
-0.26
 22
2.3960714457834991
 32
0.5150667203277103
 13
-0.26
 23
2.5631759266405441
 33
0.6009509009286632
  0
3DFACE
  5
3753
  8
TAIL
 10
0.26
 20
2.5631759266405441
 30
0.6009509009286632
 11
0.26
 21
2.3960714457834991
 31
0.5150667203277103
 12
0.26
 22
2.4067633439877398
 32
0.4954278987543531
 13
0.26
 23
2.5738678248447862
 33
0.581312079355306
  0
3DFACE
  5
3754
  8
TAIL
 10
-0.26
 20
2.4067633439877398
 30
0.4954278987543531
 11
-0.26
 21
2.2489547814668338
 31
0.4298805296608072
 12
-0.26
 22
2.238262883262593
 32
0.4495193512341645
 13
-0.26
 23
2.3960714457834991
 33
0.5150667203277103
  0
3DFACE
  5
3755
  8
TAIL
 10
0.26
 20
2.3960714457834991
 30
0.5150667203277103
 11
0.26
 21
2.238262883262593
 31
0.4495193512341645
 12
0.26
 22
2.2489547814668338
 32
0.4298805296608072
 13
0.26
 23
2.4067633439877398
 33
0.4954278987543531
  0
3DFACE
  5
3756
  8
TAIL
 10
-0.26
 20
2.2489547814668351
 30
0.4298805296608073
 11
-0.26
 21
2.0904482290118791
 31
0.3843209771076431
 12
-0.26
 22
2.0797563308076379
 32
0.4039597986810005
 13
-0.26
 23
2.238262883262593
 33
0.4495193512341645
  0
3DFACE
  5
3757
  8
TAIL
 10
0.26
 20
2.238262883262593
 30
0.4495193512341645
 11
0.26
 21
2.0797563308076379
 31
0.4039597986810005
 12
0.26
 22
2.0904482290118791
 32
0.3843209771076431
 13
0.26
 23
2.2489547814668351
 33
0.4298805296608073
  0
3DFACE
  5
3758
  8
TAIL
 10
-0.26
 20
2.0904482290118791
 30
0.3843209771076435
 11
-0.26
 21
1.9315926815898989
 31
0.3487553328246698
 12
-0.26
 22
1.910906875115467
 32
0.3680451594310022
 13
-0.26
 23
2.0797563308076379
 33
0.4039597986810005
  0
3DFACE
  5
3759
  8
TAIL
 10
0.26
 20
2.0797563308076379
 30
0.4039597986810005
 11
0.26
 21
1.910906875115467
 31
0.3680451594310022
 12
0.26
 22
1.9315926815898989
 32
0.3487553328246698
 13
0.26
 23
2.0904482290118791
 33
0.3843209771076435
  0
3DFACE
  5
375A
  8
TAIL
 10
-0.26
 20
1.9315926815898989
 30
0.3487553328246698
 11
-0.26
 21
1.8419965021252049
 31
0.335620469851254
 12
-0.26
 22
1.821310695650771
 32
0.3549102964575863
 13
-0.26
 23
1.910906875115467
 33
0.3680451594310022
  0
3DFACE
  5
375B
  8
TAIL
 10
0.26
 20
1.910906875115467
 30
0.3680451594310022
 11
0.26
 21
1.821310695650771
 31
0.3549102964575863
 12
0.26
 22
1.8419965021252049
 32
0.335620469851254
 13
0.26
 23
1.9315926815898989
 33
0.3487553328246698
  0
3DFACE
  5
375C
  8
TAIL
 10
-0.26
 20
1.8419965021252021
 30
0.3356204698512539
 11
-0.26
 21
1.7620452359636769
 31
0.3328285101150539
 12
-0.26
 22
1.7613472460296249
 32
0.3528163266554362
 13
-0.26
 23
1.821310695650771
 33
0.3549102964575863
  0
3DFACE
  5
375D
  8
TAIL
 10
0.26
 20
1.821310695650771
 30
0.3549102964575863
 11
0.26
 21
1.7613472460296269
 31
0.3528163266554359
 12
0.26
 22
1.7620452359636769
 32
0.3328285101150539
 13
0.26
 23
1.8419965021252021
 33
0.3356204698512539
  0
3DFACE
  5
375E
  8
TAIL
 10
-0.26
 20
1.7620452359636769
 30
0.3328285101150539
 11
-0.26
 21
1.701732791375506
 31
0.3407284485830946
 12
-0.26
 22
1.701034801441456
 32
0.360716265123477
 13
-0.26
 23
1.7613472460296249
 33
0.3528163266554362
  0
3DFACE
  5
375F
  8
TAIL
 10
0.26
 20
1.7613472460296249
 30
0.3528163266554362
 11
0.26
 21
1.701034801441456
 31
0.360716265123477
 12
0.26
 22
1.701732791375506
 32
0.3407284485830946
 13
0.26
 23
1.7620452359636769
 33
0.3328285101150539
  0
3DFACE
  5
3774
  8
TAIL
 10
0.13
 20
1.956466136903916
 30
0.7826211003449443
 11
0.0991583040330589
 21
1.8452013895373529
 31
0.9641481193488157
 12
0.139158304033059
 22
1.8452013895373529
 32
0.9641481193488152
 13
0.17
 23
1.956466136903916
 33
0.7826211003449443
  0
3DFACE
  5
3775
  8
TAIL
 10
0.08
 20
1.7798572551337699
 30
0.9689073515938886
 11
0.13
 21
1.960294462824967
 31
0.6729921896201557
 12
0.17
 22
1.960294462824967
 32
0.6729921896201557
 13
0.12
 23
1.779857255133771
 33
0.968907351593887
  0
3DFACE
  5
3776
  8
TAIL
 10
0.08
 20
1.702322947267038
 30
1.0960628178332641
 11
0.08
 21
1.7798572551337699
 31
0.9689073515938886
 12
0.12
 22
1.7798572551337699
 32
0.9689073515938886
 13
0.12
 23
1.7023229472670369
 33
1.0960628178332641
  0
3DFACE
  5
3777
  8
TAIL
 10
0.17
 20
1.956466136903916
 30
0.7826211003449443
 11
0.139158304033059
 21
1.8452013895373529
 31
0.9641481193488152
 12
0.1200000000000001
 22
1.779857255133771
 32
0.9689073515938865
 13
0.17
 23
1.960294462824967
 33
0.6729921896201557
  0
3DFACE
  5
3778
  8
TAIL
 10
0.0991583040330589
 20
1.8452013895373529
 30
0.9641481193488157
 11
0.13
 21
1.956466136903916
 31
0.7826211003449443
 12
0.13
 22
1.960294462824967
 32
0.6729921896201557
 13
0.08
 23
1.7798572551337699
 33
0.9689073515938886
  0
3DFACE
  5
3779
  8
TAIL
 10
0.1194680567913867
 20
1.910352250376524
 30
1.077100656082125
 11
0.13
 21
1.946186876510801
 31
1.0769806045229371
 12
0.17
 22
1.9461868765108099
 32
1.076980604522952
 13
0.1594680567913868
 23
1.9103522503765129
 33
1.077100656082105
  0
3DFACE
  5
377A
  8
TAIL
 10
0.139158304033059
 20
1.8452013895373529
 30
0.9641481193488152
 11
0.1594680567913868
 21
1.9103522503765129
 31
1.077100656082105
 12
0.12
 22
1.7742036372749601
 32
1.130805784563583
 13
0.1200000000000001
 23
1.779857255133771
 33
0.9689073515938865
  0
3DFACE
  5
377B
  8
TAIL
 10
0.08
 20
1.7798572551337699
 30
0.9689073515938886
 11
0.08
 21
1.774203637274955
 31
1.130805784563585
 12
0.1194680567913867
 22
1.910352250376524
 32
1.077100656082125
 13
0.0991583040330589
 23
1.8452013895373529
 33
0.9641481193488157
  0
3DFACE
  5
377C
  8
TAIL
 10
0.08
 20
1.774203637274955
 30
1.130805784563585
 11
0.08
 21
1.774203637274955
 31
1.130805784563585
 12
0.13
 22
1.9443387475872169
 32
1.129904092478446
 13
0.1194680567913867
 23
1.910352250376524
 33
1.077100656082125
  0
3DFACE
  5
377D
  8
TAIL
 10
0.1594680567913868
 20
1.9103522503765129
 30
1.077100656082105
 11
0.17
 21
1.9443387475872169
 31
1.129904092478446
 12
0.12
 22
1.7742036372749601
 32
1.130805784563583
 13
0.12
 23
1.7742036372749601
 33
1.130805784563583
  0
3DFACE
  5
377E
  8
TAIL
 10
0.1194680567913867
 20
1.910352250376524
 30
1.077100656082125
 11
0.1194680567913867
 21
1.910352250376524
 31
1.077100656082125
 12
0.13
 22
1.9443387475872169
 32
1.129904092478446
 13
0.13
 23
1.946186876510801
 33
1.0769806045229371
  0
3DFACE
  5
377F
  8
TAIL
 10
0.17
 20
1.9461868765108099
 30
1.076980604522952
 11
0.17
 21
1.9443387475872169
 31
1.129904092478446
 12
0.1594680567913868
 22
1.9103522503765129
 32
1.077100656082105
 13
0.1594680567913868
 23
1.9103522503765129
 33
1.077100656082105
  0
3DFACE
  5
3780
  8
TAIL
 10
0.08
 20
1.774203637274955
 30
1.130805784563585
 11
0.08
 21
1.719363425165662
 31
1.1310964299519191
 12
0.12
 22
1.719363425165662
 32
1.1310964299519191
 13
0.12
 23
1.7742036372749601
 33
1.130805784563583
  0
3DFACE
  5
3781
  8
TAIL
 10
0.13
 20
1.9443387475872169
 30
1.129904092478446
 11
0.08
 21
1.774203637274955
 31
1.130805784563585
 12
0.12
 22
1.7742036372749601
 32
1.130805784563583
 13
0.17
 23
1.9443387475872169
 33
1.129904092478446
  0
3DFACE
  5
3838
  8
TAIL
 10
0.17
 20
2.868196256898071
 30
1.122157056620227
 11
0.164142135623731
 21
2.8823297775148879
 31
1.12166350320466
 12
0.164142135623731
 22
2.885819727185138
 32
1.22160258590657
 13
0.17
 23
2.8716862065683211
 33
1.222096139322137
  0
3DFACE
  5
3839
  8
TAIL
 10
0.164142135623731
 20
2.8823297775148879
 30
1.12166350320466
 11
0.15
 21
2.8881840734384521
 31
1.121459066686177
 12
0.15
 22
2.8916740231087021
 32
1.2213981493880861
 13
0.164142135623731
 23
2.885819727185138
 33
1.22160258590657
  0
3DFACE
  5
383A
  8
TAIL
 10
0.15
 20
2.8881840734384521
 30
1.121459066686177
 11
0.1358578643762691
 21
2.8823297775148879
 31
1.12166350320466
 12
0.1358578643762691
 22
2.885819727185138
 32
1.22160258590657
 13
0.15
 23
2.8916740231087021
 33
1.2213981493880861
  0
3DFACE
  5
383B
  8
TAIL
 10
0.1358578643762691
 20
2.8823297775148879
 30
1.12166350320466
 11
0.13
 21
2.868196256898071
 31
1.122157056620227
 12
0.13
 22
2.8716862065683211
 32
1.222096139322137
 13
0.1358578643762691
 23
2.885819727185138
 33
1.22160258590657
  0
3DFACE
  5
383C
  8
TAIL
 10
0.13
 20
2.868196256898071
 30
1.122157056620227
 11
0.1358578643762691
 21
2.8540627362812541
 31
1.122650610035794
 12
0.1358578643762691
 22
2.8575526859515041
 32
1.2225896927377029
 13
0.13
 23
2.8716862065683211
 33
1.222096139322137
  0
3DFACE
  5
383D
  8
TAIL
 10
0.1358578643762691
 20
2.8540627362812541
 30
1.122650610035794
 11
0.15
 21
2.8482084403576882
 31
1.122855046554277
 12
0.15
 22
2.8516983900279391
 32
1.2227941292561859
 13
0.1358578643762691
 23
2.8575526859515041
 33
1.2225896927377029
  0
3DFACE
  5
383E
  8
TAIL
 10
0.15
 20
2.8482084403576882
 30
1.122855046554277
 11
0.164142135623731
 21
2.8540627362812541
 31
1.122650610035794
 12
0.164142135623731
 22
2.8575526859515041
 32
1.2225896927377029
 13
0.15
 23
2.8516983900279391
 33
1.2227941292561859
  0
3DFACE
  5
383F
  8
TAIL
 10
0.164142135623731
 20
2.8540627362812541
 30
1.122650610035794
 11
0.17
 21
2.868196256898071
 31
1.122157056620227
 12
0.17
 22
2.8716862065683211
 32
1.222096139322137
 13
0.164142135623731
 23
2.8575526859515041
 33
1.2225896927377029
  0
3DFACE
  5
3840
  8
TAIL
 10
0.17
 20
2.8716862065683211
 30
1.222096139322137
 11
0.164142135623731
 21
2.885819727185138
 31
1.22160258590657
 12
0.1676776695296637
 22
2.8897021023063671
 32
1.231473105822869
 13
0.175
 23
2.8720352015353461
 33
1.2320900475923271
  0
3DFACE
  5
3841
  8
TAIL
 10
0.164142135623731
 20
2.885819727185138
 30
1.22160258590657
 11
0.15
 21
2.8916740231087021
 31
1.2213981493880861
 12
0.15
 22
2.8970199722108232
 32
1.231217560174765
 13
0.1676776695296637
 23
2.8897021023063671
 33
1.231473105822869
  0
3DFACE
  5
3842
  8
TAIL
 10
0.15
 20
2.8916740231087021
 30
1.2213981493880861
 11
0.1358578643762691
 21
2.885819727185138
 31
1.22160258590657
 12
0.1323223304703363
 22
2.8897021023063671
 32
1.231473105822869
 13
0.15
 23
2.8970199722108232
 33
1.231217560174765
  0
3DFACE
  5
3843
  8
TAIL
 10
0.1358578643762691
 20
2.885819727185138
 30
1.22160258590657
 11
0.13
 21
2.8716862065683211
 31
1.222096139322137
 12
0.125
 22
2.8720352015353461
 32
1.2320900475923271
 13
0.1323223304703363
 23
2.8897021023063671
 33
1.231473105822869
  0
3DFACE
  5
3844
  8
TAIL
 10
0.13
 20
2.8716862065683211
 30
1.222096139322137
 11
0.1358578643762691
 21
2.8575526859515041
 31
1.2225896927377029
 12
0.1323223304703363
 22
2.854368300764325
 32
1.2327069893617859
 13
0.125
 23
2.8720352015353461
 33
1.2320900475923271
  0
3DFACE
  5
3845
  8
TAIL
 10
0.1358578643762691
 20
2.8575526859515041
 30
1.2225896927377029
 11
0.15
 21
2.8516983900279391
 31
1.2227941292561859
 12
0.15
 22
2.8470504308598681
 32
1.2329625350098901
 13
0.1323223304703363
 23
2.854368300764325
 33
1.2327069893617859
  0
3DFACE
  5
3846
  8
TAIL
 10
0.15
 20
2.8516983900279391
 30
1.2227941292561859
 11
0.164142135623731
 21
2.8575526859515041
 31
1.2225896927377029
 12
0.1676776695296637
 22
2.854368300764325
 32
1.2327069893617859
 13
0.15
 23
2.8470504308598681
 33
1.2329625350098901
  0
3DFACE
  5
3847
  8
TAIL
 10
0.164142135623731
 20
2.8575526859515041
 30
1.2225896927377029
 11
0.17
 21
2.8716862065683211
 31
1.222096139322137
 12
0.175
 22
2.8720352015353461
 32
1.2320900475923271
 13
0.1676776695296637
 23
2.854368300764325
 33
1.2327069893617859
  0
3DFACE
  5
3848
  8
TAIL
 10
0.1676776695296637
 20
2.854368300764325
 30
1.2327069893617859
 11
0.175
 21
2.8720352015353461
 31
1.2320900475923271
 12
0.1676776695296637
 22
2.8897021023063671
 32
1.231473105822869
 13
0.15
 23
2.8470504308598681
 33
1.2329625350098901
  0
3DFACE
  5
3849
  8
TAIL
 10
0.15
 20
2.8470504308598681
 30
1.2329625350098901
 11
0.1676776695296637
 21
2.8897021023063671
 31
1.231473105822869
 12
0.15
 22
2.8970199722108232
 32
1.231217560174765
 13
0.1323223304703363
 23
2.854368300764325
 33
1.2327069893617859
  0
3DFACE
  5
384A
  8
TAIL
 10
0.1323223304703363
 20
2.854368300764325
 30
1.2327069893617859
 11
0.15
 21
2.8970199722108232
 31
1.231217560174765
 12
0.1323223304703363
 22
2.8897021023063671
 32
1.231473105822869
 13
0.125
 23
2.8720352015353461
 33
1.2320900475923271
  0
3DFACE
  5
384B
  8
TAIL
 10
-0.1676776695296637
 20
2.854368300764325
 30
1.2327069893617859
 11
-0.15
 21
2.8970199722108232
 31
1.231217560174765
 12
-0.1676776695296637
 22
2.8897021023063671
 32
1.231473105822869
 13
-0.175
 23
2.8720352015353461
 33
1.2320900475923271
  0
3DFACE
  5
384C
  8
TAIL
 10
-0.15
 20
2.8470504308598681
 30
1.2329625350098901
 11
-0.1323223304703363
 21
2.8897021023063671
 31
1.231473105822869
 12
-0.15
 22
2.8970199722108232
 32
1.231217560174765
 13
-0.1676776695296637
 23
2.854368300764325
 33
1.2327069893617859
  0
3DFACE
  5
384D
  8
TAIL
 10
-0.1323223304703363
 20
2.854368300764325
 30
1.2327069893617859
 11
-0.125
 21
2.8720352015353461
 31
1.2320900475923271
 12
-0.1323223304703363
 22
2.8897021023063671
 32
1.231473105822869
 13
-0.15
 23
2.8470504308598681
 33
1.2329625350098901
  0
3DFACE
  5
384E
  8
TAIL
 10
-0.1358578643762691
 20
2.8575526859515041
 30
1.2225896927377029
 11
-0.13
 21
2.8716862065683211
 31
1.222096139322137
 12
-0.125
 22
2.8720352015353461
 32
1.2320900475923271
 13
-0.1323223304703363
 23
2.854368300764325
 33
1.2327069893617859
  0
3DFACE
  5
384F
  8
TAIL
 10
-0.15
 20
2.8516983900279391
 30
1.2227941292561859
 11
-0.1358578643762691
 21
2.8575526859515041
 31
1.2225896927377029
 12
-0.1323223304703363
 22
2.854368300764325
 32
1.2327069893617859
 13
-0.15
 23
2.8470504308598681
 33
1.2329625350098901
  0
3DFACE
  5
3850
  8
TAIL
 10
-0.164142135623731
 20
2.8575526859515041
 30
1.2225896927377029
 11
-0.15
 21
2.8516983900279391
 31
1.2227941292561859
 12
-0.15
 22
2.8470504308598681
 32
1.2329625350098901
 13
-0.1676776695296637
 23
2.854368300764325
 33
1.2327069893617859
  0
3DFACE
  5
3851
  8
TAIL
 10
-0.17
 20
2.8716862065683211
 30
1.222096139322137
 11
-0.164142135623731
 21
2.8575526859515041
 31
1.2225896927377029
 12
-0.1676776695296637
 22
2.854368300764325
 32
1.2327069893617859
 13
-0.175
 23
2.8720352015353461
 33
1.2320900475923271
  0
3DFACE
  5
3852
  8
TAIL
 10
-0.164142135623731
 20
2.885819727185138
 30
1.22160258590657
 11
-0.17
 21
2.8716862065683211
 31
1.222096139322137
 12
-0.175
 22
2.8720352015353461
 32
1.2320900475923271
 13
-0.1676776695296637
 23
2.8897021023063671
 33
1.231473105822869
  0
3DFACE
  5
3853
  8
TAIL
 10
-0.15
 20
2.8916740231087021
 30
1.2213981493880861
 11
-0.164142135623731
 21
2.885819727185138
 31
1.22160258590657
 12
-0.1676776695296637
 22
2.8897021023063671
 32
1.231473105822869
 13
-0.15
 23
2.8970199722108232
 33
1.231217560174765
  0
3DFACE
  5
3854
  8
TAIL
 10
-0.1358578643762691
 20
2.885819727185138
 30
1.22160258590657
 11
-0.15
 21
2.8916740231087021
 31
1.2213981493880861
 12
-0.15
 22
2.8970199722108232
 32
1.231217560174765
 13
-0.1323223304703363
 23
2.8897021023063671
 33
1.231473105822869
  0
3DFACE
  5
3855
  8
TAIL
 10
-0.13
 20
2.8716862065683211
 30
1.222096139322137
 11
-0.1358578643762691
 21
2.885819727185138
 31
1.22160258590657
 12
-0.1323223304703363
 22
2.8897021023063671
 32
1.231473105822869
 13
-0.125
 23
2.8720352015353461
 33
1.2320900475923271
  0
3DFACE
  5
3856
  8
TAIL
 10
-0.1358578643762691
 20
2.8540627362812541
 30
1.122650610035794
 11
-0.13
 21
2.868196256898071
 31
1.122157056620227
 12
-0.13
 22
2.8716862065683211
 32
1.222096139322137
 13
-0.1358578643762691
 23
2.8575526859515041
 33
1.2225896927377029
  0
3DFACE
  5
3857
  8
TAIL
 10
-0.15
 20
2.8482084403576882
 30
1.122855046554277
 11
-0.1358578643762691
 21
2.8540627362812541
 31
1.122650610035794
 12
-0.1358578643762691
 22
2.8575526859515041
 32
1.2225896927377029
 13
-0.15
 23
2.8516983900279391
 33
1.2227941292561859
  0
3DFACE
  5
3858
  8
TAIL
 10
-0.164142135623731
 20
2.8540627362812541
 30
1.122650610035794
 11
-0.15
 21
2.8482084403576882
 31
1.122855046554277
 12
-0.15
 22
2.8516983900279391
 32
1.2227941292561859
 13
-0.164142135623731
 23
2.8575526859515041
 33
1.2225896927377029
  0
3DFACE
  5
3859
  8
TAIL
 10
-0.17
 20
2.868196256898071
 30
1.122157056620227
 11
-0.164142135623731
 21
2.8540627362812541
 31
1.122650610035794
 12
-0.164142135623731
 22
2.8575526859515041
 32
1.2225896927377029
 13
-0.17
 23
2.8716862065683211
 33
1.222096139322137
  0
3DFACE
  5
385A
  8
TAIL
 10
-0.164142135623731
 20
2.8823297775148879
 30
1.12166350320466
 11
-0.17
 21
2.868196256898071
 31
1.122157056620227
 12
-0.17
 22
2.8716862065683211
 32
1.222096139322137
 13
-0.164142135623731
 23
2.885819727185138
 33
1.22160258590657
  0
3DFACE
  5
385B
  8
TAIL
 10
-0.15
 20
2.8881840734384521
 30
1.121459066686177
 11
-0.164142135623731
 21
2.8823297775148879
 31
1.12166350320466
 12
-0.164142135623731
 22
2.885819727185138
 32
1.22160258590657
 13
-0.15
 23
2.8916740231087021
 33
1.2213981493880861
  0
3DFACE
  5
385C
  8
TAIL
 10
-0.1358578643762691
 20
2.8823297775148879
 30
1.12166350320466
 11
-0.15
 21
2.8881840734384521
 31
1.121459066686177
 12
-0.15
 22
2.8916740231087021
 32
1.2213981493880861
 13
-0.1358578643762691
 23
2.885819727185138
 33
1.22160258590657
  0
3DFACE
  5
385D
  8
TAIL
 10
-0.13
 20
2.868196256898071
 30
1.122157056620227
 11
-0.1358578643762691
 21
2.8823297775148879
 31
1.12166350320466
 12
-0.1358578643762691
 22
2.885819727185138
 32
1.22160258590657
 13
-0.13
 23
2.8716862065683211
 33
1.222096139322137
  0
3DFACE
  5
385F
  8
TAIL
 10
-0.13
 20
2.6149855462465812
 30
1.123077095747768
 11
-0.13
 21
2.6160325311476562
 31
1.093095370937194
 12
0.13
 22
2.6160325311476562
 32
1.093095370937194
 13
0.13
 23
2.6149855462465812
 33
1.123077095747768
  0
3DFACE
  5
3861
  8
TAIL
 10
0.13
 20
2.654961179327346
 30
1.1244730756158681
 11
0.13
 21
2.656008164228421
 31
1.0944913508052949
 12
-0.13
 22
2.656008164228421
 32
1.0944913508052949
 13
-0.13
 23
2.654961179327346
 33
1.1244730756158681
  0
3DFACE
  5
3862
  8
TAIL
 10
0.13
 20
2.656008164228421
 30
1.0944913508052949
 11
0.13
 21
2.6160325311476562
 31
1.093095370937194
 12
-0.13
 22
2.6160325311476562
 32
1.093095370937194
 13
-0.13
 23
2.656008164228421
 33
1.0944913508052949
  0
3DFACE
  5
3863
  8
TAIL
 10
-0.13
 20
2.654961179327346
 30
1.1244730756158681
 11
-0.13
 21
2.6149855462465812
 31
1.123077095747768
 12
0.13
 22
2.6149855462465812
 32
1.123077095747768
 13
0.13
 23
2.654961179327346
 33
1.1244730756158681
  0
3DFACE
  5
3867
  8
TAIL
 10
-0.13
 20
2.1345799593433652
 30
1.1263131538709501
 11
-0.13
 21
2.1356269442444402
 31
1.0963314290603761
 12
0.13
 22
2.1356269442444402
 32
1.0963314290603761
 13
0.13
 23
2.1345799593433652
 33
1.1263131538709501
  0
3DFACE
  5
3868
  8
TAIL
 10
0.13
 20
2.17455559242413
 30
1.1277091337390499
 11
0.13
 21
2.175602577325205
 31
1.0977274089284761
 12
-0.13
 22
2.175602577325205
 32
1.0977274089284761
 13
-0.13
 23
2.17455559242413
 33
1.1277091337390499
  0
3DFACE
  5
386A
  8
TAIL
 10
0.13
 20
2.175602577325205
 30
1.0977274089284761
 11
0.13
 21
2.1356269442444402
 31
1.0963314290603761
 12
-0.13
 22
2.1356269442444402
 32
1.0963314290603761
 13
-0.13
 23
2.175602577325205
 33
1.0977274089284761
  0
3DFACE
  5
386B
  8
TAIL
 10
-0.13
 20
2.17455559242413
 30
1.1277091337390499
 11
-0.13
 21
2.1345799593433652
 31
1.1263131538709501
 12
0.13
 22
2.1345799593433652
 32
1.1263131538709501
 13
0.13
 23
2.17455559242413
 33
1.1277091337390499
  0
3DFACE
  5
386E
  8
TAIL
 10
-0.13
 20
2.5550220966254349
 30
1.1209831259456171
 11
-0.13
 21
2.5560690815265099
 31
1.091001401135044
 12
0.13
 22
2.1855964855953949
 32
1.0980764038955011
 13
0.13
 23
2.1845495006943199
 33
1.1280581287060749
  0
3DFACE
  5
3870
  8
TAIL
 10
0.13
 20
2.2245251337750851
 30
1.1294541085741749
 11
0.13
 21
2.2255721186761601
 31
1.0994723837636009
 12
-0.13
 22
2.5960447146072738
 32
1.092397381003144
 13
-0.13
 23
2.5949977297061988
 33
1.122379105813718
  0
3DFACE
  5
3871
  8
TAIL
 10
0.13
 20
2.2255721186761601
 30
1.0994723837636009
 11
0.13
 21
2.1855964855953949
 31
1.0980764038955011
 12
-0.13
 22
2.5560690815265099
 32
1.091001401135044
 13
-0.13
 23
2.5960447146072738
 33
1.092397381003144
  0
3DFACE
  5
3872
  8
TAIL
 10
-0.13
 20
2.5949977297061988
 30
1.122379105813718
 11
-0.13
 21
2.5550220966254349
 31
1.1209831259456171
 12
0.13
 22
2.1845495006943199
 32
1.1280581287060749
 13
0.13
 23
2.2245251337750851
 33
1.1294541085741749
  0
3DFACE
  5
3874
  8
TAIL
 10
0.17
 20
2.5814187683458032
 30
0.6516184322136678
 11
0.17
 21
2.4814796856438921
 31
0.6481284825434177
 12
0.17
 22
2.479036720874717
 32
0.7180858404347547
 13
0.17
 23
2.5789758035766281
 33
0.7215757901050046
  0
3DFACE
  5
3876
  8
TAIL
 10
0.2
 20
2.479036720874717
 30
0.7180858404347547
 11
0.2
 21
2.4814796856438921
 31
0.6481284825434177
 12
0.2
 22
2.5814187683458032
 32
0.6516184322136678
 13
0.2
 23
2.5789758035766281
 33
0.7215757901050046
  0
3DFACE
  5
3877
  8
TAIL
 10
0.2
 20
2.5789758035766281
 30
0.7215757901050046
 11
0.2
 21
2.5814187683458032
 31
0.6516184322136678
 12
0.17
 22
2.5814187683458032
 32
0.6516184322136678
 13
0.17
 23
2.5789758035766281
 33
0.7215757901050046
  0
3DFACE
  5
3878
  8
TAIL
 10
0.2
 20
2.5814187683458032
 30
0.6516184322136678
 11
0.2
 21
2.4814796856438921
 31
0.6481284825434177
 12
0.17
 22
2.4814796856438921
 32
0.6481284825434177
 13
0.17
 23
2.5814187683458032
 33
0.6516184322136678
  0
3DFACE
  5
3879
  8
TAIL
 10
0.17
 20
2.5789758035766281
 30
0.7215757901050046
 11
0.17
 21
2.479036720874717
 31
0.7180858404347547
 12
0.2
 22
2.479036720874717
 32
0.7180858404347547
 13
0.2
 23
2.5789758035766281
 33
0.7215757901050046
  0
3DFACE
  5
387B
  8
TAIL
 10
0.5999999999999999
 20
1.8886981429994001
 30
0.7174829539206609
 11
0.5999999999999999
 21
1.8907921128015499
 31
0.6575195042995153
 12
0.2
 22
2.4814796856438939
 32
0.6481284825434177
 13
0.2
 23
2.4790367208747188
 33
0.7180858404347547
  0
3DFACE
  5
387D
  8
TAIL
 10
0.17
 20
2.4814796856438939
 30
0.6481284825434177
 11
0.5600000000000001
 21
1.8907921128015499
 31
0.6575195042995153
 12
0.5600000000000001
 22
1.8886981429994001
 32
0.7174829539206609
 13
0.17
 23
2.4790367208747188
 33
0.7180858404347547
  0
3DFACE
  5
387F
  8
TAIL
 10
0.2
 20
2.4814796856438939
 30
0.6481284825434177
 11
0.5999999999999999
 21
1.8907921128015499
 31
0.6575195042995153
 12
0.5600000000000001
 22
1.8907921128015499
 32
0.6575195042995153
 13
0.17
 23
2.4814796856438939
 33
0.6481284825434177
  0
3DFACE
  5
3880
  8
TAIL
 10
0.17
 20
2.4790367208747188
 30
0.7180858404347547
 11
0.5600000000000001
 21
1.8886981429994001
 31
0.7174829539206609
 12
0.5999999999999999
 22
1.8886981429994001
 32
0.7174829539206609
 13
0.2
 23
2.4790367208747188
 33
0.7180858404347547
  0
3DFACE
  5
3884
  8
TAIL
 10
-0.17
 20
2.4790367208747188
 30
0.7180858404347547
 11
-0.5600000000000001
 21
1.8886981429994001
 31
0.7174829539206609
 12
-0.5600000000000001
 22
1.8907921128015499
 32
0.6575195042995153
 13
-0.1700000000000001
 23
2.4814796856438939
 33
0.6481284825434177
  0
3DFACE
  5
3885
  8
TAIL
 10
-0.5999999999999999
 20
1.8907921128015499
 30
0.6575195042995153
 11
-0.5999999999999999
 21
1.8886981429994001
 31
0.7174829539206609
 12
-0.2
 22
2.4790367208747188
 32
0.7180858404347547
 13
-0.2
 23
2.4814796856438939
 33
0.6481284825434177
  0
3DFACE
  5
3886
  8
TAIL
 10
-0.2
 20
2.4790367208747188
 30
0.7180858404347547
 11
-0.5999999999999999
 21
1.8886981429994001
 31
0.7174829539206609
 12
-0.5600000000000001
 22
1.8886981429994001
 32
0.7174829539206609
 13
-0.17
 23
2.4790367208747188
 33
0.7180858404347547
  0
3DFACE
  5
3887
  8
TAIL
 10
-0.5700000000000001
 20
1.8907921128015499
 30
0.6575195042995153
 11
-0.5700000000000001
 21
1.8886981429994001
 31
0.7174829539206609
 12
-0.59
 22
1.8886981429994001
 32
0.7174829539206609
 13
-0.59
 23
1.8907921128015499
 33
0.6575195042995153
  0
3DFACE
  5
3889
  8
TAIL
 10
-0.1700000000000001
 20
2.4814796856438939
 30
0.6481284825434177
 11
-0.5600000000000001
 21
1.8907921128015499
 31
0.6575195042995153
 12
-0.5999999999999999
 22
1.8907921128015499
 32
0.6575195042995153
 13
-0.2
 23
2.4814796856438939
 33
0.6481284825434177
  0
3DFACE
  5
388A
  8
TAIL
 10
-0.2
 20
2.4814796856438921
 30
0.6481284825434177
 11
-0.2
 21
2.479036720874717
 31
0.7180858404347547
 12
-0.2
 22
2.5789758035766281
 32
0.7215757901050046
 13
-0.2
 23
2.5814187683458032
 33
0.6516184322136678
  0
3DFACE
  5
388C
  8
TAIL
 10
-0.2
 20
2.5814187683458032
 30
0.6516184322136678
 11
-0.2
 21
2.5789758035766281
 31
0.7215757901050046
 12
-0.17
 22
2.5789758035766281
 32
0.7215757901050046
 13
-0.17
 23
2.5814187683458032
 33
0.6516184322136678
  0
3DFACE
  5
388D
  8
TAIL
 10
-0.17
 20
2.5814187683458032
 30
0.6516184322136678
 11
-0.17
 21
2.4814796856438921
 31
0.6481284825434177
 12
-0.2
 22
2.4814796856438921
 32
0.6481284825434177
 13
-0.2
 23
2.5814187683458032
 33
0.6516184322136678
  0
3DFACE
  5
388E
  8
TAIL
 10
-0.17
 20
2.5789758035766281
 30
0.7215757901050046
 11
-0.17
 21
2.479036720874717
 31
0.7180858404347547
 12
-0.17
 22
2.4814796856438921
 32
0.6481284825434177
 13
-0.17
 23
2.5814187683458032
 33
0.6516184322136678
  0
3DFACE
  5
388F
  8
TAIL
 10
-0.2
 20
2.5789758035766281
 30
0.7215757901050046
 11
-0.2
 21
2.479036720874717
 31
0.7180858404347547
 12
-0.17
 22
2.479036720874717
 32
0.7180858404347547
 13
-0.17
 23
2.5789758035766281
 33
0.7215757901050046
  0
3DFACE
  5
38A6
  8
TAIL
 10
-0.59
 20
1.8397755865495209
 30
0.6857562542749632
 11
-0.59
 21
1.847816700311518
 31
0.7072631899779132
 12
-0.6
 22
1.847816700311518
 32
0.7072631899779132
 13
-0.6
 23
1.8397755865495209
 33
0.6857562542749632
  0
3DFACE
  5
38A7
  8
TAIL
 10
-0.59
 20
1.847816700311518
 30
0.7072631899779132
 11
-0.59
 21
1.868710326459019
 31
0.7167849639866111
 12
-0.6
 22
1.868710326459019
 32
0.7167849639866111
 13
-0.6
 23
1.847816700311518
 33
0.7072631899779132
  0
3DFACE
  5
38A8
  8
TAIL
 10
-0.59
 20
1.868710326459019
 30
0.7167849639866111
 11
-0.59
 21
1.8886981429994001
 31
0.7174829539206609
 12
-0.6
 22
1.8886981429994001
 32
0.7174829539206609
 13
-0.6
 23
1.868710326459019
 33
0.7167849639866111
  0
3DFACE
  5
38AB
  8
TAIL
 10
-0.59
 20
1.8907921128015499
 30
0.6575195042995153
 11
-0.59
 21
1.8708042962611691
 31
0.6568215143654652
 12
-0.6
 22
1.8708042962611691
 32
0.6568215143654652
 13
-0.6
 23
1.8907921128015499
 33
0.6575195042995153
  0
3DFACE
  5
38AC
  8
TAIL
 10
-0.59
 20
1.8708042962611691
 30
0.6568215143654652
 11
-0.59
 21
1.8492973605582179
 31
0.6648626281274628
 12
-0.6
 22
1.8492973605582179
 32
0.6648626281274628
 13
-0.6
 23
1.8708042962611691
 33
0.6568215143654652
  0
3DFACE
  5
38AD
  8
TAIL
 10
-0.59
 20
1.8492973605582179
 30
0.6648626281274628
 11
-0.59
 21
1.8397755865495209
 31
0.6857562542749632
 12
-0.6
 22
1.8397755865495209
 32
0.6857562542749632
 13
-0.6
 23
1.8492973605582179
 33
0.6648626281274628
  0
3DFACE
  5
38AE
  8
TAIL
 10
-0.6
 20
1.868710326459019
 30
0.7167849639866111
 11
-0.6
 21
1.8886981429994001
 31
0.7174829539206609
 12
-0.6
 22
1.8907921128015499
 32
0.6575195042995153
 13
-0.6
 23
1.8708042962611691
 33
0.6568215143654652
  0
3DFACE
  5
38AF
  8
TAIL
 10
-0.6
 20
1.847816700311518
 30
0.7072631899779132
 11
-0.6
 21
1.868710326459019
 31
0.7167849639866109
 12
-0.6
 22
1.8708042962611691
 32
0.6568215143654652
 13
-0.6
 23
1.8492973605582179
 33
0.6648626281274628
  0
3DFACE
  5
38B0
  8
TAIL
 10
-0.6
 20
1.8397755865495209
 30
0.6857562542749632
 11
-0.6
 21
1.847816700311518
 31
0.7072631899779132
 12
-0.6
 22
1.8492973605582179
 32
0.6648626281274628
 13
-0.6
 23
1.8397755865495209
 33
0.6857562542749632
  0
3DFACE
  5
38B1
  8
TAIL
 10
-0.5900000000000001
 20
1.8397755865495209
 30
0.6857562542749632
 11
-0.5900000000000001
 21
1.8492973605582179
 31
0.6648626281274628
 12
-0.5900000000000001
 22
1.847816700311518
 32
0.7072631899779132
 13
-0.5900000000000001
 23
1.8397755865495209
 33
0.6857562542749632
  0
3DFACE
  5
38B2
  8
TAIL
 10
-0.5900000000000001
 20
1.8492973605582179
 30
0.6648626281274628
 11
-0.5900000000000001
 21
1.8708042962611691
 31
0.6568215143654655
 12
-0.5900000000000001
 22
1.868710326459019
 32
0.7167849639866111
 13
-0.5900000000000001
 23
1.847816700311518
 33
0.7072631899779132
  0
3DFACE
  5
38B3
  8
TAIL
 10
-0.5900000000000001
 20
1.8708042962611691
 30
0.6568215143654652
 11
-0.5900000000000001
 21
1.8907921128015499
 31
0.6575195042995154
 12
-0.5900000000000001
 22
1.8886981429994001
 32
0.7174829539206611
 13
-0.5900000000000001
 23
1.868710326459019
 33
0.7167849639866111
  0
3DFACE
  5
38B4
  8
TAIL
 10
-0.5600000000000002
 20
1.8397755865495209
 30
0.6857562542749632
 11
-0.5600000000000002
 21
1.8492973605582179
 31
0.6648626281274628
 12
-0.5600000000000002
 22
1.847816700311518
 32
0.7072631899779132
 13
-0.5600000000000002
 23
1.8397755865495209
 33
0.6857562542749632
  0
3DFACE
  5
38B5
  8
TAIL
 10
-0.5600000000000002
 20
1.8492973605582179
 30
0.6648626281274628
 11
-0.5600000000000002
 21
1.8708042962611691
 31
0.6568215143654655
 12
-0.5600000000000002
 22
1.868710326459019
 32
0.7167849639866111
 13
-0.5600000000000002
 23
1.847816700311518
 33
0.7072631899779132
  0
3DFACE
  5
38B6
  8
TAIL
 10
-0.5600000000000002
 20
1.8708042962611691
 30
0.6568215143654652
 11
-0.5600000000000002
 21
1.8907921128015499
 31
0.6575195042995154
 12
-0.5600000000000002
 22
1.8886981429994001
 32
0.7174829539206611
 13
-0.5600000000000002
 23
1.868710326459019
 33
0.7167849639866111
  0
3DFACE
  5
38B7
  8
TAIL
 10
-0.5700000000000001
 20
1.8397755865495209
 30
0.6857562542749632
 11
-0.5700000000000001
 21
1.847816700311518
 31
0.7072631899779132
 12
-0.5700000000000001
 22
1.8492973605582179
 32
0.6648626281274628
 13
-0.5700000000000001
 23
1.8397755865495209
 33
0.6857562542749632
  0
3DFACE
  5
38B8
  8
TAIL
 10
-0.5700000000000001
 20
1.847816700311518
 30
0.7072631899779132
 11
-0.5700000000000001
 21
1.868710326459019
 31
0.7167849639866109
 12
-0.5700000000000001
 22
1.8708042962611691
 32
0.6568215143654652
 13
-0.5700000000000001
 23
1.8492973605582179
 33
0.6648626281274628
  0
3DFACE
  5
38B9
  8
TAIL
 10
-0.5700000000000001
 20
1.868710326459019
 30
0.7167849639866111
 11
-0.5700000000000001
 21
1.8886981429994001
 31
0.7174829539206609
 12
-0.5700000000000001
 22
1.8907921128015499
 32
0.6575195042995153
 13
-0.5700000000000001
 23
1.8708042962611691
 33
0.6568215143654652
  0
3DFACE
  5
38BA
  8
TAIL
 10
-0.5600000000000001
 20
1.8397755865495209
 30
0.6857562542749632
 11
-0.5600000000000001
 21
1.847816700311518
 31
0.7072631899779132
 12
-0.5700000000000001
 22
1.847816700311518
 32
0.7072631899779132
 13
-0.5700000000000001
 23
1.8397755865495209
 33
0.6857562542749632
  0
3DFACE
  5
38BB
  8
TAIL
 10
-0.5600000000000001
 20
1.8907921128015499
 30
0.6575195042995153
 11
-0.5600000000000001
 21
1.8708042962611691
 31
0.6568215143654652
 12
-0.5700000000000001
 22
1.8708042962611691
 32
0.6568215143654652
 13
-0.5700000000000001
 23
1.8907921128015499
 33
0.6575195042995153
  0
3DFACE
  5
38BC
  8
TAIL
 10
-0.5600000000000001
 20
1.8492973605582179
 30
0.6648626281274628
 11
-0.5600000000000001
 21
1.8397755865495209
 31
0.6857562542749632
 12
-0.5700000000000001
 22
1.8397755865495209
 32
0.6857562542749632
 13
-0.5700000000000001
 23
1.8492973605582179
 33
0.6648626281274628
  0
3DFACE
  5
38BD
  8
TAIL
 10
-0.5600000000000001
 20
1.8708042962611691
 30
0.6568215143654652
 11
-0.5600000000000001
 21
1.8492973605582179
 31
0.6648626281274628
 12
-0.5700000000000001
 22
1.8492973605582179
 32
0.6648626281274628
 13
-0.5700000000000001
 23
1.8708042962611691
 33
0.6568215143654652
  0
3DFACE
  5
38BE
  8
TAIL
 10
-0.5600000000000001
 20
1.868710326459019
 30
0.7167849639866111
 11
-0.5600000000000001
 21
1.8886981429994001
 31
0.7174829539206609
 12
-0.5700000000000001
 22
1.8886981429994001
 32
0.7174829539206609
 13
-0.5700000000000001
 23
1.868710326459019
 33
0.7167849639866111
  0
3DFACE
  5
38BF
  8
TAIL
 10
-0.5600000000000001
 20
1.847816700311518
 30
0.7072631899779132
 11
-0.5600000000000001
 21
1.868710326459019
 31
0.7167849639866111
 12
-0.5700000000000001
 22
1.868710326459019
 32
0.7167849639866111
 13
-0.5700000000000001
 23
1.847816700311518
 33
0.7072631899779132
  0
3DFACE
  5
38C0
  8
TAIL
 10
0.5900000000000001
 20
1.8907921128015499
 30
0.6575195042995153
 11
0.5900000000000001
 21
1.8886981429994001
 31
0.7174829539206609
 12
0.5700000000000002
 22
1.8886981429994001
 32
0.7174829539206609
 13
0.5700000000000002
 23
1.8907921128015499
 33
0.6575195042995153
  0
3DFACE
  5
38C1
  8
TAIL
 10
0.6000000000000001
 20
1.8397755865495209
 30
0.6857562542749632
 11
0.6000000000000001
 21
1.847816700311518
 31
0.7072631899779132
 12
0.5900000000000001
 22
1.847816700311518
 32
0.7072631899779132
 13
0.5900000000000001
 23
1.8397755865495209
 33
0.6857562542749632
  0
3DFACE
  5
38C2
  8
TAIL
 10
0.5900000000000001
 20
1.868710326459019
 30
0.7167849639866111
 11
0.5900000000000001
 21
1.8886981429994001
 31
0.7174829539206609
 12
0.5900000000000001
 22
1.8907921128015499
 32
0.6575195042995153
 13
0.5900000000000001
 23
1.8708042962611691
 33
0.6568215143654652
  0
3DFACE
  5
38C3
  8
TAIL
 10
0.5900000000000001
 20
1.847816700311518
 30
0.7072631899779132
 11
0.5900000000000001
 21
1.868710326459019
 31
0.7167849639866109
 12
0.5900000000000001
 22
1.8708042962611691
 32
0.6568215143654652
 13
0.5900000000000001
 23
1.8492973605582179
 33
0.6648626281274628
  0
3DFACE
  5
38C4
  8
TAIL
 10
0.5900000000000001
 20
1.8397755865495209
 30
0.6857562542749632
 11
0.5900000000000001
 21
1.847816700311518
 31
0.7072631899779132
 12
0.5900000000000001
 22
1.8492973605582179
 32
0.6648626281274628
 13
0.5900000000000001
 23
1.8397755865495209
 33
0.6857562542749632
  0
3DFACE
  5
38C5
  8
TAIL
 10
0.6
 20
1.8708042962611691
 30
0.6568215143654652
 11
0.6
 21
1.8907921128015499
 31
0.6575195042995154
 12
0.6
 22
1.8886981429994001
 32
0.7174829539206611
 13
0.6
 23
1.868710326459019
 33
0.7167849639866111
  0
3DFACE
  5
38C6
  8
TAIL
 10
0.6
 20
1.8492973605582179
 30
0.6648626281274628
 11
0.6
 21
1.8708042962611691
 31
0.6568215143654655
 12
0.6
 22
1.868710326459019
 32
0.7167849639866111
 13
0.6
 23
1.847816700311518
 33
0.7072631899779132
  0
3DFACE
  5
38C7
  8
TAIL
 10
0.6
 20
1.8397755865495209
 30
0.6857562542749632
 11
0.6
 21
1.8492973605582179
 31
0.6648626281274628
 12
0.6
 22
1.847816700311518
 32
0.7072631899779132
 13
0.6
 23
1.8397755865495209
 33
0.6857562542749632
  0
3DFACE
  5
38C8
  8
TAIL
 10
0.5700000000000001
 20
1.8397755865495209
 30
0.6857562542749632
 11
0.5700000000000001
 21
1.8492973605582179
 31
0.6648626281274628
 12
0.5700000000000001
 22
1.847816700311518
 32
0.7072631899779132
 13
0.5700000000000001
 23
1.8397755865495209
 33
0.6857562542749632
  0
3DFACE
  5
38C9
  8
TAIL
 10
0.5700000000000001
 20
1.8492973605582179
 30
0.6648626281274628
 11
0.5700000000000001
 21
1.8708042962611691
 31
0.6568215143654655
 12
0.5700000000000001
 22
1.868710326459019
 32
0.7167849639866111
 13
0.5700000000000001
 23
1.847816700311518
 33
0.7072631899779132
  0
3DFACE
  5
38CA
  8
TAIL
 10
0.5700000000000001
 20
1.8708042962611691
 30
0.6568215143654652
 11
0.5700000000000001
 21
1.8907921128015499
 31
0.6575195042995154
 12
0.5700000000000001
 22
1.8886981429994001
 32
0.7174829539206611
 13
0.5700000000000001
 23
1.868710326459019
 33
0.7167849639866111
  0
3DFACE
  5
38CB
  8
TAIL
 10
0.5600000000000002
 20
1.8397755865495209
 30
0.6857562542749632
 11
0.5600000000000002
 21
1.847816700311518
 31
0.7072631899779132
 12
0.5600000000000002
 22
1.8492973605582179
 32
0.6648626281274628
 13
0.5600000000000002
 23
1.8397755865495209
 33
0.6857562542749632
  0
3DFACE
  5
38CC
  8
TAIL
 10
0.5600000000000002
 20
1.847816700311518
 30
0.7072631899779132
 11
0.5600000000000002
 21
1.868710326459019
 31
0.7167849639866109
 12
0.5600000000000002
 22
1.8708042962611691
 32
0.6568215143654652
 13
0.5600000000000002
 23
1.8492973605582179
 33
0.6648626281274628
  0
3DFACE
  5
38CD
  8
TAIL
 10
0.5600000000000002
 20
1.868710326459019
 30
0.7167849639866111
 11
0.5600000000000002
 21
1.8886981429994001
 31
0.7174829539206609
 12
0.5600000000000002
 22
1.8907921128015499
 32
0.6575195042995153
 13
0.5600000000000002
 23
1.8708042962611691
 33
0.6568215143654652
  0
3DFACE
  5
38CE
  8
TAIL
 10
0.5700000000000002
 20
1.8397755865495209
 30
0.6857562542749632
 11
0.5700000000000002
 21
1.847816700311518
 31
0.7072631899779132
 12
0.5600000000000002
 22
1.847816700311518
 32
0.7072631899779132
 13
0.5600000000000002
 23
1.8397755865495209
 33
0.6857562542749632
  0
3DFACE
  5
38CF
  8
TAIL
 10
0.6000000000000001
 20
1.8708042962611691
 30
0.6568215143654652
 11
0.6000000000000001
 21
1.8492973605582179
 31
0.6648626281274628
 12
0.5900000000000001
 22
1.8492973605582179
 32
0.6648626281274628
 13
0.5900000000000001
 23
1.8708042962611691
 33
0.6568215143654652
  0
3DFACE
  5
38D0
  8
TAIL
 10
0.6000000000000001
 20
1.8492973605582179
 30
0.6648626281274628
 11
0.6000000000000001
 21
1.8397755865495209
 31
0.6857562542749632
 12
0.5900000000000001
 22
1.8397755865495209
 32
0.6857562542749632
 13
0.5900000000000001
 23
1.8492973605582179
 33
0.6648626281274628
  0
3DFACE
  5
38D1
  8
TAIL
 10
0.6000000000000001
 20
1.8907921128015499
 30
0.6575195042995153
 11
0.6000000000000001
 21
1.8708042962611691
 31
0.6568215143654652
 12
0.5900000000000001
 22
1.8708042962611691
 32
0.6568215143654652
 13
0.5900000000000001
 23
1.8907921128015499
 33
0.6575195042995153
  0
3DFACE
  5
38D2
  8
TAIL
 10
0.5700000000000002
 20
1.8907921128015499
 30
0.6575195042995153
 11
0.5700000000000002
 21
1.8708042962611691
 31
0.6568215143654652
 12
0.5600000000000002
 22
1.8708042962611691
 32
0.6568215143654652
 13
0.5600000000000002
 23
1.8907921128015499
 33
0.6575195042995153
  0
3DFACE
  5
38D3
  8
TAIL
 10
0.5700000000000002
 20
1.8492973605582179
 30
0.6648626281274628
 11
0.5700000000000002
 21
1.8397755865495209
 31
0.6857562542749632
 12
0.5600000000000002
 22
1.8397755865495209
 32
0.6857562542749632
 13
0.5600000000000002
 23
1.8492973605582179
 33
0.6648626281274628
  0
3DFACE
  5
38D4
  8
TAIL
 10
0.5700000000000002
 20
1.8708042962611691
 30
0.6568215143654652
 11
0.5700000000000002
 21
1.8492973605582179
 31
0.6648626281274628
 12
0.5600000000000002
 22
1.8492973605582179
 32
0.6648626281274628
 13
0.5600000000000002
 23
1.8708042962611691
 33
0.6568215143654652
  0
3DFACE
  5
38D5
  8
TAIL
 10
0.6000000000000001
 20
1.847816700311518
 30
0.7072631899779132
 11
0.6000000000000001
 21
1.868710326459019
 31
0.7167849639866111
 12
0.5900000000000001
 22
1.868710326459019
 32
0.7167849639866111
 13
0.5900000000000001
 23
1.847816700311518
 33
0.7072631899779132
  0
3DFACE
  5
38D6
  8
TAIL
 10
0.6000000000000001
 20
1.868710326459019
 30
0.7167849639866111
 11
0.6000000000000001
 21
1.8886981429994001
 31
0.7174829539206609
 12
0.5900000000000001
 22
1.8886981429994001
 32
0.7174829539206609
 13
0.5900000000000001
 23
1.868710326459019
 33
0.7167849639866111
  0
3DFACE
  5
38D7
  8
TAIL
 10
0.5700000000000002
 20
1.868710326459019
 30
0.7167849639866111
 11
0.5700000000000002
 21
1.8886981429994001
 31
0.7174829539206609
 12
0.5600000000000002
 22
1.8886981429994001
 32
0.7174829539206609
 13
0.5600000000000002
 23
1.868710326459019
 33
0.7167849639866111
  0
3DFACE
  5
38D8
  8
TAIL
 10
0.5700000000000002
 20
1.847816700311518
 30
0.7072631899779132
 11
0.5700000000000002
 21
1.868710326459019
 31
0.7167849639866111
 12
0.5600000000000002
 22
1.868710326459019
 32
0.7167849639866111
 13
0.5600000000000002
 23
1.847816700311518
 33
0.7072631899779132
  0
3DFACE
  5
38EE
  8
TAIL
 10
-0.13
 20
1.650018275189427
 30
0.3889530150989251
 11
-0.13
 21
1.6580593889514239
 31
0.4104599508018752
 12
-0.15
 22
1.6580593889514239
 32
0.4104599508018752
 13
-0.15
 23
1.650018275189427
 33
0.3889530150989251
  0
3DFACE
  5
38EF
  8
TAIL
 10
-0.13
 20
1.6580593889514239
 30
0.4104599508018752
 11
-0.13
 21
1.678953015098924
 31
0.419981724810573
 12
-0.15
 22
1.678953015098924
 32
0.419981724810573
 13
-0.15
 23
1.6580593889514239
 33
0.4104599508018752
  0
3DFACE
  5
38F0
  8
TAIL
 10
-0.13
 20
1.678953015098924
 30
0.419981724810573
 11
-0.13
 21
1.709632729843547
 31
0.4010408931712661
 12
-0.15
 22
1.709632729843547
 32
0.4010408931712661
 13
-0.15
 23
1.678953015098924
 33
0.419981724810573
  0
3DFACE
  5
38F4
  8
TAIL
 10
-0.13
 20
1.701034801441456
 30
0.360716265123477
 11
-0.13
 21
1.659540049198124
 31
0.3680593889514252
 12
-0.15
 22
1.659540049198124
 32
0.3680593889514252
 13
-0.15
 23
1.701034801441456
 33
0.360716265123477
  0
3DFACE
  5
38F5
  8
TAIL
 10
-0.13
 20
1.659540049198124
 30
0.3680593889514252
 11
-0.13
 21
1.650018275189427
 31
0.3889530150989251
 12
-0.15
 22
1.650018275189427
 32
0.3889530150989251
 13
-0.15
 23
1.659540049198124
 33
0.3680593889514252
  0
3DFACE
  5
38F7
  8
TAIL
 10
-0.13
 20
1.659540049198124
 30
0.3680593889514252
 11
-0.13
 21
1.701034801441456
 31
0.360716265123477
 12
-0.13
 22
1.709632729843547
 32
0.4010408931712661
 13
-0.13
 23
1.678953015098924
 33
0.419981724810573
  0
3DFACE
  5
38F8
  8
TAIL
 10
-0.13
 20
1.659540049198124
 30
0.3680593889514252
 11
-0.13
 21
1.678953015098924
 31
0.419981724810573
 12
-0.13
 22
1.6580593889514239
 32
0.4104599508018752
 13
-0.13
 23
1.650018275189427
 33
0.3889530150989251
  0
3DFACE
  5
38F9
  8
TAIL
 10
-0.15
 20
1.650018275189427
 30
0.3889530150989251
 11
-0.15
 21
1.6580593889514239
 31
0.4104599508018752
 12
-0.15
 22
1.678953015098924
 32
0.419981724810573
 13
-0.15
 23
1.659540049198124
 33
0.3680593889514252
  0
3DFACE
  5
38FA
  8
TAIL
 10
-0.15
 20
1.678953015098924
 30
0.419981724810573
 11
-0.15
 21
1.709632729843547
 31
0.4010408931712661
 12
-0.15
 22
1.701034801441456
 32
0.360716265123477
 13
-0.15
 23
1.659540049198124
 33
0.3680593889514252
  0
3DFACE
  5
38FB
  8
TAIL
 10
-0.2
 20
1.678953015098924
 30
0.419981724810573
 11
-0.2
 21
1.709632729843547
 31
0.4010408931712661
 12
-0.2
 22
1.701034801441456
 32
0.360716265123477
 13
-0.2
 23
1.659540049198124
 33
0.3680593889514252
  0
3DFACE
  5
38FC
  8
TAIL
 10
-0.2
 20
1.650018275189427
 30
0.3889530150989251
 11
-0.2
 21
1.6580593889514239
 31
0.4104599508018752
 12
-0.2
 22
1.678953015098924
 32
0.419981724810573
 13
-0.2
 23
1.659540049198124
 33
0.3680593889514252
  0
3DFACE
  5
38FD
  8
TAIL
 10
-0.18
 20
1.659540049198124
 30
0.3680593889514252
 11
-0.18
 21
1.678953015098924
 31
0.419981724810573
 12
-0.18
 22
1.6580593889514239
 32
0.4104599508018752
 13
-0.18
 23
1.650018275189427
 33
0.3889530150989251
  0
3DFACE
  5
38FE
  8
TAIL
 10
-0.18
 20
1.659540049198124
 30
0.3680593889514252
 11
-0.18
 21
1.701034801441456
 31
0.3607162651234772
 12
-0.18
 22
1.709632729843547
 32
0.4010408931712661
 13
-0.18
 23
1.678953015098924
 33
0.419981724810573
  0
3DFACE
  5
38FF
  8
TAIL
 10
-0.18
 20
1.678953015098924
 30
0.419981724810573
 11
-0.18
 21
1.709632729843547
 31
0.4010408931712661
 12
-0.2
 22
1.709632729843547
 32
0.4010408931712661
 13
-0.2
 23
1.678953015098924
 33
0.419981724810573
  0
3DFACE
  5
3900
  8
TAIL
 10
-0.18
 20
1.701034801441456
 30
0.3607162651234772
 11
-0.18
 21
1.659540049198124
 31
0.3680593889514252
 12
-0.2
 22
1.659540049198124
 32
0.3680593889514252
 13
-0.2
 23
1.701034801441456
 33
0.360716265123477
  0
3DFACE
  5
3901
  8
TAIL
 10
-0.18
 20
1.659540049198124
 30
0.3680593889514252
 11
-0.18
 21
1.650018275189427
 31
0.3889530150989251
 12
-0.2
 22
1.650018275189427
 32
0.3889530150989251
 13
-0.2
 23
1.659540049198124
 33
0.3680593889514252
  0
3DFACE
  5
3902
  8
TAIL
 10
-0.18
 20
1.6580593889514239
 30
0.4104599508018752
 11
-0.18
 21
1.678953015098924
 31
0.419981724810573
 12
-0.2
 22
1.678953015098924
 32
0.419981724810573
 13
-0.2
 23
1.6580593889514239
 33
0.4104599508018752
  0
3DFACE
  5
3903
  8
TAIL
 10
-0.18
 20
1.650018275189427
 30
0.3889530150989251
 11
-0.18
 21
1.6580593889514239
 31
0.4104599508018752
 12
-0.2
 22
1.6580593889514239
 32
0.4104599508018752
 13
-0.2
 23
1.650018275189427
 33
0.3889530150989251
  0
3DFACE
  5
3904
  8
TAIL
 10
0.15
 20
1.650018275189427
 30
0.3889530150989251
 11
0.15
 21
1.6580593889514239
 31
0.4104599508018752
 12
0.13
 22
1.6580593889514239
 32
0.4104599508018752
 13
0.13
 23
1.650018275189427
 33
0.3889530150989251
  0
3DFACE
  5
3905
  8
TAIL
 10
0.15
 20
1.6580593889514239
 30
0.4104599508018752
 11
0.15
 21
1.678953015098924
 31
0.419981724810573
 12
0.13
 22
1.678953015098924
 32
0.419981724810573
 13
0.13
 23
1.6580593889514239
 33
0.4104599508018752
  0
3DFACE
  5
3906
  8
TAIL
 10
0.15
 20
1.659540049198124
 30
0.3680593889514252
 11
0.15
 21
1.650018275189427
 31
0.3889530150989251
 12
0.13
 22
1.650018275189427
 32
0.3889530150989251
 13
0.13
 23
1.659540049198124
 33
0.3680593889514252
  0
3DFACE
  5
3907
  8
TAIL
 10
0.15
 20
1.701034801441456
 30
0.360716265123477
 11
0.15
 21
1.659540049198124
 31
0.3680593889514252
 12
0.13
 22
1.659540049198124
 32
0.3680593889514252
 13
0.13
 23
1.701034801441456
 33
0.360716265123477
  0
3DFACE
  5
3908
  8
TAIL
 10
0.15
 20
1.678953015098924
 30
0.419981724810573
 11
0.15
 21
1.709632729843547
 31
0.4010408931712661
 12
0.13
 22
1.709632729843547
 32
0.4010408931712661
 13
0.13
 23
1.678953015098924
 33
0.419981724810573
  0
3DFACE
  5
3909
  8
TAIL
 10
0.15
 20
1.659540049198124
 30
0.3680593889514252
 11
0.15
 21
1.701034801441456
 31
0.360716265123477
 12
0.15
 22
1.709632729843547
 32
0.4010408931712661
 13
0.15
 23
1.678953015098924
 33
0.419981724810573
  0
3DFACE
  5
390A
  8
TAIL
 10
0.15
 20
1.659540049198124
 30
0.3680593889514252
 11
0.15
 21
1.678953015098924
 31
0.419981724810573
 12
0.15
 22
1.6580593889514239
 32
0.4104599508018752
 13
0.15
 23
1.650018275189427
 33
0.3889530150989251
  0
3DFACE
  5
390B
  8
TAIL
 10
0.13
 20
1.650018275189427
 30
0.3889530150989251
 11
0.13
 21
1.6580593889514239
 31
0.4104599508018752
 12
0.13
 22
1.678953015098924
 32
0.419981724810573
 13
0.13
 23
1.659540049198124
 33
0.3680593889514252
  0
3DFACE
  5
390C
  8
TAIL
 10
0.13
 20
1.678953015098924
 30
0.419981724810573
 11
0.13
 21
1.709632729843547
 31
0.4010408931712661
 12
0.13
 22
1.701034801441456
 32
0.360716265123477
 13
0.13
 23
1.659540049198124
 33
0.3680593889514252
  0
3DFACE
  5
390D
  8
TAIL
 10
0.18
 20
1.678953015098924
 30
0.419981724810573
 11
0.18
 21
1.709632729843547
 31
0.4010408931712661
 12
0.18
 22
1.701034801441456
 32
0.360716265123477
 13
0.18
 23
1.659540049198124
 33
0.3680593889514252
  0
3DFACE
  5
390E
  8
TAIL
 10
0.18
 20
1.650018275189427
 30
0.3889530150989251
 11
0.18
 21
1.6580593889514239
 31
0.4104599508018752
 12
0.18
 22
1.678953015098924
 32
0.419981724810573
 13
0.18
 23
1.659540049198124
 33
0.3680593889514252
  0
3DFACE
  5
390F
  8
TAIL
 10
0.2
 20
1.659540049198124
 30
0.3680593889514252
 11
0.2
 21
1.678953015098924
 31
0.419981724810573
 12
0.2
 22
1.6580593889514239
 32
0.4104599508018752
 13
0.2
 23
1.650018275189427
 33
0.3889530150989251
  0
3DFACE
  5
3910
  8
TAIL
 10
0.2
 20
1.659540049198124
 30
0.3680593889514252
 11
0.2
 21
1.701034801441456
 31
0.360716265123477
 12
0.2
 22
1.709632729843547
 32
0.4010408931712661
 13
0.2
 23
1.678953015098924
 33
0.419981724810573
  0
3DFACE
  5
3911
  8
TAIL
 10
0.2
 20
1.678953015098924
 30
0.419981724810573
 11
0.2
 21
1.709632729843547
 31
0.4010408931712661
 12
0.18
 22
1.709632729843547
 32
0.4010408931712661
 13
0.18
 23
1.678953015098924
 33
0.419981724810573
  0
3DFACE
  5
3912
  8
TAIL
 10
0.2
 20
1.701034801441456
 30
0.360716265123477
 11
0.2
 21
1.659540049198124
 31
0.3680593889514252
 12
0.18
 22
1.659540049198124
 32
0.3680593889514252
 13
0.18
 23
1.701034801441456
 33
0.360716265123477
  0
3DFACE
  5
3913
  8
TAIL
 10
0.2
 20
1.659540049198124
 30
0.3680593889514252
 11
0.2
 21
1.650018275189427
 31
0.3889530150989251
 12
0.18
 22
1.650018275189427
 32
0.3889530150989251
 13
0.18
 23
1.659540049198124
 33
0.3680593889514252
  0
3DFACE
  5
3914
  8
TAIL
 10
0.2
 20
1.6580593889514239
 30
0.4104599508018752
 11
0.2
 21
1.678953015098924
 31
0.419981724810573
 12
0.18
 22
1.678953015098924
 32
0.419981724810573
 13
0.18
 23
1.6580593889514239
 33
0.4104599508018752
  0
3DFACE
  5
3915
  8
TAIL
 10
0.2
 20
1.650018275189427
 30
0.3889530150989251
 11
0.2
 21
1.6580593889514239
 31
0.4104599508018752
 12
0.18
 22
1.6580593889514239
 32
0.4104599508018752
 13
0.18
 23
1.650018275189427
 33
0.3889530150989251
  0
3DFACE
  5
3916
  8
TAIL
 10
-0.2
 20
1.709632729843547
 30
0.4010408931712661
 11
-0.17
 21
1.7699451744317181
 31
0.3931409547032252
 12
-0.17
 22
1.7713411542998181
 32
0.3531653216224613
 13
-0.2
 23
1.701034801441456
 33
0.360716265123477
  0
3DFACE
  5
3917
  8
TAIL
 10
-0.18
 20
1.701034801441456
 30
0.360716265123477
 11
-0.17
 21
1.7513533377594359
 31
0.3524673316884113
 12
-0.17
 22
1.7499573578913361
 32
0.3924429647691752
 13
-0.18
 23
1.709632729843547
 33
0.4010408931712661
  0
3DFACE
  5
3918
  8
TAIL
 10
-0.18
 20
1.709632729843547
 30
0.4010408931712661
 11
-0.17
 21
1.7499573578913361
 31
0.3924429647691752
 12
-0.17
 22
1.7699451744317181
 32
0.3931409547032252
 13
-0.2
 23
1.709632729843547
 33
0.4010408931712661
  0
3DFACE
  5
3919
  8
TAIL
 10
-0.17
 20
1.7513533377594359
 30
0.3524673316884113
 11
-0.18
 21
1.701034801441456
 31
0.360716265123477
 12
-0.2
 22
1.701034801441456
 32
0.360716265123477
 13
-0.17
 23
1.7713411542998181
 33
0.3531653216224613
  0
3DFACE
  5
391A
  8
TAIL
 10
0.18
 20
1.709632729843547
 30
0.4010408931712661
 11
0.17
 21
1.7499573578913361
 31
0.3924429647691752
 12
0.17
 22
1.7513533377594359
 32
0.3524673316884113
 13
0.18
 23
1.701034801441456
 33
0.360716265123477
  0
3DFACE
  5
391B
  8
TAIL
 10
0.2
 20
1.709632729843547
 30
0.4010408931712661
 11
0.17
 21
1.7699451744317181
 31
0.3931409547032252
 12
0.17
 22
1.7499573578913361
 32
0.3924429647691752
 13
0.18
 23
1.709632729843547
 33
0.4010408931712661
  0
3DFACE
  5
391C
  8
TAIL
 10
0.2
 20
1.701034801441456
 30
0.360716265123477
 11
0.17
 21
1.7713411542998181
 31
0.3531653216224613
 12
0.17
 22
1.7699451744317181
 32
0.3931409547032252
 13
0.2
 23
1.709632729843547
 33
0.4010408931712661
  0
3DFACE
  5
391D
  8
TAIL
 10
0.17
 20
1.7713411542998181
 30
0.3531653216224613
 11
0.2
 21
1.701034801441456
 31
0.360716265123477
 12
0.18
 22
1.701034801441456
 32
0.360716265123477
 13
0.17
 23
1.7513533377594359
 33
0.3524673316884113
  0
3DFACE
  5
3935
  8
TAIL
 10
-0.6
 20
1.8597634030899031
 30
0.6864542442090132
 11
-0.6
 21
1.869408316393069
 31
0.6967971474462292
 12
-0.6200000000000001
 22
1.869408316393069
 32
0.6967971474462292
 13
-0.6200000000000001
 23
1.8597634030899031
 33
0.6864542442090132
  0
3DFACE
  5
3936
  8
TAIL
 10
-0.6
 20
1.869408316393069
 30
0.6967971474462292
 11
-0.6
 21
1.879751219630285
 31
0.6871522341430632
 12
-0.6200000000000001
 22
1.879751219630285
 32
0.6871522341430632
 13
-0.6200000000000001
 23
1.869408316393069
 33
0.6967971474462292
  0
3DFACE
  5
3937
  8
TAIL
 10
-0.6
 20
1.879751219630285
 30
0.6871522341430632
 11
-0.6
 21
1.8701063063271191
 31
0.6768093309058472
 12
-0.6200000000000001
 22
1.8701063063271191
 32
0.6768093309058472
 13
-0.6200000000000001
 23
1.879751219630285
 33
0.6871522341430632
  0
3DFACE
  5
3938
  8
TAIL
 10
-0.6
 20
1.8701063063271191
 30
0.6768093309058472
 11
-0.6
 21
1.8597634030899031
 31
0.6864542442090132
 12
-0.6200000000000001
 22
1.8597634030899031
 32
0.6864542442090132
 13
-0.6200000000000001
 23
1.8701063063271191
 33
0.6768093309058472
  0
3DFACE
  5
3939
  8
TAIL
 10
-0.6200000000000001
 20
1.8597634030899031
 30
0.6864542442090132
 11
-0.6200000000000001
 21
1.869408316393069
 31
0.6967971474462292
 12
-0.72
 22
1.929371766014214
 32
0.6988911172483792
 13
-0.72
 23
1.919726852711048
 33
0.6885482140111633
  0
3DFACE
  5
393A
  8
TAIL
 10
-0.6200000000000001
 20
1.869408316393069
 30
0.6967971474462292
 11
-0.6200000000000001
 21
1.879751219630285
 31
0.6871522341430632
 12
-0.72
 22
1.93971466925143
 32
0.6892462039452133
 13
-0.72
 23
1.929371766014214
 33
0.6988911172483792
  0
3DFACE
  5
393B
  8
TAIL
 10
-0.6200000000000001
 20
1.879751219630285
 30
0.6871522341430632
 11
-0.6200000000000001
 21
1.8701063063271191
 31
0.6768093309058472
 12
-0.72
 22
1.930069755948264
 32
0.6789033007079972
 13
-0.72
 23
1.93971466925143
 33
0.6892462039452133
  0
3DFACE
  5
393C
  8
TAIL
 10
-0.6200000000000001
 20
1.8701063063271191
 30
0.6768093309058472
 11
-0.6200000000000001
 21
1.8597634030899031
 31
0.6864542442090132
 12
-0.72
 22
1.919726852711048
 32
0.6885482140111633
 13
-0.72
 23
1.930069755948264
 33
0.6789033007079972
  0
3DFACE
  5
393D
  8
TAIL
 10
-0.5300000000000001
 20
1.8597634030899031
 30
0.6864542442090132
 11
-0.5300000000000001
 21
1.869408316393069
 31
0.6967971474462292
 12
-0.5600000000000001
 22
1.869408316393069
 32
0.6967971474462292
 13
-0.5600000000000001
 23
1.8597634030899031
 33
0.6864542442090132
  0
3DFACE
  5
393E
  8
TAIL
 10
-0.5300000000000001
 20
1.869408316393069
 30
0.6967971474462292
 11
-0.5300000000000001
 21
1.879751219630285
 31
0.6871522341430632
 12
-0.5600000000000001
 22
1.879751219630285
 32
0.6871522341430632
 13
-0.5600000000000001
 23
1.869408316393069
 33
0.6967971474462292
  0
3DFACE
  5
393F
  8
TAIL
 10
-0.5300000000000001
 20
1.8701063063271191
 30
0.6768093309058472
 11
-0.5300000000000001
 21
1.8597634030899031
 31
0.6864542442090132
 12
-0.5600000000000001
 22
1.8597634030899031
 32
0.6864542442090132
 13
-0.5600000000000001
 23
1.8701063063271191
 33
0.6768093309058472
  0
3DFACE
  5
3940
  8
TAIL
 10
-0.5300000000000001
 20
1.879751219630285
 30
0.6871522341430632
 11
-0.5300000000000001
 21
1.8701063063271191
 31
0.6768093309058472
 12
-0.5600000000000001
 22
1.8701063063271191
 32
0.6768093309058472
 13
-0.5600000000000001
 23
1.879751219630285
 33
0.6871522341430632
  0
3DFACE
  5
3941
  8
TAIL
 10
-0.72
 20
1.929371766014214
 30
0.6988911172483792
 11
-0.72
 21
1.93971466925143
 31
0.6892462039452133
 12
-0.72
 22
1.930069755948264
 32
0.6789033007079972
 13
-0.72
 23
1.919726852711048
 33
0.6885482140111633
  0
3DFACE
  5
3943
  8
TAIL
 10
-0.5300000000000001
 20
1.869408316393069
 30
0.6967971474462292
 11
-0.5300000000000001
 21
1.8597634030899031
 31
0.6864542442090132
 12
-0.5300000000000001
 22
1.8701063063271191
 32
0.6768093309058472
 13
-0.5300000000000001
 23
1.879751219630285
 33
0.6871522341430632
  0
3DFACE
  5
3944
  8
TAIL
 10
0.72
 20
1.930069755948264
 30
0.6789033007079972
 11
0.72
 21
1.93971466925143
 31
0.6892462039452133
 12
0.72
 22
1.929371766014214
 32
0.6988911172483792
 13
0.72
 23
1.919726852711048
 33
0.6885482140111633
  0
3DFACE
  5
3945
  8
TAIL
 10
0.6200000000000001
 20
1.8597634030899031
 30
0.6864542442090132
 11
0.6200000000000001
 21
1.8701063063271191
 31
0.6768093309058472
 12
0.72
 22
1.930069755948264
 32
0.6789033007079972
 13
0.72
 23
1.919726852711048
 33
0.6885482140111633
  0
3DFACE
  5
3946
  8
TAIL
 10
0.6200000000000001
 20
1.8701063063271191
 30
0.6768093309058472
 11
0.6200000000000001
 21
1.879751219630285
 31
0.6871522341430632
 12
0.72
 22
1.93971466925143
 32
0.6892462039452133
 13
0.72
 23
1.930069755948264
 33
0.6789033007079972
  0
3DFACE
  5
3947
  8
TAIL
 10
0.6
 20
1.8597634030899031
 30
0.6864542442090132
 11
0.6
 21
1.8701063063271191
 31
0.6768093309058472
 12
0.6200000000000001
 22
1.8701063063271191
 32
0.6768093309058472
 13
0.6200000000000001
 23
1.8597634030899031
 33
0.6864542442090132
  0
3DFACE
  5
3948
  8
TAIL
 10
0.6
 20
1.8701063063271191
 30
0.6768093309058472
 11
0.6
 21
1.879751219630285
 31
0.6871522341430632
 12
0.6200000000000001
 22
1.879751219630285
 32
0.6871522341430632
 13
0.6200000000000001
 23
1.8701063063271191
 33
0.6768093309058472
  0
3DFACE
  5
3949
  8
TAIL
 10
0.6200000000000001
 20
1.869408316393069
 30
0.6967971474462292
 11
0.6200000000000001
 21
1.8597634030899031
 31
0.6864542442090132
 12
0.72
 22
1.919726852711048
 32
0.6885482140111633
 13
0.72
 23
1.929371766014214
 33
0.6988911172483792
  0
3DFACE
  5
394A
  8
TAIL
 10
0.6200000000000001
 20
1.879751219630285
 30
0.6871522341430632
 11
0.6200000000000001
 21
1.869408316393069
 31
0.6967971474462292
 12
0.72
 22
1.929371766014214
 32
0.6988911172483792
 13
0.72
 23
1.93971466925143
 33
0.6892462039452133
  0
3DFACE
  5
394B
  8
TAIL
 10
0.6
 20
1.869408316393069
 30
0.6967971474462292
 11
0.6
 21
1.8597634030899031
 31
0.6864542442090132
 12
0.6200000000000001
 22
1.8597634030899031
 32
0.6864542442090132
 13
0.6200000000000001
 23
1.869408316393069
 33
0.6967971474462292
  0
3DFACE
  5
394C
  8
TAIL
 10
0.6
 20
1.879751219630285
 30
0.6871522341430632
 11
0.6
 21
1.869408316393069
 31
0.6967971474462292
 12
0.6200000000000001
 22
1.869408316393069
 32
0.6967971474462292
 13
0.6200000000000001
 23
1.879751219630285
 33
0.6871522341430632
  0
3DFACE
  5
394D
  8
TAIL
 10
0.5300000000000001
 20
1.8701063063271191
 30
0.6768093309058472
 11
0.5300000000000001
 21
1.8597634030899031
 31
0.6864542442090132
 12
0.5300000000000001
 22
1.869408316393069
 32
0.6967971474462292
 13
0.5300000000000001
 23
1.879751219630285
 33
0.6871522341430632
  0
3DFACE
  5
394E
  8
TAIL
 10
0.5300000000000001
 20
1.8597634030899031
 30
0.6864542442090132
 11
0.5300000000000001
 21
1.8701063063271191
 31
0.6768093309058472
 12
0.5600000000000001
 22
1.8701063063271191
 32
0.6768093309058472
 13
0.5600000000000001
 23
1.8597634030899031
 33
0.6864542442090132
  0
3DFACE
  5
394F
  8
TAIL
 10
0.5300000000000001
 20
1.8701063063271191
 30
0.6768093309058472
 11
0.5300000000000001
 21
1.879751219630285
 31
0.6871522341430632
 12
0.5600000000000001
 22
1.879751219630285
 32
0.6871522341430632
 13
0.5600000000000001
 23
1.8701063063271191
 33
0.6768093309058472
  0
3DFACE
  5
3950
  8
TAIL
 10
0.5300000000000001
 20
1.869408316393069
 30
0.6967971474462292
 11
0.5300000000000001
 21
1.8597634030899031
 31
0.6864542442090132
 12
0.5600000000000001
 22
1.8597634030899031
 32
0.6864542442090132
 13
0.5600000000000001
 23
1.869408316393069
 33
0.6967971474462292
  0
3DFACE
  5
3951
  8
TAIL
 10
0.5300000000000001
 20
1.879751219630285
 30
0.6871522341430632
 11
0.5300000000000001
 21
1.869408316393069
 31
0.6967971474462292
 12
0.5600000000000001
 22
1.869408316393069
 32
0.6967971474462292
 13
0.5600000000000001
 23
1.879751219630285
 33
0.6871522341430632
  0
3DFACE
  5
3952
  8
TAIL
 10
-0.32
 20
1.7396144546541199
 30
0.4020878780723411
 11
-0.32
 21
1.7499573578913361
 31
0.3924429647691752
 12
-0.32
 22
1.7403124445881699
 32
0.3821000615319592
 13
-0.32
 23
1.7299695413509539
 33
0.3917449748351252
  0
3DFACE
  5
3953
  8
TAIL
 10
-0.22
 20
1.6700060917298081
 30
0.3896510050329751
 11
-0.22
 21
1.679651005032974
 31
0.3999939082701911
 12
-0.32
 22
1.7396144546541199
 32
0.4020878780723411
 13
-0.32
 23
1.7299695413509539
 33
0.3917449748351252
  0
3DFACE
  5
3954
  8
TAIL
 10
-0.22
 20
1.679651005032974
 30
0.3999939082701911
 11
-0.22
 21
1.68999390827019
 31
0.3903489949670251
 12
-0.32
 22
1.7499573578913361
 32
0.3924429647691752
 13
-0.32
 23
1.7396144546541199
 33
0.4020878780723411
  0
3DFACE
  5
3955
  8
TAIL
 10
-0.2
 20
1.6700060917298081
 30
0.3896510050329751
 11
-0.2
 21
1.679651005032974
 31
0.3999939082701911
 12
-0.22
 22
1.679651005032974
 32
0.3999939082701911
 13
-0.22
 23
1.6700060917298081
 33
0.3896510050329751
  0
3DFACE
  5
3956
  8
TAIL
 10
-0.2
 20
1.679651005032974
 30
0.3999939082701911
 11
-0.2
 21
1.68999390827019
 31
0.3903489949670251
 12
-0.22
 22
1.68999390827019
 32
0.3903489949670251
 13
-0.22
 23
1.679651005032974
 33
0.3999939082701911
  0
3DFACE
  5
3957
  8
TAIL
 10
-0.22
 20
1.6803489949670241
 30
0.3800060917298091
 11
-0.22
 21
1.6700060917298081
 31
0.3896510050329751
 12
-0.32
 22
1.7299695413509539
 32
0.3917449748351252
 13
-0.32
 23
1.7403124445881699
 33
0.3821000615319592
  0
3DFACE
  5
3958
  8
TAIL
 10
-0.22
 20
1.68999390827019
 30
0.3903489949670251
 11
-0.22
 21
1.6803489949670241
 31
0.3800060917298091
 12
-0.32
 22
1.7403124445881699
 32
0.3821000615319592
 13
-0.32
 23
1.7499573578913361
 33
0.3924429647691752
  0
3DFACE
  5
3959
  8
TAIL
 10
-0.2
 20
1.6803489949670241
 30
0.3800060917298091
 11
-0.2
 21
1.6700060917298081
 31
0.3896510050329751
 12
-0.22
 22
1.6700060917298081
 32
0.3896510050329751
 13
-0.22
 23
1.6803489949670241
 33
0.3800060917298091
  0
3DFACE
  5
395A
  8
TAIL
 10
-0.2
 20
1.68999390827019
 30
0.3903489949670251
 11
-0.2
 21
1.6803489949670241
 31
0.3800060917298091
 12
-0.22
 22
1.6803489949670241
 32
0.3800060917298091
 13
-0.22
 23
1.68999390827019
 33
0.3903489949670251
  0
3DFACE
  5
395B
  8
TAIL
 10
-0.1
 20
1.679651005032974
 30
0.3999939082701911
 11
-0.1
 21
1.6700060917298081
 31
0.3896510050329751
 12
-0.1
 22
1.6803489949670241
 32
0.3800060917298091
 13
-0.1
 23
1.68999390827019
 33
0.3903489949670251
  0
3DFACE
  5
395C
  8
TAIL
 10
-0.1
 20
1.6700060917298081
 30
0.3896510050329751
 11
-0.1
 21
1.679651005032974
 31
0.3999939082701911
 12
-0.13
 22
1.679651005032974
 32
0.3999939082701911
 13
-0.13
 23
1.6700060917298081
 33
0.3896510050329751
  0
3DFACE
  5
395D
  8
TAIL
 10
-0.1
 20
1.679651005032974
 30
0.3999939082701911
 11
-0.1
 21
1.68999390827019
 31
0.3903489949670251
 12
-0.13
 22
1.68999390827019
 32
0.3903489949670251
 13
-0.13
 23
1.679651005032974
 33
0.3999939082701911
  0
3DFACE
  5
395E
  8
TAIL
 10
-0.1
 20
1.6803489949670241
 30
0.3800060917298091
 11
-0.1
 21
1.6700060917298081
 31
0.3896510050329751
 12
-0.13
 22
1.6700060917298081
 32
0.3896510050329751
 13
-0.13
 23
1.6803489949670241
 33
0.3800060917298091
  0
3DFACE
  5
395F
  8
TAIL
 10
-0.1
 20
1.68999390827019
 30
0.3903489949670251
 11
-0.1
 21
1.6803489949670241
 31
0.3800060917298091
 12
-0.13
 22
1.6803489949670241
 32
0.3800060917298091
 13
-0.13
 23
1.68999390827019
 33
0.3903489949670251
  0
3DFACE
  5
3960
  8
TAIL
 10
0.1
 20
1.6803489949670241
 30
0.3800060917298091
 11
0.1
 21
1.68999390827019
 31
0.3903489949670251
 12
0.13
 22
1.68999390827019
 32
0.3903489949670251
 13
0.13
 23
1.6803489949670241
 33
0.3800060917298091
  0
3DFACE
  5
3961
  8
TAIL
 10
0.1
 20
1.6700060917298081
 30
0.3896510050329751
 11
0.1
 21
1.6803489949670241
 31
0.3800060917298091
 12
0.13
 22
1.6803489949670241
 32
0.3800060917298091
 13
0.13
 23
1.6700060917298081
 33
0.3896510050329751
  0
3DFACE
  5
3962
  8
TAIL
 10
0.1
 20
1.6803489949670241
 30
0.3800060917298091
 11
0.1
 21
1.6700060917298081
 31
0.3896510050329751
 12
0.1
 22
1.679651005032974
 32
0.3999939082701911
 13
0.1
 23
1.68999390827019
 33
0.3903489949670251
  0
3DFACE
  5
3963
  8
TAIL
 10
0.1
 20
1.68999390827019
 30
0.3903489949670251
 11
0.1
 21
1.679651005032974
 31
0.3999939082701911
 12
0.13
 22
1.679651005032974
 32
0.3999939082701911
 13
0.13
 23
1.68999390827019
 33
0.3903489949670251
  0
3DFACE
  5
3964
  8
TAIL
 10
0.1
 20
1.679651005032974
 30
0.3999939082701911
 11
0.1
 21
1.6700060917298081
 31
0.3896510050329751
 12
0.13
 22
1.6700060917298081
 32
0.3896510050329751
 13
0.13
 23
1.679651005032974
 33
0.3999939082701911
  0
3DFACE
  5
3965
  8
TAIL
 10
0.2
 20
1.6803489949670241
 30
0.3800060917298091
 11
0.2
 21
1.68999390827019
 31
0.3903489949670251
 12
0.22
 22
1.68999390827019
 32
0.3903489949670251
 13
0.22
 23
1.6803489949670241
 33
0.3800060917298091
  0
3DFACE
  5
3966
  8
TAIL
 10
0.2
 20
1.6700060917298081
 30
0.3896510050329751
 11
0.2
 21
1.6803489949670241
 31
0.3800060917298091
 12
0.22
 22
1.6803489949670241
 32
0.3800060917298091
 13
0.22
 23
1.6700060917298081
 33
0.3896510050329751
  0
3DFACE
  5
3967
  8
TAIL
 10
0.22
 20
1.6803489949670241
 30
0.3800060917298091
 11
0.22
 21
1.68999390827019
 31
0.3903489949670251
 12
0.32
 22
1.7499573578913361
 32
0.3924429647691752
 13
0.32
 23
1.7403124445881699
 33
0.3821000615319592
  0
3DFACE
  5
3968
  8
TAIL
 10
0.22
 20
1.6700060917298081
 30
0.3896510050329751
 11
0.22
 21
1.6803489949670241
 31
0.3800060917298091
 12
0.32
 22
1.7403124445881699
 32
0.3821000615319592
 13
0.32
 23
1.7299695413509539
 33
0.3917449748351252
  0
3DFACE
  5
3969
  8
TAIL
 10
0.2
 20
1.68999390827019
 30
0.3903489949670251
 11
0.2
 21
1.679651005032974
 31
0.3999939082701911
 12
0.22
 22
1.679651005032974
 32
0.3999939082701911
 13
0.22
 23
1.68999390827019
 33
0.3903489949670251
  0
3DFACE
  5
396A
  8
TAIL
 10
0.2
 20
1.679651005032974
 30
0.3999939082701911
 11
0.2
 21
1.6700060917298081
 31
0.3896510050329751
 12
0.22
 22
1.6700060917298081
 32
0.3896510050329751
 13
0.22
 23
1.679651005032974
 33
0.3999939082701911
  0
3DFACE
  5
396B
  8
TAIL
 10
0.22
 20
1.68999390827019
 30
0.3903489949670251
 11
0.22
 21
1.679651005032974
 31
0.3999939082701911
 12
0.32
 22
1.7396144546541199
 32
0.4020878780723411
 13
0.32
 23
1.7499573578913361
 33
0.3924429647691752
  0
3DFACE
  5
396C
  8
TAIL
 10
0.22
 20
1.679651005032974
 30
0.3999939082701911
 11
0.22
 21
1.6700060917298081
 31
0.3896510050329751
 12
0.32
 22
1.7299695413509539
 32
0.3917449748351252
 13
0.32
 23
1.7396144546541199
 33
0.4020878780723411
  0
3DFACE
  5
396D
  8
TAIL
 10
0.32
 20
1.7403124445881699
 30
0.3821000615319592
 11
0.32
 21
1.7499573578913361
 31
0.3924429647691752
 12
0.32
 22
1.7396144546541199
 32
0.4020878780723411
 13
0.32
 23
1.7299695413509539
 33
0.3917449748351252
  0
3DFACE
  5
396E
  8
TAIL
 10
0.15
 20
1.735521618469777
 30
1.092365538649567
 11
0.15
 21
1.7251787152325611
 31
1.102010451952733
 12
0.12
 22
1.7251787152325611
 32
1.102010451952733
 13
0.12
 23
1.735521618469777
 33
1.092365538649567
  0
3DFACE
  5
396F
  8
TAIL
 10
0.15
 20
1.7251787152325611
 30
1.102010451952733
 11
0.15
 21
1.734823628535727
 31
1.1123533551899489
 12
0.12
 22
1.734823628535727
 32
1.1123533551899489
 13
0.12
 23
1.7251787152325611
 33
1.102010451952733
  0
3DFACE
  5
3970
  8
TAIL
 10
0.15
 20
1.745166531772943
 30
1.102708441886783
 11
0.15
 21
1.735521618469777
 31
1.092365538649567
 12
0.12
 22
1.735521618469777
 32
1.092365538649567
 13
0.12
 23
1.745166531772943
 33
1.102708441886783
  0
3DFACE
  5
3971
  8
TAIL
 10
0.15
 20
1.734823628535727
 30
1.1123533551899489
 11
0.15
 21
1.745166531772943
 31
1.102708441886783
 12
0.12
 22
1.745166531772943
 32
1.102708441886783
 13
0.12
 23
1.734823628535727
 33
1.1123533551899489
  0
3DFACE
  5
3972
  8
TAIL
 10
0.15
 20
1.745166531772943
 30
1.102708441886783
 11
0.15
 21
1.734823628535727
 31
1.1123533551899489
 12
0.15
 22
1.7251787152325611
 32
1.102010451952733
 13
0.15
 23
1.735521618469777
 33
1.092365538649567
  0
3DFACE
  5
3973
  8
TAIL
 10
-0.12
 20
1.735521618469777
 30
1.092365538649567
 11
-0.12
 21
1.7251787152325611
 31
1.102010451952733
 12
-0.14
 22
1.7251787152325611
 32
1.102010451952733
 13
-0.14
 23
1.735521618469777
 33
1.092365538649567
  0
3DFACE
  5
3974
  8
TAIL
 10
-0.12
 20
1.7251787152325611
 30
1.102010451952733
 11
-0.12
 21
1.734823628535727
 31
1.1123533551899489
 12
-0.14
 22
1.734823628535727
 32
1.1123533551899489
 13
-0.14
 23
1.7251787152325611
 33
1.102010451952733
  0
3DFACE
  5
3975
  8
TAIL
 10
-0.14
 20
1.735521618469777
 30
1.092365538649567
 11
-0.14
 21
1.7251787152325611
 31
1.102010451952733
 12
-0.24
 22
1.7272726850347111
 32
1.0420470023315871
 13
-0.24
 23
1.7376155882719271
 33
1.0324020890284209
  0
3DFACE
  5
3976
  8
TAIL
 10
-0.14
 20
1.7251787152325611
 30
1.102010451952733
 11
-0.14
 21
1.734823628535727
 31
1.1123533551899489
 12
-0.24
 22
1.7369175983378771
 32
1.0523899055688031
 13
-0.24
 23
1.7272726850347111
 33
1.0420470023315871
  0
3DFACE
  5
3977
  8
TAIL
 10
-0.12
 20
1.745166531772943
 30
1.102708441886783
 11
-0.12
 21
1.735521618469777
 31
1.092365538649567
 12
-0.14
 22
1.735521618469777
 32
1.092365538649567
 13
-0.14
 23
1.745166531772943
 33
1.102708441886783
  0
3DFACE
  5
3978
  8
TAIL
 10
-0.12
 20
1.734823628535727
 30
1.1123533551899489
 11
-0.12
 21
1.745166531772943
 31
1.102708441886783
 12
-0.14
 22
1.745166531772943
 32
1.102708441886783
 13
-0.14
 23
1.734823628535727
 33
1.1123533551899489
  0
3DFACE
  5
3979
  8
TAIL
 10
-0.14
 20
1.745166531772943
 30
1.102708441886783
 11
-0.14
 21
1.735521618469777
 31
1.092365538649567
 12
-0.24
 22
1.7376155882719271
 32
1.0324020890284209
 13
-0.24
 23
1.7472605015750931
 33
1.0427449922656371
  0
3DFACE
  5
397A
  8
TAIL
 10
-0.14
 20
1.734823628535727
 30
1.1123533551899489
 11
-0.14
 21
1.745166531772943
 31
1.102708441886783
 12
-0.24
 22
1.7472605015750931
 32
1.0427449922656371
 13
-0.24
 23
1.7369175983378771
 33
1.0523899055688031
  0
3DFACE
  5
397B
  8
TAIL
 10
-0.24
 20
1.7472605015750931
 30
1.0427449922656371
 11
-0.24
 21
1.7376155882719271
 31
1.0324020890284209
 12
-0.24
 22
1.7272726850347111
 32
1.0420470023315871
 13
-0.24
 23
1.7369175983378771
 33
1.0523899055688031
  0
VIEWPORT
  5
2E
 67
     1
  8
0
 10
144.7270812988281
 20
101.2295806407928
 30
0.0
 40
391.13550988316581
 41
222.15178063964839
 68
     2
 69
     1
1001
ACAD
1000
MVIEW
1002
{
1070
    16
1010
0.0
1020
0.0
1030
0.0
1010
0.0
1020
0.0
1030
1.0
1040
0.0
1040
222.15178063964839
1040
144.7270812988281
1040
101.2295806407928
1040
50.0
1040
0.0
1040
0.0
1070
     0
1070
   100
1070
     1
1070
     1
1070
     0
1070
     0
1070
     0
1070
     0
1040
0.0
1040
0.0
1040
0.0
1040
10.0
1040
10.0
1040
10.0
1040
10.0
1070
     0
1002
{
1002
}
1002
}
  0
VIEWPORT
  5
30
 67
     1
  8
0
 10
139.22375631332389
 20
100.8062499761581
 30
0.0
 40
222.75801010131829
 41
161.289999961853
 68
     1
 69
     2
1001
ACAD
1000
MVIEW
1002
{
1070
    16
1010
0.0
1020
0.0
1030
0.0
1010
0.0
1020
0.0
1030
1.0
1040
0.0
1040
307.49010134148989
1040
210.0
1040
148.5
1040
50.0
1040
0.0
1040
0.0
1070
     0
1070
   100
1070
     1
1070
     3
1070
     0
1070
     1
1070
     0
1070
     0
1040
0.0
1040
0.0
1040
0.0
1040
10.0
1040
10.0
1040
10.0
1040
10.0
1070
     0
1002
{
1002
}
1002
}
  0
ENDSEC
  0
EOF
