  0
SECTION
  2
HEADER
  9
$ACADVER
  1
AC1009
  9
$INSBASE
 10
0.0
 20
0.0
 30
0.0
  9
$EXTMIN
 10
-1.4399999999999991
 20
-9.1305000000000014
 30
-9.9088240000000027
  9
$EXTMAX
 10
1.2199999999999991
 20
13.359999999999999
 30
15.536614999999999
  9
$LIMMIN
 10
0.0
 20
0.0
  9
$LIMMAX
 10
420.0
 20
297.0
  9
$ORTHOMODE
 70
     1
  9
$REGENMODE
 70
     1
  9
$FILLMODE
 70
     1
  9
$QTEXTMODE
 70
     0
  9
$MIRRTEXT
 70
     1
  9
$DRAGMODE
 70
     2
  9
$LTSCALE
 40
1.0
  9
$OSMODE
 70
    35
  9
$ATTMODE
 70
     1
  9
$TEXTSIZE
 40
2.5
  9
$TRACEWID
 40
1.0
  9
$TEXTSTYLE
  7
STANDARD
  9
$CLAYER
  8
CRANE_TURRET
  9
$CELTYPE
  6
BYLAYER
  9
$CECOLOR
 62
   256
  9
$DIMSCALE
 40
1.0
  9
$DIMASZ
 40
2.5
  9
$DIMEXO
 40
0.625
  9
$DIMDLI
 40
3.75
  9
$DIMRND
 40
0.0
  9
$DIMDLE
 40
0.0
  9
$DIMEXE
 40
1.25
  9
$DIMTP
 40
0.0
  9
$DIMTM
 40
0.0
  9
$DIMTXT
 40
2.5
  9
$DIMCEN
 40
2.5
  9
$DIMTSZ
 40
0.0
  9
$DIMTOL
 70
     0
  9
$DIMLIM
 70
     0
  9
$DIMTIH
 70
     0
  9
$DIMTOH
 70
     0
  9
$DIMSE1
 70
     0
  9
$DIMSE2
 70
     0
  9
$DIMTAD
 70
     1
  9
$DIMZIN
 70
     8
  9
$DIMBLK
  1

  9
$DIMASO
 70
     1
  9
$DIMSHO
 70
     1
  9
$DIMPOST
  1

  9
$DIMAPOST
  1

  9
$DIMALT
 70
     0
  9
$DIMALTD
 70
     3
  9
$DIMALTF
 40
0.03937007874016
  9
$DIMLFAC
 40
1.0
  9
$DIMTOFL
 70
     1
  9
$DIMTVP
 40
0.0
  9
$DIMTIX
 70
     0
  9
$DIMSOXD
 70
     0
  9
$DIMSAH
 70
     0
  9
$DIMBLK1
  1

  9
$DIMBLK2
  1

  9
$DIMSTYLE
  2
ISO-25
  9
$DIMCLRD
 70
     0
  9
$DIMCLRE
 70
     0
  9
$DIMCLRT
 70
     0
  9
$DIMTFAC
 40
1.0
  9
$DIMGAP
 40
0.625
  9
$LUNITS
 70
     2
  9
$LUPREC
 70
     4
  9
$SKETCHINC
 40
1.0
  9
$FILLETRAD
 40
10.0
  9
$AUNITS
 70
     0
  9
$AUPREC
 70
     0
  9
$MENU
  1
.
  9
$ELEVATION
 40
0.0
  9
$PELEVATION
 40
0.0
  9
$THICKNESS
 40
0.0
  9
$LIMCHECK
 70
     0
  9
$BLIPMODE
 70
     0
  9
$CHAMFERA
 40
10.0
  9
$CHAMFERB
 40
10.0
  9
$SKPOLY
 70
     0
  9
$TDCREATE
 40
2456971.5935006831
  9
$TDUPDATE
 40
2456973.8539451151
  9
$TDINDWG
 40
0.9630291088
  9
$TDUSRTIMER
 40
0.9630291088
  9
$USRTIMER
 70
     1
  9
$ANGBASE
 50
0.0
  9
$ANGDIR
 70
     0
  9
$PDMODE
 70
     0
  9
$PDSIZE
 40
0.0
  9
$PLINEWID
 40
0.0
  9
$COORDS
 70
     1
  9
$SPLFRAME
 70
     0
  9
$SPLINETYPE
 70
     6
  9
$SPLINESEGS
 70
     8
  9
$ATTDIA
 70
     1
  9
$ATTREQ
 70
     1
  9
$HANDLING
 70
-16383
  9
$HANDSEED
  5
204D
  9
$SURFTAB1
 70
     6
  9
$SURFTAB2
 70
     6
  9
$SURFTYPE
 70
     6
  9
$SURFU
 70
     6
  9
$SURFV
 70
     6
  9
$UCSNAME
  2

  9
$UCSORG
 10
0.0
 20
0.0
 30
0.0
  9
$UCSXDIR
 10
0.0
 20
-1.0
 30
0.0
  9
$UCSYDIR
 10
0.0
 20
0.0
 30
1.0
  9
$PUCSNAME
  2

  9
$PUCSORG
 10
0.0
 20
0.0
 30
0.0
  9
$PUCSXDIR
 10
1.0
 20
0.0
 30
0.0
  9
$PUCSYDIR
 10
0.0
 20
1.0
 30
0.0
  9
$USERI1
 70
     0
  9
$USERI2
 70
     0
  9
$USERI3
 70
     0
  9
$USERI4
 70
     0
  9
$USERI5
 70
     0
  9
$USERR1
 40
0.0
  9
$USERR2
 40
0.0
  9
$USERR3
 40
0.0
  9
$USERR4
 40
0.0
  9
$USERR5
 40
0.0
  9
$WORLDVIEW
 70
     1
  9
$SHADEDGE
 70
     3
  9
$SHADEDIF
 70
    70
  9
$TILEMODE
 70
     1
  9
$MAXACTVP
 70
    64
  9
$PLIMCHECK
 70
     0
  9
$PEXTMIN
 10
27.844751262664801
 20
20.161249995231621
 30
0.0
  9
$PEXTMAX
 10
250.60276136398309
 20
181.4512499570846
 30
0.0
  9
$PLIMMIN
 10
-3.757080078125
 20
-3.7570831775665279
  9
$PLIMMAX
 10
293.21124267578119
 20
206.21624445915219
  9
$UNITMODE
 70
     0
  9
$VISRETAIN
 70
     1
  9
$PLINEGEN
 70
     0
  9
$PSLTSCALE
 70
     1
  0
ENDSEC
  0
SECTION
  2
TABLES
  0
TABLE
  2
VPORT
 70
    40
  0
VPORT
  2
*ACTIVE
 70
     0
 10
0.0
 20
0.0
 11
1.0
 21
1.0
 12
2.3908283615636341
 22
0.3975800143156682
 13
0.0
 23
0.0
 14
0.01
 24
0.01
 15
1.0
 25
1.0
 16
-1.0
 26
0.0
 36
0.0
 17
0.0
 27
0.0
 37
0.0
 40
12.289783293283181
 41
2.1728395061728389
 42
50.0
 43
0.0
 44
0.0
 50
0.0
 51
0.0
 71
     0
 72
   100
 73
     1
 74
     3
 75
     1
 76
     1
 77
     0
 78
     0
  0
ENDTAB
  0
TABLE
  2
LTYPE
 70
     1
  0
LTYPE
  2
CONTINUOUS
 70
     0
  3
Solid line
 72
    65
 73
     0
 40
0.0
  0
ENDTAB
  0
TABLE
  2
LAYER
 70
    19
  0
LAYER
  2
0
 70
     0
 62
     7
  6
CONTINUOUS
  0
LAYER
  2
DRAWING
 70
     0
 62
     9
  6
CONTINUOUS
  0
LAYER
  2
FENDERS
 70
     0
 62
     6
  6
CONTINUOUS
  0
LAYER
  2
WHEELS
 70
     0
 62
     2
  6
CONTINUOUS
  0
LAYER
  2
TORSIONS
 70
     0
 62
     5
  6
CONTINUOUS
  0
LAYER
  2
TRACKS
 70
     0
 62
     3
  6
CONTINUOUS
  0
LAYER
  2
TURRET
 70
     0
 62
     2
  6
CONTINUOUS
  0
LAYER
  2
SLEEVE
 70
     0
 62
     5
  6
CONTINUOUS
  0
LAYER
  2
GUN
 70
     0
 62
     1
  6
CONTINUOUS
  0
LAYER
  2
WHEELS_LOW_POLY
 70
     0
 62
     4
  6
CONTINUOUS
  0
LAYER
  2
CRANE_TURRET
 70
     0
 62
     2
  6
CONTINUOUS
  0
LAYER
  2
CRANE_DRAWING
 70
     0
 62
     8
  6
CONTINUOUS
  0
LAYER
  2
CRANE_SUPERSTRUCTURE
 70
     0
 62
     4
  6
CONTINUOUS
  0
LAYER
  2
TANK_ONLY
 70
     0
 62
     6
  6
CONTINUOUS
  0
LAYER
  2
CRANE_TURRET_ACTUATOR
 70
     0
 62
     3
  6
CONTINUOUS
  0
LAYER
  2
CRANE_ACTUATOR_2
 70
     0
 62
     1
  6
CONTINUOUS
  0
LAYER
  2
CRANE
 70
     0
 62
     3
  6
CONTINUOUS
  0
LAYER
  2
CRANE_HOOK
 70
     0
 62
     2
  6
CONTINUOUS
  0
LAYER
  2
CRANE_SUPPORTS
 70
     0
 62
     6
  6
CONTINUOUS
  0
ENDTAB
  0
TABLE
  2
STYLE
 70
     1
  0
STYLE
  2
STANDARD
 70
     0
 40
0.0
 41
1.0
 50
0.0
 71
     0
 42
2.5
  3
txt
  4

  0
ENDTAB
  0
TABLE
  2
VIEW
 70
     0
  0
ENDTAB
  0
TABLE
  2
UCS
 70
     0
  0
ENDTAB
  0
TABLE
  2
APPID
 70
     1
  0
APPID
  2
ACAD
 70
     0
  0
ENDTAB
  0
TABLE
  2
DIMSTYLE
 70
     1
  0
DIMSTYLE
  2
ISO-25
 70
     0
  3

  4

  5

  6

  7

 40
1.0
 41
2.5
 42
0.625
 43
3.75
 44
1.25
 45
0.0
 46
0.0
 47
0.0
 48
0.0
140
2.5
141
2.5
142
0.0
143
0.03937007874016
144
1.0
145
0.0
146
1.0
147
0.625
 71
     0
 72
     0
 73
     0
 74
     0
 75
     0
 76
     0
 77
     1
 78
     8
170
     0
171
     3
172
     1
173
     0
174
     0
175
     0
176
     0
177
     0
178
     0
  0
ENDTAB
  0
ENDSEC
  0
SECTION
  2
BLOCKS
  0
BLOCK
  8
0
  2
$MODEL_SPACE
 70
     0
 10
0.0
 20
0.0
 30
0.0
  3
$MODEL_SPACE
  1

  0
ENDBLK
  5
21
  8
0
  0
BLOCK
 67
     1
  8
0
  2
$PAPER_SPACE
 70
     0
 10
0.0
 20
0.0
 30
0.0
  3
$PAPER_SPACE
  1

  0
ENDBLK
  5
1D
 67
     1
  8
0
  0
ENDSEC
  0
SECTION
  2
ENTITIES
  0
3DFACE
  5
1BF9
  8
CRANE_TURRET
 10
0.85
 20
0.0000000000000001
 30
0.0
 11
0.6010407640085655
 21
0.6010407640085653
 31
0.0
 12
0.6010407640085655
 22
0.6010407640085653
 32
0.1000000000000001
 13
0.85
 23
0.0000000000000001
 33
0.1000000000000001
  0
3DFACE
  5
1BFA
  8
CRANE_TURRET
 10
0.6010407640085655
 20
0.6010407640085653
 30
0.0
 11
0.0000000000000001
 21
0.85
 31
0.0
 12
0.0000000000000001
 22
0.85
 32
0.1000000000000001
 13
0.6010407640085655
 23
0.6010407640085653
 33
0.1000000000000001
  0
3DFACE
  5
1BFB
  8
CRANE_TURRET
 10
0.0000000000000001
 20
0.85
 30
0.0
 11
-0.6010407640085653
 21
0.6010407640085657
 31
0.0
 12
-0.6010407640085653
 22
0.6010407640085657
 32
0.1000000000000001
 13
0.0000000000000001
 23
0.85
 33
0.1000000000000001
  0
3DFACE
  5
1BFC
  8
CRANE_TURRET
 10
-0.6010407640085653
 20
0.6010407640085657
 30
0.0
 11
-0.85
 21
0.0000000000000002
 31
0.0
 12
-0.85
 22
0.0000000000000002
 32
0.1000000000000001
 13
-0.6010407640085653
 23
0.6010407640085657
 33
0.1000000000000001
  0
3DFACE
  5
1BFD
  8
CRANE_TURRET
 10
-0.85
 20
0.0000000000000002
 30
0.0
 11
-0.6010407640085655
 21
-0.6010407640085653
 31
0.0
 12
-0.6010407640085655
 22
-0.6010407640085653
 32
0.1000000000000001
 13
-0.85
 23
0.0000000000000002
 33
0.1000000000000001
  0
3DFACE
  5
1BFE
  8
CRANE_TURRET
 10
-0.6010407640085655
 20
-0.6010407640085653
 30
0.0
 11
-0.0000000000000002
 21
-0.8499999999999998
 31
0.0
 12
-0.0000000000000002
 22
-0.8499999999999998
 32
0.1000000000000001
 13
-0.6010407640085655
 23
-0.6010407640085653
 33
0.1000000000000001
  0
3DFACE
  5
1BFF
  8
CRANE_TURRET
 10
-0.0000000000000002
 20
-0.8499999999999998
 30
0.0
 11
0.6010407640085652
 21
-0.6010407640085653
 31
0.0
 12
0.6010407640085652
 22
-0.6010407640085653
 32
0.1000000000000001
 13
-0.0000000000000002
 23
-0.8499999999999998
 33
0.1000000000000001
  0
3DFACE
  5
1C00
  8
CRANE_TURRET
 10
0.6010407640085652
 20
-0.6010407640085653
 30
0.0
 11
0.85
 21
0.0000000000000001
 31
0.0
 12
0.85
 22
0.0000000000000001
 32
0.1000000000000001
 13
0.6010407640085652
 23
-0.6010407640085653
 33
0.1000000000000001
  0
3DFACE
  5
1D33
  8
CRANE_TURRET
 10
1.0
 20
0.0
 30
0.1000000000000001
 11
0.9238795325112867
 21
0.3826834323650898
 31
0.1000000000000001
 12
0.9238795325112867
 22
0.3826834323650898
 32
0.6200000000000001
 13
1.0
 23
0.0
 33
0.6200000000000001
  0
3DFACE
  5
1D34
  8
CRANE_TURRET
 10
0.9238795325112867
 20
0.3826834323650898
 30
0.1000000000000001
 11
0.71
 21
0.7
 31
0.1000000000000001
 12
0.71
 22
0.7
 32
0.6200000000000001
 13
0.9238795325112867
 23
0.3826834323650894
 33
0.6200000000000001
  0
3DFACE
  5
1D35
  8
CRANE_TURRET
 10
0.71
 20
0.7
 30
0.1000000000000001
 11
0.3826834323650898
 21
0.9238795325112867
 31
0.1000000000000001
 12
0.3826834323650904
 22
0.9238795325112862
 32
0.2000000000000002
 13
0.71
 23
0.7
 33
0.2000000000000002
  0
3DFACE
  5
1D36
  8
CRANE_TURRET
 10
0.3826834323650898
 20
0.9238795325112867
 30
0.1000000000000001
 11
0.0000000000000001
 21
1.0
 31
0.1000000000000001
 12
0.0000000000000001
 22
1.0
 32
0.2000000000000002
 13
0.3826834323650904
 23
0.9238795325112862
 33
0.2000000000000002
  0
3DFACE
  5
1D37
  8
CRANE_TURRET
 10
0.0000000000000001
 20
1.0
 30
0.1000000000000001
 11
-0.3826834323650897
 21
0.9238795325112867
 31
0.1000000000000001
 12
-0.38268343236509
 22
0.9238795325112864
 32
0.2000000000000002
 13
0.0000000000000001
 23
1.0
 33
0.2000000000000002
  0
3DFACE
  5
1D38
  8
CRANE_TURRET
 10
-0.3826834323650897
 20
0.9238795325112867
 30
0.1000000000000001
 11
-0.71
 21
0.7
 31
0.1000000000000001
 12
-0.71
 22
0.7
 32
0.2000000000000002
 13
-0.38268343236509
 23
0.9238795325112864
 33
0.2000000000000002
  0
3DFACE
  5
1D39
  8
CRANE_TURRET
 10
-0.71
 20
0.7
 30
0.1000000000000001
 11
-0.9238795325112867
 21
0.3826834323650899
 31
0.1000000000000001
 12
-0.9238795325112871
 22
0.3826834323650885
 32
0.6200000000000001
 13
-0.71
 23
0.7
 33
0.6200000000000001
  0
3DFACE
  5
1D3A
  8
CRANE_TURRET
 10
-0.9238795325112867
 20
0.3826834323650899
 30
0.1000000000000001
 11
-1.0
 21
0.0000000000000001
 31
0.1000000000000001
 12
-1.0
 22
0.0000000000000001
 32
0.6200000000000001
 13
-0.9238795325112867
 23
0.3826834323650899
 33
0.6200000000000001
  0
3DFACE
  5
1D3B
  8
CRANE_TURRET
 10
-1.0
 20
0.0000000000000001
 30
0.1000000000000001
 11
-0.9238795325112867
 21
-0.3826834323650896
 31
0.1000000000000001
 12
-0.9238795325112867
 22
-0.3826834323650896
 32
0.6200000000000001
 13
-1.0
 23
0.0000000000000001
 33
0.6200000000000001
  0
3DFACE
  5
1D3C
  8
CRANE_TURRET
 10
-0.9238795325112867
 20
-0.3826834323650896
 30
0.1000000000000001
 11
-0.7071067811865478
 21
-0.7071067811865475
 31
0.1000000000000001
 12
-0.7071067811865478
 22
-0.7071067811865475
 32
0.6200000000000001
 13
-0.9238795325112867
 23
-0.3826834323650896
 33
0.6200000000000001
  0
3DFACE
  5
1D3D
  8
CRANE_TURRET
 10
-0.7071067811865478
 20
-0.7071067811865475
 30
0.1000000000000001
 11
-0.3826834323650903
 21
-0.9238795325112864
 31
0.1900000000000002
 12
-0.3826834323650903
 22
-0.9238795325112864
 32
0.5200000000000001
 13
-0.7071067811865478
 23
-0.7071067811865475
 33
0.6200000000000001
  0
3DFACE
  5
1D3E
  8
CRANE_TURRET
 10
-0.3826834323650903
 20
-0.9238795325112864
 30
0.1000000000000001
 11
-0.0000000000000002
 21
-1.0
 31
0.1000000000000001
 12
-0.0000000000000002
 22
-1.0
 32
0.1900000000000002
 13
-0.3826834323650903
 23
-0.9238795325112864
 33
0.1900000000000002
  0
3DFACE
  5
1D3F
  8
CRANE_TURRET
 10
-0.0000000000000002
 20
-1.0
 30
0.1000000000000001
 11
0.38268343236509
 21
-0.9238795325112864
 31
0.1000000000000001
 12
0.38268343236509
 22
-0.9238795325112864
 32
0.1900000000000002
 13
-0.0000000000000002
 23
-1.0
 33
0.1900000000000002
  0
3DFACE
  5
1D40
  8
CRANE_TURRET
 10
0.38268343236509
 20
-0.9238795325112864
 30
0.1900000000000002
 11
0.707106781186548
 21
-0.7071067811865471
 31
0.1000000000000001
 12
0.707106781186548
 22
-0.7071067811865471
 32
0.6200000000000001
 13
0.38268343236509
 23
-0.9238795325112864
 33
0.5200000000000001
  0
3DFACE
  5
1D41
  8
CRANE_TURRET
 10
0.707106781186548
 20
-0.7071067811865471
 30
0.1000000000000001
 11
0.9238795325112871
 21
-0.3826834323650887
 31
0.1000000000000001
 12
0.9238795325112871
 22
-0.3826834323650887
 32
0.6200000000000001
 13
0.707106781186548
 23
-0.7071067811865471
 33
0.6200000000000001
  0
3DFACE
  5
1D42
  8
CRANE_TURRET
 10
0.9238795325112871
 20
-0.3826834323650887
 30
0.1000000000000001
 11
1.0
 21
0.0
 31
0.1000000000000001
 12
1.0
 22
0.0
 32
0.6200000000000001
 13
0.9238795325112871
 23
-0.3826834323650887
 33
0.6200000000000001
  0
3DFACE
  5
1D43
  8
CRANE_TURRET
 10
0.0000000000000001
 20
-0.0000000000000001
 30
0.8000000000000003
 11
-0.4999999999999999
 21
-0.0000000000000001
 31
0.75
 12
-0.4619397662556432
 22
-0.1913417161825448
 32
0.75
 13
0.0000000000000001
 23
-0.0000000000000001
 33
0.8000000000000003
  0
3DFACE
  5
1D44
  8
CRANE_TURRET
 10
-0.4999999999999999
 20
-0.0000000000000001
 30
0.75
 11
-0.8660254037844385
 21
-0.0000000000000001
 31
0.67
 12
-0.8001031451912654
 22
-0.3314135740355919
 32
0.67
 13
-0.4619397662556432
 23
-0.1913417161825448
 33
0.75
  0
3DFACE
  5
1D45
  8
CRANE_TURRET
 10
-0.8660254037844385
 20
-0.0000000000000001
 30
0.67
 11
-1.0
 21
-0.0000000000000003
 31
0.6200000000000001
 12
-0.9238795325112867
 22
-0.3826834323650899
 32
0.6200000000000001
 13
-0.8001031451912654
 23
-0.3314135740355919
 33
0.67
  0
3DFACE
  5
1D46
  8
CRANE_TURRET
 10
0.0000000000000001
 20
-0.0000000000000001
 30
0.8000000000000003
 11
-0.4619397662556432
 21
-0.1913417161825448
 31
0.75
 12
-0.3535533905932736
 22
-0.3535533905932735
 32
0.75
 13
0.0000000000000001
 23
-0.0000000000000001
 33
0.8000000000000003
  0
3DFACE
  5
1D47
  8
CRANE_TURRET
 10
-0.4619397662556432
 20
-0.1913417161825448
 30
0.75
 11
-0.8001031451912654
 21
-0.3314135740355919
 31
0.67
 12
-0.6123724356957946
 22
-0.6123724356957946
 32
0.67
 13
-0.3535533905932736
 23
-0.3535533905932735
 33
0.75
  0
3DFACE
  5
1D48
  8
CRANE_TURRET
 10
-0.8001031451912654
 20
-0.3314135740355919
 30
0.67
 11
-0.9238795325112867
 21
-0.3826834323650899
 31
0.6200000000000001
 12
-0.7071067811865476
 22
-0.7071067811865478
 32
0.6200000000000006
 13
-0.6123724356957946
 23
-0.6123724356957946
 33
0.67
  0
3DFACE
  5
1D49
  8
CRANE_TURRET
 10
0.0000000000000001
 20
-0.0000000000000001
 30
0.8000000000000003
 11
-0.3535533905932736
 21
-0.3535533905932735
 31
0.75
 12
-0.1913417161825448
 22
-0.4619397662556432
 32
0.75
 13
0.0000000000000001
 23
-0.0000000000000001
 33
0.8000000000000003
  0
3DFACE
  5
1D4A
  8
CRANE_TURRET
 10
-0.3535533905932736
 20
-0.3535533905932735
 30
0.75
 11
-0.6123724356957946
 21
-0.6123724356957946
 31
0.67
 12
-0.3314135740355918
 22
-0.8001031451912652
 32
0.67
 13
-0.1913417161825448
 23
-0.4619397662556432
 33
0.75
  0
3DFACE
  5
1D4B
  8
CRANE_TURRET
 10
-0.6123724356957946
 20
-0.6123724356957946
 30
0.67
 11
-0.7071067811865476
 21
-0.7071067811865478
 31
0.6200000000000006
 12
-0.3826834323650898
 22
-0.9238795325112869
 32
0.6200000000000006
 13
-0.3314135740355918
 23
-0.8001031451912652
 33
0.67
  0
3DFACE
  5
1D4C
  8
CRANE_TURRET
 10
0.0000000000000001
 20
-0.0000000000000001
 30
0.8000000000000003
 11
-0.1913417161825448
 21
-0.4619397662556432
 31
0.75
 12
0.0
 22
-0.4999999999999999
 32
0.75
 13
0.0000000000000001
 23
-0.0000000000000001
 33
0.8000000000000003
  0
3DFACE
  5
1D4D
  8
CRANE_TURRET
 10
-0.1913417161825448
 20
-0.4619397662556432
 30
0.75
 11
-0.3314135740355918
 21
-0.8001031451912652
 31
0.67
 12
-0.0000000000000001
 22
-0.8660254037844385
 32
0.67
 13
0.0
 23
-0.4999999999999999
 33
0.75
  0
3DFACE
  5
1D4E
  8
CRANE_TURRET
 10
-0.3314135740355918
 20
-0.8001031451912652
 30
0.67
 11
-0.3826834323650898
 21
-0.9238795325112869
 31
0.6200000000000006
 12
-0.0000000000000001
 22
-1.0
 32
0.6200000000000006
 13
-0.0000000000000001
 23
-0.8660254037844385
 33
0.67
  0
3DFACE
  5
1D4F
  8
CRANE_TURRET
 10
0.0000000000000001
 20
-0.0000000000000001
 30
0.8000000000000003
 11
0.0
 21
-0.4999999999999999
 31
0.75
 12
0.1913417161825448
 22
-0.4619397662556433
 32
0.75
 13
0.0000000000000001
 23
-0.0000000000000001
 33
0.8000000000000003
  0
3DFACE
  5
1D50
  8
CRANE_TURRET
 10
0.0
 20
-0.4999999999999999
 30
0.75
 11
-0.0000000000000001
 21
-0.8660254037844385
 31
0.67
 12
0.3314135740355917
 22
-0.8001031451912654
 32
0.67
 13
0.1913417161825448
 23
-0.4619397662556433
 33
0.75
  0
3DFACE
  5
1D51
  8
CRANE_TURRET
 10
-0.0000000000000001
 20
-0.8660254037844385
 30
0.67
 11
-0.0000000000000001
 21
-1.0
 31
0.6200000000000006
 12
0.3826834323650897
 22
-0.9238795325112869
 32
0.6200000000000006
 13
0.3314135740355917
 23
-0.8001031451912654
 33
0.67
  0
3DFACE
  5
1D52
  8
CRANE_TURRET
 10
0.0000000000000001
 20
-0.0000000000000001
 30
0.8000000000000003
 11
0.1913417161825448
 21
-0.4619397662556433
 31
0.75
 12
0.3535533905932735
 22
-0.3535533905932735
 32
0.75
 13
0.0000000000000001
 23
-0.0000000000000001
 33
0.8000000000000003
  0
3DFACE
  5
1D53
  8
CRANE_TURRET
 10
0.1913417161825448
 20
-0.4619397662556433
 30
0.75
 11
0.3314135740355917
 21
-0.8001031451912654
 31
0.67
 12
0.6123724356957944
 22
-0.6123724356957946
 32
0.67
 13
0.3535533905932735
 23
-0.3535533905932735
 33
0.75
  0
3DFACE
  5
1D54
  8
CRANE_TURRET
 10
0.3314135740355917
 20
-0.8001031451912654
 30
0.67
 11
0.3826834323650897
 21
-0.9238795325112869
 31
0.6200000000000006
 12
0.7071067811865475
 22
-0.7071067811865478
 32
0.6200000000000006
 13
0.6123724356957944
 23
-0.6123724356957946
 33
0.67
  0
3DFACE
  5
1D55
  8
CRANE_TURRET
 10
0.0000000000000001
 20
-0.0000000000000001
 30
0.8000000000000003
 11
0.3535533905932735
 21
-0.3535533905932735
 31
0.75
 12
0.4619397662556432
 22
-0.1913417161825448
 32
0.75
 13
0.0000000000000001
 23
-0.0000000000000001
 33
0.8000000000000003
  0
3DFACE
  5
1D56
  8
CRANE_TURRET
 10
0.3535533905932735
 20
-0.3535533905932735
 30
0.75
 11
0.6123724356957944
 21
-0.6123724356957946
 31
0.67
 12
0.8001031451912654
 22
-0.3314135740355919
 32
0.67
 13
0.4619397662556432
 23
-0.1913417161825448
 33
0.75
  0
3DFACE
  5
1D57
  8
CRANE_TURRET
 10
0.6123724356957944
 20
-0.6123724356957946
 30
0.67
 11
0.7071067811865475
 21
-0.7071067811865478
 31
0.6200000000000006
 12
0.9238795325112867
 22
-0.3826834323650901
 32
0.6200000000000001
 13
0.8001031451912654
 23
-0.3314135740355919
 33
0.67
  0
3DFACE
  5
1D58
  8
CRANE_TURRET
 10
0.0000000000000001
 20
-0.0000000000000001
 30
0.8000000000000003
 11
0.4619397662556432
 21
-0.1913417161825448
 31
0.75
 12
0.4999999999999999
 22
-0.0000000000000001
 32
0.75
 13
0.0000000000000001
 23
-0.0000000000000001
 33
0.8000000000000003
  0
3DFACE
  5
1D59
  8
CRANE_TURRET
 10
0.4619397662556432
 20
-0.1913417161825448
 30
0.75
 11
0.8001031451912654
 21
-0.3314135740355919
 31
0.67
 12
0.8660254037844385
 22
-0.0000000000000003
 32
0.67
 13
0.4999999999999999
 23
-0.0000000000000001
 33
0.75
  0
3DFACE
  5
1D5A
  8
CRANE_TURRET
 10
0.8001031451912654
 20
-0.3314135740355919
 30
0.67
 11
0.9238795325112867
 21
-0.3826834323650901
 31
0.6200000000000001
 12
1.0
 22
-0.0000000000000003
 32
0.6200000000000001
 13
0.8660254037844385
 23
-0.0000000000000003
 33
0.67
  0
3DFACE
  5
1D5B
  8
CRANE_TURRET
 10
0.0000000000000001
 20
-0.0000000000000001
 30
0.8000000000000003
 11
0.4999999999999999
 21
-0.0000000000000001
 31
0.75
 12
0.4619397662556433
 22
0.1913417161825448
 32
0.75
 13
0.0000000000000001
 23
-0.0000000000000001
 33
0.8000000000000003
  0
3DFACE
  5
1D5C
  8
CRANE_TURRET
 10
0.4999999999999999
 20
-0.0000000000000001
 30
0.75
 11
0.8660254037844385
 21
-0.0000000000000003
 31
0.67
 12
0.8001031451912654
 22
0.3314135740355915
 32
0.67
 13
0.4619397662556433
 23
0.1913417161825448
 33
0.75
  0
3DFACE
  5
1D5D
  8
CRANE_TURRET
 10
0.8660254037844385
 20
-0.0000000000000003
 30
0.67
 11
1.0
 21
-0.0000000000000003
 31
0.6200000000000001
 12
0.9238795325112867
 22
0.3826834323650894
 32
0.6200000000000001
 13
0.8001031451912654
 23
0.3314135740355915
 33
0.67
  0
3DFACE
  5
1D5E
  8
CRANE_TURRET
 10
0.0000000000000001
 20
-0.0000000000000001
 30
0.8000000000000003
 11
0.4619397662556433
 21
0.1913417161825448
 31
0.75
 12
0.3535533905932736
 22
0.3535533905932735
 32
0.75
 13
0.0000000000000001
 23
-0.0000000000000001
 33
0.8000000000000003
  0
3DFACE
  5
1D5F
  8
CRANE_TURRET
 10
0.4619397662556433
 20
0.1913417161825448
 30
0.75
 11
0.8001031451912654
 21
0.3314135740355915
 31
0.67
 12
0.6123724356957946
 22
0.6123724356957943
 32
0.67
 13
0.3535533905932736
 23
0.3535533905932735
 33
0.75
  0
3DFACE
  5
1D60
  8
CRANE_TURRET
 10
0.8001031451912654
 20
0.3314135740355915
 30
0.67
 11
0.9238795325112867
 21
0.3826834323650894
 31
0.6200000000000001
 12
0.71
 22
0.7
 32
0.6200000000000001
 13
0.6123724356957946
 23
0.6123724356957943
 33
0.67
  0
3DFACE
  5
1D61
  8
CRANE_TURRET
 10
0.0000000000000001
 20
-0.0000000000000001
 30
0.8000000000000003
 11
0.3535533905932736
 21
0.3535533905932735
 31
0.75
 12
0.1913417161825451
 22
0.4619397662556432
 32
0.75
 13
0.0000000000000001
 23
-0.0000000000000001
 33
0.8000000000000003
  0
3DFACE
  5
1D62
  8
CRANE_TURRET
 10
0.3535533905932736
 20
0.3535533905932735
 30
0.75
 11
0.6123724356957946
 21
0.6123724356957943
 31
0.67
 12
0.3314135740355923
 22
0.800103145191265
 32
0.67
 13
0.1913417161825451
 23
0.4619397662556432
 33
0.75
  0
3DFACE
  5
1D63
  8
CRANE_TURRET
 10
0.6123724356957946
 20
0.6123724356957943
 30
0.67
 11
0.71
 21
0.7
 31
0.6200000000000001
 12
0.3826834323650904
 22
0.9238795325112862
 32
0.6200000000000001
 13
0.3314135740355923
 23
0.800103145191265
 33
0.67
  0
3DFACE
  5
1D64
  8
CRANE_TURRET
 10
0.0000000000000001
 20
-0.0000000000000001
 30
0.8000000000000003
 11
0.1913417161825451
 21
0.4619397662556432
 31
0.75
 12
0.0000000000000001
 22
0.4999999999999998
 32
0.75
 13
0.0000000000000001
 23
-0.0000000000000001
 33
0.8000000000000003
  0
3DFACE
  5
1D65
  8
CRANE_TURRET
 10
0.1913417161825451
 20
0.4619397662556432
 30
0.75
 11
0.3314135740355923
 21
0.800103145191265
 31
0.67
 12
0.0000000000000002
 22
0.8660254037844385
 32
0.67
 13
0.0000000000000001
 23
0.4999999999999998
 33
0.75
  0
3DFACE
  5
1D66
  8
CRANE_TURRET
 10
0.3314135740355923
 20
0.800103145191265
 30
0.67
 11
0.3826834323650904
 21
0.9238795325112862
 31
0.6200000000000001
 12
0.0000000000000002
 22
0.9999999999999998
 32
0.6200000000000001
 13
0.0000000000000002
 23
0.8660254037844385
 33
0.67
  0
3DFACE
  5
1D67
  8
CRANE_TURRET
 10
0.0000000000000001
 20
-0.0000000000000001
 30
0.8000000000000003
 11
0.0000000000000001
 21
0.4999999999999998
 31
0.75
 12
-0.1913417161825449
 22
0.4619397662556432
 32
0.75
 13
0.0000000000000001
 23
-0.0000000000000001
 33
0.8000000000000003
  0
3DFACE
  5
1D68
  8
CRANE_TURRET
 10
0.0000000000000001
 20
0.4999999999999998
 30
0.75
 11
0.0000000000000002
 21
0.8660254037844385
 31
0.67
 12
-0.3314135740355919
 22
0.8001031451912652
 32
0.67
 13
-0.1913417161825449
 23
0.4619397662556432
 33
0.75
  0
3DFACE
  5
1D69
  8
CRANE_TURRET
 10
0.0000000000000002
 20
0.8660254037844385
 30
0.67
 11
0.0000000000000002
 21
0.9999999999999998
 31
0.6200000000000001
 12
-0.38268343236509
 22
0.9238795325112864
 32
0.6200000000000001
 13
-0.3314135740355919
 23
0.8001031451912652
 33
0.67
  0
3DFACE
  5
1D6A
  8
CRANE_TURRET
 10
0.0000000000000001
 20
-0.0000000000000001
 30
0.8000000000000003
 11
-0.1913417161825449
 21
0.4619397662556432
 31
0.75
 12
-0.3535533905932739
 22
0.3535533905932733
 32
0.75
 13
0.0000000000000001
 23
-0.0000000000000001
 33
0.8000000000000003
  0
3DFACE
  5
1D6B
  8
CRANE_TURRET
 10
-0.1913417161825449
 20
0.4619397662556432
 30
0.75
 11
-0.3314135740355919
 21
0.8001031451912652
 31
0.67
 12
-0.6123724356957948
 22
0.6123724356957938
 32
0.67
 13
-0.3535533905932739
 23
0.3535533905932733
 33
0.75
  0
3DFACE
  5
1D6C
  8
CRANE_TURRET
 10
-0.3314135740355919
 20
0.8001031451912652
 30
0.67
 11
-0.38268343236509
 21
0.9238795325112864
 31
0.6200000000000001
 12
-0.71
 22
0.7
 32
0.6200000000000001
 13
-0.6123724356957948
 23
0.6123724356957938
 33
0.67
  0
3DFACE
  5
1D6D
  8
CRANE_TURRET
 10
0.0000000000000001
 20
-0.0000000000000001
 30
0.8000000000000003
 11
-0.3535533905932739
 21
0.3535533905932733
 31
0.75
 12
-0.4619397662556434
 22
0.1913417161825443
 32
0.75
 13
0.0000000000000001
 23
-0.0000000000000001
 33
0.8000000000000003
  0
3DFACE
  5
1D6E
  8
CRANE_TURRET
 10
-0.3535533905932739
 20
0.3535533905932733
 30
0.75
 11
-0.6123724356957948
 21
0.6123724356957938
 31
0.67
 12
-0.8001031451912657
 22
0.3314135740355907
 32
0.67
 13
-0.4619397662556434
 23
0.1913417161825443
 33
0.75
  0
3DFACE
  5
1D6F
  8
CRANE_TURRET
 10
-0.6123724356957948
 20
0.6123724356957938
 30
0.67
 11
-0.71
 21
0.7
 31
0.6200000000000001
 12
-0.9238795325112871
 22
0.3826834323650885
 32
0.6200000000000001
 13
-0.8001031451912657
 23
0.3314135740355907
 33
0.67
  0
3DFACE
  5
1D70
  8
CRANE_TURRET
 10
0.0000000000000001
 20
-0.0000000000000001
 30
0.8000000000000003
 11
-0.4619397662556434
 21
0.1913417161825443
 31
0.75
 12
-0.4999999999999999
 22
-0.0000000000000001
 32
0.75
 13
0.0000000000000001
 23
-0.0000000000000001
 33
0.8000000000000003
  0
3DFACE
  5
1D71
  8
CRANE_TURRET
 10
-0.4619397662556434
 20
0.1913417161825443
 30
0.75
 11
-0.8001031451912657
 21
0.3314135740355907
 31
0.67
 12
-0.8660254037844385
 22
-0.0000000000000001
 32
0.67
 13
-0.4999999999999999
 23
-0.0000000000000001
 33
0.75
  0
3DFACE
  5
1D72
  8
CRANE_TURRET
 10
-0.8001031451912657
 20
0.3314135740355907
 30
0.67
 11
-0.9238795325112871
 21
0.3826834323650885
 31
0.6200000000000001
 12
-1.0
 22
-0.0000000000000003
 32
0.6200000000000001
 13
-0.8660254037844385
 23
-0.0000000000000001
 33
0.67
  0
3DFACE
  5
1D73
  8
CRANE_TURRET
 10
0.3
 20
-0.31
 30
0.75
 11
0.2121320343559642
 21
-0.0978679656440357
 31
0.7700000000000001
 12
0.2121320343559642
 22
-0.0978679656440357
 32
0.9199999999999999
 13
0.3
 23
-0.31
 33
0.9199999999999999
  0
3DFACE
  5
1D74
  8
CRANE_TURRET
 10
0.2121320343559642
 20
-0.0978679656440357
 30
0.7700000000000001
 11
0.0000000000000001
 21
-0.01
 31
0.7990000000000004
 12
0.0
 22
-0.01
 32
0.9199999999999999
 13
0.2121320343559642
 23
-0.0978679656440357
 33
0.9199999999999999
  0
3DFACE
  5
1D75
  8
CRANE_TURRET
 10
0.0000000000000001
 20
-0.01
 30
0.7990000000000004
 11
-0.2121320343559642
 21
-0.0978679656440357
 31
0.7700000000000001
 12
-0.2121320343559642
 22
-0.0978679656440357
 32
0.9199999999999999
 13
0.0
 23
-0.01
 33
0.9199999999999999
  0
3DFACE
  5
1D76
  8
CRANE_TURRET
 10
-0.2121320343559642
 20
-0.0978679656440357
 30
0.7700000000000001
 11
-0.3
 21
-0.31
 31
0.75
 12
-0.3
 22
-0.31
 32
0.9199999999999999
 13
-0.2121320343559642
 23
-0.0978679656440357
 33
0.9199999999999999
  0
3DFACE
  5
1D77
  8
CRANE_TURRET
 10
-0.3
 20
-0.31
 30
0.75
 11
-0.2121320343559643
 21
-0.5221320343559643
 31
0.73
 12
-0.2121320343559643
 22
-0.5221320343559643
 32
0.9199999999999999
 13
-0.3
 23
-0.31
 33
0.9199999999999999
  0
3DFACE
  5
1D78
  8
CRANE_TURRET
 10
-0.2121320343559643
 20
-0.5221320343559643
 30
0.73
 11
0.0
 21
-0.61
 31
0.7259579528933937
 12
-0.0000000000000001
 22
-0.61
 32
0.9199999999999999
 13
-0.2121320343559643
 23
-0.5221320343559643
 33
0.9199999999999999
  0
3DFACE
  5
1D79
  8
CRANE_TURRET
 10
0.0
 20
-0.61
 30
0.7259579528933937
 11
0.2121320343559642
 21
-0.5221320343559643
 31
0.73
 12
0.2121320343559642
 22
-0.5221320343559643
 32
0.9199999999999999
 13
-0.0000000000000001
 23
-0.61
 33
0.9199999999999999
  0
3DFACE
  5
1D7A
  8
CRANE_TURRET
 10
0.2121320343559642
 20
-0.5221320343559643
 30
0.73
 11
0.3
 21
-0.31
 31
0.75
 12
0.3
 22
-0.31
 32
0.9199999999999999
 13
0.2121320343559642
 23
-0.5221320343559643
 33
0.9199999999999999
  0
3DFACE
  5
1D7B
  8
CRANE_TURRET
 10
-0.0000000000000002
 20
-1.0
 30
0.5200000000000001
 11
0.38268343236509
 21
-0.9238795325112864
 31
0.5200000000000001
 12
0.38268343236509
 22
-0.9238795325112864
 32
0.6200000000000001
 13
-0.0000000000000002
 23
-1.0
 33
0.6200000000000001
  0
3DFACE
  5
1D7C
  8
CRANE_TURRET
 10
-0.3826834323650903
 20
-0.9238795325112864
 30
0.5200000000000001
 11
-0.0000000000000002
 21
-1.0
 31
0.5200000000000001
 12
-0.0000000000000002
 22
-1.0
 32
0.6200000000000001
 13
-0.3826834323650903
 23
-0.9238795325112864
 33
0.6200000000000001
  0
3DFACE
  5
1D7E
  8
CRANE_TURRET
 10
-0.3826834323650903
 20
-0.9238795325112864
 30
0.1900000000000002
 11
0.38268343236509
 21
-0.9238795325112864
 31
0.1900000000000002
 12
0.38268343236509
 22
-0.9238795325112864
 32
0.5200000000000001
 13
-0.3826834323650903
 23
-0.9238795325112864
 33
0.5200000000000001
  0
3DFACE
  5
1D7F
  8
CRANE_TURRET
 10
-0.0000000000000002
 20
-1.0
 30
0.1900000000000002
 11
-0.0000000000000002
 21
-1.0
 31
0.1900000000000002
 12
0.38268343236509
 22
-0.9238795325112864
 32
0.1900000000000002
 13
-0.3826834323650903
 23
-0.9238795325112864
 33
0.1900000000000002
  0
3DFACE
  5
1D80
  8
CRANE_TURRET
 10
-0.3826834323650903
 20
-0.9238795325112864
 30
0.5200000000000001
 11
0.38268343236509
 21
-0.9238795325112864
 31
0.5200000000000001
 12
-0.0000000000000002
 22
-1.0
 32
0.5200000000000001
 13
-0.0000000000000002
 23
-1.0
 33
0.5200000000000001
  0
3DFACE
  5
1D81
  8
CRANE_TURRET
 10
-0.7071067811865478
 20
-0.7071067811865475
 30
0.1000000000000001
 11
-0.3826834323650903
 21
-0.9238795325112864
 31
0.1000000000000001
 12
-0.3826834323650903
 22
-0.9238795325112864
 32
0.1900000000000002
 13
-0.7071067811865478
 23
-0.7071067811865475
 33
0.1000000000000001
  0
3DFACE
  5
1D82
  8
CRANE_TURRET
 10
0.38268343236509
 20
-0.9238795325112864
 30
0.1000000000000001
 11
0.707106781186548
 21
-0.7071067811865471
 31
0.1000000000000001
 12
0.707106781186548
 22
-0.7071067811865471
 32
0.1000000000000001
 13
0.38268343236509
 23
-0.9238795325112864
 33
0.1900000000000002
  0
3DFACE
  5
1D83
  8
CRANE_TURRET
 10
-0.7071067811865478
 20
-0.7071067811865475
 30
0.6200000000000006
 11
-0.3826834323650903
 21
-0.9238795325112864
 31
0.5200000000000001
 12
-0.3826834323650897
 22
-0.9238795325112864
 32
0.6200000000000006
 13
-0.7071067811865478
 23
-0.7071067811865475
 33
0.6200000000000006
  0
3DFACE
  5
1D84
  8
CRANE_TURRET
 10
0.3826834323650901
 20
-0.9238795325112864
 30
0.5200000000000001
 11
0.707106781186548
 21
-0.7071067811865471
 31
0.620000000000001
 12
0.7071067811865474
 22
-0.7071067811865475
 32
0.620000000000001
 13
0.3826834323650896
 23
-0.9238795325112867
 33
0.6200000000000006
  0
3DFACE
  5
1D8F
  8
CRANE_TURRET
 10
-0.1799999999999999
 20
-1.0600000000000001
 30
0.4500000000000002
 11
-0.08
 21
-1.0600000000000001
 31
0.4500000000000002
 12
-0.08
 22
-0.9238795325112864
 32
0.4500000000000002
 13
-0.1800000000000002
 23
-0.9238795325112864
 33
0.4500000000000002
  0
3DFACE
  5
1D90
  8
CRANE_TURRET
 10
-0.1799999999999999
 20
-1.1299999999999999
 30
0.3999999999999999
 11
-0.08
 21
-1.1299999999999999
 31
0.3999999999999999
 12
-0.08
 22
-1.0600000000000001
 32
0.4500000000000002
 13
-0.1799999999999999
 23
-1.0600000000000001
 33
0.4500000000000002
  0
3DFACE
  5
1D91
  8
CRANE_TURRET
 10
-0.1799999999999999
 20
-1.1299999999999999
 30
0.28
 11
-0.08
 21
-1.1299999999999999
 31
0.28
 12
-0.08
 22
-1.1299999999999999
 32
0.3999999999999999
 13
-0.1799999999999999
 23
-1.1299999999999999
 33
0.3999999999999999
  0
3DFACE
  5
1D93
  8
CRANE_TURRET
 10
-0.1799999999999999
 20
-1.0600000000000001
 30
0.2300000000000002
 11
-0.08
 21
-1.0600000000000001
 31
0.2300000000000002
 12
-0.08
 22
-1.1299999999999999
 32
0.28
 13
-0.1799999999999999
 23
-1.1299999999999999
 33
0.28
  0
3DFACE
  5
1D94
  8
CRANE_TURRET
 10
-0.1800000000000002
 20
-0.9238795325112864
 30
0.2300000000000002
 11
-0.08
 21
-0.9238795325112864
 31
0.2300000000000002
 12
-0.08
 22
-1.0600000000000001
 32
0.2300000000000002
 13
-0.1799999999999999
 23
-1.0600000000000001
 33
0.2300000000000002
  0
3DFACE
  5
1D97
  8
CRANE_TURRET
 10
-0.1799999999999999
 20
-1.0600000000000001
 30
0.2300000000000002
 11
-0.1800000000000002
 21
-1.0600000000000001
 31
0.4500000000000002
 12
-0.1800000000000002
 22
-0.9238795325112864
 32
0.4500000000000002
 13
-0.1800000000000002
 23
-0.9238795325112864
 33
0.2300000000000002
  0
3DFACE
  5
1D98
  8
CRANE_TURRET
 10
-0.1799999999999999
 20
-1.1299999999999999
 30
0.28
 11
-0.1799999999999999
 21
-1.1299999999999999
 31
0.3999999999999999
 12
-0.1799999999999999
 22
-1.0600000000000001
 32
0.4500000000000002
 13
-0.1799999999999999
 23
-1.0600000000000001
 33
0.2300000000000002
  0
3DFACE
  5
1D99
  8
CRANE_TURRET
 10
-0.0799999999999998
 20
-1.0600000000000001
 30
0.4500000000000002
 11
-0.08
 21
-1.0600000000000001
 31
0.2300000000000002
 12
-0.08
 22
-0.9238795325112864
 32
0.2300000000000002
 13
-0.08
 23
-0.9238795325112864
 33
0.4500000000000002
  0
3DFACE
  5
1D9A
  8
CRANE_TURRET
 10
-0.08
 20
-1.1299999999999999
 30
0.3999999999999999
 11
-0.08
 21
-1.1299999999999999
 31
0.28
 12
-0.08
 22
-1.0600000000000001
 32
0.2300000000000002
 13
-0.08
 23
-1.0600000000000001
 33
0.4500000000000002
  0
3DFACE
  5
1D9B
  8
CRANE_TURRET
 10
0.18
 20
-1.1299999999999999
 30
0.3999999999999999
 11
0.18
 21
-1.1299999999999999
 31
0.28
 12
0.18
 22
-1.0600000000000001
 32
0.2300000000000002
 13
0.18
 23
-1.0600000000000001
 33
0.4500000000000002
  0
3DFACE
  5
1D9C
  8
CRANE_TURRET
 10
0.1800000000000002
 20
-1.0600000000000001
 30
0.4500000000000002
 11
0.18
 21
-1.0600000000000001
 31
0.2300000000000002
 12
0.18
 22
-0.9238795325112864
 32
0.2300000000000002
 13
0.18
 23
-0.9238795325112864
 33
0.4500000000000002
  0
3DFACE
  5
1D9D
  8
CRANE_TURRET
 10
0.0800000000000001
 20
-1.1299999999999999
 30
0.28
 11
0.0800000000000001
 21
-1.1299999999999999
 31
0.3999999999999999
 12
0.0800000000000001
 22
-1.0600000000000001
 32
0.4500000000000002
 13
0.0800000000000001
 23
-1.0600000000000001
 33
0.2300000000000002
  0
3DFACE
  5
1D9E
  8
CRANE_TURRET
 10
0.0800000000000001
 20
-1.0600000000000001
 30
0.2300000000000002
 11
0.0799999999999999
 21
-1.0600000000000001
 31
0.4500000000000002
 12
0.0799999999999999
 22
-0.9238795325112864
 32
0.4500000000000002
 13
0.0799999999999999
 23
-0.9238795325112864
 33
0.2300000000000002
  0
3DFACE
  5
1D9F
  8
CRANE_TURRET
 10
0.0799999999999999
 20
-0.9238795325112864
 30
0.2300000000000002
 11
0.18
 21
-0.9238795325112864
 31
0.2300000000000002
 12
0.18
 22
-1.0600000000000001
 32
0.2300000000000002
 13
0.0800000000000001
 23
-1.0600000000000001
 33
0.2300000000000002
  0
3DFACE
  5
1DA0
  8
CRANE_TURRET
 10
0.0800000000000001
 20
-1.0600000000000001
 30
0.4500000000000002
 11
0.18
 21
-1.0600000000000001
 31
0.4500000000000002
 12
0.18
 22
-0.9238795325112864
 32
0.4500000000000002
 13
0.0799999999999999
 23
-0.9238795325112864
 33
0.4500000000000002
  0
3DFACE
  5
1DA1
  8
CRANE_TURRET
 10
0.0800000000000001
 20
-1.0600000000000001
 30
0.2300000000000002
 11
0.18
 21
-1.0600000000000001
 31
0.2300000000000002
 12
0.18
 22
-1.1299999999999999
 32
0.28
 13
0.0800000000000001
 23
-1.1299999999999999
 33
0.28
  0
3DFACE
  5
1DA2
  8
CRANE_TURRET
 10
0.0800000000000001
 20
-1.1299999999999999
 30
0.28
 11
0.18
 21
-1.1299999999999999
 31
0.28
 12
0.18
 22
-1.1299999999999999
 32
0.3999999999999999
 13
0.0800000000000001
 23
-1.1299999999999999
 33
0.3999999999999999
  0
3DFACE
  5
1DA3
  8
CRANE_TURRET
 10
0.0800000000000001
 20
-1.1299999999999999
 30
0.3999999999999999
 11
0.18
 21
-1.1299999999999999
 31
0.3999999999999999
 12
0.18
 22
-1.0600000000000001
 32
0.4500000000000002
 13
0.0800000000000001
 23
-1.0600000000000001
 33
0.4500000000000002
  0
3DFACE
  5
1DA7
  8
CRANE_TURRET
 10
-0.3999999999999999
 20
0.14
 30
1.149999999999999
 11
-0.3
 21
0.14
 31
1.149999999999999
 12
-0.3
 22
0.23
 32
1.149999999999999
 13
-0.4000000000000002
 23
0.23
 33
1.149999999999999
  0
3DFACE
  5
1DA9
  8
CRANE_TURRET
 10
-0.3999999999999999
 20
-0.07
 30
0.75
 11
-0.3
 21
-0.07
 31
0.75
 12
-0.3
 22
0.14
 32
1.149999999999999
 13
-0.4000000000000002
 23
0.14
 33
1.149999999999999
  0
3DFACE
  5
1DAA
  8
CRANE_TURRET
 10
-0.3999999999999999
 20
0.23
 30
1.149999999999999
 11
-0.3
 21
0.23
 31
1.149999999999999
 12
-0.3
 22
0.28
 32
1.1100000000000001
 13
-0.4000000000000002
 23
0.28
 33
1.1100000000000001
  0
3DFACE
  5
1DAB
  8
CRANE_TURRET
 10
-0.3999999999999999
 20
0.28
 30
1.1100000000000001
 11
-0.3
 21
0.28
 31
1.1100000000000001
 12
-0.3
 22
0.28
 32
0.98
 13
-0.4000000000000002
 23
0.28
 33
0.98
  0
3DFACE
  5
1DAC
  8
CRANE_TURRET
 10
-0.3999999999999999
 20
0.28
 30
0.98
 11
-0.3
 21
0.28
 31
0.98
 12
-0.3
 22
0.22
 32
0.75
 13
-0.4000000000000002
 23
0.22
 33
0.75
  0
3DFACE
  5
1DAD
  8
CRANE_TURRET
 10
-0.4000000000000002
 20
0.14
 30
1.149999999999999
 11
-0.4000000000000002
 21
0.28
 31
0.98
 12
-0.4000000000000002
 22
0.22
 32
0.75
 13
-0.3999999999999999
 23
-0.07
 33
0.75
  0
3DFACE
  5
1DAE
  8
CRANE_TURRET
 10
-0.3999999999999999
 20
0.23
 30
1.149999999999999
 11
-0.3999999999999999
 21
0.28
 31
1.1100000000000001
 12
-0.3999999999999999
 22
0.28
 32
0.98
 13
-0.4000000000000002
 23
0.14
 33
1.149999999999999
  0
3DFACE
  5
1DAF
  8
CRANE_TURRET
 10
-0.3
 20
-0.07
 30
0.75
 11
-0.3
 21
0.22
 31
0.75
 12
-0.3
 22
0.28
 32
0.98
 13
-0.3000000000000002
 23
0.14
 33
1.149999999999999
  0
3DFACE
  5
1DB0
  8
CRANE_TURRET
 10
-0.2999999999999998
 20
0.23
 30
1.149999999999999
 11
-0.3
 21
0.14
 31
1.149999999999999
 12
-0.3
 22
0.28
 32
0.98
 13
-0.3
 23
0.28
 33
1.1100000000000001
  0
3DFACE
  5
1DB1
  8
CRANE_TURRET
 10
0.4000000000000002
 20
0.23
 30
1.149999999999999
 11
0.4
 21
0.14
 31
1.149999999999999
 12
0.4
 22
0.28
 32
0.98
 13
0.4
 23
0.28
 33
1.1100000000000001
  0
3DFACE
  5
1DB2
  8
CRANE_TURRET
 10
0.4
 20
-0.07
 30
0.75
 11
0.4
 21
0.22
 31
0.75
 12
0.4
 22
0.28
 32
0.98
 13
0.3999999999999997
 23
0.14
 33
1.149999999999999
  0
3DFACE
  5
1DB3
  8
CRANE_TURRET
 10
0.3
 20
0.23
 30
1.149999999999999
 11
0.3
 21
0.28
 31
1.1100000000000001
 12
0.3
 22
0.28
 32
0.98
 13
0.2999999999999998
 23
0.14
 33
1.149999999999999
  0
3DFACE
  5
1DB4
  8
CRANE_TURRET
 10
0.2999999999999998
 20
0.14
 30
1.149999999999999
 11
0.2999999999999998
 21
0.28
 31
0.98
 12
0.2999999999999998
 22
0.22
 32
0.75
 13
0.3
 23
-0.07
 33
0.75
  0
3DFACE
  5
1DB5
  8
CRANE_TURRET
 10
0.3
 20
-0.07
 30
0.75
 11
0.4
 21
-0.07
 31
0.75
 12
0.4
 22
0.14
 32
1.149999999999999
 13
0.2999999999999998
 23
0.14
 33
1.149999999999999
  0
3DFACE
  5
1DB6
  8
CRANE_TURRET
 10
0.3
 20
0.23
 30
1.149999999999999
 11
0.4
 21
0.23
 31
1.149999999999999
 12
0.4
 22
0.28
 32
1.1100000000000001
 13
0.2999999999999998
 23
0.28
 33
1.1100000000000001
  0
3DFACE
  5
1DB7
  8
CRANE_TURRET
 10
0.3
 20
0.28
 30
0.98
 11
0.4
 21
0.28
 31
0.98
 12
0.4
 22
0.22
 32
0.75
 13
0.2999999999999998
 23
0.22
 33
0.75
  0
3DFACE
  5
1DB8
  8
CRANE_TURRET
 10
0.3
 20
0.28
 30
1.1100000000000001
 11
0.4
 21
0.28
 31
1.1100000000000001
 12
0.4
 22
0.28
 32
0.98
 13
0.2999999999999998
 23
0.28
 33
0.98
  0
3DFACE
  5
1DB9
  8
CRANE_TURRET
 10
0.3
 20
0.14
 30
1.149999999999999
 11
0.4
 21
0.14
 31
1.149999999999999
 12
0.4
 22
0.23
 32
1.149999999999999
 13
0.2999999999999998
 23
0.23
 33
1.149999999999999
  0
3DFACE
  5
1DBA
  8
CRANE_TURRET
 10
0.0
 20
-0.01
 30
0.9199999999999999
 11
-0.2121320343559642
 21
-0.0978679656440357
 31
0.9199999999999999
 12
-0.3
 22
-0.31
 32
0.9199999999999999
 13
0.2121320343559642
 23
-0.0978679656440357
 33
0.9199999999999999
  0
3DFACE
  5
1DBB
  8
CRANE_TURRET
 10
0.2121320343559643
 20
-0.0978679656440357
 30
0.9199999999999999
 11
-0.3
 21
-0.31
 31
0.9199999999999999
 12
-0.2121320343559643
 22
-0.5221320343559643
 32
0.9199999999999999
 13
0.3
 23
-0.31
 33
0.9199999999999999
  0
3DFACE
  5
1DBC
  8
CRANE_TURRET
 10
0.3
 20
-0.31
 30
0.9199999999999999
 11
-0.2121320343559643
 21
-0.5221320343559642
 31
0.9199999999999999
 12
-0.0000000000000001
 22
-0.61
 32
0.9199999999999999
 13
0.2121320343559642
 23
-0.5221320343559643
 33
0.9199999999999999
  0
3DFACE
  5
1DBF
  8
CRANE_TURRET
 10
0.2
 20
0.4700000000000001
 30
0.9500000000000001
 11
0.2999999999999999
 21
0.4700000000000001
 31
0.9500000000000001
 12
0.2999999999999999
 22
0.4700000000000001
 32
0.73
 13
0.1999999999999998
 23
0.4700000000000001
 33
0.73
  0
LINE
  5
1DD6
  8
CRANE_TURRET
 10
0.0
 20
0.35
 30
0.7700000000000001
 11
0.0
 21
0.35
 31
0.7700000000000001
210
-1.0
220
0.0
230
0.0
  0
3DFACE
  5
1DEB
  8
CRANE_TURRET
 10
0.2
 20
0.39
 30
1.03
 11
0.2999999999999999
 21
0.39
 31
1.03
 12
0.2999999999999999
 22
0.4700000000000001
 32
0.9500000000000001
 13
0.1999999999999998
 23
0.4700000000000001
 33
0.9500000000000001
  0
3DFACE
  5
1DEC
  8
CRANE_TURRET
 10
0.2
 20
0.33
 30
1.03
 11
0.2999999999999999
 21
0.33
 31
1.03
 12
0.2999999999999999
 22
0.39
 32
1.03
 13
0.1999999999999998
 23
0.39
 33
1.03
  0
3DFACE
  5
1DED
  8
CRANE_TURRET
 10
0.2
 20
0.2700000000000001
 30
0.9500000000000001
 11
0.2999999999999999
 21
0.2700000000000001
 31
0.9500000000000001
 12
0.2999999999999999
 22
0.33
 32
1.03
 13
0.1999999999999998
 23
0.33
 33
1.03
  0
3DFACE
  5
1DEE
  8
CRANE_TURRET
 10
0.2
 20
0.2700000000000001
 30
0.73
 11
0.2999999999999999
 21
0.2700000000000001
 31
0.73
 12
0.2999999999999999
 22
0.27
 32
0.9500000000000001
 13
0.1999999999999998
 23
0.27
 33
0.9500000000000001
  0
3DFACE
  5
1DEF
  8
CRANE_TURRET
 10
0.2999999999999999
 20
0.4700000000000001
 30
0.9500000000000001
 11
0.2999999999999999
 21
0.27
 31
0.9500000000000001
 12
0.2999999999999999
 22
0.2700000000000001
 32
0.73
 13
0.2999999999999997
 23
0.4700000000000001
 33
0.73
  0
3DFACE
  5
1DF0
  8
CRANE_TURRET
 10
0.2
 20
0.2700000000000001
 30
0.8031370849898475
 11
0.2
 21
0.4700000000000001
 31
0.8197056274847716
 12
0.2
 22
0.4700000000000001
 32
0.73
 13
0.2
 23
0.2700000000000001
 33
0.73
  0
3DFACE
  5
1DF2
  8
CRANE_TURRET
 10
0.2999999999999999
 20
0.39
 30
1.03
 11
0.2999999999999999
 21
0.33
 31
1.03
 12
0.3000000000000002
 22
0.2700000000000001
 32
0.9500000000000001
 13
0.2999999999999999
 23
0.4700000000000001
 33
0.9500000000000001
  0
3DFACE
  5
1DF4
  8
CRANE_TURRET
 10
-0.3000000000000002
 20
0.33
 30
1.03
 11
-0.3
 21
0.39
 31
1.03
 12
-0.3
 22
0.4700000000000001
 32
0.9500000000000001
 13
-0.3
 23
0.2700000000000001
 33
0.9500000000000001
  0
3DFACE
  5
1DF5
  8
CRANE_TURRET
 10
-0.3
 20
0.2700000000000001
 30
0.9500000000000001
 11
-0.3
 21
0.4700000000000001
 31
0.9500000000000001
 12
-0.3
 22
0.4700000000000001
 32
0.73
 13
-0.3
 23
0.2700000000000001
 33
0.73
  0
3DFACE
  5
1DF6
  8
CRANE_TURRET
 10
-0.2000000000000001
 20
0.4700000000000001
 30
0.8197056274847716
 11
-0.2
 21
0.2700000000000001
 31
0.8031370849898475
 12
-0.2000000000000001
 22
0.2700000000000001
 32
0.73
 13
-0.2000000000000003
 23
0.4700000000000001
 33
0.73
  0
3DFACE
  5
1DF7
  8
CRANE_TURRET
 10
-0.3
 20
0.2700000000000001
 30
0.73
 11
-0.2000000000000001
 21
0.2700000000000001
 31
0.73
 12
-0.2000000000000001
 22
0.27
 32
0.9500000000000001
 13
-0.3000000000000002
 23
0.27
 33
0.9500000000000001
  0
3DFACE
  5
1DF8
  8
CRANE_TURRET
 10
-0.3
 20
0.2700000000000001
 30
0.9500000000000001
 11
-0.2000000000000001
 21
0.2700000000000001
 31
0.9500000000000001
 12
-0.2000000000000001
 22
0.33
 32
1.03
 13
-0.3000000000000002
 23
0.33
 33
1.03
  0
3DFACE
  5
1DF9
  8
CRANE_TURRET
 10
-0.3
 20
0.33
 30
1.03
 11
-0.2000000000000001
 21
0.33
 31
1.03
 12
-0.2000000000000001
 22
0.39
 32
1.03
 13
-0.3000000000000002
 23
0.39
 33
1.03
  0
3DFACE
  5
1DFA
  8
CRANE_TURRET
 10
-0.3
 20
0.39
 30
1.03
 11
-0.2000000000000001
 21
0.39
 31
1.03
 12
-0.2000000000000001
 22
0.4700000000000001
 32
0.9500000000000001
 13
-0.3000000000000002
 23
0.4700000000000001
 33
0.9500000000000001
  0
3DFACE
  5
1DFB
  8
CRANE_TURRET
 10
-0.3
 20
0.4700000000000001
 30
0.9500000000000001
 11
-0.2000000000000001
 21
0.4700000000000001
 31
0.9500000000000001
 12
-0.2000000000000001
 22
0.4700000000000001
 32
0.73
 13
-0.3000000000000002
 23
0.4700000000000001
 33
0.73
  0
3DFACE
  5
1DFC
  8
CRANE_TURRET
 10
0.2
 20
0.17
 30
0.9500000000000001
 11
0.2
 21
0.2227207793864215
 31
1.0772792206135779
 12
-0.2
 22
0.2227207793864215
 32
1.0772792206135779
 13
-0.2
 23
0.17
 33
0.9500000000000001
  0
3DFACE
  5
1DFD
  8
CRANE_TURRET
 10
0.2
 20
0.2227207793864215
 30
1.0772792206135779
 11
0.2
 21
0.35
 31
1.129999999999999
 12
-0.2
 22
0.35
 32
1.129999999999999
 13
-0.2
 23
0.2227207793864215
 33
1.0772792206135779
  0
3DFACE
  5
1DFE
  8
CRANE_TURRET
 10
0.2
 20
0.35
 30
1.129999999999999
 11
0.2
 21
0.4772792206135786
 31
1.0772792206135779
 12
-0.2
 22
0.4772792206135786
 32
1.0772792206135779
 13
-0.2
 23
0.35
 33
1.129999999999999
  0
3DFACE
  5
1DFF
  8
CRANE_TURRET
 10
0.2
 20
0.4772792206135786
 30
1.0772792206135779
 11
0.2
 21
0.5300000000000001
 31
0.9500000000000001
 12
-0.2
 22
0.5300000000000001
 32
0.9500000000000001
 13
-0.2
 23
0.4772792206135786
 33
1.0772792206135779
  0
3DFACE
  5
1E00
  8
CRANE_TURRET
 10
0.2
 20
0.5300000000000001
 30
0.9500000000000001
 11
0.2
 21
0.4772792206135786
 31
0.8227207793864215
 12
-0.2
 22
0.4772792206135786
 32
0.8227207793864215
 13
-0.2
 23
0.5300000000000001
 33
0.9500000000000001
  0
3DFACE
  5
1E01
  8
CRANE_TURRET
 10
0.2
 20
0.4772792206135786
 30
0.8227207793864215
 11
0.2
 21
0.35
 31
0.7700000000000001
 12
-0.2
 22
0.35
 32
0.7700000000000001
 13
-0.2
 23
0.4772792206135786
 33
0.8227207793864215
  0
3DFACE
  5
1E02
  8
CRANE_TURRET
 10
0.2
 20
0.35
 30
0.7700000000000001
 11
0.2
 21
0.2227207793864215
 31
0.8227207793864215
 12
-0.2
 22
0.2227207793864215
 32
0.8227207793864215
 13
-0.2
 23
0.35
 33
0.7700000000000001
  0
3DFACE
  5
1E03
  8
CRANE_TURRET
 10
0.2
 20
0.2227207793864215
 30
0.8227207793864215
 11
0.2
 21
0.17
 31
0.9500000000000001
 12
-0.2
 22
0.17
 32
0.9500000000000001
 13
-0.2
 23
0.2227207793864215
 33
0.8227207793864215
  0
3DFACE
  5
1E04
  8
CRANE_TURRET
 10
0.2
 20
0.5300000000000001
 30
0.9500000000000001
 11
0.2
 21
0.4772792206135786
 31
1.0772792206135779
 12
0.2
 22
0.39
 32
1.03
 13
0.2
 23
0.4700000000000001
 33
0.9500000000000001
  0
3DFACE
  5
1E05
  8
CRANE_TURRET
 10
0.2
 20
0.4772792206135786
 30
0.8227207793864215
 11
0.2
 21
0.5300000000000001
 31
0.9500000000000001
 12
0.2
 22
0.4700000000000001
 32
0.9500000000000001
 13
0.2
 23
0.4700000000000001
 33
0.8197056274847716
  0
3DFACE
  5
1E06
  8
CRANE_TURRET
 10
0.2
 20
0.2700000000000002
 30
0.8031370849898475
 11
0.1999999999999998
 21
0.27
 31
0.9500000000000001
 12
0.2
 22
0.1700000000000001
 32
0.9500000000000001
 13
0.2
 23
0.2227207793864215
 33
0.8227207793864215
  0
3DFACE
  5
1E07
  8
CRANE_TURRET
 10
-0.2
 20
0.2227207793864215
 30
0.8227207793864215
 11
-0.2
 21
0.17
 31
0.9500000000000001
 12
-0.2
 22
0.2227207793864215
 32
1.0772792206135779
 13
-0.2
 23
0.2700000000000002
 33
0.8031370849898475
  0
3DFACE
  5
1E08
  8
CRANE_TURRET
 10
-0.2
 20
0.2227207793864215
 30
1.0772792206135779
 11
-0.2
 21
0.35
 31
1.129999999999999
 12
-0.2000000000000001
 22
0.33
 32
1.03
 13
-0.2000000000000001
 23
0.2700000000000001
 33
0.9500000000000001
  0
3DFACE
  5
1E09
  8
CRANE_TURRET
 10
-0.2
 20
0.2700000000000001
 30
0.8031370849898484
 11
-0.2
 21
0.2227207793864215
 31
1.0772792206135779
 12
-0.2
 22
0.2700000000000001
 32
0.9500000000000001
 13
-0.2
 23
0.2700000000000001
 33
0.8031370849898484
  0
3DFACE
  5
1E0A
  8
CRANE_TURRET
 10
-0.2
 20
0.35
 30
1.129999999999999
 11
-0.2
 21
0.4772792206135786
 31
1.0772792206135779
 12
-0.2000000000000001
 22
0.39
 32
1.03
 13
-0.2000000000000001
 23
0.33
 33
1.03
  0
3DFACE
  5
1E0B
  8
CRANE_TURRET
 10
-0.2
 20
0.4772792206135786
 30
1.0772792206135779
 11
-0.2
 21
0.5300000000000001
 31
0.9500000000000001
 12
-0.2000000000000001
 22
0.4700000000000001
 32
0.9500000000000001
 13
-0.2000000000000001
 23
0.39
 33
1.03
  0
3DFACE
  5
1E0C
  8
CRANE_TURRET
 10
-0.2
 20
0.5300000000000001
 30
0.9500000000000001
 11
-0.2
 21
0.4772792206135786
 31
0.8227207793864215
 12
-0.2000000000000001
 22
0.4700000000000001
 32
0.8197056274847716
 13
-0.2000000000000001
 23
0.4700000000000001
 33
0.9500000000000001
  0
3DFACE
  5
1E0D
  8
CRANE_TURRET
 10
0.2
 20
0.4772792206135786
 30
1.0772792206135779
 11
0.2
 21
0.35
 31
1.129999999999999
 12
0.1999999999999998
 22
0.33
 32
1.03
 13
0.2000000000000002
 23
0.39
 33
1.03
  0
3DFACE
  5
1E0E
  8
CRANE_TURRET
 10
0.2
 20
0.35
 30
1.129999999999999
 11
0.2
 21
0.2227207793864215
 31
1.0772792206135779
 12
0.1999999999999998
 22
0.27
 32
0.9500000000000001
 13
0.2000000000000002
 23
0.33
 33
1.03
  0
3DFACE
  5
1E0F
  8
CRANE_TURRET
 10
0.1999999999999998
 20
0.27
 30
0.9500000000000001
 11
0.2
 21
0.2227207793864215
 31
1.0772792206135779
 12
0.2
 22
0.2227207793864215
 32
1.0772792206135779
 13
0.2
 23
0.1700000000000001
 33
0.9500000000000001
  0
3DFACE
  5
1E11
  8
CRANE_TURRET
 10
-0.4
 20
1.3500000000000001
 30
0.67
 11
-0.4
 21
0.5999999999999992
 31
0.67
 12
-0.4
 22
0.5999999999999992
 32
0.8400000000000002
 13
-0.4
 23
1.3500000000000001
 33
0.8400000000000002
  0
3DFACE
  5
1E12
  8
CRANE_TURRET
 10
0.4
 20
0.5999999999999992
 30
0.8400000000000002
 11
0.4
 21
0.5999999999999992
 31
0.67
 12
0.4
 22
1.3500000000000001
 32
0.67
 13
0.4
 23
1.3500000000000001
 33
0.8400000000000002
  0
3DFACE
  5
1E13
  8
CRANE_TURRET
 10
-0.4
 20
0.5999999999999992
 30
0.8400000000000002
 11
-0.4
 21
0.5999999999999992
 31
0.67
 12
0.4
 22
0.5999999999999992
 32
0.67
 13
0.4
 23
0.5999999999999992
 33
0.8400000000000002
  0
3DFACE
  5
1E14
  8
CRANE_TURRET
 10
0.4
 20
1.3500000000000001
 30
0.8400000000000002
 11
0.4
 21
1.3500000000000001
 31
0.67
 12
-0.4
 22
1.3500000000000001
 32
0.67
 13
-0.4
 23
1.3500000000000001
 33
0.8400000000000002
  0
3DFACE
  5
1E15
  8
CRANE_TURRET
 10
0.4
 20
1.3500000000000001
 30
0.67
 11
0.4
 21
0.5999999999999992
 31
0.67
 12
-0.4
 22
0.5999999999999992
 32
0.67
 13
-0.4
 23
1.3500000000000001
 33
0.67
  0
3DFACE
  5
1E16
  8
CRANE_TURRET
 10
-0.4
 20
1.3500000000000001
 30
0.8400000000000002
 11
-0.4
 21
0.5999999999999992
 31
0.8400000000000002
 12
0.4
 22
0.5999999999999992
 32
0.8400000000000002
 13
0.4
 23
1.3500000000000001
 33
0.8400000000000002
  0
3DFACE
  5
1E1C
  8
CRANE_TURRET
 10
0.71
 20
0.7
 30
0.2400000000000002
 11
0.71
 21
0.7
 31
0.2000000000000002
 12
0.71
 22
1.4199999999999999
 32
0.2000000000000002
 13
0.71
 23
1.4199999999999999
 33
0.2400000000000002
  0
3DFACE
  5
1E1D
  8
CRANE_TURRET
 10
0.71
 20
1.4199999999999999
 30
0.2400000000000002
 11
0.71
 21
1.4199999999999999
 31
0.2000000000000002
 12
-0.71
 22
1.4199999999999999
 32
0.2000000000000002
 13
-0.71
 23
1.4199999999999999
 33
0.2400000000000002
  0
3DFACE
  5
1E1E
  8
CRANE_TURRET
 10
-0.71
 20
1.4199999999999999
 30
0.2000000000000002
 11
-0.71
 21
0.7
 31
0.2000000000000002
 12
-0.71
 22
0.7
 32
0.2400000000000002
 13
-0.71
 23
1.4199999999999999
 33
0.2400000000000002
  0
3DFACE
  5
1E1F
  8
CRANE_TURRET
 10
-0.71
 20
1.4199999999999999
 30
0.2400000000000002
 11
0.0
 21
1.0
 31
0.2400000000000002
 12
0.0000000000000001
 22
1.0
 32
0.2400000000000002
 13
0.71
 23
1.4199999999999999
 33
0.2400000000000002
  0
3DFACE
  5
1E21
  8
CRANE_TURRET
 10
0.71
 20
0.7
 30
0.2400000000000002
 11
0.3826834323650898
 21
0.9238795325112867
 31
0.2400000000000002
 12
0.3826834323650904
 22
0.9238795325112862
 32
0.6200000000000001
 13
0.71
 23
0.7
 33
0.6200000000000001
  0
3DFACE
  5
1E22
  8
CRANE_TURRET
 10
-0.3826834323650897
 20
0.9238795325112867
 30
0.2400000000000002
 11
-0.71
 21
0.7
 31
0.2400000000000002
 12
-0.71
 22
0.7
 32
0.6200000000000001
 13
-0.38268343236509
 23
0.9238795325112864
 33
0.6200000000000001
  0
3DFACE
  5
1E23
  8
CRANE_TURRET
 10
0.0000000000000001
 20
1.0
 30
0.2400000000000002
 11
-0.3826834323650897
 21
0.9238795325112867
 31
0.2400000000000002
 12
-0.38268343236509
 22
0.9238795325112864
 32
0.6200000000000001
 13
0.0000000000000001
 23
1.0
 33
0.6200000000000001
  0
3DFACE
  5
1E24
  8
CRANE_TURRET
 10
0.3826834323650898
 20
0.9238795325112867
 30
0.2400000000000002
 11
0.0000000000000001
 21
1.0
 31
0.2400000000000002
 12
0.0000000000000001
 22
1.0
 32
0.6200000000000001
 13
0.3826834323650904
 23
0.9238795325112862
 33
0.6200000000000001
  0
3DFACE
  5
1E26
  8
CRANE_TURRET
 10
-0.71
 20
1.4199999999999999
 30
0.2400000000000002
 11
-0.3826834323650898
 21
0.9238795325112867
 31
0.2400000000000002
 12
-0.3826834323650898
 22
0.9238795325112867
 32
0.2400000000000002
 13
0.0000000000000001
 23
1.0
 33
0.2400000000000002
  0
3DFACE
  5
1E27
  8
CRANE_TURRET
 10
-0.71
 20
1.4199999999999999
 30
0.2400000000000002
 11
-0.7100000000000001
 21
0.7
 31
0.2400000000000002
 12
-0.7100000000000001
 22
0.7
 32
0.2400000000000002
 13
-0.3826834323650897
 23
0.9238795325112867
 33
0.2400000000000002
  0
3DFACE
  5
1E28
  8
CRANE_TURRET
 10
0.0
 20
1.0
 30
0.2400000000000002
 11
0.3826834323650898
 21
0.9238795325112867
 31
0.2400000000000002
 12
0.3826834323650898
 22
0.9238795325112867
 32
0.2400000000000002
 13
0.71
 23
1.4199999999999999
 33
0.2400000000000002
  0
3DFACE
  5
1E29
  8
CRANE_TURRET
 10
0.3826834323650898
 20
0.9238795325112867
 30
0.2400000000000002
 11
0.71
 21
0.7
 31
0.2400000000000002
 12
0.71
 22
0.7
 32
0.2400000000000002
 13
0.71
 23
1.4199999999999999
 33
0.2400000000000002
  0
3DFACE
  5
1E52
  8
CRANE_TURRET
 10
0.36
 20
1.1299999999999999
 30
0.2400000000000002
 11
0.3277817459305202
 21
1.20778174593052
 31
0.2400000000000002
 12
0.3277817459305202
 22
1.20778174593052
 32
0.67
 13
0.36
 23
1.1299999999999999
 33
0.67
  0
3DFACE
  5
1E53
  8
CRANE_TURRET
 10
0.3277817459305202
 20
1.20778174593052
 30
0.2400000000000002
 11
0.25
 21
1.24
 31
0.2400000000000002
 12
0.25
 22
1.24
 32
0.67
 13
0.3277817459305202
 23
1.20778174593052
 33
0.67
  0
3DFACE
  5
1E54
  8
CRANE_TURRET
 10
0.25
 20
1.24
 30
0.2400000000000002
 11
0.1722182540694798
 21
1.20778174593052
 31
0.2400000000000002
 12
0.1722182540694798
 22
1.20778174593052
 32
0.67
 13
0.25
 23
1.24
 33
0.67
  0
3DFACE
  5
1E55
  8
CRANE_TURRET
 10
0.1722182540694798
 20
1.20778174593052
 30
0.2400000000000002
 11
0.14
 21
1.1299999999999999
 31
0.2400000000000002
 12
0.14
 22
1.1299999999999999
 32
0.67
 13
0.1722182540694798
 23
1.20778174593052
 33
0.67
  0
3DFACE
  5
1E56
  8
CRANE_TURRET
 10
0.14
 20
1.1299999999999999
 30
0.2400000000000002
 11
0.1722182540694798
 21
1.0522182540694791
 31
0.2400000000000002
 12
0.1722182540694798
 22
1.0522182540694791
 32
0.67
 13
0.14
 23
1.1299999999999999
 33
0.67
  0
3DFACE
  5
1E57
  8
CRANE_TURRET
 10
0.1722182540694798
 20
1.0522182540694791
 30
0.2400000000000002
 11
0.25
 21
1.02
 31
0.2400000000000002
 12
0.25
 22
1.02
 32
0.67
 13
0.1722182540694798
 23
1.0522182540694791
 33
0.67
  0
3DFACE
  5
1E58
  8
CRANE_TURRET
 10
0.25
 20
1.02
 30
0.2400000000000002
 11
0.3277817459305202
 21
1.0522182540694791
 31
0.2400000000000002
 12
0.3277817459305202
 22
1.0522182540694791
 32
0.67
 13
0.25
 23
1.02
 33
0.67
  0
3DFACE
  5
1E59
  8
CRANE_TURRET
 10
0.3277817459305202
 20
1.0522182540694791
 30
0.2400000000000002
 11
0.36
 21
1.1299999999999999
 31
0.2400000000000002
 12
0.36
 22
1.1299999999999999
 32
0.67
 13
0.3277817459305202
 23
1.0522182540694791
 33
0.67
  0
3DFACE
  5
1E5A
  8
CRANE_TURRET
 10
-0.14
 20
1.1299999999999999
 30
0.2400000000000002
 11
-0.1722182540694798
 21
1.20778174593052
 31
0.2400000000000002
 12
-0.1722182540694798
 22
1.20778174593052
 32
0.67
 13
-0.14
 23
1.1299999999999999
 33
0.67
  0
3DFACE
  5
1E5B
  8
CRANE_TURRET
 10
-0.1722182540694798
 20
1.20778174593052
 30
0.2400000000000002
 11
-0.25
 21
1.24
 31
0.2400000000000002
 12
-0.25
 22
1.24
 32
0.67
 13
-0.1722182540694798
 23
1.20778174593052
 33
0.67
  0
3DFACE
  5
1E5C
  8
CRANE_TURRET
 10
-0.25
 20
1.24
 30
0.2400000000000002
 11
-0.3277817459305202
 21
1.20778174593052
 31
0.2400000000000002
 12
-0.3277817459305202
 22
1.20778174593052
 32
0.67
 13
-0.25
 23
1.24
 33
0.67
  0
3DFACE
  5
1E5D
  8
CRANE_TURRET
 10
-0.3277817459305202
 20
1.20778174593052
 30
0.2400000000000002
 11
-0.36
 21
1.1299999999999999
 31
0.2400000000000002
 12
-0.36
 22
1.1299999999999999
 32
0.67
 13
-0.3277817459305202
 23
1.20778174593052
 33
0.67
  0
3DFACE
  5
1E5E
  8
CRANE_TURRET
 10
-0.36
 20
1.1299999999999999
 30
0.2400000000000002
 11
-0.3277817459305202
 21
1.0522182540694791
 31
0.2400000000000002
 12
-0.3277817459305202
 22
1.0522182540694791
 32
0.67
 13
-0.36
 23
1.1299999999999999
 33
0.67
  0
3DFACE
  5
1E5F
  8
CRANE_TURRET
 10
-0.3277817459305202
 20
1.0522182540694791
 30
0.2400000000000002
 11
-0.25
 21
1.02
 31
0.2400000000000002
 12
-0.25
 22
1.02
 32
0.67
 13
-0.3277817459305202
 23
1.0522182540694791
 33
0.67
  0
3DFACE
  5
1E60
  8
CRANE_TURRET
 10
-0.25
 20
1.02
 30
0.2400000000000002
 11
-0.1722182540694798
 21
1.0522182540694791
 31
0.2400000000000002
 12
-0.1722182540694798
 22
1.0522182540694791
 32
0.67
 13
-0.25
 23
1.02
 33
0.67
  0
3DFACE
  5
1E61
  8
CRANE_TURRET
 10
-0.1722182540694798
 20
1.0522182540694791
 30
0.2400000000000002
 11
-0.14
 21
1.1299999999999999
 31
0.2400000000000002
 12
-0.14
 22
1.1299999999999999
 32
0.67
 13
-0.1722182540694798
 23
1.0522182540694791
 33
0.67
  0
3DFACE
  5
1FFC
  8
CRANE_TURRET
 10
-1.4399999999999991
 20
0.4000000000000001
 30
0.2000000000000002
 11
-1.4399999999999991
 21
-0.4000000000000001
 31
0.2000000000000002
 12
-1.4399999999999991
 22
-0.4000000000000001
 32
0.2400000000000004
 13
-1.4399999999999991
 23
0.4000000000000001
 33
0.2400000000000004
  0
3DFACE
  5
1FFE
  8
CRANE_TURRET
 10
-1.4399999999999991
 20
-0.4000000000000001
 30
0.2400000000000004
 11
-1.4399999999999991
 21
-0.4000000000000001
 31
0.2000000000000002
 12
-1.27
 22
-0.4999999999999993
 32
0.2000000000000002
 13
-1.27
 23
-0.4999999999999993
 33
0.2400000000000004
  0
3DFACE
  5
1FFF
  8
CRANE_TURRET
 10
-1.27
 20
0.5000000000000009
 30
0.2400000000000004
 11
-1.27
 21
0.5000000000000009
 31
0.2000000000000002
 12
-1.4399999999999991
 22
0.4000000000000001
 32
0.2000000000000002
 13
-1.4399999999999991
 23
0.4000000000000001
 33
0.2400000000000004
  0
3DFACE
  5
2000
  8
CRANE_TURRET
 10
-1.27
 20
0.5000000000000009
 30
0.2000000000000002
 11
-1.27
 21
-0.4999999999999993
 31
0.2000000000000002
 12
-1.4399999999999991
 22
-0.4000000000000001
 32
0.2000000000000002
 13
-1.4399999999999991
 23
0.4000000000000001
 33
0.2000000000000002
  0
3DFACE
  5
2001
  8
CRANE_TURRET
 10
-1.4399999999999991
 20
0.4000000000000001
 30
0.2400000000000004
 11
-1.4399999999999991
 21
-0.4000000000000001
 31
0.2400000000000004
 12
-1.27
 22
-0.4999999999999993
 32
0.2400000000000004
 13
-1.27
 23
0.5000000000000009
 33
0.2400000000000004
  0
3DFACE
  5
2003
  8
CRANE_TURRET
 10
-1.27
 20
0.5000000000000009
 30
0.2400000000000004
 11
-1.27
 21
-0.4999999999999993
 31
0.2400000000000004
 12
-1.0
 22
-0.4999999999999993
 32
0.2400000000000004
 13
-1.0
 23
0.5000000000000009
 33
0.2400000000000004
  0
3DFACE
  5
2004
  8
CRANE_TURRET
 10
-1.0
 20
0.5000000000000009
 30
0.2000000000000002
 11
-1.0
 21
-0.4999999999999993
 31
0.2000000000000002
 12
-1.27
 22
-0.4999999999999993
 32
0.2000000000000002
 13
-1.27
 23
0.5000000000000009
 33
0.2000000000000002
  0
3DFACE
  5
2006
  8
CRANE_TURRET
 10
-1.27
 20
-0.4999999999999993
 30
0.2400000000000004
 11
-1.27
 21
-0.4999999999999993
 31
0.2000000000000002
 12
-1.0
 22
-0.4999999999999993
 32
0.2000000000000002
 13
-1.0
 23
-0.4999999999999993
 33
0.2400000000000004
  0
3DFACE
  5
2008
  8
CRANE_TURRET
 10
-1.0
 20
0.5000000000000009
 30
0.2400000000000004
 11
-1.0
 21
0.5000000000000009
 31
0.2000000000000002
 12
-1.27
 22
0.5000000000000009
 32
0.2000000000000002
 13
-1.27
 23
0.5000000000000009
 33
0.2400000000000004
  0
3DFACE
  5
200A
  8
CRANE_TURRET
 10
-1.0
 20
0.5000000000000009
 30
0.2000000000000002
 11
-0.9300000000000001
 21
0.39
 31
0.2000000000000002
 12
-1.0
 22
0.0
 32
0.2000000000000002
 13
-1.0
 23
0.5000000000000009
 33
0.2000000000000002
  0
3DFACE
  5
200B
  8
CRANE_TURRET
 10
-1.0
 20
0.0
 30
0.2400000000000004
 11
-1.0
 21
0.0
 31
0.2000000000000002
 12
-0.9300000000000001
 22
0.39
 32
0.2000000000000002
 13
-0.9300000000000001
 23
0.39
 33
0.2400000000000004
  0
3DFACE
  5
200C
  8
CRANE_TURRET
 10
-0.9300000000000001
 20
0.39
 30
0.2400000000000004
 11
-0.9300000000000001
 21
0.39
 31
0.2000000000000002
 12
-1.0
 22
0.5000000000000009
 32
0.2000000000000002
 13
-1.0
 23
0.5000000000000009
 33
0.2400000000000004
  0
3DFACE
  5
200F
  8
CRANE_TURRET
 10
-1.0
 20
0.5000000000000009
 30
0.2400000000000004
 11
-1.0
 21
0.0
 31
0.2400000000000004
 12
-0.9300000000000001
 22
0.39
 32
0.2400000000000004
 13
-1.0
 23
0.5000000000000009
 33
0.2400000000000004
  0
3DFACE
  5
2011
  8
CRANE_TURRET
 10
-1.0
 20
0.0
 30
0.2
 11
-1.0
 21
0.0
 31
0.2400000000000002
 12
-0.9300000000000001
 22
-0.39
 32
0.2400000000000002
 13
-0.9300000000000001
 23
-0.39
 33
0.2
  0
3DFACE
  5
2012
  8
CRANE_TURRET
 10
-0.9300000000000001
 20
-0.39
 30
0.2
 11
-0.9300000000000001
 21
-0.39
 31
0.2400000000000002
 12
-1.0
 22
-0.5000000000000009
 32
0.2400000000000002
 13
-1.0
 23
-0.5000000000000009
 33
0.2
  0
3DFACE
  5
2015
  8
CRANE_TURRET
 10
-1.0
 20
-0.5000000000000009
 30
0.2400000000000002
 11
-0.9300000000000001
 21
-0.39
 31
0.2400000000000002
 12
-1.0
 22
0.0
 32
0.2400000000000002
 13
-1.0
 23
-0.5000000000000009
 33
0.2400000000000002
  0
3DFACE
  5
2016
  8
CRANE_TURRET
 10
-1.0
 20
-0.5000000000000009
 30
0.2
 11
-1.0
 21
0.0
 31
0.2
 12
-0.9300000000000001
 22
-0.39
 32
0.2
 13
-1.0
 23
-0.5000000000000009
 33
0.2
  0
3DFACE
  5
201B
  8
CRANE_TURRET
 10
0.73
 20
-0.7200000000000011
 30
0.5700000000000003
 11
0.73
 21
-0.7200000000000011
 31
0.1300000000000003
 12
0.95
 22
-0.39
 32
0.1300000000000003
 13
0.95
 23
-0.39
 33
0.5700000000000003
  0
3DFACE
  5
201C
  8
CRANE_TURRET
 10
0.9300000000000001
 20
-0.3799999999999999
 30
0.5700000000000003
 11
0.71
 21
-0.7200000000000011
 31
0.5700000000000003
 12
0.73
 22
-0.7200000000000011
 32
0.5700000000000003
 13
0.95
 23
-0.39
 33
0.5700000000000003
  0
3DFACE
  5
201D
  8
CRANE_TURRET
 10
0.71
 20
-0.7200000000000011
 30
0.5700000000000003
 11
0.71
 21
-0.7200000000000011
 31
0.1300000000000003
 12
0.73
 22
-0.7200000000000011
 32
0.1300000000000003
 13
0.73
 23
-0.7200000000000011
 33
0.5700000000000003
  0
3DFACE
  5
201F
  8
CRANE_TURRET
 10
0.95
 20
-0.39
 30
0.1300000000000003
 11
0.73
 21
-0.7200000000000011
 31
0.1300000000000003
 12
0.71
 22
-0.7200000000000011
 32
0.1300000000000003
 13
0.9300000000000001
 23
-0.3799999999999999
 33
0.1300000000000003
  0
3DFACE
  5
2023
  8
CRANE_TURRET
 10
0.95
 20
-0.3900000000000011
 30
0.5700000000000003
 11
0.95
 21
-0.3900000000000011
 31
0.1300000000000003
 12
1.02
 22
0.0
 32
0.1300000000000003
 13
1.02
 23
0.0
 33
0.5700000000000003
  0
3DFACE
  5
2025
  8
CRANE_TURRET
 10
1.02
 20
0.0
 30
0.1300000000000003
 11
0.95
 21
-0.3900000000000011
 31
0.1300000000000003
 12
0.9300000000000001
 22
-0.38
 32
0.1300000000000003
 13
1.0
 23
0.0
 33
0.1300000000000003
  0
3DFACE
  5
2026
  8
CRANE_TURRET
 10
1.0
 20
0.0
 30
0.5700000000000003
 11
0.9300000000000001
 21
-0.38
 31
0.5700000000000003
 12
0.95
 22
-0.3900000000000011
 32
0.5700000000000003
 13
1.02
 23
0.0
 33
0.5700000000000003
  0
3DFACE
  5
2028
  8
CRANE_TURRET
 10
0.95
 20
0.3900000000000012
 30
0.1299999999999994
 11
0.95
 21
0.3900000000000012
 31
0.5699999999999994
 12
1.02
 22
0.0
 32
0.5699999999999994
 13
1.02
 23
0.0000000000000001
 33
0.1299999999999994
  0
3DFACE
  5
202C
  8
CRANE_TURRET
 10
1.02
 20
0.0
 30
0.5699999999999994
 11
0.95
 21
0.3900000000000012
 31
0.5699999999999994
 12
0.9300000000000001
 22
0.3800000000000001
 32
0.5699999999999994
 13
1.0
 23
0.0
 33
0.5699999999999994
  0
3DFACE
  5
202D
  8
CRANE_TURRET
 10
1.0
 20
0.0000000000000001
 30
0.1299999999999994
 11
0.9300000000000001
 21
0.3800000000000001
 31
0.1299999999999994
 12
0.95
 22
0.3900000000000012
 32
0.1299999999999994
 13
1.02
 23
0.0000000000000001
 33
0.1299999999999994
  0
3DFACE
  5
202E
  8
CRANE_TURRET
 10
0.73
 20
0.7200000000000011
 30
0.1299999999999994
 11
0.73
 21
0.7200000000000011
 31
0.5699999999999994
 12
0.95
 22
0.39
 32
0.5699999999999994
 13
0.95
 23
0.3900000000000001
 33
0.1299999999999994
  0
3DFACE
  5
202F
  8
CRANE_TURRET
 10
0.71
 20
0.7200000000000011
 30
0.1299999999999994
 11
0.71
 21
0.7200000000000011
 31
0.5699999999999994
 12
0.73
 22
0.7200000000000011
 32
0.5699999999999994
 13
0.73
 23
0.7200000000000011
 33
0.1299999999999994
  0
3DFACE
  5
2032
  8
CRANE_TURRET
 10
0.95
 20
0.39
 30
0.5699999999999994
 11
0.73
 21
0.7200000000000011
 31
0.5699999999999994
 12
0.71
 22
0.7200000000000011
 32
0.5699999999999994
 13
0.9300000000000001
 23
0.3799999999999999
 33
0.5699999999999994
  0
3DFACE
  5
2033
  8
CRANE_TURRET
 10
0.9300000000000001
 20
0.3800000000000001
 30
0.1299999999999994
 11
0.71
 21
0.7200000000000011
 31
0.1299999999999994
 12
0.73
 22
0.7200000000000011
 32
0.1299999999999994
 13
0.95
 23
0.3900000000000001
 33
0.1299999999999994
  0
VIEWPORT
  5
2E
 67
     1
  8
0
 10
144.7270812988281
 20
101.2295806407928
 30
0.0
 40
391.13550988316581
 41
222.15178063964839
 68
     2
 69
     1
1001
ACAD
1000
MVIEW
1002
{
1070
    16
1010
0.0
1020
0.0
1030
0.0
1010
0.0
1020
0.0
1030
1.0
1040
0.0
1040
222.15178063964839
1040
144.7270812988281
1040
101.2295806407928
1040
50.0
1040
0.0
1040
0.0
1070
     0
1070
   100
1070
     1
1070
     1
1070
     0
1070
     0
1070
     0
1070
     0
1040
0.0
1040
0.0
1040
0.0
1040
10.0
1040
10.0
1040
10.0
1040
10.0
1070
     0
1002
{
1002
}
1002
}
  0
VIEWPORT
  5
30
 67
     1
  8
0
 10
139.22375631332389
 20
100.8062499761581
 30
0.0
 40
222.75801010131829
 41
161.289999961853
 68
     1
 69
     2
1001
ACAD
1000
MVIEW
1002
{
1070
    16
1010
0.0
1020
0.0
1030
0.0
1010
0.0
1020
0.0
1030
1.0
1040
0.0
1040
307.49010134148989
1040
210.0
1040
148.5
1040
50.0
1040
0.0
1040
0.0
1070
     0
1070
   100
1070
     1
1070
     3
1070
     0
1070
     1
1070
     0
1070
     0
1040
0.0
1040
0.0
1040
0.0
1040
10.0
1040
10.0
1040
10.0
1040
10.0
1070
     0
1002
{
1002
}
1002
}
  0
ENDSEC
  0
EOF
