  0
SECTION
  2
HEADER
  9
$ACADVER
  1
AC1009
  9
$INSBASE
 10
0.0
 20
0.0
 30
0.0
  9
$EXTMIN
 10
-0.2149999999999999
 20
0.0
 30
-0.3099999999999997
  9
$EXTMAX
 10
0.2149999999999999
 20
1.3999999999999999
 30
0.3099999999999995
  9
$LIMMIN
 10
0.0
 20
0.0
  9
$LIMMAX
 10
420.0
 20
297.0
  9
$ORTHOMODE
 70
     1
  9
$REGENMODE
 70
     1
  9
$FILLMODE
 70
     1
  9
$QTEXTMODE
 70
     0
  9
$MIRRTEXT
 70
     1
  9
$DRAGMODE
 70
     2
  9
$LTSCALE
 40
1.0
  9
$OSMODE
 70
    35
  9
$ATTMODE
 70
     1
  9
$TEXTSIZE
 40
2.5
  9
$TRACEWID
 40
1.0
  9
$TEXTSTYLE
  7
STANDARD
  9
$CLAYER
  8
GUN
  9
$CELTYPE
  6
BYLAYER
  9
$CECOLOR
 62
   256
  9
$DIMSCALE
 40
1.0
  9
$DIMASZ
 40
2.5
  9
$DIMEXO
 40
0.625
  9
$DIMDLI
 40
3.75
  9
$DIMRND
 40
0.0
  9
$DIMDLE
 40
0.0
  9
$DIMEXE
 40
1.25
  9
$DIMTP
 40
0.0
  9
$DIMTM
 40
0.0
  9
$DIMTXT
 40
2.5
  9
$DIMCEN
 40
2.5
  9
$DIMTSZ
 40
0.0
  9
$DIMTOL
 70
     0
  9
$DIMLIM
 70
     0
  9
$DIMTIH
 70
     0
  9
$DIMTOH
 70
     0
  9
$DIMSE1
 70
     0
  9
$DIMSE2
 70
     0
  9
$DIMTAD
 70
     1
  9
$DIMZIN
 70
     8
  9
$DIMBLK
  1

  9
$DIMASO
 70
     1
  9
$DIMSHO
 70
     1
  9
$DIMPOST
  1

  9
$DIMAPOST
  1

  9
$DIMALT
 70
     0
  9
$DIMALTD
 70
     3
  9
$DIMALTF
 40
0.03937007874016
  9
$DIMLFAC
 40
1.0
  9
$DIMTOFL
 70
     1
  9
$DIMTVP
 40
0.0
  9
$DIMTIX
 70
     0
  9
$DIMSOXD
 70
     0
  9
$DIMSAH
 70
     0
  9
$DIMBLK1
  1

  9
$DIMBLK2
  1

  9
$DIMSTYLE
  2
ISO-25
  9
$DIMCLRD
 70
     0
  9
$DIMCLRE
 70
     0
  9
$DIMCLRT
 70
     0
  9
$DIMTFAC
 40
1.0
  9
$DIMGAP
 40
0.625
  9
$LUNITS
 70
     2
  9
$LUPREC
 70
     4
  9
$SKETCHINC
 40
1.0
  9
$FILLETRAD
 40
10.0
  9
$AUNITS
 70
     0
  9
$AUPREC
 70
     0
  9
$MENU
  1
.
  9
$ELEVATION
 40
0.0
  9
$PELEVATION
 40
0.0
  9
$THICKNESS
 40
0.0
  9
$LIMCHECK
 70
     0
  9
$BLIPMODE
 70
     0
  9
$CHAMFERA
 40
10.0
  9
$CHAMFERB
 40
10.0
  9
$SKPOLY
 70
     0
  9
$TDCREATE
 40
2456971.5935006831
  9
$TDUPDATE
 40
2456972.0252390848
  9
$TDINDWG
 40
0.3961250231
  9
$TDUSRTIMER
 40
0.3961250231
  9
$USRTIMER
 70
     1
  9
$ANGBASE
 50
0.0
  9
$ANGDIR
 70
     0
  9
$PDMODE
 70
     0
  9
$PDSIZE
 40
0.0
  9
$PLINEWID
 40
0.0
  9
$COORDS
 70
     1
  9
$SPLFRAME
 70
     0
  9
$SPLINETYPE
 70
     6
  9
$SPLINESEGS
 70
     8
  9
$ATTDIA
 70
     1
  9
$ATTREQ
 70
     1
  9
$HANDLING
 70
-16383
  9
$HANDSEED
  5
1A03
  9
$SURFTAB1
 70
     6
  9
$SURFTAB2
 70
     6
  9
$SURFTYPE
 70
     6
  9
$SURFU
 70
     6
  9
$SURFV
 70
     6
  9
$UCSNAME
  2

  9
$UCSORG
 10
0.0
 20
0.0
 30
0.0
  9
$UCSXDIR
 10
0.0
 20
-1.0
 30
0.0
  9
$UCSYDIR
 10
0.0
 20
0.0
 30
1.0
  9
$PUCSNAME
  2

  9
$PUCSORG
 10
0.0
 20
0.0
 30
0.0
  9
$PUCSXDIR
 10
1.0
 20
0.0
 30
0.0
  9
$PUCSYDIR
 10
0.0
 20
1.0
 30
0.0
  9
$USERI1
 70
     0
  9
$USERI2
 70
     0
  9
$USERI3
 70
     0
  9
$USERI4
 70
     0
  9
$USERI5
 70
     0
  9
$USERR1
 40
0.0
  9
$USERR2
 40
0.0
  9
$USERR3
 40
0.0
  9
$USERR4
 40
0.0
  9
$USERR5
 40
0.0
  9
$WORLDVIEW
 70
     1
  9
$SHADEDGE
 70
     3
  9
$SHADEDIF
 70
    70
  9
$TILEMODE
 70
     1
  9
$MAXACTVP
 70
    64
  9
$PLIMCHECK
 70
     0
  9
$PEXTMIN
 10
27.844751262664801
 20
20.161249995231621
 30
0.0
  9
$PEXTMAX
 10
250.60276136398309
 20
181.4512499570846
 30
0.0
  9
$PLIMMIN
 10
-3.757080078125
 20
-3.7570831775665279
  9
$PLIMMAX
 10
293.21124267578119
 20
206.21624445915219
  9
$UNITMODE
 70
     0
  9
$VISRETAIN
 70
     1
  9
$PLINEGEN
 70
     0
  9
$PSLTSCALE
 70
     1
  0
ENDSEC
  0
SECTION
  2
TABLES
  0
TABLE
  2
VPORT
 70
     2
  0
VPORT
  2
*ACTIVE
 70
     0
 10
0.0
 20
0.0
 11
1.0
 21
1.0
 12
-0.9438160596331769
 22
0.0397391387448624
 13
0.0
 23
0.0
 14
0.01
 24
0.01
 15
1.0
 25
1.0
 16
-1.0
 26
0.0
 36
0.0
 17
0.0
 27
0.0
 37
0.0
 40
1.774141589568597
 41
2.1728395061728389
 42
50.0
 43
0.0
 44
0.0
 50
0.0
 51
0.0
 71
     0
 72
   100
 73
     1
 74
     3
 75
     1
 76
     0
 77
     0
 78
     0
  0
ENDTAB
  0
TABLE
  2
LTYPE
 70
     1
  0
LTYPE
  2
CONTINUOUS
 70
     0
  3
Solid line
 72
    65
 73
     0
 40
0.0
  0
ENDTAB
  0
TABLE
  2
LAYER
 70
     9
  0
LAYER
  2
0
 70
     0
 62
     7
  6
CONTINUOUS
  0
LAYER
  2
DRAWING
 70
     0
 62
     9
  6
CONTINUOUS
  0
LAYER
  2
FENDERS
 70
     0
 62
     6
  6
CONTINUOUS
  0
LAYER
  2
WHEELS
 70
     0
 62
     2
  6
CONTINUOUS
  0
LAYER
  2
TORSIONS
 70
     0
 62
     5
  6
CONTINUOUS
  0
LAYER
  2
TRACKS
 70
     0
 62
     3
  6
CONTINUOUS
  0
LAYER
  2
TURRET
 70
     0
 62
     2
  6
CONTINUOUS
  0
LAYER
  2
SLEEVE
 70
     0
 62
     5
  6
CONTINUOUS
  0
LAYER
  2
GUN
 70
     0
 62
     1
  6
CONTINUOUS
  0
ENDTAB
  0
TABLE
  2
STYLE
 70
     1
  0
STYLE
  2
STANDARD
 70
     0
 40
0.0
 41
1.0
 50
0.0
 71
     0
 42
2.5
  3
txt
  4

  0
ENDTAB
  0
TABLE
  2
VIEW
 70
     0
  0
ENDTAB
  0
TABLE
  2
UCS
 70
     0
  0
ENDTAB
  0
TABLE
  2
APPID
 70
     1
  0
APPID
  2
ACAD
 70
     0
  0
ENDTAB
  0
TABLE
  2
DIMSTYLE
 70
     1
  0
DIMSTYLE
  2
ISO-25
 70
     0
  3

  4

  5

  6

  7

 40
1.0
 41
2.5
 42
0.625
 43
3.75
 44
1.25
 45
0.0
 46
0.0
 47
0.0
 48
0.0
140
2.5
141
2.5
142
0.0
143
0.03937007874016
144
1.0
145
0.0
146
1.0
147
0.625
 71
     0
 72
     0
 73
     0
 74
     0
 75
     0
 76
     0
 77
     1
 78
     8
170
     0
171
     3
172
     1
173
     0
174
     0
175
     0
176
     0
177
     0
178
     0
  0
ENDTAB
  0
ENDSEC
  0
SECTION
  2
BLOCKS
  0
BLOCK
  8
0
  2
$MODEL_SPACE
 70
     0
 10
0.0
 20
0.0
 30
0.0
  3
$MODEL_SPACE
  1

  0
ENDBLK
  5
21
  8
0
  0
BLOCK
 67
     1
  8
0
  2
$PAPER_SPACE
 70
     0
 10
0.0
 20
0.0
 30
0.0
  3
$PAPER_SPACE
  1

  0
ENDBLK
  5
1D
 67
     1
  8
0
  0
ENDSEC
  0
SECTION
  2
ENTITIES
  0
3DFACE
  5
1842
  8
SLEEVE
 10
-0.2149999999999999
 20
0.3600000000000001
 30
-0.0200000000000006
 11
-0.2149999999999999
 21
0.24
 31
-0.0400000000000002
 12
-0.2149999999999999
 22
0.24
 32
0.0599999999999995
 13
-0.2149999999999999
 23
0.3400000000000001
 33
0.12
  0
3DFACE
  5
1843
  8
SLEEVE
 10
0.2149999999999999
 20
0.24
 30
0.0599999999999995
 11
0.2149999999999999
 21
0.24
 31
-0.0400000000000002
 12
0.2149999999999999
 22
0.3600000000000001
 32
-0.0200000000000006
 13
0.2149999999999999
 23
0.3400000000000001
 33
0.12
  0
3DFACE
  5
1844
  8
SLEEVE
 10
-0.2149999999999999
 20
0.24
 30
0.0599999999999995
 11
-0.2149999999999999
 21
0.24
 31
-0.0400000000000002
 12
0.2149999999999999
 22
0.24
 32
-0.0400000000000002
 13
0.2149999999999999
 23
0.24
 33
0.0599999999999995
  0
3DFACE
  5
1845
  8
SLEEVE
 10
0.2149999999999999
 20
0.3400000000000001
 30
0.12
 11
0.2149999999999999
 21
0.3600000000000001
 31
-0.0200000000000006
 12
-0.2149999999999999
 22
0.3600000000000001
 32
-0.0200000000000006
 13
-0.2149999999999999
 23
0.3400000000000001
 33
0.12
  0
3DFACE
  5
1848
  8
SLEEVE
 10
0.2149999999999999
 20
0.1000000000000005
 30
0.2299999999999994
 11
0.2149999999999999
 21
0.1899999999999997
 31
0.1399999999999996
 12
0.2149999999999999
 22
0.28
 32
0.2299999999999994
 13
0.2149999999999999
 23
0.2100000000000002
 33
0.3099999999999995
  0
3DFACE
  5
1849
  8
SLEEVE
 10
-0.2149999999999999
 20
0.1000000000000005
 30
0.2299999999999994
 11
-0.2149999999999999
 21
0.1899999999999997
 31
0.1399999999999996
 12
0.2149999999999999
 22
0.1899999999999997
 32
0.1399999999999996
 13
0.2149999999999999
 23
0.1000000000000005
 33
0.2299999999999994
  0
3DFACE
  5
184A
  8
SLEEVE
 10
-0.2149999999999999
 20
0.28
 30
0.2299999999999994
 11
-0.2149999999999999
 21
0.1899999999999997
 31
0.1399999999999996
 12
-0.2149999999999999
 22
0.1000000000000005
 32
0.2299999999999994
 13
-0.2149999999999999
 23
0.2100000000000002
 33
0.3099999999999995
  0
3DFACE
  5
184B
  8
SLEEVE
 10
0.2149999999999999
 20
0.2100000000000002
 30
0.3099999999999995
 11
0.2149999999999999
 21
0.28
 31
0.2299999999999994
 12
-0.2149999999999999
 22
0.28
 32
0.2299999999999994
 13
-0.2149999999999999
 23
0.2100000000000002
 33
0.3099999999999995
  0
3DFACE
  5
184D
  8
SLEEVE
 10
-0.2149999999999999
 20
0.2100000000000002
 30
0.3099999999999995
 11
-0.2149999999999999
 21
0.1000000000000005
 31
0.2299999999999994
 12
0.2149999999999999
 22
0.1000000000000005
 32
0.2299999999999994
 13
0.2149999999999999
 23
0.2100000000000002
 33
0.3099999999999995
  0
3DFACE
  5
184F
  8
SLEEVE
 10
0.2149999999999999
 20
0.1899999999999997
 30
0.1399999999999996
 11
0.2149999999999999
 21
0.24
 31
0.0599999999999995
 12
0.2149999999999999
 22
0.3400000000000001
 32
0.12
 13
0.2149999999999999
 23
0.28
 33
0.2299999999999994
  0
3DFACE
  5
1850
  8
SLEEVE
 10
-0.2149999999999999
 20
0.3400000000000001
 30
0.12
 11
-0.2149999999999999
 21
0.24
 31
0.0599999999999995
 12
-0.2149999999999999
 22
0.1899999999999997
 32
0.1399999999999996
 13
-0.2149999999999999
 23
0.28
 33
0.2299999999999994
  0
3DFACE
  5
1851
  8
SLEEVE
 10
0.2149999999999999
 20
0.28
 30
0.2299999999999994
 11
0.2149999999999999
 21
0.3400000000000001
 31
0.12
 12
-0.2149999999999999
 22
0.3400000000000001
 32
0.12
 13
-0.2149999999999999
 23
0.28
 33
0.2299999999999994
  0
3DFACE
  5
1852
  8
SLEEVE
 10
-0.2149999999999999
 20
0.1899999999999997
 30
0.1399999999999996
 11
-0.2149999999999999
 21
0.24
 31
0.0599999999999995
 12
0.2149999999999999
 22
0.24
 32
0.0599999999999995
 13
0.2149999999999999
 23
0.1899999999999997
 33
0.1399999999999996
  0
3DFACE
  5
1856
  8
SLEEVE
 10
0.2149999999999999
 20
0.24
 30
-0.0400000000000002
 11
0.2149999999999999
 21
0.22
 31
-0.1100000000000004
 12
0.2149999999999999
 22
0.3499999999999999
 32
-0.1100000000000004
 13
0.2149999999999999
 23
0.3600000000000001
 33
-0.0200000000000006
  0
3DFACE
  5
1857
  8
SLEEVE
 10
-0.2149999999999999
 20
0.3499999999999999
 30
-0.1100000000000004
 11
-0.2149999999999999
 21
0.22
 31
-0.1100000000000004
 12
-0.2149999999999999
 22
0.24
 32
-0.0400000000000002
 13
-0.2149999999999999
 23
0.3600000000000001
 33
-0.0200000000000006
  0
3DFACE
  5
1858
  8
SLEEVE
 10
0.2149999999999999
 20
0.3600000000000001
 30
-0.0200000000000006
 11
0.2149999999999999
 21
0.3499999999999999
 31
-0.1100000000000004
 12
0.09
 22
0.3499999999999999
 32
-0.1100000000000004
 13
0.0636396103067893
 23
0.3570710678118656
 33
-0.046360389693212
  0
3DFACE
  5
1859
  8
SLEEVE
 10
-0.2149999999999999
 20
0.24
 30
-0.0400000000000002
 11
-0.2149999999999999
 21
0.22
 31
-0.1100000000000004
 12
0.2149999999999999
 22
0.22
 32
-0.1100000000000004
 13
0.2149999999999999
 23
0.24
 33
-0.0400000000000002
  0
3DFACE
  5
185E
  8
SLEEVE
 10
0.2149999999999999
 20
0.22
 30
-0.1100000000000004
 11
0.2149999999999999
 21
0.1899999999999997
 31
-0.1800000000000007
 12
0.2149999999999999
 22
0.3299999999999998
 32
-0.2000000000000003
 13
0.2149999999999999
 23
0.3499999999999999
 33
-0.1100000000000004
  0
3DFACE
  5
185F
  8
SLEEVE
 10
-0.2149999999999999
 20
0.3299999999999998
 30
-0.2000000000000003
 11
-0.2149999999999999
 21
0.1899999999999997
 31
-0.1800000000000007
 12
-0.2149999999999999
 22
0.22
 32
-0.1100000000000004
 13
-0.2149999999999999
 23
0.3499999999999999
 33
-0.1100000000000004
  0
3DFACE
  5
1861
  8
SLEEVE
 10
-0.2149999999999999
 20
0.22
 30
-0.1100000000000004
 11
-0.2149999999999999
 21
0.1899999999999997
 31
-0.1800000000000007
 12
0.2149999999999999
 22
0.1899999999999997
 32
-0.1800000000000007
 13
0.2149999999999999
 23
0.22
 33
-0.1100000000000004
  0
3DFACE
  5
1862
  8
SLEEVE
 10
0.2149999999999999
 20
0.3499999999999999
 30
-0.1100000000000004
 11
0.2149999999999999
 21
0.3299999999999998
 31
-0.2000000000000003
 12
0.0636396103067893
 22
0.3358578643762688
 32
-0.1736396103067889
 13
0.09
 23
0.3499999999999999
 33
-0.1100000000000004
  0
3DFACE
  5
1865
  8
SLEEVE
 10
0.2149999999999999
 20
0.1899999999999997
 30
-0.1799999999999989
 11
0.2149999999999999
 21
0.1500000000000001
 31
-0.2400000000000012
 12
0.2149999999999999
 22
0.26
 32
-0.3099999999999997
 13
0.2149999999999999
 23
0.3299999999999998
 33
-0.2000000000000003
  0
3DFACE
  5
1866
  8
SLEEVE
 10
0.2149999999999999
 20
0.26
 30
-0.3099999999999997
 11
0.2149999999999999
 21
0.1500000000000001
 31
-0.2400000000000012
 12
-0.2149999999999999
 22
0.1500000000000001
 32
-0.2400000000000012
 13
-0.2149999999999999
 23
0.26
 33
-0.3099999999999997
  0
3DFACE
  5
1867
  8
SLEEVE
 10
-0.2149999999999999
 20
0.26
 30
-0.3099999999999997
 11
-0.2149999999999999
 21
0.1500000000000001
 31
-0.2400000000000012
 12
-0.2149999999999999
 22
0.1899999999999997
 32
-0.1799999999999989
 13
-0.2149999999999999
 23
0.3299999999999998
 33
-0.2000000000000003
  0
3DFACE
  5
1868
  8
SLEEVE
 10
-0.2149999999999999
 20
0.1899999999999997
 30
-0.1799999999999989
 11
-0.2149999999999999
 21
0.1500000000000001
 31
-0.2400000000000012
 12
0.2149999999999999
 22
0.1500000000000001
 32
-0.2400000000000012
 13
0.2149999999999999
 23
0.1899999999999997
 33
-0.1799999999999989
  0
3DFACE
  5
1869
  8
SLEEVE
 10
0.2149999999999999
 20
0.3299999999999998
 30
-0.2000000000000003
 11
0.2149999999999999
 21
0.26
 31
-0.3099999999999997
 12
-0.2149999999999999
 22
0.26
 32
-0.3099999999999997
 13
-0.2149999999999999
 23
0.3299999999999998
 33
-0.2000000000000003
  0
3DFACE
  5
188D
  8
SLEEVE
 10
0.09
 20
0.6500000000000002
 30
-0.1100000000000004
 11
0.0636396103067893
 21
0.6500000000000002
 31
-0.046360389693212
 12
0.0636396103067893
 22
0.3570710678118656
 32
-0.046360389693212
 13
0.09
 23
0.3499999999999999
 33
-0.1100000000000004
  0
3DFACE
  5
188E
  8
SLEEVE
 10
0.0636396103067893
 20
0.6500000000000002
 30
-0.046360389693212
 11
0.0
 21
0.6500000000000002
 31
-0.0200000000000006
 12
0.0
 22
0.3600000000000001
 32
-0.0200000000000006
 13
0.0636396103067893
 23
0.3570710678118656
 33
-0.046360389693212
  0
3DFACE
  5
188F
  8
SLEEVE
 10
0.0
 20
0.6500000000000002
 30
-0.0200000000000006
 11
-0.0636396103067893
 21
0.6500000000000002
 31
-0.046360389693212
 12
-0.0636396103067893
 22
0.3570710678118656
 32
-0.046360389693212
 13
0.0
 23
0.3600000000000001
 33
-0.0200000000000006
  0
3DFACE
  5
1890
  8
SLEEVE
 10
-0.0636396103067893
 20
0.6500000000000002
 30
-0.046360389693212
 11
-0.09
 21
0.6500000000000002
 31
-0.1100000000000004
 12
-0.09
 22
0.3499999999999999
 32
-0.1100000000000004
 13
-0.0636396103067893
 23
0.3570710678118656
 33
-0.046360389693212
  0
3DFACE
  5
1891
  8
SLEEVE
 10
-0.09
 20
0.6500000000000002
 30
-0.1100000000000004
 11
-0.0636396103067893
 21
0.6500000000000002
 31
-0.1736396103067889
 12
-0.0636396103067893
 22
0.3358578643762688
 32
-0.1736396103067889
 13
-0.09
 23
0.3499999999999999
 33
-0.1100000000000004
  0
3DFACE
  5
1892
  8
SLEEVE
 10
-0.0636396103067893
 20
0.6500000000000002
 30
-0.1736396103067889
 11
0.0
 21
0.6500000000000002
 31
-0.2000000000000003
 12
0.0
 22
0.3299999999999998
 32
-0.2000000000000003
 13
-0.0636396103067893
 23
0.3358578643762688
 33
-0.1736396103067889
  0
3DFACE
  5
1893
  8
SLEEVE
 10
0.0
 20
0.6500000000000002
 30
-0.2000000000000003
 11
0.0636396103067893
 21
0.6500000000000002
 31
-0.1736396103067889
 12
0.0636396103067893
 22
0.3358578643762688
 32
-0.1736396103067889
 13
0.0
 23
0.3299999999999998
 33
-0.2000000000000003
  0
3DFACE
  5
1894
  8
SLEEVE
 10
0.0636396103067893
 20
0.6500000000000002
 30
-0.1736396103067889
 11
0.09
 21
0.6500000000000002
 31
-0.1100000000000004
 12
0.09
 22
0.3499999999999999
 32
-0.1100000000000004
 13
0.0636396103067893
 23
0.3358578643762688
 33
-0.1736396103067889
  0
3DFACE
  5
1895
  8
SLEEVE
 10
0.2149999999999999
 20
0.3600000000000001
 30
-0.0200000000000006
 11
0.2149999999999999
 21
0.3600000000000001
 31
-0.0200000000000006
 12
0.0636396103067893
 22
0.3570710678118656
 32
-0.046360389693212
 13
0.0
 23
0.3600000000000001
 33
-0.0200000000000006
  0
3DFACE
  5
1896
  8
SLEEVE
 10
0.0
 20
0.3600000000000001
 30
-0.0200000000000006
 11
0.0
 21
0.3600000000000001
 31
-0.0200000000000006
 12
-0.0636396103067893
 22
0.3570710678118656
 32
-0.046360389693212
 13
-0.2149999999999999
 23
0.3600000000000001
 33
-0.0200000000000006
  0
3DFACE
  5
1897
  8
SLEEVE
 10
-0.09
 20
0.3499999999999999
 30
-0.1100000000000004
 11
-0.2149999999999999
 21
0.3499999999999999
 31
-0.1100000000000004
 12
-0.2149999999999999
 22
0.3600000000000001
 32
-0.0200000000000006
 13
-0.0636396103067893
 23
0.3570710678118656
 33
-0.046360389693212
  0
3DFACE
  5
1898
  8
SLEEVE
 10
0.0636396103067893
 20
0.3358578643762688
 30
-0.1736396103067889
 11
0.2149999999999999
 21
0.3299999999999998
 31
-0.2000000000000003
 12
0.0
 22
0.3299999999999998
 32
-0.2000000000000003
 13
0.0636396103067893
 23
0.3358578643762688
 33
-0.1736396103067889
  0
3DFACE
  5
1899
  8
SLEEVE
 10
-0.0636396103067893
 20
0.3358578643762688
 30
-0.1736396103067889
 11
0.0
 21
0.3299999999999998
 31
-0.2000000000000003
 12
-0.2149999999999999
 22
0.3299999999999998
 32
-0.2000000000000003
 13
-0.0636396103067893
 23
0.3358578643762688
 33
-0.1736396103067889
  0
3DFACE
  5
189A
  8
SLEEVE
 10
-0.0636396103067893
 20
0.3358578643762688
 30
-0.1736396103067889
 11
-0.2149999999999999
 21
0.3299999999999998
 31
-0.2000000000000003
 12
-0.2149999999999999
 22
0.3499999999999999
 32
-0.1100000000000004
 13
-0.09
 23
0.3499999999999999
 33
-0.1100000000000004
  0
3DFACE
  5
189B
  8
SLEEVE
 10
0.0636396103067893
 20
0.6500000000000002
 30
-0.046360389693212
 11
-0.09
 21
0.6500000000000002
 31
-0.1100000000000004
 12
-0.0636396103067893
 22
0.6500000000000002
 32
-0.046360389693212
 13
0.0
 23
0.6500000000000002
 33
-0.0200000000000006
  0
3DFACE
  5
189C
  8
SLEEVE
 10
0.09
 20
0.6500000000000002
 30
-0.1100000000000004
 11
-0.0636396103067893
 21
0.6500000000000002
 31
-0.1736396103067889
 12
-0.09
 22
0.6500000000000002
 32
-0.1100000000000004
 13
0.0636396103067893
 23
0.6500000000000002
 33
-0.046360389693212
  0
3DFACE
  5
189D
  8
SLEEVE
 10
0.0636396103067893
 20
0.6500000000000002
 30
-0.1736396103067889
 11
0.0
 21
0.6500000000000002
 31
-0.2000000000000003
 12
-0.0636396103067893
 22
0.6500000000000002
 32
-0.1736396103067889
 13
0.09
 23
0.6500000000000002
 33
-0.1100000000000022
  0
VIEWPORT
  5
2E
 67
     1
  8
0
 10
144.7270812988281
 20
101.2295806407928
 30
0.0
 40
391.13550988316581
 41
222.15178063964839
 68
     2
 69
     1
1001
ACAD
1000
MVIEW
1002
{
1070
    16
1010
0.0
1020
0.0
1030
0.0
1010
0.0
1020
0.0
1030
1.0
1040
0.0
1040
222.15178063964839
1040
144.7270812988281
1040
101.2295806407928
1040
50.0
1040
0.0
1040
0.0
1070
     0
1070
   100
1070
     1
1070
     1
1070
     0
1070
     0
1070
     0
1070
     0
1040
0.0
1040
0.0
1040
0.0
1040
10.0
1040
10.0
1040
10.0
1040
10.0
1070
     0
1002
{
1002
}
1002
}
  0
VIEWPORT
  5
30
 67
     1
  8
0
 10
139.22375631332389
 20
100.8062499761581
 30
0.0
 40
222.75801010131829
 41
161.289999961853
 68
     1
 69
     2
1001
ACAD
1000
MVIEW
1002
{
1070
    16
1010
0.0
1020
0.0
1030
0.0
1010
0.0
1020
0.0
1030
1.0
1040
0.0
1040
307.49010134148989
1040
210.0
1040
148.5
1040
50.0
1040
0.0
1040
0.0
1070
     0
1070
   100
1070
     1
1070
     3
1070
     0
1070
     1
1070
     0
1070
     0
1040
0.0
1040
0.0
1040
0.0
1040
10.0
1040
10.0
1040
10.0
1040
10.0
1070
     0
1002
{
1002
}
1002
}
  0
ENDSEC
  0
EOF
