  0
SECTION
  2
HEADER
  9
$ACADVER
  1
AC1009
  9
$INSBASE
 10
0.0
 20
0.0
 30
0.0
  9
$EXTMIN
 10
-23.592834618400019
 20
-175.9028696
 30
-196.40999999999991
  9
$EXTMAX
 10
25.13179071101176
 20
71.573999999999984
 30
84.241558935361226
  9
$LIMMIN
 10
0.0
 20
0.0
  9
$LIMMAX
 10
420.0
 20
297.0
  9
$ORTHOMODE
 70
     1
  9
$REGENMODE
 70
     1
  9
$FILLMODE
 70
     1
  9
$QTEXTMODE
 70
     0
  9
$MIRRTEXT
 70
     1
  9
$DRAGMODE
 70
     2
  9
$LTSCALE
 40
1.0
  9
$OSMODE
 70
   551
  9
$ATTMODE
 70
     1
  9
$TEXTSIZE
 40
2.5
  9
$TRACEWID
 40
1.0
  9
$TEXTSTYLE
  7
STANDARD
  9
$CLAYER
  8
GUN
  9
$CELTYPE
  6
BYLAYER
  9
$CECOLOR
 62
   256
  9
$DIMSCALE
 40
1.0
  9
$DIMASZ
 40
2.5
  9
$DIMEXO
 40
0.625
  9
$DIMDLI
 40
3.75
  9
$DIMRND
 40
0.0
  9
$DIMDLE
 40
0.0
  9
$DIMEXE
 40
1.25
  9
$DIMTP
 40
0.0
  9
$DIMTM
 40
0.0
  9
$DIMTXT
 40
2.5
  9
$DIMCEN
 40
2.5
  9
$DIMTSZ
 40
0.0
  9
$DIMTOL
 70
     0
  9
$DIMLIM
 70
     0
  9
$DIMTIH
 70
     0
  9
$DIMTOH
 70
     0
  9
$DIMSE1
 70
     0
  9
$DIMSE2
 70
     0
  9
$DIMTAD
 70
     1
  9
$DIMZIN
 70
     8
  9
$DIMBLK
  1

  9
$DIMASO
 70
     1
  9
$DIMSHO
 70
     1
  9
$DIMPOST
  1

  9
$DIMAPOST
  1

  9
$DIMALT
 70
     0
  9
$DIMALTD
 70
     3
  9
$DIMALTF
 40
0.03937007874016
  9
$DIMLFAC
 40
1.0
  9
$DIMTOFL
 70
     1
  9
$DIMTVP
 40
0.0
  9
$DIMTIX
 70
     0
  9
$DIMSOXD
 70
     0
  9
$DIMSAH
 70
     0
  9
$DIMBLK1
  1

  9
$DIMBLK2
  1

  9
$DIMSTYLE
  2
ISO-25
  9
$DIMCLRD
 70
     0
  9
$DIMCLRE
 70
     0
  9
$DIMCLRT
 70
     0
  9
$DIMTFAC
 40
1.0
  9
$DIMGAP
 40
0.625
  9
$LUNITS
 70
     2
  9
$LUPREC
 70
     4
  9
$SKETCHINC
 40
1.0
  9
$FILLETRAD
 40
10.0
  9
$AUNITS
 70
     0
  9
$AUPREC
 70
     0
  9
$MENU
  1
.
  9
$ELEVATION
 40
0.0
  9
$PELEVATION
 40
0.0
  9
$THICKNESS
 40
0.0
  9
$LIMCHECK
 70
     0
  9
$BLIPMODE
 70
     0
  9
$CHAMFERA
 40
10.0
  9
$CHAMFERB
 40
10.0
  9
$SKPOLY
 70
     0
  9
$TDCREATE
 40
2454677.938168657
  9
$TDUPDATE
 40
2454679.927183101
  9
$TDINDWG
 40
1.0335308102
  9
$TDUSRTIMER
 40
1.0335308102
  9
$USRTIMER
 70
     1
  9
$ANGBASE
 50
0.0
  9
$ANGDIR
 70
     0
  9
$PDMODE
 70
     0
  9
$PDSIZE
 40
0.0
  9
$PLINEWID
 40
0.0
  9
$COORDS
 70
     1
  9
$SPLFRAME
 70
     0
  9
$SPLINETYPE
 70
     6
  9
$SPLINESEGS
 70
     8
  9
$ATTDIA
 70
     1
  9
$ATTREQ
 70
     1
  9
$HANDLING
 70
-16383
  9
$HANDSEED
  5
1B1A
  9
$SURFTAB1
 70
     6
  9
$SURFTAB2
 70
     6
  9
$SURFTYPE
 70
     6
  9
$SURFU
 70
     6
  9
$SURFV
 70
     6
  9
$UCSNAME
  2

  9
$UCSORG
 10
0.0
 20
0.0
 30
0.0
  9
$UCSXDIR
 10
0.0
 20
-1.0
 30
0.0
  9
$UCSYDIR
 10
0.0
 20
0.0
 30
1.0
  9
$PUCSNAME
  2

  9
$PUCSORG
 10
0.0
 20
0.0
 30
0.0
  9
$PUCSXDIR
 10
1.0
 20
0.0
 30
0.0
  9
$PUCSYDIR
 10
0.0
 20
1.0
 30
0.0
  9
$USERI1
 70
     0
  9
$USERI2
 70
     0
  9
$USERI3
 70
     0
  9
$USERI4
 70
     0
  9
$USERI5
 70
     0
  9
$USERR1
 40
0.0
  9
$USERR2
 40
0.0
  9
$USERR3
 40
0.0
  9
$USERR4
 40
0.0
  9
$USERR5
 40
0.0
  9
$WORLDVIEW
 70
     1
  9
$SHADEDGE
 70
     3
  9
$SHADEDIF
 70
    70
  9
$TILEMODE
 70
     1
  9
$MAXACTVP
 70
    64
  9
$PLIMCHECK
 70
     0
  9
$PEXTMIN
 10
27.844751262664801
 20
20.161249995231621
 30
0.0
  9
$PEXTMAX
 10
250.60276136398309
 20
181.4512499570846
 30
0.0
  9
$PLIMMIN
 10
-3.757080078125
 20
-3.7570831775665279
  9
$PLIMMAX
 10
293.21124267578119
 20
206.21624445915219
  9
$UNITMODE
 70
     0
  9
$VISRETAIN
 70
     1
  9
$PLINEGEN
 70
     0
  9
$PSLTSCALE
 70
     1
  0
ENDSEC
  0
SECTION
  2
TABLES
  0
TABLE
  2
VPORT
 70
    92
  0
VPORT
  2
*ACTIVE
 70
     0
 10
0.0
 20
0.0
 11
1.0
 21
1.0
 12
-0.2578982902639382
 22
1.3550198374706379
 13
0.0
 23
0.0
 14
0.01
 24
0.01
 15
1.0
 25
1.0
 16
-1.0
 26
0.0
 36
0.0
 17
0.0
 27
0.0
 37
0.0
 40
10.023888641650251
 41
1.7606679035250461
 42
50.0
 43
0.0
 44
0.0
 50
0.0
 51
0.0
 71
     0
 72
   100
 73
     1
 74
     3
 75
     1
 76
     1
 77
     0
 78
     0
  0
ENDTAB
  0
TABLE
  2
LTYPE
 70
     1
  0
LTYPE
  2
CONTINUOUS
 70
     0
  3
Solid line
 72
    65
 73
     0
 40
0.0
  0
ENDTAB
  0
TABLE
  2
LAYER
 70
    12
  0
LAYER
  2
0
 70
     0
 62
     7
  6
CONTINUOUS
  0
LAYER
  2
DRAWING
 70
     0
 62
     9
  6
CONTINUOUS
  0
LAYER
  2
DR2
 70
     0
 62
    -9
  6
CONTINUOUS
  0
LAYER
  2
H2
 70
     0
 62
     7
  6
CONTINUOUS
  0
LAYER
  2
DR3
 70
     0
 62
    -9
  6
CONTINUOUS
  0
LAYER
  2
TURRET
 70
     0
 62
     2
  6
CONTINUOUS
  0
LAYER
  2
GUN
 70
     4
 62
     1
  6
CONTINUOUS
  0
LAYER
  2
SLEEVE
 70
     0
 62
     5
  6
CONTINUOUS
  0
LAYER
  2
RAILINGS
 70
     0
 62
     6
  6
CONTINUOUS
  0
LAYER
  2
R2
 70
     0
 62
     6
  6
CONTINUOUS
  0
LAYER
  2
BOATS
 70
     0
 62
     3
  6
CONTINUOUS
  0
ENDTAB
  0
TABLE
  2
STYLE
 70
     1
  0
STYLE
  2
STANDARD
 70
     0
 40
0.0
 41
1.0
 50
0.0
 71
     0
 42
2.5
  3
txt
  4

  0
ENDTAB
  0
TABLE
  2
VIEW
 70
     0
  0
ENDTAB
  0
TABLE
  2
UCS
 70
     0
  0
ENDTAB
  0
TABLE
  2
APPID
 70
     1
  0
APPID
  2
ACAD
 70
     0
  0
ENDTAB
  0
TABLE
  2
DIMSTYLE
 70
     1
  0
DIMSTYLE
  2
ISO-25
 70
     0
  3

  4

  5

  6

  7

 40
1.0
 41
2.5
 42
0.625
 43
3.75
 44
1.25
 45
0.0
 46
0.0
 47
0.0
 48
0.0
140
2.5
141
2.5
142
0.0
143
0.03937007874016
144
1.0
145
0.0
146
1.0
147
0.625
 71
     0
 72
     0
 73
     0
 74
     0
 75
     0
 76
     0
 77
     1
 78
     8
170
     0
171
     3
172
     1
173
     0
174
     0
175
     0
176
     0
177
     0
178
     0
  0
ENDTAB
  0
ENDSEC
  0
SECTION
  2
BLOCKS
  0
BLOCK
  8
0
  2
$MODEL_SPACE
 70
     0
 10
0.0
 20
0.0
 30
0.0
  3
$MODEL_SPACE
  1

  0
ENDBLK
  5
21
  8
0
  0
BLOCK
 67
     1
  8
0
  2
$PAPER_SPACE
 70
     0
 10
0.0
 20
0.0
 30
0.0
  3
$PAPER_SPACE
  1

  0
ENDBLK
  5
1D
 67
     1
  8
0
  0
ENDSEC
  0
SECTION
  2
ENTITIES
  0
3DFACE
  5
B03
  8
GUN
 10
0.2500000000000047
 20
-1.500000000000008
 30
0.4899999999999985
 11
0.2500000000000047
 21
-1.500000000000008
 31
-0.1900000000000084
 12
0.2500000000000047
 22
-1.380000000000003
 32
-0.2500000000000035
 13
0.2500000000000047
 23
-1.380000000000003
 33
0.4899999999999985
  0
3DFACE
  5
B04
  8
GUN
 10
0.2500000000000047
 20
-1.380000000000003
 30
-0.2500000000000035
 11
0.2500000000000047
 21
-1.500000000000008
 31
-0.1900000000000084
 12
-0.2499999999999953
 22
-1.500000000000008
 32
-0.1900000000000084
 13
-0.2499999999999953
 23
-1.380000000000003
 33
-0.2500000000000035
  0
3DFACE
  5
B05
  8
GUN
 10
-0.2499999999999953
 20
-1.380000000000003
 30
-0.2500000000000035
 11
-0.2499999999999953
 21
-1.500000000000008
 31
-0.1900000000000084
 12
-0.2499999999999953
 22
-1.500000000000008
 32
0.4899999999999985
 13
-0.2499999999999953
 23
-1.380000000000003
 33
0.4899999999999985
  0
3DFACE
  5
B06
  8
GUN
 10
-0.2499999999999953
 20
-1.380000000000003
 30
0.4899999999999985
 11
-0.2499999999999953
 21
-1.500000000000008
 31
0.4899999999999985
 12
0.2500000000000047
 22
-1.500000000000008
 32
0.4899999999999985
 13
0.2500000000000047
 23
-1.380000000000003
 33
0.4899999999999985
  0
3DFACE
  5
B35
  8
GUN
 10
0.2500000000000048
 20
-0.6999999999999969
 30
-0.2500000000000035
 11
0.2500000000000047
 21
-1.380000000000003
 31
-0.2500000000000035
 12
-0.2499999999999953
 22
-1.380000000000003
 32
-0.2500000000000035
 13
-0.2499999999999951
 23
-0.6999999999999969
 33
-0.2500000000000035
  0
3DFACE
  5
B36
  8
GUN
 10
-0.2499999999999951
 20
-0.6999999999999969
 30
-0.2500000000000035
 11
-0.2499999999999953
 21
-1.380000000000003
 31
-0.2500000000000035
 12
-0.2499999999999953
 22
-1.380000000000003
 32
0.4899999999999985
 13
-0.2499999999999951
 23
-0.6999999999999969
 33
0.4899999999999985
  0
3DFACE
  5
B37
  8
GUN
 10
-0.2499999999999951
 20
-0.6999999999999969
 30
0.4899999999999985
 11
-0.2499999999999953
 21
-1.380000000000003
 31
0.4899999999999985
 12
0.2500000000000047
 22
-1.380000000000003
 32
0.4899999999999985
 13
0.2500000000000048
 23
-0.6999999999999969
 33
0.4899999999999985
  0
3DFACE
  5
B38
  8
GUN
 10
0.2500000000000048
 20
-0.6999999999999969
 30
0.4899999999999985
 11
0.2500000000000048
 21
-0.6999999999999969
 31
-0.2500000000000035
 12
-0.2499999999999951
 22
-0.6999999999999969
 32
-0.2500000000000035
 13
-0.2499999999999951
 23
-0.6999999999999969
 33
0.4899999999999985
  0
3DFACE
  5
B39
  8
GUN
 10
0.2500000000000047
 20
-1.380000000000003
 30
0.4899999999999985
 11
0.2500000000000047
 21
-1.380000000000003
 31
-0.2500000000000035
 12
0.2500000000000048
 22
-0.6999999999999969
 32
-0.2500000000000035
 13
0.2500000000000048
 23
-0.6999999999999969
 33
0.4899999999999985
  0
3DFACE
  5
B62
  8
GUN
 10
0.1800000000000051
 20
0.490000000000001
 30
-0.0000000000000036
 11
0.0900000000000052
 21
0.490000000000001
 31
0.1558845726811917
 12
0.0900000000000049
 22
-0.6999999999999969
 32
0.1558845726811917
 13
0.1800000000000048
 23
-0.6999999999999969
 33
-0.0000000000000036
  0
3DFACE
  5
B63
  8
GUN
 10
0.0900000000000052
 20
0.490000000000001
 30
0.1558845726811917
 11
-0.0899999999999948
 21
0.490000000000001
 31
0.1558845726811917
 12
-0.0899999999999951
 22
-0.6999999999999969
 32
0.1558845726811917
 13
0.0900000000000049
 23
-0.6999999999999969
 33
0.1558845726811917
  0
3DFACE
  5
B64
  8
GUN
 10
-0.0899999999999948
 20
0.490000000000001
 30
0.1558845726811917
 11
-0.1799999999999949
 21
0.490000000000001
 31
-0.0000000000000036
 12
-0.1799999999999951
 22
-0.6999999999999969
 32
-0.0000000000000036
 13
-0.0899999999999951
 23
-0.6999999999999969
 33
0.1558845726811917
  0
3DFACE
  5
B65
  8
GUN
 10
-0.1799999999999949
 20
0.490000000000001
 30
-0.0000000000000036
 11
-0.0899999999999949
 21
0.490000000000001
 31
-0.1558845726811988
 12
-0.0899999999999952
 22
-0.6999999999999969
 32
-0.1558845726811988
 13
-0.1799999999999951
 23
-0.6999999999999969
 33
-0.0000000000000036
  0
3DFACE
  5
B66
  8
GUN
 10
-0.0899999999999949
 20
0.490000000000001
 30
-0.1558845726811988
 11
0.090000000000005
 21
0.490000000000001
 31
-0.1558845726811988
 12
0.0900000000000047
 22
-0.6999999999999969
 32
-0.1558845726811988
 13
-0.0899999999999952
 23
-0.6999999999999969
 33
-0.1558845726811988
  0
3DFACE
  5
B67
  8
GUN
 10
0.090000000000005
 20
0.490000000000001
 30
-0.1558845726811988
 11
0.1800000000000051
 21
0.490000000000001
 31
-0.0000000000000036
 12
0.1800000000000048
 22
-0.6999999999999969
 32
-0.0000000000000036
 13
0.0900000000000047
 23
-0.6999999999999969
 33
-0.1558845726811988
  0
3DFACE
  5
B74
  8
GUN
 10
0.1150000000000056
 20
2.2700000000000009
 30
-0.0000000000000036
 11
0.0575000000000056
 21
2.2700000000000009
 31
0.0995929214352067
 12
0.0775000000000056
 22
2.1899999999999888
 32
0.1342339375865897
 13
0.1550000000000056
 23
2.1899999999999888
 33
-0.0000000000000036
  0
3DFACE
  5
B75
  8
GUN
 10
0.0575000000000056
 20
2.2700000000000009
 30
0.0995929214352067
 11
-0.0574999999999944
 21
2.2700000000000009
 31
0.0995929214352067
 12
-0.0774999999999944
 22
2.1899999999999888
 32
0.1342339375865897
 13
0.0775000000000056
 23
2.1899999999999888
 33
0.1342339375865897
  0
3DFACE
  5
B76
  8
GUN
 10
-0.0574999999999944
 20
2.2700000000000009
 30
0.0995929214352067
 11
-0.1149999999999944
 21
2.2700000000000009
 31
-0.0000000000000036
 12
-0.1549999999999944
 22
2.1899999999999888
 32
-0.0000000000000036
 13
-0.0774999999999944
 23
2.1899999999999888
 33
0.1342339375865897
  0
3DFACE
  5
B77
  8
GUN
 10
-0.1149999999999944
 20
2.2700000000000009
 30
-0.0000000000000036
 11
-0.0574999999999945
 21
2.2700000000000009
 31
-0.0995929214352138
 12
-0.0774999999999945
 22
2.1899999999999888
 32
-0.1342339375865897
 13
-0.1549999999999944
 23
2.1899999999999888
 33
-0.0000000000000036
  0
3DFACE
  5
B78
  8
GUN
 10
-0.0574999999999945
 20
2.2700000000000009
 30
-0.0995929214352138
 11
0.0575000000000055
 21
2.2700000000000009
 31
-0.0995929214352138
 12
0.0775000000000055
 22
2.1899999999999888
 32
-0.1342339375865968
 13
-0.0774999999999945
 23
2.1899999999999888
 33
-0.1342339375865897
  0
3DFACE
  5
B79
  8
GUN
 10
0.0575000000000055
 20
2.2700000000000009
 30
-0.0995929214352138
 11
0.1150000000000056
 21
2.2700000000000009
 31
-0.0000000000000036
 12
0.1550000000000056
 22
2.1899999999999888
 32
-0.0000000000000036
 13
0.0775000000000055
 23
2.1899999999999888
 33
-0.1342339375865968
  0
3DFACE
  5
B7A
  8
GUN
 10
0.0850000000000061
 20
4.2400000000000011
 30
-0.0000000000000036
 11
0.0425000000000061
 21
4.2400000000000011
 31
0.073612159321673
 12
0.0575000000000056
 22
2.2700000000000009
 32
0.0995929214352067
 13
0.1150000000000056
 23
2.2700000000000009
 33
-0.0000000000000036
  0
3DFACE
  5
B7B
  8
GUN
 10
0.0425000000000061
 20
4.2400000000000011
 30
0.073612159321673
 11
-0.0424999999999939
 21
4.2400000000000011
 31
0.073612159321673
 12
-0.0574999999999944
 22
2.2700000000000009
 32
0.0995929214352067
 13
0.0575000000000056
 23
2.2700000000000009
 33
0.0995929214352067
  0
3DFACE
  5
B7C
  8
GUN
 10
-0.0424999999999939
 20
4.2400000000000011
 30
0.073612159321673
 11
-0.084999999999994
 21
4.2400000000000011
 31
-0.0000000000000036
 12
-0.1149999999999944
 22
2.2700000000000009
 32
-0.0000000000000036
 13
-0.0574999999999944
 23
2.2700000000000009
 33
0.0995929214352067
  0
3DFACE
  5
B7D
  8
GUN
 10
-0.084999999999994
 20
4.2400000000000011
 30
-0.0000000000000036
 11
-0.042499999999994
 21
4.2400000000000011
 31
-0.0736121593216801
 12
-0.0574999999999945
 22
2.2700000000000009
 32
-0.0995929214352138
 13
-0.1149999999999944
 23
2.2700000000000009
 33
-0.0000000000000036
  0
3DFACE
  5
B7E
  8
GUN
 10
-0.042499999999994
 20
4.2400000000000011
 30
-0.0736121593216801
 11
0.042500000000006
 21
4.2400000000000011
 31
-0.0736121593216801
 12
0.0575000000000055
 22
2.2700000000000009
 32
-0.0995929214352138
 13
-0.0574999999999945
 23
2.2700000000000009
 33
-0.0995929214352138
  0
3DFACE
  5
B7F
  8
GUN
 10
0.042500000000006
 20
4.2400000000000011
 30
-0.0736121593216801
 11
0.0850000000000061
 21
4.2400000000000011
 31
-0.0000000000000036
 12
0.1150000000000056
 22
2.2700000000000009
 32
-0.0000000000000036
 13
0.0575000000000055
 23
2.2700000000000009
 33
-0.0995929214352138
  0
3DFACE
  5
B80
  8
GUN
 10
0.0850000000000061
 20
4.2400000000000011
 30
-0.0000000000000036
 11
-0.084999999999994
 21
4.2400000000000011
 31
-0.0000000000000036
 12
-0.0424999999999939
 22
4.2400000000000011
 32
0.073612159321673
 13
0.0425000000000061
 23
4.2400000000000011
 33
0.073612159321673
  0
3DFACE
  5
B81
  8
GUN
 10
0.0425000000000061
 20
4.2400000000000011
 30
-0.0736121593216801
 11
-0.042499999999994
 21
4.2400000000000011
 31
-0.0736121593216801
 12
-0.084999999999994
 22
4.2400000000000011
 32
-0.0000000000000036
 13
0.0850000000000061
 23
4.2400000000000011
 33
-0.0000000000000036
  0
3DFACE
  5
B82
  8
GUN
 10
0.1550000000000056
 20
2.1899999999999888
 30
-0.0000000000000036
 11
0.0775000000000056
 21
2.1899999999999888
 31
0.1342339375865897
 12
0.0900000000000052
 22
0.490000000000001
 32
0.1558845726811917
 13
0.1800000000000051
 23
0.490000000000001
 33
-0.0000000000000036
  0
3DFACE
  5
B83
  8
GUN
 10
0.0775000000000056
 20
2.1899999999999888
 30
0.1342339375865897
 11
-0.0774999999999944
 21
2.1899999999999888
 31
0.1342339375865897
 12
-0.0899999999999948
 22
0.490000000000001
 32
0.1558845726811917
 13
0.0900000000000052
 23
0.490000000000001
 33
0.1558845726811917
  0
3DFACE
  5
B84
  8
GUN
 10
-0.0774999999999944
 20
2.1899999999999888
 30
0.1342339375865897
 11
-0.1549999999999944
 21
2.1899999999999888
 31
-0.0000000000000036
 12
-0.1799999999999949
 22
0.490000000000001
 32
-0.0000000000000036
 13
-0.0899999999999948
 23
0.490000000000001
 33
0.1558845726811917
  0
3DFACE
  5
B85
  8
GUN
 10
-0.1549999999999944
 20
2.1899999999999888
 30
-0.0000000000000036
 11
-0.0774999999999945
 21
2.1899999999999888
 31
-0.1342339375865897
 12
-0.0899999999999949
 22
0.490000000000001
 32
-0.1558845726811988
 13
-0.1799999999999949
 23
0.490000000000001
 33
-0.0000000000000036
  0
3DFACE
  5
B86
  8
GUN
 10
-0.0774999999999945
 20
2.1899999999999888
 30
-0.1342339375865897
 11
0.0775000000000055
 21
2.1899999999999888
 31
-0.1342339375865968
 12
0.090000000000005
 22
0.490000000000001
 32
-0.1558845726811988
 13
-0.0899999999999949
 23
0.490000000000001
 33
-0.1558845726811988
  0
3DFACE
  5
B87
  8
GUN
 10
0.0775000000000055
 20
2.1899999999999888
 30
-0.1342339375865968
 11
0.1550000000000056
 21
2.1899999999999888
 31
-0.0000000000000036
 12
0.1800000000000051
 22
0.490000000000001
 32
-0.0000000000000036
 13
0.090000000000005
 23
0.490000000000001
 33
-0.1558845726811988
  0
3DFACE
  5
B88
  8
GUN
 10
-0.2499999999999953
 20
-1.500000000000008
 30
0.4899999999999985
 11
-0.2499999999999953
 21
-1.500000000000008
 31
-0.1900000000000084
 12
0.2500000000000047
 22
-1.500000000000008
 32
-0.1900000000000084
 13
0.2500000000000047
 23
-1.500000000000008
 33
0.4899999999999985
  0
LINE
  5
19BF
  8
DR3
 10
0.0
 20
71.556391128016855
 30
-186.60082314896837
 11
0.0
 21
-175.85455579617226
 31
-165.13800105899384
  0
LINE
  5
19F5
  8
DR3
 10
0.0
 20
-72.388380111939185
 30
-196.40985647052392
 11
0.0
 21
-175.92267893607129
 31
-191.08919073184936
  0
LINE
  5
1A05
  8
DR3
 10
2.9845325253232717
 20
71.517209298400658
 30
18.216565706607
 11
-3.2098320405145992
 21
-76.915975251209673
 31
84.241705845426409
  0
LINE
  5
1A06
  8
DR3
 10
3.1363696106347119
 20
71.569804977879329
 30
27.964098859031616
 11
-3.2099999999999991
 21
-73.25
 31
84.241780493061697
  0
LINE
  5
1A95
  8
DR3
 10
-3.1363696106347119
 20
71.569804977879329
 30
27.964098859031616
 11
3.2099999999999991
 21
-73.25
 31
84.241780493061697
  0
LINE
  5
1A96
  8
DR3
 10
-2.9845325253232717
 20
71.517209298400658
 30
18.216565706607
 11
3.2098320405145992
 21
-76.915975251209673
 31
84.241705845426409
  0
VIEWPORT
  5
2E
 67
     1
  8
0
 10
144.7270812988281
 20
101.2295806407928
 30
0.0
 40
391.13550988316581
 41
222.15178063964839
 68
     2
 69
     1
1001
ACAD
1000
MVIEW
1002
{
1070
    16
1010
0.0
1020
0.0
1030
0.0
1010
0.0
1020
0.0
1030
1.0
1040
0.0
1040
222.15178063964839
1040
144.7270812988281
1040
101.2295806407928
1040
50.0
1040
0.0
1040
0.0
1070
     0
1070
   100
1070
     1
1070
     1
1070
     0
1070
     0
1070
     0
1070
     0
1040
0.0
1040
0.0
1040
0.0
1040
10.0
1040
10.0
1040
10.0
1040
10.0
1070
     0
1002
{
1002
}
1002
}
  0
VIEWPORT
  5
30
 67
     1
  8
0
 10
139.22375631332389
 20
100.8062499761581
 30
0.0
 40
222.75801010131829
 41
161.289999961853
 68
     1
 69
     2
1001
ACAD
1000
MVIEW
1002
{
1070
    16
1010
0.0
1020
0.0
1030
0.0
1010
0.0
1020
0.0
1030
1.0
1040
0.0
1040
307.49010134148989
1040
210.0
1040
148.5
1040
50.0
1040
0.0
1040
0.0
1070
     0
1070
   100
1070
     1
1070
     3
1070
     0
1070
     1
1070
     0
1070
     0
1040
0.0
1040
0.0
1040
0.0
1040
10.0
1040
10.0
1040
10.0
1040
10.0
1070
     0
1002
{
1002
}
1002
}
  0
ENDSEC
  0
EOF
