  0
SECTION
  2
HEADER
  9
$ACADVER
  1
AC1009
  9
$INSBASE
 10
0.0
 20
0.0
 30
0.0
  9
$EXTMIN
 10
-23.592834618400019
 20
-175.9028696
 30
-196.40999999999991
  9
$EXTMAX
 10
25.13179071101176
 20
56.389999967926869
 30
84.241558935361226
  9
$LIMMIN
 10
0.0
 20
0.0
  9
$LIMMAX
 10
420.0
 20
297.0
  9
$ORTHOMODE
 70
     1
  9
$REGENMODE
 70
     1
  9
$FILLMODE
 70
     1
  9
$QTEXTMODE
 70
     0
  9
$MIRRTEXT
 70
     1
  9
$DRAGMODE
 70
     2
  9
$LTSCALE
 40
1.0
  9
$OSMODE
 70
   551
  9
$ATTMODE
 70
     1
  9
$TEXTSIZE
 40
2.5
  9
$TRACEWID
 40
1.0
  9
$TEXTSTYLE
  7
STANDARD
  9
$CLAYER
  8
GUN
  9
$CELTYPE
  6
BYLAYER
  9
$CECOLOR
 62
   256
  9
$DIMSCALE
 40
1.0
  9
$DIMASZ
 40
2.5
  9
$DIMEXO
 40
0.625
  9
$DIMDLI
 40
3.75
  9
$DIMRND
 40
0.0
  9
$DIMDLE
 40
0.0
  9
$DIMEXE
 40
1.25
  9
$DIMTP
 40
0.0
  9
$DIMTM
 40
0.0
  9
$DIMTXT
 40
2.5
  9
$DIMCEN
 40
2.5
  9
$DIMTSZ
 40
0.0
  9
$DIMTOL
 70
     0
  9
$DIMLIM
 70
     0
  9
$DIMTIH
 70
     0
  9
$DIMTOH
 70
     0
  9
$DIMSE1
 70
     0
  9
$DIMSE2
 70
     0
  9
$DIMTAD
 70
     1
  9
$DIMZIN
 70
     8
  9
$DIMBLK
  1

  9
$DIMASO
 70
     1
  9
$DIMSHO
 70
     1
  9
$DIMPOST
  1

  9
$DIMAPOST
  1

  9
$DIMALT
 70
     0
  9
$DIMALTD
 70
     3
  9
$DIMALTF
 40
0.03937007874016
  9
$DIMLFAC
 40
1.0
  9
$DIMTOFL
 70
     1
  9
$DIMTVP
 40
0.0
  9
$DIMTIX
 70
     0
  9
$DIMSOXD
 70
     0
  9
$DIMSAH
 70
     0
  9
$DIMBLK1
  1

  9
$DIMBLK2
  1

  9
$DIMSTYLE
  2
ISO-25
  9
$DIMCLRD
 70
     0
  9
$DIMCLRE
 70
     0
  9
$DIMCLRT
 70
     0
  9
$DIMTFAC
 40
1.0
  9
$DIMGAP
 40
0.625
  9
$LUNITS
 70
     2
  9
$LUPREC
 70
     4
  9
$SKETCHINC
 40
1.0
  9
$FILLETRAD
 40
10.0
  9
$AUNITS
 70
     0
  9
$AUPREC
 70
     0
  9
$MENU
  1
.
  9
$ELEVATION
 40
0.0
  9
$PELEVATION
 40
0.0
  9
$THICKNESS
 40
0.0
  9
$LIMCHECK
 70
     0
  9
$BLIPMODE
 70
     0
  9
$CHAMFERA
 40
10.0
  9
$CHAMFERB
 40
10.0
  9
$SKPOLY
 70
     0
  9
$TDCREATE
 40
2454677.938168657
  9
$TDUPDATE
 40
2454679.9276581709
  9
$TDINDWG
 40
1.0340057060000001
  9
$TDUSRTIMER
 40
1.0340057060000001
  9
$USRTIMER
 70
     1
  9
$ANGBASE
 50
0.0
  9
$ANGDIR
 70
     0
  9
$PDMODE
 70
     0
  9
$PDSIZE
 40
0.0
  9
$PLINEWID
 40
0.0
  9
$COORDS
 70
     1
  9
$SPLFRAME
 70
     0
  9
$SPLINETYPE
 70
     6
  9
$SPLINESEGS
 70
     8
  9
$ATTDIA
 70
     1
  9
$ATTREQ
 70
     1
  9
$HANDLING
 70
-16383
  9
$HANDSEED
  5
1B21
  9
$SURFTAB1
 70
     6
  9
$SURFTAB2
 70
     6
  9
$SURFTYPE
 70
     6
  9
$SURFU
 70
     6
  9
$SURFV
 70
     6
  9
$UCSNAME
  2

  9
$UCSORG
 10
0.0
 20
0.0
 30
0.0
  9
$UCSXDIR
 10
0.0
 20
-1.0
 30
0.0
  9
$UCSYDIR
 10
0.0
 20
0.0
 30
1.0
  9
$PUCSNAME
  2

  9
$PUCSORG
 10
0.0
 20
0.0
 30
0.0
  9
$PUCSXDIR
 10
1.0
 20
0.0
 30
0.0
  9
$PUCSYDIR
 10
0.0
 20
1.0
 30
0.0
  9
$USERI1
 70
     0
  9
$USERI2
 70
     0
  9
$USERI3
 70
     0
  9
$USERI4
 70
     0
  9
$USERI5
 70
     0
  9
$USERR1
 40
0.0
  9
$USERR2
 40
0.0
  9
$USERR3
 40
0.0
  9
$USERR4
 40
0.0
  9
$USERR5
 40
0.0
  9
$WORLDVIEW
 70
     1
  9
$SHADEDGE
 70
     3
  9
$SHADEDIF
 70
    70
  9
$TILEMODE
 70
     1
  9
$MAXACTVP
 70
    64
  9
$PLIMCHECK
 70
     0
  9
$PEXTMIN
 10
27.844751262664801
 20
20.161249995231621
 30
0.0
  9
$PEXTMAX
 10
250.60276136398309
 20
181.4512499570846
 30
0.0
  9
$PLIMMIN
 10
-3.757080078125
 20
-3.7570831775665279
  9
$PLIMMAX
 10
293.21124267578119
 20
206.21624445915219
  9
$UNITMODE
 70
     0
  9
$VISRETAIN
 70
     1
  9
$PLINEGEN
 70
     0
  9
$PSLTSCALE
 70
     1
  0
ENDSEC
  0
SECTION
  2
TABLES
  0
TABLE
  2
VPORT
 70
    92
  0
VPORT
  2
*ACTIVE
 70
     0
 10
0.0
 20
0.0
 11
1.0
 21
1.0
 12
4.5049176859762383
 22
-0.4850534096965245
 13
0.0
 23
0.0
 14
0.01
 24
0.01
 15
1.0
 25
1.0
 16
-1.0
 26
0.0
 36
0.0
 17
0.0
 27
0.0
 37
0.0
 40
14.14144715375487
 41
1.7606679035250461
 42
50.0
 43
0.0
 44
0.0
 50
0.0
 51
0.0
 71
     0
 72
   100
 73
     1
 74
     3
 75
     1
 76
     1
 77
     0
 78
     0
  0
ENDTAB
  0
TABLE
  2
LTYPE
 70
     1
  0
LTYPE
  2
CONTINUOUS
 70
     0
  3
Solid line
 72
    65
 73
     0
 40
0.0
  0
ENDTAB
  0
TABLE
  2
LAYER
 70
    12
  0
LAYER
  2
0
 70
     0
 62
     7
  6
CONTINUOUS
  0
LAYER
  2
DRAWING
 70
     0
 62
     9
  6
CONTINUOUS
  0
LAYER
  2
DR2
 70
     0
 62
    -9
  6
CONTINUOUS
  0
LAYER
  2
H2
 70
     0
 62
     7
  6
CONTINUOUS
  0
LAYER
  2
DR3
 70
     0
 62
    -9
  6
CONTINUOUS
  0
LAYER
  2
TURRET
 70
     0
 62
     2
  6
CONTINUOUS
  0
LAYER
  2
GUN
 70
     0
 62
     1
  6
CONTINUOUS
  0
LAYER
  2
SLEEVE
 70
     0
 62
     5
  6
CONTINUOUS
  0
LAYER
  2
RAILINGS
 70
     0
 62
     6
  6
CONTINUOUS
  0
LAYER
  2
R2
 70
     0
 62
     6
  6
CONTINUOUS
  0
LAYER
  2
BOATS
 70
     0
 62
     3
  6
CONTINUOUS
  0
ENDTAB
  0
TABLE
  2
STYLE
 70
     1
  0
STYLE
  2
STANDARD
 70
     0
 40
0.0
 41
1.0
 50
0.0
 71
     0
 42
2.5
  3
txt
  4

  0
ENDTAB
  0
TABLE
  2
VIEW
 70
     0
  0
ENDTAB
  0
TABLE
  2
UCS
 70
     0
  0
ENDTAB
  0
TABLE
  2
APPID
 70
     1
  0
APPID
  2
ACAD
 70
     0
  0
ENDTAB
  0
TABLE
  2
DIMSTYLE
 70
     1
  0
DIMSTYLE
  2
ISO-25
 70
     0
  3

  4

  5

  6

  7

 40
1.0
 41
2.5
 42
0.625
 43
3.75
 44
1.25
 45
0.0
 46
0.0
 47
0.0
 48
0.0
140
2.5
141
2.5
142
0.0
143
0.03937007874016
144
1.0
145
0.0
146
1.0
147
0.625
 71
     0
 72
     0
 73
     0
 74
     0
 75
     0
 76
     0
 77
     1
 78
     8
170
     0
171
     3
172
     1
173
     0
174
     0
175
     0
176
     0
177
     0
178
     0
  0
ENDTAB
  0
ENDSEC
  0
SECTION
  2
BLOCKS
  0
BLOCK
  8
0
  2
$MODEL_SPACE
 70
     0
 10
0.0
 20
0.0
 30
0.0
  3
$MODEL_SPACE
  1

  0
ENDBLK
  5
21
  8
0
  0
BLOCK
 67
     1
  8
0
  2
$PAPER_SPACE
 70
     0
 10
0.0
 20
0.0
 30
0.0
  3
$PAPER_SPACE
  1

  0
ENDBLK
  5
1D
 67
     1
  8
0
  0
ENDSEC
  0
SECTION
  2
ENTITIES
  0
3DFACE
  5
165E
  8
TURRET
 10
-0.5450609665440976
 20
3.1499999999999919
 30
0.7849390334559195
 11
-0.629999999999999
 21
3.1499999999999919
 31
0.9900000000000153
 12
-0.6299999999999989
 22
4.4200000000000017
 32
0.9900000000000153
 13
-0.5450609665440976
 23
3.260000000000006
 33
0.7849390334559195
  0
3DFACE
  5
165F
  8
TURRET
 10
-0.629999999999999
 20
3.1499999999999919
 30
0.9900000000000153
 11
-0.5450609665440976
 21
3.1499999999999919
 31
0.7849390334559195
 12
-0.5450609665440976
 22
3.260000000000006
 32
0.7849390334559195
 13
-0.6299999999999989
 23
4.4200000000000017
 33
0.9900000000000153
  0
3DFACE
  5
1660
  8
TURRET
 10
-0.0499999999999988
 20
3.1499999999999919
 30
0.9900000000000153
 11
-0.1349390334559
 21
3.1499999999999919
 31
0.7849390334559195
 12
-0.1349390334559
 22
3.260000000000006
 32
0.7849390334559195
 13
-0.0499999999999986
 23
4.4200000000000017
 33
0.9900000000000153
  0
3DFACE
  5
1661
  8
TURRET
 10
-0.1349390334559
 20
3.1499999999999919
 30
0.7849390334559195
 11
-0.0499999999999988
 21
3.1499999999999919
 31
0.9900000000000153
 12
-0.0499999999999986
 22
4.4200000000000017
 32
0.9900000000000153
 13
-0.1349390334559
 23
3.260000000000006
 33
0.7849390334559195
  0
3DFACE
  5
1662
  8
TURRET
 10
-0.1349390334559
 20
3.1499999999999919
 30
1.195060966544111
 11
-0.0499999999999988
 21
3.1499999999999919
 31
0.9900000000000153
 12
-0.0499999999999986
 22
4.4200000000000017
 32
0.9900000000000153
 13
-0.1349390334558997
 23
5.5799999999999992
 33
1.195060966544111
  0
3DFACE
  5
1663
  8
TURRET
 10
-0.3399999999999987
 20
3.1499999999999919
 30
1.2800000000000069
 11
-0.1349390334559
 21
3.1499999999999919
 31
1.195060966544111
 12
-0.1349390334558997
 22
5.5799999999999992
 32
1.195060966544111
 13
-0.3399999999999985
 23
5.5799999999999992
 33
1.2800000000000069
  0
3DFACE
  5
1664
  8
TURRET
 10
-0.5450609665440976
 20
3.1499999999999919
 30
1.195060966544111
 11
-0.3399999999999987
 21
3.1499999999999919
 31
1.2800000000000069
 12
-0.3399999999999985
 22
5.5799999999999992
 32
1.2800000000000069
 13
-0.5450609665440974
 23
5.5799999999999992
 33
1.195060966544111
  0
3DFACE
  5
1665
  8
TURRET
 10
-0.629999999999999
 20
3.1499999999999919
 30
0.9900000000000153
 11
-0.5450609665440976
 21
3.1499999999999919
 31
1.195060966544111
 12
-0.5450609665440974
 22
5.5799999999999992
 32
1.195060966544111
 13
-0.6299999999999989
 23
4.4200000000000017
 33
0.9900000000000153
  0
3DFACE
  5
1666
  8
TURRET
 10
-0.0499999999999988
 20
3.1499999999999919
 30
0.9900000000000153
 11
-0.1349390334559
 21
3.1499999999999919
 31
1.195060966544111
 12
-0.1349390334558997
 22
5.5799999999999992
 32
1.195060966544111
 13
-0.0499999999999986
 23
4.4200000000000017
 33
0.9900000000000153
  0
3DFACE
  5
1667
  8
TURRET
 10
-0.1349390334559
 20
3.1499999999999919
 30
1.195060966544111
 11
-0.3399999999999987
 21
3.1499999999999919
 31
1.2800000000000069
 12
-0.3399999999999985
 22
5.5799999999999992
 32
1.2800000000000069
 13
-0.1349390334558997
 23
5.5799999999999992
 33
1.195060966544111
  0
3DFACE
  5
1668
  8
TURRET
 10
-0.3399999999999987
 20
3.1499999999999919
 30
1.2800000000000069
 11
-0.5450609665440976
 21
3.1499999999999919
 31
1.195060966544111
 12
-0.5450609665440974
 22
5.5799999999999992
 32
1.195060966544111
 13
-0.3399999999999985
 23
5.5799999999999992
 33
1.2800000000000069
  0
3DFACE
  5
1669
  8
TURRET
 10
-0.5450609665440976
 20
3.1499999999999919
 30
1.195060966544111
 11
-0.629999999999999
 21
3.1499999999999919
 31
0.9900000000000153
 12
-0.6299999999999989
 22
4.4200000000000017
 32
0.9900000000000153
 13
-0.5450609665440974
 23
5.5799999999999992
 33
1.195060966544111
  0
3DFACE
  5
166A
  8
TURRET
 10
-0.3399999999999996
 20
-3.5199999999999951
 30
1.419999999999993
 11
-0.3699999999999996
 21
-3.5199999999999951
 31
1.449999999999994
 12
-0.3699999999999985
 22
5.4399999999999977
 32
1.449999999999994
 13
-0.3399999999999985
 23
5.4399999999999977
 33
1.419999999999993
  0
3DFACE
  5
166B
  8
TURRET
 10
-0.3099999999999996
 20
-3.5199999999999951
 30
1.449999999999994
 11
-0.3399999999999996
 21
-3.5199999999999951
 31
1.419999999999993
 12
-0.3399999999999985
 22
5.4399999999999977
 32
1.419999999999993
 13
-0.3099999999999984
 23
5.4399999999999977
 33
1.449999999999994
  0
3DFACE
  5
166C
  8
TURRET
 10
-0.3399999999999996
 20
-3.5199999999999951
 30
1.4799999999999951
 11
-0.3099999999999996
 21
-3.5199999999999951
 31
1.449999999999994
 12
-0.3099999999999984
 22
5.4399999999999977
 32
1.449999999999994
 13
-0.3399999999999985
 23
5.4399999999999977
 33
1.4799999999999951
  0
3DFACE
  5
166D
  8
TURRET
 10
-0.3699999999999996
 20
-3.5199999999999951
 30
1.449999999999994
 11
-0.3399999999999996
 21
-3.5199999999999951
 31
1.4799999999999951
 12
-0.3399999999999985
 22
5.4399999999999977
 32
1.4799999999999951
 13
-0.3699999999999985
 23
5.4399999999999977
 33
1.449999999999994
  0
3DFACE
  5
166E
  8
TURRET
 10
0.3100000000000004
 20
-3.5199999999999951
 30
1.449999999999994
 11
0.3400000000000005
 21
-3.5199999999999951
 31
1.4799999999999951
 12
0.3400000000000016
 22
5.4399999999999977
 32
1.4799999999999951
 13
0.3100000000000016
 23
5.4399999999999977
 33
1.449999999999994
  0
3DFACE
  5
166F
  8
TURRET
 10
0.3400000000000005
 20
-3.5199999999999951
 30
1.4799999999999951
 11
0.3700000000000005
 21
-3.5199999999999951
 31
1.449999999999994
 12
0.3700000000000016
 22
5.4399999999999977
 32
1.449999999999994
 13
0.3400000000000016
 23
5.4399999999999977
 33
1.4799999999999951
  0
3DFACE
  5
1670
  8
TURRET
 10
0.3700000000000005
 20
-3.5199999999999951
 30
1.449999999999994
 11
0.3400000000000005
 21
-3.5199999999999951
 31
1.419999999999993
 12
0.3400000000000016
 22
5.4399999999999977
 32
1.419999999999993
 13
0.3700000000000016
 23
5.4399999999999977
 33
1.449999999999994
  0
3DFACE
  5
1671
  8
TURRET
 10
0.3400000000000005
 20
-3.5199999999999951
 30
1.419999999999993
 11
0.3100000000000004
 21
-3.5199999999999951
 31
1.449999999999994
 12
0.3100000000000016
 22
5.4399999999999977
 32
1.449999999999994
 13
0.3400000000000016
 23
5.4399999999999977
 33
1.419999999999993
  0
3DFACE
  5
1672
  8
TURRET
 10
0.5450609665441001
 20
3.1499999999999919
 30
0.7849390334559195
 11
0.6300000000000015
 21
3.1499999999999919
 31
0.9900000000000153
 12
0.6300000000000015
 22
4.4200000000000017
 32
0.9900000000000153
 13
0.5450609665441001
 23
3.260000000000006
 33
0.7849390334559195
  0
3DFACE
  5
1673
  8
TURRET
 10
0.0500000000000012
 20
3.1499999999999919
 30
0.9900000000000153
 11
0.1349390334559025
 21
3.1499999999999919
 31
0.7849390334559195
 12
0.1349390334559025
 22
3.260000000000006
 32
0.7849390334559195
 13
0.0500000000000013
 23
4.4200000000000017
 33
0.9900000000000153
  0
3DFACE
  5
1674
  8
TURRET
 10
0.1349390334559025
 20
3.1499999999999919
 30
1.195060966544111
 11
0.0500000000000012
 21
3.1499999999999919
 31
0.9900000000000153
 12
0.0500000000000013
 22
4.4200000000000017
 32
0.9900000000000153
 13
0.1349390334559028
 23
5.5799999999999992
 33
1.195060966544111
  0
3DFACE
  5
1675
  8
TURRET
 10
0.3400000000000013
 20
3.1499999999999919
 30
1.2800000000000069
 11
0.1349390334559025
 21
3.1499999999999919
 31
1.195060966544111
 12
0.1349390334559028
 22
5.5799999999999992
 32
1.195060966544111
 13
0.3400000000000016
 23
5.5799999999999992
 33
1.2800000000000069
  0
3DFACE
  5
1676
  8
TURRET
 10
0.5450609665441001
 20
3.1499999999999919
 30
1.195060966544111
 11
0.3400000000000013
 21
3.1499999999999919
 31
1.2800000000000069
 12
0.3400000000000016
 22
5.5799999999999992
 32
1.2800000000000069
 13
0.5450609665441003
 23
5.5799999999999992
 33
1.195060966544111
  0
3DFACE
  5
1677
  8
TURRET
 10
0.6300000000000015
 20
3.1499999999999919
 30
0.9900000000000153
 11
0.5450609665441001
 21
3.1499999999999919
 31
1.195060966544111
 12
0.5450609665441003
 22
5.5799999999999992
 32
1.195060966544111
 13
0.6300000000000015
 23
4.4200000000000017
 33
0.9900000000000153
  0
3DFACE
  5
1678
  8
TURRET
 10
0.0500000000000012
 20
3.1499999999999919
 30
0.9900000000000153
 11
0.1349390334559025
 21
3.1499999999999919
 31
1.195060966544111
 12
0.1349390334559028
 22
5.5799999999999992
 32
1.195060966544111
 13
0.0500000000000013
 23
4.4200000000000017
 33
0.9900000000000153
  0
3DFACE
  5
1679
  8
TURRET
 10
0.1349390334559025
 20
3.1499999999999919
 30
1.195060966544111
 11
0.3400000000000013
 21
3.1499999999999919
 31
1.2800000000000069
 12
0.3400000000000016
 22
5.5799999999999992
 32
1.2800000000000069
 13
0.1349390334559028
 23
5.5799999999999992
 33
1.195060966544111
  0
3DFACE
  5
167A
  8
TURRET
 10
0.3400000000000013
 20
3.1499999999999919
 30
1.2800000000000069
 11
0.5450609665441001
 21
3.1499999999999919
 31
1.195060966544111
 12
0.5450609665441003
 22
5.5799999999999992
 32
1.195060966544111
 13
0.3400000000000016
 23
5.5799999999999992
 33
1.2800000000000069
  0
3DFACE
  5
167B
  8
TURRET
 10
0.5450609665441001
 20
3.1499999999999919
 30
1.195060966544111
 11
0.6300000000000015
 21
3.1499999999999919
 31
0.9900000000000153
 12
0.6300000000000015
 22
4.4200000000000017
 32
0.9900000000000153
 13
0.5450609665441003
 23
5.5799999999999992
 33
1.195060966544111
  0
3DFACE
  5
167C
  8
TURRET
 10
0.6300000000000015
 20
3.1499999999999919
 30
0.9900000000000153
 11
0.5450609665441001
 21
3.1499999999999919
 31
0.7849390334559195
 12
0.5450609665441001
 22
3.260000000000006
 32
0.7849390334559195
 13
0.6300000000000015
 23
4.4200000000000017
 33
0.9900000000000153
  0
3DFACE
  5
167D
  8
TURRET
 10
0.1349390334559025
 20
3.1499999999999919
 30
0.7849390334559195
 11
0.0500000000000012
 21
3.1499999999999919
 31
0.9900000000000153
 12
0.0500000000000013
 22
4.4200000000000017
 32
0.9900000000000153
 13
0.1349390334559025
 23
3.260000000000006
 33
0.7849390334559195
  0
3DFACE
  5
167E
  8
TURRET
 10
0.7849390334559026
 20
3.530000000000002
 30
0.7849390334559195
 11
0.7000000000000012
 21
3.530000000000002
 31
0.9900000000000153
 12
0.7000000000000015
 22
4.799999999999998
 32
0.9900000000000153
 13
0.7849390334559026
 23
3.640000000000001
 33
0.7849390334559195
  0
3DFACE
  5
167F
  8
TURRET
 10
1.2800000000000009
 20
3.530000000000002
 30
0.9900000000000153
 11
1.1950609665441001
 21
3.530000000000002
 31
0.7849390334559195
 12
1.1950609665441001
 22
3.640000000000001
 32
0.7849390334559195
 13
1.2800000000000009
 23
4.799999999999998
 33
0.9900000000000153
  0
3DFACE
  5
1680
  8
TURRET
 10
1.1950609665441001
 20
3.530000000000002
 30
1.195060966544111
 11
1.2800000000000009
 21
3.530000000000002
 31
0.9900000000000153
 12
1.2800000000000009
 22
4.799999999999998
 32
0.9900000000000153
 13
1.1950609665441001
 23
5.9599999999999937
 33
1.195060966544111
  0
3DFACE
  5
1681
  8
TURRET
 10
0.9900000000000012
 20
3.530000000000002
 30
1.2800000000000069
 11
1.1950609665441001
 21
3.530000000000002
 31
1.195060966544111
 12
1.1950609665441001
 22
5.9599999999999937
 32
1.195060966544111
 13
0.9900000000000016
 23
5.9599999999999937
 33
1.2800000000000069
  0
3DFACE
  5
1682
  8
TURRET
 10
0.7849390334559026
 20
3.530000000000002
 30
1.195060966544111
 11
0.9900000000000012
 21
3.530000000000002
 31
1.2800000000000069
 12
0.9900000000000016
 22
5.9599999999999937
 32
1.2800000000000069
 13
0.7849390334559028
 23
5.9599999999999937
 33
1.195060966544111
  0
3DFACE
  5
1683
  8
TURRET
 10
0.7000000000000012
 20
3.530000000000002
 30
0.9900000000000153
 11
0.7849390334559026
 21
3.530000000000002
 31
1.195060966544111
 12
0.7849390334559028
 22
5.9599999999999937
 32
1.195060966544111
 13
0.7000000000000015
 23
4.799999999999998
 33
0.9900000000000153
  0
3DFACE
  5
1684
  8
TURRET
 10
1.2800000000000009
 20
3.530000000000002
 30
0.9900000000000153
 11
1.1950609665441001
 21
3.530000000000002
 31
1.195060966544111
 12
1.1950609665441001
 22
5.9599999999999937
 32
1.195060966544111
 13
1.2800000000000009
 23
4.799999999999998
 33
0.9900000000000153
  0
3DFACE
  5
1685
  8
TURRET
 10
1.1950609665441001
 20
3.530000000000002
 30
1.195060966544111
 11
0.9900000000000012
 21
3.530000000000002
 31
1.2800000000000069
 12
0.9900000000000016
 22
5.9599999999999937
 32
1.2800000000000069
 13
1.1950609665441001
 23
5.9599999999999937
 33
1.195060966544111
  0
3DFACE
  5
1686
  8
TURRET
 10
0.9900000000000012
 20
3.530000000000002
 30
1.2800000000000069
 11
0.7849390334559026
 21
3.530000000000002
 31
1.195060966544111
 12
0.7849390334559028
 22
5.9599999999999937
 32
1.195060966544111
 13
0.9900000000000016
 23
5.9599999999999937
 33
1.2800000000000069
  0
3DFACE
  5
1687
  8
TURRET
 10
0.7849390334559026
 20
3.530000000000002
 30
1.195060966544111
 11
0.7000000000000012
 21
3.530000000000002
 31
0.9900000000000153
 12
0.7000000000000015
 22
4.799999999999998
 32
0.9900000000000153
 13
0.7849390334559028
 23
5.9599999999999937
 33
1.195060966544111
  0
3DFACE
  5
1688
  8
TURRET
 10
0.7000000000000012
 20
3.530000000000002
 30
0.9900000000000153
 11
0.7849390334559026
 21
3.530000000000002
 31
0.7849390334559195
 12
0.7849390334559026
 22
3.640000000000001
 32
0.7849390334559195
 13
0.7000000000000015
 23
4.799999999999998
 33
0.9900000000000153
  0
3DFACE
  5
1689
  8
TURRET
 10
1.1950609665441001
 20
3.530000000000002
 30
0.7849390334559195
 11
1.2800000000000009
 21
3.530000000000002
 31
0.9900000000000153
 12
1.2800000000000009
 22
4.799999999999998
 32
0.9900000000000153
 13
1.1950609665441001
 23
3.640000000000001
 33
0.7849390334559195
  0
3DFACE
  5
168A
  8
TURRET
 10
0.9900000000000003
 20
-3.1399999999999988
 30
1.419999999999993
 11
0.9600000000000004
 21
-3.1399999999999988
 31
1.449999999999994
 12
0.9600000000000015
 22
5.8200000000000083
 32
1.449999999999994
 13
0.9900000000000016
 23
5.8200000000000083
 33
1.419999999999993
  0
3DFACE
  5
168B
  8
TURRET
 10
1.02
 20
-3.1399999999999988
 30
1.449999999999994
 11
0.9900000000000003
 21
-3.1399999999999988
 31
1.419999999999993
 12
0.9900000000000016
 22
5.8200000000000083
 32
1.419999999999993
 13
1.0200000000000009
 23
5.8200000000000083
 33
1.449999999999994
  0
3DFACE
  5
168C
  8
TURRET
 10
0.9900000000000003
 20
-3.1399999999999988
 30
1.4799999999999951
 11
1.02
 21
-3.1399999999999988
 31
1.449999999999994
 12
1.0200000000000009
 22
5.8200000000000083
 32
1.449999999999994
 13
0.9900000000000016
 23
5.8200000000000083
 33
1.4799999999999951
  0
3DFACE
  5
168D
  8
TURRET
 10
0.9600000000000004
 20
-3.1399999999999988
 30
1.449999999999994
 11
0.9900000000000003
 21
-3.1399999999999988
 31
1.4799999999999951
 12
0.9900000000000016
 22
5.8200000000000083
 32
1.4799999999999951
 13
0.9600000000000015
 23
5.8200000000000083
 33
1.449999999999994
  0
3DFACE
  5
168E
  8
TURRET
 10
-0.7849390334559
 20
3.530000000000002
 30
0.7849390334559195
 11
-0.6999999999999989
 21
3.530000000000002
 31
0.9900000000000153
 12
-0.6999999999999985
 22
4.799999999999998
 32
0.9900000000000153
 13
-0.7849390334559
 23
3.640000000000001
 33
0.7849390334559195
  0
3DFACE
  5
168F
  8
TURRET
 10
-1.279999999999998
 20
3.530000000000002
 30
0.9900000000000153
 11
-1.195060966544097
 21
3.530000000000002
 31
0.7849390334559195
 12
-1.195060966544097
 22
3.640000000000001
 32
0.7849390334559195
 13
-1.279999999999998
 23
4.799999999999998
 33
0.9900000000000153
  0
3DFACE
  5
1690
  8
TURRET
 10
-1.195060966544097
 20
3.530000000000002
 30
1.195060966544111
 11
-1.279999999999998
 21
3.530000000000002
 31
0.9900000000000153
 12
-1.279999999999998
 22
4.799999999999998
 32
0.9900000000000153
 13
-1.195060966544097
 23
5.9599999999999937
 33
1.195060966544111
  0
3DFACE
  5
1691
  8
TURRET
 10
-0.9899999999999987
 20
3.530000000000002
 30
1.2800000000000069
 11
-1.195060966544097
 21
3.530000000000002
 31
1.195060966544111
 12
-1.195060966544097
 22
5.9599999999999937
 32
1.195060966544111
 13
-0.9899999999999984
 23
5.9599999999999937
 33
1.2800000000000069
  0
3DFACE
  5
1692
  8
TURRET
 10
-0.7849390334559
 20
3.530000000000002
 30
1.195060966544111
 11
-0.9899999999999987
 21
3.530000000000002
 31
1.2800000000000069
 12
-0.9899999999999984
 22
5.9599999999999937
 32
1.2800000000000069
 13
-0.7849390334558997
 23
5.9599999999999937
 33
1.195060966544111
  0
3DFACE
  5
1693
  8
TURRET
 10
-0.6999999999999989
 20
3.530000000000002
 30
0.9900000000000153
 11
-0.7849390334559
 21
3.530000000000002
 31
1.195060966544111
 12
-0.7849390334558997
 22
5.9599999999999937
 32
1.195060966544111
 13
-0.6999999999999985
 23
4.799999999999998
 33
0.9900000000000153
  0
3DFACE
  5
1694
  8
TURRET
 10
-1.195060966544097
 20
3.530000000000002
 30
0.7849390334559195
 11
-1.279999999999998
 21
3.530000000000002
 31
0.9900000000000153
 12
-1.279999999999998
 22
4.799999999999998
 32
0.9900000000000153
 13
-1.195060966544097
 23
3.640000000000001
 33
0.7849390334559195
  0
3DFACE
  5
1695
  8
TURRET
 10
-0.6999999999999989
 20
3.530000000000002
 30
0.9900000000000153
 11
-0.7849390334559
 21
3.530000000000002
 31
0.7849390334559195
 12
-0.7849390334559
 22
3.640000000000001
 32
0.7849390334559195
 13
-0.6999999999999985
 23
4.799999999999998
 33
0.9900000000000153
  0
3DFACE
  5
1696
  8
TURRET
 10
-0.7849390334559
 20
3.530000000000002
 30
1.195060966544111
 11
-0.6999999999999989
 21
3.530000000000002
 31
0.9900000000000153
 12
-0.6999999999999985
 22
4.799999999999998
 32
0.9900000000000153
 13
-0.7849390334558997
 23
5.9599999999999937
 33
1.195060966544111
  0
3DFACE
  5
1697
  8
TURRET
 10
-0.9899999999999987
 20
3.530000000000002
 30
1.2800000000000069
 11
-0.7849390334559
 21
3.530000000000002
 31
1.195060966544111
 12
-0.7849390334558997
 22
5.9599999999999937
 32
1.195060966544111
 13
-0.9899999999999984
 23
5.9599999999999937
 33
1.2800000000000069
  0
3DFACE
  5
1698
  8
TURRET
 10
-1.195060966544097
 20
3.530000000000002
 30
1.195060966544111
 11
-0.9899999999999987
 21
3.530000000000002
 31
1.2800000000000069
 12
-0.9899999999999984
 22
5.9599999999999937
 32
1.2800000000000069
 13
-1.195060966544097
 23
5.9599999999999937
 33
1.195060966544111
  0
3DFACE
  5
1699
  8
TURRET
 10
-1.279999999999998
 20
3.530000000000002
 30
0.9900000000000153
 11
-1.195060966544097
 21
3.530000000000002
 31
1.195060966544111
 12
-1.195060966544097
 22
5.9599999999999937
 32
1.195060966544111
 13
-1.279999999999998
 23
4.799999999999998
 33
0.9900000000000153
  0
3DFACE
  5
169A
  8
TURRET
 10
-0.9899999999999996
 20
-3.1399999999999988
 30
1.419999999999993
 11
-1.0199999999999989
 21
-3.1399999999999988
 31
1.449999999999994
 12
-1.019999999999998
 22
5.8200000000000083
 32
1.449999999999994
 13
-0.9899999999999984
 23
5.8200000000000083
 33
1.419999999999993
  0
3DFACE
  5
169B
  8
TURRET
 10
-0.9599999999999994
 20
-3.1399999999999988
 30
1.449999999999994
 11
-0.9899999999999996
 21
-3.1399999999999988
 31
1.419999999999993
 12
-0.9899999999999984
 22
5.8200000000000083
 32
1.419999999999993
 13
-0.9599999999999983
 23
5.8200000000000083
 33
1.449999999999994
  0
3DFACE
  5
169C
  8
TURRET
 10
-0.9899999999999996
 20
-3.1399999999999988
 30
1.4799999999999951
 11
-0.9599999999999994
 21
-3.1399999999999988
 31
1.449999999999994
 12
-0.9599999999999983
 22
5.8200000000000083
 32
1.449999999999994
 13
-0.9899999999999984
 23
5.8200000000000083
 33
1.4799999999999951
  0
3DFACE
  5
169D
  8
TURRET
 10
-1.0199999999999989
 20
-3.1399999999999988
 30
1.449999999999994
 11
-0.9899999999999996
 21
-3.1399999999999988
 31
1.4799999999999951
 12
-0.9899999999999984
 22
5.8200000000000083
 32
1.4799999999999951
 13
-1.019999999999998
 23
5.8200000000000083
 33
1.449999999999994
  0
3DFACE
  5
169E
  8
TURRET
 10
-0.3400000000000021
 20
5.3200000000000083
 30
1.28
 11
-0.3400000000000021
 21
5.3900000000000006
 31
1.28
 12
-0.3400000000000021
 22
5.3900000000000006
 32
1.419999999999993
 13
-0.3400000000000021
 23
5.3200000000000083
 33
1.419999999999993
  0
3DFACE
  5
169F
  8
TURRET
 10
-0.3400000000000021
 20
5.3200000000000083
 30
1.419999999999993
 11
-0.3400000000000021
 21
5.3900000000000006
 31
1.419999999999993
 12
-0.3400000000000021
 22
5.3900000000000006
 32
1.28
 13
-0.3400000000000021
 23
5.3200000000000083
 33
1.28
  0
3DFACE
  5
16A0
  8
TURRET
 10
-0.3400000000000021
 20
4.730000000000004
 30
1.419999999999993
 11
-0.3400000000000021
 21
4.799999999999998
 31
1.419999999999993
 12
-0.3400000000000021
 22
4.799999999999998
 32
1.28
 13
-0.3400000000000021
 23
4.730000000000004
 33
1.28
  0
3DFACE
  5
16A1
  8
TURRET
 10
-0.3400000000000021
 20
4.730000000000004
 30
1.28
 11
-0.3400000000000021
 21
4.799999999999998
 31
1.28
 12
-0.3400000000000021
 22
4.799999999999998
 32
1.419999999999993
 13
-0.3400000000000021
 23
4.730000000000004
 33
1.419999999999993
  0
3DFACE
  5
16A2
  8
TURRET
 10
0.3399999999999979
 20
4.730000000000004
 30
1.28
 11
0.3399999999999979
 21
4.799999999999998
 31
1.28
 12
0.3399999999999979
 22
4.799999999999998
 32
1.419999999999993
 13
0.3399999999999979
 23
4.730000000000004
 33
1.419999999999993
  0
3DFACE
  5
16A3
  8
TURRET
 10
0.3399999999999979
 20
4.730000000000004
 30
1.419999999999993
 11
0.3399999999999979
 21
4.799999999999998
 31
1.419999999999993
 12
0.3399999999999979
 22
4.799999999999998
 32
1.28
 13
0.3399999999999979
 23
4.730000000000004
 33
1.28
  0
3DFACE
  5
16A4
  8
TURRET
 10
0.339999999999998
 20
5.3200000000000083
 30
1.419999999999993
 11
0.339999999999998
 21
5.3900000000000006
 31
1.419999999999993
 12
0.339999999999998
 22
5.3900000000000006
 32
1.28
 13
0.339999999999998
 23
5.3200000000000083
 33
1.28
  0
3DFACE
  5
16A5
  8
TURRET
 10
0.339999999999998
 20
5.3200000000000083
 30
1.28
 11
0.339999999999998
 21
5.3900000000000006
 31
1.28
 12
0.339999999999998
 22
5.3900000000000006
 32
1.419999999999993
 13
0.339999999999998
 23
5.3200000000000083
 33
1.419999999999993
  0
3DFACE
  5
16A6
  8
TURRET
 10
0.989999999999998
 20
5.7000000000000028
 30
1.28
 11
0.989999999999998
 21
5.769999999999996
 31
1.28
 12
0.989999999999998
 22
5.769999999999996
 32
1.419999999999993
 13
0.989999999999998
 23
5.7000000000000028
 33
1.419999999999993
  0
3DFACE
  5
16A7
  8
TURRET
 10
0.989999999999998
 20
5.7000000000000028
 30
1.419999999999993
 11
0.989999999999998
 21
5.769999999999996
 31
1.419999999999993
 12
0.989999999999998
 22
5.769999999999996
 32
1.28
 13
0.989999999999998
 23
5.7000000000000028
 33
1.28
  0
3DFACE
  5
16A8
  8
TURRET
 10
0.9899999999999979
 20
5.1100000000000003
 30
1.419999999999993
 11
0.9899999999999979
 21
5.1799999999999926
 31
1.419999999999993
 12
0.9899999999999979
 22
5.1799999999999926
 32
1.28
 13
0.9899999999999979
 23
5.1100000000000003
 33
1.28
  0
3DFACE
  5
16A9
  8
TURRET
 10
0.9899999999999979
 20
5.1100000000000003
 30
1.28
 11
0.9899999999999979
 21
5.1799999999999926
 31
1.28
 12
0.9899999999999979
 22
5.1799999999999926
 32
1.419999999999993
 13
0.9899999999999979
 23
5.1100000000000003
 33
1.419999999999993
  0
3DFACE
  5
16AA
  8
TURRET
 10
-0.9900000000000021
 20
5.1100000000000003
 30
1.28
 11
-0.9900000000000021
 21
5.1799999999999926
 31
1.28
 12
-0.9900000000000021
 22
5.1799999999999926
 32
1.419999999999993
 13
-0.9900000000000021
 23
5.1100000000000003
 33
1.419999999999993
  0
3DFACE
  5
16AB
  8
TURRET
 10
-0.9900000000000021
 20
5.1100000000000003
 30
1.419999999999993
 11
-0.9900000000000021
 21
5.1799999999999926
 31
1.419999999999993
 12
-0.9900000000000021
 22
5.1799999999999926
 32
1.28
 13
-0.9900000000000021
 23
5.1100000000000003
 33
1.28
  0
3DFACE
  5
16AC
  8
TURRET
 10
-0.9900000000000019
 20
5.7000000000000028
 30
1.419999999999993
 11
-0.9900000000000019
 21
5.769999999999996
 31
1.419999999999993
 12
-0.9900000000000019
 22
5.769999999999996
 32
1.28
 13
-0.9900000000000019
 23
5.7000000000000028
 33
1.28
  0
3DFACE
  5
16AD
  8
TURRET
 10
-0.9900000000000019
 20
5.7000000000000028
 30
1.28
 11
-0.9900000000000019
 21
5.769999999999996
 31
1.28
 12
-0.9900000000000019
 22
5.769999999999996
 32
1.419999999999993
 13
-0.9900000000000019
 23
5.7000000000000028
 33
1.419999999999993
  0
3DFACE
  5
16AE
  8
TURRET
 10
0.7000000000000157
 20
3.530000000000002
 30
0.9900000000000224
 11
1.195060966544107
 21
3.530000000000002
 31
0.7849390334559409
 12
0.990000000000027
 22
3.530000000000002
 32
0.7000000000000091
 13
0.7849390334558936
 23
3.530000000000002
 33
0.7849390334559195
  0
3DFACE
  5
16AF
  8
TURRET
 10
0.7849390334559026
 20
3.530000000000002
 30
1.1950609665440961
 11
1.279999999999994
 21
3.530000000000002
 31
0.9900000000000153
 12
1.1950609665441081
 22
3.530000000000002
 32
0.7849390334559195
 13
0.6999999999999984
 23
3.530000000000002
 33
0.9900000000000011
  0
3DFACE
  5
16B0
  8
TURRET
 10
0.9899999999999926
 20
3.530000000000002
 30
1.28
 11
1.195060966544091
 21
3.530000000000002
 31
1.1950609665440961
 12
1.2800000000000009
 22
3.530000000000002
 32
0.9900000000000153
 13
0.7849390334559026
 23
3.530000000000002
 33
1.195060966544111
  0
3DFACE
  5
16B1
  8
TURRET
 10
1.1950609665441001
 20
3.530000000000002
 30
0.7849390334559195
 11
0.9900000000000012
 21
3.530000000000002
 31
0.7000000000000233
 12
0.9900000000000012
 22
3.530000000000002
 32
0.7000000000000233
 13
1.1950609665441001
 23
3.640000000000001
 33
0.7849390334559195
  0
3DFACE
  5
16B2
  8
TURRET
 10
0.9900000000000012
 20
3.530000000000002
 30
0.7000000000000233
 11
1.1950609665441001
 21
3.530000000000002
 31
0.7849390334559195
 12
1.1950609665441001
 22
3.640000000000001
 32
0.7849390334559195
 13
0.9900000000000012
 23
3.530000000000002
 33
0.7000000000000233
  0
3DFACE
  5
16B3
  8
TURRET
 10
1.195060966544099
 20
-3.1399999999999988
 30
0.7849390334558981
 11
0.9900000000000003
 21
-3.1399999999999988
 31
0.6999999999999949
 12
0.9900000000000012
 22
3.530000000000002
 32
0.6999999999999949
 13
1.1950609665441001
 23
3.530000000000002
 33
0.7849390334558981
  0
3DFACE
  5
16B4
  8
TURRET
 10
0.9900000000000003
 20
-3.1399999999999988
 30
1.2799999999999929
 11
1.195060966544099
 21
-3.1399999999999988
 31
1.1950609665440961
 12
1.1950609665441001
 22
3.530000000000002
 32
1.1950609665440961
 13
0.9900000000000012
 23
3.530000000000002
 33
1.2799999999999929
  0
3DFACE
  5
16B5
  8
TURRET
 10
1.1675880063517801
 20
-3.285000000000009
 30
1.167588006351777
 11
1.195060966544099
 21
-3.1399999999999988
 31
1.1950609665440961
 12
0.9900000000000003
 22
-3.1399999999999988
 32
1.2799999999999929
 13
0.9900000000000003
 23
-3.285000000000009
 33
1.2411473670974811
  0
3DFACE
  5
16B6
  8
TURRET
 10
1.0925304832720479
 20
-3.3911473670974872
 30
1.092530483272049
 11
1.1675880063517801
 21
-3.285000000000009
 31
1.167588006351777
 12
0.9900000000000003
 22
-3.285000000000009
 32
1.2411473670974811
 13
0.9900000000000003
 23
-3.3911473670974872
 33
1.1349999999999969
  0
3DFACE
  5
16B7
  8
TURRET
 10
0.9900000000000003
 20
-3.4299999999999908
 30
0.9900000000000011
 11
1.0925304832720479
 21
-3.3911473670974872
 31
1.092530483272049
 12
0.9900000000000003
 22
-3.3911473670974872
 32
1.1349999999999969
 13
0.9900000000000003
 23
-3.4299999999999908
 33
0.9900000000000011
  0
3DFACE
  5
16B8
  8
TURRET
 10
0.9900000000000003
 20
-3.4299999999999908
 30
0.9900000000000011
 11
1.135
 21
-3.3911473670974872
 31
0.9900000000000011
 12
1.0925304832720479
 22
-3.3911473670974872
 32
1.092530483272049
 13
0.9900000000000003
 23
-3.4299999999999908
 33
0.9900000000000011
  0
3DFACE
  5
16B9
  8
TURRET
 10
0.9900000000000003
 20
-3.4299999999999908
 30
0.9900000000000011
 11
1.0925304832720479
 21
-3.3911473670974872
 31
0.887469516727953
 12
1.135
 22
-3.3911473670974872
 32
0.9900000000000011
 13
0.9900000000000003
 23
-3.4299999999999908
 33
0.9900000000000011
  0
3DFACE
  5
16BA
  8
TURRET
 10
0.9900000000000003
 20
-3.285000000000009
 30
0.7388526329025132
 11
0.9900000000000003
 21
-3.1399999999999988
 31
0.6999999999999949
 12
1.195060966544099
 22
-3.1399999999999988
 32
0.7849390334558981
 13
1.1675880063517801
 23
-3.285000000000009
 33
0.8124119936482179
  0
3DFACE
  5
16BB
  8
TURRET
 10
0.9900000000000003
 20
-3.3911473670974872
 30
0.8449999999999979
 11
0.9900000000000003
 21
-3.285000000000009
 31
0.7388526329025132
 12
1.1675880063517801
 22
-3.285000000000009
 32
0.8124119936482179
 13
1.0925304832720479
 23
-3.3911473670974872
 33
0.887469516727953
  0
3DFACE
  5
16BC
  8
TURRET
 10
0.9900000000000003
 20
-3.4299999999999908
 30
0.9900000000000011
 11
0.9900000000000003
 21
-3.3911473670974872
 31
0.8449999999999979
 12
1.0925304832720479
 22
-3.3911473670974872
 32
0.887469516727953
 13
0.9900000000000003
 23
-3.4299999999999908
 33
0.9900000000000011
  0
3DFACE
  5
16BD
  8
TURRET
 10
1.3899999999999999
 20
0.0000000000000009
 30
0.6599999999999993
 11
-0.9828784258492999
 21
0.9828784258493081
 31
0.6599999999999993
 12
-1.389999999999999
 22
0.0000000000000009
 32
0.6599999999999993
 13
0.9828784258493016
 23
-0.9828784258493064
 33
0.6599999999999993
  0
3DFACE
  5
16BE
  8
TURRET
 10
0.9828784258493021
 20
0.9828784258493081
 30
0.6599999999999993
 11
0.0000000000000013
 21
1.390000000000001
 31
0.6599999999999993
 12
-0.9828784258493
 22
0.9828784258493081
 32
0.6599999999999993
 13
1.3899999999999999
 23
0.0000000000000009
 33
0.6599999999999993
  0
3DFACE
  5
16BF
  8
TURRET
 10
1.3899999999999999
 20
0.0000000000000009
 30
0.5499999999999999
 11
0.9828784258493021
 21
0.9828784258493081
 31
0.5499999999999999
 12
0.9828784258493021
 22
0.9828784258493081
 32
0.6599999999999993
 13
1.3899999999999999
 23
0.0000000000000009
 33
0.6599999999999993
  0
3DFACE
  5
16C0
  8
TURRET
 10
0.9828784258493016
 20
-0.9828784258493064
 30
0.5499999999999999
 11
1.3899999999999999
 21
0.0000000000000009
 31
0.5499999999999999
 12
1.3899999999999999
 22
0.0000000000000009
 32
0.6599999999999993
 13
0.9828784258493016
 23
-0.9828784258493064
 33
0.6599999999999993
  0
3DFACE
  5
16C1
  8
TURRET
 10
1.29
 20
0.0000000000000009
 30
0.3500000000000005
 11
0.9121677477306474
 21
0.91216774773065
 31
0.3500000000000005
 12
0.9828784258493021
 22
0.9828784258493081
 32
0.5499999999999999
 13
1.3899999999999999
 23
0.0000000000000009
 33
0.5499999999999999
  0
3DFACE
  5
16C2
  8
TURRET
 10
0.9121677477306469
 20
-0.9121677477306482
 30
0.3500000000000005
 11
1.29
 21
0.0000000000000009
 31
0.3500000000000005
 12
1.3899999999999999
 22
0.0000000000000009
 32
0.5499999999999999
 13
0.9828784258493016
 23
-0.9828784258493064
 33
0.5499999999999999
  0
3DFACE
  5
16C3
  8
TURRET
 10
1.29
 20
0.0000000000000009
 30
-0.0000000000000009
 11
0.9121677477306474
 21
0.91216774773065
 31
-0.0000000000000009
 12
0.9121677477306474
 22
0.91216774773065
 32
0.3500000000000005
 13
1.29
 23
0.0000000000000009
 33
0.3500000000000005
  0
3DFACE
  5
16C4
  8
TURRET
 10
0.9121677477306469
 20
-0.9121677477306482
 30
-0.0000000000000009
 11
1.29
 21
0.0000000000000009
 31
-0.0000000000000009
 12
1.29
 22
0.0000000000000009
 32
0.3500000000000005
 13
0.9121677477306469
 23
-0.9121677477306482
 33
0.3500000000000005
  0
3DFACE
  5
16C5
  8
TURRET
 10
1.28
 20
-3.1399999999999988
 30
0.9900000000000011
 11
1.195060966544099
 21
-3.1399999999999988
 31
0.7849390334558981
 12
1.1950609665441001
 22
3.530000000000002
 32
0.7849390334558981
 13
1.2800000000000009
 23
3.530000000000002
 33
0.9900000000000011
  0
3DFACE
  5
16C6
  8
TURRET
 10
1.195060966544099
 20
-3.1399999999999988
 30
1.1950609665440961
 11
1.28
 21
-3.1399999999999988
 31
0.9900000000000011
 12
1.2800000000000009
 22
3.530000000000002
 32
0.9900000000000011
 13
1.1950609665441001
 23
3.530000000000002
 33
1.1950609665440961
  0
3DFACE
  5
16C7
  8
TURRET
 10
1.2411473670974871
 20
-3.285000000000009
 30
0.9900000000000011
 11
1.28
 21
-3.1399999999999988
 31
0.9900000000000011
 12
1.195060966544099
 22
-3.1399999999999988
 32
1.1950609665440961
 13
1.1675880063517801
 23
-3.285000000000009
 33
1.167588006351777
  0
3DFACE
  5
16C8
  8
TURRET
 10
1.135
 20
-3.3911473670974872
 30
0.9900000000000011
 11
1.2411473670974871
 21
-3.285000000000009
 31
0.9900000000000011
 12
1.1675880063517801
 22
-3.285000000000009
 32
1.167588006351777
 13
1.0925304832720479
 23
-3.3911473670974872
 33
1.092530483272049
  0
3DFACE
  5
16C9
  8
TURRET
 10
1.1675880063517801
 20
-3.285000000000009
 30
0.8124119936482179
 11
1.195060966544099
 21
-3.1399999999999988
 31
0.7849390334558981
 12
1.28
 22
-3.1399999999999988
 32
0.9900000000000011
 13
1.2411473670974871
 23
-3.285000000000009
 33
0.9900000000000011
  0
3DFACE
  5
16CA
  8
TURRET
 10
1.0925304832720479
 20
-3.3911473670974872
 30
0.887469516727953
 11
1.1675880063517801
 21
-3.285000000000009
 31
0.8124119936482179
 12
1.2411473670974871
 22
-3.285000000000009
 32
0.9900000000000011
 13
1.135
 23
-3.3911473670974872
 33
0.9900000000000011
  0
3DFACE
  5
16CB
  8
TURRET
 10
0.6505382386916251
 20
3.230538238691623
 30
1.289999999999998
 11
0.0000000000000014
 21
3.5
 31
1.289999999999998
 12
0.0000000000000014
 22
3.5
 32
2.1500000000000008
 13
0.6505382386916251
 23
3.230538238691623
 33
2.1500000000000008
  0
3DFACE
  5
16CC
  8
TURRET
 10
0.9200000000000012
 20
2.5799999999999992
 30
1.289999999999998
 11
0.6505382386916251
 21
3.230538238691623
 31
1.289999999999998
 12
0.6505382386916251
 22
3.230538238691623
 32
2.1500000000000008
 13
0.9200000000000012
 23
2.5799999999999992
 33
2.1500000000000008
  0
3DFACE
  5
16CD
  8
TURRET
 10
0.6505382386916248
 20
1.9294617613083751
 30
1.289999999999998
 11
0.9200000000000012
 21
2.5799999999999992
 31
1.289999999999998
 12
0.9200000000000012
 22
2.5799999999999992
 32
2.1500000000000008
 13
0.6505382386916248
 23
1.9294617613083751
 33
2.1500000000000008
  0
3DFACE
  5
16CE
  8
TURRET
 10
0.000000000000001
 20
1.659999999999997
 30
1.289999999999998
 11
0.6505382386916248
 21
1.9294617613083751
 31
1.289999999999998
 12
0.6505382386916248
 22
1.9294617613083751
 32
2.1500000000000008
 13
0.000000000000001
 23
1.659999999999997
 33
2.1500000000000008
  0
3DFACE
  5
16CF
  8
TURRET
 10
-0.6505382386916228
 20
1.9294617613083751
 30
1.289999999999998
 11
0.000000000000001
 21
1.659999999999997
 31
1.289999999999998
 12
0.000000000000001
 22
1.659999999999997
 32
2.1500000000000008
 13
-0.6505382386916228
 23
1.9294617613083751
 33
2.1500000000000008
  0
3DFACE
  5
16D0
  8
TURRET
 10
-0.9199999999999988
 20
2.5799999999999992
 30
1.289999999999998
 11
-0.6505382386916228
 21
1.9294617613083751
 31
1.289999999999998
 12
-0.6505382386916228
 22
1.9294617613083751
 32
2.1500000000000008
 13
-0.9199999999999988
 23
2.5799999999999992
 33
2.1500000000000008
  0
3DFACE
  5
16D1
  8
TURRET
 10
-0.3399999999999987
 20
3.1499999999999919
 30
0.7000000000000233
 11
-0.5450609665440976
 21
3.1499999999999919
 31
0.7849390334559195
 12
-0.5450609665440976
 22
3.260000000000006
 32
0.7849390334559195
 13
-0.3399999999999987
 23
3.1499999999999919
 33
0.7000000000000233
  0
3DFACE
  5
16D2
  8
TURRET
 10
-0.5450609665440976
 20
3.1499999999999919
 30
0.7849390334559195
 11
-0.3399999999999987
 21
3.1499999999999919
 31
0.7000000000000233
 12
-0.3399999999999987
 22
3.1499999999999919
 32
0.7000000000000233
 13
-0.5450609665440976
 23
3.260000000000006
 33
0.7849390334559195
  0
3DFACE
  5
16D3
  8
TURRET
 10
-0.6299999999999845
 20
3.1499999999999919
 30
0.9900000000000224
 11
-0.1349390334558927
 21
3.1499999999999919
 31
0.7849390334559409
 12
-0.339999999999973
 22
3.1499999999999919
 32
0.7000000000000091
 13
-0.5450609665441065
 23
3.1499999999999919
 33
0.7849390334559195
  0
3DFACE
  5
16D4
  8
TURRET
 10
-0.1349390334559
 20
3.1499999999999919
 30
0.7849390334559195
 11
-0.3399999999999988
 21
3.1499999999999919
 31
0.7000000000000233
 12
-0.3399999999999988
 22
3.1499999999999919
 32
0.7000000000000233
 13
-0.1349390334559
 23
3.260000000000006
 33
0.7849390334559195
  0
3DFACE
  5
16D5
  8
TURRET
 10
-0.3399999999999988
 20
3.1499999999999919
 30
0.7000000000000233
 11
-0.1349390334559
 21
3.1499999999999919
 31
0.7849390334559195
 12
-0.1349390334559
 22
3.260000000000006
 32
0.7849390334559195
 13
-0.3399999999999988
 23
3.1499999999999919
 33
0.7000000000000233
  0
3DFACE
  5
16D6
  8
TURRET
 10
-0.5450609665440978
 20
3.1499999999999919
 30
1.1950609665440961
 11
-0.0500000000000059
 21
3.1499999999999919
 31
0.9900000000000153
 12
-0.1349390334558911
 22
3.1499999999999919
 32
0.7849390334559195
 13
-0.6300000000000018
 23
3.1499999999999919
 33
0.9900000000000011
  0
3DFACE
  5
16D7
  8
TURRET
 10
-0.3400000000000074
 20
3.1499999999999919
 30
1.28
 11
-0.1349390334559086
 21
3.1499999999999919
 31
1.1950609665440961
 12
-0.0499999999999988
 22
3.1499999999999919
 32
0.9900000000000153
 13
-0.5450609665440978
 23
3.1499999999999919
 33
1.195060966544111
  0
3DFACE
  5
16D8
  8
TURRET
 10
-0.3400000000000023
 20
3.9399999999999982
 30
1.28
 11
-0.3400000000000023
 21
4.010000000000006
 31
1.28
 12
-0.3400000000000023
 22
4.010000000000006
 32
1.419999999999993
 13
-0.3400000000000023
 23
3.9399999999999982
 33
1.419999999999993
  0
3DFACE
  5
16D9
  8
TURRET
 10
-0.3400000000000023
 20
3.9399999999999982
 30
1.419999999999993
 11
-0.3400000000000023
 21
4.010000000000006
 31
1.419999999999993
 12
-0.3400000000000023
 22
4.010000000000006
 32
1.28
 13
-0.3400000000000023
 23
3.9399999999999982
 33
1.28
  0
3DFACE
  5
16DA
  8
TURRET
 10
-0.3400000000000023
 20
3.269999999999996
 30
1.419999999999993
 11
-0.3400000000000023
 21
3.3399999999999901
 31
1.419999999999993
 12
-0.3400000000000023
 22
3.3399999999999901
 32
1.28
 13
-0.3400000000000023
 23
3.269999999999996
 33
1.28
  0
3DFACE
  5
16DB
  8
TURRET
 10
-0.3400000000000023
 20
3.269999999999996
 30
1.28
 11
-0.3400000000000023
 21
3.3399999999999901
 31
1.28
 12
-0.3400000000000023
 22
3.3399999999999901
 32
1.419999999999993
 13
-0.3400000000000023
 23
3.269999999999996
 33
1.419999999999993
  0
3DFACE
  5
16DC
  8
TURRET
 10
-0.340000000000003
 20
-2.1099999999999981
 30
1.28
 11
-0.340000000000003
 21
-2.0400000000000049
 31
1.28
 12
-0.340000000000003
 22
-2.0400000000000049
 32
1.419999999999993
 13
-0.340000000000003
 23
-2.1099999999999981
 33
1.419999999999993
  0
3DFACE
  5
16DD
  8
TURRET
 10
-0.340000000000003
 20
-2.1099999999999981
 30
1.419999999999993
 11
-0.340000000000003
 21
-2.0400000000000049
 31
1.419999999999993
 12
-0.340000000000003
 22
-2.0400000000000049
 32
1.28
 13
-0.340000000000003
 23
-2.1099999999999981
 33
1.28
  0
3DFACE
  5
16DE
  8
TURRET
 10
-0.1349390334559008
 20
-3.5199999999999951
 30
0.7849390334558981
 11
-0.3399999999999996
 21
-3.5199999999999951
 31
0.6999999999999949
 12
-0.3399999999999987
 22
3.1499999999999919
 32
0.6999999999999949
 13
-0.1349390334559
 23
3.1499999999999919
 33
0.7849390334558981
  0
3DFACE
  5
16DF
  8
TURRET
 10
-0.3399999999999996
 20
-3.5199999999999951
 30
1.2799999999999929
 11
-0.1349390334559008
 21
-3.5199999999999951
 31
1.1950609665440961
 12
-0.1349390334559
 22
3.1499999999999919
 32
1.1950609665440961
 13
-0.3399999999999987
 23
3.1499999999999919
 33
1.2799999999999929
  0
3DFACE
  5
16E0
  8
TURRET
 10
-0.16241199364822
 20
-3.6650000000000049
 30
1.167588006351777
 11
-0.1349390334559001
 21
-3.5199999999999951
 31
1.1950609665440961
 12
-0.3399999999999996
 22
-3.5199999999999951
 32
1.2799999999999929
 13
-0.3399999999999996
 23
-3.6650000000000049
 33
1.2411473670974811
  0
3DFACE
  5
16E1
  8
TURRET
 10
-0.2374695167279517
 20
-3.7711473670974969
 30
1.092530483272049
 11
-0.16241199364822
 21
-3.6650000000000049
 31
1.167588006351777
 12
-0.3399999999999996
 22
-3.6650000000000049
 32
1.2411473670974811
 13
-0.3399999999999996
 23
-3.7711473670974969
 33
1.1349999999999969
  0
3DFACE
  5
16E2
  8
TURRET
 10
-0.3399999999999996
 20
-3.8100000000000009
 30
0.9900000000000011
 11
-0.2374695167279517
 21
-3.7711473670974969
 31
1.092530483272049
 12
-0.3399999999999996
 22
-3.7711473670974969
 32
1.1349999999999969
 13
-0.3399999999999996
 23
-3.8100000000000009
 33
0.9900000000000011
  0
3DFACE
  5
16E3
  8
TURRET
 10
-0.3399999999999996
 20
-3.8100000000000009
 30
0.9900000000000011
 11
-0.1949999999999998
 21
-3.7711473670974969
 31
0.9900000000000011
 12
-0.2374695167279517
 22
-3.7711473670974969
 32
1.092530483272049
 13
-0.3399999999999996
 23
-3.8100000000000009
 33
0.9900000000000011
  0
3DFACE
  5
16E4
  8
TURRET
 10
-0.3399999999999996
 20
-3.8100000000000009
 30
0.9900000000000011
 11
-0.2374695167279517
 21
-3.7711473670974969
 31
0.887469516727953
 12
-0.1949999999999998
 22
-3.7711473670974969
 32
0.9900000000000011
 13
-0.3399999999999996
 23
-3.8100000000000009
 33
0.9900000000000011
  0
3DFACE
  5
16E5
  8
TURRET
 10
-0.3399999999999996
 20
-3.6650000000000049
 30
0.7388526329025132
 11
-0.3399999999999996
 21
-3.5199999999999951
 31
0.6999999999999949
 12
-0.1349390334559001
 22
-3.5199999999999951
 32
0.7849390334558981
 13
-0.16241199364822
 23
-3.6650000000000049
 33
0.8124119936482179
  0
3DFACE
  5
16E6
  8
TURRET
 10
-0.3399999999999996
 20
-3.7711473670974969
 30
0.8449999999999979
 11
-0.3399999999999996
 21
-3.6650000000000049
 31
0.7388526329025132
 12
-0.16241199364822
 22
-3.6650000000000049
 32
0.8124119936482179
 13
-0.2374695167279517
 23
-3.7711473670974969
 33
0.887469516727953
  0
3DFACE
  5
16E7
  8
TURRET
 10
-0.3399999999999996
 20
-3.8100000000000009
 30
0.9900000000000011
 11
-0.3399999999999996
 21
-3.7711473670974969
 31
0.8449999999999979
 12
-0.2374695167279517
 22
-3.7711473670974969
 32
0.887469516727953
 13
-0.3399999999999996
 23
-3.8100000000000009
 33
0.9900000000000011
  0
3DFACE
  5
16E8
  8
TURRET
 10
-0.0499999999999996
 20
-3.5199999999999951
 30
0.9900000000000011
 11
-0.1349390334559008
 21
-3.5199999999999951
 31
0.7849390334558981
 12
-0.1349390334559
 22
3.1499999999999919
 32
0.7849390334558981
 13
-0.0499999999999988
 23
3.1499999999999919
 33
0.9900000000000011
  0
3DFACE
  5
16E9
  8
TURRET
 10
-0.1349390334559008
 20
-3.5199999999999951
 30
1.1950609665440961
 11
-0.0499999999999996
 21
-3.5199999999999951
 31
0.9900000000000011
 12
-0.0499999999999988
 22
3.1499999999999919
 32
0.9900000000000011
 13
-0.1349390334559
 23
3.1499999999999919
 33
1.1950609665440961
  0
3DFACE
  5
16EA
  8
TURRET
 10
-0.0888526329025125
 20
-3.6650000000000049
 30
0.9900000000000011
 11
-0.0499999999999996
 21
-3.5199999999999951
 31
0.9900000000000011
 12
-0.1349390334559001
 22
-3.5199999999999951
 32
1.1950609665440961
 13
-0.16241199364822
 23
-3.6650000000000049
 33
1.167588006351777
  0
3DFACE
  5
16EB
  8
TURRET
 10
-0.1949999999999998
 20
-3.7711473670974969
 30
0.9900000000000011
 11
-0.0888526329025125
 21
-3.6650000000000049
 31
0.9900000000000011
 12
-0.16241199364822
 22
-3.6650000000000049
 32
1.167588006351777
 13
-0.2374695167279517
 23
-3.7711473670974969
 33
1.092530483272049
  0
3DFACE
  5
16EC
  8
TURRET
 10
-0.16241199364822
 20
-3.6650000000000049
 30
0.8124119936482179
 11
-0.1349390334559001
 21
-3.5199999999999951
 31
0.7849390334558981
 12
-0.0499999999999996
 22
-3.5199999999999951
 32
0.9900000000000011
 13
-0.0888526329025125
 23
-3.6650000000000049
 33
0.9900000000000011
  0
3DFACE
  5
16ED
  8
TURRET
 10
-0.2374695167279517
 20
-3.7711473670974969
 30
0.887469516727953
 11
-0.16241199364822
 21
-3.6650000000000049
 31
0.8124119936482179
 12
-0.0888526329025125
 22
-3.6650000000000049
 32
0.9900000000000011
 13
-0.1949999999999998
 23
-3.7711473670974969
 33
0.9900000000000011
  0
3DFACE
  5
16EE
  8
TURRET
 10
-0.5450609665440985
 20
-3.5199999999999951
 30
0.7849390334558981
 11
-0.6299999999999998
 21
-3.5199999999999951
 31
0.9900000000000011
 12
-0.629999999999999
 22
3.1499999999999919
 32
0.9900000000000011
 13
-0.5450609665440976
 23
3.1499999999999919
 33
0.7849390334558981
  0
3DFACE
  5
16EF
  8
TURRET
 10
-0.3399999999999996
 20
-3.5199999999999951
 30
0.6999999999999949
 11
-0.5450609665440985
 21
-3.5199999999999951
 31
0.7849390334558981
 12
-0.5450609665440976
 22
3.1499999999999919
 32
0.7849390334558981
 13
-0.3399999999999987
 23
3.1499999999999919
 33
0.6999999999999949
  0
3DFACE
  5
16F0
  8
TURRET
 10
-0.5450609665440985
 20
-3.5199999999999951
 30
1.1950609665440961
 11
-0.3399999999999996
 21
-3.5199999999999951
 31
1.2799999999999929
 12
-0.3399999999999987
 22
3.1499999999999919
 32
1.2799999999999929
 13
-0.5450609665440976
 23
3.1499999999999919
 33
1.1950609665440961
  0
3DFACE
  5
16F1
  8
TURRET
 10
-0.6299999999999998
 20
-3.5199999999999951
 30
0.9900000000000011
 11
-0.5450609665440985
 21
-3.5199999999999951
 31
1.1950609665440961
 12
-0.5450609665440976
 22
3.1499999999999919
 32
1.1950609665440961
 13
-0.629999999999999
 23
3.1499999999999919
 33
0.9900000000000011
  0
3DFACE
  5
16F2
  8
TURRET
 10
-0.5175880063517793
 20
-3.6650000000000049
 30
1.167588006351777
 11
-0.5450609665440992
 21
-3.5199999999999951
 31
1.1950609665440961
 12
-0.6299999999999998
 22
-3.5199999999999951
 32
0.9900000000000011
 13
-0.5911473670974869
 23
-3.6650000000000049
 33
0.9900000000000011
  0
3DFACE
  5
16F3
  8
TURRET
 10
-0.4425304832720477
 20
-3.7711473670974969
 30
1.092530483272049
 11
-0.5175880063517793
 21
-3.6650000000000049
 31
1.167588006351777
 12
-0.5911473670974869
 22
-3.6650000000000049
 32
0.9900000000000011
 13
-0.4849999999999996
 23
-3.7711473670974969
 33
0.9900000000000011
  0
3DFACE
  5
16F4
  8
TURRET
 10
-0.3399999999999996
 20
-3.8100000000000009
 30
0.9900000000000011
 11
-0.4425304832720477
 21
-3.7711473670974969
 31
1.092530483272049
 12
-0.4849999999999996
 22
-3.7711473670974969
 32
0.9900000000000011
 13
-0.3399999999999996
 23
-3.8100000000000009
 33
0.9900000000000011
  0
3DFACE
  5
16F5
  8
TURRET
 10
-0.3399999999999996
 20
-3.6650000000000049
 30
1.2411473670974811
 11
-0.3399999999999996
 21
-3.5199999999999951
 31
1.2799999999999929
 12
-0.5450609665440992
 22
-3.5199999999999951
 32
1.1950609665440961
 13
-0.5175880063517793
 23
-3.6650000000000049
 33
1.167588006351777
  0
3DFACE
  5
16F6
  8
TURRET
 10
-0.3399999999999996
 20
-3.7711473670974969
 30
1.1349999999999969
 11
-0.3399999999999996
 21
-3.6650000000000049
 31
1.2411473670974811
 12
-0.5175880063517793
 22
-3.6650000000000049
 32
1.167588006351777
 13
-0.4425304832720477
 23
-3.7711473670974969
 33
1.092530483272049
  0
3DFACE
  5
16F7
  8
TURRET
 10
-0.3399999999999996
 20
-3.8100000000000009
 30
0.9900000000000011
 11
-0.3399999999999996
 21
-3.7711473670974969
 31
1.1349999999999969
 12
-0.4425304832720477
 22
-3.7711473670974969
 32
1.092530483272049
 13
-0.3399999999999996
 23
-3.8100000000000009
 33
0.9900000000000011
  0
3DFACE
  5
16F8
  8
TURRET
 10
-0.5175880063517793
 20
-3.6650000000000049
 30
0.8124119936482179
 11
-0.5450609665440992
 21
-3.5199999999999951
 31
0.7849390334558981
 12
-0.3399999999999996
 22
-3.5199999999999951
 32
0.6999999999999949
 13
-0.3399999999999996
 23
-3.6650000000000049
 33
0.7388526329025132
  0
3DFACE
  5
16F9
  8
TURRET
 10
-0.4425304832720477
 20
-3.7711473670974969
 30
0.887469516727953
 11
-0.5175880063517793
 21
-3.6650000000000049
 31
0.8124119936482179
 12
-0.3399999999999996
 22
-3.6650000000000049
 32
0.7388526329025132
 13
-0.3399999999999996
 23
-3.7711473670974969
 33
0.8449999999999979
  0
3DFACE
  5
16FA
  8
TURRET
 10
-0.3399999999999996
 20
-3.8100000000000009
 30
0.9900000000000011
 11
-0.4425304832720477
 21
-3.7711473670974969
 31
0.887469516727953
 12
-0.3399999999999996
 22
-3.7711473670974969
 32
0.8449999999999979
 13
-0.3399999999999996
 23
-3.8100000000000009
 33
0.9900000000000011
  0
3DFACE
  5
16FB
  8
TURRET
 10
-0.5911473670974869
 20
-3.6650000000000049
 30
0.9900000000000011
 11
-0.6299999999999998
 21
-3.5199999999999951
 31
0.9900000000000011
 12
-0.5450609665440992
 22
-3.5199999999999951
 32
0.7849390334558981
 13
-0.5175880063517793
 23
-3.6650000000000049
 33
0.8124119936482179
  0
3DFACE
  5
16FC
  8
TURRET
 10
-0.4849999999999996
 20
-3.7711473670974969
 30
0.9900000000000011
 11
-0.5911473670974869
 21
-3.6650000000000049
 31
0.9900000000000011
 12
-0.5175880063517793
 22
-3.6650000000000049
 32
0.8124119936482179
 13
-0.4425304832720477
 23
-3.7711473670974969
 33
0.887469516727953
  0
3DFACE
  5
16FD
  8
TURRET
 10
-0.3399999999999996
 20
-3.8100000000000009
 30
0.9900000000000011
 11
-0.4849999999999996
 21
-3.7711473670974969
 31
0.9900000000000011
 12
-0.4425304832720477
 22
-3.7711473670974969
 32
0.887469516727953
 13
-0.3399999999999996
 23
-3.8100000000000009
 33
0.9900000000000011
  0
3DFACE
  5
16FE
  8
TURRET
 10
-0.3400000000000031
 20
-3.5199999999999951
 30
1.419999999999993
 11
-0.3400000000000031
 21
-3.4500000000000011
 31
1.419999999999993
 12
-0.3400000000000031
 22
-3.4500000000000011
 32
1.28
 13
-0.3400000000000031
 23
-3.5199999999999951
 33
1.28
  0
3DFACE
  5
16FF
  8
TURRET
 10
-0.3400000000000031
 20
-3.5199999999999951
 30
1.28
 11
-0.3400000000000031
 21
-3.4500000000000011
 31
1.28
 12
-0.3400000000000031
 22
-3.4500000000000011
 32
1.419999999999993
 13
-0.3400000000000031
 23
-3.5199999999999951
 33
1.419999999999993
  0
3DFACE
  5
1700
  8
TURRET
 10
0.3399999999999969
 20
-3.5199999999999951
 30
1.28
 11
0.3399999999999969
 21
-3.4500000000000011
 31
1.28
 12
0.3399999999999969
 22
-3.4500000000000011
 32
1.419999999999993
 13
0.3399999999999969
 23
-3.5199999999999951
 33
1.419999999999993
  0
3DFACE
  5
1701
  8
TURRET
 10
0.3399999999999969
 20
-3.5199999999999951
 30
1.419999999999993
 11
0.3399999999999969
 21
-3.4500000000000011
 31
1.419999999999993
 12
0.3399999999999969
 22
-3.4500000000000011
 32
1.28
 13
0.3399999999999969
 23
-3.5199999999999951
 33
1.28
  0
3DFACE
  5
1702
  8
TURRET
 10
0.3399999999999971
 20
-2.1099999999999981
 30
1.419999999999993
 11
0.3399999999999971
 21
-2.0400000000000049
 31
1.419999999999993
 12
0.3399999999999971
 22
-2.0400000000000049
 32
1.28
 13
0.3399999999999971
 23
-2.1099999999999981
 33
1.28
  0
3DFACE
  5
1703
  8
TURRET
 10
0.3399999999999971
 20
-2.1099999999999981
 30
1.28
 11
0.3399999999999971
 21
-2.0400000000000049
 31
1.28
 12
0.3399999999999971
 22
-2.0400000000000049
 32
1.419999999999993
 13
0.3399999999999971
 23
-2.1099999999999981
 33
1.419999999999993
  0
3DFACE
  5
1704
  8
TURRET
 10
0.3399999999999977
 20
3.269999999999996
 30
1.28
 11
0.3399999999999977
 21
3.3399999999999901
 31
1.28
 12
0.3399999999999977
 22
3.3399999999999901
 32
1.419999999999993
 13
0.3399999999999977
 23
3.269999999999996
 33
1.419999999999993
  0
3DFACE
  5
1705
  8
TURRET
 10
0.3399999999999977
 20
3.269999999999996
 30
1.419999999999993
 11
0.3399999999999977
 21
3.3399999999999901
 31
1.419999999999993
 12
0.3399999999999977
 22
3.3399999999999901
 32
1.28
 13
0.3399999999999977
 23
3.269999999999996
 33
1.28
  0
3DFACE
  5
1706
  8
TURRET
 10
0.3399999999999978
 20
3.9399999999999982
 30
1.419999999999993
 11
0.3399999999999978
 21
4.010000000000006
 31
1.419999999999993
 12
0.3399999999999978
 22
4.010000000000006
 32
1.28
 13
0.3399999999999978
 23
3.9399999999999982
 33
1.28
  0
3DFACE
  5
1707
  8
TURRET
 10
0.3399999999999978
 20
3.9399999999999982
 30
1.28
 11
0.3399999999999978
 21
4.010000000000006
 31
1.28
 12
0.3399999999999978
 22
4.010000000000006
 32
1.419999999999993
 13
0.3399999999999978
 23
3.9399999999999982
 33
1.419999999999993
  0
3DFACE
  5
1708
  8
TURRET
 10
0.3400000000000004
 20
-3.8100000000000009
 30
0.9900000000000011
 11
0.1950000000000004
 21
-3.7711473670974969
 31
0.9900000000000011
 12
0.2374695167279524
 22
-3.7711473670974969
 32
0.887469516727953
 13
0.3400000000000004
 23
-3.8100000000000009
 33
0.9900000000000011
  0
3DFACE
  5
1709
  8
TURRET
 10
0.1950000000000004
 20
-3.7711473670974969
 30
0.9900000000000011
 11
0.0888526329025133
 21
-3.6650000000000049
 31
0.9900000000000011
 12
0.1624119936482208
 22
-3.6650000000000049
 32
0.8124119936482179
 13
0.2374695167279524
 23
-3.7711473670974969
 33
0.887469516727953
  0
3DFACE
  5
170A
  8
TURRET
 10
0.0888526329025133
 20
-3.6650000000000049
 30
0.9900000000000011
 11
0.0500000000000004
 21
-3.5199999999999951
 31
0.9900000000000011
 12
0.134939033455901
 22
-3.5199999999999951
 32
0.7849390334558981
 13
0.1624119936482208
 23
-3.6650000000000049
 33
0.8124119936482179
  0
3DFACE
  5
170B
  8
TURRET
 10
0.3400000000000004
 20
-3.8100000000000009
 30
0.9900000000000011
 11
0.2374695167279524
 21
-3.7711473670974969
 31
0.887469516727953
 12
0.3400000000000004
 22
-3.7711473670974969
 32
0.8449999999999979
 13
0.3400000000000004
 23
-3.8100000000000009
 33
0.9900000000000011
  0
3DFACE
  5
170C
  8
TURRET
 10
0.2374695167279524
 20
-3.7711473670974969
 30
0.887469516727953
 11
0.1624119936482208
 21
-3.6650000000000049
 31
0.8124119936482179
 12
0.3400000000000004
 22
-3.6650000000000049
 32
0.7388526329025132
 13
0.3400000000000004
 23
-3.7711473670974969
 33
0.8449999999999979
  0
3DFACE
  5
170D
  8
TURRET
 10
0.1624119936482208
 20
-3.6650000000000049
 30
0.8124119936482179
 11
0.134939033455901
 21
-3.5199999999999951
 31
0.7849390334558981
 12
0.3400000000000005
 22
-3.5199999999999951
 32
0.6999999999999949
 13
0.3400000000000004
 23
-3.6650000000000049
 33
0.7388526329025132
  0
3DFACE
  5
170E
  8
TURRET
 10
0.3400000000000004
 20
-3.8100000000000009
 30
0.9900000000000011
 11
0.3400000000000004
 21
-3.7711473670974969
 31
1.1349999999999969
 12
0.2374695167279524
 22
-3.7711473670974969
 32
1.092530483272049
 13
0.3400000000000004
 23
-3.8100000000000009
 33
0.9900000000000011
  0
3DFACE
  5
170F
  8
TURRET
 10
0.3400000000000004
 20
-3.7711473670974969
 30
1.1349999999999969
 11
0.3400000000000004
 21
-3.6650000000000049
 31
1.2411473670974811
 12
0.1624119936482208
 22
-3.6650000000000049
 32
1.167588006351777
 13
0.2374695167279524
 23
-3.7711473670974969
 33
1.092530483272049
  0
3DFACE
  5
1710
  8
TURRET
 10
0.3400000000000004
 20
-3.6650000000000049
 30
1.2411473670974811
 11
0.3400000000000005
 21
-3.5199999999999951
 31
1.2799999999999929
 12
0.134939033455901
 22
-3.5199999999999951
 32
1.1950609665440961
 13
0.1624119936482208
 23
-3.6650000000000049
 33
1.167588006351777
  0
3DFACE
  5
1711
  8
TURRET
 10
0.3400000000000004
 20
-3.8100000000000009
 30
0.9900000000000011
 11
0.2374695167279524
 21
-3.7711473670974969
 31
1.092530483272049
 12
0.1950000000000004
 22
-3.7711473670974969
 32
0.9900000000000011
 13
0.3400000000000004
 23
-3.8100000000000009
 33
0.9900000000000011
  0
3DFACE
  5
1712
  8
TURRET
 10
0.2374695167279524
 20
-3.7711473670974969
 30
1.092530483272049
 11
0.1624119936482208
 21
-3.6650000000000049
 31
1.167588006351777
 12
0.0888526329025133
 22
-3.6650000000000049
 32
0.9900000000000011
 13
0.1950000000000004
 23
-3.7711473670974969
 33
0.9900000000000011
  0
3DFACE
  5
1713
  8
TURRET
 10
0.1624119936482208
 20
-3.6650000000000049
 30
1.167588006351777
 11
0.134939033455901
 21
-3.5199999999999951
 31
1.1950609665440961
 12
0.0500000000000004
 22
-3.5199999999999951
 32
0.9900000000000011
 13
0.0888526329025133
 23
-3.6650000000000049
 33
0.9900000000000011
  0
3DFACE
  5
1714
  8
TURRET
 10
0.0500000000000004
 20
-3.5199999999999951
 30
0.9900000000000011
 11
0.1349390334559017
 21
-3.5199999999999951
 31
1.1950609665440961
 12
0.1349390334559025
 22
3.1499999999999919
 32
1.1950609665440961
 13
0.0500000000000012
 23
3.1499999999999919
 33
0.9900000000000011
  0
3DFACE
  5
1715
  8
TURRET
 10
0.1349390334559017
 20
-3.5199999999999951
 30
1.1950609665440961
 11
0.3400000000000005
 21
-3.5199999999999951
 31
1.2799999999999929
 12
0.3400000000000013
 22
3.1499999999999919
 32
1.2799999999999929
 13
0.1349390334559025
 23
3.1499999999999919
 33
1.1950609665440961
  0
3DFACE
  5
1716
  8
TURRET
 10
0.3400000000000005
 20
-3.5199999999999951
 30
0.6999999999999949
 11
0.1349390334559017
 21
-3.5199999999999951
 31
0.7849390334558981
 12
0.1349390334559025
 22
3.1499999999999919
 32
0.7849390334558981
 13
0.3400000000000013
 23
3.1499999999999919
 33
0.6999999999999949
  0
3DFACE
  5
1717
  8
TURRET
 10
0.1349390334559017
 20
-3.5199999999999951
 30
0.7849390334558981
 11
0.0500000000000004
 21
-3.5199999999999951
 31
0.9900000000000011
 12
0.0500000000000012
 22
3.1499999999999919
 32
0.9900000000000011
 13
0.1349390334559025
 23
3.1499999999999919
 33
0.7849390334558981
  0
3DFACE
  5
1718
  8
TURRET
 10
0.1349390334559025
 20
3.1499999999999919
 30
0.7849390334559195
 11
0.3400000000000013
 21
3.1499999999999919
 31
0.7000000000000233
 12
0.3400000000000013
 22
3.1499999999999919
 32
0.7000000000000233
 13
0.1349390334559025
 23
3.260000000000006
 33
0.7849390334559195
  0
3DFACE
  5
1719
  8
TURRET
 10
0.3400000000000013
 20
3.1499999999999919
 30
0.7000000000000233
 11
0.1349390334559025
 21
3.1499999999999919
 31
0.7849390334559195
 12
0.1349390334559025
 22
3.260000000000006
 32
0.7849390334559195
 13
0.3400000000000013
 23
3.1499999999999919
 33
0.7000000000000233
  0
3DFACE
  5
171A
  8
TURRET
 10
0.4425304832720484
 20
-3.7711473670974969
 30
0.887469516727953
 11
0.5175880063517802
 21
-3.6650000000000049
 31
0.8124119936482179
 12
0.5911473670974875
 22
-3.6650000000000049
 32
0.9900000000000011
 13
0.4850000000000003
 23
-3.7711473670974969
 33
0.9900000000000011
  0
3DFACE
  5
171B
  8
TURRET
 10
0.5175880063517802
 20
-3.6650000000000049
 30
0.8124119936482179
 11
0.5450609665440999
 21
-3.5199999999999951
 31
0.7849390334558981
 12
0.6300000000000005
 22
-3.5199999999999951
 32
0.9900000000000011
 13
0.5911473670974875
 23
-3.6650000000000049
 33
0.9900000000000011
  0
3DFACE
  5
171C
  8
TURRET
 10
0.4850000000000003
 20
-3.7711473670974969
 30
0.9900000000000011
 11
0.5911473670974875
 21
-3.6650000000000049
 31
0.9900000000000011
 12
0.5175880063517802
 22
-3.6650000000000049
 32
1.167588006351777
 13
0.4425304832720484
 23
-3.7711473670974969
 33
1.092530483272049
  0
3DFACE
  5
171D
  8
TURRET
 10
0.5911473670974875
 20
-3.6650000000000049
 30
0.9900000000000011
 11
0.6300000000000005
 21
-3.5199999999999951
 31
0.9900000000000011
 12
0.5450609665440999
 22
-3.5199999999999951
 32
1.1950609665440961
 13
0.5175880063517802
 23
-3.6650000000000049
 33
1.167588006351777
  0
3DFACE
  5
171E
  8
TURRET
 10
0.5450609665440993
 20
-3.5199999999999951
 30
1.1950609665440961
 11
0.6300000000000005
 21
-3.5199999999999951
 31
0.9900000000000011
 12
0.6300000000000015
 22
3.1499999999999919
 32
0.9900000000000011
 13
0.5450609665441001
 23
3.1499999999999919
 33
1.1950609665440961
  0
3DFACE
  5
171F
  8
TURRET
 10
0.6300000000000005
 20
-3.5199999999999951
 30
0.9900000000000011
 11
0.5450609665440993
 21
-3.5199999999999951
 31
0.7849390334558981
 12
0.5450609665441001
 22
3.1499999999999919
 32
0.7849390334558981
 13
0.6300000000000015
 23
3.1499999999999919
 33
0.9900000000000011
  0
3DFACE
  5
1720
  8
TURRET
 10
0.3400000000000004
 20
-3.8100000000000009
 30
0.9900000000000011
 11
0.3400000000000004
 21
-3.7711473670974969
 31
0.8449999999999979
 12
0.4425304832720484
 22
-3.7711473670974969
 32
0.887469516727953
 13
0.3400000000000004
 23
-3.8100000000000009
 33
0.9900000000000011
  0
3DFACE
  5
1721
  8
TURRET
 10
0.3400000000000004
 20
-3.7711473670974969
 30
0.8449999999999979
 11
0.3400000000000004
 21
-3.6650000000000049
 31
0.7388526329025132
 12
0.5175880063517802
 22
-3.6650000000000049
 32
0.8124119936482179
 13
0.4425304832720484
 23
-3.7711473670974969
 33
0.887469516727953
  0
3DFACE
  5
1722
  8
TURRET
 10
0.3400000000000004
 20
-3.6650000000000049
 30
0.7388526329025132
 11
0.3400000000000005
 21
-3.5199999999999951
 31
0.6999999999999949
 12
0.5450609665440999
 22
-3.5199999999999951
 32
0.7849390334558981
 13
0.5175880063517802
 23
-3.6650000000000049
 33
0.8124119936482179
  0
3DFACE
  5
1723
  8
TURRET
 10
0.3400000000000004
 20
-3.8100000000000009
 30
0.9900000000000011
 11
0.4425304832720484
 21
-3.7711473670974969
 31
0.887469516727953
 12
0.4850000000000003
 22
-3.7711473670974969
 32
0.9900000000000011
 13
0.3400000000000004
 23
-3.8100000000000009
 33
0.9900000000000011
  0
3DFACE
  5
1724
  8
TURRET
 10
0.3400000000000004
 20
-3.8100000000000009
 30
0.9900000000000011
 11
0.4850000000000003
 21
-3.7711473670974969
 31
0.9900000000000011
 12
0.4425304832720484
 22
-3.7711473670974969
 32
1.092530483272049
 13
0.3400000000000004
 23
-3.8100000000000009
 33
0.9900000000000011
  0
3DFACE
  5
1725
  8
TURRET
 10
0.3400000000000004
 20
-3.8100000000000009
 30
0.9900000000000011
 11
0.4425304832720484
 21
-3.7711473670974969
 31
1.092530483272049
 12
0.3400000000000004
 22
-3.7711473670974969
 32
1.1349999999999969
 13
0.3400000000000004
 23
-3.8100000000000009
 33
0.9900000000000011
  0
3DFACE
  5
1726
  8
TURRET
 10
0.4425304832720484
 20
-3.7711473670974969
 30
1.092530483272049
 11
0.5175880063517802
 21
-3.6650000000000049
 31
1.167588006351777
 12
0.3400000000000004
 22
-3.6650000000000049
 32
1.2411473670974811
 13
0.3400000000000004
 23
-3.7711473670974969
 33
1.1349999999999969
  0
3DFACE
  5
1727
  8
TURRET
 10
0.5175880063517802
 20
-3.6650000000000049
 30
1.167588006351777
 11
0.5450609665440999
 21
-3.5199999999999951
 31
1.1950609665440961
 12
0.3400000000000005
 22
-3.5199999999999951
 32
1.2799999999999929
 13
0.3400000000000004
 23
-3.6650000000000049
 33
1.2411473670974811
  0
3DFACE
  5
1728
  8
TURRET
 10
0.3400000000000005
 20
-3.5199999999999951
 30
1.2799999999999929
 11
0.5450609665440993
 21
-3.5199999999999951
 31
1.1950609665440961
 12
0.5450609665441001
 22
3.1499999999999919
 32
1.1950609665440961
 13
0.3400000000000013
 23
3.1499999999999919
 33
1.2799999999999929
  0
3DFACE
  5
1729
  8
TURRET
 10
0.5450609665440993
 20
-3.5199999999999951
 30
0.7849390334558981
 11
0.3400000000000005
 21
-3.5199999999999951
 31
0.6999999999999949
 12
0.3400000000000013
 22
3.1499999999999919
 32
0.6999999999999949
 13
0.5450609665441001
 23
3.1499999999999919
 33
0.7849390334558981
  0
3DFACE
  5
172A
  8
TURRET
 10
0.3400000000000012
 20
3.1499999999999919
 30
0.7000000000000233
 11
0.5450609665441001
 21
3.1499999999999919
 31
0.7849390334559195
 12
0.5450609665441001
 22
3.260000000000006
 32
0.7849390334559195
 13
0.3400000000000012
 23
3.1499999999999919
 33
0.7000000000000233
  0
3DFACE
  5
172B
  8
TURRET
 10
0.5450609665441001
 20
3.1499999999999919
 30
0.7849390334559195
 11
0.3400000000000012
 21
3.1499999999999919
 31
0.7000000000000233
 12
0.3400000000000012
 22
3.1499999999999919
 32
0.7000000000000233
 13
0.5450609665441001
 23
3.260000000000006
 33
0.7849390334559195
  0
3DFACE
  5
172C
  8
TURRET
 10
0.3399999999999926
 20
3.1499999999999919
 30
1.28
 11
0.5450609665440914
 21
3.1499999999999919
 31
1.1950609665440961
 12
0.6300000000000015
 22
3.1499999999999919
 32
0.9900000000000153
 13
0.1349390334559024
 23
3.1499999999999919
 33
1.195060966544111
  0
3DFACE
  5
172D
  8
TURRET
 10
0.1349390334559024
 20
3.1499999999999919
 30
1.1950609665440961
 11
0.6299999999999942
 21
3.1499999999999919
 31
0.9900000000000153
 12
0.545060966544109
 22
3.1499999999999919
 32
0.7849390334559195
 13
0.0499999999999983
 23
3.1499999999999919
 33
0.9900000000000011
  0
3DFACE
  5
172E
  8
TURRET
 10
0.0500000000000156
 20
3.1499999999999919
 30
0.9900000000000224
 11
0.5450609665441074
 21
3.1499999999999919
 31
0.7849390334559409
 12
0.340000000000027
 22
3.1499999999999919
 32
0.7000000000000091
 13
0.1349390334558935
 23
3.1499999999999919
 33
0.7849390334559195
  0
3DFACE
  5
172F
  8
TURRET
 10
0.9900000000000012
 20
3.530000000000002
 30
0.7000000000000233
 11
0.7849390334559026
 21
3.530000000000002
 31
0.7849390334559195
 12
0.7849390334559026
 22
3.640000000000001
 32
0.7849390334559195
 13
0.9900000000000012
 23
3.530000000000002
 33
0.7000000000000233
  0
3DFACE
  5
1730
  8
TURRET
 10
0.7849390334559026
 20
3.530000000000002
 30
0.7849390334559195
 11
0.9900000000000012
 21
3.530000000000002
 31
0.7000000000000233
 12
0.9900000000000012
 22
3.530000000000002
 32
0.7000000000000233
 13
0.7849390334559026
 23
3.640000000000001
 33
0.7849390334559195
  0
3DFACE
  5
1731
  8
TURRET
 10
0.7849390334559017
 20
-3.1399999999999988
 30
0.7849390334558981
 11
0.7000000000000004
 21
-3.1399999999999988
 31
0.9900000000000011
 12
0.7000000000000012
 22
3.530000000000002
 32
0.9900000000000011
 13
0.7849390334559026
 23
3.530000000000002
 33
0.7849390334558981
  0
3DFACE
  5
1732
  8
TURRET
 10
0.9900000000000003
 20
-3.1399999999999988
 30
0.6999999999999949
 11
0.7849390334559017
 21
-3.1399999999999988
 31
0.7849390334558981
 12
0.7849390334559026
 22
3.530000000000002
 32
0.7849390334558981
 13
0.9900000000000012
 23
3.530000000000002
 33
0.6999999999999949
  0
3DFACE
  5
1733
  8
TURRET
 10
0.7849390334559017
 20
-3.1399999999999988
 30
1.1950609665440961
 11
0.9900000000000003
 21
-3.1399999999999988
 31
1.2799999999999929
 12
0.9900000000000012
 22
3.530000000000002
 32
1.2799999999999929
 13
0.7849390334559026
 23
3.530000000000002
 33
1.1950609665440961
  0
3DFACE
  5
1734
  8
TURRET
 10
0.7000000000000004
 20
-3.1399999999999988
 30
0.9900000000000011
 11
0.7849390334559017
 21
-3.1399999999999988
 31
1.1950609665440961
 12
0.7849390334559026
 22
3.530000000000002
 32
1.1950609665440961
 13
0.7000000000000012
 23
3.530000000000002
 33
0.9900000000000011
  0
3DFACE
  5
1735
  8
TURRET
 10
0.8124119936482207
 20
-3.285000000000009
 30
1.167588006351777
 11
0.784939033455901
 21
-3.1399999999999988
 31
1.1950609665440961
 12
0.7000000000000004
 22
-3.1399999999999988
 32
0.9900000000000011
 13
0.7388526329025134
 23
-3.285000000000009
 33
0.9900000000000011
  0
3DFACE
  5
1736
  8
TURRET
 10
0.8874695167279524
 20
-3.3911473670974872
 30
1.092530483272049
 11
0.8124119936482207
 21
-3.285000000000009
 31
1.167588006351777
 12
0.7388526329025134
 22
-3.285000000000009
 32
0.9900000000000011
 13
0.8450000000000004
 23
-3.3911473670974872
 33
0.9900000000000011
  0
3DFACE
  5
1737
  8
TURRET
 10
0.9900000000000003
 20
-3.4299999999999908
 30
0.9900000000000011
 11
0.8874695167279524
 21
-3.3911473670974872
 31
1.092530483272049
 12
0.8450000000000004
 22
-3.3911473670974872
 32
0.9900000000000011
 13
0.9900000000000003
 23
-3.4299999999999908
 33
0.9900000000000011
  0
3DFACE
  5
1738
  8
TURRET
 10
0.9900000000000003
 20
-3.285000000000009
 30
1.2411473670974811
 11
0.9900000000000003
 21
-3.1399999999999988
 31
1.2799999999999929
 12
0.784939033455901
 22
-3.1399999999999988
 32
1.1950609665440961
 13
0.8124119936482207
 23
-3.285000000000009
 33
1.167588006351777
  0
3DFACE
  5
1739
  8
TURRET
 10
0.9900000000000003
 20
-3.3911473670974872
 30
1.1349999999999969
 11
0.9900000000000003
 21
-3.285000000000009
 31
1.2411473670974811
 12
0.8124119936482207
 22
-3.285000000000009
 32
1.167588006351777
 13
0.8874695167279524
 23
-3.3911473670974872
 33
1.092530483272049
  0
3DFACE
  5
173A
  8
TURRET
 10
0.9900000000000003
 20
-3.4299999999999908
 30
0.9900000000000011
 11
0.9900000000000003
 21
-3.3911473670974872
 31
1.1349999999999969
 12
0.8874695167279524
 22
-3.3911473670974872
 32
1.092530483272049
 13
0.9900000000000003
 23
-3.4299999999999908
 33
0.9900000000000011
  0
3DFACE
  5
173B
  8
TURRET
 10
0.8124119936482207
 20
-3.285000000000009
 30
0.8124119936482179
 11
0.784939033455901
 21
-3.1399999999999988
 31
0.7849390334558981
 12
0.9900000000000003
 22
-3.1399999999999988
 32
0.6999999999999949
 13
0.9900000000000003
 23
-3.285000000000009
 33
0.7388526329025132
  0
3DFACE
  5
173C
  8
TURRET
 10
0.8874695167279524
 20
-3.3911473670974872
 30
0.887469516727953
 11
0.8124119936482207
 21
-3.285000000000009
 31
0.8124119936482179
 12
0.9900000000000003
 22
-3.285000000000009
 32
0.7388526329025132
 13
0.9900000000000003
 23
-3.3911473670974872
 33
0.8449999999999979
  0
3DFACE
  5
173D
  8
TURRET
 10
0.9900000000000003
 20
-3.4299999999999908
 30
0.9900000000000011
 11
0.8874695167279524
 21
-3.3911473670974872
 31
0.887469516727953
 12
0.9900000000000003
 22
-3.3911473670974872
 32
0.8449999999999979
 13
0.9900000000000003
 23
-3.4299999999999908
 33
0.9900000000000011
  0
3DFACE
  5
173E
  8
TURRET
 10
0.7388526329025134
 20
-3.285000000000009
 30
0.9900000000000011
 11
0.7000000000000004
 21
-3.1399999999999988
 31
0.9900000000000011
 12
0.784939033455901
 22
-3.1399999999999988
 32
0.7849390334558981
 13
0.8124119936482207
 23
-3.285000000000009
 33
0.8124119936482179
  0
3DFACE
  5
173F
  8
TURRET
 10
0.8450000000000004
 20
-3.3911473670974872
 30
0.9900000000000011
 11
0.7388526329025134
 21
-3.285000000000009
 31
0.9900000000000011
 12
0.8124119936482207
 22
-3.285000000000009
 32
0.8124119936482179
 13
0.8874695167279524
 23
-3.3911473670974872
 33
0.887469516727953
  0
3DFACE
  5
1740
  8
TURRET
 10
0.9900000000000003
 20
-3.4299999999999908
 30
0.9900000000000011
 11
0.8450000000000004
 21
-3.3911473670974872
 31
0.9900000000000011
 12
0.8874695167279524
 22
-3.3911473670974872
 32
0.887469516727953
 13
0.9900000000000003
 23
-3.4299999999999908
 33
0.9900000000000011
  0
3DFACE
  5
1741
  8
TURRET
 10
0.9899999999999977
 20
4.3200000000000083
 30
1.28
 11
0.9899999999999977
 21
4.3900000000000006
 31
1.28
 12
0.9899999999999977
 22
4.3900000000000006
 32
1.419999999999993
 13
0.9899999999999977
 23
4.3200000000000083
 33
1.419999999999993
  0
3DFACE
  5
1742
  8
TURRET
 10
0.9899999999999977
 20
4.3200000000000083
 30
1.419999999999993
 11
0.9899999999999977
 21
4.3900000000000006
 31
1.419999999999993
 12
0.9899999999999977
 22
4.3900000000000006
 32
1.28
 13
0.9899999999999977
 23
4.3200000000000083
 33
1.28
  0
3DFACE
  5
1743
  8
TURRET
 10
0.9899999999999977
 20
3.6499999999999919
 30
1.419999999999993
 11
0.9899999999999977
 21
3.7199999999999989
 31
1.419999999999993
 12
0.9899999999999977
 22
3.7199999999999989
 32
1.28
 13
0.9899999999999977
 23
3.6499999999999919
 33
1.28
  0
3DFACE
  5
1744
  8
TURRET
 10
0.9899999999999977
 20
3.6499999999999919
 30
1.28
 11
0.9899999999999977
 21
3.7199999999999989
 31
1.28
 12
0.9899999999999977
 22
3.7199999999999989
 32
1.419999999999993
 13
0.9899999999999977
 23
3.6499999999999919
 33
1.419999999999993
  0
3DFACE
  5
1745
  8
TURRET
 10
0.989999999999997
 20
-1.7300000000000031
 30
1.28
 11
0.989999999999997
 21
-1.659999999999995
 31
1.28
 12
0.989999999999997
 22
-1.659999999999995
 32
1.419999999999993
 13
0.989999999999997
 23
-1.7300000000000031
 33
1.419999999999993
  0
3DFACE
  5
1746
  8
TURRET
 10
0.989999999999997
 20
-1.7300000000000031
 30
1.419999999999993
 11
0.989999999999997
 21
-1.659999999999995
 31
1.419999999999993
 12
0.989999999999997
 22
-1.659999999999995
 32
1.28
 13
0.989999999999997
 23
-1.7300000000000031
 33
1.28
  0
3DFACE
  5
1747
  8
TURRET
 10
0.9899999999999968
 20
-3.1399999999999988
 30
1.419999999999993
 11
0.9899999999999968
 21
-3.0700000000000061
 31
1.419999999999993
 12
0.9899999999999968
 22
-3.0700000000000061
 32
1.28
 13
0.9899999999999968
 23
-3.1399999999999988
 33
1.28
  0
3DFACE
  5
1748
  8
TURRET
 10
0.9899999999999968
 20
-3.1399999999999988
 30
1.28
 11
0.9899999999999968
 21
-3.0700000000000061
 31
1.28
 12
0.9899999999999968
 22
-3.0700000000000061
 32
1.419999999999993
 13
0.9899999999999968
 23
-3.1399999999999988
 33
1.419999999999993
  0
3DFACE
  5
1749
  8
TURRET
 10
-1.279999999999984
 20
3.530000000000002
 30
0.9900000000000224
 11
-0.7849390334558927
 21
3.530000000000002
 31
0.7849390334559409
 12
-0.989999999999973
 22
3.530000000000002
 32
0.7000000000000091
 13
-1.1950609665441061
 23
3.530000000000002
 33
0.7849390334559195
  0
3DFACE
  5
174A
  8
TURRET
 10
-1.195060966544097
 20
3.530000000000002
 30
1.1950609665440961
 11
-0.700000000000006
 21
3.530000000000002
 31
0.9900000000000153
 12
-0.7849390334558911
 22
3.530000000000002
 32
0.7849390334559195
 13
-1.2800000000000009
 23
3.530000000000002
 33
0.9900000000000011
  0
3DFACE
  5
174B
  8
TURRET
 10
-0.9900000000000074
 20
3.530000000000002
 30
1.28
 11
-0.7849390334559087
 21
3.530000000000002
 31
1.1950609665440961
 12
-0.6999999999999989
 22
3.530000000000002
 32
0.9900000000000153
 13
-1.195060966544097
 23
3.530000000000002
 33
1.195060966544111
  0
3DFACE
  5
174C
  8
TURRET
 10
-0.9899999999999987
 20
3.530000000000002
 30
0.7000000000000233
 11
-0.7849390334559
 21
3.530000000000002
 31
0.7849390334559195
 12
-0.7849390334559
 22
3.640000000000001
 32
0.7849390334559195
 13
-0.9899999999999987
 23
3.530000000000002
 33
0.7000000000000233
  0
3DFACE
  5
174D
  8
TURRET
 10
-1.195060966544097
 20
3.530000000000002
 30
0.7849390334559195
 11
-0.9899999999999987
 21
3.530000000000002
 31
0.7000000000000233
 12
-0.9899999999999987
 22
3.530000000000002
 32
0.7000000000000233
 13
-1.195060966544097
 23
3.640000000000001
 33
0.7849390334559195
  0
3DFACE
  5
174E
  8
TURRET
 10
-0.9899999999999987
 20
3.530000000000002
 30
0.7000000000000233
 11
-1.195060966544097
 21
3.530000000000002
 31
0.7849390334559195
 12
-1.195060966544097
 22
3.640000000000001
 32
0.7849390334559195
 13
-0.9899999999999987
 23
3.530000000000002
 33
0.7000000000000233
  0
3DFACE
  5
174F
  8
TURRET
 10
-0.7849390334559
 20
3.530000000000002
 30
0.7849390334559195
 11
-0.9899999999999987
 21
3.530000000000002
 31
0.7000000000000233
 12
-0.9899999999999987
 22
3.530000000000002
 32
0.7000000000000233
 13
-0.7849390334559
 23
3.640000000000001
 33
0.7849390334559195
  0
3DFACE
  5
1750
  8
TURRET
 10
-1.1950609665440981
 20
-3.1399999999999988
 30
0.7849390334558981
 11
-1.2799999999999989
 21
-3.1399999999999988
 31
0.9900000000000011
 12
-1.279999999999998
 22
3.530000000000002
 32
0.9900000000000011
 13
-1.195060966544097
 23
3.530000000000002
 33
0.7849390334558981
  0
3DFACE
  5
1751
  8
TURRET
 10
-0.9899999999999996
 20
-3.1399999999999988
 30
0.6999999999999949
 11
-1.1950609665440981
 21
-3.1399999999999988
 31
0.7849390334558981
 12
-1.195060966544097
 22
3.530000000000002
 32
0.7849390334558981
 13
-0.9899999999999987
 23
3.530000000000002
 33
0.6999999999999949
  0
3DFACE
  5
1752
  8
TURRET
 10
-0.7849390334559008
 20
-3.1399999999999988
 30
0.7849390334558981
 11
-0.9899999999999996
 21
-3.1399999999999988
 31
0.6999999999999949
 12
-0.9899999999999987
 22
3.530000000000002
 32
0.6999999999999949
 13
-0.7849390334559
 23
3.530000000000002
 33
0.7849390334558981
  0
3DFACE
  5
1753
  8
TURRET
 10
-0.6999999999999995
 20
-3.1399999999999988
 30
0.9900000000000011
 11
-0.7849390334559008
 21
-3.1399999999999988
 31
0.7849390334558981
 12
-0.7849390334559
 22
3.530000000000002
 32
0.7849390334558981
 13
-0.6999999999999989
 23
3.530000000000002
 33
0.9900000000000011
  0
3DFACE
  5
1754
  8
TURRET
 10
-0.7849390334559008
 20
-3.1399999999999988
 30
1.1950609665440961
 11
-0.6999999999999995
 21
-3.1399999999999988
 31
0.9900000000000011
 12
-0.6999999999999989
 22
3.530000000000002
 32
0.9900000000000011
 13
-0.7849390334559
 23
3.530000000000002
 33
1.1950609665440961
  0
3DFACE
  5
1755
  8
TURRET
 10
-0.9899999999999996
 20
-3.1399999999999988
 30
1.2799999999999929
 11
-0.7849390334559008
 21
-3.1399999999999988
 31
1.1950609665440961
 12
-0.7849390334559
 22
3.530000000000002
 32
1.1950609665440961
 13
-0.9899999999999987
 23
3.530000000000002
 33
1.2799999999999929
  0
3DFACE
  5
1756
  8
TURRET
 10
-1.1950609665440981
 20
-3.1399999999999988
 30
1.1950609665440961
 11
-0.9899999999999996
 21
-3.1399999999999988
 31
1.2799999999999929
 12
-0.9899999999999987
 22
3.530000000000002
 32
1.2799999999999929
 13
-1.195060966544097
 23
3.530000000000002
 33
1.1950609665440961
  0
3DFACE
  5
1757
  8
TURRET
 10
-1.2799999999999989
 20
-3.1399999999999988
 30
0.9900000000000011
 11
-1.1950609665440981
 21
-3.1399999999999988
 31
1.1950609665440961
 12
-1.195060966544097
 22
3.530000000000002
 32
1.1950609665440961
 13
-1.279999999999998
 23
3.530000000000002
 33
0.9900000000000011
  0
3DFACE
  5
1758
  8
TURRET
 10
-1.167588006351779
 20
-3.285000000000009
 30
1.167588006351777
 11
-1.1950609665440981
 21
-3.1399999999999988
 31
1.1950609665440961
 12
-1.2799999999999989
 22
-3.1399999999999988
 32
0.9900000000000011
 13
-1.241147367097486
 23
-3.285000000000009
 33
0.9900000000000011
  0
3DFACE
  5
1759
  8
TURRET
 10
-1.092530483272047
 20
-3.3911473670974872
 30
1.092530483272049
 11
-1.167588006351779
 21
-3.285000000000009
 31
1.167588006351777
 12
-1.241147367097486
 22
-3.285000000000009
 32
0.9900000000000011
 13
-1.1349999999999989
 23
-3.3911473670974872
 33
0.9900000000000011
  0
3DFACE
  5
175A
  8
TURRET
 10
-0.9899999999999996
 20
-3.4299999999999908
 30
0.9900000000000011
 11
-1.092530483272047
 21
-3.3911473670974872
 31
1.092530483272049
 12
-1.1349999999999989
 22
-3.3911473670974872
 32
0.9900000000000011
 13
-0.9899999999999996
 23
-3.4299999999999908
 33
0.9900000000000011
  0
3DFACE
  5
175B
  8
TURRET
 10
-0.9899999999999996
 20
-3.285000000000009
 30
1.2411473670974811
 11
-0.9899999999999996
 21
-3.1399999999999988
 31
1.2799999999999929
 12
-1.1950609665440981
 22
-3.1399999999999988
 32
1.1950609665440961
 13
-1.167588006351779
 23
-3.285000000000009
 33
1.167588006351777
  0
3DFACE
  5
175C
  8
TURRET
 10
-0.9899999999999996
 20
-3.3911473670974872
 30
1.1349999999999969
 11
-0.9899999999999996
 21
-3.285000000000009
 31
1.2411473670974811
 12
-1.167588006351779
 22
-3.285000000000009
 32
1.167588006351777
 13
-1.092530483272047
 23
-3.3911473670974872
 33
1.092530483272049
  0
3DFACE
  5
175D
  8
TURRET
 10
-0.9899999999999996
 20
-3.4299999999999908
 30
0.9900000000000011
 11
-0.9899999999999996
 21
-3.3911473670974872
 31
1.1349999999999969
 12
-1.092530483272047
 22
-3.3911473670974872
 32
1.092530483272049
 13
-0.9899999999999996
 23
-3.4299999999999908
 33
0.9900000000000011
  0
3DFACE
  5
175E
  8
TURRET
 10
-0.8124119936482198
 20
-3.285000000000009
 30
1.167588006351777
 11
-0.7849390334559001
 21
-3.1399999999999988
 31
1.1950609665440961
 12
-0.9899999999999996
 22
-3.1399999999999988
 32
1.2799999999999929
 13
-0.9899999999999996
 23
-3.285000000000009
 33
1.2411473670974811
  0
3DFACE
  5
175F
  8
TURRET
 10
-0.8874695167279515
 20
-3.3911473670974872
 30
1.092530483272049
 11
-0.8124119936482198
 21
-3.285000000000009
 31
1.167588006351777
 12
-0.9899999999999996
 22
-3.285000000000009
 32
1.2411473670974811
 13
-0.9899999999999996
 23
-3.3911473670974872
 33
1.1349999999999969
  0
3DFACE
  5
1760
  8
TURRET
 10
-0.9899999999999996
 20
-3.4299999999999908
 30
0.9900000000000011
 11
-0.8874695167279515
 21
-3.3911473670974872
 31
1.092530483272049
 12
-0.9899999999999996
 22
-3.3911473670974872
 32
1.1349999999999969
 13
-0.9899999999999996
 23
-3.4299999999999908
 33
0.9900000000000011
  0
3DFACE
  5
1761
  8
TURRET
 10
-0.7388526329025125
 20
-3.285000000000009
 30
0.9900000000000011
 11
-0.6999999999999995
 21
-3.1399999999999988
 31
0.9900000000000011
 12
-0.7849390334559001
 22
-3.1399999999999988
 32
1.1950609665440961
 13
-0.8124119936482198
 23
-3.285000000000009
 33
1.167588006351777
  0
3DFACE
  5
1762
  8
TURRET
 10
-0.8449999999999995
 20
-3.3911473670974872
 30
0.9900000000000011
 11
-0.7388526329025125
 21
-3.285000000000009
 31
0.9900000000000011
 12
-0.8124119936482198
 22
-3.285000000000009
 32
1.167588006351777
 13
-0.8874695167279515
 23
-3.3911473670974872
 33
1.092530483272049
  0
3DFACE
  5
1763
  8
TURRET
 10
-0.9899999999999996
 20
-3.4299999999999908
 30
0.9900000000000011
 11
-0.8449999999999995
 21
-3.3911473670974872
 31
0.9900000000000011
 12
-0.8874695167279515
 22
-3.3911473670974872
 32
1.092530483272049
 13
-0.9899999999999996
 23
-3.4299999999999908
 33
0.9900000000000011
  0
3DFACE
  5
1764
  8
TURRET
 10
-0.8124119936482198
 20
-3.285000000000009
 30
0.8124119936482179
 11
-0.7849390334559001
 21
-3.1399999999999988
 31
0.7849390334558981
 12
-0.6999999999999995
 22
-3.1399999999999988
 32
0.9900000000000011
 13
-0.7388526329025125
 23
-3.285000000000009
 33
0.9900000000000011
  0
3DFACE
  5
1765
  8
TURRET
 10
-0.8874695167279515
 20
-3.3911473670974872
 30
0.887469516727953
 11
-0.8124119936482198
 21
-3.285000000000009
 31
0.8124119936482179
 12
-0.7388526329025125
 22
-3.285000000000009
 32
0.9900000000000011
 13
-0.8449999999999995
 23
-3.3911473670974872
 33
0.9900000000000011
  0
3DFACE
  5
1766
  8
TURRET
 10
-0.9899999999999996
 20
-3.4299999999999908
 30
0.9900000000000011
 11
-0.8874695167279515
 21
-3.3911473670974872
 31
0.887469516727953
 12
-0.8449999999999995
 22
-3.3911473670974872
 32
0.9900000000000011
 13
-0.9899999999999996
 23
-3.4299999999999908
 33
0.9900000000000011
  0
3DFACE
  5
1767
  8
TURRET
 10
-0.9899999999999996
 20
-3.285000000000009
 30
0.7388526329025132
 11
-0.9899999999999996
 21
-3.1399999999999988
 31
0.6999999999999949
 12
-0.7849390334559001
 22
-3.1399999999999988
 32
0.7849390334558981
 13
-0.8124119936482198
 23
-3.285000000000009
 33
0.8124119936482179
  0
3DFACE
  5
1768
  8
TURRET
 10
-0.9899999999999996
 20
-3.3911473670974872
 30
0.8449999999999979
 11
-0.9899999999999996
 21
-3.285000000000009
 31
0.7388526329025132
 12
-0.8124119936482198
 22
-3.285000000000009
 32
0.8124119936482179
 13
-0.8874695167279515
 23
-3.3911473670974872
 33
0.887469516727953
  0
3DFACE
  5
1769
  8
TURRET
 10
-0.9899999999999996
 20
-3.4299999999999908
 30
0.9900000000000011
 11
-0.9899999999999996
 21
-3.3911473670974872
 31
0.8449999999999979
 12
-0.8874695167279515
 22
-3.3911473670974872
 32
0.887469516727953
 13
-0.9899999999999996
 23
-3.4299999999999908
 33
0.9900000000000011
  0
3DFACE
  5
176A
  8
TURRET
 10
-1.167588006351779
 20
-3.285000000000009
 30
0.8124119936482179
 11
-1.1950609665440981
 21
-3.1399999999999988
 31
0.7849390334558981
 12
-0.9899999999999996
 22
-3.1399999999999988
 32
0.6999999999999949
 13
-0.9899999999999996
 23
-3.285000000000009
 33
0.7388526329025132
  0
3DFACE
  5
176B
  8
TURRET
 10
-1.092530483272047
 20
-3.3911473670974872
 30
0.887469516727953
 11
-1.167588006351779
 21
-3.285000000000009
 31
0.8124119936482179
 12
-0.9899999999999996
 22
-3.285000000000009
 32
0.7388526329025132
 13
-0.9899999999999996
 23
-3.3911473670974872
 33
0.8449999999999979
  0
3DFACE
  5
176C
  8
TURRET
 10
-0.9899999999999996
 20
-3.4299999999999908
 30
0.9900000000000011
 11
-1.092530483272047
 21
-3.3911473670974872
 31
0.887469516727953
 12
-0.9899999999999996
 22
-3.3911473670974872
 32
0.8449999999999979
 13
-0.9899999999999996
 23
-3.4299999999999908
 33
0.9900000000000011
  0
3DFACE
  5
176D
  8
TURRET
 10
-1.241147367097486
 20
-3.285000000000009
 30
0.9900000000000011
 11
-1.2799999999999989
 21
-3.1399999999999988
 31
0.9900000000000011
 12
-1.1950609665440981
 22
-3.1399999999999988
 32
0.7849390334558981
 13
-1.167588006351779
 23
-3.285000000000009
 33
0.8124119936482179
  0
3DFACE
  5
176E
  8
TURRET
 10
-1.1349999999999989
 20
-3.3911473670974872
 30
0.9900000000000011
 11
-1.241147367097486
 21
-3.285000000000009
 31
0.9900000000000011
 12
-1.167588006351779
 22
-3.285000000000009
 32
0.8124119936482179
 13
-1.092530483272047
 23
-3.3911473670974872
 33
0.887469516727953
  0
3DFACE
  5
176F
  8
TURRET
 10
-0.9899999999999996
 20
-3.4299999999999908
 30
0.9900000000000011
 11
-1.1349999999999989
 21
-3.3911473670974872
 31
0.9900000000000011
 12
-1.092530483272047
 22
-3.3911473670974872
 32
0.887469516727953
 13
-0.9899999999999996
 23
-3.4299999999999908
 33
0.9900000000000011
  0
3DFACE
  5
1770
  8
TURRET
 10
-0.990000000000003
 20
-3.1399999999999988
 30
1.28
 11
-0.990000000000003
 21
-3.0700000000000061
 31
1.28
 12
-0.990000000000003
 22
-3.0700000000000061
 32
1.419999999999993
 13
-0.990000000000003
 23
-3.1399999999999988
 33
1.419999999999993
  0
3DFACE
  5
1771
  8
TURRET
 10
-0.990000000000003
 20
-3.1399999999999988
 30
1.419999999999993
 11
-0.990000000000003
 21
-3.0700000000000061
 31
1.419999999999993
 12
-0.990000000000003
 22
-3.0700000000000061
 32
1.28
 13
-0.990000000000003
 23
-3.1399999999999988
 33
1.28
  0
3DFACE
  5
1772
  8
TURRET
 10
-0.990000000000003
 20
-1.7300000000000031
 30
1.419999999999993
 11
-0.990000000000003
 21
-1.659999999999995
 31
1.419999999999993
 12
-0.990000000000003
 22
-1.659999999999995
 32
1.28
 13
-0.990000000000003
 23
-1.7300000000000031
 33
1.28
  0
3DFACE
  5
1773
  8
TURRET
 10
-0.990000000000003
 20
-1.7300000000000031
 30
1.28
 11
-0.990000000000003
 21
-1.659999999999995
 31
1.28
 12
-0.990000000000003
 22
-1.659999999999995
 32
1.419999999999993
 13
-0.990000000000003
 23
-1.7300000000000031
 33
1.419999999999993
  0
3DFACE
  5
1774
  8
TURRET
 10
-0.9900000000000023
 20
3.6499999999999919
 30
1.28
 11
-0.9900000000000023
 21
3.7199999999999989
 31
1.28
 12
-0.9900000000000023
 22
3.7199999999999989
 32
1.419999999999993
 13
-0.9900000000000023
 23
3.6499999999999919
 33
1.419999999999993
  0
3DFACE
  5
1775
  8
TURRET
 10
-0.9900000000000023
 20
3.6499999999999919
 30
1.419999999999993
 11
-0.9900000000000023
 21
3.7199999999999989
 31
1.419999999999993
 12
-0.9900000000000023
 22
3.7199999999999989
 32
1.28
 13
-0.9900000000000023
 23
3.6499999999999919
 33
1.28
  0
3DFACE
  5
1776
  8
TURRET
 10
-0.9900000000000021
 20
4.3200000000000083
 30
1.419999999999993
 11
-0.9900000000000021
 21
4.3900000000000006
 31
1.419999999999993
 12
-0.9900000000000021
 22
4.3900000000000006
 32
1.28
 13
-0.9900000000000021
 23
4.3200000000000083
 33
1.28
  0
3DFACE
  5
1777
  8
TURRET
 10
-0.9900000000000021
 20
4.3200000000000083
 30
1.28
 11
-0.9900000000000021
 21
4.3900000000000006
 31
1.28
 12
-0.9900000000000021
 22
4.3900000000000006
 32
1.419999999999993
 13
-0.9900000000000021
 23
4.3200000000000083
 33
1.419999999999993
  0
3DFACE
  5
1778
  8
TURRET
 10
0.9828784258493016
 20
-0.9828784258493064
 30
0.6599999999999993
 11
-1.389999999999999
 21
0.0000000000000009
 31
0.6599999999999993
 12
-0.9828784258493003
 22
-0.9828784258493064
 32
0.6599999999999993
 13
0.0000000000000005
 23
-1.389999999999999
 33
0.6599999999999993
  0
3DFACE
  5
1779
  8
TURRET
 10
-0.9828784258492999
 20
0.9828784258493081
 30
0.5499999999999999
 11
-1.389999999999999
 21
0.0000000000000009
 31
0.5499999999999999
 12
-1.389999999999999
 22
0.0000000000000009
 32
0.6599999999999993
 13
-0.9828784258492999
 23
0.9828784258493081
 33
0.6599999999999993
  0
3DFACE
  5
177A
  8
TURRET
 10
0.0000000000000012
 20
1.390000000000001
 30
0.5499999999999999
 11
-0.9828784258492999
 21
0.9828784258493081
 31
0.5499999999999999
 12
-0.9828784258492999
 22
0.9828784258493081
 32
0.6599999999999993
 13
0.0000000000000012
 23
1.390000000000001
 33
0.6599999999999993
  0
3DFACE
  5
177B
  8
TURRET
 10
0.9828784258493021
 20
0.9828784258493081
 30
0.5499999999999999
 11
0.0000000000000012
 21
1.390000000000001
 31
0.5499999999999999
 12
0.0000000000000012
 22
1.390000000000001
 32
0.6599999999999993
 13
0.9828784258493021
 23
0.9828784258493081
 33
0.6599999999999993
  0
3DFACE
  5
177C
  8
TURRET
 10
0.0000000000000006
 20
-1.389999999999999
 30
0.5499999999999999
 11
0.9828784258493016
 21
-0.9828784258493064
 31
0.5499999999999999
 12
0.9828784258493016
 22
-0.9828784258493064
 32
0.6599999999999993
 13
0.0000000000000006
 23
-1.389999999999999
 33
0.6599999999999993
  0
3DFACE
  5
177D
  8
TURRET
 10
-0.9828784258493003
 20
-0.9828784258493064
 30
0.5499999999999999
 11
0.0000000000000006
 21
-1.389999999999999
 31
0.5499999999999999
 12
0.0000000000000006
 22
-1.389999999999999
 32
0.6599999999999993
 13
-0.9828784258493003
 23
-0.9828784258493064
 33
0.6599999999999993
  0
3DFACE
  5
177E
  8
TURRET
 10
-1.389999999999999
 20
0.0000000000000009
 30
0.5499999999999999
 11
-0.9828784258493003
 21
-0.9828784258493064
 31
0.5499999999999999
 12
-0.9828784258493003
 22
-0.9828784258493064
 32
0.6599999999999993
 13
-1.389999999999999
 23
0.0000000000000009
 33
0.6599999999999993
  0
3DFACE
  5
177F
  8
TURRET
 10
-0.9121677477306454
 20
0.91216774773065
 30
0.3500000000000005
 11
-1.289999999999998
 21
0.0000000000000009
 31
0.3500000000000005
 12
-1.389999999999999
 22
0.0000000000000009
 32
0.5499999999999999
 13
-0.9828784258493
 23
0.9828784258493081
 33
0.5499999999999999
  0
3DFACE
  5
1780
  8
TURRET
 10
0.0000000000000012
 20
1.2900000000000069
 30
0.3500000000000005
 11
-0.9121677477306454
 21
0.91216774773065
 31
0.3500000000000005
 12
-0.9828784258493
 22
0.9828784258493081
 32
0.5499999999999999
 13
0.0000000000000012
 23
1.390000000000001
 33
0.5499999999999999
  0
3DFACE
  5
1781
  8
TURRET
 10
0.9121677477306474
 20
0.91216774773065
 30
0.3500000000000005
 11
0.0000000000000012
 21
1.2900000000000069
 31
0.3500000000000005
 12
0.0000000000000012
 22
1.390000000000001
 32
0.5499999999999999
 13
0.9828784258493021
 23
0.9828784258493081
 33
0.5499999999999999
  0
3DFACE
  5
1782
  8
TURRET
 10
0.0000000000000007
 20
-1.2900000000000049
 30
0.3500000000000005
 11
0.9121677477306469
 21
-0.9121677477306482
 31
0.3500000000000005
 12
0.9828784258493016
 22
-0.9828784258493064
 32
0.5499999999999999
 13
0.0000000000000006
 23
-1.389999999999999
 33
0.5499999999999999
  0
3DFACE
  5
1783
  8
TURRET
 10
-0.9121677477306455
 20
-0.9121677477306482
 30
0.3500000000000005
 11
0.0000000000000007
 21
-1.2900000000000049
 31
0.3500000000000005
 12
0.0000000000000006
 22
-1.389999999999999
 32
0.5499999999999999
 13
-0.9828784258493001
 23
-0.9828784258493064
 33
0.5499999999999999
  0
3DFACE
  5
1784
  8
TURRET
 10
-1.289999999999998
 20
0.0000000000000009
 30
0.3500000000000005
 11
-0.9121677477306455
 21
-0.9121677477306482
 31
0.3500000000000005
 12
-0.9828784258493001
 22
-0.9828784258493064
 32
0.5499999999999999
 13
-1.389999999999999
 23
0.0000000000000009
 33
0.5499999999999999
  0
3DFACE
  5
1785
  8
TURRET
 10
-0.6505382386916228
 20
1.9294617613083751
 30
1.289999999999998
 11
-0.9199999999999988
 21
2.5799999999999992
 31
1.289999999999998
 12
-0.6505382386916222
 22
3.230538238691623
 32
1.289999999999998
 13
0.000000000000001
 23
1.659999999999997
 33
1.289999999999998
  0
3DFACE
  5
1786
  8
TURRET
 10
0.000000000000001
 20
1.659999999999997
 30
1.289999999999998
 11
-0.6505382386916225
 21
3.230538238691623
 31
1.289999999999998
 12
0.0000000000000015
 22
3.5
 32
1.289999999999998
 13
0.6505382386916248
 23
1.9294617613083751
 33
1.289999999999998
  0
3DFACE
  5
1787
  8
TURRET
 10
0.6505382386916248
 20
1.9294617613083751
 30
1.289999999999998
 11
0.0000000000000015
 21
3.5
 31
1.289999999999998
 12
0.6505382386916251
 22
3.230538238691623
 32
1.289999999999998
 13
0.9200000000000012
 23
2.5799999999999992
 33
1.289999999999998
  0
3DFACE
  5
1788
  8
TURRET
 10
0.563382640840133
 20
2.0166173591598668
 30
2.3899999999999988
 11
0.6505382386916249
 21
1.9294617613083751
 31
2.1500000000000008
 12
0.9200000000000012
 22
2.5799999999999992
 32
2.1500000000000008
 13
0.7967433714816846
 23
2.5799999999999992
 33
2.3899999999999988
  0
3DFACE
  5
1789
  8
TURRET
 10
0.325269119345813
 20
2.2547308806541801
 30
2.6699999999999999
 11
0.563382640840133
 21
2.0166173591598668
 31
2.3899999999999988
 12
0.7967433714816846
 22
2.5799999999999992
 32
2.3899999999999988
 13
0.460000000000001
 23
2.5799999999999992
 33
2.6699999999999999
  0
3DFACE
  5
178A
  8
TURRET
 10
0.0000000000000011
 20
2.5799999999999992
 30
2.7599999999999998
 11
0.325269119345813
 21
2.2547308806541801
 31
2.6699999999999999
 12
0.460000000000001
 22
2.5799999999999992
 32
2.6699999999999999
 13
0.0000000000000011
 23
2.5799999999999992
 33
2.7599999999999998
  0
3DFACE
  5
178B
  8
TURRET
 10
0.000000000000001
 20
1.7832566285183169
 30
2.3899999999999988
 11
0.000000000000001
 21
1.659999999999997
 31
2.1500000000000008
 12
0.6505382386916249
 22
1.9294617613083751
 32
2.1500000000000008
 13
0.563382640840133
 23
2.0166173591598668
 33
2.3899999999999988
  0
3DFACE
  5
178C
  8
TURRET
 10
0.0000000000000011
 20
2.1199999999999908
 30
2.6699999999999999
 11
0.000000000000001
 21
1.7832566285183169
 31
2.3899999999999988
 12
0.563382640840133
 22
2.0166173591598668
 32
2.3899999999999988
 13
0.325269119345813
 23
2.2547308806541801
 33
2.6699999999999999
  0
3DFACE
  5
178D
  8
TURRET
 10
0.0000000000000011
 20
2.5799999999999992
 30
2.7599999999999998
 11
0.0000000000000011
 21
2.1199999999999908
 31
2.6699999999999999
 12
0.325269119345813
 22
2.2547308806541801
 32
2.6699999999999999
 13
0.0000000000000011
 23
2.5799999999999992
 33
2.7599999999999998
  0
3DFACE
  5
178E
  8
TURRET
 10
-0.5633826408401309
 20
2.0166173591598668
 30
2.3899999999999988
 11
-0.6505382386916229
 21
1.9294617613083609
 31
2.1500000000000008
 12
0.000000000000001
 22
1.659999999999997
 32
2.1500000000000008
 13
0.000000000000001
 23
1.7832566285183169
 33
2.3899999999999988
  0
3DFACE
  5
178F
  8
TURRET
 10
-0.3252691193458108
 20
2.2547308806541801
 30
2.6699999999999999
 11
-0.5633826408401309
 21
2.0166173591598668
 31
2.3899999999999988
 12
0.000000000000001
 22
1.7832566285183169
 32
2.3899999999999988
 13
0.0000000000000011
 23
2.1199999999999908
 33
2.6699999999999999
  0
3DFACE
  5
1790
  8
TURRET
 10
0.0000000000000011
 20
2.5799999999999992
 30
2.7599999999999998
 11
-0.3252691193458108
 21
2.2547308806541801
 31
2.6699999999999999
 12
0.0000000000000011
 22
2.1199999999999908
 32
2.6699999999999999
 13
0.0000000000000011
 23
2.5799999999999992
 33
2.7599999999999998
  0
3DFACE
  5
1791
  8
TURRET
 10
-0.7967433714816823
 20
2.5799999999999992
 30
2.3899999999999988
 11
-0.9199999999999988
 21
2.5799999999999992
 31
2.1500000000000008
 12
-0.6505382386916229
 22
1.9294617613083609
 32
2.1500000000000008
 13
-0.5633826408401309
 23
2.0166173591598668
 33
2.3899999999999988
  0
3DFACE
  5
1792
  8
TURRET
 10
-0.4599999999999988
 20
2.5799999999999992
 30
2.6699999999999999
 11
-0.7967433714816823
 21
2.5799999999999992
 31
2.3899999999999988
 12
-0.5633826408401309
 22
2.0166173591598668
 32
2.3899999999999988
 13
-0.3252691193458108
 23
2.2547308806541801
 33
2.6699999999999999
  0
3DFACE
  5
1793
  8
TURRET
 10
0.0000000000000011
 20
2.5799999999999992
 30
2.7599999999999998
 11
-0.4599999999999988
 21
2.5799999999999992
 31
2.6699999999999999
 12
-0.3252691193458108
 22
2.2547308806541801
 32
2.6699999999999999
 13
0.0000000000000011
 23
2.5799999999999992
 33
2.7599999999999998
  0
3DFACE
  5
1794
  8
TURRET
 10
-0.5633826408401307
 20
3.1433826408401311
 30
2.3899999999999988
 11
-0.6505382386916228
 21
3.230538238691623
 31
2.1500000000000008
 12
-0.9199999999999988
 22
2.5799999999999992
 32
2.1500000000000008
 13
-0.7967433714816823
 23
2.5799999999999992
 33
2.3899999999999988
  0
3DFACE
  5
1795
  8
TURRET
 10
-0.3252691193458108
 20
2.9052691193458182
 30
2.6699999999999999
 11
-0.5633826408401307
 21
3.1433826408401311
 31
2.3899999999999988
 12
-0.7967433714816823
 22
2.5799999999999992
 32
2.3899999999999988
 13
-0.4599999999999988
 23
2.5799999999999992
 33
2.6699999999999999
  0
3DFACE
  5
1796
  8
TURRET
 10
0.0000000000000011
 20
2.5799999999999992
 30
2.7599999999999998
 11
-0.3252691193458108
 21
2.9052691193458182
 31
2.6699999999999999
 12
-0.4599999999999988
 22
2.5799999999999992
 32
2.6699999999999999
 13
0.0000000000000011
 23
2.5799999999999992
 33
2.7599999999999998
  0
3DFACE
  5
1797
  8
TURRET
 10
0.0000000000000012
 20
3.3767433714816808
 30
2.3899999999999988
 11
0.0000000000000012
 21
3.5
 31
2.1500000000000008
 12
-0.6505382386916228
 22
3.230538238691623
 32
2.1500000000000008
 13
-0.5633826408401307
 23
3.1433826408401311
 33
2.3899999999999988
  0
3DFACE
  5
1798
  8
TURRET
 10
0.0000000000000012
 20
3.0400000000000071
 30
2.6699999999999999
 11
0.0000000000000012
 21
3.3767433714816808
 31
2.3899999999999988
 12
-0.5633826408401307
 22
3.1433826408401311
 32
2.3899999999999988
 13
-0.3252691193458108
 23
2.9052691193458182
 33
2.6699999999999999
  0
3DFACE
  5
1799
  8
TURRET
 10
0.0000000000000011
 20
2.5799999999999992
 30
2.7599999999999998
 11
0.0000000000000012
 21
3.0400000000000071
 31
2.6699999999999999
 12
-0.3252691193458108
 22
2.9052691193458182
 32
2.6699999999999999
 13
0.0000000000000011
 23
2.5799999999999992
 33
2.7599999999999998
  0
3DFACE
  5
179A
  8
TURRET
 10
0.5633826408401332
 20
3.1433826408401311
 30
2.3899999999999988
 11
0.6505382386916251
 21
3.230538238691623
 31
2.1500000000000008
 12
0.0000000000000012
 22
3.5
 32
2.1500000000000008
 13
0.0000000000000012
 23
3.3767433714816808
 33
2.3899999999999988
  0
3DFACE
  5
179B
  8
TURRET
 10
0.3252691193458131
 20
2.9052691193458182
 30
2.6699999999999999
 11
0.5633826408401332
 21
3.1433826408401311
 31
2.3899999999999988
 12
0.0000000000000012
 22
3.3767433714816808
 32
2.3899999999999988
 13
0.0000000000000012
 23
3.0400000000000071
 33
2.6699999999999999
  0
3DFACE
  5
179C
  8
TURRET
 10
0.0000000000000011
 20
2.5799999999999992
 30
2.7599999999999998
 11
0.3252691193458131
 21
2.9052691193458182
 31
2.6699999999999999
 12
0.0000000000000012
 22
3.0400000000000071
 32
2.6699999999999999
 13
0.0000000000000011
 23
2.5799999999999992
 33
2.7599999999999998
  0
3DFACE
  5
179D
  8
TURRET
 10
0.7967433714816846
 20
2.5799999999999992
 30
2.3899999999999988
 11
0.9200000000000012
 21
2.5799999999999992
 31
2.1500000000000008
 12
0.6505382386916251
 22
3.230538238691623
 32
2.1500000000000008
 13
0.5633826408401332
 23
3.1433826408401311
 33
2.3899999999999988
  0
3DFACE
  5
179E
  8
TURRET
 10
0.460000000000001
 20
2.5799999999999992
 30
2.6699999999999999
 11
0.7967433714816846
 21
2.5799999999999992
 31
2.3899999999999988
 12
0.5633826408401332
 22
3.1433826408401311
 32
2.3899999999999988
 13
0.3252691193458131
 23
2.9052691193458182
 33
2.6699999999999999
  0
3DFACE
  5
179F
  8
TURRET
 10
0.0000000000000011
 20
2.5799999999999992
 30
2.7599999999999998
 11
0.460000000000001
 21
2.5799999999999992
 31
2.6699999999999999
 12
0.3252691193458131
 22
2.9052691193458182
 32
2.6699999999999999
 13
0.0000000000000011
 23
2.5799999999999992
 33
2.7599999999999998
  0
3DFACE
  5
17A0
  8
TURRET
 10
-0.6505382386916225
 20
3.230538238691623
 30
1.289999999999998
 11
-0.9199999999999988
 21
2.5799999999999992
 31
1.289999999999998
 12
-0.9199999999999988
 22
2.5799999999999992
 32
2.1500000000000008
 13
-0.6505382386916225
 23
3.230538238691623
 33
2.1500000000000008
  0
3DFACE
  5
17A1
  8
TURRET
 10
0.0000000000000014
 20
3.5
 30
1.289999999999998
 11
-0.6505382386916225
 21
3.230538238691623
 31
1.289999999999998
 12
-0.6505382386916225
 22
3.230538238691623
 32
2.1500000000000008
 13
0.0000000000000014
 23
3.5
 33
2.1500000000000008
  0
3DFACE
  5
17A2
  8
TURRET
 10
-0.9121677477306452
 20
0.91216774773065
 30
-0.0000000000000009
 11
-1.2899999999999989
 21
0.0000000000000009
 31
-0.0000000000000009
 12
-1.2899999999999989
 22
0.0000000000000009
 32
0.3500000000000005
 13
-0.9121677477306452
 23
0.91216774773065
 33
0.3500000000000005
  0
3DFACE
  5
17A3
  8
TURRET
 10
0.0000000000000012
 20
1.2900000000000069
 30
-0.0000000000000009
 11
-0.9121677477306452
 21
0.91216774773065
 31
-0.0000000000000009
 12
-0.9121677477306452
 22
0.91216774773065
 32
0.3500000000000005
 13
0.0000000000000012
 23
1.2900000000000069
 33
0.3500000000000005
  0
3DFACE
  5
17A4
  8
TURRET
 10
0.9121677477306474
 20
0.91216774773065
 30
-0.0000000000000009
 11
0.0000000000000012
 21
1.2900000000000069
 31
-0.0000000000000009
 12
0.0000000000000012
 22
1.2900000000000069
 32
0.3500000000000005
 13
0.9121677477306474
 23
0.91216774773065
 33
0.3500000000000005
  0
3DFACE
  5
17A5
  8
TURRET
 10
0.0000000000000007
 20
-1.2900000000000049
 30
-0.0000000000000009
 11
0.9121677477306469
 21
-0.9121677477306482
 31
-0.0000000000000009
 12
0.9121677477306469
 22
-0.9121677477306482
 32
0.3500000000000005
 13
0.0000000000000007
 23
-1.2900000000000049
 33
0.3500000000000005
  0
3DFACE
  5
17A6
  8
TURRET
 10
-0.9121677477306457
 20
-0.9121677477306482
 30
-0.0000000000000009
 11
0.0000000000000007
 21
-1.2900000000000049
 31
-0.0000000000000009
 12
0.0000000000000007
 22
-1.2900000000000049
 32
0.3500000000000005
 13
-0.9121677477306457
 23
-0.9121677477306482
 33
0.3500000000000005
  0
3DFACE
  5
17A7
  8
TURRET
 10
-1.2899999999999989
 20
0.0000000000000009
 30
-0.0000000000000009
 11
-0.9121677477306457
 21
-0.9121677477306482
 31
-0.0000000000000009
 12
-0.9121677477306457
 22
-0.9121677477306482
 32
0.3500000000000005
 13
-1.2899999999999989
 23
0.0000000000000009
 33
0.3500000000000005
  0
LINE
  5
19BF
  8
DR3
 10
0.0
 20
56.355995885866939
 30
-139.84756314278681
 11
0.0
 21
-175.93829116695304
 31
-119.69606676559428
  0
LINE
  5
19F5
  8
DR3
 10
0.0
 20
29.716190035782915
 30
-196.40807670290147
 11
0.0
 21
-175.94666595178782
 31
-185.83896593689769
  0
LINE
  5
1A05
  8
DR3
 10
2.3513555321783945
 20
56.344631630891641
 30
24.965538787013998
 11
-3.2098320405145992
 21
-76.915975251209673
 31
84.241705845426409
  0
LINE
  5
1A06
  8
DR3
 10
2.4728105917557093
 20
56.427842942712061
 30
33.848339062641038
 11
-3.2099999999999991
 21
-73.25
 31
84.241780493061697
  0
LINE
  5
1A95
  8
DR3
 10
-2.4728105917557093
 20
56.427842942712061
 30
33.848339062641038
 11
3.2099999999999991
 21
-73.25
 31
84.241780493061697
  0
LINE
  5
1A96
  8
DR3
 10
-2.3513555321783945
 20
56.344631630891641
 30
24.965538787013998
 11
3.2098320405145992
 21
-76.915975251209673
 31
84.241705845426409
  0
VIEWPORT
  5
2E
 67
     1
  8
0
 10
144.7270812988281
 20
101.2295806407928
 30
0.0
 40
391.13550988316581
 41
222.15178063964839
 68
     2
 69
     1
1001
ACAD
1000
MVIEW
1002
{
1070
    16
1010
0.0
1020
0.0
1030
0.0
1010
0.0
1020
0.0
1030
1.0
1040
0.0
1040
222.15178063964839
1040
144.7270812988281
1040
101.2295806407928
1040
50.0
1040
0.0
1040
0.0
1070
     0
1070
   100
1070
     1
1070
     1
1070
     0
1070
     0
1070
     0
1070
     0
1040
0.0
1040
0.0
1040
0.0
1040
10.0
1040
10.0
1040
10.0
1040
10.0
1070
     0
1002
{
1002
}
1002
}
  0
VIEWPORT
  5
30
 67
     1
  8
0
 10
139.22375631332389
 20
100.8062499761581
 30
0.0
 40
222.75801010131829
 41
161.289999961853
 68
     1
 69
     2
1001
ACAD
1000
MVIEW
1002
{
1070
    16
1010
0.0
1020
0.0
1030
0.0
1010
0.0
1020
0.0
1030
1.0
1040
0.0
1040
307.49010134148989
1040
210.0
1040
148.5
1040
50.0
1040
0.0
1040
0.0
1070
     0
1070
   100
1070
     1
1070
     3
1070
     0
1070
     1
1070
     0
1070
     0
1040
0.0
1040
0.0
1040
0.0
1040
10.0
1040
10.0
1040
10.0
1040
10.0
1070
     0
1002
{
1002
}
1002
}
  0
ENDSEC
  0
EOF
