  0
SECTION
  2
HEADER
  9
$ACADVER
  1
AC1009
  9
$INSBASE
 10
0.0
 20
0.0
 30
0.0
  9
$EXTMIN
 10
-0.15
 20
-2.359999999999999
 30
-3.7200000000000002
  9
$EXTMAX
 10
1.0
 20
12.27999999999999
 30
0.2158753387533874
  9
$LIMMIN
 10
0.0
 20
0.0
  9
$LIMMAX
 10
420.0
 20
297.0
  9
$ORTHOMODE
 70
     1
  9
$REGENMODE
 70
     1
  9
$FILLMODE
 70
     1
  9
$QTEXTMODE
 70
     0
  9
$MIRRTEXT
 70
     1
  9
$DRAGMODE
 70
     2
  9
$LTSCALE
 40
1.0
  9
$OSMODE
 70
    35
  9
$ATTMODE
 70
     1
  9
$TEXTSIZE
 40
2.5
  9
$TRACEWID
 40
1.0
  9
$TEXTSTYLE
  7
STANDARD
  9
$CLAYER
  8
0
  9
$CELTYPE
  6
BYLAYER
  9
$CECOLOR
 62
   256
  9
$DIMSCALE
 40
1.0
  9
$DIMASZ
 40
2.5
  9
$DIMEXO
 40
0.625
  9
$DIMDLI
 40
3.75
  9
$DIMRND
 40
0.0
  9
$DIMDLE
 40
0.0
  9
$DIMEXE
 40
1.25
  9
$DIMTP
 40
0.0
  9
$DIMTM
 40
0.0
  9
$DIMTXT
 40
2.5
  9
$DIMCEN
 40
2.5
  9
$DIMTSZ
 40
0.0
  9
$DIMTOL
 70
     0
  9
$DIMLIM
 70
     0
  9
$DIMTIH
 70
     0
  9
$DIMTOH
 70
     0
  9
$DIMSE1
 70
     0
  9
$DIMSE2
 70
     0
  9
$DIMTAD
 70
     1
  9
$DIMZIN
 70
     8
  9
$DIMBLK
  1

  9
$DIMASO
 70
     1
  9
$DIMSHO
 70
     1
  9
$DIMPOST
  1

  9
$DIMAPOST
  1

  9
$DIMALT
 70
     0
  9
$DIMALTD
 70
     3
  9
$DIMALTF
 40
0.03937007874016
  9
$DIMLFAC
 40
1.0
  9
$DIMTOFL
 70
     1
  9
$DIMTVP
 40
0.0
  9
$DIMTIX
 70
     0
  9
$DIMSOXD
 70
     0
  9
$DIMSAH
 70
     0
  9
$DIMBLK1
  1

  9
$DIMBLK2
  1

  9
$DIMSTYLE
  2
ISO-25
  9
$DIMCLRD
 70
     0
  9
$DIMCLRE
 70
     0
  9
$DIMCLRT
 70
     0
  9
$DIMTFAC
 40
1.0
  9
$DIMGAP
 40
0.625
  9
$LUNITS
 70
     2
  9
$LUPREC
 70
     4
  9
$SKETCHINC
 40
1.0
  9
$FILLETRAD
 40
10.0
  9
$AUNITS
 70
     0
  9
$AUPREC
 70
     0
  9
$MENU
  1
.
  9
$ELEVATION
 40
0.0
  9
$PELEVATION
 40
0.0
  9
$THICKNESS
 40
0.0
  9
$LIMCHECK
 70
     0
  9
$BLIPMODE
 70
     0
  9
$CHAMFERA
 40
10.0
  9
$CHAMFERB
 40
10.0
  9
$SKPOLY
 70
     0
  9
$TDCREATE
 40
2457007.9817184829
  9
$TDUPDATE
 40
2457008.3851712262
  9
$TDINDWG
 40
0.0475415972
  9
$TDUSRTIMER
 40
0.0475415972
  9
$USRTIMER
 70
     1
  9
$ANGBASE
 50
0.0
  9
$ANGDIR
 70
     0
  9
$PDMODE
 70
     0
  9
$PDSIZE
 40
0.0
  9
$PLINEWID
 40
0.0
  9
$COORDS
 70
     1
  9
$SPLFRAME
 70
     0
  9
$SPLINETYPE
 70
     6
  9
$SPLINESEGS
 70
     8
  9
$ATTDIA
 70
     1
  9
$ATTREQ
 70
     1
  9
$HANDLING
 70
-16383
  9
$HANDSEED
  5
27D
  9
$SURFTAB1
 70
     6
  9
$SURFTAB2
 70
     6
  9
$SURFTYPE
 70
     6
  9
$SURFU
 70
     6
  9
$SURFV
 70
     6
  9
$UCSNAME
  2

  9
$UCSORG
 10
0.0
 20
0.0
 30
0.0
  9
$UCSXDIR
 10
0.0
 20
-1.0
 30
0.0
  9
$UCSYDIR
 10
0.0
 20
0.0
 30
1.0
  9
$PUCSNAME
  2

  9
$PUCSORG
 10
0.0
 20
0.0
 30
0.0
  9
$PUCSXDIR
 10
1.0
 20
0.0
 30
0.0
  9
$PUCSYDIR
 10
0.0
 20
1.0
 30
0.0
  9
$USERI1
 70
     0
  9
$USERI2
 70
     0
  9
$USERI3
 70
     0
  9
$USERI4
 70
     0
  9
$USERI5
 70
     0
  9
$USERR1
 40
0.0
  9
$USERR2
 40
0.0
  9
$USERR3
 40
0.0
  9
$USERR4
 40
0.0
  9
$USERR5
 40
0.0
  9
$WORLDVIEW
 70
     1
  9
$SHADEDGE
 70
     3
  9
$SHADEDIF
 70
    70
  9
$TILEMODE
 70
     1
  9
$MAXACTVP
 70
    64
  9
$PLIMCHECK
 70
     0
  9
$PEXTMIN
 10
27.844751262664801
 20
20.161249995231621
 30
0.0
  9
$PEXTMAX
 10
250.60276136398309
 20
181.4512499570846
 30
0.0
  9
$PLIMMIN
 10
-3.757080078125
 20
-3.7570831775665279
  9
$PLIMMAX
 10
293.21124267578119
 20
206.21624445915219
  9
$UNITMODE
 70
     0
  9
$VISRETAIN
 70
     1
  9
$PLINEGEN
 70
     0
  9
$PSLTSCALE
 70
     1
  0
ENDSEC
  0
SECTION
  2
TABLES
  0
TABLE
  2
VPORT
 70
     7
  0
VPORT
  2
*ACTIVE
 70
     0
 10
0.0
 20
0.0
 11
1.0
 21
1.0
 12
-0.584728654279072
 22
-4.6066067506949766
 13
0.0
 23
0.0
 14
0.01
 24
0.01
 15
1.0
 25
1.0
 16
-1.0
 26
0.0
 36
0.0
 17
0.0
 27
0.0
 37
0.0
 40
25.074206685708688
 41
2.2487980769230771
 42
50.0
 43
0.0
 44
0.0
 50
0.0
 51
0.0
 71
     0
 72
   100
 73
     1
 74
     3
 75
     1
 76
     1
 77
     0
 78
     0
  0
ENDTAB
  0
TABLE
  2
LTYPE
 70
     1
  0
LTYPE
  2
CONTINUOUS
 70
     0
  3
Solid line
 72
    65
 73
     0
 40
0.0
  0
ENDTAB
  0
TABLE
  2
LAYER
 70
     4
  0
LAYER
  2
0
 70
     0
 62
     7
  6
CONTINUOUS
  0
LAYER
  2
DRAWING
 70
     0
 62
     9
  6
CONTINUOUS
  0
LAYER
  2
PISTOL2
 70
     0
 62
     2
  6
CONTINUOUS
  0
LAYER
  2
TMP
 70
     0
 62
     4
  6
CONTINUOUS
  0
ENDTAB
  0
TABLE
  2
STYLE
 70
     1
  0
STYLE
  2
STANDARD
 70
     0
 40
0.0
 41
1.0
 50
0.0
 71
     0
 42
2.5
  3
txt
  4

  0
ENDTAB
  0
TABLE
  2
VIEW
 70
     0
  0
ENDTAB
  0
TABLE
  2
UCS
 70
     0
  0
ENDTAB
  0
TABLE
  2
APPID
 70
     1
  0
APPID
  2
ACAD
 70
     0
  0
ENDTAB
  0
TABLE
  2
DIMSTYLE
 70
     1
  0
DIMSTYLE
  2
ISO-25
 70
     0
  3

  4

  5

  6

  7

 40
1.0
 41
2.5
 42
0.625
 43
3.75
 44
1.25
 45
0.0
 46
0.0
 47
0.0
 48
0.0
140
2.5
141
2.5
142
0.0
143
0.03937007874016
144
1.0
145
0.0
146
1.0
147
0.625
 71
     0
 72
     0
 73
     0
 74
     0
 75
     0
 76
     0
 77
     1
 78
     8
170
     0
171
     3
172
     1
173
     0
174
     0
175
     0
176
     0
177
     0
178
     0
  0
ENDTAB
  0
ENDSEC
  0
SECTION
  2
BLOCKS
  0
BLOCK
  8
0
  2
$MODEL_SPACE
 70
     0
 10
0.0
 20
0.0
 30
0.0
  3
$MODEL_SPACE
  1

  0
ENDBLK
  5
21
  8
0
  0
BLOCK
 67
     1
  8
0
  2
$PAPER_SPACE
 70
     0
 10
0.0
 20
0.0
 30
0.0
  3
$PAPER_SPACE
  1

  0
ENDBLK
  5
1D
 67
     1
  8
0
  0
ENDSEC
  0
SECTION
  2
ENTITIES
  0
3DFACE
  5
A8
  8
0
 10
0.0
 20
-1.3400000000000001
 30
0.1
 11
-0.0952627944162883
 21
-1.3400000000000001
 31
0.045
 12
-0.0952627944162883
 22
-1.409999999999999
 32
0.045
 13
0.0
 23
-1.409999999999999
 33
0.1
  0
3DFACE
  5
A9
  8
0
 10
-0.0952627944162883
 20
-1.3400000000000001
 30
0.045
 11
-0.0952627944162883
 21
-1.3400000000000001
 31
-0.065
 12
-0.0952627944162883
 22
-1.409999999999999
 32
-0.065
 13
-0.0952627944162883
 23
-1.409999999999999
 33
0.045
  0
3DFACE
  5
AA
  8
0
 10
-0.0952627944162883
 20
-1.3400000000000001
 30
-0.065
 11
0.0
 21
-1.3400000000000001
 31
-0.12
 12
0.0
 22
-1.409999999999999
 32
-0.12
 13
-0.0952627944162883
 23
-1.409999999999999
 33
-0.065
  0
3DFACE
  5
AB
  8
0
 10
0.0
 20
-1.3400000000000001
 30
-0.12
 11
0.0952627944162883
 21
-1.3400000000000001
 31
-0.065
 12
0.0952627944162883
 22
-1.409999999999999
 32
-0.065
 13
0.0
 23
-1.409999999999999
 33
-0.12
  0
3DFACE
  5
AC
  8
0
 10
0.0952627944162883
 20
-1.3400000000000001
 30
-0.065
 11
0.0952627944162883
 21
-1.3400000000000001
 31
0.0449999999999999
 12
0.0952627944162883
 22
-1.409999999999999
 32
0.0449999999999999
 13
0.0952627944162883
 23
-1.409999999999999
 33
-0.065
  0
3DFACE
  5
AD
  8
0
 10
0.0952627944162883
 20
-1.3400000000000001
 30
0.0449999999999999
 11
0.0
 21
-1.3400000000000001
 31
0.1
 12
0.0
 22
-1.409999999999999
 32
0.1
 13
0.0952627944162883
 23
-1.409999999999999
 33
0.0449999999999999
  0
3DFACE
  5
AE
  8
0
 10
0.075
 20
-2.319999999999999
 30
-0.0000000000000001
 11
0.0530330085889911
 21
-2.319999999999999
 31
-0.0530330085889911
 12
0.0565685424949238
 22
-1.429999999999999
 32
-0.0565685424949238
 13
0.08
 23
-1.429999999999999
 33
0.0
  0
3DFACE
  5
AF
  8
0
 10
0.0530330085889911
 20
-2.319999999999999
 30
-0.0530330085889911
 11
0.0
 21
-2.319999999999999
 31
-0.0750000000000001
 12
0.0
 22
-1.429999999999999
 32
-0.08
 13
0.0565685424949238
 23
-1.429999999999999
 33
-0.0565685424949238
  0
3DFACE
  5
B0
  8
0
 10
0.0
 20
-2.319999999999999
 30
-0.0750000000000001
 11
-0.0530330085889911
 21
-2.319999999999999
 31
-0.0530330085889911
 12
-0.0565685424949238
 22
-1.429999999999999
 32
-0.0565685424949238
 13
0.0
 23
-1.429999999999999
 33
-0.08
  0
3DFACE
  5
B1
  8
0
 10
-0.0530330085889911
 20
-2.319999999999999
 30
-0.0530330085889911
 11
-0.075
 21
-2.319999999999999
 31
-0.0000000000000001
 12
-0.08
 22
-1.429999999999999
 32
0.0
 13
-0.0565685424949238
 23
-1.429999999999999
 33
-0.0565685424949238
  0
3DFACE
  5
B2
  8
0
 10
-0.075
 20
-2.319999999999999
 30
-0.0000000000000001
 11
-0.0530330085889911
 21
-2.319999999999999
 31
0.053033008588991
 12
-0.0565685424949238
 22
-1.429999999999999
 32
0.0565685424949238
 13
-0.08
 23
-1.429999999999999
 33
0.0
  0
3DFACE
  5
B3
  8
0
 10
-0.0530330085889911
 20
-2.319999999999999
 30
0.053033008588991
 11
0.0
 21
-2.319999999999999
 31
0.075
 12
0.0
 22
-1.429999999999999
 32
0.08
 13
-0.0565685424949238
 23
-1.429999999999999
 33
0.0565685424949238
  0
3DFACE
  5
B4
  8
0
 10
0.0
 20
-2.319999999999999
 30
0.075
 11
0.0530330085889911
 21
-2.319999999999999
 31
0.053033008588991
 12
0.0565685424949238
 22
-1.429999999999999
 32
0.0565685424949238
 13
0.0
 23
-1.429999999999999
 33
0.08
  0
3DFACE
  5
B5
  8
0
 10
0.0530330085889911
 20
-2.319999999999999
 30
0.053033008588991
 11
0.075
 21
-2.319999999999999
 31
-0.0000000000000001
 12
0.08
 22
-1.429999999999999
 32
0.0
 13
0.0565685424949238
 23
-1.429999999999999
 33
0.0565685424949238
  0
3DFACE
  5
B6
  8
0
 10
-0.0565685424949238
 20
-1.429999999999999
 30
0.0565685424949238
 11
0.0
 21
-1.429999999999999
 31
0.08
 12
0.0
 22
-1.409999999999999
 32
0.1
 13
-0.0952627944162883
 23
-1.409999999999999
 33
0.045
  0
3DFACE
  5
B7
  8
0
 10
0.0
 20
-1.429999999999999
 30
0.08
 11
0.0565685424949238
 21
-1.429999999999999
 31
0.0565685424949238
 12
0.0952627944162883
 22
-1.409999999999999
 32
0.0449999999999999
 13
0.0
 23
-1.409999999999999
 33
0.1
  0
3DFACE
  5
B8
  8
0
 10
-0.08
 20
-1.429999999999999
 30
0.0
 11
-0.0565685424949238
 21
-1.429999999999999
 31
0.0565685424949238
 12
-0.0952627944162883
 22
-1.409999999999999
 32
0.045
 13
-0.0952627944162883
 23
-1.409999999999999
 33
0.045
  0
3DFACE
  5
B9
  8
0
 10
0.0565685424949238
 20
-1.429999999999999
 30
0.0565685424949238
 11
0.08
 21
-1.429999999999999
 31
0.0
 12
0.0952627944162883
 22
-1.409999999999999
 32
0.0449999999999999
 13
0.0952627944162883
 23
-1.409999999999999
 33
0.0449999999999999
  0
3DFACE
  5
BA
  8
0
 10
0.0952627944162883
 20
-1.409999999999999
 30
-0.065
 11
0.0952627944162883
 21
-1.409999999999999
 31
0.0449999999999999
 12
0.08
 22
-1.429999999999999
 32
0.0
 13
0.08
 23
-1.429999999999999
 33
0.0
  0
3DFACE
  5
BB
  8
0
 10
0.0952627944162883
 20
-1.409999999999999
 30
-0.065
 11
0.08
 21
-1.429999999999999
 31
0.0
 12
0.0565685424949238
 22
-1.429999999999999
 32
-0.0565685424949237
 13
0.0565685424949238
 23
-1.429999999999999
 33
-0.0565685424949237
  0
3DFACE
  5
BC
  8
0
 10
0.0952627944162883
 20
-1.409999999999999
 30
-0.065
 11
0.0565685424949238
 21
-1.429999999999999
 31
-0.0565685424949238
 12
0.0
 22
-1.409999999999999
 32
-0.12
 13
0.0
 23
-1.409999999999999
 33
-0.12
  0
3DFACE
  5
BD
  8
0
 10
0.0565685424949238
 20
-1.429999999999999
 30
-0.0565685424949238
 11
0.0
 21
-1.429999999999999
 31
-0.08
 12
0.0
 22
-1.409999999999999
 32
-0.12
 13
0.0
 23
-1.409999999999999
 33
-0.12
  0
3DFACE
  5
BE
  8
0
 10
0.0
 20
-1.429999999999999
 30
-0.08
 11
-0.0952627944162883
 21
-1.409999999999999
 31
-0.065
 12
0.0
 22
-1.409999999999999
 32
-0.12
 13
0.0
 23
-1.409999999999999
 33
-0.12
  0
3DFACE
  5
BF
  8
0
 10
-0.0565685424949237
 20
-1.429999999999999
 30
-0.0565685424949238
 11
-0.0952627944162883
 21
-1.409999999999999
 31
-0.065
 12
0.0
 22
-1.429999999999999
 32
-0.08
 13
0.0
 23
-1.429999999999999
 33
-0.08
  0
3DFACE
  5
C0
  8
0
 10
-0.08
 20
-1.429999999999999
 30
0.0
 11
-0.0952627944162883
 21
-1.409999999999999
 31
-0.065
 12
-0.0565685424949238
 22
-1.429999999999999
 32
-0.0565685424949238
 13
-0.0565685424949238
 23
-1.429999999999999
 33
-0.0565685424949238
  0
3DFACE
  5
C1
  8
0
 10
-0.0952627944162883
 20
-1.409999999999999
 30
0.045
 11
-0.0952627944162883
 21
-1.409999999999999
 31
-0.065
 12
-0.0800000000000001
 22
-1.429999999999999
 32
0.0
 13
-0.0800000000000001
 23
-1.429999999999999
 33
0.0
  0
3DFACE
  5
C2
  8
0
 10
-0.075
 20
-2.319999999999999
 30
-0.0000000000000001
 11
0.0530330085889911
 21
-2.319999999999999
 31
0.053033008588991
 12
0.0
 22
-2.319999999999999
 32
0.075
 13
-0.0530330085889911
 23
-2.319999999999999
 33
0.053033008588991
  0
3DFACE
  5
C3
  8
0
 10
-0.0530330085889911
 20
-2.319999999999999
 30
-0.0530330085889911
 11
0.075
 21
-2.319999999999999
 31
-0.0000000000000001
 12
0.053033008588991
 22
-2.319999999999999
 32
0.053033008588991
 13
-0.075
 23
-2.319999999999999
 33
-0.0000000000000001
  0
3DFACE
  5
C4
  8
0
 10
0.0
 20
-2.319999999999999
 30
-0.0750000000000001
 11
0.0530330085889911
 21
-2.319999999999999
 31
-0.0530330085889911
 12
0.075
 22
-2.319999999999999
 32
-0.0000000000000001
 13
-0.053033008588991
 23
-2.319999999999999
 33
-0.0530330085889911
  0
3DFACE
  5
C6
  8
0
 10
-0.15
 20
0.0500000000000001
 30
-0.14
 11
-0.15
 21
-1.339999999999999
 31
-0.14
 12
-0.15
 22
-1.339999999999999
 32
0.0100000000000002
 13
-0.15
 23
0.0500000000000001
 33
0.0100000000000002
  0
3DFACE
  5
C7
  8
0
 10
0.15
 20
-1.339999999999999
 30
0.0100000000000002
 11
0.15
 21
-1.339999999999999
 31
-0.14
 12
0.15
 22
0.0500000000000001
 32
-0.14
 13
0.15
 23
0.0500000000000001
 33
0.0100000000000002
  0
3DFACE
  5
C8
  8
0
 10
-0.15
 20
-1.339999999999999
 30
0.0100000000000002
 11
-0.15
 21
-1.339999999999999
 31
-0.14
 12
0.15
 22
-1.339999999999999
 32
-0.14
 13
0.15
 23
-1.339999999999999
 33
0.0100000000000002
  0
3DFACE
  5
C9
  8
0
 10
0.15
 20
0.0500000000000001
 30
0.0100000000000002
 11
0.15
 21
0.0500000000000001
 31
-0.14
 12
-0.15
 22
0.0500000000000001
 32
-0.14
 13
-0.15
 23
0.0500000000000001
 33
0.0100000000000002
  0
3DFACE
  5
CB
  8
0
 10
0.1
 20
-0.3400000000000001
 30
0.01
 11
0.1
 21
-1.2399999999999991
 31
0.01
 12
0.15
 22
-1.339999999999999
 32
0.0100000000000002
 13
0.15
 23
-0.34
 33
0.01
  0
3DFACE
  5
CD
  8
0
 10
0.15
 20
-1.0
 30
-0.1399999999999998
 11
0.15
 21
-0.94
 31
-0.24
 12
0.15
 22
-0.39
 32
-0.24
 13
0.15
 23
-0.38
 33
-0.1399999999999998
  0
3DFACE
  5
CE
  8
0
 10
-0.15
 20
-0.39
 30
-0.24
 11
-0.15
 21
-0.94
 31
-0.24
 12
-0.15
 22
-1.0
 32
-0.1399999999999998
 13
-0.15
 23
-0.38
 33
-0.1399999999999998
  0
3DFACE
  5
D0
  8
0
 10
-0.15
 20
-1.0
 30
-0.1399999999999998
 11
-0.15
 21
-0.94
 31
-0.24
 12
-0.1
 22
-0.9400000000000002
 32
-0.2399999999999999
 13
-0.1
 23
-1.0
 33
-0.1399999999999998
  0
3DFACE
  5
D1
  8
0
 10
0.15
 20
-0.38
 30
-0.1399999999999998
 11
0.15
 21
-0.39
 31
-0.24
 12
0.1
 22
-0.3899999999999998
 32
-0.24
 13
0.1
 23
-0.38
 33
-0.14
  0
3DFACE
  5
D4
  8
0
 10
0.05
 20
-0.94
 30
-0.24
 11
0.05
 21
-0.8000000000000003
 31
-0.4799999999999998
 12
0.15
 22
-0.8
 32
-0.48
 13
0.15
 23
-0.94
 33
-0.2399999999999998
  0
3DFACE
  5
D5
  8
0
 10
-0.15
 20
-0.27
 30
-0.48
 11
-0.15
 21
-0.8
 31
-0.48
 12
-0.15
 22
-0.94
 32
-0.2399999999999998
 13
-0.15
 23
-0.39
 33
-0.2399999999999998
  0
3DFACE
  5
D6
  8
0
 10
0.15
 20
-0.94
 30
-0.2399999999999998
 11
0.15
 21
-0.8
 31
-0.48
 12
0.15
 22
-0.27
 32
-0.48
 13
0.15
 23
-0.39
 33
-0.2399999999999998
  0
3DFACE
  5
DB
  8
0
 10
0.15
 20
-0.27
 30
-0.4799999999999998
 11
0.15
 21
-0.09
 31
-0.7700000000000001
 12
0.0
 22
-0.09
 32
-0.75
 13
0.0
 23
-0.22
 33
-0.5300000000000001
  0
3DFACE
  5
DC
  8
0
 10
0.15
 20
-0.8
 30
-0.4799999999999998
 11
0.15
 21
-0.71
 31
-0.5200000000000001
 12
0.15
 22
-0.09
 32
-0.7700000000000001
 13
0.15
 23
-0.27
 33
-0.4799999999999998
  0
3DFACE
  5
DD
  8
0
 10
-0.15
 20
-0.09
 30
-0.7700000000000001
 11
-0.15
 21
-0.71
 31
-0.5200000000000001
 12
-0.15
 22
-0.8
 32
-0.4799999999999998
 13
-0.15
 23
-0.27
 33
-0.4799999999999998
  0
3DFACE
  5
DE
  8
0
 10
0.0
 20
-0.7800000000000001
 30
-0.51
 11
0.0
 21
-0.71
 31
-0.59
 12
0.15
 22
-0.71
 32
-0.5200000000000001
 13
0.15
 23
-0.8
 33
-0.48
  0
3DFACE
  5
E2
  8
0
 10
-0.15
 20
0.05
 30
-0.99
 11
-0.15
 21
-0.37
 31
-1.0900000000000001
 12
-0.15
 22
-0.71
 32
-0.5200000000000001
 13
-0.15
 23
-0.09
 33
-0.7700000000000001
  0
3DFACE
  5
E3
  8
0
 10
0.15
 20
-0.71
 30
-0.5200000000000001
 11
0.15
 21
-0.37
 31
-1.0900000000000001
 12
0.15
 22
0.05
 32
-0.99
 13
0.15
 23
-0.09
 33
-0.7700000000000001
  0
3DFACE
  5
E4
  8
0
 10
0.15
 20
-0.09
 30
-0.7700000000000001
 11
0.15
 21
0.05
 31
-0.99
 12
0.0
 22
0.04
 32
-0.88
 13
0.0
 23
0.0
 33
-0.8100000000000001
  0
3DFACE
  5
E5
  8
0
 10
0.0
 20
-0.71
 30
-0.59
 11
0.0
 21
-0.4
 31
-1.0700000000000001
 12
0.15
 22
-0.37
 32
-1.0900000000000001
 13
0.15
 23
-0.71
 33
-0.5200000000000001
  0
3DFACE
  5
F1
  8
0
 10
0.15
 20
-0.37
 30
-1.0900000000000001
 11
0.15
 21
-0.36
 31
-1.1499999999999999
 12
0.15
 22
0.0500000000000001
 32
-1.1200000000000001
 13
0.15
 23
0.05
 33
-0.99
  0
3DFACE
  5
F2
  8
0
 10
-0.15
 20
0.0500000000000001
 30
-1.1200000000000001
 11
-0.15
 21
-0.36
 31
-1.1499999999999999
 12
-0.15
 22
-0.37
 32
-1.0900000000000001
 13
-0.15
 23
0.05
 33
-0.99
  0
3DFACE
  5
F4
  8
0
 10
0.0
 20
-0.4
 30
-1.0700000000000001
 11
0.0
 21
-0.38
 31
-1.1399999999999999
 12
0.15
 22
-0.36
 32
-1.1499999999999999
 13
0.15
 23
-0.37
 33
-1.0900000000000001
  0
3DFACE
  5
F5
  8
0
 10
0.15
 20
0.05
 30
-0.99
 11
0.15
 21
0.05
 31
-1.1200000000000001
 12
0.0
 22
0.08
 32
-1.1000000000000001
 13
0.0
 23
0.08
 33
-0.9799999999999998
  0
3DFACE
  5
FE
  8
0
 10
0.15
 20
0.0500000000000001
 30
-1.1200000000000001
 11
0.15
 21
-0.31
 31
-1.25
 12
-0.15
 22
-0.31
 32
-1.25
 13
-0.15
 23
0.0500000000000001
 33
-1.1200000000000001
  0
3DFACE
  5
FF
  8
0
 10
-0.15
 20
-0.31
 30
-1.25
 11
-0.15
 21
-0.36
 31
-1.1899999999999991
 12
-0.15
 22
-0.36
 32
-1.1499999999999999
 13
-0.15
 23
0.0500000000000001
 33
-1.1200000000000001
  0
3DFACE
  5
100
  8
0
 10
0.15
 20
-0.36
 30
-1.1499999999999999
 11
0.15
 21
-0.36
 31
-1.1899999999999991
 12
0.15
 22
-0.31
 32
-1.25
 13
0.15
 23
0.0500000000000001
 33
-1.1200000000000001
  0
3DFACE
  5
101
  8
0
 10
0.0
 20
-0.38
 30
-1.1399999999999999
 11
0.0
 21
-0.38
 31
-1.179999999999999
 12
0.15
 22
-0.36
 32
-1.1899999999999991
 13
0.15
 23
-0.36
 33
-1.1499999999999999
  0
3DFACE
  5
105
  8
0
 10
0.15
 20
-0.36
 30
-1.1899999999999991
 11
0.15
 21
-0.35
 31
-1.2299999999999991
 12
0.15
 22
-0.33
 32
-1.26
 13
0.15
 23
-0.31
 33
-1.25
  0
3DFACE
  5
106
  8
0
 10
-0.15
 20
-0.33
 30
-1.26
 11
-0.15
 21
-0.35
 31
-1.2299999999999991
 12
-0.15
 22
-0.36
 32
-1.1899999999999991
 13
-0.15
 23
-0.31
 33
-1.25
  0
3DFACE
  5
108
  8
0
 10
-0.15
 20
-0.36
 30
-1.1899999999999991
 11
-0.15
 21
-0.35
 31
-1.2299999999999991
 12
0.15
 22
-0.35
 32
-1.2299999999999991
 13
0.15
 23
-0.36
 33
-1.1899999999999991
  0
3DFACE
  5
109
  8
0
 10
0.15
 20
-0.31
 30
-1.25
 11
0.15
 21
-0.33
 31
-1.26
 12
-0.15
 22
-0.33
 32
-1.26
 13
-0.15
 23
-0.31
 33
-1.25
  0
3DFACE
  5
10C
  8
0
 10
-0.15
 20
-0.35
 30
-1.2299999999999991
 11
-0.15
 21
-0.37
 31
-1.2399999999999991
 12
0.15
 22
-0.37
 32
-1.2399999999999991
 13
0.15
 23
-0.35
 33
-1.2299999999999991
  0
3DFACE
  5
10D
  8
0
 10
0.15
 20
-0.35
 30
-1.2299999999999991
 11
0.15
 21
-0.37
 31
-1.2399999999999991
 12
0.15
 22
-0.37
 32
-1.27
 13
0.15
 23
-0.33
 33
-1.26
  0
3DFACE
  5
10E
  8
0
 10
0.15
 20
-0.33
 30
-1.26
 11
0.15
 21
-0.37
 31
-1.27
 12
-0.15
 22
-0.37
 32
-1.27
 13
-0.15
 23
-0.33
 33
-1.26
  0
3DFACE
  5
10F
  8
0
 10
-0.15
 20
-0.37
 30
-1.27
 11
-0.15
 21
-0.37
 31
-1.2399999999999991
 12
-0.15
 22
-0.35
 32
-1.2299999999999991
 13
-0.15
 23
-0.33
 33
-1.26
  0
3DFACE
  5
113
  8
0
 10
-0.15
 20
-0.4
 30
-1.2399999999999991
 11
-0.15
 21
-0.38
 31
-1.1999999999999991
 12
-0.15
 22
-0.37
 32
-1.2399999999999991
 13
-0.15
 23
-0.37
 33
-1.27
  0
3DFACE
  5
114
  8
0
 10
0.15
 20
-0.37
 30
-1.2399999999999991
 11
0.15
 21
-0.38
 31
-1.1999999999999991
 12
0.15
 22
-0.4
 32
-1.2399999999999991
 13
0.15
 23
-0.37
 33
-1.27
  0
3DFACE
  5
115
  8
0
 10
-0.15
 20
-0.37
 30
-1.2399999999999991
 11
-0.15
 21
-0.38
 31
-1.1999999999999991
 12
0.15
 22
-0.38
 32
-1.1999999999999991
 13
0.15
 23
-0.37
 33
-1.2399999999999991
  0
3DFACE
  5
116
  8
0
 10
0.15
 20
-0.37
 30
-1.27
 11
0.15
 21
-0.4
 31
-1.2399999999999991
 12
-0.15
 22
-0.4
 32
-1.2399999999999991
 13
-0.15
 23
-0.37
 33
-1.27
  0
3DFACE
  5
11B
  8
0
 10
-0.15
 20
-0.38
 30
-1.1999999999999991
 11
-0.15
 21
-0.39
 31
-1.1899999999999991
 12
0.15
 22
-0.39
 32
-1.1899999999999991
 13
0.15
 23
-0.38
 33
-1.1999999999999991
  0
3DFACE
  5
11C
  8
0
 10
0.15
 20
-0.38
 30
-1.1999999999999991
 11
0.15
 21
-0.39
 31
-1.1899999999999991
 12
0.15
 22
-0.4
 32
-1.1999999999999991
 13
0.15
 23
-0.4
 33
-1.2399999999999991
  0
3DFACE
  5
11D
  8
0
 10
-0.15
 20
-0.4
 30
-1.1999999999999991
 11
-0.15
 21
-0.39
 31
-1.1899999999999991
 12
-0.15
 22
-0.38
 32
-1.1999999999999991
 13
-0.15
 23
-0.4
 33
-1.2399999999999991
  0
3DFACE
  5
11E
  8
0
 10
0.15
 20
-0.4
 30
-1.2399999999999991
 11
0.15
 21
-0.4
 31
-1.1999999999999991
 12
-0.15
 22
-0.4
 32
-1.1999999999999991
 13
-0.15
 23
-0.4
 33
-1.2399999999999991
  0
3DFACE
  5
11F
  8
0
 10
0.15
 20
-0.4
 30
-1.1999999999999991
 11
0.15
 21
-0.39
 31
-1.1899999999999991
 12
-0.15
 22
-0.39
 32
-1.1899999999999991
 13
-0.15
 23
-0.4
 33
-1.1999999999999991
  0
3DFACE
  5
122
  8
PISTOL2
 62
     2
 10
0.1
 20
-1.339999999999999
 30
-0.14
 11
0.1
 21
-1.339999999999999
 31
-0.24
 12
0.1
 22
-0.94
 32
-0.24
 13
0.1
 23
-1.0
 33
-0.14
  0
3DFACE
  5
123
  8
PISTOL2
 62
     2
 10
-0.1
 20
-1.339999999999999
 30
-0.14
 11
-0.1
 21
-1.339999999999999
 31
-0.24
 12
0.1
 22
-1.339999999999999
 32
-0.24
 13
0.1
 23
-1.339999999999999
 33
-0.14
  0
3DFACE
  5
125
  8
PISTOL2
 62
     2
 10
-0.1
 20
-0.94
 30
-0.24
 11
-0.1
 21
-1.339999999999999
 31
-0.24
 12
-0.1
 22
-1.339999999999999
 32
-0.14
 13
-0.1
 23
-1.0
 33
-0.14
  0
3DFACE
  5
12A
  8
PISTOL2
 62
     2
 10
0.05
 20
-1.339999999999999
 30
-0.24
 11
0.05
 21
-1.3
 31
-0.28
 12
0.05
 22
-1.1999999999999991
 32
-0.28
 13
0.05
 23
-1.1399999999999999
 33
-0.24
  0
3DFACE
  5
12B
  8
PISTOL2
 62
     2
 10
-0.05
 20
-1.1999999999999991
 30
-0.28
 11
-0.05
 21
-1.3
 31
-0.28
 12
-0.05
 22
-1.339999999999999
 32
-0.24
 13
-0.05
 23
-1.1399999999999999
 33
-0.24
  0
3DFACE
  5
12D
  8
PISTOL2
 62
     2
 10
-0.05
 20
-1.339999999999999
 30
-0.24
 11
-0.05
 21
-1.3
 31
-0.28
 12
0.05
 22
-1.3
 32
-0.28
 13
0.05
 23
-1.339999999999999
 33
-0.24
  0
3DFACE
  5
12E
  8
PISTOL2
 62
     2
 10
0.05
 20
-1.1399999999999999
 30
-0.24
 11
0.05
 21
-1.1999999999999991
 31
-0.28
 12
-0.05
 22
-1.1999999999999991
 32
-0.28
 13
-0.05
 23
-1.1399999999999999
 33
-0.24
  0
3DFACE
  5
131
  8
PISTOL2
 62
     2
 10
0.05
 20
-1.3
 30
-0.28
 11
0.05
 21
-1.27
 31
-0.3200000000000001
 12
0.05
 22
-1.2399999999999991
 32
-0.3200000000000001
 13
0.05
 23
-1.1999999999999991
 33
-0.28
  0
3DFACE
  5
132
  8
PISTOL2
 62
     2
 10
-0.05
 20
-1.3
 30
-0.28
 11
-0.05
 21
-1.27
 31
-0.3200000000000001
 12
0.05
 22
-1.27
 32
-0.3200000000000001
 13
0.05
 23
-1.3
 33
-0.28
  0
3DFACE
  5
133
  8
PISTOL2
 62
     2
 10
0.05
 20
-1.1999999999999991
 30
-0.28
 11
0.05
 21
-1.2399999999999991
 31
-0.3200000000000001
 12
-0.05
 22
-1.2399999999999991
 32
-0.3200000000000001
 13
-0.05
 23
-1.1999999999999991
 33
-0.28
  0
3DFACE
  5
134
  8
PISTOL2
 62
     2
 10
-0.05
 20
-1.2399999999999991
 30
-0.3200000000000001
 11
-0.05
 21
-1.27
 31
-0.3200000000000001
 12
-0.05
 22
-1.3
 32
-0.28
 13
-0.05
 23
-1.1999999999999991
 33
-0.28
  0
3DFACE
  5
138
  8
PISTOL2
 62
     2
 10
-0.05
 20
-1.25
 30
-0.4100000000000001
 11
-0.05
 21
-1.27
 31
-0.4100000000000001
 12
-0.05
 22
-1.27
 32
-0.32
 13
-0.05
 23
-1.2399999999999991
 33
-0.32
  0
3DFACE
  5
139
  8
PISTOL2
 62
     2
 10
0.05
 20
-1.2399999999999991
 30
-0.32
 11
0.05
 21
-1.25
 31
-0.4100000000000001
 12
-0.05
 22
-1.25
 32
-0.4100000000000001
 13
-0.05
 23
-1.2399999999999991
 33
-0.32
  0
3DFACE
  5
13A
  8
PISTOL2
 62
     2
 10
0.05
 20
-1.27
 30
-0.32
 11
0.05
 21
-1.27
 31
-0.4100000000000001
 12
0.05
 22
-1.25
 32
-0.4100000000000001
 13
0.05
 23
-1.2399999999999991
 33
-0.32
  0
3DFACE
  5
13C
  8
PISTOL2
 62
     2
 10
-0.05
 20
-1.27
 30
-0.32
 11
-0.05
 21
-1.27
 31
-0.4100000000000001
 12
0.05
 22
-1.27
 32
-0.4100000000000001
 13
0.05
 23
-1.27
 33
-0.32
  0
3DFACE
  5
140
  8
PISTOL2
 62
     2
 10
0.05
 20
-1.27
 30
-0.4100000000000001
 11
0.05
 21
-1.26
 31
-0.45
 12
0.05
 22
-1.25
 32
-0.43
 13
0.05
 23
-1.25
 33
-0.4100000000000001
  0
3DFACE
  5
141
  8
PISTOL2
 62
     2
 10
0.05
 20
-1.25
 30
-0.4100000000000001
 11
0.05
 21
-1.25
 31
-0.43
 12
-0.05
 22
-1.25
 32
-0.43
 13
-0.05
 23
-1.25
 33
-0.4100000000000001
  0
3DFACE
  5
142
  8
PISTOL2
 62
     2
 10
-0.05
 20
-1.25
 30
-0.43
 11
-0.05
 21
-1.26
 31
-0.45
 12
-0.05
 22
-1.27
 32
-0.4100000000000001
 13
-0.05
 23
-1.25
 33
-0.4100000000000001
  0
3DFACE
  5
143
  8
PISTOL2
 62
     2
 10
-0.05
 20
-1.27
 30
-0.4100000000000001
 11
-0.05
 21
-1.26
 31
-0.45
 12
0.05
 22
-1.26
 32
-0.45
 13
0.05
 23
-1.27
 33
-0.4100000000000001
  0
3DFACE
  5
146
  8
PISTOL2
 62
     2
 10
-0.05
 20
-1.26
 30
-0.45
 11
-0.05
 21
-1.2199999999999991
 31
-0.51
 12
0.05
 22
-1.2199999999999991
 32
-0.51
 13
0.05
 23
-1.26
 33
-0.45
  0
3DFACE
  5
147
  8
PISTOL2
 62
     2
 10
0.05
 20
-1.26
 30
-0.45
 11
0.05
 21
-1.2199999999999991
 31
-0.51
 12
0.05
 22
-1.2099999999999991
 32
-0.5
 13
0.05
 23
-1.25
 33
-0.43
  0
3DFACE
  5
148
  8
PISTOL2
 62
     2
 10
0.05
 20
-1.25
 30
-0.43
 11
0.05
 21
-1.2099999999999991
 31
-0.5
 12
-0.05
 22
-1.2099999999999991
 32
-0.5
 13
-0.05
 23
-1.25
 33
-0.43
  0
3DFACE
  5
149
  8
PISTOL2
 62
     2
 10
-0.05
 20
-1.2099999999999991
 30
-0.5
 11
-0.05
 21
-1.2199999999999991
 31
-0.51
 12
-0.05
 22
-1.26
 32
-0.45
 13
-0.05
 23
-1.25
 33
-0.43
  0
3DFACE
  5
14D
  8
PISTOL2
 62
     2
 10
-0.05
 20
-1.1200000000000001
 30
-0.5400000000000002
 11
-0.05
 21
-1.159999999999999
 31
-0.55
 12
-0.05
 22
-1.2199999999999991
 32
-0.51
 13
-0.05
 23
-1.2099999999999991
 33
-0.5
  0
3DFACE
  5
14E
  8
PISTOL2
 62
     2
 10
-0.05
 20
-1.2199999999999991
 30
-0.51
 11
-0.05
 21
-1.159999999999999
 31
-0.55
 12
0.05
 22
-1.159999999999999
 32
-0.55
 13
0.05
 23
-1.2199999999999991
 33
-0.51
  0
3DFACE
  5
14F
  8
PISTOL2
 62
     2
 10
0.05
 20
-1.2199999999999991
 30
-0.51
 11
0.05
 21
-1.159999999999999
 31
-0.55
 12
0.05
 22
-1.1200000000000001
 32
-0.5400000000000002
 13
0.05
 23
-1.2099999999999991
 33
-0.5
  0
3DFACE
  5
150
  8
PISTOL2
 62
     2
 10
0.05
 20
-1.2099999999999991
 30
-0.5
 11
0.05
 21
-1.1200000000000001
 31
-0.5400000000000002
 12
-0.05
 22
-1.1200000000000001
 32
-0.5400000000000002
 13
-0.05
 23
-1.2099999999999991
 33
-0.5
  0
3DFACE
  5
154
  8
PISTOL2
 62
     2
 10
-0.05
 20
-1.03
 30
-0.5400000000000002
 11
-0.05
 21
-1.1000000000000001
 31
-0.5600000000000001
 12
-0.05
 22
-1.159999999999999
 32
-0.55
 13
-0.05
 23
-1.1200000000000001
 33
-0.5400000000000002
  0
3DFACE
  5
155
  8
PISTOL2
 62
     2
 10
-0.05
 20
-1.159999999999999
 30
-0.55
 11
-0.05
 21
-1.1000000000000001
 31
-0.5600000000000001
 12
0.05
 22
-1.1000000000000001
 32
-0.5600000000000001
 13
0.05
 23
-1.159999999999999
 33
-0.55
  0
3DFACE
  5
156
  8
PISTOL2
 62
     2
 10
0.05
 20
-1.159999999999999
 30
-0.55
 11
0.05
 21
-1.1000000000000001
 31
-0.5600000000000001
 12
0.05
 22
-1.03
 32
-0.5400000000000002
 13
0.05
 23
-1.1200000000000001
 33
-0.5400000000000002
  0
3DFACE
  5
157
  8
PISTOL2
 62
     2
 10
0.05
 20
-1.1200000000000001
 30
-0.5400000000000002
 11
0.05
 21
-1.03
 31
-0.5400000000000002
 12
-0.05
 22
-1.03
 32
-0.5400000000000002
 13
-0.05
 23
-1.1200000000000001
 33
-0.5400000000000002
  0
3DFACE
  5
15B
  8
PISTOL2
 62
     2
 10
0.05
 20
-1.1000000000000001
 30
-0.5600000000000001
 11
0.05
 21
-1.03
 31
-0.5600000000000001
 12
0.05
 22
-1.03
 32
-0.5400000000000002
 13
0.05
 23
-1.03
 33
-0.5400000000000002
  0
3DFACE
  5
15C
  8
PISTOL2
 62
     2
 10
-0.05
 20
-1.1000000000000001
 30
-0.5600000000000001
 11
-0.05
 21
-1.03
 31
-0.5600000000000001
 12
0.05
 22
-1.03
 32
-0.5600000000000001
 13
0.05
 23
-1.1000000000000001
 33
-0.5600000000000001
  0
3DFACE
  5
15E
  8
PISTOL2
 62
     2
 10
-0.05
 20
-1.03
 30
-0.5400000000000002
 11
-0.05
 21
-1.03
 31
-0.5600000000000001
 12
-0.05
 22
-1.1000000000000001
 32
-0.5600000000000001
 13
-0.05
 23
-1.03
 33
-0.5400000000000002
  0
3DFACE
  5
162
  8
PISTOL2
 62
     2
 10
0.05
 20
-1.03
 30
-0.5600000000000001
 11
0.05
 21
-0.9599999999999999
 31
-0.5300000000000001
 12
0.05
 22
-0.98
 32
-0.5200000000000001
 13
0.05
 23
-1.03
 33
-0.5400000000000002
  0
3DFACE
  5
163
  8
PISTOL2
 62
     2
 10
-0.05
 20
-1.03
 30
-0.5600000000000001
 11
-0.05
 21
-0.9599999999999999
 31
-0.5300000000000001
 12
0.05
 22
-0.9599999999999999
 32
-0.5300000000000001
 13
0.05
 23
-1.03
 33
-0.5600000000000001
  0
3DFACE
  5
164
  8
PISTOL2
 62
     2
 10
0.05
 20
-1.03
 30
-0.5400000000000002
 11
0.05
 21
-0.98
 31
-0.5200000000000001
 12
-0.05
 22
-0.98
 32
-0.5200000000000001
 13
-0.05
 23
-1.03
 33
-0.5400000000000002
  0
3DFACE
  5
165
  8
PISTOL2
 62
     2
 10
-0.05
 20
-0.98
 30
-0.5200000000000001
 11
-0.05
 21
-0.9599999999999999
 31
-0.5300000000000001
 12
-0.05
 22
-1.03
 32
-0.5600000000000001
 13
-0.05
 23
-1.03
 33
-0.5400000000000002
  0
3DFACE
  5
169
  8
PISTOL2
 62
     2
 10
-0.05
 20
-0.9299999999999998
 30
-0.48
 11
-0.05
 21
-0.9099999999999999
 31
-0.5
 12
-0.05
 22
-0.9599999999999999
 32
-0.5300000000000001
 13
-0.05
 23
-0.98
 33
-0.5200000000000001
  0
3DFACE
  5
16A
  8
PISTOL2
 62
     2
 10
-0.05
 20
-0.9599999999999999
 30
-0.5300000000000001
 11
-0.05
 21
-0.9099999999999999
 31
-0.5
 12
0.05
 22
-0.9099999999999999
 32
-0.5
 13
0.05
 23
-0.9599999999999999
 33
-0.5300000000000001
  0
3DFACE
  5
16B
  8
PISTOL2
 62
     2
 10
0.05
 20
-0.9599999999999999
 30
-0.5300000000000001
 11
0.05
 21
-0.9099999999999999
 31
-0.5
 12
0.05
 22
-0.9299999999999998
 32
-0.48
 13
0.05
 23
-0.98
 33
-0.5200000000000001
  0
3DFACE
  5
16C
  8
PISTOL2
 62
     2
 10
0.05
 20
-0.98
 30
-0.5200000000000001
 11
0.05
 21
-0.9299999999999998
 31
-0.48
 12
-0.05
 22
-0.9299999999999998
 32
-0.48
 13
-0.05
 23
-0.98
 33
-0.5200000000000001
  0
3DFACE
  5
171
  8
PISTOL2
 62
     2
 10
0.05
 20
-0.9300000000000001
 30
-0.48
 11
0.05
 21
-0.9
 31
-0.44
 12
-0.05
 22
-0.9
 32
-0.44
 13
-0.05
 23
-0.9300000000000001
 33
-0.48
  0
3DFACE
  5
172
  8
PISTOL2
 62
     2
 10
0.05
 20
-0.9099999999999999
 30
-0.5
 11
0.05
 21
-0.8599999999999999
 31
-0.48
 12
0.05
 22
-0.9
 32
-0.44
 13
0.05
 23
-0.9300000000000001
 33
-0.48
  0
3DFACE
  5
173
  8
PISTOL2
 62
     2
 10
-0.05
 20
-0.9
 30
-0.44
 11
-0.05
 21
-0.8599999999999999
 31
-0.48
 12
-0.05
 22
-0.9099999999999999
 32
-0.5
 13
-0.05
 23
-0.9300000000000001
 33
-0.48
  0
3DFACE
  5
174
  8
PISTOL2
 62
     2
 10
-0.05
 20
-0.9099999999999999
 30
-0.5
 11
-0.05
 21
-0.8599999999999999
 31
-0.48
 12
0.05
 22
-0.8599999999999999
 32
-0.48
 13
0.05
 23
-0.9099999999999999
 33
-0.5
  0
3DFACE
  5
177
  8
PISTOL2
 62
     2
 10
0.05
 20
-0.9
 30
-0.4400000000000001
 11
0.05
 21
-0.89
 31
-0.4
 12
-0.05
 22
-0.89
 32
-0.4
 13
-0.05
 23
-0.9
 33
-0.4400000000000001
  0
3DFACE
  5
178
  8
PISTOL2
 62
     2
 10
0.05
 20
-0.8599999999999999
 30
-0.48
 11
0.05
 21
-0.8
 31
-0.48
 12
0.05
 22
-0.89
 32
-0.4
 13
0.05
 23
-0.9
 33
-0.4400000000000001
  0
3DFACE
  5
179
  8
PISTOL2
 62
     2
 10
-0.05
 20
-0.89
 30
-0.4
 11
-0.05
 21
-0.8
 31
-0.48
 12
-0.05
 22
-0.8599999999999999
 32
-0.48
 13
-0.05
 23
-0.9
 33
-0.4400000000000001
  0
3DFACE
  5
17A
  8
PISTOL2
 62
     2
 10
-0.05
 20
-0.8599999999999999
 30
-0.48
 11
0.0
 21
-0.7800000000000001
 31
-0.51
 12
0.0
 22
-0.7800000000000001
 32
-0.51
 13
0.05
 23
-0.8599999999999999
 33
-0.48
  0
3DFACE
  5
17E
  8
PISTOL2
 62
     2
 10
0.05
 20
-0.89
 30
-0.36
 11
0.05
 21
-0.8
 31
-0.48
 12
-0.05
 22
-0.8
 32
-0.48
 13
-0.05
 23
-0.89
 33
-0.36
  0
3DFACE
  5
17F
  8
PISTOL2
 62
     2
 10
-0.05
 20
-0.89
 30
-0.36
 11
-0.05
 21
-0.8
 31
-0.48
 12
-0.05
 22
-0.8
 32
-0.48
 13
-0.05
 23
-0.89
 33
-0.4
  0
3DFACE
  5
180
  8
PISTOL2
 62
     2
 10
0.05
 20
-0.8
 30
-0.48
 11
0.05
 21
-0.8
 31
-0.48
 12
0.05
 22
-0.89
 32
-0.36
 13
0.05
 23
-0.89
 33
-0.4
  0
3DFACE
  5
181
  8
PISTOL2
 62
     2
 10
-0.05
 20
-0.8
 30
-0.48
 11
-0.05
 21
-0.8
 31
-0.48
 12
0.05
 22
-0.8
 32
-0.48
 13
0.05
 23
-0.8
 33
-0.48
  0
3DFACE
  5
182
  8
PISTOL2
 62
     2
 10
0.05
 20
-0.89
 30
-0.4
 11
0.05
 21
-0.89
 31
-0.36
 12
-0.05
 22
-0.89
 32
-0.36
 13
-0.05
 23
-0.89
 33
-0.4
  0
3DFACE
  5
185
  8
PISTOL2
 62
     2
 10
0.05
 20
-1.099999999999999
 30
-0.24
 11
0.05
 21
-1.0600000000000001
 31
-0.28
 12
0.05
 22
-0.95
 32
-0.28
 13
0.05
 23
-0.94
 33
-0.24
  0
3DFACE
  5
186
  8
PISTOL2
 62
     2
 10
-0.05
 20
-1.099999999999999
 30
-0.24
 11
-0.05
 21
-1.0600000000000001
 31
-0.28
 12
0.05
 22
-1.0600000000000001
 32
-0.28
 13
0.05
 23
-1.099999999999999
 33
-0.24
  0
3DFACE
  5
187
  8
PISTOL2
 62
     2
 10
0.05
 20
-0.94
 30
-0.24
 11
0.05
 21
-0.95
 31
-0.28
 12
-0.05
 22
-0.95
 32
-0.28
 13
-0.05
 23
-0.94
 33
-0.24
  0
3DFACE
  5
188
  8
PISTOL2
 62
     2
 10
-0.05
 20
-0.95
 30
-0.28
 11
-0.05
 21
-1.0600000000000001
 31
-0.28
 12
-0.05
 22
-1.099999999999999
 32
-0.24
 13
-0.05
 23
-0.94
 33
-0.24
  0
3DFACE
  5
18C
  8
PISTOL2
 62
     2
 10
0.05
 20
-0.89
 30
-0.36
 11
0.05
 21
-0.95
 31
-0.28
 12
-0.05
 22
-0.95
 32
-0.28
 13
-0.05
 23
-0.89
 33
-0.36
  0
3DFACE
  5
18D
  8
PISTOL2
 62
     2
 10
-0.05
 20
-0.89
 30
-0.36
 11
-0.05
 21
-0.95
 31
-0.28
 12
-0.05
 22
-0.94
 32
-0.24
 13
-0.05
 23
-0.8
 33
-0.48
  0
3DFACE
  5
18E
  8
PISTOL2
 62
     2
 10
-0.05
 20
-0.94
 30
-0.24
 11
-0.05
 21
-0.95
 31
-0.28
 12
0.05
 22
-0.95
 32
-0.28
 13
0.05
 23
-0.94
 33
-0.24
  0
3DFACE
  5
18F
  8
PISTOL2
 62
     2
 10
0.05
 20
-0.94
 30
-0.24
 11
0.05
 21
-0.95
 31
-0.28
 12
0.05
 22
-0.89
 32
-0.36
 13
0.05
 23
-0.8
 33
-0.48
  0
3DFACE
  5
190
  8
PISTOL2
 62
     2
 10
0.05
 20
-0.8
 30
-0.48
 11
0.05
 21
-0.89
 31
-0.36
 12
-0.05
 22
-0.89
 32
-0.36
 13
-0.05
 23
-0.8
 33
-0.48
  0
3DFACE
  5
193
  8
PISTOL2
 62
     2
 10
0.05
 20
-1.0600000000000001
 30
-0.28
 11
0.05
 21
-1.0
 31
-0.35
 12
0.05
 22
-0.9300000000000001
 32
-0.35
 13
0.05
 23
-0.95
 33
-0.28
  0
3DFACE
  5
194
  8
PISTOL2
 62
     2
 10
-0.05
 20
-1.0600000000000001
 30
-0.28
 11
-0.05
 21
-1.0
 31
-0.35
 12
0.05
 22
-1.0
 32
-0.35
 13
0.05
 23
-1.0600000000000001
 33
-0.28
  0
3DFACE
  5
195
  8
PISTOL2
 62
     2
 10
0.05
 20
-0.95
 30
-0.28
 11
0.05
 21
-0.9300000000000001
 31
-0.35
 12
-0.05
 22
-0.9300000000000001
 32
-0.35
 13
-0.05
 23
-0.95
 33
-0.28
  0
3DFACE
  5
196
  8
PISTOL2
 62
     2
 10
-0.05
 20
-0.9300000000000001
 30
-0.35
 11
-0.05
 21
-1.0
 31
-0.35
 12
-0.05
 22
-1.0600000000000001
 32
-0.28
 13
-0.05
 23
-0.95
 33
-0.28
  0
3DFACE
  5
19A
  8
PISTOL2
 62
     2
 10
-0.05
 20
-0.9300000000000001
 30
-0.4200000000000001
 11
-0.05
 21
-1.0
 31
-0.4100000000000001
 12
-0.05
 22
-1.0
 32
-0.35
 13
-0.05
 23
-0.9300000000000001
 33
-0.35
  0
3DFACE
  5
19B
  8
PISTOL2
 62
     2
 10
-0.05
 20
-1.0
 30
-0.35
 11
-0.05
 21
-1.0
 31
-0.4100000000000001
 12
0.05
 22
-1.0
 32
-0.4100000000000001
 13
0.05
 23
-1.0
 33
-0.35
  0
3DFACE
  5
19C
  8
PISTOL2
 62
     2
 10
0.05
 20
-1.0
 30
-0.35
 11
0.05
 21
-1.0
 31
-0.4100000000000001
 12
0.05
 22
-0.9300000000000001
 32
-0.4200000000000001
 13
0.05
 23
-0.9300000000000001
 33
-0.35
  0
3DFACE
  5
19D
  8
PISTOL2
 62
     2
 10
0.05
 20
-0.9300000000000001
 30
-0.35
 11
0.05
 21
-0.9300000000000001
 31
-0.4200000000000001
 12
-0.05
 22
-0.9300000000000001
 32
-0.4200000000000001
 13
-0.05
 23
-0.9300000000000001
 33
-0.35
  0
3DFACE
  5
1A1
  8
PISTOL2
 62
     2
 10
0.05
 20
-0.9300000000000001
 30
-0.4200000000000001
 11
0.05
 21
-0.9699999999999999
 31
-0.4800000000000001
 12
-0.05
 22
-0.9699999999999999
 32
-0.4800000000000001
 13
-0.05
 23
-0.9300000000000001
 33
-0.4200000000000001
  0
3DFACE
  5
1A2
  8
PISTOL2
 62
     2
 10
0.05
 20
-1.0
 30
-0.4100000000000001
 11
0.05
 21
-1.03
 31
-0.4700000000000001
 12
0.05
 22
-0.9699999999999999
 32
-0.4800000000000001
 13
0.05
 23
-0.9300000000000001
 33
-0.4200000000000001
  0
3DFACE
  5
1A3
  8
PISTOL2
 62
     2
 10
-0.05
 20
-0.9699999999999999
 30
-0.4800000000000001
 11
-0.05
 21
-1.03
 31
-0.4700000000000001
 12
-0.05
 22
-1.0
 32
-0.4100000000000001
 13
-0.05
 23
-0.9300000000000001
 33
-0.4200000000000001
  0
3DFACE
  5
1A4
  8
PISTOL2
 62
     2
 10
-0.05
 20
-1.0
 30
-0.4100000000000001
 11
-0.05
 21
-1.03
 31
-0.4700000000000001
 12
0.05
 22
-1.03
 32
-0.4700000000000001
 13
0.05
 23
-1.0
 33
-0.4100000000000001
  0
3DFACE
  5
1A8
  8
PISTOL2
 62
     2
 10
-0.05
 20
-1.03
 30
-0.4700000000000001
 11
-0.05
 21
-1.0700000000000001
 31
-0.4900000000000001
 12
0.05
 22
-1.0700000000000001
 32
-0.4900000000000001
 13
0.05
 23
-1.03
 33
-0.4700000000000001
  0
3DFACE
  5
1A9
  8
PISTOL2
 62
     2
 10
0.05
 20
-1.03
 30
-0.4700000000000001
 11
0.05
 21
-1.0700000000000001
 31
-0.4900000000000001
 12
0.05
 22
-1.02
 32
-0.51
 13
0.05
 23
-0.9699999999999999
 33
-0.48
  0
3DFACE
  5
1AA
  8
PISTOL2
 62
     2
 10
0.05
 20
-0.9699999999999999
 30
-0.48
 11
0.05
 21
-1.02
 31
-0.51
 12
-0.05
 22
-1.02
 32
-0.51
 13
-0.05
 23
-0.9699999999999999
 33
-0.48
  0
3DFACE
  5
1AB
  8
PISTOL2
 62
     2
 10
-0.05
 20
-1.02
 30
-0.51
 11
-0.05
 21
-1.0700000000000001
 31
-0.4900000000000001
 12
-0.05
 22
-1.03
 32
-0.4700000000000001
 13
-0.05
 23
-0.9699999999999999
 33
-0.48
  0
3DFACE
  5
1AF
  8
PISTOL2
 62
     2
 10
-0.05
 20
-1.0700000000000001
 30
-0.5200000000000001
 11
-0.05
 21
-1.1200000000000001
 31
-0.5
 12
-0.05
 22
-1.0700000000000001
 32
-0.4900000000000001
 13
-0.05
 23
-1.02
 33
-0.51
  0
3DFACE
  5
1B0
  8
PISTOL2
 62
     2
 10
0.05
 20
-1.0700000000000001
 30
-0.4900000000000001
 11
0.05
 21
-1.1200000000000001
 31
-0.5
 12
0.05
 22
-1.0700000000000001
 32
-0.5200000000000001
 13
0.05
 23
-1.02
 33
-0.51
  0
3DFACE
  5
1B1
  8
PISTOL2
 62
     2
 10
-0.05
 20
-1.0700000000000001
 30
-0.4900000000000001
 11
-0.05
 21
-1.1200000000000001
 31
-0.5
 12
0.05
 22
-1.1200000000000001
 32
-0.5
 13
0.05
 23
-1.0700000000000001
 33
-0.4900000000000001
  0
3DFACE
  5
1B2
  8
PISTOL2
 62
     2
 10
0.05
 20
-1.02
 30
-0.51
 11
0.05
 21
-1.0700000000000001
 31
-0.5200000000000001
 12
-0.05
 22
-1.0700000000000001
 32
-0.5200000000000001
 13
-0.05
 23
-1.02
 33
-0.51
  0
3DFACE
  5
1B3
  8
PISTOL2
 62
     2
 10
0.05
 20
-1.0700000000000001
 30
-0.5200000000000001
 11
0.05
 21
-1.1200000000000001
 31
-0.5
 12
-0.05
 22
-1.1200000000000001
 32
-0.5
 13
-0.05
 23
-1.0700000000000001
 33
-0.5200000000000001
  0
3DFACE
  5
1B7
  8
0
 10
0.15
 20
-0.34
 30
0.17
 11
0.15
 21
-0.34
 31
0.01
 12
0.15
 22
-0.11
 32
0.01
 13
0.15
 23
-0.11
 33
0.17
  0
3DFACE
  5
1B8
  8
0
 10
-0.15
 20
-0.34
 30
0.17
 11
-0.15
 21
-0.34
 31
0.01
 12
0.15
 22
-0.34
 32
0.01
 13
0.15
 23
-0.34
 33
0.17
  0
3DFACE
  5
1B9
  8
0
 10
0.15
 20
-0.11
 30
0.17
 11
0.1
 21
-0.11
 31
0.13
 12
-0.1
 22
-0.11
 32
0.13
 13
-0.15
 23
-0.11
 33
0.17
  0
3DFACE
  5
1BA
  8
0
 10
-0.15
 20
-0.11
 30
0.01
 11
-0.15
 21
-0.34
 31
0.01
 12
-0.15
 22
-0.34
 32
0.17
 13
-0.15
 23
-0.11
 33
0.17
  0
3DFACE
  5
1BC
  8
0
 10
-0.15
 20
-0.11
 30
0.17
 11
-0.15
 21
-0.34
 31
0.17
 12
0.15
 22
-0.34
 32
0.17
 13
0.15
 23
-0.11
 33
0.17
  0
3DFACE
  5
1BF
  8
PISTOL2
 62
     2
 10
0.1
 20
-0.4
 30
0.11
 11
0.1
 21
-0.3399999999999999
 31
0.01
 12
0.1
 22
-0.3399999999999999
 32
0.01
 13
0.1
 23
-0.34
 33
0.17
  0
3DFACE
  5
1C1
  8
PISTOL2
 62
     2
 10
-0.1
 20
-0.3399999999999999
 30
0.01
 11
-0.1
 21
-0.34
 31
0.01
 12
-0.1
 22
-0.4
 32
0.11
 13
-0.1
 23
-0.34
 33
0.17
  0
3DFACE
  5
1C4
  8
PISTOL2
 62
     2
 10
-0.1
 20
-0.34
 30
0.17
 11
-0.1
 21
-0.4
 31
0.11
 12
0.1
 22
-0.4
 32
0.11
 13
0.1
 23
-0.34
 33
0.17
  0
3DFACE
  5
1C6
  8
PISTOL2
 62
     2
 10
0.1
 20
-1.1899999999999991
 30
0.11
 11
0.1
 21
-1.2399999999999991
 31
0.01
 12
0.1
 22
-0.3399999999999999
 32
0.01
 13
0.1
 23
-0.3999999999999999
 33
0.11
  0
3DFACE
  5
1C7
  8
PISTOL2
 62
     2
 10
-0.1
 20
-1.1899999999999991
 30
0.11
 11
-0.1
 21
-1.2399999999999991
 31
0.01
 12
0.1
 22
-1.2399999999999991
 32
0.01
 13
0.1
 23
-1.1899999999999991
 33
0.11
  0
3DFACE
  5
1C8
  8
PISTOL2
 62
     2
 10
-0.1
 20
-0.3399999999999999
 30
0.01
 11
-0.1
 21
-1.2399999999999991
 31
0.01
 12
-0.1
 22
-1.1899999999999991
 32
0.11
 13
-0.1
 23
-0.3999999999999999
 33
0.11
  0
3DFACE
  5
1CB
  8
PISTOL2
 62
     2
 10
-0.1
 20
-0.3999999999999999
 30
0.11
 11
-0.1
 21
-1.1899999999999991
 31
0.11
 12
0.1
 22
-1.1899999999999991
 32
0.11
 13
0.1
 23
-0.3999999999999999
 33
0.11
  0
3DFACE
  5
1DE
  8
0
 10
0.05
 20
-1.2099999999999991
 30
0.06
 11
0.025
 21
-1.1899999999999991
 31
0.1033012701892219
 12
0.025
 22
-1.3400000000000001
 32
0.1033012701892219
 13
0.05
 23
-1.3400000000000001
 33
0.06
  0
3DFACE
  5
1DF
  8
0
 10
0.025
 20
-1.1899999999999991
 30
0.1033012701892219
 11
-0.025
 21
-1.1899999999999991
 31
0.1033012701892219
 12
-0.025
 22
-1.3400000000000001
 32
0.1033012701892219
 13
0.025
 23
-1.3400000000000001
 33
0.1033012701892219
  0
3DFACE
  5
1E0
  8
0
 10
-0.025
 20
-1.1899999999999991
 30
0.1033012701892219
 11
-0.05
 21
-1.2099999999999991
 31
0.06
 12
-0.05
 22
-1.3400000000000001
 32
0.06
 13
-0.025
 23
-1.3400000000000001
 33
0.1033012701892219
  0
3DFACE
  5
1E4
  8
0
 10
-0.05
 20
-1.2099999999999991
 30
0.06
 11
-0.05
 21
-1.2399999999999991
 31
0.01
 12
-0.05
 22
-1.3400000000000001
 32
0.01
 13
-0.05
 23
-1.3400000000000001
 33
0.06
  0
3DFACE
  5
1E5
  8
0
 10
0.05
 20
-1.2399999999999991
 30
0.01
 11
0.05
 21
-1.2099999999999991
 31
0.06
 12
0.05
 22
-1.3400000000000001
 32
0.06
 13
0.05
 23
-1.3400000000000001
 33
0.01
  0
3DFACE
  5
1E7
  8
0
 10
0.15
 20
-0.17
 30
-0.1399999999999998
 11
0.15
 21
-0.08
 31
-0.2
 12
0.15
 22
-0.05
 32
-0.2
 13
0.15
 23
0.02
 33
-0.1399999999999998
  0
3DFACE
  5
1E8
  8
0
 10
-0.15
 20
-0.05
 30
-0.2
 11
-0.15
 21
-0.08
 31
-0.2
 12
-0.15
 22
-0.17
 32
-0.1399999999999998
 13
-0.15
 23
0.02
 33
-0.1399999999999998
  0
3DFACE
  5
1EF
  8
PISTOL2
 62
     2
 10
0.1
 20
-0.38
 30
-0.14
 11
0.1
 21
-0.3899999999999998
 31
-0.24
 12
0.1
 22
-0.08
 32
-0.2
 13
0.1
 23
-0.17
 33
-0.14
  0
3DFACE
  5
1F2
  8
PISTOL2
 62
     2
 10
-0.1
 20
-0.08
 30
-0.2
 11
-0.1
 21
-0.3899999999999998
 31
-0.24
 12
-0.1
 22
-0.38
 32
-0.14
 13
-0.1
 23
-0.17
 33
-0.14
  0
3DFACE
  5
1F3
  8
PISTOL2
 62
     2
 10
0.1
 20
-0.08
 30
-0.2
 11
0.1
 21
-0.3899999999999998
 31
-0.24
 12
0.0
 22
-0.16
 32
-0.26
 13
0.0
 23
-0.07
 33
-0.26
  0
3DFACE
  5
1F8
  8
0
 10
0.025
 20
-1.3400000000000001
 30
0.1033012701892219
 11
-0.025
 21
-1.3400000000000001
 31
0.1033012701892219
 12
0.0
 22
-1.3400000000000001
 32
0.1
 13
0.0
 23
-1.3400000000000001
 33
0.1
  0
3DFACE
  5
1F9
  8
0
 10
0.0
 20
-1.3400000000000001
 30
0.1
 11
-0.025
 21
-1.3400000000000001
 31
0.1033012701892219
 12
-0.0403589838486225
 22
-1.3400000000000001
 32
0.0766987298107781
 13
-0.0403589838486225
 23
-1.3400000000000001
 33
0.0766987298107781
  0
3DFACE
  5
1FA
  8
0
 10
0.025
 20
-1.3400000000000001
 30
0.1033012701892219
 11
0.0
 21
-1.3400000000000001
 31
0.1
 12
0.0403589838486225
 22
-1.3400000000000001
 32
0.076698729810778
 13
0.0403589838486225
 23
-1.3400000000000001
 33
0.076698729810778
  0
3DFACE
  5
1FB
  8
PISTOL2
 62
     2
 10
0.1
 20
-1.339999999999999
 30
-0.24
 11
0.05
 21
-1.339999999999999
 31
-0.24
 12
0.05
 22
-0.94
 32
-0.24
 13
0.1
 23
-0.94
 33
-0.24
  0
3DFACE
  5
1FC
  8
PISTOL2
 62
     2
 10
0.05
 20
-1.099999999999999
 30
-0.24
 11
0.05
 21
-1.1399999999999999
 31
-0.24
 12
-0.05
 22
-1.1399999999999999
 32
-0.24
 13
-0.05
 23
-1.099999999999999
 33
-0.24
  0
3DFACE
  5
1FD
  8
PISTOL2
 62
     2
 10
-0.05
 20
-0.94
 30
-0.24
 11
-0.05
 21
-1.339999999999999
 31
-0.24
 12
-0.1
 22
-1.339999999999999
 32
-0.24
 13
-0.1
 23
-0.94
 33
-0.24
  0
3DFACE
  5
218
  8
0
 10
0.0
 20
0.0500000000000001
 30
-0.14
 11
0.0
 21
0.0
 31
-0.22
 12
-0.15
 22
0.0500000000000001
 32
-0.14
 13
-0.15
 23
0.0500000000000001
 33
-0.14
  0
3DFACE
  5
219
  8
0
 10
0.0
 20
0.05
 30
-0.14
 11
0.15
 21
0.0500000000000001
 31
-0.14
 12
0.0
 22
0.0
 32
-0.22
 13
0.0
 23
0.0
 33
-0.22
  0
3DFACE
  5
21A
  8
0
 10
0.15
 20
0.0500000000000001
 30
-0.14
 11
0.15
 21
0.02
 31
-0.1399999999999998
 12
0.0
 22
0.0
 32
-0.22
 13
0.0
 23
0.0
 33
-0.22
  0
3DFACE
  5
21B
  8
0
 10
-0.15
 20
0.0500000000000001
 30
-0.14
 11
0.0
 21
0.0
 31
-0.22
 12
-0.15
 22
0.02
 32
-0.1399999999999998
 13
-0.15
 23
0.02
 33
-0.1399999999999998
  0
3DFACE
  5
21C
  8
0
 10
0.15
 20
0.0199999999999998
 30
-0.14
 11
0.15
 21
-0.0499999999999998
 31
-0.1999999999999998
 12
0.0
 22
0.0
 32
-0.22
 13
0.0
 23
0.0
 33
-0.22
  0
3DFACE
  5
21D
  8
0
 10
-0.15
 20
0.02
 30
-0.1399999999999998
 11
0.0
 21
0.0
 31
-0.22
 12
-0.15
 22
-0.0499999999999998
 32
-0.1999999999999998
 13
-0.15
 23
-0.0499999999999998
 33
-0.1999999999999998
  0
3DFACE
  5
21E
  8
0
 10
0.0
 20
0.0
 30
-0.22
 11
0.15
 21
-0.0499999999999998
 31
-0.1999999999999998
 12
0.0
 22
-0.07
 32
-0.26
 13
0.0
 23
-0.07
 33
-0.26
  0
3DFACE
  5
21F
  8
0
 10
0.0
 20
0.0
 30
-0.22
 11
0.0
 21
-0.07
 31
-0.26
 12
-0.15
 22
-0.0499999999999998
 32
-0.1999999999999998
 13
-0.15
 23
-0.0499999999999998
 33
-0.1999999999999998
  0
3DFACE
  5
220
  8
0
 10
0.15
 20
-0.05
 30
-0.2
 11
0.15
 21
-0.08
 31
-0.2
 12
0.0
 22
-0.07
 32
-0.26
 13
0.0
 23
-0.07
 33
-0.26
  0
3DFACE
  5
221
  8
0
 10
-0.15
 20
-0.05
 30
-0.2
 11
0.0
 21
-0.07
 31
-0.26
 12
-0.15
 22
-0.08
 32
-0.2
 13
-0.15
 23
-0.08
 33
-0.2
  0
3DFACE
  5
222
  8
0
 10
0.15
 20
-0.08
 30
-0.2
 11
0.1
 21
-0.08
 31
-0.2
 12
0.0
 22
-0.07
 32
-0.26
 13
0.0
 23
-0.07
 33
-0.26
  0
3DFACE
  5
224
  8
0
 10
-0.1
 20
-0.3800000000000002
 30
-0.1399999999999996
 11
-0.1
 21
-0.3900000000000002
 31
-0.2399999999999998
 12
-0.15
 22
-0.39
 32
-0.2399999999999998
 13
-0.15
 23
-0.3800000000000002
 33
-0.1399999999999998
  0
3DFACE
  5
225
  8
0
 10
0.15
 20
-0.17
 30
-0.1399999999999998
 11
0.15
 21
-0.3800000000000001
 31
-0.1399999999999998
 12
0.1
 22
-0.3799999999999999
 32
-0.1399999999999998
 13
0.1
 23
-0.17
 33
-0.14
  0
3DFACE
  5
226
  8
0
 10
0.15
 20
-0.08
 30
-0.2
 11
0.15
 21
-0.1700000000000002
 31
-0.1399999999999998
 12
0.1
 22
-0.17
 32
-0.1399999999999998
 13
0.1
 23
-0.08
 33
-0.2
  0
3DFACE
  5
227
  8
0
 10
-0.1
 20
-0.08
 30
-0.2
 11
-0.1
 21
-0.1700000000000002
 31
-0.1399999999999998
 12
-0.15
 22
-0.17
 32
-0.1399999999999998
 13
-0.15
 23
-0.08
 33
-0.2
  0
3DFACE
  5
228
  8
0
 10
-0.1
 20
-0.17
 30
-0.1399999999999998
 11
-0.1
 21
-0.3800000000000001
 31
-0.1399999999999998
 12
-0.15
 22
-0.3799999999999999
 32
-0.1399999999999998
 13
-0.15
 23
-0.17
 33
-0.14
  0
3DFACE
  5
229
  8
PISTOL2
 62
     2
 10
0.0
 20
-0.07
 30
-0.26
 11
0.0
 21
-0.16
 31
-0.26
 12
-0.1
 22
-0.3899999999999998
 32
-0.24
 13
-0.1
 23
-0.08
 33
-0.2
  0
3DFACE
  5
22A
  8
0
 10
0.15
 20
-0.3899999999999999
 30
-0.2399999999999998
 11
0.15
 21
-0.2700000000000001
 31
-0.4799999999999998
 12
0.15
 22
-0.2700000000000001
 32
-0.4799999999999998
 13
0.1
 23
-0.3899999999999999
 33
-0.24
  0
3DFACE
  5
22B
  8
0
 10
-0.1
 20
-0.3899999999999999
 30
-0.2399999999999998
 11
-0.15
 21
-0.2699999999999999
 31
-0.48
 12
-0.15
 22
-0.2699999999999999
 32
-0.48
 13
-0.15
 23
-0.3899999999999999
 33
-0.24
  0
3DFACE
  5
22C
  8
0
 10
0.1
 20
-0.3899999999999998
 30
-0.2400000000000002
 11
0.15
 21
-0.2700000000000009
 31
-0.4799999999999985
 12
0.15
 22
-0.2700000000000009
 32
-0.4799999999999985
 13
0.0
 23
-0.2400000000000001
 33
-0.3699999999999997
  0
3DFACE
  5
22D
  8
0
 10
0.0
 20
-0.2399999999999998
 30
-0.3700000000000003
 11
-0.15
 21
-0.27
 31
-0.4799999999999998
 12
-0.15
 22
-0.27
 32
-0.4799999999999998
 13
-0.1
 23
-0.3899999999999998
 33
-0.24
  0
3DFACE
  5
22E
  8
0
 10
0.1000000000000001
 20
-0.39
 30
-0.2399999999999999
 11
0.0
 21
-0.2399999999999998
 31
-0.3700000000000003
 12
0.0
 22
-0.2399999999999998
 32
-0.3700000000000003
 13
0.0
 23
-0.2
 33
-0.28
  0
3DFACE
  5
22F
  8
0
 10
0.1000000000000001
 20
-0.39
 30
-0.2399999999999999
 11
0.0
 21
-0.2
 31
-0.28
 12
0.0
 22
-0.2
 32
-0.28
 13
0.0
 23
-0.16
 33
-0.26
  0
3DFACE
  5
230
  8
0
 10
0.0
 20
-0.1999999999999998
 30
-0.2799999999999996
 11
0.0
 21
-0.2399999999999998
 31
-0.3700000000000003
 12
0.0
 22
-0.2399999999999998
 32
-0.3700000000000003
 13
-0.1
 23
-0.3899999999999998
 33
-0.24
  0
3DFACE
  5
231
  8
0
 10
0.0
 20
-0.16
 30
-0.26
 11
0.0
 21
-0.1999999999999998
 31
-0.2799999999999996
 12
0.0
 22
-0.1999999999999998
 32
-0.2799999999999996
 13
-0.1
 23
-0.3900000000000002
 33
-0.2399999999999998
  0
3DFACE
  5
232
  8
0
 10
0.0
 20
-0.2400000000000001
 30
-0.3699999999999997
 11
0.15
 21
-0.27
 31
-0.48
 12
0.15
 22
-0.27
 32
-0.48
 13
0.0
 23
-0.2400000000000003
 33
-0.4499999999999995
  0
3DFACE
  5
233
  8
0
 10
0.0
 20
-0.2400000000000003
 30
-0.449999999999999
 11
-0.15
 21
-0.2699999999999999
 31
-0.48
 12
-0.15
 22
-0.2699999999999999
 32
-0.48
 13
0.0
 23
-0.2400000000000001
 33
-0.3700000000000003
  0
3DFACE
  5
234
  8
0
 10
0.0
 20
-0.24
 30
-0.45
 11
0.1500000000000001
 21
-0.27
 31
-0.4800000000000001
 12
0.1500000000000001
 22
-0.27
 32
-0.4800000000000001
 13
0.0
 23
-0.2200000000000003
 33
-0.5299999999999995
  0
3DFACE
  5
235
  8
0
 10
0.0
 20
-0.22
 30
-0.5300000000000001
 11
-0.15
 21
-0.27
 31
-0.4799999999999998
 12
-0.15
 22
-0.27
 32
-0.4799999999999998
 13
0.0
 23
-0.2400000000000003
 33
-0.4499999999999995
  0
3DFACE
  5
236
  8
0
 10
0.0
 20
-0.2200000000000003
 30
-0.5299999999999995
 11
0.0
 21
-0.0899999999999989
 31
-0.7500000000000018
 12
-0.15
 22
-0.0900000000000011
 32
-0.7699999999999984
 13
-0.15
 23
-0.27
 33
-0.4799999999999998
  0
3DFACE
  5
237
  8
0
 10
0.0
 20
0.0
 30
-0.8100000000000001
 11
0.0
 21
0.04
 31
-0.88
 12
-0.15
 22
0.05
 32
-0.99
 13
-0.15
 23
-0.0900000000000011
 33
-0.7699999999999984
  0
3DFACE
  5
238
  8
0
 10
0.15
 20
-0.0900000000000011
 30
-0.7699999999999984
 11
0.15
 21
-0.0900000000000011
 31
-0.7699999999999984
 12
0.0
 22
0.0
 32
-0.8100000000000001
 13
0.0
 23
-0.0899999999999989
 33
-0.7500000000000018
  0
3DFACE
  5
239
  8
0
 10
0.0
 20
-0.09
 30
-0.75
 11
0.0
 21
0.0
 31
-0.8100000000000001
 12
-0.15
 22
-0.0899999999999961
 32
-0.7700000000000016
 13
-0.15
 23
-0.0900000000000011
 33
-0.7699999999999984
  0
3DFACE
  5
23A
  8
0
 10
0.15
 20
0.05
 30
-0.99
 11
0.15
 21
0.0500000000000001
 31
-0.99
 12
0.0
 22
0.08
 32
-0.9799999999999998
 13
0.0
 23
0.04
 33
-0.88
  0
3DFACE
  5
23B
  8
0
 10
0.0
 20
0.0800000000000001
 30
-0.98
 11
0.0
 21
0.0800000000000001
 31
-0.98
 12
-0.15
 22
0.0500000000000001
 32
-0.99
 13
0.0
 23
0.04
 33
-0.88
  0
3DFACE
  5
23C
  8
0
 10
0.0
 20
0.0799999999999999
 30
-0.98
 11
0.0
 21
0.08
 31
-1.1000000000000001
 12
-0.15
 22
0.0500000000000001
 32
-1.1200000000000001
 13
-0.15
 23
0.05
 33
-0.99
  0
3DFACE
  5
23D
  8
0
 10
0.0
 20
0.08
 30
-1.1000000000000001
 11
0.15
 21
0.05
 31
-1.1200000000000001
 12
-0.15
 22
0.05
 32
-1.1200000000000001
 13
0.0
 23
0.08
 33
-1.1000000000000001
  0
3DFACE
  5
23E
  8
PISTOL2
 62
     2
 10
0.05
 20
-0.8599999999999999
 30
-0.48
 11
0.0
 21
-0.7800000000000001
 31
-0.51
 12
0.0
 22
-0.7800000000000001
 32
-0.51
 13
0.05
 23
-0.8
 33
-0.48
  0
3DFACE
  5
23F
  8
PISTOL2
 62
     2
 10
-0.05
 20
-0.8
 30
-0.48
 11
0.0
 21
-0.7800000000000001
 31
-0.51
 12
0.0
 22
-0.7800000000000001
 32
-0.51
 13
-0.05
 23
-0.8599999999999999
 33
-0.48
  0
3DFACE
  5
240
  8
0
 10
-0.15
 20
-0.9399999999999996
 30
-0.24
 11
-0.15
 21
-0.7999999999999999
 31
-0.4799999999999998
 12
-0.05
 22
-0.7999999999999997
 32
-0.48
 13
-0.05
 23
-0.9399999999999996
 33
-0.2399999999999998
  0
3DFACE
  5
241
  8
0
 10
0.1
 20
-1.0
 30
-0.1399999999999998
 11
0.1
 21
-0.9400000000000002
 31
-0.24
 12
0.15
 22
-0.9400000000000002
 32
-0.2399999999999999
 13
0.15
 23
-1.0
 33
-0.1399999999999998
  0
3DFACE
  5
242
  8
0
 10
0.1
 20
-1.339999999999999
 30
-0.14
 11
0.1
 21
-1.0
 31
-0.14
 12
0.15
 22
-1.0
 32
-0.14
 13
0.15
 23
-1.339999999999999
 33
-0.14
  0
3DFACE
  5
243
  8
0
 10
-0.15
 20
-1.339999999999999
 30
-0.14
 11
-0.15
 21
-1.0
 31
-0.14
 12
-0.1
 22
-1.0
 32
-0.14
 13
-0.1
 23
-1.339999999999999
 33
-0.14
  0
3DFACE
  5
244
  8
PISTOL2
 62
     2
 10
0.05
 20
-0.8
 30
-0.48
 11
0.0
 21
-0.7800000000000001
 31
-0.51
 12
0.0
 22
-0.7800000000000001
 32
-0.51
 13
0.15
 23
-0.8
 33
-0.48
  0
3DFACE
  5
245
  8
PISTOL2
 62
     2
 10
-0.15
 20
-0.7999999999999999
 30
-0.4799999999999998
 11
0.0
 21
-0.7800000000000001
 31
-0.51
 12
0.0
 22
-0.7800000000000001
 32
-0.51
 13
-0.05
 23
-0.8
 33
-0.4800000000000001
  0
3DFACE
  5
246
  8
0
 10
-0.15
 20
-0.7999999999999997
 30
-0.48
 11
-0.15
 21
-0.71
 31
-0.5200000000000001
 12
0.0
 22
-0.71
 32
-0.59
 13
0.0
 23
-0.7800000000000005
 33
-0.51
  0
3DFACE
  5
247
  8
0
 10
-0.15
 20
-0.71
 30
-0.5200000000000001
 11
-0.15
 21
-0.37
 31
-1.0900000000000001
 12
0.0
 22
-0.4
 32
-1.0700000000000001
 13
0.0
 23
-0.71
 33
-0.59
  0
3DFACE
  5
248
  8
0
 10
-0.15
 20
-0.37
 30
-1.0900000000000001
 11
-0.15
 21
-0.36
 31
-1.1499999999999999
 12
0.0
 22
-0.38
 32
-1.1399999999999999
 13
0.0
 23
-0.4
 33
-1.0700000000000001
  0
3DFACE
  5
249
  8
0
 10
-0.15
 20
-0.36
 30
-1.1499999999999999
 11
-0.15
 21
-0.36
 31
-1.1899999999999991
 12
0.0
 22
-0.38
 32
-1.179999999999999
 13
0.0
 23
-0.38
 33
-1.1399999999999999
  0
3DFACE
  5
24A
  8
0
 10
0.0
 20
-0.38
 30
-1.179999999999999
 11
-0.15
 21
-0.3600000000000001
 31
-1.1899999999999991
 12
0.15
 22
-0.3600000000000001
 32
-1.1899999999999991
 13
0.0
 23
-0.38
 33
-1.179999999999999
  0
3DFACE
  5
24C
  8
0
 10
-0.1
 20
0.05
 30
0.01
 11
-0.1
 21
-0.11
 31
0.01
 12
-0.1
 22
-0.11
 32
0.13
 13
-0.1
 23
0.05
 33
0.13
  0
3DFACE
  5
24D
  8
0
 10
0.1
 20
0.05
 30
0.13
 11
0.1
 21
0.05
 31
0.01
 12
-0.1
 22
0.05
 32
0.01
 13
-0.1
 23
0.05
 33
0.13
  0
3DFACE
  5
24E
  8
0
 10
0.1
 20
-0.11
 30
0.13
 11
0.1
 21
-0.11
 31
0.01
 12
0.1
 22
0.05
 32
0.01
 13
0.1
 23
0.05
 33
0.13
  0
3DFACE
  5
24F
  8
0
 10
-0.1
 20
0.05
 30
0.13
 11
-0.1
 21
-0.11
 31
0.13
 12
0.1
 22
-0.11
 32
0.13
 13
0.1
 23
0.05
 33
0.13
  0
3DFACE
  5
250
  8
0
 10
-0.1
 20
-0.11
 30
0.01
 11
-0.15
 21
-0.11
 31
0.0100000000000002
 12
-0.15
 22
-0.11
 32
0.17
 13
-0.1
 23
-0.11
 33
0.13
  0
3DFACE
  5
251
  8
0
 10
0.15
 20
-0.11
 30
0.17
 11
0.15
 21
-0.11
 31
0.0100000000000002
 12
0.1
 22
-0.11
 32
0.01
 13
0.1
 23
-0.11
 33
0.13
  0
3DFACE
  5
252
  8
0
 10
-0.15
 20
0.0500000000000001
 30
0.0100000000000002
 11
-0.15
 21
-0.11
 31
0.0100000000000002
 12
-0.1
 22
-0.11
 32
0.01
 13
-0.1
 23
0.05
 33
0.01
  0
3DFACE
  5
253
  8
0
 10
0.1
 20
0.05
 30
0.01
 11
0.1
 21
-0.11
 31
0.01
 12
0.15
 22
-0.11
 32
0.0099999999999998
 13
0.15
 23
0.0499999999999999
 33
0.0099999999999998
  0
3DFACE
  5
254
  8
0
 10
-0.15
 20
-0.3400000000000001
 30
0.01
 11
-0.15
 21
-1.339999999999999
 31
0.0100000000000002
 12
-0.1
 22
-1.2399999999999991
 32
0.01
 13
-0.1
 23
-0.3400000000000001
 33
0.01
  0
3DFACE
  5
255
  8
0
 10
-0.1
 20
-1.24
 30
0.01
 11
-0.15
 21
-1.339999999999999
 31
0.0100000000000002
 12
-0.05
 22
-1.3400000000000001
 32
0.01
 13
-0.05
 23
-1.2399999999999991
 33
0.01
  0
3DFACE
  5
256
  8
0
 10
0.05
 20
-1.2399999999999991
 30
0.01
 11
0.0500000000000001
 21
-1.339999999999999
 31
0.0100000000000004
 12
0.15
 22
-1.339999999999999
 32
0.0100000000000002
 13
0.1
 23
-1.2399999999999991
 33
0.0100000000000001
  0
3DFACE
  5
257
  8
0
 10
-0.05
 20
-1.3400000000000001
 30
0.06
 11
-0.05
 21
-1.3400000000000001
 31
0.01
 12
-0.0952627944162883
 22
-1.3400000000000001
 32
0.0100000000000002
 13
-0.0952627944162883
 23
-1.3400000000000001
 33
0.045
  0
3DFACE
  5
258
  8
0
 10
-0.0403589838486225
 20
-1.3400000000000001
 30
0.0766987298107781
 11
-0.05
 21
-1.3400000000000001
 31
0.0599999999999998
 12
-0.0952627944162883
 22
-1.3400000000000001
 32
0.045
 13
-0.0952627944162883
 23
-1.3400000000000001
 33
0.045
  0
3DFACE
  5
259
  8
0
 10
0.0952627944162883
 20
-1.3400000000000001
 30
0.0449999999999999
 11
0.05
 21
-1.3400000000000001
 31
0.06
 12
0.0403589838486224
 22
-1.3400000000000001
 32
0.076698729810778
 13
0.0403589838486224
 23
-1.3400000000000001
 33
0.076698729810778
  0
3DFACE
  5
25A
  8
0
 10
0.0952627944162883
 20
-1.3400000000000001
 30
0.0100000000000003
 11
0.05
 21
-1.3400000000000001
 31
0.0100000000000004
 12
0.0952627944162883
 22
-1.3400000000000001
 32
0.0449999999999999
 13
0.0952627944162883
 23
-1.3400000000000001
 33
0.0449999999999999
  0
3DFACE
  5
25B
  8
0
 10
0.05
 20
-1.3400000000000001
 30
0.0100000000000005
 11
0.05
 21
-1.3400000000000001
 31
0.06
 12
0.0952627944162883
 22
-1.3400000000000001
 32
0.0449999999999999
 13
0.0952627944162883
 23
-1.3400000000000001
 33
0.0449999999999999
  0
3DFACE
  5
25D
  8
0
 10
-0.04
 20
-2.1400000000000001
 30
0.05
 11
-0.04
 21
-2.2699999999999991
 31
0.05
 12
-0.04
 22
-2.2699999999999991
 32
0.1499999999999999
 13
-0.04
 23
-2.1400000000000001
 33
0.1499999999999999
  0
3DFACE
  5
25E
  8
0
 10
0.04
 20
-2.2699999999999991
 30
0.1499999999999999
 11
0.04
 21
-2.2699999999999991
 31
0.05
 12
0.04
 22
-2.1400000000000001
 32
0.05
 13
0.04
 23
-2.1400000000000001
 33
0.1499999999999999
  0
3DFACE
  5
25F
  8
0
 10
-0.04
 20
-2.2699999999999991
 30
0.1499999999999999
 11
-0.04
 21
-2.2699999999999991
 31
0.05
 12
0.04
 22
-2.2699999999999991
 32
0.05
 13
0.04
 23
-2.2699999999999991
 33
0.1499999999999999
  0
3DFACE
  5
260
  8
0
 10
0.04
 20
-2.1400000000000001
 30
0.1499999999999999
 11
0.04
 21
-2.1400000000000001
 31
0.05
 12
-0.04
 22
-2.1400000000000001
 32
0.05
 13
-0.04
 23
-2.1400000000000001
 33
0.1499999999999999
  0
3DFACE
  5
262
  8
0
 10
-0.04
 20
-2.1400000000000001
 30
0.1499999999999999
 11
-0.04
 21
-2.2699999999999991
 31
0.1499999999999999
 12
-0.01
 22
-2.2699999999999991
 32
0.15
 13
-0.01
 23
-2.1400000000000001
 33
0.15
  0
3DFACE
  5
264
  8
0
 10
0.01
 20
-2.2400000000000002
 30
0.17
 11
0.01
 21
-2.2699999999999991
 31
0.15
 12
0.01
 22
-2.1400000000000001
 32
0.15
 13
0.01
 23
-2.1400000000000001
 33
0.19
  0
3DFACE
  5
265
  8
0
 10
-0.01
 20
-2.1400000000000001
 30
0.15
 11
-0.01
 21
-2.2699999999999991
 31
0.15
 12
-0.01
 22
-2.2400000000000002
 32
0.17
 13
-0.01
 23
-2.1400000000000001
 33
0.19
  0
3DFACE
  5
266
  8
0
 10
0.01
 20
-2.1400000000000001
 30
0.19
 11
0.01
 21
-2.1400000000000001
 31
0.15
 12
-0.01
 22
-2.1400000000000001
 32
0.15
 13
-0.01
 23
-2.1400000000000001
 33
0.19
  0
3DFACE
  5
267
  8
0
 10
-0.01
 20
-2.2400000000000002
 30
0.17
 11
-0.01
 21
-2.2699999999999991
 31
0.15
 12
0.01
 22
-2.2699999999999991
 32
0.15
 13
0.01
 23
-2.2400000000000002
 33
0.17
  0
3DFACE
  5
269
  8
0
 10
-0.01
 20
-2.1400000000000001
 30
0.19
 11
-0.01
 21
-2.2400000000000002
 31
0.17
 12
0.01
 22
-2.2400000000000002
 32
0.17
 13
0.01
 23
-2.1400000000000001
 33
0.19
  0
3DFACE
  5
272
  8
0
 10
0.01
 20
-2.2699999999999991
 30
0.15
 11
0.04
 21
-2.2699999999999991
 31
0.1499999999999999
 12
0.04
 22
-2.1400000000000001
 32
0.1499999999999999
 13
0.01
 23
-2.1400000000000001
 33
0.15
  0
VIEWPORT
  5
2E
 67
     1
  8
0
 10
144.7270812988281
 20
101.2295806407928
 30
0.0
 40
391.13550988316581
 41
222.15178063964839
 68
     2
 69
     1
1001
ACAD
1000
MVIEW
1002
{
1070
    16
1010
0.0
1020
0.0
1030
0.0
1010
0.0
1020
0.0
1030
1.0
1040
0.0
1040
222.15178063964839
1040
144.7270812988281
1040
101.2295806407928
1040
50.0
1040
0.0
1040
0.0
1070
     0
1070
   100
1070
     1
1070
     1
1070
     0
1070
     0
1070
     0
1070
     0
1040
0.0
1040
0.0
1040
0.0
1040
10.0
1040
10.0
1040
10.0
1040
10.0
1070
     0
1002
{
1002
}
1002
}
  0
VIEWPORT
  5
30
 67
     1
  8
0
 10
139.22375631332389
 20
100.8062499761581
 30
0.0
 40
222.75801010131829
 41
161.289999961853
 68
     1
 69
     2
1001
ACAD
1000
MVIEW
1002
{
1070
    16
1010
0.0
1020
0.0
1030
0.0
1010
0.0
1020
0.0
1030
1.0
1040
0.0
1040
307.49010134148989
1040
210.0
1040
148.5
1040
50.0
1040
0.0
1040
0.0
1070
     0
1070
   100
1070
     1
1070
     3
1070
     0
1070
     1
1070
     0
1070
     0
1040
0.0
1040
0.0
1040
0.0
1040
10.0
1040
10.0
1040
10.0
1040
10.0
1070
     0
1002
{
1002
}
1002
}
  0
ENDSEC
  0
EOF
