  0
SECTION
  2
HEADER
  9
$ACADVER
  1
AC1009
  9
$INSBASE
 10
0.0
 20
0.0
 30
0.0
  9
$EXTMIN
 10
-16.759999999999991
 20
-15.02799999999999
 30
-27.010000000000002
  9
$EXTMAX
 10
16.759999999999991
 20
28.760000000000002
 30
46.428647980214343
  9
$LIMMIN
 10
0.0
 20
0.0
  9
$LIMMAX
 10
420.0
 20
297.0
  9
$ORTHOMODE
 70
     1
  9
$REGENMODE
 70
     1
  9
$FILLMODE
 70
     1
  9
$QTEXTMODE
 70
     0
  9
$MIRRTEXT
 70
     1
  9
$DRAGMODE
 70
     2
  9
$LTSCALE
 40
1.0
  9
$OSMODE
 70
   559
  9
$ATTMODE
 70
     1
  9
$TEXTSIZE
 40
2.5
  9
$TRACEWID
 40
1.0
  9
$TEXTSTYLE
  7
STANDARD
  9
$CLAYER
  8
0
  9
$CELTYPE
  6
BYLAYER
  9
$CECOLOR
 62
   256
  9
$DIMSCALE
 40
1.0
  9
$DIMASZ
 40
2.5
  9
$DIMEXO
 40
0.625
  9
$DIMDLI
 40
3.75
  9
$DIMRND
 40
0.0
  9
$DIMDLE
 40
0.0
  9
$DIMEXE
 40
1.25
  9
$DIMTP
 40
0.0
  9
$DIMTM
 40
0.0
  9
$DIMTXT
 40
2.5
  9
$DIMCEN
 40
2.5
  9
$DIMTSZ
 40
0.0
  9
$DIMTOL
 70
     0
  9
$DIMLIM
 70
     0
  9
$DIMTIH
 70
     0
  9
$DIMTOH
 70
     0
  9
$DIMSE1
 70
     0
  9
$DIMSE2
 70
     0
  9
$DIMTAD
 70
     1
  9
$DIMZIN
 70
     8
  9
$DIMBLK
  1

  9
$DIMASO
 70
     1
  9
$DIMSHO
 70
     1
  9
$DIMPOST
  1

  9
$DIMAPOST
  1

  9
$DIMALT
 70
     0
  9
$DIMALTD
 70
     3
  9
$DIMALTF
 40
0.03937007874016
  9
$DIMLFAC
 40
1.0
  9
$DIMTOFL
 70
     1
  9
$DIMTVP
 40
0.0
  9
$DIMTIX
 70
     0
  9
$DIMSOXD
 70
     0
  9
$DIMSAH
 70
     0
  9
$DIMBLK1
  1

  9
$DIMBLK2
  1

  9
$DIMSTYLE
  2
ISO-25
  9
$DIMCLRD
 70
     0
  9
$DIMCLRE
 70
     0
  9
$DIMCLRT
 70
     0
  9
$DIMTFAC
 40
1.0
  9
$DIMGAP
 40
0.625
  9
$LUNITS
 70
     2
  9
$LUPREC
 70
     4
  9
$SKETCHINC
 40
1.0
  9
$FILLETRAD
 40
10.0
  9
$AUNITS
 70
     0
  9
$AUPREC
 70
     0
  9
$MENU
  1
.
  9
$ELEVATION
 40
0.0
  9
$PELEVATION
 40
0.0
  9
$THICKNESS
 40
0.0
  9
$LIMCHECK
 70
     0
  9
$BLIPMODE
 70
     0
  9
$CHAMFERA
 40
10.0
  9
$CHAMFERB
 40
10.0
  9
$SKPOLY
 70
     0
  9
$TDCREATE
 40
2454777.766038808
  9
$TDUPDATE
 40
2454777.8736069789
  9
$TDINDWG
 40
0.0936427662
  9
$TDUSRTIMER
 40
0.0936427662
  9
$USRTIMER
 70
     1
  9
$ANGBASE
 50
0.0
  9
$ANGDIR
 70
     0
  9
$PDMODE
 70
     0
  9
$PDSIZE
 40
0.0
  9
$PLINEWID
 40
0.0
  9
$COORDS
 70
     1
  9
$SPLFRAME
 70
     0
  9
$SPLINETYPE
 70
     6
  9
$SPLINESEGS
 70
     8
  9
$ATTDIA
 70
     1
  9
$ATTREQ
 70
     1
  9
$HANDLING
 70
-16383
  9
$HANDSEED
  5
3FF
  9
$SURFTAB1
 70
     6
  9
$SURFTAB2
 70
     6
  9
$SURFTYPE
 70
     6
  9
$SURFU
 70
     6
  9
$SURFV
 70
     6
  9
$UCSNAME
  2

  9
$UCSORG
 10
0.0
 20
0.0
 30
0.0
  9
$UCSXDIR
 10
0.0
 20
-1.0
 30
0.0
  9
$UCSYDIR
 10
0.0
 20
0.0
 30
1.0
  9
$PUCSNAME
  2

  9
$PUCSORG
 10
0.0
 20
0.0
 30
0.0
  9
$PUCSXDIR
 10
1.0
 20
0.0
 30
0.0
  9
$PUCSYDIR
 10
0.0
 20
1.0
 30
0.0
  9
$USERI1
 70
     0
  9
$USERI2
 70
     0
  9
$USERI3
 70
     0
  9
$USERI4
 70
     0
  9
$USERI5
 70
     0
  9
$USERR1
 40
0.0
  9
$USERR2
 40
0.0
  9
$USERR3
 40
0.0
  9
$USERR4
 40
0.0
  9
$USERR5
 40
0.0
  9
$WORLDVIEW
 70
     1
  9
$SHADEDGE
 70
     3
  9
$SHADEDIF
 70
    70
  9
$TILEMODE
 70
     1
  9
$MAXACTVP
 70
    64
  9
$PLIMCHECK
 70
     0
  9
$PEXTMIN
 10
27.844751262664801
 20
20.161249995231621
 30
0.0
  9
$PEXTMAX
 10
250.60276136398309
 20
181.4512499570846
 30
0.0
  9
$PLIMMIN
 10
-3.757080078125
 20
-3.7570831775665279
  9
$PLIMMAX
 10
293.21124267578119
 20
206.21624445915219
  9
$UNITMODE
 70
     0
  9
$VISRETAIN
 70
     1
  9
$PLINEGEN
 70
     0
  9
$PSLTSCALE
 70
     1
  0
ENDSEC
  0
SECTION
  2
TABLES
  0
TABLE
  2
VPORT
 70
    15
  0
VPORT
  2
*ACTIVE
 70
     0
 10
0.0
 20
0.0
 11
1.0
 21
1.0
 12
12.454453260471981
 22
-7.9759491408566241
 13
0.0
 23
0.0
 14
0.01
 24
0.01
 15
1.0
 25
1.0
 16
-1.0
 26
0.0
 36
0.0
 17
0.0
 27
0.0
 37
0.0
 40
55.314536321481491
 41
1.7606679035250461
 42
50.0
 43
0.0
 44
0.0
 50
0.0
 51
0.0
 71
     0
 72
   100
 73
     1
 74
     3
 75
     1
 76
     1
 77
     0
 78
     0
  0
ENDTAB
  0
TABLE
  2
LTYPE
 70
     1
  0
LTYPE
  2
CONTINUOUS
 70
     0
  3
Solid line
 72
    65
 73
     0
 40
0.0
  0
ENDTAB
  0
TABLE
  2
LAYER
 70
     5
  0
LAYER
  2
0
 70
     0
 62
     7
  6
CONTINUOUS
  0
LAYER
  2
DRAWING
 70
     0
 62
    -9
  6
CONTINUOUS
  0
LAYER
  2
WING1
 70
     0
 62
     5
  6
CONTINUOUS
  0
LAYER
  2
WING2
 70
     0
 62
     5
  6
CONTINUOUS
  0
LAYER
  2
NOSE
 70
     0
 62
     2
  6
CONTINUOUS
  0
ENDTAB
  0
TABLE
  2
STYLE
 70
     1
  0
STYLE
  2
STANDARD
 70
     0
 40
0.0
 41
1.0
 50
0.0
 71
     0
 42
2.5
  3
txt
  4

  0
ENDTAB
  0
TABLE
  2
VIEW
 70
     0
  0
ENDTAB
  0
TABLE
  2
UCS
 70
     0
  0
ENDTAB
  0
TABLE
  2
APPID
 70
     1
  0
APPID
  2
ACAD
 70
     0
  0
ENDTAB
  0
TABLE
  2
DIMSTYLE
 70
     1
  0
DIMSTYLE
  2
ISO-25
 70
     0
  3

  4

  5

  6

  7

 40
1.0
 41
2.5
 42
0.625
 43
3.75
 44
1.25
 45
0.0
 46
0.0
 47
0.0
 48
0.0
140
2.5
141
2.5
142
0.0
143
0.03937007874016
144
1.0
145
0.0
146
1.0
147
0.625
 71
     0
 72
     0
 73
     0
 74
     0
 75
     0
 76
     0
 77
     1
 78
     8
170
     0
171
     3
172
     1
173
     0
174
     0
175
     0
176
     0
177
     0
178
     0
  0
ENDTAB
  0
ENDSEC
  0
SECTION
  2
BLOCKS
  0
BLOCK
  8
0
  2
$MODEL_SPACE
 70
     0
 10
0.0
 20
0.0
 30
0.0
  3
$MODEL_SPACE
  1

  0
ENDBLK
  5
21
  8
0
  0
BLOCK
 67
     1
  8
0
  2
$PAPER_SPACE
 70
     0
 10
0.0
 20
0.0
 30
0.0
  3
$PAPER_SPACE
  1

  0
ENDBLK
  5
1D
 67
     1
  8
0
  0
ENDSEC
  0
SECTION
  2
ENTITIES
  0
3DFACE
  5
8D
  8
0
 10
-0.5300000000000001
 20
6.1600000000000001
 30
1.6900000000000011
 11
0.5300000000000013
 21
6.1599999999999984
 31
1.6900000000000011
 12
0.43
 22
8.1600000000000001
 32
1.2699999999999989
 13
-0.4299999999999998
 23
8.1600000000000001
 33
1.2699999999999989
  0
3DFACE
  5
8E
  8
0
 10
0.5300000000000013
 20
6.1599999999999984
 30
1.6900000000000011
 11
0.9600000000000009
 21
6.1599999999999984
 31
1.55
 12
0.7699999999999996
 22
8.1600000000000001
 32
1.219999999999998
 13
0.43
 23
8.1600000000000001
 33
1.2699999999999989
  0
3DFACE
  5
8F
  8
0
 10
0.9600000000000009
 20
6.1599999999999984
 30
1.55
 11
1.1999999999999991
 21
6.1599999999999984
 31
1.4400000000000011
 12
1.179999999999999
 22
8.1999999999999993
 32
1.05
 13
0.7699999999999996
 23
8.1600000000000001
 33
1.219999999999998
  0
3DFACE
  5
90
  8
0
 10
1.1999999999999991
 20
6.1599999999999984
 30
1.4400000000000011
 11
1.4400000000000011
 21
6.1599999999999984
 31
1.21
 12
1.339999999999999
 22
8.2200000000000006
 32
0.8999999999999985
 13
1.179999999999999
 23
8.1999999999999993
 33
1.05
  0
3DFACE
  5
91
  8
0
 10
1.4400000000000011
 20
6.1599999999999984
 30
1.21
 11
1.5599999999999981
 21
6.1599999999999984
 31
0.9800000000000004
 12
1.429999999999999
 22
8.2400000000000002
 32
0.7600000000000016
 13
1.339999999999999
 23
8.2200000000000006
 33
0.8999999999999985
  0
3DFACE
  5
92
  8
0
 10
1.5599999999999981
 20
6.1599999999999984
 30
0.9800000000000004
 11
1.5800000000000001
 21
6.1599999999999984
 31
0.6999999999999993
 12
1.48
 22
8.2699999999999996
 32
0.5700000000000003
 13
1.429999999999999
 23
8.2400000000000002
 33
0.7600000000000016
  0
3DFACE
  5
93
  8
0
 10
1.5800000000000001
 20
6.1599999999999984
 30
0.6999999999999993
 11
1.5800000000000001
 21
6.1599999999999984
 31
-1.6499999999999979
 12
1.48
 22
8.6099999999999994
 32
-1.4499999999999991
 13
1.48
 23
8.2699999999999996
 33
0.5700000000000003
  0
3DFACE
  5
94
  8
0
 10
-1.48
 20
8.6099999999999994
 30
-1.4499999999999991
 11
1.48
 21
8.6099999999999994
 31
-1.4499999999999991
 12
1.5800000000000001
 22
6.1599999999999984
 32
-1.6499999999999979
 13
-1.5800000000000001
 23
6.1600000000000001
 33
-1.6499999999999979
  0
3DFACE
  5
9A
  8
0
 10
-1.48
 20
8.2699999999999996
 30
0.5700000000000003
 11
-1.48
 21
8.6099999999999994
 31
-1.4499999999999991
 12
-1.5800000000000001
 22
6.1600000000000001
 32
-1.6499999999999979
 13
-1.5800000000000001
 23
6.1600000000000001
 33
0.6999999999999993
  0
3DFACE
  5
9D
  8
0
 10
-1.179999999999999
 20
8.1999999999999993
 30
1.05
 11
-1.339999999999999
 21
8.2200000000000006
 31
0.8999999999999985
 12
-1.4400000000000011
 22
6.1600000000000001
 32
1.21
 13
-1.1999999999999991
 23
6.1600000000000001
 33
1.4400000000000011
  0
3DFACE
  5
9E
  8
0
 10
-1.429999999999999
 20
8.2400000000000002
 30
0.7600000000000016
 11
-1.48
 21
8.2699999999999996
 31
0.5700000000000003
 12
-1.5800000000000001
 22
6.1600000000000001
 32
0.6999999999999993
 13
-1.5599999999999981
 23
6.1600000000000001
 33
0.9800000000000004
  0
3DFACE
  5
9F
  8
0
 10
-1.339999999999999
 20
8.2200000000000006
 30
0.8999999999999985
 11
-1.429999999999999
 21
8.2400000000000002
 31
0.7600000000000016
 12
-1.5599999999999981
 22
6.1600000000000001
 32
0.9800000000000004
 13
-1.4400000000000011
 23
6.1600000000000001
 33
1.21
  0
3DFACE
  5
A6
  8
0
 10
-0.7699999999999996
 20
8.1600000000000001
 30
1.219999999999998
 11
-1.179999999999999
 21
8.1999999999999993
 31
1.05
 12
-1.1999999999999991
 22
6.1600000000000001
 32
1.4400000000000011
 13
-0.9600000000000009
 23
6.1600000000000001
 33
1.55
  0
3DFACE
  5
A7
  8
0
 10
-0.4299999999999998
 20
8.1600000000000001
 30
1.2699999999999989
 11
-0.7699999999999996
 21
8.1600000000000001
 31
1.219999999999998
 12
-0.9600000000000009
 22
6.1600000000000001
 32
1.55
 13
-0.5300000000000001
 23
6.1600000000000001
 33
1.6900000000000011
  0
3DFACE
  5
A9
  8
0
 10
-1.4400000000000011
 20
3.23
 30
1.21
 11
-1.5599999999999981
 21
3.23
 31
0.9800000000000002
 12
-1.5599999999999981
 22
1.7099999999999991
 32
0.72
 13
-1.4400000000000011
 23
1.7099999999999991
 33
0.95
  0
3DFACE
  5
AA
  8
0
 10
1.4400000000000011
 20
1.7099999999999991
 30
0.95
 11
1.5599999999999981
 21
1.7099999999999991
 31
0.72
 12
1.5599999999999981
 22
3.2299999999999982
 32
0.9800000000000002
 13
1.4400000000000011
 23
3.2299999999999982
 33
1.21
  0
3DFACE
  5
AB
  8
0
 10
1.5800000000000001
 20
1.7099999999999991
 30
0.4400000000000001
 11
1.5800000000000001
 21
1.7099999999999991
 31
-1.4599999999999991
 12
1.5800000000000001
 22
3.2299999999999982
 32
-1.6499999999999979
 13
1.5800000000000001
 23
3.2299999999999982
 33
0.6999999999999992
  0
3DFACE
  5
AC
  8
0
 10
-1.5800000000000001
 20
3.23
 30
0.6999999999999992
 11
-1.5800000000000001
 21
3.23
 31
-1.6499999999999979
 12
-1.5800000000000001
 22
1.7099999999999991
 32
-1.4599999999999991
 13
-1.5800000000000001
 23
1.7099999999999991
 33
0.4400000000000001
  0
3DFACE
  5
AD
  8
0
 10
-1.5800000000000001
 20
3.23
 30
-1.6499999999999979
 11
1.5800000000000001
 21
3.2299999999999982
 31
-1.6499999999999979
 12
1.5800000000000001
 22
1.7099999999999991
 32
-1.4599999999999991
 13
-1.5800000000000001
 23
1.7099999999999991
 33
-1.4599999999999991
  0
3DFACE
  5
AE
  8
0
 10
-1.5599999999999981
 20
3.23
 30
0.9800000000000002
 11
-1.5800000000000001
 21
3.23
 31
0.6999999999999992
 12
-1.5800000000000001
 22
1.7099999999999991
 32
0.4400000000000001
 13
-1.5599999999999981
 23
1.7099999999999991
 33
0.72
  0
3DFACE
  5
AF
  8
0
 10
1.5599999999999981
 20
1.7099999999999991
 30
0.72
 11
1.5800000000000001
 21
1.7099999999999991
 31
0.4400000000000001
 12
1.5800000000000001
 22
3.2299999999999982
 32
0.6999999999999992
 13
1.5599999999999981
 23
3.2299999999999982
 33
0.9800000000000002
  0
3DFACE
  5
B0
  8
0
 10
-0.5300000000000013
 20
3.23
 30
1.669999999999999
 11
-0.9600000000000009
 21
3.23
 31
1.55
 12
-0.9600000000000009
 22
1.7099999999999991
 32
1.29
 13
-0.5300000000000013
 23
1.7099999999999991
 33
1.429999999999999
  0
3DFACE
  5
B1
  8
0
 10
-1.1999999999999991
 20
3.23
 30
1.4400000000000011
 11
-1.4400000000000011
 21
3.23
 31
1.21
 12
-1.4400000000000011
 22
1.7099999999999991
 32
0.95
 13
-1.1999999999999991
 23
1.7099999999999991
 33
1.179999999999999
  0
3DFACE
  5
B2
  8
0
 10
-0.9600000000000009
 20
3.23
 30
1.55
 11
-1.1999999999999991
 21
3.23
 31
1.4400000000000011
 12
-1.1999999999999991
 22
1.7099999999999991
 32
1.179999999999999
 13
-0.9600000000000009
 23
1.7099999999999991
 33
1.29
  0
3DFACE
  5
B3
  8
0
 10
1.1999999999999991
 20
1.7099999999999991
 30
1.179999999999999
 11
1.4400000000000011
 21
1.7099999999999991
 31
0.95
 12
1.4400000000000011
 22
3.2299999999999982
 32
1.21
 13
1.1999999999999991
 23
3.2299999999999982
 33
1.4400000000000011
  0
3DFACE
  5
B4
  8
0
 10
0.9600000000000009
 20
1.7099999999999991
 30
1.29
 11
1.1999999999999991
 21
1.7099999999999991
 31
1.179999999999999
 12
1.1999999999999991
 22
3.2299999999999982
 32
1.4400000000000011
 13
0.9600000000000009
 23
3.23
 33
1.55
  0
3DFACE
  5
B5
  8
0
 10
-0.5300000000000013
 20
1.7099999999999991
 30
1.429999999999999
 11
0.5300000000000013
 21
1.7099999999999991
 31
1.429999999999999
 12
0.5300000000000013
 22
3.2299999999999982
 32
1.669999999999999
 13
-0.5300000000000013
 23
3.23
 33
1.669999999999999
  0
3DFACE
  5
B6
  8
0
 10
0.5300000000000013
 20
1.7099999999999991
 30
1.429999999999999
 11
0.9600000000000009
 21
1.7099999999999991
 31
1.29
 12
0.9600000000000009
 22
3.23
 32
1.55
 13
0.5300000000000013
 23
3.2299999999999982
 33
1.669999999999999
  0
3DFACE
  5
C4
  8
0
 10
0.0
 20
-10.4
 30
1.1534439999999999
 11
0.0
 21
-10.4
 31
1.1534439999999999
 12
0.2189960000000005
 22
-7.3600000000000003
 32
1.1534439999999999
 13
-0.2189960000000005
 23
-7.3600000000000003
 33
1.1534439999999999
  0
3DFACE
  5
C5
  8
0
 10
0.0
 20
-10.41
 30
1.050144
 11
0.0
 21
-10.369999999999999
 31
0.7700000000000001
 12
0.5950080000000007
 22
-7.3600000000000003
 32
0.9551080000000006
 13
0.4958399999999998
 23
-7.3600000000000003
 33
1.050144
  0
3DFACE
  5
C6
  8
0
 10
0.0
 20
-10.41
 30
1.095596
 11
0.0
 21
-10.41
 31
1.050144
 12
0.4958399999999998
 22
-7.3600000000000003
 32
1.050144
 13
0.3966720000000004
 23
-7.3600000000000003
 33
1.095596
  0
3DFACE
  5
C7
  8
0
 10
0.0
 20
-10.4
 30
1.1534439999999999
 11
0.0
 21
-10.41
 31
1.095596
 12
0.3966720000000004
 22
-7.3600000000000003
 32
1.095596
 13
0.2189960000000005
 23
-7.3600000000000003
 33
1.1534439999999999
  0
3DFACE
  5
C8
  8
0
 10
-0.4958399999999998
 20
-7.3600000000000003
 30
1.050144
 11
-0.5950080000000007
 21
-7.3600000000000003
 31
0.9551080000000006
 12
0.0
 22
-10.369999999999999
 32
0.7700000000000001
 13
0.0
 23
-10.41
 33
1.050144
  0
3DFACE
  5
C9
  8
0
 10
-0.3966720000000004
 20
-7.3600000000000003
 30
1.095596
 11
-0.4958399999999998
 21
-7.3600000000000003
 31
1.050144
 12
0.0
 22
-10.41
 32
1.050144
 13
0.0
 23
-10.41
 33
1.095596
  0
3DFACE
  5
CA
  8
0
 10
-0.2189960000000005
 20
-7.3600000000000003
 30
1.1534439999999999
 11
-0.3966720000000004
 21
-7.3600000000000003
 31
1.095596
 12
0.0
 22
-10.41
 32
1.095596
 13
0.0
 23
-10.4
 33
1.1534439999999999
  0
3DFACE
  5
CB
  8
0
 10
0.0
 20
-10.130000000000001
 30
0.4100000000000001
 11
0.0
 21
-9.7699999999999996
 31
0.19
 12
0.6528560000000001
 22
-7.3600000000000003
 32
0.7443759999999998
 13
0.6445919999999995
 23
-7.3600000000000003
 33
0.8600720000000004
  0
3DFACE
  5
CC
  8
0
 10
-0.6445919999999995
 20
-7.3600000000000003
 30
0.8600720000000004
 11
-0.6528560000000001
 21
-7.3600000000000003
 31
0.7443759999999998
 12
0.0
 22
-9.7699999999999996
 32
0.19
 13
0.0
 23
-10.130000000000001
 33
0.4100000000000001
  0
3DFACE
  5
CD
  8
0
 10
-0.6528560000000001
 20
-7.3600000000000003
 30
-0.2266439999999994
 11
0.6528560000000001
 21
-7.3600000000000003
 31
-0.2266439999999994
 12
0.0
 22
-9.2400000000000002
 32
0.01
 13
0.0
 23
-9.2400000000000002
 33
0.01
  0
3DFACE
  5
CE
  8
0
 10
0.0
 20
-9.7699999999999996
 30
0.19
 11
0.0
 21
-9.2400000000000002
 31
0.01
 12
0.6528560000000001
 22
-7.3600000000000003
 32
-0.2266439999999994
 13
0.6528560000000001
 23
-7.3600000000000003
 33
0.7443759999999998
  0
3DFACE
  5
CF
  8
0
 10
-0.6528560000000001
 20
-7.3600000000000003
 30
0.7443759999999998
 11
-0.6528560000000001
 21
-7.3600000000000003
 31
-0.2266439999999994
 12
0.0
 22
-9.2400000000000002
 32
0.01
 13
0.0
 23
-9.7699999999999996
 33
0.19
  0
3DFACE
  5
D0
  8
0
 10
-0.5950080000000007
 20
-7.3600000000000003
 30
0.9551080000000006
 11
-0.6445919999999995
 21
-7.3600000000000003
 31
0.8600720000000004
 12
0.0
 22
-10.130000000000001
 32
0.4100000000000001
 13
0.0
 23
-10.369999999999999
 33
0.7700000000000001
  0
3DFACE
  5
D1
  8
0
 10
0.0
 20
-10.369999999999999
 30
0.7700000000000001
 11
0.0
 21
-10.130000000000001
 31
0.4100000000000001
 12
0.6445919999999995
 22
-7.3600000000000003
 32
0.8600720000000004
 13
0.5950080000000007
 23
-7.3600000000000003
 33
0.9551080000000006
  0
3DFACE
  5
D3
  8
0
 10
0.4958399999999998
 20
-7.3600000000000003
 30
1.050144
 11
0.5950080000000007
 21
-7.3600000000000003
 31
0.9551080000000006
 12
1.4400000000000011
 22
1.7099999999999991
 32
0.95
 13
1.1999999999999991
 23
1.7099999999999991
 33
1.179999999999999
  0
3DFACE
  5
D4
  8
0
 10
-1.1999999999999991
 20
1.71
 30
1.179999999999999
 11
-1.4400000000000011
 21
1.71
 31
0.95
 12
-0.5950080000000007
 22
-7.3600000000000012
 32
0.9551080000000006
 13
-0.4958399999999998
 23
-7.3600000000000012
 33
1.050144
  0
3DFACE
  5
D5
  8
0
 10
-1.4400000000000011
 20
1.71
 30
0.95
 11
-1.5599999999999981
 21
1.71
 31
0.72
 12
-0.6445919999999995
 22
-7.3600000000000012
 32
0.8600720000000004
 13
-0.5950080000000007
 23
-7.3600000000000012
 33
0.9551080000000006
  0
3DFACE
  5
D6
  8
0
 10
0.5950080000000007
 20
-7.3600000000000003
 30
0.9551080000000006
 11
0.6445919999999995
 21
-7.3600000000000003
 31
0.8600720000000004
 12
1.5599999999999981
 22
1.7099999999999991
 32
0.72
 13
1.4400000000000011
 23
1.7099999999999991
 33
0.95
  0
3DFACE
  5
D7
  8
0
 10
-1.579999999999999
 20
1.71
 30
0.4400000000000001
 11
-1.579999999999999
 21
1.71
 31
-1.4599999999999991
 12
-0.6528560000000001
 22
-7.3600000000000012
 32
-0.2266439999999994
 13
-0.6528560000000001
 23
-7.3600000000000012
 33
0.7443759999999998
  0
3DFACE
  5
D8
  8
0
 10
0.6528560000000001
 20
-7.3600000000000003
 30
0.7443759999999998
 11
0.6528560000000001
 21
-7.3600000000000003
 31
-0.2266439999999994
 12
1.5800000000000001
 22
1.7099999999999991
 32
-1.4599999999999991
 13
1.5800000000000001
 23
1.7099999999999991
 33
0.4400000000000001
  0
3DFACE
  5
D9
  8
0
 10
0.6528560000000001
 20
-7.3600000000000003
 30
-0.2266439999999994
 11
-0.6528560000000001
 21
-7.3600000000000012
 31
-0.2266439999999994
 12
-1.579999999999999
 22
1.71
 32
-1.4599999999999991
 13
1.5800000000000001
 23
1.7099999999999991
 33
-1.4599999999999991
  0
3DFACE
  5
DA
  8
0
 10
0.6445919999999995
 20
-7.3600000000000003
 30
0.8600720000000004
 11
0.6528560000000001
 21
-7.3600000000000003
 31
0.7443759999999998
 12
1.5800000000000001
 22
1.7099999999999991
 32
0.4400000000000001
 13
1.5599999999999981
 23
1.7099999999999991
 33
0.72
  0
3DFACE
  5
DB
  8
0
 10
-1.5599999999999981
 20
1.71
 30
0.72
 11
-1.579999999999999
 21
1.71
 31
0.4400000000000001
 12
-0.6528560000000001
 22
-7.3600000000000012
 32
0.7443759999999998
 13
-0.6445919999999995
 23
-7.3600000000000012
 33
0.8600720000000004
  0
3DFACE
  5
DC
  8
0
 10
0.2189960000000005
 20
-7.3600000000000003
 30
1.1534439999999999
 11
0.3966720000000004
 21
-7.3600000000000003
 31
1.095596
 12
0.960000000000001
 22
1.7099999999999991
 32
1.29
 13
0.5300000000000013
 23
1.71
 33
1.429999999999999
  0
3DFACE
  5
DD
  8
0
 10
0.3966720000000004
 20
-7.3600000000000003
 30
1.095596
 11
0.4958399999999998
 21
-7.3600000000000003
 31
1.050144
 12
1.1999999999999991
 22
1.7099999999999991
 32
1.179999999999999
 13
0.960000000000001
 23
1.7099999999999991
 33
1.29
  0
3DFACE
  5
DE
  8
0
 10
0.5300000000000013
 20
1.71
 30
1.429999999999999
 11
-0.5300000000000011
 21
1.71
 31
1.429999999999999
 12
-0.218996
 22
-7.3600000000000003
 32
1.1534439999999999
 13
0.2189960000000005
 23
-7.3600000000000003
 33
1.1534439999999999
  0
3DFACE
  5
DF
  8
0
 10
-0.5300000000000011
 20
1.71
 30
1.429999999999999
 11
-0.9600000000000006
 21
1.71
 31
1.29
 12
-0.3966720000000004
 22
-7.3600000000000012
 32
1.095596
 13
-0.218996
 23
-7.3600000000000003
 33
1.1534439999999999
  0
3DFACE
  5
E0
  8
0
 10
-0.9600000000000006
 20
1.71
 30
1.29
 11
-1.1999999999999991
 21
1.71
 31
1.179999999999999
 12
-0.4958399999999998
 22
-7.3600000000000012
 32
1.050144
 13
-0.3966720000000004
 23
-7.3600000000000012
 33
1.095596
  0
3DFACE
  5
10B
  8
0
 10
-1.5800000000000001
 20
6.1600000000000001
 30
-1.6499999999999979
 11
1.5800000000000001
 21
6.1599999999999984
 31
-1.6499999999999979
 12
1.5800000000000001
 22
3.2299999999999982
 32
-1.6499999999999979
 13
-1.5800000000000001
 23
3.23
 33
-1.6499999999999979
  0
3DFACE
  5
10C
  8
0
 10
-1.5800000000000001
 20
6.1600000000000001
 30
0.6999999999999993
 11
-1.5800000000000001
 21
6.1600000000000001
 31
-1.6499999999999979
 12
-1.5800000000000001
 22
3.2300000000000022
 32
-1.6499999999999979
 13
-1.5800000000000001
 23
3.23
 33
0.6999999999999992
  0
3DFACE
  5
10D
  8
0
 10
-1.5599999999999981
 20
6.1600000000000001
 30
0.9800000000000004
 11
-1.5800000000000001
 21
6.1600000000000001
 31
0.6999999999999993
 12
-1.5800000000000001
 22
3.23
 32
0.6999999999999992
 13
-1.5599999999999981
 23
3.23
 33
0.9800000000000002
  0
3DFACE
  5
10E
  8
0
 10
-1.4400000000000011
 20
6.1600000000000001
 30
1.21
 11
-1.5599999999999981
 21
6.1600000000000001
 31
0.9800000000000004
 12
-1.5599999999999981
 22
3.23
 32
0.9800000000000002
 13
-1.4400000000000011
 23
3.23
 33
1.21
  0
3DFACE
  5
10F
  8
0
 10
-1.1999999999999991
 20
6.1600000000000001
 30
1.4400000000000011
 11
-1.4400000000000011
 21
6.1600000000000001
 31
1.21
 12
-1.4400000000000011
 22
3.23
 32
1.21
 13
-1.1999999999999991
 23
3.23
 33
1.4400000000000011
  0
3DFACE
  5
110
  8
0
 10
-0.9600000000000009
 20
6.1600000000000001
 30
1.55
 11
-1.1999999999999991
 21
6.1600000000000001
 31
1.4400000000000011
 12
-1.1999999999999991
 22
3.23
 32
1.4400000000000011
 13
-0.9600000000000009
 23
3.23
 33
1.55
  0
3DFACE
  5
111
  8
0
 10
-0.5300000000000001
 20
6.1600000000000001
 30
1.6900000000000011
 11
-0.9600000000000009
 21
6.1600000000000001
 31
1.55
 12
-0.9600000000000009
 22
3.23
 32
1.55
 13
-0.5300000000000013
 23
3.23
 33
1.669999999999999
  0
3DFACE
  5
112
  8
0
 10
0.5300000000000013
 20
6.1599999999999984
 30
1.6900000000000011
 11
-0.5300000000000001
 21
6.1600000000000001
 31
1.6900000000000011
 12
-0.5300000000000013
 22
3.23
 32
1.669999999999999
 13
0.5300000000000013
 23
3.2299999999999982
 33
1.669999999999999
  0
3DFACE
  5
113
  8
0
 10
0.9600000000000009
 20
6.1599999999999984
 30
1.55
 11
0.5300000000000013
 21
6.1599999999999984
 31
1.6900000000000011
 12
0.5300000000000013
 22
3.2299999999999982
 32
1.669999999999999
 13
0.9600000000000009
 23
3.23
 33
1.55
  0
3DFACE
  5
114
  8
0
 10
1.1999999999999991
 20
6.1599999999999984
 30
1.4400000000000011
 11
0.960000000000001
 21
6.1599999999999984
 31
1.55
 12
0.960000000000001
 22
3.2299999999999982
 32
1.55
 13
1.1999999999999991
 23
3.2299999999999982
 33
1.4400000000000011
  0
3DFACE
  5
115
  8
0
 10
1.4400000000000011
 20
6.1599999999999984
 30
1.21
 11
1.1999999999999991
 21
6.1599999999999984
 31
1.4400000000000011
 12
1.1999999999999991
 22
3.2299999999999982
 32
1.4400000000000011
 13
1.4400000000000011
 23
3.2299999999999982
 33
1.21
  0
3DFACE
  5
116
  8
0
 10
1.5599999999999981
 20
6.1599999999999984
 30
0.9800000000000004
 11
1.4400000000000011
 21
6.1599999999999984
 31
1.2100000000000011
 12
1.4400000000000011
 22
3.2299999999999982
 32
1.21
 13
1.5599999999999981
 23
3.2299999999999982
 33
0.9800000000000002
  0
3DFACE
  5
117
  8
0
 10
1.5800000000000001
 20
6.1599999999999984
 30
0.6999999999999993
 11
1.5599999999999981
 21
6.1599999999999984
 31
0.9800000000000004
 12
1.5599999999999981
 22
3.2299999999999982
 32
0.9800000000000002
 13
1.5800000000000001
 23
3.2299999999999982
 33
0.6999999999999993
  0
3DFACE
  5
118
  8
0
 10
1.5800000000000001
 20
6.1599999999999984
 30
-1.6499999999999979
 11
1.5800000000000001
 21
6.1599999999999993
 31
0.6999999999999995
 12
1.5800000000000001
 22
3.2299999999999991
 32
0.6999999999999993
 13
1.5800000000000001
 23
3.2299999999999982
 33
-1.6499999999999979
  0
3DFACE
  5
16D
  8
0
 10
0.0899999999999999
 20
-8.9199999999999982
 30
5.2400000000000011
 11
0.18
 21
-8.8200000000000003
 31
1.1000000000000001
 12
0.2400000000000002
 22
-7.3899999999999997
 32
1.1000000000000001
 13
0.0899999999999999
 23
-8.2699999999999996
 33
5.2400000000000011
  0
3DFACE
  5
16E
  8
0
 10
0.0
 20
-9.0
 30
5.2400000000000011
 11
0.0
 21
-8.9600000000000009
 31
1.1000000000000001
 12
0.18
 22
-8.8200000000000003
 32
1.1000000000000001
 13
0.0899999999999999
 23
-8.9199999999999982
 33
5.2400000000000011
  0
3DFACE
  5
16F
  8
0
 10
0.0899999999999999
 20
-8.2699999999999996
 30
5.2400000000000011
 11
0.2400000000000002
 21
-7.3899999999999997
 31
1.1000000000000001
 12
0.0
 22
-7.3099999999999996
 32
1.1000000000000001
 13
0.0
 23
-8.2300000000000004
 33
5.2400000000000011
  0
3DFACE
  5
172
  8
0
 10
0.0
 20
-9.0
 30
5.379999999999999
 11
0.0
 21
-9.0
 31
5.2400000000000011
 12
0.0899999999999999
 22
-8.9199999999999982
 32
5.2400000000000011
 13
0.0400000000000009
 23
-8.9500000000000011
 33
5.3700000000000001
  0
3DFACE
  5
173
  8
0
 10
0.0400000000000009
 20
-8.9500000000000011
 30
5.3700000000000001
 11
0.0899999999999999
 21
-8.9199999999999982
 31
5.2400000000000011
 12
0.0899999999999999
 22
-8.2699999999999996
 32
5.2400000000000011
 13
0.0400000000000009
 23
-8.3400000000000016
 33
5.3700000000000001
  0
3DFACE
  5
175
  8
0
 10
0.0400000000000009
 20
-8.3400000000000016
 30
5.3700000000000001
 11
0.0899999999999999
 21
-8.2699999999999996
 31
5.2400000000000011
 12
0.0
 22
-8.2300000000000004
 32
5.2400000000000011
 13
0.0
 23
-8.3400000000000016
 33
5.379999999999999
  0
3DFACE
  5
177
  8
0
 10
0.0
 20
-8.3400000000000016
 30
5.379999999999999
 11
0.0
 21
-9.0
 31
5.379999999999999
 12
0.0400000000000009
 22
-8.9500000000000011
 32
5.3700000000000001
 13
0.0400000000000009
 23
-8.3400000000000016
 33
5.3700000000000001
  0
3DFACE
  5
179
  8
0
 10
0.0
 20
-8.9600000000000009
 30
1.1499999999999999
 11
-0.0000000000000002
 21
-10.390000000000001
 31
1.149999999999999
 12
-0.0000000000000002
 22
-9.8699999999999992
 32
5.379999999999999
 13
-0.0000000000000002
 23
-9.0
 33
5.379999999999999
  0
3DFACE
  5
17A
  8
0
 10
-0.0000000000000002
 20
-9.0
 30
5.379999999999999
 11
-0.0000000000000002
 21
-9.8699999999999992
 31
5.379999999999999
 12
-0.0000000000000002
 22
-10.390000000000001
 32
1.149999999999999
 13
0.0
 23
-8.9600000000000009
 33
1.1499999999999999
  0
3DFACE
  5
17B
  8
0
 10
-0.0000000000000002
 20
-8.4900000000000002
 30
5.379999999999999
 11
-0.0000000000000002
 21
-9.8699999999999992
 31
5.379999999999999
 12
-0.0000000000000002
 22
-9.8300000000000001
 32
5.7000000000000002
 13
-0.0000000000000002
 23
-8.5399999999999991
 33
5.7000000000000002
  0
3DFACE
  5
17C
  8
0
 10
-0.0000000000000002
 20
-8.5399999999999991
 30
5.7000000000000002
 11
-0.0000000000000002
 21
-9.8300000000000001
 31
5.7000000000000002
 12
-0.0000000000000002
 22
-9.8699999999999992
 32
5.379999999999999
 13
-0.0000000000000002
 23
-8.4900000000000002
 33
5.379999999999999
  0
3DFACE
  5
17D
  8
0
 10
-0.0000000000000002
 20
-8.7000000000000011
 30
5.8200000000000003
 11
-0.0000000000000002
 21
-9.6600000000000001
 31
5.8200000000000003
 12
-0.0000000000000002
 22
-9.8300000000000001
 32
5.6999999999999993
 13
-0.0000000000000002
 23
-8.5399999999999991
 33
5.6999999999999993
  0
3DFACE
  5
17E
  8
0
 10
-0.0000000000000002
 20
-8.5399999999999991
 30
5.6999999999999993
 11
-0.0000000000000002
 21
-9.8300000000000001
 31
5.6999999999999993
 12
-0.0000000000000002
 22
-9.6600000000000001
 32
5.8200000000000003
 13
-0.0000000000000002
 23
-8.7000000000000011
 33
5.8200000000000003
  0
3DFACE
  5
17F
  8
0
 10
-0.0899999999999999
 20
-8.9199999999999982
 30
5.2400000000000011
 11
-0.18
 21
-8.8200000000000003
 31
1.1000000000000001
 12
0.0
 22
-8.9600000000000009
 32
1.1000000000000001
 13
0.0
 23
-9.0
 33
5.2400000000000011
  0
3DFACE
  5
180
  8
0
 10
0.0
 20
-8.2300000000000004
 30
5.2400000000000011
 11
0.0
 21
-7.3099999999999996
 31
1.1000000000000001
 12
-0.2400000000000002
 22
-7.3899999999999997
 32
1.1000000000000001
 13
-0.0899999999999999
 23
-8.2699999999999996
 33
5.2400000000000011
  0
3DFACE
  5
181
  8
0
 10
-0.0399999999999992
 20
-8.3400000000000016
 30
5.3700000000000001
 11
-0.0399999999999992
 21
-8.9500000000000011
 31
5.3700000000000001
 12
0.0
 22
-9.0
 32
5.379999999999999
 13
0.0
 23
-8.3400000000000016
 33
5.379999999999999
  0
3DFACE
  5
182
  8
0
 10
0.0
 20
-8.3400000000000016
 30
5.379999999999999
 11
0.0
 21
-8.2300000000000004
 31
5.2400000000000011
 12
-0.0899999999999999
 22
-8.2699999999999996
 32
5.2400000000000011
 13
-0.0399999999999992
 23
-8.3400000000000016
 33
5.3700000000000001
  0
3DFACE
  5
183
  8
0
 10
-0.0399999999999992
 20
-8.9500000000000011
 30
5.3700000000000001
 11
-0.0899999999999999
 21
-8.9199999999999982
 31
5.2400000000000011
 12
0.0
 22
-9.0
 32
5.2400000000000011
 13
0.0
 23
-9.0
 33
5.379999999999999
  0
3DFACE
  5
187
  8
0
 10
-0.2400000000000002
 20
-7.3899999999999997
 30
1.1000000000000001
 11
-0.18
 21
-8.8200000000000003
 31
1.1000000000000001
 12
-0.0899999999999999
 22
-8.9199999999999982
 32
5.2400000000000011
 13
-0.0899999999999999
 23
-8.2699999999999996
 33
5.2400000000000011
  0
3DFACE
  5
18A
  8
0
 10
-0.0899999999999999
 20
-8.2699999999999996
 30
5.2400000000000011
 11
-0.0899999999999999
 21
-8.9199999999999982
 31
5.2400000000000011
 12
-0.0399999999999992
 22
-8.9500000000000011
 32
5.3700000000000001
 13
-0.0399999999999992
 23
-8.3400000000000016
 33
5.3700000000000001
  0
3DFACE
  5
1D8
  8
0
 10
0.05
 20
-8.8100000000000005
 30
-0.5300000000000001
 11
0.05
 21
-8.6550000000000011
 31
-0.2615321248268231
 12
-0.05
 22
-8.6550000000000011
 32
-0.2615321248268231
 13
-0.05
 23
-8.8100000000000005
 33
-0.5300000000000001
  0
3DFACE
  5
1D9
  8
0
 10
0.05
 20
-8.6550000000000011
 30
-0.2615321248268231
 11
0.05
 21
-8.3449999999999989
 31
-0.2615321248268231
 12
-0.05
 22
-8.3449999999999989
 32
-0.2615321248268231
 13
-0.05
 23
-8.6550000000000011
 33
-0.2615321248268231
  0
3DFACE
  5
1DA
  8
0
 10
0.05
 20
-8.3449999999999989
 30
-0.2615321248268231
 11
0.05
 21
-8.1899999999999995
 31
-0.5300000000000001
 12
-0.05
 22
-8.1899999999999995
 32
-0.5300000000000001
 13
-0.05
 23
-8.3449999999999989
 33
-0.2615321248268231
  0
3DFACE
  5
1DB
  8
0
 10
0.05
 20
-8.1899999999999995
 30
-0.5300000000000001
 11
0.05
 21
-8.3449999999999989
 31
-0.7984678751731769
 12
-0.05
 22
-8.3449999999999989
 32
-0.7984678751731769
 13
-0.05
 23
-8.1899999999999995
 33
-0.5300000000000001
  0
3DFACE
  5
1DC
  8
0
 10
0.05
 20
-8.3449999999999989
 30
-0.7984678751731769
 11
0.05
 21
-8.6550000000000011
 31
-0.7984678751731771
 12
-0.05
 22
-8.6550000000000011
 32
-0.7984678751731771
 13
-0.05
 23
-8.3449999999999989
 33
-0.7984678751731769
  0
3DFACE
  5
1DD
  8
0
 10
0.05
 20
-8.6550000000000011
 30
-0.7984678751731771
 11
0.05
 21
-8.8100000000000005
 31
-0.5300000000000001
 12
-0.05
 22
-8.8100000000000005
 32
-0.5300000000000001
 13
-0.05
 23
-8.6550000000000011
 33
-0.7984678751731771
  0
3DFACE
  5
1DE
  8
0
 10
-0.0600000000000002
 20
-8.1999999999999993
 30
-0.38
 11
-0.0600000000000002
 21
-8.5500000000000007
 31
-0.4700000000000001
 12
-0.0600000000000002
 22
-8.5700000000000003
 32
-0.58
 13
-0.0600000000000002
 23
-8.0899999999999999
 33
-0.5300000000000001
  0
3DFACE
  5
1DF
  8
0
 10
-0.0600000000000002
 20
-8.0899999999999999
 30
-0.5300000000000001
 11
-0.0600000000000002
 21
-8.5700000000000003
 31
-0.58
 12
-0.0600000000000002
 22
-8.5500000000000007
 32
-0.4700000000000001
 13
-0.0600000000000002
 23
-8.1999999999999993
 33
-0.38
  0
3DFACE
  5
1E0
  8
0
 10
-0.0600000000000002
 20
-7.9800000000000004
 30
-0.14
 11
-0.0600000000000002
 21
-8.0899999999999999
 31
-0.5300000000000001
 12
-0.0600000000000002
 22
-8.1999999999999993
 32
-0.38
 13
-0.0600000000000002
 23
-8.1600000000000001
 33
-0.12
  0
3DFACE
  5
1E1
  8
0
 10
-0.0600000000000002
 20
-8.1600000000000001
 30
-0.12
 11
-0.0600000000000002
 21
-8.1999999999999993
 31
-0.38
 12
-0.0600000000000002
 22
-8.0899999999999999
 32
-0.5300000000000001
 13
-0.0600000000000002
 23
-7.9800000000000004
 33
-0.14
  0
3DFACE
  5
1E2
  8
0
 10
0.0599999999999998
 20
-7.9800000000000004
 30
-0.14
 11
0.0599999999999998
 21
-8.0899999999999999
 31
-0.5300000000000001
 12
0.0599999999999998
 22
-8.1999999999999993
 32
-0.38
 13
0.0599999999999998
 23
-8.1600000000000001
 33
-0.12
  0
3DFACE
  5
1E3
  8
0
 10
0.0599999999999998
 20
-8.1600000000000001
 30
-0.12
 11
0.0599999999999998
 21
-8.1999999999999993
 31
-0.38
 12
0.0599999999999998
 22
-8.0899999999999999
 32
-0.5300000000000001
 13
0.0599999999999998
 23
-7.9800000000000004
 33
-0.14
  0
3DFACE
  5
1E4
  8
0
 10
0.0599999999999998
 20
-8.0899999999999999
 30
-0.5300000000000001
 11
0.0599999999999998
 21
-8.5700000000000003
 31
-0.58
 12
0.0599999999999998
 22
-8.5500000000000007
 32
-0.4700000000000001
 13
0.0599999999999998
 23
-8.1999999999999993
 33
-0.38
  0
3DFACE
  5
1E5
  8
0
 10
0.0599999999999998
 20
-8.1999999999999993
 30
-0.38
 11
0.0599999999999998
 21
-8.5500000000000007
 31
-0.4700000000000001
 12
0.0599999999999998
 22
-8.5700000000000003
 32
-0.58
 13
0.0599999999999998
 23
-8.0899999999999999
 33
-0.5300000000000001
  0
3DFACE
  5
1E6
  8
0
 10
-0.05
 20
-8.6550000000000011
 30
-0.2615321248268231
 11
-0.05
 21
-8.3449999999999989
 31
-0.2615321248268231
 12
-0.05
 22
-8.1899999999999995
 32
-0.5300000000000001
 13
-0.05
 23
-8.8100000000000005
 33
-0.5300000000000001
  0
3DFACE
  5
1E7
  8
0
 10
-0.05
 20
-8.8100000000000005
 30
-0.5300000000000001
 11
-0.05
 21
-8.1899999999999995
 31
-0.5300000000000001
 12
-0.05
 22
-8.3449999999999989
 32
-0.7984678751731769
 13
-0.05
 23
-8.6550000000000011
 33
-0.7984678751731771
  0
3DFACE
  5
1E8
  8
0
 10
0.05
 20
-8.8100000000000005
 30
-0.5300000000000001
 11
0.05
 21
-8.1899999999999995
 31
-0.5300000000000001
 12
0.05
 22
-8.3449999999999989
 32
-0.2615321248268231
 13
0.05
 23
-8.6550000000000011
 33
-0.2615321248268231
  0
3DFACE
  5
1E9
  8
0
 10
0.05
 20
-8.6550000000000011
 30
-0.7984678751731771
 11
0.05
 21
-8.3449999999999989
 31
-0.7984678751731769
 12
0.05
 22
-8.1899999999999995
 32
-0.5300000000000001
 13
0.05
 23
-8.8100000000000005
 33
-0.5300000000000001
  0
3DFACE
  5
267
  8
0
 10
2.7999999999999998
 20
4.1499999999999986
 30
-1.7299999999999991
 11
2.9449999999999998
 21
4.4011473670974857
 31
-1.7299999999999991
 12
2.9449999999999998
 22
4.4359584973127566
 32
-1.814041502687243
 13
2.7999999999999998
 23
4.258370490960977
 33
-1.991629509039023
  0
3DFACE
  5
268
  8
0
 10
2.9449999999999998
 20
4.4011473670974857
 30
-1.7299999999999991
 11
3.2349999999999999
 21
4.4011473670974857
 31
-1.7299999999999991
 12
3.2349999999999999
 22
4.4359584973127566
 32
-1.814041502687243
 13
2.9449999999999998
 23
4.4359584973127566
 33
-1.814041502687243
  0
3DFACE
  5
269
  8
0
 10
3.2349999999999999
 20
4.4011473670974857
 30
-1.7299999999999991
 11
3.3799999999999999
 21
4.1499999999999986
 31
-1.7299999999999991
 12
3.3799999999999999
 22
4.258370490960977
 32
-1.991629509039023
 13
3.2349999999999999
 23
4.4359584973127566
 33
-1.814041502687243
  0
3DFACE
  5
26A
  8
0
 10
3.3799999999999999
 20
4.1499999999999986
 30
-1.7299999999999991
 11
3.2349999999999999
 21
3.8988526329025119
 31
-1.7299999999999991
 12
3.2349999999999999
 22
4.0807824846091973
 32
-2.1692175153908031
 13
3.3799999999999999
 23
4.258370490960977
 33
-1.991629509039023
  0
3DFACE
  5
26B
  8
0
 10
3.2349999999999999
 20
3.8988526329025119
 30
-1.7299999999999991
 11
2.9449999999999998
 21
3.8988526329025119
 31
-1.7299999999999991
 12
2.9449999999999998
 22
4.0807824846091973
 32
-2.1692175153908031
 13
3.2349999999999999
 23
4.0807824846091973
 33
-2.1692175153908031
  0
3DFACE
  5
26C
  8
0
 10
2.9449999999999998
 20
3.8988526329025119
 30
-1.7299999999999991
 11
2.7999999999999998
 21
4.1499999999999986
 31
-1.7299999999999991
 12
2.7999999999999998
 22
4.258370490960977
 32
-1.991629509039023
 13
2.9449999999999998
 23
4.0807824846091973
 33
-2.1692175153908031
  0
3DFACE
  5
26D
  8
0
 10
2.7999999999999998
 20
4.258370490960977
 30
-1.991629509039023
 11
2.9449999999999998
 21
4.4359584973127566
 31
-1.814041502687243
 12
2.9449999999999998
 22
4.5199999999999996
 32
-1.848852632902513
 13
2.7999999999999998
 23
4.5199999999999996
 33
-2.1000000000000001
  0
3DFACE
  5
26E
  8
0
 10
2.9449999999999998
 20
4.4359584973127566
 30
-1.814041502687243
 11
3.2349999999999999
 21
4.4359584973127566
 31
-1.814041502687243
 12
3.2349999999999999
 22
4.5199999999999996
 32
-1.848852632902513
 13
2.9449999999999998
 23
4.5199999999999996
 33
-1.848852632902513
  0
3DFACE
  5
26F
  8
0
 10
3.2349999999999999
 20
4.4359584973127566
 30
-1.814041502687243
 11
3.3799999999999999
 21
4.258370490960977
 31
-1.991629509039023
 12
3.3799999999999999
 22
4.5199999999999996
 32
-2.1000000000000001
 13
3.2349999999999999
 23
4.5199999999999996
 33
-1.848852632902513
  0
3DFACE
  5
270
  8
0
 10
3.3799999999999999
 20
4.258370490960977
 30
-1.991629509039023
 11
3.2349999999999999
 21
4.0807824846091973
 31
-2.1692175153908031
 12
3.2349999999999999
 22
4.5199999999999996
 32
-2.3511473670974872
 13
3.3799999999999999
 23
4.5199999999999996
 33
-2.1000000000000001
  0
3DFACE
  5
271
  8
0
 10
3.2349999999999999
 20
4.0807824846091973
 30
-2.1692175153908031
 11
2.9449999999999998
 21
4.0807824846091973
 31
-2.1692175153908031
 12
2.9449999999999998
 22
4.5199999999999996
 32
-2.3511473670974872
 13
3.2349999999999999
 23
4.5199999999999996
 33
-2.3511473670974872
  0
3DFACE
  5
272
  8
0
 10
2.9449999999999998
 20
4.0807824846091973
 30
-2.1692175153908031
 11
2.7999999999999998
 21
4.258370490960977
 31
-1.991629509039023
 12
2.7999999999999998
 22
4.5199999999999996
 32
-2.1000000000000001
 13
2.9449999999999998
 23
4.5199999999999996
 33
-2.3511473670974872
  0
3DFACE
  5
273
  8
0
 10
2.7999999999999998
 20
4.5199999999999996
 30
-2.1000000000000001
 11
2.9449999999999998
 21
4.5199999999999996
 31
-1.848852632902513
 12
2.9449999999999998
 22
4.6040415026872434
 32
-1.814041502687243
 13
2.7999999999999998
 23
4.7816295090390231
 33
-1.991629509039023
  0
3DFACE
  5
274
  8
0
 10
2.9449999999999998
 20
4.5199999999999996
 30
-1.848852632902513
 11
3.2349999999999999
 21
4.5199999999999996
 31
-1.848852632902513
 12
3.2349999999999999
 22
4.6040415026872434
 32
-1.814041502687243
 13
2.9449999999999998
 23
4.6040415026872434
 33
-1.814041502687243
  0
3DFACE
  5
275
  8
0
 10
3.2349999999999999
 20
4.5199999999999996
 30
-1.848852632902513
 11
3.3799999999999999
 21
4.5199999999999996
 31
-2.1000000000000001
 12
3.3799999999999999
 22
4.7816295090390231
 32
-1.991629509039023
 13
3.2349999999999999
 23
4.6040415026872434
 33
-1.814041502687243
  0
3DFACE
  5
276
  8
0
 10
3.3799999999999999
 20
4.5199999999999996
 30
-2.1000000000000001
 11
3.2349999999999999
 21
4.5199999999999996
 31
-2.3511473670974872
 12
3.2349999999999999
 22
4.9592175153908036
 32
-2.1692175153908031
 13
3.3799999999999999
 23
4.7816295090390231
 33
-1.991629509039023
  0
3DFACE
  5
277
  8
0
 10
3.2349999999999999
 20
4.5199999999999996
 30
-2.3511473670974872
 11
2.9449999999999998
 21
4.5199999999999996
 31
-2.3511473670974872
 12
2.9449999999999998
 22
4.9592175153908036
 32
-2.1692175153908031
 13
3.2349999999999999
 23
4.9592175153908036
 33
-2.1692175153908031
  0
3DFACE
  5
278
  8
0
 10
2.9449999999999998
 20
4.5199999999999996
 30
-2.3511473670974872
 11
2.7999999999999998
 21
4.5199999999999996
 31
-2.1000000000000001
 12
2.7999999999999998
 22
4.7816295090390231
 32
-1.991629509039023
 13
2.9449999999999998
 23
4.9592175153908036
 33
-2.1692175153908031
  0
3DFACE
  5
279
  8
0
 10
2.7999999999999998
 20
4.7816295090390231
 30
-1.991629509039023
 11
2.9449999999999998
 21
4.6040415026872434
 31
-1.814041502687243
 12
2.9449999999999998
 22
4.6388526329025144
 32
-1.7299999999999991
 13
2.7999999999999998
 23
4.8900000000000006
 33
-1.7299999999999991
  0
3DFACE
  5
27A
  8
0
 10
2.9449999999999998
 20
4.6040415026872434
 30
-1.814041502687243
 11
3.2349999999999999
 21
4.6040415026872434
 31
-1.814041502687243
 12
3.2349999999999999
 22
4.6388526329025144
 32
-1.7299999999999991
 13
2.9449999999999998
 23
4.6388526329025144
 33
-1.7299999999999991
  0
3DFACE
  5
27B
  8
0
 10
3.2349999999999999
 20
4.6040415026872434
 30
-1.814041502687243
 11
3.3799999999999999
 21
4.7816295090390231
 31
-1.991629509039023
 12
3.3799999999999999
 22
4.8900000000000006
 32
-1.7299999999999991
 13
3.2349999999999999
 23
4.6388526329025144
 33
-1.7299999999999991
  0
3DFACE
  5
27C
  8
0
 10
3.3799999999999999
 20
4.7816295090390231
 30
-1.991629509039023
 11
3.2349999999999999
 21
4.9592175153908036
 31
-2.1692175153908031
 12
3.2349999999999999
 22
5.1411473670974877
 32
-1.7299999999999991
 13
3.3799999999999999
 23
4.8900000000000006
 33
-1.7299999999999991
  0
3DFACE
  5
27D
  8
0
 10
3.2349999999999999
 20
4.9592175153908036
 30
-2.1692175153908031
 11
2.9449999999999998
 21
4.9592175153908036
 31
-2.1692175153908031
 12
2.9449999999999998
 22
5.1411473670974877
 32
-1.7299999999999991
 13
3.2349999999999999
 23
5.1411473670974877
 33
-1.7299999999999991
  0
3DFACE
  5
27E
  8
0
 10
2.9449999999999998
 20
4.9592175153908036
 30
-2.1692175153908031
 11
2.7999999999999998
 21
4.7816295090390231
 31
-1.991629509039023
 12
2.7999999999999998
 22
4.8900000000000006
 32
-1.7299999999999991
 13
2.9449999999999998
 23
5.1411473670974877
 33
-1.7299999999999991
  0
3DFACE
  5
27F
  8
0
 10
2.7999999999999998
 20
4.8900000000000006
 30
-1.7299999999999991
 11
2.9449999999999998
 21
4.6388526329025144
 31
-1.7299999999999991
 12
2.9449999999999998
 22
4.6040415026872408
 32
-1.645958497312757
 13
2.7999999999999998
 23
4.7816295090390222
 33
-1.468370490960976
  0
3DFACE
  5
280
  8
0
 10
2.9449999999999998
 20
4.6388526329025144
 30
-1.7299999999999991
 11
3.2349999999999999
 21
4.6388526329025144
 31
-1.7299999999999991
 12
3.2349999999999999
 22
4.6040415026872408
 32
-1.645958497312757
 13
2.9449999999999998
 23
4.6040415026872408
 33
-1.645958497312757
  0
3DFACE
  5
281
  8
0
 10
3.2349999999999999
 20
4.6388526329025144
 30
-1.7299999999999991
 11
3.3799999999999999
 21
4.8900000000000006
 31
-1.7299999999999991
 12
3.3799999999999999
 22
4.7816295090390222
 32
-1.468370490960976
 13
3.2349999999999999
 23
4.6040415026872408
 33
-1.645958497312757
  0
3DFACE
  5
282
  8
0
 10
3.3799999999999999
 20
4.8900000000000006
 30
-1.7299999999999991
 11
3.2349999999999999
 21
5.1411473670974877
 31
-1.7299999999999991
 12
3.2349999999999999
 22
4.9592175153908018
 32
-1.290782484609196
 13
3.3799999999999999
 23
4.7816295090390222
 33
-1.468370490960976
  0
3DFACE
  5
283
  8
0
 10
3.2349999999999999
 20
5.1411473670974877
 30
-1.7299999999999991
 11
2.9449999999999998
 21
5.1411473670974877
 31
-1.7299999999999991
 12
2.9449999999999998
 22
4.9592175153908018
 32
-1.290782484609196
 13
3.2349999999999999
 23
4.9592175153908018
 33
-1.290782484609196
  0
3DFACE
  5
284
  8
0
 10
2.9449999999999998
 20
5.1411473670974877
 30
-1.7299999999999991
 11
2.7999999999999998
 21
4.8900000000000006
 31
-1.7299999999999991
 12
2.7999999999999998
 22
4.7816295090390222
 32
-1.468370490960976
 13
2.9449999999999998
 23
4.9592175153908018
 33
-1.290782484609196
  0
3DFACE
  5
285
  8
0
 10
2.7999999999999998
 20
4.7816295090390222
 30
-1.468370490960976
 11
2.9449999999999998
 21
4.6040415026872408
 31
-1.645958497312757
 12
2.9449999999999998
 22
4.5200000000000014
 32
-1.6111473670974861
 13
2.7999999999999998
 23
4.5200000000000014
 33
-1.359999999999999
  0
3DFACE
  5
286
  8
0
 10
2.9449999999999998
 20
4.6040415026872408
 30
-1.645958497312757
 11
3.2349999999999999
 21
4.6040415026872408
 31
-1.645958497312757
 12
3.234999999999999
 22
4.5200000000000014
 32
-1.6111473670974861
 13
2.9449999999999998
 23
4.5200000000000014
 33
-1.6111473670974861
  0
3DFACE
  5
287
  8
0
 10
3.2349999999999999
 20
4.6040415026872408
 30
-1.645958497312757
 11
3.3799999999999999
 21
4.7816295090390222
 31
-1.468370490960976
 12
3.3799999999999999
 22
4.5200000000000014
 32
-1.359999999999999
 13
3.234999999999999
 23
4.5200000000000014
 33
-1.6111473670974861
  0
3DFACE
  5
288
  8
0
 10
3.3799999999999999
 20
4.7816295090390222
 30
-1.468370490960976
 11
3.2349999999999999
 21
4.9592175153908018
 31
-1.290782484609196
 12
3.2349999999999999
 22
4.5200000000000014
 32
-1.108852632902511
 13
3.3799999999999999
 23
4.5200000000000014
 33
-1.359999999999999
  0
3DFACE
  5
289
  8
0
 10
3.2349999999999999
 20
4.9592175153908018
 30
-1.290782484609196
 11
2.9449999999999998
 21
4.9592175153908018
 31
-1.290782484609196
 12
2.9449999999999998
 22
4.5200000000000014
 32
-1.108852632902511
 13
3.2349999999999999
 23
4.5200000000000014
 33
-1.108852632902511
  0
3DFACE
  5
28A
  8
0
 10
2.9449999999999998
 20
4.9592175153908018
 30
-1.290782484609196
 11
2.7999999999999998
 21
4.7816295090390222
 31
-1.468370490960976
 12
2.7999999999999998
 22
4.5200000000000014
 32
-1.359999999999999
 13
2.9449999999999998
 23
4.5200000000000014
 33
-1.108852632902511
  0
3DFACE
  5
28B
  8
0
 10
2.7999999999999998
 20
4.5200000000000014
 30
-1.359999999999999
 11
2.9449999999999998
 21
4.5200000000000014
 31
-1.6111473670974861
 12
2.9449999999999998
 22
4.4359584973127566
 32
-1.645958497312757
 13
2.7999999999999998
 23
4.258370490960977
 33
-1.468370490960976
  0
3DFACE
  5
28C
  8
0
 10
2.9449999999999998
 20
4.5200000000000014
 30
-1.6111473670974861
 11
3.234999999999999
 21
4.5200000000000014
 31
-1.6111473670974861
 12
3.234999999999999
 22
4.4359584973127566
 32
-1.645958497312757
 13
2.9449999999999998
 23
4.4359584973127566
 33
-1.645958497312757
  0
3DFACE
  5
28D
  8
0
 10
3.234999999999999
 20
4.5200000000000014
 30
-1.6111473670974861
 11
3.3799999999999999
 21
4.5200000000000014
 31
-1.359999999999999
 12
3.3799999999999999
 22
4.258370490960977
 32
-1.468370490960976
 13
3.234999999999999
 23
4.4359584973127566
 33
-1.645958497312757
  0
3DFACE
  5
28E
  8
0
 10
3.3799999999999999
 20
4.5200000000000014
 30
-1.359999999999999
 11
3.2349999999999999
 21
4.5200000000000014
 31
-1.108852632902511
 12
3.2349999999999999
 22
4.0807824846091956
 32
-1.290782484609196
 13
3.3799999999999999
 23
4.258370490960977
 33
-1.468370490960976
  0
3DFACE
  5
28F
  8
0
 10
3.2349999999999999
 20
4.5200000000000014
 30
-1.108852632902511
 11
2.9449999999999998
 21
4.5200000000000014
 31
-1.108852632902511
 12
2.9449999999999998
 22
4.0807824846091956
 32
-1.290782484609196
 13
3.2349999999999999
 23
4.0807824846091956
 33
-1.290782484609196
  0
3DFACE
  5
290
  8
0
 10
2.9449999999999998
 20
4.5200000000000014
 30
-1.108852632902511
 11
2.7999999999999998
 21
4.5200000000000014
 31
-1.359999999999999
 12
2.7999999999999998
 22
4.258370490960977
 32
-1.468370490960976
 13
2.9449999999999998
 23
4.0807824846091956
 33
-1.290782484609196
  0
3DFACE
  5
291
  8
0
 10
2.7999999999999998
 20
4.258370490960977
 30
-1.468370490960976
 11
2.9449999999999998
 21
4.4359584973127566
 31
-1.645958497312757
 12
2.9449999999999998
 22
4.4011473670974857
 32
-1.7299999999999991
 13
2.7999999999999998
 23
4.1499999999999986
 33
-1.7299999999999991
  0
3DFACE
  5
292
  8
0
 10
2.9449999999999998
 20
4.4359584973127566
 30
-1.645958497312757
 11
3.234999999999999
 21
4.4359584973127566
 31
-1.645958497312757
 12
3.2349999999999999
 22
4.4011473670974857
 32
-1.7299999999999991
 13
2.9449999999999998
 23
4.4011473670974857
 33
-1.7299999999999991
  0
3DFACE
  5
293
  8
0
 10
3.234999999999999
 20
4.4359584973127566
 30
-1.645958497312757
 11
3.3799999999999999
 21
4.258370490960977
 31
-1.468370490960976
 12
3.3799999999999999
 22
4.1499999999999986
 32
-1.7299999999999991
 13
3.2349999999999999
 23
4.4011473670974857
 33
-1.7299999999999991
  0
3DFACE
  5
294
  8
0
 10
3.3799999999999999
 20
4.258370490960977
 30
-1.468370490960976
 11
3.2349999999999999
 21
4.0807824846091956
 31
-1.290782484609196
 12
3.2349999999999999
 22
3.8988526329025119
 32
-1.7299999999999991
 13
3.3799999999999999
 23
4.1499999999999986
 33
-1.7299999999999991
  0
3DFACE
  5
295
  8
0
 10
3.2349999999999999
 20
4.0807824846091956
 30
-1.290782484609196
 11
2.9449999999999998
 21
4.0807824846091956
 31
-1.290782484609196
 12
2.9449999999999998
 22
3.8988526329025119
 32
-1.7299999999999991
 13
3.2349999999999999
 23
3.8988526329025119
 33
-1.7299999999999991
  0
3DFACE
  5
296
  8
0
 10
2.9449999999999998
 20
4.0807824846091956
 30
-1.290782484609196
 11
2.7999999999999998
 21
4.258370490960977
 31
-1.468370490960976
 12
2.7999999999999998
 22
4.1499999999999986
 32
-1.7299999999999991
 13
2.9449999999999998
 23
3.8988526329025119
 33
-1.7299999999999991
  0
3DFACE
  5
297
  8
0
 10
-3.234999999999999
 20
4.9592175153908036
 30
-2.1692175153908031
 11
-3.379999999999999
 21
4.7816295090390231
 31
-1.991629509039023
 12
-3.379999999999999
 22
4.8900000000000006
 32
-1.7299999999999991
 13
-3.2349999999999981
 23
5.1411473670974877
 33
-1.7299999999999991
  0
3DFACE
  5
298
  8
0
 10
-2.944999999999999
 20
4.9592175153908036
 30
-2.1692175153908031
 11
-3.234999999999999
 21
4.9592175153908036
 31
-2.1692175153908031
 12
-3.2349999999999981
 22
5.1411473670974877
 32
-1.7299999999999991
 13
-2.944999999999999
 23
5.1411473670974877
 33
-1.7299999999999991
  0
3DFACE
  5
299
  8
0
 10
-2.7999999999999989
 20
4.7816295090390231
 30
-1.991629509039023
 11
-2.944999999999999
 21
4.9592175153908036
 31
-2.1692175153908031
 12
-2.944999999999999
 22
5.1411473670974877
 32
-1.7299999999999991
 13
-2.7999999999999989
 23
4.8900000000000006
 33
-1.7299999999999991
  0
3DFACE
  5
29A
  8
0
 10
-2.944999999999999
 20
4.6040415026872434
 30
-1.814041502687243
 11
-2.7999999999999989
 21
4.7816295090390231
 31
-1.991629509039023
 12
-2.7999999999999989
 22
4.8900000000000006
 32
-1.7299999999999991
 13
-2.944999999999999
 23
4.6388526329025144
 33
-1.7299999999999991
  0
3DFACE
  5
29B
  8
0
 10
-3.234999999999999
 20
4.6040415026872434
 30
-1.814041502687243
 11
-2.944999999999999
 21
4.6040415026872434
 31
-1.814041502687243
 12
-2.944999999999999
 22
4.6388526329025144
 32
-1.7299999999999991
 13
-3.234999999999999
 23
4.6388526329025144
 33
-1.7299999999999991
  0
3DFACE
  5
29C
  8
0
 10
-3.379999999999999
 20
4.7816295090390231
 30
-1.991629509039023
 11
-3.234999999999999
 21
4.6040415026872434
 31
-1.814041502687243
 12
-3.234999999999999
 22
4.6388526329025144
 32
-1.7299999999999991
 13
-3.379999999999999
 23
4.8900000000000006
 33
-1.7299999999999991
  0
3DFACE
  5
29D
  8
0
 10
-3.234999999999999
 20
3.8988526329025119
 30
-1.7299999999999991
 11
-3.379999999999999
 21
4.1499999999999986
 31
-1.7299999999999991
 12
-3.379999999999999
 22
4.258370490960977
 32
-1.991629509039023
 13
-3.234999999999999
 23
4.0807824846091973
 33
-2.1692175153908031
  0
3DFACE
  5
29E
  8
0
 10
-2.944999999999999
 20
3.8988526329025119
 30
-1.7299999999999991
 11
-3.234999999999999
 21
3.8988526329025119
 31
-1.7299999999999991
 12
-3.234999999999999
 22
4.0807824846091973
 32
-2.1692175153908031
 13
-2.944999999999999
 23
4.0807824846091973
 33
-2.1692175153908031
  0
3DFACE
  5
29F
  8
0
 10
-2.7999999999999989
 20
4.1499999999999986
 30
-1.7299999999999991
 11
-2.944999999999999
 21
3.8988526329025119
 31
-1.7299999999999991
 12
-2.944999999999999
 22
4.0807824846091973
 32
-2.1692175153908031
 13
-2.7999999999999989
 23
4.258370490960977
 33
-1.991629509039023
  0
3DFACE
  5
2A0
  8
0
 10
-2.944999999999999
 20
4.4011473670974857
 30
-1.7299999999999991
 11
-2.7999999999999989
 21
4.1499999999999986
 31
-1.7299999999999991
 12
-2.7999999999999989
 22
4.258370490960977
 32
-1.991629509039023
 13
-2.944999999999999
 23
4.4359584973127566
 33
-1.814041502687243
  0
3DFACE
  5
2A1
  8
0
 10
-3.234999999999999
 20
4.4011473670974857
 30
-1.7299999999999991
 11
-2.944999999999999
 21
4.4011473670974857
 31
-1.7299999999999991
 12
-2.944999999999999
 22
4.4359584973127566
 32
-1.814041502687243
 13
-3.234999999999999
 23
4.4359584973127566
 33
-1.814041502687243
  0
3DFACE
  5
2A2
  8
0
 10
-3.379999999999999
 20
4.1499999999999986
 30
-1.7299999999999991
 11
-3.234999999999999
 21
4.4011473670974857
 31
-1.7299999999999991
 12
-3.234999999999999
 22
4.4359584973127566
 32
-1.814041502687243
 13
-3.379999999999999
 23
4.258370490960977
 33
-1.991629509039023
  0
3DFACE
  5
2A3
  8
0
 10
-3.234999999999999
 20
4.5199999999999996
 30
-2.3511473670974872
 11
-3.379999999999999
 21
4.5199999999999996
 31
-2.1000000000000001
 12
-3.379999999999999
 22
4.7816295090390231
 32
-1.991629509039023
 13
-3.234999999999999
 23
4.9592175153908036
 33
-2.1692175153908031
  0
3DFACE
  5
2A4
  8
0
 10
-2.944999999999999
 20
4.5199999999999996
 30
-2.3511473670974872
 11
-3.234999999999999
 21
4.5199999999999996
 31
-2.3511473670974872
 12
-3.234999999999999
 22
4.9592175153908036
 32
-2.1692175153908031
 13
-2.944999999999999
 23
4.9592175153908036
 33
-2.1692175153908031
  0
3DFACE
  5
2A5
  8
0
 10
-2.7999999999999989
 20
4.5199999999999996
 30
-2.1000000000000001
 11
-2.944999999999999
 21
4.5199999999999996
 31
-2.3511473670974872
 12
-2.944999999999999
 22
4.9592175153908036
 32
-2.1692175153908031
 13
-2.7999999999999989
 23
4.7816295090390231
 33
-1.991629509039023
  0
3DFACE
  5
2A6
  8
0
 10
-2.944999999999999
 20
4.5199999999999996
 30
-1.848852632902513
 11
-2.7999999999999989
 21
4.5199999999999996
 31
-2.1000000000000001
 12
-2.7999999999999989
 22
4.7816295090390231
 32
-1.991629509039023
 13
-2.944999999999999
 23
4.6040415026872434
 33
-1.814041502687243
  0
3DFACE
  5
2A7
  8
0
 10
-3.234999999999999
 20
4.5199999999999996
 30
-1.848852632902513
 11
-2.944999999999999
 21
4.5199999999999996
 31
-1.848852632902513
 12
-2.944999999999999
 22
4.6040415026872434
 32
-1.814041502687243
 13
-3.234999999999999
 23
4.6040415026872434
 33
-1.814041502687243
  0
3DFACE
  5
2A8
  8
0
 10
-3.379999999999999
 20
4.5199999999999996
 30
-2.1000000000000001
 11
-3.234999999999999
 21
4.5199999999999996
 31
-1.848852632902513
 12
-3.234999999999999
 22
4.6040415026872434
 32
-1.814041502687243
 13
-3.379999999999999
 23
4.7816295090390231
 33
-1.991629509039023
  0
3DFACE
  5
2A9
  8
0
 10
-3.234999999999999
 20
4.0807824846091973
 30
-2.1692175153908031
 11
-3.379999999999999
 21
4.258370490960977
 31
-1.991629509039023
 12
-3.379999999999999
 22
4.5199999999999996
 32
-2.1000000000000001
 13
-3.234999999999999
 23
4.5199999999999996
 33
-2.3511473670974872
  0
3DFACE
  5
2AA
  8
0
 10
-2.944999999999999
 20
4.0807824846091973
 30
-2.1692175153908031
 11
-3.234999999999999
 21
4.0807824846091973
 31
-2.1692175153908031
 12
-3.234999999999999
 22
4.5199999999999996
 32
-2.3511473670974872
 13
-2.944999999999999
 23
4.5199999999999996
 33
-2.3511473670974872
  0
3DFACE
  5
2AB
  8
0
 10
-2.7999999999999989
 20
4.258370490960977
 30
-1.991629509039023
 11
-2.944999999999999
 21
4.0807824846091973
 31
-2.1692175153908031
 12
-2.944999999999999
 22
4.5199999999999996
 32
-2.3511473670974872
 13
-2.7999999999999989
 23
4.5199999999999996
 33
-2.1000000000000001
  0
3DFACE
  5
2AC
  8
0
 10
-2.944999999999999
 20
4.4359584973127566
 30
-1.814041502687243
 11
-2.7999999999999989
 21
4.258370490960977
 31
-1.991629509039023
 12
-2.7999999999999989
 22
4.5199999999999996
 32
-2.1000000000000001
 13
-2.944999999999999
 23
4.5199999999999996
 33
-1.848852632902513
  0
3DFACE
  5
2AD
  8
0
 10
-3.234999999999999
 20
4.4359584973127566
 30
-1.814041502687243
 11
-2.944999999999999
 21
4.4359584973127566
 31
-1.814041502687243
 12
-2.944999999999999
 22
4.5199999999999996
 32
-1.848852632902513
 13
-3.234999999999999
 23
4.5199999999999996
 33
-1.848852632902513
  0
3DFACE
  5
2AE
  8
0
 10
-3.379999999999999
 20
4.258370490960977
 30
-1.991629509039023
 11
-3.234999999999999
 21
4.4359584973127566
 31
-1.814041502687243
 12
-3.234999999999999
 22
4.5199999999999996
 32
-1.848852632902513
 13
-3.379999999999999
 23
4.5199999999999996
 33
-2.1000000000000001
  0
3DFACE
  5
2AF
  8
0
 10
-3.234999999999999
 20
4.0807824846091956
 30
-1.290782484609196
 11
-3.379999999999999
 21
4.258370490960977
 31
-1.468370490960976
 12
-3.379999999999999
 22
4.1499999999999986
 32
-1.7299999999999991
 13
-3.234999999999999
 23
3.8988526329025119
 33
-1.7299999999999991
  0
3DFACE
  5
2B0
  8
0
 10
-2.944999999999999
 20
4.0807824846091956
 30
-1.290782484609196
 11
-3.234999999999999
 21
4.0807824846091956
 31
-1.290782484609196
 12
-3.234999999999999
 22
3.8988526329025119
 32
-1.7299999999999991
 13
-2.944999999999999
 23
3.8988526329025119
 33
-1.7299999999999991
  0
3DFACE
  5
2B1
  8
0
 10
-2.7999999999999989
 20
4.258370490960977
 30
-1.468370490960976
 11
-2.944999999999999
 21
4.0807824846091956
 31
-1.290782484609196
 12
-2.944999999999999
 22
3.8988526329025119
 32
-1.7299999999999991
 13
-2.7999999999999989
 23
4.1499999999999986
 33
-1.7299999999999991
  0
3DFACE
  5
2B2
  8
0
 10
-2.944999999999999
 20
4.4359584973127566
 30
-1.645958497312757
 11
-2.7999999999999989
 21
4.258370490960977
 31
-1.468370490960976
 12
-2.7999999999999989
 22
4.1499999999999986
 32
-1.7299999999999991
 13
-2.944999999999999
 23
4.4011473670974857
 33
-1.7299999999999991
  0
3DFACE
  5
2B3
  8
0
 10
-3.234999999999999
 20
4.4359584973127566
 30
-1.645958497312757
 11
-2.944999999999999
 21
4.4359584973127566
 31
-1.645958497312757
 12
-2.944999999999999
 22
4.4011473670974857
 32
-1.7299999999999991
 13
-3.234999999999999
 23
4.4011473670974857
 33
-1.7299999999999991
  0
3DFACE
  5
2B4
  8
0
 10
-3.379999999999999
 20
4.258370490960977
 30
-1.468370490960976
 11
-3.234999999999999
 21
4.4359584973127566
 31
-1.645958497312757
 12
-3.234999999999999
 22
4.4011473670974857
 32
-1.7299999999999991
 13
-3.379999999999999
 23
4.1499999999999986
 33
-1.7299999999999991
  0
3DFACE
  5
2B5
  8
0
 10
-3.234999999999999
 20
4.5200000000000014
 30
-1.108852632902511
 11
-3.379999999999999
 21
4.5200000000000014
 31
-1.359999999999999
 12
-3.379999999999999
 22
4.258370490960977
 32
-1.468370490960976
 13
-3.234999999999999
 23
4.0807824846091956
 33
-1.290782484609196
  0
3DFACE
  5
2B6
  8
0
 10
-2.944999999999999
 20
4.5200000000000014
 30
-1.108852632902511
 11
-3.234999999999999
 21
4.5200000000000014
 31
-1.108852632902511
 12
-3.234999999999999
 22
4.0807824846091956
 32
-1.290782484609196
 13
-2.944999999999999
 23
4.0807824846091956
 33
-1.290782484609196
  0
3DFACE
  5
2B7
  8
0
 10
-2.7999999999999989
 20
4.5200000000000014
 30
-1.359999999999999
 11
-2.944999999999999
 21
4.5200000000000014
 31
-1.108852632902511
 12
-2.944999999999999
 22
4.0807824846091956
 32
-1.290782484609196
 13
-2.7999999999999989
 23
4.258370490960977
 33
-1.468370490960976
  0
3DFACE
  5
2B8
  8
0
 10
-2.944999999999999
 20
4.5200000000000014
 30
-1.6111473670974861
 11
-2.7999999999999989
 21
4.5200000000000014
 31
-1.359999999999999
 12
-2.7999999999999989
 22
4.258370490960977
 32
-1.468370490960976
 13
-2.944999999999999
 23
4.4359584973127566
 33
-1.645958497312757
  0
3DFACE
  5
2B9
  8
0
 10
-3.234999999999999
 20
4.5200000000000014
 30
-1.6111473670974861
 11
-2.944999999999999
 21
4.5200000000000014
 31
-1.6111473670974861
 12
-2.944999999999999
 22
4.4359584973127566
 32
-1.645958497312757
 13
-3.234999999999999
 23
4.4359584973127566
 33
-1.645958497312757
  0
3DFACE
  5
2BA
  8
0
 10
-3.379999999999999
 20
4.5200000000000014
 30
-1.359999999999999
 11
-3.234999999999999
 21
4.5200000000000014
 31
-1.6111473670974861
 12
-3.234999999999999
 22
4.4359584973127566
 32
-1.645958497312757
 13
-3.379999999999999
 23
4.258370490960977
 33
-1.468370490960976
  0
3DFACE
  5
2BB
  8
0
 10
-3.234999999999999
 20
4.9592175153908018
 30
-1.290782484609196
 11
-3.379999999999999
 21
4.7816295090390222
 31
-1.468370490960976
 12
-3.379999999999999
 22
4.5200000000000014
 32
-1.359999999999999
 13
-3.234999999999999
 23
4.5200000000000014
 33
-1.108852632902511
  0
3DFACE
  5
2BC
  8
0
 10
-2.944999999999999
 20
4.9592175153908018
 30
-1.290782484609196
 11
-3.234999999999999
 21
4.9592175153908018
 31
-1.290782484609196
 12
-3.234999999999999
 22
4.5200000000000014
 32
-1.108852632902511
 13
-2.944999999999999
 23
4.5200000000000014
 33
-1.108852632902511
  0
3DFACE
  5
2BD
  8
0
 10
-2.7999999999999989
 20
4.7816295090390222
 30
-1.468370490960976
 11
-2.944999999999999
 21
4.9592175153908018
 31
-1.290782484609196
 12
-2.944999999999999
 22
4.5200000000000014
 32
-1.108852632902511
 13
-2.7999999999999989
 23
4.5200000000000014
 33
-1.359999999999999
  0
3DFACE
  5
2BE
  8
0
 10
-2.944999999999999
 20
4.6040415026872408
 30
-1.645958497312757
 11
-2.7999999999999989
 21
4.7816295090390222
 31
-1.468370490960976
 12
-2.7999999999999989
 22
4.5200000000000014
 32
-1.359999999999999
 13
-2.944999999999999
 23
4.5200000000000014
 33
-1.6111473670974861
  0
3DFACE
  5
2BF
  8
0
 10
-3.234999999999999
 20
4.6040415026872408
 30
-1.645958497312757
 11
-2.944999999999999
 21
4.6040415026872408
 31
-1.645958497312757
 12
-2.944999999999999
 22
4.5200000000000014
 32
-1.6111473670974861
 13
-3.234999999999999
 23
4.5200000000000014
 33
-1.6111473670974861
  0
3DFACE
  5
2C0
  8
0
 10
-3.379999999999999
 20
4.7816295090390222
 30
-1.468370490960976
 11
-3.234999999999999
 21
4.6040415026872408
 31
-1.645958497312757
 12
-3.234999999999999
 22
4.5200000000000014
 32
-1.6111473670974861
 13
-3.379999999999999
 23
4.5200000000000014
 33
-1.359999999999999
  0
3DFACE
  5
2C1
  8
0
 10
-3.2349999999999981
 20
5.1411473670974877
 30
-1.7299999999999991
 11
-3.379999999999999
 21
4.8900000000000006
 31
-1.7299999999999991
 12
-3.379999999999999
 22
4.7816295090390222
 32
-1.468370490960976
 13
-3.234999999999999
 23
4.9592175153908018
 33
-1.290782484609196
  0
3DFACE
  5
2C2
  8
0
 10
-2.944999999999999
 20
5.1411473670974877
 30
-1.7299999999999991
 11
-3.2349999999999981
 21
5.1411473670974877
 31
-1.7299999999999991
 12
-3.234999999999999
 22
4.9592175153908018
 32
-1.290782484609196
 13
-2.944999999999999
 23
4.9592175153908018
 33
-1.290782484609196
  0
3DFACE
  5
2C3
  8
0
 10
-2.7999999999999989
 20
4.8900000000000006
 30
-1.7299999999999991
 11
-2.944999999999999
 21
5.1411473670974877
 31
-1.7299999999999991
 12
-2.944999999999999
 22
4.9592175153908018
 32
-1.290782484609196
 13
-2.7999999999999989
 23
4.7816295090390222
 33
-1.468370490960976
  0
3DFACE
  5
2C4
  8
0
 10
-2.944999999999999
 20
4.6388526329025144
 30
-1.7299999999999991
 11
-2.7999999999999989
 21
4.8900000000000006
 31
-1.7299999999999991
 12
-2.7999999999999989
 22
4.7816295090390222
 32
-1.468370490960976
 13
-2.944999999999999
 23
4.6040415026872408
 33
-1.645958497312757
  0
3DFACE
  5
2C5
  8
0
 10
-3.234999999999999
 20
4.6388526329025144
 30
-1.7299999999999991
 11
-2.944999999999999
 21
4.6388526329025144
 31
-1.7299999999999991
 12
-2.944999999999999
 22
4.6040415026872408
 32
-1.645958497312757
 13
-3.234999999999999
 23
4.6040415026872408
 33
-1.645958497312757
  0
3DFACE
  5
2C6
  8
0
 10
-3.379999999999999
 20
4.8900000000000006
 30
-1.7299999999999991
 11
-3.234999999999999
 21
4.6388526329025144
 31
-1.7299999999999991
 12
-3.234999999999999
 22
4.6040415026872408
 32
-1.645958497312757
 13
-3.379999999999999
 23
4.7816295090390222
 33
-1.468370490960976
  0
3DFACE
  5
2CA
  8
0
 10
-0.4700000000000001
 20
7.2000000000000011
 30
1.6899999999999991
 11
-0.4700000000000001
 21
5.1900000000000013
 31
1.6899999999999991
 12
-0.28
 22
5.1900000000000013
 32
2.129999999999999
 13
-0.28
 23
7.2000000000000011
 33
2.129999999999999
  0
3DFACE
  5
2CB
  8
0
 10
0.28
 20
5.1900000000000013
 30
2.129999999999999
 11
0.4700000000000001
 21
5.1900000000000013
 31
1.6899999999999991
 12
0.4700000000000001
 22
7.2000000000000011
 32
1.6899999999999991
 13
0.28
 23
7.2000000000000011
 33
2.129999999999999
  0
3DFACE
  5
2CF
  8
0
 10
0.28
 20
7.2000000000000002
 30
2.129999999999999
 11
0.15
 21
7.2000000000000002
 31
2.3100000000000001
 12
0.15
 22
5.1900000000000013
 32
2.2799999999999998
 13
0.28
 23
5.1900000000000013
 33
2.129999999999999
  0
3DFACE
  5
2D0
  8
0
 10
-0.15
 20
5.1900000000000013
 30
2.2799999999999998
 11
-0.15
 21
7.2000000000000002
 31
2.3100000000000001
 12
-0.28
 22
7.2000000000000002
 32
2.129999999999999
 13
-0.28
 23
5.1900000000000013
 33
2.129999999999999
  0
3DFACE
  5
2D4
  8
0
 10
0.15
 20
5.1900000000000013
 30
2.2799999999999998
 11
0.15
 21
7.2000000000000002
 31
2.3100000000000001
 12
-0.15
 22
7.2000000000000002
 32
2.3100000000000001
 13
-0.15
 23
5.1900000000000013
 33
2.2799999999999998
  0
3DFACE
  5
2D7
  8
0
 10
0.15
 20
7.4299999999999988
 30
2.129999999999999
 11
0.15
 21
7.3099999999999996
 31
2.27
 12
0.15
 22
7.2000000000000011
 32
2.3100000000000001
 13
0.28
 23
7.2000000000000011
 33
2.129999999999999
  0
3DFACE
  5
2D8
  8
0
 10
-0.15
 20
7.2000000000000011
 30
2.3100000000000001
 11
-0.15
 21
7.3099999999999996
 31
2.27
 12
-0.15
 22
7.4299999999999988
 32
2.129999999999999
 13
-0.28
 23
7.2000000000000011
 33
2.129999999999999
  0
3DFACE
  5
2DA
  8
0
 10
0.28
 20
7.2000000000000011
 30
2.129999999999999
 11
0.4700000000000001
 21
7.2000000000000011
 31
1.6899999999999991
 12
0.15
 22
7.6100000000000003
 32
1.6200000000000001
 13
0.15
 23
7.4299999999999988
 33
2.129999999999999
  0
3DFACE
  5
2DB
  8
0
 10
-0.15
 20
7.6100000000000003
 30
1.6200000000000001
 11
-0.4700000000000001
 21
7.2000000000000011
 31
1.6899999999999991
 12
-0.28
 22
7.2000000000000011
 32
2.129999999999999
 13
-0.15
 23
7.4299999999999988
 33
2.129999999999999
  0
3DFACE
  5
2DD
  8
0
 10
-0.15
 20
7.4299999999999988
 30
2.129999999999999
 11
-0.15
 21
7.3099999999999996
 31
2.27
 12
0.15
 22
7.3099999999999996
 32
2.27
 13
0.15
 23
7.4299999999999988
 33
2.129999999999999
  0
3DFACE
  5
2DF
  8
0
 10
0.15
 20
7.2000000000000011
 30
2.3100000000000001
 11
0.15
 21
7.3099999999999996
 31
2.27
 12
-0.15
 22
7.3099999999999996
 32
2.27
 13
-0.15
 23
7.2000000000000011
 33
2.3100000000000001
  0
3DFACE
  5
2E1
  8
0
 10
0.15
 20
7.4299999999999988
 30
2.129999999999999
 11
0.15
 21
7.6100000000000003
 31
1.6200000000000001
 12
-0.15
 22
7.6100000000000003
 32
1.6200000000000001
 13
-0.15
 23
7.4299999999999988
 33
2.129999999999999
  0
3DFACE
  5
2E6
  8
0
 10
-0.17
 20
8.1600000000000001
 30
1.27
 11
-0.4900000000000001
 21
7.2000000000000011
 31
1.4699999999999991
 12
-0.4700000000000001
 22
7.2000000000000011
 32
1.6899999999999991
 13
-0.15
 23
8.1199999999999992
 33
1.53
  0
3DFACE
  5
2E7
  8
0
 10
0.4700000000000001
 20
7.2000000000000011
 30
1.6899999999999991
 11
0.4900000000000001
 21
7.2000000000000011
 31
1.4699999999999991
 12
0.17
 22
8.1600000000000001
 32
1.27
 13
0.15
 23
8.1199999999999992
 33
1.53
  0
3DFACE
  5
2E9
  8
0
 10
0.15
 20
8.1199999999999992
 30
1.53
 11
0.17
 21
8.1600000000000001
 31
1.27
 12
-0.17
 22
8.1600000000000001
 32
1.27
 13
-0.15
 23
8.1199999999999992
 33
1.53
  0
3DFACE
  5
2EC
  8
0
 10
-0.4700000000000001
 20
6.1600000000000001
 30
1.6899999999999991
 11
-0.5300000000000001
 21
6.1600000000000001
 31
1.6900000000000011
 12
0.5300000000000013
 22
6.1599999999999984
 32
1.6900000000000011
 13
0.4700000000000001
 23
6.1600000000000001
 33
1.6899999999999991
  0
3DFACE
  5
2ED
  8
0
 10
-0.4900000000000001
 20
7.2000000000000011
 30
1.4699999999999991
 11
-0.5300000000000001
 21
6.1600000000000001
 31
1.6900000000000011
 12
-0.4700000000000001
 22
6.1600000000000001
 32
1.6899999999999991
 13
-0.4700000000000001
 23
7.2000000000000011
 33
1.6899999999999991
  0
3DFACE
  5
2EE
  8
0
 10
0.4700000000000001
 20
6.1600000000000001
 30
1.6899999999999991
 11
0.5300000000000013
 21
6.1599999999999984
 31
1.6900000000000011
 12
0.4900000000000001
 22
7.2000000000000011
 32
1.4699999999999991
 13
0.47
 23
7.2000000000000011
 33
1.6899999999999991
  0
3DFACE
  5
2F6
  8
0
 10
0.13
 20
3.8900000000000001
 30
1.8600000000000001
 11
0.27
 21
3.8900000000000001
 31
1.669999999999999
 12
0.4700000000000001
 22
5.1900000000000013
 32
1.6899999999999991
 13
0.28
 23
5.1900000000000013
 33
2.129999999999999
  0
3DFACE
  5
2F7
  8
0
 10
-0.4700000000000001
 20
5.1900000000000013
 30
1.6899999999999991
 11
-0.27
 21
3.8900000000000001
 31
1.669999999999999
 12
-0.13
 22
3.8900000000000001
 32
1.8600000000000001
 13
-0.28
 23
5.1900000000000013
 33
2.129999999999999
  0
3DFACE
  5
2F8
  8
0
 10
0.05
 20
3.8900000000000001
 30
1.99
 11
0.15
 21
5.1900000000000004
 31
2.2799999999999998
 12
-0.15
 22
5.1900000000000004
 32
2.2799999999999998
 13
-0.05
 23
3.8900000000000001
 33
1.99
  0
3DFACE
  5
2F9
  8
0
 10
0.28
 20
5.1900000000000013
 30
2.129999999999999
 11
0.15
 21
5.1900000000000004
 31
2.2799999999999998
 12
0.05
 22
3.8900000000000001
 32
1.99
 13
0.13
 23
3.8900000000000001
 33
1.8600000000000001
  0
3DFACE
  5
2FA
  8
0
 10
-0.05
 20
3.8900000000000001
 30
1.99
 11
-0.15
 21
5.1900000000000004
 31
2.2799999999999998
 12
-0.28
 22
5.1900000000000013
 32
2.129999999999999
 13
-0.13
 23
3.8900000000000001
 33
1.8600000000000001
  0
3DFACE
  5
304
  8
0
 10
-0.13
 20
3.8900000000000001
 30
1.8600000000000001
 11
-0.04
 21
3.6600000000000001
 31
1.669999999999999
 12
0.04
 22
3.6600000000000001
 32
1.669999999999999
 13
0.13
 23
3.8900000000000001
 33
1.8600000000000001
  0
3DFACE
  5
305
  8
0
 10
-0.04
 20
3.6600000000000001
 30
1.669999999999999
 11
-0.13
 21
3.8900000000000001
 31
1.8600000000000001
 12
0.13
 22
3.8900000000000001
 32
1.8600000000000001
 13
0.04
 23
3.6600000000000001
 33
1.669999999999999
  0
3DFACE
  5
306
  8
0
 10
0.13
 20
3.8900000000000001
 30
1.8600000000000001
 11
0.05
 21
3.8900000000000001
 31
1.99
 12
0.02
 22
3.6600000000000001
 32
1.669999999999999
 13
0.04
 23
3.6600000000000001
 33
1.669999999999999
  0
3DFACE
  5
307
  8
0
 10
0.02
 20
3.6600000000000001
 30
1.669999999999999
 11
0.05
 21
3.8900000000000001
 31
1.99
 12
-0.05
 22
3.8900000000000001
 32
1.99
 13
-0.02
 23
3.6600000000000001
 33
1.669999999999999
  0
3DFACE
  5
308
  8
0
 10
-0.27
 20
3.8900000000000001
 30
1.669999999999999
 11
-0.06
 21
3.6600000000000001
 31
1.669999999999999
 12
-0.04
 22
3.6600000000000001
 32
1.669999999999999
 13
-0.13
 23
3.8900000000000001
 33
1.8600000000000001
  0
3DFACE
  5
309
  8
0
 10
-0.02
 20
3.6600000000000001
 30
1.669999999999999
 11
-0.05
 21
3.8900000000000001
 31
1.99
 12
-0.13
 22
3.8900000000000001
 32
1.8600000000000001
 13
-0.04
 23
3.6600000000000001
 33
1.669999999999999
  0
3DFACE
  5
30A
  8
0
 10
0.04
 20
3.6600000000000001
 30
1.669999999999999
 11
0.06
 21
3.6600000000000001
 31
1.669999999999999
 12
0.27
 22
3.8900000000000001
 32
1.669999999999999
 13
0.13
 23
3.8900000000000001
 33
1.8600000000000001
  0
3DFACE
  5
312
  8
0
 10
-0.15
 20
8.1199999999999992
 30
1.53
 11
-0.4700000000000001
 21
7.2000000000000011
 31
1.6899999999999991
 12
-0.15
 22
7.6100000000000003
 32
1.6200000000000001
 13
-0.15
 23
8.1199999999999992
 33
1.53
  0
3DFACE
  5
313
  8
0
 10
0.1499999999999999
 20
7.6100000000000003
 30
1.6200000000000001
 11
0.47
 21
7.2000000000000011
 31
1.6899999999999991
 12
0.15
 22
8.1199999999999992
 32
1.53
 13
0.1499999999999999
 23
7.6100000000000003
 33
1.6200000000000001
  0
3DFACE
  5
314
  8
0
 10
0.15
 20
7.6100000000000003
 30
1.6200000000000001
 11
0.15
 21
8.1199999999999992
 31
1.53
 12
-0.15
 22
8.1199999999999992
 32
1.53
 13
-0.15
 23
7.6100000000000003
 33
1.6200000000000001
  0
3DFACE
  5
3C1
  8
0
 10
1.1899999999999991
 20
8.1099999999999994
 30
-1.7199999999999991
 11
1.1899999999999991
 21
3.2299999999999991
 31
-1.7199999999999991
 12
1.589999999999999
 22
3.2299999999999991
 32
-1.7199999999999991
 13
1.589999999999999
 23
8.1099999999999994
 33
-1.7199999999999991
  0
3DFACE
  5
3C2
  8
0
 10
1.589999999999999
 20
8.1099999999999994
 30
-1.7199999999999991
 11
1.589999999999999
 21
3.2299999999999991
 31
-1.7199999999999991
 12
1.1899999999999991
 22
3.2299999999999991
 32
-1.7199999999999991
 13
1.1899999999999991
 23
8.1099999999999994
 33
-1.7199999999999991
  0
3DFACE
  5
3C3
  8
0
 10
1.319999999999999
 20
8.6500000000000004
 30
-1.5900000000000001
 11
1.1899999999999991
 21
8.1099999999999994
 31
-1.7199999999999991
 12
1.589999999999999
 22
8.1099999999999994
 32
-1.7199999999999991
 13
1.4599999999999991
 23
8.6500000000000004
 33
-1.5900000000000001
  0
3DFACE
  5
3C4
  8
0
 10
1.4599999999999991
 20
8.6500000000000004
 30
-1.5900000000000001
 11
1.589999999999999
 21
8.1099999999999994
 31
-1.7199999999999991
 12
1.1899999999999991
 22
8.1099999999999994
 32
-1.7199999999999991
 13
1.319999999999999
 23
8.6500000000000004
 33
-1.5900000000000001
  0
3DFACE
  5
3C5
  8
0
 10
1.319999999999999
 20
2.0600000000000001
 30
-1.5900000000000001
 11
1.1899999999999991
 21
3.23
 31
-1.7199999999999991
 12
1.589999999999999
 22
3.23
 32
-1.7199999999999991
 13
1.4599999999999991
 23
2.0600000000000001
 33
-1.5900000000000001
  0
3DFACE
  5
3C6
  8
0
 10
1.4599999999999991
 20
2.0600000000000001
 30
-1.5900000000000001
 11
1.589999999999999
 21
3.23
 31
-1.7199999999999991
 12
1.1899999999999991
 22
3.23
 32
-1.7199999999999991
 13
1.319999999999999
 23
2.0600000000000001
 33
-1.5900000000000001
  0
3DFACE
  5
3C7
  8
0
 10
-1.1899999999999999
 20
8.1099999999999994
 30
-1.7199999999999991
 11
-1.1899999999999999
 21
3.2299999999999991
 31
-1.7199999999999991
 12
-1.5900000000000001
 22
3.2299999999999991
 32
-1.7199999999999991
 13
-1.5900000000000001
 23
8.1099999999999994
 33
-1.7199999999999991
  0
3DFACE
  5
3C8
  8
0
 10
-1.5900000000000001
 20
8.1099999999999994
 30
-1.7199999999999991
 11
-1.5900000000000001
 21
3.2299999999999991
 31
-1.7199999999999991
 12
-1.1899999999999999
 22
3.2299999999999991
 32
-1.7199999999999991
 13
-1.1899999999999999
 23
8.1099999999999994
 33
-1.7199999999999991
  0
3DFACE
  5
3C9
  8
0
 10
-1.46
 20
2.0600000000000001
 30
-1.5900000000000001
 11
-1.5900000000000001
 21
3.23
 31
-1.7199999999999991
 12
-1.1899999999999999
 22
3.23
 32
-1.7199999999999991
 13
-1.3200000000000001
 23
2.0600000000000001
 33
-1.5900000000000001
  0
3DFACE
  5
3CA
  8
0
 10
-1.3200000000000001
 20
2.0600000000000001
 30
-1.5900000000000001
 11
-1.1899999999999999
 21
3.23
 31
-1.7199999999999991
 12
-1.5900000000000001
 22
3.23
 32
-1.7199999999999991
 13
-1.46
 23
2.0600000000000001
 33
-1.5900000000000001
  0
3DFACE
  5
3CB
  8
0
 10
-1.46
 20
8.6500000000000004
 30
-1.5900000000000001
 11
-1.5900000000000001
 21
8.1099999999999994
 31
-1.7199999999999991
 12
-1.1899999999999999
 22
8.1099999999999994
 32
-1.7199999999999991
 13
-1.3200000000000001
 23
8.6500000000000004
 33
-1.5900000000000001
  0
3DFACE
  5
3CC
  8
0
 10
-1.3200000000000001
 20
8.6500000000000004
 30
-1.5900000000000001
 11
-1.1899999999999999
 21
8.1099999999999994
 31
-1.7199999999999991
 12
-1.5900000000000001
 22
8.1099999999999994
 32
-1.7199999999999991
 13
-1.46
 23
8.6500000000000004
 33
-1.5900000000000001
  0
3DFACE
  5
3D3
  8
0
 10
0.98
 20
8.1999999999999993
 30
1.05
 11
0.98
 21
6.1600000000000001
 31
1.05
 12
0.5700000000000001
 22
6.1600000000000001
 32
1.2199999999999991
 13
0.5700000000000001
 23
8.1600000000000001
 33
1.2199999999999991
  0
3DFACE
  5
3D4
  8
0
 10
1.1999999999999991
 20
8.2200000000000006
 30
0.9
 11
1.1999999999999991
 21
6.1600000000000001
 31
0.9
 12
0.98
 22
6.1600000000000001
 32
1.05
 13
0.98
 23
8.1999999999999993
 33
1.05
  0
3DFACE
  5
3D5
  8
0
 10
1.3200000000000001
 20
8.2400000000000002
 30
0.76
 11
1.3200000000000001
 21
6.1600000000000001
 31
0.76
 12
1.1999999999999991
 22
6.1600000000000001
 32
0.9
 13
1.1999999999999991
 23
8.2200000000000006
 33
0.9
  0
3DFACE
  5
3D6
  8
0
 10
1.3200000000000001
 20
8.5999999999999996
 30
-1.419999999999999
 11
1.3200000000000001
 21
6.1600000000000001
 31
-1.419999999999999
 12
1.3200000000000001
 22
6.1600000000000001
 32
0.76
 13
1.3200000000000001
 23
8.2400000000000002
 33
0.76
  0
3DFACE
  5
3D7
  8
0
 10
-1.3200000000000001
 20
8.5999999999999996
 30
-1.419999999999999
 11
-1.3200000000000001
 21
6.1600000000000001
 31
-1.419999999999999
 12
1.3200000000000001
 22
6.1600000000000001
 32
-1.419999999999999
 13
1.3200000000000001
 23
8.5999999999999996
 33
-1.419999999999999
  0
3DFACE
  5
3DC
  8
0
 10
0.5700000000000001
 20
8.1600000000000001
 30
1.2199999999999991
 11
0.5700000000000001
 21
6.1600000000000001
 31
1.2199999999999991
 12
-0.5700000000000001
 22
6.1600000000000001
 32
1.2199999999999991
 13
-0.5700000000000001
 23
8.1600000000000001
 33
1.2199999999999991
  0
3DFACE
  5
3DD
  8
0
 10
-1.3200000000000001
 20
8.2400000000000002
 30
0.7599999999999998
 11
-1.3200000000000001
 21
6.1600000000000001
 31
0.7599999999999998
 12
-1.3200000000000001
 22
6.1600000000000001
 32
-1.419999999999999
 13
-1.3200000000000001
 23
8.5999999999999996
 33
-1.419999999999999
  0
3DFACE
  5
3DE
  8
0
 10
-1.1999999999999991
 20
8.2200000000000006
 30
0.9
 11
-1.1999999999999991
 21
6.1600000000000001
 31
0.9
 12
-1.3200000000000001
 22
6.1600000000000001
 32
0.76
 13
-1.3200000000000001
 23
8.2400000000000002
 33
0.76
  0
3DFACE
  5
3DF
  8
0
 10
-0.98
 20
8.1999999999999993
 30
1.05
 11
-0.98
 21
6.1600000000000001
 31
1.05
 12
-1.1999999999999991
 22
6.1600000000000001
 32
0.9
 13
-1.1999999999999991
 23
8.2200000000000006
 33
0.9
  0
3DFACE
  5
3E0
  8
0
 10
-0.5700000000000001
 20
8.1600000000000001
 30
1.2199999999999991
 11
-0.5700000000000001
 21
6.1600000000000001
 31
1.2199999999999991
 12
-0.98
 22
6.1600000000000001
 32
1.05
 13
-0.98
 23
8.1999999999999993
 33
1.05
  0
3DFACE
  5
3E1
  8
0
 10
-0.4299999999999997
 20
8.1600000000000001
 30
1.2699999999999989
 11
0.4300000000000001
 21
8.1599999999999984
 31
1.2699999999999989
 12
0.5700000000000001
 22
8.1600000000000001
 32
1.2199999999999991
 13
-0.5700000000000001
 23
8.1600000000000001
 33
1.2199999999999991
  0
3DFACE
  5
3E2
  8
0
 10
-0.7699999999999994
 20
8.1600000000000001
 30
1.219999999999998
 11
-0.4299999999999997
 21
8.1600000000000001
 31
1.2699999999999989
 12
-0.5700000000000001
 22
8.1600000000000001
 32
1.2199999999999991
 13
-0.7699999999999994
 23
8.1600000000000001
 33
1.219999999999998
  0
3DFACE
  5
3E3
  8
0
 10
-0.5700000000000001
 20
8.1600000000000001
 30
1.2199999999999991
 11
-0.98
 21
8.1999999999999993
 31
1.05
 12
-1.179999999999999
 22
8.1999999999999993
 32
1.05
 13
-0.7699999999999994
 23
8.1600000000000001
 33
1.219999999999998
  0
3DFACE
  5
3E4
  8
0
 10
-0.98
 20
8.1999999999999993
 30
1.05
 11
-1.1999999999999991
 21
8.2200000000000006
 31
0.9
 12
-1.339999999999999
 22
8.2200000000000006
 32
0.8999999999999985
 13
-1.179999999999999
 23
8.1999999999999993
 33
1.049999999999998
  0
3DFACE
  5
3E5
  8
0
 10
-1.1999999999999991
 20
8.2200000000000006
 30
0.9
 11
-1.3200000000000001
 21
8.2400000000000002
 31
0.7599999999999998
 12
-1.429999999999999
 22
8.2400000000000002
 32
0.7600000000000016
 13
-1.339999999999999
 23
8.2200000000000006
 33
0.8999999999999991
  0
3DFACE
  5
3E6
  8
0
 10
-1.319999999999997
 20
8.2400000000000002
 30
0.7600000000000026
 11
-1.3200000000000001
 21
8.2713761467889917
 31
0.5700000000000001
 12
-1.48
 22
8.2699999999999996
 32
0.5700000000000003
 13
-1.429999999999999
 23
8.2400000000000002
 33
0.760000000000002
  0
3DFACE
  5
3E7
  8
0
 10
-1.3200000000000001
 20
8.2713761467889917
 30
0.5700000000000001
 11
-1.3200000000000001
 21
8.5999999999999996
 31
-1.419999999999999
 12
-1.48
 22
8.6099999999999994
 32
-1.4499999999999991
 13
-1.48
 23
8.2699999999999996
 33
0.5700000000000003
  0
3DFACE
  5
3E8
  8
0
 10
-1.3200000000000001
 20
8.5999999999999748
 30
-1.4199999999998461
 11
1.3200000000000001
 21
8.5999999999999996
 31
-1.419999999999999
 12
1.48
 22
8.6099999999999994
 32
-1.4499999999999991
 13
-1.48
 23
8.6099999999999994
 33
-1.449999999999998
  0
3DFACE
  5
3E9
  8
0
 10
0.5700000000000001
 20
8.1600000000000001
 30
1.2199999999999991
 11
0.4300000000000001
 21
8.1599999999999984
 31
1.27
 12
0.7699999999999994
 22
8.1600000000000001
 32
1.2200000000000011
 13
0.5700000000000001
 23
8.1600000000000001
 33
1.2199999999999991
  0
3DFACE
  5
3EA
  8
0
 10
0.7699999999999994
 20
8.1600000000000001
 30
1.2200000000000011
 11
1.179999999999999
 21
8.1999999999999993
 31
1.05
 12
0.9799999999999977
 22
8.1999999999999993
 32
1.05
 13
0.5700000000000001
 23
8.1600000000000001
 33
1.2199999999999991
  0
3DFACE
  5
3EC
  8
0
 10
1.179999999999999
 20
8.1999999999999993
 30
1.0500000000000009
 11
1.339999999999999
 21
8.2200000000000006
 31
0.8999999999999985
 12
1.1999999999999991
 22
8.2200000000000006
 32
0.9
 13
0.98
 23
8.1999999999999993
 33
1.05
  0
3DFACE
  5
3ED
  8
0
 10
1.339999999999999
 20
8.2200000000000006
 30
0.8999999999999985
 11
1.429999999999999
 21
8.2400000000000002
 31
0.7600000000000016
 12
1.3200000000000001
 22
8.2400000000000002
 32
0.76
 13
1.1999999999999991
 23
8.2200000000000006
 33
0.9
  0
3DFACE
  5
3EE
  8
0
 10
1.429999999999999
 20
8.2400000000000002
 30
0.7600000000000016
 11
1.48
 21
8.2699999999999996
 31
0.5700000000000008
 12
1.3200000000000001
 22
8.2713761467889917
 32
0.5700000000000001
 13
1.319999999999997
 23
8.2400000000000002
 33
0.7600000000000027
  0
3DFACE
  5
3EF
  8
0
 10
1.48
 20
8.2699999999999996
 30
0.5700000000000008
 11
1.48
 21
8.6099999999999994
 31
-1.4499999999999991
 12
1.3199999999999981
 22
8.5999999999999996
 32
-1.419999999999999
 13
1.3200000000000001
 23
8.2713761467889917
 33
0.5700000000000001
  0
VIEWPORT
  5
2E
 67
     1
  8
0
 10
144.7270812988281
 20
101.2295806407928
 30
0.0
 40
391.13550988316581
 41
222.15178063964839
 68
     2
 69
     1
1001
ACAD
1000
MVIEW
1002
{
1070
    16
1010
0.0
1020
0.0
1030
0.0
1010
0.0
1020
0.0
1030
1.0
1040
0.0
1040
222.15178063964839
1040
144.7270812988281
1040
101.2295806407928
1040
50.0
1040
0.0
1040
0.0
1070
     0
1070
   100
1070
     1
1070
     1
1070
     0
1070
     0
1070
     0
1070
     0
1040
0.0
1040
0.0
1040
0.0
1040
10.0
1040
10.0
1040
10.0
1040
10.0
1070
     0
1002
{
1002
}
1002
}
  0
VIEWPORT
  5
30
 67
     1
  8
0
 10
139.22375631332389
 20
100.8062499761581
 30
0.0
 40
222.75801010131829
 41
161.289999961853
 68
     1
 69
     2
1001
ACAD
1000
MVIEW
1002
{
1070
    16
1010
0.0
1020
0.0
1030
0.0
1010
0.0
1020
0.0
1030
1.0
1040
0.0
1040
307.49010134148989
1040
210.0
1040
148.5
1040
50.0
1040
0.0
1040
0.0
1070
     0
1070
   100
1070
     1
1070
     3
1070
     0
1070
     1
1070
     0
1070
     0
1040
0.0
1040
0.0
1040
0.0
1040
10.0
1040
10.0
1040
10.0
1040
10.0
1070
     0
1002
{
1002
}
1002
}
  0
ENDSEC
  0
EOF
