  0
SECTION
  2
HEADER
  9
$ACADVER
  1
AC1009
  9
$INSBASE
 10
0.0
 20
0.0
 30
0.0
  9
$EXTMIN
 10
-1.289999999999998
 20
-7.1799999999999988
 30
-4.8600000000000003
  9
$EXTMAX
 10
1.29
 20
15.849999999999991
 30
7.5778531429671467
  9
$LIMMIN
 10
0.0
 20
0.0
  9
$LIMMAX
 10
420.0
 20
297.0
  9
$ORTHOMODE
 70
     1
  9
$REGENMODE
 70
     1
  9
$FILLMODE
 70
     1
  9
$QTEXTMODE
 70
     0
  9
$MIRRTEXT
 70
     1
  9
$DRAGMODE
 70
     2
  9
$LTSCALE
 40
1.0
  9
$OSMODE
 70
    35
  9
$ATTMODE
 70
     1
  9
$TEXTSIZE
 40
2.5
  9
$TRACEWID
 40
1.0
  9
$TEXTSTYLE
  7
STANDARD
  9
$CLAYER
  8
CARGO_BAY
  9
$CELTYPE
  6
BYLAYER
  9
$CECOLOR
 62
   256
  9
$DIMSCALE
 40
1.0
  9
$DIMASZ
 40
2.5
  9
$DIMEXO
 40
0.625
  9
$DIMDLI
 40
3.75
  9
$DIMRND
 40
0.0
  9
$DIMDLE
 40
0.0
  9
$DIMEXE
 40
1.25
  9
$DIMTP
 40
0.0
  9
$DIMTM
 40
0.0
  9
$DIMTXT
 40
2.5
  9
$DIMCEN
 40
2.5
  9
$DIMTSZ
 40
0.0
  9
$DIMTOL
 70
     0
  9
$DIMLIM
 70
     0
  9
$DIMTIH
 70
     0
  9
$DIMTOH
 70
     0
  9
$DIMSE1
 70
     0
  9
$DIMSE2
 70
     0
  9
$DIMTAD
 70
     1
  9
$DIMZIN
 70
     8
  9
$DIMBLK
  1

  9
$DIMASO
 70
     1
  9
$DIMSHO
 70
     1
  9
$DIMPOST
  1

  9
$DIMAPOST
  1

  9
$DIMALT
 70
     0
  9
$DIMALTD
 70
     3
  9
$DIMALTF
 40
0.03937007874016
  9
$DIMLFAC
 40
1.0
  9
$DIMTOFL
 70
     1
  9
$DIMTVP
 40
0.0
  9
$DIMTIX
 70
     0
  9
$DIMSOXD
 70
     0
  9
$DIMSAH
 70
     0
  9
$DIMBLK1
  1

  9
$DIMBLK2
  1

  9
$DIMSTYLE
  2
ISO-25
  9
$DIMCLRD
 70
     0
  9
$DIMCLRE
 70
     0
  9
$DIMCLRT
 70
     0
  9
$DIMTFAC
 40
1.0
  9
$DIMGAP
 40
0.625
  9
$LUNITS
 70
     2
  9
$LUPREC
 70
     4
  9
$SKETCHINC
 40
1.0
  9
$FILLETRAD
 40
10.0
  9
$AUNITS
 70
     0
  9
$AUPREC
 70
     0
  9
$MENU
  1
.
  9
$ELEVATION
 40
0.0
  9
$PELEVATION
 40
0.0
  9
$THICKNESS
 40
0.0
  9
$LIMCHECK
 70
     0
  9
$BLIPMODE
 70
     0
  9
$CHAMFERA
 40
10.0
  9
$CHAMFERB
 40
10.0
  9
$SKPOLY
 70
     0
  9
$TDCREATE
 40
2457167.7789863772
  9
$TDUPDATE
 40
2457178.0107747922
  9
$TDINDWG
 40
0.3992297569
  9
$TDUSRTIMER
 40
0.3992297454
  9
$USRTIMER
 70
     1
  9
$ANGBASE
 50
0.0
  9
$ANGDIR
 70
     0
  9
$PDMODE
 70
     0
  9
$PDSIZE
 40
0.0
  9
$PLINEWID
 40
0.0
  9
$COORDS
 70
     1
  9
$SPLFRAME
 70
     0
  9
$SPLINETYPE
 70
     6
  9
$SPLINESEGS
 70
     8
  9
$ATTDIA
 70
     1
  9
$ATTREQ
 70
     1
  9
$HANDLING
 70
-16383
  9
$HANDSEED
  5
B92
  9
$SURFTAB1
 70
     6
  9
$SURFTAB2
 70
     6
  9
$SURFTYPE
 70
     6
  9
$SURFU
 70
     6
  9
$SURFV
 70
     6
  9
$UCSNAME
  2

  9
$UCSORG
 10
0.0
 20
0.0
 30
0.0
  9
$UCSXDIR
 10
0.0
 20
-1.0
 30
0.0
  9
$UCSYDIR
 10
0.0
 20
0.0
 30
1.0
  9
$PUCSNAME
  2

  9
$PUCSORG
 10
0.0
 20
0.0
 30
0.0
  9
$PUCSXDIR
 10
1.0
 20
0.0
 30
0.0
  9
$PUCSYDIR
 10
0.0
 20
1.0
 30
0.0
  9
$USERI1
 70
     0
  9
$USERI2
 70
     0
  9
$USERI3
 70
     0
  9
$USERI4
 70
     0
  9
$USERI5
 70
     0
  9
$USERR1
 40
0.0
  9
$USERR2
 40
0.0
  9
$USERR3
 40
0.0
  9
$USERR4
 40
0.0
  9
$USERR5
 40
0.0
  9
$WORLDVIEW
 70
     1
  9
$SHADEDGE
 70
     3
  9
$SHADEDIF
 70
    70
  9
$TILEMODE
 70
     1
  9
$MAXACTVP
 70
    64
  9
$PLIMCHECK
 70
     0
  9
$PEXTMIN
 10
27.844751262664801
 20
20.161249995231621
 30
0.0
  9
$PEXTMAX
 10
250.60276136398309
 20
181.4512499570846
 30
0.0
  9
$PLIMMIN
 10
-3.757080078125
 20
-3.7570831775665279
  9
$PLIMMAX
 10
293.21124267578119
 20
206.21624445915219
  9
$UNITMODE
 70
     0
  9
$VISRETAIN
 70
     1
  9
$PLINEGEN
 70
     0
  9
$PSLTSCALE
 70
     1
  0
ENDSEC
  0
SECTION
  2
TABLES
  0
TABLE
  2
VPORT
 70
     6
  0
VPORT
  2
*ACTIVE
 70
     0
 10
0.0
 20
0.0
 11
1.0
 21
1.0
 12
-4.3349999999999929
 22
1.358926571483575
 13
0.0
 23
0.0
 14
0.01
 24
0.01
 15
1.0
 25
1.0
 16
-1.0
 26
0.0
 36
0.0
 17
0.0
 27
0.0
 37
0.0
 40
62.637207575571047
 41
2.2487980769230771
 42
50.0
 43
0.0
 44
0.0
 50
0.0
 51
0.0
 71
     0
 72
   100
 73
     1
 74
     3
 75
     1
 76
     1
 77
     0
 78
     0
  0
ENDTAB
  0
TABLE
  2
LTYPE
 70
     1
  0
LTYPE
  2
CONTINUOUS
 70
     0
  3
Solid line
 72
    65
 73
     0
 40
0.0
  0
ENDTAB
  0
TABLE
  2
LAYER
 70
     9
  0
LAYER
  2
0
 70
     0
 62
     7
  6
CONTINUOUS
  0
LAYER
  2
REFERENCE
 70
     0
 62
     9
  6
CONTINUOUS
  0
LAYER
  2
FRAME
 70
     0
 62
     5
  6
CONTINUOUS
  0
LAYER
  2
TMP
 70
     0
 62
     4
  6
CONTINUOUS
  0
LAYER
  2
WHEELS
 70
     0
 62
     2
  6
CONTINUOUS
  0
LAYER
  2
CAB
 70
     0
 62
     3
  6
CONTINUOUS
  0
LAYER
  2
CARGO_BAY
 70
     0
 62
     6
  6
CONTINUOUS
  0
LAYER
  2
TENT
 70
     0
 62
     3
  6
CONTINUOUS
  0
LAYER
  2
FENDERS
 70
     0
 62
     6
  6
CONTINUOUS
  0
ENDTAB
  0
TABLE
  2
STYLE
 70
     1
  0
STYLE
  2
STANDARD
 70
     0
 40
0.0
 41
1.0
 50
0.0
 71
     0
 42
2.5
  3
txt
  4

  0
ENDTAB
  0
TABLE
  2
VIEW
 70
     0
  0
ENDTAB
  0
TABLE
  2
UCS
 70
     0
  0
ENDTAB
  0
TABLE
  2
APPID
 70
     1
  0
APPID
  2
ACAD
 70
     0
  0
ENDTAB
  0
TABLE
  2
DIMSTYLE
 70
     1
  0
DIMSTYLE
  2
ISO-25
 70
     0
  3

  4

  5

  6

  7

 40
1.0
 41
2.5
 42
0.625
 43
3.75
 44
1.25
 45
0.0
 46
0.0
 47
0.0
 48
0.0
140
2.5
141
2.5
142
0.0
143
0.03937007874016
144
1.0
145
0.0
146
1.0
147
0.625
 71
     0
 72
     0
 73
     0
 74
     0
 75
     0
 76
     0
 77
     1
 78
     8
170
     0
171
     3
172
     1
173
     0
174
     0
175
     0
176
     0
177
     0
178
     0
  0
ENDTAB
  0
ENDSEC
  0
SECTION
  2
BLOCKS
  0
BLOCK
  8
0
  2
$MODEL_SPACE
 70
     0
 10
0.0
 20
0.0
 30
0.0
  3
$MODEL_SPACE
  1

  0
ENDBLK
  5
21
  8
0
  0
BLOCK
 67
     1
  8
0
  2
$PAPER_SPACE
 70
     0
 10
0.0
 20
0.0
 30
0.0
  3
$PAPER_SPACE
  1

  0
ENDBLK
  5
1D
 67
     1
  8
0
  0
ENDSEC
  0
SECTION
  2
ENTITIES
  0
3DFACE
  5
70D
  8
CARGO_BAY
 10
1.1899999999999991
 20
-1.28
 30
1.5600000000000001
 11
1.1899999999999999
 21
3.299999999999998
 31
1.5600000000000001
 12
1.1899999999999999
 22
-0.6600000000000003
 32
1.6399999999999999
 13
1.1899999999999991
 23
-1.2
 33
1.6399999999999999
  0
3DFACE
  5
70E
  8
CARGO_BAY
 10
-1.1899999999999991
 20
-0.6600000000000001
 30
1.6399999999999999
 11
-1.1899999999999991
 21
3.299999999999998
 31
1.5600000000000001
 12
-1.1899999999999999
 22
-1.28
 32
1.5600000000000001
 13
-1.1899999999999999
 23
-1.1999999999999991
 33
1.6399999999999999
  0
3DFACE
  5
711
  8
CARGO_BAY
 10
-1.1899999999999999
 20
-1.28
 30
1.5600000000000001
 11
-1.1899999999999991
 21
3.299999999999998
 31
1.5600000000000001
 12
1.1899999999999999
 22
3.299999999999998
 32
1.5600000000000001
 13
1.1899999999999991
 23
-1.28
 33
1.5600000000000001
  0
3DFACE
  5
712
  8
CARGO_BAY
 10
1.1200000000000001
 20
-0.6600000000000003
 30
1.639999999999999
 11
1.1200000000000001
 21
3.2299999999999991
 31
1.639999999999999
 12
-1.119999999999999
 22
3.2299999999999991
 32
1.639999999999999
 13
-1.119999999999999
 23
-0.6600000000000001
 33
1.639999999999999
  0
3DFACE
  5
716
  8
CARGO_BAY
 10
1.1200000000000001
 20
3.2299999999999991
 30
2.4500000000000002
 11
1.1899999999999999
 21
3.2999999999999998
 31
2.4500000000000002
 12
-1.1899999999999991
 22
3.2999999999999998
 32
2.4500000000000002
 13
-1.119999999999999
 23
3.2299999999999991
 33
2.4500000000000002
  0
3DFACE
  5
719
  8
CARGO_BAY
 10
-1.1899999999999991
 20
3.2999999999999989
 30
1.5600000000000001
 11
-1.1899999999999991
 21
3.2999999999999998
 31
2.4500000000000002
 12
1.1899999999999999
 22
3.2999999999999998
 32
2.4500000000000002
 13
1.1899999999999999
 23
3.299999999999998
 33
1.5600000000000001
  0
3DFACE
  5
71A
  8
CARGO_BAY
 10
1.1200000000000001
 20
3.2299999999999991
 30
1.639999999999999
 11
1.1200000000000001
 21
3.2299999999999991
 31
2.4500000000000002
 12
-1.119999999999999
 22
3.2299999999999991
 32
2.4500000000000002
 13
-1.119999999999999
 23
3.2299999999999991
 33
1.639999999999999
  0
3DFACE
  5
71C
  8
CARGO_BAY
 10
1.1899999999999991
 20
-1.28
 30
1.5600000000000001
 11
1.1899999999999991
 21
-1.28
 31
2.4500000000000002
 12
-1.1899999999999999
 22
-1.2799999999999989
 32
2.4500000000000002
 13
-1.1899999999999999
 23
-1.28
 33
1.5600000000000001
  0
3DFACE
  5
71D
  8
CARGO_BAY
 10
1.1899999999999991
 20
-1.28
 30
2.4500000000000002
 11
1.1899999999999991
 21
-1.1999999999999991
 31
2.4500000000000002
 12
-1.1899999999999999
 22
-1.1999999999999991
 32
2.4500000000000002
 13
-1.1899999999999999
 23
-1.2799999999999989
 33
2.4500000000000002
  0
3DFACE
  5
71E
  8
CARGO_BAY
 10
-1.1899999999999999
 20
-1.2799999999999989
 30
2.4500000000000002
 11
-1.1899999999999999
 21
-1.1999999999999991
 31
2.4500000000000002
 12
-1.1899999999999999
 22
-1.1999999999999991
 32
1.639999999999999
 13
-1.1899999999999999
 23
-1.28
 33
1.5600000000000001
  0
3DFACE
  5
720
  8
CARGO_BAY
 10
1.1899999999999991
 20
-1.2
 30
1.639999999999999
 11
1.1899999999999991
 21
-1.1999999999999991
 31
2.4500000000000002
 12
1.1899999999999991
 22
-1.28
 32
2.4500000000000002
 13
1.1899999999999991
 23
-1.28
 33
1.5600000000000001
  0
3DFACE
  5
721
  8
CARGO_BAY
 10
-1.1899999999999999
 20
-1.1999999999999991
 30
1.639999999999999
 11
-1.1899999999999999
 21
-1.1999999999999991
 31
2.4500000000000002
 12
1.1899999999999991
 22
-1.1999999999999991
 32
2.4500000000000002
 13
1.1899999999999991
 23
-1.2
 33
1.639999999999999
  0
3DFACE
  5
723
  8
CARGO_BAY
 10
1.1899999999999999
 20
3.2999999999999989
 30
1.5600000000000001
 11
1.1899999999999999
 21
3.2999999999999998
 31
2.4500000000000002
 12
1.1899999999999999
 22
-0.6600000000000003
 32
2.4500000000000002
 13
1.1899999999999999
 23
-0.6600000000000003
 33
1.639999999999999
  0
3DFACE
  5
725
  8
CARGO_BAY
 10
1.1899999999999999
 20
3.2999999999999998
 30
2.4500000000000002
 11
1.1200000000000001
 21
3.2299999999999991
 31
2.4500000000000002
 12
1.119999999999999
 22
-0.6600000000000003
 32
2.4500000000000002
 13
1.1899999999999999
 23
-0.6600000000000003
 33
2.4500000000000002
  0
3DFACE
  5
726
  8
CARGO_BAY
 10
1.1899999999999999
 20
-0.6600000000000003
 30
2.4500000000000002
 11
1.119999999999999
 21
-0.6600000000000003
 31
2.4500000000000002
 12
1.1200000000000001
 22
-0.6600000000000003
 32
1.639999999999999
 13
1.1899999999999999
 23
-0.6600000000000003
 33
1.639999999999999
  0
3DFACE
  5
728
  8
CARGO_BAY
 10
1.1200000000000001
 20
-0.6600000000000003
 30
1.639999999999999
 11
1.119999999999999
 21
-0.6600000000000003
 31
2.4500000000000002
 12
1.1200000000000001
 22
3.2299999999999991
 32
2.4500000000000002
 13
1.1200000000000001
 23
3.2299999999999991
 33
1.639999999999999
  0
3DFACE
  5
72A
  8
CARGO_BAY
 10
-1.1899999999999991
 20
-0.6600000000000001
 30
1.639999999999999
 11
-1.1899999999999999
 21
-0.6600000000000001
 31
2.4500000000000002
 12
-1.1899999999999991
 22
3.2999999999999998
 32
2.4500000000000002
 13
-1.1899999999999991
 23
3.2999999999999989
 33
1.5600000000000001
  0
3DFACE
  5
72B
  8
CARGO_BAY
 10
-1.119999999999999
 20
3.2299999999999991
 30
2.4500000000000002
 11
-1.1899999999999991
 21
3.2999999999999998
 31
2.4500000000000002
 12
-1.1899999999999999
 22
-0.6600000000000001
 32
2.4500000000000002
 13
-1.119999999999999
 23
-0.6600000000000001
 33
2.4500000000000002
  0
3DFACE
  5
72C
  8
CARGO_BAY
 10
-1.119999999999999
 20
-0.6600000000000001
 30
2.4500000000000002
 11
-1.1899999999999999
 21
-0.6600000000000001
 31
2.4500000000000002
 12
-1.1899999999999991
 22
-0.6600000000000001
 32
1.639999999999999
 13
-1.119999999999999
 23
-0.6600000000000001
 33
1.639999999999999
  0
3DFACE
  5
72F
  8
CARGO_BAY
 10
-1.119999999999999
 20
3.2299999999999991
 30
1.639999999999999
 11
-1.119999999999999
 21
3.2299999999999991
 31
2.4500000000000002
 12
-1.119999999999999
 22
-0.6600000000000001
 32
2.4500000000000002
 13
-1.119999999999999
 23
-0.6600000000000001
 33
1.639999999999999
  0
3DFACE
  5
732
  8
CARGO_BAY
 10
1.1899999999999991
 20
-1.2
 30
1.639999999999999
 11
1.1899999999999999
 21
-0.6600000000000224
 31
1.6399999999999999
 12
-1.1899999999999991
 22
-0.6600000000000001
 32
1.639999999999999
 13
-1.1899999999999991
 23
-1.1999999999999991
 33
1.639999999999999
  0
3DFACE
  5
754
  8
CARGO_BAY
 10
1.149999999999999
 20
-1.1299999999999999
 30
1.26
 11
1.169999999999999
 21
-1.1499999999999999
 31
1.2399999999999991
 12
1.169999999999999
 22
-1.1499999999999999
 32
1.5600000000000001
 13
1.149999999999999
 23
-1.1299999999999999
 33
1.5600000000000001
  0
3DFACE
  5
755
  8
CARGO_BAY
 10
1.169999999999999
 20
-1.1499999999999999
 30
1.2399999999999991
 11
1.1899999999999991
 21
-1.1299999999999999
 31
1.26
 12
1.1899999999999991
 22
-1.1299999999999999
 32
1.5600000000000001
 13
1.169999999999999
 23
-1.1499999999999999
 33
1.5600000000000001
  0
3DFACE
  5
756
  8
CARGO_BAY
 10
1.1899999999999991
 20
-1.1299999999999999
 30
1.26
 11
1.169999999999999
 21
-1.1100000000000001
 31
1.28
 12
1.169999999999999
 22
-1.1100000000000001
 32
1.5600000000000001
 13
1.1899999999999991
 23
-1.1299999999999999
 33
1.5600000000000001
  0
3DFACE
  5
757
  8
CARGO_BAY
 10
1.169999999999999
 20
-1.1100000000000001
 30
1.28
 11
1.149999999999999
 21
-1.1299999999999999
 31
1.26
 12
1.149999999999999
 22
-1.1299999999999999
 32
1.5600000000000001
 13
1.169999999999999
 23
-1.1100000000000001
 33
1.5600000000000001
  0
3DFACE
  5
758
  8
CARGO_BAY
 10
1.149999999999999
 20
-0.6900000000000003
 30
1.26
 11
1.169999999999999
 21
-0.7100000000000002
 31
1.28
 12
1.169999999999999
 22
-0.7100000000000002
 32
1.5600000000000001
 13
1.149999999999999
 23
-0.6900000000000003
 33
1.5600000000000001
  0
3DFACE
  5
759
  8
CARGO_BAY
 10
1.169999999999999
 20
-0.7100000000000002
 30
1.28
 11
1.1899999999999991
 21
-0.6900000000000003
 31
1.26
 12
1.1899999999999991
 22
-0.6900000000000003
 32
1.5600000000000001
 13
1.169999999999999
 23
-0.7100000000000002
 33
1.5600000000000001
  0
3DFACE
  5
75A
  8
CARGO_BAY
 10
1.1899999999999991
 20
-0.6900000000000003
 30
1.26
 11
1.169999999999999
 21
-0.6700000000000002
 31
1.2399999999999991
 12
1.169999999999999
 22
-0.6700000000000002
 32
1.5600000000000001
 13
1.1899999999999991
 23
-0.6900000000000003
 33
1.5600000000000001
  0
3DFACE
  5
75B
  8
CARGO_BAY
 10
1.169999999999999
 20
-0.6700000000000002
 30
1.2399999999999991
 11
1.149999999999999
 21
-0.6900000000000003
 31
1.26
 12
1.149999999999999
 22
-0.6900000000000003
 32
1.5600000000000001
 13
1.169999999999999
 23
-0.6700000000000002
 33
1.5600000000000001
  0
3DFACE
  5
75C
  8
CARGO_BAY
 10
1.149999999999999
 20
-0.6900000000000003
 30
1.2599999999999989
 11
1.169999999999999
 21
-0.6700000000000002
 31
1.2399999999999991
 12
1.169999999999999
 22
-1.1499999999999999
 32
1.2399999999999991
 13
1.149999999999999
 23
-1.1299999999999999
 33
1.2599999999999989
  0
3DFACE
  5
75D
  8
CARGO_BAY
 10
1.169999999999999
 20
-0.6700000000000002
 30
1.2399999999999991
 11
1.1899999999999991
 21
-0.6900000000000003
 31
1.2599999999999989
 12
1.1899999999999991
 22
-1.1299999999999999
 32
1.2599999999999989
 13
1.169999999999999
 23
-1.1499999999999999
 33
1.2399999999999991
  0
3DFACE
  5
75E
  8
CARGO_BAY
 10
1.1899999999999991
 20
-0.6900000000000003
 30
1.2599999999999989
 11
1.169999999999999
 21
-0.7100000000000001
 31
1.2799999999999989
 12
1.169999999999999
 22
-1.1100000000000001
 32
1.2799999999999989
 13
1.1899999999999991
 23
-1.1299999999999999
 33
1.2599999999999989
  0
3DFACE
  5
75F
  8
CARGO_BAY
 10
1.169999999999999
 20
-0.7100000000000001
 30
1.2799999999999989
 11
1.149999999999999
 21
-0.6900000000000003
 31
1.2599999999999989
 12
1.149999999999999
 22
-1.1299999999999999
 32
1.2599999999999989
 13
1.169999999999999
 23
-1.1100000000000001
 33
1.2799999999999989
  0
3DFACE
  5
760
  8
CARGO_BAY
 10
-1.169999999999999
 20
-0.67
 30
1.2399999999999991
 11
-1.1899999999999991
 21
-0.69
 31
1.26
 12
-1.1899999999999991
 22
-0.69
 32
1.5600000000000001
 13
-1.169999999999999
 23
-0.67
 33
1.5600000000000001
  0
3DFACE
  5
761
  8
CARGO_BAY
 10
-1.149999999999999
 20
-0.69
 30
1.26
 11
-1.169999999999999
 21
-0.67
 31
1.2399999999999991
 12
-1.169999999999999
 22
-0.67
 32
1.5600000000000001
 13
-1.149999999999999
 23
-0.69
 33
1.5600000000000001
  0
3DFACE
  5
762
  8
CARGO_BAY
 10
-1.169999999999999
 20
-0.71
 30
1.28
 11
-1.149999999999999
 21
-0.69
 31
1.26
 12
-1.149999999999999
 22
-0.69
 32
1.5600000000000001
 13
-1.169999999999999
 23
-0.71
 33
1.5600000000000001
  0
3DFACE
  5
763
  8
CARGO_BAY
 10
-1.1899999999999991
 20
-0.69
 30
1.26
 11
-1.169999999999999
 21
-0.71
 31
1.28
 12
-1.169999999999999
 22
-0.71
 32
1.5600000000000001
 13
-1.1899999999999991
 23
-0.69
 33
1.5600000000000001
  0
3DFACE
  5
764
  8
CARGO_BAY
 10
-1.1699999999999999
 20
-1.109999999999999
 30
1.28
 11
-1.1899999999999999
 21
-1.129999999999999
 31
1.26
 12
-1.1899999999999999
 22
-1.129999999999999
 32
1.5600000000000001
 13
-1.1699999999999999
 23
-1.109999999999999
 33
1.5600000000000001
  0
3DFACE
  5
765
  8
CARGO_BAY
 10
-1.1499999999999999
 20
-1.129999999999999
 30
1.26
 11
-1.1699999999999999
 21
-1.109999999999999
 31
1.28
 12
-1.1699999999999999
 22
-1.109999999999999
 32
1.5600000000000001
 13
-1.1499999999999999
 23
-1.129999999999999
 33
1.5600000000000001
  0
3DFACE
  5
766
  8
CARGO_BAY
 10
-1.1699999999999999
 20
-1.149999999999999
 30
1.2399999999999991
 11
-1.1499999999999999
 21
-1.129999999999999
 31
1.26
 12
-1.1499999999999999
 22
-1.129999999999999
 32
1.5600000000000001
 13
-1.1699999999999999
 23
-1.149999999999999
 33
1.5600000000000001
  0
3DFACE
  5
767
  8
CARGO_BAY
 10
-1.1899999999999999
 20
-1.129999999999999
 30
1.26
 11
-1.1699999999999999
 21
-1.149999999999999
 31
1.2399999999999991
 12
-1.1699999999999999
 22
-1.149999999999999
 32
1.5600000000000001
 13
-1.1899999999999999
 23
-1.129999999999999
 33
1.5600000000000001
  0
3DFACE
  5
768
  8
CARGO_BAY
 10
-1.169999999999999
 20
-0.7099999999999999
 30
1.2799999999999989
 11
-1.1899999999999991
 21
-0.69
 31
1.2599999999999989
 12
-1.1899999999999999
 22
-1.129999999999999
 32
1.2599999999999989
 13
-1.1699999999999999
 23
-1.109999999999999
 33
1.2799999999999989
  0
3DFACE
  5
769
  8
CARGO_BAY
 10
-1.149999999999999
 20
-0.69
 30
1.2599999999999989
 11
-1.169999999999999
 21
-0.7099999999999999
 31
1.2799999999999989
 12
-1.1699999999999999
 22
-1.109999999999999
 32
1.2799999999999989
 13
-1.1499999999999999
 23
-1.129999999999999
 33
1.2599999999999989
  0
3DFACE
  5
76A
  8
CARGO_BAY
 10
-1.169999999999999
 20
-0.67
 30
1.2399999999999991
 11
-1.149999999999999
 21
-0.69
 31
1.2599999999999989
 12
-1.1499999999999999
 22
-1.129999999999999
 32
1.2599999999999989
 13
-1.1699999999999999
 23
-1.149999999999999
 33
1.2399999999999991
  0
3DFACE
  5
76B
  8
CARGO_BAY
 10
-1.1899999999999991
 20
-0.69
 30
1.2599999999999989
 11
-1.169999999999999
 21
-0.67
 31
1.2399999999999991
 12
-1.1699999999999999
 22
-1.149999999999999
 32
1.2399999999999991
 13
-1.1899999999999999
 23
-1.129999999999999
 33
1.2599999999999989
  0
3DFACE
  5
7DF
  8
CARGO_BAY
 10
1.0900000000000001
 20
2.46
 30
3.2999999999999998
 11
1.1000000000000001
 21
2.4700000000000002
 31
3.3100000000000001
 12
0.9700000000000002
 22
2.4700000000000002
 32
3.359999999999999
 13
0.9700000000000002
 23
2.46
 33
3.3500000000000001
  0
3DFACE
  5
7E0
  8
CARGO_BAY
 10
1.1000000000000001
 20
2.4700000000000002
 30
3.3100000000000001
 11
1.0900000000000001
 21
2.48
 31
3.2999999999999998
 12
0.9700000000000002
 22
2.48
 32
3.3500000000000001
 13
0.9700000000000002
 23
2.4700000000000002
 33
3.359999999999999
  0
3DFACE
  5
7E1
  8
CARGO_BAY
 10
1.0900000000000001
 20
2.48
 30
3.2999999999999998
 11
1.0800000000000001
 21
2.4700000000000002
 31
3.29
 12
0.9700000000000002
 22
2.4700000000000002
 32
3.339999999999999
 13
0.9700000000000002
 23
2.48
 33
3.3500000000000001
  0
3DFACE
  5
7E2
  8
CARGO_BAY
 10
1.0800000000000001
 20
2.4700000000000002
 30
3.29
 11
1.0900000000000001
 21
2.46
 31
3.2999999999999998
 12
0.9700000000000002
 22
2.46
 32
3.3500000000000001
 13
0.9700000000000002
 23
2.4700000000000002
 33
3.339999999999999
  0
3DFACE
  5
7E3
  8
CARGO_BAY
 10
1.1499999999999979
 20
2.46
 30
3.1899999999999991
 11
1.159999999999997
 21
2.4700000000000002
 31
3.1899999999999991
 12
1.1000000000000001
 22
2.4700000000000002
 32
3.3100000000000001
 13
1.0900000000000001
 23
2.46
 33
3.2999999999999998
  0
3DFACE
  5
7E4
  8
CARGO_BAY
 10
1.159999999999997
 20
2.4700000000000002
 30
3.1899999999999991
 11
1.1499999999999979
 21
2.48
 31
3.1899999999999991
 12
1.0900000000000001
 22
2.48
 32
3.2999999999999998
 13
1.1000000000000001
 23
2.4700000000000002
 33
3.3100000000000001
  0
3DFACE
  5
7E5
  8
CARGO_BAY
 10
1.1499999999999979
 20
2.48
 30
3.1899999999999991
 11
1.1399999999999979
 21
2.4700000000000002
 31
3.1899999999999991
 12
1.0800000000000001
 22
2.4700000000000002
 32
3.29
 13
1.0900000000000001
 23
2.48
 33
3.2999999999999998
  0
3DFACE
  5
7E6
  8
CARGO_BAY
 10
1.1399999999999979
 20
2.4700000000000002
 30
3.1899999999999991
 11
1.1499999999999979
 21
2.46
 31
3.1899999999999991
 12
1.0900000000000001
 22
2.46
 32
3.2999999999999998
 13
1.0800000000000001
 23
2.4700000000000002
 33
3.29
  0
3DFACE
  5
7E7
  8
CARGO_BAY
 10
-1.149999999999997
 20
2.4799999999999991
 30
3.1899999999999991
 11
-1.159999999999997
 21
2.4700000000000002
 31
3.1899999999999991
 12
-1.099999999999999
 22
2.4700000000000002
 32
3.3100000000000001
 13
-1.089999999999999
 23
2.4799999999999991
 33
3.2999999999999998
  0
3DFACE
  5
7E8
  8
CARGO_BAY
 10
-1.159999999999997
 20
2.4700000000000002
 30
3.1899999999999991
 11
-1.149999999999997
 21
2.4599999999999991
 31
3.1899999999999991
 12
-1.089999999999999
 22
2.4599999999999991
 32
3.2999999999999998
 13
-1.099999999999999
 23
2.4700000000000002
 33
3.3100000000000001
  0
3DFACE
  5
7E9
  8
CARGO_BAY
 10
-1.149999999999997
 20
2.4599999999999991
 30
3.1899999999999991
 11
-1.139999999999997
 21
2.4700000000000002
 31
3.1899999999999991
 12
-1.0800000000000001
 22
2.4700000000000002
 32
3.29
 13
-1.089999999999999
 23
2.4599999999999991
 33
3.2999999999999998
  0
3DFACE
  5
7EA
  8
CARGO_BAY
 10
-1.139999999999997
 20
2.4700000000000002
 30
3.1899999999999991
 11
-1.149999999999997
 21
2.4799999999999991
 31
3.1899999999999991
 12
-1.089999999999999
 22
2.4799999999999991
 32
3.2999999999999998
 13
-1.0800000000000001
 23
2.4700000000000002
 33
3.29
  0
3DFACE
  5
7EB
  8
CARGO_BAY
 10
-1.089999999999999
 20
2.4799999999999991
 30
3.2999999999999998
 11
-1.099999999999999
 21
2.4700000000000002
 31
3.3100000000000001
 12
-0.9699999999999995
 22
2.4700000000000002
 32
3.359999999999999
 13
-0.9699999999999995
 23
2.4799999999999991
 33
3.3500000000000001
  0
3DFACE
  5
7EC
  8
CARGO_BAY
 10
-1.099999999999999
 20
2.4700000000000002
 30
3.3100000000000001
 11
-1.089999999999999
 21
2.4599999999999991
 31
3.2999999999999998
 12
-0.9699999999999995
 22
2.4599999999999991
 32
3.3500000000000001
 13
-0.9699999999999995
 23
2.4700000000000002
 33
3.359999999999999
  0
3DFACE
  5
7ED
  8
CARGO_BAY
 10
-1.089999999999999
 20
2.4599999999999991
 30
3.2999999999999998
 11
-1.0800000000000001
 21
2.4700000000000002
 31
3.29
 12
-0.9699999999999995
 22
2.4700000000000002
 32
3.339999999999999
 13
-0.9699999999999995
 23
2.4599999999999991
 33
3.3500000000000001
  0
3DFACE
  5
7EE
  8
CARGO_BAY
 10
-1.0800000000000001
 20
2.4700000000000002
 30
3.29
 11
-1.089999999999999
 21
2.4799999999999991
 31
3.2999999999999998
 12
-0.9699999999999995
 22
2.4799999999999991
 32
3.3500000000000001
 13
-0.9699999999999995
 23
2.4700000000000002
 33
3.339999999999999
  0
3DFACE
  5
7EF
  8
CARGO_BAY
 10
1.1799999999999979
 20
2.46
 30
2.4500000000000002
 11
1.1899999999999979
 21
2.4700000000000002
 31
2.4500000000000002
 12
1.1699999999999999
 22
2.4700000000000002
 32
3.0499999999999998
 13
1.159999999999999
 23
2.46
 33
3.0499999999999998
  0
3DFACE
  5
7F0
  8
CARGO_BAY
 10
1.1899999999999979
 20
2.4700000000000002
 30
2.4500000000000002
 11
1.1799999999999979
 21
2.48
 31
2.4500000000000002
 12
1.159999999999999
 22
2.48
 32
3.0499999999999998
 13
1.1699999999999999
 23
2.4700000000000002
 33
3.0499999999999998
  0
3DFACE
  5
7F1
  8
CARGO_BAY
 10
1.1799999999999979
 20
2.48
 30
2.4500000000000002
 11
1.1699999999999979
 21
2.4700000000000002
 31
2.4500000000000002
 12
1.149999999999999
 22
2.4700000000000002
 32
3.0499999999999998
 13
1.159999999999999
 23
2.48
 33
3.0499999999999998
  0
3DFACE
  5
7F2
  8
CARGO_BAY
 10
1.1699999999999979
 20
2.4700000000000002
 30
2.4500000000000002
 11
1.1799999999999979
 21
2.46
 31
2.4500000000000002
 12
1.159999999999999
 22
2.46
 32
3.0499999999999998
 13
1.149999999999999
 23
2.4700000000000002
 33
3.0499999999999998
  0
3DFACE
  5
7F3
  8
CARGO_BAY
 10
-1.1799999999999971
 20
2.4799999999999991
 30
2.4500000000000002
 11
-1.1899999999999971
 21
2.4700000000000002
 31
2.4500000000000002
 12
-1.169999999999999
 22
2.4700000000000002
 32
3.0499999999999998
 13
-1.159999999999999
 23
2.4799999999999991
 33
3.0499999999999998
  0
3DFACE
  5
7F4
  8
CARGO_BAY
 10
-1.1899999999999971
 20
2.4700000000000002
 30
2.4500000000000002
 11
-1.1799999999999971
 21
2.4599999999999991
 31
2.4500000000000002
 12
-1.159999999999999
 22
2.4599999999999991
 32
3.0499999999999998
 13
-1.169999999999999
 23
2.4700000000000002
 33
3.0499999999999998
  0
3DFACE
  5
7F5
  8
CARGO_BAY
 10
-1.1799999999999971
 20
2.4599999999999991
 30
2.4500000000000002
 11
-1.1699999999999979
 21
2.4700000000000002
 31
2.4500000000000002
 12
-1.149999999999999
 22
2.4700000000000002
 32
3.0499999999999998
 13
-1.159999999999999
 23
2.4599999999999991
 33
3.0499999999999998
  0
3DFACE
  5
7F6
  8
CARGO_BAY
 10
-1.1699999999999979
 20
2.4700000000000002
 30
2.4500000000000002
 11
-1.1799999999999971
 21
2.4799999999999991
 31
2.4500000000000002
 12
-1.159999999999999
 22
2.4799999999999991
 32
3.0499999999999998
 13
-1.149999999999999
 23
2.4700000000000002
 33
3.0499999999999998
  0
3DFACE
  5
7F7
  8
CARGO_BAY
 10
1.159999999999997
 20
2.46
 30
3.0499999999999998
 11
1.169999999999997
 21
2.4700000000000002
 31
3.0499999999999998
 12
1.159999999999999
 22
2.4700000000000002
 32
3.1899999999999991
 13
1.149999999999999
 23
2.46
 33
3.1899999999999991
  0
3DFACE
  5
7F8
  8
CARGO_BAY
 10
1.169999999999997
 20
2.4700000000000002
 30
3.0499999999999998
 11
1.159999999999997
 21
2.48
 31
3.0499999999999998
 12
1.149999999999999
 22
2.48
 32
3.1899999999999991
 13
1.159999999999999
 23
2.4700000000000002
 33
3.1899999999999991
  0
3DFACE
  5
7F9
  8
CARGO_BAY
 10
1.159999999999997
 20
2.48
 30
3.0499999999999998
 11
1.1499999999999979
 21
2.4700000000000002
 31
3.0499999999999998
 12
1.1399999999999999
 22
2.4700000000000002
 32
3.1899999999999991
 13
1.149999999999999
 23
2.48
 33
3.1899999999999991
  0
3DFACE
  5
7FA
  8
CARGO_BAY
 10
1.1499999999999979
 20
2.4700000000000002
 30
3.0499999999999998
 11
1.159999999999997
 21
2.46
 31
3.0499999999999998
 12
1.149999999999999
 22
2.46
 32
3.1899999999999991
 13
1.1399999999999999
 23
2.4700000000000002
 33
3.1899999999999991
  0
3DFACE
  5
7FB
  8
CARGO_BAY
 10
-1.159999999999997
 20
2.4799999999999991
 30
3.0499999999999998
 11
-1.169999999999997
 21
2.4700000000000002
 31
3.0499999999999998
 12
-1.159999999999999
 22
2.4700000000000002
 32
3.1899999999999991
 13
-1.149999999999999
 23
2.4799999999999991
 33
3.1899999999999991
  0
3DFACE
  5
7FC
  8
CARGO_BAY
 10
-1.169999999999997
 20
2.4700000000000002
 30
3.0499999999999998
 11
-1.159999999999997
 21
2.4599999999999991
 31
3.0499999999999998
 12
-1.149999999999999
 22
2.4599999999999991
 32
3.1899999999999991
 13
-1.159999999999999
 23
2.4700000000000002
 33
3.1899999999999991
  0
3DFACE
  5
7FD
  8
CARGO_BAY
 10
-1.159999999999997
 20
2.4599999999999991
 30
3.0499999999999998
 11
-1.149999999999997
 21
2.4700000000000002
 31
3.0499999999999998
 12
-1.139999999999999
 22
2.4700000000000002
 32
3.1899999999999991
 13
-1.149999999999999
 23
2.4599999999999991
 33
3.1899999999999991
  0
3DFACE
  5
7FE
  8
CARGO_BAY
 10
-1.149999999999997
 20
2.4700000000000002
 30
3.0499999999999998
 11
-1.159999999999997
 21
2.4799999999999991
 31
3.0499999999999998
 12
-1.149999999999999
 22
2.4799999999999991
 32
3.1899999999999991
 13
-1.139999999999999
 23
2.4700000000000002
 33
3.1899999999999991
  0
3DFACE
  5
7FF
  8
CARGO_BAY
 10
0.5300000000000004
 20
2.46
 30
3.3700000000000001
 11
0.5300000000000004
 21
2.4700000000000002
 31
3.379999999999999
 12
-0.5300000000000003
 22
2.4700000000000002
 32
3.379999999999999
 13
-0.5300000000000003
 23
2.46
 33
3.3700000000000001
  0
3DFACE
  5
800
  8
CARGO_BAY
 10
0.5300000000000004
 20
2.4700000000000002
 30
3.379999999999999
 11
0.5300000000000004
 21
2.48
 31
3.3700000000000001
 12
-0.5300000000000003
 22
2.48
 32
3.3700000000000001
 13
-0.5300000000000003
 23
2.4700000000000002
 33
3.379999999999999
  0
3DFACE
  5
801
  8
CARGO_BAY
 10
0.5300000000000004
 20
2.48
 30
3.3700000000000001
 11
0.5300000000000004
 21
2.4700000000000002
 31
3.359999999999999
 12
-0.5300000000000003
 22
2.4700000000000002
 32
3.359999999999999
 13
-0.5300000000000003
 23
2.48
 33
3.3700000000000001
  0
3DFACE
  5
802
  8
CARGO_BAY
 10
0.5300000000000004
 20
2.4700000000000002
 30
3.359999999999999
 11
0.5300000000000004
 21
2.46
 31
3.3700000000000001
 12
-0.5300000000000003
 22
2.46
 32
3.3700000000000001
 13
-0.5300000000000003
 23
2.4700000000000002
 33
3.359999999999999
  0
3DFACE
  5
803
  8
CARGO_BAY
 10
0.9700000000000002
 20
2.46
 30
3.349999999999997
 11
0.9700000000000002
 21
2.4700000000000002
 31
3.3599999999999972
 12
0.5299999999999999
 22
2.4700000000000002
 32
3.379999999999999
 13
0.5299999999999999
 23
2.46
 33
3.3700000000000001
  0
3DFACE
  5
804
  8
CARGO_BAY
 10
0.9700000000000002
 20
2.4700000000000002
 30
3.3599999999999972
 11
0.9700000000000002
 21
2.48
 31
3.349999999999997
 12
0.5299999999999999
 22
2.48
 32
3.3700000000000001
 13
0.5299999999999999
 23
2.4700000000000002
 33
3.379999999999999
  0
3DFACE
  5
805
  8
CARGO_BAY
 10
0.9700000000000002
 20
2.48
 30
3.349999999999997
 11
0.9700000000000002
 21
2.4700000000000002
 31
3.3399999999999981
 12
0.5299999999999999
 22
2.4700000000000002
 32
3.359999999999999
 13
0.5299999999999999
 23
2.48
 33
3.3700000000000001
  0
3DFACE
  5
806
  8
CARGO_BAY
 10
0.9700000000000002
 20
2.4700000000000002
 30
3.3399999999999981
 11
0.9700000000000002
 21
2.46
 31
3.349999999999997
 12
0.5299999999999999
 22
2.46
 32
3.3700000000000001
 13
0.5299999999999999
 23
2.4700000000000002
 33
3.359999999999999
  0
3DFACE
  5
807
  8
CARGO_BAY
 10
-0.9699999999999995
 20
2.4799999999999991
 30
3.349999999999997
 11
-0.9699999999999995
 21
2.4700000000000002
 31
3.3599999999999972
 12
-0.5299999999999993
 22
2.4700000000000002
 32
3.379999999999999
 13
-0.5299999999999993
 23
2.4799999999999991
 33
3.3700000000000001
  0
3DFACE
  5
808
  8
CARGO_BAY
 10
-0.9699999999999995
 20
2.4700000000000002
 30
3.3599999999999972
 11
-0.9699999999999995
 21
2.4599999999999991
 31
3.349999999999997
 12
-0.5299999999999993
 22
2.4599999999999991
 32
3.3700000000000001
 13
-0.5299999999999993
 23
2.4700000000000002
 33
3.379999999999999
  0
3DFACE
  5
809
  8
CARGO_BAY
 10
-0.9699999999999995
 20
2.4599999999999991
 30
3.349999999999997
 11
-0.9699999999999995
 21
2.4700000000000002
 31
3.3399999999999981
 12
-0.5299999999999993
 22
2.4700000000000002
 32
3.359999999999999
 13
-0.5299999999999993
 23
2.4599999999999991
 33
3.3700000000000001
  0
3DFACE
  5
80A
  8
CARGO_BAY
 10
-0.9699999999999995
 20
2.4700000000000002
 30
3.3399999999999981
 11
-0.9699999999999995
 21
2.4799999999999991
 31
3.349999999999997
 12
-0.5299999999999993
 22
2.4799999999999991
 32
3.3700000000000001
 13
-0.5299999999999993
 23
2.4700000000000002
 33
3.359999999999999
  0
3DFACE
  5
80B
  8
CARGO_BAY
 10
-1.0800000000000001
 20
1.54
 30
3.29
 11
-1.089999999999999
 21
1.55
 31
3.2999999999999998
 12
-0.9699999999999998
 22
1.55
 32
3.3500000000000001
 13
-0.9699999999999998
 23
1.54
 33
3.339999999999999
  0
3DFACE
  5
80C
  8
CARGO_BAY
 10
-1.089999999999999
 20
1.5299999999999989
 30
3.2999999999999998
 11
-1.0800000000000001
 21
1.54
 31
3.29
 12
-0.9699999999999998
 22
1.54
 32
3.339999999999999
 13
-0.9699999999999998
 23
1.5299999999999989
 33
3.3500000000000001
  0
3DFACE
  5
80D
  8
CARGO_BAY
 10
-1.099999999999999
 20
1.54
 30
3.3100000000000001
 11
-1.089999999999999
 21
1.5299999999999989
 31
3.2999999999999998
 12
-0.9699999999999998
 22
1.5299999999999989
 32
3.3500000000000001
 13
-0.9699999999999998
 23
1.54
 33
3.359999999999999
  0
3DFACE
  5
80E
  8
CARGO_BAY
 10
-1.089999999999999
 20
1.55
 30
3.2999999999999998
 11
-1.099999999999999
 21
1.54
 31
3.3100000000000001
 12
-0.9699999999999998
 22
1.54
 32
3.359999999999999
 13
-0.9699999999999998
 23
1.55
 33
3.3500000000000001
  0
3DFACE
  5
80F
  8
CARGO_BAY
 10
-1.159999999999997
 20
1.54
 30
3.1899999999999991
 11
-1.149999999999997
 21
1.5299999999999989
 31
3.1899999999999991
 12
-1.089999999999999
 22
1.5299999999999989
 32
3.2999999999999998
 13
-1.099999999999999
 23
1.54
 33
3.3100000000000001
  0
3DFACE
  5
810
  8
CARGO_BAY
 10
-1.149999999999997
 20
1.55
 30
3.1899999999999991
 11
-1.159999999999997
 21
1.54
 31
3.1899999999999991
 12
-1.099999999999999
 22
1.54
 32
3.3100000000000001
 13
-1.089999999999999
 23
1.55
 33
3.2999999999999998
  0
3DFACE
  5
811
  8
CARGO_BAY
 10
1.159999999999997
 20
1.5399999999999989
 30
3.1899999999999991
 11
1.1499999999999979
 21
1.55
 31
3.1899999999999991
 12
1.0900000000000001
 22
1.55
 32
3.2999999999999998
 13
1.1000000000000001
 23
1.5399999999999989
 33
3.3100000000000001
  0
3DFACE
  5
812
  8
CARGO_BAY
 10
1.1499999999999979
 20
1.53
 30
3.1899999999999991
 11
1.159999999999997
 21
1.5399999999999989
 31
3.1899999999999991
 12
1.1000000000000001
 22
1.5399999999999989
 32
3.3100000000000001
 13
1.0900000000000001
 23
1.53
 33
3.2999999999999998
  0
3DFACE
  5
813
  8
CARGO_BAY
 10
1.0800000000000001
 20
1.5399999999999989
 30
3.29
 11
1.0900000000000001
 21
1.53
 31
3.2999999999999998
 12
0.9700000000000002
 22
1.53
 32
3.3500000000000001
 13
0.9700000000000002
 23
1.5399999999999989
 33
3.339999999999999
  0
3DFACE
  5
814
  8
CARGO_BAY
 10
1.0900000000000001
 20
1.55
 30
3.2999999999999998
 11
1.0800000000000001
 21
1.5399999999999989
 31
3.29
 12
0.9700000000000002
 22
1.5399999999999989
 32
3.339999999999999
 13
0.9700000000000002
 23
1.55
 33
3.3500000000000001
  0
3DFACE
  5
815
  8
CARGO_BAY
 10
1.1000000000000001
 20
1.5399999999999989
 30
3.3100000000000001
 11
1.0900000000000001
 21
1.55
 31
3.2999999999999998
 12
0.9700000000000002
 22
1.55
 32
3.3500000000000001
 13
0.9700000000000002
 23
1.5399999999999989
 33
3.359999999999999
  0
3DFACE
  5
816
  8
CARGO_BAY
 10
1.0900000000000001
 20
1.53
 30
3.2999999999999998
 11
1.1000000000000001
 21
1.5399999999999989
 31
3.3100000000000001
 12
0.9700000000000002
 22
1.5399999999999989
 32
3.359999999999999
 13
0.9700000000000002
 23
1.53
 33
3.3500000000000001
  0
3DFACE
  5
817
  8
CARGO_BAY
 10
-1.1699999999999979
 20
1.54
 30
2.4500000000000002
 11
-1.1799999999999971
 21
1.55
 31
2.4500000000000002
 12
-1.159999999999999
 22
1.55
 32
3.0499999999999998
 13
-1.149999999999999
 23
1.54
 33
3.0499999999999998
  0
3DFACE
  5
818
  8
CARGO_BAY
 10
-1.1799999999999971
 20
1.5299999999999989
 30
2.4500000000000002
 11
-1.1699999999999979
 21
1.54
 31
2.4500000000000002
 12
-1.149999999999999
 22
1.54
 32
3.0499999999999998
 13
-1.159999999999999
 23
1.5299999999999989
 33
3.0499999999999998
  0
3DFACE
  5
819
  8
CARGO_BAY
 10
-1.1899999999999971
 20
1.54
 30
2.4500000000000002
 11
-1.1799999999999971
 21
1.5299999999999989
 31
2.4500000000000002
 12
-1.159999999999999
 22
1.5299999999999989
 32
3.0499999999999998
 13
-1.169999999999999
 23
1.54
 33
3.0499999999999998
  0
3DFACE
  5
81A
  8
CARGO_BAY
 10
-1.1799999999999971
 20
1.55
 30
2.4500000000000002
 11
-1.1899999999999971
 21
1.54
 31
2.4500000000000002
 12
-1.169999999999999
 22
1.54
 32
3.0499999999999998
 13
-1.159999999999999
 23
1.55
 33
3.0499999999999998
  0
3DFACE
  5
81B
  8
CARGO_BAY
 10
1.1699999999999979
 20
1.5399999999999989
 30
2.4500000000000002
 11
1.1799999999999979
 21
1.53
 31
2.4500000000000002
 12
1.159999999999999
 22
1.53
 32
3.0499999999999998
 13
1.149999999999999
 23
1.5399999999999989
 33
3.0499999999999998
  0
3DFACE
  5
81C
  8
CARGO_BAY
 10
1.1799999999999979
 20
1.55
 30
2.4500000000000002
 11
1.1699999999999979
 21
1.5399999999999989
 31
2.4500000000000002
 12
1.149999999999999
 22
1.5399999999999989
 32
3.0499999999999998
 13
1.159999999999999
 23
1.55
 33
3.0499999999999998
  0
3DFACE
  5
81D
  8
CARGO_BAY
 10
1.1899999999999979
 20
1.5399999999999989
 30
2.4500000000000002
 11
1.1799999999999979
 21
1.55
 31
2.4500000000000002
 12
1.159999999999999
 22
1.55
 32
3.0499999999999998
 13
1.1699999999999999
 23
1.5399999999999989
 33
3.0499999999999998
  0
3DFACE
  5
81E
  8
CARGO_BAY
 10
1.1799999999999979
 20
1.53
 30
2.4500000000000002
 11
1.1899999999999979
 21
1.5399999999999989
 31
2.4500000000000002
 12
1.1699999999999999
 22
1.5399999999999989
 32
3.0499999999999998
 13
1.159999999999999
 23
1.53
 33
3.0499999999999998
  0
3DFACE
  5
81F
  8
CARGO_BAY
 10
-1.149999999999997
 20
1.54
 30
3.0499999999999998
 11
-1.159999999999997
 21
1.55
 31
3.0499999999999998
 12
-1.149999999999999
 22
1.55
 32
3.1899999999999991
 13
-1.139999999999999
 23
1.54
 33
3.1899999999999991
  0
3DFACE
  5
820
  8
CARGO_BAY
 10
-1.159999999999997
 20
1.5299999999999989
 30
3.0499999999999998
 11
-1.149999999999997
 21
1.54
 31
3.0499999999999998
 12
-1.139999999999999
 22
1.54
 32
3.1899999999999991
 13
-1.149999999999999
 23
1.5299999999999989
 33
3.1899999999999991
  0
3DFACE
  5
821
  8
CARGO_BAY
 10
-1.169999999999997
 20
1.54
 30
3.0499999999999998
 11
-1.159999999999997
 21
1.5299999999999989
 31
3.0499999999999998
 12
-1.149999999999999
 22
1.5299999999999989
 32
3.1899999999999991
 13
-1.159999999999999
 23
1.54
 33
3.1899999999999991
  0
3DFACE
  5
822
  8
CARGO_BAY
 10
-1.159999999999997
 20
1.55
 30
3.0499999999999998
 11
-1.169999999999997
 21
1.54
 31
3.0499999999999998
 12
-1.159999999999999
 22
1.54
 32
3.1899999999999991
 13
-1.149999999999999
 23
1.55
 33
3.1899999999999991
  0
3DFACE
  5
823
  8
CARGO_BAY
 10
1.1499999999999979
 20
1.5399999999999989
 30
3.0499999999999998
 11
1.159999999999997
 21
1.53
 31
3.0499999999999998
 12
1.149999999999999
 22
1.53
 32
3.1899999999999991
 13
1.1399999999999999
 23
1.5399999999999989
 33
3.1899999999999991
  0
3DFACE
  5
824
  8
CARGO_BAY
 10
1.159999999999997
 20
1.55
 30
3.0499999999999998
 11
1.1499999999999979
 21
1.5399999999999989
 31
3.0499999999999998
 12
1.1399999999999999
 22
1.5399999999999989
 32
3.1899999999999991
 13
1.149999999999999
 23
1.55
 33
3.1899999999999991
  0
3DFACE
  5
825
  8
CARGO_BAY
 10
1.169999999999997
 20
1.5399999999999989
 30
3.0499999999999998
 11
1.159999999999997
 21
1.55
 31
3.0499999999999998
 12
1.149999999999999
 22
1.55
 32
3.1899999999999991
 13
1.159999999999999
 23
1.5399999999999989
 33
3.1899999999999991
  0
3DFACE
  5
826
  8
CARGO_BAY
 10
1.159999999999997
 20
1.53
 30
3.0499999999999998
 11
1.169999999999997
 21
1.5399999999999989
 31
3.0499999999999998
 12
1.159999999999999
 22
1.5399999999999989
 32
3.1899999999999991
 13
1.149999999999999
 23
1.53
 33
3.1899999999999991
  0
3DFACE
  5
827
  8
CARGO_BAY
 10
1.1399999999999979
 20
1.5399999999999989
 30
3.1899999999999991
 11
1.1499999999999979
 21
1.53
 31
3.1899999999999991
 12
1.0900000000000001
 22
1.53
 32
3.2999999999999998
 13
1.0800000000000001
 23
1.5399999999999989
 33
3.29
  0
3DFACE
  5
828
  8
CARGO_BAY
 10
1.1499999999999979
 20
1.55
 30
3.1899999999999991
 11
1.1399999999999979
 21
1.5399999999999989
 31
3.1899999999999991
 12
1.0800000000000001
 22
1.5399999999999989
 32
3.29
 13
1.0900000000000001
 23
1.55
 33
3.2999999999999998
  0
3DFACE
  5
829
  8
CARGO_BAY
 10
-1.139999999999997
 20
1.54
 30
3.1899999999999991
 11
-1.149999999999997
 21
1.55
 31
3.1899999999999991
 12
-1.089999999999999
 22
1.55
 32
3.2999999999999998
 13
-1.0800000000000001
 23
1.54
 33
3.29
  0
3DFACE
  5
82A
  8
CARGO_BAY
 10
-1.149999999999997
 20
1.5299999999999989
 30
3.1899999999999991
 11
-1.139999999999997
 21
1.54
 31
3.1899999999999991
 12
-1.0800000000000001
 22
1.54
 32
3.29
 13
-1.089999999999999
 23
1.5299999999999989
 33
3.2999999999999998
  0
3DFACE
  5
82B
  8
CARGO_BAY
 10
0.5300000000000003
 20
1.54
 30
3.359999999999999
 11
0.5300000000000003
 21
1.53
 31
3.3700000000000001
 12
-0.5300000000000003
 22
1.53
 32
3.3700000000000001
 13
-0.5300000000000003
 23
1.54
 33
3.359999999999999
  0
3DFACE
  5
82C
  8
CARGO_BAY
 10
0.5300000000000003
 20
1.55
 30
3.3700000000000001
 11
0.5300000000000003
 21
1.54
 31
3.359999999999999
 12
-0.5300000000000003
 22
1.54
 32
3.359999999999999
 13
-0.5300000000000003
 23
1.55
 33
3.3700000000000001
  0
3DFACE
  5
82D
  8
CARGO_BAY
 10
0.5300000000000003
 20
1.54
 30
3.379999999999999
 11
0.5300000000000003
 21
1.55
 31
3.3700000000000001
 12
-0.5300000000000003
 22
1.55
 32
3.3700000000000001
 13
-0.5300000000000003
 23
1.54
 33
3.379999999999999
  0
3DFACE
  5
82E
  8
CARGO_BAY
 10
0.5300000000000003
 20
1.53
 30
3.3700000000000001
 11
0.5300000000000003
 21
1.54
 31
3.379999999999999
 12
-0.5300000000000003
 22
1.54
 32
3.379999999999999
 13
-0.5300000000000003
 23
1.53
 33
3.3700000000000001
  0
3DFACE
  5
82F
  8
CARGO_BAY
 10
0.9700000000000002
 20
1.5399999999999989
 30
3.3399999999999981
 11
0.9700000000000002
 21
1.53
 31
3.349999999999997
 12
0.5299999999999998
 22
1.53
 32
3.3700000000000001
 13
0.5299999999999998
 23
1.54
 33
3.359999999999999
  0
3DFACE
  5
830
  8
CARGO_BAY
 10
0.9700000000000002
 20
1.55
 30
3.349999999999997
 11
0.9700000000000002
 21
1.5399999999999989
 31
3.3399999999999981
 12
0.5299999999999998
 22
1.54
 32
3.359999999999999
 13
0.5299999999999998
 23
1.55
 33
3.3700000000000001
  0
3DFACE
  5
831
  8
CARGO_BAY
 10
0.9700000000000002
 20
1.5399999999999989
 30
3.3599999999999972
 11
0.9700000000000002
 21
1.55
 31
3.349999999999997
 12
0.5299999999999998
 22
1.55
 32
3.3700000000000001
 13
0.5299999999999998
 23
1.54
 33
3.379999999999999
  0
3DFACE
  5
832
  8
CARGO_BAY
 10
0.9700000000000002
 20
1.53
 30
3.349999999999997
 11
0.9700000000000002
 21
1.5399999999999989
 31
3.3599999999999972
 12
0.5299999999999998
 22
1.54
 32
3.379999999999999
 13
0.5299999999999998
 23
1.53
 33
3.3700000000000001
  0
3DFACE
  5
833
  8
CARGO_BAY
 10
-0.9699999999999998
 20
1.54
 30
3.3399999999999981
 11
-0.9699999999999998
 21
1.55
 31
3.349999999999997
 12
-0.5299999999999994
 22
1.5499999999999989
 32
3.3700000000000001
 13
-0.5299999999999994
 23
1.54
 33
3.359999999999999
  0
3DFACE
  5
834
  8
CARGO_BAY
 10
-0.9699999999999998
 20
1.5299999999999989
 30
3.349999999999997
 11
-0.9699999999999998
 21
1.54
 31
3.3399999999999981
 12
-0.5299999999999994
 22
1.54
 32
3.359999999999999
 13
-0.5299999999999994
 23
1.5299999999999989
 33
3.3700000000000001
  0
3DFACE
  5
835
  8
CARGO_BAY
 10
-0.9699999999999998
 20
1.54
 30
3.3599999999999972
 11
-0.9699999999999998
 21
1.5299999999999989
 31
3.349999999999997
 12
-0.5299999999999994
 22
1.5299999999999989
 32
3.3700000000000001
 13
-0.5299999999999994
 23
1.54
 33
3.379999999999999
  0
3DFACE
  5
836
  8
CARGO_BAY
 10
-0.9699999999999998
 20
1.55
 30
3.349999999999997
 11
-0.9699999999999998
 21
1.54
 31
3.3599999999999972
 12
-0.5299999999999994
 22
1.54
 32
3.379999999999999
 13
-0.5299999999999994
 23
1.5499999999999989
 33
3.3700000000000001
  0
3DFACE
  5
837
  8
CARGO_BAY
 10
1.0900000000000001
 20
0.7700000000000001
 30
3.2999999999999998
 11
1.099999999999999
 21
0.7799999999999999
 31
3.3100000000000001
 12
0.9700000000000001
 22
0.7799999999999999
 32
3.359999999999999
 13
0.9700000000000001
 23
0.7700000000000001
 33
3.3500000000000001
  0
3DFACE
  5
838
  8
CARGO_BAY
 10
1.099999999999999
 20
0.7799999999999999
 30
3.3100000000000001
 11
1.0900000000000001
 21
0.7900000000000006
 31
3.2999999999999998
 12
0.9700000000000001
 22
0.7900000000000006
 32
3.3500000000000001
 13
0.9700000000000001
 23
0.7799999999999999
 33
3.359999999999999
  0
3DFACE
  5
839
  8
CARGO_BAY
 10
1.0900000000000001
 20
0.7900000000000006
 30
3.2999999999999998
 11
1.0800000000000001
 21
0.7799999999999999
 31
3.29
 12
0.9700000000000001
 22
0.7799999999999999
 32
3.339999999999999
 13
0.9700000000000001
 23
0.7900000000000006
 33
3.3500000000000001
  0
3DFACE
  5
83A
  8
CARGO_BAY
 10
1.0800000000000001
 20
0.7799999999999999
 30
3.29
 11
1.0900000000000001
 21
0.7700000000000001
 31
3.2999999999999998
 12
0.9700000000000001
 22
0.7700000000000001
 32
3.3500000000000001
 13
0.9700000000000001
 23
0.7799999999999999
 33
3.339999999999999
  0
3DFACE
  5
83B
  8
CARGO_BAY
 10
1.149999999999997
 20
0.7700000000000001
 30
3.1899999999999991
 11
1.159999999999997
 21
0.7799999999999999
 31
3.1899999999999991
 12
1.099999999999999
 22
0.7799999999999999
 32
3.3100000000000001
 13
1.0900000000000001
 23
0.7700000000000001
 33
3.2999999999999998
  0
3DFACE
  5
83C
  8
CARGO_BAY
 10
1.159999999999997
 20
0.7799999999999999
 30
3.1899999999999991
 11
1.149999999999997
 21
0.7900000000000006
 31
3.1899999999999991
 12
1.0900000000000001
 22
0.7900000000000006
 32
3.2999999999999998
 13
1.099999999999999
 23
0.7799999999999999
 33
3.3100000000000001
  0
3DFACE
  5
83D
  8
CARGO_BAY
 10
-1.149999999999997
 20
0.79
 30
3.1899999999999991
 11
-1.159999999999997
 21
0.7800000000000003
 31
3.1899999999999991
 12
-1.099999999999999
 22
0.7800000000000003
 32
3.3100000000000001
 13
-1.0900000000000001
 23
0.79
 33
3.2999999999999998
  0
3DFACE
  5
83E
  8
CARGO_BAY
 10
-1.159999999999997
 20
0.7800000000000003
 30
3.1899999999999991
 11
-1.149999999999997
 21
0.7699999999999995
 31
3.1899999999999991
 12
-1.0900000000000001
 22
0.7699999999999995
 32
3.2999999999999998
 13
-1.099999999999999
 23
0.7800000000000003
 33
3.3100000000000001
  0
3DFACE
  5
83F
  8
CARGO_BAY
 10
-1.0900000000000001
 20
0.79
 30
3.2999999999999998
 11
-1.099999999999999
 21
0.7800000000000003
 31
3.3100000000000001
 12
-0.9699999999999999
 22
0.7800000000000003
 32
3.359999999999999
 13
-0.9699999999999999
 23
0.79
 33
3.3500000000000001
  0
3DFACE
  5
840
  8
CARGO_BAY
 10
-1.099999999999999
 20
0.7800000000000003
 30
3.3100000000000001
 11
-1.0900000000000001
 21
0.7699999999999995
 31
3.2999999999999998
 12
-0.9699999999999999
 22
0.7699999999999995
 32
3.3500000000000001
 13
-0.9699999999999999
 23
0.7800000000000003
 33
3.359999999999999
  0
3DFACE
  5
841
  8
CARGO_BAY
 10
-1.0900000000000001
 20
0.7699999999999995
 30
3.2999999999999998
 11
-1.0800000000000001
 21
0.7800000000000003
 31
3.29
 12
-0.9699999999999999
 22
0.7800000000000003
 32
3.339999999999999
 13
-0.9699999999999999
 23
0.7699999999999995
 33
3.3500000000000001
  0
3DFACE
  5
842
  8
CARGO_BAY
 10
-1.0800000000000001
 20
0.7800000000000003
 30
3.29
 11
-1.0900000000000001
 21
0.79
 31
3.2999999999999998
 12
-0.9699999999999999
 22
0.79
 32
3.3500000000000001
 13
-0.9699999999999999
 23
0.7800000000000003
 33
3.339999999999999
  0
3DFACE
  5
843
  8
CARGO_BAY
 10
1.1799999999999979
 20
0.7700000000000001
 30
2.4500000000000002
 11
1.1899999999999971
 21
0.7799999999999999
 31
2.4500000000000002
 12
1.1699999999999999
 22
0.7799999999999999
 32
3.0499999999999998
 13
1.159999999999999
 23
0.7700000000000001
 33
3.0499999999999998
  0
3DFACE
  5
844
  8
CARGO_BAY
 10
1.1899999999999971
 20
0.7799999999999999
 30
2.4500000000000002
 11
1.1799999999999979
 21
0.7900000000000006
 31
2.4500000000000002
 12
1.159999999999999
 22
0.7900000000000006
 32
3.0499999999999998
 13
1.1699999999999999
 23
0.7799999999999999
 33
3.0499999999999998
  0
3DFACE
  5
845
  8
CARGO_BAY
 10
1.1799999999999979
 20
0.7900000000000006
 30
2.4500000000000002
 11
1.1699999999999979
 21
0.7799999999999999
 31
2.4500000000000002
 12
1.149999999999999
 22
0.7799999999999999
 32
3.0499999999999998
 13
1.159999999999999
 23
0.7900000000000006
 33
3.0499999999999998
  0
3DFACE
  5
846
  8
CARGO_BAY
 10
1.1699999999999979
 20
0.7799999999999999
 30
2.4500000000000002
 11
1.1799999999999979
 21
0.7700000000000001
 31
2.4500000000000002
 12
1.159999999999999
 22
0.7700000000000001
 32
3.0499999999999998
 13
1.149999999999999
 23
0.7799999999999999
 33
3.0499999999999998
  0
3DFACE
  5
847
  8
CARGO_BAY
 10
-1.1799999999999979
 20
0.79
 30
2.4500000000000002
 11
-1.1899999999999971
 21
0.7800000000000003
 31
2.4500000000000002
 12
-1.1699999999999999
 22
0.7800000000000003
 32
3.0499999999999998
 13
-1.159999999999999
 23
0.79
 33
3.0499999999999998
  0
3DFACE
  5
848
  8
CARGO_BAY
 10
-1.1899999999999971
 20
0.7800000000000003
 30
2.4500000000000002
 11
-1.1799999999999979
 21
0.7699999999999995
 31
2.4500000000000002
 12
-1.159999999999999
 22
0.7699999999999995
 32
3.0499999999999998
 13
-1.1699999999999999
 23
0.7800000000000003
 33
3.0499999999999998
  0
3DFACE
  5
849
  8
CARGO_BAY
 10
-1.1799999999999979
 20
0.7699999999999995
 30
2.4500000000000002
 11
-1.1699999999999979
 21
0.7800000000000003
 31
2.4500000000000002
 12
-1.149999999999999
 22
0.7800000000000003
 32
3.0499999999999998
 13
-1.159999999999999
 23
0.7699999999999995
 33
3.0499999999999998
  0
3DFACE
  5
84A
  8
CARGO_BAY
 10
-1.1699999999999979
 20
0.7800000000000003
 30
2.4500000000000002
 11
-1.1799999999999979
 21
0.79
 31
2.4500000000000002
 12
-1.159999999999999
 22
0.79
 32
3.0499999999999998
 13
-1.149999999999999
 23
0.7800000000000003
 33
3.0499999999999998
  0
3DFACE
  5
84B
  8
CARGO_BAY
 10
1.159999999999997
 20
0.7700000000000001
 30
3.0499999999999998
 11
1.169999999999997
 21
0.7799999999999999
 31
3.0499999999999998
 12
1.159999999999999
 22
0.7799999999999999
 32
3.1899999999999991
 13
1.149999999999999
 23
0.7700000000000001
 33
3.1899999999999991
  0
3DFACE
  5
84C
  8
CARGO_BAY
 10
1.169999999999997
 20
0.7799999999999999
 30
3.0499999999999998
 11
1.159999999999997
 21
0.7900000000000006
 31
3.0499999999999998
 12
1.149999999999999
 22
0.7900000000000006
 32
3.1899999999999991
 13
1.159999999999999
 23
0.7799999999999999
 33
3.1899999999999991
  0
3DFACE
  5
84D
  8
CARGO_BAY
 10
1.159999999999997
 20
0.7900000000000006
 30
3.0499999999999998
 11
1.149999999999997
 21
0.7799999999999999
 31
3.0499999999999998
 12
1.139999999999999
 22
0.7799999999999999
 32
3.1899999999999991
 13
1.149999999999999
 23
0.7900000000000006
 33
3.1899999999999991
  0
3DFACE
  5
84E
  8
CARGO_BAY
 10
1.149999999999997
 20
0.7799999999999999
 30
3.0499999999999998
 11
1.159999999999997
 21
0.7700000000000001
 31
3.0499999999999998
 12
1.149999999999999
 22
0.7700000000000001
 32
3.1899999999999991
 13
1.139999999999999
 23
0.7799999999999999
 33
3.1899999999999991
  0
3DFACE
  5
84F
  8
CARGO_BAY
 10
-1.159999999999997
 20
0.79
 30
3.0499999999999998
 11
-1.169999999999997
 21
0.7800000000000003
 31
3.0499999999999998
 12
-1.159999999999999
 22
0.7800000000000003
 32
3.1899999999999991
 13
-1.149999999999999
 23
0.79
 33
3.1899999999999991
  0
3DFACE
  5
850
  8
CARGO_BAY
 10
-1.169999999999997
 20
0.7800000000000003
 30
3.0499999999999998
 11
-1.159999999999997
 21
0.7699999999999995
 31
3.0499999999999998
 12
-1.149999999999999
 22
0.7699999999999995
 32
3.1899999999999991
 13
-1.159999999999999
 23
0.7800000000000003
 33
3.1899999999999991
  0
3DFACE
  5
851
  8
CARGO_BAY
 10
-1.159999999999997
 20
0.7699999999999995
 30
3.0499999999999998
 11
-1.149999999999997
 21
0.7800000000000003
 31
3.0499999999999998
 12
-1.139999999999999
 22
0.7800000000000003
 32
3.1899999999999991
 13
-1.149999999999999
 23
0.7699999999999995
 33
3.1899999999999991
  0
3DFACE
  5
852
  8
CARGO_BAY
 10
-1.149999999999997
 20
0.7800000000000003
 30
3.0499999999999998
 11
-1.159999999999997
 21
0.79
 31
3.0499999999999998
 12
-1.149999999999999
 22
0.79
 32
3.1899999999999991
 13
-1.139999999999999
 23
0.7800000000000003
 33
3.1899999999999991
  0
3DFACE
  5
853
  8
CARGO_BAY
 10
1.149999999999997
 20
0.7900000000000006
 30
3.1899999999999991
 11
1.1399999999999979
 21
0.7799999999999999
 31
3.1899999999999991
 12
1.0800000000000001
 22
0.7799999999999999
 32
3.29
 13
1.0900000000000001
 23
0.7900000000000006
 33
3.2999999999999998
  0
3DFACE
  5
854
  8
CARGO_BAY
 10
1.1399999999999979
 20
0.7799999999999999
 30
3.1899999999999991
 11
1.149999999999997
 21
0.7700000000000001
 31
3.1899999999999991
 12
1.0900000000000001
 22
0.7700000000000001
 32
3.2999999999999998
 13
1.0800000000000001
 23
0.7799999999999999
 33
3.29
  0
3DFACE
  5
855
  8
CARGO_BAY
 10
-1.149999999999997
 20
0.7699999999999995
 30
3.1899999999999991
 11
-1.1399999999999979
 21
0.7800000000000003
 31
3.1899999999999991
 12
-1.0800000000000001
 22
0.7800000000000003
 32
3.29
 13
-1.0900000000000001
 23
0.7699999999999995
 33
3.2999999999999998
  0
3DFACE
  5
856
  8
CARGO_BAY
 10
-1.1399999999999979
 20
0.7800000000000003
 30
3.1899999999999991
 11
-1.149999999999997
 21
0.79
 31
3.1899999999999991
 12
-1.0900000000000001
 22
0.79
 32
3.2999999999999998
 13
-1.0800000000000001
 23
0.7800000000000003
 33
3.29
  0
3DFACE
  5
857
  8
CARGO_BAY
 10
0.5300000000000003
 20
0.7700000000000001
 30
3.3700000000000001
 11
0.5300000000000003
 21
0.7799999999999999
 31
3.379999999999999
 12
-0.5300000000000004
 22
0.7800000000000003
 32
3.379999999999999
 13
-0.5300000000000004
 23
0.7700000000000004
 33
3.3700000000000001
  0
3DFACE
  5
858
  8
CARGO_BAY
 10
0.5300000000000003
 20
0.7799999999999999
 30
3.379999999999999
 11
0.5300000000000003
 21
0.7900000000000006
 31
3.3700000000000001
 12
-0.5300000000000004
 22
0.7900000000000009
 32
3.3700000000000001
 13
-0.5300000000000004
 23
0.7800000000000003
 33
3.379999999999999
  0
3DFACE
  5
859
  8
CARGO_BAY
 10
0.5300000000000003
 20
0.7900000000000006
 30
3.3700000000000001
 11
0.5300000000000003
 21
0.7799999999999999
 31
3.359999999999999
 12
-0.5300000000000004
 22
0.7800000000000003
 32
3.359999999999999
 13
-0.5300000000000004
 23
0.7900000000000009
 33
3.3700000000000001
  0
3DFACE
  5
85A
  8
CARGO_BAY
 10
0.5300000000000003
 20
0.7799999999999999
 30
3.359999999999999
 11
0.5300000000000003
 21
0.7700000000000001
 31
3.3700000000000001
 12
-0.5300000000000004
 22
0.7700000000000004
 32
3.3700000000000001
 13
-0.5300000000000004
 23
0.7800000000000003
 33
3.359999999999999
  0
3DFACE
  5
85B
  8
CARGO_BAY
 10
0.9700000000000001
 20
0.7700000000000001
 30
3.349999999999997
 11
0.9700000000000001
 21
0.7799999999999999
 31
3.3599999999999972
 12
0.5299999999999998
 22
0.7799999999999999
 32
3.379999999999999
 13
0.5299999999999998
 23
0.7700000000000001
 33
3.3700000000000001
  0
3DFACE
  5
85C
  8
CARGO_BAY
 10
0.9700000000000001
 20
0.7799999999999999
 30
3.3599999999999972
 11
0.9700000000000001
 21
0.7900000000000006
 31
3.349999999999997
 12
0.5299999999999998
 22
0.7900000000000006
 32
3.3700000000000001
 13
0.5299999999999998
 23
0.7799999999999999
 33
3.379999999999999
  0
3DFACE
  5
85D
  8
CARGO_BAY
 10
0.9700000000000001
 20
0.7900000000000006
 30
3.349999999999997
 11
0.9700000000000001
 21
0.7799999999999999
 31
3.3399999999999981
 12
0.5299999999999998
 22
0.7799999999999999
 32
3.359999999999999
 13
0.5299999999999998
 23
0.7900000000000006
 33
3.3700000000000001
  0
3DFACE
  5
85E
  8
CARGO_BAY
 10
0.9700000000000001
 20
0.7799999999999999
 30
3.3399999999999981
 11
0.9700000000000001
 21
0.7700000000000001
 31
3.349999999999997
 12
0.5299999999999998
 22
0.7700000000000001
 32
3.3700000000000001
 13
0.5299999999999998
 23
0.7799999999999999
 33
3.359999999999999
  0
3DFACE
  5
85F
  8
CARGO_BAY
 10
-0.9699999999999999
 20
0.79
 30
3.349999999999997
 11
-0.9699999999999999
 21
0.7800000000000003
 31
3.3599999999999972
 12
-0.5299999999999995
 22
0.7800000000000003
 32
3.379999999999999
 13
-0.5299999999999995
 23
0.79
 33
3.3700000000000001
  0
3DFACE
  5
860
  8
CARGO_BAY
 10
-0.9699999999999999
 20
0.7800000000000003
 30
3.3599999999999972
 11
-0.9699999999999999
 21
0.7699999999999995
 31
3.349999999999997
 12
-0.5299999999999995
 22
0.7699999999999995
 32
3.3700000000000001
 13
-0.5299999999999995
 23
0.7800000000000003
 33
3.379999999999999
  0
3DFACE
  5
861
  8
CARGO_BAY
 10
-0.9699999999999999
 20
0.7699999999999995
 30
3.349999999999997
 11
-0.9699999999999999
 21
0.7800000000000003
 31
3.3399999999999981
 12
-0.5299999999999995
 22
0.7800000000000003
 32
3.359999999999999
 13
-0.5299999999999995
 23
0.7699999999999995
 33
3.3700000000000001
  0
3DFACE
  5
862
  8
CARGO_BAY
 10
-0.9699999999999999
 20
0.7800000000000003
 30
3.3399999999999981
 11
-0.9699999999999999
 21
0.79
 31
3.349999999999997
 12
-0.5299999999999995
 22
0.79
 32
3.3700000000000001
 13
-0.5299999999999995
 23
0.7800000000000003
 33
3.359999999999999
  0
3DFACE
  5
863
  8
CARGO_BAY
 10
-1.0800000000000001
 20
0.1300000000000001
 30
3.29
 11
-1.0900000000000001
 21
0.1399999999999999
 31
3.2999999999999998
 12
-0.9699999999999999
 22
0.1399999999999999
 32
3.3500000000000001
 13
-0.9699999999999999
 23
0.1300000000000001
 33
3.339999999999999
  0
3DFACE
  5
864
  8
CARGO_BAY
 10
-1.0900000000000001
 20
0.1199999999999995
 30
3.2999999999999998
 11
-1.0800000000000001
 21
0.1300000000000001
 31
3.29
 12
-0.9699999999999999
 22
0.1300000000000001
 32
3.339999999999999
 13
-0.9699999999999999
 23
0.1199999999999995
 33
3.3500000000000001
  0
3DFACE
  5
865
  8
CARGO_BAY
 10
-1.099999999999999
 20
0.1300000000000001
 30
3.3100000000000001
 11
-1.0900000000000001
 21
0.1199999999999995
 31
3.2999999999999998
 12
-0.9699999999999999
 22
0.1199999999999995
 32
3.3500000000000001
 13
-0.9699999999999999
 23
0.1300000000000001
 33
3.359999999999999
  0
3DFACE
  5
866
  8
CARGO_BAY
 10
-1.0900000000000001
 20
0.1399999999999999
 30
3.2999999999999998
 11
-1.099999999999999
 21
0.1300000000000001
 31
3.3100000000000001
 12
-0.9699999999999999
 22
0.1300000000000001
 32
3.359999999999999
 13
-0.9699999999999999
 23
0.1399999999999999
 33
3.3500000000000001
  0
3DFACE
  5
867
  8
CARGO_BAY
 10
-1.159999999999997
 20
0.1300000000000001
 30
3.1899999999999991
 11
-1.149999999999997
 21
0.1199999999999995
 31
3.1899999999999991
 12
-1.0900000000000001
 22
0.1199999999999995
 32
3.2999999999999998
 13
-1.099999999999999
 23
0.1300000000000001
 33
3.3100000000000001
  0
3DFACE
  5
868
  8
CARGO_BAY
 10
-1.149999999999997
 20
0.1399999999999999
 30
3.1899999999999991
 11
-1.159999999999997
 21
0.1300000000000001
 31
3.1899999999999991
 12
-1.099999999999999
 22
0.1300000000000001
 32
3.3100000000000001
 13
-1.0900000000000001
 23
0.1399999999999999
 33
3.2999999999999998
  0
3DFACE
  5
869
  8
CARGO_BAY
 10
1.159999999999997
 20
0.1299999999999999
 30
3.1899999999999991
 11
1.149999999999997
 21
0.1400000000000005
 31
3.1899999999999991
 12
1.0900000000000001
 22
0.1400000000000005
 32
3.2999999999999998
 13
1.099999999999999
 23
0.1299999999999999
 33
3.3100000000000001
  0
3DFACE
  5
86A
  8
CARGO_BAY
 10
1.149999999999997
 20
0.1200000000000001
 30
3.1899999999999991
 11
1.159999999999997
 21
0.1299999999999999
 31
3.1899999999999991
 12
1.099999999999999
 22
0.1299999999999999
 32
3.3100000000000001
 13
1.0900000000000001
 23
0.1200000000000001
 33
3.2999999999999998
  0
3DFACE
  5
86B
  8
CARGO_BAY
 10
1.0800000000000001
 20
0.1299999999999999
 30
3.29
 11
1.0900000000000001
 21
0.1200000000000001
 31
3.2999999999999998
 12
0.9699999999999999
 22
0.1200000000000001
 32
3.3500000000000001
 13
0.9699999999999999
 23
0.1299999999999999
 33
3.339999999999999
  0
3DFACE
  5
86C
  8
CARGO_BAY
 10
1.0900000000000001
 20
0.1400000000000005
 30
3.2999999999999998
 11
1.0800000000000001
 21
0.1299999999999999
 31
3.29
 12
0.9699999999999999
 22
0.1299999999999999
 32
3.339999999999999
 13
0.9699999999999999
 23
0.1400000000000006
 33
3.3500000000000001
  0
3DFACE
  5
86D
  8
CARGO_BAY
 10
1.099999999999999
 20
0.1299999999999999
 30
3.3100000000000001
 11
1.0900000000000001
 21
0.1400000000000005
 31
3.2999999999999998
 12
0.9699999999999999
 22
0.1400000000000006
 32
3.3500000000000001
 13
0.9699999999999999
 23
0.1299999999999999
 33
3.359999999999999
  0
3DFACE
  5
86E
  8
CARGO_BAY
 10
1.0900000000000001
 20
0.1200000000000001
 30
3.2999999999999998
 11
1.099999999999999
 21
0.1299999999999999
 31
3.3100000000000001
 12
0.9699999999999999
 22
0.1299999999999999
 32
3.359999999999999
 13
0.9699999999999999
 23
0.1200000000000001
 33
3.3500000000000001
  0
3DFACE
  5
86F
  8
CARGO_BAY
 10
-1.1699999999999979
 20
0.1300000000000001
 30
2.4500000000000002
 11
-1.1799999999999979
 21
0.1399999999999999
 31
2.4500000000000002
 12
-1.159999999999999
 22
0.1399999999999999
 32
3.0499999999999998
 13
-1.149999999999999
 23
0.1300000000000001
 33
3.0499999999999998
  0
3DFACE
  5
870
  8
CARGO_BAY
 10
-1.1799999999999979
 20
0.1199999999999995
 30
2.4500000000000002
 11
-1.1699999999999979
 21
0.1300000000000001
 31
2.4500000000000002
 12
-1.149999999999999
 22
0.1300000000000001
 32
3.0499999999999998
 13
-1.159999999999999
 23
0.1199999999999995
 33
3.0499999999999998
  0
3DFACE
  5
871
  8
CARGO_BAY
 10
-1.1899999999999971
 20
0.1300000000000001
 30
2.4500000000000002
 11
-1.1799999999999979
 21
0.1199999999999995
 31
2.4500000000000002
 12
-1.159999999999999
 22
0.1199999999999995
 32
3.0499999999999998
 13
-1.1699999999999999
 23
0.1300000000000001
 33
3.0499999999999998
  0
3DFACE
  5
872
  8
CARGO_BAY
 10
-1.1799999999999979
 20
0.1399999999999999
 30
2.4500000000000002
 11
-1.1899999999999971
 21
0.1300000000000001
 31
2.4500000000000002
 12
-1.1699999999999999
 22
0.1300000000000001
 32
3.0499999999999998
 13
-1.159999999999999
 23
0.1399999999999999
 33
3.0499999999999998
  0
3DFACE
  5
873
  8
CARGO_BAY
 10
1.1699999999999979
 20
0.1299999999999999
 30
2.4500000000000002
 11
1.1799999999999979
 21
0.1200000000000001
 31
2.4500000000000002
 12
1.159999999999999
 22
0.1200000000000001
 32
3.0499999999999998
 13
1.149999999999999
 23
0.1299999999999999
 33
3.0499999999999998
  0
3DFACE
  5
874
  8
CARGO_BAY
 10
1.1799999999999979
 20
0.1400000000000005
 30
2.4500000000000002
 11
1.1699999999999979
 21
0.1299999999999999
 31
2.4500000000000002
 12
1.149999999999999
 22
0.1299999999999999
 32
3.0499999999999998
 13
1.159999999999999
 23
0.1400000000000005
 33
3.0499999999999998
  0
3DFACE
  5
875
  8
CARGO_BAY
 10
1.1899999999999971
 20
0.1299999999999999
 30
2.4500000000000002
 11
1.1799999999999979
 21
0.1400000000000005
 31
2.4500000000000002
 12
1.159999999999999
 22
0.1400000000000005
 32
3.0499999999999998
 13
1.1699999999999999
 23
0.1299999999999999
 33
3.0499999999999998
  0
3DFACE
  5
876
  8
CARGO_BAY
 10
1.1799999999999979
 20
0.1200000000000001
 30
2.4500000000000002
 11
1.1899999999999971
 21
0.1299999999999999
 31
2.4500000000000002
 12
1.1699999999999999
 22
0.1299999999999999
 32
3.0499999999999998
 13
1.159999999999999
 23
0.1200000000000001
 33
3.0499999999999998
  0
3DFACE
  5
877
  8
CARGO_BAY
 10
-1.149999999999997
 20
0.1300000000000001
 30
3.0499999999999998
 11
-1.159999999999997
 21
0.1399999999999999
 31
3.0499999999999998
 12
-1.149999999999999
 22
0.1399999999999999
 32
3.1899999999999991
 13
-1.139999999999999
 23
0.1300000000000001
 33
3.1899999999999991
  0
3DFACE
  5
878
  8
CARGO_BAY
 10
-1.159999999999997
 20
0.1199999999999995
 30
3.0499999999999998
 11
-1.149999999999997
 21
0.1300000000000001
 31
3.0499999999999998
 12
-1.139999999999999
 22
0.1300000000000001
 32
3.1899999999999991
 13
-1.149999999999999
 23
0.1199999999999995
 33
3.1899999999999991
  0
3DFACE
  5
879
  8
CARGO_BAY
 10
-1.169999999999997
 20
0.1300000000000001
 30
3.0499999999999998
 11
-1.159999999999997
 21
0.1199999999999995
 31
3.0499999999999998
 12
-1.149999999999999
 22
0.1199999999999995
 32
3.1899999999999991
 13
-1.159999999999999
 23
0.1300000000000001
 33
3.1899999999999991
  0
3DFACE
  5
87A
  8
CARGO_BAY
 10
-1.159999999999997
 20
0.1399999999999999
 30
3.0499999999999998
 11
-1.169999999999997
 21
0.1300000000000001
 31
3.0499999999999998
 12
-1.159999999999999
 22
0.1300000000000001
 32
3.1899999999999991
 13
-1.149999999999999
 23
0.1399999999999999
 33
3.1899999999999991
  0
3DFACE
  5
87B
  8
CARGO_BAY
 10
1.149999999999997
 20
0.1299999999999999
 30
3.0499999999999998
 11
1.159999999999997
 21
0.1200000000000001
 31
3.0499999999999998
 12
1.149999999999999
 22
0.1200000000000001
 32
3.1899999999999991
 13
1.139999999999999
 23
0.1299999999999999
 33
3.1899999999999991
  0
3DFACE
  5
87C
  8
CARGO_BAY
 10
1.159999999999997
 20
0.1400000000000005
 30
3.0499999999999998
 11
1.149999999999997
 21
0.1299999999999999
 31
3.0499999999999998
 12
1.139999999999999
 22
0.1299999999999999
 32
3.1899999999999991
 13
1.149999999999999
 23
0.1400000000000005
 33
3.1899999999999991
  0
3DFACE
  5
87D
  8
CARGO_BAY
 10
1.169999999999997
 20
0.1299999999999999
 30
3.0499999999999998
 11
1.159999999999997
 21
0.1400000000000005
 31
3.0499999999999998
 12
1.149999999999999
 22
0.1400000000000005
 32
3.1899999999999991
 13
1.159999999999999
 23
0.1299999999999999
 33
3.1899999999999991
  0
3DFACE
  5
87E
  8
CARGO_BAY
 10
1.159999999999997
 20
0.1200000000000001
 30
3.0499999999999998
 11
1.169999999999997
 21
0.1299999999999999
 31
3.0499999999999998
 12
1.159999999999999
 22
0.1299999999999999
 32
3.1899999999999991
 13
1.149999999999999
 23
0.1200000000000001
 33
3.1899999999999991
  0
3DFACE
  5
87F
  8
CARGO_BAY
 10
1.1399999999999979
 20
0.1299999999999999
 30
3.1899999999999991
 11
1.149999999999997
 21
0.1200000000000001
 31
3.1899999999999991
 12
1.0900000000000001
 22
0.1200000000000001
 32
3.2999999999999998
 13
1.0800000000000001
 23
0.1299999999999999
 33
3.29
  0
3DFACE
  5
880
  8
CARGO_BAY
 10
1.149999999999997
 20
0.1400000000000005
 30
3.1899999999999991
 11
1.1399999999999979
 21
0.1299999999999999
 31
3.1899999999999991
 12
1.0800000000000001
 22
0.1299999999999999
 32
3.29
 13
1.0900000000000001
 23
0.1400000000000005
 33
3.2999999999999998
  0
3DFACE
  5
881
  8
CARGO_BAY
 10
-1.1399999999999979
 20
0.1300000000000001
 30
3.1899999999999991
 11
-1.149999999999997
 21
0.1399999999999999
 31
3.1899999999999991
 12
-1.0900000000000001
 22
0.1399999999999999
 32
3.2999999999999998
 13
-1.0800000000000001
 23
0.1300000000000001
 33
3.29
  0
3DFACE
  5
882
  8
CARGO_BAY
 10
-1.149999999999997
 20
0.1199999999999995
 30
3.1899999999999991
 11
-1.1399999999999979
 21
0.1300000000000001
 31
3.1899999999999991
 12
-1.0800000000000001
 22
0.1300000000000001
 32
3.29
 13
-1.0900000000000001
 23
0.1199999999999995
 33
3.2999999999999998
  0
3DFACE
  5
883
  8
CARGO_BAY
 10
0.5300000000000001
 20
0.1299999999999999
 30
3.359999999999999
 11
0.5300000000000001
 21
0.1200000000000001
 31
3.3700000000000001
 12
-0.5300000000000005
 22
0.1200000000000003
 32
3.3700000000000001
 13
-0.5300000000000005
 23
0.1300000000000001
 33
3.359999999999999
  0
3DFACE
  5
884
  8
CARGO_BAY
 10
0.5300000000000001
 20
0.1400000000000006
 30
3.3700000000000001
 11
0.5300000000000001
 21
0.1299999999999999
 31
3.359999999999999
 12
-0.5300000000000005
 22
0.1300000000000001
 32
3.359999999999999
 13
-0.5300000000000005
 23
0.1400000000000007
 33
3.3700000000000001
  0
3DFACE
  5
885
  8
CARGO_BAY
 10
0.5300000000000001
 20
0.1299999999999999
 30
3.379999999999999
 11
0.5300000000000001
 21
0.1400000000000006
 31
3.3700000000000001
 12
-0.5300000000000005
 22
0.1400000000000007
 32
3.3700000000000001
 13
-0.5300000000000005
 23
0.1300000000000001
 33
3.379999999999999
  0
3DFACE
  5
886
  8
CARGO_BAY
 10
0.5300000000000001
 20
0.1200000000000001
 30
3.3700000000000001
 11
0.5300000000000001
 21
0.1299999999999999
 31
3.379999999999999
 12
-0.5300000000000005
 22
0.1300000000000001
 32
3.379999999999999
 13
-0.5300000000000005
 23
0.1200000000000003
 33
3.3700000000000001
  0
3DFACE
  5
887
  8
CARGO_BAY
 10
0.9699999999999999
 20
0.1299999999999999
 30
3.3399999999999981
 11
0.9699999999999999
 21
0.1200000000000001
 31
3.349999999999997
 12
0.5299999999999996
 22
0.1200000000000001
 32
3.3700000000000001
 13
0.5299999999999996
 23
0.1299999999999999
 33
3.359999999999999
  0
3DFACE
  5
888
  8
CARGO_BAY
 10
0.9699999999999999
 20
0.1400000000000006
 30
3.349999999999997
 11
0.9699999999999999
 21
0.1299999999999999
 31
3.3399999999999981
 12
0.5299999999999996
 22
0.1299999999999999
 32
3.359999999999999
 13
0.5299999999999996
 23
0.1400000000000006
 33
3.3700000000000001
  0
3DFACE
  5
889
  8
CARGO_BAY
 10
0.9699999999999999
 20
0.1299999999999999
 30
3.3599999999999972
 11
0.9699999999999999
 21
0.1400000000000006
 31
3.349999999999997
 12
0.5299999999999996
 22
0.1400000000000006
 32
3.3700000000000001
 13
0.5299999999999996
 23
0.1299999999999999
 33
3.379999999999999
  0
3DFACE
  5
88A
  8
CARGO_BAY
 10
0.9699999999999999
 20
0.1200000000000001
 30
3.349999999999997
 11
0.9699999999999999
 21
0.1299999999999999
 31
3.3599999999999972
 12
0.5299999999999996
 22
0.1299999999999999
 32
3.379999999999999
 13
0.5299999999999996
 23
0.1200000000000001
 33
3.3700000000000001
  0
3DFACE
  5
88B
  8
CARGO_BAY
 10
-0.9699999999999999
 20
0.1300000000000001
 30
3.3399999999999981
 11
-0.9699999999999999
 21
0.1399999999999999
 31
3.349999999999997
 12
-0.5299999999999996
 22
0.1399999999999999
 32
3.3700000000000001
 13
-0.5299999999999996
 23
0.1300000000000001
 33
3.359999999999999
  0
3DFACE
  5
88C
  8
CARGO_BAY
 10
-0.9699999999999999
 20
0.1199999999999995
 30
3.349999999999997
 11
-0.9699999999999999
 21
0.1300000000000001
 31
3.3399999999999981
 12
-0.5299999999999996
 22
0.1300000000000001
 32
3.359999999999999
 13
-0.5299999999999996
 23
0.1199999999999994
 33
3.3700000000000001
  0
3DFACE
  5
88D
  8
CARGO_BAY
 10
-0.9699999999999999
 20
0.1300000000000001
 30
3.3599999999999972
 11
-0.9699999999999999
 21
0.1199999999999995
 31
3.349999999999997
 12
-0.5299999999999996
 22
0.1199999999999994
 32
3.3700000000000001
 13
-0.5299999999999996
 23
0.1300000000000001
 33
3.379999999999999
  0
3DFACE
  5
88E
  8
CARGO_BAY
 10
-0.9699999999999999
 20
0.1399999999999999
 30
3.349999999999997
 11
-0.9699999999999999
 21
0.1300000000000001
 31
3.3599999999999972
 12
-0.5299999999999996
 22
0.1300000000000001
 32
3.379999999999999
 13
-0.5299999999999996
 23
0.1399999999999999
 33
3.3700000000000001
  0
3DFACE
  5
88F
  8
CARGO_BAY
 10
1.0900000000000001
 20
-0.62
 30
3.2999999999999998
 11
1.099999999999999
 21
-0.6100000000000002
 31
3.3100000000000001
 12
0.9699999999999999
 22
-0.6100000000000002
 32
3.359999999999999
 13
0.9699999999999999
 23
-0.62
 33
3.3500000000000001
  0
3DFACE
  5
890
  8
CARGO_BAY
 10
1.099999999999999
 20
-0.6100000000000002
 30
3.3100000000000001
 11
1.0900000000000001
 21
-0.5999999999999995
 31
3.2999999999999998
 12
0.9699999999999999
 22
-0.5999999999999995
 32
3.3500000000000001
 13
0.9699999999999999
 23
-0.6100000000000002
 33
3.359999999999999
  0
3DFACE
  5
891
  8
CARGO_BAY
 10
1.0900000000000001
 20
-0.5999999999999995
 30
3.2999999999999998
 11
1.0800000000000001
 21
-0.6100000000000002
 31
3.29
 12
0.9699999999999999
 22
-0.6100000000000002
 32
3.339999999999999
 13
0.9699999999999999
 23
-0.5999999999999995
 33
3.3500000000000001
  0
3DFACE
  5
892
  8
CARGO_BAY
 10
1.0800000000000001
 20
-0.6100000000000002
 30
3.29
 11
1.0900000000000001
 21
-0.62
 31
3.2999999999999998
 12
0.9699999999999999
 22
-0.62
 32
3.3500000000000001
 13
0.9699999999999999
 23
-0.6100000000000002
 33
3.339999999999999
  0
3DFACE
  5
893
  8
CARGO_BAY
 10
1.149999999999997
 20
-0.62
 30
3.1899999999999991
 11
1.159999999999997
 21
-0.6100000000000002
 31
3.1899999999999991
 12
1.099999999999999
 22
-0.6100000000000002
 32
3.3100000000000001
 13
1.0900000000000001
 23
-0.62
 33
3.2999999999999998
  0
3DFACE
  5
894
  8
CARGO_BAY
 10
1.159999999999997
 20
-0.6100000000000002
 30
3.1899999999999991
 11
1.149999999999997
 21
-0.5999999999999995
 31
3.1899999999999991
 12
1.0900000000000001
 22
-0.5999999999999995
 32
3.2999999999999998
 13
1.099999999999999
 23
-0.6100000000000002
 33
3.3100000000000001
  0
3DFACE
  5
895
  8
CARGO_BAY
 10
-1.149999999999997
 20
-0.6000000000000001
 30
3.1899999999999991
 11
-1.159999999999997
 21
-0.6099999999999999
 31
3.1899999999999991
 12
-1.099999999999999
 22
-0.6099999999999999
 32
3.3100000000000001
 13
-1.0900000000000001
 23
-0.6000000000000001
 33
3.2999999999999998
  0
3DFACE
  5
896
  8
CARGO_BAY
 10
-1.159999999999997
 20
-0.6099999999999999
 30
3.1899999999999991
 11
-1.149999999999997
 21
-0.6200000000000006
 31
3.1899999999999991
 12
-1.0900000000000001
 22
-0.6200000000000006
 32
3.2999999999999998
 13
-1.099999999999999
 23
-0.6099999999999999
 33
3.3100000000000001
  0
3DFACE
  5
897
  8
CARGO_BAY
 10
-1.0900000000000001
 20
-0.6000000000000001
 30
3.2999999999999998
 11
-1.099999999999999
 21
-0.6099999999999999
 31
3.3100000000000001
 12
-0.9700000000000001
 22
-0.6099999999999999
 32
3.359999999999999
 13
-0.9700000000000001
 23
-0.6000000000000001
 33
3.3500000000000001
  0
3DFACE
  5
898
  8
CARGO_BAY
 10
-1.099999999999999
 20
-0.6099999999999999
 30
3.3100000000000001
 11
-1.0900000000000001
 21
-0.6200000000000006
 31
3.2999999999999998
 12
-0.9700000000000001
 22
-0.6200000000000006
 32
3.3500000000000001
 13
-0.9700000000000001
 23
-0.6099999999999999
 33
3.359999999999999
  0
3DFACE
  5
899
  8
CARGO_BAY
 10
-1.0900000000000001
 20
-0.6200000000000006
 30
3.2999999999999998
 11
-1.0800000000000001
 21
-0.6099999999999999
 31
3.29
 12
-0.9700000000000001
 22
-0.6099999999999999
 32
3.339999999999999
 13
-0.9700000000000001
 23
-0.6200000000000006
 33
3.3500000000000001
  0
3DFACE
  5
89A
  8
CARGO_BAY
 10
-1.0800000000000001
 20
-0.6099999999999999
 30
3.29
 11
-1.0900000000000001
 21
-0.6000000000000001
 31
3.2999999999999998
 12
-0.9700000000000001
 22
-0.6000000000000001
 32
3.3500000000000001
 13
-0.9700000000000001
 23
-0.6099999999999999
 33
3.339999999999999
  0
3DFACE
  5
89B
  8
CARGO_BAY
 10
1.1799999999999979
 20
-0.62
 30
2.4500000000000002
 11
1.1899999999999971
 21
-0.6100000000000002
 31
2.4500000000000002
 12
1.1699999999999999
 22
-0.6100000000000002
 32
3.0499999999999998
 13
1.159999999999999
 23
-0.62
 33
3.0499999999999998
  0
3DFACE
  5
89C
  8
CARGO_BAY
 10
1.1899999999999971
 20
-0.6100000000000002
 30
2.4500000000000002
 11
1.1799999999999979
 21
-0.5999999999999995
 31
2.4500000000000002
 12
1.159999999999999
 22
-0.5999999999999995
 32
3.0499999999999998
 13
1.1699999999999999
 23
-0.6100000000000002
 33
3.0499999999999998
  0
3DFACE
  5
89D
  8
CARGO_BAY
 10
1.1799999999999979
 20
-0.5999999999999995
 30
2.4500000000000002
 11
1.1699999999999979
 21
-0.6100000000000002
 31
2.4500000000000002
 12
1.149999999999999
 22
-0.6100000000000002
 32
3.0499999999999998
 13
1.159999999999999
 23
-0.5999999999999995
 33
3.0499999999999998
  0
3DFACE
  5
89E
  8
CARGO_BAY
 10
1.1699999999999979
 20
-0.6100000000000002
 30
2.4500000000000002
 11
1.1799999999999979
 21
-0.62
 31
2.4500000000000002
 12
1.159999999999999
 22
-0.62
 32
3.0499999999999998
 13
1.149999999999999
 23
-0.6100000000000002
 33
3.0499999999999998
  0
3DFACE
  5
89F
  8
CARGO_BAY
 10
-1.1799999999999979
 20
-0.6000000000000001
 30
2.4500000000000002
 11
-1.1899999999999971
 21
-0.6099999999999999
 31
2.4500000000000002
 12
-1.1699999999999999
 22
-0.6099999999999999
 32
3.0499999999999998
 13
-1.159999999999999
 23
-0.6000000000000001
 33
3.0499999999999998
  0
3DFACE
  5
8A0
  8
CARGO_BAY
 10
-1.1899999999999971
 20
-0.6099999999999999
 30
2.4500000000000002
 11
-1.1799999999999979
 21
-0.6200000000000006
 31
2.4500000000000002
 12
-1.159999999999999
 22
-0.6200000000000006
 32
3.0499999999999998
 13
-1.1699999999999999
 23
-0.6099999999999999
 33
3.0499999999999998
  0
3DFACE
  5
8A1
  8
CARGO_BAY
 10
-1.1799999999999979
 20
-0.6200000000000006
 30
2.4500000000000002
 11
-1.1699999999999979
 21
-0.6099999999999999
 31
2.4500000000000002
 12
-1.149999999999999
 22
-0.6099999999999999
 32
3.0499999999999998
 13
-1.159999999999999
 23
-0.6200000000000006
 33
3.0499999999999998
  0
3DFACE
  5
8A2
  8
CARGO_BAY
 10
-1.1699999999999979
 20
-0.6099999999999999
 30
2.4500000000000002
 11
-1.1799999999999979
 21
-0.6000000000000001
 31
2.4500000000000002
 12
-1.159999999999999
 22
-0.6000000000000001
 32
3.0499999999999998
 13
-1.149999999999999
 23
-0.6099999999999999
 33
3.0499999999999998
  0
3DFACE
  5
8A3
  8
CARGO_BAY
 10
1.159999999999997
 20
-0.62
 30
3.0499999999999998
 11
1.169999999999997
 21
-0.6100000000000002
 31
3.0499999999999998
 12
1.159999999999999
 22
-0.6100000000000002
 32
3.1899999999999991
 13
1.149999999999999
 23
-0.62
 33
3.1899999999999991
  0
3DFACE
  5
8A4
  8
CARGO_BAY
 10
1.169999999999997
 20
-0.6100000000000002
 30
3.0499999999999998
 11
1.159999999999997
 21
-0.5999999999999995
 31
3.0499999999999998
 12
1.149999999999999
 22
-0.5999999999999995
 32
3.1899999999999991
 13
1.159999999999999
 23
-0.6100000000000002
 33
3.1899999999999991
  0
3DFACE
  5
8A5
  8
CARGO_BAY
 10
1.159999999999997
 20
-0.5999999999999995
 30
3.0499999999999998
 11
1.149999999999997
 21
-0.6100000000000002
 31
3.0499999999999998
 12
1.139999999999999
 22
-0.6100000000000002
 32
3.1899999999999991
 13
1.149999999999999
 23
-0.5999999999999995
 33
3.1899999999999991
  0
3DFACE
  5
8A6
  8
CARGO_BAY
 10
1.149999999999997
 20
-0.6100000000000002
 30
3.0499999999999998
 11
1.159999999999997
 21
-0.62
 31
3.0499999999999998
 12
1.149999999999999
 22
-0.62
 32
3.1899999999999991
 13
1.139999999999999
 23
-0.6100000000000002
 33
3.1899999999999991
  0
3DFACE
  5
8A7
  8
CARGO_BAY
 10
-1.159999999999997
 20
-0.6000000000000001
 30
3.0499999999999998
 11
-1.169999999999997
 21
-0.6099999999999999
 31
3.0499999999999998
 12
-1.159999999999999
 22
-0.6099999999999999
 32
3.1899999999999991
 13
-1.149999999999999
 23
-0.6000000000000001
 33
3.1899999999999991
  0
3DFACE
  5
8A8
  8
CARGO_BAY
 10
-1.169999999999997
 20
-0.6099999999999999
 30
3.0499999999999998
 11
-1.159999999999997
 21
-0.6200000000000006
 31
3.0499999999999998
 12
-1.149999999999999
 22
-0.6200000000000006
 32
3.1899999999999991
 13
-1.159999999999999
 23
-0.6099999999999999
 33
3.1899999999999991
  0
3DFACE
  5
8A9
  8
CARGO_BAY
 10
-1.159999999999997
 20
-0.6200000000000006
 30
3.0499999999999998
 11
-1.149999999999997
 21
-0.6099999999999999
 31
3.0499999999999998
 12
-1.139999999999999
 22
-0.6099999999999999
 32
3.1899999999999991
 13
-1.149999999999999
 23
-0.6200000000000006
 33
3.1899999999999991
  0
3DFACE
  5
8AA
  8
CARGO_BAY
 10
-1.149999999999997
 20
-0.6099999999999999
 30
3.0499999999999998
 11
-1.159999999999997
 21
-0.6000000000000001
 31
3.0499999999999998
 12
-1.149999999999999
 22
-0.6000000000000001
 32
3.1899999999999991
 13
-1.139999999999999
 23
-0.6099999999999999
 33
3.1899999999999991
  0
3DFACE
  5
8AB
  8
CARGO_BAY
 10
1.149999999999997
 20
-0.5999999999999995
 30
3.1899999999999991
 11
1.1399999999999979
 21
-0.6100000000000002
 31
3.1899999999999991
 12
1.0800000000000001
 22
-0.6100000000000002
 32
3.29
 13
1.0900000000000001
 23
-0.5999999999999995
 33
3.2999999999999998
  0
3DFACE
  5
8AC
  8
CARGO_BAY
 10
1.1399999999999979
 20
-0.6100000000000002
 30
3.1899999999999991
 11
1.149999999999997
 21
-0.62
 31
3.1899999999999991
 12
1.0900000000000001
 22
-0.62
 32
3.2999999999999998
 13
1.0800000000000001
 23
-0.6100000000000002
 33
3.29
  0
3DFACE
  5
8AD
  8
CARGO_BAY
 10
-1.149999999999997
 20
-0.6200000000000006
 30
3.1899999999999991
 11
-1.1399999999999979
 21
-0.6099999999999999
 31
3.1899999999999991
 12
-1.0800000000000001
 22
-0.6099999999999999
 32
3.29
 13
-1.0900000000000001
 23
-0.6200000000000006
 33
3.2999999999999998
  0
3DFACE
  5
8AE
  8
CARGO_BAY
 10
-1.1399999999999979
 20
-0.6099999999999999
 30
3.1899999999999991
 11
-1.149999999999997
 21
-0.6000000000000001
 31
3.1899999999999991
 12
-1.0900000000000001
 22
-0.6000000000000001
 32
3.2999999999999998
 13
-1.0800000000000001
 23
-0.6099999999999999
 33
3.29
  0
3DFACE
  5
8AF
  8
CARGO_BAY
 10
0.5299999999999999
 20
-0.62
 30
3.3700000000000001
 11
0.5299999999999999
 21
-0.6100000000000002
 31
3.379999999999999
 12
-0.5300000000000006
 22
-0.6099999999999999
 32
3.379999999999999
 13
-0.5300000000000006
 23
-0.6199999999999997
 33
3.3700000000000001
  0
3DFACE
  5
8B0
  8
CARGO_BAY
 10
0.5299999999999999
 20
-0.6100000000000002
 30
3.379999999999999
 11
0.5299999999999999
 21
-0.5999999999999995
 31
3.3700000000000001
 12
-0.5300000000000006
 22
-0.5999999999999992
 32
3.3700000000000001
 13
-0.5300000000000006
 23
-0.6099999999999999
 33
3.379999999999999
  0
3DFACE
  5
8B1
  8
CARGO_BAY
 10
0.5299999999999999
 20
-0.5999999999999995
 30
3.3700000000000001
 11
0.5299999999999999
 21
-0.6100000000000002
 31
3.359999999999999
 12
-0.5300000000000006
 22
-0.6099999999999999
 32
3.359999999999999
 13
-0.5300000000000006
 23
-0.5999999999999992
 33
3.3700000000000001
  0
3DFACE
  5
8B2
  8
CARGO_BAY
 10
0.5299999999999999
 20
-0.6100000000000002
 30
3.359999999999999
 11
0.5299999999999999
 21
-0.62
 31
3.3700000000000001
 12
-0.5300000000000006
 22
-0.6199999999999997
 32
3.3700000000000001
 13
-0.5300000000000006
 23
-0.6099999999999999
 33
3.359999999999999
  0
3DFACE
  5
8B3
  8
CARGO_BAY
 10
0.9699999999999999
 20
-0.62
 30
3.349999999999997
 11
0.9699999999999999
 21
-0.6100000000000002
 31
3.3599999999999972
 12
0.5299999999999995
 22
-0.6100000000000002
 32
3.379999999999999
 13
0.5299999999999995
 23
-0.62
 33
3.3700000000000001
  0
3DFACE
  5
8B4
  8
CARGO_BAY
 10
0.9699999999999999
 20
-0.6100000000000002
 30
3.3599999999999972
 11
0.9699999999999999
 21
-0.5999999999999995
 31
3.349999999999997
 12
0.5299999999999995
 22
-0.5999999999999995
 32
3.3700000000000001
 13
0.5299999999999995
 23
-0.6100000000000002
 33
3.379999999999999
  0
3DFACE
  5
8B5
  8
CARGO_BAY
 10
0.9699999999999999
 20
-0.5999999999999995
 30
3.349999999999997
 11
0.9699999999999999
 21
-0.6100000000000002
 31
3.3399999999999981
 12
0.5299999999999995
 22
-0.6100000000000002
 32
3.359999999999999
 13
0.5299999999999995
 23
-0.5999999999999995
 33
3.3700000000000001
  0
3DFACE
  5
8B6
  8
CARGO_BAY
 10
0.9699999999999999
 20
-0.6100000000000002
 30
3.3399999999999981
 11
0.9699999999999999
 21
-0.62
 31
3.349999999999997
 12
0.5299999999999995
 22
-0.62
 32
3.3700000000000001
 13
0.5299999999999995
 23
-0.6100000000000002
 33
3.359999999999999
  0
3DFACE
  5
8B7
  8
CARGO_BAY
 10
-0.9700000000000001
 20
-0.6000000000000001
 30
3.349999999999997
 11
-0.9700000000000001
 21
-0.6099999999999999
 31
3.3599999999999972
 12
-0.5299999999999998
 22
-0.6099999999999999
 32
3.379999999999999
 13
-0.5299999999999998
 23
-0.6000000000000001
 33
3.3700000000000001
  0
3DFACE
  5
8B8
  8
CARGO_BAY
 10
-0.9700000000000001
 20
-0.6099999999999999
 30
3.3599999999999972
 11
-0.9700000000000001
 21
-0.6200000000000006
 31
3.349999999999997
 12
-0.5299999999999998
 22
-0.6200000000000006
 32
3.3700000000000001
 13
-0.5299999999999998
 23
-0.6099999999999999
 33
3.379999999999999
  0
3DFACE
  5
8B9
  8
CARGO_BAY
 10
-0.9700000000000001
 20
-0.6200000000000006
 30
3.349999999999997
 11
-0.9700000000000001
 21
-0.6099999999999999
 31
3.3399999999999981
 12
-0.5299999999999998
 22
-0.6099999999999999
 32
3.359999999999999
 13
-0.5299999999999998
 23
-0.6200000000000006
 33
3.3700000000000001
  0
3DFACE
  5
8BA
  8
CARGO_BAY
 10
-0.9700000000000001
 20
-0.6099999999999999
 30
3.3399999999999981
 11
-0.9700000000000001
 21
-0.6000000000000001
 31
3.349999999999997
 12
-0.5299999999999998
 22
-0.6000000000000001
 32
3.3700000000000001
 13
-0.5299999999999998
 23
-0.6099999999999999
 33
3.359999999999999
  0
3DFACE
  5
8BB
  8
CARGO_BAY
 10
-1.079999999999999
 20
3.2599999999999998
 30
3.29
 11
-1.089999999999999
 21
3.27
 31
3.2999999999999998
 12
-0.9699999999999995
 22
3.27
 32
3.3500000000000001
 13
-0.9699999999999995
 23
3.2599999999999998
 33
3.339999999999999
  0
3DFACE
  5
8BC
  8
CARGO_BAY
 10
-1.089999999999999
 20
3.2499999999999991
 30
3.2999999999999998
 11
-1.079999999999999
 21
3.2599999999999998
 31
3.29
 12
-0.9699999999999995
 22
3.2599999999999998
 32
3.339999999999999
 13
-0.9699999999999995
 23
3.2499999999999991
 33
3.3500000000000001
  0
3DFACE
  5
8BD
  8
CARGO_BAY
 10
-1.099999999999999
 20
3.2599999999999998
 30
3.3100000000000001
 11
-1.089999999999999
 21
3.2499999999999991
 31
3.2999999999999998
 12
-0.9699999999999995
 22
3.2499999999999991
 32
3.3500000000000001
 13
-0.9699999999999995
 23
3.2599999999999998
 33
3.359999999999999
  0
3DFACE
  5
8BE
  8
CARGO_BAY
 10
-1.089999999999999
 20
3.27
 30
3.2999999999999998
 11
-1.099999999999999
 21
3.2599999999999998
 31
3.3100000000000001
 12
-0.9699999999999995
 22
3.2599999999999998
 32
3.359999999999999
 13
-0.9699999999999995
 23
3.27
 33
3.3500000000000001
  0
3DFACE
  5
8BF
  8
CARGO_BAY
 10
-1.159999999999997
 20
3.2599999999999998
 30
3.1899999999999991
 11
-1.149999999999997
 21
3.2499999999999991
 31
3.1899999999999991
 12
-1.089999999999999
 22
3.2499999999999991
 32
3.2999999999999998
 13
-1.099999999999999
 23
3.2599999999999998
 33
3.3100000000000001
  0
3DFACE
  5
8C0
  8
CARGO_BAY
 10
-1.149999999999997
 20
3.27
 30
3.1899999999999991
 11
-1.159999999999997
 21
3.2599999999999998
 31
3.1899999999999991
 12
-1.099999999999999
 22
3.2599999999999998
 32
3.3100000000000001
 13
-1.089999999999999
 23
3.27
 33
3.2999999999999998
  0
3DFACE
  5
8C1
  8
CARGO_BAY
 10
1.1599999999999979
 20
3.2599999999999998
 30
3.1899999999999991
 11
1.1499999999999979
 21
3.27
 31
3.1899999999999991
 12
1.0900000000000001
 22
3.27
 32
3.2999999999999998
 13
1.1000000000000001
 23
3.2599999999999998
 33
3.3100000000000001
  0
3DFACE
  5
8C2
  8
CARGO_BAY
 10
1.1499999999999979
 20
3.25
 30
3.1899999999999991
 11
1.1599999999999979
 21
3.2599999999999998
 31
3.1899999999999991
 12
1.1000000000000001
 22
3.2599999999999998
 32
3.3100000000000001
 13
1.0900000000000001
 23
3.25
 33
3.2999999999999998
  0
3DFACE
  5
8C3
  8
CARGO_BAY
 10
1.0800000000000001
 20
3.2599999999999998
 30
3.29
 11
1.0900000000000001
 21
3.25
 31
3.2999999999999998
 12
0.9700000000000004
 22
3.25
 32
3.3500000000000001
 13
0.9700000000000004
 23
3.2599999999999998
 33
3.339999999999999
  0
3DFACE
  5
8C4
  8
CARGO_BAY
 10
1.0900000000000001
 20
3.27
 30
3.2999999999999998
 11
1.0800000000000001
 21
3.2599999999999998
 31
3.29
 12
0.9700000000000004
 22
3.2599999999999998
 32
3.339999999999999
 13
0.9700000000000004
 23
3.27
 33
3.3500000000000001
  0
3DFACE
  5
8C5
  8
CARGO_BAY
 10
1.1000000000000001
 20
3.2599999999999998
 30
3.3100000000000001
 11
1.0900000000000001
 21
3.27
 31
3.2999999999999998
 12
0.9700000000000004
 22
3.27
 32
3.3500000000000001
 13
0.9700000000000004
 23
3.2599999999999998
 33
3.359999999999999
  0
3DFACE
  5
8C6
  8
CARGO_BAY
 10
1.0900000000000001
 20
3.25
 30
3.2999999999999998
 11
1.1000000000000001
 21
3.2599999999999998
 31
3.3100000000000001
 12
0.9700000000000004
 22
3.2599999999999998
 32
3.359999999999999
 13
0.9700000000000004
 23
3.25
 33
3.3500000000000001
  0
3DFACE
  5
8C7
  8
CARGO_BAY
 10
-1.169999999999997
 20
3.2599999999999998
 30
2.4500000000000002
 11
-1.1799999999999971
 21
3.27
 31
2.4500000000000002
 12
-1.159999999999999
 22
3.27
 32
3.0499999999999998
 13
-1.149999999999999
 23
3.2599999999999998
 33
3.0499999999999998
  0
3DFACE
  5
8C8
  8
CARGO_BAY
 10
-1.1799999999999971
 20
3.2499999999999991
 30
2.4500000000000002
 11
-1.169999999999997
 21
3.2599999999999998
 31
2.4500000000000002
 12
-1.149999999999999
 22
3.2599999999999998
 32
3.0499999999999998
 13
-1.159999999999999
 23
3.2499999999999991
 33
3.0499999999999998
  0
3DFACE
  5
8C9
  8
CARGO_BAY
 10
-1.1899999999999971
 20
3.2599999999999998
 30
2.4500000000000002
 11
-1.1799999999999971
 21
3.2499999999999991
 31
2.4500000000000002
 12
-1.159999999999999
 22
3.2499999999999991
 32
3.0499999999999998
 13
-1.169999999999999
 23
3.2599999999999998
 33
3.0499999999999998
  0
3DFACE
  5
8CA
  8
CARGO_BAY
 10
-1.1799999999999971
 20
3.27
 30
2.4500000000000002
 11
-1.1899999999999971
 21
3.2599999999999998
 31
2.4500000000000002
 12
-1.169999999999999
 22
3.2599999999999998
 32
3.0499999999999998
 13
-1.159999999999999
 23
3.27
 33
3.0499999999999998
  0
3DFACE
  5
8CB
  8
CARGO_BAY
 10
1.1699999999999979
 20
3.2599999999999998
 30
2.4500000000000002
 11
1.1799999999999979
 21
3.25
 31
2.4500000000000002
 12
1.159999999999999
 22
3.25
 32
3.0499999999999998
 13
1.1499999999999999
 23
3.2599999999999998
 33
3.0499999999999998
  0
3DFACE
  5
8CC
  8
CARGO_BAY
 10
1.1799999999999979
 20
3.27
 30
2.4500000000000002
 11
1.1699999999999979
 21
3.2599999999999998
 31
2.4500000000000002
 12
1.1499999999999999
 22
3.2599999999999998
 32
3.0499999999999998
 13
1.159999999999999
 23
3.27
 33
3.0499999999999998
  0
3DFACE
  5
8CD
  8
CARGO_BAY
 10
1.1899999999999979
 20
3.2599999999999998
 30
2.4500000000000002
 11
1.1799999999999979
 21
3.27
 31
2.4500000000000002
 12
1.159999999999999
 22
3.27
 32
3.0499999999999998
 13
1.1699999999999999
 23
3.2599999999999998
 33
3.0499999999999998
  0
3DFACE
  5
8CE
  8
CARGO_BAY
 10
1.1799999999999979
 20
3.25
 30
2.4500000000000002
 11
1.1899999999999979
 21
3.2599999999999998
 31
2.4500000000000002
 12
1.1699999999999999
 22
3.2599999999999998
 32
3.0499999999999998
 13
1.159999999999999
 23
3.25
 33
3.0499999999999998
  0
3DFACE
  5
8CF
  8
CARGO_BAY
 10
-1.149999999999997
 20
3.2599999999999998
 30
3.0499999999999998
 11
-1.159999999999997
 21
3.27
 31
3.0499999999999998
 12
-1.149999999999999
 22
3.27
 32
3.1899999999999991
 13
-1.139999999999999
 23
3.2599999999999998
 33
3.1899999999999991
  0
3DFACE
  5
8D0
  8
CARGO_BAY
 10
-1.159999999999997
 20
3.2499999999999991
 30
3.0499999999999998
 11
-1.149999999999997
 21
3.2599999999999998
 31
3.0499999999999998
 12
-1.139999999999999
 22
3.2599999999999998
 32
3.1899999999999991
 13
-1.149999999999999
 23
3.2499999999999991
 33
3.1899999999999991
  0
3DFACE
  5
8D1
  8
CARGO_BAY
 10
-1.169999999999997
 20
3.2599999999999998
 30
3.0499999999999998
 11
-1.159999999999997
 21
3.2499999999999991
 31
3.0499999999999998
 12
-1.149999999999999
 22
3.2499999999999991
 32
3.1899999999999991
 13
-1.159999999999999
 23
3.2599999999999998
 33
3.1899999999999991
  0
3DFACE
  5
8D2
  8
CARGO_BAY
 10
-1.159999999999997
 20
3.27
 30
3.0499999999999998
 11
-1.169999999999997
 21
3.2599999999999998
 31
3.0499999999999998
 12
-1.159999999999999
 22
3.2599999999999998
 32
3.1899999999999991
 13
-1.149999999999999
 23
3.27
 33
3.1899999999999991
  0
3DFACE
  5
8D3
  8
CARGO_BAY
 10
1.1499999999999979
 20
3.2599999999999998
 30
3.0499999999999998
 11
1.1599999999999979
 21
3.25
 31
3.0499999999999998
 12
1.1499999999999999
 22
3.25
 32
3.1899999999999991
 13
1.1399999999999999
 23
3.2599999999999998
 33
3.1899999999999991
  0
3DFACE
  5
8D4
  8
CARGO_BAY
 10
1.1599999999999979
 20
3.27
 30
3.0499999999999998
 11
1.1499999999999979
 21
3.2599999999999998
 31
3.0499999999999998
 12
1.1399999999999999
 22
3.2599999999999998
 32
3.1899999999999991
 13
1.1499999999999999
 23
3.27
 33
3.1899999999999991
  0
3DFACE
  5
8D5
  8
CARGO_BAY
 10
1.169999999999997
 20
3.2599999999999998
 30
3.0499999999999998
 11
1.1599999999999979
 21
3.27
 31
3.0499999999999998
 12
1.1499999999999999
 22
3.27
 32
3.1899999999999991
 13
1.159999999999999
 23
3.2599999999999998
 33
3.1899999999999991
  0
3DFACE
  5
8D6
  8
CARGO_BAY
 10
1.1599999999999979
 20
3.25
 30
3.0499999999999998
 11
1.169999999999997
 21
3.2599999999999998
 31
3.0499999999999998
 12
1.159999999999999
 22
3.2599999999999998
 32
3.1899999999999991
 13
1.1499999999999999
 23
3.25
 33
3.1899999999999991
  0
3DFACE
  5
8D7
  8
CARGO_BAY
 10
1.1399999999999979
 20
3.2599999999999998
 30
3.1899999999999991
 11
1.1499999999999979
 21
3.25
 31
3.1899999999999991
 12
1.0900000000000001
 22
3.25
 32
3.2999999999999998
 13
1.0800000000000001
 23
3.2599999999999998
 33
3.29
  0
3DFACE
  5
8D8
  8
CARGO_BAY
 10
1.1499999999999979
 20
3.27
 30
3.1899999999999991
 11
1.1399999999999979
 21
3.2599999999999998
 31
3.1899999999999991
 12
1.0800000000000001
 22
3.2599999999999998
 32
3.29
 13
1.0900000000000001
 23
3.27
 33
3.2999999999999998
  0
3DFACE
  5
8D9
  8
CARGO_BAY
 10
-1.139999999999997
 20
3.2599999999999998
 30
3.1899999999999991
 11
-1.149999999999997
 21
3.27
 31
3.1899999999999991
 12
-1.089999999999999
 22
3.27
 32
3.2999999999999998
 13
-1.079999999999999
 23
3.2599999999999998
 33
3.29
  0
3DFACE
  5
8DA
  8
CARGO_BAY
 10
-1.149999999999997
 20
3.2499999999999991
 30
3.1899999999999991
 11
-1.139999999999997
 21
3.2599999999999998
 31
3.1899999999999991
 12
-1.079999999999999
 22
3.2599999999999998
 32
3.29
 13
-1.089999999999999
 23
3.2499999999999991
 33
3.2999999999999998
  0
3DFACE
  5
8DB
  8
CARGO_BAY
 10
0.5300000000000005
 20
3.2599999999999998
 30
3.359999999999999
 11
0.5300000000000005
 21
3.25
 31
3.3700000000000001
 12
-0.5300000000000001
 22
3.25
 32
3.3700000000000001
 13
-0.5300000000000001
 23
3.2599999999999998
 33
3.359999999999999
  0
3DFACE
  5
8DC
  8
CARGO_BAY
 10
0.5300000000000005
 20
3.27
 30
3.3700000000000001
 11
0.5300000000000005
 21
3.2599999999999998
 31
3.359999999999999
 12
-0.5300000000000001
 22
3.2599999999999998
 32
3.359999999999999
 13
-0.5300000000000001
 23
3.27
 33
3.3700000000000001
  0
3DFACE
  5
8DD
  8
CARGO_BAY
 10
0.5300000000000005
 20
3.2599999999999998
 30
3.379999999999999
 11
0.5300000000000005
 21
3.27
 31
3.3700000000000001
 12
-0.5300000000000001
 22
3.27
 32
3.3700000000000001
 13
-0.5300000000000001
 23
3.2599999999999998
 33
3.379999999999999
  0
3DFACE
  5
8DE
  8
CARGO_BAY
 10
0.5300000000000005
 20
3.25
 30
3.3700000000000001
 11
0.5300000000000005
 21
3.2599999999999998
 31
3.379999999999999
 12
-0.5300000000000001
 22
3.2599999999999998
 32
3.379999999999999
 13
-0.5300000000000001
 23
3.25
 33
3.3700000000000001
  0
3DFACE
  5
8DF
  8
CARGO_BAY
 10
0.9700000000000004
 20
3.2599999999999998
 30
3.3399999999999981
 11
0.9700000000000004
 21
3.25
 31
3.349999999999997
 12
0.5300000000000001
 22
3.25
 32
3.3700000000000001
 13
0.5300000000000001
 23
3.2599999999999998
 33
3.359999999999999
  0
3DFACE
  5
8E0
  8
CARGO_BAY
 10
0.9700000000000004
 20
3.27
 30
3.349999999999997
 11
0.9700000000000004
 21
3.2599999999999998
 31
3.3399999999999981
 12
0.5300000000000001
 22
3.2599999999999998
 32
3.359999999999999
 13
0.5300000000000001
 23
3.27
 33
3.3700000000000001
  0
3DFACE
  5
8E1
  8
CARGO_BAY
 10
0.9700000000000004
 20
3.2599999999999998
 30
3.3599999999999972
 11
0.9700000000000004
 21
3.27
 31
3.349999999999997
 12
0.5300000000000001
 22
3.27
 32
3.3700000000000001
 13
0.5300000000000001
 23
3.2599999999999998
 33
3.379999999999999
  0
3DFACE
  5
8E2
  8
CARGO_BAY
 10
0.9700000000000004
 20
3.25
 30
3.349999999999997
 11
0.9700000000000004
 21
3.2599999999999998
 31
3.3599999999999972
 12
0.5300000000000001
 22
3.2599999999999998
 32
3.379999999999999
 13
0.5300000000000001
 23
3.25
 33
3.3700000000000001
  0
3DFACE
  5
8E3
  8
CARGO_BAY
 10
-0.9699999999999995
 20
3.2599999999999998
 30
3.3399999999999981
 11
-0.9699999999999995
 21
3.27
 31
3.349999999999997
 12
-0.5299999999999993
 22
3.27
 32
3.3700000000000001
 13
-0.5299999999999993
 23
3.2599999999999998
 33
3.359999999999999
  0
3DFACE
  5
8E4
  8
CARGO_BAY
 10
-0.9699999999999995
 20
3.2499999999999991
 30
3.349999999999997
 11
-0.9699999999999995
 21
3.2599999999999998
 31
3.3399999999999981
 12
-0.5299999999999993
 22
3.2599999999999998
 32
3.359999999999999
 13
-0.5299999999999993
 23
3.2499999999999991
 33
3.3700000000000001
  0
3DFACE
  5
8E5
  8
CARGO_BAY
 10
-0.9699999999999995
 20
3.2599999999999998
 30
3.3599999999999972
 11
-0.9699999999999995
 21
3.2499999999999991
 31
3.349999999999997
 12
-0.5299999999999993
 22
3.2499999999999991
 32
3.3700000000000001
 13
-0.5299999999999993
 23
3.2599999999999998
 33
3.379999999999999
  0
3DFACE
  5
8E6
  8
CARGO_BAY
 10
-0.9699999999999995
 20
3.27
 30
3.349999999999997
 11
-0.9699999999999995
 21
3.2599999999999998
 31
3.3599999999999972
 12
-0.5299999999999993
 22
3.2599999999999998
 32
3.379999999999999
 13
-0.5299999999999993
 23
3.27
 33
3.3700000000000001
  0
3DFACE
  5
8E7
  8
CARGO_BAY
 10
-1.0800000000000001
 20
-1.2599999999999989
 30
3.29
 11
-1.0900000000000001
 21
-1.25
 31
3.2999999999999998
 12
-0.9700000000000001
 22
-1.25
 32
3.3500000000000001
 13
-0.9700000000000001
 23
-1.2599999999999989
 33
3.339999999999999
  0
3DFACE
  5
8E8
  8
CARGO_BAY
 10
-1.0900000000000001
 20
-1.27
 30
3.2999999999999998
 11
-1.0800000000000001
 21
-1.2599999999999989
 31
3.29
 12
-0.9700000000000001
 22
-1.2599999999999989
 32
3.339999999999999
 13
-0.9700000000000001
 23
-1.27
 33
3.3500000000000001
  0
3DFACE
  5
8E9
  8
CARGO_BAY
 10
-1.1000000000000001
 20
-1.2599999999999989
 30
3.3100000000000001
 11
-1.0900000000000001
 21
-1.27
 31
3.2999999999999998
 12
-0.9700000000000001
 22
-1.27
 32
3.3500000000000001
 13
-0.9700000000000001
 23
-1.2599999999999989
 33
3.359999999999999
  0
3DFACE
  5
8EA
  8
CARGO_BAY
 10
-1.0900000000000001
 20
-1.25
 30
3.2999999999999998
 11
-1.1000000000000001
 21
-1.2599999999999989
 31
3.3100000000000001
 12
-0.9700000000000001
 22
-1.2599999999999989
 32
3.359999999999999
 13
-0.9700000000000001
 23
-1.25
 33
3.3500000000000001
  0
3DFACE
  5
8EB
  8
CARGO_BAY
 10
-1.159999999999997
 20
-1.2599999999999989
 30
3.1899999999999991
 11
-1.1499999999999979
 21
-1.27
 31
3.1899999999999991
 12
-1.0900000000000001
 22
-1.27
 32
3.2999999999999998
 13
-1.1000000000000001
 23
-1.2599999999999989
 33
3.3100000000000001
  0
3DFACE
  5
8EC
  8
CARGO_BAY
 10
-1.1499999999999979
 20
-1.25
 30
3.1899999999999991
 11
-1.159999999999997
 21
-1.2599999999999989
 31
3.1899999999999991
 12
-1.1000000000000001
 22
-1.2599999999999989
 32
3.3100000000000001
 13
-1.0900000000000001
 23
-1.25
 33
3.2999999999999998
  0
3DFACE
  5
8ED
  8
CARGO_BAY
 10
1.159999999999997
 20
-1.26
 30
3.1899999999999991
 11
1.149999999999997
 21
-1.2499999999999989
 31
3.1899999999999991
 12
1.089999999999999
 22
-1.2499999999999989
 32
3.2999999999999998
 13
1.099999999999999
 23
-1.26
 33
3.3100000000000001
  0
3DFACE
  5
8EE
  8
CARGO_BAY
 10
1.149999999999997
 20
-1.27
 30
3.1899999999999991
 11
1.159999999999997
 21
-1.26
 31
3.1899999999999991
 12
1.099999999999999
 22
-1.26
 32
3.3100000000000001
 13
1.089999999999999
 23
-1.27
 33
3.2999999999999998
  0
3DFACE
  5
8EF
  8
CARGO_BAY
 10
1.0800000000000001
 20
-1.26
 30
3.29
 11
1.089999999999999
 21
-1.27
 31
3.2999999999999998
 12
0.9699999999999999
 22
-1.27
 32
3.3500000000000001
 13
0.9699999999999999
 23
-1.26
 33
3.339999999999999
  0
3DFACE
  5
8F0
  8
CARGO_BAY
 10
1.089999999999999
 20
-1.2499999999999989
 30
3.2999999999999998
 11
1.0800000000000001
 21
-1.26
 31
3.29
 12
0.9699999999999999
 22
-1.26
 32
3.339999999999999
 13
0.9699999999999999
 23
-1.2499999999999989
 33
3.3500000000000001
  0
3DFACE
  5
8F1
  8
CARGO_BAY
 10
1.099999999999999
 20
-1.26
 30
3.3100000000000001
 11
1.089999999999999
 21
-1.2499999999999989
 31
3.2999999999999998
 12
0.9699999999999999
 22
-1.2499999999999989
 32
3.3500000000000001
 13
0.9699999999999999
 23
-1.26
 33
3.359999999999999
  0
3DFACE
  5
8F2
  8
CARGO_BAY
 10
1.089999999999999
 20
-1.27
 30
3.2999999999999998
 11
1.099999999999999
 21
-1.26
 31
3.3100000000000001
 12
0.9699999999999999
 22
-1.26
 32
3.359999999999999
 13
0.9699999999999999
 23
-1.27
 33
3.3500000000000001
  0
3DFACE
  5
8F3
  8
CARGO_BAY
 10
-1.1699999999999979
 20
-1.2599999999999989
 30
2.4500000000000002
 11
-1.1799999999999979
 21
-1.25
 31
2.4500000000000002
 12
-1.159999999999999
 22
-1.25
 32
3.0499999999999998
 13
-1.149999999999999
 23
-1.2599999999999989
 33
3.0499999999999998
  0
3DFACE
  5
8F4
  8
CARGO_BAY
 10
-1.1799999999999979
 20
-1.27
 30
2.4500000000000002
 11
-1.1699999999999979
 21
-1.2599999999999989
 31
2.4500000000000002
 12
-1.149999999999999
 22
-1.2599999999999989
 32
3.0499999999999998
 13
-1.159999999999999
 23
-1.27
 33
3.0499999999999998
  0
3DFACE
  5
8F5
  8
CARGO_BAY
 10
-1.1899999999999979
 20
-1.2599999999999989
 30
2.4500000000000002
 11
-1.1799999999999979
 21
-1.27
 31
2.4500000000000002
 12
-1.159999999999999
 22
-1.27
 32
3.0499999999999998
 13
-1.1699999999999999
 23
-1.2599999999999989
 33
3.0499999999999998
  0
3DFACE
  5
8F6
  8
CARGO_BAY
 10
-1.1799999999999979
 20
-1.25
 30
2.4500000000000002
 11
-1.1899999999999979
 21
-1.2599999999999989
 31
2.4500000000000002
 12
-1.1699999999999999
 22
-1.2599999999999989
 32
3.0499999999999998
 13
-1.159999999999999
 23
-1.25
 33
3.0499999999999998
  0
3DFACE
  5
8F7
  8
CARGO_BAY
 10
1.1699999999999979
 20
-1.26
 30
2.4500000000000002
 11
1.1799999999999971
 21
-1.27
 31
2.4500000000000002
 12
1.159999999999999
 22
-1.27
 32
3.0499999999999998
 13
1.149999999999999
 23
-1.26
 33
3.0499999999999998
  0
3DFACE
  5
8F8
  8
CARGO_BAY
 10
1.1799999999999971
 20
-1.2499999999999989
 30
2.4500000000000002
 11
1.1699999999999979
 21
-1.26
 31
2.4500000000000002
 12
1.149999999999999
 22
-1.26
 32
3.0499999999999998
 13
1.159999999999999
 23
-1.2499999999999989
 33
3.0499999999999998
  0
3DFACE
  5
8F9
  8
CARGO_BAY
 10
1.1899999999999971
 20
-1.26
 30
2.4500000000000002
 11
1.1799999999999971
 21
-1.2499999999999989
 31
2.4500000000000002
 12
1.159999999999999
 22
-1.2499999999999989
 32
3.0499999999999998
 13
1.169999999999999
 23
-1.26
 33
3.0499999999999998
  0
3DFACE
  5
8FA
  8
CARGO_BAY
 10
1.1799999999999971
 20
-1.27
 30
2.4500000000000002
 11
1.1899999999999971
 21
-1.26
 31
2.4500000000000002
 12
1.169999999999999
 22
-1.26
 32
3.0499999999999998
 13
1.159999999999999
 23
-1.27
 33
3.0499999999999998
  0
3DFACE
  5
8FB
  8
CARGO_BAY
 10
-1.1499999999999979
 20
-1.2599999999999989
 30
3.0499999999999998
 11
-1.159999999999997
 21
-1.25
 31
3.0499999999999998
 12
-1.149999999999999
 22
-1.25
 32
3.1899999999999991
 13
-1.1399999999999999
 23
-1.2599999999999989
 33
3.1899999999999991
  0
3DFACE
  5
8FC
  8
CARGO_BAY
 10
-1.159999999999997
 20
-1.27
 30
3.0499999999999998
 11
-1.1499999999999979
 21
-1.2599999999999989
 31
3.0499999999999998
 12
-1.1399999999999999
 22
-1.2599999999999989
 32
3.1899999999999991
 13
-1.149999999999999
 23
-1.27
 33
3.1899999999999991
  0
3DFACE
  5
8FD
  8
CARGO_BAY
 10
-1.169999999999997
 20
-1.2599999999999989
 30
3.0499999999999998
 11
-1.159999999999997
 21
-1.27
 31
3.0499999999999998
 12
-1.149999999999999
 22
-1.27
 32
3.1899999999999991
 13
-1.159999999999999
 23
-1.2599999999999989
 33
3.1899999999999991
  0
3DFACE
  5
8FE
  8
CARGO_BAY
 10
-1.159999999999997
 20
-1.25
 30
3.0499999999999998
 11
-1.169999999999997
 21
-1.2599999999999989
 31
3.0499999999999998
 12
-1.159999999999999
 22
-1.2599999999999989
 32
3.1899999999999991
 13
-1.149999999999999
 23
-1.25
 33
3.1899999999999991
  0
3DFACE
  5
8FF
  8
CARGO_BAY
 10
1.149999999999997
 20
-1.26
 30
3.0499999999999998
 11
1.159999999999997
 21
-1.27
 31
3.0499999999999998
 12
1.149999999999999
 22
-1.27
 32
3.1899999999999991
 13
1.139999999999999
 23
-1.26
 33
3.1899999999999991
  0
3DFACE
  5
900
  8
CARGO_BAY
 10
1.159999999999997
 20
-1.2499999999999989
 30
3.0499999999999998
 11
1.149999999999997
 21
-1.26
 31
3.0499999999999998
 12
1.139999999999999
 22
-1.26
 32
3.1899999999999991
 13
1.149999999999999
 23
-1.2499999999999989
 33
3.1899999999999991
  0
3DFACE
  5
901
  8
CARGO_BAY
 10
1.169999999999997
 20
-1.26
 30
3.0499999999999998
 11
1.159999999999997
 21
-1.2499999999999989
 31
3.0499999999999998
 12
1.149999999999999
 22
-1.2499999999999989
 32
3.1899999999999991
 13
1.159999999999999
 23
-1.26
 33
3.1899999999999991
  0
3DFACE
  5
902
  8
CARGO_BAY
 10
1.159999999999997
 20
-1.27
 30
3.0499999999999998
 11
1.169999999999997
 21
-1.26
 31
3.0499999999999998
 12
1.159999999999999
 22
-1.26
 32
3.1899999999999991
 13
1.149999999999999
 23
-1.27
 33
3.1899999999999991
  0
3DFACE
  5
903
  8
CARGO_BAY
 10
1.139999999999997
 20
-1.26
 30
3.1899999999999991
 11
1.149999999999997
 21
-1.27
 31
3.1899999999999991
 12
1.089999999999999
 22
-1.27
 32
3.2999999999999998
 13
1.0800000000000001
 23
-1.26
 33
3.29
  0
3DFACE
  5
904
  8
CARGO_BAY
 10
1.149999999999997
 20
-1.2499999999999989
 30
3.1899999999999991
 11
1.139999999999997
 21
-1.26
 31
3.1899999999999991
 12
1.0800000000000001
 22
-1.26
 32
3.29
 13
1.089999999999999
 23
-1.2499999999999989
 33
3.2999999999999998
  0
3DFACE
  5
905
  8
CARGO_BAY
 10
-1.1399999999999979
 20
-1.2599999999999989
 30
3.1899999999999991
 11
-1.1499999999999979
 21
-1.25
 31
3.1899999999999991
 12
-1.0900000000000001
 22
-1.25
 32
3.2999999999999998
 13
-1.0800000000000001
 23
-1.2599999999999989
 33
3.29
  0
3DFACE
  5
906
  8
CARGO_BAY
 10
-1.1499999999999979
 20
-1.27
 30
3.1899999999999991
 11
-1.1399999999999979
 21
-1.2599999999999989
 31
3.1899999999999991
 12
-1.0800000000000001
 22
-1.2599999999999989
 32
3.29
 13
-1.0900000000000001
 23
-1.27
 33
3.2999999999999998
  0
3DFACE
  5
907
  8
CARGO_BAY
 10
0.5299999999999999
 20
-1.26
 30
3.359999999999999
 11
0.5299999999999999
 21
-1.2699999999999989
 31
3.3700000000000001
 12
-0.5300000000000006
 22
-1.2699999999999989
 32
3.3700000000000001
 13
-0.5300000000000006
 23
-1.26
 33
3.359999999999999
  0
3DFACE
  5
908
  8
CARGO_BAY
 10
0.5299999999999999
 20
-1.2499999999999989
 30
3.3700000000000001
 11
0.5299999999999999
 21
-1.26
 31
3.359999999999999
 12
-0.5300000000000006
 22
-1.26
 32
3.359999999999999
 13
-0.5300000000000006
 23
-1.2499999999999989
 33
3.3700000000000001
  0
3DFACE
  5
909
  8
CARGO_BAY
 10
0.5299999999999999
 20
-1.26
 30
3.379999999999999
 11
0.5299999999999999
 21
-1.2499999999999989
 31
3.3700000000000001
 12
-0.5300000000000006
 22
-1.2499999999999989
 32
3.3700000000000001
 13
-0.5300000000000006
 23
-1.26
 33
3.379999999999999
  0
3DFACE
  5
90A
  8
CARGO_BAY
 10
0.5299999999999999
 20
-1.2699999999999989
 30
3.3700000000000001
 11
0.5299999999999999
 21
-1.26
 31
3.379999999999999
 12
-0.5300000000000006
 22
-1.26
 32
3.379999999999999
 13
-0.5300000000000006
 23
-1.2699999999999989
 33
3.3700000000000001
  0
3DFACE
  5
90B
  8
CARGO_BAY
 10
0.9699999999999999
 20
-1.26
 30
3.3399999999999981
 11
0.9699999999999999
 21
-1.27
 31
3.349999999999997
 12
0.5299999999999995
 22
-1.2699999999999989
 32
3.3700000000000001
 13
0.5299999999999995
 23
-1.26
 33
3.359999999999999
  0
3DFACE
  5
90C
  8
CARGO_BAY
 10
0.9699999999999999
 20
-1.2499999999999989
 30
3.349999999999997
 11
0.9699999999999999
 21
-1.26
 31
3.3399999999999981
 12
0.5299999999999995
 22
-1.26
 32
3.359999999999999
 13
0.5299999999999995
 23
-1.2499999999999989
 33
3.3700000000000001
  0
3DFACE
  5
90D
  8
CARGO_BAY
 10
0.9699999999999999
 20
-1.26
 30
3.3599999999999972
 11
0.9699999999999999
 21
-1.2499999999999989
 31
3.349999999999997
 12
0.5299999999999995
 22
-1.2499999999999989
 32
3.3700000000000001
 13
0.5299999999999995
 23
-1.26
 33
3.379999999999999
  0
3DFACE
  5
90E
  8
CARGO_BAY
 10
0.9699999999999999
 20
-1.27
 30
3.349999999999997
 11
0.9699999999999999
 21
-1.26
 31
3.3599999999999972
 12
0.5299999999999995
 22
-1.26
 32
3.379999999999999
 13
0.5299999999999995
 23
-1.2699999999999989
 33
3.3700000000000001
  0
3DFACE
  5
90F
  8
CARGO_BAY
 10
-0.9700000000000001
 20
-1.2599999999999989
 30
3.3399999999999981
 11
-0.9700000000000001
 21
-1.25
 31
3.349999999999997
 12
-0.5299999999999998
 22
-1.25
 32
3.3700000000000001
 13
-0.5299999999999998
 23
-1.26
 33
3.359999999999999
  0
3DFACE
  5
910
  8
CARGO_BAY
 10
-0.9700000000000001
 20
-1.27
 30
3.349999999999997
 11
-0.9700000000000001
 21
-1.2599999999999989
 31
3.3399999999999981
 12
-0.5299999999999998
 22
-1.26
 32
3.359999999999999
 13
-0.5299999999999998
 23
-1.27
 33
3.3700000000000001
  0
3DFACE
  5
911
  8
CARGO_BAY
 10
-0.9700000000000001
 20
-1.2599999999999989
 30
3.3599999999999972
 11
-0.9700000000000001
 21
-1.27
 31
3.349999999999997
 12
-0.5299999999999998
 22
-1.27
 32
3.3700000000000001
 13
-0.5299999999999998
 23
-1.26
 33
3.379999999999999
  0
3DFACE
  5
912
  8
CARGO_BAY
 10
-0.9700000000000001
 20
-1.25
 30
3.349999999999997
 11
-0.9700000000000001
 21
-1.2599999999999989
 31
3.3599999999999972
 12
-0.5299999999999998
 22
-1.26
 32
3.379999999999999
 13
-0.5299999999999998
 23
-1.25
 33
3.3700000000000001
  0
3DFACE
  5
9F3
  8
CARGO_BAY
 10
-0.4799999999999999
 20
0.3000000000000007
 30
2.2000000000000002
 11
-0.4799999999999999
 21
0.3000000000000007
 31
1.6399999999999999
 12
-0.48
 22
-0.1
 32
1.6399999999999999
 13
-0.48
 23
-0.1
 33
2.2000000000000002
  0
3DFACE
  5
9F4
  8
CARGO_BAY
 10
1.1200000000000001
 20
0.3000000000000006
 30
2.2000000000000002
 11
1.1200000000000001
 21
0.3000000000000006
 31
1.6399999999999999
 12
-0.4799999999999999
 22
0.3000000000000007
 32
1.6399999999999999
 13
-0.4799999999999999
 23
0.3000000000000007
 33
2.2000000000000002
  0
3DFACE
  5
9F5
  8
CARGO_BAY
 10
-0.48
 20
-0.1
 30
2.2000000000000002
 11
-0.48
 21
-0.1
 31
1.6399999999999999
 12
1.1200000000000001
 22
-0.1000000000000001
 32
1.6399999999999999
 13
1.1200000000000001
 23
-0.1000000000000001
 33
2.2000000000000002
  0
3DFACE
  5
9F7
  8
CARGO_BAY
 10
1.1200000000000001
 20
-0.1000000000000001
 30
2.2000000000000002
 11
1.1200000000000001
 21
0.3000000000000006
 31
2.2000000000000002
 12
-0.4799999999999999
 22
0.3000000000000007
 32
2.2000000000000002
 13
-0.48
 23
-0.1
 33
2.2000000000000002
  0
3DFACE
  5
9FB
  8
CARGO_BAY
 10
1.1200000000000001
 20
-0.88
 30
1.6399999999999999
 11
1.1200000000000001
 21
-0.6600000000000003
 31
1.6399999999999999
 12
1.1200000000000001
 22
-0.6600000000000003
 32
2.2000000000000002
 13
1.1200000000000001
 23
-0.88
 33
2.2000000000000002
  0
3DFACE
  5
9FC
  8
CARGO_BAY
 10
1.1200000000000001
 20
-0.4799999999999995
 30
2.2000000000000002
 11
1.1200000000000001
 21
-0.4799999999999995
 31
1.6399999999999999
 12
-0.4800000000000001
 22
-0.4799999999999993
 32
1.6399999999999999
 13
-0.4800000000000001
 23
-0.4799999999999993
 33
2.2000000000000002
  0
3DFACE
  5
9FD
  8
CARGO_BAY
 10
-0.4800000000000001
 20
-0.4799999999999993
 30
2.2000000000000002
 11
-0.4800000000000001
 21
-0.4799999999999993
 31
1.6399999999999999
 12
-0.4800000000000001
 22
-0.8799999999999998
 32
1.6399999999999999
 13
-0.4800000000000001
 23
-0.8799999999999998
 33
2.2000000000000002
  0
3DFACE
  5
9FE
  8
CARGO_BAY
 10
-0.4800000000000001
 20
-0.8799999999999998
 30
2.2000000000000002
 11
-0.4800000000000001
 21
-0.8799999999999998
 31
1.6399999999999999
 12
1.1200000000000001
 22
-0.88
 32
1.6399999999999999
 13
1.1200000000000001
 23
-0.88
 33
2.2000000000000002
  0
3DFACE
  5
A00
  8
CARGO_BAY
 10
1.1200000000000001
 20
-0.88
 30
2.2000000000000002
 11
1.1200000000000001
 21
-0.4799999999999995
 31
2.2000000000000002
 12
-0.4800000000000001
 22
-0.4799999999999993
 32
2.2000000000000002
 13
-0.4800000000000001
 23
-0.8799999999999998
 33
2.2000000000000002
  0
VIEWPORT
  5
2E
 67
     1
  8
0
 10
144.7270812988281
 20
101.2295806407928
 30
0.0
 40
391.13550988316581
 41
222.15178063964839
 68
     2
 69
     1
1001
ACAD
1000
MVIEW
1002
{
1070
    16
1010
0.0
1020
0.0
1030
0.0
1010
0.0
1020
0.0
1030
1.0
1040
0.0
1040
222.15178063964839
1040
144.7270812988281
1040
101.2295806407928
1040
50.0
1040
0.0
1040
0.0
1070
     0
1070
   100
1070
     1
1070
     1
1070
     0
1070
     0
1070
     0
1070
     0
1040
0.0
1040
0.0
1040
0.0
1040
10.0
1040
10.0
1040
10.0
1040
10.0
1070
     0
1002
{
1002
}
1002
}
  0
VIEWPORT
  5
30
 67
     1
  8
0
 10
139.22375631332389
 20
100.8062499761581
 30
0.0
 40
222.75801010131829
 41
161.289999961853
 68
     1
 69
     2
1001
ACAD
1000
MVIEW
1002
{
1070
    16
1010
0.0
1020
0.0
1030
0.0
1010
0.0
1020
0.0
1030
1.0
1040
0.0
1040
307.49010134148989
1040
210.0
1040
148.5
1040
50.0
1040
0.0
1040
0.0
1070
     0
1070
   100
1070
     1
1070
     3
1070
     0
1070
     1
1070
     0
1070
     0
1040
0.0
1040
0.0
1040
0.0
1040
10.0
1040
10.0
1040
10.0
1040
10.0
1070
     0
1002
{
1002
}
1002
}
  0
ENDSEC
  0
EOF
