  0
SECTION
  2
HEADER
  9
$ACADVER
  1
AC1009
  9
$INSBASE
 10
0.0
 20
0.0
 30
0.0
  9
$EXTMIN
 10
-5.8200000000000021
 20
-38.789359322020601
 30
-5.7186398350770169
  9
$EXTMAX
 10
5.8200000000000021
 20
16.460000000000001
 30
17.239380530973438
  9
$LIMMIN
 10
0.0
 20
0.0
  9
$LIMMAX
 10
420.0
 20
297.0
  9
$ORTHOMODE
 70
     1
  9
$REGENMODE
 70
     1
  9
$FILLMODE
 70
     1
  9
$QTEXTMODE
 70
     0
  9
$MIRRTEXT
 70
     1
  9
$DRAGMODE
 70
     2
  9
$LTSCALE
 40
1.0
  9
$OSMODE
 70
   559
  9
$ATTMODE
 70
     1
  9
$TEXTSIZE
 40
2.5
  9
$TRACEWID
 40
1.0
  9
$TEXTSTYLE
  7
STANDARD
  9
$CLAYER
  8
H2
  9
$CELTYPE
  6
BYLAYER
  9
$CECOLOR
 62
   256
  9
$DIMSCALE
 40
1.0
  9
$DIMASZ
 40
2.5
  9
$DIMEXO
 40
0.625
  9
$DIMDLI
 40
3.75
  9
$DIMRND
 40
0.0
  9
$DIMDLE
 40
0.0
  9
$DIMEXE
 40
1.25
  9
$DIMTP
 40
0.0
  9
$DIMTM
 40
0.0
  9
$DIMTXT
 40
2.5
  9
$DIMCEN
 40
2.5
  9
$DIMTSZ
 40
0.0
  9
$DIMTOL
 70
     0
  9
$DIMLIM
 70
     0
  9
$DIMTIH
 70
     0
  9
$DIMTOH
 70
     0
  9
$DIMSE1
 70
     0
  9
$DIMSE2
 70
     0
  9
$DIMTAD
 70
     1
  9
$DIMZIN
 70
     8
  9
$DIMBLK
  1

  9
$DIMASO
 70
     1
  9
$DIMSHO
 70
     1
  9
$DIMPOST
  1

  9
$DIMAPOST
  1

  9
$DIMALT
 70
     0
  9
$DIMALTD
 70
     3
  9
$DIMALTF
 40
0.03937007874016
  9
$DIMLFAC
 40
1.0
  9
$DIMTOFL
 70
     1
  9
$DIMTVP
 40
0.0
  9
$DIMTIX
 70
     0
  9
$DIMSOXD
 70
     0
  9
$DIMSAH
 70
     0
  9
$DIMBLK1
  1

  9
$DIMBLK2
  1

  9
$DIMSTYLE
  2
ISO-25
  9
$DIMCLRD
 70
     0
  9
$DIMCLRE
 70
     0
  9
$DIMCLRT
 70
     0
  9
$DIMTFAC
 40
1.0
  9
$DIMGAP
 40
0.625
  9
$LUNITS
 70
     2
  9
$LUPREC
 70
     4
  9
$SKETCHINC
 40
1.0
  9
$FILLETRAD
 40
10.0
  9
$AUNITS
 70
     0
  9
$AUPREC
 70
     0
  9
$MENU
  1
.
  9
$ELEVATION
 40
0.0
  9
$PELEVATION
 40
0.0
  9
$THICKNESS
 40
0.0
  9
$LIMCHECK
 70
     0
  9
$BLIPMODE
 70
     0
  9
$CHAMFERA
 40
10.0
  9
$CHAMFERB
 40
10.0
  9
$SKPOLY
 70
     0
  9
$TDCREATE
 40
2454754.8074208102
  9
$TDUPDATE
 40
2454754.9096844438
  9
$TDINDWG
 40
0.1022636343
  9
$TDUSRTIMER
 40
0.1022636343
  9
$USRTIMER
 70
     1
  9
$ANGBASE
 50
0.0
  9
$ANGDIR
 70
     0
  9
$PDMODE
 70
     0
  9
$PDSIZE
 40
0.0
  9
$PLINEWID
 40
0.0
  9
$COORDS
 70
     1
  9
$SPLFRAME
 70
     0
  9
$SPLINETYPE
 70
     6
  9
$SPLINESEGS
 70
     8
  9
$ATTDIA
 70
     1
  9
$ATTREQ
 70
     1
  9
$HANDLING
 70
-16383
  9
$HANDSEED
  5
547
  9
$SURFTAB1
 70
     6
  9
$SURFTAB2
 70
     6
  9
$SURFTYPE
 70
     6
  9
$SURFU
 70
     6
  9
$SURFV
 70
     6
  9
$UCSNAME
  2

  9
$UCSORG
 10
0.0
 20
0.0
 30
0.0
  9
$UCSXDIR
 10
0.0
 20
-1.0
 30
0.0
  9
$UCSYDIR
 10
0.0
 20
0.0
 30
1.0
  9
$PUCSNAME
  2

  9
$PUCSORG
 10
0.0
 20
0.0
 30
0.0
  9
$PUCSXDIR
 10
1.0
 20
0.0
 30
0.0
  9
$PUCSYDIR
 10
0.0
 20
1.0
 30
0.0
  9
$USERI1
 70
     0
  9
$USERI2
 70
     0
  9
$USERI3
 70
     0
  9
$USERI4
 70
     0
  9
$USERI5
 70
     0
  9
$USERR1
 40
0.0
  9
$USERR2
 40
0.0
  9
$USERR3
 40
0.0
  9
$USERR4
 40
0.0
  9
$USERR5
 40
0.0
  9
$WORLDVIEW
 70
     1
  9
$SHADEDGE
 70
     3
  9
$SHADEDIF
 70
    70
  9
$TILEMODE
 70
     1
  9
$MAXACTVP
 70
    64
  9
$PLIMCHECK
 70
     0
  9
$PEXTMIN
 10
27.844751262664801
 20
20.161249995231621
 30
0.0
  9
$PEXTMAX
 10
250.60276136398309
 20
181.4512499570846
 30
0.0
  9
$PLIMMIN
 10
-3.757080078125
 20
-3.7570831775665279
  9
$PLIMMAX
 10
293.21124267578119
 20
206.21624445915219
  9
$UNITMODE
 70
     0
  9
$VISRETAIN
 70
     1
  9
$PLINEGEN
 70
     0
  9
$PSLTSCALE
 70
     1
  0
ENDSEC
  0
SECTION
  2
TABLES
  0
TABLE
  2
VPORT
 70
    37
  0
VPORT
  2
*ACTIVE
 70
     0
 10
0.0
 20
0.0
 11
1.0
 21
1.0
 12
10.21301860705691
 22
-5.9371674980607088
 13
0.0
 23
0.0
 14
0.01
 24
0.01
 15
1.0
 25
1.0
 16
-1.0
 26
0.0
 36
0.0
 17
0.0
 27
0.0
 37
0.0
 40
54.092770195482977
 41
1.7606679035250461
 42
50.0
 43
0.0
 44
0.0
 50
0.0
 51
0.0
 71
     0
 72
   100
 73
     1
 74
     3
 75
     1
 76
     1
 77
     0
 78
     0
  0
ENDTAB
  0
TABLE
  2
LTYPE
 70
     1
  0
LTYPE
  2
CONTINUOUS
 70
     0
  3
Solid line
 72
    65
 73
     0
 40
0.0
  0
ENDTAB
  0
TABLE
  2
LAYER
 70
     8
  0
LAYER
  2
0
 70
     0
 62
     7
  6
CONTINUOUS
  0
LAYER
  2
DR1
 70
     0
 62
     9
  6
CONTINUOUS
  0
LAYER
  2
DR2
 70
     0
 62
    -9
  6
CONTINUOUS
  0
LAYER
  2
H2
 70
     4
 62
     7
  6
CONTINUOUS
  0
LAYER
  2
WING1
 70
     0
 62
     5
  6
CONTINUOUS
  0
LAYER
  2
WING2
 70
     0
 62
     6
  6
CONTINUOUS
  0
LAYER
  2
PROP
 70
     0
 62
     1
  6
CONTINUOUS
  0
LAYER
  2
WHEELS
 70
     0
 62
     2
  6
CONTINUOUS
  0
ENDTAB
  0
TABLE
  2
STYLE
 70
     1
  0
STYLE
  2
STANDARD
 70
     0
 40
0.0
 41
1.0
 50
0.0
 71
     0
 42
2.5
  3
txt
  4

  0
ENDTAB
  0
TABLE
  2
VIEW
 70
     0
  0
ENDTAB
  0
TABLE
  2
UCS
 70
     0
  0
ENDTAB
  0
TABLE
  2
APPID
 70
     1
  0
APPID
  2
ACAD
 70
     0
  0
ENDTAB
  0
TABLE
  2
DIMSTYLE
 70
     1
  0
DIMSTYLE
  2
ISO-25
 70
     0
  3

  4

  5

  6

  7

 40
1.0
 41
2.5
 42
0.625
 43
3.75
 44
1.25
 45
0.0
 46
0.0
 47
0.0
 48
0.0
140
2.5
141
2.5
142
0.0
143
0.03937007874016
144
1.0
145
0.0
146
1.0
147
0.625
 71
     0
 72
     0
 73
     0
 74
     0
 75
     0
 76
     0
 77
     1
 78
     8
170
     0
171
     3
172
     1
173
     0
174
     0
175
     0
176
     0
177
     0
178
     0
  0
ENDTAB
  0
ENDSEC
  0
SECTION
  2
BLOCKS
  0
BLOCK
  8
0
  2
$MODEL_SPACE
 70
     0
 10
0.0
 20
0.0
 30
0.0
  3
$MODEL_SPACE
  1

  0
ENDBLK
  5
21
  8
0
  0
BLOCK
 67
     1
  8
0
  2
$PAPER_SPACE
 70
     0
 10
0.0
 20
0.0
 30
0.0
  3
$PAPER_SPACE
  1

  0
ENDBLK
  5
1D
 67
     1
  8
0
  0
ENDSEC
  0
SECTION
  2
ENTITIES
  0
3DFACE
  5
122
  8
H2
 62
     3
 10
0.1071480000000013
 20
-1.79
 30
0.5153550000000005
 11
0.2321540000000017
 21
-1.79
 31
0.29
 12
0.0
 22
-3.3700000000000001
 32
0.0599999999999996
 13
0.0
 23
-3.3700000000000001
 33
0.5153550000000005
  0
3DFACE
  5
123
  8
H2
 62
     3
 10
0.1200000000000014
 20
-1.180000000000001
 30
0.6400000000000015
 11
0.260000000000002
 21
-1.180000000000001
 31
0.4100000000000011
 12
0.2321540000000017
 22
-1.79
 32
0.29
 13
0.1071480000000013
 23
-1.79
 33
0.5153550000000005
  0
3DFACE
  5
124
  8
H2
 10
0.260000000000002
 20
-1.180000000000001
 30
0.4100000000000011
 11
0.3300000000000023
 21
-1.180000000000001
 31
0.370000000000001
 12
0.1699999999999986
 22
-2.3999999999999999
 32
0.1800000000000015
 13
0.1000000000000019
 23
-2.3999999999999999
 33
0.2100000000000017
  0
3DFACE
  5
125
  8
H2
 10
0.0000000000000004
 20
-1.180000000000001
 30
0.4100000000000011
 11
0.260000000000002
 21
-1.180000000000001
 31
0.4100000000000011
 12
0.1000000000000019
 22
-2.3999999999999999
 32
0.2100000000000017
 13
0.0000000000000004
 23
-2.3999999999999999
 33
0.2200000000000015
  0
3DFACE
  5
126
  8
H2
 10
0.4900000000000025
 20
1.369999999999999
 30
0.5800000000000001
 11
0.630000000000003
 21
1.369999999999999
 31
0.3900000000000014
 12
0.4700000000000029
 22
-1.180000000000001
 32
0.2300000000000013
 13
0.3799999999999994
 23
-1.180000000000001
 33
0.330000000000001
  0
3DFACE
  5
127
  8
H2
 10
0.4100000000000006
 20
1.369999999999999
 30
0.6600000000000003
 11
0.4900000000000025
 21
1.369999999999999
 31
0.5800000000000001
 12
0.3799999999999994
 22
-1.180000000000001
 32
0.330000000000001
 13
0.3300000000000023
 23
-1.180000000000001
 33
0.370000000000001
  0
3DFACE
  5
128
  8
H2
 10
0.3200000000000007
 20
1.369999999999999
 30
0.7200000000000008
 11
0.4100000000000006
 21
1.369999999999999
 31
0.6600000000000003
 12
0.3300000000000023
 22
-1.180000000000001
 32
0.370000000000001
 13
0.260000000000002
 23
-1.180000000000001
 33
0.4100000000000011
  0
3DFACE
  5
129
  8
H2
 10
0.6099999999999995
 20
2.5799999999999992
 30
0.4400000000000004
 11
0.6999999999999993
 21
2.5799999999999992
 31
0.2800000000000002
 12
0.6900000000000018
 22
1.369999999999999
 32
0.2300000000000013
 13
0.630000000000003
 23
1.369999999999999
 33
0.3900000000000014
  0
3DFACE
  5
12A
  8
H2
 10
0.4899999999999985
 20
2.5799999999999992
 30
0.5700000000000003
 11
0.6099999999999995
 21
2.5799999999999992
 31
0.4400000000000004
 12
0.630000000000003
 22
1.369999999999999
 32
0.3900000000000014
 13
0.4900000000000025
 23
1.369999999999999
 33
0.5800000000000001
  0
3DFACE
  5
12B
  8
H2
 10
0.5399999999999992
 20
3.719999999999998
 30
0.3500000000000005
 11
0.5999999999999979
 21
3.719999999999998
 31
0.2300000000000004
 12
0.6999999999999993
 22
2.5799999999999992
 32
0.2800000000000002
 13
0.6099999999999995
 23
2.5799999999999992
 33
0.4400000000000004
  0
3DFACE
  5
12C
  8
H2
 10
0.4000000000000004
 20
3.719999999999998
 30
0.4900000000000003
 11
0.5399999999999992
 21
3.719999999999998
 31
0.3500000000000005
 12
0.6099999999999995
 22
2.5799999999999992
 32
0.4400000000000004
 13
0.4899999999999985
 23
2.5799999999999992
 33
0.5700000000000003
  0
3DFACE
  5
12D
  8
H2
 10
0.3694800000000002
 20
3.919999999999999
 30
0.4656649999999996
 11
0.4987979999999994
 21
3.919999999999999
 31
0.3363469999999999
 12
0.5399999999999992
 22
3.719999999999998
 32
0.3500000000000005
 13
0.4000000000000004
 23
3.719999999999998
 33
0.4900000000000003
  0
3DFACE
  5
12E
  8
H2
 10
0.3023085360000004
 20
4.0699999999999994
 30
0.4291891029999997
 11
0.4081165235999995
 21
4.0699999999999994
 31
0.3233811154000001
 12
0.4987979999999994
 22
3.919999999999999
 32
0.3363469999999999
 13
0.3694800000000002
 23
3.919999999999999
 33
0.4656649999999996
  0
3DFACE
  5
12F
  8
H2
 10
-0.0000000000000009
 20
-3.7700000000000009
 30
-0.1865999999999994
 11
0.01288
 21
-3.7700000000000009
 31
-0.1865999999999994
 12
0.0399999999999996
 22
-2.7700000000000009
 32
-0.3999999999999977
 13
-0.0000000000000031
 23
-2.7700000000000009
 33
-0.3999999999999977
  0
3DFACE
  5
130
  8
H2
 10
0.1099999999999999
 20
-2.7700000000000009
 30
-0.3699999999999983
 11
0.0399999999999996
 21
-2.7700000000000009
 31
-0.3999999999999977
 12
0.01288
 22
-3.7700000000000009
 32
-0.1865999999999994
 13
0.0354200000000002
 23
-3.7700000000000009
 33
-0.1769399999999992
  0
3DFACE
  5
131
  8
H2
 10
0.1699999999999986
 20
-2.7700000000000009
 30
-0.3299999999999983
 11
0.1099999999999999
 21
-2.7700000000000009
 31
-0.3699999999999983
 12
0.0354200000000002
 22
-3.7700000000000009
 32
-0.1769399999999992
 13
0.0547399999999998
 23
-3.7700000000000009
 33
-0.1640599999999992
  0
3DFACE
  5
132
  8
H2
 10
0.2199999999999993
 20
-2.7700000000000009
 30
-0.2799999999999985
 11
0.1699999999999986
 21
-2.7700000000000009
 31
-0.3299999999999983
 12
0.0547399999999998
 22
-3.7700000000000009
 32
-0.1640599999999992
 13
0.07084
 23
-3.7700000000000009
 33
-0.1479599999999994
  0
3DFACE
  5
133
  8
H2
 10
0.3099999999999992
 20
-2.3999999999999999
 30
-0.2899999999999982
 11
0.260000000000002
 21
-2.3999999999999999
 31
-0.3599999999999976
 12
0.1699999999999986
 22
-2.7700000000000009
 32
-0.3299999999999983
 13
0.2199999999999993
 23
-2.7700000000000009
 33
-0.2799999999999985
  0
3DFACE
  5
134
  8
H2
 10
0.3400000000000003
 20
-2.3999999999999999
 30
-0.2099999999999982
 11
0.3099999999999992
 21
-2.3999999999999999
 31
-0.2899999999999982
 12
0.2199999999999993
 22
-2.7700000000000009
 32
-0.2799999999999985
 13
0.2599999999999984
 23
-2.7700000000000009
 33
-0.1999999999999984
  0
3DFACE
  5
135
  8
H2
 10
0.5200000000000001
 20
-1.180000000000001
 30
-0.3299999999999992
 11
0.4400000000000018
 21
-1.180000000000001
 31
-0.4599999999999991
 12
0.3099999999999992
 22
-2.3999999999999999
 32
-0.2899999999999982
 13
0.3400000000000003
 23
-2.3999999999999999
 33
-0.2099999999999982
  0
3DFACE
  5
136
  8
H2
 10
0.5700000000000008
 20
-1.180000000000001
 30
-0.169999999999999
 11
0.5200000000000001
 21
-1.180000000000001
 31
-0.3299999999999992
 12
0.3400000000000003
 22
-2.3999999999999999
 32
-0.2099999999999982
 13
0.3500000000000019
 23
-2.3999999999999999
 33
-0.1599999999999984
  0
3DFACE
  5
137
  8
H2
 10
0.7400000000000025
 20
1.369999999999999
 30
-0.0999999999999988
 11
0.6900000000000018
 21
1.369999999999999
 31
-0.3499999999999988
 12
0.5200000000000001
 22
-1.180000000000001
 32
-0.3299999999999992
 13
0.5700000000000008
 23
-1.180000000000001
 33
-0.169999999999999
  0
3DFACE
  5
138
  8
H2
 10
0.759999999999998
 20
2.5799999999999992
 30
-0.0499999999999998
 11
0.6899999999999978
 21
2.5799999999999992
 31
-0.2999999999999998
 12
0.6900000000000018
 22
1.369999999999999
 32
-0.3499999999999988
 13
0.7400000000000025
 23
1.369999999999999
 33
-0.0999999999999988
  0
3DFACE
  5
139
  8
H2
 10
0.6099999999999995
 20
3.719999999999998
 30
-0.2599999999999998
 11
0.5199999999999996
 21
3.719999999999998
 31
-0.4299999999999998
 12
0.5699999999999968
 22
2.5799999999999992
 32
-0.5099999999999998
 13
0.6899999999999978
 23
2.5799999999999992
 33
-0.2999999999999998
  0
3DFACE
  5
13A
  8
H2
 10
0.6600000000000003
 20
3.719999999999998
 30
-0.0999999999999997
 11
0.6099999999999995
 21
3.719999999999998
 31
-0.2599999999999998
 12
0.6899999999999978
 22
2.5799999999999992
 32
-0.2999999999999998
 13
0.759999999999998
 23
2.5799999999999992
 33
-0.0499999999999998
  0
3DFACE
  5
13B
  8
H2
 10
0.5634569999999992
 20
3.919999999999999
 30
-0.2271099999999997
 11
0.4803239999999996
 21
3.919999999999999
 31
-0.3841390000000002
 12
0.5199999999999996
 22
3.719999999999998
 32
-0.4299999999999998
 13
0.6099999999999995
 23
3.719999999999998
 33
-0.2599999999999998
  0
3DFACE
  5
13C
  8
H2
 10
0.4610205173999998
 20
4.0699999999999994
 30
-0.1376394019999996
 11
0.3930010967999995
 21
4.0699999999999994
 31
-0.2661205298000002
 12
0.4803239999999996
 22
3.919999999999999
 32
-0.3841390000000002
 13
0.5634569999999992
 23
3.919999999999999
 33
-0.2271099999999997
  0
3DFACE
  5
13D
  8
H2
 10
0.3930010967999995
 20
4.0699999999999994
 30
-0.2661205298000002
 11
0.3023085360000004
 21
4.0699999999999994
 31
-0.3568130906000002
 12
0.3694800000000002
 22
3.919999999999999
 32
-0.4949830000000004
 13
0.4803239999999996
 23
3.919999999999999
 33
-0.3841390000000002
  0
3DFACE
  5
13E
  8
H2
 10
0.0000000000000004
 20
-2.3999999999999999
 30
-0.4799999999999987
 11
0.0800000000000023
 21
-2.3999999999999999
 31
-0.469999999999998
 12
0.1000000000000019
 22
-1.180000000000001
 32
-0.6499999999999995
 13
0.0000000000000004
 23
-1.180000000000001
 33
-0.6599999999999993
  0
3DFACE
  5
13F
  8
H2
 10
0.2300000000000009
 20
-1.180000000000001
 30
-0.6199999999999984
 11
0.1000000000000019
 21
-1.180000000000001
 31
-0.6499999999999995
 12
0.0800000000000023
 22
-2.3999999999999999
 32
-0.469999999999998
 13
0.1900000000000017
 23
-2.3999999999999999
 33
-0.4199999999999982
  0
3DFACE
  5
140
  8
H2
 10
0.3400000000000003
 20
-1.180000000000001
 30
-0.5499999999999991
 11
0.2300000000000009
 21
-1.180000000000001
 31
-0.6199999999999984
 12
0.1900000000000017
 22
-2.3999999999999999
 32
-0.4199999999999982
 13
0.260000000000002
 23
-2.3999999999999999
 33
-0.3599999999999976
  0
3DFACE
  5
141
  8
H2
 10
0.4400000000000018
 20
-1.180000000000001
 30
-0.4599999999999991
 11
0.3400000000000003
 21
-1.180000000000001
 31
-0.5499999999999991
 12
0.260000000000002
 22
-2.3999999999999999
 32
-0.3599999999999976
 13
0.3099999999999992
 23
-2.3999999999999999
 33
-0.2899999999999982
  0
3DFACE
  5
142
  8
H2
 10
-0.0000000000000031
 20
-2.7700000000000009
 30
-0.3999999999999977
 11
0.0399999999999996
 21
-2.7700000000000009
 31
-0.3999999999999977
 12
0.0800000000000023
 22
-2.3999999999999999
 32
-0.469999999999998
 13
0.0000000000000004
 23
-2.3999999999999999
 33
-0.4799999999999987
  0
3DFACE
  5
143
  8
H2
 10
0.1900000000000017
 20
-2.3999999999999999
 30
-0.4199999999999982
 11
0.0800000000000023
 21
-2.3999999999999999
 31
-0.469999999999998
 12
0.0399999999999996
 22
-2.7700000000000009
 32
-0.3999999999999977
 13
0.1099999999999999
 23
-2.7700000000000009
 33
-0.3699999999999983
  0
3DFACE
  5
144
  8
H2
 10
0.260000000000002
 20
-2.3999999999999999
 30
-0.3599999999999976
 11
0.1900000000000017
 21
-2.3999999999999999
 31
-0.4199999999999982
 12
0.1099999999999999
 22
-2.7700000000000009
 32
-0.3699999999999983
 13
0.1699999999999986
 23
-2.7700000000000009
 33
-0.3299999999999983
  0
3DFACE
  5
145
  8
H2
 10
0.2300000000000009
 20
1.369999999999999
 30
-0.7900000000000002
 11
0.1000000000000019
 21
1.369999999999999
 31
-0.8199999999999993
 12
0.1000000000000019
 22
-1.180000000000001
 32
-0.6499999999999995
 13
0.2300000000000009
 23
-1.180000000000001
 33
-0.6199999999999984
  0
3DFACE
  5
146
  8
H2
 10
0.4000000000000026
 20
1.369999999999999
 30
-0.7199999999999998
 11
0.2300000000000009
 21
1.369999999999999
 31
-0.7900000000000002
 12
0.2300000000000009
 22
-1.180000000000001
 32
-0.6199999999999984
 13
0.3400000000000003
 23
-1.180000000000001
 33
-0.5499999999999991
  0
3DFACE
  5
147
  8
H2
 10
0.5700000000000008
 20
1.369999999999999
 30
-0.5599999999999996
 11
0.4000000000000026
 21
1.369999999999999
 31
-0.7199999999999998
 12
0.3400000000000003
 22
-1.180000000000001
 32
-0.5499999999999991
 13
0.4400000000000018
 23
-1.180000000000001
 33
-0.4599999999999991
  0
3DFACE
  5
148
  8
H2
 10
0.5699999999999968
 20
2.5799999999999992
 30
-0.5099999999999998
 11
0.3999999999999986
 21
2.5799999999999992
 31
-0.67
 12
0.4000000000000026
 22
1.369999999999999
 32
-0.7199999999999998
 13
0.5700000000000008
 23
1.369999999999999
 33
-0.5599999999999996
  0
3DFACE
  5
149
  8
H2
 10
0.4000000000000004
 20
3.719999999999998
 30
-0.5499999999999999
 11
0.2300000000000004
 21
3.719999999999998
 31
-0.6499999999999995
 12
0.2300000000000004
 22
2.5799999999999992
 32
-0.7400000000000003
 13
0.3999999999999986
 23
2.5799999999999992
 33
-0.67
  0
3DFACE
  5
14A
  8
H2
 10
0.5199999999999996
 20
3.719999999999998
 30
-0.4299999999999998
 11
0.4000000000000004
 21
3.719999999999998
 31
-0.5499999999999999
 12
0.3999999999999986
 22
2.5799999999999992
 32
-0.67
 13
0.5699999999999968
 23
2.5799999999999992
 33
-0.5099999999999998
  0
3DFACE
  5
14B
  8
H2
 10
0.3694800000000002
 20
3.919999999999999
 30
-0.4949830000000004
 11
0.2124510000000002
 21
3.919999999999999
 31
-0.5873529999999994
 12
0.2300000000000004
 22
3.719999999999998
 32
-0.6499999999999995
 13
0.4000000000000004
 23
3.719999999999998
 33
-0.5499999999999999
  0
3DFACE
  5
14C
  8
H2
 10
0.2124510000000002
 20
3.919999999999999
 30
-0.5873529999999994
 11
0.0923699999999999
 21
3.919999999999999
 31
-0.6150640000000003
 12
0.0999999999999997
 22
3.719999999999998
 32
-0.6799999999999998
 13
0.2300000000000004
 23
3.719999999999998
 33
-0.6499999999999995
  0
3DFACE
  5
14D
  8
H2
 10
0.0
 20
3.719999999999998
 30
-0.6899999999999995
 11
0.0999999999999997
 21
3.719999999999998
 31
-0.6799999999999998
 12
0.0923699999999999
 22
3.919999999999999
 32
-0.6150640000000003
 13
0.0
 23
3.919999999999999
 33
-0.624301
  0
3DFACE
  5
14E
  8
H2
 10
0.0
 20
3.919999999999999
 30
-0.624301
 11
0.0923699999999999
 21
3.919999999999999
 31
-0.6150640000000003
 12
0.0755771339999996
 22
4.0699999999999994
 32
-0.4550633648
 13
0.0
 23
4.0699999999999994
 33
-0.4626210782000007
  0
3DFACE
  5
14F
  8
H2
 10
0.0000000000000004
 20
-1.180000000000001
 30
-0.6599999999999993
 11
0.1000000000000019
 21
-1.180000000000001
 31
-0.6499999999999995
 12
0.1000000000000019
 22
1.369999999999999
 32
-0.8199999999999993
 13
0.0000000000000004
 23
1.369999999999999
 33
-0.8299999999999991
  0
3DFACE
  5
150
  8
H2
 10
0.0000000000000004
 20
1.369999999999999
 30
-0.8299999999999991
 11
0.1000000000000019
 21
1.369999999999999
 31
-0.8199999999999993
 12
0.0999999999999979
 22
2.5799999999999992
 32
-0.7699999999999996
 13
-0.0000000000000036
 23
2.5799999999999992
 33
-0.7800000000000003
  0
3DFACE
  5
151
  8
H2
 10
0.2300000000000004
 20
2.5799999999999992
 30
-0.7400000000000003
 11
0.0999999999999979
 21
2.5799999999999992
 31
-0.7699999999999996
 12
0.1000000000000019
 22
1.369999999999999
 32
-0.8199999999999993
 13
0.2300000000000009
 23
1.369999999999999
 33
-0.7900000000000002
  0
3DFACE
  5
152
  8
H2
 10
0.3999999999999986
 20
2.5799999999999992
 30
-0.67
 11
0.2300000000000004
 21
2.5799999999999992
 31
-0.7400000000000003
 12
0.2300000000000009
 22
1.369999999999999
 32
-0.7900000000000002
 13
0.4000000000000026
 23
1.369999999999999
 33
-0.7199999999999998
  0
3DFACE
  5
153
  8
H2
 10
-0.0000000000000036
 20
2.5799999999999992
 30
-0.7800000000000003
 11
0.0999999999999979
 21
2.5799999999999992
 31
-0.7699999999999996
 12
0.0999999999999997
 22
3.719999999999998
 32
-0.6799999999999998
 13
0.0
 23
3.719999999999998
 33
-0.6899999999999995
  0
3DFACE
  5
154
  8
H2
 10
0.2300000000000004
 20
3.719999999999998
 30
-0.6499999999999995
 11
0.0999999999999997
 21
3.719999999999998
 31
-0.6799999999999998
 12
0.0999999999999979
 22
2.5799999999999992
 32
-0.7699999999999996
 13
0.2300000000000004
 23
2.5799999999999992
 33
-0.7400000000000003
  0
3DFACE
  5
155
  8
H2
 10
0.6900000000000018
 20
1.369999999999999
 30
-0.3499999999999988
 11
0.5700000000000008
 21
1.369999999999999
 31
-0.5599999999999996
 12
0.4400000000000018
 22
-1.180000000000001
 32
-0.4599999999999991
 13
0.5200000000000001
 23
-1.180000000000001
 33
-0.3299999999999992
  0
3DFACE
  5
156
  8
H2
 10
0.6899999999999978
 20
2.5799999999999992
 30
-0.2999999999999998
 11
0.5699999999999968
 21
2.5799999999999992
 31
-0.5099999999999998
 12
0.5700000000000008
 22
1.369999999999999
 32
-0.5599999999999996
 13
0.6900000000000018
 23
1.369999999999999
 33
-0.3499999999999988
  0
3DFACE
  5
157
  8
H2
 10
0.4803239999999996
 20
3.919999999999999
 30
-0.3841390000000002
 11
0.3694800000000002
 21
3.919999999999999
 31
-0.4949830000000004
 12
0.4000000000000004
 22
3.719999999999998
 32
-0.5499999999999999
 13
0.5199999999999996
 23
3.719999999999998
 33
-0.4299999999999998
  0
3DFACE
  5
158
  8
H2
 10
0.3023085360000004
 20
4.0699999999999994
 30
-0.3568130906000002
 11
0.1738274082000002
 21
4.0699999999999994
 31
-0.4323902245999998
 12
0.2124510000000002
 22
3.919999999999999
 32
-0.5873529999999994
 13
0.3694800000000002
 23
3.919999999999999
 33
-0.4949830000000004
  0
3DFACE
  5
159
  8
H2
 10
0.1738274082000002
 20
4.0699999999999994
 30
-0.4323902245999998
 11
0.0755771339999996
 21
4.0699999999999994
 31
-0.4550633648
 12
0.0923699999999999
 22
3.919999999999999
 32
-0.6150640000000003
 13
0.2124510000000002
 23
3.919999999999999
 33
-0.5873529999999994
  0
3DFACE
  5
15A
  8
H2
 10
0.5700000000000008
 20
-1.180000000000001
 30
-0.0199999999999987
 11
0.5700000000000008
 21
-1.180000000000001
 31
-0.169999999999999
 12
0.3500000000000019
 22
-2.3999999999999999
 32
-0.1599999999999984
 13
0.3500000000000019
 23
-2.3999999999999999
 33
-0.0899999999999981
  0
3DFACE
  5
15B
  8
H2
 10
0.5300000000000016
 20
-1.180000000000001
 30
0.1300000000000008
 11
0.5700000000000008
 21
-1.180000000000001
 31
-0.0199999999999987
 12
0.3500000000000019
 22
-2.3999999999999999
 32
-0.0899999999999981
 13
0.3300000000000023
 23
-2.3999999999999999
 33
-0.009999999999998
  0
3DFACE
  5
15C
  8
H2
 10
0.4700000000000029
 20
-1.180000000000001
 30
0.2300000000000013
 11
0.5300000000000016
 21
-1.180000000000001
 31
0.1300000000000008
 12
0.3300000000000023
 22
-2.3999999999999999
 32
-0.009999999999998
 13
0.2800000000000016
 23
-2.3999999999999999
 33
0.0700000000000021
  0
3DFACE
  5
15D
  8
H2
 10
0.3799999999999994
 20
-1.180000000000001
 30
0.330000000000001
 11
0.4700000000000029
 21
-1.180000000000001
 31
0.2300000000000013
 12
0.2800000000000016
 22
-2.3999999999999999
 32
0.0700000000000021
 13
0.2300000000000009
 23
-2.3999999999999999
 33
0.1300000000000016
  0
3DFACE
  5
15E
  8
H2
 10
0.3300000000000023
 20
-1.180000000000001
 30
0.370000000000001
 11
0.3799999999999994
 21
-1.180000000000001
 31
0.330000000000001
 12
0.2300000000000009
 22
-2.3999999999999999
 32
0.1300000000000016
 13
0.1699999999999986
 23
-2.3999999999999999
 33
0.1800000000000015
  0
3DFACE
  5
15F
  8
H2
 10
0.2199999999999993
 20
-2.7700000000000009
 30
0.0800000000000027
 11
0.2599999999999984
 21
-2.7700000000000009
 31
0.0000000000000027
 12
0.0837199999999996
 22
-3.7700000000000009
 32
-0.0577999999999994
 13
0.07084
 23
-3.7700000000000009
 33
-0.0320399999999994
  0
3DFACE
  5
160
  8
H2
 10
0.1600000000000006
 20
-2.7700000000000009
 30
0.1400000000000014
 11
0.2199999999999993
 21
-2.7700000000000009
 31
0.0800000000000027
 12
0.07084
 22
-3.7700000000000009
 32
-0.0320399999999994
 13
0.0515200000000005
 23
-3.7700000000000009
 33
-0.0127199999999999
  0
3DFACE
  5
161
  8
H2
 10
0.0999999999999983
 20
-2.7700000000000009
 30
0.1700000000000017
 11
0.1600000000000006
 21
-2.7700000000000009
 31
0.1400000000000014
 12
0.0515200000000005
 22
-3.7700000000000009
 32
-0.0127199999999999
 13
0.0321999999999996
 23
-3.7700000000000009
 33
-0.0030599999999996
  0
3DFACE
  5
162
  8
H2
 10
0.0599999999999992
 20
-2.7700000000000009
 30
0.1800000000000023
 11
0.0999999999999983
 21
-2.7700000000000009
 31
0.1700000000000017
 12
0.0321999999999996
 22
-3.7700000000000009
 32
-0.0030599999999996
 13
0.01932
 23
-3.7700000000000009
 33
0.000160000000001
  0
3DFACE
  5
163
  8
H2
 10
-0.0000000000000031
 20
-2.7700000000000009
 30
0.1900000000000021
 11
0.0599999999999992
 21
-2.7700000000000009
 31
0.1800000000000023
 12
0.01932
 22
-3.7700000000000009
 32
0.000160000000001
 13
-0.0000000000000009
 23
-3.7700000000000009
 33
0.0033800000000008
  0
3DFACE
  5
164
  8
H2
 10
0.2800000000000016
 20
-2.3999999999999999
 30
0.0700000000000021
 11
0.3300000000000023
 21
-2.3999999999999999
 31
-0.009999999999998
 12
0.2599999999999984
 22
-2.7700000000000009
 32
0.0000000000000027
 13
0.2199999999999993
 23
-2.7700000000000009
 33
0.0800000000000027
  0
3DFACE
  5
165
  8
H2
 10
0.2599999999999984
 20
-2.7700000000000009
 30
-0.1999999999999984
 11
0.2199999999999993
 21
-2.7700000000000009
 31
-0.2799999999999985
 12
0.07084
 22
-3.7700000000000009
 32
-0.1479599999999994
 13
0.0837199999999996
 23
-3.7700000000000009
 33
-0.1221999999999994
  0
3DFACE
  5
166
  8
H2
 10
0.279999999999998
 20
-2.7700000000000009
 30
-0.1499999999999977
 11
0.2599999999999984
 21
-2.7700000000000009
 31
-0.1999999999999984
 12
0.0837199999999996
 22
-3.7700000000000009
 32
-0.1221999999999994
 13
0.0901599999999996
 23
-3.7700000000000009
 33
-0.1060999999999996
  0
3DFACE
  5
167
  8
H2
 10
0.279999999999998
 20
-2.7700000000000009
 30
-0.0699999999999976
 11
0.279999999999998
 21
-2.7700000000000009
 31
-0.1499999999999977
 12
0.0901599999999996
 22
-3.7700000000000009
 32
-0.1060999999999996
 13
0.0901599999999996
 23
-3.7700000000000009
 33
-0.0803399999999997
  0
3DFACE
  5
168
  8
H2
 10
0.2599999999999984
 20
-2.7700000000000009
 30
0.0000000000000027
 11
0.279999999999998
 21
-2.7700000000000009
 31
-0.0699999999999976
 12
0.0901599999999996
 22
-3.7700000000000009
 32
-0.0803399999999997
 13
0.0837199999999996
 23
-3.7700000000000009
 33
-0.0577999999999994
  0
3DFACE
  5
169
  8
H2
 10
0.3500000000000019
 20
-2.3999999999999999
 30
-0.1599999999999984
 11
0.3400000000000003
 21
-2.3999999999999999
 31
-0.2099999999999982
 12
0.2599999999999984
 22
-2.7700000000000009
 32
-0.1999999999999984
 13
0.279999999999998
 23
-2.7700000000000009
 33
-0.1499999999999977
  0
3DFACE
  5
16A
  8
H2
 10
0.3500000000000019
 20
-2.3999999999999999
 30
-0.0899999999999981
 11
0.3500000000000019
 21
-2.3999999999999999
 31
-0.1599999999999984
 12
0.279999999999998
 22
-2.7700000000000009
 32
-0.1499999999999977
 13
0.279999999999998
 23
-2.7700000000000009
 33
-0.0699999999999976
  0
3DFACE
  5
16B
  8
H2
 10
0.3300000000000023
 20
-2.3999999999999999
 30
-0.009999999999998
 11
0.3500000000000019
 21
-2.3999999999999999
 31
-0.0899999999999981
 12
0.279999999999998
 22
-2.7700000000000009
 32
-0.0699999999999976
 13
0.2599999999999984
 23
-2.7700000000000009
 33
0.0000000000000027
  0
3DFACE
  5
16C
  8
H2
 10
0.2300000000000009
 20
-2.3999999999999999
 30
0.1300000000000016
 11
0.2800000000000016
 21
-2.3999999999999999
 31
0.0700000000000021
 12
0.2199999999999993
 22
-2.7700000000000009
 32
0.0800000000000027
 13
0.1600000000000006
 23
-2.7700000000000009
 33
0.1400000000000014
  0
3DFACE
  5
16D
  8
H2
 10
0.1699999999999986
 20
-2.3999999999999999
 30
0.1800000000000015
 11
0.2300000000000009
 21
-2.3999999999999999
 31
0.1300000000000016
 12
0.1600000000000006
 22
-2.7700000000000009
 32
0.1400000000000014
 13
0.0999999999999983
 23
-2.7700000000000009
 33
0.1700000000000017
  0
3DFACE
  5
16E
  8
H2
 10
0.1000000000000019
 20
-2.3999999999999999
 30
0.2100000000000017
 11
0.1699999999999986
 21
-2.3999999999999999
 31
0.1800000000000015
 12
0.0999999999999983
 22
-2.7700000000000009
 32
0.1700000000000017
 13
0.0599999999999992
 23
-2.7700000000000009
 33
0.1800000000000023
  0
3DFACE
  5
16F
  8
H2
 10
0.0000000000000004
 20
-2.3999999999999999
 30
0.2200000000000015
 11
0.1000000000000019
 21
-2.3999999999999999
 31
0.2100000000000017
 12
0.0599999999999992
 22
-2.7700000000000009
 32
0.1800000000000023
 13
-0.0000000000000031
 23
-2.7700000000000009
 33
0.1900000000000021
  0
3DFACE
  5
170
  8
H2
 10
0.6900000000000018
 20
1.369999999999999
 30
0.2300000000000013
 11
0.7400000000000025
 21
1.369999999999999
 31
0.0100000000000007
 12
0.5700000000000008
 22
-1.180000000000001
 32
-0.0199999999999987
 13
0.5300000000000016
 23
-1.180000000000001
 33
0.1300000000000008
  0
3DFACE
  5
171
  8
H2
 10
0.759999999999998
 20
2.5799999999999992
 30
0.0600000000000005
 11
0.759999999999998
 21
2.5799999999999992
 31
-0.0499999999999998
 12
0.7400000000000025
 22
1.369999999999999
 32
-0.0999999999999988
 13
0.7400000000000025
 23
1.369999999999999
 33
0.0100000000000007
  0
3DFACE
  5
172
  8
H2
 10
0.6999999999999993
 20
2.5799999999999992
 30
0.2800000000000002
 11
0.759999999999998
 21
2.5799999999999992
 31
0.0600000000000005
 12
0.7400000000000025
 22
1.369999999999999
 32
0.0100000000000007
 13
0.6900000000000018
 23
1.369999999999999
 33
0.2300000000000013
  0
3DFACE
  5
173
  8
H2
 10
0.6600000000000003
 20
3.719999999999998
 30
0.04
 11
0.6600000000000003
 21
3.719999999999998
 31
-0.0999999999999997
 12
0.759999999999998
 22
2.5799999999999992
 32
-0.0499999999999998
 13
0.759999999999998
 23
2.5799999999999992
 33
0.0600000000000005
  0
3DFACE
  5
174
  8
H2
 10
0.5999999999999979
 20
3.719999999999998
 30
0.2300000000000004
 11
0.6600000000000003
 21
3.719999999999998
 31
0.04
 12
0.759999999999998
 22
2.5799999999999992
 32
0.0600000000000005
 13
0.6999999999999993
 23
2.5799999999999992
 33
0.2800000000000002
  0
3DFACE
  5
175
  8
H2
 10
0.5542199999999982
 20
3.919999999999999
 30
0.2255029999999997
 11
0.6096420000000001
 21
3.919999999999999
 31
0.0499999999999998
 12
0.6600000000000003
 22
3.719999999999998
 32
0.04
 13
0.5999999999999979
 23
3.719999999999998
 33
0.2300000000000004
  0
3DFACE
  5
176
  8
H2
 10
0.4988090844
 20
4.0699999999999994
 30
0.089092
 11
0.4988090844
 21
4.0699999999999994
 31
-0.0167159875999996
 12
0.6096420000000001
 22
3.919999999999999
 32
-0.0793179999999998
 13
0.6096420000000001
 23
3.919999999999999
 33
0.0499999999999998
  0
3DFACE
  5
177
  8
H2
 10
0.4534628039999986
 20
4.0699999999999994
 30
0.2326885546000001
 11
0.4988090844
 21
4.0699999999999994
 31
0.089092
 12
0.6096420000000001
 22
3.919999999999999
 32
0.0499999999999998
 13
0.5542199999999982
 23
3.919999999999999
 33
0.2255029999999997
  0
3DFACE
  5
178
  8
H2
 10
0.7400000000000025
 20
1.369999999999999
 30
0.0100000000000007
 11
0.7400000000000025
 21
1.369999999999999
 31
-0.0999999999999988
 12
0.5700000000000008
 22
-1.180000000000001
 32
-0.169999999999999
 13
0.5700000000000008
 23
-1.180000000000001
 33
-0.0199999999999987
  0
3DFACE
  5
179
  8
H2
 10
0.6096420000000001
 20
3.919999999999999
 30
-0.0793179999999998
 11
0.5634569999999992
 21
3.919999999999999
 31
-0.2271099999999997
 12
0.6099999999999995
 22
3.719999999999998
 32
-0.2599999999999998
 13
0.6600000000000003
 23
3.719999999999998
 33
-0.0999999999999997
  0
3DFACE
  5
17A
  8
H2
 10
0.6096420000000001
 20
3.919999999999999
 30
0.0499999999999998
 11
0.6096420000000001
 21
3.919999999999999
 31
-0.0793179999999998
 12
0.6600000000000003
 22
3.719999999999998
 32
-0.0999999999999997
 13
0.6600000000000003
 23
3.719999999999998
 33
0.04
  0
3DFACE
  5
17B
  8
H2
 10
0.4988090844
 20
4.0699999999999994
 30
-0.0167159875999996
 11
0.4610205173999998
 21
4.0699999999999994
 31
-0.1376394019999996
 12
0.5634569999999992
 22
3.919999999999999
 32
-0.2271099999999997
 13
0.6096420000000001
 23
3.919999999999999
 33
-0.0793179999999998
  0
3DFACE
  5
17C
  8
H2
 10
0.630000000000003
 20
1.369999999999999
 30
0.3900000000000014
 11
0.6900000000000018
 21
1.369999999999999
 31
0.2300000000000013
 12
0.5300000000000016
 22
-1.180000000000001
 32
0.1300000000000008
 13
0.4700000000000029
 23
-1.180000000000001
 33
0.2300000000000013
  0
3DFACE
  5
17D
  8
H2
 10
0.4987979999999994
 20
3.919999999999999
 30
0.3363469999999999
 11
0.5542199999999982
 21
3.919999999999999
 31
0.2255029999999997
 12
0.5999999999999979
 22
3.719999999999998
 32
0.2300000000000004
 13
0.5399999999999992
 23
3.719999999999998
 33
0.3500000000000005
  0
3DFACE
  5
17E
  8
H2
 10
0.4081165235999995
 20
4.0699999999999994
 30
0.3233811154000001
 11
0.4534628039999986
 21
4.0699999999999994
 31
0.2326885546000001
 12
0.5542199999999982
 22
3.919999999999999
 32
0.2255029999999997
 13
0.4987979999999994
 23
3.919999999999999
 33
0.3363469999999999
  0
3DFACE
  5
180
  8
H2
 62
     3
 10
0.0300000000000016
 20
1.369999999999999
 30
1.2
 11
0.1000000000000019
 21
1.369999999999999
 31
1.1699999999999999
 12
0.0800000000000023
 22
-1.180000000000001
 32
0.6700000000000009
 13
0.0300000000000016
 23
-1.180000000000001
 33
0.6900000000000013
  0
3DFACE
  5
181
  8
H2
 62
     3
 10
0.1000000000000019
 20
1.369999999999999
 30
1.1699999999999999
 11
0.1700000000000021
 21
1.369999999999999
 31
1.1100000000000001
 12
0.1200000000000014
 22
-1.180000000000001
 32
0.6400000000000015
 13
0.0800000000000023
 23
-1.180000000000001
 33
0.6700000000000009
  0
3DFACE
  5
182
  8
H2
 62
     3
 10
0.1700000000000021
 20
1.369999999999999
 30
1.1100000000000001
 11
0.3200000000000007
 21
1.369999999999999
 31
0.7200000000000008
 12
0.260000000000002
 22
-1.180000000000001
 32
0.4100000000000011
 13
0.1200000000000014
 23
-1.180000000000001
 33
0.6400000000000015
  0
3DFACE
  5
183
  8
H2
 62
     3
 10
0.0800000000000023
 20
-1.180000000000001
 30
0.6700000000000009
 11
0.1200000000000014
 21
-1.180000000000001
 31
0.6400000000000015
 12
0.1071480000000013
 22
-1.79
 32
0.5153550000000005
 13
0.071432000000002
 23
-1.79
 33
0.5421420000000002
  0
3DFACE
  5
184
  8
H2
 62
     3
 10
0.0300000000000016
 20
-1.180000000000001
 30
0.6900000000000013
 11
0.0800000000000023
 21
-1.180000000000001
 31
0.6700000000000009
 12
0.071432000000002
 22
-1.79
 32
0.5421420000000002
 13
0.0267870000000015
 23
-1.79
 33
0.5600000000000005
  0
3DFACE
  5
186
  8
H2
 62
     3
 10
0.071432000000002
 20
-1.79
 30
0.5421420000000002
 11
0.1071480000000013
 21
-1.79
 31
0.5153550000000005
 12
0.0
 22
-3.3700000000000001
 32
0.5153550000000005
 13
0.0
 23
-3.3700000000000001
 33
0.5421420000000002
  0
3DFACE
  5
187
  8
H2
 62
     3
 10
0.0267870000000015
 20
-1.79
 30
0.5600000000000005
 11
0.071432000000002
 21
-1.79
 31
0.5421420000000002
 12
0.0
 22
-3.3700000000000001
 32
0.5421420000000002
 13
0.0000000000000004
 23
-3.3700000000000001
 33
0.5600000000000005
  0
3DFACE
  5
189
  8
H2
 10
0.1799999999999997
 20
2.5799999999999992
 30
0.75
 11
0.3199999999999967
 21
2.5799999999999992
 31
0.6900000000000004
 12
0.4100000000000006
 22
1.369999999999999
 32
0.6600000000000003
 13
0.3200000000000007
 23
1.369999999999999
 33
0.7200000000000008
  0
3DFACE
  5
18B
  8
H2
 10
0.1799999999999997
 20
3.719999999999998
 30
0.6000000000000006
 11
0.2899999999999991
 21
3.719999999999998
 31
0.5600000000000005
 12
0.3199999999999967
 22
2.5799999999999992
 32
0.6900000000000004
 13
0.1799999999999997
 23
2.5799999999999992
 33
0.75
  0
3DFACE
  5
18C
  8
H2
 10
0.0
 20
3.719999999999998
 30
0.6299999999999999
 11
0.1799999999999997
 21
3.719999999999998
 31
0.6000000000000006
 12
0.1799999999999997
 22
2.5799999999999992
 32
0.75
 13
0.0
 23
2.5799999999999992
 33
0.7800000000000003
  0
3DFACE
  5
18D
  8
H2
 10
0.000000000000004
 20
1.369999999999999
 30
0.7200000000000008
 11
0.3200000000000007
 21
1.369999999999999
 31
0.7200000000000008
 12
0.260000000000002
 22
-1.180000000000001
 32
0.4100000000000011
 13
0.0000000000000004
 23
-1.180000000000001
 33
0.4100000000000011
  0
3DFACE
  5
18E
  8
H2
 10
0.3199999999999967
 20
2.5799999999999992
 30
0.6900000000000004
 11
0.4899999999999985
 21
2.5799999999999992
 31
0.5700000000000003
 12
0.4900000000000025
 22
1.369999999999999
 32
0.5800000000000001
 13
0.4100000000000006
 23
1.369999999999999
 33
0.6600000000000003
  0
3DFACE
  5
18F
  8
H2
 10
0.2899999999999991
 20
3.719999999999998
 30
0.5600000000000005
 11
0.4000000000000004
 21
3.719999999999998
 31
0.4900000000000003
 12
0.4899999999999985
 22
2.5799999999999992
 32
0.5700000000000003
 13
0.3199999999999967
 23
2.5799999999999992
 33
0.6900000000000004
  0
3DFACE
  5
190
  8
H2
 10
0.2678729999999994
 20
3.919999999999999
 30
0.5303240000000004
 11
0.3694800000000002
 21
3.919999999999999
 31
0.4656649999999996
 12
0.4000000000000004
 22
3.719999999999998
 32
0.4900000000000003
 13
0.2899999999999991
 23
3.719999999999998
 33
0.5600000000000005
  0
3DFACE
  5
191
  8
H2
 10
0.1662659999999998
 20
3.919999999999999
 30
0.567272
 11
0.2678729999999994
 21
3.919999999999999
 31
0.5303240000000004
 12
0.2899999999999991
 22
3.719999999999998
 32
0.5600000000000005
 13
0.1799999999999997
 23
3.719999999999998
 33
0.6000000000000006
  0
3DFACE
  5
192
  8
H2
 10
0.0
 20
3.919999999999999
 30
0.5949830000000002
 11
0.1662659999999998
 21
3.919999999999999
 31
0.567272
 12
0.1799999999999997
 22
3.719999999999998
 32
0.6000000000000006
 13
0.0
 23
3.719999999999998
 33
0.6299999999999999
  0
3DFACE
  5
193
  8
H2
 10
0.2191736885999993
 20
4.0699999999999994
 30
0.4820930967999999
 11
0.3023085360000004
 21
4.0699999999999994
 31
0.4291891029999997
 12
0.3694800000000002
 22
3.919999999999999
 32
0.4656649999999996
 13
0.2678729999999994
 23
3.919999999999999
 33
0.5303240000000004
  0
3DFACE
  5
194
  8
H2
 10
0.1360388412
 20
4.0699999999999994
 30
0.5123239503999999
 11
0.2191736885999993
 21
4.0699999999999994
 31
0.4820930967999999
 12
0.2678729999999994
 22
3.919999999999999
 32
0.5303240000000004
 13
0.1662659999999998
 23
3.919999999999999
 33
0.567272
  0
3DFACE
  5
195
  8
H2
 10
0.0
 20
4.0699999999999994
 30
0.5349970906000002
 11
0.1360388412
 21
4.0699999999999994
 31
0.5123239503999999
 12
0.1662659999999998
 22
3.919999999999999
 32
0.567272
 13
0.0
 23
3.919999999999999
 33
0.5949830000000002
  0
3DFACE
  5
1A2
  8
H2
 10
-0.0000000000000009
 20
-3.7700000000000009
 30
0.0033800000000008
 11
0.01932
 21
-3.7700000000000009
 31
0.000160000000001
 12
0.0321999999999996
 22
-3.7700000000000009
 32
-0.0030599999999996
 13
-0.0193199999999998
 23
-3.7700000000000009
 33
0.000160000000001
  0
3DFACE
  5
1A3
  8
H2
 10
-0.0193199999999998
 20
-3.7700000000000009
 30
0.000160000000001
 11
0.0321999999999996
 21
-3.7700000000000009
 31
-0.0030599999999996
 12
0.0515200000000005
 22
-3.7700000000000009
 32
-0.0127199999999999
 13
-0.0321999999999995
 23
-3.7700000000000009
 33
-0.0030599999999996
  0
3DFACE
  5
1A4
  8
H2
 10
-0.0321999999999995
 20
-3.7700000000000009
 30
-0.0030599999999996
 11
0.0515200000000005
 21
-3.7700000000000009
 31
-0.0127199999999999
 12
0.07084
 22
-3.7700000000000009
 32
-0.0320399999999994
 13
-0.0515200000000003
 23
-3.7700000000000009
 33
-0.0127199999999999
  0
3DFACE
  5
1A5
  8
H2
 10
-0.0515200000000003
 20
-3.7700000000000009
 30
-0.0127199999999999
 11
0.07084
 21
-3.7700000000000009
 31
-0.0320399999999994
 12
0.0837199999999996
 22
-3.7700000000000009
 32
-0.0577999999999994
 13
-0.0708399999999998
 23
-3.7700000000000009
 33
-0.0320399999999994
  0
3DFACE
  5
1A6
  8
H2
 10
-0.0708399999999998
 20
-3.7700000000000009
 30
-0.0320399999999994
 11
0.0837199999999996
 21
-3.7700000000000009
 31
-0.0577999999999994
 12
0.0901599999999996
 22
-3.7700000000000009
 32
-0.0803399999999997
 13
-0.0837199999999996
 23
-3.7700000000000009
 33
-0.0577999999999994
  0
3DFACE
  5
1A7
  8
H2
 10
-0.0837199999999996
 20
-3.7700000000000009
 30
-0.0577999999999994
 11
0.0901599999999996
 21
-3.7700000000000009
 31
-0.0803399999999997
 12
0.0901599999999996
 22
-3.7700000000000009
 32
-0.1060999999999996
 13
-0.0901599999999994
 23
-3.7700000000000009
 33
-0.0803399999999997
  0
3DFACE
  5
1A8
  8
H2
 10
-0.0901599999999994
 20
-3.7700000000000009
 30
-0.0803399999999997
 11
0.0901599999999996
 21
-3.7700000000000009
 31
-0.1060999999999996
 12
0.0837199999999996
 22
-3.7700000000000009
 32
-0.1221999999999994
 13
-0.0901599999999994
 23
-3.7700000000000009
 33
-0.1060999999999996
  0
3DFACE
  5
1A9
  8
H2
 10
-0.0901599999999994
 20
-3.7700000000000009
 30
-0.1060999999999996
 11
0.0837199999999996
 21
-3.7700000000000009
 31
-0.1221999999999994
 12
0.07084
 22
-3.7700000000000009
 32
-0.1479599999999994
 13
-0.0837199999999996
 23
-3.7700000000000009
 33
-0.1221999999999994
  0
3DFACE
  5
1AA
  8
H2
 10
-0.0837199999999996
 20
-3.7700000000000009
 30
-0.1221999999999994
 11
0.07084
 21
-3.7700000000000009
 31
-0.1479599999999994
 12
0.0547399999999998
 22
-3.7700000000000009
 32
-0.1640599999999992
 13
-0.0708399999999998
 23
-3.7700000000000009
 33
-0.1479599999999994
  0
3DFACE
  5
1AB
  8
H2
 10
-0.0708399999999998
 20
-3.7700000000000009
 30
-0.1479599999999994
 11
0.0547399999999998
 21
-3.7700000000000009
 31
-0.1640599999999992
 12
0.0354200000000002
 22
-3.7700000000000009
 32
-0.1769399999999992
 13
-0.0547399999999996
 23
-3.7700000000000009
 33
-0.1640599999999992
  0
3DFACE
  5
1AC
  8
H2
 10
-0.0547399999999996
 20
-3.7700000000000009
 30
-0.1640599999999992
 11
0.0354200000000002
 21
-3.7700000000000009
 31
-0.1769399999999992
 12
0.01288
 22
-3.7700000000000009
 32
-0.1865999999999994
 13
-0.03542
 23
-3.7700000000000009
 33
-0.1769399999999992
  0
3DFACE
  5
1AD
  8
H2
 10
-0.03542
 20
-3.7700000000000009
 30
-0.1769399999999992
 11
0.01288
 21
-3.7700000000000009
 31
-0.1865999999999994
 12
-0.0000000000000009
 22
-3.7700000000000009
 32
-0.1865999999999994
 13
-0.0128799999999999
 23
-3.7700000000000009
 33
-0.1865999999999994
  0
3DFACE
  5
3D8
  8
H2
 62
     3
 10
-0.0300000000000014
 20
1.549999999999998
 30
1.2
 11
0.0300000000000016
 21
1.549999999999998
 31
1.2
 12
0.0300000000000016
 22
1.369999999999999
 32
1.2
 13
-0.0300000000000014
 23
1.369999999999999
 33
1.2
  0
3DFACE
  5
3D9
  8
H2
 62
     3
 10
0.0300000000000016
 20
1.549999999999998
 30
1.2
 11
0.1000000000000019
 21
1.549999999999998
 31
1.1699999999999999
 12
0.1000000000000019
 22
1.369999999999999
 32
1.1699999999999999
 13
0.0300000000000016
 23
1.369999999999999
 33
1.2
  0
3DFACE
  5
3DA
  8
H2
 62
     3
 10
0.1000000000000019
 20
1.549999999999998
 30
1.1699999999999999
 11
0.1700000000000021
 21
1.549999999999998
 31
1.1100000000000001
 12
0.1700000000000021
 22
1.369999999999999
 32
1.1100000000000001
 13
0.1000000000000019
 23
1.369999999999999
 33
1.1699999999999999
  0
3DFACE
  5
3DB
  8
H2
 62
     3
 10
0.1700000000000021
 20
1.549999999999998
 30
1.1100000000000001
 11
0.3
 21
1.549999999999998
 31
0.7200000000000008
 12
0.3200000000000007
 22
1.369999999999999
 32
0.7200000000000008
 13
0.1700000000000021
 23
1.369999999999999
 33
1.1100000000000001
  0
3DFACE
  5
3E2
  8
H2
 62
     3
 10
0.1
 20
1.729999999999998
 30
1.1100000000000001
 11
0.15
 21
1.9999999999999989
 31
0.83
 12
0.3
 22
1.549999999999998
 32
0.7200000000000008
 13
0.1700000000000021
 23
1.549999999999998
 33
1.1100000000000001
  0
3DFACE
  5
3E8
  8
H2
 62
     3
 10
0.0
 20
1.609999999999999
 30
1.2
 11
0.07
 21
1.6799999999999979
 31
1.1699999999999999
 12
0.1000000000000019
 22
1.549999999999998
 32
1.1699999999999999
 13
0.0300000000000016
 23
1.549999999999998
 33
1.2
  0
3DFACE
  5
3E9
  8
H2
 62
     3
 10
0.07
 20
1.6799999999999979
 30
1.1699999999999999
 11
0.1
 21
1.729999999999998
 31
1.1100000000000001
 12
0.1700000000000021
 22
1.549999999999998
 32
1.1100000000000001
 13
0.1000000000000019
 23
1.549999999999998
 33
1.1699999999999999
  0
3DFACE
  5
3F0
  8
H2
 10
0.0
 20
2.5799999999999992
 30
0.7800000000000003
 11
0.1799999999999997
 21
2.5799999999999992
 31
0.75
 12
0.3200000000000007
 22
1.369999999999999
 32
0.7200000000000008
 13
0.15
 23
1.9999999999999989
 33
0.83
  0
VIEWPORT
  5
2E
 67
     1
  8
0
 10
144.7270812988281
 20
101.2295806407928
 30
0.0
 40
391.13550988316581
 41
222.15178063964839
 68
     2
 69
     1
1001
ACAD
1000
MVIEW
1002
{
1070
    16
1010
0.0
1020
0.0
1030
0.0
1010
0.0
1020
0.0
1030
1.0
1040
0.0
1040
222.15178063964839
1040
144.7270812988281
1040
101.2295806407928
1040
50.0
1040
0.0
1040
0.0
1070
     0
1070
   100
1070
     1
1070
     1
1070
     0
1070
     0
1070
     0
1070
     0
1040
0.0
1040
0.0
1040
0.0
1040
10.0
1040
10.0
1040
10.0
1040
10.0
1070
     0
1002
{
1002
}
1002
}
  0
VIEWPORT
  5
30
 67
     1
  8
0
 10
139.22375631332389
 20
100.8062499761581
 30
0.0
 40
222.75801010131829
 41
161.289999961853
 68
     1
 69
     2
1001
ACAD
1000
MVIEW
1002
{
1070
    16
1010
0.0
1020
0.0
1030
0.0
1010
0.0
1020
0.0
1030
1.0
1040
0.0
1040
307.49010134148989
1040
210.0
1040
148.5
1040
50.0
1040
0.0
1040
0.0
1070
     0
1070
   100
1070
     1
1070
     3
1070
     0
1070
     1
1070
     0
1070
     0
1040
0.0
1040
0.0
1040
0.0
1040
10.0
1040
10.0
1040
10.0
1040
10.0
1070
     0
1002
{
1002
}
1002
}
  0
ENDSEC
  0
EOF
