  0
SECTION
  2
HEADER
  9
$ACADVER
  1
AC1009
  9
$INSBASE
 10
0.0
 20
0.0
 30
0.0
  9
$EXTMIN
 10
-0.7200000000000008
 20
-4.4599999999999982
 30
-0.8299999999999999
  9
$EXTMAX
 10
0.7900000000000002
 20
-0.0000000000000002
 30
0.2100000000000015
  9
$LIMMIN
 10
0.0
 20
0.0
  9
$LIMMAX
 10
420.0
 20
297.0
  9
$ORTHOMODE
 70
     1
  9
$REGENMODE
 70
     1
  9
$FILLMODE
 70
     1
  9
$QTEXTMODE
 70
     0
  9
$MIRRTEXT
 70
     1
  9
$DRAGMODE
 70
     2
  9
$LTSCALE
 40
1.0
  9
$OSMODE
 70
   557
  9
$ATTMODE
 70
     1
  9
$TEXTSIZE
 40
2.5
  9
$TRACEWID
 40
1.0
  9
$TEXTSTYLE
  7
STANDARD
  9
$CLAYER
  8
TAIL
  9
$CELTYPE
  6
BYLAYER
  9
$CECOLOR
 62
   256
  9
$DIMSCALE
 40
1.0
  9
$DIMASZ
 40
2.5
  9
$DIMEXO
 40
0.625
  9
$DIMDLI
 40
3.75
  9
$DIMRND
 40
0.0
  9
$DIMDLE
 40
0.0
  9
$DIMEXE
 40
1.25
  9
$DIMTP
 40
0.0
  9
$DIMTM
 40
0.0
  9
$DIMTXT
 40
2.5
  9
$DIMCEN
 40
2.5
  9
$DIMTSZ
 40
0.0
  9
$DIMTOL
 70
     0
  9
$DIMLIM
 70
     0
  9
$DIMTIH
 70
     0
  9
$DIMTOH
 70
     0
  9
$DIMSE1
 70
     0
  9
$DIMSE2
 70
     0
  9
$DIMTAD
 70
     1
  9
$DIMZIN
 70
     8
  9
$DIMBLK
  1

  9
$DIMASO
 70
     1
  9
$DIMSHO
 70
     1
  9
$DIMPOST
  1

  9
$DIMAPOST
  1

  9
$DIMALT
 70
     0
  9
$DIMALTD
 70
     3
  9
$DIMALTF
 40
0.03937007874016
  9
$DIMLFAC
 40
1.0
  9
$DIMTOFL
 70
     1
  9
$DIMTVP
 40
0.0
  9
$DIMTIX
 70
     0
  9
$DIMSOXD
 70
     0
  9
$DIMSAH
 70
     0
  9
$DIMBLK1
  1

  9
$DIMBLK2
  1

  9
$DIMSTYLE
  2
ISO-25
  9
$DIMCLRD
 70
     0
  9
$DIMCLRE
 70
     0
  9
$DIMCLRT
 70
     0
  9
$DIMTFAC
 40
1.0
  9
$DIMGAP
 40
0.625
  9
$LUNITS
 70
     2
  9
$LUPREC
 70
     4
  9
$SKETCHINC
 40
1.0
  9
$FILLETRAD
 40
10.0
  9
$AUNITS
 70
     0
  9
$AUPREC
 70
     0
  9
$MENU
  1
.
  9
$ELEVATION
 40
0.0
  9
$PELEVATION
 40
0.0
  9
$THICKNESS
 40
0.0
  9
$LIMCHECK
 70
     0
  9
$BLIPMODE
 70
     0
  9
$CHAMFERA
 40
10.0
  9
$CHAMFERB
 40
10.0
  9
$SKPOLY
 70
     0
  9
$TDCREATE
 40
2454412.9671982639
  9
$TDUPDATE
 40
2454413.6244531241
  9
$TDINDWG
 40
0.3257433796
  9
$TDUSRTIMER
 40
0.3257433796
  9
$USRTIMER
 70
     1
  9
$ANGBASE
 50
0.0
  9
$ANGDIR
 70
     0
  9
$PDMODE
 70
     0
  9
$PDSIZE
 40
0.0
  9
$PLINEWID
 40
0.0
  9
$COORDS
 70
     1
  9
$SPLFRAME
 70
     0
  9
$SPLINETYPE
 70
     6
  9
$SPLINESEGS
 70
     8
  9
$ATTDIA
 70
     1
  9
$ATTREQ
 70
     1
  9
$HANDLING
 70
-16383
  9
$HANDSEED
  5
8A4
  9
$SURFTAB1
 70
     6
  9
$SURFTAB2
 70
     6
  9
$SURFTYPE
 70
     6
  9
$SURFU
 70
     6
  9
$SURFV
 70
     6
  9
$UCSNAME
  2

  9
$UCSORG
 10
0.0
 20
0.0
 30
0.0
  9
$UCSXDIR
 10
1.0
 20
0.0
 30
0.0
  9
$UCSYDIR
 10
0.0
 20
1.0
 30
0.0
  9
$PUCSNAME
  2

  9
$PUCSORG
 10
0.0
 20
0.0
 30
0.0
  9
$PUCSXDIR
 10
1.0
 20
0.0
 30
0.0
  9
$PUCSYDIR
 10
0.0
 20
1.0
 30
0.0
  9
$USERI1
 70
     0
  9
$USERI2
 70
     0
  9
$USERI3
 70
     0
  9
$USERI4
 70
     0
  9
$USERI5
 70
     0
  9
$USERR1
 40
0.0
  9
$USERR2
 40
0.0
  9
$USERR3
 40
0.0
  9
$USERR4
 40
0.0
  9
$USERR5
 40
0.0
  9
$WORLDVIEW
 70
     1
  9
$SHADEDGE
 70
     3
  9
$SHADEDIF
 70
    70
  9
$TILEMODE
 70
     1
  9
$MAXACTVP
 70
    64
  9
$PLIMCHECK
 70
     0
  9
$PEXTMIN
 10
27.844751262664801
 20
20.161249995231621
 30
0.0
  9
$PEXTMAX
 10
250.60276136398309
 20
181.4512499570846
 30
0.0
  9
$PLIMMIN
 10
-3.757080078125
 20
-3.7570831775665279
  9
$PLIMMAX
 10
293.21124267578119
 20
206.21624445915219
  9
$UNITMODE
 70
     0
  9
$VISRETAIN
 70
     1
  9
$PLINEGEN
 70
     0
  9
$PSLTSCALE
 70
     1
  0
ENDSEC
  0
SECTION
  2
TABLES
  0
TABLE
  2
VPORT
 70
     3
  0
VPORT
  2
*ACTIVE
 70
     0
 10
0.0
 20
0.0
 11
1.0
 21
1.0
 12
5.7587566103050154
 22
-6.0567398353346009
 13
0.0
 23
0.0
 14
0.01
 24
0.01
 15
1.0
 25
1.0
 16
0.0
 26
0.0
 36
1.0
 17
0.0
 27
0.0
 37
0.0
 40
17.271639765932552
 41
1.626102292768959
 42
50.0
 43
0.0
 44
0.0
 50
0.0
 51
0.0
 71
     0
 72
   100
 73
     1
 74
     3
 75
     1
 76
     1
 77
     0
 78
     0
  0
ENDTAB
  0
TABLE
  2
LTYPE
 70
     1
  0
LTYPE
  2
CONTINUOUS
 70
     0
  3
Solid line
 72
    65
 73
     0
 40
0.0
  0
ENDTAB
  0
TABLE
  2
LAYER
 70
     9
  0
LAYER
  2
0
 70
     0
 62
     7
  6
CONTINUOUS
  0
LAYER
  2
WHEELS
 70
     0
 62
     2
  6
CONTINUOUS
  0
LAYER
  2
DRAWING
 70
     0
 62
     9
  6
CONTINUOUS
  0
LAYER
  2
TAIL
 70
     0
 62
     3
  6
CONTINUOUS
  0
LAYER
  2
BARREL
 70
     0
 62
     1
  6
CONTINUOUS
  0
LAYER
  2
SLEEVE
 70
     0
 62
     5
  6
CONTINUOUS
  0
LAYER
  2
CRANE
 70
     0
 62
     2
  6
CONTINUOUS
  0
LAYER
  2
TRACKS
 70
     0
 62
     5
  6
CONTINUOUS
  0
LAYER
  2
SHOVEL
 70
     0
 62
     4
  6
CONTINUOUS
  0
ENDTAB
  0
TABLE
  2
STYLE
 70
     1
  0
STYLE
  2
STANDARD
 70
     0
 40
0.0
 41
1.0
 50
0.0
 71
     0
 42
2.5
  3
txt
  4

  0
ENDTAB
  0
TABLE
  2
VIEW
 70
     0
  0
ENDTAB
  0
TABLE
  2
UCS
 70
     0
  0
ENDTAB
  0
TABLE
  2
APPID
 70
     1
  0
APPID
  2
ACAD
 70
     0
  0
ENDTAB
  0
TABLE
  2
DIMSTYLE
 70
     1
  0
DIMSTYLE
  2
ISO-25
 70
     0
  3

  4

  5

  6

  7

 40
1.0
 41
2.5
 42
0.625
 43
3.75
 44
1.25
 45
0.0
 46
0.0
 47
0.0
 48
0.0
140
2.5
141
2.5
142
0.0
143
0.03937007874016
144
1.0
145
0.0
146
1.0
147
0.625
 71
     0
 72
     0
 73
     0
 74
     0
 75
     0
 76
     0
 77
     1
 78
     8
170
     0
171
     3
172
     1
173
     0
174
     0
175
     0
176
     0
177
     0
178
     0
  0
ENDTAB
  0
ENDSEC
  0
SECTION
  2
BLOCKS
  0
BLOCK
  8
0
  2
$MODEL_SPACE
 70
     0
 10
0.0
 20
0.0
 30
0.0
  3
$MODEL_SPACE
  1

  0
ENDBLK
  5
21
  8
0
  0
BLOCK
 67
     1
  8
0
  2
$PAPER_SPACE
 70
     0
 10
0.0
 20
0.0
 30
0.0
  3
$PAPER_SPACE
  1

  0
ENDBLK
  5
1D
 67
     1
  8
0
  0
ENDSEC
  0
SECTION
  2
ENTITIES
  0
3DFACE
  5
CA
  8
TAIL
 10
0.4600000000000001
 20
-0.0000000000000002
 30
0.2099999999999997
 11
0.5699999999999995
 21
-1.71
 31
-0.01
 12
0.7199999999999999
 22
-1.71
 32
-0.01
 13
0.63
 23
-0.0000000000000002
 33
0.2099999999999997
  0
3DFACE
  5
CC
  8
TAIL
 10
0.7199999999999999
 20
-1.71
 30
-0.3800000000000001
 11
0.5699999999999995
 21
-1.71
 31
-0.3800000000000001
 12
0.459999999999999
 22
-0.0000000000000002
 32
-0.1999999999999995
 13
0.63
 23
-0.0000000000000002
 33
-0.1999999999999995
  0
3DFACE
  5
CD
  8
TAIL
 10
0.63
 20
-0.0000000000000002
 30
-0.1999999999999995
 11
0.459999999999999
 21
-0.0000000000000002
 31
-0.1999999999999995
 12
0.4600000000000001
 22
-0.0000000000000002
 32
0.2099999999999997
 13
0.63
 23
-0.0000000000000002
 33
0.2099999999999997
  0
3DFACE
  5
CE
  8
TAIL
 10
0.459999999999999
 20
-0.0000000000000002
 30
-0.1999999999999995
 11
0.5699999999999995
 21
-1.71
 31
-0.3800000000000001
 12
0.5699999999999995
 22
-1.71
 32
-0.01
 13
0.4600000000000001
 23
-0.0000000000000002
 33
0.2099999999999997
  0
3DFACE
  5
CF
  8
TAIL
 10
0.63
 20
-0.0000000000000002
 30
0.2099999999999997
 11
0.7199999999999999
 21
-1.71
 31
-0.01
 12
0.7199999999999999
 22
-1.71
 32
-0.3800000000000001
 13
0.63
 23
-0.0000000000000002
 33
-0.1999999999999995
  0
3DFACE
  5
D1
  8
TAIL
 10
0.4
 20
-3.4399999999999999
 30
-0.5299999999999996
 11
0.28
 21
-3.4399999999999999
 31
-0.5299999999999996
 12
0.5699999999999995
 22
-1.71
 32
-0.3800000000000001
 13
0.7199999999999999
 23
-1.71
 33
-0.3800000000000001
  0
3DFACE
  5
D3
  8
TAIL
 10
0.5699999999999995
 20
-1.71
 30
-0.01
 11
0.28
 21
-3.4399999999999999
 31
-0.2899999999999994
 12
0.4
 22
-3.4399999999999999
 32
-0.2899999999999994
 13
0.7199999999999999
 23
-1.71
 33
-0.01
  0
3DFACE
  5
D4
  8
TAIL
 10
0.5699999999999995
 20
-1.71
 30
-0.3800000000000001
 11
0.28
 21
-3.4399999999999999
 31
-0.5299999999999996
 12
0.28
 22
-3.4399999999999999
 32
-0.2899999999999994
 13
0.5699999999999995
 23
-1.71
 33
-0.01
  0
3DFACE
  5
D6
  8
TAIL
 10
0.7199999999999999
 20
-1.71
 30
-0.01
 11
0.4
 21
-3.4399999999999999
 31
-0.2899999999999994
 12
0.4
 22
-3.4399999999999999
 32
-0.5299999999999996
 13
0.7199999999999999
 23
-1.71
 33
-0.3800000000000001
  0
3DFACE
  5
D9
  8
TAIL
 10
0.28
 20
-3.4399999999999999
 30
-0.2899999999999994
 11
0.28
 21
-4.0499999999999989
 31
-0.3499999999999999
 12
0.4
 22
-4.2299999999999986
 32
-0.3699999999999994
 13
0.4
 23
-3.4399999999999999
 33
-0.2899999999999994
  0
3DFACE
  5
DA
  8
TAIL
 10
0.4
 20
-4.2299999999999986
 30
-0.5199999999999998
 11
0.28
 21
-4.0499999999999989
 31
-0.5199999999999998
 12
0.28
 22
-3.4399999999999999
 32
-0.5299999999999996
 13
0.4
 23
-3.4399999999999999
 33
-0.5299999999999996
  0
3DFACE
  5
DB
  8
TAIL
 10
0.28
 20
-3.4399999999999999
 30
-0.5299999999999996
 11
0.28
 21
-4.0499999999999989
 31
-0.5199999999999998
 12
0.28
 22
-4.0499999999999989
 32
-0.3499999999999999
 13
0.28
 23
-3.4399999999999999
 33
-0.2899999999999994
  0
3DFACE
  5
DD
  8
TAIL
 10
0.4
 20
-3.4399999999999999
 30
-0.2899999999999994
 11
0.4
 21
-4.2299999999999986
 31
-0.3699999999999994
 12
0.4
 22
-4.2299999999999986
 32
-0.5199999999999998
 13
0.4
 23
-3.4399999999999999
 33
-0.5299999999999996
  0
3DFACE
  5
DF
  8
TAIL
 10
0.4
 20
-4.2299999999999986
 30
-0.3699999999999994
 11
-0.4000000000000006
 21
-4.2299999999999986
 31
-0.3699999999999994
 12
-0.4000000000000006
 22
-4.2299999999999986
 32
-0.5199999999999998
 13
0.4
 23
-4.2299999999999986
 33
-0.5199999999999998
  0
3DFACE
  5
E0
  8
TAIL
 10
0.28
 20
-4.0499999999999989
 30
-0.5199999999999998
 11
-0.2800000000000005
 21
-4.0499999999999989
 31
-0.5199999999999998
 12
-0.2800000000000005
 22
-4.0499999999999989
 32
-0.3499999999999999
 13
0.28
 23
-4.0499999999999989
 33
-0.3499999999999999
  0
3DFACE
  5
E1
  8
TAIL
 10
-0.4000000000000006
 20
-4.2299999999999986
 30
-0.5199999999999998
 11
-0.2800000000000005
 21
-4.0499999999999989
 31
-0.5199999999999998
 12
0.28
 22
-4.0499999999999989
 32
-0.5199999999999998
 13
0.4
 23
-4.2299999999999986
 33
-0.5199999999999998
  0
3DFACE
  5
E2
  8
TAIL
 10
0.28
 20
-4.0499999999999989
 30
-0.3499999999999999
 11
-0.2800000000000005
 21
-4.0499999999999989
 31
-0.3499999999999999
 12
-0.4000000000000006
 22
-4.2299999999999986
 32
-0.3699999999999994
 13
0.4
 23
-4.2299999999999986
 33
-0.3699999999999994
  0
3DFACE
  5
E6
  8
TAIL
 10
-0.2800000000000005
 20
-4.0499999999999989
 30
-0.5199999999999998
 11
-0.4000000000000006
 21
-4.2299999999999986
 31
-0.5199999999999998
 12
-0.4000000000000006
 22
-3.4399999999999999
 32
-0.5299999999999996
 13
-0.2800000000000005
 23
-3.4399999999999999
 33
-0.5299999999999996
  0
3DFACE
  5
E7
  8
TAIL
 10
-0.4000000000000006
 20
-3.4399999999999999
 30
-0.2899999999999994
 11
-0.4000000000000006
 21
-4.2299999999999986
 31
-0.3699999999999994
 12
-0.2800000000000005
 22
-4.0499999999999989
 32
-0.3499999999999999
 13
-0.2800000000000005
 23
-3.4399999999999999
 33
-0.2899999999999994
  0
3DFACE
  5
E8
  8
TAIL
 10
-0.4000000000000006
 20
-3.4399999999999999
 30
-0.5299999999999996
 11
-0.4000000000000006
 21
-4.2299999999999986
 31
-0.5199999999999998
 12
-0.4000000000000006
 22
-4.2299999999999986
 32
-0.3699999999999994
 13
-0.4000000000000006
 23
-3.4399999999999999
 33
-0.2899999999999994
  0
3DFACE
  5
E9
  8
TAIL
 10
-0.2800000000000005
 20
-3.4399999999999999
 30
-0.2899999999999994
 11
-0.2800000000000005
 21
-4.0499999999999989
 31
-0.3499999999999999
 12
-0.2800000000000005
 22
-4.0499999999999989
 32
-0.5199999999999998
 13
-0.2800000000000005
 23
-3.4399999999999999
 33
-0.5299999999999996
  0
3DFACE
  5
ED
  8
TAIL
 10
-0.2800000000000005
 20
-3.4399999999999999
 30
-0.5299999999999996
 11
-0.4000000000000006
 21
-3.4399999999999999
 31
-0.5299999999999996
 12
-0.7200000000000008
 22
-1.71
 32
-0.3800000000000001
 13
-0.5700000000000003
 23
-1.71
 33
-0.3800000000000001
  0
3DFACE
  5
EE
  8
TAIL
 10
-0.7200000000000008
 20
-1.71
 30
-0.3800000000000001
 11
-0.4000000000000006
 21
-3.4399999999999999
 31
-0.5299999999999996
 12
-0.4000000000000006
 22
-3.4399999999999999
 32
-0.2899999999999994
 13
-0.7200000000000008
 23
-1.71
 33
-0.0099999999999991
  0
3DFACE
  5
EF
  8
TAIL
 10
-0.7200000000000008
 20
-1.709999999999998
 30
-0.0099999999999991
 11
-0.4000000000000006
 21
-3.4399999999999982
 31
-0.2899999999999994
 12
-0.2800000000000005
 22
-3.4399999999999982
 32
-0.2899999999999994
 13
-0.5700000000000003
 23
-1.709999999999998
 33
-0.0099999999999991
  0
3DFACE
  5
F0
  8
TAIL
 10
-0.5700000000000003
 20
-1.71
 30
-0.0099999999999991
 11
-0.2800000000000005
 21
-3.4399999999999999
 31
-0.2899999999999994
 12
-0.2800000000000005
 22
-3.4399999999999999
 32
-0.5299999999999996
 13
-0.5700000000000003
 23
-1.71
 33
-0.3800000000000001
  0
3DFACE
  5
F4
  8
TAIL
 10
-0.5700000000000003
 20
-1.71
 30
-0.3800000000000001
 11
-0.7200000000000008
 21
-1.71
 31
-0.3800000000000001
 12
-0.63
 22
-0.0000000000000002
 32
-0.1999999999999995
 13
-0.4600000000000001
 23
-0.0000000000000002
 33
-0.1999999999999995
  0
3DFACE
  5
F5
  8
TAIL
 10
-0.63
 20
-0.0000000000000002
 30
-0.1999999999999995
 11
-0.7200000000000008
 21
-1.71
 31
-0.3800000000000001
 12
-0.7200000000000008
 22
-1.71
 32
-0.0099999999999991
 13
-0.63
 23
-0.0000000000000002
 33
0.2100000000000015
  0
3DFACE
  5
F6
  8
TAIL
 10
-0.63
 20
-0.0000000000000002
 30
0.2100000000000015
 11
-0.7200000000000008
 21
-1.71
 31
-0.0099999999999991
 12
-0.5700000000000003
 22
-1.71
 32
-0.0099999999999991
 13
-0.4600000000000001
 23
-0.0000000000000002
 33
0.2100000000000006
  0
3DFACE
  5
F7
  8
TAIL
 10
-0.4600000000000001
 20
-0.0000000000000002
 30
0.2100000000000006
 11
-0.5700000000000003
 21
-1.71
 31
-0.0099999999999991
 12
-0.5700000000000003
 22
-1.71
 32
-0.3800000000000001
 13
-0.4600000000000001
 23
-0.0000000000000002
 33
-0.1999999999999995
  0
3DFACE
  5
F9
  8
TAIL
 10
-0.4600000000000001
 20
-0.0000000000000002
 30
-0.1999999999999995
 11
-0.63
 21
-0.0000000000000002
 31
-0.1999999999999995
 12
-0.63
 22
-0.0000000000000002
 32
0.2100000000000015
 13
-0.4600000000000001
 23
-0.0000000000000002
 33
0.2100000000000006
  0
3DFACE
  5
FB
  8
TAIL
 10
0.5000000000000001
 20
-0.6399999999999999
 30
-0.26
 11
-0.5
 21
-0.6399999999999999
 31
-0.26
 12
-0.4900000000000001
 22
-0.4799999999999998
 32
-0.2399999999999995
 13
0.4900000000000003
 23
-0.4799999999999998
 33
-0.2399999999999995
  0
3DFACE
  5
FD
  8
TAIL
 10
-0.4900000000000001
 20
-0.4799999999999998
 30
0.1400000000000003
 11
-0.5
 21
-0.6399999999999999
 31
0.1199999999999999
 12
0.5000000000000001
 22
-0.6399999999999999
 32
0.1199999999999999
 13
0.4900000000000003
 23
-0.4799999999999998
 33
0.1400000000000003
  0
3DFACE
  5
FE
  8
TAIL
 10
0.5000000000000001
 20
-0.6399999999999999
 30
0.1199999999999999
 11
-0.5
 21
-0.6399999999999999
 31
0.1199999999999999
 12
-0.5
 22
-0.6399999999999999
 32
-0.26
 13
0.5000000000000001
 23
-0.6399999999999999
 33
-0.26
  0
3DFACE
  5
FF
  8
TAIL
 10
0.4900000000000003
 20
-0.4799999999999998
 30
-0.2399999999999995
 11
-0.4900000000000001
 21
-0.4799999999999998
 31
-0.2399999999999995
 12
-0.4900000000000001
 22
-0.4799999999999998
 32
0.1400000000000003
 13
0.4900000000000003
 23
-0.4799999999999998
 33
0.1400000000000003
  0
3DFACE
  5
102
  8
TAIL
 10
-0.5700000000000003
 20
-1.71
 30
-0.3699999999999994
 11
-0.2800000000000005
 21
-3.4399999999999999
 31
-0.51
 12
0.28
 22
-3.4399999999999999
 32
-0.51
 13
0.5699999999999995
 23
-1.71
 33
-0.3699999999999994
  0
3DFACE
  5
103
  8
TAIL
 10
-0.2800000000000005
 20
-3.4399999999999999
 30
-0.51
 11
-0.5700000000000003
 21
-1.71
 31
-0.3699999999999994
 12
0.5699999999999995
 22
-1.71
 32
-0.3699999999999994
 13
0.28
 23
-3.4399999999999999
 33
-0.51
  0
3DFACE
  5
105
  8
TAIL
 10
-0.5600000000000005
 20
-1.5599999999999989
 30
-0.3599999999999996
 11
-0.5700000000000003
 21
-1.71
 31
-0.3699999999999994
 12
0.5699999999999995
 22
-1.71
 32
-0.3699999999999994
 13
0.5599999999999997
 23
-1.5599999999999989
 33
-0.3599999999999996
  0
3DFACE
  5
106
  8
TAIL
 10
-0.5700000000000003
 20
-1.71
 30
-0.3699999999999994
 11
-0.5600000000000005
 21
-1.5599999999999989
 31
-0.3599999999999996
 12
0.5599999999999997
 22
-1.5599999999999989
 32
-0.3599999999999996
 13
0.5699999999999995
 23
-1.71
 33
-0.3699999999999994
  0
3DFACE
  5
107
  8
TAIL
 10
-0.2800000000000005
 20
-3.4399999999999999
 30
-0.51
 11
-0.2800000000000005
 21
-3.649999999999999
 31
-0.51
 12
0.28
 22
-3.649999999999999
 32
-0.51
 13
0.28
 23
-3.4399999999999999
 33
-0.51
  0
3DFACE
  5
108
  8
TAIL
 10
-0.2800000000000005
 20
-3.649999999999999
 30
-0.51
 11
-0.2800000000000005
 21
-3.4399999999999999
 31
-0.51
 12
0.28
 22
-3.4399999999999999
 32
-0.51
 13
0.28
 23
-3.649999999999999
 33
-0.51
  0
3DFACE
  5
10B
  8
TAIL
 10
-0.2800000000000005
 20
-4.009999999999998
 30
-0.51
 11
-0.2800000000000005
 21
-4.0499999999999989
 31
-0.51
 12
0.28
 22
-4.0499999999999989
 32
-0.51
 13
0.28
 23
-4.009999999999998
 33
-0.51
  0
3DFACE
  5
10C
  8
TAIL
 10
-0.2800000000000005
 20
-4.0499999999999989
 30
-0.51
 11
-0.2800000000000005
 21
-4.009999999999998
 31
-0.51
 12
0.28
 22
-4.009999999999998
 32
-0.51
 13
0.28
 23
-4.0499999999999989
 33
-0.51
  0
3DFACE
  5
10D
  8
TAIL
 10
-0.2800000000000005
 20
-3.649999999999999
 30
-0.51
 11
-0.2800000000000005
 21
-3.8299999999999992
 31
-0.51
 12
-0.19
 22
-3.8299999999999992
 32
-0.51
 13
-0.08
 23
-3.649999999999999
 33
-0.51
  0
3DFACE
  5
10E
  8
TAIL
 10
-0.2800000000000005
 20
-3.8299999999999992
 30
-0.51
 11
-0.2800000000000005
 21
-3.649999999999999
 31
-0.51
 12
-0.08
 22
-3.649999999999999
 32
-0.51
 13
-0.19
 23
-3.8299999999999992
 33
-0.51
  0
3DFACE
  5
11F
  8
TAIL
 10
-0.2800000000000005
 20
-3.8299999999999992
 30
-0.51
 11
-0.2800000000000005
 21
-4.009999999999998
 31
-0.51
 12
-0.08
 22
-4.009999999999998
 32
-0.51
 13
-0.19
 23
-3.8299999999999992
 33
-0.51
  0
3DFACE
  5
120
  8
TAIL
 10
-0.2800000000000005
 20
-4.009999999999998
 30
-0.51
 11
-0.2800000000000005
 21
-3.8299999999999992
 31
-0.51
 12
-0.19
 22
-3.8299999999999992
 32
-0.51
 13
-0.08
 23
-4.009999999999998
 33
-0.51
  0
3DFACE
  5
121
  8
TAIL
 10
0.08
 20
-4.009999999999998
 30
-0.51
 11
0.19
 21
-3.8299999999999992
 31
-0.51
 12
0.28
 22
-3.8299999999999992
 32
-0.51
 13
0.28
 23
-4.009999999999998
 33
-0.51
  0
3DFACE
  5
122
  8
TAIL
 10
0.19
 20
-3.8299999999999992
 30
-0.51
 11
0.08
 21
-4.009999999999998
 31
-0.51
 12
0.28
 22
-4.009999999999998
 32
-0.51
 13
0.28
 23
-3.8299999999999992
 33
-0.51
  0
3DFACE
  5
123
  8
TAIL
 10
0.08
 20
-3.649999999999999
 30
-0.51
 11
0.19
 21
-3.8299999999999992
 31
-0.51
 12
0.28
 22
-3.8299999999999992
 32
-0.51
 13
0.28
 23
-3.649999999999999
 33
-0.51
  0
3DFACE
  5
124
  8
TAIL
 10
0.19
 20
-3.8299999999999992
 30
-0.51
 11
0.08
 21
-3.649999999999999
 31
-0.51
 12
0.28
 22
-3.649999999999999
 32
-0.51
 13
0.28
 23
-3.8299999999999992
 33
-0.51
  0
3DFACE
  5
7F2
  8
TAIL
 10
-0.4100000000000001
 20
-3.27
 30
-0.514999999999999
 11
-0.4100000000000001
 21
-3.2999999999999989
 31
-0.829999999999999
 12
0.4100000000000001
 22
-3.2999999999999989
 32
-0.829999999999999
 13
0.4100000000000001
 23
-3.27
 33
-0.514999999999999
  0
3DFACE
  5
7F3
  8
TAIL
 10
0.4100000000000001
 20
-3.27
 30
-0.5149999999999999
 11
0.4100000000000001
 21
-3.2999999999999989
 31
-0.8299999999999999
 12
0.4100000000000001
 22
-3.1799999999999979
 32
-0.8299999999999999
 13
0.4100000000000001
 23
-2.694999999999999
 33
-0.4650000000000001
  0
3DFACE
  5
7F4
  8
TAIL
 10
0.4100000000000001
 20
-2.694999999999999
 30
-0.4650000000000001
 11
0.4100000000000001
 21
-3.1799999999999979
 31
-0.8299999999999999
 12
-0.4100000000000001
 22
-3.1799999999999979
 32
-0.8299999999999999
 13
-0.4100000000000001
 23
-2.694999999999999
 33
-0.4650000000000001
  0
3DFACE
  5
7F5
  8
TAIL
 10
-0.4100000000000001
 20
-3.1799999999999979
 30
-0.8299999999999999
 11
-0.4100000000000001
 21
-3.2999999999999989
 31
-0.8299999999999999
 12
-0.4100000000000001
 22
-3.27
 32
-0.5149999999999999
 13
-0.4100000000000001
 23
-2.694999999999999
 33
-0.4650000000000001
  0
3DFACE
  5
7F6
  8
TAIL
 10
0.4100000000000001
 20
-3.1799999999999979
 30
-0.8299999999999999
 11
0.4100000000000001
 21
-3.2999999999999989
 31
-0.8299999999999999
 12
-0.4100000000000001
 22
-3.2999999999999989
 32
-0.8299999999999999
 13
-0.4100000000000001
 23
-3.1799999999999979
 33
-0.8299999999999999
  0
3DFACE
  5
851
  8
TAIL
 10
0.7900000000000002
 20
-0.72
 30
-0.1799999999999999
 11
0.7350000000000002
 21
-0.6247372055837117
 31
-0.1799999999999999
 12
0.7350000000000002
 22
-0.6247372055837117
 32
0.0700000000000001
 13
0.7900000000000002
 23
-0.72
 33
0.0700000000000001
  0
3DFACE
  5
852
  8
TAIL
 10
0.7350000000000002
 20
-0.6247372055837117
 30
-0.1799999999999999
 11
0.6250000000000001
 21
-0.6247372055837117
 31
-0.1799999999999999
 12
0.6250000000000001
 22
-0.6247372055837117
 32
0.0700000000000001
 13
0.7350000000000002
 23
-0.6247372055837117
 33
0.0700000000000001
  0
3DFACE
  5
855
  8
TAIL
 10
0.625
 20
-0.8152627944162881
 30
-0.1799999999999999
 11
0.735
 21
-0.8152627944162881
 31
-0.1799999999999999
 12
0.735
 22
-0.8152627944162881
 32
0.0700000000000001
 13
0.625
 23
-0.8152627944162881
 33
0.0700000000000001
  0
3DFACE
  5
856
  8
TAIL
 10
0.735
 20
-0.8152627944162881
 30
-0.1799999999999999
 11
0.7900000000000002
 21
-0.72
 31
-0.1799999999999999
 12
0.7900000000000002
 22
-0.72
 32
0.0700000000000001
 13
0.735
 23
-0.8152627944162881
 33
0.0700000000000001
  0
3DFACE
  5
857
  8
TAIL
 10
0.625
 20
-0.8152627944162881
 30
0.0700000000000001
 11
0.735
 21
-0.8152627944162881
 31
0.0700000000000001
 12
0.7350000000000002
 22
-0.6247372055837117
 32
0.0700000000000001
 13
0.6250000000000001
 23
-0.6247372055837117
 33
0.0700000000000001
  0
3DFACE
  5
858
  8
TAIL
 10
0.735
 20
-0.8152627944162881
 30
0.0700000000000001
 11
0.7900000000000002
 21
-0.72
 31
0.0700000000000001
 12
0.7900000000000002
 22
-0.72
 32
0.0700000000000001
 13
0.7350000000000002
 23
-0.6247372055837117
 33
0.0700000000000001
  0
3DFACE
  5
859
  8
TAIL
 10
0.7350000000000003
 20
-0.8152627944162874
 30
-0.1799999999999999
 11
0.625
 21
-0.8152627944162881
 31
-0.1799999999999999
 12
0.6250000000000001
 22
-0.6247372055837117
 32
-0.1799999999999999
 13
0.7350000000000002
 23
-0.6247372055837117
 33
-0.1799999999999999
  0
3DFACE
  5
85A
  8
TAIL
 10
0.7900000000000002
 20
-0.72
 30
-0.1799999999999999
 11
0.735
 21
-0.8152627944162881
 31
-0.1799999999999999
 12
0.7350000000000002
 22
-0.6247372055837117
 32
-0.1799999999999999
 13
0.7900000000000002
 23
-0.72
 33
-0.1799999999999999
  0
3DFACE
  5
85B
  8
TAIL
 10
-0.0700000000000002
 20
-4.2299999999999986
 30
-0.4900000000000004
 11
-0.0700000000000002
 21
-4.3399999999999981
 31
-0.4900000000000004
 12
-0.0700000000000002
 22
-4.3399999999999981
 32
-0.3700000000000003
 13
-0.0700000000000002
 23
-4.2299999999999986
 33
-0.3700000000000003
  0
3DFACE
  5
85D
  8
TAIL
 10
-0.0700000000000002
 20
-4.3399999999999981
 30
-0.3700000000000003
 11
0.07
 21
-4.3399999999999981
 31
-0.3700000000000003
 12
0.07
 22
-4.2299999999999986
 32
-0.3700000000000003
 13
-0.0700000000000002
 23
-4.2299999999999986
 33
-0.3700000000000003
  0
3DFACE
  5
85F
  8
TAIL
 10
0.07
 20
-4.2299999999999986
 30
-0.4900000000000004
 11
0.07
 21
-4.3399999999999981
 31
-0.4900000000000004
 12
-0.0700000000000002
 22
-4.3399999999999981
 32
-0.4900000000000004
 13
-0.0700000000000002
 23
-4.2299999999999986
 33
-0.4900000000000004
  0
3DFACE
  5
860
  8
TAIL
 10
0.07
 20
-4.2299999999999986
 30
-0.3700000000000003
 11
0.07
 21
-4.3399999999999981
 31
-0.3700000000000003
 12
0.07
 22
-4.3399999999999981
 32
-0.4900000000000004
 13
0.07
 23
-4.2299999999999986
 33
-0.4900000000000004
  0
3DFACE
  5
862
  8
TAIL
 10
-0.1899999999999999
 20
-4.4599999999999982
 30
-0.4900000000000004
 11
0.19
 21
-4.4599999999999982
 31
-0.4900000000000004
 12
0.19
 22
-4.4599999999999982
 32
-0.3700000000000003
 13
-0.1899999999999999
 23
-4.4599999999999982
 33
-0.3700000000000003
  0
3DFACE
  5
863
  8
TAIL
 10
-0.1899999999999999
 20
-4.4599999999999982
 30
-0.3700000000000003
 11
0.19
 21
-4.4599999999999982
 31
-0.3700000000000003
 12
0.19
 22
-4.3399999999999981
 32
-0.3700000000000003
 13
-0.1899999999999999
 23
-4.3399999999999981
 33
-0.3700000000000003
  0
3DFACE
  5
864
  8
TAIL
 10
0.19
 20
-4.3399999999999981
 30
-0.4900000000000004
 11
0.19
 21
-4.4599999999999982
 31
-0.4900000000000004
 12
-0.1899999999999999
 22
-4.4599999999999982
 32
-0.4900000000000004
 13
-0.1899999999999999
 23
-4.3399999999999981
 33
-0.4900000000000004
  0
3DFACE
  5
865
  8
TAIL
 10
-0.1899999999999999
 20
-4.3399999999999981
 30
-0.3700000000000003
 11
0.19
 21
-4.3399999999999981
 31
-0.3700000000000003
 12
0.19
 22
-4.3399999999999981
 32
-0.4900000000000004
 13
-0.1899999999999999
 23
-4.3399999999999981
 33
-0.4900000000000004
  0
3DFACE
  5
866
  8
TAIL
 10
0.19
 20
-4.3399999999999981
 30
-0.3700000000000003
 11
0.19
 21
-4.4599999999999982
 31
-0.3700000000000003
 12
0.19
 22
-4.4599999999999982
 32
-0.4900000000000004
 13
0.19
 23
-4.3399999999999981
 33
-0.4900000000000004
  0
3DFACE
  5
867
  8
TAIL
 10
-0.1899999999999999
 20
-4.3399999999999981
 30
-0.4900000000000004
 11
-0.1899999999999999
 21
-4.4599999999999982
 31
-0.4900000000000004
 12
-0.1899999999999999
 22
-4.4599999999999982
 32
-0.3700000000000003
 13
-0.1899999999999999
 23
-4.3399999999999981
 33
-0.3700000000000003
  0
VIEWPORT
  5
2E
 67
     1
  8
0
 10
144.7270812988281
 20
101.2295806407928
 30
0.0
 40
391.13550988316581
 41
222.15178063964839
 68
     2
 69
     1
1001
ACAD
1000
MVIEW
1002
{
1070
    16
1010
0.0
1020
0.0
1030
0.0
1010
0.0
1020
0.0
1030
1.0
1040
0.0
1040
222.15178063964839
1040
144.7270812988281
1040
101.2295806407928
1040
50.0
1040
0.0
1040
0.0
1070
     0
1070
   100
1070
     1
1070
     1
1070
     0
1070
     0
1070
     0
1070
     0
1040
0.0
1040
0.0
1040
0.0
1040
10.0
1040
10.0
1040
10.0
1040
10.0
1070
     0
1002
{
1002
}
1002
}
  0
VIEWPORT
  5
30
 67
     1
  8
0
 10
139.22375631332389
 20
100.8062499761581
 30
0.0
 40
222.75801010131829
 41
161.289999961853
 68
     1
 69
     2
1001
ACAD
1000
MVIEW
1002
{
1070
    16
1010
0.0
1020
0.0
1030
0.0
1010
0.0
1020
0.0
1030
1.0
1040
0.0
1040
307.49010134148989
1040
210.0
1040
148.5
1040
50.0
1040
0.0
1040
0.0
1070
     0
1070
   100
1070
     1
1070
     3
1070
     0
1070
     1
1070
     0
1070
     0
1040
0.0
1040
0.0
1040
0.0
1040
10.0
1040
10.0
1040
10.0
1040
10.0
1070
     0
1002
{
1002
}
1002
}
  0
ENDSEC
  0
EOF
