  0
SECTION
  2
HEADER
  9
$ACADVER
  1
AC1009
  9
$INSBASE
 10
0.0
 20
0.0
 30
0.0
  9
$EXTMIN
 10
-5.5599999999999996
 20
-20.68
 30
0.0
  9
$EXTMAX
 10
10.02849048286574
 20
4.9100000000000001
 30
22.70103697392199
  9
$LIMMIN
 10
0.0
 20
0.0
  9
$LIMMAX
 10
420.0
 20
297.0
  9
$ORTHOMODE
 70
     1
  9
$REGENMODE
 70
     1
  9
$FILLMODE
 70
     1
  9
$QTEXTMODE
 70
     0
  9
$MIRRTEXT
 70
     1
  9
$DRAGMODE
 70
     0
  9
$LTSCALE
 40
1.0
  9
$OSMODE
 70
   551
  9
$ATTMODE
 70
     1
  9
$TEXTSIZE
 40
2.5
  9
$TRACEWID
 40
1.0
  9
$TEXTSTYLE
  7
STANDARD
  9
$CLAYER
  8
0
  9
$CELTYPE
  6
BYLAYER
  9
$CECOLOR
 62
   256
  9
$DIMSCALE
 40
1.0
  9
$DIMASZ
 40
2.5
  9
$DIMEXO
 40
0.625
  9
$DIMDLI
 40
3.75
  9
$DIMRND
 40
0.0
  9
$DIMDLE
 40
0.0
  9
$DIMEXE
 40
1.25
  9
$DIMTP
 40
0.0
  9
$DIMTM
 40
0.0
  9
$DIMTXT
 40
2.5
  9
$DIMCEN
 40
2.5
  9
$DIMTSZ
 40
0.0
  9
$DIMTOL
 70
     0
  9
$DIMLIM
 70
     0
  9
$DIMTIH
 70
     0
  9
$DIMTOH
 70
     0
  9
$DIMSE1
 70
     0
  9
$DIMSE2
 70
     0
  9
$DIMTAD
 70
     1
  9
$DIMZIN
 70
     8
  9
$DIMBLK
  1

  9
$DIMASO
 70
     1
  9
$DIMSHO
 70
     1
  9
$DIMPOST
  1

  9
$DIMAPOST
  1

  9
$DIMALT
 70
     0
  9
$DIMALTD
 70
     3
  9
$DIMALTF
 40
0.03937007874016
  9
$DIMLFAC
 40
1.0
  9
$DIMTOFL
 70
     1
  9
$DIMTVP
 40
0.0
  9
$DIMTIX
 70
     0
  9
$DIMSOXD
 70
     0
  9
$DIMSAH
 70
     0
  9
$DIMBLK1
  1

  9
$DIMBLK2
  1

  9
$DIMSTYLE
  2
ISO-25
  9
$DIMCLRD
 70
     0
  9
$DIMCLRE
 70
     0
  9
$DIMCLRT
 70
     0
  9
$DIMTFAC
 40
1.0
  9
$DIMGAP
 40
0.625
  9
$LUNITS
 70
     2
  9
$LUPREC
 70
     4
  9
$SKETCHINC
 40
1.0
  9
$FILLETRAD
 40
10.0
  9
$AUNITS
 70
     0
  9
$AUPREC
 70
     0
  9
$MENU
  1
.
  9
$ELEVATION
 40
0.0
  9
$PELEVATION
 40
0.0
  9
$THICKNESS
 40
0.0
  9
$LIMCHECK
 70
     0
  9
$BLIPMODE
 70
     0
  9
$CHAMFERA
 40
10.0
  9
$CHAMFERB
 40
10.0
  9
$SKPOLY
 70
     0
  9
$TDCREATE
 40
2454479.387346643
  9
$TDUPDATE
 40
2454479.8377204859
  9
$TDINDWG
 40
0.2955648032
  9
$TDUSRTIMER
 40
0.2955648032
  9
$USRTIMER
 70
     1
  9
$ANGBASE
 50
0.0
  9
$ANGDIR
 70
     0
  9
$PDMODE
 70
     0
  9
$PDSIZE
 40
0.0
  9
$PLINEWID
 40
0.0
  9
$COORDS
 70
     1
  9
$SPLFRAME
 70
     0
  9
$SPLINETYPE
 70
     6
  9
$SPLINESEGS
 70
     8
  9
$ATTDIA
 70
     1
  9
$ATTREQ
 70
     1
  9
$HANDLING
 70
-16383
  9
$HANDSEED
  5
7F1
  9
$SURFTAB1
 70
     6
  9
$SURFTAB2
 70
     6
  9
$SURFTYPE
 70
     6
  9
$SURFU
 70
     6
  9
$SURFV
 70
     6
  9
$UCSNAME
  2

  9
$UCSORG
 10
0.0
 20
0.0
 30
0.0
  9
$UCSXDIR
 10
1.0
 20
0.0
 30
0.0
  9
$UCSYDIR
 10
0.0
 20
1.0
 30
0.0
  9
$PUCSNAME
  2

  9
$PUCSORG
 10
0.0
 20
0.0
 30
0.0
  9
$PUCSXDIR
 10
1.0
 20
0.0
 30
0.0
  9
$PUCSYDIR
 10
0.0
 20
1.0
 30
0.0
  9
$USERI1
 70
     0
  9
$USERI2
 70
     0
  9
$USERI3
 70
     0
  9
$USERI4
 70
     0
  9
$USERI5
 70
     0
  9
$USERR1
 40
0.0
  9
$USERR2
 40
0.0
  9
$USERR3
 40
0.0
  9
$USERR4
 40
0.0
  9
$USERR5
 40
0.0
  9
$WORLDVIEW
 70
     1
  9
$SHADEDGE
 70
     3
  9
$SHADEDIF
 70
    70
  9
$TILEMODE
 70
     1
  9
$MAXACTVP
 70
    64
  9
$PLIMCHECK
 70
     0
  9
$PEXTMIN
 10
27.844751262664801
 20
20.161249995231621
 30
0.0
  9
$PEXTMAX
 10
250.60276136398309
 20
181.4512499570846
 30
0.0
  9
$PLIMMIN
 10
-3.757080078125
 20
-3.7570831775665279
  9
$PLIMMAX
 10
293.21124267578119
 20
206.21624445915219
  9
$UNITMODE
 70
     0
  9
$VISRETAIN
 70
     1
  9
$PLINEGEN
 70
     0
  9
$PSLTSCALE
 70
     1
  0
ENDSEC
  0
SECTION
  2
TABLES
  0
TABLE
  2
VPORT
 70
    38
  0
VPORT
  2
*ACTIVE
 70
     0
 10
0.0
 20
0.0
 11
1.0
 21
1.0
 12
3.1311659028470649
 22
5.1204705033735669
 13
0.0
 23
0.0
 14
0.01
 24
0.01
 15
1.0
 25
1.0
 16
0.0
 26
0.0
 36
1.0
 17
0.0
 27
0.0
 37
0.0
 40
26.402564923980719
 41
1.6612612612612609
 42
50.0
 43
0.0
 44
0.0
 50
0.0
 51
0.0
 71
     0
 72
   100
 73
     1
 74
     3
 75
     1
 76
     1
 77
     0
 78
     0
  0
ENDTAB
  0
TABLE
  2
LTYPE
 70
     1
  0
LTYPE
  2
CONTINUOUS
 70
     0
  3
Solid line
 72
    65
 73
     0
 40
0.0
  0
ENDTAB
  0
TABLE
  2
LAYER
 70
     8
  0
LAYER
  2
0
 70
     0
 62
     7
  6
CONTINUOUS
  0
LAYER
  2
DRAWING
 70
     0
 62
    -9
  6
CONTINUOUS
  0
LAYER
  2
WING1
 70
     0
 62
     1
  6
CONTINUOUS
  0
LAYER
  2
WING2
 70
     0
 62
     6
  6
CONTINUOUS
  0
LAYER
  2
PROPELLER
 70
     0
 62
     1
  6
CONTINUOUS
  0
LAYER
  2
WHEELS
 70
     0
 62
     2
  6
CONTINUOUS
  0
LAYER
  2
SHASSIS
 70
     0
 62
     3
  6
CONTINUOUS
  0
LAYER
  2
DOORS
 70
     0
 62
     5
  6
CONTINUOUS
  0
ENDTAB
  0
TABLE
  2
STYLE
 70
     1
  0
STYLE
  2
STANDARD
 70
     0
 40
0.0
 41
1.0
 50
0.0
 71
     0
 42
2.5
  3
txt
  4

  0
ENDTAB
  0
TABLE
  2
VIEW
 70
     0
  0
ENDTAB
  0
TABLE
  2
UCS
 70
     0
  0
ENDTAB
  0
TABLE
  2
APPID
 70
     1
  0
APPID
  2
ACAD
 70
     0
  0
ENDTAB
  0
TABLE
  2
DIMSTYLE
 70
     1
  0
DIMSTYLE
  2
ISO-25
 70
     0
  3

  4

  5

  6

  7

 40
1.0
 41
2.5
 42
0.625
 43
3.75
 44
1.25
 45
0.0
 46
0.0
 47
0.0
 48
0.0
140
2.5
141
2.5
142
0.0
143
0.03937007874016
144
1.0
145
0.0
146
1.0
147
0.625
 71
     0
 72
     0
 73
     0
 74
     0
 75
     0
 76
     0
 77
     1
 78
     8
170
     0
171
     3
172
     1
173
     0
174
     0
175
     0
176
     0
177
     0
178
     0
  0
ENDTAB
  0
ENDSEC
  0
SECTION
  2
BLOCKS
  0
BLOCK
  8
0
  2
$MODEL_SPACE
 70
     0
 10
0.0
 20
0.0
 30
0.0
  3
$MODEL_SPACE
  1

  0
ENDBLK
  5
21
  8
0
  0
BLOCK
 67
     1
  8
0
  2
$PAPER_SPACE
 70
     0
 10
0.0
 20
0.0
 30
0.0
  3
$PAPER_SPACE
  1

  0
ENDBLK
  5
1D
 67
     1
  8
0
  0
ENDSEC
  0
SECTION
  2
ENTITIES
  0
3DFACE
  5
8C
  8
0
 10
-0.0799999999999983
 20
-3.6000000000000001
 30
1.71
 11
-0.0499999999999972
 21
-4.2699999999999996
 31
1.839999999999997
 12
-0.0799999999999983
 22
-4.2699999999999996
 32
1.8799999999999959
 13
-0.1200000000000045
 23
-3.6000000000000001
 33
1.739999999999998
  0
3DFACE
  5
8D
  8
0
 10
0.0
 20
-3.6000000000000001
 30
1.6999999999999991
 11
0.0
 21
-4.2700000000000022
 31
1.829999999999999
 12
-0.0499999999999972
 22
-4.2699999999999996
 32
1.839999999999997
 13
-0.0799999999999983
 23
-3.6000000000000001
 33
1.71
  0
3DFACE
  5
92
  8
0
 10
-0.1200000000000045
 20
-3.6000000000000001
 30
1.739999999999998
 11
-0.0799999999999983
 21
-4.2699999999999996
 31
1.8799999999999959
 12
-0.0899999999999963
 22
-4.2699999999999996
 32
1.919999999999999
 13
-0.1499999999999986
 23
-3.6000000000000001
 33
1.7799999999999969
  0
3DFACE
  5
9A
  8
0
 10
-0.1499999999999986
 20
-3.6000000000000001
 30
1.7799999999999969
 11
-0.0899999999999963
 21
-4.2699999999999996
 31
1.919999999999999
 12
-0.1000000000000014
 22
-4.2699999999999996
 32
1.959999999999994
 13
-0.1700000000000017
 23
-3.6000000000000001
 33
1.8399999999999961
  0
3DFACE
  5
A1
  8
0
 10
-0.1700000000000017
 20
-3.6000000000000001
 30
1.8399999999999961
 11
-0.1000000000000014
 21
-4.2699999999999996
 31
1.959999999999994
 12
-0.0899999999999963
 22
-4.2699999999999996
 32
2.1299999999999959
 13
-0.1799999999999997
 23
-3.6000000000000001
 33
1.859999999999995
  0
3DFACE
  5
A8
  8
0
 10
-0.1799999999999997
 20
-3.6000000000000001
 30
1.859999999999995
 11
-0.0899999999999963
 21
-4.2699999999999996
 31
2.1299999999999959
 12
-0.0700000000000013
 22
-4.2699999999999996
 32
2.2199999999999909
 13
-0.1499999999999986
 23
-3.6000000000000001
 33
2.099999999999997
  0
3DFACE
  5
AF
  8
0
 10
-0.1499999999999986
 20
-3.6000000000000001
 30
2.099999999999997
 11
-0.0700000000000013
 21
-4.2699999999999996
 31
2.2199999999999909
 12
-0.0499999999999972
 22
-4.2699999999999996
 32
2.2499999999999969
 13
-0.1099999999999994
 23
-3.6000000000000001
 33
2.2099999999999969
  0
3DFACE
  5
B2
  8
0
 10
-0.1099999999999994
 20
-3.6000000000000001
 30
2.2099999999999969
 11
-0.0499999999999972
 21
-4.2699999999999996
 31
2.2499999999999969
 12
-0.0399999999999992
 22
-4.2699999999999996
 32
2.259999999999998
 13
-0.0900000000000034
 23
-3.6000000000000001
 33
2.239999999999998
  0
3DFACE
  5
B9
  8
0
 10
-0.0399999999999992
 20
-3.6000000000000001
 30
2.269999999999996
 11
-0.0199999999999996
 21
-4.2699999999999996
 31
2.269999999999996
 12
0.0
 22
-4.2699999999999996
 32
2.269999999999996
 13
0.0
 23
-3.6000000000000001
 33
2.269999999999996
  0
3DFACE
  5
BD
  8
0
 10
-0.0900000000000034
 20
-3.6000000000000001
 30
2.239999999999998
 11
-0.0399999999999992
 21
-4.2699999999999996
 31
2.259999999999998
 12
-0.0199999999999996
 22
-4.2699999999999996
 32
2.269999999999996
 13
-0.0399999999999992
 23
-3.6000000000000001
 33
2.269999999999996
  0
3DFACE
  5
C1
  8
0
 10
-0.0900000000000034
 20
3.5600000000000001
 30
2.4799999999999991
 11
-0.1099999999999994
 21
2.3799999999999999
 31
2.5699999999999981
 12
0.0
 22
2.3799999999999999
 32
2.589999999999999
 13
0.0
 23
3.5600000000000001
 33
2.4899999999999971
  0
3DFACE
  5
C7
  8
0
 10
-0.3500000000000014
 20
3.5600000000000001
 30
1.5099999999999969
 11
-0.4000000000000022
 21
2.3799999999999999
 31
1.2799999999999949
 12
-0.4600000000000009
 22
2.3799999999999999
 32
1.359999999999997
 13
-0.4200000000000017
 23
3.5600000000000001
 33
1.659999999999999
  0
3DFACE
  5
CA
  8
0
 10
-0.2600000000000016
 20
3.5600000000000001
 30
1.4299999999999979
 11
-0.3200000000000003
 21
2.3799999999999999
 31
1.229999999999998
 12
-0.4000000000000022
 22
2.3799999999999999
 32
1.2799999999999949
 13
-0.3500000000000014
 23
3.5600000000000001
 33
1.5099999999999969
  0
3DFACE
  5
CF
  8
0
 10
-0.1500000000000021
 20
3.5600000000000001
 30
1.3799999999999979
 11
-0.240000000000002
 21
2.3799999999999999
 31
1.2099999999999991
 12
-0.3200000000000003
 22
2.3799999999999999
 32
1.229999999999998
 13
-0.2600000000000016
 23
3.5600000000000001
 33
1.4299999999999979
  0
3DFACE
  5
D4
  8
0
 10
0.0
 20
3.5600000000000001
 30
1.3499999999999961
 11
0.0
 21
2.379999999999999
 31
1.1999999999999971
 12
-0.240000000000002
 22
2.3799999999999999
 32
1.2099999999999991
 13
-0.1500000000000021
 23
3.5600000000000001
 33
1.3799999999999979
  0
3DFACE
  5
D8
  8
0
 10
-0.4200000000000017
 20
3.5600000000000001
 30
2.0099999999999971
 11
-0.4500000000000029
 21
2.3799999999999999
 31
1.8999999999999959
 12
-0.4100000000000002
 22
2.3799999999999999
 32
2.1499999999999959
 13
-0.3300000000000018
 23
3.5600000000000001
 33
2.2699999999999978
  0
3DFACE
  5
E0
  8
0
 10
-0.4200000000000017
 20
3.5600000000000001
 30
1.659999999999999
 11
-0.4600000000000009
 21
2.3799999999999999
 31
1.359999999999997
 12
-0.4500000000000029
 22
2.3799999999999999
 32
1.8999999999999959
 13
-0.4200000000000017
 23
3.5600000000000001
 33
2.0099999999999971
  0
3DFACE
  5
E1
  8
0
 10
-0.1800000000000033
 20
3.5600000000000001
 30
2.4399999999999959
 11
-0.2600000000000016
 21
2.3799999999999999
 31
2.4799999999999982
 12
-0.1099999999999994
 22
2.3799999999999999
 32
2.5699999999999981
 13
-0.0900000000000034
 23
3.5600000000000001
 33
2.4799999999999991
  0
3DFACE
  5
E7
  8
0
 10
-0.2600000000000016
 20
3.5600000000000001
 30
2.3699999999999961
 11
-0.3399999999999999
 21
2.3799999999999999
 31
2.3499999999999961
 12
-0.2600000000000016
 22
2.3799999999999999
 32
2.4799999999999982
 13
-0.1800000000000033
 23
3.5600000000000001
 33
2.4399999999999959
  0
3DFACE
  5
ED
  8
0
 10
-0.3300000000000018
 20
3.5600000000000001
 30
2.2699999999999978
 11
-0.4100000000000002
 21
2.3799999999999999
 31
2.1499999999999959
 12
-0.3399999999999999
 22
2.3799999999999999
 32
2.3499999999999961
 13
-0.2600000000000016
 23
3.5600000000000001
 33
2.3699999999999961
  0
3DFACE
  5
FB
  8
0
 10
-0.3399999999999999
 20
2.3799999999999999
 30
2.3499999999999961
 11
-0.4000000000000023
 21
1.169999999999999
 31
2.379999999999995
 12
-0.3300000000000021
 22
1.169999999999999
 32
2.509999999999998
 13
-0.2600000000000016
 23
2.3799999999999999
 33
2.4799999999999982
  0
3DFACE
  5
FF
  8
0
 10
-0.4600000000000009
 20
2.3799999999999999
 30
1.359999999999997
 11
-0.4800000000000006
 21
1.169999999999999
 31
1.389999999999997
 12
-0.4700000000000026
 22
1.169999999999999
 32
1.9299999999999959
 13
-0.4500000000000029
 23
2.3799999999999999
 33
1.8999999999999959
  0
3DFACE
  5
103
  8
0
 10
-0.4000000000000022
 20
2.3799999999999999
 30
1.2799999999999949
 11
-0.4499999999999995
 21
1.169999999999999
 31
1.3099999999999949
 12
-0.4800000000000006
 22
1.169999999999999
 32
1.389999999999997
 13
-0.4600000000000009
 23
2.3799999999999999
 33
1.359999999999997
  0
3DFACE
  5
10B
  8
0
 10
-0.3200000000000003
 20
2.3799999999999999
 30
1.229999999999998
 11
-0.3900000000000008
 21
1.169999999999999
 31
1.239999999999998
 12
-0.4499999999999995
 22
1.169999999999999
 32
1.3099999999999949
 13
-0.4000000000000022
 23
2.3799999999999999
 33
1.2799999999999949
  0
3DFACE
  5
111
  8
0
 10
-0.240000000000002
 20
2.3799999999999999
 30
1.2099999999999991
 11
-0.0600000000000025
 21
1.169999999999999
 31
1.2199999999999991
 12
-0.3900000000000008
 22
1.169999999999999
 32
1.239999999999998
 13
-0.3200000000000003
 23
2.3799999999999999
 33
1.229999999999998
  0
3DFACE
  5
112
  8
0
 10
0.0
 20
2.3799999999999999
 30
1.1999999999999971
 11
-0.0000000000000004
 21
1.169999999999999
 31
1.1899999999999979
 12
-0.0600000000000025
 22
1.169999999999999
 32
1.2199999999999991
 13
-0.240000000000002
 23
2.3799999999999999
 33
1.2099999999999991
  0
3DFACE
  5
116
  8
0
 10
-0.4500000000000029
 20
2.3799999999999999
 30
1.8999999999999959
 11
-0.4700000000000026
 21
1.169999999999999
 31
1.9299999999999959
 12
-0.4400000000000015
 22
1.169999999999999
 32
2.1799999999999962
 13
-0.4100000000000002
 23
2.3799999999999999
 33
2.1499999999999959
  0
3DFACE
  5
11F
  8
0
 10
-0.4100000000000002
 20
2.3799999999999999
 30
2.1499999999999959
 11
-0.4400000000000015
 21
1.169999999999999
 31
2.1799999999999962
 12
-0.4000000000000023
 22
1.169999999999999
 32
2.379999999999995
 13
-0.3399999999999999
 23
2.3799999999999999
 33
2.3499999999999961
  0
3DFACE
  5
126
  8
0
 10
-0.1099999999999994
 20
2.3799999999999999
 30
2.5699999999999981
 11
-0.1500000000000023
 21
1.169999999999999
 31
2.629999999999995
 12
0.0
 22
1.169999999999999
 32
2.6499999999999999
 13
0.0
 23
2.379999999999999
 33
2.5899999999999981
  0
3DFACE
  5
127
  8
0
 10
-0.2600000000000016
 20
2.3799999999999999
 30
2.4799999999999982
 11
-0.3300000000000021
 21
1.169999999999999
 31
2.509999999999998
 12
-0.1500000000000023
 22
1.169999999999999
 32
2.629999999999995
 13
-0.1099999999999994
 23
2.3799999999999999
 33
2.5699999999999981
  0
3DFACE
  5
131
  8
0
 10
-0.4800000000000006
 20
1.169999999999999
 30
1.389999999999997
 11
-0.4499999999999998
 21
0.5700000000000003
 31
1.3999999999999979
 12
-0.4499999999999998
 22
0.5700000000000003
 32
1.9399999999999971
 13
-0.4700000000000026
 23
1.169999999999999
 33
1.9299999999999959
  0
3DFACE
  5
135
  8
0
 10
-0.4499999999999995
 20
1.169999999999999
 30
1.3099999999999949
 11
-0.4300000000000002
 21
0.5700000000000003
 31
1.3199999999999961
 12
-0.4499999999999998
 22
0.5700000000000003
 32
1.3999999999999979
 13
-0.4800000000000006
 23
1.169999999999999
 33
1.389999999999997
  0
3DFACE
  5
141
  8
0
 10
-0.3900000000000008
 20
1.169999999999999
 30
1.239999999999998
 11
-0.3400000000000003
 21
0.5700000000000003
 31
1.25
 12
-0.4300000000000002
 22
0.5700000000000003
 32
1.3199999999999961
 13
-0.4499999999999995
 23
1.169999999999999
 33
1.3099999999999949
  0
3DFACE
  5
144
  8
0
 10
-0.0600000000000025
 20
1.169999999999999
 30
1.2199999999999991
 11
-0.0599999999999992
 21
0.5700000000000003
 31
1.239999999999998
 12
-0.3400000000000003
 22
0.5700000000000003
 32
1.25
 13
-0.3900000000000008
 23
1.169999999999999
 33
1.239999999999998
  0
3DFACE
  5
145
  8
0
 10
-0.0000000000000004
 20
1.169999999999999
 30
1.1899999999999979
 11
-0.0000000000000004
 21
0.5700000000000003
 31
1.1999999999999991
 12
-0.0599999999999992
 22
0.5700000000000003
 32
1.239999999999998
 13
-0.0600000000000025
 23
1.169999999999999
 33
1.2199999999999991
  0
3DFACE
  5
148
  8
0
 10
-0.4400000000000015
 20
1.169999999999999
 30
2.1799999999999962
 11
-0.4300000000000002
 21
0.5700000000000003
 31
2.1899999999999968
 12
-0.3699999999999979
 22
0.5700000000000003
 32
2.389999999999997
 13
-0.4000000000000023
 23
1.169999999999999
 33
2.379999999999995
  0
3DFACE
  5
14C
  8
0
 10
-0.4700000000000026
 20
1.169999999999999
 30
1.9299999999999959
 11
-0.4499999999999998
 21
0.5700000000000003
 31
1.9399999999999971
 12
-0.4300000000000002
 22
0.5700000000000003
 32
2.1899999999999968
 13
-0.4400000000000015
 23
1.169999999999999
 33
2.1799999999999962
  0
3DFACE
  5
157
  8
0
 10
-0.3300000000000021
 20
1.169999999999999
 30
2.509999999999998
 11
-0.3099999999999992
 21
0.5700000000000003
 31
2.5199999999999991
 12
-0.149999999999999
 22
0.5700000000000003
 32
2.639999999999997
 13
-0.1500000000000023
 23
1.169999999999999
 33
2.629999999999995
  0
3DFACE
  5
159
  8
0
 10
-0.4000000000000023
 20
1.169999999999999
 30
2.379999999999995
 11
-0.3699999999999979
 21
0.5700000000000003
 31
2.389999999999997
 12
-0.3099999999999992
 22
0.5700000000000003
 32
2.5199999999999991
 13
-0.3300000000000021
 23
1.169999999999999
 33
2.509999999999998
  0
3DFACE
  5
169
  8
0
 10
-0.4499999999999998
 20
0.5700000000000003
 30
1.3999999999999979
 11
-0.4499999999999998
 21
-0.0599999999999996
 31
1.1099999999999961
 12
-0.4600000000000013
 22
-0.0599999999999996
 32
1.649999999999995
 13
-0.4499999999999998
 23
0.5700000000000003
 33
1.9399999999999971
  0
3DFACE
  5
16D
  8
0
 10
-0.4300000000000002
 20
0.5700000000000003
 30
1.3199999999999961
 11
-0.4199999999999986
 21
-0.0599999999999996
 31
1.029999999999994
 12
-0.4499999999999998
 22
-0.0599999999999996
 32
1.1099999999999961
 13
-0.4499999999999998
 23
0.5700000000000003
 33
1.3999999999999979
  0
3DFACE
  5
172
  8
0
 10
-0.3400000000000003
 20
0.5700000000000003
 30
1.25
 11
-0.3699999999999979
 21
-0.0599999999999996
 31
0.9599999999999976
 12
-0.4199999999999986
 22
-0.0599999999999996
 32
1.029999999999994
 13
-0.4300000000000002
 23
0.5700000000000003
 33
1.3199999999999961
  0
3DFACE
  5
177
  8
0
 10
-0.0599999999999992
 20
0.5700000000000003
 30
1.239999999999998
 11
-0.1999999999999997
 21
-0.0599999999999996
 31
0.9099999999999969
 12
-0.3699999999999979
 22
-0.0599999999999996
 32
0.9599999999999976
 13
-0.3400000000000003
 23
0.5700000000000003
 33
1.25
  0
3DFACE
  5
17B
  8
0
 10
-0.0000000000000004
 20
0.5700000000000003
 30
1.1999999999999991
 11
-0.0000000000000004
 21
-0.0599999999999996
 31
0.9099999999999969
 12
-0.1999999999999997
 22
-0.0599999999999996
 32
0.9099999999999969
 13
-0.0599999999999992
 23
0.5700000000000003
 33
1.239999999999998
  0
3DFACE
  5
180
  8
0
 10
-0.4300000000000002
 20
0.5700000000000003
 30
2.1899999999999968
 11
-0.4499999999999998
 21
-0.0599999999999996
 31
2.0899999999999959
 12
-0.399999999999999
 22
-0.0599999999999996
 32
2.3199999999999958
 13
-0.3699999999999979
 23
0.5700000000000003
 33
2.389999999999997
  0
3DFACE
  5
184
  8
0
 10
-0.4499999999999998
 20
0.5700000000000003
 30
1.9399999999999971
 11
-0.4600000000000013
 21
-0.0599999999999996
 31
1.649999999999995
 12
-0.4499999999999998
 22
-0.0599999999999996
 32
2.0899999999999959
 13
-0.4300000000000002
 23
0.5700000000000003
 33
2.1899999999999968
  0
3DFACE
  5
190
  8
0
 10
-0.3699999999999979
 20
0.5700000000000003
 30
2.389999999999997
 11
-0.399999999999999
 21
-0.0599999999999996
 31
2.3199999999999958
 12
-0.3400000000000003
 22
-0.0599999999999996
 32
2.489999999999998
 13
-0.3099999999999992
 23
0.5700000000000003
 33
2.5199999999999991
  0
3DFACE
  5
193
  8
0
 10
-0.3099999999999992
 20
0.5700000000000003
 30
2.5199999999999991
 11
-0.3400000000000003
 21
-0.0599999999999996
 31
2.489999999999998
 12
-0.149999999999999
 22
-0.0599999999999996
 32
2.619999999999997
 13
-0.149999999999999
 23
0.5700000000000003
 33
2.639999999999997
  0
3DFACE
  5
1A3
  8
0
 10
-0.4600000000000013
 20
-0.0599999999999996
 30
1.649999999999995
 11
-0.3999999999999986
 21
-1.1799999999999979
 31
1.879999999999999
 12
-0.3800000000000025
 22
-1.1799999999999979
 32
2.0699999999999958
 13
-0.4499999999999998
 23
-0.0599999999999996
 33
2.0899999999999959
  0
3DFACE
  5
1AA
  8
0
 10
-0.4499999999999998
 20
-0.0599999999999996
 30
1.1099999999999961
 11
-0.3800000000000025
 21
-1.1799999999999979
 31
1.4099999999999959
 12
-0.3999999999999986
 22
-1.1799999999999979
 32
1.879999999999999
 13
-0.4600000000000013
 23
-0.0599999999999996
 33
1.649999999999995
  0
3DFACE
  5
1C0
  8
0
 10
-0.4499999999999998
 20
-0.0599999999999996
 30
2.0899999999999959
 11
-0.3800000000000025
 21
-1.1799999999999979
 31
2.0699999999999958
 12
-0.3400000000000034
 22
-1.1799999999999979
 32
2.2999999999999972
 13
-0.399999999999999
 23
-0.0599999999999996
 33
2.3199999999999958
  0
3DFACE
  5
1CD
  8
0
 10
-0.399999999999999
 20
-0.0599999999999996
 30
2.3199999999999958
 11
-0.3400000000000034
 21
-1.1799999999999979
 31
2.2999999999999972
 12
-0.269999999999996
 22
-1.1799999999999979
 32
2.4499999999999988
 13
-0.3400000000000003
 23
-0.0599999999999996
 33
2.489999999999998
  0
3DFACE
  5
1CE
  8
0
 10
-0.3400000000000003
 20
-0.0599999999999996
 30
2.489999999999998
 11
-0.269999999999996
 21
-1.1799999999999979
 31
2.4499999999999988
 12
-0.1499999999999986
 22
-1.1799999999999979
 32
2.5499999999999972
 13
-0.149999999999999
 23
-0.0599999999999996
 33
2.619999999999997
  0
3DFACE
  5
1CF
  8
0
 10
-0.149999999999999
 20
-0.0599999999999996
 30
2.619999999999997
 11
-0.1499999999999986
 21
-1.1799999999999979
 31
2.5499999999999972
 12
0.0000000000000036
 22
-1.1799999999999979
 32
2.589999999999999
 13
0.0000000000000036
 23
-0.0599999999999978
 33
2.6499999999999981
  0
3DFACE
  5
1DB
  8
0
 10
-0.3800000000000025
 20
-1.1799999999999979
 30
1.4099999999999959
 11
-0.3000000000000043
 21
-2.3099999999999992
 31
1.6799999999999971
 12
-0.2899999999999991
 22
-2.3099999999999992
 32
1.9099999999999979
 13
-0.3999999999999986
 23
-1.1799999999999979
 33
1.879999999999999
  0
3DFACE
  5
1DF
  8
0
 10
-0.3400000000000034
 20
-1.1799999999999979
 30
1.2799999999999969
 11
-0.240000000000002
 21
-2.3099999999999992
 31
1.609999999999997
 12
-0.3000000000000043
 22
-2.3099999999999992
 32
1.6799999999999971
 13
-0.3800000000000025
 23
-1.1799999999999979
 33
1.4099999999999959
  0
3DFACE
  5
1E5
  8
0
 10
-0.269999999999996
 20
-1.1799999999999979
 30
1.229999999999996
 11
-0.1600000000000037
 21
-2.3099999999999992
 31
1.5799999999999961
 12
-0.240000000000002
 22
-2.3099999999999992
 32
1.609999999999997
 13
-0.3400000000000034
 23
-1.1799999999999979
 33
1.2799999999999969
  0
3DFACE
  5
1E7
  8
0
 10
0.0
 20
-1.1799999999999979
 30
1.1899999999999971
 11
0.0
 21
-2.3099999999999992
 31
1.5599999999999961
 12
-0.1000000000000014
 22
-2.3099999999999992
 32
1.5699999999999981
 13
-0.1000000000000014
 23
-1.1799999999999979
 33
1.1899999999999971
  0
3DFACE
  5
1EA
  8
0
 10
-0.1000000000000014
 20
-1.1799999999999979
 30
1.1899999999999971
 11
-0.1000000000000014
 21
-2.3099999999999992
 31
1.5699999999999981
 12
-0.1600000000000037
 22
-2.3099999999999992
 32
1.5799999999999961
 13
-0.269999999999996
 23
-1.1799999999999979
 33
1.229999999999996
  0
3DFACE
  5
1F0
  8
0
 10
-0.3800000000000025
 20
-1.1799999999999979
 30
2.0699999999999958
 11
-0.2600000000000051
 21
-2.3099999999999992
 31
2.0899999999999981
 12
-0.2000000000000028
 22
-2.3099999999999992
 32
2.2599999999999958
 13
-0.3400000000000034
 23
-1.1799999999999979
 33
2.2999999999999972
  0
3DFACE
  5
1F8
  8
0
 10
-0.3999999999999986
 20
-1.1799999999999979
 30
1.879999999999999
 11
-0.2899999999999991
 21
-2.3099999999999992
 31
1.9099999999999979
 12
-0.2600000000000051
 22
-2.3099999999999992
 32
2.0899999999999981
 13
-0.3800000000000025
 23
-1.1799999999999979
 33
2.0699999999999958
  0
3DFACE
  5
203
  8
0
 10
-0.3400000000000034
 20
-1.1799999999999979
 30
2.2999999999999972
 11
-0.2000000000000028
 21
-2.3099999999999992
 31
2.2599999999999958
 12
-0.1300000000000026
 22
-2.3099999999999992
 32
2.3799999999999968
 13
-0.269999999999996
 23
-1.1799999999999979
 33
2.4499999999999988
  0
3DFACE
  5
204
  8
0
 10
-0.269999999999996
 20
-1.1799999999999979
 30
2.4499999999999988
 11
-0.1300000000000026
 21
-2.3099999999999992
 31
2.3799999999999968
 12
-0.0399999999999992
 22
-2.3099999999999992
 32
2.4699999999999971
 13
-0.1499999999999986
 23
-1.1799999999999979
 33
2.5499999999999972
  0
3DFACE
  5
207
  8
0
 10
-0.1499999999999986
 20
-1.1799999999999979
 30
2.5499999999999972
 11
-0.0399999999999992
 21
-2.3099999999999992
 31
2.4699999999999971
 12
0.0
 22
-2.3099999999999992
 32
2.4799999999999991
 13
0.0
 23
-1.1799999999999979
 33
2.589999999999999
  0
3DFACE
  5
210
  8
0
 10
-0.3000000000000043
 20
-2.3099999999999992
 30
1.6799999999999971
 11
-0.1700000000000017
 21
-3.6000000000000001
 31
1.8399999999999961
 12
-0.1799999999999997
 22
-3.6000000000000001
 32
1.859999999999995
 13
-0.2899999999999991
 23
-2.3099999999999992
 33
1.9099999999999979
  0
3DFACE
  5
214
  8
0
 10
-0.240000000000002
 20
-2.3099999999999992
 30
1.609999999999997
 11
-0.1499999999999986
 21
-3.6000000000000001
 31
1.7799999999999969
 12
-0.1700000000000017
 22
-3.6000000000000001
 32
1.8399999999999961
 13
-0.3000000000000043
 23
-2.3099999999999992
 33
1.6799999999999971
  0
3DFACE
  5
21A
  8
0
 10
-0.1000000000000014
 20
-2.3099999999999992
 30
1.5699999999999981
 11
-0.0799999999999983
 21
-3.6000000000000001
 31
1.71
 12
-0.1200000000000045
 22
-3.6000000000000001
 32
1.739999999999998
 13
-0.1600000000000037
 23
-2.3099999999999992
 33
1.5799999999999961
  0
3DFACE
  5
21D
  8
0
 10
0.0
 20
-2.3099999999999992
 30
1.5599999999999961
 11
0.0
 21
-3.6000000000000019
 31
1.6999999999999991
 12
-0.0799999999999983
 22
-3.6000000000000001
 32
1.71
 13
-0.1000000000000014
 23
-2.3099999999999992
 33
1.5699999999999981
  0
3DFACE
  5
21F
  8
0
 10
-0.1600000000000037
 20
-2.3099999999999992
 30
1.5799999999999961
 11
-0.1200000000000045
 21
-3.6000000000000001
 31
1.739999999999998
 12
-0.1499999999999986
 22
-3.6000000000000001
 32
1.7799999999999969
 13
-0.240000000000002
 23
-2.3099999999999992
 33
1.609999999999997
  0
3DFACE
  5
229
  8
0
 10
-0.2600000000000051
 20
-2.3099999999999992
 30
2.0899999999999981
 11
-0.1499999999999986
 21
-3.6000000000000001
 31
2.099999999999997
 12
-0.1099999999999994
 22
-3.6000000000000001
 32
2.2099999999999969
 13
-0.2000000000000028
 23
-2.3099999999999992
 33
2.2599999999999958
  0
3DFACE
  5
22D
  8
0
 10
-0.2899999999999991
 20
-2.3099999999999992
 30
1.9099999999999979
 11
-0.1799999999999997
 21
-3.6000000000000001
 31
1.859999999999995
 12
-0.1499999999999986
 22
-3.6000000000000001
 32
2.099999999999997
 13
-0.2600000000000051
 23
-2.3099999999999992
 33
2.0899999999999981
  0
3DFACE
  5
233
  8
0
 10
-0.0399999999999992
 20
-2.3099999999999992
 30
2.4699999999999971
 11
-0.0399999999999992
 21
-3.6000000000000001
 31
2.269999999999996
 12
0.0
 22
-3.6000000000000001
 32
2.2699999999999991
 13
0.0
 23
-2.3099999999999992
 33
2.4799999999999982
  0
3DFACE
  5
236
  8
0
 10
-0.1300000000000026
 20
-2.3099999999999992
 30
2.3799999999999968
 11
-0.0900000000000034
 21
-3.6000000000000001
 31
2.239999999999998
 12
-0.0399999999999992
 22
-3.6000000000000001
 32
2.269999999999996
 13
-0.0399999999999992
 23
-2.3099999999999992
 33
2.4699999999999971
  0
3DFACE
  5
237
  8
0
 10
-0.2000000000000028
 20
-2.3099999999999992
 30
2.2599999999999958
 11
-0.1099999999999994
 21
-3.6000000000000001
 31
2.2099999999999969
 12
-0.0900000000000034
 22
-3.6000000000000001
 32
2.239999999999998
 13
-0.1300000000000026
 23
-2.3099999999999992
 33
2.3799999999999968
  0
3DFACE
  5
248
  8
0
 10
-0.0799999999999983
 20
-4.2699999999999996
 30
1.8799999999999959
 11
0.0
 21
-4.5499999999999989
 31
1.8799999999999959
 12
0.0
 22
-4.669999999999999
 32
1.919999999999999
 13
-0.0899999999999963
 23
-4.2699999999999996
 33
1.919999999999999
  0
3DFACE
  5
24C
  8
0
 10
0.0
 20
-4.2700000000000022
 30
1.829999999999999
 11
0.0
 21
-4.3099999999999987
 31
1.829999999999999
 12
0.0
 22
-4.3600000000000003
 32
1.839999999999997
 13
-0.0499999999999972
 23
-4.2699999999999996
 33
1.839999999999997
  0
3DFACE
  5
24D
  8
0
 10
-0.0499999999999972
 20
-4.2699999999999996
 30
1.839999999999997
 11
0.0
 21
-4.3600000000000003
 31
1.839999999999997
 12
0.0
 22
-4.5499999999999989
 32
1.8799999999999959
 13
-0.0799999999999983
 23
-4.2699999999999996
 33
1.8799999999999959
  0
3DFACE
  5
253
  8
0
 10
-0.0499999999999972
 20
-4.2699999999999996
 30
2.2499999999999969
 11
0.0
 21
-4.919999999999999
 31
2.1899999999999999
 12
0.0
 22
-4.919999999999999
 32
2.259999999999998
 13
-0.0399999999999992
 23
-4.2699999999999996
 33
2.259999999999998
  0
3DFACE
  5
259
  8
0
 10
-0.0899999999999963
 20
-4.2699999999999996
 30
1.919999999999999
 11
0.0
 21
-4.669999999999999
 31
1.919999999999999
 12
0.0
 22
-4.7499999999999991
 32
1.959999999999994
 13
-0.1000000000000014
 23
-4.2699999999999996
 33
1.959999999999994
  0
3DFACE
  5
25F
  8
0
 10
-0.1000000000000014
 20
-4.2699999999999996
 30
1.959999999999994
 11
0.0
 21
-4.7499999999999991
 31
1.959999999999994
 12
0.0
 22
-4.8399999999999981
 32
2.0299999999999998
 13
-0.0899999999999963
 23
-4.2699999999999996
 33
2.1299999999999959
  0
3DFACE
  5
265
  8
0
 10
-0.0899999999999963
 20
-4.2699999999999996
 30
2.1299999999999959
 11
0.0
 21
-4.8399999999999981
 31
2.0299999999999998
 12
0.0
 22
-4.8999999999999986
 32
2.1099999999999999
 13
-0.0700000000000003
 23
-4.2699999999999996
 33
2.2199999999999962
  0
3DFACE
  5
26B
  8
0
 10
-0.0700000000000003
 20
-4.2699999999999996
 30
2.2199999999999962
 11
0.0
 21
-4.8999999999999986
 31
2.1099999999999999
 12
0.0
 22
-4.919999999999999
 32
2.1899999999999999
 13
-0.0499999999999972
 23
-4.2699999999999996
 33
2.2499999999999969
  0
3DFACE
  5
273
  8
0
 10
-0.0399999999999992
 20
-4.2699999999999996
 30
2.259999999999998
 11
0.0
 21
-4.919999999999999
 31
2.259999999999998
 12
0.0000000000000009
 22
-4.919999999999999
 32
2.2599999999999989
 13
-0.019999999999996
 23
-4.2699999999999996
 33
2.269999999999996
  0
3DFACE
  5
276
  8
0
 10
-0.019999999999996
 20
-4.2699999999999996
 30
2.269999999999996
 11
0.0000000000000009
 21
-4.919999999999999
 31
2.2599999999999989
 12
0.0000000000000009
 22
-4.919999999999999
 32
2.2599999999999989
 13
0.0
 23
-4.2700000000000022
 33
2.269999999999996
  0
3DFACE
  5
2AC
  8
0
 10
0.4600000000000009
 20
2.379999999999999
 30
1.359999999999997
 11
0.4200000000000017
 21
3.5600000000000001
 31
1.659999999999999
 12
0.4200000000000017
 22
3.5600000000000001
 32
2.0099999999999971
 13
0.4500000000000029
 23
2.379999999999999
 33
1.8999999999999959
  0
3DFACE
  5
2AD
  8
0
 10
0.240000000000002
 20
2.379999999999999
 30
1.2099999999999991
 11
0.1500000000000021
 21
3.5600000000000001
 31
1.3799999999999979
 12
0.2600000000000016
 22
3.5600000000000001
 32
1.4299999999999979
 13
0.3200000000000003
 23
2.379999999999999
 33
1.229999999999998
  0
3DFACE
  5
2AE
  8
0
 10
0.0
 20
2.379999999999999
 30
1.1999999999999971
 11
0.0
 21
3.5600000000000001
 31
1.3499999999999961
 12
0.1500000000000021
 22
3.5600000000000001
 32
1.3799999999999979
 13
0.240000000000002
 23
2.379999999999999
 33
1.2099999999999991
  0
3DFACE
  5
2AF
  8
0
 10
0.3200000000000003
 20
2.379999999999999
 30
1.229999999999998
 11
0.2600000000000016
 21
3.5600000000000001
 31
1.4299999999999979
 12
0.3500000000000014
 22
3.5600000000000001
 32
1.51
 13
0.4000000000000022
 23
2.379999999999999
 33
1.2799999999999949
  0
3DFACE
  5
2B0
  8
0
 10
0.4000000000000022
 20
2.379999999999999
 30
1.2799999999999949
 11
0.3500000000000014
 21
3.5600000000000001
 31
1.51
 12
0.4200000000000017
 22
3.5600000000000001
 32
1.659999999999999
 13
0.4600000000000009
 23
2.379999999999999
 33
1.359999999999997
  0
3DFACE
  5
2B1
  8
0
 10
0.4100000000000002
 20
2.379999999999999
 30
2.1499999999999959
 11
0.3300000000000018
 21
3.5600000000000001
 31
2.2699999999999978
 12
0.2600000000000016
 22
3.5600000000000001
 32
2.3699999999999961
 13
0.3399999999999999
 23
2.379999999999999
 33
2.3499999999999961
  0
3DFACE
  5
2B2
  8
0
 10
0.4500000000000029
 20
2.379999999999999
 30
1.8999999999999959
 11
0.4200000000000017
 21
3.5600000000000001
 31
2.0099999999999971
 12
0.3300000000000018
 22
3.5600000000000001
 32
2.2699999999999978
 13
0.4100000000000002
 23
2.379999999999999
 33
2.1499999999999959
  0
3DFACE
  5
2B3
  8
0
 10
0.3399999999999999
 20
2.379999999999999
 30
2.3499999999999961
 11
0.2600000000000016
 21
3.5600000000000001
 31
2.3699999999999961
 12
0.1800000000000033
 22
3.5600000000000001
 32
2.4399999999999959
 13
0.2600000000000016
 23
2.379999999999999
 33
2.4799999999999982
  0
3DFACE
  5
2B4
  8
0
 10
0.2600000000000016
 20
2.379999999999999
 30
2.4799999999999982
 11
0.1800000000000033
 21
3.5600000000000001
 31
2.4399999999999959
 12
0.0900000000000034
 22
3.5600000000000001
 32
2.4799999999999991
 13
0.1099999999999994
 23
2.379999999999999
 33
2.5699999999999981
  0
3DFACE
  5
2B5
  8
0
 10
0.1099999999999994
 20
2.379999999999999
 30
2.5699999999999981
 11
0.0900000000000034
 21
3.5600000000000001
 31
2.4799999999999991
 12
0.0
 22
3.5600000000000001
 32
2.4899999999999971
 13
0.0
 23
2.3799999999999999
 33
2.589999999999999
  0
3DFACE
  5
2B6
  8
0
 10
0.48
 20
1.169999999999999
 30
1.389999999999997
 11
0.4600000000000009
 21
2.379999999999999
 31
1.359999999999997
 12
0.4500000000000029
 22
2.379999999999999
 32
1.8999999999999959
 13
0.470000000000002
 23
1.169999999999999
 33
1.9299999999999959
  0
3DFACE
  5
2B7
  8
0
 10
0.4499999999999989
 20
1.169999999999999
 30
1.3099999999999949
 11
0.4000000000000022
 21
2.379999999999999
 31
1.2799999999999949
 12
0.4600000000000009
 22
2.379999999999999
 32
1.359999999999997
 13
0.48
 23
1.169999999999999
 33
1.389999999999997
  0
3DFACE
  5
2B8
  8
0
 10
0.3900000000000001
 20
1.169999999999999
 30
1.239999999999998
 11
0.3200000000000003
 21
2.379999999999999
 31
1.229999999999998
 12
0.4000000000000022
 22
2.379999999999999
 32
1.2799999999999949
 13
0.4499999999999989
 23
1.169999999999999
 33
1.3099999999999949
  0
3DFACE
  5
2B9
  8
0
 10
0.0600000000000018
 20
1.169999999999999
 30
1.2199999999999991
 11
0.240000000000002
 21
2.379999999999999
 31
1.2099999999999991
 12
0.3200000000000003
 22
2.379999999999999
 32
1.229999999999998
 13
0.3900000000000001
 23
1.169999999999999
 33
1.239999999999998
  0
3DFACE
  5
2BA
  8
0
 10
-0.0000000000000004
 20
1.169999999999999
 30
1.1899999999999979
 11
0.0
 21
2.3799999999999999
 31
1.1999999999999971
 12
0.240000000000002
 22
2.379999999999999
 32
1.2099999999999991
 13
0.0600000000000018
 23
1.169999999999999
 33
1.2199999999999991
  0
3DFACE
  5
2BB
  8
0
 10
0.4400000000000009
 20
1.169999999999999
 30
2.1799999999999962
 11
0.4100000000000002
 21
2.379999999999999
 31
2.1499999999999959
 12
0.3399999999999999
 22
2.379999999999999
 32
2.3499999999999961
 13
0.4000000000000017
 23
1.169999999999999
 33
2.379999999999995
  0
3DFACE
  5
2BC
  8
0
 10
0.470000000000002
 20
1.169999999999999
 30
1.9299999999999959
 11
0.4500000000000029
 21
2.379999999999999
 31
1.8999999999999959
 12
0.4100000000000002
 22
2.379999999999999
 32
2.1499999999999959
 13
0.4400000000000009
 23
1.169999999999999
 33
2.1799999999999962
  0
3DFACE
  5
2BD
  8
0
 10
0.4000000000000017
 20
1.169999999999999
 30
2.379999999999995
 11
0.3399999999999999
 21
2.379999999999999
 31
2.3499999999999961
 12
0.2600000000000016
 22
2.379999999999999
 32
2.4799999999999982
 13
0.3300000000000014
 23
1.169999999999999
 33
2.509999999999998
  0
3DFACE
  5
2BE
  8
0
 10
0.1500000000000017
 20
1.169999999999999
 30
2.629999999999995
 11
0.1099999999999994
 21
2.379999999999999
 31
2.5699999999999981
 12
0.0
 22
2.379999999999999
 32
2.5899999999999981
 13
0.0
 23
1.169999999999999
 33
2.6499999999999999
  0
3DFACE
  5
2BF
  8
0
 10
0.3300000000000014
 20
1.169999999999999
 30
2.509999999999998
 11
0.2600000000000016
 21
2.379999999999999
 31
2.4799999999999982
 12
0.1099999999999994
 22
2.379999999999999
 32
2.5699999999999981
 13
0.1500000000000017
 23
1.169999999999999
 33
2.629999999999995
  0
3DFACE
  5
2C0
  8
0
 10
0.4499999999999989
 20
0.5700000000000012
 30
1.3999999999999979
 11
0.48
 21
1.169999999999999
 31
1.389999999999997
 12
0.470000000000002
 22
1.169999999999999
 32
1.9299999999999959
 13
0.4499999999999989
 23
0.5700000000000012
 33
1.9399999999999971
  0
3DFACE
  5
2C1
  8
0
 10
0.4299999999999993
 20
0.5700000000000012
 30
1.3199999999999961
 11
0.4499999999999989
 21
1.169999999999999
 31
1.3099999999999949
 12
0.48
 22
1.169999999999999
 32
1.389999999999997
 13
0.4499999999999989
 23
0.5700000000000012
 33
1.3999999999999979
  0
3DFACE
  5
2C2
  8
0
 10
0.3399999999999994
 20
0.5700000000000012
 30
1.25
 11
0.3900000000000001
 21
1.169999999999999
 31
1.239999999999998
 12
0.4499999999999989
 22
1.169999999999999
 32
1.3099999999999949
 13
0.4299999999999993
 23
0.5700000000000012
 33
1.3199999999999961
  0
3DFACE
  5
2C3
  8
0
 10
0.0599999999999983
 20
0.5700000000000012
 30
1.239999999999998
 11
0.0600000000000018
 21
1.169999999999999
 31
1.2199999999999991
 12
0.3900000000000001
 22
1.169999999999999
 32
1.239999999999998
 13
0.3399999999999994
 23
0.5700000000000012
 33
1.25
  0
3DFACE
  5
2C4
  8
0
 10
-0.0000000000000004
 20
0.5700000000000003
 30
1.1999999999999991
 11
-0.0000000000000004
 21
1.169999999999999
 31
1.1899999999999979
 12
0.0600000000000018
 22
1.169999999999999
 32
1.2199999999999991
 13
0.0599999999999983
 23
0.5700000000000012
 33
1.239999999999998
  0
3DFACE
  5
2C5
  8
0
 10
0.4299999999999993
 20
0.5700000000000012
 30
2.1899999999999968
 11
0.4400000000000009
 21
1.169999999999999
 31
2.1799999999999962
 12
0.4000000000000017
 22
1.169999999999999
 32
2.379999999999995
 13
0.369999999999997
 23
0.5700000000000012
 33
2.389999999999997
  0
3DFACE
  5
2C6
  8
0
 10
0.4499999999999989
 20
0.5700000000000012
 30
1.9399999999999971
 11
0.470000000000002
 21
1.169999999999999
 31
1.9299999999999959
 12
0.4400000000000009
 22
1.169999999999999
 32
2.1799999999999962
 13
0.4299999999999993
 23
0.5700000000000012
 33
2.1899999999999968
  0
3DFACE
  5
2C8
  8
0
 10
0.3099999999999983
 20
0.5700000000000012
 30
2.5199999999999991
 11
0.3300000000000014
 21
1.169999999999999
 31
2.509999999999998
 12
0.1500000000000017
 22
1.169999999999999
 32
2.629999999999995
 13
0.1499999999999981
 23
0.5700000000000012
 33
2.639999999999997
  0
3DFACE
  5
2C9
  8
0
 10
0.369999999999997
 20
0.5700000000000012
 30
2.389999999999997
 11
0.4000000000000017
 21
1.169999999999999
 31
2.379999999999995
 12
0.3300000000000014
 22
1.169999999999999
 32
2.509999999999998
 13
0.3099999999999983
 23
0.5700000000000012
 33
2.5199999999999991
  0
3DFACE
  5
2CA
  8
0
 10
0.4500000000000029
 20
-0.0599999999999978
 30
1.1099999999999961
 11
0.4499999999999989
 21
0.5700000000000012
 31
1.3999999999999979
 12
0.4499999999999989
 22
0.5700000000000012
 32
1.9399999999999971
 13
0.4600000000000044
 23
-0.0599999999999978
 33
1.649999999999995
  0
3DFACE
  5
2CB
  8
0
 10
-0.0000000000000004
 20
-0.0599999999999996
 30
0.9099999999999969
 11
-0.0000000000000004
 21
0.5700000000000003
 31
1.1999999999999991
 12
0.0599999999999983
 22
0.5700000000000012
 32
1.239999999999998
 13
0.2000000000000028
 23
-0.0599999999999978
 33
0.9099999999999969
  0
3DFACE
  5
2CC
  8
0
 10
0.2000000000000028
 20
-0.0599999999999978
 30
0.9099999999999969
 11
0.0599999999999983
 21
0.5700000000000012
 31
1.239999999999998
 12
0.3399999999999994
 22
0.5700000000000012
 32
1.25
 13
0.370000000000001
 23
-0.0599999999999978
 33
0.9599999999999976
  0
3DFACE
  5
2CD
  8
0
 10
0.370000000000001
 20
-0.0599999999999978
 30
0.9599999999999976
 11
0.3399999999999994
 21
0.5700000000000012
 31
1.25
 12
0.4299999999999993
 22
0.5700000000000012
 32
1.3199999999999961
 13
0.4200000000000017
 23
-0.0599999999999978
 33
1.029999999999994
  0
3DFACE
  5
2CE
  8
0
 10
0.4200000000000017
 20
-0.0599999999999978
 30
1.029999999999994
 11
0.4299999999999993
 21
0.5700000000000012
 31
1.3199999999999961
 12
0.4499999999999989
 22
0.5700000000000012
 32
1.3999999999999979
 13
0.4500000000000029
 23
-0.0599999999999978
 33
1.1099999999999961
  0
3DFACE
  5
2CF
  8
0
 10
0.4500000000000029
 20
-0.0599999999999978
 30
2.0899999999999959
 11
0.4299999999999993
 21
0.5700000000000012
 31
2.1899999999999968
 12
0.369999999999997
 22
0.5700000000000012
 32
2.389999999999997
 13
0.4000000000000022
 23
-0.0599999999999978
 33
2.3199999999999958
  0
3DFACE
  5
2D0
  8
0
 10
0.4600000000000044
 20
-0.0599999999999978
 30
1.649999999999995
 11
0.4499999999999989
 21
0.5700000000000012
 31
1.9399999999999971
 12
0.4299999999999993
 22
0.5700000000000012
 32
2.1899999999999968
 13
0.4500000000000029
 23
-0.0599999999999978
 33
2.0899999999999959
  0
3DFACE
  5
2D1
  8
0
 10
0.4000000000000022
 20
-0.0599999999999978
 30
2.3199999999999958
 11
0.369999999999997
 21
0.5700000000000012
 31
2.389999999999997
 12
0.3099999999999983
 22
0.5700000000000012
 32
2.5199999999999991
 13
0.3400000000000034
 23
-0.0599999999999978
 33
2.489999999999998
  0
3DFACE
  5
2D2
  8
0
 10
0.3400000000000034
 20
-0.0599999999999978
 30
2.489999999999998
 11
0.3099999999999983
 21
0.5700000000000012
 31
2.5199999999999991
 12
0.1499999999999981
 22
0.5700000000000012
 32
2.639999999999997
 13
0.1500000000000021
 23
-0.0599999999999978
 33
2.619999999999997
  0
3DFACE
  5
2D4
  8
0
 10
0.3999999999999915
 20
-1.1799999999999999
 30
1.879999999999999
 11
0.4600000000000044
 21
-0.0599999999999978
 31
1.649999999999995
 12
0.4500000000000029
 22
-0.0599999999999978
 32
2.0899999999999959
 13
0.3799999999999954
 23
-1.1799999999999999
 33
2.0699999999999958
  0
3DFACE
  5
2D7
  8
0
 10
0.3799999999999954
 20
-1.1799999999999999
 30
1.4099999999999959
 11
0.4500000000000029
 21
-0.0599999999999978
 31
1.1099999999999961
 12
0.4600000000000044
 22
-0.0599999999999978
 32
1.649999999999995
 13
0.3999999999999915
 23
-1.1799999999999999
 33
1.879999999999999
  0
3DFACE
  5
2DA
  8
0
 10
0.3799999999999954
 20
-1.1799999999999999
 30
2.0699999999999958
 11
0.4500000000000029
 21
-0.0599999999999978
 31
2.0899999999999959
 12
0.4000000000000022
 22
-0.0599999999999978
 32
2.3199999999999958
 13
0.3399999999999963
 23
-1.1799999999999999
 33
2.2999999999999972
  0
3DFACE
  5
2DB
  8
0
 10
0.2699999999999889
 20
-1.1799999999999999
 30
2.4499999999999988
 11
0.3400000000000034
 21
-0.0599999999999978
 31
2.489999999999998
 12
0.1500000000000021
 22
-0.0599999999999978
 32
2.619999999999997
 13
0.1499999999999915
 23
-1.1799999999999999
 33
2.5499999999999972
  0
3DFACE
  5
2DC
  8
0
 10
0.1499999999999915
 20
-1.1799999999999999
 30
2.5499999999999972
 11
0.1500000000000021
 21
-0.0599999999999978
 31
2.619999999999997
 12
0.0000000000000036
 22
-0.0599999999999978
 32
2.6499999999999981
 13
0.0000000000000036
 23
-1.1799999999999979
 33
2.589999999999999
  0
3DFACE
  5
2DD
  8
0
 10
0.3399999999999963
 20
-1.1799999999999999
 30
2.2999999999999972
 11
0.4000000000000022
 21
-0.0599999999999978
 31
2.3199999999999958
 12
0.3400000000000034
 22
-0.0599999999999978
 32
2.489999999999998
 13
0.2699999999999889
 23
-1.1799999999999999
 33
2.4499999999999988
  0
3DFACE
  5
2DE
  8
0
 10
0.3000000000000043
 20
-2.3099999999999992
 30
1.6799999999999971
 11
0.3799999999999954
 21
-1.1799999999999999
 31
1.4099999999999959
 12
0.3999999999999915
 22
-1.1799999999999999
 32
1.879999999999999
 13
0.2899999999999991
 23
-2.3099999999999992
 33
1.9099999999999979
  0
3DFACE
  5
2DF
  8
0
 10
0.240000000000002
 20
-2.3099999999999992
 30
1.609999999999997
 11
0.3399999999999963
 21
-1.1799999999999999
 31
1.2799999999999969
 12
0.3799999999999954
 22
-1.1799999999999999
 32
1.4099999999999959
 13
0.3000000000000043
 23
-2.3099999999999992
 33
1.6799999999999971
  0
3DFACE
  5
2E0
  8
0
 10
0.1000000000000014
 20
-2.3099999999999992
 30
1.5699999999999981
 11
0.0999999999999943
 21
-1.1799999999999999
 31
1.1899999999999971
 12
0.2699999999999889
 22
-1.1799999999999999
 32
1.229999999999996
 13
0.1600000000000037
 23
-2.3099999999999992
 33
1.5799999999999961
  0
3DFACE
  5
2E1
  8
0
 10
0.0
 20
-2.3099999999999992
 30
1.5599999999999961
 11
0.0
 21
-1.1799999999999979
 31
1.1899999999999971
 12
0.0999999999999943
 22
-1.1799999999999999
 32
1.1899999999999971
 13
0.1000000000000014
 23
-2.3099999999999992
 33
1.5699999999999981
  0
3DFACE
  5
2E2
  8
0
 10
0.1600000000000037
 20
-2.3099999999999992
 30
1.5799999999999961
 11
0.2699999999999889
 21
-1.1799999999999999
 31
1.229999999999996
 12
0.3399999999999963
 22
-1.1799999999999999
 32
1.2799999999999969
 13
0.240000000000002
 23
-2.3099999999999992
 33
1.609999999999997
  0
3DFACE
  5
2E3
  8
0
 10
0.2600000000000051
 20
-2.3099999999999992
 30
2.0899999999999981
 11
0.3799999999999954
 21
-1.1799999999999999
 31
2.0699999999999958
 12
0.3399999999999963
 22
-1.1799999999999999
 32
2.2999999999999972
 13
0.2000000000000028
 23
-2.3099999999999992
 33
2.2599999999999958
  0
3DFACE
  5
2E4
  8
0
 10
0.2899999999999991
 20
-2.3099999999999992
 30
1.9099999999999979
 11
0.3999999999999915
 21
-1.1799999999999999
 31
1.879999999999999
 12
0.3799999999999954
 22
-1.1799999999999999
 32
2.0699999999999958
 13
0.2600000000000051
 23
-2.3099999999999992
 33
2.0899999999999981
  0
3DFACE
  5
2E5
  8
0
 10
0.1300000000000026
 20
-2.3099999999999992
 30
2.3799999999999968
 11
0.2699999999999889
 21
-1.1799999999999999
 31
2.4499999999999988
 12
0.1499999999999915
 22
-1.1799999999999999
 32
2.5499999999999972
 13
0.0399999999999992
 23
-2.3099999999999992
 33
2.4699999999999971
  0
3DFACE
  5
2E6
  8
0
 10
0.2000000000000028
 20
-2.3099999999999992
 30
2.2599999999999958
 11
0.3399999999999963
 21
-1.1799999999999999
 31
2.2999999999999972
 12
0.2699999999999889
 22
-1.1799999999999999
 32
2.4499999999999988
 13
0.1300000000000026
 23
-2.3099999999999992
 33
2.3799999999999968
  0
3DFACE
  5
2E7
  8
0
 10
0.0399999999999992
 20
-2.3099999999999992
 30
2.4699999999999971
 11
0.1499999999999915
 21
-1.1799999999999999
 31
2.5499999999999972
 12
0.0
 22
-1.1799999999999979
 32
2.589999999999999
 13
0.0
 23
-2.3099999999999992
 33
2.4799999999999991
  0
3DFACE
  5
2E8
  8
0
 10
0.1700000000000017
 20
-3.6000000000000019
 30
1.8399999999999961
 11
0.3000000000000043
 21
-2.3099999999999992
 31
1.6799999999999971
 12
0.2899999999999991
 22
-2.3099999999999992
 32
1.9099999999999979
 13
0.1799999999999997
 23
-3.6000000000000019
 33
1.859999999999995
  0
3DFACE
  5
2E9
  8
0
 10
0.0799999999999983
 20
-3.6000000000000019
 30
1.71
 11
0.1000000000000014
 21
-2.3099999999999992
 31
1.5699999999999981
 12
0.1600000000000037
 22
-2.3099999999999992
 32
1.5799999999999961
 13
0.1200000000000045
 23
-3.6000000000000019
 33
1.739999999999998
  0
3DFACE
  5
2EA
  8
0
 10
0.0
 20
-3.6000000000000019
 30
1.6999999999999991
 11
0.0
 21
-2.3099999999999992
 31
1.5599999999999961
 12
0.1000000000000014
 22
-2.3099999999999992
 32
1.5699999999999981
 13
0.0799999999999983
 23
-3.6000000000000019
 33
1.71
  0
3DFACE
  5
2EB
  8
0
 10
0.1200000000000045
 20
-3.6000000000000019
 30
1.739999999999998
 11
0.1600000000000037
 21
-2.3099999999999992
 31
1.5799999999999961
 12
0.240000000000002
 22
-2.3099999999999992
 32
1.609999999999997
 13
0.1499999999999986
 23
-3.6000000000000019
 33
1.7799999999999969
  0
3DFACE
  5
2EC
  8
0
 10
0.1499999999999986
 20
-3.6000000000000019
 30
1.7799999999999969
 11
0.240000000000002
 21
-2.3099999999999992
 31
1.609999999999997
 12
0.3000000000000043
 22
-2.3099999999999992
 32
1.6799999999999971
 13
0.1700000000000017
 23
-3.6000000000000019
 33
1.8399999999999961
  0
3DFACE
  5
2ED
  8
0
 10
0.1099999999999994
 20
-3.6000000000000019
 30
2.2099999999999969
 11
0.2000000000000028
 21
-2.3099999999999992
 31
2.2599999999999958
 12
0.1300000000000026
 22
-2.3099999999999992
 32
2.3799999999999968
 13
0.0900000000000034
 23
-3.6000000000000019
 33
2.239999999999998
  0
3DFACE
  5
2EE
  8
0
 10
0.1499999999999986
 20
-3.6000000000000019
 30
2.099999999999997
 11
0.2600000000000051
 21
-2.3099999999999992
 31
2.0899999999999981
 12
0.2000000000000028
 22
-2.3099999999999992
 32
2.2599999999999958
 13
0.1099999999999994
 23
-3.6000000000000019
 33
2.2099999999999969
  0
3DFACE
  5
2EF
  8
0
 10
0.1799999999999997
 20
-3.6000000000000019
 30
1.859999999999995
 11
0.2899999999999991
 21
-2.3099999999999992
 31
1.9099999999999979
 12
0.2600000000000051
 22
-2.3099999999999992
 32
2.0899999999999981
 13
0.1499999999999986
 23
-3.6000000000000019
 33
2.099999999999997
  0
3DFACE
  5
2F0
  8
0
 10
0.0399999999999992
 20
-3.6000000000000019
 30
2.269999999999996
 11
0.0399999999999992
 21
-2.3099999999999992
 31
2.4699999999999971
 12
0.0
 22
-2.3099999999999992
 32
2.4799999999999982
 13
0.0
 23
-3.6000000000000001
 33
2.2699999999999991
  0
3DFACE
  5
2F1
  8
0
 10
0.0900000000000034
 20
-3.6000000000000019
 30
2.239999999999998
 11
0.1300000000000026
 21
-2.3099999999999992
 31
2.3799999999999968
 12
0.0399999999999992
 22
-2.3099999999999992
 32
2.4699999999999971
 13
0.0399999999999992
 23
-3.6000000000000019
 33
2.269999999999996
  0
3DFACE
  5
2F2
  8
0
 10
0.1000000000000014
 20
-4.2700000000000022
 30
1.959999999999994
 11
0.1700000000000017
 21
-3.6000000000000019
 31
1.8399999999999961
 12
0.1799999999999997
 22
-3.6000000000000019
 32
1.859999999999995
 13
0.0899999999999963
 23
-4.2700000000000022
 33
2.1299999999999959
  0
3DFACE
  5
2F3
  8
0
 10
0.0899999999999963
 20
-4.2700000000000022
 30
1.919999999999999
 11
0.1499999999999986
 21
-3.6000000000000019
 31
1.7799999999999969
 12
0.1700000000000017
 22
-3.6000000000000019
 32
1.8399999999999961
 13
0.1000000000000014
 23
-4.2700000000000022
 33
1.959999999999994
  0
3DFACE
  5
2F4
  8
0
 10
0.0799999999999983
 20
-4.2700000000000022
 30
1.8799999999999959
 11
0.1200000000000045
 21
-3.6000000000000019
 31
1.739999999999998
 12
0.1499999999999986
 22
-3.6000000000000019
 32
1.7799999999999969
 13
0.0899999999999963
 23
-4.2700000000000022
 33
1.919999999999999
  0
3DFACE
  5
2F5
  8
0
 10
0.0499999999999972
 20
-4.2700000000000022
 30
1.839999999999997
 11
0.0799999999999983
 21
-3.6000000000000019
 31
1.71
 12
0.1200000000000045
 22
-3.6000000000000019
 32
1.739999999999998
 13
0.0799999999999983
 23
-4.2700000000000022
 33
1.8799999999999959
  0
3DFACE
  5
2F6
  8
0
 10
0.0
 20
-4.2700000000000022
 30
1.829999999999999
 11
0.0
 21
-3.6000000000000001
 31
1.6999999999999991
 12
0.0799999999999983
 22
-3.6000000000000019
 32
1.71
 13
0.0499999999999972
 23
-4.2700000000000022
 33
1.839999999999997
  0
3DFACE
  5
2F7
  8
0
 10
0.019999999999996
 20
-4.2700000000000022
 30
2.269999999999996
 11
0.0399999999999992
 21
-3.6000000000000019
 31
2.269999999999996
 12
0.0
 22
-3.6000000000000019
 32
2.269999999999996
 13
0.0
 23
-4.2700000000000022
 33
2.269999999999996
  0
3DFACE
  5
2F8
  8
0
 10
0.0399999999999992
 20
-4.2700000000000022
 30
2.259999999999998
 11
0.0900000000000034
 21
-3.6000000000000019
 31
2.239999999999998
 12
0.0399999999999992
 22
-3.6000000000000019
 32
2.269999999999996
 13
0.019999999999996
 23
-4.2700000000000022
 33
2.269999999999996
  0
3DFACE
  5
2F9
  8
0
 10
0.0499999999999972
 20
-4.2700000000000022
 30
2.2499999999999969
 11
0.1099999999999994
 21
-3.6000000000000019
 31
2.2099999999999969
 12
0.0900000000000034
 22
-3.6000000000000019
 32
2.239999999999998
 13
0.0399999999999992
 23
-4.2700000000000022
 33
2.259999999999998
  0
3DFACE
  5
2FA
  8
0
 10
0.0700000000000003
 20
-4.2700000000000022
 30
2.2199999999999962
 11
0.1499999999999986
 21
-3.6000000000000019
 31
2.099999999999997
 12
0.1099999999999994
 22
-3.6000000000000019
 32
2.2099999999999969
 13
0.0499999999999972
 23
-4.2700000000000022
 33
2.2499999999999969
  0
3DFACE
  5
2FB
  8
0
 10
0.0899999999999963
 20
-4.2700000000000022
 30
2.1299999999999959
 11
0.1799999999999997
 21
-3.6000000000000019
 31
1.859999999999995
 12
0.1499999999999986
 22
-3.6000000000000019
 32
2.099999999999997
 13
0.0700000000000003
 23
-4.2700000000000022
 33
2.2199999999999962
  0
3DFACE
  5
2FC
  8
0
 10
0.0
 20
-4.3600000000000003
 30
1.839999999999997
 11
0.0499999999999972
 21
-4.2700000000000022
 31
1.839999999999997
 12
0.0799999999999983
 22
-4.2700000000000022
 32
1.8799999999999959
 13
0.0
 23
-4.5499999999999989
 33
1.8799999999999959
  0
3DFACE
  5
2FD
  8
0
 10
0.0
 20
-4.3099999999999987
 30
1.829999999999999
 11
0.0
 21
-4.2700000000000022
 31
1.829999999999999
 12
0.0499999999999972
 22
-4.2700000000000022
 32
1.839999999999997
 13
0.0
 23
-4.3600000000000003
 33
1.839999999999997
  0
3DFACE
  5
2FE
  8
0
 10
0.0
 20
-4.8999999999999986
 30
2.1099999999999999
 11
0.0700000000000003
 21
-4.2700000000000022
 31
2.2199999999999962
 12
0.0499999999999972
 22
-4.2700000000000022
 32
2.2499999999999969
 13
0.0
 23
-4.919999999999999
 33
2.1899999999999999
  0
3DFACE
  5
2FF
  8
0
 10
0.0
 20
-4.8399999999999981
 30
2.0299999999999998
 11
0.0899999999999963
 21
-4.2700000000000022
 31
2.1299999999999959
 12
0.0700000000000003
 22
-4.2700000000000022
 32
2.2199999999999962
 13
0.0
 23
-4.8999999999999986
 33
2.1099999999999999
  0
3DFACE
  5
300
  8
0
 10
0.0
 20
-4.919999999999999
 30
2.1899999999999999
 11
0.0499999999999972
 21
-4.2700000000000022
 31
2.2499999999999969
 12
0.0399999999999992
 22
-4.2700000000000022
 32
2.259999999999998
 13
0.0
 23
-4.919999999999999
 33
2.259999999999998
  0
3DFACE
  5
301
  8
0
 10
0.0000000000000009
 20
-4.919999999999999
 30
2.2599999999999989
 11
0.019999999999996
 21
-4.2700000000000022
 31
2.269999999999996
 12
0.0
 22
-4.2700000000000022
 32
2.269999999999996
 13
0.0000000000000009
 23
-4.919999999999999
 33
2.2599999999999989
  0
3DFACE
  5
302
  8
0
 10
0.0
 20
-4.919999999999999
 30
2.259999999999998
 11
0.0399999999999992
 21
-4.2700000000000022
 31
2.259999999999998
 12
0.019999999999996
 22
-4.2700000000000022
 32
2.269999999999996
 13
0.0000000000000009
 23
-4.919999999999999
 33
2.2599999999999989
  0
3DFACE
  5
303
  8
0
 10
0.0
 20
-4.5499999999999989
 30
1.8799999999999959
 11
0.0799999999999983
 21
-4.2700000000000022
 31
1.8799999999999959
 12
0.0899999999999963
 22
-4.2700000000000022
 32
1.919999999999999
 13
0.0
 23
-4.669999999999999
 33
1.919999999999999
  0
3DFACE
  5
304
  8
0
 10
0.0
 20
-4.669999999999999
 30
1.919999999999999
 11
0.0899999999999963
 21
-4.2700000000000022
 31
1.919999999999999
 12
0.1000000000000014
 22
-4.2700000000000022
 32
1.959999999999994
 13
0.0
 23
-4.7499999999999991
 33
1.959999999999994
  0
3DFACE
  5
305
  8
0
 10
0.0
 20
-4.7499999999999991
 30
1.959999999999994
 11
0.1000000000000014
 21
-4.2700000000000022
 31
1.959999999999994
 12
0.0899999999999963
 22
-4.2700000000000022
 32
2.1299999999999959
 13
0.0
 23
-4.8399999999999981
 33
2.0299999999999998
  0
3DFACE
  5
308
  8
0
 10
0.3599999999999994
 20
4.1500000000000004
 30
1.989999999999998
 11
0.3423803458662569
 21
4.1500000000000004
 31
2.1012461179749802
 12
0.3300000000000018
 22
3.5600000000000001
 32
2.2699999999999978
 13
0.4200000000000017
 23
3.5600000000000001
 33
2.0099999999999971
  0
3DFACE
  5
309
  8
0
 10
0.3423803458662569
 20
4.1500000000000004
 30
2.1012461179749802
 11
0.2912461179749819
 21
4.1500000000000004
 31
2.2016026908252888
 12
0.2600000000000016
 22
3.5600000000000001
 32
2.3699999999999961
 13
0.3300000000000018
 23
3.5600000000000001
 33
2.2699999999999978
  0
3DFACE
  5
30A
  8
0
 10
0.2912461179749819
 20
4.1500000000000004
 30
2.2016026908252888
 11
0.2116026908252913
 21
4.1500000000000004
 31
2.2812461179749799
 12
0.1800000000000033
 22
3.5600000000000001
 32
2.4399999999999959
 13
0.2600000000000016
 23
3.5600000000000001
 33
2.3699999999999961
  0
3DFACE
  5
30B
  8
0
 10
0.2116026908252913
 20
4.1500000000000004
 30
2.2812461179749799
 11
0.1112461179749822
 21
4.1500000000000004
 31
2.3323803458662549
 12
0.0900000000000034
 22
3.5600000000000001
 32
2.4799999999999991
 13
0.1800000000000033
 23
3.5600000000000001
 33
2.4399999999999959
  0
3DFACE
  5
30C
  8
0
 10
0.1112461179749822
 20
4.1500000000000004
 30
2.3323803458662549
 11
0.0
 21
4.1500000000000004
 31
2.349999999999997
 12
0.0
 22
3.5600000000000001
 32
2.4900000000000002
 13
0.0900000000000034
 23
3.5600000000000001
 33
2.4799999999999991
  0
3DFACE
  5
30D
  8
0
 10
0.0
 20
4.1500000000000004
 30
2.349999999999997
 11
-0.1112461179749786
 21
4.1500000000000004
 31
2.3323803458662549
 12
-0.0900000000000034
 22
3.5600000000000001
 32
2.4799999999999991
 13
0.0
 23
3.5600000000000001
 33
2.4900000000000002
  0
3DFACE
  5
30E
  8
0
 10
-0.1112461179749786
 20
4.1500000000000004
 30
2.3323803458662549
 11
-0.2116026908252877
 21
4.1500000000000004
 31
2.2812461179749799
 12
-0.1800000000000033
 22
3.5600000000000001
 32
2.4399999999999959
 13
-0.0900000000000034
 23
3.5600000000000001
 33
2.4799999999999991
  0
3DFACE
  5
30F
  8
0
 10
-0.2116026908252877
 20
4.1500000000000004
 30
2.2812461179749799
 11
-0.2912461179749783
 21
4.1500000000000004
 31
2.2016026908252888
 12
-0.2600000000000016
 22
3.5600000000000001
 32
2.3699999999999961
 13
-0.1800000000000033
 23
3.5600000000000001
 33
2.4399999999999959
  0
3DFACE
  5
310
  8
0
 10
-0.2912461179749783
 20
4.1500000000000004
 30
2.2016026908252888
 11
-0.3423803458662533
 21
4.1500000000000004
 31
2.1012461179749802
 12
-0.3300000000000018
 22
3.5600000000000001
 32
2.2699999999999978
 13
-0.2600000000000016
 23
3.5600000000000001
 33
2.3699999999999961
  0
3DFACE
  5
311
  8
0
 10
-0.3423803458662533
 20
4.1500000000000004
 30
2.1012461179749802
 11
-0.3599999999999994
 21
4.1500000000000004
 31
1.989999999999998
 12
-0.4200000000000017
 22
3.5600000000000001
 32
2.0099999999999971
 13
-0.3300000000000018
 23
3.5600000000000001
 33
2.2699999999999978
  0
3DFACE
  5
312
  8
0
 10
-0.3599999999999994
 20
4.1500000000000004
 30
1.989999999999998
 11
-0.3423803458662533
 21
4.1500000000000004
 31
1.878753882025016
 12
-0.4200000000000017
 22
3.5600000000000001
 32
1.659999999999999
 13
-0.4200000000000017
 23
3.5600000000000001
 33
2.0099999999999971
  0
3DFACE
  5
313
  8
0
 10
-0.3423803458662533
 20
4.1500000000000004
 30
1.878753882025016
 11
-0.2912461179749783
 21
4.1500000000000004
 31
1.778397309174707
 12
-0.3500000000000014
 22
3.5600000000000001
 32
1.5099999999999969
 13
-0.4200000000000017
 23
3.5600000000000001
 33
1.659999999999999
  0
3DFACE
  5
314
  8
0
 10
-0.2912461179749783
 20
4.1500000000000004
 30
1.778397309174707
 11
-0.2116026908252877
 21
4.1500000000000004
 31
1.6987538820250161
 12
-0.2600000000000016
 22
3.5600000000000001
 32
1.4299999999999979
 13
-0.3500000000000014
 23
3.5600000000000001
 33
1.5099999999999969
  0
3DFACE
  5
315
  8
0
 10
-0.2116026908252877
 20
4.1500000000000004
 30
1.6987538820250161
 11
-0.1112461179749786
 21
4.1500000000000004
 31
1.6476196541337409
 12
-0.1500000000000021
 22
3.5600000000000001
 32
1.3799999999999979
 13
-0.2600000000000016
 23
3.5600000000000001
 33
1.4299999999999979
  0
3DFACE
  5
316
  8
0
 10
-0.1112461179749786
 20
4.1500000000000004
 30
1.6476196541337409
 11
0.0
 21
4.1500000000000004
 31
1.629999999999999
 12
0.0
 22
3.5600000000000001
 32
1.3500000000000001
 13
-0.1500000000000021
 23
3.5600000000000001
 33
1.3799999999999979
  0
3DFACE
  5
317
  8
0
 10
0.0
 20
4.1500000000000004
 30
1.629999999999999
 11
0.1112461179749822
 21
4.1500000000000004
 31
1.6476196541337409
 12
0.1500000000000021
 22
3.5600000000000001
 32
1.3799999999999979
 13
0.0
 23
3.5600000000000001
 33
1.3500000000000001
  0
3DFACE
  5
318
  8
0
 10
0.1112461179749822
 20
4.1500000000000004
 30
1.6476196541337409
 11
0.2116026908252913
 21
4.1500000000000004
 31
1.6987538820250161
 12
0.2600000000000016
 22
3.5600000000000001
 32
1.4299999999999979
 13
0.1500000000000021
 23
3.5600000000000001
 33
1.3799999999999979
  0
3DFACE
  5
319
  8
0
 10
0.2116026908252913
 20
4.1500000000000004
 30
1.6987538820250161
 11
0.2912461179749819
 21
4.1500000000000004
 31
1.778397309174707
 12
0.3500000000000014
 22
3.5600000000000001
 32
1.51
 13
0.2600000000000016
 23
3.5600000000000001
 33
1.4299999999999979
  0
3DFACE
  5
31A
  8
0
 10
0.2912461179749819
 20
4.1500000000000004
 30
1.778397309174707
 11
0.3423803458662569
 21
4.1500000000000004
 31
1.878753882025016
 12
0.4200000000000017
 22
3.5600000000000001
 32
1.659999999999999
 13
0.3500000000000014
 23
3.5600000000000001
 33
1.51
  0
3DFACE
  5
31B
  8
0
 10
0.3423803458662569
 20
4.1500000000000004
 30
1.878753882025016
 11
0.3599999999999994
 21
4.1500000000000004
 31
1.989999999999998
 12
0.4200000000000017
 22
3.5600000000000001
 32
2.0099999999999971
 13
0.4200000000000017
 23
3.5600000000000001
 33
1.659999999999999
  0
3DFACE
  5
330
  8
0
 10
0.3799999999999954
 20
-1.1799999999999999
 30
1.4099999999999959
 11
0.3399999999999963
 21
-1.1799999999999999
 31
1.2799999999999969
 12
0.4200000000000017
 22
-0.0599999999999978
 32
1.029999999999994
 13
0.4500000000000029
 23
-0.0599999999999978
 33
1.1099999999999961
  0
3DFACE
  5
337
  8
0
 10
0.3399999999999963
 20
-1.1799999999999999
 30
1.2799999999999969
 11
0.2699999999999889
 21
-1.1799999999999999
 31
1.229999999999996
 12
0.370000000000001
 22
-0.0599999999999978
 32
0.9599999999999976
 13
0.4200000000000017
 23
-0.0599999999999978
 33
1.029999999999994
  0
3DFACE
  5
33B
  8
0
 10
0.0
 20
-0.0599999999999996
 30
0.8900000000000002
 11
0.2000000000000028
 21
-0.0599999999999978
 31
0.9099999999999969
 12
0.0999999999999943
 22
-1.1799999999999999
 32
1.1899999999999971
 13
0.0
 23
-1.1799999999999979
 33
1.1899999999999971
  0
3DFACE
  5
33E
  8
0
 10
0.2699999999999889
 20
-1.1799999999999999
 30
1.229999999999996
 11
0.0999999999999943
 21
-1.1799999999999999
 31
1.1899999999999971
 12
0.2000000000000028
 22
-0.0599999999999978
 32
0.9099999999999969
 13
0.370000000000001
 23
-0.0599999999999978
 33
0.9599999999999976
  0
3DFACE
  5
344
  8
0
 10
-0.4499999999999998
 20
-0.0599999999999996
 30
1.1099999999999961
 11
-0.4199999999999986
 21
-0.0599999999999996
 31
1.029999999999994
 12
-0.3400000000000034
 22
-1.1799999999999979
 32
1.2799999999999969
 13
-0.3800000000000025
 23
-1.1799999999999979
 33
1.4099999999999959
  0
3DFACE
  5
345
  8
0
 10
0.0
 20
-1.1799999999999979
 30
1.1899999999999971
 11
-0.1000000000000014
 21
-1.1799999999999979
 31
1.1899999999999971
 12
-0.1999999999999997
 22
-0.0599999999999996
 32
0.9099999999999969
 13
0.0
 23
-0.0599999999999996
 33
0.8900000000000002
  0
3DFACE
  5
347
  8
0
 10
-0.3699999999999979
 20
-0.0599999999999996
 30
0.9599999999999976
 11
-0.1999999999999997
 21
-0.0599999999999996
 31
0.9099999999999969
 12
-0.1000000000000014
 22
-1.1799999999999979
 32
1.1899999999999971
 13
-0.269999999999996
 23
-1.1799999999999979
 33
1.229999999999996
  0
3DFACE
  5
34B
  8
0
 10
-0.4199999999999986
 20
-0.0599999999999996
 30
1.029999999999994
 11
-0.3699999999999979
 21
-0.0599999999999996
 31
0.9599999999999976
 12
-0.269999999999996
 22
-1.1799999999999979
 32
1.229999999999996
 13
-0.3400000000000034
 23
-1.1799999999999979
 33
1.2799999999999969
  0
3DFACE
  5
365
  8
0
 10
0.0
 20
0.3000000000000007
 30
0.9
 11
0.1599999999999992
 21
0.3900000000000006
 31
0.9099999999999997
 12
0.2000000000000028
 22
-0.0599999999999978
 32
0.9099999999999969
 13
0.0
 23
-0.0599999999999996
 33
0.8900000000000002
  0
3DFACE
  5
366
  8
0
 10
0.0
 20
-0.0599999999999996
 30
0.8900000000000002
 11
-0.1999999999999997
 21
-0.0599999999999996
 31
0.9099999999999969
 12
-0.1600000000000001
 22
0.3900000000000006
 32
0.9099999999999997
 13
0.0
 23
0.3000000000000007
 33
0.9
  0
3DFACE
  5
367
  8
0
 10
0.4200000000000017
 20
-0.0599999999999978
 30
1.029999999999994
 11
0.370000000000001
 21
-0.0599999999999978
 31
0.9599999999999976
 12
0.3099999999999996
 22
0.5700000000000003
 32
0.9399999999999998
 13
0.3599999999999994
 23
0.6000000000000006
 33
0.9700000000000009
  0
3DFACE
  5
368
  8
0
 10
0.2699999999999996
 20
-0.0599999999999996
 30
1.2599999999999989
 11
0.3899999999999997
 21
-0.0599999999999996
 31
1.1899999999999991
 12
0.3899999999999997
 22
0.7400000000000003
 32
1.129999999999999
 13
0.2699999999999996
 23
0.6900000000000004
 33
1.149999999999999
  0
3DFACE
  5
369
  8
0
 10
0.2699999999999996
 20
0.6900000000000004
 30
1.149999999999999
 11
-0.2700000000000005
 21
0.6900000000000004
 31
1.149999999999999
 12
-0.2700000000000005
 22
-0.0599999999999996
 32
1.2599999999999989
 13
0.2699999999999996
 23
-0.0599999999999996
 33
1.2599999999999989
  0
3DFACE
  5
36A
  8
0
 10
-0.3100000000000005
 20
0.5700000000000003
 30
0.9399999999999998
 11
-0.1600000000000001
 21
0.3900000000000006
 31
0.9099999999999997
 12
-0.1999999999999997
 22
-0.0599999999999996
 32
0.9099999999999969
 13
-0.3699999999999979
 23
-0.0599999999999996
 33
0.9599999999999976
  0
3DFACE
  5
36B
  8
0
 10
0.370000000000001
 20
-0.0599999999999978
 30
0.9599999999999976
 11
0.2000000000000028
 21
-0.0599999999999978
 31
0.9099999999999969
 12
0.1599999999999992
 22
0.3900000000000006
 32
0.9099999999999997
 13
0.3099999999999996
 23
0.5700000000000003
 33
0.9399999999999998
  0
3DFACE
  5
36C
  8
0
 10
-0.3600000000000003
 20
0.6000000000000006
 30
0.9700000000000002
 11
-0.3100000000000005
 21
0.5700000000000003
 31
0.9399999999999998
 12
-0.3699999999999979
 22
-0.0599999999999996
 32
0.9599999999999976
 13
-0.4199999999999986
 23
-0.0599999999999996
 33
1.029999999999994
  0
3DFACE
  5
36D
  8
0
 10
-0.4000000000000004
 20
0.6800000000000006
 30
1.0600000000000001
 11
-0.3600000000000003
 21
0.6000000000000006
 31
0.9700000000000002
 12
-0.4199999999999986
 22
-0.0599999999999996
 32
1.029999999999994
 13
-0.4499999999999998
 23
-0.0599999999999996
 33
1.1099999999999961
  0
3DFACE
  5
36E
  8
0
 10
-0.3900000000000006
 20
0.7400000000000003
 30
1.129999999999999
 11
-0.4000000000000004
 21
0.6800000000000006
 31
1.0600000000000001
 12
-0.4499999999999998
 22
-0.0599999999999996
 32
1.1099999999999961
 13
-0.3900000000000006
 23
-0.0599999999999996
 33
1.1899999999999991
  0
3DFACE
  5
36F
  8
0
 10
-0.2700000000000005
 20
0.6900000000000004
 30
1.149999999999999
 11
-0.3900000000000006
 21
0.7400000000000003
 31
1.129999999999999
 12
-0.3900000000000006
 22
-0.0599999999999996
 32
1.1899999999999991
 13
-0.2700000000000005
 23
-0.0599999999999996
 33
1.2599999999999989
  0
3DFACE
  5
370
  8
0
 10
0.4500000000000029
 20
-0.0599999999999978
 30
1.1099999999999961
 11
0.4200000000000017
 21
-0.0599999999999978
 31
1.029999999999994
 12
0.3599999999999994
 22
0.6000000000000006
 32
0.9700000000000009
 13
0.3999999999999995
 23
0.6800000000000006
 33
1.0600000000000001
  0
3DFACE
  5
371
  8
0
 10
0.3899999999999997
 20
-0.0599999999999996
 30
1.1899999999999991
 11
0.4500000000000029
 21
-0.0599999999999978
 31
1.1099999999999961
 12
0.3999999999999995
 22
0.6800000000000006
 32
1.0600000000000001
 13
0.3899999999999997
 23
0.7400000000000003
 33
1.129999999999999
  0
3DFACE
  5
372
  8
0
 10
0.3899999999999997
 20
0.7400000000000003
 30
1.129999999999999
 11
-0.3900000000000006
 21
0.7400000000000003
 31
1.129999999999999
 12
-0.2700000000000005
 22
0.6900000000000004
 32
1.149999999999999
 13
0.2699999999999996
 23
0.6900000000000004
 33
1.149999999999999
  0
3DFACE
  5
373
  8
0
 10
0.3999999999999995
 20
0.6800000000000006
 30
1.0600000000000001
 11
-0.4000000000000004
 21
0.6800000000000006
 31
1.0600000000000001
 12
-0.3900000000000006
 22
0.7400000000000003
 32
1.129999999999999
 13
0.3899999999999997
 23
0.7400000000000003
 33
1.129999999999999
  0
3DFACE
  5
374
  8
0
 10
0.3599999999999994
 20
0.6000000000000006
 30
0.9700000000000009
 11
-0.3600000000000003
 21
0.6000000000000006
 31
0.9700000000000002
 12
-0.4000000000000004
 22
0.6800000000000006
 32
1.0600000000000001
 13
0.3999999999999995
 23
0.6800000000000006
 33
1.0600000000000001
  0
3DFACE
  5
375
  8
0
 10
0.3099999999999996
 20
0.5700000000000003
 30
0.9399999999999998
 11
-0.3100000000000005
 21
0.5700000000000003
 31
0.9399999999999998
 12
-0.3600000000000003
 22
0.6000000000000006
 32
0.9700000000000002
 13
0.3599999999999995
 23
0.6000000000000006
 33
0.9700000000000009
  0
3DFACE
  5
376
  8
0
 10
0.1599999999999992
 20
0.3900000000000006
 30
0.9099999999999997
 11
-0.1600000000000001
 21
0.3900000000000006
 31
0.9099999999999997
 12
-0.3100000000000005
 22
0.5700000000000003
 32
0.9399999999999991
 13
0.3099999999999998
 23
0.5700000000000003
 33
0.9399999999999998
  0
3DFACE
  5
377
  8
0
 10
0.0
 20
0.3000000000000007
 30
0.9
 11
0.0
 21
0.3000000000000007
 31
0.9
 12
-0.1600000000000001
 22
0.3900000000000006
 32
0.9099999999999997
 13
0.1599999999999992
 23
0.3900000000000006
 33
0.9099999999999997
  0
3DFACE
  5
37B
  8
0
 10
0.2599999999999998
 20
4.0999999999999996
 30
1.719999999999998
 11
0.21
 21
4.089999999999999
 31
1.6399999999999979
 12
-0.2100000000000008
 22
4.089999999999999
 32
1.6399999999999979
 13
-0.2600000000000007
 23
4.0999999999999996
 33
1.719999999999998
  0
3DFACE
  5
37C
  8
0
 10
0.4200000000000017
 20
3.5600000000000001
 30
1.659999999999999
 11
0.3500000000000014
 21
3.5600000000000001
 31
1.51
 12
0.21
 22
4.089999999999999
 32
1.6399999999999979
 13
0.2599999999999998
 23
4.0999999999999996
 33
1.719999999999998
  0
3DFACE
  5
382
  8
0
 10
0.21
 20
4.089999999999999
 30
1.6399999999999979
 11
0.1799999999999997
 21
4.0800000000000001
 31
1.5599999999999981
 12
-0.1800000000000006
 22
4.0800000000000001
 32
1.5599999999999981
 13
-0.2100000000000008
 23
4.089999999999999
 33
1.6399999999999979
  0
3DFACE
  5
384
  8
0
 10
0.3500000000000014
 20
3.5600000000000001
 30
1.51
 11
0.2600000000000016
 21
3.5600000000000001
 31
1.4299999999999979
 12
0.1799999999999997
 22
4.0800000000000001
 32
1.5599999999999981
 13
0.21
 23
4.089999999999999
 33
1.6399999999999979
  0
3DFACE
  5
388
  8
0
 10
-0.0000000000000009
 20
4.04
 30
1.4799999999999991
 11
0.1199999999999992
 21
4.0700000000000003
 31
1.509999999999998
 12
0.1500000000000021
 22
3.5600000000000001
 32
1.3799999999999979
 13
-0.0000000000000009
 23
3.5600000000000001
 33
1.3500000000000001
  0
3DFACE
  5
38A
  8
0
 10
0.1799999999999997
 20
4.0800000000000001
 30
1.5599999999999981
 11
0.1199999999999992
 21
4.0700000000000003
 31
1.509999999999998
 12
-0.1200000000000001
 22
4.0700000000000003
 32
1.509999999999998
 13
-0.1800000000000006
 23
4.0800000000000001
 33
1.5599999999999981
  0
3DFACE
  5
38B
  8
0
 10
0.2600000000000016
 20
3.5600000000000001
 30
1.4299999999999979
 11
0.1500000000000021
 21
3.5600000000000001
 31
1.3799999999999979
 12
0.1199999999999992
 22
4.0700000000000003
 32
1.509999999999998
 13
0.1799999999999997
 23
4.0800000000000001
 33
1.5599999999999981
  0
3DFACE
  5
38F
  8
0
 10
-0.0000000000000009
 20
3.5600000000000001
 30
1.3500000000000001
 11
-0.1500000000000021
 21
3.5600000000000001
 31
1.3799999999999979
 12
-0.1200000000000001
 22
4.0700000000000003
 32
1.509999999999998
 13
-0.0000000000000009
 23
4.04
 33
1.4799999999999991
  0
3DFACE
  5
391
  8
0
 10
-0.1800000000000006
 20
4.0800000000000001
 30
1.5599999999999981
 11
-0.1200000000000001
 21
4.0700000000000003
 31
1.509999999999998
 12
-0.1500000000000021
 22
3.5600000000000001
 32
1.3799999999999979
 13
-0.2600000000000016
 23
3.5600000000000001
 33
1.4299999999999979
  0
3DFACE
  5
393
  8
0
 10
-0.2100000000000008
 20
4.089999999999999
 30
1.6399999999999979
 11
-0.1800000000000006
 21
4.0800000000000001
 31
1.5599999999999981
 12
-0.2600000000000016
 22
3.5600000000000001
 32
1.4299999999999979
 13
-0.3500000000000014
 23
3.5600000000000001
 33
1.5099999999999969
  0
3DFACE
  5
399
  8
0
 10
-0.2600000000000007
 20
4.0999999999999996
 30
1.719999999999998
 11
-0.2100000000000008
 21
4.089999999999999
 31
1.6399999999999979
 12
-0.3500000000000014
 22
3.5600000000000001
 32
1.5099999999999969
 13
-0.4200000000000017
 23
3.5600000000000001
 33
1.659999999999999
  0
3DFACE
  5
3A4
  8
0
 10
0.1199999999999992
 20
4.0700000000000003
 30
1.509999999999998
 11
-0.0000000000000009
 21
4.04
 31
1.4799999999999991
 12
-0.0000000000000009
 22
4.04
 32
1.4799999999999991
 13
-0.1200000000000001
 23
4.0700000000000003
 33
1.509999999999998
  0
3DFACE
  5
3AB
  8
0
 10
0.0700000000000003
 20
-4.2400000000000011
 30
2.7400000000000002
 11
0.0200000000000005
 21
-4.2400000000000011
 31
2.25
 12
0.0099999999999998
 22
-1.6899999999999999
 32
2.2699999999999991
 13
0.0600000000000001
 23
-3.5600000000000009
 33
2.7400000000000002
  0
3DFACE
  5
3AE
  8
0
 10
0.0600000000000001
 20
-3.5600000000000009
 30
2.7400000000000002
 11
0.0099999999999998
 21
-1.6899999999999999
 31
2.2699999999999991
 12
0.0000000000000018
 22
-1.389999999999999
 32
2.2699999999999991
 13
0.0000000000000018
 23
-3.3599999999999999
 33
2.7400000000000002
  0
3DFACE
  5
3B2
  8
0
 10
0.0600000000000001
 20
-4.7400000000000011
 30
2.7400000000000002
 11
0.0099999999999998
 21
-4.7499999999999991
 31
2.2299999999999991
 12
0.0200000000000005
 22
-4.2400000000000011
 32
2.25
 13
0.0700000000000003
 23
-4.2400000000000011
 33
2.7400000000000002
  0
3DFACE
  5
3B5
  8
0
 10
0.0000000000000009
 20
-4.8399999999999981
 30
2.7400000000000002
 11
0.0000000000000009
 21
-4.919999999999999
 31
2.2599999999999989
 12
0.0099999999999998
 22
-4.7499999999999991
 32
2.2299999999999991
 13
0.0600000000000001
 23
-4.7400000000000011
 33
2.7400000000000002
  0
3DFACE
  5
3B9
  8
0
 10
0.0700000000000003
 20
-4.2400000000000011
 30
2.8099999999999978
 11
0.0700000000000003
 21
-4.2400000000000011
 31
2.7400000000000002
 12
0.0600000000000001
 22
-3.5600000000000009
 32
2.7400000000000002
 13
0.0600000000000001
 23
-3.6599999999999988
 33
2.8099999999999978
  0
3DFACE
  5
3BD
  8
0
 10
0.0600000000000001
 20
-3.6599999999999988
 30
2.8099999999999978
 11
0.0600000000000001
 21
-3.5600000000000009
 31
2.7400000000000002
 12
0.0000000000000018
 22
-3.3599999999999999
 32
2.7400000000000002
 13
0.0000000000000018
 23
-3.4599999999999991
 33
2.8099999999999978
  0
3DFACE
  5
3C2
  8
0
 10
0.0700000000000003
 20
-4.2400000000000011
 30
2.879999999999999
 11
0.0700000000000003
 21
-4.2400000000000011
 31
2.8099999999999978
 12
0.0600000000000001
 22
-3.6599999999999988
 32
2.8099999999999978
 13
0.0600000000000001
 23
-3.7200000000000011
 33
2.879999999999999
  0
3DFACE
  5
3C3
  8
0
 10
0.0600000000000001
 20
-3.7200000000000011
 30
2.879999999999999
 11
0.0600000000000001
 21
-3.6599999999999988
 31
2.8099999999999978
 12
0.0000000000000018
 22
-3.4599999999999991
 32
2.8099999999999978
 13
0.0000000000000018
 23
-3.52
 33
2.879999999999999
  0
3DFACE
  5
3C7
  8
0
 10
0.0600000000000001
 20
-4.7299999999999986
 30
2.8099999999999978
 11
0.0600000000000001
 21
-4.7400000000000011
 31
2.7400000000000002
 12
0.0700000000000003
 22
-4.2400000000000011
 32
2.7400000000000002
 13
0.0700000000000003
 23
-4.2400000000000011
 33
2.8099999999999978
  0
3DFACE
  5
3C8
  8
0
 10
0.0000000000000009
 20
-4.8299999999999992
 30
2.8099999999999978
 11
0.0000000000000009
 21
-4.8399999999999981
 31
2.7400000000000002
 12
0.0600000000000001
 22
-4.7400000000000011
 32
2.7400000000000002
 13
0.0600000000000001
 23
-4.7299999999999986
 33
2.8099999999999978
  0
3DFACE
  5
3CE
  8
0
 10
0.0600000000000001
 20
-4.7099999999999991
 30
2.879999999999999
 11
0.0600000000000001
 21
-4.7299999999999986
 31
2.8099999999999978
 12
0.0700000000000003
 22
-4.2400000000000011
 32
2.8099999999999978
 13
0.0700000000000003
 23
-4.2400000000000011
 33
2.879999999999999
  0
3DFACE
  5
3D1
  8
0
 10
0.0000000000000018
 20
-4.8099999999999987
 30
2.879999999999999
 11
0.0000000000000009
 21
-4.8299999999999992
 31
2.8099999999999978
 12
0.0600000000000001
 22
-4.7299999999999986
 32
2.8099999999999978
 13
0.0600000000000001
 23
-4.7099999999999991
 33
2.879999999999999
  0
3DFACE
  5
3D5
  8
0
 10
0.0500000000000007
 20
-4.2400000000000011
 30
3.609999999999999
 11
0.0700000000000003
 21
-4.2400000000000011
 31
2.879999999999999
 12
0.0600000000000001
 22
-3.7200000000000011
 32
2.879999999999999
 13
0.04
 23
-4.0699999999999994
 33
3.609999999999999
  0
3DFACE
  5
3D9
  8
0
 10
0.04
 20
-4.0699999999999994
 30
3.609999999999999
 11
0.0600000000000001
 21
-3.7200000000000011
 31
2.879999999999999
 12
0.0000000000000018
 22
-3.52
 32
2.879999999999999
 13
0.0000000000000018
 23
-3.8700000000000001
 33
3.609999999999999
  0
3DFACE
  5
3DE
  8
0
 10
0.04
 20
-4.5800000000000001
 30
3.609999999999999
 11
0.0600000000000001
 21
-4.7099999999999991
 31
2.879999999999999
 12
0.0700000000000003
 22
-4.2400000000000011
 32
2.879999999999999
 13
0.0500000000000007
 23
-4.2400000000000011
 33
3.609999999999999
  0
3DFACE
  5
3DF
  8
0
 10
0.0000000000000018
 20
-4.6799999999999997
 30
3.609999999999999
 11
0.0000000000000018
 21
-4.8099999999999987
 31
2.879999999999999
 12
0.0600000000000001
 22
-4.7099999999999991
 32
2.879999999999999
 13
0.04
 23
-4.5800000000000001
 33
3.609999999999999
  0
3DFACE
  5
3E3
  8
0
 10
0.04
 20
-4.2400000000000011
 30
3.71
 11
0.0500000000000007
 21
-4.2400000000000011
 31
3.609999999999999
 12
0.04
 22
-4.0699999999999994
 32
3.609999999999999
 13
0.0299999999999998
 23
-4.1200000000000001
 33
3.71
  0
3DFACE
  5
3E7
  8
0
 10
0.0299999999999998
 20
-4.1200000000000001
 30
3.71
 11
0.04
 21
-4.0699999999999994
 31
3.609999999999999
 12
0.0000000000000018
 22
-3.8700000000000001
 32
3.609999999999999
 13
0.0000000000000018
 23
-3.919999999999999
 33
3.71
  0
3DFACE
  5
3EB
  8
0
 10
0.0200000000000005
 20
-4.2400000000000011
 30
3.7699999999999991
 11
0.04
 21
-4.2400000000000011
 31
3.71
 12
0.0299999999999998
 22
-4.1200000000000001
 32
3.71
 13
0.0300000000000003
 23
-4.2200000000000006
 33
3.7599999999999989
  0
3DFACE
  5
3ED
  8
0
 10
0.0300000000000003
 20
-4.2200000000000006
 30
3.7599999999999989
 11
0.0299999999999998
 21
-4.1200000000000001
 31
3.71
 12
0.0000000000000018
 22
-3.919999999999999
 32
3.71
 13
0.0000000000000018
 23
-4.0199999999999996
 33
3.7599999999999989
  0
3DFACE
  5
3EF
  8
0
 10
0.0000000000000018
 20
-4.0199999999999996
 30
3.7599999999999989
 11
0.0000000000000018
 21
-4.2399999999999993
 31
3.7699999999999991
 12
0.0200000000000005
 22
-4.2400000000000011
 32
3.7699999999999991
 13
0.0300000000000003
 23
-4.2200000000000006
 33
3.7599999999999989
  0
3DFACE
  5
3F1
  8
0
 10
0.0299999999999998
 20
-4.5200000000000022
 30
3.71
 11
0.04
 21
-4.5800000000000001
 31
3.609999999999999
 12
0.0500000000000007
 22
-4.2400000000000011
 32
3.609999999999999
 13
0.04
 23
-4.2400000000000011
 33
3.71
  0
3DFACE
  5
3F2
  8
0
 10
0.0000000000000018
 20
-4.6200000000000001
 30
3.71
 11
0.0000000000000018
 21
-4.6799999999999997
 31
3.609999999999999
 12
0.04
 22
-4.5800000000000001
 32
3.609999999999999
 13
0.0299999999999998
 23
-4.5200000000000022
 33
3.71
  0
3DFACE
  5
3F8
  8
0
 10
0.0299999999999998
 20
-4.4400000000000004
 30
3.7400000000000002
 11
0.0299999999999998
 21
-4.5200000000000022
 31
3.71
 12
0.04
 22
-4.2400000000000011
 32
3.71
 13
0.0200000000000005
 23
-4.2400000000000011
 33
3.7699999999999991
  0
3DFACE
  5
3F9
  8
0
 10
0.0000000000000018
 20
-4.54
 30
3.7400000000000002
 11
0.0000000000000018
 21
-4.6200000000000001
 31
3.71
 12
0.0299999999999998
 22
-4.5200000000000022
 32
3.71
 13
0.0299999999999998
 23
-4.4400000000000004
 33
3.7400000000000002
  0
3DFACE
  5
3FD
  8
0
 10
0.0000000000000018
 20
-4.2399999999999993
 30
3.7699999999999991
 11
0.0000000000000018
 21
-4.54
 31
3.7400000000000002
 12
0.0299999999999998
 22
-4.4400000000000004
 32
3.7400000000000002
 13
0.0200000000000005
 23
-4.2400000000000011
 33
3.7699999999999991
  0
3DFACE
  5
3FF
  8
0
 10
-0.0499999999999989
 20
-4.2399999999999993
 30
3.609999999999999
 11
-0.0699999999999994
 21
-4.2399999999999993
 31
2.879999999999999
 12
-0.0600000000000001
 22
-3.7199999999999989
 32
2.879999999999999
 13
-0.04
 23
-4.0699999999999994
 33
3.609999999999999
  0
3DFACE
  5
400
  8
0
 10
0.0000000000000018
 20
-3.8700000000000001
 30
3.609999999999999
 11
0.0000000000000018
 21
-3.52
 31
2.879999999999999
 12
-0.0600000000000001
 22
-3.7199999999999989
 32
2.879999999999999
 13
-0.04
 23
-4.0699999999999994
 33
3.609999999999999
  0
3DFACE
  5
401
  8
0
 10
-0.0699999999999994
 20
-4.2399999999999993
 30
2.879999999999999
 11
-0.0699999999999994
 21
-4.2399999999999993
 31
2.8099999999999978
 12
-0.0600000000000001
 22
-3.6599999999999988
 32
2.8099999999999978
 13
-0.0600000000000001
 23
-3.7199999999999989
 33
2.879999999999999
  0
3DFACE
  5
402
  8
0
 10
-0.0699999999999994
 20
-4.2399999999999993
 30
2.8099999999999978
 11
-0.0699999999999994
 21
-4.2399999999999993
 31
2.7400000000000002
 12
-0.0600000000000001
 22
-3.5599999999999992
 32
2.7400000000000002
 13
-0.0600000000000001
 23
-3.6599999999999988
 33
2.8099999999999978
  0
3DFACE
  5
403
  8
0
 10
-0.0699999999999994
 20
-4.2399999999999993
 30
2.7400000000000002
 11
-0.0199999999999996
 21
-4.2399999999999993
 31
2.25
 12
-0.0100000000000002
 22
-1.6899999999999999
 32
2.2699999999999991
 13
-0.0600000000000001
 23
-3.5599999999999992
 33
2.7400000000000002
  0
3DFACE
  5
404
  8
0
 10
-0.0300000000000003
 20
-4.5199999999999996
 30
3.71
 11
-0.04
 21
-4.5799999999999992
 31
3.609999999999999
 12
-0.0499999999999989
 22
-4.2399999999999993
 32
3.609999999999999
 13
-0.04
 23
-4.2399999999999993
 33
3.71
  0
3DFACE
  5
405
  8
0
 10
-0.0300000000000003
 20
-4.5199999999999996
 30
3.71
 11
-0.04
 21
-4.5799999999999992
 31
3.609999999999999
 12
0.0000000000000018
 22
-4.6799999999999997
 32
3.609999999999999
 13
0.0000000000000018
 23
-4.6200000000000001
 33
3.71
  0
3DFACE
  5
406
  8
0
 10
-0.04
 20
-4.2399999999999993
 30
3.71
 11
-0.0499999999999989
 21
-4.2399999999999993
 31
3.609999999999999
 12
-0.04
 22
-4.0699999999999994
 32
3.609999999999999
 13
-0.0300000000000003
 23
-4.1200000000000001
 33
3.71
  0
3DFACE
  5
407
  8
0
 10
0.0000000000000018
 20
-3.919999999999999
 30
3.71
 11
0.0000000000000018
 21
-3.8700000000000001
 31
3.609999999999999
 12
-0.04
 22
-4.0699999999999994
 32
3.609999999999999
 13
-0.0300000000000003
 23
-4.1200000000000001
 33
3.71
  0
3DFACE
  5
408
  8
0
 10
-0.0600000000000001
 20
-4.7399999999999993
 30
2.7400000000000002
 11
-0.0100000000000002
 21
-4.7499999999999991
 31
2.2299999999999991
 12
-0.0199999999999996
 22
-4.2399999999999993
 32
2.25
 13
-0.0699999999999994
 23
-4.2399999999999993
 33
2.7400000000000002
  0
3DFACE
  5
409
  8
0
 10
-0.0600000000000001
 20
-4.7399999999999993
 30
2.7400000000000002
 11
-0.0100000000000002
 21
-4.7499999999999991
 31
2.2299999999999991
 12
0.0000000000000009
 22
-4.919999999999999
 32
2.2599999999999989
 13
0.0000000000000009
 23
-4.8399999999999981
 33
2.7400000000000002
  0
3DFACE
  5
40A
  8
0
 10
-0.04
 20
-4.5799999999999992
 30
3.609999999999999
 11
-0.0600000000000001
 21
-4.7099999999999991
 31
2.879999999999999
 12
-0.0699999999999994
 22
-4.2399999999999993
 32
2.879999999999999
 13
-0.0499999999999989
 23
-4.2399999999999993
 33
3.609999999999999
  0
3DFACE
  5
40B
  8
0
 10
-0.04
 20
-4.5799999999999992
 30
3.609999999999999
 11
-0.0600000000000001
 21
-4.7099999999999991
 31
2.879999999999999
 12
0.0000000000000018
 22
-4.8099999999999987
 32
2.879999999999999
 13
0.0000000000000018
 23
-4.6799999999999997
 33
3.609999999999999
  0
3DFACE
  5
40C
  8
0
 10
-0.0600000000000001
 20
-4.7099999999999991
 30
2.879999999999999
 11
-0.0600000000000001
 21
-4.7299999999999986
 31
2.8099999999999978
 12
0.0000000000000009
 22
-4.8299999999999992
 32
2.8099999999999978
 13
0.0000000000000018
 23
-4.8099999999999987
 33
2.879999999999999
  0
3DFACE
  5
40D
  8
0
 10
-0.0600000000000001
 20
-4.7099999999999991
 30
2.879999999999999
 11
-0.0600000000000001
 21
-4.7299999999999986
 31
2.8099999999999978
 12
-0.0699999999999994
 22
-4.2399999999999993
 32
2.8099999999999978
 13
-0.0699999999999994
 23
-4.2399999999999993
 33
2.879999999999999
  0
3DFACE
  5
40E
  8
0
 10
-0.0600000000000001
 20
-4.7299999999999986
 30
2.8099999999999978
 11
-0.0600000000000001
 21
-4.7399999999999993
 31
2.7400000000000002
 12
-0.0699999999999994
 22
-4.2399999999999993
 32
2.7400000000000002
 13
-0.0699999999999994
 23
-4.2399999999999993
 33
2.8099999999999978
  0
3DFACE
  5
40F
  8
0
 10
-0.0600000000000001
 20
-4.7299999999999986
 30
2.8099999999999978
 11
-0.0600000000000001
 21
-4.7399999999999993
 31
2.7400000000000002
 12
0.0000000000000009
 22
-4.8399999999999981
 32
2.7400000000000002
 13
0.0000000000000009
 23
-4.8299999999999992
 33
2.8099999999999978
  0
3DFACE
  5
410
  8
0
 10
-0.0199999999999996
 20
-4.2399999999999993
 30
3.7699999999999991
 11
-0.04
 21
-4.2399999999999993
 31
3.71
 12
-0.0300000000000003
 22
-4.1200000000000001
 32
3.71
 13
-0.0299999999999994
 23
-4.2199999999999989
 33
3.7599999999999989
  0
3DFACE
  5
411
  8
0
 10
-0.0299999999999994
 20
-4.2199999999999989
 30
3.7599999999999989
 11
-0.0199999999999996
 21
-4.2399999999999993
 31
3.7699999999999991
 12
0.0000000000000018
 22
-4.2399999999999993
 32
3.7699999999999991
 13
0.0000000000000018
 23
-4.0199999999999996
 33
3.7599999999999989
  0
3DFACE
  5
412
  8
0
 10
0.0000000000000018
 20
-4.0199999999999996
 30
3.7599999999999989
 11
0.0000000000000018
 21
-3.919999999999999
 31
3.71
 12
-0.0300000000000003
 22
-4.1200000000000001
 32
3.71
 13
-0.0299999999999994
 23
-4.2199999999999989
 33
3.7599999999999989
  0
3DFACE
  5
413
  8
0
 10
-0.0300000000000003
 20
-4.4400000000000004
 30
3.7400000000000002
 11
-0.0300000000000003
 21
-4.5199999999999996
 31
3.71
 12
-0.04
 22
-4.2399999999999993
 32
3.71
 13
-0.0199999999999996
 23
-4.2399999999999993
 33
3.7699999999999991
  0
3DFACE
  5
414
  8
0
 10
-0.0199999999999996
 20
-4.2399999999999993
 30
3.7699999999999991
 11
-0.0300000000000003
 21
-4.4400000000000004
 31
3.7400000000000002
 12
0.0000000000000018
 22
-4.54
 32
3.7400000000000002
 13
0.0000000000000018
 23
-4.2399999999999993
 33
3.7699999999999991
  0
3DFACE
  5
415
  8
0
 10
-0.0300000000000003
 20
-4.4400000000000004
 30
3.7400000000000002
 11
-0.0300000000000003
 21
-4.5199999999999996
 31
3.71
 12
0.0000000000000018
 22
-4.6200000000000001
 32
3.71
 13
0.0000000000000018
 23
-4.54
 33
3.7400000000000002
  0
3DFACE
  5
416
  8
0
 10
0.0000000000000018
 20
-3.3599999999999999
 30
2.7400000000000002
 11
0.0000000000000018
 21
-1.389999999999999
 31
2.2699999999999991
 12
-0.0100000000000002
 22
-1.6899999999999999
 32
2.2699999999999991
 13
-0.0600000000000001
 23
-3.5599999999999992
 33
2.7400000000000002
  0
3DFACE
  5
417
  8
0
 10
0.0000000000000018
 20
-3.52
 30
2.879999999999999
 11
0.0000000000000018
 21
-3.4599999999999991
 31
2.8099999999999978
 12
-0.0600000000000001
 22
-3.6599999999999988
 32
2.8099999999999978
 13
-0.0600000000000001
 23
-3.7199999999999989
 33
2.879999999999999
  0
3DFACE
  5
418
  8
0
 10
0.0000000000000018
 20
-3.4599999999999991
 30
2.8099999999999978
 11
0.0000000000000018
 21
-3.3599999999999999
 31
2.7400000000000002
 12
-0.0600000000000001
 22
-3.5599999999999992
 32
2.7400000000000002
 13
-0.0600000000000001
 23
-3.6599999999999988
 33
2.8099999999999978
  0
3DFACE
  5
5A6
  8
0
 10
-0.1499999999999986
 20
0.5700000000000003
 30
2.9599999999999991
 11
-0.1000000000000014
 21
-0.0499999999999998
 31
2.910000000000001
 12
0.0
 22
-0.0499999999999998
 32
2.9300000000000002
 13
0.0000000000000018
 23
0.5700000000000003
 33
3.0000000000000022
  0
3DFACE
  5
5A7
  8
0
 10
-0.25
 20
0.5700000000000003
 30
2.8600000000000012
 11
-0.1900000000000013
 21
-0.0499999999999998
 31
2.8399999999999999
 12
-0.1000000000000014
 22
-0.0499999999999998
 32
2.910000000000001
 13
-0.1499999999999986
 23
0.5700000000000003
 33
2.9599999999999991
  0
3DFACE
  5
5AE
  8
0
 10
-0.3099999999999987
 20
0.5700000000000003
 30
2.7299999999999982
 11
-0.25
 21
-0.0499999999999998
 31
2.7300000000000009
 12
-0.1900000000000013
 22
-0.0499999999999998
 32
2.8399999999999999
 13
-0.25
 23
0.5700000000000003
 33
2.8600000000000012
  0
3DFACE
  5
5B1
  8
0
 10
-0.3199999999999985
 20
0.5700000000000003
 30
2.6100000000000012
 11
-0.2699999999999996
 21
-0.0499999999999998
 31
2.639999999999997
 12
-0.25
 22
-0.0499999999999998
 32
2.7300000000000009
 13
-0.3099999999999987
 23
0.5700000000000003
 33
2.7299999999999982
  0
3DFACE
  5
5BB
  8
0
 10
-0.3499999999999996
 20
0.5700000000000003
 30
2.3300000000000001
 11
-0.3000000000000007
 21
-0.0499999999999998
 31
2.4500000000000002
 12
-0.2699999999999996
 22
-0.0499999999999998
 32
2.639999999999997
 13
-0.3199999999999985
 23
0.5700000000000003
 33
2.6100000000000012
  0
3DFACE
  5
5C1
  8
0
 10
0.1100000000000012
 20
1.2
 30
2.7400000000000002
 11
0.1900000000000013
 21
1.24
 31
2.7000000000000011
 12
-0.1899999999999995
 22
1.24
 32
2.7000000000000011
 13
-0.1099999999999994
 23
1.2
 33
2.7400000000000002
  0
3DFACE
  5
5C2
  8
0
 10
-0.1899999999999995
 20
1.24
 30
2.7000000000000011
 11
-0.1899999999999995
 21
1.169999999999999
 31
2.7000000000000011
 12
-0.1099999999999994
 22
1.169999999999999
 32
2.7599999999999989
 13
-0.1099999999999994
 23
1.2
 33
2.7400000000000002
  0
3DFACE
  5
5C5
  8
0
 10
-0.2899999999999991
 20
1.4599999999999991
 30
2.4899999999999962
 11
-0.2899999999999991
 21
1.169999999999999
 31
2.4899999999999962
 12
-0.2899999999999991
 22
1.169999999999999
 32
2.549999999999998
 13
-0.2899999999999991
 23
1.4299999999999999
 33
2.549999999999998
  0
3DFACE
  5
5CD
  8
0
 10
-0.2899999999999991
 20
1.4299999999999999
 30
2.549999999999998
 11
-0.2899999999999991
 21
1.169999999999999
 31
2.549999999999998
 12
-0.2599999999999998
 22
1.169999999999999
 32
2.6100000000000012
 13
-0.2599999999999998
 23
1.3799999999999999
 33
2.6100000000000012
  0
3DFACE
  5
5D3
  8
0
 10
-0.2599999999999998
 20
1.3799999999999999
 30
2.6100000000000012
 11
-0.2599999999999998
 21
1.169999999999999
 31
2.6100000000000012
 12
-0.1899999999999995
 22
1.169999999999999
 32
2.7000000000000011
 13
-0.1899999999999995
 23
1.24
 33
2.7000000000000011
  0
3DFACE
  5
5DE
  8
0
 10
-0.2899999999999991
 20
1.169999999999999
 30
2.549999999999998
 11
-0.3199999999999985
 21
0.5700000000000003
 31
2.6100000000000012
 12
-0.3099999999999987
 22
0.5700000000000003
 32
2.7299999999999982
 13
-0.2599999999999998
 23
1.169999999999999
 33
2.6100000000000012
  0
3DFACE
  5
5E5
  8
0
 10
-0.2899999999999991
 20
1.169999999999999
 30
2.4899999999999962
 11
-0.3499999999999996
 21
0.5700000000000003
 31
2.3300000000000001
 12
-0.3199999999999985
 22
0.5700000000000003
 32
2.6100000000000012
 13
-0.2899999999999991
 23
1.169999999999999
 33
2.549999999999998
  0
3DFACE
  5
5F0
  8
0
 10
-0.2599999999999998
 20
1.169999999999999
 30
2.6100000000000012
 11
-0.3099999999999987
 21
0.5700000000000003
 31
2.7299999999999982
 12
-0.25
 22
0.5700000000000003
 32
2.8600000000000012
 13
-0.1899999999999995
 23
1.169999999999999
 33
2.7000000000000011
  0
3DFACE
  5
5F1
  8
0
 10
-0.1899999999999995
 20
1.169999999999999
 30
2.7000000000000011
 11
-0.25
 21
0.5700000000000003
 31
2.8600000000000012
 12
-0.1499999999999986
 22
0.5700000000000003
 32
2.9599999999999991
 13
-0.1099999999999994
 23
1.169999999999999
 33
2.7599999999999989
  0
3DFACE
  5
5F2
  8
0
 10
-0.1099999999999994
 20
1.169999999999999
 30
2.7599999999999989
 11
-0.1499999999999986
 21
0.5700000000000003
 31
2.9599999999999991
 12
0.0000000000000018
 22
0.5700000000000003
 32
3.0000000000000009
 13
0.0000000000000018
 23
1.169999999999999
 33
2.7599999999999989
  0
3DFACE
  5
5F9
  8
0
 10
0.1900000000000013
 20
1.1699999999999999
 30
2.7000000000000011
 11
0.1900000000000013
 21
1.24
 31
2.7000000000000011
 12
0.1100000000000012
 22
1.2
 32
2.7400000000000002
 13
0.1100000000000012
 23
1.1699999999999999
 33
2.7599999999999989
  0
3DFACE
  5
5FE
  8
0
 10
0.2900000000000009
 20
1.4299999999999999
 30
2.549999999999998
 11
0.2900000000000009
 21
1.4599999999999991
 31
2.4899999999999962
 12
-0.2899999999999991
 22
1.4599999999999991
 32
2.4899999999999962
 13
-0.2899999999999991
 23
1.4299999999999999
 33
2.549999999999998
  0
3DFACE
  5
601
  8
0
 10
0.2600000000000016
 20
1.3799999999999999
 30
2.6100000000000012
 11
0.2900000000000009
 21
1.4299999999999999
 31
2.549999999999998
 12
-0.2899999999999991
 22
1.4299999999999999
 32
2.549999999999998
 13
-0.2599999999999998
 23
1.3799999999999999
 33
2.6100000000000012
  0
3DFACE
  5
604
  8
0
 10
0.1900000000000013
 20
1.24
 30
2.7000000000000011
 11
0.2600000000000016
 21
1.3799999999999999
 31
2.6100000000000012
 12
-0.2599999999999998
 22
1.3799999999999999
 32
2.6100000000000012
 13
-0.1899999999999995
 23
1.24
 33
2.7000000000000011
  0
3DFACE
  5
608
  8
0
 10
0.2900000000000009
 20
1.1699999999999999
 30
2.4899999999999962
 11
0.2900000000000009
 21
1.4599999999999991
 31
2.4899999999999962
 12
0.2900000000000009
 22
1.4299999999999999
 32
2.549999999999998
 13
0.2900000000000009
 23
1.1699999999999999
 33
2.549999999999998
  0
3DFACE
  5
609
  8
0
 10
0.2900000000000009
 20
1.1699999999999999
 30
2.549999999999998
 11
0.2900000000000009
 21
1.4299999999999999
 31
2.549999999999998
 12
0.2600000000000016
 22
1.3799999999999999
 32
2.6100000000000012
 13
0.2600000000000016
 23
1.1699999999999999
 33
2.6100000000000012
  0
3DFACE
  5
60A
  8
0
 10
0.2600000000000016
 20
1.1699999999999999
 30
2.6100000000000012
 11
0.2600000000000016
 21
1.3799999999999999
 31
2.6100000000000012
 12
0.1900000000000013
 22
1.24
 32
2.7000000000000011
 13
0.1900000000000013
 23
1.1699999999999999
 33
2.7000000000000011
  0
3DFACE
  5
60E
  8
0
 10
0.1100000000000012
 20
1.1699999999999999
 30
2.7599999999999989
 11
0.1100000000000012
 21
1.2
 31
2.7400000000000002
 12
-0.1099999999999994
 22
1.2
 32
2.7400000000000002
 13
-0.1099999999999994
 23
1.169999999999999
 33
2.7599999999999989
  0
3DFACE
  5
614
  8
0
 10
0.3100000000000005
 20
0.5700000000000003
 30
2.7299999999999982
 11
0.2600000000000016
 21
1.1699999999999999
 31
2.6100000000000012
 12
0.1900000000000013
 22
1.1699999999999999
 32
2.7000000000000011
 13
0.2500000000000018
 23
0.5700000000000003
 33
2.8600000000000012
  0
3DFACE
  5
61B
  8
0
 10
0.3200000000000003
 20
0.5700000000000003
 30
2.6100000000000012
 11
0.2900000000000009
 21
1.1699999999999999
 31
2.549999999999998
 12
0.2600000000000016
 22
1.1699999999999999
 32
2.6100000000000012
 13
0.3100000000000005
 23
0.5700000000000003
 33
2.7299999999999982
  0
3DFACE
  5
621
  8
0
 10
0.3500000000000014
 20
0.5700000000000003
 30
2.3300000000000001
 11
0.2900000000000009
 21
1.1699999999999999
 31
2.4899999999999962
 12
0.2900000000000009
 22
1.1699999999999999
 32
2.549999999999998
 13
0.3200000000000003
 23
0.5700000000000003
 33
2.6100000000000012
  0
3DFACE
  5
627
  8
0
 10
0.2500000000000018
 20
0.5700000000000003
 30
2.8600000000000012
 11
0.1900000000000013
 21
1.1699999999999999
 31
2.7000000000000011
 12
0.1100000000000012
 22
1.1699999999999999
 32
2.7599999999999989
 13
0.1500000000000003
 23
0.5700000000000003
 33
2.9599999999999991
  0
3DFACE
  5
628
  8
0
 10
0.1500000000000003
 20
0.5700000000000003
 30
2.9599999999999991
 11
0.1100000000000012
 21
1.1699999999999999
 31
2.7599999999999989
 12
0.0000000000000018
 22
1.169999999999999
 32
2.7599999999999989
 13
0.0000000000000018
 23
0.5700000000000003
 33
3.0000000000000009
  0
3DFACE
  5
630
  8
0
 10
0.25
 20
-0.0499999999999989
 30
2.7300000000000009
 11
0.3100000000000005
 21
0.5700000000000003
 31
2.7299999999999982
 12
0.2500000000000018
 22
0.5700000000000003
 32
2.8600000000000012
 13
0.1900000000000013
 23
-0.0499999999999989
 33
2.8399999999999999
  0
3DFACE
  5
637
  8
0
 10
0.2699999999999996
 20
-0.0499999999999989
 30
2.639999999999997
 11
0.3200000000000003
 21
0.5700000000000003
 31
2.6100000000000012
 12
0.3100000000000005
 22
0.5700000000000003
 32
2.7299999999999982
 13
0.25
 23
-0.0499999999999989
 33
2.7300000000000009
  0
3DFACE
  5
63D
  8
0
 10
0.3000000000000007
 20
-0.0499999999999989
 30
2.4500000000000002
 11
0.3500000000000014
 21
0.5700000000000003
 31
2.3300000000000001
 12
0.3200000000000003
 22
0.5700000000000003
 32
2.6100000000000012
 13
0.2699999999999996
 23
-0.0499999999999989
 33
2.639999999999997
  0
3DFACE
  5
643
  8
0
 10
0.1900000000000013
 20
-0.0499999999999989
 30
2.8399999999999999
 11
0.2500000000000018
 21
0.5700000000000003
 31
2.8600000000000012
 12
0.1500000000000003
 22
0.5700000000000003
 32
2.9599999999999991
 13
0.1000000000000014
 23
-0.0499999999999989
 33
2.910000000000001
  0
3DFACE
  5
644
  8
0
 10
0.1000000000000014
 20
-0.0499999999999989
 30
2.910000000000001
 11
0.1500000000000003
 21
0.5700000000000003
 31
2.9599999999999991
 12
0.0000000000000018
 22
0.5700000000000003
 32
3.0000000000000022
 13
0.0
 23
-0.0499999999999998
 33
2.9300000000000002
  0
3DFACE
  5
64C
  8
0
 10
0.0
 20
-0.8599999999999994
 30
2.6200000000000001
 11
0.2500000000000018
 21
-0.0499999999999963
 31
2.7300000000000009
 12
0.190000000000003
 22
-0.0499999999999963
 32
2.8399999999999999
 13
0.0
 23
-0.6699999999999973
 33
2.7099999999999991
  0
3DFACE
  5
64D
  8
0
 10
-0.2499999999999982
 20
-0.0499999999999981
 30
2.7300000000000009
 11
0.0
 21
-0.8599999999999994
 31
2.6200000000000001
 12
0.0
 22
-0.6699999999999973
 32
2.7099999999999991
 13
-0.1899999999999995
 23
-0.0499999999999981
 33
2.8399999999999999
  0
3DFACE
  5
651
  8
0
 10
0.0
 20
-0.9299999999999997
 30
2.5299999999999998
 11
0.2700000000000013
 21
-0.0499999999999963
 31
2.639999999999997
 12
0.2500000000000018
 22
-0.0499999999999963
 32
2.7300000000000009
 13
0.0
 23
-0.8599999999999994
 33
2.6200000000000001
  0
3DFACE
  5
652
  8
0
 10
-0.2699999999999978
 20
-0.0499999999999981
 30
2.639999999999997
 11
0.0
 21
-0.9299999999999997
 31
2.5299999999999998
 12
0.0
 22
-0.8599999999999994
 32
2.6200000000000001
 13
-0.2499999999999982
 23
-0.0499999999999981
 33
2.7300000000000009
  0
3DFACE
  5
654
  8
0
 10
0.0
 20
-0.4699999999999998
 30
2.8099999999999992
 11
0.1000000000000032
 21
-0.0499999999999963
 31
2.910000000000001
 12
0.0000000000000018
 22
-0.0499999999999963
 32
2.9300000000000002
 13
0.0
 23
-0.2599999999999998
 33
2.879999999999999
  0
3DFACE
  5
655
  8
0
 10
0.0
 20
-0.6699999999999973
 30
2.7099999999999991
 11
0.190000000000003
 21
-0.0499999999999963
 31
2.8399999999999999
 12
0.1000000000000032
 22
-0.0499999999999963
 32
2.910000000000001
 13
0.0
 23
-0.4699999999999998
 33
2.8099999999999992
  0
3DFACE
  5
657
  8
0
 10
-0.1899999999999995
 20
-0.0499999999999981
 30
2.8399999999999999
 11
0.0
 21
-0.6699999999999973
 31
2.7099999999999991
 12
0.0
 22
-0.4699999999999998
 32
2.8099999999999992
 13
-0.0999999999999997
 23
-0.0499999999999981
 33
2.910000000000001
  0
3DFACE
  5
658
  8
0
 10
-0.0999999999999997
 20
-0.0499999999999981
 30
2.910000000000001
 11
0.0
 21
-0.4699999999999998
 31
2.8099999999999992
 12
0.0
 22
-0.2599999999999998
 32
2.879999999999999
 13
0.0000000000000018
 23
-0.0499999999999963
 33
2.9300000000000002
  0
3DFACE
  5
65A
  8
0
 10
0.1699999999999999
 20
-0.6699999999999973
 30
2.4900000000000002
 11
0.3000000000000025
 21
-0.0499999999999963
 31
2.4500000000000002
 12
0.2700000000000013
 22
-0.0499999999999963
 32
2.639999999999997
 13
0.0
 23
-0.9299999999999997
 33
2.5299999999999998
  0
3DFACE
  5
65B
  8
0
 10
-0.2999999999999989
 20
-0.0499999999999981
 30
2.4500000000000002
 11
-0.1699999999999999
 21
-0.6699999999999973
 31
2.4900000000000002
 12
0.0
 22
-0.9299999999999997
 32
2.5299999999999998
 13
-0.2699999999999978
 23
-0.0499999999999981
 33
2.639999999999997
  0
3DFACE
  5
66C
  8
0
 10
0.04
 20
-1.9799999999999991
 30
2.4799999999999991
 11
0.0
 21
-1.9399999999999999
 31
2.4799999999999991
 12
0.0
 22
-1.9599999999999991
 32
3.0699999999999998
 13
0.02
 23
-1.9799999999999991
 33
3.0699999999999998
  0
3DFACE
  5
66D
  8
0
 10
0.0
 20
-1.9399999999999999
 30
2.4799999999999991
 11
-0.04
 21
-1.9799999999999991
 31
2.4799999999999991
 12
-0.02
 22
-1.9799999999999991
 32
3.0699999999999998
 13
0.0
 23
-1.9599999999999991
 33
3.0699999999999998
  0
3DFACE
  5
66E
  8
0
 10
-0.04
 20
-1.9799999999999991
 30
2.4799999999999991
 11
0.0
 21
-2.0199999999999978
 31
2.4799999999999991
 12
0.0
 22
-1.9999999999999989
 32
3.0699999999999998
 13
-0.02
 23
-1.9799999999999991
 33
3.0699999999999998
  0
3DFACE
  5
66F
  8
0
 10
0.0
 20
-2.0199999999999978
 30
2.4799999999999991
 11
0.04
 21
-1.9799999999999991
 31
2.4799999999999991
 12
0.02
 22
-1.9799999999999991
 32
3.0699999999999998
 13
0.0
 23
-1.9999999999999989
 33
3.0699999999999998
  0
3DFACE
  5
671
  8
0
 10
-0.02
 20
-1.9799999999999991
 30
3.0699999999999998
 11
0.0
 21
-1.9999999999999989
 31
3.0699999999999998
 12
0.02
 22
-1.9799999999999991
 32
3.0699999999999998
 13
0.0
 23
-1.9599999999999991
 33
3.0699999999999998
  0
3DFACE
  5
67E
  8
0
 10
0.01
 20
0.1380156322898083
 30
2.9215154351189239
 11
-0.005
 21
0.1395194696216118
 31
2.9300441204384491
 12
-0.005
 22
-3.9375846278489299
 32
3.6489475759795411
 13
0.01
 23
-3.939088465180733
 33
3.6404188906600159
  0
3DFACE
  5
67F
  8
0
 10
-0.005
 20
0.1395194696216118
 30
2.9300441204384491
 11
-0.005
 21
0.136511794958003
 31
2.9129867497994
 12
-0.005
 22
-3.9405923025125391
 32
3.631890205340492
 13
-0.005
 23
-3.9375846278489299
 33
3.6489475759795411
  0
3DFACE
  5
680
  8
0
 10
-0.005
 20
0.136511794958003
 30
2.9129867497994
 11
0.01
 21
0.1380156322898083
 31
2.9215154351189239
 12
0.01
 22
-3.939088465180733
 32
3.6404188906600159
 13
-0.005
 23
-3.9405923025125391
 33
3.631890205340492
  0
3DFACE
  5
69E
  8
0
 10
0.0
 20
1.0297716818855049
 30
3.0152293445648599
 11
-0.03
 21
1.02176379493977
 31
3.0145287452383109
 12
-0.0149999999999997
 22
1.0194994223206151
 32
3.0404106427081961
 13
0.0
 23
1.0297716818855049
 33
3.0152293445648599
  0
3DFACE
  5
69F
  8
0
 10
-0.03
 20
1.02176379493977
 30
3.0145287452383109
 11
-0.0519615242270663
 21
0.9998858409427543
 31
3.0126146722824299
 12
-0.0259807621135329
 22
0.9959638325191093
 32
3.0574434336965588
 13
-0.0149999999999997
 23
1.0194994223206151
 33
3.0404106427081961
  0
3DFACE
  5
6A0
  8
0
 10
-0.0519615242270663
 20
0.9998858409427543
 30
3.0126146722824299
 11
-0.06
 21
0.9700000000000015
 31
3.0099999999999998
 12
-0.0300000000000003
 22
0.9654712547616908
 32
3.0617637949397691
 13
-0.0259807621135329
 23
0.9959638325191093
 33
3.0574434336965588
  0
3DFACE
  5
6A1
  8
0
 10
0.0
 20
1.0297716818855049
 30
3.0152293445648599
 11
-0.0149999999999997
 21
1.0194994223206151
 31
3.0404106427081961
 12
0.0149999999999997
 22
1.0194994223206151
 32
3.0404106427081952
 13
0.0
 23
1.0297716818855049
 33
3.0152293445648599
  0
3DFACE
  5
6A2
  8
0
 10
-0.0149999999999997
 20
1.0194994223206151
 30
3.0404106427081961
 11
-0.0259807621135329
 21
0.9959638325191093
 31
3.0574434336965588
 12
0.0259807621135329
 22
0.9959638325191093
 32
3.0574434336965588
 13
0.0149999999999997
 23
1.0194994223206151
 33
3.0404106427081952
  0
3DFACE
  5
6A3
  8
0
 10
-0.0259807621135329
 20
0.9959638325191093
 30
3.0574434336965588
 11
-0.0300000000000003
 21
0.9654712547616908
 31
3.0617637949397691
 12
0.0300000000000003
 22
0.9654712547616908
 32
3.0617637949397691
 13
0.0259807621135329
 23
0.9959638325191093
 33
3.0574434336965588
  0
3DFACE
  5
6A4
  8
0
 10
0.0
 20
1.0297716818855049
 30
3.0152293445648599
 11
0.0149999999999997
 21
1.0194994223206151
 31
3.0404106427081952
 12
0.03
 22
1.02176379493977
 32
3.0145287452383109
 13
0.0
 23
1.0297716818855049
 33
3.0152293445648599
  0
3DFACE
  5
6A5
  8
0
 10
0.0149999999999997
 20
1.0194994223206151
 30
3.0404106427081952
 11
0.0259807621135329
 21
0.9959638325191093
 31
3.0574434336965588
 12
0.0519615242270663
 22
0.9998858409427543
 32
3.0126146722824299
 13
0.03
 23
1.02176379493977
 33
3.0145287452383109
  0
3DFACE
  5
6A6
  8
0
 10
0.0259807621135329
 20
0.9959638325191093
 30
3.0574434336965588
 11
0.0300000000000003
 21
0.9654712547616908
 31
3.0617637949397691
 12
0.06
 22
0.9700000000000015
 32
3.0099999999999998
 13
0.0519615242270663
 23
0.9998858409427543
 33
3.0126146722824299
  0
3DFACE
  5
6A7
  8
0
 10
0.0
 20
1.0297716818855049
 30
3.0152293445648599
 11
0.03
 21
1.02176379493977
 31
3.0145287452383109
 12
0.0149999999999997
 22
1.024028167558926
 32
2.9886468477684272
 13
0.0
 23
1.0297716818855049
 33
3.0152293445648599
  0
3DFACE
  5
6A8
  8
0
 10
0.03
 20
1.02176379493977
 30
3.0145287452383109
 11
0.0519615242270663
 21
0.9998858409427543
 31
3.0126146722824299
 12
0.0259807621135329
 22
1.003807849366398
 32
2.9677859108683018
 13
0.0149999999999997
 23
1.024028167558926
 33
2.9886468477684272
  0
3DFACE
  5
6A9
  8
0
 10
0.0519615242270663
 20
0.9998858409427543
 30
3.0126146722824299
 11
0.06
 21
0.9700000000000015
 31
3.0099999999999998
 12
0.0300000000000003
 22
0.9745287452383113
 32
2.9582362050602322
 13
0.0259807621135329
 23
1.003807849366398
 33
2.9677859108683018
  0
3DFACE
  5
6AA
  8
0
 10
0.0
 20
1.0297716818855049
 30
3.0152293445648599
 11
0.0149999999999997
 21
1.024028167558926
 31
2.9886468477684272
 12
-0.0149999999999997
 22
1.024028167558926
 32
2.9886468477684258
 13
0.0
 23
1.0297716818855049
 33
3.0152293445648599
  0
3DFACE
  5
6AB
  8
0
 10
0.0149999999999997
 20
1.024028167558926
 30
2.9886468477684272
 11
0.0259807621135329
 21
1.003807849366398
 31
2.9677859108683018
 12
-0.0259807621135329
 22
1.003807849366398
 32
2.9677859108683018
 13
-0.0149999999999997
 23
1.024028167558926
 33
2.9886468477684258
  0
3DFACE
  5
6AC
  8
0
 10
0.0259807621135329
 20
1.003807849366398
 30
2.9677859108683018
 11
0.0300000000000003
 21
0.9745287452383113
 31
2.9582362050602322
 12
-0.0300000000000003
 22
0.9745287452383113
 32
2.9582362050602322
 13
-0.0259807621135329
 23
1.003807849366398
 33
2.9677859108683018
  0
3DFACE
  5
6AD
  8
0
 10
0.0
 20
1.0297716818855049
 30
3.0152293445648599
 11
-0.0149999999999997
 21
1.024028167558926
 31
2.9886468477684258
 12
-0.03
 22
1.02176379493977
 32
3.0145287452383109
 13
0.0
 23
1.0297716818855049
 33
3.0152293445648599
  0
3DFACE
  5
6AE
  8
0
 10
-0.0149999999999997
 20
1.024028167558926
 30
2.9886468477684258
 11
-0.0259807621135329
 21
1.003807849366398
 31
2.9677859108683018
 12
-0.0519615242270663
 22
0.9998858409427543
 32
3.0126146722824299
 13
-0.03
 23
1.02176379493977
 33
3.0145287452383109
  0
3DFACE
  5
6AF
  8
0
 10
-0.0259807621135329
 20
1.003807849366398
 30
2.9677859108683018
 11
-0.0300000000000003
 21
0.9745287452383113
 31
2.9582362050602322
 12
-0.06
 22
0.9700000000000015
 32
3.0099999999999998
 13
-0.0519615242270663
 23
0.9998858409427543
 33
3.0126146722824299
  0
3DFACE
  5
6B0
  8
0
 10
-0.0300000000000003
 20
0.9654712547616908
 30
3.0617637949397691
 11
-0.06
 21
0.9700000000000015
 31
3.0099999999999998
 12
0.06
 22
0.9700000000000015
 32
3.0099999999999998
 13
0.0300000000000003
 23
0.9654712547616908
 33
3.0617637949397691
  0
3DFACE
  5
6B1
  8
0
 10
-0.06
 20
0.9700000000000015
 30
3.0099999999999998
 11
-0.0300000000000003
 21
0.9745287452383122
 31
2.9582362050602322
 12
0.0300000000000003
 22
0.9745287452383122
 32
2.9582362050602322
 13
0.06
 23
0.9700000000000015
 33
3.0099999999999998
  0
3DFACE
  5
6BF
  8
0
 10
0.01
 20
0.9952703644666147
 30
2.8130384493975571
 11
0.0
 21
1.0051184419967361
 31
2.8113019676208881
 12
0.0
 22
1.039848077530122
 32
3.0082635182233299
 13
0.01
 23
1.0300000000000009
 33
3.0099999999999989
  0
3DFACE
  5
6C0
  8
0
 10
0.0
 20
1.0051184419967361
 30
2.8113019676208881
 11
-0.01
 21
0.9952703644666147
 31
2.8130384493975571
 12
-0.01
 22
1.0300000000000009
 32
3.0099999999999989
 13
0.0
 23
1.039848077530122
 33
3.0082635182233299
  0
3DFACE
  5
6C1
  8
0
 10
-0.01
 20
0.9952703644666147
 30
2.8130384493975571
 11
0.0
 21
0.9854222869364921
 31
2.8147749311742261
 12
0.0
 22
1.0201519224698781
 32
3.0117364817766679
 13
-0.01
 23
1.0300000000000009
 33
3.0099999999999989
  0
3DFACE
  5
6C2
  8
0
 10
0.0
 20
0.9854222869364921
 30
2.8147749311742261
 11
0.01
 21
0.9952703644666147
 31
2.8130384493975571
 12
0.01
 22
1.0300000000000009
 32
3.0099999999999989
 13
0.0
 23
1.0201519224698781
 33
3.0117364817766679
  0
3DFACE
  5
6C3
  8
0
 10
0.0
 20
1.039848077530122
 30
3.0082635182233299
 11
-0.01
 21
1.0300000000000009
 31
3.0099999999999989
 12
0.0
 22
1.0201519224698781
 32
3.0117364817766679
 13
0.01
 23
1.0300000000000009
 33
3.0099999999999989
  0
VIEWPORT
  5
2E
 67
     1
  8
0
 10
144.7270812988281
 20
101.2295806407928
 30
0.0
 40
391.13550988316581
 41
222.15178063964839
 68
     2
 69
     1
1001
ACAD
1000
MVIEW
1002
{
1070
    16
1010
0.0
1020
0.0
1030
0.0
1010
0.0
1020
0.0
1030
1.0
1040
0.0
1040
222.15178063964839
1040
144.7270812988281
1040
101.2295806407928
1040
50.0
1040
0.0
1040
0.0
1070
     0
1070
   100
1070
     1
1070
     1
1070
     0
1070
     0
1070
     0
1070
     0
1040
0.0
1040
0.0
1040
0.0
1040
10.0
1040
10.0
1040
10.0
1040
10.0
1070
     0
1002
{
1002
}
1002
}
  0
VIEWPORT
  5
30
 67
     1
  8
0
 10
139.22375631332389
 20
100.8062499761581
 30
0.0
 40
222.75801010131829
 41
161.289999961853
 68
     1
 69
     2
1001
ACAD
1000
MVIEW
1002
{
1070
    16
1010
0.0
1020
0.0
1030
0.0
1010
0.0
1020
0.0
1030
1.0
1040
0.0
1040
307.49010134148989
1040
210.0
1040
148.5
1040
50.0
1040
0.0
1040
0.0
1070
     0
1070
   100
1070
     1
1070
     3
1070
     0
1070
     1
1070
     0
1070
     0
1040
0.0
1040
0.0
1040
0.0
1040
10.0
1040
10.0
1040
10.0
1040
10.0
1070
     0
1002
{
1002
}
1002
}
  0
ENDSEC
  0
EOF
