  0
SECTION
  2
HEADER
  9
$ACADVER
  1
AC1009
  9
$INSBASE
 10
0.0
 20
0.0
 30
0.0
  9
$EXTMIN
 10
-1.0600000000000001
 20
-2.609999999999999
 30
-0.17
  9
$EXTMAX
 10
1.0600000000000001
 20
2.6299999999999999
 30
1.01
  9
$LIMMIN
 10
0.0
 20
0.0
  9
$LIMMAX
 10
420.0
 20
297.0
  9
$ORTHOMODE
 70
     1
  9
$REGENMODE
 70
     1
  9
$FILLMODE
 70
     1
  9
$QTEXTMODE
 70
     0
  9
$MIRRTEXT
 70
     1
  9
$DRAGMODE
 70
     2
  9
$LTSCALE
 40
1.0
  9
$OSMODE
 70
    35
  9
$ATTMODE
 70
     1
  9
$TEXTSIZE
 40
2.5
  9
$TRACEWID
 40
1.0
  9
$TEXTSTYLE
  7
STANDARD
  9
$CLAYER
  8
WHEELS
  9
$CELTYPE
  6
BYLAYER
  9
$CECOLOR
 62
   256
  9
$DIMSCALE
 40
1.0
  9
$DIMASZ
 40
2.5
  9
$DIMEXO
 40
0.625
  9
$DIMDLI
 40
3.75
  9
$DIMRND
 40
0.0
  9
$DIMDLE
 40
0.0
  9
$DIMEXE
 40
1.25
  9
$DIMTP
 40
0.0
  9
$DIMTM
 40
0.0
  9
$DIMTXT
 40
2.5
  9
$DIMCEN
 40
2.5
  9
$DIMTSZ
 40
0.0
  9
$DIMTOL
 70
     0
  9
$DIMLIM
 70
     0
  9
$DIMTIH
 70
     0
  9
$DIMTOH
 70
     0
  9
$DIMSE1
 70
     0
  9
$DIMSE2
 70
     0
  9
$DIMTAD
 70
     1
  9
$DIMZIN
 70
     8
  9
$DIMBLK
  1

  9
$DIMASO
 70
     1
  9
$DIMSHO
 70
     1
  9
$DIMPOST
  1

  9
$DIMAPOST
  1

  9
$DIMALT
 70
     0
  9
$DIMALTD
 70
     3
  9
$DIMALTF
 40
0.03937007874016
  9
$DIMLFAC
 40
1.0
  9
$DIMTOFL
 70
     1
  9
$DIMTVP
 40
0.0
  9
$DIMTIX
 70
     0
  9
$DIMSOXD
 70
     0
  9
$DIMSAH
 70
     0
  9
$DIMBLK1
  1

  9
$DIMBLK2
  1

  9
$DIMSTYLE
  2
ISO-25
  9
$DIMCLRD
 70
     0
  9
$DIMCLRE
 70
     0
  9
$DIMCLRT
 70
     0
  9
$DIMTFAC
 40
1.0
  9
$DIMGAP
 40
0.625
  9
$LUNITS
 70
     2
  9
$LUPREC
 70
     4
  9
$SKETCHINC
 40
1.0
  9
$FILLETRAD
 40
10.0
  9
$AUNITS
 70
     0
  9
$AUPREC
 70
     0
  9
$MENU
  1
.
  9
$ELEVATION
 40
0.0
  9
$PELEVATION
 40
0.0
  9
$THICKNESS
 40
0.0
  9
$LIMCHECK
 70
     0
  9
$BLIPMODE
 70
     0
  9
$CHAMFERA
 40
10.0
  9
$CHAMFERB
 40
10.0
  9
$SKPOLY
 70
     0
  9
$TDCREATE
 40
2457211.0131720481
  9
$TDUPDATE
 40
2457224.456388264
  9
$TDINDWG
 40
0.4004185417
  9
$TDUSRTIMER
 40
0.4004185417
  9
$USRTIMER
 70
     1
  9
$ANGBASE
 50
0.0
  9
$ANGDIR
 70
     0
  9
$PDMODE
 70
     0
  9
$PDSIZE
 40
0.0
  9
$PLINEWID
 40
0.0
  9
$COORDS
 70
     1
  9
$SPLFRAME
 70
     0
  9
$SPLINETYPE
 70
     6
  9
$SPLINESEGS
 70
     8
  9
$ATTDIA
 70
     1
  9
$ATTREQ
 70
     1
  9
$HANDLING
 70
-16383
  9
$HANDSEED
  5
18EF
  9
$SURFTAB1
 70
     6
  9
$SURFTAB2
 70
     6
  9
$SURFTYPE
 70
     6
  9
$SURFU
 70
     6
  9
$SURFV
 70
     6
  9
$UCSNAME
  2

  9
$UCSORG
 10
0.0
 20
0.0
 30
0.0
  9
$UCSXDIR
 10
0.0
 20
-1.0
 30
0.0
  9
$UCSYDIR
 10
0.0
 20
0.0
 30
1.0
  9
$PUCSNAME
  2

  9
$PUCSORG
 10
0.0
 20
0.0
 30
0.0
  9
$PUCSXDIR
 10
1.0
 20
0.0
 30
0.0
  9
$PUCSYDIR
 10
0.0
 20
1.0
 30
0.0
  9
$USERI1
 70
     0
  9
$USERI2
 70
     0
  9
$USERI3
 70
     0
  9
$USERI4
 70
     0
  9
$USERI5
 70
     0
  9
$USERR1
 40
0.0
  9
$USERR2
 40
0.0
  9
$USERR3
 40
0.0
  9
$USERR4
 40
0.0
  9
$USERR5
 40
0.0
  9
$WORLDVIEW
 70
     1
  9
$SHADEDGE
 70
     3
  9
$SHADEDIF
 70
    70
  9
$TILEMODE
 70
     1
  9
$MAXACTVP
 70
    64
  9
$PLIMCHECK
 70
     0
  9
$PEXTMIN
 10
27.844751262664801
 20
20.161249995231621
 30
0.0
  9
$PEXTMAX
 10
250.60276136398309
 20
181.4512499570846
 30
0.0
  9
$PLIMMIN
 10
-3.757080078125
 20
-3.7570831775665279
  9
$PLIMMAX
 10
293.21124267578119
 20
206.21624445915219
  9
$UNITMODE
 70
     0
  9
$VISRETAIN
 70
     1
  9
$PLINEGEN
 70
     0
  9
$PSLTSCALE
 70
     1
  0
ENDSEC
  0
SECTION
  2
TABLES
  0
TABLE
  2
VPORT
 70
     4
  0
VPORT
  2
*ACTIVE
 70
     0
 10
0.0
 20
0.0
 11
1.0
 21
1.0
 12
0.488238577407889
 22
0.0167723958290385
 13
0.0
 23
0.0
 14
0.01
 24
0.01
 15
1.0
 25
1.0
 16
-1.0
 26
0.0
 36
0.0
 17
0.0
 27
0.0
 37
0.0
 40
2.1606820456163218
 41
2.2487980769230771
 42
50.0
 43
0.0
 44
0.0
 50
0.0
 51
0.0
 71
     0
 72
   100
 73
     1
 74
     3
 75
     1
 76
     1
 77
     0
 78
     0
  0
ENDTAB
  0
TABLE
  2
LTYPE
 70
     1
  0
LTYPE
  2
CONTINUOUS
 70
     0
  3
Solid line
 72
    65
 73
     0
 40
0.0
  0
ENDTAB
  0
TABLE
  2
LAYER
 70
    13
  0
LAYER
  2
0
 70
     0
 62
     7
  6
CONTINUOUS
  0
LAYER
  2
DRAWING
 70
     0
 62
     9
  6
CONTINUOUS
  0
LAYER
  2
SEATS
 70
     0
 62
     3
  6
CONTINUOUS
  0
LAYER
  2
INTERNALS
 70
     0
 62
     5
  6
CONTINUOUS
  0
LAYER
  2
TMP
 70
     0
 62
     4
  6
CONTINUOUS
  0
LAYER
  2
FENDERS
 70
     0
 62
     6
  6
CONTINUOUS
  0
LAYER
  2
ROLLER
 70
     0
 62
     6
  6
CONTINUOUS
  0
LAYER
  2
WHEELS
 70
     0
 62
     2
  6
CONTINUOUS
  0
LAYER
  2
SUSPENSION
 70
     0
 62
     5
  6
CONTINUOUS
  0
LAYER
  2
TRACKS
 70
     0
 62
     3
  6
CONTINUOUS
  0
LAYER
  2
CANS
 70
     0
 62
     3
  6
CONTINUOUS
  0
LAYER
  2
TURRET
 70
     0
 62
     2
  6
CONTINUOUS
  0
LAYER
  2
GUN
 70
     0
 62
     1
  6
CONTINUOUS
  0
ENDTAB
  0
TABLE
  2
STYLE
 70
     1
  0
STYLE
  2
STANDARD
 70
     0
 40
0.0
 41
1.0
 50
0.0
 71
     0
 42
2.5
  3
txt
  4

  0
ENDTAB
  0
TABLE
  2
VIEW
 70
     0
  0
ENDTAB
  0
TABLE
  2
UCS
 70
     0
  0
ENDTAB
  0
TABLE
  2
APPID
 70
     1
  0
APPID
  2
ACAD
 70
     0
  0
ENDTAB
  0
TABLE
  2
DIMSTYLE
 70
     1
  0
DIMSTYLE
  2
ISO-25
 70
     0
  3

  4

  5

  6

  7

 40
1.0
 41
2.5
 42
0.625
 43
3.75
 44
1.25
 45
0.0
 46
0.0
 47
0.0
 48
0.0
140
2.5
141
2.5
142
0.0
143
0.03937007874016
144
1.0
145
0.0
146
1.0
147
0.625
 71
     0
 72
     0
 73
     0
 74
     0
 75
     0
 76
     0
 77
     1
 78
     8
170
     0
171
     3
172
     1
173
     0
174
     0
175
     0
176
     0
177
     0
178
     0
  0
ENDTAB
  0
ENDSEC
  0
SECTION
  2
BLOCKS
  0
BLOCK
  8
0
  2
$MODEL_SPACE
 70
     0
 10
0.0
 20
0.0
 30
0.0
  3
$MODEL_SPACE
  1

  0
ENDBLK
  5
21
  8
0
  0
BLOCK
 67
     1
  8
0
  2
$PAPER_SPACE
 70
     0
 10
0.0
 20
0.0
 30
0.0
  3
$PAPER_SPACE
  1

  0
ENDBLK
  5
1D
 67
     1
  8
0
  0
ENDSEC
  0
SECTION
  2
ENTITIES
  0
3DFACE
  5
1041
  8
WHEELS
 10
0.84
 20
-0.1202081528017134
 30
-0.1202081528017131
 11
0.84
 21
0.0
 31
-0.17
 12
0.9599999999999999
 22
0.0
 32
-0.17
 13
0.9599999999999999
 23
-0.1202081528017134
 33
-0.1202081528017131
  0
3DFACE
  5
1042
  8
WHEELS
 10
0.84
 20
0.0
 30
-0.17
 11
0.84
 21
0.1202081528017134
 31
-0.1202081528017131
 12
0.9599999999999999
 22
0.1202081528017134
 32
-0.1202081528017131
 13
0.9599999999999999
 23
0.0
 33
-0.17
  0
3DFACE
  5
1043
  8
WHEELS
 10
0.9599999999999999
 20
0.0
 30
-0.17
 11
0.9599999999999999
 21
0.1202081528017134
 31
-0.1202081528017132
 12
0.9599999999999999
 22
0.0952627944162883
 32
-0.0550000000000004
 13
0.9599999999999999
 23
0.0
 33
-0.11
  0
3DFACE
  5
1044
  8
WHEELS
 10
0.9599999999999999
 20
-0.1202081528017134
 30
-0.120208152801713
 11
0.9599999999999999
 21
0.0
 31
-0.17
 12
0.9599999999999999
 22
0.0
 32
-0.11
 13
0.9599999999999999
 23
-0.0952627944162883
 33
-0.0550000000000003
  0
3DFACE
  5
1045
  8
WHEELS
 10
0.7800000000000003
 20
0.0
 30
-0.17
 11
0.7800000000000003
 21
0.1202081528017134
 31
-0.1202081528017132
 12
0.7800000000000003
 22
0.0952627944162883
 32
-0.0550000000000004
 13
0.7800000000000003
 23
0.0
 33
-0.11
  0
3DFACE
  5
1046
  8
WHEELS
 10
0.7800000000000003
 20
-0.1202081528017134
 30
-0.120208152801713
 11
0.7800000000000003
 21
0.0
 31
-0.17
 12
0.7800000000000003
 22
0.0
 32
-0.11
 13
0.7800000000000003
 23
-0.0952627944162883
 33
-0.0550000000000003
  0
3DFACE
  5
1047
  8
WHEELS
 10
0.7800000000000003
 20
0.0
 30
-0.17
 11
0.7800000000000003
 21
-0.1202081528017134
 31
-0.1202081528017131
 12
0.6600000000000003
 22
-0.1202081528017134
 32
-0.1202081528017131
 13
0.6600000000000003
 23
0.0
 33
-0.17
  0
3DFACE
  5
1048
  8
WHEELS
 10
0.7800000000000003
 20
0.1202081528017134
 30
-0.1202081528017131
 11
0.7800000000000003
 21
0.0
 31
-0.17
 12
0.6600000000000003
 22
0.0
 32
-0.17
 13
0.6600000000000003
 23
0.1202081528017134
 33
-0.1202081528017131
  0
3DFACE
  5
1049
  8
WHEELS
 10
-0.7800000000000003
 20
-0.1202081528017134
 30
-0.1202081528017131
 11
-0.7800000000000003
 21
0.0
 31
-0.17
 12
-0.6600000000000003
 22
0.0
 32
-0.17
 13
-0.6600000000000003
 23
-0.1202081528017134
 33
-0.1202081528017131
  0
3DFACE
  5
104A
  8
WHEELS
 10
-0.7800000000000003
 20
0.0
 30
-0.17
 11
-0.7800000000000003
 21
0.1202081528017134
 31
-0.1202081528017131
 12
-0.6600000000000003
 22
0.1202081528017134
 32
-0.1202081528017131
 13
-0.6600000000000003
 23
0.0
 33
-0.17
  0
3DFACE
  5
104B
  8
WHEELS
 10
-0.7800000000000003
 20
0.1202081528017134
 30
-0.120208152801713
 11
-0.7800000000000003
 21
0.0
 31
-0.17
 12
-0.7800000000000003
 22
0.0
 32
-0.11
 13
-0.7800000000000003
 23
0.0952627944162883
 33
-0.0550000000000003
  0
3DFACE
  5
104C
  8
WHEELS
 10
-0.7800000000000003
 20
0.0
 30
-0.17
 11
-0.7800000000000003
 21
-0.1202081528017134
 31
-0.1202081528017132
 12
-0.7800000000000003
 22
-0.0952627944162883
 32
-0.0550000000000004
 13
-0.7800000000000003
 23
0.0
 33
-0.11
  0
3DFACE
  5
104D
  8
WHEELS
 10
-0.9599999999999999
 20
0.1202081528017134
 30
-0.120208152801713
 11
-0.9599999999999999
 21
0.0
 31
-0.17
 12
-0.9599999999999999
 22
0.0
 32
-0.11
 13
-0.9599999999999999
 23
0.0952627944162883
 33
-0.0550000000000003
  0
3DFACE
  5
104E
  8
WHEELS
 10
-0.9599999999999999
 20
0.0
 30
-0.17
 11
-0.9599999999999999
 21
-0.1202081528017134
 31
-0.1202081528017132
 12
-0.9599999999999999
 22
-0.0952627944162883
 32
-0.0550000000000004
 13
-0.9599999999999999
 23
0.0
 33
-0.11
  0
3DFACE
  5
104F
  8
WHEELS
 10
-0.84
 20
0.0
 30
-0.17
 11
-0.84
 21
-0.1202081528017134
 31
-0.1202081528017131
 12
-0.9599999999999999
 22
-0.1202081528017134
 32
-0.1202081528017131
 13
-0.9599999999999999
 23
0.0
 33
-0.17
  0
3DFACE
  5
1050
  8
WHEELS
 10
-0.84
 20
0.1202081528017134
 30
-0.1202081528017131
 11
-0.84
 21
0.0
 31
-0.17
 12
-0.9599999999999999
 22
0.0
 32
-0.17
 13
-0.9599999999999999
 23
0.1202081528017134
 33
-0.1202081528017131
  0
3DFACE
  5
1061
  8
WHEELS
 10
0.84
 20
0.1202081528017134
 30
0.1202081528017131
 11
0.84
 21
0.0
 31
0.17
 12
0.9599999999999999
 22
0.0
 32
0.17
 13
0.9599999999999999
 23
0.1202081528017134
 33
0.1202081528017131
  0
3DFACE
  5
1062
  8
WHEELS
 10
0.84
 20
0.0
 30
0.17
 11
0.84
 21
-0.1202081528017134
 31
0.1202081528017131
 12
0.9599999999999999
 22
-0.1202081528017134
 32
0.1202081528017131
 13
0.9599999999999999
 23
0.0
 33
0.17
  0
3DFACE
  5
1063
  8
WHEELS
 10
0.9599999999999999
 20
0.1202081528017134
 30
0.1202081528017131
 11
0.9599999999999999
 21
0.0
 31
0.17
 12
0.9599999999999999
 22
0.0
 32
0.11
 13
0.9599999999999999
 23
0.0952627944162883
 33
0.0550000000000003
  0
3DFACE
  5
1064
  8
WHEELS
 10
0.9599999999999999
 20
0.0
 30
0.17
 11
0.9599999999999999
 21
-0.1202081528017134
 31
0.1202081528017131
 12
0.9599999999999999
 22
-0.0952627944162883
 32
0.0550000000000003
 13
0.9599999999999999
 23
0.0
 33
0.11
  0
3DFACE
  5
1065
  8
WHEELS
 10
0.7800000000000003
 20
0.1202081528017134
 30
0.1202081528017131
 11
0.7800000000000003
 21
0.0
 31
0.17
 12
0.7800000000000003
 22
0.0
 32
0.11
 13
0.7800000000000003
 23
0.0952627944162883
 33
0.0550000000000003
  0
3DFACE
  5
1066
  8
WHEELS
 10
0.7800000000000003
 20
0.0
 30
0.17
 11
0.7800000000000003
 21
-0.1202081528017134
 31
0.1202081528017131
 12
0.7800000000000003
 22
-0.0952627944162883
 32
0.0550000000000003
 13
0.7800000000000003
 23
0.0
 33
0.11
  0
3DFACE
  5
1067
  8
WHEELS
 10
0.7800000000000003
 20
0.0
 30
0.17
 11
0.7800000000000003
 21
0.1202081528017134
 31
0.1202081528017131
 12
0.6600000000000003
 22
0.1202081528017134
 32
0.1202081528017131
 13
0.6600000000000003
 23
0.0
 33
0.17
  0
3DFACE
  5
1068
  8
WHEELS
 10
0.7800000000000003
 20
-0.1202081528017134
 30
0.1202081528017131
 11
0.7800000000000003
 21
0.0
 31
0.17
 12
0.6600000000000003
 22
0.0
 32
0.17
 13
0.6600000000000003
 23
-0.1202081528017134
 33
0.1202081528017131
  0
3DFACE
  5
1069
  8
WHEELS
 10
-0.7800000000000003
 20
0.1202081528017134
 30
0.1202081528017131
 11
-0.7800000000000003
 21
0.0
 31
0.17
 12
-0.6600000000000003
 22
0.0
 32
0.17
 13
-0.6600000000000003
 23
0.1202081528017134
 33
0.1202081528017131
  0
3DFACE
  5
106A
  8
WHEELS
 10
-0.7800000000000003
 20
0.0
 30
0.17
 11
-0.7800000000000003
 21
-0.1202081528017134
 31
0.1202081528017131
 12
-0.6600000000000003
 22
-0.1202081528017134
 32
0.1202081528017131
 13
-0.6600000000000003
 23
0.0
 33
0.17
  0
3DFACE
  5
106B
  8
WHEELS
 10
-0.7800000000000003
 20
0.0
 30
0.17
 11
-0.7800000000000003
 21
0.1202081528017134
 31
0.1202081528017131
 12
-0.7800000000000003
 22
0.0952627944162883
 32
0.0550000000000003
 13
-0.7800000000000003
 23
0.0
 33
0.11
  0
3DFACE
  5
106C
  8
WHEELS
 10
-0.7800000000000003
 20
-0.1202081528017134
 30
0.1202081528017131
 11
-0.7800000000000003
 21
0.0
 31
0.17
 12
-0.7800000000000003
 22
0.0
 32
0.11
 13
-0.7800000000000003
 23
-0.0952627944162883
 33
0.0550000000000003
  0
3DFACE
  5
106D
  8
WHEELS
 10
-0.9599999999999999
 20
0.0
 30
0.17
 11
-0.9599999999999999
 21
0.1202081528017134
 31
0.1202081528017131
 12
-0.9599999999999999
 22
0.0952627944162883
 32
0.0550000000000003
 13
-0.9599999999999999
 23
0.0
 33
0.11
  0
3DFACE
  5
106E
  8
WHEELS
 10
-0.9599999999999999
 20
-0.1202081528017134
 30
0.1202081528017131
 11
-0.9599999999999999
 21
0.0
 31
0.17
 12
-0.9599999999999999
 22
0.0
 32
0.11
 13
-0.9599999999999999
 23
-0.0952627944162883
 33
0.0550000000000003
  0
3DFACE
  5
106F
  8
WHEELS
 10
-0.84
 20
0.0
 30
0.17
 11
-0.84
 21
0.1202081528017134
 31
0.1202081528017131
 12
-0.9599999999999999
 22
0.1202081528017134
 32
0.1202081528017131
 13
-0.9599999999999999
 23
0.0
 33
0.17
  0
3DFACE
  5
1070
  8
WHEELS
 10
-0.84
 20
-0.1202081528017134
 30
0.1202081528017131
 11
-0.84
 21
0.0
 31
0.17
 12
-0.9599999999999999
 22
0.0
 32
0.17
 13
-0.9599999999999999
 23
-0.1202081528017134
 33
0.1202081528017131
  0
3DFACE
  5
1081
  8
WHEELS
 10
-0.7800000000000003
 20
-0.0606217782649106
 30
0.0349999999999999
 11
-0.7800000000000003
 21
-0.0952627944162883
 31
0.0549999999999999
 12
-0.7800000000000003
 22
-0.0852627944162885
 32
0.0607735026918965
 13
-0.7800000000000003
 23
-0.0506217782649108
 33
0.0407735026918965
  0
3DFACE
  5
1082
  8
WHEELS
 10
-0.7800000000000003
 20
-0.0606217782649106
 30
0.0234529946162074
 11
-0.7800000000000003
 21
-0.0952627944162883
 31
0.0434529946162074
 12
-0.7800000000000003
 22
-0.0952627944162883
 32
0.0549999999999999
 13
-0.7800000000000003
 23
-0.0606217782649106
 33
0.0349999999999999
  0
3DFACE
  5
1083
  8
WHEELS
 10
-0.7800000000000003
 20
-0.0606217782649106
 30
-0.0350000000000002
 11
-0.7800000000000003
 21
-0.0952627944162883
 31
-0.0550000000000002
 12
-0.7800000000000003
 22
-0.0952627944162883
 32
-0.0434529946162073
 13
-0.7800000000000003
 23
-0.0606217782649106
 33
-0.0234529946162073
  0
3DFACE
  5
1084
  8
WHEELS
 10
-0.7800000000000003
 20
-0.0506217782649108
 30
-0.0407735026918963
 11
-0.7800000000000003
 21
-0.0852627944162885
 31
-0.0607735026918964
 12
-0.7800000000000003
 22
-0.0952627944162883
 32
-0.0550000000000002
 13
-0.7800000000000003
 23
-0.0606217782649106
 33
-0.0350000000000002
  0
3DFACE
  5
1085
  8
WHEELS
 10
-0.7800000000000001
 20
0.0
 30
-0.0700000000000001
 11
-0.7800000000000001
 21
0.0
 31
-0.11
 12
-0.7800000000000003
 22
-0.0100000000000007
 32
-0.1042264973081037
 13
-0.7800000000000003
 23
-0.0100000000000007
 33
-0.0642264973081038
  0
3DFACE
  5
1086
  8
WHEELS
 10
-0.7800000000000001
 20
0.0099999999999998
 30
-0.0642264973081039
 11
-0.7800000000000001
 21
0.0099999999999998
 31
-0.1042264973081038
 12
-0.7800000000000001
 22
0.0
 32
-0.11
 13
-0.7800000000000001
 23
0.0
 33
-0.0700000000000001
  0
3DFACE
  5
1087
  8
WHEELS
 10
-0.7800000000000001
 20
0.0606217782649106
 30
-0.035
 11
-0.7800000000000001
 21
0.0952627944162883
 31
-0.055
 12
-0.7800000000000001
 22
0.0852627944162885
 32
-0.0607735026918964
 13
-0.7800000000000001
 23
0.0506217782649108
 33
-0.0407735026918966
  0
3DFACE
  5
1088
  8
WHEELS
 10
-0.7800000000000001
 20
0.0606217782649106
 30
-0.0234529946162075
 11
-0.7800000000000001
 21
0.0952627944162883
 31
-0.0434529946162075
 12
-0.7800000000000001
 22
0.0952627944162883
 32
-0.055
 13
-0.7800000000000001
 23
0.0606217782649106
 33
-0.035
  0
3DFACE
  5
1089
  8
WHEELS
 10
-0.7800000000000001
 20
0.0606217782649106
 30
0.0349999999999999
 11
-0.7800000000000001
 21
0.0952627944162883
 31
0.0549999999999999
 12
-0.7800000000000001
 22
0.0952627944162883
 32
0.0434529946162072
 13
-0.7800000000000001
 23
0.0606217782649106
 33
0.0234529946162072
  0
3DFACE
  5
108A
  8
WHEELS
 10
-0.7800000000000001
 20
0.0506217782649108
 30
0.0407735026918962
 11
-0.7800000000000001
 21
0.0852627944162885
 31
0.0607735026918963
 12
-0.7800000000000001
 22
0.0952627944162883
 32
0.0549999999999999
 13
-0.7800000000000001
 23
0.0606217782649106
 33
0.0349999999999999
  0
3DFACE
  5
108B
  8
WHEELS
 10
-0.7800000000000003
 20
-0.0099999999999998
 30
0.0642264973081039
 11
-0.7800000000000003
 21
-0.0099999999999998
 31
0.1042264973081038
 12
-0.7800000000000001
 22
0.0
 32
0.11
 13
-0.7800000000000001
 23
0.0
 33
0.0700000000000001
  0
3DFACE
  5
108C
  8
WHEELS
 10
-0.7800000000000001
 20
0.0
 30
0.0700000000000001
 11
-0.7800000000000001
 21
0.0
 31
0.11
 12
-0.7800000000000001
 22
0.0100000000000007
 32
0.1042264973081037
 13
-0.7800000000000001
 23
0.0100000000000007
 33
0.0642264973081038
  0
3DFACE
  5
108D
  8
WHEELS
 10
-0.7800000000000003
 20
0.1699999999999999
 30
0.0
 11
-0.7800000000000003
 21
0.1202081528017134
 31
0.1202081528017131
 12
-0.6600000000000003
 22
0.1202081528017134
 32
0.1202081528017131
 13
-0.6600000000000003
 23
0.1699999999999999
 33
0.0
  0
3DFACE
  5
108E
  8
WHEELS
 10
-0.7800000000000003
 20
-0.1202081528017134
 30
0.1202081528017131
 11
-0.7800000000000003
 21
-0.1699999999999999
 31
0.0
 12
-0.6600000000000003
 22
-0.1699999999999999
 32
0.0
 13
-0.6600000000000003
 23
-0.1202081528017134
 33
0.1202081528017131
  0
3DFACE
  5
108F
  8
WHEELS
 10
-0.7800000000000003
 20
-0.1699999999999999
 30
0.0
 11
-0.7800000000000003
 21
-0.1202081528017134
 31
-0.1202081528017131
 12
-0.6600000000000003
 22
-0.1202081528017134
 32
-0.1202081528017131
 13
-0.6600000000000003
 23
-0.1699999999999999
 33
0.0
  0
3DFACE
  5
1090
  8
WHEELS
 10
-0.7800000000000003
 20
0.1202081528017134
 30
-0.1202081528017131
 11
-0.7800000000000003
 21
0.1699999999999999
 31
0.0
 12
-0.6600000000000003
 22
0.1699999999999999
 32
0.0
 13
-0.6600000000000003
 23
0.1202081528017134
 33
-0.1202081528017131
  0
3DFACE
  5
1091
  8
WHEELS
 10
-0.7800000000000003
 20
0.0
 30
-0.1100000000000001
 11
-0.7800000000000003
 21
-0.0952627944162883
 31
-0.0549999999999996
 12
-0.6600000000000003
 22
-0.0952627944162883
 32
-0.0549999999999996
 13
-0.6600000000000003
 23
0.0
 33
-0.1100000000000001
  0
3DFACE
  5
1092
  8
WHEELS
 10
-0.7800000000000003
 20
-0.0952627944162883
 30
-0.0549999999999996
 11
-0.7800000000000003
 21
-0.0952627944162883
 31
0.0550000000000003
 12
-0.6600000000000003
 22
-0.0952627944162883
 32
0.0550000000000003
 13
-0.6600000000000003
 23
-0.0952627944162883
 33
-0.0549999999999996
  0
3DFACE
  5
1093
  8
WHEELS
 10
-0.7800000000000003
 20
-0.0952627944162883
 30
0.0550000000000003
 11
-0.7800000000000003
 21
0.0
 31
0.11
 12
-0.6600000000000003
 22
0.0
 32
0.11
 13
-0.6600000000000003
 23
-0.0952627944162883
 33
0.0550000000000003
  0
3DFACE
  5
1094
  8
WHEELS
 10
-0.7800000000000003
 20
0.0
 30
0.11
 11
-0.7800000000000003
 21
0.0952627944162883
 31
0.0550000000000003
 12
-0.6600000000000003
 22
0.0952627944162883
 32
0.0550000000000003
 13
-0.6600000000000003
 23
0.0
 33
0.11
  0
3DFACE
  5
1095
  8
WHEELS
 10
-0.7800000000000003
 20
0.0952627944162883
 30
0.0550000000000003
 11
-0.7800000000000003
 21
0.0952627944162883
 31
-0.0549999999999996
 12
-0.6600000000000003
 22
0.0952627944162883
 32
-0.0549999999999996
 13
-0.6600000000000003
 23
0.0952627944162883
 33
0.0550000000000003
  0
3DFACE
  5
1096
  8
WHEELS
 10
-0.7800000000000003
 20
0.0952627944162883
 30
-0.0549999999999996
 11
-0.7800000000000003
 21
0.0
 31
-0.1100000000000001
 12
-0.6600000000000003
 22
0.0
 32
-0.1100000000000001
 13
-0.6600000000000003
 23
0.0952627944162883
 33
-0.0549999999999996
  0
3DFACE
  5
1097
  8
WHEELS
 10
-0.7800000000000003
 20
0.0099999999999998
 30
0.0642264973081039
 11
-0.7800000000000003
 21
0.0099999999999998
 31
0.1042264973081038
 12
-0.7600000000000002
 22
0.0099999999999998
 32
0.1042264973081038
 13
-0.7600000000000002
 23
0.0099999999999998
 33
0.064226497308104
  0
3DFACE
  5
1098
  8
WHEELS
 10
-0.7800000000000003
 20
-0.0100000000000007
 30
0.1042264973081037
 11
-0.7800000000000003
 21
-0.0100000000000007
 31
0.0642264973081038
 12
-0.7600000000000003
 22
-0.0100000000000007
 32
0.0642264973081038
 13
-0.7600000000000003
 23
-0.0100000000000007
 33
0.1042264973081037
  0
3DFACE
  5
1099
  8
WHEELS
 10
-0.7800000000000003
 20
-0.0952627944162883
 30
0.0434529946162072
 11
-0.7800000000000003
 21
-0.0606217782649106
 31
0.0234529946162072
 12
-0.7600000000000003
 22
-0.0606217782649106
 32
0.0234529946162072
 13
-0.7600000000000003
 23
-0.0952627944162883
 33
0.0434529946162072
  0
3DFACE
  5
109A
  8
WHEELS
 10
-0.7800000000000003
 20
-0.0506217782649108
 30
0.0407735026918962
 11
-0.7800000000000003
 21
-0.0852627944162885
 31
0.0607735026918963
 12
-0.7600000000000003
 22
-0.0852627944162885
 32
0.0607735026918963
 13
-0.7600000000000003
 23
-0.0506217782649108
 33
0.0407735026918962
  0
3DFACE
  5
109B
  8
WHEELS
 10
-0.7800000000000003
 20
-0.0852627944162885
 30
-0.0607735026918964
 11
-0.7800000000000003
 21
-0.0506217782649108
 31
-0.0407735026918966
 12
-0.7600000000000003
 22
-0.0506217782649108
 32
-0.0407735026918966
 13
-0.7600000000000003
 23
-0.0852627944162885
 33
-0.0607735026918964
  0
3DFACE
  5
109C
  8
WHEELS
 10
-0.7800000000000003
 20
-0.0606217782649106
 30
-0.0234529946162075
 11
-0.7800000000000003
 21
-0.0952627944162883
 31
-0.0434529946162075
 12
-0.7600000000000003
 22
-0.0952627944162883
 32
-0.0434529946162075
 13
-0.7600000000000003
 23
-0.0606217782649106
 33
-0.0234529946162075
  0
3DFACE
  5
109D
  8
WHEELS
 10
-0.7800000000000003
 20
0.0100000000000007
 30
-0.1042264973081037
 11
-0.7800000000000003
 21
0.0100000000000007
 31
-0.0642264973081038
 12
-0.7600000000000002
 22
0.0100000000000007
 32
-0.0642264973081038
 13
-0.7600000000000002
 23
0.0100000000000007
 33
-0.1042264973081037
  0
3DFACE
  5
109E
  8
WHEELS
 10
-0.7800000000000003
 20
-0.0099999999999998
 30
-0.0642264973081039
 11
-0.7800000000000003
 21
-0.0099999999999998
 31
-0.1042264973081038
 12
-0.7600000000000003
 22
-0.0099999999999998
 32
-0.1042264973081038
 13
-0.7600000000000003
 23
-0.0099999999999998
 33
-0.064226497308104
  0
3DFACE
  5
109F
  8
WHEELS
 10
-0.7800000000000003
 20
0.0952627944162883
 30
-0.0434529946162073
 11
-0.7800000000000003
 21
0.0606217782649106
 31
-0.0234529946162073
 12
-0.7600000000000002
 22
0.0606217782649106
 32
-0.0234529946162073
 13
-0.7600000000000002
 23
0.0952627944162883
 33
-0.0434529946162073
  0
3DFACE
  5
10A0
  8
WHEELS
 10
-0.7800000000000003
 20
0.0506217782649108
 30
-0.0407735026918963
 11
-0.7800000000000003
 21
0.0852627944162885
 31
-0.0607735026918964
 12
-0.7600000000000002
 22
0.0852627944162885
 32
-0.0607735026918964
 13
-0.7600000000000002
 23
0.0506217782649108
 33
-0.0407735026918966
  0
3DFACE
  5
10A1
  8
WHEELS
 10
-0.7800000000000003
 20
0.0852627944162885
 30
0.0607735026918965
 11
-0.7800000000000003
 21
0.0506217782649108
 31
0.0407735026918965
 12
-0.7600000000000002
 22
0.0506217782649108
 32
0.0407735026918965
 13
-0.7600000000000002
 23
0.0852627944162885
 33
0.0607735026918965
  0
3DFACE
  5
10A2
  8
WHEELS
 10
-0.7800000000000003
 20
0.0606217782649106
 30
0.0234529946162074
 11
-0.7800000000000003
 21
0.0952627944162883
 31
0.0434529946162074
 12
-0.7600000000000002
 22
0.0952627944162883
 32
0.0434529946162074
 13
-0.7600000000000002
 23
0.0606217782649106
 33
0.0234529946162076
  0
3DFACE
  5
10A3
  8
WHEELS
 10
-0.7600000000000003
 20
-0.0100000000000007
 30
0.0642264973081038
 11
-0.7600000000000003
 21
-0.0506217782649108
 31
0.0407735026918962
 12
-0.6600000000000003
 22
-0.0606217782649106
 32
0.0350000000000001
 13
-0.6600000000000003
 23
0.0
 33
0.0700000000000002
  0
3DFACE
  5
10A4
  8
WHEELS
 10
-0.7600000000000003
 20
0.0
 30
0.0700000000000001
 11
-0.7600000000000003
 21
-0.0100000000000007
 31
0.0642264973081038
 12
-0.6600000000000003
 22
0.0
 32
0.0700000000000002
 13
-0.6600000000000003
 23
0.0
 33
0.0700000000000002
  0
3DFACE
  5
10A5
  8
WHEELS
 10
-0.7600000000000003
 20
-0.0506217782649108
 30
0.0407735026918965
 11
-0.7600000000000003
 21
-0.0606217782649106
 31
0.0350000000000001
 12
-0.6600000000000003
 22
-0.0606217782649106
 32
0.0350000000000001
 13
-0.6600000000000003
 23
-0.0606217782649106
 33
0.0350000000000001
  0
3DFACE
  5
10A6
  8
WHEELS
 10
-0.7800000000000003
 20
-0.0100000000000007
 30
0.0642264973081038
 11
-0.7800000000000003
 21
-0.0506217782649108
 31
0.0407735026918962
 12
-0.7600000000000003
 22
-0.0506217782649108
 32
0.0407735026918962
 13
-0.7600000000000003
 23
-0.0100000000000007
 33
0.0642264973081038
  0
3DFACE
  5
10A7
  8
WHEELS
 10
-0.7800000000000003
 20
-0.0606217782649106
 30
0.0234529946162072
 11
-0.7800000000000003
 21
-0.0606217782649106
 31
-0.0234529946162075
 12
-0.7600000000000003
 22
-0.0606217782649106
 32
-0.0234529946162075
 13
-0.7600000000000003
 23
-0.0606217782649106
 33
0.0234529946162072
  0
3DFACE
  5
10A8
  8
WHEELS
 10
-0.7600000000000003
 20
-0.0606217782649106
 30
0.0234529946162072
 11
-0.7600000000000003
 21
-0.0606217782649106
 31
-0.0234529946162075
 12
-0.6600000000000003
 22
-0.0606217782649106
 32
-0.0349999999999998
 13
-0.6600000000000003
 23
-0.0606217782649106
 33
0.0350000000000001
  0
3DFACE
  5
10A9
  8
WHEELS
 10
-0.7600000000000003
 20
-0.0606217782649106
 30
0.0349999999999999
 11
-0.7600000000000003
 21
-0.0606217782649106
 31
0.0234529946162072
 12
-0.6600000000000003
 22
-0.0606217782649106
 32
0.0350000000000001
 13
-0.6600000000000003
 23
-0.0606217782649106
 33
0.0350000000000001
  0
3DFACE
  5
10AA
  8
WHEELS
 10
-0.7600000000000003
 20
-0.0606217782649106
 30
-0.0234529946162073
 11
-0.7600000000000003
 21
-0.0606217782649106
 31
-0.0349999999999998
 12
-0.6600000000000003
 22
-0.0606217782649106
 32
-0.0349999999999998
 13
-0.6600000000000003
 23
-0.0606217782649106
 33
-0.0349999999999998
  0
3DFACE
  5
10AB
  8
WHEELS
 10
-0.7800000000000003
 20
-0.0506217782649108
 30
-0.0407735026918966
 11
-0.7800000000000003
 21
-0.0099999999999998
 31
-0.0642264973081035
 12
-0.7600000000000003
 22
-0.0099999999999998
 32
-0.0642264973081035
 13
-0.7600000000000003
 23
-0.0506217782649108
 33
-0.0407735026918966
  0
3DFACE
  5
10AC
  8
WHEELS
 10
-0.7600000000000003
 20
-0.0506217782649108
 30
-0.0407735026918966
 11
-0.7600000000000003
 21
-0.0099999999999998
 31
-0.0642264973081035
 12
-0.6600000000000003
 22
0.0
 32
-0.0699999999999997
 13
-0.6600000000000003
 23
-0.0606217782649106
 33
-0.035
  0
3DFACE
  5
10AD
  8
WHEELS
 10
-0.7600000000000003
 20
-0.0606217782649106
 30
-0.035
 11
-0.7600000000000003
 21
-0.0506217782649108
 31
-0.0407735026918966
 12
-0.6600000000000003
 22
-0.0606217782649106
 32
-0.035
 13
-0.6600000000000003
 23
-0.0606217782649106
 33
-0.035
  0
3DFACE
  5
10AE
  8
WHEELS
 10
-0.7600000000000003
 20
-0.0100000000000007
 30
-0.0642264973081035
 11
-0.7600000000000003
 21
0.0
 31
-0.0699999999999997
 12
-0.6600000000000003
 22
0.0
 32
-0.0699999999999997
 13
-0.6600000000000003
 23
0.0
 33
-0.0699999999999997
  0
3DFACE
  5
10AF
  8
WHEELS
 10
-0.7800000000000003
 20
0.0100000000000007
 30
-0.0642264973081038
 11
-0.7800000000000003
 21
0.0506217782649108
 31
-0.0407735026918963
 12
-0.7600000000000002
 22
0.0506217782649108
 32
-0.0407735026918963
 13
-0.7600000000000002
 23
0.0100000000000007
 33
-0.0642264973081038
  0
3DFACE
  5
10B0
  8
WHEELS
 10
-0.7600000000000002
 20
0.0100000000000007
 30
-0.0642264973081038
 11
-0.7600000000000002
 21
0.0506217782649108
 31
-0.0407735026918963
 12
-0.6600000000000003
 22
0.0606217782649106
 32
-0.0350000000000001
 13
-0.6600000000000003
 23
0.0
 33
-0.0700000000000002
  0
3DFACE
  5
10B1
  8
WHEELS
 10
-0.7600000000000003
 20
0.0
 30
-0.0700000000000001
 11
-0.7600000000000002
 21
0.0100000000000007
 31
-0.0642264973081038
 12
-0.6600000000000003
 22
0.0
 32
-0.0700000000000002
 13
-0.6600000000000003
 23
0.0
 33
-0.0700000000000002
  0
3DFACE
  5
10B2
  8
WHEELS
 10
-0.7600000000000002
 20
0.0506217782649108
 30
-0.0407735026918965
 11
-0.7600000000000002
 21
0.0606217782649106
 31
-0.0350000000000001
 12
-0.6600000000000003
 22
0.0606217782649106
 32
-0.0350000000000001
 13
-0.6600000000000003
 23
0.0606217782649106
 33
-0.0350000000000001
  0
3DFACE
  5
10B3
  8
WHEELS
 10
-0.7800000000000003
 20
0.0606217782649106
 30
-0.0234529946162073
 11
-0.7800000000000003
 21
0.0606217782649106
 31
0.0234529946162074
 12
-0.7600000000000002
 22
0.0606217782649106
 32
0.0234529946162074
 13
-0.7600000000000002
 23
0.0606217782649106
 33
-0.0234529946162073
  0
3DFACE
  5
10B4
  8
WHEELS
 10
-0.7600000000000002
 20
0.0606217782649106
 30
-0.0234529946162073
 11
-0.7600000000000002
 21
0.0606217782649106
 31
0.0234529946162074
 12
-0.6600000000000003
 22
0.0606217782649106
 32
0.0349999999999997
 13
-0.6600000000000003
 23
0.0606217782649106
 33
-0.0350000000000002
  0
3DFACE
  5
10B5
  8
WHEELS
 10
-0.7600000000000002
 20
0.0606217782649106
 30
-0.0350000000000002
 11
-0.7600000000000002
 21
0.0606217782649106
 31
-0.0234529946162073
 12
-0.6600000000000003
 22
0.0606217782649106
 32
-0.0350000000000002
 13
-0.6600000000000003
 23
0.0606217782649106
 33
-0.0350000000000002
  0
3DFACE
  5
10B6
  8
WHEELS
 10
-0.7600000000000002
 20
0.0606217782649106
 30
0.0234529946162069
 11
-0.7600000000000002
 21
0.0606217782649106
 31
0.0349999999999997
 12
-0.6600000000000003
 22
0.0606217782649106
 32
0.0349999999999997
 13
-0.6600000000000003
 23
0.0606217782649106
 33
0.0349999999999997
  0
3DFACE
  5
10B7
  8
WHEELS
 10
-0.7800000000000003
 20
0.0506217782649108
 30
0.0407735026918965
 11
-0.7800000000000003
 21
0.0100000000000007
 31
0.0642264973081039
 12
-0.7600000000000002
 22
0.0100000000000007
 32
0.0642264973081039
 13
-0.7600000000000002
 23
0.0506217782649108
 33
0.0407735026918965
  0
3DFACE
  5
10B8
  8
WHEELS
 10
-0.7600000000000002
 20
0.0506217782649108
 30
0.0407735026918965
 11
-0.7600000000000002
 21
0.0100000000000007
 31
0.0642264973081039
 12
-0.6600000000000003
 22
0.0
 32
0.07
 13
-0.6600000000000003
 23
0.0606217782649106
 33
0.0350000000000001
  0
3DFACE
  5
10B9
  8
WHEELS
 10
-0.7600000000000002
 20
0.0606217782649106
 30
0.0349999999999999
 11
-0.7600000000000002
 21
0.0506217782649108
 31
0.0407735026918965
 12
-0.6600000000000003
 22
0.0606217782649106
 32
0.0350000000000001
 13
-0.6600000000000003
 23
0.0606217782649106
 33
0.0350000000000001
  0
3DFACE
  5
10BA
  8
WHEELS
 10
-0.7600000000000002
 20
0.0100000000000007
 30
0.0642264973081034
 11
-0.7600000000000003
 21
0.0000000000000009
 31
0.07
 12
-0.6600000000000003
 22
0.0000000000000009
 32
0.07
 13
-0.6600000000000003
 23
0.0000000000000009
 33
0.07
  0
3DFACE
  5
10BB
  8
WHEELS
 10
-0.7800000000000003
 20
-0.1202081528017134
 30
-0.1202081528017132
 11
-0.7800000000000003
 21
-0.1699999999999999
 31
-0.0000000000000001
 12
-0.7800000000000003
 22
-0.0952627944162883
 32
0.0549999999999995
 13
-0.7800000000000003
 23
-0.0952627944162883
 33
-0.0550000000000004
  0
3DFACE
  5
10BC
  8
WHEELS
 10
-0.7800000000000003
 20
-0.1699999999999999
 30
-0.0000000000000001
 11
-0.7800000000000003
 21
-0.1202081528017134
 31
0.120208152801713
 12
-0.7800000000000003
 22
-0.1202081528017134
 32
0.120208152801713
 13
-0.7800000000000003
 23
-0.0952627944162883
 33
0.0549999999999995
  0
3DFACE
  5
10BD
  8
WHEELS
 10
-0.7800000000000003
 20
0.1699999999999999
 30
0.0
 11
-0.7800000000000003
 21
0.1202081528017134
 31
-0.1202081528017131
 12
-0.7800000000000003
 22
0.1202081528017134
 32
-0.1202081528017131
 13
-0.7800000000000003
 23
0.0952627944162883
 33
-0.0549999999999996
  0
3DFACE
  5
10BE
  8
WHEELS
 10
-0.7800000000000003
 20
0.1202081528017134
 30
0.1202081528017131
 11
-0.7800000000000003
 21
0.1699999999999999
 31
0.0
 12
-0.7800000000000003
 22
0.0952627944162883
 32
-0.0549999999999996
 13
-0.7800000000000003
 23
0.0952627944162883
 33
0.0550000000000003
  0
3DFACE
  5
10BF
  8
WHEELS
 10
-0.7800000000000003
 20
-0.0606217782649106
 30
0.0350000000000001
 11
-0.7800000000000003
 21
0.0606217782649106
 31
-0.0349999999999999
 12
-0.7800000000000003
 22
0.0
 32
-0.07
 13
-0.7800000000000003
 23
-0.0606217782649106
 33
-0.0349999999999999
  0
3DFACE
  5
10C0
  8
WHEELS
 10
-0.7800000000000003
 20
0.0
 30
0.0700000000000003
 11
-0.7800000000000003
 21
0.0606217782649106
 31
0.0350000000000002
 12
-0.7800000000000003
 22
0.0606217782649106
 32
-0.0349999999999999
 13
-0.7800000000000003
 23
-0.0606217782649106
 33
0.0350000000000002
  0
3DFACE
  5
10C1
  8
WHEELS
 10
-0.9599999999999999
 20
-0.1202081528017134
 30
-0.1202081528017132
 11
-0.9599999999999999
 21
-0.1699999999999999
 31
-0.0000000000000001
 12
-0.9599999999999999
 22
-0.0952627944162883
 32
0.0549999999999995
 13
-0.9599999999999999
 23
-0.0952627944162883
 33
-0.0550000000000004
  0
3DFACE
  5
10C2
  8
WHEELS
 10
-0.9599999999999999
 20
-0.1699999999999999
 30
-0.0000000000000001
 11
-0.9599999999999999
 21
-0.1202081528017134
 31
0.120208152801713
 12
-0.9599999999999999
 22
-0.1202081528017134
 32
0.120208152801713
 13
-0.9599999999999999
 23
-0.0952627944162883
 33
0.0549999999999995
  0
3DFACE
  5
10C3
  8
WHEELS
 10
-0.9599999999999999
 20
0.1699999999999999
 30
0.0
 11
-0.9599999999999999
 21
0.1202081528017134
 31
-0.1202081528017131
 12
-0.9599999999999999
 22
0.1202081528017134
 32
-0.1202081528017131
 13
-0.9599999999999999
 23
0.0952627944162883
 33
-0.0549999999999996
  0
3DFACE
  5
10C4
  8
WHEELS
 10
-0.9599999999999999
 20
0.1202081528017134
 30
0.1202081528017131
 11
-0.9599999999999999
 21
0.1699999999999999
 31
0.0
 12
-0.9599999999999999
 22
0.0952627944162883
 32
-0.0549999999999996
 13
-0.9599999999999999
 23
0.0952627944162883
 33
0.0550000000000003
  0
3DFACE
  5
10C5
  8
WHEELS
 10
-0.9599999999999999
 20
-0.0606217782649106
 30
0.0350000000000001
 11
-0.9599999999999999
 21
0.0606217782649106
 31
-0.0349999999999999
 12
-0.9599999999999999
 22
0.0
 32
-0.07
 13
-0.9599999999999999
 23
-0.0606217782649106
 33
-0.0349999999999999
  0
3DFACE
  5
10C6
  8
WHEELS
 10
-0.9599999999999999
 20
0.0
 30
0.0700000000000003
 11
-0.9599999999999999
 21
0.0606217782649106
 31
0.0350000000000002
 12
-0.9599999999999999
 22
0.0606217782649106
 32
-0.0349999999999999
 13
-0.9599999999999999
 23
-0.0606217782649106
 33
0.0350000000000002
  0
3DFACE
  5
10C7
  8
WHEELS
 10
-0.8599999999999999
 20
-0.0100000000000007
 30
0.0642264973081034
 11
-0.8599999999999999
 21
-0.0000000000000009
 31
0.07
 12
-0.9599999999999999
 22
-0.0000000000000009
 32
0.07
 13
-0.9599999999999999
 23
-0.0000000000000009
 33
0.07
  0
3DFACE
  5
10C8
  8
WHEELS
 10
-0.8599999999999999
 20
-0.0606217782649106
 30
0.0349999999999999
 11
-0.8599999999999999
 21
-0.0506217782649108
 31
0.0407735026918965
 12
-0.9599999999999999
 22
-0.0606217782649106
 32
0.0350000000000001
 13
-0.9599999999999999
 23
-0.0606217782649106
 33
0.0350000000000001
  0
3DFACE
  5
10C9
  8
WHEELS
 10
-0.8599999999999999
 20
-0.0506217782649108
 30
0.0407735026918965
 11
-0.8599999999999999
 21
-0.0100000000000007
 31
0.0642264973081039
 12
-0.9599999999999999
 22
0.0
 32
0.07
 13
-0.9599999999999999
 23
-0.0606217782649106
 33
0.0350000000000001
  0
3DFACE
  5
10CA
  8
WHEELS
 10
-0.84
 20
-0.0506217782649108
 30
0.0407735026918965
 11
-0.84
 21
-0.0100000000000007
 31
0.0642264973081039
 12
-0.8599999999999999
 22
-0.0100000000000007
 32
0.0642264973081039
 13
-0.8599999999999999
 23
-0.0506217782649108
 33
0.0407735026918965
  0
3DFACE
  5
10CB
  8
WHEELS
 10
-0.8599999999999999
 20
-0.0606217782649106
 30
0.0234529946162069
 11
-0.8599999999999999
 21
-0.0606217782649106
 31
0.0349999999999997
 12
-0.9599999999999999
 22
-0.0606217782649106
 32
0.0349999999999997
 13
-0.9599999999999999
 23
-0.0606217782649106
 33
0.0349999999999997
  0
3DFACE
  5
10CC
  8
WHEELS
 10
-0.8599999999999999
 20
-0.0606217782649106
 30
-0.0350000000000002
 11
-0.8599999999999999
 21
-0.0606217782649106
 31
-0.0234529946162073
 12
-0.9599999999999999
 22
-0.0606217782649106
 32
-0.0350000000000002
 13
-0.9599999999999999
 23
-0.0606217782649106
 33
-0.0350000000000002
  0
3DFACE
  5
10CD
  8
WHEELS
 10
-0.8599999999999999
 20
-0.0606217782649106
 30
-0.0234529946162073
 11
-0.8599999999999999
 21
-0.0606217782649106
 31
0.0234529946162074
 12
-0.9599999999999999
 22
-0.0606217782649106
 32
0.0349999999999997
 13
-0.9599999999999999
 23
-0.0606217782649106
 33
-0.0350000000000002
  0
3DFACE
  5
10CE
  8
WHEELS
 10
-0.84
 20
-0.0606217782649106
 30
-0.0234529946162073
 11
-0.84
 21
-0.0606217782649106
 31
0.0234529946162074
 12
-0.8599999999999999
 22
-0.0606217782649106
 32
0.0234529946162074
 13
-0.8599999999999999
 23
-0.0606217782649106
 33
-0.0234529946162073
  0
3DFACE
  5
10CF
  8
WHEELS
 10
-0.8599999999999999
 20
-0.0506217782649108
 30
-0.0407735026918965
 11
-0.8599999999999999
 21
-0.0606217782649106
 31
-0.0350000000000001
 12
-0.9599999999999999
 22
-0.0606217782649106
 32
-0.0350000000000001
 13
-0.9599999999999999
 23
-0.0606217782649106
 33
-0.0350000000000001
  0
3DFACE
  5
10D0
  8
WHEELS
 10
-0.8599999999999999
 20
0.0
 30
-0.0700000000000001
 11
-0.8599999999999999
 21
-0.0100000000000007
 31
-0.0642264973081038
 12
-0.9599999999999999
 22
0.0
 32
-0.0700000000000002
 13
-0.9599999999999999
 23
0.0
 33
-0.0700000000000002
  0
3DFACE
  5
10D1
  8
WHEELS
 10
-0.8599999999999999
 20
-0.0100000000000007
 30
-0.0642264973081038
 11
-0.8599999999999999
 21
-0.0506217782649108
 31
-0.0407735026918963
 12
-0.9599999999999999
 22
-0.0606217782649106
 32
-0.0350000000000001
 13
-0.9599999999999999
 23
0.0
 33
-0.0700000000000002
  0
3DFACE
  5
10D2
  8
WHEELS
 10
-0.84
 20
-0.0100000000000007
 30
-0.0642264973081038
 11
-0.84
 21
-0.0506217782649108
 31
-0.0407735026918963
 12
-0.8599999999999999
 22
-0.0506217782649108
 32
-0.0407735026918963
 13
-0.8599999999999999
 23
-0.0100000000000007
 33
-0.0642264973081038
  0
3DFACE
  5
10D3
  8
WHEELS
 10
-0.8599999999999999
 20
0.0100000000000007
 30
-0.0642264973081035
 11
-0.8599999999999999
 21
0.0
 31
-0.0699999999999997
 12
-0.9599999999999999
 22
0.0
 32
-0.0699999999999997
 13
-0.9599999999999999
 23
0.0
 33
-0.0699999999999997
  0
3DFACE
  5
10D4
  8
WHEELS
 10
-0.8599999999999999
 20
0.0606217782649106
 30
-0.035
 11
-0.8599999999999999
 21
0.0506217782649108
 31
-0.0407735026918966
 12
-0.9599999999999999
 22
0.0606217782649106
 32
-0.035
 13
-0.9599999999999999
 23
0.0606217782649106
 33
-0.035
  0
3DFACE
  5
10D5
  8
WHEELS
 10
-0.8599999999999999
 20
0.0506217782649108
 30
-0.0407735026918966
 11
-0.8599999999999999
 21
0.0099999999999998
 31
-0.0642264973081035
 12
-0.9599999999999999
 22
0.0
 32
-0.0699999999999997
 13
-0.9599999999999999
 23
0.0606217782649106
 33
-0.035
  0
3DFACE
  5
10D6
  8
WHEELS
 10
-0.84
 20
0.0506217782649108
 30
-0.0407735026918966
 11
-0.84
 21
0.0099999999999998
 31
-0.0642264973081035
 12
-0.8599999999999999
 22
0.0099999999999998
 32
-0.0642264973081035
 13
-0.8599999999999999
 23
0.0506217782649108
 33
-0.0407735026918966
  0
3DFACE
  5
10D7
  8
WHEELS
 10
-0.8599999999999999
 20
0.0606217782649106
 30
-0.0234529946162073
 11
-0.8599999999999999
 21
0.0606217782649106
 31
-0.0349999999999998
 12
-0.9599999999999999
 22
0.0606217782649106
 32
-0.0349999999999998
 13
-0.9599999999999999
 23
0.0606217782649106
 33
-0.0349999999999998
  0
3DFACE
  5
10D8
  8
WHEELS
 10
-0.8599999999999999
 20
0.0606217782649106
 30
0.0349999999999999
 11
-0.8599999999999999
 21
0.0606217782649106
 31
0.0234529946162072
 12
-0.9599999999999999
 22
0.0606217782649106
 32
0.0350000000000001
 13
-0.9599999999999999
 23
0.0606217782649106
 33
0.0350000000000001
  0
3DFACE
  5
10D9
  8
WHEELS
 10
-0.8599999999999999
 20
0.0606217782649106
 30
0.0234529946162072
 11
-0.8599999999999999
 21
0.0606217782649106
 31
-0.0234529946162075
 12
-0.9599999999999999
 22
0.0606217782649106
 32
-0.0349999999999998
 13
-0.9599999999999999
 23
0.0606217782649106
 33
0.0350000000000001
  0
3DFACE
  5
10DA
  8
WHEELS
 10
-0.84
 20
0.0606217782649106
 30
0.0234529946162072
 11
-0.84
 21
0.0606217782649106
 31
-0.0234529946162075
 12
-0.8599999999999999
 22
0.0606217782649106
 32
-0.0234529946162075
 13
-0.8599999999999999
 23
0.0606217782649106
 33
0.0234529946162072
  0
3DFACE
  5
10DB
  8
WHEELS
 10
-0.84
 20
0.0100000000000007
 30
0.0642264973081038
 11
-0.84
 21
0.0506217782649108
 31
0.0407735026918962
 12
-0.8599999999999999
 22
0.0506217782649108
 32
0.0407735026918962
 13
-0.8599999999999999
 23
0.0100000000000007
 33
0.0642264973081038
  0
3DFACE
  5
10DC
  8
WHEELS
 10
-0.8599999999999999
 20
0.0506217782649108
 30
0.0407735026918965
 11
-0.8599999999999999
 21
0.0606217782649106
 31
0.0350000000000001
 12
-0.9599999999999999
 22
0.0606217782649106
 32
0.0350000000000001
 13
-0.9599999999999999
 23
0.0606217782649106
 33
0.0350000000000001
  0
3DFACE
  5
10DD
  8
WHEELS
 10
-0.8599999999999999
 20
0.0
 30
0.0700000000000001
 11
-0.8599999999999999
 21
0.0100000000000007
 31
0.0642264973081038
 12
-0.9599999999999999
 22
0.0
 32
0.0700000000000002
 13
-0.9599999999999999
 23
0.0
 33
0.0700000000000002
  0
3DFACE
  5
10DE
  8
WHEELS
 10
-0.8599999999999999
 20
0.0100000000000007
 30
0.0642264973081038
 11
-0.8599999999999999
 21
0.0506217782649108
 31
0.0407735026918962
 12
-0.9599999999999999
 22
0.0606217782649106
 32
0.0350000000000001
 13
-0.9599999999999999
 23
0.0
 33
0.0700000000000002
  0
3DFACE
  5
10DF
  8
WHEELS
 10
-0.84
 20
-0.0606217782649106
 30
0.0234529946162074
 11
-0.84
 21
-0.0952627944162883
 31
0.0434529946162074
 12
-0.8599999999999999
 22
-0.0952627944162883
 32
0.0434529946162074
 13
-0.8599999999999999
 23
-0.0606217782649106
 33
0.0234529946162076
  0
3DFACE
  5
10E0
  8
WHEELS
 10
-0.84
 20
-0.0852627944162885
 30
0.0607735026918965
 11
-0.84
 21
-0.0506217782649108
 31
0.0407735026918965
 12
-0.8599999999999999
 22
-0.0506217782649108
 32
0.0407735026918965
 13
-0.8599999999999999
 23
-0.0852627944162885
 33
0.0607735026918965
  0
3DFACE
  5
10E1
  8
WHEELS
 10
-0.8599999999999999
 20
-0.0606217782649106
 30
0.0349999999999999
 11
-0.8599999999999999
 21
-0.0952627944162883
 31
0.0549999999999999
 12
-0.8599999999999999
 22
-0.0852627944162885
 32
0.0607735026918965
 13
-0.8599999999999999
 23
-0.0506217782649108
 33
0.0407735026918965
  0
3DFACE
  5
10E2
  8
WHEELS
 10
-0.8599999999999999
 20
-0.0606217782649106
 30
0.0234529946162074
 11
-0.8599999999999999
 21
-0.0952627944162883
 31
0.0434529946162074
 12
-0.8599999999999999
 22
-0.0952627944162883
 32
0.0549999999999999
 13
-0.8599999999999999
 23
-0.0606217782649106
 33
0.0349999999999999
  0
3DFACE
  5
10E3
  8
WHEELS
 10
-0.84
 20
-0.0506217782649108
 30
-0.0407735026918963
 11
-0.84
 21
-0.0852627944162885
 31
-0.0607735026918964
 12
-0.8599999999999999
 22
-0.0852627944162885
 32
-0.0607735026918964
 13
-0.8599999999999999
 23
-0.0506217782649108
 33
-0.0407735026918966
  0
3DFACE
  5
10E4
  8
WHEELS
 10
-0.84
 20
-0.0952627944162883
 30
-0.0434529946162073
 11
-0.84
 21
-0.0606217782649106
 31
-0.0234529946162073
 12
-0.8599999999999999
 22
-0.0606217782649106
 32
-0.0234529946162073
 13
-0.8599999999999999
 23
-0.0952627944162883
 33
-0.0434529946162073
  0
3DFACE
  5
10E5
  8
WHEELS
 10
-0.8599999999999999
 20
-0.0606217782649106
 30
-0.0350000000000002
 11
-0.8599999999999999
 21
-0.0952627944162883
 31
-0.0550000000000002
 12
-0.8599999999999999
 22
-0.0952627944162883
 32
-0.0434529946162073
 13
-0.8599999999999999
 23
-0.0606217782649106
 33
-0.0234529946162073
  0
3DFACE
  5
10E6
  8
WHEELS
 10
-0.8599999999999999
 20
-0.0506217782649108
 30
-0.0407735026918963
 11
-0.8599999999999999
 21
-0.0852627944162885
 31
-0.0607735026918964
 12
-0.8599999999999999
 22
-0.0952627944162883
 32
-0.0550000000000002
 13
-0.8599999999999999
 23
-0.0606217782649106
 33
-0.0350000000000002
  0
3DFACE
  5
10E7
  8
WHEELS
 10
-0.84
 20
0.0099999999999998
 30
-0.0642264973081039
 11
-0.84
 21
0.0099999999999998
 31
-0.1042264973081038
 12
-0.8599999999999999
 22
0.0099999999999998
 32
-0.1042264973081038
 13
-0.8599999999999999
 23
0.0099999999999998
 33
-0.064226497308104
  0
3DFACE
  5
10E8
  8
WHEELS
 10
-0.84
 20
-0.0100000000000007
 30
-0.1042264973081037
 11
-0.84
 21
-0.0100000000000007
 31
-0.0642264973081038
 12
-0.8599999999999999
 22
-0.0100000000000007
 32
-0.0642264973081038
 13
-0.8599999999999999
 23
-0.0100000000000007
 33
-0.1042264973081037
  0
3DFACE
  5
10E9
  8
WHEELS
 10
-0.8599999999999999
 20
0.0
 30
-0.0700000000000001
 11
-0.8599999999999999
 21
0.0
 31
-0.11
 12
-0.8599999999999999
 22
-0.0100000000000007
 32
-0.1042264973081037
 13
-0.8599999999999999
 23
-0.0100000000000007
 33
-0.0642264973081038
  0
3DFACE
  5
10EA
  8
WHEELS
 10
-0.8599999999999999
 20
0.0099999999999998
 30
-0.0642264973081039
 11
-0.8599999999999999
 21
0.0099999999999998
 31
-0.1042264973081038
 12
-0.8599999999999999
 22
0.0
 32
-0.11
 13
-0.8599999999999999
 23
0.0
 33
-0.0700000000000001
  0
3DFACE
  5
10EB
  8
WHEELS
 10
-0.84
 20
0.0606217782649106
 30
-0.0234529946162075
 11
-0.84
 21
0.0952627944162883
 31
-0.0434529946162075
 12
-0.8599999999999999
 22
0.0952627944162883
 32
-0.0434529946162075
 13
-0.8599999999999999
 23
0.0606217782649106
 33
-0.0234529946162075
  0
3DFACE
  5
10EC
  8
WHEELS
 10
-0.84
 20
0.0852627944162885
 30
-0.0607735026918964
 11
-0.84
 21
0.0506217782649108
 31
-0.0407735026918966
 12
-0.8599999999999999
 22
0.0506217782649108
 32
-0.0407735026918966
 13
-0.8599999999999999
 23
0.0852627944162885
 33
-0.0607735026918964
  0
3DFACE
  5
10ED
  8
WHEELS
 10
-0.8599999999999999
 20
0.0606217782649106
 30
-0.035
 11
-0.8599999999999999
 21
0.0952627944162883
 31
-0.055
 12
-0.8599999999999999
 22
0.0852627944162885
 32
-0.0607735026918964
 13
-0.8599999999999999
 23
0.0506217782649108
 33
-0.0407735026918966
  0
3DFACE
  5
10EE
  8
WHEELS
 10
-0.8599999999999999
 20
0.0606217782649106
 30
-0.0234529946162075
 11
-0.8599999999999999
 21
0.0952627944162883
 31
-0.0434529946162075
 12
-0.8599999999999999
 22
0.0952627944162883
 32
-0.055
 13
-0.8599999999999999
 23
0.0606217782649106
 33
-0.035
  0
3DFACE
  5
10EF
  8
WHEELS
 10
-0.84
 20
0.0506217782649108
 30
0.0407735026918962
 11
-0.84
 21
0.0852627944162885
 31
0.0607735026918963
 12
-0.8599999999999999
 22
0.0852627944162885
 32
0.0607735026918963
 13
-0.8599999999999999
 23
0.0506217782649108
 33
0.0407735026918962
  0
3DFACE
  5
10F0
  8
WHEELS
 10
-0.84
 20
0.0952627944162883
 30
0.0434529946162072
 11
-0.84
 21
0.0606217782649106
 31
0.0234529946162072
 12
-0.8599999999999999
 22
0.0606217782649106
 32
0.0234529946162072
 13
-0.8599999999999999
 23
0.0952627944162883
 33
0.0434529946162072
  0
3DFACE
  5
10F1
  8
WHEELS
 10
-0.8599999999999999
 20
0.0606217782649106
 30
0.0349999999999999
 11
-0.8599999999999999
 21
0.0952627944162883
 31
0.0549999999999999
 12
-0.8599999999999999
 22
0.0952627944162883
 32
0.0434529946162072
 13
-0.8599999999999999
 23
0.0606217782649106
 33
0.0234529946162072
  0
3DFACE
  5
10F2
  8
WHEELS
 10
-0.8599999999999999
 20
0.0506217782649108
 30
0.0407735026918962
 11
-0.8599999999999999
 21
0.0852627944162885
 31
0.0607735026918963
 12
-0.8599999999999999
 22
0.0952627944162883
 32
0.0549999999999999
 13
-0.8599999999999999
 23
0.0606217782649106
 33
0.0349999999999999
  0
3DFACE
  5
10F3
  8
WHEELS
 10
-0.8599999999999999
 20
-0.0099999999999998
 30
0.0642264973081039
 11
-0.8599999999999999
 21
-0.0099999999999998
 31
0.1042264973081038
 12
-0.8599999999999999
 22
0.0
 32
0.11
 13
-0.8599999999999999
 23
0.0
 33
0.0700000000000001
  0
3DFACE
  5
10F4
  8
WHEELS
 10
-0.8599999999999999
 20
0.0
 30
0.0700000000000001
 11
-0.8599999999999999
 21
0.0
 31
0.11
 12
-0.8599999999999999
 22
0.0100000000000007
 32
0.1042264973081037
 13
-0.8599999999999999
 23
0.0100000000000007
 33
0.0642264973081038
  0
3DFACE
  5
10F5
  8
WHEELS
 10
-0.84
 20
0.0100000000000007
 30
0.1042264973081037
 11
-0.84
 21
0.0100000000000007
 31
0.0642264973081038
 12
-0.8599999999999999
 22
0.0100000000000007
 32
0.0642264973081038
 13
-0.8599999999999999
 23
0.0100000000000007
 33
0.1042264973081037
  0
3DFACE
  5
10F6
  8
WHEELS
 10
-0.84
 20
-0.0099999999999998
 30
0.0642264973081039
 11
-0.84
 21
-0.0099999999999998
 31
0.1042264973081038
 12
-0.8599999999999999
 22
-0.0099999999999998
 32
0.1042264973081038
 13
-0.8599999999999999
 23
-0.0099999999999998
 33
0.064226497308104
  0
3DFACE
  5
10F7
  8
WHEELS
 10
-0.84
 20
-0.0952627944162883
 30
-0.0549999999999996
 11
-0.84
 21
0.0
 31
-0.1100000000000001
 12
-0.9599999999999999
 22
0.0
 32
-0.1100000000000001
 13
-0.9599999999999999
 23
-0.0952627944162883
 33
-0.0549999999999996
  0
3DFACE
  5
10F8
  8
WHEELS
 10
-0.84
 20
-0.0952627944162883
 30
0.0550000000000003
 11
-0.84
 21
-0.0952627944162883
 31
-0.0549999999999996
 12
-0.9599999999999999
 22
-0.0952627944162883
 32
-0.0549999999999996
 13
-0.9599999999999999
 23
-0.0952627944162883
 33
0.0550000000000003
  0
3DFACE
  5
10F9
  8
WHEELS
 10
-0.84
 20
0.0
 30
0.11
 11
-0.84
 21
-0.0952627944162883
 31
0.0550000000000003
 12
-0.9599999999999999
 22
-0.0952627944162883
 32
0.0550000000000003
 13
-0.9599999999999999
 23
0.0
 33
0.11
  0
3DFACE
  5
10FA
  8
WHEELS
 10
-0.84
 20
0.0952627944162883
 30
0.0550000000000003
 11
-0.84
 21
0.0
 31
0.11
 12
-0.9599999999999999
 22
0.0
 32
0.11
 13
-0.9599999999999999
 23
0.0952627944162883
 33
0.0550000000000003
  0
3DFACE
  5
10FB
  8
WHEELS
 10
-0.84
 20
0.0952627944162883
 30
-0.0549999999999996
 11
-0.84
 21
0.0952627944162883
 31
0.0550000000000003
 12
-0.9599999999999999
 22
0.0952627944162883
 32
0.0550000000000003
 13
-0.9599999999999999
 23
0.0952627944162883
 33
-0.0549999999999996
  0
3DFACE
  5
10FC
  8
WHEELS
 10
-0.84
 20
0.0
 30
-0.1100000000000001
 11
-0.84
 21
0.0952627944162883
 31
-0.0549999999999996
 12
-0.9599999999999999
 22
0.0952627944162883
 32
-0.0549999999999996
 13
-0.9599999999999999
 23
0.0
 33
-0.1100000000000001
  0
3DFACE
  5
10FD
  8
WHEELS
 10
-0.84
 20
-0.1202081528017134
 30
-0.1202081528017131
 11
-0.84
 21
-0.1699999999999999
 31
0.0
 12
-0.9599999999999999
 22
-0.1699999999999999
 32
0.0
 13
-0.9599999999999999
 23
-0.1202081528017134
 33
-0.1202081528017131
  0
3DFACE
  5
10FE
  8
WHEELS
 10
-0.84
 20
0.1699999999999999
 30
0.0
 11
-0.84
 21
0.1202081528017134
 31
-0.1202081528017131
 12
-0.9599999999999999
 22
0.1202081528017134
 32
-0.1202081528017131
 13
-0.9599999999999999
 23
0.1699999999999999
 33
0.0
  0
3DFACE
  5
10FF
  8
WHEELS
 10
-0.84
 20
0.1202081528017134
 30
0.1202081528017131
 11
-0.84
 21
0.1699999999999999
 31
0.0
 12
-0.9599999999999999
 22
0.1699999999999999
 32
0.0
 13
-0.9599999999999999
 23
0.1202081528017134
 33
0.1202081528017131
  0
3DFACE
  5
1100
  8
WHEELS
 10
-0.84
 20
-0.1699999999999999
 30
0.0
 11
-0.84
 21
-0.1202081528017134
 31
0.1202081528017131
 12
-0.9599999999999999
 22
-0.1202081528017134
 32
0.1202081528017131
 13
-0.9599999999999999
 23
-0.1699999999999999
 33
0.0
  0
3DFACE
  5
1181
  8
WHEELS
 10
0.84
 20
0.1699999999999999
 30
0.0
 11
0.84
 21
0.1202081528017134
 31
0.1202081528017131
 12
0.9599999999999999
 22
0.1202081528017134
 32
0.1202081528017131
 13
0.9599999999999999
 23
0.1699999999999999
 33
0.0
  0
3DFACE
  5
1182
  8
WHEELS
 10
0.84
 20
-0.1202081528017134
 30
0.1202081528017131
 11
0.84
 21
-0.1699999999999999
 31
0.0
 12
0.9599999999999999
 22
-0.1699999999999999
 32
0.0
 13
0.9599999999999999
 23
-0.1202081528017134
 33
0.1202081528017131
  0
3DFACE
  5
1183
  8
WHEELS
 10
0.84
 20
-0.1699999999999999
 30
0.0
 11
0.84
 21
-0.1202081528017134
 31
-0.1202081528017131
 12
0.9599999999999999
 22
-0.1202081528017134
 32
-0.1202081528017131
 13
0.9599999999999999
 23
-0.1699999999999999
 33
0.0
  0
3DFACE
  5
1184
  8
WHEELS
 10
0.84
 20
0.1202081528017134
 30
-0.1202081528017131
 11
0.84
 21
0.1699999999999999
 31
0.0
 12
0.9599999999999999
 22
0.1699999999999999
 32
0.0
 13
0.9599999999999999
 23
0.1202081528017134
 33
-0.1202081528017131
  0
3DFACE
  5
1185
  8
WHEELS
 10
0.84
 20
0.0
 30
-0.1100000000000001
 11
0.84
 21
-0.0952627944162883
 31
-0.0549999999999996
 12
0.9599999999999999
 22
-0.0952627944162883
 32
-0.0549999999999996
 13
0.9599999999999999
 23
0.0
 33
-0.1100000000000001
  0
3DFACE
  5
1186
  8
WHEELS
 10
0.84
 20
-0.0952627944162883
 30
-0.0549999999999996
 11
0.84
 21
-0.0952627944162883
 31
0.0550000000000003
 12
0.9599999999999999
 22
-0.0952627944162883
 32
0.0550000000000003
 13
0.9599999999999999
 23
-0.0952627944162883
 33
-0.0549999999999996
  0
3DFACE
  5
1187
  8
WHEELS
 10
0.84
 20
-0.0952627944162883
 30
0.0550000000000003
 11
0.84
 21
0.0
 31
0.11
 12
0.9599999999999999
 22
0.0
 32
0.11
 13
0.9599999999999999
 23
-0.0952627944162883
 33
0.0550000000000003
  0
3DFACE
  5
1188
  8
WHEELS
 10
0.84
 20
0.0
 30
0.11
 11
0.84
 21
0.0952627944162883
 31
0.0550000000000003
 12
0.9599999999999999
 22
0.0952627944162883
 32
0.0550000000000003
 13
0.9599999999999999
 23
0.0
 33
0.11
  0
3DFACE
  5
1189
  8
WHEELS
 10
0.84
 20
0.0952627944162883
 30
0.0550000000000003
 11
0.84
 21
0.0952627944162883
 31
-0.0549999999999996
 12
0.9599999999999999
 22
0.0952627944162883
 32
-0.0549999999999996
 13
0.9599999999999999
 23
0.0952627944162883
 33
0.0550000000000003
  0
3DFACE
  5
118A
  8
WHEELS
 10
0.84
 20
0.0952627944162883
 30
-0.0549999999999996
 11
0.84
 21
0.0
 31
-0.1100000000000001
 12
0.9599999999999999
 22
0.0
 32
-0.1100000000000001
 13
0.9599999999999999
 23
0.0952627944162883
 33
-0.0549999999999996
  0
3DFACE
  5
118B
  8
WHEELS
 10
0.84
 20
0.0099999999999998
 30
0.0642264973081039
 11
0.84
 21
0.0099999999999998
 31
0.1042264973081038
 12
0.8599999999999999
 22
0.0099999999999998
 32
0.1042264973081038
 13
0.8599999999999999
 23
0.0099999999999998
 33
0.064226497308104
  0
3DFACE
  5
118C
  8
WHEELS
 10
0.84
 20
-0.0100000000000007
 30
0.1042264973081037
 11
0.84
 21
-0.0100000000000007
 31
0.0642264973081038
 12
0.8599999999999999
 22
-0.0100000000000007
 32
0.0642264973081038
 13
0.8599999999999999
 23
-0.0100000000000007
 33
0.1042264973081037
  0
3DFACE
  5
118D
  8
WHEELS
 10
0.8599999999999999
 20
0.0
 30
0.0700000000000001
 11
0.8599999999999999
 21
0.0
 31
0.11
 12
0.8599999999999999
 22
-0.0100000000000007
 32
0.1042264973081037
 13
0.8599999999999999
 23
-0.0100000000000007
 33
0.0642264973081038
  0
3DFACE
  5
118E
  8
WHEELS
 10
0.8599999999999999
 20
0.0099999999999998
 30
0.0642264973081039
 11
0.8599999999999999
 21
0.0099999999999998
 31
0.1042264973081038
 12
0.8599999999999999
 22
0.0
 32
0.11
 13
0.8599999999999999
 23
0.0
 33
0.0700000000000001
  0
3DFACE
  5
118F
  8
WHEELS
 10
0.8599999999999999
 20
-0.0506217782649108
 30
0.0407735026918962
 11
0.8599999999999999
 21
-0.0852627944162885
 31
0.0607735026918963
 12
0.8599999999999999
 22
-0.0952627944162883
 32
0.0549999999999999
 13
0.8599999999999999
 23
-0.0606217782649106
 33
0.0349999999999999
  0
3DFACE
  5
1190
  8
WHEELS
 10
0.8599999999999999
 20
-0.0606217782649106
 30
0.0349999999999999
 11
0.8599999999999999
 21
-0.0952627944162883
 31
0.0549999999999999
 12
0.8599999999999999
 22
-0.0952627944162883
 32
0.0434529946162072
 13
0.8599999999999999
 23
-0.0606217782649106
 33
0.0234529946162072
  0
3DFACE
  5
1191
  8
WHEELS
 10
0.84
 20
-0.0952627944162883
 30
0.0434529946162072
 11
0.84
 21
-0.0606217782649106
 31
0.0234529946162072
 12
0.8599999999999999
 22
-0.0606217782649106
 32
0.0234529946162072
 13
0.8599999999999999
 23
-0.0952627944162883
 33
0.0434529946162072
  0
3DFACE
  5
1192
  8
WHEELS
 10
0.84
 20
-0.0506217782649108
 30
0.0407735026918962
 11
0.84
 21
-0.0852627944162885
 31
0.0607735026918963
 12
0.8599999999999999
 22
-0.0852627944162885
 32
0.0607735026918963
 13
0.8599999999999999
 23
-0.0506217782649108
 33
0.0407735026918962
  0
3DFACE
  5
1193
  8
WHEELS
 10
0.8599999999999999
 20
-0.0606217782649106
 30
-0.0234529946162075
 11
0.8599999999999999
 21
-0.0952627944162883
 31
-0.0434529946162075
 12
0.8599999999999999
 22
-0.0952627944162883
 32
-0.055
 13
0.8599999999999999
 23
-0.0606217782649106
 33
-0.035
  0
3DFACE
  5
1194
  8
WHEELS
 10
0.8599999999999999
 20
-0.0606217782649106
 30
-0.035
 11
0.8599999999999999
 21
-0.0952627944162883
 31
-0.055
 12
0.8599999999999999
 22
-0.0852627944162885
 32
-0.0607735026918964
 13
0.8599999999999999
 23
-0.0506217782649108
 33
-0.0407735026918966
  0
3DFACE
  5
1195
  8
WHEELS
 10
0.84
 20
-0.0852627944162885
 30
-0.0607735026918964
 11
0.84
 21
-0.0506217782649108
 31
-0.0407735026918966
 12
0.8599999999999999
 22
-0.0506217782649108
 32
-0.0407735026918966
 13
0.8599999999999999
 23
-0.0852627944162885
 33
-0.0607735026918964
  0
3DFACE
  5
1196
  8
WHEELS
 10
0.84
 20
-0.0606217782649106
 30
-0.0234529946162075
 11
0.84
 21
-0.0952627944162883
 31
-0.0434529946162075
 12
0.8599999999999999
 22
-0.0952627944162883
 32
-0.0434529946162075
 13
0.8599999999999999
 23
-0.0606217782649106
 33
-0.0234529946162075
  0
3DFACE
  5
1197
  8
WHEELS
 10
0.8599999999999999
 20
-0.0099999999999998
 30
-0.0642264973081039
 11
0.8599999999999999
 21
-0.0099999999999998
 31
-0.1042264973081038
 12
0.8599999999999999
 22
0.0
 32
-0.11
 13
0.8599999999999999
 23
0.0
 33
-0.0700000000000001
  0
3DFACE
  5
1198
  8
WHEELS
 10
0.8599999999999999
 20
0.0
 30
-0.0700000000000001
 11
0.8599999999999999
 21
0.0
 31
-0.11
 12
0.8599999999999999
 22
0.0100000000000007
 32
-0.1042264973081037
 13
0.8599999999999999
 23
0.0100000000000007
 33
-0.0642264973081038
  0
3DFACE
  5
1199
  8
WHEELS
 10
0.84
 20
0.0100000000000007
 30
-0.1042264973081037
 11
0.84
 21
0.0100000000000007
 31
-0.0642264973081038
 12
0.8599999999999999
 22
0.0100000000000007
 32
-0.0642264973081038
 13
0.8599999999999999
 23
0.0100000000000007
 33
-0.1042264973081037
  0
3DFACE
  5
119A
  8
WHEELS
 10
0.84
 20
-0.0099999999999998
 30
-0.0642264973081039
 11
0.84
 21
-0.0099999999999998
 31
-0.1042264973081038
 12
0.8599999999999999
 22
-0.0099999999999998
 32
-0.1042264973081038
 13
0.8599999999999999
 23
-0.0099999999999998
 33
-0.064226497308104
  0
3DFACE
  5
119B
  8
WHEELS
 10
0.8599999999999999
 20
0.0506217782649108
 30
-0.0407735026918963
 11
0.8599999999999999
 21
0.0852627944162885
 31
-0.0607735026918964
 12
0.8599999999999999
 22
0.0952627944162883
 32
-0.0550000000000002
 13
0.8599999999999999
 23
0.0606217782649106
 33
-0.0350000000000002
  0
3DFACE
  5
119C
  8
WHEELS
 10
0.8599999999999999
 20
0.0606217782649106
 30
-0.0350000000000002
 11
0.8599999999999999
 21
0.0952627944162883
 31
-0.0550000000000002
 12
0.8599999999999999
 22
0.0952627944162883
 32
-0.0434529946162073
 13
0.8599999999999999
 23
0.0606217782649106
 33
-0.0234529946162073
  0
3DFACE
  5
119D
  8
WHEELS
 10
0.84
 20
0.0952627944162883
 30
-0.0434529946162073
 11
0.84
 21
0.0606217782649106
 31
-0.0234529946162073
 12
0.8599999999999999
 22
0.0606217782649106
 32
-0.0234529946162073
 13
0.8599999999999999
 23
0.0952627944162883
 33
-0.0434529946162073
  0
3DFACE
  5
119E
  8
WHEELS
 10
0.84
 20
0.0506217782649108
 30
-0.0407735026918963
 11
0.84
 21
0.0852627944162885
 31
-0.0607735026918964
 12
0.8599999999999999
 22
0.0852627944162885
 32
-0.0607735026918964
 13
0.8599999999999999
 23
0.0506217782649108
 33
-0.0407735026918966
  0
3DFACE
  5
119F
  8
WHEELS
 10
0.8599999999999999
 20
0.0606217782649106
 30
0.0234529946162074
 11
0.8599999999999999
 21
0.0952627944162883
 31
0.0434529946162074
 12
0.8599999999999999
 22
0.0952627944162883
 32
0.0549999999999999
 13
0.8599999999999999
 23
0.0606217782649106
 33
0.0349999999999999
  0
3DFACE
  5
11A0
  8
WHEELS
 10
0.8599999999999999
 20
0.0606217782649106
 30
0.0349999999999999
 11
0.8599999999999999
 21
0.0952627944162883
 31
0.0549999999999999
 12
0.8599999999999999
 22
0.0852627944162885
 32
0.0607735026918965
 13
0.8599999999999999
 23
0.0506217782649108
 33
0.0407735026918965
  0
3DFACE
  5
11A1
  8
WHEELS
 10
0.84
 20
0.0852627944162885
 30
0.0607735026918965
 11
0.84
 21
0.0506217782649108
 31
0.0407735026918965
 12
0.8599999999999999
 22
0.0506217782649108
 32
0.0407735026918965
 13
0.8599999999999999
 23
0.0852627944162885
 33
0.0607735026918965
  0
3DFACE
  5
11A2
  8
WHEELS
 10
0.84
 20
0.0606217782649106
 30
0.0234529946162074
 11
0.84
 21
0.0952627944162883
 31
0.0434529946162074
 12
0.8599999999999999
 22
0.0952627944162883
 32
0.0434529946162074
 13
0.8599999999999999
 23
0.0606217782649106
 33
0.0234529946162076
  0
3DFACE
  5
11A3
  8
WHEELS
 10
0.8599999999999999
 20
-0.0100000000000007
 30
0.0642264973081038
 11
0.8599999999999999
 21
-0.0506217782649108
 31
0.0407735026918962
 12
0.9599999999999999
 22
-0.0606217782649106
 32
0.0350000000000001
 13
0.9599999999999999
 23
0.0
 33
0.0700000000000002
  0
3DFACE
  5
11A4
  8
WHEELS
 10
0.8599999999999999
 20
0.0
 30
0.0700000000000001
 11
0.8599999999999999
 21
-0.0100000000000007
 31
0.0642264973081038
 12
0.9599999999999999
 22
0.0
 32
0.0700000000000002
 13
0.9599999999999999
 23
0.0
 33
0.0700000000000002
  0
3DFACE
  5
11A5
  8
WHEELS
 10
0.8599999999999999
 20
-0.0506217782649108
 30
0.0407735026918965
 11
0.8599999999999999
 21
-0.0606217782649106
 31
0.0350000000000001
 12
0.9599999999999999
 22
-0.0606217782649106
 32
0.0350000000000001
 13
0.9599999999999999
 23
-0.0606217782649106
 33
0.0350000000000001
  0
3DFACE
  5
11A6
  8
WHEELS
 10
0.84
 20
-0.0100000000000007
 30
0.0642264973081038
 11
0.84
 21
-0.0506217782649108
 31
0.0407735026918962
 12
0.8599999999999999
 22
-0.0506217782649108
 32
0.0407735026918962
 13
0.8599999999999999
 23
-0.0100000000000007
 33
0.0642264973081038
  0
3DFACE
  5
11A7
  8
WHEELS
 10
0.84
 20
-0.0606217782649106
 30
0.0234529946162072
 11
0.84
 21
-0.0606217782649106
 31
-0.0234529946162075
 12
0.8599999999999999
 22
-0.0606217782649106
 32
-0.0234529946162075
 13
0.8599999999999999
 23
-0.0606217782649106
 33
0.0234529946162072
  0
3DFACE
  5
11A8
  8
WHEELS
 10
0.8599999999999999
 20
-0.0606217782649106
 30
0.0234529946162072
 11
0.8599999999999999
 21
-0.0606217782649106
 31
-0.0234529946162075
 12
0.9599999999999999
 22
-0.0606217782649106
 32
-0.0349999999999998
 13
0.9599999999999999
 23
-0.0606217782649106
 33
0.0350000000000001
  0
3DFACE
  5
11A9
  8
WHEELS
 10
0.8599999999999999
 20
-0.0606217782649106
 30
0.0349999999999999
 11
0.8599999999999999
 21
-0.0606217782649106
 31
0.0234529946162072
 12
0.9599999999999999
 22
-0.0606217782649106
 32
0.0350000000000001
 13
0.9599999999999999
 23
-0.0606217782649106
 33
0.0350000000000001
  0
3DFACE
  5
11AA
  8
WHEELS
 10
0.8599999999999999
 20
-0.0606217782649106
 30
-0.0234529946162073
 11
0.8599999999999999
 21
-0.0606217782649106
 31
-0.0349999999999998
 12
0.9599999999999999
 22
-0.0606217782649106
 32
-0.0349999999999998
 13
0.9599999999999999
 23
-0.0606217782649106
 33
-0.0349999999999998
  0
3DFACE
  5
11AB
  8
WHEELS
 10
0.84
 20
-0.0506217782649108
 30
-0.0407735026918966
 11
0.84
 21
-0.0099999999999998
 31
-0.0642264973081035
 12
0.8599999999999999
 22
-0.0099999999999998
 32
-0.0642264973081035
 13
0.8599999999999999
 23
-0.0506217782649108
 33
-0.0407735026918966
  0
3DFACE
  5
11AC
  8
WHEELS
 10
0.8599999999999999
 20
-0.0506217782649108
 30
-0.0407735026918966
 11
0.8599999999999999
 21
-0.0099999999999998
 31
-0.0642264973081035
 12
0.9599999999999999
 22
0.0
 32
-0.0699999999999997
 13
0.9599999999999999
 23
-0.0606217782649106
 33
-0.035
  0
3DFACE
  5
11AD
  8
WHEELS
 10
0.8599999999999999
 20
-0.0606217782649106
 30
-0.035
 11
0.8599999999999999
 21
-0.0506217782649108
 31
-0.0407735026918966
 12
0.9599999999999999
 22
-0.0606217782649106
 32
-0.035
 13
0.9599999999999999
 23
-0.0606217782649106
 33
-0.035
  0
3DFACE
  5
11AE
  8
WHEELS
 10
0.8599999999999999
 20
-0.0100000000000007
 30
-0.0642264973081035
 11
0.8599999999999999
 21
0.0
 31
-0.0699999999999997
 12
0.9599999999999999
 22
0.0
 32
-0.0699999999999997
 13
0.9599999999999999
 23
0.0
 33
-0.0699999999999997
  0
3DFACE
  5
11AF
  8
WHEELS
 10
0.84
 20
0.0100000000000007
 30
-0.0642264973081038
 11
0.84
 21
0.0506217782649108
 31
-0.0407735026918963
 12
0.8599999999999999
 22
0.0506217782649108
 32
-0.0407735026918963
 13
0.8599999999999999
 23
0.0100000000000007
 33
-0.0642264973081038
  0
3DFACE
  5
11B0
  8
WHEELS
 10
0.8599999999999999
 20
0.0100000000000007
 30
-0.0642264973081038
 11
0.8599999999999999
 21
0.0506217782649108
 31
-0.0407735026918963
 12
0.9599999999999999
 22
0.0606217782649106
 32
-0.0350000000000001
 13
0.9599999999999999
 23
0.0
 33
-0.0700000000000002
  0
3DFACE
  5
11B1
  8
WHEELS
 10
0.8599999999999999
 20
0.0
 30
-0.0700000000000001
 11
0.8599999999999999
 21
0.0100000000000007
 31
-0.0642264973081038
 12
0.9599999999999999
 22
0.0
 32
-0.0700000000000002
 13
0.9599999999999999
 23
0.0
 33
-0.0700000000000002
  0
3DFACE
  5
11B2
  8
WHEELS
 10
0.8599999999999999
 20
0.0506217782649108
 30
-0.0407735026918965
 11
0.8599999999999999
 21
0.0606217782649106
 31
-0.0350000000000001
 12
0.9599999999999999
 22
0.0606217782649106
 32
-0.0350000000000001
 13
0.9599999999999999
 23
0.0606217782649106
 33
-0.0350000000000001
  0
3DFACE
  5
11B3
  8
WHEELS
 10
0.84
 20
0.0606217782649106
 30
-0.0234529946162073
 11
0.84
 21
0.0606217782649106
 31
0.0234529946162074
 12
0.8599999999999999
 22
0.0606217782649106
 32
0.0234529946162074
 13
0.8599999999999999
 23
0.0606217782649106
 33
-0.0234529946162073
  0
3DFACE
  5
11B4
  8
WHEELS
 10
0.8599999999999999
 20
0.0606217782649106
 30
-0.0234529946162073
 11
0.8599999999999999
 21
0.0606217782649106
 31
0.0234529946162074
 12
0.9599999999999999
 22
0.0606217782649106
 32
0.0349999999999997
 13
0.9599999999999999
 23
0.0606217782649106
 33
-0.0350000000000002
  0
3DFACE
  5
11B5
  8
WHEELS
 10
0.8599999999999999
 20
0.0606217782649106
 30
-0.0350000000000002
 11
0.8599999999999999
 21
0.0606217782649106
 31
-0.0234529946162073
 12
0.9599999999999999
 22
0.0606217782649106
 32
-0.0350000000000002
 13
0.9599999999999999
 23
0.0606217782649106
 33
-0.0350000000000002
  0
3DFACE
  5
11B6
  8
WHEELS
 10
0.8599999999999999
 20
0.0606217782649106
 30
0.0234529946162069
 11
0.8599999999999999
 21
0.0606217782649106
 31
0.0349999999999997
 12
0.9599999999999999
 22
0.0606217782649106
 32
0.0349999999999997
 13
0.9599999999999999
 23
0.0606217782649106
 33
0.0349999999999997
  0
3DFACE
  5
11B7
  8
WHEELS
 10
0.84
 20
0.0506217782649108
 30
0.0407735026918965
 11
0.84
 21
0.0100000000000007
 31
0.0642264973081039
 12
0.8599999999999999
 22
0.0100000000000007
 32
0.0642264973081039
 13
0.8599999999999999
 23
0.0506217782649108
 33
0.0407735026918965
  0
3DFACE
  5
11B8
  8
WHEELS
 10
0.8599999999999999
 20
0.0506217782649108
 30
0.0407735026918965
 11
0.8599999999999999
 21
0.0100000000000007
 31
0.0642264973081039
 12
0.9599999999999999
 22
0.0
 32
0.07
 13
0.9599999999999999
 23
0.0606217782649106
 33
0.0350000000000001
  0
3DFACE
  5
11B9
  8
WHEELS
 10
0.8599999999999999
 20
0.0606217782649106
 30
0.0349999999999999
 11
0.8599999999999999
 21
0.0506217782649108
 31
0.0407735026918965
 12
0.9599999999999999
 22
0.0606217782649106
 32
0.0350000000000001
 13
0.9599999999999999
 23
0.0606217782649106
 33
0.0350000000000001
  0
3DFACE
  5
11BA
  8
WHEELS
 10
0.8599999999999999
 20
0.0100000000000007
 30
0.0642264973081034
 11
0.8599999999999999
 21
0.0000000000000009
 31
0.07
 12
0.9599999999999999
 22
0.0000000000000009
 32
0.07
 13
0.9599999999999999
 23
0.0000000000000009
 33
0.07
  0
3DFACE
  5
11BB
  8
WHEELS
 10
0.9599999999999999
 20
0.0
 30
0.0700000000000003
 11
0.9599999999999999
 21
-0.0606217782649106
 31
0.0350000000000002
 12
0.9599999999999999
 22
-0.0606217782649106
 32
-0.0349999999999999
 13
0.9599999999999999
 23
0.0606217782649106
 33
0.0350000000000002
  0
3DFACE
  5
11BC
  8
WHEELS
 10
0.9599999999999999
 20
0.0606217782649106
 30
0.0350000000000001
 11
0.9599999999999999
 21
-0.0606217782649106
 31
-0.0349999999999999
 12
0.9599999999999999
 22
0.0
 32
-0.07
 13
0.9599999999999999
 23
0.0606217782649106
 33
-0.0349999999999999
  0
3DFACE
  5
11BD
  8
WHEELS
 10
0.9599999999999999
 20
-0.1202081528017134
 30
0.1202081528017131
 11
0.9599999999999999
 21
-0.1699999999999999
 31
0.0
 12
0.9599999999999999
 22
-0.0952627944162883
 32
-0.0549999999999996
 13
0.9599999999999999
 23
-0.0952627944162883
 33
0.0550000000000003
  0
3DFACE
  5
11BE
  8
WHEELS
 10
0.9599999999999999
 20
-0.1699999999999999
 30
0.0
 11
0.9599999999999999
 21
-0.1202081528017134
 31
-0.1202081528017131
 12
0.9599999999999999
 22
-0.1202081528017134
 32
-0.1202081528017131
 13
0.9599999999999999
 23
-0.0952627944162883
 33
-0.0549999999999996
  0
3DFACE
  5
11BF
  8
WHEELS
 10
0.9599999999999999
 20
0.1699999999999999
 30
-0.0000000000000001
 11
0.9599999999999999
 21
0.1202081528017134
 31
0.120208152801713
 12
0.9599999999999999
 22
0.1202081528017134
 32
0.120208152801713
 13
0.9599999999999999
 23
0.0952627944162883
 33
0.0549999999999995
  0
3DFACE
  5
11C0
  8
WHEELS
 10
0.9599999999999999
 20
0.1202081528017134
 30
-0.1202081528017132
 11
0.9599999999999999
 21
0.1699999999999999
 31
-0.0000000000000001
 12
0.9599999999999999
 22
0.0952627944162883
 32
0.0549999999999995
 13
0.9599999999999999
 23
0.0952627944162883
 33
-0.0550000000000004
  0
3DFACE
  5
11C1
  8
WHEELS
 10
0.7800000000000003
 20
0.0
 30
0.0700000000000003
 11
0.7800000000000003
 21
-0.0606217782649106
 31
0.0350000000000002
 12
0.7800000000000003
 22
-0.0606217782649106
 32
-0.0349999999999999
 13
0.7800000000000003
 23
0.0606217782649106
 33
0.0350000000000002
  0
3DFACE
  5
11C2
  8
WHEELS
 10
0.7800000000000003
 20
0.0606217782649106
 30
0.0350000000000001
 11
0.7800000000000003
 21
-0.0606217782649106
 31
-0.0349999999999999
 12
0.7800000000000003
 22
0.0
 32
-0.07
 13
0.7800000000000003
 23
0.0606217782649106
 33
-0.0349999999999999
  0
3DFACE
  5
11C3
  8
WHEELS
 10
0.7800000000000003
 20
-0.1202081528017134
 30
0.1202081528017131
 11
0.7800000000000003
 21
-0.1699999999999999
 31
0.0
 12
0.7800000000000003
 22
-0.0952627944162883
 32
-0.0549999999999996
 13
0.7800000000000003
 23
-0.0952627944162883
 33
0.0550000000000003
  0
3DFACE
  5
11C4
  8
WHEELS
 10
0.7800000000000003
 20
-0.1699999999999999
 30
0.0
 11
0.7800000000000003
 21
-0.1202081528017134
 31
-0.1202081528017131
 12
0.7800000000000003
 22
-0.1202081528017134
 32
-0.1202081528017131
 13
0.7800000000000003
 23
-0.0952627944162883
 33
-0.0549999999999996
  0
3DFACE
  5
11C5
  8
WHEELS
 10
0.7800000000000003
 20
0.1699999999999999
 30
-0.0000000000000001
 11
0.7800000000000003
 21
0.1202081528017134
 31
0.120208152801713
 12
0.7800000000000003
 22
0.1202081528017134
 32
0.120208152801713
 13
0.7800000000000003
 23
0.0952627944162883
 33
0.0549999999999995
  0
3DFACE
  5
11C6
  8
WHEELS
 10
0.7800000000000003
 20
0.1202081528017134
 30
-0.1202081528017132
 11
0.7800000000000003
 21
0.1699999999999999
 31
-0.0000000000000001
 12
0.7800000000000003
 22
0.0952627944162883
 32
0.0549999999999995
 13
0.7800000000000003
 23
0.0952627944162883
 33
-0.0550000000000004
  0
3DFACE
  5
11C7
  8
WHEELS
 10
0.7600000000000002
 20
-0.0100000000000007
 30
0.0642264973081034
 11
0.7600000000000003
 21
-0.0000000000000009
 31
0.07
 12
0.6600000000000003
 22
-0.0000000000000009
 32
0.07
 13
0.6600000000000003
 23
-0.0000000000000009
 33
0.07
  0
3DFACE
  5
11C8
  8
WHEELS
 10
0.7600000000000002
 20
-0.0606217782649106
 30
0.0349999999999999
 11
0.7600000000000002
 21
-0.0506217782649108
 31
0.0407735026918965
 12
0.6600000000000003
 22
-0.0606217782649106
 32
0.0350000000000001
 13
0.6600000000000003
 23
-0.0606217782649106
 33
0.0350000000000001
  0
3DFACE
  5
11C9
  8
WHEELS
 10
0.7600000000000002
 20
-0.0506217782649108
 30
0.0407735026918965
 11
0.7600000000000002
 21
-0.0100000000000007
 31
0.0642264973081039
 12
0.6600000000000003
 22
0.0
 32
0.07
 13
0.6600000000000003
 23
-0.0606217782649106
 33
0.0350000000000001
  0
3DFACE
  5
11CA
  8
WHEELS
 10
0.7800000000000003
 20
-0.0506217782649108
 30
0.0407735026918965
 11
0.7800000000000003
 21
-0.0100000000000007
 31
0.0642264973081039
 12
0.7600000000000002
 22
-0.0100000000000007
 32
0.0642264973081039
 13
0.7600000000000002
 23
-0.0506217782649108
 33
0.0407735026918965
  0
3DFACE
  5
11CB
  8
WHEELS
 10
0.7600000000000002
 20
-0.0606217782649106
 30
0.0234529946162069
 11
0.7600000000000002
 21
-0.0606217782649106
 31
0.0349999999999997
 12
0.6600000000000003
 22
-0.0606217782649106
 32
0.0349999999999997
 13
0.6600000000000003
 23
-0.0606217782649106
 33
0.0349999999999997
  0
3DFACE
  5
11CC
  8
WHEELS
 10
0.7600000000000002
 20
-0.0606217782649106
 30
-0.0350000000000002
 11
0.7600000000000002
 21
-0.0606217782649106
 31
-0.0234529946162073
 12
0.6600000000000003
 22
-0.0606217782649106
 32
-0.0350000000000002
 13
0.6600000000000003
 23
-0.0606217782649106
 33
-0.0350000000000002
  0
3DFACE
  5
11CD
  8
WHEELS
 10
0.7600000000000002
 20
-0.0606217782649106
 30
-0.0234529946162073
 11
0.7600000000000002
 21
-0.0606217782649106
 31
0.0234529946162074
 12
0.6600000000000003
 22
-0.0606217782649106
 32
0.0349999999999997
 13
0.6600000000000003
 23
-0.0606217782649106
 33
-0.0350000000000002
  0
3DFACE
  5
11CE
  8
WHEELS
 10
0.7800000000000003
 20
-0.0606217782649106
 30
-0.0234529946162073
 11
0.7800000000000003
 21
-0.0606217782649106
 31
0.0234529946162074
 12
0.7600000000000002
 22
-0.0606217782649106
 32
0.0234529946162074
 13
0.7600000000000002
 23
-0.0606217782649106
 33
-0.0234529946162073
  0
3DFACE
  5
11CF
  8
WHEELS
 10
0.7600000000000002
 20
-0.0506217782649108
 30
-0.0407735026918965
 11
0.7600000000000002
 21
-0.0606217782649106
 31
-0.0350000000000001
 12
0.6600000000000003
 22
-0.0606217782649106
 32
-0.0350000000000001
 13
0.6600000000000003
 23
-0.0606217782649106
 33
-0.0350000000000001
  0
3DFACE
  5
11D0
  8
WHEELS
 10
0.7600000000000003
 20
0.0
 30
-0.0700000000000001
 11
0.7600000000000002
 21
-0.0100000000000007
 31
-0.0642264973081038
 12
0.6600000000000003
 22
0.0
 32
-0.0700000000000002
 13
0.6600000000000003
 23
0.0
 33
-0.0700000000000002
  0
3DFACE
  5
11D1
  8
WHEELS
 10
0.7600000000000002
 20
-0.0100000000000007
 30
-0.0642264973081038
 11
0.7600000000000002
 21
-0.0506217782649108
 31
-0.0407735026918963
 12
0.6600000000000003
 22
-0.0606217782649106
 32
-0.0350000000000001
 13
0.6600000000000003
 23
0.0
 33
-0.0700000000000002
  0
3DFACE
  5
11D2
  8
WHEELS
 10
0.7800000000000003
 20
-0.0100000000000007
 30
-0.0642264973081038
 11
0.7800000000000003
 21
-0.0506217782649108
 31
-0.0407735026918963
 12
0.7600000000000002
 22
-0.0506217782649108
 32
-0.0407735026918963
 13
0.7600000000000002
 23
-0.0100000000000007
 33
-0.0642264973081038
  0
3DFACE
  5
11D3
  8
WHEELS
 10
0.7600000000000003
 20
0.0100000000000007
 30
-0.0642264973081035
 11
0.7600000000000003
 21
0.0
 31
-0.0699999999999997
 12
0.6600000000000003
 22
0.0
 32
-0.0699999999999997
 13
0.6600000000000003
 23
0.0
 33
-0.0699999999999997
  0
3DFACE
  5
11D4
  8
WHEELS
 10
0.7600000000000003
 20
0.0606217782649106
 30
-0.035
 11
0.7600000000000003
 21
0.0506217782649108
 31
-0.0407735026918966
 12
0.6600000000000003
 22
0.0606217782649106
 32
-0.035
 13
0.6600000000000003
 23
0.0606217782649106
 33
-0.035
  0
3DFACE
  5
11D5
  8
WHEELS
 10
0.7600000000000003
 20
0.0506217782649108
 30
-0.0407735026918966
 11
0.7600000000000003
 21
0.0099999999999998
 31
-0.0642264973081035
 12
0.6600000000000003
 22
0.0
 32
-0.0699999999999997
 13
0.6600000000000003
 23
0.0606217782649106
 33
-0.035
  0
3DFACE
  5
11D6
  8
WHEELS
 10
0.7800000000000003
 20
0.0506217782649108
 30
-0.0407735026918966
 11
0.7800000000000003
 21
0.0099999999999998
 31
-0.0642264973081035
 12
0.7600000000000003
 22
0.0099999999999998
 32
-0.0642264973081035
 13
0.7600000000000003
 23
0.0506217782649108
 33
-0.0407735026918966
  0
3DFACE
  5
11D7
  8
WHEELS
 10
0.7600000000000003
 20
0.0606217782649106
 30
-0.0234529946162073
 11
0.7600000000000003
 21
0.0606217782649106
 31
-0.0349999999999998
 12
0.6600000000000003
 22
0.0606217782649106
 32
-0.0349999999999998
 13
0.6600000000000003
 23
0.0606217782649106
 33
-0.0349999999999998
  0
3DFACE
  5
11D8
  8
WHEELS
 10
0.7600000000000003
 20
0.0606217782649106
 30
0.0349999999999999
 11
0.7600000000000003
 21
0.0606217782649106
 31
0.0234529946162072
 12
0.6600000000000003
 22
0.0606217782649106
 32
0.0350000000000001
 13
0.6600000000000003
 23
0.0606217782649106
 33
0.0350000000000001
  0
3DFACE
  5
11D9
  8
WHEELS
 10
0.7600000000000003
 20
0.0606217782649106
 30
0.0234529946162072
 11
0.7600000000000003
 21
0.0606217782649106
 31
-0.0234529946162075
 12
0.6600000000000003
 22
0.0606217782649106
 32
-0.0349999999999998
 13
0.6600000000000003
 23
0.0606217782649106
 33
0.0350000000000001
  0
3DFACE
  5
11DA
  8
WHEELS
 10
0.7800000000000003
 20
0.0606217782649106
 30
0.0234529946162072
 11
0.7800000000000003
 21
0.0606217782649106
 31
-0.0234529946162075
 12
0.7600000000000003
 22
0.0606217782649106
 32
-0.0234529946162075
 13
0.7600000000000003
 23
0.0606217782649106
 33
0.0234529946162072
  0
3DFACE
  5
11DB
  8
WHEELS
 10
0.7800000000000003
 20
0.0100000000000007
 30
0.0642264973081038
 11
0.7800000000000003
 21
0.0506217782649108
 31
0.0407735026918962
 12
0.7600000000000003
 22
0.0506217782649108
 32
0.0407735026918962
 13
0.7600000000000003
 23
0.0100000000000007
 33
0.0642264973081038
  0
3DFACE
  5
11DC
  8
WHEELS
 10
0.7600000000000003
 20
0.0506217782649108
 30
0.0407735026918965
 11
0.7600000000000003
 21
0.0606217782649106
 31
0.0350000000000001
 12
0.6600000000000003
 22
0.0606217782649106
 32
0.0350000000000001
 13
0.6600000000000003
 23
0.0606217782649106
 33
0.0350000000000001
  0
3DFACE
  5
11DD
  8
WHEELS
 10
0.7600000000000003
 20
0.0
 30
0.0700000000000001
 11
0.7600000000000003
 21
0.0100000000000007
 31
0.0642264973081038
 12
0.6600000000000003
 22
0.0
 32
0.0700000000000002
 13
0.6600000000000003
 23
0.0
 33
0.0700000000000002
  0
3DFACE
  5
11DE
  8
WHEELS
 10
0.7600000000000003
 20
0.0100000000000007
 30
0.0642264973081038
 11
0.7600000000000003
 21
0.0506217782649108
 31
0.0407735026918962
 12
0.6600000000000003
 22
0.0606217782649106
 32
0.0350000000000001
 13
0.6600000000000003
 23
0.0
 33
0.0700000000000002
  0
3DFACE
  5
11DF
  8
WHEELS
 10
0.7800000000000003
 20
-0.0606217782649106
 30
0.0234529946162074
 11
0.7800000000000003
 21
-0.0952627944162883
 31
0.0434529946162074
 12
0.7600000000000002
 22
-0.0952627944162883
 32
0.0434529946162074
 13
0.7600000000000002
 23
-0.0606217782649106
 33
0.0234529946162076
  0
3DFACE
  5
11E0
  8
WHEELS
 10
0.7800000000000003
 20
-0.0852627944162885
 30
0.0607735026918965
 11
0.7800000000000003
 21
-0.0506217782649108
 31
0.0407735026918965
 12
0.7600000000000002
 22
-0.0506217782649108
 32
0.0407735026918965
 13
0.7600000000000002
 23
-0.0852627944162885
 33
0.0607735026918965
  0
3DFACE
  5
11E1
  8
WHEELS
 10
0.7800000000000003
 20
-0.0506217782649108
 30
-0.0407735026918963
 11
0.7800000000000003
 21
-0.0852627944162885
 31
-0.0607735026918964
 12
0.7600000000000002
 22
-0.0852627944162885
 32
-0.0607735026918964
 13
0.7600000000000002
 23
-0.0506217782649108
 33
-0.0407735026918966
  0
3DFACE
  5
11E2
  8
WHEELS
 10
0.7800000000000003
 20
-0.0952627944162883
 30
-0.0434529946162073
 11
0.7800000000000003
 21
-0.0606217782649106
 31
-0.0234529946162073
 12
0.7600000000000002
 22
-0.0606217782649106
 32
-0.0234529946162073
 13
0.7600000000000002
 23
-0.0952627944162883
 33
-0.0434529946162073
  0
3DFACE
  5
11E3
  8
WHEELS
 10
0.7800000000000003
 20
0.0099999999999998
 30
-0.0642264973081039
 11
0.7800000000000003
 21
0.0099999999999998
 31
-0.1042264973081038
 12
0.7600000000000003
 22
0.0099999999999998
 32
-0.1042264973081038
 13
0.7600000000000003
 23
0.0099999999999998
 33
-0.064226497308104
  0
3DFACE
  5
11E4
  8
WHEELS
 10
0.7800000000000003
 20
-0.0100000000000007
 30
-0.1042264973081037
 11
0.7800000000000003
 21
-0.0100000000000007
 31
-0.0642264973081038
 12
0.7600000000000002
 22
-0.0100000000000007
 32
-0.0642264973081038
 13
0.7600000000000002
 23
-0.0100000000000007
 33
-0.1042264973081037
  0
3DFACE
  5
11E5
  8
WHEELS
 10
0.7800000000000003
 20
0.0606217782649106
 30
-0.0234529946162075
 11
0.7800000000000003
 21
0.0952627944162883
 31
-0.0434529946162075
 12
0.7600000000000003
 22
0.0952627944162883
 32
-0.0434529946162075
 13
0.7600000000000003
 23
0.0606217782649106
 33
-0.0234529946162075
  0
3DFACE
  5
11E6
  8
WHEELS
 10
0.7800000000000003
 20
0.0852627944162885
 30
-0.0607735026918964
 11
0.7800000000000003
 21
0.0506217782649108
 31
-0.0407735026918966
 12
0.7600000000000003
 22
0.0506217782649108
 32
-0.0407735026918966
 13
0.7600000000000003
 23
0.0852627944162885
 33
-0.0607735026918964
  0
3DFACE
  5
11E7
  8
WHEELS
 10
0.7800000000000003
 20
0.0506217782649108
 30
0.0407735026918962
 11
0.7800000000000003
 21
0.0852627944162885
 31
0.0607735026918963
 12
0.7600000000000003
 22
0.0852627944162885
 32
0.0607735026918963
 13
0.7600000000000003
 23
0.0506217782649108
 33
0.0407735026918962
  0
3DFACE
  5
11E8
  8
WHEELS
 10
0.7800000000000003
 20
0.0952627944162883
 30
0.0434529946162072
 11
0.7800000000000003
 21
0.0606217782649106
 31
0.0234529946162072
 12
0.7600000000000003
 22
0.0606217782649106
 32
0.0234529946162072
 13
0.7600000000000003
 23
0.0952627944162883
 33
0.0434529946162072
  0
3DFACE
  5
11E9
  8
WHEELS
 10
0.7800000000000003
 20
0.0100000000000007
 30
0.1042264973081037
 11
0.7800000000000003
 21
0.0100000000000007
 31
0.0642264973081038
 12
0.7600000000000003
 22
0.0100000000000007
 32
0.0642264973081038
 13
0.7600000000000003
 23
0.0100000000000007
 33
0.1042264973081037
  0
3DFACE
  5
11EA
  8
WHEELS
 10
0.7800000000000003
 20
-0.0099999999999998
 30
0.0642264973081039
 11
0.7800000000000003
 21
-0.0099999999999998
 31
0.1042264973081038
 12
0.7600000000000002
 22
-0.0099999999999998
 32
0.1042264973081038
 13
0.7600000000000002
 23
-0.0099999999999998
 33
0.064226497308104
  0
3DFACE
  5
11EB
  8
WHEELS
 10
0.7800000000000003
 20
-0.0952627944162883
 30
-0.0549999999999996
 11
0.7800000000000003
 21
0.0
 31
-0.1100000000000001
 12
0.6600000000000003
 22
0.0
 32
-0.1100000000000001
 13
0.6600000000000003
 23
-0.0952627944162883
 33
-0.0549999999999996
  0
3DFACE
  5
11EC
  8
WHEELS
 10
0.7800000000000003
 20
-0.0952627944162883
 30
0.0550000000000003
 11
0.7800000000000003
 21
-0.0952627944162883
 31
-0.0549999999999996
 12
0.6600000000000003
 22
-0.0952627944162883
 32
-0.0549999999999996
 13
0.6600000000000003
 23
-0.0952627944162883
 33
0.0550000000000003
  0
3DFACE
  5
11ED
  8
WHEELS
 10
0.7800000000000003
 20
0.0
 30
0.11
 11
0.7800000000000003
 21
-0.0952627944162883
 31
0.0550000000000003
 12
0.6600000000000003
 22
-0.0952627944162883
 32
0.0550000000000003
 13
0.6600000000000003
 23
0.0
 33
0.11
  0
3DFACE
  5
11EE
  8
WHEELS
 10
0.7800000000000003
 20
0.0952627944162883
 30
0.0550000000000003
 11
0.7800000000000003
 21
0.0
 31
0.11
 12
0.6600000000000003
 22
0.0
 32
0.11
 13
0.6600000000000003
 23
0.0952627944162883
 33
0.0550000000000003
  0
3DFACE
  5
11EF
  8
WHEELS
 10
0.7800000000000003
 20
0.0952627944162883
 30
-0.0549999999999996
 11
0.7800000000000003
 21
0.0952627944162883
 31
0.0550000000000003
 12
0.6600000000000003
 22
0.0952627944162883
 32
0.0550000000000003
 13
0.6600000000000003
 23
0.0952627944162883
 33
-0.0549999999999996
  0
3DFACE
  5
11F0
  8
WHEELS
 10
0.7800000000000003
 20
0.0
 30
-0.1100000000000001
 11
0.7800000000000003
 21
0.0952627944162883
 31
-0.0549999999999996
 12
0.6600000000000003
 22
0.0952627944162883
 32
-0.0549999999999996
 13
0.6600000000000003
 23
0.0
 33
-0.1100000000000001
  0
3DFACE
  5
11F1
  8
WHEELS
 10
0.7800000000000003
 20
-0.1202081528017134
 30
-0.1202081528017131
 11
0.7800000000000003
 21
-0.1699999999999999
 31
0.0
 12
0.6600000000000003
 22
-0.1699999999999999
 32
0.0
 13
0.6600000000000003
 23
-0.1202081528017134
 33
-0.1202081528017131
  0
3DFACE
  5
11F2
  8
WHEELS
 10
0.7800000000000003
 20
0.1699999999999999
 30
0.0
 11
0.7800000000000003
 21
0.1202081528017134
 31
-0.1202081528017131
 12
0.6600000000000003
 22
0.1202081528017134
 32
-0.1202081528017131
 13
0.6600000000000003
 23
0.1699999999999999
 33
0.0
  0
3DFACE
  5
11F3
  8
WHEELS
 10
0.7800000000000003
 20
0.1202081528017134
 30
0.1202081528017131
 11
0.7800000000000003
 21
0.1699999999999999
 31
0.0
 12
0.6600000000000003
 22
0.1699999999999999
 32
0.0
 13
0.6600000000000003
 23
0.1202081528017134
 33
0.1202081528017131
  0
3DFACE
  5
11F4
  8
WHEELS
 10
0.7800000000000003
 20
-0.1699999999999999
 30
0.0
 11
0.7800000000000003
 21
-0.1202081528017134
 31
0.1202081528017131
 12
0.6600000000000003
 22
-0.1202081528017134
 32
0.1202081528017131
 13
0.6600000000000003
 23
-0.1699999999999999
 33
0.0
  0
3DFACE
  5
11F5
  8
WHEELS
 10
0.7800000000000001
 20
0.0
 30
0.0700000000000001
 11
0.7800000000000001
 21
0.0
 31
0.11
 12
0.7800000000000001
 22
-0.0100000000000007
 32
0.1042264973081037
 13
0.7800000000000001
 23
-0.0100000000000007
 33
0.0642264973081038
  0
3DFACE
  5
11F6
  8
WHEELS
 10
0.7800000000000003
 20
0.0099999999999998
 30
0.0642264973081039
 11
0.7800000000000003
 21
0.0099999999999998
 31
0.1042264973081038
 12
0.7800000000000001
 22
0.0
 32
0.11
 13
0.7800000000000001
 23
0.0
 33
0.0700000000000001
  0
3DFACE
  5
11F7
  8
WHEELS
 10
0.7800000000000001
 20
-0.0506217782649108
 30
0.0407735026918962
 11
0.7800000000000001
 21
-0.0852627944162885
 31
0.0607735026918963
 12
0.7800000000000001
 22
-0.0952627944162883
 32
0.0549999999999999
 13
0.7800000000000001
 23
-0.0606217782649106
 33
0.0349999999999999
  0
3DFACE
  5
11F8
  8
WHEELS
 10
0.7800000000000001
 20
-0.0606217782649106
 30
0.0349999999999999
 11
0.7800000000000001
 21
-0.0952627944162883
 31
0.0549999999999999
 12
0.7800000000000001
 22
-0.0952627944162883
 32
0.0434529946162072
 13
0.7800000000000001
 23
-0.0606217782649106
 33
0.0234529946162072
  0
3DFACE
  5
11F9
  8
WHEELS
 10
0.7800000000000001
 20
-0.0606217782649106
 30
-0.0234529946162075
 11
0.7800000000000001
 21
-0.0952627944162883
 31
-0.0434529946162075
 12
0.7800000000000001
 22
-0.0952627944162883
 32
-0.055
 13
0.7800000000000001
 23
-0.0606217782649106
 33
-0.035
  0
3DFACE
  5
11FA
  8
WHEELS
 10
0.7800000000000001
 20
-0.0606217782649106
 30
-0.035
 11
0.7800000000000001
 21
-0.0952627944162883
 31
-0.055
 12
0.7800000000000001
 22
-0.0852627944162885
 32
-0.0607735026918964
 13
0.7800000000000001
 23
-0.0506217782649108
 33
-0.0407735026918966
  0
3DFACE
  5
11FB
  8
WHEELS
 10
0.7800000000000001
 20
-0.0099999999999998
 30
-0.0642264973081039
 11
0.7800000000000001
 21
-0.0099999999999998
 31
-0.1042264973081038
 12
0.7800000000000001
 22
0.0
 32
-0.11
 13
0.7800000000000001
 23
0.0
 33
-0.0700000000000001
  0
3DFACE
  5
11FC
  8
WHEELS
 10
0.7800000000000001
 20
0.0
 30
-0.0700000000000001
 11
0.7800000000000001
 21
0.0
 31
-0.11
 12
0.7800000000000003
 22
0.0100000000000007
 32
-0.1042264973081037
 13
0.7800000000000003
 23
0.0100000000000007
 33
-0.0642264973081038
  0
3DFACE
  5
11FD
  8
WHEELS
 10
0.7800000000000003
 20
0.0506217782649108
 30
-0.0407735026918963
 11
0.7800000000000003
 21
0.0852627944162885
 31
-0.0607735026918964
 12
0.7800000000000003
 22
0.0952627944162883
 32
-0.0550000000000002
 13
0.7800000000000003
 23
0.0606217782649106
 33
-0.0350000000000002
  0
3DFACE
  5
11FE
  8
WHEELS
 10
0.7800000000000003
 20
0.0606217782649106
 30
-0.0350000000000002
 11
0.7800000000000003
 21
0.0952627944162883
 31
-0.0550000000000002
 12
0.7800000000000003
 22
0.0952627944162883
 32
-0.0434529946162073
 13
0.7800000000000003
 23
0.0606217782649106
 33
-0.0234529946162073
  0
3DFACE
  5
11FF
  8
WHEELS
 10
0.7800000000000003
 20
0.0606217782649106
 30
0.0234529946162074
 11
0.7800000000000003
 21
0.0952627944162883
 31
0.0434529946162074
 12
0.7800000000000003
 22
0.0952627944162883
 32
0.0549999999999999
 13
0.7800000000000003
 23
0.0606217782649106
 33
0.0349999999999999
  0
3DFACE
  5
1200
  8
WHEELS
 10
0.7800000000000003
 20
0.0606217782649106
 30
0.0349999999999999
 11
0.7800000000000003
 21
0.0952627944162883
 31
0.0549999999999999
 12
0.7800000000000003
 22
0.0852627944162885
 32
0.0607735026918965
 13
0.7800000000000003
 23
0.0506217782649108
 33
0.0407735026918965
  0
VIEWPORT
  5
2E
 67
     1
  8
0
 10
144.7270812988281
 20
101.2295806407928
 30
0.0
 40
391.13550988316581
 41
222.15178063964839
 68
     2
 69
     1
1001
ACAD
1000
MVIEW
1002
{
1070
    16
1010
0.0
1020
0.0
1030
0.0
1010
0.0
1020
0.0
1030
1.0
1040
0.0
1040
222.15178063964839
1040
144.7270812988281
1040
101.2295806407928
1040
50.0
1040
0.0
1040
0.0
1070
     0
1070
   100
1070
     1
1070
     1
1070
     0
1070
     0
1070
     0
1070
     0
1040
0.0
1040
0.0
1040
0.0
1040
10.0
1040
10.0
1040
10.0
1040
10.0
1070
     0
1002
{
1002
}
1002
}
  0
VIEWPORT
  5
30
 67
     1
  8
0
 10
139.22375631332389
 20
100.8062499761581
 30
0.0
 40
222.75801010131829
 41
161.289999961853
 68
     1
 69
     2
1001
ACAD
1000
MVIEW
1002
{
1070
    16
1010
0.0
1020
0.0
1030
0.0
1010
0.0
1020
0.0
1030
1.0
1040
0.0
1040
307.49010134148989
1040
210.0
1040
148.5
1040
50.0
1040
0.0
1040
0.0
1070
     0
1070
   100
1070
     1
1070
     3
1070
     0
1070
     1
1070
     0
1070
     0
1040
0.0
1040
0.0
1040
0.0
1040
10.0
1040
10.0
1040
10.0
1040
10.0
1070
     0
1002
{
1002
}
1002
}
  0
ENDSEC
  0
EOF
