  0
SECTION
  2
HEADER
  9
$ACADVER
  1
AC1009
  9
$INSBASE
 10
0.0
 20
0.0
 30
0.0
  9
$EXTMIN
 10
-0.5299999999999977
 20
-0.5499999999999999
 30
-0.0000000000000007
  9
$EXTMAX
 10
0.5299999999999984
 20
0.5299999999999967
 30
0.5199999999999998
  9
$LIMMIN
 10
0.0
 20
0.0
  9
$LIMMAX
 10
420.0
 20
297.0
  9
$ORTHOMODE
 70
     1
  9
$REGENMODE
 70
     1
  9
$FILLMODE
 70
     1
  9
$QTEXTMODE
 70
     0
  9
$MIRRTEXT
 70
     1
  9
$DRAGMODE
 70
     2
  9
$LTSCALE
 40
1.0
  9
$OSMODE
 70
    35
  9
$ATTMODE
 70
     1
  9
$TEXTSIZE
 40
2.5
  9
$TRACEWID
 40
1.0
  9
$TEXTSTYLE
  7
STANDARD
  9
$CLAYER
  8
TURRET
  9
$CELTYPE
  6
BYLAYER
  9
$CECOLOR
 62
   256
  9
$DIMSCALE
 40
1.0
  9
$DIMASZ
 40
2.5
  9
$DIMEXO
 40
0.625
  9
$DIMDLI
 40
3.75
  9
$DIMRND
 40
0.0
  9
$DIMDLE
 40
0.0
  9
$DIMEXE
 40
1.25
  9
$DIMTP
 40
0.0
  9
$DIMTM
 40
0.0
  9
$DIMTXT
 40
2.5
  9
$DIMCEN
 40
2.5
  9
$DIMTSZ
 40
0.0
  9
$DIMTOL
 70
     0
  9
$DIMLIM
 70
     0
  9
$DIMTIH
 70
     0
  9
$DIMTOH
 70
     0
  9
$DIMSE1
 70
     0
  9
$DIMSE2
 70
     0
  9
$DIMTAD
 70
     1
  9
$DIMZIN
 70
     8
  9
$DIMBLK
  1

  9
$DIMASO
 70
     1
  9
$DIMSHO
 70
     1
  9
$DIMPOST
  1

  9
$DIMAPOST
  1

  9
$DIMALT
 70
     0
  9
$DIMALTD
 70
     3
  9
$DIMALTF
 40
0.03937007874016
  9
$DIMLFAC
 40
1.0
  9
$DIMTOFL
 70
     1
  9
$DIMTVP
 40
0.0
  9
$DIMTIX
 70
     0
  9
$DIMSOXD
 70
     0
  9
$DIMSAH
 70
     0
  9
$DIMBLK1
  1

  9
$DIMBLK2
  1

  9
$DIMSTYLE
  2
ISO-25
  9
$DIMCLRD
 70
     0
  9
$DIMCLRE
 70
     0
  9
$DIMCLRT
 70
     0
  9
$DIMTFAC
 40
1.0
  9
$DIMGAP
 40
0.625
  9
$LUNITS
 70
     2
  9
$LUPREC
 70
     4
  9
$SKETCHINC
 40
1.0
  9
$FILLETRAD
 40
10.0
  9
$AUNITS
 70
     0
  9
$AUPREC
 70
     0
  9
$MENU
  1
.
  9
$ELEVATION
 40
0.0
  9
$PELEVATION
 40
0.0
  9
$THICKNESS
 40
0.0
  9
$LIMCHECK
 70
     0
  9
$BLIPMODE
 70
     0
  9
$CHAMFERA
 40
10.0
  9
$CHAMFERB
 40
10.0
  9
$SKPOLY
 70
     0
  9
$TDCREATE
 40
2457211.0131720481
  9
$TDUPDATE
 40
2457224.4537124648
  9
$TDINDWG
 40
0.3977427431
  9
$TDUSRTIMER
 40
0.3977427431
  9
$USRTIMER
 70
     1
  9
$ANGBASE
 50
0.0
  9
$ANGDIR
 70
     0
  9
$PDMODE
 70
     0
  9
$PDSIZE
 40
0.0
  9
$PLINEWID
 40
0.0
  9
$COORDS
 70
     1
  9
$SPLFRAME
 70
     0
  9
$SPLINETYPE
 70
     6
  9
$SPLINESEGS
 70
     8
  9
$ATTDIA
 70
     1
  9
$ATTREQ
 70
     1
  9
$HANDLING
 70
-16383
  9
$HANDSEED
  5
18DA
  9
$SURFTAB1
 70
     6
  9
$SURFTAB2
 70
     6
  9
$SURFTYPE
 70
     6
  9
$SURFU
 70
     6
  9
$SURFV
 70
     6
  9
$UCSNAME
  2

  9
$UCSORG
 10
0.0
 20
0.0
 30
0.0
  9
$UCSXDIR
 10
0.0
 20
-1.0
 30
0.0
  9
$UCSYDIR
 10
0.0
 20
0.0
 30
1.0
  9
$PUCSNAME
  2

  9
$PUCSORG
 10
0.0
 20
0.0
 30
0.0
  9
$PUCSXDIR
 10
1.0
 20
0.0
 30
0.0
  9
$PUCSYDIR
 10
0.0
 20
1.0
 30
0.0
  9
$USERI1
 70
     0
  9
$USERI2
 70
     0
  9
$USERI3
 70
     0
  9
$USERI4
 70
     0
  9
$USERI5
 70
     0
  9
$USERR1
 40
0.0
  9
$USERR2
 40
0.0
  9
$USERR3
 40
0.0
  9
$USERR4
 40
0.0
  9
$USERR5
 40
0.0
  9
$WORLDVIEW
 70
     1
  9
$SHADEDGE
 70
     3
  9
$SHADEDIF
 70
    70
  9
$TILEMODE
 70
     1
  9
$MAXACTVP
 70
    64
  9
$PLIMCHECK
 70
     0
  9
$PEXTMIN
 10
27.844751262664801
 20
20.161249995231621
 30
0.0
  9
$PEXTMAX
 10
250.60276136398309
 20
181.4512499570846
 30
0.0
  9
$PLIMMIN
 10
-3.757080078125
 20
-3.7570831775665279
  9
$PLIMMAX
 10
293.21124267578119
 20
206.21624445915219
  9
$UNITMODE
 70
     0
  9
$VISRETAIN
 70
     1
  9
$PLINEGEN
 70
     0
  9
$PSLTSCALE
 70
     1
  0
ENDSEC
  0
SECTION
  2
TABLES
  0
TABLE
  2
VPORT
 70
     4
  0
VPORT
  2
*ACTIVE
 70
     0
 10
0.0
 20
0.0
 11
1.0
 21
1.0
 12
0.2582178085179358
 22
0.0759526877784862
 13
0.0
 23
0.0
 14
0.01
 24
0.01
 15
1.0
 25
1.0
 16
-1.0
 26
0.0
 36
0.0
 17
0.0
 27
0.0
 37
0.0
 40
2.0107919860565229
 41
2.2487980769230771
 42
50.0
 43
0.0
 44
0.0
 50
0.0
 51
0.0
 71
     0
 72
   100
 73
     1
 74
     3
 75
     1
 76
     1
 77
     0
 78
     0
  0
ENDTAB
  0
TABLE
  2
LTYPE
 70
     1
  0
LTYPE
  2
CONTINUOUS
 70
     0
  3
Solid line
 72
    65
 73
     0
 40
0.0
  0
ENDTAB
  0
TABLE
  2
LAYER
 70
    13
  0
LAYER
  2
0
 70
     0
 62
     7
  6
CONTINUOUS
  0
LAYER
  2
DRAWING
 70
     0
 62
     9
  6
CONTINUOUS
  0
LAYER
  2
SEATS
 70
     0
 62
     3
  6
CONTINUOUS
  0
LAYER
  2
INTERNALS
 70
     0
 62
     5
  6
CONTINUOUS
  0
LAYER
  2
TMP
 70
     0
 62
     4
  6
CONTINUOUS
  0
LAYER
  2
FENDERS
 70
     0
 62
     6
  6
CONTINUOUS
  0
LAYER
  2
ROLLER
 70
     0
 62
     6
  6
CONTINUOUS
  0
LAYER
  2
WHEELS
 70
     0
 62
     2
  6
CONTINUOUS
  0
LAYER
  2
SUSPENSION
 70
     0
 62
     5
  6
CONTINUOUS
  0
LAYER
  2
TRACKS
 70
     0
 62
     3
  6
CONTINUOUS
  0
LAYER
  2
CANS
 70
     0
 62
     3
  6
CONTINUOUS
  0
LAYER
  2
TURRET
 70
     0
 62
     2
  6
CONTINUOUS
  0
LAYER
  2
GUN
 70
     0
 62
     1
  6
CONTINUOUS
  0
ENDTAB
  0
TABLE
  2
STYLE
 70
     1
  0
STYLE
  2
STANDARD
 70
     0
 40
0.0
 41
1.0
 50
0.0
 71
     0
 42
2.5
  3
txt
  4

  0
ENDTAB
  0
TABLE
  2
VIEW
 70
     0
  0
ENDTAB
  0
TABLE
  2
UCS
 70
     0
  0
ENDTAB
  0
TABLE
  2
APPID
 70
     1
  0
APPID
  2
ACAD
 70
     0
  0
ENDTAB
  0
TABLE
  2
DIMSTYLE
 70
     1
  0
DIMSTYLE
  2
ISO-25
 70
     0
  3

  4

  5

  6

  7

 40
1.0
 41
2.5
 42
0.625
 43
3.75
 44
1.25
 45
0.0
 46
0.0
 47
0.0
 48
0.0
140
2.5
141
2.5
142
0.0
143
0.03937007874016
144
1.0
145
0.0
146
1.0
147
0.625
 71
     0
 72
     0
 73
     0
 74
     0
 75
     0
 76
     0
 77
     1
 78
     8
170
     0
171
     3
172
     1
173
     0
174
     0
175
     0
176
     0
177
     0
178
     0
  0
ENDTAB
  0
ENDSEC
  0
SECTION
  2
BLOCKS
  0
BLOCK
  8
0
  2
$MODEL_SPACE
 70
     0
 10
0.0
 20
0.0
 30
0.0
  3
$MODEL_SPACE
  1

  0
ENDBLK
  5
21
  8
0
  0
BLOCK
 67
     1
  8
0
  2
$PAPER_SPACE
 70
     0
 10
0.0
 20
0.0
 30
0.0
  3
$PAPER_SPACE
  1

  0
ENDBLK
  5
1D
 67
     1
  8
0
  0
ENDSEC
  0
SECTION
  2
ENTITIES
  0
3DFACE
  5
167B
  8
TURRET
 10
0.0000000000000003
 20
-0.4900000000000011
 30
0.1999999999999995
 11
0.1875148818588941
 21
-0.4527009709305317
 31
0.1999999999999995
 12
0.1875148818588941
 22
-0.4527009709305317
 32
-0.0000000000000007
 13
0.0000000000000003
 23
-0.4900000000000011
 33
-0.0000000000000007
  0
3DFACE
  5
167C
  8
TURRET
 10
0.1875148818588941
 20
-0.4527009709305317
 30
0.1999999999999995
 11
0.3464823227814078
 21
-0.3464823227814113
 31
0.1999999999999995
 12
0.3464823227814078
 22
-0.3464823227814113
 32
-0.0000000000000007
 13
0.1875148818588941
 23
-0.4527009709305317
 33
-0.0000000000000007
  0
3DFACE
  5
167D
  8
TURRET
 10
0.3464823227814078
 20
-0.3464823227814113
 30
0.1999999999999995
 11
0.4527009709305298
 21
-0.1875148818588945
 31
0.1999999999999995
 12
0.4527009709305298
 22
-0.1875148818588945
 32
-0.0000000000000007
 13
0.3464823227814078
 23
-0.3464823227814113
 33
-0.0000000000000007
  0
3DFACE
  5
167E
  8
TURRET
 10
0.4527009709305298
 20
-0.1875148818588945
 30
0.1999999999999995
 11
0.4899999999999993
 21
-0.0000000000000027
 31
0.1999999999999995
 12
0.4899999999999993
 22
-0.0000000000000027
 32
-0.0000000000000007
 13
0.4527009709305298
 23
-0.1875148818588945
 33
-0.0000000000000007
  0
3DFACE
  5
167F
  8
TURRET
 10
0.4899999999999993
 20
-0.0000000000000027
 30
0.1999999999999995
 11
0.4527009709305298
 21
0.1875148818588892
 31
0.1999999999999995
 12
0.4527009709305298
 22
0.1875148818588892
 32
-0.0000000000000007
 13
0.4899999999999993
 23
-0.0000000000000027
 33
-0.0000000000000007
  0
3DFACE
  5
1680
  8
TURRET
 10
0.4527009709305298
 20
0.1875148818588892
 30
0.1999999999999995
 11
0.3464823227814078
 21
0.346482322781406
 31
0.1999999999999995
 12
0.3464823227814078
 22
0.346482322781406
 32
-0.0000000000000007
 13
0.4527009709305298
 23
0.1875148818588892
 33
-0.0000000000000007
  0
3DFACE
  5
1681
  8
TURRET
 10
0.3464823227814078
 20
0.346482322781406
 30
0.1999999999999995
 11
0.1875148818588942
 21
0.4527009709305263
 31
0.1999999999999995
 12
0.1875148818588942
 22
0.4527009709305263
 32
-0.0000000000000007
 13
0.3464823227814078
 23
0.346482322781406
 33
-0.0000000000000007
  0
3DFACE
  5
1682
  8
TURRET
 10
0.1875148818588942
 20
0.4527009709305263
 30
0.1999999999999995
 11
0.0000000000000006
 21
0.4899999999999957
 31
0.1999999999999995
 12
0.0000000000000006
 22
0.4899999999999957
 32
-0.0000000000000007
 13
0.1875148818588942
 23
0.4527009709305263
 33
-0.0000000000000007
  0
3DFACE
  5
1683
  8
TURRET
 10
0.0000000000000006
 20
0.4899999999999957
 30
0.1999999999999995
 11
-0.1875148818588932
 21
0.4527009709305263
 31
0.1999999999999995
 12
-0.1875148818588932
 22
0.4527009709305263
 32
-0.0000000000000007
 13
0.0000000000000006
 23
0.4899999999999957
 33
-0.0000000000000007
  0
3DFACE
  5
1684
  8
TURRET
 10
-0.1875148818588932
 20
0.4527009709305263
 30
0.1999999999999995
 11
-0.3464823227814069
 21
0.346482322781406
 31
0.1999999999999995
 12
-0.3464823227814069
 22
0.346482322781406
 32
-0.0000000000000007
 13
-0.1875148818588932
 23
0.4527009709305263
 33
-0.0000000000000007
  0
3DFACE
  5
1685
  8
TURRET
 10
-0.3464823227814069
 20
0.346482322781406
 30
0.1999999999999995
 11
-0.4527009709305291
 21
0.1875148818588927
 31
0.1999999999999995
 12
-0.4527009709305291
 22
0.1875148818588927
 32
-0.0000000000000007
 13
-0.3464823227814069
 23
0.346482322781406
 33
-0.0000000000000007
  0
3DFACE
  5
1686
  8
TURRET
 10
-0.4527009709305291
 20
0.1875148818588927
 30
0.1999999999999995
 11
-0.4899999999999986
 21
-0.0000000000000027
 31
0.1999999999999995
 12
-0.4899999999999986
 22
-0.0000000000000027
 32
-0.0000000000000007
 13
-0.4527009709305291
 23
0.1875148818588927
 33
-0.0000000000000007
  0
3DFACE
  5
1687
  8
TURRET
 10
-0.4899999999999986
 20
-0.0000000000000027
 30
0.1999999999999995
 11
-0.4527009709305291
 21
-0.1875148818588981
 31
0.1999999999999995
 12
-0.4527009709305291
 22
-0.1875148818588981
 32
-0.0000000000000007
 13
-0.4899999999999986
 23
-0.0000000000000027
 33
-0.0000000000000007
  0
3DFACE
  5
1688
  8
TURRET
 10
-0.4527009709305291
 20
-0.1875148818588981
 30
0.1999999999999995
 11
-0.346482322781407
 21
-0.3464823227814113
 31
0.1999999999999995
 12
-0.346482322781407
 22
-0.3464823227814113
 32
-0.0000000000000007
 13
-0.4527009709305291
 23
-0.1875148818588981
 33
-0.0000000000000007
  0
3DFACE
  5
1689
  8
TURRET
 10
-0.346482322781407
 20
-0.3464823227814113
 30
0.1999999999999995
 11
-0.1875148818588929
 21
-0.4527009709305317
 31
0.1999999999999995
 12
-0.1875148818588929
 22
-0.4527009709305317
 32
-0.0000000000000007
 13
-0.346482322781407
 23
-0.3464823227814113
 33
-0.0000000000000007
  0
3DFACE
  5
168A
  8
TURRET
 10
-0.1875148818588929
 20
-0.4527009709305317
 30
0.1999999999999995
 11
0.0000000000000003
 21
-0.4900000000000011
 31
0.1999999999999995
 12
0.0000000000000003
 22
-0.4900000000000011
 32
-0.0000000000000007
 13
-0.1875148818588929
 23
-0.4527009709305317
 33
-0.0000000000000007
  0
3DFACE
  5
168B
  8
TURRET
 10
0.0000000000000006
 20
0.529999999999995
 30
0.1999999999999995
 11
0.2028222191534975
 21
0.489656152230979
 31
0.1999999999999995
 12
0.2028222191534975
 22
0.489656152230979
 32
-0.0000000000000007
 13
0.0000000000000006
 23
0.529999999999995
 33
-0.0000000000000007
  0
3DFACE
  5
168C
  8
TURRET
 10
0.2028222191534975
 20
0.489656152230979
 30
0.1999999999999995
 11
0.3747665940288694
 21
0.3747665940288671
 31
0.1999999999999995
 12
0.3747665940288694
 22
0.3747665940288671
 32
-0.0000000000000007
 13
0.2028222191534975
 23
0.489656152230979
 33
-0.0000000000000007
  0
3DFACE
  5
168D
  8
TURRET
 10
0.3747665940288694
 20
0.3747665940288671
 30
0.1999999999999995
 11
0.4896561522309808
 21
0.2028222191534938
 31
0.1999999999999995
 12
0.4896561522309808
 22
0.2028222191534938
 32
-0.0000000000000007
 13
0.3747665940288694
 23
0.3747665940288671
 33
-0.0000000000000007
  0
3DFACE
  5
168E
  8
TURRET
 10
0.4896561522309808
 20
0.2028222191534938
 30
0.1999999999999995
 11
0.5299999999999984
 21
-0.0000000000000027
 31
0.1999999999999995
 12
0.5299999999999984
 22
-0.0000000000000027
 32
-0.0000000000000007
 13
0.4896561522309808
 23
0.2028222191534938
 33
-0.0000000000000007
  0
3DFACE
  5
168F
  8
TURRET
 10
0.5299999999999984
 20
-0.0000000000000027
 30
0.1999999999999995
 11
0.4896561522309808
 21
-0.2028222191534992
 31
0.1999999999999995
 12
0.4896561522309808
 22
-0.2028222191534992
 32
-0.0000000000000007
 13
0.5299999999999984
 23
-0.0000000000000027
 33
-0.0000000000000007
  0
3DFACE
  5
1690
  8
TURRET
 10
0.4896561522309808
 20
-0.2028222191534992
 30
0.1999999999999995
 11
0.3747665940288694
 21
-0.3747665940288725
 31
0.1999999999999995
 12
0.3747665940288694
 22
-0.3747665940288725
 32
-0.0000000000000007
 13
0.4896561522309808
 23
-0.2028222191534992
 33
-0.0000000000000007
  0
3DFACE
  5
1691
  8
TURRET
 10
0.3747665940288694
 20
-0.3747665940288725
 30
0.1999999999999995
 11
0.2028222191534973
 21
-0.4896561522309844
 31
0.1999999999999995
 12
0.2028222191534973
 22
-0.4896561522309844
 32
-0.0000000000000007
 13
0.3747665940288694
 23
-0.3747665940288725
 33
-0.0000000000000007
  0
3DFACE
  5
1692
  8
TURRET
 10
0.2028222191534973
 20
-0.4896561522309844
 30
0.1999999999999995
 11
0.0000000000000003
 21
-0.5300000000000003
 31
0.1999999999999995
 12
0.0000000000000003
 22
-0.5300000000000003
 32
-0.0000000000000007
 13
0.2028222191534973
 23
-0.4896561522309844
 33
-0.0000000000000007
  0
3DFACE
  5
1693
  8
TURRET
 10
0.0000000000000003
 20
-0.5300000000000003
 30
0.1999999999999995
 11
-0.2028222191534966
 21
-0.4896561522309844
 31
0.1999999999999995
 12
-0.2028222191534966
 22
-0.4896561522309844
 32
-0.0000000000000007
 13
0.0000000000000003
 23
-0.5300000000000003
 33
-0.0000000000000007
  0
3DFACE
  5
1694
  8
TURRET
 10
-0.2028222191534966
 20
-0.4896561522309844
 30
0.1999999999999995
 11
-0.3747665940288686
 21
-0.3747665940288725
 31
0.1999999999999995
 12
-0.3747665940288686
 22
-0.3747665940288725
 32
-0.0000000000000007
 13
-0.2028222191534966
 23
-0.4896561522309844
 33
-0.0000000000000007
  0
3DFACE
  5
1695
  8
TURRET
 10
-0.3747665940288686
 20
-0.3747665940288725
 30
0.1999999999999995
 11
-0.4896561522309796
 21
-0.2028222191534992
 31
0.1999999999999995
 12
-0.4896561522309796
 22
-0.2028222191534992
 32
-0.0000000000000007
 13
-0.3747665940288686
 23
-0.3747665940288725
 33
-0.0000000000000007
  0
3DFACE
  5
1696
  8
TURRET
 10
-0.4896561522309796
 20
-0.2028222191534992
 30
0.1999999999999995
 11
-0.5299999999999977
 21
-0.0000000000000027
 31
0.1999999999999995
 12
-0.5299999999999977
 22
-0.0000000000000027
 32
-0.0000000000000007
 13
-0.4896561522309796
 23
-0.2028222191534992
 33
-0.0000000000000007
  0
3DFACE
  5
1697
  8
TURRET
 10
-0.5299999999999977
 20
-0.0000000000000027
 30
0.1999999999999995
 11
-0.48965615223098
 21
0.2028222191534938
 31
0.1999999999999995
 12
-0.48965615223098
 22
0.2028222191534938
 32
-0.0000000000000007
 13
-0.5299999999999977
 23
-0.0000000000000027
 33
-0.0000000000000007
  0
3DFACE
  5
1698
  8
TURRET
 10
-0.48965615223098
 20
0.2028222191534938
 30
0.1999999999999995
 11
-0.374766594028868
 21
0.3747665940288671
 31
0.1999999999999995
 12
-0.374766594028868
 22
0.3747665940288671
 32
-0.0000000000000007
 13
-0.48965615223098
 23
0.2028222191534938
 33
-0.0000000000000007
  0
3DFACE
  5
1699
  8
TURRET
 10
-0.374766594028868
 20
0.3747665940288671
 30
0.1999999999999995
 11
-0.2028222191534956
 21
0.489656152230979
 31
0.1999999999999995
 12
-0.2028222191534956
 22
0.489656152230979
 32
-0.0000000000000007
 13
-0.374766594028868
 23
0.3747665940288671
 33
-0.0000000000000007
  0
3DFACE
  5
169A
  8
TURRET
 10
-0.2028222191534956
 20
0.489656152230979
 30
0.1999999999999995
 11
0.0000000000000006
 21
0.529999999999995
 31
0.1999999999999995
 12
0.0000000000000006
 22
0.529999999999995
 32
-0.0000000000000007
 13
-0.2028222191534956
 23
0.489656152230979
 33
-0.0000000000000007
  0
3DFACE
  5
169B
  8
TURRET
 10
-0.3464823227814069
 20
0.346482322781406
 30
0.1999999999999995
 11
-0.1875148818588932
 21
0.4527009709305263
 31
0.1999999999999995
 12
-0.2028222191534956
 22
0.489656152230979
 32
0.1999999999999995
 13
-0.374766594028868
 23
0.3747665940288671
 33
0.1999999999999995
  0
3DFACE
  5
169C
  8
TURRET
 10
-0.4527009709305284
 20
0.1875148818588924
 30
0.1999999999999995
 11
-0.3464823227814059
 21
0.3464823227814046
 31
0.1999999999999995
 12
-0.3747665940288672
 22
0.3747665940288682
 32
0.1999999999999995
 13
-0.4896561522309789
 23
0.2028222191534956
 33
0.1999999999999995
  0
3DFACE
  5
169D
  8
TURRET
 10
-0.4899999999999975
 20
-0.0000000000000006
 30
0.1999999999999995
 11
-0.4527009709305271
 21
0.1875148818588916
 31
0.1999999999999995
 12
-0.4896561522309785
 22
0.202822219153497
 32
0.1999999999999995
 13
-0.5299999999999964
 23
-0.0000000000000006
 33
0.1999999999999995
  0
3DFACE
  5
169E
  8
TURRET
 10
-0.4527009709305279
 20
-0.1875148818588934
 30
0.1999999999999995
 11
-0.4899999999999958
 21
-0.0000000000000008
 31
0.1999999999999995
 12
-0.5299999999999966
 22
0.0000000000000009
 32
0.1999999999999995
 13
-0.4896561522309784
 23
-0.2028222191534966
 33
0.1999999999999995
  0
3DFACE
  5
169F
  8
TURRET
 10
-0.346482322781406
 20
-0.3464823227814068
 30
0.1999999999999995
 11
-0.4527009709305263
 21
-0.1875148818588931
 31
0.1999999999999995
 12
-0.4896561522309791
 22
-0.2028222191534954
 32
0.1999999999999995
 13
-0.3747665940288672
 23
-0.3747665940288679
 33
0.1999999999999995
  0
3DFACE
  5
16A0
  8
TURRET
 10
-0.1875148818588924
 20
-0.4527009709305283
 30
0.1999999999999995
 11
-0.3464823227814047
 21
-0.3464823227814059
 31
0.1999999999999995
 12
-0.3747665940288682
 22
-0.3747665940288671
 32
0.1999999999999995
 13
-0.2028222191534956
 23
-0.4896561522309789
 33
0.1999999999999995
  0
3DFACE
  5
16A1
  8
TURRET
 10
0.0000000000000003
 20
-0.4899999999999974
 30
0.1999999999999995
 11
-0.1875148818588918
 21
-0.4527009709305271
 31
0.1999999999999995
 12
-0.202822219153497
 22
-0.4896561522309784
 32
0.1999999999999995
 13
0.0000000000000003
 23
-0.5299999999999963
 33
0.1999999999999995
  0
3DFACE
  5
16A2
  8
TURRET
 10
0.1875148818588933
 20
-0.4527009709305279
 30
0.1999999999999995
 11
0.0000000000000006
 21
-0.4899999999999958
 31
0.1999999999999995
 12
-0.000000000000001
 22
-0.5299999999999963
 32
0.1999999999999995
 13
0.2028222191534964
 23
-0.4896561522309784
 33
0.1999999999999995
  0
3DFACE
  5
16A3
  8
TURRET
 10
0.3464823227814067
 20
-0.3464823227814062
 30
0.1999999999999995
 11
0.187514881858893
 21
-0.4527009709305263
 31
0.1999999999999995
 12
0.2028222191534954
 22
-0.4896561522309791
 32
0.1999999999999995
 13
0.3747665940288678
 23
-0.3747665940288674
 33
0.1999999999999995
  0
3DFACE
  5
16A4
  8
TURRET
 10
0.4527009709305282
 20
-0.1875148818588926
 30
0.1999999999999995
 11
0.3464823227814058
 21
-0.3464823227814049
 31
0.1999999999999995
 12
0.374766594028867
 22
-0.3747665940288685
 32
0.1999999999999995
 13
0.4896561522309787
 23
-0.2028222191534958
 33
0.1999999999999995
  0
3DFACE
  5
16A5
  8
TURRET
 10
0.4899999999999975
 20
0.0000000000000004
 30
0.1999999999999995
 11
0.4527009709305269
 21
-0.1875148818588917
 31
0.1999999999999995
 12
0.4896561522309785
 22
-0.202822219153497
 32
0.1999999999999995
 13
0.5299999999999964
 23
0.0000000000000003
 33
0.1999999999999995
  0
3DFACE
  5
16A6
  8
TURRET
 10
0.452700970930528
 20
0.1875148818588934
 30
0.1999999999999995
 11
0.4899999999999958
 21
0.0000000000000007
 31
0.1999999999999995
 12
0.5299999999999966
 22
-0.0000000000000009
 32
0.1999999999999995
 13
0.4896561522309785
 23
0.2028222191534965
 33
0.1999999999999995
  0
3DFACE
  5
16A7
  8
TURRET
 10
0.3464823227814064
 20
0.3464823227814065
 30
0.1999999999999995
 11
0.4527009709305264
 21
0.1875148818588927
 31
0.1999999999999995
 12
0.4896561522309792
 22
0.2028222191534952
 32
0.1999999999999995
 13
0.3747665940288675
 23
0.3747665940288676
 33
0.1999999999999995
  0
3DFACE
  5
16A8
  8
TURRET
 10
0.1875148818588931
 20
0.452700970930528
 30
0.1999999999999995
 11
0.3464823227814052
 21
0.3464823227814054
 31
0.1999999999999995
 12
0.3747665940288687
 22
0.3747665940288666
 32
0.1999999999999995
 13
0.2028222191534963
 23
0.4896561522309785
 33
0.1999999999999995
  0
3DFACE
  5
16A9
  8
TURRET
 10
0.0000000000000003
 20
0.4899999999999974
 30
0.1999999999999995
 11
0.1875148818588924
 21
0.4527009709305267
 31
0.1999999999999995
 12
0.2028222191534978
 22
0.4896561522309781
 32
0.1999999999999995
 13
0.0000000000000004
 23
0.5299999999999963
 33
0.1999999999999995
  0
3DFACE
  5
16AA
  8
TURRET
 10
-0.1875148818588925
 20
0.4527009709305283
 30
0.1999999999999995
 11
0.0000000000000003
 21
0.4899999999999959
 31
0.1999999999999995
 12
0.0000000000000019
 22
0.5299999999999967
 32
0.1999999999999995
 13
-0.2028222191534956
 23
0.4896561522309788
 33
0.1999999999999995
  0
3DFACE
  5
17A9
  8
TURRET
 10
0.08
 20
-0.4499999999999998
 30
0.3600000000000001
 11
0.08
 21
-0.5499999999999999
 31
0.3600000000000001
 12
0.08
 22
-0.5199999999999998
 32
0.4900000000000004
 13
0.08
 23
-0.4799999999999998
 33
0.4900000000000004
  0
3DFACE
  5
17AA
  8
TURRET
 10
0.1
 20
-0.5199999999999998
 30
0.4900000000000004
 11
0.1
 21
-0.5499999999999999
 31
0.3600000000000001
 12
0.1
 22
-0.4499999999999998
 32
0.3600000000000001
 13
0.1
 23
-0.4799999999999998
 33
0.4900000000000004
  0
3DFACE
  5
17AB
  8
TURRET
 10
0.08
 20
-0.5199999999999998
 30
0.4900000000000004
 11
0.08
 21
-0.5499999999999999
 31
0.3600000000000001
 12
0.1
 22
-0.5499999999999999
 32
0.3600000000000001
 13
0.1
 23
-0.5199999999999998
 33
0.4900000000000004
  0
3DFACE
  5
17AC
  8
TURRET
 10
0.1
 20
-0.4799999999999998
 30
0.4900000000000004
 11
0.1
 21
-0.4499999999999998
 31
0.3600000000000001
 12
0.08
 22
-0.4499999999999998
 32
0.3600000000000001
 13
0.08
 23
-0.4799999999999998
 33
0.4900000000000004
  0
3DFACE
  5
17B1
  8
TURRET
 10
0.1
 20
-0.4799999999999998
 30
0.4899999999999995
 11
0.1
 21
-0.4899999999999998
 31
0.5199999999999998
 12
0.1
 22
-0.5099999999999998
 32
0.5199999999999998
 13
0.1
 23
-0.5199999999999998
 33
0.4899999999999995
  0
3DFACE
  5
17B2
  8
TURRET
 10
0.08
 20
-0.4799999999999998
 30
0.4899999999999995
 11
0.08
 21
-0.4899999999999998
 31
0.5199999999999998
 12
0.1
 22
-0.4899999999999998
 32
0.5199999999999998
 13
0.1
 23
-0.4799999999999998
 33
0.4899999999999995
  0
3DFACE
  5
17B3
  8
TURRET
 10
0.08
 20
-0.5099999999999998
 30
0.5199999999999998
 11
0.08
 21
-0.4899999999999998
 31
0.5199999999999998
 12
0.08
 22
-0.4799999999999998
 32
0.4899999999999995
 13
0.08
 23
-0.5199999999999998
 33
0.4899999999999995
  0
3DFACE
  5
17B4
  8
TURRET
 10
0.1
 20
-0.5199999999999998
 30
0.4899999999999995
 11
0.1
 21
-0.5099999999999998
 31
0.5199999999999998
 12
0.08
 22
-0.5099999999999998
 32
0.5199999999999998
 13
0.08
 23
-0.5199999999999998
 33
0.4899999999999995
  0
3DFACE
  5
17B5
  8
TURRET
 10
0.1
 20
-0.5099999999999998
 30
0.5199999999999998
 11
0.1
 21
-0.4899999999999998
 31
0.5199999999999998
 12
0.08
 22
-0.4899999999999998
 32
0.5199999999999998
 13
0.08
 23
-0.5099999999999998
 33
0.5199999999999998
  0
3DFACE
  5
17B8
  8
TURRET
 10
0.1
 20
-0.5499999999999999
 30
0.3600000000000001
 11
0.1
 21
-0.5499999999999999
 31
0.3
 12
0.1
 22
-0.4499999999999998
 32
0.3
 13
0.1
 23
-0.4499999999999998
 33
0.3600000000000001
  0
3DFACE
  5
17B9
  8
TURRET
 10
-0.1
 20
-0.5499999999999999
 30
0.3600000000000001
 11
-0.1
 21
-0.5499999999999999
 31
0.3
 12
0.1
 22
-0.5499999999999999
 32
0.3
 13
0.1
 23
-0.5499999999999999
 33
0.3600000000000001
  0
3DFACE
  5
17BA
  8
TURRET
 10
0.1
 20
-0.4499999999999998
 30
0.3600000000000001
 11
0.1
 21
-0.4499999999999998
 31
0.3
 12
-0.1
 22
-0.4499999999999998
 32
0.3
 13
-0.1
 23
-0.4499999999999998
 33
0.3600000000000001
  0
3DFACE
  5
17BB
  8
TURRET
 10
-0.1
 20
-0.4499999999999998
 30
0.3
 11
-0.1
 21
-0.5499999999999999
 31
0.3
 12
-0.1
 22
-0.5499999999999999
 32
0.3600000000000001
 13
-0.1
 23
-0.4499999999999998
 33
0.3600000000000001
  0
3DFACE
  5
17BC
  8
TURRET
 10
0.1
 20
-0.4499999999999998
 30
0.3
 11
0.1
 21
-0.5499999999999999
 31
0.3
 12
-0.1
 22
-0.5499999999999999
 32
0.3
 13
-0.1
 23
-0.4499999999999998
 33
0.3
  0
3DFACE
  5
17BD
  8
TURRET
 10
-0.1
 20
-0.4499999999999998
 30
0.3600000000000001
 11
-0.1
 21
-0.5499999999999999
 31
0.3600000000000001
 12
0.1
 22
-0.5499999999999999
 32
0.3600000000000001
 13
0.1
 23
-0.4499999999999998
 33
0.3600000000000001
  0
3DFACE
  5
17BF
  8
TURRET
 10
-0.08
 20
-0.5199999999999998
 30
0.4900000000000004
 11
-0.08
 21
-0.5499999999999999
 31
0.3600000000000001
 12
-0.08
 22
-0.4499999999999998
 32
0.3600000000000001
 13
-0.08
 23
-0.4799999999999998
 33
0.4900000000000004
  0
3DFACE
  5
17C0
  8
TURRET
 10
-0.1
 20
-0.5199999999999998
 30
0.4900000000000004
 11
-0.1
 21
-0.5499999999999999
 31
0.3600000000000001
 12
-0.08
 22
-0.5499999999999999
 32
0.3600000000000001
 13
-0.08
 23
-0.5199999999999998
 33
0.4900000000000004
  0
3DFACE
  5
17C1
  8
TURRET
 10
-0.08
 20
-0.4799999999999998
 30
0.4900000000000004
 11
-0.08
 21
-0.4499999999999998
 31
0.3600000000000001
 12
-0.1
 22
-0.4499999999999998
 32
0.3600000000000001
 13
-0.1
 23
-0.4799999999999998
 33
0.4900000000000004
  0
3DFACE
  5
17C2
  8
TURRET
 10
-0.08
 20
-0.4799999999999998
 30
0.4899999999999995
 11
-0.08
 21
-0.4899999999999998
 31
0.5199999999999998
 12
-0.08
 22
-0.5099999999999998
 32
0.5199999999999998
 13
-0.08
 23
-0.5199999999999998
 33
0.4899999999999995
  0
3DFACE
  5
17C3
  8
TURRET
 10
-0.1
 20
-0.4799999999999998
 30
0.4899999999999995
 11
-0.1
 21
-0.4899999999999998
 31
0.5199999999999998
 12
-0.08
 22
-0.4899999999999998
 32
0.5199999999999998
 13
-0.08
 23
-0.4799999999999998
 33
0.4899999999999995
  0
3DFACE
  5
17C4
  8
TURRET
 10
-0.08
 20
-0.5199999999999998
 30
0.4899999999999995
 11
-0.08
 21
-0.5099999999999998
 31
0.5199999999999998
 12
-0.1
 22
-0.5099999999999998
 32
0.5199999999999998
 13
-0.1
 23
-0.5199999999999998
 33
0.4899999999999995
  0
3DFACE
  5
17C7
  8
TURRET
 10
-0.1
 20
-0.4499999999999998
 30
0.3600000000000001
 11
-0.1
 21
-0.5499999999999999
 31
0.3600000000000001
 12
-0.1
 22
-0.5199999999999998
 32
0.4900000000000004
 13
-0.1
 23
-0.4799999999999998
 33
0.4900000000000004
  0
3DFACE
  5
17C9
  8
TURRET
 10
-0.1
 20
-0.5099999999999998
 30
0.5199999999999998
 11
-0.1
 21
-0.4899999999999998
 31
0.5199999999999998
 12
-0.1
 22
-0.4799999999999998
 32
0.4899999999999995
 13
-0.1
 23
-0.5199999999999998
 33
0.4899999999999995
  0
3DFACE
  5
17CA
  8
TURRET
 10
-0.08
 20
-0.5099999999999998
 30
0.5199999999999998
 11
-0.08
 21
-0.4899999999999998
 31
0.5199999999999998
 12
-0.1
 22
-0.4899999999999998
 32
0.5199999999999998
 13
-0.1
 23
-0.5099999999999998
 33
0.5199999999999998
  0
3DFACE
  5
17DA
  8
TURRET
 10
0.03
 20
-0.4999999999999999
 30
0.1999999999999995
 11
0.0
 21
-0.4699999999999998
 31
0.1999999999999995
 12
0.0
 22
-0.4699999999999998
 32
0.3
 13
0.03
 23
-0.4999999999999999
 33
0.3
  0
3DFACE
  5
17DB
  8
TURRET
 10
0.0
 20
-0.4699999999999998
 30
0.1999999999999995
 11
-0.03
 21
-0.4999999999999999
 31
0.1999999999999995
 12
-0.03
 22
-0.4999999999999999
 32
0.3
 13
0.0
 23
-0.4699999999999998
 33
0.3
  0
3DFACE
  5
17DC
  8
TURRET
 10
-0.03
 20
-0.4999999999999999
 30
0.1999999999999995
 11
0.0
 21
-0.5299999999999998
 31
0.1999999999999995
 12
0.0
 22
-0.5299999999999998
 32
0.3
 13
-0.03
 23
-0.4999999999999999
 33
0.3
  0
3DFACE
  5
17DD
  8
TURRET
 10
0.0
 20
-0.5299999999999998
 30
0.1999999999999995
 11
0.03
 21
-0.4999999999999999
 31
0.1999999999999995
 12
0.03
 22
-0.4999999999999999
 32
0.3
 13
0.0
 23
-0.5299999999999998
 33
0.3
  0
VIEWPORT
  5
2E
 67
     1
  8
0
 10
144.7270812988281
 20
101.2295806407928
 30
0.0
 40
391.13550988316581
 41
222.15178063964839
 68
     2
 69
     1
1001
ACAD
1000
MVIEW
1002
{
1070
    16
1010
0.0
1020
0.0
1030
0.0
1010
0.0
1020
0.0
1030
1.0
1040
0.0
1040
222.15178063964839
1040
144.7270812988281
1040
101.2295806407928
1040
50.0
1040
0.0
1040
0.0
1070
     0
1070
   100
1070
     1
1070
     1
1070
     0
1070
     0
1070
     0
1070
     0
1040
0.0
1040
0.0
1040
0.0
1040
10.0
1040
10.0
1040
10.0
1040
10.0
1070
     0
1002
{
1002
}
1002
}
  0
VIEWPORT
  5
30
 67
     1
  8
0
 10
139.22375631332389
 20
100.8062499761581
 30
0.0
 40
222.75801010131829
 41
161.289999961853
 68
     1
 69
     2
1001
ACAD
1000
MVIEW
1002
{
1070
    16
1010
0.0
1020
0.0
1030
0.0
1010
0.0
1020
0.0
1030
1.0
1040
0.0
1040
307.49010134148989
1040
210.0
1040
148.5
1040
50.0
1040
0.0
1040
0.0
1070
     0
1070
   100
1070
     1
1070
     3
1070
     0
1070
     1
1070
     0
1070
     0
1040
0.0
1040
0.0
1040
0.0
1040
10.0
1040
10.0
1040
10.0
1040
10.0
1070
     0
1002
{
1002
}
1002
}
  0
ENDSEC
  0
EOF
