  0
SECTION
  2
HEADER
  9
$ACADVER
  1
AC1009
  9
$INSBASE
 10
0.0
 20
0.0
 30
0.0
  9
$EXTMIN
 10
-0.6
 20
-2.355999999999999
 30
-2.489999999999998
  9
$EXTMAX
 10
3.0
 20
4.8499999999999988
 30
1.278460674157303
  9
$LIMMIN
 10
0.0
 20
0.0
  9
$LIMMAX
 10
420.0
 20
297.0
  9
$ORTHOMODE
 70
     1
  9
$REGENMODE
 70
     1
  9
$FILLMODE
 70
     1
  9
$QTEXTMODE
 70
     0
  9
$MIRRTEXT
 70
     1
  9
$DRAGMODE
 70
     2
  9
$LTSCALE
 40
1.0
  9
$OSMODE
 70
   559
  9
$ATTMODE
 70
     1
  9
$TEXTSIZE
 40
2.5
  9
$TRACEWID
 40
1.0
  9
$TEXTSTYLE
  7
STANDARD
  9
$CLAYER
  8
TURRET
  9
$CELTYPE
  6
BYLAYER
  9
$CECOLOR
 62
   256
  9
$DIMSCALE
 40
1.0
  9
$DIMASZ
 40
2.5
  9
$DIMEXO
 40
0.625
  9
$DIMDLI
 40
3.75
  9
$DIMRND
 40
0.0
  9
$DIMDLE
 40
0.0
  9
$DIMEXE
 40
1.25
  9
$DIMTP
 40
0.0
  9
$DIMTM
 40
0.0
  9
$DIMTXT
 40
2.5
  9
$DIMCEN
 40
2.5
  9
$DIMTSZ
 40
0.0
  9
$DIMTOL
 70
     0
  9
$DIMLIM
 70
     0
  9
$DIMTIH
 70
     0
  9
$DIMTOH
 70
     0
  9
$DIMSE1
 70
     0
  9
$DIMSE2
 70
     0
  9
$DIMTAD
 70
     1
  9
$DIMZIN
 70
     8
  9
$DIMBLK
  1

  9
$DIMASO
 70
     1
  9
$DIMSHO
 70
     1
  9
$DIMPOST
  1

  9
$DIMAPOST
  1

  9
$DIMALT
 70
     0
  9
$DIMALTD
 70
     3
  9
$DIMALTF
 40
0.03937007874016
  9
$DIMLFAC
 40
1.0
  9
$DIMTOFL
 70
     1
  9
$DIMTVP
 40
0.0
  9
$DIMTIX
 70
     0
  9
$DIMSOXD
 70
     0
  9
$DIMSAH
 70
     0
  9
$DIMBLK1
  1

  9
$DIMBLK2
  1

  9
$DIMSTYLE
  2
ISO-25
  9
$DIMCLRD
 70
     0
  9
$DIMCLRE
 70
     0
  9
$DIMCLRT
 70
     0
  9
$DIMTFAC
 40
1.0
  9
$DIMGAP
 40
0.625
  9
$LUNITS
 70
     2
  9
$LUPREC
 70
     4
  9
$SKETCHINC
 40
1.0
  9
$FILLETRAD
 40
10.0
  9
$AUNITS
 70
     0
  9
$AUPREC
 70
     0
  9
$MENU
  1
.
  9
$ELEVATION
 40
0.0
  9
$PELEVATION
 40
0.0
  9
$THICKNESS
 40
0.0
  9
$LIMCHECK
 70
     0
  9
$BLIPMODE
 70
     0
  9
$CHAMFERA
 40
10.0
  9
$CHAMFERB
 40
10.0
  9
$SKPOLY
 70
     0
  9
$TDCREATE
 40
2454912.9350283211
  9
$TDUPDATE
 40
2454913.4574316428
  9
$TDINDWG
 40
0.1259141782
  9
$TDUSRTIMER
 40
0.1259141782
  9
$USRTIMER
 70
     1
  9
$ANGBASE
 50
0.0
  9
$ANGDIR
 70
     0
  9
$PDMODE
 70
     0
  9
$PDSIZE
 40
0.0
  9
$PLINEWID
 40
0.0
  9
$COORDS
 70
     1
  9
$SPLFRAME
 70
     0
  9
$SPLINETYPE
 70
     6
  9
$SPLINESEGS
 70
     8
  9
$ATTDIA
 70
     1
  9
$ATTREQ
 70
     1
  9
$HANDLING
 70
-16383
  9
$HANDSEED
  5
3A7
  9
$SURFTAB1
 70
     6
  9
$SURFTAB2
 70
     6
  9
$SURFTYPE
 70
     6
  9
$SURFU
 70
     6
  9
$SURFV
 70
     6
  9
$UCSNAME
  2

  9
$UCSORG
 10
0.0
 20
0.0
 30
0.0
  9
$UCSXDIR
 10
0.0
 20
-1.0
 30
0.0
  9
$UCSYDIR
 10
0.0
 20
0.0
 30
1.0
  9
$PUCSNAME
  2

  9
$PUCSORG
 10
0.0
 20
0.0
 30
0.0
  9
$PUCSXDIR
 10
1.0
 20
0.0
 30
0.0
  9
$PUCSYDIR
 10
0.0
 20
1.0
 30
0.0
  9
$USERI1
 70
     0
  9
$USERI2
 70
     0
  9
$USERI3
 70
     0
  9
$USERI4
 70
     0
  9
$USERI5
 70
     0
  9
$USERR1
 40
0.0
  9
$USERR2
 40
0.0
  9
$USERR3
 40
0.0
  9
$USERR4
 40
0.0
  9
$USERR5
 40
0.0
  9
$WORLDVIEW
 70
     1
  9
$SHADEDGE
 70
     3
  9
$SHADEDIF
 70
    70
  9
$TILEMODE
 70
     1
  9
$MAXACTVP
 70
    64
  9
$PLIMCHECK
 70
     0
  9
$PEXTMIN
 10
27.844751262664801
 20
20.161249995231621
 30
0.0
  9
$PEXTMAX
 10
250.60276136398309
 20
181.4512499570846
 30
0.0
  9
$PLIMMIN
 10
-3.757080078125
 20
-3.7570831775665279
  9
$PLIMMAX
 10
293.21124267578119
 20
206.21624445915219
  9
$UNITMODE
 70
     0
  9
$VISRETAIN
 70
     1
  9
$PLINEGEN
 70
     0
  9
$PSLTSCALE
 70
     1
  0
ENDSEC
  0
SECTION
  2
TABLES
  0
TABLE
  2
VPORT
 70
    14
  0
VPORT
  2
*ACTIVE
 70
     0
 10
0.0
 20
0.0
 11
1.0
 21
1.0
 12
-0.0161439376140522
 22
0.3417598777260569
 13
0.0
 23
0.0
 14
0.01
 24
0.01
 15
1.0
 25
1.0
 16
-1.0
 26
0.0
 36
0.0
 17
0.0
 27
0.0
 37
0.0
 40
2.7072089675417028
 41
1.7606679035250461
 42
50.0
 43
0.0
 44
0.0
 50
0.0
 51
0.0
 71
     0
 72
   100
 73
     1
 74
     3
 75
     1
 76
     1
 77
     0
 78
     0
  0
ENDTAB
  0
TABLE
  2
LTYPE
 70
     1
  0
LTYPE
  2
CONTINUOUS
 70
     0
  3
Solid line
 72
    65
 73
     0
 40
0.0
  0
ENDTAB
  0
TABLE
  2
LAYER
 70
     8
  0
LAYER
  2
0
 70
     0
 62
     7
  6
CONTINUOUS
  0
LAYER
  2
DRAWING
 70
     0
 62
     9
  6
CONTINUOUS
  0
LAYER
  2
BARREL
 70
     0
 62
     1
  6
CONTINUOUS
  0
LAYER
  2
SLEEVE
 70
     0
 62
     5
  6
CONTINUOUS
  0
LAYER
  2
TRAIL
 70
     0
 62
     5
  6
CONTINUOUS
  0
LAYER
  2
CARRIAGE
 70
     0
 62
     7
  6
CONTINUOUS
  0
LAYER
  2
TURRET
 70
     0
 62
     2
  6
CONTINUOUS
  0
LAYER
  2
WHEELS
 70
     0
 62
     2
  6
CONTINUOUS
  0
ENDTAB
  0
TABLE
  2
STYLE
 70
     1
  0
STYLE
  2
STANDARD
 70
     0
 40
0.0
 41
1.0
 50
0.0
 71
     0
 42
2.5
  3
txt
  4

  0
ENDTAB
  0
TABLE
  2
VIEW
 70
     0
  0
ENDTAB
  0
TABLE
  2
UCS
 70
     0
  0
ENDTAB
  0
TABLE
  2
APPID
 70
     1
  0
APPID
  2
ACAD
 70
     0
  0
ENDTAB
  0
TABLE
  2
DIMSTYLE
 70
     1
  0
DIMSTYLE
  2
ISO-25
 70
     0
  3

  4

  5

  6

  7

 40
1.0
 41
2.5
 42
0.625
 43
3.75
 44
1.25
 45
0.0
 46
0.0
 47
0.0
 48
0.0
140
2.5
141
2.5
142
0.0
143
0.03937007874016
144
1.0
145
0.0
146
1.0
147
0.625
 71
     0
 72
     0
 73
     0
 74
     0
 75
     0
 76
     0
 77
     1
 78
     8
170
     0
171
     3
172
     1
173
     0
174
     0
175
     0
176
     0
177
     0
178
     0
  0
ENDTAB
  0
ENDSEC
  0
SECTION
  2
BLOCKS
  0
BLOCK
  8
0
  2
$MODEL_SPACE
 70
     0
 10
0.0
 20
0.0
 30
0.0
  3
$MODEL_SPACE
  1

  0
ENDBLK
  5
21
  8
0
  0
BLOCK
 67
     1
  8
0
  2
$PAPER_SPACE
 70
     0
 10
0.0
 20
0.0
 30
0.0
  3
$PAPER_SPACE
  1

  0
ENDBLK
  5
1D
 67
     1
  8
0
  0
ENDSEC
  0
SECTION
  2
ENTITIES
  0
3DFACE
  5
273
  8
TURRET
 10
0.06
 20
0.06
 30
0.5900000000000001
 11
0.06
 21
-0.0600000000000002
 31
0.5900000000000001
 12
0.06
 22
-0.0600000000000002
 32
0.7800000000000001
 13
0.06
 23
0.03
 33
0.7800000000000001
  0
3DFACE
  5
274
  8
TURRET
 10
0.06
 20
-0.0600000000000002
 30
0.7800000000000001
 11
0.06
 21
-0.0600000000000002
 31
0.5900000000000001
 12
0.09
 22
-0.0600000000000002
 32
0.5900000000000001
 13
0.09
 23
-0.0600000000000002
 33
0.7800000000000001
  0
3DFACE
  5
275
  8
TURRET
 10
0.09
 20
-0.0600000000000002
 30
0.7800000000000001
 11
0.09
 21
-0.0600000000000002
 31
0.5900000000000001
 12
0.09
 22
0.06
 32
0.5900000000000001
 13
0.09
 23
0.03
 33
0.7800000000000001
  0
3DFACE
  5
276
  8
TURRET
 10
0.09
 20
0.03
 30
0.7800000000000001
 11
0.09
 21
0.06
 31
0.5900000000000001
 12
0.06
 22
0.06
 32
0.5900000000000001
 13
0.06
 23
0.03
 33
0.7800000000000001
  0
3DFACE
  5
278
  8
TURRET
 10
0.06
 20
0.03
 30
0.7800000000000001
 11
0.06
 21
-0.0600000000000002
 31
0.7800000000000001
 12
0.09
 22
-0.0600000000000002
 32
0.7800000000000001
 13
0.09
 23
0.03
 33
0.7800000000000001
  0
3DFACE
  5
27A
  8
TURRET
 10
-0.06
 20
0.03
 30
0.7800000000000001
 11
-0.06
 21
0.06
 31
0.5900000000000001
 12
-0.09
 22
0.06
 32
0.5900000000000001
 13
-0.09
 23
0.03
 33
0.7800000000000001
  0
3DFACE
  5
27B
  8
TURRET
 10
-0.09
 20
-0.0600000000000002
 30
0.7800000000000001
 11
-0.09
 21
-0.0600000000000002
 31
0.5900000000000001
 12
-0.06
 22
-0.0600000000000002
 32
0.5900000000000001
 13
-0.06
 23
-0.0600000000000002
 33
0.7800000000000001
  0
3DFACE
  5
27C
  8
TURRET
 10
-0.09
 20
0.06
 30
0.5900000000000001
 11
-0.09
 21
-0.0600000000000002
 31
0.5900000000000001
 12
-0.09
 22
-0.0600000000000002
 32
0.7800000000000001
 13
-0.09
 23
0.03
 33
0.7800000000000001
  0
3DFACE
  5
27D
  8
TURRET
 10
-0.06
 20
-0.0600000000000002
 30
0.7800000000000001
 11
-0.06
 21
-0.0600000000000002
 31
0.5900000000000001
 12
-0.06
 22
0.06
 32
0.5900000000000001
 13
-0.06
 23
0.03
 33
0.7800000000000001
  0
3DFACE
  5
27F
  8
TURRET
 10
-0.09
 20
0.03
 30
0.7800000000000001
 11
-0.09
 21
-0.0600000000000002
 31
0.7800000000000001
 12
-0.06
 22
-0.0600000000000002
 32
0.7800000000000001
 13
-0.06
 23
0.03
 33
0.7800000000000001
  0
3DFACE
  5
281
  8
TURRET
 10
0.12
 20
0.0
 30
0.5200000000000001
 11
0.0848528137423857
 21
0.0848528137423857
 31
0.5200000000000001
 12
0.0848528137423857
 22
0.0848528137423857
 32
0.5900000000000001
 13
0.12
 23
0.0
 33
0.5900000000000001
  0
3DFACE
  5
282
  8
TURRET
 10
0.0848528137423857
 20
0.0848528137423857
 30
0.5200000000000001
 11
0.0
 21
0.1199999999999999
 31
0.5200000000000001
 12
0.0
 22
0.1199999999999999
 32
0.5900000000000001
 13
0.0848528137423857
 23
0.0848528137423857
 33
0.5900000000000001
  0
3DFACE
  5
283
  8
TURRET
 10
0.0
 20
0.1199999999999999
 30
0.5200000000000001
 11
-0.0848528137423857
 21
0.0848528137423857
 31
0.5200000000000001
 12
-0.0848528137423857
 22
0.0848528137423857
 32
0.5900000000000001
 13
0.0
 23
0.1199999999999999
 33
0.5900000000000001
  0
3DFACE
  5
284
  8
TURRET
 10
-0.0848528137423857
 20
0.0848528137423857
 30
0.5200000000000001
 11
-0.12
 21
0.0
 31
0.5200000000000001
 12
-0.12
 22
0.0
 32
0.5900000000000001
 13
-0.0848528137423857
 23
0.0848528137423857
 33
0.5900000000000001
  0
3DFACE
  5
285
  8
TURRET
 10
-0.12
 20
0.0
 30
0.5200000000000001
 11
-0.0848528137423857
 21
-0.0848528137423857
 31
0.5200000000000001
 12
-0.0848528137423857
 22
-0.0848528137423857
 32
0.5900000000000001
 13
-0.12
 23
0.0
 33
0.5900000000000001
  0
3DFACE
  5
286
  8
TURRET
 10
-0.0848528137423857
 20
-0.0848528137423857
 30
0.5200000000000001
 11
0.0
 21
-0.1200000000000001
 31
0.5200000000000001
 12
0.0
 22
-0.1200000000000001
 32
0.5900000000000001
 13
-0.0848528137423857
 23
-0.0848528137423857
 33
0.5900000000000001
  0
3DFACE
  5
287
  8
TURRET
 10
0.0
 20
-0.1200000000000001
 30
0.5200000000000001
 11
0.0848528137423857
 21
-0.0848528137423857
 31
0.5200000000000001
 12
0.0848528137423857
 22
-0.0848528137423857
 32
0.5900000000000001
 13
0.0
 23
-0.1200000000000001
 33
0.5900000000000001
  0
3DFACE
  5
288
  8
TURRET
 10
0.0848528137423857
 20
-0.0848528137423857
 30
0.5200000000000001
 11
0.12
 21
0.0
 31
0.5200000000000001
 12
0.12
 22
0.0
 32
0.5900000000000001
 13
0.0848528137423857
 23
-0.0848528137423857
 33
0.5900000000000001
  0
3DFACE
  5
29D
  8
TURRET
 10
0.0
 20
0.1199999999999999
 30
0.5900000000000001
 11
-0.0848528137423857
 21
0.0848528137423857
 31
0.5900000000000001
 12
-0.12
 22
0.0
 32
0.5900000000000001
 13
0.0848528137423857
 23
0.0848528137423857
 33
0.5900000000000001
  0
3DFACE
  5
29E
  8
TURRET
 10
0.0848528137423857
 20
0.0848528137423857
 30
0.5900000000000001
 11
-0.12
 21
0.0
 31
0.5900000000000001
 12
-0.0848528137423857
 22
-0.0848528137423857
 32
0.5900000000000001
 13
0.12
 23
0.0
 33
0.5900000000000001
  0
3DFACE
  5
29F
  8
TURRET
 10
0.12
 20
0.0
 30
0.5900000000000001
 11
-0.0848528137423857
 21
-0.0848528137423857
 31
0.5900000000000001
 12
0.0
 22
-0.1200000000000001
 32
0.5900000000000001
 13
0.0848528137423857
 23
-0.0848528137423857
 33
0.5900000000000001
  0
3DFACE
  5
2D8
  8
TURRET
 10
-0.11
 20
-0.065
 30
0.67
 11
-0.11
 21
-0.05
 31
0.6850000000000001
 12
-0.23
 22
-0.05
 32
0.6850000000000001
 13
-0.23
 23
-0.065
 33
0.67
  0
3DFACE
  5
2D9
  8
TURRET
 10
-0.11
 20
-0.05
 30
0.6850000000000001
 11
-0.11
 21
-0.035
 31
0.67
 12
-0.23
 22
-0.035
 32
0.67
 13
-0.23
 23
-0.05
 33
0.6850000000000001
  0
3DFACE
  5
2DA
  8
TURRET
 10
-0.11
 20
-0.035
 30
0.67
 11
-0.11
 21
-0.05
 31
0.6550000000000001
 12
-0.23
 22
-0.05
 32
0.6550000000000001
 13
-0.23
 23
-0.035
 33
0.67
  0
3DFACE
  5
2DB
  8
TURRET
 10
-0.11
 20
-0.05
 30
0.6550000000000001
 11
-0.11
 21
-0.065
 31
0.67
 12
-0.23
 22
-0.065
 32
0.67
 13
-0.23
 23
-0.05
 33
0.6550000000000001
  0
3DFACE
  5
2DC
  8
TURRET
 10
-0.09
 20
-0.15
 30
0.75
 11
-0.09
 21
-0.1207106781186547
 31
0.8207106781186547
 12
-0.11
 22
-0.1207106781186547
 32
0.8207106781186547
 13
-0.11
 23
-0.15
 33
0.75
  0
3DFACE
  5
2DD
  8
TURRET
 10
-0.09
 20
-0.1207106781186547
 30
0.8207106781186547
 11
-0.09
 21
-0.05
 31
0.85
 12
-0.11
 22
-0.05
 32
0.85
 13
-0.11
 23
-0.1207106781186547
 33
0.8207106781186547
  0
3DFACE
  5
2DE
  8
TURRET
 10
-0.09
 20
-0.05
 30
0.85
 11
-0.09
 21
0.0207106781186547
 31
0.8207106781186547
 12
-0.11
 22
0.0207106781186547
 32
0.8207106781186547
 13
-0.11
 23
-0.05
 33
0.85
  0
3DFACE
  5
2DF
  8
TURRET
 10
-0.09
 20
0.0207106781186547
 30
0.8207106781186547
 11
-0.09
 21
0.05
 31
0.75
 12
-0.11
 22
0.05
 32
0.75
 13
-0.11
 23
0.0207106781186547
 33
0.8207106781186547
  0
3DFACE
  5
2E0
  8
TURRET
 10
-0.09
 20
0.05
 30
0.75
 11
-0.09
 21
0.0207106781186547
 31
0.6792893218813452
 12
-0.11
 22
0.0207106781186547
 32
0.6792893218813452
 13
-0.11
 23
0.05
 33
0.75
  0
3DFACE
  5
2E1
  8
TURRET
 10
-0.09
 20
0.0207106781186547
 30
0.6792893218813452
 11
-0.09
 21
-0.05
 31
0.65
 12
-0.11
 22
-0.05
 32
0.65
 13
-0.11
 23
0.0207106781186547
 33
0.6792893218813452
  0
3DFACE
  5
2E2
  8
TURRET
 10
-0.09
 20
-0.05
 30
0.65
 11
-0.09
 21
-0.1207106781186547
 31
0.6792893218813452
 12
-0.11
 22
-0.1207106781186547
 32
0.6792893218813452
 13
-0.11
 23
-0.05
 33
0.65
  0
3DFACE
  5
2E3
  8
TURRET
 10
-0.09
 20
-0.1207106781186547
 30
0.6792893218813452
 11
-0.09
 21
-0.15
 31
0.75
 12
-0.11
 22
-0.15
 32
0.75
 13
-0.11
 23
-0.1207106781186547
 33
0.6792893218813452
  0
3DFACE
  5
2E4
  8
TURRET
 10
-0.23
 20
-0.05
 30
0.6850000000000001
 11
-0.23
 21
-0.035
 31
0.67
 12
-0.23
 22
-0.05
 32
0.6550000000000001
 13
-0.23
 23
-0.065
 33
0.67
  0
3DFACE
  5
2E5
  8
TURRET
 10
-0.11
 20
0.05
 30
0.75
 11
-0.11
 21
0.0207106781186547
 31
0.6792893218813452
 12
-0.11
 22
-0.05
 32
0.65
 13
-0.11
 23
-0.1207106781186547
 33
0.6792893218813452
  0
3DFACE
  5
2E6
  8
TURRET
 10
-0.11
 20
0.0207106781186547
 30
0.8207106781186547
 11
-0.11
 21
0.05
 31
0.75
 12
-0.11
 22
-0.1207106781186547
 32
0.6792893218813452
 13
-0.11
 23
-0.15
 33
0.75
  0
3DFACE
  5
2E7
  8
TURRET
 10
-0.11
 20
-0.05
 30
0.85
 11
-0.11
 21
0.0207106781186547
 31
0.8207106781186547
 12
-0.11
 22
-0.15
 32
0.75
 13
-0.11
 23
-0.1207106781186547
 33
0.8207106781186547
  0
3DFACE
  5
2E8
  8
TURRET
 10
-0.09
 20
-0.15
 30
0.75
 11
-0.09
 21
0.0207106781186547
 31
0.8207106781186547
 12
-0.09
 22
-0.05
 32
0.85
 13
-0.09
 23
-0.1207106781186547
 33
0.8207106781186547
  0
3DFACE
  5
2E9
  8
TURRET
 10
-0.09
 20
-0.1207106781186547
 30
0.6792893218813452
 11
-0.09
 21
0.05
 31
0.75
 12
-0.09
 22
0.0207106781186547
 32
0.8207106781186547
 13
-0.09
 23
-0.15
 33
0.75
  0
3DFACE
  5
2EA
  8
TURRET
 10
-0.09
 20
-0.05
 30
0.65
 11
-0.09
 21
0.0207106781186547
 31
0.6792893218813452
 12
-0.09
 22
0.05
 32
0.75
 13
-0.09
 23
-0.1207106781186547
 33
0.6792893218813452
  0
3DFACE
  5
2EB
  8
TURRET
 10
-0.09221825406948
 20
-0.2225208591589239
 30
0.6627873841338769
 11
-0.2129289321881346
 21
-0.0913652670794144
 31
0.7114626188856351
 12
-0.1629289321881346
 22
-0.1355196173602291
 32
0.7489893790382006
 13
-0.1129289321881347
 23
-0.1898460423806351
 33
0.728827436652328
  0
3DFACE
  5
2EC
  8
TURRET
 10
-0.1770710678118656
 20
-0.1494469021666294
 30
0.7514451351175799
 11
-0.2270710678118656
 21
-0.1052925518858147
 31
0.7139183749650144
 12
-0.1063603896932109
 22
-0.2364481439653243
 32
0.6652431402132564
 13
-0.1270710678118657
 23
-0.2037733271870355
 33
0.7312831927317074
  0
3DFACE
  5
2ED
  8
TURRET
 10
-0.1629289321881346
 20
-0.1355196173602291
 30
0.7489893790382006
 11
-0.2129289321881346
 21
-0.0913652670794144
 31
0.7114626188856351
 12
-0.2270710678118656
 22
-0.1052925518858147
 32
0.7139183749650144
 13
-0.1770710678118656
 23
-0.1494469021666294
 33
0.7514451351175799
  0
3DFACE
  5
2EE
  8
TURRET
 10
-0.1129289321881347
 20
-0.1898460423806351
 30
0.728827436652328
 11
-0.1629289321881346
 21
-0.1355196173602291
 31
0.7489893790382006
 12
-0.1770710678118656
 22
-0.1494469021666294
 32
0.7514451351175799
 13
-0.1270710678118657
 23
-0.2037733271870355
 33
0.7312831927317074
  0
3DFACE
  5
2EF
  8
TURRET
 10
-0.1629289321881346
 20
-0.1702492528936151
 30
0.5520278284357588
 11
-0.2129289321881346
 21
-0.1159228278732089
 31
0.5721897708216313
 12
-0.2336396103067894
 22
-0.0832480110949202
 32
0.6382298233400823
 13
-0.1129289321881347
 23
-0.2144036031744297
 33
0.5895545885883243
  0
3DFACE
  5
2F0
  8
TURRET
 10
-0.1129289321881347
 20
-0.2144036031744297
 30
0.5895545885883243
 11
-0.2336396103067894
 21
-0.0832480110949202
 31
0.6382298233400823
 12
-0.2129289321881346
 22
-0.0913652670794144
 32
0.7114626188856351
 13
-0.09221825406948
 23
-0.2225208591589239
 33
0.6627873841338769
  0
3DFACE
  5
2F1
  8
TURRET
 10
-0.2270710678118656
 20
-0.1052925518858147
 30
0.7139183749650144
 11
-0.2477817459305204
 21
-0.0971752959013205
 31
0.6406855794194617
 12
-0.1270710678118657
 22
-0.2283308879808301
 32
0.5920103446677036
 13
-0.1063603896932109
 23
-0.2364481439653243
 33
0.6652431402132564
  0
3DFACE
  5
2F2
  8
TURRET
 10
-0.2477817459305204
 20
-0.0971752959013205
 30
0.6406855794194617
 11
-0.2270710678118656
 21
-0.1298501126796093
 31
0.5746455269010107
 12
-0.1770710678118656
 22
-0.1841765377000156
 32
0.5544835845151384
 13
-0.1270710678118657
 23
-0.2283308879808301
 33
0.5920103446677036
  0
3DFACE
  5
2F3
  8
TURRET
 10
-0.1129289321881347
 20
-0.2144036031744297
 30
0.5895545885883243
 11
-0.09221825406948
 21
-0.2225208591589239
 31
0.6627873841338769
 12
-0.1063603896932109
 22
-0.2364481439653243
 32
0.6652431402132564
 13
-0.1270710678118657
 23
-0.2283308879808301
 33
0.5920103446677036
  0
3DFACE
  5
2F4
  8
TURRET
 10
-0.2336396103067894
 20
-0.0832480110949202
 30
0.6382298233400823
 11
-0.2129289321881346
 21
-0.1159228278732089
 31
0.5721897708216313
 12
-0.2270710678118656
 22
-0.1298501126796093
 32
0.5746455269010107
 13
-0.2477817459305204
 23
-0.0971752959013205
 33
0.6406855794194617
  0
3DFACE
  5
2F5
  8
TURRET
 10
-0.1629289321881346
 20
-0.1702492528936151
 30
0.5520278284357588
 11
-0.1129289321881347
 21
-0.2144036031744297
 31
0.5895545885883243
 12
-0.1270710678118657
 22
-0.2283308879808301
 32
0.5920103446677036
 13
-0.1770710678118656
 23
-0.1841765377000156
 33
0.5544835845151384
  0
3DFACE
  5
2F6
  8
TURRET
 10
-0.2129289321881346
 20
-0.1159228278732089
 30
0.5721897708216313
 11
-0.1629289321881346
 21
-0.1702492528936151
 31
0.5520278284357588
 12
-0.1770710678118656
 22
-0.1841765377000156
 32
0.5544835845151384
 13
-0.2270710678118656
 23
-0.1298501126796093
 33
0.5746455269010107
  0
3DFACE
  5
2F7
  8
TURRET
 10
-0.2129289321881346
 20
-0.0913652670794144
 30
0.7114626188856351
 11
-0.2336396103067894
 21
-0.0832480110949202
 31
0.6382298233400823
 12
-0.2477817459305204
 22
-0.0971752959013205
 32
0.6406855794194617
 13
-0.2270710678118656
 23
-0.1052925518858147
 33
0.7139183749650144
  0
3DFACE
  5
2F8
  8
TURRET
 10
-0.09221825406948
 20
-0.2225208591589239
 30
0.6627873841338769
 11
-0.1129289321881347
 21
-0.1898460423806351
 31
0.728827436652328
 12
-0.1270710678118657
 22
-0.2037733271870355
 32
0.7312831927317074
 13
-0.1063603896932109
 23
-0.2364481439653243
 33
0.6652431402132564
  0
3DFACE
  5
2F9
  8
TURRET
 10
-0.2619238815542512
 20
-0.2616625603200751
 30
0.6036863923468423
 11
-0.2725304832720496
 21
-0.2538218193802786
 31
0.5870724589921246
 12
-0.2619238815542512
 22
-0.266872005650083
 32
0.574142159756476
 13
-0.251317279836453
 23
-0.2747127465898793
 33
0.5907560931111937
  0
3DFACE
  5
2FA
  8
TURRET
 10
-0.1770710678118656
 20
-0.1833082968116809
 30
0.5594076232801993
 11
-0.1664644660940674
 21
-0.1911490377514771
 31
0.5760215566349169
 12
-0.251317279836453
 22
-0.2747127465898793
 32
0.5907560931111937
 13
-0.2619238815542512
 23
-0.266872005650083
 33
0.574142159756476
  0
3DFACE
  5
2FB
  8
TURRET
 10
-0.1876776695296639
 20
-0.1702581105418765
 30
0.5723379225158478
 11
-0.1770710678118656
 21
-0.1833082968116809
 31
0.5594076232801993
 12
-0.2619238815542512
 22
-0.266872005650083
 32
0.574142159756476
 13
-0.2725304832720496
 23
-0.2538218193802786
 33
0.5870724589921246
  0
3DFACE
  5
2FC
  8
TURRET
 10
-0.1770710678118656
 20
-0.178098851481673
 30
0.5889518558705655
 11
-0.1876776695296639
 21
-0.1702581105418765
 31
0.5723379225158478
 12
-0.2725304832720496
 22
-0.2538218193802786
 32
0.5870724589921246
 13
-0.2619238815542512
 23
-0.2616625603200751
 33
0.6036863923468423
  0
3DFACE
  5
2FD
  8
TURRET
 10
-0.1664644660940674
 20
-0.1911490377514771
 30
0.5760215566349169
 11
-0.1770710678118656
 21
-0.178098851481673
 31
0.5889518558705655
 12
-0.2619238815542512
 22
-0.2616625603200751
 32
0.6036863923468423
 13
-0.251317279836453
 23
-0.2747127465898793
 33
0.5907560931111937
  0
3DFACE
  5
2FE
  8
TURRET
 10
-0.0391852454804887
 20
-0.0519116202805192
 30
0.6327043721614785
 11
-0.0497918471982868
 21
-0.038861434010715
 31
0.6456346713971271
 12
-0.1629289321881345
 22
-0.150279712461918
 32
0.6652807200321627
 13
-0.1523223304703364
 23
-0.1633298987317222
 33
0.6523504207965143
  0
3DFACE
  5
2FF
  8
TURRET
 10
-0.0497918471982868
 20
-0.038861434010715
 30
0.6456346713971271
 11
-0.0603984489160851
 21
-0.0310206930709187
 31
0.6290207380424093
 12
-0.1735355339059328
 22
-0.1424389715221217
 32
0.648666786677445
 13
-0.1629289321881345
 23
-0.150279712461918
 33
0.6652807200321627
  0
3DFACE
  5
300
  8
TURRET
 10
-0.0603984489160851
 20
-0.0310206930709187
 30
0.6290207380424093
 11
-0.0497918471982868
 21
-0.0440708793407229
 31
0.6160904388067607
 12
-0.1629289321881345
 22
-0.155489157791926
 32
0.6357364874417965
 13
-0.1735355339059328
 23
-0.1424389715221217
 33
0.648666786677445
  0
3DFACE
  5
301
  8
TURRET
 10
-0.0497918471982868
 20
-0.0440708793407229
 30
0.6160904388067607
 11
-0.0391852454804887
 21
-0.0519116202805192
 31
0.6327043721614785
 12
-0.1523223304703364
 22
-0.1633298987317222
 32
0.6523504207965143
 13
-0.1629289321881345
 23
-0.155489157791926
 33
0.6357364874417965
  0
VIEWPORT
  5
2E
 67
     1
  8
0
 10
144.7270812988281
 20
101.2295806407928
 30
0.0
 40
391.13550988316581
 41
222.15178063964839
 68
     2
 69
     1
1001
ACAD
1000
MVIEW
1002
{
1070
    16
1010
0.0
1020
0.0
1030
0.0
1010
0.0
1020
0.0
1030
1.0
1040
0.0
1040
222.15178063964839
1040
144.7270812988281
1040
101.2295806407928
1040
50.0
1040
0.0
1040
0.0
1070
     0
1070
   100
1070
     1
1070
     1
1070
     0
1070
     0
1070
     0
1070
     0
1040
0.0
1040
0.0
1040
0.0
1040
10.0
1040
10.0
1040
10.0
1040
10.0
1070
     0
1002
{
1002
}
1002
}
  0
VIEWPORT
  5
30
 67
     1
  8
0
 10
139.22375631332389
 20
100.8062499761581
 30
0.0
 40
222.75801010131829
 41
161.289999961853
 68
     1
 69
     2
1001
ACAD
1000
MVIEW
1002
{
1070
    16
1010
0.0
1020
0.0
1030
0.0
1010
0.0
1020
0.0
1030
1.0
1040
0.0
1040
307.49010134148989
1040
210.0
1040
148.5
1040
50.0
1040
0.0
1040
0.0
1070
     0
1070
   100
1070
     1
1070
     3
1070
     0
1070
     1
1070
     0
1070
     0
1040
0.0
1040
0.0
1040
0.0
1040
10.0
1040
10.0
1040
10.0
1040
10.0
1070
     0
1002
{
1002
}
1002
}
  0
ENDSEC
  0
EOF
