  0
SECTION
  2
HEADER
  9
$ACADVER
  1
AC1009
  9
$INSBASE
 10
0.0
 20
0.0
 30
0.0
  9
$EXTMIN
 10
-1.74
 20
-12.41874
 30
0.0
  9
$EXTMAX
 10
7.0
 20
3.4399999999999991
 30
14.026681480811231
  9
$LIMMIN
 10
0.0
 20
0.0
  9
$LIMMAX
 10
420.0
 20
297.0
  9
$ORTHOMODE
 70
     1
  9
$REGENMODE
 70
     1
  9
$FILLMODE
 70
     1
  9
$QTEXTMODE
 70
     0
  9
$MIRRTEXT
 70
     1
  9
$DRAGMODE
 70
     2
  9
$LTSCALE
 40
1.0
  9
$OSMODE
 70
   557
  9
$ATTMODE
 70
     1
  9
$TEXTSIZE
 40
2.5
  9
$TRACEWID
 40
1.0
  9
$TEXTSTYLE
  7
STANDARD
  9
$CLAYER
  8
TURRET
  9
$CELTYPE
  6
BYLAYER
  9
$CECOLOR
 62
   256
  9
$DIMSCALE
 40
1.0
  9
$DIMASZ
 40
2.5
  9
$DIMEXO
 40
0.625
  9
$DIMDLI
 40
3.75
  9
$DIMRND
 40
0.0
  9
$DIMDLE
 40
0.0
  9
$DIMEXE
 40
1.25
  9
$DIMTP
 40
0.0
  9
$DIMTM
 40
0.0
  9
$DIMTXT
 40
2.5
  9
$DIMCEN
 40
2.5
  9
$DIMTSZ
 40
0.0
  9
$DIMTOL
 70
     0
  9
$DIMLIM
 70
     0
  9
$DIMTIH
 70
     0
  9
$DIMTOH
 70
     0
  9
$DIMSE1
 70
     0
  9
$DIMSE2
 70
     0
  9
$DIMTAD
 70
     1
  9
$DIMZIN
 70
     8
  9
$DIMBLK
  1

  9
$DIMASO
 70
     1
  9
$DIMSHO
 70
     1
  9
$DIMPOST
  1

  9
$DIMAPOST
  1

  9
$DIMALT
 70
     0
  9
$DIMALTD
 70
     3
  9
$DIMALTF
 40
0.03937007874016
  9
$DIMLFAC
 40
1.0
  9
$DIMTOFL
 70
     1
  9
$DIMTVP
 40
0.0
  9
$DIMTIX
 70
     0
  9
$DIMSOXD
 70
     0
  9
$DIMSAH
 70
     0
  9
$DIMBLK1
  1

  9
$DIMBLK2
  1

  9
$DIMSTYLE
  2
ISO-25
  9
$DIMCLRD
 70
     0
  9
$DIMCLRE
 70
     0
  9
$DIMCLRT
 70
     0
  9
$DIMTFAC
 40
1.0
  9
$DIMGAP
 40
0.625
  9
$LUNITS
 70
     2
  9
$LUPREC
 70
     4
  9
$SKETCHINC
 40
1.0
  9
$FILLETRAD
 40
10.0
  9
$AUNITS
 70
     0
  9
$AUPREC
 70
     0
  9
$MENU
  1
.
  9
$ELEVATION
 40
0.0
  9
$PELEVATION
 40
0.0
  9
$THICKNESS
 40
0.0
  9
$LIMCHECK
 70
     0
  9
$BLIPMODE
 70
     0
  9
$CHAMFERA
 40
10.0
  9
$CHAMFERB
 40
10.0
  9
$SKPOLY
 70
     0
  9
$TDCREATE
 40
2454412.428912465
  9
$TDUPDATE
 40
2454412.5985346059
  9
$TDINDWG
 40
0.1696223727
  9
$TDUSRTIMER
 40
0.1696223727
  9
$USRTIMER
 70
     1
  9
$ANGBASE
 50
0.0
  9
$ANGDIR
 70
     0
  9
$PDMODE
 70
     0
  9
$PDSIZE
 40
0.0
  9
$PLINEWID
 40
0.0
  9
$COORDS
 70
     1
  9
$SPLFRAME
 70
     0
  9
$SPLINETYPE
 70
     6
  9
$SPLINESEGS
 70
     8
  9
$ATTDIA
 70
     1
  9
$ATTREQ
 70
     1
  9
$HANDLING
 70
-16383
  9
$HANDSEED
  5
78E
  9
$SURFTAB1
 70
     6
  9
$SURFTAB2
 70
     6
  9
$SURFTYPE
 70
     6
  9
$SURFU
 70
     6
  9
$SURFV
 70
     6
  9
$UCSNAME
  2

  9
$UCSORG
 10
0.0
 20
0.0
 30
0.0
  9
$UCSXDIR
 10
1.0
 20
0.0
 30
0.0
  9
$UCSYDIR
 10
0.0
 20
1.0
 30
0.0
  9
$PUCSNAME
  2

  9
$PUCSORG
 10
0.0
 20
0.0
 30
0.0
  9
$PUCSXDIR
 10
1.0
 20
0.0
 30
0.0
  9
$PUCSYDIR
 10
0.0
 20
1.0
 30
0.0
  9
$USERI1
 70
     0
  9
$USERI2
 70
     0
  9
$USERI3
 70
     0
  9
$USERI4
 70
     0
  9
$USERI5
 70
     0
  9
$USERR1
 40
0.0
  9
$USERR2
 40
0.0
  9
$USERR3
 40
0.0
  9
$USERR4
 40
0.0
  9
$USERR5
 40
0.0
  9
$WORLDVIEW
 70
     1
  9
$SHADEDGE
 70
     3
  9
$SHADEDIF
 70
    70
  9
$TILEMODE
 70
     1
  9
$MAXACTVP
 70
    64
  9
$PLIMCHECK
 70
     0
  9
$PEXTMIN
 10
0.0
 20
0.0
 30
0.0
  9
$PEXTMAX
 10
0.0
 20
0.0
 30
0.0
  9
$PLIMMIN
 10
0.0
 20
0.0
  9
$PLIMMAX
 10
12.0
 20
9.0
  9
$UNITMODE
 70
     0
  9
$VISRETAIN
 70
     1
  9
$PLINEGEN
 70
     0
  9
$PSLTSCALE
 70
     1
  0
ENDSEC
  0
SECTION
  2
TABLES
  0
TABLE
  2
VPORT
 70
    14
  0
VPORT
  2
*ACTIVE
 70
     0
 10
0.0
 20
0.0
 11
1.0
 21
1.0
 12
1.87517259277477
 22
-0.4977245105144413
 13
0.0
 23
0.0
 14
0.01
 24
0.01
 15
1.0
 25
1.0
 16
0.0
 26
0.0
 36
1.0
 17
0.0
 27
0.0
 37
0.0
 40
8.0462108641435535
 41
1.626102292768959
 42
50.0
 43
0.0
 44
0.0
 50
0.0
 51
0.0
 71
     0
 72
   100
 73
     1
 74
     3
 75
     1
 76
     1
 77
     0
 78
     0
  0
ENDTAB
  0
TABLE
  2
LTYPE
 70
     1
  0
LTYPE
  2
CONTINUOUS
 70
     0
  3
Solid line
 72
    65
 73
     0
 40
0.0
  0
ENDTAB
  0
TABLE
  2
LAYER
 70
    10
  0
LAYER
  2
0
 70
     0
 62
     7
  6
CONTINUOUS
  0
LAYER
  2
DRAWING
 70
     0
 62
     8
  6
CONTINUOUS
  0
LAYER
  2
TURRET
 70
     0
 62
     2
  6
CONTINUOUS
  0
LAYER
  2
MUDGUARD
 70
     0
 62
     4
  6
CONTINUOUS
  0
LAYER
  2
WHEELS
 70
     0
 62
     2
  6
CONTINUOUS
  0
LAYER
  2
TORSION_BLOCK
 70
     0
 62
     5
  6
CONTINUOUS
  0
LAYER
  2
TRACKS
 70
     0
 62
     5
  6
CONTINUOUS
  0
LAYER
  2
SLEEVE
 70
     0
 62
     3
  6
CONTINUOUS
  0
LAYER
  2
GUN
 70
     0
 62
     1
  6
CONTINUOUS
  0
LAYER
  2
MG_MOUNT
 70
     0
 62
     1
  6
CONTINUOUS
  0
ENDTAB
  0
TABLE
  2
STYLE
 70
     1
  0
STYLE
  2
STANDARD
 70
     0
 40
0.0
 41
1.0
 50
0.0
 71
     0
 42
2.5
  3
txt
  4

  0
ENDTAB
  0
TABLE
  2
VIEW
 70
     0
  0
ENDTAB
  0
TABLE
  2
UCS
 70
     0
  0
ENDTAB
  0
TABLE
  2
APPID
 70
     1
  0
APPID
  2
ACAD
 70
     0
  0
ENDTAB
  0
TABLE
  2
DIMSTYLE
 70
     1
  0
DIMSTYLE
  2
ISO-25
 70
     0
  3

  4

  5

  6

  7

 40
1.0
 41
2.5
 42
0.625
 43
3.75
 44
1.25
 45
0.0
 46
0.0
 47
0.0
 48
0.0
140
2.5
141
2.5
142
0.0
143
0.03937007874016
144
1.0
145
0.0
146
1.0
147
0.625
 71
     0
 72
     0
 73
     0
 74
     0
 75
     0
 76
     0
 77
     1
 78
     8
170
     0
171
     3
172
     1
173
     0
174
     0
175
     0
176
     0
177
     0
178
     0
  0
ENDTAB
  0
ENDSEC
  0
SECTION
  2
BLOCKS
  0
BLOCK
  8
0
  2
$MODEL_SPACE
 70
     0
 10
0.0
 20
0.0
 30
0.0
  3
$MODEL_SPACE
  1

  0
ENDBLK
  5
21
  8
0
  0
BLOCK
 67
     1
  8
0
  2
$PAPER_SPACE
 70
     0
 10
0.0
 20
0.0
 30
0.0
  3
$PAPER_SPACE
  1

  0
ENDBLK
  5
53
 67
     1
  8
0
  0
ENDSEC
  0
SECTION
  2
ENTITIES
  0
3DFACE
  5
EE
  8
TURRET
 10
0.7899999999999992
 20
-1.3799999999999999
 30
1.7799999999999989
 11
0.2699999999999996
 21
-1.5000000000000011
 31
1.8799999999999999
 12
-0.2599999999999998
 22
-1.5000000000000011
 32
1.8799999999999999
 13
-0.7100000000000009
 23
-1.3799999999999999
 33
1.7799999999999989
  0
3DFACE
  5
EF
  8
TURRET
 10
-0.5300000000000013
 20
-1.1499999999999999
 30
2.3900000000000019
 11
0.5500000000000007
 21
-1.1499999999999999
 31
2.3900000000000019
 12
0.6600000000000003
 22
-1.0800000000000001
 32
2.430000000000001
 13
-0.620000000000001
 23
-1.0800000000000001
 33
2.430000000000001
  0
3DFACE
  5
F0
  8
TURRET
 10
-0.2599999999999998
 20
-1.5000000000000011
 30
1.8799999999999999
 11
0.2699999999999996
 21
-1.5000000000000011
 31
1.8799999999999999
 12
0.5500000000000007
 22
-1.1499999999999999
 32
2.3900000000000019
 13
-0.5300000000000013
 23
-1.1499999999999999
 33
2.3900000000000019
  0
3DFACE
  5
F2
  8
TURRET
 10
0.6600000000000003
 20
-1.0800000000000001
 30
2.430000000000001
 11
0.5500000000000007
 21
-1.1499999999999999
 31
2.3900000000000019
 12
0.2699999999999996
 22
-1.5000000000000011
 32
1.8799999999999999
 13
0.7899999999999992
 23
-1.3799999999999999
 33
1.7799999999999989
  0
3DFACE
  5
F3
  8
TURRET
 10
-0.7100000000000009
 20
-1.3799999999999999
 30
1.7799999999999989
 11
-0.2599999999999998
 21
-1.5000000000000011
 31
1.8799999999999999
 12
-0.5300000000000013
 22
-1.1499999999999999
 32
2.3900000000000019
 13
-0.620000000000001
 23
-1.0800000000000001
 33
2.430000000000001
  0
3DFACE
  5
F5
  8
TURRET
 10
0.9499999999999992
 20
-1.1200000000000041
 30
1.7799999999999989
 11
0.7899999999999992
 21
-1.3799999999999999
 31
1.7799999999999989
 12
-0.7100000000000009
 22
-1.3799999999999999
 32
1.7799999999999989
 13
-0.9700000000000006
 23
-1.1200000000000021
 33
1.7799999999999989
  0
3DFACE
  5
F6
  8
TURRET
 10
-0.620000000000001
 20
-1.0800000000000001
 30
2.430000000000001
 11
0.6600000000000003
 21
-1.0800000000000001
 31
2.430000000000001
 12
0.7300000000000005
 22
-0.9199999999999997
 32
2.4700000000000002
 13
-0.7300000000000005
 23
-0.9199999999999997
 33
2.4700000000000002
  0
3DFACE
  5
F9
  8
TURRET
 10
0.7300000000000005
 20
-0.9199999999999997
 30
2.4700000000000002
 11
0.6600000000000003
 21
-1.0800000000000001
 31
2.430000000000001
 12
0.7899999999999992
 22
-1.3799999999999999
 32
1.7799999999999989
 13
0.9499999999999992
 23
-1.1200000000000041
 33
1.7799999999999989
  0
3DFACE
  5
FA
  8
TURRET
 10
-0.9700000000000006
 20
-1.1200000000000021
 30
1.7799999999999989
 11
-0.7100000000000009
 21
-1.3799999999999999
 31
1.7799999999999989
 12
-0.620000000000001
 22
-1.0800000000000001
 32
2.430000000000001
 13
-0.7300000000000005
 23
-0.9199999999999997
 33
2.4700000000000002
  0
3DFACE
  5
FD
  8
TURRET
 10
-0.7300000000000005
 20
-0.9199999999999997
 30
2.4700000000000002
 11
0.7300000000000005
 21
-0.9199999999999997
 31
2.4700000000000002
 12
0.7300000000000005
 22
-0.4100000000000036
 32
2.4700000000000002
 13
-0.7300000000000005
 23
-0.4100000000000019
 33
2.4700000000000002
  0
3DFACE
  5
FE
  8
TURRET
 10
1.0199999999999989
 20
-0.4100000000000036
 30
1.7799999999999989
 11
0.9499999999999992
 21
-1.1200000000000041
 31
1.7799999999999989
 12
-0.9700000000000006
 22
-1.1200000000000021
 32
1.7799999999999989
 13
-1.0300000000000009
 23
-0.4100000000000019
 33
1.780000000000002
  0
3DFACE
  5
FF
  8
TURRET
 10
-1.0300000000000009
 20
-0.4100000000000019
 30
1.780000000000002
 11
-0.9700000000000006
 21
-1.1200000000000021
 31
1.7799999999999989
 12
-0.7300000000000005
 22
-0.9199999999999997
 32
2.4700000000000002
 13
-0.7300000000000005
 23
-0.4100000000000019
 33
2.4700000000000002
  0
3DFACE
  5
101
  8
TURRET
 10
0.7300000000000005
 20
-0.4100000000000036
 30
2.4700000000000002
 11
0.7300000000000005
 21
-0.9199999999999997
 31
2.4700000000000002
 12
0.9499999999999992
 22
-1.1200000000000041
 32
1.7799999999999989
 13
1.0199999999999989
 23
-0.4100000000000036
 33
1.7799999999999989
  0
3DFACE
  5
103
  8
TURRET
 10
1.0199999999999989
 20
-0.1300000000000042
 30
1.710000000000002
 11
1.0199999999999989
 21
-0.4100000000000036
 31
1.7799999999999989
 12
-1.0300000000000009
 22
-0.4100000000000019
 32
1.780000000000002
 13
-1.0300000000000009
 23
-0.1300000000000024
 33
1.710000000000002
  0
3DFACE
  5
104
  8
TURRET
 10
-0.7300000000000005
 20
-0.4100000000000019
 30
2.4700000000000002
 11
0.7300000000000005
 21
-0.4100000000000036
 31
2.4700000000000002
 12
0.7300000000000005
 22
-0.1300000000000042
 32
2.4700000000000002
 13
-0.7300000000000005
 23
-0.1300000000000024
 33
2.4700000000000002
  0
3DFACE
  5
105
  8
TURRET
 10
-1.0300000000000009
 20
-0.1300000000000024
 30
1.710000000000002
 11
-1.0300000000000009
 21
-0.4100000000000019
 31
1.780000000000002
 12
-0.7300000000000005
 22
-0.4100000000000019
 32
2.4700000000000002
 13
-0.7300000000000005
 23
-0.1300000000000024
 33
2.4700000000000002
  0
3DFACE
  5
108
  8
TURRET
 10
0.7300000000000005
 20
-0.1300000000000042
 30
2.4700000000000002
 11
0.7300000000000005
 21
-0.4100000000000036
 31
2.4700000000000002
 12
1.0199999999999989
 22
-0.4100000000000036
 32
1.7799999999999989
 13
1.0199999999999989
 23
-0.1300000000000042
 33
1.710000000000002
  0
3DFACE
  5
10B
  8
TURRET
 10
-0.7300000000000005
 20
-0.1300000000000024
 30
2.4700000000000002
 11
0.7300000000000005
 21
-0.1300000000000042
 31
2.4700000000000002
 12
0.7300000000000005
 22
0.4
 32
2.4500000000000011
 13
-0.7300000000000005
 23
0.4
 33
2.4500000000000011
  0
3DFACE
  5
10C
  8
TURRET
 10
0.8399999999999998
 20
0.9199999999999947
 30
1.710000000000002
 11
1.0199999999999989
 21
-0.1300000000000042
 31
1.710000000000002
 12
-1.0300000000000009
 22
-0.1300000000000024
 32
1.710000000000002
 13
-0.8499999999999996
 23
0.9199999999999983
 33
1.710000000000002
  0
3DFACE
  5
10D
  8
TURRET
 10
-0.8499999999999996
 20
0.9199999999999983
 30
1.710000000000002
 11
-1.0300000000000009
 21
-0.1300000000000024
 31
1.710000000000002
 12
-0.7300000000000005
 22
-0.1300000000000024
 32
2.4700000000000002
 13
-0.7300000000000005
 23
0.4
 33
2.4500000000000011
  0
3DFACE
  5
10F
  8
TURRET
 10
0.7300000000000005
 20
0.4
 30
2.4500000000000011
 11
0.7300000000000005
 21
-0.1300000000000042
 31
2.4700000000000002
 12
1.0199999999999989
 22
-0.1300000000000042
 32
1.710000000000002
 13
0.8399999999999998
 23
0.9199999999999947
 33
1.710000000000002
  0
3DFACE
  5
111
  8
TURRET
 10
0.8200000000000002
 20
0.9799999999999952
 30
1.710000000000002
 11
0.8399999999999998
 21
0.9199999999999947
 31
1.710000000000002
 12
-0.8499999999999996
 22
0.9199999999999983
 32
1.710000000000002
 13
-0.83
 23
0.9799999999999988
 33
1.710000000000002
  0
3DFACE
  5
112
  8
TURRET
 10
-0.7300000000000005
 20
0.4
 30
2.4500000000000011
 11
0.7300000000000005
 21
0.4
 31
2.4500000000000011
 12
0.370000000000001
 22
0.9499999999999959
 32
2.410000000000001
 13
-0.3999999999999986
 23
0.9499999999999976
 33
2.410000000000001
  0
3DFACE
  5
114
  8
TURRET
 10
-0.83
 20
0.9799999999999988
 30
1.710000000000002
 11
-0.8499999999999996
 21
0.9199999999999983
 31
1.710000000000002
 12
-0.7300000000000005
 22
0.4
 32
2.4500000000000011
 13
-0.3999999999999986
 23
0.9499999999999976
 33
2.410000000000001
  0
3DFACE
  5
116
  8
TURRET
 10
0.370000000000001
 20
0.9499999999999959
 30
2.410000000000001
 11
0.7300000000000005
 21
0.4
 31
2.4500000000000011
 12
0.8399999999999998
 22
0.9199999999999947
 32
1.710000000000002
 13
0.8200000000000002
 23
0.9799999999999952
 33
1.710000000000002
  0
3DFACE
  5
118
  8
TURRET
 10
-0.3999999999999986
 20
0.9499999999999976
 30
2.410000000000001
 11
0.370000000000001
 21
0.9499999999999959
 31
2.410000000000001
 12
0.370000000000001
 22
1.0799999999999961
 32
2.3400000000000012
 13
-0.3999999999999986
 23
1.0799999999999961
 33
2.3400000000000012
  0
3DFACE
  5
119
  8
TURRET
 10
0.7600000000000016
 20
1.0799999999999961
 30
1.74
 11
0.8200000000000002
 21
0.9799999999999952
 31
1.710000000000002
 12
-0.83
 22
0.9799999999999988
 32
1.710000000000002
 13
-0.7500000000000018
 23
1.0799999999999961
 33
1.74
  0
3DFACE
  5
11A
  8
TURRET
 10
-0.7500000000000018
 20
1.0799999999999961
 30
1.74
 11
-0.83
 21
0.9799999999999988
 31
1.710000000000002
 12
-0.3999999999999986
 22
0.9499999999999976
 32
2.410000000000001
 13
-0.3999999999999986
 23
1.0799999999999961
 33
2.3400000000000012
  0
3DFACE
  5
11D
  8
TURRET
 10
0.370000000000001
 20
1.0799999999999961
 30
2.3400000000000012
 11
0.370000000000001
 21
0.9499999999999959
 31
2.410000000000001
 12
0.8200000000000002
 22
0.9799999999999952
 32
1.710000000000002
 13
0.7600000000000016
 23
1.0799999999999961
 33
1.74
  0
3DFACE
  5
11F
  8
TURRET
 10
0.5600000000000005
 20
1.2099999999999971
 30
1.869999999999999
 11
0.7600000000000016
 21
1.0799999999999961
 31
1.74
 12
-0.7500000000000018
 22
1.0799999999999961
 32
1.74
 13
-0.5700000000000003
 23
1.2099999999999971
 33
1.869999999999999
  0
3DFACE
  5
120
  8
TURRET
 10
-0.3999999999999986
 20
1.0799999999999961
 30
2.3400000000000012
 11
0.370000000000001
 21
1.0799999999999961
 31
2.3400000000000012
 12
0.370000000000001
 22
1.2099999999999971
 32
2.2000000000000011
 13
-0.3999999999999986
 23
1.2099999999999971
 33
2.2000000000000011
  0
3DFACE
  5
121
  8
TURRET
 10
0.370000000000001
 20
1.2099999999999971
 30
2.2000000000000011
 11
0.370000000000001
 21
1.0799999999999961
 31
2.3400000000000012
 12
0.7600000000000016
 22
1.0799999999999961
 32
1.74
 13
0.5600000000000005
 23
1.2099999999999971
 33
1.869999999999999
  0
3DFACE
  5
123
  8
TURRET
 10
-0.3999999999999986
 20
1.2099999999999971
 30
2.2000000000000011
 11
0.370000000000001
 21
1.2099999999999971
 31
2.2000000000000011
 12
0.5600000000000005
 22
1.2099999999999971
 32
1.869999999999999
 13
-0.5700000000000003
 23
1.2099999999999971
 33
1.869999999999999
  0
3DFACE
  5
124
  8
TURRET
 10
-0.5700000000000003
 20
1.2099999999999971
 30
1.869999999999999
 11
-0.7500000000000018
 21
1.0799999999999961
 31
1.74
 12
-0.3999999999999986
 22
1.0799999999999961
 32
2.3400000000000012
 13
-0.3999999999999986
 23
1.2099999999999971
 33
2.2000000000000011
  0
3DFACE
  5
13A
  8
TURRET
 10
0.9800000000000004
 20
0.0000000000000001
 30
1.660000000000001
 11
0.6929646455628175
 21
0.6929646455628166
 31
1.660000000000001
 12
0.6929646455628175
 22
0.6929646455628166
 32
1.710000000000002
 13
0.9800000000000004
 23
0.0000000000000001
 33
1.710000000000002
  0
3DFACE
  5
13B
  8
TURRET
 10
0.6929646455628175
 20
0.6929646455628166
 30
1.660000000000001
 11
0.0
 21
0.98
 31
1.660000000000001
 12
0.0
 22
0.98
 32
1.710000000000002
 13
0.6929646455628175
 23
0.6929646455628166
 33
1.710000000000002
  0
3DFACE
  5
13C
  8
TURRET
 10
0.0
 20
0.98
 30
1.660000000000001
 11
-0.6929646455628156
 21
0.692964645562817
 31
1.660000000000005
 12
-0.6929646455628156
 22
0.692964645562817
 32
1.710000000000002
 13
0.0
 23
0.98
 33
1.710000000000002
  0
3DFACE
  5
13D
  8
TURRET
 10
-0.6929646455628156
 20
0.692964645562817
 30
1.660000000000005
 11
-0.9800000000000004
 21
0.0000000000000001
 31
1.660000000000005
 12
-0.9800000000000004
 22
0.0000000000000001
 32
1.710000000000002
 13
-0.6929646455628156
 23
0.692964645562817
 33
1.710000000000002
  0
3DFACE
  5
13E
  8
TURRET
 10
-0.9800000000000004
 20
0.0000000000000001
 30
1.660000000000005
 11
-0.6929646455628156
 21
-0.6929646455628155
 31
1.660000000000005
 12
-0.6929646455628156
 22
-0.6929646455628155
 32
1.780000000000002
 13
-0.9800000000000004
 23
0.0000000000000001
 33
1.780000000000002
  0
3DFACE
  5
13F
  8
TURRET
 10
-0.6929646455628156
 20
-0.6929646455628155
 30
1.660000000000005
 11
0.0
 21
-0.9800000000000002
 31
1.660000000000001
 12
0.0
 22
-0.9800000000000002
 32
1.780000000000002
 13
-0.6929646455628156
 23
-0.6929646455628155
 33
1.780000000000002
  0
3DFACE
  5
140
  8
TURRET
 10
0.0
 20
-0.9800000000000002
 30
1.660000000000001
 11
0.6929646455628175
 21
-0.6929646455628173
 31
1.660000000000001
 12
0.6929646455628175
 22
-0.6929646455628173
 32
1.780000000000002
 13
0.0
 23
-0.9800000000000002
 33
1.780000000000002
  0
3DFACE
  5
141
  8
TURRET
 10
0.6929646455628175
 20
-0.6929646455628173
 30
1.660000000000001
 11
0.9800000000000004
 21
0.0000000000000001
 31
1.660000000000001
 12
0.9800000000000004
 22
0.0000000000000001
 32
1.780000000000002
 13
0.6929646455628175
 23
-0.6929646455628173
 33
1.780000000000002
  0
3DFACE
  5
1CC
  8
TURRET
 10
-0.6199999999999993
 20
0.1199999999999998
 30
2.5099999999999989
 11
-0.4399999999999995
 21
0.1199999999999998
 31
2.5099999999999989
 12
-0.4399999999999995
 22
0.5199999999999997
 32
2.5600000000000001
 13
-0.6199999999999993
 23
0.5199999999999997
 33
2.5600000000000001
  0
3DFACE
  5
1CD
  8
TURRET
 10
-0.6199999999999993
 20
0.1199999999999998
 30
2.46
 11
-0.4399999999999995
 21
0.1199999999999998
 31
2.46
 12
-0.4399999999999995
 22
0.1199999999999998
 32
2.5099999999999989
 13
-0.6199999999999993
 23
0.1199999999999998
 33
2.5099999999999989
  0
3DFACE
  5
1CE
  8
TURRET
 10
-0.6199999999999993
 20
0.5199999999999997
 30
2.5600000000000001
 11
-0.4399999999999995
 21
0.5199999999999997
 31
2.5600000000000001
 12
-0.4399999999999995
 22
0.5199999999999997
 32
2.4400000000000008
 13
-0.6199999999999993
 23
0.5199999999999997
 33
2.4400000000000008
  0
3DFACE
  5
1CF
  8
TURRET
 10
-0.4399999999999995
 20
0.5199999999999997
 30
2.5600000000000001
 11
-0.4399999999999995
 21
0.1199999999999998
 31
2.5099999999999989
 12
-0.4399999999999995
 22
0.1199999999999998
 32
2.46
 13
-0.4399999999999995
 23
0.5199999999999997
 33
2.4400000000000008
  0
3DFACE
  5
1D0
  8
TURRET
 10
-0.6199999999999993
 20
0.5199999999999997
 30
2.4400000000000008
 11
-0.6199999999999993
 21
0.1199999999999998
 31
2.46
 12
-0.6199999999999993
 22
0.1199999999999998
 32
2.5099999999999989
 13
-0.6199999999999993
 23
0.5199999999999997
 33
2.5600000000000001
  0
3DFACE
  5
1D2
  8
TURRET
 10
0.4000000000000004
 20
0.0949999999999999
 30
2.4500000000000011
 11
0.4736121593216787
 21
0.1374999999999998
 31
2.4500000000000011
 12
0.4736121593216787
 22
0.1374999999999998
 32
2.5099999999999989
 13
0.4000000000000004
 23
0.0949999999999999
 33
2.5099999999999989
  0
3DFACE
  5
1D3
  8
TURRET
 10
0.4736121593216787
 20
0.1374999999999998
 30
2.4500000000000011
 11
0.4736121593216787
 21
0.2224999999999998
 31
2.4500000000000011
 12
0.4736121593216787
 22
0.2224999999999998
 32
2.5099999999999989
 13
0.4736121593216787
 23
0.1374999999999998
 33
2.5099999999999989
  0
3DFACE
  5
1D4
  8
TURRET
 10
0.4736121593216787
 20
0.2224999999999998
 30
2.4500000000000011
 11
0.4000000000000004
 21
0.2649999999999998
 31
2.4500000000000011
 12
0.4000000000000004
 22
0.2649999999999998
 32
2.5099999999999989
 13
0.4736121593216787
 23
0.2224999999999998
 33
2.5099999999999989
  0
3DFACE
  5
1D5
  8
TURRET
 10
0.4000000000000004
 20
0.2649999999999998
 30
2.4500000000000011
 11
0.3263878406783238
 21
0.2224999999999998
 31
2.4500000000000011
 12
0.3263878406783238
 22
0.2224999999999998
 32
2.5099999999999989
 13
0.4000000000000004
 23
0.2649999999999998
 33
2.5099999999999989
  0
3DFACE
  5
1D6
  8
TURRET
 10
0.3263878406783238
 20
0.2224999999999998
 30
2.4500000000000011
 11
0.3263878406783238
 21
0.1374999999999998
 31
2.4500000000000011
 12
0.3263878406783238
 22
0.1374999999999998
 32
2.5099999999999989
 13
0.3263878406783238
 23
0.2224999999999998
 33
2.5099999999999989
  0
3DFACE
  5
1D7
  8
TURRET
 10
0.3263878406783238
 20
0.1374999999999998
 30
2.4500000000000011
 11
0.4000000000000004
 21
0.0949999999999999
 31
2.4500000000000011
 12
0.4000000000000004
 22
0.0949999999999999
 32
2.5099999999999989
 13
0.3263878406783238
 23
0.1374999999999998
 33
2.5099999999999989
  0
3DFACE
  5
1D8
  8
TURRET
 10
0.4000000000000004
 20
0.0949999999999999
 30
2.5099999999999989
 11
0.4736121593216787
 21
0.1374999999999998
 31
2.5099999999999989
 12
0.4346410161513781
 22
0.1599999999999998
 32
2.700000000000002
 13
0.4000000000000004
 23
0.1399999999999998
 33
2.700000000000002
  0
3DFACE
  5
1D9
  8
TURRET
 10
0.4736121593216787
 20
0.1374999999999998
 30
2.5099999999999989
 11
0.4736121593216787
 21
0.2224999999999998
 31
2.5099999999999989
 12
0.4346410161513781
 22
0.1999999999999998
 32
2.700000000000002
 13
0.4346410161513781
 23
0.1599999999999998
 33
2.700000000000002
  0
3DFACE
  5
1DA
  8
TURRET
 10
0.4736121593216787
 20
0.2224999999999998
 30
2.5099999999999989
 11
0.4000000000000004
 21
0.2649999999999998
 31
2.5099999999999989
 12
0.4000000000000004
 22
0.2199999999999998
 32
2.700000000000002
 13
0.4346410161513781
 23
0.1999999999999998
 33
2.700000000000002
  0
3DFACE
  5
1DB
  8
TURRET
 10
0.4000000000000004
 20
0.2649999999999998
 30
2.5099999999999989
 11
0.3263878406783238
 21
0.2224999999999998
 31
2.5099999999999989
 12
0.3653589838486226
 22
0.1999999999999998
 32
2.700000000000002
 13
0.4000000000000004
 23
0.2199999999999998
 33
2.700000000000002
  0
3DFACE
  5
1DC
  8
TURRET
 10
0.3263878406783238
 20
0.2224999999999998
 30
2.5099999999999989
 11
0.3263878406783238
 21
0.1374999999999998
 31
2.5099999999999989
 12
0.3653589838486226
 22
0.1599999999999998
 32
2.700000000000002
 13
0.3653589838486226
 23
0.1999999999999998
 33
2.700000000000002
  0
3DFACE
  5
1DD
  8
TURRET
 10
0.3263878406783238
 20
0.1374999999999998
 30
2.5099999999999989
 11
0.4000000000000004
 21
0.0949999999999999
 31
2.5099999999999989
 12
0.4000000000000004
 22
0.1399999999999998
 32
2.700000000000002
 13
0.3653589838486226
 23
0.1599999999999998
 33
2.700000000000002
  0
3DFACE
  5
1DE
  8
TURRET
 10
0.3600000000000012
 20
-0.9400000000000002
 30
2.4700000000000042
 11
0.6804293994002429
 21
-0.7549999999999998
 31
2.4700000000000042
 12
0.6804293994002429
 22
-0.7549999999999998
 32
2.5999999999999992
 13
0.3600000000000012
 23
-0.9400000000000002
 33
2.5999999999999992
  0
3DFACE
  5
1DF
  8
TURRET
 10
0.6804293994002429
 20
-0.7549999999999998
 30
2.4700000000000042
 11
0.6804293994002429
 21
-0.3850000000000001
 31
2.4700000000000042
 12
0.6804293994002429
 22
-0.3850000000000001
 32
2.5999999999999992
 13
0.6804293994002429
 23
-0.7549999999999998
 33
2.5999999999999992
  0
3DFACE
  5
1E0
  8
TURRET
 10
0.6804293994002429
 20
-0.3850000000000001
 30
2.4700000000000042
 11
0.3600000000000012
 21
-0.2000000000000001
 31
2.4700000000000042
 12
0.3600000000000012
 22
-0.2000000000000001
 32
2.5999999999999992
 13
0.6804293994002429
 23
-0.3850000000000001
 33
2.5999999999999992
  0
3DFACE
  5
1E1
  8
TURRET
 10
0.3600000000000012
 20
-0.2000000000000001
 30
2.4700000000000042
 11
0.0395706005997587
 21
-0.3850000000000001
 31
2.4700000000000042
 12
0.0395706005997587
 22
-0.3850000000000001
 32
2.5999999999999992
 13
0.3600000000000012
 23
-0.2000000000000001
 33
2.5999999999999992
  0
3DFACE
  5
1E2
  8
TURRET
 10
0.0395706005997587
 20
-0.3850000000000001
 30
2.4700000000000042
 11
0.0395706005997578
 21
-0.7549999999999998
 31
2.4700000000000042
 12
0.0395706005997578
 22
-0.7549999999999998
 32
2.5999999999999992
 13
0.0395706005997587
 23
-0.3850000000000001
 33
2.5999999999999992
  0
3DFACE
  5
1E3
  8
TURRET
 10
0.0395706005997578
 20
-0.7549999999999998
 30
2.4700000000000042
 11
0.3600000000000012
 21
-0.9400000000000002
 31
2.4700000000000042
 12
0.3600000000000012
 22
-0.9400000000000002
 32
2.5999999999999992
 13
0.0395706005997578
 23
-0.7549999999999998
 33
2.5999999999999992
  0
3DFACE
  5
1E4
  8
TURRET
 10
0.3600000000000012
 20
-0.9400000000000002
 30
2.600000000000001
 11
0.6804293994002429
 21
-0.7549999999999998
 31
2.600000000000001
 12
0.5765063509461106
 22
-0.6950000000000002
 32
2.6499999999999999
 13
0.3600000000000012
 23
-0.8200000000000001
 33
2.6499999999999999
  0
3DFACE
  5
1E5
  8
TURRET
 10
0.6804293994002429
 20
-0.7549999999999998
 30
2.600000000000001
 11
0.6804293994002429
 21
-0.3850000000000001
 31
2.600000000000001
 12
0.5765063509461106
 22
-0.4450000000000002
 32
2.6499999999999999
 13
0.5765063509461106
 23
-0.6950000000000002
 33
2.6499999999999999
  0
3DFACE
  5
1E6
  8
TURRET
 10
0.6804293994002429
 20
-0.3850000000000001
 30
2.600000000000001
 11
0.3600000000000012
 21
-0.2000000000000001
 31
2.600000000000001
 12
0.3600000000000012
 22
-0.3200000000000002
 32
2.6499999999999999
 13
0.5765063509461106
 23
-0.4450000000000002
 33
2.6499999999999999
  0
3DFACE
  5
1E7
  8
TURRET
 10
0.3600000000000012
 20
-0.2000000000000001
 30
2.600000000000001
 11
0.0395706005997587
 21
-0.3850000000000001
 31
2.600000000000001
 12
0.1434936490538909
 22
-0.4450000000000002
 32
2.6499999999999999
 13
0.3600000000000012
 23
-0.3200000000000002
 33
2.6499999999999999
  0
3DFACE
  5
1E8
  8
TURRET
 10
0.0395706005997587
 20
-0.3850000000000001
 30
2.600000000000001
 11
0.0395706005997578
 21
-0.7549999999999998
 31
2.600000000000001
 12
0.1434936490538909
 22
-0.6950000000000002
 32
2.6499999999999999
 13
0.1434936490538909
 23
-0.4450000000000002
 33
2.6499999999999999
  0
3DFACE
  5
1E9
  8
TURRET
 10
0.0395706005997578
 20
-0.7549999999999998
 30
2.600000000000001
 11
0.3600000000000012
 21
-0.9400000000000002
 31
2.600000000000001
 12
0.3600000000000012
 22
-0.8200000000000001
 32
2.6499999999999999
 13
0.1434936490538909
 23
-0.6950000000000002
 33
2.6499999999999999
  0
3DFACE
  5
1EA
  8
TURRET
 10
-0.3999999999999986
 20
-0.9099999999999999
 30
2.4700000000000002
 11
-0.1142116167511347
 21
-0.7450000000000001
 31
2.4700000000000002
 12
-0.1748333950160443
 22
-0.7099999999999999
 32
2.5200000000000009
 13
-0.3999999999999986
 23
-0.8399999999999996
 33
2.5200000000000009
  0
3DFACE
  5
1EB
  8
TURRET
 10
-0.1142116167511347
 20
-0.7450000000000001
 30
2.4700000000000002
 11
-0.1142116167511347
 21
-0.415
 31
2.4700000000000002
 12
-0.1748333950160443
 22
-0.4500000000000001
 32
2.5200000000000009
 13
-0.1748333950160443
 23
-0.7099999999999999
 33
2.5200000000000009
  0
3DFACE
  5
1EC
  8
TURRET
 10
-0.1142116167511347
 20
-0.415
 30
2.4700000000000002
 11
-0.3999999999999986
 21
-0.2499999999999999
 31
2.4700000000000002
 12
-0.3999999999999986
 22
-0.3200000000000002
 32
2.5200000000000009
 13
-0.1748333950160443
 23
-0.4500000000000001
 33
2.5200000000000009
  0
3DFACE
  5
1ED
  8
TURRET
 10
-0.3999999999999986
 20
-0.2499999999999999
 30
2.4700000000000002
 11
-0.6857883832488643
 21
-0.415
 31
2.4700000000000002
 12
-0.6251666049839529
 22
-0.4500000000000001
 32
2.5200000000000009
 13
-0.3999999999999986
 23
-0.3200000000000002
 33
2.5200000000000009
  0
3DFACE
  5
1EE
  8
TURRET
 10
-0.6857883832488643
 20
-0.415
 30
2.4700000000000002
 11
-0.6857883832488643
 21
-0.7450000000000001
 31
2.4700000000000002
 12
-0.6251666049839537
 22
-0.7099999999999999
 32
2.5200000000000009
 13
-0.6251666049839529
 23
-0.4500000000000001
 33
2.5200000000000009
  0
3DFACE
  5
1EF
  8
TURRET
 10
-0.6857883832488643
 20
-0.7450000000000001
 30
2.4700000000000002
 11
-0.3999999999999986
 21
-0.9099999999999999
 31
2.4700000000000002
 12
-0.3999999999999986
 22
-0.8399999999999996
 32
2.5200000000000009
 13
-0.6251666049839537
 23
-0.7099999999999999
 33
2.5200000000000009
  0
3DFACE
  5
1F0
  8
TURRET
 10
0.3600000000000012
 20
-1.03
 30
2.420000000000007
 11
0.2115075759508258
 21
-1.03
 31
2.3584924240491789
 12
0.2115075759508258
 22
-1.2999999999999989
 32
2.3584924240491789
 13
0.3600000000000012
 23
-1.23
 33
2.420000000000007
  0
3DFACE
  5
1F1
  8
TURRET
 10
0.2115075759508258
 20
-1.03
 30
2.3584924240491789
 11
0.1500000000000003
 21
-1.0800000000000001
 31
2.2100000000000062
 12
0.1500000000000003
 22
-1.3999999999999999
 32
2.2100000000000062
 13
0.2115075759508258
 23
-1.2999999999999989
 33
2.3584924240491789
  0
3DFACE
  5
1F2
  8
TURRET
 10
0.1500000000000003
 20
-1.0800000000000001
 30
2.2100000000000062
 11
0.2115075759508258
 21
-1.1499999999999999
 31
2.061507575950829
 12
0.2115075759508258
 22
-1.419999999999999
 32
2.061507575950829
 13
0.1500000000000003
 23
-1.3999999999999999
 33
2.2100000000000062
  0
3DFACE
  5
1F3
  8
TURRET
 10
0.2115075759508258
 20
-1.1499999999999999
 30
2.061507575950829
 11
0.3600000000000012
 21
-1.169999999999999
 31
2.0000000000000049
 12
0.3600000000000012
 22
-1.419999999999999
 32
2.0000000000000049
 13
0.2115075759508258
 23
-1.419999999999999
 33
2.061507575950829
  0
3DFACE
  5
1F4
  8
TURRET
 10
0.3600000000000012
 20
-1.169999999999999
 30
2.0000000000000049
 11
0.5084924240491766
 21
-1.1499999999999999
 31
2.061507575950829
 12
0.5084924240491766
 22
-1.419999999999999
 32
2.061507575950829
 13
0.3600000000000012
 23
-1.419999999999999
 33
2.0000000000000049
  0
3DFACE
  5
1F5
  8
TURRET
 10
0.5084924240491766
 20
-1.1499999999999999
 30
2.061507575950829
 11
0.5700000000000003
 21
-1.0800000000000001
 31
2.2100000000000062
 12
0.5700000000000003
 22
-1.3999999999999999
 32
2.2100000000000062
 13
0.5084924240491766
 23
-1.419999999999999
 33
2.061507575950829
  0
3DFACE
  5
1F6
  8
TURRET
 10
0.5700000000000003
 20
-1.0800000000000001
 30
2.2100000000000062
 11
0.5084924240491766
 21
-1.03
 31
2.3584924240491789
 12
0.5084924240491766
 22
-1.2999999999999989
 32
2.3584924240491789
 13
0.5700000000000003
 23
-1.3999999999999999
 33
2.2100000000000062
  0
3DFACE
  5
1F7
  8
TURRET
 10
0.5084924240491766
 20
-1.03
 30
2.3584924240491789
 11
0.3600000000000012
 21
-1.03
 31
2.420000000000007
 12
0.3600000000000012
 22
-1.23
 32
2.420000000000007
 13
0.5084924240491766
 23
-1.2999999999999989
 33
2.3584924240491789
  0
3DFACE
  5
1F8
  8
TURRET
 10
0.3653589838486226
 20
0.1599999999999998
 30
2.700000000000002
 11
0.4000000000000004
 21
0.1399999999999998
 31
2.700000000000002
 12
0.4346410161513781
 22
0.1599999999999998
 32
2.700000000000002
 13
0.3653589838486226
 23
0.1999999999999998
 33
2.700000000000002
  0
3DFACE
  5
1F9
  8
TURRET
 10
0.3653589838486226
 20
0.1999999999999998
 30
2.700000000000002
 11
0.4346410161513781
 21
0.1599999999999998
 31
2.700000000000002
 12
0.4346410161513781
 22
0.1999999999999998
 32
2.700000000000002
 13
0.4000000000000004
 23
0.2199999999999998
 33
2.700000000000002
  0
3DFACE
  5
1FA
  8
TURRET
 10
0.1434936490538909
 20
-0.4450000000000002
 30
2.6499999999999999
 11
0.1434936490538909
 21
-0.6950000000000002
 31
2.6499999999999999
 12
0.3600000000000012
 22
-0.8200000000000001
 32
2.6499999999999999
 13
0.3600000000000012
 23
-0.3200000000000002
 33
2.6499999999999999
  0
3DFACE
  5
1FB
  8
TURRET
 10
0.3600000000000012
 20
-0.3200000000000002
 30
2.6499999999999999
 11
0.3600000000000012
 21
-0.8200000000000001
 31
2.6499999999999999
 12
0.5765063509461106
 22
-0.6950000000000002
 32
2.6499999999999999
 13
0.5765063509461106
 23
-0.4450000000000002
 33
2.6499999999999999
  0
3DFACE
  5
1FC
  8
TURRET
 10
-0.6251666049839529
 20
-0.4500000000000001
 30
2.5200000000000009
 11
-0.6251666049839537
 21
-0.7099999999999999
 31
2.5200000000000009
 12
-0.3999999999999986
 22
-0.8399999999999996
 32
2.5200000000000009
 13
-0.3999999999999986
 23
-0.3200000000000002
 33
2.5200000000000009
  0
3DFACE
  5
1FD
  8
TURRET
 10
-0.3999999999999986
 20
-0.3200000000000002
 30
2.5200000000000009
 11
-0.3999999999999986
 21
-0.8399999999999996
 31
2.5200000000000009
 12
-0.1748333950160443
 22
-0.7099999999999999
 32
2.5200000000000009
 13
-0.1748333950160443
 23
-0.4500000000000001
 33
2.5200000000000009
  0
3DFACE
  5
1FE
  8
TURRET
 10
0.3600000000000012
 20
-1.23
 30
2.420000000000007
 11
0.2115075759508258
 21
-1.2999999999999989
 31
2.3584924240491789
 12
0.1500000000000003
 22
-1.3999999999999999
 32
2.2100000000000062
 13
0.5084924240491766
 23
-1.2999999999999989
 33
2.3584924240491789
  0
3DFACE
  5
1FF
  8
TURRET
 10
0.5084924240491766
 20
-1.2999999999999989
 30
2.3584924240491789
 11
0.1500000000000003
 21
-1.3999999999999999
 31
2.2100000000000062
 12
0.2115075759508258
 22
-1.419999999999999
 32
2.061507575950829
 13
0.5700000000000003
 23
-1.3999999999999999
 33
2.2100000000000062
  0
3DFACE
  5
200
  8
TURRET
 10
0.5700000000000003
 20
-1.3999999999999999
 30
2.2100000000000062
 11
0.2115075759508258
 21
-1.419999999999999
 31
2.061507575950829
 12
0.3600000000000012
 22
-1.419999999999999
 32
2.0000000000000049
 13
0.5084924240491766
 23
-1.419999999999999
 33
2.061507575950829
  0
ENDSEC
  0
EOF
