# object ArmouredMantlet04Shape
g ArmouredMantlet04Shape
v 4.432014 -5.639701 3.85797
v 4.432014 -2.526968 4.485397
v -4.432014 -5.639701 3.85797
v -4.432014 -2.526968 4.485397
v 4.432014 7.339471E-02 2.485646
v -4.432014 7.339471E-02 2.485646
v 4.432014 0.6384999 -0.9717917
v -4.432014 0.6384999 -0.9717917
v 4.432014 -1.163676 -3.858186
v -4.432014 -1.163676 -3.858186
v 4.432014 -4.276224 -4.485397
v -4.432014 -4.276224 -4.485397
v -3.78889 -0.9758125 -2.0613
v -3.78889 -0.9758125 0.3789431
v -3.775211 5.63967 -2.060464
v -3.775211 5.63967 0.3789431
v -1.53512 3.876775 3.228934
v -1.54881 -0.9758125 3.236419
v 2.261374 5.63967 0.3789431
v 2.247703 -0.9758125 0.3789431
v 2.261374 5.63967 -2.060464
v 2.247713 -0.9758125 -2.063403
v 0.8919299 3.876775 3.228934
v 0.8782506 -0.9758125 3.236419
# 24 vertices
vt 0.6087103 -0.2678646
vt 0.6195394 -0.2591284
vt 0.6942552 -0.2678646
vt 0.6813914 -0.2591284
vt 0.6195394 -0.2417904
vt 0.6813914 -0.2417904
vt 0.6195394 -0.2240135
vt 0.6813914 -0.2240135
vt 0.6195394 -0.2093589
vt 0.6813914 -0.2093589
vt 0.6087103 -0.2048398
vt 0.6942552 -0.2048398
vt 0.6467087 -0.4827474
vt 0.6467087 -0.5066662
vt 0.7271683 -0.4827527
vt 0.7271683 -0.5066662
vt 0.7131357 -0.5278671
vt 0.6467087 -0.5279247
vt 0.7271683 -0.5066662
vt 0.6467087 -0.5066662
vt 0.7271683 -0.4827527
vt 0.6467087 -0.4827321
vt 0.7798406 -0.482924
vt 0.7287473 -0.482924
vt 0.7798406 -0.5066662
vt 0.7287473 -0.5066662
vt 0.7208912 -0.5350282
vt 0.7739817 -0.5350282
vt 0.7208912 -0.5534528
vt 0.7739817 -0.5534528
vt 0.7131357 -0.5278671
vt 0.6467087 -0.5279247
vt 0.6469943 -0.5553578
vt 0.6469943 -0.5276533
vt 0.7125476 -0.5553578
vt 0.7125476 -0.5276533
vt 0.7444869 -0.5263987
vt 0.7682498 -0.5263987
# 38 texture coordinates
vn 3.038438E-08 -0.1975938 0.980284
vn 3.038438E-08 -0.1975938 0.980284
vn 3.038438E-08 -0.1975938 0.980284
vn -7.481069E-09 0.2264648 0.9740193
vn -7.481069E-09 0.2264648 0.9740193
vn -7.688249E-08 -0.197481 0.9803067
vn -7.481069E-09 0.2264648 0.9740193
vn 3.035144E-08 0.8584501 0.5128971
vn -7.481069E-09 0.2264648 0.9740193
vn 3.035144E-08 0.8584501 0.5128971
vn 3.035144E-08 0.8584501 0.5128971
vn -7.481069E-09 0.2264648 0.9740193
vn 3.035144E-08 0.8584501 0.5128971
vn 2.606234E-08 0.9804698 -0.1966694
vn 3.035144E-08 0.8584501 0.5128971
vn 2.606234E-08 0.9804698 -0.1966694
vn 2.606234E-08 0.9804698 -0.1966694
vn 3.035144E-08 0.8584501 0.5128971
vn 2.606234E-08 0.9804698 -0.1966694
vn 9.487952E-08 0.5694497 -0.8220262
vn 2.606234E-08 0.9804698 -0.1966694
vn 9.487952E-08 0.5694497 -0.8220262
vn 9.487952E-08 0.5694497 -0.8220262
vn 2.606234E-08 0.9804698 -0.1966694
vn 9.487952E-08 0.5694497 -0.8220262
vn 1.186553E-07 0.1974862 -0.9803057
vn 9.487952E-08 0.5694497 -0.8220262
vn 1.186553E-07 0.1974862 -0.9803057
vn 1.186553E-07 0.1974862 -0.9803057
vn 9.487952E-08 0.5694497 -0.8220262
vn 1 1.213202E-09 -2.220446E-16
vn 1 1.213202E-09 -2.220446E-16
vn 1 1.213202E-09 -2.220446E-16
vn -1 -1.562217E-08 2.220446E-16
vn -1 -1.562217E-08 2.220446E-16
vn -1 -1.562217E-08 2.220446E-16
vn -1 -2.523268E-08 2.220446E-16
vn -1 -2.523268E-08 2.220446E-16
vn -1 -2.523268E-08 2.220446E-16
vn -1 -2.523268E-08 2.220446E-16
vn -1 -2.523268E-08 2.220446E-16
vn -1 -2.523268E-08 2.220446E-16
vn -1 9.862308E-08 2.220446E-16
vn -1 9.862308E-08 2.220446E-16
vn -1 9.862308E-08 2.220446E-16
vn 1 1.382743E-07 -2.220446E-16
vn 1 1.382743E-07 -2.220446E-16
vn 1 1.382743E-07 -2.220446E-16
vn 1 -4.423824E-08 -2.220446E-16
vn 1 -4.423824E-08 -2.220446E-16
vn 1 -4.423824E-08 -2.220446E-16
vn 1 -4.423824E-08 -2.220446E-16
vn 1 -4.423824E-08 -2.220446E-16
vn 1 -4.423824E-08 -2.220446E-16
vn -0.9999979 2.067775E-03 -5.747032E-11
vn -0.9999979 2.067775E-03 -5.747032E-11
vn -0.9999979 2.067775E-03 -5.747032E-11
vn -0.9999979 2.067775E-03 -5.747032E-11
vn -0.9999979 2.067775E-03 -5.747032E-11
vn -0.9999979 2.067775E-03 -5.747032E-11
vn -0.7862538 2.293981E-03 0.6178994
vn -0.7862538 2.293981E-03 0.6178994
vn -0.7862538 2.293981E-03 0.6178994
vn -0.7862538 2.293981E-03 0.6178994
vn -0.7862538 2.293981E-03 0.6178994
vn -0.7862538 2.293981E-03 0.6178994
vn 0.9999979 -2.066577E-03 3.276392E-06
vn 0.9999979 -2.066577E-03 3.276392E-06
vn 0.9999979 -2.066577E-03 3.276392E-06
vn 0.9999979 -2.066577E-03 3.276392E-06
vn 0.9999979 -2.066577E-03 3.276392E-06
vn 0.9999979 -2.066577E-03 3.276392E-06
vn -2.220445E-16 1 3.371071E-07
vn -2.220445E-16 1 3.371071E-07
vn -2.220445E-16 1 3.371071E-07
vn -2.220445E-16 1 3.371071E-07
vn -2.220445E-16 1 3.371071E-07
vn -2.220445E-16 1 3.371071E-07
vn -1.682938E-04 2.654655E-04 -0.9999999
vn -1.682938E-04 2.654655E-04 -0.9999999
vn -1.682938E-04 2.654655E-04 -0.9999999
vn -1.682938E-04 2.654655E-04 -0.9999999
vn -1.682938E-04 2.654655E-04 -0.9999999
vn -1.682938E-04 2.654655E-04 -0.9999999
vn 0.9017868 -1.858021E-03 0.4321772
vn 0.9017868 -1.858021E-03 0.4321772
vn 0.9017868 -1.858021E-03 0.4321772
vn 0.9017868 -1.858021E-03 0.4321772
vn 0.9017868 -1.858021E-03 0.4321772
vn 0.9017868 -1.858021E-03 0.4321772
vn -1.536814E-07 1.603878E-03 0.9999987
vn -1.536814E-07 1.603878E-03 0.9999987
vn -1.536814E-07 1.603878E-03 0.9999987
vn -1.536814E-07 1.603878E-03 0.9999987
vn -1.536814E-07 1.603878E-03 0.9999987
vn -1.536814E-07 1.603878E-03 0.9999987
vn 9.105158E-08 0.8504372 0.5260766
vn 9.105158E-08 0.8504372 0.5260766
vn 9.105158E-08 0.8504372 0.5260766
vn 9.105158E-08 0.8504372 0.5260766
vn 9.105158E-08 0.8504372 0.5260766
vn 9.105158E-08 0.8504372 0.5260766
# 102 normals
f  1/1/1 2/2/2 3/3/3
f  2/2/4 4/4/5 3/3/6
f  2/2/7 5/5/8 4/4/9
f  5/5/10 6/6/11 4/4/12
f  5/5/13 7/7/14 6/6/15
f  7/7/16 8/8/17 6/6/18
f  7/7/19 9/9/20 8/8/21
f  9/9/22 10/10/23 8/8/24
f  9/9/25 11/11/26 10/10/27
f  11/11/28 12/12/29 10/10/30
f  1/1/31 5/5/32 2/2/33
f  3/3/34 4/4/35 6/6/36
f  12/12/37 3/3/38 8/8/39
f  3/3/40 6/6/41 8/8/42
f  12/12/43 8/8/44 10/10/45
f  7/7/46 11/11/47 9/9/48
f  11/11/49 7/7/50 1/1/51
f  1/1/52 7/7/53 5/5/54
f  13/13/55 14/14/56 15/15/57
f  15/15/58 14/14/59 16/16/60
f  16/16/61 14/14/62 17/17/63
f  14/14/64 18/18/65 17/17/66
f  19/19/67 20/20/68 21/21/69
f  20/20/70 22/22/71 21/21/72
f  21/23/73 15/24/74 19/25/75
f  15/24/76 16/26/77 19/25/78
f  13/27/79 15/28/80 22/29/81
f  15/28/82 21/30/83 22/29/84
f  19/19/85 23/31/86 20/20/87
f  23/31/88 24/32/89 20/20/90
f  23/33/91 17/34/92 24/35/93
f  17/34/94 18/36/95 24/35/96
f  16/26/97 17/37/98 19/25/99
f  19/25/100 17/37/101 23/38/102
# 34 faces
