# object Turret04Shape
g Turret04Shape
v 3.882578 -13.60552 4.301369
v -3.882307 -13.60552 4.301369
v 3.874254 -18.44188 -3.817762
v -3.873964 -18.44188 -3.817762
v 7.632903 -16.48216 -3.817762
v -7.632679 -16.48216 -3.817762
v 8.098672 -4.305034 4.301369
v -8.098448 -4.305034 4.301369
v 13.06551 -4.928398 -3.817762
v -13.0655 -4.928398 -3.817762
v 8.079264 -1.359062 4.301369
v -8.07907 -1.359062 4.301369
v 12.9031 -0.6171125 -3.817762
v -12.90265 -0.6171125 -3.817762
v -5.642988 7.765983 3.519915
v 5.633168 7.765983 3.519915
v 9.973438 7.739044 -3.817762
v -9.97319 7.739044 -3.817762
v -3.343461 11.41617 3.148147
v 3.348769 11.41617 3.148147
v -6.183458 13.60552 -2.742079
v 6.183806 13.60552 -2.742079
v 5.091089 -17.51904 -4.303967
v -5.090896 -17.51904 -4.303967
v -9.41206 -12.81881 -4.303967
v 9.412292 -12.81881 -4.303967
v 11.76627 -5.968273 -4.303967
v -11.76596 -5.968273 -4.303967
v 13.04807 -0.7463496 -4.303967
v -13.04805 -0.7463496 -4.303967
v 9.871728 8.183186 -4.303967
v -10.35385 8.183186 -4.303967
v 6.501455 12.87785 -4.323174
v -6.771234 12.87785 -4.323174
v 10.65429 -11.44228 -5.647774
v -10.65403 -11.44228 -5.647774
v 12.43866 0.7895421 -5.647774
v -12.43856 0.7895421 -5.647774
v 7.725087 13.01969 -5.649815
v -7.724747 13.01969 -5.649815
v -6.232233 5.267903 3.573608
v -5.634536 5.267903 5.649815
v -4.191764 7.089363 3.573608
v -4.191764 6.555975 5.649815
v -4.191764 3.446629 3.573608
v -4.191764 3.980325 5.649815
v -2.151288 5.267903 3.573608
v -2.748899 5.267903 5.649815
v -0.5692845 -11.29375 4.255594
v -0.5719551 -11.29375 5.559564
v -5.058602E-02 -10.78309 4.255594
v -5.058602E-02 -10.78046 5.559564
v -5.058602E-02 -11.80443 4.255594
v -5.058602E-02 -11.807 5.559564
v 0.4681184 -11.29375 4.255594
v 0.4707918 -11.29375 5.559564
# 56 vertices
vt 0.8691804 -0.206928
vt 0.9154924 -0.206928
vt 0.8683314 -0.1702159
vt 0.9163407 -0.1702159
vt 0.8450425 -0.1836861
vt 0.9396297 -0.1836861
vt 0.8440345 -0.2641786
vt 0.9406381 -0.2641786
vt 0.8113807 -0.2595664
vt 0.9732921 -0.2595664
vt 0.8441505 -0.2823126
vt 0.9405215 -0.2823126
vt 0.812388 -0.2892025
vt 0.9722842 -0.2892025
vt 0.925993 -0.3384858
vt 0.8587393 -0.3384858
vt 0.830539 -0.3466431
vt 0.9541332 -0.3466431
vt 0.9122778 -0.3609535
vt 0.8723649 -0.3609535
vt 0.9306509 -0.3869689
vt 0.8540218 -0.3869689
vt 0.8611684 -0.1681277
vt 0.9235044 -0.1681277
vt 0.9468039 -0.1859779
vt 0.8397033 -0.1819023
vt 0.8086748 -0.2587257
vt 0.9784646 -0.2587257
vt 0.8086872 -0.2900727
vt 0.9779761 -0.2900727
vt 0.8255107 -0.3472967
vt 0.960106 -0.3472967
vt 0.8529584 -0.3910022
vt 0.9333496 -0.3910022
vt 0.9653685 -0.350245
vt 0.9653685 -0.3365888
vt 0.9766115 -0.3405581
vt 0.9653685 -0.3365888
vt 0.9653685 -0.350245
vt 0.9766115 -0.3405581
vt 0.9766115 -0.3637169
vt 0.9653685 -0.360655
vt 0.9766115 -0.3637169
vt 0.9653685 -0.360655
vt 0.9653685 -0.3784552
vt 0.9653685 -0.3784552
vt 0.9766115 -0.342518
vt 0.9766115 -0.3827299
vt 0.9653685 -0.3457024
vt 0.9653685 -0.3802479
vt 0.9653685 -0.3878142
vt 0.9766115 -0.3880969
vt 0.9653685 -0.3878142
vt 0.9766115 -0.3880969
vt 0.8039811 -0.1533052
vt 0.8039811 -7.482135E-02
vt 0.7418532 -0.1772501
vt 0.7418532 -5.087674E-02
vt 0.6797155 -0.1681857
vt 0.6797155 -5.994111E-02
vt 0.9766115 -0.390354
vt 0.9766115 -0.3348933
vt 0.9653679 -0.3871213
vt 0.9653685 -0.338126
vt 0.8679599 -0.1438537
vt 0.8678324 -0.1654847
vt 0.8751948 -0.1481394
vt 0.8751175 -0.1612175
vt 0.8687871 -0.1521403
vt 0.8621386 -0.1521403
vt 0.8687871 -0.1566917
vt 0.8621386 -0.1553586
vt 0.8687871 -0.1475888
vt 0.8621386 -0.1489217
vt 0.8573998 -0.1475888
vt 0.8587128 -0.1542373
vt 0.8618826 -0.1475888
vt 0.8618826 -0.1542373
vt 0.8601692 -0.1544496
vt 0.8556865 -0.1544496
vt 0.8588562 -0.1610981
vt 0.8556865 -0.1610981
vt 0.8875664 -0.3392228
vt 0.8989978 -0.3277915
vt 0.876135 -0.3277915
vt 0.8875664 -0.3163595
vt 0.8113773 -0.2071006
vt 0.8113773 -0.2155932
vt 0.8166761 -0.2071006
vt 0.8151242 -0.2155932
vt 0.8060784 -0.2071006
vt 0.8076305 -0.2155932
vt 0.8012288 -0.2095578
vt 0.8042011 -0.2173308
vt 0.8215259 -0.209558
vt 0.8185534 -0.2173308
vt 0.8086631 -0.2187284
vt 0.8113357 -0.2218051
vt 0.8113357 -0.2156518
vt 0.8140087 -0.2187284
# 100 texture coordinates
vn 4.432269E-10 -0.8591278 0.5117611
vn 4.432269E-10 -0.8591278 0.5117611
vn 4.432269E-10 -0.8591278 0.5117611
vn 0.1423105 -0.8738419 0.4649172
vn -0.3322412 -0.7985988 0.5018523
vn -0.2140343 -0.8624001 0.4587543
vn 0.4433578 -0.7446953 0.4988614
vn 0.1423105 -0.8738419 0.4649172
vn 0.6903747 -0.5353981 0.4865507
vn -0.2140343 -0.8624001 0.4587543
vn -0.3322412 -0.7985988 0.5018523
vn -0.6903747 -0.5353982 0.4865506
vn 3.361556E-08 0 1
vn 3.361556E-08 0 1
vn 3.361556E-08 0 1
vn -7.012051E-08 0 1
vn -7.012051E-08 0 1
vn -7.012051E-08 0 1
vn 0.4433578 -0.7446953 0.4988614
vn 0.6903747 -0.5353981 0.4865507
vn 0.8236443 -0.2505412 0.5087624
vn 0.8236443 -0.2505412 0.5087624
vn 0.6903747 -0.5353981 0.4865507
vn 0.8446768 -0.116691 0.5224024
vn -0.3322412 -0.7985988 0.5018523
vn -0.8236443 -0.2505413 0.5087623
vn -0.6903747 -0.5353982 0.4865506
vn -0.6903747 -0.5353982 0.4865506
vn -0.8236443 -0.2505413 0.5087623
vn -0.8446772 -0.1166899 0.522402
vn -2.418897E-08 0 1
vn -2.418897E-08 0 1
vn -2.418897E-08 0 1
vn 2.413065E-08 0 1
vn 2.413065E-08 0 1
vn 2.413065E-08 0 1
vn 0.842164 0.1599165 0.5149626
vn 0.8457122 0.1481272 0.5126687
vn 0.8446768 -0.116691 0.5224024
vn 0.8446768 -0.116691 0.5224024
vn 0.8457122 0.1481272 0.5126687
vn 0.8236443 -0.2505412 0.5087624
vn -0.8421645 0.1599184 0.5149612
vn -0.8446772 -0.1166899 0.522402
vn -0.8458661 0.1479253 0.5124731
vn -0.8458661 0.1479253 0.5124731
vn -0.8446772 -0.1166899 0.522402
vn -0.8236443 -0.2505413 0.5087623
vn 4.651872E-08 0.0854071 0.9963461
vn 4.651872E-08 0.0854071 0.9963461
vn 4.651872E-08 0.0854071 0.9963461
vn -6.665922E-08 8.540709E-02 0.9963461
vn -6.665922E-08 8.540709E-02 0.9963461
vn -6.665922E-08 8.540709E-02 0.9963461
vn 0.7961999 0.3569267 0.4885376
vn 0.8457122 0.1481272 0.5126687
vn 0.8021588 0.333031 0.4956123
vn 0.8457122 0.1481272 0.5126687
vn 0.842164 0.1599165 0.5149626
vn 0.8021588 0.333031 0.4956123
vn -0.7964371 0.3570567 0.4880557
vn -0.8023201 0.3331172 0.4952932
vn -0.8458661 0.1479253 0.5124731
vn -0.8421645 0.1599184 0.5149612
vn -0.8458661 0.1479253 0.5124731
vn -0.8023201 0.3331172 0.4952932
vn -6.617577E-08 0.101296 0.9948563
vn 2.266488E-08 0.101296 0.9948564
vn 2.266488E-08 0.101296 0.9948564
vn 2.266488E-08 0.101296 0.9948564
vn 2.266488E-08 0.101296 0.9948564
vn 1.115055E-07 0.101296 0.9948563
vn -0.7819172 0.4207893 0.4599368
vn -0.7414156 0.4576272 0.4907956
vn -0.7414156 0.4576272 0.4907956
vn -0.7414156 0.4576272 0.4907956
vn -0.7414156 0.4576272 0.4907956
vn -0.6979855 0.4926575 0.5197161
vn 0.7542581 0.4457741 0.4820583
vn -3.027429E-09 0.9373373 0.3484234
vn 0.7542581 0.4457741 0.4820583
vn 5.594777E-09 0.9373372 0.3484236
vn 5.594777E-09 0.9373372 0.3484236
vn 5.594777E-09 0.9373372 0.3484236
vn 0.7815968 0.4204209 0.4608174
vn 0.7420291 0.4564636 0.4909519
vn 0.7420291 0.4564636 0.4909519
vn 0.6996619 0.4907841 0.5192342
vn 0.7420291 0.4564636 0.4909519
vn 0.7420291 0.4564636 0.4909519
vn -6.293537E-09 -0.4661017 -0.8847312
vn -6.293537E-09 -0.4661017 -0.8847312
vn -1.689298E-07 -0.466102 -0.884731
vn 1.285511E-07 -0.4661019 -0.8847311
vn 4.789225E-09 -0.4661025 -0.8847307
vn 1.285511E-07 -0.4661019 -0.8847311
vn -0.2984734 -0.3081752 -0.9032949
vn -0.2984734 -0.3081752 -0.9032949
vn -0.2984726 -0.3081754 -0.9032951
vn -0.4091412 -0.7847846 -0.4655283
vn -0.4091412 -0.7847846 -0.4655283
vn -0.4091402 -0.7847852 -0.4655281
vn 0.2984744 -0.3081767 -0.903294
vn 0.298473 -0.3081769 -0.9032944
vn 0.2984744 -0.3081767 -0.903294
vn 0.4091412 -0.7847848 -0.4655279
vn 0.4091412 -0.7847848 -0.4655279
vn 0.4091395 -0.7847859 -0.4655277
vn 0.8259438 -0.4064943 0.3906138
vn 0.8259439 -0.4064945 0.3906133
vn 0.8259438 -0.4064943 0.3906138
vn 0.453046 -0.1556848 -0.8777879
vn 0.4530456 -0.1556849 -0.8777881
vn 0.4530456 -0.1556849 -0.8777881
vn -0.8259527 -0.4064987 0.3905905
vn -0.8259527 -0.4064987 0.3905905
vn -0.8259518 -0.4065001 0.390591
vn -0.4530473 -0.1556859 -0.877787
vn -0.4530468 -0.155686 -0.8777872
vn -0.4530473 -0.1556859 -0.877787
vn 0.9601656 3.622544E-02 0.2770734
vn 0.9601656 3.622544E-02 0.2770734
vn 0.9601656 3.622545E-02 0.2770735
vn 0.4198826 -0.1030654 -0.9017073
vn 0.4198833 -0.1030654 -0.901707
vn 0.4198826 -0.1030654 -0.9017073
vn -0.9601657 3.622922E-02 0.2770724
vn -0.9601656 0.0362293 0.277073
vn -0.9601657 3.622922E-02 0.2770724
vn -0.4198821 -0.1030639 -0.9017078
vn -0.4198825 -0.1030639 -0.9017075
vn -0.4198825 -0.1030639 -0.9017075
vn 0.9252226 0.3291526 0.188737
vn 0.9252226 0.3291526 0.188737
vn 0.9252229 0.3291522 0.1887363
vn 0.9386352 0.3290567 0.1033709
vn 0.9386355 0.329056 0.1033708
vn 0.9386352 0.3290567 0.1033709
vn -0.6725372 0.2029097 0.7117031
vn -0.6725372 0.2029097 0.7117031
vn -0.6725377 0.2029096 0.7117027
vn -0.9264521 0.3247857 0.1902649
vn -0.9264525 0.3247851 0.1902641
vn -0.9264521 0.3247857 0.1902649
vn 0.8305438 0.4869912 0.2702529
vn 0.8305441 0.4869905 0.2702529
vn 0.8305438 0.4869912 0.2702529
vn 0.8081533 0.5796613 -0.1043124
vn 0.8081538 0.5796606 -0.104312
vn 0.8081538 0.5796606 -0.104312
vn -0.6240764 0.2686035 0.7337444
vn -0.6240764 0.2686035 0.7337444
vn -0.6240759 0.2686033 0.7337449
vn -0.794856 0.6065754 1.643764E-02
vn -0.7948558 0.6065757 0.016437
vn -0.7948558 0.6065757 0.016437
vn 1.016609E-11 0.9084566 -0.4179793
vn 1.016609E-11 0.9084566 -0.4179793
vn -7.991908E-09 0.908457 -0.4179784
vn 7.446701E-09 0.9084563 -0.41798
vn -9.472566E-12 0.908456 -0.4179804
vn 7.446701E-09 0.9084563 -0.41798
vn 0.8316618 -0.2857928 0.4760894
vn 0.8316618 -0.2857928 0.4760894
vn 0.8316618 -0.2857928 0.4760894
vn -0.8316626 -0.2857944 0.4760871
vn -0.8316626 -0.2857944 0.4760871
vn -0.8316626 -0.2857944 0.4760871
vn 0.8432457 -0.1230092 -0.5232642
vn 0.8432457 -0.1230092 -0.5232642
vn 0.8432457 -0.1230092 -0.5232642
vn 0.9578399 -0.2351139 0.1651185
vn 0.9578399 -0.2351139 0.1651185
vn 0.9578399 -0.2351139 0.1651185
vn -0.8432493 -0.1230109 -0.5232579
vn -0.8432493 -0.1230109 -0.5232579
vn -0.8432493 -0.1230109 -0.5232579
vn -0.9578441 -0.2351121 0.1650967
vn -0.9578441 -0.2351121 0.1650967
vn -0.9578441 -0.2351121 0.1650967
vn -0.9522302 0.2872949 -0.1035347
vn -0.9522302 0.2872949 -0.1035347
vn -0.9522302 0.2872949 -0.1035347
vn 0.9412354 0.3348491 -4.418138E-02
vn 0.9412354 0.3348491 -4.418138E-02
vn 0.9412354 0.3348491 -4.418138E-02
vn 5.283415E-09 0.9943445 0.1062026
vn 5.283415E-09 0.9943445 0.1062026
vn 5.283415E-09 0.9943445 0.1062026
vn -6.150084E-09 0.9943446 0.1062019
vn -6.150084E-09 0.9943446 0.1062019
vn -6.150084E-09 0.9943446 0.1062019
vn -0.6699448 0.5133553 0.536321
vn -0.6699448 0.5133553 0.536321
vn -0.6699448 0.5133553 0.536321
vn -0.8242239 0.3175773 -0.468828
vn -0.8242239 0.3175773 -0.468828
vn -0.8242239 0.3175773 -0.468828
vn 0.6299686 0.4547168 0.629581
vn 0.6299686 0.4547168 0.629581
vn 0.6299686 0.4547168 0.629581
vn 0.9157051 0.3528863 -0.1922381
vn 0.9157051 0.3528863 -0.1922381
vn 0.9157051 0.3528863 -0.1922381
vn 9.160819E-08 -1.886163E-04 -1
vn 9.160819E-08 -1.886163E-04 -1
vn 9.160819E-08 -1.886163E-04 -1
vn 5.689309E-08 -1.886164E-04 -1
vn 5.689309E-08 -1.886164E-04 -1
vn 5.689309E-08 -1.886164E-04 -1
vn -7.800664E-08 -1.732095E-23 -1
vn -7.800664E-08 -1.732095E-23 -1
vn -7.800664E-08 -1.732095E-23 -1
vn -9.107125E-08 -2.022188E-23 -1
vn -9.107125E-08 -2.022188E-23 -1
vn -9.107125E-08 -2.022188E-23 -1
vn -5.420878E-08 -0.6984338 -0.7156746
vn -5.420878E-08 -0.6984338 -0.7156746
vn -5.420878E-08 -0.6984338 -0.7156746
vn -6.136217E-08 -0.6984339 -0.7156746
vn -6.136217E-08 -0.6984339 -0.7156746
vn -6.136217E-08 -0.6984339 -0.7156746
vn 5.052744E-10 1.121934E-25 -1
vn 5.052744E-10 1.121934E-25 -1
vn 5.052744E-10 1.121934E-25 -1
vn -9.34137E-10 -2.074201E-25 -1
vn -9.34137E-10 -2.074201E-25 -1
vn -9.34137E-10 -2.074201E-25 -1
vn -0.9609429 1.313688E-07 0.2767466
vn -0.9609435 -1.00716E-06 0.2767448
vn 7.879063E-08 0.9685108 0.2489716
vn 7.879063E-08 0.9685108 0.2489716
vn -0.9609435 -1.00716E-06 0.2767448
vn 7.879083E-08 0.9685115 0.2489686
vn -0.9609429 1.313688E-07 0.2767466
vn 5.909281E-08 -0.9685099 0.2489752
vn -0.9609435 -1.00716E-06 0.2767448
vn -0.9609435 -1.00716E-06 0.2767448
vn 5.909281E-08 -0.9685099 0.2489752
vn 7.879037E-08 -0.9685097 0.2489758
vn 0.9609429 1.313688E-07 0.2767466
vn 0.9609435 -1.029055E-06 0.2767448
vn 5.909281E-08 -0.9685099 0.2489752
vn 5.909281E-08 -0.9685099 0.2489752
vn 0.9609435 -1.029055E-06 0.2767448
vn 7.879037E-08 -0.9685097 0.2489758
vn 0.9609429 1.313688E-07 0.2767466
vn 7.879063E-08 0.9685108 0.2489716
vn 0.9609435 -1.029055E-06 0.2767448
vn 0.9609435 -1.029055E-06 0.2767448
vn 7.879063E-08 0.9685108 0.2489716
vn 7.879083E-08 0.9685115 0.2489686
vn -6.9872E-09 0 1
vn -6.9872E-09 0 1
vn -6.9872E-09 0 1
vn 6.987197E-09 0 1
vn 6.987197E-09 0 1
vn 6.987197E-09 0 1
vn -0.9999475 -5.097033E-07 -1.023925E-02
vn -0.9999475 -5.097033E-07 -1.023925E-02
vn -0.9999475 -5.097033E-07 -1.023925E-02
vn -0.9999475 -5.097033E-07 -1.023925E-02
vn -0.9999475 -5.097033E-07 -1.023925E-02
vn -0.9999475 -5.097033E-07 -1.023925E-02
vn -0.9999475 -5.097033E-07 -1.023925E-02
vn -0.9999475 -5.097033E-07 -1.023925E-02
vn -0.9999475 -5.097033E-07 -1.023925E-02
vn -0.9999475 -5.097033E-07 -1.023925E-02
vn -0.9999475 -5.097033E-07 -1.023925E-02
vn -0.9999475 -5.097033E-07 -1.023925E-02
vn -0.9999475 -5.097033E-07 -1.023925E-02
vn 0.9999979 -1.061985E-07 -2.048048E-03
vn -0.9999475 -5.097033E-07 -1.023925E-02
vn -0.9999475 -5.097033E-07 -1.023925E-02
vn 0.9999979 -1.061985E-07 -2.048048E-03
vn -0.9999475 -5.097033E-07 -1.023925E-02
vn -0.9999475 -5.097033E-07 -1.023925E-02
vn -0.9999475 -5.097033E-07 -1.023925E-02
vn 0.9999979 -1.061985E-07 -2.048048E-03
vn 0.9999979 -1.061985E-07 -2.048048E-03
vn -0.9999475 -5.097033E-07 -1.023925E-02
vn -0.9999475 -5.097033E-07 -1.023925E-02
vn 1.261909E-06 0 1
vn 1.261909E-06 0 1
vn 1.261909E-06 0 1
vn 5.240147E-07 0 1
vn 5.240147E-07 0 1
vn 5.240147E-07 0 1
# 288 normals
f  1/1/1 2/2/2 3/3/3
f  3/3/4 2/2/5 4/4/6
f  1/1/7 3/3/8 5/5/9
f  4/4/10 2/2/11 6/6/12
f  7/7/13 8/8/14 1/1/15
f  1/1/16 8/8/17 2/2/18
f  1/1/19 5/5/20 7/7/21
f  7/7/22 5/5/23 9/9/24
f  2/2/25 8/8/26 6/6/27
f  6/6/28 8/8/29 10/10/30
f  11/11/31 12/12/32 7/7/33
f  7/7/34 12/12/35 8/8/36
f  13/13/37 11/11/38 9/9/39
f  9/9/40 11/11/41 7/7/42
f  14/14/43 10/10/44 12/12/45
f  12/12/46 10/10/47 8/8/48
f  12/12/49 11/11/50 15/15/51
f  15/15/52 11/11/53 16/16/54
f  16/16/55 11/11/56 17/17/57
f  11/11/58 13/13/59 17/17/60
f  15/15/61 18/18/62 12/12/63
f  14/14/64 12/12/65 18/18/66
f  15/15/67 16/16/68 19/19/69
f  19/19/70 16/16/71 20/20/72
f  18/18/73 15/15/74 21/21/75
f  21/21/76 15/15/77 19/19/78
f  22/22/79 21/21/80 20/20/81
f  20/20/82 21/21/83 19/19/84
f  17/17/85 22/22/86 16/16/87
f  20/20/88 16/16/89 22/22/90
f  3/3/91 4/4/92 23/23/93
f  23/23/94 4/4/95 24/24/96
f  25/25/97 24/24/98 6/6/99
f  4/4/100 6/6/101 24/24/102
f  26/26/103 5/5/104 23/23/105
f  5/5/106 3/3/107 23/23/108
f  5/5/109 26/26/110 9/9/111
f  9/9/112 26/26/113 27/27/114
f  6/6/115 10/10/116 25/25/117
f  25/25/118 10/10/119 28/28/120
f  13/13/121 9/9/122 29/29/123
f  29/29/124 9/9/125 27/27/126
f  14/14/127 30/30/128 10/10/129
f  10/10/130 30/30/131 28/28/132
f  29/29/133 31/31/134 13/13/135
f  13/13/136 31/31/137 17/17/138
f  32/32/139 30/30/140 18/18/141
f  18/18/142 30/30/143 14/14/144
f  17/17/145 31/31/146 22/22/147
f  22/22/148 31/31/149 33/33/150
f  18/18/151 21/21/152 32/32/153
f  21/21/154 34/34/155 32/32/156
f  21/21/157 22/22/158 34/34/159
f  34/34/160 22/22/161 33/33/162
f  27/35/163 26/36/164 35/37/165
f  25/38/166 28/39/167 36/40/168
f  37/41/169 29/42/170 35/37/171
f  29/42/172 27/35/173 35/37/174
f  38/43/175 36/40/176 30/44/177
f  28/39/178 30/44/179 36/40/180
f  32/45/181 38/43/182 30/44/183
f  37/41/184 31/46/185 29/42/186
f  39/47/187 40/48/188 33/49/189
f  33/49/190 40/48/191 34/50/192
f  34/51/193 40/52/194 32/45/195
f  40/52/196 38/43/197 32/45/198
f  33/53/199 31/46/200 39/54/201
f  37/41/202 39/54/203 31/46/204
f  40/55/205 39/56/206 38/57/207
f  39/56/208 37/58/209 38/57/210
f  38/57/211 37/58/212 36/59/213
f  37/58/214 35/60/215 36/59/216
f  36/61/217 35/62/218 25/63/219
f  35/62/220 26/64/221 25/63/222
f  25/65/223 26/66/224 24/67/225
f  23/68/226 24/67/227 26/66/228
f  41/69/229 42/70/230 43/71/231
f  43/71/232 42/70/233 44/72/234
f  41/69/235 45/73/236 42/70/237
f  42/70/238 45/73/239 46/74/240
f  47/75/241 48/76/242 45/77/243
f  45/77/244 48/76/245 46/78/246
f  47/79/247 43/80/248 48/81/249
f  48/81/250 43/80/251 44/82/252
f  48/83/253 44/84/254 46/85/255
f  46/85/256 44/84/257 42/86/258
f  49/87/259 50/88/260 51/89/261
f  51/89/262 50/88/263 52/90/264
f  49/87/265 53/91/266 50/88/267
f  50/88/268 53/91/269 54/92/270
f  55/93/271 56/94/272 53/91/273
f  53/91/274 56/94/275 54/92/276
f  55/95/277 51/89/278 56/96/279
f  56/96/280 51/89/281 52/90/282
f  56/97/283 52/98/284 54/99/285
f  54/99/286 52/98/287 50/100/288
# 96 faces
