  0
SECTION
  2
HEADER
  9
$ACADVER
  1
AC1009
  9
$INSBASE
 10
0.0
 20
0.0
 30
0.0
  9
$EXTMIN
 10
-0.6499999999999994
 20
-63.184249999999999
 30
-0.3375748479259428
  9
$EXTMAX
 10
4.1899999999999951
 20
2.219999999999994
 30
13.83699324324324
  9
$LIMMIN
 10
0.0
 20
0.0
  9
$LIMMAX
 10
420.0
 20
297.0
  9
$ORTHOMODE
 70
     1
  9
$REGENMODE
 70
     1
  9
$FILLMODE
 70
     1
  9
$QTEXTMODE
 70
     0
  9
$MIRRTEXT
 70
     1
  9
$DRAGMODE
 70
     0
  9
$LTSCALE
 40
1.0
  9
$OSMODE
 70
   551
  9
$ATTMODE
 70
     1
  9
$TEXTSIZE
 40
2.5
  9
$TRACEWID
 40
1.0
  9
$TEXTSTYLE
  7
STANDARD
  9
$CLAYER
  8
GUN
  9
$CELTYPE
  6
BYLAYER
  9
$CECOLOR
 62
   256
  9
$DIMSCALE
 40
1.0
  9
$DIMASZ
 40
2.5
  9
$DIMEXO
 40
0.625
  9
$DIMDLI
 40
3.75
  9
$DIMRND
 40
0.0
  9
$DIMDLE
 40
0.0
  9
$DIMEXE
 40
1.25
  9
$DIMTP
 40
0.0
  9
$DIMTM
 40
0.0
  9
$DIMTXT
 40
2.5
  9
$DIMCEN
 40
2.5
  9
$DIMTSZ
 40
0.0
  9
$DIMTOL
 70
     0
  9
$DIMLIM
 70
     0
  9
$DIMTIH
 70
     0
  9
$DIMTOH
 70
     0
  9
$DIMSE1
 70
     0
  9
$DIMSE2
 70
     0
  9
$DIMTAD
 70
     1
  9
$DIMZIN
 70
     8
  9
$DIMBLK
  1

  9
$DIMASO
 70
     1
  9
$DIMSHO
 70
     1
  9
$DIMPOST
  1

  9
$DIMAPOST
  1

  9
$DIMALT
 70
     0
  9
$DIMALTD
 70
     3
  9
$DIMALTF
 40
0.03937007874016
  9
$DIMLFAC
 40
1.0
  9
$DIMTOFL
 70
     1
  9
$DIMTVP
 40
0.0
  9
$DIMTIX
 70
     0
  9
$DIMSOXD
 70
     0
  9
$DIMSAH
 70
     0
  9
$DIMBLK1
  1

  9
$DIMBLK2
  1

  9
$DIMSTYLE
  2
ISO-25
  9
$DIMCLRD
 70
     0
  9
$DIMCLRE
 70
     0
  9
$DIMCLRT
 70
     0
  9
$DIMTFAC
 40
1.0
  9
$DIMGAP
 40
0.625
  9
$LUNITS
 70
     2
  9
$LUPREC
 70
     4
  9
$SKETCHINC
 40
1.0
  9
$FILLETRAD
 40
10.0
  9
$AUNITS
 70
     0
  9
$AUPREC
 70
     0
  9
$MENU
  1
.
  9
$ELEVATION
 40
0.0
  9
$PELEVATION
 40
0.0
  9
$THICKNESS
 40
0.0
  9
$LIMCHECK
 70
     0
  9
$BLIPMODE
 70
     0
  9
$CHAMFERA
 40
10.0
  9
$CHAMFERB
 40
10.0
  9
$SKPOLY
 70
     0
  9
$TDCREATE
 40
2454544.9507702538
  9
$TDUPDATE
 40
2454548.0233082869
  9
$TDINDWG
 40
0.1220165972
  9
$TDUSRTIMER
 40
0.1220165972
  9
$USRTIMER
 70
     1
  9
$ANGBASE
 50
0.0
  9
$ANGDIR
 70
     0
  9
$PDMODE
 70
     0
  9
$PDSIZE
 40
0.0
  9
$PLINEWID
 40
0.0
  9
$COORDS
 70
     1
  9
$SPLFRAME
 70
     0
  9
$SPLINETYPE
 70
     6
  9
$SPLINESEGS
 70
     8
  9
$ATTDIA
 70
     1
  9
$ATTREQ
 70
     1
  9
$HANDLING
 70
-16383
  9
$HANDSEED
  5
4AC
  9
$SURFTAB1
 70
     6
  9
$SURFTAB2
 70
     6
  9
$SURFTYPE
 70
     6
  9
$SURFU
 70
     6
  9
$SURFV
 70
     6
  9
$UCSNAME
  2

  9
$UCSORG
 10
0.0
 20
0.0
 30
0.0
  9
$UCSXDIR
 10
0.0
 20
-1.0
 30
0.0
  9
$UCSYDIR
 10
0.0
 20
0.0
 30
1.0
  9
$PUCSNAME
  2

  9
$PUCSORG
 10
0.0
 20
0.0
 30
0.0
  9
$PUCSXDIR
 10
1.0
 20
0.0
 30
0.0
  9
$PUCSYDIR
 10
0.0
 20
1.0
 30
0.0
  9
$USERI1
 70
     0
  9
$USERI2
 70
     0
  9
$USERI3
 70
     0
  9
$USERI4
 70
     0
  9
$USERI5
 70
     0
  9
$USERR1
 40
0.0
  9
$USERR2
 40
0.0
  9
$USERR3
 40
0.0
  9
$USERR4
 40
0.0
  9
$USERR5
 40
0.0
  9
$WORLDVIEW
 70
     1
  9
$SHADEDGE
 70
     3
  9
$SHADEDIF
 70
    70
  9
$TILEMODE
 70
     1
  9
$MAXACTVP
 70
    64
  9
$PLIMCHECK
 70
     0
  9
$PEXTMIN
 10
27.844751262664801
 20
20.161249995231621
 30
0.0
  9
$PEXTMAX
 10
250.60276136398309
 20
181.4512499570846
 30
0.0
  9
$PLIMMIN
 10
-3.757080078125
 20
-3.7570831775665279
  9
$PLIMMAX
 10
293.21124267578119
 20
206.21624445915219
  9
$UNITMODE
 70
     0
  9
$VISRETAIN
 70
     1
  9
$PLINEGEN
 70
     0
  9
$PSLTSCALE
 70
     1
  0
ENDSEC
  0
SECTION
  2
TABLES
  0
TABLE
  2
VPORT
 70
    22
  0
VPORT
  2
*ACTIVE
 70
     0
 10
0.0
 20
0.0
 11
1.0
 21
1.0
 12
-1.207197276790156
 22
0.8251228717093326
 13
0.0
 23
0.0
 14
0.01
 24
0.01
 15
1.0
 25
1.0
 16
-1.0
 26
0.0
 36
0.0
 17
0.0
 27
0.0
 37
0.0
 40
6.2659175942338123
 41
1.6612612612612609
 42
50.0
 43
0.0
 44
0.0
 50
0.0
 51
0.0
 71
     0
 72
   100
 73
     1
 74
     3
 75
     1
 76
     1
 77
     0
 78
     0
  0
ENDTAB
  0
TABLE
  2
LTYPE
 70
     1
  0
LTYPE
  2
CONTINUOUS
 70
     0
  3
Solid line
 72
    65
 73
     0
 40
0.0
  0
ENDTAB
  0
TABLE
  2
LAYER
 70
     5
  0
LAYER
  2
0
 70
     0
 62
     7
  6
CONTINUOUS
  0
LAYER
  2
DRAWING
 70
     0
 62
    -9
  6
CONTINUOUS
  0
LAYER
  2
TOWER
 70
     0
 62
     6
  6
CONTINUOUS
  0
LAYER
  2
TURRET
 70
     0
 62
     2
  6
CONTINUOUS
  0
LAYER
  2
GUN
 70
     0
 62
     1
  6
CONTINUOUS
  0
ENDTAB
  0
TABLE
  2
STYLE
 70
     1
  0
STYLE
  2
STANDARD
 70
     0
 40
0.0
 41
1.0
 50
0.0
 71
     0
 42
2.5
  3
txt
  4

  0
ENDTAB
  0
TABLE
  2
VIEW
 70
     0
  0
ENDTAB
  0
TABLE
  2
UCS
 70
     0
  0
ENDTAB
  0
TABLE
  2
APPID
 70
     1
  0
APPID
  2
ACAD
 70
     0
  0
ENDTAB
  0
TABLE
  2
DIMSTYLE
 70
     1
  0
DIMSTYLE
  2
ISO-25
 70
     0
  3

  4

  5

  6

  7

 40
1.0
 41
2.5
 42
0.625
 43
3.75
 44
1.25
 45
0.0
 46
0.0
 47
0.0
 48
0.0
140
2.5
141
2.5
142
0.0
143
0.03937007874016
144
1.0
145
0.0
146
1.0
147
0.625
 71
     0
 72
     0
 73
     0
 74
     0
 75
     0
 76
     0
 77
     1
 78
     8
170
     0
171
     3
172
     1
173
     0
174
     0
175
     0
176
     0
177
     0
178
     0
  0
ENDTAB
  0
ENDSEC
  0
SECTION
  2
BLOCKS
  0
BLOCK
  8
0
  2
$MODEL_SPACE
 70
     0
 10
0.0
 20
0.0
 30
0.0
  3
$MODEL_SPACE
  1

  0
ENDBLK
  5
21
  8
0
  0
BLOCK
 67
     1
  8
0
  2
$PAPER_SPACE
 70
     0
 10
0.0
 20
0.0
 30
0.0
  3
$PAPER_SPACE
  1

  0
ENDBLK
  5
1D
 67
     1
  8
0
  0
ENDSEC
  0
SECTION
  2
ENTITIES
  0
3DFACE
  5
314
  8
GUN
 10
0.1500000000000009
 20
0.319999999999995
 30
0.1399999999999985
 11
0.1500000000000008
 21
-0.1400000000000059
 31
0.1399999999999985
 12
0.1500000000000008
 22
-0.1400000000000059
 32
0.2399999999999999
 13
0.1500000000000009
 23
0.319999999999995
 33
0.2399999999999999
  0
3DFACE
  5
315
  8
GUN
 10
0.2500000000000007
 20
-0.1400000000000059
 30
0.2399999999999999
 11
0.2500000000000007
 21
-0.1400000000000059
 31
0.1399999999999985
 12
0.2500000000000008
 22
0.319999999999995
 32
0.1399999999999985
 13
0.2500000000000008
 23
0.319999999999995
 33
0.2399999999999999
  0
3DFACE
  5
316
  8
GUN
 10
0.1500000000000009
 20
0.319999999999995
 30
0.2399999999999999
 11
0.1500000000000008
 21
-0.1400000000000059
 31
0.2399999999999999
 12
0.2500000000000007
 22
-0.1400000000000059
 32
0.2399999999999999
 13
0.2500000000000008
 23
0.319999999999995
 33
0.2399999999999999
  0
3DFACE
  5
317
  8
GUN
 10
0.1500000000000008
 20
-0.1400000000000059
 30
0.2399999999999999
 11
0.1500000000000008
 21
-0.1400000000000059
 31
0.1399999999999985
 12
0.2500000000000007
 22
-0.1400000000000059
 32
0.1399999999999985
 13
0.2500000000000007
 23
-0.1400000000000059
 33
0.2399999999999999
  0
3DFACE
  5
319
  8
GUN
 10
0.2500000000000008
 20
0.319999999999995
 30
0.1399999999999985
 11
0.2500000000000007
 21
-0.1400000000000059
 31
0.1399999999999985
 12
0.1500000000000008
 22
-0.1400000000000059
 32
0.1399999999999985
 13
0.1500000000000009
 23
0.319999999999995
 33
0.1399999999999985
  0
3DFACE
  5
31B
  8
GUN
 10
0.2500000000000008
 20
0.319999999999995
 30
0.2399999999999999
 11
0.2500000000000008
 21
0.319999999999995
 31
0.1399999999999985
 12
0.2400000000000008
 22
0.4099999999999985
 32
0.1599999999999999
 13
0.2400000000000008
 23
0.4099999999999985
 33
0.2299999999999984
  0
3DFACE
  5
31C
  8
GUN
 10
0.1600000000000008
 20
0.4099999999999985
 30
0.1599999999999999
 11
0.1500000000000009
 21
0.319999999999995
 31
0.1399999999999985
 12
0.1500000000000009
 22
0.319999999999995
 32
0.2399999999999999
 13
0.1600000000000008
 23
0.4099999999999985
 33
0.2299999999999984
  0
3DFACE
  5
31D
  8
GUN
 10
0.1600000000000008
 20
0.4099999999999985
 30
0.2299999999999984
 11
0.1500000000000009
 21
0.319999999999995
 31
0.2399999999999999
 12
0.2500000000000008
 22
0.319999999999995
 32
0.2399999999999999
 13
0.2400000000000008
 23
0.4099999999999985
 33
0.2299999999999984
  0
3DFACE
  5
31F
  8
GUN
 10
0.2400000000000008
 20
0.4099999999999985
 30
0.2299999999999984
 11
0.2400000000000008
 21
0.4099999999999985
 31
0.1599999999999999
 12
0.1600000000000008
 22
0.4099999999999985
 32
0.1599999999999999
 13
0.1600000000000008
 23
0.4099999999999985
 33
0.2299999999999984
  0
3DFACE
  5
320
  8
GUN
 10
0.2400000000000008
 20
0.4099999999999985
 30
0.1599999999999999
 11
0.2500000000000008
 21
0.319999999999995
 31
0.1399999999999985
 12
0.1500000000000009
 22
0.319999999999995
 32
0.1399999999999985
 13
0.1600000000000008
 23
0.4099999999999985
 33
0.1599999999999999
  0
3DFACE
  5
363
  8
GUN
 10
0.2700000000000007
 20
0.069999999999995
 30
0.2999999999999987
 11
0.2700000000000007
 21
0.069999999999995
 31
0.2399999999999999
 12
0.2700000000000007
 22
0.2599999999999998
 32
0.2399999999999999
 13
0.2700000000000007
 23
0.2599999999999998
 33
0.2999999999999987
  0
3DFACE
  5
364
  8
GUN
 10
0.1000000000000007
 20
0.2599999999999998
 30
0.2399999999999999
 11
0.1000000000000007
 21
0.069999999999995
 31
0.2399999999999999
 12
0.1000000000000007
 22
0.069999999999995
 32
0.2999999999999987
 13
0.1000000000000007
 23
0.2599999999999998
 33
0.2999999999999987
  0
3DFACE
  5
365
  8
GUN
 10
0.1000000000000007
 20
0.2599999999999998
 30
0.2999999999999987
 11
0.1000000000000007
 21
0.069999999999995
 31
0.2999999999999987
 12
0.2700000000000007
 22
0.069999999999995
 32
0.2999999999999987
 13
0.2700000000000007
 23
0.2599999999999998
 33
0.2999999999999987
  0
3DFACE
  5
366
  8
GUN
 10
0.1000000000000007
 20
0.069999999999995
 30
0.2999999999999987
 11
0.1000000000000007
 21
0.069999999999995
 31
0.2399999999999999
 12
0.2700000000000007
 22
0.069999999999995
 32
0.2399999999999999
 13
0.2700000000000007
 23
0.069999999999995
 33
0.2999999999999987
  0
3DFACE
  5
367
  8
GUN
 10
0.2700000000000007
 20
0.2599999999999998
 30
0.2999999999999987
 11
0.2700000000000007
 21
0.2599999999999998
 31
0.2399999999999999
 12
0.1000000000000007
 22
0.2599999999999998
 32
0.2399999999999999
 13
0.1000000000000007
 23
0.2599999999999998
 33
0.2999999999999987
  0
3DFACE
  5
368
  8
GUN
 10
0.2700000000000007
 20
0.2599999999999998
 30
0.2399999999999999
 11
0.2700000000000007
 21
0.069999999999995
 31
0.2399999999999999
 12
0.1000000000000007
 22
0.069999999999995
 32
0.2399999999999999
 13
0.1000000000000007
 23
0.2599999999999998
 33
0.2399999999999999
  0
3DFACE
  5
36B
  8
GUN
 10
0.2200000000000011
 20
1.7799999999999949
 30
0.1899999999999992
 11
0.2100000000000011
 21
1.7799999999999949
 31
0.1726794919243113
 12
0.2175000000000012
 22
1.9299999999999939
 32
0.1596891108675444
 13
0.2350000000000012
 23
1.9299999999999939
 33
0.1899999999999992
  0
3DFACE
  5
36C
  8
GUN
 10
0.2100000000000011
 20
1.7799999999999949
 30
0.1726794919243113
 11
0.1900000000000011
 21
1.7799999999999949
 31
0.1726794919243113
 12
0.1825000000000012
 22
1.9299999999999939
 32
0.1596891108675444
 13
0.2175000000000012
 23
1.9299999999999939
 33
0.1596891108675444
  0
3DFACE
  5
36D
  8
GUN
 10
0.1900000000000011
 20
1.7799999999999949
 30
0.1726794919243113
 11
0.1800000000000011
 21
1.7799999999999949
 31
0.1899999999999992
 12
0.1650000000000011
 22
1.9299999999999939
 32
0.1899999999999992
 13
0.1825000000000012
 23
1.9299999999999939
 33
0.1596891108675444
  0
3DFACE
  5
36E
  8
GUN
 10
0.1800000000000011
 20
1.7799999999999949
 30
0.1899999999999992
 11
0.1900000000000011
 21
1.7799999999999949
 31
0.2073205080756872
 12
0.1825000000000012
 22
1.9299999999999939
 32
0.2203108891324541
 13
0.1650000000000011
 23
1.9299999999999939
 33
0.1899999999999992
  0
3DFACE
  5
36F
  8
GUN
 10
0.1900000000000011
 20
1.7799999999999949
 30
0.2073205080756872
 11
0.2100000000000011
 21
1.7799999999999949
 31
0.2073205080756872
 12
0.2175000000000011
 22
1.9299999999999939
 32
0.2203108891324541
 13
0.1825000000000012
 23
1.9299999999999939
 33
0.2203108891324541
  0
3DFACE
  5
370
  8
GUN
 10
0.2100000000000011
 20
1.7799999999999949
 30
0.2073205080756872
 11
0.2200000000000011
 21
1.7799999999999949
 31
0.1899999999999992
 12
0.2350000000000012
 22
1.9299999999999939
 32
0.1899999999999992
 13
0.2175000000000011
 23
1.9299999999999939
 33
0.2203108891324541
  0
3DFACE
  5
371
  8
GUN
 10
0.230000000000001
 20
1.3399999999999981
 30
0.1899999999999992
 11
0.2150000000000011
 21
1.3399999999999981
 31
0.1640192378864655
 12
0.2100000000000011
 22
1.7799999999999949
 32
0.1726794919243113
 13
0.2200000000000011
 23
1.7799999999999949
 33
0.1899999999999992
  0
3DFACE
  5
372
  8
GUN
 10
0.2150000000000011
 20
1.3399999999999981
 30
0.1640192378864655
 11
0.185000000000001
 21
1.3399999999999981
 31
0.1640192378864655
 12
0.1900000000000011
 22
1.7799999999999949
 32
0.1726794919243113
 13
0.2100000000000011
 23
1.7799999999999949
 33
0.1726794919243113
  0
3DFACE
  5
373
  8
GUN
 10
0.185000000000001
 20
1.3399999999999981
 30
0.1640192378864655
 11
0.170000000000001
 21
1.3399999999999981
 31
0.1899999999999992
 12
0.1800000000000011
 22
1.7799999999999949
 32
0.1899999999999992
 13
0.1900000000000011
 23
1.7799999999999949
 33
0.1726794919243113
  0
3DFACE
  5
374
  8
GUN
 10
0.170000000000001
 20
1.3399999999999981
 30
0.1899999999999992
 11
0.185000000000001
 21
1.3399999999999981
 31
0.215980762113533
 12
0.1900000000000011
 22
1.7799999999999949
 32
0.2073205080756872
 13
0.1800000000000011
 23
1.7799999999999949
 33
0.1899999999999992
  0
3DFACE
  5
375
  8
GUN
 10
0.185000000000001
 20
1.3399999999999981
 30
0.215980762113533
 11
0.215000000000001
 21
1.3399999999999981
 31
0.215980762113533
 12
0.2100000000000011
 22
1.7799999999999949
 32
0.2073205080756872
 13
0.1900000000000011
 23
1.7799999999999949
 33
0.2073205080756872
  0
3DFACE
  5
376
  8
GUN
 10
0.215000000000001
 20
1.3399999999999981
 30
0.215980762113533
 11
0.230000000000001
 21
1.3399999999999981
 31
0.1899999999999992
 12
0.2200000000000011
 22
1.7799999999999949
 32
0.1899999999999992
 13
0.2100000000000011
 23
1.7799999999999949
 33
0.2073205080756872
  0
3DFACE
  5
377
  8
GUN
 10
0.240000000000001
 20
1.3399999999999981
 30
0.195
 11
0.220000000000001
 21
1.3399999999999981
 31
0.2296410161513777
 12
0.2200000000000008
 22
0.4099999999999985
 32
0.2296410161513777
 13
0.2400000000000008
 23
0.4099999999999985
 33
0.195
  0
3DFACE
  5
378
  8
GUN
 10
0.220000000000001
 20
1.3399999999999981
 30
0.2296410161513777
 11
0.180000000000001
 21
1.3399999999999981
 31
0.2296410161513777
 12
0.1800000000000008
 22
0.4099999999999985
 32
0.2296410161513777
 13
0.2200000000000008
 23
0.4099999999999985
 33
0.2296410161513777
  0
3DFACE
  5
379
  8
GUN
 10
0.180000000000001
 20
1.3399999999999981
 30
0.2296410161513777
 11
0.160000000000001
 21
1.3399999999999981
 31
0.195
 12
0.1600000000000008
 22
0.4099999999999985
 32
0.195
 13
0.1800000000000008
 23
0.4099999999999985
 33
0.2296410161513777
  0
3DFACE
  5
37A
  8
GUN
 10
0.160000000000001
 20
1.3399999999999981
 30
0.195
 11
0.180000000000001
 21
1.3399999999999981
 31
0.1603589838486223
 12
0.1800000000000008
 22
0.4099999999999985
 32
0.1603589838486223
 13
0.1600000000000008
 23
0.4099999999999985
 33
0.195
  0
3DFACE
  5
37B
  8
GUN
 10
0.180000000000001
 20
1.3399999999999981
 30
0.1603589838486223
 11
0.2200000000000009
 21
1.3399999999999981
 31
0.1603589838486223
 12
0.2200000000000007
 22
0.4099999999999985
 32
0.1603589838486223
 13
0.1800000000000008
 23
0.4099999999999985
 33
0.1603589838486223
  0
3DFACE
  5
37C
  8
GUN
 10
0.2200000000000009
 20
1.3399999999999981
 30
0.1603589838486223
 11
0.240000000000001
 21
1.3399999999999981
 31
0.195
 12
0.2400000000000008
 22
0.4099999999999985
 32
0.195
 13
0.2200000000000007
 23
0.4099999999999985
 33
0.1603589838486223
  0
3DFACE
  5
37D
  8
GUN
 10
0.1825000000000012
 20
1.9299999999999939
 30
0.2203108891324541
 11
0.2175000000000011
 21
1.9299999999999939
 31
0.2203108891324541
 12
0.2350000000000012
 22
1.9299999999999939
 32
0.1899999999999992
 13
0.1650000000000011
 23
1.9299999999999939
 33
0.1899999999999992
  0
3DFACE
  5
37E
  8
GUN
 10
0.1650000000000011
 20
1.9299999999999939
 30
0.1899999999999992
 11
0.2350000000000012
 21
1.9299999999999939
 31
0.1899999999999992
 12
0.2175000000000012
 22
1.9299999999999939
 32
0.1596891108675444
 13
0.1825000000000012
 23
1.9299999999999939
 33
0.1596891108675444
  0
3DFACE
  5
37F
  8
GUN
 10
0.160000000000001
 20
1.3399999999999981
 30
0.195
 11
0.240000000000001
 21
1.3399999999999981
 31
0.195
 12
0.2200000000000009
 22
1.3399999999999981
 32
0.1603589838486223
 13
0.180000000000001
 23
1.3399999999999981
 33
0.1603589838486223
  0
3DFACE
  5
380
  8
GUN
 10
0.180000000000001
 20
1.3399999999999981
 30
0.2296410161513777
 11
0.220000000000001
 21
1.3399999999999981
 31
0.2296410161513777
 12
0.240000000000001
 22
1.3399999999999981
 32
0.195
 13
0.160000000000001
 23
1.3399999999999981
 33
0.195
  0
3DFACE
  5
382
  8
GUN
 10
0.2500000000000008
 20
0.2499999999999947
 30
0.1399999999999985
 11
0.2500000000000008
 21
0.2499999999999947
 31
-0.0700000000000006
 12
0.2500000000000008
 22
0.299999999999999
 32
-0.0700000000000006
 13
0.2500000000000008
 23
0.299999999999999
 33
0.1399999999999985
  0
3DFACE
  5
383
  8
GUN
 10
0.1500000000000009
 20
0.2499999999999947
 30
0.1399999999999985
 11
0.1500000000000009
 21
0.2499999999999947
 31
-0.0700000000000006
 12
0.2500000000000008
 22
0.2499999999999947
 32
-0.0700000000000006
 13
0.2500000000000008
 23
0.2499999999999947
 33
0.1399999999999985
  0
3DFACE
  5
384
  8
GUN
 10
0.2500000000000008
 20
0.299999999999999
 30
0.1399999999999985
 11
0.2500000000000008
 21
0.299999999999999
 31
-0.0700000000000006
 12
0.1500000000000009
 22
0.299999999999999
 32
-0.0700000000000006
 13
0.1500000000000009
 23
0.299999999999999
 33
0.1399999999999985
  0
3DFACE
  5
385
  8
GUN
 10
0.1500000000000009
 20
0.299999999999999
 30
-0.0700000000000006
 11
0.1500000000000009
 21
0.2499999999999947
 31
-0.0700000000000006
 12
0.1500000000000009
 22
0.2499999999999947
 32
0.1399999999999985
 13
0.1500000000000009
 23
0.299999999999999
 33
0.1399999999999985
  0
3DFACE
  5
386
  8
GUN
 10
0.2500000000000008
 20
0.299999999999999
 30
-0.0700000000000006
 11
0.2500000000000008
 21
0.2499999999999947
 31
-0.0700000000000006
 12
0.1500000000000009
 22
0.2499999999999947
 32
-0.0700000000000006
 13
0.1500000000000009
 23
0.299999999999999
 33
-0.0700000000000006
  0
3DFACE
  5
389
  8
GUN
 10
0.3700000000000006
 20
0.0199999999999978
 30
0.0099999999999995
 11
0.3700000000000006
 21
0.0099999999999998
 31
-0.0200000000000016
 12
0.2500000000000007
 22
0.2499999999999947
 32
-0.0200000000000016
 13
0.2500000000000007
 23
0.2499999999999947
 33
0.0099999999999995
  0
3DFACE
  5
38B
  8
GUN
 10
0.2200000000000007
 20
0.2499999999999947
 30
-0.0200000000000016
 11
0.3400000000000007
 21
0.0099999999999998
 31
-0.0200000000000016
 12
0.3400000000000007
 22
0.0199999999999978
 32
0.0099999999999995
 13
0.2200000000000007
 23
0.2499999999999947
 33
0.0099999999999995
  0
3DFACE
  5
38D
  8
GUN
 10
0.2500000000000007
 20
0.2499999999999947
 30
-0.0200000000000016
 11
0.3700000000000006
 21
0.0099999999999998
 31
-0.0200000000000016
 12
0.3400000000000007
 22
0.0099999999999998
 32
-0.0200000000000016
 13
0.2200000000000007
 23
0.2499999999999947
 33
-0.0200000000000016
  0
3DFACE
  5
38E
  8
GUN
 10
0.2200000000000007
 20
0.2499999999999947
 30
0.0099999999999995
 11
0.3400000000000007
 21
0.0199999999999978
 31
0.0099999999999995
 12
0.3700000000000006
 22
0.0199999999999978
 32
0.0099999999999995
 13
0.2500000000000007
 23
0.2499999999999947
 33
0.0099999999999995
  0
3DFACE
  5
3C4
  8
GUN
 10
0.0300000000000007
 20
0.0099999999999998
 30
-0.0200000000000016
 11
0.0300000000000007
 21
0.0199999999999979
 31
0.0099999999999995
 12
0.1500000000000007
 22
0.2499999999999947
 32
0.0099999999999995
 13
0.1500000000000007
 23
0.2499999999999947
 33
-0.0200000000000016
  0
3DFACE
  5
3C5
  8
GUN
 10
0.1500000000000007
 20
0.2499999999999947
 30
0.0099999999999995
 11
0.0300000000000007
 21
0.0199999999999979
 31
0.0099999999999995
 12
0.0600000000000007
 22
0.0199999999999979
 32
0.0099999999999995
 13
0.1800000000000007
 23
0.2499999999999947
 33
0.0099999999999995
  0
3DFACE
  5
3C6
  8
GUN
 10
0.1800000000000007
 20
0.2499999999999947
 30
0.0099999999999995
 11
0.0600000000000007
 21
0.0199999999999979
 31
0.0099999999999995
 12
0.0600000000000007
 22
0.0099999999999998
 32
-0.0200000000000016
 13
0.1800000000000007
 23
0.2499999999999947
 33
-0.0200000000000016
  0
3DFACE
  5
3C7
  8
GUN
 10
0.1800000000000007
 20
0.2499999999999947
 30
-0.0200000000000016
 11
0.0600000000000007
 21
0.0099999999999998
 31
-0.0200000000000016
 12
0.0300000000000007
 22
0.0099999999999998
 32
-0.0200000000000016
 13
0.1500000000000007
 23
0.2499999999999947
 33
-0.0200000000000016
  0
3DFACE
  5
3C9
  8
GUN
 10
-0.2399999999999992
 20
0.4099999999999985
 30
0.2299999999999984
 11
-0.2499999999999992
 21
0.319999999999995
 31
0.2399999999999999
 12
-0.1499999999999993
 22
0.319999999999995
 32
0.2399999999999999
 13
-0.1599999999999993
 23
0.4099999999999985
 33
0.2299999999999984
  0
3DFACE
  5
3CA
  8
GUN
 10
-0.1499999999999993
 20
0.319999999999995
 30
0.2399999999999999
 11
-0.1499999999999993
 21
0.319999999999995
 31
0.1399999999999985
 12
-0.1599999999999993
 22
0.4099999999999985
 32
0.1599999999999999
 13
-0.1599999999999993
 23
0.4099999999999985
 33
0.2299999999999984
  0
3DFACE
  5
3CB
  8
GUN
 10
-0.2399999999999992
 20
0.4099999999999985
 30
0.1599999999999999
 11
-0.2499999999999992
 21
0.319999999999995
 31
0.1399999999999985
 12
-0.2499999999999992
 22
0.319999999999995
 32
0.2399999999999999
 13
-0.2399999999999992
 23
0.4099999999999985
 33
0.2299999999999984
  0
3DFACE
  5
3CC
  8
GUN
 10
-0.1499999999999993
 20
-0.1400000000000058
 30
0.2399999999999999
 11
-0.1499999999999993
 21
-0.1400000000000058
 31
0.1399999999999985
 12
-0.1499999999999993
 22
0.319999999999995
 32
0.1399999999999985
 13
-0.1499999999999993
 23
0.319999999999995
 33
0.2399999999999999
  0
3DFACE
  5
3CD
  8
GUN
 10
-0.2499999999999992
 20
-0.1400000000000058
 30
0.2399999999999999
 11
-0.2499999999999992
 21
-0.1400000000000058
 31
0.1399999999999985
 12
-0.1499999999999993
 22
-0.1400000000000058
 32
0.1399999999999985
 13
-0.1499999999999993
 23
-0.1400000000000058
 33
0.2399999999999999
  0
3DFACE
  5
3CE
  8
GUN
 10
-0.2499999999999992
 20
0.319999999999995
 30
0.1399999999999985
 11
-0.2499999999999992
 21
-0.1400000000000058
 31
0.1399999999999985
 12
-0.2499999999999992
 22
-0.1400000000000058
 32
0.2399999999999999
 13
-0.2499999999999992
 23
0.319999999999995
 33
0.2399999999999999
  0
3DFACE
  5
3CF
  8
GUN
 10
-0.1499999999999993
 20
0.2499999999999947
 30
0.1399999999999985
 11
-0.1499999999999993
 21
0.2499999999999947
 31
-0.0700000000000006
 12
-0.1499999999999993
 22
0.299999999999999
 32
-0.0700000000000006
 13
-0.1499999999999993
 23
0.299999999999999
 33
0.1399999999999985
  0
3DFACE
  5
3D0
  8
GUN
 10
-0.2499999999999992
 20
0.2499999999999947
 30
0.1399999999999985
 11
-0.2499999999999992
 21
0.2499999999999947
 31
-0.0700000000000006
 12
-0.1499999999999993
 22
0.2499999999999947
 32
-0.0700000000000006
 13
-0.1499999999999993
 23
0.2499999999999947
 33
0.1399999999999985
  0
3DFACE
  5
3D1
  8
GUN
 10
-0.2499999999999992
 20
0.299999999999999
 30
-0.0700000000000006
 11
-0.2499999999999992
 21
0.2499999999999947
 31
-0.0700000000000006
 12
-0.2499999999999992
 22
0.2499999999999947
 32
0.1399999999999985
 13
-0.2499999999999992
 23
0.299999999999999
 33
0.1399999999999985
  0
3DFACE
  5
3D2
  8
GUN
 10
-0.1499999999999993
 20
0.299999999999999
 30
0.1399999999999985
 11
-0.1499999999999993
 21
0.299999999999999
 31
-0.0700000000000006
 12
-0.2499999999999992
 22
0.299999999999999
 32
-0.0700000000000006
 13
-0.2499999999999992
 23
0.299999999999999
 33
0.1399999999999985
  0
3DFACE
  5
3D3
  8
GUN
 10
-0.1499999999999993
 20
0.299999999999999
 30
-0.0700000000000006
 11
-0.1499999999999993
 21
0.2499999999999947
 31
-0.0700000000000006
 12
-0.2499999999999992
 22
0.2499999999999947
 32
-0.0700000000000006
 13
-0.2499999999999992
 23
0.299999999999999
 33
-0.0700000000000006
  0
3DFACE
  5
3D4
  8
GUN
 10
-0.3699999999999993
 20
0.0099999999999999
 30
-0.0200000000000016
 11
-0.3699999999999993
 21
0.0199999999999979
 31
0.0099999999999995
 12
-0.2499999999999993
 22
0.2499999999999947
 32
0.0099999999999995
 13
-0.2499999999999993
 23
0.2499999999999947
 33
-0.0200000000000016
  0
3DFACE
  5
3D5
  8
GUN
 10
-0.2199999999999993
 20
0.2499999999999947
 30
-0.0200000000000016
 11
-0.3399999999999994
 21
0.0099999999999999
 31
-0.0200000000000016
 12
-0.3699999999999993
 22
0.0099999999999999
 32
-0.0200000000000016
 13
-0.2499999999999993
 23
0.2499999999999947
 33
-0.0200000000000016
  0
3DFACE
  5
3D6
  8
GUN
 10
-0.2199999999999993
 20
0.2499999999999947
 30
0.0099999999999995
 11
-0.3399999999999994
 21
0.0199999999999979
 31
0.0099999999999995
 12
-0.3399999999999994
 22
0.0099999999999999
 32
-0.0200000000000016
 13
-0.2199999999999993
 23
0.2499999999999947
 33
-0.0200000000000016
  0
3DFACE
  5
3D7
  8
GUN
 10
-0.2499999999999993
 20
0.2499999999999947
 30
0.0099999999999995
 11
-0.3699999999999993
 21
0.0199999999999979
 31
0.0099999999999995
 12
-0.3399999999999994
 22
0.0199999999999979
 32
0.0099999999999995
 13
-0.2199999999999993
 23
0.2499999999999947
 33
0.0099999999999995
  0
3DFACE
  5
3D8
  8
GUN
 10
-0.0299999999999993
 20
0.0199999999999979
 30
0.0099999999999995
 11
-0.0299999999999993
 21
0.0099999999999998
 31
-0.0200000000000016
 12
-0.1499999999999993
 22
0.2499999999999947
 32
-0.0200000000000016
 13
-0.1499999999999993
 23
0.2499999999999947
 33
0.0099999999999995
  0
3DFACE
  5
3D9
  8
GUN
 10
-0.1499999999999993
 20
0.2499999999999947
 30
-0.0200000000000016
 11
-0.0299999999999993
 21
0.0099999999999998
 31
-0.0200000000000016
 12
-0.0599999999999994
 22
0.0099999999999998
 32
-0.0200000000000016
 13
-0.1799999999999993
 23
0.2499999999999947
 33
-0.0200000000000016
  0
3DFACE
  5
3DA
  8
GUN
 10
-0.1799999999999993
 20
0.2499999999999947
 30
-0.0200000000000016
 11
-0.0599999999999994
 21
0.0099999999999998
 31
-0.0200000000000016
 12
-0.0599999999999994
 22
0.0199999999999979
 32
0.0099999999999995
 13
-0.1799999999999993
 23
0.2499999999999947
 33
0.0099999999999995
  0
3DFACE
  5
3DB
  8
GUN
 10
-0.1799999999999993
 20
0.2499999999999947
 30
0.0099999999999995
 11
-0.0599999999999994
 21
0.0199999999999979
 31
0.0099999999999995
 12
-0.0299999999999993
 22
0.0199999999999979
 32
0.0099999999999995
 13
-0.1499999999999993
 23
0.2499999999999947
 33
0.0099999999999995
  0
3DFACE
  5
3DC
  8
GUN
 10
-0.219999999999999
 20
1.3399999999999981
 30
0.2296410161513777
 11
-0.179999999999999
 21
1.3399999999999981
 31
0.2296410161513777
 12
-0.1599999999999989
 22
1.3399999999999981
 32
0.195
 13
-0.239999999999999
 23
1.3399999999999981
 33
0.195
  0
3DFACE
  5
3DD
  8
GUN
 10
-0.239999999999999
 20
1.3399999999999981
 30
0.195
 11
-0.1599999999999989
 21
1.3399999999999981
 31
0.195
 12
-0.1799999999999991
 22
1.3399999999999981
 32
0.1603589838486223
 13
-0.219999999999999
 23
1.3399999999999981
 33
0.1603589838486223
  0
3DFACE
  5
3DE
  8
GUN
 10
-0.2349999999999988
 20
1.9299999999999939
 30
0.1899999999999992
 11
-0.1649999999999989
 21
1.9299999999999939
 31
0.1899999999999992
 12
-0.1824999999999988
 22
1.9299999999999939
 32
0.1596891108675444
 13
-0.2174999999999989
 23
1.9299999999999939
 33
0.1596891108675444
  0
3DFACE
  5
3DF
  8
GUN
 10
-0.2174999999999989
 20
1.9299999999999939
 30
0.2203108891324541
 11
-0.1824999999999988
 21
1.9299999999999939
 31
0.2203108891324541
 12
-0.1649999999999989
 22
1.9299999999999939
 32
0.1899999999999992
 13
-0.2349999999999988
 23
1.9299999999999939
 33
0.1899999999999992
  0
3DFACE
  5
3E0
  8
GUN
 10
-0.1799999999999991
 20
1.3399999999999981
 30
0.1603589838486223
 11
-0.1599999999999989
 21
1.3399999999999981
 31
0.195
 12
-0.1599999999999993
 22
0.4099999999999985
 32
0.195
 13
-0.1799999999999993
 23
0.4099999999999985
 33
0.1603589838486223
  0
3DFACE
  5
3E1
  8
GUN
 10
-0.219999999999999
 20
1.3399999999999981
 30
0.1603589838486223
 11
-0.1799999999999991
 21
1.3399999999999981
 31
0.1603589838486223
 12
-0.1799999999999993
 22
0.4099999999999985
 32
0.1603589838486223
 13
-0.2199999999999992
 23
0.4099999999999985
 33
0.1603589838486223
  0
3DFACE
  5
3E2
  8
GUN
 10
-0.239999999999999
 20
1.3399999999999981
 30
0.195
 11
-0.219999999999999
 21
1.3399999999999981
 31
0.1603589838486223
 12
-0.2199999999999992
 22
0.4099999999999985
 32
0.1603589838486223
 13
-0.2399999999999992
 23
0.4099999999999985
 33
0.195
  0
3DFACE
  5
3E3
  8
GUN
 10
-0.219999999999999
 20
1.3399999999999981
 30
0.2296410161513777
 11
-0.239999999999999
 21
1.3399999999999981
 31
0.195
 12
-0.2399999999999992
 22
0.4099999999999985
 32
0.195
 13
-0.2199999999999992
 23
0.4099999999999985
 33
0.2296410161513777
  0
3DFACE
  5
3E4
  8
GUN
 10
-0.179999999999999
 20
1.3399999999999981
 30
0.2296410161513777
 11
-0.219999999999999
 21
1.3399999999999981
 31
0.2296410161513777
 12
-0.2199999999999992
 22
0.4099999999999985
 32
0.2296410161513777
 13
-0.1799999999999992
 23
0.4099999999999985
 33
0.2296410161513777
  0
3DFACE
  5
3E5
  8
GUN
 10
-0.1599999999999989
 20
1.3399999999999981
 30
0.195
 11
-0.179999999999999
 21
1.3399999999999981
 31
0.2296410161513777
 12
-0.1799999999999992
 22
0.4099999999999985
 32
0.2296410161513777
 13
-0.1599999999999993
 23
0.4099999999999985
 33
0.195
  0
3DFACE
  5
3E6
  8
GUN
 10
-0.1849999999999991
 20
1.3399999999999981
 30
0.215980762113533
 11
-0.1699999999999989
 21
1.3399999999999981
 31
0.1899999999999992
 12
-0.1799999999999989
 22
1.7799999999999949
 32
0.1899999999999992
 13
-0.1899999999999989
 23
1.7799999999999949
 33
0.2073205080756872
  0
3DFACE
  5
3E7
  8
GUN
 10
-0.214999999999999
 20
1.3399999999999981
 30
0.215980762113533
 11
-0.1849999999999991
 21
1.3399999999999981
 31
0.215980762113533
 12
-0.1899999999999989
 22
1.7799999999999949
 32
0.2073205080756872
 13
-0.2099999999999989
 23
1.7799999999999949
 33
0.2073205080756872
  0
3DFACE
  5
3E8
  8
GUN
 10
-0.229999999999999
 20
1.3399999999999981
 30
0.1899999999999992
 11
-0.214999999999999
 21
1.3399999999999981
 31
0.215980762113533
 12
-0.2099999999999989
 22
1.7799999999999949
 32
0.2073205080756872
 13
-0.2199999999999989
 23
1.7799999999999949
 33
0.1899999999999992
  0
3DFACE
  5
3E9
  8
GUN
 10
-0.214999999999999
 20
1.3399999999999981
 30
0.1640192378864655
 11
-0.229999999999999
 21
1.3399999999999981
 31
0.1899999999999992
 12
-0.2199999999999989
 22
1.7799999999999949
 32
0.1899999999999992
 13
-0.2099999999999989
 23
1.7799999999999949
 33
0.1726794919243113
  0
3DFACE
  5
3EA
  8
GUN
 10
-0.184999999999999
 20
1.3399999999999981
 30
0.1640192378864655
 11
-0.214999999999999
 21
1.3399999999999981
 31
0.1640192378864655
 12
-0.2099999999999989
 22
1.7799999999999949
 32
0.1726794919243113
 13
-0.1899999999999989
 23
1.7799999999999949
 33
0.1726794919243113
  0
3DFACE
  5
3EB
  8
GUN
 10
-0.1699999999999989
 20
1.3399999999999981
 30
0.1899999999999992
 11
-0.184999999999999
 21
1.3399999999999981
 31
0.1640192378864655
 12
-0.1899999999999989
 22
1.7799999999999949
 32
0.1726794919243113
 13
-0.1799999999999989
 23
1.7799999999999949
 33
0.1899999999999992
  0
3DFACE
  5
3EC
  8
GUN
 10
-0.1899999999999989
 20
1.7799999999999949
 30
0.2073205080756872
 11
-0.1799999999999989
 21
1.7799999999999949
 31
0.1899999999999992
 12
-0.1649999999999989
 22
1.9299999999999939
 32
0.1899999999999992
 13
-0.1824999999999988
 23
1.9299999999999939
 33
0.2203108891324541
  0
3DFACE
  5
3ED
  8
GUN
 10
-0.2099999999999989
 20
1.7799999999999949
 30
0.2073205080756872
 11
-0.1899999999999989
 21
1.7799999999999949
 31
0.2073205080756872
 12
-0.1824999999999988
 22
1.9299999999999939
 32
0.2203108891324541
 13
-0.2174999999999989
 23
1.9299999999999939
 33
0.2203108891324541
  0
3DFACE
  5
3EE
  8
GUN
 10
-0.2199999999999989
 20
1.7799999999999949
 30
0.1899999999999992
 11
-0.2099999999999989
 21
1.7799999999999949
 31
0.2073205080756872
 12
-0.2174999999999989
 22
1.9299999999999939
 32
0.2203108891324541
 13
-0.2349999999999988
 23
1.9299999999999939
 33
0.1899999999999992
  0
3DFACE
  5
3EF
  8
GUN
 10
-0.2099999999999989
 20
1.7799999999999949
 30
0.1726794919243113
 11
-0.2199999999999989
 21
1.7799999999999949
 31
0.1899999999999992
 12
-0.2349999999999988
 22
1.9299999999999939
 32
0.1899999999999992
 13
-0.2174999999999989
 23
1.9299999999999939
 33
0.1596891108675444
  0
3DFACE
  5
3F0
  8
GUN
 10
-0.1899999999999989
 20
1.7799999999999949
 30
0.1726794919243113
 11
-0.2099999999999989
 21
1.7799999999999949
 31
0.1726794919243113
 12
-0.2174999999999989
 22
1.9299999999999939
 32
0.1596891108675444
 13
-0.1824999999999988
 23
1.9299999999999939
 33
0.1596891108675444
  0
3DFACE
  5
3F1
  8
GUN
 10
-0.1799999999999989
 20
1.7799999999999949
 30
0.1899999999999992
 11
-0.1899999999999989
 21
1.7799999999999949
 31
0.1726794919243113
 12
-0.1824999999999988
 22
1.9299999999999939
 32
0.1596891108675444
 13
-0.1649999999999989
 23
1.9299999999999939
 33
0.1899999999999992
  0
3DFACE
  5
3F2
  8
GUN
 10
-0.1599999999999993
 20
0.4099999999999985
 30
0.2299999999999984
 11
-0.1599999999999993
 21
0.4099999999999985
 31
0.1599999999999999
 12
-0.2399999999999992
 22
0.4099999999999985
 32
0.1599999999999999
 13
-0.2399999999999992
 23
0.4099999999999985
 33
0.2299999999999984
  0
3DFACE
  5
3F3
  8
GUN
 10
-0.1599999999999993
 20
0.4099999999999985
 30
0.1599999999999999
 11
-0.1499999999999993
 21
0.319999999999995
 31
0.1399999999999985
 12
-0.2499999999999992
 22
0.319999999999995
 32
0.1399999999999985
 13
-0.2399999999999992
 23
0.4099999999999985
 33
0.1599999999999999
  0
3DFACE
  5
3F4
  8
GUN
 10
-0.1499999999999993
 20
0.319999999999995
 30
0.1399999999999985
 11
-0.1499999999999993
 21
-0.1400000000000058
 31
0.1399999999999985
 12
-0.2499999999999992
 22
-0.1400000000000058
 32
0.1399999999999985
 13
-0.2499999999999992
 23
0.319999999999995
 33
0.1399999999999985
  0
3DFACE
  5
3F5
  8
GUN
 10
-0.2999999999999993
 20
0.2599999999999998
 30
0.2999999999999987
 11
-0.2999999999999993
 21
0.0699999999999951
 31
0.2999999999999987
 12
-0.1299999999999993
 22
0.069999999999995
 32
0.2999999999999987
 13
-0.1299999999999993
 23
0.2599999999999998
 33
0.2999999999999987
  0
3DFACE
  5
3F6
  8
GUN
 10
-0.2999999999999993
 20
0.2599999999999998
 30
0.2399999999999999
 11
-0.2999999999999993
 21
0.0699999999999951
 31
0.2399999999999999
 12
-0.2999999999999993
 22
0.0699999999999951
 32
0.2999999999999987
 13
-0.2999999999999993
 23
0.2599999999999998
 33
0.2999999999999987
  0
3DFACE
  5
3F7
  8
GUN
 10
-0.1299999999999993
 20
0.2599999999999998
 30
0.2999999999999987
 11
-0.1299999999999993
 21
0.2599999999999998
 31
0.2399999999999999
 12
-0.2999999999999993
 22
0.2599999999999998
 32
0.2399999999999999
 13
-0.2999999999999993
 23
0.2599999999999998
 33
0.2999999999999987
  0
3DFACE
  5
3F8
  8
GUN
 10
-0.1299999999999993
 20
0.2599999999999998
 30
0.2399999999999999
 11
-0.1299999999999993
 21
0.069999999999995
 31
0.2399999999999999
 12
-0.2999999999999993
 22
0.0699999999999951
 32
0.2399999999999999
 13
-0.2999999999999993
 23
0.2599999999999998
 33
0.2399999999999999
  0
3DFACE
  5
3F9
  8
GUN
 10
-0.2999999999999993
 20
0.0699999999999951
 30
0.2999999999999987
 11
-0.2999999999999993
 21
0.0699999999999951
 31
0.2399999999999999
 12
-0.1299999999999993
 22
0.069999999999995
 32
0.2399999999999999
 13
-0.1299999999999993
 23
0.069999999999995
 33
0.2999999999999987
  0
3DFACE
  5
3FA
  8
GUN
 10
-0.1299999999999993
 20
0.069999999999995
 30
0.2999999999999987
 11
-0.1299999999999993
 21
0.069999999999995
 31
0.2399999999999999
 12
-0.1299999999999993
 22
0.2599999999999998
 32
0.2399999999999999
 13
-0.1299999999999993
 23
0.2599999999999998
 33
0.2999999999999987
  0
3DFACE
  5
3FB
  8
GUN
 10
-0.2499999999999992
 20
0.319999999999995
 30
0.2399999999999999
 11
-0.2499999999999992
 21
-0.1400000000000058
 31
0.2399999999999999
 12
-0.1499999999999993
 22
-0.1400000000000058
 32
0.2399999999999999
 13
-0.1499999999999993
 23
0.319999999999995
 33
0.2399999999999999
  0
3DFACE
  5
3FC
  8
GUN
 10
0.5600000000000006
 20
-0.0300000000000065
 30
-0.0000000000000003
 11
0.5600000000000006
 21
-0.0150000000000059
 31
0.0259807621135335
 12
-0.5599999999999996
 22
-0.0150000000000058
 32
0.0259807621135335
 13
-0.5599999999999996
 23
-0.0300000000000064
 33
-0.0000000000000003
  0
3DFACE
  5
3FD
  8
GUN
 10
0.5600000000000006
 20
-0.0150000000000059
 30
0.0259807621135335
 11
0.5600000000000006
 21
0.0149999999999953
 31
0.0259807621135335
 12
-0.5599999999999996
 22
0.0149999999999954
 32
0.0259807621135335
 13
-0.5599999999999996
 23
-0.0150000000000058
 33
0.0259807621135335
  0
3DFACE
  5
3FE
  8
GUN
 10
0.5600000000000006
 20
0.0149999999999953
 30
0.0259807621135335
 11
0.5600000000000006
 21
0.0299999999999958
 31
-0.0000000000000003
 12
-0.5599999999999996
 22
0.0299999999999959
 32
-0.0000000000000003
 13
-0.5599999999999996
 23
0.0149999999999954
 33
0.0259807621135335
  0
3DFACE
  5
3FF
  8
GUN
 10
0.5600000000000006
 20
0.0299999999999958
 30
-0.0000000000000003
 11
0.5600000000000006
 21
0.0149999999999953
 31
-0.025980762113534
 12
-0.5599999999999996
 22
0.0149999999999954
 32
-0.025980762113534
 13
-0.5599999999999996
 23
0.0299999999999959
 33
-0.0000000000000003
  0
3DFACE
  5
400
  8
GUN
 10
0.5600000000000006
 20
0.0149999999999953
 30
-0.025980762113534
 11
0.5600000000000006
 21
-0.0150000000000059
 31
-0.025980762113534
 12
-0.5599999999999996
 22
-0.0150000000000058
 32
-0.025980762113534
 13
-0.5599999999999996
 23
0.0149999999999954
 33
-0.025980762113534
  0
3DFACE
  5
401
  8
GUN
 10
0.5600000000000006
 20
-0.0150000000000059
 30
-0.025980762113534
 11
0.5600000000000006
 21
-0.0300000000000065
 31
-0.0000000000000003
 12
-0.5599999999999996
 22
-0.0300000000000064
 32
-0.0000000000000003
 13
-0.5599999999999996
 23
-0.0150000000000058
 33
-0.025980762113534
  0
VIEWPORT
  5
2E
 67
     1
  8
0
 10
144.7270812988281
 20
101.2295806407928
 30
0.0
 40
391.13550988316581
 41
222.15178063964839
 68
     2
 69
     1
1001
ACAD
1000
MVIEW
1002
{
1070
    16
1010
0.0
1020
0.0
1030
0.0
1010
0.0
1020
0.0
1030
1.0
1040
0.0
1040
222.15178063964839
1040
144.7270812988281
1040
101.2295806407928
1040
50.0
1040
0.0
1040
0.0
1070
     0
1070
   100
1070
     1
1070
     1
1070
     0
1070
     0
1070
     0
1070
     0
1040
0.0
1040
0.0
1040
0.0
1040
10.0
1040
10.0
1040
10.0
1040
10.0
1070
     0
1002
{
1002
}
1002
}
  0
VIEWPORT
  5
30
 67
     1
  8
0
 10
139.22375631332389
 20
100.8062499761581
 30
0.0
 40
222.75801010131829
 41
161.289999961853
 68
     1
 69
     2
1001
ACAD
1000
MVIEW
1002
{
1070
    16
1010
0.0
1020
0.0
1030
0.0
1010
0.0
1020
0.0
1030
1.0
1040
0.0
1040
307.49010134148989
1040
210.0
1040
148.5
1040
50.0
1040
0.0
1040
0.0
1070
     0
1070
   100
1070
     1
1070
     3
1070
     0
1070
     1
1070
     0
1070
     0
1040
0.0
1040
0.0
1040
0.0
1040
10.0
1040
10.0
1040
10.0
1040
10.0
1070
     0
1002
{
1002
}
1002
}
  0
ENDSEC
  0
EOF
