  0
SECTION
  2
HEADER
  9
$ACADVER
  1
AC1009
  9
$INSBASE
 10
0.0
 20
0.0
 30
0.0
  9
$EXTMIN
 10
-0.0800000000000005
 20
-0.08
 30
-0.1800000000000005
  9
$EXTMAX
 10
0.1400000000000001
 20
4.6399999999999997
 30
1.0
  9
$LIMMIN
 10
0.0
 20
0.0
  9
$LIMMAX
 10
420.0
 20
297.0
  9
$ORTHOMODE
 70
     1
  9
$REGENMODE
 70
     1
  9
$FILLMODE
 70
     1
  9
$QTEXTMODE
 70
     0
  9
$MIRRTEXT
 70
     1
  9
$DRAGMODE
 70
     2
  9
$LTSCALE
 40
1.0
  9
$OSMODE
 70
    35
  9
$ATTMODE
 70
     1
  9
$TEXTSIZE
 40
2.5
  9
$TRACEWID
 40
1.0
  9
$TEXTSTYLE
  7
STANDARD
  9
$CLAYER
  8
TRAIL2
  9
$CELTYPE
  6
BYLAYER
  9
$CECOLOR
 62
   256
  9
$DIMSCALE
 40
1.0
  9
$DIMASZ
 40
2.5
  9
$DIMEXO
 40
0.625
  9
$DIMDLI
 40
3.75
  9
$DIMRND
 40
0.0
  9
$DIMDLE
 40
0.0
  9
$DIMEXE
 40
1.25
  9
$DIMTP
 40
0.0
  9
$DIMTM
 40
0.0
  9
$DIMTXT
 40
2.5
  9
$DIMCEN
 40
2.5
  9
$DIMTSZ
 40
0.0
  9
$DIMTOL
 70
     0
  9
$DIMLIM
 70
     0
  9
$DIMTIH
 70
     0
  9
$DIMTOH
 70
     0
  9
$DIMSE1
 70
     0
  9
$DIMSE2
 70
     0
  9
$DIMTAD
 70
     1
  9
$DIMZIN
 70
     8
  9
$DIMBLK
  1

  9
$DIMASO
 70
     1
  9
$DIMSHO
 70
     1
  9
$DIMPOST
  1

  9
$DIMAPOST
  1

  9
$DIMALT
 70
     0
  9
$DIMALTD
 70
     3
  9
$DIMALTF
 40
0.03937007874016
  9
$DIMLFAC
 40
1.0
  9
$DIMTOFL
 70
     1
  9
$DIMTVP
 40
0.0
  9
$DIMTIX
 70
     0
  9
$DIMSOXD
 70
     0
  9
$DIMSAH
 70
     0
  9
$DIMBLK1
  1

  9
$DIMBLK2
  1

  9
$DIMSTYLE
  2
ISO-25
  9
$DIMCLRD
 70
     0
  9
$DIMCLRE
 70
     0
  9
$DIMCLRT
 70
     0
  9
$DIMTFAC
 40
1.0
  9
$DIMGAP
 40
0.625
  9
$LUNITS
 70
     2
  9
$LUPREC
 70
     4
  9
$SKETCHINC
 40
1.0
  9
$FILLETRAD
 40
10.0
  9
$AUNITS
 70
     0
  9
$AUPREC
 70
     0
  9
$MENU
  1
.
  9
$ELEVATION
 40
0.0
  9
$PELEVATION
 40
0.0
  9
$THICKNESS
 40
0.0
  9
$LIMCHECK
 70
     0
  9
$BLIPMODE
 70
     0
  9
$CHAMFERA
 40
10.0
  9
$CHAMFERB
 40
10.0
  9
$SKPOLY
 70
     0
  9
$TDCREATE
 40
2457134.0363118048
  9
$TDUPDATE
 40
2457139.030052789
  9
$TDINDWG
 40
0.6090812269
  9
$TDUSRTIMER
 40
0.6090812153
  9
$USRTIMER
 70
     1
  9
$ANGBASE
 50
0.0
  9
$ANGDIR
 70
     0
  9
$PDMODE
 70
     0
  9
$PDSIZE
 40
0.0
  9
$PLINEWID
 40
0.0
  9
$COORDS
 70
     1
  9
$SPLFRAME
 70
     0
  9
$SPLINETYPE
 70
     6
  9
$SPLINESEGS
 70
     8
  9
$ATTDIA
 70
     1
  9
$ATTREQ
 70
     1
  9
$HANDLING
 70
-16383
  9
$HANDSEED
  5
F56
  9
$SURFTAB1
 70
     6
  9
$SURFTAB2
 70
     6
  9
$SURFTYPE
 70
     6
  9
$SURFU
 70
     6
  9
$SURFV
 70
     6
  9
$UCSNAME
  2

  9
$UCSORG
 10
0.0
 20
0.0
 30
0.0
  9
$UCSXDIR
 10
1.0
 20
0.0
 30
0.0
  9
$UCSYDIR
 10
0.0
 20
1.0
 30
0.0
  9
$PUCSNAME
  2

  9
$PUCSORG
 10
0.0
 20
0.0
 30
0.0
  9
$PUCSXDIR
 10
1.0
 20
0.0
 30
0.0
  9
$PUCSYDIR
 10
0.0
 20
1.0
 30
0.0
  9
$USERI1
 70
     0
  9
$USERI2
 70
     0
  9
$USERI3
 70
     0
  9
$USERI4
 70
     0
  9
$USERI5
 70
     0
  9
$USERR1
 40
0.0
  9
$USERR2
 40
0.0
  9
$USERR3
 40
0.0
  9
$USERR4
 40
0.0
  9
$USERR5
 40
0.0
  9
$WORLDVIEW
 70
     1
  9
$SHADEDGE
 70
     3
  9
$SHADEDIF
 70
    70
  9
$TILEMODE
 70
     1
  9
$MAXACTVP
 70
    64
  9
$PLIMCHECK
 70
     0
  9
$PEXTMIN
 10
27.844751262664801
 20
20.161249995231621
 30
0.0
  9
$PEXTMAX
 10
250.60276136398309
 20
181.4512499570846
 30
0.0
  9
$PLIMMIN
 10
-3.757080078125
 20
-3.7570831775665279
  9
$PLIMMAX
 10
293.21124267578119
 20
206.21624445915219
  9
$UNITMODE
 70
     0
  9
$VISRETAIN
 70
     1
  9
$PLINEGEN
 70
     0
  9
$PSLTSCALE
 70
     1
  0
ENDSEC
  0
SECTION
  2
TABLES
  0
TABLE
  2
VPORT
 70
     2
  0
VPORT
  2
*ACTIVE
 70
     0
 10
0.0
 20
0.0
 11
1.0
 21
1.0
 12
2.1759916826053209
 22
-0.0112059393916047
 13
0.0
 23
0.0
 14
0.01
 24
0.01
 15
1.0
 25
1.0
 16
0.0
 26
0.0
 36
1.0
 17
0.0
 27
0.0
 37
0.0
 40
2.8298089529520571
 41
2.2487980769230771
 42
50.0
 43
0.0
 44
0.0
 50
0.0
 51
0.0
 71
     0
 72
   100
 73
     1
 74
     3
 75
     1
 76
     1
 77
     0
 78
     0
  0
ENDTAB
  0
TABLE
  2
LTYPE
 70
     1
  0
LTYPE
  2
CONTINUOUS
 70
     0
  3
Solid line
 72
    65
 73
     0
 40
0.0
  0
ENDTAB
  0
TABLE
  2
LAYER
 70
    10
  0
LAYER
  2
0
 70
     0
 62
     7
  6
CONTINUOUS
  0
LAYER
  2
DRAWING
 70
     0
 62
     9
  6
CONTINUOUS
  0
LAYER
  2
WHEELS
 70
     0
 62
     2
  6
CONTINUOUS
  0
LAYER
  2
TMP
 70
     0
 62
     4
  6
CONTINUOUS
  0
LAYER
  2
TRAIL
 70
     0
 62
     6
  6
CONTINUOUS
  0
LAYER
  2
TRAIL2
 70
     0
 62
     6
  6
CONTINUOUS
  0
LAYER
  2
TURRET
 70
     0
 62
     2
  6
CONTINUOUS
  0
LAYER
  2
SHIELD
 70
     0
 62
     6
  6
CONTINUOUS
  0
LAYER
  2
SLEEVE
 70
     0
 62
     5
  6
CONTINUOUS
  0
LAYER
  2
BARREL
 70
     0
 62
     1
  6
CONTINUOUS
  0
ENDTAB
  0
TABLE
  2
STYLE
 70
     1
  0
STYLE
  2
STANDARD
 70
     0
 40
0.0
 41
1.0
 50
0.0
 71
     0
 42
2.5
  3
txt
  4

  0
ENDTAB
  0
TABLE
  2
VIEW
 70
     0
  0
ENDTAB
  0
TABLE
  2
UCS
 70
     0
  0
ENDTAB
  0
TABLE
  2
APPID
 70
     1
  0
APPID
  2
ACAD
 70
     0
  0
ENDTAB
  0
TABLE
  2
DIMSTYLE
 70
     1
  0
DIMSTYLE
  2
ISO-25
 70
     0
  3

  4

  5

  6

  7

 40
1.0
 41
2.5
 42
0.625
 43
3.75
 44
1.25
 45
0.0
 46
0.0
 47
0.0
 48
0.0
140
2.5
141
2.5
142
0.0
143
0.03937007874016
144
1.0
145
0.0
146
1.0
147
0.625
 71
     0
 72
     0
 73
     0
 74
     0
 75
     0
 76
     0
 77
     1
 78
     8
170
     0
171
     3
172
     1
173
     0
174
     0
175
     0
176
     0
177
     0
178
     0
  0
ENDTAB
  0
ENDSEC
  0
SECTION
  2
BLOCKS
  0
BLOCK
  8
0
  2
$MODEL_SPACE
 70
     0
 10
0.0
 20
0.0
 30
0.0
  3
$MODEL_SPACE
  1

  0
ENDBLK
  5
21
  8
0
  0
BLOCK
 67
     1
  8
0
  2
$PAPER_SPACE
 70
     0
 10
0.0
 20
0.0
 30
0.0
  3
$PAPER_SPACE
  1

  0
ENDBLK
  5
1D
 67
     1
  8
0
  0
ENDSEC
  0
SECTION
  2
ENTITIES
  0
3DFACE
  5
7F8
  8
TRAIL2
 10
-0.0800000000000005
 20
3.6800000000000002
 30
0.0000000000000001
 11
-0.0800000000000005
 21
3.54
 31
-0.1799999999999996
 12
0.0799999999999996
 22
3.54
 32
-0.1799999999999996
 13
0.0799999999999996
 23
3.6800000000000002
 33
0.0000000000000001
  0
3DFACE
  5
7F9
  8
TRAIL2
 10
0.0799999999999996
 20
3.6800000000000002
 30
0.0000000000000001
 11
0.0799999999999996
 21
3.54
 31
-0.1799999999999996
 12
0.0800000000000001
 22
3.4900000000000002
 32
-0.1800000000000005
 13
0.0800000000000001
 23
3.3700000000000001
 33
0.0499999999999999
  0
3DFACE
  5
7FA
  8
TRAIL2
 10
0.0800000000000001
 20
3.3700000000000001
 30
0.0499999999999999
 11
0.0800000000000001
 21
3.4900000000000002
 31
-0.1800000000000005
 12
-0.0800000000000001
 22
3.4900000000000002
 32
-0.1800000000000005
 13
-0.0800000000000001
 23
3.3700000000000001
 33
0.0499999999999999
  0
3DFACE
  5
7FB
  8
TRAIL2
 10
-0.0800000000000001
 20
3.4900000000000002
 30
-0.1800000000000005
 11
-0.0800000000000005
 21
3.54
 31
-0.1799999999999996
 12
-0.0800000000000005
 22
3.6800000000000002
 32
0.0000000000000001
 13
-0.0800000000000001
 23
3.3700000000000001
 33
0.0499999999999999
  0
3DFACE
  5
7FC
  8
TRAIL2
 10
0.0800000000000001
 20
3.4900000000000002
 30
-0.1800000000000005
 11
0.0799999999999996
 21
3.54
 31
-0.1799999999999996
 12
-0.0800000000000005
 22
3.54
 32
-0.1799999999999996
 13
-0.0800000000000001
 23
3.4900000000000002
 33
-0.1800000000000005
  0
3DFACE
  5
7FD
  8
TRAIL2
 10
-0.0800000000000001
 20
0.1400000000000004
 30
0.9699999999999998
 11
-0.0800000000000001
 21
0.1400000000000004
 31
0.67
 12
-0.0800000000000001
 22
3.3700000000000001
 32
0.0500000000000001
 13
-0.0800000000000001
 23
3.3700000000000001
 33
0.23
  0
3DFACE
  5
7FE
  8
TRAIL2
 10
0.0800000000000001
 20
3.3700000000000001
 30
0.23
 11
0.0800000000000001
 21
0.1400000000000004
 31
0.9699999999999998
 12
-0.0800000000000001
 22
0.1400000000000004
 32
0.9699999999999998
 13
-0.0800000000000001
 23
3.3700000000000001
 33
0.23
  0
3DFACE
  5
7FF
  8
TRAIL2
 10
0.0800000000000001
 20
3.3700000000000001
 30
0.0500000000000001
 11
0.0800000000000001
 21
0.1400000000000004
 31
0.67
 12
0.0800000000000001
 22
0.1400000000000004
 32
0.9699999999999998
 13
0.0800000000000001
 23
3.3700000000000001
 33
0.23
  0
3DFACE
  5
800
  8
TRAIL2
 10
-0.0799999999999996
 20
-0.0000000000000002
 30
0.6
 11
-0.0800000000000001
 21
0.1399999999999996
 31
0.7000000000000001
 12
0.0800000000000001
 22
0.1399999999999996
 32
0.7000000000000001
 13
0.0800000000000003
 23
-0.0000000000000002
 33
0.6
  0
3DFACE
  5
801
  8
TRAIL2
 10
0.0800000000000001
 20
0.1399999999999996
 30
0.7000000000000001
 11
0.0800000000000001
 21
0.1399999999999996
 31
0.6700000000000002
 12
0.0800000000000003
 22
-0.0000000000000002
 32
0.57
 13
0.0800000000000003
 23
-0.0000000000000002
 33
0.6
  0
3DFACE
  5
802
  8
TRAIL2
 10
-0.0799999999999996
 20
-0.0000000000000002
 30
0.57
 11
-0.0800000000000001
 21
0.1399999999999996
 31
0.6700000000000002
 12
-0.0800000000000001
 22
0.1399999999999996
 32
0.7000000000000001
 13
-0.0799999999999996
 23
-0.0000000000000002
 33
0.6
  0
3DFACE
  5
803
  8
TRAIL2
 10
-0.0800000000000001
 20
3.3700000000000001
 30
0.0500000000000001
 11
-0.0800000000000001
 21
0.1400000000000004
 31
0.67
 12
0.0800000000000001
 22
0.1400000000000004
 32
0.67
 13
0.0800000000000001
 23
3.3700000000000001
 33
0.0500000000000001
  0
3DFACE
  5
804
  8
TRAIL2
 10
-0.02
 20
4.3799999999999999
 30
0.52
 11
0.0
 21
4.3658578643762702
 31
0.5341421356237314
 12
0.0
 22
4.0300000000000002
 32
0.25
 13
-0.02
 23
4.0499999999999998
 33
0.2299999999999999
  0
3DFACE
  5
805
  8
TRAIL2
 10
0.0
 20
4.3658578643762702
 30
0.5341421356237314
 11
0.02
 21
4.3799999999999999
 31
0.52
 12
0.02
 22
4.0499999999999998
 32
0.2299999999999999
 13
0.0
 23
4.0300000000000002
 33
0.25
  0
3DFACE
  5
806
  8
TRAIL2
 10
0.02
 20
4.3799999999999999
 30
0.52
 11
0.0
 21
4.3941421356237313
 31
0.5058578643762695
 12
0.0
 22
4.0700000000000003
 32
0.2099999999999999
 13
0.02
 23
4.0499999999999998
 33
0.2299999999999999
  0
3DFACE
  5
807
  8
TRAIL2
 10
0.0
 20
4.3941421356237313
 30
0.5058578643762695
 11
-0.02
 21
4.3799999999999999
 31
0.52
 12
-0.02
 22
4.0499999999999998
 32
0.2299999999999999
 13
0.0
 23
4.0700000000000003
 33
0.2099999999999999
  0
3DFACE
  5
808
  8
TRAIL2
 10
-0.0800000000000001
 20
3.6800000000000002
 30
0.0000000000000001
 11
-0.0800000000000005
 21
4.1200000000000001
 31
0.1099999999999995
 12
-0.0800000000000005
 22
4.1200000000000001
 32
0.1600000000000003
 13
-0.0800000000000001
 23
4.089999999999999
 33
0.1600000000000003
  0
3DFACE
  5
809
  8
TRAIL2
 10
0.0799999999999996
 20
4.1200000000000001
 30
0.1600000000000003
 11
0.0799999999999996
 21
4.1200000000000001
 31
0.1099999999999995
 12
0.0800000000000001
 22
3.6800000000000002
 32
0.0000000000000001
 13
0.0800000000000001
 23
4.089999999999999
 33
0.1600000000000003
  0
3DFACE
  5
80A
  8
TRAIL2
 10
0.0800000000000001
 20
3.6800000000000002
 30
0.0000000000000001
 11
0.0799999999999996
 21
4.1200000000000001
 31
0.1099999999999995
 12
-0.0800000000000005
 22
4.1200000000000001
 32
0.1099999999999995
 13
-0.0800000000000001
 23
3.6800000000000002
 33
0.0000000000000001
  0
3DFACE
  5
80B
  8
TRAIL2
 10
0.0799999999999996
 20
4.089999999999999
 30
0.1600000000000003
 11
0.0799999999999996
 21
3.6800000000000002
 31
0.0000000000000001
 12
0.0800000000000001
 22
3.3700000000000001
 32
0.0499999999999999
 13
0.0800000000000001
 23
3.3700000000000001
 33
0.2299999999999996
  0
3DFACE
  5
80C
  8
TRAIL2
 10
-0.0800000000000001
 20
3.3700000000000001
 30
0.0499999999999999
 11
-0.0800000000000005
 21
3.6800000000000002
 31
0.0000000000000001
 12
-0.0800000000000005
 22
4.089999999999999
 32
0.1600000000000003
 13
-0.0800000000000001
 23
3.3700000000000001
 33
0.2299999999999996
  0
3DFACE
  5
80D
  8
TRAIL2
 10
-0.0800000000000005
 20
4.1200000000000001
 30
0.1600000000000003
 11
-0.0800000000000005
 21
4.1200000000000001
 31
0.1099999999999995
 12
0.0799999999999996
 22
4.1200000000000001
 32
0.1099999999999995
 13
0.0799999999999996
 23
4.1200000000000001
 33
0.1600000000000003
  0
3DFACE
  5
80E
  8
TRAIL2
 10
-0.0800000000000001
 20
4.089999999999999
 30
0.1600000000000003
 11
-0.0800000000000005
 21
4.1200000000000001
 31
0.1600000000000003
 12
0.0799999999999996
 22
4.1200000000000001
 32
0.1600000000000003
 13
0.0800000000000001
 23
4.089999999999999
 33
0.1600000000000003
  0
3DFACE
  5
80F
  8
TRAIL2
 10
-0.0800000000000001
 20
3.3700000000000001
 30
0.2299999999999996
 11
-0.0800000000000005
 21
4.089999999999999
 31
0.1600000000000003
 12
0.0799999999999996
 22
4.089999999999999
 32
0.1600000000000003
 13
0.0800000000000001
 23
3.3700000000000001
 33
0.2299999999999996
  0
3DFACE
  5
810
  8
TRAIL2
 10
0.0800000000000001
 20
3.890038053019083
 30
0.1508715574274766
 11
0.0800000000000001
 21
3.900871557427477
 31
0.1599619469809175
 12
0.1299999999999999
 22
3.900871557427477
 32
0.1599619469809175
 13
0.1200000000000001
 23
3.890038053019083
 33
0.1508715574274766
  0
3DFACE
  5
811
  8
TRAIL2
 10
0.0800000000000001
 20
3.900871557427477
 30
0.1599619469809175
 11
0.0800000000000001
 21
3.9099619469809168
 31
0.1491284425725234
 12
0.1400000000000001
 22
3.9099619469809168
 32
0.1491284425725234
 13
0.1299999999999999
 23
3.900871557427477
 33
0.1599619469809175
  0
3DFACE
  5
812
  8
TRAIL2
 10
0.0800000000000001
 20
3.9099619469809168
 30
0.1491284425725234
 11
0.0800000000000001
 21
3.8991284425725228
 31
0.1400380530190825
 12
0.1299999999999999
 22
3.8991284425725228
 32
0.1400380530190825
 13
0.1400000000000001
 23
3.9099619469809168
 33
0.1491284425725234
  0
3DFACE
  5
813
  8
TRAIL2
 10
0.0800000000000001
 20
3.8991284425725228
 30
0.1400380530190825
 11
0.0800000000000001
 21
3.890038053019083
 31
0.1508715574274766
 12
0.1200000000000001
 22
3.890038053019083
 32
0.1508715574274766
 13
0.1299999999999999
 23
3.8991284425725228
 33
0.1400380530190825
  0
3DFACE
  5
814
  8
TRAIL2
 10
0.1200000000000003
 20
3.890038053019083
 30
0.1508715574274766
 11
0.1300000000000001
 21
3.900871557427477
 31
0.1599619469809175
 12
0.1300000000000001
 22
3.5820892540381171
 32
0.1878517846601681
 13
0.1200000000000003
 23
3.5911796435915591
 33
0.177018280251774
  0
3DFACE
  5
815
  8
TRAIL2
 10
0.1300000000000001
 20
3.900871557427477
 30
0.1599619469809175
 11
0.1399999999999999
 21
3.9099619469809168
 31
0.1491284425725234
 12
0.1399999999999999
 22
3.571255749629723
 32
0.1787613951067272
 13
0.1300000000000001
 23
3.5820892540381171
 33
0.1878517846601681
  0
3DFACE
  5
816
  8
TRAIL2
 10
0.1399999999999999
 20
3.9099619469809168
 30
0.1491284425725234
 11
0.1300000000000001
 21
3.8991284425725228
 31
0.1400380530190825
 12
0.1300000000000001
 22
3.580346139183165
 32
0.1679278906983331
 13
0.1399999999999999
 23
3.571255749629723
 33
0.1787613951067272
  0
3DFACE
  5
817
  8
TRAIL2
 10
0.1300000000000001
 20
3.8991284425725228
 30
0.1400380530190825
 11
0.1200000000000003
 21
3.890038053019083
 31
0.1508715574274766
 12
0.1200000000000003
 22
3.5911796435915591
 32
0.177018280251774
 13
0.1300000000000001
 23
3.580346139183165
 33
0.1679278906983331
  0
3DFACE
  5
818
  8
TRAIL2
 10
0.0800000000000001
 20
3.571255749629723
 30
0.1787613951067272
 11
0.0800000000000001
 21
3.5820892540381171
 31
0.1878517846601681
 12
0.1299999999999999
 22
3.5820892540381171
 32
0.1878517846601681
 13
0.1400000000000001
 23
3.571255749629723
 33
0.1787613951067272
  0
3DFACE
  5
819
  8
TRAIL2
 10
0.0800000000000001
 20
3.5820892540381171
 30
0.1878517846601681
 11
0.0800000000000001
 21
3.5911796435915582
 31
0.177018280251774
 12
0.1200000000000001
 22
3.5911796435915582
 32
0.177018280251774
 13
0.1299999999999999
 23
3.5820892540381171
 33
0.1878517846601681
  0
3DFACE
  5
81A
  8
TRAIL2
 10
0.0800000000000001
 20
3.5911796435915582
 30
0.177018280251774
 11
0.0800000000000001
 21
3.580346139183165
 31
0.1679278906983331
 12
0.1299999999999999
 22
3.580346139183165
 32
0.1679278906983331
 13
0.1200000000000001
 23
3.5911796435915582
 33
0.177018280251774
  0
3DFACE
  5
81B
  8
TRAIL2
 10
0.0800000000000001
 20
3.580346139183165
 30
0.1679278906983331
 11
0.0800000000000001
 21
3.571255749629723
 31
0.1787613951067272
 12
0.1400000000000001
 22
3.571255749629723
 32
0.1787613951067272
 13
0.1299999999999999
 23
3.580346139183165
 33
0.1679278906983331
  0
3DFACE
  5
81C
  8
TRAIL2
 10
-0.02
 20
3.6499999999999999
 30
0.2
 11
0.0
 21
3.669999999999999
 31
0.2
 12
0.0
 22
3.669999999999999
 32
0.21
 13
-0.02
 23
3.649999999999999
 33
0.23
  0
3DFACE
  5
81D
  8
TRAIL2
 10
0.0
 20
3.669999999999999
 30
0.2
 11
0.02
 21
3.6499999999999999
 31
0.2
 12
0.02
 22
3.649999999999999
 32
0.23
 13
0.0
 23
3.669999999999999
 33
0.21
  0
3DFACE
  5
81E
  8
TRAIL2
 10
0.02
 20
3.6499999999999999
 30
0.2
 11
0.0
 21
3.629999999999999
 31
0.2
 12
0.0
 22
3.629999999999999
 32
0.25
 13
0.02
 23
3.649999999999999
 33
0.23
  0
3DFACE
  5
81F
  8
TRAIL2
 10
0.0
 20
3.629999999999999
 30
0.2
 11
-0.02
 21
3.6499999999999999
 31
0.2
 12
-0.02
 22
3.649999999999999
 32
0.23
 13
0.0
 23
3.629999999999999
 33
0.25
  0
3DFACE
  5
820
  8
TRAIL2
 10
-0.02
 20
4.0499999999999998
 30
0.2299999999999999
 11
0.0
 21
4.0300000000000002
 31
0.25
 12
0.0
 22
3.6299999999999999
 32
0.25
 13
-0.02
 23
3.6499999999999999
 33
0.2299999999999999
  0
3DFACE
  5
821
  8
TRAIL2
 10
0.0
 20
4.0300000000000002
 30
0.25
 11
0.02
 21
4.0499999999999998
 31
0.2299999999999999
 12
0.02
 22
3.6499999999999999
 32
0.2299999999999999
 13
0.0
 23
3.6299999999999999
 33
0.25
  0
3DFACE
  5
822
  8
TRAIL2
 10
0.02
 20
4.0499999999999998
 30
0.2299999999999999
 11
0.0
 21
4.0700000000000003
 31
0.2099999999999999
 12
0.0
 22
3.6699999999999999
 32
0.2099999999999999
 13
0.02
 23
3.6499999999999999
 33
0.2299999999999999
  0
3DFACE
  5
823
  8
TRAIL2
 10
0.0
 20
4.0700000000000003
 30
0.2099999999999999
 11
-0.02
 21
4.0499999999999998
 31
0.2299999999999999
 12
-0.02
 22
3.6499999999999999
 32
0.2299999999999999
 13
0.0
 23
3.6699999999999999
 33
0.2099999999999999
  0
3DFACE
  5
824
  8
TRAIL2
 10
-0.0565685424949238
 20
-0.0565685424949238
 30
0.57
 11
-0.0800000000000001
 21
0.0
 31
0.57
 12
-0.0800000000000001
 22
0.0
 32
0.6
 13
-0.0565685424949238
 23
-0.0565685424949238
 33
0.6
  0
3DFACE
  5
825
  8
TRAIL2
 10
0.0
 20
-0.08
 30
0.57
 11
-0.0565685424949238
 21
-0.0565685424949238
 31
0.57
 12
-0.0565685424949238
 22
-0.0565685424949238
 32
0.6
 13
0.0
 23
-0.08
 33
0.6
  0
3DFACE
  5
826
  8
TRAIL2
 10
0.0565685424949238
 20
-0.0565685424949238
 30
0.57
 11
0.0
 21
-0.08
 31
0.57
 12
0.0
 22
-0.08
 32
0.6
 13
0.0565685424949238
 23
-0.0565685424949238
 33
0.6
  0
3DFACE
  5
827
  8
TRAIL2
 10
0.0800000000000001
 20
0.0
 30
0.57
 11
0.0565685424949238
 21
-0.0565685424949238
 31
0.57
 12
0.0565685424949238
 22
-0.0565685424949238
 32
0.6
 13
0.0800000000000001
 23
0.0
 33
0.6
  0
3DFACE
  5
828
  8
TRAIL2
 10
0.0800000000000003
 20
-0.0000000000000002
 30
0.57
 11
0.0800000000000001
 21
0.1399999999999996
 31
0.6700000000000002
 12
-0.0800000000000001
 22
0.1399999999999996
 32
0.6700000000000002
 13
-0.0799999999999996
 23
-0.0000000000000002
 33
0.57
  0
3DFACE
  5
829
  8
TRAIL2
 10
0.0
 20
-0.08
 30
0.57
 11
0.0565685424949238
 21
-0.0565685424949238
 31
0.57
 12
-0.0565685424949238
 22
-0.0565685424949238
 32
0.57
 13
0.0
 23
-0.08
 33
0.57
  0
3DFACE
  5
82A
  8
TRAIL2
 10
0.0565685424949238
 20
-0.0565685424949238
 30
0.57
 11
0.0800000000000005
 21
-0.0000000000000002
 31
0.57
 12
-0.0799999999999996
 22
-0.0000000000000002
 32
0.57
 13
-0.0565685424949238
 23
-0.0565685424949238
 33
0.57
  0
3DFACE
  5
82B
  8
TRAIL2
 10
0.0
 20
-0.08
 30
0.6
 11
-0.0565685424949241
 21
-0.0565685424949238
 31
0.5999999999999998
 12
0.0565685424949238
 22
-0.0565685424949238
 32
0.6
 13
0.0
 23
-0.08
 33
0.6
  0
3DFACE
  5
82C
  8
TRAIL2
 10
-0.0565685424949238
 20
-0.0565685424949238
 30
0.6
 11
-0.0800000000000001
 21
-0.0000000000000002
 31
0.5999999999999998
 12
0.0800000000000001
 22
-0.0000000000000002
 32
0.5999999999999998
 13
0.0565685424949238
 23
-0.0565685424949238
 33
0.6
  0
3DFACE
  5
82D
  8
TRAIL2
 10
-0.02
 20
4.6399999999999997
 30
0.55
 11
0.0
 21
4.6399999999999997
 31
0.5700000000000001
 12
0.0
 22
4.3658578643762702
 32
0.5341421356237314
 13
-0.02
 23
4.3799999999999999
 33
0.52
  0
3DFACE
  5
82E
  8
TRAIL2
 10
0.0
 20
4.6399999999999997
 30
0.5700000000000001
 11
0.02
 21
4.6399999999999997
 31
0.55
 12
0.02
 22
4.3799999999999999
 32
0.52
 13
0.0
 23
4.3658578643762702
 33
0.5341421356237314
  0
3DFACE
  5
82F
  8
TRAIL2
 10
0.02
 20
4.6399999999999997
 30
0.55
 11
0.0
 21
4.6399999999999997
 31
0.5300000000000001
 12
0.0
 22
4.3941421356237313
 32
0.5058578643762695
 13
0.02
 23
4.3799999999999999
 33
0.52
  0
3DFACE
  5
830
  8
TRAIL2
 10
0.0
 20
4.6399999999999997
 30
0.5300000000000001
 11
-0.02
 21
4.6399999999999997
 31
0.55
 12
-0.02
 22
4.3799999999999999
 32
0.52
 13
0.0
 23
4.3941421356237313
 33
0.5058578643762695
  0
3DFACE
  5
831
  8
TRAIL2
 10
-0.02
 20
4.6399999999999997
 30
0.55
 11
0.0
 21
4.6399999999999997
 31
0.5300000000000001
 12
0.02
 22
4.6399999999999997
 32
0.55
 13
0.0
 23
4.6399999999999997
 33
0.5700000000000001
  0
3DFACE
  5
832
  8
TRAIL2
 10
0.0
 20
-0.08
 30
0.71
 11
-0.0565685424949238
 21
-0.0565685424949238
 31
0.71
 12
-0.0565685424949238
 22
-0.0565685424949238
 32
0.8599999999999999
 13
0.0
 23
-0.08
 33
0.8599999999999999
  0
3DFACE
  5
833
  8
TRAIL2
 10
-0.0565685424949238
 20
-0.0565685424949238
 30
0.71
 11
-0.0800000000000001
 21
0.0
 31
0.71
 12
-0.0800000000000001
 22
0.0
 32
0.8599999999999999
 13
-0.0565685424949238
 23
-0.0565685424949238
 33
0.8599999999999999
  0
3DFACE
  5
834
  8
TRAIL2
 10
0.0800000000000001
 20
0.0
 30
0.71
 11
0.0565685424949238
 21
-0.0565685424949238
 31
0.71
 12
0.0565685424949238
 22
-0.0565685424949238
 32
0.8599999999999999
 13
0.0800000000000001
 23
0.0
 33
0.8599999999999999
  0
3DFACE
  5
835
  8
TRAIL2
 10
0.0565685424949238
 20
-0.0565685424949238
 30
0.71
 11
0.0
 21
-0.08
 31
0.71
 12
0.0
 22
-0.08
 32
0.8599999999999999
 13
0.0565685424949238
 23
-0.0565685424949238
 33
0.8599999999999999
  0
3DFACE
  5
836
  8
TRAIL2
 10
0.0800000000000001
 20
0.1399999999999996
 30
0.8599999999999999
 11
0.0800000000000001
 21
0.1399999999999996
 31
0.71
 12
0.0800000000000003
 22
-0.0000000000000002
 32
0.71
 13
0.0800000000000003
 23
-0.0000000000000002
 33
0.8599999999999999
  0
3DFACE
  5
837
  8
TRAIL2
 10
-0.0799999999999996
 20
-0.0000000000000002
 30
0.71
 11
-0.0800000000000001
 21
0.1399999999999996
 31
0.71
 12
-0.0800000000000001
 22
0.1399999999999996
 32
0.8599999999999999
 13
-0.0799999999999996
 23
-0.0000000000000002
 33
0.8599999999999999
  0
3DFACE
  5
838
  8
TRAIL2
 10
0.0800000000000003
 20
-0.0000000000000002
 30
0.71
 11
0.0800000000000001
 21
0.1399999999999996
 31
0.71
 12
-0.0800000000000001
 22
0.1399999999999996
 32
0.71
 13
-0.0799999999999996
 23
-0.0000000000000002
 33
0.71
  0
3DFACE
  5
839
  8
TRAIL2
 10
0.0565685424949238
 20
-0.0565685424949238
 30
0.71
 11
0.0800000000000005
 21
-0.0000000000000002
 31
0.71
 12
-0.0799999999999996
 22
-0.0000000000000002
 32
0.71
 13
-0.0565685424949238
 23
-0.0565685424949238
 33
0.71
  0
3DFACE
  5
83A
  8
TRAIL2
 10
0.0
 20
-0.08
 30
0.71
 11
0.0565685424949238
 21
-0.0565685424949238
 31
0.71
 12
-0.0565685424949238
 22
-0.0565685424949238
 32
0.71
 13
0.0
 23
-0.08
 33
0.71
  0
3DFACE
  5
83B
  8
TRAIL2
 10
0.0800000000000001
 20
0.1399999999999996
 30
0.71
 11
0.0800000000000001
 21
0.1400000000000004
 31
0.7000000000000007
 12
-0.0800000000000001
 22
0.1399999999999996
 32
0.7000000000000001
 13
-0.0800000000000001
 23
0.1400000000000004
 33
0.7099999999999999
  0
3DFACE
  5
83C
  8
TRAIL2
 10
-0.0799999999999996
 20
-0.0000000000000002
 30
1.0
 11
-0.0800000000000001
 21
0.1399999999999996
 31
0.9699999999999998
 12
0.0800000000000001
 22
0.1399999999999996
 32
0.9699999999999998
 13
0.0800000000000003
 23
-0.0000000000000002
 33
1.0
  0
3DFACE
  5
83D
  8
TRAIL2
 10
0.0800000000000001
 20
0.1399999999999996
 30
0.9699999999999998
 11
0.0800000000000001
 21
0.1399999999999996
 31
0.94
 12
0.0800000000000003
 22
-0.0000000000000002
 32
0.9699999999999999
 13
0.0800000000000003
 23
-0.0000000000000002
 33
1.0
  0
3DFACE
  5
83E
  8
TRAIL2
 10
0.0800000000000003
 20
-0.0000000000000002
 30
0.9699999999999999
 11
0.0800000000000001
 21
0.1399999999999996
 31
0.94
 12
-0.0800000000000001
 22
0.1399999999999996
 32
0.94
 13
-0.0799999999999996
 23
-0.0000000000000002
 33
0.9699999999999999
  0
3DFACE
  5
83F
  8
TRAIL2
 10
-0.0799999999999996
 20
-0.0000000000000002
 30
0.9699999999999999
 11
-0.0800000000000001
 21
0.1399999999999996
 31
0.94
 12
-0.0800000000000001
 22
0.1399999999999996
 32
0.9699999999999998
 13
-0.0799999999999996
 23
-0.0000000000000002
 33
1.0
  0
3DFACE
  5
840
  8
TRAIL2
 10
0.0800000000000001
 20
0.0
 30
0.9699999999999999
 11
0.0565685424949238
 21
-0.0565685424949238
 31
0.9699999999999999
 12
0.0565685424949238
 22
-0.0565685424949238
 32
1.0
 13
0.0800000000000001
 23
0.0
 33
1.0
  0
3DFACE
  5
841
  8
TRAIL2
 10
0.0565685424949238
 20
-0.0565685424949238
 30
0.9699999999999999
 11
0.0
 21
-0.08
 31
0.9699999999999999
 12
0.0
 22
-0.08
 32
1.0
 13
0.0565685424949238
 23
-0.0565685424949238
 33
1.0
  0
3DFACE
  5
842
  8
TRAIL2
 10
0.0
 20
-0.08
 30
0.9699999999999999
 11
-0.0565685424949238
 21
-0.0565685424949238
 31
0.9699999999999999
 12
-0.0565685424949238
 22
-0.0565685424949238
 32
1.0
 13
0.0
 23
-0.08
 33
1.0
  0
3DFACE
  5
843
  8
TRAIL2
 10
-0.0565685424949238
 20
-0.0565685424949238
 30
0.9699999999999999
 11
-0.0800000000000001
 21
0.0
 31
0.9699999999999999
 12
-0.0800000000000001
 22
0.0
 32
1.0
 13
-0.0565685424949238
 23
-0.0565685424949238
 33
1.0
  0
3DFACE
  5
844
  8
TRAIL2
 10
-0.0799999999999996
 20
-0.0000000000000002
 30
0.8599999999999999
 11
-0.0800000000000001
 21
0.1399999999999996
 31
0.8599999999999999
 12
0.0800000000000001
 22
0.1399999999999996
 32
0.8599999999999999
 13
0.0800000000000003
 23
-0.0000000000000002
 33
0.8599999999999999
  0
3DFACE
  5
845
  8
TRAIL2
 10
-0.0565685424949238
 20
-0.0565685424949238
 30
1.0
 11
-0.0800000000000001
 21
-0.0000000000000002
 31
0.9999999999999998
 12
0.0800000000000001
 22
-0.0000000000000002
 32
0.9999999999999998
 13
0.0565685424949238
 23
-0.0565685424949238
 33
1.0
  0
3DFACE
  5
846
  8
TRAIL2
 10
0.0
 20
-0.08
 30
1.0
 11
-0.0565685424949241
 21
-0.0565685424949238
 31
0.9999999999999998
 12
0.0565685424949238
 22
-0.0565685424949238
 32
1.0
 13
0.0
 23
-0.08
 33
1.0
  0
3DFACE
  5
847
  8
TRAIL2
 10
0.0565685424949238
 20
-0.0565685424949238
 30
0.9699999999999999
 11
0.0800000000000005
 21
-0.0000000000000002
 31
0.9699999999999999
 12
-0.0799999999999996
 22
-0.0000000000000002
 32
0.9699999999999999
 13
-0.0565685424949238
 23
-0.0565685424949238
 33
0.9699999999999999
  0
3DFACE
  5
848
  8
TRAIL2
 10
0.0
 20
-0.08
 30
0.9699999999999999
 11
0.0565685424949238
 21
-0.0565685424949238
 31
0.9699999999999999
 12
-0.0565685424949238
 22
-0.0565685424949238
 32
0.9699999999999999
 13
0.0
 23
-0.08
 33
0.9699999999999999
  0
3DFACE
  5
849
  8
TRAIL2
 10
-0.0565685424949238
 20
-0.0565685424949238
 30
0.8599999999999999
 11
-0.0800000000000001
 21
-0.0000000000000002
 31
0.8599999999999997
 12
0.0800000000000001
 22
-0.0000000000000002
 32
0.8599999999999997
 13
0.0565685424949238
 23
-0.0565685424949238
 33
0.8599999999999999
  0
3DFACE
  5
84A
  8
TRAIL2
 10
0.0
 20
-0.08
 30
0.8599999999999999
 11
-0.0565685424949241
 21
-0.0565685424949238
 31
0.8599999999999997
 12
0.0565685424949238
 22
-0.0565685424949238
 32
0.8599999999999999
 13
0.0
 23
-0.08
 33
0.8599999999999999
  0
3DFACE
  5
84B
  8
TRAIL2
 10
0.0800000000000001
 20
0.1399999999999996
 30
0.94
 11
0.0800000000000001
 21
0.1399999999999996
 31
0.8599999999999999
 12
-0.0800000000000001
 22
0.1399999999999996
 32
0.8599999999999999
 13
-0.0800000000000001
 23
0.1400000000000004
 33
0.9399999999999998
  0
VIEWPORT
  5
2E
 67
     1
  8
0
 10
144.7270812988281
 20
101.2295806407928
 30
0.0
 40
391.13550988316581
 41
222.15178063964839
 68
     2
 69
     1
1001
ACAD
1000
MVIEW
1002
{
1070
    16
1010
0.0
1020
0.0
1030
0.0
1010
0.0
1020
0.0
1030
1.0
1040
0.0
1040
222.15178063964839
1040
144.7270812988281
1040
101.2295806407928
1040
50.0
1040
0.0
1040
0.0
1070
     0
1070
   100
1070
     1
1070
     1
1070
     0
1070
     0
1070
     0
1070
     0
1040
0.0
1040
0.0
1040
0.0
1040
10.0
1040
10.0
1040
10.0
1040
10.0
1070
     0
1002
{
1002
}
1002
}
  0
VIEWPORT
  5
30
 67
     1
  8
0
 10
139.22375631332389
 20
100.8062499761581
 30
0.0
 40
222.75801010131829
 41
161.289999961853
 68
     1
 69
     2
1001
ACAD
1000
MVIEW
1002
{
1070
    16
1010
0.0
1020
0.0
1030
0.0
1010
0.0
1020
0.0
1030
1.0
1040
0.0
1040
307.49010134148989
1040
210.0
1040
148.5
1040
50.0
1040
0.0
1040
0.0
1070
     0
1070
   100
1070
     1
1070
     3
1070
     0
1070
     1
1070
     0
1070
     0
1040
0.0
1040
0.0
1040
0.0
1040
10.0
1040
10.0
1040
10.0
1040
10.0
1070
     0
1002
{
1002
}
1002
}
  0
ENDSEC
  0
EOF
