mtllib faust_head.mtl
g g0
v -0.06082 -4.66955 1.02118
v -0.06082 -5.64398 0.452762
v -0.829319 -4.66955 0.615154
v -0.34212 -5.64398 0.29037
v -0.06082 -4.66955 -0.765226
v -0.829319 -4.66955 -0.359246
v -0.34212 -5.64398 -0.034438
v -0.06082 -5.64398 -0.19683
v 0.70766 -4.66955 0.615154
v 0.22046 -5.64398 0.29037
v 0.22046 -5.64398 -0.034438
v 0.70766 -4.66955 -0.359246
v -0.06082 -3.69515 0.452762
v -0.34212 -3.69515 0.29037
v -0.06082 -3.69515 -0.19683
v -0.34212 -3.69515 -0.034438
v 0.22046 -3.69515 0.29037
v 0.22046 -3.69515 -0.034438
vn 0 -1 0
vn 0 -1 0
vn 0 -1 0
vn 0 -1 0
vn 0 -1 0
vn 0 -1 0
vn 0 -1 0
vn 0 -1 0
vn 0 -1 0
vn 0 -1 0
vn 0 -1 0
vn 0 -1 0
vn -0.429728 -0.459092 0.77754
vn -0.429728 -0.459092 0.77754
vn -0.446248 -0.450921 0.773003
vn -0.429728 -0.459092 0.77754
vn -0.413054 -0.467098 0.781796
vn -0.429728 -0.459092 0.77754
vn -0.894433 -0.447202 0
vn -0.894433 -0.447202 0
vn -0.894433 -0.447202 0
vn -0.894433 -0.447202 0
vn -0.894433 -0.447202 0
vn -0.894433 -0.447202 0
vn -0.413014 -0.467103 -0.781814
vn -0.429711 -0.459087 -0.777552
vn -0.429711 -0.459087 -0.777552
vn -0.429711 -0.459087 -0.777552
vn -0.446252 -0.450905 -0.77301
vn -0.429711 -0.459087 -0.777552
vn 0.413062 -0.467101 0.781791
vn 0.429745 -0.45909 0.777532
vn 0.429745 -0.45909 0.777532
vn 0.429745 -0.45909 0.777532
vn 0.429745 -0.45909 0.777532
vn 0.446273 -0.450915 0.772992
vn 0.894433 -0.447203 0
vn 0.894433 -0.447203 0
vn 0.894433 -0.447203 0
vn 0.894433 -0.447203 0
vn 0.894433 -0.447203 0
vn 0.894433 -0.447203 0
vn 0.446277 -0.450899 -0.772999
vn 0.429727 -0.459085 -0.777544
vn 0.429727 -0.459085 -0.777544
vn 0.429727 -0.459085 -0.777544
vn 0.413022 -0.467106 -0.781809
vn 0.429727 -0.459085 -0.777544
vn -0.429726 0.459103 0.777535
vn -0.413052 0.467109 0.781791
vn -0.429726 0.459103 0.777535
vn -0.446245 0.450932 0.772998
vn -0.429726 0.459103 0.777535
vn -0.429726 0.459103 0.777535
vn -0.894428 0.447213 0
vn -0.894428 0.447213 0
vn -0.894428 0.447213 0
vn -0.894428 0.447213 0
vn -0.894428 0.447213 0
vn -0.894428 0.447213 0
vn -0.429708 0.459098 -0.777548
vn -0.446249 0.450916 -0.773005
vn -0.429708 0.459098 -0.777548
vn -0.429708 0.459098 -0.777548
vn -0.429708 0.459098 -0.777548
vn -0.413011 0.467114 -0.781809
vn 0.429742 0.459101 0.777527
vn 0.44627 0.450925 0.772987
vn 0.429742 0.459101 0.777527
vn 0.413059 0.467112 0.781786
vn 0.429742 0.459101 0.777527
vn 0.429742 0.459101 0.777527
vn 0.894427 0.447213 0
vn 0.894427 0.447213 0
vn 0.894427 0.447213 0
vn 0.894427 0.447213 0
vn 0.894427 0.447213 0
vn 0.894427 0.447213 0
vn 0.429724 0.459096 -0.77754
vn 0.429724 0.459096 -0.77754
vn 0.413019 0.467117 -0.781804
vn 0.446274 0.45091 -0.772994
vn 0.429724 0.459096 -0.77754
vn 0.429724 0.459096 -0.77754
vt 0.575037 0.625859
vt 0.583691 0.614355
vt 0.575037 0.64887
vt 0.575037 0.64887
vt 0.583691 0.614355
vt 0.583691 0.660374
vt 0.583691 0.614355
vt 0.592346 0.625859
vt 0.583691 0.660374
vt 0.592346 0.625859
vt 0.592346 0.64887
vt 0.583691 0.660374
vt 0.581596 0.779677
vt 0.577287 0.759247
vt 0.581596 0.759247
vt 0.581596 0.779677
vt 0.569825 0.779677
vt 0.577287 0.759247
vt 0.588401 0.779475
vt 0.573478 0.779475
vt 0.578452 0.759045
vt 0.588401 0.779475
vt 0.578452 0.759045
vt 0.583427 0.759045
vt 0.593354 0.780286
vt 0.581583 0.780286
vt 0.585891 0.759858
vt 0.581583 0.780286
vt 0.581583 0.759858
vt 0.585891 0.759858
vt 0.593366 0.779677
vt 0.581596 0.779677
vt 0.585904 0.759247
vt 0.585904 0.759247
vt 0.581596 0.779677
vt 0.581596 0.759247
vt 0.583146 0.759045
vt 0.573197 0.779475
vt 0.578171 0.759045
vt 0.588121 0.779475
vt 0.573197 0.779475
vt 0.583146 0.759045
vt 0.581583 0.759858
vt 0.581583 0.780286
vt 0.577275 0.759858
vt 0.581583 0.780286
vt 0.569813 0.780286
vt 0.577275 0.759858
vt 0.577287 0.800106
vt 0.569825 0.779677
vt 0.581596 0.779677
vt 0.581596 0.800106
vt 0.577287 0.800106
vt 0.581596 0.779677
vt 0.583427 0.799903
vt 0.578452 0.799903
vt 0.588401 0.779475
vt 0.578452 0.799903
vt 0.573478 0.779475
vt 0.588401 0.779475
vt 0.585891 0.800715
vt 0.581583 0.800715
vt 0.581583 0.780286
vt 0.585891 0.800715
vt 0.581583 0.780286
vt 0.593354 0.780286
vt 0.585904 0.800106
vt 0.581596 0.800106
vt 0.581596 0.779677
vt 0.593366 0.779677
vt 0.585904 0.800106
vt 0.581596 0.779677
vt 0.588121 0.779475
vt 0.583146 0.799903
vt 0.573197 0.779475
vt 0.583146 0.799903
vt 0.578171 0.799903
vt 0.573197 0.779475
vt 0.581583 0.780286
vt 0.577275 0.800715
vt 0.569813 0.780286
vt 0.581583 0.800715
vt 0.577275 0.800715
vt 0.581583 0.780286
usemtl acmat_0
f 7/1/1 8/2/2 4/3/3
f 4/4/4 8/5/5 2/6/6
f 8/7/7 11/8/8 2/9/9
f 11/10/10 10/11/11 2/12/12
f 1/13/13 4/14/14 2/15/15
f 1/16/16 3/17/17 4/18/18
f 3/19/19 6/20/20 7/21/21
f 3/22/22 7/23/23 4/24/24
f 6/25/25 5/26/26 7/27/27
f 5/28/28 8/29/29 7/30/30
f 9/31/31 1/32/32 10/33/33
f 10/34/34 1/35/35 2/36/36
f 11/37/37 9/38/38 10/39/39
f 12/40/40 9/41/41 11/42/42
f 8/43/43 5/44/44 11/45/45
f 5/46/46 12/47/47 11/48/48
f 14/49/49 3/50/50 1/51/51
f 13/52/52 14/53/53 1/54/54
f 14/55/55 16/56/56 3/57/57
f 16/58/58 6/59/59 3/60/60
f 16/61/61 15/62/62 5/63/63
f 16/64/64 5/65/65 6/66/66
f 17/67/67 13/68/68 1/69/69
f 9/70/70 17/71/71 1/72/72
f 12/73/73 18/74/74 9/75/75
f 18/76/76 17/77/77 9/78/78
f 5/79/79 18/80/80 12/81/81
f 15/82/82 18/83/83 5/84/84
