mtllib schreck.mtl
g g0
v -0.445681 6.45371 0.53405
v -0.430751 6.45491 0.038563
v 0.005849 6.45231 -0.196263
v -0.024091 6.44991 0.79475
v 0.427459 6.44851 0.064445
v 0.412509 6.44731 0.55995
v -0.540901 -6.44465 0.500309
v -0.525941 -6.44349 0.004825
v 0.332269 -6.44988 0.030682
v -0.089351 -6.44611 -0.23
v 0.317309 -6.45107 0.526189
v -0.099321 -6.43689 0.100347
v -0.096871 -6.10641 0.101203
v -0.116811 -6.10798 0.76185
v -0.119261 -6.44845 0.76102
v -0.759961 -6.43195 0.080407
v -1.09028 -6.42948 0.070462
v -1.08784 -6.09901 0.071318
v -0.757521 -6.10148 0.081288
v -0.459551 -6.43679 1.08137
v -1.11775 -6.1014 1.06229
v -0.457111 -6.10631 1.08223
v -1.12019 -6.43185 1.06145
v -0.070041 -2.47123 0.110719
v -0.067571 -2.14076 0.111599
v -1.061 -2.46383 0.08081
v -1.05854 -2.13336 0.081691
v -0.089981 -2.47279 0.77139
v -1.0785 -2.13494 0.74234
v -0.087541 -2.14235 0.77225
v -1.08094 -2.46542 0.741509
v 0.107539 -2.14121 -0.113761
v 0.109979 -1.81071 -0.11288
v -0.220341 -1.80827 -0.12285
v -0.222761 -2.13875 -0.123706
v -0.182881 -2.13557 -1.54505
v 0.147419 -2.13804 -1.53508
v -0.178221 -0.153538 -1.20951
v -0.190431 -1.80591 -1.21384
v 0.152099 -0.156008 -1.19954
v 0.139889 -1.80837 -1.2039
v -0.168251 -0.152758 -1.53983
v 0.162069 -0.155198 -1.52989
v -0.180441 -1.8051 -1.54419
v 0.149879 -1.80757 -1.53422
v 0.134599 0.172912 -0.538041
v 0.137039 0.503352 -0.53716
v -0.193281 0.505822 -0.54713
v -0.195721 0.175352 -0.547986
v -0.170901 0.837882 -1.20694
v 0.159429 0.835412 -1.19695
v -0.173341 0.507412 -1.20777
v 0.156989 0.504942 -1.19783
v 0.117309 -0.819318 -0.060312
v 0.129519 0.833022 -0.055956
v -0.200811 0.835512 -0.065952
v -0.213021 -0.816848 -0.070257
v -0.190841 0.836292 -0.546274
v 0.139459 0.833832 -0.536304
v -0.203051 -0.816048 -0.550579
v 0.127279 -0.818508 -0.540634
vn -0.525914 0.00165689 0.850536
vn -0.525914 0.00165689 0.850536
vn -0.525899 0.0016561 0.850545
vn -0.525914 0.00165689 0.850536
vn -0.525928 0.00165767 0.850527
vn -0.525914 0.00165689 0.850536
vn 0.473645 -0.00579945 0.880697
vn 0.619514 -0.00653636 0.784958
vn 0.473645 -0.00579945 0.880697
vn 0.473608 -0.00580083 0.880717
vn 0.473645 -0.00579945 0.880697
vn 0.473645 -0.00579945 0.880697
vn 0.999517 -0.00745537 0.0301589
vn 0.999518 -0.00745574 0.0301488
vn 0.999518 -0.00745574 0.0301488
vn 0.999518 -0.00745574 0.0301488
vn 0.999518 -0.0074561 0.0301387
vn 0.999518 -0.00745574 0.0301488
vn 0.525899 -0.00165579 -0.850546
vn 0.525899 -0.00165579 -0.850546
vn 0.525875 -0.00165452 -0.85056
vn 0.525922 -0.00165706 -0.850531
vn 0.525899 -0.00165579 -0.850546
vn 0.525899 -0.00165579 -0.850546
vn -0.473655 0.00579917 -0.880691
vn -0.473652 0.0057993 -0.880693
vn -0.473652 0.0057993 -0.880693
vn -0.473652 0.0057993 -0.880693
vn -0.473649 0.00579942 -0.880695
vn -0.473652 0.0057993 -0.880693
vn -0.999518 0.00745642 -0.0301301
vn -0.999517 0.00745532 -0.0301607
vn -0.999518 0.00745642 -0.0301301
vn -0.999519 0.00745752 -0.0300994
vn -0.999518 0.00745642 -0.0301301
vn -0.999518 0.00745642 -0.0301301
vn 0.00737705 0.999969 0.00264416
vn 0.0073769 0.999969 0.00264399
vn 0.00737648 0.999969 0.00264389
vn 0.00737608 0.999969 0.00264348
vn 0.0073769 0.999969 0.00264399
vn 0.00737705 0.999969 0.00264416
vn 0.00737705 0.999969 0.00264416
vn 0.00737648 0.999969 0.00264389
vn 0.00737586 0.999969 0.00264358
vn 0.00737586 0.999969 0.00264358
vn 0.00737648 0.999969 0.00264389
vn 0.00737439 0.999969 0.00264267
vn -0.0074329 -0.999969 -0.0025629
vn -0.00741021 -0.999969 -0.0025751
vn -0.0118805 -0.99992 -0.00423882
vn -0.00741021 -0.999969 -0.0025751
vn -0.00737191 -0.999969 -0.00259584
vn -0.0118805 -0.99992 -0.00423882
vn -0.0118805 -0.99992 -0.00423882
vn -0.00737191 -0.999969 -0.00259584
vn -0.00736411 -0.99997 -0.00260011
vn -0.00737191 -0.999969 -0.00259584
vn -0.00734031 -0.99997 -0.00261291
vn -0.00736411 -0.99997 -0.00260011
vn -0.0188245 -0.999822 0.000820001
vn -0.012994 -0.999905 -0.00467004
vn -0.0118805 -0.99992 -0.00423882
vn -0.012994 -0.999905 -0.00467004
vn -0.00693535 -0.999819 -0.017707
vn -0.0118805 -0.99992 -0.00423882
vn 0.99952 -0.00737687 0.0300933
vn 0.911892 -0.00756219 0.41036
vn 0.95946 -0.00767037 0.28174
vn 0.999521 -0.00748786 0.0300358
vn 0.99952 -0.00737687 0.0300933
vn 0.99952 -0.00737687 0.0300933
vn 0.00739285 0.999969 0.00258615
vn 0.00737161 0.999969 0.00261723
vn 0.00737409 0.999969 0.00260381
vn 0.00737161 0.999969 0.00261723
vn 0.00735225 0.99997 0.0026224
vn 0.00737409 0.999969 0.00260381
vn 0.354589 -0.0049676 0.935009
vn 0.354553 -0.00505094 0.935022
vn 0.619514 -0.00653636 0.784958
vn 0.911892 -0.00756219 0.41036
vn 0.479129 -0.0057329 0.877726
vn 0.768575 -0.0072227 0.639719
vn -0.00739074 -0.999969 -0.00261177
vn -0.012994 -0.999905 -0.00467004
vn -0.0188245 -0.999822 0.000820001
vn -0.00739074 -0.999969 -0.00261177
vn -0.00739007 -0.999969 -0.00261152
vn -0.012994 -0.999905 -0.00467004
vn -0.999518 0.00746307 -0.0301489
vn -0.999518 0.00746207 -0.0301492
vn -0.999518 0.00746207 -0.0301492
vn -0.999518 0.00746207 -0.0301492
vn -0.999518 0.00746106 -0.0301496
vn -0.999518 0.00746207 -0.0301492
vn 0.00737161 0.999969 0.00261723
vn 0.00736912 0.999969 0.00263066
vn 0.00735225 0.99997 0.0026224
vn 0.00738909 0.999969 0.00263799
vn 0.00736912 0.999969 0.00263066
vn 0.00737161 0.999969 0.00261723
vn 0.354589 -0.0049676 0.935009
vn -0.0301699 -0.00234802 0.999542
vn 0.354553 -0.00505094 0.935022
vn 0.223361 -0.00416399 0.974727
vn -0.0301848 -0.00231763 0.999542
vn -0.0301699 -0.00234802 0.999542
vn -0.00735772 -0.99997 -0.00262855
vn -0.00737338 -0.999969 -0.00260652
vn -0.00737338 -0.999969 -0.00260652
vn -0.00737338 -0.999969 -0.00260652
vn -0.00738905 -0.999969 -0.0025845
vn -0.00737338 -0.999969 -0.00260652
vn 0.999517 -0.00755088 0.030149
vn 0.999517 -0.00750499 0.0301721
vn 0.999517 -0.00750499 0.0301721
vn 0.999517 -0.00750499 0.0301721
vn 0.999516 -0.0074591 0.0301952
vn 0.999517 -0.00750499 0.0301721
vn 0.0073879 0.999969 0.00262998
vn 0.00739319 0.999969 0.00262255
vn 0.00739319 0.999969 0.00262255
vn 0.00739319 0.999969 0.00262255
vn 0.00739848 0.999969 0.00261511
vn 0.00739319 0.999969 0.00262255
vn -0.999516 0.00746124 -0.0301893
vn -0.999517 0.00750306 -0.0301683
vn -0.999517 0.00750306 -0.0301683
vn -0.999517 0.00750306 -0.0301683
vn -0.999517 0.00754488 -0.0301473
vn -0.999517 0.00750306 -0.0301683
vn -0.0301717 -0.0023345 0.999542
vn -0.0301717 -0.0023345 0.999542
vn -0.0301574 -0.00237864 0.999542
vn -0.0301717 -0.0023345 0.999542
vn -0.0301861 -0.00229035 0.999542
vn -0.0301717 -0.0023345 0.999542
vn -0.00740407 -0.99997 -0.00244502
vn -0.00738912 -0.99997 -0.0024411
vn -0.00738912 -0.99997 -0.0024411
vn -0.00738912 -0.99997 -0.0024411
vn -0.00738912 -0.99997 -0.0024411
vn -0.00737418 -0.99997 -0.00243718
vn 0.999579 -0.00751338 0.02803
vn 0.999558 -0.00747357 0.0287614
vn 0.999579 -0.0074839 0.0280369
vn 0.999558 -0.00747357 0.0287614
vn 0.999579 -0.00745442 0.0280438
vn 0.999579 -0.0074839 0.0280369
vn 0.00735872 0.99997 0.00242624
vn 0.00735872 0.99997 0.00242624
vn 0.00731397 0.99997 0.0024145
vn 0.00735872 0.99997 0.00242624
vn 0.00740347 0.99997 0.00243798
vn 0.00735872 0.99997 0.00242624
vn -0.999579 0.00739227 -0.0280438
vn -0.999559 0.00743288 -0.0287604
vn -0.999579 0.00742258 -0.0280367
vn -0.999559 0.00743288 -0.0287604
vn -0.999579 0.00745289 -0.0280296
vn -0.999579 0.00742258 -0.0280367
vn 0.0301618 0.00239202 -0.999542
vn 0.0301875 0.00237587 -0.999541
vn 0.0301876 0.00236521 -0.999542
vn 0.0301876 0.00236521 -0.999542
vn 0.0301875 0.00237587 -0.999541
vn 0.0301884 0.00236447 -0.999542
vn 0.999517 -0.00745911 0.030179
vn 0.999518 -0.00746532 0.0301475
vn 0.999517 -0.00745911 0.030179
vn 0.999558 -0.00747357 0.0287614
vn 0.999517 -0.00745911 0.030179
vn 0.999517 -0.00745911 0.030179
vn -0.999518 0.00746483 -0.0301505
vn -0.999517 0.00745916 -0.0301792
vn -0.999517 0.00745916 -0.0301792
vn -0.999517 0.00745916 -0.0301792
vn -0.999559 0.00743289 -0.0287604
vn -0.999517 0.00745916 -0.0301792
vn -0.0301491 -0.00240406 0.999543
vn -0.0301868 -0.00239624 0.999541
vn -0.0301491 -0.00240406 0.999543
vn -0.0301491 -0.00240406 0.999543
vn -0.0301491 -0.00240406 0.999543
vn -0.0301115 -0.00241189 0.999544
vn 0.0301114 0.00241293 -0.999544
vn 0.0301493 0.00240505 -0.999543
vn 0.0301618 0.00239202 -0.999542
vn 0.0301618 0.00239202 -0.999542
vn 0.0301493 0.00240505 -0.999543
vn 0.0301875 0.00237587 -0.999541
vn 0.00693009 -0.893324 -0.449359
vn 0.00688894 -0.893332 -0.449344
vn 0.00688894 -0.893332 -0.449344
vn 0.00688894 -0.893332 -0.449344
vn 0.00684779 -0.89334 -0.449329
vn 0.00688894 -0.893332 -0.449344
vn 0.999517 -0.00746067 0.0301641
vn 0.999517 -0.00746067 0.0301641
vn 0.999517 -0.00746097 0.0301641
vn 0.999517 -0.00746067 0.0301641
vn 0.999517 -0.00746037 0.0301641
vn 0.999517 -0.00746067 0.0301641
vn -0.00691824 0.893324 0.44936
vn -0.00690041 0.893328 0.449353
vn -0.00690041 0.893328 0.449353
vn -0.00690041 0.893328 0.449353
vn -0.00688257 0.893331 0.449347
vn -0.00690041 0.893328 0.449353
vn -0.999518 0.0074557 -0.0301501
vn -0.999518 0.00745683 -0.0301501
vn -0.999518 0.00745683 -0.0301501
vn -0.999518 0.00745683 -0.0301501
vn -0.999518 0.00745683 -0.0301501
vn -0.999518 0.00745797 -0.0301501
vn 0.0302636 0.00229002 -0.999539
vn 0.0301873 0.00236757 -0.999542
vn 0.0301873 0.00236757 -0.999542
vn 0.0301873 0.00236757 -0.999542
vn 0.0301873 0.00236757 -0.999542
vn 0.0301109 0.00244511 -0.999544
vn -0.00740697 -0.999971 -0.00182957
vn -0.00739213 -0.999971 -0.00181884
vn -0.00740697 -0.999971 -0.00182957
vn -0.00740697 -0.999971 -0.00182957
vn -0.00740697 -0.999971 -0.00182957
vn -0.0074218 -0.999971 -0.00184031
vn 0.999757 -0.00742392 0.0207394
vn 0.999758 -0.00743308 0.0207076
vn 0.999758 -0.00743308 0.0207076
vn 0.999758 -0.00743308 0.0207076
vn 0.999759 -0.00744225 0.0206758
vn 0.999758 -0.00743308 0.0207076
vn 0.00743793 0.999971 0.00180927
vn 0.00743793 0.999971 0.00180927
vn 0.00748193 0.99997 0.00184111
vn 0.00739392 0.999971 0.00177743
vn 0.00743793 0.999971 0.00180927
vn 0.00743793 0.999971 0.00180927
vn -0.999757 0.00744167 -0.0207398
vn -0.999757 0.00744172 -0.0207396
vn -0.999757 0.00744172 -0.0207396
vn -0.999757 0.00744172 -0.0207396
vn -0.999757 0.00744176 -0.0207395
vn -0.999757 0.00744172 -0.0207396
vn 0.0301886 0.00238113 -0.999541
vn 0.0301495 0.00238924 -0.999543
vn 0.0301495 0.00238924 -0.999543
vn 0.0301495 0.00238924 -0.999543
vn 0.0301495 0.00238924 -0.999543
vn 0.0301105 0.00239736 -0.999544
vt 0.748511 0.869103
vt 0.740183 0.523799
vt 0.746978 0.523697
vt 0.748511 0.869103
vt 0.741717 0.869205
vt 0.740183 0.523799
vt 0.741877 0.869103
vt 0.740343 0.523697
vt 0.747379 0.523628
vt 0.748913 0.869033
vt 0.741877 0.869103
vt 0.747379 0.523628
vt 0.747962 0.523479
vt 0.747419 0.868885
vt 0.739977 0.523448
vt 0.747419 0.868885
vt 0.739433 0.868853
vt 0.739977 0.523448
vt 0.748159 0.523581
vt 0.73983 0.868885
vt 0.741364 0.523479
vt 0.746625 0.868987
vt 0.73983 0.868885
vt 0.748159 0.523581
vt 0.748486 0.524714
vt 0.746952 0.870119
vt 0.74145 0.524643
vt 0.746952 0.870119
vt 0.739916 0.870049
vt 0.74145 0.524643
vt 0.739593 0.869056
vt 0.73905 0.523651
vt 0.747036 0.52362
vt 0.747579 0.869025
vt 0.739593 0.869056
vt 0.747036 0.52362
vt 0.604357 0.305484
vt 0.593895 0.273336
vt 0.603663 0.261858
vt 0.594241 0.295147
vt 0.593895 0.273336
vt 0.604357 0.305484
vt 0.604357 0.305484
vt 0.603663 0.261858
vt 0.614126 0.294007
vt 0.614126 0.294007
vt 0.603663 0.261858
vt 0.613779 0.272195
vt 0.593991 0.294306
vt 0.594338 0.272494
vt 0.603761 0.305783
vt 0.594338 0.272494
vt 0.604454 0.262157
vt 0.603761 0.305783
vt 0.603761 0.305783
vt 0.604454 0.262157
vt 0.613876 0.295446
vt 0.604454 0.262157
vt 0.614222 0.273633
vt 0.613876 0.295446
vt 0.735981 0.967896
vt 0.77344 0.979009
vt 0.74797 0.955305
vt 0.77344 0.979009
vt 0.772694 0.954568
vt 0.74797 0.955305
vt 0.761254 0.961349
vt 0.761312 0.98579
vt 0.773681 0.985759
vt 0.773622 0.961317
vt 0.761254 0.961349
vt 0.773681 0.985759
vt 0.738436 0.953229
vt 0.737691 0.977672
vt 0.76316 0.953967
vt 0.737691 0.977672
vt 0.775149 0.966557
vt 0.76316 0.953967
vt 0.753303 0.982732
vt 0.76567 0.982822
vt 0.765732 0.970232
vt 0.753365 0.970142
vt 0.753303 0.982732
vt 0.765732 0.970232
vt 0.736726 0.992337
vt 0.77344 0.979009
vt 0.735981 0.967896
vt 0.736726 0.992337
vt 0.773813 0.991231
vt 0.77344 0.979009
vt 0.749113 0.954378
vt 0.749023 0.99104
vt 0.761479 0.954408
vt 0.749023 0.99104
vt 0.76139 0.991072
vt 0.761479 0.954408
vt 0.737691 0.977672
vt 0.774403 0.990999
vt 0.775149 0.966557
vt 0.737317 0.989893
vt 0.774403 0.990999
vt 0.737691 0.977672
vt 0.748073 0.96722
vt 0.760256 0.991753
vt 0.76044 0.967311
vt 0.748073 0.96722
vt 0.74789 0.991663
vt 0.760256 0.991753
vt 0.761834 0.987363
vt 0.777798 0.986735
vt 0.761112 0.956165
vt 0.777798 0.986735
vt 0.777076 0.955537
vt 0.761112 0.956165
vt 0.783563 0.961382
vt 0.778292 0.961401
vt 0.783587 0.975109
vt 0.778292 0.961401
vt 0.778318 0.975127
vt 0.783587 0.975109
vt 0.755458 0.954398
vt 0.754736 0.985595
vt 0.771421 0.955027
vt 0.754736 0.985595
vt 0.770699 0.986224
vt 0.771421 0.955027
vt 0.778186 0.964989
vt 0.778161 0.978716
vt 0.783456 0.965006
vt 0.778161 0.978716
vt 0.783431 0.978734
vt 0.783456 0.965006
vt 0.778154 0.962714
vt 0.783306 0.983356
vt 0.783424 0.962765
vt 0.778154 0.962714
vt 0.778036 0.983305
vt 0.783306 0.983356
vt 0.786186 0.656763
vt 0.786026 0.61644
vt 0.764951 0.661635
vt 0.764951 0.661635
vt 0.786026 0.61644
vt 0.764791 0.621307
vt 0.787309 0.661981
vt 0.781997 0.661876
vt 0.786207 0.600671
vt 0.781997 0.661876
vt 0.780895 0.600562
vt 0.786207 0.600671
vt 0.759126 0.613201
vt 0.784992 0.668669
vt 0.785189 0.61918
vt 0.759126 0.613201
vt 0.758929 0.66269
vt 0.784992 0.668669
vt 0.780856 0.600605
vt 0.781958 0.661919
vt 0.786167 0.60071
vt 0.781958 0.661919
vt 0.787269 0.662025
vt 0.786167 0.60071
vt 0.781958 0.603534
vt 0.781997 0.613862
vt 0.787269 0.603237
vt 0.787269 0.603237
vt 0.781997 0.613862
vt 0.787309 0.61356
vt 0.755441 0.660173
vt 0.755454 0.619841
vt 0.78201 0.620375
vt 0.781997 0.660703
vt 0.755441 0.660173
vt 0.78201 0.620375
vt 0.755414 0.622235
vt 0.755402 0.662559
vt 0.78197 0.622761
vt 0.755402 0.662559
vt 0.781958 0.663092
vt 0.78197 0.622761
vt 0.759732 0.662874
vt 0.759692 0.622551
vt 0.786248 0.621058
vt 0.759732 0.662874
vt 0.786248 0.621058
vt 0.786288 0.661385
vt 0.755251 0.660059
vt 0.75529 0.619732
vt 0.781807 0.661548
vt 0.781807 0.661548
vt 0.75529 0.619732
vt 0.781846 0.62122
vt 0.770163 0.65833
vt 0.780766 0.655599
vt 0.770002 0.618007
vt 0.780766 0.655599
vt 0.780606 0.615271
vt 0.770002 0.618007
vt 0.783334 0.662497
vt 0.77875 0.601842
vt 0.784061 0.601952
vt 0.783334 0.662497
vt 0.759354 0.661523
vt 0.77875 0.601842
vt 0.765779 0.61177
vt 0.765581 0.661263
vt 0.778792 0.615123
vt 0.765581 0.661263
vt 0.778596 0.664616
vt 0.778792 0.615123
vt 0.778318 0.666953
vt 0.783629 0.667054
vt 0.779045 0.606404
vt 0.779045 0.606404
vt 0.783629 0.667054
vt 0.784356 0.606509
vt 0.756165 0.623443
vt 0.756205 0.663771
vt 0.761476 0.623146
vt 0.761476 0.623146
vt 0.756205 0.663771
vt 0.761516 0.663473
vt 0.771131 0.650775
vt 0.771369 0.665649
vt 0.777027 0.607939
vt 0.771131 0.650775
vt 0.777027 0.607939
vt 0.773599 0.608975
vt 0.785254 0.608729
vt 0.768108 0.609179
vt 0.785262 0.643044
vt 0.768108 0.609179
vt 0.768117 0.643499
vt 0.785262 0.643044
vt 0.782686 0.604419
vt 0.786766 0.647801
vt 0.786893 0.605686
vt 0.782559 0.646527
vt 0.786766 0.647801
vt 0.782686 0.604419
vt 0.76759 0.609396
vt 0.767582 0.643711
vt 0.784736 0.609842
vt 0.767582 0.643711
vt 0.784727 0.644158
vt 0.784736 0.609842
vt 0.768083 0.609734
vt 0.768108 0.644046
vt 0.785228 0.608464
vt 0.785228 0.608464
vt 0.768108 0.644046
vt 0.785254 0.64278
usemtl acmat_0
f 4/1/1 7/2/2 15/3/3
f 4/4/4 1/5/5 7/6/6
f 4/7/7 15/8/8 11/9/9
f 6/10/10 4/11/11 11/12/12
f 9/13/13 5/14/14 11/15/15
f 5/16/16 6/17/17 11/18/18
f 10/19/19 5/20/20 9/21/21
f 3/22/22 5/23/23 10/24/24
f 8/25/25 2/26/26 10/27/27
f 2/28/28 3/29/29 10/30/30
f 2/31/31 8/32/32 7/33/33
f 1/34/34 2/35/35 7/36/36
f 3/37/37 1/38/38 4/39/39
f 2/40/40 1/41/41 3/42/42
f 3/43/43 4/44/44 5/45/45
f 5/46/46 4/47/47 6/48/48
f 7/49/49 8/50/50 15/51/51
f 8/52/52 10/53/53 15/54/54
f 15/55/55 10/56/56 11/57/57
f 10/58/58 9/59/59 11/60/60
f 20/61/61 16/62/62 15/63/63
f 16/64/64 12/65/65 15/66/66
f 13/67/67 14/68/68 15/69/69
f 12/70/70 13/71/71 15/72/72
f 13/73/73 19/74/74 14/75/75
f 19/76/76 22/77/77 14/78/78
f 22/79/79 20/80/80 15/81/81
f 14/82/82 22/83/83 15/84/84
f 23/85/85 16/86/86 20/87/87
f 23/88/88 17/89/89 16/90/90
f 21/91/91 18/92/92 23/93/93
f 18/94/94 17/95/95 23/96/96
f 19/97/97 21/98/98 22/99/99
f 18/100/100 21/101/101 19/102/102
f 22/103/103 23/104/104 20/105/105
f 22/106/106 21/107/107 23/108/108
f 31/109/109 26/110/110 28/111/111
f 26/112/112 24/113/113 28/114/114
f 24/115/115 25/116/116 28/117/117
f 25/118/118 30/119/119 28/120/120
f 25/121/121 27/122/122 30/123/123
f 27/124/124 29/125/125 30/126/126
f 29/127/127 27/128/128 31/129/129
f 27/130/130 26/131/131 31/132/132
f 30/133/133 31/134/134 28/135/135
f 30/136/136 29/137/137 31/138/138
f 36/139/139 37/140/140 35/141/141
f 35/142/142 37/143/143 32/144/144
f 37/145/145 45/146/146 32/147/147
f 45/148/148 33/149/149 32/150/150
f 45/151/151 34/152/152 33/153/153
f 45/154/154 44/155/155 34/156/156
f 34/157/157 44/158/158 35/159/159
f 44/160/160 36/161/161 35/162/162
f 44/163/163 45/164/164 36/165/165
f 36/166/166 45/167/167 37/168/168
f 43/169/169 40/170/170 41/171/171
f 45/172/172 43/173/173 41/174/174
f 38/175/175 42/176/176 39/177/177
f 42/178/178 44/179/179 39/180/180
f 40/181/181 38/182/182 39/183/183
f 40/184/184 39/185/185 41/186/186
f 42/187/187 43/188/188 44/189/189
f 44/190/190 43/191/191 45/192/192
f 49/193/193 52/194/194 46/195/195
f 52/196/196 53/197/197 46/198/198
f 53/199/199 47/200/200 46/201/201
f 53/202/202 51/203/203 47/204/204
f 51/205/205 50/206/206 47/207/207
f 50/208/208 48/209/209 47/210/210
f 50/211/211 52/212/212 48/213/213
f 48/214/214 52/215/215 49/216/216
f 50/217/217 51/218/218 52/219/219
f 52/220/220 51/221/221 53/222/222
f 57/223/223 60/224/224 61/225/225
f 57/226/226 61/227/227 54/228/228
f 61/229/229 59/230/230 54/231/231
f 59/232/232 55/233/233 54/234/234
f 59/235/235 56/236/236 55/237/237
f 58/238/238 56/239/239 59/240/240
f 56/241/241 58/242/242 57/243/243
f 58/244/244 60/245/245 57/246/246
f 58/247/247 59/248/248 60/249/249
f 60/250/250 59/251/251 61/252/252
